<?xml version="1.0" encoding="UTF-8" standalone="no"?><svg xmlns="http://www.w3.org/2000/svg" xmlns:xlink="http://www.w3.org/1999/xlink" contentStyleType="text/css" height="395px" preserveAspectRatio="none" style="width:960px;height:395px;background:#FFFFFF;" version="1.1" viewBox="0 0 960 395" width="960px" zoomAndPan="magnify"><defs/><g><text fill="#000000" font-family="sans-serif" font-size="14" font-weight="bold" lengthAdjust="spacing" textLength="172" x="393" y="28.5352">Alveo model of licences</text><line style="stroke:#181818;stroke-width:0.5;stroke-dasharray:5.0,5.0;" x1="44" x2="44" y1="118.9766" y2="314.8398"/><line style="stroke:#181818;stroke-width:0.5;stroke-dasharray:5.0,5.0;" x1="374.5" x2="374.5" y1="118.9766" y2="314.8398"/><line style="stroke:#181818;stroke-width:0.5;stroke-dasharray:5.0,5.0;" x1="772" x2="772" y1="118.9766" y2="314.8398"/><line style="stroke:#181818;stroke-width:0.5;stroke-dasharray:5.0,5.0;" x1="900" x2="900" y1="118.9766" y2="314.8398"/><text fill="#000000" font-family="sans-serif" font-size="14" lengthAdjust="spacing" textLength="73" x="5" y="116.0234">researcher</text><ellipse cx="44.5" cy="50.9883" fill="#E2E2F0" rx="8" ry="8" style="stroke:#181818;stroke-width:0.5;"/><path d="M44.5,58.9883 L44.5,85.9883 M31.5,66.9883 L57.5,66.9883 M44.5,85.9883 L31.5,100.9883 M44.5,85.9883 L57.5,100.9883 " fill="none" style="stroke:#181818;stroke-width:0.5;"/><text fill="#000000" font-family="sans-serif" font-size="14" lengthAdjust="spacing" textLength="73" x="5" y="327.375">researcher</text><ellipse cx="44.5" cy="338.8281" fill="#E2E2F0" rx="8" ry="8" style="stroke:#181818;stroke-width:0.5;"/><path d="M44.5,346.8281 L44.5,373.8281 M31.5,354.8281 L57.5,354.8281 M44.5,373.8281 L31.5,388.8281 M44.5,373.8281 L57.5,388.8281 " fill="none" style="stroke:#181818;stroke-width:0.5;"/><rect fill="#E2E2F0" height="30.4883" rx="2.5" ry="2.5" style="stroke:#181818;stroke-width:0.5;" width="52" x="348.5" y="87.4883"/><text fill="#000000" font-family="sans-serif" font-size="14" lengthAdjust="spacing" textLength="38" x="355.5" y="108.0234">Alveo</text><rect fill="#E2E2F0" height="30.4883" rx="2.5" ry="2.5" style="stroke:#181818;stroke-width:0.5;" width="52" x="348.5" y="313.8398"/><text fill="#000000" font-family="sans-serif" font-size="14" lengthAdjust="spacing" textLength="38" x="355.5" y="334.375">Alveo</text><text fill="#000000" font-family="sans-serif" font-size="14" lengthAdjust="spacing" textLength="121" x="709" y="116.0234">Index of holdings</text><path d="M754.5,66.4883 C754.5,56.4883 772.5,56.4883 772.5,56.4883 C772.5,56.4883 790.5,56.4883 790.5,66.4883 L790.5,92.4883 C790.5,102.4883 772.5,102.4883 772.5,102.4883 C772.5,102.4883 754.5,102.4883 754.5,92.4883 L754.5,66.4883 " fill="#E2E2F0" style="stroke:#181818;stroke-width:1.5;"/><path d="M754.5,66.4883 C754.5,76.4883 772.5,76.4883 772.5,76.4883 C772.5,76.4883 790.5,76.4883 790.5,66.4883 " fill="none" style="stroke:#181818;stroke-width:1.5;"/><text fill="#000000" font-family="sans-serif" font-size="14" lengthAdjust="spacing" textLength="121" x="709" y="327.375">Index of holdings</text><path d="M754.5,340.3281 C754.5,330.3281 772.5,330.3281 772.5,330.3281 C772.5,330.3281 790.5,330.3281 790.5,340.3281 L790.5,366.3281 C790.5,376.3281 772.5,376.3281 772.5,376.3281 C772.5,376.3281 754.5,376.3281 754.5,366.3281 L754.5,340.3281 " fill="#E2E2F0" style="stroke:#181818;stroke-width:1.5;"/><path d="M754.5,340.3281 C754.5,350.3281 772.5,350.3281 772.5,350.3281 C772.5,350.3281 790.5,350.3281 790.5,340.3281 " fill="none" style="stroke:#181818;stroke-width:1.5;"/><rect fill="#E2E2F0" height="30.4883" rx="2.5" ry="2.5" style="stroke:#181818;stroke-width:0.5;" width="108" x="846" y="87.4883"/><text fill="#000000" font-family="sans-serif" font-size="14" lengthAdjust="spacing" textLength="94" x="853" y="108.0234">licence Server</text><rect fill="#E2E2F0" height="30.4883" rx="2.5" ry="2.5" style="stroke:#181818;stroke-width:0.5;" width="108" x="846" y="313.8398"/><text fill="#000000" font-family="sans-serif" font-size="14" lengthAdjust="spacing" textLength="94" x="853" y="334.375">licence Server</text><polygon fill="#181818" points="362.5,146.2871,372.5,150.2871,362.5,154.2871,366.5,150.2871" style="stroke:#181818;stroke-width:1.0;"/><line style="stroke:#181818;stroke-width:1.0;" x1="44.5" x2="368.5" y1="150.2871" y2="150.2871"/><text fill="#000000" font-family="sans-serif" font-size="13" lengthAdjust="spacing" textLength="179" x="51.5" y="145.5449">Log in (username/password)</text><polygon fill="#181818" points="888,175.5977,898,179.5977,888,183.5977,892,179.5977" style="stroke:#181818;stroke-width:1.0;"/><line style="stroke:#181818;stroke-width:1.0;" x1="374.5" x2="894" y1="179.5977" y2="179.5977"/><text fill="#000000" font-family="sans-serif" font-size="13" lengthAdjust="spacing" textLength="170" x="381.5" y="174.8555">Get list of licences for user</text><polygon fill="#181818" points="385.5,204.9082,375.5,208.9082,385.5,212.9082,381.5,208.9082" style="stroke:#181818;stroke-width:1.0;"/><line style="stroke:#181818;stroke-width:1.0;" x1="379.5" x2="899" y1="208.9082" y2="208.9082"/><text fill="#000000" font-family="sans-serif" font-size="13" lengthAdjust="spacing" textLength="80" x="391.5" y="204.166">[licence-list]</text><polygon fill="#181818" points="760.5,234.2188,770.5,238.2188,760.5,242.2188,764.5,238.2188" style="stroke:#181818;stroke-width:1.0;"/><line style="stroke:#181818;stroke-width:1.0;" x1="374.5" x2="766.5" y1="238.2188" y2="238.2188"/><text fill="#000000" font-family="sans-serif" font-size="13" lengthAdjust="spacing" textLength="374" x="381.5" y="233.4766">Show browse screen (for data with licences in [licence-list])</text><polygon fill="#181818" points="385.5,263.5293,375.5,267.5293,385.5,271.5293,381.5,267.5293" style="stroke:#181818;stroke-width:1.0;"/><line style="stroke:#181818;stroke-width:1.0;" x1="379.5" x2="771.5" y1="267.5293" y2="267.5293"/><text fill="#000000" font-family="sans-serif" font-size="13" lengthAdjust="spacing" textLength="100" x="391.5" y="262.7871">&lt;browse-data&gt;</text><polygon fill="#181818" points="55.5,292.8398,45.5,296.8398,55.5,300.8398,51.5,296.8398" style="stroke:#181818;stroke-width:1.0;"/><line style="stroke:#181818;stroke-width:1.0;" x1="49.5" x2="373.5" y1="296.8398" y2="296.8398"/><text fill="#000000" font-family="sans-serif" font-size="13" lengthAdjust="spacing" textLength="306" x="61.5" y="292.0977">Serves page showing data user is licensed to see</text><!--SRC=[LP2nRiCm34HtVGNXgHcCxaOHe5DHe5l6eWCZCJO1HH94DUxdbuJifj58thtZgN6BDC5hl566QmuK8LyWigVaIPn3ttA5_Ye9OVKBzG6AJLp1sjXpmTHWu-pBuW8sFACG3Eyfq8-nbnm3fra6q_2Z7OOj6KvKRrI73JL7FSLf6en7uy847ta6Jl3qBLGJNkcveCYQQpWu4wXEJQfxewPrfFsl1HVjP4PdcZ_avxOVJV-rOrWtfoMlSAvvrIRYAv466yFgmSfjkQFrfaVEmV4zugL3HZCUzmJhDVN60WLdpT0y_QFEjqE1fKS81MWPXEWN]--></g></svg>