<?xml version="1.0" encoding="us-ascii" standalone="no"?><svg xmlns="http://www.w3.org/2000/svg" xmlns:xlink="http://www.w3.org/1999/xlink" contentStyleType="text/css" height="546px" preserveAspectRatio="none" style="width:1018px;height:546px;background:#FFFFFF;" version="1.1" viewBox="0 0 1018 546" width="1018px" zoomAndPan="magnify"><defs/><g><text fill="#000000" font-family="sans-serif" font-size="14" font-weight="bold" lengthAdjust="spacing" textLength="465" x="278.25" y="28.5352">License Server w/ CILogon Authentication &amp; REMS Authorization</text><line style="stroke:#181818;stroke-width:0.5;stroke-dasharray:5.0,5.0;" x1="53" x2="53" y1="123.6875" y2="460.4805"/><line style="stroke:#181818;stroke-width:0.5;stroke-dasharray:5.0,5.0;" x1="344" x2="344" y1="123.6875" y2="460.4805"/><line style="stroke:#181818;stroke-width:0.5;stroke-dasharray:5.0,5.0;" x1="671.5" x2="671.5" y1="123.6875" y2="460.4805"/><line style="stroke:#181818;stroke-width:0.5;stroke-dasharray:5.0,5.0;" x1="794.5" x2="794.5" y1="123.6875" y2="460.4805"/><line style="stroke:#181818;stroke-width:0.5;stroke-dasharray:5.0,5.0;" x1="944.5" x2="944.5" y1="123.6875" y2="460.4805"/><text fill="#000000" font-family="sans-serif" font-size="18" lengthAdjust="spacing" textLength="90" x="5" y="119.8906">researcher</text><ellipse cx="53" cy="50.9883" fill="#E2E2F0" rx="8" ry="8" style="stroke:#181818;stroke-width:0.5;"/><path d="M53,58.9883 L53,85.9883 M40,66.9883 L66,66.9883 M53,85.9883 L40,100.9883 M53,85.9883 L66,100.9883 " fill="none" style="stroke:#181818;stroke-width:0.5;"/><text fill="#000000" font-family="sans-serif" font-size="18" lengthAdjust="spacing" textLength="90" x="5" y="476.8828">researcher</text><ellipse cx="53" cy="489.1797" fill="#E2E2F0" rx="8" ry="8" style="stroke:#181818;stroke-width:0.5;"/><path d="M53,497.1797 L53,524.1797 M40,505.1797 L66,505.1797 M53,524.1797 L40,539.1797 M53,524.1797 L66,539.1797 " fill="none" style="stroke:#181818;stroke-width:0.5;"/><text fill="#000000" font-family="sans-serif" font-size="18" lengthAdjust="spacing" textLength="150" x="266" y="119.8906">Repository/Portal</text><ellipse cx="344" cy="86.4883" fill="#E2E2F0" rx="12" ry="12" style="stroke:#181818;stroke-width:0.5;"/><line style="stroke:#181818;stroke-width:0.5;" x1="332" x2="356" y1="100.4883" y2="100.4883"/><text fill="#000000" font-family="sans-serif" font-size="18" lengthAdjust="spacing" textLength="150" x="266" y="476.8828">Repository/Portal</text><ellipse cx="344" cy="496.6797" fill="#E2E2F0" rx="12" ry="12" style="stroke:#181818;stroke-width:0.5;"/><line style="stroke:#181818;stroke-width:0.5;" x1="332" x2="356" y1="510.6797" y2="510.6797"/><text fill="#000000" font-family="sans-serif" font-size="18" lengthAdjust="spacing" textLength="83" x="627.5" y="119.8906">Dataset 1</text><ellipse cx="672" cy="86.4883" fill="#E2E2F0" rx="12" ry="12" style="stroke:#181818;stroke-width:0.5;"/><line style="stroke:#181818;stroke-width:0.5;" x1="660" x2="684" y1="100.4883" y2="100.4883"/><text fill="#000000" font-family="sans-serif" font-size="18" lengthAdjust="spacing" textLength="83" x="627.5" y="476.8828">Dataset 1</text><ellipse cx="672" cy="496.6797" fill="#E2E2F0" rx="12" ry="12" style="stroke:#181818;stroke-width:0.5;"/><line style="stroke:#181818;stroke-width:0.5;" x1="660" x2="684" y1="510.6797" y2="510.6797"/><text fill="#000000" font-family="sans-serif" font-size="18" lengthAdjust="spacing" textLength="47" x="768" y="98.6914">REMS</text><text fill="#000000" font-family="sans-serif" font-size="18" lengthAdjust="spacing" textLength="130" x="726.5" y="119.8906">(Authorization)</text><ellipse cx="794.5" cy="65.2891" fill="#E2E2F0" rx="12" ry="12" style="stroke:#181818;stroke-width:0.5;"/><line style="stroke:#181818;stroke-width:0.5;" x1="782.5" x2="806.5" y1="79.2891" y2="79.2891"/><text fill="#000000" font-family="sans-serif" font-size="18" lengthAdjust="spacing" textLength="47" x="768" y="476.8828">REMS</text><text fill="#000000" font-family="sans-serif" font-size="18" lengthAdjust="spacing" textLength="130" x="726.5" y="498.082">(Authorization)</text><ellipse cx="794.5" cy="517.8789" fill="#E2E2F0" rx="12" ry="12" style="stroke:#181818;stroke-width:0.5;"/><line style="stroke:#181818;stroke-width:0.5;" x1="782.5" x2="806.5" y1="531.8789" y2="531.8789"/><text fill="#000000" font-family="sans-serif" font-size="18" lengthAdjust="spacing" textLength="71" x="906.5" y="98.6914">CILogon</text><text fill="#000000" font-family="sans-serif" font-size="18" lengthAdjust="spacing" textLength="139" x="872.5" y="119.8906">(Authentication)</text><ellipse cx="945" cy="65.2891" fill="#E2E2F0" rx="12" ry="12" style="stroke:#181818;stroke-width:0.5;"/><line style="stroke:#181818;stroke-width:0.5;" x1="933" x2="957" y1="79.2891" y2="79.2891"/><text fill="#000000" font-family="sans-serif" font-size="18" lengthAdjust="spacing" textLength="71" x="906.5" y="476.8828">CILogon</text><text fill="#000000" font-family="sans-serif" font-size="18" lengthAdjust="spacing" textLength="139" x="872.5" y="498.082">(Authentication)</text><ellipse cx="945" cy="517.8789" fill="#E2E2F0" rx="12" ry="12" style="stroke:#181818;stroke-width:0.5;"/><line style="stroke:#181818;stroke-width:0.5;" x1="933" x2="957" y1="531.8789" y2="531.8789"/><polygon fill="#181818" points="332,156.8867,342,160.8867,332,164.8867,336,160.8867" style="stroke:#181818;stroke-width:1.0;"/><line style="stroke:#181818;stroke-width:1.0;" x1="53" x2="338" y1="160.8867" y2="160.8867"/><text fill="#000000" font-family="sans-serif" font-size="18" lengthAdjust="spacing" textLength="173" x="60" y="155.0898">Can I have Dataset1</text><polygon fill="#181818" points="660,192.0859,670,196.0859,660,200.0859,664,196.0859" style="stroke:#181818;stroke-width:1.0;"/><line style="stroke:#181818;stroke-width:1.0;" x1="344" x2="666" y1="196.0859" y2="196.0859"/><text fill="#000000" font-family="sans-serif" font-size="18" lengthAdjust="spacing" textLength="173" x="351" y="190.2891">What's your licence?</text><polygon fill="#181818" points="355,227.2852,345,231.2852,355,235.2852,351,231.2852" style="stroke:#181818;stroke-width:1.0;"/><line style="stroke:#181818;stroke-width:1.0;" x1="349" x2="671" y1="231.2852" y2="231.2852"/><text fill="#000000" font-family="sans-serif" font-size="18" lengthAdjust="spacing" textLength="304" x="361" y="225.4883">Has "My Study Data Reuse License"</text><polygon fill="#181818" points="64,262.4844,54,266.4844,64,270.4844,60,266.4844" style="stroke:#181818;stroke-width:1.0;"/><line style="stroke:#181818;stroke-width:1.0;" x1="58" x2="343" y1="266.4844" y2="266.4844"/><text fill="#000000" font-family="sans-serif" font-size="18" lengthAdjust="spacing" textLength="209" x="70" y="260.6875">Authenticate yourself ...</text><polygon fill="#181818" points="933,297.6836,943,301.6836,933,305.6836,937,301.6836" style="stroke:#181818;stroke-width:1.0;"/><line style="stroke:#181818;stroke-width:1.0;" x1="53" x2="939" y1="301.6836" y2="301.6836"/><text fill="#000000" font-family="sans-serif" font-size="18" lengthAdjust="spacing" textLength="236" x="60" y="295.8867">Logs user in using CILogon</text><polygon fill="#181818" points="332,332.8828,342,336.8828,332,340.8828,336,336.8828" style="stroke:#181818;stroke-width:1.0;"/><line style="stroke:#181818;stroke-width:1.0;" x1="53" x2="338" y1="336.8828" y2="336.8828"/><text fill="#000000" font-family="sans-serif" font-size="18" lengthAdjust="spacing" textLength="267" x="60" y="331.0859">(redirected back to Repoistory)</text><polygon fill="#181818" points="782.5,368.082,792.5,372.082,782.5,376.082,786.5,372.082" style="stroke:#181818;stroke-width:1.0;"/><line style="stroke:#181818;stroke-width:1.0;" x1="344" x2="788.5" y1="372.082" y2="372.082"/><text fill="#000000" font-family="sans-serif" font-size="18" lengthAdjust="spacing" textLength="394" x="351" y="366.2852">Has User been granter "My Study ... License"?</text><polygon fill="#181818" points="355,403.2813,345,407.2813,355,411.2813,351,407.2813" style="stroke:#181818;stroke-width:1.0;"/><line style="stroke:#181818;stroke-width:1.0;" x1="349" x2="793.5" y1="407.2813" y2="407.2813"/><text fill="#000000" font-family="sans-serif" font-size="18" lengthAdjust="spacing" textLength="32" x="361" y="401.4844">Yep</text><polygon fill="#181818" points="332,438.4805,342,442.4805,332,446.4805,336,442.4805" style="stroke:#181818;stroke-width:1.0;"/><line style="stroke:#181818;stroke-width:1.0;" x1="53" x2="338" y1="442.4805" y2="442.4805"/><text fill="#000000" font-family="sans-serif" font-size="18" lengthAdjust="spacing" textLength="157" x="60" y="436.6836">Here's the dataset</text><!--SRC=[LL71QW8n4BtdAuOzj7geugrug1JReg1Gb58AlOpPSJUO9fBCMjQlxsJTrMuk8JDltdlp4W_67J7W3-IqnyhoctUyDMU2oQDIRDZI55P6aui4Mmed2l0xXlbovGlluBdYaXmRZMpaUGURr_MsgVfWparHeMOVu782HSAWIxeKCAQAIWnSfqAseQEFHWRgyRiFZ3RhOCSEbhqWOoI6IPOwMlNcHV_R3NeEXbchLTYULhj42x-jSSLhgyGUF3mbUPZ271qieSGJGUjXeb9705hQdoNoVOJQLm5iYapJJEdR-48eitKDMwxokc603LMIQvjl1XrRKft-3vSQraXs3wFHg7EbhQ1aXmZ24i0ukOqhkj_fcny4oaqWpPJ33lK1s4DAsyIKzX2KwjHJJgtTZyIx8t9G17GiZzi2OkJgVARIp5NhItwh9xwWG1ADx0Fv9Jdr1m00]--></g></svg>