<?xml version="1.0" encoding="us-ascii" standalone="no"?><svg xmlns="http://www.w3.org/2000/svg" xmlns:xlink="http://www.w3.org/1999/xlink" contentStyleType="text/css" height="510px" preserveAspectRatio="none" style="width:960px;height:510px;background:#FFFFFF;" version="1.1" viewBox="0 0 960 510" width="960px" zoomAndPan="magnify"><defs/><g><text fill="#000000" font-family="sans-serif" font-size="14" font-weight="bold" lengthAdjust="spacing" textLength="465" x="249.25" y="28.5352">License Server w/ CILogon Authentication &amp; REMS Authorization</text><line style="stroke:#181818;stroke-width:0.5;stroke-dasharray:5.0,5.0;" x1="53" x2="53" y1="123.6875" y2="425.2813"/><line style="stroke:#181818;stroke-width:0.5;stroke-dasharray:5.0,5.0;" x1="286" x2="286" y1="123.6875" y2="425.2813"/><line style="stroke:#181818;stroke-width:0.5;stroke-dasharray:5.0,5.0;" x1="613.5" x2="613.5" y1="123.6875" y2="425.2813"/><line style="stroke:#181818;stroke-width:0.5;stroke-dasharray:5.0,5.0;" x1="736.5" x2="736.5" y1="123.6875" y2="425.2813"/><line style="stroke:#181818;stroke-width:0.5;stroke-dasharray:5.0,5.0;" x1="886.5" x2="886.5" y1="123.6875" y2="425.2813"/><text fill="#000000" font-family="sans-serif" font-size="18" lengthAdjust="spacing" textLength="90" x="5" y="119.8906">researcher</text><ellipse cx="53" cy="50.9883" fill="#E2E2F0" rx="8" ry="8" style="stroke:#181818;stroke-width:0.5;"/><path d="M53,58.9883 L53,85.9883 M40,66.9883 L66,66.9883 M53,85.9883 L40,100.9883 M53,85.9883 L66,100.9883 " fill="none" style="stroke:#181818;stroke-width:0.5;"/><text fill="#000000" font-family="sans-serif" font-size="18" lengthAdjust="spacing" textLength="90" x="5" y="441.6836">researcher</text><ellipse cx="53" cy="453.9805" fill="#E2E2F0" rx="8" ry="8" style="stroke:#181818;stroke-width:0.5;"/><path d="M53,461.9805 L53,488.9805 M40,469.9805 L66,469.9805 M53,488.9805 L40,503.9805 M53,488.9805 L66,503.9805 " fill="none" style="stroke:#181818;stroke-width:0.5;"/><text fill="#000000" font-family="sans-serif" font-size="18" lengthAdjust="spacing" textLength="150" x="208" y="119.8906">Repository/Portal</text><ellipse cx="286" cy="86.4883" fill="#E2E2F0" rx="12" ry="12" style="stroke:#181818;stroke-width:0.5;"/><line style="stroke:#181818;stroke-width:0.5;" x1="274" x2="298" y1="100.4883" y2="100.4883"/><text fill="#000000" font-family="sans-serif" font-size="18" lengthAdjust="spacing" textLength="150" x="208" y="441.6836">Repository/Portal</text><ellipse cx="286" cy="461.4805" fill="#E2E2F0" rx="12" ry="12" style="stroke:#181818;stroke-width:0.5;"/><line style="stroke:#181818;stroke-width:0.5;" x1="274" x2="298" y1="475.4805" y2="475.4805"/><text fill="#000000" font-family="sans-serif" font-size="18" lengthAdjust="spacing" textLength="83" x="569.5" y="119.8906">Dataset 1</text><ellipse cx="614" cy="86.4883" fill="#E2E2F0" rx="12" ry="12" style="stroke:#181818;stroke-width:0.5;"/><line style="stroke:#181818;stroke-width:0.5;" x1="602" x2="626" y1="100.4883" y2="100.4883"/><text fill="#000000" font-family="sans-serif" font-size="18" lengthAdjust="spacing" textLength="83" x="569.5" y="441.6836">Dataset 1</text><ellipse cx="614" cy="461.4805" fill="#E2E2F0" rx="12" ry="12" style="stroke:#181818;stroke-width:0.5;"/><line style="stroke:#181818;stroke-width:0.5;" x1="602" x2="626" y1="475.4805" y2="475.4805"/><text fill="#000000" font-family="sans-serif" font-size="18" lengthAdjust="spacing" textLength="47" x="710" y="98.6914">REMS</text><text fill="#000000" font-family="sans-serif" font-size="18" lengthAdjust="spacing" textLength="130" x="668.5" y="119.8906">(Authorization)</text><ellipse cx="736.5" cy="65.2891" fill="#E2E2F0" rx="12" ry="12" style="stroke:#181818;stroke-width:0.5;"/><line style="stroke:#181818;stroke-width:0.5;" x1="724.5" x2="748.5" y1="79.2891" y2="79.2891"/><text fill="#000000" font-family="sans-serif" font-size="18" lengthAdjust="spacing" textLength="47" x="710" y="441.6836">REMS</text><text fill="#000000" font-family="sans-serif" font-size="18" lengthAdjust="spacing" textLength="130" x="668.5" y="462.8828">(Authorization)</text><ellipse cx="736.5" cy="482.6797" fill="#E2E2F0" rx="12" ry="12" style="stroke:#181818;stroke-width:0.5;"/><line style="stroke:#181818;stroke-width:0.5;" x1="724.5" x2="748.5" y1="496.6797" y2="496.6797"/><text fill="#000000" font-family="sans-serif" font-size="18" lengthAdjust="spacing" textLength="71" x="848.5" y="98.6914">CILogon</text><text fill="#000000" font-family="sans-serif" font-size="18" lengthAdjust="spacing" textLength="139" x="814.5" y="119.8906">(Authentication)</text><ellipse cx="887" cy="65.2891" fill="#E2E2F0" rx="12" ry="12" style="stroke:#181818;stroke-width:0.5;"/><line style="stroke:#181818;stroke-width:0.5;" x1="875" x2="899" y1="79.2891" y2="79.2891"/><text fill="#000000" font-family="sans-serif" font-size="18" lengthAdjust="spacing" textLength="71" x="848.5" y="441.6836">CILogon</text><text fill="#000000" font-family="sans-serif" font-size="18" lengthAdjust="spacing" textLength="139" x="814.5" y="462.8828">(Authentication)</text><ellipse cx="887" cy="482.6797" fill="#E2E2F0" rx="12" ry="12" style="stroke:#181818;stroke-width:0.5;"/><line style="stroke:#181818;stroke-width:0.5;" x1="875" x2="899" y1="496.6797" y2="496.6797"/><polygon fill="#181818" points="274,156.8867,284,160.8867,274,164.8867,278,160.8867" style="stroke:#181818;stroke-width:1.0;"/><line style="stroke:#181818;stroke-width:1.0;" x1="53" x2="280" y1="160.8867" y2="160.8867"/><text fill="#000000" font-family="sans-serif" font-size="18" lengthAdjust="spacing" textLength="173" x="60" y="155.0898">Can I have Dataset1</text><polygon fill="#181818" points="602,192.0859,612,196.0859,602,200.0859,606,196.0859" style="stroke:#181818;stroke-width:1.0;"/><line style="stroke:#181818;stroke-width:1.0;" x1="286" x2="608" y1="196.0859" y2="196.0859"/><text fill="#000000" font-family="sans-serif" font-size="18" lengthAdjust="spacing" textLength="173" x="293" y="190.2891">What's your licence?</text><polygon fill="#181818" points="297,227.2852,287,231.2852,297,235.2852,293,231.2852" style="stroke:#181818;stroke-width:1.0;"/><line style="stroke:#181818;stroke-width:1.0;" x1="291" x2="613" y1="231.2852" y2="231.2852"/><text fill="#000000" font-family="sans-serif" font-size="18" lengthAdjust="spacing" textLength="304" x="303" y="225.4883">Has "My Study Data Reuse License"</text><polygon fill="#181818" points="64,262.4844,54,266.4844,64,270.4844,60,266.4844" style="stroke:#181818;stroke-width:1.0;"/><line style="stroke:#181818;stroke-width:1.0;" x1="58" x2="285" y1="266.4844" y2="266.4844"/><text fill="#000000" font-family="sans-serif" font-size="18" lengthAdjust="spacing" textLength="209" x="70" y="260.6875">Authenticate yourself ...</text><polygon fill="#181818" points="875,297.6836,885,301.6836,875,305.6836,879,301.6836" style="stroke:#181818;stroke-width:1.0;"/><line style="stroke:#181818;stroke-width:1.0;" x1="53" x2="881" y1="301.6836" y2="301.6836"/><text fill="#000000" font-family="sans-serif" font-size="18" lengthAdjust="spacing" textLength="236" x="60" y="295.8867">Logs user in using CILogon</text><polygon fill="#181818" points="724.5,332.8828,734.5,336.8828,724.5,340.8828,728.5,336.8828" style="stroke:#181818;stroke-width:1.0;"/><line style="stroke:#181818;stroke-width:1.0;" x1="286" x2="730.5" y1="336.8828" y2="336.8828"/><text fill="#000000" font-family="sans-serif" font-size="18" lengthAdjust="spacing" textLength="394" x="293" y="331.0859">Has User been granter "My Study ... License"?</text><polygon fill="#181818" points="297,368.082,287,372.082,297,376.082,293,372.082" style="stroke:#181818;stroke-width:1.0;"/><line style="stroke:#181818;stroke-width:1.0;" x1="291" x2="735.5" y1="372.082" y2="372.082"/><text fill="#000000" font-family="sans-serif" font-size="18" lengthAdjust="spacing" textLength="32" x="303" y="366.2852">Yep</text><polygon fill="#181818" points="274,403.2813,284,407.2813,274,411.2813,278,407.2813" style="stroke:#181818;stroke-width:1.0;"/><line style="stroke:#181818;stroke-width:1.0;" x1="53" x2="280" y1="407.2813" y2="407.2813"/><text fill="#000000" font-family="sans-serif" font-size="18" lengthAdjust="spacing" textLength="157" x="60" y="401.4844">Here's the dataset</text><!--SRC=[LL5DQyCm3BtxLuWSzd5OIs-ZXvNHRRJGmcWOOx2BvgY9cMSNM-b8V_taD4aNNuobf_UUdkEtSGSC-0C5xR6s_E8Tv-P4CBjNYWrRciF6Q7AH8ATmf02_KrYkDxxq3XvhhiYnqSX6dbUmUzxcRTK7SsgB2ZNx0ESJA186NT6vW35LL6BW9XMo7HryD3BGJ5zzOBHP3plqiEm96ICnpBBKqMeqB_gVxcRau3Rhj4exqkgMwE2NDGQyjahimTr3aeSvBD716Yey4dGUPYfr1A2b_LuXNqTeV1t0fiWqBPI-ZA-4Cjisa7DTD2q3xAYMNBjyC-ZPakhyVxZKiaQoUvXC9hqhRGKbEqGGbW36oMrSEVpEm9Ssxmoy9UGNaOCoe6DvN2m9zU1beTBCuFr3yXzbiQ90igmuXEASXVe3]--></g></svg>