<?xml version="1.0" encoding="us-ascii" standalone="no"?><svg xmlns="http://www.w3.org/2000/svg" xmlns:xlink="http://www.w3.org/1999/xlink" contentStyleType="text/css" height="546px" preserveAspectRatio="none" style="width:1010px;height:546px;background:#FFFFFF;" version="1.1" viewBox="0 0 1010 546" width="1010px" zoomAndPan="magnify"><defs/><g><text fill="#000000" font-family="sans-serif" font-size="14" font-weight="bold" lengthAdjust="spacing" textLength="477" x="268.25" y="28.5352">License Server with CILogon Authentication &amp; REMS Authorization</text><line style="stroke:#181818;stroke-width:0.5;stroke-dasharray:5.0,5.0;" x1="53" x2="53" y1="123.6875" y2="460.4805"/><line style="stroke:#181818;stroke-width:0.5;stroke-dasharray:5.0,5.0;" x1="336" x2="336" y1="123.6875" y2="460.4805"/><line style="stroke:#181818;stroke-width:0.5;stroke-dasharray:5.0,5.0;" x1="663.5" x2="663.5" y1="123.6875" y2="460.4805"/><line style="stroke:#181818;stroke-width:0.5;stroke-dasharray:5.0,5.0;" x1="790.5" x2="790.5" y1="123.6875" y2="460.4805"/><line style="stroke:#181818;stroke-width:0.5;stroke-dasharray:5.0,5.0;" x1="941.5" x2="941.5" y1="123.6875" y2="460.4805"/><text fill="#000000" font-family="sans-serif" font-size="18" lengthAdjust="spacing" textLength="90" x="5" y="119.8906">researcher</text><ellipse cx="53" cy="50.9883" fill="#E2E2F0" rx="8" ry="8" style="stroke:#181818;stroke-width:0.5;"/><path d="M53,58.9883 L53,85.9883 M40,66.9883 L66,66.9883 M53,85.9883 L40,100.9883 M53,85.9883 L66,100.9883 " fill="none" style="stroke:#181818;stroke-width:0.5;"/><text fill="#000000" font-family="sans-serif" font-size="18" lengthAdjust="spacing" textLength="90" x="5" y="476.8828">researcher</text><ellipse cx="53" cy="489.1797" fill="#E2E2F0" rx="8" ry="8" style="stroke:#181818;stroke-width:0.5;"/><path d="M53,497.1797 L53,524.1797 M40,505.1797 L66,505.1797 M53,524.1797 L40,539.1797 M53,524.1797 L66,539.1797 " fill="none" style="stroke:#181818;stroke-width:0.5;"/><text fill="#000000" font-family="sans-serif" font-size="18" lengthAdjust="spacing" textLength="150" x="258" y="119.8906">Repository/Portal</text><ellipse cx="336" cy="86.4883" fill="#E2E2F0" rx="12" ry="12" style="stroke:#181818;stroke-width:0.5;"/><line style="stroke:#181818;stroke-width:0.5;" x1="324" x2="348" y1="100.4883" y2="100.4883"/><text fill="#000000" font-family="sans-serif" font-size="18" lengthAdjust="spacing" textLength="150" x="258" y="476.8828">Repository/Portal</text><ellipse cx="336" cy="496.6797" fill="#E2E2F0" rx="12" ry="12" style="stroke:#181818;stroke-width:0.5;"/><line style="stroke:#181818;stroke-width:0.5;" x1="324" x2="348" y1="510.6797" y2="510.6797"/><text fill="#000000" font-family="sans-serif" font-size="18" lengthAdjust="spacing" textLength="83" x="619.5" y="119.8906">Dataset 1</text><ellipse cx="664" cy="86.4883" fill="#E2E2F0" rx="12" ry="12" style="stroke:#181818;stroke-width:0.5;"/><line style="stroke:#181818;stroke-width:0.5;" x1="652" x2="676" y1="100.4883" y2="100.4883"/><text fill="#000000" font-family="sans-serif" font-size="18" lengthAdjust="spacing" textLength="83" x="619.5" y="476.8828">Dataset 1</text><ellipse cx="664" cy="496.6797" fill="#E2E2F0" rx="12" ry="12" style="stroke:#181818;stroke-width:0.5;"/><line style="stroke:#181818;stroke-width:0.5;" x1="652" x2="676" y1="510.6797" y2="510.6797"/><text fill="#000000" font-family="sans-serif" font-size="18" lengthAdjust="spacing" textLength="71" x="752.5" y="98.6914">CILogon</text><text fill="#000000" font-family="sans-serif" font-size="18" lengthAdjust="spacing" textLength="139" x="718.5" y="119.8906">(Authentication)</text><ellipse cx="791" cy="65.2891" fill="#E2E2F0" rx="12" ry="12" style="stroke:#181818;stroke-width:0.5;"/><line style="stroke:#181818;stroke-width:0.5;" x1="779" x2="803" y1="79.2891" y2="79.2891"/><text fill="#000000" font-family="sans-serif" font-size="18" lengthAdjust="spacing" textLength="71" x="752.5" y="476.8828">CILogon</text><text fill="#000000" font-family="sans-serif" font-size="18" lengthAdjust="spacing" textLength="139" x="718.5" y="498.082">(Authentication)</text><ellipse cx="791" cy="517.8789" fill="#E2E2F0" rx="12" ry="12" style="stroke:#181818;stroke-width:0.5;"/><line style="stroke:#181818;stroke-width:0.5;" x1="779" x2="803" y1="531.8789" y2="531.8789"/><text fill="#000000" font-family="sans-serif" font-size="18" lengthAdjust="spacing" textLength="47" x="915" y="98.6914">REMS</text><text fill="#000000" font-family="sans-serif" font-size="18" lengthAdjust="spacing" textLength="130" x="873.5" y="119.8906">(Authorization)</text><ellipse cx="941.5" cy="65.2891" fill="#E2E2F0" rx="12" ry="12" style="stroke:#181818;stroke-width:0.5;"/><line style="stroke:#181818;stroke-width:0.5;" x1="929.5" x2="953.5" y1="79.2891" y2="79.2891"/><text fill="#000000" font-family="sans-serif" font-size="18" lengthAdjust="spacing" textLength="47" x="915" y="476.8828">REMS</text><text fill="#000000" font-family="sans-serif" font-size="18" lengthAdjust="spacing" textLength="130" x="873.5" y="498.082">(Authorization)</text><ellipse cx="941.5" cy="517.8789" fill="#E2E2F0" rx="12" ry="12" style="stroke:#181818;stroke-width:0.5;"/><line style="stroke:#181818;stroke-width:0.5;" x1="929.5" x2="953.5" y1="531.8789" y2="531.8789"/><polygon fill="#181818" points="324,156.8867,334,160.8867,324,164.8867,328,160.8867" style="stroke:#181818;stroke-width:1.0;"/><line style="stroke:#181818;stroke-width:1.0;" x1="53" x2="330" y1="160.8867" y2="160.8867"/><text fill="#000000" font-family="sans-serif" font-size="18" lengthAdjust="spacing" textLength="173" x="60" y="155.0898">Can I have Dataset1</text><polygon fill="#181818" points="652,192.0859,662,196.0859,652,200.0859,656,196.0859" style="stroke:#181818;stroke-width:1.0;"/><line style="stroke:#181818;stroke-width:1.0;" x1="336" x2="658" y1="196.0859" y2="196.0859"/><text fill="#000000" font-family="sans-serif" font-size="18" lengthAdjust="spacing" textLength="173" x="343" y="190.2891">What's your licence?</text><polygon fill="#181818" points="347,227.2852,337,231.2852,347,235.2852,343,231.2852" style="stroke:#181818;stroke-width:1.0;"/><line style="stroke:#181818;stroke-width:1.0;" x1="341" x2="663" y1="231.2852" y2="231.2852"/><text fill="#000000" font-family="sans-serif" font-size="18" lengthAdjust="spacing" textLength="304" x="353" y="225.4883">Has "My Study Data Reuse License"</text><polygon fill="#181818" points="64,262.4844,54,266.4844,64,270.4844,60,266.4844" style="stroke:#181818;stroke-width:1.0;"/><line style="stroke:#181818;stroke-width:1.0;" x1="58" x2="335" y1="266.4844" y2="266.4844"/><text fill="#000000" font-family="sans-serif" font-size="18" lengthAdjust="spacing" textLength="209" x="70" y="260.6875">Authenticate yourself ...</text><polygon fill="#181818" points="779,297.6836,789,301.6836,779,305.6836,783,301.6836" style="stroke:#181818;stroke-width:1.0;"/><line style="stroke:#181818;stroke-width:1.0;" x1="53" x2="785" y1="301.6836" y2="301.6836"/><text fill="#000000" font-family="sans-serif" font-size="18" lengthAdjust="spacing" textLength="236" x="60" y="295.8867">Logs user in using CILogon</text><polygon fill="#181818" points="324,332.8828,334,336.8828,324,340.8828,328,336.8828" style="stroke:#181818;stroke-width:1.0;"/><line style="stroke:#181818;stroke-width:1.0;" x1="53" x2="330" y1="336.8828" y2="336.8828"/><text fill="#000000" font-family="sans-serif" font-size="18" lengthAdjust="spacing" textLength="259" x="60" y="331.0859">Redirected back to Repository</text><polygon fill="#181818" points="929.5,368.082,939.5,372.082,929.5,376.082,933.5,372.082" style="stroke:#181818;stroke-width:1.0;"/><line style="stroke:#181818;stroke-width:1.0;" x1="336" x2="935.5" y1="372.082" y2="372.082"/><text fill="#000000" font-family="sans-serif" font-size="18" lengthAdjust="spacing" textLength="398" x="343" y="366.2852">Has User been granted "My Study ... License"?</text><polygon fill="#181818" points="347,403.2813,337,407.2813,347,411.2813,343,407.2813" style="stroke:#181818;stroke-width:1.0;"/><line style="stroke:#181818;stroke-width:1.0;" x1="341" x2="940.5" y1="407.2813" y2="407.2813"/><text fill="#000000" font-family="sans-serif" font-size="18" lengthAdjust="spacing" textLength="32" x="353" y="401.4844">Yep</text><polygon fill="#181818" points="324,438.4805,334,442.4805,324,446.4805,328,442.4805" style="stroke:#181818;stroke-width:1.0;"/><line style="stroke:#181818;stroke-width:1.0;" x1="53" x2="330" y1="442.4805" y2="442.4805"/><text fill="#000000" font-family="sans-serif" font-size="18" lengthAdjust="spacing" textLength="157" x="60" y="436.6836">Here's the dataset</text><!--SRC=[LP7DRi8m48JlVefH3lqvb8fRnQ6eegr00ga2LLMbNeop48lKHlQ6AZnzro4XS8gSdPtvF8uxw_Oww5_ajD5LoU_UySeU2SCdfTXoIIFChI4N2IiA1mhuirnWCflxhNTugRWWnzPejdAymV9jiMh- -c2FpK-b3Vi0850a7KmX7j0n7LLQvHh8bhJtqOgkVlpmWNMPdIJxNlAgMKTY39kHwGSjou-xkwQvFmdBYnI1QsLdl9DgMqQbX0WFpoaL8qoqmmo5FX3QvA5A4n4O6NyLccyZQby5bAaWGsDb-lMfc6QB6Ykkyhfnm98gQR5jCqFdbb97bqLIungft60m67HKfXILN3H2N0Aiawzrs-ubhk6NbDj0XYd7MfiTsADlk0jEbsv9FvFbciXX6xHBQpsxC9oXnohjd6E-vNskSgSKI5gHgo0_bQR-0G00]--></g></svg>