<svg xmlns="http://www.w3.org/2000/svg" xmlns:xlink="http://www.w3.org/1999/xlink" contentStyleType="text/css" data-diagram-type="SEQUENCE" height="940px" preserveAspectRatio="none" style="width:1262px;height:940px;background:#FFFFFF;" version="1.1" viewBox="0 0 1262 940" width="1262px" zoomAndPan="magnify"><title>REMS Authorisation: Applying for a licence</title><defs/><g><text fill="#000000" font-family="sans-serif" font-size="14" font-weight="bold" lengthAdjust="spacing" textLength="307.5488" x="478.9561" y="28.5352">REMS Authorisation: Applying for a licence</text><g><title>researcher</title><rect fill="#FFFFFF" fill-opacity="0.00000" height="731.1836" width="8" x="49.8438" y="123.6875"/><line style="stroke:#181818;stroke-width:0.5;stroke-dasharray:5.0,5.0;" x1="53" x2="53" y1="123.6875" y2="854.8711"/></g><g><title>Repository/Portal</title><rect fill="#FFFFFF" fill-opacity="0.00000" height="731.1836" width="8" x="413.0313" y="123.6875"/><line style="stroke:#181818;stroke-width:0.5;stroke-dasharray:5.0,5.0;" x1="416.8213" x2="416.8213" y1="123.6875" y2="854.8711"/></g><g><title>Dataset 1</title><rect fill="#FFFFFF" fill-opacity="0.00000" height="731.1836" width="8" x="740.8428" y="123.6875"/><line style="stroke:#181818;stroke-width:0.5;stroke-dasharray:5.0,5.0;" x1="744.2881" x2="744.2881" y1="123.6875" y2="854.8711"/></g><g><title>CILogon</title><rect fill="#FFFFFF" fill-opacity="0.00000" height="731.1836" width="8" x="868.2266" y="123.6875"/><line style="stroke:#181818;stroke-width:0.5;stroke-dasharray:5.0,5.0;" x1="871.3975" x2="871.3975" y1="123.6875" y2="854.8711"/></g><g><title>REMS</title><rect fill="#FFFFFF" fill-opacity="0.00000" height="731.1836" width="8" x="1019.1079" y="123.6875"/><line style="stroke:#181818;stroke-width:0.5;stroke-dasharray:5.0,5.0;" x1="1023.0557" x2="1023.0557" y1="123.6875" y2="854.8711"/></g><g><title>Chief Investigator</title><rect fill="#FFFFFF" fill-opacity="0.00000" height="731.1836" width="8" x="1177.3105" y="123.6875"/><line style="stroke:#181818;stroke-width:0.5;stroke-dasharray:5.0,5.0;" x1="1181.1602" x2="1181.1602" y1="123.6875" y2="854.8711"/></g><g><text fill="#000000" font-family="sans-serif" font-size="18" lengthAdjust="spacing" textLength="91.6875" x="5" y="119.8906">researcher</text><ellipse cx="53.8438" cy="50.9883" fill="#E2E2F0" rx="8" ry="8" style="stroke:#181818;stroke-width:0.5;"/><path d="M53.8438,58.9883 L53.8438,85.9883 M40.8438,66.9883 L66.8438,66.9883 M53.8438,85.9883 L40.8438,100.9883 M53.8438,85.9883 L66.8438,100.9883 " fill="#FFFFFF" fill-opacity="0.00000" style="stroke:#181818;stroke-width:0.5;"/></g><g><text fill="#000000" font-family="sans-serif" font-size="18" lengthAdjust="spacing" textLength="91.6875" x="5" y="871.2734">researcher</text><ellipse cx="53.8438" cy="883.5703" fill="#E2E2F0" rx="8" ry="8" style="stroke:#181818;stroke-width:0.5;"/><path d="M53.8438,891.5703 L53.8438,918.5703 M40.8438,899.5703 L66.8438,899.5703 M53.8438,918.5703 L40.8438,933.5703 M53.8438,918.5703 L66.8438,933.5703 " fill="#FFFFFF" fill-opacity="0.00000" style="stroke:#181818;stroke-width:0.5;"/></g><g><text fill="#000000" font-family="sans-serif" font-size="18" lengthAdjust="spacing" textLength="152.4199" x="337.8213" y="119.8906">Repository/Portal</text><ellipse cx="417.0313" cy="86.4883" fill="#E2E2F0" rx="12" ry="12" style="stroke:#181818;stroke-width:0.5;"/><line style="stroke:#181818;stroke-width:0.5;" x1="405.0313" x2="429.0313" y1="100.4883" y2="100.4883"/></g><g><text fill="#000000" font-family="sans-serif" font-size="18" lengthAdjust="spacing" textLength="152.4199" x="337.8213" y="871.2734">Repository/Portal</text><ellipse cx="417.0313" cy="891.0703" fill="#E2E2F0" rx="12" ry="12" style="stroke:#181818;stroke-width:0.5;"/><line style="stroke:#181818;stroke-width:0.5;" x1="405.0313" x2="429.0313" y1="905.0703" y2="905.0703"/></g><g><text fill="#000000" font-family="sans-serif" font-size="18" lengthAdjust="spacing" textLength="83.1094" x="700.2881" y="119.8906">Dataset 1</text><ellipse cx="744.8428" cy="86.4883" fill="#E2E2F0" rx="12" ry="12" style="stroke:#181818;stroke-width:0.5;"/><line style="stroke:#181818;stroke-width:0.5;" x1="732.8428" x2="756.8428" y1="100.4883" y2="100.4883"/></g><g><text fill="#000000" font-family="sans-serif" font-size="18" lengthAdjust="spacing" textLength="83.1094" x="700.2881" y="871.2734">Dataset 1</text><ellipse cx="744.8428" cy="891.0703" fill="#E2E2F0" rx="12" ry="12" style="stroke:#181818;stroke-width:0.5;"/><line style="stroke:#181818;stroke-width:0.5;" x1="732.8428" x2="756.8428" y1="905.0703" y2="905.0703"/></g><g><text fill="#000000" font-family="sans-serif" font-size="18" lengthAdjust="spacing" textLength="71.7451" x="833.354" y="98.6914">CILogon</text><text fill="#000000" font-family="sans-serif" font-size="18" lengthAdjust="spacing" textLength="139.6582" x="799.3975" y="119.8906">(Authentication)</text><ellipse cx="872.2266" cy="65.2891" fill="#E2E2F0" rx="12" ry="12" style="stroke:#181818;stroke-width:0.5;"/><line style="stroke:#181818;stroke-width:0.5;" x1="860.2266" x2="884.2266" y1="79.2891" y2="79.2891"/></g><g><text fill="#000000" font-family="sans-serif" font-size="18" lengthAdjust="spacing" textLength="71.7451" x="833.354" y="871.2734">CILogon</text><text fill="#000000" font-family="sans-serif" font-size="18" lengthAdjust="spacing" textLength="139.6582" x="799.3975" y="892.4727">(Authentication)</text><ellipse cx="872.2266" cy="912.2695" fill="#E2E2F0" rx="12" ry="12" style="stroke:#181818;stroke-width:0.5;"/><line style="stroke:#181818;stroke-width:0.5;" x1="860.2266" x2="884.2266" y1="926.2695" y2="926.2695"/></g><g><text fill="#000000" font-family="sans-serif" font-size="18" lengthAdjust="spacing" textLength="46.3359" x="996.9399" y="98.6914">REMS</text><text fill="#000000" font-family="sans-serif" font-size="18" lengthAdjust="spacing" textLength="130.1045" x="955.0557" y="119.8906">(Authorisation)</text><ellipse cx="1023.1079" cy="65.2891" fill="#E2E2F0" rx="12" ry="12" style="stroke:#181818;stroke-width:0.5;"/><line style="stroke:#181818;stroke-width:0.5;" x1="1011.1079" x2="1035.1079" y1="79.2891" y2="79.2891"/></g><g><text fill="#000000" font-family="sans-serif" font-size="18" lengthAdjust="spacing" textLength="46.3359" x="996.9399" y="871.2734">REMS</text><text fill="#000000" font-family="sans-serif" font-size="18" lengthAdjust="spacing" textLength="130.1045" x="955.0557" y="892.4727">(Authorisation)</text><ellipse cx="1023.1079" cy="912.2695" fill="#E2E2F0" rx="12" ry="12" style="stroke:#181818;stroke-width:0.5;"/><line style="stroke:#181818;stroke-width:0.5;" x1="1011.1079" x2="1035.1079" y1="926.2695" y2="926.2695"/></g><g><text fill="#000000" font-family="sans-serif" font-size="18" lengthAdjust="spacing" textLength="154.3008" x="1101.1602" y="98.6914">Chief Investigator</text><text fill="#000000" font-family="sans-serif" font-size="18" lengthAdjust="spacing" textLength="134.0244" x="1111.2983" y="119.8906">Data Custodian</text><ellipse cx="1181.3105" cy="65.2891" fill="#E2E2F0" rx="12" ry="12" style="stroke:#181818;stroke-width:0.5;"/><line style="stroke:#181818;stroke-width:0.5;" x1="1169.3105" x2="1193.3105" y1="79.2891" y2="79.2891"/></g><g><text fill="#000000" font-family="sans-serif" font-size="18" lengthAdjust="spacing" textLength="154.3008" x="1101.1602" y="871.2734">Chief Investigator</text><text fill="#000000" font-family="sans-serif" font-size="18" lengthAdjust="spacing" textLength="134.0244" x="1111.2983" y="892.4727">Data Custodian</text><ellipse cx="1181.3105" cy="912.2695" fill="#E2E2F0" rx="12" ry="12" style="stroke:#181818;stroke-width:0.5;"/><line style="stroke:#181818;stroke-width:0.5;" x1="1169.3105" x2="1193.3105" y1="926.2695" y2="926.2695"/></g><g><polygon fill="#181818" points="405.0313,156.8867,415.0313,160.8867,405.0313,164.8867,409.0313,160.8867" style="stroke:#181818;stroke-width:1;"/><line style="stroke:#181818;stroke-width:1;" x1="53.8438" x2="411.0313" y1="160.8867" y2="160.8867"/><text fill="#000000" font-family="sans-serif" font-size="18" lengthAdjust="spacing" textLength="144.958" x="60.8438" y="155.0898">Browse Dataset1</text></g><g><polygon fill="#181818" points="732.8428,192.0859,742.8428,196.0859,732.8428,200.0859,736.8428,196.0859" style="stroke:#181818;stroke-width:1;"/><line style="stroke:#181818;stroke-width:1;" x1="417.0313" x2="738.8428" y1="196.0859" y2="196.0859"/><text fill="#000000" font-family="sans-serif" font-size="18" lengthAdjust="spacing" textLength="174.5947" x="424.0313" y="190.2891">What's your licence?</text></g><g><polygon fill="#181818" points="428.0313,227.2852,418.0313,231.2852,428.0313,235.2852,424.0313,231.2852" style="stroke:#181818;stroke-width:1;"/><line style="stroke:#181818;stroke-width:1;" x1="422.0313" x2="743.8428" y1="231.2852" y2="231.2852"/><text fill="#000000" font-family="sans-serif" font-size="18" lengthAdjust="spacing" textLength="303.8115" x="434.0313" y="225.4883">Has "My Study Data Reuse License"</text></g><g><polygon fill="#181818" points="64.8438,262.4844,54.8438,266.4844,64.8438,270.4844,60.8438,266.4844" style="stroke:#181818;stroke-width:1;"/><line style="stroke:#181818;stroke-width:1;" x1="58.8438" x2="416.0313" y1="266.4844" y2="266.4844"/><text fill="#000000" font-family="sans-serif" font-size="18" lengthAdjust="spacing" textLength="209.0479" x="70.8438" y="260.6875">Authenticate yourself ...</text></g><g><polygon fill="#181818" points="64.8438,297.6836,54.8438,301.6836,64.8438,305.6836,60.8438,301.6836" style="stroke:#181818;stroke-width:1;"/><line style="stroke:#181818;stroke-width:1;" x1="58.8438" x2="871.2266" y1="301.6836" y2="301.6836"/><text fill="#000000" font-family="sans-serif" font-size="18" lengthAdjust="spacing" textLength="237.6387" x="70.8438" y="295.8867">Logs user in using CILogon</text></g><g><polygon fill="#181818" points="405.0313,332.8828,415.0313,336.8828,405.0313,340.8828,409.0313,336.8828" style="stroke:#181818;stroke-width:1;"/><line style="stroke:#181818;stroke-width:1;" x1="53.8438" x2="411.0313" y1="336.8828" y2="336.8828"/><text fill="#000000" font-family="sans-serif" font-size="18" lengthAdjust="spacing" textLength="268.9541" x="60.8438" y="331.0859">(redirected back to Repository)</text></g><g><polygon fill="#181818" points="1011.1079,368.082,1021.1079,372.082,1011.1079,376.082,1015.1079,372.082" style="stroke:#181818;stroke-width:1;"/><line style="stroke:#181818;stroke-width:1;" x1="417.0313" x2="1017.1079" y1="372.082" y2="372.082"/><text fill="#000000" font-family="sans-serif" font-size="18" lengthAdjust="spacing" textLength="430.7871" x="424.0313" y="366.2852">Has user been granted "My Study Reuse License"?</text></g><g><polygon fill="#181818" points="428.0313,403.2813,418.0313,407.2813,428.0313,411.2813,424.0313,407.2813" style="stroke:#181818;stroke-width:1;"/><line style="stroke:#181818;stroke-width:1;" x1="422.0313" x2="1022.1079" y1="407.2813" y2="407.2813"/><text fill="#000000" font-family="sans-serif" font-size="18" lengthAdjust="spacing" textLength="45.7119" x="434.0313" y="401.4844">Nope</text></g><g><polygon fill="#181818" points="64.8438,438.4805,54.8438,442.4805,64.8438,446.4805,60.8438,442.4805" style="stroke:#181818;stroke-width:1;"/><line style="stroke:#181818;stroke-width:1;" x1="58.8438" x2="416.0313" y1="442.4805" y2="442.4805"/><text fill="#000000" font-family="sans-serif" font-size="18" lengthAdjust="spacing" textLength="339.1875" x="70.8438" y="436.6836">Can I have the link to apply for access?</text></g><g><polygon fill="#181818" points="1011.1079,473.6797,1021.1079,477.6797,1011.1079,481.6797,1015.1079,477.6797" style="stroke:#181818;stroke-width:1;"/><line style="stroke:#181818;stroke-width:1;" x1="53.8438" x2="1017.1079" y1="477.6797" y2="477.6797"/><text fill="#000000" font-family="sans-serif" font-size="18" lengthAdjust="spacing" textLength="165.6563" x="60.8438" y="471.8828">Apply for access ...</text></g><g><polygon fill="#181818" points="64.8438,551.2773,54.8438,555.2773,64.8438,559.2773,60.8438,555.2773" style="stroke:#181818;stroke-width:1;"/><line style="stroke:#181818;stroke-width:1;" x1="58.8438" x2="1022.1079" y1="555.2773" y2="555.2773"/><text fill="#000000" font-family="sans-serif" font-size="18" lengthAdjust="spacing" textLength="132.8467" x="70.8438" y="507.082">Fill in this form</text><text fill="#000000" font-family="sans-serif" font-size="18" lengthAdjust="spacing" textLength="282.9023" x="70.8438" y="528.2813">[] Agree to terms and conditions</text><text fill="#000000" font-family="sans-serif" font-size="18" lengthAdjust="spacing" textLength="307.0635" x="70.8438" y="549.4805">[] Send evidence of research record</text></g><g><polygon fill="#181818" points="1011.1079,586.4766,1021.1079,590.4766,1011.1079,594.4766,1015.1079,590.4766" style="stroke:#181818;stroke-width:1;"/><line style="stroke:#181818;stroke-width:1;" x1="53.8438" x2="1017.1079" y1="590.4766" y2="590.4766"/><text fill="#000000" font-family="sans-serif" font-size="18" lengthAdjust="spacing" textLength="85.0078" x="60.8438" y="584.6797">Fills Form</text></g><g><polygon fill="#181818" points="1169.3105,621.6758,1179.3105,625.6758,1169.3105,629.6758,1173.3105,625.6758" style="stroke:#181818;stroke-width:1;"/><line style="stroke:#181818;stroke-width:1;" x1="1023.1079" x2="1175.3105" y1="625.6758" y2="625.6758"/><text fill="#000000" font-family="sans-serif" font-size="18" lengthAdjust="spacing" textLength="130.3857" x="1030.1079" y="619.8789">Please approve</text></g><g><polygon fill="#181818" points="1034.1079,656.875,1024.1079,660.875,1034.1079,664.875,1030.1079,660.875" style="stroke:#181818;stroke-width:1;"/><line style="stroke:#181818;stroke-width:1;" x1="1028.1079" x2="1180.3105" y1="660.875" y2="660.875"/><text fill="#000000" font-family="sans-serif" font-size="18" lengthAdjust="spacing" textLength="84.1729" x="1040.1079" y="655.0781">Approved</text></g><g><polygon fill="#181818" points="64.8438,692.0742,54.8438,696.0742,64.8438,700.0742,60.8438,696.0742" style="stroke:#181818;stroke-width:1;"/><line style="stroke:#181818;stroke-width:1;" x1="58.8438" x2="1022.1079" y1="696.0742" y2="696.0742"/><text fill="#000000" font-family="sans-serif" font-size="18" lengthAdjust="spacing" textLength="138.9639" x="70.8438" y="690.2773">(Receives email)</text></g><g><polygon fill="#181818" points="405.0313,727.2734,415.0313,731.2734,405.0313,735.2734,409.0313,731.2734" style="stroke:#181818;stroke-width:1;"/><line style="stroke:#181818;stroke-width:1;" x1="53.8438" x2="411.0313" y1="731.2734" y2="731.2734"/><text fill="#000000" font-family="sans-serif" font-size="18" lengthAdjust="spacing" textLength="209.0566" x="60.8438" y="725.4766">Refresh my permissions</text></g><g><polygon fill="#181818" points="1011.1079,762.4727,1021.1079,766.4727,1011.1079,770.4727,1015.1079,766.4727" style="stroke:#181818;stroke-width:1;"/><line style="stroke:#181818;stroke-width:1;" x1="417.0313" x2="1017.1079" y1="766.4727" y2="766.4727"/><text fill="#000000" font-family="sans-serif" font-size="18" lengthAdjust="spacing" textLength="430.7871" x="424.0313" y="760.6758">Has user been granted "My Study Reuse License"?</text></g><g><polygon fill="#181818" points="428.0313,797.6719,418.0313,801.6719,428.0313,805.6719,424.0313,801.6719" style="stroke:#181818;stroke-width:1;"/><line style="stroke:#181818;stroke-width:1;" x1="422.0313" x2="1022.1079" y1="801.6719" y2="801.6719"/><text fill="#000000" font-family="sans-serif" font-size="18" lengthAdjust="spacing" textLength="32.5723" x="434.0313" y="795.875">Yep</text></g><g><polygon fill="#181818" points="64.8438,832.8711,54.8438,836.8711,64.8438,840.8711,60.8438,836.8711" style="stroke:#181818;stroke-width:1;"/><line style="stroke:#181818;stroke-width:1;" x1="58.8438" x2="416.0313" y1="836.8711" y2="836.8711"/><text fill="#000000" font-family="sans-serif" font-size="18" lengthAdjust="spacing" textLength="157.1484" x="70.8438" y="831.0742">Here's the dataset</text></g><!--SRC=[hPDDZzem48Rl_XKZBeL3gRXL78eeBLgatMe5XwegFNZjIMAjiIEFGvN- -iua96nwxedOythUPpwWLnTgdVG5B1QwyNaVGpwvFmYhZqfbbpskuVZrwGJR9bSnETBPnR26RLtxreKIYfX0WtS6Wq6bJUPpGaATJ8KS8Zaf39ohXTaHwqYEDUs7vvYozhDUKO-ABpfhmWohBcBK6DWT7cCPmpdC1KLkJSUow8N-xi6uDzK8t8jAJs_oLGuBE8GhKdQbPgPp47FODPIZTJfqRomZS0Nm_fDWmXe-f_YR46wSAoMt73GS-bxf_8wWZKqQEh9HvlxqWVFDdbeuvSQsNGOuOiF97aLCE8CXcpYkuKsXs6Kbz0Kibqjb_5t5RI7WB0bSu5yPogrNK_1vGkiIcemMNhHvXHpXFe_5w2rjki5sMLyG0vH91tbunv-IRvIy6hs-nHgdjUnqW0DK-eh0HN5xGWUWPO_w9J86YJO3Sm-n_IVS5JywYMBll9V2S-L8X1SuXv-_O5icH378c2u4EbWmCLWdoq2zv8HyYLTdPKuGYt5j-SF4PASauaEmPuF1tyh8dpto6aWPALvHMJDXbpixvPqVqQ3ZfGEyQESNqnaTiU1p1PSMQWPtHC8xTF8_3EO7_zKcStd0XBopCXFRhxJw2m00]--></g></svg>