<svg xmlns="http://www.w3.org/2000/svg" xmlns:xlink="http://www.w3.org/1999/xlink" contentStyleType="text/css" data-diagram-type="SEQUENCE" height="940px" preserveAspectRatio="none" style="width:1267px;height:940px;background:#FFFFFF;" version="1.1" viewBox="0 0 1267 940" width="1267px" zoomAndPan="magnify"><title>REMS Authorization: Applying for a licence</title><defs/><g><text fill="#000000" font-family="sans-serif" font-size="14" font-weight="bold" lengthAdjust="spacing" textLength="307.9043" x="481.2483" y="28.5352">REMS Authorization: Applying for a licence</text><g><title>researcher</title><rect fill="#FFFFFF" fill-opacity="0.00000" height="731.1836" width="8" x="49.8438" y="123.6875"/><line style="stroke:#181818;stroke-width:0.5;stroke-dasharray:5.0,5.0;" x1="53" x2="53" y1="123.6875" y2="854.8711"/></g><g><title>Repository/Portal</title><rect fill="#FFFFFF" fill-opacity="0.00000" height="731.1836" width="8" x="413.0313" y="123.6875"/><line style="stroke:#181818;stroke-width:0.5;stroke-dasharray:5.0,5.0;" x1="416.8213" x2="416.8213" y1="123.6875" y2="854.8711"/></g><g><title>Dataset 1</title><rect fill="#FFFFFF" fill-opacity="0.00000" height="731.1836" width="8" x="740.8428" y="123.6875"/><line style="stroke:#181818;stroke-width:0.5;stroke-dasharray:5.0,5.0;" x1="744.2881" x2="744.2881" y1="123.6875" y2="854.8711"/></g><g><title>REMS</title><rect fill="#FFFFFF" fill-opacity="0.00000" height="731.1836" width="8" x="867.8184" y="123.6875"/><line style="stroke:#181818;stroke-width:0.5;stroke-dasharray:5.0,5.0;" x1="871.1948" x2="871.1948" y1="123.6875" y2="854.8711"/></g><g><title>CILogon</title><rect fill="#FFFFFF" fill-opacity="0.00000" height="731.1836" width="8" x="1019.271" y="123.6875"/><line style="stroke:#181818;stroke-width:0.5;stroke-dasharray:5.0,5.0;" x1="1022.4419" x2="1022.4419" y1="123.6875" y2="854.8711"/></g><g><title>Chief Investigator</title><rect fill="#FFFFFF" fill-opacity="0.00000" height="731.1836" width="8" x="1182.2505" y="123.6875"/><line style="stroke:#181818;stroke-width:0.5;stroke-dasharray:5.0,5.0;" x1="1186.1001" x2="1186.1001" y1="123.6875" y2="854.8711"/></g><g><text fill="#000000" font-family="sans-serif" font-size="18" lengthAdjust="spacing" textLength="91.6875" x="5" y="119.8906">researcher</text><ellipse cx="53.8438" cy="50.9883" fill="#E2E2F0" rx="8" ry="8" style="stroke:#181818;stroke-width:0.5;"/><path d="M53.8438,58.9883 L53.8438,85.9883 M40.8438,66.9883 L66.8438,66.9883 M53.8438,85.9883 L40.8438,100.9883 M53.8438,85.9883 L66.8438,100.9883 " fill="#FFFFFF" fill-opacity="0.00000" style="stroke:#181818;stroke-width:0.5;"/></g><g><text fill="#000000" font-family="sans-serif" font-size="18" lengthAdjust="spacing" textLength="91.6875" x="5" y="871.2734">researcher</text><ellipse cx="53.8438" cy="883.5703" fill="#E2E2F0" rx="8" ry="8" style="stroke:#181818;stroke-width:0.5;"/><path d="M53.8438,891.5703 L53.8438,918.5703 M40.8438,899.5703 L66.8438,899.5703 M53.8438,918.5703 L40.8438,933.5703 M53.8438,918.5703 L66.8438,933.5703 " fill="#FFFFFF" fill-opacity="0.00000" style="stroke:#181818;stroke-width:0.5;"/></g><g><text fill="#000000" font-family="sans-serif" font-size="18" lengthAdjust="spacing" textLength="152.4199" x="337.8213" y="119.8906">Repository/Portal</text><ellipse cx="417.0313" cy="86.4883" fill="#E2E2F0" rx="12" ry="12" style="stroke:#181818;stroke-width:0.5;"/><line style="stroke:#181818;stroke-width:0.5;" x1="405.0313" x2="429.0313" y1="100.4883" y2="100.4883"/></g><g><text fill="#000000" font-family="sans-serif" font-size="18" lengthAdjust="spacing" textLength="152.4199" x="337.8213" y="871.2734">Repository/Portal</text><ellipse cx="417.0313" cy="891.0703" fill="#E2E2F0" rx="12" ry="12" style="stroke:#181818;stroke-width:0.5;"/><line style="stroke:#181818;stroke-width:0.5;" x1="405.0313" x2="429.0313" y1="905.0703" y2="905.0703"/></g><g><text fill="#000000" font-family="sans-serif" font-size="18" lengthAdjust="spacing" textLength="83.1094" x="700.2881" y="119.8906">Dataset 1</text><ellipse cx="744.8428" cy="86.4883" fill="#E2E2F0" rx="12" ry="12" style="stroke:#181818;stroke-width:0.5;"/><line style="stroke:#181818;stroke-width:0.5;" x1="732.8428" x2="756.8428" y1="100.4883" y2="100.4883"/></g><g><text fill="#000000" font-family="sans-serif" font-size="18" lengthAdjust="spacing" textLength="83.1094" x="700.2881" y="871.2734">Dataset 1</text><ellipse cx="744.8428" cy="891.0703" fill="#E2E2F0" rx="12" ry="12" style="stroke:#181818;stroke-width:0.5;"/><line style="stroke:#181818;stroke-width:0.5;" x1="732.8428" x2="756.8428" y1="905.0703" y2="905.0703"/></g><g><text fill="#000000" font-family="sans-serif" font-size="18" lengthAdjust="spacing" textLength="46.3359" x="845.6504" y="98.6914">REMS</text><text fill="#000000" font-family="sans-serif" font-size="18" lengthAdjust="spacing" textLength="131.2471" x="803.1948" y="119.8906">(Authorization)</text><ellipse cx="871.8184" cy="65.2891" fill="#E2E2F0" rx="12" ry="12" style="stroke:#181818;stroke-width:0.5;"/><line style="stroke:#181818;stroke-width:0.5;" x1="859.8184" x2="883.8184" y1="79.2891" y2="79.2891"/></g><g><text fill="#000000" font-family="sans-serif" font-size="18" lengthAdjust="spacing" textLength="46.3359" x="845.6504" y="871.2734">REMS</text><text fill="#000000" font-family="sans-serif" font-size="18" lengthAdjust="spacing" textLength="131.2471" x="803.1948" y="892.4727">(Authorization)</text><ellipse cx="871.8184" cy="912.2695" fill="#E2E2F0" rx="12" ry="12" style="stroke:#181818;stroke-width:0.5;"/><line style="stroke:#181818;stroke-width:0.5;" x1="859.8184" x2="883.8184" y1="926.2695" y2="926.2695"/></g><g><text fill="#000000" font-family="sans-serif" font-size="18" lengthAdjust="spacing" textLength="71.7451" x="984.3984" y="98.6914">CILogon</text><text fill="#000000" font-family="sans-serif" font-size="18" lengthAdjust="spacing" textLength="139.6582" x="950.4419" y="119.8906">(Authentication)</text><ellipse cx="1023.271" cy="65.2891" fill="#E2E2F0" rx="12" ry="12" style="stroke:#181818;stroke-width:0.5;"/><line style="stroke:#181818;stroke-width:0.5;" x1="1011.271" x2="1035.271" y1="79.2891" y2="79.2891"/></g><g><text fill="#000000" font-family="sans-serif" font-size="18" lengthAdjust="spacing" textLength="71.7451" x="984.3984" y="871.2734">CILogon</text><text fill="#000000" font-family="sans-serif" font-size="18" lengthAdjust="spacing" textLength="139.6582" x="950.4419" y="892.4727">(Authentication)</text><ellipse cx="1023.271" cy="912.2695" fill="#E2E2F0" rx="12" ry="12" style="stroke:#181818;stroke-width:0.5;"/><line style="stroke:#181818;stroke-width:0.5;" x1="1011.271" x2="1035.271" y1="926.2695" y2="926.2695"/></g><g><text fill="#000000" font-family="sans-serif" font-size="18" lengthAdjust="spacing" textLength="154.3008" x="1106.1001" y="98.6914">Chief Investigator</text><text fill="#000000" font-family="sans-serif" font-size="18" lengthAdjust="spacing" textLength="134.0244" x="1116.2383" y="119.8906">Data Custodian</text><ellipse cx="1186.2505" cy="65.2891" fill="#E2E2F0" rx="12" ry="12" style="stroke:#181818;stroke-width:0.5;"/><line style="stroke:#181818;stroke-width:0.5;" x1="1174.2505" x2="1198.2505" y1="79.2891" y2="79.2891"/></g><g><text fill="#000000" font-family="sans-serif" font-size="18" lengthAdjust="spacing" textLength="154.3008" x="1106.1001" y="871.2734">Chief Investigator</text><text fill="#000000" font-family="sans-serif" font-size="18" lengthAdjust="spacing" textLength="134.0244" x="1116.2383" y="892.4727">Data Custodian</text><ellipse cx="1186.2505" cy="912.2695" fill="#E2E2F0" rx="12" ry="12" style="stroke:#181818;stroke-width:0.5;"/><line style="stroke:#181818;stroke-width:0.5;" x1="1174.2505" x2="1198.2505" y1="926.2695" y2="926.2695"/></g><g><polygon fill="#181818" points="405.0313,156.8867,415.0313,160.8867,405.0313,164.8867,409.0313,160.8867" style="stroke:#181818;stroke-width:1;"/><line style="stroke:#181818;stroke-width:1;" x1="53.8438" x2="411.0313" y1="160.8867" y2="160.8867"/><text fill="#000000" font-family="sans-serif" font-size="18" lengthAdjust="spacing" textLength="144.958" x="60.8438" y="155.0898">Browse Dataset1</text></g><g><polygon fill="#181818" points="732.8428,192.0859,742.8428,196.0859,732.8428,200.0859,736.8428,196.0859" style="stroke:#181818;stroke-width:1;"/><line style="stroke:#181818;stroke-width:1;" x1="417.0313" x2="738.8428" y1="196.0859" y2="196.0859"/><text fill="#000000" font-family="sans-serif" font-size="18" lengthAdjust="spacing" textLength="174.5947" x="424.0313" y="190.2891">What's your licence?</text></g><g><polygon fill="#181818" points="428.0313,227.2852,418.0313,231.2852,428.0313,235.2852,424.0313,231.2852" style="stroke:#181818;stroke-width:1;"/><line style="stroke:#181818;stroke-width:1;" x1="422.0313" x2="743.8428" y1="231.2852" y2="231.2852"/><text fill="#000000" font-family="sans-serif" font-size="18" lengthAdjust="spacing" textLength="303.8115" x="434.0313" y="225.4883">Has "My Study Data Reuse License"</text></g><g><polygon fill="#181818" points="64.8438,262.4844,54.8438,266.4844,64.8438,270.4844,60.8438,266.4844" style="stroke:#181818;stroke-width:1;"/><line style="stroke:#181818;stroke-width:1;" x1="58.8438" x2="416.0313" y1="266.4844" y2="266.4844"/><text fill="#000000" font-family="sans-serif" font-size="18" lengthAdjust="spacing" textLength="209.0479" x="70.8438" y="260.6875">Authenticate yourself ...</text></g><g><polygon fill="#181818" points="1011.271,297.6836,1021.271,301.6836,1011.271,305.6836,1015.271,301.6836" style="stroke:#181818;stroke-width:1;"/><line style="stroke:#181818;stroke-width:1;" x1="53.8438" x2="1017.271" y1="301.6836" y2="301.6836"/><text fill="#000000" font-family="sans-serif" font-size="18" lengthAdjust="spacing" textLength="237.6387" x="60.8438" y="295.8867">Logs user in using CILogon</text></g><g><polygon fill="#181818" points="405.0313,332.8828,415.0313,336.8828,405.0313,340.8828,409.0313,336.8828" style="stroke:#181818;stroke-width:1;"/><line style="stroke:#181818;stroke-width:1;" x1="53.8438" x2="411.0313" y1="336.8828" y2="336.8828"/><text fill="#000000" font-family="sans-serif" font-size="18" lengthAdjust="spacing" textLength="268.9541" x="60.8438" y="331.0859">(redirected back to Repoistory)</text></g><g><polygon fill="#181818" points="859.8184,368.082,869.8184,372.082,859.8184,376.082,863.8184,372.082" style="stroke:#181818;stroke-width:1;"/><line style="stroke:#181818;stroke-width:1;" x1="417.0313" x2="865.8184" y1="372.082" y2="372.082"/><text fill="#000000" font-family="sans-serif" font-size="18" lengthAdjust="spacing" textLength="430.7871" x="424.0313" y="366.2852">Has user been granted "My Study Reuse License"?</text></g><g><polygon fill="#181818" points="428.0313,403.2813,418.0313,407.2813,428.0313,411.2813,424.0313,407.2813" style="stroke:#181818;stroke-width:1;"/><line style="stroke:#181818;stroke-width:1;" x1="422.0313" x2="870.8184" y1="407.2813" y2="407.2813"/><text fill="#000000" font-family="sans-serif" font-size="18" lengthAdjust="spacing" textLength="45.7119" x="434.0313" y="401.4844">Nope</text></g><g><polygon fill="#181818" points="64.8438,438.4805,54.8438,442.4805,64.8438,446.4805,60.8438,442.4805" style="stroke:#181818;stroke-width:1;"/><line style="stroke:#181818;stroke-width:1;" x1="58.8438" x2="416.0313" y1="442.4805" y2="442.4805"/><text fill="#000000" font-family="sans-serif" font-size="18" lengthAdjust="spacing" textLength="339.1875" x="70.8438" y="436.6836">Can I have the link to apply for access?</text></g><g><polygon fill="#181818" points="859.8184,473.6797,869.8184,477.6797,859.8184,481.6797,863.8184,477.6797" style="stroke:#181818;stroke-width:1;"/><line style="stroke:#181818;stroke-width:1;" x1="53.8438" x2="865.8184" y1="477.6797" y2="477.6797"/><text fill="#000000" font-family="sans-serif" font-size="18" lengthAdjust="spacing" textLength="165.6563" x="60.8438" y="471.8828">Apply for access ...</text></g><g><polygon fill="#181818" points="64.8438,551.2773,54.8438,555.2773,64.8438,559.2773,60.8438,555.2773" style="stroke:#181818;stroke-width:1;"/><line style="stroke:#181818;stroke-width:1;" x1="58.8438" x2="870.8184" y1="555.2773" y2="555.2773"/><text fill="#000000" font-family="sans-serif" font-size="18" lengthAdjust="spacing" textLength="132.8467" x="70.8438" y="507.082">Fill in this form</text><text fill="#000000" font-family="sans-serif" font-size="18" lengthAdjust="spacing" textLength="282.9023" x="70.8438" y="528.2813">[] Agree to terms and conditions</text><text fill="#000000" font-family="sans-serif" font-size="18" lengthAdjust="spacing" textLength="307.0635" x="70.8438" y="549.4805">[] Send evidence of research record</text></g><g><polygon fill="#181818" points="859.8184,586.4766,869.8184,590.4766,859.8184,594.4766,863.8184,590.4766" style="stroke:#181818;stroke-width:1;"/><line style="stroke:#181818;stroke-width:1;" x1="53.8438" x2="865.8184" y1="590.4766" y2="590.4766"/><text fill="#000000" font-family="sans-serif" font-size="18" lengthAdjust="spacing" textLength="85.0078" x="60.8438" y="584.6797">Fills Form</text></g><g><polygon fill="#181818" points="1174.2505,621.6758,1184.2505,625.6758,1174.2505,629.6758,1178.2505,625.6758" style="stroke:#181818;stroke-width:1;"/><line style="stroke:#181818;stroke-width:1;" x1="871.8184" x2="1180.2505" y1="625.6758" y2="625.6758"/><text fill="#000000" font-family="sans-serif" font-size="18" lengthAdjust="spacing" textLength="130.3857" x="878.8184" y="619.8789">Please approve</text></g><g><polygon fill="#181818" points="882.8184,656.875,872.8184,660.875,882.8184,664.875,878.8184,660.875" style="stroke:#181818;stroke-width:1;"/><line style="stroke:#181818;stroke-width:1;" x1="876.8184" x2="1185.2505" y1="660.875" y2="660.875"/><text fill="#000000" font-family="sans-serif" font-size="18" lengthAdjust="spacing" textLength="84.1729" x="888.8184" y="655.0781">Approved</text></g><g><polygon fill="#181818" points="64.8438,692.0742,54.8438,696.0742,64.8438,700.0742,60.8438,696.0742" style="stroke:#181818;stroke-width:1;"/><line style="stroke:#181818;stroke-width:1;" x1="58.8438" x2="870.8184" y1="696.0742" y2="696.0742"/><text fill="#000000" font-family="sans-serif" font-size="18" lengthAdjust="spacing" textLength="138.9639" x="70.8438" y="690.2773">(Receives email)</text></g><g><polygon fill="#181818" points="405.0313,727.2734,415.0313,731.2734,405.0313,735.2734,409.0313,731.2734" style="stroke:#181818;stroke-width:1;"/><line style="stroke:#181818;stroke-width:1;" x1="53.8438" x2="411.0313" y1="731.2734" y2="731.2734"/><text fill="#000000" font-family="sans-serif" font-size="18" lengthAdjust="spacing" textLength="209.0566" x="60.8438" y="725.4766">Refresh my permissions</text></g><g><polygon fill="#181818" points="859.8184,762.4727,869.8184,766.4727,859.8184,770.4727,863.8184,766.4727" style="stroke:#181818;stroke-width:1;"/><line style="stroke:#181818;stroke-width:1;" x1="417.0313" x2="865.8184" y1="766.4727" y2="766.4727"/><text fill="#000000" font-family="sans-serif" font-size="18" lengthAdjust="spacing" textLength="430.7871" x="424.0313" y="760.6758">Has user been granted "My Study Reuse License"?</text></g><g><polygon fill="#181818" points="428.0313,797.6719,418.0313,801.6719,428.0313,805.6719,424.0313,801.6719" style="stroke:#181818;stroke-width:1;"/><line style="stroke:#181818;stroke-width:1;" x1="422.0313" x2="870.8184" y1="801.6719" y2="801.6719"/><text fill="#000000" font-family="sans-serif" font-size="18" lengthAdjust="spacing" textLength="32.5723" x="434.0313" y="795.875">Yep</text></g><g><polygon fill="#181818" points="64.8438,832.8711,54.8438,836.8711,64.8438,840.8711,60.8438,836.8711" style="stroke:#181818;stroke-width:1;"/><line style="stroke:#181818;stroke-width:1;" x1="58.8438" x2="416.0313" y1="836.8711" y2="836.8711"/><text fill="#000000" font-family="sans-serif" font-size="18" lengthAdjust="spacing" textLength="157.1484" x="70.8438" y="831.0742">Here's the dataset</text></g><!--SRC=[hPDDZzem48Rl-HKZBeL3gRXL7BgYj6YHTgiL7AggxC5hJvBH6ZloE5JPNz-PG63JSq_4djVpFlC1lr9eJ397S5YQrkTD37bFRmYBpqMHANjSmkxxunvMRQvZeZUJAOObh9h6TnGgA6C20vui1ek5iLdE2HbDiZLAYFLKO91S7Knss4GcqNIVdcBAna_EYkQg-6QoOSomw2Esk3qLYaEOZZXclQZoDuFrzY5MCLo4UclVAQs_vLlNX2LimmavKsM4wH3K7DOjv-Z8XFw94mIf03v-KKnOmjSK_p32XNDHwAq4hOH-rYP_OEXYcuQEt1NszlHUyaqUEzZdrdLz1jXXAyaULCmuWI6REYxXNGdOPsNq9Spdyu78Ub59mGoI9G45-TMXNBem1fycT9JGPdJmOkmhv0Ww3sATn-pghVsymFPPNn03LCa4VNZ37vFV5VhgwlKZDZYkPMq2RA4s9mGfIjeJUW2ZUtHU8ckH-MvWFaEi_WdtnL-TLB4XxxNmN1Ehy0Y7yFiPLbL2L8ECwSXWWWCRWoFT1JvBzYYNU2AdSu9ONjTMFcnCRaoYFWmRCHZydOxyoQEiWPQHuWaBPqViUkV6lDCTMYHPEi2Z8JyRpsY7fPnhE7RG23WnA-_GoVymc5_oLnlDvHuJoixgJDnvfOk_]--></g></svg>