<svg xmlns="http://www.w3.org/2000/svg" xmlns:xlink="http://www.w3.org/1999/xlink" contentStyleType="text/css" data-diagram-type="ACTIVITY" height="1051px" preserveAspectRatio="none" style="width:1741px;height:1051px;background:#FFFFFF;" version="1.1" viewBox="0 0 1741 1051" width="1741px" zoomAndPan="magnify"><title>Data licensing</title><defs/><g><text fill="#000000" font-family="Chalkduster" font-size="42" font-weight="bold" lengthAdjust="spacing" textLength="344.1216" x="697.0276" y="61.7215">Data licensing</text><polygon fill="#222222" points="752.032,97.0346,750.5662,99.0375,748.8324,101.971,746.3528,103.948,743.7471,105.0291,741.6695,105.123,738.9992,103.7709,736.4796,102.8876,734.5672,101.0942,733.5641,99.0411,732.9692,97.4063,732.3864,95.271,731.4404,93.4335,732.1673,91.6395,732.8042,89.6742,735.1943,88.1199,736.8758,86.1032,738.9571,85.4335,741.4314,84.8568,744.6044,85.1995,746.3423,86.0191,748.3629,86.3906,750.8197,88.9076,751.6761,91.5649,752.0482,93.378,751.6267,96.3657" style="stroke:#222222;stroke-width:1;"/><path d="M1016.2066,129.6022 L1016.3934,129.6022 L1015.8383,135.9282 L1016.3784,142.2541 L1016.5618,148.5801 L1015.5724,154.9061 L1016.2066,161.232 L1016.193,161.1643 L1012.1322,161.6603 L1008.1397,162.4978 L1004.1947,163.5726 L1000.0861,163.8294 L996.2066,165.232 L996.3031,165.7146 L1000.0967,165.4827 L1004.1721,166.6597 L1008.2819,168.0085 L1012.1916,168.3573 L1016.2066,169.232 L1016.2672,169.232 L1016.1782,175.558 L1016.3653,181.884 L1016.4191,188.2099 L1016.7272,194.5359 L1016.2066,200.8619 L1016.2066,200.8619 L1016.2066,202.6514 L1026.1359,202.6732 L1036.0652,201.5409 L1045.9945,202.0981 L1055.9238,202.7345 L1065.8531,198.9387 L1075.7824,202.6712 L1085.7117,200.0712 L1095.6411,202.2854 L1105.5704,199.5418 L1115.4997,200.6792 L1125.429,202.8395 L1135.3583,200.7319 L1145.2876,201.1427 L1155.2169,201.7649 L1165.1462,201.9718 L1175.0755,200.8515 L1185.0049,201.6278 L1194.9342,199.3354 L1204.8635,201.6202 L1214.7928,202.3237 L1224.7221,202.0473 L1234.6514,202.4966 L1244.5807,199.5737 L1254.51,199.1227 L1264.4393,199.2048 L1274.3687,200.7049 L1284.298,200.3378 L1294.2273,202.679 L1304.1566,200.3961 L1314.0859,199.9471 L1324.0152,201.4706 L1333.9445,199.0836 L1343.8738,199.4775 L1353.8031,202.5924 L1363.7325,202.0237 L1373.6618,202.8205 L1383.5911,200.0038 L1393.5204,200.8619 L1393.5204,200.8619 L1394.3716,200.8619 L1395.0948,190.6519 L1392.2606,180.442 L1393.2648,170.232 L1393.8563,160.0221 L1395.2584,149.8122 L1393.5204,139.6022 L1393.5178,139.5996 L1391.8111,137.893 L1389.1723,135.2541 L1387.0947,133.1765 L1385.8369,131.9188 L1383.5204,129.6022 L1383.5204,127.6904 L1373.593,130.9594 L1363.6656,130.1532 L1353.7382,128.8878 L1343.8108,128.6588 L1333.8834,130.8256 L1323.956,128.804 L1314.0286,131.1805 L1304.1012,128.1282 L1294.1738,131.2487 L1284.2464,130.8937 L1274.319,130.2555 L1264.3916,129.7281 L1254.4642,131.5398 L1244.5368,131.2384 L1234.6094,130.0536 L1224.682,130.3174 L1214.7546,129.2548 L1204.8272,131.5127 L1194.8998,130.0152 L1184.9724,130.0624 L1175.045,127.9799 L1165.1176,128.5216 L1155.1902,131.0175 L1145.2628,130.7482 L1135.3354,129.4877 L1125.408,128.7431 L1115.4806,129.0184 L1105.5532,127.7724 L1095.6258,130.7082 L1085.6984,131.5744 L1075.771,131.0059 L1065.8436,131.4554 L1055.9162,129.2376 L1045.9888,129.8348 L1036.0614,128.5686 L1026.134,130.3597 L1016.2066,129.6022 L1016.2066,129.6022 " fill="#FFFFE0" style="stroke:#181818;stroke-width:4;"/><path d="M1383.5204,129.6022 L1383.7072,129.6022 L1383.1521,131.6022 L1383.6922,133.6022 L1383.8757,135.6022 L1382.8863,137.6022 L1383.5204,139.6022 L1383.5204,139.5331 L1385.5204,139.2231 L1387.5204,139.2613 L1389.5204,139.5416 L1391.5204,138.9877 L1393.5204,139.6022 L1393.8684,139.9502 L1391.1242,137.2061 L1389.3961,135.4779 L1387.7919,133.8737 L1385.4665,131.5483 L1383.5204,129.6022 " fill="#FFFFE0" style="stroke:#181818;stroke-width:4;"/><text fill="#000000" font-family="Chalkduster" font-size="24" lengthAdjust="spacing" textLength="356.3138" x="1022.2066" y="158.4431">Non-trivial non-technical</text><text fill="#000000" font-family="Chalkduster" font-size="24" lengthAdjust="spacing" textLength="98.9171" x="1022.2066" y="189.0729">process</text><polygon fill="#F1F1F1" points="500.2469,124.6022,500.2469,124.8124,510.319,124.1879,520.3911,124.7955,530.4632,125.0019,540.5353,123.8888,550.6073,124.5245,560.6794,124.1757,570.7515,124.2187,580.8236,124.5341,590.8956,123.9108,600.9677,125.1559,611.0398,123.9719,621.1119,124.4044,631.1839,125.0342,641.256,124.5164,651.3281,124.6704,661.4002,124.5703,671.4722,124.7807,681.5443,124.8413,691.6164,125.1879,701.6885,125.2733,711.7605,125.2815,721.8326,124.8568,731.9047,125.0658,741.9768,125.3044,752.0488,123.881,762.1209,125.2807,772.193,124.3057,782.2651,125.136,792.3371,124.1072,802.4092,124.5337,812.4813,125.3438,822.5534,124.5535,832.6254,124.7075,842.6975,124.9408,852.7696,125.0184,862.8417,124.5983,872.9137,124.8894,882.9858,124.0298,893.0579,124.8866,903.13,125.1504,913.202,125.0467,923.2741,125.2152,933.3462,124.1191,943.4183,123.95,953.4903,123.9808,963.5624,124.5433,973.6345,124.4057,983.7066,124.6022,983.7935,124.8121,985.4521,125.2807,987.1983,125.961,989.039,126.8692,990.6926,127.3258,992.5454,128.2634,992.3855,128.1972,993.4775,130.1139,994.144,131.8545,994.9683,133.6604,995.3752,135.2934,996.2066,137.1022,996.5258,137.1022,996.797,146.4788,995.7342,155.8554,996.1107,165.232,996.3326,174.6087,996.8583,183.9853,996.2066,193.3619,996.2053,193.3613,995.6168,195.1887,994.5716,196.8268,993.8013,198.5788,993.4327,200.4972,992.5454,202.2007,992.454,201.9799,990.8426,203.0897,989.0362,203.7288,987.2079,204.3149,985.4292,205.0207,983.7066,205.8619,983.7066,206.3206,973.6345,205.5625,963.5624,206.4537,953.4903,205.3091,943.4183,206.4793,933.3462,206.3462,923.2741,206.1068,913.202,205.9091,903.13,206.5885,893.0579,206.4755,882.9858,206.0311,872.9137,206.1301,862.8417,205.7316,852.7696,206.5783,842.6975,206.0167,832.6254,206.0345,822.5534,205.2535,812.4813,205.4567,802.4092,206.3926,792.3371,206.2916,782.2651,205.8189,772.193,205.5397,762.1209,205.6429,752.0488,205.1757,741.9768,206.2766,731.9047,206.6014,721.8326,206.3883,711.7605,206.5568,701.6885,205.7252,691.6164,205.9491,681.5443,205.4743,671.4722,206.1459,661.4002,206.1086,651.3281,206.4143,641.256,205.6322,631.1839,205.7275,621.1119,206.3053,611.0398,206.4292,600.9677,205.3493,590.8956,205.668,580.8236,206.0111,570.7515,205.251,560.6794,206.2153,550.6073,206.1199,540.5353,205.7611,530.4632,206.0041,520.3911,206.5906,510.319,205.549,500.2469,205.8619,500.2871,205.9589,498.5156,205.2176,496.7262,204.4331,494.9616,203.7086,493.1904,202.9679,491.4081,202.2007,491.2159,202.1211,490.5524,200.3818,489.8015,198.6063,489.2311,196.9056,488.5063,195.1409,487.7469,193.3619,487.9087,193.3619,487.456,183.9853,487.6794,174.6087,487.6267,165.232,488.3238,155.8554,488.1735,146.4788,487.7469,137.1022,487.5974,137.0403,488.4567,135.3251,489.0337,133.493,490.0325,131.8357,490.8633,130.1088,491.4081,128.2634,491.4776,128.4311,493.1203,127.397,495.0028,126.9418,496.6167,125.8379,498.5047,125.3961,500.2469,124.6022" style="stroke:#181818;stroke-width:0.5;"/><text fill="#000000" font-family="Chalkduster" font-size="24" lengthAdjust="spacing" textLength="373.2331" x="497.7469" y="158.4431">Find the data rights owner</text><text fill="#000000" font-family="Chalkduster" font-size="24" lengthAdjust="spacing" textLength="488.4596" x="497.7469" y="189.0729">(copyright owner or representative)</text><path d="M1226.3723,216.1508 L1226.5591,216.1508 L1226.004,222.4768 L1226.5441,228.8028 L1226.7276,235.1287 L1225.7382,241.4547 L1226.3723,247.7807 L1226.3588,247.7129 L1222.298,248.2089 L1218.3054,249.0464 L1214.3604,250.1213 L1210.2518,250.378 L1206.3723,251.7807 L1206.4688,252.2632 L1210.2624,252.0313 L1214.3378,253.2083 L1218.4476,254.5572 L1222.3573,254.9059 L1226.3723,255.7807 L1226.433,255.7807 L1226.3439,262.1066 L1226.531,268.4326 L1226.5849,274.7586 L1226.8929,281.0845 L1226.3723,287.4105 L1226.3723,287.4105 L1226.3723,289.2 L1236.3016,289.2218 L1246.2309,288.0895 L1256.1602,288.6467 L1266.0895,289.2831 L1276.0189,285.4873 L1285.9482,289.2199 L1295.8775,286.6198 L1305.8068,288.834 L1315.7361,286.0904 L1325.6654,287.2278 L1335.5947,289.3881 L1345.524,287.2805 L1355.4533,287.6913 L1365.3827,288.3135 L1375.312,288.5204 L1385.2413,287.4001 L1395.1706,288.1764 L1405.0999,285.884 L1415.0292,288.1689 L1424.9585,288.8723 L1434.8878,288.5959 L1444.8171,289.0452 L1454.7464,286.1223 L1464.6758,285.6713 L1474.6051,285.7534 L1484.5344,287.2535 L1494.4637,286.8864 L1504.393,289.2276 L1514.3223,286.9447 L1524.2516,286.4957 L1534.1809,288.0192 L1544.1102,285.6323 L1554.0396,286.0262 L1563.9689,289.141 L1573.8982,288.5723 L1583.8275,289.3691 L1593.7568,286.5524 L1603.6861,287.4105 L1603.6861,287.4105 L1604.5373,287.4105 L1605.2606,277.2005 L1602.4264,266.9906 L1603.4305,256.7807 L1604.0221,246.5707 L1605.4241,236.3608 L1603.6861,226.1508 L1603.6835,226.1482 L1601.9769,224.4416 L1599.338,221.8028 L1597.2604,219.7251 L1596.0027,218.4674 L1593.6861,216.1508 L1593.6861,214.239 L1583.7587,217.5081 L1573.8313,216.7018 L1563.9039,215.4364 L1553.9765,215.2074 L1544.0491,217.3742 L1534.1217,215.3526 L1524.1943,217.7291 L1514.2669,214.6768 L1504.3395,217.7973 L1494.4121,217.4423 L1484.4847,216.8041 L1474.5573,216.2767 L1464.6299,218.0885 L1454.7025,217.787 L1444.7751,216.6022 L1434.8477,216.866 L1424.9203,215.8035 L1414.9929,218.0614 L1405.0655,216.5638 L1395.1381,216.611 L1385.2107,214.5286 L1375.2833,215.0702 L1365.3559,217.5662 L1355.4285,217.2969 L1345.5011,216.0363 L1335.5737,215.2917 L1325.6463,215.567 L1315.7189,214.321 L1305.7915,217.2568 L1295.8641,218.123 L1285.9367,217.5545 L1276.0093,218.004 L1266.0819,215.7862 L1256.1545,216.3834 L1246.2271,215.1172 L1236.2997,216.9083 L1226.3723,216.1508 L1226.3723,216.1508 " fill="#FFFFE0" style="stroke:#181818;stroke-width:4;"/><path d="M1593.6861,216.1508 L1593.8729,216.1508 L1593.3178,218.1508 L1593.8579,220.1508 L1594.0414,222.1508 L1593.052,224.1508 L1593.6861,226.1508 L1593.6861,226.0817 L1595.6861,225.7717 L1597.6861,225.8099 L1599.6861,226.0902 L1601.6861,225.5363 L1603.6861,226.1508 L1604.0341,226.4988 L1601.29,223.7547 L1599.5618,222.0265 L1597.9576,220.4223 L1595.6322,218.0969 L1593.6861,216.1508 " fill="#FFFFE0" style="stroke:#181818;stroke-width:4;"/><text fill="#000000" font-family="Chalkduster" font-size="24" lengthAdjust="spacing" textLength="356.3138" x="1232.3723" y="244.9917">Non-trivial non-technical</text><text fill="#000000" font-family="Chalkduster" font-size="24" lengthAdjust="spacing" textLength="98.9171" x="1232.3723" y="275.6215">process</text><polygon fill="#F1F1F1" points="290.0812,226.4657,290.0812,226.6759,300.1233,226.0514,310.1655,226.659,320.2076,226.8654,330.2497,225.7523,340.2918,226.388,350.334,226.0393,360.3761,226.0822,370.4182,226.3976,380.4603,225.7744,390.5025,227.0194,400.5446,225.8355,410.5867,226.268,420.6288,226.8977,430.6709,226.38,440.7131,226.534,450.7552,226.4338,460.7973,226.6443,470.8394,226.7049,480.8816,227.0514,490.9237,227.1368,500.9658,227.145,511.0079,226.7204,521.0501,226.9293,531.0922,227.168,541.1343,225.7446,551.1764,227.1443,561.2185,226.1692,571.2607,226.9996,581.3028,225.9707,591.3449,226.3972,601.387,227.2073,611.4292,226.417,621.4713,226.571,631.5134,226.8044,641.5555,226.882,651.5977,226.4618,661.6398,226.753,671.6819,225.8933,681.724,226.7501,691.7661,227.0139,701.8083,226.9103,711.8504,227.0788,721.8925,225.9827,731.9346,225.8136,741.9768,225.8443,752.0189,226.4069,762.061,226.2692,772.1031,227.1472,782.1453,226.2911,792.1874,226.1227,802.2295,226.694,812.2716,225.7989,822.3137,225.9466,832.3559,227.1147,842.398,226.9014,852.4401,227.2002,862.4822,226.1439,872.5244,226.7849,882.5665,227.0562,892.6086,225.9933,902.6507,226.3699,912.6929,226.5917,922.735,227.1175,932.7771,226.4616,942.8192,226.9283,952.8613,225.912,962.9035,225.7885,972.9456,226.9694,982.9877,225.7488,993.0298,226.9747,1003.072,226.6724,1013.1141,226.1978,1023.1562,226.112,1033.1983,226.9245,1043.2405,226.1664,1053.2826,227.0576,1063.3247,225.913,1073.3668,227.0832,1083.4089,226.95,1093.4511,226.7107,1103.4932,226.513,1113.5353,227.1924,1123.5774,227.0793,1133.6196,226.635,1143.6617,226.7339,1153.7038,226.3355,1163.7459,227.1822,1173.7881,226.6206,1183.8302,226.6383,1193.8723,226.4657,1193.7947,226.2784,1195.5884,227.0732,1197.4755,228.0937,1199.2304,228.7948,1200.9379,229.3815,1202.7111,230.1269,1202.6119,230.0858,1203.3759,231.8667,1203.9643,233.5749,1205.0356,235.4831,1205.8678,237.2923,1206.3723,238.9657,1206.5478,238.9657,1206.6039,244.0917,1206.3267,249.2177,1206.4014,254.3436,1206.2431,259.4696,1206.3723,264.5956,1206.4598,264.6318,1205.7161,266.3948,1205.0779,268.2016,1204.1049,269.8696,1203.402,271.6495,1202.7111,273.4344,1202.7677,273.571,1201.0157,274.3414,1199.1102,274.741,1197.3831,275.5714,1195.6591,276.4093,1193.8723,277.0956,1193.8723,276.4847,1183.8302,277.449,1173.7881,277.3536,1163.7459,276.9948,1153.7038,277.2378,1143.6617,277.8243,1133.6196,276.7827,1123.5774,277.4106,1113.5353,277.3812,1103.4932,277.2113,1093.4511,277.2365,1083.4089,277.2091,1073.3668,276.4714,1063.3247,276.6948,1053.2826,276.634,1043.2405,277.1594,1033.1983,277.1837,1023.1562,277.2573,1013.1141,276.8046,1003.072,277.0281,993.0298,276.9754,982.9877,277.6724,972.9456,277.5221,962.9035,276.61,952.8613,277.0227,942.8192,276.5183,932.7771,277.384,922.735,277.7041,912.6929,277.6401,902.6507,276.66,892.6086,277.5595,882.5665,276.3528,872.5244,277.2957,862.4822,276.7963,852.4401,277.1923,842.398,277.3359,832.3559,277.5677,822.3137,276.3757,812.2716,277.5711,802.2295,277.2738,792.1874,277.4509,782.1453,277.8434,772.1031,277.1011,762.061,277.2708,752.0189,277.309,741.9768,277.2928,731.9346,277.0948,721.8925,277.8063,711.8504,276.4858,701.8083,277.6609,691.7661,276.4716,681.724,276.5553,671.6819,277.1356,661.6398,277.1239,651.5977,276.6027,641.5555,277.5093,631.5134,277.2044,621.4713,277.8222,611.4292,277.7627,601.387,276.6473,591.3449,276.6977,581.3028,276.9664,571.2607,277.4511,561.2185,277.4986,551.1764,277.3967,541.1343,276.7536,531.0922,277.7319,521.0501,277.7294,511.0079,277.0483,500.9658,276.8565,490.9237,276.6942,480.8816,276.881,470.8394,277.233,460.7973,277.0272,450.7552,276.6778,440.7131,277.583,430.6709,276.6366,420.6288,277.598,410.5867,277.5228,400.5446,277.4674,390.5025,277.7881,380.4603,276.8497,370.4182,276.7949,360.3761,277.6145,350.334,276.4987,340.2918,276.8616,330.2497,277.2111,320.2076,277.1643,310.1655,276.7371,300.1233,277.0526,290.0812,277.0956,290.1762,277.3249,288.3962,276.5631,286.4696,275.4475,284.7879,274.9231,282.9446,274.0084,281.2424,273.4344,281.2343,273.4311,280.6004,271.704,279.9072,269.9524,278.841,268.0463,278.4368,266.4144,277.5812,264.5956,277.584,264.5956,277.3961,259.4696,277.4242,254.3436,277.6901,249.2177,277.6645,244.0917,277.5812,238.9657,277.5762,238.9636,278.1065,237.1122,279.2484,235.5142,279.6819,233.6227,280.3475,231.8273,281.2424,230.1269,281.2338,230.1062,283.0854,229.5763,284.8564,228.852,286.5502,227.941,288.2942,227.1514,290.0812,226.4657" style="stroke:#181818;stroke-width:0.5;"/><text fill="#000000" font-family="Chalkduster" font-size="24" lengthAdjust="spacing" textLength="908.7911" x="287.5812" y="260.3066">Work with data rights owner to understand access and use rights</text><path d="M10,297.6994 L10.5605,297.6994 L8.8951,307.8932 L10.5154,318.087 L11.0658,328.2808 L8.0976,338.4746 L9.7928,348.6684 L8.8627,358.8622 L8.9773,369.056 L9.8182,379.2498 L8.1563,389.4436 L11.4764,399.6374 L8.3193,409.8312 L9.4726,420.025 L10,430.2188 L10,430.2188 L10,431.3706 L19.9595,429.99 L29.9191,430.4007 L39.8786,430.1336 L49.8381,430.6948 L59.7977,430.8565 L69.7572,431.7806 L79.7167,432.0083 L89.6763,432.0301 L99.6358,430.8978 L109.5954,431.455 L119.5549,432.0914 L129.5144,428.2956 L139.474,432.0281 L149.4335,429.4281 L159.393,431.6423 L169.3526,428.8987 L179.3121,430.0361 L189.2716,432.1964 L199.2312,430.0888 L209.1907,430.4996 L219.1502,431.1218 L229.1098,431.3287 L239.0693,430.2084 L249.0289,430.9847 L258.9884,428.6923 L268.9479,430.9771 L278.9075,431.6806 L288.867,431.4042 L298.8265,431.8535 L308.7861,428.9306 L318.7456,428.4796 L328.7051,428.5617 L338.6647,430.0618 L348.6242,429.6947 L358.5837,432.0359 L368.5433,429.753 L378.5028,429.304 L388.4623,430.8275 L398.4219,428.4405 L408.3814,428.8344 L418.341,431.9493 L428.3005,431.3806 L438.26,432.1774 L448.2196,429.3607 L458.1791,431.07 L468.1386,431.7932 L478.0982,428.959 L488.0577,429.9632 L498.0172,430.5547 L507.9768,430.2188 L507.9768,430.2188 L509.7148,430.2188 L507.9656,419.8422 L509.2103,409.4656 L506.5,399.0889 L506.1708,388.7123 L509.3197,378.3357 L507.9768,367.9591 L507.8518,367.3342 L512.0655,367.6027 L516.0128,366.5392 L519.9301,365.3256 L523.9151,364.4508 L527.9768,363.9591 L528.0567,364.359 L523.9246,362.8982 L520.08,362.875 L515.8804,361.0773 L512.0844,361.2973 L507.9768,359.9591 L509.2683,359.9591 L508.63,349.5072 L508.1027,339.0552 L509.9144,328.6033 L509.613,318.1514 L507.9768,307.6994 L508.0832,307.8058 L506.1453,305.868 L503.8949,303.6176 L502.4271,302.1498 L500.0741,299.7968 L497.9768,297.6994 L497.9768,298.1596 L488.0181,296.0772 L478.0594,296.6189 L468.1006,299.1148 L458.1419,298.8455 L448.1832,297.585 L438.2245,296.8403 L428.2658,297.1156 L418.3071,295.8696 L408.3484,298.8054 L398.3897,299.6716 L388.431,299.1032 L378.4723,299.5526 L368.5135,297.3348 L358.5548,297.932 L348.5961,296.6659 L338.6374,298.4569 L328.6787,298.3575 L318.72,299.1725 L308.7613,297.087 L298.8026,297.341 L288.8439,298.882 L278.8852,299.2123 L268.9265,296.3327 L258.9677,297.1824 L249.009,298.0975 L239.0503,296.0705 L229.0916,298.6418 L219.1329,298.3874 L209.1742,297.4307 L199.2155,298.0788 L189.2568,299.6426 L179.2981,296.8651 L169.3394,298.5394 L159.3806,298.4612 L149.4219,298.0082 L139.4632,298.0752 L129.5045,298.0021 L119.5458,296.035 L109.5871,296.6306 L99.6284,296.4687 L89.6697,297.8696 L79.711,297.9344 L69.7523,298.1308 L59.7935,296.9235 L49.8348,297.5194 L39.8761,297.3789 L29.9174,299.2377 L19.9587,298.837 L10,297.6994 L10,297.6994 " fill="#FFFFE0" style="stroke:#181818;stroke-width:4;"/><path d="M497.9768,297.6994 L498.1636,297.6994 L497.6085,299.6994 L498.1486,301.6994 L498.332,303.6994 L497.3426,305.6994 L497.9768,307.6994 L497.9768,307.6304 L499.9768,307.3203 L501.9768,307.3586 L503.9768,307.6389 L505.9768,307.0849 L507.9768,307.6994 L508.3248,308.0474 L505.5806,305.3033 L503.8525,303.5751 L502.2483,301.9709 L499.9229,299.6455 L497.9768,297.6994 " fill="#FFFFE0" style="stroke:#181818;stroke-width:4;"/><text fill="#000000" font-family="Chalkduster" font-size="24" lengthAdjust="spacing" textLength="376.2298" x="16" y="326.5403">It's important to document</text><text fill="#000000" font-family="Chalkduster" font-size="24" lengthAdjust="spacing" textLength="391.1867" x="16" y="357.1702">access and usage contraints</text><text fill="#000000" font-family="Chalkduster" font-size="24" lengthAdjust="spacing" textLength="476.9768" x="16" y="387.8">in an implementation-neutral way</text><text fill="#000000" font-family="Chalkduster" font-size="24" lengthAdjust="spacing" textLength="223.2928" x="147.2707" y="418.4298">*IN ONE PLACE*</text><polygon fill="#F1F1F1" points="540.4768,338.6442,540.4768,338.8544,550.5518,338.2299,560.6268,338.8375,570.7018,339.0439,580.7768,337.9308,590.8518,338.5665,600.9268,338.2177,611.0018,338.2607,621.0768,338.576,631.1518,337.9528,641.2268,339.1978,651.3018,338.0139,661.3768,338.4464,671.4518,339.0761,681.5268,338.5584,691.6018,338.7124,701.6768,338.6122,711.7518,338.8227,721.8268,338.8833,731.9018,339.2299,741.9768,339.3152,752.0518,339.3235,762.1268,338.8988,772.2018,339.1078,782.2768,339.3464,792.3518,337.923,802.4268,339.3227,812.5018,338.3477,822.5768,339.178,832.6518,338.1492,842.7268,338.5757,852.8018,339.3858,862.8768,338.5955,872.9518,338.7495,883.0268,338.9828,893.1017,339.0604,903.1767,338.6403,913.2517,338.9314,923.3267,338.0718,933.4017,338.9286,943.4767,338.6442,943.5467,338.813,945.3012,339.5133,947.0905,340.2974,948.7184,340.6921,950.4646,341.3723,952.3156,342.3054,952.1242,342.2261,953.0297,344.0656,953.7195,345.8158,954.7221,347.6956,955.1907,349.3541,955.9767,351.1442,955.8624,351.1442,956.0528,356.2702,955.7545,361.3961,955.8037,366.5221,956.1931,371.6481,955.9767,376.774,956.1109,376.8296,955.4707,378.6355,954.4132,380.2685,953.8783,382.118,953.2296,383.9204,952.3156,385.6129,952.2553,385.4674,950.5356,386.3156,948.7961,387.1161,947.0954,388.0103,945.244,388.5405,943.4767,389.274,943.4767,389.7366,933.4017,388.7202,923.3267,388.5968,913.2517,389.7776,903.1767,388.5571,893.1017,389.783,883.0268,389.4807,872.9518,389.0061,862.8768,388.9203,852.8018,389.7328,842.7268,388.9747,832.6518,389.8659,822.5768,388.7213,812.5018,389.8915,802.4268,389.7583,792.3518,389.519,782.2768,389.3212,772.2018,390.0006,762.1268,389.8876,752.0518,389.4433,741.9768,389.5422,731.9018,389.1438,721.8268,389.9905,711.7518,389.4289,701.6768,389.4466,691.6018,388.6657,681.5268,388.8688,671.4518,389.8048,661.3768,389.7038,651.3018,389.2311,641.2268,388.9519,631.1518,389.0551,621.0768,388.5879,611.0018,389.6888,600.9268,390.0136,590.8518,389.8004,580.7768,389.969,570.7018,389.1373,560.6268,389.3612,550.5518,388.8864,540.4768,389.274,540.513,389.3615,538.7405,388.6178,537.0117,387.9797,535.1442,387.0066,533.3886,386.3037,531.6379,385.6129,531.7745,385.6694,531.0804,383.9175,530.0156,382.0119,529.3815,380.2848,528.755,378.5608,527.9768,376.774,527.7732,376.774,528.0946,371.6481,528.0628,366.5221,527.9432,361.3961,528.0242,356.2702,527.9768,351.1442,528.2012,351.2371,528.6127,349.3365,529.5382,347.6488,530.2614,345.8773,530.9414,344.0879,531.6379,342.3054,531.6559,342.3488,533.4202,341.6081,535.0939,340.6487,536.8901,339.9852,538.6501,339.2343,540.4768,338.6442" style="stroke:#181818;stroke-width:0.5;"/><text fill="#000000" font-family="Chalkduster" font-size="24" lengthAdjust="spacing" textLength="408" x="537.9768" y="372.4851">Write an easy to read license</text><polygon fill="#F1F1F1" points="634.4276,460.8226,634.4276,461.0328,644.2048,460.4083,653.982,461.0159,663.7592,461.2223,673.5364,460.1092,683.3136,460.7449,693.0908,460.3961,702.868,460.4391,712.6452,460.7545,722.4224,460.1313,732.1996,461.3763,741.9768,460.1924,751.754,460.6249,761.5312,461.2546,771.3084,460.7369,781.0856,460.8909,790.8627,460.7907,800.6399,461.0012,810.4171,461.0618,820.1943,461.4083,829.9715,461.4937,839.7487,461.5019,849.5259,460.8226,849.5927,460.875,852.0476,463.9809,854.5102,467.093,856.5367,469.8633,859.304,473.2141,861.5259,476.1376,861.4481,476.0766,859.266,479.3103,856.596,482.1618,854.308,485.3124,852.1205,488.542,849.5259,491.4525,849.5259,491.4037,839.7487,491.5578,829.9715,491.7911,820.1943,491.8687,810.4171,491.4486,800.6399,491.7397,790.8627,490.8801,781.0856,491.7369,771.3084,492.0007,761.5312,491.897,751.754,492.0655,741.9768,490.9694,732.1996,490.8003,722.4224,490.8311,712.6452,491.3936,702.868,491.2559,693.0908,492.1339,683.3136,491.2778,673.5364,491.1094,663.7592,491.6807,653.982,490.7856,644.2048,490.9334,634.4276,491.4525,634.5979,491.5859,632.1419,488.4791,629.8203,485.4775,627.1432,482.1974,624.9113,479.2662,622.4276,476.1376,622.5825,476.2589,624.7036,472.9775,627.2024,469.9919,629.6606,466.9745,632.1986,464.0196,634.4276,460.8226" style="stroke:#181818;stroke-width:0.5;"/><text fill="#000000" font-family="Chalkduster" font-size="24" lengthAdjust="spacing" textLength="215.0983" x="634.4276" y="484.6635">anyone can use</text><text fill="#000000" font-family="Chalkduster" font-size="24" lengthAdjust="spacing" textLength="41.6088" x="580.8187" y="469.3486">yes</text><text fill="#000000" font-family="Chalkduster" font-size="24" lengthAdjust="spacing" textLength="441.3083" x="861.5259" y="469.3486">no; Authorization Step Required</text><polygon fill="#F1F1F1" points="235.2867,501.4525,235.2867,501.6627,245.1974,501.0382,255.108,501.6458,265.0187,501.8522,274.9294,500.7391,284.8401,501.3748,294.7507,501.026,304.6614,501.069,314.5721,501.3843,324.4828,500.7611,334.3935,502.0061,344.3041,500.8222,354.2148,501.2547,364.1255,501.8844,374.0362,501.3667,383.9468,501.5207,393.8575,501.4205,403.7682,501.631,413.6789,501.6916,423.5895,502.0382,433.5002,502.1235,443.4109,502.1317,453.3216,501.7071,463.2323,501.9161,473.1429,502.1547,483.0536,500.7313,492.9643,502.131,502.875,501.156,512.7856,501.9863,522.6963,500.9575,532.607,501.384,542.5177,502.1941,552.4283,501.4037,562.339,501.5578,572.2497,501.7911,582.1604,501.8687,592.0711,501.4486,601.9817,501.4525,602.0184,501.5409,603.6765,502.0084,605.5535,503.0045,607.355,503.818,609.1095,504.5183,610.8206,505.1136,611.0093,505.1918,611.404,506.8198,612.0842,508.566,612.8259,510.3377,613.7314,512.1772,614.4817,513.9525,614.4162,513.9525,614.7089,519.0784,614.4235,524.2044,614.3674,529.3304,614.5578,534.4563,614.4817,539.5823,614.2764,539.4972,613.5896,541.2839,613.2171,543.2006,612.4192,544.9412,611.779,546.7471,610.8206,548.4211,610.7795,548.322,609.0935,549.2517,607.3603,550.0674,605.457,550.4724,603.7373,551.3206,601.9817,552.0823,601.9817,552.2083,592.0711,552.7341,582.1604,552.0781,572.2497,552.5449,562.339,551.5285,552.4283,551.4051,542.5177,552.5859,532.607,551.3654,522.6963,552.5913,512.7856,552.2889,502.875,551.8144,492.9643,551.7285,483.0536,552.5411,473.1429,551.783,463.2323,552.6742,453.3216,551.5296,443.4109,552.6997,433.5002,552.5666,423.5895,552.3273,413.6789,552.1295,403.7682,552.8089,393.8575,552.6959,383.9468,552.2516,374.0362,552.3505,364.1255,551.952,354.2148,552.7988,344.3041,552.2372,334.3935,552.2549,324.4828,551.474,314.5721,551.6771,304.6614,552.6131,294.7507,552.5121,284.8401,552.0394,274.9294,551.7601,265.0187,551.8634,255.108,551.3961,245.1974,552.497,235.2867,552.0823,235.381,552.3101,233.5861,551.5122,231.8398,550.8319,229.9659,549.8435,228.2267,549.1802,226.4479,548.4211,226.3285,548.3717,225.8031,546.6896,225.0594,544.9171,224.4213,543.1883,223.4482,541.3208,222.7867,539.5823,222.7419,539.5823,222.9345,534.4563,222.9758,529.3304,222.6158,524.2044,222.7221,519.0784,222.7867,513.9525,222.8327,513.9715,223.3308,512.1068,224.36,510.462,225.0628,508.6821,225.6846,506.8686,226.4479,505.1136,226.466,505.1574,228.3086,504.6058,229.9435,503.5528,231.7913,503.0139,233.5554,502.2727,235.2867,501.4525" style="stroke:#181818;stroke-width:0.5;"/><text fill="#000000" font-family="Chalkduster" font-size="24" lengthAdjust="spacing" textLength="371.695" x="232.7867" y="535.2934">Use an open access license</text><polygon fill="#F1F1F1" points="884.9878,501.4525,884.9878,501.6627,895.0062,501.0382,905.0246,501.6458,915.0431,501.8522,925.0615,500.7391,935.0799,501.3748,945.0983,501.026,955.1167,501.069,965.1351,501.3843,975.1536,500.7611,985.172,502.0061,995.1904,500.8222,1005.2088,501.2547,1015.2272,501.8844,1025.2456,501.3667,1035.2641,501.5207,1045.2825,501.4205,1055.3009,501.631,1065.3193,501.6916,1075.3377,502.0382,1085.3561,502.1235,1095.3746,502.1317,1105.393,501.7071,1115.4114,501.9161,1125.4298,502.1547,1135.4482,500.7313,1145.4667,502.131,1155.4851,501.156,1165.5035,501.9863,1175.5219,500.9575,1185.5403,501.384,1195.5587,502.1941,1205.5772,501.4037,1215.5956,501.5578,1225.614,501.7911,1235.6324,501.8687,1245.6508,501.4525,1245.647,501.4515,1248.3287,510.714,1249.897,519.6857,1253.126,529.0912,1255.7812,538.3468,1257.6508,547.3972,1258.0809,547.5096,1255.844,556.7411,1252.3834,565.653,1249.8198,574.7993,1247.4496,583.996,1245.6508,593.342,1245.6508,593.2831,1235.6324,593.1454,1225.614,594.0234,1215.5956,593.1673,1205.5772,592.9989,1195.5587,593.5702,1185.5403,592.6751,1175.5219,592.8229,1165.5035,593.9909,1155.4851,593.7776,1145.4667,594.0765,1135.4482,593.0202,1125.4298,593.6612,1115.4114,593.9324,1105.393,592.8696,1095.3746,593.2461,1085.3561,593.468,1075.3377,593.9937,1065.3193,593.3378,1055.3009,593.8045,1045.2825,592.7882,1035.2641,592.6647,1025.2456,593.8456,1015.2272,592.625,1005.2088,593.8509,995.1904,593.5486,985.172,593.0741,975.1536,592.9882,965.1351,593.8007,955.1167,593.0426,945.0983,593.9338,935.0799,592.7892,925.0615,593.9594,915.0431,593.8263,905.0246,593.5869,895.0062,593.3892,884.9878,593.342,885.6908,593.5256,883.1815,584.3081,880.3516,575.0068,878.0473,565.8429,875.2618,556.5533,872.9878,547.3972,873.681,547.5783,875.5376,538.2474,877.9548,529.0629,879.5992,519.6766,882.1957,510.539,884.9878,501.4525" style="stroke:#181818;stroke-width:0.5;"/><text fill="#000000" font-family="Chalkduster" font-size="24" lengthAdjust="spacing" textLength="298.369" x="884.9878" y="525.2934">Click-thru agreement</text><text fill="#000000" font-family="Chalkduster" font-size="24" lengthAdjust="spacing" textLength="360.663" x="884.9878" y="555.9232">with terms or a short quiz</text><text fill="#000000" font-family="Chalkduster" font-size="24" lengthAdjust="spacing" textLength="130.926" x="884.9878" y="586.553">is enough</text><text fill="#000000" font-family="Chalkduster" font-size="24" lengthAdjust="spacing" textLength="41.6088" x="831.379" y="540.6083">yes</text><text fill="#000000" font-family="Chalkduster" font-size="24" lengthAdjust="spacing" textLength="34.8464" x="1257.6508" y="540.6083">no</text><polygon fill="#F1F1F1" points="656.9817,603.342,656.9817,603.5522,666.8419,602.9277,676.702,603.5353,686.5621,603.7417,696.4222,602.6286,706.2824,603.2643,716.1425,602.9155,726.0026,602.9585,735.8627,603.2738,745.7229,602.6506,755.583,603.8956,765.4431,602.7117,775.3032,603.1442,785.1634,603.7739,795.0235,603.2562,804.8836,603.4102,814.7437,603.31,824.6039,603.5205,834.464,603.5811,844.3241,603.9277,854.1843,604.013,864.0444,604.0212,873.9045,603.5966,883.7646,603.8056,893.6248,604.0442,903.4849,602.6208,913.345,604.0205,923.2051,603.0455,933.0653,603.8758,942.9254,603.342,942.8622,603.1895,944.6844,604.0531,946.5555,605.0348,948.2225,605.5237,950.0099,606.3033,951.7642,607.0031,951.8685,607.0463,952.6246,608.824,953.2275,610.5382,954.0494,612.3431,954.5169,614.0012,955.4254,615.842,955.7098,615.842,955.9736,625.2186,955.8699,634.5952,956.0384,643.9718,954.9423,653.3484,954.7732,662.725,955.4254,672.1016,955.234,672.0224,954.675,673.8619,953.9004,675.6121,953.4385,677.4919,952.4427,679.1504,951.7642,680.9405,951.7205,680.8348,950.0256,681.743,948.1436,682.1996,946.3947,682.9773,944.7759,684.0693,942.9254,684.6016,942.9254,685.0373,933.0653,685.3361,923.2051,684.2798,913.345,684.9208,903.4849,685.1921,893.6248,684.1292,883.7646,684.5058,873.9045,684.7276,864.0444,685.2534,854.1843,684.5975,844.3241,685.0642,834.464,684.0479,824.6039,683.9244,814.7437,685.1053,804.8836,683.8847,795.0235,685.1106,785.1634,684.8083,775.3032,684.3337,765.4431,684.2479,755.583,685.0604,745.7229,684.3023,735.8627,685.1935,726.0026,684.0489,716.1425,685.2191,706.2824,685.0859,696.4222,684.8466,686.5621,684.6489,676.702,685.3283,666.8419,685.2152,656.9817,684.6016,657.0033,684.6538,655.2482,683.952,653.4296,683.0971,651.7698,682.6256,649.9304,681.7204,648.1429,680.9405,648.196,680.9625,647.2233,679.0951,646.5536,677.3533,646.1096,675.7049,645.3463,673.9242,644.4817,672.1016,644.4388,672.1016,644.1596,662.725,644.2628,653.3484,643.7956,643.9718,644.8965,634.5952,645.2213,625.2186,644.4817,615.842,644.6438,615.9091,645.428,614.1629,645.9041,612.289,646.7053,610.5498,647.2913,608.7215,648.1429,607.0031,648.1791,607.0906,649.9421,606.3469,651.7489,605.7088,653.4169,604.7357,655.1968,604.0328,656.9817,603.342" style="stroke:#181818;stroke-width:0.5;"/><text fill="#000000" font-family="Chalkduster" font-size="24" lengthAdjust="spacing" textLength="290.9437" x="654.4817" y="637.1829">Write a click-thru or</text><text fill="#000000" font-family="Chalkduster" font-size="24" lengthAdjust="spacing" textLength="252.4641" x="654.4817" y="667.8127">quiz based license</text><polygon fill="#F1F1F1" points="1149.9558,603.342,1149.9558,603.5522,1159.9963,602.9277,1170.0368,603.5353,1180.0773,603.7417,1190.1178,602.6286,1200.1584,603.2643,1210.1989,602.9155,1220.2394,602.9585,1230.2799,603.2738,1240.3204,602.6506,1250.3609,603.8956,1260.4015,602.7117,1270.442,603.1442,1280.4825,603.7739,1290.523,603.2562,1300.5635,603.4102,1310.604,603.31,1320.6446,603.5205,1330.6851,603.5811,1340.7256,603.9277,1350.7661,604.013,1360.8066,604.0212,1370.8471,603.5966,1380.8876,603.8056,1390.9282,604.0442,1400.9687,602.6208,1411.0092,604.0205,1421.0497,603.0455,1431.0902,603.8758,1441.1307,602.847,1451.1713,603.2735,1461.2118,604.0836,1471.2523,603.2932,1481.2928,603.4473,1491.3333,603.6806,1501.3738,603.7582,1511.4143,603.342,1511.4131,603.3415,1513.9035,609.5029,1516.0367,615.5243,1518.7026,621.7545,1521.1845,627.9125,1523.4143,633.9718,1523.5523,634.0259,1521.2046,640.1723,1518.4644,646.165,1516.0119,652.2704,1513.6215,658.4001,1511.4143,664.6016,1511.4143,664.5428,1501.3738,664.4051,1491.3333,665.2831,1481.2928,664.427,1471.2523,664.2586,1461.2118,664.8299,1451.1713,663.9348,1441.1307,664.0825,1431.0902,665.2506,1421.0497,665.0373,1411.0092,665.3361,1400.9687,664.2798,1390.9282,664.9208,1380.8876,665.1921,1370.8471,664.1292,1360.8066,664.5058,1350.7661,664.7276,1340.7256,665.2534,1330.6851,664.5975,1320.6446,665.0642,1310.604,664.0479,1300.5635,663.9244,1290.523,665.1053,1280.4825,663.8847,1270.442,665.1106,1260.4015,664.8083,1250.3609,664.3337,1240.3204,664.2479,1230.2799,665.0604,1220.2394,664.3023,1210.1989,665.1935,1200.1584,664.0489,1190.1178,665.2191,1180.0773,665.0859,1170.0368,664.8466,1159.9963,664.6489,1149.9558,664.6016,1150.1813,664.69,1147.7462,658.5503,1145.2083,652.3703,1142.839,646.2564,1140.3154,640.0819,1137.9558,633.9718,1138.1781,634.0589,1140.4039,627.8647,1142.8093,621.7409,1144.967,615.5199,1147.43,609.4187,1149.9558,603.342" style="stroke:#181818;stroke-width:0.5;"/><text fill="#000000" font-family="Chalkduster" font-size="24" lengthAdjust="spacing" textLength="361.4586" x="1149.9558" y="627.1829">Steward can list *exactly*</text><text fill="#000000" font-family="Chalkduster" font-size="24" lengthAdjust="spacing" textLength="325.1801" x="1149.9558" y="657.8127">who should have access</text><text fill="#000000" font-family="Chalkduster" font-size="24" lengthAdjust="spacing" textLength="41.6088" x="1096.3469" y="627.1829">yes</text><text fill="#000000" font-family="Chalkduster" font-size="24" lengthAdjust="spacing" textLength="34.8464" x="1523.4143" y="627.1829">no</text><polygon fill="#F1F1F1" points="997.9254,674.6016,997.9254,674.8118,1007.9277,674.1873,1017.9301,674.7949,1027.9324,675.0013,1037.9347,673.8882,1047.9371,674.5239,1057.9394,674.1751,1067.9418,674.2181,1077.9441,674.5335,1087.9464,673.9103,1097.9488,675.1553,1107.9511,673.9714,1117.9534,674.4039,1127.9558,675.0336,1137.9581,674.5159,1147.9605,674.6699,1157.9628,674.5697,1167.9651,674.7802,1177.9675,674.8408,1187.9698,675.1873,1197.9722,675.2727,1207.9745,675.2809,1217.9768,674.8563,1227.9792,675.0652,1237.9815,675.3039,1247.9838,673.8805,1257.9862,674.6016,1258.0727,674.8106,1259.7161,675.2426,1261.5898,676.2305,1263.2263,676.6459,1265.0485,677.5095,1266.825,678.2628,1267.0534,678.3574,1267.5422,680.0244,1268.3219,681.8118,1269.126,683.6093,1269.8821,685.387,1270.4862,687.1016,1270.4823,687.1016,1270.7734,696.4783,1269.9138,705.8549,1270.7706,715.2315,1271.0344,724.6081,1270.9307,733.9847,1270.4862,743.3613,1270.675,743.4395,1269.6052,745.0675,1268.8209,746.8136,1268.0981,748.5853,1267.5391,750.4249,1266.825,752.2001,1266.7999,752.1396,1265.1442,753.1422,1263.2672,753.6108,1261.478,754.2912,1259.7831,755.1994,1257.9862,755.8613,1257.9862,755.1945,1247.9838,755.3422,1237.9815,756.5103,1227.9792,756.297,1217.9768,756.5958,1207.9745,755.5395,1197.9722,756.1805,1187.9698,756.4517,1177.9675,755.3889,1167.9651,755.7654,1157.9628,755.9873,1147.9605,756.5131,1137.9581,755.8571,1127.9558,756.3239,1117.9534,755.3075,1107.9511,755.1841,1097.9488,756.3649,1087.9464,755.1444,1077.9441,756.3703,1067.9418,756.0679,1057.9394,755.5934,1047.9371,755.5075,1037.9347,756.3201,1027.9324,755.562,1017.9301,756.4532,1007.9277,755.3086,997.9254,755.8613,998.0042,756.0515,996.2194,755.2782,994.4211,754.4723,992.6281,753.6792,990.947,753.1561,989.0866,752.2001,989.2755,752.2784,988.4064,750.454,987.7047,748.6988,986.8497,746.8802,986.3783,745.2205,985.4254,743.3613,985.5803,743.3613,985.598,733.9847,984.817,724.6081,985.0202,715.2315,985.9561,705.8549,985.8552,696.4783,985.4254,687.1016,985.4122,687.0962,986.0584,685.2928,986.8224,683.5382,987.4108,681.7108,988.482,680.0835,989.0866,678.2628,989.1809,678.4906,990.9215,677.6927,992.7107,677.0124,994.3724,676.024,996.1688,675.3607,997.9254,674.6016" style="stroke:#181818;stroke-width:0.5;"/><text fill="#000000" font-family="Chalkduster" font-size="24" lengthAdjust="spacing" textLength="116.3669" x="1007.3591" y="708.4425">Make an</text><text fill="#000000" font-family="Chalkduster" font-size="24" lengthAdjust="spacing" textLength="265.0608" x="995.4254" y="739.0724">Access Control List</text><polygon fill="#F1F1F1" points="1376.4801,674.6016,1376.4801,674.8118,1386.6049,674.1873,1396.7297,674.7949,1406.8545,675.0013,1416.9793,673.8882,1427.104,674.5239,1437.2288,674.1751,1447.3536,674.2181,1457.4784,674.5335,1467.6032,673.9103,1477.728,675.1553,1487.8528,673.9714,1497.9776,674.4039,1508.1024,675.0336,1518.2272,674.5159,1528.3519,674.6699,1538.4767,674.5697,1548.6015,674.7802,1558.7263,674.8408,1568.8511,675.1873,1578.9759,675.2727,1589.1007,675.2809,1599.2255,674.8563,1609.3503,675.0652,1619.4751,675.3039,1629.5999,673.8805,1639.7246,675.2802,1649.8494,674.3051,1659.9742,675.1355,1670.099,674.1066,1680.2238,674.5331,1690.3486,674.6016,1690.4432,674.83,1692.1101,675.3189,1693.8976,676.0985,1695.6951,676.9026,1697.4728,677.6588,1699.1874,678.2628,1699.1862,678.2623,1700.0081,680.0672,1700.4756,681.7253,1701.4717,683.6024,1702.2852,685.4038,1702.8486,687.1016,1703.2931,687.1016,1703.4616,696.9783,1702.3655,706.8549,1702.1964,716.7315,1702.2272,726.6081,1702.7897,736.4847,1702.6521,746.3613,1703.53,756.2379,1702.6739,766.1145,1702.5055,775.9911,1703.0769,785.8678,1702.1818,795.7444,1702.3295,805.621,1703.4975,815.4976,1703.2843,825.3742,1702.8486,835.2508,1703.0748,835.3445,1702.0173,836.9775,1701.4824,838.8271,1700.8337,840.6294,1699.7742,842.2616,1699.1874,844.0896,1699.1752,844.0601,1697.4357,844.8607,1695.735,845.7548,1693.8836,846.2851,1692.1754,847.161,1690.3486,847.7508,1690.3486,847.197,1680.2238,847.0736,1670.099,848.2544,1659.9742,847.0339,1649.8494,848.2598,1639.7246,847.9574,1629.5999,847.4829,1619.4751,847.397,1609.3503,848.2096,1599.2255,847.4515,1589.1007,848.3427,1578.9759,847.1981,1568.8511,848.3682,1558.7263,848.2351,1548.6015,847.9958,1538.4767,847.798,1528.3519,848.4774,1518.2272,848.3644,1508.1024,847.9201,1497.9776,848.019,1487.8528,847.6205,1477.728,848.4673,1467.6032,847.9057,1457.4784,847.9234,1447.3536,847.1425,1437.2288,847.3456,1427.104,848.2816,1416.9793,848.1806,1406.8545,847.7079,1396.7297,847.4286,1386.6049,847.5319,1376.4801,847.7508,1376.3926,847.5395,1374.7652,847.1463,1373.0389,846.5141,1371.2439,845.7162,1369.4977,845.0359,1367.6413,844.0896,1367.5992,844.0722,1366.9359,842.333,1366.0574,840.5047,1365.532,838.8226,1364.7883,837.0501,1363.9801,835.2508,1364.5325,835.2508,1363.7504,825.3742,1363.8457,815.4976,1364.4236,805.621,1364.5474,795.7444,1363.4676,785.8678,1363.7862,775.9911,1364.1294,766.1145,1363.3692,756.2379,1364.3335,746.3613,1364.2381,736.4847,1363.8793,726.6081,1364.1223,716.7315,1364.7088,706.8549,1363.6672,696.9783,1363.9801,687.1016,1364.0771,687.1418,1364.8003,685.3703,1365.4802,683.5809,1366.2202,681.8163,1366.944,680.0451,1367.6413,678.2628,1367.5616,678.0706,1369.3579,677.4071,1371.1179,676.6562,1372.9527,676.0858,1374.7236,675.361,1376.4801,674.6016" style="stroke:#181818;stroke-width:0.5;"/><text fill="#000000" font-family="Chalkduster" font-size="24" lengthAdjust="spacing" textLength="318.8685" x="1373.9801" y="708.4425">Design a form or other</text><text fill="#000000" font-family="Chalkduster" font-size="24" lengthAdjust="spacing" textLength="307.0674" x="1373.9801" y="739.0724">mechanism to approve</text><text fill="#000000" font-family="Chalkduster" font-size="24" lengthAdjust="spacing" textLength="88.4685" x="1373.9801" y="769.7022">agents</text><text fill="#000000" font-family="Chalkduster" font-size="24" lengthAdjust="spacing" textLength="267.0762" x="1373.9801" y="800.332">(Some agents might</text><text fill="#000000" font-family="Chalkduster" font-size="24" lengthAdjust="spacing" textLength="234.3249" x="1373.9801" y="830.9619">be pre-approved)</text><polygon fill="#F1F1F1" points="1349.1519,867.7508,1349.1519,867.961,1359.1121,867.3365,1369.0722,867.9441,1379.0323,868.1505,1388.9924,867.0374,1398.9526,867.6731,1408.9127,867.3243,1418.8728,867.3673,1428.833,867.6827,1438.7931,867.0594,1448.7532,868.3045,1458.7134,867.1205,1468.6735,867.553,1478.6336,868.1828,1488.5938,867.665,1498.5539,867.819,1508.514,867.7189,1518.4741,867.9293,1528.4343,867.9899,1538.3944,868.3365,1548.3545,868.4219,1558.3147,868.4301,1568.2748,868.0054,1578.2349,868.2144,1588.1951,868.453,1598.1552,867.0296,1608.1153,868.4293,1618.0755,867.4543,1628.0356,868.2846,1637.9957,867.2558,1647.9558,867.6823,1657.916,868.4924,1667.8761,867.7021,1677.8362,867.8561,1687.7964,868.0894,1697.7565,868.167,1707.7166,867.7469,1717.6768,867.7508,1717.7134,867.8393,1719.3715,868.3068,1721.2486,869.3029,1723.05,870.1163,1724.8045,870.8166,1726.5156,871.412,1726.7044,871.4902,1727.0991,873.1181,1727.7792,874.8643,1728.5209,876.636,1729.4264,878.4755,1730.1768,880.2508,1729.9802,880.2508,1730.8582,889.6274,1730.0021,899.004,1729.8337,908.3806,1730.405,917.7573,1729.5099,927.1339,1730.1768,936.5105,1730.0169,936.4443,1729.6444,938.361,1728.8465,940.1016,1728.2063,941.9075,1727.1487,943.5405,1726.5156,945.3493,1726.5563,945.4476,1724.8231,946.2634,1722.9198,946.6683,1721.2001,947.5165,1719.4606,948.317,1717.6768,949.0105,1717.6768,949.6622,1707.7166,949.0063,1697.7565,949.473,1687.7964,948.4567,1677.8362,948.3332,1667.8761,949.5141,1657.916,948.2935,1647.9558,949.5194,1637.9957,949.2171,1628.0356,948.7426,1618.0755,948.6567,1608.1153,949.4692,1598.1552,948.7111,1588.1951,949.6023,1578.2349,948.4577,1568.2748,949.6279,1558.3147,949.4948,1548.3545,949.2554,1538.3944,949.0577,1528.4343,949.7371,1518.4741,949.6241,1508.514,949.1797,1498.5539,949.2787,1488.5938,948.8802,1478.6336,949.7269,1468.6735,949.1653,1458.7134,949.183,1448.7532,948.4021,1438.7931,948.6053,1428.833,949.5412,1418.8728,949.4402,1408.9127,948.9675,1398.9526,948.6883,1388.9924,948.7915,1379.0323,948.3243,1369.0722,949.4252,1359.1121,949.75,1349.1519,949.0105,1349.2191,949.1726,1347.4728,948.4923,1345.5989,947.5039,1343.8597,946.8406,1342.0314,945.9622,1340.3131,945.3493,1340.4006,945.3855,1339.6568,943.613,1339.0187,941.8842,1338.0457,940.0167,1337.3428,938.2611,1336.6519,936.5105,1337.0954,936.5105,1337.2193,927.1339,1336.1394,917.7573,1336.458,908.3806,1336.8012,899.004,1336.0411,889.6274,1336.6519,880.2508,1336.7608,880.2959,1337.4636,878.516,1338.0854,876.7024,1338.8924,874.9657,1339.8053,873.2727,1340.3131,871.412,1340.2732,871.3156,1342.121,870.7767,1343.8851,870.0355,1345.6312,869.2509,1347.4021,868.5264,1349.1519,867.7508" style="stroke:#181818;stroke-width:0.5;"/><text fill="#000000" font-family="Chalkduster" font-size="24" lengthAdjust="spacing" textLength="373.5248" x="1346.6519" y="901.5917">Identify decision maker(s)</text><text fill="#000000" font-family="Chalkduster" font-size="24" lengthAdjust="spacing" textLength="233.6089" x="1346.6519" y="932.2215">to grant licenses</text><polygon fill="#F1F1F1" points="1330.6851,955.0105,1330.7346,955.06,1332.9874,957.3128,1335.5306,959.856,1337.9793,962.3047,1340.1169,964.4423,1342.6851,967.0105,1342.6667,966.9922,1340.1845,969.3099,1337.7947,971.7201,1335.469,974.1944,1332.9221,976.4475,1330.6851,979.0105,1330.8156,979.141,1328.1365,976.4619,1325.8385,974.1639,1323.5869,971.9123,1321.0648,969.3903,1318.6851,967.0105,1318.7012,967.0266,1321.0775,964.6029,1323.5271,962.2526,1325.9414,959.8668,1328.4231,957.5485,1330.6851,955.0105" style="stroke:#181818;stroke-width:0.5;"/><polygon fill="#F1F1F1" points="1065.3193,985.0105,1065.3689,985.06,1067.6217,987.3128,1070.1649,989.856,1072.6135,992.3047,1074.7512,994.4423,1077.3193,997.0105,1077.301,996.9922,1074.8188,999.3099,1072.4289,1001.7201,1070.1032,1004.1944,1067.5564,1006.4475,1065.3193,1009.0105,1065.4498,1009.141,1062.7708,1006.4619,1060.4727,1004.1639,1058.2211,1001.9123,1055.6991,999.3903,1053.3193,997.0105,1053.3354,997.0266,1055.7118,994.6029,1058.1614,992.2526,1060.5757,989.8668,1063.0574,987.5485,1065.3193,985.0105" style="stroke:#181818;stroke-width:0.5;"/><polygon fill="#F1F1F1" points="741.9768,1015.0105,742.0263,1015.06,744.2791,1017.3128,746.8223,1019.856,749.271,1022.3047,751.4086,1024.4423,753.9768,1027.0105,753.9584,1026.9922,751.4762,1029.3099,749.0864,1031.7201,746.7607,1034.1944,744.2138,1036.4475,741.9768,1039.0105,742.1073,1039.141,739.4282,1036.4619,737.1301,1034.1639,734.8786,1031.9123,732.3565,1029.3903,729.9768,1027.0105,729.9928,1027.0266,732.3692,1024.6029,734.8188,1022.2526,737.2331,1019.8668,739.7148,1017.5485,741.9768,1015.0105" style="stroke:#181818;stroke-width:0.5;"/><path d="M741.9768,104.6022 L742.0702,104.6022 L741.7926,108.6022 L742.0627,112.6022 L742.1544,116.6022 L741.6597,120.6022 L741.9768,124.6022 " fill="#8B0000" style="stroke:#8B0000;stroke-width:4;"/><polygon fill="#8B0000" points="737.9768,114.6022,738.0418,114.6282,738.6485,116.5509,739.6366,118.6261,740.5005,120.6517,740.956,122.5139,741.9768,124.6022,741.9527,124.5926,742.6448,122.5494,743.4581,120.5547,744.3557,118.5938,744.9628,116.5166,745.9768,114.6022,746.1073,114.7327,745.0282,115.2537,744.3301,116.1556,743.6786,117.104,742.7565,117.782,741.9768,118.6022,741.9928,118.6183,741.1692,117.7947,740.4188,117.0443,739.6331,116.2586,738.9148,115.5403,737.9768,114.6022" style="stroke:#8B0000;stroke-width:1;"/><path d="M741.9768,205.8619 L742.0702,205.8619 L741.7926,209.9827 L742.0627,214.1034 L742.1544,218.2242 L741.6597,222.345 L741.9768,226.4657 " fill="#8B0000" style="stroke:#8B0000;stroke-width:4;"/><polygon fill="#8B0000" points="737.9768,216.4657,738.0418,216.4918,738.6485,218.4145,739.6366,220.4897,740.5005,222.5152,740.956,224.3774,741.9768,226.4657,741.9527,226.4561,742.6448,224.4129,743.4581,222.4183,744.3557,220.4573,744.9628,218.3802,745.9768,216.4657,746.1073,216.5962,745.0282,217.1172,744.3301,218.0191,743.6786,218.9676,742.7565,219.6455,741.9768,220.4657,741.9928,220.4818,741.1692,219.6582,740.4188,218.9078,739.6331,218.1221,738.9148,217.4038,737.9768,216.4657" style="stroke:#8B0000;stroke-width:1;"/><path d="M741.9768,277.0956 L742.257,277.0956 L741.4243,287.3537 L742.2345,297.6118 L742.5097,307.8699 L741.0256,318.128 L741.8731,328.3861 L741.9768,338.6442 " fill="#8B0000" style="stroke:#8B0000;stroke-width:4;"/><polygon fill="#8B0000" points="737.9768,328.6442,738.0418,328.6702,738.6485,330.5929,739.6366,332.6681,740.5005,334.6937,740.956,336.5559,741.9768,338.6442,741.9527,338.6346,742.6448,336.5914,743.4581,334.5967,744.3557,332.6358,744.9628,330.5586,745.9768,328.6442,746.1073,328.7747,745.0282,329.2956,744.3301,330.1976,743.6786,331.146,742.7565,331.824,741.9768,332.6442,741.9928,332.6603,741.1692,331.8367,740.4188,331.0863,739.6331,330.3006,738.9148,329.5822,737.9768,328.6442" style="stroke:#8B0000;stroke-width:1;"/><path d="M1533.4143,847.7508 L1533.5078,847.7508 L1533.2302,851.7508 L1533.5002,855.7508 L1533.592,859.7508 L1533.0973,863.7508 L1533.4143,867.7508 " fill="#8B0000" style="stroke:#8B0000;stroke-width:4;"/><polygon fill="#8B0000" points="1529.4143,857.7508,1529.4794,857.7768,1530.0861,859.6995,1531.0742,861.7747,1531.938,863.8003,1532.3936,865.6625,1533.4143,867.7508,1533.3903,867.7412,1534.0823,865.698,1534.8957,863.7033,1535.7933,861.7424,1536.4004,859.6652,1537.4143,857.7508,1537.5448,857.8813,1536.4658,858.4023,1535.7677,859.3042,1535.1162,860.2526,1534.1941,860.9306,1533.4143,861.7508,1533.4304,861.7669,1532.6068,860.9433,1531.8564,860.1929,1531.0707,859.4072,1530.3524,858.6889,1529.4143,857.7508" style="stroke:#8B0000;stroke-width:1;"/><path d="M1137.9558,633.9718 L1137.9558,634.0652 L1135.9558,633.7877 L1133.9558,634.0577 L1131.9558,634.1494 L1129.9558,633.6547 L1127.9558,633.9718 " fill="#8B0000" style="stroke:#8B0000;stroke-width:4;"/><path d="M1127.9558,633.9718 L1128.0492,633.9718 L1127.7716,642.0978 L1128.0417,650.2237 L1128.1334,658.3497 L1127.6387,666.4757 L1127.9558,674.6016 " fill="#8B0000" style="stroke:#8B0000;stroke-width:4;"/><polygon fill="#8B0000" points="1123.9558,664.6016,1124.0208,664.6277,1124.6276,666.5504,1125.6156,668.6256,1126.4795,670.6511,1126.935,672.5133,1127.9558,674.6016,1127.9317,674.592,1128.6238,672.5488,1129.4371,670.5542,1130.3347,668.5932,1130.9418,666.5161,1131.9558,664.6016,1132.0863,664.7321,1131.0072,665.2531,1130.3092,666.155,1129.6576,667.1035,1128.7356,667.7814,1127.9558,668.6016,1127.9719,668.6177,1127.1483,667.7941,1126.3979,667.0437,1125.6122,666.258,1124.8938,665.5397,1123.9558,664.6016" style="stroke:#8B0000;stroke-width:1;"/><path d="M1523.4143,633.9718 L1523.4143,634.0652 L1525.4143,633.7877 L1527.4143,634.0577 L1529.4143,634.1494 L1531.4143,633.6547 L1533.4143,633.9718 " fill="#8B0000" style="stroke:#8B0000;stroke-width:4;"/><path d="M1533.4143,633.9718 L1533.5078,633.9718 L1533.2302,642.0978 L1533.5002,650.2237 L1533.592,658.3497 L1533.0973,666.4757 L1533.4143,674.6016 " fill="#8B0000" style="stroke:#8B0000;stroke-width:4;"/><polygon fill="#8B0000" points="1529.4143,664.6016,1529.4794,664.6277,1530.0861,666.5504,1531.0742,668.6256,1531.938,670.6511,1532.3936,672.5133,1533.4143,674.6016,1533.3903,674.592,1534.0823,672.5488,1534.8957,670.5542,1535.7933,668.5932,1536.4004,666.5161,1537.4143,664.6016,1537.5448,664.7321,1536.4658,665.2531,1535.7677,666.155,1535.1162,667.1035,1534.1941,667.7814,1533.4143,668.6016,1533.4304,668.6177,1532.6068,667.7941,1531.8564,667.0437,1531.0707,666.258,1530.3524,665.5397,1529.4143,664.6016" style="stroke:#8B0000;stroke-width:1;"/><path d="M1127.9558,755.8613 L1128.236,755.8613 L1127.4034,765.916 L1128.2135,775.9708 L1128.4887,786.0255 L1127.0046,796.0802 L1127.8522,806.1349 L1127.3871,816.1896 L1127.4445,826.2444 L1127.8649,836.2991 L1127.034,846.3538 L1128.694,856.4085 L1127.1154,866.4633 L1127.6921,876.518 L1128.5317,886.5727 L1127.8414,896.6274 L1128.0468,906.6821 L1127.9132,916.7369 L1128.1938,926.7916 L1128.2746,936.8463 L1128.7367,946.901 L1128.8505,956.9558 L1127.9558,967.0105 " fill="#8B0000" style="stroke:#8B0000;stroke-width:4;"/><path d="M1127.9558,967.0105 L1127.9558,967.2907 L1137.9942,966.458 L1148.0326,967.2682 L1158.0709,967.5434 L1168.1093,966.0593 L1178.1477,966.9069 L1188.1861,966.4418 L1198.2245,966.4991 L1208.2629,966.9196 L1218.3012,966.0886 L1228.3396,967.7487 L1238.378,966.1701 L1248.4164,966.7468 L1258.4548,967.5864 L1268.4932,966.8961 L1278.5315,967.1015 L1288.5699,966.9679 L1298.6083,967.2485 L1308.6467,967.3293 L1318.6851,967.0105 " fill="#8B0000" style="stroke:#8B0000;stroke-width:4;"/><polygon fill="#8B0000" points="1308.6851,963.0105,1308.7111,963.0755,1310.6338,963.6822,1312.709,964.6703,1314.7345,965.5342,1316.5968,965.9897,1318.6851,967.0105,1318.6754,966.9864,1316.6323,967.6785,1314.6376,968.4918,1312.6766,969.3894,1310.5995,969.9965,1308.6851,971.0105,1308.8156,971.141,1309.3365,970.0619,1310.2385,969.3639,1311.1869,968.7123,1311.8648,967.7903,1312.6851,967.0105,1312.7012,967.0266,1311.8775,966.2029,1311.1271,965.4526,1310.3414,964.6668,1309.6231,963.9485,1308.6851,963.0105" style="stroke:#8B0000;stroke-width:1;"/><path d="M1533.4143,949.0105 L1533.5078,949.0105 L1533.2302,952.6105 L1533.5002,956.2105 L1533.592,959.8105 L1533.0973,963.4105 L1533.4143,967.0105 " fill="#8B0000" style="stroke:#8B0000;stroke-width:4;"/><path d="M1533.4143,967.0105 L1533.4143,967.2907 L1523.376,966.458 L1513.3376,967.2682 L1503.2992,967.5434 L1493.2608,966.0593 L1483.2224,966.9069 L1473.184,966.4418 L1463.1457,966.4991 L1453.1073,966.9196 L1443.0689,966.0886 L1433.0305,967.7487 L1422.9921,966.1701 L1412.9537,966.7468 L1402.9154,967.5864 L1392.877,966.8961 L1382.8386,967.1015 L1372.8002,966.9679 L1362.7618,967.2485 L1352.7234,967.3293 L1342.6851,967.0105 " fill="#8B0000" style="stroke:#8B0000;stroke-width:4;"/><polygon fill="#8B0000" points="1352.6851,963.0105,1352.7111,963.0755,1350.6338,963.6822,1348.709,964.6703,1346.7345,965.5342,1344.5968,965.9897,1342.6851,967.0105,1342.6754,966.9864,1344.6323,967.6785,1346.6376,968.4918,1348.6766,969.3894,1350.5995,969.9965,1352.6851,971.0105,1352.8156,971.141,1351.7365,970.0619,1351.0385,969.3639,1350.3869,968.7123,1349.4648,967.7903,1348.6851,967.0105,1348.7012,967.0266,1349.4775,966.2029,1350.3271,965.4526,1351.1414,964.6668,1352.0231,963.9485,1352.6851,963.0105" style="stroke:#8B0000;stroke-width:1;"/><path d="M872.9878,547.3972 L872.9878,547.6775 L862.5543,546.8448 L852.1209,547.6549 L841.6874,547.9301 L831.2539,546.446 L820.8205,547.2936 L810.387,546.8286 L799.9536,547.3972 " fill="#8B0000" style="stroke:#8B0000;stroke-width:4;"/><path d="M799.9536,547.3972 L800.2338,547.3972 L799.4011,556.7214 L800.2113,566.0455 L800.4865,575.3696 L799.0024,584.6937 L799.8499,594.0179 L799.9536,603.342 " fill="#8B0000" style="stroke:#8B0000;stroke-width:4;"/><polygon fill="#8B0000" points="795.9536,593.342,796.0186,593.368,796.6253,595.2907,797.6134,597.3659,798.4773,599.3915,798.9328,601.2537,799.9536,603.342,799.9295,603.3324,800.6216,601.2892,801.4349,599.2945,802.3325,597.3335,802.9396,595.2564,803.9536,593.342,804.0841,593.4725,803.005,593.9934,802.3069,594.8954,801.6554,595.8438,800.7333,596.5218,799.9536,597.342,799.9696,597.3581,799.146,596.5344,798.3956,595.7841,797.6099,594.9983,796.8916,594.28,795.9536,593.342" style="stroke:#8B0000;stroke-width:1;"/><path d="M1257.6508,547.3972 L1257.6508,547.6775 L1268.0843,546.8448 L1278.5178,547.6549 L1288.9512,547.9301 L1299.3847,546.446 L1309.8181,547.2936 L1320.2516,546.8286 L1330.6851,547.3972 " fill="#8B0000" style="stroke:#8B0000;stroke-width:4;"/><path d="M1330.6851,547.3972 L1330.9653,547.3972 L1330.1326,556.7214 L1330.9428,566.0455 L1331.218,575.3696 L1329.7339,584.6937 L1330.5814,594.0179 L1330.6851,603.342 " fill="#8B0000" style="stroke:#8B0000;stroke-width:4;"/><polygon fill="#8B0000" points="1326.6851,593.342,1326.7501,593.368,1327.3568,595.2907,1328.3449,597.3659,1329.2088,599.3915,1329.6643,601.2537,1330.6851,603.342,1330.661,603.3324,1331.3531,601.2892,1332.1664,599.2945,1333.064,597.3335,1333.6711,595.2564,1334.6851,593.342,1334.8156,593.4725,1333.7365,593.9934,1333.0385,594.8954,1332.3869,595.8438,1331.4648,596.5218,1330.6851,597.342,1330.7012,597.3581,1329.8775,596.5344,1329.1271,595.7841,1328.3414,594.9983,1327.6231,594.28,1326.6851,593.342" style="stroke:#8B0000;stroke-width:1;"/><path d="M799.9536,684.6016 L800.2338,684.6016 L799.4011,694.6793 L800.2113,704.7571 L800.4865,714.8348 L799.0024,724.9125 L799.8499,734.9902 L799.3849,745.0679 L799.4422,755.1456 L799.8627,765.2233 L799.0317,775.301 L800.6917,785.3787 L799.1132,795.4564 L799.6899,805.5341 L800.5295,815.6118 L799.8392,825.6895 L800.0445,835.7672 L799.911,845.8449 L800.1916,855.9226 L800.2724,866.0003 L800.7345,876.078 L800.8483,886.1557 L800.8592,896.2334 L800.2931,906.3111 L800.5717,916.3888 L800.8899,926.4665 L798.992,936.5442 L800.8582,946.622 L799.5582,956.6997 L800.6653,966.7774 L799.2935,976.8551 L799.8622,986.9328 L799.9536,997.0105 " fill="#8B0000" style="stroke:#8B0000;stroke-width:4;"/><path d="M799.9536,997.0105 L799.9536,997.2907 L810.0882,996.458 L820.2228,997.2682 L830.3575,997.5434 L840.4921,996.0593 L850.6267,996.9069 L860.7613,996.4418 L870.896,996.4991 L881.0306,996.9196 L891.1652,996.0886 L901.2999,997.7487 L911.4345,996.1701 L921.5691,996.7468 L931.7038,997.5864 L941.8384,996.8961 L951.973,997.1015 L962.1076,996.9679 L972.2423,997.2485 L982.3769,997.3293 L992.5115,997.7914 L1002.6462,997.9052 L1012.7808,997.9162 L1022.9154,997.35 L1033.0501,997.6286 L1043.1847,997.9468 L1053.3193,997.0105 " fill="#8B0000" style="stroke:#8B0000;stroke-width:4;"/><polygon fill="#8B0000" points="1043.3193,993.0105,1043.3453,993.0755,1045.268,993.6822,1047.3432,994.6703,1049.3688,995.5342,1051.231,995.9897,1053.3193,997.0105,1053.3097,996.9864,1051.2665,997.6785,1049.2718,998.4918,1047.3109,999.3894,1045.2337,999.9965,1043.3193,1001.0105,1043.4498,1001.141,1043.9708,1000.0619,1044.8727,999.3639,1045.8211,998.7123,1046.4991,997.7903,1047.3193,997.0105,1047.3354,997.0266,1046.5118,996.2029,1045.7614,995.4526,1044.9757,994.6668,1044.2574,993.9485,1043.3193,993.0105" style="stroke:#8B0000;stroke-width:1;"/><path d="M1330.6851,979.0105 L1330.7785,979.0105 L1330.5009,982.6105 L1330.771,986.2105 L1330.8627,989.8105 L1330.368,993.4105 L1330.6851,997.0105 " fill="#8B0000" style="stroke:#8B0000;stroke-width:4;"/><path d="M1330.6851,997.0105 L1330.6851,997.2907 L1320.5504,996.458 L1310.4158,997.2682 L1300.2812,997.5434 L1290.1465,996.0593 L1280.0119,996.9069 L1269.8773,996.4418 L1259.7427,996.4991 L1249.608,996.9196 L1239.4734,996.0886 L1229.3388,997.7487 L1219.2041,996.1701 L1209.0695,996.7468 L1198.9349,997.5864 L1188.8002,996.8961 L1178.6656,997.1015 L1168.531,996.9679 L1158.3964,997.2485 L1148.2617,997.3293 L1138.1271,997.7914 L1127.9925,997.9052 L1117.8578,997.9162 L1107.7232,997.35 L1097.5886,997.6286 L1087.4539,997.9468 L1077.3193,997.0105 " fill="#8B0000" style="stroke:#8B0000;stroke-width:4;"/><polygon fill="#8B0000" points="1087.3193,993.0105,1087.3453,993.0755,1085.268,993.6822,1083.3432,994.6703,1081.3688,995.5342,1079.231,995.9897,1077.3193,997.0105,1077.3097,996.9864,1079.2665,997.6785,1081.2718,998.4918,1083.3109,999.3894,1085.2337,999.9965,1087.3193,1001.0105,1087.4498,1001.141,1086.3708,1000.0619,1085.6727,999.3639,1085.0211,998.7123,1084.0991,997.7903,1083.3193,997.0105,1083.3354,997.0266,1084.1118,996.2029,1084.9614,995.4526,1085.7757,994.6668,1086.6574,993.9485,1087.3193,993.0105" style="stroke:#8B0000;stroke-width:1;"/><path d="M622.4276,476.1376 L622.4276,476.4178 L612.2379,475.5851 L602.0483,476.3953 L591.8586,476.6705 L581.6689,475.1864 L571.4792,476.0339 L561.2896,475.5689 L551.0999,475.6262 L540.9102,476.0467 L530.7206,475.2157 L520.5309,476.8757 L510.3412,475.2972 L500.1516,475.8739 L489.9619,476.7135 L479.7722,476.0232 L469.5826,476.2285 L459.3929,476.095 L449.2032,476.3756 L439.0135,476.4564 L428.8239,476.9185 L418.6342,476.1376 " fill="#8B0000" style="stroke:#8B0000;stroke-width:4;"/><path d="M418.6342,476.1376 L418.7276,476.1376 L418.4501,481.2005 L418.7201,486.2635 L418.8118,491.3265 L418.3171,496.3895 L418.6342,501.4525 " fill="#8B0000" style="stroke:#8B0000;stroke-width:4;"/><polygon fill="#8B0000" points="414.6342,491.4525,414.6993,491.4785,415.306,493.4012,416.294,495.4764,417.1579,497.502,417.6134,499.3642,418.6342,501.4525,418.6102,501.4429,419.3022,499.3997,420.1155,497.405,421.0131,495.444,421.6202,493.3669,422.6342,491.4525,422.7647,491.583,421.6857,492.1039,420.9876,493.0059,420.336,493.9543,419.414,494.6323,418.6342,495.4525,418.6503,495.4686,417.8267,494.6449,417.0763,493.8946,416.2906,493.1088,415.5723,492.3905,414.6342,491.4525" style="stroke:#8B0000;stroke-width:1;"/><path d="M861.5259,476.1376 L861.5259,476.4178 L871.7156,475.5851 L881.9053,476.3953 L892.0949,476.6705 L902.2846,475.1864 L912.4743,476.0339 L922.6639,475.5689 L932.8536,475.6262 L943.0433,476.0467 L953.233,475.2157 L963.4226,476.8757 L973.6123,475.2972 L983.802,475.8739 L993.9916,476.7135 L1004.1813,476.0232 L1014.371,476.2285 L1024.5606,476.095 L1034.7503,476.3756 L1044.94,476.4564 L1055.1296,476.9185 L1065.3193,476.1376 " fill="#8B0000" style="stroke:#8B0000;stroke-width:4;"/><path d="M1065.3193,476.1376 L1065.4127,476.1376 L1065.1352,481.2005 L1065.4052,486.2635 L1065.4969,491.3265 L1065.0022,496.3895 L1065.3193,501.4525 " fill="#8B0000" style="stroke:#8B0000;stroke-width:4;"/><polygon fill="#8B0000" points="1061.3193,491.4525,1061.3844,491.4785,1061.9911,493.4012,1062.9791,495.4764,1063.843,497.502,1064.2985,499.3642,1065.3193,501.4525,1065.2953,501.4429,1065.9873,499.3997,1066.8006,497.405,1067.6982,495.444,1068.3053,493.3669,1069.3193,491.4525,1069.4498,491.583,1068.3708,492.1039,1067.6727,493.0059,1067.0211,493.9543,1066.0991,494.6323,1065.3193,495.4525,1065.3354,495.4686,1064.5118,494.6449,1063.7614,493.8946,1062.9757,493.1088,1062.2574,492.3905,1061.3193,491.4525" style="stroke:#8B0000;stroke-width:1;"/><path d="M418.6342,552.0823 L418.9145,552.0823 L418.0818,562.1872 L418.8919,572.292 L419.1671,582.3969 L417.683,592.5017 L418.5306,602.6066 L418.0656,612.7114 L418.1229,622.8163 L418.5433,632.9211 L417.7124,643.026 L419.3724,653.1309 L417.7938,663.2357 L418.3705,673.3406 L419.2101,683.4454 L418.5198,693.5503 L418.7252,703.6551 L418.5916,713.76 L418.8722,723.8648 L418.9531,733.9697 L419.4151,744.0745 L419.5289,754.1794 L419.5399,764.2843 L418.9737,774.3891 L419.2523,784.494 L419.5705,794.5988 L417.6726,804.7037 L419.5389,814.8085 L418.2389,824.9134 L419.346,835.0182 L417.9742,845.1231 L418.5429,855.2279 L419.623,865.3328 L418.5692,875.4377 L418.7746,885.5425 L419.0857,895.6474 L419.1892,905.7522 L418.629,915.8571 L419.0172,925.9619 L417.871,936.0668 L419.0134,946.1716 L419.3651,956.2765 L419.2269,966.3813 L419.4516,976.4862 L417.9901,986.5911 L417.7646,996.6959 L417.8057,1006.8008 L418.5557,1016.9056 L418.6342,1027.0105 " fill="#8B0000" style="stroke:#8B0000;stroke-width:4;"/><path d="M418.6342,1027.0105 L418.6342,1027.2907 L428.6775,1026.458 L438.7208,1027.2682 L448.7641,1027.5434 L458.8074,1026.0593 L468.8507,1026.9069 L478.8941,1026.4418 L488.9374,1026.4991 L498.9807,1026.9196 L509.024,1026.0886 L519.0673,1027.7487 L529.1106,1026.1701 L539.1539,1026.7468 L549.1972,1027.5864 L559.2405,1026.8961 L569.2838,1027.1015 L579.3271,1026.9679 L589.3704,1027.2485 L599.4138,1027.3293 L609.4571,1027.7914 L619.5004,1027.9052 L629.5437,1027.9162 L639.587,1027.35 L649.6303,1027.6286 L659.6736,1027.9468 L669.7169,1026.0489 L679.7602,1027.9152 L689.8035,1026.6151 L699.8468,1027.7222 L709.8901,1026.3504 L719.9335,1026.9191 L729.9768,1027.0105 " fill="#8B0000" style="stroke:#8B0000;stroke-width:4;"/><polygon fill="#8B0000" points="719.9768,1023.0105,720.0028,1023.0755,721.9255,1023.6822,724.0007,1024.6703,726.0262,1025.5342,727.8884,1025.9897,729.9768,1027.0105,729.9671,1026.9864,727.924,1027.6785,725.9293,1028.4918,723.9683,1029.3894,721.8912,1029.9965,719.9768,1031.0105,720.1073,1031.141,720.6282,1030.0619,721.5301,1029.3639,722.4786,1028.7123,723.1565,1027.7903,723.9768,1027.0105,723.9928,1027.0266,723.1692,1026.2029,722.4188,1025.4526,721.6331,1024.6668,720.9148,1023.9485,719.9768,1023.0105" style="stroke:#8B0000;stroke-width:1;"/><path d="M1065.3193,1009.0105 L1065.4127,1009.0105 L1065.1352,1012.6105 L1065.4052,1016.2105 L1065.4969,1019.8105 L1065.0022,1023.4105 L1065.3193,1027.0105 " fill="#8B0000" style="stroke:#8B0000;stroke-width:4;"/><path d="M1065.3193,1027.0105 L1065.3193,1027.2907 L1055.276,1026.458 L1045.2327,1027.2682 L1035.1894,1027.5434 L1025.1461,1026.0593 L1015.1028,1026.9069 L1005.0595,1026.4418 L995.0162,1026.4991 L984.9728,1026.9196 L974.9295,1026.0886 L964.8862,1027.7487 L954.8429,1026.1701 L944.7996,1026.7468 L934.7563,1027.5864 L924.713,1026.8961 L914.6697,1027.1015 L904.6264,1026.9679 L894.5831,1027.2485 L884.5398,1027.3293 L874.4965,1027.7914 L864.4532,1027.9052 L854.4098,1027.9162 L844.3665,1027.35 L834.3232,1027.6286 L824.2799,1027.9468 L814.2366,1026.0489 L804.1933,1027.9152 L794.15,1026.6151 L784.1067,1027.7222 L774.0634,1026.3504 L764.0201,1026.9191 L753.9768,1027.0105 " fill="#8B0000" style="stroke:#8B0000;stroke-width:4;"/><polygon fill="#8B0000" points="763.9768,1023.0105,764.0028,1023.0755,761.9255,1023.6822,760.0007,1024.6703,758.0262,1025.5342,755.8884,1025.9897,753.9768,1027.0105,753.9671,1026.9864,755.924,1027.6785,757.9293,1028.4918,759.9683,1029.3894,761.8912,1029.9965,763.9768,1031.0105,764.1073,1031.141,763.0282,1030.0619,762.3301,1029.3639,761.6786,1028.7123,760.7565,1027.7903,759.9768,1027.0105,759.9928,1027.0266,760.7692,1026.2029,761.6188,1025.4526,762.4331,1024.6668,763.3148,1023.9485,763.9768,1023.0105" style="stroke:#8B0000;stroke-width:1;"/><path d="M741.9768,389.274 L742.257,389.274 L741.4243,399.4953 L742.2345,409.7165 L742.5097,419.9377 L741.0256,430.159 L741.8731,440.3802 L741.4081,450.6014 L741.9768,460.8226 " fill="#8B0000" style="stroke:#8B0000;stroke-width:4;"/><polygon fill="#8B0000" points="737.9768,450.8226,738.0418,450.8487,738.6485,452.7714,739.6366,454.8466,740.5005,456.8721,740.956,458.7343,741.9768,460.8226,741.9527,460.813,742.6448,458.7698,743.4581,456.7752,744.3557,454.8142,744.9628,452.7371,745.9768,450.8226,746.1073,450.9531,745.0282,451.4741,744.3301,452.376,743.6786,453.3245,742.7565,454.0024,741.9768,454.8226,741.9928,454.8387,741.1692,454.0151,740.4188,453.2647,739.6331,452.479,738.9148,451.7607,737.9768,450.8226" style="stroke:#8B0000;stroke-width:1;"/><!--SRC=[bLD1Rjim4Bph5PjJR0Dsx_OX29mK29gcHTEY5m458wub8jHI9LTsbDTtACjfqfpgYoHwTsPsPdaMEdL1g35Y3z6fif36deip9vNlBVzgZGoqMdsmHiqI7wRcbaMNIGVFAttIeb2ddjTqXGhohc99JkeYgOduS_tHYILjc382HLStcYWSX6CfiofqmtXqFA4GAN8NEO72gDlpV5D8K3xshUako5AZsplZIV8xLusuolXIkXWgJgbO_mpnaGvEc_UCf85wiHmX3gfCbJiel_PfuaZ_JGX6ECU08JPfo1oHZPsiu4rnJgyHjw7tbhv_0hIYuaX_QnxO9zg5s08Onb7OqSbDlYY5FflX0HoLaabKUGF1wU8erVCEk3TwdiYrNOYOJRCA6we-PrNAcq6H85L1D1edcafnagMZqu_9chmGI-4U1PuEPW3vtz_Yvew-t5tJrzlBxVMYS3kQOK62018W43NFMGlD1axpWcZz8utEX0w7aumNOmhCp3IJiA7BNfiGtVF8JlVA7NtZtxsBR3DCvjcYxt6fJUp9r97vEDeOj79iKruUGmamIkXyncI9M49VD_-8WgmfCZZv0XgmaBcF7apYL_4HdMGUUxCM23oOQCUXlKjA2tv2DdvOG54JiegSScFsF4tzJW948DJ7x4ufbqTdjZcMuEaMaB0d5xtbFdLUSN8r31qt9WyUW0xzBTRJOEusvsywhEYUotndnwHdzw45t_X5RLx7Kh1Kk6_BgTREDoUA6uiojnl8SkLIJgM5sZXByr80NiUyPPD9k3IJMh5kLvoUnVJu0m00]--></g></svg>