<?xml version="1.0" encoding="us-ascii" standalone="no"?><svg xmlns="http://www.w3.org/2000/svg" xmlns:xlink="http://www.w3.org/1999/xlink" contentStyleType="text/css" height="1070px" preserveAspectRatio="none" style="width:1756px;height:1070px;background:#FFFFFF;" version="1.1" viewBox="0 0 1756 1070" width="1756px" zoomAndPan="magnify"><defs/><g><text fill="#000000" font-family="Chalkduster" font-size="42" font-weight="bold" lengthAdjust="spacing" textLength="345" x="704.1875" y="61.7215">Data licensing</text><polygon fill="#222222" points="780.5552,97.0346,779.0894,99.0375,777.3556,101.971,774.876,103.948,772.2703,105.0291,770.1927,105.123,767.5224,103.7709,765.0029,102.8876,763.0905,101.0942,762.0873,99.0411,761.4924,97.4063,760.9096,95.271,759.9636,93.4335,760.6906,91.6395,761.3275,89.6742,763.7175,88.1199,765.3991,86.1032,767.4804,85.4335,769.9547,84.8568,773.1276,85.1995,774.8655,86.0191,776.8861,86.3906,779.3429,88.9076,780.1993,91.5649,780.5714,93.378,780.15,96.3657" style="stroke:#222222;stroke-width:1.0;"/><path d="M1046.5,129.6022 L1046.6868,129.6022 L1046.1317,135.9282 L1046.6718,142.2541 L1046.8553,148.5801 L1045.8659,154.9061 L1046.5,161.232 L1046.4865,161.1643 L1042.4257,161.6603 L1038.4331,162.4978 L1034.4881,163.5726 L1030.3795,163.8294 L1026.5,165.232 L1026.5965,165.7146 L1030.3901,165.4827 L1034.4655,166.6597 L1038.5753,168.0085 L1042.485,168.3573 L1046.5,169.232 L1046.5607,169.232 L1046.4716,175.558 L1046.6587,181.884 L1046.7126,188.2099 L1047.0206,194.5359 L1046.5,200.8619 L1046.5,200.8619 L1046.5,202.6514 L1056.4737,202.6732 L1066.4474,201.5409 L1076.4211,202.0981 L1086.3947,202.7345 L1096.3684,198.9387 L1106.3421,202.6712 L1116.3158,200.0712 L1126.2895,202.2854 L1136.2632,199.5418 L1146.2368,200.6792 L1156.2105,202.8395 L1166.1842,200.7319 L1176.1579,201.1427 L1186.1316,201.7649 L1196.1053,201.9718 L1206.0789,200.8515 L1216.0526,201.6278 L1226.0263,199.3354 L1236,201.6202 L1245.9737,202.3237 L1255.9474,202.0473 L1265.9211,202.4966 L1275.8947,199.5737 L1285.8684,199.1227 L1295.8421,199.2048 L1305.8158,200.7049 L1315.7895,200.3378 L1325.7632,202.679 L1335.7368,200.3961 L1345.7105,199.9471 L1355.6842,201.4706 L1365.6579,199.0836 L1375.6316,199.4775 L1385.6053,202.5924 L1395.5789,202.0237 L1405.5526,202.8205 L1415.5263,200.0038 L1425.5,200.8619 L1425.5,200.8619 L1426.3512,200.8619 L1427.0745,190.6519 L1424.2403,180.442 L1425.2444,170.232 L1425.836,160.0221 L1427.238,149.8122 L1425.5,139.6022 L1425.4974,139.5996 L1423.7907,137.893 L1421.1519,135.2541 L1419.0743,133.1765 L1417.8165,131.9188 L1415.5,129.6022 L1415.5,127.6904 L1405.527,130.9594 L1395.5541,130.1532 L1385.5811,128.8878 L1375.6081,128.6588 L1365.6351,130.8256 L1355.6622,128.804 L1345.6892,131.1805 L1335.7162,128.1282 L1325.7432,131.2487 L1315.7703,130.8937 L1305.7973,130.2555 L1295.8243,129.7281 L1285.8514,131.5398 L1275.8784,131.2384 L1265.9054,130.0536 L1255.9324,130.3174 L1245.9595,129.2548 L1235.9865,131.5127 L1226.0135,130.0152 L1216.0405,130.0624 L1206.0676,127.9799 L1196.0946,128.5216 L1186.1216,131.0175 L1176.1486,130.7482 L1166.1757,129.4877 L1156.2027,128.7431 L1146.2297,129.0184 L1136.2568,127.7724 L1126.2838,130.7082 L1116.3108,131.5744 L1106.3378,131.0059 L1096.3649,131.4554 L1086.3919,129.2376 L1076.4189,129.8348 L1066.4459,128.5686 L1056.473,130.3597 L1046.5,129.6022 L1046.5,129.6022 " fill="#FFFFE0" style="stroke:#181818;stroke-width:4.0;"/><path d="M1415.5,129.6022 L1415.6868,129.6022 L1415.1317,131.6022 L1415.6718,133.6022 L1415.8553,135.6022 L1414.8659,137.6022 L1415.5,139.6022 L1415.5,139.5331 L1417.5,139.2231 L1419.5,139.2613 L1421.5,139.5416 L1423.5,138.9877 L1425.5,139.6022 L1425.848,139.9502 L1423.1038,137.2061 L1421.3757,135.4779 L1419.7715,133.8737 L1417.4461,131.5483 L1415.5,129.6022 " fill="#FFFFE0" style="stroke:#181818;stroke-width:4.0;"/><text fill="#000000" font-family="Chalkduster" font-size="24" lengthAdjust="spacing" textLength="358" x="1052.5" y="158.4431">Non-trivial non-technical</text><text fill="#000000" font-family="Chalkduster" font-size="24" lengthAdjust="spacing" textLength="99" x="1052.5" y="189.0729">process</text><polygon fill="#F1F1F1" points="527,124.6022,527,124.8124,536.9388,124.1879,546.8776,124.7955,556.8163,125.0019,566.7551,123.8888,576.6939,124.5245,586.6327,124.1757,596.5714,124.2187,606.5102,124.5341,616.449,123.9108,626.3878,125.1559,636.3265,123.9719,646.2653,124.4044,656.2041,125.0342,666.1429,124.5164,676.0816,124.6704,686.0204,124.5703,695.9592,124.7807,705.898,124.8413,715.8367,125.1879,725.7755,125.2733,735.7143,125.2815,745.6531,124.8568,755.5918,125.0658,765.5306,125.3044,775.4694,123.881,785.4082,125.2807,795.3469,124.3057,805.2857,125.136,815.2245,124.1072,825.1633,124.5337,835.102,125.3438,845.0408,124.5535,854.9796,124.7075,864.9184,124.9408,874.8571,125.0184,884.7959,124.5983,894.7347,124.8894,904.6735,124.0298,914.6122,124.8866,924.551,125.1504,934.4898,125.0467,944.4286,125.2152,954.3673,124.1191,964.3061,123.95,974.2449,123.9808,984.1837,124.5433,994.1224,124.4057,1004.0612,125.2836,1014,124.6022,1013.9777,124.5484,1015.724,125.2288,1017.5647,126.137,1019.2182,126.5936,1021.0048,127.3713,1022.8388,128.2634,1023.0387,128.3462,1023.7052,130.0867,1024.5295,131.8926,1024.9364,133.5256,1025.8661,135.3752,1026.5,137.1022,1027.0904,137.1022,1026.0276,146.4788,1026.4041,155.8554,1026.626,165.232,1027.1518,174.6087,1026.4958,183.9853,1026.5,193.3619,1026.6425,193.4209,1025.5972,195.059,1024.827,196.811,1024.4584,198.7294,1023.3503,200.3415,1022.8388,202.2007,1022.9038,202.3575,1021.0974,202.9966,1019.2691,203.5827,1017.4904,204.2885,1015.8263,205.2709,1014,205.8619,1014,205.5625,1004.0612,206.4537,994.1224,205.3091,984.1837,206.4793,974.2449,206.3462,964.3061,206.1068,954.3673,205.9091,944.4286,206.5885,934.4898,206.4755,924.551,206.0311,914.6122,206.1301,904.6735,205.7316,894.7347,206.5783,884.7959,206.0167,874.8571,206.0345,864.9184,205.2535,854.9796,205.4567,845.0408,206.3926,835.102,206.2916,825.1633,205.8189,815.2245,205.5397,805.2857,205.6429,795.3469,205.1757,785.4082,206.2766,775.4694,206.6014,765.5306,206.3883,755.5918,206.5568,745.6531,205.7252,735.7143,205.9491,725.7755,205.4743,715.8367,206.1459,705.898,206.1086,695.9592,206.4143,686.0204,205.6322,676.0816,205.7275,666.1429,206.3053,656.2041,206.4292,646.2653,205.3493,636.3265,205.668,626.3878,206.0111,616.449,205.251,606.5102,206.2153,596.5714,206.1199,586.6327,205.7611,576.6939,206.0041,566.7551,206.5906,556.8163,205.549,546.8776,206.1769,536.9388,206.1475,527,205.8619,527.0148,205.8975,525.2502,205.173,523.4789,204.4324,521.6171,203.473,519.8778,202.8095,518.1612,202.2007,518.019,202.1418,517.4486,200.4411,516.7238,198.6764,516.0143,196.918,515.1426,195.0925,514.5,193.3619,514.4325,193.3619,514.3798,183.9853,515.0769,174.6087,514.9266,165.232,514.0145,155.8554,514.4271,146.4788,514.5,137.1022,514.3222,137.0286,515.321,135.3712,516.1519,133.6443,516.8644,131.8684,517.2948,129.9756,518.1612,128.2634,518.2203,128.4063,519.8342,127.3024,521.7222,126.8605,523.4263,125.9745,525.2446,125.3642,527,124.6022" style="stroke:#181818;stroke-width:0.5;"/><text fill="#000000" font-family="Chalkduster" font-size="24" lengthAdjust="spacing" textLength="312" x="524.5" y="158.4431">Find the data steward</text><text fill="#000000" font-family="Chalkduster" font-size="24" lengthAdjust="spacing" textLength="492" x="524.5" y="189.0729">(copyright owner or representative)</text><path d="M1225.5,216.1508 L1225.6868,216.1508 L1225.1317,222.4768 L1225.6718,228.8028 L1225.8553,235.1287 L1224.8659,241.4547 L1225.5,247.7807 L1225.4865,247.7129 L1221.4257,248.2089 L1217.4331,249.0464 L1213.4881,250.1213 L1209.3795,250.378 L1205.5,251.7807 L1205.5965,252.2632 L1209.3901,252.0313 L1213.4655,253.2083 L1217.5753,254.5572 L1221.485,254.9059 L1225.5,255.7807 L1225.5607,255.7807 L1225.4716,262.1066 L1225.6587,268.4326 L1225.7126,274.7586 L1226.0206,281.0845 L1225.5,287.4105 L1225.5,287.4105 L1225.5,289.2 L1235.4737,289.2218 L1245.4474,288.0895 L1255.4211,288.6467 L1265.3947,289.2831 L1275.3684,285.4873 L1285.3421,289.2199 L1295.3158,286.6198 L1305.2895,288.834 L1315.2632,286.0904 L1325.2368,287.2278 L1335.2105,289.3881 L1345.1842,287.2805 L1355.1579,287.6913 L1365.1316,288.3135 L1375.1053,288.5204 L1385.0789,287.4001 L1395.0526,288.1764 L1405.0263,285.884 L1415,288.1689 L1424.9737,288.8723 L1434.9474,288.5959 L1444.9211,289.0452 L1454.8947,286.1223 L1464.8684,285.6713 L1474.8421,285.7534 L1484.8158,287.2535 L1494.7895,286.8864 L1504.7632,289.2276 L1514.7368,286.9447 L1524.7105,286.4957 L1534.6842,288.0192 L1544.6579,285.6323 L1554.6316,286.0262 L1564.6053,289.141 L1574.5789,288.5723 L1584.5526,289.3691 L1594.5263,286.5524 L1604.5,287.4105 L1604.5,287.4105 L1605.3512,287.4105 L1606.0745,277.2005 L1603.2403,266.9906 L1604.2444,256.7807 L1604.836,246.5707 L1606.238,236.3608 L1604.5,226.1508 L1604.4974,226.1482 L1602.7907,224.4416 L1600.1519,221.8028 L1598.0743,219.7251 L1596.8165,218.4674 L1594.5,216.1508 L1594.5,214.239 L1584.527,217.5081 L1574.5541,216.7018 L1564.5811,215.4364 L1554.6081,215.2074 L1544.6351,217.3742 L1534.6622,215.3526 L1524.6892,217.7291 L1514.7162,214.6768 L1504.7432,217.7973 L1494.7703,217.4423 L1484.7973,216.8041 L1474.8243,216.2767 L1464.8514,218.0885 L1454.8784,217.787 L1444.9054,216.6022 L1434.9324,216.866 L1424.9595,215.8035 L1414.9865,218.0614 L1405.0135,216.5638 L1395.0405,216.611 L1385.0676,214.5286 L1375.0946,215.0702 L1365.1216,217.5662 L1355.1486,217.2969 L1345.1757,216.0363 L1335.2027,215.2917 L1325.2297,215.567 L1315.2568,214.321 L1305.2838,217.2568 L1295.3108,218.123 L1285.3378,217.5545 L1275.3649,218.004 L1265.3919,215.7862 L1255.4189,216.3834 L1245.4459,215.1172 L1235.473,216.9083 L1225.5,216.1508 L1225.5,216.1508 " fill="#FFFFE0" style="stroke:#181818;stroke-width:4.0;"/><path d="M1594.5,216.1508 L1594.6868,216.1508 L1594.1317,218.1508 L1594.6718,220.1508 L1594.8553,222.1508 L1593.8659,224.1508 L1594.5,226.1508 L1594.5,226.0817 L1596.5,225.7717 L1598.5,225.8099 L1600.5,226.0902 L1602.5,225.5363 L1604.5,226.1508 L1604.848,226.4988 L1602.1038,223.7547 L1600.3757,222.0265 L1598.7715,220.4223 L1596.4461,218.0969 L1594.5,216.1508 " fill="#FFFFE0" style="stroke:#181818;stroke-width:4.0;"/><text fill="#000000" font-family="Chalkduster" font-size="24" lengthAdjust="spacing" textLength="358" x="1231.5" y="244.9917">Non-trivial non-technical</text><text fill="#000000" font-family="Chalkduster" font-size="24" lengthAdjust="spacing" textLength="99" x="1231.5" y="275.6215">process</text><polygon fill="#F1F1F1" points="348,226.4657,348,226.6759,357.9412,226.0514,367.8824,226.659,377.8235,226.8654,387.7647,225.7523,397.7059,226.388,407.6471,226.0393,417.5882,226.0822,427.5294,226.3976,437.4706,225.7744,447.4118,227.0194,457.3529,225.8355,467.2941,226.268,477.2353,226.8977,487.1765,226.38,497.1176,226.534,507.0588,226.4338,517,226.6443,526.9412,226.7049,536.8824,227.0514,546.8235,227.1368,556.7647,227.145,566.7059,226.7204,576.6471,226.9293,586.5882,227.168,596.5294,225.7446,606.4706,227.1443,616.4118,226.1692,626.3529,226.9996,636.2941,225.9707,646.2353,226.3972,656.1765,227.2073,666.1176,226.417,676.0588,226.571,686,226.8044,695.9412,226.882,705.8824,226.4618,715.8235,226.753,725.7647,225.8933,735.7059,226.7501,745.6471,227.0139,755.5882,226.9103,765.5294,227.0788,775.4706,225.9827,785.4118,225.8136,795.3529,225.8443,805.2941,226.4069,815.2353,226.2692,825.1765,227.1472,835.1176,226.2911,845.0588,226.1227,855,226.694,864.9412,225.7989,874.8824,225.9466,884.8235,227.1147,894.7647,226.9014,904.7059,227.2002,914.6471,226.1439,924.5882,226.7849,934.5294,227.0562,944.4706,225.9933,954.4118,226.3699,964.3529,226.5917,974.2941,227.1175,984.2353,226.4616,994.1765,226.9283,1004.1176,225.912,1014.0588,225.7885,1024,226.9694,1033.9412,225.7488,1043.8824,226.9747,1053.8235,226.6724,1063.7647,226.1978,1073.7059,226.112,1083.6471,226.9245,1093.5882,226.1664,1103.5294,227.0576,1113.4706,225.913,1123.4118,227.0832,1133.3529,226.95,1143.2941,226.7107,1153.2353,226.513,1163.1765,227.1924,1173.1176,227.0793,1183.0588,226.635,1193,226.4657,1193.0342,226.5483,1194.7512,227.1579,1196.6269,228.1508,1198.3231,228.7101,1200.0931,229.4478,1201.8388,230.1269,1201.6515,230.0493,1202.4463,231.843,1203.4667,233.7301,1204.1679,235.485,1204.7545,237.1925,1205.5,238.9657,1205.3926,238.9657,1205.427,244.0917,1205.2713,249.2177,1205.6382,254.3436,1205.7465,259.4696,1205.5,264.5956,1205.6621,264.6627,1204.9818,266.452,1203.9934,268.1137,1203.3302,269.91,1202.4517,271.6172,1201.8388,273.4344,1201.8751,273.5219,1200.1025,274.2426,1198.3738,275.069,1196.5062,275.5604,1194.7506,276.322,1193,277.0956,1193,277.539,1183.0588,277.6629,1173.1176,276.583,1163.1765,276.9017,1153.2353,277.2448,1143.2941,276.4847,1133.3529,277.449,1123.4118,277.3536,1113.4706,276.9948,1103.5294,277.2378,1093.5882,277.8243,1083.6471,276.7827,1073.7059,277.4106,1063.7647,277.3812,1053.8235,277.2113,1043.8824,277.2365,1033.9412,277.2091,1024,276.4714,1014.0588,276.6948,1004.1176,276.634,994.1765,277.1594,984.2353,277.1837,974.2941,277.2573,964.3529,276.8046,954.4118,277.0281,944.4706,276.9754,934.5294,277.6724,924.5882,277.5221,914.6471,276.61,904.7059,277.0227,894.7647,276.5183,884.8235,277.384,874.8824,277.7041,864.9412,277.6401,855,276.66,845.0588,277.5595,835.1176,276.3528,825.1765,277.2957,815.2353,276.7963,805.2941,277.1923,795.3529,277.3359,785.4118,277.5677,775.4706,276.3757,765.5294,277.5711,755.5882,277.2738,745.6471,277.4509,735.7059,277.8434,725.7647,277.1011,715.8235,277.2708,705.8824,277.309,695.9412,277.2928,686,277.0948,676.0588,277.8063,666.1176,276.4858,656.1765,277.6609,646.2353,276.4716,636.2941,276.5553,626.3529,277.1356,616.4118,277.1239,606.4706,276.6027,596.5294,277.5093,586.5882,277.2044,576.6471,277.8222,566.7059,277.7627,556.7647,276.6473,546.8235,276.6977,536.8824,276.9664,526.9412,277.4511,517,277.4986,507.0588,277.3967,497.1176,276.7536,487.1765,277.7319,477.2353,277.7294,467.2941,277.0483,457.3529,276.8565,447.4118,276.6942,437.4706,276.881,427.5294,277.233,417.5882,277.0272,407.6471,276.6778,397.7059,277.583,387.7647,276.6366,377.8235,277.598,367.8824,277.5228,357.9412,277.4674,348,277.0956,348.0883,277.3088,346.2009,276.2876,344.4261,275.5385,342.7629,275.0587,340.8528,273.9828,339.1612,273.4344,339.0891,273.4046,338.4645,271.6814,337.7179,269.9076,336.8541,268.0854,336.219,266.3579,335.5,264.5956,335.7482,264.5956,335.7162,259.4696,335.3012,254.3436,335.5262,249.2177,335.3287,244.0917,335.5,238.9657,335.4919,238.9624,336.3225,237.2354,337.0938,235.4838,337.492,233.5776,338.5523,231.9458,339.1612,230.1269,339.1622,230.1295,340.8581,229.2237,342.6366,228.5174,344.5061,228.0308,346.2641,227.2749,348,226.4657" style="stroke:#181818;stroke-width:0.5;"/><text fill="#000000" font-family="Chalkduster" font-size="24" lengthAdjust="spacing" textLength="850" x="345.5" y="260.3066">Work with data steward to understand access and use rights</text><path d="M20,307.4105 L20.5605,307.4105 L18.8951,317.6043 L20.5154,327.7981 L21.0658,337.9919 L18.0976,348.1857 L19.7928,358.3795 L18.8627,368.5733 L18.9773,378.7671 L19.8182,388.9609 L18.1563,399.1546 L21.4764,409.3484 L18.3193,419.5422 L19.4726,429.736 L20,439.9298 L20,441.0817 L30.02,439.7011 L40.04,440.1118 L50.06,439.8446 L60.08,440.4059 L70.1,440.5675 L80.12,441.4917 L90.14,441.7193 L100.16,441.7412 L110.18,440.6088 L120.2,441.1661 L130.22,441.8024 L140.24,438.0067 L150.26,441.7392 L160.28,439.1392 L170.3,441.3533 L180.32,438.6098 L190.34,439.7472 L200.36,441.9074 L210.38,439.7999 L220.4,440.2106 L230.42,440.8328 L240.44,441.0398 L250.46,439.9194 L260.48,440.6957 L270.5,438.4034 L280.52,440.6882 L290.54,441.3917 L300.56,441.1152 L310.58,441.5646 L320.6,438.6416 L330.62,438.1907 L340.64,438.2728 L350.66,439.7728 L360.68,439.4058 L370.7,441.7469 L380.72,439.464 L390.74,439.015 L400.76,440.5385 L410.78,438.1516 L420.8,438.5455 L430.82,441.6604 L440.84,441.0916 L450.86,441.8885 L460.88,439.0717 L470.9,440.781 L480.92,441.5043 L490.94,438.6701 L500.96,439.6742 L510.98,440.2658 L521,439.9298 L522.738,439.9298 L520.9888,429.7199 L522.2335,419.5099 L519.5232,409.3 L519.194,399.09 L522.343,388.8801 L519.0882,378.6702 L522.3572,368.4602 L521.551,358.2503 L520.2856,348.0403 L520.0566,337.8304 L522.2234,327.6204 L521,317.4105 L520.8119,317.2224 L519.372,315.7825 L516.6526,313.0631 L515.3881,311.7986 L513.3044,309.7149 L511,307.4105 L511,308.0637 L500.9796,307.5364 L490.9592,309.3481 L480.9388,309.0467 L470.9184,307.8618 L460.898,308.1257 L450.8776,307.0631 L440.8571,309.321 L430.8367,307.8235 L420.8163,307.8707 L410.7959,305.7882 L400.7755,306.3299 L390.7551,308.8258 L380.7347,308.5565 L370.7143,307.296 L360.6939,306.5514 L350.6735,306.8267 L340.6531,305.5807 L330.6327,308.5165 L320.6122,309.3827 L310.5918,308.8142 L300.5714,309.2636 L290.551,307.0459 L280.5306,307.6431 L270.5102,306.3769 L260.4898,308.1679 L250.4694,308.0685 L240.449,308.8835 L230.4286,306.7981 L220.4082,307.0521 L210.3878,308.5931 L200.3673,308.9234 L190.3469,306.0437 L180.3265,306.8935 L170.3061,307.8085 L160.2857,305.7816 L150.2653,308.3529 L140.2449,308.0985 L130.2245,307.1418 L120.2041,307.7898 L110.1837,309.3536 L100.1633,306.5762 L90.1429,308.2505 L80.1224,308.1722 L70.102,307.7192 L60.0816,307.7863 L50.0612,307.7131 L40.0408,305.7461 L30.0204,306.3416 L20,307.4105 " fill="#FFFFE0" style="stroke:#181818;stroke-width:4.0;"/><path d="M511,307.4105 L511.1868,307.4105 L510.6317,309.4105 L511.1718,311.4105 L511.3553,313.4105 L510.3659,315.4105 L511,317.4105 L511,317.3414 L513,317.0314 L515,317.0696 L517,317.3499 L519,316.7959 L521,317.4105 L521.348,317.7585 L518.6038,315.0143 L516.8757,313.2862 L515.2715,311.682 L512.9461,309.3566 L511,307.4105 " fill="#FFFFE0" style="stroke:#181818;stroke-width:4.0;"/><text fill="#000000" font-family="Chalkduster" font-size="24" lengthAdjust="spacing" textLength="376" x="26" y="336.2514">It's important to document</text><text fill="#000000" font-family="Chalkduster" font-size="24" lengthAdjust="spacing" textLength="393" x="26" y="366.8812">access and usage contraints</text><text fill="#000000" font-family="Chalkduster" font-size="24" lengthAdjust="spacing" textLength="480" x="26" y="397.511">in an implementation-neutral way</text><text fill="#000000" font-family="Chalkduster" font-size="24" lengthAdjust="spacing" textLength="222" x="158" y="428.1409">*IN ONE PLACE*</text><path d="M1020,322.7254 L1020.5605,322.7254 L1018.8951,332.9144 L1020.5154,343.1033 L1021.0658,353.2923 L1018.0976,363.4812 L1019.7928,373.6702 L1018.8627,383.8591 L1018.9773,394.0481 L1019.8182,404.237 L1018.1563,414.426 L1020,424.6149 L1020,426.0913 L1029.96,422.9342 L1039.92,424.0875 L1049.88,425.7668 L1059.84,424.3862 L1069.8,424.7969 L1079.76,424.5297 L1089.72,425.091 L1099.68,425.2526 L1109.64,426.1767 L1119.6,426.4044 L1129.56,426.4263 L1139.52,425.2939 L1149.48,425.8511 L1159.44,426.4875 L1169.4,422.6917 L1179.36,426.4243 L1189.32,423.8242 L1199.28,426.0384 L1209.24,423.2948 L1219.2,424.4322 L1229.16,426.5925 L1239.12,424.485 L1249.08,424.8957 L1259.04,425.5179 L1269,425.7249 L1278.96,424.6045 L1288.92,425.3808 L1298.88,423.0885 L1308.84,425.3733 L1318.8,426.0768 L1328.76,425.8003 L1338.72,426.2496 L1348.68,423.3267 L1358.64,422.8758 L1368.6,422.9578 L1378.56,424.4579 L1388.52,424.0908 L1398.48,426.432 L1408.44,424.1491 L1418.4,423.7001 L1428.36,425.2236 L1438.32,422.8367 L1448.28,423.2306 L1458.24,426.3454 L1468.2,425.7767 L1478.16,426.5736 L1488.12,423.7568 L1498.08,425.4661 L1508.04,426.1894 L1518,424.6149 L1516.7403,424.6149 L1517.7444,414.405 L1518.336,404.195 L1519.738,393.9851 L1517.9888,383.7751 L1519.2335,373.5652 L1516.5232,363.3552 L1516.194,353.1453 L1519.343,342.9354 L1518,332.7254 L1517.5494,332.2748 L1516.3199,331.0453 L1514.1299,328.8553 L1511.8316,326.557 L1509.7776,324.5031 L1508,322.7254 L1508,323.9488 L1498.0408,321.9272 L1488.0816,324.3037 L1478.1224,321.2514 L1468.1633,324.3719 L1458.2041,324.0169 L1448.2449,323.3787 L1438.2857,322.8513 L1428.3265,324.663 L1418.3673,324.3616 L1408.4082,323.1768 L1398.449,323.4406 L1388.4898,322.378 L1378.5306,324.6359 L1368.5714,323.1384 L1358.6122,323.1856 L1348.6531,321.1031 L1338.6939,321.6448 L1328.7347,324.1407 L1318.7755,323.8714 L1308.8163,322.6109 L1298.8571,321.8663 L1288.898,322.1416 L1278.9388,320.8956 L1268.9796,323.8314 L1259.0204,324.6976 L1249.0612,324.1291 L1239.102,324.5786 L1229.1429,322.3608 L1219.1837,322.958 L1209.2245,321.6918 L1199.2653,323.4829 L1189.3061,323.3834 L1179.3469,324.1984 L1169.3878,322.113 L1159.4286,322.367 L1149.4694,323.908 L1139.5102,324.2383 L1129.551,321.3587 L1119.5918,322.2084 L1109.6327,323.1234 L1099.6735,321.0965 L1089.7143,323.6678 L1079.7551,323.4134 L1069.7959,322.4567 L1059.8367,323.1047 L1049.8776,324.6685 L1039.9184,321.8911 L1029.9592,323.5654 L1020,322.7254 " fill="#FFFFE0" style="stroke:#181818;stroke-width:4.0;"/><path d="M1508,322.7254 L1508.1868,322.7254 L1507.6317,324.7254 L1508.1718,326.7254 L1508.3553,328.7254 L1507.3659,330.7254 L1508,332.7254 L1508,332.6563 L1510,332.3463 L1512,332.3845 L1514,332.6648 L1516,332.1109 L1518,332.7254 L1518.348,333.0734 L1515.6038,330.3293 L1513.8757,328.6011 L1512.2715,326.9969 L1509.9461,324.6715 L1508,322.7254 " fill="#FFFFE0" style="stroke:#181818;stroke-width:4.0;"/><text fill="#000000" font-family="Chalkduster" font-size="24" lengthAdjust="spacing" textLength="477" x="1026" y="351.5663">Could TK Notices and Labels form</text><text fill="#000000" font-family="Chalkduster" font-size="24" lengthAdjust="spacing" textLength="246" x="1026" y="382.1961">part of a license?</text><text fill="#000000" font-family="Chalkduster" font-size="24" lengthAdjust="spacing" textLength="299" x="1038" y="412.826">Maybe act as clauses?</text><polygon fill="#F1F1F1" points="543.5,348.3552,543.5,348.5654,553.5889,347.9409,563.6778,348.5485,573.7667,348.7549,583.8556,347.6418,593.9444,348.2775,604.0333,347.9287,614.1222,347.9717,624.2111,348.2871,634.3,347.6639,644.3889,348.9089,654.4778,347.725,664.5667,348.1575,674.6556,348.7872,684.7444,348.2695,694.8333,348.4235,704.9222,348.3233,715.0111,348.5338,725.1,348.5944,735.1889,348.9409,745.2778,349.0263,755.3667,349.0345,765.4556,348.6099,775.5444,348.8188,785.6333,349.0575,795.7222,347.6341,805.8111,349.0338,815.9,348.0587,825.9889,348.8891,836.0778,347.8602,846.1667,348.2867,856.2556,349.0968,866.3444,348.3065,876.4333,348.4605,886.5222,348.6939,896.6111,348.7715,906.7,348.3513,916.7889,348.6425,926.8778,347.7828,936.9667,348.6396,947.0556,348.9034,957.1444,348.7998,967.2333,348.9683,977.3222,347.8722,987.4111,347.7031,997.5,348.3552,997.4207,348.1639,999.2603,349.0693,1001.0105,349.7592,1002.8902,350.7618,1004.5488,351.2304,1006.3388,352.0164,1006.2332,351.9726,1007.1414,353.8133,1007.5979,355.4669,1008.3757,357.2535,1009.4676,359.1703,1010,360.8552,1010.1452,360.8552,1010.2448,365.9812,1009.8927,371.1072,1010.1064,376.2331,1010.1968,381.3591,1010,386.4851,1009.8545,386.4248,1009.2382,388.2406,1008.5743,390.0367,1008.004,391.8715,1007.0698,393.5556,1006.3388,395.3239,1006.3978,395.4664,1004.5004,395.8856,1002.7169,396.5798,1001.0998,397.6757,999.1763,398.0321,997.5,398.9851,997.5,399.494,987.4111,399.1917,977.3222,398.7172,967.2333,398.6313,957.1444,399.4438,947.0556,398.6857,936.9667,399.5769,926.8778,398.4323,916.7889,399.6025,906.7,399.4694,896.6111,399.23,886.5222,399.0323,876.4333,399.7117,866.3444,399.5987,856.2556,399.1543,846.1667,399.2533,836.0778,398.8548,825.9889,399.7015,815.9,399.1399,805.8111,399.1577,795.7222,398.3767,785.6333,398.5799,775.5444,399.5158,765.4556,399.4148,755.3667,398.9421,745.2778,398.6629,735.1889,398.7661,725.1,398.2989,715.0111,399.3998,704.9222,399.7246,694.8333,399.5115,684.7444,399.68,674.6556,398.8483,664.5667,399.0723,654.4778,398.5975,644.3889,399.2691,634.3,399.2318,624.2111,399.5375,614.1222,398.7554,604.0333,398.8507,593.9444,399.4285,583.8556,399.5524,573.7667,398.4725,563.6778,398.7912,553.5889,399.1343,543.5,398.9851,543.4221,398.797,541.7773,398.3617,539.9974,397.6001,538.1838,396.7573,536.4471,396.1,534.6612,395.3239,534.8856,395.4169,533.8326,393.5162,533.2937,391.8286,532.5524,390.057,531.7679,388.2676,531,386.4851,531.047,386.4851,531.0378,381.3591,530.7919,376.2331,530.8664,371.1072,530.8462,365.9812,531,360.8552,531.0197,360.8634,531.7594,359.0987,532.5143,357.3403,533.1071,355.5148,533.9081,353.7756,534.6612,352.0164,534.6458,351.9794,536.5025,351.4618,538.2511,350.6833,539.9025,349.6702,541.7229,349.065,543.5,348.3552" style="stroke:#181818;stroke-width:0.5;"/><text fill="#000000" font-family="Chalkduster" font-size="24" lengthAdjust="spacing" textLength="459" x="541" y="382.1961">Write a natural language license</text><polygon fill="#F1F1F1" points="662,480.5337,662,480.7439,671.8636,480.1194,681.7273,480.727,691.5909,480.9334,701.4545,479.8203,711.3182,480.456,721.1818,480.1072,731.0455,480.1502,740.9091,480.4655,750.7727,479.8423,760.6364,481.0873,770.5,479.9034,780.3636,480.3359,790.2273,480.9656,800.0909,480.4479,809.9545,480.6019,819.8182,480.5017,829.6818,480.7122,839.5455,480.7728,849.4091,481.1194,859.2727,481.2047,869.1364,481.213,879,480.5337,879.0668,480.586,881.5216,483.692,883.9843,486.804,886.0108,489.5744,888.778,492.9251,891,495.8486,890.9222,495.7877,888.7401,499.0213,886.0701,501.8728,883.782,505.0235,881.5946,508.253,879,511.1635,879,511.1148,869.1364,511.2688,859.2727,511.5022,849.4091,511.5798,839.5455,511.1596,829.6818,511.4507,819.8182,510.5911,809.9545,511.4479,800.0909,511.7117,790.2273,511.6081,780.3636,511.7766,770.5,510.6804,760.6364,510.5113,750.7727,510.5421,740.9091,511.1046,731.0455,510.967,721.1818,511.8449,711.3182,510.9888,701.4545,510.8205,691.5909,511.3918,681.7273,510.4967,671.8636,510.6444,662,511.1635,662.1703,511.2969,659.7143,508.1901,657.3927,505.1886,654.7156,501.9084,652.4838,498.9772,650,495.8486,650.1549,495.97,652.276,492.6885,654.7748,489.7029,657.2331,486.6856,659.771,483.7307,662,480.5337" style="stroke:#181818;stroke-width:0.5;"/><text fill="#000000" font-family="Chalkduster" font-size="24" lengthAdjust="spacing" textLength="217" x="662" y="504.3746">anyone can use</text><text fill="#000000" font-family="Chalkduster" font-size="24" lengthAdjust="spacing" textLength="42" x="608" y="489.0597">yes</text><text fill="#000000" font-family="Chalkduster" font-size="24" lengthAdjust="spacing" textLength="385" x="891" y="489.0597">Authorization Step Required</text><polygon fill="#F1F1F1" points="310.375,521.1635,310.375,521.3737,320.5083,520.7492,330.6417,521.3568,340.775,521.5632,350.9083,520.4501,361.0417,521.0858,371.175,520.737,381.3083,520.78,391.4417,521.0954,401.575,520.4722,411.7083,521.7172,421.8417,520.5332,431.975,520.9658,442.1083,521.5955,452.2417,521.0777,462.375,521.2318,472.5083,521.1316,482.6417,521.3421,492.775,521.4027,502.9083,521.7492,513.0417,521.8346,523.175,521.8428,533.3083,521.4182,543.4417,521.6271,553.575,521.8658,563.7083,520.4423,573.8417,521.842,583.975,520.867,594.1083,521.6973,604.2417,520.6685,614.375,521.1635,614.3663,521.1424,616.2374,522.1241,617.9043,522.613,619.6917,523.3927,621.4893,524.1967,623.2138,524.8247,623.342,524.8778,623.9449,526.592,624.7668,528.3969,625.2343,530.055,626.2303,531.932,626.875,533.6635,627.0577,533.6635,627.0232,538.7895,627.0793,543.9155,626.714,549.0414,626.6576,554.1674,626.875,559.2934,626.6836,559.2141,626.1246,561.0536,625.35,562.8038,624.8881,564.6836,623.8923,566.3421,623.2138,568.1322,623.1701,568.0265,621.4752,568.9347,619.5932,569.3913,617.8443,570.169,616.2255,571.261,614.375,571.7934,614.375,572.229,604.2417,572.5279,594.1083,571.4716,583.975,572.1126,573.8417,572.3838,563.7083,571.321,553.575,571.6975,543.4417,571.9193,533.3083,572.4451,523.175,571.7892,513.0417,572.2559,502.9083,571.2396,492.775,571.1161,482.6417,572.297,472.5083,571.0764,462.375,572.3023,452.2417,572,442.1083,571.5254,431.975,571.4396,421.8417,572.2521,411.7083,571.494,401.575,572.3852,391.4417,571.2406,381.3083,572.4108,371.175,572.2777,361.0417,572.0383,350.9083,571.8406,340.775,572.52,330.6417,572.4069,320.5083,571.9626,310.375,571.7934,310.4092,571.876,308.5906,571.021,306.9309,570.5495,305.0915,569.6444,303.3259,568.9176,301.5362,568.1322,301.3488,568.0546,300.6791,566.3127,300.2351,564.6644,299.4718,562.8837,298.594,561.0557,297.875,559.2934,297.7676,559.2934,297.802,554.1674,297.6463,549.0414,298.0132,543.9155,298.1215,538.7895,297.875,533.6635,298.0371,533.7307,298.8212,531.9844,299.2974,530.1106,300.0986,528.3714,300.6846,526.543,301.5362,524.8247,301.5724,524.9122,303.3354,524.1685,305.1422,523.5303,306.8102,522.5573,308.5901,521.8544,310.375,521.1635" style="stroke:#181818;stroke-width:0.5;"/><text fill="#000000" font-family="Chalkduster" font-size="24" lengthAdjust="spacing" textLength="309" x="307.875" y="555.0044">Use a CC-style license</text><polygon fill="#F1F1F1" points="898.125,521.1635,898.125,521.3737,908.1528,520.7492,918.1806,521.3568,928.2083,521.5632,938.2361,520.4501,948.2639,521.0858,958.2917,520.737,968.3194,520.78,978.3472,521.0954,988.375,520.4722,998.4028,521.7172,1008.4306,520.5332,1018.4583,520.9658,1028.4861,521.5955,1038.5139,521.0777,1048.5417,521.2318,1058.5694,521.1316,1068.5972,521.3421,1078.625,521.4027,1088.6528,521.7492,1098.6806,521.8346,1108.7083,521.8428,1118.7361,521.4182,1128.7639,521.6271,1138.7917,521.8658,1148.8194,520.4423,1158.8472,521.842,1168.875,520.867,1178.9028,521.6973,1188.9306,520.6685,1198.9583,521.095,1208.9861,521.9051,1219.0139,521.1148,1229.0417,521.2688,1239.0694,521.5022,1249.0972,521.5798,1259.125,521.1635,1259.1212,521.1625,1261.8029,530.4251,1263.3712,539.3968,1266.6002,548.8022,1269.2554,558.0579,1271.125,567.1083,1271.5551,567.2206,1269.3181,576.4521,1265.8576,585.3641,1263.294,594.5103,1260.9238,603.707,1259.125,613.053,1259.125,612.9941,1249.0972,612.8565,1239.0694,613.7344,1229.0417,612.8783,1219.0139,612.71,1208.9861,613.2813,1198.9583,612.3862,1188.9306,612.5339,1178.9028,613.702,1168.875,613.4887,1158.8472,613.7875,1148.8194,612.7312,1138.7917,613.3722,1128.7639,613.6434,1118.7361,612.5806,1108.7083,612.9572,1098.6806,613.179,1088.6528,613.7048,1078.625,613.0488,1068.5972,613.5156,1058.5694,612.4992,1048.5417,612.3758,1038.5139,613.5566,1028.4861,612.3361,1018.4583,613.562,1008.4306,613.2597,998.4028,612.7851,988.375,612.6993,978.3472,613.5118,968.3194,612.7537,958.2917,613.6449,948.2639,612.5003,938.2361,613.6705,928.2083,613.5373,918.1806,613.298,908.1528,613.1002,898.125,613.053,898.828,613.2366,896.3187,604.0191,893.4888,594.7179,891.1845,585.5539,888.399,576.2643,886.125,567.1083,886.8182,567.2893,888.6748,557.9585,891.092,548.774,892.7364,539.3877,895.3329,530.2501,898.125,521.1635" style="stroke:#181818;stroke-width:0.5;"/><text fill="#000000" font-family="Chalkduster" font-size="24" lengthAdjust="spacing" textLength="299" x="898.125" y="545.0044">Click-thru agreement</text><text fill="#000000" font-family="Chalkduster" font-size="24" lengthAdjust="spacing" textLength="361" x="898.125" y="575.6342">with terms or a short quiz</text><text fill="#000000" font-family="Chalkduster" font-size="24" lengthAdjust="spacing" textLength="130" x="898.125" y="606.2641">is enough</text><text fill="#000000" font-family="Chalkduster" font-size="24" lengthAdjust="spacing" textLength="42" x="844.125" y="560.3193">yes</text><text fill="#000000" font-family="Chalkduster" font-size="24" lengthAdjust="spacing" textLength="35" x="1271.125" y="560.3193">no</text><polygon fill="#F1F1F1" points="669.375,623.053,669.375,623.2632,679.2716,622.6387,689.1681,623.2463,699.0647,623.4527,708.9612,622.3396,718.8578,622.9753,728.7543,622.6265,738.6509,622.6695,748.5474,622.9849,758.444,622.3617,768.3405,623.6067,778.2371,622.4227,788.1336,622.8553,798.0302,623.485,807.9267,622.9672,817.8233,623.1213,827.7198,623.0211,837.6164,623.2316,847.5129,623.2922,857.4095,623.6387,867.306,623.7241,877.2026,623.7323,887.0991,623.3077,896.9957,623.5166,906.8922,623.7553,916.7888,622.3318,926.6853,623.7315,936.5819,622.7565,946.4784,623.5868,956.375,623.053,956.3119,622.9006,958.134,623.7642,960.0051,624.7459,961.6721,625.2347,963.4595,626.0144,965.2138,626.7142,965.3181,626.7574,966.0743,628.5351,966.6771,630.2492,967.499,632.0541,967.9665,633.7122,968.875,635.553,969.1594,635.553,969.4232,644.9296,969.3195,654.3062,969.488,663.6829,968.3919,673.0595,968.2228,682.4361,968.875,691.8127,968.6836,691.7334,968.1246,693.5729,967.35,695.3232,966.8881,697.2029,965.8923,698.8615,965.2138,700.6515,965.1701,700.5459,963.4752,701.4541,961.5932,701.9106,959.8443,702.6884,958.2255,703.7803,956.375,704.3127,956.375,704.7484,946.4784,705.0472,936.5819,703.9909,926.6853,704.6319,916.7888,704.9031,906.8922,703.8403,896.9957,704.2168,887.0991,704.4387,877.2026,704.9645,867.306,704.3085,857.4095,704.7753,847.5129,703.7589,837.6164,703.6354,827.7198,704.8163,817.8233,703.5958,807.9267,704.8217,798.0302,704.5193,788.1336,704.0448,778.2371,703.9589,768.3405,704.7715,758.444,704.0134,748.5474,704.9046,738.6509,703.7599,728.7543,704.9301,718.8578,704.797,708.9612,704.5577,699.0647,704.3599,689.1681,705.0393,679.2716,704.9263,669.375,704.3127,669.3966,704.3648,667.6414,703.6631,665.8228,702.8081,664.1631,702.3366,662.3237,701.4315,660.5362,700.6515,660.5893,700.6735,659.6166,698.8062,658.9469,697.0643,658.5029,695.4159,657.7396,693.6353,656.875,691.8127,656.8321,691.8127,656.5528,682.4361,656.6561,673.0595,656.1888,663.6829,657.2897,654.3062,657.6146,644.9296,656.875,635.553,657.0371,635.6202,657.8212,633.8739,658.2974,632.0001,659.0986,630.2609,659.6846,628.4325,660.5362,626.7142,660.5724,626.8017,662.3354,626.058,664.1422,625.4198,665.8102,624.4468,667.5901,623.7439,669.375,623.053" style="stroke:#181818;stroke-width:0.5;"/><text fill="#000000" font-family="Chalkduster" font-size="24" lengthAdjust="spacing" textLength="292" x="666.875" y="656.8939">Write a click-thru or</text><text fill="#000000" font-family="Chalkduster" font-size="24" lengthAdjust="spacing" textLength="252" x="666.875" y="687.5237">quiz based license</text><polygon fill="#F1F1F1" points="1162.875,623.053,1162.875,623.2632,1172.9583,622.6387,1183.0417,623.2463,1193.125,623.4527,1203.2083,622.3396,1213.2917,622.9753,1223.375,622.6265,1233.4583,622.6695,1243.5417,622.9849,1253.625,622.3617,1263.7083,623.6067,1273.7917,622.4227,1283.875,622.8553,1293.9583,623.485,1304.0417,622.9672,1314.125,623.1213,1324.2083,623.0211,1334.2917,623.2316,1344.375,623.2922,1354.4583,623.6387,1364.5417,623.7241,1374.625,623.7323,1384.7083,623.3077,1394.7917,623.5166,1404.875,623.7553,1414.9583,622.3318,1425.0417,623.7315,1435.125,622.7565,1445.2083,623.5868,1455.2917,622.558,1465.375,622.9845,1475.4583,623.7946,1485.5417,623.0043,1495.625,623.1583,1505.7083,623.3917,1515.7917,623.4693,1525.875,623.053,1525.8738,623.0526,1528.3641,629.2139,1530.4973,635.2354,1533.1633,641.4655,1535.6451,647.6235,1537.875,653.6829,1538.013,653.7369,1535.6653,659.8834,1532.9251,665.8761,1530.4726,671.9815,1528.0821,678.1112,1525.875,684.3127,1525.875,684.2538,1515.7917,684.1162,1505.7083,684.9941,1495.625,684.138,1485.5417,683.9696,1475.4583,684.541,1465.375,683.6459,1455.2917,683.7936,1445.2083,684.9616,1435.125,684.7484,1425.0417,685.0472,1414.9583,683.9909,1404.875,684.6319,1394.7917,684.9031,1384.7083,683.8403,1374.625,684.2168,1364.5417,684.4387,1354.4583,684.9645,1344.375,684.3085,1334.2917,684.7753,1324.2083,683.7589,1314.125,683.6354,1304.0417,684.8163,1293.9583,683.5958,1283.875,684.8217,1273.7917,684.5193,1263.7083,684.0448,1253.625,683.9589,1243.5417,684.7715,1233.4583,684.0134,1223.375,684.9046,1213.2917,683.7599,1203.2083,684.9301,1193.125,684.797,1183.0417,684.5577,1172.9583,684.3599,1162.875,684.3127,1163.1005,684.401,1160.6654,678.2613,1158.1275,672.0813,1155.7582,665.9674,1153.2346,659.793,1150.875,653.6829,1151.0974,653.77,1153.3231,647.5757,1155.7286,641.4519,1157.8862,635.231,1160.3492,629.1297,1162.875,623.053" style="stroke:#181818;stroke-width:0.5;"/><text fill="#000000" font-family="Chalkduster" font-size="24" lengthAdjust="spacing" textLength="363" x="1162.875" y="646.8939">Steward can list *exactly*</text><text fill="#000000" font-family="Chalkduster" font-size="24" lengthAdjust="spacing" textLength="326" x="1162.875" y="677.5237">who should have access</text><text fill="#000000" font-family="Chalkduster" font-size="24" lengthAdjust="spacing" textLength="42" x="1108.875" y="646.8939">yes</text><text fill="#000000" font-family="Chalkduster" font-size="24" lengthAdjust="spacing" textLength="35" x="1537.875" y="646.8939">no</text><polygon fill="#F1F1F1" points="1011.375,694.3127,1011.375,694.5229,1021.3365,693.8984,1031.2981,694.506,1041.2596,694.7124,1051.2212,693.5993,1061.1827,694.235,1071.1442,693.8862,1081.1058,693.9292,1091.0673,694.2445,1101.0288,693.6213,1110.9904,694.8663,1120.9519,693.6824,1130.9135,694.1149,1140.875,694.7446,1150.8365,694.2269,1160.7981,694.3809,1170.7596,694.2807,1180.7212,694.4912,1190.6827,694.5518,1200.6442,694.8984,1210.6058,694.9837,1220.5673,694.992,1230.5288,694.5673,1240.4904,694.7763,1250.4519,695.0149,1260.4135,693.5915,1270.375,694.3127,1270.4616,694.5216,1272.1049,694.9536,1273.9786,695.9416,1275.6152,696.3569,1277.4373,697.2205,1279.2138,697.9739,1279.4422,698.0685,1279.9311,699.7354,1280.7107,701.5228,1281.5148,703.3204,1282.2709,705.098,1282.875,706.8127,1282.8711,706.8127,1283.1622,716.4671,1282.3026,726.1215,1283.1594,735.7759,1283.4232,745.4302,1283.3195,755.0846,1283.488,764.739,1282.3919,774.3934,1282.2228,784.0478,1282.875,793.7022,1282.6836,793.6229,1282.1246,795.4624,1281.35,797.2127,1280.8881,799.0924,1279.8923,800.751,1279.2138,802.541,1279.1701,802.4354,1277.4752,803.3436,1275.5932,803.8001,1273.8443,804.5779,1272.2255,805.6698,1270.375,806.2022,1270.375,806.6379,1260.4135,806.9367,1250.4519,805.8804,1240.4904,806.5214,1230.5288,806.7926,1220.5673,805.7298,1210.6058,806.1063,1200.6442,806.3282,1190.6827,806.854,1180.7212,806.198,1170.7596,806.6648,1160.7981,805.6484,1150.8365,805.5249,1140.875,806.7058,1130.9135,805.4853,1120.9519,806.7112,1110.9904,806.4088,1101.0288,805.9343,1091.0673,805.8484,1081.1058,806.661,1071.1442,805.9029,1061.1827,806.7941,1051.2212,805.6494,1041.2596,806.8196,1031.2981,806.6865,1021.3365,806.4472,1011.375,806.2022,1011.381,806.2167,1009.6999,805.6937,1007.9177,804.9267,1006.0933,804.0576,1004.3381,803.3559,1002.5362,802.541,1002.496,802.5244,1002.0246,800.8647,1001.1194,799.0252,1000.3926,797.2597,999.4199,795.3924,998.875,793.7022,998.4698,793.7022,999.4057,784.0478,999.3048,774.3934,998.8321,764.739,998.5528,755.0846,998.6561,745.4302,998.1888,735.7759,999.2897,726.1215,999.6146,716.4671,998.875,706.8127,999.0371,706.8798,999.8212,705.1336,1000.2974,703.2597,1001.0986,701.5205,1001.6846,699.6922,1002.5362,697.9739,1002.5724,698.0613,1004.3354,697.3176,1006.1422,696.6795,1007.8102,695.7064,1009.5901,695.0035,1011.375,694.3127" style="stroke:#181818;stroke-width:0.5;"/><text fill="#000000" font-family="Chalkduster" font-size="24" lengthAdjust="spacing" textLength="118" x="1008.875" y="728.1536">Make an</text><text fill="#000000" font-family="Chalkduster" font-size="24" lengthAdjust="spacing" textLength="264" x="1008.875" y="758.7834">Access Control List</text><text fill="#000000" font-family="Chalkduster" font-size="24" lengthAdjust="spacing" textLength="223" x="1008.875" y="789.4132">and invite users</text><polygon fill="#F1F1F1" points="1390.375,694.3127,1390.375,694.5229,1400.2188,693.8984,1410.0625,694.506,1419.9063,694.7124,1429.75,693.5993,1439.5938,694.235,1449.4375,693.8862,1459.2813,693.9292,1469.125,694.2445,1478.9688,693.6213,1488.8125,694.8663,1498.6563,693.6824,1508.5,694.1149,1518.3438,694.7446,1528.1875,694.2269,1538.0313,694.3809,1547.875,694.2807,1557.7188,694.4912,1567.5625,694.5518,1577.4063,694.8984,1587.25,694.9837,1597.0938,694.992,1606.9375,694.5673,1616.7813,694.7763,1626.625,695.0149,1636.4688,693.5915,1646.3125,694.9912,1656.1563,694.0162,1666,694.8465,1675.8438,693.8177,1685.6875,694.2442,1695.5313,695.0543,1705.375,694.3127,1705.3688,694.2977,1707.1562,695.0774,1708.9537,695.8814,1710.7314,696.6376,1712.4456,697.2404,1714.2138,697.9739,1714.3023,698.0105,1714.7698,699.6686,1715.7659,701.5457,1716.5794,703.3471,1717.2797,705.1016,1717.875,706.8127,1718.488,706.8127,1717.3919,716.6893,1717.2228,726.5659,1717.2536,736.4425,1717.8161,746.3191,1717.6785,756.1957,1718.5564,766.0724,1717.7003,775.949,1717.5319,785.8256,1718.1033,795.7022,1717.2082,805.5788,1717.3559,815.4554,1718.524,825.332,1718.3107,835.2086,1718.6095,845.0852,1717.875,854.9619,1717.7759,854.9208,1717.2411,856.7703,1716.5924,858.5727,1715.5328,860.2049,1714.9165,862.0207,1714.2138,863.8007,1714.2299,863.8395,1712.5292,864.7336,1710.6778,865.2639,1708.9695,866.1398,1707.0721,866.5591,1705.375,867.4619,1705.375,866.7846,1695.5313,867.9655,1685.6875,866.7449,1675.8438,867.9708,1666,867.6685,1656.1563,867.1939,1646.3125,867.1081,1636.4688,867.9206,1626.625,867.1625,1616.7813,868.0537,1606.9375,866.9091,1597.0938,868.0793,1587.25,867.9462,1577.4063,867.7068,1567.5625,867.5091,1557.7188,868.1885,1547.875,868.0754,1538.0313,867.6311,1528.1875,867.73,1518.3438,867.3316,1508.5,868.1783,1498.6563,867.6167,1488.8125,867.6344,1478.9688,866.8535,1469.125,867.0566,1459.2813,867.9926,1449.4375,867.8916,1439.5938,867.4189,1429.75,867.1397,1419.9063,867.2429,1410.0625,866.7757,1400.2188,867.8766,1390.375,867.4619,1390.4693,867.6896,1388.6744,866.8917,1386.9281,866.2114,1385.0543,865.2231,1383.3151,864.5598,1381.5362,863.8007,1381.4168,863.7513,1380.8914,862.0692,1380.1477,860.2966,1379.5096,858.5679,1378.5365,856.7003,1377.875,854.9619,1377.7406,854.9619,1378.3185,845.0852,1378.4423,835.2086,1377.3625,825.332,1377.6811,815.4554,1378.0243,805.5788,1377.2642,795.7022,1378.2284,785.8256,1378.133,775.949,1377.7742,766.0724,1378.0172,756.1957,1378.6037,746.3191,1377.5621,736.4425,1378.19,726.5659,1378.1606,716.6893,1377.875,706.8127,1377.9107,706.8275,1378.6506,705.0629,1379.3744,703.2916,1379.8795,701.4298,1380.6805,699.6905,1381.5362,697.9739,1381.4773,697.8317,1383.3121,697.2613,1385.0829,696.5365,1386.8601,695.827,1388.5701,694.9553,1390.375,694.3127" style="stroke:#181818;stroke-width:0.5;"/><text fill="#000000" font-family="Chalkduster" font-size="24" lengthAdjust="spacing" textLength="320" x="1387.875" y="728.1536">Design a form or other</text><text fill="#000000" font-family="Chalkduster" font-size="24" lengthAdjust="spacing" textLength="308" x="1387.875" y="758.7834">mechanism to approve</text><text fill="#000000" font-family="Chalkduster" font-size="24" lengthAdjust="spacing" textLength="89" x="1387.875" y="789.4132">agents</text><text fill="#000000" font-family="Chalkduster" font-size="24" lengthAdjust="spacing" textLength="267" x="1387.875" y="820.0431">(Some agents might</text><text fill="#000000" font-family="Chalkduster" font-size="24" lengthAdjust="spacing" textLength="237" x="1387.875" y="850.6729">be pre-approved)</text><polygon fill="#F1F1F1" points="1362.875,887.4619,1362.875,887.672,1372.875,887.0475,1382.875,887.6551,1392.875,887.8615,1402.875,886.7485,1412.875,887.3841,1422.875,887.0354,1432.875,887.0784,1442.875,887.3937,1452.875,886.7705,1462.875,888.0155,1472.875,886.8316,1482.875,887.2641,1492.875,887.8938,1502.875,887.3761,1512.875,887.5301,1522.875,887.4299,1532.875,887.6404,1542.875,887.701,1552.875,888.0475,1562.875,888.1329,1572.875,888.1411,1582.875,887.7165,1592.875,887.9254,1602.875,888.1641,1612.875,886.7407,1622.875,888.1404,1632.875,887.1654,1642.875,887.9957,1652.875,886.9668,1662.875,887.3934,1672.875,888.2035,1682.875,887.4131,1692.875,887.5672,1702.875,887.8005,1712.875,887.8781,1722.875,887.458,1732.875,887.4619,1732.9116,887.5503,1734.5697,888.0178,1736.4468,889.0139,1738.2482,889.8274,1740.0028,890.5277,1741.7138,891.123,1741.9026,891.2012,1742.2973,892.8292,1742.9775,894.5754,1743.7192,896.3471,1744.6246,898.1866,1745.375,899.9619,1745.1785,899.9619,1746.0564,909.3385,1745.2003,918.7151,1745.0319,928.0917,1745.6033,937.4683,1744.7082,946.8449,1745.375,956.2215,1745.2151,956.1553,1744.8426,958.0721,1744.0447,959.8126,1743.4045,961.6185,1742.347,963.2515,1741.7138,965.0604,1741.7546,965.1587,1740.0214,965.9744,1738.118,966.3793,1736.3983,967.2275,1734.6588,968.0281,1732.875,968.7215,1732.875,969.3733,1722.875,968.7173,1712.875,969.1841,1702.875,968.1677,1692.875,968.0443,1682.875,969.2251,1672.875,968.0046,1662.875,969.2305,1652.875,968.9282,1642.875,968.4536,1632.875,968.3678,1622.875,969.1803,1612.875,968.4222,1602.875,969.3134,1592.875,968.1688,1582.875,969.339,1572.875,969.2058,1562.875,968.9665,1552.875,968.7687,1542.875,969.4481,1532.875,969.3351,1522.875,968.8908,1512.875,968.9897,1502.875,968.5913,1492.875,969.438,1482.875,968.8764,1472.875,968.8941,1462.875,968.1132,1452.875,968.3163,1442.875,969.2523,1432.875,969.1513,1422.875,968.6786,1412.875,968.3994,1402.875,968.5026,1392.875,968.0354,1382.875,969.1363,1372.875,969.4611,1362.875,968.7215,1362.9421,968.8836,1361.1959,968.2033,1359.322,967.215,1357.5828,966.5517,1355.7545,965.6732,1354.0362,965.0604,1354.1236,965.0966,1353.3799,963.3241,1352.7418,961.5953,1351.7687,959.7278,1351.0658,957.9721,1350.375,956.2215,1350.8185,956.2215,1350.9423,946.8449,1349.8625,937.4683,1350.1811,928.0917,1350.5243,918.7151,1349.7642,909.3385,1350.375,899.9619,1350.4838,900.0069,1351.1867,898.227,1351.8084,896.4135,1352.6155,894.6767,1353.5283,892.9837,1354.0362,891.123,1353.9963,891.0267,1355.8441,890.4878,1357.6081,889.7465,1359.3542,888.962,1361.1252,888.2375,1362.875,887.4619" style="stroke:#181818;stroke-width:0.5;"/><text fill="#000000" font-family="Chalkduster" font-size="24" lengthAdjust="spacing" textLength="375" x="1360.375" y="921.3027">Identify decision maker(s)</text><text fill="#000000" font-family="Chalkduster" font-size="24" lengthAdjust="spacing" textLength="234" x="1360.375" y="951.9326">to grant licenses</text><polygon fill="#F1F1F1" points="1344.375,974.7215,1344.4245,974.7711,1346.6773,977.0239,1349.2206,979.5671,1351.6692,982.0157,1353.8069,984.1534,1356.375,986.7215,1356.3567,986.7032,1353.8745,989.021,1351.4846,991.4311,1349.1589,993.9055,1346.612,996.1586,1344.375,998.7215,1344.5055,998.852,1341.8264,996.173,1339.5284,993.8749,1337.2768,991.6233,1334.7548,989.1013,1332.375,986.7215,1332.3911,986.7376,1334.7675,984.314,1337.2171,981.9636,1339.6314,979.5779,1342.113,977.2596,1344.375,974.7215" style="stroke:#181818;stroke-width:0.5;"/><polygon fill="#F1F1F1" points="1078.625,1004.7215,1078.6745,1004.7711,1080.9273,1007.0239,1083.4706,1009.5671,1085.9192,1012.0157,1088.0569,1014.1534,1090.625,1016.7215,1090.6067,1016.7032,1088.1245,1019.021,1085.7346,1021.4311,1083.4089,1023.9055,1080.862,1026.1586,1078.625,1028.7215,1078.7555,1028.852,1076.0764,1026.173,1073.7784,1023.8749,1071.5268,1021.6233,1069.0048,1019.1013,1066.625,1016.7215,1066.6411,1016.7376,1069.0175,1014.314,1071.4671,1011.9636,1073.8814,1009.5779,1076.363,1007.2596,1078.625,1004.7215" style="stroke:#181818;stroke-width:0.5;"/><polygon fill="#F1F1F1" points="770.5,1034.7215,770.5495,1034.7711,772.8023,1037.0239,775.3456,1039.5671,777.7942,1042.0157,779.9319,1044.1534,782.5,1046.7215,782.4817,1046.7032,779.9995,1049.021,777.6096,1051.4311,775.2839,1053.9055,772.737,1056.1586,770.5,1058.7215,770.6305,1058.852,767.9514,1056.173,765.6534,1053.8749,763.4018,1051.6233,760.8798,1049.1013,758.5,1046.7215,758.5161,1046.7376,760.8925,1044.314,763.3421,1041.9636,765.7564,1039.5779,768.238,1037.2596,770.5,1034.7215" style="stroke:#181818;stroke-width:0.5;"/><path d="M770.5,104.6022 L770.5934,104.6022 L770.3159,108.6022 L770.5859,112.6022 L770.6776,116.6022 L770.1829,120.6022 L770.5,124.6022 " fill="#8B0000" style="stroke:#8B0000;stroke-width:4.0;"/><polygon fill="#8B0000" points="766.5,114.6022,766.565,114.6282,767.1718,116.5509,768.1598,118.6261,769.0237,120.6517,769.4792,122.5139,770.5,124.6022,770.4759,124.5926,771.168,122.5494,771.9813,120.5547,772.8789,118.5938,773.486,116.5166,774.5,114.6022,774.6305,114.7327,773.5514,115.2537,772.8534,116.1556,772.2018,117.104,771.2798,117.782,770.5,118.6022,770.5161,118.6183,769.6925,117.7947,768.9421,117.0443,768.1564,116.2586,767.438,115.5403,766.5,114.6022" style="stroke:#8B0000;stroke-width:1.0;"/><path d="M770.5,205.8619 L770.5934,205.8619 L770.3159,209.9827 L770.5859,214.1034 L770.6776,218.2242 L770.1829,222.345 L770.5,226.4657 " fill="#8B0000" style="stroke:#8B0000;stroke-width:4.0;"/><polygon fill="#8B0000" points="766.5,216.4657,766.565,216.4918,767.1718,218.4145,768.1598,220.4897,769.0237,222.5152,769.4792,224.3774,770.5,226.4657,770.4759,226.4561,771.168,224.4129,771.9813,222.4183,772.8789,220.4573,773.486,218.3802,774.5,216.4657,774.6305,216.5962,773.5514,217.1172,772.8534,218.0191,772.2018,218.9676,771.2798,219.6455,770.5,220.4657,770.5161,220.4818,769.6925,219.6582,768.9421,218.9078,768.1564,218.1221,767.438,217.4038,766.5,216.4657" style="stroke:#8B0000;stroke-width:1.0;"/><path d="M770.5,277.0956 L770.7802,277.0956 L769.9476,287.2755 L770.7577,297.4555 L771.0329,307.6354 L769.5488,317.8154 L770.3964,327.9953 L769.9313,338.1753 L770.5,348.3552 " fill="#8B0000" style="stroke:#8B0000;stroke-width:4.0;"/><polygon fill="#8B0000" points="766.5,338.3552,766.565,338.3813,767.1718,340.304,768.1598,342.3792,769.0237,344.4047,769.4792,346.2669,770.5,348.3552,770.4759,348.3456,771.168,346.3024,771.9813,344.3078,772.8789,342.3468,773.486,340.2697,774.5,338.3552,774.6305,338.4857,773.5514,339.0067,772.8534,339.9086,772.2018,340.8571,771.2798,341.535,770.5,342.3552,770.5161,342.3713,769.6925,341.5477,768.9421,340.7973,768.1564,340.0116,767.438,339.2933,766.5,338.3552" style="stroke:#8B0000;stroke-width:1.0;"/><path d="M1547.875,867.4619 L1547.9684,867.4619 L1547.6909,871.4619 L1547.9609,875.4619 L1548.0526,879.4619 L1547.5579,883.4619 L1547.875,887.4619 " fill="#8B0000" style="stroke:#8B0000;stroke-width:4.0;"/><polygon fill="#8B0000" points="1543.875,877.4619,1543.94,877.4879,1544.5468,879.4106,1545.5348,881.4858,1546.3987,883.5113,1546.8542,885.3735,1547.875,887.4619,1547.8509,887.4522,1548.543,885.4091,1549.3563,883.4144,1550.2539,881.4534,1550.861,879.3763,1551.875,877.4619,1552.0055,877.5924,1550.9264,878.1133,1550.2284,879.0152,1549.5768,879.9637,1548.6548,880.6416,1547.875,881.4619,1547.8911,881.4779,1547.0675,880.6543,1546.3171,879.9039,1545.5314,879.1182,1544.813,878.3999,1543.875,877.4619" style="stroke:#8B0000;stroke-width:1.0;"/><path d="M1150.875,653.6829 L1150.875,653.7763 L1148.875,653.4987 L1146.875,653.7688 L1144.875,653.8605 L1142.875,653.3658 L1140.875,653.6829 " fill="#8B0000" style="stroke:#8B0000;stroke-width:4.0;"/><path d="M1140.875,653.6829 L1140.9684,653.6829 L1140.6909,661.8088 L1140.9609,669.9348 L1141.0526,678.0608 L1140.5579,686.1867 L1140.875,694.3127 " fill="#8B0000" style="stroke:#8B0000;stroke-width:4.0;"/><polygon fill="#8B0000" points="1136.875,684.3127,1136.94,684.3387,1137.5468,686.2614,1138.5348,688.3366,1139.3987,690.3622,1139.8542,692.2244,1140.875,694.3127,1140.8509,694.3031,1141.543,692.2599,1142.3563,690.2652,1143.2539,688.3043,1143.861,686.2271,1144.875,684.3127,1145.0055,684.4432,1143.9264,684.9641,1143.2284,685.8661,1142.5768,686.8145,1141.6548,687.4925,1140.875,688.3127,1140.8911,688.3288,1140.0675,687.5052,1139.3171,686.7548,1138.5314,685.9691,1137.813,685.2507,1136.875,684.3127" style="stroke:#8B0000;stroke-width:1.0;"/><path d="M1537.875,653.6829 L1537.875,653.7763 L1539.875,653.4987 L1541.875,653.7688 L1543.875,653.8605 L1545.875,653.3658 L1547.875,653.6829 " fill="#8B0000" style="stroke:#8B0000;stroke-width:4.0;"/><path d="M1547.875,653.6829 L1547.9684,653.6829 L1547.6909,661.8088 L1547.9609,669.9348 L1548.0526,678.0608 L1547.5579,686.1867 L1547.875,694.3127 " fill="#8B0000" style="stroke:#8B0000;stroke-width:4.0;"/><polygon fill="#8B0000" points="1543.875,684.3127,1543.94,684.3387,1544.5468,686.2614,1545.5348,688.3366,1546.3987,690.3622,1546.8542,692.2244,1547.875,694.3127,1547.8509,694.3031,1548.543,692.2599,1549.3563,690.2652,1550.2539,688.3043,1550.861,686.2271,1551.875,684.3127,1552.0055,684.4432,1550.9264,684.9641,1550.2284,685.8661,1549.5768,686.8145,1548.6548,687.4925,1547.875,688.3127,1547.8911,688.3288,1547.0675,687.5052,1546.3171,686.7548,1545.5314,685.9691,1544.813,685.2507,1543.875,684.3127" style="stroke:#8B0000;stroke-width:1.0;"/><path d="M1140.875,806.2022 L1141.1552,806.2022 L1140.3226,816.231 L1141.1327,826.2599 L1141.4079,836.2887 L1139.9238,846.3176 L1140.7714,856.3465 L1140.3063,866.3753 L1140.3637,876.4042 L1140.7841,886.433 L1139.9532,896.4619 L1141.6132,906.4907 L1140.0346,916.5196 L1140.6113,926.5484 L1141.4509,936.5773 L1140.7606,946.6061 L1140.966,956.635 L1140.8324,966.6638 L1141.113,976.6927 L1140.875,986.7215 " fill="#8B0000" style="stroke:#8B0000;stroke-width:4.0;"/><path d="M1140.875,986.7215 L1140.875,987.0018 L1150.9539,986.1691 L1161.0329,986.9792 L1171.1118,987.2544 L1181.1908,985.7703 L1191.2697,986.6179 L1201.3487,986.1529 L1211.4276,986.2102 L1221.5066,986.6306 L1231.5855,985.7997 L1241.6645,987.4597 L1251.7434,985.8812 L1261.8224,986.4578 L1271.9013,987.2975 L1281.9803,986.6072 L1292.0592,986.8125 L1302.1382,986.6789 L1312.2171,986.9596 L1322.2961,987.0404 L1332.375,986.7215 " fill="#8B0000" style="stroke:#8B0000;stroke-width:4.0;"/><polygon fill="#8B0000" points="1322.375,982.7215,1322.401,982.7866,1324.3237,983.3933,1326.3989,984.3813,1328.4245,985.2452,1330.2867,985.7007,1332.375,986.7215,1332.3654,986.6975,1330.3222,987.3895,1328.3275,988.2028,1326.3666,989.1004,1324.2894,989.7076,1322.375,990.7215,1322.5055,990.852,1323.0264,989.773,1323.9284,989.0749,1324.8768,988.4233,1325.5548,987.5013,1326.375,986.7215,1326.3911,986.7376,1325.5675,985.914,1324.8171,985.1636,1324.0314,984.3779,1323.313,983.6596,1322.375,982.7215" style="stroke:#8B0000;stroke-width:1.0;"/><path d="M1547.875,968.7215 L1547.9684,968.7215 L1547.6909,972.3215 L1547.9609,975.9215 L1548.0526,979.5215 L1547.5579,983.1215 L1547.875,986.7215 " fill="#8B0000" style="stroke:#8B0000;stroke-width:4.0;"/><path d="M1547.875,986.7215 L1547.875,987.0018 L1537.7961,986.1691 L1527.7171,986.9792 L1517.6382,987.2544 L1507.5592,985.7703 L1497.4803,986.6179 L1487.4013,986.1529 L1477.3224,986.2102 L1467.2434,986.6306 L1457.1645,985.7997 L1447.0855,987.4597 L1437.0066,985.8812 L1426.9276,986.4578 L1416.8487,987.2975 L1406.7697,986.6072 L1396.6908,986.8125 L1386.6118,986.6789 L1376.5329,986.9596 L1366.4539,987.0404 L1356.375,986.7215 " fill="#8B0000" style="stroke:#8B0000;stroke-width:4.0;"/><polygon fill="#8B0000" points="1366.375,982.7215,1366.401,982.7866,1364.3237,983.3933,1362.3989,984.3813,1360.4245,985.2452,1358.2867,985.7007,1356.375,986.7215,1356.3654,986.6975,1358.3222,987.3895,1360.3275,988.2028,1362.3666,989.1004,1364.2894,989.7076,1366.375,990.7215,1366.5055,990.852,1365.4264,989.773,1364.7284,989.0749,1364.0768,988.4233,1363.1548,987.5013,1362.375,986.7215,1362.3911,986.7376,1363.1675,985.914,1364.0171,985.1636,1364.8314,984.3779,1365.713,983.6596,1366.375,982.7215" style="stroke:#8B0000;stroke-width:1.0;"/><path d="M886.125,567.1083 L886.125,567.3885 L875.6607,566.5558 L865.1964,567.366 L854.7321,567.6412 L844.2679,566.1571 L833.8036,567.0047 L823.3393,566.5396 L812.875,567.1083 " fill="#8B0000" style="stroke:#8B0000;stroke-width:4.0;"/><path d="M812.875,567.1083 L813.1552,567.1083 L812.3226,576.4324 L813.1327,585.7565 L813.4079,595.0807 L811.9238,604.4048 L812.7714,613.7289 L812.875,623.053 " fill="#8B0000" style="stroke:#8B0000;stroke-width:4.0;"/><polygon fill="#8B0000" points="808.875,613.053,808.94,613.079,809.5468,615.0017,810.5348,617.077,811.3987,619.1025,811.8542,620.9647,812.875,623.053,812.8509,623.0434,813.543,621.0002,814.3563,619.0056,815.2539,617.0446,815.861,614.9674,816.875,613.053,817.0055,613.1835,815.9264,613.7045,815.2284,614.6064,814.5768,615.5548,813.6548,616.2328,812.875,617.053,812.8911,617.0691,812.0675,616.2455,811.3171,615.4951,810.5314,614.7094,809.813,613.9911,808.875,613.053" style="stroke:#8B0000;stroke-width:1.0;"/><path d="M1271.125,567.1083 L1271.125,567.3885 L1281.5893,566.5558 L1292.0536,567.366 L1302.5179,567.6412 L1312.9821,566.1571 L1323.4464,567.0047 L1333.9107,566.5396 L1344.375,567.1083 " fill="#8B0000" style="stroke:#8B0000;stroke-width:4.0;"/><path d="M1344.375,567.1083 L1344.6552,567.1083 L1343.8226,576.4324 L1344.6327,585.7565 L1344.9079,595.0807 L1343.4238,604.4048 L1344.2714,613.7289 L1344.375,623.053 " fill="#8B0000" style="stroke:#8B0000;stroke-width:4.0;"/><polygon fill="#8B0000" points="1340.375,613.053,1340.44,613.079,1341.0468,615.0017,1342.0348,617.077,1342.8987,619.1025,1343.3542,620.9647,1344.375,623.053,1344.3509,623.0434,1345.043,621.0002,1345.8563,619.0056,1346.7539,617.0446,1347.361,614.9674,1348.375,613.053,1348.5055,613.1835,1347.4264,613.7045,1346.7284,614.6064,1346.0768,615.5548,1345.1548,616.2328,1344.375,617.053,1344.3911,617.0691,1343.5675,616.2455,1342.8171,615.4951,1342.0314,614.7094,1341.313,613.9911,1340.375,613.053" style="stroke:#8B0000;stroke-width:1.0;"/><path d="M812.875,704.3127 L813.1552,704.3127 L812.3226,714.3904 L813.1327,724.4681 L813.4079,734.5458 L811.9238,744.6235 L812.7714,754.7012 L812.3063,764.7789 L812.3637,774.8566 L812.7841,784.9343 L811.9532,795.012 L813.6132,805.0897 L812.0346,815.1674 L812.6113,825.2451 L813.4509,835.3228 L812.7606,845.4006 L812.966,855.4783 L812.8324,865.556 L813.113,875.6337 L813.1938,885.7114 L813.6559,895.7891 L813.7697,905.8668 L813.7807,915.9445 L813.2145,926.0222 L813.4931,936.0999 L813.8113,946.1776 L811.9134,956.2553 L813.7797,966.333 L812.4797,976.4107 L813.5867,986.4884 L812.215,996.5661 L812.7837,1006.6438 L812.875,1016.7215 " fill="#8B0000" style="stroke:#8B0000;stroke-width:4.0;"/><path d="M812.875,1016.7215 L812.875,1017.0018 L823.025,1016.1691 L833.175,1016.9792 L843.325,1017.2544 L853.475,1015.7703 L863.625,1016.6179 L873.775,1016.1529 L883.925,1016.2102 L894.075,1016.6306 L904.225,1015.7997 L914.375,1017.4597 L924.525,1015.8812 L934.675,1016.4578 L944.825,1017.2975 L954.975,1016.6072 L965.125,1016.8125 L975.275,1016.6789 L985.425,1016.9596 L995.575,1017.0404 L1005.725,1017.5024 L1015.875,1017.6163 L1026.025,1017.6272 L1036.175,1017.061 L1046.325,1017.3396 L1056.475,1017.6578 L1066.625,1016.7215 " fill="#8B0000" style="stroke:#8B0000;stroke-width:4.0;"/><polygon fill="#8B0000" points="1056.625,1012.7215,1056.651,1012.7866,1058.5737,1013.3933,1060.6489,1014.3813,1062.6745,1015.2452,1064.5367,1015.7007,1066.625,1016.7215,1066.6154,1016.6975,1064.5722,1017.3895,1062.5775,1018.2028,1060.6166,1019.1004,1058.5394,1019.7076,1056.625,1020.7215,1056.7555,1020.852,1057.2764,1019.773,1058.1784,1019.0749,1059.1268,1018.4233,1059.8048,1017.5013,1060.625,1016.7215,1060.6411,1016.7376,1059.8175,1015.914,1059.0671,1015.1636,1058.2814,1014.3779,1057.563,1013.6596,1056.625,1012.7215" style="stroke:#8B0000;stroke-width:1.0;"/><path d="M1344.375,998.7215 L1344.4684,998.7215 L1344.1909,1002.3215 L1344.4609,1005.9215 L1344.5526,1009.5215 L1344.0579,1013.1215 L1344.375,1016.7215 " fill="#8B0000" style="stroke:#8B0000;stroke-width:4.0;"/><path d="M1344.375,1016.7215 L1344.375,1017.0018 L1334.225,1016.1691 L1324.075,1016.9792 L1313.925,1017.2544 L1303.775,1015.7703 L1293.625,1016.6179 L1283.475,1016.1529 L1273.325,1016.2102 L1263.175,1016.6306 L1253.025,1015.7997 L1242.875,1017.4597 L1232.725,1015.8812 L1222.575,1016.4578 L1212.425,1017.2975 L1202.275,1016.6072 L1192.125,1016.8125 L1181.975,1016.6789 L1171.825,1016.9596 L1161.675,1017.0404 L1151.525,1017.5024 L1141.375,1017.6163 L1131.225,1017.6272 L1121.075,1017.061 L1110.925,1017.3396 L1100.775,1017.6578 L1090.625,1016.7215 " fill="#8B0000" style="stroke:#8B0000;stroke-width:4.0;"/><polygon fill="#8B0000" points="1100.625,1012.7215,1100.651,1012.7866,1098.5737,1013.3933,1096.6489,1014.3813,1094.6745,1015.2452,1092.5367,1015.7007,1090.625,1016.7215,1090.6154,1016.6975,1092.5722,1017.3895,1094.5775,1018.2028,1096.6166,1019.1004,1098.5394,1019.7076,1100.625,1020.7215,1100.7555,1020.852,1099.6764,1019.773,1098.9784,1019.0749,1098.3268,1018.4233,1097.4048,1017.5013,1096.625,1016.7215,1096.6411,1016.7376,1097.4175,1015.914,1098.2671,1015.1636,1099.0814,1014.3779,1099.963,1013.6596,1100.625,1012.7215" style="stroke:#8B0000;stroke-width:1.0;"/><path d="M650,495.8486 L650,496.1289 L640.125,495.2962 L630.25,496.1063 L620.375,496.3815 L610.5,494.8974 L600.625,495.745 L590.75,495.28 L580.875,495.3373 L571,495.7577 L561.125,494.9268 L551.25,496.5868 L541.375,495.0082 L531.5,495.5849 L521.625,496.4245 L511.75,495.7342 L501.875,495.9396 L492,495.806 L482.125,496.0866 L472.25,496.1675 L462.375,495.8486 " fill="#8B0000" style="stroke:#8B0000;stroke-width:4.0;"/><path d="M462.375,495.8486 L462.4684,495.8486 L462.1909,500.9116 L462.4609,505.9746 L462.5526,511.0376 L462.0579,516.1005 L462.375,521.1635 " fill="#8B0000" style="stroke:#8B0000;stroke-width:4.0;"/><polygon fill="#8B0000" points="458.375,511.1635,458.44,511.1895,459.0468,513.1122,460.0348,515.1875,460.8987,517.213,461.3542,519.0752,462.375,521.1635,462.3509,521.1539,463.043,519.1107,463.8563,517.1161,464.7539,515.1551,465.361,513.0779,466.375,511.1635,466.5055,511.294,465.4264,511.815,464.7284,512.7169,464.0768,513.6653,463.1548,514.3433,462.375,515.1635,462.3911,515.1796,461.5675,514.356,460.8171,513.6056,460.0314,512.8199,459.313,512.1016,458.375,511.1635" style="stroke:#8B0000;stroke-width:1.0;"/><path d="M891,495.8486 L891,496.1289 L900.875,495.2962 L910.75,496.1063 L920.625,496.3815 L930.5,494.8974 L940.375,495.745 L950.25,495.28 L960.125,495.3373 L970,495.7577 L979.875,494.9268 L989.75,496.5868 L999.625,495.0082 L1009.5,495.5849 L1019.375,496.4245 L1029.25,495.7342 L1039.125,495.9396 L1049,495.806 L1058.875,496.0866 L1068.75,496.1675 L1078.625,495.8486 " fill="#8B0000" style="stroke:#8B0000;stroke-width:4.0;"/><path d="M1078.625,495.8486 L1078.7184,495.8486 L1078.4409,500.9116 L1078.7109,505.9746 L1078.8026,511.0376 L1078.3079,516.1005 L1078.625,521.1635 " fill="#8B0000" style="stroke:#8B0000;stroke-width:4.0;"/><polygon fill="#8B0000" points="1074.625,511.1635,1074.69,511.1895,1075.2968,513.1122,1076.2848,515.1875,1077.1487,517.213,1077.6042,519.0752,1078.625,521.1635,1078.6009,521.1539,1079.293,519.1107,1080.1063,517.1161,1081.0039,515.1551,1081.611,513.0779,1082.625,511.1635,1082.7555,511.294,1081.6764,511.815,1080.9784,512.7169,1080.3268,513.6653,1079.4048,514.3433,1078.625,515.1635,1078.6411,515.1796,1077.8175,514.356,1077.0671,513.6056,1076.2814,512.8199,1075.563,512.1016,1074.625,511.1635" style="stroke:#8B0000;stroke-width:1.0;"/><path d="M462.375,571.7934 L462.6552,571.7934 L461.8226,581.8982 L462.6327,592.0031 L462.9079,602.1079 L461.4238,612.2128 L462.2714,622.3176 L461.8063,632.4225 L461.8637,642.5273 L462.2841,652.6322 L461.4532,662.7371 L463.1132,672.8419 L461.5346,682.9468 L462.1113,693.0516 L462.9509,703.1565 L462.2606,713.2613 L462.466,723.3662 L462.3324,733.471 L462.613,743.5759 L462.6938,753.6807 L463.1559,763.7856 L463.2697,773.8905 L463.2807,783.9953 L462.7145,794.1002 L462.9931,804.205 L463.3113,814.3099 L461.4134,824.4147 L463.2797,834.5196 L461.9797,844.6244 L463.0867,854.7293 L461.715,864.8341 L462.2837,874.939 L463.3638,885.0439 L462.31,895.1487 L462.5154,905.2536 L462.8265,915.3584 L462.93,925.4633 L462.3698,935.5681 L462.758,945.673 L461.6118,955.7778 L462.7542,965.8827 L463.1059,975.9875 L462.9677,986.0924 L463.1924,996.1973 L461.7309,1006.3021 L461.5054,1016.407 L461.5465,1026.5118 L462.2965,1036.6167 L462.375,1046.7215 " fill="#8B0000" style="stroke:#8B0000;stroke-width:4.0;"/><path d="M462.375,1046.7215 L462.375,1047.0018 L472.2458,1046.1691 L482.1167,1046.9792 L491.9875,1047.2544 L501.8583,1045.7703 L511.7292,1046.6179 L521.6,1046.1529 L531.4708,1046.2102 L541.3417,1046.6306 L551.2125,1045.7997 L561.0833,1047.4597 L570.9542,1045.8812 L580.825,1046.4578 L590.6958,1047.2975 L600.5667,1046.6072 L610.4375,1046.8125 L620.3083,1046.6789 L630.1792,1046.9596 L640.05,1047.0404 L649.9208,1047.5024 L659.7917,1047.6163 L669.6625,1047.6272 L679.5333,1047.061 L689.4042,1047.3396 L699.275,1047.6578 L709.1458,1045.7599 L719.0167,1047.6262 L728.8875,1046.3262 L738.7583,1047.4333 L748.6292,1046.0615 L758.5,1046.7215 " fill="#8B0000" style="stroke:#8B0000;stroke-width:4.0;"/><polygon fill="#8B0000" points="748.5,1042.7215,748.526,1042.7866,750.4487,1043.3933,752.5239,1044.3813,754.5495,1045.2452,756.4117,1045.7007,758.5,1046.7215,758.4904,1046.6975,756.4472,1047.3895,754.4525,1048.2028,752.4916,1049.1004,750.4144,1049.7076,748.5,1050.7215,748.6305,1050.852,749.1514,1049.773,750.0534,1049.0749,751.0018,1048.4233,751.6798,1047.5013,752.5,1046.7215,752.5161,1046.7376,751.6925,1045.914,750.9421,1045.1636,750.1564,1044.3779,749.438,1043.6596,748.5,1042.7215" style="stroke:#8B0000;stroke-width:1.0;"/><path d="M1078.625,1028.7215 L1078.7184,1028.7215 L1078.4409,1032.3215 L1078.7109,1035.9215 L1078.8026,1039.5215 L1078.3079,1043.1215 L1078.625,1046.7215 " fill="#8B0000" style="stroke:#8B0000;stroke-width:4.0;"/><path d="M1078.625,1046.7215 L1078.625,1047.0018 L1068.7542,1046.1691 L1058.8833,1046.9792 L1049.0125,1047.2544 L1039.1417,1045.7703 L1029.2708,1046.6179 L1019.4,1046.1529 L1009.5292,1046.2102 L999.6583,1046.6306 L989.7875,1045.7997 L979.9167,1047.4597 L970.0458,1045.8812 L960.175,1046.4578 L950.3042,1047.2975 L940.4333,1046.6072 L930.5625,1046.8125 L920.6917,1046.6789 L910.8208,1046.9596 L900.95,1047.0404 L891.0792,1047.5024 L881.2083,1047.6163 L871.3375,1047.6272 L861.4667,1047.061 L851.5958,1047.3396 L841.725,1047.6578 L831.8542,1045.7599 L821.9833,1047.6262 L812.1125,1046.3262 L802.2417,1047.4333 L792.3708,1046.0615 L782.5,1046.7215 " fill="#8B0000" style="stroke:#8B0000;stroke-width:4.0;"/><polygon fill="#8B0000" points="792.5,1042.7215,792.526,1042.7866,790.4487,1043.3933,788.5239,1044.3813,786.5495,1045.2452,784.4117,1045.7007,782.5,1046.7215,782.4904,1046.6975,784.4472,1047.3895,786.4525,1048.2028,788.4916,1049.1004,790.4144,1049.7076,792.5,1050.7215,792.6305,1050.852,791.5514,1049.773,790.8534,1049.0749,790.2018,1048.4233,789.2798,1047.5013,788.5,1046.7215,788.5161,1046.7376,789.2925,1045.914,790.1421,1045.1636,790.9564,1044.3779,791.838,1043.6596,792.5,1042.7215" style="stroke:#8B0000;stroke-width:1.0;"/><path d="M770.5,398.9851 L770.7802,398.9851 L769.9476,409.1787 L770.7577,419.3722 L771.0329,429.5658 L769.5488,439.7594 L770.3964,449.953 L769.9313,460.1465 L769.9887,470.3401 L770.5,480.5337 " fill="#8B0000" style="stroke:#8B0000;stroke-width:4.0;"/><polygon fill="#8B0000" points="766.5,470.5337,766.565,470.5597,767.1718,472.4824,768.1598,474.5576,769.0237,476.5832,769.4792,478.4454,770.5,480.5337,770.4759,480.5241,771.168,478.4809,771.9813,476.4862,772.8789,474.5253,773.486,472.4481,774.5,470.5337,774.6305,470.6642,773.5514,471.1851,772.8534,472.0871,772.2018,473.0355,771.2798,473.7135,770.5,474.5337,770.5161,474.5498,769.6925,473.7262,768.9421,472.9758,768.1564,472.1901,767.438,471.4717,766.5,470.5337" style="stroke:#8B0000;stroke-width:1.0;"/><!--SRC=[bLD1Rjj03Bph5UofjW6dT-SG14uA14tIecdHYu1W8z7I8YkkkqlPKLxVeMJ3S7kgBj9YoU5mPlJ1InNwcfyx9mDTN7ogdReb3gxXZaMNMOV05_gcHQ5U0w_e1XKKVCMIlJH5LfTmkVhifIPjcGo1ilBUfPfAcLLnEoJVj4fnBvme9agyJPm1xzJlU7vPI5IciMX5Zr6MclpEkq1YtroruYiNIjccM77EnUfNJA-qzzgUJzD8lTISm0baN6N5P9zzFi3d_vw5OScZmv4uxHCAWvEcXpu74VWSSXtxKDEFBy1Mt4_pxzqBXqoRc3eWGp2A6pggo5Ubq8CRNZ2aKdAPgk30E5zDm84tmBtJZvbyjuq9owcjMiUgDuzAETlKc5LHD3alcalnWWlh3AEZa1oB2lTgk-pTWE6dPt7tI5yVR-dR_VNwTb7u3SqGZ2Y010X8pSrZeTd0ULuGhNvcasQzde9oagJ0laopwrxRcFpxE9MUbBVqdN_tFd5jxOQ_Hi_hKjlKasiIyxJIQAvowh851XO3HWcTxzWe4qlic_OlCg1pzAewWSPKYlNHYyjSdnWIJHGbJht6vUaG95is-Aoqu3Tu4eO56BNHM9YxhTln8Lx_K0291_UAQodbUl9bRMx4GFT0X5bmoSlEU4BFX4IEVUTaZb0td7q30yVec18Hux1GXw0w2D5P4DmMOTrnQJ_jQFdiANPWC9weiroMWdJXfriUQklvvN74NOqolncevifdiwa3_pJByr80tYIBsq4r8pknbTflYkExEBp-0000]--></g></svg>