<?xml version="1.0" encoding="us-ascii" standalone="no"?><svg xmlns="http://www.w3.org/2000/svg" xmlns:xlink="http://www.w3.org/1999/xlink" contentStyleType="text/css" height="532px" preserveAspectRatio="none" style="width:1373px;height:532px;background:#FFFFFF;" version="1.1" viewBox="0 0 1373 532" width="1373px" zoomAndPan="magnify"><defs/><g><text fill="#000000" font-family="Chalkduster" font-size="42" font-weight="bold" lengthAdjust="spacing" textLength="444" x="463" y="61.7215">LDaCA data triage</text><polygon fill="#222222" points="780.8052,97.0346,779.3394,99.0375,777.6056,101.971,775.126,103.948,772.5203,105.0291,770.4427,105.123,767.7724,103.7709,765.2529,102.8876,763.3405,101.0942,762.3373,99.0411,761.7424,97.4063,761.1596,95.271,760.2136,93.4335,760.9406,91.6395,761.5775,89.6742,763.9675,88.1199,765.6491,86.1032,767.7304,85.4335,770.2047,84.8568,773.3776,85.1995,775.1155,86.0191,777.1361,86.3906,779.5929,88.9076,780.4493,91.5649,780.8214,93.378,780.4,96.3657" style="stroke:#222222;stroke-width:1.0;"/><polygon fill="#F1F1F1" points="523.25,199.1508,523.25,199.361,533.15,198.7365,543.05,199.3441,552.95,199.5505,562.85,198.4374,572.75,199.0731,582.65,198.7243,592.55,198.7673,602.45,199.0827,612.35,198.4595,622.25,199.7045,632.15,198.5205,642.05,198.9531,651.95,199.5828,661.85,199.0651,671.75,199.2191,681.65,199.1189,691.55,199.3294,701.45,199.39,711.35,199.7365,721.25,199.8219,731.15,199.8301,741.05,199.4055,750.95,199.6144,760.85,199.8531,770.75,198.4296,780.65,199.8293,790.55,198.8543,800.45,199.6846,810.35,198.6558,820.25,199.0823,830.15,199.8924,840.05,199.1021,849.95,199.2561,859.85,199.4895,869.75,199.5671,879.65,199.1469,889.55,199.438,899.45,198.5784,909.35,199.4352,919.25,199.699,929.15,199.5954,939.05,199.7639,948.95,198.6677,958.85,198.4986,968.75,198.5294,978.65,199.0919,988.55,198.9543,998.45,199.8322,1008.35,198.9761,1018.25,199.1508,1018.16,199.0803,1020.7099,202.2607,1022.875,205.1397,1025.3138,208.2331,1028.0203,211.5362,1030.25,214.4657,1030.3643,214.5553,1028.0427,217.6797,1025.3656,220.5256,1023.1338,223.7203,1020.8049,226.8391,1018.25,229.7807,1018.25,229.3083,1008.35,229.6848,998.45,229.9066,988.55,230.4324,978.65,229.7765,968.75,230.2432,958.85,229.2269,948.95,229.1034,939.05,230.2843,929.15,229.0637,919.25,230.2896,909.35,229.9873,899.45,229.5127,889.55,229.4269,879.65,230.2394,869.75,229.4813,859.85,230.3725,849.95,229.2279,840.05,230.3981,830.15,230.265,820.25,230.0256,810.35,229.8279,800.45,230.5073,790.55,230.3942,780.65,229.9499,770.75,230.0488,760.85,229.6504,750.95,230.4971,741.05,229.9355,731.15,229.9532,721.25,229.1723,711.35,229.3754,701.45,230.3114,691.55,230.2104,681.65,229.7377,671.75,229.4585,661.85,229.5617,651.95,229.0945,642.05,230.1954,632.15,230.5202,622.25,230.3071,612.35,230.4756,602.45,229.6439,592.55,229.8679,582.65,229.3931,572.75,230.0647,562.85,230.0274,552.95,230.333,543.05,229.551,533.15,229.6463,523.25,229.7807,523.3664,229.8718,520.9989,226.8343,518.3155,223.5493,515.9991,220.5519,513.6892,217.5594,511.25,214.4657,511.0897,214.3402,513.7427,211.4754,516.1177,208.3928,518.4236,205.2561,520.8873,202.2431,523.25,199.1508" style="stroke:#181818;stroke-width:0.5;"/><text fill="#000000" font-family="Chalkduster" font-size="24" lengthAdjust="spacing" textLength="495" x="523.25" y="222.9917">Service can be sustainably Managed</text><text fill="#000000" font-family="Chalkduster" font-size="24" lengthAdjust="spacing" textLength="42" x="469.25" y="207.6768">yes</text><text fill="#000000" font-family="Chalkduster" font-size="24" lengthAdjust="spacing" textLength="35" x="1030.25" y="207.6768">no</text><polygon fill="#F1F1F1" points="151,239.7807,151,239.9908,161,239.3663,171,239.9739,181,240.1803,191,239.0673,201,239.7029,211,239.3542,221,239.3972,231,239.7125,241,239.0893,251,240.3343,261,239.1504,271,239.5829,281,240.2126,291,239.6949,301,239.8489,311,239.7487,321,239.9592,331,240.0198,341,240.3664,351,240.4517,361,240.4599,371,240.0353,381,240.2442,391,240.4829,401,239.0595,411,240.4592,421,239.4842,431,240.3145,441,239.2856,451,239.7122,461,240.5223,471,239.7319,481,239.886,491,240.1193,501,240.1969,511,239.7768,521,240.0679,531,239.2082,541,240.065,551,240.3289,561,240.2252,571,240.3937,581,239.2976,591,239.1285,601,239.1593,611,239.7218,621,239.5841,631,240.4621,641,239.7807,640.9542,239.7447,643.31,242.7731,645.8599,245.9536,648.025,248.8325,650.4638,251.9259,653,255.0956,653.1703,255.229,650.7143,258.2481,648.3927,261.3725,645.7156,264.2184,643.4838,267.4131,641,270.4105,641,271.0009,631,269.9381,621,270.3146,611,270.5365,601,271.0623,591,270.4063,581,270.8731,571,269.8567,561,269.7332,551,270.9141,541,269.6936,531,270.9195,521,270.6171,511,270.1426,501,270.0567,491,270.8693,481,270.1112,471,271.0024,461,269.8577,451,271.0279,441,270.8948,431,270.6555,421,270.4577,411,271.1371,401,271.0241,391,270.5797,381,270.6787,371,270.2802,361,271.1269,351,270.5654,341,270.5831,331,269.8021,321,270.0053,311,270.9412,301,270.8403,291,270.3676,281,270.0883,271,270.1916,261,269.7243,251,270.8252,241,271.1501,231,270.9369,221,271.1054,211,270.2738,201,270.4977,191,270.0229,181,270.6945,171,270.6573,161,270.9629,151,270.4105,150.9397,270.3633,148.5647,267.3199,146.3164,264.3757,143.9489,261.3382,141.2655,258.0532,139,255.0956,138.9491,255.0557,141.4392,252.0633,143.6397,248.844,146.2927,245.9793,148.6677,242.8967,151,239.7807" style="stroke:#181818;stroke-width:0.5;"/><text fill="#000000" font-family="Chalkduster" font-size="24" lengthAdjust="spacing" textLength="490" x="151" y="263.6215">Need Preservation or working copy</text><text fill="#000000" font-family="Chalkduster" font-size="24" lengthAdjust="spacing" textLength="42" x="97" y="248.3066">yes</text><text fill="#000000" font-family="Chalkduster" font-size="24" lengthAdjust="spacing" textLength="35" x="653" y="248.3066">no</text><polygon fill="#F1F1F1" points="23.5,280.4105,23.5,280.6207,33.5476,279.9962,43.5952,280.6038,53.6429,280.8102,63.6905,279.6971,73.7381,280.3328,83.7857,279.984,93.8333,280.027,103.881,280.3423,113.9286,279.7191,123.9762,280.9641,134.0238,279.7802,144.0714,280.2127,154.119,280.8424,164.1667,280.3247,174.2143,280.4787,184.2619,280.3785,194.3095,280.589,204.3571,280.6496,214.4048,280.9962,224.4524,281.0815,234.5,280.4105,234.5866,280.6197,236.3002,281.2211,238.0947,282.0177,239.8929,282.8235,241.4791,283.1173,243.3388,284.0717,243.5478,284.1582,243.9798,285.8016,244.9677,287.6753,245.3831,289.3118,246.2467,291.134,247,292.9105,247.2472,292.9105,246.9838,298.0365,247.0351,303.1624,247.1129,308.2884,247.1387,313.4144,247,318.5403,246.9988,318.5398,246.3562,320.3447,245.3593,322.0028,244.8909,323.8799,244.2399,325.6813,243.3388,327.3792,243.3955,327.5161,241.6493,328.3002,239.7417,328.6949,237.9523,329.375,236.1885,330.1167,234.5,331.0403,234.5,330.9814,224.4524,330.8438,214.4048,331.7217,204.3571,330.8656,194.3095,330.6973,184.2619,331.2686,174.2143,330.3735,164.1667,330.5212,154.119,331.6893,144.0714,331.476,134.0238,331.7748,123.9762,330.7185,113.9286,331.3595,103.881,331.6307,93.8333,330.5679,83.7857,330.9445,73.7381,331.1663,63.6905,331.6921,53.6429,331.0361,43.5952,331.5029,33.5476,330.4865,23.5,331.0403,23.4136,330.8318,21.7965,330.4632,19.873,329.3551,18.2616,329.0004,16.4553,328.175,14.6612,327.3792,14.5787,327.345,13.82,325.5663,13.338,323.9021,12.3723,322.0377,11.9145,320.3836,11,318.5403,10.8158,318.5403,11.2058,313.4144,11.1614,308.2884,11.0817,303.1624,11.0157,298.0365,11,292.9105,11.2238,293.0032,11.9212,291.221,12.5166,289.3966,13.2793,287.6414,13.8888,285.8228,14.6612,284.0717,14.7526,284.2923,16.4487,283.3871,18.2187,282.6603,19.8869,281.6876,21.6805,281.0179,23.5,280.4105" style="stroke:#181818;stroke-width:0.5;"/><text fill="#000000" font-family="Chalkduster" font-size="24" lengthAdjust="spacing" textLength="216" x="21" y="314.2514">Create exporter</text><polygon fill="#F1F1F1" points="410.5,280.4105,410.5,280.6207,420.402,279.9962,430.3039,280.6038,440.2059,280.8102,450.1078,279.6971,460.0098,280.3328,469.9118,279.984,479.8137,280.027,489.7157,280.3423,499.6176,279.7191,509.5196,280.9641,519.4216,279.7802,529.3235,280.2127,539.2255,280.8424,549.1275,280.3247,559.0294,280.4787,568.9314,280.3785,578.8333,280.589,588.7353,280.6496,598.6373,280.9962,608.5392,281.0815,618.4412,281.0898,628.3431,280.6651,638.2451,280.8741,648.1471,281.1127,658.049,279.6893,667.951,281.089,677.8529,280.114,687.7549,280.9443,697.6569,279.9155,707.5588,280.342,717.4608,281.1521,727.3627,280.3618,737.2647,280.5158,747.1667,280.7491,757.0686,280.8267,766.9706,280.4066,776.8725,280.6977,786.7745,279.8381,796.6765,280.6949,806.5784,280.9587,816.4804,280.855,826.3824,281.0235,836.2843,279.9274,846.1863,279.7583,856.0882,279.7891,865.9902,280.3516,875.8922,280.214,885.7941,281.0919,895.6961,280.2358,905.598,280.0674,915.5,280.4105,915.5291,280.4808,917.1827,280.9374,918.9693,281.7151,920.8861,282.807,922.6266,283.4736,924.3388,284.0717,924.565,284.1654,924.972,285.7984,925.9016,287.6479,926.7174,289.4503,927.1223,291.0825,928,292.9105,927.968,292.9105,928.042,298.0365,928.2173,303.1624,927.9986,308.2884,928.1542,313.4144,928,318.5403,927.8295,318.4697,927.0592,320.2217,926.6906,322.1401,925.5825,323.7522,925.2278,325.6763,924.3388,327.3792,924.3652,327.4428,922.5369,328.0289,920.7582,328.7347,919.0941,329.7171,917.2296,330.2159,915.5,331.0403,915.5,331.6322,905.598,330.4876,895.6961,331.6578,885.7941,331.5246,875.8922,331.2853,865.9902,331.0875,856.0882,331.7669,846.1863,331.6539,836.2843,331.2096,826.3824,331.3085,816.4804,330.9101,806.5784,331.7568,796.6765,331.1952,786.7745,331.2129,776.8725,330.432,766.9706,330.6351,757.0686,331.5711,747.1667,331.4701,737.2647,330.9974,727.3627,330.7182,717.4608,330.8214,707.5588,330.3542,697.6569,331.4551,687.7549,331.7799,677.8529,331.5667,667.951,331.7353,658.049,330.9036,648.1471,331.1275,638.2451,330.6527,628.3431,331.3244,618.4412,331.2871,608.5392,331.5927,598.6373,330.8107,588.7353,330.9059,578.8333,331.4838,568.9314,331.6077,559.0294,330.5278,549.1275,330.8464,539.2255,331.1896,529.3235,330.4295,519.4216,331.3937,509.5196,331.2983,499.6176,330.9396,489.7157,331.1826,479.8137,331.769,469.9118,330.7275,460.0098,331.3553,450.1078,331.326,440.2059,331.1561,430.3039,331.1812,420.402,331.1538,410.5,331.0403,410.4204,330.8481,408.6811,330.1847,406.9056,329.4337,405.2048,328.8633,403.4402,328.1385,401.6612,327.3792,401.711,327.3998,400.8393,325.5743,400.1759,323.835,399.4274,322.0605,398.9099,320.3817,398,318.5403,398.1422,318.5403,397.8382,313.4144,397.9757,308.2884,397.8076,303.1624,398.0961,298.0365,398,292.9105,398.1874,292.9881,398.8999,291.2122,399.3303,289.3194,400.3396,287.6664,400.7002,285.7447,401.6612,284.0717,401.6867,284.1333,403.3908,283.2472,405.209,282.637,406.9951,281.949,408.7925,281.2881,410.5,280.4105" style="stroke:#181818;stroke-width:0.5;"/><text fill="#000000" font-family="Chalkduster" font-size="24" lengthAdjust="spacing" textLength="510" x="408" y="314.2514">Set up Harvester or other integration</text><polygon fill="none" points="674.0608,364.716,672.4484,366.9191,670.5412,370.146,667.8136,372.3207,664.9474,373.5099,662.662,373.6132,659.7247,372.1259,656.9532,371.1542,654.8495,369.1815,653.7461,366.9231,653.0917,365.1249,652.4506,362.776,651.41,360.7548,652.2096,358.7813,652.9102,356.6196,655.5393,354.9098,657.389,352.6914,659.6784,351.9548,662.4001,351.3204,665.8904,351.6973,667.8021,352.5989,670.0247,353.0075,672.7272,355.7763,673.6693,358.6993,674.0786,360.6937,673.615,363.9802" style="stroke:#222222;stroke-width:1.0;"/><polygon fill="#222222" points="669.0331,363.4998,668.1536,364.7015,667.1134,366.4616,665.6256,367.6478,664.0622,368.2965,662.8156,368.3528,661.2135,367.5415,659.7017,367.0116,658.5543,365.9355,657.9524,364.7037,657.5955,363.7228,657.2458,362.4416,656.6782,361.3391,657.1143,360.2627,657.4965,359.0835,658.9305,358.151,659.9394,356.9409,661.1882,356.5391,662.6728,356.1931,664.5766,356.3987,665.6193,356.8904,666.8317,357.1133,668.3057,358.6236,668.8196,360.2179,669.0429,361.3058,668.79,363.0984" style="stroke:#111111;stroke-width:1.0;"/><polygon fill="#F1F1F1" points="970.5,239.7807,970.5,239.9908,980.5,239.3663,990.5,239.9739,1000.5,240.1803,1010.5,239.0673,1020.5,239.7029,1030.5,239.3542,1040.5,239.3972,1050.5,239.7125,1060.5,239.0893,1070.5,240.3343,1080.5,239.1504,1090.5,239.5829,1100.5,240.2126,1110.5,239.6949,1120.5,239.8489,1130.5,239.7487,1140.5,239.9592,1150.5,240.0198,1160.5,240.3664,1170.5,240.4517,1180.5,240.4599,1190.5,240.0353,1200.5,240.2442,1210.5,240.4829,1220.5,239.0595,1230.5,240.4592,1240.5,239.4842,1250.5,240.3145,1260.5,239.2856,1270.5,239.7122,1280.5,240.5223,1290.5,239.7319,1300.5,239.886,1310.5,240.1193,1320.5,239.7807,1320.5531,239.9088,1322.2673,240.5117,1324.0722,241.3336,1325.7303,241.8011,1327.6073,242.7972,1329.3388,243.4418,1329.5077,243.5118,1330.208,245.2663,1330.9921,247.0556,1331.3868,248.6835,1332.0669,250.4297,1333,252.2807,1332.7929,252.2807,1332.9804,257.4066,1332.9345,262.5326,1333.2271,267.6586,1332.9418,272.7845,1333,277.9105,1332.8944,277.8667,1332.3381,279.7074,1331.3302,281.361,1330.6434,283.1476,1330.2709,285.0643,1329.3388,286.7493,1329.3944,286.8835,1327.6648,287.7078,1325.7623,288.1147,1324.0763,289.0443,1322.3431,289.8601,1320.5,290.4105,1320.5,289.9381,1310.5,290.3146,1300.5,290.5365,1290.5,291.0623,1280.5,290.4063,1270.5,290.8731,1260.5,289.8567,1250.5,289.7332,1240.5,290.9141,1230.5,289.6936,1220.5,290.9195,1210.5,290.6171,1200.5,290.1426,1190.5,290.0567,1180.5,290.8693,1170.5,290.1112,1160.5,291.0024,1150.5,289.8577,1140.5,291.0279,1130.5,290.8948,1120.5,290.6555,1110.5,290.4577,1100.5,291.1371,1090.5,291.0241,1080.5,290.5797,1070.5,290.6787,1060.5,290.2802,1050.5,291.1269,1040.5,290.5654,1030.5,290.5831,1020.5,289.8021,1010.5,290.0053,1000.5,290.9412,990.5,290.8403,980.5,290.3676,970.5,290.4105,970.4589,290.3113,968.7043,289.6108,966.8769,288.7347,965.2496,288.3415,963.5233,287.7093,961.6612,286.7493,961.8233,286.8165,961.1429,285.0702,960.1546,283.1964,959.4913,281.4572,958.6129,279.6288,958,277.9105,958.0947,277.9105,958.0823,272.7845,958.1841,267.6586,957.9234,262.5326,957.9552,257.4066,958,252.2807,958.1366,252.3372,958.9069,250.5853,959.3066,248.6797,960.137,246.9526,960.9749,245.2286,961.6612,243.4418,961.5832,243.2537,963.474,242.8184,965.2296,242.0568,966.9516,241.2141,968.7504,240.5567,970.5,239.7807" style="stroke:#181818;stroke-width:0.5;"/><text fill="#000000" font-family="Chalkduster" font-size="24" lengthAdjust="spacing" textLength="355" x="968" y="273.6215">Migrate / transform data</text><polygon fill="#F1F1F1" points="770.75,383.0403,770.7995,383.0899,773.0523,385.3427,775.5956,387.8859,778.0442,390.3345,780.1819,392.4722,782.75,395.0403,782.7317,395.022,780.2495,397.3398,777.8596,399.7499,775.5339,402.2243,772.987,404.4774,770.75,407.0403,770.8805,407.1708,768.2014,404.4918,765.9034,402.1937,763.6518,399.9421,761.1298,397.4201,758.75,395.0403,758.7661,395.0564,761.1425,392.6328,763.5921,390.2824,766.0064,387.8967,768.488,385.5784,770.75,383.0403" style="stroke:#181818;stroke-width:0.5;"/><polygon fill="#F1F1F1" points="568.75,135.2061,568.75,135.4163,578.85,134.7918,588.95,135.3994,599.05,135.6058,609.15,134.4927,619.25,135.1284,629.35,134.7796,639.45,134.8226,649.55,135.1379,659.65,134.5147,669.75,135.7597,679.85,134.5758,689.95,135.0083,700.05,135.638,710.15,135.1203,720.25,135.2743,730.35,135.1741,740.45,135.3846,750.55,135.4452,760.65,135.7918,770.75,135.8771,780.85,135.8853,790.95,135.4607,801.05,135.6697,811.15,135.9083,821.25,134.4849,831.35,135.8846,841.45,134.9096,851.55,135.7399,861.65,134.7111,871.75,135.1376,881.85,135.9477,891.95,135.1573,902.05,135.3114,912.15,135.5447,922.25,135.6223,932.35,135.2022,942.45,135.4933,952.55,134.6337,962.65,135.4905,972.75,135.2061,972.8938,135.3188,975.2666,138.3605,977.7108,141.4581,979.8232,144.2957,982.1789,147.3239,984.75,150.521,984.587,150.3932,982.3346,153.5719,979.8984,156.6066,977.7288,159.85,975.1042,162.737,972.75,165.8359,972.75,165.4929,962.65,166.0642,952.55,165.1691,942.45,165.3168,932.35,166.4849,922.25,166.2716,912.15,166.5704,902.05,165.5141,891.95,166.1551,881.85,166.4263,871.75,165.3635,861.65,165.7401,851.55,165.9619,841.45,166.4877,831.35,165.8317,821.25,166.2985,811.15,165.2821,801.05,165.1587,790.95,166.3395,780.85,165.119,770.75,166.3449,760.65,166.0425,750.55,165.568,740.45,165.4821,730.35,166.2947,720.25,165.5366,710.15,166.4278,700.05,165.2832,689.95,166.4533,679.85,166.3202,669.75,166.0809,659.65,165.8831,649.55,166.5625,639.45,166.4495,629.35,166.0052,619.25,166.1041,609.15,165.7056,599.05,166.5524,588.95,165.9908,578.85,166.0085,568.75,165.8359,568.5904,165.7108,566.2437,162.6896,564.0893,159.8191,561.6628,156.7353,559.1387,153.5752,556.75,150.521,556.6655,150.4548,559.0926,147.413,561.37,144.254,564.0588,141.4173,566.544,138.4211,568.75,135.2061" style="stroke:#181818;stroke-width:0.5;"/><text fill="#000000" font-family="Chalkduster" font-size="24" lengthAdjust="spacing" textLength="42" x="774.75" y="189.6768">yes</text><text fill="#000000" font-family="Chalkduster" font-size="24" lengthAdjust="spacing" textLength="404" x="568.75" y="159.047">Data is in an existing service</text><text fill="#000000" font-family="Chalkduster" font-size="24" lengthAdjust="spacing" textLength="35" x="984.75" y="143.732">no</text><polygon fill="#F1F1F1" points="770.75,427.0403,770.7995,427.0899,773.0523,429.3427,775.5956,431.8859,778.0442,434.3345,780.1819,436.4722,782.75,439.0403,782.7317,439.022,780.2495,441.3398,777.8596,443.7499,775.5339,446.2243,772.987,448.4774,770.75,451.0403,770.8805,451.1708,768.2014,448.4918,765.9034,446.1937,763.6518,443.9421,761.1298,441.4201,758.75,439.0403,758.7661,439.0564,761.1425,436.6328,763.5921,434.2824,766.0064,431.8967,768.488,429.5784,770.75,427.0403" style="stroke:#181818;stroke-width:0.5;"/><polygon fill="#F1F1F1" points="634.25,471.0403,634.25,471.2505,644.3611,470.626,654.4722,471.2336,664.5833,471.44,674.6944,470.3269,684.8056,470.9626,694.9167,470.6138,705.0278,470.6568,715.1389,470.9722,725.25,470.349,735.3611,471.594,745.4722,470.41,755.5833,470.8426,765.6944,471.4723,775.8056,470.9546,785.9167,471.1086,796.0278,471.0084,806.1389,471.2189,816.25,471.2795,826.3611,471.626,836.4722,471.7114,846.5833,471.7196,856.6944,471.295,866.8056,471.5039,876.9167,471.7426,887.0278,470.3191,897.1389,471.7188,907.25,471.0403,907.2122,470.949,909.0859,471.937,910.7224,472.3523,912.5446,473.2159,914.4157,474.1976,916.0888,474.7015,916.0738,474.6953,916.8535,476.4827,917.6576,478.2802,918.4137,480.0579,919.0166,481.7721,919.75,483.5403,919.8457,483.5403,919.5592,488.6663,919.8448,493.7923,919.9327,498.9182,919.8982,504.0442,919.75,509.1702,919.9388,509.2484,918.869,510.8763,918.0847,512.6225,917.3619,514.3942,916.8029,516.2337,916.0888,518.009,916.0638,517.9485,914.408,518.9511,912.531,519.4197,910.7418,520.1,909.0469,521.0082,907.25,521.6702,907.25,521.0033,897.1389,521.151,887.0278,522.3191,876.9167,522.1058,866.8056,522.4047,856.6944,521.3484,846.5833,521.9894,836.4722,522.2606,826.3611,521.1978,816.25,521.5743,806.1389,521.7961,796.0278,522.3219,785.9167,521.666,775.8056,522.1327,765.6944,521.1164,755.5833,520.9929,745.4722,522.1738,735.3611,520.9532,725.25,522.1791,715.1389,521.8768,705.0278,521.4022,694.9167,521.3164,684.8056,522.1289,674.6944,521.3708,664.5833,522.262,654.4722,521.1174,644.3611,522.2876,634.25,521.6702,634.3118,521.8193,632.5135,521.0134,630.7205,520.2202,629.0394,519.6972,627.2572,518.9302,625.4112,518.009,625.4633,518.0306,624.7615,516.2754,623.9066,514.4568,623.4351,512.7971,622.5299,510.9577,621.75,509.1702,621.8075,509.1702,621.5472,504.0442,621.6149,498.9182,621.9269,493.7923,621.8933,488.6663,621.75,483.5403,621.7368,483.5349,622.383,481.7315,623.147,479.9769,623.7354,478.1495,624.8067,476.5222,625.4112,474.7015,625.5055,474.9292,627.2461,474.1314,629.0353,473.451,630.697,472.4627,632.4934,471.7994,634.25,471.0403" style="stroke:#181818;stroke-width:0.5;"/><text fill="#000000" font-family="Chalkduster" font-size="24" lengthAdjust="spacing" textLength="278" x="631.75" y="504.8812">Set up Arkisto Stack</text><path d="M663,331.0403 L663.0934,331.0403 L662.8159,335.0403 L663.0859,339.0403 L663.1776,343.0403 L662.6829,347.0403 L663,351.0403 " fill="#8B0000" style="stroke:#8B0000;stroke-width:4.0;"/><polygon fill="#8B0000" points="659,341.0403,659.065,341.0663,659.6718,342.989,660.6598,345.0643,661.5237,347.0898,661.9792,348.952,663,351.0403,662.9759,351.0307,663.668,348.9875,664.4813,346.9929,665.3789,345.0319,665.986,342.9547,667,341.0403,667.1305,341.1708,666.0514,341.6918,665.3534,342.5937,664.7018,343.5421,663.7798,344.2201,663,345.0403,663.0161,345.0564,662.1925,344.2328,661.4421,343.4824,660.6564,342.6967,659.938,341.9784,659,341.0403" style="stroke:#8B0000;stroke-width:1.0;"/><path d="M139,255.0956 L139,255.189 L137,254.9114 L135,255.1815 L133,255.2732 L131,254.7785 L129,255.0956 " fill="#8B0000" style="stroke:#8B0000;stroke-width:4.0;"/><path d="M129,255.0956 L129.0934,255.0956 L128.8159,260.1586 L129.0859,265.2215 L129.1776,270.2845 L128.6829,275.3475 L129,280.4105 " fill="#8B0000" style="stroke:#8B0000;stroke-width:4.0;"/><polygon fill="#8B0000" points="125,270.4105,125.065,270.4365,125.6718,272.3592,126.6598,274.4344,127.5237,276.46,127.9792,278.3222,129,280.4105,128.9759,280.4009,129.668,278.3577,130.4813,276.363,131.3789,274.4021,131.986,272.3249,133,270.4105,133.1305,270.541,132.0514,271.0619,131.3534,271.9639,130.7018,272.9123,129.7798,273.5903,129,274.4105,129.0161,274.4266,128.1925,273.603,127.4421,272.8526,126.6564,272.0669,125.938,271.3485,125,270.4105" style="stroke:#8B0000;stroke-width:1.0;"/><path d="M653,255.0956 L653,255.189 L655,254.9114 L657,255.1815 L659,255.2732 L661,254.7785 L663,255.0956 " fill="#8B0000" style="stroke:#8B0000;stroke-width:4.0;"/><path d="M663,255.0956 L663.0934,255.0956 L662.8159,260.1586 L663.0859,265.2215 L663.1776,270.2845 L662.6829,275.3475 L663,280.4105 " fill="#8B0000" style="stroke:#8B0000;stroke-width:4.0;"/><polygon fill="#8B0000" points="659,270.4105,659.065,270.4365,659.6718,272.3592,660.6598,274.4344,661.5237,276.46,661.9792,278.3222,663,280.4105,662.9759,280.4009,663.668,278.3577,664.4813,276.363,665.3789,274.4021,665.986,272.3249,667,270.4105,667.1305,270.541,666.0514,271.0619,665.3534,271.9639,664.7018,272.9123,663.7798,273.5903,663,274.4105,663.0161,274.4266,662.1925,273.603,661.4421,272.8526,660.6564,272.0669,659.938,271.3485,659,270.4105" style="stroke:#8B0000;stroke-width:1.0;"/><path d="M129,331.0403 L129.2802,331.0403 L128.4476,341.707 L129.2577,352.3737 L129.5329,363.0403 L128.0488,373.707 L128.8964,384.3737 L129,395.0403 " fill="#8B0000" style="stroke:#8B0000;stroke-width:4.0;"/><path d="M129,395.0403 L129,395.3206 L138.996,394.4879 L148.9921,395.298 L158.9881,395.5732 L168.9841,394.0891 L178.9802,394.9367 L188.9762,394.4717 L198.9722,394.529 L208.9683,394.9495 L218.9643,394.1185 L228.9603,395.7785 L238.9563,394.2 L248.9524,394.7766 L258.9484,395.6163 L268.9444,394.926 L278.9405,395.1313 L288.9365,394.9977 L298.9325,395.2784 L308.9286,395.3592 L318.9246,395.8212 L328.9206,395.9351 L338.9167,395.946 L348.9127,395.3798 L358.9087,395.6584 L368.9048,395.9766 L378.9008,394.0787 L388.8968,395.945 L398.8929,394.645 L408.8889,395.7521 L418.8849,394.3803 L428.881,394.949 L438.877,396.0291 L448.873,394.9753 L458.869,395.1807 L468.8651,395.4918 L478.8611,395.5953 L488.8571,395.0351 L498.8532,395.4233 L508.8492,394.2771 L518.8452,395.4195 L528.8413,395.7713 L538.8373,395.633 L548.8333,395.8577 L558.8294,394.3962 L568.8254,394.1707 L578.8214,394.2118 L588.8175,394.9618 L598.8135,394.7783 L608.8095,395.9489 L618.8056,394.8074 L628.8016,394.5829 L638.7976,395.3447 L648.7937,394.1512 L658.7897,394.3482 L668.7857,395.9056 L678.7817,395.6212 L688.7778,396.0196 L698.7738,394.6113 L708.7698,395.4659 L718.7659,395.8276 L728.7619,394.4105 L738.7579,394.9125 L748.754,395.2083 L758.75,395.0403 " fill="#8B0000" style="stroke:#8B0000;stroke-width:4.0;"/><polygon fill="#8B0000" points="748.75,391.0403,748.776,391.1054,750.6987,391.7121,752.7739,392.7001,754.7995,393.564,756.6617,394.0195,758.75,395.0403,758.7404,395.0163,756.6972,395.7083,754.7025,396.5216,752.7416,397.4192,750.6644,398.0264,748.75,399.0403,748.8805,399.1708,749.4014,398.0918,750.3034,397.3937,751.2518,396.7421,751.9298,395.8201,752.75,395.0403,752.7661,395.0564,751.9425,394.2328,751.1921,393.4824,750.4064,392.6967,749.688,391.9784,748.75,391.0403" style="stroke:#8B0000;stroke-width:1.0;"/><path d="M511.25,214.4657 L511.25,214.746 L501.6458,213.9133 L492.0417,214.7235 L482.4375,214.9986 L472.8333,213.5146 L463.2292,214.3621 L453.625,213.8971 L444.0208,213.9544 L434.4167,214.3749 L424.8125,213.5439 L415.2083,215.2039 L405.6042,213.6254 L396,214.4657 " fill="#8B0000" style="stroke:#8B0000;stroke-width:4.0;"/><path d="M396,214.4657 L396.0934,214.4657 L395.8159,219.5287 L396.0859,224.5917 L396.1776,229.6547 L395.6829,234.7177 L396,239.7807 " fill="#8B0000" style="stroke:#8B0000;stroke-width:4.0;"/><polygon fill="#8B0000" points="392,229.7807,392.065,229.8067,392.6718,231.7294,393.6598,233.8046,394.5237,235.8301,394.9792,237.6923,396,239.7807,395.9759,239.771,396.668,237.7279,397.4813,235.7332,398.3789,233.7722,398.986,231.6951,400,229.7807,400.1305,229.9112,399.0514,230.4321,398.3534,231.334,397.7018,232.2825,396.7798,232.9604,396,233.7807,396.0161,233.7967,395.1925,232.9731,394.4421,232.2227,393.6564,231.437,392.938,230.7187,392,229.7807" style="stroke:#8B0000;stroke-width:1.0;"/><path d="M1030.25,214.4657 L1030.25,214.746 L1039.8542,213.9133 L1049.4583,214.7235 L1059.0625,214.9986 L1068.6667,213.5146 L1078.2708,214.3621 L1087.875,213.8971 L1097.4792,213.9544 L1107.0833,214.3749 L1116.6875,213.5439 L1126.2917,215.2039 L1135.8958,213.6254 L1145.5,214.4657 " fill="#8B0000" style="stroke:#8B0000;stroke-width:4.0;"/><path d="M1145.5,214.4657 L1145.5934,214.4657 L1145.3159,219.5287 L1145.5859,224.5917 L1145.6776,229.6547 L1145.1829,234.7177 L1145.5,239.7807 " fill="#8B0000" style="stroke:#8B0000;stroke-width:4.0;"/><polygon fill="#8B0000" points="1141.5,229.7807,1141.565,229.8067,1142.1718,231.7294,1143.1598,233.8046,1144.0237,235.8301,1144.4792,237.6923,1145.5,239.7807,1145.4759,239.771,1146.168,237.7279,1146.9813,235.7332,1147.8789,233.7722,1148.486,231.6951,1149.5,229.7807,1149.6305,229.9112,1148.5514,230.4321,1147.8534,231.334,1147.2018,232.2825,1146.2798,232.9604,1145.5,233.7807,1145.5161,233.7967,1144.6925,232.9731,1143.9421,232.2227,1143.1564,231.437,1142.438,230.7187,1141.5,229.7807" style="stroke:#8B0000;stroke-width:1.0;"/><path d="M1145.5,290.4105 L1145.7802,290.4105 L1144.9476,300.8735 L1145.7577,311.3365 L1146.0329,321.7994 L1144.5488,332.2624 L1145.3964,342.7254 L1144.9313,353.1884 L1144.9887,363.6514 L1145.4091,374.1144 L1144.5782,384.5773 L1145.5,395.0403 " fill="#8B0000" style="stroke:#8B0000;stroke-width:4.0;"/><path d="M1145.5,395.0403 L1145.5,395.3206 L1135.4236,394.4879 L1125.3472,395.298 L1115.2708,395.5732 L1105.1944,394.0891 L1095.1181,394.9367 L1085.0417,394.4717 L1074.9653,394.529 L1064.8889,394.9495 L1054.8125,394.1185 L1044.7361,395.7785 L1034.6597,394.2 L1024.5833,394.7766 L1014.5069,395.6163 L1004.4306,394.926 L994.3542,395.1313 L984.2778,394.9977 L974.2014,395.2784 L964.125,395.3592 L954.0486,395.8212 L943.9722,395.9351 L933.8958,395.946 L923.8194,395.3798 L913.7431,395.6584 L903.6667,395.9766 L893.5903,394.0787 L883.5139,395.945 L873.4375,394.645 L863.3611,395.7521 L853.2847,394.3803 L843.2083,394.949 L833.1319,396.0291 L823.0556,394.9753 L812.9792,395.1807 L802.9028,395.4918 L792.8264,395.5953 L782.75,395.0403 " fill="#8B0000" style="stroke:#8B0000;stroke-width:4.0;"/><polygon fill="#8B0000" points="792.75,391.0403,792.776,391.1054,790.6987,391.7121,788.7739,392.7001,786.7995,393.564,784.6617,394.0195,782.75,395.0403,782.7404,395.0163,784.6972,395.7083,786.7025,396.5216,788.7416,397.4192,790.6644,398.0264,792.75,399.0403,792.8805,399.1708,791.8014,398.0918,791.1034,397.3937,790.4518,396.7421,789.5298,395.8201,788.75,395.0403,788.7661,395.0564,789.5425,394.2328,790.3921,393.4824,791.2064,392.6967,792.088,391.9784,792.75,391.0403" style="stroke:#8B0000;stroke-width:1.0;"/><path d="M770.75,165.8359 L770.8434,165.8359 L770.5659,172.4989 L770.8359,179.1619 L770.9276,185.8249 L770.4329,192.4878 L770.75,199.1508 " fill="#8B0000" style="stroke:#8B0000;stroke-width:4.0;"/><polygon fill="#8B0000" points="766.75,189.1508,766.815,189.1768,767.4218,191.0995,768.4098,193.1748,769.2737,195.2003,769.7292,197.0625,770.75,199.1508,770.7259,199.1412,771.418,197.098,772.2313,195.1034,773.1289,193.1424,773.736,191.0652,774.75,189.1508,774.8805,189.2813,773.8014,189.8023,773.1034,190.7042,772.4518,191.6526,771.5298,192.3306,770.75,193.1508,770.7661,193.1669,769.9425,192.3433,769.1921,191.5929,768.4064,190.8072,767.688,190.0889,766.75,189.1508" style="stroke:#8B0000;stroke-width:1.0;"/><path d="M984.75,150.521 L984.75,150.8012 L994.8125,149.9686 L1004.875,150.7787 L1014.9375,151.0539 L1025,149.5698 L1035.0625,150.4174 L1045.125,149.9523 L1055.1875,150.0097 L1065.25,150.4301 L1075.3125,149.5992 L1085.375,151.2592 L1095.4375,149.6806 L1105.5,150.2573 L1115.5625,151.0969 L1125.625,150.4066 L1135.6875,150.612 L1145.75,150.4784 L1155.8125,150.759 L1165.875,150.8398 L1175.9375,151.3019 L1186,151.4157 L1196.0625,151.4267 L1206.125,150.8605 L1216.1875,151.1391 L1226.25,151.4573 L1236.3125,149.5594 L1246.375,151.4257 L1256.4375,150.1257 L1266.5,151.2327 L1276.5625,149.861 L1286.625,150.4297 L1296.6875,151.5098 L1306.75,150.456 L1316.8125,150.6614 L1326.875,150.9725 L1336.9375,151.076 L1347,150.521 " fill="#8B0000" style="stroke:#8B0000;stroke-width:4.0;"/><polygon fill="#8B0000" points="1343,299.9381,1343.065,299.9641,1343.6718,301.8868,1344.6598,303.962,1345.5237,305.9876,1345.9792,307.8498,1347,309.9381,1346.9759,309.9285,1347.668,307.8853,1348.4813,305.8906,1349.3789,303.9297,1349.986,301.8525,1351,299.9381,1351.1305,300.0686,1350.0514,300.5896,1349.3534,301.4915,1348.7018,302.4399,1347.7798,303.1179,1347,303.9381,1347.0161,303.9542,1346.1925,303.1306,1345.4421,302.3802,1344.6564,301.5945,1343.938,300.8762,1343,299.9381" style="stroke:#8B0000;stroke-width:4.0;"/><path d="M1347,150.521 L1347.2802,150.521 L1346.4476,160.4699 L1347.2577,170.4189 L1347.5329,180.3678 L1346.0488,190.3168 L1346.8964,200.2657 L1346.4313,210.2146 L1346.4887,220.1636 L1346.9091,230.1125 L1346.0782,240.0615 L1347.7382,250.0104 L1346.1596,259.9594 L1346.7363,269.9083 L1347.5759,279.8572 L1346.8856,289.8062 L1347.091,299.7551 L1346.9574,309.7041 L1347.238,319.653 L1347.3188,329.602 L1347.7809,339.5509 L1347.8947,349.4998 L1347.9057,359.4488 L1347.3395,369.3977 L1347.6181,379.3467 L1347.9363,389.2956 L1346.0384,399.2446 L1347.9047,409.1935 L1346.6047,419.1424 L1347.7117,429.0914 L1347,439.0403 " fill="#8B0000" style="stroke:#8B0000;stroke-width:4.0;"/><path d="M1347,439.0403 L1347,439.3206 L1336.9241,438.4879 L1326.8482,439.298 L1316.7723,439.5732 L1306.6964,438.0891 L1296.6205,438.9367 L1286.5446,438.4717 L1276.4688,438.529 L1266.3929,438.9495 L1256.317,438.1185 L1246.2411,439.7785 L1236.1652,438.2 L1226.0893,438.7766 L1216.0134,439.6163 L1205.9375,438.926 L1195.8616,439.1313 L1185.7857,438.9977 L1175.7098,439.2784 L1165.6339,439.3592 L1155.558,439.8212 L1145.4821,439.9351 L1135.4063,439.946 L1125.3304,439.3798 L1115.2545,439.6584 L1105.1786,439.9766 L1095.1027,438.0787 L1085.0268,439.945 L1074.9509,438.645 L1064.875,439.7521 L1054.7991,438.3803 L1044.7232,438.949 L1034.6473,440.0291 L1024.5714,438.9753 L1014.4955,439.1807 L1004.4196,439.4918 L994.3438,439.5953 L984.2679,439.0351 L974.192,439.4233 L964.1161,438.2771 L954.0402,439.4195 L943.9643,439.7713 L933.8884,439.633 L923.8125,439.8577 L913.7366,438.3962 L903.6607,438.1707 L893.5848,438.2118 L883.5089,438.9618 L873.433,438.7783 L863.3571,439.9489 L853.2813,438.8074 L843.2054,438.5829 L833.1295,439.3447 L823.0536,438.1512 L812.9777,438.3482 L802.9018,439.9056 L792.8259,439.6212 L782.75,439.0403 " fill="#8B0000" style="stroke:#8B0000;stroke-width:4.0;"/><polygon fill="#8B0000" points="792.75,435.0403,792.776,435.1054,790.6987,435.7121,788.7739,436.7001,786.7995,437.564,784.6617,438.0195,782.75,439.0403,782.7404,439.0163,784.6972,439.7083,786.7025,440.5216,788.7416,441.4192,790.6644,442.0264,792.75,443.0403,792.8805,443.1708,791.8014,442.0918,791.1034,441.3937,790.4518,440.7421,789.5298,439.8201,788.75,439.0403,788.7661,439.0564,789.5425,438.2328,790.3921,437.4824,791.2064,436.6967,792.088,435.9784,792.75,435.0403" style="stroke:#8B0000;stroke-width:1.0;"/><path d="M770.75,407.0403 L770.8434,407.0403 L770.5659,411.0403 L770.8359,415.0403 L770.9276,419.0403 L770.4329,423.0403 L770.75,427.0403 " fill="#8B0000" style="stroke:#8B0000;stroke-width:4.0;"/><polygon fill="#8B0000" points="766.75,417.0403,766.815,417.0663,767.4218,418.989,768.4098,421.0643,769.2737,423.0898,769.7292,424.952,770.75,427.0403,770.7259,427.0307,771.418,424.9875,772.2313,422.9929,773.1289,421.0319,773.736,418.9547,774.75,417.0403,774.8805,417.1708,773.8014,417.6918,773.1034,418.5937,772.4518,419.5421,771.5298,420.2201,770.75,421.0403,770.7661,421.0564,769.9425,420.2328,769.1921,419.4824,768.4064,418.6967,767.688,417.9784,766.75,417.0403" style="stroke:#8B0000;stroke-width:1.0;"/><path d="M770.75,104.6022 L770.8434,104.6022 L770.5659,110.723 L770.8359,116.8438 L770.9276,122.9645 L770.4329,129.0853 L770.75,135.2061 " fill="#8B0000" style="stroke:#8B0000;stroke-width:4.0;"/><polygon fill="#8B0000" points="766.75,125.2061,766.815,125.2321,767.4218,127.1548,768.4098,129.23,769.2737,131.2556,769.7292,133.1178,770.75,135.2061,770.7259,135.1965,771.418,133.1533,772.2313,131.1586,773.1289,129.1976,773.736,127.1205,774.75,125.2061,774.8805,125.3366,773.8014,125.8575,773.1034,126.7595,772.4518,127.7079,771.5298,128.3859,770.75,129.2061,770.7661,129.2222,769.9425,128.3985,769.1921,127.6482,768.4064,126.8624,767.688,126.1441,766.75,125.2061" style="stroke:#8B0000;stroke-width:1.0;"/><path d="M770.75,451.0403 L770.8434,451.0403 L770.5659,455.0403 L770.8359,459.0403 L770.9276,463.0403 L770.4329,467.0403 L770.75,471.0403 " fill="#8B0000" style="stroke:#8B0000;stroke-width:4.0;"/><polygon fill="#8B0000" points="766.75,461.0403,766.815,461.0663,767.4218,462.989,768.4098,465.0643,769.2737,467.0898,769.7292,468.952,770.75,471.0403,770.7259,471.0307,771.418,468.9875,772.2313,466.9929,773.1289,465.0319,773.736,462.9547,774.75,461.0403,774.8805,461.1708,773.8014,461.6918,773.1034,462.5937,772.4518,463.5421,771.5298,464.2201,770.75,465.0403,770.7661,465.0564,769.9425,464.2328,769.1921,463.4824,768.4064,462.6967,767.688,461.9784,766.75,461.0403" style="stroke:#8B0000;stroke-width:1.0;"/><!--SRC=[PP2nSi9034Jx-ufDPmgWnnK3HOh0P8OFo0XR40tsdKSd2FxxtDau8PFhJjfzMkb5VDLSQ_veoVTOB9Or6StJXyxSihTvjBxXXTtDEHDhU8MtBMtMo3gOIjAvQAIfBoSKsroM2F4W3xvBDF5dHDQRL3o3VR97qNESEJWWMmvZ3rKo71dncd3YwTZqs0qvwhysZBOzSurtvOmca-0H55z1BtbU5Rh-dmjORPJ9EENgWXfhETIvYOp2Xn_LWGtN3g-aDuv9biaXmJIjPNpMOLpvK2DQw4QEh-NaddXuUXDx9zdFMARZaO-deErmouoR00-3-mqsTjoKR9ssJ6DnCAekvJS0]--></g></svg>