<?xml version="1.0" encoding="us-ascii" standalone="no"?><svg xmlns="http://www.w3.org/2000/svg" xmlns:xlink="http://www.w3.org/1999/xlink" contentStyleType="text/css" height="948px" preserveAspectRatio="none" style="width:2410px;height:948px;background:#FFFFFF;" version="1.1" viewBox="0 0 2410 948" width="2410px" zoomAndPan="magnify"><defs/><g><text fill="#000000" font-family="Chalkduster" font-size="42" font-weight="bold" lengthAdjust="spacing" textLength="345" x="1031.2188" y="61.7215">Data licensing</text><polygon fill="#222222" points="804.5552,97.0346,803.0894,99.0375,801.3556,101.971,798.876,103.948,796.2703,105.0291,794.1927,105.123,791.5224,103.7709,789.0029,102.8876,787.0905,101.0942,786.0873,99.0411,785.4924,97.4063,784.9096,95.271,783.9636,93.4335,784.6906,91.6395,785.3275,89.6742,787.7175,88.1199,789.3991,86.1032,791.4804,85.4335,793.9547,84.8568,797.1276,85.1995,798.8655,86.0191,800.8861,86.3906,803.3429,88.9076,804.1993,91.5649,804.5714,93.378,804.15,96.3657" style="stroke:#222222;stroke-width:1.0;"/><path d="M1070.5,129.6022 L1070.6868,129.6022 L1070.1317,135.9282 L1070.6718,142.2541 L1070.8553,148.5801 L1069.8659,154.9061 L1070.5,161.232 L1070.4865,161.1643 L1066.4257,161.6603 L1062.4331,162.4978 L1058.4881,163.5726 L1054.3795,163.8294 L1050.5,165.232 L1050.5965,165.7146 L1054.3901,165.4827 L1058.4655,166.6597 L1062.5753,168.0085 L1066.485,168.3573 L1070.5,169.232 L1070.5607,169.232 L1070.4716,175.558 L1070.6587,181.884 L1070.7126,188.2099 L1071.0206,194.5359 L1070.5,200.8619 L1070.5,200.8619 L1070.5,202.6514 L1080.4737,202.6732 L1090.4474,201.5409 L1100.4211,202.0981 L1110.3947,202.7345 L1120.3684,198.9387 L1130.3421,202.6712 L1140.3158,200.0712 L1150.2895,202.2854 L1160.2632,199.5418 L1170.2368,200.6792 L1180.2105,202.8395 L1190.1842,200.7319 L1200.1579,201.1427 L1210.1316,201.7649 L1220.1053,201.9718 L1230.0789,200.8515 L1240.0526,201.6278 L1250.0263,199.3354 L1260,201.6202 L1269.9737,202.3237 L1279.9474,202.0473 L1289.9211,202.4966 L1299.8947,199.5737 L1309.8684,199.1227 L1319.8421,199.2048 L1329.8158,200.7049 L1339.7895,200.3378 L1349.7632,202.679 L1359.7368,200.3961 L1369.7105,199.9471 L1379.6842,201.4706 L1389.6579,199.0836 L1399.6316,199.4775 L1409.6053,202.5924 L1419.5789,202.0237 L1429.5526,202.8205 L1439.5263,200.0038 L1449.5,200.8619 L1449.5,200.8619 L1450.3512,200.8619 L1451.0745,190.6519 L1448.2403,180.442 L1449.2444,170.232 L1449.836,160.0221 L1451.238,149.8122 L1449.5,139.6022 L1449.4974,139.5996 L1447.7907,137.893 L1445.1519,135.2541 L1443.0743,133.1765 L1441.8165,131.9188 L1439.5,129.6022 L1439.5,127.6904 L1429.527,130.9594 L1419.5541,130.1532 L1409.5811,128.8878 L1399.6081,128.6588 L1389.6351,130.8256 L1379.6622,128.804 L1369.6892,131.1805 L1359.7162,128.1282 L1349.7432,131.2487 L1339.7703,130.8937 L1329.7973,130.2555 L1319.8243,129.7281 L1309.8514,131.5398 L1299.8784,131.2384 L1289.9054,130.0536 L1279.9324,130.3174 L1269.9595,129.2548 L1259.9865,131.5127 L1250.0135,130.0152 L1240.0405,130.0624 L1230.0676,127.9799 L1220.0946,128.5216 L1210.1216,131.0175 L1200.1486,130.7482 L1190.1757,129.4877 L1180.2027,128.7431 L1170.2297,129.0184 L1160.2568,127.7724 L1150.2838,130.7082 L1140.3108,131.5744 L1130.3378,131.0059 L1120.3649,131.4554 L1110.3919,129.2376 L1100.4189,129.8348 L1090.4459,128.5686 L1080.473,130.3597 L1070.5,129.6022 L1070.5,129.6022 " fill="#FFFFE0" style="stroke:#181818;stroke-width:4.0;"/><path d="M1439.5,129.6022 L1439.6868,129.6022 L1439.1317,131.6022 L1439.6718,133.6022 L1439.8553,135.6022 L1438.8659,137.6022 L1439.5,139.6022 L1439.5,139.5331 L1441.5,139.2231 L1443.5,139.2613 L1445.5,139.5416 L1447.5,138.9877 L1449.5,139.6022 L1449.848,139.9502 L1447.1038,137.2061 L1445.3757,135.4779 L1443.7715,133.8737 L1441.4461,131.5483 L1439.5,129.6022 " fill="#FFFFE0" style="stroke:#181818;stroke-width:4.0;"/><text fill="#000000" font-family="Chalkduster" font-size="24" lengthAdjust="spacing" textLength="358" x="1076.5" y="158.4431">Non-trivial non-technical</text><text fill="#000000" font-family="Chalkduster" font-size="24" lengthAdjust="spacing" textLength="99" x="1076.5" y="189.0729">process</text><polygon fill="#F1F1F1" points="551,124.6022,551,124.8124,560.9388,124.1879,570.8776,124.7955,580.8163,125.0019,590.7551,123.8888,600.6939,124.5245,610.6327,124.1757,620.5714,124.2187,630.5102,124.5341,640.449,123.9108,650.3878,125.1559,660.3265,123.9719,670.2653,124.4044,680.2041,125.0342,690.1429,124.5164,700.0816,124.6704,710.0204,124.5703,719.9592,124.7807,729.898,124.8413,739.8367,125.1879,749.7755,125.2733,759.7143,125.2815,769.6531,124.8568,779.5918,125.0658,789.5306,125.3044,799.4694,123.881,809.4082,125.2807,819.3469,124.3057,829.2857,125.136,839.2245,124.1072,849.1633,124.5337,859.102,125.3438,869.0408,124.5535,878.9796,124.7075,888.9184,124.9408,898.8571,125.0184,908.7959,124.5983,918.7347,124.8894,928.6735,124.0298,938.6122,124.8866,948.551,125.1504,958.4898,125.0467,968.4286,125.2152,978.3673,124.1191,988.3061,123.95,998.2449,123.9808,1008.1837,124.5433,1018.1224,124.4057,1028.0612,125.2836,1038,124.6022,1037.9777,124.5484,1039.724,125.2288,1041.5647,126.137,1043.2182,126.5936,1045.0048,127.3713,1046.8388,128.2634,1047.0387,128.3462,1047.7052,130.0867,1048.5295,131.8926,1048.9364,133.5256,1049.8661,135.3752,1050.5,137.1022,1051.0904,137.1022,1050.0276,146.4788,1050.4041,155.8554,1050.626,165.232,1051.1518,174.6087,1050.4958,183.9853,1050.5,193.3619,1050.6425,193.4209,1049.5972,195.059,1048.827,196.811,1048.4584,198.7294,1047.3503,200.3415,1046.8388,202.2007,1046.9038,202.3575,1045.0974,202.9966,1043.2691,203.5827,1041.4904,204.2885,1039.8263,205.2709,1038,205.8619,1038,205.5625,1028.0612,206.4537,1018.1224,205.3091,1008.1837,206.4793,998.2449,206.3462,988.3061,206.1068,978.3673,205.9091,968.4286,206.5885,958.4898,206.4755,948.551,206.0311,938.6122,206.1301,928.6735,205.7316,918.7347,206.5783,908.7959,206.0167,898.8571,206.0345,888.9184,205.2535,878.9796,205.4567,869.0408,206.3926,859.102,206.2916,849.1633,205.8189,839.2245,205.5397,829.2857,205.6429,819.3469,205.1757,809.4082,206.2766,799.4694,206.6014,789.5306,206.3883,779.5918,206.5568,769.6531,205.7252,759.7143,205.9491,749.7755,205.4743,739.8367,206.1459,729.898,206.1086,719.9592,206.4143,710.0204,205.6322,700.0816,205.7275,690.1429,206.3053,680.2041,206.4292,670.2653,205.3493,660.3265,205.668,650.3878,206.0111,640.449,205.251,630.5102,206.2153,620.5714,206.1199,610.6327,205.7611,600.6939,206.0041,590.7551,206.5906,580.8163,205.549,570.8776,206.1769,560.9388,206.1475,551,205.8619,551.0148,205.8975,549.2502,205.173,547.4789,204.4324,545.6171,203.473,543.8778,202.8095,542.1612,202.2007,542.019,202.1418,541.4486,200.4411,540.7238,198.6764,540.0143,196.918,539.1426,195.0925,538.5,193.3619,538.4325,193.3619,538.3798,183.9853,539.0769,174.6087,538.9266,165.232,538.0145,155.8554,538.4271,146.4788,538.5,137.1022,538.3222,137.0286,539.321,135.3712,540.1519,133.6443,540.8644,131.8684,541.2948,129.9756,542.1612,128.2634,542.2203,128.4063,543.8342,127.3024,545.7222,126.8605,547.4263,125.9745,549.2446,125.3642,551,124.6022" style="stroke:#181818;stroke-width:0.5;"/><text fill="#000000" font-family="Chalkduster" font-size="24" lengthAdjust="spacing" textLength="312" x="548.5" y="158.4431">Find the data steward</text><text fill="#000000" font-family="Chalkduster" font-size="24" lengthAdjust="spacing" textLength="492" x="548.5" y="189.0729">(copyright owner or representative)</text><path d="M1249.5,216.1508 L1249.6868,216.1508 L1249.1317,222.4768 L1249.6718,228.8028 L1249.8553,235.1287 L1248.8659,241.4547 L1249.5,247.7807 L1249.4865,247.7129 L1245.4257,248.2089 L1241.4331,249.0464 L1237.4881,250.1213 L1233.3795,250.378 L1229.5,251.7807 L1229.5965,252.2632 L1233.3901,252.0313 L1237.4655,253.2083 L1241.5753,254.5572 L1245.485,254.9059 L1249.5,255.7807 L1249.5607,255.7807 L1249.4716,262.1066 L1249.6587,268.4326 L1249.7126,274.7586 L1250.0206,281.0845 L1249.5,287.4105 L1249.5,287.4105 L1249.5,289.2 L1259.4737,289.2218 L1269.4474,288.0895 L1279.4211,288.6467 L1289.3947,289.2831 L1299.3684,285.4873 L1309.3421,289.2199 L1319.3158,286.6198 L1329.2895,288.834 L1339.2632,286.0904 L1349.2368,287.2278 L1359.2105,289.3881 L1369.1842,287.2805 L1379.1579,287.6913 L1389.1316,288.3135 L1399.1053,288.5204 L1409.0789,287.4001 L1419.0526,288.1764 L1429.0263,285.884 L1439,288.1689 L1448.9737,288.8723 L1458.9474,288.5959 L1468.9211,289.0452 L1478.8947,286.1223 L1488.8684,285.6713 L1498.8421,285.7534 L1508.8158,287.2535 L1518.7895,286.8864 L1528.7632,289.2276 L1538.7368,286.9447 L1548.7105,286.4957 L1558.6842,288.0192 L1568.6579,285.6323 L1578.6316,286.0262 L1588.6053,289.141 L1598.5789,288.5723 L1608.5526,289.3691 L1618.5263,286.5524 L1628.5,287.4105 L1628.5,287.4105 L1629.3512,287.4105 L1630.0745,277.2005 L1627.2403,266.9906 L1628.2444,256.7807 L1628.836,246.5707 L1630.238,236.3608 L1628.5,226.1508 L1628.4974,226.1482 L1626.7907,224.4416 L1624.1519,221.8028 L1622.0743,219.7251 L1620.8165,218.4674 L1618.5,216.1508 L1618.5,214.239 L1608.527,217.5081 L1598.5541,216.7018 L1588.5811,215.4364 L1578.6081,215.2074 L1568.6351,217.3742 L1558.6622,215.3526 L1548.6892,217.7291 L1538.7162,214.6768 L1528.7432,217.7973 L1518.7703,217.4423 L1508.7973,216.8041 L1498.8243,216.2767 L1488.8514,218.0885 L1478.8784,217.787 L1468.9054,216.6022 L1458.9324,216.866 L1448.9595,215.8035 L1438.9865,218.0614 L1429.0135,216.5638 L1419.0405,216.611 L1409.0676,214.5286 L1399.0946,215.0702 L1389.1216,217.5662 L1379.1486,217.2969 L1369.1757,216.0363 L1359.2027,215.2917 L1349.2297,215.567 L1339.2568,214.321 L1329.2838,217.2568 L1319.3108,218.123 L1309.3378,217.5545 L1299.3649,218.004 L1289.3919,215.7862 L1279.4189,216.3834 L1269.4459,215.1172 L1259.473,216.9083 L1249.5,216.1508 L1249.5,216.1508 " fill="#FFFFE0" style="stroke:#181818;stroke-width:4.0;"/><path d="M1618.5,216.1508 L1618.6868,216.1508 L1618.1317,218.1508 L1618.6718,220.1508 L1618.8553,222.1508 L1617.8659,224.1508 L1618.5,226.1508 L1618.5,226.0817 L1620.5,225.7717 L1622.5,225.8099 L1624.5,226.0902 L1626.5,225.5363 L1628.5,226.1508 L1628.848,226.4988 L1626.1038,223.7547 L1624.3757,222.0265 L1622.7715,220.4223 L1620.4461,218.0969 L1618.5,216.1508 " fill="#FFFFE0" style="stroke:#181818;stroke-width:4.0;"/><text fill="#000000" font-family="Chalkduster" font-size="24" lengthAdjust="spacing" textLength="358" x="1255.5" y="244.9917">Non-trivial non-technical</text><text fill="#000000" font-family="Chalkduster" font-size="24" lengthAdjust="spacing" textLength="99" x="1255.5" y="275.6215">process</text><polygon fill="#F1F1F1" points="372,226.4657,372,226.6759,381.9412,226.0514,391.8824,226.659,401.8235,226.8654,411.7647,225.7523,421.7059,226.388,431.6471,226.0393,441.5882,226.0822,451.5294,226.3976,461.4706,225.7744,471.4118,227.0194,481.3529,225.8355,491.2941,226.268,501.2353,226.8977,511.1765,226.38,521.1176,226.534,531.0588,226.4338,541,226.6443,550.9412,226.7049,560.8824,227.0514,570.8235,227.1368,580.7647,227.145,590.7059,226.7204,600.6471,226.9293,610.5882,227.168,620.5294,225.7446,630.4706,227.1443,640.4118,226.1692,650.3529,226.9996,660.2941,225.9707,670.2353,226.3972,680.1765,227.2073,690.1176,226.417,700.0588,226.571,710,226.8044,719.9412,226.882,729.8824,226.4618,739.8235,226.753,749.7647,225.8933,759.7059,226.7501,769.6471,227.0139,779.5882,226.9103,789.5294,227.0788,799.4706,225.9827,809.4118,225.8136,819.3529,225.8443,829.2941,226.4069,839.2353,226.2692,849.1765,227.1472,859.1176,226.2911,869.0588,226.1227,879,226.694,888.9412,225.7989,898.8824,225.9466,908.8235,227.1147,918.7647,226.9014,928.7059,227.2002,938.6471,226.1439,948.5882,226.7849,958.5294,227.0562,968.4706,225.9933,978.4118,226.3699,988.3529,226.5917,998.2941,227.1175,1008.2353,226.4616,1018.1765,226.9283,1028.1176,225.912,1038.0588,225.7885,1048,226.9694,1057.9412,225.7488,1067.8824,226.9747,1077.8235,226.6724,1087.7647,226.1978,1097.7059,226.112,1107.6471,226.9245,1117.5882,226.1664,1127.5294,227.0576,1137.4706,225.913,1147.4118,227.0832,1157.3529,226.95,1167.2941,226.7107,1177.2353,226.513,1187.1765,227.1924,1197.1176,227.0793,1207.0588,226.635,1217,226.4657,1217.0342,226.5483,1218.7512,227.1579,1220.6269,228.1508,1222.3231,228.7101,1224.0931,229.4478,1225.8388,230.1269,1225.6515,230.0493,1226.4463,231.843,1227.4667,233.7301,1228.1679,235.485,1228.7545,237.1925,1229.5,238.9657,1229.3926,238.9657,1229.427,244.0917,1229.2713,249.2177,1229.6382,254.3436,1229.7465,259.4696,1229.5,264.5956,1229.6621,264.6627,1228.9818,266.452,1227.9934,268.1137,1227.3302,269.91,1226.4517,271.6172,1225.8388,273.4344,1225.8751,273.5219,1224.1025,274.2426,1222.3738,275.069,1220.5062,275.5604,1218.7506,276.322,1217,277.0956,1217,277.539,1207.0588,277.6629,1197.1176,276.583,1187.1765,276.9017,1177.2353,277.2448,1167.2941,276.4847,1157.3529,277.449,1147.4118,277.3536,1137.4706,276.9948,1127.5294,277.2378,1117.5882,277.8243,1107.6471,276.7827,1097.7059,277.4106,1087.7647,277.3812,1077.8235,277.2113,1067.8824,277.2365,1057.9412,277.2091,1048,276.4714,1038.0588,276.6948,1028.1176,276.634,1018.1765,277.1594,1008.2353,277.1837,998.2941,277.2573,988.3529,276.8046,978.4118,277.0281,968.4706,276.9754,958.5294,277.6724,948.5882,277.5221,938.6471,276.61,928.7059,277.0227,918.7647,276.5183,908.8235,277.384,898.8824,277.7041,888.9412,277.6401,879,276.66,869.0588,277.5595,859.1176,276.3528,849.1765,277.2957,839.2353,276.7963,829.2941,277.1923,819.3529,277.3359,809.4118,277.5677,799.4706,276.3757,789.5294,277.5711,779.5882,277.2738,769.6471,277.4509,759.7059,277.8434,749.7647,277.1011,739.8235,277.2708,729.8824,277.309,719.9412,277.2928,710,277.0948,700.0588,277.8063,690.1176,276.4858,680.1765,277.6609,670.2353,276.4716,660.2941,276.5553,650.3529,277.1356,640.4118,277.1239,630.4706,276.6027,620.5294,277.5093,610.5882,277.2044,600.6471,277.8222,590.7059,277.7627,580.7647,276.6473,570.8235,276.6977,560.8824,276.9664,550.9412,277.4511,541,277.4986,531.0588,277.3967,521.1176,276.7536,511.1765,277.7319,501.2353,277.7294,491.2941,277.0483,481.3529,276.8565,471.4118,276.6942,461.4706,276.881,451.5294,277.233,441.5882,277.0272,431.6471,276.6778,421.7059,277.583,411.7647,276.6366,401.8235,277.598,391.8824,277.5228,381.9412,277.4674,372,277.0956,372.0883,277.3088,370.2009,276.2876,368.4261,275.5385,366.7629,275.0587,364.8528,273.9828,363.1612,273.4344,363.0891,273.4046,362.4645,271.6814,361.7179,269.9076,360.8541,268.0854,360.219,266.3579,359.5,264.5956,359.7482,264.5956,359.7162,259.4696,359.3012,254.3436,359.5262,249.2177,359.3287,244.0917,359.5,238.9657,359.4919,238.9624,360.3225,237.2354,361.0938,235.4838,361.492,233.5776,362.5523,231.9458,363.1612,230.1269,363.1622,230.1295,364.8581,229.2237,366.6366,228.5174,368.5061,228.0308,370.2641,227.2749,372,226.4657" style="stroke:#181818;stroke-width:0.5;"/><text fill="#000000" font-family="Chalkduster" font-size="24" lengthAdjust="spacing" textLength="850" x="369.5" y="260.3066">Work with data steward to understand access and use rights</text><path d="M20,307.4105 L20.5605,307.4105 L18.8951,317.6043 L20.5154,327.7981 L21.0658,337.9919 L18.0976,348.1857 L19.7928,358.3795 L18.8627,368.5733 L18.9773,378.7671 L19.8182,388.9609 L18.1563,399.1546 L21.4764,409.3484 L18.3193,419.5422 L19.4726,429.736 L20,439.9298 L20,441.0817 L29.9057,439.7011 L39.8113,440.1118 L49.717,439.8446 L59.6226,440.4059 L69.5283,440.5675 L79.434,441.4917 L89.3396,441.7193 L99.2453,441.7412 L109.1509,440.6088 L119.0566,441.1661 L128.9623,441.8024 L138.8679,438.0067 L148.7736,441.7392 L158.6792,439.1392 L168.5849,441.3533 L178.4906,438.6098 L188.3962,439.7472 L198.3019,441.9074 L208.2075,439.7999 L218.1132,440.2106 L228.0189,440.8328 L237.9245,441.0398 L247.8302,439.9194 L257.7358,440.6957 L267.6415,438.4034 L277.5472,440.6882 L287.4528,441.3917 L297.3585,441.1152 L307.2642,441.5646 L317.1698,438.6416 L327.0755,438.1907 L336.9811,438.2728 L346.8868,439.7728 L356.7925,439.4058 L366.6981,441.7469 L376.6038,439.464 L386.5094,439.015 L396.4151,440.5385 L406.3208,438.1516 L416.2264,438.5455 L426.1321,441.6604 L436.0377,441.0916 L445.9434,441.8885 L455.8491,439.0717 L465.7547,440.781 L475.6604,441.5043 L485.566,438.6701 L495.4717,439.6742 L505.3774,440.2658 L515.283,441.6679 L525.1887,439.9187 L535.0943,441.1633 L545,439.9298 L543.5232,439.9298 L543.194,429.7199 L546.343,419.5099 L543.0882,409.3 L546.3572,399.09 L545.551,388.8801 L544.2856,378.6702 L544.0566,368.4602 L546.2234,358.2503 L544.2018,348.0403 L546.5783,337.8304 L543.526,327.6204 L545,317.4105 L545.3881,317.7986 L543.3044,315.7149 L541.154,313.5645 L539.0297,311.4402 L537.4567,309.8672 L535,307.4105 L535,309.0467 L525.0962,307.8618 L515.1923,308.1257 L505.2885,307.0631 L495.3846,309.321 L485.4808,307.8235 L475.5769,307.8707 L465.6731,305.7882 L455.7692,306.3299 L445.8654,308.8258 L435.9615,308.5565 L426.0577,307.296 L416.1538,306.5514 L406.25,306.8267 L396.3462,305.5807 L386.4423,308.5165 L376.5385,309.3827 L366.6346,308.8142 L356.7308,309.2636 L346.8269,307.0459 L336.9231,307.6431 L327.0192,306.3769 L317.1154,308.1679 L307.2115,308.0685 L297.3077,308.8835 L287.4038,306.7981 L277.5,307.0521 L267.5962,308.5931 L257.6923,308.9234 L247.7885,306.0437 L237.8846,306.8935 L227.9808,307.8085 L218.0769,305.7816 L208.1731,308.3529 L198.2692,308.0985 L188.3654,307.1418 L178.4615,307.7898 L168.5577,309.3536 L158.6538,306.5762 L148.75,308.2505 L138.8462,308.1722 L128.9423,307.7192 L119.0385,307.7863 L109.1346,307.7131 L99.2308,305.7461 L89.3269,306.3416 L79.4231,306.1797 L69.5192,307.5807 L59.6154,307.6455 L49.7115,307.8418 L39.8077,306.6346 L29.9038,307.2304 L20,307.4105 " fill="#FFFFE0" style="stroke:#181818;stroke-width:4.0;"/><path d="M535,307.4105 L535.1868,307.4105 L534.6317,309.4105 L535.1718,311.4105 L535.3553,313.4105 L534.3659,315.4105 L535,317.4105 L535,317.3414 L537,317.0314 L539,317.0696 L541,317.3499 L543,316.7959 L545,317.4105 L545.348,317.7585 L542.6038,315.0143 L540.8757,313.2862 L539.2715,311.682 L536.9461,309.3566 L535,307.4105 " fill="#FFFFE0" style="stroke:#181818;stroke-width:4.0;"/><text fill="#000000" font-family="Chalkduster" font-size="24" lengthAdjust="spacing" textLength="504" x="26" y="336.2514">We think it's important to document</text><text fill="#000000" font-family="Chalkduster" font-size="24" lengthAdjust="spacing" textLength="393" x="26" y="366.8812">access and usage contraints</text><text fill="#000000" font-family="Chalkduster" font-size="24" lengthAdjust="spacing" textLength="480" x="26" y="397.511">in an implementation-neutral way</text><text fill="#000000" font-family="Chalkduster" font-size="24" lengthAdjust="spacing" textLength="222" x="158" y="428.1409">*IN ONE PLACE*</text><path d="M1044,338.0403 L1044.5605,338.0403 L1042.8951,348.2203 L1044.5154,358.4002 L1045.0658,368.5802 L1042.0976,378.7601 L1043.7928,388.9401 L1042.8627,399.12 L1044,409.3 L1044,408.2773 L1053.9474,409.1182 L1063.8947,407.4563 L1073.8421,410.7764 L1083.7895,407.6192 L1093.7368,408.7726 L1103.6842,410.4519 L1113.6316,409.0713 L1123.5789,409.482 L1133.5263,409.2148 L1143.4737,409.7761 L1153.4211,409.9377 L1163.3684,410.8618 L1173.3158,411.0895 L1183.2632,411.1113 L1193.2105,409.979 L1203.1579,410.5362 L1213.1053,411.1726 L1223.0526,407.3768 L1233,411.1094 L1242.9474,408.5093 L1252.8947,410.7235 L1262.8421,407.9799 L1272.7895,409.1173 L1282.7368,411.2776 L1292.6842,409.17 L1302.6316,409.5808 L1312.5789,410.203 L1322.5263,410.4099 L1332.4737,409.2896 L1342.4211,410.0659 L1352.3684,407.7735 L1362.3158,410.0584 L1372.2632,410.7618 L1382.2105,410.4854 L1392.1579,410.9347 L1402.1053,408.0118 L1412.0526,407.5608 L1422,407.6429 L1431.9474,409.143 L1441.8947,408.7759 L1451.8421,411.1171 L1461.7895,408.8342 L1471.7368,408.3852 L1481.6842,409.9087 L1491.6316,407.5218 L1501.5789,407.9157 L1511.5263,411.0305 L1521.4737,410.4618 L1531.4211,411.2586 L1541.3684,408.4419 L1551.3158,410.1512 L1561.2632,410.8744 L1571.2105,408.0402 L1581.1579,409.0444 L1591.1053,409.6359 L1601.0526,411.038 L1611,409.2888 L1620.9474,410.5335 L1630.8947,407.8232 L1640.8421,407.494 L1650.7895,410.643 L1660.7368,407.3882 L1670.6842,410.6572 L1680.6316,409.851 L1690.5789,408.5855 L1700.5263,408.3566 L1710.4737,410.5234 L1720.4211,408.5018 L1730.3684,410.8783 L1740.3158,407.826 L1750.2632,410.9465 L1760.2105,410.5915 L1770.1579,409.9532 L1780.1053,409.4259 L1790.0526,411.2376 L1800,409.3 L1801.6362,409.3 L1800.4513,399.09 L1800.7152,388.8801 L1799.6526,378.6702 L1801.9105,368.4602 L1800.413,358.2503 L1800,348.0403 L1800.1085,348.1488 L1797.6176,345.658 L1795.7453,343.7856 L1794.3336,342.3739 L1792.2701,340.3104 L1790,338.0403 L1790,337.9258 L1780.0533,337.1812 L1770.1067,337.4565 L1760.16,336.2105 L1750.2133,339.1463 L1740.2667,340.0125 L1730.32,339.444 L1720.3733,339.8935 L1710.4267,337.6757 L1700.48,338.2729 L1690.5333,337.0067 L1680.5867,338.7978 L1670.64,338.6984 L1660.6933,339.5134 L1650.7467,337.4279 L1640.8,337.6819 L1630.8533,339.2229 L1620.9067,339.5532 L1610.96,336.6736 L1601.0133,337.5233 L1591.0667,338.4384 L1581.12,336.4114 L1571.1733,338.9827 L1561.2267,338.7283 L1551.28,337.7716 L1541.3333,338.4197 L1531.3867,339.9835 L1521.44,337.206 L1511.4933,338.8803 L1501.5467,338.8021 L1491.6,338.349 L1481.6533,338.4161 L1471.7067,338.3429 L1461.76,336.3759 L1451.8133,336.9715 L1441.8667,336.8096 L1431.92,338.2105 L1421.9733,338.2753 L1412.0267,338.4717 L1402.08,337.2644 L1392.1333,337.8603 L1382.1867,337.7198 L1372.24,339.5786 L1362.2933,339.1778 L1352.3467,336.7456 L1342.4,337.8459 L1332.4533,336.501 L1322.5067,338.8093 L1312.56,339.663 L1302.6133,339.4925 L1292.6667,336.8788 L1282.72,339.2776 L1272.7733,336.0595 L1262.8267,338.5741 L1252.88,337.2422 L1242.9333,338.2983 L1232.9867,338.6812 L1223.04,339.2993 L1213.0933,336.1205 L1203.1467,339.3083 L1193.2,338.5155 L1183.2533,338.9879 L1173.3067,340.0345 L1163.36,338.0549 L1153.4133,338.5077 L1143.4667,338.6095 L1133.52,338.5663 L1123.5733,338.0382 L1113.6267,339.9355 L1103.68,336.4143 L1093.7333,339.5477 L1083.7867,336.3763 L1073.84,336.5995 L1063.8933,338.147 L1053.9467,338.1157 L1044,338.0403 " fill="#FFFFE0" style="stroke:#181818;stroke-width:4.0;"/><path d="M1790,338.0403 L1790.1868,338.0403 L1789.6317,340.0403 L1790.1718,342.0403 L1790.3553,344.0403 L1789.3659,346.0403 L1790,348.0403 L1790,347.9712 L1792,347.6612 L1794,347.6994 L1796,347.9797 L1798,347.4258 L1800,348.0403 L1800.348,348.3883 L1797.6038,345.6442 L1795.8757,343.916 L1794.2715,342.3118 L1791.9461,339.9864 L1790,338.0403 " fill="#FFFFE0" style="stroke:#181818;stroke-width:4.0;"/><text fill="#000000" font-family="Chalkduster" font-size="24" lengthAdjust="spacing" textLength="735" x="1050" y="366.8812">Could TK Notices and Labels form part of a license?</text><text fill="#000000" font-family="Chalkduster" font-size="24" lengthAdjust="spacing" textLength="299" x="1062" y="397.511">Maybe act as clauses?</text><polygon fill="#F1F1F1" points="567.5,348.3552,567.5,348.5654,577.5889,347.9409,587.6778,348.5485,597.7667,348.7549,607.8556,347.6418,617.9444,348.2775,628.0333,347.9287,638.1222,347.9717,648.2111,348.2871,658.3,347.6639,668.3889,348.9089,678.4778,347.725,688.5667,348.1575,698.6556,348.7872,708.7444,348.2695,718.8333,348.4235,728.9222,348.3233,739.0111,348.5338,749.1,348.5944,759.1889,348.9409,769.2778,349.0263,779.3667,349.0345,789.4556,348.6099,799.5444,348.8188,809.6333,349.0575,819.7222,347.6341,829.8111,349.0338,839.9,348.0587,849.9889,348.8891,860.0778,347.8602,870.1667,348.2867,880.2556,349.0968,890.3444,348.3065,900.4333,348.4605,910.5222,348.6939,920.6111,348.7715,930.7,348.3513,940.7889,348.6425,950.8778,347.7828,960.9667,348.6396,971.0556,348.9034,981.1444,348.7998,991.2333,348.9683,1001.3222,347.8722,1011.4111,347.7031,1021.5,348.3552,1021.4207,348.1639,1023.2603,349.0693,1025.0105,349.7592,1026.8902,350.7618,1028.5488,351.2304,1030.3388,352.0164,1030.2332,351.9726,1031.1414,353.8133,1031.5979,355.4669,1032.3757,357.2535,1033.4676,359.1703,1034,360.8552,1034.1452,360.8552,1034.2448,365.9812,1033.8927,371.1072,1034.1064,376.2331,1034.1968,381.3591,1034,386.4851,1033.8545,386.4248,1033.2382,388.2406,1032.5743,390.0367,1032.004,391.8715,1031.0698,393.5556,1030.3388,395.3239,1030.3978,395.4664,1028.5004,395.8856,1026.7169,396.5798,1025.0998,397.6757,1023.1763,398.0321,1021.5,398.9851,1021.5,399.494,1011.4111,399.1917,1001.3222,398.7172,991.2333,398.6313,981.1444,399.4438,971.0556,398.6857,960.9667,399.5769,950.8778,398.4323,940.7889,399.6025,930.7,399.4694,920.6111,399.23,910.5222,399.0323,900.4333,399.7117,890.3444,399.5987,880.2556,399.1543,870.1667,399.2533,860.0778,398.8548,849.9889,399.7015,839.9,399.1399,829.8111,399.1577,819.7222,398.3767,809.6333,398.5799,799.5444,399.5158,789.4556,399.4148,779.3667,398.9421,769.2778,398.6629,759.1889,398.7661,749.1,398.2989,739.0111,399.3998,728.9222,399.7246,718.8333,399.5115,708.7444,399.68,698.6556,398.8483,688.5667,399.0723,678.4778,398.5975,668.3889,399.2691,658.3,399.2318,648.2111,399.5375,638.1222,398.7554,628.0333,398.8507,617.9444,399.4285,607.8556,399.5524,597.7667,398.4725,587.6778,398.7912,577.5889,399.1343,567.5,398.9851,567.4221,398.797,565.7773,398.3617,563.9974,397.6001,562.1838,396.7573,560.4471,396.1,558.6612,395.3239,558.8856,395.4169,557.8326,393.5162,557.2937,391.8286,556.5524,390.057,555.7679,388.2676,555,386.4851,555.047,386.4851,555.0378,381.3591,554.7919,376.2331,554.8664,371.1072,554.8462,365.9812,555,360.8552,555.0197,360.8634,555.7594,359.0987,556.5143,357.3403,557.1071,355.5148,557.9081,353.7756,558.6612,352.0164,558.6458,351.9794,560.5025,351.4618,562.2511,350.6833,563.9025,349.6702,565.7229,349.065,567.5,348.3552" style="stroke:#181818;stroke-width:0.5;"/><text fill="#000000" font-family="Chalkduster" font-size="24" lengthAdjust="spacing" textLength="459" x="565" y="382.1961">Write a natural language license</text><polygon fill="#F1F1F1" points="686,480.5337,686,480.7439,695.8636,480.1194,705.7273,480.727,715.5909,480.9334,725.4545,479.8203,735.3182,480.456,745.1818,480.1072,755.0455,480.1502,764.9091,480.4655,774.7727,479.8423,784.6364,481.0873,794.5,479.9034,804.3636,480.3359,814.2273,480.9656,824.0909,480.4479,833.9545,480.6019,843.8182,480.5017,853.6818,480.7122,863.5455,480.7728,873.4091,481.1194,883.2727,481.2047,893.1364,481.213,903,480.5337,903.0668,480.586,905.5216,483.692,907.9843,486.804,910.0108,489.5744,912.778,492.9251,915,495.8486,914.9222,495.7877,912.7401,499.0213,910.0701,501.8728,907.782,505.0235,905.5946,508.253,903,511.1635,903,511.1148,893.1364,511.2688,883.2727,511.5022,873.4091,511.5798,863.5455,511.1596,853.6818,511.4507,843.8182,510.5911,833.9545,511.4479,824.0909,511.7117,814.2273,511.6081,804.3636,511.7766,794.5,510.6804,784.6364,510.5113,774.7727,510.5421,764.9091,511.1046,755.0455,510.967,745.1818,511.8449,735.3182,510.9888,725.4545,510.8205,715.5909,511.3918,705.7273,510.4967,695.8636,510.6444,686,511.1635,686.1703,511.2969,683.7143,508.1901,681.3927,505.1886,678.7156,501.9084,676.4838,498.9772,674,495.8486,674.1549,495.97,676.276,492.6885,678.7748,489.7029,681.2331,486.6856,683.771,483.7307,686,480.5337" style="stroke:#181818;stroke-width:0.5;"/><text fill="#000000" font-family="Chalkduster" font-size="24" lengthAdjust="spacing" textLength="217" x="686" y="504.3746">anyone can use</text><text fill="#000000" font-family="Chalkduster" font-size="24" lengthAdjust="spacing" textLength="42" x="632" y="489.0597">yes</text><text fill="#000000" font-family="Chalkduster" font-size="24" lengthAdjust="spacing" textLength="385" x="915" y="489.0597">Authorization Step Required</text><polygon fill="#F1F1F1" points="176.9375,521.1635,176.9375,521.3737,187.0708,520.7492,197.2042,521.3568,207.3375,521.5632,217.4708,520.4501,227.6042,521.0858,237.7375,520.737,247.8708,520.78,258.0042,521.0954,268.1375,520.4722,278.2708,521.7172,288.4042,520.5332,298.5375,520.9658,308.6708,521.5955,318.8042,521.0777,328.9375,521.2318,339.0708,521.1316,349.2042,521.3421,359.3375,521.4027,369.4708,521.7492,379.6042,521.8346,389.7375,521.8428,399.8708,521.4182,410.0042,521.6271,420.1375,521.8658,430.2708,520.4423,440.4042,521.842,450.5375,520.867,460.6708,521.6973,470.8042,520.6685,480.9375,521.1635,480.9288,521.1424,482.7999,522.1241,484.4668,522.613,486.2542,523.3927,488.0518,524.1967,489.7763,524.8247,489.9045,524.8778,490.5074,526.592,491.3293,528.3969,491.7968,530.055,492.7928,531.932,493.4375,533.6635,493.6202,533.6635,493.5857,538.7895,493.6418,543.9155,493.2765,549.0414,493.2201,554.1674,493.4375,559.2934,493.2461,559.2141,492.6871,561.0536,491.9125,562.8038,491.4506,564.6836,490.4548,566.3421,489.7763,568.1322,489.7326,568.0265,488.0377,568.9347,486.1557,569.3913,484.4068,570.169,482.788,571.261,480.9375,571.7934,480.9375,572.229,470.8042,572.5279,460.6708,571.4716,450.5375,572.1126,440.4042,572.3838,430.2708,571.321,420.1375,571.6975,410.0042,571.9193,399.8708,572.4451,389.7375,571.7892,379.6042,572.2559,369.4708,571.2396,359.3375,571.1161,349.2042,572.297,339.0708,571.0764,328.9375,572.3023,318.8042,572,308.6708,571.5254,298.5375,571.4396,288.4042,572.2521,278.2708,571.494,268.1375,572.3852,258.0042,571.2406,247.8708,572.4108,237.7375,572.2777,227.6042,572.0383,217.4708,571.8406,207.3375,572.52,197.2042,572.4069,187.0708,571.9626,176.9375,571.7934,176.9717,571.876,175.1531,571.021,173.4934,570.5495,171.654,569.6444,169.8884,568.9176,168.0987,568.1322,167.9113,568.0546,167.2416,566.3127,166.7976,564.6644,166.0343,562.8837,165.1565,561.0557,164.4375,559.2934,164.3301,559.2934,164.3645,554.1674,164.2088,549.0414,164.5757,543.9155,164.684,538.7895,164.4375,533.6635,164.5996,533.7307,165.3837,531.9844,165.8599,530.1106,166.6611,528.3714,167.2471,526.543,168.0987,524.8247,168.1349,524.9122,169.8979,524.1685,171.7047,523.5303,173.3727,522.5573,175.1526,521.8544,176.9375,521.1635" style="stroke:#181818;stroke-width:0.5;"/><text fill="#000000" font-family="Chalkduster" font-size="24" lengthAdjust="spacing" textLength="309" x="174.4375" y="555.0044">Use a CC-style license</text><polygon fill="#F1F1F1" points="1079.5625,521.1635,1079.5625,521.3737,1089.5903,520.7492,1099.6181,521.3568,1109.6458,521.5632,1119.6736,520.4501,1129.7014,521.0858,1139.7292,520.737,1149.7569,520.78,1159.7847,521.0954,1169.8125,520.4722,1179.8403,521.7172,1189.8681,520.5332,1199.8958,520.9658,1209.9236,521.5955,1219.9514,521.0777,1229.9792,521.2318,1240.0069,521.1316,1250.0347,521.3421,1260.0625,521.4027,1270.0903,521.7492,1280.1181,521.8346,1290.1458,521.8428,1300.1736,521.4182,1310.2014,521.6271,1320.2292,521.8658,1330.2569,520.4423,1340.2847,521.842,1350.3125,520.867,1360.3403,521.6973,1370.3681,520.6685,1380.3958,521.095,1390.4236,521.9051,1400.4514,521.1148,1410.4792,521.2688,1420.5069,521.5022,1430.5347,521.5798,1440.5625,521.1635,1440.5587,521.1625,1443.2404,530.4251,1444.8087,539.3968,1448.0377,548.8022,1450.6929,558.0579,1452.5625,567.1083,1452.9926,567.2206,1450.7556,576.4521,1447.2951,585.3641,1444.7315,594.5103,1442.3613,603.707,1440.5625,613.053,1440.5625,612.9941,1430.5347,612.8565,1420.5069,613.7344,1410.4792,612.8783,1400.4514,612.71,1390.4236,613.2813,1380.3958,612.3862,1370.3681,612.5339,1360.3403,613.702,1350.3125,613.4887,1340.2847,613.7875,1330.2569,612.7312,1320.2292,613.3722,1310.2014,613.6434,1300.1736,612.5806,1290.1458,612.9572,1280.1181,613.179,1270.0903,613.7048,1260.0625,613.0488,1250.0347,613.5156,1240.0069,612.4992,1229.9792,612.3758,1219.9514,613.5566,1209.9236,612.3361,1199.8958,613.562,1189.8681,613.2597,1179.8403,612.7851,1169.8125,612.6993,1159.7847,613.5118,1149.7569,612.7537,1139.7292,613.6449,1129.7014,612.5003,1119.6736,613.6705,1109.6458,613.5373,1099.6181,613.298,1089.5903,613.1002,1079.5625,613.053,1080.2655,613.2366,1077.7562,604.0191,1074.9263,594.7179,1072.622,585.5539,1069.8365,576.2643,1067.5625,567.1083,1068.2557,567.2893,1070.1123,557.9585,1072.5295,548.774,1074.1739,539.3877,1076.7704,530.2501,1079.5625,521.1635" style="stroke:#181818;stroke-width:0.5;"/><text fill="#000000" font-family="Chalkduster" font-size="24" lengthAdjust="spacing" textLength="299" x="1079.5625" y="545.0044">Click-thru agreement</text><text fill="#000000" font-family="Chalkduster" font-size="24" lengthAdjust="spacing" textLength="361" x="1079.5625" y="575.6342">with terms or a short quiz</text><text fill="#000000" font-family="Chalkduster" font-size="24" lengthAdjust="spacing" textLength="130" x="1079.5625" y="606.2641">is enough</text><text fill="#000000" font-family="Chalkduster" font-size="24" lengthAdjust="spacing" textLength="42" x="1025.5625" y="560.3193">yes</text><text fill="#000000" font-family="Chalkduster" font-size="24" lengthAdjust="spacing" textLength="35" x="1452.5625" y="560.3193">no</text><polygon fill="#F1F1F1" points="535.9375,623.053,535.9375,623.2632,545.9557,622.6387,555.9739,623.2463,565.992,623.4527,576.0102,622.3396,586.0284,622.9753,596.0466,622.6265,606.0648,622.6695,616.083,622.9849,626.1011,622.3617,636.1193,623.6067,646.1375,622.4227,656.1557,622.8553,666.1739,623.485,676.192,622.9672,686.2102,623.1213,696.2284,623.0211,706.2466,623.2316,716.2648,623.2922,726.283,623.6387,736.3011,623.7241,746.3193,623.7323,756.3375,623.3077,766.3557,623.5166,776.3739,623.7553,786.392,622.3318,796.4102,623.7315,806.4284,622.7565,816.4466,623.5868,826.4648,622.558,836.483,622.9845,846.5011,623.7946,856.5193,623.0043,866.5375,623.1583,876.5557,623.3917,886.5739,623.4693,896.592,623.0491,906.6102,623.3402,916.6284,622.4806,926.6466,623.3374,936.6648,623.6012,946.683,623.4976,956.7011,623.6661,966.7193,622.5699,976.7375,622.4008,986.7557,622.4316,996.7739,622.9941,1006.792,622.8565,1016.8102,623.7344,1026.8284,622.8783,1036.8466,622.71,1046.8648,623.2813,1056.883,622.3862,1066.9011,622.5339,1076.9193,623.702,1086.9375,623.053,1086.9931,623.1872,1088.799,624.0115,1090.432,624.4184,1092.2815,625.348,1094.0839,626.1638,1095.7763,626.7142,1095.6309,626.6539,1096.479,628.4697,1097.2796,630.2658,1098.1737,632.1006,1098.704,633.7847,1099.4375,635.553,1099.5917,635.553,1099.2529,640.679,1099.2117,645.805,1099.6054,650.9309,1099.1985,656.0569,1099.4375,661.1829,1099.5942,661.2478,1098.7689,662.977,1097.8905,664.6842,1097.1319,666.441,1096.6498,668.3124,1095.7763,670.0217,1095.7382,669.9295,1094.0841,670.9362,1092.1703,671.3159,1090.5518,672.4085,1088.767,673.0998,1086.9375,673.6829,1086.9375,673.9278,1076.9193,673.7301,1066.9011,674.4095,1056.883,674.2964,1046.8648,673.8521,1036.8466,673.951,1026.8284,673.5526,1016.8102,674.3993,1006.792,673.8377,996.7739,673.8554,986.7557,673.0745,976.7375,673.2776,966.7193,674.2136,956.7011,674.1126,946.683,673.6399,936.6648,673.3607,926.6466,673.4639,916.6284,672.9967,906.6102,674.0976,896.592,674.4224,886.5739,674.2093,876.5557,674.3778,866.5375,673.5461,856.5193,673.7701,846.5011,673.2953,836.483,673.9669,826.4648,673.9296,816.4466,674.2352,806.4284,673.4532,796.4102,673.5485,786.392,674.1263,776.3739,674.2502,766.3557,673.1703,756.3375,673.489,746.3193,673.8321,736.3011,673.072,726.283,674.0363,716.2648,673.9408,706.2466,673.5821,696.2284,673.8251,686.2102,674.4115,676.192,673.37,666.1739,673.9978,656.1557,673.9685,646.1375,673.7986,636.1193,673.8238,626.1011,673.7963,616.083,673.0587,606.0648,673.282,596.0466,673.2213,586.0284,673.7467,576.0102,673.771,565.992,673.8446,555.9739,673.3919,545.9557,673.6153,535.9375,673.6829,535.9222,673.6458,534.2433,673.1283,532.4564,672.3498,530.5723,671.3366,528.8571,670.7315,527.0987,670.0217,526.9209,669.9481,526.4552,668.2907,525.8216,666.5638,525.0697,664.7879,524.0356,662.8951,523.4375,661.1829,523.5922,661.1829,523.1899,656.0569,523.5042,650.9309,523.3377,645.805,523.4697,640.679,523.4375,635.553,523.5115,635.5837,524.3151,633.8455,524.6803,631.9257,525.7806,630.3104,526.4213,628.5047,527.0987,626.7142,527.144,626.8236,528.9618,626.2123,530.6349,625.2514,532.4243,624.5715,534.197,623.851,535.9375,623.053" style="stroke:#181818;stroke-width:0.5;"/><text fill="#000000" font-family="Chalkduster" font-size="24" lengthAdjust="spacing" textLength="556" x="533.4375" y="656.8939">Write a click-thru or quiz based license</text><polygon fill="#F1F1F1" points="1530.1875,623.053,1530.1875,623.2632,1540.1042,622.6387,1550.0208,623.2463,1559.9375,623.4527,1569.8542,622.3396,1579.7708,622.9753,1589.6875,622.6265,1599.6042,622.6695,1609.5208,622.9849,1619.4375,622.3617,1629.3542,623.6067,1639.2708,622.4227,1649.1875,622.8553,1659.1042,623.485,1669.0208,622.9672,1678.9375,623.1213,1688.8542,623.0211,1698.7708,623.2316,1708.6875,623.2922,1718.6042,623.6387,1728.5208,623.7241,1738.4375,623.7323,1748.3542,623.3077,1758.2708,623.5166,1768.1875,623.7553,1778.1042,622.3318,1788.0208,623.7315,1797.9375,622.7565,1807.8542,623.5868,1817.7708,622.558,1827.6875,622.9845,1837.6042,623.7946,1847.5208,623.0043,1857.4375,623.1583,1867.3542,623.3917,1877.2708,623.4693,1887.1875,623.053,1887.1863,623.0526,1889.6766,629.2139,1891.8098,635.2354,1894.4758,641.4655,1896.9576,647.6235,1899.1875,653.6829,1899.3255,653.7369,1896.9778,659.8834,1894.2376,665.8761,1891.7851,671.9815,1889.3946,678.1112,1887.1875,684.3127,1887.1875,684.2538,1877.2708,684.1162,1867.3542,684.9941,1857.4375,684.138,1847.5208,683.9696,1837.6042,684.541,1827.6875,683.6459,1817.7708,683.7936,1807.8542,684.9616,1797.9375,684.7484,1788.0208,685.0472,1778.1042,683.9909,1768.1875,684.6319,1758.2708,684.9031,1748.3542,683.8403,1738.4375,684.2168,1728.5208,684.4387,1718.6042,684.9645,1708.6875,684.3085,1698.7708,684.7753,1688.8542,683.7589,1678.9375,683.6354,1669.0208,684.8163,1659.1042,683.5958,1649.1875,684.8217,1639.2708,684.5193,1629.3542,684.0448,1619.4375,683.9589,1609.5208,684.7715,1599.6042,684.0134,1589.6875,684.9046,1579.7708,683.7599,1569.8542,684.9301,1559.9375,684.797,1550.0208,684.5577,1540.1042,684.3599,1530.1875,684.3127,1530.413,684.401,1527.9779,678.2613,1525.44,672.0813,1523.0707,665.9674,1520.5471,659.793,1518.1875,653.6829,1518.4099,653.77,1520.6356,647.5757,1523.0411,641.4519,1525.1987,635.231,1527.6617,629.1297,1530.1875,623.053" style="stroke:#181818;stroke-width:0.5;"/><text fill="#000000" font-family="Chalkduster" font-size="24" lengthAdjust="spacing" textLength="357" x="1530.1875" y="646.8939">Steward cnl list *exactly*</text><text fill="#000000" font-family="Chalkduster" font-size="24" lengthAdjust="spacing" textLength="326" x="1530.1875" y="677.5237">who should have access</text><text fill="#000000" font-family="Chalkduster" font-size="24" lengthAdjust="spacing" textLength="42" x="1476.1875" y="646.8939">yes</text><text fill="#000000" font-family="Chalkduster" font-size="24" lengthAdjust="spacing" textLength="35" x="1899.1875" y="646.8939">no</text><polygon fill="#F1F1F1" points="1141.9375,694.3127,1141.9375,694.5229,1152.0144,693.8984,1162.0913,694.506,1172.1683,694.7124,1182.2452,693.5993,1192.3221,694.235,1202.399,693.8862,1212.476,693.9292,1222.5529,694.2445,1232.6298,693.6213,1242.7067,694.8663,1252.7837,693.6824,1262.8606,694.1149,1272.9375,694.7446,1283.0144,694.2269,1293.0913,694.3809,1303.1683,694.2807,1313.2452,694.4912,1323.3221,694.5518,1333.399,694.8984,1343.476,694.9837,1353.5529,694.992,1363.6298,694.5673,1373.7067,694.7763,1383.7837,695.0149,1393.8606,693.5915,1403.9375,694.9912,1414.0144,694.0162,1424.0913,694.8465,1434.1683,693.8177,1444.2452,694.2442,1454.3221,695.0543,1464.399,694.264,1474.476,694.418,1484.5529,694.6513,1494.6298,694.7289,1504.7067,694.3088,1514.7837,694.5999,1524.8606,693.7403,1534.9375,694.3127,1534.9738,694.4003,1536.7752,695.2137,1538.5297,695.9141,1540.319,696.6982,1541.9469,697.0929,1543.7763,697.9739,1543.5755,697.8907,1544.3172,699.6624,1545.2227,701.5019,1545.9125,703.2521,1546.9151,705.1318,1547.4375,706.8127,1547.3793,706.8127,1547.3231,711.9387,1547.5136,717.0646,1547.2152,722.1906,1547.2645,727.3166,1547.4375,732.4425,1547.6374,732.5253,1546.8394,734.2659,1546.1992,736.0718,1545.1417,737.7048,1544.6069,739.5543,1543.7763,741.2814,1543.8516,741.4632,1541.9483,741.8681,1540.2286,742.7163,1538.4891,743.5169,1536.7884,744.411,1534.9375,744.9425,1534.9375,744.9383,1524.8606,745.4051,1514.7837,744.3887,1504.7067,744.2653,1494.6298,745.4461,1484.5529,744.2256,1474.476,745.4515,1464.399,745.1492,1454.3221,744.6746,1444.2452,744.5888,1434.1683,745.4013,1424.0913,744.6432,1414.0144,745.5344,1403.9375,744.3898,1393.8606,745.56,1383.7837,745.4268,1373.7067,745.1875,1363.6298,744.9897,1353.5529,745.6691,1343.476,745.5561,1333.399,745.1118,1323.3221,745.2107,1313.2452,744.8123,1303.1683,745.659,1293.0913,745.0974,1283.0144,745.1151,1272.9375,744.3342,1262.8606,744.5373,1252.7837,745.4733,1242.7067,745.3723,1232.6298,744.8996,1222.5529,744.6204,1212.476,744.7236,1202.399,744.2564,1192.3221,745.3573,1182.2452,745.6821,1172.1683,745.4689,1162.0913,745.6375,1152.0144,744.8058,1141.9375,744.9425,1141.9486,744.9694,1140.1203,744.0909,1138.4382,743.5655,1136.6657,742.8218,1134.9369,742.1837,1133.0987,741.2814,1133.0279,741.2521,1132.325,739.4964,1131.7708,737.8024,1131.0767,736.0504,1130.0119,734.1449,1129.4375,732.4425,1129.3729,732.4425,1129.4873,727.3166,1129.2339,722.1906,1129.5553,717.0646,1129.5235,711.9387,1129.4375,706.8127,1129.4065,706.7998,1130.2135,705.0631,1131.1264,703.3701,1131.5378,701.4695,1132.4634,699.7818,1133.0987,697.9739,1133.1351,698.0618,1134.8812,697.2773,1136.6522,696.5528,1138.4164,695.8121,1140.0901,694.8527,1141.9375,694.3127" style="stroke:#181818;stroke-width:0.5;"/><text fill="#000000" font-family="Chalkduster" font-size="24" lengthAdjust="spacing" textLength="398" x="1139.4375" y="728.1536">make an Access Control List</text><path d="M1567.4375,699.3127 L1567.998,699.3127 L1566.3326,709.4926 L1567.9529,719.6726 L1568.5033,729.8525 L1565.5351,740.0325 L1567.2303,750.2125 L1566.3002,760.3924 L1567.4375,770.5724 L1567.4375,770.5724 L1567.4375,769.5497 L1577.3304,770.3906 L1587.2232,768.7287 L1597.1161,772.0487 L1607.0089,768.8916 L1616.9018,770.045 L1626.7946,771.7242 L1636.6875,770.3436 L1646.5804,770.7543 L1656.4732,770.4872 L1666.3661,771.0484 L1676.2589,771.21 L1686.1518,772.1342 L1696.0446,772.3618 L1705.9375,772.3837 L1715.8304,771.2514 L1725.7232,771.8086 L1735.6161,772.445 L1745.5089,768.6492 L1755.4018,772.3817 L1765.2946,769.7817 L1775.1875,771.9959 L1785.0804,769.2523 L1794.9732,770.3897 L1804.8661,772.55 L1814.7589,770.4424 L1824.6518,770.8532 L1834.5446,771.4754 L1844.4375,770.5724 L1844.4375,770.5724 L1844.8075,770.5724 L1844.434,764.2464 L1844.6928,757.9204 L1843.9287,751.5945 L1844.6903,745.2685 L1844.4375,738.9425 L1844.5331,739.4203 L1848.515,738.53 L1852.5444,737.8769 L1856.3533,736.1215 L1860.3238,735.1741 L1864.4375,734.9425 L1864.3292,734.4009 L1860.4272,734.0912 L1856.4032,733.1712 L1852.5563,733.1365 L1848.407,731.5903 L1844.4375,730.9425 L1844.1326,730.9425 L1844.6404,726.6166 L1843.8448,722.2906 L1843.9761,717.9646 L1845.0143,713.6387 L1844.4375,709.3127 L1844.7113,709.5865 L1842.8992,707.7743 L1840.2352,705.1104 L1838.6381,703.5133 L1836.8086,701.6838 L1834.4375,699.3127 L1834.4375,698.0529 L1824.5486,699.0571 L1814.6597,699.6486 L1804.7708,701.0507 L1794.8819,699.3015 L1784.9931,700.5462 L1775.1042,697.8359 L1765.2153,697.5067 L1755.3264,700.6557 L1745.4375,697.4009 L1735.5486,700.6699 L1725.6597,699.8637 L1715.7708,698.5982 L1705.8819,698.3693 L1695.9931,700.5361 L1686.1042,698.5145 L1676.2153,700.891 L1666.3264,697.8387 L1656.4375,700.9592 L1646.5486,700.6042 L1636.6597,699.9659 L1626.7708,699.4386 L1616.8819,701.2503 L1606.9931,700.9489 L1597.1042,699.764 L1587.2153,700.0279 L1577.3264,698.9653 L1567.4375,699.3127 L1567.4375,699.3127 " fill="#FFFFE0" style="stroke:#181818;stroke-width:4.0;"/><path d="M1834.4375,699.3127 L1834.6243,699.3127 L1834.0692,701.3127 L1834.6093,703.3127 L1834.7928,705.3127 L1833.8034,707.3127 L1834.4375,709.3127 L1834.4375,709.2436 L1836.4375,708.9336 L1838.4375,708.9718 L1840.4375,709.2521 L1842.4375,708.6981 L1844.4375,709.3127 L1844.7855,709.6607 L1842.0413,706.9165 L1840.3132,705.1884 L1838.709,703.5842 L1836.3836,701.2588 L1834.4375,699.3127 " fill="#FFFFE0" style="stroke:#181818;stroke-width:4.0;"/><text fill="#000000" font-family="Chalkduster" font-size="24" lengthAdjust="spacing" textLength="256" x="1573.4375" y="728.1536">Some agents might</text><text fill="#000000" font-family="Chalkduster" font-size="24" lengthAdjust="spacing" textLength="235" x="1573.4375" y="758.7834">be pre-approved;</text><polygon fill="#F1F1F1" points="1876.9375,694.3127,1876.9375,694.5229,1887.0375,693.8984,1897.1375,694.506,1907.2375,694.7124,1917.3375,693.5993,1927.4375,694.235,1937.5375,693.8862,1947.6375,693.9292,1957.7375,694.2445,1967.8375,693.6213,1977.9375,694.8663,1988.0375,693.6824,1998.1375,694.1149,2008.2375,694.7446,2018.3375,694.2269,2028.4375,694.3809,2038.5375,694.2807,2048.6375,694.4912,2058.7375,694.5518,2068.8375,694.8984,2078.9375,694.9837,2089.0375,694.992,2099.1375,694.5673,2109.2375,694.7763,2119.3375,695.0149,2129.4375,693.5915,2139.5375,694.9912,2149.6375,694.0162,2159.7375,694.8465,2169.8375,693.8177,2179.9375,694.2442,2190.0375,695.0543,2200.1375,694.264,2210.2375,694.418,2220.3375,694.6513,2230.4375,694.7289,2240.5375,694.3088,2250.6375,694.5999,2260.7375,693.7403,2270.8375,694.5971,2280.9375,694.3127,2281.0074,694.4815,2282.762,695.1818,2284.5512,695.9659,2286.1792,696.3606,2287.9254,697.0408,2289.7763,697.9739,2289.585,697.8946,2290.4904,699.7341,2291.1803,701.4843,2292.1829,703.3641,2292.6515,705.0226,2293.4375,706.8127,2293.0944,706.8127,2293.6658,716.1893,2292.7707,725.5659,2292.9184,734.9425,2294.0865,744.3191,2293.8732,753.6957,2293.4375,763.0724,2293.6637,763.1661,2292.6062,764.7991,2292.0713,766.6486,2291.4226,768.451,2290.3631,770.0832,2289.7763,771.9112,2289.7641,771.8817,2288.0246,772.6822,2286.3239,773.5764,2284.4725,774.1066,2282.7643,774.9826,2280.9375,775.5724,2280.9375,775.0186,2270.8375,774.8951,2260.7375,776.076,2250.6375,774.8554,2240.5375,776.0813,2230.4375,775.779,2220.3375,775.3044,2210.2375,775.2186,2200.1375,776.0311,2190.0375,775.273,2179.9375,776.1642,2169.8375,775.0196,2159.7375,776.1898,2149.6375,776.0567,2139.5375,775.8173,2129.4375,775.6196,2119.3375,776.299,2109.2375,776.1859,2099.1375,775.7416,2089.0375,775.8405,2078.9375,775.4421,2068.8375,776.2888,2058.7375,775.7272,2048.6375,775.7449,2038.5375,774.964,2028.4375,775.1671,2018.3375,776.1031,2008.2375,776.0021,1998.1375,775.5294,1988.0375,775.2502,1977.9375,775.3534,1967.8375,774.8862,1957.7375,775.9871,1947.6375,776.3119,1937.5375,776.0988,1927.4375,776.2673,1917.3375,775.4356,1907.2375,775.6596,1897.1375,775.1848,1887.0375,775.8564,1876.9375,775.5724,1876.969,775.6484,1875.2402,775.0102,1873.3727,774.0372,1871.6171,773.3343,1869.923,772.78,1868.0987,771.9112,1868.2734,771.9836,1867.2086,770.078,1866.5745,768.3509,1865.9479,766.6269,1864.9816,764.7622,1864.4375,763.0724,1864.7909,763.0724,1864.6955,753.6957,1864.3367,744.3191,1864.5797,734.9425,1865.1662,725.5659,1864.1246,716.1893,1864.4375,706.8127,1864.5345,706.8529,1865.2577,705.0814,1865.9376,703.2919,1866.6776,701.5274,1867.4014,699.7561,1868.0987,697.9739,1868.019,697.7816,1869.8153,697.1182,1871.5753,696.3673,1873.4101,695.7968,1875.181,695.0721,1876.9375,694.3127" style="stroke:#181818;stroke-width:0.5;"/><text fill="#000000" font-family="Chalkduster" font-size="24" lengthAdjust="spacing" textLength="320" x="1874.4375" y="728.1536">Design a form or other</text><text fill="#000000" font-family="Chalkduster" font-size="24" lengthAdjust="spacing" textLength="409" x="1874.4375" y="758.7834">mechanism to approve agents</text><polygon fill="#F1F1F1" points="1770.9375,795.5724,1770.9375,795.7825,1780.873,795.158,1790.8085,795.7656,1800.744,795.972,1810.6794,794.859,1820.6149,795.4946,1830.5504,795.1459,1840.4859,795.1889,1850.4214,795.5042,1860.3569,794.881,1870.2923,796.126,1880.2278,794.9421,1890.1633,795.3746,1900.0988,796.0043,1910.0343,795.4866,1919.9698,795.6406,1929.9052,795.5404,1939.8407,795.7509,1949.7762,795.8115,1959.7117,796.158,1969.6472,796.2434,1979.5827,796.2516,1989.5181,795.827,1999.4536,796.0359,2009.3891,796.2746,2019.3246,794.8512,2029.2601,796.2509,2039.1956,795.2759,2049.131,796.1062,2059.0665,795.0773,2069.002,795.5039,2078.9375,796.314,2088.873,795.5236,2098.8085,795.6777,2108.744,795.911,2118.6794,795.9886,2128.6149,795.5685,2138.5504,795.8596,2148.4859,794.9999,2158.4214,795.8567,2168.3569,796.1206,2178.2923,796.0169,2188.2278,796.1854,2198.1633,795.0893,2208.0988,794.9202,2218.0343,794.951,2227.9698,795.5135,2237.9052,795.3758,2247.8407,796.2538,2257.7762,795.3977,2267.7117,795.2293,2277.6472,795.8006,2287.5827,794.9055,2297.5181,795.0532,2307.4536,796.2213,2317.3891,796.008,2327.3246,796.3068,2337.2601,795.2506,2347.1956,795.8916,2357.131,796.1628,2367.0665,795.1,2377.002,795.4765,2386.9375,795.5724,2386.9536,795.6112,2388.7884,796.5053,2390.4725,797.0355,2392.2998,797.9115,2393.9379,798.3307,2395.7763,799.2335,2395.5678,799.1471,2396.6637,801.0655,2397.02,802.6776,2398.1298,804.6017,2398.7689,806.3309,2399.4375,808.0724,2399.3482,808.0724,2399.3196,813.1983,2399.5904,818.3243,2399.3377,823.4503,2399.6348,828.5762,2399.4375,833.7022,2399.2673,833.6317,2398.8954,835.5487,2398.1222,837.2995,2397.3162,839.0367,2396.5231,840.7793,2395.7763,842.541,2395.869,842.7648,2394.0868,843.4622,2392.2624,844.0576,2390.5072,844.8203,2388.6887,845.4298,2386.9375,846.2022,2386.9375,846.9186,2377.002,846.3571,2367.0665,846.3748,2357.131,845.5938,2347.1956,845.797,2337.2601,846.7329,2327.3246,846.632,2317.3891,846.1593,2307.4536,845.88,2297.5181,845.9833,2287.5827,845.516,2277.6472,846.6169,2267.7117,846.9418,2257.7762,846.7286,2247.8407,846.8971,2237.9052,846.0655,2227.9698,846.2894,2218.0343,845.8146,2208.0988,846.4862,2198.1633,846.449,2188.2278,846.7546,2178.2923,845.9725,2168.3569,846.0678,2158.4214,846.6457,2148.4859,846.7695,2138.5504,845.6897,2128.6149,846.0083,2118.6794,846.3515,2108.744,845.5913,2098.8085,846.5556,2088.873,846.4602,2078.9375,846.1014,2069.002,846.3444,2059.0665,846.9309,2049.131,845.8893,2039.1956,846.5172,2029.2601,846.4878,2019.3246,846.318,2009.3891,846.3431,1999.4536,846.3157,1989.5181,845.578,1979.5827,845.8014,1969.6472,845.7407,1959.7117,846.266,1949.7762,846.2903,1939.8407,846.3639,1929.9052,845.9112,1919.9698,846.1347,1910.0343,846.082,1900.0988,846.779,1890.1633,846.6288,1880.2278,845.7167,1870.2923,846.1293,1860.3569,845.625,1850.4214,846.4906,1840.4859,846.8107,1830.5504,846.7468,1820.6149,845.7666,1810.6794,846.6662,1800.744,845.4594,1790.8085,846.4023,1780.873,845.9029,1770.9375,846.2022,1770.9498,846.232,1769.2004,845.544,1767.4622,844.8831,1765.5424,843.7838,1763.9271,843.4197,1762.0987,842.541,1762.1535,842.5638,1761.4759,840.8186,1760.8645,839.1009,1759.9037,837.2384,1759.2237,835.4923,1758.4375,833.7022,1758.5086,833.7022,1758.5032,828.5762,1758.4372,823.4503,1758.6744,818.3243,1758.2343,813.1983,1758.4375,808.0724,1758.6116,808.1445,1758.9776,806.225,1759.7356,804.4679,1760.6465,802.7742,1761.3751,801.0049,1762.0987,799.2335,1762.0358,799.0818,1763.9192,798.6287,1765.6481,797.8026,1767.4947,797.2606,1769.2548,796.51,1770.9375,795.5724" style="stroke:#181818;stroke-width:0.5;"/><text fill="#000000" font-family="Chalkduster" font-size="24" lengthAdjust="spacing" textLength="621" x="1768.4375" y="829.4132">Identify decision maker(s) to grant licenses</text><polygon fill="#F1F1F1" points="1708.6875,852.2022,1708.737,852.2517,1710.9898,854.5045,1713.5331,857.0478,1715.9817,859.4964,1718.1194,861.634,1720.6875,864.2022,1720.6692,864.1839,1718.187,866.5017,1715.7971,868.9118,1713.4714,871.3861,1710.9245,873.6392,1708.6875,876.2022,1708.818,876.3327,1706.1389,873.6536,1703.8409,871.3556,1701.5893,869.104,1699.0673,866.582,1696.6875,864.2022,1696.7036,864.2183,1699.08,861.7947,1701.5296,859.4443,1703.9439,857.0586,1706.4255,854.7402,1708.6875,852.2022" style="stroke:#181818;stroke-width:0.5;"/><polygon fill="#F1F1F1" points="1260.0625,882.2022,1260.112,882.2517,1262.3648,884.5045,1264.9081,887.0478,1267.3567,889.4964,1269.4944,891.634,1272.0625,894.2022,1272.0442,894.1839,1269.562,896.5017,1267.1721,898.9118,1264.8464,901.3861,1262.2995,903.6392,1260.0625,906.2022,1260.193,906.3327,1257.5139,903.6536,1255.2159,901.3556,1252.9643,899.104,1250.4423,896.582,1248.0625,894.2022,1248.0786,894.2183,1250.455,891.7947,1252.9046,889.4443,1255.3189,887.0586,1257.8005,884.7402,1260.0625,882.2022" style="stroke:#181818;stroke-width:0.5;"/><polygon fill="#F1F1F1" points="794.5,912.2022,794.5495,912.2517,796.8023,914.5045,799.3456,917.0478,801.7942,919.4964,803.9319,921.634,806.5,924.2022,806.4817,924.1839,803.9995,926.5017,801.6096,928.9118,799.2839,931.3861,796.737,933.6392,794.5,936.2022,794.6305,936.3327,791.9514,933.6536,789.6534,931.3556,787.4018,929.104,784.8798,926.582,782.5,924.2022,782.5161,924.2183,784.8925,921.7947,787.3421,919.4443,789.7564,917.0586,792.238,914.7402,794.5,912.2022" style="stroke:#181818;stroke-width:0.5;"/><path d="M794.5,104.6022 L794.5934,104.6022 L794.3159,108.6022 L794.5859,112.6022 L794.6776,116.6022 L794.1829,120.6022 L794.5,124.6022 " fill="#8B0000" style="stroke:#8B0000;stroke-width:4.0;"/><polygon fill="#8B0000" points="790.5,114.6022,790.565,114.6282,791.1718,116.5509,792.1598,118.6261,793.0237,120.6517,793.4792,122.5139,794.5,124.6022,794.4759,124.5926,795.168,122.5494,795.9813,120.5547,796.8789,118.5938,797.486,116.5166,798.5,114.6022,798.6305,114.7327,797.5514,115.2537,796.8534,116.1556,796.2018,117.104,795.2798,117.782,794.5,118.6022,794.5161,118.6183,793.6925,117.7947,792.9421,117.0443,792.1564,116.2586,791.438,115.5403,790.5,114.6022" style="stroke:#8B0000;stroke-width:1.0;"/><path d="M794.5,205.8619 L794.5934,205.8619 L794.3159,209.9827 L794.5859,214.1034 L794.6776,218.2242 L794.1829,222.345 L794.5,226.4657 " fill="#8B0000" style="stroke:#8B0000;stroke-width:4.0;"/><polygon fill="#8B0000" points="790.5,216.4657,790.565,216.4918,791.1718,218.4145,792.1598,220.4897,793.0237,222.5152,793.4792,224.3774,794.5,226.4657,794.4759,226.4561,795.168,224.4129,795.9813,222.4183,796.8789,220.4573,797.486,218.3802,798.5,216.4657,798.6305,216.5962,797.5514,217.1172,796.8534,218.0191,796.2018,218.9676,795.2798,219.6455,794.5,220.4657,794.5161,220.4818,793.6925,219.6582,792.9421,218.9078,792.1564,218.1221,791.438,217.4038,790.5,216.4657" style="stroke:#8B0000;stroke-width:1.0;"/><path d="M794.5,277.0956 L794.7802,277.0956 L793.9476,287.2755 L794.7577,297.4555 L795.0329,307.6354 L793.5488,317.8154 L794.3964,327.9953 L793.9313,338.1753 L794.5,348.3552 " fill="#8B0000" style="stroke:#8B0000;stroke-width:4.0;"/><polygon fill="#8B0000" points="790.5,338.3552,790.565,338.3813,791.1718,340.304,792.1598,342.3792,793.0237,344.4047,793.4792,346.2669,794.5,348.3552,794.4759,348.3456,795.168,346.3024,795.9813,344.3078,796.8789,342.3468,797.486,340.2697,798.5,338.3552,798.6305,338.4857,797.5514,339.0067,796.8534,339.9086,796.2018,340.8571,795.2798,341.535,794.5,342.3552,794.5161,342.3713,793.6925,341.5477,792.9421,340.7973,792.1564,340.0116,791.438,339.2933,790.5,338.3552" style="stroke:#8B0000;stroke-width:1.0;"/><path d="M2078.9375,775.5724 L2079.0309,775.5724 L2078.7534,779.5724 L2079.0234,783.5724 L2079.1151,787.5724 L2078.6204,791.5724 L2078.9375,795.5724 " fill="#8B0000" style="stroke:#8B0000;stroke-width:4.0;"/><polygon fill="#8B0000" points="2074.9375,785.5724,2075.0025,785.5984,2075.6093,787.5211,2076.5973,789.5963,2077.4612,791.6218,2077.9167,793.484,2078.9375,795.5724,2078.9134,795.5627,2079.6055,793.5196,2080.4188,791.5249,2081.3164,789.5639,2081.9235,787.4868,2082.9375,785.5724,2083.068,785.7029,2081.9889,786.2238,2081.2909,787.1257,2080.6393,788.0742,2079.7173,788.7521,2078.9375,789.5724,2078.9536,789.5884,2078.13,788.7648,2077.3796,788.0144,2076.5939,787.2287,2075.8755,786.5104,2074.9375,785.5724" style="stroke:#8B0000;stroke-width:1.0;"/><path d="M1518.1875,653.6829 L1518.1875,653.9631 L1508.2014,653.1304 L1498.2153,653.9406 L1488.2292,654.2158 L1478.2431,652.7317 L1468.2569,653.5792 L1458.2708,653.1142 L1448.2847,653.1715 L1438.2986,653.592 L1428.3125,652.761 L1418.3264,654.421 L1408.3403,652.8425 L1398.3542,653.4192 L1388.3681,654.2588 L1378.3819,653.5685 L1368.3958,653.7738 L1358.4097,653.6403 L1348.4236,653.9209 L1338.4375,653.6829 " fill="#8B0000" style="stroke:#8B0000;stroke-width:4.0;"/><path d="M1338.4375,653.6829 L1338.5309,653.6829 L1338.2534,661.8088 L1338.5234,669.9348 L1338.6151,678.0608 L1338.1204,686.1867 L1338.4375,694.3127 " fill="#8B0000" style="stroke:#8B0000;stroke-width:4.0;"/><polygon fill="#8B0000" points="1334.4375,684.3127,1334.5025,684.3387,1335.1093,686.2614,1336.0973,688.3366,1336.9612,690.3622,1337.4167,692.2244,1338.4375,694.3127,1338.4134,694.3031,1339.1055,692.2599,1339.9188,690.2652,1340.8164,688.3043,1341.4235,686.2271,1342.4375,684.3127,1342.568,684.4432,1341.4889,684.9641,1340.7909,685.8661,1340.1393,686.8145,1339.2173,687.4925,1338.4375,688.3127,1338.4536,688.3288,1337.63,687.5052,1336.8796,686.7548,1336.0939,685.9691,1335.3755,685.2507,1334.4375,684.3127" style="stroke:#8B0000;stroke-width:1.0;"/><path d="M1899.1875,653.6829 L1899.1875,653.9631 L1909.1736,653.1304 L1919.1597,653.9406 L1929.1458,654.2158 L1939.1319,652.7317 L1949.1181,653.5792 L1959.1042,653.1142 L1969.0903,653.1715 L1979.0764,653.592 L1989.0625,652.761 L1999.0486,654.421 L2009.0347,652.8425 L2019.0208,653.4192 L2029.0069,654.2588 L2038.9931,653.5685 L2048.9792,653.7738 L2058.9653,653.6403 L2068.9514,653.9209 L2078.9375,653.6829 " fill="#8B0000" style="stroke:#8B0000;stroke-width:4.0;"/><path d="M2078.9375,653.6829 L2079.0309,653.6829 L2078.7534,661.8088 L2079.0234,669.9348 L2079.1151,678.0608 L2078.6204,686.1867 L2078.9375,694.3127 " fill="#8B0000" style="stroke:#8B0000;stroke-width:4.0;"/><polygon fill="#8B0000" points="2074.9375,684.3127,2075.0025,684.3387,2075.6093,686.2614,2076.5973,688.3366,2077.4612,690.3622,2077.9167,692.2244,2078.9375,694.3127,2078.9134,694.3031,2079.6055,692.2599,2080.4188,690.2652,2081.3164,688.3043,2081.9235,686.2271,2082.9375,684.3127,2083.068,684.4432,2081.9889,684.9641,2081.2909,685.8661,2080.6393,686.8145,2079.7173,687.4925,2078.9375,688.3127,2078.9536,688.3288,2078.13,687.5052,2077.3796,686.7548,2076.5939,685.9691,2075.8755,685.2507,2074.9375,684.3127" style="stroke:#8B0000;stroke-width:1.0;"/><path d="M1338.4375,744.9425 L1338.7177,744.9425 L1337.8851,754.8808 L1338.6952,764.8191 L1338.9704,774.7574 L1337.4863,784.6957 L1338.3339,794.6341 L1337.8688,804.5724 L1337.9262,814.5107 L1338.3466,824.449 L1337.5157,834.3873 L1339.1757,844.3256 L1337.5971,854.2639 L1338.4375,864.2022 " fill="#8B0000" style="stroke:#8B0000;stroke-width:4.0;"/><path d="M1338.4375,864.2022 L1338.4375,864.4824 L1348.3889,863.6498 L1358.3403,864.4599 L1368.2917,864.7351 L1378.2431,863.251 L1388.1944,864.0986 L1398.1458,863.6335 L1408.0972,863.6909 L1418.0486,864.1113 L1428,863.2804 L1437.9514,864.9404 L1447.9028,863.3618 L1457.8542,863.9385 L1467.8056,864.7781 L1477.7569,864.0878 L1487.7083,864.2932 L1497.6597,864.1596 L1507.6111,864.4402 L1517.5625,864.521 L1527.5139,864.9831 L1537.4653,865.0969 L1547.4167,865.1079 L1557.3681,864.5417 L1567.3194,864.8203 L1577.2708,865.1385 L1587.2222,863.2406 L1597.1736,865.1069 L1607.125,863.8069 L1617.0764,864.9139 L1627.0278,863.5422 L1636.9792,864.1109 L1646.9306,865.191 L1656.8819,864.1372 L1666.8333,864.3426 L1676.7847,864.6537 L1686.7361,864.7572 L1696.6875,864.2022 " fill="#8B0000" style="stroke:#8B0000;stroke-width:4.0;"/><polygon fill="#8B0000" points="1686.6875,860.2022,1686.7135,860.2672,1688.6362,860.874,1690.7114,861.862,1692.737,862.7259,1694.5992,863.1814,1696.6875,864.2022,1696.6779,864.1781,1694.6347,864.8702,1692.64,865.6835,1690.6791,866.5811,1688.6019,867.1882,1686.6875,868.2022,1686.818,868.3327,1687.3389,867.2536,1688.2409,866.5556,1689.1893,865.904,1689.8673,864.982,1690.6875,864.2022,1690.7036,864.2183,1689.88,863.3947,1689.1296,862.6443,1688.3439,861.8586,1687.6255,861.1402,1686.6875,860.2022" style="stroke:#8B0000;stroke-width:1.0;"/><path d="M2078.9375,846.2022 L2079.0309,846.2022 L2078.7534,849.8022 L2079.0234,853.4022 L2079.1151,857.0022 L2078.6204,860.6022 L2078.9375,864.2022 " fill="#8B0000" style="stroke:#8B0000;stroke-width:4.0;"/><path d="M2078.9375,864.2022 L2078.9375,864.4824 L2068.9861,863.6498 L2059.0347,864.4599 L2049.0833,864.7351 L2039.1319,863.251 L2029.1806,864.0986 L2019.2292,863.6335 L2009.2778,863.6909 L1999.3264,864.1113 L1989.375,863.2804 L1979.4236,864.9404 L1969.4722,863.3618 L1959.5208,863.9385 L1949.5694,864.7781 L1939.6181,864.0878 L1929.6667,864.2932 L1919.7153,864.1596 L1909.7639,864.4402 L1899.8125,864.521 L1889.8611,864.9831 L1879.9097,865.0969 L1869.9583,865.1079 L1860.0069,864.5417 L1850.0556,864.8203 L1840.1042,865.1385 L1830.1528,863.2406 L1820.2014,865.1069 L1810.25,863.8069 L1800.2986,864.9139 L1790.3472,863.5422 L1780.3958,864.1109 L1770.4444,865.191 L1760.4931,864.1372 L1750.5417,864.3426 L1740.5903,864.6537 L1730.6389,864.7572 L1720.6875,864.2022 " fill="#8B0000" style="stroke:#8B0000;stroke-width:4.0;"/><polygon fill="#8B0000" points="1730.6875,860.2022,1730.7135,860.2672,1728.6362,860.874,1726.7114,861.862,1724.737,862.7259,1722.5992,863.1814,1720.6875,864.2022,1720.6779,864.1781,1722.6347,864.8702,1724.64,865.6835,1726.6791,866.5811,1728.6019,867.1882,1730.6875,868.2022,1730.818,868.3327,1729.7389,867.2536,1729.0409,866.5556,1728.3893,865.904,1727.4673,864.982,1726.6875,864.2022,1726.7036,864.2183,1727.48,863.3947,1728.3296,862.6443,1729.1439,861.8586,1730.0255,861.1402,1730.6875,860.2022" style="stroke:#8B0000;stroke-width:1.0;"/><path d="M1067.5625,567.1083 L1067.5625,567.3885 L1057.7115,566.5558 L1047.8606,567.366 L1038.0096,567.6412 L1028.1587,566.1571 L1018.3077,567.0047 L1008.4567,566.5396 L998.6058,566.5969 L988.7548,567.0174 L978.9038,566.1865 L969.0529,567.8465 L959.2019,566.2679 L949.351,566.8446 L939.5,567.6842 L929.649,566.9939 L919.7981,567.1993 L909.9471,567.0657 L900.0962,567.3463 L890.2452,567.4271 L880.3942,567.8892 L870.5433,568.003 L860.6923,568.014 L850.8413,567.4478 L840.9904,567.7264 L831.1394,568.0446 L821.2885,566.1467 L811.4375,567.1083 " fill="#8B0000" style="stroke:#8B0000;stroke-width:4.0;"/><path d="M811.4375,567.1083 L811.7177,567.1083 L810.8851,576.4324 L811.6952,585.7565 L811.9704,595.0807 L810.4863,604.4048 L811.3339,613.7289 L811.4375,623.053 " fill="#8B0000" style="stroke:#8B0000;stroke-width:4.0;"/><polygon fill="#8B0000" points="807.4375,613.053,807.5025,613.079,808.1093,615.0017,809.0973,617.077,809.9612,619.1025,810.4167,620.9647,811.4375,623.053,811.4134,623.0434,812.1055,621.0002,812.9188,619.0056,813.8164,617.0446,814.4235,614.9674,815.4375,613.053,815.568,613.1835,814.4889,613.7045,813.7909,614.6064,813.1393,615.5548,812.2173,616.2328,811.4375,617.053,811.4536,617.0691,810.63,616.2455,809.8796,615.4951,809.0939,614.7094,808.3755,613.9911,807.4375,613.053" style="stroke:#8B0000;stroke-width:1.0;"/><path d="M1452.5625,567.1083 L1452.5625,567.3885 L1462.4135,566.5558 L1472.2644,567.366 L1482.1154,567.6412 L1491.9663,566.1571 L1501.8173,567.0047 L1511.6683,566.5396 L1521.5192,566.5969 L1531.3702,567.0174 L1541.2212,566.1865 L1551.0721,567.8465 L1560.9231,566.2679 L1570.774,566.8446 L1580.625,567.6842 L1590.476,566.9939 L1600.3269,567.1993 L1610.1779,567.0657 L1620.0288,567.3463 L1629.8798,567.4271 L1639.7308,567.8892 L1649.5817,568.003 L1659.4327,568.014 L1669.2837,567.4478 L1679.1346,567.7264 L1688.9856,568.0446 L1698.8365,566.1467 L1708.6875,567.1083 " fill="#8B0000" style="stroke:#8B0000;stroke-width:4.0;"/><path d="M1708.6875,567.1083 L1708.9677,567.1083 L1708.1351,576.4324 L1708.9452,585.7565 L1709.2204,595.0807 L1707.7363,604.4048 L1708.5839,613.7289 L1708.6875,623.053 " fill="#8B0000" style="stroke:#8B0000;stroke-width:4.0;"/><polygon fill="#8B0000" points="1704.6875,613.053,1704.7525,613.079,1705.3593,615.0017,1706.3473,617.077,1707.2112,619.1025,1707.6667,620.9647,1708.6875,623.053,1708.6634,623.0434,1709.3555,621.0002,1710.1688,619.0056,1711.0664,617.0446,1711.6735,614.9674,1712.6875,613.053,1712.818,613.1835,1711.7389,613.7045,1711.0409,614.6064,1710.3893,615.5548,1709.4673,616.2328,1708.6875,617.053,1708.7036,617.0691,1707.88,616.2455,1707.1296,615.4951,1706.3439,614.7094,1705.6255,613.9911,1704.6875,613.053" style="stroke:#8B0000;stroke-width:1.0;"/><path d="M811.4375,673.6829 L811.7177,673.6829 L810.8851,683.7065 L811.6952,693.7301 L811.9704,703.7537 L810.4863,713.7773 L811.3339,723.8009 L810.8688,733.8245 L810.9262,743.8481 L811.3466,753.8717 L810.5157,763.8953 L812.1757,773.9189 L810.5971,783.9425 L811.1738,793.9661 L812.0134,803.9897 L811.3231,814.0133 L811.5285,824.037 L811.3949,834.0606 L811.6755,844.0842 L811.7563,854.1078 L812.2184,864.1314 L812.3322,874.155 L812.3432,884.1786 L811.4375,894.2022 " fill="#8B0000" style="stroke:#8B0000;stroke-width:4.0;"/><path d="M811.4375,894.2022 L811.4375,894.4824 L821.3608,893.6498 L831.2841,894.4599 L841.2074,894.7351 L851.1307,893.251 L861.054,894.0986 L870.9773,893.6335 L880.9006,893.6909 L890.8239,894.1113 L900.7472,893.2804 L910.6705,894.9404 L920.5938,893.3618 L930.517,893.9385 L940.4403,894.7781 L950.3636,894.0878 L960.2869,894.2932 L970.2102,894.1596 L980.1335,894.4402 L990.0568,894.521 L999.9801,894.9831 L1009.9034,895.0969 L1019.8267,895.1079 L1029.75,894.5417 L1039.6733,894.8203 L1049.5966,895.1385 L1059.5199,893.2406 L1069.4432,895.1069 L1079.3665,893.8069 L1089.2898,894.9139 L1099.2131,893.5422 L1109.1364,894.1109 L1119.0597,895.191 L1128.983,894.1372 L1138.9063,894.3426 L1148.8295,894.6537 L1158.7528,894.7572 L1168.6761,894.197 L1178.5994,894.5851 L1188.5227,893.439 L1198.446,894.5814 L1208.3693,894.9331 L1218.2926,894.7949 L1228.2159,895.0196 L1238.1392,893.5581 L1248.0625,894.2022 " fill="#8B0000" style="stroke:#8B0000;stroke-width:4.0;"/><polygon fill="#8B0000" points="1238.0625,890.2022,1238.0885,890.2672,1240.0112,890.874,1242.0864,891.862,1244.112,892.7259,1245.9742,893.1814,1248.0625,894.2022,1248.0529,894.1781,1246.0097,894.8702,1244.015,895.6835,1242.0541,896.5811,1239.9769,897.1882,1238.0625,898.2022,1238.193,898.3327,1238.7139,897.2536,1239.6159,896.5556,1240.5643,895.904,1241.2423,894.982,1242.0625,894.2022,1242.0786,894.2183,1241.255,893.3947,1240.5046,892.6443,1239.7189,891.8586,1239.0005,891.1402,1238.0625,890.2022" style="stroke:#8B0000;stroke-width:1.0;"/><path d="M1708.6875,876.2022 L1708.7809,876.2022 L1708.5034,879.8022 L1708.7734,883.4022 L1708.8651,887.0022 L1708.3704,890.6022 L1708.6875,894.2022 " fill="#8B0000" style="stroke:#8B0000;stroke-width:4.0;"/><path d="M1708.6875,894.2022 L1708.6875,894.4824 L1698.7642,893.6498 L1688.8409,894.4599 L1678.9176,894.7351 L1668.9943,893.251 L1659.071,894.0986 L1649.1477,893.6335 L1639.2244,893.6909 L1629.3011,894.1113 L1619.3778,893.2804 L1609.4545,894.9404 L1599.5313,893.3618 L1589.608,893.9385 L1579.6847,894.7781 L1569.7614,894.0878 L1559.8381,894.2932 L1549.9148,894.1596 L1539.9915,894.4402 L1530.0682,894.521 L1520.1449,894.9831 L1510.2216,895.0969 L1500.2983,895.1079 L1490.375,894.5417 L1480.4517,894.8203 L1470.5284,895.1385 L1460.6051,893.2406 L1450.6818,895.1069 L1440.7585,893.8069 L1430.8352,894.9139 L1420.9119,893.5422 L1410.9886,894.1109 L1401.0653,895.191 L1391.142,894.1372 L1381.2188,894.3426 L1371.2955,894.6537 L1361.3722,894.7572 L1351.4489,894.197 L1341.5256,894.5851 L1331.6023,893.439 L1321.679,894.5814 L1311.7557,894.9331 L1301.8324,894.7949 L1291.9091,895.0196 L1281.9858,893.5581 L1272.0625,894.2022 " fill="#8B0000" style="stroke:#8B0000;stroke-width:4.0;"/><polygon fill="#8B0000" points="1282.0625,890.2022,1282.0885,890.2672,1280.0112,890.874,1278.0864,891.862,1276.112,892.7259,1273.9742,893.1814,1272.0625,894.2022,1272.0529,894.1781,1274.0097,894.8702,1276.015,895.6835,1278.0541,896.5811,1279.9769,897.1882,1282.0625,898.2022,1282.193,898.3327,1281.1139,897.2536,1280.4159,896.5556,1279.7643,895.904,1278.8423,894.982,1278.0625,894.2022,1278.0786,894.2183,1278.855,893.3947,1279.7046,892.6443,1280.5189,891.8586,1281.4005,891.1402,1282.0625,890.2022" style="stroke:#8B0000;stroke-width:1.0;"/><path d="M674,495.8486 L674,496.1289 L664.1411,495.2962 L654.2821,496.1063 L644.4232,496.3815 L634.5643,494.8974 L624.7054,495.745 L614.8464,495.28 L604.9875,495.3373 L595.1286,495.7577 L585.2696,494.9268 L575.4107,496.5868 L565.5518,495.0082 L555.6929,495.5849 L545.8339,496.4245 L535.975,495.7342 L526.1161,495.9396 L516.2571,495.806 L506.3982,496.0866 L496.5393,496.1675 L486.6804,496.6295 L476.8214,496.7433 L466.9625,496.7543 L457.1036,496.1881 L447.2446,496.4667 L437.3857,496.7849 L427.5268,494.887 L417.6679,496.7533 L407.8089,495.4533 L397.95,496.5604 L388.0911,495.1886 L378.2321,495.7573 L368.3732,496.8374 L358.5143,495.7836 L348.6554,495.989 L338.7964,496.3001 L328.9375,495.8486 " fill="#8B0000" style="stroke:#8B0000;stroke-width:4.0;"/><path d="M328.9375,495.8486 L329.0309,495.8486 L328.7534,500.9116 L329.0234,505.9746 L329.1151,511.0376 L328.6204,516.1005 L328.9375,521.1635 " fill="#8B0000" style="stroke:#8B0000;stroke-width:4.0;"/><polygon fill="#8B0000" points="324.9375,511.1635,325.0025,511.1895,325.6093,513.1122,326.5973,515.1875,327.4612,517.213,327.9167,519.0752,328.9375,521.1635,328.9134,521.1539,329.6055,519.1107,330.4188,517.1161,331.3164,515.1551,331.9235,513.0779,332.9375,511.1635,333.068,511.294,331.9889,511.815,331.2909,512.7169,330.6393,513.6653,329.7173,514.3433,328.9375,515.1635,328.9536,515.1796,328.13,514.356,327.3796,513.6056,326.5939,512.8199,325.8755,512.1016,324.9375,511.1635" style="stroke:#8B0000;stroke-width:1.0;"/><path d="M915,495.8486 L915,496.1289 L924.8589,495.2962 L934.7179,496.1063 L944.5768,496.3815 L954.4357,494.8974 L964.2946,495.745 L974.1536,495.28 L984.0125,495.3373 L993.8714,495.7577 L1003.7304,494.9268 L1013.5893,496.5868 L1023.4482,495.0082 L1033.3071,495.5849 L1043.1661,496.4245 L1053.025,495.7342 L1062.8839,495.9396 L1072.7429,495.806 L1082.6018,496.0866 L1092.4607,496.1675 L1102.3196,496.6295 L1112.1786,496.7433 L1122.0375,496.7543 L1131.8964,496.1881 L1141.7554,496.4667 L1151.6143,496.7849 L1161.4732,494.887 L1171.3321,496.7533 L1181.1911,495.4533 L1191.05,496.5604 L1200.9089,495.1886 L1210.7679,495.7573 L1220.6268,496.8374 L1230.4857,495.7836 L1240.3446,495.989 L1250.2036,496.3001 L1260.0625,495.8486 " fill="#8B0000" style="stroke:#8B0000;stroke-width:4.0;"/><path d="M1260.0625,495.8486 L1260.1559,495.8486 L1259.8784,500.9116 L1260.1484,505.9746 L1260.2401,511.0376 L1259.7454,516.1005 L1260.0625,521.1635 " fill="#8B0000" style="stroke:#8B0000;stroke-width:4.0;"/><polygon fill="#8B0000" points="1256.0625,511.1635,1256.1275,511.1895,1256.7343,513.1122,1257.7223,515.1875,1258.5862,517.213,1259.0417,519.0752,1260.0625,521.1635,1260.0384,521.1539,1260.7305,519.1107,1261.5438,517.1161,1262.4414,515.1551,1263.0485,513.0779,1264.0625,511.1635,1264.193,511.294,1263.1139,511.815,1262.4159,512.7169,1261.7643,513.6653,1260.8423,514.3433,1260.0625,515.1635,1260.0786,515.1796,1259.255,514.356,1258.5046,513.6056,1257.7189,512.8199,1257.0005,512.1016,1256.0625,511.1635" style="stroke:#8B0000;stroke-width:1.0;"/><path d="M328.9375,571.7934 L329.2177,571.7934 L328.3851,581.8622 L329.1952,591.931 L329.4704,601.9998 L327.9863,612.0687 L328.8339,622.1375 L328.3688,632.2063 L328.4262,642.2751 L328.8466,652.344 L328.0157,662.4128 L329.6757,672.4816 L328.0971,682.5504 L328.6738,692.6192 L329.5134,702.6881 L328.8231,712.7569 L329.0285,722.8257 L328.8949,732.8945 L329.1755,742.9634 L329.2563,753.0322 L329.7184,763.101 L329.8322,773.1698 L329.8432,783.2387 L329.277,793.3075 L329.5556,803.3763 L329.8738,813.4451 L327.9759,823.514 L329.8422,833.5828 L328.5422,843.6516 L329.6492,853.7204 L328.2775,863.7892 L328.8462,873.8581 L329.9263,883.9269 L328.8725,893.9957 L329.0779,904.0645 L329.389,914.1334 L328.9375,924.2022 " fill="#8B0000" style="stroke:#8B0000;stroke-width:4.0;"/><path d="M328.9375,924.2022 L328.9375,924.4824 L339.0167,923.6498 L349.0958,924.4599 L359.175,924.7351 L369.2542,923.251 L379.3333,924.0986 L389.4125,923.6335 L399.4917,923.6909 L409.5708,924.1113 L419.65,923.2804 L429.7292,924.9404 L439.8083,923.3618 L449.8875,923.9385 L459.9667,924.7781 L470.0458,924.0878 L480.125,924.2932 L490.2042,924.1596 L500.2833,924.4402 L510.3625,924.521 L520.4417,924.9831 L530.5208,925.0969 L540.6,925.1079 L550.6792,924.5417 L560.7583,924.8203 L570.8375,925.1385 L580.9167,923.2406 L590.9958,925.1069 L601.075,923.8069 L611.1542,924.9139 L621.2333,923.5422 L631.3125,924.1109 L641.3917,925.191 L651.4708,924.1372 L661.55,924.3426 L671.6292,924.6537 L681.7083,924.7572 L691.7875,924.197 L701.8667,924.5851 L711.9458,923.439 L722.025,924.5814 L732.1042,924.9331 L742.1833,924.7949 L752.2625,925.0196 L762.3417,923.5581 L772.4208,923.3326 L782.5,924.2022 " fill="#8B0000" style="stroke:#8B0000;stroke-width:4.0;"/><polygon fill="#8B0000" points="772.5,920.2022,772.526,920.2672,774.4487,920.874,776.5239,921.862,778.5495,922.7259,780.4117,923.1814,782.5,924.2022,782.4904,924.1781,780.4472,924.8702,778.4525,925.6835,776.4916,926.5811,774.4144,927.1882,772.5,928.2022,772.6305,928.3327,773.1514,927.2536,774.0534,926.5556,775.0018,925.904,775.6798,924.982,776.5,924.2022,776.5161,924.2183,775.6925,923.3947,774.9421,922.6443,774.1564,921.8586,773.438,921.1402,772.5,920.2022" style="stroke:#8B0000;stroke-width:1.0;"/><path d="M1260.0625,906.2022 L1260.1559,906.2022 L1259.8784,909.8022 L1260.1484,913.4022 L1260.2401,917.0022 L1259.7454,920.6022 L1260.0625,924.2022 " fill="#8B0000" style="stroke:#8B0000;stroke-width:4.0;"/><path d="M1260.0625,924.2022 L1260.0625,924.4824 L1249.9833,923.6498 L1239.9042,924.4599 L1229.825,924.7351 L1219.7458,923.251 L1209.6667,924.0986 L1199.5875,923.6335 L1189.5083,923.6909 L1179.4292,924.1113 L1169.35,923.2804 L1159.2708,924.9404 L1149.1917,923.3618 L1139.1125,923.9385 L1129.0333,924.7781 L1118.9542,924.0878 L1108.875,924.2932 L1098.7958,924.1596 L1088.7167,924.4402 L1078.6375,924.521 L1068.5583,924.9831 L1058.4792,925.0969 L1048.4,925.1079 L1038.3208,924.5417 L1028.2417,924.8203 L1018.1625,925.1385 L1008.0833,923.2406 L998.0042,925.1069 L987.925,923.8069 L977.8458,924.9139 L967.7667,923.5422 L957.6875,924.1109 L947.6083,925.191 L937.5292,924.1372 L927.45,924.3426 L917.3708,924.6537 L907.2917,924.7572 L897.2125,924.197 L887.1333,924.5851 L877.0542,923.439 L866.975,924.5814 L856.8958,924.9331 L846.8167,924.7949 L836.7375,925.0196 L826.6583,923.5581 L816.5792,923.3326 L806.5,924.2022 " fill="#8B0000" style="stroke:#8B0000;stroke-width:4.0;"/><polygon fill="#8B0000" points="816.5,920.2022,816.526,920.2672,814.4487,920.874,812.5239,921.862,810.5495,922.7259,808.4117,923.1814,806.5,924.2022,806.4904,924.1781,808.4472,924.8702,810.4525,925.6835,812.4916,926.5811,814.4144,927.1882,816.5,928.2022,816.6305,928.3327,815.5514,927.2536,814.8534,926.5556,814.2018,925.904,813.2798,924.982,812.5,924.2022,812.5161,924.2183,813.2925,923.3947,814.1421,922.6443,814.9564,921.8586,815.838,921.1402,816.5,920.2022" style="stroke:#8B0000;stroke-width:1.0;"/><path d="M794.5,398.9851 L794.7802,398.9851 L793.9476,409.1787 L794.7577,419.3722 L795.0329,429.5658 L793.5488,439.7594 L794.3964,449.953 L793.9313,460.1465 L793.9887,470.3401 L794.5,480.5337 " fill="#8B0000" style="stroke:#8B0000;stroke-width:4.0;"/><polygon fill="#8B0000" points="790.5,470.5337,790.565,470.5597,791.1718,472.4824,792.1598,474.5576,793.0237,476.5832,793.4792,478.4454,794.5,480.5337,794.4759,480.5241,795.168,478.4809,795.9813,476.4862,796.8789,474.5253,797.486,472.4481,798.5,470.5337,798.6305,470.6642,797.5514,471.1851,796.8534,472.0871,796.2018,473.0355,795.2798,473.7135,794.5,474.5337,794.5161,474.5498,793.6925,473.7262,792.9421,472.9758,792.1564,472.1901,791.438,471.4717,790.5,470.5337" style="stroke:#8B0000;stroke-width:1.0;"/><!--SRC=[bLF1Zjem4BtdAwQd0XBqpXvMAtOhhKffLLhj9L9bx26nSCQfFO7DVdrdI12bFPLB4jdlpPlt7kyysT0v_DaOwc6n-E0Ccxbyc0eR99vdxWCk-9MBWZq7NCAZt83WBLBsL1MPJPB3vKTF3hX6K0R8Z2UJN4aJ6zi- -QfcY2V21351mZPX5dR3_eZJku8Y8vmlBM4JQSx97xq9GFgEjYPlJIYfJT5YpiNo9QO3d3pNDyE08tJaC8aaqMAiNWPzxV98d_zxbWnBNX06o72Nv68mL7LYp-W1tbAkOXSSVFyat2pdm_orsM78i8-fWLRiWhY7YuTuNn9yDlrEPbW6ay468uBp_S0RS2-qBoZUUZg0v_SPVDF694kohkoYxJIgacusLeKs4YVZYND9dkH0aU4Sh5Wl2nDsh3kTJ2yghh_PymQ-R9xWw_fXzJGh_1ucqez8GYaaecwgKHDCUipJ0c3v8wj5gzNGbwirXUoDC7dek8x9lvsdmfQnXM_ug_C9dSALVoMOmvphr86f4kAmqZbanjHaBOv4BJGCWdoJZJ8WnQwg_n8ZSYwPsIkfm1K6EvFHNGK230ef3b2LiXtxP4dIzfbXXg-IJUXd8gYEAa93hiqHnvRzeq0qDEQ0Qld3aCfAiuW1ra8elkYLsyaNt2DcNqbOGrr4TXJkL58ZvJIoTAEXcrOAgkChiIdVZTW_2hEDpUKK6grcIT8m-T_DHwYxW9RFJcxvVGyEhSyQa4fF4zqgGfMqPwDVCccKJixlYykp61-_0G00]--></g></svg>