<?xml version="1.0" encoding="UTF-8" standalone="no"?><svg xmlns="http://www.w3.org/2000/svg" xmlns:xlink="http://www.w3.org/1999/xlink" contentStyleType="text/css" height="1721px" preserveAspectRatio="none" style="width:1342px;height:1721px;background:#FFFFFF;" version="1.1" viewBox="0 0 1342 1721" width="1342px" zoomAndPan="magnify"><defs/><g><text fill="#000000" font-family="sans-serif" font-size="14" font-weight="bold" lengthAdjust="spacing" textLength="195" x="566.9002" y="23.5352">LDACA Repository Services</text><!--cluster cs--><g id="cluster_cs"><path d="M293.3895,649.8148 C298.0593,641.7375 306.674,639.848 312.4448,648.5657 C317.5622,638.2256 326.1905,638.312 332.3035,647.5561 C337.2855,638.0859 345.2417,640.1085 349.9372,647.8496 C354.1558,637.6241 361.609,638.34 368.2993,645.1918 C374.9942,636.9584 384.0855,637.463 389.3063,646.9402 C394.2459,636.433 400.2028,636.3785 407.2251,644.988 C411.8981,637.8009 419.0974,637.9319 424.0442,644.6569 C430.8145,636.8639 439.6255,635.208 444.4722,646.695 C449.9703,637.9468 455.5183,637.1124 462.4959,645.1019 C470.1098,636.1824 475.9655,637.375 481.2679,647.3931 C487.1701,639.1333 495.8411,638.446 501.202,647.9989 C508.4898,637.9248 515.3158,640.2399 520.9242,649.6948 C525.2916,641.4854 531.7676,640.3316 537.5988,648.1743 C549.7513,638.4234 557.1266,640.7009 562,655.43 C562.8762,655.7452 562.9588,656.4759 562.2222,657.017 C573.0998,659.5198 577.2327,666.5653 569.0211,675.9302 C579.9534,677.6603 582.7536,686.7245 576.3052,695.0694 C579.7488,704.1421 578.9093,709.9984 567.6003,711.0201 C577.4256,724.6659 568.4367,733.792 555,735.43 C557.3677,735.2079 558.7804,736.1291 557.9519,738.7494 C551.8999,748.3109 545.5773,748.6034 538.7607,739.5372 C533.5346,750.5492 523.462,749.9272 518.3389,739.4394 C513.6218,747.7674 507.0574,747.6241 502.4406,739.3435 C496.1707,749.806 488.5339,749.3944 480.7976,741.0292 C475.2561,748.2828 466.6943,748.1655 462.0616,739.9298 C457.6201,749.8441 448.6981,751.1998 443.0251,741.1013 C437.6136,747.7629 432.536,748.2944 427.0391,741.2005 C420.2229,748.2745 413.521,747.5412 408.1608,739.3945 C401.8513,747.7072 395.8125,746.7352 389.8136,739.0385 C384.2631,748.7973 376.5826,747.6032 370.47,739.6525 C364.9414,750.151 357.6425,750.1942 351.502,740.2194 C345.6836,750.3163 335.774,749.5676 330.4634,739.6846 C324.7404,746.4135 315.7619,746.0559 312.2015,737.1574 C299.2982,747.6492 290.8003,742.2651 286,728.43 C287.7506,728.9493 288.5048,729.9233 287.333,731.6518 C277.96,727.4477 275.1755,721.8865 283.1092,713.6269 C271.2108,709.8562 267.5269,703.2424 276.3702,692.77 C268.2603,684.0509 270.633,678.2079 281.2508,674.4885 C273.4372,661.2794 278.7583,651.6947 293,648.43 C293.8133,648.6318 294.0242,649.2058 293.3895,649.8148 " fill="none" style="stroke:#181818;stroke-width:1.0;"/><text fill="#000000" font-family="sans-serif" font-size="14" font-weight="bold" lengthAdjust="spacing" textLength="144" x="352" y="666.9651">Conversion Services</text></g><!--cluster vocab--><g id="cluster_vocab"><path d="M200.8607,1019.7452 C209.4941,1006.5317 221.7262,1007.2006 229.62,1020.546 C239.7634,1005.1074 249.8086,1004.4061 260.9401,1019.5336 C267.9468,1003.9823 278.9759,1004.3861 289.289,1016.0953 C299.5707,1001.5807 309.189,1003.9706 318.7534,1016.8664 C325.3995,1002.4245 334.687,1000.7098 345.3189,1012.8888 C354.642,999.1488 364.9463,1001.3647 373.6892,1013.5243 C380.3474,998.9245 394.6468,997.1909 403.3502,1011.4201 C413.4694,997.9896 425.3517,1002.7427 430.5879,1016.3408 C441.3458,1000.0839 452.2288,1000.4806 463.8961,1015.3683 C471.842,1006.0974 482.387,1005.1483 488.2072,1017.7329 C499.2417,1003.2964 510.873,1000.538 521.5499,1018.1054 C530.9926,1005.0011 541.358,1007.2705 549.0342,1019.9858 C557.3633,1006.7321 568.842,1006.699 577.3441,1019.8 C590.7529,1006.6958 601.6705,1009.0723 610,1025.43 C612.2153,1025.0032 613.257,1025.8696 612.8433,1028.1704 C629.8354,1035.7695 627.8922,1048.1228 615.9982,1058.7064 C630.6859,1066.0046 630.8809,1074.8007 619.6401,1085.609 C632.9701,1092.0946 635.235,1106.7526 623.0602,1116.099 C636.4765,1125.1997 637.2141,1138.3489 623.3983,1147.7405 C638.6294,1157.9828 634.5771,1172.3934 619.9112,1179.3361 C631.416,1187.1209 633.7818,1197.088 621.5804,1206.3383 C634.2948,1216.6093 629.6796,1229.7116 615.7237,1234.4203 C626.2651,1251.4098 625.5008,1265.4557 603,1270.93 C604.7438,1271.1362 605.1743,1272.1805 604.1139,1273.5699 C598.5814,1286.9027 587.3773,1290.0559 578.266,1277.087 C568.4801,1289.1002 554.2689,1290.0148 548.2278,1273.1869 C540.3485,1286.1231 532.1436,1287.3836 521.3498,1276.4717 C514.0215,1290.2928 501.5351,1290.0269 492.5968,1278.2825 C483.9953,1293.1731 472.2223,1292.9896 461.4052,1280.838 C452.3593,1296.1225 440.7398,1295.046 431.371,1281.1705 C424.8736,1295.2821 412.3988,1293.2431 405.4441,1281.6314 C395.2204,1293.2921 385.2563,1291.997 376.728,1279.6072 C367.9145,1291.3555 356.4658,1290.5341 349.2001,1277.8624 C340.1845,1294.5462 327.6546,1292.4095 318.2314,1278.2719 C309.3331,1293.4078 296.2695,1292.5339 289.1258,1276.6267 C281.7675,1290.815 269.3056,1291.4189 261.7228,1276.8404 C253.9187,1291.9504 238.0669,1292.6276 229.9357,1277.1806 C213.5328,1293.2511 197.0562,1282.2755 193,1263.93 C193.1462,1263.7996 193.252,1263.8504 193.2974,1264.0275 C181.6336,1256.0811 180.7821,1244.0577 194.8877,1237.6658 C181.6546,1231.4603 177.2156,1218.4909 191.6397,1209.1366 C176.7412,1198.6384 176.9728,1188.1928 190.7296,1176.8859 C178.0155,1168.4319 175.8556,1158.3799 188.7149,1148.1338 C172.2161,1136.9718 173.2746,1122.6201 192.2813,1115.3168 C178.6171,1107.0423 178.8853,1094.5121 191.673,1085.6943 C179.7081,1076.3404 180.9353,1063.9639 195.4828,1058.2968 C175.8372,1045.5418 182.8043,1027.0106 200,1018.43 C200.7569,1018.4282 201.28,1018.9773 200.8607,1019.7452 " fill="none" style="stroke:#181818;stroke-width:1.0;"/><text fill="#000000" font-family="sans-serif" font-size="14" font-weight="bold" lengthAdjust="spacing" textLength="106" x="348.5" y="1036.9651">Vocab Services</text></g><!--cluster Workspaces--><g id="cluster_Workspaces"><path d="M855.1915,64.361 C864.7608,49.6764 878.637,46.6358 888.4727,64.0851 C896.2696,51.1577 909.7031,53.5601 916.596,65.1232 C927.0948,51.4038 940.3427,46.986 950.5427,65.4384 C958.8929,46.9891 969.4963,49.3551 981.8524,61.3137 C995.4896,43.4883 1006.2194,48.0724 1016.81,64.4295 C1024.9658,50.1249 1037.0023,49.3048 1045.8247,63.757 C1054.797,44.2572 1065.5487,47.5318 1078.8302,59.1927 C1088.6677,47.7819 1099.688,45.7012 1107.5168,61.3244 C1119.3782,47.1861 1130.7143,45.7917 1141.8759,62.1138 C1149.6918,44.3115 1164.5425,46.1238 1173.7707,60.7236 C1186.3414,44.2659 1196.1901,47.4814 1205.7079,63.7069 C1216.2834,45.8406 1226.153,45.6738 1238.3168,62.2011 C1249.2831,46.8001 1259.9496,47.0425 1271.2409,61.8469 C1284.6754,49.4205 1299.2405,51.2595 1306,69.43 C1308.864,69.2361 1310.1702,70.8071 1309.5918,73.5873 C1328.9271,80.9197 1332.1134,95.5441 1315.9794,109.2326 C1331.5513,115.5234 1335.8005,130.8294 1320.5148,141.4625 C1332.6012,154.0839 1329.9747,169.9745 1313.2067,176.5936 C1325.5225,196.4669 1319.9929,208.4355 1299,216.43 C1301.6055,216.9243 1302.0507,218.1646 1300.652,220.3474 C1290.9481,235.0333 1281.4895,232.65 1271.4932,220.6672 C1262.5796,236.445 1247.4543,232.8709 1240.0214,219.0907 C1231.8017,238.5384 1215.9615,238.3639 1205.0331,221.7163 C1197.5976,237.8587 1184.5981,240.2112 1173.3906,225.5969 C1165.5818,241.1641 1150.0861,242.3365 1141.7719,226.0993 C1131.2746,241.6923 1118.5471,239.5293 1108.1828,225.9462 C1098.358,239.7664 1086.9679,237.0955 1079.6238,223.3738 C1070.4919,238.2504 1056.0266,237.3948 1047.2697,222.9598 C1038.3668,241.231 1025.326,239.3734 1013.8188,225.6856 C1002.3963,239.6731 992.3292,242.8013 981.1803,225.4012 C969.4183,238.4119 960.2798,236.3136 952.6564,221.2034 C942.8525,238.5936 932.288,238.2858 920.0387,223.6978 C910.389,239.9921 895.7453,234.9227 888.1293,221.5131 C867.8178,237.6145 854.1735,233.0843 845,209.43 C847.7625,209.2891 849.4754,211.1104 848.0178,213.8505 C828.9535,205.2882 827.3083,187.2308 844.9123,175.6849 C832.1282,164.5702 828.5587,150.2896 847.699,141.8004 C827.5998,132.3602 832.1464,117.1371 845.9957,106.0781 C823.726,90.9402 829.8763,71.4611 852,62.43 C853.6862,61.5596 855.1923,62.4432 855.1915,64.361 " fill="none" style="stroke:#181818;stroke-width:1.0;"/><text fill="#000000" font-family="sans-serif" font-size="14" font-weight="bold" lengthAdjust="spacing" textLength="85" x="1033" y="80.9651">Workspaces</text></g><!--cluster Cloudstor--><g id="cluster_Cloudstor"><rect fill="none" height="87" rx="2.5" ry="2.5" style="stroke:#181818;stroke-width:1.0;" width="259" x="1023" y="105.43"/><text fill="#000000" font-family="sans-serif" font-size="14" font-weight="bold" lengthAdjust="spacing" textLength="71" x="1117" y="120.9651">Cloudstor</text></g><!--cluster auth--><g id="cluster_auth"><rect fill="none" height="113" rx="2.5" ry="2.5" style="stroke:#181818;stroke-width:1.0;" width="738" x="7" y="92.43"/><text fill="#000000" font-family="sans-serif" font-size="14" font-weight="bold" lengthAdjust="spacing" textLength="99" x="326.5" y="107.9651">Authorization</text></g><!--cluster app--><g id="cluster_app"><rect fill="none" height="532" rx="2.5" ry="2.5" style="stroke:#181818;stroke-width:1.0;" width="499" x="610" y="413.43"/><text fill="#000000" font-family="sans-serif" font-size="14" font-weight="bold" lengthAdjust="spacing" textLength="95" x="812" y="428.9651">Curation App</text></g><!--cluster spa--><g id="cluster_spa"><rect fill="none" height="103" rx="2.5" ry="2.5" style="stroke:#181818;stroke-width:1.0;" width="189" x="837" y="472.43"/><text fill="#000000" font-family="sans-serif" font-size="14" font-weight="bold" lengthAdjust="spacing" textLength="95" x="884" y="487.9651">Data Day Spa</text></g><!--cluster port--><g id="cluster_port"><rect fill="none" height="112" rx="2.5" ry="2.5" style="stroke:#181818;stroke-width:1.0;" width="402" x="659" y="1010.93"/><text fill="#000000" font-family="sans-serif" font-size="14" font-weight="bold" lengthAdjust="spacing" textLength="43" x="838.5" y="1026.4651">Portal</text></g><!--entity Your service here--><g id="elem_Your service here"><rect fill="#F1F1F1" height="36.4883" rx="2.5" ry="2.5" style="stroke:#181818;stroke-width:0.5;" width="139" x="406.5" y="683.43"/><text fill="#000000" font-family="sans-serif" font-size="14" lengthAdjust="spacing" textLength="119" x="416.5" y="706.9651">Your service here</text></g><!--entity ocr--><g id="elem_ocr"><rect fill="#F1F1F1" height="36.4883" rx="2.5" ry="2.5" style="stroke:#181818;stroke-width:0.5;" width="50" x="321" y="683.43"/><text fill="#000000" font-family="sans-serif" font-size="14" lengthAdjust="spacing" textLength="30" x="331" y="706.9651">OCR</text></g><!--entity Orcid--><g id="elem_Orcid"><rect fill="#F1F1F1" height="46.4883" rx="2.5" ry="2.5" style="stroke:#181818;stroke-width:0.5;" width="77" x="209.5" y="1053.43"/><rect fill="#F1F1F1" height="10" style="stroke:#181818;stroke-width:0.5;" width="15" x="266.5" y="1058.43"/><rect fill="#F1F1F1" height="2" style="stroke:#181818;stroke-width:0.5;" width="4" x="264.5" y="1060.43"/><rect fill="#F1F1F1" height="2" style="stroke:#181818;stroke-width:0.5;" width="4" x="264.5" y="1064.43"/><text fill="#000000" font-family="sans-serif" font-size="14" lengthAdjust="spacing" textLength="37" x="224.5" y="1086.9651">Orcid</text></g><!--entity ROR--><g id="elem_ROR"><rect fill="#F1F1F1" height="46.4883" rx="2.5" ry="2.5" style="stroke:#181818;stroke-width:0.5;" width="69" x="321.5" y="1053.43"/><rect fill="#F1F1F1" height="10" style="stroke:#181818;stroke-width:0.5;" width="15" x="370.5" y="1058.43"/><rect fill="#F1F1F1" height="2" style="stroke:#181818;stroke-width:0.5;" width="4" x="368.5" y="1060.43"/><rect fill="#F1F1F1" height="2" style="stroke:#181818;stroke-width:0.5;" width="4" x="368.5" y="1064.43"/><text fill="#000000" font-family="sans-serif" font-size="14" lengthAdjust="spacing" textLength="29" x="336.5" y="1086.9651">ROR</text></g><!--entity lo--><g id="elem_lo"><rect fill="#F1F1F1" height="46.4883" rx="2.5" ry="2.5" style="stroke:#181818;stroke-width:0.5;" width="186" x="209" y="1208.93"/><rect fill="#F1F1F1" height="10" style="stroke:#181818;stroke-width:0.5;" width="15" x="375" y="1213.93"/><rect fill="#F1F1F1" height="2" style="stroke:#181818;stroke-width:0.5;" width="4" x="373" y="1215.93"/><rect fill="#F1F1F1" height="2" style="stroke:#181818;stroke-width:0.5;" width="4" x="373" y="1219.93"/><text fill="#000000" font-family="sans-serif" font-size="14" lengthAdjust="spacing" textLength="146" x="224" y="1242.4651">Language Ontologies</text></g><!--entity ee--><g id="elem_ee"><rect fill="#F1F1F1" height="46.4883" rx="2.5" ry="2.5" style="stroke:#181818;stroke-width:0.5;" width="149" x="425.5" y="1053.43"/><rect fill="#F1F1F1" height="10" style="stroke:#181818;stroke-width:0.5;" width="15" x="554.5" y="1058.43"/><rect fill="#F1F1F1" height="2" style="stroke:#181818;stroke-width:0.5;" width="4" x="552.5" y="1060.43"/><rect fill="#F1F1F1" height="2" style="stroke:#181818;stroke-width:0.5;" width="4" x="552.5" y="1064.43"/><text fill="#000000" font-family="sans-serif" font-size="14" lengthAdjust="spacing" textLength="109" x="440.5" y="1086.9651">Existing Entities</text></g><!--entity ftp--><g id="elem_ftp"><rect fill="#F1F1F1" height="36.4883" rx="2.5" ry="2.5" style="stroke:#181818;stroke-width:0.5;" width="123" x="880.5" y="140.43"/><text fill="#000000" font-family="sans-serif" font-size="14" lengthAdjust="spacing" textLength="103" x="890.5" y="163.9651">From The Page</text></g><!--entity File Sync n Share--><g id="elem_File Sync n Share"><rect fill="#F1F1F1" height="36.4883" rx="2.5" ry="2.5" style="stroke:#181818;stroke-width:0.5;" width="135" x="1130.5" y="140.43"/><text fill="#000000" font-family="sans-serif" font-size="14" lengthAdjust="spacing" textLength="115" x="1140.5" y="163.9651">File Sync n Share</text></g><!--entity Swan--><g id="elem_Swan"><rect fill="#F1F1F1" height="36.4883" rx="2.5" ry="2.5" style="stroke:#181818;stroke-width:0.5;" width="56" x="1039" y="140.43"/><text fill="#000000" font-family="sans-serif" font-size="14" lengthAdjust="spacing" textLength="36" x="1049" y="163.9651">Swan</text></g><!--entity AAF--><g id="elem_AAF"><rect fill="#F1F1F1" height="46.4883" rx="2.5" ry="2.5" style="stroke:#181818;stroke-width:0.5;" width="68" x="486" y="135.43"/><rect fill="#F1F1F1" height="10" style="stroke:#181818;stroke-width:0.5;" width="15" x="534" y="140.43"/><rect fill="#F1F1F1" height="2" style="stroke:#181818;stroke-width:0.5;" width="4" x="532" y="142.43"/><rect fill="#F1F1F1" height="2" style="stroke:#181818;stroke-width:0.5;" width="4" x="532" y="146.43"/><text fill="#000000" font-family="sans-serif" font-size="14" lengthAdjust="spacing" textLength="28" x="501" y="168.9651">AAF</text></g><!--entity Google--><g id="elem_Google"><rect fill="#F1F1F1" height="46.4883" rx="2.5" ry="2.5" style="stroke:#181818;stroke-width:0.5;" width="89" x="361.5" y="135.43"/><rect fill="#F1F1F1" height="10" style="stroke:#181818;stroke-width:0.5;" width="15" x="430.5" y="140.43"/><rect fill="#F1F1F1" height="2" style="stroke:#181818;stroke-width:0.5;" width="4" x="428.5" y="142.43"/><rect fill="#F1F1F1" height="2" style="stroke:#181818;stroke-width:0.5;" width="4" x="428.5" y="146.43"/><text fill="#000000" font-family="sans-serif" font-size="14" lengthAdjust="spacing" textLength="49" x="376.5" y="168.9651">Google</text></g><!--entity lic--><g id="elem_lic"><rect fill="#F1F1F1" height="46.4883" rx="2.5" ry="2.5" style="stroke:#181818;stroke-width:0.5;" width="168" x="158" y="135.43"/><rect fill="#F1F1F1" height="10" style="stroke:#181818;stroke-width:0.5;" width="15" x="306" y="140.43"/><rect fill="#F1F1F1" height="2" style="stroke:#181818;stroke-width:0.5;" width="4" x="304" y="142.43"/><rect fill="#F1F1F1" height="2" style="stroke:#181818;stroke-width:0.5;" width="4" x="304" y="146.43"/><text fill="#000000" font-family="sans-serif" font-size="14" lengthAdjust="spacing" textLength="128" x="173" y="168.9651">Licence Authorizer</text></g><!--entity la--><g id="elem_la"><path d="M31,145.93 C31,135.93 77,135.93 77,135.93 C77,135.93 123,135.93 123,145.93 L123,171.4182 C123,181.4182 77,181.4182 77,181.4182 C77,181.4182 31,181.4182 31,171.4182 L31,145.93 " fill="#F1F1F1" style="stroke:#181818;stroke-width:0.5;"/><path d="M31,145.93 C31,155.93 77,155.93 77,155.93 C77,155.93 123,155.93 123,145.93 " fill="none" style="stroke:#181818;stroke-width:0.5;"/><text fill="#000000" font-family="sans-serif" font-size="14" lengthAdjust="spacing" textLength="72" x="41" y="173.4651">Local Auth</text></g><!--entity files--><g id="elem_files"><rect fill="#F1F1F1" height="36.4883" rx="2.5" ry="2.5" style="stroke:#181818;stroke-width:0.5;" width="121" x="880.5" y="515.43"/><text fill="#000000" font-family="sans-serif" font-size="14" lengthAdjust="spacing" textLength="101" x="890.5" y="538.9651">Uploaded Files</text></g><!--entity describo--><g id="elem_describo"><rect fill="#F1F1F1" height="36.4883" rx="2.5" ry="2.5" style="stroke:#181818;stroke-width:0.5;" width="133" x="642.5" y="880.93"/><text fill="#000000" font-family="sans-serif" font-size="14" lengthAdjust="spacing" textLength="113" x="652.5" y="904.4651">Data Description</text></g><!--entity itemdb--><g id="elem_itemdb"><path d="M908.5,886.43 C908.5,876.43 937,876.43 937,876.43 C937,876.43 965.5,876.43 965.5,886.43 L965.5,911.9182 C965.5,921.9182 937,921.9182 937,921.9182 C937,921.9182 908.5,921.9182 908.5,911.9182 L908.5,886.43 " fill="#F1F1F1" style="stroke:#181818;stroke-width:0.5;"/><path d="M908.5,886.43 C908.5,896.43 937,896.43 937,896.43 C937,896.43 965.5,896.43 965.5,886.43 " fill="none" style="stroke:#181818;stroke-width:0.5;"/><text fill="#000000" font-family="sans-serif" font-size="14" lengthAdjust="spacing" textLength="37" x="918.5" y="913.9651">Items</text></g><!--entity repo--><g id="elem_repo"><path d="M711,1421.93 C711,1411.93 776,1411.93 776,1411.93 C776,1411.93 841,1411.93 841,1421.93 L841,1694.7425 C841,1704.7425 776,1704.7425 776,1704.7425 C776,1704.7425 711,1704.7425 711,1694.7425 L711,1421.93 " fill="#F1F1F1" style="stroke:#181818;stroke-width:0.5;"/><path d="M711,1421.93 C711,1431.93 776,1431.93 776,1431.93 C776,1431.93 841,1431.93 841,1421.93 " fill="none" style="stroke:#181818;stroke-width:0.5;"/><text fill="#000000" font-family="sans-serif" font-size="14" lengthAdjust="spacing" textLength="110" x="721" y="1449.4651">Main Repository</text><text fill="#000000" font-family="sans-serif" font-size="14" lengthAdjust="spacing" textLength="4" x="721" y="1465.9534"> </text><text fill="#000000" font-family="sans-serif" font-size="14" lengthAdjust="spacing" textLength="4" x="721" y="1482.4417"> </text><text fill="#000000" font-family="sans-serif" font-size="14" lengthAdjust="spacing" textLength="4" x="721" y="1498.93"> </text><text fill="#000000" font-family="sans-serif" font-size="14" lengthAdjust="spacing" textLength="4" x="721" y="1515.4182"> </text><text fill="#000000" font-family="sans-serif" font-size="14" lengthAdjust="spacing" textLength="4" x="721" y="1531.9065"> </text><text fill="#000000" font-family="sans-serif" font-size="14" lengthAdjust="spacing" textLength="4" x="721" y="1548.3948"> </text><text fill="#000000" font-family="sans-serif" font-size="14" lengthAdjust="spacing" textLength="4" x="721" y="1564.8831"> </text><text fill="#000000" font-family="sans-serif" font-size="14" lengthAdjust="spacing" textLength="4" x="721" y="1581.3714"> </text><text fill="#000000" font-family="sans-serif" font-size="14" lengthAdjust="spacing" textLength="4" x="721" y="1597.8597"> </text><text fill="#000000" font-family="sans-serif" font-size="14" lengthAdjust="spacing" textLength="4" x="721" y="1614.3479"> </text><text fill="#000000" font-family="sans-serif" font-size="14" lengthAdjust="spacing" textLength="4" x="721" y="1630.8362"> </text><text fill="#000000" font-family="sans-serif" font-size="14" lengthAdjust="spacing" textLength="4" x="721" y="1647.3245"> </text><text fill="#000000" font-family="sans-serif" font-size="14" lengthAdjust="spacing" textLength="4" x="721" y="1663.8128"> </text><text fill="#000000" font-family="sans-serif" font-size="14" lengthAdjust="spacing" textLength="4" x="721" y="1680.3011"> </text><text fill="#000000" font-family="sans-serif" font-size="14" lengthAdjust="spacing" textLength="4" x="721" y="1696.7893"> </text></g><!--entity inbox--><g id="elem_inbox"><rect fill="#F1F1F1" height="36.4883" rx="2.5" ry="2.5" style="stroke:#181818;stroke-width:0.5;" width="60" x="882" y="1058.43"/><text fill="#000000" font-family="sans-serif" font-size="14" lengthAdjust="spacing" textLength="40" x="892" y="1081.9651">Inbox</text></g><!--entity i--><g id="elem_i"><path d="M977.5,1063.93 C977.5,1053.93 1007,1053.93 1007,1053.93 C1007,1053.93 1036.5,1053.93 1036.5,1063.93 L1036.5,1089.4182 C1036.5,1099.4182 1007,1099.4182 1007,1099.4182 C1007,1099.4182 977.5,1099.4182 977.5,1089.4182 L977.5,1063.93 " fill="#F1F1F1" style="stroke:#181818;stroke-width:0.5;"/><path d="M977.5,1063.93 C977.5,1073.93 1007,1073.93 1007,1073.93 C1007,1073.93 1036.5,1073.93 1036.5,1063.93 " fill="none" style="stroke:#181818;stroke-width:0.5;"/><text fill="#000000" font-family="sans-serif" font-size="14" lengthAdjust="spacing" textLength="39" x="987.5" y="1091.4651">Index</text></g><!--entity web--><g id="elem_web"><rect fill="#F1F1F1" height="36.4883" rx="2.5" ry="2.5" style="stroke:#181818;stroke-width:0.5;" width="67" x="779.5" y="1058.43"/><text fill="#000000" font-family="sans-serif" font-size="14" lengthAdjust="spacing" textLength="47" x="789.5" y="1081.9651">Web UI</text></g><!--entity api--><g id="elem_api"><rect fill="#F1F1F1" height="36.4883" rx="2.5" ry="2.5" style="stroke:#181818;stroke-width:0.5;" width="42" x="702" y="1058.43"/><text fill="#000000" font-family="sans-serif" font-size="14" lengthAdjust="spacing" textLength="22" x="712" y="1081.9651">API</text></g><!--entity rm--><g id="elem_rm"><ellipse cx="924" cy="1202.43" fill="#F1F1F1" rx="8" ry="8" style="stroke:#181818;stroke-width:0.5;"/><path d="M924,1210.43 L924,1237.43 M911,1218.43 L937,1218.43 M924,1237.43 L911,1252.43 M924,1237.43 L937,1252.43 " fill="none" style="stroke:#181818;stroke-width:0.5;"/><text fill="#000000" font-family="sans-serif" font-size="14" lengthAdjust="spacing" textLength="99" x="874.5" y="1267.4651">Repo Manager</text></g><!--link repo to vocab--><g id="link_repo_vocab"><path d="M729.53,1411.76 C717.86,1376.08 705.19,1338.06 693,1302.93 C675.77,1253.27 655.395,1197.8675 639.1438,1154.405 C631.0181,1132.6737 623.9234,1113.9275 618.7683,1100.3765 C618.6072,1099.9531 618.448,1099.5347 618.2907,1099.1214 C618.2121,1098.9148 618.1339,1098.7094 618.0562,1098.5054 " fill="none" id="repo-to-vocab" style="stroke:#181818;stroke-width:1.0;"/><polygon fill="#181818" points="618.0562,1098.5054,617.5199,1108.3396,619.8351,1103.1783,624.9965,1105.4934,618.0562,1098.5054" style="stroke:#181818;stroke-width:1.0;"/><text fill="#000000" font-family="sans-serif" font-size="13" lengthAdjust="spacing" textLength="47" x="699" y="1316.4983">Lookup</text></g><!--reverse link auth to app--><g id="link_auth_app"><path d="M592.6915,206.8654 C593.0008,210.8438 593.3253,215.0177 593.6633,219.3653 C596.3672,254.1462 599.9356,300.0462 603.5038,345.945 C605.2878,368.8943 607.0718,391.8434 608.7476,413.4021 C609.1665,418.7918 609.5787,424.0946 609.9825,429.2887 " fill="none" id="auth-backto-app" style="stroke:#181818;stroke-width:1.0;"/><polygon fill="#181818" points="592.6915,206.8654,589.4011,216.1483,593.0791,211.8503,597.3771,215.5283,592.6915,206.8654" style="stroke:#181818;stroke-width:1.0;"/><text fill="#000000" font-family="sans-serif" font-size="13" lengthAdjust="spacing" textLength="99" x="602" y="323.9983">Authorise users</text></g><!--link i to repo--><g id="link_i_repo"><path d="M1010.96,1099.25 C1013.23,1112.9 1015.85,1130.88 1017,1146.93 C1021.77,1213.54 1019.51,1234.54 991,1294.93 C955.54,1370.04 893.92,1442.04 845.72,1491.57 " fill="none" id="i-to-repo" style="stroke:#181818;stroke-width:1.0;"/><polygon fill="#181818" points="842.45,1494.91,851.5915,1491.2448,845.9352,1491.3248,845.8552,1485.6685,842.45,1494.91" style="stroke:#181818;stroke-width:1.0;"/><text fill="#000000" font-family="sans-serif" font-size="13" lengthAdjust="spacing" textLength="266" x="987" y="1316.4983">Index content (with license info of course)</text></g><!--link ee to repo--><g id="link_ee_repo"><path d="M490.78,1099.87 C474.01,1144.36 443.39,1245.85 479,1319.93 C525.56,1416.78 632.97,1486.48 705.03,1524.4 " fill="none" id="ee-to-repo" style="stroke:#181818;stroke-width:1.0;"/><polygon fill="#181818" points="709.25,1526.6,703.1065,1518.902,704.8127,1524.2955,699.4193,1526.0017,709.25,1526.6" style="stroke:#181818;stroke-width:1.0;"/><text fill="#000000" font-family="sans-serif" font-size="13" lengthAdjust="spacing" textLength="204" x="480" y="1316.4983">Look up collections / people etc</text></g><!--link port to lic--><g id="link_port_lic"><path d="M658.9096,1045.8128 C658.5425,1044.7879 658.1611,1043.7503 657.765,1042.7025 C651.4275,1025.9375 641.33,1006.555 626,994.43 C485.09,883 233,1079.58 233,899.93 C233,279.43 233,279.43 233,279.43 C233,247.98 236.11,212.02 238.68,187.73 " fill="none" id="port-to-lic" style="stroke:#181818;stroke-width:1.0;"/><polygon fill="#181818" points="239.19,183.01,234.2609,191.5366,238.6614,187.9819,242.216,192.3824,239.19,183.01" style="stroke:#181818;stroke-width:1.0;"/><text fill="#000000" font-family="sans-serif" font-size="13" lengthAdjust="spacing" textLength="258" x="234" y="612.9983">Check keys/credentials for EVERY access</text></g><!--link spa to cs--><g id="link_spa_cs"><path d="M849.2264,575.6714 C847.9525,581.6225 845.4325,587.165 841,591.43 C830.83,601.22 601.03,597.83 587,599.43 C548.29,603.84 539.69,611.84 501,616.43 C490.18,617.71 313.45,617.55 305,624.43 C301.73,627.0925 298.9733,630.2247 296.6535,633.6737 C295.4936,635.3982 294.4429,637.202 293.492,639.0659 C293.3731,639.2988 293.2558,639.5328 293.14,639.7676 C293.0821,639.885 293.0246,640.0026 292.9675,640.1205 " fill="none" id="spa-to-cs" style="stroke:#181818;stroke-width:1.0;"/><polygon fill="#181818" points="292.9675,640.1205,300.4922,633.7661,295.1481,635.6211,293.2931,630.277,292.9675,640.1205" style="stroke:#181818;stroke-width:1.0;"/><text fill="#000000" font-family="sans-serif" font-size="13" lengthAdjust="spacing" textLength="107" x="588" y="612.9983">Batch conversion</text></g><!--link describo to itemdb--><g id="link_describo_itemdb"><path d="M775.87,898.93 C817.01,898.93 868.1,898.93 901.58,898.93 " fill="none" id="describo-to-itemdb" style="stroke:#181818;stroke-width:1.0;"/><polygon fill="#181818" points="906.52,898.93,897.52,894.93,901.52,898.93,897.52,902.93,906.52,898.93" style="stroke:#181818;stroke-width:1.0;"/><text fill="#000000" font-family="sans-serif" font-size="13" lengthAdjust="spacing" textLength="96" x="794" y="892.4983">Make RO-Crate</text></g><!--link auth to auth--><g id="link_auth_auth"><path d="M728,157.9 C739.87,135.81 763.08,135.98 763.08,158.43 C763.08,180.88 739.87,181.05 728,158.96 " fill="none" id="auth-to-auth" style="stroke:#181818;stroke-width:1.0;"/><polygon fill="#181818" points="728,158.96,728.7365,168.7812,730.3667,163.3644,735.7836,164.9945,728,158.96" style="stroke:#181818;stroke-width:1.0;"/><text fill="#000000" font-family="sans-serif" font-size="13" lengthAdjust="spacing" textLength="118" x="769.08" y="163.4983">Authenticate users</text></g><!--link itemdb to api--><g id="link_itemdb_api"><path d="M908.26,914.69 C879.73,928.75 834.4,949.48 793,961.43 C771.38,967.67 759.13,953.74 743,969.43 C721.28,990.55 719.02,1027.32 720.31,1051.51 " fill="none" id="itemdb-to-api" style="stroke:#181818;stroke-width:1.0;"/><polygon fill="#181818" points="720.65,1056.47,724.0231,1047.2167,720.307,1051.4817,716.042,1047.7656,720.65,1056.47" style="stroke:#181818;stroke-width:1.0;"/><text fill="#000000" font-family="sans-serif" font-size="13" lengthAdjust="spacing" textLength="172" x="744" y="982.9983">Fetch latest version of item</text></g><!--link itemdb to itemdb--><g id="link_itemdb_itemdb"><path d="M965.73,889.69 C983.55,887.47 1000.5,890.55 1000.5,898.93 C1000.5,906.33 987.29,909.6 971.94,908.73 " fill="none" id="itemdb-to-itemdb" style="stroke:#181818;stroke-width:1.0;"/><polygon fill="#181818" points="967.24,908.3,975.8372,913.105,972.2191,908.7565,976.5676,905.1384,967.24,908.3" style="stroke:#181818;stroke-width:1.0;"/><text fill="#000000" font-family="sans-serif" font-size="13" lengthAdjust="spacing" textLength="89" x="1006.5" y="903.9983">Mint new item</text></g><!--link itemdb to inbox--><g id="link_itemdb_inbox"><path d="M933.88,921.8 C929.17,954.88 920.27,1017.39 915.4,1051.6 " fill="none" id="itemdb-to-inbox" style="stroke:#181818;stroke-width:1.0;"/><polygon fill="#181818" points="914.69,1056.54,919.9091,1048.1877,915.3891,1051.5891,911.9877,1047.0691,914.69,1056.54" style="stroke:#181818;stroke-width:1.0;"/><text fill="#000000" font-family="sans-serif" font-size="13" lengthAdjust="spacing" textLength="81" x="927" y="982.9983">Deposit item</text></g><!--reverse link Workspaces to spa--><g id="link_Workspaces_spa"><path d="M845,226.0143 C845,228.2723 845,230.5709 845,232.9076 C845,237.581 845,242.4064 845,247.362 C845,257.2734 845,267.706 845,278.4859 C845,300.0459 845,322.9956 845,345.945 C845,368.8943 845,391.8434 845,413.4021 C845,424.1815 845,434.6132 845,444.5237 C845,449.4789 845,454.3037 845,458.9766 C845,461.313 845,463.6114 845,465.869 C845,466.9979 845,468.1165 845,469.2247 C845,469.7787 845,470.3302 845,470.8789 C845,471.1533 845,471.427 845,471.7001 " fill="none" id="Workspaces-backto-spa" style="stroke:#181818;stroke-width:1.0;"/><polygon fill="#181818" points="845,226.0143,841,235.0143,845,231.0143,849,235.0143,845,226.0143" style="stroke:#181818;stroke-width:1.0;"/><text fill="#000000" font-family="sans-serif" font-size="13" lengthAdjust="spacing" textLength="362" x="846" y="323.9983">Send data to asynchronous services for cleaning/analysis</text></g><!--link spa to itemdb--><g id="link_spa_itemdb"><path d="M855.4695,575.7906 C855.5674,576.1776 855.6659,576.5669 855.765,576.9582 C862.1044,602.0065 870.67,635.8506 879.8675,672.1912 C898.2625,744.8725 919.185,827.54 929.88,869.8 " fill="none" id="spa-to-itemdb" style="stroke:#181818;stroke-width:1.0;"/><polygon fill="#181818" points="931.09,874.6,932.7541,864.8927,929.8605,869.7535,924.9997,866.8599,931.09,874.6" style="stroke:#181818;stroke-width:1.0;"/><text fill="#000000" font-family="sans-serif" font-size="13" lengthAdjust="spacing" textLength="146" x="909" y="780.9983">Populate item with text</text></g><!--reverse link inbox to rm--><g id="link_inbox_rm"><path d="M909.37,1100.81 C907.84,1118.26 906.65,1142.65 909,1163.93 C910.07,1173.65 912,1184.01 914.12,1193.61 " fill="none" id="inbox-backto-rm" style="stroke:#181818;stroke-width:1.0;"/><polygon fill="#181818" points="909.8,1096.22,904.9682,1104.8022,909.328,1101.1976,912.9325,1105.5574,909.8,1096.22" style="stroke:#181818;stroke-width:1.0;"/><text fill="#000000" font-family="sans-serif" font-size="13" lengthAdjust="spacing" textLength="102" x="910" y="1160.4983">Approve / reject</text></g><!--link inbox to repo--><g id="link_inbox_repo"><path d="M902.36,1094.68 C890.25,1116.99 869.54,1157.33 857,1193.93 C833.7,1261.92 815.36,1339.41 802.07,1405.32 " fill="none" id="inbox-to-repo" style="stroke:#181818;stroke-width:1.0;"/><polygon fill="#181818" points="801.1,1410.18,806.7964,1402.1456,802.0861,1405.2782,798.9535,1400.5679,801.1,1410.18" style="stroke:#181818;stroke-width:1.0;"/><text fill="#000000" font-family="sans-serif" font-size="13" lengthAdjust="spacing" textLength="49" x="826" y="1316.4983">Deposit</text></g><!--SRC=[VLHHRnen37xFhx1usXvEVUTX4WCw8RK2mTggwlOGSWOoZZXASb1MzR_FIUuuRfqcu7J4dp_Rdnq7iX08rXG27Q3K3bNGP4JGeS8Xt4r6un4iqPBNWTmPLkYEMg4NGgYAwX86Op97T9wTBiO1WFIWFBo9o2VDja8OpCVBGJmdvTWWtgzjprGxyDaTTkXm405jY4TISdt5pYJ7TFGcNkPEwVAdU5dEb_oyOxvQRX7c9b15Mut-PuHN95wchze7RROmDLnTQq6yZlH4Rk-jJ55woTywbkVx3c71x2c3JR2vZ6lOED9uLYgwz_mrFrTdeu1bsaaky8C6gvCqpMdyfbzd7jLXHqx_bh4zCRxa0qQNCiYrzEn_nv9K2PVogoHRtyNBQ7JBmdmZOfQe44jeLCU7BWkaLOxOgwPsETp8siGfhVshhWc7XudamR0ojvtbwqltO2kI9POGDSZTsyItNEhxF-ZGAwTjZ9pGPVg_faQRgv9d0G-PKVDRkMuHyT6XxgKsLpFym_plazWSWpyqTq4kiC1ijlpMatvcIdpDUKItVb-VS0qFisGzuRgnNmD6YrcZhaujkxRDp9eQvlWcBatY18kIJgRuqjm5lgn4-zgAsAIYg6t1fZGamxRPd6hDbymBpO1eJZH3IEc38XFG1FXqqknKnJbX1sqs1BHXQ-qyVXQ8VTyO56hBzghAkyF33LWao-bZK48g5Xq6KN-ubuQlZyiQ7qJIiSXbC2E7PCBn3jKUzdZsDyfXoHbfMV78CCdqSRfy1gduUdeHvwnLW5VD4BxAe7QnYcOTYSlSCAAPZo6di4TOpeinZpQAf4_Hfj0NB4PM36eromnjoDYi8TnYZ5anoWTero2h5S5mSIbw2MZMsE0fdNIGLeJKPePDyhncLAgrQMcteXYrGbD2dCEunANd_R9pPAZsxJBDmgaAfU7LTyFwLsUl6_Mwe6ro2x9rh2ONa0OXu6iGxW0nV9SURmH7H-HME_p5VHVPqCr5a_yV]--></g></svg>