<?xml version="1.0" encoding="UTF-8" standalone="no"?><svg xmlns="http://www.w3.org/2000/svg" xmlns:xlink="http://www.w3.org/1999/xlink" contentStyleType="text/css" height="188px" preserveAspectRatio="none" style="width:475px;height:188px;background:#FFFFFF;" version="1.1" viewBox="0 0 475 188" width="475px" zoomAndPan="magnify"><defs/><g><text fill="#000000" font-family="sans-serif" font-size="14" font-weight="bold" lengthAdjust="spacing" textLength="261" x="100" y="23.5352">Step 1 - Fetching data over the wire</text><!--cluster Workbench--><g id="cluster_Workbench"><rect fill="none" height="106" rx="2.5" ry="2.5" style="stroke:#181818;stroke-width:1.0;" width="132" x="7" y="76.7305"/><text fill="#000000" font-family="sans-serif" font-size="14" font-weight="bold" lengthAdjust="spacing" textLength="79" x="33.5" y="92.2656">Workbench</text></g><!--cluster Webserver--><g id="cluster_Webserver"><rect fill="none" height="106" rx="2.5" ry="2.5" style="stroke:#181818;stroke-width:1.0;" width="306" x="163" y="76.7305"/><text fill="#000000" font-family="sans-serif" font-size="14" font-weight="bold" lengthAdjust="spacing" textLength="74" x="279" y="92.2656">Webserver</text></g><!--entity w1--><g id="elem_w1"><rect fill="#F1F1F1" height="36.4883" rx="2.5" ry="2.5" style="stroke:#181818;stroke-width:0.5;" width="100" x="23" y="130.7305"/><text fill="#000000" font-family="sans-serif" font-size="14" lengthAdjust="spacing" textLength="80" x="33" y="154.2656">Notebook 1</text></g><!--entity c1--><g id="elem_c1"><rect fill="#F1F1F1" height="36.4883" rx="2.5" ry="2.5" style="stroke:#181818;stroke-width:0.5;" width="119" x="333.5" y="130.7305"/><text fill="#000000" font-family="sans-serif" font-size="14" lengthAdjust="spacing" textLength="99" x="343.5" y="154.2656">Crate 1 (open)</text></g><!--entity c2--><g id="elem_c2"><rect fill="#F1F1F1" height="36.4883" rx="2.5" ry="2.5" style="stroke:#181818;stroke-width:0.5;" width="119" x="179.5" y="130.7305"/><text fill="#000000" font-family="sans-serif" font-size="14" lengthAdjust="spacing" textLength="99" x="189.5" y="154.2656">Crate 2 (open)</text></g><!--link w1 to c1--><g id="link_w1_c1"><path d="M86.94,130.5705 C102.94,111.3005 131.11,81.8705 163,68.7305 C182.34,60.7605 189.09,66.7205 210,66.1505 C257.11,64.8505 272.98,49.4805 316,68.7305 C342.54,80.6005 364.53,106.2505 378.13,125.3305 " fill="none" id="w1-to-c1" style="stroke:#181818;stroke-width:1.0;"/><polygon fill="#181818" points="380.87,129.2705,379.0061,119.5996,378.0113,125.1683,372.4426,124.1735,380.87,129.2705" style="stroke:#181818;stroke-width:1.0;"/><text fill="#000000" font-family="sans-serif" font-size="13" lengthAdjust="spacing" textLength="34" x="211" y="57.2988">Fetch</text></g><!--SRC=[PO-n3eCm34HtlkB4r0uCOMJeKgbZbrRgdAGd4e4I52mOglvx0ooWsf87-zxPVdhfsU0X7A1GuKQnpeSMRoqQSMA2E6BsYKMY5HtQddZ5r1a6w_3PTSjx59eOEwWIUiIiylYRizYZD2FJudj0hqaBymMdE32SLznk-9-eFeZgLPGZbxomkYnSi_tn0m00]--></g></svg>