<?xml version="1.0" encoding="UTF-8" standalone="no"?><svg xmlns="http://www.w3.org/2000/svg" xmlns:xlink="http://www.w3.org/1999/xlink" contentStyleType="text/css" height="528px" preserveAspectRatio="none" style="width:1274px;height:528px;background:#FFFFFF;" version="1.1" viewBox="0 0 1274 528" width="1274px" zoomAndPan="magnify"><defs/><g><text fill="#000000" font-family="sans-serif" font-size="14" font-weight="bold" lengthAdjust="spacing" textLength="226" x="517.25" y="23.5352">Step 3 - Adding discoverability</text><!--cluster Workbench--><g id="cluster_Workbench"><rect fill="none" height="122" rx="2.5" ry="2.5" style="stroke:#181818;stroke-width:1.0;" width="167" x="7" y="115.5183"/><text fill="#000000" font-family="sans-serif" font-size="14" font-weight="bold" lengthAdjust="spacing" textLength="79" x="51" y="131.0534">Workbench</text></g><!--cluster Webserver--><g id="cluster_Webserver"><rect fill="none" height="399" rx="2.5" ry="2.5" style="stroke:#181818;stroke-width:1.0;" width="784" x="254" y="123.5183"/><text fill="#000000" font-family="sans-serif" font-size="14" font-weight="bold" lengthAdjust="spacing" textLength="74" x="609" y="139.0534">Webserver</text></g><!--cluster ocfl--><g id="cluster_ocfl"><rect fill="none" height="122" rx="2.5" ry="2.5" style="stroke:#181818;stroke-width:1.0;" width="541" x="340" y="304.5183"/><text fill="#000000" font-family="sans-serif" font-size="14" font-weight="bold" lengthAdjust="spacing" textLength="79" x="571" y="320.0534">OCFL Repo</text></g><!--entity w1--><g id="elem_w1"><rect fill="#F1F1F1" height="36.4883" rx="2.5" ry="2.5" style="stroke:#181818;stroke-width:0.5;" width="100" x="50" y="177.5183"/><text fill="#000000" font-family="sans-serif" font-size="14" lengthAdjust="spacing" textLength="80" x="60" y="201.0534">Notebook 1</text></g><!--entity sr--><g id="elem_sr"><rect fill="#F1F1F1" height="36.4883" rx="2.5" ry="2.5" style="stroke:#181818;stroke-width:0.5;" width="116" x="906" y="177.5183"/><text fill="#000000" font-family="sans-serif" font-size="14" lengthAdjust="spacing" textLength="96" x="916" y="201.0534">Search results</text></g><g id="elem_GMN13"><path d="M280,481.5183 L280,506.8288 L416,506.8288 L416,491.5183 L406,481.5183 L280,481.5183 " fill="#FEFFDD" style="stroke:#181818;stroke-width:0.5;"/><path d="M406,481.5183 L406,491.5183 L416,491.5183 L406,481.5183 " fill="#FEFFDD" style="stroke:#181818;stroke-width:1.0;"/><text fill="#000000" font-family="sans-serif" font-size="13" lengthAdjust="spacing" textLength="115" x="286" y="499.0866">"*" = Open licence</text></g><!--entity ui--><g id="elem_ui"><rect fill="#F1F1F1" height="36.4883" rx="2.5" ry="2.5" style="stroke:#181818;stroke-width:0.5;" width="176" x="270" y="177.5183"/><text fill="#000000" font-family="sans-serif" font-size="14" lengthAdjust="spacing" textLength="156" x="280" y="201.0534">OCFL search/discovery</text></g><!--entity c1--><g id="elem_c1"><rect fill="#F1F1F1" height="36.4883" rx="2.5" ry="2.5" style="stroke:#181818;stroke-width:0.5;" width="77" x="779.5" y="366.5183"/><text fill="#000000" font-family="sans-serif" font-size="14" lengthAdjust="spacing" textLength="57" x="789.5" y="390.0534">Crate 1*</text></g><!--entity c2--><g id="elem_c2"><rect fill="#F1F1F1" height="36.4883" rx="2.5" ry="2.5" style="stroke:#181818;stroke-width:0.5;" width="77" x="667.5" y="366.5183"/><text fill="#000000" font-family="sans-serif" font-size="14" lengthAdjust="spacing" textLength="57" x="677.5" y="390.0534">Crate 2*</text></g><!--entity n1--><g id="elem_n1"><rect fill="#F1F1F1" height="36.4883" rx="2.5" ry="2.5" style="stroke:#181818;stroke-width:0.5;" width="107" x="525.5" y="366.5183"/><text fill="#000000" font-family="sans-serif" font-size="14" lengthAdjust="spacing" textLength="87" x="535.5" y="390.0534">Notebook 1*</text></g><!--entity n2--><g id="elem_n2"><rect fill="#F1F1F1" height="36.4883" rx="2.5" ry="2.5" style="stroke:#181818;stroke-width:0.5;" width="107" x="383.5" y="366.5183"/><text fill="#000000" font-family="sans-serif" font-size="14" lengthAdjust="spacing" textLength="87" x="393.5" y="390.0534">Notebook 2*</text></g><!--entity r1--><g id="elem_r1"><ellipse cx="1223" cy="166.0183" fill="#F1F1F1" rx="8" ry="8" style="stroke:#181818;stroke-width:0.5;"/><path d="M1223,174.0183 L1223,201.0183 M1210,182.0183 L1236,182.0183 M1223,201.0183 L1210,216.0183 M1223,201.0183 L1236,216.0183 " fill="none" style="stroke:#181818;stroke-width:0.5;"/><text fill="#000000" font-family="sans-serif" font-size="14" lengthAdjust="spacing" textLength="89" x="1178.5" y="231.0534">Researcher 1</text></g><!--link ocfl to GMN13--><g id="link_ocfl_GMN13"><path d="M348,426.8233 C348,427.1416 348,427.4605 348,427.7799 C348,429.0576 348,430.3445 348,431.6373 C348,434.223 348,436.8327 348,439.4419 C348,444.6604 348,449.8766 348,454.8941 C348,464.9289 348,474.1683 348,481.0383 " fill="none" id="ocfl-GMN13" style="stroke:#181818;stroke-width:1.0;stroke-dasharray:7.0,7.0;"/></g><!--link w1 to ui--><g id="link_w1_ui"><path d="M150.36,195.5183 C182.51,195.5183 225.21,195.5183 263.52,195.5183 " fill="none" id="w1-to-ui" style="stroke:#181818;stroke-width:1.0;"/><polygon fill="#181818" points="268.12,195.5183,259.12,191.5183,263.12,195.5183,259.12,199.5183,268.12,195.5183" style="stroke:#181818;stroke-width:1.0;"/><text fill="#000000" font-family="sans-serif" font-size="13" lengthAdjust="spacing" textLength="83" x="168.5" y="189.0866">Fetch Crate 1</text></g><!--link ui to ocfl--><g id="link_ui_ocfl"><path d="M356.74,220.0483 C356.08,232.4033 355.2163,248.5677 354.2888,265.9206 C353.825,274.5971 353.3453,283.5707 352.8672,292.5139 C352.7477,294.7497 352.6282,296.9836 352.5092,299.2105 C352.4496,300.3239 352.3902,301.4356 352.3309,302.5449 C352.3012,303.0995 352.2716,303.6536 352.242,304.2069 " fill="none" id="ui-ocfl" style="stroke:#181818;stroke-width:1.0;"/><polygon fill="#181818" points="357,215.2883,352.518,224.0582,356.729,220.2809,360.5063,224.4919,357,215.2883" style="stroke:#181818;stroke-width:1.0;"/><polygon fill="#181818" points="352.242,304.2069,356.7168,295.4333,352.509,299.2141,348.7283,295.0062,352.242,304.2069" style="stroke:#181818;stroke-width:1.0;"/><text fill="#000000" font-family="sans-serif" font-size="13" lengthAdjust="spacing" textLength="83" x="356" y="277.0866">Fetch Crate 1</text></g><!--link ui to c1--><g id="link_ui_c1"><path d="M446.21,196.9583 C534.07,201.5983 668.92,220.5083 762,288.5183 C786.44,306.3783 802.06,338.4183 810.42,360.3083 " fill="none" id="ui-to-c1" style="stroke:#181818;stroke-width:1.0;"/><polygon fill="#181818" points="812.07,364.7783,812.7079,354.9501,810.3395,360.0873,805.2023,357.7189,812.07,364.7783" style="stroke:#181818;stroke-width:1.0;"/><text fill="#000000" font-family="sans-serif" font-size="13" lengthAdjust="spacing" textLength="34" x="744" y="277.0866">Fetch</text></g><!--link r1 to ui--><g id="link_r1_ui"><path d="M1178.31,164.5383 C1142.27,141.5483 1089.32,112.1183 1038,99.5983 C807.85,43.4883 525.32,132.2583 410.37,174.8183 " fill="none" id="r1-to-ui" style="stroke:#181818;stroke-width:1.0;"/><polygon fill="#181818" points="405.78,176.5283,415.6115,177.1135,410.4616,174.7727,412.8025,169.6229,405.78,176.5283" style="stroke:#181818;stroke-width:1.0;"/><text fill="#000000" font-family="sans-serif" font-size="13" lengthAdjust="spacing" textLength="219" x="446.5" y="88.0866">Show me notebooks for wordcloud</text></g><!--link ui to sr--><g id="link_ui_sr"><path d="M446.44,195.5183 C569.64,195.5183 790.04,195.5183 899.15,195.5183 " fill="none" id="ui-to-sr" style="stroke:#181818;stroke-width:1.0;"/><polygon fill="#181818" points="904.02,195.5183,895.02,191.5183,899.02,195.5183,895.02,199.5183,904.02,195.5183" style="stroke:#181818;stroke-width:1.0;"/><text fill="#000000" font-family="sans-serif" font-size="13" lengthAdjust="spacing" textLength="174" x="589" y="189.0866">Show wordcloud notebooks</text></g><!--link r1 to sr--><g id="link_r1_sr"><path d="M1178.06,195.5183 C1136.88,195.5183 1075.42,195.5183 1028.91,195.5183 " fill="none" id="r1-to-sr" style="stroke:#181818;stroke-width:1.0;"/><polygon fill="#181818" points="1023.96,195.5183,1032.96,199.5183,1028.96,195.5183,1032.96,191.5183,1023.96,195.5183" style="stroke:#181818;stroke-width:1.0;"/><text fill="#000000" font-family="sans-serif" font-size="13" lengthAdjust="spacing" textLength="120" x="1040.25" y="189.0866">Invoke Notebook 1</text></g><!--link sr to Workbench--><g id="link_sr_Workbench"><path d="M905.64,180.5783 C812.86,157.6883 625.68,114.9683 464,99.5983 C416.44,95.0783 70.92,69.2783 34,99.5983 C30.065,102.8308 26.7914,106.623 24.0782,110.7993 C23.3999,111.8434 22.7567,112.9114 22.1468,114.0008 C21.9944,114.2731 21.844,114.5468 21.6957,114.8217 C21.6216,114.9592 21.5479,115.097 21.4748,115.2351 " fill="none" id="sr-to-Workbench" style="stroke:#181818;stroke-width:1.0;"/><polygon fill="#181818" points="21.4748,115.2351,29.221,109.1526,23.8143,110.8162,22.1507,105.4095,21.4748,115.2351" style="stroke:#181818;stroke-width:1.0;"/><text fill="#000000" font-family="sans-serif" font-size="13" lengthAdjust="spacing" textLength="232" x="673" y="88.0866">"Fire up Notebook 1 for Researcher 1</text></g><!--SRC=[TP91QyCm38Nl_XKYnq4PwMvbAun2OJ1MQ0Ox9uxQcBfMa9s6ClRVfxhkadORkUbzUj9J_6w2nHaK0LjuW0ayrxLnMwYDrtH0BYjZJJWgHXrAjxK87yIx2frku7DKpTueO4MqWpo3qaEVY_mbdofr88PiZHvBrWro8ZXNQcoBbKUMYTUsgyNo5SwTzvUTZh6_CqAU1jpIQsmf4gGtziHS8Gik0q9-5mbztlANF4toz5OUKfu9b_zB90ytlHnY11Kn433wpWOVESzAEUc5YaAWFT0cxZ-3J7oUODMY0skq71vZQZdmP7uwmWoM6CGi1LDIUXGbXlz3cuWciPEYUB0f6kfXZ-1I0WyR-N4zSQqjTNLidikU5_H76JfKyelGYplG3c4ucPAoYCC3ad1BmmXTEwBYrF5h-GO0]--></g></svg>