<?xml version="1.0" encoding="UTF-8" standalone="no"?><svg xmlns="http://www.w3.org/2000/svg" xmlns:xlink="http://www.w3.org/1999/xlink" contentStyleType="text/css" height="645px" preserveAspectRatio="none" style="width:942px;height:645px;background:#FFFFFF;" version="1.1" viewBox="0 0 942 645" width="942px" zoomAndPan="magnify"><defs/><g><text fill="#000000" font-family="sans-serif" font-size="14" font-weight="bold" lengthAdjust="spacing" textLength="555" x="186.5" y="23.5352">Complete corpus collection metadata-only crate w/ links to object packages</text><!--cluster mc--><g id="cluster_mc"><path d="M248.5,43.4883 L370.5,43.4883 A3.75,3.75 0 0 1 373,45.9883 L380,65.9766 L555.5,65.9766 A2.5,2.5 0 0 1 558,68.4766 L558,144.9883 A2.5,2.5 0 0 1 555.5,147.4883 L248.5,147.4883 A2.5,2.5 0 0 1 246,144.9883 L246,45.9883 A2.5,2.5 0 0 1 248.5,43.4883 " fill="none" style="stroke:#000000;stroke-width:1.5;"/><line style="stroke:#000000;stroke-width:1.5;" x1="246" x2="380" y1="65.9766" y2="65.9766"/><text fill="#000000" font-family="sans-serif" font-size="14" font-weight="bold" lengthAdjust="spacing" textLength="121" x="250" y="59.0234">name My Corpus</text></g><!--cluster cAc--><g id="cluster_cAc"><path d="M47.5,211.4883 L204.5,211.4883 A3.75,3.75 0 0 1 207,213.9883 L214,233.9766 L358.5,233.9766 A2.5,2.5 0 0 1 361,236.4766 L361,312.9883 A2.5,2.5 0 0 1 358.5,315.4883 L47.5,315.4883 A2.5,2.5 0 0 1 45,312.9883 L45,213.9883 A2.5,2.5 0 0 1 47.5,211.4883 " fill="none" style="stroke:#000000;stroke-width:1.5;"/><line style="stroke:#000000;stroke-width:1.5;" x1="45" x2="214" y1="233.9766" y2="233.9766"/><text fill="#000000" font-family="sans-serif" font-size="14" font-weight="bold" lengthAdjust="spacing" textLength="156" x="49" y="227.0234">ROCrate: Collection A</text></g><!--cluster cBc--><g id="cluster_cBc"><path d="M387.5,211.4883 L543.5,211.4883 A3.75,3.75 0 0 1 546,213.9883 L553,233.9766 L698.5,233.9766 A2.5,2.5 0 0 1 701,236.4766 L701,312.9883 A2.5,2.5 0 0 1 698.5,315.4883 L387.5,315.4883 A2.5,2.5 0 0 1 385,312.9883 L385,213.9883 A2.5,2.5 0 0 1 387.5,211.4883 " fill="none" style="stroke:#000000;stroke-width:1.5;"/><line style="stroke:#000000;stroke-width:1.5;" x1="385" x2="553" y1="233.9766" y2="233.9766"/><text fill="#000000" font-family="sans-serif" font-size="14" font-weight="bold" lengthAdjust="spacing" textLength="155" x="389" y="227.0234">ROCrate: Collection B</text></g><!--cluster ec2--><g id="cluster_ec2"><path d="M8.5,372.4883 L172.5,372.4883 A3.75,3.75 0 0 1 175,374.9883 L182,394.9766 L696.5,394.9766 A2.5,2.5 0 0 1 699,397.4766 L699,635.9883 A2.5,2.5 0 0 1 696.5,638.4883 L8.5,638.4883 A2.5,2.5 0 0 1 6,635.9883 L6,374.9883 A2.5,2.5 0 0 1 8.5,372.4883 " fill="none" style="stroke:#000000;stroke-width:1.5;"/><line style="stroke:#000000;stroke-width:1.5;" x1="6" x2="182" y1="394.9766" y2="394.9766"/><text fill="#000000" font-family="sans-serif" font-size="14" font-weight="bold" lengthAdjust="spacing" textLength="163" x="10" y="388.0234">RO Crate: Interview #1</text></g><!--entity cc--><g id="elem_cc"><rect fill="#F1F1F1" height="52.9766" rx="2.5" ry="2.5" style="stroke:#181818;stroke-width:0.5;" width="280" x="262" y="78.4883"/><text fill="#000000" font-family="sans-serif" font-size="14" lengthAdjust="spacing" textLength="260" x="272" y="102.0234">@type: [Dataset, RepositoryCollection]</text><text fill="#000000" font-family="sans-serif" font-size="14" lengthAdjust="spacing" textLength="180" x="272" y="118.5117">conformsTo: ./#Collection</text></g><!--entity ca--><g id="elem_ca"><rect fill="#F1F1F1" height="52.9766" rx="2.5" ry="2.5" style="stroke:#181818;stroke-width:0.5;" width="284" x="61" y="246.4883"/><text fill="#000000" font-family="sans-serif" font-size="14" lengthAdjust="spacing" textLength="264" x="71" y="270.0234">@type:  [Dataset, RepositoryCollection]</text><text fill="#000000" font-family="sans-serif" font-size="14" lengthAdjust="spacing" textLength="180" x="71" y="286.5117">conformsTo: ./#Collection</text></g><!--entity cb--><g id="elem_cb"><rect fill="#F1F1F1" height="52.9766" rx="2.5" ry="2.5" style="stroke:#181818;stroke-width:0.5;" width="284" x="401" y="246.4883"/><text fill="#000000" font-family="sans-serif" font-size="14" lengthAdjust="spacing" textLength="264" x="411" y="270.0234">@type:  [Dataset, RepositoryCollection]</text><text fill="#000000" font-family="sans-serif" font-size="14" lengthAdjust="spacing" textLength="180" x="411" y="286.5117">conformsTo: ./#Collection</text></g><!--entity ea1--><g id="elem_ea1"><rect fill="#F1F1F1" height="36.4883" rx="2.5" ry="2.5" style="stroke:#181818;stroke-width:0.5;" width="315" x="30.5" y="578.4883"/><text fill="#000000" font-family="sans-serif" font-size="14" lengthAdjust="spacing" textLength="295" x="40.5" y="602.0234">@type: [File, PrinaryText]:  files/audio1.wav</text></g><!--entity ecsv1--><g id="elem_ecsv1"><rect fill="#F1F1F1" height="36.4883" rx="2.5" ry="2.5" style="stroke:#181818;stroke-width:0.5;" width="286" x="381" y="578.4883"/><text fill="#000000" font-family="sans-serif" font-size="14" lengthAdjust="spacing" textLength="266" x="391" y="602.0234">@type: [File, Annotation]: files/csv1.csv</text></g><!--entity eo1--><g id="elem_eo1"><rect fill="#F1F1F1" height="85.9531" rx="2.5" ry="2.5" style="stroke:#181818;stroke-width:0.5;" width="193" x="106.5" y="415.4883"/><text fill="#000000" font-family="sans-serif" font-size="14" lengthAdjust="spacing" textLength="166" x="116.5" y="439.0234">@type: RepositoryObject</text><text fill="#000000" font-family="sans-serif" font-size="14" lengthAdjust="spacing" textLength="155" x="116.5" y="455.5117">conformsTo: ./#Object</text><text fill="#000000" font-family="sans-serif" font-size="14" lengthAdjust="spacing" textLength="116" x="116.5" y="472">modailty: Speech</text><text fill="#000000" font-family="sans-serif" font-size="14" lengthAdjust="spacing" textLength="173" x="116.5" y="488.4883">lingusiticGenre: Interview</text></g><g id="elem_GMN20"><path d="M577,61.4883 L577,148.041 L851,148.041 L851,71.4883 L841,61.4883 L577,61.4883 " fill="#FEFFDD" style="stroke:#181818;stroke-width:0.5;"/><path d="M841,61.4883 L841,71.4883 L851,71.4883 L841,61.4883 " fill="#FEFFDD" style="stroke:#181818;stroke-width:1.0;"/><text fill="#000000" font-family="sans-serif" font-size="13" lengthAdjust="spacing" textLength="139" x="583" y="79.0566">Repository Collection:</text><text fill="#000000" font-family="sans-serif" font-size="13" lengthAdjust="spacing" textLength="233" x="583" y="94.3672">- MUST contain descriptive metadata</text><text fill="#000000" font-family="sans-serif" font-size="13" lengthAdjust="spacing" textLength="158" x="591" y="109.6777">for the corpus/collection</text><text fill="#000000" font-family="sans-serif" font-size="13" lengthAdjust="spacing" textLength="253" x="583" y="124.9883">- MAY contain hasMember relationships</text><text fill="#000000" font-family="sans-serif" font-size="13" lengthAdjust="spacing" textLength="219" x="591" y="140.2988">listing child Collections or Objects</text></g><g id="elem_GMN23"><path d="M723,583.9883 L723,609.2988 L935,609.2988 L935,593.9883 L925,583.9883 L723,583.9883 " fill="#FEFFDD" style="stroke:#181818;stroke-width:0.5;"/><path d="M925,583.9883 L925,593.9883 L935,593.9883 L925,583.9883 " fill="#FEFFDD" style="stroke:#181818;stroke-width:1.0;"/><text fill="#000000" font-family="sans-serif" font-size="13" lengthAdjust="spacing" textLength="191" x="729" y="601.5566">Individual object with file data</text></g><!--link eo1 to ea1--><g id="link_eo1_ea1"><path d="M198.34,501.7783 C195.8,524.7883 192.75,552.4183 190.62,571.6883 " fill="none" id="eo1-to-ea1" style="stroke:#181818;stroke-width:1.0;"/><polygon fill="#181818" points="190.08,576.6283,195.0575,568.1298,190.6369,571.6594,187.1072,567.2388,190.08,576.6283" style="stroke:#181818;stroke-width:1.0;"/><text fill="#000000" font-family="sans-serif" font-size="13" lengthAdjust="spacing" textLength="46" x="197" y="545.0566">hasPart</text></g><!--link eo1 to ecsv1--><g id="link_eo1_ecsv1"><path d="M299.75,500.4783 C358.52,525.3783 430.91,556.0483 477.26,575.6883 " fill="none" id="eo1-to-ecsv1" style="stroke:#181818;stroke-width:1.0;"/><polygon fill="#181818" points="481.67,577.5583,474.9464,570.3615,477.0669,575.6059,471.8226,577.7264,481.67,577.5583" style="stroke:#181818;stroke-width:1.0;"/><text fill="#000000" font-family="sans-serif" font-size="13" lengthAdjust="spacing" textLength="46" x="412" y="545.0566">hasPart</text></g><!--reverse link ca to eo1--><g id="link_ca_eo1"><path d="M203,306.1083 C203,336.3583 203,381.8883 203,415.1083 " fill="none" id="ca-backto-eo1" style="stroke:#181818;stroke-width:1.0;"/><polygon fill="#181818" points="203,301.4083,199,310.4083,203,306.4083,207,310.4083,203,301.4083" style="stroke:#181818;stroke-width:1.0;"/><text fill="#000000" font-family="sans-serif" font-size="13" lengthAdjust="spacing" textLength="66" x="204" y="345.0566">memberOf</text></g><!--reverse link cc to ca--><g id="link_cc_ca"><path d="M365.95,136.0583 C328.21,167.5383 269.56,216.4683 233.88,246.2283 " fill="none" id="cc-backto-ca" style="stroke:#181818;stroke-width:1.0;"/><polygon fill="#181818" points="369.74,132.8983,360.2752,135.6217,365.9106,136.1132,365.4191,141.7487,369.74,132.8983" style="stroke:#181818;stroke-width:1.0;"/><text fill="#000000" font-family="sans-serif" font-size="13" lengthAdjust="spacing" textLength="66" x="315" y="192.0566">memberOf</text></g><!--reverse link cc to cb--><g id="link_cc_cb"><path d="M428.2,136.8283 C454.96,168.3383 496.05,216.7083 521.12,246.2283 " fill="none" id="cc-backto-cb" style="stroke:#181818;stroke-width:1.0;"/><polygon fill="#181818" points="425.01,133.0783,427.7715,142.5321,428.2404,136.8947,433.8777,137.3635,425.01,133.0783" style="stroke:#181818;stroke-width:1.0;"/><text fill="#000000" font-family="sans-serif" font-size="13" lengthAdjust="spacing" textLength="66" x="477" y="192.0566">memberOf</text></g><!--link cc to GMN20--><g id="link_cc_GMN20"><path d="M542.46,104.9883 C553.85,104.9883 565.24,104.9883 576.63,104.9883 " fill="none" id="cc-GMN20" style="stroke:#181818;stroke-width:1.0;stroke-dasharray:7.0,7.0;"/></g><!--link ec2 to GMN23--><g id="link_ec2_GMN23"><path d="M699.1184,467.4896 C699.3363,467.7043 699.558,467.9228 699.7834,468.1449 C700.2344,468.5893 700.7004,469.0485 701.1809,469.5221 C703.1031,471.4162 705.2576,473.5393 707.6095,475.8569 C717.0172,485.1273 729.5831,497.5102 743.0688,510.7995 C770.04,537.3783 800.69,567.5833 817.11,583.7683 " fill="none" id="ec2-GMN23" style="stroke:#181818;stroke-width:1.0;stroke-dasharray:7.0,7.0;"/></g><!--SRC=[jPGzRzim48Pt_Of3iiOsr553KST5Ymw6WyGTYZe3HPqjDXGfa2UfGf7_tgCaImeSU2cgGHztl9SFxqEaI6C26rkK6Wb1MbTMdXzQeoHb3HH88XCa5jRe5gGJlAfPWLRcnGDPiEalNWcba2_YX3uQNk36Y09Xsx9saBm1uQ6Gy2S20CSHmfmqh_f4RSa0Fp_p5Xxf3Xwnj5wHTUrcX7W-66dDqRh2xsq2ozNjvEk4PH0Eog_HQpGXFEusWJUSRppFkWzOdoCkMVuPHemm087dEj1z7tJ_7u7IAq0m47qpXAvMsC1jt4MX_D1Lwv9dWjXrnR_O_smkR2QKfZQ1fn9HvWV3RNEgE5R9hsZSVDj-JnlFKD_haozAunqyE6M4Q_VucvuvFqSs-fMeCcNZPIFgNal4LpNMnbWINGAJGK7wEbxoRJW_V_KeV0MoHMORi_WOb261NFW7uUYj9yJCVBspAjd5NP7mC1Kfkjqnug_1BD-OqtVD4PCYE7NA2UonTqv5c3LJSZ0Bs7v_slC46nBAG8PUEbMIgd4SvOFXb5a7b9y7VZKDVAUm_Z4Ay56s7GTdKdVfyhagVT3GoXFN4sIkT3QZyC3YVGzuBcPFdreYMmJyq5YXy9cgLLO9VVw5D8hohX0G8AE_]--></g></svg>