<?xml version="1.0" encoding="UTF-8" standalone="no"?><svg xmlns="http://www.w3.org/2000/svg" xmlns:xlink="http://www.w3.org/1999/xlink" contentStyleType="text/css" height="1008px" preserveAspectRatio="none" style="width:848px;height:1008px;background:#FFFFFF;" version="1.1" viewBox="0 0 848 1008" width="848px" zoomAndPan="magnify"><defs/><g><text fill="#000000" font-family="sans-serif" font-size="14" font-weight="bold" lengthAdjust="spacing" textLength="140" x="347" y="23.5352">LDaCA Aggregation</text><!--cluster auth--><g id="cluster_auth"><rect fill="none" height="220" rx="2.5" ry="2.5" style="stroke:#181818;stroke-width:1.0;" width="387" x="7" y="44.4883"/><text fill="#000000" font-family="sans-serif" font-size="14" font-weight="bold" lengthAdjust="spacing" textLength="99" x="151" y="60.0234">Authorization</text></g><!--cluster port--><g id="cluster_port"><rect fill="none" height="112" rx="2.5" ry="2.5" style="stroke:#181818;stroke-width:1.0;" width="401" x="385" y="391.4883"/><text fill="#000000" font-family="sans-serif" font-size="14" font-weight="bold" lengthAdjust="spacing" textLength="43" x="564" y="407.0234">Portal</text></g><!--entity AAF--><g id="elem_AAF"><rect fill="#F1F1F1" height="46.4883" rx="2.5" ry="2.5" style="stroke:#181818;stroke-width:0.5;" width="68" x="158" y="87.4883"/><rect fill="#F1F1F1" height="10" style="stroke:#181818;stroke-width:0.5;" width="15" x="206" y="92.4883"/><rect fill="#F1F1F1" height="2" style="stroke:#181818;stroke-width:0.5;" width="4" x="204" y="94.4883"/><rect fill="#F1F1F1" height="2" style="stroke:#181818;stroke-width:0.5;" width="4" x="204" y="98.4883"/><text fill="#000000" font-family="sans-serif" font-size="14" lengthAdjust="spacing" textLength="28" x="173" y="121.0234">AAF</text></g><!--entity Google--><g id="elem_Google"><rect fill="#F1F1F1" height="46.4883" rx="2.5" ry="2.5" style="stroke:#181818;stroke-width:0.5;" width="89" x="261.5" y="87.4883"/><rect fill="#F1F1F1" height="10" style="stroke:#181818;stroke-width:0.5;" width="15" x="330.5" y="92.4883"/><rect fill="#F1F1F1" height="2" style="stroke:#181818;stroke-width:0.5;" width="4" x="328.5" y="94.4883"/><rect fill="#F1F1F1" height="2" style="stroke:#181818;stroke-width:0.5;" width="4" x="328.5" y="98.4883"/><text fill="#000000" font-family="sans-serif" font-size="14" lengthAdjust="spacing" textLength="49" x="276.5" y="121.0234">Google</text></g><!--entity lic--><g id="elem_lic"><rect fill="#F1F1F1" height="46.4883" rx="2.5" ry="2.5" style="stroke:#181818;stroke-width:0.5;" width="168" x="108" y="194.4883"/><rect fill="#F1F1F1" height="10" style="stroke:#181818;stroke-width:0.5;" width="15" x="256" y="199.4883"/><rect fill="#F1F1F1" height="2" style="stroke:#181818;stroke-width:0.5;" width="4" x="254" y="201.4883"/><rect fill="#F1F1F1" height="2" style="stroke:#181818;stroke-width:0.5;" width="4" x="254" y="205.4883"/><text fill="#000000" font-family="sans-serif" font-size="14" lengthAdjust="spacing" textLength="128" x="123" y="228.0234">Licence Authorizer</text></g><!--entity la--><g id="elem_la"><path d="M31,97.9883 C31,87.9883 77,87.9883 77,87.9883 C77,87.9883 123,87.9883 123,97.9883 L123,123.4766 C123,133.4766 77,133.4766 77,133.4766 C77,133.4766 31,133.4766 31,123.4766 L31,97.9883 " fill="#F1F1F1" style="stroke:#181818;stroke-width:0.5;"/><path d="M31,97.9883 C31,107.9883 77,107.9883 77,107.9883 C77,107.9883 123,107.9883 123,97.9883 " fill="none" style="stroke:#181818;stroke-width:0.5;"/><text fill="#000000" font-family="sans-serif" font-size="14" lengthAdjust="spacing" textLength="72" x="41" y="125.5234">Local Auth</text></g><!--entity repo1--><g id="elem_repo1"><path d="M443,708.4883 C443,698.4883 496,698.4883 496,698.4883 C496,698.4883 549,698.4883 549,708.4883 L549,981.3008 C549,991.3008 496,991.3008 496,991.3008 C496,991.3008 443,991.3008 443,981.3008 L443,708.4883 " fill="#F1F1F1" style="stroke:#181818;stroke-width:0.5;"/><path d="M443,708.4883 C443,718.4883 496,718.4883 496,718.4883 C496,718.4883 549,718.4883 549,708.4883 " fill="none" style="stroke:#181818;stroke-width:0.5;"/><text fill="#000000" font-family="sans-serif" font-size="14" lengthAdjust="spacing" textLength="86" x="453" y="736.0234">Repository 1</text><text fill="#000000" font-family="sans-serif" font-size="14" lengthAdjust="spacing" textLength="4" x="453" y="752.5117"> </text><text fill="#000000" font-family="sans-serif" font-size="14" lengthAdjust="spacing" textLength="4" x="453" y="769"> </text><text fill="#000000" font-family="sans-serif" font-size="14" lengthAdjust="spacing" textLength="4" x="453" y="785.4883"> </text><text fill="#000000" font-family="sans-serif" font-size="14" lengthAdjust="spacing" textLength="4" x="453" y="801.9766"> </text><text fill="#000000" font-family="sans-serif" font-size="14" lengthAdjust="spacing" textLength="4" x="453" y="818.4648"> </text><text fill="#000000" font-family="sans-serif" font-size="14" lengthAdjust="spacing" textLength="4" x="453" y="834.9531"> </text><text fill="#000000" font-family="sans-serif" font-size="14" lengthAdjust="spacing" textLength="4" x="453" y="851.4414"> </text><text fill="#000000" font-family="sans-serif" font-size="14" lengthAdjust="spacing" textLength="4" x="453" y="867.9297"> </text><text fill="#000000" font-family="sans-serif" font-size="14" lengthAdjust="spacing" textLength="4" x="453" y="884.418"> </text><text fill="#000000" font-family="sans-serif" font-size="14" lengthAdjust="spacing" textLength="4" x="453" y="900.9063"> </text><text fill="#000000" font-family="sans-serif" font-size="14" lengthAdjust="spacing" textLength="4" x="453" y="917.3945"> </text><text fill="#000000" font-family="sans-serif" font-size="14" lengthAdjust="spacing" textLength="4" x="453" y="933.8828"> </text><text fill="#000000" font-family="sans-serif" font-size="14" lengthAdjust="spacing" textLength="4" x="453" y="950.3711"> </text><text fill="#000000" font-family="sans-serif" font-size="14" lengthAdjust="spacing" textLength="4" x="453" y="966.8594"> </text><text fill="#000000" font-family="sans-serif" font-size="14" lengthAdjust="spacing" textLength="4" x="453" y="983.3477"> </text></g><!--entity repo2--><g id="elem_repo2"><path d="M584,708.4883 C584,698.4883 637,698.4883 637,698.4883 C637,698.4883 690,698.4883 690,708.4883 L690,981.3008 C690,991.3008 637,991.3008 637,991.3008 C637,991.3008 584,991.3008 584,981.3008 L584,708.4883 " fill="#F1F1F1" style="stroke:#181818;stroke-width:0.5;"/><path d="M584,708.4883 C584,718.4883 637,718.4883 637,718.4883 C637,718.4883 690,718.4883 690,708.4883 " fill="none" style="stroke:#181818;stroke-width:0.5;"/><text fill="#000000" font-family="sans-serif" font-size="14" lengthAdjust="spacing" textLength="86" x="594" y="736.0234">Repository 2</text><text fill="#000000" font-family="sans-serif" font-size="14" lengthAdjust="spacing" textLength="4" x="594" y="752.5117"> </text><text fill="#000000" font-family="sans-serif" font-size="14" lengthAdjust="spacing" textLength="4" x="594" y="769"> </text><text fill="#000000" font-family="sans-serif" font-size="14" lengthAdjust="spacing" textLength="4" x="594" y="785.4883"> </text><text fill="#000000" font-family="sans-serif" font-size="14" lengthAdjust="spacing" textLength="4" x="594" y="801.9766"> </text><text fill="#000000" font-family="sans-serif" font-size="14" lengthAdjust="spacing" textLength="4" x="594" y="818.4648"> </text><text fill="#000000" font-family="sans-serif" font-size="14" lengthAdjust="spacing" textLength="4" x="594" y="834.9531"> </text><text fill="#000000" font-family="sans-serif" font-size="14" lengthAdjust="spacing" textLength="4" x="594" y="851.4414"> </text><text fill="#000000" font-family="sans-serif" font-size="14" lengthAdjust="spacing" textLength="4" x="594" y="867.9297"> </text><text fill="#000000" font-family="sans-serif" font-size="14" lengthAdjust="spacing" textLength="4" x="594" y="884.418"> </text><text fill="#000000" font-family="sans-serif" font-size="14" lengthAdjust="spacing" textLength="4" x="594" y="900.9063"> </text><text fill="#000000" font-family="sans-serif" font-size="14" lengthAdjust="spacing" textLength="4" x="594" y="917.3945"> </text><text fill="#000000" font-family="sans-serif" font-size="14" lengthAdjust="spacing" textLength="4" x="594" y="933.8828"> </text><text fill="#000000" font-family="sans-serif" font-size="14" lengthAdjust="spacing" textLength="4" x="594" y="950.3711"> </text><text fill="#000000" font-family="sans-serif" font-size="14" lengthAdjust="spacing" textLength="4" x="594" y="966.8594"> </text><text fill="#000000" font-family="sans-serif" font-size="14" lengthAdjust="spacing" textLength="4" x="594" y="983.3477"> </text></g><!--entity repo3--><g id="elem_repo3"><path d="M725,708.4883 C725,698.4883 778,698.4883 778,698.4883 C778,698.4883 831,698.4883 831,708.4883 L831,981.3008 C831,991.3008 778,991.3008 778,991.3008 C778,991.3008 725,991.3008 725,981.3008 L725,708.4883 " fill="#F1F1F1" style="stroke:#181818;stroke-width:0.5;"/><path d="M725,708.4883 C725,718.4883 778,718.4883 778,718.4883 C778,718.4883 831,718.4883 831,708.4883 " fill="none" style="stroke:#181818;stroke-width:0.5;"/><text fill="#000000" font-family="sans-serif" font-size="14" lengthAdjust="spacing" textLength="86" x="735" y="736.0234">Repository 3</text><text fill="#000000" font-family="sans-serif" font-size="14" lengthAdjust="spacing" textLength="4" x="735" y="752.5117"> </text><text fill="#000000" font-family="sans-serif" font-size="14" lengthAdjust="spacing" textLength="4" x="735" y="769"> </text><text fill="#000000" font-family="sans-serif" font-size="14" lengthAdjust="spacing" textLength="4" x="735" y="785.4883"> </text><text fill="#000000" font-family="sans-serif" font-size="14" lengthAdjust="spacing" textLength="4" x="735" y="801.9766"> </text><text fill="#000000" font-family="sans-serif" font-size="14" lengthAdjust="spacing" textLength="4" x="735" y="818.4648"> </text><text fill="#000000" font-family="sans-serif" font-size="14" lengthAdjust="spacing" textLength="4" x="735" y="834.9531"> </text><text fill="#000000" font-family="sans-serif" font-size="14" lengthAdjust="spacing" textLength="4" x="735" y="851.4414"> </text><text fill="#000000" font-family="sans-serif" font-size="14" lengthAdjust="spacing" textLength="4" x="735" y="867.9297"> </text><text fill="#000000" font-family="sans-serif" font-size="14" lengthAdjust="spacing" textLength="4" x="735" y="884.418"> </text><text fill="#000000" font-family="sans-serif" font-size="14" lengthAdjust="spacing" textLength="4" x="735" y="900.9063"> </text><text fill="#000000" font-family="sans-serif" font-size="14" lengthAdjust="spacing" textLength="4" x="735" y="917.3945"> </text><text fill="#000000" font-family="sans-serif" font-size="14" lengthAdjust="spacing" textLength="4" x="735" y="933.8828"> </text><text fill="#000000" font-family="sans-serif" font-size="14" lengthAdjust="spacing" textLength="4" x="735" y="950.3711"> </text><text fill="#000000" font-family="sans-serif" font-size="14" lengthAdjust="spacing" textLength="4" x="735" y="966.8594"> </text><text fill="#000000" font-family="sans-serif" font-size="14" lengthAdjust="spacing" textLength="4" x="735" y="983.3477"> </text></g><!--entity inbox--><g id="elem_inbox"><rect fill="#F1F1F1" height="36.4883" rx="2.5" ry="2.5" style="stroke:#181818;stroke-width:0.5;" width="60" x="702" y="438.9883"/><text fill="#000000" font-family="sans-serif" font-size="14" lengthAdjust="spacing" textLength="40" x="712" y="462.5234">Inbox</text></g><!--entity i--><g id="elem_i"><path d="M607.5,444.4883 C607.5,434.4883 637,434.4883 637,434.4883 C637,434.4883 666.5,434.4883 666.5,444.4883 L666.5,469.9766 C666.5,479.9766 637,479.9766 637,479.9766 C637,479.9766 607.5,479.9766 607.5,469.9766 L607.5,444.4883 " fill="#F1F1F1" style="stroke:#181818;stroke-width:0.5;"/><path d="M607.5,444.4883 C607.5,454.4883 637,454.4883 637,454.4883 C637,454.4883 666.5,454.4883 666.5,444.4883 " fill="none" style="stroke:#181818;stroke-width:0.5;"/><text fill="#000000" font-family="sans-serif" font-size="14" lengthAdjust="spacing" textLength="39" x="617.5" y="472.0234">Index</text></g><!--entity web--><g id="elem_web"><rect fill="#F1F1F1" height="36.4883" rx="2.5" ry="2.5" style="stroke:#181818;stroke-width:0.5;" width="67" x="505.5" y="438.9883"/><text fill="#000000" font-family="sans-serif" font-size="14" lengthAdjust="spacing" textLength="47" x="515.5" y="462.5234">Web UI</text></g><!--entity api--><g id="elem_api"><rect fill="#F1F1F1" height="36.4883" rx="2.5" ry="2.5" style="stroke:#181818;stroke-width:0.5;" width="42" x="428" y="438.9883"/><text fill="#000000" font-family="sans-serif" font-size="14" lengthAdjust="spacing" textLength="22" x="438" y="462.5234">API</text></g><!--reverse link auth to port--><g id="link_auth_port"><path d="M389.1372,265.8974 C389.1506,266.5566 389.164,267.2162 389.1774,267.8761 C389.2847,273.1551 389.3923,278.4542 389.5,283.7533 C389.9306,304.9495 390.3613,326.1455 390.7658,346.0573 C390.9681,356.0132 391.1639,365.648 391.3499,374.8014 C391.4429,379.3781 391.5334,383.8343 391.6211,388.1502 C391.6431,389.2292 391.6648,390.2994 391.6864,391.3605 " fill="none" id="auth-backto-port" style="stroke:#181818;stroke-width:1.0;"/><polygon fill="#181818" points="389.1372,265.8974,385.3209,274.9768,389.2388,270.8964,393.3192,274.8143,389.1372,265.8974" style="stroke:#181818;stroke-width:1.0;"/><text fill="#000000" font-family="sans-serif" font-size="13" lengthAdjust="spacing" textLength="99" x="391" y="302.0566">Authorise users</text></g><!--link i to repo1--><g id="link_i_repo1"><path d="M620.44,479.8783 C593.43,515.6783 542.61,583.3683 540,589.4883 C526.32,621.5583 516.88,657.6183 510.39,692.2983 " fill="none" id="i-to-repo1" style="stroke:#181818;stroke-width:1.0;"/><polygon fill="#181818" points="509.56,696.8083,515.1159,688.6761,510.4607,691.8901,507.2467,687.2349,509.56,696.8083" style="stroke:#181818;stroke-width:1.0;"/><text fill="#000000" font-family="sans-serif" font-size="13" lengthAdjust="spacing" textLength="87" x="541" y="603.0566">Index content</text></g><!--link i to repo2--><g id="link_i_repo2"><path d="M637,479.8483 C637,520.5683 637,611.2483 637,691.9183 " fill="none" id="i-to-repo2" style="stroke:#181818;stroke-width:1.0;"/><polygon fill="#181818" points="637,696.6883,641,687.6883,637,691.6883,633,687.6883,637,696.6883" style="stroke:#181818;stroke-width:1.0;"/><text fill="#000000" font-family="sans-serif" font-size="13" lengthAdjust="spacing" textLength="87" x="638" y="603.0566">Index content</text></g><!--link i to repo3--><g id="link_i_repo3"><path d="M654.06,479.9383 C680.49,514.1183 728.85,577.4183 734,589.4883 C747.68,621.5583 757.12,657.6183 763.61,692.2983 " fill="none" id="i-to-repo3" style="stroke:#181818;stroke-width:1.0;"/><polygon fill="#181818" points="764.44,696.8083,766.7533,687.2349,763.5393,691.8901,758.8841,688.6761,764.44,696.8083" style="stroke:#181818;stroke-width:1.0;"/><text fill="#000000" font-family="sans-serif" font-size="13" lengthAdjust="spacing" textLength="87" x="741" y="603.0566">Index content</text></g><!--SRC=[ZP5FQuGm4CNl-HI3Tm-hDm-5qD8YU5WAfOVj7c8SRC1c98xq7_tk7UCMjQNBaikGttilmmjJ3qnG4pEzGEC2MdRa5Jlki83gnbnhq6qRi3KHg4bXVDiXw96VARYF2C0COEG2FbLZsDHcG4WgigQBkcJYdH7wfGvQtnxLuOv8KcIed4LlbpmCnwXsLebw5NUFFGsEARp3xicVE_6v8FATlFXlI7PXI7Ok9Bym93-5BFtjAR3K8xoNQLDSwHjyYrOtsSIts997hE6XZFHLnfcl1Ne_KzExMFYQbRwcK_8qpLuL5qZJiK_Jg_aRYv_la7N60SEWd0WcFDTQGDmHB7b6pnkQ_QQmmVbVhBu1]--></g></svg>