<?xml version="1.0" encoding="UTF-8" standalone="no"?><svg xmlns="http://www.w3.org/2000/svg" xmlns:xlink="http://www.w3.org/1999/xlink" contentStyleType="text/css" height="476px" preserveAspectRatio="none" style="width:687px;height:476px;background:#FFFFFF;" version="1.1" viewBox="0 0 687 476" width="687px" zoomAndPan="magnify"><defs/><g><text fill="#000000" font-family="sans-serif" font-size="14" font-weight="bold" lengthAdjust="spacing" textLength="329" x="172" y="23.5352">Self contained corpus crate with all resources</text><!--cluster ROCrate: My Corpus--><g id="cluster_ROCrate: My Corpus"><path d="M8.5,43.4883 L154.5,43.4883 A3.75,3.75 0 0 1 157,45.9883 L164,65.9766 L677.5,65.9766 A2.5,2.5 0 0 1 680,68.4766 L680,466.9883 A2.5,2.5 0 0 1 677.5,469.4883 L8.5,469.4883 A2.5,2.5 0 0 1 6,466.9883 L6,45.9883 A2.5,2.5 0 0 1 8.5,43.4883 " fill="none" style="stroke:#000000;stroke-width:1.5;"/><line style="stroke:#000000;stroke-width:1.5;" x1="6" x2="164" y1="65.9766" y2="65.9766"/><text fill="#000000" font-family="sans-serif" font-size="14" font-weight="bold" lengthAdjust="spacing" textLength="145" x="10" y="59.0234">ROCrate: My Corpus</text></g><!--entity a1--><g id="elem_a1"><rect fill="#F1F1F1" height="36.4883" rx="2.5" ry="2.5" style="stroke:#181818;stroke-width:0.5;" width="218" x="83" y="417.4883"/><text fill="#000000" font-family="sans-serif" font-size="14" lengthAdjust="spacing" textLength="198" x="93" y="441.0234">File, Audio:  files/audio1.wav</text></g><!--entity csv1--><g id="elem_csv1"><rect fill="#F1F1F1" height="36.4883" rx="2.5" ry="2.5" style="stroke:#181818;stroke-width:0.5;" width="328" x="336" y="417.4883"/><text fill="#000000" font-family="sans-serif" font-size="14" lengthAdjust="spacing" textLength="308" x="346" y="441.0234">File, OthographicTranscription: files/csv1.csv</text></g><!--entity files--><g id="elem_files"><rect fill="#F1F1F1" height="36.4883" rx="2.5" ry="2.5" style="stroke:#181818;stroke-width:0.5;" width="107" x="556.5" y="304.4883"/><text fill="#000000" font-family="sans-serif" font-size="14" lengthAdjust="spacing" textLength="87" x="566.5" y="328.0234">Dataset: files</text></g><!--entity cc--><g id="elem_cc"><rect fill="#F1F1F1" height="36.4883" rx="2.5" ry="2.5" style="stroke:#181818;stroke-width:0.5;" width="239" x="355.5" y="78.4883"/><text fill="#000000" font-family="sans-serif" font-size="14" lengthAdjust="spacing" textLength="219" x="365.5" y="102.0234">RepositoryCollection: MyCorpus</text></g><!--entity o1--><g id="elem_o1"><rect fill="#F1F1F1" height="36.4883" rx="2.5" ry="2.5" style="stroke:#181818;stroke-width:0.5;" width="232" x="289" y="304.4883"/><text fill="#000000" font-family="sans-serif" font-size="14" lengthAdjust="spacing" textLength="212" x="299" y="328.0234">RepositoryObject, Dialogue: #1</text></g><!--entity o2--><g id="elem_o2"><rect fill="#F1F1F1" height="36.4883" rx="2.5" ry="2.5" style="stroke:#181818;stroke-width:0.5;" width="232" x="22" y="304.4883"/><text fill="#000000" font-family="sans-serif" font-size="14" lengthAdjust="spacing" textLength="212" x="32" y="328.0234">RepositoryObject, Dialogue: #2</text></g><!--entity c2--><g id="elem_c2"><rect fill="#F1F1F1" height="36.4883" rx="2.5" ry="2.5" style="stroke:#181818;stroke-width:0.5;" width="253" x="278.5" y="191.4883"/><text fill="#000000" font-family="sans-serif" font-size="14" lengthAdjust="spacing" textLength="233" x="288.5" y="215.0234">RepositoryCollection: Collection A</text></g><!--link cc to c2--><g id="link_cc_c2"><path d="M464.06,114.8283 C451.99,133.9783 432.52,164.8583 419.26,185.8783 " fill="none" id="cc-to-c2" style="stroke:#181818;stroke-width:1.0;"/><polygon fill="#181818" points="416.67,189.9883,424.837,184.4837,419.3238,185.7507,418.0568,180.2376,416.67,189.9883" style="stroke:#181818;stroke-width:1.0;"/><text fill="#000000" font-family="sans-serif" font-size="13" lengthAdjust="spacing" textLength="72" x="445" y="158.0566">hasMember</text></g><!--link c2 to o1--><g id="link_c2_o1"><path d="M405,227.8283 C405,246.6483 405,276.8083 405,297.7983 " fill="none" id="c2-to-o1" style="stroke:#181818;stroke-width:1.0;"/><polygon fill="#181818" points="405,302.7483,409,293.7483,405,297.7483,401,293.7483,405,302.7483" style="stroke:#181818;stroke-width:1.0;"/><text fill="#000000" font-family="sans-serif" font-size="13" lengthAdjust="spacing" textLength="72" x="406" y="271.0566">hasMember</text></g><!--link c2 to o2--><g id="link_c2_o2"><path d="M362.99,227.9583 C314.87,247.9583 236.18,280.6683 185.77,301.6283 " fill="none" id="c2-to-o2" style="stroke:#181818;stroke-width:1.0;"/><polygon fill="#181818" points="181.17,303.5383,191.0158,303.7842,185.7883,301.6223,187.9502,296.3949,181.17,303.5383" style="stroke:#181818;stroke-width:1.0;"/><text fill="#000000" font-family="sans-serif" font-size="13" lengthAdjust="spacing" textLength="72" x="288" y="271.0566">hasMember</text></g><!--link o1 to a1--><g id="link_o1_a1"><path d="M371.72,340.8283 C333.53,360.7283 271.01,393.3083 230.69,414.3283 " fill="none" id="o1-to-a1" style="stroke:#181818;stroke-width:1.0;"/><polygon fill="#181818" points="226.74,416.3883,236.5714,415.8029,231.1803,414.0896,232.8936,408.6985,226.74,416.3883" style="stroke:#181818;stroke-width:1.0;"/><text fill="#000000" font-family="sans-serif" font-size="13" lengthAdjust="spacing" textLength="46" x="312" y="384.0566">hasPart</text></g><!--link o1 to csv1--><g id="link_o1_csv1"><path d="M405.41,340.7883 C406.53,354.6283 409.98,373.8883 420,387.4883 C428.04,398.3983 439.43,407.2083 451.1,414.1283 " fill="none" id="o1-to-csv1" style="stroke:#181818;stroke-width:1.0;"/><polygon fill="#181818" points="455.16,416.4283,449.2855,408.5232,450.8048,413.9722,445.3558,415.4916,455.16,416.4283" style="stroke:#181818;stroke-width:1.0;"/><text fill="#000000" font-family="sans-serif" font-size="13" lengthAdjust="spacing" textLength="46" x="421" y="384.0566">hasPart</text></g><!--link cc to files--><g id="link_cc_files"><path d="M497.35,114.8883 C506.98,123.1483 517.87,133.5783 526,144.4883 C563.09,194.2383 589.98,262.9783 602.37,298.3683 " fill="none" id="cc-to-files" style="stroke:#181818;stroke-width:1.0;"/><polygon fill="#181818" points="603.88,302.7383,604.7048,292.924,602.2391,298.0152,597.1479,295.5495,603.88,302.7383" style="stroke:#181818;stroke-width:1.0;"/><text fill="#000000" font-family="sans-serif" font-size="13" lengthAdjust="spacing" textLength="46" x="574" y="214.5566">hasPart</text></g><!--link files to csv1--><g id="link_files_csv1"><path d="M600.74,340.7683 C592.91,354.4183 580.77,373.4383 567,387.4883 C557.51,397.1683 545.79,406.1583 534.82,413.6283 " fill="none" id="files-to-csv1" style="stroke:#181818;stroke-width:1.0;"/><polygon fill="#181818" points="530.77,416.3383,540.4773,414.6742,534.9303,413.5648,536.0397,408.0178,530.77,416.3383" style="stroke:#181818;stroke-width:1.0;"/><text fill="#000000" font-family="sans-serif" font-size="13" lengthAdjust="spacing" textLength="46" x="581" y="384.0566">hasPart</text></g><!--link files to a1--><g id="link_files_a1"><path d="M573.12,340.8883 C534.05,359.2783 477.25,385.8583 472,387.4883 C441.55,396.9183 370.41,408.8083 307.46,418.2783 " fill="none" id="files-to-a1" style="stroke:#181818;stroke-width:1.0;"/><polygon fill="#181818" points="302.89,418.9583,312.3845,421.5763,307.8345,418.2152,311.1956,413.6651,302.89,418.9583" style="stroke:#181818;stroke-width:1.0;"/><text fill="#000000" font-family="sans-serif" font-size="13" lengthAdjust="spacing" textLength="46" x="509" y="384.0566">hasPart</text></g><!--SRC=[dP31Ri8m38RlUGgBNO6f77kOX8fsGvsslO19GnkM9LMIKg69Tv-JK8sM8KsxHBR__xDZU-cLoE5Dg3rmeprABIgARDivu1QzW5xw1b0fiCAPpdBXM8ly0si1izUo29uSjYSe8ZI3BmP0NkvHrofuH6kSzCQU2gCKrQNH0HZyI8CuKG4xtsNBtO7ASzX8LARkQEH35bcJ_OTT9NPrXtsMIinXtLNIv01xojmZXYnRzdYCB6Q_CgLlJ6snRIH_jwWTjx9D6wSkt1sp9JrfRqecNJReqGb_iKTNZ1XZVxhhJmphD6Eq8rrwKPbUBvw2a4E3RYi-Ty962vK6bSvwhKx4MvJyWueNz0MjdqXXuIkHJRuKDnt3gNI7lz5ntFtClW40]--></g></svg>