<?xml version="1.0" encoding="UTF-8" standalone="no"?><svg xmlns="http://www.w3.org/2000/svg" xmlns:xlink="http://www.w3.org/1999/xlink" contentStyleType="text/css" height="412px" preserveAspectRatio="none" style="width:880px;height:412px;background:#FFFFFF;" version="1.1" viewBox="0 0 880 412" width="880px" zoomAndPan="magnify"><defs/><g><!--cluster ss--><g id="cluster_ss"><path d="M6,116 C6,106 151.5,106 151.5,106 C151.5,106 297,106 297,116 L297,198 C297,208 151.5,208 151.5,208 C151.5,208 6,208 6,198 L6,116 " fill="none" style="stroke:#181818;stroke-width:1.0;"/><path d="M6,116 C6,126 151.5,126 151.5,126 C151.5,126 297,126 297,116 " fill="none" style="stroke:#181818;stroke-width:1.0;"/><text fill="#000000" font-family="sans-serif" font-size="14" font-weight="bold" lengthAdjust="spacing" textLength="105" x="99" y="141.5352">Sydney Speaks</text></g><!--cluster hc--><g id="cluster_hc"><path d="M321,116 C321,106 466.5,106 466.5,106 C466.5,106 612,106 612,116 L612,198 C612,208 466.5,208 466.5,208 C466.5,208 321,208 321,198 L321,116 " fill="none" style="stroke:#181818;stroke-width:1.0;"/><path d="M321,116 C321,126 466.5,126 466.5,126 C466.5,126 612,126 612,116 " fill="none" style="stroke:#181818;stroke-width:1.0;"/><text fill="#000000" font-family="sans-serif" font-size="14" font-weight="bold" lengthAdjust="spacing" textLength="135" x="399" y="141.5352">Horvath Collection</text></g><!--cluster OCFL Repository--><g id="cluster_OCFL Repository"><rect fill="none" height="87" rx="2.5" ry="2.5" style="stroke:#181818;stroke-width:1.0;" width="607" x="267" y="319"/><text fill="#000000" font-family="sans-serif" font-size="14" font-weight="bold" lengthAdjust="spacing" textLength="121" x="510" y="334.5352">OCFL Repository</text></g><!--entity d1--><g id="elem_d1"><rect fill="#F1F1F1" height="36.4883" rx="2.5" ry="2.5" style="stroke:#181818;stroke-width:0.5;" width="112" x="169" y="156"/><text fill="#000000" font-family="sans-serif" font-size="14" lengthAdjust="spacing" textLength="92" x="179" y="179.5352">Content Dir 1</text></g><!--entity d2--><g id="elem_d2"><rect fill="#F1F1F1" height="36.4883" rx="2.5" ry="2.5" style="stroke:#181818;stroke-width:0.5;" width="112" x="22" y="156"/><text fill="#000000" font-family="sans-serif" font-size="14" lengthAdjust="spacing" textLength="92" x="32" y="179.5352">Content Dir n</text></g><!--entity h1--><g id="elem_h1"><rect fill="#F1F1F1" height="36.4883" rx="2.5" ry="2.5" style="stroke:#181818;stroke-width:0.5;" width="112" x="484" y="156"/><text fill="#000000" font-family="sans-serif" font-size="14" lengthAdjust="spacing" textLength="92" x="494" y="179.5352">Content Dir 1</text></g><!--entity h2--><g id="elem_h2"><rect fill="#F1F1F1" height="36.4883" rx="2.5" ry="2.5" style="stroke:#181818;stroke-width:0.5;" width="112" x="337" y="156"/><text fill="#000000" font-family="sans-serif" font-size="14" lengthAdjust="spacing" textLength="92" x="347" y="179.5352">Content Dir n</text></g><!--entity Conversion Script--><g id="elem_Conversion Script"><rect fill="#F1F1F1" height="36.4883" rx="2.5" ry="2.5" style="stroke:#181818;stroke-width:0.5;" width="141" x="550.5" y="7"/><text fill="#000000" font-family="sans-serif" font-size="14" lengthAdjust="spacing" textLength="121" x="560.5" y="30.5352">Conversion Script</text></g><!--entity ss1--><g id="elem_ss1"><rect fill="#F1F1F1" height="36.4883" rx="2.5" ry="2.5" style="stroke:#181818;stroke-width:0.5;" width="146" x="531" y="354"/><text fill="#000000" font-family="sans-serif" font-size="14" lengthAdjust="spacing" textLength="126" x="541" y="377.5352">RO-Crate Object 1</text></g><!--entity hc1--><g id="elem_hc1"><rect fill="#F1F1F1" height="36.4883" rx="2.5" ry="2.5" style="stroke:#181818;stroke-width:0.5;" width="146" x="712" y="354"/><text fill="#000000" font-family="sans-serif" font-size="14" lengthAdjust="spacing" textLength="126" x="722" y="377.5352">RO-Crate Object 2</text></g><!--entity ...--><g id="elem_..."><rect fill="#F1F1F1" height="36.4883" rx="2.5" ry="2.5" style="stroke:#181818;stroke-width:0.5;" width="32" x="464" y="354"/><text fill="#000000" font-family="sans-serif" font-size="14" lengthAdjust="spacing" textLength="12" x="474" y="377.5352">...</text></g><!--entity RO-Crate Object n--><g id="elem_RO-Crate Object n"><rect fill="#F1F1F1" height="36.4883" rx="2.5" ry="2.5" style="stroke:#181818;stroke-width:0.5;" width="146" x="283" y="354"/><text fill="#000000" font-family="sans-serif" font-size="14" lengthAdjust="spacing" textLength="126" x="293" y="377.5352">RO-Crate Object n</text></g><!--reverse link Conversion Script to d1--><g id="link_Conversion Script_d1"><path d="M543.89,35.26 C481.42,44.9 392.36,63.58 321,98 C290.33,112.79 260.27,138.64 242.18,155.79 " fill="none" id="Conversion Script-backto-d1" style="stroke:#181818;stroke-width:1.0;"/><polygon fill="#181818" points="548.74,34.53,539.2381,31.9388,543.7976,35.2871,540.4494,39.8466,548.74,34.53" style="stroke:#181818;stroke-width:1.0;"/><text fill="#000000" font-family="sans-serif" font-size="13" lengthAdjust="spacing" textLength="30" x="377" y="86.5684">Read</text></g><!--reverse link Conversion Script to h1--><g id="link_Conversion Script_h1"><path d="M606.13,48.32 C601.16,56.04 595.69,64.81 591,73 C574.74,101.42 557.85,135.6 548.17,155.75 " fill="none" id="Conversion Script-backto-h1" style="stroke:#181818;stroke-width:1.0;"/><polygon fill="#181818" points="608.66,44.43,600.3943,49.7851,605.9295,48.6186,607.0961,54.1539,608.66,44.43" style="stroke:#181818;stroke-width:1.0;"/><text fill="#000000" font-family="sans-serif" font-size="13" lengthAdjust="spacing" textLength="30" x="592" y="86.5684">Read</text></g><!--link Conversion Script to ss1--><g id="link_Conversion Script_ss1"><path d="M623.75,43.36 C625.02,52.21 626.37,63.15 627,73 C627.48,80.54 627.31,82.45 627,90 C623.1,185.52 611.76,298.85 606.61,347.22 " fill="none" id="Conversion Script-to-ss1" style="stroke:#181818;stroke-width:1.0;"/><polygon fill="#181818" points="606.08,352.1,611.0091,343.5733,606.6086,347.128,603.054,342.7275,606.08,352.1" style="stroke:#181818;stroke-width:1.0;"/><text fill="#000000" font-family="sans-serif" font-size="13" lengthAdjust="spacing" textLength="49" x="620" y="237.5684">Deposit</text><text fill="#000000" font-family="sans-serif" font-size="13" lengthAdjust="spacing" textLength="137" x="448.5299" y="343.2093">RO-Crate Object ss/1</text></g><!--link Conversion Script to hc1--><g id="link_Conversion Script_hc1"><path d="M634.39,43.31 C640.76,51.96 648.22,62.75 654,73 C709.19,170.94 757.7,296.59 776.6,347.76 " fill="none" id="Conversion Script-to-hc1" style="stroke:#181818;stroke-width:1.0;"/><polygon fill="#181818" points="778.23,352.21,778.8776,342.3825,776.5041,347.5173,771.3693,345.1439,778.23,352.21" style="stroke:#181818;stroke-width:1.0;"/><text fill="#000000" font-family="sans-serif" font-size="13" lengthAdjust="spacing" textLength="49" x="734" y="237.5684">Deposit</text><text fill="#000000" font-family="sans-serif" font-size="13" lengthAdjust="spacing" textLength="138" x="673.1359" y="343.2485">RO-Crate Object hc/1</text></g><!--SRC=[bP31Yi8m48RlUOeXzrJqABANYdWG2lO9nYPigYKfcQYKfU- -YIckg5lrEldc_-QFH8yx90MyxAHH7PIjmWDnG08Y-67CgSgZ-Mu2ablZbV6mh1rCBuYSHgJ_3p89cYMePqnUTMlhJkWrvBPfmd9j4wkhbqxzZbF_EU_ZJifHq45PkRhrF77isSj275i1N0Rl7BOAvIYcRx1RPP6lDc7SMggzTHs7kuRRGkGElO9Yjm_JeILHhDcFahFXonx9BCju6exjcu69sBDYGaXxDa9yFQuIJSATySWvB5EtJoDq5IFY-TU8Nm00]--></g></svg>