<?xml version="1.0" encoding="UTF-8" standalone="no"?><svg xmlns="http://www.w3.org/2000/svg" xmlns:xlink="http://www.w3.org/1999/xlink" contentStyleType="text/css" height="87px" preserveAspectRatio="none" style="width:270px;height:87px;background:#FFFFFF;" version="1.1" viewBox="0 0 270 87" width="270px" zoomAndPan="magnify"><defs/><g><!--entity w--><g id="elem_w"><rect fill="#F1F1F1" height="36.4883" rx="2.5" ry="2.5" style="stroke:#181818;stroke-width:0.5;" width="55" x="7" y="25.5"/><text fill="#000000" font-family="sans-serif" font-size="14" lengthAdjust="spacing" textLength="35" x="17" y="49.0352">Work</text></g><!--entity c--><g id="elem_c"><ellipse cx="220.5" cy="14" fill="#F1F1F1" rx="8" ry="8" style="stroke:#181818;stroke-width:0.5;"/><path d="M220.5,22 L220.5,49 M207.5,30 L233.5,30 M220.5,49 L207.5,64 M220.5,49 L233.5,64 " fill="none" style="stroke:#181818;stroke-width:0.5;"/><text fill="#000000" font-family="sans-serif" font-size="14" lengthAdjust="spacing" textLength="81" x="178" y="79.0352">Contributor</text></g><!--link w to c--><g id="link_w_c"><path d="M62.35,43.5 C91.06,43.5 136.44,43.5 171.23,43.5 " fill="none" id="w-to-c" style="stroke:#181818;stroke-width:1.0;"/><polygon fill="#181818" points="176.09,43.5,167.09,39.5,171.09,43.5,167.09,47.5,176.09,43.5" style="stroke:#181818;stroke-width:1.0;"/><text fill="#000000" font-family="sans-serif" font-size="13" lengthAdjust="spacing" textLength="79" x="80.5" y="37.0684">hasCompiler</text></g><!--reverse link w to c--><g id="link_w_c"><path d="M68.39,59.16 C73.52,60.95 78.83,62.5 84,63.5 C115.41,69.61 124.36,68.29 156,63.5 C163.07,62.43 170.43,60.73 177.55,58.77 " fill="none" id="w-backto-c" style="stroke:#181818;stroke-width:1.0;"/><polygon fill="#181818" points="63.88,57.48,70.9394,64.3477,68.571,59.2105,73.7082,56.8421,63.88,57.48" style="stroke:#181818;stroke-width:1.0;"/><text fill="#000000" font-family="sans-serif" font-size="13" lengthAdjust="spacing" textLength="70" x="85" y="60.0684">compilerOf</text></g><!--SRC=[AqfDBadCIyz9LL0Apo_ALb98B5OeLwZcughbuafCBialKb1opiyhASfCAWLpGFB9N5pb2hfs2iaALWePYSNE-Ra5cJcfHGf0KHjTi6WoLCW_JO6B2m00]--></g></svg>