<?xml version="1.0" encoding="UTF-8" standalone="no"?><svg xmlns="http://www.w3.org/2000/svg" xmlns:xlink="http://www.w3.org/1999/xlink" contentStyleType="text/css" height="352px" preserveAspectRatio="none" style="width:1101px;height:352px;background:#FFFFFF;" version="1.1" viewBox="0 0 1101 352" width="1101px" zoomAndPan="magnify"><defs/><g><text fill="#000000" font-family="sans-serif" font-size="14" font-weight="bold" lengthAdjust="spacing" textLength="152" x="467.5" y="23.5352">Data storage options</text><text fill="#000000" font-family="sans-serif" font-size="14" font-weight="bold" lengthAdjust="spacing" textLength="258" x="414.5" y="40.0234">one crate, many parts (Collection A)</text><text fill="#000000" font-family="sans-serif" font-size="14" font-weight="bold" lengthAdjust="spacing" textLength="210" x="438.5" y="56.5117">vs many crates (Collection B)</text><!--cluster OCFL repository--><g id="cluster_OCFL repository"><path d="M6,132.3748 C6,122.3748 545,122.3748 545,122.3748 C545,122.3748 1084,122.3748 1084,132.3748 L1084,325.3748 C1084,335.3748 545,335.3748 545,335.3748 C545,335.3748 6,335.3748 6,325.3748 L6,132.3748 " fill="none" style="stroke:#181818;stroke-width:1.0;"/><path d="M6,132.3748 C6,142.3748 545,142.3748 545,142.3748 C545,142.3748 1084,142.3748 1084,132.3748 " fill="none" style="stroke:#181818;stroke-width:1.0;"/><text fill="#000000" font-family="sans-serif" font-size="14" font-weight="bold" lengthAdjust="spacing" textLength="117" x="486.5" y="157.91">OCFL repository</text></g><!--cluster c1--><g id="cluster_c1"><rect fill="none" height="116" rx="2.5" ry="2.5" style="stroke:#181818;stroke-width:1.0;" width="566" x="494" y="195.3748"/><text fill="#000000" font-family="sans-serif" font-size="14" font-weight="bold" lengthAdjust="spacing" textLength="47" x="753.5" y="210.91">Object</text></g><!--entity ca--><g id="elem_ca"><rect fill="#F1F1F1" height="46.4883" rx="2.5" ry="2.5" style="stroke:#181818;stroke-width:0.5;" width="123" x="920.5" y="249.3748"/><rect fill="#F1F1F1" height="10" style="stroke:#181818;stroke-width:0.5;" width="15" x="1023.5" y="254.3748"/><rect fill="#F1F1F1" height="2" style="stroke:#181818;stroke-width:0.5;" width="4" x="1021.5" y="256.3748"/><rect fill="#F1F1F1" height="2" style="stroke:#181818;stroke-width:0.5;" width="4" x="1021.5" y="260.3748"/><text fill="#000000" font-family="sans-serif" font-size="14" lengthAdjust="spacing" textLength="83" x="935.5" y="282.91">Collection A</text></g><!--entity obj1a--><g id="elem_obj1a"><rect fill="#F1F1F1" height="46.4883" rx="2.5" ry="2.5" style="stroke:#181818;stroke-width:0.5;" width="79" x="738.5" y="249.3748"/><rect fill="#F1F1F1" height="10" style="stroke:#181818;stroke-width:0.5;" width="15" x="797.5" y="254.3748"/><rect fill="#F1F1F1" height="2" style="stroke:#181818;stroke-width:0.5;" width="4" x="795.5" y="256.3748"/><rect fill="#F1F1F1" height="2" style="stroke:#181818;stroke-width:0.5;" width="4" x="795.5" y="260.3748"/><text fill="#000000" font-family="sans-serif" font-size="14" lengthAdjust="spacing" textLength="39" x="753.5" y="282.91">obj1a</text></g><!--entity obj2a--><g id="elem_obj2a"><rect fill="#F1F1F1" height="46.4883" rx="2.5" ry="2.5" style="stroke:#181818;stroke-width:0.5;" width="79" x="624.5" y="249.3748"/><rect fill="#F1F1F1" height="10" style="stroke:#181818;stroke-width:0.5;" width="15" x="683.5" y="254.3748"/><rect fill="#F1F1F1" height="2" style="stroke:#181818;stroke-width:0.5;" width="4" x="681.5" y="256.3748"/><rect fill="#F1F1F1" height="2" style="stroke:#181818;stroke-width:0.5;" width="4" x="681.5" y="260.3748"/><text fill="#000000" font-family="sans-serif" font-size="14" lengthAdjust="spacing" textLength="39" x="639.5" y="282.91">obj2a</text></g><!--entity obj3a--><g id="elem_obj3a"><rect fill="#F1F1F1" height="46.4883" rx="2.5" ry="2.5" style="stroke:#181818;stroke-width:0.5;" width="79" x="510.5" y="249.3748"/><rect fill="#F1F1F1" height="10" style="stroke:#181818;stroke-width:0.5;" width="15" x="569.5" y="254.3748"/><rect fill="#F1F1F1" height="2" style="stroke:#181818;stroke-width:0.5;" width="4" x="567.5" y="256.3748"/><rect fill="#F1F1F1" height="2" style="stroke:#181818;stroke-width:0.5;" width="4" x="567.5" y="260.3748"/><text fill="#000000" font-family="sans-serif" font-size="14" lengthAdjust="spacing" textLength="39" x="525.5" y="282.91">obj3a</text></g><!--entity cb--><g id="elem_cb"><rect fill="#F1F1F1" height="36.4883" rx="2.5" ry="2.5" style="stroke:#181818;stroke-width:0.5;" width="101" x="374.5" y="254.3748"/><text fill="#000000" font-family="sans-serif" font-size="14" lengthAdjust="spacing" textLength="81" x="384.5" y="277.91">Collection B</text></g><!--entity obj1b--><g id="elem_obj1b"><rect fill="#F1F1F1" height="36.4883" rx="2.5" ry="2.5" style="stroke:#181818;stroke-width:0.5;" width="60" x="212" y="254.3748"/><text fill="#000000" font-family="sans-serif" font-size="14" lengthAdjust="spacing" textLength="40" x="222" y="277.91">obj1b</text></g><!--entity obj2b--><g id="elem_obj2b"><rect fill="#F1F1F1" height="36.4883" rx="2.5" ry="2.5" style="stroke:#181818;stroke-width:0.5;" width="60" x="117" y="254.3748"/><text fill="#000000" font-family="sans-serif" font-size="14" lengthAdjust="spacing" textLength="40" x="127" y="277.91">obj2b</text></g><!--entity obj3b--><g id="elem_obj3b"><rect fill="#F1F1F1" height="36.4883" rx="2.5" ry="2.5" style="stroke:#181818;stroke-width:0.5;" width="60" x="22" y="254.3748"/><text fill="#000000" font-family="sans-serif" font-size="14" lengthAdjust="spacing" textLength="40" x="32" y="277.91">obj3b</text></g><!--link obj1a to ca--><g id="link_obj1a_ca"><path d="M817.82,272.3748 C845.1,272.3748 881.99,272.3748 913.88,272.3748 " fill="none" id="obj1a-to-ca" style="stroke:#181818;stroke-width:1.0;"/><polygon fill="#181818" points="918.68,272.3748,909.68,268.3748,913.68,272.3748,909.68,276.3748,918.68,272.3748" style="stroke:#181818;stroke-width:1.0;"/><text fill="#000000" font-family="sans-serif" font-size="13" lengthAdjust="spacing" textLength="66" x="836" y="265.9432">memberOf</text></g><!--link obj2a to ca--><g id="link_obj2a_ca"><path d="M665.85,248.9348 C669.83,216.4948 682.25,158.9748 721,132.9548 C763.06,104.7148 787.94,114.1948 835,132.9548 C890.82,155.2148 937.61,209.8648 962.56,243.7548 " fill="none" id="obj2a-to-ca" style="stroke:#181818;stroke-width:1.0;"/><polygon fill="#181818" points="965.48,247.7848,963.4396,238.1497,962.5468,243.7356,956.9609,242.8428,965.48,247.7848" style="stroke:#181818;stroke-width:1.0;"/><text fill="#000000" font-family="sans-serif" font-size="13" lengthAdjust="spacing" textLength="66" x="779" y="102.9432">memberOf</text></g><!--link obj3a to ca--><g id="link_obj3a_ca"><path d="M551.85,248.9348 C555.83,216.4948 568.25,158.9748 607,132.9548 C691.13,76.4648 740.88,95.4248 835,132.9548 C890.82,155.2148 937.61,209.8648 962.56,243.7548 " fill="none" id="obj3a-to-ca" style="stroke:#181818;stroke-width:1.0;"/><polygon fill="#181818" points="965.48,247.7848,963.4396,238.1497,962.5468,243.7356,956.9609,242.8428,965.48,247.7848" style="stroke:#181818;stroke-width:1.0;"/><text fill="#000000" font-family="sans-serif" font-size="13" lengthAdjust="spacing" textLength="66" x="610" y="102.9432">memberOf</text></g><!--link obj1b to cb--><g id="link_obj1b_cb"><path d="M272.22,272.3748 C298.2,272.3748 336.38,272.3748 368.08,272.3748 " fill="none" id="obj1b-to-cb" style="stroke:#181818;stroke-width:1.0;"/><polygon fill="#181818" points="372.81,272.3748,363.81,268.3748,367.81,272.3748,363.81,276.3748,372.81,272.3748" style="stroke:#181818;stroke-width:1.0;"/><text fill="#000000" font-family="sans-serif" font-size="13" lengthAdjust="spacing" textLength="66" x="290.25" y="265.9432">memberOf</text></g><!--link obj2b to cb--><g id="link_obj2b_cb"><path d="M146.93,254.0148 C147.93,223.0248 155,160.9648 194,132.9548 C228.29,108.3248 250.09,116.5548 289,132.9548 C345.05,156.5848 389.48,215.8348 410.94,248.9948 " fill="none" id="obj2b-to-cb" style="stroke:#181818;stroke-width:1.0;"/><polygon fill="#181818" points="413.38,252.8048,411.9164,243.0653,410.6928,248.5883,405.1699,247.3648,413.38,252.8048" style="stroke:#181818;stroke-width:1.0;"/><text fill="#000000" font-family="sans-serif" font-size="13" lengthAdjust="spacing" textLength="66" x="243" y="102.9432">memberOf</text></g><!--link obj3b to cb--><g id="link_obj3b_cb"><path d="M51.93,254.0148 C52.93,223.0248 60,160.9648 99,132.9548 C167.59,83.6948 211.19,100.1548 289,132.9548 C345.05,156.5848 389.48,215.8348 410.94,248.9948 " fill="none" id="obj3b-to-cb" style="stroke:#181818;stroke-width:1.0;"/><polygon fill="#181818" points="413.38,252.8048,411.9164,243.0653,410.6928,248.5883,405.1699,247.3648,413.38,252.8048" style="stroke:#181818;stroke-width:1.0;"/><text fill="#000000" font-family="sans-serif" font-size="13" lengthAdjust="spacing" textLength="66" x="94" y="102.9432">memberOf</text></g><!--SRC=[ROwz2i8m58NtFCMXau8Esir1y0SdeGzWEzpKgrJQf2H1AEAxcwP8M-rsyvt3b-CAL_86Ht84wxIXEqFNhj3AfaehHcx8yG8LgGOr6MSnE-YovBpjO3TFrTDsQMYEu_rSYAjNIxACA3cSpZ1SQrludve8Bs5yaTIzR5Fvy8y8P96lV0JWClmf2maX15e-LfHzptL_nlvy3xN3DPrSUlceqygcu5fsCtvvt7CHXc2vzSisgBYIR9AR29kcQFnFEuSCNFuu9cdyJzlfuWC0]--></g></svg>