<?xml version="1.0" encoding="UTF-8" standalone="no"?><svg xmlns="http://www.w3.org/2000/svg" xmlns:xlink="http://www.w3.org/1999/xlink" contentStyleType="text/css" height="676px" preserveAspectRatio="none" style="width:1087px;height:676px;background:#FFFFFF;" version="1.1" viewBox="0 0 1087 676" width="1087px" zoomAndPan="magnify"><defs/><g><text fill="#000000" font-family="sans-serif" font-size="14" font-weight="bold" lengthAdjust="spacing" textLength="179" x="455.75" y="28.5352">Simple repository access</text><line style="stroke:#181818;stroke-width:0.5;stroke-dasharray:5.0,5.0;" x1="53" x2="53" y1="123.6875" y2="591.0781"/><line style="stroke:#181818;stroke-width:0.5;stroke-dasharray:5.0,5.0;" x1="440.5" x2="440.5" y1="123.6875" y2="591.0781"/><line style="stroke:#181818;stroke-width:0.5;stroke-dasharray:5.0,5.0;" x1="855.5" x2="855.5" y1="123.6875" y2="591.0781"/><line style="stroke:#181818;stroke-width:0.5;stroke-dasharray:5.0,5.0;" x1="1047.5" x2="1047.5" y1="123.6875" y2="591.0781"/><text fill="#000000" font-family="sans-serif" font-size="18" lengthAdjust="spacing" textLength="90" x="5" y="119.8906">researcher</text><ellipse cx="53" cy="50.9883" fill="#E2E2F0" rx="8" ry="8" style="stroke:#181818;stroke-width:0.5;"/><path d="M53,58.9883 L53,85.9883 M40,66.9883 L66,66.9883 M53,85.9883 L40,100.9883 M53,85.9883 L66,100.9883 " fill="none" style="stroke:#181818;stroke-width:0.5;"/><text fill="#000000" font-family="sans-serif" font-size="18" lengthAdjust="spacing" textLength="90" x="5" y="607.4805">researcher</text><ellipse cx="53" cy="619.7773" fill="#E2E2F0" rx="8" ry="8" style="stroke:#181818;stroke-width:0.5;"/><path d="M53,627.7773 L53,654.7773 M40,635.7773 L66,635.7773 M53,654.7773 L40,669.7773 M53,654.7773 L66,669.7773 " fill="none" style="stroke:#181818;stroke-width:0.5;"/><text fill="#000000" font-family="sans-serif" font-size="18" lengthAdjust="spacing" textLength="87" x="394.5" y="119.8906">repository</text><ellipse cx="441" cy="86.4883" fill="#E2E2F0" rx="12" ry="12" style="stroke:#181818;stroke-width:0.5;"/><line style="stroke:#181818;stroke-width:0.5;" x1="429" x2="453" y1="100.4883" y2="100.4883"/><text fill="#000000" font-family="sans-serif" font-size="18" lengthAdjust="spacing" textLength="87" x="394.5" y="607.4805">repository</text><ellipse cx="441" cy="627.2773" fill="#E2E2F0" rx="12" ry="12" style="stroke:#181818;stroke-width:0.5;"/><line style="stroke:#181818;stroke-width:0.5;" x1="429" x2="453" y1="641.2773" y2="641.2773"/><text fill="#000000" font-family="sans-serif" font-size="18" lengthAdjust="spacing" textLength="281" x="712.5" y="119.8906">https://doi.org/x/some-dataset</text><ellipse cx="856" cy="86.4883" fill="#E2E2F0" rx="12" ry="12" style="stroke:#181818;stroke-width:0.5;"/><line style="stroke:#181818;stroke-width:0.5;" x1="844" x2="868" y1="100.4883" y2="100.4883"/><text fill="#000000" font-family="sans-serif" font-size="18" lengthAdjust="spacing" textLength="281" x="712.5" y="607.4805">https://doi.org/x/some-dataset</text><ellipse cx="856" cy="627.2773" fill="#E2E2F0" rx="12" ry="12" style="stroke:#181818;stroke-width:0.5;"/><line style="stroke:#181818;stroke-width:0.5;" x1="844" x2="868" y1="641.2773" y2="641.2773"/><text fill="#000000" font-family="sans-serif" font-size="18" lengthAdjust="spacing" textLength="71" x="1009.5" y="119.8906">CILogon</text><ellipse cx="1048" cy="86.4883" fill="#E2E2F0" rx="12" ry="12" style="stroke:#181818;stroke-width:0.5;"/><line style="stroke:#181818;stroke-width:0.5;" x1="1036" x2="1060" y1="100.4883" y2="100.4883"/><text fill="#000000" font-family="sans-serif" font-size="18" lengthAdjust="spacing" textLength="71" x="1009.5" y="607.4805">CILogon</text><ellipse cx="1048" cy="627.2773" fill="#E2E2F0" rx="12" ry="12" style="stroke:#181818;stroke-width:0.5;"/><line style="stroke:#181818;stroke-width:0.5;" x1="1036" x2="1060" y1="641.2773" y2="641.2773"/><polygon fill="#181818" points="429,156.8867,439,160.8867,429,164.8867,433,160.8867" style="stroke:#181818;stroke-width:1.0;"/><line style="stroke:#181818;stroke-width:1.0;" x1="53" x2="435" y1="160.8867" y2="160.8867"/><text fill="#000000" font-family="sans-serif" font-size="18" lengthAdjust="spacing" textLength="364" x="60" y="155.0898">Can I have https://doi.org/x/some-crate?</text><polygon fill="#181818" points="844,213.2852,854,217.2852,844,221.2852,848,217.2852" style="stroke:#181818;stroke-width:1.0;"/><line style="stroke:#181818;stroke-width:1.0;" x1="441" x2="850" y1="217.2852" y2="217.2852"/><text fill="#000000" font-family="sans-serif" font-size="18" lengthAdjust="spacing" textLength="231" x="448" y="190.2891">Internal repository lookup:</text><text fill="#000000" font-family="sans-serif" font-size="18" lengthAdjust="spacing" textLength="172" x="448" y="211.4883">what's your licence?</text><polygon fill="#181818" points="452,248.4844,442,252.4844,452,256.4844,448,252.4844" style="stroke:#181818;stroke-width:1.0;"/><line style="stroke:#181818;stroke-width:1.0;" x1="446" x2="855" y1="252.4844" y2="252.4844"/><text fill="#000000" font-family="sans-serif" font-size="18" lengthAdjust="spacing" textLength="391" x="458" y="246.6875">Accessible to people in group G1 on CILogon</text><line style="stroke:#181818;stroke-width:1.0;" x1="441" x2="483" y1="287.6836" y2="287.6836"/><line style="stroke:#181818;stroke-width:1.0;" x1="483" x2="483" y1="287.6836" y2="300.6836"/><line style="stroke:#181818;stroke-width:1.0;" x1="442" x2="483" y1="300.6836" y2="300.6836"/><polygon fill="#181818" points="452,296.6836,442,300.6836,452,304.6836,448,300.6836" style="stroke:#181818;stroke-width:1.0;"/><text fill="#000000" font-family="sans-serif" font-size="18" lengthAdjust="spacing" textLength="293" x="448" y="281.8867">Is that on my list of trusted sites?</text><line style="stroke:#181818;stroke-width:1.0;" x1="441" x2="483" y1="335.8828" y2="335.8828"/><line style="stroke:#181818;stroke-width:1.0;" x1="483" x2="483" y1="335.8828" y2="348.8828"/><line style="stroke:#181818;stroke-width:1.0;" x1="442" x2="483" y1="348.8828" y2="348.8828"/><polygon fill="#181818" points="452,344.8828,442,348.8828,452,352.8828,448,348.8828" style="stroke:#181818;stroke-width:1.0;"/><text fill="#000000" font-family="sans-serif" font-size="18" lengthAdjust="spacing" textLength="32" x="448" y="330.0859">Yep</text><polygon fill="#181818" points="64,380.082,54,384.082,64,388.082,60,384.082" style="stroke:#181818;stroke-width:1.0;"/><line style="stroke:#181818;stroke-width:1.0;" x1="58" x2="440" y1="384.082" y2="384.082"/><text fill="#000000" font-family="sans-serif" font-size="18" lengthAdjust="spacing" textLength="328" x="70" y="378.2852">Authenticate yourself over at CILogon</text><polygon fill="#181818" points="1036,415.2813,1046,419.2813,1036,423.2813,1040,419.2813" style="stroke:#181818;stroke-width:1.0;"/><line style="stroke:#181818;stroke-width:1.0;" x1="53" x2="1042" y1="419.2813" y2="419.2813"/><text fill="#000000" font-family="sans-serif" font-size="18" lengthAdjust="spacing" textLength="63" x="60" y="413.4844">Logs in</text><polygon fill="#181818" points="452,450.4805,442,454.4805,452,458.4805,448,454.4805" style="stroke:#181818;stroke-width:1.0;"/><line style="stroke:#181818;stroke-width:1.0;" x1="446" x2="1047" y1="454.4805" y2="454.4805"/><text fill="#000000" font-family="sans-serif" font-size="18" lengthAdjust="spacing" textLength="431" x="458" y="448.6836">Calls repo back "User is a member of G1, G2, G3"</text><line style="stroke:#181818;stroke-width:1.0;" x1="441" x2="483" y1="489.6797" y2="489.6797"/><line style="stroke:#181818;stroke-width:1.0;" x1="483" x2="483" y1="489.6797" y2="502.6797"/><line style="stroke:#181818;stroke-width:1.0;" x1="442" x2="483" y1="502.6797" y2="502.6797"/><polygon fill="#181818" points="452,498.6797,442,502.6797,452,506.6797,448,502.6797" style="stroke:#181818;stroke-width:1.0;"/><text fill="#000000" font-family="sans-serif" font-size="18" lengthAdjust="spacing" textLength="243" x="448" y="483.8828">OK, user is a member of G1</text><polygon fill="#181818" points="844,533.8789,854,537.8789,844,541.8789,848,537.8789" style="stroke:#181818;stroke-width:1.0;"/><line style="stroke:#181818;stroke-width:1.0;" x1="441" x2="850" y1="537.8789" y2="537.8789"/><text fill="#000000" font-family="sans-serif" font-size="18" lengthAdjust="spacing" textLength="44" x="448" y="532.082">fetch</text><polygon fill="#181818" points="64,569.0781,54,573.0781,64,577.0781,60,573.0781" style="stroke:#181818;stroke-width:1.0;"/><line style="stroke:#181818;stroke-width:1.0;" x1="58" x2="440" y1="573.0781" y2="573.0781"/><text fill="#000000" font-family="sans-serif" font-size="18" lengthAdjust="spacing" textLength="131" x="70" y="567.2813">Here's the data</text><!--SRC=[TL5DIyD04BtdLmovzD8QgXVfGP62DIXuA1u4Bzljf5cwsGaxashzzSusJMr10mkxC_C-yeQtBhGccWRMM9dEooC5MRflXEbjbeaJZpDOkgRr215ROYSKzs2iHMR8ZDKdz5z4HXDjZNt1SAfa69Hat_TFyA7T3ksy5cbvLXHhSbSKDyLNmTJWP6t4C4gUnkqPLpulNsX38JzIMPTbgWQJkyGACvYR02NKPeVm3xMDHl0-I-EAieefWs0CnfyxzKJRhfrzXC_Qo8XXJrq4xom6gs3xA_XmICIjD2SXQ95IOYx09bBNmc8A5E1e6WRH7baoY9AdWKO57Ukr0eaT2wv1VI3VNoBUDRXJWPDu9tKAn-el7Imo-WfefwjGugFi491rYj0A9tkPliv2y_wm5eALiLl8trWP78E11fkLtjNOOZg6nRMUc_pIrUlp6Be_0USXLoYsldJ_X157AGI4jEyV]--></g></svg>