<?xml version="1.0" encoding="UTF-8" standalone="no"?><svg xmlns="http://www.w3.org/2000/svg" xmlns:xlink="http://www.w3.org/1999/xlink" contentStyleType="text/css" height="888px" preserveAspectRatio="none" style="width:1401px;height:888px;background:#FFFFFF;" version="1.1" viewBox="0 0 1401 888" width="1401px" zoomAndPan="magnify"><defs/><g><text fill="#000000" font-family="sans-serif" font-size="14" font-weight="bold" lengthAdjust="spacing" textLength="641" x="381" y="28.5352">A sketch of POTENTIAL authorization and authentication required by FAIR principle A1.2</text><line style="stroke:#181818;stroke-width:0.5;stroke-dasharray:5.0,5.0;" x1="53" x2="53" y1="123.6875" y2="803.2734"/><line style="stroke:#181818;stroke-width:0.5;stroke-dasharray:5.0,5.0;" x1="541.5" x2="541.5" y1="123.6875" y2="803.2734"/><line style="stroke:#181818;stroke-width:0.5;stroke-dasharray:5.0,5.0;" x1="953" x2="953" y1="123.6875" y2="803.2734"/><line style="stroke:#181818;stroke-width:0.5;stroke-dasharray:5.0,5.0;" x1="1190" x2="1190" y1="123.6875" y2="803.2734"/><line style="stroke:#181818;stroke-width:0.5;stroke-dasharray:5.0,5.0;" x1="1366" x2="1366" y1="123.6875" y2="803.2734"/><text fill="#000000" font-family="sans-serif" font-size="18" lengthAdjust="spacing" textLength="90" x="5" y="119.8906">researcher</text><ellipse cx="53" cy="50.9883" fill="#E2E2F0" rx="8" ry="8" style="stroke:#181818;stroke-width:0.5;"/><path d="M53,58.9883 L53,85.9883 M40,66.9883 L66,66.9883 M53,85.9883 L40,100.9883 M53,85.9883 L66,100.9883 " fill="none" style="stroke:#181818;stroke-width:0.5;"/><text fill="#000000" font-family="sans-serif" font-size="18" lengthAdjust="spacing" textLength="90" x="5" y="819.6758">researcher</text><ellipse cx="53" cy="831.9727" fill="#E2E2F0" rx="8" ry="8" style="stroke:#181818;stroke-width:0.5;"/><path d="M53,839.9727 L53,866.9727 M40,847.9727 L66,847.9727 M53,866.9727 L40,881.9727 M53,866.9727 L66,881.9727 " fill="none" style="stroke:#181818;stroke-width:0.5;"/><text fill="#000000" font-family="sans-serif" font-size="18" lengthAdjust="spacing" textLength="87" x="495.5" y="119.8906">repository</text><ellipse cx="542" cy="86.4883" fill="#E2E2F0" rx="12" ry="12" style="stroke:#181818;stroke-width:0.5;"/><line style="stroke:#181818;stroke-width:0.5;" x1="530" x2="554" y1="100.4883" y2="100.4883"/><text fill="#000000" font-family="sans-serif" font-size="18" lengthAdjust="spacing" textLength="87" x="495.5" y="819.6758">repository</text><ellipse cx="542" cy="839.4727" fill="#E2E2F0" rx="12" ry="12" style="stroke:#181818;stroke-width:0.5;"/><line style="stroke:#181818;stroke-width:0.5;" x1="530" x2="554" y1="853.4727" y2="853.4727"/><text fill="#000000" font-family="sans-serif" font-size="18" lengthAdjust="spacing" textLength="182" x="859" y="119.8906">Group Licence Server</text><ellipse cx="953" cy="86.4883" fill="#E2E2F0" rx="12" ry="12" style="stroke:#181818;stroke-width:0.5;"/><line style="stroke:#181818;stroke-width:0.5;" x1="941" x2="965" y1="100.4883" y2="100.4883"/><text fill="#000000" font-family="sans-serif" font-size="18" lengthAdjust="spacing" textLength="182" x="859" y="819.6758">Group Licence Server</text><ellipse cx="953" cy="839.4727" fill="#E2E2F0" rx="12" ry="12" style="stroke:#181818;stroke-width:0.5;"/><line style="stroke:#181818;stroke-width:0.5;" x1="941" x2="965" y1="853.4727" y2="853.4727"/><text fill="#000000" font-family="sans-serif" font-size="18" lengthAdjust="spacing" textLength="260" x="1057" y="119.8906">https://doi.org/x/some-crate</text><ellipse cx="1190" cy="86.4883" fill="#E2E2F0" rx="12" ry="12" style="stroke:#181818;stroke-width:0.5;"/><line style="stroke:#181818;stroke-width:0.5;" x1="1178" x2="1202" y1="100.4883" y2="100.4883"/><text fill="#000000" font-family="sans-serif" font-size="18" lengthAdjust="spacing" textLength="260" x="1057" y="819.6758">https://doi.org/x/some-crate</text><ellipse cx="1190" cy="839.4727" fill="#E2E2F0" rx="12" ry="12" style="stroke:#181818;stroke-width:0.5;"/><line style="stroke:#181818;stroke-width:0.5;" x1="1178" x2="1202" y1="853.4727" y2="853.4727"/><text fill="#000000" font-family="sans-serif" font-size="18" lengthAdjust="spacing" textLength="60" x="1333" y="119.8906">groups</text><path d="M1348,66.4883 C1348,56.4883 1366,56.4883 1366,56.4883 C1366,56.4883 1384,56.4883 1384,66.4883 L1384,92.4883 C1384,102.4883 1366,102.4883 1366,102.4883 C1366,102.4883 1348,102.4883 1348,92.4883 L1348,66.4883 " fill="#E2E2F0" style="stroke:#181818;stroke-width:1.5;"/><path d="M1348,66.4883 C1348,76.4883 1366,76.4883 1366,76.4883 C1366,76.4883 1384,76.4883 1384,66.4883 " fill="none" style="stroke:#181818;stroke-width:1.5;"/><text fill="#000000" font-family="sans-serif" font-size="18" lengthAdjust="spacing" textLength="60" x="1333" y="819.6758">groups</text><path d="M1348,833.4727 C1348,823.4727 1366,823.4727 1366,823.4727 C1366,823.4727 1384,823.4727 1384,833.4727 L1384,859.4727 C1384,869.4727 1366,869.4727 1366,869.4727 C1366,869.4727 1348,869.4727 1348,859.4727 L1348,833.4727 " fill="#E2E2F0" style="stroke:#181818;stroke-width:1.5;"/><path d="M1348,833.4727 C1348,843.4727 1366,843.4727 1366,843.4727 C1366,843.4727 1384,843.4727 1384,833.4727 " fill="none" style="stroke:#181818;stroke-width:1.5;"/><polygon fill="#181818" points="530,156.8867,540,160.8867,530,164.8867,534,160.8867" style="stroke:#181818;stroke-width:1.0;"/><line style="stroke:#181818;stroke-width:1.0;" x1="53" x2="536" y1="160.8867" y2="160.8867"/><text fill="#000000" font-family="sans-serif" font-size="18" lengthAdjust="spacing" textLength="364" x="60" y="155.0898">Can I have https://doi.org/x/some-crate?</text><polygon fill="#181818" points="1178,192.0859,1188,196.0859,1178,200.0859,1182,196.0859" style="stroke:#181818;stroke-width:1.0;"/><line style="stroke:#181818;stroke-width:1.0;" x1="542" x2="1184" y1="196.0859" y2="196.0859"/><text fill="#000000" font-family="sans-serif" font-size="18" lengthAdjust="spacing" textLength="173" x="549" y="190.2891">What's your licence?</text><polygon fill="#181818" points="553,227.2852,543,231.2852,553,235.2852,549,231.2852" style="stroke:#181818;stroke-width:1.0;"/><line style="stroke:#181818;stroke-width:1.0;" x1="547" x2="1189" y1="231.2852" y2="231.2852"/><text fill="#000000" font-family="sans-serif" font-size="18" lengthAdjust="spacing" textLength="357" x="559" y="225.4883">Accessible to ppl who agree to SS licence</text><line style="stroke:#181818;stroke-width:1.0;" x1="542" x2="584" y1="266.4844" y2="266.4844"/><line style="stroke:#181818;stroke-width:1.0;" x1="584" x2="584" y1="266.4844" y2="279.4844"/><line style="stroke:#181818;stroke-width:1.0;" x1="543" x2="584" y1="279.4844" y2="279.4844"/><polygon fill="#181818" points="553,275.4844,543,279.4844,553,283.4844,549,279.4844" style="stroke:#181818;stroke-width:1.0;"/><text fill="#000000" font-family="sans-serif" font-size="18" lengthAdjust="spacing" textLength="334" x="549" y="260.6875">Is that URL on the list of trusted sites?</text><line style="stroke:#181818;stroke-width:1.0;" x1="542" x2="584" y1="314.6836" y2="314.6836"/><line style="stroke:#181818;stroke-width:1.0;" x1="584" x2="584" y1="314.6836" y2="327.6836"/><line style="stroke:#181818;stroke-width:1.0;" x1="543" x2="584" y1="327.6836" y2="327.6836"/><polygon fill="#181818" points="553,323.6836,543,327.6836,553,331.6836,549,327.6836" style="stroke:#181818;stroke-width:1.0;"/><text fill="#000000" font-family="sans-serif" font-size="18" lengthAdjust="spacing" textLength="32" x="549" y="308.8867">Yep</text><polygon fill="#181818" points="64,358.8828,54,362.8828,64,366.8828,60,362.8828" style="stroke:#181818;stroke-width:1.0;"/><line style="stroke:#181818;stroke-width:1.0;" x1="58" x2="541" y1="362.8828" y2="362.8828"/><text fill="#000000" font-family="sans-serif" font-size="18" lengthAdjust="spacing" textLength="465" x="70" y="357.0859">Authenticate yourself to the the group-licence-server</text><polygon fill="#181818" points="941,394.082,951,398.082,941,402.082,945,398.082" style="stroke:#181818;stroke-width:1.0;"/><line style="stroke:#181818;stroke-width:1.0;" x1="53" x2="947" y1="398.082" y2="398.082"/><text fill="#000000" font-family="sans-serif" font-size="18" lengthAdjust="spacing" textLength="63" x="60" y="392.2852">Logs in</text><polygon fill="#181818" points="1354,429.2813,1364,433.2813,1354,437.2813,1358,433.2813" style="stroke:#181818;stroke-width:1.0;"/><line style="stroke:#181818;stroke-width:1.0;" x1="953" x2="1360" y1="433.2813" y2="433.2813"/><text fill="#000000" font-family="sans-serif" font-size="18" lengthAdjust="spacing" textLength="94" x="960" y="427.4844">User in SS?</text><polygon fill="#181818" points="964,464.4805,954,468.4805,964,472.4805,960,468.4805" style="stroke:#181818;stroke-width:1.0;"/><line style="stroke:#181818;stroke-width:1.0;" x1="958" x2="1365" y1="468.4805" y2="468.4805"/><text fill="#000000" font-family="sans-serif" font-size="18" lengthAdjust="spacing" textLength="45" x="970" y="462.6836">Nope</text><polygon fill="#181818" points="64,499.6797,54,503.6797,64,507.6797,60,503.6797" style="stroke:#181818;stroke-width:1.0;"/><line style="stroke:#181818;stroke-width:1.0;" x1="58" x2="952" y1="503.6797" y2="503.6797"/><text fill="#000000" font-family="sans-serif" font-size="18" lengthAdjust="spacing" textLength="347" x="70" y="497.8828">Do you agree to these SS license terms?</text><polygon fill="#181818" points="941,534.8789,951,538.8789,941,542.8789,945,538.8789" style="stroke:#181818;stroke-width:1.0;"/><line style="stroke:#181818;stroke-width:1.0;" x1="53" x2="947" y1="538.8789" y2="538.8789"/><text fill="#000000" font-family="sans-serif" font-size="18" lengthAdjust="spacing" textLength="32" x="60" y="533.082">Yep</text><polygon fill="#181818" points="1354,570.0781,1364,574.0781,1354,578.0781,1358,574.0781" style="stroke:#181818;stroke-width:1.0;"/><line style="stroke:#181818;stroke-width:1.0;" x1="953" x2="1360" y1="574.0781" y2="574.0781"/><text fill="#000000" font-family="sans-serif" font-size="18" lengthAdjust="spacing" textLength="377" x="960" y="568.2813">Add user to SS license group (TTL 100days)</text><polygon fill="#181818" points="64,605.2773,54,609.2773,64,613.2773,60,609.2773" style="stroke:#181818;stroke-width:1.0;"/><line style="stroke:#181818;stroke-width:1.0;" x1="58" x2="952" y1="609.2773" y2="609.2773"/><text fill="#000000" font-family="sans-serif" font-size="18" lengthAdjust="spacing" textLength="876" x="70" y="603.4805">(To web browser) Here's a token for your browser that will let the repo get your group-memberships</text><polygon fill="#181818" points="530,640.4766,540,644.4766,530,648.4766,534,644.4766" style="stroke:#181818;stroke-width:1.0;"/><line style="stroke:#181818;stroke-width:1.0;" x1="53" x2="536" y1="644.4766" y2="644.4766"/><text fill="#000000" font-family="sans-serif" font-size="18" lengthAdjust="spacing" textLength="242" x="60" y="638.6797">(via browser) Here's a token</text><polygon fill="#181818" points="941,675.6758,951,679.6758,941,683.6758,945,679.6758" style="stroke:#181818;stroke-width:1.0;"/><line style="stroke:#181818;stroke-width:1.0;" x1="542" x2="947" y1="679.6758" y2="679.6758"/><text fill="#000000" font-family="sans-serif" font-size="18" lengthAdjust="spacing" textLength="145" x="549" y="673.8789">I have this token</text><polygon fill="#181818" points="553,710.875,543,714.875,553,718.875,549,714.875" style="stroke:#181818;stroke-width:1.0;"/><line style="stroke:#181818;stroke-width:1.0;" x1="547" x2="952" y1="714.875" y2="714.875"/><text fill="#000000" font-family="sans-serif" font-size="18" lengthAdjust="spacing" textLength="30" x="559" y="709.0781">yep</text><polygon fill="#181818" points="1178,746.0742,1188,750.0742,1178,754.0742,1182,750.0742" style="stroke:#181818;stroke-width:1.0;"/><line style="stroke:#181818;stroke-width:1.0;" x1="542" x2="1184" y1="750.0742" y2="750.0742"/><text fill="#000000" font-family="sans-serif" font-size="18" lengthAdjust="spacing" textLength="44" x="549" y="744.2773">fetch</text><polygon fill="#181818" points="64,781.2734,54,785.2734,64,789.2734,60,785.2734" style="stroke:#181818;stroke-width:1.0;"/><line style="stroke:#181818;stroke-width:1.0;" x1="58" x2="541" y1="785.2734" y2="785.2734"/><text fill="#000000" font-family="sans-serif" font-size="18" lengthAdjust="spacing" textLength="174" x="70" y="779.4766">Here's the RO-Crate</text><!--SRC=[VLDDRzf04BtxLuoub1m8eQUAGv6LDYqIIYfC5FMuNW_s2kDrTyPGvzTtnZPVbLfBIFRRDszctnjevwhQ1BE73BUcAVd9LvouTuJPfoXYnoNE8GRQ8Ti2_1P-l6o-Fc-MyGfCmuKFxjsmynMOAkiGhDZP7Whugt41CqXRU8gNQwY3gwohIuHuTlyH8cFP1-YVW8Gcs09xm90YaQfnsv_Ndfpms_DnVNKy-XPyKyFAMQmiGeBXW64qKFFoh3Ggc6kQJwUPT_S-vDFVK_9xdDXW64TAjb5csAI644QvYb87vpL5CX5CFcjdcCEZgM09XJaW_4zp4IbTggpKl1M6Fn2qlWbGzgCk8dlHZAr58fUAG-oXhaiu5XvC7h03akHKTHBjovO4BChmkbw1-2uX28zOu-BG44i4OXtIuhRifpXu1aZRN_B3RaZ2SgkDLL5_dH-JOOO9TIQVN16JHMBbSm9NGIIV2jOAlWfJmIHPH8gSsS- -HcLUHlZYjV7boj9LWZXTN5uPmxwxo9MCNcHGwHl6MGQDDhqoZORnORpPh63sy92Pbkvkkuyt7ewOGXhyKShlu3i6bC2C2EsmWgsiQnVUGEXjFxgoX1AviqZt57Bvw7YzONlSfnYeS7_lqFZWpB-QdQBfhpXi6XUEXkFpu2hKNgBKFTlgl_Kssq5SHro_J1vrDVy0]--></g></svg>