<?xml version="1.0" encoding="UTF-8" standalone="no"?><svg xmlns="http://www.w3.org/2000/svg" xmlns:xlink="http://www.w3.org/1999/xlink" contentStyleType="text/css" height="378px" preserveAspectRatio="none" style="width:842px;height:378px;background:#FFFFFF;" version="1.1" viewBox="0 0 842 378" width="842px" zoomAndPan="magnify"><defs/><g><!--cluster a1--><g id="cluster_a1"><rect fill="none" height="113" rx="2.5" ry="2.5" style="stroke:#181818;stroke-width:1.0;" width="233" x="603" y="152.5"/><text fill="#000000" font-family="sans-serif" font-size="14" font-weight="bold" lengthAdjust="spacing" textLength="134" x="652.5" y="168.0352">CreateActionSpeak</text></g><!--cluster a2--><g id="cluster_a2"><rect fill="none" height="113" rx="2.5" ry="2.5" style="stroke:#181818;stroke-width:1.0;" width="233" x="330" y="152.5"/><text fill="#000000" font-family="sans-serif" font-size="14" font-weight="bold" lengthAdjust="spacing" textLength="152" x="370.5" y="168.0352">UpdateActionDeposit</text></g><!--cluster a3--><g id="cluster_a3"><rect fill="none" height="113" rx="2.5" ry="2.5" style="stroke:#181818;stroke-width:1.0;" width="233" x="57" y="152.5"/><text fill="#000000" font-family="sans-serif" font-size="14" font-weight="bold" lengthAdjust="spacing" textLength="141" x="103" y="168.0352">CreateActionRecord</text></g><!--entity w--><g id="elem_w"><rect fill="#F1F1F1" height="36.4883" rx="2.5" ry="2.5" style="stroke:#181818;stroke-width:0.5;" width="55" x="310.5" y="336.5"/><text fill="#000000" font-family="sans-serif" font-size="14" lengthAdjust="spacing" textLength="35" x="320.5" y="360.0352">Work</text></g><!--entity date: 2022-01-02--><g id="elem_date: 2022-01-02"><rect fill="#F1F1F1" height="46.4883" rx="2.5" ry="2.5" style="stroke:#181818;stroke-width:0.5;" width="166" x="646" y="195.5"/><rect fill="#F1F1F1" height="10" style="stroke:#181818;stroke-width:0.5;" width="15" x="792" y="200.5"/><rect fill="#F1F1F1" height="2" style="stroke:#181818;stroke-width:0.5;" width="4" x="790" y="202.5"/><rect fill="#F1F1F1" height="2" style="stroke:#181818;stroke-width:0.5;" width="4" x="790" y="206.5"/><text fill="#000000" font-family="sans-serif" font-size="14" lengthAdjust="spacing" textLength="126" x="661" y="229.0352">date: 2022-01-02</text></g><!--entity date: 2022-02-02--><g id="elem_date: 2022-02-02"><rect fill="#F1F1F1" height="46.4883" rx="2.5" ry="2.5" style="stroke:#181818;stroke-width:0.5;" width="166" x="373" y="195.5"/><rect fill="#F1F1F1" height="10" style="stroke:#181818;stroke-width:0.5;" width="15" x="519" y="200.5"/><rect fill="#F1F1F1" height="2" style="stroke:#181818;stroke-width:0.5;" width="4" x="517" y="202.5"/><rect fill="#F1F1F1" height="2" style="stroke:#181818;stroke-width:0.5;" width="4" x="517" y="206.5"/><text fill="#000000" font-family="sans-serif" font-size="14" lengthAdjust="spacing" textLength="126" x="388" y="229.0352">date: 2022-02-02</text></g><!--entity di--><g id="elem_di"><rect fill="#F1F1F1" height="46.4883" rx="2.5" ry="2.5" style="stroke:#181818;stroke-width:0.5;" width="166" x="100" y="195.5"/><rect fill="#F1F1F1" height="10" style="stroke:#181818;stroke-width:0.5;" width="15" x="246" y="200.5"/><rect fill="#F1F1F1" height="2" style="stroke:#181818;stroke-width:0.5;" width="4" x="244" y="202.5"/><rect fill="#F1F1F1" height="2" style="stroke:#181818;stroke-width:0.5;" width="4" x="244" y="206.5"/><text fill="#000000" font-family="sans-serif" font-size="14" lengthAdjust="spacing" textLength="126" x="115" y="229.0352">date: 2022-02-02</text></g><!--entity cam--><g id="elem_cam"><rect fill="#F1F1F1" height="36.4883" rx="2.5" ry="2.5" style="stroke:#181818;stroke-width:0.5;" width="116" x="7" y="336.5"/><text fill="#000000" font-family="sans-serif" font-size="14" lengthAdjust="spacing" textLength="96" x="17" y="360.0352">Video Camera</text></g><!--entity c1--><g id="elem_c1"><ellipse cx="611" cy="14" fill="#F1F1F1" rx="8" ry="8" style="stroke:#181818;stroke-width:0.5;"/><path d="M611,22 L611,49 M598,30 L624,30 M611,49 L598,64 M611,49 L624,64 " fill="none" style="stroke:#181818;stroke-width:0.5;"/><text fill="#000000" font-family="sans-serif" font-size="14" lengthAdjust="spacing" textLength="94" x="564" y="79.0352">Contributor 1</text></g><!--entity c2--><g id="elem_c2"><ellipse cx="177" cy="14" fill="#F1F1F1" rx="8" ry="8" style="stroke:#181818;stroke-width:0.5;"/><path d="M177,22 L177,49 M164,30 L190,30 M177,49 L164,64 M177,49 L190,64 " fill="none" style="stroke:#181818;stroke-width:0.5;"/><text fill="#000000" font-family="sans-serif" font-size="14" lengthAdjust="spacing" textLength="94" x="128" y="79.0352">Contributor 2</text></g><!--link a1 to w--><g id="link_a1_w"><path d="M602.8616,231.8236 C602.805,231.9041 602.7481,231.9849 602.6909,232.066 C602.4621,232.3904 602.2292,232.7192 601.9921,233.0524 C601.518,233.7186 601.0272,234.4021 600.5204,235.1009 C598.4932,237.8962 596.2091,240.9378 593.7013,244.1138 C583.67,256.8175 570.06,271.67 555,281.5 C496.87,319.45 416.88,339.15 372.03,347.83 " fill="none" id="a1-to-w" style="stroke:#181818;stroke-width:1.0;"/><polygon fill="#181818" points="367.17,348.74,376.7562,350.9994,372.0831,347.8117,375.2708,343.1385,367.17,348.74" style="stroke:#181818;stroke-width:1.0;"/><text fill="#000000" font-family="sans-serif" font-size="13" lengthAdjust="spacing" textLength="36" x="540" y="303.0684">result</text></g><!--reverse link c1 to a1--><g id="link_c1_a1"><path d="M611,87.93 C611,100.5325 611,114.7731 611,129.0839 C611,136.2393 611,143.4122 611,150.4067 C611,150.8439 611,151.2803 611,151.716 C611,151.9339 611,152.1515 611,152.369 " fill="none" id="c1-backto-a1" style="stroke:#181818;stroke-width:1.0;"/><polygon fill="#181818" points="611,83.13,607,92.13,611,88.13,615,92.13,611,83.13" style="stroke:#181818;stroke-width:1.0;"/><text fill="#000000" font-family="sans-serif" font-size="13" lengthAdjust="spacing" textLength="35" x="612" y="125.0684">agent</text></g><!--link a2 to w--><g id="link_a2_w"><path d="M338,265.5554 C338,265.7349 338,265.9146 338,266.0945 C338,267.5339 338,268.9871 338,270.4512 C338,273.3793 338,276.351 338,279.3419 C338,285.3237 338,291.3826 338,297.3248 C338,309.2094 338,320.6275 338,330.03 " fill="none" id="a2-to-w" style="stroke:#181818;stroke-width:1.0;"/><polygon fill="#181818" points="338,334.7,342,325.7,338,329.7,334,325.7,338,334.7" style="stroke:#181818;stroke-width:1.0;"/><text fill="#000000" font-family="sans-serif" font-size="13" lengthAdjust="spacing" textLength="36" x="339" y="303.0684">result</text></g><!--reverse link c2 to a2--><g id="link_c2_a2"><path d="M229.42,86 C247,101.04 266.15,118.72 282,136.5 C296.105,152.325 309.685,171.8225 319.9388,187.7225 C322.5022,191.6975 324.8577,195.4477 326.9616,198.8594 C328.0136,200.5652 329.0026,202.1865 329.9232,203.7089 " fill="none" id="c2-backto-a2" style="stroke:#181818;stroke-width:1.0;"/><polygon fill="#181818" points="225.66,82.8,229.9452,91.6677,229.4764,86.0304,235.1138,85.5615,225.66,82.8" style="stroke:#181818;stroke-width:1.0;"/><text fill="#000000" font-family="sans-serif" font-size="13" lengthAdjust="spacing" textLength="35" x="275" y="125.0684">agent</text></g><!--link a3 to w--><g id="link_a3_w"><path d="M72.5588,265.7806 C72.7418,266.1795 72.929,266.5763 73.1206,266.9707 C73.5038,267.7595 73.9044,268.5389 74.3233,269.307 C75.1611,270.8431 76.0717,272.3338 77.0616,273.7642 C79.0413,276.6248 81.3375,279.2438 84,281.5 C94.26,290.2 130.89,286.49 144,289.5 C201.42,302.68 266.01,325.7 304.28,340.24 " fill="none" id="a3-to-w" style="stroke:#181818;stroke-width:1.0;"/><polygon fill="#181818" points="308.78,341.96,301.8015,335.0101,304.1096,340.1747,298.945,342.4827,308.78,341.96" style="stroke:#181818;stroke-width:1.0;"/><text fill="#000000" font-family="sans-serif" font-size="13" lengthAdjust="spacing" textLength="36" x="204" y="303.0684">result</text></g><!--reverse link c2 to a3--><g id="link_c2_a3"><path d="M124.62,86.33 C109.53,100.77 94.36,118 84,136.5 C81.8113,140.4063 79.8739,144.5542 78.1592,148.8281 C77.7305,149.8966 77.3157,150.9729 76.9144,152.0553 C76.8643,152.1906 76.8143,152.326 76.7646,152.4615 " fill="none" id="c2-backto-a3" style="stroke:#181818;stroke-width:1.0;"/><polygon fill="#181818" points="128.2,82.97,118.9047,86.2255,124.559,86.3968,124.3877,92.0511,128.2,82.97" style="stroke:#181818;stroke-width:1.0;"/><text fill="#000000" font-family="sans-serif" font-size="13" lengthAdjust="spacing" textLength="35" x="101" y="125.0684">agent</text></g><!--link a3 to cam--><g id="link_a3_cam"><path d="M65,265.5554 C65,265.7349 65,265.9146 65,266.0945 C65,267.5339 65,268.9871 65,270.4512 C65,273.3793 65,276.351 65,279.3419 C65,285.3237 65,291.3826 65,297.3248 C65,309.2094 65,320.6275 65,330.03 " fill="none" id="a3-to-cam" style="stroke:#181818;stroke-width:1.0;"/><polygon fill="#181818" points="65,334.7,69,325.7,65,329.7,61,325.7,65,334.7" style="stroke:#181818;stroke-width:1.0;"/><text fill="#000000" font-family="sans-serif" font-size="13" lengthAdjust="spacing" textLength="69" x="66" y="303.0684">instrument</text></g><!--SRC=[TP2_QiGm38TtFuN87eYLBKEXf4_GSkrmT51jSPXUxA0et73qtUl4N1lQt6ZzFd_w8-oKukdCKBqb-Qo09hZ0rPWlOyXf4gZw55N2nxmyx0eukvSXb12DaLzhBqpAZqv3YYyZKsb1DlS0WAFFOGVO8DQDhHjyNnfllXz6__FzYSSq1Iq2t17WJN1lW6TsINmHjFS4I-h3dpbUW-S4FGqiLDQaePmfhrBxT8drGpvS1yBJVDQrEe-vvcmkqecZveFYBeet53Tekuks_z4DkSpKGOYJoZoiccy0]--></g></svg>