<?xml version="1.0" encoding="UTF-8" standalone="no"?><svg xmlns="http://www.w3.org/2000/svg" xmlns:xlink="http://www.w3.org/1999/xlink" contentStyleType="text/css" height="87px" preserveAspectRatio="none" style="width:247px;height:87px;background:#FFFFFF;" version="1.1" viewBox="0 0 247 87" width="247px" zoomAndPan="magnify"><defs/><g><!--entity w--><g id="elem_w"><rect fill="#F1F1F1" height="36.4883" rx="2.5" ry="2.5" style="stroke:#181818;stroke-width:0.5;" width="55" x="7" y="25.5"/><text fill="#000000" font-family="sans-serif" font-size="14" lengthAdjust="spacing" textLength="35" x="17" y="49.0352">Work</text></g><!--entity c--><g id="elem_c"><ellipse cx="199.5" cy="14" fill="#F1F1F1" rx="8" ry="8" style="stroke:#181818;stroke-width:0.5;"/><path d="M199.5,22 L199.5,49 M186.5,30 L212.5,30 M199.5,49 L186.5,64 M199.5,49 L212.5,64 " fill="none" style="stroke:#181818;stroke-width:0.5;"/><text fill="#000000" font-family="sans-serif" font-size="14" lengthAdjust="spacing" textLength="81" x="159" y="79.0352">Contributor</text></g><!--link w to c--><g id="link_w_c"><path d="M62.29,57.36 C68.62,59.9 75.42,62.17 82,63.5 C106.83,68.51 113.99,67.53 139,63.5 C143.43,62.79 147.98,61.8 152.49,60.64 " fill="none" id="w-to-c" style="stroke:#181818;stroke-width:1.0;"/><polygon fill="#181818" points="157.15,59.36,147.4113,57.8909,152.3292,60.6864,149.5336,65.6043,157.15,59.36" style="stroke:#181818;stroke-width:1.0;"/><text fill="#000000" font-family="sans-serif" font-size="13" lengthAdjust="spacing" textLength="55" x="83" y="60.0684">compiler</text></g><!--link w to c--><g id="link_w_c"><path d="M62.49,43.5 C87.02,43.5 123.19,43.5 152.21,43.5 " fill="none" id="w-to-c-1" style="stroke:#181818;stroke-width:1.0;"/><polygon fill="#181818" points="157.15,43.5,148.15,39.5,152.15,43.5,148.15,47.5,157.15,43.5" style="stroke:#181818;stroke-width:1.0;"/><text fill="#000000" font-family="sans-serif" font-size="13" lengthAdjust="spacing" textLength="60" x="80.5" y="37.0684">depositor</text></g><!--SRC=[AqfDBadCIyz9LL0Apo_ALb98B5OeLwZcughbuafCBialKb1opiyhASfCAWLomDB9N5pb2hfs2iaALWh9-Ra5cJcfHGe8ePJKWlpYJ91EBYuk0000]--></g></svg>