<?xml version="1.0" encoding="UTF-8" standalone="no"?><svg xmlns="http://www.w3.org/2000/svg" xmlns:xlink="http://www.w3.org/1999/xlink" contentStyleType="text/css" height="66px" preserveAspectRatio="none" style="width:418px;height:66px;background:#FFFFFF;" version="1.1" viewBox="0 0 418 66" width="418px" zoomAndPan="magnify"><defs/><g><!--entity ws--><g id="elem_ws"><path d="M16.7663,15.5182 C20.4959,9.0575 24.4044,9.6422 28.6742,14.9726 C31.9084,10.0174 36.4085,9.4387 39.9847,14.5899 C43.5466,9.3612 47.4127,7.5415 52.0045,13.4816 C55.9796,7.5674 59.6726,7.0821 64.3263,12.7604 C68.6618,7.8114 72.9593,7.5145 75.9826,14.0878 C80.1291,9.4125 83.6193,9.2364 87.5588,14.3331 C91.0622,8.8364 95.3152,8.1873 98.8259,14.3261 C103.136,9.2772 109.1157,8.7567 111.9217,15.9368 C120.8617,17.8902 121.6497,25.2561 115.4191,30.7833 C121.8426,37.0185 119.9209,44.0555 111.6053,46.7758 C108.6767,53.291 103.6557,53.4526 99.5238,47.9894 C96.9112,53.0681 91.9743,54.0699 88.0225,49.603 C84.7584,56.4246 80.4331,58.5324 74.2923,52.7324 C71.2067,59.1192 67.7046,58.6246 63.3503,53.9921 C58.7753,59.0604 54.8986,59.7084 51.171,53.1076 C46.3741,56.9474 42.9624,56.5179 39.9571,50.9678 C34.9585,57.4555 30.0784,56.7176 27.0823,49.1354 C22.1955,54.29 17.3728,51.2224 15.7923,45.6542 C7.2201,42.4877 6,37.025 11.9934,30.2633 C6.5402,23.9448 7.733,17.1475 16.7663,15.5182 " fill="#F1F1F1" style="stroke:#181818;stroke-width:0.5;"/><text fill="#000000" font-family="sans-serif" font-size="14" lengthAdjust="spacing" textLength="81" x="21.8046" y="34.9331">Workspaces</text></g><!--entity ar--><g id="elem_ar"><path d="M242.6777,15.3699 C245.4866,8.5592 251.7232,7.8798 255.6288,14.296 C259.1563,9.6044 262.5837,8.1942 266.5933,13.7817 C269.7524,8.803 274.2181,9.3257 277.0335,14.1479 C279.4522,8.4389 285.3169,7.4434 289.0385,12.7247 C292.8513,8.3529 296.615,7.5899 300.1097,13.0818 C302.9764,7.5373 308.3762,8.0866 310.937,13.3871 C313.9249,6.994 318.242,6 323.1525,11.3946 C326.7474,6.6009 331.304,6.1462 334.1779,12.1321 C338.1491,7.1513 342.8575,9.0038 345.0938,14.0254 C348.615,9.5567 352.512,9.0002 355.4823,14.5942 C358.1206,8.1718 362.9163,7.1171 367.2213,13.0048 C370.7773,7.6418 375.2553,8.8494 378.2173,13.6475 C382.617,8.461 386.9922,9.2029 389.8265,15.2633 C393.0266,10.5341 397.0677,10.565 400.5505,14.9299 C410.0331,16.6445 411.9468,24.7769 406.1449,31.6159 C410.7798,37.6887 408.8093,44.8261 400.7591,46.2211 C397.0461,51.4689 392.9335,51.6723 389.1527,46.2951 C386.505,51.8751 382.9199,53.4493 378.3321,48.2412 C375.7974,53.6433 370.3372,52.9792 367.4131,48.6795 C364.8576,54.1155 359.9887,54.5062 356.1076,50.2211 C352.4803,55.2207 348.3765,55.3302 344.5686,50.4315 C341.6521,55.3428 336.6722,56.5063 333.0058,51.2874 C330.6424,56.7377 325.341,58.555 321.493,52.8147 C318.3806,57.3678 315.014,57.6992 311.6439,53.0918 C307.0344,57.9544 301.3045,57.4623 299.179,50.4783 C296.5121,56.2839 291.431,55.1855 288.5919,50.6547 C284.5747,55.9218 279.465,54.8803 277.4745,48.6884 C274.2373,53.9337 268.5789,55.6187 264.9002,49.1628 C261.6019,53.2722 256.8646,53.6212 254.7918,47.9024 C249.9953,52.4583 246.2334,50.5454 243.9109,45.1872 C237.0746,41.346 235.8587,35.8806 242.2552,30.5433 C235.1313,26.0396 234.4205,19.4453 242.6777,15.3699 " fill="#F1F1F1" style="stroke:#181818;stroke-width:0.5;"/><text fill="#000000" font-family="sans-serif" font-size="14" lengthAdjust="spacing" textLength="144" x="249.3046" y="34.9331">Archival Repositories</text></g><!--link ws to ar--><g id="link_ws_ar"><path d="M118.1846,29.3979 C150.0946,29.3979 190.9346,29.3979 227.6146,29.3979 " fill="none" id="ws-to-ar" style="stroke:#181818;stroke-width:1.0;"/><polygon fill="#181818" points="232.4246,29.3979,223.4246,25.3979,227.4246,29.3979,223.4246,33.3979,232.4246,29.3979" style="stroke:#181818;stroke-width:1.0;"/><text fill="#000000" font-family="sans-serif" font-size="13" lengthAdjust="spacing" textLength="80" x="136.0546" y="22.9663">Data deposit</text></g><!--link ar to ws--><g id="link_ar_ws"><path d="M234.2446,47.2879 C206.5346,50.8779 175.7546,52.6579 147.5546,49.3979 C139.8546,48.5079 131.8346,47.1779 123.9346,45.6179 " fill="none" id="ar-to-ws" style="stroke:#181818;stroke-width:1.0;"/><polygon fill="#181818" points="119.4046,44.6879,127.423,50.4068,124.3036,45.6877,129.0226,42.5684,119.4046,44.6879" style="stroke:#181818;stroke-width:1.0;"/><text fill="#000000" font-family="sans-serif" font-size="13" lengthAdjust="spacing" textLength="55" x="148.5546" y="45.9663">Data use</text></g><!--SRC=[9Oix3eCm38Rt_nGMUox0W5I94x0mMy4j4P4IsGaCg7TlKjRluMEg6wr93ylinOYDBgCRm1VmVpkyrE_Xv4YBv6IX90rYGqzPUzfAjCbf-Ep5JPsED7DXsfu1ZRWexovRED9Zgmdm0m00]--></g></svg>