<?xml version="1.0" encoding="UTF-8" standalone="no"?><svg xmlns="http://www.w3.org/2000/svg" xmlns:xlink="http://www.w3.org/1999/xlink" contentStyleType="text/css" height="146px" preserveAspectRatio="none" style="width:317px;height:146px;background:#FFFFFF;" version="1.1" viewBox="0 0 317 146" width="317px" zoomAndPan="magnify"><defs/><g><text fill="#000000" font-family="sans-serif" font-size="14" font-weight="bold" lengthAdjust="spacing" textLength="173" x="65.25" y="23.5352">PARADISEC Architecture</text><!--cluster Nabu--><g id="cluster_Nabu"><path d="M131,43.4883 L169,43.4883 A3.75,3.75 0 0 1 171.5,45.9883 L178.5,65.9766 L308,65.9766 A2.5,2.5 0 0 1 310.5,68.4766 L310.5,136.9883 A2.5,2.5 0 0 1 308,139.4883 L131,139.4883 A2.5,2.5 0 0 1 128.5,136.9883 L128.5,45.9883 A2.5,2.5 0 0 1 131,43.4883 " fill="none" style="stroke:#000000;stroke-width:1.5;"/><line style="stroke:#000000;stroke-width:1.5;" x1="128.5" x2="178.5" y1="65.9766" y2="65.9766"/><text fill="#000000" font-family="sans-serif" font-size="14" font-weight="bold" lengthAdjust="spacing" textLength="37" x="132.5" y="59.0234">Nabu</text></g><!--entity Metadata Database--><g id="elem_Metadata Database"><path d="M144.5,88.4883 C144.5,78.4883 219.5,78.4883 219.5,78.4883 C219.5,78.4883 294.5,78.4883 294.5,88.4883 L294.5,113.9766 C294.5,123.9766 219.5,123.9766 219.5,123.9766 C219.5,123.9766 144.5,123.9766 144.5,113.9766 L144.5,88.4883 " fill="#F1F1F1" style="stroke:#181818;stroke-width:0.5;"/><path d="M144.5,88.4883 C144.5,98.4883 219.5,98.4883 219.5,98.4883 C219.5,98.4883 294.5,98.4883 294.5,88.4883 " fill="none" style="stroke:#181818;stroke-width:0.5;"/><text fill="#000000" font-family="sans-serif" font-size="14" lengthAdjust="spacing" textLength="130" x="154.5" y="116.0234">Metadata Database</text></g><!--entity NFS Storage--><g id="elem_NFS Storage"><path d="M6,88.4883 C6,78.4883 57.5,78.4883 57.5,78.4883 C57.5,78.4883 109,78.4883 109,88.4883 L109,113.9766 C109,123.9766 57.5,123.9766 57.5,123.9766 C57.5,123.9766 6,123.9766 6,113.9766 L6,88.4883 " fill="#F1F1F1" style="stroke:#181818;stroke-width:0.5;"/><path d="M6,88.4883 C6,98.4883 57.5,98.4883 57.5,98.4883 C57.5,98.4883 109,98.4883 109,88.4883 " fill="none" style="stroke:#181818;stroke-width:0.5;"/><text fill="#000000" font-family="sans-serif" font-size="14" lengthAdjust="spacing" textLength="83" x="16" y="116.0234">NFS Storage</text></g><!--SRC=[AyaioKcrKWXm379qyGnsTLPmB4hEo2n9JIufBKhbuYf8JCvEJ4zLKF9BJ2fLKgZcKb1GI4aiIKnAB0OA-gQM989u2YvG8IK5e1AGcbekBY12gFHp2rO8Bial0fe5CWKi2m00]--></g></svg>