<?xml version="1.0" encoding="UTF-8" standalone="no"?><svg xmlns="http://www.w3.org/2000/svg" xmlns:xlink="http://www.w3.org/1999/xlink" contentStyleType="text/css" height="842px" preserveAspectRatio="none" style="width:1330px;height:842px;background:#FFFFFF;" version="1.1" viewBox="0 0 1330 842" width="1330px" zoomAndPan="magnify"><defs/><g><text fill="#000000" font-family="sans-serif" font-size="14" font-weight="bold" lengthAdjust="spacing" textLength="120" x="598.425" y="23.5352">Step 4 - Deposit</text><!--cluster Workbench--><g id="cluster_Workbench"><rect fill="none" height="103" rx="2.5" ry="2.5" style="stroke:#181818;stroke-width:1.0;" width="167" x="119.85" y="189.9883"/><text fill="#000000" font-family="sans-serif" font-size="14" font-weight="bold" lengthAdjust="spacing" textLength="79" x="163.85" y="205.5234">Workbench</text></g><!--cluster Webserver--><g id="cluster_Webserver"><rect fill="none" height="250" rx="2.5" ry="2.5" style="stroke:#181818;stroke-width:1.0;" width="1012" x="165.85" y="349.9883"/><text fill="#000000" font-family="sans-serif" font-size="14" font-weight="bold" lengthAdjust="spacing" textLength="74" x="634.85" y="365.5234">Webserver</text></g><!--cluster ocfl--><g id="cluster_ocfl"><rect fill="none" height="103" rx="2.5" ry="2.5" style="stroke:#181818;stroke-width:1.0;" width="764" x="197.85" y="400.9883"/><text fill="#000000" font-family="sans-serif" font-size="14" font-weight="bold" lengthAdjust="spacing" textLength="79" x="540.35" y="416.5234">OCFL Repo</text></g><!--entity w1--><g id="elem_w1"><rect fill="#F1F1F1" height="36.4883" rx="2.5" ry="2.5" style="stroke:#181818;stroke-width:0.5;" width="100" x="162.85" y="232.9883"/><text fill="#000000" font-family="sans-serif" font-size="14" lengthAdjust="spacing" textLength="80" x="172.85" y="256.5234">Notebook 1</text></g><g id="elem_GMN14"><path d="M181.85,558.9883 L181.85,584.2988 L317.85,584.2988 L317.85,568.9883 L307.85,558.9883 L181.85,558.9883 " fill="#FEFFDD" style="stroke:#181818;stroke-width:0.5;"/><path d="M307.85,558.9883 L307.85,568.9883 L317.85,568.9883 L307.85,558.9883 " fill="#FEFFDD" style="stroke:#181818;stroke-width:1.0;"/><text fill="#000000" font-family="sans-serif" font-size="13" lengthAdjust="spacing" textLength="115" x="187.85" y="576.5566">"*" = Open licence</text></g><!--entity ui--><g id="elem_ui"><rect fill="#F1F1F1" height="36.4883" rx="2.5" ry="2.5" style="stroke:#181818;stroke-width:0.5;" width="176" x="985.85" y="443.9883"/><text fill="#000000" font-family="sans-serif" font-size="14" lengthAdjust="spacing" textLength="156" x="995.85" y="467.5234">OCFL search/discovery</text></g><!--entity c1--><g id="elem_c1"><rect fill="#F1F1F1" height="36.4883" rx="2.5" ry="2.5" style="stroke:#181818;stroke-width:0.5;" width="77" x="860.35" y="443.9883"/><text fill="#000000" font-family="sans-serif" font-size="14" lengthAdjust="spacing" textLength="57" x="870.35" y="467.5234">Crate 1*</text></g><!--entity c2--><g id="elem_c2"><rect fill="#F1F1F1" height="36.4883" rx="2.5" ry="2.5" style="stroke:#181818;stroke-width:0.5;" width="77" x="748.35" y="443.9883"/><text fill="#000000" font-family="sans-serif" font-size="14" lengthAdjust="spacing" textLength="57" x="758.35" y="467.5234">Crate 2*</text></g><!--entity n1--><g id="elem_n1"><rect fill="#F1F1F1" height="36.4883" rx="2.5" ry="2.5" style="stroke:#181818;stroke-width:0.5;" width="107" x="606.35" y="443.9883"/><text fill="#000000" font-family="sans-serif" font-size="14" lengthAdjust="spacing" textLength="87" x="616.35" y="467.5234">Notebook 1*</text></g><!--entity n2--><g id="elem_n2"><rect fill="#F1F1F1" height="36.4883" rx="2.5" ry="2.5" style="stroke:#181818;stroke-width:0.5;" width="107" x="464.35" y="443.9883"/><text fill="#000000" font-family="sans-serif" font-size="14" lengthAdjust="spacing" textLength="87" x="474.35" y="467.5234">Notebook 2*</text></g><!--entity mwn--><g id="elem_mwn"><rect fill="#F1F1F1" height="36.4883" rx="2.5" ry="2.5" style="stroke:#181818;stroke-width:0.5;" width="188" x="240.85" y="443.9883"/><text fill="#000000" font-family="sans-serif" font-size="14" lengthAdjust="spacing" textLength="168" x="250.85" y="467.5234">My Wordcloud Notebook</text></g><!--entity auth--><g id="elem_auth"><rect fill="#F1F1F1" height="36.4883" rx="2.5" ry="2.5" style="stroke:#181818;stroke-width:0.5;" width="148" x="1176.85" y="662.9883"/><text fill="#000000" font-family="sans-serif" font-size="14" lengthAdjust="spacing" textLength="128" x="1186.85" y="686.5234">Licence Authorizer</text></g><!--entity r1--><g id="elem_r1"><ellipse cx="212.85" cy="51.4883" fill="#F1F1F1" rx="8" ry="8" style="stroke:#181818;stroke-width:0.5;"/><path d="M212.85,59.4883 L212.85,86.4883 M199.85,67.4883 L225.85,67.4883 M212.85,86.4883 L199.85,101.4883 M212.85,86.4883 L225.85,101.4883 " fill="none" style="stroke:#181818;stroke-width:0.5;"/><text fill="#000000" font-family="sans-serif" font-size="14" lengthAdjust="spacing" textLength="89" x="168.35" y="116.5234">Researcher 1</text></g><!--entity r2--><g id="elem_r2"><ellipse cx="904.85" cy="768.4883" fill="#F1F1F1" rx="8" ry="8" style="stroke:#181818;stroke-width:0.5;"/><path d="M904.85,776.4883 L904.85,803.4883 M891.85,784.4883 L917.85,784.4883 M904.85,803.4883 L891.85,818.4883 M904.85,803.4883 L917.85,818.4883 " fill="none" style="stroke:#181818;stroke-width:0.5;"/><text fill="#000000" font-family="sans-serif" font-size="14" lengthAdjust="spacing" textLength="89" x="860.35" y="833.5234">Researcher 2</text></g><!--link ocfl to GMN14--><g id="link_ocfl_GMN14"><path d="M218.8488,504.2377 C218.9192,504.4355 218.9898,504.6334 219.0606,504.8312 C219.2021,505.227 219.3443,505.6228 219.4871,506.0185 C220.0582,507.6013 220.6393,509.1828 221.2286,510.754 C222.4072,513.8966 223.6187,516.9983 224.85,519.9883 C230.44,533.5583 238.06,548.5583 243.42,558.6583 " fill="none" id="ocfl-GMN14" style="stroke:#181818;stroke-width:1.0;stroke-dasharray:7.0,7.0;"/></g><!--link r1 to w1--><g id="link_r1_w1"><path d="M212.85,119.2683 C212.85,152.0283 212.85,198.6783 212.85,226.4883 " fill="none" id="r1-to-w1" style="stroke:#181818;stroke-width:1.0;"/><polygon fill="#181818" points="212.85,231.2783,216.85,222.2783,212.85,226.2783,208.85,222.2783,212.85,231.2783" style="stroke:#181818;stroke-width:1.0;"/><text fill="#000000" font-family="sans-serif" font-size="13" lengthAdjust="spacing" textLength="202" x="213.85" y="162.5566">Save as My wordcloud notebook</text></g><!--link Workbench to ocfl--><g id="link_Workbench_ocfl"><path d="M119.6536,253.9158 C119.5224,253.9486 119.3899,253.9818 119.2561,254.0155 C118.7206,254.15 118.1639,254.2912 117.587,254.439 C116.4333,254.7345 115.1989,255.0566 113.8925,255.4051 C111.2799,256.1021 108.3795,256.9046 105.2614,257.8117 C92.7891,261.4402 76.8331,266.742 61.8713,273.6558 C31.9475,287.4833 6,307.7583 19.85,333.9883 C42.855,377.5533 88.2725,409.0008 128.4675,429.7045 C148.565,440.0564 167.3569,447.7223 181.3888,452.8741 C184.8967,454.162 188.1072,455.2928 190.9662,456.2691 C192.3957,456.7573 193.7373,457.2068 194.9843,457.6181 C195.6078,457.8238 196.2077,458.0198 196.783,458.2064 C197.0707,458.2996 197.3523,458.3905 197.6276,458.479 " fill="none" id="Workbench-to-ocfl" style="stroke:#181818;stroke-width:1.0;"/><polygon fill="#181818" points="197.6276,458.479,190.2837,451.9165,192.8675,456.9488,187.8352,459.5326,197.6276,458.479" style="stroke:#181818;stroke-width:1.0;"/><text fill="#000000" font-family="sans-serif" font-size="13" lengthAdjust="spacing" textLength="376" x="20.85" y="330.5566">Deposit *My Wordcloud Notebook* with single-user license</text></g><!--reverse link w1 to mwn--><g id="link_w1_mwn"><path d="M269.69,254.6383 C313.72,260.0483 372.08,275.2583 401.85,316.9883 C431.64,358.7383 382.77,415.8383 353.82,443.9383 " fill="none" id="w1-backto-mwn" style="stroke:#181818;stroke-width:1.0;"/><polygon fill="#181818" points="264.81,254.0883,273.2944,259.0898,269.7773,254.6592,274.2079,251.1422,264.81,254.0883" style="stroke:#181818;stroke-width:1.0;"/><text fill="#000000" font-family="sans-serif" font-size="13" lengthAdjust="spacing" textLength="175" x="409.85" y="330.5566">Provenance -- derived from</text></g><!--link r2 to ui--><g id="link_r2_ui"><path d="M860.12,768.6583 C810.81,733.6983 742.69,672.0183 776.85,615.9883 C784.2,603.9383 951.96,521.8183 1032.04,483.1083 " fill="none" id="r2-to-ui" style="stroke:#181818;stroke-width:1.0;"/><polygon fill="#181818" points="1036.28,481.0483,1026.436,481.3571,1031.7769,483.2212,1029.9127,488.5621,1036.28,481.0483" style="stroke:#181818;stroke-width:1.0;"/><text fill="#000000" font-family="sans-serif" font-size="13" lengthAdjust="spacing" textLength="208" x="777.85" y="629.5566">Fire up My Word Cloud Notebook</text></g><!--link ui to r2--><g id="link_ui_r2"><path d="M1065.53,480.4483 C1050.77,511.3383 1018.89,577.6083 990.85,632.9883 C969.92,674.3383 945.29,721.1283 927.77,754.1083 " fill="none" id="ui-to-r2" style="stroke:#181818;stroke-width:1.0;"/><polygon fill="#181818" points="925.51,758.3583,933.2778,752.3034,927.8652,753.9477,926.2208,748.5351,925.51,758.3583" style="stroke:#181818;stroke-width:1.0;"/><text fill="#000000" font-family="sans-serif" font-size="13" lengthAdjust="spacing" textLength="24" x="999.85" y="629.5566">NO!</text></g><!--link ui to auth--><g id="link_ui_auth"><path d="M1074.9,480.1383 C1077.51,509.4383 1086.58,569.6783 1117.85,607.9883 C1137.07,631.5283 1166.1,648.5083 1192.14,660.0383 " fill="none" id="ui-to-auth" style="stroke:#181818;stroke-width:1.0;"/><polygon fill="#181818" points="1196.6,661.9583,1189.9223,654.7189,1192.0095,659.9766,1186.7517,662.0638,1196.6,661.9583" style="stroke:#181818;stroke-width:1.0;"/><text fill="#000000" font-family="sans-serif" font-size="13" lengthAdjust="spacing" textLength="156" x="1118.85" y="576.5566">Is r2 allowed to see mwn</text></g><!--link auth to ui--><g id="link_auth_ui"><path d="M1263.73,662.6283 C1280.39,637.8683 1304.92,591.7783 1283.85,558.9883 C1258.19,519.0483 1211.33,495.5083 1168.38,481.7583 " fill="none" id="auth-to-ui" style="stroke:#181818;stroke-width:1.0;"/><polygon fill="#181818" points="1163.79,480.3283,1171.1939,486.8231,1168.5639,481.8148,1173.5723,479.1848,1163.79,480.3283" style="stroke:#181818;stroke-width:1.0;"/><text fill="#000000" font-family="sans-serif" font-size="13" lengthAdjust="spacing" textLength="18" x="1292.85" y="576.5566">No</text></g><!--SRC=[TP9DIyD048Rl-ol670kB97WAA4Yb8DHMgk1vivdQfUbEs6mQglZVdTqasjPAJjdtcNddwzNu2dDuyLZ33KXum9eQuuL3xPLzhn3Uo6qBj7e3dqUloO8y5aHRI1DG3NGfor_y2QKzEKXMsA1oUeDk85nwISjwBHF7ZbWqwFQidZWkfxCvz87NfMaqCN68uQrXCdYVqolk9XAarrLWJf2fKnuXdKH2zmtyaRD1pixbtm7qX4t_9OOSjiznZ3mTmdnBNL5RmiX7UDVPSQB2iW05UKyxe7Li9eU4azx2iaOBbT6y83mVmRn_XllMRyYP3tGni-BVSLufo98wA-zuWNm5Qe-1uAgwdwhiK9NuFOGn9aur7sy69XUxcK1dsB0neIZPycRxUXiKeKVPrj6TypmxNgbLeMGfeKHdzbZ2sj6EAys0CLvq3ZFZ4DeQ1ZUOdjW9mP2K3CS-StWCvmMgggZZR9xuX31CLqHzJBgW8OuV6EU7vTKt]--></g></svg>