<?xml version="1.0" encoding="UTF-8" standalone="no"?><svg xmlns="http://www.w3.org/2000/svg" xmlns:xlink="http://www.w3.org/1999/xlink" contentStyleType="text/css" height="783px" preserveAspectRatio="none" style="width:1411px;height:783px;background:#FFFFFF;" version="1.1" viewBox="0 0 1411 783" width="1411px" zoomAndPan="magnify"><defs/><g><text fill="#000000" font-family="sans-serif" font-size="14" font-weight="bold" lengthAdjust="spacing" textLength="509" x="452.25" y="28.5352">Super Simple License Server w/ Github Authentication &amp; Authorization</text><line style="stroke:#181818;stroke-width:0.5;stroke-dasharray:5.0,5.0;" x1="53" x2="53" y1="123.6875" y2="697.6758"/><line style="stroke:#181818;stroke-width:0.5;stroke-dasharray:5.0,5.0;" x1="480.5" x2="480.5" y1="123.6875" y2="697.6758"/><line style="stroke:#181818;stroke-width:0.5;stroke-dasharray:5.0,5.0;" x1="952.5" x2="952.5" y1="123.6875" y2="697.6758"/><line style="stroke:#181818;stroke-width:0.5;stroke-dasharray:5.0,5.0;" x1="1180.5" x2="1180.5" y1="123.6875" y2="697.6758"/><line style="stroke:#181818;stroke-width:0.5;stroke-dasharray:5.0,5.0;" x1="1376.5" x2="1376.5" y1="123.6875" y2="697.6758"/><text fill="#000000" font-family="sans-serif" font-size="18" lengthAdjust="spacing" textLength="90" x="5" y="119.8906">researcher</text><ellipse cx="53" cy="50.9883" fill="#E2E2F0" rx="8" ry="8" style="stroke:#181818;stroke-width:0.5;"/><path d="M53,58.9883 L53,85.9883 M40,66.9883 L66,66.9883 M53,85.9883 L40,100.9883 M53,85.9883 L66,100.9883 " fill="none" style="stroke:#181818;stroke-width:0.5;"/><text fill="#000000" font-family="sans-serif" font-size="18" lengthAdjust="spacing" textLength="90" x="5" y="714.0781">researcher</text><ellipse cx="53" cy="726.375" fill="#E2E2F0" rx="8" ry="8" style="stroke:#181818;stroke-width:0.5;"/><path d="M53,734.375 L53,761.375 M40,742.375 L66,742.375 M53,761.375 L40,776.375 M53,761.375 L66,776.375 " fill="none" style="stroke:#181818;stroke-width:0.5;"/><text fill="#000000" font-family="sans-serif" font-size="18" lengthAdjust="spacing" textLength="87" x="434.5" y="119.8906">repository</text><ellipse cx="481" cy="86.4883" fill="#E2E2F0" rx="12" ry="12" style="stroke:#181818;stroke-width:0.5;"/><line style="stroke:#181818;stroke-width:0.5;" x1="469" x2="493" y1="100.4883" y2="100.4883"/><text fill="#000000" font-family="sans-serif" font-size="18" lengthAdjust="spacing" textLength="87" x="434.5" y="714.0781">repository</text><ellipse cx="481" cy="733.875" fill="#E2E2F0" rx="12" ry="12" style="stroke:#181818;stroke-width:0.5;"/><line style="stroke:#181818;stroke-width:0.5;" x1="469" x2="493" y1="747.875" y2="747.875"/><text fill="#000000" font-family="sans-serif" font-size="18" lengthAdjust="spacing" textLength="123" x="888.5" y="119.8906">License Server</text><ellipse cx="953" cy="86.4883" fill="#E2E2F0" rx="12" ry="12" style="stroke:#181818;stroke-width:0.5;"/><line style="stroke:#181818;stroke-width:0.5;" x1="941" x2="965" y1="100.4883" y2="100.4883"/><text fill="#000000" font-family="sans-serif" font-size="18" lengthAdjust="spacing" textLength="123" x="888.5" y="714.0781">License Server</text><ellipse cx="953" cy="733.875" fill="#E2E2F0" rx="12" ry="12" style="stroke:#181818;stroke-width:0.5;"/><line style="stroke:#181818;stroke-width:0.5;" x1="941" x2="965" y1="747.875" y2="747.875"/><text fill="#000000" font-family="sans-serif" font-size="18" lengthAdjust="spacing" textLength="300" x="1027.5" y="119.8906">https://doi.org/x/some-notebook</text><ellipse cx="1180.5" cy="86.4883" fill="#E2E2F0" rx="12" ry="12" style="stroke:#181818;stroke-width:0.5;"/><line style="stroke:#181818;stroke-width:0.5;" x1="1168.5" x2="1192.5" y1="100.4883" y2="100.4883"/><text fill="#000000" font-family="sans-serif" font-size="18" lengthAdjust="spacing" textLength="300" x="1027.5" y="714.0781">https://doi.org/x/some-notebook</text><ellipse cx="1180.5" cy="733.875" fill="#E2E2F0" rx="12" ry="12" style="stroke:#181818;stroke-width:0.5;"/><line style="stroke:#181818;stroke-width:0.5;" x1="1168.5" x2="1192.5" y1="747.875" y2="747.875"/><text fill="#000000" font-family="sans-serif" font-size="18" lengthAdjust="spacing" textLength="60" x="1343.5" y="119.8906">groups</text><path d="M1358.5,66.4883 C1358.5,56.4883 1376.5,56.4883 1376.5,56.4883 C1376.5,56.4883 1394.5,56.4883 1394.5,66.4883 L1394.5,92.4883 C1394.5,102.4883 1376.5,102.4883 1376.5,102.4883 C1376.5,102.4883 1358.5,102.4883 1358.5,92.4883 L1358.5,66.4883 " fill="#E2E2F0" style="stroke:#181818;stroke-width:1.5;"/><path d="M1358.5,66.4883 C1358.5,76.4883 1376.5,76.4883 1376.5,76.4883 C1376.5,76.4883 1394.5,76.4883 1394.5,66.4883 " fill="none" style="stroke:#181818;stroke-width:1.5;"/><text fill="#000000" font-family="sans-serif" font-size="18" lengthAdjust="spacing" textLength="60" x="1343.5" y="714.0781">groups</text><path d="M1358.5,727.875 C1358.5,717.875 1376.5,717.875 1376.5,717.875 C1376.5,717.875 1394.5,717.875 1394.5,727.875 L1394.5,753.875 C1394.5,763.875 1376.5,763.875 1376.5,763.875 C1376.5,763.875 1358.5,763.875 1358.5,753.875 L1358.5,727.875 " fill="#E2E2F0" style="stroke:#181818;stroke-width:1.5;"/><path d="M1358.5,727.875 C1358.5,737.875 1376.5,737.875 1376.5,737.875 C1376.5,737.875 1394.5,737.875 1394.5,727.875 " fill="none" style="stroke:#181818;stroke-width:1.5;"/><polygon fill="#181818" points="469,156.8867,479,160.8867,469,164.8867,473,160.8867" style="stroke:#181818;stroke-width:1.0;"/><line style="stroke:#181818;stroke-width:1.0;" x1="53" x2="475" y1="160.8867" y2="160.8867"/><text fill="#000000" font-family="sans-serif" font-size="18" lengthAdjust="spacing" textLength="404" x="60" y="155.0898">Can I have https://doi.org/x/some-notebook?</text><polygon fill="#181818" points="1168.5,192.0859,1178.5,196.0859,1168.5,200.0859,1172.5,196.0859" style="stroke:#181818;stroke-width:1.0;"/><line style="stroke:#181818;stroke-width:1.0;" x1="481" x2="1174.5" y1="196.0859" y2="196.0859"/><text fill="#000000" font-family="sans-serif" font-size="18" lengthAdjust="spacing" textLength="173" x="488" y="190.2891">What's your licence?</text><polygon fill="#181818" points="492,227.2852,482,231.2852,492,235.2852,488,231.2852" style="stroke:#181818;stroke-width:1.0;"/><line style="stroke:#181818;stroke-width:1.0;" x1="486" x2="1179.5" y1="231.2852" y2="231.2852"/><text fill="#000000" font-family="sans-serif" font-size="18" lengthAdjust="spacing" textLength="329" x="498" y="225.4883">Accessible to github org MyTroveData</text><line style="stroke:#181818;stroke-width:1.0;" x1="481" x2="523" y1="266.4844" y2="266.4844"/><line style="stroke:#181818;stroke-width:1.0;" x1="523" x2="523" y1="266.4844" y2="279.4844"/><line style="stroke:#181818;stroke-width:1.0;" x1="482" x2="523" y1="279.4844" y2="279.4844"/><polygon fill="#181818" points="492,275.4844,482,279.4844,492,283.4844,488,279.4844" style="stroke:#181818;stroke-width:1.0;"/><text fill="#000000" font-family="sans-serif" font-size="18" lengthAdjust="spacing" textLength="334" x="488" y="260.6875">Is that URL on the list of trusted sites?</text><line style="stroke:#181818;stroke-width:1.0;" x1="481" x2="523" y1="314.6836" y2="314.6836"/><line style="stroke:#181818;stroke-width:1.0;" x1="523" x2="523" y1="314.6836" y2="327.6836"/><line style="stroke:#181818;stroke-width:1.0;" x1="482" x2="523" y1="327.6836" y2="327.6836"/><polygon fill="#181818" points="492,323.6836,482,327.6836,492,331.6836,488,327.6836" style="stroke:#181818;stroke-width:1.0;"/><text fill="#000000" font-family="sans-serif" font-size="18" lengthAdjust="spacing" textLength="32" x="488" y="308.8867">Yep</text><polygon fill="#181818" points="64,358.8828,54,362.8828,64,366.8828,60,362.8828" style="stroke:#181818;stroke-width:1.0;"/><line style="stroke:#181818;stroke-width:1.0;" x1="58" x2="480" y1="362.8828" y2="362.8828"/><text fill="#000000" font-family="sans-serif" font-size="18" lengthAdjust="spacing" textLength="339" x="70" y="357.0859">Authenticate yourself to license service</text><polygon fill="#181818" points="941,394.082,951,398.082,941,402.082,945,398.082" style="stroke:#181818;stroke-width:1.0;"/><line style="stroke:#181818;stroke-width:1.0;" x1="53" x2="947" y1="398.082" y2="398.082"/><text fill="#000000" font-family="sans-serif" font-size="18" lengthAdjust="spacing" textLength="223" x="60" y="392.2852">Logs user in using Github</text><polygon fill="#181818" points="1364.5,429.2813,1374.5,433.2813,1364.5,437.2813,1368.5,433.2813" style="stroke:#181818;stroke-width:1.0;"/><line style="stroke:#181818;stroke-width:1.0;" x1="953" x2="1370.5" y1="433.2813" y2="433.2813"/><text fill="#000000" font-family="sans-serif" font-size="18" lengthAdjust="spacing" textLength="222" x="960" y="427.4844">User in MyTroveData org?</text><polygon fill="#181818" points="941,464.4805,951,468.4805,941,472.4805,945,468.4805" style="stroke:#181818;stroke-width:1.0;"/><line style="stroke:#181818;stroke-width:1.0;" x1="53" x2="947" y1="468.4805" y2="468.4805"/><text fill="#000000" font-family="sans-serif" font-size="18" lengthAdjust="spacing" textLength="32" x="60" y="462.6836">Yep</text><polygon fill="#181818" points="64,499.6797,54,503.6797,64,507.6797,60,503.6797" style="stroke:#181818;stroke-width:1.0;"/><line style="stroke:#181818;stroke-width:1.0;" x1="58" x2="952" y1="503.6797" y2="503.6797"/><text fill="#000000" font-family="sans-serif" font-size="18" lengthAdjust="spacing" textLength="876" x="70" y="497.8828">(To web browser) Here's a token for your browser that will let the repo get your group-memberships</text><polygon fill="#181818" points="469,534.8789,479,538.8789,469,542.8789,473,538.8789" style="stroke:#181818;stroke-width:1.0;"/><line style="stroke:#181818;stroke-width:1.0;" x1="53" x2="475" y1="538.8789" y2="538.8789"/><text fill="#000000" font-family="sans-serif" font-size="18" lengthAdjust="spacing" textLength="242" x="60" y="533.082">(via browser) Here's a token</text><polygon fill="#181818" points="941,570.0781,951,574.0781,941,578.0781,945,574.0781" style="stroke:#181818;stroke-width:1.0;"/><line style="stroke:#181818;stroke-width:1.0;" x1="481" x2="947" y1="574.0781" y2="574.0781"/><text fill="#000000" font-family="sans-serif" font-size="18" lengthAdjust="spacing" textLength="145" x="488" y="568.2813">I have this token</text><polygon fill="#181818" points="492,605.2773,482,609.2773,492,613.2773,488,609.2773" style="stroke:#181818;stroke-width:1.0;"/><line style="stroke:#181818;stroke-width:1.0;" x1="486" x2="952" y1="609.2773" y2="609.2773"/><text fill="#000000" font-family="sans-serif" font-size="18" lengthAdjust="spacing" textLength="30" x="498" y="603.4805">yep</text><polygon fill="#181818" points="1168.5,640.4766,1178.5,644.4766,1168.5,648.4766,1172.5,644.4766" style="stroke:#181818;stroke-width:1.0;"/><line style="stroke:#181818;stroke-width:1.0;" x1="481" x2="1174.5" y1="644.4766" y2="644.4766"/><text fill="#000000" font-family="sans-serif" font-size="18" lengthAdjust="spacing" textLength="44" x="488" y="638.6797">fetch</text><polygon fill="#181818" points="64,675.6758,54,679.6758,64,683.6758,60,679.6758" style="stroke:#181818;stroke-width:1.0;"/><line style="stroke:#181818;stroke-width:1.0;" x1="58" x2="480" y1="679.6758" y2="679.6758"/><text fill="#000000" font-family="sans-serif" font-size="18" lengthAdjust="spacing" textLength="174" x="70" y="673.8789">Here's the RO-Crate</text><!--SRC=[XP91Rvj048Nl_8eHXpOzkAYtoeTQKQAsaLnLYXDLFIxh0LPUTj3EO9Vy-iu2nd6bAbo0cJTl7z_01nSw4qqBUwnCx-Kh1Tcv5uHFdxDCd7XSmwxlCCBEjPr7s3gBWH5s68zQFHNmpKdJbt3RIuD1d3NYAC2xiK3HlOplcR524QOh8gE9ji6fO3XLiZGimzJlY9tgXwNTlMhdrndoMLJxnIDlH3fU5yMUt4UATV6dO6fn5KYm93haIM-plH5J6ZNAwqXznsEvxZZJEB3waew5DToP00_Gc2F26xQRB4teeDMnNusHzmm3zH5y2cnnazcBxQsroEnAPIe4zGHHJU77y1JfYFSQ3iw6qyW3WwWhF3zkGH4hRtLc0Qf0Oi-2Ur1io9lhiTzARobmElgoAXm3ClegfV0pM5Qm-dZce6HrQairGwyjS47lBjJdrKEcYgJhakvvbhp-3lskpRLR2fMUbb0tJmGdBA6CT5A73_0T8of0ey4E6A3ItsU4EGic52VdFNYK4KRwRw3Mbr4txdJLObjYvCRzkzQRepF_E-oCQuewBryQntDx2PwCXWlUjFSAnJRNl6Vp5F7nv-ekAlQ_]--></g></svg>