<?xml version="1.0" encoding="UTF-8" standalone="no"?><svg xmlns="http://www.w3.org/2000/svg" xmlns:xlink="http://www.w3.org/1999/xlink" contentStyleType="text/css" height="674px" preserveAspectRatio="none" style="width:679px;height:674px;background:#FFFFFF;" version="1.1" viewBox="0 0 679 674" width="679px" zoomAndPan="magnify"><defs/><g><text fill="#000000" font-family="sans-serif" font-size="14" font-weight="bold" lengthAdjust="spacing" textLength="131" x="267.25" y="23.5352">ATAP Architecture</text><!--cluster atap--><g id="cluster_atap"><rect fill="none" height="97" rx="2.5" ry="2.5" style="stroke:#181818;stroke-width:1.0;" width="311" x="7" y="192.9883"/><text fill="#000000" font-family="sans-serif" font-size="18" font-weight="bold" lengthAdjust="spacing" textLength="216" x="54.5" y="212.3906">Text Analytics Platform</text></g><!--entity n1--><g id="elem_n1"><rect fill="#F1F1F1" height="41.1992" rx="2.5" ry="2.5" style="stroke:#181818;stroke-width:0.5;" width="122" x="180" y="232.9883"/><text fill="#000000" font-family="sans-serif" font-size="18" lengthAdjust="spacing" textLength="102" x="190" y="260.3906">Notebook 1</text></g><!--entity n2--><g id="elem_n2"><rect fill="#F1F1F1" height="41.1992" rx="2.5" ry="2.5" style="stroke:#181818;stroke-width:0.5;" width="122" x="23" y="232.9883"/><text fill="#000000" font-family="sans-serif" font-size="18" lengthAdjust="spacing" textLength="102" x="33" y="260.3906">Notebook 1</text></g><!--entity repo--><g id="elem_repo"><path d="M159.5,616.9883 C159.5,606.9883 241,606.9883 241,606.9883 C241,606.9883 322.5,606.9883 322.5,616.9883 L322.5,647.1875 C322.5,657.1875 241,657.1875 241,657.1875 C241,657.1875 159.5,657.1875 159.5,647.1875 L159.5,616.9883 " fill="#F1F1F1" style="stroke:#181818;stroke-width:0.5;"/><path d="M159.5,616.9883 C159.5,626.9883 241,626.9883 241,626.9883 C241,626.9883 322.5,626.9883 322.5,616.9883 " fill="none" style="stroke:#181818;stroke-width:0.5;"/><text fill="#000000" font-family="sans-serif" font-size="18" lengthAdjust="spacing" textLength="143" x="169.5" y="648.3906">OCFL Repository</text></g><!--entity oni--><g id="elem_oni"><rect fill="#F1F1F1" height="41.1992" rx="2.5" ry="2.5" style="stroke:#181818;stroke-width:0.5;" width="47" x="217.5" y="358.9883"/><text fill="#000000" font-family="sans-serif" font-size="18" lengthAdjust="spacing" textLength="27" x="227.5" y="386.3906">API</text></g><!--entity ac--><g id="elem_ac"><rect fill="#F1F1F1" height="41.1992" rx="2.5" ry="2.5" style="stroke:#181818;stroke-width:0.5;" width="145" x="528.5" y="358.9883"/><text fill="#000000" font-family="sans-serif" font-size="18" lengthAdjust="spacing" textLength="125" x="538.5" y="386.3906">Access control</text></g><!--entity researcher--><g id="elem_researcher"><ellipse cx="241" cy="51.4883" fill="#F1F1F1" rx="8" ry="8" style="stroke:#181818;stroke-width:0.5;"/><path d="M241,59.4883 L241,86.4883 M228,67.4883 L254,67.4883 M241,86.4883 L228,101.4883 M241,86.4883 L254,101.4883 " fill="none" style="stroke:#181818;stroke-width:0.5;"/><text fill="#000000" font-family="sans-serif" font-size="18" lengthAdjust="spacing" textLength="90" x="196" y="120.3906">researcher</text></g><!--link researcher to n1--><g id="link_researcher_n1"><path d="M241,124.2983 C241,155.9183 241,199.2183 241,226.5183 " fill="none" id="researcher-to-n1" style="stroke:#181818;stroke-width:1.0;"/><polygon fill="#181818" points="241,231.2483,245,222.2483,241,226.2483,237,222.2483,241,231.2483" style="stroke:#181818;stroke-width:1.0;"/><text fill="#000000" font-family="sans-serif" font-size="18" lengthAdjust="spacing" textLength="122" x="242" y="172.3906">Use Notebook</text></g><!--link n1 to oni--><g id="link_n1_oni"><path d="M204.72,274.4783 C179.71,288.3483 150.83,304.5683 150,305.9883 C144.85,314.8183 144.78,320.1983 150,328.9883 C163.13,351.0783 189.96,363.9283 211.1,370.9783 " fill="none" id="n1-to-oni" style="stroke:#181818;stroke-width:1.0;"/><polygon fill="#181818" points="215.73,372.4383,208.3673,365.8968,210.9656,370.9217,205.9407,373.5199,215.73,372.4383" style="stroke:#181818;stroke-width:1.0;"/><text fill="#000000" font-family="sans-serif" font-size="18" lengthAdjust="spacing" textLength="134" x="151" y="324.3906">Fetch Metadata</text></g><!--link n1 to oni--><g id="link_n1_oni"><path d="M266.75,274.2983 C275.91,282.9283 285.14,293.8383 290,305.9883 C293.79,315.4783 293.89,319.5383 290,328.9883 C285.62,339.6483 277.7,349.2383 269.49,357.0683 " fill="none" id="n1-to-oni-1" style="stroke:#181818;stroke-width:1.0;"/><polygon fill="#181818" points="266.04,360.2183,275.3872,357.115,269.7365,356.8514,270.0001,351.2006,266.04,360.2183" style="stroke:#181818;stroke-width:1.0;"/><text fill="#000000" font-family="sans-serif" font-size="18" lengthAdjust="spacing" textLength="166" x="293" y="324.3906">Fetch data streams</text></g><!--link oni to ac--><g id="link_oni_ac"><path d="M264.9,379.4883 C316.4,379.4883 439.82,379.4883 521.9,379.4883 " fill="none" id="oni-to-ac" style="stroke:#181818;stroke-width:1.0;"/><polygon fill="#181818" points="526.72,379.4883,517.72,375.4883,521.72,379.4883,517.72,383.4883,526.72,379.4883" style="stroke:#181818;stroke-width:1.0;"/><text fill="#000000" font-family="sans-serif" font-size="18" lengthAdjust="spacing" textLength="227" x="283" y="371.8906">Authenticate each request</text></g><!--reverse link oni to repo--><g id="link_oni_repo"><path d="M211.43,394.1183 C177.78,411.4583 124.58,444.9283 102,491.9883 C78.75,540.4483 136.72,581.8983 184.77,606.6083 " fill="none" id="oni-backto-repo" style="stroke:#181818;stroke-width:1.0;"/><polygon fill="#181818" points="215.71,391.9483,205.8737,392.4458,211.2494,394.2072,209.488,399.5828,215.71,391.9483" style="stroke:#181818;stroke-width:1.0;"/><text fill="#000000" font-family="sans-serif" font-size="18" lengthAdjust="spacing" textLength="231" x="103" y="510.3906">Index  (w/ access licenses)</text></g><!--link oni to repo--><g id="link_oni_repo"><path d="M264.79,394.9483 C299.28,417.9383 357.17,465.3383 339,514.9883 C326.31,549.6583 298.18,581.1083 275.3,602.4883 " fill="none" id="oni-to-repo" style="stroke:#181818;stroke-width:1.0;"/><polygon fill="#181818" points="271.62,605.8683,280.9606,602.7452,275.3093,602.4935,275.561,596.8423,271.62,605.8683" style="stroke:#181818;stroke-width:1.0;"/><text fill="#000000" font-family="sans-serif" font-size="18" lengthAdjust="spacing" textLength="47" x="343" y="510.3906">Fetch</text></g><!--SRC=[VP7RIWCn48RlynH3h_HYaNebYmYBi53mi6XzW6bsQaFJf6PcQQlqtPtDRa4Kcwj9_c_-EOJNBcmnuGPQMcBdfOv1NjqdmVJ6Y1DF9LJpge4gsPKJij8bCYPfWE7T4qpcj1Ue0lg3EClGU9HbJ9i980CARk7h9_qKXHOnhc6QWJ1LsHpDEUHQ4T2ZsD6qQhb0Lkpvldw05zf6TXBJ8RD9hxtXByUgcMKv1lUtN6KjCOFLkLFqGzjsn8n1g-RgouIw04fzwYc6eesxKDprKvJmfasTMZVwSXBxeYNK97O5ZoJOJm3_0LbaIOGRDhsWkdQZVz39Ye9k68M0KD547nsnPEgs6CoAOGCbp49BUu2BtPMcv_cyinIO-7Am7MkFU2x-3G00]--></g></svg>