<?xml version="1.0" encoding="UTF-8" standalone="no"?><svg xmlns="http://www.w3.org/2000/svg" xmlns:xlink="http://www.w3.org/1999/xlink" contentStyleType="text/css" height="996px" preserveAspectRatio="none" style="width:1019px;height:996px;background:#FFFFFF;" version="1.1" viewBox="0 0 1019 996" width="1019px" zoomAndPan="magnify"><defs/><g><!--cluster RO-Crate Profile (this document)--><g id="cluster_RO-Crate Profile (this document)"><rect fill="none" height="106" rx="2.5" ry="2.5" style="stroke:#181818;stroke-width:1.0;" width="257" x="756.5138" y="64.26"/><text fill="#000000" font-family="sans-serif" font-size="14" font-weight="bold" lengthAdjust="spacing" textLength="241" x="764.5138" y="79.7952">RO-Crate Profile (this document)</text></g><!--cluster c1--><g id="cluster_c1"><rect fill="none" height="122" rx="2.5" ry="2.5" style="stroke:#181818;stroke-width:1.0;" width="263" x="383.5138" y="56.26"/><text fill="#000000" font-family="sans-serif" font-size="14" font-weight="bold" lengthAdjust="spacing" textLength="95" x="467.5138" y="71.7952">Conversation</text></g><!--cluster audio1--><g id="cluster_audio1"><rect fill="none" height="205" rx="2.5" ry="2.5" style="stroke:#181818;stroke-width:1.0;" width="315" x="17.5138" y="245.26"/><text fill="#000000" font-family="sans-serif" font-size="14" font-weight="bold" lengthAdjust="spacing" textLength="73" x="138.5138" y="260.7952">Audio File</text></g><!--cluster pdf1--><g id="cluster_pdf1"><rect fill="none" height="205" rx="2.5" ry="2.5" style="stroke:#181818;stroke-width:1.0;" width="305" x="143.5138" y="515.26"/><text fill="#000000" font-family="sans-serif" font-size="14" font-weight="bold" lengthAdjust="spacing" textLength="59" x="266.5138" y="530.7952">PDF File</text></g><!--cluster csv1--><g id="cluster_csv1"><rect fill="none" height="205" rx="2.5" ry="2.5" style="stroke:#181818;stroke-width:1.0;" width="347" x="143.5138" y="785.26"/><text fill="#000000" font-family="sans-serif" font-size="14" font-weight="bold" lengthAdjust="spacing" textLength="59" x="287.5138" y="800.7952">CSV File</text></g><!--entity procoll--><g id="elem_procoll"><rect fill="#F1F1F1" height="36.4883" rx="2.5" ry="2.5" style="stroke:#181818;stroke-width:0.5;" width="106" x="773.5138" y="118.26"/><text fill="#000000" font-family="sans-serif" font-size="14" lengthAdjust="spacing" textLength="13" x="783.5138" y="141.7952">1.</text><text fill="#000000" font-family="sans-serif" font-size="14" lengthAdjust="spacing" textLength="69" x="800.5138" y="141.7952">Collection</text></g><!--entity proobj--><g id="elem_proobj"><rect fill="#F1F1F1" height="36.4883" rx="2.5" ry="2.5" style="stroke:#181818;stroke-width:0.5;" width="81" x="915.0138" y="118.26"/><text fill="#000000" font-family="sans-serif" font-size="14" lengthAdjust="spacing" textLength="13" x="925.0138" y="141.7952">1.</text><text fill="#000000" font-family="sans-serif" font-size="14" lengthAdjust="spacing" textLength="44" x="942.0138" y="141.7952">Object</text></g><!--entity @type: [RepositoryObject]--><g id="elem_@type: [RepositoryObject]"><rect fill="#F1F1F1" height="36.4883" rx="2.5" ry="2.5" style="stroke:#181818;stroke-width:0.5;" width="196" x="426.5138" y="118.26"/><text fill="#000000" font-family="sans-serif" font-size="14" lengthAdjust="spacing" textLength="176" x="436.5138" y="141.7952">@type: [RepositoryObject]</text></g><!--entity @id: [file.wav]\n@type: [File, PrimaryText]\nmodality: [Speech]\ncommunicationGenre: [Interview]\nresourceType: [PrimaryText]\nencodingFormat: [audio/x-wav]--><g id="elem_@id: [file.wav]\n@type: [File, PrimaryText]\nmodality: [Speech]\ncommunicationGenre: [Interview]\nresourceType: [PrimaryText]\nencodingFormat: [audio/x-wav]"><rect fill="#F1F1F1" height="118.9297" rx="2.5" ry="2.5" style="stroke:#181818;stroke-width:0.5;" width="247" x="61.0138" y="307.26"/><text fill="#000000" font-family="sans-serif" font-size="14" lengthAdjust="spacing" textLength="94" x="71.0138" y="330.7952">@id: [file.wav]</text><text fill="#000000" font-family="sans-serif" font-size="14" lengthAdjust="spacing" textLength="174" x="71.0138" y="347.2834">@type: [File, PrimaryText]</text><text fill="#000000" font-family="sans-serif" font-size="14" lengthAdjust="spacing" textLength="126" x="71.0138" y="363.7717">modality: [Speech]</text><text fill="#000000" font-family="sans-serif" font-size="14" lengthAdjust="spacing" textLength="227" x="71.0138" y="380.26">communicationGenre: [Interview]</text><text fill="#000000" font-family="sans-serif" font-size="14" lengthAdjust="spacing" textLength="194" x="71.0138" y="396.7483">resourceType: [PrimaryText]</text><text fill="#000000" font-family="sans-serif" font-size="14" lengthAdjust="spacing" textLength="220" x="71.0138" y="413.2366">encodingFormat: [audio/x-wav]</text></g><!--entity pt--><g id="elem_pt"><rect fill="#F1F1F1" height="118.9297" rx="2.5" ry="2.5" style="stroke:#181818;stroke-width:0.5;" width="238" x="186.5138" y="577.26"/><text fill="#000000" font-family="sans-serif" font-size="14" lengthAdjust="spacing" textLength="91" x="196.5138" y="600.7952">@id: [file.pdf]</text><text fill="#000000" font-family="sans-serif" font-size="14" lengthAdjust="spacing" textLength="168" x="196.5138" y="617.2834">@type: [File, Annotation]</text><text fill="#000000" font-family="sans-serif" font-size="14" lengthAdjust="spacing" textLength="218" x="196.5138" y="633.7717">annotationType: [Transcription]</text><text fill="#000000" font-family="sans-serif" font-size="14" lengthAdjust="spacing" textLength="165" x="196.5138" y="650.26">modality: [Orthography]</text><text fill="#000000" font-family="sans-serif" font-size="14" lengthAdjust="spacing" textLength="194" x="196.5138" y="666.7483">resourceType: [DerivedText]</text><text fill="#000000" font-family="sans-serif" font-size="14" lengthAdjust="spacing" textLength="188" x="196.5138" y="683.2366">encodingFormat: [text/pdf]</text></g><!--entity @id: [file.csv]\n@type: [File, Annotation, DerivedText]\nannotationType: [Transcription]\nmodality: [Orthography]\nresourceType: [DerivedText]\nencodingFormat: [text/csv]--><g id="elem_@id: [file.csv]\n@type: [File, Annotation, DerivedText]\nannotationType: [Transcription]\nmodality: [Orthography]\nresourceType: [DerivedText]\nencodingFormat: [text/csv]"><rect fill="#F1F1F1" height="118.9297" rx="2.5" ry="2.5" style="stroke:#181818;stroke-width:0.5;" width="279" x="187.0138" y="847.26"/><text fill="#000000" font-family="sans-serif" font-size="14" lengthAdjust="spacing" textLength="89" x="197.0138" y="870.7952">@id: [file.csv]</text><text fill="#000000" font-family="sans-serif" font-size="14" lengthAdjust="spacing" textLength="259" x="197.0138" y="887.2834">@type: [File, Annotation, DerivedText]</text><text fill="#000000" font-family="sans-serif" font-size="14" lengthAdjust="spacing" textLength="218" x="197.0138" y="903.7717">annotationType: [Transcription]</text><text fill="#000000" font-family="sans-serif" font-size="14" lengthAdjust="spacing" textLength="165" x="197.0138" y="920.26">modality: [Orthography]</text><text fill="#000000" font-family="sans-serif" font-size="14" lengthAdjust="spacing" textLength="194" x="197.0138" y="936.7483">resourceType: [DerivedText]</text><text fill="#000000" font-family="sans-serif" font-size="14" lengthAdjust="spacing" textLength="186" x="197.0138" y="953.2366">encodingFormat: [text/csv]</text></g><!--entity s1--><g id="elem_s1"><ellipse cx="251.5138" cy="106.76" fill="#F1F1F1" rx="8" ry="8" style="stroke:#181818;stroke-width:0.5;"/><path d="M251.5138,114.76 L251.5138,141.76 M238.5138,122.76 L264.5138,122.76 M251.5138,141.76 L238.5138,156.76 M251.5138,141.76 L264.5138,156.76 " fill="none" style="stroke:#181818;stroke-width:0.5;"/><text fill="#000000" font-family="sans-serif" font-size="14" lengthAdjust="spacing" textLength="68" x="217.5138" y="171.7952">Speaker 1</text></g><!--entity s2--><g id="elem_s2"><ellipse cx="704.5138" cy="106.76" fill="#F1F1F1" rx="8" ry="8" style="stroke:#181818;stroke-width:0.5;"/><path d="M704.5138,114.76 L704.5138,141.76 M691.5138,122.76 L717.5138,122.76 M704.5138,141.76 L691.5138,156.76 M704.5138,141.76 L717.5138,156.76 " fill="none" style="stroke:#181818;stroke-width:0.5;"/><text fill="#000000" font-family="sans-serif" font-size="14" lengthAdjust="spacing" textLength="68" x="670.5138" y="171.7952">Speaker 2</text></g><!--link c1 to pdf1--><g id="link_c1_pdf1"><path d="M396.2459,179.1593 C396.3023,179.8934 396.358,180.6353 396.4131,181.3849 C396.5231,182.8839 396.6302,184.4134 396.7339,185.9722 C396.9411,189.0897 397.1342,192.3241 397.3079,195.6655 C397.6553,202.3484 397.9251,209.4593 398.0751,216.9192 C398.3752,231.8389 398.1963,248.1544 397.2013,265.2325 C393.2213,333.545 376.1838,414.06 324.5138,466.26 C321.4338,469.37 173.4938,496.06 170.5138,499.26 C167.9475,502.02 165.6251,504.9571 163.5263,508.039 C162.4769,509.5799 161.4834,511.1571 160.5432,512.7664 C160.0732,513.5711 159.6164,514.3838 159.1727,515.2041 " fill="none" id="c1-to-pdf1" style="stroke:#181818;stroke-width:1.0;"/><polygon fill="#181818" points="159.1727,515.2041,166.9731,509.1912,161.5517,510.8063,159.9367,505.3849,159.1727,515.2041" style="stroke:#181818;stroke-width:1.0;"/><text fill="#000000" font-family="sans-serif" font-size="13" lengthAdjust="spacing" textLength="46" x="398.5138" y="371.8284">hasPart</text></g><!--reverse link audio1 to pdf1--><g id="link_audio1_pdf1"><path d="M34.873,450.4383 C35.1601,451.0682 35.4545,451.6942 35.7563,452.316 C38.1708,457.2905 41.0613,461.9962 44.5138,466.26 C56.3538,480.89 110.5338,484.74 122.5138,499.26 C132.2288,511.0325 138.9188,525.2775 143.4842,540.0652 " fill="none" id="audio1-backto-pdf1" style="stroke:#181818;stroke-width:1.0;"/><polygon fill="#181818" points="34.873,450.4383,34.9662,460.2867,36.9468,454.988,42.2456,456.9686,34.873,450.4383" style="stroke:#181818;stroke-width:1.0;"/><text fill="#000000" font-family="sans-serif" font-size="13" lengthAdjust="spacing" textLength="83" x="110.5138" y="487.8284">annotationOf</text></g><!--link c1 to audio1--><g id="link_c1_audio1"><path d="M383.4185,144.3051 C383.1175,144.5582 382.8089,144.8168 382.493,145.0806 C377.4385,149.3019 370.5056,154.8675 362.3325,160.8475 C345.9863,172.8075 324.6788,186.425 303.5138,194.26 C249.0438,214.42 85.6638,188.27 44.5138,229.26 C41.8438,231.9194 39.4304,234.7682 37.2521,237.7731 C36.163,239.2756 35.1326,240.817 34.1584,242.3933 C33.6713,243.1815 33.1982,243.9784 32.7387,244.7834 " fill="none" id="c1-to-audio1" style="stroke:#181818;stroke-width:1.0;"/><polygon fill="#181818" points="32.7387,244.7834,40.6736,238.9492,35.2169,240.4408,33.7253,234.9841,32.7387,244.7834" style="stroke:#181818;stroke-width:1.0;"/><text fill="#000000" font-family="sans-serif" font-size="13" lengthAdjust="spacing" textLength="46" x="157.5138" y="217.8284">hasPart</text></g><!--link c1 to csv1--><g id="link_c1_csv1"><path d="M401.9585,178.4993 C402.039,178.691 402.1201,178.8825 402.2017,179.0739 C402.5284,179.8394 402.8645,180.6019 403.2101,181.3603 C403.9012,182.8769 404.6306,184.3766 405.4002,185.8485 C406.9392,188.7923 408.6388,191.625 410.5138,194.26 C414.7438,200.2 417.8238,199.7 423.5138,204.26 C437.0638,215.11 446.1538,213.54 453.5138,229.26 C549.1238,433.39 593.7638,570.96 440.5138,736.26 C409.9138,769.27 284.2038,755.89 239.5138,761.26 C224.1838,763.1 181.5538,758.47 170.5138,769.26 C167.8188,771.8938 165.3835,774.7201 163.1861,777.7053 C162.0874,779.1979 161.0482,780.7303 160.0657,782.2982 C159.5745,783.0821 159.0975,783.8749 158.6343,784.6761 " fill="none" id="c1-to-csv1" style="stroke:#181818;stroke-width:1.0;"/><polygon fill="#181818" points="158.6343,784.6761,166.6018,778.8865,161.1368,780.3474,159.6759,774.8825,158.6343,784.6761" style="stroke:#181818;stroke-width:1.0;"/><text fill="#000000" font-family="sans-serif" font-size="13" lengthAdjust="spacing" textLength="46" x="540.5138" y="487.8284">hasPart</text></g><!--reverse link audio1 to csv1--><g id="link_audio1_csv1"><path d="M20.2667,450.942 C20.2523,451.4263 20.238,451.9122 20.224,452.3997 C20.1679,454.3495 20.1153,456.3241 20.0666,458.3226 C19.9691,462.3196 19.887,466.4121 19.8232,470.5923 C19.6954,478.9527 19.6406,487.6639 19.6813,496.6638 C20.0063,568.6625 26.4388,659.135 50.5138,736.26 C63.3738,777.46 88.0413,819.165 109.7788,850.8975 C120.6475,866.7637 130.7838,880.1369 138.3453,889.7072 C140.2357,892.0998 141.9652,894.2547 143.505,896.1514 " fill="none" id="audio1-backto-csv1" style="stroke:#181818;stroke-width:1.0;"/><polygon fill="#181818" points="20.2667,450.942,16,459.8186,20.1176,455.9397,23.9964,460.0573,20.2667,450.942" style="stroke:#181818;stroke-width:1.0;"/><text fill="#000000" font-family="sans-serif" font-size="13" lengthAdjust="spacing" textLength="83" x="51.5138" y="641.8284">annotationOf</text></g><!--reverse link pdf1 to csv1--><g id="link_pdf1_csv1"><path d="M151.5138,720.4095 C151.5138,721.3696 151.5138,722.3339 151.5138,723.3021 C151.5138,738.7929 151.5138,755.2822 151.5138,771.7713 C151.5138,775.8935 151.5138,780.0158 151.5138,784.1224 C151.5138,784.3791 151.5138,784.6357 151.5138,784.8922 " fill="none" id="pdf1-backto-csv1" style="stroke:#181818;stroke-width:1.0;"/><polygon fill="#181818" points="151.5138,720.4095,147.5138,729.4095,151.5138,725.4095,155.5138,729.4095,151.5138,720.4095" style="stroke:#181818;stroke-width:1.0;"/><text fill="#000000" font-family="sans-serif" font-size="13" lengthAdjust="spacing" textLength="78" x="152.5138" y="757.8284">derivedFrom</text></g><!--reverse link s1 to c1--><g id="link_s1_c1"><path d="M291.8238,136.26 C311.1488,136.26 334.1763,136.26 353.2288,136.26 C362.755,136.26 371.2875,136.26 377.8666,136.26 C379.5113,136.26 381.034,136.26 382.4196,136.26 C382.766,136.26 383.1038,136.26 383.4329,136.26 " fill="none" id="s1-backto-c1" style="stroke:#181818;stroke-width:1.0;"/><polygon fill="#181818" points="287.2738,136.26,296.2738,140.26,292.2738,136.26,296.2738,132.26,287.2738,136.26" style="stroke:#181818;stroke-width:1.0;"/><text fill="#000000" font-family="sans-serif" font-size="13" lengthAdjust="spacing" textLength="69" x="303.8338" y="129.8284">interviewer</text></g><!--link c1 to s2--><g id="link_c1_s2"><path d="M397.9886,55.9769 C398.0617,55.8387 398.1353,55.7009 398.2095,55.5635 C398.3578,55.2885 398.5081,55.0148 398.6606,54.7425 C399.2704,53.6532 399.9137,52.5851 400.592,51.541 C403.3052,47.3647 406.5788,43.5725 410.5138,40.34 C449.6638,8.19 593.6638,16.76 638.5138,40.34 C659.5238,51.39 675.1438,72.48 685.8938,92.07 " fill="none" id="c1-to-s2" style="stroke:#181818;stroke-width:1.0;"/><polygon fill="#181818" points="688.2338,96.49,687.5608,86.6642,685.8956,92.0704,680.4894,90.4052,688.2338,96.49" style="stroke:#181818;stroke-width:1.0;"/><text fill="#000000" font-family="sans-serif" font-size="13" lengthAdjust="spacing" textLength="71" x="484.0138" y="28.8284">interviewee</text></g><!--link c1 to proobj--><g id="link_c1_proobj"><path d="M397.9886,55.9769 C398.0617,55.8387 398.1353,55.7009 398.2095,55.5635 C398.3578,55.2885 398.5081,55.0148 398.6606,54.7425 C399.2704,53.6532 399.9137,52.5851 400.592,51.541 C403.3052,47.3647 406.5788,43.5725 410.5138,40.34 C452.3238,6 850.3838,13.76 897.5138,40.34 C924.4338,55.52 940.2738,88.78 948.4238,111.85 " fill="none" id="c1-to-proobj" style="stroke:#181818;stroke-width:1.0;"/><polygon fill="#181818" points="949.9438,116.33,950.8215,106.5203,948.3284,111.5981,943.2505,109.105,949.9438,116.33" style="stroke:#181818;stroke-width:1.0;"/><text fill="#000000" font-family="sans-serif" font-size="13" lengthAdjust="spacing" textLength="76" x="746.5138" y="28.8284">conformsTo</text></g><!--SRC=[lPD1Rzim38Nl-XL4Tjc0PaLopA5OaIB3JWdQO9Uj1rMcOtMsQ52oKsFOVnybEucDOZdkI3xo-NsIh4qWXjbJZVeNCYnce3tuXTBJ_hBlBvLYD46xGuamUzpErwm3meufjzBv60hh8IFJLEZ2fndy7ez_M5DPIcd99RUQoKXdCh9zUPNg9DFBg_ep-UIQN8lizTd4BEGZ2XICXhw4hiOL_7Z4chmLZgwtVPw14h_Hv7sJMOADP4zcEfRH463YPpDnYuIVZxfz_kbE7uYBDq9lAytT7j-2Q1LbkhIX4raE3qqXFKDLrJXhKkolw3WkVtC1kRLub056JmqRtFU-KqUK_SowmuQuqa7a5FFsRHx3HAGfq-vXSo6gi_mgZ-ZlUEwTev2YYgJFnP1jpzfvmxOU1aQyMmu57LZNHVUUwG7PjfZzYob8_pQcwME7T5EJct_wVi4olhsA9VeLh1kOXlclZ36QN9h0oTETPtHqyxl-cbPGQB_J79HAzRofHHhUv0ekARVvUFSySDeUQUcSHaeihzfU1eP8MO-qOQhwn2NcGMGVHNjwmiX9OtieahYSY9Z4EnX-wHKOShaSYj-JKdy1]--></g></svg>