<?xml version="1.0" encoding="UTF-8" standalone="no"?><svg xmlns="http://www.w3.org/2000/svg" xmlns:xlink="http://www.w3.org/1999/xlink" contentStyleType="text/css" height="710px" preserveAspectRatio="none" style="width:859px;height:710px;background:#FFFFFF;" version="1.1" viewBox="0 0 859 710" width="859px" zoomAndPan="magnify"><defs/><g><text fill="#000000" font-family="sans-serif" font-size="14" font-weight="bold" lengthAdjust="spacing" textLength="202" x="327" y="33.5352">LDaCA Persistent IDs (PIDs)</text><ellipse cx="523.25" cy="57.4883" fill="#222222" rx="10" ry="10" style="stroke:#222222;stroke-width:1.0;"/><polygon fill="#F1F1F1" points="433.25,87.4883,613.25,87.4883,625.25,99.4883,613.25,111.4883,433.25,111.4883,421.25,99.4883,433.25,87.4883" style="stroke:#181818;stroke-width:0.5;"/><text fill="#000000" font-family="sans-serif" font-size="11" lengthAdjust="spacing" textLength="180" x="433.25" y="103.6455">Data has a custodial Organization</text><text fill="#000000" font-family="sans-serif" font-size="11" lengthAdjust="spacing" textLength="18" x="403.25" y="97.168">yes</text><text fill="#000000" font-family="sans-serif" font-size="11" lengthAdjust="spacing" textLength="14" x="625.25" y="97.168">no</text><polygon fill="#F1F1F1" points="162.5,121.4883,337.5,121.4883,349.5,133.4883,337.5,145.4883,162.5,145.4883,150.5,133.4883,162.5,121.4883" style="stroke:#181818;stroke-width:0.5;"/><text fill="#000000" font-family="sans-serif" font-size="11" lengthAdjust="spacing" textLength="175" x="162.5" y="137.6455">Org has PID policy &amp; governance</text><text fill="#000000" font-family="sans-serif" font-size="11" lengthAdjust="spacing" textLength="18" x="132.5" y="131.168">yes</text><text fill="#000000" font-family="sans-serif" font-size="11" lengthAdjust="spacing" textLength="14" x="349.5" y="131.168">no</text><rect fill="#F1F1F1" height="34.1328" rx="12.5" ry="12.5" style="stroke:#181818;stroke-width:0.5;" width="126" x="11" y="155.4883"/><text fill="#000000" font-family="sans-serif" font-size="12" lengthAdjust="spacing" textLength="106" x="21" y="177.0898">Use existing policy</text><ellipse cx="74" cy="235.6211" fill="none" rx="11" ry="11" style="stroke:#222222;stroke-width:1.0;"/><ellipse cx="74" cy="235.6211" fill="#222222" rx="6" ry="6" style="stroke:#111111;stroke-width:1.0;"/><rect fill="#F1F1F1" height="34.1328" rx="12.5" ry="12.5" style="stroke:#181818;stroke-width:0.5;" width="133" x="359.5" y="155.4883"/><text fill="#000000" font-family="sans-serif" font-size="12" lengthAdjust="spacing" textLength="113" x="369.5" y="177.0898">Use LDaCA defaults</text><rect fill="#F1F1F1" height="34.1328" rx="12.5" ry="12.5" style="stroke:#181818;stroke-width:0.5;" width="348" x="252" y="224.6211"/><text fill="#000000" font-family="sans-serif" font-size="12" lengthAdjust="spacing" textLength="328" x="262" y="246.2227">ARCP IDs for context, demographics, collectionEvents etc</text><polygon fill="#F1F1F1" points="357.5,334.8887,494.5,334.8887,506.5,346.8887,494.5,358.8887,357.5,358.8887,345.5,346.8887,357.5,334.8887" style="stroke:#181818;stroke-width:0.5;"/><text fill="#000000" font-family="sans-serif" font-size="11" lengthAdjust="spacing" textLength="137" x="357.5" y="351.0459">Content has existing PIDs</text><text fill="#000000" font-family="sans-serif" font-size="11" lengthAdjust="spacing" textLength="18" x="327.5" y="344.5684">yes</text><text fill="#000000" font-family="sans-serif" font-size="11" lengthAdjust="spacing" textLength="14" x="506.5" y="344.5684">no</text><rect fill="#F1F1F1" height="34.1328" rx="12.5" ry="12.5" style="stroke:#181818;stroke-width:0.5;" width="121" x="260.5" y="368.8887"/><text fill="#000000" font-family="sans-serif" font-size="12" lengthAdjust="spacing" textLength="101" x="270.5" y="390.4902">Use exisiting PIDs</text><rect fill="#F1F1F1" height="34.1328" rx="12.5" ry="12.5" style="stroke:#181818;stroke-width:0.5;" width="259" x="401.5" y="368.8887"/><text fill="#000000" font-family="sans-serif" font-size="12" lengthAdjust="spacing" textLength="239" x="411.5" y="390.4902">ARCP IDs for collections, objects and files</text><polygon fill="#F1F1F1" points="426,409.0215,438,421.0215,426,433.0215,414,421.0215,426,409.0215" style="stroke:#181818;stroke-width:0.5;"/><polygon fill="#F1F1F1" points="272,278.7539,580,278.7539,592,290.7539,580,302.7539,272,302.7539,260,290.7539,272,278.7539" style="stroke:#181818;stroke-width:0.5;"/><text fill="#000000" font-family="sans-serif" font-size="11" lengthAdjust="spacing" textLength="14" x="430" y="313.3887">no</text><text fill="#000000" font-family="sans-serif" font-size="11" lengthAdjust="spacing" textLength="308" x="272" y="294.9111">Can Identify responsible party within ORG to manage PIDs</text><text fill="#000000" font-family="sans-serif" font-size="11" lengthAdjust="spacing" textLength="18" x="242" y="288.4336">yes</text><polygon fill="#F1F1F1" points="384.5,475.0215,467.5,475.0215,479.5,487.0215,467.5,499.0215,384.5,499.0215,372.5,487.0215,384.5,475.0215" style="stroke:#181818;stroke-width:0.5;"/><text fill="#000000" font-family="sans-serif" font-size="11" lengthAdjust="spacing" textLength="83" x="384.5" y="491.1787">Type of deposit</text><rect fill="#F1F1F1" height="34.1328" rx="12.5" ry="12.5" style="stroke:#181818;stroke-width:0.5;" width="180" x="163" y="534.9316"/><text fill="#000000" font-family="sans-serif" font-size="12" lengthAdjust="spacing" textLength="160" x="173" y="556.5332">DOI at study/collection level</text><rect fill="#F1F1F1" height="34.1328" rx="12.5" ry="12.5" style="stroke:#181818;stroke-width:0.5;" width="192" x="157" y="589.0645"/><text fill="#000000" font-family="sans-serif" font-size="12" lengthAdjust="spacing" textLength="172" x="167" y="610.666">ARCP IDs for objects and files</text><rect fill="#F1F1F1" height="34.1328" rx="12.5" ry="12.5" style="stroke:#181818;stroke-width:0.5;" width="126" x="467" y="534.9316"/><text fill="#000000" font-family="sans-serif" font-size="12" lengthAdjust="spacing" textLength="106" x="477" y="556.5332">DOI at object level</text><rect fill="#F1F1F1" height="34.1328" rx="12.5" ry="12.5" style="stroke:#181818;stroke-width:0.5;" width="120" x="470" y="589.0645"/><text fill="#000000" font-family="sans-serif" font-size="12" lengthAdjust="spacing" textLength="100" x="480" y="610.666">ARCP IDs for files</text><polygon fill="#F1F1F1" points="426,633.1973,426,633.1973,438,645.1973,426,657.1973,426,657.1973,414,645.1973,426,633.1973" style="stroke:#181818;stroke-width:0.5;"/><rect fill="#F1F1F1" height="34.1328" rx="12.5" ry="12.5" style="stroke:#181818;stroke-width:0.5;" width="143" x="705" y="121.4883"/><text fill="#000000" font-family="sans-serif" font-size="12" lengthAdjust="spacing" textLength="123" x="715" y="143.0898">Continue negotiations</text><ellipse cx="776.5" cy="201.6211" fill="none" rx="11" ry="11" style="stroke:#222222;stroke-width:1.0;"/><ellipse cx="776.5" cy="201.6211" fill="#222222" rx="6" ry="6" style="stroke:#111111;stroke-width:1.0;"/><ellipse cx="523.25" cy="688.1973" fill="none" rx="11" ry="11" style="stroke:#222222;stroke-width:1.0;"/><ellipse cx="523.25" cy="688.1973" fill="#222222" rx="6" ry="6" style="stroke:#111111;stroke-width:1.0;"/><line style="stroke:#181818;stroke-width:1.0;" x1="74" x2="74" y1="189.6211" y2="224.6211"/><polygon fill="#181818" points="70,214.6211,74,224.6211,78,214.6211,74,218.6211" style="stroke:#181818;stroke-width:1.0;"/><line style="stroke:#181818;stroke-width:1.0;" x1="426" x2="426" y1="189.6211" y2="224.6211"/><polygon fill="#181818" points="422,214.6211,426,224.6211,430,214.6211,426,218.6211" style="stroke:#181818;stroke-width:1.0;"/><line style="stroke:#181818;stroke-width:1.0;" x1="345.5" x2="321" y1="346.8887" y2="346.8887"/><line style="stroke:#181818;stroke-width:1.0;" x1="321" x2="321" y1="346.8887" y2="368.8887"/><polygon fill="#181818" points="317,358.8887,321,368.8887,325,358.8887,321,362.8887" style="stroke:#181818;stroke-width:1.0;"/><line style="stroke:#181818;stroke-width:1.0;" x1="506.5" x2="531" y1="346.8887" y2="346.8887"/><line style="stroke:#181818;stroke-width:1.0;" x1="531" x2="531" y1="346.8887" y2="368.8887"/><polygon fill="#181818" points="527,358.8887,531,368.8887,535,358.8887,531,362.8887" style="stroke:#181818;stroke-width:1.0;"/><line style="stroke:#181818;stroke-width:1.0;" x1="321" x2="321" y1="403.0215" y2="421.0215"/><line style="stroke:#181818;stroke-width:1.0;" x1="321" x2="414" y1="421.0215" y2="421.0215"/><polygon fill="#181818" points="404,417.0215,414,421.0215,404,425.0215,408,421.0215" style="stroke:#181818;stroke-width:1.0;"/><line style="stroke:#181818;stroke-width:1.0;" x1="531" x2="531" y1="403.0215" y2="421.0215"/><line style="stroke:#181818;stroke-width:1.0;" x1="531" x2="438" y1="421.0215" y2="421.0215"/><polygon fill="#181818" points="448,417.0215,438,421.0215,448,425.0215,444,421.0215" style="stroke:#181818;stroke-width:1.0;"/><line style="stroke:#181818;stroke-width:1.0;" x1="426" x2="426" y1="302.7539" y2="334.8887"/><polygon fill="#181818" points="422,324.8887,426,334.8887,430,324.8887,426,328.8887" style="stroke:#181818;stroke-width:1.0;"/><line style="stroke:#181818;stroke-width:1.0;" x1="426" x2="426" y1="433.0215" y2="443.0215"/><line style="stroke:#181818;stroke-width:1.0;" x1="426" x2="682.5" y1="443.0215" y2="443.0215"/><polygon fill="#181818" points="678.5,375.4775,682.5,365.4775,686.5,375.4775,682.5,371.4775" style="stroke:#181818;stroke-width:1.0;"/><line style="stroke:#181818;stroke-width:1.0;" x1="682.5" x2="682.5" y1="290.7539" y2="443.0215"/><line style="stroke:#181818;stroke-width:1.0;" x1="682.5" x2="592" y1="290.7539" y2="290.7539"/><polygon fill="#181818" points="602,286.7539,592,290.7539,602,294.7539,598,290.7539" style="stroke:#181818;stroke-width:1.0;"/><line style="stroke:#181818;stroke-width:1.0;" x1="260" x2="238.5" y1="290.7539" y2="290.7539"/><polygon fill="#181818" points="234.5,361.4775,238.5,371.4775,242.5,361.4775,238.5,365.4775" style="stroke:#181818;stroke-width:1.0;"/><line style="stroke:#181818;stroke-width:1.0;" x1="238.5" x2="238.5" y1="290.7539" y2="455.0215"/><line style="stroke:#181818;stroke-width:1.0;" x1="238.5" x2="426" y1="455.0215" y2="455.0215"/><line style="stroke:#181818;stroke-width:1.0;" x1="426" x2="426" y1="455.0215" y2="475.0215"/><polygon fill="#181818" points="422,465.0215,426,475.0215,430,465.0215,426,469.0215" style="stroke:#181818;stroke-width:1.0;"/><line style="stroke:#181818;stroke-width:1.0;" x1="426" x2="426" y1="258.7539" y2="278.7539"/><polygon fill="#181818" points="422,268.7539,426,278.7539,430,268.7539,426,272.7539" style="stroke:#181818;stroke-width:1.0;"/><line style="stroke:#181818;stroke-width:1.0;" x1="253" x2="253" y1="569.0645" y2="589.0645"/><polygon fill="#181818" points="249,579.0645,253,589.0645,257,579.0645,253,583.0645" style="stroke:#181818;stroke-width:1.0;"/><line style="stroke:#181818;stroke-width:1.0;" x1="530" x2="530" y1="569.0645" y2="589.0645"/><polygon fill="#181818" points="526,579.0645,530,589.0645,534,579.0645,530,583.0645" style="stroke:#181818;stroke-width:1.0;"/><line style="stroke:#181818;stroke-width:1.0;" x1="372.5" x2="253" y1="487.0215" y2="487.0215"/><line style="stroke:#181818;stroke-width:1.0;" x1="253" x2="253" y1="487.0215" y2="534.9316"/><polygon fill="#181818" points="249,524.9316,253,534.9316,257,524.9316,253,528.9316" style="stroke:#181818;stroke-width:1.0;"/><text fill="#000000" font-family="sans-serif" font-size="11" lengthAdjust="spacing" textLength="188" x="256" y="515.1338">Completed speech study or corpus</text><line style="stroke:#181818;stroke-width:1.0;" x1="479.5" x2="530" y1="487.0215" y2="487.0215"/><line style="stroke:#181818;stroke-width:1.0;" x1="530" x2="530" y1="487.0215" y2="534.9316"/><polygon fill="#181818" points="526,524.9316,530,534.9316,534,524.9316,530,528.9316" style="stroke:#181818;stroke-width:1.0;"/><text fill="#000000" font-family="sans-serif" font-size="11" lengthAdjust="spacing" textLength="159" x="533" y="515.1338">Continuing deposit of objects</text><line style="stroke:#181818;stroke-width:1.0;" x1="253" x2="253" y1="623.1973" y2="645.1973"/><line style="stroke:#181818;stroke-width:1.0;" x1="253" x2="414" y1="645.1973" y2="645.1973"/><polygon fill="#181818" points="404,641.1973,414,645.1973,404,649.1973,408,645.1973" style="stroke:#181818;stroke-width:1.0;"/><line style="stroke:#181818;stroke-width:1.0;" x1="530" x2="530" y1="623.1973" y2="645.1973"/><line style="stroke:#181818;stroke-width:1.0;" x1="530" x2="438" y1="645.1973" y2="645.1973"/><polygon fill="#181818" points="448,641.1973,438,645.1973,448,649.1973,444,645.1973" style="stroke:#181818;stroke-width:1.0;"/><line style="stroke:#181818;stroke-width:1.0;" x1="150.5" x2="74" y1="133.4883" y2="133.4883"/><line style="stroke:#181818;stroke-width:1.0;" x1="74" x2="74" y1="133.4883" y2="155.4883"/><polygon fill="#181818" points="70,145.4883,74,155.4883,78,145.4883,74,149.4883" style="stroke:#181818;stroke-width:1.0;"/><line style="stroke:#181818;stroke-width:1.0;" x1="349.5" x2="426" y1="133.4883" y2="133.4883"/><line style="stroke:#181818;stroke-width:1.0;" x1="426" x2="426" y1="133.4883" y2="155.4883"/><polygon fill="#181818" points="422,145.4883,426,155.4883,430,145.4883,426,149.4883" style="stroke:#181818;stroke-width:1.0;"/><line style="stroke:#181818;stroke-width:1.0;" x1="426" x2="426" y1="657.1973" y2="662.1973"/><line style="stroke:#181818;stroke-width:1.0;" x1="426" x2="523.25" y1="662.1973" y2="662.1973"/><line style="stroke:#181818;stroke-width:1.0;" x1="523.25" x2="523.25" y1="662.1973" y2="677.1973"/><polygon fill="#181818" points="519.25,667.1973,523.25,677.1973,527.25,667.1973,523.25,671.1973" style="stroke:#181818;stroke-width:1.0;"/><line style="stroke:#181818;stroke-width:1.0;" x1="776.5" x2="776.5" y1="155.6211" y2="190.6211"/><polygon fill="#181818" points="772.5,180.6211,776.5,190.6211,780.5,180.6211,776.5,184.6211" style="stroke:#181818;stroke-width:1.0;"/><line style="stroke:#181818;stroke-width:1.0;" x1="421.25" x2="250" y1="99.4883" y2="99.4883"/><line style="stroke:#181818;stroke-width:1.0;" x1="250" x2="250" y1="99.4883" y2="121.4883"/><polygon fill="#181818" points="246,111.4883,250,121.4883,254,111.4883,250,115.4883" style="stroke:#181818;stroke-width:1.0;"/><line style="stroke:#181818;stroke-width:1.0;" x1="625.25" x2="776.5" y1="99.4883" y2="99.4883"/><line style="stroke:#181818;stroke-width:1.0;" x1="776.5" x2="776.5" y1="99.4883" y2="121.4883"/><polygon fill="#181818" points="772.5,111.4883,776.5,121.4883,780.5,111.4883,776.5,115.4883" style="stroke:#181818;stroke-width:1.0;"/><line style="stroke:#181818;stroke-width:1.0;" x1="523.25" x2="523.25" y1="67.4883" y2="87.4883"/><polygon fill="#181818" points="519.25,77.4883,523.25,87.4883,527.25,77.4883,523.25,81.4883" style="stroke:#181818;stroke-width:1.0;"/><!--SRC=[ZPFDRjim48JlV8ev5J8Ge7Vx5CX5OQ20ZQ1v08PQIIneaX1NJfIdxr8_Tgp-yY29vCvovYF4bXrjyMsloqUSg4isCNd6OPzGdEIvKIgnxbWfMwFOQzPeTOA6wHE7ocg7OzTeRzyrs-0tu9OyYe542GLabHIC8kc769mr0pwX2HVglFQ6xZNBs3ud0hs97-kRMRQxRSlXKMRafAhmOH6EgYbDHRNk7QT5j7ryAazZi3fqCC4plV63b9r3q-dOMfCUPDavCZd9bujmI20sIuFNrZevhDGUXqesRJsWenI3J_P5Tg9W6l1gkRKUnwUlu82pzheXZ2HXqqUhqyXyokn5e6T6ryIJv7Tare3ijNvtLxHcSrEkI2oH9Nzu-I7VSh- -GYrnrorzPMjrcyn8FlfB0i2qABuFaH1guHk3MBmtONIsXZASeoEc2YaIYIfnNmqOJNMnJ_ZL-lvuWEQfyFFDEXnToEt-dlGVuQwcv6fzdvdEtdECHRl1donD5VzbP7sua9omBKlvhTJ2- -uYjxC_WgSci1r_kwdP-4zC4gNcFlAbylfF]--></g></svg>