<?xml version="1.0" encoding="UTF-8" standalone="no"?><svg xmlns="http://www.w3.org/2000/svg" xmlns:xlink="http://www.w3.org/1999/xlink" contentStyleType="text/css" height="423px" preserveAspectRatio="none" style="width:646px;height:423px;background:#FFFFFF;" version="1.1" viewBox="0 0 646 423" width="646px" zoomAndPan="magnify"><defs/><g><text fill="#000000" font-family="sans-serif" font-size="14" font-weight="bold" lengthAdjust="spacing" textLength="130" x="256.75" y="33.5352">LDaCA data triage</text><ellipse cx="353.75" cy="57.4883" fill="#222222" rx="10" ry="10" style="stroke:#222222;stroke-width:1.0;"/><polygon fill="#F1F1F1" points="258.25,135.9658,449.25,135.9658,461.25,147.9658,449.25,159.9658,258.25,159.9658,246.25,147.9658,258.25,135.9658" style="stroke:#181818;stroke-width:0.5;"/><text fill="#000000" font-family="sans-serif" font-size="11" lengthAdjust="spacing" textLength="191" x="258.25" y="152.123">Service can be sustainably Managed</text><text fill="#000000" font-family="sans-serif" font-size="11" lengthAdjust="spacing" textLength="18" x="228.25" y="145.6455">yes</text><text fill="#000000" font-family="sans-serif" font-size="11" lengthAdjust="spacing" textLength="14" x="461.25" y="145.6455">no</text><polygon fill="#F1F1F1" points="89,169.9658,276,169.9658,288,181.9658,276,193.9658,89,193.9658,77,181.9658,89,169.9658" style="stroke:#181818;stroke-width:0.5;"/><text fill="#000000" font-family="sans-serif" font-size="11" lengthAdjust="spacing" textLength="187" x="89" y="186.123">Need Preservation or working copy</text><text fill="#000000" font-family="sans-serif" font-size="11" lengthAdjust="spacing" textLength="18" x="59" y="179.6455">yes</text><text fill="#000000" font-family="sans-serif" font-size="11" lengthAdjust="spacing" textLength="14" x="288" y="179.6455">no</text><rect fill="#F1F1F1" height="34.1328" rx="12.5" ry="12.5" style="stroke:#181818;stroke-width:0.5;" width="112" x="11" y="203.9658"/><text fill="#000000" font-family="sans-serif" font-size="12" lengthAdjust="spacing" textLength="92" x="21" y="225.5674">Create exporter</text><rect fill="#F1F1F1" height="34.1328" rx="12.5" ry="12.5" style="stroke:#181818;stroke-width:0.5;" width="231" x="182.5" y="203.9658"/><text fill="#000000" font-family="sans-serif" font-size="12" lengthAdjust="spacing" textLength="211" x="192.5" y="225.5674">Set up Harvester or other integration</text><ellipse cx="298" cy="269.0986" fill="none" rx="11" ry="11" style="stroke:#222222;stroke-width:1.0;"/><ellipse cx="298" cy="269.0986" fill="#222222" rx="6" ry="6" style="stroke:#111111;stroke-width:1.0;"/><rect fill="#F1F1F1" height="34.1328" rx="12.5" ry="12.5" style="stroke:#181818;stroke-width:0.5;" width="163" x="443.5" y="169.9658"/><text fill="#000000" font-family="sans-serif" font-size="12" lengthAdjust="spacing" textLength="143" x="453.5" y="191.5674">Migrate / transform data</text><polygon fill="#F1F1F1" points="353.75,290.0986,365.75,302.0986,353.75,314.0986,341.75,302.0986,353.75,290.0986" style="stroke:#181818;stroke-width:0.5;"/><polygon fill="#F1F1F1" points="277.75,87.4883,429.75,87.4883,441.75,99.4883,429.75,111.4883,277.75,111.4883,265.75,99.4883,277.75,87.4883" style="stroke:#181818;stroke-width:0.5;"/><text fill="#000000" font-family="sans-serif" font-size="11" lengthAdjust="spacing" textLength="18" x="357.75" y="122.123">yes</text><text fill="#000000" font-family="sans-serif" font-size="11" lengthAdjust="spacing" textLength="152" x="277.75" y="103.6455">Data is in an existing service</text><text fill="#000000" font-family="sans-serif" font-size="11" lengthAdjust="spacing" textLength="14" x="441.75" y="97.168">no</text><polygon fill="#F1F1F1" points="353.75,334.0986,365.75,346.0986,353.75,358.0986,341.75,346.0986,353.75,334.0986" style="stroke:#181818;stroke-width:0.5;"/><rect fill="#F1F1F1" height="34.1328" rx="12.5" ry="12.5" style="stroke:#181818;stroke-width:0.5;" width="134" x="286.75" y="378.0986"/><text fill="#000000" font-family="sans-serif" font-size="12" lengthAdjust="spacing" textLength="114" x="296.75" y="399.7002">Set up Arkisto Stack</text><line style="stroke:#181818;stroke-width:1.0;" x1="298" x2="298" y1="238.0986" y2="258.0986"/><polygon fill="#181818" points="294,248.0986,298,258.0986,302,248.0986,298,252.0986" style="stroke:#181818;stroke-width:1.0;"/><line style="stroke:#181818;stroke-width:1.0;" x1="77" x2="67" y1="181.9658" y2="181.9658"/><line style="stroke:#181818;stroke-width:1.0;" x1="67" x2="67" y1="181.9658" y2="203.9658"/><polygon fill="#181818" points="63,193.9658,67,203.9658,71,193.9658,67,197.9658" style="stroke:#181818;stroke-width:1.0;"/><line style="stroke:#181818;stroke-width:1.0;" x1="288" x2="298" y1="181.9658" y2="181.9658"/><line style="stroke:#181818;stroke-width:1.0;" x1="298" x2="298" y1="181.9658" y2="203.9658"/><polygon fill="#181818" points="294,193.9658,298,203.9658,302,193.9658,298,197.9658" style="stroke:#181818;stroke-width:1.0;"/><line style="stroke:#181818;stroke-width:1.0;" x1="67" x2="67" y1="238.0986" y2="302.0986"/><line style="stroke:#181818;stroke-width:1.0;" x1="67" x2="341.75" y1="302.0986" y2="302.0986"/><polygon fill="#181818" points="331.75,298.0986,341.75,302.0986,331.75,306.0986,335.75,302.0986" style="stroke:#181818;stroke-width:1.0;"/><line style="stroke:#181818;stroke-width:1.0;" x1="246.25" x2="182.5" y1="147.9658" y2="147.9658"/><line style="stroke:#181818;stroke-width:1.0;" x1="182.5" x2="182.5" y1="147.9658" y2="169.9658"/><polygon fill="#181818" points="178.5,159.9658,182.5,169.9658,186.5,159.9658,182.5,163.9658" style="stroke:#181818;stroke-width:1.0;"/><line style="stroke:#181818;stroke-width:1.0;" x1="461.25" x2="525" y1="147.9658" y2="147.9658"/><line style="stroke:#181818;stroke-width:1.0;" x1="525" x2="525" y1="147.9658" y2="169.9658"/><polygon fill="#181818" points="521,159.9658,525,169.9658,529,159.9658,525,163.9658" style="stroke:#181818;stroke-width:1.0;"/><line style="stroke:#181818;stroke-width:1.0;" x1="525" x2="525" y1="204.0986" y2="302.0986"/><line style="stroke:#181818;stroke-width:1.0;" x1="525" x2="365.75" y1="302.0986" y2="302.0986"/><polygon fill="#181818" points="375.75,298.0986,365.75,302.0986,375.75,306.0986,371.75,302.0986" style="stroke:#181818;stroke-width:1.0;"/><line style="stroke:#181818;stroke-width:1.0;" x1="353.75" x2="353.75" y1="111.4883" y2="135.9658"/><polygon fill="#181818" points="349.75,125.9658,353.75,135.9658,357.75,125.9658,353.75,129.9658" style="stroke:#181818;stroke-width:1.0;"/><line style="stroke:#181818;stroke-width:1.0;" x1="441.75" x2="620.5" y1="99.4883" y2="99.4883"/><polygon fill="#181818" points="616.5,223.5322,620.5,233.5322,624.5,223.5322,620.5,227.5322" style="stroke:#181818;stroke-width:1.0;"/><line style="stroke:#181818;stroke-width:1.0;" x1="620.5" x2="620.5" y1="99.4883" y2="346.0986"/><line style="stroke:#181818;stroke-width:1.0;" x1="620.5" x2="365.75" y1="346.0986" y2="346.0986"/><polygon fill="#181818" points="375.75,342.0986,365.75,346.0986,375.75,350.0986,371.75,346.0986" style="stroke:#181818;stroke-width:1.0;"/><line style="stroke:#181818;stroke-width:1.0;" x1="353.75" x2="353.75" y1="314.0986" y2="334.0986"/><polygon fill="#181818" points="349.75,324.0986,353.75,334.0986,357.75,324.0986,353.75,328.0986" style="stroke:#181818;stroke-width:1.0;"/><line style="stroke:#181818;stroke-width:1.0;" x1="353.75" x2="353.75" y1="67.4883" y2="87.4883"/><polygon fill="#181818" points="349.75,77.4883,353.75,87.4883,357.75,77.4883,353.75,81.4883" style="stroke:#181818;stroke-width:1.0;"/><line style="stroke:#181818;stroke-width:1.0;" x1="353.75" x2="353.75" y1="358.0986" y2="378.0986"/><polygon fill="#181818" points="349.75,368.0986,353.75,378.0986,357.75,368.0986,353.75,372.0986" style="stroke:#181818;stroke-width:1.0;"/><!--SRC=[PP0zKiD034RxFSLNEXLzKcMIWe8mpFW4YYqRJSokHr82lZsxTWnXK2dfFVsu-C1Rl1pfi4TBJd0LwZcOate8qg4wbhGO988Y-4lC9VOmrfiql86_SqGriMq20b2GUgcXoS2POTUiaqZdOSA9OlQtVp4is2jpYpVbeYQN594KdqalPLwJnkaV1MmFokISzngJEkjkplDWZ2gcdwwQ7TSHpwGtjjnMp2dBD9_btEiyRdVlXdaQ5qzifGiFFZp4wZv9uHbF-NaKhKlwCV-ow5R17GY_YosLi6wsprVciQYTcilk6m00]--></g></svg>