<?xml version="1.0" encoding="UTF-8" standalone="no"?><svg xmlns="http://www.w3.org/2000/svg" xmlns:xlink="http://www.w3.org/1999/xlink" contentStyleType="text/css" height="749px" preserveAspectRatio="none" style="width:1278px;height:749px;background:#FFFFFF;" version="1.1" viewBox="0 0 1278 749" width="1278px" zoomAndPan="magnify"><defs/><g><text fill="#000000" font-family="Chalkduster" font-size="42" font-weight="bold" lengthAdjust="spacing" textLength="862" x="209.75" y="56.7215">Simple authorized repository access</text><path d="M59,169.5746 L59.2802,169.5746 L58.4476,179.5474 L59.2577,189.5202 L59.5329,199.4931 L58.0488,209.4659 L58.8964,219.4387 L58.4313,229.4115 L58.4887,239.3844 L58.9091,249.3572 L58.0782,259.33 L59.7382,269.3029 L58.1596,279.2757 L58.7363,289.2485 L59.5759,299.2213 L58.8856,309.1942 L59.091,319.167 L58.9574,329.1398 L59.238,339.1126 L59.3188,349.0855 L59.7809,359.0583 L59.8947,369.0311 L59.9057,379.0039 L59.3395,388.9768 L59.6181,398.9496 L59.9363,408.9224 L58.0384,418.8953 L59.9047,428.8681 L58.6047,438.8409 L59.7117,448.8137 L58.34,458.7866 L58.9087,468.7594 L59.9888,478.7322 L58.935,488.705 L59.1404,498.6779 L59.4515,508.6507 L59.555,518.6235 L58.9948,528.5963 L59.383,538.5692 L58.2368,548.542 L59.3792,558.5148 L59.7309,568.4877 L59.5927,578.4605 L59.8174,588.4333 L58.3559,598.4061 L58.1304,608.379 L58.1715,618.3518 L58.9215,628.3246 L58.738,638.2974 L59.9085,648.2703 L59,658.2431 " fill="none" style="stroke:#181818;stroke-width:0.5;stroke-dasharray:5.0,5.0;"/><path d="M514,169.5746 L514.2802,169.5746 L513.4476,179.5474 L514.2577,189.5202 L514.5329,199.4931 L513.0488,209.4659 L513.8964,219.4387 L513.4313,229.4115 L513.4887,239.3844 L513.9091,249.3572 L513.0782,259.33 L514.7382,269.3029 L513.1596,279.2757 L513.7363,289.2485 L514.5759,299.2213 L513.8856,309.1942 L514.091,319.167 L513.9574,329.1398 L514.238,339.1126 L514.3188,349.0855 L514.7809,359.0583 L514.8947,369.0311 L514.9057,379.0039 L514.3395,388.9768 L514.6181,398.9496 L514.9363,408.9224 L513.0384,418.8953 L514.9047,428.8681 L513.6047,438.8409 L514.7117,448.8137 L513.34,458.7866 L513.9087,468.7594 L514.9888,478.7322 L513.935,488.705 L514.1404,498.6779 L514.4515,508.6507 L514.555,518.6235 L513.9948,528.5963 L514.383,538.5692 L513.2368,548.542 L514.3792,558.5148 L514.7309,568.4877 L514.5927,578.4605 L514.8174,588.4333 L513.3559,598.4061 L513.1304,608.379 L513.1715,618.3518 L513.9215,628.3246 L513.738,638.2974 L514.9085,648.2703 L514,658.2431 " fill="none" style="stroke:#181818;stroke-width:0.5;stroke-dasharray:5.0,5.0;"/><path d="M1009.5,169.5746 L1009.7802,169.5746 L1008.9476,179.5474 L1009.7577,189.5202 L1010.0329,199.4931 L1008.5488,209.4659 L1009.3964,219.4387 L1008.9313,229.4115 L1008.9887,239.3844 L1009.4091,249.3572 L1008.5782,259.33 L1010.2382,269.3029 L1008.6596,279.2757 L1009.2363,289.2485 L1010.0759,299.2213 L1009.3856,309.1942 L1009.591,319.167 L1009.4574,329.1398 L1009.738,339.1126 L1009.8188,349.0855 L1010.2809,359.0583 L1010.3947,369.0311 L1010.4057,379.0039 L1009.8395,388.9768 L1010.1181,398.9496 L1010.4363,408.9224 L1008.5384,418.8953 L1010.4047,428.8681 L1009.1047,438.8409 L1010.2117,448.8137 L1008.84,458.7866 L1009.4087,468.7594 L1010.4888,478.7322 L1009.435,488.705 L1009.6404,498.6779 L1009.9515,508.6507 L1010.055,518.6235 L1009.4948,528.5963 L1009.883,538.5692 L1008.7368,548.542 L1009.8792,558.5148 L1010.2309,568.4877 L1010.0927,578.4605 L1010.3174,588.4333 L1008.8559,598.4061 L1008.6304,608.379 L1008.6715,618.3518 L1009.4215,628.3246 L1009.238,638.2974 L1010.4085,648.2703 L1009.5,658.2431 " fill="none" style="stroke:#181818;stroke-width:0.5;stroke-dasharray:5.0,5.0;"/><path d="M1230.5,169.5746 L1230.7802,169.5746 L1229.9476,179.5474 L1230.7577,189.5202 L1231.0329,199.4931 L1229.5488,209.4659 L1230.3964,219.4387 L1229.9313,229.4115 L1229.9887,239.3844 L1230.4091,249.3572 L1229.5782,259.33 L1231.2382,269.3029 L1229.6596,279.2757 L1230.2363,289.2485 L1231.0759,299.2213 L1230.3856,309.1942 L1230.591,319.167 L1230.4574,329.1398 L1230.738,339.1126 L1230.8188,349.0855 L1231.2809,359.0583 L1231.3947,369.0311 L1231.4057,379.0039 L1230.8395,388.9768 L1231.1181,398.9496 L1231.4363,408.9224 L1229.5384,418.8953 L1231.4047,428.8681 L1230.1047,438.8409 L1231.2117,448.8137 L1229.84,458.7866 L1230.4087,468.7594 L1231.4888,478.7322 L1230.435,488.705 L1230.6404,498.6779 L1230.9515,508.6507 L1231.055,518.6235 L1230.4948,528.5963 L1230.883,538.5692 L1229.7368,548.542 L1230.8792,558.5148 L1231.2309,568.4877 L1231.0927,578.4605 L1231.3174,588.4333 L1229.8559,598.4061 L1229.6304,608.379 L1229.6715,618.3518 L1230.4215,628.3246 L1230.238,638.2974 L1231.4085,648.2703 L1230.5,658.2431 " fill="none" style="stroke:#181818;stroke-width:0.5;stroke-dasharray:5.0,5.0;"/><text fill="#000000" font-family="Chalkduster" font-size="18" lengthAdjust="spacing" textLength="103" x="5" y="164.4829">researcher</text><polygon fill="none" points="67.5442,93.5481,66.3715,95.1504,64.9845,97.4973,63.0008,99.0789,60.9163,99.9437,59.2542,100.0188,57.118,98.9372,55.1023,98.2305,53.5724,96.7958,52.7699,95.1533,52.2939,93.8455,51.8277,92.1373,51.0709,90.6673,51.6525,89.232,52.162,87.6598,54.074,86.4164,55.4192,84.803,57.0843,84.2673,59.0637,83.8059,61.6021,84.08,62.9924,84.7357,64.6089,85.0329,66.5743,87.0466,67.2595,89.1724,67.5571,90.6228,67.22,93.013" style="stroke:#8B0000;stroke-width:4.0;"/><path d="M59.5,99.6022 L59.6868,99.6022 L59.1317,105.0022 L59.6718,110.4022 L59.8553,115.8022 L58.8659,121.2022 L59.5,126.6022 M46.5,107.6022 L46.5,107.5331 L51.7,107.2231 L56.9,107.2613 L62.1,107.5416 L67.3,106.9877 L72.5,107.6022 M59.5,126.6022 L59.8719,126.9245 L56.4766,129.2353 L54.1672,132.4871 L51.9901,135.8537 L49.0424,138.5523 L46.5,141.6022 M59.5,126.6022 L59.5458,126.6419 L62.0785,129.5836 L64.8199,132.7061 L67.4606,135.7414 L70.2934,138.9432 L72.5,141.6022 " fill="none" style="stroke:#8B0000;stroke-width:4.0;"/><text fill="#000000" font-family="Chalkduster" font-size="18" lengthAdjust="spacing" textLength="103" x="5" y="675.1238">researcher</text><polygon fill="none" points="67.5442,694.1614,66.3715,695.7637,64.9845,698.1105,63.0008,699.6921,60.9163,700.557,59.2542,700.6321,57.118,699.5504,55.1023,698.8438,53.5724,697.4091,52.7699,695.7666,52.2939,694.4588,51.8277,692.7505,51.0709,691.2805,51.6525,689.8453,52.162,688.2731,54.074,687.0296,55.4192,685.4163,57.0843,684.8805,59.0637,684.4191,61.6021,684.6933,62.9924,685.349,64.6089,685.6462,66.5743,687.6598,67.2595,689.7856,67.5571,691.2361,67.22,693.6263" style="stroke:#8B0000;stroke-width:4.0;"/><path d="M59.5,700.2155 L59.6868,700.2155 L59.1317,705.6155 L59.6718,711.0155 L59.8553,716.4155 L58.8659,721.8155 L59.5,727.2155 M46.5,708.2155 L46.5,708.1464 L51.7,707.8364 L56.9,707.8746 L62.1,708.1549 L67.3,707.6009 L72.5,708.2155 M59.5,727.2155 L59.8719,727.5378 L56.4766,729.8485 L54.1672,733.1003 L51.9901,736.4669 L49.0424,739.1655 L46.5,742.2155 M59.5,727.2155 L59.5458,727.2552 L62.0785,730.1969 L64.8199,733.3194 L67.4606,736.3547 L70.2934,739.5564 L72.5,742.2155 " fill="none" style="stroke:#8B0000;stroke-width:4.0;"/><text fill="#000000" font-family="Chalkduster" font-size="18" lengthAdjust="spacing" textLength="101" x="461" y="164.4829">repository</text><polygon fill="#E2E2F0" points="526.5663,133.5211,524.8073,135.9245,522.7268,139.4448,519.7512,141.8172,516.6244,143.1145,514.1313,143.2271,510.9269,141.6046,507.9035,140.5447,505.6086,138.3926,504.4048,135.9289,503.6909,133.9672,502.9915,131.4048,501.8564,129.1998,502.7287,127.0469,503.4929,124.6886,506.3611,122.8235,508.3789,120.4034,510.8764,119.5998,513.8456,118.9077,517.6532,119.3189,519.7386,120.3024,522.1633,120.7482,525.1115,123.7687,526.1392,126.9574,526.5857,129.1331,526.08,132.7184" style="stroke:#181818;stroke-width:0.5;"/><path d="M502.5,144.6022 L502.5,144.6956 L507.3,144.4181 L512.1,144.6881 L516.9,144.7798 L521.7,144.2851 L526.5,144.6022 " fill="#E2E2F0" style="stroke:#181818;stroke-width:0.5;"/><text fill="#000000" font-family="Chalkduster" font-size="18" lengthAdjust="spacing" textLength="101" x="461" y="675.1238">repository</text><polygon fill="#E2E2F0" points="526.5663,699.1343,524.8073,701.5378,522.7268,705.0581,519.7512,707.4305,516.6244,708.7278,514.1313,708.8404,510.9269,707.2179,507.9035,706.1579,505.6086,704.0059,504.4048,701.5421,503.6909,699.5804,502.9915,697.0181,501.8564,694.8131,502.7287,692.6602,503.4929,690.3019,506.3611,688.4367,508.3789,686.0167,510.8764,685.213,513.8456,684.521,517.6532,684.9322,519.7386,685.9157,522.1633,686.3615,525.1115,689.382,526.1392,692.5707,526.5857,694.7464,526.08,698.3317" style="stroke:#181818;stroke-width:0.5;"/><path d="M502.5,710.2155 L502.5,710.3089 L507.3,710.0313 L512.1,710.3014 L516.9,710.3931 L521.7,709.8984 L526.5,710.2155 " fill="#E2E2F0" style="stroke:#181818;stroke-width:0.5;"/><text fill="#000000" font-family="Chalkduster" font-size="18" lengthAdjust="spacing" textLength="322" x="845.5" y="164.4829">https://doi.org/x/some-dataset</text><polygon fill="#E2E2F0" points="1021.5663,133.5211,1019.8073,135.9245,1017.7268,139.4448,1014.7512,141.8172,1011.6244,143.1145,1009.1313,143.2271,1005.9269,141.6046,1002.9035,140.5447,1000.6086,138.3926,999.4048,135.9289,998.6909,133.9672,997.9915,131.4048,996.8564,129.1998,997.7287,127.0469,998.4929,124.6886,1001.3611,122.8235,1003.3789,120.4034,1005.8764,119.5998,1008.8456,118.9077,1012.6532,119.3189,1014.7386,120.3024,1017.1633,120.7482,1020.1115,123.7687,1021.1392,126.9574,1021.5857,129.1331,1021.08,132.7184" style="stroke:#181818;stroke-width:0.5;"/><path d="M997.5,144.6022 L997.5,144.6956 L1002.3,144.4181 L1007.1,144.6881 L1011.9,144.7798 L1016.7,144.2851 L1021.5,144.6022 " fill="#E2E2F0" style="stroke:#181818;stroke-width:0.5;"/><text fill="#000000" font-family="Chalkduster" font-size="18" lengthAdjust="spacing" textLength="322" x="845.5" y="675.1238">https://doi.org/x/some-dataset</text><polygon fill="#E2E2F0" points="1021.5663,699.1343,1019.8073,701.5378,1017.7268,705.0581,1014.7512,707.4305,1011.6244,708.7278,1009.1313,708.8404,1005.9269,707.2179,1002.9035,706.1579,1000.6086,704.0059,999.4048,701.5421,998.6909,699.5804,997.9915,697.0181,996.8564,694.8131,997.7287,692.6602,998.4929,690.3019,1001.3611,688.4367,1003.3789,686.0167,1005.8764,685.213,1008.8456,684.521,1012.6532,684.9322,1014.7386,685.9157,1017.1633,686.3615,1020.1115,689.382,1021.1392,692.5707,1021.5857,694.7464,1021.08,698.3317" style="stroke:#181818;stroke-width:0.5;"/><path d="M997.5,710.2155 L997.5,710.3089 L1002.3,710.0313 L1007.1,710.3014 L1011.9,710.3931 L1016.7,709.8984 L1021.5,710.2155 " fill="#E2E2F0" style="stroke:#181818;stroke-width:0.5;"/><text fill="#000000" font-family="Chalkduster" font-size="18" lengthAdjust="spacing" textLength="88" x="1183.5" y="164.4829">CILogon</text><polygon fill="#E2E2F0" points="1242.5663,133.5211,1240.8073,135.9245,1238.7268,139.4448,1235.7512,141.8172,1232.6244,143.1145,1230.1313,143.2271,1226.9269,141.6046,1223.9035,140.5447,1221.6086,138.3926,1220.4048,135.9289,1219.6909,133.9672,1218.9915,131.4048,1217.8564,129.1998,1218.7287,127.0469,1219.4929,124.6886,1222.3611,122.8235,1224.3789,120.4034,1226.8764,119.5998,1229.8456,118.9077,1233.6532,119.3189,1235.7386,120.3024,1238.1633,120.7482,1241.1115,123.7687,1242.1392,126.9574,1242.5857,129.1331,1242.08,132.7184" style="stroke:#181818;stroke-width:0.5;"/><path d="M1218.5,144.6022 L1218.5,144.6956 L1223.3,144.4181 L1228.1,144.6881 L1232.9,144.7798 L1237.7,144.2851 L1242.5,144.6022 " fill="#E2E2F0" style="stroke:#181818;stroke-width:0.5;"/><text fill="#000000" font-family="Chalkduster" font-size="18" lengthAdjust="spacing" textLength="88" x="1183.5" y="675.1238">CILogon</text><polygon fill="#E2E2F0" points="1242.5663,699.1343,1240.8073,701.5378,1238.7268,705.0581,1235.7512,707.4305,1232.6244,708.7278,1230.1313,708.8404,1226.9269,707.2179,1223.9035,706.1579,1221.6086,704.0059,1220.4048,701.5421,1219.6909,699.5804,1218.9915,697.0181,1217.8564,694.8131,1218.7287,692.6602,1219.4929,690.3019,1222.3611,688.4367,1224.3789,686.0167,1226.8764,685.213,1229.8456,684.521,1233.6532,684.9322,1235.7386,685.9157,1238.1633,686.3615,1241.1115,689.382,1242.1392,692.5707,1242.5857,694.7464,1242.08,698.3317" style="stroke:#181818;stroke-width:0.5;"/><path d="M1218.5,710.2155 L1218.5,710.3089 L1223.3,710.0313 L1228.1,710.3014 L1232.9,710.3931 L1237.7,709.8984 L1242.5,710.2155 " fill="#E2E2F0" style="stroke:#181818;stroke-width:0.5;"/><polygon fill="#8B0000" points="502.5,204.547,502.526,204.612,504.4487,205.2187,506.5239,206.2068,508.5495,207.0707,510.4117,207.5262,512.5,208.547,512.4904,208.5229,510.4472,209.215,508.4525,210.0283,506.4916,210.9259,504.4144,211.533,502.5,212.547,502.6305,212.6775,503.1514,211.5984,504.0534,210.9003,505.0018,210.2488,505.6798,209.3267,506.5,208.547,506.5161,208.563,505.6925,207.7394,504.9421,206.989,504.1564,206.2033,503.438,205.485,502.5,204.547" style="stroke:#8B0000;stroke-width:1.0;"/><path d="M59.5,208.547 L59.5,208.8272 L69.4778,207.9945 L79.4556,208.8047 L89.4333,209.0799 L99.4111,207.5958 L109.3889,208.4433 L119.3667,207.9783 L129.3444,208.0356 L139.3222,208.4561 L149.3,207.6251 L159.2778,209.2852 L169.2556,207.7066 L179.2333,208.2833 L189.2111,209.1229 L199.1889,208.4326 L209.1667,208.6379 L219.1444,208.5044 L229.1222,208.785 L239.1,208.8658 L249.0778,209.3279 L259.0556,209.4417 L269.0333,209.4526 L279.0111,208.8865 L288.9889,209.1651 L298.9667,209.4833 L308.9444,207.5854 L318.9222,209.4516 L328.9,208.1516 L338.8778,209.2587 L348.8556,207.8869 L358.8333,208.4556 L368.8111,209.5358 L378.7889,208.482 L388.7667,208.6874 L398.7444,208.9985 L408.7222,209.1019 L418.7,208.5418 L428.6778,208.9299 L438.6556,207.7837 L448.6333,208.9261 L458.6111,209.2779 L468.5889,209.1397 L478.5667,209.3643 L488.5444,207.9029 L498.5222,207.6774 L508.5,208.547 " fill="none" style="stroke:#8B0000;stroke-width:4.0;"/><text fill="#000000" font-family="Chalkduster" font-size="18" lengthAdjust="spacing" textLength="431" x="66.5" y="201.4553">Can I have https://doi.org/x/some-crate?</text><polygon fill="#8B0000" points="997.5,264.4917,997.526,264.5568,999.4487,265.1635,1001.5239,266.1515,1003.5495,267.0154,1005.4117,267.4709,1007.5,268.4917,1007.4904,268.4677,1005.4472,269.1597,1003.4525,269.973,1001.4916,270.8706,999.4144,271.4777,997.5,272.4917,997.6305,272.6222,998.1514,271.5432,999.0534,270.8451,1000.0018,270.1935,1000.6798,269.2715,1001.5,268.4917,1001.5161,268.5078,1000.6925,267.6842,999.9421,266.9338,999.1564,266.1481,998.438,265.4298,997.5,264.4917" style="stroke:#8B0000;stroke-width:1.0;"/><path d="M514.5,268.4917 L514.5,268.772 L524.4796,267.9393 L534.4592,268.7494 L544.4388,269.0246 L554.4184,267.5405 L564.398,268.3881 L574.3776,267.9231 L584.3571,267.9804 L594.3367,268.4008 L604.3163,267.5699 L614.2959,269.2299 L624.2755,267.6513 L634.2551,268.228 L644.2347,269.0676 L654.2143,268.3773 L664.1939,268.5827 L674.1735,268.4491 L684.1531,268.7297 L694.1327,268.8106 L704.1122,269.2726 L714.0918,269.3865 L724.0714,269.3974 L734.051,268.8312 L744.0306,269.1098 L754.0102,269.428 L763.9898,267.5301 L773.9694,269.3964 L783.949,268.0964 L793.9286,269.2035 L803.9082,267.8317 L813.8878,268.4004 L823.8673,269.4805 L833.8469,268.4267 L843.8265,268.6321 L853.8061,268.9432 L863.7857,269.0467 L873.7653,268.4865 L883.7449,268.8747 L893.7245,267.7285 L903.7041,268.8709 L913.6837,269.2226 L923.6633,269.0844 L933.6429,269.3091 L943.6224,267.8476 L953.602,267.6221 L963.5816,267.6632 L973.5612,268.4132 L983.5408,268.2297 L993.5204,269.4003 L1003.5,268.4917 " fill="none" style="stroke:#8B0000;stroke-width:4.0;"/><text fill="#000000" font-family="Chalkduster" font-size="18" lengthAdjust="spacing" textLength="281" x="521.5" y="238.4276">Internal repository lookup:</text><text fill="#000000" font-family="Chalkduster" font-size="18" lengthAdjust="spacing" textLength="203" x="521.5" y="261.4">what's your licence?</text><polygon fill="#8B0000" points="525.5,301.4641,525.526,301.5291,523.4487,302.1359,521.5239,303.1239,519.5495,303.9878,517.4117,304.4433,515.5,305.4641,515.4904,305.44,517.4472,306.1321,519.4525,306.9454,521.4916,307.843,523.4144,308.4501,525.5,309.4641,525.6305,309.5946,524.5514,308.5155,523.8534,307.8175,523.2018,307.1659,522.2798,306.2439,521.5,305.4641,521.5161,305.4802,522.2925,304.6566,523.1421,303.9062,523.9564,303.1205,524.838,302.4021,525.5,301.4641" style="stroke:#8B0000;stroke-width:1.0;"/><path d="M519.5,305.4641 L519.5,305.7443 L529.4796,304.9117 L539.4592,305.7218 L549.4388,305.997 L559.4184,304.5129 L569.398,305.3605 L579.3776,304.8954 L589.3571,304.9528 L599.3367,305.3732 L609.3163,304.5423 L619.2959,306.2023 L629.2755,304.6237 L639.2551,305.2004 L649.2347,306.04 L659.2143,305.3497 L669.1939,305.5551 L679.1735,305.4215 L689.1531,305.7021 L699.1327,305.7829 L709.1122,306.245 L719.0918,306.3588 L729.0714,306.3698 L739.051,305.8036 L749.0306,306.0822 L759.0102,306.4004 L768.9898,304.5025 L778.9694,306.3688 L788.949,305.0688 L798.9286,306.1758 L808.9082,304.8041 L818.8878,305.3728 L828.8673,306.4529 L838.8469,305.3991 L848.8265,305.6045 L858.8061,305.9156 L868.7857,306.0191 L878.7653,305.4589 L888.7449,305.847 L898.7245,304.7009 L908.7041,305.8433 L918.6837,306.195 L928.6633,306.0568 L938.6429,306.2815 L948.6224,304.82 L958.602,304.5945 L968.5816,304.6356 L978.5612,305.3856 L988.5408,305.2021 L998.5204,306.3726 L1008.5,305.4641 " fill="none" style="stroke:#8B0000;stroke-width:4.0;"/><text fill="#000000" font-family="Chalkduster" font-size="18" lengthAdjust="spacing" textLength="471" x="531.5" y="298.3724">Accessible to people in group G1 on CILogon</text><path d="M514.5,342.4365 L514.5,342.5299 L522.9,342.2523 L531.3,342.5224 L539.7,342.6141 L548.1,342.1194 L556.5,342.4365 " fill="none" style="stroke:#8B0000;stroke-width:4.0;"/><path d="M556.5,342.4365 L556.5934,342.4365 L556.3159,345.0365 L556.5859,347.6365 L556.6776,350.2365 L556.1829,352.8365 L556.5,355.4365 " fill="none" style="stroke:#8B0000;stroke-width:4.0;"/><path d="M515.5,355.4365 L515.5,355.5299 L523.7,355.2523 L531.9,355.5224 L540.1,355.6141 L548.3,355.1194 L556.5,355.4365 " fill="none" style="stroke:#8B0000;stroke-width:4.0;"/><polygon fill="#8B0000" points="525.5,351.4365,525.526,351.5015,523.4487,352.1082,521.5239,353.0963,519.5495,353.9602,517.4117,354.4157,515.5,355.4365,515.4904,355.4124,517.4472,356.1045,519.4525,356.9178,521.4916,357.8154,523.4144,358.4225,525.5,359.4365,525.6305,359.567,524.5514,358.4879,523.8534,357.7899,523.2018,357.1383,522.2798,356.2162,521.5,355.4365,521.5161,355.4526,522.2925,354.6289,523.1421,353.8785,523.9564,353.0928,524.838,352.3745,525.5,351.4365" style="stroke:#8B0000;stroke-width:1.0;"/><text fill="#000000" font-family="Chalkduster" font-size="18" lengthAdjust="spacing" textLength="356" x="521.5" y="335.3448">Is that on my list of trusted sites?</text><path d="M514.5,392.4088 L514.5,392.5023 L522.9,392.2247 L531.3,392.4947 L539.7,392.5865 L548.1,392.0918 L556.5,392.4088 " fill="none" style="stroke:#8B0000;stroke-width:4.0;"/><path d="M556.5,392.4088 L556.5934,392.4088 L556.3159,395.0088 L556.5859,397.6088 L556.6776,400.2088 L556.1829,402.8088 L556.5,405.4088 " fill="none" style="stroke:#8B0000;stroke-width:4.0;"/><path d="M515.5,405.4088 L515.5,405.5023 L523.7,405.2247 L531.9,405.4947 L540.1,405.5865 L548.3,405.0918 L556.5,405.4088 " fill="none" style="stroke:#8B0000;stroke-width:4.0;"/><polygon fill="#8B0000" points="525.5,401.4088,525.526,401.4739,523.4487,402.0806,521.5239,403.0687,519.5495,403.9325,517.4117,404.3881,515.5,405.4088,515.4904,405.3848,517.4472,406.0768,519.4525,406.8902,521.4916,407.7877,523.4144,408.3949,525.5,409.4088,525.6305,409.5393,524.5514,408.4603,523.8534,407.7622,523.2018,407.1107,522.2798,406.1886,521.5,405.4088,521.5161,405.4249,522.2925,404.6013,523.1421,403.8509,523.9564,403.0652,524.838,402.3469,525.5,401.4088" style="stroke:#8B0000;stroke-width:1.0;"/><text fill="#000000" font-family="Chalkduster" font-size="18" lengthAdjust="spacing" textLength="38" x="521.5" y="385.3171">Yep</text><polygon fill="#8B0000" points="70.5,438.3812,70.526,438.4463,68.4487,439.053,66.5239,440.041,64.5495,440.9049,62.4117,441.3604,60.5,442.3812,60.4904,442.3572,62.4472,443.0492,64.4525,443.8625,66.4916,444.7601,68.4144,445.3672,70.5,446.3812,70.6305,446.5117,69.5514,445.4327,68.8534,444.7346,68.2018,444.083,67.2798,443.161,66.5,442.3812,66.5161,442.3973,67.2925,441.5737,68.1421,440.8233,68.9564,440.0376,69.838,439.3193,70.5,438.3812" style="stroke:#8B0000;stroke-width:1.0;"/><path d="M64.5,442.3812 L64.5,442.6615 L74.4778,441.8288 L84.4556,442.6389 L94.4333,442.9141 L104.4111,441.43 L114.3889,442.2776 L124.3667,441.8126 L134.3444,441.8699 L144.3222,442.2903 L154.3,441.4594 L164.2778,443.1194 L174.2556,441.5408 L184.2333,442.1175 L194.2111,442.9571 L204.1889,442.2668 L214.1667,442.4722 L224.1444,442.3386 L234.1222,442.6193 L244.1,442.7001 L254.0778,443.1621 L264.0556,443.276 L274.0333,443.2869 L284.0111,442.7207 L293.9889,442.9993 L303.9667,443.3175 L313.9444,441.4196 L323.9222,443.2859 L333.9,441.9859 L343.8778,443.093 L353.8556,441.7212 L363.8333,442.2899 L373.8111,443.37 L383.7889,442.3162 L393.7667,442.5216 L403.7444,442.8327 L413.7222,442.9362 L423.7,442.376 L433.6778,442.7642 L443.6556,441.618 L453.6333,442.7604 L463.6111,443.1121 L473.5889,442.9739 L483.5667,443.1986 L493.5444,441.7371 L503.5222,441.5116 L513.5,442.3812 " fill="none" style="stroke:#8B0000;stroke-width:4.0;"/><text fill="#000000" font-family="Chalkduster" font-size="18" lengthAdjust="spacing" textLength="396" x="76.5" y="435.2895">Authenticate yourself over at CILogon</text><polygon fill="#8B0000" points="1218.5,475.3536,1218.526,475.4186,1220.4487,476.0254,1222.5239,477.0134,1224.5495,477.8773,1226.4117,478.3328,1228.5,479.3536,1228.4904,479.3295,1226.4472,480.0216,1224.4525,480.8349,1222.4916,481.7325,1220.4144,482.3396,1218.5,483.3536,1218.6305,483.4841,1219.1514,482.405,1220.0534,481.707,1221.0018,481.0554,1221.6798,480.1334,1222.5,479.3536,1222.5161,479.3697,1221.6925,478.5461,1220.9421,477.7957,1220.1564,477.01,1219.438,476.2916,1218.5,475.3536" style="stroke:#8B0000;stroke-width:1.0;"/><path d="M59.5,479.3536 L59.5,479.6338 L69.4573,478.8012 L79.4145,479.6113 L89.3718,479.8865 L99.3291,478.4024 L109.2863,479.25 L119.2436,478.7849 L129.2009,478.8423 L139.1581,479.2627 L149.1154,478.4318 L159.0726,480.0918 L169.0299,478.5132 L178.9872,479.0899 L188.9444,479.9295 L198.9017,479.2392 L208.859,479.4446 L218.8162,479.311 L228.7735,479.5916 L238.7308,479.6724 L248.688,480.1345 L258.6453,480.2483 L268.6026,480.2593 L278.5598,479.6931 L288.5171,479.9717 L298.4744,480.2899 L308.4316,478.392 L318.3889,480.2583 L328.3462,478.9583 L338.3034,480.0653 L348.2607,478.6936 L358.2179,479.2623 L368.1752,480.3424 L378.1325,479.2886 L388.0897,479.494 L398.047,479.8051 L408.0043,479.9086 L417.9615,479.3484 L427.9188,479.7365 L437.8761,478.5904 L447.8333,479.7328 L457.7906,480.0845 L467.7479,479.9463 L477.7051,480.171 L487.6624,478.7095 L497.6197,478.484 L507.5769,478.5251 L517.5342,479.2751 L527.4915,479.0916 L537.4487,480.2621 L547.406,479.1207 L557.3632,478.8962 L567.3205,479.658 L577.2778,478.4645 L587.235,478.6614 L597.1923,480.2189 L607.1496,479.9345 L617.1068,480.3329 L627.0641,478.9245 L637.0214,479.7792 L646.9786,480.1408 L656.9359,478.7237 L666.8932,479.2258 L676.8504,479.5216 L686.8077,480.2226 L696.765,479.348 L706.7222,479.9704 L716.6795,478.6152 L726.6368,478.4506 L736.594,480.0251 L746.5513,478.3977 L756.5085,480.0322 L766.4658,479.6291 L776.4231,478.9964 L786.3803,478.8819 L796.3376,479.9653 L806.2949,478.9545 L816.2521,480.1427 L826.2094,478.6166 L836.1667,480.1768 L846.1239,479.9993 L856.0812,479.6802 L866.0385,479.4166 L875.9957,480.3224 L885.953,480.1717 L895.9103,479.5793 L905.8675,479.7112 L915.8248,479.1799 L925.7821,480.3089 L935.7393,479.5601 L945.6966,479.5837 L955.6538,478.5425 L965.6111,478.8133 L975.5684,480.0613 L985.5256,479.9266 L995.4829,479.2964 L1005.4402,478.924 L1015.3974,479.0617 L1025.3547,478.4387 L1035.312,479.9066 L1045.2692,480.3397 L1055.2265,480.0555 L1065.1838,480.2802 L1075.141,479.1713 L1085.0983,479.4699 L1095.0556,478.8368 L1105.0128,479.7323 L1114.9701,479.6826 L1124.9274,480.0901 L1134.8846,479.0474 L1144.8419,479.1744 L1154.7991,479.9449 L1164.7564,480.11 L1174.7137,478.6702 L1184.6709,479.0951 L1194.6282,479.5526 L1204.5855,478.5391 L1214.5427,479.8248 L1224.5,479.3536 " fill="none" style="stroke:#8B0000;stroke-width:4.0;"/><text fill="#000000" font-family="Chalkduster" font-size="18" lengthAdjust="spacing" textLength="74" x="66.5" y="472.2619">Logs in</text><polygon fill="#8B0000" points="525.5,512.326,525.526,512.391,523.4487,512.9977,521.5239,513.9858,519.5495,514.8497,517.4117,515.3052,515.5,516.326,515.4904,516.3019,517.4472,516.994,519.4525,517.8073,521.4916,518.7049,523.4144,519.312,525.5,520.326,525.6305,520.4565,524.5514,519.3774,523.8534,518.6794,523.2018,518.0278,522.2798,517.1058,521.5,516.326,521.5161,516.3421,522.2925,515.5184,523.1421,514.768,523.9564,513.9823,524.838,513.264,525.5,512.326" style="stroke:#8B0000;stroke-width:1.0;"/><path d="M519.5,516.326 L519.5,516.6062 L529.5,515.7735 L539.5,516.5837 L549.5,516.8589 L559.5,515.3748 L569.5,516.2224 L579.5,515.7573 L589.5,515.8146 L599.5,516.2351 L609.5,515.4041 L619.5,517.0642 L629.5,515.4856 L639.5,516.0623 L649.5,516.9019 L659.5,516.2116 L669.5,516.417 L679.5,516.2834 L689.5,516.564 L699.5,516.6448 L709.5,517.1069 L719.5,517.2207 L729.5,517.2316 L739.5,516.6655 L749.5,516.9441 L759.5,517.2623 L769.5,515.3644 L779.5,517.2307 L789.5,515.9306 L799.5,517.0377 L809.5,515.6659 L819.5,516.2346 L829.5,517.3148 L839.5,516.261 L849.5,516.4664 L859.5,516.7775 L869.5,516.8809 L879.5,516.3208 L889.5,516.7089 L899.5,515.5627 L909.5,516.7052 L919.5,517.0569 L929.5,516.9187 L939.5,517.1433 L949.5,515.6819 L959.5,515.4564 L969.5,515.4974 L979.5,516.2475 L989.5,516.0639 L999.5,517.2345 L1009.5,516.0931 L1019.5,515.8686 L1029.5,516.6303 L1039.5,515.4369 L1049.5,515.6338 L1059.5,517.1912 L1069.5,516.9069 L1079.5,517.3053 L1089.5,515.8969 L1099.5,516.7516 L1109.5,517.1132 L1119.5,515.6961 L1129.5,516.1982 L1139.5,516.4939 L1149.5,517.195 L1159.5,516.3204 L1169.5,516.9427 L1179.5,515.5876 L1189.5,515.423 L1199.5,516.9975 L1209.5,515.37 L1219.5,517.0046 L1229.5,516.326 " fill="none" style="stroke:#8B0000;stroke-width:4.0;"/><text fill="#000000" font-family="Chalkduster" font-size="18" lengthAdjust="spacing" textLength="526" x="531.5" y="509.2343">Calls repo back "User is a member of G1, G2, G3"</text><path d="M514.5,553.2983 L514.5,553.3918 L522.9,553.1142 L531.3,553.3843 L539.7,553.476 L548.1,552.9813 L556.5,553.2983 " fill="none" style="stroke:#8B0000;stroke-width:4.0;"/><path d="M556.5,553.2983 L556.5934,553.2983 L556.3159,555.8983 L556.5859,558.4983 L556.6776,561.0983 L556.1829,563.6983 L556.5,566.2983 " fill="none" style="stroke:#8B0000;stroke-width:4.0;"/><path d="M515.5,566.2983 L515.5,566.3918 L523.7,566.1142 L531.9,566.3843 L540.1,566.476 L548.3,565.9813 L556.5,566.2983 " fill="none" style="stroke:#8B0000;stroke-width:4.0;"/><polygon fill="#8B0000" points="525.5,562.2983,525.526,562.3634,523.4487,562.9701,521.5239,563.9582,519.5495,564.822,517.4117,565.2776,515.5,566.2983,515.4904,566.2743,517.4472,566.9663,519.4525,567.7797,521.4916,568.6773,523.4144,569.2844,525.5,570.2983,525.6305,570.4288,524.5514,569.3498,523.8534,568.6517,523.2018,568.0002,522.2798,567.0781,521.5,566.2983,521.5161,566.3144,522.2925,565.4908,523.1421,564.7404,523.9564,563.9547,524.838,563.2364,525.5,562.2983" style="stroke:#8B0000;stroke-width:1.0;"/><text fill="#000000" font-family="Chalkduster" font-size="18" lengthAdjust="spacing" textLength="285" x="521.5" y="546.2066">OK, user is a member of G1</text><polygon fill="#8B0000" points="997.5,599.2707,997.526,599.3358,999.4487,599.9425,1001.5239,600.9305,1003.5495,601.7944,1005.4117,602.2499,1007.5,603.2707,1007.4904,603.2467,1005.4472,603.9387,1003.4525,604.752,1001.4916,605.6496,999.4144,606.2567,997.5,607.2707,997.6305,607.4012,998.1514,606.3222,999.0534,605.6241,1000.0018,604.9725,1000.6798,604.0505,1001.5,603.2707,1001.5161,603.2868,1000.6925,602.4632,999.9421,601.7128,999.1564,600.9271,998.438,600.2088,997.5,599.2707" style="stroke:#8B0000;stroke-width:1.0;"/><path d="M514.5,603.2707 L514.5,603.551 L524.4796,602.7183 L534.4592,603.5284 L544.4388,603.8036 L554.4184,602.3195 L564.398,603.1671 L574.3776,602.7021 L584.3571,602.7594 L594.3367,603.1798 L604.3163,602.3489 L614.2959,604.0089 L624.2755,602.4303 L634.2551,603.007 L644.2347,603.8467 L654.2143,603.1564 L664.1939,603.3617 L674.1735,603.2281 L684.1531,603.5088 L694.1327,603.5896 L704.1122,604.0516 L714.0918,604.1655 L724.0714,604.1764 L734.051,603.6102 L744.0306,603.8888 L754.0102,604.207 L763.9898,602.3091 L773.9694,604.1754 L783.949,602.8754 L793.9286,603.9825 L803.9082,602.6107 L813.8878,603.1794 L823.8673,604.2595 L833.8469,603.2057 L843.8265,603.4111 L853.8061,603.7222 L863.7857,603.8257 L873.7653,603.2655 L883.7449,603.6537 L893.7245,602.5075 L903.7041,603.6499 L913.6837,604.0016 L923.6633,603.8634 L933.6429,604.0881 L943.6224,602.6266 L953.602,602.4011 L963.5816,602.4422 L973.5612,603.1922 L983.5408,603.0087 L993.5204,604.1793 L1003.5,603.2707 " fill="none" style="stroke:#8B0000;stroke-width:4.0;"/><text fill="#000000" font-family="Chalkduster" font-size="18" lengthAdjust="spacing" textLength="51" x="521.5" y="596.179">fetch</text><polygon fill="#8B0000" points="70.5,636.2431,70.526,636.3081,68.4487,636.9149,66.5239,637.9029,64.5495,638.7668,62.4117,639.2223,60.5,640.2431,60.4904,640.219,62.4472,640.9111,64.4525,641.7244,66.4916,642.622,68.4144,643.2291,70.5,644.2431,70.6305,644.3736,69.5514,643.2945,68.8534,642.5965,68.2018,641.9449,67.2798,641.0229,66.5,640.2431,66.5161,640.2592,67.2925,639.4356,68.1421,638.6852,68.9564,637.8995,69.838,637.1811,70.5,636.2431" style="stroke:#8B0000;stroke-width:1.0;"/><path d="M64.5,640.2431 L64.5,640.5233 L74.4778,639.6907 L84.4556,640.5008 L94.4333,640.776 L104.4111,639.2919 L114.3889,640.1395 L124.3667,639.6744 L134.3444,639.7318 L144.3222,640.1522 L154.3,639.3213 L164.2778,640.9813 L174.2556,639.4027 L184.2333,639.9794 L194.2111,640.819 L204.1889,640.1287 L214.1667,640.3341 L224.1444,640.2005 L234.1222,640.4811 L244.1,640.5619 L254.0778,641.024 L264.0556,641.1378 L274.0333,641.1488 L284.0111,640.5826 L293.9889,640.8612 L303.9667,641.1794 L313.9444,639.2815 L323.9222,641.1478 L333.9,639.8478 L343.8778,640.9548 L353.8556,639.5831 L363.8333,640.1518 L373.8111,641.2319 L383.7889,640.1781 L393.7667,640.3835 L403.7444,640.6946 L413.7222,640.7981 L423.7,640.2379 L433.6778,640.626 L443.6556,639.4799 L453.6333,640.6223 L463.6111,640.974 L473.5889,640.8358 L483.5667,641.0605 L493.5444,639.599 L503.5222,639.3735 L513.5,640.2431 " fill="none" style="stroke:#8B0000;stroke-width:4.0;"/><text fill="#000000" font-family="Chalkduster" font-size="18" lengthAdjust="spacing" textLength="149" x="76.5" y="633.1514">Here's the data</text><!--SRC=[TL5BQnj13BxFhr3saalinUcb-91G37LD2Zs47WA18C_Ati6pesMaJRFzzTNuaTYGBYoCfFaUy-ag91-7XbuwJ2DCftM3YXChS4iT9Ps8Zf6c-gREoIwa7ZDsqD06XwZVEUbZ-4im- -gS1eqqXyVGzP401sqvswo1J3rBKCuZeFSa0WwzbN3uCWbXzYqT6YYbuqmww7YOlyDFu_uqhbhLNkPrtN2OSjxMRxLmHvFo226jodL_nbKjLZzvowawKldWdAd1vAwmmXmMc605BRuI_8VQPrIwT-MweRnXLaaf9updJYFpRkZdp-bFYtejCFAG8GPFoHlOVmX-soSIrXQPClJ49RoGO9jvw64v0qvmD0qdqGDo9Q16NYvq9XZ4ZXlGF8XQwEQ3vFuIyMJ1lJUaYDkIIZZUdhItA1GtmA-s2YC-ofu2yi4Grf5Yprbr5bgC-xKmhD7leFejnX0443hgrdOsOylP3InlxVzINRhwzN03mwU0yv0tfBwzTF-3CbsN40ZAlly1]--></g></svg>