<?xml version="1.0" encoding="UTF-8" standalone="no"?><svg xmlns="http://www.w3.org/2000/svg" xmlns:xlink="http://www.w3.org/1999/xlink" contentStyleType="text/css" height="485px" preserveAspectRatio="none" style="width:288px;height:485px;background:#FFFFFF;" version="1.1" viewBox="0 0 288 485" width="288px" zoomAndPan="magnify"><defs/><g><text fill="#000000" font-family="sans-serif" font-size="14" font-weight="bold" lengthAdjust="spacing" textLength="130" x="77.5" y="33.5352">LDaCA data triage</text><ellipse cx="127.5" cy="57.4883" fill="#222222" rx="10" ry="10" style="stroke:#222222;stroke-width:1.0;"/><rect fill="#F1F1F1" height="34.1328" rx="12.5" ry="12.5" style="stroke:#181818;stroke-width:0.5;" width="129" x="63" y="232.9209"/><text fill="#000000" font-family="sans-serif" font-size="12" lengthAdjust="spacing" textLength="109" x="73" y="254.5225">Organize Migration</text><polygon fill="#F1F1F1" points="49,184.4434,206,184.4434,218,196.4434,206,208.4434,49,208.4434,37,196.4434,49,184.4434" style="stroke:#181818;stroke-width:0.5;"/><text fill="#000000" font-family="sans-serif" font-size="11" lengthAdjust="spacing" textLength="18" x="131.5" y="219.0781">yes</text><text fill="#000000" font-family="sans-serif" font-size="11" lengthAdjust="spacing" textLength="157" x="49" y="200.6006">Service needs to  be migrated</text><text fill="#000000" font-family="sans-serif" font-size="11" lengthAdjust="spacing" textLength="14" x="218" y="194.123">no</text><polygon fill="#F1F1F1" points="127.5,287.0537,139.5,299.0537,127.5,311.0537,115.5,299.0537,127.5,287.0537" style="stroke:#181818;stroke-width:0.5;"/><rect fill="#F1F1F1" height="34.1328" rx="12.5" ry="12.5" style="stroke:#181818;stroke-width:0.5;" width="116" x="69.5" y="331.0537"/><text fill="#000000" font-family="sans-serif" font-size="12" lengthAdjust="spacing" textLength="96" x="79.5" y="352.6553">Set up Harvester</text><ellipse cx="127.5" cy="396.1865" fill="none" rx="11" ry="11" style="stroke:#222222;stroke-width:1.0;"/><ellipse cx="127.5" cy="396.1865" fill="#222222" rx="6" ry="6" style="stroke:#111111;stroke-width:1.0;"/><polygon fill="#F1F1F1" points="32,135.9658,223,135.9658,235,147.9658,223,159.9658,32,159.9658,20,147.9658,32,135.9658" style="stroke:#181818;stroke-width:0.5;"/><text fill="#000000" font-family="sans-serif" font-size="11" lengthAdjust="spacing" textLength="18" x="131.5" y="170.6006">yes</text><text fill="#000000" font-family="sans-serif" font-size="11" lengthAdjust="spacing" textLength="191" x="32" y="152.123">Service can be sustainably Managed</text><text fill="#000000" font-family="sans-serif" font-size="11" lengthAdjust="spacing" textLength="14" x="235" y="145.6455">no</text><polygon fill="#F1F1F1" points="78,87.4883,177,87.4883,189,99.4883,177,111.4883,78,111.4883,66,99.4883,78,87.4883" style="stroke:#181818;stroke-width:0.5;"/><text fill="#000000" font-family="sans-serif" font-size="11" lengthAdjust="spacing" textLength="18" x="131.5" y="122.123">yes</text><text fill="#000000" font-family="sans-serif" font-size="11" lengthAdjust="spacing" textLength="99" x="78" y="103.6455">Data is in a service</text><polygon fill="#F1F1F1" points="127.5,449.1865,139.5,461.1865,127.5,473.1865,115.5,461.1865,127.5,449.1865" style="stroke:#181818;stroke-width:0.5;"/><line style="stroke:#181818;stroke-width:1.0;" x1="127.5" x2="127.5" y1="208.4434" y2="232.9209"/><polygon fill="#181818" points="123.5,222.9209,127.5,232.9209,131.5,222.9209,127.5,226.9209" style="stroke:#181818;stroke-width:1.0;"/><line style="stroke:#181818;stroke-width:1.0;" x1="218" x2="230" y1="196.4434" y2="196.4434"/><polygon fill="#181818" points="226,239.9873,230,249.9873,234,239.9873,230,243.9873" style="stroke:#181818;stroke-width:1.0;"/><line style="stroke:#181818;stroke-width:1.0;" x1="230" x2="230" y1="196.4434" y2="299.0537"/><line style="stroke:#181818;stroke-width:1.0;" x1="230" x2="139.5" y1="299.0537" y2="299.0537"/><polygon fill="#181818" points="149.5,295.0537,139.5,299.0537,149.5,303.0537,145.5,299.0537" style="stroke:#181818;stroke-width:1.0;"/><line style="stroke:#181818;stroke-width:1.0;" x1="127.5" x2="127.5" y1="267.0537" y2="287.0537"/><polygon fill="#181818" points="123.5,277.0537,127.5,287.0537,131.5,277.0537,127.5,281.0537" style="stroke:#181818;stroke-width:1.0;"/><line style="stroke:#181818;stroke-width:1.0;" x1="127.5" x2="127.5" y1="311.0537" y2="331.0537"/><polygon fill="#181818" points="123.5,321.0537,127.5,331.0537,131.5,321.0537,127.5,325.0537" style="stroke:#181818;stroke-width:1.0;"/><line style="stroke:#181818;stroke-width:1.0;" x1="127.5" x2="127.5" y1="365.1865" y2="385.1865"/><polygon fill="#181818" points="123.5,375.1865,127.5,385.1865,131.5,375.1865,127.5,379.1865" style="stroke:#181818;stroke-width:1.0;"/><line style="stroke:#181818;stroke-width:1.0;" x1="127.5" x2="127.5" y1="159.9658" y2="184.4434"/><polygon fill="#181818" points="123.5,174.4434,127.5,184.4434,131.5,174.4434,127.5,178.4434" style="stroke:#181818;stroke-width:1.0;"/><line style="stroke:#181818;stroke-width:1.0;" x1="235" x2="247" y1="147.9658" y2="147.9658"/><polygon fill="#181818" points="243,295.5762,247,305.5762,251,295.5762,247,299.5762" style="stroke:#181818;stroke-width:1.0;"/><line style="stroke:#181818;stroke-width:1.0;" x1="247" x2="247" y1="147.9658" y2="429.1865"/><line style="stroke:#181818;stroke-width:1.0;" x1="247" x2="127.5" y1="429.1865" y2="429.1865"/><line style="stroke:#181818;stroke-width:1.0;" x1="127.5" x2="127.5" y1="429.1865" y2="449.1865"/><polygon fill="#181818" points="123.5,439.1865,127.5,449.1865,131.5,439.1865,127.5,443.1865" style="stroke:#181818;stroke-width:1.0;"/><line style="stroke:#181818;stroke-width:1.0;" x1="127.5" x2="127.5" y1="111.4883" y2="135.9658"/><polygon fill="#181818" points="123.5,125.9658,127.5,135.9658,131.5,125.9658,127.5,129.9658" style="stroke:#181818;stroke-width:1.0;"/><line style="stroke:#181818;stroke-width:1.0;" x1="189" x2="262" y1="99.4883" y2="99.4883"/><polygon fill="#181818" points="258,289.5762,262,299.5762,266,289.5762,262,293.5762" style="stroke:#181818;stroke-width:1.0;"/><line style="stroke:#181818;stroke-width:1.0;" x1="262" x2="262" y1="99.4883" y2="461.1865"/><line style="stroke:#181818;stroke-width:1.0;" x1="262" x2="139.5" y1="461.1865" y2="461.1865"/><polygon fill="#181818" points="149.5,457.1865,139.5,461.1865,149.5,465.1865,145.5,461.1865" style="stroke:#181818;stroke-width:1.0;"/><line style="stroke:#181818;stroke-width:1.0;" x1="127.5" x2="127.5" y1="67.4883" y2="87.4883"/><polygon fill="#181818" points="123.5,77.4883,127.5,87.4883,131.5,77.4883,127.5,81.4883" style="stroke:#181818;stroke-width:1.0;"/><!--SRC=[ROmx3i9034JxFSMKuGgXGb1G457a12OnmLBmHck31ASd2uW4mLJ-p7iktdE9tORMAxJa14z27GTpIXw2755iybaCeY0Ofwiql82VM57Ss1O10SZ5-lL3Gue3mowZH9GE_GqLwMXjlp5ay9qvhyojmIEovInT8lz5FodtgIELEwDwLYNgSYfmRun2uunXRUKuhMNDZik0BQKhctEQqUPn27yaOMu9p_41]--></g></svg>