<?xml version="1.0" encoding="UTF-8" standalone="no"?><svg xmlns="http://www.w3.org/2000/svg" xmlns:xlink="http://www.w3.org/1999/xlink" contentStyleType="text/css" height="705px" preserveAspectRatio="none" style="width:1096px;height:705px;background:#FFFFFF;" version="1.1" viewBox="0 0 1096 705" width="1096px" zoomAndPan="magnify"><defs/><g><text fill="#000000" font-family="sans-serif" font-size="14" font-weight="bold" lengthAdjust="spacing" textLength="261" x="419.25" y="28.5352">Simple authorized repository access</text><line style="stroke:#181818;stroke-width:0.5;stroke-dasharray:5.0,5.0;" x1="53" x2="53" y1="138.0859" y2="605.4766"/><line style="stroke:#181818;stroke-width:0.5;stroke-dasharray:5.0,5.0;" x1="440.5" x2="440.5" y1="138.0859" y2="605.4766"/><line style="stroke:#181818;stroke-width:0.5;stroke-dasharray:5.0,5.0;" x1="855.5" x2="855.5" y1="138.0859" y2="605.4766"/><line style="stroke:#181818;stroke-width:0.5;stroke-dasharray:5.0,5.0;" x1="1056.5" x2="1056.5" y1="138.0859" y2="605.4766"/><text fill="#000000" font-family="sans-serif" font-size="18" lengthAdjust="spacing" textLength="90" x="5" y="134.2891">researcher</text><ellipse cx="53" cy="65.3867" fill="#E2E2F0" rx="8" ry="8" style="stroke:#181818;stroke-width:0.5;"/><path d="M53,73.3867 L53,100.3867 M40,81.3867 L66,81.3867 M53,100.3867 L40,115.3867 M53,100.3867 L66,115.3867 " fill="none" style="stroke:#181818;stroke-width:0.5;"/><text fill="#000000" font-family="sans-serif" font-size="18" lengthAdjust="spacing" textLength="90" x="5" y="621.8789">researcher</text><ellipse cx="53" cy="634.1758" fill="#E2E2F0" rx="8" ry="8" style="stroke:#181818;stroke-width:0.5;"/><path d="M53,642.1758 L53,669.1758 M40,650.1758 L66,650.1758 M53,669.1758 L40,684.1758 M53,669.1758 L66,684.1758 " fill="none" style="stroke:#181818;stroke-width:0.5;"/><text fill="#000000" font-family="sans-serif" font-size="18" lengthAdjust="spacing" textLength="87" x="394.5" y="134.2891">repository</text><ellipse cx="441" cy="100.8867" fill="#E2E2F0" rx="12" ry="12" style="stroke:#181818;stroke-width:0.5;"/><line style="stroke:#181818;stroke-width:0.5;" x1="429" x2="453" y1="114.8867" y2="114.8867"/><text fill="#000000" font-family="sans-serif" font-size="18" lengthAdjust="spacing" textLength="87" x="394.5" y="621.8789">repository</text><ellipse cx="441" cy="641.6758" fill="#E2E2F0" rx="12" ry="12" style="stroke:#181818;stroke-width:0.5;"/><line style="stroke:#181818;stroke-width:0.5;" x1="429" x2="453" y1="655.6758" y2="655.6758"/><text fill="#000000" font-family="sans-serif" font-size="18" lengthAdjust="spacing" textLength="72" x="817" y="91.8906">Dataset:</text><text fill="#000000" font-family="sans-serif" font-size="18" lengthAdjust="spacing" textLength="281" x="721.5" y="113.0898">https://doi.org/x/some-dataset</text><text fill="#000000" font-family="sans-serif" font-size="18" lengthAdjust="spacing" textLength="154" x="776" y="134.2891">Held in repository</text><ellipse cx="856" cy="58.4883" fill="#E2E2F0" rx="12" ry="12" style="stroke:#181818;stroke-width:0.5;"/><line style="stroke:#181818;stroke-width:0.5;" x1="844" x2="868" y1="72.4883" y2="72.4883"/><text fill="#000000" font-family="sans-serif" font-size="18" lengthAdjust="spacing" textLength="72" x="817" y="621.8789">Dataset:</text><text fill="#000000" font-family="sans-serif" font-size="18" lengthAdjust="spacing" textLength="281" x="721.5" y="643.0781">https://doi.org/x/some-dataset</text><text fill="#000000" font-family="sans-serif" font-size="18" lengthAdjust="spacing" textLength="154" x="776" y="664.2773">Held in repository</text><ellipse cx="856" cy="684.0742" fill="#E2E2F0" rx="12" ry="12" style="stroke:#181818;stroke-width:0.5;"/><line style="stroke:#181818;stroke-width:0.5;" x1="844" x2="868" y1="698.0742" y2="698.0742"/><text fill="#000000" font-family="sans-serif" font-size="18" lengthAdjust="spacing" textLength="71" x="1018.5" y="134.2891">CILogon</text><ellipse cx="1057" cy="100.8867" fill="#E2E2F0" rx="12" ry="12" style="stroke:#181818;stroke-width:0.5;"/><line style="stroke:#181818;stroke-width:0.5;" x1="1045" x2="1069" y1="114.8867" y2="114.8867"/><text fill="#000000" font-family="sans-serif" font-size="18" lengthAdjust="spacing" textLength="71" x="1018.5" y="621.8789">CILogon</text><ellipse cx="1057" cy="641.6758" fill="#E2E2F0" rx="12" ry="12" style="stroke:#181818;stroke-width:0.5;"/><line style="stroke:#181818;stroke-width:0.5;" x1="1045" x2="1069" y1="655.6758" y2="655.6758"/><polygon fill="#181818" points="429,171.2852,439,175.2852,429,179.2852,433,175.2852" style="stroke:#181818;stroke-width:1.0;"/><line style="stroke:#181818;stroke-width:1.0;" x1="53" x2="435" y1="175.2852" y2="175.2852"/><text fill="#000000" font-family="sans-serif" font-size="18" lengthAdjust="spacing" textLength="364" x="60" y="169.4883">Can I have https://doi.org/x/some-crate?</text><polygon fill="#181818" points="844,227.6836,854,231.6836,844,235.6836,848,231.6836" style="stroke:#181818;stroke-width:1.0;"/><line style="stroke:#181818;stroke-width:1.0;" x1="441" x2="850" y1="231.6836" y2="231.6836"/><text fill="#000000" font-family="sans-serif" font-size="18" lengthAdjust="spacing" textLength="231" x="448" y="204.6875">Internal repository lookup:</text><text fill="#000000" font-family="sans-serif" font-size="18" lengthAdjust="spacing" textLength="172" x="448" y="225.8867">what's your licence?</text><polygon fill="#181818" points="452,262.8828,442,266.8828,452,270.8828,448,266.8828" style="stroke:#181818;stroke-width:1.0;"/><line style="stroke:#181818;stroke-width:1.0;" x1="446" x2="855" y1="266.8828" y2="266.8828"/><text fill="#000000" font-family="sans-serif" font-size="18" lengthAdjust="spacing" textLength="391" x="458" y="261.0859">Accessible to people in group G1 on CILogon</text><line style="stroke:#181818;stroke-width:1.0;" x1="441" x2="483" y1="302.082" y2="302.082"/><line style="stroke:#181818;stroke-width:1.0;" x1="483" x2="483" y1="302.082" y2="315.082"/><line style="stroke:#181818;stroke-width:1.0;" x1="442" x2="483" y1="315.082" y2="315.082"/><polygon fill="#181818" points="452,311.082,442,315.082,452,319.082,448,315.082" style="stroke:#181818;stroke-width:1.0;"/><text fill="#000000" font-family="sans-serif" font-size="18" lengthAdjust="spacing" textLength="293" x="448" y="296.2852">Is that on my list of trusted sites?</text><line style="stroke:#181818;stroke-width:1.0;" x1="441" x2="483" y1="350.2813" y2="350.2813"/><line style="stroke:#181818;stroke-width:1.0;" x1="483" x2="483" y1="350.2813" y2="363.2813"/><line style="stroke:#181818;stroke-width:1.0;" x1="442" x2="483" y1="363.2813" y2="363.2813"/><polygon fill="#181818" points="452,359.2813,442,363.2813,452,367.2813,448,363.2813" style="stroke:#181818;stroke-width:1.0;"/><text fill="#000000" font-family="sans-serif" font-size="18" lengthAdjust="spacing" textLength="32" x="448" y="344.4844">Yep</text><polygon fill="#181818" points="64,394.4805,54,398.4805,64,402.4805,60,398.4805" style="stroke:#181818;stroke-width:1.0;"/><line style="stroke:#181818;stroke-width:1.0;" x1="58" x2="440" y1="398.4805" y2="398.4805"/><text fill="#000000" font-family="sans-serif" font-size="18" lengthAdjust="spacing" textLength="328" x="70" y="392.6836">Authenticate yourself over at CILogon</text><polygon fill="#181818" points="1045,429.6797,1055,433.6797,1045,437.6797,1049,433.6797" style="stroke:#181818;stroke-width:1.0;"/><line style="stroke:#181818;stroke-width:1.0;" x1="53" x2="1051" y1="433.6797" y2="433.6797"/><text fill="#000000" font-family="sans-serif" font-size="18" lengthAdjust="spacing" textLength="63" x="60" y="427.8828">Logs in</text><polygon fill="#181818" points="452,464.8789,442,468.8789,452,472.8789,448,468.8789" style="stroke:#181818;stroke-width:1.0;"/><line style="stroke:#181818;stroke-width:1.0;" x1="446" x2="1056" y1="468.8789" y2="468.8789"/><text fill="#000000" font-family="sans-serif" font-size="18" lengthAdjust="spacing" textLength="431" x="458" y="463.082">Calls repo back "User is a member of G1, G2, G3"</text><line style="stroke:#181818;stroke-width:1.0;" x1="441" x2="483" y1="504.0781" y2="504.0781"/><line style="stroke:#181818;stroke-width:1.0;" x1="483" x2="483" y1="504.0781" y2="517.0781"/><line style="stroke:#181818;stroke-width:1.0;" x1="442" x2="483" y1="517.0781" y2="517.0781"/><polygon fill="#181818" points="452,513.0781,442,517.0781,452,521.0781,448,517.0781" style="stroke:#181818;stroke-width:1.0;"/><text fill="#000000" font-family="sans-serif" font-size="18" lengthAdjust="spacing" textLength="243" x="448" y="498.2813">OK, user is a member of G1</text><polygon fill="#181818" points="844,548.2773,854,552.2773,844,556.2773,848,552.2773" style="stroke:#181818;stroke-width:1.0;"/><line style="stroke:#181818;stroke-width:1.0;" x1="441" x2="850" y1="552.2773" y2="552.2773"/><text fill="#000000" font-family="sans-serif" font-size="18" lengthAdjust="spacing" textLength="44" x="448" y="546.4805">fetch</text><polygon fill="#181818" points="64,583.4766,54,587.4766,64,591.4766,60,587.4766" style="stroke:#181818;stroke-width:1.0;"/><line style="stroke:#181818;stroke-width:1.0;" x1="58" x2="440" y1="587.4766" y2="587.4766"/><text fill="#000000" font-family="sans-serif" font-size="18" lengthAdjust="spacing" textLength="131" x="70" y="581.6797">Here's the data</text><!--SRC=[TLB1JiCm3BttAwnUk0ocmGNj048WjWaa3eW34XSlzTPeQLp5BZ2-7cVTe9EWKgJ4zlDxVgviV6mnOGCLhR0BUizHd_qNmUIoADHhe2ay-wOD1DXfpSbo5IHgMRnosW8wHo9GeBCdz5yY8KokfZw0aYC5HUktxVC_y4EwFQJBErGKqkbRj5ojsifqFAxOdt5QZp_7mWsTLdtDMvnJgC37GSSoztC3il9sySXhZkMUo_cYC3bmUfLHC8LRZB206j_fFpgNKEcwoEM6SePPHAKKCGn72SoRhZNT7pNgYS2MkmJ1EuhEmEwNy6PdcL-QfyhG4cTtROXrugw5sGGumbuq74Xxv490hNakQ8pGYrrNeAaJjQsO3fBhOyIhEViJa4nkMypcE1jf9r4eh83VRLVMU4zxCCXvGrX4ihp2NWFJGjZjZM69RWFbYrW7Bu3GKBEqkmcRJKOmExTpKHwhUdeOGVSdO6ZoYjJLn-hdbEWacq2G_u5l]--></g></svg>