<?xml version="1.0" encoding="us-ascii" standalone="no"?><svg xmlns="http://www.w3.org/2000/svg" xmlns:xlink="http://www.w3.org/1999/xlink" contentStyleType="text/css" height="935px" preserveAspectRatio="none" style="width:1023px;height:935px;background:#FFFFFF;" version="1.1" viewBox="0 0 1023 935" width="1023px" zoomAndPan="magnify"><defs/><g><!--cluster repos--><g id="cluster_repos"><path d="M255.8563,20.394 C260.7775,12.4438 270.5079,9.8665 275.5488,20.2656 C279.9443,13.9091 286.4227,13.9379 290.418,20.7185 C294.9432,11.0565 303.3317,9.2492 310.3988,17.953 C315.4942,11.1306 321.5305,9.0618 326.8116,17.7567 C333.3198,9.0096 341.6175,8.1992 347.172,18.7624 C349.9614,10.2338 357.5614,8.9836 362.9575,16.1388 C369.9289,6.5772 378.6602,8.4892 384.3883,17.5682 C388.1288,8.3595 395.5582,9.0205 400.9376,15.8803 C409.0036,6 414.9361,8.8698 420.7702,18.1862 C424.1715,9.6031 432.4614,10.5014 437.1257,16.7978 C444.9652,9.0852 450.6963,11.2718 454.9655,20.5471 C460.7771,10.8337 466.5751,11.3977 473.089,19.8464 C479.5031,10.8441 485.3408,13.6103 490.5078,21.159 C501.4971,10.8743 509.2515,12.7935 515,26.5076 C515.6894,25.6617 516.4458,26.0134 516.83,26.8413 C526.3497,31.5175 528.2765,42.2789 519.1311,48.902 C529.6141,54.8469 530.4883,63.4672 520.7593,70.9077 C530.1565,77.9045 530.3481,84.6381 520.3976,91.2917 C533.4715,97.8561 533.002,106.956 522.5662,115.6163 C530.7307,122.6901 529.5051,131.4191 519.8222,136.1023 C531.7128,141.5144 530.2232,151.882 520.1749,157.6532 C529.4245,164.3741 526.33,173.2483 517.0311,176.9469 C528.003,190.8757 522.783,199.3607 508,204.9976 C508.635,204.6282 509.0981,205.0188 509.0601,205.6859 C506.2597,215.155 498.275,216.8165 492.4281,208.5414 C486.344,218.9481 479.0683,217.1347 472.7394,208.7986 C467.0362,215.9781 460.1947,216.5444 455.4965,207.716 C451.5202,215.5687 443.9562,217.5012 438.2771,209.574 C431.3873,220.3841 424.9847,217.6441 418.3824,209.2757 C412.5615,215.5539 406.1505,216.0026 401.6553,207.7496 C397.7317,216.1054 389.4703,217.4245 383.7829,209.7112 C379.1187,220.2698 369.127,218.4454 363.6893,210.5536 C356.9052,219.5549 350.6534,217.5795 345.318,209.0366 C340.7209,217.3148 334.6748,216.9121 329.9236,209.1848 C323.296,217.7179 314.1372,216.1781 309.3352,207.0559 C303.1497,214.1057 296.7227,215.1492 291.7139,205.7922 C287.7658,214.0519 278.9714,217.0734 272.7655,208.3046 C260.8526,215.6445 249.9255,213.1244 247,197.9976 C248.6073,198.055 249.1901,199.0366 248.5082,200.4831 C237.7317,193.333 239.0046,185.5607 248.6338,178.5274 C236.6575,173.899 234.7956,165.1548 245.5908,157.2671 C235.7447,151.7848 232.9005,140.3137 244.391,133.7431 C236.1103,128.4798 235.1875,122.1799 243.0786,115.7377 C232.405,108.7417 233.5513,99.6129 244.5588,94.1001 C234.0342,85.583 234.8445,77.4623 246.3678,70.6457 C235.1309,63.4888 235.9186,52.5623 248.9181,48.1535 C234.7037,37.1651 239.8236,25.4593 254,19.5076 C254.9623,18.8435 255.7776,19.2075 255.8563,20.394 " fill="none" style="stroke:#181818;stroke-width:1.0;"/><text fill="#000000" font-family="sans-serif" font-size="14" font-weight="bold" lengthAdjust="spacing" textLength="91" x="335.5" y="38.0427">Repositories</text></g><!--cluster data_ldaca--><g id="cluster_data_ldaca"><path d="M279,72.5076 C279,62.5076 329,62.5076 329,62.5076 C329,62.5076 379,62.5076 379,72.5076 L379,170.9976 C379,180.9976 329,180.9976 329,180.9976 C329,180.9976 279,180.9976 279,170.9976 L279,72.5076 " fill="#90EE90" style="stroke:#181818;stroke-width:1.0;"/><path d="M279,72.5076 C279,82.5076 329,82.5076 329,82.5076 C329,82.5076 379,82.5076 379,72.5076 " fill="none" style="stroke:#181818;stroke-width:1.0;"/><text fill="#000000" font-family="sans-serif" font-size="14" font-style="italic" lengthAdjust="spacing" textLength="84" x="287" y="98.0427">&#171;repository&#187;</text><text fill="#000000" font-family="sans-serif" font-size="14" font-weight="bold" lengthAdjust="spacing" textLength="71" x="293.5" y="114.531">data.ldaca</text></g><!--entity api--><g id="elem_api"><rect fill="#F1F1F1" height="36.4883" rx="2.5" ry="2.5" style="stroke:#181818;stroke-width:0.5;" width="41" x="319.5" y="128.5076"/><text fill="#000000" font-family="sans-serif" font-size="14" lengthAdjust="spacing" textLength="21" x="329.5" y="152.0427">api</text></g><!--entity zenodo--><g id="elem_zenodo"><path d="M395,125.7676 C395,115.7676 447,115.7676 447,115.7676 C447,115.7676 499,115.7676 499,125.7676 L499,167.7441 C499,177.7441 447,177.7441 447,177.7441 C447,177.7441 395,177.7441 395,167.7441 L395,125.7676 " fill="#90EE90" style="stroke:#181818;stroke-width:0.5;"/><path d="M395,125.7676 C395,135.7676 447,135.7676 447,135.7676 C447,135.7676 499,135.7676 499,125.7676 " fill="none" style="stroke:#181818;stroke-width:0.5;"/><text fill="#000000" font-family="sans-serif" font-size="14" font-style="italic" lengthAdjust="spacing" textLength="84" x="405" y="153.3027">&#171;repository&#187;</text><text fill="#000000" font-family="sans-serif" font-size="14" lengthAdjust="spacing" textLength="52" x="421" y="169.791">Zenodo</text></g><!--entity ldaca_py--><g id="elem_ldaca_py"><rect fill="#FFC0CB" height="52.9766" rx="2.5" ry="2.5" style="stroke:#181818;stroke-width:0.5;" width="76" x="354" y="341.7576"/><text fill="#000000" font-family="sans-serif" font-size="14" font-style="italic" lengthAdjust="spacing" textLength="47" x="368.5" y="365.2927">&#171;code&#187;</text><text fill="#000000" font-family="sans-serif" font-size="14" lengthAdjust="spacing" textLength="56" x="364" y="381.781">ldaca.py</text></g><!--entity user_crate--><g id="elem_user_crate"><rect fill="#ADD8E6" height="52.9766" rx="2.5" ry="2.5" style="stroke:#181818;stroke-width:0.5;" width="92" x="501" y="341.7576"/><text fill="#000000" font-family="sans-serif" font-size="14" font-style="italic" lengthAdjust="spacing" textLength="44" x="525" y="365.2927">&#171;data&#187;</text><text fill="#000000" font-family="sans-serif" font-size="14" lengthAdjust="spacing" textLength="72" x="511" y="381.781">user-crate</text></g><!--entity crate_to_properties--><g id="elem_crate_to_properties"><rect fill="#FFC0CB" height="52.9766" rx="2.5" ry="2.5" style="stroke:#181818;stroke-width:0.5;" width="216" x="341" y="483.4876"/><text fill="#000000" font-family="sans-serif" font-size="14" font-style="italic" lengthAdjust="spacing" textLength="47" x="425.5" y="507.0227">&#171;code&#187;</text><text fill="#000000" font-family="sans-serif" font-size="14" lengthAdjust="spacing" textLength="196" x="351" y="523.511">RO-Crate to properties table</text></g><!--entity properties_to_entities--><g id="elem_properties_to_entities"><rect fill="#FFC0CB" height="52.9766" rx="2.5" ry="2.5" style="stroke:#181818;stroke-width:0.5;" width="238" x="289" y="613.4676"/><text fill="#000000" font-family="sans-serif" font-size="14" font-style="italic" lengthAdjust="spacing" textLength="47" x="384.5" y="637.0027">&#171;code&#187;</text><text fill="#000000" font-family="sans-serif" font-size="14" lengthAdjust="spacing" textLength="218" x="299" y="653.491">Properties table to entities table</text></g><!--entity csv--><g id="elem_csv"><rect fill="#FFC0CB" height="52.9766" rx="2.5" ry="2.5" style="stroke:#181818;stroke-width:0.5;" width="151" x="177.5" y="744.9176"/><text fill="#000000" font-family="sans-serif" font-size="14" font-style="italic" lengthAdjust="spacing" textLength="47" x="229.5" y="768.4527">&#171;code&#187;</text><text fill="#000000" font-family="sans-serif" font-size="14" lengthAdjust="spacing" textLength="131" x="187.5" y="784.941">Entities table to csv</text></g><!--entity corpus_loader--><g id="elem_corpus_loader"><rect fill="#FFC0CB" height="52.9766" rx="2.5" ry="2.5" style="stroke:#181818;stroke-width:0.5;" width="121" x="89.5" y="876.3676"/><text fill="#000000" font-family="sans-serif" font-size="14" font-style="italic" lengthAdjust="spacing" textLength="47" x="126.5" y="899.9027">&#171;code&#187;</text><text fill="#000000" font-family="sans-serif" font-size="14" lengthAdjust="spacing" textLength="101" x="99.5" y="916.391">Corpus Loader</text></g><!--entity user_csv--><g id="elem_user_csv"><rect fill="#ADD8E6" height="52.9766" rx="2.5" ry="2.5" style="stroke:#181818;stroke-width:0.5;" width="82" x="7" y="744.9176"/><text fill="#000000" font-family="sans-serif" font-size="14" font-style="italic" lengthAdjust="spacing" textLength="44" x="26" y="768.4527">&#171;data&#187;</text><text fill="#000000" font-family="sans-serif" font-size="14" lengthAdjust="spacing" textLength="62" x="17" y="784.941">User CSV</text></g><g id="elem_GMN21"><path d="M562,619.6376 L562,635.9476 L527.43,639.9476 L562,643.9476 L562,660.2587 A0,0 0 0 0 562,660.2587 L1016,660.2587 A0,0 0 0 0 1016,660.2587 L1016,629.6376 L1006,619.6376 L562,619.6376 A0,0 0 0 0 562,619.6376 " fill="#FEFFDD" style="stroke:#181818;stroke-width:0.5;"/><path d="M1006,619.6376 L1006,629.6376 L1016,629.6376 L1006,619.6376 " fill="#FEFFDD" style="stroke:#181818;stroke-width:0.5;"/><text fill="#000000" font-family="sans-serif" font-size="13" lengthAdjust="spacing" textLength="394" x="568" y="637.2059">This is a process that involves following some graph links and</text><text fill="#000000" font-family="sans-serif" font-size="13" lengthAdjust="spacing" textLength="433" x="568" y="652.5165">expanding like author.name author.age (this is difficult to do in SQL)</text></g><g id="elem_GMN24"><path d="M363.5,743.4376 L363.5,767.4076 L328.81,771.4076 L363.5,775.4076 L363.5,799.3692 A0,0 0 0 0 363.5,799.3692 L832.5,799.3692 A0,0 0 0 0 832.5,799.3692 L832.5,753.4376 L822.5,743.4376 L363.5,743.4376 A0,0 0 0 0 363.5,743.4376 " fill="#FEFFDD" style="stroke:#181818;stroke-width:0.5;"/><path d="M822.5,743.4376 L822.5,753.4376 L832.5,753.4376 L822.5,743.4376 " fill="#FEFFDD" style="stroke:#181818;stroke-width:0.5;"/><text fill="#000000" font-family="sans-serif" font-size="13" lengthAdjust="spacing" textLength="425" x="369.5" y="761.0059">Once tables are in SQL it is practial to use idiomatic SQL with them,</text><text fill="#000000" font-family="sans-serif" font-size="13" lengthAdjust="spacing" textLength="448" x="369.5" y="776.3165">eg joining on author IDs from a set of transcripts to get de-normalized</text><text fill="#000000" font-family="sans-serif" font-size="13" lengthAdjust="spacing" textLength="149" x="373.5" y="791.627">metadata per-utterance</text></g><!--entity analytics_operative--><g id="elem_analytics_operative"><ellipse cx="195" cy="338.4976" fill="#F1F1F1" rx="8" ry="8" style="stroke:#181818;stroke-width:0.5;"/><path d="M195,346.4976 L195,373.4976 M182,354.4976 L208,354.4976 M195,373.4976 L182,388.4976 M195,373.4976 L208,388.4976 " fill="none" style="stroke:#181818;stroke-width:0.5;"/><text fill="#000000" font-family="sans-serif" font-size="14" lengthAdjust="spacing" textLength="131" x="129.5" y="403.5327">Anayltics Operative</text></g><!--reverse link api to ldaca_py--><g id="link_api_ldaca_py"><path d="M345.5537,171.1858 C354.7137,209.8358 375.24,296.4876 385.93,341.6076 " fill="none" id="api-backto-ldaca_py" style="stroke:#181818;stroke-width:1.0;"/><polygon fill="#181818" points="344.17,165.3476,342.3533,175.0274,345.3231,170.2128,350.1377,173.1825,344.17,165.3476" style="stroke:#181818;stroke-width:1.0;"/><text fill="#000000" font-family="sans-serif" font-size="13" lengthAdjust="spacing" textLength="54" x="377" y="273.5659">get_data</text></g><!--link ldaca_py to crate_to_properties--><g id="link_ldaca_py_crate_to_properties"><path d="M385.45,395.0176 C382.39,412.2776 380.97,435.1176 389,453.4876 C393.95,464.7976 398.0363,470.7741 407.1163,479.0941 " fill="none" id="ldaca_py-to-crate_to_properties" style="stroke:#181818;stroke-width:1.0;"/><polygon fill="#181818" points="411.54,483.1476,407.6067,474.1182,407.8536,479.7697,402.2021,480.0165,411.54,483.1476" style="stroke:#181818;stroke-width:1.0;"/><text fill="#000000" font-family="sans-serif" font-size="13" lengthAdjust="spacing" textLength="113" x="390" y="450.0559">Explode RO-Crate</text></g><!--link user_crate to crate_to_properties--><g id="link_user_crate_crate_to_properties"><path d="M538.07,394.9376 C531.33,412.3776 521.01,435.4476 508,453.4876 C500.35,464.0976 494.886,470.2556 485.406,478.9756 " fill="none" id="user_crate-to-crate_to_properties" style="stroke:#181818;stroke-width:1.0;"/><polygon fill="#181818" points="480.99,483.0376,490.3219,479.8886,484.67,479.6526,484.906,474.0007,480.99,483.0376" style="stroke:#181818;stroke-width:1.0;"/><text fill="#000000" font-family="sans-serif" font-size="13" lengthAdjust="spacing" textLength="113" x="518" y="450.0559">Explode RO-Crate</text></g><!--link crate_to_properties to properties_to_entities--><g id="link_crate_to_properties_properties_to_entities"><path d="M440.7,536.8676 C433.59,559.0776 425.2208,585.1837 418.1108,607.3737 " fill="none" id="crate_to_properties-to-properties_to_entities" style="stroke:#181818;stroke-width:1.0;"/><polygon fill="#181818" points="416.28,613.0876,422.8354,605.7373,417.8057,608.326,415.217,603.2962,416.28,613.0876" style="stroke:#181818;stroke-width:1.0;"/><text fill="#000000" font-family="sans-serif" font-size="13" lengthAdjust="spacing" textLength="115" x="432" y="580.0359">Make entity tables</text></g><!--link properties_to_entities to csv--><g id="link_properties_to_entities_csv"><path d="M377.01,666.8376 C349.97,689.4176 315.5649,718.1511 288.5449,740.7211 " fill="none" id="properties_to_entities-to-csv" style="stroke:#181818;stroke-width:1.0;"/><polygon fill="#181818" points="283.94,744.5676,293.4116,741.8678,287.7774,741.3622,288.283,735.728,283.94,744.5676" style="stroke:#181818;stroke-width:1.0;"/><text fill="#000000" font-family="sans-serif" font-size="13" lengthAdjust="spacing" textLength="241" x="341" y="710.0059">Make csv / dataframe / parquet / json</text></g><!--link csv to corpus_loader--><g id="link_csv_corpus_loader"><path d="M242.32,798.1276 C235.45,813.0376 225.64,831.6976 214,846.3676 C205.5,857.0876 199.3059,863.4567 189.0359,872.1667 " fill="none" id="csv-to-corpus_loader" style="stroke:#181818;stroke-width:1.0;"/><polygon fill="#181818" points="184.46,876.0476,193.9111,873.2769,188.2733,872.8135,188.7367,867.1757,184.46,876.0476" style="stroke:#181818;stroke-width:1.0;"/><text fill="#000000" font-family="sans-serif" font-size="13" lengthAdjust="spacing" textLength="139" x="227" y="842.9359">Load corpus from CSV</text></g><!--link user_csv to corpus_loader--><g id="link_user_csv_corpus_loader"><path d="M40.27,798.1176 C37.29,813.2076 36.38,832.0576 45,846.3676 C55,862.9676 66.4256,872.2307 83.6956,880.6407 " fill="none" id="user_csv-to-corpus_loader" style="stroke:#181818;stroke-width:1.0;"/><polygon fill="#181818" points="89.09,883.2676,82.7497,875.7309,84.5947,881.0785,79.2472,882.9235,89.09,883.2676" style="stroke:#181818;stroke-width:1.0;"/><text fill="#000000" font-family="sans-serif" font-size="13" lengthAdjust="spacing" textLength="163" x="46" y="842.9359">Load corpus from CSV file</text></g><!--reverse link analytics_operative to csv--><g id="link_analytics_operative_csv"><path d="M194.4246,412.6175 C194.3146,455.5475 195.77,521.9776 205,583.4676 C213.78,641.9476 233.27,708.6476 244.53,744.4376 " fill="none" id="analytics_operative-backto-csv" style="stroke:#181818;stroke-width:1.0;"/><polygon fill="#181818" points="194.44,406.6176,190.417,415.6073,194.4272,411.6176,198.4169,415.6278,194.44,406.6176" style="stroke:#181818;stroke-width:1.0;"/><text fill="#000000" font-family="sans-serif" font-size="13" lengthAdjust="spacing" textLength="212" x="206" y="580.0359">Package data for specific purpose</text></g><!--reverse link repos to analytics_operative--><g id="link_repos_analytics_operative"><path d="M235.2332,163.0206 C235.1048,163.1928 238.3734,158.8159 238.2429,158.9917 C237.7211,159.6948 237.1822,160.4265 236.628,161.1854 C235.5198,162.7031 234.3506,164.3298 233.1348,166.0551 C230.7031,169.5056 228.085,173.3504 225.395,177.5063 C214.635,194.1301 202.725,215.7326 197,236.9976 C188.83,267.3476 188.94,303.1376 190.75,329.5176 " fill="none" id="repos-backto-analytics_operative" style="stroke:#181818;stroke-width:1.0;"/><polygon fill="#181818" points="238.8227,158.2128,230.2332,163.0315,235.8314,162.2193,236.6436,167.8176,238.8227,158.2128" style="stroke:#181818;stroke-width:1.0;"/><text fill="#000000" font-family="sans-serif" font-size="13" lengthAdjust="spacing" textLength="150" x="200.5" y="250.5659">Deposit curated dataset</text><text fill="#000000" font-family="sans-serif" font-size="13" lengthAdjust="spacing" textLength="155" x="198" y="265.8765">with supporting material</text><text fill="#000000" font-family="sans-serif" font-size="13" lengthAdjust="spacing" textLength="138" x="206.5" y="281.187">eg links to notebooks</text><text fill="#000000" font-family="sans-serif" font-size="13" lengthAdjust="spacing" textLength="130" x="210.5" y="296.4976">that explain the data</text></g><!--SRC=[bLJVQnin37w_lqBaQOEbUm-biFvW53hQjTiUHk5GxtGNDuxbsRwqwTZ_FibtITFiEcX8Wcph-oH_aXmNndaCk8JV1SWdK9NGjPQ6jNwEiLgqWJjNdx3bS7XOSKr7Ht1btE9rfneJYjF5UJjFnxQZxFb7VjdGqpkCfFP_8WNo74tYi5Og8rIV0v7hkV9_yQSeAijT3PFhZREXE06CaD52lmqsKUl0rbXXTj1bcPUm5sjV3VH68-rG_IJ7DMUQfsoEKmXASCz4anpkmAypCYzAluQDg2zSkqXXMWLCb9rrMUObREHzuNvzEJt9fud11_OKaYW1ah3j2JAsJ5pkd8u6ljf3AoEvPFRudccKTEimIdds0gw4LLprMSNLEEI4W-yYN33M57hNl5FQl3CE-YuYmSdDZnt5Clz6hwtYqyvFZxIkCsWfbNg-SrZpWvFZ4SLcSFRehGI6ZTx5Jc7U1Xmho8PXNDmPVC45zSLOzrh6ufKwR7E9gm6cKdpCNT_8o9FOClk_EafYtKTsXJfiORjYpt8PXZre0YzLv68hy1j0q1XBHU5Ov0ewqi3DAxVD4_HjRYB85zMfeYWjDCS4ngtOhkIQ3LlB3yQr45dkr0RqSx3oDWd4rVrpGuzURFMnHdJ0Biqv73ZLOB2n9NYNXb2rQHfJTJPfdyfa6mStNo_U5oHyclT-zg903dFfAXgA0XXem859Ike3LicWLKxH3KnjU8d9LDddmQIvN8oM7_g4MxXdupHZTaEES7uwg8WGAGTE0LsiWl4fAgqqCjGqTHoMQCqJrVtBkgI4MdGGYQTTIYIeYdPk8ua9_UIJmxMLX29SYgUajkhd71tQjUwNlDaNpB-RSDYtGUwp6Lp9Qwwovj2D18YUAYF2Wk-2F9Gqoj7FPVzq2ybf_wH2rUcir9bCBd_hic2nyvwbRKGcaPA2o7lhg1tABuhe_UwO5_7MvQwHHh0ePH6bCrNn5m00]--></g></svg>