<?xml version="1.0" encoding="us-ascii" standalone="no"?><svg xmlns="http://www.w3.org/2000/svg" xmlns:xlink="http://www.w3.org/1999/xlink" contentStyleType="text/css" height="1037px" preserveAspectRatio="none" style="width:1232px;height:1037px;background:#FFFFFF;" version="1.1" viewBox="0 0 1232 1037" width="1232px" zoomAndPan="magnify"><defs/><g><!--cluster repos--><g id="cluster_repos"><path d="M157.3563,20.394 C162.2775,12.4438 172.0079,9.8665 177.0488,20.2656 C181.4443,13.9091 187.9227,13.9379 191.918,20.7185 C196.4432,11.0565 204.8317,9.2492 211.8988,17.953 C216.9942,11.1306 223.0305,9.0618 228.3116,17.7567 C234.8198,9.0096 243.1175,8.1992 248.672,18.7624 C251.4614,10.2338 259.0614,8.9836 264.4575,16.1388 C271.4289,6.5772 280.1602,8.4892 285.8883,17.5682 C289.6288,8.3595 297.0582,9.0205 302.4376,15.8803 C310.5036,6 316.4361,8.8698 322.2702,18.1862 C325.6715,9.6031 333.9614,10.5014 338.6257,16.7978 C346.4652,9.0852 352.1963,11.2718 356.4655,20.5471 C362.2771,10.8337 368.0751,11.3977 374.589,19.8464 C381.0031,10.8441 386.8408,13.6103 392.0078,21.159 C402.9971,10.8743 410.7515,12.7935 416.5,26.5076 C417.1894,25.6617 417.9458,26.0134 418.33,26.8413 C427.8497,31.5175 429.7765,42.2789 420.6311,48.902 C431.1141,54.8469 431.9883,63.4672 422.2593,70.9077 C431.6565,77.9045 431.8481,84.6381 421.8976,91.2917 C434.9715,97.8561 434.502,106.956 424.0662,115.6163 C432.2307,122.6901 431.0051,131.4191 421.3222,136.1023 C433.2128,141.5144 431.7232,151.882 421.6749,157.6532 C430.9245,164.3741 427.83,173.2483 418.5311,176.9469 C429.503,190.8757 424.283,199.3607 409.5,204.9976 C410.135,204.6282 410.5981,205.0188 410.5601,205.6859 C407.7597,215.155 399.775,216.8165 393.9281,208.5414 C387.844,218.9481 380.5683,217.1347 374.2394,208.7986 C368.5362,215.9781 361.6947,216.5444 356.9965,207.716 C353.0202,215.5687 345.4562,217.5012 339.7771,209.574 C332.8873,220.3841 326.4847,217.6441 319.8824,209.2757 C314.0615,215.5539 307.6505,216.0026 303.1553,207.7496 C299.2317,216.1054 290.9703,217.4245 285.2829,209.7112 C280.6187,220.2698 270.627,218.4454 265.1893,210.5536 C258.4052,219.5549 252.1534,217.5795 246.818,209.0366 C242.2209,217.3148 236.1748,216.9121 231.4236,209.1848 C224.796,217.7179 215.6372,216.1781 210.8352,207.0559 C204.6497,214.1057 198.2227,215.1492 193.2139,205.7922 C189.2658,214.0519 180.4714,217.0734 174.2655,208.3046 C162.3526,215.6445 151.4255,213.1244 148.5,197.9976 C150.1073,198.055 150.6901,199.0366 150.0082,200.4831 C139.2317,193.333 140.5046,185.5607 150.1338,178.5274 C138.1575,173.899 136.2956,165.1548 147.0908,157.2671 C137.2447,151.7848 134.4005,140.3137 145.891,133.7431 C137.6103,128.4798 136.6875,122.1799 144.5786,115.7377 C133.905,108.7417 135.0513,99.6129 146.0588,94.1001 C135.5342,85.583 136.3445,77.4623 147.8678,70.6457 C136.6309,63.4888 137.4186,52.5623 150.4181,48.1535 C136.2037,37.1651 141.3236,25.4593 155.5,19.5076 C156.4623,18.8435 157.2776,19.2075 157.3563,20.394 " fill="none" style="stroke:#181818;stroke-width:1.0;"/><text fill="#000000" font-family="sans-serif" font-size="14" font-weight="bold" lengthAdjust="spacing" textLength="91" x="237" y="38.0427">Repositories</text></g><!--cluster data_ldaca--><g id="cluster_data_ldaca"><path d="M180.5,72.5076 C180.5,62.5076 230.5,62.5076 230.5,62.5076 C230.5,62.5076 280.5,62.5076 280.5,72.5076 L280.5,170.9976 C280.5,180.9976 230.5,180.9976 230.5,180.9976 C230.5,180.9976 180.5,180.9976 180.5,170.9976 L180.5,72.5076 " fill="#90EE90" style="stroke:#181818;stroke-width:1.0;"/><path d="M180.5,72.5076 C180.5,82.5076 230.5,82.5076 230.5,82.5076 C230.5,82.5076 280.5,82.5076 280.5,72.5076 " fill="none" style="stroke:#181818;stroke-width:1.0;"/><text fill="#000000" font-family="sans-serif" font-size="14" font-style="italic" lengthAdjust="spacing" textLength="84" x="188.5" y="98.0427">&#171;repository&#187;</text><text fill="#000000" font-family="sans-serif" font-size="14" font-weight="bold" lengthAdjust="spacing" textLength="71" x="195" y="114.531">data.ldaca</text></g><!--cluster tabulator--><g id="cluster_tabulator"><rect fill="none" height="391.68" rx="2.5" ry="2.5" style="stroke:#181818;stroke-width:1.0;" width="334" x="397.5" y="492.4876"/><text fill="#000000" font-family="sans-serif" font-size="14" font-weight="bold" lengthAdjust="spacing" textLength="70" x="529.5" y="508.0227">Tabulator</text></g><!--entity api--><g id="elem_api"><rect fill="#F1F1F1" height="36.4883" rx="2.5" ry="2.5" style="stroke:#181818;stroke-width:0.5;" width="41" x="221" y="128.5076"/><text fill="#000000" font-family="sans-serif" font-size="14" lengthAdjust="spacing" textLength="21" x="231" y="152.0427">api</text></g><!--entity zenodo--><g id="elem_zenodo"><path d="M296.5,125.7676 C296.5,115.7676 348.5,115.7676 348.5,115.7676 C348.5,115.7676 400.5,115.7676 400.5,125.7676 L400.5,167.7441 C400.5,177.7441 348.5,177.7441 348.5,177.7441 C348.5,177.7441 296.5,177.7441 296.5,167.7441 L296.5,125.7676 " fill="#90EE90" style="stroke:#181818;stroke-width:0.5;"/><path d="M296.5,125.7676 C296.5,135.7676 348.5,135.7676 348.5,135.7676 C348.5,135.7676 400.5,135.7676 400.5,125.7676 " fill="none" style="stroke:#181818;stroke-width:0.5;"/><text fill="#000000" font-family="sans-serif" font-size="14" font-style="italic" lengthAdjust="spacing" textLength="84" x="306.5" y="153.3027">&#171;repository&#187;</text><text fill="#000000" font-family="sans-serif" font-size="14" lengthAdjust="spacing" textLength="52" x="322.5" y="169.791">Zenodo</text></g><!--entity ro_crate_dt--><g id="elem_ro_crate_dt"><rect fill="#FFC0CB" height="52.9766" rx="2.5" ry="2.5" style="stroke:#181818;stroke-width:0.5;" width="150" x="223.5" y="665.4576"/><text fill="#000000" font-family="sans-serif" font-size="14" font-style="italic" lengthAdjust="spacing" textLength="47" x="275" y="688.9927">&#171;code&#187;</text><text fill="#000000" font-family="sans-serif" font-size="14" lengthAdjust="spacing" textLength="130" x="233.5" y="705.481">RO-Crate-Abstract</text></g><!--entity crate_to_properties--><g id="elem_crate_to_properties"><rect fill="#FFC0CB" height="52.9766" rx="2.5" ry="2.5" style="stroke:#181818;stroke-width:0.5;" width="216" x="460.5" y="535.4876"/><text fill="#000000" font-family="sans-serif" font-size="14" font-style="italic" lengthAdjust="spacing" textLength="47" x="545" y="559.0227">&#171;code&#187;</text><text fill="#000000" font-family="sans-serif" font-size="14" lengthAdjust="spacing" textLength="196" x="470.5" y="575.511">RO-Crate to properties table</text></g><!--entity properties_to_entities--><g id="elem_properties_to_entities"><rect fill="#FFC0CB" height="52.9766" rx="2.5" ry="2.5" style="stroke:#181818;stroke-width:0.5;" width="238" x="449.5" y="665.4576"/><text fill="#000000" font-family="sans-serif" font-size="14" font-style="italic" lengthAdjust="spacing" textLength="47" x="545" y="688.9927">&#171;code&#187;</text><text fill="#000000" font-family="sans-serif" font-size="14" lengthAdjust="spacing" textLength="218" x="459.5" y="705.481">Properties table to entities table</text></g><!--entity csv--><g id="elem_csv"><rect fill="#FFC0CB" height="52.9766" rx="2.5" ry="2.5" style="stroke:#181818;stroke-width:0.5;" width="151" x="429" y="807.1976"/><text fill="#000000" font-family="sans-serif" font-size="14" font-style="italic" lengthAdjust="spacing" textLength="47" x="481" y="830.7327">&#171;code&#187;</text><text fill="#000000" font-family="sans-serif" font-size="14" lengthAdjust="spacing" textLength="131" x="439" y="847.221">Entities table to csv</text></g><!--entity ldaca_py--><g id="elem_ldaca_py"><rect fill="#FFC0CB" height="52.9766" rx="2.5" ry="2.5" style="stroke:#181818;stroke-width:0.5;" width="76" x="265.5" y="341.7476"/><text fill="#000000" font-family="sans-serif" font-size="14" font-style="italic" lengthAdjust="spacing" textLength="47" x="280" y="365.2827">&#171;code&#187;</text><text fill="#000000" font-family="sans-serif" font-size="14" lengthAdjust="spacing" textLength="56" x="275.5" y="381.771">ldaca.py</text></g><!--entity user_crate--><g id="elem_user_crate"><rect fill="#ADD8E6" height="52.9766" rx="2.5" ry="2.5" style="stroke:#181818;stroke-width:0.5;" width="92" x="583.5" y="341.7476"/><text fill="#000000" font-family="sans-serif" font-size="14" font-style="italic" lengthAdjust="spacing" textLength="44" x="607.5" y="365.2827">&#171;data&#187;</text><text fill="#000000" font-family="sans-serif" font-size="14" lengthAdjust="spacing" textLength="72" x="593.5" y="381.771">user-crate</text></g><!--entity corpus_loader--><g id="elem_corpus_loader"><ellipse cx="401.5" cy="963.6676" fill="#F1F1F1" rx="8" ry="8" style="stroke:#181818;stroke-width:0.5;"/><path d="M401.5,971.6676 L401.5,998.6676 M388.5,979.6676 L414.5,979.6676 M401.5,998.6676 L388.5,1013.6676 M401.5,998.6676 L414.5,1013.6676 " fill="none" style="stroke:#181818;stroke-width:0.5;"/><text fill="#000000" font-family="sans-serif" font-size="14" lengthAdjust="spacing" textLength="98" x="352.5" y="1028.7027">corpus_loader</text></g><!--entity user_csv--><g id="elem_user_csv"><ellipse cx="299.5" cy="803.9376" fill="#F1F1F1" rx="8" ry="8" style="stroke:#181818;stroke-width:0.5;"/><path d="M299.5,811.9376 L299.5,838.9376 M286.5,819.9376 L312.5,819.9376 M299.5,838.9376 L286.5,853.9376 M299.5,838.9376 L312.5,853.9376 " fill="none" style="stroke:#181818;stroke-width:0.5;"/><text fill="#000000" font-family="sans-serif" font-size="14" lengthAdjust="spacing" textLength="58" x="270.5" y="868.9727">user_csv</text></g><g id="elem_GMN25"><path d="M755.5,671.6376 L755.5,687.9476 L687.77,691.9476 L755.5,695.9476 L755.5,712.2587 A0,0 0 0 0 755.5,712.2587 L1209.5,712.2587 A0,0 0 0 0 1209.5,712.2587 L1209.5,681.6376 L1199.5,671.6376 L755.5,671.6376 A0,0 0 0 0 755.5,671.6376 " fill="#FEFFDD" style="stroke:#181818;stroke-width:0.5;"/><path d="M1199.5,671.6376 L1199.5,681.6376 L1209.5,681.6376 L1199.5,671.6376 " fill="#FEFFDD" style="stroke:#181818;stroke-width:0.5;"/><text fill="#000000" font-family="sans-serif" font-size="13" lengthAdjust="spacing" textLength="394" x="761.5" y="689.2059">This is a process that involves following some graph links and</text><text fill="#000000" font-family="sans-serif" font-size="13" lengthAdjust="spacing" textLength="433" x="761.5" y="704.5165">expanding like author.name author.age (this is difficult to do in SQL)</text></g><g id="elem_GMN28"><path d="M756,805.7176 L756,829.6776 L580.44,833.6776 L756,837.6776 L756,861.6492 A0,0 0 0 0 756,861.6492 L1225,861.6492 A0,0 0 0 0 1225,861.6492 L1225,815.7176 L1215,805.7176 L756,805.7176 A0,0 0 0 0 756,805.7176 " fill="#FEFFDD" style="stroke:#181818;stroke-width:0.5;"/><path d="M1215,805.7176 L1215,815.7176 L1225,815.7176 L1215,805.7176 " fill="#FEFFDD" style="stroke:#181818;stroke-width:0.5;"/><text fill="#000000" font-family="sans-serif" font-size="13" lengthAdjust="spacing" textLength="425" x="762" y="823.2859">Once tables are in SQL it is practial to use idiomatic SQL with them,</text><text fill="#000000" font-family="sans-serif" font-size="13" lengthAdjust="spacing" textLength="448" x="762" y="838.5965">eg joining on author IDs from a set of transcripts to get de-normalized</text><text fill="#000000" font-family="sans-serif" font-size="13" lengthAdjust="spacing" textLength="149" x="766" y="853.907">metadata per-utterance</text></g><!--entity analytics_operative--><g id="elem_analytics_operative"><ellipse cx="71.5" cy="338.4976" fill="#F1F1F1" rx="8" ry="8" style="stroke:#181818;stroke-width:0.5;"/><path d="M71.5,346.4976 L71.5,373.4976 M58.5,354.4976 L84.5,354.4976 M71.5,373.4976 L58.5,388.4976 M71.5,373.4976 L84.5,388.4976 " fill="none" style="stroke:#181818;stroke-width:0.5;"/><text fill="#000000" font-family="sans-serif" font-size="14" lengthAdjust="spacing" textLength="131" x="6" y="403.5327">Anayltics Operative</text></g><!--reverse link api to ldaca_py--><g id="link_api_ldaca_py"><path d="M248.101,171.1116 C259.021,209.7716 283.51,296.4876 296.26,341.6076 " fill="none" id="api-backto-ldaca_py" style="stroke:#181818;stroke-width:1.0;"/><polygon fill="#181818" points="246.47,165.3376,245.0671,175.086,247.8291,170.1493,252.7658,172.9114,246.47,165.3376" style="stroke:#181818;stroke-width:1.0;"/><text fill="#000000" font-family="sans-serif" font-size="13" lengthAdjust="spacing" textLength="54" x="283.5" y="273.5659">get_data</text></g><!--link ldaca_py to ro_crate_dt--><g id="link_ldaca_py_ro_crate_dt"><path d="M303.1,395.0176 C302.16,455.2576 299.9334,598.6883 298.9934,659.0483 " fill="none" id="ldaca_py-to-ro_crate_dt" style="stroke:#181818;stroke-width:1.0;"/><polygon fill="#181818" points="298.9,665.0476,303.0397,656.1109,298.9779,660.0482,295.0406,655.9864,298.9,665.0476" style="stroke:#181818;stroke-width:1.0;"/><text fill="#000000" font-family="sans-serif" font-size="13" lengthAdjust="spacing" textLength="30" x="302.5" y="567.0359">Uses</text></g><!--link tabulator to ro_crate_dt--><g id="link_tabulator_ro_crate_dt"><path d="M397.4644,572.583 C396.8143,573.3606 396.1305,574.1784 395.4153,575.0338 C389.6938,581.8769 381.9613,591.1251 373.345,601.4301 C356.1125,622.0401 339.1938,642.2746 323.9088,660.5546 " fill="none" id="tabulator-to-ro_crate_dt" style="stroke:#181818;stroke-width:1.0;"/><polygon fill="#181818" points="320.06,665.1576,328.9018,660.819,323.2673,661.3218,322.7646,655.6873,320.06,665.1576" style="stroke:#181818;stroke-width:1.0;"/><text fill="#000000" font-family="sans-serif" font-size="13" lengthAdjust="spacing" textLength="30" x="358.5" y="632.0259">Uses</text></g><!--link ldaca_py to crate_to_properties--><g id="link_ldaca_py_crate_to_properties"><path d="M311.18,394.7876 C319.68,418.2376 335.83,451.7776 362.5,468.4876 C380.27,479.6176 436.92,468.9876 456.5,476.4876 C489.94,489.2876 517.5179,511.1392 538.6779,530.9292 " fill="none" id="ldaca_py-to-crate_to_properties" style="stroke:#181818;stroke-width:1.0;"/><polygon fill="#181818" points="543.06,535.0276,539.2191,525.9585,539.4082,531.6122,533.7545,531.8014,543.06,535.0276" style="stroke:#181818;stroke-width:1.0;"/><text fill="#000000" font-family="sans-serif" font-size="13" lengthAdjust="spacing" textLength="134" x="409.5" y="450.0559">Pass RO-Crate object</text><text fill="#000000" font-family="sans-serif" font-size="13" lengthAdjust="spacing" textLength="226" x="363.5" y="465.3665">(w/ methods to fetch data from API)</text></g><!--link user_crate to crate_to_properties--><g id="link_user_crate_crate_to_properties"><path d="M621.27,395.0976 C609.6,431.7976 590.1695,492.8601 578.5095,529.5001 " fill="none" id="user_crate-to-crate_to_properties" style="stroke:#181818;stroke-width:1.0;"/><polygon fill="#181818" points="576.69,535.2176,583.2309,527.8543,578.2062,530.453,575.6076,525.4284,576.69,535.2176" style="stroke:#181818;stroke-width:1.0;"/><text fill="#000000" font-family="sans-serif" font-size="13" lengthAdjust="spacing" textLength="93" x="672" y="450.0559">Load RO-Crate</text><text fill="#000000" font-family="sans-serif" font-size="13" lengthAdjust="spacing" textLength="220" x="608.5" y="465.3665">(w/ methods to fetch data from FS)</text></g><!--link crate_to_properties to properties_to_entities--><g id="link_crate_to_properties_properties_to_entities"><path d="M568.5,588.8676 C568.5,611.0776 568.5,636.8976 568.5,659.0876 " fill="none" id="crate_to_properties-to-properties_to_entities" style="stroke:#181818;stroke-width:1.0;"/><polygon fill="#181818" points="568.5,665.0876,572.5,656.0876,568.5,660.0876,564.5,656.0876,568.5,665.0876" style="stroke:#181818;stroke-width:1.0;"/><text fill="#000000" font-family="sans-serif" font-size="13" lengthAdjust="spacing" textLength="115" x="569.5" y="632.0259">Make entity tables</text></g><!--link properties_to_entities to csv--><g id="link_properties_to_entities_csv"><path d="M556.61,718.9076 C545.12,743.9976 530.2997,776.3631 518.8197,801.4131 " fill="none" id="properties_to_entities-to-csv" style="stroke:#181818;stroke-width:1.0;"/><polygon fill="#181818" points="516.32,806.8676,523.7059,800.3523,518.4031,802.3222,516.4332,797.0194,516.32,806.8676" style="stroke:#181818;stroke-width:1.0;"/><text fill="#000000" font-family="sans-serif" font-size="13" lengthAdjust="spacing" textLength="241" x="542.5" y="762.0059">Make csv / dataframe / parquet / json</text></g><!--link csv to corpus_loader--><g id="link_csv_corpus_loader"><path d="M496.15,860.4776 C489.42,879.2776 478.89,904.8976 465.5,925.1676 C458.66,935.5276 454.2247,941.3427 445.6647,950.5527 " fill="none" id="csv-to-corpus_loader" style="stroke:#181818;stroke-width:1.0;"/><polygon fill="#181818" points="441.58,954.9476,450.637,951.0784,444.9839,951.2852,444.7772,945.6321,441.58,954.9476" style="stroke:#181818;stroke-width:1.0;"/><text fill="#000000" font-family="sans-serif" font-size="13" lengthAdjust="spacing" textLength="139" x="475.5" y="921.7359">Load corpus from CSV</text></g><!--link user_csv to corpus_loader--><g id="link_user_csv_corpus_loader"><path d="M289.88,872.3576 C287.55,889.4376 287.82,909.3076 296.5,925.1676 C308.5,947.1076 325.6938,960.2139 346.8338,970.9839 " fill="none" id="user_csv-to-corpus_loader" style="stroke:#181818;stroke-width:1.0;"/><polygon fill="#181818" points="352.18,973.7076,345.9765,966.0579,347.7249,971.4378,342.345,973.1862,352.18,973.7076" style="stroke:#181818;stroke-width:1.0;"/><text fill="#000000" font-family="sans-serif" font-size="13" lengthAdjust="spacing" textLength="163" x="297.5" y="921.7359">Load corpus from CSV file</text></g><!--reverse link analytics_operative to csv--><g id="link_analytics_operative_csv"><path d="M60.4257,412.8185 C48.5157,467.1685 35.94,563.0676 76.5,635.4576 C113.09,700.7676 316.08,773.4876 428.87,809.6476 " fill="none" id="analytics_operative-backto-csv" style="stroke:#181818;stroke-width:1.0;"/><polygon fill="#181818" points="61.71,406.9576,55.8762,414.8927,60.6397,411.8417,63.6908,416.6052,61.71,406.9576" style="stroke:#181818;stroke-width:1.0;"/><text fill="#000000" font-family="sans-serif" font-size="13" lengthAdjust="spacing" textLength="212" x="77.5" y="632.0259">Package data for specific purpose</text></g><!--reverse link repos to analytics_operative--><g id="link_repos_analytics_operative"><path d="M137.3133,165.567 C136.3623,167.1229 137.7919,164.8213 136.7367,166.5833 C134.6264,170.1074 132.3288,174.0207 129.9275,178.2301 C120.3225,195.0676 109.06,216.6426 101.5,236.9976 C90.23,267.3376 82.34,303.2876 77.48,329.7276 " fill="none" id="repos-backto-analytics_operative" style="stroke:#181818;stroke-width:1.0;"/><polygon fill="#181818" points="140.4536,160.4544,132.3348,166.0299,137.8367,164.7149,139.1516,170.2168,140.4536,160.4544" style="stroke:#181818;stroke-width:1.0;"/><text fill="#000000" font-family="sans-serif" font-size="13" lengthAdjust="spacing" textLength="150" x="105" y="250.5659">Deposit curated dataset</text><text fill="#000000" font-family="sans-serif" font-size="13" lengthAdjust="spacing" textLength="155" x="102.5" y="265.8765">with supporting material</text><text fill="#000000" font-family="sans-serif" font-size="13" lengthAdjust="spacing" textLength="138" x="111" y="281.187">eg links to notebooks</text><text fill="#000000" font-family="sans-serif" font-size="13" lengthAdjust="spacing" textLength="130" x="115" y="296.4976">that explain the data</text></g><!--SRC=[bLLDRniv3BtFho1yIe1rUW-206dwWG0facswUoW26BI67YkMHQsaSTOjyjzBIcF7SPqiTc0RqeZlaNoawBImFc349VniG9v89gFl70rxVTwZMNIHUzzUikDuTcQufVDpkBL-yRfHYnd5wFggc-VthgTY-IJVij3JAIRIzHkU8WLEDdDSAvKLgi-Ho5UkyjiyDOrntBSm-henjfH6W0aAMkYtpaQwEd4j6Ym6kfsKBUpvsbS3WrLFErJVoNFBXUP7MHwc49JWdeb6nTr9M1TasKp26ZQYlZ3j4yMnYPYf6EjsKhQmaVU5-TURyQMUZY-cAKSqkOh05JDfyzRBpwOaiuFzXjFUeKHUC7cpaoGEUO3C4287YbcqLdDNGwoUCazsJW-cThk7LaRosUxnFTCewTRW8EN75t0bD6bLeqgh7SXJirLzt8VnkTRs53hA4zLqvx3bHo_7EmAUmb-9KlCip-islz4SaEOKRZ4bsAhAqmT9vzuVFRw39UKvjqdJc54syzAhC8kyX8lRg-DcfndUz73Ds6uz_2VrfxlZvb0DDouEr-CKlk22QltMLVxKl5AwRR1fDS2qEkzA33EPGoHh6KZ_z9HbzP3ODsgmXN4CVPeuoOhYa5rzLnEulFjxaER_WM1c7JMDPz4pwfm1dhsIRRdMt-OsWNnGZGn95VCSCrY_OhUID6Vi73zQtq5YoQcB6ERWP60AnBTr1jA_GTPguwpeWBsK9PvurM1OOqTmb0TNhPtDhEbTriB9kB4UxlwyFcv8-3Jk_UX5WUBcnXiQYW8OQS21pKeQT4vOTCefke5jBIynMrDi7csUIsAq_AC6tC43MwyHinzYXAiFWue8YOfZcJq-cMX3BZqcDmjQ6dkEItJs1xLrt4iNOcayaNZSvqo2ChIJZGGczACBZsid0IMu4Ki9RLL70tfqQtq_uSrxmVp-4ivg6vG-qnjd5YfhxNbna08PAy92wADCRph8KGT5_JyHaWzrpeFfzQwqXKoIl_T5iDI7mD8s8fD8IL7alVVK3UKNHJI_AVCYtVlIDT883gKiedIXQdu1]--></g></svg>