<?xml version="1.0" encoding="UTF-8" standalone="no"?><svg xmlns="http://www.w3.org/2000/svg" xmlns:xlink="http://www.w3.org/1999/xlink" contentStyleType="text/css" height="598px" preserveAspectRatio="none" style="width:969px;height:598px;background:#FFFFFF;" version="1.1" viewBox="0 0 969 598" width="969px" zoomAndPan="magnify"><defs/><g><!--entity atap--><g id="elem_atap"><rect fill="#F1F1F1" height="36.4883" rx="2.5" ry="2.5" style="stroke:#181818;stroke-width:0.5;" width="207" x="129.5" y="208.6947"/><text fill="#000000" font-family="sans-serif" font-size="14" lengthAdjust="spacing" textLength="187" x="139.5" y="232.2298">ATAP analytics (notebooks)</text></g><!--entity oni--><g id="elem_oni"><rect fill="#FFFF00" height="52.9766" rx="2.5" ry="2.5" style="stroke:#181818;stroke-width:0.5;" width="225" x="371.5" y="200.1947"/><text fill="#000000" font-family="sans-serif" font-size="14" font-style="italic" lengthAdjust="spacing" textLength="36" x="466" y="223.7298">«oni»</text><text fill="#000000" font-family="sans-serif" font-size="14" lengthAdjust="spacing" textLength="205" x="381.5" y="240.2181">LDaCA Search / browse portal</text></g><!--entity elastic--><g id="elem_elastic"><rect fill="#FFFF00" height="52.9766" rx="2.5" ry="2.5" style="stroke:#181818;stroke-width:0.5;" width="168" x="174" y="330.1947"/><text fill="#000000" font-family="sans-serif" font-size="14" font-style="italic" lengthAdjust="spacing" textLength="36" x="240" y="353.7298">«oni»</text><text fill="#000000" font-family="sans-serif" font-size="14" lengthAdjust="spacing" textLength="148" x="184" y="370.2181">Full text search index</text></g><!--entity api--><g id="elem_api"><rect fill="#FFFF00" height="52.9766" rx="2.5" ry="2.5" style="stroke:#181818;stroke-width:0.5;" width="141" x="413.5" y="330.1947"/><text fill="#000000" font-family="sans-serif" font-size="14" font-style="italic" lengthAdjust="spacing" textLength="36" x="466" y="353.7298">«oni»</text><text fill="#000000" font-family="sans-serif" font-size="14" lengthAdjust="spacing" textLength="121" x="423.5" y="370.2181">Data &amp; Access API</text></g><!--entity ocfl--><g id="elem_ocfl"><path d="M360.5,470.1947 C360.5,460.1947 484,460.1947 484,460.1947 C484,460.1947 607.5,460.1947 607.5,470.1947 L607.5,495.683 C607.5,505.683 484,505.683 484,505.683 C484,505.683 360.5,505.683 360.5,495.683 L360.5,470.1947 " fill="#F1F1F1" style="stroke:#181818;stroke-width:0.5;"/><path d="M360.5,470.1947 C360.5,480.1947 484,480.1947 484,480.1947 C484,480.1947 607.5,480.1947 607.5,470.1947 " fill="none" style="stroke:#181818;stroke-width:0.5;"/><text fill="#000000" font-family="sans-serif" font-size="14" lengthAdjust="spacing" textLength="227" x="370.5" y="497.7298">LDaCA file-based data repository</text></g><!--entity auth--><g id="elem_auth"><path d="M515.0241,24.1304 C520.5324,15.0378 528.2537,15.1238 534.0707,23.7996 C539.1167,12.8882 546.5826,12.7782 553.4402,22.062 C559.5454,13.4866 567.0396,13.8975 572.5621,22.7031 C576.4219,14.3497 585.7842,12.3497 591.7675,20.1838 C599.022,9.6282 607.4503,10.996 614.1569,20.7867 C617.557,10.7449 626.4326,9.7556 633.2148,17.0737 C638.9065,7.4284 645.3876,8.6599 651.4776,16.6615 C657.423,8.8066 664.484,7.8494 670.2487,16.8626 C678.3836,6 688.5983,10.5208 692.325,21.3491 C699.6821,10.7439 706.0394,13.8155 712.5526,22.2458 C718.7072,13.7043 724.2221,15.3576 729.1004,23.511 C733.2608,12.0377 743.132,12.8928 749.4929,21.2479 C757.7993,10.6792 764.7484,12.0424 771.8759,22.5026 C777.5355,15.3259 783.8315,15.758 788.1913,23.8881 C791.7059,25.6204 792.242,28.286 789.1013,30.884 C793.306,33.5102 794.1586,36.0512 789.8379,39.4137 C792.7093,41.7299 793.3797,44.6524 789.4859,46.639 C795.2136,50.0134 795.0833,53.6937 789.4859,57.0682 C782.6829,65.8455 775.4383,64.9302 771.3021,54.5384 C765.7826,67.3702 757.3834,66.5645 748.6295,57.9593 C741.8208,67.7445 735.9536,65.7751 729.9034,57.1864 C725.3416,67.7667 716.0656,66.3414 710.7218,57.9782 C704.8848,68.1287 698.0182,69.6459 690.8853,59.228 C684.1244,67.6851 678.1671,67.5328 671.9899,58.594 C665.7492,68.7438 658.6736,68.6212 652.7236,58.3202 C647.0509,70.0046 638.578,71.1042 631.1375,59.9942 C623.97,65.7982 617.6078,65.5222 613.8453,56.1217 C606.98,66.7242 599.285,66.9407 592.7795,55.7736 C587.6991,64.142 578.145,65.7309 573.1073,55.7278 C566.8009,64.6924 559.2742,66.9163 551.9994,56.799 C546.2249,65.5006 537.7311,64.7603 534.1101,54.7411 C527.9472,64.2013 518.8926,65.2106 513.4121,54.056 C509.4693,52.9277 508.1747,49.3024 511.184,46.202 C506.862,45.8696 504.7998,42.6055 507.431,38.7644 C505.4518,35.1325 506.0071,31.5352 511.0882,31.4183 C508.8329,26.949 509.8223,24.5725 515.0241,24.1304 " fill="#F1F1F1" style="stroke:#181818;stroke-width:0.5;"/><text fill="#000000" font-family="sans-serif" font-size="14" lengthAdjust="spacing" textLength="262" x="519" y="43.7298">Authentication &amp; Group services (AAF)</text></g><g id="elem_GMN13"><path d="M6,566.1947 L6,591.5052 L962,591.5052 L962,576.1947 L952,566.1947 L6,566.1947 " fill="#FFFFFF" style="stroke:#181818;stroke-width:0.5;"/><path d="M952,566.1947 L952,576.1947 L962,576.1947 L952,566.1947 " fill="#FFFFFF" style="stroke:#181818;stroke-width:1.0;"/><text fill="#000000" font-family="sans-serif" font-size="13" lengthAdjust="spacing" textLength="935" x="12" y="583.763">All data stored using the Research Object Crate metadata specification, with an OLAC-derived metadata schema and with re-use license information</text></g><!--link atap to api--><g id="link_atap_api"><path d="M267.11,245.0947 C308.41,266.1547 378.55,301.9247 427.87,327.0647 " fill="none" id="atap-to-api" style="stroke:#181818;stroke-width:1.0;"/><polygon fill="#181818" points="432.12,329.2347,425.9174,321.5843,427.6651,326.9644,422.285,328.7121,432.12,329.2347" style="stroke:#181818;stroke-width:1.0;"/><text fill="#000000" font-family="sans-serif" font-size="13" lengthAdjust="spacing" textLength="90" x="375" y="296.763">Consume data</text></g><!--link oni to api--><g id="link_oni_api"><path d="M484,260.0847 C484,279.4947 484,304.0847 484,323.4747 " fill="none" id="oni-api" style="stroke:#181818;stroke-width:1.0;"/><polygon fill="#181818" points="484,255.1147,480,264.1147,484,260.1147,488,264.1147,484,255.1147" style="stroke:#181818;stroke-width:1.0;"/><polygon fill="#181818" points="484,328.3147,488,319.3147,484,323.3147,480,319.3147,484,328.3147" style="stroke:#181818;stroke-width:1.0;"/></g><!--link auth to api--><g id="link_auth_api"><path d="M651.48,67.9447 C652.39,111.2247 648.89,194.3147 614,253.1947 C595.87,283.7947 564.89,308.7647 537.72,326.3947 " fill="none" id="auth-api" style="stroke:#181818;stroke-width:1.0;"/><polygon fill="#181818" points="651.35,63.1147,647.6087,72.2253,651.4928,68.1126,655.6054,71.9968,651.35,63.1147" style="stroke:#181818;stroke-width:1.0;"/><polygon fill="#181818" points="533.62,329.0047,543.3559,327.5176,537.8301,326.3074,539.0403,320.7815,533.62,329.0047" style="stroke:#181818;stroke-width:1.0;"/><text fill="#000000" font-family="sans-serif" font-size="13" lengthAdjust="spacing" textLength="99" x="647" y="166.763">Authorize users</text></g><!--link elastic to api--><g id="link_elastic_api"><path d="M342.48,356.6947 C363.61,356.6947 386.17,356.6947 406.92,356.6947 " fill="none" id="elastic-to-api" style="stroke:#181818;stroke-width:1.0;"/><polygon fill="#181818" points="411.79,356.6947,402.79,352.6947,406.79,356.6947,402.79,360.6947,411.79,356.6947" style="stroke:#181818;stroke-width:1.0;"/><text fill="#000000" font-family="sans-serif" font-size="13" lengthAdjust="spacing" textLength="35" x="360.25" y="350.263">index</text></g><!--link api to ocfl--><g id="link_api_ocfl"><path d="M484,383.6847 C484,404.1547 484,432.6347 484,453.6147 " fill="none" id="api-to-ocfl" style="stroke:#181818;stroke-width:1.0;"/><polygon fill="#181818" points="484,458.3547,488,449.3547,484,453.3547,480,449.3547,484,458.3547" style="stroke:#181818;stroke-width:1.0;"/><text fill="#000000" font-family="sans-serif" font-size="13" lengthAdjust="spacing" textLength="271" x="485" y="426.763">Mediate secure access according to license</text></g><!--link ocfl to GMN13--><g id="link_ocfl_GMN13"><path d="M484,505.4947 C484,524.2647 484,550.6347 484,565.7647 " fill="none" id="ocfl-GMN13" style="stroke:#181818;stroke-width:1.0;stroke-dasharray:7.0,7.0;"/></g><!--SRC=[ZPB1Qjmm48RlVefX3oM1cDx3ig0uf1HI4jg-m5WQhzMLDKQIusnBtprZsTvasKjyiP3cd_-VJue7wtiCs44WdT3l7TMe3_l0WpSLEmxRBNkxsy6HdEEnY2U1mOGrna_NUqvqTruBOsiJ5VATt66ZVgjdG8_kcAoES3NfQkP3lDu0HX3N7luLnVypqUCzLWf-4GRTmbUe0u-HeEUGq6rWpIHoMLog7mRd8D5hWZXtiDxGwvcE74R9Swczbq3m1PJM52Eev-zdCknNknNNchMnZiffmsIImh_dQ1E7umPoKDsuHQeT3qR03AabBo4mMVRY-Kr8zX8vl5WnXokb7XP6KhbeCwxIyEZBNKvp2nNxE7IKROk9n_R3UP6rstBUEcacRmxsBy4WVh5OSPmACh5YMg_DyW2ty8ECnKGIKm-106TEykDWhDz3Od0ItqTv1zDLGyqfSGVSh1sKN4v658MEu1fYrhK4FscvhwVwZzm8L65owYZXND-Jjit2wmP6AvEXXwT7LPM6WdsHPk_5kgKEvTpCXO5A6NND9lCr7BhSIPxh6m00]--></g></svg>