<?xml version="1.0" encoding="UTF-8" standalone="no"?><svg xmlns="http://www.w3.org/2000/svg" xmlns:xlink="http://www.w3.org/1999/xlink" contentStyleType="text/css" height="636px" preserveAspectRatio="none" style="width:969px;height:636px;background:#FFFFFF;" version="1.1" viewBox="0 0 969 636" width="969px" zoomAndPan="magnify"><defs/><g><!--cluster atap--><g id="cluster_atap"><path d="M552.1225,207.027 C558.6791,195.4441 566.4931,191.226 577.0093,202.7651 C584.7282,188.8301 595.3349,188.941 602.886,202.9207 C609.5428,190.8174 621.22,191.0219 628.5988,202.1205 C636.7896,189.2683 645.5162,187.9424 655.7386,199.8979 C663.5726,188.6715 673.6414,188.6125 679.1933,202.0666 C686.3974,190.5343 693.8809,187.8438 704.4829,198.1278 C714.2229,184.6283 722.3353,186.5516 731.1068,199.1169 C737.1686,186.5824 749.2583,185.328 756.4806,197.9462 C765.0827,185.7631 774.5046,186.4789 782.4442,198.6524 C791.9359,187.6221 803.5592,189.8758 810.0089,202.2371 C816.9095,191.1579 827.8289,191.3141 835.0999,201.8063 C842.2742,188.2483 853.4805,188.3437 861.5257,200.9259 C869.8307,190.4394 881.1289,189.2261 887.3521,203.1302 C899.4122,189.2856 909.8639,195.055 916,209.1947 C918.1854,208.6221 919.416,209.367 918.9493,211.7984 C935.6382,223.0374 935.2928,236.628 920.5992,249.2495 C938.7746,267.3206 929.9598,282.4876 909,289.1947 C910.9007,290.2633 911.2285,292.1986 909.207,293.4577 C901.6321,304.1917 892.6465,300.0961 887.7471,290.6171 C879.5687,304.5986 870.3136,304.4289 861.3396,291.3948 C853.1039,305.5629 839.9198,302.9311 832.6258,290.3827 C825.9345,300.598 818.1284,301.8124 811.005,290.8234 C803.9291,303.9965 791.9648,306.3003 781.7475,294.5043 C773.4089,306.8337 764.6634,305.5083 757.7838,293.0915 C750.4407,308.0015 740.1244,309.2485 729.6694,296.2234 C722.3072,305.7024 713.5519,304.1341 707.5926,294.5948 C699.76,307.4855 686.5637,307.5779 679.2216,294.0676 C671.4978,307.8973 658.8499,306.8448 653.1584,292.207 C644.2775,302.5727 635.6154,302.0289 628.4736,290.267 C622.8708,302.8627 612.9222,303.3181 603.7825,294.3094 C593.8081,307.8402 582.0787,305.8104 575.0609,291.2829 C559.4414,304.49 548.8157,301.0138 542,282.1947 C542.6167,281.1433 543.5454,281.3048 544.0517,282.305 C524.8198,273.1561 524.6028,260.9297 538.7169,246.774 C523.0445,228.4968 525.8423,211.515 549,202.1947 C552.4102,201.7976 553.9422,204.0447 552.1225,207.027 " fill="none" style="stroke:#181818;stroke-width:1.0;"/><text fill="#000000" font-family="sans-serif" font-size="14" font-weight="bold" lengthAdjust="spacing" textLength="195" x="629" y="220.7298">ATAP analytics 'Ecosystem'</text></g><!--entity Git service--><g id="elem_Git service"><rect fill="#F1F1F1" height="36.4883" rx="2.5" ry="2.5" style="stroke:#181818;stroke-width:0.5;" width="90" x="810" y="237.1947"/><text fill="#000000" font-family="sans-serif" font-size="14" lengthAdjust="spacing" textLength="70" x="820" y="260.7298">Git service</text></g><!--entity BinderHub Launch Service--><g id="elem_BinderHub Launch Service"><rect fill="#F1F1F1" height="36.4883" rx="2.5" ry="2.5" style="stroke:#181818;stroke-width:0.5;" width="197" x="577.5" y="237.1947"/><text fill="#000000" font-family="sans-serif" font-size="14" lengthAdjust="spacing" textLength="177" x="587.5" y="260.7298">BinderHub Launch Service</text></g><!--entity oni--><g id="elem_oni"><rect fill="#FFFF00" height="52.9766" rx="2.5" ry="2.5" style="stroke:#181818;stroke-width:0.5;" width="225" x="205.5" y="228.6947"/><text fill="#000000" font-family="sans-serif" font-size="14" font-style="italic" lengthAdjust="spacing" textLength="36" x="300" y="252.2298">«oni»</text><text fill="#000000" font-family="sans-serif" font-size="14" lengthAdjust="spacing" textLength="205" x="215.5" y="268.7181">LDaCA Search / browse portal</text></g><!--entity elastic--><g id="elem_elastic"><rect fill="#FFFF00" height="52.9766" rx="2.5" ry="2.5" style="stroke:#181818;stroke-width:0.5;" width="168" x="174" y="368.1947"/><text fill="#000000" font-family="sans-serif" font-size="14" font-style="italic" lengthAdjust="spacing" textLength="36" x="240" y="391.7298">«oni»</text><text fill="#000000" font-family="sans-serif" font-size="14" lengthAdjust="spacing" textLength="148" x="184" y="408.2181">Full text search index</text></g><!--entity api--><g id="elem_api"><rect fill="#FFFF00" height="52.9766" rx="2.5" ry="2.5" style="stroke:#181818;stroke-width:0.5;" width="141" x="413.5" y="368.1947"/><text fill="#000000" font-family="sans-serif" font-size="14" font-style="italic" lengthAdjust="spacing" textLength="36" x="466" y="391.7298">«oni»</text><text fill="#000000" font-family="sans-serif" font-size="14" lengthAdjust="spacing" textLength="121" x="423.5" y="408.2181">Data &amp; Access API</text></g><!--entity ocfl--><g id="elem_ocfl"><path d="M360.5,508.1947 C360.5,498.1947 484,498.1947 484,498.1947 C484,498.1947 607.5,498.1947 607.5,508.1947 L607.5,533.683 C607.5,543.683 484,543.683 484,543.683 C484,543.683 360.5,543.683 360.5,533.683 L360.5,508.1947 " fill="#F1F1F1" style="stroke:#181818;stroke-width:0.5;"/><path d="M360.5,508.1947 C360.5,518.1947 484,518.1947 484,518.1947 C484,518.1947 607.5,518.1947 607.5,508.1947 " fill="none" style="stroke:#181818;stroke-width:0.5;"/><text fill="#000000" font-family="sans-serif" font-size="14" lengthAdjust="spacing" textLength="227" x="370.5" y="535.7298">LDaCA file-based data repository</text></g><!--entity auth--><g id="elem_auth"><path d="M349.0241,24.1304 C354.5324,15.0378 362.2537,15.1238 368.0707,23.7996 C373.1167,12.8882 380.5826,12.7782 387.4402,22.062 C393.5454,13.4866 401.0396,13.8975 406.5621,22.7031 C410.4219,14.3497 419.7842,12.3497 425.7675,20.1838 C433.022,9.6282 441.4503,10.996 448.1569,20.7867 C451.557,10.7449 460.4326,9.7556 467.2148,17.0737 C472.9065,7.4284 479.3876,8.6599 485.4776,16.6615 C491.423,8.8066 498.484,7.8494 504.2487,16.8626 C512.3836,6 522.5983,10.5208 526.325,21.3491 C533.6821,10.7439 540.0394,13.8155 546.5526,22.2458 C552.7072,13.7043 558.2221,15.3576 563.1004,23.511 C567.2608,12.0377 577.132,12.8928 583.4929,21.2479 C591.7993,10.6792 598.7484,12.0424 605.8759,22.5026 C611.5355,15.3259 617.8315,15.758 622.1913,23.8881 C625.7059,25.6204 626.242,28.286 623.1013,30.884 C627.306,33.5102 628.1586,36.0512 623.8379,39.4137 C626.7093,41.7299 627.3797,44.6524 623.4859,46.639 C629.2136,50.0134 629.0833,53.6937 623.4859,57.0682 C616.6829,65.8455 609.4383,64.9302 605.3021,54.5384 C599.7826,67.3702 591.3834,66.5645 582.6295,57.9593 C575.8208,67.7445 569.9536,65.7751 563.9034,57.1864 C559.3416,67.7667 550.0656,66.3414 544.7218,57.9782 C538.8848,68.1287 532.0182,69.6459 524.8853,59.228 C518.1244,67.6851 512.1671,67.5328 505.9899,58.594 C499.7492,68.7438 492.6736,68.6212 486.7236,58.3202 C481.0509,70.0046 472.578,71.1042 465.1375,59.9942 C457.97,65.7982 451.6078,65.5222 447.8453,56.1217 C440.98,66.7242 433.285,66.9407 426.7795,55.7736 C421.6991,64.142 412.145,65.7309 407.1073,55.7278 C400.8009,64.6924 393.2742,66.9163 385.9994,56.799 C380.2249,65.5006 371.7311,64.7603 368.1101,54.7411 C361.9472,64.2013 352.8926,65.2106 347.4121,54.056 C343.4693,52.9277 342.1747,49.3024 345.184,46.202 C340.862,45.8696 338.7998,42.6055 341.431,38.7644 C339.4518,35.1325 340.0071,31.5352 345.0882,31.4183 C342.8329,26.949 343.8223,24.5725 349.0241,24.1304 " fill="#F1F1F1" style="stroke:#181818;stroke-width:0.5;"/><text fill="#000000" font-family="sans-serif" font-size="14" lengthAdjust="spacing" textLength="262" x="353" y="43.7298">Authentication &amp; Group services (AAF)</text></g><g id="elem_GMN15"><path d="M6,604.1947 L6,629.5052 L962,629.5052 L962,614.1947 L952,604.1947 L6,604.1947 " fill="#FFFFFF" style="stroke:#181818;stroke-width:0.5;"/><path d="M952,604.1947 L952,614.1947 L962,614.1947 L952,604.1947 " fill="#FFFFFF" style="stroke:#181818;stroke-width:1.0;"/><text fill="#000000" font-family="sans-serif" font-size="13" lengthAdjust="spacing" textLength="935" x="12" y="621.763">All data stored using the Research Object Crate metadata specification, with an OLAC-derived metadata schema and with re-use license information</text></g><!--link atap to api--><g id="link_atap_api"><path d="M533.9409,275.2965 C533.8861,275.4264 533.831,275.5569 533.7758,275.6878 C533.5548,276.2117 533.3305,276.7435 533.1029,277.2831 C532.6477,278.3622 532.1794,279.4722 531.6993,280.6105 C529.7788,285.1636 527.6675,290.1691 525.435,295.4622 C516.505,316.6347 505.635,342.4097 497.27,362.2447 " fill="none" id="atap-to-api" style="stroke:#181818;stroke-width:1.0;"/><polygon fill="#181818" points="495.46,366.5147,502.6391,359.7722,497.4003,361.9065,495.266,356.6677,495.46,366.5147" style="stroke:#181818;stroke-width:1.0;"/><text fill="#000000" font-family="sans-serif" font-size="13" lengthAdjust="spacing" textLength="90" x="514" y="334.763">Consume data</text></g><!--link oni to api--><g id="link_oni_api"><path d="M354.2,286.1847 C381.99,309.1947 420.17,340.8247 447.93,363.8147 " fill="none" id="oni-api" style="stroke:#181818;stroke-width:1.0;"/><polygon fill="#181818" points="350.39,283.0247,354.7626,291.8497,354.2381,286.2172,359.8706,285.6927,350.39,283.0247" style="stroke:#181818;stroke-width:1.0;"/><polygon fill="#181818" points="451.47,366.7447,447.1135,357.9117,447.6277,363.5452,441.9943,364.0594,451.47,366.7447" style="stroke:#181818;stroke-width:1.0;"/></g><!--link auth to api--><g id="link_auth_api"><path d="M484,67.8447 C484,133.1847 484,292.8347 484,361.4647 " fill="none" id="auth-api" style="stroke:#181818;stroke-width:1.0;"/><polygon fill="#181818" points="484,63.1547,480,72.1547,484,68.1547,488,72.1547,484,63.1547" style="stroke:#181818;stroke-width:1.0;"/><polygon fill="#181818" points="484,366.3047,488,357.3047,484,361.3047,480,357.3047,484,366.3047" style="stroke:#181818;stroke-width:1.0;"/><text fill="#000000" font-family="sans-serif" font-size="13" lengthAdjust="spacing" textLength="99" x="485" y="166.763">Authorize users</text></g><!--link elastic to api--><g id="link_elastic_api"><path d="M342.48,394.6947 C363.61,394.6947 386.17,394.6947 406.92,394.6947 " fill="none" id="elastic-to-api" style="stroke:#181818;stroke-width:1.0;"/><polygon fill="#181818" points="411.79,394.6947,402.79,390.6947,406.79,394.6947,402.79,398.6947,411.79,394.6947" style="stroke:#181818;stroke-width:1.0;"/><text fill="#000000" font-family="sans-serif" font-size="13" lengthAdjust="spacing" textLength="35" x="360.25" y="388.263">index</text></g><!--link api to ocfl--><g id="link_api_ocfl"><path d="M484,421.6847 C484,442.1547 484,470.6347 484,491.6147 " fill="none" id="api-to-ocfl" style="stroke:#181818;stroke-width:1.0;"/><polygon fill="#181818" points="484,496.3547,488,487.3547,484,491.3547,480,487.3547,484,496.3547" style="stroke:#181818;stroke-width:1.0;"/><text fill="#000000" font-family="sans-serif" font-size="13" lengthAdjust="spacing" textLength="271" x="485" y="464.763">Mediate secure access according to license</text></g><!--link ocfl to GMN15--><g id="link_ocfl_GMN15"><path d="M484,543.4947 C484,562.2647 484,588.6347 484,603.7647 " fill="none" id="ocfl-GMN15" style="stroke:#181818;stroke-width:1.0;stroke-dasharray:7.0,7.0;"/></g><!--SRC=[ZLDTRzGm47pFhrZbWO94n7jrEYbDQK4wr0hu0njdSp5rl94_cXwe_vsDBxxsw0j-YMNFxCpEElv1smaTZk181RHxGosgXxtZQBk63RlDXgtURk50nl1S-1EXmu0j-l_6MmvqTOw5UT212bdASEoWh7_Mzu0MpI5evU7Yis9_y8762oW1FOZa17yAa7No2-Mj3k39FMf5fTocw-T_GLVQTkI-n1Ps6AqQuCSB0zQrCf-BuXLnTurDBMXqGle4hUFP4qpi0feIShjYJZQB-Zdx9Xe3WPuMXwd2OkFfZ4S6lRJxbdijxS8xg9KYxw6-_tf6modBvKbahxqsL2q7NHgIf32nru7TeOHaLFLcfURSOnZ8YWaCcgretigGfXogX_TrVVFXE051hjmqZAhZsLRRvEOI6hO-ZfHaYoMFpQlx8d4trV7en5cqsUdV157qV97ZE05IOiMopyLI0vVmZJgDWSIcYeu0Zpd9XrsdxHu2Wn7xriiJMruVj1m2Zy1zhb3BS594NjAHkA9Fl87WEwtpkcj_oKIWSOlII06F-8cKxjUyFiAifJEqSBUhcqgUcNwKOYzWDT28SjyTWOugQJLxa_vwTcEg97_2Nm00]--></g></svg>