<svg xmlns="http://www.w3.org/2000/svg" xmlns:xlink="http://www.w3.org/1999/xlink" contentStyleType="text/css" data-diagram-type="CLASS" height="610px" preserveAspectRatio="none" style="width:1084px;height:610px;background:#FFFFFF;" version="1.1" viewBox="0 0 1084 610" width="1084px" zoomAndPan="magnify"><title>Oni Architecture</title><defs/><g><text fill="#000000" font-family="sans-serif" font-size="14" font-weight="bold" lengthAdjust="spacing" textLength="118.5215" x="475.7393" y="23.5352">Oni Architecture</text><!--cluster Discovery Index--><g id="cluster_Discovery Index"><path d="M6,491.0883 C6,481.0883 536.5,481.0883 536.5,481.0883 C536.5,481.0883 1067,481.0883 1067,491.0883 L1067,583.2883 C1067,593.2883 536.5,593.2883 536.5,593.2883 C536.5,593.2883 6,593.2883 6,583.2883 L6,491.0883 " fill="#FFFFFF" fill-opacity="0.00000" style="stroke:#181818;stroke-width:1;"/><path d="M6,491.0883 C6,501.0883 536.5,501.0883 536.5,501.0883 C536.5,501.0883 1067,501.0883 1067,491.0883 " fill="#FFFFFF" fill-opacity="0.00000" style="stroke:#181818;stroke-width:1;"/><text fill="#000000" font-family="sans-serif" font-size="18" font-weight="bold" lengthAdjust="spacing" textLength="148.1133" x="462.4434" y="520.4906">Discovery Index</text></g><!--cluster Data and license index--><g id="cluster_Data and license index"><path d="M503,53.4883 C503,43.4883 695,43.4883 695,43.4883 C695,43.4883 887,43.4883 887,53.4883 L887,145.6883 C887,155.6883 695,155.6883 695,155.6883 C695,155.6883 503,155.6883 503,145.6883 L503,53.4883 " fill="#FFFFFF" fill-opacity="0.00000" style="stroke:#181818;stroke-width:1;"/><path d="M503,53.4883 C503,63.4883 695,63.4883 695,63.4883 C695,63.4883 887,63.4883 887,53.4883 " fill="#FFFFFF" fill-opacity="0.00000" style="stroke:#181818;stroke-width:1;"/><text fill="#000000" font-family="sans-serif" font-size="18" font-weight="bold" lengthAdjust="spacing" textLength="210.0234" x="589.9883" y="82.8906">Data and license index</text></g><!--cluster repo--><g id="cluster_repo"><path d="M412,317.8883 C412,307.8883 604,307.8883 604,307.8883 C604,307.8883 796,307.8883 796,317.8883 L796,410.0883 C796,420.0883 604,420.0883 604,420.0883 C604,420.0883 412,420.0883 412,410.0883 L412,317.8883 " fill="#FFFFFF" fill-opacity="0.00000" style="stroke:#181818;stroke-width:1;"/><path d="M412,317.8883 C412,327.8883 604,327.8883 604,327.8883 C604,327.8883 796,327.8883 796,317.8883 " fill="#FFFFFF" fill-opacity="0.00000" style="stroke:#181818;stroke-width:1;"/><text fill="#000000" font-family="sans-serif" font-size="18" font-weight="bold" lengthAdjust="spacing" textLength="100.7666" x="553.6167" y="347.2906">OCFL Repo</text></g><!--entity A--><g id="elem_A"><rect fill="#F1F1F1" height="41.1992" rx="2.5" ry="2.5" style="stroke:#181818;stroke-width:0.5;" width="32.4189" x="1018.79" y="536.0883"/><text fill="#000000" font-family="sans-serif" font-size="18" lengthAdjust="spacing" textLength="12.4189" x="1028.79" y="563.4906">A</text></g><!--entity B--><g id="elem_B"><rect fill="#F1F1F1" height="41.1992" rx="2.5" ry="2.5" style="stroke:#181818;stroke-width:0.5;" width="220.1533" x="763.92" y="536.0883"/><text fill="#000000" font-family="sans-serif" font-size="18" lengthAdjust="spacing" textLength="200.1533" x="773.92" y="563.4906">Sub Collection Books 1</text></g><!--entity C--><g id="elem_C"><rect fill="#F1F1F1" height="41.1992" rx="2.5" ry="2.5" style="stroke:#181818;stroke-width:0.5;" width="220.1533" x="508.92" y="536.0883"/><text fill="#000000" font-family="sans-serif" font-size="18" lengthAdjust="spacing" textLength="200.1533" x="518.92" y="563.4906">Sub Collection Books 1</text></g><!--entity D--><g id="elem_D"><rect fill="#F1F1F1" height="41.1992" rx="2.5" ry="2.5" style="stroke:#181818;stroke-width:0.5;" width="209.2637" x="22.37" y="536.0883"/><text fill="#000000" font-family="sans-serif" font-size="18" lengthAdjust="spacing" textLength="189.2637" x="32.37" y="563.4906">Small video collection</text></g><!--entity E--><g id="elem_E"><rect fill="#F1F1F1" height="41.1992" rx="2.5" ry="2.5" style="stroke:#181818;stroke-width:0.5;" width="86.4629" x="266.77" y="536.0883"/><text fill="#000000" font-family="sans-serif" font-size="18" lengthAdjust="spacing" textLength="66.4629" x="276.77" y="563.4906">Video 1</text></g><!--entity F--><g id="elem_F"><rect fill="#F1F1F1" height="41.1992" rx="2.5" ry="2.5" style="stroke:#181818;stroke-width:0.5;" width="86.4629" x="387.77" y="536.0883"/><text fill="#000000" font-family="sans-serif" font-size="18" lengthAdjust="spacing" textLength="66.4629" x="397.77" y="563.4906">Video 2</text></g><!--entity o1--><g id="elem_o1"><rect fill="#F1F1F1" height="41.1992" rx="2.5" ry="2.5" style="stroke:#181818;stroke-width:0.5;" width="93.8457" x="777.08" y="98.4883"/><text fill="#000000" font-family="sans-serif" font-size="18" lengthAdjust="spacing" textLength="73.8457" x="787.08" y="125.8906">Object 1</text></g><!--entity o2--><g id="elem_o2"><rect fill="#F1F1F1" height="41.1992" rx="2.5" ry="2.5" style="stroke:#181818;stroke-width:0.5;" width="93.8457" x="648.08" y="98.4883"/><text fill="#000000" font-family="sans-serif" font-size="18" lengthAdjust="spacing" textLength="73.8457" x="658.08" y="125.8906">Object 2</text></g><!--entity o3--><g id="elem_o3"><rect fill="#F1F1F1" height="41.1992" rx="2.5" ry="2.5" style="stroke:#181818;stroke-width:0.5;" width="93.8457" x="519.08" y="98.4883"/><text fill="#000000" font-family="sans-serif" font-size="18" lengthAdjust="spacing" textLength="73.8457" x="529.08" y="125.8906">Object 3</text></g><!--entity ro1--><g id="elem_ro1"><rect fill="#F1F1F1" height="41.1992" rx="2.5" ry="2.5" style="stroke:#181818;stroke-width:0.5;" width="93.8457" x="686.08" y="362.8883"/><text fill="#000000" font-family="sans-serif" font-size="18" lengthAdjust="spacing" textLength="73.8457" x="696.08" y="390.2906">Object 1</text></g><!--entity ro2--><g id="elem_ro2"><rect fill="#F1F1F1" height="41.1992" rx="2.5" ry="2.5" style="stroke:#181818;stroke-width:0.5;" width="93.8457" x="557.08" y="362.8883"/><text fill="#000000" font-family="sans-serif" font-size="18" lengthAdjust="spacing" textLength="73.8457" x="567.08" y="390.2906">Object 2</text></g><!--entity ro3--><g id="elem_ro3"><rect fill="#F1F1F1" height="41.1992" rx="2.5" ry="2.5" style="stroke:#181818;stroke-width:0.5;" width="93.8457" x="428.08" y="362.8883"/><text fill="#000000" font-family="sans-serif" font-size="18" lengthAdjust="spacing" textLength="73.8457" x="438.08" y="390.2906">Object 3</text></g><g id="elem_GMN17"><path d="M85.79,260.6883 L85.79,291.8875 A0,0 0 0 0 85.79,291.8875 L220.84,291.8875 L427.92,365.5283 L228.84,291.8875 L280.2158,291.8875 A0,0 0 0 0 280.2158,291.8875 L280.2158,270.6883 L270.2158,260.6883 L85.79,260.6883 A0,0 0 0 0 85.79,260.6883 " fill="#FEFFDD" style="stroke:#181818;stroke-width:0.5;"/><path d="M270.2158,260.6883 L270.2158,270.6883 L280.2158,270.6883 L270.2158,260.6883 " fill="#FEFFDD" style="stroke:#181818;stroke-width:0.5;"/><text fill="#000000" font-family="sans-serif" font-size="18" lengthAdjust="spacing" textLength="173.4258" x="91.79" y="283.0906">Complete collection</text></g><g id="elem_GMN20"><path d="M386.15,260.6883 L386.15,291.8875 L641.8531,291.8875 L641.8531,270.6883 L631.8531,260.6883 L386.15,260.6883 " fill="#FEFFDD" style="stroke:#181818;stroke-width:0.5;"/><path d="M631.8531,260.6883 L631.8531,270.6883 L641.8531,270.6883 L631.8531,260.6883 " fill="#FEFFDD" style="stroke:#181818;stroke-width:1;"/><text fill="#000000" font-family="sans-serif" font-size="18" lengthAdjust="spacing" textLength="234.7031" x="392.15" y="283.0906">Two sub collection records</text></g><g id="elem_GMN23"><path d="M747.65,260.6883 L747.65,291.8875 A0,0 0 0 0 747.65,291.8875 L817.24,291.8875 L752.67,362.4083 L825.24,291.8875 L924.3482,291.8875 A0,0 0 0 0 924.3482,291.8875 L924.3482,270.6883 L914.3482,260.6883 L747.65,260.6883 A0,0 0 0 0 747.65,260.6883 " fill="#FEFFDD" style="stroke:#181818;stroke-width:0.5;"/><path d="M914.3482,260.6883 L914.3482,270.6883 L924.3482,270.6883 L914.3482,260.6883 " fill="#FEFFDD" style="stroke:#181818;stroke-width:0.5;"/><text fill="#000000" font-family="sans-serif" font-size="18" lengthAdjust="spacing" textLength="155.6982" x="753.65" y="283.0906">Single data object</text></g><!--link GMN20 to ro2--><g id="link_GMN20_ro2"><path d="M531.31,292.2383 C533.96,294.7183 536.6,297.3283 539,299.8883 C557.93,320.1583 577.3,345.4783 589.91,362.7083 " fill="#FFFFFF" fill-opacity="0.00000" id="GMN20-ro2" style="stroke:#181818;stroke-width:1;stroke-dasharray:7.0,7.0;"/></g><!--link ro1 to A--><g id="link_ro1_A"><path codeLine="60" d="M780.2,388.0483 C839.25,394.9083 940.11,414.9183 1002,473.0883 C1019.67,489.6983 1026.8633,511.1229 1030.7233,529.7629 " fill="#FFFFFF" fill-opacity="0.00000" id="ro1-to-A" style="stroke:#181818;stroke-width:1;"/><polygon fill="#181818" points="1031.94,535.6383,1034.0319,526.0141,1030.9261,530.7422,1026.1981,527.6364,1031.94,535.6383" style="stroke:#181818;stroke-width:1;"/></g><!--link ro2 to B--><g id="link_ro2_B"><path codeLine="61" d="M632.85,404.4483 C644.03,412.0183 657,420.6183 669,428.0883 C702.97,449.2483 712.88,452.1683 747,473.0883 C780.75,493.7783 813.7165,515.3619 839.2665,532.3819 " fill="#FFFFFF" fill-opacity="0.00000" id="ro2-to-B" style="stroke:#181818;stroke-width:1;"/><polygon fill="#181818" points="844.26,535.7083,838.9873,527.3897,840.0987,532.9363,834.5521,534.0477,844.26,535.7083" style="stroke:#181818;stroke-width:1;"/></g><!--link ro2 to C--><g id="link_ro2_C"><path codeLine="62" d="M605.75,404.4583 C608.64,437.4483 613.8568,496.9611 616.7368,529.8611 " fill="#FFFFFF" fill-opacity="0.00000" id="ro2-to-C" style="stroke:#181818;stroke-width:1;"/><polygon fill="#181818" points="617.26,535.8383,620.4599,526.5237,616.824,530.8573,612.4904,527.2214,617.26,535.8383" style="stroke:#181818;stroke-width:1;"/></g><!--link ro3 to D--><g id="link_ro3_D"><path codeLine="63" d="M427.79,399.5683 C381.12,415.2683 308.3,441.8883 249,473.0883 C213.91,491.5483 181.3941,514.3437 157.4041,532.2937 " fill="#FFFFFF" fill-opacity="0.00000" id="ro3-to-D" style="stroke:#181818;stroke-width:1;"/><polygon fill="#181818" points="152.6,535.8883,162.2025,533.6992,156.6034,532.8928,157.4098,527.2937,152.6,535.8883" style="stroke:#181818;stroke-width:1;"/></g><!--link ro3 to E--><g id="link_ro3_E"><path codeLine="64" d="M447.99,404.3483 C425.8,421.3183 394.2,447.0583 370,473.0883 C351.65,492.8183 337.2201,513.2142 325.8601,530.6142 " fill="#FFFFFF" fill-opacity="0.00000" id="ro3-to-E" style="stroke:#181818;stroke-width:1;"/><polygon fill="#181818" points="322.58,535.6383,330.8495,530.2889,325.3134,531.4516,324.1507,525.9155,322.58,535.6383" style="stroke:#181818;stroke-width:1;"/></g><!--link ro3 to F--><g id="link_ro3_F"><path codeLine="65" d="M469.87,404.4583 C461.39,437.4483 446.0542,497.1273 437.5942,530.0273 " fill="#FFFFFF" fill-opacity="0.00000" id="ro3-to-F" style="stroke:#181818;stroke-width:1;"/><polygon fill="#181818" points="436.1,535.8383,442.2153,528.118,437.3452,530.9958,434.4674,526.1257,436.1,535.8383" style="stroke:#181818;stroke-width:1;"/></g><!--reverse link o1 to ro1--><g id="link_o1_ro1"><path codeLine="67" d="M860.3603,143.4131 C906.5303,175.2331 978.54,236.2283 942,291.8883 C906.3,346.2783 830.18,368.1783 780.33,376.8883 " fill="#FFFFFF" fill-opacity="0.00000" id="o1-backto-ro1" style="stroke:#181818;stroke-width:1;"/><polygon fill="#181818" points="855.42,140.0083,860.5606,148.4091,859.537,142.8457,865.1004,141.822,855.42,140.0083" style="stroke:#181818;stroke-width:1;"/></g><!--reverse link o2 to ro2--><g id="link_o2_ro2"><path codeLine="68" d="M692.3652,146.0002 C688.6652,178.6902 679.76,239.3083 659,291.8883 C648.73,317.9083 631.26,344.9683 618.77,362.6583 " fill="#FFFFFF" fill-opacity="0.00000" id="o2-backto-ro2" style="stroke:#181818;stroke-width:1;"/><polygon fill="#181818" points="693.04,140.0383,688.0532,148.5313,692.4777,145.0066,696.0024,149.431,693.04,140.0383" style="stroke:#181818;stroke-width:1;"/></g><!--reverse link o3 to ro3--><g id="link_o3_ro3"><path codeLine="69" d="M513.3939,140.8102 C465.7339,162.1502 400.26,199.9883 369,260.6883 C347.96,301.5683 397.38,340.0583 435.62,362.4383 " fill="#FFFFFF" fill-opacity="0.00000" id="o3-backto-ro3" style="stroke:#181818;stroke-width:1;"/><polygon fill="#181818" points="518.87,138.3583,509.0212,138.3855,514.3066,140.4016,512.2905,145.687,518.87,138.3583" style="stroke:#181818;stroke-width:1;"/></g><!--SRC=[fLBBReCm4BpxArQScmFaKd6eH218bIf5QghU7N0IDuuNsIPzAVzUsrWb2KHALGveTfaPZzdLEouRgkWUQhQchJ0bIhFaNmpYUsAu4Io5XUIGgMhB3QjCgnWXDJLqHJM3gE2wmWDJd_0eQ_OHmJS1-oZBf78ZB2DpFTyy-lV5vyNgpHPtK72w4RXfMGHKGnPyt7DTksnNaACGjiDHmWnnfo7s1hF_6kIt6Uof473WDKEeVeqYS0x5BGQlNjeTERz-v9WeyQ9oA2B7imbP15JM87Z5fEtmqq6D3IF4mVXyS4DUbm2JqTn3-hIZJySJdsPUvEKJFBC6lK9PCDohiwpgfh0TysznrLXU6rUYOM2m0LmxJchtQDy8Pflz7boGaXHUtX6qNRgUumv6LUiBRfp2aliuxgy0-aZ4NNCocJn0HjmzF9prC2SkhOT53-SzB4cmQ1jNOXoqeKm2CvHJGdu0]--></g></svg>