<?xml version="1.0" encoding="UTF-8" standalone="no"?><svg xmlns="http://www.w3.org/2000/svg" xmlns:xlink="http://www.w3.org/1999/xlink" contentStyleType="text/css" height="893px" preserveAspectRatio="none" style="width:1204px;height:893px;background:#FFFFFF;" version="1.1" viewBox="0 0 1204 893" width="1204px" zoomAndPan="magnify"><defs/><g><!--cluster Index--><g id="cluster_Index"><path d="M236.5,586.5 C236.5,576.5 432.5,576.5 432.5,576.5 C432.5,576.5 628.5,576.5 628.5,586.5 L628.5,684.5 C628.5,694.5 432.5,694.5 432.5,694.5 C432.5,694.5 236.5,694.5 236.5,684.5 L236.5,586.5 " fill="none" style="stroke:#181818;stroke-width:1.0;"/><path d="M236.5,586.5 C236.5,596.5 432.5,596.5 432.5,596.5 C432.5,596.5 628.5,596.5 628.5,586.5 " fill="none" style="stroke:#181818;stroke-width:1.0;"/><text fill="#000000" font-family="sans-serif" font-size="14" font-weight="bold" lengthAdjust="spacing" textLength="39" x="413" y="612.0352">Index</text></g><!--cluster API--><g id="cluster_API"><rect fill="none" height="113" rx="2.5" ry="2.5" style="stroke:#181818;stroke-width:1.0;" width="425" x="233.5" y="238"/><text fill="#000000" font-family="sans-serif" font-size="14" font-weight="bold" lengthAdjust="spacing" textLength="24" x="434" y="253.5352">API</text></g><!--cluster auth--><g id="cluster_auth"><path d="M889.7889,248.8238 C894.2281,237.8162 901.1891,236.8418 908.7623,245.8537 C913.6494,236.4209 919.9892,235.2392 927.3872,243.1588 C933.9446,234.7409 941.1036,233.657 947.9088,242.8704 C954.4404,230.4994 962.9187,229.965 970.6055,241.7866 C976.4076,231.3913 982.1189,231.2782 988.9969,240.7927 C992.7337,231.99 1000.6501,230.0499 1007.126,237.7912 C1013.7995,226.9909 1023.5891,227.7416 1030.7072,237.2757 C1037.2458,229.3323 1047.2534,230.0887 1050.4783,240.7897 C1057.9375,231.5193 1064.6687,230.5605 1070.8548,242.0399 C1076.1092,232.1353 1084.7614,233.455 1090.7375,241.2282 C1096.9314,232.5731 1105.9946,232.2778 1110.5363,242.9231 C1118.665,234.0966 1124.4848,235.2574 1129.3112,246.0786 C1135.0784,237.2553 1142.6719,236.1177 1148.0788,246.432 C1158.1746,236.0274 1170.7079,238.0467 1174.5,253 C1176.9334,252.6932 1177.7964,253.6549 1177.4041,256.044 C1188.5026,261.9341 1188.5383,267.9292 1178.9787,275.4919 C1190.9569,281.3428 1190.2375,289.0446 1181.101,296.9808 C1193.294,302.7141 1194.139,311.9722 1182.5607,319.2628 C1193.7571,323.895 1194.9049,330.9903 1185.9827,339.094 C1194.0587,342.8497 1196.428,351.8566 1188.1048,357.5026 C1197.5754,365.8244 1193.6738,374.6612 1183.1189,378.1464 C1193.4348,385.1147 1192.9356,393.7715 1181.4311,398.9714 C1191.1243,407.3862 1191.1767,415.581 1180.0553,422.7937 C1188.5017,430.2066 1187.0996,436.5191 1177.5756,441.5571 C1185.6534,453.3575 1181.8882,464.7599 1167.5,468 C1168.962,466.6597 1170.6254,466.9587 1171.3629,468.8626 C1166.0703,478.6171 1155.5773,480.1948 1148.9657,470.3714 C1143.4094,478.3377 1136.232,477.9552 1131.0517,469.9497 C1125.3241,481.7332 1113.7848,480.94 1107.9315,470.078 C1104.3274,479.4842 1097.1557,482.3055 1089.8051,473.888 C1082.8328,483.8039 1073.0743,483.9213 1067.9073,472.0717 C1062.9121,481.3559 1054.6528,482.7082 1047.1683,475.134 C1040.3319,483.3675 1032.6323,482.9067 1027.7922,473.0016 C1022.7369,483.4374 1015.7974,483.0559 1008.2825,475.6985 C999.978,484.2153 993.1322,482.8133 988.4259,472.002 C984.1174,483.263 974.5152,483.9211 968.2329,473.8723 C960.4797,484.5705 950.7003,481.8601 946.9253,470.0982 C943.2146,480.5522 934.4463,481.278 928.5332,472.1688 C920.3415,481.735 913.1951,481.687 907.5901,469.66 C893.7678,480.1766 884.4255,479.3415 879.5,461 C879.8358,460.6722 880.0737,460.724 880.2314,461.1687 C870.1202,455.1596 870.7807,447.8646 880.0394,441.6649 C870.2152,433.3312 869.6375,425.7076 882.0824,419.4191 C872.443,413.815 870.4233,407.7886 879.6062,399.808 C870.7548,394.3235 869.4299,388.1593 877.4852,380.7894 C866.4165,374.1886 866.7108,364.1192 878.4381,358.4925 C869.4002,352.4467 867.7301,344.5637 877.8394,337.9597 C870.917,329.9883 871.6895,323.9144 880.8692,318.4426 C868.8319,310.7769 870.8508,301.4466 882.0476,294.9463 C871.5323,290.1518 870.3171,281.107 880.423,274.6611 C866.8243,262.7242 869.7539,251.5028 886.5,246 C888.9833,245.347 890.1542,246.1591 889.7889,248.8238 " fill="none" style="stroke:#181818;stroke-width:1.0;"/><text fill="#000000" font-family="sans-serif" font-size="14" font-weight="bold" lengthAdjust="spacing" textLength="295" x="879.5" y="264.5352">Authentication and Authorizatio Services</text></g><!--entity ii--><g id="elem_ii"><rect fill="#F1F1F1" height="36.4883" rx="2.5" ry="2.5" style="stroke:#181818;stroke-width:0.5;" width="162" x="279.5" y="634.5"/><text fill="#000000" font-family="sans-serif" font-size="14" lengthAdjust="spacing" textLength="142" x="289.5" y="658.0352">Data &amp; License index</text></g><!--entity ai--><g id="elem_ai"><rect fill="#F1F1F1" height="36.4883" rx="2.5" ry="2.5" style="stroke:#181818;stroke-width:0.5;" width="128" x="476.5" y="634.5"/><text fill="#000000" font-family="sans-serif" font-size="14" lengthAdjust="spacing" textLength="108" x="486.5" y="658.0352">Discovery Index</text></g><!--entity repo--><g id="elem_repo"><path d="M6,541 C6,531 107.5,531 107.5,531 C107.5,531 209,531 209,541 L209,764.3477 C209,774.3477 107.5,774.3477 107.5,774.3477 C107.5,774.3477 6,774.3477 6,764.3477 L6,541 " fill="#F1F1F1" style="stroke:#181818;stroke-width:0.5;"/><path d="M6,541 C6,551 107.5,551 107.5,551 C107.5,551 209,551 209,541 " fill="none" style="stroke:#181818;stroke-width:0.5;"/><text fill="#000000" font-family="sans-serif" font-size="14" lengthAdjust="spacing" textLength="179" x="16" y="568.5352">.......... OCFL Repo ..............</text><text fill="#000000" font-family="sans-serif" font-size="14" lengthAdjust="spacing" textLength="4" x="16" y="585.0234"> </text><text fill="#000000" font-family="sans-serif" font-size="14" lengthAdjust="spacing" textLength="4" x="16" y="601.5117"> </text><text fill="#000000" font-family="sans-serif" font-size="14" lengthAdjust="spacing" textLength="4" x="16" y="618"> </text><text fill="#000000" font-family="sans-serif" font-size="14" lengthAdjust="spacing" textLength="4" x="16" y="634.4883"> </text><text fill="#000000" font-family="sans-serif" font-size="14" lengthAdjust="spacing" textLength="4" x="16" y="650.9766"> </text><text fill="#000000" font-family="sans-serif" font-size="14" lengthAdjust="spacing" textLength="4" x="16" y="667.4648"> </text><text fill="#000000" font-family="sans-serif" font-size="14" lengthAdjust="spacing" textLength="4" x="16" y="683.9531"> </text><text fill="#000000" font-family="sans-serif" font-size="14" lengthAdjust="spacing" textLength="4" x="16" y="700.4414"> </text><text fill="#000000" font-family="sans-serif" font-size="14" lengthAdjust="spacing" textLength="4" x="16" y="716.9297"> </text><text fill="#000000" font-family="sans-serif" font-size="14" lengthAdjust="spacing" textLength="4" x="16" y="733.418"> </text><text fill="#000000" font-family="sans-serif" font-size="14" lengthAdjust="spacing" textLength="4" x="16" y="749.9063"> </text><text fill="#000000" font-family="sans-serif" font-size="14" lengthAdjust="spacing" textLength="4" x="16" y="766.3945"> </text></g><!--entity Indexer--><g id="elem_Indexer"><rect fill="#F1F1F1" height="36.4883" rx="2.5" ry="2.5" style="stroke:#181818;stroke-width:0.5;" width="73" x="139" y="851"/><text fill="#000000" font-family="sans-serif" font-size="14" lengthAdjust="spacing" textLength="53" x="149" y="874.5352">Indexer</text></g><!--entity conf--><g id="elem_conf"><rect fill="#F1F1F1" height="36.4883" rx="2.5" ry="2.5" style="stroke:#181818;stroke-width:0.5;" width="66" x="307.5" y="851"/><text fill="#000000" font-family="sans-serif" font-size="14" lengthAdjust="spacing" textLength="46" x="317.5" y="874.5352">Config</text></g><!--entity iapi--><g id="elem_iapi"><rect fill="#F1F1F1" height="46.4883" rx="2.5" ry="2.5" style="stroke:#181818;stroke-width:0.5;" width="77" x="277" y="281"/><rect fill="#F1F1F1" height="10" style="stroke:#181818;stroke-width:0.5;" width="15" x="334" y="286"/><rect fill="#F1F1F1" height="2" style="stroke:#181818;stroke-width:0.5;" width="4" x="332" y="288"/><rect fill="#F1F1F1" height="2" style="stroke:#181818;stroke-width:0.5;" width="4" x="332" y="292"/><text fill="#000000" font-family="sans-serif" font-size="14" lengthAdjust="spacing" textLength="37" x="292" y="314.5352">item/</text></g><!--entity qapi--><g id="elem_qapi"><rect fill="#F1F1F1" height="46.4883" rx="2.5" ry="2.5" style="stroke:#181818;stroke-width:0.5;" width="86" x="389.5" y="281"/><rect fill="#F1F1F1" height="10" style="stroke:#181818;stroke-width:0.5;" width="15" x="455.5" y="286"/><rect fill="#F1F1F1" height="2" style="stroke:#181818;stroke-width:0.5;" width="4" x="453.5" y="288"/><rect fill="#F1F1F1" height="2" style="stroke:#181818;stroke-width:0.5;" width="4" x="453.5" y="292"/><text fill="#000000" font-family="sans-serif" font-size="14" lengthAdjust="spacing" textLength="46" x="404.5" y="314.5352">query/</text></g><!--entity lic--><g id="elem_lic"><rect fill="#F1F1F1" height="46.4883" rx="2.5" ry="2.5" style="stroke:#181818;stroke-width:0.5;" width="123" x="511" y="281"/><rect fill="#F1F1F1" height="10" style="stroke:#181818;stroke-width:0.5;" width="15" x="614" y="286"/><rect fill="#F1F1F1" height="2" style="stroke:#181818;stroke-width:0.5;" width="4" x="612" y="288"/><rect fill="#F1F1F1" height="2" style="stroke:#181818;stroke-width:0.5;" width="4" x="612" y="292"/><text fill="#000000" font-family="sans-serif" font-size="14" lengthAdjust="spacing" textLength="83" x="526" y="314.5352">license filter</text></g><!--entity CILogon--><g id="elem_CILogon"><rect fill="#F1F1F1" height="46.4883" rx="2.5" ry="2.5" style="stroke:#181818;stroke-width:0.5;" width="97" x="922" y="281"/><rect fill="#F1F1F1" height="10" style="stroke:#181818;stroke-width:0.5;" width="15" x="999" y="286"/><rect fill="#F1F1F1" height="2" style="stroke:#181818;stroke-width:0.5;" width="4" x="997" y="288"/><rect fill="#F1F1F1" height="2" style="stroke:#181818;stroke-width:0.5;" width="4" x="997" y="292"/><text fill="#000000" font-family="sans-serif" font-size="14" lengthAdjust="spacing" textLength="57" x="937" y="314.5352">CILogon</text></g><!--entity Mukurtu--><g id="elem_Mukurtu"><rect fill="#F1F1F1" height="46.4883" rx="2.5" ry="2.5" style="stroke:#181818;stroke-width:0.5;" width="98" x="1054.5" y="281"/><rect fill="#F1F1F1" height="10" style="stroke:#181818;stroke-width:0.5;" width="15" x="1132.5" y="286"/><rect fill="#F1F1F1" height="2" style="stroke:#181818;stroke-width:0.5;" width="4" x="1130.5" y="288"/><rect fill="#F1F1F1" height="2" style="stroke:#181818;stroke-width:0.5;" width="4" x="1130.5" y="292"/><text fill="#000000" font-family="sans-serif" font-size="14" lengthAdjust="spacing" textLength="58" x="1069.5" y="314.5352">Mukurtu</text></g><!--entity ...--><g id="elem_..."><rect fill="#F1F1F1" height="46.4883" rx="2.5" ry="2.5" style="stroke:#181818;stroke-width:0.5;" width="52" x="944.5" y="406"/><rect fill="#F1F1F1" height="10" style="stroke:#181818;stroke-width:0.5;" width="15" x="976.5" y="411"/><rect fill="#F1F1F1" height="2" style="stroke:#181818;stroke-width:0.5;" width="4" x="974.5" y="413"/><rect fill="#F1F1F1" height="2" style="stroke:#181818;stroke-width:0.5;" width="4" x="974.5" y="417"/><text fill="#000000" font-family="sans-serif" font-size="14" lengthAdjust="spacing" textLength="12" x="959.5" y="439.5352">...</text></g><!--entity UI--><g id="elem_UI"><rect fill="#F1F1F1" height="36.4883" rx="2.5" ry="2.5" style="stroke:#181818;stroke-width:0.5;" width="34" x="357.5" y="7"/><text fill="#000000" font-family="sans-serif" font-size="14" lengthAdjust="spacing" textLength="14" x="367.5" y="30.5352">UI</text></g><!--reverse link repo to Indexer--><g id="link_repo_Indexer"><path d="M102.89,780.44 C105.68,794.6 110.02,808.43 116.5,821 C122.68,832.99 133.44,842.94 144.09,850.55 " fill="none" id="repo-backto-Indexer" style="stroke:#181818;stroke-width:1.0;"/><polygon fill="#181818" points="102.06,775.85,99.7198,785.4168,102.9469,780.7707,107.5929,783.9978,102.06,775.85" style="stroke:#181818;stroke-width:1.0;"/><text fill="#000000" font-family="sans-serif" font-size="13" lengthAdjust="spacing" textLength="79" x="117.5" y="817.5684">Scan objects</text></g><!--link Indexer to conf--><g id="link_Indexer_conf"><path d="M212.12,869 C238.4,869 273.79,869 300.76,869 " fill="none" id="Indexer-to-conf" style="stroke:#181818;stroke-width:1.0;"/><polygon fill="#181818" points="305.56,869,296.56,865,300.56,869,296.56,873,305.56,869" style="stroke:#181818;stroke-width:1.0;"/><text fill="#000000" font-family="sans-serif" font-size="13" lengthAdjust="spacing" textLength="59" x="230.25" y="862.5684">Consume</text></g><!--reverse link Index to Indexer--><g id="link_Index_Indexer"><path d="M241.8035,695.0298 C241.785,695.2128 241.7663,695.3962 241.7475,695.58 C239.34,719.1025 234.85,748.69 226.5,774 C219.09,796.47 212.78,800.2 201.5,821 C196.16,830.84 190.12,841.78 185.2,850.63 " fill="none" id="Index-backto-Indexer" style="stroke:#181818;stroke-width:1.0;"/><polygon fill="#181818" points="241.8035,695.0298,236.9162,703.5805,241.2992,700.0043,244.8754,704.3874,241.8035,695.0298" style="stroke:#181818;stroke-width:1.0;"/><text fill="#000000" font-family="sans-serif" font-size="13" lengthAdjust="spacing" textLength="32" x="213.5" y="817.5684">Write</text></g><!--link lic to auth--><g id="link_lic_auth"><path d="M634.32,304 C677.895,304 737.12,304 786.8975,304 C811.7863,304 834.3131,304 851.3409,304 C855.5979,304 859.5112,304 863.0317,304 C864.792,304 866.4541,304 868.0119,304 C868.7908,304 869.5436,304 870.2696,304 C870.6326,304 870.9888,304 871.3383,304 " fill="none" id="lic-to-auth" style="stroke:#181818;stroke-width:1.0;"/><polygon fill="#181818" points="871.3383,304,862.3383,300,866.3383,304,862.3383,308,871.3383,304" style="stroke:#181818;stroke-width:1.0;"/><text fill="#000000" font-family="sans-serif" font-size="13" lengthAdjust="spacing" textLength="213" x="652.07" y="297.5684">Get user's group/license holdings</text></g><!--link UI to qapi--><g id="link_UI_qapi"><path d="M383.59,43.18 C394.23,64.19 411.42,101.15 419.5,135 C430.93,182.88 432.95,240.41 432.99,274.21 " fill="none" id="UI-to-qapi" style="stroke:#181818;stroke-width:1.0;"/><polygon fill="#181818" points="432.98,279.13,437.0057,270.1415,432.9943,274.13,429.0057,270.1186,432.98,279.13" style="stroke:#181818;stroke-width:1.0;"/><text fill="#000000" font-family="sans-serif" font-size="13" lengthAdjust="spacing" textLength="101" x="423.5" y="148.5684">Construct views</text></g><!--link UI to iapi--><g id="link_UI_iapi"><path d="M357.35,39.65 C335.33,58.4 298.2,94.44 283.5,135 C266.28,182.5 286.09,241.07 301.31,275.02 " fill="none" id="UI-to-iapi" style="stroke:#181818;stroke-width:1.0;"/><polygon fill="#181818" points="303.27,279.28,303.15,269.4319,301.1838,274.736,295.8796,272.7698,303.27,279.28" style="stroke:#181818;stroke-width:1.0;"/><text fill="#000000" font-family="sans-serif" font-size="13" lengthAdjust="spacing" textLength="126" x="284.5" y="148.5684">Get data for viewing</text></g><!--link iapi to ii--><g id="link_iapi_ii"><path d="M318.42,327.47 C326.51,389.81 349.21,564.54 357.45,628.05 " fill="none" id="iapi-to-ii" style="stroke:#181818;stroke-width:1.0;"/><polygon fill="#181818" points="358.06,632.69,360.8693,623.2503,357.417,627.7315,352.9358,624.2792,358.06,632.69" style="stroke:#181818;stroke-width:1.0;"/><text fill="#000000" font-family="sans-serif" font-size="13" lengthAdjust="spacing" textLength="153" x="340.5" y="426.5684">Consult for get requests</text><text fill="#000000" font-family="sans-serif" font-size="13" lengthAdjust="spacing" textLength="128" x="353" y="441.8789">for Objects and files</text></g><!--link qapi to ai--><g id="link_qapi_ai"><path d="M452.14,327.38 C468.06,346.81 489.73,376.4 501.5,406 C532.14,483.05 538.75,582.73 540.15,627.67 " fill="none" id="qapi-to-ai" style="stroke:#181818;stroke-width:1.0;"/><polygon fill="#181818" points="540.28,632.64,544.0213,623.5294,540.1372,627.642,536.0246,623.7579,540.28,632.64" style="stroke:#181818;stroke-width:1.0;"/><text fill="#000000" font-family="sans-serif" font-size="13" lengthAdjust="spacing" textLength="171" x="526.5" y="426.5684">Consult for queries / views</text><text fill="#000000" font-family="sans-serif" font-size="13" lengthAdjust="spacing" textLength="115" x="554.5" y="441.8789">*with license filter</text></g><!--link API to repo--><g id="link_API_repo"><path d="M233.4535,325.8068 C233.2986,326.2074 233.1417,326.6131 232.9828,327.0238 C227.9,340.165 220.8438,358.41 212.645,379.61 C196.2475,422.01 175.28,476.23 156.39,525.08 " fill="none" id="API-to-repo" style="stroke:#181818;stroke-width:1.0;"/><polygon fill="#181818" points="154.69,529.48,161.6656,522.5273,156.4926,524.8162,154.2036,519.6432,154.69,529.48" style="stroke:#181818;stroke-width:1.0;"/><text fill="#000000" font-family="sans-serif" font-size="13" lengthAdjust="spacing" textLength="30" x="203.5" y="434.0684">Read</text></g><!--SRC=[RL9DJm8n4BttLqmuQ6AoSkT0OZ2QJJ0O2F4W7Ehki8ukBVG3LE9_T_e1kiJkPVlcpUlhczRIoHTf4Ngbgl6Z1mTXi79IDIrZjro52nXJXOevb2ZI0X4JnNU7IxRIEpIVK9veCjE-XQXF1rsV5an6TsEOuaR3TMV1Glt_HLKJ6Wu2U0NbFnxYoMXwwTI_bP5MAsfYUyM_cP3vKFXDCKow0vXLKe5-UUDc-yiOfhu1i9BrQpphZJkkFXbos3dvvh7iPRVFN5ltbp50kQ64RJrdbi3j2MnpuYjg7PfOP2XwhbhjQvRrxXMLeqewqWgagY50sj1NG626PiSYDis1AqSFetAi6wsMQVVWtxrnFkyu-kLvSlDids6s48A8QWEuHmVUehcqq1ZjD_sZwLVTrgGQA-Ob54MjzwhWhd2v79ypldAm8zoVSIXnWd9uBx3I9j9OJSHQfWx30yoZQ5saDTnZaCEqpYvKG2PfX34QpX6js7OavBb4c0IXXNwojb1NU-ARTcSX10_qL-JuQAOeQ_43]--></g></svg>