<?xml version="1.0" encoding="UTF-8" standalone="no"?><svg xmlns="http://www.w3.org/2000/svg" xmlns:xlink="http://www.w3.org/1999/xlink" contentStyleType="text/css" height="528px" preserveAspectRatio="none" style="width:1448px;height:528px;background:#FFFFFF;" version="1.1" viewBox="0 0 1448 528" width="1448px" zoomAndPan="magnify"><defs/><g><text fill="#000000" font-family="sans-serif" font-size="14" font-weight="bold" lengthAdjust="spacing" textLength="118" x="658.25" y="23.5352">Oni Architecture</text><!--cluster Discovery Index--><g id="cluster_Discovery Index"><path d="M6,273.4883 C6,263.4883 535,263.4883 535,263.4883 C535,263.4883 1064,263.4883 1064,273.4883 L1064,365.4883 C1064,375.4883 535,375.4883 535,375.4883 C535,375.4883 6,375.4883 6,365.4883 L6,273.4883 " fill="none" style="stroke:#181818;stroke-width:1.0;"/><path d="M6,273.4883 C6,283.4883 535,283.4883 535,283.4883 C535,283.4883 1064,283.4883 1064,273.4883 " fill="none" style="stroke:#181818;stroke-width:1.0;"/><text fill="#000000" font-family="sans-serif" font-size="18" font-weight="bold" lengthAdjust="spacing" textLength="149" x="460.5" y="302.8906">Discovery Index</text></g><!--cluster Data and license index--><g id="cluster_Data and license index"><path d="M995,409.4883 C995,399.4883 1186,399.4883 1186,399.4883 C1186,399.4883 1377,399.4883 1377,409.4883 L1377,501.4883 C1377,511.4883 1186,511.4883 1186,511.4883 C1186,511.4883 995,511.4883 995,501.4883 L995,409.4883 " fill="none" style="stroke:#181818;stroke-width:1.0;"/><path d="M995,409.4883 C995,419.4883 1186,419.4883 1186,419.4883 C1186,419.4883 1377,419.4883 1377,409.4883 " fill="none" style="stroke:#181818;stroke-width:1.0;"/><text fill="#000000" font-family="sans-serif" font-size="18" font-weight="bold" lengthAdjust="spacing" textLength="214" x="1079" y="438.8906">Data and license index</text></g><!--cluster repo--><g id="cluster_repo"><path d="M896,100.4883 C896,90.4883 1087,90.4883 1087,90.4883 C1087,90.4883 1278,90.4883 1278,100.4883 L1278,192.4883 C1278,202.4883 1087,202.4883 1087,202.4883 C1087,202.4883 896,202.4883 896,192.4883 L896,100.4883 " fill="none" style="stroke:#181818;stroke-width:1.0;"/><path d="M896,100.4883 C896,110.4883 1087,110.4883 1087,110.4883 C1087,110.4883 1278,110.4883 1278,100.4883 " fill="none" style="stroke:#181818;stroke-width:1.0;"/><text fill="#000000" font-family="sans-serif" font-size="18" font-weight="bold" lengthAdjust="spacing" textLength="100" x="1037" y="129.8906">OCFL Repo</text></g><!--entity A--><g id="elem_A"><rect fill="#F1F1F1" height="41.1992" rx="2.5" ry="2.5" style="stroke:#181818;stroke-width:0.5;" width="32" x="1016" y="318.4883"/><text fill="#000000" font-family="sans-serif" font-size="18" lengthAdjust="spacing" textLength="12" x="1026" y="345.8906">A</text></g><!--entity B--><g id="elem_B"><rect fill="#F1F1F1" height="41.1992" rx="2.5" ry="2.5" style="stroke:#181818;stroke-width:0.5;" width="219" x="507.5" y="318.4883"/><text fill="#000000" font-family="sans-serif" font-size="18" lengthAdjust="spacing" textLength="199" x="517.5" y="345.8906">Sub Collection Books 1</text></g><!--entity C--><g id="elem_C"><rect fill="#F1F1F1" height="41.1992" rx="2.5" ry="2.5" style="stroke:#181818;stroke-width:0.5;" width="219" x="761.5" y="318.4883"/><text fill="#000000" font-family="sans-serif" font-size="18" lengthAdjust="spacing" textLength="199" x="771.5" y="345.8906">Sub Collection Books 1</text></g><!--entity D--><g id="elem_D"><rect fill="#F1F1F1" height="41.1992" rx="2.5" ry="2.5" style="stroke:#181818;stroke-width:0.5;" width="208" x="22" y="318.4883"/><text fill="#000000" font-family="sans-serif" font-size="18" lengthAdjust="spacing" textLength="188" x="32" y="345.8906">Small video collection</text></g><!--entity E--><g id="elem_E"><rect fill="#F1F1F1" height="41.1992" rx="2.5" ry="2.5" style="stroke:#181818;stroke-width:0.5;" width="86" x="265" y="318.4883"/><text fill="#000000" font-family="sans-serif" font-size="18" lengthAdjust="spacing" textLength="66" x="275" y="345.8906">Video 1</text></g><!--entity F--><g id="elem_F"><rect fill="#F1F1F1" height="41.1992" rx="2.5" ry="2.5" style="stroke:#181818;stroke-width:0.5;" width="86" x="386" y="318.4883"/><text fill="#000000" font-family="sans-serif" font-size="18" lengthAdjust="spacing" textLength="66" x="396" y="345.8906">Video 2</text></g><!--entity o1--><g id="elem_o1"><rect fill="#F1F1F1" height="41.1992" rx="2.5" ry="2.5" style="stroke:#181818;stroke-width:0.5;" width="93" x="1267.5" y="454.4883"/><text fill="#000000" font-family="sans-serif" font-size="18" lengthAdjust="spacing" textLength="73" x="1277.5" y="481.8906">Object 1</text></g><!--entity o2--><g id="elem_o2"><rect fill="#F1F1F1" height="41.1992" rx="2.5" ry="2.5" style="stroke:#181818;stroke-width:0.5;" width="93" x="1139.5" y="454.4883"/><text fill="#000000" font-family="sans-serif" font-size="18" lengthAdjust="spacing" textLength="73" x="1149.5" y="481.8906">Object 2</text></g><!--entity o3--><g id="elem_o3"><rect fill="#F1F1F1" height="41.1992" rx="2.5" ry="2.5" style="stroke:#181818;stroke-width:0.5;" width="93" x="1011.5" y="454.4883"/><text fill="#000000" font-family="sans-serif" font-size="18" lengthAdjust="spacing" textLength="73" x="1021.5" y="481.8906">Object 3</text></g><!--entity ro1--><g id="elem_ro1"><rect fill="#F1F1F1" height="41.1992" rx="2.5" ry="2.5" style="stroke:#181818;stroke-width:0.5;" width="93" x="1168.5" y="145.4883"/><text fill="#000000" font-family="sans-serif" font-size="18" lengthAdjust="spacing" textLength="73" x="1178.5" y="172.8906">Object 1</text></g><!--entity ro2--><g id="elem_ro2"><rect fill="#F1F1F1" height="41.1992" rx="2.5" ry="2.5" style="stroke:#181818;stroke-width:0.5;" width="93" x="1040.5" y="145.4883"/><text fill="#000000" font-family="sans-serif" font-size="18" lengthAdjust="spacing" textLength="73" x="1050.5" y="172.8906">Object 2</text></g><!--entity ro3--><g id="elem_ro3"><rect fill="#F1F1F1" height="41.1992" rx="2.5" ry="2.5" style="stroke:#181818;stroke-width:0.5;" width="93" x="912.5" y="145.4883"/><text fill="#000000" font-family="sans-serif" font-size="18" lengthAdjust="spacing" textLength="73" x="922.5" y="172.8906">Object 3</text></g><g id="elem_GMN17"><path d="M732.5,43.4883 L732.5,74.6875 L925.5,74.6875 L925.5,53.4883 L915.5,43.4883 L732.5,43.4883 " fill="#FEFFDD" style="stroke:#181818;stroke-width:0.5;"/><path d="M915.5,43.4883 L915.5,53.4883 L925.5,53.4883 L915.5,43.4883 " fill="#FEFFDD" style="stroke:#181818;stroke-width:1.0;"/><text fill="#000000" font-family="sans-serif" font-size="18" lengthAdjust="spacing" textLength="172" x="738.5" y="65.8906">Complete collection</text></g><g id="elem_GMN20"><path d="M960.5,43.4883 L960.5,74.6875 L1213.5,74.6875 L1213.5,53.4883 L1203.5,43.4883 L960.5,43.4883 " fill="#FEFFDD" style="stroke:#181818;stroke-width:0.5;"/><path d="M1203.5,43.4883 L1203.5,53.4883 L1213.5,53.4883 L1203.5,43.4883 " fill="#FEFFDD" style="stroke:#181818;stroke-width:1.0;"/><text fill="#000000" font-family="sans-serif" font-size="18" lengthAdjust="spacing" textLength="232" x="966.5" y="65.8906">Two sub collection records</text></g><g id="elem_GMN23"><path d="M1248.5,43.4883 L1248.5,74.6875 L1441.5,74.6875 L1441.5,53.4883 L1431.5,43.4883 L1248.5,43.4883 " fill="#FEFFDD" style="stroke:#181818;stroke-width:0.5;"/><path d="M1431.5,43.4883 L1431.5,53.4883 L1441.5,53.4883 L1431.5,43.4883 " fill="#FEFFDD" style="stroke:#181818;stroke-width:1.0;"/><text fill="#000000" font-family="sans-serif" font-size="18" lengthAdjust="spacing" textLength="172" x="1254.5" y="65.8906">Single data objectm</text></g><!--link GMN17 to ro3--><g id="link_GMN17_ro3"><path d="M847.35,74.8083 C870.17,93.2383 909.19,124.7583 934.53,145.2283 " fill="none" id="GMN17-ro3" style="stroke:#181818;stroke-width:1.0;stroke-dasharray:7.0,7.0;"/></g><!--link GMN20 to ro2--><g id="link_GMN20_ro2"><path d="M1087,74.5883 C1087,92.9583 1087,124.5883 1087,145.1383 " fill="none" id="GMN20-ro2" style="stroke:#181818;stroke-width:1.0;stroke-dasharray:7.0,7.0;"/></g><!--link GMN23 to ro1--><g id="link_GMN23_ro1"><path d="M1326.65,74.8083 C1303.83,93.2383 1264.81,124.7583 1239.47,145.2283 " fill="none" id="GMN23-ro1" style="stroke:#181818;stroke-width:1.0;stroke-dasharray:7.0,7.0;"/></g><!--link ro1 to A--><g id="link_ro1_A"><path d="M1193.65,186.9383 C1158.28,219.9883 1087.95,285.7083 1052.89,318.4683 " fill="none" id="ro1-to-A" style="stroke:#181818;stroke-width:1.0;"/><polygon fill="#181818" points="1049.49,321.6483,1058.7983,318.4303,1053.1448,318.2362,1053.339,312.5827,1049.49,321.6483" style="stroke:#181818;stroke-width:1.0;"/></g><!--link ro2 to B--><g id="link_ro2_B"><path d="M1062.81,186.8283 C1051.36,195.2983 1037.13,204.5683 1023,210.4883 C945.26,243.0483 920.45,235.6383 837,247.4883 C795.93,253.3183 783.23,242.0083 744,255.4883 C706.62,268.3283 669.36,294.5283 644.96,313.9783 " fill="none" id="ro2-to-B" style="stroke:#181818;stroke-width:1.0;"/><polygon fill="#181818" points="641.13,317.0683,650.6431,314.5185,645.0176,313.9239,645.6121,308.2984,641.13,317.0683" style="stroke:#181818;stroke-width:1.0;"/></g><!--link ro2 to C--><g id="link_ro2_C"><path d="M1084.99,186.8783 C1081.99,205.5583 1074.53,232.7683 1056,247.4883 C1035.97,263.3983 1022.98,246.5683 999,255.4883 C961.98,269.2483 924.59,295.0383 899.85,314.1383 " fill="none" id="ro2-to-C" style="stroke:#181818;stroke-width:1.0;"/><polygon fill="#181818" points="895.97,317.1683,905.5281,314.793,899.9145,314.0956,900.6119,308.4819,895.97,317.1683" style="stroke:#181818;stroke-width:1.0;"/></g><!--link ro3 to D--><g id="link_ro3_D"><path d="M912.13,169.9283 C773.91,179.0483 369.94,209.0683 247,255.4883 C211.25,268.9883 175.77,295.0783 152.56,314.3183 " fill="none" id="ro3-to-D" style="stroke:#181818;stroke-width:1.0;"/><polygon fill="#181818" points="148.96,317.3383,158.4248,314.6149,152.7894,314.1233,153.2809,308.4879,148.96,317.3383" style="stroke:#181818;stroke-width:1.0;"/></g><!--link ro3 to E--><g id="link_ro3_E"><path d="M912.42,169.3483 C789.55,176.3083 459.81,199.7883 368,255.4883 C346.04,268.8083 329.71,293.5083 319.68,312.4183 " fill="none" id="ro3-to-E" style="stroke:#181818;stroke-width:1.0;"/><polygon fill="#181818" points="317.46,316.7383,325.1261,310.5552,319.7416,312.2892,318.0076,306.9047,317.46,316.7383" style="stroke:#181818;stroke-width:1.0;"/></g><!--link ro3 to F--><g id="link_ro3_F"><path d="M912.18,180.3583 C845.79,198.7383 720.2,231.3583 611,247.4883 C584.34,251.4283 513.65,242.5683 490,255.4883 C467.19,267.9483 450.57,293.0083 440.49,312.2483 " fill="none" id="ro3-to-F" style="stroke:#181818;stroke-width:1.0;"/><polygon fill="#181818" points="438.25,316.6683,445.8846,310.4463,440.5089,312.2076,438.7475,306.832,438.25,316.6683" style="stroke:#181818;stroke-width:1.0;"/></g><!--link ro1 to o1--><g id="link_ro1_o1"><path d="M1221.34,186.6583 C1238.59,240.1383 1286.34,388.1983 1305.69,448.2183 " fill="none" id="ro1-to-o1" style="stroke:#181818;stroke-width:1.0;"/><polygon fill="#181818" points="1307.12,452.6383,1308.175,442.8461,1305.5904,447.878,1300.5585,445.2934,1307.12,452.6383" style="stroke:#181818;stroke-width:1.0;"/></g><!--link ro2 to o2--><g id="link_ro2_o2"><path d="M1096.99,186.6483 C1105.71,204.3383 1118.3,231.1983 1127,255.4883 C1151.35,323.4283 1171.13,406.3583 1180.36,447.7883 " fill="none" id="ro2-to-o2" style="stroke:#181818;stroke-width:1.0;"/><polygon fill="#181818" points="1181.43,452.5983,1183.3824,442.9449,1180.3453,447.7173,1175.5729,444.6803,1181.43,452.5983" style="stroke:#181818;stroke-width:1.0;"/></g><!--link ro3 to o3--><g id="link_ro3_o3"><path d="M987.78,186.9383 C1015.97,207.1883 1055.86,237.9783 1064,255.4883 C1093.68,319.3083 1077.2,405.3483 1065.87,447.9083 " fill="none" id="ro3-to-o3" style="stroke:#181818;stroke-width:1.0;"/><polygon fill="#181818" points="1064.57,452.6483,1070.799,445.0194,1065.8868,447.8248,1063.0814,442.9126,1064.57,452.6483" style="stroke:#181818;stroke-width:1.0;"/></g><!--SRC=[fLBBReCm4BpxArQScmFaKd6eH218bIf5QghU7N1JDyQBR9E-b7-lRQoI12AbAWSqkyoCn-pg7PSjLRI1chtGJfWIfLdpBmRnBJ7S29R2IdB8LFNA3QjCfnWXDJLqGpM3gE2wmZrJdt0lQ_OHmJS1-oZBf78hB2DpFTyy-FVPvzNcpHOtK72w5RZjM0HKGnPyt7DPk-usaACGjiDHmW9nfo7s1el_6kJN6JHK2DZpcY5KlqOHE8VY6eDdB-sFN5u-SagKU54v5f73oOGi0Yfh4BnYqdRuyQ2cXX7YO7mwk36lJu39PEunVTxJvzE9ZpElyl817bcBNg4i6E_LILPrLTYU-RUuQYglZIlHC33O0huuJchtg6a5iyrX3yv8IGfFxmZQBjt0SGUZglKPDqvXpNqSzrS0VQI6k7lEPhCxo8YxY8UB0UR4nVMm6E1oW2K95bthIeo3DfH9O8PoJiWF]--></g></svg>