<svg xmlns="http://www.w3.org/2000/svg" xmlns:xlink="http://www.w3.org/1999/xlink" contentStyleType="text/css" data-diagram-type="DESCRIPTION" height="930px" preserveAspectRatio="none" style="width:1043px;height:930px;background:#FFFFFF;" version="1.1" viewBox="0 0 1043 930" width="1043px" zoomAndPan="magnify"><defs/><g><!--cluster Index--><g id="cluster_Index"><path d="M243.81,588.89 C243.81,578.89 431.31,578.89 431.31,578.89 C431.31,578.89 618.81,578.89 618.81,588.89 L618.81,721.38 C618.81,731.38 431.31,731.38 431.31,731.38 C431.31,731.38 243.81,731.38 243.81,721.38 L243.81,588.89 " fill="#FFFFFF" fill-opacity="0.00000" style="stroke:#181818;stroke-width:1;"/><path d="M243.81,588.89 C243.81,598.89 431.31,598.89 431.31,598.89 C431.31,598.89 618.81,598.89 618.81,588.89 " fill="#FFFFFF" fill-opacity="0.00000" style="stroke:#181818;stroke-width:1;"/><text fill="#000000" font-family="sans-serif" font-size="14" font-weight="bold" lengthAdjust="spacing" textLength="39.5869" x="411.5165" y="614.4252">Index</text></g><!--cluster API--><g id="cluster_API"><rect fill="#FFFFFF" fill-opacity="0.00000" height="132.49" rx="2.5" ry="2.5" style="stroke:#181818;stroke-width:1;" width="424" x="162.81" y="254.49"/><text fill="#000000" font-family="sans-serif" font-size="14" font-weight="bold" lengthAdjust="spacing" textLength="23.5361" x="363.0419" y="270.0252">API</text></g><!--cluster auth--><g id="cluster_auth"><path d="M734.5578,266.208 C739.1873,257.5993 748.0237,254.7212 754.0873,264.7014 C758.573,254.5423 766.4904,254.3267 773.9138,261.3023 C777.5056,249.3433 787.4473,248.4151 794.4968,257.9986 C801.0114,249.8422 807.6473,249.009 813.5705,258.6331 C818.2458,247.7249 827.5657,248.2505 834.6294,255.9266 C840.3516,246.8522 846.1432,245.9743 853.1224,254.6144 C858.2806,245.1981 867.8442,244.8648 874.1121,253.3104 C880.9015,245.1995 889.9579,244.7379 893.8369,256.2378 C898.8772,247.301 907.3814,246.974 913.035,255.5661 C919.6379,246.9454 926.9604,247.5749 932.5611,256.6706 C941.3093,247.1183 949.2869,250.1573 953.7629,261.0919 C959.5619,249.7052 967.3004,248.9608 974.6396,259.6343 C981.8715,250.0237 987.9276,251.4198 993.4204,261.3092 C1004.6024,252.6181 1015.4625,253.8664 1018.81,269.49 C1019.7774,269.5171 1020.2113,270.0192 1019.7446,270.9588 C1032.8032,277.9295 1032.0616,288.0809 1019.9092,295.2227 C1029.4417,299.8087 1031.4174,309.6125 1021.6233,315.8078 C1031.6473,321.5866 1034.4703,333.2329 1022.484,339.8012 C1031.5132,346.4023 1034.2918,353.6976 1023.0088,360.8062 C1032.2799,367.587 1033.2432,377.8176 1022.4108,384.0819 C1034.3075,391.9768 1036.9936,401.526 1023.0955,410.0998 C1033.7205,415.3564 1032.6873,425.6292 1023.8523,431.5717 C1034.5487,439.1711 1032.501,448.817 1021.9735,454.6917 C1034.0164,460.2162 1033.8832,471.1857 1022.3003,477.0554 C1031.8934,489.4447 1028.387,502.0884 1011.81,504.46 C1012.0609,504.4509 1012.2603,504.5941 1012.1153,504.8757 C1007.344,513.6639 999.958,514.9891 993.6754,506.4875 C988.4216,516.5703 978.0669,517.2368 971.9122,507.4756 C966.338,516.4775 960.7566,518.7148 952.8358,510.0028 C949.0019,520.9737 941.8489,521.7873 934.61,513.1712 C929.5477,521.9889 920.8234,525.2074 914.4471,514.5302 C907.5102,524.4795 900.4768,525.9512 892.1454,516.1008 C885.8359,523.5076 879.0185,523.3313 874.0774,514.5715 C868.4298,525.7768 860.4436,525.0822 853.7281,515.6232 C848.1962,525.5001 839.2748,522.9996 834.5516,514.7669 C827.4627,524.6357 819.8976,523.1264 814.5048,513.0612 C808.0318,522.9675 798.2358,521.8417 794.3105,510.6256 C786.825,521.9017 779.9262,520.4815 772.1128,510.9758 C765.2037,520.0421 758.2977,517.6238 753.4153,508.8516 C737.5849,519.3871 728.4254,516.0711 723.81,497.46 C726.3475,497.0433 727.8008,498.6763 727.233,501.1445 C713.3757,494.9723 713.2543,487.1427 723.42,477.1526 C712.9878,470.8081 713.7395,459.6896 724.9703,454.851 C711.8152,450.8599 710.9295,440.5212 721.0558,432.4599 C709.9626,424.7675 707.9129,414.6405 720.6027,406.5325 C710.4931,399.3937 708.5394,392.1857 719.7833,384.2613 C711.2141,376.7281 711.1584,369.2732 721.3207,363.1009 C710.5355,357.6564 710.456,347.975 720.3991,341.6403 C710.7345,334.1769 711.0938,323.9438 722.6152,318.5102 C712.1896,311.7684 710.8913,300.5728 724.0106,295.243 C709.1703,280.4143 714.548,270.862 730.81,262.49 C733.8952,261.4613 735.4858,263.1914 734.5578,266.208 " fill="#FFFFFF" fill-opacity="0.00000" style="stroke:#181818;stroke-width:1;"/><text fill="#000000" font-family="sans-serif" font-size="14" font-weight="bold" lengthAdjust="spacing" textLength="295.4766" x="723.5717" y="281.0252">Authentication and Authorizatio Services</text></g><!--entity ii--><g id="elem_ii"><rect fill="#F1F1F1" height="36.4883" rx="2.5" ry="2.5" style="stroke:#181818;stroke-width:0.5;" width="162.2764" x="267.68" y="670.89"/><text fill="#000000" font-family="sans-serif" font-size="14" lengthAdjust="spacing" textLength="142.2764" x="277.68" y="694.4252">Data &amp; License index</text></g><!--entity ai--><g id="elem_ai"><rect fill="#F1F1F1" height="36.4883" rx="2.5" ry="2.5" style="stroke:#181818;stroke-width:0.5;" width="110.4531" x="464.59" y="670.89"/><text fill="#000000" font-family="sans-serif" font-size="14" lengthAdjust="spacing" textLength="90.4531" x="474.59" y="694.4252">Browse Index</text></g><!--entity repo--><g id="elem_repo"><path d="M6,577.46 C6,567.46 112.814,567.46 112.814,567.46 C112.814,567.46 219.6279,567.46 219.6279,577.46 L219.6279,800.8077 C219.6279,810.8077 112.814,810.8077 112.814,810.8077 C112.814,810.8077 6,810.8077 6,800.8077 L6,577.46 " fill="#F1F1F1" style="stroke:#181818;stroke-width:0.5;"/><path d="M6,577.46 C6,587.46 112.814,587.46 112.814,587.46 C112.814,587.46 219.6279,587.46 219.6279,577.46 " fill="#FFFFFF" fill-opacity="0.00000" style="stroke:#181818;stroke-width:0.5;"/><text fill="#000000" font-family="sans-serif" font-size="14" lengthAdjust="spacing" textLength="189.1982" x="16" y="604.9952">.......... OCFL Repo ..............</text><text fill="#000000" font-family="sans-serif" font-size="14" lengthAdjust="spacing" textLength="4.4297" x="16" y="621.4834">&#160;</text><text fill="#000000" font-family="sans-serif" font-size="14" lengthAdjust="spacing" textLength="4.4297" x="16" y="637.9717">&#160;</text><text fill="#000000" font-family="sans-serif" font-size="14" lengthAdjust="spacing" textLength="4.4297" x="16" y="654.46">&#160;</text><text fill="#000000" font-family="sans-serif" font-size="14" lengthAdjust="spacing" textLength="4.4297" x="16" y="670.9483">&#160;</text><text fill="#000000" font-family="sans-serif" font-size="14" lengthAdjust="spacing" textLength="4.4297" x="16" y="687.4366">&#160;</text><text fill="#000000" font-family="sans-serif" font-size="14" lengthAdjust="spacing" textLength="4.4297" x="16" y="703.9248">&#160;</text><text fill="#000000" font-family="sans-serif" font-size="14" lengthAdjust="spacing" textLength="4.4297" x="16" y="720.4131">&#160;</text><text fill="#000000" font-family="sans-serif" font-size="14" lengthAdjust="spacing" textLength="4.4297" x="16" y="736.9014">&#160;</text><text fill="#000000" font-family="sans-serif" font-size="14" lengthAdjust="spacing" textLength="4.4297" x="16" y="753.3897">&#160;</text><text fill="#000000" font-family="sans-serif" font-size="14" lengthAdjust="spacing" textLength="4.4297" x="16" y="769.878">&#160;</text><text fill="#000000" font-family="sans-serif" font-size="14" lengthAdjust="spacing" textLength="4.4297" x="16" y="786.3663">&#160;</text><text fill="#000000" font-family="sans-serif" font-size="14" lengthAdjust="spacing" textLength="4.4297" x="16" y="802.8545">&#160;</text></g><!--entity Indexer--><g id="elem_Indexer"><rect fill="#F1F1F1" height="36.4883" rx="2.5" ry="2.5" style="stroke:#181818;stroke-width:0.5;" width="71.4473" x="326.09" y="887.81"/><text fill="#000000" font-family="sans-serif" font-size="14" lengthAdjust="spacing" textLength="51.4473" x="336.09" y="911.3452">Indexer</text></g><!--entity conf--><g id="elem_conf"><rect fill="#F1F1F1" height="36.4883" rx="2.5" ry="2.5" style="stroke:#181818;stroke-width:0.5;" width="64.8984" x="493.36" y="887.81"/><text fill="#000000" font-family="sans-serif" font-size="14" lengthAdjust="spacing" textLength="44.8984" x="503.36" y="911.3452">Config</text></g><!--entity iapi--><g id="elem_iapi"><rect fill="#F1F1F1" height="46.4883" rx="2.5" ry="2.5" style="stroke:#181818;stroke-width:0.5;" width="77.4951" x="364.07" y="316.49"/><rect fill="#F1F1F1" height="10" style="stroke:#181818;stroke-width:0.5;" width="15" x="421.5651" y="321.49"/><rect fill="#F1F1F1" height="2" style="stroke:#181818;stroke-width:0.5;" width="4" x="419.5651" y="323.49"/><rect fill="#F1F1F1" height="2" style="stroke:#181818;stroke-width:0.5;" width="4" x="419.5651" y="327.49"/><text fill="#000000" font-family="sans-serif" font-size="14" lengthAdjust="spacing" textLength="37.4951" x="379.07" y="350.0252">item/</text></g><!--entity qapi--><g id="elem_qapi"><rect fill="#F1F1F1" height="46.4883" rx="2.5" ry="2.5" style="stroke:#181818;stroke-width:0.5;" width="85.6846" x="476.97" y="316.49"/><rect fill="#F1F1F1" height="10" style="stroke:#181818;stroke-width:0.5;" width="15" x="542.6546" y="321.49"/><rect fill="#F1F1F1" height="2" style="stroke:#181818;stroke-width:0.5;" width="4" x="540.6546" y="323.49"/><rect fill="#F1F1F1" height="2" style="stroke:#181818;stroke-width:0.5;" width="4" x="540.6546" y="327.49"/><text fill="#000000" font-family="sans-serif" font-size="14" lengthAdjust="spacing" textLength="45.6846" x="491.97" y="350.0252">query/</text></g><!--entity lic--><g id="elem_lic"><rect fill="#F1F1F1" height="46.4883" rx="2.5" ry="2.5" style="stroke:#181818;stroke-width:0.5;" width="123.125" x="206.25" y="316.49"/><rect fill="#F1F1F1" height="10" style="stroke:#181818;stroke-width:0.5;" width="15" x="309.375" y="321.49"/><rect fill="#F1F1F1" height="2" style="stroke:#181818;stroke-width:0.5;" width="4" x="307.375" y="323.49"/><rect fill="#F1F1F1" height="2" style="stroke:#181818;stroke-width:0.5;" width="4" x="307.375" y="327.49"/><text fill="#000000" font-family="sans-serif" font-size="14" lengthAdjust="spacing" textLength="83.125" x="221.25" y="350.0252">license filter</text></g><!--entity CILogon--><g id="elem_CILogon"><rect fill="#F1F1F1" height="46.4883" rx="2.5" ry="2.5" style="stroke:#181818;stroke-width:0.5;" width="95.8018" x="739.91" y="316.49"/><rect fill="#F1F1F1" height="10" style="stroke:#181818;stroke-width:0.5;" width="15" x="815.7118" y="321.49"/><rect fill="#F1F1F1" height="2" style="stroke:#181818;stroke-width:0.5;" width="4" x="813.7118" y="323.49"/><rect fill="#F1F1F1" height="2" style="stroke:#181818;stroke-width:0.5;" width="4" x="813.7118" y="327.49"/><text fill="#000000" font-family="sans-serif" font-size="14" lengthAdjust="spacing" textLength="55.8018" x="754.91" y="350.0252">CILogon</text></g><!--entity Mukurtu--><g id="elem_Mukurtu"><rect fill="#F1F1F1" height="46.4883" rx="2.5" ry="2.5" style="stroke:#181818;stroke-width:0.5;" width="97.2715" x="871.18" y="316.49"/><rect fill="#F1F1F1" height="10" style="stroke:#181818;stroke-width:0.5;" width="15" x="948.4515" y="321.49"/><rect fill="#F1F1F1" height="2" style="stroke:#181818;stroke-width:0.5;" width="4" x="946.4515" y="323.49"/><rect fill="#F1F1F1" height="2" style="stroke:#181818;stroke-width:0.5;" width="4" x="946.4515" y="327.49"/><text fill="#000000" font-family="sans-serif" font-size="14" lengthAdjust="spacing" textLength="57.2715" x="886.18" y="350.0252">Mukurtu</text></g><!--entity ...--><g id="elem_..."><rect fill="#F1F1F1" height="46.4883" rx="2.5" ry="2.5" style="stroke:#181818;stroke-width:0.5;" width="53.2891" x="761.17" y="441.98"/><rect fill="#F1F1F1" height="10" style="stroke:#181818;stroke-width:0.5;" width="15" x="794.4591" y="446.98"/><rect fill="#F1F1F1" height="2" style="stroke:#181818;stroke-width:0.5;" width="4" x="792.4591" y="448.98"/><rect fill="#F1F1F1" height="2" style="stroke:#181818;stroke-width:0.5;" width="4" x="792.4591" y="452.98"/><text fill="#000000" font-family="sans-serif" font-size="14" lengthAdjust="spacing" textLength="13.2891" x="776.17" y="475.5152">...</text></g><!--entity UI--><g id="elem_UI"><rect fill="#F1F1F1" height="36.4883" rx="2.5" ry="2.5" style="stroke:#181818;stroke-width:0.5;" width="33.7334" x="467.95" y="7"/><text fill="#000000" font-family="sans-serif" font-size="14" lengthAdjust="spacing" textLength="13.7334" x="477.95" y="30.5352">UI</text></g><!--reverse link repo to Indexer--><g id="link_repo_Indexer"><path d="M224.2875,787.0258 C235.1175,796.3958 241.41,801.84 251.81,810.81 C282.86,837.58 318.96,868.47 341.1,887.38 " fill="#FFFFFF" fill-opacity="0.00000" id="repo-backto-Indexer" style="stroke:#181818;stroke-width:1;"/><polygon fill="#181818" points="219.75,783.1,223.939,792.0136,223.5312,786.3715,229.1733,785.9637,219.75,783.1" style="stroke:#181818;stroke-width:1;"/><text fill="#000000" font-family="sans-serif" font-size="13" lengthAdjust="spacing" textLength="78.5332" x="306.88" y="854.3784">Scan objects</text></g><!--link Indexer to conf--><g id="link_Indexer_conf"><path d="M397.8,906.06 C426.19,906.06 459.44,906.06 486.97,906.06 " fill="#FFFFFF" fill-opacity="0.00000" id="Indexer-to-conf" style="stroke:#181818;stroke-width:1;"/><polygon fill="#181818" points="492.97,906.06,483.97,902.06,487.97,906.06,483.97,910.06,492.97,906.06" style="stroke:#181818;stroke-width:1;"/><text fill="#000000" font-family="sans-serif" font-size="13" lengthAdjust="spacing" textLength="59.1221" x="415.95" y="899.6284">Consume</text></g><!--reverse link Index to Indexer--><g id="link_Index_Indexer"><path d="M613.4683,737.6969 C613.4604,738.0739 613.5523,733.0179 613.5424,733.3976 C613.5227,734.1571 613.499,734.9218 613.4713,735.6912 C612.5825,760.315 607.475,789.875 590.81,810.81 C542.62,871.36 448.98,893.35 397.64,901.08 " fill="#FFFFFF" fill-opacity="0.00000" id="Index-backto-Indexer" style="stroke:#181818;stroke-width:1;"/><polygon fill="#181818" points="613.5804,731.6979,609.413,740.6216,613.487,736.6971,617.4116,740.7711,613.5804,731.6979" style="stroke:#181818;stroke-width:1;"/><text fill="#000000" font-family="sans-serif" font-size="13" lengthAdjust="spacing" textLength="32.3032" x="558.31" y="854.3784">Write</text></g><!--link lic to auth--><g id="link_lic_auth"><path d="M278.42,316.33 C290.89,292.01 314.11,255.31 346.81,239.44 C378.7,223.97 957.52,216.83 984.81,239.44 C988.905,242.8312 992.3013,246.805 995.1063,251.1781 C995.4569,251.7248 995.7983,252.2777 996.1306,252.8364 C996.2968,253.1158 996.4608,253.3967 996.6224,253.679 C996.7033,253.8201 993.8435,248.7313 993.9233,248.8731 " fill="#FFFFFF" fill-opacity="0.00000" id="lic-to-auth" style="stroke:#181818;stroke-width:1;"/><polygon fill="#181818" points="996.8633,254.1034,995.9401,244.2979,994.4133,249.7448,988.9664,248.218,996.8633,254.1034" style="stroke:#181818;stroke-width:1;"/><text fill="#000000" font-family="sans-serif" font-size="13" lengthAdjust="spacing" textLength="213.0845" x="378.31" y="227.0584">Get user's group/license holdings</text></g><!--link UI to qapi--><g id="link_UI_qapi"><path d="M499.5,43.9 C524.71,75.5 575.29,144.85 593.81,213.49 C604.41,252.74 576.7686,288.0366 551.5586,311.8866 " fill="#FFFFFF" fill-opacity="0.00000" id="UI-to-qapi" style="stroke:#181818;stroke-width:1;"/><polygon fill="#181818" points="547.2,316.01,556.4868,312.7305,550.8321,312.5738,550.9889,306.9191,547.2,316.01" style="stroke:#181818;stroke-width:1;"/><text fill="#000000" font-family="sans-serif" font-size="13" lengthAdjust="spacing" textLength="99.9312" x="570.83" y="149.0584">Construct views</text></g><!--link UI to iapi--><g id="link_UI_iapi"><path d="M470.13,43.9 C444.92,75.5 394.34,144.85 375.81,213.49 C366.19,249.14 377.9652,285.7262 389.1452,310.9062 " fill="#FFFFFF" fill-opacity="0.00000" id="UI-to-iapi" style="stroke:#181818;stroke-width:1;"/><polygon fill="#181818" points="391.58,316.39,391.5836,306.5411,389.551,311.8202,384.2719,309.7876,391.58,316.39" style="stroke:#181818;stroke-width:1;"/><text fill="#000000" font-family="sans-serif" font-size="13" lengthAdjust="spacing" textLength="127.0039" x="409.51" y="149.0584">Get data for viewing</text></g><!--link iapi to ii--><g id="link_iapi_ii"><path d="M389.51,363.13 C378.45,383.06 363.49,413.4 356.81,441.98 C337.26,525.67 342.9559,623.7129 346.5359,664.5429 " fill="#FFFFFF" fill-opacity="0.00000" id="iapi-to-ii" style="stroke:#181818;stroke-width:1;"/><polygon fill="#181818" points="347.06,670.52,350.2586,661.205,346.6233,665.5391,342.2892,661.9038,347.06,670.52" style="stroke:#181818;stroke-width:1;"/><text fill="#000000" font-family="sans-serif" font-size="13" lengthAdjust="spacing" textLength="153.1689" x="357.81" y="462.7884">Consult for get requests</text><text fill="#000000" font-family="sans-serif" font-size="13" lengthAdjust="spacing" textLength="127.645" x="370.572" y="478.0989">for Objects and files</text></g><!--link qapi to ai--><g id="link_qapi_ai"><path d="M519.81,363.26 C519.81,427.91 519.81,607.12 519.81,664.78 " fill="#FFFFFF" fill-opacity="0.00000" id="qapi-to-ai" style="stroke:#181818;stroke-width:1;"/><polygon fill="#181818" points="519.81,670.78,523.81,661.78,519.81,665.78,515.81,661.78,519.81,670.78" style="stroke:#181818;stroke-width:1;"/><text fill="#000000" font-family="sans-serif" font-size="13" lengthAdjust="spacing" textLength="170.5298" x="520.81" y="462.7884">Consult for queries / views</text><text fill="#000000" font-family="sans-serif" font-size="13" lengthAdjust="spacing" textLength="114.2705" x="548.9396" y="478.0989">*with license filter</text></g><!--link API to repo--><g id="link_API_repo"><path d="M162.9654,387.7463 C161.4338,396.9226 159.7294,407.1328 157.9,418.0913 C150.5825,461.925 142.2533,511.812 133.9883,561.302 " fill="#FFFFFF" fill-opacity="0.00000" id="API-to-repo" style="stroke:#181818;stroke-width:1;"/><polygon fill="#181818" points="133,567.22,138.4279,559.0018,133.8236,562.2883,130.5371,557.6841,133,567.22" style="stroke:#181818;stroke-width:1;"/><text fill="#000000" font-family="sans-serif" font-size="13" lengthAdjust="spacing" textLength="30.8242" x="154.81" y="470.2884">Read</text></g><!--SRC=[RLBBRi8m4BpxArOSMgbIuCu1gQLg5OcA2eHwA1pSP0bkWntyWBQ8V-_wGNYepYMUdHsFPrroop-uGUZaiiJl3koPni9oMTM4FL8LRc0a2fJ44P723GX1H7OuvpvejIDEtd9uuXmOAzjJkks2yV1f11Di57Gl5ipb_rzGrRvXpu2MLpup44v6tOcddbU6IYv55TeB-as4n8VCDTaWwlPXMd09wkEJcis9COXzVI0buzPurHjsL7tJmkB5oVUlUIUvVQVQkhS8wV56H6pZKFz4SDE2TOfxAMgBEXG92fwBMhcIP9rTeRIYu5Oe2LoMu26bnQz7O8fwIo8cpe4gHm_3VAGg9HTnz-A-dBOkxIZwnNLoisIVOBBWWmXgVNX62ywWlZLGQUMQtj7qIjMba9LXinooh5GxcL6NlroApsfNMDWAt5rnHEHuPVzUOAbqe94Q2xL47VZNbqPHsq2hg4SZXMcicKkFZEC8GpIK8ngskP3Wrn9-4W8DzAArkRpR2RhfvImOeu6UH8wFPeAyP7y0]--></g></svg>