<svg xmlns="http://www.w3.org/2000/svg" xmlns:xlink="http://www.w3.org/1999/xlink" contentStyleType="text/css" data-diagram-type="CLASS" height="737px" preserveAspectRatio="none" style="width:1187px;height:737px;background:#FFFFFF;" version="1.1" viewBox="0 0 1187 737" width="1187px" zoomAndPan="magnify"><title>Oni Architecture</title><defs/><g><text fill="#000000" font-family="sans-serif" font-size="14" font-weight="bold" lengthAdjust="spacing" textLength="118.5215" x="527.2393" y="23.5352">Oni Architecture</text><!--cluster Search and discovery Index--><g id="cluster_Search and discovery Index"><path d="M6,597.0783 C6,587.0783 588,587.0783 588,587.0783 C588,587.0783 1170,587.0783 1170,597.0783 L1170,710.4783 C1170,720.4783 588,720.4783 588,720.4783 C588,720.4783 6,720.4783 6,710.4783 L6,597.0783 " fill="#FFFFFF" fill-opacity="0.00000" style="stroke:#181818;stroke-width:1;"/><path d="M6,597.0783 C6,607.0783 588,607.0783 588,607.0783 C588,607.0783 1170,607.0783 1170,597.0783 " fill="#FFFFFF" fill-opacity="0.00000" style="stroke:#181818;stroke-width:1;"/><text fill="#000000" font-family="sans-serif" font-size="18" font-weight="bold" lengthAdjust="spacing" textLength="252.958" x="461.521" y="626.4806">Search and discovery Index</text></g><!--cluster Data and license index--><g id="cluster_Data and license index"><path d="M453,53.4883 C453,43.4883 714,43.4883 714,43.4883 C714,43.4883 975,43.4883 975,53.4883 L975,188.0883 C975,198.0883 714,198.0883 714,198.0883 C714,198.0883 453,198.0883 453,188.0883 L453,53.4883 " fill="#FFFFFF" fill-opacity="0.00000" style="stroke:#181818;stroke-width:1;"/><path d="M453,53.4883 C453,63.4883 714,63.4883 714,63.4883 C714,63.4883 975,63.4883 975,53.4883 " fill="#FFFFFF" fill-opacity="0.00000" style="stroke:#181818;stroke-width:1;"/><text fill="#000000" font-family="sans-serif" font-size="18" font-weight="bold" lengthAdjust="spacing" textLength="210.0234" x="608.9883" y="82.8906">Data and license index</text></g><!--cluster repo--><g id="cluster_repo"><path d="M422,360.2783 C422,350.2783 623,350.2783 623,350.2783 C623,350.2783 824,350.2783 824,360.2783 L824,516.0783 C824,526.0783 623,526.0783 623,526.0783 C623,526.0783 422,526.0783 422,516.0783 L422,360.2783 " fill="#FFFFFF" fill-opacity="0.00000" style="stroke:#181818;stroke-width:1;"/><path d="M422,360.2783 C422,370.2783 623,370.2783 623,370.2783 C623,370.2783 824,370.2783 824,360.2783 " fill="#FFFFFF" fill-opacity="0.00000" style="stroke:#181818;stroke-width:1;"/><text fill="#000000" font-family="sans-serif" font-size="18" font-weight="bold" lengthAdjust="spacing" textLength="99.8877" x="573.0562" y="389.6806">Repository</text></g><!--entity A--><g id="elem_A"><rect fill="#F1F1F1" height="62.3984" rx="2.5" ry="2.5" style="stroke:#181818;stroke-width:0.5;" width="108.5322" x="1045.73" y="642.0783"/><text fill="#000000" font-family="sans-serif" font-size="18" lengthAdjust="spacing" textLength="79.541" x="1055.73" y="669.4806">Object 1:</text><text fill="#000000" font-family="sans-serif" font-size="18" lengthAdjust="spacing" textLength="88.5322" x="1055.73" y="690.6798">Diaglogue</text></g><!--entity B--><g id="elem_B"><rect fill="#F1F1F1" height="62.3984" rx="2.5" ry="2.5" style="stroke:#181818;stroke-width:0.5;" width="220.1533" x="790.92" y="642.0783"/><text fill="#000000" font-family="sans-serif" font-size="18" lengthAdjust="spacing" textLength="79.541" x="800.92" y="669.4806">Object 2:</text><text fill="#000000" font-family="sans-serif" font-size="18" lengthAdjust="spacing" textLength="200.1533" x="800.92" y="690.6798">Sub Collection Books 1</text></g><!--entity C--><g id="elem_C"><rect fill="#F1F1F1" height="62.3984" rx="2.5" ry="2.5" style="stroke:#181818;stroke-width:0.5;" width="220.1533" x="535.92" y="642.0783"/><text fill="#000000" font-family="sans-serif" font-size="18" lengthAdjust="spacing" textLength="79.541" x="545.92" y="669.4806">Object 2:</text><text fill="#000000" font-family="sans-serif" font-size="18" lengthAdjust="spacing" textLength="200.1533" x="545.92" y="690.6798">Sub Collection Books 2</text></g><!--entity D--><g id="elem_D"><rect fill="#F1F1F1" height="62.3984" rx="2.5" ry="2.5" style="stroke:#181818;stroke-width:0.5;" width="209.2637" x="22.37" y="642.0783"/><text fill="#000000" font-family="sans-serif" font-size="18" lengthAdjust="spacing" textLength="79.541" x="32.37" y="669.4806">Object 3:</text><text fill="#000000" font-family="sans-serif" font-size="18" lengthAdjust="spacing" textLength="189.2637" x="32.37" y="690.6798">Small video collection</text></g><!--entity E--><g id="elem_E"><rect fill="#F1F1F1" height="62.3984" rx="2.5" ry="2.5" style="stroke:#181818;stroke-width:0.5;" width="99.541" x="266.23" y="642.0783"/><text fill="#000000" font-family="sans-serif" font-size="18" lengthAdjust="spacing" textLength="79.541" x="276.23" y="669.4806">Object 3:</text><text fill="#000000" font-family="sans-serif" font-size="18" lengthAdjust="spacing" textLength="58.5615" x="276.23" y="690.6798">Videos</text></g><!--entity F--><g id="elem_F"><rect fill="#F1F1F1" height="62.3984" rx="2.5" ry="2.5" style="stroke:#181818;stroke-width:0.5;" width="99.541" x="401.23" y="642.0783"/><text fill="#000000" font-family="sans-serif" font-size="18" lengthAdjust="spacing" textLength="79.541" x="411.23" y="669.4806">Object 3:</text><text fill="#000000" font-family="sans-serif" font-size="18" lengthAdjust="spacing" textLength="60.3545" x="411.23" y="690.6798">Audios</text></g><!--entity o1--><g id="elem_o1"><rect fill="#F1F1F1" height="83.5977" rx="2.5" ry="2.5" style="stroke:#181818;stroke-width:0.5;" width="139.7686" x="819.12" y="98.4883"/><text fill="#000000" font-family="sans-serif" font-size="18" lengthAdjust="spacing" textLength="79.541" x="829.12" y="125.8906">Object 1:</text><text fill="#000000" font-family="sans-serif" font-size="18" lengthAdjust="spacing" textLength="119.7686" x="829.12" y="147.0898">Data Location</text><text fill="#000000" font-family="sans-serif" font-size="18" lengthAdjust="spacing" textLength="64.4238" x="829.12" y="168.2891">License</text></g><!--entity o2--><g id="elem_o2"><rect fill="#F1F1F1" height="83.5977" rx="2.5" ry="2.5" style="stroke:#181818;stroke-width:0.5;" width="139.7686" x="644.12" y="98.4883"/><text fill="#000000" font-family="sans-serif" font-size="18" lengthAdjust="spacing" textLength="79.541" x="654.12" y="125.8906">Object 2:</text><text fill="#000000" font-family="sans-serif" font-size="18" lengthAdjust="spacing" textLength="119.7686" x="654.12" y="147.0898">Data Location</text><text fill="#000000" font-family="sans-serif" font-size="18" lengthAdjust="spacing" textLength="64.4238" x="654.12" y="168.2891">License</text></g><!--entity o3--><g id="elem_o3"><rect fill="#F1F1F1" height="83.5977" rx="2.5" ry="2.5" style="stroke:#181818;stroke-width:0.5;" width="139.7686" x="469.12" y="98.4883"/><text fill="#000000" font-family="sans-serif" font-size="18" lengthAdjust="spacing" textLength="79.541" x="479.12" y="125.8906">Object 3:</text><text fill="#000000" font-family="sans-serif" font-size="18" lengthAdjust="spacing" textLength="119.7686" x="479.12" y="147.0898">Data Location</text><text fill="#000000" font-family="sans-serif" font-size="18" lengthAdjust="spacing" textLength="64.4238" x="479.12" y="168.2891">License</text></g><!--entity ro1--><g id="elem_ro1"><rect fill="#F1F1F1" height="104.7969" rx="2.5" ry="2.5" style="stroke:#181818;stroke-width:0.5;" width="100.1475" x="707.93" y="405.2783"/><text fill="#000000" font-family="sans-serif" font-size="18" lengthAdjust="spacing" textLength="79.541" x="717.93" y="432.6806">Object 1:</text><text fill="#000000" font-family="sans-serif" font-size="18" lengthAdjust="spacing" textLength="80.1475" x="717.93" y="453.8798">Metadata</text><text fill="#000000" font-family="sans-serif" font-size="18" lengthAdjust="spacing" textLength="40.0957" x="717.93" y="475.0791">Data</text><text fill="#000000" font-family="sans-serif" font-size="18" lengthAdjust="spacing" textLength="64.4238" x="717.93" y="496.2783">License</text></g><!--entity ro2--><g id="elem_ro2"><rect fill="#F1F1F1" height="104.7969" rx="2.5" ry="2.5" style="stroke:#181818;stroke-width:0.5;" width="100.1475" x="572.93" y="405.2783"/><text fill="#000000" font-family="sans-serif" font-size="18" lengthAdjust="spacing" textLength="79.541" x="582.93" y="432.6806">Object 2:</text><text fill="#000000" font-family="sans-serif" font-size="18" lengthAdjust="spacing" textLength="80.1475" x="582.93" y="453.8798">Metadata</text><text fill="#000000" font-family="sans-serif" font-size="18" lengthAdjust="spacing" textLength="40.0957" x="582.93" y="475.0791">Data</text><text fill="#000000" font-family="sans-serif" font-size="18" lengthAdjust="spacing" textLength="64.4238" x="582.93" y="496.2783">License</text></g><!--entity ro3--><g id="elem_ro3"><rect fill="#F1F1F1" height="104.7969" rx="2.5" ry="2.5" style="stroke:#181818;stroke-width:0.5;" width="100.1475" x="437.93" y="405.2783"/><text fill="#000000" font-family="sans-serif" font-size="18" lengthAdjust="spacing" textLength="79.541" x="447.93" y="432.6806">Object 3:</text><text fill="#000000" font-family="sans-serif" font-size="18" lengthAdjust="spacing" textLength="80.1475" x="447.93" y="453.8798">Metadata</text><text fill="#000000" font-family="sans-serif" font-size="18" lengthAdjust="spacing" textLength="40.0957" x="447.93" y="475.0791">Data</text><text fill="#000000" font-family="sans-serif" font-size="18" lengthAdjust="spacing" textLength="64.4238" x="447.93" y="496.2783">License</text></g><g id="elem_GMN17"><path d="M190.84,303.0883 L190.84,334.2875 A0,0 0 0 0 190.84,334.2875 L267.47,334.2875 L437.51,428.2183 L275.47,334.2875 L299.1681,334.2875 A0,0 0 0 0 299.1681,334.2875 L299.1681,313.0883 L289.1681,303.0883 L190.84,303.0883 A0,0 0 0 0 190.84,303.0883 " fill="#FEFFDD" style="stroke:#181818;stroke-width:0.5;"/><path d="M289.1681,303.0883 L289.1681,313.0883 L299.1681,313.0883 L289.1681,303.0883 " fill="#FEFFDD" style="stroke:#181818;stroke-width:0.5;"/><text fill="#000000" font-family="sans-serif" font-size="18" lengthAdjust="spacing" textLength="87.3281" x="196.84" y="325.4906">Collection</text></g><g id="elem_GMN20"><path d="M405.15,303.0883 L405.15,334.2875 L660.8531,334.2875 L660.8531,313.0883 L650.8531,303.0883 L405.15,303.0883 " fill="#FEFFDD" style="stroke:#181818;stroke-width:0.5;"/><path d="M650.8531,303.0883 L650.8531,313.0883 L660.8531,313.0883 L650.8531,303.0883 " fill="#FEFFDD" style="stroke:#181818;stroke-width:1;"/><text fill="#000000" font-family="sans-serif" font-size="18" lengthAdjust="spacing" textLength="234.7031" x="411.15" y="325.4906">Two sub collection records</text></g><g id="elem_GMN23"><path d="M766.7,303.0883 L766.7,334.2875 A0,0 0 0 0 766.7,334.2875 L868.95,334.2875 L806.71,404.9483 L876.95,334.2875 L1007.3035,334.2875 A0,0 0 0 0 1007.3035,334.2875 L1007.3035,313.0883 L997.3035,303.0883 L766.7,303.0883 A0,0 0 0 0 766.7,303.0883 " fill="#FEFFDD" style="stroke:#181818;stroke-width:0.5;"/><path d="M997.3035,303.0883 L997.3035,313.0883 L1007.3035,313.0883 L997.3035,303.0883 " fill="#FEFFDD" style="stroke:#181818;stroke-width:0.5;"/><text fill="#000000" font-family="sans-serif" font-size="18" lengthAdjust="spacing" textLength="219.6035" x="772.7" y="325.4906">Part of a larger collection</text></g><!--link GMN20 to ro2--><g id="link_GMN20_ro2"><path d="M549.41,334.7283 C551.73,337.1583 554,339.7183 556,342.2783 C571.07,361.6183 585.19,384.6683 596.55,404.9883 " fill="#FFFFFF" fill-opacity="0.00000" id="GMN20-ro2" style="stroke:#181818;stroke-width:1;stroke-dasharray:7.0,7.0;"/></g><!--link ro1 to A--><g id="link_ro1_A"><path codeLine="59" d="M808.51,472.7283 C866.21,490.5583 961.35,525.5983 1029,579.0783 C1050.86,596.3583 1066.4289,616.7826 1079.1789,636.7326 " fill="#FFFFFF" fill-opacity="0.00000" id="ro1-to-A" style="stroke:#181818;stroke-width:1;"/><polygon fill="#181818" points="1082.41,641.7883,1080.9338,632.0507,1079.7174,637.5752,1074.1929,636.3588,1082.41,641.7883" style="stroke:#181818;stroke-width:1;"/></g><!--link ro2 to B--><g id="link_ro2_B"><path codeLine="60" d="M664.31,510.1883 C672.35,518.6983 681.06,527.0283 690,534.0783 C723.25,560.3183 738.17,556.4983 774,579.0783 C804.65,598.4083 832.8422,619.0326 857.4922,637.9726 " fill="#FFFFFF" fill-opacity="0.00000" id="ro2-to-B" style="stroke:#181818;stroke-width:1;"/><polygon fill="#181818" points="862.25,641.6283,857.5505,632.973,858.2852,638.5819,852.6763,639.3166,862.25,641.6283" style="stroke:#181818;stroke-width:1;"/></g><!--link ro2 to C--><g id="link_ro2_C"><path codeLine="61" d="M628.57,510.3883 C632.99,551.4983 638.3983,601.6527 642.0783,635.8627 " fill="#FFFFFF" fill-opacity="0.00000" id="ro2-to-C" style="stroke:#181818;stroke-width:1;"/><polygon fill="#181818" points="642.72,641.8283,645.7345,632.4521,642.1852,636.857,637.7804,633.3077,642.72,641.8283" style="stroke:#181818;stroke-width:1;"/></g><!--link ro3 to D--><g id="link_ro3_D"><path codeLine="62" d="M437.56,480.7583 C388.16,503.1583 311.41,539.9983 249,579.0783 C218.84,597.9683 191.6189,618.7175 168.0089,637.8775 " fill="#FFFFFF" fill-opacity="0.00000" id="ro3-to-D" style="stroke:#181818;stroke-width:1;"/><polygon fill="#181818" points="163.35,641.6583,172.8589,639.093,167.2324,638.5076,167.8178,632.8811,163.35,641.6583" style="stroke:#181818;stroke-width:1;"/></g><!--link ro3 to E--><g id="link_ro3_E"><path codeLine="63" d="M441.74,510.3383 C423.37,531.3383 402.3,556.0483 384,579.0783 C367.8,599.4683 353.9969,618.2884 340.9069,636.6984 " fill="#FFFFFF" fill-opacity="0.00000" id="ro3-to-E" style="stroke:#181818;stroke-width:1;"/><polygon fill="#181818" points="337.43,641.5883,345.9053,636.5713,340.3274,637.5133,339.3854,631.9355,337.43,641.5883" style="stroke:#181818;stroke-width:1;"/></g><!--link ro3 to F--><g id="link_ro3_F"><path codeLine="64" d="M479.04,510.3883 C471.92,551.4983 463.2248,601.7064 457.2948,635.9164 " fill="#FFFFFF" fill-opacity="0.00000" id="ro3-to-F" style="stroke:#181818;stroke-width:1;"/><polygon fill="#181818" points="456.27,641.8283,461.7484,633.6437,457.124,636.9017,453.8659,632.2773,456.27,641.8283" style="stroke:#181818;stroke-width:1;"/></g><!--reverse link o1 to ro1--><g id="link_o1_ro1"><path codeLine="66" d="M956.1073,186.0015 C1006.6173,224.6015 1059.42,280.6383 1025,334.2783 C977.22,408.7483 871.57,438.4983 808.43,449.9383 " fill="#FFFFFF" fill-opacity="0.00000" id="o1-backto-ro1" style="stroke:#181818;stroke-width:1;"/><polygon fill="#181818" points="951.34,182.3583,956.0622,191.0013,955.3127,185.3943,960.9197,184.6449,951.34,182.3583" style="stroke:#181818;stroke-width:1;"/></g><!--reverse link o2 to ro2--><g id="link_o2_ro2"><path codeLine="67" d="M708.439,188.2059 C703.179,227.7559 694.04,283.0483 678,334.2783 C670.52,358.1783 659.62,383.5983 649.5,405.0283 " fill="#FFFFFF" fill-opacity="0.00000" id="o2-backto-ro2" style="stroke:#181818;stroke-width:1;"/><polygon fill="#181818" points="709.23,182.2583,704.0784,190.6524,708.5708,187.2146,712.0086,191.7071,709.23,182.2583" style="stroke:#181818;stroke-width:1;"/></g><!--reverse link o3 to ro3--><g id="link_o3_ro3"><path codeLine="68" d="M478.6188,186.4429 C443.9988,215.7229 407.16,254.4683 388,303.0883 C371.2,345.7083 404.94,388.9783 437.68,418.6883 " fill="#FFFFFF" fill-opacity="0.00000" id="o3-backto-ro3" style="stroke:#181818;stroke-width:1;"/><polygon fill="#181818" points="483.2,182.5683,473.7451,185.326,479.3823,185.7971,478.9112,191.4343,483.2,182.5683" style="stroke:#181818;stroke-width:1;"/></g><!--SRC=[hLFBJiCm4BpxArQvzv3qWd90weDAI4L5577gPPkumTJrHhPJAAZ_Zksaj9GGKOcSPkoTyOxNCMkXIjIuWPoli99sGihEnJk7-8fPOILFOQO437JsB2pFRAKvOpbQNABX4CqvkXr0bKCkJ4PRhdTmgtB-5i47Oz1ysYbH5T8fPiiNHo1E5seii91KL3m2D31mWaDz0FiEUUBayse98vBISK4AXaHh0t7m6lwBLnAyHfTuzRtN1gM4hSWvGVRb6O4t6r_ezUHTJEZZvj8-1bKk6ktafvRjJ-SuTYXCKOgCAxSY3ZFidg2NJIb3dt2XfhKu74dnuG7KVRRVUvT1qXguFMkNJxyz_6dy1rwI4PRqBaYqeuseFVSTj-ZLzS7VpzD_I_whHUrnIVZkRbhYk_IAB0TB9T3ArwGdh_ziBqdXyPN0k3_a-9fz9wHpSrORft2Fsdg2854NN9-86FDtq-lrhc70VCG0XqSuOhxT0CT7U7E4auD5LNfASQDjQD9KDhJFs2S0]--></g></svg>