<svg xmlns="http://www.w3.org/2000/svg" xmlns:xlink="http://www.w3.org/1999/xlink" contentStyleType="text/css" data-diagram-type="DESCRIPTION" height="930px" preserveAspectRatio="none" style="width:1052px;height:930px;background:#FFFFFF;" version="1.1" viewBox="0 0 1052 930" width="1052px" zoomAndPan="magnify"><defs/><g><!--cluster Index--><g id="cluster_Index"><path d="M243.81,588.89 C243.81,578.89 439.81,578.89 439.81,578.89 C439.81,578.89 635.81,578.89 635.81,588.89 L635.81,721.38 C635.81,731.38 439.81,731.38 439.81,731.38 C439.81,731.38 243.81,731.38 243.81,721.38 L243.81,588.89 " fill="#FFFFFF" fill-opacity="0.00000" style="stroke:#181818;stroke-width:1;"/><path d="M243.81,588.89 C243.81,598.89 439.81,598.89 439.81,598.89 C439.81,598.89 635.81,598.89 635.81,588.89 " fill="#FFFFFF" fill-opacity="0.00000" style="stroke:#181818;stroke-width:1;"/><text fill="#000000" font-family="sans-serif" font-size="14" font-weight="bold" lengthAdjust="spacing" textLength="39.5869" x="420.0165" y="614.4252">Index</text></g><!--cluster API--><g id="cluster_API"><rect fill="#FFFFFF" fill-opacity="0.00000" height="132.49" rx="2.5" ry="2.5" style="stroke:#181818;stroke-width:1;" width="424" x="171.81" y="254.49"/><text fill="#000000" font-family="sans-serif" font-size="14" font-weight="bold" lengthAdjust="spacing" textLength="23.5361" x="372.0419" y="270.0252">API</text></g><!--cluster auth--><g id="cluster_auth"><path d="M743.5578,266.208 C748.1873,257.5993 757.0237,254.7212 763.0873,264.7014 C767.573,254.5423 775.4904,254.3267 782.9138,261.3023 C786.5056,249.3433 796.4473,248.4151 803.4968,257.9986 C810.0114,249.8422 816.6473,249.009 822.5705,258.6331 C827.2458,247.7249 836.5657,248.2505 843.6294,255.9266 C849.3516,246.8522 855.1432,245.9743 862.1224,254.6144 C867.2806,245.1981 876.8442,244.8648 883.1121,253.3104 C889.9015,245.1995 898.9579,244.7379 902.8369,256.2378 C907.8772,247.301 916.3814,246.974 922.035,255.5661 C928.6379,246.9454 935.9604,247.5749 941.5611,256.6706 C950.3093,247.1183 958.2869,250.1573 962.7629,261.0919 C968.5619,249.7052 976.3004,248.9608 983.6396,259.6343 C990.8715,250.0237 996.9276,251.4198 1002.4204,261.3092 C1013.6024,252.6181 1024.4625,253.8664 1027.81,269.49 C1028.7774,269.5171 1029.2113,270.0192 1028.7446,270.9588 C1041.8032,277.9295 1041.0616,288.0809 1028.9092,295.2227 C1038.4417,299.8087 1040.4174,309.6125 1030.6233,315.8078 C1040.6473,321.5866 1043.4703,333.2329 1031.484,339.8012 C1040.5132,346.4023 1043.2918,353.6976 1032.0088,360.8062 C1041.2799,367.587 1042.2432,377.8176 1031.4108,384.0819 C1043.3075,391.9768 1045.9936,401.526 1032.0955,410.0998 C1042.7205,415.3564 1041.6873,425.6292 1032.8523,431.5717 C1043.5487,439.1711 1041.501,448.817 1030.9735,454.6917 C1043.0164,460.2162 1042.8832,471.1857 1031.3003,477.0554 C1040.8934,489.4447 1037.387,502.0884 1020.81,504.46 C1021.0609,504.4509 1021.2603,504.5941 1021.1153,504.8757 C1016.344,513.6639 1008.958,514.9891 1002.6754,506.4875 C997.4216,516.5703 987.0669,517.2368 980.9122,507.4756 C975.338,516.4775 969.7566,518.7148 961.8358,510.0028 C958.0019,520.9737 950.8489,521.7873 943.61,513.1712 C938.5477,521.9889 929.8234,525.2074 923.4471,514.5302 C916.5102,524.4795 909.4768,525.9512 901.1454,516.1008 C894.8359,523.5076 888.0185,523.3313 883.0774,514.5715 C877.4298,525.7768 869.4436,525.0822 862.7281,515.6232 C857.1962,525.5001 848.2748,522.9996 843.5516,514.7669 C836.4627,524.6357 828.8976,523.1264 823.5048,513.0612 C817.0318,522.9675 807.2358,521.8417 803.3105,510.6256 C795.825,521.9017 788.9262,520.4815 781.1128,510.9758 C774.2037,520.0421 767.2977,517.6238 762.4153,508.8516 C746.5849,519.3871 737.4254,516.0711 732.81,497.46 C735.3475,497.0433 736.8008,498.6763 736.233,501.1445 C722.3757,494.9723 722.2543,487.1427 732.42,477.1526 C721.9878,470.8081 722.7395,459.6896 733.9703,454.851 C720.8152,450.8599 719.9295,440.5212 730.0558,432.4599 C718.9626,424.7675 716.9129,414.6405 729.6027,406.5325 C719.4931,399.3937 717.5394,392.1857 728.7833,384.2613 C720.2141,376.7281 720.1584,369.2732 730.3207,363.1009 C719.5355,357.6564 719.456,347.975 729.3991,341.6403 C719.7345,334.1769 720.0938,323.9438 731.6152,318.5102 C721.1896,311.7684 719.8913,300.5728 733.0106,295.243 C718.1703,280.4143 723.548,270.862 739.81,262.49 C742.8952,261.4613 744.4858,263.1914 743.5578,266.208 " fill="#FFFFFF" fill-opacity="0.00000" style="stroke:#181818;stroke-width:1;"/><text fill="#000000" font-family="sans-serif" font-size="14" font-weight="bold" lengthAdjust="spacing" textLength="295.4766" x="732.5717" y="281.0252">Authentication and Authorizatio Services</text></g><!--entity ii--><g id="elem_ii"><rect fill="#F1F1F1" height="36.4883" rx="2.5" ry="2.5" style="stroke:#181818;stroke-width:0.5;" width="162.2764" x="267.68" y="670.89"/><text fill="#000000" font-family="sans-serif" font-size="14" lengthAdjust="spacing" textLength="142.2764" x="277.68" y="694.4252">Data &amp; License index</text></g><!--entity ai--><g id="elem_ai"><rect fill="#F1F1F1" height="36.4883" rx="2.5" ry="2.5" style="stroke:#181818;stroke-width:0.5;" width="127.8779" x="464.88" y="670.89"/><text fill="#000000" font-family="sans-serif" font-size="14" lengthAdjust="spacing" textLength="107.8779" x="474.88" y="694.4252">Discovery Index</text></g><!--entity repo--><g id="elem_repo"><path d="M6,577.46 C6,567.46 112.814,567.46 112.814,567.46 C112.814,567.46 219.6279,567.46 219.6279,577.46 L219.6279,800.8077 C219.6279,810.8077 112.814,810.8077 112.814,810.8077 C112.814,810.8077 6,810.8077 6,800.8077 L6,577.46 " fill="#F1F1F1" style="stroke:#181818;stroke-width:0.5;"/><path d="M6,577.46 C6,587.46 112.814,587.46 112.814,587.46 C112.814,587.46 219.6279,587.46 219.6279,577.46 " fill="#FFFFFF" fill-opacity="0.00000" style="stroke:#181818;stroke-width:0.5;"/><text fill="#000000" font-family="sans-serif" font-size="14" lengthAdjust="spacing" textLength="189.1982" x="16" y="604.9952">.......... OCFL Repo ..............</text><text fill="#000000" font-family="sans-serif" font-size="14" lengthAdjust="spacing" textLength="4.4297" x="16" y="621.4834">&#160;</text><text fill="#000000" font-family="sans-serif" font-size="14" lengthAdjust="spacing" textLength="4.4297" x="16" y="637.9717">&#160;</text><text fill="#000000" font-family="sans-serif" font-size="14" lengthAdjust="spacing" textLength="4.4297" x="16" y="654.46">&#160;</text><text fill="#000000" font-family="sans-serif" font-size="14" lengthAdjust="spacing" textLength="4.4297" x="16" y="670.9483">&#160;</text><text fill="#000000" font-family="sans-serif" font-size="14" lengthAdjust="spacing" textLength="4.4297" x="16" y="687.4366">&#160;</text><text fill="#000000" font-family="sans-serif" font-size="14" lengthAdjust="spacing" textLength="4.4297" x="16" y="703.9248">&#160;</text><text fill="#000000" font-family="sans-serif" font-size="14" lengthAdjust="spacing" textLength="4.4297" x="16" y="720.4131">&#160;</text><text fill="#000000" font-family="sans-serif" font-size="14" lengthAdjust="spacing" textLength="4.4297" x="16" y="736.9014">&#160;</text><text fill="#000000" font-family="sans-serif" font-size="14" lengthAdjust="spacing" textLength="4.4297" x="16" y="753.3897">&#160;</text><text fill="#000000" font-family="sans-serif" font-size="14" lengthAdjust="spacing" textLength="4.4297" x="16" y="769.878">&#160;</text><text fill="#000000" font-family="sans-serif" font-size="14" lengthAdjust="spacing" textLength="4.4297" x="16" y="786.3663">&#160;</text><text fill="#000000" font-family="sans-serif" font-size="14" lengthAdjust="spacing" textLength="4.4297" x="16" y="802.8545">&#160;</text></g><!--entity Indexer--><g id="elem_Indexer"><rect fill="#F1F1F1" height="36.4883" rx="2.5" ry="2.5" style="stroke:#181818;stroke-width:0.5;" width="71.4473" x="334.09" y="887.81"/><text fill="#000000" font-family="sans-serif" font-size="14" lengthAdjust="spacing" textLength="51.4473" x="344.09" y="911.3452">Indexer</text></g><!--entity conf--><g id="elem_conf"><rect fill="#F1F1F1" height="36.4883" rx="2.5" ry="2.5" style="stroke:#181818;stroke-width:0.5;" width="64.8984" x="501.36" y="887.81"/><text fill="#000000" font-family="sans-serif" font-size="14" lengthAdjust="spacing" textLength="44.8984" x="511.36" y="911.3452">Config</text></g><!--entity iapi--><g id="elem_iapi"><rect fill="#F1F1F1" height="46.4883" rx="2.5" ry="2.5" style="stroke:#181818;stroke-width:0.5;" width="77.4951" x="373.07" y="316.49"/><rect fill="#F1F1F1" height="10" style="stroke:#181818;stroke-width:0.5;" width="15" x="430.5651" y="321.49"/><rect fill="#F1F1F1" height="2" style="stroke:#181818;stroke-width:0.5;" width="4" x="428.5651" y="323.49"/><rect fill="#F1F1F1" height="2" style="stroke:#181818;stroke-width:0.5;" width="4" x="428.5651" y="327.49"/><text fill="#000000" font-family="sans-serif" font-size="14" lengthAdjust="spacing" textLength="37.4951" x="388.07" y="350.0252">item/</text></g><!--entity qapi--><g id="elem_qapi"><rect fill="#F1F1F1" height="46.4883" rx="2.5" ry="2.5" style="stroke:#181818;stroke-width:0.5;" width="85.6846" x="485.97" y="316.49"/><rect fill="#F1F1F1" height="10" style="stroke:#181818;stroke-width:0.5;" width="15" x="551.6546" y="321.49"/><rect fill="#F1F1F1" height="2" style="stroke:#181818;stroke-width:0.5;" width="4" x="549.6546" y="323.49"/><rect fill="#F1F1F1" height="2" style="stroke:#181818;stroke-width:0.5;" width="4" x="549.6546" y="327.49"/><text fill="#000000" font-family="sans-serif" font-size="14" lengthAdjust="spacing" textLength="45.6846" x="500.97" y="350.0252">query/</text></g><!--entity lic--><g id="elem_lic"><rect fill="#F1F1F1" height="46.4883" rx="2.5" ry="2.5" style="stroke:#181818;stroke-width:0.5;" width="123.125" x="215.25" y="316.49"/><rect fill="#F1F1F1" height="10" style="stroke:#181818;stroke-width:0.5;" width="15" x="318.375" y="321.49"/><rect fill="#F1F1F1" height="2" style="stroke:#181818;stroke-width:0.5;" width="4" x="316.375" y="323.49"/><rect fill="#F1F1F1" height="2" style="stroke:#181818;stroke-width:0.5;" width="4" x="316.375" y="327.49"/><text fill="#000000" font-family="sans-serif" font-size="14" lengthAdjust="spacing" textLength="83.125" x="230.25" y="350.0252">license filter</text></g><!--entity CILogon--><g id="elem_CILogon"><rect fill="#F1F1F1" height="46.4883" rx="2.5" ry="2.5" style="stroke:#181818;stroke-width:0.5;" width="95.8018" x="748.91" y="316.49"/><rect fill="#F1F1F1" height="10" style="stroke:#181818;stroke-width:0.5;" width="15" x="824.7118" y="321.49"/><rect fill="#F1F1F1" height="2" style="stroke:#181818;stroke-width:0.5;" width="4" x="822.7118" y="323.49"/><rect fill="#F1F1F1" height="2" style="stroke:#181818;stroke-width:0.5;" width="4" x="822.7118" y="327.49"/><text fill="#000000" font-family="sans-serif" font-size="14" lengthAdjust="spacing" textLength="55.8018" x="763.91" y="350.0252">CILogon</text></g><!--entity Mukurtu--><g id="elem_Mukurtu"><rect fill="#F1F1F1" height="46.4883" rx="2.5" ry="2.5" style="stroke:#181818;stroke-width:0.5;" width="97.2715" x="880.18" y="316.49"/><rect fill="#F1F1F1" height="10" style="stroke:#181818;stroke-width:0.5;" width="15" x="957.4515" y="321.49"/><rect fill="#F1F1F1" height="2" style="stroke:#181818;stroke-width:0.5;" width="4" x="955.4515" y="323.49"/><rect fill="#F1F1F1" height="2" style="stroke:#181818;stroke-width:0.5;" width="4" x="955.4515" y="327.49"/><text fill="#000000" font-family="sans-serif" font-size="14" lengthAdjust="spacing" textLength="57.2715" x="895.18" y="350.0252">Mukurtu</text></g><!--entity ...--><g id="elem_..."><rect fill="#F1F1F1" height="46.4883" rx="2.5" ry="2.5" style="stroke:#181818;stroke-width:0.5;" width="53.2891" x="770.17" y="441.98"/><rect fill="#F1F1F1" height="10" style="stroke:#181818;stroke-width:0.5;" width="15" x="803.4591" y="446.98"/><rect fill="#F1F1F1" height="2" style="stroke:#181818;stroke-width:0.5;" width="4" x="801.4591" y="448.98"/><rect fill="#F1F1F1" height="2" style="stroke:#181818;stroke-width:0.5;" width="4" x="801.4591" y="452.98"/><text fill="#000000" font-family="sans-serif" font-size="14" lengthAdjust="spacing" textLength="13.2891" x="785.17" y="475.5152">...</text></g><!--entity UI--><g id="elem_UI"><rect fill="#F1F1F1" height="36.4883" rx="2.5" ry="2.5" style="stroke:#181818;stroke-width:0.5;" width="33.7334" x="476.95" y="7"/><text fill="#000000" font-family="sans-serif" font-size="14" lengthAdjust="spacing" textLength="13.7334" x="486.95" y="30.5352">UI</text></g><!--reverse link repo to Indexer--><g id="link_repo_Indexer"><path d="M224.3824,787.6967 C235.1424,796.8867 241.38,802.12 251.81,810.81 C284.65,838.16 323.51,868.89 347.41,887.61 " fill="#FFFFFF" fill-opacity="0.00000" id="repo-backto-Indexer" style="stroke:#181818;stroke-width:1;"/><polygon fill="#181818" points="219.82,783.8,224.0658,792.6867,223.622,787.0473,229.2614,786.6035,219.82,783.8" style="stroke:#181818;stroke-width:1;"/><text fill="#000000" font-family="sans-serif" font-size="13" lengthAdjust="spacing" textLength="78.5332" x="310.5" y="854.3784">Scan objects</text></g><!--link Indexer to conf--><g id="link_Indexer_conf"><path d="M405.8,906.06 C434.19,906.06 467.44,906.06 494.97,906.06 " fill="#FFFFFF" fill-opacity="0.00000" id="Indexer-to-conf" style="stroke:#181818;stroke-width:1;"/><polygon fill="#181818" points="500.97,906.06,491.97,902.06,495.97,906.06,491.97,910.06,500.97,906.06" style="stroke:#181818;stroke-width:1;"/><text fill="#000000" font-family="sans-serif" font-size="13" lengthAdjust="spacing" textLength="59.1221" x="423.95" y="899.6284">Consume</text></g><!--reverse link Index to Indexer--><g id="link_Index_Indexer"><path d="M631.0393,737.7618 C631.0354,738.1392 631.0727,733.0832 631.0669,733.4632 C631.0552,734.2233 631.0397,734.9886 631.02,735.7588 C630.39,760.4025 625.525,789.96 608.81,810.81 C558.18,873.98 459.21,894.95 405.89,901.81 " fill="#FFFFFF" fill-opacity="0.00000" id="Index-backto-Indexer" style="stroke:#181818;stroke-width:1;"/><polygon fill="#181818" points="631.0866,731.7619,627.0158,740.7302,631.0472,736.7618,635.0156,740.7932,631.0866,731.7619" style="stroke:#181818;stroke-width:1;"/><text fill="#000000" font-family="sans-serif" font-size="13" lengthAdjust="spacing" textLength="32.3032" x="574.89" y="854.3784">Write</text></g><!--link lic to auth--><g id="link_lic_auth"><path d="M287.42,316.33 C299.89,292.01 323.11,255.31 355.81,239.44 C387.7,223.97 966.52,216.83 993.81,239.44 C997.905,242.8312 1001.3013,246.805 1004.1063,251.1781 C1004.4569,251.7248 1004.7983,252.2777 1005.1306,252.8364 C1005.2968,253.1158 1005.4608,253.3967 1005.6224,253.679 C1005.7033,253.8201 1002.8435,248.7313 1002.9233,248.8731 " fill="#FFFFFF" fill-opacity="0.00000" id="lic-to-auth" style="stroke:#181818;stroke-width:1;"/><polygon fill="#181818" points="1005.8633,254.1034,1004.9401,244.2979,1003.4133,249.7448,997.9664,248.218,1005.8633,254.1034" style="stroke:#181818;stroke-width:1;"/><text fill="#000000" font-family="sans-serif" font-size="13" lengthAdjust="spacing" textLength="213.0845" x="387.31" y="227.0584">Get user's group/license holdings</text></g><!--link UI to qapi--><g id="link_UI_qapi"><path d="M508.5,43.9 C533.71,75.5 584.29,144.85 602.81,213.49 C613.41,252.74 585.7686,288.0366 560.5586,311.8866 " fill="#FFFFFF" fill-opacity="0.00000" id="UI-to-qapi" style="stroke:#181818;stroke-width:1;"/><polygon fill="#181818" points="556.2,316.01,565.4868,312.7305,559.8321,312.5738,559.9889,306.9191,556.2,316.01" style="stroke:#181818;stroke-width:1;"/><text fill="#000000" font-family="sans-serif" font-size="13" lengthAdjust="spacing" textLength="99.9312" x="579.83" y="149.0584">Construct views</text></g><!--link UI to iapi--><g id="link_UI_iapi"><path d="M479.13,43.9 C453.92,75.5 403.34,144.85 384.81,213.49 C375.19,249.14 386.9652,285.7262 398.1452,310.9062 " fill="#FFFFFF" fill-opacity="0.00000" id="UI-to-iapi" style="stroke:#181818;stroke-width:1;"/><polygon fill="#181818" points="400.58,316.39,400.5836,306.5411,398.551,311.8202,393.2719,309.7876,400.58,316.39" style="stroke:#181818;stroke-width:1;"/><text fill="#000000" font-family="sans-serif" font-size="13" lengthAdjust="spacing" textLength="127.0039" x="418.51" y="149.0584">Get data for viewing</text></g><!--link iapi to ii--><g id="link_iapi_ii"><path d="M398.77,363.2 C387.88,383.17 373.01,413.53 365.81,441.98 C344.7,525.45 346.0181,623.6049 347.6681,664.4949 " fill="#FFFFFF" fill-opacity="0.00000" id="iapi-to-ii" style="stroke:#181818;stroke-width:1;"/><polygon fill="#181818" points="347.91,670.49,351.5439,661.336,347.7084,665.4941,343.5504,661.6586,347.91,670.49" style="stroke:#181818;stroke-width:1;"/><text fill="#000000" font-family="sans-serif" font-size="13" lengthAdjust="spacing" textLength="153.1689" x="366.81" y="462.7884">Consult for get requests</text><text fill="#000000" font-family="sans-serif" font-size="13" lengthAdjust="spacing" textLength="127.645" x="379.572" y="478.0989">for Objects and files</text></g><!--link qapi to ai--><g id="link_qapi_ai"><path d="M528.81,363.26 C528.81,427.91 528.81,607.12 528.81,664.78 " fill="#FFFFFF" fill-opacity="0.00000" id="qapi-to-ai" style="stroke:#181818;stroke-width:1;"/><polygon fill="#181818" points="528.81,670.78,532.81,661.78,528.81,665.78,524.81,661.78,528.81,670.78" style="stroke:#181818;stroke-width:1;"/><text fill="#000000" font-family="sans-serif" font-size="13" lengthAdjust="spacing" textLength="170.5298" x="529.81" y="462.7884">Consult for queries / views</text><text fill="#000000" font-family="sans-serif" font-size="13" lengthAdjust="spacing" textLength="114.2705" x="557.9396" y="478.0989">*with license filter</text></g><!--link API to repo--><g id="link_API_repo"><path d="M171.7177,382.6955 C171.6118,383.2442 171.5052,383.7971 171.3978,384.3542 C171.1829,385.4683 170.9648,386.5992 170.7436,387.7463 C168.9738,396.9226 167.0047,407.1328 164.8913,418.0913 C156.4375,461.925 146.8113,511.8386 137.2663,561.3286 " fill="#FFFFFF" fill-opacity="0.00000" id="API-to-repo" style="stroke:#181818;stroke-width:1;"/><polygon fill="#181818" points="136.13,567.22,141.762,559.1404,137.0769,562.3105,133.9068,557.6254,136.13,567.22" style="stroke:#181818;stroke-width:1;"/><text fill="#000000" font-family="sans-serif" font-size="13" lengthAdjust="spacing" textLength="30.8242" x="161.17" y="470.2884">Read</text></g><!--SRC=[RL9DJm8n4BttLqmuQ6AoSkT0OZ2QJJ0O2F4W7Ehki8ukBVG3LE9_T_e1kiJkPVlcpUlhczRIoHTf4Ngbgl6Z1mTXi79IDIrZjro52nXJXOevb2ZI0X4JnNU7IxRIEpIVK9veCjE-XQXF1rsV5an6TsEOuaR3TMV1Glt_HLKJ6Wu2U0NbFnxYoMXwwTI_bP5MAsfYUyM_cP3vKFXDCKow0vXLKe5-UUDc-yiOfhu1i9BrQpphZJkkFXbos3dvvh7iPRVFN5ltbp50kQ64RJrdbi3j2MnpuYjg7PfOP2XwhbhjQvRrxXMLeqewqWgagY50sj1NG626PiSYDis1AqSFetAi6wsMQVVWtxrnFkyu-kLvSlDids6s48A8QWEuHmVUehcqq1ZjD_sZwLVTrgGQA-Ob54MjzwhWhd2v79ypldAm8zoVSIXnWd9uBx3I9j9OJSHQfWx30yoZQ5saDTnZaCEqpYvKG2PfX34QpX6js7OavBb4c0IXXNwojb1NU-ARTcSX10_qL-JuQAOeQ_43]--></g></svg>