<?xml version="1.0" encoding="UTF-8" standalone="no"?><svg xmlns="http://www.w3.org/2000/svg" xmlns:xlink="http://www.w3.org/1999/xlink" contentStyleType="text/css" height="641px" preserveAspectRatio="none" style="width:555px;height:641px;background:#FFFFFF;" version="1.1" viewBox="0 0 555 641" width="555px" zoomAndPan="magnify"><defs/><g><!--entity nv--><g id="elem_nv"><rect fill="#F1F1F1" height="36.4883" rx="2.5" ry="2.5" style="stroke:#181818;stroke-width:0.5;" width="137" x="279" y="7"/><text fill="#000000" font-family="sans-serif" font-size="14" lengthAdjust="spacing" textLength="117" x="289" y="30.5352">Need versioning?</text></g><!--entity atomic--><g id="elem_atomic"><rect fill="#F1F1F1" height="36.4883" rx="2.5" ry="2.5" style="stroke:#181818;stroke-width:0.5;" width="203" x="169" y="120"/><text fill="#000000" font-family="sans-serif" font-size="14" lengthAdjust="spacing" textLength="183" x="179" y="143.5352">Directories must be atomic</text></g><!--entity atomic2--><g id="elem_atomic2"><rect fill="#F1F1F1" height="36.4883" rx="2.5" ry="2.5" style="stroke:#181818;stroke-width:0.5;" width="203" x="324" y="486"/><text fill="#000000" font-family="sans-serif" font-size="14" lengthAdjust="spacing" textLength="183" x="334" y="509.5352">Directories must be atomic</text></g><!--entity cr--><g id="elem_cr"><rect fill="#F1F1F1" height="36.4883" rx="2.5" ry="2.5" style="stroke:#181818;stroke-width:0.5;" width="167" x="187" y="264"/><text fill="#000000" font-family="sans-serif" font-size="14" lengthAdjust="spacing" textLength="147" x="197" y="287.5352">Checksums required?</text></g><!--entity ocfl--><g id="elem_ocfl"><rect fill="#F1F1F1" height="36.4883" rx="2.5" ry="2.5" style="stroke:#181818;stroke-width:0.5;" width="85" x="267" y="599"/><text fill="#000000" font-family="sans-serif" font-size="14" lengthAdjust="spacing" textLength="65" x="277" y="622.5352">Use OCFL</text></g><!--entity bagit--><g id="elem_bagit"><rect fill="#F1F1F1" height="36.4883" rx="2.5" ry="2.5" style="stroke:#181818;stroke-width:0.5;" width="225" x="7" y="599"/><text fill="#000000" font-family="sans-serif" font-size="14" lengthAdjust="spacing" textLength="205" x="17" y="622.5352">Consider BagIt based solution</text></g><!--entity ns--><g id="elem_ns"><rect fill="#F1F1F1" height="36.4883" rx="2.5" ry="2.5" style="stroke:#181818;stroke-width:0.5;" width="162" x="387.5" y="599"/><text fill="#000000" font-family="sans-serif" font-size="14" lengthAdjust="spacing" textLength="142" x="397.5" y="622.5352">Create new standard</text></g><!--link nv to atomic--><g id="link_nv_atomic"><path d="M335.47,43.34 C322.13,62.57 300.59,93.63 286,114.66 " fill="none" id="nv-to-atomic" style="stroke:#181818;stroke-width:1.0;"/><polygon fill="#181818" points="283.31,118.53,291.717,113.3995,286.1523,114.4165,285.1354,108.8518,283.31,118.53" style="stroke:#181818;stroke-width:1.0;"/><text fill="#000000" font-family="sans-serif" font-size="13" lengthAdjust="spacing" textLength="18" x="314.5" y="86.5684">No</text></g><!--link atomic to bagit--><g id="link_atomic_bagit"><path d="M195,156.36 C157.25,169.97 119.5,193.47 119.5,233 C119.5,233 119.5,233 119.5,505 C119.5,535.17 119.5,569.95 119.5,592.42 " fill="none" id="atomic-to-bagit" style="stroke:#181818;stroke-width:1.0;"/><polygon fill="#181818" points="119.5,597.18,123.5,588.18,119.5,592.18,115.5,588.18,119.5,597.18" style="stroke:#181818;stroke-width:1.0;"/><text fill="#000000" font-family="sans-serif" font-size="13" lengthAdjust="spacing" textLength="22" x="120.5" y="374.5684">Yes</text></g><!--link atomic to cr--><g id="link_atomic_cr"><path d="M270.5,156.41 C270.5,181.78 270.5,228.97 270.5,257.43 " fill="none" id="atomic-to-cr" style="stroke:#181818;stroke-width:1.0;"/><polygon fill="#181818" points="270.5,262.38,274.5,253.38,270.5,257.38,266.5,253.38,270.5,262.38" style="stroke:#181818;stroke-width:1.0;"/><text fill="#000000" font-family="sans-serif" font-size="13" lengthAdjust="spacing" textLength="18" x="271.5" y="199.5684">No</text></g><!--link cr to ocfl--><g id="link_cr_ocfl"><path d="M270.5,300.36 C270.5,317.63 270.5,344.9 270.5,368.5 C270.5,368.5 270.5,368.5 270.5,505 C270.5,536.88 284.99,571.14 296.31,593.03 " fill="none" id="cr-to-ocfl" style="stroke:#181818;stroke-width:1.0;"/><polygon fill="#181818" points="298.55,597.25,297.8888,587.4234,296.2171,592.8276,290.8129,591.1559,298.55,597.25" style="stroke:#181818;stroke-width:1.0;"/><text fill="#000000" font-family="sans-serif" font-size="13" lengthAdjust="spacing" textLength="22" x="271.5" y="421.5684">Yes</text></g><!--link nv to atomic2--><g id="link_nv_atomic2"><path d="M370.06,43.37 C393.1,63.26 425.5,98.14 425.5,137 C425.5,137 425.5,137 425.5,417.5 C425.5,438.34 425.5,462.03 425.5,479.18 " fill="none" id="nv-to-atomic2" style="stroke:#181818;stroke-width:1.0;"/><polygon fill="#181818" points="425.5,484.13,429.5,475.13,425.5,479.13,421.5,475.13,425.5,484.13" style="stroke:#181818;stroke-width:1.0;"/><text fill="#000000" font-family="sans-serif" font-size="13" lengthAdjust="spacing" textLength="22" x="426.5" y="287.0684">Yes</text></g><!--link atomic2 to ocfl--><g id="link_atomic2_ocfl"><path d="M407.38,522.34 C387.03,541.81 354,573.42 332.01,594.46 " fill="none" id="atomic2-to-ocfl" style="stroke:#181818;stroke-width:1.0;"/><polygon fill="#181818" points="328.59,597.73,337.8587,594.3996,332.2032,594.2739,332.3289,588.6184,328.59,597.73" style="stroke:#181818;stroke-width:1.0;"/><text fill="#000000" font-family="sans-serif" font-size="13" lengthAdjust="spacing" textLength="18" x="374.5" y="565.5684">No</text></g><!--link atomic2 to ns--><g id="link_atomic2_ns"><path d="M432.22,522.34 C439.57,541.32 451.39,571.84 459.53,592.85 " fill="none" id="atomic2-to-ns" style="stroke:#181818;stroke-width:1.0;"/><polygon fill="#181818" points="461.28,597.37,461.7504,587.5324,459.4698,592.7092,454.293,590.4286,461.28,597.37" style="stroke:#181818;stroke-width:1.0;"/><text fill="#000000" font-family="sans-serif" font-size="13" lengthAdjust="spacing" textLength="22" x="450.5" y="565.5684">Yes</text></g><!--SRC=[bP2n3W8X38RtUuh6dSNHGHCr9YP69mT7X7eIxo2sd0x6TxV2dLxKHHQW_R_sRmbDrBwi40PhH0iN97R1ErzE1g0P_0LkHN4lvD1REdVFJo2737N34VO8EeRQcGJb9xJalzpm1pWxeZbnKpCGdXkfOhCzGz_QBIDiPejL4WHpgBAaNoruTXO9fhfSYWdDCZc7geaoUiBskdJnXmr27H4yNe4bPZNPl2LkjR8kPSFLgt6tX16iGz6-bSf99UdSOGGxv5Uw9MMeHCdTXT8OMVniqQlJxQnVQVZ9lIoyCs8v8Gy0]--></g></svg>