<svg xmlns="http://www.w3.org/2000/svg" xmlns:xlink="http://www.w3.org/1999/xlink" contentStyleType="text/css" data-diagram-type="DESCRIPTION" height="671px" preserveAspectRatio="none" style="width:1617px;height:671px;background:#FFFFFF;" version="1.1" viewBox="0 0 1617 671" width="1617px" zoomAndPan="magnify"><title>Oni Architecture (Deposit)</title><defs/><g><text fill="#000000" font-family="sans-serif" font-size="14" font-weight="bold" lengthAdjust="spacing" textLength="189.1777" x="706.9111" y="23.5352">Oni Architecture (Deposit)</text><!--cluster other--><g id="cluster_other"><rect fill="#FFFFFF" fill-opacity="0.00000" height="113.2" rx="2.5" ry="2.5" style="stroke:#181818;stroke-width:1;" width="312" x="7" y="385.3883"/><rect fill="#FFFFFF" fill-opacity="0.00000" height="10" style="stroke:#181818;stroke-width:1;" width="15" x="299" y="390.3883"/><rect fill="#FFFFFF" fill-opacity="0.00000" height="2" style="stroke:#181818;stroke-width:1;" width="4" x="297" y="392.3883"/><rect fill="#FFFFFF" fill-opacity="0.00000" height="2" style="stroke:#181818;stroke-width:1;" width="4" x="297" y="396.3883"/><text fill="#000000" font-family="sans-serif" font-size="18" font-weight="bold" lengthAdjust="spacing" textLength="123.8027" x="101.0986" y="415.7906">Corpus Tools</text></g><!--cluster ui--><g id="cluster_ui"><rect fill="#FFFFFF" fill-opacity="0.00000" height="113.2" rx="2.5" ry="2.5" style="stroke:#181818;stroke-width:1;" width="270" x="588" y="44.4883"/><rect fill="#FFFFFF" fill-opacity="0.00000" height="10" style="stroke:#181818;stroke-width:1;" width="15" x="838" y="49.4883"/><rect fill="#FFFFFF" fill-opacity="0.00000" height="2" style="stroke:#181818;stroke-width:1;" width="4" x="836" y="51.4883"/><rect fill="#FFFFFF" fill-opacity="0.00000" height="2" style="stroke:#181818;stroke-width:1;" width="4" x="836" y="55.4883"/><text fill="#000000" font-family="sans-serif" font-size="18" font-weight="bold" lengthAdjust="spacing" textLength="146.1445" x="649.9277" y="74.8906">Oni UI (deposit)</text></g><!--cluster api--><g id="cluster_api"><rect fill="#FFFFFF" fill-opacity="0.00000" height="113.2" rx="2.5" ry="2.5" style="stroke:#181818;stroke-width:1;" width="491" x="367" y="202.1883"/><rect fill="#FFFFFF" fill-opacity="0.00000" height="10" style="stroke:#181818;stroke-width:1;" width="15" x="838" y="207.1883"/><rect fill="#FFFFFF" fill-opacity="0.00000" height="2" style="stroke:#181818;stroke-width:1;" width="4" x="836" y="209.1883"/><rect fill="#FFFFFF" fill-opacity="0.00000" height="2" style="stroke:#181818;stroke-width:1;" width="4" x="836" y="213.1883"/><text fill="#000000" font-family="sans-serif" font-size="18" font-weight="bold" lengthAdjust="spacing" textLength="68.6865" x="578.1567" y="232.5906">Oni API</text></g><!--cluster autho--><g id="cluster_autho"><rect fill="#FFFFFF" fill-opacity="0.00000" height="122.2" rx="2.5" ry="2.5" style="stroke:#181818;stroke-width:1;" width="143" x="898" y="197.6883"/><rect fill="#FFFFFF" fill-opacity="0.00000" height="10" style="stroke:#181818;stroke-width:1;" width="15" x="1021" y="202.6883"/><rect fill="#FFFFFF" fill-opacity="0.00000" height="2" style="stroke:#181818;stroke-width:1;" width="4" x="1019" y="204.6883"/><rect fill="#FFFFFF" fill-opacity="0.00000" height="2" style="stroke:#181818;stroke-width:1;" width="4" x="1019" y="208.6883"/><text fill="#000000" font-family="sans-serif" font-size="18" font-weight="bold" lengthAdjust="spacing" textLength="127.4063" x="905.7969" y="228.0906">Authorization</text></g><!--cluster authe--><g id="cluster_authe"><rect fill="#FFFFFF" fill-opacity="0.00000" height="122.2" rx="2.5" ry="2.5" style="stroke:#181818;stroke-width:1;" width="159" x="1081" y="197.6883"/><rect fill="#FFFFFF" fill-opacity="0.00000" height="10" style="stroke:#181818;stroke-width:1;" width="15" x="1220" y="202.6883"/><rect fill="#FFFFFF" fill-opacity="0.00000" height="2" style="stroke:#181818;stroke-width:1;" width="4" x="1218" y="204.6883"/><rect fill="#FFFFFF" fill-opacity="0.00000" height="2" style="stroke:#181818;stroke-width:1;" width="4" x="1218" y="208.6883"/><text fill="#000000" font-family="sans-serif" font-size="18" font-weight="bold" lengthAdjust="spacing" textLength="136.3359" x="1092.332" y="228.0906">Authentication</text></g><!--cluster identity--><g id="cluster_identity"><rect fill="#FFFFFF" fill-opacity="0.00000" height="113.2" rx="2.5" ry="2.5" style="stroke:#181818;stroke-width:1;" width="331" x="1280" y="202.1883"/><rect fill="#FFFFFF" fill-opacity="0.00000" height="10" style="stroke:#181818;stroke-width:1;" width="15" x="1591" y="207.1883"/><rect fill="#FFFFFF" fill-opacity="0.00000" height="2" style="stroke:#181818;stroke-width:1;" width="4" x="1589" y="209.1883"/><rect fill="#FFFFFF" fill-opacity="0.00000" height="2" style="stroke:#181818;stroke-width:1;" width="4" x="1589" y="213.1883"/><text fill="#000000" font-family="sans-serif" font-size="18" font-weight="bold" lengthAdjust="spacing" textLength="155.0391" x="1367.9805" y="232.5906">Identity Provider</text></g><!--cluster search--><g id="cluster_search"><rect fill="#FFFFFF" fill-opacity="0.00000" height="122.2" rx="2.5" ry="2.5" style="stroke:#181818;stroke-width:1;" width="268" x="359" y="380.8883"/><rect fill="#FFFFFF" fill-opacity="0.00000" height="10" style="stroke:#181818;stroke-width:1;" width="15" x="607" y="385.8883"/><rect fill="#FFFFFF" fill-opacity="0.00000" height="2" style="stroke:#181818;stroke-width:1;" width="4" x="605" y="387.8883"/><rect fill="#FFFFFF" fill-opacity="0.00000" height="2" style="stroke:#181818;stroke-width:1;" width="4" x="605" y="391.8883"/><text fill="#000000" font-family="sans-serif" font-size="18" font-weight="bold" lengthAdjust="spacing" textLength="252.958" x="366.521" y="411.2906">Search and discovery Index</text></g><!--cluster structure--><g id="cluster_structure"><rect fill="#FFFFFF" fill-opacity="0.00000" height="122.2" rx="2.5" ry="2.5" style="stroke:#181818;stroke-width:1;" width="310" x="667" y="380.8883"/><rect fill="#FFFFFF" fill-opacity="0.00000" height="10" style="stroke:#181818;stroke-width:1;" width="15" x="957" y="385.8883"/><rect fill="#FFFFFF" fill-opacity="0.00000" height="2" style="stroke:#181818;stroke-width:1;" width="4" x="955" y="387.8883"/><rect fill="#FFFFFF" fill-opacity="0.00000" height="2" style="stroke:#181818;stroke-width:1;" width="4" x="955" y="391.8883"/><text fill="#000000" font-family="sans-serif" font-size="18" font-weight="bold" lengthAdjust="spacing" textLength="294.5479" x="674.7261" y="411.2906">Data Location and license index</text></g><!--cluster repo--><g id="cluster_repo"><rect fill="#FFFFFF" fill-opacity="0.00000" height="122.2" rx="2.5" ry="2.5" style="stroke:#181818;stroke-width:1;" width="154" x="594" y="543.0883"/><rect fill="#FFFFFF" fill-opacity="0.00000" height="10" style="stroke:#181818;stroke-width:1;" width="15" x="728" y="548.0883"/><rect fill="#FFFFFF" fill-opacity="0.00000" height="2" style="stroke:#181818;stroke-width:1;" width="4" x="726" y="550.0883"/><rect fill="#FFFFFF" fill-opacity="0.00000" height="2" style="stroke:#181818;stroke-width:1;" width="4" x="726" y="554.0883"/><text fill="#000000" font-family="sans-serif" font-size="18" font-weight="bold" lengthAdjust="spacing" textLength="138.4102" x="601.7949" y="573.4906">File Repository</text></g><!--entity corpus tool--><g id="elem_corpus tool"><rect fill="#F1F1F1" height="41.1992" rx="2.5" ry="2.5" style="stroke:#181818;stroke-width:0.5;" width="119.0615" x="31.47" y="433.3883"/><text fill="#000000" font-family="sans-serif" font-size="18" lengthAdjust="spacing" textLength="99.0615" x="41.47" y="460.7906">corpus tool</text></g><!--entity oni-ocfl--><g id="elem_oni-ocfl"><rect fill="#F1F1F1" height="41.1992" rx="2.5" ry="2.5" style="stroke:#181818;stroke-width:0.5;" width="89.9434" x="186.03" y="433.3883"/><text fill="#000000" font-family="sans-serif" font-size="18" lengthAdjust="spacing" textLength="69.9434" x="196.03" y="460.7906">oni-ocfl</text></g><!--entity Crate-O--><g id="elem_Crate-O"><rect fill="#F1F1F1" height="41.1992" rx="2.5" ry="2.5" style="stroke:#181818;stroke-width:0.5;" width="90.9189" x="611.54" y="92.4883"/><text fill="#000000" font-family="sans-serif" font-size="18" lengthAdjust="spacing" textLength="70.9189" x="621.54" y="119.8906">Crate-O</text></g><!--entity Admin--><g id="elem_Admin"><rect fill="#F1F1F1" height="41.1992" rx="2.5" ry="2.5" style="stroke:#181818;stroke-width:0.5;" width="76.9268" x="737.54" y="92.4883"/><text fill="#000000" font-family="sans-serif" font-size="18" lengthAdjust="spacing" textLength="56.9268" x="747.54" y="119.8906">Admin</text></g><!--entity File Uploads--><g id="elem_File Uploads"><rect fill="#F1F1F1" height="41.1992" rx="2.5" ry="2.5" style="stroke:#181818;stroke-width:0.5;" width="126.2861" x="390.86" y="250.1883"/><text fill="#000000" font-family="sans-serif" font-size="18" lengthAdjust="spacing" textLength="106.2861" x="400.86" y="277.5906">File Uploads</text></g><!--entity Admin API--><g id="elem_Admin API"><rect fill="#F1F1F1" height="41.1992" rx="2.5" ry="2.5" style="stroke:#181818;stroke-width:0.5;" width="110.1758" x="551.91" y="250.1883"/><text fill="#000000" font-family="sans-serif" font-size="18" lengthAdjust="spacing" textLength="90.1758" x="561.91" y="277.5906">Admin API</text></g><!--entity Licence API--><g id="elem_Licence API"><rect fill="#F1F1F1" height="41.1992" rx="2.5" ry="2.5" style="stroke:#181818;stroke-width:0.5;" width="117.7168" x="697.14" y="250.1883"/><text fill="#000000" font-family="sans-serif" font-size="18" lengthAdjust="spacing" textLength="97.7168" x="707.14" y="277.5906">Licence API</text></g><!--entity REMS--><g id="elem_REMS"><path d="M925.83,255.6883 C925.83,245.6883 958.998,245.6883 958.998,245.6883 C958.998,245.6883 992.1659,245.6883 992.1659,255.6883 L992.1659,285.8875 C992.1659,295.8875 958.998,295.8875 958.998,295.8875 C958.998,295.8875 925.83,295.8875 925.83,285.8875 L925.83,255.6883 " fill="#F1F1F1" style="stroke:#181818;stroke-width:0.5;"/><path d="M925.83,255.6883 C925.83,265.6883 958.998,265.6883 958.998,265.6883 C958.998,265.6883 992.1659,265.6883 992.1659,255.6883 " fill="#FFFFFF" fill-opacity="0.00000" style="stroke:#181818;stroke-width:0.5;"/><text fill="#000000" font-family="sans-serif" font-size="18" lengthAdjust="spacing" textLength="46.3359" x="935.83" y="287.0906">REMS</text></g><!--entity CILogon--><g id="elem_CILogon"><path d="M1105.13,255.6883 C1105.13,245.6883 1151.0026,245.6883 1151.0026,245.6883 C1151.0026,245.6883 1196.8751,245.6883 1196.8751,255.6883 L1196.8751,285.8875 C1196.8751,295.8875 1151.0026,295.8875 1151.0026,295.8875 C1151.0026,295.8875 1105.13,295.8875 1105.13,285.8875 L1105.13,255.6883 " fill="#F1F1F1" style="stroke:#181818;stroke-width:0.5;"/><path d="M1105.13,255.6883 C1105.13,265.6883 1151.0026,265.6883 1151.0026,265.6883 C1151.0026,265.6883 1196.8751,265.6883 1196.8751,255.6883 " fill="#FFFFFF" fill-opacity="0.00000" style="stroke:#181818;stroke-width:0.5;"/><text fill="#000000" font-family="sans-serif" font-size="18" lengthAdjust="spacing" textLength="71.7451" x="1115.13" y="287.0906">CILogon</text></g><!--entity Institution--><g id="elem_Institution"><rect fill="#F1F1F1" height="41.1992" rx="2.5" ry="2.5" style="stroke:#181818;stroke-width:0.5;" width="109.5342" x="1304.23" y="250.1883"/><text fill="#000000" font-family="sans-serif" font-size="18" lengthAdjust="spacing" textLength="89.5342" x="1314.23" y="277.5906">Institution</text></g><!--entity social login--><g id="elem_social login"><rect fill="#F1F1F1" height="41.1992" rx="2.5" ry="2.5" style="stroke:#181818;stroke-width:0.5;" width="119.3516" x="1448.32" y="250.1883"/><text fill="#000000" font-family="sans-serif" font-size="18" lengthAdjust="spacing" textLength="99.3516" x="1458.32" y="277.5906">social login</text></g><!--entity Open Search--><g id="elem_Open Search"><path d="M419.19,438.8883 C419.19,428.8883 484.003,428.8883 484.003,428.8883 C484.003,428.8883 548.816,428.8883 548.816,438.8883 L548.816,469.0875 C548.816,479.0875 484.003,479.0875 484.003,479.0875 C484.003,479.0875 419.19,479.0875 419.19,469.0875 L419.19,438.8883 " fill="#F1F1F1" style="stroke:#181818;stroke-width:0.5;"/><path d="M419.19,438.8883 C419.19,448.8883 484.003,448.8883 484.003,448.8883 C484.003,448.8883 548.816,448.8883 548.816,438.8883 " fill="#FFFFFF" fill-opacity="0.00000" style="stroke:#181818;stroke-width:0.5;"/><text fill="#000000" font-family="sans-serif" font-size="18" lengthAdjust="spacing" textLength="109.626" x="429.19" y="470.2906">Open Search</text></g><!--entity Postgres DB--><g id="elem_Postgres DB"><path d="M690.88,438.8883 C690.88,428.8883 752.9991,428.8883 752.9991,428.8883 C752.9991,428.8883 815.1183,428.8883 815.1183,438.8883 L815.1183,469.0875 C815.1183,479.0875 752.9991,479.0875 752.9991,479.0875 C752.9991,479.0875 690.88,479.0875 690.88,469.0875 L690.88,438.8883 " fill="#F1F1F1" style="stroke:#181818;stroke-width:0.5;"/><path d="M690.88,438.8883 C690.88,448.8883 752.9991,448.8883 752.9991,448.8883 C752.9991,448.8883 815.1183,448.8883 815.1183,438.8883 " fill="#FFFFFF" fill-opacity="0.00000" style="stroke:#181818;stroke-width:0.5;"/><text fill="#000000" font-family="sans-serif" font-size="18" lengthAdjust="spacing" textLength="104.2383" x="700.88" y="470.2906">Postgres DB</text></g><!--entity OCFL--><g id="elem_OCFL"><path d="M628.16,601.0883 C628.16,591.0883 661.0028,591.0883 661.0028,591.0883 C661.0028,591.0883 693.8455,591.0883 693.8455,601.0883 L693.8455,631.2875 C693.8455,641.2875 661.0028,641.2875 661.0028,641.2875 C661.0028,641.2875 628.16,641.2875 628.16,631.2875 L628.16,601.0883 " fill="#F1F1F1" style="stroke:#181818;stroke-width:0.5;"/><path d="M628.16,601.0883 C628.16,611.0883 661.0028,611.0883 661.0028,611.0883 C661.0028,611.0883 693.8455,611.0883 693.8455,601.0883 " fill="#FFFFFF" fill-opacity="0.00000" style="stroke:#181818;stroke-width:0.5;"/><text fill="#000000" font-family="sans-serif" font-size="18" lengthAdjust="spacing" textLength="45.6855" x="638.16" y="632.4906">OCFL</text></g><!--link other to repo--><g id="link_other_repo"><path d="M319.213,463.3003 C319.5198,463.5976 319.8343,463.9012 320.1564,464.2108 C325.3103,469.1645 332.4106,475.6583 340.8613,482.5333 C357.7625,496.2833 380.065,511.5583 403,519.0883 C419.21,524.4083 696.58,516.5583 710,527.0883 C713.9275,530.172 717.2519,533.8308 720.0621,537.8763 C720.7646,538.8877 721.4351,539.9233 722.0747,540.9801 C722.3946,541.5085 722.7067,542.0422 723.0114,542.5808 C723.0875,542.7155 720.2472,537.6067 720.3225,537.742 " fill="#FFFFFF" fill-opacity="0.00000" id="other-to-repo" style="stroke:#181818;stroke-width:1;"/><polygon fill="#181818" points="723.2384,542.9857,722.3603,533.1761,720.8085,538.6159,715.3686,537.064,723.2384,542.9857" style="stroke:#181818;stroke-width:1;"/></g><!--link ui to api--><g id="link_ui_api"><path d="M850,157.6887 C850,159.8302 850,162.0148 850,164.234 C850,173.1109 850,182.5405 850,191.9695 C850,194.3268 850,196.684 850,199.0326 C850,199.6197 850,200.2063 850,200.7922 C850,201.0852 850,201.378 850,201.6706 C850,201.8169 850,195.9631 850,196.1093 " fill="#FFFFFF" fill-opacity="0.00000" id="ui-to-api" style="stroke:#181818;stroke-width:1;"/><polygon fill="#181818" points="850,202.1093,854,193.1093,850,197.1093,846,193.1093,850,202.1093" style="stroke:#181818;stroke-width:1;"/></g><!--link api to structure--><g id="link_api_structure"><path d="M850,316.1036 C850,316.4032 850,316.7037 850,317.0051 C850,317.608 850,318.2144 850,318.8243 C850,320.0441 850,321.2777 850,322.5239 C850,325.0163 850,327.5589 850,330.1418 C850,340.4732 850,351.448 850,362.422 C850,367.9091 850,373.3959 850,378.8021 C850,379.4779 850,374.1524 850,374.8255 " fill="#FFFFFF" fill-opacity="0.00000" id="api-to-structure" style="stroke:#181818;stroke-width:1;"/><polygon fill="#181818" points="850,380.8255,854,371.8255,850,375.8255,846,371.8255,850,380.8255" style="stroke:#181818;stroke-width:1;"/></g><!--link api to search--><g id="link_api_search"><path d="M844.0161,315.6043 C843.6993,316.4536 843.3664,317.2977 843.0167,318.1347 C840.2194,324.8308 836.3475,331.0733 831,335.8883 C778.6,383.0883 733.43,325.4083 675,364.8883 C656.08,377.6733 642.2175,399.2158 633.0175,417.7983 C631.8675,420.1211 630.7904,422.3977 629.7853,424.6051 C629.2827,425.7088 628.7982,426.7952 628.3316,427.8615 C628.0983,428.3947 627.8695,428.9228 627.6452,429.4455 C627.533,429.7068 627.422,429.9668 627.312,430.2255 C627.2571,430.3548 629.5403,424.958 629.4859,425.0866 " fill="#FFFFFF" fill-opacity="0.00000" id="api-to-search" style="stroke:#181818;stroke-width:1;"/><polygon fill="#181818" points="627.1479,430.6123,634.3387,423.8823,629.0962,426.0075,626.971,420.7651,627.1479,430.6123" style="stroke:#181818;stroke-width:1;"/></g><!--link api to repo--><g id="link_api_repo"><path d="M858.0404,283.1167 C858.1585,283.2749 858.2778,283.4345 858.3982,283.5952 C859.3617,284.8813 860.3984,286.2455 861.5033,287.6739 C863.7131,290.5309 866.1956,293.6448 868.91,296.9045 C879.7675,309.9433 894.335,325.3133 910,335.8883 C939.62,355.8783 964.79,335.4083 985,364.8883 C1023.75,421.4183 1023.84,462.6283 985,519.0883 C951.68,567.5283 890.355,591.5658 836.6637,603.487 C809.8181,609.4477 784.8809,612.3792 766.307,613.8175 C761.6636,614.1771 757.4178,614.4433 753.6393,614.6402 C751.7501,614.7387 755.9728,614.5767 754.3259,614.6435 " fill="#FFFFFF" fill-opacity="0.00000" id="api-to-repo" style="stroke:#181818;stroke-width:1;"/><polygon fill="#181818" points="748.3308,614.8866,757.4855,618.5186,753.3267,614.684,757.1613,610.5252,748.3308,614.8866" style="stroke:#181818;stroke-width:1;"/></g><!--reverse link api to autho--><g id="link_api_autho"><path d="M860.5475,245.458 C860.7675,244.9797 858.8273,249.2411 859.0558,248.7519 C859.5128,247.7736 859.9869,246.7741 860.478,245.7558 C862.4426,241.6826 864.6797,237.3092 867.1863,232.792 C877.2125,214.7233 891.55,194.3533 910,181.6883 C927.93,169.3883 967.72,175.1183 990.5,177.6883 C998.43,178.5883 1002.31,176.0983 1008,181.6883 C1011.4088,185.0395 1014.3208,188.8289 1016.8057,192.9077 C1017.4269,193.9274 1018.0214,194.9652 1018.5904,196.0188 C1018.8748,196.5455 1019.1529,197.0763 1019.4247,197.6106 " fill="#FFFFFF" fill-opacity="0.00000" id="api-backto-autho" style="stroke:#181818;stroke-width:1;"/><polygon fill="#181818" points="858.0563,250.9164,865.432,244.3896,860.1323,246.3677,858.1542,241.068,858.0563,250.9164" style="stroke:#181818;stroke-width:1;"/></g><!--link authe to api--><g id="link_authe_api"><path d="M1223.7943,197.2929 C1223.7295,197.1594 1223.6644,197.0261 1223.5989,196.893 C1223.4678,196.6268 1223.3351,196.3616 1223.2007,196.0974 C1222.6632,195.0404 1222.0992,193.9988 1221.5074,192.975 C1219.1405,188.8797 1216.33,185.0683 1213,181.6883 C1207.4,176.0083 1203.43,178.5883 1195.5,177.6883 C1165.91,174.3483 957.09,174.3483 927.5,177.6883 C919.57,178.5883 916.58,177.1783 910,181.6883 C891.55,194.3533 877.2125,214.7233 867.1863,232.792 C864.6797,237.3092 862.4426,241.6826 860.478,245.7558 C859.9869,246.7741 859.5128,247.7736 859.0558,248.7519 C858.8273,249.2411 858.603,249.725 858.3831,250.2032 C858.2731,250.4423 860.6554,245.2217 860.5475,245.458 " fill="#FFFFFF" fill-opacity="0.00000" id="authe-to-api" style="stroke:#181818;stroke-width:1;"/><polygon fill="#181818" points="858.0563,250.9164,865.432,244.3896,860.1323,246.3677,858.1542,241.068,858.0563,250.9164" style="stroke:#181818;stroke-width:1;"/></g><!--link autho to identity--><g id="link_autho_identity"><path d="M1041.117,243.8279 C1041.1795,243.6978 1041.2424,243.5675 1041.3055,243.4368 C1041.4317,243.1756 1041.559,242.9133 1041.6873,242.65 C1042.2006,241.5967 1042.7307,240.5271 1043.2776,239.4436 C1044.3713,237.2767 1045.5322,235.0542 1046.76,232.7958 C1056.5825,214.7283 1070.69,194.3583 1089,181.6883 C1095.56,177.1483 1098.57,178.5883 1106.5,177.6883 C1131.89,174.8283 1541.11,174.8283 1566.5,177.6883 C1574.43,178.5883 1578.4,176.0083 1584,181.6883 C1587.33,185.0683 1590.1405,188.8797 1592.5074,192.975 C1593.6909,195.0226 1594.7635,197.1412 1595.7348,199.3124 C1595.9776,199.8552 1596.2141,200.4013 1596.4444,200.9503 C1596.5595,201.2249 1594.4158,195.941 1594.5278,196.217 " fill="#FFFFFF" fill-opacity="0.00000" id="autho-to-identity" style="stroke:#181818;stroke-width:1;"/><polygon fill="#181818" points="1596.7852,201.7761,1597.1053,191.9325,1594.9041,197.1435,1589.693,194.9423,1596.7852,201.7761" style="stroke:#181818;stroke-width:1;"/></g><!--link authe to identity--><g id="link_authe_identity"><path d="M1240.0685,248.7636 C1240.4816,247.7857 1240.9108,246.7867 1241.3563,245.7689 C1243.138,241.6978 1245.1788,237.3264 1247.4825,232.8108 C1256.6975,214.7483 1270.12,194.3783 1288,181.6883 C1294.51,177.0683 1297.57,178.5883 1305.5,177.6883 C1334.32,174.4383 1537.68,174.4383 1566.5,177.6883 C1574.43,178.5883 1578.4,176.0083 1584,181.6883 C1587.33,185.0683 1590.1405,188.8797 1592.5074,192.975 C1593.6909,195.0226 1594.7635,197.1412 1595.7348,199.3124 C1595.9776,199.8552 1596.2141,200.4013 1596.4444,200.9503 C1596.5595,201.2249 1594.4158,195.941 1594.5278,196.217 " fill="#FFFFFF" fill-opacity="0.00000" id="authe-to-identity" style="stroke:#181818;stroke-width:1;"/><polygon fill="#181818" points="1596.7852,201.7761,1597.1053,191.9325,1594.9041,197.1435,1589.693,194.9423,1596.7852,201.7761" style="stroke:#181818;stroke-width:1;"/></g><!--link structure to repo--><g id="link_structure_repo"><path d="M838.6023,503.2334 C838.5602,503.3417 838.5181,503.45 838.4758,503.5583 C838.3912,503.7747 838.306,503.9911 838.2203,504.2071 C837.5344,505.9359 836.8114,507.651 836.0496,509.341 C834.5261,512.7211 832.8475,516.0008 831,519.0883 C815.665,544.7233 791.9275,568.4033 771.7738,585.8433 C766.7353,590.2033 761.9209,594.1733 757.5177,597.6863 C755.3161,599.4429 753.2173,601.0851 751.2448,602.6048 C750.2585,603.3647 749.3038,604.0938 748.3835,604.7913 C748.2685,604.8785 752.9392,601.3455 752.8252,601.4317 " fill="#FFFFFF" fill-opacity="0.00000" id="structure-to-repo" style="stroke:#181818;stroke-width:1;"/><polygon fill="#181818" points="748.0401,605.0514,757.631,602.812,752.0277,602.035,752.8047,596.4317,748.0401,605.0514" style="stroke:#181818;stroke-width:1;"/></g><!--link search to repo--><g id="link_search_repo"><path d="M627.1499,468.6122 C627.2058,468.6986 627.2621,468.7852 627.3186,468.8722 C627.4315,469.0461 627.5456,469.2212 627.6606,469.3973 C628.1209,470.1019 628.5979,470.8241 629.0911,471.5619 C631.0641,474.5133 633.2978,477.7152 635.7663,481.0433 C645.64,494.3558 659.27,509.6883 675,519.0883 C688.7,527.2783 698.49,516.0383 710,527.0883 C713.6025,530.5458 716.6819,534.4862 719.3123,538.7385 C719.9699,539.8016 720.5995,540.8841 721.2021,541.9835 C721.3528,542.2583 718.6836,537.2372 718.8309,537.5141 " fill="#FFFFFF" fill-opacity="0.00000" id="search-to-repo" style="stroke:#181818;stroke-width:1;"/><polygon fill="#181818" points="721.6491,542.8111,720.9532,532.9869,719.3006,538.3969,713.8905,536.7444,721.6491,542.8111" style="stroke:#181818;stroke-width:1;"/></g><!--SRC=[XLF1Zjem4BtxAqQvi3taq5jLYKeKYXGf5MZfVe0R3p1gy4IsiorRxRztOYT0mgxA8KvctfltF3FuNsGRxVG93EvrMuSrsx2Z5uIFdrIWKEDds5Y2XQkE5B0AhKDuM673di87fIe-DMpH1iYMx9hMmm_cscUWFN0ueeE_2kJdXAhjeKR8geGBWiia6zElKn1RohdQJn7gTIJPENiguC7qVg9iImFdfjxIwO3vvdt1XJcHlKc_eRJO5b50DtGli2PvFZKrQ-F_ev8AlGSfgK9RuGGqThDemv4TlUX0R9EdBjBtskYWVseljHw_VTzbRt3bXQen6QVSPL7oGG0JUc4wSZZ3rl4p6NIn0WtHksaNrakYZLhJdEUAT0qr7-XEPuTQLWwqDM38L_oCxWo5DVWd2lgKJd8thZSDMaZSQSMLWA3aTEzOkEvQBIowbWskJJi-RSUMVJWuzB3wcasN8yx-CUqWktEivEJphiXckIwZhVJNo0t_jlcNY5MojiEtB9XIye1yY5nyJSBneYbsMqkbTSZp6lUXBnY7B257XsEuYFIu8JZCyGvzIQXhYqQI_K3wM7AXPZ2Vps5Pav1zzowHU7KvMnhoikbGwhCq924wPxEqqVs9SbuT95RSXH7lsgJPq9aUUvtDY91S_WC0]--></g></svg>