<?xml version="1.0" encoding="us-ascii" standalone="no"?><svg xmlns="http://www.w3.org/2000/svg" xmlns:xlink="http://www.w3.org/1999/xlink" contentStyleType="text/css" height="1257px" preserveAspectRatio="none" style="width:1396px;height:1257px;background:#FFFFFF;" version="1.1" viewBox="0 0 1396 1257" width="1396px" zoomAndPan="magnify"><defs/><g><text fill="#000000" font-family="Chalkduster" font-size="42" font-weight="bold" lengthAdjust="spacing" textLength="666" x="363.75" y="61.7215">Choosing a Data Repository</text><path d="M821.5,90.6022 L821.6868,90.6022 L821.1317,93.8652 L821.6718,97.1282 L821.8553,100.3912 L820.8659,103.6541 L821.5,106.9171 L821.4865,106.8494 L817.4257,107.3454 L813.4331,108.1829 L809.4881,109.2577 L805.3795,109.5145 L801.5,110.9171 L801.5965,111.3997 L805.3901,111.1678 L809.4655,112.3447 L813.5753,113.6936 L817.485,114.0424 L821.5,114.9171 L821.5607,114.9171 L821.4716,118.1801 L821.6587,121.4431 L821.7126,124.7061 L822.0206,127.9691 L821.5,131.232 L821.5,131.232 L821.5,133.0215 L831.5536,133.0434 L841.6071,131.911 L851.6607,132.4683 L861.7143,133.1047 L871.7679,129.3089 L881.8214,133.0414 L891.875,130.4414 L901.9286,132.6555 L911.9821,129.912 L922.0357,131.0494 L932.0893,133.2097 L942.1429,131.1021 L952.1964,131.5128 L962.25,132.1351 L972.3036,132.342 L982.3571,131.2216 L992.4107,131.9979 L1002.4643,129.7056 L1012.5179,131.9904 L1022.5714,132.6939 L1032.625,132.4175 L1042.6786,132.8668 L1052.7321,129.9438 L1062.7857,129.4929 L1072.8393,129.575 L1082.8929,131.075 L1092.9464,130.708 L1103,133.0491 L1113.0536,130.7662 L1123.1071,130.3172 L1133.1607,131.8408 L1143.2143,129.4538 L1153.2679,129.8477 L1163.3214,132.9626 L1173.375,132.3938 L1183.4286,133.1907 L1193.4821,130.3739 L1203.5357,132.0832 L1213.5893,132.8065 L1223.6429,129.9723 L1233.6964,130.9764 L1243.75,131.568 L1253.8036,132.9701 L1263.8571,131.2209 L1273.9107,132.4656 L1283.9643,129.7553 L1294.0179,129.426 L1304.0714,132.575 L1314.125,129.3202 L1324.1786,132.5893 L1334.2321,131.7831 L1344.2857,130.5176 L1354.3393,130.2887 L1364.3929,132.4554 L1374.4464,130.4338 L1384.5,131.232 L1384.5,131.232 L1385.0261,131.232 L1384.0087,125.1061 L1385.0488,118.9801 L1384.9305,112.8541 L1384.7177,106.7282 L1384.5,100.6022 L1384.5297,100.6319 L1382.9567,99.0589 L1380.8857,96.9879 L1378.6064,94.7086 L1376.6686,92.7708 L1374.5,90.6022 L1374.5,90.2548 L1364.4455,92.5127 L1354.3909,91.0152 L1344.3364,91.0624 L1334.2818,88.9799 L1324.2273,89.5216 L1314.1727,92.0175 L1304.1182,91.7482 L1294.0636,90.4877 L1284.0091,89.7431 L1273.9545,90.0184 L1263.9,88.7724 L1253.8455,91.7082 L1243.7909,92.5744 L1233.7364,92.0059 L1223.6818,92.4554 L1213.6273,90.2376 L1203.5727,90.8348 L1193.5182,89.5686 L1183.4636,91.3597 L1173.4091,91.2602 L1163.3545,92.0752 L1153.3,89.9898 L1143.2455,90.2438 L1133.1909,91.7848 L1123.1364,92.1151 L1113.0818,89.2355 L1103.0273,90.0852 L1092.9727,91.0002 L1082.9182,88.9733 L1072.8636,91.5446 L1062.8091,91.2902 L1052.7545,90.3335 L1042.7,90.9815 L1032.6455,92.5453 L1022.5909,89.7679 L1012.5364,91.4422 L1002.4818,91.3639 L992.4273,90.9109 L982.3727,90.978 L972.3182,90.9048 L962.2636,88.9378 L952.2091,89.5334 L942.1545,89.3715 L932.1,90.7724 L922.0455,90.8372 L911.9909,91.0335 L901.9364,89.8263 L891.8818,90.4222 L881.8273,90.2816 L871.7727,92.1405 L861.7182,91.7397 L851.6636,89.3075 L841.6091,90.4077 L831.5545,89.0629 L821.5,90.6022 L821.5,90.6022 " fill="#FFFFE0" style="stroke:#181818;stroke-width:4.0;"/><path d="M1374.5,90.6022 L1374.6868,90.6022 L1374.1317,92.6022 L1374.6718,94.6022 L1374.8553,96.6022 L1373.8659,98.6022 L1374.5,100.6022 L1374.5,100.5331 L1376.5,100.2231 L1378.5,100.2613 L1380.5,100.5416 L1382.5,99.9877 L1384.5,100.6022 L1384.848,100.9502 L1382.1038,98.2061 L1380.3757,96.4779 L1378.7715,94.8737 L1376.4461,92.5483 L1374.5,90.6022 " fill="#FFFFE0" style="stroke:#181818;stroke-width:4.0;"/><text fill="#000000" font-family="Chalkduster" font-size="24" lengthAdjust="spacing" textLength="542" x="827.5" y="119.4431">Size, Granularity, Access Control, APIs</text><polygon fill="#F1F1F1" points="467,85.6022,467,85.8124,477.0625,85.1879,487.125,85.7955,497.1875,86.0019,507.25,84.8888,517.3125,85.5245,527.375,85.1757,537.4375,85.2187,547.5,85.5341,557.5625,84.9108,567.625,86.1559,577.6875,84.9719,587.75,85.4044,597.8125,86.0342,607.875,85.5164,617.9375,85.6704,628,85.5703,638.0625,85.7807,648.125,85.8413,658.1875,86.1879,668.25,86.2733,678.3125,86.2815,688.375,85.8568,698.4375,86.0658,708.5,86.3044,718.5625,84.881,728.625,86.2807,738.6875,85.3057,748.75,86.136,758.8125,85.1072,768.875,85.5337,778.9375,86.3438,789,85.6022,788.9938,85.5872,790.7812,86.3669,792.5787,87.171,794.3564,87.9271,796.0706,88.5299,797.8388,89.2634,797.9273,89.3,798.3948,90.9581,799.3909,92.8352,800.2044,94.6366,800.9047,96.3911,801.5,98.1022,801.7043,98.1022,801.339,103.2282,801.2826,108.3541,801.2929,113.4801,801.4804,118.6061,801.5,123.732,801.4395,123.707,800.9776,125.5867,799.9817,127.2453,799.1977,128.9916,798.6414,130.8322,797.8388,132.5709,797.7538,132.3655,796.0048,133.1432,794.3861,134.2352,792.5911,134.9017,790.8615,135.726,789,136.232,789,135.9102,778.9375,136.5512,768.875,136.8225,758.8125,135.7596,748.75,136.1362,738.6875,136.358,728.625,136.8838,718.5625,136.2279,708.5,136.6946,698.4375,135.6783,688.375,135.5548,678.3125,136.7357,668.25,135.5151,658.1875,136.741,648.125,136.4387,638.0625,135.9641,628,135.8783,617.9375,136.6908,607.875,135.9327,597.8125,136.8239,587.75,135.6793,577.6875,136.8495,567.625,136.7163,557.5625,136.477,547.5,136.2793,537.4375,136.9587,527.375,136.8456,517.3125,136.4013,507.25,136.5002,497.1875,136.1018,487.125,136.9485,477.0625,136.3869,467,136.232,467.022,136.2852,465.1546,135.3125,463.4128,134.6428,461.7644,134.1988,459.9838,133.4355,458.1612,132.5709,458.1479,132.5654,457.3297,130.762,456.6293,129.0074,455.7532,127.18,455.36,125.5527,454.5,123.732,454.7465,123.732,454.6755,118.6061,454.7316,113.4801,454.4544,108.3541,454.5291,103.2282,454.5,98.1022,454.3806,98.0528,455.3197,96.3707,456.0405,94.5982,456.8668,92.8694,457.3582,91.0018,458.1612,89.2634,458.144,89.222,459.9855,88.6677,461.7691,87.9736,463.3991,86.9088,465.2075,86.2747,467,85.6022" style="stroke:#181818;stroke-width:0.5;"/><text fill="#000000" font-family="Chalkduster" font-size="24" lengthAdjust="spacing" textLength="327" x="464.5" y="119.4431">Document Requirements</text><polygon fill="#F1F1F1" points="498.5,314.7514,498.5,314.9616,508.4615,314.3371,518.4231,314.9447,528.3846,315.1511,538.3462,314.038,548.3077,314.6737,558.2692,314.3249,568.2308,314.3679,578.1923,314.6832,588.1538,314.06,598.1154,315.305,608.0769,314.1211,618.0385,314.5536,628,315.1833,637.9615,314.6656,647.9231,314.8196,657.8846,314.7194,667.8462,314.9299,677.8077,314.9905,687.7692,315.3371,697.7308,315.4224,707.6923,315.4306,717.6538,315.006,727.6154,315.215,737.5769,315.4536,747.5385,314.0302,757.5,314.7514,757.5866,314.9603,759.2299,315.3923,761.1036,316.3802,762.7402,316.7956,764.5623,317.6592,766.3388,318.4125,766.5672,318.5071,767.0561,320.1741,767.8357,321.9615,768.6398,323.759,769.3959,325.5367,770,327.2514,769.9987,327.2514,770.0957,332.3773,769.8092,337.5033,770.0948,342.6293,770.1827,347.7552,770,352.8812,770.1369,352.9379,769.4566,354.7272,768.3868,356.3551,767.6025,358.1013,766.8797,359.873,766.3388,361.72,766.3313,361.7019,764.546,362.3918,762.8902,363.3944,761.0133,363.863,759.224,364.5433,757.5,365.3812,757.5,365.6095,747.5385,364.7144,737.5769,364.8621,727.6154,366.0302,717.6538,365.8169,707.6923,366.1157,697.7308,365.0594,687.7692,365.7004,677.8077,365.9716,667.8462,364.9088,657.8846,365.2854,647.9231,365.5072,637.9615,366.033,628,365.377,618.0385,365.8438,608.0769,364.8274,598.1154,364.704,588.1538,365.8848,578.1923,364.6643,568.2308,365.8902,558.2692,365.5878,548.3077,365.1133,538.3462,365.0274,528.3846,365.84,518.4231,365.0819,508.4615,365.9731,498.5,365.3812,498.4295,365.211,496.811,364.8391,495.0262,364.0659,493.2279,363.26,491.435,362.4668,489.6612,361.72,489.8849,361.8127,489.1179,360.0305,488.2488,358.2061,487.5471,356.451,486.6921,354.6324,486,352.8812,486.2388,352.8812,486.0516,347.7552,486.0575,342.6293,485.7972,337.5033,485.8649,332.3773,486,327.2514,486.1634,327.3191,486.8646,325.5384,487.4512,323.7104,488.0975,321.907,488.8615,320.1524,489.6612,318.4125,489.5736,318.2012,491.4818,317.808,493.291,317.1758,495.0316,316.378,496.8209,315.6976,498.5,314.7514" style="stroke:#181818;stroke-width:0.5;"/><text fill="#000000" font-family="Chalkduster" font-size="24" lengthAdjust="spacing" textLength="264" x="496" y="348.5923">Use Discipline Repo</text><polygon fill="none" points="639.0608,399.0568,637.4484,401.26,635.5412,404.4869,632.8136,406.6616,629.9474,407.8508,627.662,407.954,624.7247,406.4668,621.9532,405.4951,619.8495,403.5224,618.7461,401.264,618.0917,399.4657,617.4506,397.1169,616.41,395.0957,617.2096,393.1222,617.9102,390.9604,620.5393,389.2507,622.389,387.0323,624.6784,386.2957,627.4001,385.6613,630.8904,386.0382,632.8021,386.9397,635.0247,387.3484,637.7272,390.1172,638.6693,393.0402,639.0786,395.0346,638.615,398.3211" style="stroke:#222222;stroke-width:1.0;"/><polygon fill="#222222" points="634.0331,397.8406,633.1536,399.0424,632.1134,400.8025,630.6256,401.9887,629.0622,402.6374,627.8156,402.6937,626.2135,401.8824,624.7017,401.3524,623.5543,400.2764,622.9524,399.0445,622.5955,398.0637,622.2458,396.7825,621.6782,395.68,622.1143,394.6036,622.4965,393.4244,623.9305,392.4918,624.9394,391.2818,626.1882,390.88,627.6728,390.534,629.5766,390.7396,630.6193,391.2313,631.8317,391.4542,633.3057,392.9645,633.8196,394.5588,634.0429,395.6467,633.79,397.4393" style="stroke:#222222;stroke-width:1.0;"/><polygon fill="#F1F1F1" points="470,250.8066,470,251.0168,479.875,250.3923,489.75,250.9999,499.625,251.2063,509.5,250.0932,519.375,250.7289,529.25,250.3801,539.125,250.4231,549,250.7385,558.875,250.1153,568.75,251.3603,578.625,250.1763,588.5,250.6089,598.375,251.2386,608.25,250.7209,618.125,250.8749,628,250.7747,637.875,250.9852,647.75,251.0458,657.625,251.3923,667.5,251.4777,677.375,251.4859,687.25,251.0613,697.125,251.2702,707,251.5089,716.875,250.0854,726.75,251.4851,736.625,250.5101,746.5,251.3404,756.375,250.3116,766.25,250.7381,776.125,251.5482,786,250.8066,785.9872,250.7966,788.4276,253.8913,790.8888,257.0022,793.3092,260.0811,795.599,263.0578,798,266.1215,798.0754,266.1806,795.4498,269.0668,793.2746,272.306,790.9438,275.4232,788.5166,278.4649,786,281.4365,786,282.0495,776.125,280.9534,766.25,280.7843,756.375,280.8151,746.5,281.3776,736.625,281.2399,726.75,282.1179,716.875,281.2618,707,281.0934,697.125,281.6647,687.25,280.7696,677.375,280.9173,667.5,282.0854,657.625,281.8721,647.75,282.171,637.875,281.1147,628,281.7557,618.125,282.0269,608.25,280.9641,598.375,281.3406,588.5,281.5624,578.625,282.0882,568.75,281.4323,558.875,281.899,549,280.8827,539.125,280.7592,529.25,281.9401,519.375,280.7195,509.5,281.9454,499.625,281.6431,489.75,281.1685,479.875,281.0827,470,281.4365,470.1204,281.5308,467.5215,278.3119,465.3553,275.4322,462.655,272.1339,460.562,269.3115,458,266.1215,458.1271,266.2211,460.4643,263.1089,462.8124,260.0053,465.3906,257.082,467.761,253.9958,470,250.8066" style="stroke:#181818;stroke-width:0.5;"/><text fill="#000000" font-family="Chalkduster" font-size="24" lengthAdjust="spacing" textLength="42" x="632" y="305.2773">yes</text><text fill="#000000" font-family="Chalkduster" font-size="24" lengthAdjust="spacing" textLength="316" x="470" y="274.6475">meets all requirements</text><text fill="#000000" font-family="Chalkduster" font-size="24" lengthAdjust="spacing" textLength="35" x="798" y="259.3326">no</text><polygon fill="#F1F1F1" points="241.5,156.232,241.5,156.4422,251.539,155.8177,261.5779,156.4253,271.6169,156.6317,281.6558,155.5186,291.6948,156.1543,301.7338,155.8056,311.7727,155.8485,321.8117,156.1639,331.8506,155.5407,341.8896,156.7857,351.9286,155.6018,361.9675,156.0343,372.0065,156.664,382.0455,156.1463,392.0844,156.3003,402.1234,156.2001,412.1623,156.4106,422.2013,156.4712,432.2403,156.8177,442.2792,156.9031,452.3182,156.9113,462.3571,156.4867,472.3961,156.6956,482.4351,156.9343,492.474,155.5109,502.513,156.9106,512.5519,155.9355,522.5909,156.7659,532.6299,155.737,542.6688,156.1635,552.7078,156.9736,562.7468,156.1833,572.7857,156.3373,582.8247,156.5707,592.8636,156.6483,602.9026,156.2281,612.9416,156.5193,622.9805,155.6596,633.0195,156.5164,643.0584,156.7802,653.0974,156.6766,663.1364,156.8451,673.1753,155.749,683.2143,155.5799,693.2532,155.6106,703.2922,156.1732,713.3312,156.0355,723.3701,156.9135,733.4091,156.0574,743.4481,155.889,753.487,156.4603,763.526,155.5652,773.5649,155.7129,783.6039,156.881,793.6429,156.6677,803.6818,156.9665,813.7208,155.9102,823.7597,156.5512,833.7987,156.8225,843.8377,155.7596,853.8766,156.1362,863.9156,156.358,873.9545,156.8838,883.9935,156.2279,894.0325,156.6946,904.0714,155.6783,914.1104,155.5548,924.1494,156.7357,934.1883,155.5151,944.2273,156.741,954.2662,156.4387,964.3052,155.9641,974.3442,155.8783,984.3831,156.6908,994.4221,155.9327,1004.461,156.8239,1014.5,156.232,1014.3284,156.1648,1017.0916,162.4331,1019.4503,168.5429,1021.776,174.6397,1024.1147,180.7417,1026.5,186.8619,1026.7255,186.9502,1024.2904,193.0625,1021.7525,199.1344,1019.3832,205.2724,1016.8596,211.3499,1014.5,217.4917,1014.5,218.2082,1004.461,217.6466,994.4221,217.6643,984.3831,216.8834,974.3442,217.0865,964.3052,218.0225,954.2662,217.9215,944.2273,217.4488,934.1883,217.1695,924.1494,217.2728,914.1104,216.8055,904.0714,217.9064,894.0325,218.2313,883.9935,218.0181,873.9545,218.1866,863.9156,217.355,853.8766,217.5789,843.8377,217.1041,833.7987,217.7758,823.7597,217.7385,813.7208,218.0441,803.6818,217.2621,793.6429,217.3573,783.6039,217.9352,773.5649,218.059,763.526,216.9792,753.487,217.2978,743.4481,217.641,733.4091,216.8809,723.3701,217.8451,713.3312,217.7497,703.2922,217.3909,693.2532,217.634,683.2143,218.2204,673.1753,217.1788,663.1364,217.8067,653.0974,217.7774,643.0584,217.6075,633.0195,217.6326,622.9805,217.6052,612.9416,216.8676,602.9026,217.0909,592.8636,217.0302,582.8247,217.5555,572.7857,217.5798,562.7468,217.6535,552.7078,217.2007,542.6688,217.4242,532.6299,217.3715,522.5909,218.0686,512.5519,217.9183,502.513,217.0062,492.474,217.4188,482.4351,216.9145,472.3961,217.7801,462.3571,218.1002,452.3182,218.0363,442.2792,217.0562,432.2403,217.9557,422.2013,216.7489,412.1623,217.6919,402.1234,217.1924,392.0844,217.5884,382.0455,217.732,372.0065,217.9638,361.9675,216.7718,351.9286,217.9672,341.8896,217.6699,331.8506,217.847,321.8117,218.2395,311.7727,217.4972,301.7338,217.667,291.6948,217.7051,281.6558,217.6889,271.6169,217.4909,261.5779,218.2024,251.539,216.882,241.5,217.4917,241.6754,217.5604,238.9063,211.2899,236.5323,205.1741,234.3124,199.1187,231.9088,192.9913,229.5,186.8619,229.347,186.802,232.0284,180.7862,234.3338,174.6232,236.9255,168.5723,239.307,162.4391,241.5,156.232" style="stroke:#181818;stroke-width:0.5;"/><text fill="#000000" font-family="Chalkduster" font-size="24" lengthAdjust="spacing" textLength="42" x="632" y="241.3326">yes</text><text fill="#000000" font-family="Chalkduster" font-size="24" lengthAdjust="spacing" textLength="773" x="241.5" y="180.0729">Is there standard repository for your discipline / field</text><text fill="#000000" font-family="Chalkduster" font-size="24" lengthAdjust="spacing" textLength="361" x="241.5" y="210.7028">eg PARADISEC, ADA, ALA...</text><polygon fill="#F1F1F1" points="628,449.3812,628.0495,449.4308,630.3023,451.6836,632.8456,454.2268,635.2942,456.6754,637.4319,458.8131,640,461.3812,639.9817,461.3629,637.4995,463.6807,635.1096,466.0908,632.7839,468.5651,630.237,470.8183,628,473.3812,628.1305,473.5117,625.4514,470.8327,623.1534,468.5346,620.9018,466.283,618.3798,463.761,616,461.3812,616.0161,461.3973,618.3925,458.9737,620.8421,456.6233,623.2564,454.2376,625.738,451.9193,628,449.3812" style="stroke:#181818;stroke-width:0.5;"/><path d="M10,483.6702 L10.5605,483.6702 L8.8951,493.8691 L10.5154,504.0679 L11.0658,514.2668 L8.0976,524.4657 L9.7928,534.6646 L8.8627,544.8635 L8.9773,555.0624 L9.8182,565.2613 L8.1563,575.4602 L11.4764,585.6591 L8.3193,595.858 L9.4726,606.0569 L11.1519,616.2558 L9.7713,626.4547 L10.182,636.6536 L9.9148,646.8525 L10.4761,657.0514 L10.6377,667.2503 L10,677.4492 L10,679.011 L19.9286,679.2386 L29.8571,679.2605 L39.7857,678.1282 L49.7143,678.6854 L59.6429,679.3218 L69.5714,675.526 L79.5,679.2585 L89.4286,676.6585 L99.3571,678.8727 L109.2857,676.1291 L119.2143,677.2665 L129.1429,679.4268 L139.0714,677.3192 L149,677.73 L158.9286,678.3522 L168.8571,678.5591 L178.7857,677.4387 L188.7143,678.2151 L198.6429,675.9227 L208.5714,678.2075 L218.5,678.911 L228.4286,678.6346 L238.3571,679.0839 L248.2857,676.1609 L258.2143,675.71 L268.1429,675.7921 L278.0714,677.2921 L288,676.9251 L297.9286,679.2663 L307.8571,676.9834 L317.7857,676.5344 L327.7143,678.0579 L337.6429,675.6709 L347.5714,676.0648 L357.5,679.1797 L367.4286,678.6109 L377.3571,679.4078 L387.2857,676.591 L397.2143,678.3004 L407.1429,679.0236 L417.0714,676.1894 L427,677.4492 L426.7444,677.4492 L427.336,667.2392 L428.738,657.0293 L426.9888,646.8193 L428.2335,636.6094 L425.5232,626.3994 L425.194,616.1895 L428.343,605.9795 L425.0882,595.7696 L428.3572,585.5597 L427.551,575.3497 L426.2856,565.1398 L426.0566,554.9298 L428.2234,544.7199 L426.2018,534.5099 L428.5783,524.3 L425.526,514.09 L428.6465,503.8801 L427,493.6702 L427.3044,493.9746 L425.154,491.8241 L423.0297,489.6998 L421.4567,488.1269 L419.3857,486.0558 L417,483.6702 L417,484.1215 L407.0732,484.3853 L397.1463,483.3228 L387.2195,485.5807 L377.2927,484.0831 L367.3659,484.1304 L357.439,482.0479 L347.5122,482.5896 L337.5854,485.0855 L327.6585,484.8162 L317.7317,483.5557 L307.8049,482.811 L297.878,483.0864 L287.9512,481.8404 L278.0244,484.7761 L268.0976,485.6423 L258.1707,485.0739 L248.2439,485.5233 L238.3171,483.3056 L228.3902,483.9027 L218.4634,482.6366 L208.5366,484.4276 L198.6098,484.3282 L188.6829,485.1432 L178.7561,483.0577 L168.8293,483.3117 L158.9024,484.8527 L148.9756,485.1831 L139.0488,482.3034 L129.122,483.1531 L119.1951,484.0682 L109.2683,482.0412 L99.3415,484.6125 L89.4146,484.3581 L79.4878,483.4015 L69.561,484.0495 L59.6341,485.6133 L49.7073,482.8358 L39.7805,484.5101 L29.8537,484.4319 L19.9268,483.9789 L10,483.6702 " fill="#FFFFE0" style="stroke:#181818;stroke-width:4.0;"/><path d="M417,483.6702 L417.1868,483.6702 L416.6317,485.6702 L417.1718,487.6702 L417.3553,489.6702 L416.3659,491.6702 L417,493.6702 L417,493.6011 L419,493.2911 L421,493.3293 L423,493.6096 L425,493.0556 L427,493.6702 L427.348,494.0181 L424.6038,491.274 L422.8757,489.5459 L421.2715,487.9417 L418.9461,485.6162 L417,483.6702 " fill="#FFFFE0" style="stroke:#181818;stroke-width:4.0;"/><text fill="#000000" font-family="Chalkduster" font-size="24" lengthAdjust="spacing" textLength="335" x="16" y="512.511">Assumption: Insitutional</text><text fill="#000000" font-family="Chalkduster" font-size="24" lengthAdjust="spacing" textLength="373" x="16" y="543.1409">and generalist repositories</text><text fill="#000000" font-family="Chalkduster" font-size="24" lengthAdjust="spacing" textLength="360" x="16" y="573.7707">are Open Access only and</text><text fill="#000000" font-family="Chalkduster" font-size="24" lengthAdjust="spacing" textLength="352" x="16" y="604.4005">usually have size limits /</text><text fill="#000000" font-family="Chalkduster" font-size="24" lengthAdjust="spacing" textLength="396" x="16" y="635.0304">not suitable for collections-</text><text fill="#000000" font-family="Chalkduster" font-size="24" lengthAdjust="spacing" textLength="132" x="16" y="665.6602">type data</text><polygon fill="#F1F1F1" points="306.5,741.3939,306.5,741.6041,316.5469,740.9796,326.5938,741.5872,336.6406,741.7936,346.6875,740.6805,356.7344,741.3162,366.7813,740.9674,376.8281,741.0104,386.875,741.3258,396.9219,740.7025,406.9688,741.9476,417.0156,740.7636,427.0625,741.1961,437.1094,741.8259,447.1563,741.3081,457.2031,741.4621,467.25,741.362,477.2969,741.5724,487.3438,741.633,497.3906,741.9796,507.4375,742.065,517.4844,742.0732,527.5313,741.6485,537.5781,741.8575,547.625,742.0961,557.6719,740.6727,567.7188,742.0724,577.7656,741.0974,587.8125,741.9277,597.8594,740.8989,607.9063,741.3254,617.9531,742.1355,628,741.3452,638.0469,741.4992,648.0938,741.7325,658.1406,741.8101,668.1875,741.39,678.2344,741.6811,688.2813,740.8215,698.3281,741.6783,708.375,741.9421,718.4219,741.8384,728.4688,742.0069,738.5156,740.9108,748.5625,740.7417,758.6094,740.7725,768.6563,741.335,778.7031,741.1974,788.75,742.0753,798.7969,741.2192,808.8438,741.0509,818.8906,741.6222,828.9375,740.7271,838.9844,740.8748,849.0313,742.0429,859.0781,741.8296,869.125,742.1284,879.1719,741.0721,889.2188,741.7131,899.2656,741.9843,909.3125,740.9215,919.3594,741.298,929.4063,741.5199,939.4531,742.0457,949.5,741.3939,949.4989,741.393,952.0214,744.552,954.1547,747.406,956.5223,750.4436,959.2321,753.7494,961.5,756.7088,961.3119,756.5614,959.2335,759.8764,956.7542,762.8773,954.2297,765.8427,951.8072,768.888,949.5,772.0237,949.5,772.4825,939.4531,771.7244,929.4063,772.6156,919.3594,771.471,909.3125,772.6412,899.2656,772.508,889.2188,772.2687,879.1719,772.071,869.125,772.7504,859.0781,772.6373,849.0313,772.193,838.9844,772.2919,828.9375,771.8935,818.8906,772.7402,808.8438,772.1786,798.7969,772.1963,788.75,771.4154,778.7031,771.6185,768.6563,772.5545,758.6094,772.4535,748.5625,771.9808,738.5156,771.7016,728.4688,771.8048,718.4219,771.3376,708.375,772.4385,698.3281,772.7633,688.2813,772.5501,678.2344,772.7187,668.1875,771.887,658.1406,772.111,648.0938,771.6361,638.0469,772.3078,628,772.2705,617.9531,772.5761,607.9063,771.7941,597.8594,771.8893,587.8125,772.4672,577.7656,772.5911,567.7188,771.5112,557.6719,771.8299,547.625,772.173,537.5781,771.4129,527.5313,772.3771,517.4844,772.2817,507.4375,771.923,497.3906,772.166,487.3438,772.7524,477.2969,771.7109,467.25,772.3387,457.2031,772.3094,447.1563,772.1395,437.1094,772.1647,427.0625,772.1372,417.0156,771.3996,406.9688,771.6229,396.9219,771.5622,386.875,772.0876,376.8281,772.1119,366.7813,772.1855,356.7344,771.7328,346.6875,771.9562,336.6406,771.9035,326.5938,772.6006,316.5469,772.4503,306.5,772.0237,306.3726,771.9239,304.0809,768.9458,301.5485,765.7791,299.3757,762.8941,297.0597,759.8969,294.5,756.7088,294.6429,756.8208,296.7857,753.5563,299.4217,750.6782,301.5051,747.3672,304.1525,744.498,306.5,741.3939" style="stroke:#181818;stroke-width:0.5;"/><text fill="#000000" font-family="Chalkduster" font-size="24" lengthAdjust="spacing" textLength="643" x="306.5" y="765.2348">Institutional repo exists &amp; meets requirements</text><text fill="#000000" font-family="Chalkduster" font-size="24" lengthAdjust="spacing" textLength="42" x="252.5" y="749.9199">yes</text><text fill="#000000" font-family="Chalkduster" font-size="24" lengthAdjust="spacing" textLength="35" x="961.5" y="749.9199">no</text><polygon fill="#F1F1F1" points="133,782.0237,133,782.2339,143.1,781.6094,153.2,782.217,163.3,782.4234,173.4,781.3103,183.5,781.946,193.6,781.5972,203.7,781.6402,213.8,781.9556,223.9,781.3324,234,782.5774,244.1,781.3935,254.2,781.826,264.3,782.4557,274.4,781.938,284.5,782.092,294.6,781.9918,304.7,782.2023,314.8,782.2629,324.9,782.6094,335,782.6948,345.1,782.703,355.2,782.2784,365.3,782.4873,375.4,782.726,385.5,781.3026,395.6,782.7023,405.7,781.7272,415.8,782.5576,425.9,781.5287,436,782.0237,435.9913,782.0026,437.8624,782.9844,439.5293,783.4732,441.3167,784.2529,443.1143,785.057,444.8388,785.6849,444.967,785.738,445.5699,787.4522,446.3918,789.2571,446.8593,790.9152,447.8553,792.7923,448.5,794.5237,448.6827,794.5237,448.6482,799.6497,448.7043,804.7757,448.339,809.9016,448.2826,815.0276,448.5,820.1536,448.3086,820.0743,447.7496,821.9138,446.975,823.664,446.5131,825.5438,445.5173,827.2024,444.8388,828.9924,444.7951,828.8868,443.1002,829.7949,441.2182,830.2515,439.4693,831.0292,437.8505,832.1212,436,832.6536,436,833.0892,425.9,833.3881,415.8,832.3318,405.7,832.9728,395.6,833.244,385.5,832.1812,375.4,832.5577,365.3,832.7796,355.2,833.3053,345.1,832.6494,335,833.1161,324.9,832.0998,314.8,831.9763,304.7,833.1572,294.6,831.9366,284.5,833.1625,274.4,832.8602,264.3,832.3857,254.2,832.2998,244.1,833.1123,234,832.3542,223.9,833.2454,213.8,832.1008,203.7,833.271,193.6,833.1379,183.5,832.8985,173.4,832.7008,163.3,833.3802,153.2,833.2672,143.1,832.8228,133,832.6536,133.0342,832.7362,131.2156,831.8812,129.5559,831.4097,127.7165,830.5046,125.9509,829.7778,124.1612,828.9924,123.9738,828.9148,123.3041,827.173,122.8601,825.5246,122.0968,823.7439,121.219,821.9159,120.5,820.1536,120.3926,820.1536,120.427,815.0276,120.2713,809.9016,120.6382,804.7757,120.7465,799.6497,120.5,794.5237,120.6621,794.5909,121.4462,792.8446,121.9224,790.9708,122.7236,789.2316,123.3096,787.4032,124.1612,785.6849,124.1974,785.7724,125.9604,785.0287,127.7672,784.3906,129.4352,783.4175,131.2151,782.7146,133,782.0237" style="stroke:#181818;stroke-width:0.5;"/><text fill="#000000" font-family="Chalkduster" font-size="24" lengthAdjust="spacing" textLength="308" x="130.5" y="815.8646">Use Institutional Repo</text><polygon fill="none" points="295.5608,881.3292,293.9484,883.5324,292.0412,886.7593,289.3136,888.934,286.4474,890.1232,284.162,890.2264,281.2247,888.7391,278.4532,887.7675,276.3495,885.7948,275.2461,883.5364,274.5917,881.7381,273.9506,879.3893,272.91,877.368,273.7096,875.3946,274.4102,873.2328,277.0393,871.5231,278.889,869.3047,281.1784,868.568,283.9001,867.9336,287.3904,868.3105,289.3021,869.2121,291.5247,869.6208,294.2272,872.3896,295.1693,875.3125,295.5786,877.3069,295.115,880.5935" style="stroke:#222222;stroke-width:1.0;"/><polygon fill="#222222" points="290.5331,880.113,289.6536,881.3147,288.6134,883.0749,287.1256,884.2611,285.5622,884.9097,284.3156,884.966,282.7135,884.1548,281.2017,883.6248,280.0543,882.5488,279.4524,881.3169,279.0955,880.336,278.7458,879.0549,278.1782,877.9524,278.6143,876.8759,278.9965,875.6968,280.4305,874.7642,281.4394,873.5542,282.6882,873.1524,284.1728,872.8063,286.0766,873.0119,287.1193,873.5037,288.3317,873.7266,289.8057,875.2368,290.3196,876.8312,290.5429,877.919,290.29,879.7117" style="stroke:#222222;stroke-width:1.0;"/><polygon fill="#F1F1F1" points="936,845.9685,936,846.1787,946.1429,845.5542,956.2857,846.1618,966.4286,846.3682,976.5714,845.2551,986.7143,845.8908,996.8571,845.542,1007,845.9685,1006.9511,845.8504,1008.7591,846.6797,1010.4473,847.22,1012.3739,848.3357,1013.9907,848.7033,1015.8388,849.6297,1015.7779,849.6044,1016.7041,851.4525,1017.2769,853.1542,1018.0565,854.9417,1018.7579,856.6967,1019.5,858.4685,1019.5595,858.4685,1019.5797,863.5945,1019.6952,868.7204,1019.7237,873.8464,1019.7264,878.9724,1019.5,884.0983,1019.5784,884.1308,1018.9105,885.9252,1018.2518,887.7234,1017.0812,889.3096,1016.78,891.2559,1015.8388,892.9372,1015.801,892.8458,1014.1392,893.8338,1012.2402,894.2492,1010.5268,895.1128,1008.8624,896.0945,1007,896.5983,1007,896.5496,996.8571,896.7036,986.7143,896.937,976.5714,897.0146,966.4286,896.5944,956.2857,896.8855,946.1429,896.0259,936,896.5983,936.0363,896.6859,934.3022,896.0349,932.5212,895.2708,930.7749,894.5904,928.8673,893.5206,927.1612,892.9372,926.9603,892.854,926.2376,891.0901,925.6786,889.3941,924.9039,887.6088,924.4421,885.953,923.5,884.0983,923.4418,884.0983,923.3856,878.9724,923.5761,873.8464,923.2777,868.7204,923.327,863.5945,923.5,858.4685,923.6999,858.5513,924.3664,856.7563,925.1907,855.0267,925.5976,853.1241,926.5272,851.4381,927.1612,849.6297,927.2365,849.8115,928.8687,848.7519,930.6845,848.1357,932.4805,847.4718,934.3154,846.9014,936,845.9685" style="stroke:#181818;stroke-width:0.5;"/><text fill="#000000" font-family="Chalkduster" font-size="24" lengthAdjust="spacing" textLength="76" x="933.5" y="879.8094">Use it</text><polygon fill="none" points="982.5608,931.8016,980.9484,934.0047,979.0412,937.2317,976.3136,939.4063,973.4474,940.5956,971.162,940.6988,968.2247,939.2115,965.4532,938.2399,963.3495,936.2671,962.2461,934.0087,961.5917,932.2105,960.9506,929.8617,959.91,927.8404,960.7096,925.867,961.4102,923.7052,964.0393,921.9954,965.889,919.777,968.1784,919.0404,970.9001,918.406,974.3904,918.7829,976.3021,919.6845,978.5247,920.0931,981.2272,922.8619,982.1693,925.7849,982.5786,927.7793,982.115,931.0658" style="stroke:#222222;stroke-width:1.0;"/><polygon fill="#222222" points="977.5331,930.5854,976.6536,931.7871,975.6134,933.5472,974.1256,934.7334,972.5622,935.3821,971.3156,935.4384,969.7135,934.6272,968.2017,934.0972,967.0543,933.0211,966.4524,931.7893,966.0955,930.8084,965.7458,929.5272,965.1782,928.4248,965.6143,927.3483,965.9965,926.1692,967.4305,925.2366,968.4394,924.0265,969.6882,923.6247,971.1728,923.2787,973.0766,923.4843,974.1193,923.9761,975.3317,924.199,976.8057,925.7092,977.3196,927.3036,977.5429,928.3914,977.29,930.1841" style="stroke:#222222;stroke-width:1.0;"/><polygon fill="#F1F1F1" points="733,782.0237,733,782.2339,742.9375,781.6094,752.875,782.217,762.8125,782.4234,772.75,781.3103,782.6875,781.946,792.625,781.5972,802.5625,781.6402,812.5,781.9556,822.4375,781.3324,832.375,782.5774,842.3125,781.3935,852.25,781.826,862.1875,782.4557,872.125,781.938,882.0625,782.092,892,781.9918,901.9375,782.2023,911.875,782.2629,921.8125,782.6094,931.75,782.6948,941.6875,782.703,951.625,782.2784,961.5625,782.4873,971.5,782.726,981.4375,781.3026,991.375,782.7023,1001.3125,781.7272,1011.25,782.5576,1021.1875,781.5287,1031.125,781.9552,1041.0625,782.7653,1051,781.975,1060.9375,782.129,1070.875,782.3624,1080.8125,782.44,1090.75,782.0198,1100.6875,782.311,1110.625,781.4513,1120.5625,782.3081,1130.5,782.5719,1140.4375,782.4683,1150.375,782.6368,1160.3125,781.5407,1170.25,781.3716,1180.1875,781.4023,1190.125,781.9649,1200.0625,781.8272,1210,782.0237,1210.1788,782.1638,1212.3542,785.0508,1214.71,788.0792,1217.2599,791.2596,1219.425,794.1386,1222,797.3387,1221.8638,797.2319,1219.7703,800.5351,1217.3143,803.5542,1214.9927,806.6786,1212.3156,809.5244,1210,812.6536,1210,812.9728,1200.0625,813.244,1190.125,812.1812,1180.1875,812.5577,1170.25,812.7796,1160.3125,813.3053,1150.375,812.6494,1140.4375,813.1161,1130.5,812.0998,1120.5625,811.9763,1110.625,813.1572,1100.6875,811.9366,1090.75,813.1625,1080.8125,812.8602,1070.875,812.3857,1060.9375,812.2998,1051,813.1123,1041.0625,812.3542,1031.125,813.2454,1021.1875,812.1008,1011.25,813.271,1001.3125,813.1379,991.375,812.8985,981.4375,812.7008,971.5,813.3802,961.5625,813.2672,951.625,812.8228,941.6875,812.9218,931.75,812.5233,921.8125,813.37,911.875,812.8084,901.9375,812.8261,892,812.0452,882.0625,812.2484,872.125,813.1843,862.1875,813.0833,852.25,812.6106,842.3125,812.3314,832.375,812.4346,822.4375,811.9674,812.5,813.0683,802.5625,813.3931,792.625,813.18,782.6875,813.3485,772.75,812.5168,762.8125,812.7408,752.875,812.266,742.9375,812.9376,733,812.6536,733.0647,812.7043,730.7449,809.7042,728.1397,806.4804,725.7647,803.437,723.5164,800.4928,721,797.3387,721.1489,797.4553,723.2655,794.1703,725.7491,791.1728,728.2392,788.1804,730.4397,784.9611,733,782.0237" style="stroke:#181818;stroke-width:0.5;"/><text fill="#000000" font-family="Chalkduster" font-size="24" lengthAdjust="spacing" textLength="42" x="975.5" y="836.4945">yes</text><text fill="#000000" font-family="Chalkduster" font-size="24" lengthAdjust="spacing" textLength="477" x="733" y="805.8646">There's a suitable Generalist Repo</text><text fill="#000000" font-family="Chalkduster" font-size="24" lengthAdjust="spacing" textLength="35" x="1222" y="790.5497">no</text><polygon fill="#F1F1F1" points="439,677.4492,439,677.6593,448.9474,677.0348,458.8947,677.6424,468.8421,677.8488,478.7895,676.7358,488.7368,677.3714,498.6842,677.0227,508.6316,677.0657,518.5789,677.381,528.5263,676.7578,538.4737,678.0028,548.4211,676.8189,558.3684,677.2514,568.3158,677.8811,578.2632,677.3634,588.2105,677.5174,598.1579,677.4172,608.1053,677.6277,618.0526,677.6883,628,678.0348,637.9474,678.1202,647.8947,678.1284,657.8421,677.7038,667.7895,677.9127,677.7368,678.1514,687.6842,676.728,697.6316,678.1277,707.5789,677.1527,717.5263,677.983,727.4737,676.9541,737.4211,677.3807,747.3684,678.1908,757.3158,677.4004,767.2632,677.5545,777.2105,677.7878,787.1579,677.8654,797.1053,677.4453,807.0526,677.7364,817,677.4492,816.8498,677.3315,819.4746,680.5706,821.9438,683.6878,824.3166,686.7295,826.7608,689.8271,829,692.7641,828.8732,692.6648,826.4289,695.693,824.037,698.7623,821.7846,701.9409,819.3484,704.9756,817,708.079,817,708.7604,807.0526,707.9043,797.1053,707.7359,787.1579,708.3073,777.2105,707.4122,767.2632,707.5599,757.3158,708.7279,747.3684,708.5147,737.4211,708.8135,727.4737,707.7572,717.5263,708.3982,707.5789,708.6694,697.6316,707.6066,687.6842,707.9831,677.7368,708.205,667.7895,708.7308,657.8421,708.0748,647.8947,708.5416,637.9474,707.5252,628,707.4017,618.0526,708.5826,608.1053,707.3621,598.1579,708.588,588.2105,708.2856,578.2632,707.8111,568.3158,707.7252,558.3684,708.5378,548.4211,707.7797,538.4737,708.6709,528.5263,707.5262,518.5789,708.6964,508.6316,708.5633,498.6842,708.324,488.7368,708.1262,478.7895,708.8056,468.8421,708.6926,458.8947,708.2482,448.9474,708.3472,439,708.079,438.9658,708.0522,436.788,705.1633,434.2406,701.9849,431.8453,698.9255,429.2404,695.702,427,692.7641,426.8937,692.6808,429.5393,689.8102,431.9128,686.7265,434.1887,683.5663,436.5155,680.4459,439,677.4492" style="stroke:#181818;stroke-width:0.5;"/><text fill="#000000" font-family="Chalkduster" font-size="24" lengthAdjust="spacing" textLength="42" x="632" y="731.9199">yes</text><text fill="#000000" font-family="Chalkduster" font-size="24" lengthAdjust="spacing" textLength="378" x="439" y="701.29">You have Open Access Data</text><polygon fill="#F1F1F1" points="628,982.126,628.0495,982.1755,630.3023,984.4283,632.8456,986.9715,635.2942,989.4202,637.4319,991.5578,640,994.126,639.9817,994.1076,637.4995,996.4254,635.1096,998.8356,632.7839,1001.3099,630.237,1003.563,628,1006.126,628.1305,1006.2564,625.4514,1003.5774,623.1534,1001.2793,620.9018,999.0278,618.3798,996.5057,616,994.126,616.0161,994.142,618.3925,991.7184,620.8421,989.368,623.2564,986.9823,625.738,984.664,628,982.126" style="stroke:#181818;stroke-width:0.5;"/><polygon fill="#F1F1F1" points="298.5,1036.7298,298.5,1036.94,308.4848,1036.3155,318.4697,1036.9231,328.4545,1037.1295,338.4394,1036.0164,348.4242,1036.6521,358.4091,1036.3033,368.3939,1036.3463,378.3788,1036.6617,388.3636,1036.0384,398.3485,1037.2835,408.3333,1036.0995,418.3182,1036.5321,428.303,1037.1618,438.2879,1036.644,448.2727,1036.7981,458.2576,1036.6979,468.2424,1036.9083,478.2273,1036.969,488.2121,1037.3155,498.197,1037.4009,508.1818,1037.4091,518.1667,1036.9844,528.1515,1037.1934,538.1364,1037.432,548.1212,1036.0086,558.1061,1037.4083,568.0909,1036.4333,578.0758,1037.2636,588.0606,1036.2348,598.0455,1036.6613,608.0303,1037.4714,618.0152,1036.6811,628,1036.8351,637.9848,1037.0684,647.9697,1037.146,657.9545,1036.7259,667.9394,1037.017,677.9242,1036.1574,687.9091,1037.0142,697.8939,1037.278,707.8788,1037.1744,717.8636,1037.3428,727.8485,1036.2467,737.8333,1036.0776,747.8182,1036.1084,757.803,1036.6709,767.7879,1036.5333,777.7727,1037.4112,787.7576,1036.5551,797.7424,1036.3868,807.7273,1036.9581,817.7121,1036.063,827.697,1036.2107,837.6818,1037.3788,847.6667,1037.1655,857.6515,1037.4643,867.6364,1036.408,877.6212,1037.049,887.6061,1037.3202,897.5909,1036.2574,907.5758,1036.634,917.5606,1036.8558,927.5455,1037.3816,937.5303,1036.7256,947.5152,1037.1924,957.5,1036.7298,957.3547,1036.616,959.7223,1039.6536,962.4321,1042.9593,964.5119,1045.7714,967.2335,1049.0864,969.5,1052.0447,969.5542,1052.0872,967.0297,1055.0526,964.6072,1058.098,962.4204,1061.328,959.8215,1064.2351,957.5,1067.3597,957.5,1067.9515,947.5152,1066.8069,937.5303,1067.9771,927.5455,1067.844,917.5606,1067.6046,907.5758,1067.4069,897.5909,1068.0863,887.6061,1067.9732,877.6212,1067.5289,867.6364,1067.6278,857.6515,1067.2294,847.6667,1068.0761,837.6818,1067.5145,827.697,1067.5322,817.7121,1066.7513,807.7273,1066.9544,797.7424,1067.8904,787.7576,1067.7894,777.7727,1067.3167,767.7879,1067.0375,757.803,1067.1407,747.8182,1066.6735,737.8333,1067.7744,727.8485,1068.0992,717.8636,1067.886,707.8788,1068.0546,697.8939,1067.2229,687.9091,1067.4469,677.9242,1066.9721,667.9394,1067.6437,657.9545,1067.6064,647.9697,1067.912,637.9848,1067.13,628,1067.2252,618.0152,1067.8031,608.0303,1067.927,598.0455,1066.8471,588.0606,1067.1658,578.0758,1067.5089,568.0909,1066.7488,558.1061,1067.713,548.1212,1067.6176,538.1364,1067.2589,528.1515,1067.5019,518.1667,1068.0883,508.1818,1067.0468,498.197,1067.6746,488.2121,1067.6453,478.2273,1067.4754,468.2424,1067.5006,458.2576,1067.4731,448.2727,1066.7355,438.2879,1066.9588,428.303,1066.8981,418.3182,1067.4235,408.3333,1067.4478,398.3485,1067.5214,388.3636,1067.0687,378.3788,1067.2921,368.3939,1067.2394,358.4091,1067.9365,348.4242,1067.7862,338.4394,1066.8741,328.4545,1067.2867,318.4697,1066.7824,308.4848,1067.648,298.5,1067.3597,298.6597,1067.4847,296.2429,1064.4086,293.5857,1061.1441,291.4217,1058.2661,288.7051,1054.955,286.5,1052.0447,286.5525,1052.0859,288.8215,1048.9202,291.3254,1045.9387,293.7631,1042.9052,296.2239,1039.8899,298.5,1036.7298" style="stroke:#181818;stroke-width:0.5;"/><text fill="#000000" font-family="Chalkduster" font-size="24" lengthAdjust="spacing" textLength="659" x="298.5" y="1060.5707">You have project funding or eResearch Support</text><text fill="#000000" font-family="Chalkduster" font-size="24" lengthAdjust="spacing" textLength="42" x="244.5" y="1045.2558">yes</text><text fill="#000000" font-family="Chalkduster" font-size="24" lengthAdjust="spacing" textLength="35" x="969.5" y="1045.2558">no</text><polygon fill="#F1F1F1" points="96,1077.3597,96,1077.5698,106.0278,1076.9453,116.0556,1077.5529,126.0833,1077.7593,136.1111,1076.6463,146.1389,1077.2819,156.1667,1076.9332,166.1944,1076.9762,176.2222,1077.2915,186.25,1076.6683,196.2778,1077.9133,206.3056,1076.7294,216.3333,1077.1619,226.3611,1077.7916,236.3889,1077.2739,246.4167,1077.4279,256.4444,1077.3277,266.4722,1077.5382,276.5,1077.5988,286.5278,1077.9453,296.5556,1078.0307,306.5833,1078.0389,316.6111,1077.6143,326.6389,1077.8232,336.6667,1078.0619,346.6944,1076.6385,356.7222,1078.0382,366.75,1077.0631,376.7778,1077.8935,386.8056,1076.8646,396.8333,1077.2912,406.8611,1078.1013,416.8889,1077.3109,426.9167,1077.465,436.9444,1077.6983,446.9722,1077.7759,457,1077.3597,456.9995,1077.3584,458.8044,1078.1803,460.4625,1078.6478,462.3396,1079.6439,464.141,1080.4574,465.8388,1081.0208,465.9757,1081.0775,466.7599,1082.8668,467.1545,1084.4947,467.8347,1086.2409,468.5764,1088.0126,469.5,1089.8597,469.4411,1089.8597,469.3035,1099.2363,470.1814,1108.6129,469.3253,1117.9895,469.1569,1127.3661,469.7283,1136.7427,469.5,1146.1193,469.2946,1146.0343,468.6079,1147.8209,468.2354,1149.7376,467.4375,1151.4782,466.7973,1153.2841,465.8388,1154.9582,465.7978,1154.8591,464.1118,1155.7887,462.3786,1156.6044,460.4753,1157.0094,458.7555,1157.8576,457,1158.6193,457,1158.7453,446.9722,1159.2711,436.9444,1158.6151,426.9167,1159.0819,416.8889,1158.0655,406.8611,1157.9421,396.8333,1159.1229,386.8056,1157.9024,376.7778,1159.1283,366.75,1158.8259,356.7222,1158.3514,346.6944,1158.2655,336.6667,1159.0781,326.6389,1158.32,316.6111,1159.2112,306.5833,1158.0666,296.5556,1159.2367,286.5278,1159.1036,276.5,1158.8643,266.4722,1158.6665,256.4444,1159.3459,246.4167,1159.2329,236.3889,1158.7886,226.3611,1158.8875,216.3333,1158.4891,206.3056,1159.3358,196.2778,1158.7742,186.25,1158.7919,176.2222,1158.011,166.1944,1158.2141,156.1667,1159.1501,146.1389,1159.0491,136.1111,1158.5764,126.0833,1158.2971,116.0556,1158.4004,106.0278,1157.9331,96,1158.6193,96.0529,1158.747,94.3266,1158.1148,92.5316,1157.317,90.7853,1156.6366,88.9115,1155.6483,87.1612,1154.9582,87.188,1154.9693,86.3096,1153.1409,85.7842,1151.4589,85.0405,1149.6863,84.4023,1147.9575,83.5,1146.1193,83.2703,1146.1193,83.3656,1136.7427,83.9435,1127.3661,84.0673,1117.9895,82.9875,1108.6129,83.3061,1099.2363,83.5,1089.8597,83.546,1089.8787,84.0441,1088.014,85.0733,1086.3692,85.7761,1084.5893,86.3979,1082.7757,87.1612,1081.0208,87.1793,1081.0646,89.0219,1080.513,90.6568,1079.46,92.5046,1078.9211,94.2687,1078.1799,96,1077.3597" style="stroke:#181818;stroke-width:0.5;"/><text fill="#000000" font-family="Chalkduster" font-size="24" lengthAdjust="spacing" textLength="202" x="93.5" y="1111.2005">Start a project</text><text fill="#000000" font-family="Chalkduster" font-size="24" lengthAdjust="spacing" textLength="366" x="93.5" y="1141.8304">(Follow PILARS Protocols)</text><polygon fill="none" points="287.5608,1207.295,285.9484,1209.4981,284.0412,1212.725,281.3136,1214.8997,278.4474,1216.0889,276.162,1216.1921,273.2247,1214.7049,270.4532,1213.7332,268.3495,1211.7605,267.2461,1209.5021,266.5917,1207.7039,265.9506,1205.355,264.91,1203.3338,265.7096,1201.3603,266.4102,1199.1985,269.0393,1197.4888,270.889,1195.2704,273.1784,1194.5338,275.9001,1193.8994,279.3904,1194.2763,281.3021,1195.1778,283.5247,1195.5865,286.2272,1198.3553,287.1693,1201.2783,287.5786,1203.2727,287.115,1206.5592" style="stroke:#222222;stroke-width:1.0;"/><polygon fill="#222222" points="282.5331,1206.0788,281.6536,1207.2805,280.6134,1209.0406,279.1256,1210.2268,277.5622,1210.8755,276.3156,1210.9318,274.7135,1210.1205,273.2017,1209.5905,272.0543,1208.5145,271.4524,1207.2826,271.0955,1206.3018,270.7458,1205.0206,270.1782,1203.9181,270.6143,1202.8417,270.9965,1201.6625,272.4305,1200.7299,273.4394,1199.5199,274.6882,1199.1181,276.1728,1198.7721,278.0766,1198.9777,279.1193,1199.4694,280.3317,1199.6923,281.8057,1201.2026,282.3196,1202.7969,282.5429,1203.8848,282.29,1205.6774" style="stroke:#222222;stroke-width:1.0;"/><polygon fill="#F1F1F1" points="662.5,1077.3597,662.5,1077.5698,672.5635,1076.9453,682.627,1077.5529,692.6905,1077.7593,702.754,1076.6463,712.8175,1077.2819,722.881,1076.9332,732.9444,1076.9762,743.0079,1077.2915,753.0714,1076.6683,763.1349,1077.9133,773.1984,1076.7294,783.2619,1077.1619,793.3254,1077.7916,803.3889,1077.2739,813.4524,1077.4279,823.5159,1077.3277,833.5794,1077.5382,843.6429,1077.5988,853.7063,1077.9453,863.7698,1078.0307,873.8333,1078.0389,883.8968,1077.6143,893.9603,1077.8232,904.0238,1078.0619,914.0873,1076.6385,924.1508,1078.0382,934.2143,1077.0631,944.2778,1077.8935,954.3413,1076.8646,964.4048,1077.2912,974.4683,1078.1013,984.5317,1077.3109,994.5952,1077.465,1004.6587,1077.6983,1014.7222,1077.7759,1024.7857,1077.3557,1034.8492,1077.6469,1044.9127,1076.7872,1054.9762,1077.644,1065.0397,1077.9078,1075.1032,1077.8042,1085.1667,1077.9727,1095.2302,1076.8766,1105.2937,1076.7075,1115.3571,1076.7383,1125.4206,1077.3008,1135.4841,1077.1631,1145.5476,1078.0411,1155.6111,1077.185,1165.6746,1077.0166,1175.7381,1077.5879,1185.8016,1076.6928,1195.8651,1076.8405,1205.9286,1078.0086,1215.9921,1077.7953,1226.0556,1078.0941,1236.119,1077.0379,1246.1825,1077.6788,1256.246,1077.9501,1266.3095,1076.8872,1276.373,1077.2638,1286.4365,1077.4856,1296.5,1077.3597,1296.5831,1077.5604,1298.2672,1078.0906,1300.0945,1078.9666,1301.7327,1079.3858,1303.4847,1080.08,1305.3388,1081.0208,1305.4939,1081.0851,1305.8503,1082.6971,1306.96,1084.6213,1307.5992,1086.3505,1308.1853,1088.0577,1309,1089.8597,1308.6462,1089.8597,1309.4588,1099.514,1308.7007,1109.1684,1309.5919,1118.8228,1308.4473,1128.4772,1309.6174,1138.1316,1309.4843,1147.786,1309.245,1157.4404,1309.0472,1167.0948,1309,1176.7492,1309.2238,1176.8418,1308.4567,1178.5952,1307.5877,1180.3063,1306.8859,1182.0867,1306.031,1183.8036,1305.3388,1185.588,1305.4302,1185.8086,1303.5908,1186.3679,1301.8253,1187.1056,1299.9579,1187.5973,1298.2161,1188.3921,1296.5,1189.2492,1296.5,1189.7799,1286.4365,1189.6789,1276.373,1189.2062,1266.3095,1188.927,1256.246,1189.0302,1246.1825,1188.563,1236.119,1189.6639,1226.0556,1189.9887,1215.9921,1189.7755,1205.9286,1189.9441,1195.8651,1189.1124,1185.8016,1189.3364,1175.7381,1188.8616,1165.6746,1189.5332,1155.6111,1189.4959,1145.5476,1189.8015,1135.4841,1189.0195,1125.4206,1189.1147,1115.3571,1189.6926,1105.2937,1189.8165,1095.2302,1188.7366,1085.1667,1189.0553,1075.1032,1189.3984,1065.0397,1188.6383,1054.9762,1189.6025,1044.9127,1189.5071,1034.8492,1189.1484,1024.7857,1189.3914,1014.7222,1189.9778,1004.6587,1188.9363,994.5952,1189.5641,984.5317,1189.5348,974.4683,1189.3649,964.4048,1189.3901,954.3413,1189.3626,944.2778,1188.625,934.2143,1188.8483,924.1508,1188.7876,914.0873,1189.313,904.0238,1189.3373,893.9603,1189.4109,883.8968,1188.9582,873.8333,1189.1816,863.7698,1189.1289,853.7063,1189.826,843.6429,1189.6757,833.5794,1188.7636,823.5159,1189.1762,813.4524,1188.6719,803.3889,1189.5375,793.3254,1189.8576,783.2619,1189.7937,773.1984,1188.8136,763.1349,1189.7131,753.0714,1188.5063,743.0079,1189.4493,732.9444,1188.9498,722.881,1189.3459,712.8175,1189.4895,702.754,1189.7213,692.6905,1188.5292,682.627,1189.7246,672.5635,1189.4273,662.5,1189.2492,662.5453,1189.3586,660.8276,1188.7472,658.9652,1187.7864,657.2191,1187.1064,655.4562,1186.3859,653.6612,1185.588,653.7219,1185.6131,652.9287,1183.8201,652.4156,1182.1431,651.2767,1180.2069,650.9063,1178.589,650,1176.7492,649.376,1176.7492,649.4597,1167.0948,650.04,1157.4404,650.0283,1147.786,649.5072,1138.1316,650.4137,1128.4772,650.1089,1118.8228,650.7267,1109.1684,650.6671,1099.514,650,1089.8597,649.862,1089.8025,650.6097,1088.0411,651.4247,1086.3076,652.3062,1084.6017,653.053,1082.84,653.6612,1081.0208,653.6996,1081.1136,655.3853,1080.1833,657.2779,1079.7523,659.0453,1079.0193,660.7262,1078.0773,662.5,1077.3597" style="stroke:#181818;stroke-width:0.5;"/><text fill="#000000" font-family="Chalkduster" font-size="24" lengthAdjust="spacing" textLength="627" x="672" y="1111.2005">Follow PILARS advice about organizing data</text><text fill="#000000" font-family="Chalkduster" font-size="24" lengthAdjust="spacing" textLength="391" x="660" y="1141.8304">on raw institutional storage</text><text fill="#000000" font-family="Chalkduster" font-size="24" lengthAdjust="spacing" textLength="293" x="660" y="1172.4602">(Use the the R: Drive)</text><polygon fill="none" points="990.5608,1237.9248,988.9484,1240.1279,987.0412,1243.3549,984.3136,1245.5295,981.4474,1246.7188,979.162,1246.822,976.2247,1245.3347,973.4532,1244.3631,971.3495,1242.3903,970.2461,1240.1319,969.5917,1238.3337,968.9506,1235.9849,967.91,1233.9636,968.7096,1231.9902,969.4102,1229.8284,972.0393,1228.1186,973.889,1225.9002,976.1784,1225.1636,978.9001,1224.5292,982.3904,1224.9061,984.3021,1225.8077,986.5247,1226.2163,989.2272,1228.9851,990.1693,1231.9081,990.5786,1233.9025,990.115,1237.189" style="stroke:#222222;stroke-width:1.0;"/><polygon fill="#222222" points="985.5331,1236.7086,984.6536,1237.9103,983.6134,1239.6704,982.1256,1240.8566,980.5622,1241.5053,979.3156,1241.5616,977.7135,1240.7504,976.2017,1240.2204,975.0543,1239.1443,974.4524,1237.9125,974.0955,1236.9316,973.7458,1235.6504,973.1782,1234.548,973.6143,1233.4715,973.9965,1232.2924,975.4305,1231.3598,976.4394,1230.1497,977.6882,1229.7479,979.1728,1229.4019,981.0766,1229.6075,982.1193,1230.0993,983.3317,1230.3222,984.8057,1231.8324,985.3196,1233.4268,985.5429,1234.5146,985.29,1236.3073" style="stroke:#222222;stroke-width:1.0;"/><path d="M628,365.3812 L628.0934,365.3812 L627.8159,369.3812 L628.0859,373.3812 L628.1776,377.3812 L627.6829,381.3812 L628,385.3812 " fill="#8B0000" style="stroke:#8B0000;stroke-width:4.0;"/><polygon fill="#8B0000" points="624,375.3812,624.065,375.4072,624.6718,377.3299,625.6598,379.4051,626.5237,381.4307,626.9792,383.2929,628,385.3812,627.9759,385.3716,628.668,383.3284,629.4813,381.3337,630.3789,379.3728,630.986,377.2956,632,375.3812,632.1305,375.5117,631.0514,376.0327,630.3534,376.9346,629.7018,377.883,628.7798,378.561,628,379.3812,628.0161,379.3973,627.1925,378.5737,626.4421,377.8233,625.6564,377.0376,624.938,376.3193,624,375.3812" style="stroke:#8B0000;stroke-width:1.0;"/><path d="M628,281.4365 L628.0934,281.4365 L627.8159,288.0994 L628.0859,294.7624 L628.1776,301.4254 L627.6829,308.0884 L628,314.7514 " fill="#8B0000" style="stroke:#8B0000;stroke-width:4.0;"/><polygon fill="#8B0000" points="624,304.7514,624.065,304.7774,624.6718,306.7001,625.6598,308.7753,626.5237,310.8009,626.9792,312.6631,628,314.7514,627.9759,314.7418,628.668,312.6986,629.4813,310.7039,630.3789,308.7429,630.986,306.6658,632,304.7514,632.1305,304.8819,631.0514,305.4028,630.3534,306.3048,629.7018,307.2532,628.7798,307.9312,628,308.7514,628.0161,308.7675,627.1925,307.9438,626.4421,307.1935,625.6564,306.4077,624.938,305.6894,624,304.7514" style="stroke:#8B0000;stroke-width:1.0;"/><path d="M798,266.1215 L798,266.215 L800.4,265.9374 L802.8,266.2074 L805.2,266.2992 L807.6,265.8045 L810,266.1215 " fill="#8B0000" style="stroke:#8B0000;stroke-width:4.0;"/><polygon fill="#8B0000" points="806,353.9088,806.065,353.9349,806.6718,355.8575,807.6598,357.9328,808.5237,359.9583,808.9792,361.8205,810,363.9088,809.9759,363.8992,810.668,361.856,811.4813,359.8614,812.3789,357.9004,812.986,355.8232,814,353.9088,814.1305,354.0393,813.0514,354.5603,812.3534,355.4622,811.7018,356.4106,810.7798,357.0886,810,357.9088,810.0161,357.9249,809.1925,357.1013,808.4421,356.3509,807.6564,355.5652,806.938,354.8469,806,353.9088" style="stroke:#8B0000;stroke-width:4.0;"/><path d="M810,266.1215 L810.2802,266.1215 L809.4476,276.3253 L810.2577,286.529 L810.5329,296.7327 L809.0488,306.9365 L809.8964,317.1402 L809.4313,327.3439 L809.4887,337.5476 L809.9091,347.7514 L809.0782,357.9551 L810.7382,368.1588 L809.1596,378.3626 L809.7363,388.5663 L810.5759,398.77 L809.8856,408.9738 L810.091,419.1775 L810,429.3812 " fill="#8B0000" style="stroke:#8B0000;stroke-width:4.0;"/><path d="M810,429.3812 L810,429.6615 L799.8889,428.8288 L789.7778,429.6389 L779.6667,429.9141 L769.5556,428.43 L759.4444,429.2776 L749.3333,428.8126 L739.2222,428.8699 L729.1111,429.2903 L719,428.4594 L708.8889,430.1194 L698.7778,428.5408 L688.6667,429.1175 L678.5556,429.9571 L668.4444,429.2668 L658.3333,429.4722 L648.2222,429.3386 L638.1111,429.6192 L628,429.3812 " fill="#8B0000" style="stroke:#8B0000;stroke-width:4.0;"/><path d="M628,429.3812 L628.0934,429.3812 L627.8159,433.3812 L628.0859,437.3812 L628.1776,441.3812 L627.6829,445.3812 L628,449.3812 " fill="#8B0000" style="stroke:#8B0000;stroke-width:4.0;"/><polygon fill="#8B0000" points="624,439.3812,624.065,439.4072,624.6718,441.3299,625.6598,443.4051,626.5237,445.4307,626.9792,447.2929,628,449.3812,627.9759,449.3716,628.668,447.3284,629.4813,445.3337,630.3789,443.3728,630.986,441.2956,632,439.3812,632.1305,439.5117,631.0514,440.0327,630.3534,440.9346,629.7018,441.883,628.7798,442.561,628,443.3812,628.0161,443.3973,627.1925,442.5737,626.4421,441.8233,625.6564,441.0376,624.938,440.3193,624,439.3812" style="stroke:#8B0000;stroke-width:1.0;"/><path d="M628,217.4917 L628.0934,217.4917 L627.8159,224.1547 L628.0859,230.8177 L628.1776,237.4807 L627.6829,244.1436 L628,250.8066 " fill="#8B0000" style="stroke:#8B0000;stroke-width:4.0;"/><polygon fill="#8B0000" points="624,240.8066,624.065,240.8326,624.6718,242.7553,625.6598,244.8306,626.5237,246.8561,626.9792,248.7183,628,250.8066,627.9759,250.797,628.668,248.7538,629.4813,246.7592,630.3789,244.7982,630.986,242.721,632,240.8066,632.1305,240.9371,631.0514,241.4581,630.3534,242.36,629.7018,243.3084,628.7798,243.9864,628,244.8066,628.0161,244.8227,627.1925,243.9991,626.4421,243.2487,625.6564,242.463,624.938,241.7447,624,240.8066" style="stroke:#8B0000;stroke-width:1.0;"/><path d="M1026.5,186.8619 L1026.5,186.9553 L1028.9,186.6777 L1031.3,186.9478 L1033.7,187.0395 L1036.1,186.5448 L1038.5,186.8619 " fill="#8B0000" style="stroke:#8B0000;stroke-width:4.0;"/><polygon fill="#8B0000" points="1034.5,336.9365,1034.565,336.9625,1035.1718,338.8852,1036.1598,340.9604,1037.0237,342.9859,1037.4792,344.8481,1038.5,346.9365,1038.4759,346.9268,1039.168,344.8837,1039.9813,342.889,1040.8789,340.928,1041.486,338.8509,1042.5,336.9365,1042.6305,337.067,1041.5514,337.5879,1040.8534,338.4898,1040.2018,339.4383,1039.2798,340.1162,1038.5,340.9365,1038.5161,340.9525,1037.6925,340.1289,1036.9421,339.3785,1036.1564,338.5928,1035.438,337.8745,1034.5,336.9365" style="stroke:#8B0000;stroke-width:4.0;"/><path d="M1038.5,186.8619 L1038.7802,186.8619 L1037.9476,197.0293 L1038.7577,207.1966 L1039.0329,217.364 L1037.5488,227.5314 L1038.3964,237.6988 L1037.9313,247.8662 L1037.9887,258.0336 L1038.4091,268.2009 L1037.5782,278.3683 L1039.2382,288.5357 L1037.6596,298.7031 L1038.2363,308.8705 L1039.0759,319.0379 L1038.3856,329.2052 L1038.591,339.3726 L1038.4574,349.54 L1038.738,359.7074 L1038.8188,369.8748 L1039.2809,380.0421 L1039.3947,390.2095 L1039.4057,400.3769 L1038.8395,410.5443 L1039.1181,420.7117 L1039.4363,430.8791 L1037.5384,441.0464 L1039.4047,451.2138 L1038.5,461.3812 " fill="#8B0000" style="stroke:#8B0000;stroke-width:4.0;"/><path d="M1038.5,461.3812 L1038.5,461.6615 L1028.5375,460.8288 L1018.575,461.6389 L1008.6125,461.9141 L998.65,460.43 L988.6875,461.2776 L978.725,460.8126 L968.7625,460.8699 L958.8,461.2903 L948.8375,460.4594 L938.875,462.1194 L928.9125,460.5408 L918.95,461.1175 L908.9875,461.9571 L899.025,461.2668 L889.0625,461.4722 L879.1,461.3386 L869.1375,461.6192 L859.175,461.7001 L849.2125,462.1621 L839.25,462.2759 L829.2875,462.2869 L819.325,461.7207 L809.3625,461.9993 L799.4,462.3175 L789.4375,460.4196 L779.475,462.2859 L769.5125,460.9859 L759.55,462.093 L749.5875,460.7212 L739.625,461.2899 L729.6625,462.37 L719.7,461.3162 L709.7375,461.5216 L699.775,461.8327 L689.8125,461.9362 L679.85,461.376 L669.8875,461.7642 L659.925,460.618 L649.9625,461.7604 L640,461.3812 " fill="#8B0000" style="stroke:#8B0000;stroke-width:4.0;"/><polygon fill="#8B0000" points="650,457.3812,650.026,457.4463,647.9487,458.053,646.0239,459.041,644.0495,459.9049,641.9117,460.3604,640,461.3812,639.9904,461.3572,641.9472,462.0492,643.9525,462.8625,645.9916,463.7601,647.9144,464.3672,650,465.3812,650.1305,465.5117,649.0514,464.4327,648.3534,463.7346,647.7018,463.083,646.7798,462.161,646,461.3812,646.0161,461.3973,646.7925,460.5737,647.6421,459.8233,648.4564,459.0376,649.338,458.3193,650,457.3812" style="stroke:#8B0000;stroke-width:1.0;"/><path d="M628,136.232 L628.0934,136.232 L627.8159,140.232 L628.0859,144.232 L628.1776,148.232 L627.6829,152.232 L628,156.232 " fill="#8B0000" style="stroke:#8B0000;stroke-width:4.0;"/><polygon fill="#8B0000" points="624,146.232,624.065,146.2581,624.6718,148.1808,625.6598,150.256,626.5237,152.2815,626.9792,154.1437,628,156.232,627.9759,156.2224,628.668,154.1792,629.4813,152.1846,630.3789,150.2236,630.986,148.1465,632,146.232,632.1305,146.3625,631.0514,146.8835,630.3534,147.7854,629.7018,148.7339,628.7798,149.4118,628,150.232,628.0161,150.2481,627.1925,149.4245,626.4421,148.6741,625.6564,147.8884,624.938,147.1701,624,146.232" style="stroke:#8B0000;stroke-width:1.0;"/><path d="M284.5,832.6536 L284.5934,832.6536 L284.3159,839.6536 L284.5859,846.6536 L284.6776,853.6536 L284.1829,860.6536 L284.5,867.6536 " fill="#8B0000" style="stroke:#8B0000;stroke-width:4.0;"/><polygon fill="#8B0000" points="280.5,857.6536,280.565,857.6796,281.1718,859.6023,282.1598,861.6775,283.0237,863.7031,283.4792,865.5653,284.5,867.6536,284.4759,867.644,285.168,865.6008,285.9813,863.6061,286.8789,861.6451,287.486,859.568,288.5,857.6536,288.6305,857.7841,287.5514,858.305,286.8534,859.207,286.2018,860.1554,285.2798,860.8334,284.5,861.6536,284.5161,861.6697,283.6925,860.846,282.9421,860.0957,282.1564,859.3099,281.438,858.5916,280.5,857.6536" style="stroke:#8B0000;stroke-width:1.0;"/><path d="M971.5,896.5983 L971.5934,896.5983 L971.3159,900.9039 L971.5859,905.2094 L971.6776,909.5149 L971.1829,913.8204 L971.5,918.126 " fill="#8B0000" style="stroke:#8B0000;stroke-width:4.0;"/><polygon fill="#8B0000" points="967.5,908.126,967.565,908.152,968.1718,910.0747,969.1598,912.1499,970.0237,914.1754,970.4792,916.0376,971.5,918.126,971.4759,918.1163,972.168,916.0732,972.9813,914.0785,973.8789,912.1175,974.486,910.0404,975.5,908.126,975.6305,908.2564,974.5514,908.7774,973.8534,909.6793,973.2018,910.6278,972.2798,911.3057,971.5,912.126,971.5161,912.142,970.6925,911.3184,969.9421,910.568,969.1564,909.7823,968.438,909.064,967.5,908.126" style="stroke:#8B0000;stroke-width:1.0;"/><path d="M971.5,812.6536 L971.5934,812.6536 L971.3159,819.3166 L971.5859,825.9795 L971.6776,832.6425 L971.1829,839.3055 L971.5,845.9685 " fill="#8B0000" style="stroke:#8B0000;stroke-width:4.0;"/><polygon fill="#8B0000" points="967.5,835.9685,967.565,835.9945,968.1718,837.9172,969.1598,839.9924,970.0237,842.018,970.4792,843.8802,971.5,845.9685,971.4759,845.9589,972.168,843.9157,972.9813,841.921,973.8789,839.9601,974.486,837.8829,975.5,835.9685,975.6305,836.099,974.5514,836.6199,973.8534,837.5219,973.2018,838.4703,972.2798,839.1483,971.5,839.9685,971.5161,839.9846,970.6925,839.161,969.9421,838.4106,969.1564,837.6249,968.438,836.9065,967.5,835.9685" style="stroke:#8B0000;stroke-width:1.0;"/><path d="M1222,797.3387 L1222,797.4321 L1224.4,797.1545 L1226.8,797.4246 L1229.2,797.5163 L1231.6,797.0216 L1234,797.3387 " fill="#8B0000" style="stroke:#8B0000;stroke-width:4.0;"/><polygon fill="#8B0000" points="1230,888.126,1230.065,888.152,1230.6718,890.0747,1231.6598,892.1499,1232.5237,894.1754,1232.9792,896.0376,1234,898.126,1233.9759,898.1163,1234.668,896.0732,1235.4813,894.0785,1236.3789,892.1175,1236.986,890.0404,1238,888.126,1238.1305,888.2564,1237.0514,888.7774,1236.3534,889.6793,1235.7018,890.6278,1234.7798,891.3057,1234,892.126,1234.0161,892.142,1233.1925,891.3184,1232.4421,890.568,1231.6564,889.7823,1230.938,889.064,1230,888.126" style="stroke:#8B0000;stroke-width:4.0;"/><path d="M1234,797.3387 L1234.2802,797.3387 L1233.4476,807.3261 L1234.2577,817.3136 L1234.5329,827.3011 L1233.0488,837.2886 L1233.8964,847.2761 L1233.4313,857.2636 L1233.4887,867.2511 L1233.9091,877.2386 L1233.0782,887.226 L1234.7382,897.2135 L1233.1596,907.201 L1233.7363,917.1885 L1234.5759,927.176 L1233.8856,937.1635 L1234.091,947.151 L1233.9574,957.1385 L1234,967.126 " fill="#8B0000" style="stroke:#8B0000;stroke-width:4.0;"/><path d="M1234,967.126 L1234,967.4062 L1224.0656,966.5735 L1214.1311,967.3837 L1204.1967,967.6589 L1194.2623,966.1748 L1184.3279,967.0223 L1174.3934,966.5573 L1164.459,966.6146 L1154.5246,967.0351 L1144.5902,966.2041 L1134.6557,967.8641 L1124.7213,966.2856 L1114.7869,966.8623 L1104.8525,967.7019 L1094.918,967.0116 L1084.9836,967.2169 L1075.0492,967.0834 L1065.1148,967.364 L1055.1803,967.4448 L1045.2459,967.9069 L1035.3115,968.0207 L1025.377,968.0316 L1015.4426,967.4655 L1005.5082,967.7441 L995.5738,968.0623 L985.6393,966.1644 L975.7049,968.0306 L965.7705,966.7306 L955.8361,967.8377 L945.9016,966.4659 L935.9672,967.0346 L926.0328,968.1148 L916.0984,967.061 L906.1639,967.2664 L896.2295,967.5775 L886.2951,967.6809 L876.3607,967.1207 L866.4262,967.5089 L856.4918,966.3627 L846.5574,967.5051 L836.623,967.8569 L826.6885,967.7187 L816.7541,967.9433 L806.8197,966.4818 L796.8852,966.2564 L786.9508,966.2974 L777.0164,967.0474 L767.082,966.8639 L757.1475,968.0345 L747.2131,966.893 L737.2787,966.6685 L727.3443,967.4303 L717.4098,966.2368 L707.4754,966.4338 L697.541,967.9912 L687.6066,967.7068 L677.6721,968.1053 L667.7377,966.6969 L657.8033,967.5515 L647.8689,967.9132 L637.9344,966.4961 L628,967.126 " fill="#8B0000" style="stroke:#8B0000;stroke-width:4.0;"/><path d="M628,967.126 L628.0934,967.126 L627.8159,970.126 L628.0859,973.126 L628.1776,976.126 L627.6829,979.126 L628,982.126 " fill="#8B0000" style="stroke:#8B0000;stroke-width:4.0;"/><polygon fill="#8B0000" points="624,972.126,624.065,972.152,624.6718,974.0747,625.6598,976.1499,626.5237,978.1754,626.9792,980.0376,628,982.126,627.9759,982.1163,628.668,980.0732,629.4813,978.0785,630.3789,976.1175,630.986,974.0404,632,972.126,632.1305,972.2564,631.0514,972.7774,630.3534,973.6793,629.7018,974.6278,628.7798,975.3057,628,976.126,628.0161,976.142,627.1925,975.3184,626.4421,974.568,625.6564,973.7823,624.938,973.064,624,972.126" style="stroke:#8B0000;stroke-width:1.0;"/><path d="M294.5,756.7088 L294.5,756.8022 L292.5,756.5247 L290.5,756.7947 L288.5,756.8865 L286.5,756.3918 L284.5,756.7088 " fill="#8B0000" style="stroke:#8B0000;stroke-width:4.0;"/><path d="M284.5,756.7088 L284.5934,756.7088 L284.3159,761.7718 L284.5859,766.8348 L284.6776,771.8978 L284.1829,776.9608 L284.5,782.0237 " fill="#8B0000" style="stroke:#8B0000;stroke-width:4.0;"/><polygon fill="#8B0000" points="280.5,772.0237,280.565,772.0498,281.1718,773.9725,282.1598,776.0477,283.0237,778.0732,283.4792,779.9354,284.5,782.0237,284.4759,782.0141,285.168,779.9709,285.9813,777.9763,286.8789,776.0153,287.486,773.9382,288.5,772.0237,288.6305,772.1542,287.5514,772.6752,286.8534,773.5771,286.2018,774.5256,285.2798,775.2035,284.5,776.0237,284.5161,776.0398,283.6925,775.2162,282.9421,774.4658,282.1564,773.6801,281.438,772.9618,280.5,772.0237" style="stroke:#8B0000;stroke-width:1.0;"/><path d="M961.5,756.7088 L961.5,756.8022 L963.5,756.5247 L965.5,756.7947 L967.5,756.8865 L969.5,756.3918 L971.5,756.7088 " fill="#8B0000" style="stroke:#8B0000;stroke-width:4.0;"/><path d="M971.5,756.7088 L971.5934,756.7088 L971.3159,761.7718 L971.5859,766.8348 L971.6776,771.8978 L971.1829,776.9608 L971.5,782.0237 " fill="#8B0000" style="stroke:#8B0000;stroke-width:4.0;"/><polygon fill="#8B0000" points="967.5,772.0237,967.565,772.0498,968.1718,773.9725,969.1598,776.0477,970.0237,778.0732,970.4792,779.9354,971.5,782.0237,971.4759,782.0141,972.168,779.9709,972.9813,777.9763,973.8789,776.0153,974.486,773.9382,975.5,772.0237,975.6305,772.1542,974.5514,772.6752,973.8534,773.5771,973.2018,774.5256,972.2798,775.2035,971.5,776.0237,971.5161,776.0398,970.6925,775.2162,969.9421,774.4658,969.1564,773.6801,968.438,772.9618,967.5,772.0237" style="stroke:#8B0000;stroke-width:1.0;"/><path d="M628,708.079 L628.0934,708.079 L627.8159,714.742 L628.0859,721.405 L628.1776,728.0679 L627.6829,734.7309 L628,741.3939 " fill="#8B0000" style="stroke:#8B0000;stroke-width:4.0;"/><polygon fill="#8B0000" points="624,731.3939,624.065,731.4199,624.6718,733.3426,625.6598,735.4178,626.5237,737.4434,626.9792,739.3056,628,741.3939,627.9759,741.3843,628.668,739.3411,629.4813,737.3464,630.3789,735.3855,630.986,733.3083,632,731.3939,632.1305,731.5244,631.0514,732.0454,630.3534,732.9473,629.7018,733.8957,628.7798,734.5737,628,735.3939,628.0161,735.41,627.1925,734.5864,626.4421,733.836,625.6564,733.0503,624.938,732.332,624,731.3939" style="stroke:#8B0000;stroke-width:1.0;"/><path d="M829,692.7641 L829,693.0443 L838.8837,692.2116 L848.7674,693.0218 L858.6512,693.297 L868.5349,691.8129 L878.4186,692.6605 L888.3023,692.1954 L898.186,692.2527 L908.0698,692.6732 L917.9535,691.8423 L927.8372,693.5023 L937.7209,691.9237 L947.6047,692.5004 L957.4884,693.34 L967.3721,692.6497 L977.2558,692.8551 L987.1395,692.7215 L997.0233,693.0021 L1006.907,693.0829 L1016.7907,693.545 L1026.6744,693.6588 L1036.5581,693.6698 L1046.4419,693.1036 L1056.3256,693.3822 L1066.2093,693.7004 L1076.093,691.8025 L1085.9767,693.6688 L1095.8605,692.3687 L1105.7442,693.4758 L1115.6279,692.104 L1125.5116,692.6727 L1135.3953,693.7529 L1145.2791,692.6991 L1155.1628,692.9045 L1165.0465,693.2156 L1174.9302,693.3191 L1184.814,692.7589 L1194.6977,693.147 L1204.5814,692.0009 L1214.4651,693.1433 L1224.3488,693.495 L1234.2326,693.3568 L1244.1163,693.5814 L1254,692.7641 " fill="#8B0000" style="stroke:#8B0000;stroke-width:4.0;"/><polygon fill="#8B0000" points="1250,858.4961,1250.065,858.5221,1250.6718,860.4448,1251.6598,862.52,1252.5237,864.5456,1252.9792,866.4078,1254,868.4961,1253.9759,868.4865,1254.668,866.4433,1255.4813,864.4486,1256.3789,862.4877,1256.986,860.4105,1258,858.4961,1258.1305,858.6266,1257.0514,859.1476,1256.3534,860.0495,1255.7018,860.9979,1254.7798,861.6759,1254,862.4961,1254.0161,862.5122,1253.1925,861.6886,1252.4421,860.9382,1251.6564,860.1525,1250.938,859.4342,1250,858.4961" style="stroke:#8B0000;stroke-width:4.0;"/><path d="M1254,692.7641 L1254.2802,692.7641 L1253.4476,702.8095 L1254.2577,712.8549 L1254.5329,722.9003 L1253.0488,732.9457 L1253.8964,742.9911 L1253.4313,753.0365 L1253.4887,763.0818 L1253.9091,773.1272 L1253.0782,783.1726 L1254.7382,793.218 L1253.1596,803.2634 L1253.7363,813.3088 L1254.5759,823.3542 L1253.8856,833.3996 L1254.091,843.445 L1253.9574,853.4904 L1254.238,863.5358 L1254.3188,873.5812 L1254.7809,883.6266 L1254.8947,893.672 L1254.9057,903.7174 L1254.3395,913.7628 L1254.6181,923.8082 L1254.9363,933.8536 L1253.0384,943.899 L1254.9047,953.9444 L1253.6047,963.9898 L1254.7117,974.0352 L1253.34,984.0806 L1254,994.126 " fill="#8B0000" style="stroke:#8B0000;stroke-width:4.0;"/><path d="M1254,994.126 L1254,994.4062 L1243.9344,993.5735 L1233.8689,994.3837 L1223.8033,994.6589 L1213.7377,993.1748 L1203.6721,994.0223 L1193.6066,993.5573 L1183.541,993.6146 L1173.4754,994.0351 L1163.4098,993.2041 L1153.3443,994.8641 L1143.2787,993.2856 L1133.2131,993.8623 L1123.1475,994.7019 L1113.082,994.0116 L1103.0164,994.2169 L1092.9508,994.0834 L1082.8852,994.364 L1072.8197,994.4448 L1062.7541,994.9069 L1052.6885,995.0207 L1042.623,995.0316 L1032.5574,994.4655 L1022.4918,994.7441 L1012.4262,995.0623 L1002.3607,993.1644 L992.2951,995.0306 L982.2295,993.7306 L972.1639,994.8377 L962.0984,993.4659 L952.0328,994.0346 L941.9672,995.1148 L931.9016,994.061 L921.8361,994.2664 L911.7705,994.5775 L901.7049,994.6809 L891.6393,994.1207 L881.5738,994.5089 L871.5082,993.3627 L861.4426,994.5051 L851.377,994.8569 L841.3115,994.7187 L831.2459,994.9433 L821.1803,993.4818 L811.1148,993.2564 L801.0492,993.2974 L790.9836,994.0474 L780.918,993.8639 L770.8525,995.0345 L760.7869,993.893 L750.7213,993.6685 L740.6557,994.4303 L730.5902,993.2368 L720.5246,993.4338 L710.459,994.9912 L700.3934,994.7068 L690.3279,995.1053 L680.2623,993.6969 L670.1967,994.5515 L660.1311,994.9132 L650.0656,993.4961 L640,994.126 " fill="#8B0000" style="stroke:#8B0000;stroke-width:4.0;"/><polygon fill="#8B0000" points="650,990.126,650.026,990.191,647.9487,990.7977,646.0239,991.7858,644.0495,992.6496,641.9117,993.1052,640,994.126,639.9904,994.1019,641.9472,994.794,643.9525,995.6073,645.9916,996.5049,647.9144,997.112,650,998.126,650.1305,998.2564,649.0514,997.1774,648.3534,996.4793,647.7018,995.8278,646.7798,994.9057,646,994.126,646.0161,994.142,646.7925,993.3184,647.6421,992.568,648.4564,991.7823,649.338,991.064,650,990.126" style="stroke:#8B0000;stroke-width:1.0;"/><path d="M628,473.3812 L628.2802,473.3812 L627.4476,483.5846 L628.2577,493.788 L628.5329,503.9914 L627.0488,514.1948 L627.8964,524.3982 L627.4313,534.6016 L627.4887,544.805 L627.9091,555.0084 L627.0782,565.2118 L628.7382,575.4152 L627.1596,585.6186 L627.7363,595.822 L628.5759,606.0254 L627.8856,616.2288 L628.091,626.4322 L627.9574,636.6356 L628.238,646.839 L628.3188,657.0424 L628.7809,667.2458 L628,677.4492 " fill="#8B0000" style="stroke:#8B0000;stroke-width:4.0;"/><polygon fill="#8B0000" points="624,667.4492,624.065,667.4752,624.6718,669.3979,625.6598,671.4731,626.5237,673.4986,626.9792,675.3608,628,677.4492,627.9759,677.4395,628.668,675.3964,629.4813,673.4017,630.3789,671.4407,630.986,669.3636,632,667.4492,632.1305,667.5797,631.0514,668.1006,630.3534,669.0025,629.7018,669.951,628.7798,670.6289,628,671.4492,628.0161,671.4652,627.1925,670.6416,626.4421,669.8912,625.6564,669.1055,624.938,668.3872,624,667.4492" style="stroke:#8B0000;stroke-width:1.0;"/><path d="M276.5,1158.6193 L276.5934,1158.6193 L276.3159,1165.6193 L276.5859,1172.6193 L276.6776,1179.6193 L276.1829,1186.6193 L276.5,1193.6193 " fill="#8B0000" style="stroke:#8B0000;stroke-width:4.0;"/><polygon fill="#8B0000" points="272.5,1183.6193,272.565,1183.6453,273.1718,1185.568,274.1598,1187.6432,275.0237,1189.6688,275.4792,1191.531,276.5,1193.6193,276.4759,1193.6097,277.168,1191.5665,277.9813,1189.5718,278.8789,1187.6109,279.486,1185.5337,280.5,1183.6193,280.6305,1183.7498,279.5514,1184.2708,278.8534,1185.1727,278.2018,1186.1211,277.2798,1186.7991,276.5,1187.6193,276.5161,1187.6354,275.6925,1186.8118,274.9421,1186.0614,274.1564,1185.2757,273.438,1184.5574,272.5,1183.6193" style="stroke:#8B0000;stroke-width:1.0;"/><path d="M979.5,1189.2492 L979.5934,1189.2492 L979.3159,1196.2492 L979.5859,1203.2492 L979.6776,1210.2492 L979.1829,1217.2492 L979.5,1224.2492 " fill="#8B0000" style="stroke:#8B0000;stroke-width:4.0;"/><polygon fill="#8B0000" points="975.5,1214.2492,975.565,1214.2752,976.1718,1216.1979,977.1598,1218.2731,978.0237,1220.2986,978.4792,1222.1608,979.5,1224.2492,979.4759,1224.2395,980.168,1222.1964,980.9813,1220.2017,981.8789,1218.2407,982.486,1216.1636,983.5,1214.2492,983.6305,1214.3796,982.5514,1214.9006,981.8534,1215.8025,981.2018,1216.751,980.2798,1217.4289,979.5,1218.2492,979.5161,1218.2652,978.6925,1217.4416,977.9421,1216.6912,977.1564,1215.9055,976.438,1215.1872,975.5,1214.2492" style="stroke:#8B0000;stroke-width:1.0;"/><path d="M286.5,1052.0447 L286.5,1052.1381 L284.5,1051.8606 L282.5,1052.1306 L280.5,1052.2224 L278.5,1051.7277 L276.5,1052.0447 " fill="#8B0000" style="stroke:#8B0000;stroke-width:4.0;"/><path d="M276.5,1052.0447 L276.5934,1052.0447 L276.3159,1057.1077 L276.5859,1062.1707 L276.6776,1067.2337 L276.1829,1072.2967 L276.5,1077.3597 " fill="#8B0000" style="stroke:#8B0000;stroke-width:4.0;"/><polygon fill="#8B0000" points="272.5,1067.3597,272.565,1067.3857,273.1718,1069.3084,274.1598,1071.3836,275.0237,1073.4091,275.4792,1075.2713,276.5,1077.3597,276.4759,1077.35,277.168,1075.3069,277.9813,1073.3122,278.8789,1071.3512,279.486,1069.2741,280.5,1067.3597,280.6305,1067.4901,279.5514,1068.0111,278.8534,1068.913,278.2018,1069.8615,277.2798,1070.5394,276.5,1071.3597,276.5161,1071.3757,275.6925,1070.5521,274.9421,1069.8017,274.1564,1069.016,273.438,1068.2977,272.5,1067.3597" style="stroke:#8B0000;stroke-width:1.0;"/><path d="M969.5,1052.0447 L969.5,1052.1381 L971.5,1051.8606 L973.5,1052.1306 L975.5,1052.2224 L977.5,1051.7277 L979.5,1052.0447 " fill="#8B0000" style="stroke:#8B0000;stroke-width:4.0;"/><path d="M979.5,1052.0447 L979.5934,1052.0447 L979.3159,1057.1077 L979.5859,1062.1707 L979.6776,1067.2337 L979.1829,1072.2967 L979.5,1077.3597 " fill="#8B0000" style="stroke:#8B0000;stroke-width:4.0;"/><polygon fill="#8B0000" points="975.5,1067.3597,975.565,1067.3857,976.1718,1069.3084,977.1598,1071.3836,978.0237,1073.4091,978.4792,1075.2713,979.5,1077.3597,979.4759,1077.35,980.168,1075.3069,980.9813,1073.3122,981.8789,1071.3512,982.486,1069.2741,983.5,1067.3597,983.6305,1067.4901,982.5514,1068.0111,981.8534,1068.913,981.2018,1069.8615,980.2798,1070.5394,979.5,1071.3597,979.5161,1071.3757,978.6925,1070.5521,977.9421,1069.8017,977.1564,1069.016,976.438,1068.2977,975.5,1067.3597" style="stroke:#8B0000;stroke-width:1.0;"/><path d="M628,1006.126 L628.0934,1006.126 L627.8159,1012.2467 L628.0859,1018.3675 L628.1776,1024.4883 L627.6829,1030.609 L628,1036.7298 " fill="#8B0000" style="stroke:#8B0000;stroke-width:4.0;"/><polygon fill="#8B0000" points="624,1026.7298,624.065,1026.7558,624.6718,1028.6785,625.6598,1030.7537,626.5237,1032.7793,626.9792,1034.6415,628,1036.7298,627.9759,1036.7202,628.668,1034.677,629.4813,1032.6823,630.3789,1030.7214,630.986,1028.6442,632,1026.7298,632.1305,1026.8603,631.0514,1027.3813,630.3534,1028.2832,629.7018,1029.2316,628.7798,1029.9096,628,1030.7298,628.0161,1030.7459,627.1925,1029.9223,626.4421,1029.1719,625.6564,1028.3862,624.938,1027.6679,624,1026.7298" style="stroke:#8B0000;stroke-width:1.0;"/><!--SRC=[ZLJTZzem37_FN-6zR20Ty5wUgcCx8Pqq1Dl39AGfrnhm598kThZh_VLp2bofTj9cgHy9iNyVTlb0ldAfnfz7wrkOJcUr5JlHXTtZ4RrCM5g7KtaHOuJ4OG7tXn2O_1uiBFGmhB7HjOJO6cEAHQXIJjJjtubYLuJdnlWW297s1p4RUiKxU8ZM9sSZINi7PLKXCzm7Bp4uNQ-MRD3NaDDC3jh1QCaW1um8BDRNDjOGtx1X5oAq8KMeYIjg77c46Um8NRtrk8TLkIuNoytdUws-AFNsM4wdqt6kw67K8e-D0O2CSqGK1kkSrkz538v25yLtHbZqUDcA-UKtbj3aLtHwPkH3bwEIQ6VEzxEc7o71mPuGlZPQ_E93zdLyI-pAREbPkv24WhUkKm_uGgniFyAPzVym7bRv9-akClgtRFudTGOuaTWdX_207gDrIg6hymxY3Ix9lD-yGftZ7PVqnLojkZow8TBjaZaTcyo_o69wBKRd0lOzfxVv86HZuz3bu5qBcc0I9srsU-u3wtI2eoEfcRECs8lD8rO5vx3AS3mnqZO8-OkvcTL1KviOVkbfs2KLe9-C5i0rCjfO7M2JcYP4-Mi4YutOAEho9NlhHryKDJp3QlbOhZUmYa624k5nv-VGIJEmie1XggrFL27Ofv14sUojfzTCB8lO-k0XscUWmNne-QZ_1ieYzr2vTjUwW4Ma4uwXvt2Twnn_0000]--></g></svg>