<?xml version="1.0" encoding="us-ascii" standalone="no"?><svg xmlns="http://www.w3.org/2000/svg" xmlns:xlink="http://www.w3.org/1999/xlink" contentStyleType="text/css" height="997px" preserveAspectRatio="none" style="width:1548px;height:997px;background:#FFFFFF;" version="1.1" viewBox="0 0 1548 997" width="1548px" zoomAndPan="magnify"><defs/><g><text fill="#000000" font-family="Chalkduster" font-size="42" font-weight="bold" lengthAdjust="spacing" textLength="1179" x="183.25" y="61.7215">Annotated Guide to Choosing a Data Repository</text><polygon fill="#F1F1F1" points="205.5,85.6022,205.5,85.8124,215.5106,85.1879,225.5213,85.7955,235.5319,86.0019,245.5426,84.8888,255.5532,85.5245,265.5638,85.1757,275.5745,85.2187,285.5851,85.5341,295.5957,84.9108,305.6064,86.1559,315.617,84.9719,325.6277,85.4044,335.6383,86.0342,345.6489,85.5164,355.6596,85.6704,365.6702,85.5703,375.6809,85.7807,385.6915,85.8413,395.7021,86.1879,405.7128,86.2733,415.7234,86.2815,425.734,85.8568,435.7447,86.0658,445.7553,86.3044,455.766,84.881,465.7766,86.2807,475.7872,85.3057,485.7979,86.136,495.8085,85.1072,505.8191,85.5337,515.8298,86.3438,525.8404,85.5535,535.8511,85.7075,545.8617,85.9408,555.8723,86.0184,565.883,85.5983,575.8936,85.8894,585.9043,85.0298,595.9149,85.8866,605.9255,86.1504,615.9362,86.0467,625.9468,86.2152,635.9574,85.1191,645.9681,84.95,655.9787,84.9808,665.9894,85.5433,676,85.4057,686.0106,86.2836,696.0213,85.4275,706.0319,85.2592,716.0426,85.8305,726.0532,84.9354,736.0638,85.0831,746.0745,86.2512,756.0851,86.0379,766.0957,86.3367,776.1064,85.2804,786.117,85.9214,796.1277,86.1926,806.1383,85.1298,816.1489,85.5064,826.1596,85.7282,836.1702,86.254,846.1809,85.598,856.1915,86.0648,866.2021,85.0484,876.2128,84.925,886.2234,86.1058,896.234,84.8853,906.2447,86.1112,916.2553,85.8088,926.266,85.3343,936.2766,85.2484,946.2872,86.061,956.2979,85.3029,966.3085,86.1941,976.3191,85.0495,986.3298,86.2196,996.3404,86.0865,1006.3511,85.8472,1016.3617,85.6494,1026.3723,86.3288,1036.383,86.2158,1046.3936,85.7715,1056.4043,85.8704,1066.4149,85.4719,1076.4255,86.3187,1086.4362,85.7571,1096.4468,85.7748,1106.4574,84.9939,1116.4681,85.197,1126.4787,86.133,1136.4894,86.032,1146.5,85.6022,1146.4945,85.589,1148.2267,86.2352,1150.0076,86.9993,1151.7158,87.5876,1153.624,88.6589,1155.3388,89.2634,1155.5666,89.3577,1156.2332,91.0983,1157.0173,92.8876,1157.4934,94.5492,1158.2946,96.3456,1159,98.1022,1158.8708,98.1022,1159.0947,103.2282,1159.0823,108.3541,1159.1841,113.4801,1158.9234,118.6061,1159,123.732,1158.9586,123.7149,1158.4043,125.5564,1157.7103,127.3399,1156.6455,128.97,1156.0114,130.7784,1155.3388,132.5709,1155.3579,132.6168,1153.4931,133.115,1151.8484,134.1442,1150.0684,134.847,1148.2549,135.4688,1146.5,136.232,1146.5,136.3743,1136.4894,136.9607,1126.4787,135.9192,1116.4681,136.547,1106.4574,136.5177,1096.4468,136.3478,1086.4362,136.373,1076.4255,136.3455,1066.4149,135.6079,1056.4043,135.8312,1046.3936,135.7705,1036.383,136.2959,1026.3723,136.3202,1016.3617,136.3938,1006.3511,135.9411,996.3404,136.1645,986.3298,136.1118,976.3191,136.8089,966.3085,136.6586,956.2979,135.7465,946.2872,136.1591,936.2766,135.6548,926.266,136.5204,916.2553,136.8405,906.2447,136.7766,896.234,135.7965,886.2234,136.696,876.2128,135.4892,866.2021,136.4322,856.1915,135.9327,846.1809,136.3288,836.1702,136.4724,826.1596,136.7041,816.1489,135.5121,806.1383,136.7075,796.1277,136.4102,786.117,136.5874,776.1064,136.9798,766.0957,136.2375,756.0851,136.4073,746.0745,136.4455,736.0638,136.4293,726.0532,136.2312,716.0426,136.9427,706.0319,135.6223,696.0213,136.7973,686.0106,135.608,676,135.6917,665.9894,136.2721,655.9787,136.2603,645.9681,135.7392,635.9574,136.6458,625.9468,136.3409,615.9362,136.9587,605.9255,136.8991,595.9149,135.7838,585.9043,135.8341,575.8936,136.1029,565.883,136.5876,555.8723,136.635,545.8617,136.5332,535.8511,135.8901,525.8404,136.8684,515.8298,136.8658,505.8191,136.1848,495.8085,135.993,485.7979,135.8307,475.7872,136.0175,465.7766,136.3695,455.766,136.1637,445.7553,135.8142,435.7447,136.7194,425.734,135.7731,415.7234,136.7344,405.7128,136.6593,395.7021,136.6039,385.6915,136.9245,375.6809,135.9862,365.6702,135.9314,355.6596,136.7509,345.6489,135.6352,335.6383,135.998,325.6277,136.3475,315.617,136.3007,305.6064,135.8736,295.5957,136.1891,285.5851,136.9766,275.5745,136.8805,265.5638,135.6358,255.5532,136.3106,245.5426,135.7181,235.5319,136.2057,225.5213,136.525,215.5106,136.6519,205.5,136.232,205.4152,136.0273,203.7833,135.6232,201.9655,134.7702,200.1259,133.8643,198.3688,133.158,196.6612,132.5709,196.7617,132.6125,196.0059,130.835,195.1916,129.0332,194.2575,127.1818,193.9349,125.5838,193,123.732,192.8961,123.732,192.824,118.6061,192.9776,113.4801,193.1966,108.3541,193.2051,103.2282,193,98.1022,193.0108,98.1067,193.6857,96.3152,194.5168,94.5883,195.254,92.8227,195.7726,90.9664,196.6612,89.2634,196.714,89.3909,198.5002,88.7032,200.1692,87.7325,201.9097,86.9345,203.8183,86.5422,205.5,85.6022" style="stroke:#181818;stroke-width:0.5;"/><text fill="#000000" font-family="Chalkduster" font-size="24" lengthAdjust="spacing" textLength="946" x="203" y="119.4431">https://ardc.edu.au/resource/guide-to-choosing-a-data-repository/</text><path d="M20,232.8066 L20.5605,232.8066 L18.8951,243.0055 L20.5154,253.2044 L21.0658,263.4033 L18.0976,273.6022 L19.7928,283.8011 L18.8627,294 L18.9773,304.1989 L19.8182,314.3978 L18.1563,324.5967 L21.4764,334.7956 L18.3193,344.9945 L19.4726,355.1934 L21.1519,365.3923 L19.7713,375.5912 L20.182,385.79 L19.9148,395.9889 L20.4761,406.1878 L20.6377,416.3867 L20,426.5856 L20,428.1475 L29.9138,428.3751 L39.8276,428.397 L49.7414,427.2646 L59.6552,427.8219 L69.569,428.4582 L79.4828,424.6625 L89.3966,428.395 L99.3103,425.795 L109.2241,428.0091 L119.1379,425.2656 L129.0517,426.403 L138.9655,428.5632 L148.8793,426.4557 L158.7931,426.8664 L168.7069,427.4886 L178.6207,427.6956 L188.5345,426.5752 L198.4483,427.3515 L208.3621,425.0592 L218.2759,427.344 L228.1897,428.0475 L238.1034,427.771 L248.0172,428.2204 L257.931,425.2974 L267.8448,424.8465 L277.7586,424.9286 L287.6724,426.4286 L297.5862,426.0616 L307.5,428.4027 L317.4138,426.1198 L327.3276,425.6708 L337.2414,427.1943 L347.1552,424.8074 L357.069,425.2013 L366.9828,428.3162 L376.8966,427.7474 L386.8103,428.5443 L396.7241,425.7275 L406.6379,427.4368 L416.5517,428.1601 L426.4655,425.3259 L436.3793,426.33 L446.2931,426.9216 L456.2069,428.3237 L466.1207,426.5745 L476.0345,427.8191 L485.9483,425.1089 L495.8621,424.7796 L505.7759,427.9286 L515.6897,424.6738 L525.6034,427.9429 L535.5172,427.1366 L545.431,425.8712 L555.3448,425.6422 L565.2586,427.809 L575.1724,425.7874 L585.0862,428.1639 L595,426.5856 L593.526,426.5856 L596.6465,416.3757 L596.2915,406.1657 L595.6532,395.9558 L595.1259,385.7458 L596.9376,375.5359 L596.6362,365.326 L595.4513,355.116 L595.7152,344.9061 L594.6526,334.6961 L596.9105,324.4862 L595.413,314.2762 L595.4602,304.0663 L593.3777,293.8563 L593.9194,283.6464 L596.4153,273.4365 L596.146,263.2265 L594.8855,253.0166 L595,242.8066 L594.7975,242.6041 L592.8624,240.669 L590.5687,238.3753 L589.2607,237.0673 L587.4648,235.2715 L585,232.8066 L585,234.2103 L575.0877,234.6598 L565.1754,232.442 L555.2632,233.0392 L545.3509,231.773 L535.4386,233.5641 L525.5263,233.4647 L515.614,234.2797 L505.7018,232.1942 L495.7895,232.4482 L485.8772,233.9892 L475.9649,234.3195 L466.0526,231.4399 L456.1404,232.2896 L446.2281,233.2047 L436.3158,231.1777 L426.4035,233.749 L416.4912,233.4946 L406.5789,232.5379 L396.6667,233.186 L386.7544,234.7498 L376.8421,231.9723 L366.9298,233.6466 L357.0175,233.5684 L347.1053,233.1153 L337.193,233.1824 L327.2807,233.1092 L317.3684,231.1422 L307.4561,231.7378 L297.5439,231.5759 L287.6316,232.9768 L277.7193,233.0416 L267.807,233.238 L257.8947,232.0307 L247.9825,232.6266 L238.0702,232.4861 L228.1579,234.3449 L218.2456,233.9441 L208.3333,231.5119 L198.4211,232.6122 L188.5088,231.2673 L178.5965,233.5756 L168.6842,234.4293 L158.7719,234.2588 L148.8596,231.6451 L138.9474,234.0439 L129.0351,230.8258 L119.1228,233.3404 L109.2105,232.0085 L99.2982,233.0646 L89.386,233.4475 L79.4737,234.0656 L69.5614,230.8868 L59.6491,234.0746 L49.7368,233.2818 L39.8246,233.7542 L29.9123,234.8008 L20,232.8066 " fill="#FFFFE0" style="stroke:#181818;stroke-width:4.0;"/><path d="M585,232.8066 L585.1868,232.8066 L584.6317,234.8066 L585.1718,236.8066 L585.3553,238.8066 L584.3659,240.8066 L585,242.8066 L585,242.7375 L587,242.4275 L589,242.4657 L591,242.746 L593,242.1921 L595,242.8066 L595.348,243.1546 L592.6038,240.4105 L590.8757,238.6823 L589.2715,237.0781 L586.9461,234.7527 L585,232.8066 " fill="#FFFFE0" style="stroke:#181818;stroke-width:4.0;"/><text fill="#000000" font-family="Chalkduster" font-size="24" lengthAdjust="spacing" textLength="542" x="26" y="261.6475">When deciding what data repository to</text><text fill="#000000" font-family="Chalkduster" font-size="24" lengthAdjust="spacing" textLength="529" x="26" y="292.2773">publish in key considerations include:</text><text fill="#000000" font-family="Chalkduster" font-size="24" lengthAdjust="spacing" textLength="296" x="26" y="322.9072">- security obligations</text><text fill="#000000" font-family="Chalkduster" font-size="24" lengthAdjust="spacing" textLength="335" x="26" y="353.537">- publisher requirements</text><text fill="#000000" font-family="Chalkduster" font-size="24" lengthAdjust="spacing" textLength="353" x="26" y="384.1668">- community conventions</text><text fill="#000000" font-family="Chalkduster" font-size="24" lengthAdjust="spacing" textLength="298" x="26" y="414.7967">- institutional policy.</text><path d="M757,156.232 L757.5605,156.232 L755.8951,166.1443 L757.5154,176.0565 L758.0658,185.9687 L755.0976,195.881 L756.7928,205.7932 L755.8627,215.7054 L755.9773,225.6177 L756.8182,235.5299 L755.1563,245.4421 L758.4764,255.3544 L755.3193,265.2666 L756.4726,275.1788 L758.1519,285.0911 L756.7713,295.0033 L757.182,304.9155 L756.9148,314.8278 L757.4761,324.74 L757.6377,334.6522 L758.5618,344.5645 L758.7895,354.4767 L758.8114,364.3889 L757.679,374.3012 L758.2362,384.2134 L758.8726,394.1256 L755.0768,404.0379 L758.8094,413.9501 L756.2093,423.8623 L758.4235,433.7746 L755.6799,443.6868 L756.8173,453.599 L758.9776,463.5113 L756.87,473.4235 L757.2808,483.3357 L757.903,493.248 L757,503.1602 L757,504.2702 L766.9516,503.1498 L776.9032,503.9261 L786.8548,501.6338 L796.8065,503.9186 L806.7581,504.6221 L816.7097,504.3456 L826.6613,504.7949 L836.6129,501.872 L846.5645,501.4211 L856.5161,501.5031 L866.4677,503.0032 L876.4194,502.6361 L886.371,504.9773 L896.3226,502.6944 L906.2742,502.2454 L916.2258,503.7689 L926.1774,501.382 L936.129,501.7759 L946.0806,504.8907 L956.0323,504.322 L965.9839,505.1189 L975.9355,502.3021 L985.8871,504.0114 L995.8387,504.7347 L1005.7903,501.9005 L1015.7419,502.9046 L1025.6935,503.4962 L1035.6452,504.8982 L1045.5968,503.149 L1055.5484,504.3937 L1065.5,501.6834 L1075.4516,501.3542 L1085.4032,504.5032 L1095.3548,501.2484 L1105.3065,504.5174 L1115.2581,503.7112 L1125.2097,502.4458 L1135.1613,502.2168 L1145.1129,504.3836 L1155.0645,502.362 L1165.0161,504.7385 L1174.9677,501.6862 L1184.9194,504.8067 L1194.871,504.4517 L1204.8226,503.8135 L1214.7742,503.2861 L1224.7258,505.0978 L1234.6774,504.7964 L1244.629,503.6116 L1254.5806,503.8754 L1264.5323,502.8128 L1274.4839,505.0707 L1284.4355,503.5732 L1294.3871,503.6204 L1304.3387,501.5379 L1314.2903,502.0796 L1324.2419,504.5755 L1334.1935,504.3062 L1344.1452,503.0457 L1354.0968,502.3011 L1364.0484,502.5764 L1374,503.1602 L1372.1702,503.1602 L1375.106,493.2506 L1375.9722,483.3409 L1375.4037,473.4313 L1375.8532,463.5216 L1373.6354,453.612 L1374.2326,443.7023 L1372.9664,433.7926 L1374.7574,423.883 L1374.658,413.9733 L1375.473,404.0637 L1373.3876,394.154 L1373.6416,384.2444 L1375.1826,374.3347 L1375.5129,364.4251 L1372.6332,354.5154 L1373.483,344.6058 L1374.398,334.6961 L1372.3711,324.7865 L1374.9424,314.8768 L1374.688,304.9672 L1373.7313,295.0575 L1374.3793,285.1479 L1375.9431,275.2382 L1373.1657,265.3286 L1374.84,255.4189 L1374.7617,245.5093 L1374.3087,235.5996 L1374.3758,225.69 L1374.3026,215.7803 L1372.3356,205.8707 L1372.9312,195.961 L1372.7692,186.0513 L1374.1702,176.1417 L1374,166.232 L1374.0554,166.2874 L1372.1017,164.3337 L1369.8171,162.0492 L1367.9576,160.1896 L1365.9244,158.1565 L1364,156.232 L1364,157.7703 L1354.0492,157.3696 L1344.0984,154.9373 L1334.1475,156.0376 L1324.1967,154.6928 L1314.2459,157.0011 L1304.2951,157.8547 L1294.3443,157.6842 L1284.3934,155.0706 L1274.4426,157.4693 L1264.4918,154.2512 L1254.541,156.7658 L1244.5902,155.4339 L1234.6393,156.49 L1224.6885,156.8729 L1214.7377,157.491 L1204.7869,154.3123 L1194.8361,157.5 L1184.8852,156.7072 L1174.9344,157.1796 L1164.9836,158.2262 L1155.0328,156.2467 L1145.082,156.6994 L1135.1311,156.8012 L1125.1803,156.758 L1115.2295,156.2299 L1105.2787,158.1273 L1095.3279,154.6061 L1085.377,157.7395 L1075.4262,154.568 L1065.4754,154.7912 L1055.5246,156.3387 L1045.5738,156.3074 L1035.623,154.9178 L1025.6721,157.3353 L1015.7213,156.5223 L1005.7705,158.1698 L995.8197,158.011 L985.8689,155.0367 L975.918,155.1709 L965.9672,155.8876 L956.0164,157.1801 L946.0656,157.3067 L936.1148,157.0351 L926.1639,155.3202 L916.2131,157.929 L906.2623,157.9221 L896.3115,156.106 L886.3607,155.5946 L876.4098,155.1617 L866.459,155.6598 L856.5082,156.5985 L846.5574,156.0497 L836.6066,155.1179 L826.6557,157.5317 L816.7049,155.0082 L806.7541,157.5717 L796.8033,157.3713 L786.8525,157.2237 L776.9016,158.0787 L766.9508,155.5763 L757,156.232 " fill="#FFFFE0" style="stroke:#181818;stroke-width:4.0;"/><path d="M1364,156.232 L1364.1868,156.232 L1363.6317,158.232 L1364.1718,160.232 L1364.3553,162.232 L1363.3659,164.232 L1364,166.232 L1364,166.163 L1366,165.8529 L1368,165.8912 L1370,166.1715 L1372,165.6175 L1374,166.232 L1374.348,166.58 L1371.6038,163.8359 L1369.8757,162.1077 L1368.2715,160.5035 L1365.9461,158.1781 L1364,156.232 " fill="#FFFFE0" style="stroke:#181818;stroke-width:4.0;"/><text fill="#000000" font-family="Chalkduster" font-size="24" lengthAdjust="spacing" textLength="196" x="763" y="185.0729">Also consider:</text><text fill="#000000" font-family="Chalkduster" font-size="24" lengthAdjust="spacing" textLength="518" x="763" y="215.7028">- the type of data you are publishing</text><text fill="#000000" font-family="Chalkduster" font-size="24" lengthAdjust="spacing" textLength="356" x="763" y="246.3326">- its format and file size</text><text fill="#000000" font-family="Chalkduster" font-size="24" lengthAdjust="spacing" textLength="584" x="763" y="276.9624">- its potential reuse and reuse conditions</text><text fill="#000000" font-family="Chalkduster" font-size="24" lengthAdjust="spacing" textLength="418" x="799" y="307.5923">in the form of, say, a licence.</text><text fill="#000000" font-family="Chalkduster" font-size="24" lengthAdjust="spacing" textLength="12" x="763" y="338.2221">&#160;</text><text fill="#000000" font-family="Chalkduster" font-size="24" lengthAdjust="spacing" textLength="470" x="763" y="368.8519">Other considerations can include:</text><text fill="#000000" font-family="Chalkduster" font-size="24" lengthAdjust="spacing" textLength="340" x="763" y="399.4818">- versioning of the data</text><text fill="#000000" font-family="Chalkduster" font-size="24" lengthAdjust="spacing" textLength="426" x="763" y="430.1116">- storage location of the data</text><text fill="#000000" font-family="Chalkduster" font-size="24" lengthAdjust="spacing" textLength="334" x="763" y="460.7414">- sensitivity of the data</text><text fill="#000000" font-family="Chalkduster" font-size="24" lengthAdjust="spacing" textLength="278" x="763" y="491.3713">- access conditions.</text><polygon fill="#F1F1F1" points="617.5,304.3812,617.5,304.5914,627.25,303.9669,637,304.5745,646.75,304.7809,656.5,303.6678,666.25,304.3035,676,303.9547,685.75,303.9977,695.5,304.3131,705.25,303.6898,715,304.9349,724.75,303.7509,734.5,304.3812,734.4748,304.3203,736.3229,305.2465,738.0246,305.8193,739.812,306.5989,741.567,307.3003,743.3388,308.0424,743.3938,308.0651,744.1447,309.8406,744.9837,311.6526,745.7422,313.4313,746.477,315.2001,747,316.8812,747.0849,316.8812,747.1545,322.0072,747.2341,327.1331,746.7596,332.2591,747.2262,337.3851,747,342.511,746.9087,342.4732,746.4322,344.3469,745.3831,345.9834,744.7822,347.8056,744.2995,349.6767,743.3388,351.3499,743.3326,351.3349,741.5845,352.1145,739.8465,352.9186,738.0886,353.6748,736.2673,354.2776,734.5,355.011,734.5,355.2983,724.75,354.4386,715,355.2954,705.25,355.5592,695.5,355.4556,685.75,355.6241,676,354.528,666.25,354.3589,656.5,354.3896,646.75,354.9522,637,354.8145,627.25,355.6925,617.5,355.011,617.4777,354.9572,615.6885,354.1732,613.9936,353.6169,612.1116,352.609,610.3627,351.9222,608.6612,351.3499,608.861,351.4327,608.0631,349.6377,607.4229,347.908,606.3654,346.0055,605.8305,344.3195,605,342.511,605.1968,342.511,604.8425,337.3851,604.968,332.2591,605.042,327.1331,605.2173,322.0072,605,316.8812,604.9987,316.8807,605.8747,315.1724,606.2939,313.275,606.9881,311.4915,608.084,309.8744,608.6612,308.0424,608.5697,307.8216,610.4939,307.4669,612.2231,306.6415,613.9303,305.7632,615.6871,305.0045,617.5,304.3812" style="stroke:#181818;stroke-width:0.5;"/><text fill="#000000" font-family="Chalkduster" font-size="24" lengthAdjust="spacing" textLength="122" x="615" y="338.2221">Consider</text><polygon fill="#F1F1F1" points="469,533.1602,469,533.3704,479.0976,532.7459,489.1951,533.3535,499.2927,533.5599,509.3902,532.4468,519.4878,533.0825,529.5854,532.7337,539.6829,532.7767,549.7805,533.0921,559.878,532.4688,569.9756,533.7139,580.0732,532.5299,590.1707,532.9624,600.2683,533.5922,610.3659,533.0744,620.4634,533.2284,630.561,533.1283,640.6585,533.3387,650.7561,533.3993,660.8537,533.7459,670.9512,533.8313,681.0488,533.8395,691.1463,533.4148,701.2439,533.6238,711.3415,533.8624,721.439,532.439,731.5366,533.8387,741.6341,532.8637,751.7317,533.694,761.8293,532.6652,771.9268,533.0917,782.0244,533.9018,792.122,533.1115,802.2195,533.2655,812.3171,533.4988,822.4146,533.5764,832.5122,533.1563,842.6098,533.4474,852.7073,532.5878,862.8049,533.4446,872.9024,533.7084,883,533.1602,883.138,533.2143,885.5903,539.3607,887.6501,545.3534,889.9976,551.4588,892.4071,557.5885,895,563.79,894.9817,563.7829,892.539,569.8921,890.4115,576.1248,887.7458,582.1467,885.2935,588.2522,883,594.4199,883,594.6481,872.9024,593.753,862.8049,593.9008,852.7073,595.0688,842.6098,594.8555,832.5122,595.1544,822.4146,594.0981,812.3171,594.7391,802.2195,595.0103,792.122,593.9475,782.0244,594.324,771.9268,594.5459,761.8293,595.0716,751.7317,594.4157,741.6341,594.8824,731.5366,593.8661,721.439,593.7426,711.3415,594.9235,701.2439,593.7029,691.1463,594.9288,681.0488,594.6265,670.9512,594.152,660.8537,594.0661,650.7561,594.8786,640.6585,594.1205,630.561,595.0117,620.4634,593.8671,610.3659,595.0373,600.2683,594.9042,590.1707,594.6648,580.0732,594.4671,569.9756,595.1465,559.878,595.0335,549.7805,594.5891,539.6829,594.6881,529.5854,594.2896,519.4878,595.1363,509.3902,594.5747,499.2927,594.5924,489.1951,593.8115,479.0976,594.0147,469,594.4199,469.1647,594.4844,466.7334,588.3462,464.1867,582.1627,461.7,576.0028,459.3321,569.8894,457,563.79,456.787,563.7066,459.5287,557.7145,462.0295,551.628,464.3634,545.4761,466.8157,539.3707,469,533.1602" style="stroke:#181818;stroke-width:0.5;"/><text fill="#000000" font-family="Chalkduster" font-size="24" lengthAdjust="spacing" textLength="333" x="469" y="557.0011">Select/Identify a Subect</text><text fill="#000000" font-family="Chalkduster" font-size="24" lengthAdjust="spacing" textLength="414" x="469" y="587.6309">or Domain Specific Repository</text><text fill="#000000" font-family="Chalkduster" font-size="24" lengthAdjust="spacing" textLength="48" x="409" y="557.0011">Yes</text><text fill="#000000" font-family="Chalkduster" font-size="24" lengthAdjust="spacing" textLength="35" x="895" y="557.0011">no</text><polygon fill="#F1F1F1" points="305.625,604.4199,305.625,604.6301,315.7679,604.0056,325.9107,604.6132,336.0536,604.8196,346.1964,603.7065,356.3393,604.3422,366.4821,603.9934,376.625,604.4199,376.5761,604.3018,378.3841,605.1311,380.0723,605.6714,381.9989,606.7871,383.6157,607.1547,385.4638,608.081,385.4029,608.0558,386.3291,609.9039,386.9019,611.6056,387.6815,613.393,388.3829,615.148,389.125,616.9199,389.1845,616.9199,389.2047,622.0458,389.3202,627.1718,389.3487,632.2978,389.3514,637.4237,389.125,642.5497,389.2034,642.5822,388.5355,644.3766,387.8768,646.1748,386.7062,647.761,386.405,649.7073,385.4638,651.3885,385.426,651.2972,383.7642,652.2852,381.8652,652.7006,380.1518,653.5641,378.4874,654.5459,376.625,655.0497,376.625,655.001,366.4821,655.155,356.3393,655.3883,346.1964,655.4659,336.0536,655.0458,325.9107,655.3369,315.7679,654.4773,305.625,655.0497,305.6613,655.1373,303.9272,654.4863,302.1462,653.7221,300.3999,653.0418,298.4923,651.972,296.7862,651.3885,296.5853,651.3054,295.8626,649.5415,295.3036,647.8455,294.5289,646.0602,294.0671,644.4044,293.125,642.5497,293.0668,642.5497,293.0106,637.4237,293.2011,632.2978,292.9027,627.1718,292.952,622.0458,293.125,616.9199,293.3249,617.0027,293.9914,615.2077,294.8157,613.478,295.2226,611.5755,296.1522,609.8895,296.7862,608.081,296.8615,608.2629,298.4937,607.2033,300.3095,606.5871,302.1055,605.9231,303.9404,605.3528,305.625,604.4199" style="stroke:#181818;stroke-width:0.5;"/><text fill="#000000" font-family="Chalkduster" font-size="24" lengthAdjust="spacing" textLength="76" x="303.125" y="638.2608">Use it</text><polygon fill="#F1F1F1" points="874.875,604.4199,874.875,604.6301,884.9491,604.0056,895.0231,604.6132,905.0972,604.8196,915.1713,603.7065,925.2454,604.3422,935.3194,603.9934,945.3935,604.0364,955.4676,604.3517,965.5417,603.7285,975.6157,604.9735,985.6898,603.7896,995.7639,604.2221,1005.838,604.8518,1015.912,604.3341,1025.9861,604.4881,1036.0602,604.3879,1046.1343,604.5984,1056.2083,604.659,1066.2824,605.0056,1076.3565,605.0909,1086.4306,605.0991,1096.5046,604.6745,1106.5787,604.8835,1116.6528,605.1221,1126.7269,603.6987,1136.8009,605.0984,1146.875,604.4199,1146.783,604.3838,1149.4407,610.6108,1151.5214,616.6116,1154.0537,622.7894,1156.7052,629.0139,1158.875,635.0497,1158.8599,635.0438,1156.5077,641.1885,1154.1801,647.3428,1151.8042,653.4782,1149.2738,659.5531,1146.875,665.6795,1146.875,665.9668,1136.8009,665.1071,1126.7269,665.9639,1116.6528,666.2277,1106.5787,666.1241,1096.5046,666.2926,1086.4306,665.1965,1076.3565,665.0274,1066.2824,665.0581,1056.2083,665.6207,1046.1343,665.483,1036.0602,666.361,1025.9861,665.5049,1015.912,665.3365,1005.838,665.9078,995.7639,665.0127,985.6898,665.1604,975.6157,666.3285,965.5417,666.1152,955.4676,666.414,945.3935,665.3577,935.3194,665.9987,925.2454,666.27,915.1713,665.2071,905.0972,665.5837,895.0231,665.8055,884.9491,666.3313,874.875,665.6795,874.8737,665.679,872.6186,659.6098,869.9031,653.3603,867.4648,647.2193,865.4313,641.2369,862.875,635.0497,862.6525,634.9625,865.433,628.9856,867.7391,622.8229,869.9918,616.6392,872.3652,610.5028,874.875,604.4199" style="stroke:#181818;stroke-width:0.5;"/><text fill="#000000" font-family="Chalkduster" font-size="24" lengthAdjust="spacing" textLength="272" x="874.875" y="628.2608">Use an institutional</text><text fill="#000000" font-family="Chalkduster" font-size="24" lengthAdjust="spacing" textLength="213" x="874.875" y="658.8906">data repository</text><text fill="#000000" font-family="Chalkduster" font-size="24" lengthAdjust="spacing" textLength="35" x="827.875" y="628.2608">no</text><text fill="#000000" font-family="Chalkduster" font-size="24" lengthAdjust="spacing" textLength="42" x="1158.875" y="628.2608">yes</text><polygon fill="#F1F1F1" points="499.125,675.6795,499.125,675.8897,509.1838,675.2652,519.2426,675.8728,529.3015,676.0792,539.3603,674.9661,549.4191,675.6018,559.4779,675.253,569.5368,675.296,579.5956,675.6114,589.6544,674.9882,599.7132,676.2332,609.7721,675.0493,619.8309,675.4818,629.8897,676.1115,639.9485,675.5938,650.0074,675.7478,660.0662,675.6476,670.125,675.8581,680.1838,675.9187,690.2426,676.2652,700.3015,676.3506,710.3603,676.3588,720.4191,675.9342,730.4779,676.1431,740.5368,676.3818,750.5956,674.9584,760.6544,676.3581,770.7132,675.383,780.7721,676.2134,790.8309,675.1845,800.8897,675.611,810.9485,676.4211,821.0074,675.6308,831.0662,675.7848,841.125,676.0182,851.1838,676.0958,861.2426,675.6756,871.3015,675.9668,881.3603,675.1071,891.4191,675.9639,901.4779,676.2277,911.5368,676.1241,921.5956,676.2926,931.6544,675.1965,941.7132,675.0274,951.7721,675.0581,961.8309,675.6207,971.8897,675.483,981.9485,676.361,992.0074,675.5049,1002.0662,675.3365,1012.125,675.6795,1012.1849,675.7265,1014.35,678.6054,1016.7888,681.6988,1019.4953,685.0019,1021.8393,688.021,1024.125,690.9945,1024.3177,691.1455,1021.6406,693.9913,1019.4088,697.186,1017.0799,700.3048,1014.401,703.1493,1012.125,706.3094,1012.125,706.2135,1002.0662,706.4354,992.0074,706.9611,981.9485,706.3052,971.8897,706.7719,961.8309,705.7556,951.7721,705.6321,941.7132,706.813,931.6544,705.5924,921.5956,706.8183,911.5368,706.516,901.4779,706.0415,891.4191,705.9556,881.3603,706.7681,871.3015,706.01,861.2426,706.9012,851.1838,705.7566,841.125,706.9268,831.0662,706.7937,821.0074,706.5543,810.9485,706.3566,800.8897,707.036,790.8309,706.923,780.7721,706.4786,770.7132,706.5776,760.6544,706.1791,750.5956,707.0258,740.5368,706.4642,730.4779,706.4819,720.4191,705.701,710.3603,705.9042,700.3015,706.8401,690.2426,706.7391,680.1838,706.2664,670.125,705.9872,660.0662,706.0904,650.0074,705.6232,639.9485,706.7241,629.8897,707.0489,619.8309,706.8358,609.7721,707.0043,599.7132,706.1726,589.6544,706.3966,579.5956,705.9218,569.5368,706.5934,559.4779,706.5561,549.4191,706.8618,539.3603,706.0797,529.3015,706.175,519.2426,706.7528,509.1838,706.8767,499.125,706.3094,498.9905,706.204,496.6741,703.2065,494.3642,700.2141,491.7647,696.9948,489.6177,694.1301,487.125,690.9945,487.1927,691.0475,489.4986,687.9108,491.9623,684.8977,494.5162,681.9553,496.6429,678.6782,499.125,675.6795" style="stroke:#181818;stroke-width:0.5;"/><text fill="#000000" font-family="Chalkduster" font-size="24" lengthAdjust="spacing" textLength="513" x="499.125" y="699.5204">Choose a Generalist Data Repository</text><text fill="#000000" font-family="Chalkduster" font-size="24" lengthAdjust="spacing" textLength="42" x="445.125" y="684.2055">yes</text><text fill="#000000" font-family="Chalkduster" font-size="24" lengthAdjust="spacing" textLength="35" x="1024.125" y="684.2055">no</text><polygon fill="#F1F1F1" points="441.625,716.3094,441.625,716.5196,451.7679,715.8951,461.9107,716.5027,472.0536,716.7091,482.1964,715.596,492.3393,716.2317,502.4821,715.8829,512.625,716.3094,512.5761,716.1913,514.3841,717.0206,516.0723,717.5609,517.9989,718.6766,519.6157,719.0442,521.4638,719.9705,521.4029,719.9453,522.3291,721.7934,522.9019,723.4951,523.6815,725.2825,524.3829,727.0375,525.125,728.8094,525.1845,728.8094,525.2047,733.9353,525.3202,739.0613,525.3487,744.1873,525.3514,749.3132,525.125,754.4392,525.2034,754.4717,524.5355,756.2661,523.8768,758.0643,522.7062,759.6505,522.405,761.5968,521.4638,763.278,521.426,763.1867,519.7642,764.1747,517.8652,764.5901,516.1518,765.4536,514.4874,766.4354,512.625,766.9392,512.625,766.8905,502.4821,767.0445,492.3393,767.2778,482.1964,767.3554,472.0536,766.9353,461.9107,767.2264,451.7679,766.3668,441.625,766.9392,441.6613,767.0268,439.9272,766.3758,438.1462,765.6116,436.3999,764.9313,434.4923,763.8615,432.7862,763.278,432.5853,763.1949,431.8626,761.431,431.3036,759.735,430.5289,757.9497,430.0671,756.2939,429.125,754.4392,429.0668,754.4392,429.0106,749.3132,429.2011,744.1873,428.9027,739.0613,428.952,733.9353,429.125,728.8094,429.3249,728.8922,429.9914,727.0972,430.8157,725.3675,431.2226,723.465,432.1522,721.779,432.7862,719.9705,432.8615,720.1524,434.4937,719.0928,436.3095,718.4766,438.1055,717.8126,439.9404,717.2423,441.625,716.3094" style="stroke:#181818;stroke-width:0.5;"/><text fill="#000000" font-family="Chalkduster" font-size="24" lengthAdjust="spacing" textLength="76" x="439.125" y="750.1503">Use it</text><polygon fill="#F1F1F1" points="892.625,716.3094,892.625,716.5196,902.7321,715.8951,912.8393,716.5027,922.9464,716.7091,933.0536,715.596,943.1607,716.2317,953.2679,715.8829,963.375,715.9259,973.4821,716.2412,983.5893,715.618,993.6964,716.863,1003.8036,715.6791,1013.9107,716.1116,1024.0179,716.7413,1034.125,716.2236,1044.2321,716.3776,1054.3393,716.2774,1064.4464,716.4879,1074.5536,716.5485,1084.6607,716.8951,1094.7679,716.9804,1104.875,716.9886,1114.9821,716.564,1125.0893,716.773,1135.1964,717.0116,1145.3036,715.5882,1155.4107,716.9879,1165.5179,716.0129,1175.625,716.3094,1175.6931,716.4738,1177.3296,716.8892,1179.1518,717.7527,1181.0229,718.7345,1182.6899,719.2233,1184.4638,719.9705,1184.4963,719.984,1185.3004,721.7815,1186.0565,723.5592,1186.6593,725.2733,1187.4812,727.0782,1188.125,728.8094,1187.9342,728.8094,1188.2198,733.9353,1188.3077,739.0613,1188.2732,744.1873,1188.3293,749.3132,1188.125,754.4392,1187.9762,754.3776,1187.1919,756.1238,1186.4692,757.8955,1185.9102,759.735,1185.1355,761.4852,1184.4638,763.278,1184.5508,763.4879,1182.6738,763.9565,1180.8845,764.6369,1179.1897,765.545,1177.3077,766.0016,1175.625,766.9392,1175.625,766.4201,1165.5179,767.5882,1155.4107,767.3749,1145.3036,767.6737,1135.1964,766.6174,1125.0893,767.2584,1114.9821,767.5296,1104.875,766.4668,1094.7679,766.8433,1084.6607,767.0652,1074.5536,767.591,1064.4464,766.935,1054.3393,767.4018,1044.2321,766.3854,1034.125,766.262,1024.0179,767.4428,1013.9107,766.2223,1003.8036,767.4482,993.6964,767.1458,983.5893,766.6713,973.4821,766.5854,963.375,767.398,953.2679,766.6399,943.1607,767.5311,933.0536,766.3865,922.9464,767.5566,912.8393,767.4235,902.7321,767.1842,892.625,766.9392,892.631,766.9538,890.9499,766.4307,889.1677,765.6637,887.3433,764.7946,885.5881,764.0929,883.7862,763.278,883.746,763.2614,883.2746,761.6017,882.3694,759.7623,881.6426,757.9968,880.6699,756.1294,880.125,754.4392,879.9899,754.4392,880.3019,749.3132,880.2683,744.1873,880.1107,739.0613,880.0176,733.9353,880.125,728.8094,880.0576,728.7814,880.6459,726.9541,881.7172,725.3267,882.5495,723.6004,883.216,721.8055,883.7862,719.9705,883.8748,720.1846,885.5365,719.1962,887.3328,718.5329,889.04,717.6545,890.8935,717.1291,892.625,716.3094" style="stroke:#181818;stroke-width:0.5;"/><text fill="#000000" font-family="Chalkduster" font-size="24" lengthAdjust="spacing" textLength="288" x="890.125" y="750.1503">Um, use the R: Drive?</text><polygon fill="none" points="1045.1858,800.6148,1043.5734,802.818,1041.6662,806.0449,1038.9386,808.2196,1036.0724,809.4088,1033.787,809.512,1030.8497,808.0248,1028.0782,807.0531,1025.9745,805.0804,1024.8711,802.822,1024.2167,801.0237,1023.5756,798.6749,1022.535,796.6537,1023.3346,794.6802,1024.0352,792.5184,1026.6643,790.8087,1028.514,788.5903,1030.8034,787.8536,1033.5251,787.2193,1037.0154,787.5962,1038.9271,788.4977,1041.1497,788.9064,1043.8522,791.6752,1044.7943,794.5982,1045.2036,796.5926,1044.74,799.8791" style="stroke:#222222;stroke-width:1.0;"/><polygon fill="#222222" points="1040.1581,799.3986,1039.2786,800.6004,1038.2384,802.3605,1036.7506,803.5467,1035.1872,804.1954,1033.9406,804.2517,1032.3385,803.4404,1030.8267,802.9104,1029.6793,801.8344,1029.0774,800.6025,1028.7205,799.6217,1028.3708,798.3405,1027.8032,797.238,1028.2393,796.1616,1028.6215,794.9824,1030.0555,794.0498,1031.0644,792.8398,1032.3132,792.438,1033.7978,792.092,1035.7016,792.2976,1036.7443,792.7893,1037.9567,793.0122,1039.4307,794.5225,1039.9446,796.1168,1040.1679,797.2047,1039.915,798.9973" style="stroke:#111111;stroke-width:1.0;"/><polygon fill="#F1F1F1" points="1230.625,675.6795,1230.625,675.8897,1240.7679,675.2652,1250.9107,675.8728,1261.0536,676.0792,1271.1964,674.9661,1281.3393,675.6018,1291.4821,675.253,1301.625,675.6795,1301.5761,675.5614,1303.3841,676.3908,1305.0723,676.9311,1306.9989,678.0467,1308.6157,678.4144,1310.4638,679.3407,1310.4029,679.3155,1311.3291,681.1636,1311.9019,682.8653,1312.6815,684.6527,1313.3829,686.4077,1314.125,688.1795,1314.1845,688.1795,1314.2047,693.3055,1314.3202,698.4315,1314.3487,703.5574,1314.3514,708.6834,1314.125,713.8094,1314.2034,713.8419,1313.5355,715.6363,1312.8768,717.4345,1311.7062,719.0207,1311.405,720.967,1310.4638,722.6482,1310.426,722.5569,1308.7642,723.5448,1306.8652,723.9602,1305.1518,724.8238,1303.4874,725.8055,1301.625,726.3094,1301.625,726.2606,1291.4821,726.4147,1281.3393,726.648,1271.1964,726.7256,1261.0536,726.3055,1250.9107,726.5966,1240.7679,725.737,1230.625,726.3094,1230.6613,726.397,1228.9272,725.746,1227.1462,724.9818,1225.3999,724.3015,1223.4923,723.2317,1221.7862,722.6482,1221.5853,722.565,1220.8626,720.8012,1220.3036,719.1052,1219.5289,717.3198,1219.0671,715.6641,1218.125,713.8094,1218.0668,713.8094,1218.0106,708.6834,1218.2011,703.5574,1217.9027,698.4315,1217.952,693.3055,1218.125,688.1795,1218.3249,688.2623,1218.9914,686.4673,1219.8157,684.7377,1220.2226,682.8352,1221.1522,681.1492,1221.7862,679.3407,1221.8615,679.5225,1223.4937,678.463,1225.3095,677.8467,1227.1055,677.1828,1228.9404,676.6125,1230.625,675.6795" style="stroke:#181818;stroke-width:0.5;"/><text fill="#000000" font-family="Chalkduster" font-size="24" lengthAdjust="spacing" textLength="76" x="1228.125" y="709.5204">Use it</text><polygon fill="#F1F1F1" points="1010.875,818.9392,1010.9245,818.9887,1013.1773,821.2416,1015.7206,823.7848,1018.1692,826.2334,1020.3069,828.3711,1022.875,830.9392,1022.8567,830.9209,1020.3745,833.2387,1017.9846,835.6488,1015.6589,838.1231,1013.112,840.3763,1010.875,842.9392,1011.0055,843.0697,1008.3264,840.3907,1006.0284,838.0926,1003.7768,835.841,1001.2548,833.319,998.875,830.9392,998.8911,830.9553,1001.2675,828.5317,1003.7171,826.1813,1006.1314,823.7956,1008.613,821.4773,1010.875,818.9392" style="stroke:#181818;stroke-width:0.5;"/><polygon fill="#F1F1F1" points="676,848.9392,676.0495,848.9887,678.3023,851.2416,680.8456,853.7848,683.2942,856.2334,685.4319,858.3711,688,860.9392,687.9817,860.9209,685.4995,863.2387,683.1096,865.6488,680.7839,868.1231,678.237,870.3763,676,872.9392,676.1305,873.0697,673.4514,870.3907,671.1534,868.0926,668.9018,865.841,666.3798,863.319,664,860.9392,664.0161,860.9553,666.3925,858.5317,668.8421,856.1813,671.2564,853.7956,673.738,851.4773,676,848.9392" style="stroke:#181818;stroke-width:0.5;"/><path d="M740.5,883.2282 L741.0605,883.2282 L739.3951,892.6171 L741.0154,902.0061 L741.5658,911.395 L738.5976,920.784 L740.5,930.1729 L740.4865,930.1052 L736.4257,930.6012 L732.4331,931.4386 L728.4881,932.5135 L724.3795,932.7703 L720.5,934.1729 L720.5965,934.6555 L724.3901,934.4235 L728.4655,935.6005 L732.5753,936.9494 L736.485,937.2981 L740.5,938.1729 L740.682,938.1729 L740.4148,947.5619 L740.9761,956.9508 L741.1377,966.3398 L742.0618,975.7287 L740.5,985.1177 L740.5,985.1177 L740.5,986.9071 L750.45,986.929 L760.4,985.7967 L770.35,986.3539 L780.3,986.9903 L790.25,983.1945 L800.2,986.927 L810.15,984.327 L820.1,986.5412 L830.05,983.7976 L840,984.935 L849.95,987.0953 L859.9,984.9877 L869.85,985.3985 L879.8,986.0207 L889.75,986.2276 L899.7,985.1072 L909.65,985.8836 L919.6,983.5912 L929.55,985.876 L939.5,986.5795 L949.45,986.3031 L959.4,986.7524 L969.35,983.8294 L979.3,983.3785 L989.25,983.4606 L999.2,984.9606 L1009.15,984.5936 L1019.1,986.9348 L1029.05,984.6519 L1039,984.2028 L1048.95,985.7264 L1058.9,983.3394 L1068.85,983.7333 L1078.8,986.8482 L1088.75,986.2794 L1098.7,987.0763 L1108.65,984.2595 L1118.6,985.9689 L1128.55,986.6921 L1138.5,983.8579 L1148.45,984.862 L1158.4,985.4536 L1168.35,986.8557 L1178.3,985.1065 L1188.25,986.3512 L1198.2,983.6409 L1208.15,983.3116 L1218.1,986.4606 L1228.05,983.2058 L1238,986.4749 L1247.95,985.6687 L1257.9,984.4032 L1267.85,984.1743 L1277.8,986.341 L1287.75,984.3194 L1297.7,986.696 L1307.65,983.6437 L1317.6,986.7641 L1327.55,986.4091 L1337.5,985.7709 L1347.45,985.2436 L1357.4,987.0553 L1367.35,986.7539 L1377.3,985.569 L1387.25,985.8328 L1397.2,984.7703 L1407.15,987.0282 L1417.1,985.5306 L1427.05,985.5779 L1437,983.4954 L1446.95,984.0371 L1456.9,986.533 L1466.85,986.2637 L1476.8,985.0032 L1486.75,984.2585 L1496.7,984.5339 L1506.65,983.2879 L1516.6,986.2236 L1526.55,987.0898 L1536.5,985.1177 L1536.5,985.1177 L1537.9037,985.1177 L1538.3532,974.9077 L1536.1354,964.6978 L1536.7326,954.4878 L1535.4664,944.2779 L1537.2574,934.0679 L1537.158,923.858 L1537.973,913.648 L1535.8876,903.4381 L1536.5,893.2282 L1536.4155,893.1437 L1534.7787,891.5069 L1532.8566,889.5848 L1530.1779,886.906 L1528.3781,885.1063 L1526.5,883.2282 L1526.5,883.6262 L1516.5506,881.5992 L1506.6013,884.1705 L1496.6519,883.9161 L1486.7025,882.9595 L1476.7532,883.6075 L1466.8038,885.1713 L1456.8544,882.3938 L1446.9051,884.0681 L1436.9557,883.9899 L1427.0063,883.5369 L1417.057,883.6039 L1407.1076,883.5308 L1397.1582,881.5637 L1387.2089,882.1593 L1377.2595,881.9974 L1367.3101,883.3984 L1357.3608,883.4632 L1347.4114,883.6595 L1337.462,882.4522 L1327.5127,883.0481 L1317.5633,882.9076 L1307.6139,884.7664 L1297.6646,884.3657 L1287.7152,881.9334 L1277.7658,883.0337 L1267.8165,881.6889 L1257.8671,883.9972 L1247.9177,884.8508 L1237.9684,884.6803 L1228.019,882.0667 L1218.0696,884.4654 L1208.1203,881.2473 L1198.1709,883.7619 L1188.2215,882.43 L1178.2722,883.4861 L1168.3228,883.8691 L1158.3734,884.4871 L1148.4241,881.3084 L1138.4747,884.4961 L1128.5253,883.7033 L1118.5759,884.1757 L1108.6266,885.2223 L1098.6772,883.2428 L1088.7278,883.6955 L1078.7785,883.7973 L1068.8291,883.7541 L1058.8797,883.226 L1048.9304,885.1234 L1038.981,881.6022 L1029.0316,884.7356 L1019.0823,881.5642 L1009.1329,881.7873 L999.1835,883.3349 L989.2342,883.3036 L979.2848,881.9139 L969.3354,884.3314 L959.3861,883.5184 L949.4367,885.1659 L939.4873,885.0071 L929.538,882.0328 L919.5886,882.167 L909.6392,882.8837 L899.6899,884.1762 L889.7405,884.3028 L879.7911,884.0312 L869.8418,882.3163 L859.8924,884.9251 L849.943,884.9183 L839.9937,883.1021 L830.0443,882.5907 L820.0949,882.1578 L810.1456,882.6559 L800.1962,883.5946 L790.2468,883.0458 L780.2975,882.114 L770.3481,884.5278 L760.3987,882.0043 L750.4494,884.5678 L740.5,883.2282 L740.5,883.2282 " fill="#FFFFE0" style="stroke:#181818;stroke-width:4.0;"/><path d="M1526.5,883.2282 L1526.6868,883.2282 L1526.1317,885.2282 L1526.6718,887.2282 L1526.8553,889.2282 L1525.8659,891.2282 L1526.5,893.2282 L1526.5,893.1591 L1528.5,892.8491 L1530.5,892.8873 L1532.5,893.1676 L1534.5,892.6136 L1536.5,893.2282 L1536.848,893.5761 L1534.1038,890.832 L1532.3757,889.1039 L1530.7715,887.4997 L1528.4461,885.1742 L1526.5,883.2282 " fill="#FFFFE0" style="stroke:#181818;stroke-width:4.0;"/><text fill="#000000" font-family="Chalkduster" font-size="24" lengthAdjust="spacing" textLength="775" x="746.5" y="912.069">If you made it here, you found a disiplne, institutional</text><text fill="#000000" font-family="Chalkduster" font-size="24" lengthAdjust="spacing" textLength="734" x="746.5" y="942.6989">or generalist repo that can address all of the above</text><text fill="#000000" font-family="Chalkduster" font-size="24" lengthAdjust="spacing" textLength="769" x="746.5" y="973.3287">considerations, sensitivity, access control, data volume</text><polygon fill="#F1F1F1" points="644,908.858,644,909.0682,654.6667,908.4437,665.3333,909.0513,676,909.2577,686.6667,908.1446,697.3333,908.7803,708,908.858,707.9456,908.7266,709.7188,909.4721,711.5268,910.3015,713.2151,910.8418,715.1417,911.9574,716.8388,912.5192,716.6447,912.4388,717.5102,914.2617,718.4363,916.1098,719.0091,917.8115,719.7888,919.5989,720.5,921.358,720.4894,921.358,720.5595,926.484,720.5797,931.6099,720.6952,936.7359,720.7237,941.8619,720.5,946.9878,720.7092,947.0745,719.8462,948.7881,719.1783,950.5825,718.5196,952.3807,717.349,953.9669,716.8388,955.8267,716.9254,956.0356,715.0332,956.4676,713.3714,957.4555,711.4724,957.8709,709.759,958.7345,708,959.4878,708,960.2294,697.3333,959.4391,686.6667,959.5931,676,959.8265,665.3333,959.9041,654.6667,959.4839,644,959.4878,644.0366,959.5763,642.1592,958.5793,640.5007,958.1109,638.7666,957.4599,636.9856,956.6958,635.1612,955.8267,635.35,955.9049,634.2802,953.9973,633.4959,952.2079,632.7731,950.4441,632.2141,948.7481,631.5,946.9878,631.4345,946.9878,631.7271,941.8619,631.4418,936.7359,631.3856,931.6099,631.5761,926.484,631.5,921.358,631.2946,921.2729,632.0724,919.524,633.1643,917.9052,633.8309,916.1103,634.6551,914.3806,635.1612,912.5192,635.1201,912.4201,636.9696,911.8852,638.772,911.2365,640.4042,910.177,642.22,909.5607,644,908.858" style="stroke:#181818;stroke-width:0.5;"/><text fill="#000000" font-family="Chalkduster" font-size="24" lengthAdjust="spacing" textLength="69" x="641.5" y="942.6989">done</text><path d="M676,136.232 L676.2802,136.232 L675.4476,146.1232 L676.2577,156.0143 L676.5329,165.9054 L675.0488,175.7966 L675.8964,185.6877 L675.4313,195.5788 L675.4887,205.4699 L675.9091,215.3611 L675.0782,225.2522 L676.7382,235.1433 L675.1596,245.0344 L675.7363,254.9256 L676.5759,264.8167 L675.8856,274.7078 L676.091,284.599 L675.9574,294.4901 L676,304.3812 " fill="#8B0000" style="stroke:#8B0000;stroke-width:4.0;"/><polygon fill="#8B0000" points="672,294.3812,672.065,294.4072,672.6718,296.3299,673.6598,298.4051,674.5237,300.4307,674.9792,302.2929,676,304.3812,675.9759,304.3716,676.668,302.3284,677.4813,300.3337,678.3789,298.3728,678.986,296.2956,680,294.3812,680.1305,294.5117,679.0514,295.0327,678.3534,295.9346,677.7018,296.883,676.7798,297.561,676,298.3812,676.0161,298.3973,675.1925,297.5737,674.4421,296.8233,673.6564,296.0376,672.938,295.3193,672,294.3812" style="stroke:#8B0000;stroke-width:1.0;"/><path d="M1034.125,766.9392 L1034.2184,766.9392 L1033.9409,770.9392 L1034.2109,774.9392 L1034.3026,778.9392 L1033.8079,782.9392 L1034.125,786.9392 " fill="#8B0000" style="stroke:#8B0000;stroke-width:4.0;"/><polygon fill="#8B0000" points="1030.125,776.9392,1030.19,776.9652,1030.7968,778.8879,1031.7848,780.9631,1032.6487,782.9887,1033.1042,784.8509,1034.125,786.9392,1034.1009,786.9296,1034.793,784.8864,1035.6063,782.8917,1036.5039,780.9308,1037.111,778.8536,1038.125,776.9392,1038.2555,777.0697,1037.1764,777.5907,1036.4784,778.4926,1035.8268,779.441,1034.9048,780.119,1034.125,780.9392,1034.1411,780.9553,1033.3175,780.1317,1032.5671,779.3813,1031.7814,778.5956,1031.063,777.8773,1030.125,776.9392" style="stroke:#8B0000;stroke-width:1.0;"/><path d="M487.125,690.9945 L487.125,691.0879 L485.125,690.8103 L483.125,691.0804 L481.125,691.1721 L479.125,690.6774 L477.125,690.9945 " fill="#8B0000" style="stroke:#8B0000;stroke-width:4.0;"/><path d="M477.125,690.9945 L477.2184,690.9945 L476.9409,696.0574 L477.2109,701.1204 L477.3026,706.1834 L476.8079,711.2464 L477.125,716.3094 " fill="#8B0000" style="stroke:#8B0000;stroke-width:4.0;"/><polygon fill="#8B0000" points="473.125,706.3094,473.19,706.3354,473.7968,708.2581,474.7848,710.3333,475.6487,712.3589,476.1042,714.2211,477.125,716.3094,477.1009,716.2998,477.793,714.2566,478.6063,712.2619,479.5039,710.3009,480.111,708.2238,481.125,706.3094,481.2555,706.4399,480.1764,706.9608,479.4784,707.8628,478.8268,708.8112,477.9048,709.4892,477.125,710.3094,477.1411,710.3255,476.3175,709.5018,475.5671,708.7515,474.7814,707.9657,474.063,707.2474,473.125,706.3094" style="stroke:#8B0000;stroke-width:1.0;"/><path d="M1024.125,690.9945 L1024.125,691.0879 L1026.125,690.8103 L1028.125,691.0804 L1030.125,691.1721 L1032.125,690.6774 L1034.125,690.9945 " fill="#8B0000" style="stroke:#8B0000;stroke-width:4.0;"/><path d="M1034.125,690.9945 L1034.2184,690.9945 L1033.9409,696.0574 L1034.2109,701.1204 L1034.3026,706.1834 L1033.8079,711.2464 L1034.125,716.3094 " fill="#8B0000" style="stroke:#8B0000;stroke-width:4.0;"/><polygon fill="#8B0000" points="1030.125,706.3094,1030.19,706.3354,1030.7968,708.2581,1031.7848,710.3333,1032.6487,712.3589,1033.1042,714.2211,1034.125,716.3094,1034.1009,716.2998,1034.793,714.2566,1035.6063,712.2619,1036.5039,710.3009,1037.111,708.2238,1038.125,706.3094,1038.2555,706.4399,1037.1764,706.9608,1036.4784,707.8628,1035.8268,708.8112,1034.9048,709.4892,1034.125,710.3094,1034.1411,710.3255,1033.3175,709.5018,1032.5671,708.7515,1031.7814,707.9657,1031.063,707.2474,1030.125,706.3094" style="stroke:#8B0000;stroke-width:1.0;"/><path d="M477.125,766.9392 L477.4052,766.9392 L476.5726,777.6059 L477.3827,788.2725 L477.6579,798.9392 L476.1738,809.6059 L477.0214,820.2725 L477.125,830.9392 " fill="#8B0000" style="stroke:#8B0000;stroke-width:4.0;"/><path d="M477.125,830.9392 L477.125,831.2195 L487.1587,830.3868 L497.1923,831.1969 L507.226,831.4721 L517.2596,829.988 L527.2933,830.8356 L537.3269,830.3706 L547.3606,830.4279 L557.3942,830.8483 L567.4279,830.0174 L577.4615,831.6774 L587.4952,830.0988 L597.5288,830.6755 L607.5625,831.5151 L617.5962,830.8248 L627.6298,831.0302 L637.6635,830.8966 L647.6971,831.1772 L657.7308,831.2581 L667.7644,831.7201 L677.7981,831.8339 L687.8317,831.8449 L697.8654,831.2787 L707.899,831.5573 L717.9327,831.8755 L727.9663,829.9776 L738,831.8439 L748.0337,830.5439 L758.0673,831.651 L768.101,830.2792 L778.1346,830.8479 L788.1683,831.928 L798.2019,830.8742 L808.2356,831.0796 L818.2692,831.3907 L828.3029,831.4942 L838.3365,830.934 L848.3702,831.3222 L858.4038,830.176 L868.4375,831.3184 L878.4712,831.6701 L888.5048,831.5319 L898.5385,831.7566 L908.5721,830.2951 L918.6058,830.0696 L928.6394,830.1107 L938.6731,830.8607 L948.7067,830.6772 L958.7404,831.8478 L968.774,830.7063 L978.8077,830.4818 L988.8413,831.2436 L998.875,830.9392 " fill="#8B0000" style="stroke:#8B0000;stroke-width:4.0;"/><polygon fill="#8B0000" points="988.875,826.9392,988.901,827.0043,990.8237,827.611,992.8989,828.599,994.9245,829.4629,996.7867,829.9184,998.875,830.9392,998.8654,830.9152,996.8222,831.6072,994.8275,832.4205,992.8666,833.3181,990.7894,833.9252,988.875,834.9392,989.0055,835.0697,989.5264,833.9907,990.4284,833.2926,991.3768,832.641,992.0548,831.719,992.875,830.9392,992.8911,830.9553,992.0675,830.1317,991.3171,829.3813,990.5314,828.5956,989.813,827.8773,988.875,826.9392" style="stroke:#8B0000;stroke-width:1.0;"/><path d="M862.875,635.0497 L862.875,635.33 L853.125,634.4973 L843.375,635.3074 L833.625,635.5826 L823.875,634.0985 L814.125,634.9461 L804.375,634.4811 L794.625,634.5384 L784.875,634.9588 L775.125,634.1279 L765.375,635.7879 L755.625,635.0497 " fill="#8B0000" style="stroke:#8B0000;stroke-width:4.0;"/><path d="M755.625,635.0497 L755.7184,635.0497 L755.4409,643.1757 L755.7109,651.3016 L755.8026,659.4276 L755.3079,667.5536 L755.625,675.6795 " fill="#8B0000" style="stroke:#8B0000;stroke-width:4.0;"/><polygon fill="#8B0000" points="751.625,665.6795,751.69,665.7056,752.2968,667.6283,753.2848,669.7035,754.1487,671.729,754.6042,673.5912,755.625,675.6795,755.6009,675.6699,756.293,673.6267,757.1063,671.6321,758.0039,669.6711,758.611,667.594,759.625,665.6795,759.7555,665.81,758.6764,666.331,757.9784,667.2329,757.3268,668.1814,756.4048,668.8593,755.625,669.6795,755.6411,669.6956,754.8175,668.872,754.0671,668.1216,753.2814,667.3359,752.563,666.6176,751.625,665.6795" style="stroke:#8B0000;stroke-width:1.0;"/><path d="M1158.875,635.0497 L1158.875,635.33 L1168.625,634.4973 L1178.375,635.3074 L1188.125,635.5826 L1197.875,634.0985 L1207.625,634.9461 L1217.375,634.4811 L1227.125,634.5384 L1236.875,634.9588 L1246.625,634.1279 L1256.375,635.7879 L1266.125,635.0497 " fill="#8B0000" style="stroke:#8B0000;stroke-width:4.0;"/><path d="M1266.125,635.0497 L1266.2184,635.0497 L1265.9409,643.1757 L1266.2109,651.3016 L1266.3026,659.4276 L1265.8079,667.5536 L1266.125,675.6795 " fill="#8B0000" style="stroke:#8B0000;stroke-width:4.0;"/><polygon fill="#8B0000" points="1262.125,665.6795,1262.19,665.7056,1262.7968,667.6283,1263.7848,669.7035,1264.6487,671.729,1265.1042,673.5912,1266.125,675.6795,1266.1009,675.6699,1266.793,673.6267,1267.6063,671.6321,1268.5039,669.6711,1269.111,667.594,1270.125,665.6795,1270.2555,665.81,1269.1764,666.331,1268.4784,667.2329,1267.8268,668.1814,1266.9048,668.8593,1266.125,669.6795,1266.1411,669.6956,1265.3175,668.872,1264.5671,668.1216,1263.7814,667.3359,1263.063,666.6176,1262.125,665.6795" style="stroke:#8B0000;stroke-width:1.0;"/><path d="M1266.125,726.3094 L1266.4052,726.3094 L1265.5726,736.7724 L1266.3827,747.2353 L1266.6579,757.6983 L1265.1738,768.1613 L1266.0214,778.6243 L1265.5563,789.0873 L1265.6137,799.5503 L1266.0341,810.0132 L1265.2032,820.4762 L1266.125,830.9392 " fill="#8B0000" style="stroke:#8B0000;stroke-width:4.0;"/><path d="M1266.125,830.9392 L1266.125,831.2195 L1255.9896,830.3868 L1245.8542,831.1969 L1235.7188,831.4721 L1225.5833,829.988 L1215.4479,830.8356 L1205.3125,830.3706 L1195.1771,830.4279 L1185.0417,830.8483 L1174.9063,830.0174 L1164.7708,831.6774 L1154.6354,830.0988 L1144.5,830.6755 L1134.3646,831.5151 L1124.2292,830.8248 L1114.0938,831.0302 L1103.9583,830.8966 L1093.8229,831.1772 L1083.6875,831.2581 L1073.5521,831.7201 L1063.4167,831.8339 L1053.2813,831.8449 L1043.1458,831.2787 L1033.0104,831.5573 L1022.875,830.9392 " fill="#8B0000" style="stroke:#8B0000;stroke-width:4.0;"/><polygon fill="#8B0000" points="1032.875,826.9392,1032.901,827.0043,1030.8237,827.611,1028.8989,828.599,1026.9245,829.4629,1024.7867,829.9184,1022.875,830.9392,1022.8654,830.9152,1024.8222,831.6072,1026.8275,832.4205,1028.8666,833.3181,1030.7894,833.9252,1032.875,834.9392,1033.0055,835.0697,1031.9264,833.9907,1031.2284,833.2926,1030.5768,832.641,1029.6548,831.719,1028.875,830.9392,1028.8911,830.9553,1029.6675,830.1317,1030.5171,829.3813,1031.3314,828.5956,1032.213,827.8773,1032.875,826.9392" style="stroke:#8B0000;stroke-width:1.0;"/><path d="M457,563.79 L457,564.0703 L447.3438,563.2376 L437.6875,564.0478 L428.0313,564.3229 L418.375,562.8388 L408.7188,563.6864 L399.0625,563.2214 L389.4063,563.2787 L379.75,563.6992 L370.0938,562.8682 L360.4375,564.5282 L350.7813,562.9497 L341.125,563.79 " fill="#8B0000" style="stroke:#8B0000;stroke-width:4.0;"/><path d="M341.125,563.79 L341.2184,563.79 L340.9409,571.916 L341.2109,580.042 L341.3026,588.1679 L340.8079,596.2939 L341.125,604.4199 " fill="#8B0000" style="stroke:#8B0000;stroke-width:4.0;"/><polygon fill="#8B0000" points="337.125,594.4199,337.19,594.4459,337.7968,596.3686,338.7848,598.4438,339.6487,600.4694,340.1042,602.3316,341.125,604.4199,341.1009,604.4103,341.793,602.3671,342.6063,600.3724,343.5039,598.4114,344.111,596.3343,345.125,594.4199,345.2555,594.5504,344.1764,595.0713,343.4784,595.9733,342.8268,596.9217,341.9048,597.5997,341.125,598.4199,341.1411,598.436,340.3175,597.6123,339.5671,596.862,338.7814,596.0762,338.063,595.3579,337.125,594.4199" style="stroke:#8B0000;stroke-width:1.0;"/><path d="M895,563.79 L895,564.0703 L904.6563,563.2376 L914.3125,564.0478 L923.9688,564.3229 L933.625,562.8388 L943.2813,563.6864 L952.9375,563.2214 L962.5938,563.2787 L972.25,563.6992 L981.9063,562.8682 L991.5625,564.5282 L1001.2188,562.9497 L1010.875,563.79 " fill="#8B0000" style="stroke:#8B0000;stroke-width:4.0;"/><path d="M1010.875,563.79 L1010.9684,563.79 L1010.6909,571.916 L1010.9609,580.042 L1011.0526,588.1679 L1010.5579,596.2939 L1010.875,604.4199 " fill="#8B0000" style="stroke:#8B0000;stroke-width:4.0;"/><polygon fill="#8B0000" points="1006.875,594.4199,1006.94,594.4459,1007.5468,596.3686,1008.5348,598.4438,1009.3987,600.4694,1009.8542,602.3316,1010.875,604.4199,1010.8509,604.4103,1011.543,602.3671,1012.3563,600.3724,1013.2539,598.4114,1013.861,596.3343,1014.875,594.4199,1015.0055,594.5504,1013.9264,595.0713,1013.2284,595.9733,1012.5768,596.9217,1011.6548,597.5997,1010.875,598.4199,1010.8911,598.436,1010.0675,597.6123,1009.3171,596.862,1008.5314,596.0762,1007.813,595.3579,1006.875,594.4199" style="stroke:#8B0000;stroke-width:1.0;"/><path d="M341.125,655.0497 L341.4052,655.0497 L340.5726,664.854 L341.3827,674.6582 L341.6579,684.4625 L340.1738,694.2668 L341.0214,704.071 L340.5563,713.8753 L340.6137,723.6795 L341.0341,733.4838 L340.2032,743.2881 L341.8632,753.0923 L340.2846,762.8966 L340.8613,772.7009 L341.7009,782.5051 L341.0106,792.3094 L341.216,802.1136 L341.0824,811.9179 L341.363,821.7222 L341.4438,831.5264 L341.9059,841.3307 L342.0197,851.1349 L341.125,860.9392 " fill="#8B0000" style="stroke:#8B0000;stroke-width:4.0;"/><path d="M341.125,860.9392 L341.125,861.2195 L351.2148,860.3868 L361.3047,861.1969 L371.3945,861.4721 L381.4844,859.988 L391.5742,860.8356 L401.6641,860.3706 L411.7539,860.4279 L421.8438,860.8483 L431.9336,860.0174 L442.0234,861.6774 L452.1133,860.0988 L462.2031,860.6755 L472.293,861.5151 L482.3828,860.8248 L492.4727,861.0302 L502.5625,860.8966 L512.6523,861.1772 L522.7422,861.2581 L532.832,861.7201 L542.9219,861.8339 L553.0117,861.8449 L563.1016,861.2787 L573.1914,861.5573 L583.2813,861.8755 L593.3711,859.9776 L603.4609,861.8439 L613.5508,860.5439 L623.6406,861.651 L633.7305,860.2792 L643.8203,860.8479 L653.9102,861.928 L664,860.9392 " fill="#8B0000" style="stroke:#8B0000;stroke-width:4.0;"/><polygon fill="#8B0000" points="654,856.9392,654.026,857.0043,655.9487,857.611,658.0239,858.599,660.0495,859.4629,661.9117,859.9184,664,860.9392,663.9904,860.9152,661.9472,861.6072,659.9525,862.4205,657.9916,863.3181,655.9144,863.9252,654,864.9392,654.1305,865.0697,654.6514,863.9907,655.5534,863.2926,656.5018,862.641,657.1798,861.719,658,860.9392,658.0161,860.9553,657.1925,860.1317,656.4421,859.3813,655.6564,858.5956,654.938,857.8773,654,856.9392" style="stroke:#8B0000;stroke-width:1.0;"/><path d="M1010.875,842.9392 L1010.9684,842.9392 L1010.6909,846.5392 L1010.9609,850.1392 L1011.0526,853.7392 L1010.5579,857.3392 L1010.875,860.9392 " fill="#8B0000" style="stroke:#8B0000;stroke-width:4.0;"/><path d="M1010.875,860.9392 L1010.875,861.2195 L1000.7852,860.3868 L990.6953,861.1969 L980.6055,861.4721 L970.5156,859.988 L960.4258,860.8356 L950.3359,860.3706 L940.2461,860.4279 L930.1563,860.8483 L920.0664,860.0174 L909.9766,861.6774 L899.8867,860.0988 L889.7969,860.6755 L879.707,861.5151 L869.6172,860.8248 L859.5273,861.0302 L849.4375,860.8966 L839.3477,861.1772 L829.2578,861.2581 L819.168,861.7201 L809.0781,861.8339 L798.9883,861.8449 L788.8984,861.2787 L778.8086,861.5573 L768.7188,861.8755 L758.6289,859.9776 L748.5391,861.8439 L738.4492,860.5439 L728.3594,861.651 L718.2695,860.2792 L708.1797,860.8479 L698.0898,861.928 L688,860.9392 " fill="#8B0000" style="stroke:#8B0000;stroke-width:4.0;"/><polygon fill="#8B0000" points="698,856.9392,698.026,857.0043,695.9487,857.611,694.0239,858.599,692.0495,859.4629,689.9117,859.9184,688,860.9392,687.9904,860.9152,689.9472,861.6072,691.9525,862.4205,693.9916,863.3181,695.9144,863.9252,698,864.9392,698.1305,865.0697,697.0514,863.9907,696.3534,863.2926,695.7018,862.641,694.7798,861.719,694,860.9392,694.0161,860.9553,694.7925,860.1317,695.6421,859.3813,696.4564,858.5956,697.338,857.8773,698,856.9392" style="stroke:#8B0000;stroke-width:1.0;"/><path d="M676,355.011 L676.2802,355.011 L675.4476,364.9082 L676.2577,374.8054 L676.5329,384.7026 L675.0488,394.5997 L675.8964,404.4969 L675.4313,414.3941 L675.4887,424.2913 L675.9091,434.1885 L675.0782,444.0856 L676.7382,453.9828 L675.1596,463.88 L675.7363,473.7772 L676.5759,483.6743 L675.8856,493.5715 L676.091,503.4687 L675.9574,513.3659 L676.238,523.263 L676,533.1602 " fill="#8B0000" style="stroke:#8B0000;stroke-width:4.0;"/><polygon fill="#8B0000" points="672,523.1602,672.065,523.1862,672.6718,525.1089,673.6598,527.1841,674.5237,529.2097,674.9792,531.0719,676,533.1602,675.9759,533.1506,676.668,531.1074,677.4813,529.1127,678.3789,527.1518,678.986,525.0746,680,523.1602,680.1305,523.2907,679.0514,523.8117,678.3534,524.7136,677.7018,525.662,676.7798,526.34,676,527.1602,676.0161,527.1763,675.1925,526.3527,674.4421,525.6023,673.6564,524.8166,672.938,524.0983,672,523.1602" style="stroke:#8B0000;stroke-width:1.0;"/><path d="M676,872.9392 L676.0934,872.9392 L675.8159,880.123 L676.0859,887.3067 L676.1776,894.4905 L675.6829,901.6742 L676,908.858 " fill="#8B0000" style="stroke:#8B0000;stroke-width:4.0;"/><polygon fill="#8B0000" points="672,898.858,672.065,898.884,672.6718,900.8067,673.6598,902.8819,674.5237,904.9075,674.9792,906.7697,676,908.858,675.9759,908.8484,676.668,906.8052,677.4813,904.8105,678.3789,902.8496,678.986,900.7724,680,898.858,680.1305,898.9885,679.0514,899.5094,678.3534,900.4114,677.7018,901.3598,676.7798,902.0378,676,902.858,676.0161,902.8741,675.1925,902.0505,674.4421,901.3001,673.6564,900.5144,672.938,899.796,672,898.858" style="stroke:#8B0000;stroke-width:1.0;"/><!--SRC=[NLF1Rjim3BthAxXR0jZntJaCHGiKFGreK0m32WogHCV2PCcJg6pUru-qazI9JnAfz_ZuI7znmVXYyUUWmmIxNMCrwPel-eW31gepJHvtz9UK8aSUMtW88P8cjF1Sd4MW28zzZDc58sXuOZoyuiXtYcbIgks9njmsZKxMxD2MdIvDmXnBCjWSXQAcM9ipHQthMKAwKZHxrJx6aFbXsYkkZU2n8_Mznm0MZRDI-K-l2GG9dqYHfiRouLtkmGNuXHEOCvCcnoSujz-g6ZAQaXnD41bmNF8SFkCnCV7luj9iYoHC78OI1C2S9mwU0IvaTgh8LNiOetTcse72O474BnqaT-n9FVWShufQO33rREWq8iHkwMQA1NJ2YmnkLKfGXYwcWLlMJDivZv3TFpodHgx0ShXwmf9nVhESk9PrI-SAG3oHWaB51Il8UgfuXgmOWq4MhRwHT7vdcj7XQfo8Fc7Ad90ni6nX5EbYAK-15mbyD3FqFerCI-uqctwJqSPWpYkvQmFbSnri3kZHKFDYfTbkOk67yi6Hzn0JFCL1Stk7aHUaSsQrabif563p0_DMjM_iYgFzJAhGysqJubQ157YRlRiTw7kuMx8BtHKr_mmCX6SCR1bFZUx_YWjc4WayXniLi58nvuOAP7PYpsiBJycTyEj-ph6_8xzdaxeBRBhlQibU3wsD0VUh9GJrqirRDcWh8E21OpL7kbZOSmtMPJVwmD4RAnJRVFpiKInXaRoJiX_QsYGZrDvVPgi_uWb1tIvJjTw2QZLuIj5NopzmYhuCk5g0_m00]--></g></svg>