<?xml version="1.0" encoding="us-ascii" standalone="no"?><svg xmlns="http://www.w3.org/2000/svg" xmlns:xlink="http://www.w3.org/1999/xlink" contentStyleType="text/css" height="1096px" preserveAspectRatio="none" style="width:1743px;height:1096px;background:#FFFFFF;" version="1.1" viewBox="0 0 1743 1096" width="1743px" zoomAndPan="magnify"><defs/><g><text fill="#000000" font-family="Chalkduster" font-size="42" font-weight="bold" lengthAdjust="spacing" textLength="666" x="537" y="61.7215">Choosing a Data Repository</text><path d="M1168,90.6022 L1168.1868,90.6022 L1167.6317,93.8652 L1168.1718,97.1282 L1168.3553,100.3912 L1167.3659,103.6541 L1168,106.9171 L1167.9865,106.8494 L1163.9257,107.3454 L1159.9331,108.1829 L1155.9881,109.2577 L1151.8795,109.5145 L1148,110.9171 L1148.0965,111.3997 L1151.8901,111.1678 L1155.9655,112.3447 L1160.0753,113.6936 L1163.985,114.0424 L1168,114.9171 L1168.0607,114.9171 L1167.9716,118.1801 L1168.1587,121.4431 L1168.2126,124.7061 L1168.5206,127.9691 L1168,131.232 L1168,131.232 L1168,133.0215 L1178.0536,133.0434 L1188.1071,131.911 L1198.1607,132.4683 L1208.2143,133.1047 L1218.2679,129.3089 L1228.3214,133.0414 L1238.375,130.4414 L1248.4286,132.6555 L1258.4821,129.912 L1268.5357,131.0494 L1278.5893,133.2097 L1288.6429,131.1021 L1298.6964,131.5128 L1308.75,132.1351 L1318.8036,132.342 L1328.8571,131.2216 L1338.9107,131.9979 L1348.9643,129.7056 L1359.0179,131.9904 L1369.0714,132.6939 L1379.125,132.4175 L1389.1786,132.8668 L1399.2321,129.9438 L1409.2857,129.4929 L1419.3393,129.575 L1429.3929,131.075 L1439.4464,130.708 L1449.5,133.0491 L1459.5536,130.7662 L1469.6071,130.3172 L1479.6607,131.8408 L1489.7143,129.4538 L1499.7679,129.8477 L1509.8214,132.9626 L1519.875,132.3938 L1529.9286,133.1907 L1539.9821,130.3739 L1550.0357,132.0832 L1560.0893,132.8065 L1570.1429,129.9723 L1580.1964,130.9764 L1590.25,131.568 L1600.3036,132.9701 L1610.3571,131.2209 L1620.4107,132.4656 L1630.4643,129.7553 L1640.5179,129.426 L1650.5714,132.575 L1660.625,129.3202 L1670.6786,132.5893 L1680.7321,131.7831 L1690.7857,130.5176 L1700.8393,130.2887 L1710.8929,132.4554 L1720.9464,130.4338 L1731,131.232 L1731,131.232 L1731.5261,131.232 L1730.5087,125.1061 L1731.5488,118.9801 L1731.4305,112.8541 L1731.2177,106.7282 L1731,100.6022 L1731.0297,100.6319 L1729.4567,99.0589 L1727.3857,96.9879 L1725.1064,94.7086 L1723.1686,92.7708 L1721,90.6022 L1721,90.2548 L1710.9455,92.5127 L1700.8909,91.0152 L1690.8364,91.0624 L1680.7818,88.9799 L1670.7273,89.5216 L1660.6727,92.0175 L1650.6182,91.7482 L1640.5636,90.4877 L1630.5091,89.7431 L1620.4545,90.0184 L1610.4,88.7724 L1600.3455,91.7082 L1590.2909,92.5744 L1580.2364,92.0059 L1570.1818,92.4554 L1560.1273,90.2376 L1550.0727,90.8348 L1540.0182,89.5686 L1529.9636,91.3597 L1519.9091,91.2602 L1509.8545,92.0752 L1499.8,89.9898 L1489.7455,90.2438 L1479.6909,91.7848 L1469.6364,92.1151 L1459.5818,89.2355 L1449.5273,90.0852 L1439.4727,91.0002 L1429.4182,88.9733 L1419.3636,91.5446 L1409.3091,91.2902 L1399.2545,90.3335 L1389.2,90.9815 L1379.1455,92.5453 L1369.0909,89.7679 L1359.0364,91.4422 L1348.9818,91.3639 L1338.9273,90.9109 L1328.8727,90.978 L1318.8182,90.9048 L1308.7636,88.9378 L1298.7091,89.5334 L1288.6545,89.3715 L1278.6,90.7724 L1268.5455,90.8372 L1258.4909,91.0335 L1248.4364,89.8263 L1238.3818,90.4222 L1228.3273,90.2816 L1218.2727,92.1405 L1208.2182,91.7397 L1198.1636,89.3075 L1188.1091,90.4077 L1178.0545,89.0629 L1168,90.6022 L1168,90.6022 " fill="#FFFFE0" style="stroke:#181818;stroke-width:4.0;"/><path d="M1721,90.6022 L1721.1868,90.6022 L1720.6317,92.6022 L1721.1718,94.6022 L1721.3553,96.6022 L1720.3659,98.6022 L1721,100.6022 L1721,100.5331 L1723,100.2231 L1725,100.2613 L1727,100.5416 L1729,99.9877 L1731,100.6022 L1731.348,100.9502 L1728.6038,98.2061 L1726.8757,96.4779 L1725.2715,94.8737 L1722.9461,92.5483 L1721,90.6022 " fill="#FFFFE0" style="stroke:#181818;stroke-width:4.0;"/><text fill="#000000" font-family="Chalkduster" font-size="24" lengthAdjust="spacing" textLength="542" x="1174" y="119.4431">Size, Granularity, Access Control, APIs</text><polygon fill="#F1F1F1" points="813.5,85.6022,813.5,85.8124,823.5625,85.1879,833.625,85.7955,843.6875,86.0019,853.75,84.8888,863.8125,85.5245,873.875,85.1757,883.9375,85.2187,894,85.5341,904.0625,84.9108,914.125,86.1559,924.1875,84.9719,934.25,85.4044,944.3125,86.0342,954.375,85.5164,964.4375,85.6704,974.5,85.5703,984.5625,85.7807,994.625,85.8413,1004.6875,86.1879,1014.75,86.2733,1024.8125,86.2815,1034.875,85.8568,1044.9375,86.0658,1055,86.3044,1065.0625,84.881,1075.125,86.2807,1085.1875,85.3057,1095.25,86.136,1105.3125,85.1072,1115.375,85.5337,1125.4375,86.3438,1135.5,85.6022,1135.4938,85.5872,1137.2812,86.3669,1139.0787,87.171,1140.8564,87.9271,1142.5706,88.5299,1144.3388,89.2634,1144.4273,89.3,1144.8948,90.9581,1145.8909,92.8352,1146.7044,94.6366,1147.4047,96.3911,1148,98.1022,1148.2043,98.1022,1147.839,103.2282,1147.7826,108.3541,1147.7929,113.4801,1147.9804,118.6061,1148,123.732,1147.9395,123.707,1147.4776,125.5867,1146.4817,127.2453,1145.6977,128.9916,1145.1414,130.8322,1144.3388,132.5709,1144.2538,132.3655,1142.5048,133.1432,1140.8861,134.2352,1139.0911,134.9017,1137.3615,135.726,1135.5,136.232,1135.5,135.9102,1125.4375,136.5512,1115.375,136.8225,1105.3125,135.7596,1095.25,136.1362,1085.1875,136.358,1075.125,136.8838,1065.0625,136.2279,1055,136.6946,1044.9375,135.6783,1034.875,135.5548,1024.8125,136.7357,1014.75,135.5151,1004.6875,136.741,994.625,136.4387,984.5625,135.9641,974.5,135.8783,964.4375,136.6908,954.375,135.9327,944.3125,136.8239,934.25,135.6793,924.1875,136.8495,914.125,136.7163,904.0625,136.477,894,136.2793,883.9375,136.9587,873.875,136.8456,863.8125,136.4013,853.75,136.5002,843.6875,136.1018,833.625,136.9485,823.5625,136.3869,813.5,136.232,813.522,136.2852,811.6546,135.3125,809.9128,134.6428,808.2644,134.1988,806.4838,133.4355,804.6612,132.5709,804.6479,132.5654,803.8297,130.762,803.1293,129.0074,802.2532,127.18,801.86,125.5527,801,123.732,801.2465,123.732,801.1755,118.6061,801.2316,113.4801,800.9544,108.3541,801.0291,103.2282,801,98.1022,800.8806,98.0528,801.8197,96.3707,802.5405,94.5982,803.3668,92.8694,803.8582,91.0018,804.6612,89.2634,804.644,89.222,806.4855,88.6677,808.2691,87.9736,809.8991,86.9088,811.7075,86.2747,813.5,85.6022" style="stroke:#181818;stroke-width:0.5;"/><text fill="#000000" font-family="Chalkduster" font-size="24" lengthAdjust="spacing" textLength="327" x="811" y="119.4431">Document Requirements</text><polygon fill="#F1F1F1" points="845,314.7514,845,314.9616,854.9615,314.3371,864.9231,314.9447,874.8846,315.1511,884.8462,314.038,894.8077,314.6737,904.7692,314.3249,914.7308,314.3679,924.6923,314.6832,934.6538,314.06,944.6154,315.305,954.5769,314.1211,964.5385,314.5536,974.5,315.1833,984.4615,314.6656,994.4231,314.8196,1004.3846,314.7194,1014.3462,314.9299,1024.3077,314.9905,1034.2692,315.3371,1044.2308,315.4224,1054.1923,315.4306,1064.1538,315.006,1074.1154,315.215,1084.0769,315.4536,1094.0385,314.0302,1104,314.7514,1104.0866,314.9603,1105.7299,315.3923,1107.6036,316.3802,1109.2402,316.7956,1111.0623,317.6592,1112.8388,318.4125,1113.0672,318.5071,1113.5561,320.1741,1114.3357,321.9615,1115.1398,323.759,1115.8959,325.5367,1116.5,327.2514,1116.4987,327.2514,1116.5957,332.3773,1116.3092,337.5033,1116.5948,342.6293,1116.6827,347.7552,1116.5,352.8812,1116.6369,352.9379,1115.9566,354.7272,1114.8868,356.3551,1114.1025,358.1013,1113.3797,359.873,1112.8388,361.72,1112.8313,361.7019,1111.046,362.3918,1109.3902,363.3944,1107.5133,363.863,1105.724,364.5433,1104,365.3812,1104,365.6095,1094.0385,364.7144,1084.0769,364.8621,1074.1154,366.0302,1064.1538,365.8169,1054.1923,366.1157,1044.2308,365.0594,1034.2692,365.7004,1024.3077,365.9716,1014.3462,364.9088,1004.3846,365.2854,994.4231,365.5072,984.4615,366.033,974.5,365.377,964.5385,365.8438,954.5769,364.8274,944.6154,364.704,934.6538,365.8848,924.6923,364.6643,914.7308,365.8902,904.7692,365.5878,894.8077,365.1133,884.8462,365.0274,874.8846,365.84,864.9231,365.0819,854.9615,365.9731,845,365.3812,844.9295,365.211,843.311,364.8391,841.5262,364.0659,839.7279,363.26,837.935,362.4668,836.1612,361.72,836.3849,361.8127,835.6179,360.0305,834.7488,358.2061,834.0471,356.451,833.1921,354.6324,832.5,352.8812,832.7388,352.8812,832.5516,347.7552,832.5575,342.6293,832.2972,337.5033,832.3649,332.3773,832.5,327.2514,832.6634,327.3191,833.3646,325.5384,833.9512,323.7104,834.5975,321.907,835.3615,320.1524,836.1612,318.4125,836.0736,318.2012,837.9818,317.808,839.791,317.1758,841.5316,316.378,843.3209,315.6976,845,314.7514" style="stroke:#181818;stroke-width:0.5;"/><text fill="#000000" font-family="Chalkduster" font-size="24" lengthAdjust="spacing" textLength="264" x="842.5" y="348.5923">Use Discipline Repo</text><polygon fill="none" points="985.5608,399.0568,983.9484,401.26,982.0412,404.4869,979.3136,406.6616,976.4474,407.8508,974.162,407.954,971.2247,406.4668,968.4532,405.4951,966.3495,403.5224,965.2461,401.264,964.5917,399.4657,963.9506,397.1169,962.91,395.0957,963.7096,393.1222,964.4102,390.9604,967.0393,389.2507,968.889,387.0323,971.1784,386.2957,973.9001,385.6613,977.3904,386.0382,979.3021,386.9397,981.5247,387.3484,984.2272,390.1172,985.1693,393.0402,985.5786,395.0346,985.115,398.3211" style="stroke:#222222;stroke-width:1.0;"/><polygon fill="#222222" points="980.5331,397.8406,979.6536,399.0424,978.6134,400.8025,977.1256,401.9887,975.5622,402.6374,974.3156,402.6937,972.7135,401.8824,971.2017,401.3524,970.0543,400.2764,969.4524,399.0445,969.0955,398.0637,968.7458,396.7825,968.1782,395.68,968.6143,394.6036,968.9965,393.4244,970.4305,392.4918,971.4394,391.2818,972.6882,390.88,974.1728,390.534,976.0766,390.7396,977.1193,391.2313,978.3317,391.4542,979.8057,392.9645,980.3196,394.5588,980.5429,395.6467,980.29,397.4393" style="stroke:#111111;stroke-width:1.0;"/><polygon fill="#F1F1F1" points="816.5,250.8066,816.5,251.0168,826.375,250.3923,836.25,250.9999,846.125,251.2063,856,250.0932,865.875,250.7289,875.75,250.3801,885.625,250.4231,895.5,250.7385,905.375,250.1153,915.25,251.3603,925.125,250.1763,935,250.6089,944.875,251.2386,954.75,250.7209,964.625,250.8749,974.5,250.7747,984.375,250.9852,994.25,251.0458,1004.125,251.3923,1014,251.4777,1023.875,251.4859,1033.75,251.0613,1043.625,251.2702,1053.5,251.5089,1063.375,250.0854,1073.25,251.4851,1083.125,250.5101,1093,251.3404,1102.875,250.3116,1112.75,250.7381,1122.625,251.5482,1132.5,250.8066,1132.4872,250.7966,1134.9276,253.8913,1137.3888,257.0022,1139.8092,260.0811,1142.099,263.0578,1144.5,266.1215,1144.5754,266.1806,1141.9498,269.0668,1139.7746,272.306,1137.4438,275.4232,1135.0166,278.4649,1132.5,281.4365,1132.5,282.0495,1122.625,280.9534,1112.75,280.7843,1102.875,280.8151,1093,281.3776,1083.125,281.2399,1073.25,282.1179,1063.375,281.2618,1053.5,281.0934,1043.625,281.6647,1033.75,280.7696,1023.875,280.9173,1014,282.0854,1004.125,281.8721,994.25,282.171,984.375,281.1147,974.5,281.7557,964.625,282.0269,954.75,280.9641,944.875,281.3406,935,281.5624,925.125,282.0882,915.25,281.4323,905.375,281.899,895.5,280.8827,885.625,280.7592,875.75,281.9401,865.875,280.7195,856,281.9454,846.125,281.6431,836.25,281.1685,826.375,281.0827,816.5,281.4365,816.6204,281.5308,814.0215,278.3119,811.8553,275.4322,809.155,272.1339,807.062,269.3115,804.5,266.1215,804.6271,266.2211,806.9643,263.1089,809.3124,260.0053,811.8906,257.082,814.261,253.9958,816.5,250.8066" style="stroke:#181818;stroke-width:0.5;"/><text fill="#000000" font-family="Chalkduster" font-size="24" lengthAdjust="spacing" textLength="42" x="978.5" y="305.2773">yes</text><text fill="#000000" font-family="Chalkduster" font-size="24" lengthAdjust="spacing" textLength="316" x="816.5" y="274.6475">meets all requirements</text><text fill="#000000" font-family="Chalkduster" font-size="24" lengthAdjust="spacing" textLength="35" x="1144.5" y="259.3326">no</text><polygon fill="#F1F1F1" points="588,156.232,588,156.4422,598.039,155.8177,608.0779,156.4253,618.1169,156.6317,628.1558,155.5186,638.1948,156.1543,648.2338,155.8056,658.2727,155.8485,668.3117,156.1639,678.3506,155.5407,688.3896,156.7857,698.4286,155.6018,708.4675,156.0343,718.5065,156.664,728.5455,156.1463,738.5844,156.3003,748.6234,156.2001,758.6623,156.4106,768.7013,156.4712,778.7403,156.8177,788.7792,156.9031,798.8182,156.9113,808.8571,156.4867,818.8961,156.6956,828.9351,156.9343,838.974,155.5109,849.013,156.9106,859.0519,155.9355,869.0909,156.7659,879.1299,155.737,889.1688,156.1635,899.2078,156.9736,909.2468,156.1833,919.2857,156.3373,929.3247,156.5707,939.3636,156.6483,949.4026,156.2281,959.4416,156.5193,969.4805,155.6596,979.5195,156.5164,989.5584,156.7802,999.5974,156.6766,1009.6364,156.8451,1019.6753,155.749,1029.7143,155.5799,1039.7532,155.6106,1049.7922,156.1732,1059.8312,156.0355,1069.8701,156.9135,1079.9091,156.0574,1089.9481,155.889,1099.987,156.4603,1110.026,155.5652,1120.0649,155.7129,1130.1039,156.881,1140.1429,156.6677,1150.1818,156.9665,1160.2208,155.9102,1170.2597,156.5512,1180.2987,156.8225,1190.3377,155.7596,1200.3766,156.1362,1210.4156,156.358,1220.4545,156.8838,1230.4935,156.2279,1240.5325,156.6946,1250.5714,155.6783,1260.6104,155.5548,1270.6494,156.7357,1280.6883,155.5151,1290.7273,156.741,1300.7662,156.4387,1310.8052,155.9641,1320.8442,155.8783,1330.8831,156.6908,1340.9221,155.9327,1350.961,156.8239,1361,156.232,1360.8284,156.1648,1363.5916,162.4331,1365.9503,168.5429,1368.276,174.6397,1370.6147,180.7417,1373,186.8619,1373.2255,186.9502,1370.7904,193.0625,1368.2525,199.1344,1365.8832,205.2724,1363.3596,211.3499,1361,217.4917,1361,218.2082,1350.961,217.6466,1340.9221,217.6643,1330.8831,216.8834,1320.8442,217.0865,1310.8052,218.0225,1300.7662,217.9215,1290.7273,217.4488,1280.6883,217.1695,1270.6494,217.2728,1260.6104,216.8055,1250.5714,217.9064,1240.5325,218.2313,1230.4935,218.0181,1220.4545,218.1866,1210.4156,217.355,1200.3766,217.5789,1190.3377,217.1041,1180.2987,217.7758,1170.2597,217.7385,1160.2208,218.0441,1150.1818,217.2621,1140.1429,217.3573,1130.1039,217.9352,1120.0649,218.059,1110.026,216.9792,1099.987,217.2978,1089.9481,217.641,1079.9091,216.8809,1069.8701,217.8451,1059.8312,217.7497,1049.7922,217.3909,1039.7532,217.634,1029.7143,218.2204,1019.6753,217.1788,1009.6364,217.8067,999.5974,217.7774,989.5584,217.6075,979.5195,217.6326,969.4805,217.6052,959.4416,216.8676,949.4026,217.0909,939.3636,217.0302,929.3247,217.5555,919.2857,217.5798,909.2468,217.6535,899.2078,217.2007,889.1688,217.4242,879.1299,217.3715,869.0909,218.0686,859.0519,217.9183,849.013,217.0062,838.974,217.4188,828.9351,216.9145,818.8961,217.7801,808.8571,218.1002,798.8182,218.0363,788.7792,217.0562,778.7403,217.9557,768.7013,216.7489,758.6623,217.6919,748.6234,217.1924,738.5844,217.5884,728.5455,217.732,718.5065,217.9638,708.4675,216.7718,698.4286,217.9672,688.3896,217.6699,678.3506,217.847,668.3117,218.2395,658.2727,217.4972,648.2338,217.667,638.1948,217.7051,628.1558,217.6889,618.1169,217.4909,608.0779,218.2024,598.039,216.882,588,217.4917,588.1754,217.5604,585.4063,211.2899,583.0323,205.1741,580.8124,199.1187,578.4088,192.9913,576,186.8619,575.847,186.802,578.5284,180.7862,580.8338,174.6232,583.4255,168.5723,585.807,162.4391,588,156.232" style="stroke:#181818;stroke-width:0.5;"/><text fill="#000000" font-family="Chalkduster" font-size="24" lengthAdjust="spacing" textLength="42" x="978.5" y="241.3326">yes</text><text fill="#000000" font-family="Chalkduster" font-size="24" lengthAdjust="spacing" textLength="773" x="588" y="180.0729">Is there standard repository for your discipline / field</text><text fill="#000000" font-family="Chalkduster" font-size="24" lengthAdjust="spacing" textLength="361" x="588" y="210.7028">eg PARADISEC, ADA, ALA...</text><polygon fill="#F1F1F1" points="974.5,449.3812,974.5495,449.4308,976.8023,451.6836,979.3456,454.2268,981.7942,456.6754,983.9319,458.8131,986.5,461.3812,986.4817,461.3629,983.9995,463.6807,981.6096,466.0908,979.2839,468.5651,976.737,470.8183,974.5,473.3812,974.6305,473.5117,971.9514,470.8327,969.6534,468.5346,967.4018,466.283,964.8798,463.761,962.5,461.3812,962.5161,461.3973,964.8925,458.9737,967.3421,456.6233,969.7564,454.2376,972.238,451.9193,974.5,449.3812" style="stroke:#181818;stroke-width:0.5;"/><path d="M10,585.8812 L10.5605,585.8812 L8.8951,596.0801 L10.5154,606.279 L11.0658,616.4779 L8.0976,626.6768 L9.7928,636.8757 L8.8627,647.0746 L8.9773,657.2735 L9.8182,667.4724 L8.1563,677.6713 L11.4764,687.8702 L8.3193,698.0691 L9.4726,708.2679 L11.1519,718.4668 L9.7713,728.6657 L10.182,738.8646 L9.9148,749.0635 L10.4761,759.2624 L10.6377,769.4613 L10,779.6602 L10,781.222 L19.9286,781.4497 L29.8571,781.4716 L39.7857,780.3392 L49.7143,780.8964 L59.6429,781.5328 L69.5714,777.737 L79.5,781.4696 L89.4286,778.8695 L99.3571,781.0837 L109.2857,778.3401 L119.2143,779.4775 L129.1429,781.6378 L139.0714,779.5303 L149,779.941 L158.9286,780.5632 L168.8571,780.7702 L178.7857,779.6498 L188.7143,780.4261 L198.6429,778.1338 L208.5714,780.4186 L218.5,781.1221 L228.4286,780.8456 L238.3571,781.2949 L248.2857,778.372 L258.2143,777.9211 L268.1429,778.0031 L278.0714,779.5032 L288,779.1361 L297.9286,781.4773 L307.8571,779.1944 L317.7857,778.7454 L327.7143,780.2689 L337.6429,777.882 L347.5714,778.2759 L357.5,781.3907 L367.4286,780.822 L377.3571,781.6189 L387.2857,778.8021 L397.2143,780.5114 L407.1429,781.2347 L417.0714,778.4005 L427,779.6602 L426.7444,779.6602 L427.336,769.4503 L428.738,759.2403 L426.9888,749.0304 L428.2335,738.8204 L425.5232,728.6105 L425.194,718.4005 L428.343,708.1906 L425.0882,697.9807 L428.3572,687.7707 L427.551,677.5608 L426.2856,667.3508 L426.0566,657.1409 L428.2234,646.9309 L426.2018,636.721 L428.5783,626.511 L425.526,616.3011 L428.6465,606.0912 L427,595.8812 L427.3044,596.1856 L425.154,594.0352 L423.0297,591.9109 L421.4567,590.3379 L419.3857,588.2669 L417,585.8812 L417,586.3326 L407.0732,586.5964 L397.1463,585.5338 L387.2195,587.7917 L377.2927,586.2942 L367.3659,586.3414 L357.439,584.2589 L347.5122,584.8006 L337.5854,587.2965 L327.6585,587.0272 L317.7317,585.7667 L307.8049,585.0221 L297.878,585.2974 L287.9512,584.0514 L278.0244,586.9872 L268.0976,587.8534 L258.1707,587.2849 L248.2439,587.7344 L238.3171,585.5166 L228.3902,586.1138 L218.4634,584.8476 L208.5366,586.6387 L198.6098,586.5392 L188.6829,587.3542 L178.7561,585.2688 L168.8293,585.5228 L158.9024,587.0638 L148.9756,587.3941 L139.0488,584.5145 L129.122,585.3642 L119.1951,586.2792 L109.2683,584.2523 L99.3415,586.8236 L89.4146,586.5692 L79.4878,585.6125 L69.561,586.2605 L59.6341,587.8243 L49.7073,585.0469 L39.7805,586.7212 L29.8537,586.6429 L19.9268,586.1899 L10,585.8812 " fill="#FFFFE0" style="stroke:#181818;stroke-width:4.0;"/><path d="M417,585.8812 L417.1868,585.8812 L416.6317,587.8812 L417.1718,589.8812 L417.3553,591.8812 L416.3659,593.8812 L417,595.8812 L417,595.8121 L419,595.5021 L421,595.5403 L423,595.8206 L425,595.2667 L427,595.8812 L427.348,596.2292 L424.6038,593.4851 L422.8757,591.7569 L421.2715,590.1527 L418.9461,587.8273 L417,585.8812 " fill="#FFFFE0" style="stroke:#181818;stroke-width:4.0;"/><text fill="#000000" font-family="Chalkduster" font-size="24" lengthAdjust="spacing" textLength="335" x="16" y="614.7221">Assumption: Insitutional</text><text fill="#000000" font-family="Chalkduster" font-size="24" lengthAdjust="spacing" textLength="373" x="16" y="645.3519">and generalist repositories</text><text fill="#000000" font-family="Chalkduster" font-size="24" lengthAdjust="spacing" textLength="360" x="16" y="675.9818">are Open Access only and</text><text fill="#000000" font-family="Chalkduster" font-size="24" lengthAdjust="spacing" textLength="352" x="16" y="706.6116">usually have size limits /</text><text fill="#000000" font-family="Chalkduster" font-size="24" lengthAdjust="spacing" textLength="396" x="16" y="737.2414">not suitable for collections-</text><text fill="#000000" font-family="Chalkduster" font-size="24" lengthAdjust="spacing" textLength="132" x="16" y="767.8713">type data</text><polygon fill="#F1F1F1" points="653,557.326,653,557.5361,663.0469,556.9116,673.0938,557.5192,683.1406,557.7256,693.1875,556.6126,703.2344,557.2482,713.2813,556.8995,723.3281,556.9425,733.375,557.2578,743.4219,556.6346,753.4688,557.8796,763.5156,556.6957,773.5625,557.1282,783.6094,557.7579,793.6563,557.2402,803.7031,557.3942,813.75,557.294,823.7969,557.5045,833.8438,557.5651,843.8906,557.9117,853.9375,557.997,863.9844,558.0052,874.0313,557.5806,884.0781,557.7895,894.125,558.0282,904.1719,556.6048,914.2188,558.0045,924.2656,557.0295,934.3125,557.8598,944.3594,556.8309,954.4063,557.2575,964.4531,558.0676,974.5,557.2772,984.5469,557.4313,994.5938,557.6646,1004.6406,557.7422,1014.6875,557.3221,1024.7344,557.6132,1034.7813,556.7535,1044.8281,557.6103,1054.875,557.8742,1064.9219,557.7705,1074.9688,557.939,1085.0156,556.8429,1095.0625,556.6738,1105.1094,556.7046,1115.1563,557.2671,1125.2031,557.1294,1135.25,558.0074,1145.2969,557.1513,1155.3438,556.9829,1165.3906,557.5542,1175.4375,556.6591,1185.4844,556.8068,1195.5313,557.9749,1205.5781,557.7616,1215.625,558.0605,1225.6719,557.0042,1235.7188,557.6452,1245.7656,557.9164,1255.8125,556.8536,1265.8594,557.2301,1275.9063,557.4519,1285.9531,557.9777,1296,557.326,1295.9989,557.3251,1298.5214,560.484,1300.6547,563.3381,1303.0223,566.3757,1305.7321,569.6814,1308,572.6409,1307.8119,572.4935,1305.7335,575.8085,1303.2542,578.8093,1300.7297,581.7747,1298.3072,584.8201,1296,587.9558,1296,588.4146,1285.9531,587.6565,1275.9063,588.5477,1265.8594,587.403,1255.8125,588.5732,1245.7656,588.4401,1235.7188,588.2008,1225.6719,588.003,1215.625,588.6824,1205.5781,588.5694,1195.5313,588.125,1185.4844,588.224,1175.4375,587.8255,1165.3906,588.6722,1155.3438,588.1107,1145.2969,588.1284,1135.25,587.3474,1125.2031,587.5506,1115.1563,588.4865,1105.1094,588.3856,1095.0625,587.9129,1085.0156,587.6336,1074.9688,587.7369,1064.9219,587.2696,1054.875,588.3705,1044.8281,588.6954,1034.7813,588.4822,1024.7344,588.6507,1014.6875,587.8191,1004.6406,588.043,994.5938,587.5682,984.5469,588.2398,974.5,588.2026,964.4531,588.5082,954.4063,587.7261,944.3594,587.8214,934.3125,588.3993,924.2656,588.5231,914.2188,587.4433,904.1719,587.7619,894.125,588.1051,884.0781,587.3449,874.0313,588.3092,863.9844,588.2138,853.9375,587.855,843.8906,588.098,833.8438,588.6845,823.7969,587.6429,813.75,588.2708,803.7031,588.2414,793.6563,588.0716,783.6094,588.0967,773.5625,588.0693,763.5156,587.3316,753.4688,587.555,743.4219,587.4943,733.375,588.0196,723.3281,588.0439,713.2813,588.1175,703.2344,587.6648,693.1875,587.8883,683.1406,587.8356,673.0938,588.5326,663.0469,588.3824,653,587.9558,652.8726,587.856,650.5809,584.8778,648.0485,581.7112,645.8757,578.8261,643.5597,575.829,641,572.6409,641.1429,572.7528,643.2857,569.4883,645.9217,566.6103,648.0051,563.2992,650.6525,560.4301,653,557.326" style="stroke:#181818;stroke-width:0.5;"/><text fill="#000000" font-family="Chalkduster" font-size="24" lengthAdjust="spacing" textLength="643" x="653" y="581.1668">Institutional repo exists &amp; meets requirements</text><text fill="#000000" font-family="Chalkduster" font-size="24" lengthAdjust="spacing" textLength="42" x="599" y="565.8519">yes</text><text fill="#000000" font-family="Chalkduster" font-size="24" lengthAdjust="spacing" textLength="35" x="1308" y="565.8519">no</text><polygon fill="#F1F1F1" points="479.5,597.9558,479.5,598.166,489.6,597.5415,499.7,598.1491,509.8,598.3555,519.9,597.2424,530,597.8781,540.1,597.5293,550.2,597.5723,560.3,597.8876,570.4,597.2644,580.5,598.5094,590.6,597.3255,600.7,597.758,610.8,598.3877,620.9,597.87,631,598.024,641.1,597.9238,651.2,598.1343,661.3,598.1949,671.4,598.5415,681.5,598.6268,691.6,598.6351,701.7,598.2104,711.8,598.4194,721.9,598.658,732,597.2346,742.1,598.6343,752.2,597.6593,762.3,598.4896,772.4,597.4608,782.5,597.9558,782.4913,597.9347,784.3624,598.9164,786.0293,599.4053,787.8167,600.1849,789.6143,600.989,791.3388,601.617,791.467,601.6701,792.0699,603.3842,792.8918,605.1891,793.3593,606.8472,794.3553,608.7243,795,610.4558,795.1827,610.4558,795.1482,615.5818,795.2043,620.7077,794.839,625.8337,794.7826,630.9597,795,636.0856,794.8086,636.0064,794.2496,637.8459,793.475,639.5961,793.0131,641.4758,792.0173,643.1344,791.3388,644.9245,791.2951,644.8188,789.6002,645.727,787.7182,646.1836,785.9693,646.9613,784.3505,648.0532,782.5,648.5856,782.5,649.0213,772.4,649.3201,762.3,648.2638,752.2,648.9048,742.1,649.176,732,648.1132,721.9,648.4898,711.8,648.7116,701.7,649.2374,691.6,648.5814,681.5,649.0482,671.4,648.0318,661.3,647.9084,651.2,649.0892,641.1,647.8687,631,649.0946,620.9,648.7923,610.8,648.3177,600.7,648.2319,590.6,649.0444,580.5,648.2863,570.4,649.1775,560.3,648.0329,550.2,649.2031,540.1,649.0699,530,648.8306,519.9,648.6328,509.8,649.3122,499.7,649.1992,489.6,648.7549,479.5,648.5856,479.5342,648.6682,477.7156,647.8133,476.0559,647.3418,474.2165,646.4366,472.4509,645.7098,470.6612,644.9245,470.4738,644.8469,469.8041,643.105,469.3601,641.4566,468.5968,639.676,467.719,637.8479,467,636.0856,466.8926,636.0856,466.927,630.9597,466.7713,625.8337,467.1382,620.7077,467.2465,615.5818,467,610.4558,467.1621,610.5229,467.9462,608.7767,468.4224,606.9028,469.2236,605.1636,469.8096,603.3353,470.6612,601.617,470.6974,601.7044,472.4604,600.9607,474.2672,600.3226,475.9352,599.3495,477.7151,598.6466,479.5,597.9558" style="stroke:#181818;stroke-width:0.5;"/><text fill="#000000" font-family="Chalkduster" font-size="24" lengthAdjust="spacing" textLength="308" x="477" y="631.7967">Use Institutional Repo</text><polygon fill="none" points="642.0608,697.2613,640.4484,699.4644,638.5412,702.6913,635.8136,704.866,632.9474,706.0552,630.662,706.1584,627.7247,704.6712,624.9532,703.6995,622.8495,701.7268,621.7461,699.4684,621.0917,697.6702,620.4506,695.3213,619.41,693.3001,620.2096,691.3266,620.9102,689.1649,623.5393,687.4551,625.389,685.2367,627.6784,684.5001,630.4001,683.8657,633.8904,684.2426,635.8021,685.1442,638.0247,685.5528,640.7272,688.3216,641.6693,691.2446,642.0786,693.239,641.615,696.5255" style="stroke:#222222;stroke-width:1.0;"/><polygon fill="#222222" points="637.0331,696.0451,636.1536,697.2468,635.1134,699.0069,633.6256,700.1931,632.0622,700.8418,630.8156,700.8981,629.2135,700.0868,627.7017,699.5569,626.5543,698.4808,625.9524,697.249,625.5955,696.2681,625.2458,694.9869,624.6782,693.8844,625.1143,692.808,625.4965,691.6288,626.9305,690.6963,627.9394,689.4862,629.1882,689.0844,630.6728,688.7384,632.5766,688.944,633.6193,689.4357,634.8317,689.6586,636.3057,691.1689,636.8196,692.7632,637.0429,693.8511,636.79,695.6437" style="stroke:#111111;stroke-width:1.0;"/><polygon fill="#F1F1F1" points="1282.5,661.9005,1282.5,662.1107,1292.6429,661.4862,1302.7857,662.0938,1312.9286,662.3002,1323.0714,661.1871,1333.2143,661.8228,1343.3571,661.474,1353.5,661.9005,1353.4511,661.7824,1355.2591,662.6118,1356.9473,663.1521,1358.8739,664.2677,1360.4907,664.6354,1362.3388,665.5617,1362.2779,665.5365,1363.2041,667.3846,1363.7769,669.0863,1364.5565,670.8737,1365.2579,672.6287,1366,674.4005,1366.0595,674.4005,1366.0797,679.5265,1366.1952,684.6525,1366.2237,689.7784,1366.2264,694.9044,1366,700.0304,1366.0784,700.0629,1365.4105,701.8573,1364.7518,703.6555,1363.5812,705.2417,1363.28,707.188,1362.3388,708.8692,1362.301,708.7779,1360.6392,709.7658,1358.7402,710.1812,1357.0268,711.0448,1355.3624,712.0265,1353.5,712.5304,1353.5,712.4816,1343.3571,712.6357,1333.2143,712.869,1323.0714,712.9466,1312.9286,712.5265,1302.7857,712.8176,1292.6429,711.958,1282.5,712.5304,1282.5363,712.618,1280.8022,711.967,1279.0212,711.2028,1277.2749,710.5225,1275.3673,709.4527,1273.6612,708.8692,1273.4603,708.786,1272.7376,707.0222,1272.1786,705.3262,1271.4039,703.5408,1270.9421,701.8851,1270,700.0304,1269.9418,700.0304,1269.8856,694.9044,1270.0761,689.7784,1269.7777,684.6525,1269.827,679.5265,1270,674.4005,1270.1999,674.4833,1270.8664,672.6884,1271.6907,670.9587,1272.0976,669.0562,1273.0272,667.3702,1273.6612,665.5617,1273.7365,665.7435,1275.3687,664.684,1277.1845,664.0677,1278.9805,663.4038,1280.8154,662.8335,1282.5,661.9005" style="stroke:#181818;stroke-width:0.5;"/><text fill="#000000" font-family="Chalkduster" font-size="24" lengthAdjust="spacing" textLength="76" x="1280" y="695.7414">Use it</text><polygon fill="none" points="1329.0608,761.206,1327.4484,763.4092,1325.5412,766.6361,1322.8136,768.8108,1319.9474,770,1317.662,770.1032,1314.7247,768.6159,1311.9532,767.6443,1309.8495,765.6716,1308.7461,763.4132,1308.0917,761.6149,1307.4506,759.2661,1306.41,757.2448,1307.2096,755.2714,1307.9102,753.1096,1310.5393,751.3999,1312.389,749.1815,1314.6784,748.4448,1317.4001,747.8104,1320.8904,748.1873,1322.8021,749.0889,1325.0247,749.4976,1327.7272,752.2664,1328.6693,755.1893,1329.0786,757.1837,1328.615,760.4703" style="stroke:#222222;stroke-width:1.0;"/><polygon fill="#222222" points="1324.0331,759.9898,1323.1536,761.1915,1322.1134,762.9517,1320.6256,764.1379,1319.0622,764.7865,1317.8156,764.8428,1316.2135,764.0316,1314.7017,763.5016,1313.5543,762.4256,1312.9524,761.1937,1312.5955,760.2129,1312.2458,758.9317,1311.6782,757.8292,1312.1143,756.7527,1312.4965,755.5736,1313.9305,754.641,1314.9394,753.431,1316.1882,753.0292,1317.6728,752.6831,1319.5766,752.8887,1320.6193,753.3805,1321.8317,753.6034,1323.3057,755.1136,1323.8196,756.708,1324.0429,757.7958,1323.79,759.5885" style="stroke:#111111;stroke-width:1.0;"/><polygon fill="#F1F1F1" points="1079.5,597.9558,1079.5,598.166,1089.4375,597.5415,1099.375,598.1491,1109.3125,598.3555,1119.25,597.2424,1129.1875,597.8781,1139.125,597.5293,1149.0625,597.5723,1159,597.8876,1168.9375,597.2644,1178.875,598.5094,1188.8125,597.3255,1198.75,597.758,1208.6875,598.3877,1218.625,597.87,1228.5625,598.024,1238.5,597.9238,1248.4375,598.1343,1258.375,598.1949,1268.3125,598.5415,1278.25,598.6268,1288.1875,598.6351,1298.125,598.2104,1308.0625,598.4194,1318,598.658,1327.9375,597.2346,1337.875,598.6343,1347.8125,597.6593,1357.75,598.4896,1367.6875,597.4608,1377.625,597.8873,1387.5625,598.6974,1397.5,597.9071,1407.4375,598.0611,1417.375,598.2944,1427.3125,598.372,1437.25,597.9519,1447.1875,598.243,1457.125,597.3834,1467.0625,598.2402,1477,598.504,1486.9375,598.4003,1496.875,598.5688,1506.8125,597.4727,1516.75,597.3036,1526.6875,597.3344,1536.625,597.8969,1546.5625,597.7593,1556.5,597.9558,1556.6788,598.0959,1558.8542,600.9829,1561.21,604.0112,1563.7599,607.1917,1565.925,610.0706,1568.5,613.2707,1568.3638,613.164,1566.2703,616.4671,1563.8143,619.4862,1561.4927,622.6107,1558.8156,625.4565,1556.5,628.5856,1556.5,628.9048,1546.5625,629.176,1536.625,628.1132,1526.6875,628.4898,1516.75,628.7116,1506.8125,629.2374,1496.875,628.5814,1486.9375,629.0482,1477,628.0318,1467.0625,627.9084,1457.125,629.0892,1447.1875,627.8687,1437.25,629.0946,1427.3125,628.7923,1417.375,628.3177,1407.4375,628.2319,1397.5,629.0444,1387.5625,628.2863,1377.625,629.1775,1367.6875,628.0329,1357.75,629.2031,1347.8125,629.0699,1337.875,628.8306,1327.9375,628.6328,1318,629.3122,1308.0625,629.1992,1298.125,628.7549,1288.1875,628.8538,1278.25,628.4554,1268.3125,629.3021,1258.375,628.7405,1248.4375,628.7582,1238.5,627.9773,1228.5625,628.1804,1218.625,629.1164,1208.6875,629.0154,1198.75,628.5427,1188.8125,628.2635,1178.875,628.3667,1168.9375,627.8995,1159,629.0004,1149.0625,629.3252,1139.125,629.112,1129.1875,629.2806,1119.25,628.4489,1109.3125,628.6728,1099.375,628.198,1089.4375,628.8697,1079.5,628.5856,1079.5647,628.6364,1077.2449,625.6362,1074.6397,622.4124,1072.2647,619.369,1070.0164,616.4249,1067.5,613.2707,1067.6489,613.3873,1069.7655,610.1024,1072.2491,607.1049,1074.7392,604.1124,1076.9397,600.8932,1079.5,597.9558" style="stroke:#181818;stroke-width:0.5;"/><text fill="#000000" font-family="Chalkduster" font-size="24" lengthAdjust="spacing" textLength="42" x="1322" y="652.4265">yes</text><text fill="#000000" font-family="Chalkduster" font-size="24" lengthAdjust="spacing" textLength="477" x="1079.5" y="621.7967">There's a suitable Generalist Repo</text><text fill="#000000" font-family="Chalkduster" font-size="24" lengthAdjust="spacing" textLength="35" x="1568.5" y="606.4818">no</text><polygon fill="#F1F1F1" points="785.5,493.3812,785.5,493.5914,795.4474,492.9669,805.3947,493.5745,815.3421,493.7809,825.2895,492.6678,835.2368,493.3035,845.1842,492.9547,855.1316,492.9977,865.0789,493.3131,875.0263,492.6898,884.9737,493.9349,894.9211,492.7509,904.8684,493.1834,914.8158,493.8132,924.7632,493.2954,934.7105,493.4494,944.6579,493.3493,954.6053,493.5597,964.5526,493.6203,974.5,493.9669,984.4474,494.0523,994.3947,494.0605,1004.3421,493.6358,1014.2895,493.8448,1024.2368,494.0834,1034.1842,492.66,1044.1316,494.0597,1054.0789,493.0847,1064.0263,493.915,1073.9737,492.8862,1083.9211,493.3127,1093.8684,494.1228,1103.8158,493.3325,1113.7632,493.4865,1123.7105,493.7198,1133.6579,493.7974,1143.6053,493.3773,1153.5526,493.6684,1163.5,493.3812,1163.3498,493.2635,1165.9746,496.5027,1168.4438,499.6199,1170.8166,502.6616,1173.2608,505.7592,1175.5,508.6961,1175.3732,508.5968,1172.9289,511.625,1170.537,514.6943,1168.2846,517.873,1165.8484,520.9077,1163.5,524.011,1163.5,524.6925,1153.5526,523.8364,1143.6053,523.668,1133.6579,524.2393,1123.7105,523.3442,1113.7632,523.4919,1103.8158,524.66,1093.8684,524.4467,1083.9211,524.7455,1073.9737,523.6892,1064.0263,524.3302,1054.0789,524.6015,1044.1316,523.5386,1034.1842,523.9152,1024.2368,524.137,1014.2895,524.6628,1004.3421,524.0069,994.3947,524.4736,984.4474,523.4573,974.5,523.3338,964.5526,524.5147,954.6053,523.2941,944.6579,524.52,934.7105,524.2177,924.7632,523.7431,914.8158,523.6573,904.8684,524.4698,894.9211,523.7117,884.9737,524.6029,875.0263,523.4583,865.0789,524.6285,855.1316,524.4953,845.1842,524.256,835.2368,524.0583,825.2895,524.7377,815.3421,524.6246,805.3947,524.1803,795.4474,524.2792,785.5,524.011,785.4658,523.9843,783.288,521.0954,780.7406,517.9169,778.3453,514.8576,775.7404,511.634,773.5,508.6961,773.3937,508.6128,776.0393,505.7423,778.4128,502.6585,780.6887,499.4984,783.0155,496.378,785.5,493.3812" style="stroke:#181818;stroke-width:0.5;"/><text fill="#000000" font-family="Chalkduster" font-size="24" lengthAdjust="spacing" textLength="42" x="978.5" y="547.8519">yes</text><text fill="#000000" font-family="Chalkduster" font-size="24" lengthAdjust="spacing" textLength="378" x="785.5" y="517.2221">You have Open Access Data</text><polygon fill="#F1F1F1" points="974.5,821.6602,974.5495,821.7098,976.8023,823.9626,979.3456,826.5058,981.7942,828.9544,983.9319,831.0921,986.5,833.6602,986.4817,833.6419,983.9995,835.9597,981.6096,838.3698,979.2839,840.8441,976.737,843.0973,974.5,845.6602,974.6305,845.7907,971.9514,843.1117,969.6534,840.8136,967.4018,838.562,964.8798,836.04,962.5,833.6602,962.5161,833.6763,964.8925,831.2527,967.3421,828.9023,969.7564,826.5166,972.238,824.1983,974.5,821.6602" style="stroke:#181818;stroke-width:0.5;"/><polygon fill="#F1F1F1" points="645,876.2641,645,876.4743,654.9848,875.8498,664.9697,876.4574,674.9545,876.6638,684.9394,875.5507,694.9242,876.1864,704.9091,875.8376,714.8939,875.8806,724.8788,876.1959,734.8636,875.5727,744.8485,876.8177,754.8333,875.6338,764.8182,876.0663,774.803,876.696,784.7879,876.1783,794.7727,876.3323,804.7576,876.2321,814.7424,876.4426,824.7273,876.5032,834.7121,876.8498,844.697,876.9351,854.6818,876.9433,864.6667,876.5187,874.6515,876.7277,884.6364,876.9663,894.6212,875.5429,904.6061,876.9426,914.5909,875.9676,924.5758,876.7979,934.5606,875.7691,944.5455,876.1956,954.5303,877.0057,964.5152,876.2153,974.5,876.3694,984.4848,876.6027,994.4697,876.6803,1004.4545,876.2602,1014.4394,876.5513,1024.4242,875.6917,1034.4091,876.5485,1044.3939,876.8123,1054.3788,876.7086,1064.3636,876.8771,1074.3485,875.781,1084.3333,875.6119,1094.3182,875.6427,1104.303,876.2052,1114.2879,876.0675,1124.2727,876.9455,1134.2576,876.0894,1144.2424,875.921,1154.2273,876.4923,1164.2121,875.5972,1174.197,875.745,1184.1818,876.913,1194.1667,876.6997,1204.1515,876.9986,1214.1364,875.9423,1224.1212,876.5833,1234.1061,876.8545,1244.0909,875.7917,1254.0758,876.1682,1264.0606,876.3901,1274.0455,876.9158,1284.0303,876.2599,1294.0152,876.7266,1304,876.2641,1303.8547,876.1502,1306.2223,879.1878,1308.9321,882.4936,1311.0119,885.3056,1313.7335,888.6206,1316,891.579,1316.0542,891.6215,1313.5297,894.5869,1311.1072,897.6322,1308.9204,900.8623,1306.3215,903.7694,1304,906.8939,1304,907.4858,1294.0152,906.3412,1284.0303,907.5113,1274.0455,907.3782,1264.0606,907.1389,1254.0758,906.9411,1244.0909,907.6205,1234.1061,907.5075,1224.1212,907.0632,1214.1364,907.1621,1204.1515,906.7636,1194.1667,907.6104,1184.1818,907.0488,1174.197,907.0665,1164.2121,906.2856,1154.2273,906.4887,1144.2424,907.4247,1134.2576,907.3237,1124.2727,906.851,1114.2879,906.5717,1104.303,906.675,1094.3182,906.2077,1084.3333,907.3086,1074.3485,907.6335,1064.3636,907.4203,1054.3788,907.5888,1044.3939,906.7572,1034.4091,906.9811,1024.4242,906.5063,1014.4394,907.1779,1004.4545,907.1407,994.4697,907.4463,984.4848,906.6643,974.5,906.7595,964.5152,907.3374,954.5303,907.4612,944.5455,906.3814,934.5606,906.7,924.5758,907.0432,914.5909,906.2831,904.6061,907.2473,894.6212,907.1519,884.6364,906.7931,874.6515,907.0362,864.6667,907.6226,854.6818,906.581,844.697,907.2089,834.7121,907.1796,824.7273,907.0097,814.7424,907.0348,804.7576,907.0074,794.7727,906.2698,784.7879,906.4931,774.803,906.4324,764.8182,906.9577,754.8333,906.982,744.8485,907.0557,734.8636,906.6029,724.8788,906.8264,714.8939,906.7737,704.9091,907.4708,694.9242,907.3205,684.9394,906.4084,674.9545,906.821,664.9697,906.3167,654.9848,907.1823,645,906.8939,645.1597,907.019,642.7429,903.9429,640.0857,900.6784,637.9217,897.8003,635.2051,894.4893,633,891.579,633.0525,891.6201,635.3215,888.4545,637.8254,885.4729,640.2631,882.4395,642.7239,879.4241,645,876.2641" style="stroke:#181818;stroke-width:0.5;"/><text fill="#000000" font-family="Chalkduster" font-size="24" lengthAdjust="spacing" textLength="659" x="645" y="900.105">You have project funding or eResearch Support</text><text fill="#000000" font-family="Chalkduster" font-size="24" lengthAdjust="spacing" textLength="42" x="591" y="884.79">yes</text><text fill="#000000" font-family="Chalkduster" font-size="24" lengthAdjust="spacing" textLength="35" x="1316" y="884.79">no</text><polygon fill="#F1F1F1" points="419,916.8939,419,917.1041,428.9512,916.4796,438.9024,917.0872,448.8537,917.2936,458.8049,916.1805,468.7561,916.8162,478.7073,916.4674,488.6585,916.5104,498.6098,916.8258,508.561,916.2025,518.5122,917.4476,528.4634,916.2636,538.4146,916.6961,548.3659,917.3259,558.3171,916.8081,568.2683,916.9621,578.2195,916.862,588.1707,917.0724,598.122,917.133,608.0732,917.4796,618.0244,917.565,627.9756,917.5732,637.9268,917.1485,647.878,917.3575,657.8293,917.5961,667.7805,916.1727,677.7317,917.5724,687.6829,916.5974,697.6341,917.4277,707.5854,916.3989,717.5366,916.8254,727.4878,917.6355,737.439,916.8452,747.3902,916.9992,757.3415,917.2325,767.2927,917.3101,777.2439,916.89,787.1951,917.1811,797.1463,916.3215,807.0976,917.1783,817.0488,917.4421,827,916.8939,827.0567,917.0308,828.846,917.8149,830.4739,918.2096,832.2201,918.8898,833.9918,919.6315,835.8388,920.5551,835.8207,920.5476,836.5105,922.2978,837.5131,924.1775,837.9817,925.8361,838.6621,927.5824,839.5,929.3939,839.7283,929.3939,838.8332,938.7705,838.9809,948.1471,840.149,957.5237,839.9357,966.9004,840.2345,976.277,839.5,985.6536,839.4009,985.6125,838.8661,987.4621,838.2174,989.2644,837.1578,990.8966,836.5415,992.7124,835.8388,994.4924,835.8549,994.5312,834.1542,995.4254,832.3028,995.9556,830.5945,996.8316,828.6971,997.2508,827,998.1536,827,997.4763,817.0488,998.6572,807.0976,997.4366,797.1463,998.6625,787.1951,998.3602,777.2439,997.8857,767.2927,997.7998,757.3415,998.6123,747.3902,997.8542,737.439,998.7454,727.4878,997.6008,717.5366,998.771,707.5854,998.6379,697.6341,998.3985,687.6829,998.2008,677.7317,998.8802,667.7805,998.7672,657.8293,998.3228,647.878,998.4218,637.9268,998.0233,627.9756,998.87,618.0244,998.3084,608.0732,998.3261,598.122,997.5452,588.1707,997.7484,578.2195,998.6843,568.2683,998.5833,558.3171,998.1106,548.3659,997.8314,538.4146,997.9346,528.4634,997.4674,518.5122,998.5683,508.561,998.8931,498.6098,998.68,488.6585,998.8485,478.7073,998.0168,468.7561,998.2408,458.8049,997.766,448.8537,998.4376,438.9024,998.4003,428.9512,998.706,419,998.1536,418.9707,998.0829,417.2151,997.38,415.521,996.8257,413.7691,996.1316,411.8636,995.0668,410.1612,994.4924,410.1015,994.4677,409.4749,992.7437,408.5086,990.879,408.0733,989.2342,407.3117,987.4543,406.5,985.6536,406.3992,985.6536,406.6422,976.277,407.2287,966.9004,406.1871,957.5237,406.815,948.1471,406.7856,938.7705,406.5,929.3939,406.5357,929.4087,407.2756,927.6441,407.9994,925.8729,408.5045,924.011,409.3055,922.2717,410.1612,920.5551,410.1023,920.4129,411.9371,919.8425,413.7079,919.1177,415.4851,918.4082,417.1951,917.5365,419,916.8939" style="stroke:#181818;stroke-width:0.5;"/><text fill="#000000" font-family="Chalkduster" font-size="24" lengthAdjust="spacing" textLength="202" x="416.5" y="950.7348">Start a project</text><text fill="#000000" font-family="Chalkduster" font-size="24" lengthAdjust="spacing" textLength="413" x="416.5" y="981.3646">(potentially use RRKive tools)</text><polygon fill="none" points="634.0608,1046.8292,632.4484,1049.0324,630.5412,1052.2593,627.8136,1054.434,624.9474,1055.6232,622.662,1055.7264,619.7247,1054.2391,616.9532,1053.2675,614.8495,1051.2948,613.7461,1049.0364,613.0917,1047.2381,612.4506,1044.8893,611.41,1042.868,612.2096,1040.8946,612.9102,1038.7328,615.5393,1037.0231,617.389,1034.8047,619.6784,1034.068,622.4001,1033.4336,625.8904,1033.8105,627.8021,1034.7121,630.0247,1035.1208,632.7272,1037.8896,633.6693,1040.8125,634.0786,1042.8069,633.615,1046.0935" style="stroke:#222222;stroke-width:1.0;"/><polygon fill="#222222" points="629.0331,1045.613,628.1536,1046.8147,627.1134,1048.5749,625.6256,1049.7611,624.0622,1050.4097,622.8156,1050.466,621.2135,1049.6548,619.7017,1049.1248,618.5543,1048.0488,617.9524,1046.8169,617.5955,1045.836,617.2458,1044.5549,616.6782,1043.4524,617.1143,1042.3759,617.4965,1041.1968,618.9305,1040.2642,619.9394,1039.0542,621.1882,1038.6524,622.6728,1038.3063,624.5766,1038.5119,625.6193,1039.0037,626.8317,1039.2266,628.3057,1040.7368,628.8196,1042.3312,629.0429,1043.419,628.79,1045.2117" style="stroke:#111111;stroke-width:1.0;"/><polygon fill="#F1F1F1" points="1010,916.8939,1010,917.1041,1020.0317,916.4796,1030.0635,917.0872,1040.0952,917.2936,1050.127,916.1805,1060.1587,916.8162,1070.1905,916.4674,1080.2222,916.5104,1090.254,916.8258,1100.2857,916.2025,1110.3175,917.4476,1120.3492,916.2636,1130.381,916.6961,1140.4127,917.3259,1150.4444,916.8081,1160.4762,916.9621,1170.5079,916.862,1180.5397,917.0724,1190.5714,917.133,1200.6032,917.4796,1210.6349,917.565,1220.6667,917.5732,1230.6984,917.1485,1240.7302,917.3575,1250.7619,917.5961,1260.7937,916.1727,1270.8254,917.5724,1280.8571,916.5974,1290.8889,917.4277,1300.9206,916.3989,1310.9524,916.8254,1320.9841,917.6355,1331.0159,916.8452,1341.0476,916.9992,1351.0794,917.2325,1361.1111,917.3101,1371.1429,916.89,1381.1746,917.1811,1391.2063,916.3215,1401.2381,917.1783,1411.2698,917.4421,1421.3016,917.3384,1431.3333,917.5069,1441.3651,916.4108,1451.3968,916.2417,1461.4286,916.2725,1471.4603,916.835,1481.4921,916.6974,1491.5238,917.5753,1501.5556,916.7192,1511.5873,916.5509,1521.619,917.1222,1531.6508,916.2271,1541.6825,916.3748,1551.7143,917.5429,1561.746,917.3296,1571.7778,917.6284,1581.8095,916.5721,1591.8413,917.2131,1601.873,917.4843,1611.9048,916.4215,1621.9365,916.798,1631.9683,917.0199,1642,916.8939,1642.0831,917.0946,1643.7672,917.6249,1645.5945,918.5008,1647.2327,918.9201,1648.9847,919.6143,1650.8388,920.5551,1650.9939,920.6193,1651.3503,922.2314,1652.46,924.1555,1653.0992,925.8847,1653.6853,927.592,1654.5,929.3939,1654.1462,929.3939,1654.9588,939.0483,1654.2007,948.7027,1655.0919,958.3571,1653.9473,968.0115,1655.1174,977.6659,1654.9843,987.3202,1654.745,996.9746,1654.5472,1006.629,1654.5,1016.2834,1654.7238,1016.3761,1653.9567,1018.1294,1653.0877,1019.8405,1652.3859,1021.6209,1651.531,1023.3379,1650.8388,1025.1222,1650.9302,1025.3429,1649.0908,1025.9022,1647.3253,1026.6399,1645.4579,1027.1316,1643.7161,1027.9264,1642,1028.7834,1642,1029.3142,1631.9683,1029.2132,1621.9365,1028.7405,1611.9048,1028.4612,1601.873,1028.5645,1591.8413,1028.0972,1581.8095,1029.1981,1571.7778,1029.523,1561.746,1029.3098,1551.7143,1029.4783,1541.6825,1028.6467,1531.6508,1028.8706,1521.619,1028.3958,1511.5873,1029.0674,1501.5556,1029.0302,1491.5238,1029.3358,1481.4921,1028.5538,1471.4603,1028.649,1461.4286,1029.2269,1451.3968,1029.3507,1441.3651,1028.2709,1431.3333,1028.5895,1421.3016,1028.9327,1411.2698,1028.1726,1401.2381,1029.1368,1391.2063,1029.0414,1381.1746,1028.6826,1371.1429,1028.9257,1361.1111,1029.5121,1351.0794,1028.4705,1341.0476,1029.0984,1331.0159,1029.0691,1320.9841,1028.8992,1310.9524,1028.9243,1300.9206,1028.8969,1290.8889,1028.1593,1280.8571,1028.3826,1270.8254,1028.3219,1260.7937,1028.8472,1250.7619,1028.8715,1240.7302,1028.9452,1230.6984,1028.4924,1220.6667,1028.7159,1210.6349,1028.6632,1200.6032,1029.3603,1190.5714,1029.21,1180.5397,1028.2979,1170.5079,1028.7105,1160.4762,1028.2062,1150.4444,1029.0718,1140.4127,1029.3919,1130.381,1029.328,1120.3492,1028.3479,1110.3175,1029.2474,1100.2857,1028.0406,1090.254,1028.9836,1080.2222,1028.4841,1070.1905,1028.8801,1060.1587,1029.0237,1050.127,1029.2555,1040.0952,1028.0635,1030.0635,1029.2589,1020.0317,1028.9616,1010,1028.7834,1010.0453,1028.8928,1008.3276,1028.2815,1006.4652,1027.3206,1004.7191,1026.6407,1002.9562,1025.9202,1001.1612,1025.1222,1001.2219,1025.1474,1000.4287,1023.3544,999.9156,1021.6774,998.7767,1019.7412,998.4063,1018.1233,997.5,1016.2834,996.876,1016.2834,996.9597,1006.629,997.54,996.9746,997.5283,987.3202,997.0072,977.6659,997.9137,968.0115,997.6089,958.3571,998.2267,948.7027,998.1671,939.0483,997.5,929.3939,997.362,929.3367,998.1097,927.5754,998.9247,925.8419,999.8062,924.136,1000.553,922.3742,1001.1612,920.5551,1001.1996,920.6478,1002.8853,919.7175,1004.7779,919.2866,1006.5453,918.5536,1008.2262,917.6116,1010,916.8939" style="stroke:#181818;stroke-width:0.5;"/><text fill="#000000" font-family="Chalkduster" font-size="24" lengthAdjust="spacing" textLength="625" x="1019.5" y="950.7348">Follow RRKive advice about organizing data</text><text fill="#000000" font-family="Chalkduster" font-size="24" lengthAdjust="spacing" textLength="391" x="1007.5" y="981.3646">on raw institutional storage</text><text fill="#000000" font-family="Chalkduster" font-size="24" lengthAdjust="spacing" textLength="293" x="1007.5" y="1011.9945">(Use the the R: Drive)</text><polygon fill="none" points="1337.0608,1077.459,1335.4484,1079.6622,1333.5412,1082.8891,1330.8136,1085.0638,1327.9474,1086.253,1325.662,1086.3562,1322.7247,1084.869,1319.9532,1083.8973,1317.8495,1081.9246,1316.7461,1079.6662,1316.0917,1077.8679,1315.4506,1075.5191,1314.41,1073.4979,1315.2096,1071.5244,1315.9102,1069.3626,1318.5393,1067.6529,1320.389,1065.4345,1322.6784,1064.6978,1325.4001,1064.0635,1328.8904,1064.4404,1330.8021,1065.3419,1333.0247,1065.7506,1335.7272,1068.5194,1336.6693,1071.4424,1337.0786,1073.4368,1336.615,1076.7233" style="stroke:#222222;stroke-width:1.0;"/><polygon fill="#222222" points="1332.0331,1076.2428,1331.1536,1077.4446,1330.1134,1079.2047,1328.6256,1080.3909,1327.0622,1081.0396,1325.8156,1081.0959,1324.2135,1080.2846,1322.7017,1079.7546,1321.5543,1078.6786,1320.9524,1077.4467,1320.5955,1076.4659,1320.2458,1075.1847,1319.6782,1074.0822,1320.1143,1073.0058,1320.4965,1071.8266,1321.9305,1070.894,1322.9394,1069.684,1324.1882,1069.2822,1325.6728,1068.9362,1327.5766,1069.1418,1328.6193,1069.6335,1329.8317,1069.8564,1331.3057,1071.3667,1331.8196,1072.961,1332.0429,1074.0489,1331.79,1075.8415" style="stroke:#111111;stroke-width:1.0;"/><path d="M974.5,365.3812 L974.5934,365.3812 L974.3159,369.3812 L974.5859,373.3812 L974.6776,377.3812 L974.1829,381.3812 L974.5,385.3812 " fill="#8B0000" style="stroke:#8B0000;stroke-width:4.0;"/><polygon fill="#8B0000" points="970.5,375.3812,970.565,375.4072,971.1718,377.3299,972.1598,379.4051,973.0237,381.4307,973.4792,383.2929,974.5,385.3812,974.4759,385.3716,975.168,383.3284,975.9813,381.3337,976.8789,379.3728,977.486,377.2956,978.5,375.3812,978.6305,375.5117,977.5514,376.0327,976.8534,376.9346,976.2018,377.883,975.2798,378.561,974.5,379.3812,974.5161,379.3973,973.6925,378.5737,972.9421,377.8233,972.1564,377.0376,971.438,376.3193,970.5,375.3812" style="stroke:#8B0000;stroke-width:1.0;"/><path d="M974.5,281.4365 L974.5934,281.4365 L974.3159,288.0994 L974.5859,294.7624 L974.6776,301.4254 L974.1829,308.0884 L974.5,314.7514 " fill="#8B0000" style="stroke:#8B0000;stroke-width:4.0;"/><polygon fill="#8B0000" points="970.5,304.7514,970.565,304.7774,971.1718,306.7001,972.1598,308.7753,973.0237,310.8009,973.4792,312.6631,974.5,314.7514,974.4759,314.7418,975.168,312.6986,975.9813,310.7039,976.8789,308.7429,977.486,306.6658,978.5,304.7514,978.6305,304.8819,977.5514,305.4028,976.8534,306.3048,976.2018,307.2532,975.2798,307.9312,974.5,308.7514,974.5161,308.7675,973.6925,307.9438,972.9421,307.1935,972.1564,306.4077,971.438,305.6894,970.5,304.7514" style="stroke:#8B0000;stroke-width:1.0;"/><path d="M1144.5,266.1215 L1144.5,266.215 L1146.9,265.9374 L1149.3,266.2074 L1151.7,266.2992 L1154.1,265.8045 L1156.5,266.1215 " fill="#8B0000" style="stroke:#8B0000;stroke-width:4.0;"/><polygon fill="#8B0000" points="1152.5,353.9088,1152.565,353.9349,1153.1718,355.8575,1154.1598,357.9328,1155.0237,359.9583,1155.4792,361.8205,1156.5,363.9088,1156.4759,363.8992,1157.168,361.856,1157.9813,359.8614,1158.8789,357.9004,1159.486,355.8232,1160.5,353.9088,1160.6305,354.0393,1159.5514,354.5603,1158.8534,355.4622,1158.2018,356.4106,1157.2798,357.0886,1156.5,357.9088,1156.5161,357.9249,1155.6925,357.1013,1154.9421,356.3509,1154.1564,355.5652,1153.438,354.8469,1152.5,353.9088" style="stroke:#8B0000;stroke-width:4.0;"/><path d="M1156.5,266.1215 L1156.7802,266.1215 L1155.9476,276.3253 L1156.7577,286.529 L1157.0329,296.7327 L1155.5488,306.9365 L1156.3964,317.1402 L1155.9313,327.3439 L1155.9887,337.5476 L1156.4091,347.7514 L1155.5782,357.9551 L1157.2382,368.1588 L1155.6596,378.3626 L1156.2363,388.5663 L1157.0759,398.77 L1156.3856,408.9738 L1156.591,419.1775 L1156.5,429.3812 " fill="#8B0000" style="stroke:#8B0000;stroke-width:4.0;"/><path d="M1156.5,429.3812 L1156.5,429.6615 L1146.3889,428.8288 L1136.2778,429.6389 L1126.1667,429.9141 L1116.0556,428.43 L1105.9444,429.2776 L1095.8333,428.8126 L1085.7222,428.8699 L1075.6111,429.2903 L1065.5,428.4594 L1055.3889,430.1194 L1045.2778,428.5408 L1035.1667,429.1175 L1025.0556,429.9571 L1014.9444,429.2668 L1004.8333,429.4722 L994.7222,429.3386 L984.6111,429.6192 L974.5,429.3812 " fill="#8B0000" style="stroke:#8B0000;stroke-width:4.0;"/><path d="M974.5,429.3812 L974.5934,429.3812 L974.3159,433.3812 L974.5859,437.3812 L974.6776,441.3812 L974.1829,445.3812 L974.5,449.3812 " fill="#8B0000" style="stroke:#8B0000;stroke-width:4.0;"/><polygon fill="#8B0000" points="970.5,439.3812,970.565,439.4072,971.1718,441.3299,972.1598,443.4051,973.0237,445.4307,973.4792,447.2929,974.5,449.3812,974.4759,449.3716,975.168,447.3284,975.9813,445.3337,976.8789,443.3728,977.486,441.2956,978.5,439.3812,978.6305,439.5117,977.5514,440.0327,976.8534,440.9346,976.2018,441.883,975.2798,442.561,974.5,443.3812,974.5161,443.3973,973.6925,442.5737,972.9421,441.8233,972.1564,441.0376,971.438,440.3193,970.5,439.3812" style="stroke:#8B0000;stroke-width:1.0;"/><path d="M974.5,217.4917 L974.5934,217.4917 L974.3159,224.1547 L974.5859,230.8177 L974.6776,237.4807 L974.1829,244.1436 L974.5,250.8066 " fill="#8B0000" style="stroke:#8B0000;stroke-width:4.0;"/><polygon fill="#8B0000" points="970.5,240.8066,970.565,240.8326,971.1718,242.7553,972.1598,244.8306,973.0237,246.8561,973.4792,248.7183,974.5,250.8066,974.4759,250.797,975.168,248.7538,975.9813,246.7592,976.8789,244.7982,977.486,242.721,978.5,240.8066,978.6305,240.9371,977.5514,241.4581,976.8534,242.36,976.2018,243.3084,975.2798,243.9864,974.5,244.8066,974.5161,244.8227,973.6925,243.9991,972.9421,243.2487,972.1564,242.463,971.438,241.7447,970.5,240.8066" style="stroke:#8B0000;stroke-width:1.0;"/><path d="M1373,186.8619 L1373,186.9553 L1375.4,186.6777 L1377.8,186.9478 L1380.2,187.0395 L1382.6,186.5448 L1385,186.8619 " fill="#8B0000" style="stroke:#8B0000;stroke-width:4.0;"/><polygon fill="#8B0000" points="1381,336.9365,1381.065,336.9625,1381.6718,338.8852,1382.6598,340.9604,1383.5237,342.9859,1383.9792,344.8481,1385,346.9365,1384.9759,346.9268,1385.668,344.8837,1386.4813,342.889,1387.3789,340.928,1387.986,338.8509,1389,336.9365,1389.1305,337.067,1388.0514,337.5879,1387.3534,338.4898,1386.7018,339.4383,1385.7798,340.1162,1385,340.9365,1385.0161,340.9525,1384.1925,340.1289,1383.4421,339.3785,1382.6564,338.5928,1381.938,337.8745,1381,336.9365" style="stroke:#8B0000;stroke-width:4.0;"/><path d="M1385,186.8619 L1385.2802,186.8619 L1384.4476,197.0293 L1385.2577,207.1966 L1385.5329,217.364 L1384.0488,227.5314 L1384.8964,237.6988 L1384.4313,247.8662 L1384.4887,258.0336 L1384.9091,268.2009 L1384.0782,278.3683 L1385.7382,288.5357 L1384.1596,298.7031 L1384.7363,308.8705 L1385.5759,319.0379 L1384.8856,329.2052 L1385.091,339.3726 L1384.9574,349.54 L1385.238,359.7074 L1385.3188,369.8748 L1385.7809,380.0421 L1385.8947,390.2095 L1385.9057,400.3769 L1385.3395,410.5443 L1385.6181,420.7117 L1385.9363,430.8791 L1384.0384,441.0464 L1385.9047,451.2138 L1385,461.3812 " fill="#8B0000" style="stroke:#8B0000;stroke-width:4.0;"/><path d="M1385,461.3812 L1385,461.6615 L1375.0375,460.8288 L1365.075,461.6389 L1355.1125,461.9141 L1345.15,460.43 L1335.1875,461.2776 L1325.225,460.8126 L1315.2625,460.8699 L1305.3,461.2903 L1295.3375,460.4594 L1285.375,462.1194 L1275.4125,460.5408 L1265.45,461.1175 L1255.4875,461.9571 L1245.525,461.2668 L1235.5625,461.4722 L1225.6,461.3386 L1215.6375,461.6192 L1205.675,461.7001 L1195.7125,462.1621 L1185.75,462.2759 L1175.7875,462.2869 L1165.825,461.7207 L1155.8625,461.9993 L1145.9,462.3175 L1135.9375,460.4196 L1125.975,462.2859 L1116.0125,460.9859 L1106.05,462.093 L1096.0875,460.7212 L1086.125,461.2899 L1076.1625,462.37 L1066.2,461.3162 L1056.2375,461.5216 L1046.275,461.8327 L1036.3125,461.9362 L1026.35,461.376 L1016.3875,461.7642 L1006.425,460.618 L996.4625,461.7604 L986.5,461.3812 " fill="#8B0000" style="stroke:#8B0000;stroke-width:4.0;"/><polygon fill="#8B0000" points="996.5,457.3812,996.526,457.4463,994.4487,458.053,992.5239,459.041,990.5495,459.9049,988.4117,460.3604,986.5,461.3812,986.4904,461.3572,988.4472,462.0492,990.4525,462.8625,992.4916,463.7601,994.4144,464.3672,996.5,465.3812,996.6305,465.5117,995.5514,464.4327,994.8534,463.7346,994.2018,463.083,993.2798,462.161,992.5,461.3812,992.5161,461.3973,993.2925,460.5737,994.1421,459.8233,994.9564,459.0376,995.838,458.3193,996.5,457.3812" style="stroke:#8B0000;stroke-width:1.0;"/><path d="M974.5,136.232 L974.5934,136.232 L974.3159,140.232 L974.5859,144.232 L974.6776,148.232 L974.1829,152.232 L974.5,156.232 " fill="#8B0000" style="stroke:#8B0000;stroke-width:4.0;"/><polygon fill="#8B0000" points="970.5,146.232,970.565,146.2581,971.1718,148.1808,972.1598,150.256,973.0237,152.2815,973.4792,154.1437,974.5,156.232,974.4759,156.2224,975.168,154.1792,975.9813,152.1846,976.8789,150.2236,977.486,148.1465,978.5,146.232,978.6305,146.3625,977.5514,146.8835,976.8534,147.7854,976.2018,148.7339,975.2798,149.4118,974.5,150.232,974.5161,150.2481,973.6925,149.4245,972.9421,148.6741,972.1564,147.8884,971.438,147.1701,970.5,146.232" style="stroke:#8B0000;stroke-width:1.0;"/><path d="M631,648.5856 L631.0934,648.5856 L630.8159,655.5856 L631.0859,662.5856 L631.1776,669.5856 L630.6829,676.5856 L631,683.5856 " fill="#8B0000" style="stroke:#8B0000;stroke-width:4.0;"/><polygon fill="#8B0000" points="627,673.5856,627.065,673.6116,627.6718,675.5343,628.6598,677.6096,629.5237,679.6351,629.9792,681.4973,631,683.5856,630.9759,683.576,631.668,681.5328,632.4813,679.5382,633.3789,677.5772,633.986,675.5,635,673.5856,635.1305,673.7161,634.0514,674.2371,633.3534,675.139,632.7018,676.0874,631.7798,676.7654,631,677.5856,631.0161,677.6017,630.1925,676.7781,629.4421,676.0277,628.6564,675.242,627.938,674.5237,627,673.5856" style="stroke:#8B0000;stroke-width:1.0;"/><path d="M1318,712.5304 L1318.0934,712.5304 L1317.8159,719.5304 L1318.0859,726.5304 L1318.1776,733.5304 L1317.6829,740.5304 L1318,747.5304 " fill="#8B0000" style="stroke:#8B0000;stroke-width:4.0;"/><polygon fill="#8B0000" points="1314,737.5304,1314.065,737.5564,1314.6718,739.4791,1315.6598,741.5543,1316.5237,743.5799,1316.9792,745.4421,1318,747.5304,1317.9759,747.5208,1318.668,745.4776,1319.4813,743.4829,1320.3789,741.5219,1320.986,739.4448,1322,737.5304,1322.1305,737.6609,1321.0514,738.1818,1320.3534,739.0838,1319.7018,740.0322,1318.7798,740.7102,1318,741.5304,1318.0161,741.5465,1317.1925,740.7228,1316.4421,739.9725,1315.6564,739.1867,1314.938,738.4684,1314,737.5304" style="stroke:#8B0000;stroke-width:1.0;"/><path d="M1318,628.5856 L1318.0934,628.5856 L1317.8159,635.2486 L1318.0859,641.9116 L1318.1776,648.5746 L1317.6829,655.2376 L1318,661.9005 " fill="#8B0000" style="stroke:#8B0000;stroke-width:4.0;"/><polygon fill="#8B0000" points="1314,651.9005,1314.065,651.9266,1314.6718,653.8493,1315.6598,655.9245,1316.5237,657.95,1316.9792,659.8122,1318,661.9005,1317.9759,661.8909,1318.668,659.8477,1319.4813,657.8531,1320.3789,655.8921,1320.986,653.815,1322,651.9005,1322.1305,652.031,1321.0514,652.552,1320.3534,653.4539,1319.7018,654.4024,1318.7798,655.0803,1318,655.9005,1318.0161,655.9166,1317.1925,655.093,1316.4421,654.3426,1315.6564,653.5569,1314.938,652.8386,1314,651.9005" style="stroke:#8B0000;stroke-width:1.0;"/><path d="M1568.5,613.2707 L1568.5,613.3641 L1570.9,613.0866 L1573.3,613.3566 L1575.7,613.4483 L1578.1,612.9536 L1580.5,613.2707 " fill="#8B0000" style="stroke:#8B0000;stroke-width:4.0;"/><polygon fill="#8B0000" points="1576.5,704.058,1576.565,704.084,1577.1718,706.0067,1578.1598,708.0819,1579.0237,710.1075,1579.4792,711.9697,1580.5,714.058,1580.4759,714.0484,1581.168,712.0052,1581.9813,710.0105,1582.8789,708.0496,1583.486,705.9724,1584.5,704.058,1584.6305,704.1885,1583.5514,704.7094,1582.8534,705.6114,1582.2018,706.5598,1581.2798,707.2378,1580.5,708.058,1580.5161,708.0741,1579.6925,707.2505,1578.9421,706.5001,1578.1564,705.7144,1577.438,704.996,1576.5,704.058" style="stroke:#8B0000;stroke-width:4.0;"/><path d="M1580.5,613.2707 L1580.7802,613.2707 L1579.9476,623.4491 L1580.7577,633.6275 L1581.0329,643.8059 L1579.5488,653.9843 L1580.3964,664.1627 L1579.9313,674.3411 L1579.9887,684.5195 L1580.4091,694.6979 L1579.5782,704.8763 L1581.2382,715.0547 L1579.6596,725.2331 L1580.2363,735.4114 L1581.0759,745.5898 L1580.3856,755.7682 L1580.591,765.9466 L1580.4574,776.125 L1580.738,786.3034 L1580.8188,796.4818 L1580.5,806.6602 " fill="#8B0000" style="stroke:#8B0000;stroke-width:4.0;"/><path d="M1580.5,806.6602 L1580.5,806.9405 L1570.5656,806.1078 L1560.6311,806.9179 L1550.6967,807.1931 L1540.7623,805.709 L1530.8279,806.5566 L1520.8934,806.0916 L1510.959,806.1489 L1501.0246,806.5693 L1491.0902,805.7384 L1481.1557,807.3984 L1471.2213,805.8198 L1461.2869,806.3965 L1451.3525,807.2361 L1441.418,806.5458 L1431.4836,806.7512 L1421.5492,806.6176 L1411.6148,806.8982 L1401.6803,806.9791 L1391.7459,807.4411 L1381.8115,807.5549 L1371.877,807.5659 L1361.9426,806.9997 L1352.0082,807.2783 L1342.0738,807.5965 L1332.1393,805.6986 L1322.2049,807.5649 L1312.2705,806.2649 L1302.3361,807.372 L1292.4016,806.0002 L1282.4672,806.5689 L1272.5328,807.649 L1262.5984,806.5952 L1252.6639,806.8006 L1242.7295,807.1117 L1232.7951,807.2152 L1222.8607,806.655 L1212.9262,807.0432 L1202.9918,805.897 L1193.0574,807.0394 L1183.123,807.3911 L1173.1885,807.2529 L1163.2541,807.4776 L1153.3197,806.0161 L1143.3852,805.7906 L1133.4508,805.8317 L1123.5164,806.5817 L1113.582,806.3982 L1103.6475,807.5688 L1093.7131,806.4273 L1083.7787,806.2028 L1073.8443,806.9646 L1063.9098,805.7711 L1053.9754,805.968 L1044.041,807.5255 L1034.1066,807.2411 L1024.1721,807.6395 L1014.2377,806.2312 L1004.3033,807.0858 L994.3689,807.4474 L984.4344,806.0303 L974.5,806.6602 " fill="#8B0000" style="stroke:#8B0000;stroke-width:4.0;"/><path d="M974.5,806.6602 L974.5934,806.6602 L974.3159,809.6602 L974.5859,812.6602 L974.6776,815.6602 L974.1829,818.6602 L974.5,821.6602 " fill="#8B0000" style="stroke:#8B0000;stroke-width:4.0;"/><polygon fill="#8B0000" points="970.5,811.6602,970.565,811.6862,971.1718,813.6089,972.1598,815.6841,973.0237,817.7097,973.4792,819.5719,974.5,821.6602,974.4759,821.6506,975.168,819.6074,975.9813,817.6127,976.8789,815.6518,977.486,813.5746,978.5,811.6602,978.6305,811.7907,977.5514,812.3117,976.8534,813.2136,976.2018,814.162,975.2798,814.84,974.5,815.6602,974.5161,815.6763,973.6925,814.8527,972.9421,814.1023,972.1564,813.3166,971.438,812.5983,970.5,811.6602" style="stroke:#8B0000;stroke-width:1.0;"/><path d="M641,572.6409 L641,572.7343 L639,572.4567 L637,572.7268 L635,572.8185 L633,572.3238 L631,572.6409 " fill="#8B0000" style="stroke:#8B0000;stroke-width:4.0;"/><path d="M631,572.6409 L631.0934,572.6409 L630.8159,577.7039 L631.0859,582.7668 L631.1776,587.8298 L630.6829,592.8928 L631,597.9558 " fill="#8B0000" style="stroke:#8B0000;stroke-width:4.0;"/><polygon fill="#8B0000" points="627,587.9558,627.065,587.9818,627.6718,589.9045,628.6598,591.9797,629.5237,594.0053,629.9792,595.8675,631,597.9558,630.9759,597.9462,631.668,595.903,632.4813,593.9083,633.3789,591.9474,633.986,589.8702,635,587.9558,635.1305,588.0863,634.0514,588.6072,633.3534,589.5092,632.7018,590.4576,631.7798,591.1356,631,591.9558,631.0161,591.9719,630.1925,591.1483,629.4421,590.3979,628.6564,589.6122,627.938,588.8938,627,587.9558" style="stroke:#8B0000;stroke-width:1.0;"/><path d="M1308,572.6409 L1308,572.7343 L1310,572.4567 L1312,572.7268 L1314,572.8185 L1316,572.3238 L1318,572.6409 " fill="#8B0000" style="stroke:#8B0000;stroke-width:4.0;"/><path d="M1318,572.6409 L1318.0934,572.6409 L1317.8159,577.7039 L1318.0859,582.7668 L1318.1776,587.8298 L1317.6829,592.8928 L1318,597.9558 " fill="#8B0000" style="stroke:#8B0000;stroke-width:4.0;"/><polygon fill="#8B0000" points="1314,587.9558,1314.065,587.9818,1314.6718,589.9045,1315.6598,591.9797,1316.5237,594.0053,1316.9792,595.8675,1318,597.9558,1317.9759,597.9462,1318.668,595.903,1319.4813,593.9083,1320.3789,591.9474,1320.986,589.8702,1322,587.9558,1322.1305,588.0863,1321.0514,588.6072,1320.3534,589.5092,1319.7018,590.4576,1318.7798,591.1356,1318,591.9558,1318.0161,591.9719,1317.1925,591.1483,1316.4421,590.3979,1315.6564,589.6122,1314.938,588.8938,1314,587.9558" style="stroke:#8B0000;stroke-width:1.0;"/><path d="M974.5,524.011 L974.5934,524.011 L974.3159,530.674 L974.5859,537.337 L974.6776,544 L974.1829,550.663 L974.5,557.326 " fill="#8B0000" style="stroke:#8B0000;stroke-width:4.0;"/><polygon fill="#8B0000" points="970.5,547.326,970.565,547.352,971.1718,549.2747,972.1598,551.3499,973.0237,553.3754,973.4792,555.2376,974.5,557.326,974.4759,557.3163,975.168,555.2732,975.9813,553.2785,976.8789,551.3175,977.486,549.2404,978.5,547.326,978.6305,547.4565,977.5514,547.9774,976.8534,548.8793,976.2018,549.8278,975.2798,550.5057,974.5,551.326,974.5161,551.342,973.6925,550.5184,972.9421,549.768,972.1564,548.9823,971.438,548.264,970.5,547.326" style="stroke:#8B0000;stroke-width:1.0;"/><path d="M1175.5,508.6961 L1175.5,508.9764 L1185.3837,508.1437 L1195.2674,508.9538 L1205.1512,509.229 L1215.0349,507.7449 L1224.9186,508.5925 L1234.8023,508.1275 L1244.686,508.1848 L1254.5698,508.6053 L1264.4535,507.7743 L1274.3372,509.4343 L1284.2209,507.8558 L1294.1047,508.4324 L1303.9884,509.2721 L1313.8721,508.5818 L1323.7558,508.7871 L1333.6395,508.6535 L1343.5233,508.9342 L1353.407,509.015 L1363.2907,509.477 L1373.1744,509.5909 L1383.0581,509.6018 L1392.9419,509.0356 L1402.8256,509.3142 L1412.7093,509.6324 L1422.593,507.7345 L1432.4767,509.6008 L1442.3605,508.3008 L1452.2442,509.4079 L1462.1279,508.0361 L1472.0116,508.6048 L1481.8953,509.6849 L1491.7791,508.6311 L1501.6628,508.8365 L1511.5465,509.1476 L1521.4302,509.2511 L1531.314,508.6909 L1541.1977,509.0791 L1551.0814,507.9329 L1560.9651,509.0753 L1570.8488,509.4271 L1580.7326,509.2888 L1590.6163,509.5135 L1600.5,508.6961 " fill="#8B0000" style="stroke:#8B0000;stroke-width:4.0;"/><polygon fill="#8B0000" points="1596.5,674.4282,1596.565,674.4542,1597.1718,676.3769,1598.1598,678.4521,1599.0237,680.4776,1599.4792,682.3399,1600.5,684.4282,1600.4759,684.4185,1601.168,682.3754,1601.9813,680.3807,1602.8789,678.4197,1603.486,676.3426,1604.5,674.4282,1604.6305,674.5587,1603.5514,675.0796,1602.8534,675.9816,1602.2018,676.93,1601.2798,677.608,1600.5,678.4282,1600.5161,678.4443,1599.6925,677.6206,1598.9421,676.8702,1598.1564,676.0845,1597.438,675.3662,1596.5,674.4282" style="stroke:#8B0000;stroke-width:4.0;"/><path d="M1600.5,508.6961 L1600.7802,508.6961 L1599.9476,518.8513 L1600.7577,529.0064 L1601.0329,539.1615 L1599.5488,549.3166 L1600.3964,559.4718 L1599.9313,569.6269 L1599.9887,579.782 L1600.4091,589.9371 L1599.5782,600.0923 L1601.2382,610.2474 L1599.6596,620.4025 L1600.2363,630.5577 L1601.0759,640.7128 L1600.3856,650.8679 L1600.591,661.023 L1600.4574,671.1782 L1600.738,681.3333 L1600.8188,691.4884 L1601.2809,701.6436 L1601.3947,711.7987 L1601.4057,721.9538 L1600.8395,732.1089 L1601.1181,742.2641 L1601.4363,752.4192 L1599.5384,762.5743 L1601.4047,772.7294 L1600.1047,782.8846 L1601.2117,793.0397 L1599.84,803.1948 L1600.4087,813.35 L1601.4888,823.5051 L1600.5,833.6602 " fill="#8B0000" style="stroke:#8B0000;stroke-width:4.0;"/><path d="M1600.5,833.6602 L1600.5,833.9405 L1590.4344,833.1078 L1580.3689,833.9179 L1570.3033,834.1931 L1560.2377,832.709 L1550.1721,833.5566 L1540.1066,833.0916 L1530.041,833.1489 L1519.9754,833.5693 L1509.9098,832.7384 L1499.8443,834.3984 L1489.7787,832.8198 L1479.7131,833.3965 L1469.6475,834.2361 L1459.582,833.5458 L1449.5164,833.7512 L1439.4508,833.6176 L1429.3852,833.8982 L1419.3197,833.9791 L1409.2541,834.4411 L1399.1885,834.5549 L1389.123,834.5659 L1379.0574,833.9997 L1368.9918,834.2783 L1358.9262,834.5965 L1348.8607,832.6986 L1338.7951,834.5649 L1328.7295,833.2649 L1318.6639,834.372 L1308.5984,833.0002 L1298.5328,833.5689 L1288.4672,834.649 L1278.4016,833.5952 L1268.3361,833.8006 L1258.2705,834.1117 L1248.2049,834.2152 L1238.1393,833.655 L1228.0738,834.0432 L1218.0082,832.897 L1207.9426,834.0394 L1197.877,834.3911 L1187.8115,834.2529 L1177.7459,834.4776 L1167.6803,833.0161 L1157.6148,832.7906 L1147.5492,832.8317 L1137.4836,833.5817 L1127.418,833.3982 L1117.3525,834.5688 L1107.2869,833.4273 L1097.2213,833.2028 L1087.1557,833.9646 L1077.0902,832.7711 L1067.0246,832.968 L1056.959,834.5255 L1046.8934,834.2411 L1036.8279,834.6395 L1026.7623,833.2312 L1016.6967,834.0858 L1006.6311,834.4474 L996.5656,833.0303 L986.5,833.6602 " fill="#8B0000" style="stroke:#8B0000;stroke-width:4.0;"/><polygon fill="#8B0000" points="996.5,829.6602,996.526,829.7253,994.4487,830.332,992.5239,831.32,990.5495,832.1839,988.4117,832.6394,986.5,833.6602,986.4904,833.6362,988.4472,834.3282,990.4525,835.1415,992.4916,836.0391,994.4144,836.6462,996.5,837.6602,996.6305,837.7907,995.5514,836.7117,994.8534,836.0136,994.2018,835.362,993.2798,834.44,992.5,833.6602,992.5161,833.6763,993.2925,832.8527,994.1421,832.1023,994.9564,831.3166,995.838,830.5983,996.5,829.6602" style="stroke:#8B0000;stroke-width:1.0;"/><path d="M974.5,473.3812 L974.5934,473.3812 L974.3159,477.3812 L974.5859,481.3812 L974.6776,485.3812 L974.1829,489.3812 L974.5,493.3812 " fill="#8B0000" style="stroke:#8B0000;stroke-width:4.0;"/><polygon fill="#8B0000" points="970.5,483.3812,970.565,483.4072,971.1718,485.3299,972.1598,487.4051,973.0237,489.4307,973.4792,491.2929,974.5,493.3812,974.4759,493.3716,975.168,491.3284,975.9813,489.3337,976.8789,487.3728,977.486,485.2956,978.5,483.3812,978.6305,483.5117,977.5514,484.0327,976.8534,484.9346,976.2018,485.883,975.2798,486.561,974.5,487.3812,974.5161,487.3973,973.6925,486.5737,972.9421,485.8233,972.1564,485.0376,971.438,484.3193,970.5,483.3812" style="stroke:#8B0000;stroke-width:1.0;"/><path d="M623,998.1536 L623.0934,998.1536 L622.8159,1005.1536 L623.0859,1012.1536 L623.1776,1019.1536 L622.6829,1026.1536 L623,1033.1536 " fill="#8B0000" style="stroke:#8B0000;stroke-width:4.0;"/><polygon fill="#8B0000" points="619,1023.1536,619.065,1023.1796,619.6718,1025.1023,620.6598,1027.1775,621.5237,1029.2031,621.9792,1031.0653,623,1033.1536,622.9759,1033.144,623.668,1031.1008,624.4813,1029.1061,625.3789,1027.1451,625.986,1025.068,627,1023.1536,627.1305,1023.2841,626.0514,1023.805,625.3534,1024.707,624.7018,1025.6554,623.7798,1026.3334,623,1027.1536,623.0161,1027.1697,622.1925,1026.346,621.4421,1025.5957,620.6564,1024.8099,619.938,1024.0916,619,1023.1536" style="stroke:#8B0000;stroke-width:1.0;"/><path d="M1326,1028.7834 L1326.0934,1028.7834 L1325.8159,1035.7834 L1326.0859,1042.7834 L1326.1776,1049.7834 L1325.6829,1056.7834 L1326,1063.7834 " fill="#8B0000" style="stroke:#8B0000;stroke-width:4.0;"/><polygon fill="#8B0000" points="1322,1053.7834,1322.065,1053.8094,1322.6718,1055.7321,1323.6598,1057.8073,1324.5237,1059.8329,1324.9792,1061.6951,1326,1063.7834,1325.9759,1063.7738,1326.668,1061.7306,1327.4813,1059.7359,1328.3789,1057.775,1328.986,1055.6978,1330,1053.7834,1330.1305,1053.9139,1329.0514,1054.4349,1328.3534,1055.3368,1327.7018,1056.2852,1326.7798,1056.9632,1326,1057.7834,1326.0161,1057.7995,1325.1925,1056.9759,1324.4421,1056.2255,1323.6564,1055.4398,1322.938,1054.7215,1322,1053.7834" style="stroke:#8B0000;stroke-width:1.0;"/><path d="M633,891.579 L633,891.6724 L631,891.3949 L629,891.6649 L627,891.7566 L625,891.2619 L623,891.579 " fill="#8B0000" style="stroke:#8B0000;stroke-width:4.0;"/><path d="M623,891.579 L623.0934,891.579 L622.8159,896.642 L623.0859,901.705 L623.1776,906.7679 L622.6829,911.8309 L623,916.8939 " fill="#8B0000" style="stroke:#8B0000;stroke-width:4.0;"/><polygon fill="#8B0000" points="619,906.8939,619.065,906.9199,619.6718,908.8426,620.6598,910.9178,621.5237,912.9434,621.9792,914.8056,623,916.8939,622.9759,916.8843,623.668,914.8411,624.4813,912.8464,625.3789,910.8855,625.986,908.8083,627,906.8939,627.1305,907.0244,626.0514,907.5454,625.3534,908.4473,624.7018,909.3957,623.7798,910.0737,623,910.8939,623.0161,910.91,622.1925,910.0864,621.4421,909.336,620.6564,908.5503,619.938,907.832,619,906.8939" style="stroke:#8B0000;stroke-width:1.0;"/><path d="M1316,891.579 L1316,891.6724 L1318,891.3949 L1320,891.6649 L1322,891.7566 L1324,891.2619 L1326,891.579 " fill="#8B0000" style="stroke:#8B0000;stroke-width:4.0;"/><path d="M1326,891.579 L1326.0934,891.579 L1325.8159,896.642 L1326.0859,901.705 L1326.1776,906.7679 L1325.6829,911.8309 L1326,916.8939 " fill="#8B0000" style="stroke:#8B0000;stroke-width:4.0;"/><polygon fill="#8B0000" points="1322,906.8939,1322.065,906.9199,1322.6718,908.8426,1323.6598,910.9178,1324.5237,912.9434,1324.9792,914.8056,1326,916.8939,1325.9759,916.8843,1326.668,914.8411,1327.4813,912.8464,1328.3789,910.8855,1328.986,908.8083,1330,906.8939,1330.1305,907.0244,1329.0514,907.5454,1328.3534,908.4473,1327.7018,909.3957,1326.7798,910.0737,1326,910.8939,1326.0161,910.91,1325.1925,910.0864,1324.4421,909.336,1323.6564,908.5503,1322.938,907.832,1322,906.8939" style="stroke:#8B0000;stroke-width:1.0;"/><path d="M974.5,845.6602 L974.5934,845.6602 L974.3159,851.781 L974.5859,857.9018 L974.6776,864.0225 L974.1829,870.1433 L974.5,876.2641 " fill="#8B0000" style="stroke:#8B0000;stroke-width:4.0;"/><polygon fill="#8B0000" points="970.5,866.2641,970.565,866.2901,971.1718,868.2128,972.1598,870.288,973.0237,872.3136,973.4792,874.1758,974.5,876.2641,974.4759,876.2545,975.168,874.2113,975.9813,872.2166,976.8789,870.2556,977.486,868.1785,978.5,866.2641,978.6305,866.3946,977.5514,866.9155,976.8534,867.8175,976.2018,868.7659,975.2798,869.4439,974.5,870.2641,974.5161,870.2802,973.6925,869.4565,972.9421,868.7062,972.1564,867.9204,971.438,867.2021,970.5,866.2641" style="stroke:#8B0000;stroke-width:1.0;"/><!--SRC=[ZLJ1Rjim3BthAxZBbW1DSdTEGRqLmGQiIBR3W023QZCE1qNoHAgj-_MZdAIEiG8RWTYMB3u-FZxd7VdAfHf_7gtlO3vVr5RiJ1UsmIDwcR5q3kVoBCO8YSC2RWyXCFa6B9Hw63ROwbf2x8mnHHcgb1Dr-tUYs8FmqXWV125ISn2pfHUyWRjeVN8sadGtiAegP8RRu2K6f-lxDHlqDUGqauFsC5apo04Z0elrjOqrnDVQi0yHkf0YrCGLjOuymWBsXAxUUMpWVhLPbUljnrj5BrTw-RAQp-VJZEXXqY5FZG60NEU8A0pMESKVcXWTXJwAxunG3lMo5ClpEvRGvaTqUcRYGv-ZBT7UdAwdddw410VxYF2rLV2p3bdNwJMn2xErPvr24WhUkhvxm6TYPViUJgp_X_4OvP-a-yZLlsNnFwWom8d4FZY4E_GOhLCAFSuR5Q_gaYo7pKkfKxoXaZwOYrJdMsyYtLunfsER-HUvcQ4Nexw0Pk3qwWz2DZQELGxUTQ099d7IONUdER2w4nmTISLSv8f3izbYLN0EgroEPqQw5Y5_CLTU7GsrZU6NdePzqWRqar40t22ZZTK1jgbjGvI_B5XinKPHbS_PEpzf5TeBzIoJAhNPV2Q5bn0SJtjHntAQaPu5V5BMuUcIPkj7glJs498efSPwUidiSYSx7pn4-mGqCed2H_rBK2fva4gu_sqAAACYJc7WS35tZZy0]--></g></svg>