<?xml version="1.0" encoding="us-ascii" standalone="no"?><svg xmlns="http://www.w3.org/2000/svg" xmlns:xlink="http://www.w3.org/1999/xlink" contentStyleType="text/css" height="939px" preserveAspectRatio="none" style="width:1861px;height:939px;background:#FFFFFF;" version="1.1" viewBox="0 0 1861 939" width="1861px" zoomAndPan="magnify"><defs/><g><text fill="#000000" font-family="Chalkduster" font-size="42" font-weight="bold" lengthAdjust="spacing" textLength="666" x="596.25" y="61.7215">Choosing a Data Repository</text><text fill="#000000" font-family="Chalkduster" font-size="42" font-weight="bold" lengthAdjust="spacing" textLength="810" x="524.25" y="115.3238">For a Data Commons Deployment</text><path d="M672.25,138.4934 L672.8105,138.4934 L671.1451,147.8823 L672.7654,157.2713 L673.3158,166.6602 L670.3476,176.0492 L672.25,185.4381 L672.2365,185.3704 L668.1757,185.8664 L664.1831,186.7039 L660.2381,187.7787 L656.1295,188.0355 L652.25,189.4381 L652.3465,189.9207 L656.1401,189.6888 L660.2155,190.8657 L664.3253,192.2146 L668.235,192.5634 L672.25,193.4381 L672.432,193.4381 L672.1648,202.8271 L672.7261,212.216 L672.8877,221.605 L673.8118,230.9939 L672.25,240.3829 L672.25,240.3829 L672.25,242.1723 L682.2628,242.1942 L692.2756,241.0619 L702.2885,241.6191 L712.3013,242.2555 L722.3141,238.4597 L732.3269,242.1922 L742.3397,239.5922 L752.3526,241.8064 L762.3654,239.0628 L772.3782,240.2002 L782.391,242.3605 L792.4038,240.2529 L802.4167,240.6637 L812.4295,241.2859 L822.4423,241.4928 L832.4551,240.3725 L842.4679,241.1488 L852.4808,238.8564 L862.4936,241.1412 L872.5064,241.8447 L882.5192,241.5683 L892.5321,242.0176 L902.5449,239.0947 L912.5577,238.6437 L922.5705,238.7258 L932.5833,240.2259 L942.5962,239.8588 L952.609,242.2 L962.6218,239.9171 L972.6346,239.4681 L982.6474,240.9916 L992.6603,238.6046 L1002.6731,238.9985 L1012.6859,242.1134 L1022.6987,241.5447 L1032.7115,242.3415 L1042.7244,239.5248 L1052.7372,241.2341 L1062.75,241.9573 L1072.7628,239.1231 L1082.7756,240.1272 L1092.7885,240.7188 L1102.8013,242.1209 L1112.8141,240.3717 L1122.8269,241.6164 L1132.8397,238.9061 L1142.8526,238.5769 L1152.8654,241.7258 L1162.8782,238.471 L1172.891,241.7401 L1182.9038,240.9339 L1192.9167,239.6684 L1202.9295,239.4395 L1212.9423,241.6062 L1222.9551,239.5847 L1232.9679,241.9612 L1242.9808,238.9089 L1252.9936,242.0293 L1263.0064,241.6743 L1273.0192,241.0361 L1283.0321,240.5088 L1293.0449,242.3205 L1303.0577,242.0191 L1313.0705,240.8342 L1323.0833,241.098 L1333.0962,240.0355 L1343.109,242.2934 L1353.1218,240.7958 L1363.1346,240.8431 L1373.1474,238.7606 L1383.1603,239.3023 L1393.1731,241.7982 L1403.1859,241.5289 L1413.1987,240.2684 L1423.2115,239.5238 L1433.2244,239.7991 L1443.2372,238.5531 L1453.25,240.3829 L1453.25,240.3829 L1454.356,240.3829 L1455.2222,230.1729 L1454.6537,219.963 L1455.1032,209.753 L1452.8854,199.5431 L1453.4826,189.3331 L1452.2164,179.1232 L1454.0074,168.9133 L1453.908,158.7033 L1453.25,148.4934 L1453.5972,148.8406 L1451.1057,146.349 L1449.1655,144.4089 L1447.5287,142.7721 L1445.6066,140.85 L1443.25,138.4934 L1443.25,137.1266 L1433.237,137.9764 L1423.224,138.8914 L1413.211,136.8645 L1403.1981,139.4358 L1393.1851,139.1813 L1383.1721,138.2247 L1373.1591,138.8727 L1363.1461,140.4365 L1353.1331,137.659 L1343.1201,139.3333 L1333.1071,139.2551 L1323.0942,138.8021 L1313.0812,138.8692 L1303.0682,138.796 L1293.0552,136.829 L1283.0422,137.4245 L1273.0292,137.2626 L1263.0162,138.6636 L1253.0032,138.7284 L1242.9903,138.9247 L1232.9773,137.7174 L1222.9643,138.3133 L1212.9513,138.1728 L1202.9383,140.0316 L1192.9253,139.6309 L1182.9123,137.1986 L1172.8994,138.2989 L1162.8864,136.9541 L1152.8734,139.2624 L1142.8604,140.116 L1132.8474,139.9455 L1122.8344,137.3319 L1112.8214,139.7306 L1102.8084,136.5125 L1092.7955,139.0271 L1082.7825,137.6952 L1072.7695,138.7513 L1062.7565,139.1343 L1052.7435,139.7523 L1042.7305,136.5736 L1032.7175,139.7613 L1022.7045,138.9685 L1012.6916,139.4409 L1002.6786,140.4875 L992.6656,138.508 L982.6526,138.9608 L972.6396,139.0625 L962.6266,139.0193 L952.6136,138.4912 L942.6006,140.3886 L932.5877,136.8674 L922.5747,140.0008 L912.5617,136.8294 L902.5487,137.0525 L892.5357,138.6001 L882.5227,138.5688 L872.5097,137.1792 L862.4968,139.5966 L852.4838,138.7836 L842.4708,140.4311 L832.4578,140.2723 L822.4448,137.298 L812.4318,137.4322 L802.4188,138.1489 L792.4058,139.4414 L782.3929,139.568 L772.3799,139.2965 L762.3669,137.5815 L752.3539,140.1903 L742.3409,140.1835 L732.3279,138.3673 L722.3149,137.8559 L712.3019,137.423 L702.289,137.9212 L692.276,138.8598 L682.263,138.311 L672.25,138.4934 L672.25,138.4934 " fill="#FFFFE0" style="stroke:#181818;stroke-width:4.0;"/><path d="M1443.25,138.4934 L1443.4368,138.4934 L1442.8817,140.4934 L1443.4218,142.4934 L1443.6053,144.4934 L1442.6159,146.4934 L1443.25,148.4934 L1443.25,148.4243 L1445.25,148.1143 L1447.25,148.1525 L1449.25,148.4328 L1451.25,147.8788 L1453.25,148.4934 L1453.598,148.8414 L1450.8538,146.0972 L1449.1257,144.3691 L1447.5215,142.7649 L1445.1961,140.4395 L1443.25,138.4934 " fill="#FFFFE0" style="stroke:#181818;stroke-width:4.0;"/><text fill="#000000" font-family="Chalkduster" font-size="24" lengthAdjust="spacing" textLength="760" x="678.25" y="167.3343">Domain sepecific repositories are few and far between</text><text fill="#000000" font-family="Chalkduster" font-size="24" lengthAdjust="spacing" textLength="12" x="678.25" y="197.9641">&#160;</text><text fill="#000000" font-family="Chalkduster" font-size="24" lengthAdjust="spacing" textLength="12" x="678.25" y="228.5939">&#160;</text><polygon fill="#F1F1F1" points="129.75,164.1232,129.75,164.3334,139.75,163.7089,149.75,164.3165,159.75,164.5229,169.75,163.4098,179.75,164.0455,189.75,163.6967,199.75,163.7397,209.75,164.055,219.75,163.4318,229.75,164.6768,239.75,163.4929,249.75,163.9254,259.75,164.5552,269.75,164.0374,279.75,164.1914,289.75,164.0913,299.75,164.3017,309.75,164.3623,319.75,164.7089,329.75,164.7943,339.75,164.8025,349.75,164.3778,359.75,164.5868,369.75,164.8254,379.75,163.402,389.75,164.8017,399.75,163.8267,409.75,164.657,419.75,163.6282,429.75,164.0547,439.75,164.8648,449.75,164.0745,459.75,164.2285,469.75,164.4618,479.75,164.5394,489.75,164.1193,499.75,164.4104,509.75,163.5508,519.75,164.4076,529.75,164.6714,539.75,164.5677,549.75,164.7362,559.75,163.6401,569.75,163.471,579.75,163.5018,589.75,164.0643,599.75,163.9267,609.75,164.8046,619.75,163.9485,629.75,163.7802,639.75,164.1232,639.7791,164.1935,641.4327,164.6501,643.2193,165.4278,645.1361,166.5198,646.8766,167.1863,648.5888,167.7844,648.815,167.8781,649.222,169.5111,650.1516,171.3606,650.9674,173.163,651.3723,174.7952,652.25,176.6232,652.218,176.6232,652.292,181.7492,652.4673,186.8751,652.2486,192.0011,652.4042,197.1271,652.25,202.253,652.0795,202.1824,651.3092,203.9344,650.9406,205.8528,649.8325,207.4649,649.4778,209.389,648.5888,211.0919,648.6152,211.1555,646.7869,211.7416,645.0082,212.4474,643.3441,213.4299,641.4796,213.9286,639.75,214.753,639.75,215.3449,629.75,214.2003,619.75,215.3705,609.75,215.2373,599.75,214.998,589.75,214.8003,579.75,215.4796,569.75,215.3666,559.75,214.9223,549.75,215.0212,539.75,214.6228,529.75,215.4695,519.75,214.9079,509.75,214.9256,499.75,214.1447,489.75,214.3478,479.75,215.2838,469.75,215.1828,459.75,214.7101,449.75,214.4309,439.75,214.5341,429.75,214.0669,419.75,215.1678,409.75,215.4926,399.75,215.2794,389.75,215.448,379.75,214.6163,369.75,214.8403,359.75,214.3654,349.75,215.0371,339.75,214.9998,329.75,215.3054,319.75,214.5234,309.75,214.6186,299.75,215.1965,289.75,215.3204,279.75,214.2405,269.75,214.5592,259.75,214.9023,249.75,214.1422,239.75,215.1064,229.75,215.011,219.75,214.6523,209.75,214.8953,199.75,215.4817,189.75,214.4402,179.75,215.068,169.75,215.0387,159.75,214.8688,149.75,214.894,139.75,214.8665,129.75,214.753,129.6704,214.5608,127.9311,213.8974,126.1556,213.1464,124.4548,212.576,122.6902,211.8512,120.9112,211.0919,120.961,211.1125,120.0893,209.287,119.4259,207.5477,118.6774,205.7732,118.1599,204.0944,117.25,202.253,117.3922,202.253,117.0882,197.1271,117.2257,192.0011,117.0576,186.8751,117.3461,181.7492,117.25,176.6232,117.4374,176.7008,118.1499,174.9249,118.5803,173.0321,119.5896,171.3791,119.9502,169.4574,120.9112,167.7844,120.9367,167.846,122.6408,166.96,124.459,166.3497,126.2451,165.6617,128.0425,165.0008,129.75,164.1232" style="stroke:#181818;stroke-width:0.5;"/><text fill="#000000" font-family="Chalkduster" font-size="24" lengthAdjust="spacing" textLength="515" x="127.25" y="197.9641">Choosing a repo for your collections</text><polygon fill="#F1F1F1" points="177.75,260.3829,177.75,260.5931,187.8476,259.9686,197.9451,260.5762,208.0427,260.7826,218.1402,259.6695,228.2378,260.3052,238.3354,259.9564,248.4329,259.9994,258.5305,260.3147,268.628,259.6915,278.7256,260.9365,288.8232,259.7526,298.9207,260.1851,309.0183,260.8148,319.1159,260.2971,329.2134,260.4511,339.311,260.3509,349.4085,260.5614,359.5061,260.622,369.6037,260.9686,379.7012,261.0539,389.7988,261.0621,399.8963,260.6375,409.9939,260.8465,420.0915,261.0851,430.189,259.6617,440.2866,261.0614,450.3841,260.0864,460.4817,260.9167,470.5793,259.8878,480.6768,260.3144,490.7744,261.1245,500.872,260.3341,510.9695,260.4882,521.0671,260.7215,531.1646,260.7991,541.2622,260.379,551.3598,260.6701,561.4573,259.8105,571.5549,260.6673,581.6524,260.9311,591.75,260.3829,592.1862,260.4683,594.3516,270.7107,595.2759,280.7099,597.11,290.8873,599.1402,301.1032,601.6922,311.4213,603.75,321.6425,603.5571,321.6048,602.4187,331.9835,599.5786,342.0288,597.4133,352.2064,595.974,362.5262,593.0956,372.5641,591.75,382.9022,591.75,382.3831,581.6524,383.5512,571.5549,383.3379,561.4573,383.6367,551.3598,382.5804,541.2622,383.2214,531.1646,383.4926,521.0671,382.4298,510.9695,382.8063,500.872,383.0282,490.7744,383.554,480.6768,382.898,470.5793,383.3648,460.4817,382.3484,450.3841,382.2249,440.2866,383.4058,430.189,382.1853,420.0915,383.4112,409.9939,383.1088,399.8963,382.6343,389.7988,382.5484,379.7012,383.361,369.6037,382.6029,359.5061,383.4941,349.4085,382.3495,339.311,383.5196,329.2134,383.3865,319.1159,383.1472,309.0183,382.9494,298.9207,383.6288,288.8232,383.5158,278.7256,383.0715,268.628,383.1704,258.5305,382.7719,248.4329,383.6187,238.3354,383.0571,228.2378,383.0748,218.1402,382.2939,208.0427,382.497,197.9451,383.433,187.8476,383.332,177.75,382.9022,177.7079,382.894,175.4338,372.6303,173.5352,362.4402,171.0766,352.1405,170.157,342.1422,168.4758,331.9947,165.75,321.6425,166.2666,321.7437,168.432,311.5662,169.6158,301.1964,171.8356,291.0295,173.3696,280.7283,176.0287,270.6474,177.75,260.3829" style="stroke:#181818;stroke-width:0.5;"/><text fill="#000000" font-family="Chalkduster" font-size="24" lengthAdjust="spacing" textLength="344" x="177.75" y="284.2238">Select/Identify a Subject</text><text fill="#000000" font-family="Chalkduster" font-size="24" lengthAdjust="spacing" textLength="414" x="177.75" y="314.8536">or Domain Specific Repository</text><text fill="#000000" font-family="Chalkduster" font-size="24" lengthAdjust="spacing" textLength="12" x="177.75" y="345.4834">&#160;</text><text fill="#000000" font-family="Chalkduster" font-size="24" lengthAdjust="spacing" textLength="364" x="177.75" y="376.1133">eg PARADISEC / ADA / ???</text><text fill="#000000" font-family="Chalkduster" font-size="24" lengthAdjust="spacing" textLength="48" x="117.75" y="314.8536">Yes</text><text fill="#000000" font-family="Chalkduster" font-size="24" lengthAdjust="spacing" textLength="35" x="603.75" y="314.8536">no</text><polygon fill="#F1F1F1" points="23.5,392.9022,23.5,393.1124,33.6429,392.4879,43.7857,393.0955,53.9286,393.3019,64.0714,392.1888,74.2143,392.8245,84.3571,392.4757,94.5,392.9022,94.4511,392.7841,96.2591,393.6134,97.9473,394.1538,99.8739,395.2694,101.4907,395.637,103.3388,396.5634,103.2779,396.5381,104.2041,398.3862,104.7769,400.088,105.5565,401.8754,106.2579,403.6304,107,405.4022,107.0595,405.4022,107.0797,410.5282,107.1952,415.6541,107.2237,420.7801,107.2264,425.9061,107,431.032,107.0784,431.0645,106.4105,432.8589,105.7518,434.6571,104.5812,436.2433,104.28,438.1897,103.3388,439.8709,103.301,439.7796,101.6392,440.7675,99.7402,441.1829,98.0268,442.0465,96.3624,443.0282,94.5,443.532,94.5,443.4833,84.3571,443.6373,74.2143,443.8707,64.0714,443.9483,53.9286,443.5281,43.7857,443.8193,33.6429,442.9596,23.5,443.532,23.5363,443.6196,21.8022,442.9686,20.0212,442.2045,18.2749,441.5241,16.3673,440.4543,14.6612,439.8709,14.4603,439.7877,13.7376,438.0238,13.1786,436.3278,12.4039,434.5425,11.9421,432.8867,11,431.032,10.9418,431.032,10.8856,425.9061,11.0761,420.7801,10.7777,415.6541,10.827,410.5282,11,405.4022,11.1999,405.485,11.8664,403.69,12.6907,401.9604,13.0976,400.0579,14.0272,398.3719,14.6612,396.5634,14.7365,396.7452,16.3687,395.6857,18.1845,395.0694,19.9805,394.4055,21.8154,393.8352,23.5,392.9022" style="stroke:#181818;stroke-width:0.5;"/><text fill="#000000" font-family="Chalkduster" font-size="24" lengthAdjust="spacing" textLength="76" x="21" y="426.7431">Use it</text><path d="M1115.5,485.032 L1116.0605,485.032 L1114.3951,495.2324 L1116.0154,505.4328 L1116.5658,515.6332 L1113.5976,525.8336 L1115.2928,536.034 L1114.3627,546.2344 L1114.4773,556.4348 L1115.3182,566.6352 L1113.6563,576.8357 L1116.9764,587.0361 L1113.8193,597.2365 L1114.9726,607.4369 L1116.6519,617.6373 L1115.2713,627.8377 L1115.682,638.0381 L1115.4148,648.2385 L1115.9761,658.4389 L1116.1377,668.6393 L1117.0618,678.8397 L1117.2895,689.0401 L1117.3114,699.2405 L1115.5,709.4409 L1115.5,710.1199 L1125.5548,710.6771 L1135.6096,711.3135 L1145.6644,707.5177 L1155.7192,711.2502 L1165.774,708.6502 L1175.8288,710.8644 L1185.8836,708.1208 L1195.9384,709.2582 L1205.9932,711.4185 L1216.0479,709.3109 L1226.1027,709.7217 L1236.1575,710.3439 L1246.2123,710.5508 L1256.2671,709.4305 L1266.3219,710.2068 L1276.3767,707.9144 L1286.4315,710.1992 L1296.4863,710.9027 L1306.5411,710.6263 L1316.5959,711.0756 L1326.6507,708.1527 L1336.7055,707.7017 L1346.7603,707.7838 L1356.8151,709.2839 L1366.8699,708.9168 L1376.9247,711.258 L1386.9795,708.9751 L1397.0342,708.5261 L1407.089,710.0496 L1417.1438,707.6626 L1427.1986,708.0565 L1437.2534,711.1714 L1447.3082,710.6027 L1457.363,711.3995 L1467.4178,708.5828 L1477.4726,710.2921 L1487.5274,711.0153 L1497.5822,708.1811 L1507.637,709.1852 L1517.6918,709.7768 L1527.7466,711.1789 L1537.8014,709.4297 L1547.8562,710.6744 L1557.911,707.9641 L1567.9658,707.6349 L1578.0205,710.7838 L1588.0753,707.529 L1598.1301,710.7981 L1608.1849,709.9919 L1618.2397,708.7264 L1628.2945,708.4975 L1638.3493,710.6642 L1648.4041,708.6427 L1658.4589,711.0192 L1668.5137,707.9669 L1678.5685,711.0873 L1688.6233,710.7323 L1698.6781,710.0941 L1708.7329,709.5668 L1718.7877,711.3785 L1728.8425,711.0771 L1738.8973,709.8922 L1748.9521,710.156 L1759.0068,709.0935 L1769.0616,711.3514 L1779.1164,709.8538 L1789.1712,709.9011 L1799.226,707.8186 L1809.2808,708.3603 L1819.3356,710.8562 L1829.3904,710.5869 L1839.4452,709.3264 L1849.5,709.4409 L1848.6409,709.4409 L1848.9162,699.2309 L1847.6702,689.021 L1850.606,678.811 L1851.4722,668.6011 L1850.9037,658.3911 L1851.3532,648.1812 L1849.1354,637.9713 L1849.7326,627.7613 L1848.4664,617.5514 L1850.2574,607.3414 L1850.158,597.1315 L1850.973,586.9215 L1848.8876,576.7116 L1849.1416,566.5016 L1850.6826,556.2917 L1851.0129,546.0818 L1848.1332,535.8718 L1848.983,525.6619 L1849.898,515.4519 L1847.8711,505.242 L1849.5,495.032 L1849.7221,495.2542 L1847.6622,493.1942 L1845.4367,490.9687 L1843.5894,489.1214 L1841.958,487.49 L1839.5,485.032 L1839.5,484.1977 L1829.4444,485.872 L1819.3889,485.7938 L1809.3333,485.3408 L1799.2778,485.4078 L1789.2222,485.3346 L1779.1667,483.3676 L1769.1111,483.9632 L1759.0556,483.8013 L1749,485.2022 L1738.9444,485.267 L1728.8889,485.4634 L1718.8333,484.2561 L1708.7778,484.852 L1698.7222,484.7115 L1688.6667,486.5703 L1678.6111,486.1695 L1668.5556,483.7373 L1658.5,484.8376 L1648.4444,483.4928 L1638.3889,485.8011 L1628.3333,486.6547 L1618.2778,486.4842 L1608.2222,483.8706 L1598.1667,486.2693 L1588.1111,483.0512 L1578.0556,485.5658 L1568,484.2339 L1557.9444,485.29 L1547.8889,485.6729 L1537.8333,486.291 L1527.7778,483.1123 L1517.7222,486.3 L1507.6667,485.5072 L1497.6111,485.9796 L1487.5556,487.0262 L1477.5,485.0467 L1467.4444,485.4994 L1457.3889,485.6012 L1447.3333,485.558 L1437.2778,485.0299 L1427.2222,486.9273 L1417.1667,483.4061 L1407.1111,486.5394 L1397.0556,483.368 L1387,483.5912 L1376.9444,485.1387 L1366.8889,485.1074 L1356.8333,483.7178 L1346.7778,486.1353 L1336.7222,485.3223 L1326.6667,486.9698 L1316.6111,486.811 L1306.5556,483.8367 L1296.5,483.9709 L1286.4444,484.6876 L1276.3889,485.9801 L1266.3333,486.1067 L1256.2778,485.8351 L1246.2222,484.1202 L1236.1667,486.729 L1226.1111,486.7221 L1216.0556,484.906 L1206,484.3945 L1195.9444,483.9617 L1185.8889,484.4598 L1175.8333,485.3985 L1165.7778,484.8497 L1155.7222,483.9179 L1145.6667,486.3317 L1135.6111,483.8082 L1125.5556,486.3717 L1115.5,485.032 " fill="#FFFFE0" style="stroke:#181818;stroke-width:4.0;"/><path d="M1839.5,485.032 L1839.6868,485.032 L1839.1317,487.032 L1839.6718,489.032 L1839.8553,491.032 L1838.8659,493.032 L1839.5,495.032 L1839.5,494.963 L1841.5,494.6529 L1843.5,494.6911 L1845.5,494.9715 L1847.5,494.4175 L1849.5,495.032 L1849.848,495.38 L1847.1038,492.6359 L1845.3757,490.9077 L1843.7715,489.3035 L1841.4461,486.9781 L1839.5,485.032 " fill="#FFFFE0" style="stroke:#181818;stroke-width:4.0;"/><text fill="#000000" font-family="Chalkduster" font-size="24" lengthAdjust="spacing" textLength="12" x="1121.5" y="513.8729">&#160;</text><text fill="#000000" font-family="Chalkduster" font-size="24" lengthAdjust="spacing" textLength="672" x="1121.5" y="544.5028">Generalist &amp; Insitutional Repositories typically:</text><text fill="#000000" font-family="Chalkduster" font-size="24" lengthAdjust="spacing" textLength="544" x="1121.5" y="575.1326">- Do not have access control/licensing</text><text fill="#000000" font-family="Chalkduster" font-size="24" lengthAdjust="spacing" textLength="713" x="1121.5" y="605.7624">- Are not geared for collections of '000s of things</text><text fill="#000000" font-family="Chalkduster" font-size="24" lengthAdjust="spacing" textLength="549" x="1121.5" y="636.3923">- Have size limimts on individual items</text><text fill="#000000" font-family="Chalkduster" font-size="24" lengthAdjust="spacing" textLength="583" x="1121.5" y="667.0221">- Don't support domain-specific metadata</text><text fill="#000000" font-family="Chalkduster" font-size="24" lengthAdjust="spacing" textLength="12" x="1121.5" y="697.6519">&#160;</text><polygon fill="#F1F1F1" points="604.5,392.9022,604.5,393.1124,614.5741,392.4879,624.6481,393.0955,634.7222,393.3019,644.7963,392.1888,654.8704,392.8245,664.9444,392.4757,675.0185,392.5187,685.0926,392.834,695.1667,392.2108,705.2407,393.4558,715.3148,392.2719,725.3889,392.7044,735.463,393.3342,745.537,392.8164,755.6111,392.9704,765.6852,392.8703,775.7593,393.0807,785.8333,393.1413,795.9074,393.4879,805.9815,393.5733,816.0556,393.5815,826.1296,393.1568,836.2037,393.3658,846.2778,393.6044,856.3519,392.181,866.4259,393.5807,876.5,392.9022,876.408,392.8662,879.0657,399.0931,881.1464,405.0939,883.6787,411.2718,886.3302,417.4962,888.5,423.532,888.4849,423.5261,886.1327,429.6708,883.8051,435.8251,881.4292,441.9605,878.8988,448.0354,876.5,454.1619,876.5,454.4491,866.4259,453.5895,856.3519,454.4463,846.2778,454.7101,836.2037,454.6064,826.1296,454.7749,816.0556,453.6788,805.9815,453.5097,795.9074,453.5405,785.8333,454.103,775.7593,453.9653,765.6852,454.8433,755.6111,453.9872,745.537,453.8188,735.463,454.3901,725.3889,453.495,715.3148,453.6427,705.2407,454.8108,695.1667,454.5975,685.0926,454.8964,675.0185,453.8401,664.9444,454.4811,654.8704,454.7523,644.7963,453.6895,634.7222,454.066,624.6481,454.2879,614.5741,454.8136,604.5,454.1619,604.4987,454.1614,602.2436,448.0921,599.5281,441.8426,597.0898,435.7016,595.0563,429.7192,592.5,423.532,592.2775,423.4449,595.058,417.468,597.3641,411.3052,599.6168,405.1216,601.9902,398.9852,604.5,392.9022" style="stroke:#181818;stroke-width:0.5;"/><text fill="#000000" font-family="Chalkduster" font-size="24" lengthAdjust="spacing" textLength="272" x="604.5" y="416.7431">Use an institutional</text><text fill="#000000" font-family="Chalkduster" font-size="24" lengthAdjust="spacing" textLength="213" x="604.5" y="447.3729">data repository</text><text fill="#000000" font-family="Chalkduster" font-size="24" lengthAdjust="spacing" textLength="35" x="557.5" y="416.7431">no</text><text fill="#000000" font-family="Chalkduster" font-size="24" lengthAdjust="spacing" textLength="42" x="888.5" y="416.7431">yes</text><polygon fill="#F1F1F1" points="187,464.1619,187,464.3721,197.0588,463.7476,207.1176,464.3552,217.1765,464.5616,227.2353,463.4485,237.2941,464.0842,247.3529,463.7354,257.4118,463.7784,267.4706,464.0937,277.5294,463.4705,287.5882,464.7155,297.6471,463.5316,307.7059,463.9641,317.7647,464.5938,327.8235,464.0761,337.8824,464.2301,347.9412,464.1299,358,464.3404,368.0588,464.401,378.1176,464.7476,388.1765,464.8329,398.2353,464.8411,408.2941,464.4165,418.3529,464.6255,428.4118,464.8641,438.4706,463.4407,448.5294,464.8404,458.5882,463.8654,468.6471,464.6957,478.7059,463.6668,488.7647,464.0934,498.8235,464.9035,508.8824,464.1131,518.9412,464.2672,529,464.5005,539.0588,464.5781,549.1176,464.158,559.1765,464.4491,569.2353,463.5895,579.2941,464.4463,589.3529,464.7101,599.4118,464.6064,609.4706,464.7749,619.5294,463.6788,629.5882,463.5097,639.6471,463.5405,649.7059,464.103,659.7647,463.9653,669.8235,464.8433,679.8824,463.9872,689.9412,463.8188,700,464.1619,700.0599,464.2088,702.225,467.0878,704.6638,470.1811,707.3703,473.4842,709.7143,476.5034,712,479.4768,712.1927,479.6278,709.5156,482.4736,707.2838,485.6684,704.9549,488.7871,702.276,491.6316,700,494.7917,700,494.6958,689.9412,494.9177,679.8824,495.4435,669.8235,494.7875,659.7647,495.2543,649.7059,494.2379,639.6471,494.1144,629.5882,495.2953,619.5294,494.0748,609.4706,495.3007,599.4118,494.9983,589.3529,494.5238,579.2941,494.4379,569.2353,495.2505,559.1765,494.4924,549.1176,495.3836,539.0588,494.239,529,495.4091,518.9412,495.276,508.8824,495.0367,498.8235,494.8389,488.7647,495.5183,478.7059,495.4053,468.6471,494.961,458.5882,495.0599,448.5294,494.6614,438.4706,495.5082,428.4118,494.9466,418.3529,494.9643,408.2941,494.1834,398.2353,494.3865,388.1765,495.3225,378.1176,495.2215,368.0588,494.7488,358,494.4695,347.9412,494.5728,337.8824,494.1055,327.8235,495.2064,317.7647,495.5313,307.7059,495.3181,297.6471,495.4866,287.5882,494.655,277.5294,494.8789,267.4706,494.4041,257.4118,495.0757,247.3529,495.0385,237.2941,495.3441,227.2353,494.562,217.1765,494.6573,207.1176,495.2352,197.0588,495.359,187,494.7917,186.8655,494.6863,184.5491,491.6889,182.2392,488.6964,179.6397,485.4772,177.4927,482.6124,175,479.4768,175.0677,479.5298,177.3736,476.3931,179.8373,473.3801,182.3912,470.4376,184.5179,467.1605,187,464.1619" style="stroke:#181818;stroke-width:0.5;"/><text fill="#000000" font-family="Chalkduster" font-size="24" lengthAdjust="spacing" textLength="513" x="187" y="488.0028">Choose a Generalist Data Repository</text><text fill="#000000" font-family="Chalkduster" font-size="24" lengthAdjust="spacing" textLength="42" x="133" y="472.6878">yes</text><text fill="#000000" font-family="Chalkduster" font-size="24" lengthAdjust="spacing" textLength="35" x="712" y="472.6878">no</text><polygon fill="#F1F1F1" points="129.5,504.7917,129.5,505.0019,139.6429,504.3774,149.7857,504.985,159.9286,505.1914,170.0714,504.0783,180.2143,504.714,190.3571,504.3652,200.5,504.7917,200.4511,504.6736,202.2591,505.5029,203.9473,506.0433,205.8739,507.1589,207.4907,507.5265,209.3388,508.4529,209.2779,508.4276,210.2041,510.2757,210.7769,511.9775,211.5565,513.7649,212.2579,515.5199,213,517.2917,213.0595,517.2917,213.0797,522.4177,213.1952,527.5436,213.2237,532.6696,213.2264,537.7956,213,542.9215,213.0784,542.954,212.4105,544.7484,211.7518,546.5466,210.5812,548.1328,210.28,550.0792,209.3388,551.7604,209.301,551.6691,207.6392,552.657,205.7402,553.0724,204.0268,553.936,202.3624,554.9177,200.5,555.4215,200.5,555.3728,190.3571,555.5268,180.2143,555.7602,170.0714,555.8378,159.9286,555.4176,149.7857,555.7088,139.6429,554.8491,129.5,555.4215,129.5363,555.5091,127.8022,554.8581,126.0212,554.094,124.2749,553.4136,122.3673,552.3438,120.6612,551.7604,120.4603,551.6772,119.7376,549.9133,119.1786,548.2173,118.4039,546.432,117.9421,544.7762,117,542.9215,116.9418,542.9215,116.8856,537.7956,117.0761,532.6696,116.7777,527.5436,116.827,522.4177,117,517.2917,117.1999,517.3745,117.8664,515.5795,118.6907,513.8499,119.0976,511.9474,120.0272,510.2614,120.6612,508.4529,120.7365,508.6347,122.3687,507.5752,124.1845,506.9589,125.9805,506.295,127.8154,505.7247,129.5,504.7917" style="stroke:#181818;stroke-width:0.5;"/><text fill="#000000" font-family="Chalkduster" font-size="24" lengthAdjust="spacing" textLength="76" x="127" y="538.6326">Use it</text><polygon fill="#F1F1F1" points="497,504.7917,497,505.0019,507,504.3774,517,504.985,527,505.1914,537,504.0783,547,504.714,557,504.3652,567,504.4082,577,504.7235,587,504.1003,597,505.3453,607,504.1614,617,504.5939,627,505.2237,637,504.7059,647,504.8599,657,504.7598,667,504.9702,677,505.0308,687,505.3774,697,505.4628,707,505.471,717,505.0463,727,505.2553,737,505.4939,747,504.0705,757,505.4702,767,504.4952,777,505.3255,787,504.2967,797,504.7232,807,505.5333,817,504.743,827,504.897,837,505.1303,847,505.2079,857,504.7878,867,505.0789,877,504.2193,887,505.0761,897,505.3399,907,505.2362,917,505.4047,927,504.3086,937,504.1395,947,504.7917,946.9207,504.6003,948.7603,505.5058,950.5105,506.1956,952.3902,507.1983,954.0488,507.6668,955.8388,508.4529,955.7332,508.4091,956.6414,510.2498,957.0979,511.9033,957.8757,513.69,958.9676,515.6067,959.5,517.2917,959.9357,517.2917,960.2345,527.2239,959.1782,537.156,959.8192,547.0882,960.0904,557.0204,959.0276,566.9525,959.4041,576.8847,959.626,586.8169,960.1518,596.749,959.4958,606.6812,959.9626,616.6134,958.9462,626.5455,958.8227,636.4777,960.0036,646.4099,958.7831,656.342,960.009,666.2742,959.7066,676.2064,959.2321,686.1385,959.5,696.0707,959.3911,696.0256,958.909,697.897,957.9434,699.5681,957.4856,701.4495,956.4008,703.0713,955.8388,704.9095,955.9176,705.0997,954.1328,705.7909,952.3345,706.4494,950.5416,707.1208,948.8605,708.0622,947,708.5707,947,709.1843,937,708.74,927,708.8389,917,708.4404,907,709.2872,897,708.7256,887,708.7433,877,707.9624,867,708.1655,857,709.1015,847,709.0005,837,708.5278,827,708.2485,817,708.3518,807,707.8845,797,708.9854,787,709.3103,777,709.0971,767,709.2656,757,708.434,747,708.6579,737,708.1831,727,708.8547,717,708.8175,707,709.1231,697,708.341,687,708.4363,677,709.0142,667,709.138,657,708.0582,647,708.3768,637,708.72,627,707.9599,617,708.9241,607,708.8287,597,708.4699,587,708.713,577,709.2994,567,708.2578,557,708.8857,547,708.8564,537,708.6865,527,708.7116,517,708.6842,507,707.9465,497,708.5707,496.9489,708.4473,495.1734,707.6963,493.4726,707.1259,491.7079,706.4011,489.9496,705.6916,488.1612,704.9095,488.0716,704.8724,487.4081,703.1332,486.6597,701.3587,486.1421,699.6798,485.3636,697.8929,484.5,696.0707,484.0145,696.0707,484.4271,686.1385,483.9228,676.2064,484.7884,666.2742,485.1085,656.342,485.0446,646.4099,484.0644,636.4777,484.964,626.5455,483.7572,616.6134,484.7002,606.6812,484.2007,596.749,484.5967,586.8169,484.7403,576.8847,484.9721,566.9525,483.7801,557.0204,484.9755,547.0882,484.6782,537.156,484.8553,527.2239,484.5,517.2917,484.7303,517.3871,485.2339,515.5246,486.0184,513.7785,486.7624,512.0156,487.4897,510.2458,488.1612,508.4529,488.1611,508.4526,490.0196,507.9395,491.6189,506.8006,493.5366,506.4303,495.1526,505.3318,497,504.7917" style="stroke:#181818;stroke-width:0.5;"/><text fill="#000000" font-family="Chalkduster" font-size="24" lengthAdjust="spacing" textLength="12" x="494.5" y="538.6326">&#160;</text><text fill="#000000" font-family="Chalkduster" font-size="24" lengthAdjust="spacing" textLength="12" x="494.5" y="569.2624">&#160;</text><text fill="#000000" font-family="Chalkduster" font-size="24" lengthAdjust="spacing" textLength="455" x="494.5" y="599.8923">Join LDaCA in using open source</text><text fill="#000000" font-family="Chalkduster" font-size="24" lengthAdjust="spacing" textLength="374" x="494.5" y="630.5221">standards based solutions?</text><text fill="#000000" font-family="Chalkduster" font-size="24" lengthAdjust="spacing" textLength="12" x="494.5" y="661.1519">&#160;</text><text fill="#000000" font-family="Chalkduster" font-size="24" lengthAdjust="spacing" textLength="12" x="494.5" y="691.7818">&#160;</text><polygon fill="none" points="733.0608,743.1165,731.4484,745.3197,729.5412,748.5466,726.8136,750.7213,723.9474,751.9105,721.662,752.0137,718.7247,750.5264,715.9532,749.5548,713.8495,747.5821,712.7461,745.3236,712.0917,743.5254,711.4506,741.1766,710.41,739.1553,711.2096,737.1819,711.9102,735.0201,714.5393,733.3103,716.389,731.092,718.6784,730.3553,721.4001,729.7209,724.8904,730.0978,726.8021,730.9994,729.0247,731.4081,731.7272,734.1769,732.6693,737.0998,733.0786,739.0942,732.615,742.3807" style="stroke:#222222;stroke-width:1.0;"/><polygon fill="#222222" points="728.0331,741.9003,727.1536,743.102,726.1134,744.8622,724.6256,746.0484,723.0622,746.697,721.8156,746.7533,720.2135,745.9421,718.7017,745.4121,717.5543,744.3361,716.9524,743.1042,716.5955,742.1233,716.2458,740.8422,715.6782,739.7397,716.1143,738.6632,716.4965,737.4841,717.9305,736.5515,718.9394,735.3415,720.1882,734.9397,721.6728,734.5936,723.5766,734.7992,724.6193,735.291,725.8317,735.5139,727.3057,737.0241,727.8196,738.6185,728.0429,739.7063,727.79,741.499" style="stroke:#111111;stroke-width:1.0;"/><polygon fill="#F1F1F1" points="1002,464.1619,1002,464.3721,1012.1429,463.7476,1022.2857,464.3552,1032.4286,464.5616,1042.5714,463.4485,1052.7143,464.0842,1062.8571,463.7354,1073,464.1619,1072.9511,464.0438,1074.7591,464.8731,1076.4473,465.4134,1078.3739,466.5291,1079.9907,466.8967,1081.8388,467.823,1081.7779,467.7978,1082.7041,469.6459,1083.2769,471.3476,1084.0565,473.135,1084.7579,474.89,1085.5,476.6619,1085.5595,476.6619,1085.5797,481.7878,1085.6952,486.9138,1085.7237,492.0398,1085.7264,497.1657,1085.5,502.2917,1085.5784,502.3242,1084.9105,504.1186,1084.2518,505.9168,1083.0812,507.503,1082.78,509.4493,1081.8388,511.1305,1081.801,511.0392,1080.1392,512.0272,1078.2402,512.4426,1076.5268,513.3061,1074.8624,514.2879,1073,514.7917,1073,514.743,1062.8571,514.897,1052.7143,515.1303,1042.5714,515.2079,1032.4286,514.7878,1022.2857,515.0789,1012.1429,514.2193,1002,514.7917,1002.0363,514.8793,1000.3022,514.2283,998.5212,513.4641,996.7749,512.7838,994.8673,511.714,993.1612,511.1305,992.9603,511.0473,992.2376,509.2835,991.6786,507.5875,990.9039,505.8022,990.4421,504.1464,989.5,502.2917,989.4418,502.2917,989.3856,497.1657,989.5761,492.0398,989.2777,486.9138,989.327,481.7878,989.5,476.6619,989.6999,476.7447,990.3664,474.9497,991.1907,473.22,991.5976,471.3175,992.5272,469.6315,993.1612,467.823,993.2365,468.0049,994.8687,466.9453,996.6845,466.329,998.4805,465.6651,1000.3154,465.0948,1002,464.1619" style="stroke:#181818;stroke-width:0.5;"/><text fill="#000000" font-family="Chalkduster" font-size="24" lengthAdjust="spacing" textLength="76" x="999.5" y="498.0028">Use it</text><polygon fill="#F1F1F1" points="740.5,761.4409,740.5495,761.4904,742.8023,763.7432,745.3456,766.2864,747.7942,768.7351,749.9319,770.8727,752.5,773.4409,752.4817,773.4226,749.9995,775.7403,747.6096,778.1505,745.2839,780.6248,742.737,782.8779,740.5,785.4409,740.6305,785.5714,737.9514,782.8923,735.6534,780.5943,733.4018,778.3427,730.8798,775.8207,728.5,773.4409,728.5161,773.457,730.8925,771.0333,733.3421,768.6829,735.7564,766.2972,738.238,763.9789,740.5,761.4409" style="stroke:#181818;stroke-width:0.5;"/><polygon fill="#F1F1F1" points="384.75,791.4409,384.7995,791.4904,387.0523,793.7432,389.5956,796.2864,392.0442,798.7351,394.1819,800.8727,396.75,803.4409,396.7317,803.4226,394.2495,805.7403,391.8596,808.1505,389.5339,810.6248,386.987,812.8779,384.75,815.4409,384.8805,815.5714,382.2014,812.8923,379.9034,810.5943,377.6518,808.3427,375.1298,805.8207,372.75,803.4409,372.7661,803.457,375.1425,801.0333,377.5921,798.6829,380.0064,796.2972,382.488,793.9789,384.75,791.4409" style="stroke:#181818;stroke-width:0.5;"/><path d="M449.25,825.7298 L449.8105,825.7298 L448.1451,835.1188 L449.7654,844.5077 L450.3158,853.8967 L447.3476,863.2856 L449.25,872.6746 L449.2365,872.6068 L445.1757,873.1028 L441.1831,873.9403 L437.2381,875.0152 L433.1295,875.272 L429.25,876.6746 L429.3465,877.1571 L433.1401,876.9252 L437.2155,878.1022 L441.3253,879.4511 L445.235,879.7998 L449.25,880.6746 L449.432,880.6746 L449.1648,890.0635 L449.7261,899.4525 L449.8877,908.8414 L450.8118,918.2304 L449.25,927.6193 L449.25,927.6193 L449.25,929.4088 L459.2,929.4307 L469.15,928.2983 L479.1,928.8555 L489.05,929.4919 L499,925.6962 L508.95,929.4287 L518.9,926.8286 L528.85,929.0428 L538.8,926.2993 L548.75,927.4367 L558.7,929.5969 L568.65,927.4894 L578.6,927.9001 L588.55,928.5223 L598.5,928.7293 L608.45,927.6089 L618.4,928.3852 L628.35,926.0929 L638.3,928.3777 L648.25,929.0812 L658.2,928.8047 L668.15,929.2541 L678.1,926.3311 L688.05,925.8802 L698,925.9623 L707.95,927.4623 L717.9,927.0952 L727.85,929.4364 L737.8,927.1535 L747.75,926.7045 L757.7,928.228 L767.65,925.8411 L777.6,926.235 L787.55,929.3499 L797.5,928.7811 L807.45,929.578 L817.4,926.7612 L827.35,928.4705 L837.3,929.1938 L847.25,926.3596 L857.2,927.3637 L867.15,927.9553 L877.1,929.3573 L887.05,927.6081 L897,928.8528 L906.95,926.1426 L916.9,925.8133 L926.85,928.9623 L936.8,925.7075 L946.75,928.9766 L956.7,928.1703 L966.65,926.9049 L976.6,926.6759 L986.55,928.8427 L996.5,926.8211 L1006.45,929.1976 L1016.4,926.1453 L1026.35,929.2658 L1036.3,928.9108 L1046.25,928.2726 L1056.2,927.7452 L1066.15,929.5569 L1076.1,929.2555 L1086.05,928.0707 L1096,928.3345 L1105.95,927.2719 L1115.9,929.5299 L1125.85,928.0323 L1135.8,928.0795 L1145.75,925.997 L1155.7,926.5387 L1165.65,929.0346 L1175.6,928.7653 L1185.55,927.5048 L1195.5,926.7602 L1205.45,927.0355 L1215.4,925.7895 L1225.35,928.7253 L1235.3,929.5915 L1245.25,927.6193 L1245.25,927.6193 L1246.6537,927.6193 L1247.1032,917.4094 L1244.8854,907.1994 L1245.4826,896.9895 L1244.2164,886.7795 L1246.0074,876.5696 L1245.908,866.3597 L1246.723,856.1497 L1244.6376,845.9398 L1245.25,835.7298 L1245.1655,835.6453 L1243.5287,834.0086 L1241.6066,832.0864 L1238.9279,829.4077 L1237.1281,827.608 L1235.25,825.7298 L1235.25,826.1279 L1225.3006,824.1009 L1215.3513,826.6722 L1205.4019,826.4178 L1195.4525,825.4611 L1185.5032,826.1092 L1175.5538,827.673 L1165.6044,824.8955 L1155.6551,826.5698 L1145.7057,826.4915 L1135.7563,826.0385 L1125.807,826.1056 L1115.8576,826.0324 L1105.9082,824.0654 L1095.9589,824.661 L1086.0095,824.4991 L1076.0601,825.9 L1066.1108,825.9648 L1056.1614,826.1611 L1046.212,824.9539 L1036.2627,825.5498 L1026.3133,825.4092 L1016.3639,827.2681 L1006.4146,826.8673 L996.4652,824.4351 L986.5158,825.5354 L976.5665,824.1905 L966.6171,826.4988 L956.6677,827.3524 L946.7184,827.182 L936.769,824.5683 L926.8196,826.9671 L916.8703,823.749 L906.9209,826.2636 L896.9715,824.9317 L887.0222,825.9877 L877.0728,826.3707 L867.1234,826.9888 L857.1741,823.81 L847.2247,826.9978 L837.2753,826.205 L827.3259,826.6774 L817.3766,827.724 L807.4272,825.7444 L797.4778,826.1972 L787.5285,826.299 L777.5791,826.2558 L767.6297,825.7277 L757.6804,827.625 L747.731,824.1038 L737.7816,827.2372 L727.8323,824.0658 L717.8829,824.289 L707.9335,825.8365 L697.9842,825.8052 L688.0348,824.4156 L678.0854,826.8331 L668.1361,826.0201 L658.1867,827.6676 L648.2373,827.5088 L638.288,824.5345 L628.3386,824.6687 L618.3892,825.3854 L608.4399,826.6779 L598.4905,826.8044 L588.5411,826.5329 L578.5918,824.8179 L568.6424,827.4268 L558.693,827.4199 L548.7437,825.6037 L538.7943,825.0923 L528.8449,824.6595 L518.8956,825.1576 L508.9462,826.0963 L498.9968,825.5474 L489.0475,824.6157 L479.0981,827.0295 L469.1487,824.506 L459.1994,827.0695 L449.25,825.7298 L449.25,825.7298 " fill="#FFFFE0" style="stroke:#181818;stroke-width:4.0;"/><path d="M1235.25,825.7298 L1235.4368,825.7298 L1234.8817,827.7298 L1235.4218,829.7298 L1235.6053,831.7298 L1234.6159,833.7298 L1235.25,835.7298 L1235.25,835.6607 L1237.25,835.3507 L1239.25,835.3889 L1241.25,835.6692 L1243.25,835.1153 L1245.25,835.7298 L1245.598,836.0778 L1242.8538,833.3337 L1241.1257,831.6055 L1239.5215,830.0013 L1237.1961,827.6759 L1235.25,825.7298 " fill="#FFFFE0" style="stroke:#181818;stroke-width:4.0;"/><text fill="#000000" font-family="Chalkduster" font-size="24" lengthAdjust="spacing" textLength="775" x="455.25" y="854.5707">If you made it here, you found a disiplne, institutional</text><text fill="#000000" font-family="Chalkduster" font-size="24" lengthAdjust="spacing" textLength="734" x="455.25" y="885.2005">or generalist repo that can address all of the above</text><text fill="#000000" font-family="Chalkduster" font-size="24" lengthAdjust="spacing" textLength="769" x="455.25" y="915.8304">considerations, sensitivity, access control, data volume</text><polygon fill="#F1F1F1" points="352.75,851.3597,352.75,851.5698,363.4167,850.9453,374.0833,851.5529,384.75,851.7593,395.4167,850.6463,406.0833,851.2819,416.75,851.3597,416.6956,851.2283,418.4688,851.9738,420.2768,852.8031,421.9651,853.3434,423.8917,854.4591,425.5888,855.0208,425.3947,854.9404,426.2602,856.7634,427.1863,858.6115,427.7591,860.3132,428.5388,862.1006,429.25,863.8597,429.2394,863.8597,429.3095,868.9856,429.3297,874.1116,429.4452,879.2376,429.4737,884.3635,429.25,889.4895,429.4592,889.5761,428.5962,891.2897,427.9283,893.0842,427.2696,894.8824,426.099,896.4686,425.5888,898.3283,425.6754,898.5373,423.7832,898.9692,422.1214,899.9572,420.2224,900.3726,418.509,901.2362,416.75,901.9895,416.75,902.7311,406.0833,901.9408,395.4167,902.0948,384.75,902.3281,374.0833,902.4057,363.4167,901.9856,352.75,901.9895,352.7866,902.0779,350.9092,901.081,349.2507,900.6126,347.5166,899.9616,345.7356,899.1975,343.9112,898.3283,344.1,898.4065,343.0302,896.4989,342.2459,894.7096,341.5231,892.9458,340.9641,891.2497,340.25,889.4895,340.1845,889.4895,340.4771,884.3635,340.1918,879.2376,340.1356,874.1116,340.3261,868.9856,340.25,863.8597,340.0446,863.7746,340.8224,862.0257,341.9143,860.4069,342.5809,858.6119,343.4051,856.8823,343.9112,855.0208,343.8701,854.9217,345.7196,854.3869,347.522,853.7382,349.1542,852.6786,350.97,852.0624,352.75,851.3597" style="stroke:#181818;stroke-width:0.5;"/><text fill="#000000" font-family="Chalkduster" font-size="24" lengthAdjust="spacing" textLength="69" x="350.25" y="885.2005">done</text><path d="M722,708.5707 L722.0934,708.5707 L721.8159,712.7447 L722.0859,716.9188 L722.1776,721.0928 L721.6829,725.2668 L722,729.4409 " fill="#8B0000" style="stroke:#8B0000;stroke-width:4.0;"/><polygon fill="#8B0000" points="718,719.4409,718.065,719.4669,718.6718,721.3896,719.6598,723.4648,720.5237,725.4903,720.9792,727.3526,722,729.4409,721.9759,729.4312,722.668,727.3881,723.4813,725.3934,724.3789,723.4324,724.986,721.3553,726,719.4409,726.1305,719.5714,725.0514,720.0923,724.3534,720.9943,723.7018,721.9427,722.7798,722.6207,722,723.4409,722.0161,723.457,721.1925,722.6333,720.4421,721.8829,719.6564,721.0972,718.938,720.3789,718,719.4409" style="stroke:#8B0000;stroke-width:1.0;"/><path d="M175,479.4768 L175,479.5702 L173,479.2926 L171,479.5627 L169,479.6544 L167,479.1597 L165,479.4768 " fill="#8B0000" style="stroke:#8B0000;stroke-width:4.0;"/><path d="M165,479.4768 L165.0934,479.4768 L164.8159,484.5398 L165.0859,489.6028 L165.1776,494.6657 L164.6829,499.7287 L165,504.7917 " fill="#8B0000" style="stroke:#8B0000;stroke-width:4.0;"/><polygon fill="#8B0000" points="161,494.7917,161.065,494.8177,161.6718,496.7404,162.6598,498.8156,163.5237,500.8412,163.9792,502.7034,165,504.7917,164.9759,504.7821,165.668,502.7389,166.4813,500.7442,167.3789,498.7833,167.986,496.7061,169,494.7917,169.1305,494.9222,168.0514,495.4431,167.3534,496.3451,166.7018,497.2935,165.7798,497.9715,165,498.7917,165.0161,498.8078,164.1925,497.9842,163.4421,497.2338,162.6564,496.4481,161.938,495.7298,161,494.7917" style="stroke:#8B0000;stroke-width:1.0;"/><path d="M712,479.4768 L712,479.5702 L714,479.2926 L716,479.5627 L718,479.6544 L720,479.1597 L722,479.4768 " fill="#8B0000" style="stroke:#8B0000;stroke-width:4.0;"/><path d="M722,479.4768 L722.0934,479.4768 L721.8159,484.5398 L722.0859,489.6028 L722.1776,494.6657 L721.6829,499.7287 L722,504.7917 " fill="#8B0000" style="stroke:#8B0000;stroke-width:4.0;"/><polygon fill="#8B0000" points="718,494.7917,718.065,494.8177,718.6718,496.7404,719.6598,498.8156,720.5237,500.8412,720.9792,502.7034,722,504.7917,721.9759,504.7821,722.668,502.7389,723.4813,500.7442,724.3789,498.7833,724.986,496.7061,726,494.7917,726.1305,494.9222,725.0514,495.4431,724.3534,496.3451,723.7018,497.2935,722.7798,497.9715,722,498.7917,722.0161,498.8078,721.1925,497.9842,720.4421,497.2338,719.6564,496.4481,718.938,495.7298,718,494.7917" style="stroke:#8B0000;stroke-width:1.0;"/><path d="M165,555.4215 L165.2802,555.4215 L164.4476,565.3315 L165.2577,575.2415 L165.5329,585.1514 L164.0488,595.0614 L164.8964,604.9714 L164.4313,614.8814 L164.4887,624.7913 L164.9091,634.7013 L164.0782,644.6113 L165.7382,654.5212 L164.1596,664.4312 L164.7363,674.3412 L165.5759,684.2511 L164.8856,694.1611 L165.091,704.0711 L164.9574,713.9811 L165.238,723.891 L165.3188,733.801 L165.7809,743.711 L165.8947,753.6209 L165.9057,763.5309 L165,773.4409 " fill="#8B0000" style="stroke:#8B0000;stroke-width:4.0;"/><path d="M165,773.4409 L165,773.7211 L175.0625,772.8884 L185.125,773.6986 L195.1875,773.9738 L205.25,772.4897 L215.3125,773.3373 L225.375,772.8722 L235.4375,772.9295 L245.5,773.35 L255.5625,772.519 L265.625,774.1791 L275.6875,772.6005 L285.75,773.1772 L295.8125,774.0168 L305.875,773.3265 L315.9375,773.5319 L326,773.3983 L336.0625,773.6789 L346.125,773.7597 L356.1875,774.2218 L366.25,774.3356 L376.3125,774.3465 L386.375,773.7804 L396.4375,774.059 L406.5,774.3772 L416.5625,772.4793 L426.625,774.3456 L436.6875,773.0455 L446.75,774.1526 L456.8125,772.7808 L466.875,773.3495 L476.9375,774.4297 L487,773.3759 L497.0625,773.5813 L507.125,773.8924 L517.1875,773.9958 L527.25,773.4357 L537.3125,773.8238 L547.375,772.6776 L557.4375,773.8201 L567.5,774.1718 L577.5625,774.0336 L587.625,774.2582 L597.6875,772.7968 L607.75,772.5713 L617.8125,772.6123 L627.875,773.3624 L637.9375,773.1788 L648,774.3494 L658.0625,773.208 L668.125,772.9835 L678.1875,773.7452 L688.25,772.5518 L698.3125,772.7487 L708.375,774.3061 L718.4375,774.0218 L728.5,773.4409 " fill="#8B0000" style="stroke:#8B0000;stroke-width:4.0;"/><polygon fill="#8B0000" points="718.5,769.4409,718.526,769.5059,720.4487,770.1126,722.5239,771.1007,724.5495,771.9646,726.4117,772.4201,728.5,773.4409,728.4904,773.4168,726.4472,774.1089,724.4525,774.9222,722.4916,775.8198,720.4144,776.4269,718.5,777.4409,718.6305,777.5714,719.1514,776.4923,720.0534,775.7943,721.0018,775.1427,721.6798,774.2207,722.5,773.4409,722.5161,773.457,721.6925,772.6333,720.9421,771.8829,720.1564,771.0972,719.438,770.3789,718.5,769.4409" style="stroke:#8B0000;stroke-width:1.0;"/><path d="M592.5,423.532 L592.5,423.8123 L582.5667,422.9796 L572.6333,423.7898 L562.7,424.0649 L552.7667,422.5808 L542.8333,423.4284 L532.9,422.9634 L522.9667,423.0207 L513.0333,423.4412 L503.1,422.6102 L493.1667,424.2702 L483.2333,422.6917 L473.3,423.2683 L463.3667,424.108 L453.4333,423.4177 L443.5,423.532 " fill="#8B0000" style="stroke:#8B0000;stroke-width:4.0;"/><path d="M443.5,423.532 L443.5934,423.532 L443.3159,431.658 L443.5859,439.784 L443.6776,447.9099 L443.1829,456.0359 L443.5,464.1619 " fill="#8B0000" style="stroke:#8B0000;stroke-width:4.0;"/><polygon fill="#8B0000" points="439.5,454.1619,439.565,454.1879,440.1718,456.1106,441.1598,458.1858,442.0237,460.2114,442.4792,462.0736,443.5,464.1619,443.4759,464.1523,444.168,462.1091,444.9813,460.1144,445.8789,458.1534,446.486,456.0763,447.5,454.1619,447.6305,454.2924,446.5514,454.8133,445.8534,455.7153,445.2018,456.6637,444.2798,457.3417,443.5,458.1619,443.5161,458.178,442.6925,457.3543,441.9421,456.6039,441.1564,455.8182,440.438,455.0999,439.5,454.1619" style="stroke:#8B0000;stroke-width:1.0;"/><path d="M888.5,423.532 L888.5,423.8123 L898.4333,422.9796 L908.3667,423.7898 L918.3,424.0649 L928.2333,422.5808 L938.1667,423.4284 L948.1,422.9634 L958.0333,423.0207 L967.9667,423.4412 L977.9,422.6102 L987.8333,424.2702 L997.7667,422.6917 L1007.7,423.2683 L1017.6333,424.108 L1027.5667,423.4177 L1037.5,423.532 " fill="#8B0000" style="stroke:#8B0000;stroke-width:4.0;"/><path d="M1037.5,423.532 L1037.5934,423.532 L1037.3159,431.658 L1037.5859,439.784 L1037.6776,447.9099 L1037.1829,456.0359 L1037.5,464.1619 " fill="#8B0000" style="stroke:#8B0000;stroke-width:4.0;"/><polygon fill="#8B0000" points="1033.5,454.1619,1033.565,454.1879,1034.1718,456.1106,1035.1598,458.1858,1036.0237,460.2114,1036.4792,462.0736,1037.5,464.1619,1037.4759,464.1523,1038.168,462.1091,1038.9813,460.1144,1039.8789,458.1534,1040.486,456.0763,1041.5,454.1619,1041.6305,454.2924,1040.5514,454.8133,1039.8534,455.7153,1039.2018,456.6637,1038.2798,457.3417,1037.5,458.1619,1037.5161,458.178,1036.6925,457.3543,1035.9421,456.6039,1035.1564,455.8182,1034.438,455.0999,1033.5,454.1619" style="stroke:#8B0000;stroke-width:1.0;"/><path d="M1037.5,514.7917 L1037.7802,514.7917 L1036.9476,524.7397 L1037.7577,534.6878 L1038.0329,544.6358 L1036.5488,554.5839 L1037.3964,564.5319 L1036.9313,574.48 L1036.9887,584.428 L1037.4091,594.3761 L1036.5782,604.3241 L1038.2382,614.2722 L1036.6596,624.2202 L1037.2363,634.1682 L1038.0759,644.1163 L1037.3856,654.0643 L1037.591,664.0124 L1037.4574,673.9604 L1037.738,683.9085 L1037.8188,693.8565 L1038.2809,703.8046 L1038.3947,713.7526 L1038.4057,723.7006 L1037.8395,733.6487 L1038.1181,743.5967 L1038.4363,753.5448 L1036.5384,763.4928 L1037.5,773.4409 " fill="#8B0000" style="stroke:#8B0000;stroke-width:4.0;"/><path d="M1037.5,773.4409 L1037.5,773.7211 L1027.6724,772.8884 L1017.8448,773.6986 L1008.0172,773.9738 L998.1897,772.4897 L988.3621,773.3373 L978.5345,772.8722 L968.7069,772.9295 L958.8793,773.35 L949.0517,772.519 L939.2241,774.1791 L929.3966,772.6005 L919.569,773.1772 L909.7414,774.0168 L899.9138,773.3265 L890.0862,773.5319 L880.2586,773.3983 L870.431,773.6789 L860.6034,773.7597 L850.7759,774.2218 L840.9483,774.3356 L831.1207,774.3465 L821.2931,773.7804 L811.4655,774.059 L801.6379,774.3772 L791.8103,772.4793 L781.9828,774.3456 L772.1552,773.0455 L762.3276,774.1526 L752.5,773.4409 " fill="#8B0000" style="stroke:#8B0000;stroke-width:4.0;"/><polygon fill="#8B0000" points="762.5,769.4409,762.526,769.5059,760.4487,770.1126,758.5239,771.1007,756.5495,771.9646,754.4117,772.4201,752.5,773.4409,752.4904,773.4168,754.4472,774.1089,756.4525,774.9222,758.4916,775.8198,760.4144,776.4269,762.5,777.4409,762.6305,777.5714,761.5514,776.4923,760.8534,775.7943,760.2018,775.1427,759.2798,774.2207,758.5,773.4409,758.5161,773.457,759.2925,772.6333,760.1421,771.8829,760.9564,771.0972,761.838,770.3789,762.5,769.4409" style="stroke:#8B0000;stroke-width:1.0;"/><path d="M165.75,321.6425 L165.75,321.9228 L156.0455,321.0901 L146.3409,321.9003 L136.6364,322.1754 L126.9318,320.6913 L117.2273,321.5389 L107.5227,321.0739 L97.8182,321.1312 L88.1136,321.5517 L78.4091,320.7207 L68.7045,322.3807 L59,321.6425 " fill="#8B0000" style="stroke:#8B0000;stroke-width:4.0;"/><path d="M59,321.6425 L59.2802,321.6425 L58.4476,331.8225 L59.2577,342.0024 L59.5329,352.1824 L58.0488,362.3623 L58.8964,372.5423 L58.4313,382.7223 L59,392.9022 " fill="#8B0000" style="stroke:#8B0000;stroke-width:4.0;"/><polygon fill="#8B0000" points="55,382.9022,55.065,382.9282,55.6718,384.8509,56.6598,386.9261,57.5237,388.9517,57.9792,390.8139,59,392.9022,58.9759,392.8926,59.668,390.8494,60.4813,388.8547,61.3789,386.8938,61.986,384.8166,63,382.9022,63.1305,383.0327,62.0514,383.5536,61.3534,384.4556,60.7018,385.404,59.7798,386.082,59,386.9022,59.0161,386.9183,58.1925,386.0947,57.4421,385.3443,56.6564,384.5586,55.938,383.8403,55,382.9022" style="stroke:#8B0000;stroke-width:1.0;"/><path d="M603.75,321.6425 L603.75,321.9228 L613.5179,321.0901 L623.2857,321.9003 L633.0536,322.1754 L642.8214,320.6913 L652.5893,321.5389 L662.3571,321.0739 L672.125,321.1312 L681.8929,321.5517 L691.6607,320.7207 L701.4286,322.3807 L711.1964,320.8022 L720.9643,321.3788 L730.7321,322.2185 L740.5,321.6425 " fill="#8B0000" style="stroke:#8B0000;stroke-width:4.0;"/><path d="M740.5,321.6425 L740.7802,321.6425 L739.9476,331.8225 L740.7577,342.0024 L741.0329,352.1824 L739.5488,362.3623 L740.3964,372.5423 L739.9313,382.7223 L740.5,392.9022 " fill="#8B0000" style="stroke:#8B0000;stroke-width:4.0;"/><polygon fill="#8B0000" points="736.5,382.9022,736.565,382.9282,737.1718,384.8509,738.1598,386.9261,739.0237,388.9517,739.4792,390.8139,740.5,392.9022,740.4759,392.8926,741.168,390.8494,741.9813,388.8547,742.8789,386.8938,743.486,384.8166,744.5,382.9022,744.6305,383.0327,743.5514,383.5536,742.8534,384.4556,742.2018,385.404,741.2798,386.082,740.5,386.9022,740.5161,386.9183,739.6925,386.0947,738.9421,385.3443,738.1564,384.5586,737.438,383.8403,736.5,382.9022" style="stroke:#8B0000;stroke-width:1.0;"/><path d="M59,443.532 L59.2802,443.532 L58.4476,453.5295 L59.2577,463.527 L59.5329,473.5244 L58.0488,483.5219 L58.8964,493.5194 L58.4313,503.5168 L58.4887,513.5143 L58.9091,523.5118 L58.0782,533.5092 L59.7382,543.5067 L58.1596,553.5042 L58.7363,563.5016 L59.5759,573.4991 L58.8856,583.4966 L59.091,593.4941 L58.9574,603.4915 L59.238,613.489 L59.3188,623.4865 L59.7809,633.4839 L59.8947,643.4814 L59.9057,653.4789 L59.3395,663.4763 L59.6181,673.4738 L59.9363,683.4713 L58.0384,693.4687 L59.9047,703.4662 L58.6047,713.4637 L59.7117,723.4611 L58.34,733.4586 L58.9087,743.4561 L59.9888,753.4535 L58.935,763.451 L59.1404,773.4485 L59.4515,783.4459 L59.555,793.4434 L59,803.4409 " fill="#8B0000" style="stroke:#8B0000;stroke-width:4.0;"/><path d="M59,803.4409 L59,803.7211 L69.121,802.8884 L79.2419,803.6986 L89.3629,803.9738 L99.4839,802.4897 L109.6048,803.3373 L119.7258,802.8722 L129.8468,802.9295 L139.9677,803.35 L150.0887,802.519 L160.2097,804.1791 L170.3306,802.6005 L180.4516,803.1772 L190.5726,804.0168 L200.6935,803.3265 L210.8145,803.5319 L220.9355,803.3983 L231.0565,803.6789 L241.1774,803.7597 L251.2984,804.2218 L261.4194,804.3356 L271.5403,804.3465 L281.6613,803.7804 L291.7823,804.059 L301.9032,804.3772 L312.0242,802.4793 L322.1452,804.3456 L332.2661,803.0455 L342.3871,804.1526 L352.5081,802.7808 L362.629,803.3495 L372.75,803.4409 " fill="#8B0000" style="stroke:#8B0000;stroke-width:4.0;"/><polygon fill="#8B0000" points="362.75,799.4409,362.776,799.5059,364.6987,800.1126,366.7739,801.1007,368.7995,801.9646,370.6617,802.4201,372.75,803.4409,372.7404,803.4168,370.6972,804.1089,368.7025,804.9222,366.7416,805.8198,364.6644,806.4269,362.75,807.4409,362.8805,807.5714,363.4014,806.4923,364.3034,805.7943,365.2518,805.1427,365.9298,804.2207,366.75,803.4409,366.7661,803.457,365.9425,802.6333,365.1921,801.8829,364.4064,801.0972,363.688,800.3789,362.75,799.4409" style="stroke:#8B0000;stroke-width:1.0;"/><path d="M740.5,785.4409 L740.5934,785.4409 L740.3159,789.0409 L740.5859,792.6409 L740.6776,796.2409 L740.1829,799.8409 L740.5,803.4409 " fill="#8B0000" style="stroke:#8B0000;stroke-width:4.0;"/><path d="M740.5,803.4409 L740.5,803.7211 L730.3897,802.8884 L720.2794,803.6986 L710.1691,803.9738 L700.0588,802.4897 L689.9485,803.3373 L679.8382,802.8722 L669.7279,802.9295 L659.6176,803.35 L649.5074,802.519 L639.3971,804.1791 L629.2868,802.6005 L619.1765,803.1772 L609.0662,804.0168 L598.9559,803.3265 L588.8456,803.5319 L578.7353,803.3983 L568.625,803.6789 L558.5147,803.7597 L548.4044,804.2218 L538.2941,804.3356 L528.1838,804.3465 L518.0735,803.7804 L507.9632,804.059 L497.8529,804.3772 L487.7426,802.4793 L477.6324,804.3456 L467.5221,803.0455 L457.4118,804.1526 L447.3015,802.7808 L437.1912,803.3495 L427.0809,804.4297 L416.9706,803.3759 L406.8603,803.5813 L396.75,803.4409 " fill="#8B0000" style="stroke:#8B0000;stroke-width:4.0;"/><polygon fill="#8B0000" points="406.75,799.4409,406.776,799.5059,404.6987,800.1126,402.7739,801.1007,400.7995,801.9646,398.6617,802.4201,396.75,803.4409,396.7404,803.4168,398.6972,804.1089,400.7025,804.9222,402.7416,805.8198,404.6644,806.4269,406.75,807.4409,406.8805,807.5714,405.8014,806.4923,405.1034,805.7943,404.4518,805.1427,403.5298,804.2207,402.75,803.4409,402.7661,803.457,403.5425,802.6333,404.3921,801.8829,405.2064,801.0972,406.088,800.3789,406.75,799.4409" style="stroke:#8B0000;stroke-width:1.0;"/><path d="M384.75,214.753 L385.0302,214.753 L384.1976,223.879 L385.0077,233.005 L385.2829,242.1309 L383.7988,251.2569 L384.75,260.3829 " fill="#8B0000" style="stroke:#8B0000;stroke-width:4.0;"/><polygon fill="#8B0000" points="380.75,250.3829,380.815,250.4089,381.4218,252.3316,382.4098,254.4068,383.2737,256.4324,383.7292,258.2946,384.75,260.3829,384.7259,260.3733,385.418,258.3301,386.2313,256.3354,387.1289,254.3744,387.736,252.2973,388.75,250.3829,388.8805,250.5134,387.8014,251.0343,387.1034,251.9363,386.4518,252.8847,385.5298,253.5627,384.75,254.3829,384.7661,254.399,383.9425,253.5753,383.1921,252.825,382.4064,252.0392,381.688,251.3209,380.75,250.3829" style="stroke:#8B0000;stroke-width:1.0;"/><path d="M384.75,815.4409 L384.8434,815.4409 L384.5659,822.6246 L384.8359,829.8084 L384.9276,836.9921 L384.4329,844.1759 L384.75,851.3597 " fill="#8B0000" style="stroke:#8B0000;stroke-width:4.0;"/><polygon fill="#8B0000" points="380.75,841.3597,380.815,841.3857,381.4218,843.3084,382.4098,845.3836,383.2737,847.4091,383.7292,849.2713,384.75,851.3597,384.7259,851.35,385.418,849.3069,386.2313,847.3122,387.1289,845.3512,387.736,843.2741,388.75,841.3597,388.8805,841.4901,387.8014,842.0111,387.1034,842.913,386.4518,843.8615,385.5298,844.5394,384.75,845.3597,384.7661,845.3757,383.9425,844.5521,383.1921,843.8017,382.4064,843.016,381.688,842.2977,380.75,841.3597" style="stroke:#8B0000;stroke-width:1.0;"/><!--SRC=[NLDBZzem4BxdLqmlNP1udU604Ec3geTgKG-La5Ocdf2f73loJDYclxvZRrcoom75ZszcleS_aAzSR_6fDNw0nM9fZPYvBim5M_GoPnaSBkIF58MGE5p3lWc1oL_0GAcNuH4xNKk8myb_3l6slGzj6pn3YPqBGwfLfDzw18-AX5eXG-WZLC4vh8GKj2by48H8bqQAChI6F31sM55DLORbXeGC9YBK-0p6MwXDX3FACwBNJgWxgOn-KWsJ8wRgouFLIQWUjFsnF__MhPFN2VutETvwZ4cTF5xWn-vnLnwEd_QmX5svq__jTZi5QT33v1VoLAdzP0IIJUPPeDFLn8Tf0QbzEZCUoBFAs2UMnfryKllEPxZLIwYH0iKNz1YD8nRu20VFhnNkSoOjPEYeCiuDwsAkZ19xQCnL6rSLCgl2Nc9mIqSL-kI1NjkfVkdU1LL9czqO6G6XXeVLQfK_f548A-Phgidq5y5HIwteQM9cwKgsrw58iEKyWdyGuBxhGXImMU8vtoHkKKpYFt8gAvK3eZF3YFMxeDrq6fBk0F16UHWfdywIWT-2clkzDFkTpWbzpb_ej0HhyYeygIiQ81Cjmzcmwi31PObvc-2RN8abT5fTUTQt9dc0SVUNqzUFjGqUnsc6ub2dk4DhR091Wn5dUQSElUfWm19JvxpklWbBeSvSxehajoED4QWqLiRQc1nMyr-SKltEGLqgr7CcgwZCPgRFACL7dP9XzYuNCyXnl2hr5aVFvny0]--></g></svg>