<?xml version="1.0" encoding="us-ascii" standalone="no"?><svg xmlns="http://www.w3.org/2000/svg" xmlns:xlink="http://www.w3.org/1999/xlink" contentStyleType="text/css" height="917px" preserveAspectRatio="none" style="width:1271px;height:917px;background:#FFFFFF;" version="1.1" viewBox="0 0 1271 917" width="1271px" zoomAndPan="magnify"><defs/><g><text fill="#000000" font-family="Chalkduster" font-size="42" font-weight="bold" lengthAdjust="spacing" textLength="1042" x="113" y="61.7215">Building Services on top of RRKive storage</text><polygon fill="#222222" points="284.0552,97.0346,282.5894,99.0375,280.8556,101.971,278.376,103.948,275.7703,105.0291,273.6927,105.123,271.0224,103.7709,268.5029,102.8876,266.5905,101.0942,265.5873,99.0411,264.9924,97.4063,264.4096,95.271,263.4636,93.4335,264.1906,91.6395,264.8275,89.6742,267.2175,88.1199,268.8991,86.1032,270.9804,85.4335,273.4547,84.8568,276.6276,85.1995,278.3655,86.0191,280.3861,86.3906,282.8429,88.9076,283.6993,91.5649,284.0714,93.378,283.65,96.3657" style="stroke:#222222;stroke-width:1.0;"/><path d="M445.5,114.8912 L446.0605,114.8912 L444.3951,125.2678 L446.0154,135.6444 L446.5658,146.021 L443.5976,156.3976 L445.2928,166.7742 L445.5,177.1508 L445.4257,176.7791 L441.4331,177.6166 L437.4881,178.6914 L433.3795,178.9482 L429.5965,180.8334 L425.5,181.1508 L425.3901,180.6015 L429.4655,181.7784 L433.5753,183.1273 L437.485,183.4761 L441.5119,184.4103 L445.5,185.1508 L445.4148,185.1508 L445.9761,195.5274 L446.1377,205.904 L447.0618,216.2807 L447.2895,226.6573 L447.3114,237.0339 L445.5,247.4105 L445.5,247.4105 L445.5,248.0895 L455.5435,248.6467 L465.587,249.2831 L475.6304,245.4873 L485.6739,249.2199 L495.7174,246.6198 L505.7609,248.834 L515.8043,246.0904 L525.8478,247.2278 L535.8913,249.3881 L545.9348,247.2805 L555.9783,247.6913 L566.0217,248.3135 L576.0652,248.5204 L586.1087,247.4001 L596.1522,248.1764 L606.1957,245.884 L616.2391,248.1689 L626.2826,248.8723 L636.3261,248.5959 L646.3696,249.0452 L656.413,246.1223 L666.4565,245.6713 L676.5,245.7534 L686.5435,247.2535 L696.587,246.8864 L706.6304,249.2276 L716.6739,246.9447 L726.7174,246.4957 L736.7609,248.0192 L746.8043,245.6323 L756.8478,246.0262 L766.8913,249.141 L776.9348,248.5723 L786.9783,249.3691 L797.0217,246.5524 L807.0652,248.2617 L817.1087,248.9849 L827.1522,246.1507 L837.1957,247.1549 L847.2391,247.7465 L857.2826,249.1485 L867.3261,247.3993 L877.3696,248.644 L887.413,245.9337 L897.4565,245.6045 L907.5,248.7535 L917.5435,245.4987 L927.587,248.7677 L937.6304,247.9615 L947.6739,246.696 L957.7174,246.4671 L967.7609,248.6339 L977.8043,246.6123 L987.8478,248.9888 L997.8913,245.9365 L1007.9348,249.057 L1017.9783,248.702 L1028.0217,248.0637 L1038.0652,247.5364 L1048.1087,249.3481 L1058.1522,249.0467 L1068.1957,247.8618 L1078.2391,248.1257 L1088.2826,247.0631 L1098.3261,249.321 L1108.3696,247.8235 L1118.413,247.8707 L1128.4565,245.7882 L1138.5,247.4105 L1138.5,247.4105 L1137.4194,247.4105 L1139.9153,237.2005 L1139.646,226.9906 L1138.3855,216.7807 L1137.6409,206.5707 L1137.9162,196.3608 L1136.6702,186.1508 L1139.606,175.9409 L1140.4722,165.7309 L1139.9037,155.521 L1140.3532,145.311 L1138.1354,135.1011 L1138.5,124.8912 L1138.5548,124.946 L1136.2564,122.6475 L1134.6785,121.0697 L1132.6551,119.0463 L1130.8472,117.2384 L1128.5,114.8912 L1128.5,114.2787 L1118.4559,114.5327 L1108.4118,116.0737 L1098.3676,116.4041 L1088.3235,113.5244 L1078.2794,114.3741 L1068.2353,115.2892 L1058.1912,113.2622 L1048.1471,115.8335 L1038.1029,115.5791 L1028.0588,114.6225 L1018.0147,115.2705 L1007.9706,116.8343 L997.9265,114.0568 L987.8824,115.7311 L977.8382,115.6529 L967.7941,115.1999 L957.75,115.267 L947.7059,115.1938 L937.6618,113.2267 L927.6176,113.8223 L917.5735,113.6604 L907.5294,115.0614 L897.4853,115.1262 L887.4412,115.3225 L877.3971,114.1152 L867.3529,114.7111 L857.3088,114.5706 L847.2647,116.4294 L837.2206,116.0287 L827.1765,113.5964 L817.1324,114.6967 L807.0882,113.3519 L797.0441,115.6602 L787,116.5138 L776.9559,116.3433 L766.9118,113.7297 L756.8676,116.1284 L746.8235,112.9103 L736.7794,115.4249 L726.7353,114.093 L716.6912,115.1491 L706.6471,115.5321 L696.6029,116.1501 L686.5588,112.9714 L676.5147,116.1591 L666.4706,115.3663 L656.4265,115.8387 L646.3824,116.8853 L636.3382,114.9058 L626.2941,115.3586 L616.25,115.4603 L606.2059,115.4171 L596.1618,114.889 L586.1176,116.7864 L576.0735,113.2652 L566.0294,116.3986 L555.9853,113.2272 L545.9412,113.4503 L535.8971,114.9979 L525.8529,114.9666 L515.8088,113.5769 L505.7647,115.9944 L495.7206,115.1814 L485.6765,116.8289 L475.6324,116.6701 L465.5882,113.6958 L455.5441,113.83 L445.5,114.8912 L445.5,114.8912 " fill="#FFFFE0" style="stroke:#181818;stroke-width:4.0;"/><path d="M1128.5,114.8912 L1128.6868,114.8912 L1128.1317,116.8912 L1128.6718,118.8912 L1128.8553,120.8912 L1127.8659,122.8912 L1128.5,124.8912 L1128.5,124.8221 L1130.5,124.5121 L1132.5,124.5503 L1134.5,124.8306 L1136.5,124.2766 L1138.5,124.8912 L1138.848,125.2391 L1136.1038,122.495 L1134.3757,120.7669 L1132.7715,119.1627 L1130.4461,116.8372 L1128.5,114.8912 " fill="#FFFFE0" style="stroke:#181818;stroke-width:4.0;"/><text fill="#000000" font-family="Chalkduster" font-size="24" lengthAdjust="spacing" textLength="520" x="451.5" y="143.732">Create a lookup table of the archive:</text><text fill="#000000" font-family="Chalkduster" font-size="24" lengthAdjust="spacing" textLength="522" x="451.5" y="174.3619">- List IDs and their storage locations</text><text fill="#000000" font-family="Chalkduster" font-size="24" lengthAdjust="spacing" textLength="672" x="451.5" y="204.9917">- Build map of Collection / Object relationships</text><text fill="#000000" font-family="Chalkduster" font-size="24" lengthAdjust="spacing" textLength="12" x="451.5" y="235.6215">&#160;</text><polygon fill="#F1F1F1" points="135,140.521,135,140.7312,144.9286,140.1067,154.8571,140.7143,164.7857,140.9207,174.7143,139.8076,184.6429,140.4433,194.5714,140.0945,204.5,140.1375,214.4286,140.4528,224.3571,139.8296,234.2857,141.0746,244.2143,139.8907,254.1429,140.3232,264.0714,140.9529,274,140.4352,283.9286,140.5892,293.8571,140.489,303.7857,140.6995,313.7143,140.7601,323.6429,141.1067,333.5714,141.192,343.5,141.2003,353.4286,140.7756,363.3571,140.9846,373.2857,141.2232,383.2143,139.7998,393.1429,141.1995,403.0714,140.2245,413,140.521,413.0681,140.6854,414.7046,141.1008,416.5268,141.9644,418.3979,142.9461,420.0649,143.4349,421.8388,144.1822,421.8713,144.1956,422.6754,145.9931,423.4315,147.7708,424.0343,149.485,424.8562,151.2899,425.5,153.021,424.9276,153.021,425.7844,162.3976,426.0482,171.7742,425.9445,181.1508,426.113,190.5274,425.0169,199.904,425.5,209.2807,425.2992,209.1975,424.5764,210.9692,424.0174,212.8087,423.2428,214.5589,422.7809,216.4387,421.8388,218.1195,421.8166,218.0657,420.0273,218.7461,418.3324,219.6543,416.4505,220.1108,414.7015,220.8886,413,221.7807,413,222.4296,403.0714,222.2163,393.1429,222.5152,383.2143,221.4589,373.2857,222.0999,363.3571,222.3711,353.4286,221.3083,343.5,221.6848,333.5714,221.9066,323.6429,222.4324,313.7143,221.7765,303.7857,222.2432,293.8571,221.2269,283.9286,221.1034,274,222.2843,264.0714,221.0637,254.1429,222.2896,244.2143,221.9873,234.2857,221.5127,224.3571,221.4269,214.4286,222.2394,204.5,221.4813,194.5714,222.3725,184.6429,221.2279,174.7143,222.3981,164.7857,222.265,154.8571,222.0256,144.9286,221.8279,135,221.7807,135.0927,222.0044,133.3105,221.2374,131.4861,220.3683,129.7309,219.6666,127.9123,218.8116,126.1612,218.1195,126.3818,218.2109,125.4766,216.3715,124.7498,214.606,123.7771,212.7386,123.1074,210.9967,122.5,209.2807,123.0307,209.2807,122.9298,199.904,122.4571,190.5274,122.1778,181.1508,122.2811,171.7742,121.8138,162.3976,122.5,153.021,122.6277,153.0739,123.46,151.3476,124.1266,149.5526,124.9107,147.8063,125.3868,145.9325,126.1612,144.1822,126.1723,144.209,127.8795,143.3306,129.7329,142.8052,131.4959,142.0615,133.3027,141.4233,135,140.521" style="stroke:#181818;stroke-width:0.5;"/><text fill="#000000" font-family="Chalkduster" font-size="24" lengthAdjust="spacing" textLength="283" x="132.5" y="174.3619">1: Build an index of</text><text fill="#000000" font-family="Chalkduster" font-size="24" lengthAdjust="spacing" textLength="221" x="156.5" y="204.9917">"Digital Objects"</text><path d="M367,331.3552 L367.5605,331.3552 L365.8951,341.6763 L367.5154,351.9974 L368.0658,362.3184 L365.0976,372.6395 L366.7928,382.9605 L365.8627,393.2816 L365.9773,403.6026 L366.8182,413.9237 L367,424.2447 L366.8795,423.6421 L363.0965,425.5273 L358.8901,425.2954 L354.9655,426.4724 L351.0753,427.8212 L347,428.2447 L346.985,428.17 L351.0119,429.1042 L354.9944,429.8169 L359.0311,430.8004 L363.0417,431.6532 L367,432.2447 L368.5618,432.2447 L368.7895,442.5658 L368.8114,452.8869 L367.679,463.2079 L368.2362,473.529 L368.8726,483.85 L365.0768,494.1711 L368.8094,504.4921 L366.2093,514.8132 L367,525.1342 L367,525.1342 L367,526.5577 L377.0196,523.8142 L387.0392,524.9516 L397.0588,527.1119 L407.0784,525.0043 L417.098,525.415 L427.1176,526.0373 L437.1373,526.2442 L447.1569,525.1238 L457.1765,525.9001 L467.1961,523.6078 L477.2157,525.8926 L487.2353,526.5961 L497.2549,526.3197 L507.2745,526.769 L517.2941,523.846 L527.3137,523.3951 L537.3333,523.4772 L547.3529,524.9772 L557.3725,524.6102 L567.3922,526.9513 L577.4118,524.6684 L587.4314,524.2194 L597.451,525.743 L607.4706,523.356 L617.4902,523.7499 L627.5098,526.8648 L637.5294,526.296 L647.549,527.0929 L657.5686,524.2761 L667.5882,525.9854 L677.6078,526.7087 L687.6275,523.8745 L697.6471,524.8786 L707.6667,525.4702 L717.6863,526.8723 L727.7059,525.1231 L737.7255,526.3678 L747.7451,523.6575 L757.7647,523.3282 L767.7843,526.4772 L777.8039,523.2224 L787.8235,526.4915 L797.8431,525.6853 L807.8627,524.4198 L817.8824,524.1908 L827.902,526.3576 L837.9216,524.336 L847.9412,526.7125 L857.9608,523.6603 L867.9804,526.7807 L878,525.1342 L878,525.1342 L879.2915,525.1342 L878.6532,514.9243 L878.1259,504.7144 L879.9376,494.5044 L879.6362,484.2945 L878.4513,474.0845 L878.7152,463.8746 L877.6526,453.6646 L879.9105,443.4547 L878.413,433.2447 L878.4602,423.0348 L876.3777,412.8249 L876.9194,402.6149 L879.4153,392.405 L879.146,382.195 L877.8855,371.9851 L877.1409,361.7751 L877.4162,351.5652 L878,341.3552 L877.5687,340.924 L876.2607,339.6159 L874.4648,337.8201 L872.3309,335.6861 L870.4368,333.792 L868,331.3552 L868,330.9906 L857.98,331.5878 L847.96,330.3217 L837.94,332.1127 L827.92,332.0133 L817.9,332.8283 L807.88,330.7428 L797.86,330.9968 L787.84,332.5378 L777.82,332.8681 L767.8,329.9885 L757.78,330.8382 L747.76,331.7533 L737.74,329.7263 L727.72,332.2976 L717.7,332.0432 L707.68,331.0865 L697.66,331.7346 L687.64,333.2984 L677.62,330.5209 L667.6,332.1952 L657.58,332.117 L647.56,331.664 L637.54,331.731 L627.52,331.6579 L617.5,329.6908 L607.48,330.2864 L597.46,330.1245 L587.44,331.5254 L577.42,331.5902 L567.4,331.7866 L557.38,330.5793 L547.36,331.1752 L537.34,331.0347 L527.32,332.8935 L517.3,332.4928 L507.28,330.0605 L497.26,331.1608 L487.24,329.816 L477.22,332.1243 L467.2,332.9779 L457.18,332.8074 L447.16,330.1938 L437.14,332.5925 L427.12,329.3744 L417.1,331.889 L407.08,330.5571 L397.06,331.6132 L387.04,331.9961 L377.02,332.6142 L367,331.3552 L367,331.3552 " fill="#FFFFE0" style="stroke:#181818;stroke-width:4.0;"/><path d="M868,331.3552 L868.1868,331.3552 L867.6317,333.3552 L868.1718,335.3552 L868.3553,337.3552 L867.3659,339.3552 L868,341.3552 L868,341.2862 L870,340.9761 L872,341.0144 L874,341.2947 L876,340.7407 L878,341.3552 L878.348,341.7032 L875.6038,338.9591 L873.8757,337.2309 L872.2715,335.6267 L869.9461,333.3013 L868,331.3552 " fill="#FFFFE0" style="stroke:#181818;stroke-width:4.0;"/><text fill="#000000" font-family="Chalkduster" font-size="24" lengthAdjust="spacing" textLength="126" x="373" y="360.1961">- License</text><text fill="#000000" font-family="Chalkduster" font-size="24" lengthAdjust="spacing" textLength="315" x="373" y="390.826">- Assign IDs (DOIs etc)</text><text fill="#000000" font-family="Chalkduster" font-size="24" lengthAdjust="spacing" textLength="478" x="373" y="421.4558">- Object&lt;-&gt;Collection relationships</text><text fill="#000000" font-family="Chalkduster" font-size="24" lengthAdjust="spacing" textLength="253" x="373" y="452.0856">- Who, what where</text><text fill="#000000" font-family="Chalkduster" font-size="24" lengthAdjust="spacing" textLength="257" x="373" y="482.7155">- File descriptions</text><text fill="#000000" font-family="Chalkduster" font-size="24" lengthAdjust="spacing" textLength="187" x="373" y="513.3453">- Provenance</text><polygon fill="#F1F1F1" points="213.5,402.9298,213.5,403.14,223.5833,402.5155,233.6667,403.1231,243.75,403.3295,253.8333,402.2164,263.9167,402.8521,274,402.5033,284.0833,402.5463,294.1667,402.8617,304.25,402.2385,314.3333,403.4835,324.4167,402.2995,334.5,402.9298,334.4748,402.8689,336.3229,403.7951,338.0246,404.3679,339.812,405.1475,341.567,405.8489,343.3388,406.591,343.3938,406.6138,344.1447,408.3893,344.9837,410.2012,345.7422,411.9799,346.477,413.7487,347,415.4298,347.0849,415.4298,347.1545,420.5558,347.2341,425.6818,346.7596,430.8077,347.2262,435.9337,347,441.0597,346.9087,441.0218,346.4322,442.8955,345.3831,444.532,344.7822,446.3542,344.2995,448.2253,343.3388,449.8985,343.3326,449.8835,341.5845,450.6632,339.8465,451.4672,338.0886,452.2234,336.2673,452.8262,334.5,453.5597,334.5,453.8469,324.4167,452.9872,314.3333,453.844,304.25,454.1079,294.1667,454.0042,284.0833,454.1727,274,453.0766,263.9167,452.9075,253.8333,452.9383,243.75,453.5008,233.6667,453.3631,223.5833,454.2411,213.5,453.5597,213.4777,453.5059,211.6885,452.7218,209.9936,452.1655,208.1116,451.1576,206.3627,450.4709,204.6612,449.8985,204.861,449.9813,204.0631,448.1863,203.4229,446.4567,202.3654,444.5541,201.8305,442.8681,201,441.0597,201.1968,441.0597,200.8425,435.9337,200.968,430.8077,201.042,425.6818,201.2173,420.5558,201,415.4298,200.9987,415.4293,201.8747,413.7211,202.2939,411.8237,202.9881,410.0401,204.084,408.423,204.6612,406.591,204.5697,406.3702,206.4939,406.0155,208.2231,405.1902,209.9303,404.3118,211.6871,403.5531,213.5,402.9298" style="stroke:#181818;stroke-width:0.5;"/><text fill="#000000" font-family="Chalkduster" font-size="24" lengthAdjust="spacing" textLength="114" x="211" y="436.7707">2: Set up</text><path d="M522,565.4492 L522.1868,565.4492 L521.6317,568.7121 L522.1718,571.9751 L522.3553,575.2381 L521.3659,578.5011 L522,581.7641 L521.9865,581.6963 L517.9257,582.1923 L513.9331,583.0298 L509.9881,584.1047 L505.8795,584.3615 L502,585.7641 L502.0965,586.2466 L505.8901,586.0147 L509.9655,587.1917 L514.0753,588.5406 L517.985,588.8893 L522,589.7641 L522.0607,589.7641 L521.9716,593.0271 L522.1587,596.29 L522.2126,599.553 L522.5206,602.816 L522,606.079 L522,606.079 L522,607.8685 L532.0179,607.8903 L542.0357,606.758 L552.0536,607.3152 L562.0714,607.9516 L572.0893,604.1558 L582.1071,607.8884 L592.125,605.2883 L602.1429,607.5025 L612.1607,604.7589 L622.1786,605.8963 L632.1964,608.0566 L642.2143,605.949 L652.2321,606.3598 L662.25,606.982 L672.2679,607.1889 L682.2857,606.0686 L692.3036,606.8449 L702.3214,604.5525 L712.3393,606.8374 L722.3571,607.5408 L732.375,607.2644 L742.3929,607.7137 L752.4107,604.7908 L762.4286,604.3398 L772.4464,604.4219 L782.4643,605.922 L792.4821,605.5549 L802.5,607.8961 L812.5179,605.6132 L822.5357,605.1642 L832.5536,606.6877 L842.5714,604.3008 L852.5893,604.6947 L862.6071,607.8095 L872.625,607.2408 L882.6429,608.0376 L892.6607,605.2209 L902.6786,606.9302 L912.6964,607.6534 L922.7143,604.8192 L932.7321,605.8234 L942.75,606.4149 L952.7679,607.817 L962.7857,606.0678 L972.8036,607.3125 L982.8214,604.6022 L992.8393,604.273 L1002.8571,607.422 L1012.875,604.1672 L1022.8929,607.4362 L1032.9107,606.63 L1042.9286,605.3645 L1052.9464,605.1356 L1062.9643,607.3024 L1072.9821,605.2808 L1083,606.079 L1083,606.079 L1083.5261,606.079 L1082.5087,599.953 L1083.5488,593.8271 L1083.4305,587.7011 L1083.2177,581.5751 L1083,575.4492 L1083.0297,575.4788 L1081.4567,573.9059 L1079.3857,571.8348 L1077.1064,569.5555 L1075.1686,567.6177 L1073,565.4492 L1073,565.1018 L1062.9818,567.3597 L1052.9636,565.8621 L1042.9455,565.9094 L1032.9273,563.8269 L1022.9091,564.3686 L1012.8909,566.8645 L1002.8727,566.5952 L992.8545,565.3347 L982.8364,564.59 L972.8182,564.8654 L962.8,563.6194 L952.7818,566.5551 L942.7636,567.4213 L932.7455,566.8529 L922.7273,567.3023 L912.7091,565.0846 L902.6909,565.6817 L892.6727,564.4156 L882.6545,566.2066 L872.6364,566.1072 L862.6182,566.9222 L852.6,564.8367 L842.5818,565.0907 L832.5636,566.6317 L822.5455,566.9621 L812.5273,564.0824 L802.5091,564.9321 L792.4909,565.8472 L782.4727,563.8202 L772.4545,566.3915 L762.4364,566.1371 L752.4182,565.1805 L742.4,565.8285 L732.3818,567.3923 L722.3636,564.6148 L712.3455,566.2891 L702.3273,566.2109 L692.3091,565.7579 L682.2909,565.8249 L672.2727,565.7518 L662.2545,563.7847 L652.2364,564.3803 L642.2182,564.2184 L632.2,565.6194 L622.1818,565.6842 L612.1636,565.8805 L602.1455,564.6732 L592.1273,565.2691 L582.1091,565.1286 L572.0909,566.9874 L562.0727,566.5867 L552.0545,564.1544 L542.0364,565.2547 L532.0182,563.9099 L522,565.4492 L522,565.4492 " fill="#FFFFE0" style="stroke:#181818;stroke-width:4.0;"/><path d="M1073,565.4492 L1073.1868,565.4492 L1072.6317,567.4492 L1073.1718,569.4492 L1073.3553,571.4492 L1072.3659,573.4492 L1073,575.4492 L1073,575.3801 L1075,575.0701 L1077,575.1083 L1079,575.3886 L1081,574.8346 L1083,575.4492 L1083.348,575.7971 L1080.6038,573.053 L1078.8757,571.3249 L1077.2715,569.7207 L1074.9461,567.3952 L1073,565.4492 " fill="#FFFFE0" style="stroke:#181818;stroke-width:4.0;"/><text fill="#000000" font-family="Chalkduster" font-size="24" lengthAdjust="spacing" textLength="540" x="528" y="594.29">Ready for institutional storage service</text><polygon fill="#F1F1F1" points="58.5,545.1342,58.5,545.3444,68.5233,544.7199,78.5465,545.3275,88.5698,545.5339,98.593,544.4208,108.6163,545.0565,118.6395,544.7077,128.6628,544.7507,138.686,545.0661,148.7093,544.4429,158.7326,545.6879,168.7558,544.504,178.7791,544.9365,188.8023,545.5662,198.8256,545.0485,208.8488,545.2025,218.8721,545.1023,228.8953,545.3128,238.9186,545.3734,248.9419,545.7199,258.9651,545.8053,268.9884,545.8135,279.0116,545.3889,289.0349,545.5978,299.0581,545.8365,309.0814,544.4131,319.1047,545.8128,329.1279,544.8377,339.1512,545.6681,349.1744,544.6392,359.1977,545.0657,369.2209,545.8758,379.2442,545.0855,389.2674,545.2395,399.2907,545.4729,409.314,545.5505,419.3372,545.1303,429.3605,545.4215,439.3837,544.5618,449.407,545.4186,459.4302,545.6824,469.4535,545.5788,479.4767,545.7473,489.5,545.1342,489.4384,544.9855,491.1846,545.6656,492.9563,546.4073,494.7958,547.3128,496.546,548.0027,498.3388,548.7954,498.5487,548.8823,499.0173,550.5409,499.6977,552.2872,500.6058,554.1278,501.0624,555.7814,502,557.6342,501.4809,557.6342,502.649,567.0109,502.4357,576.3875,502.7345,585.7641,501.6782,595.1407,502.3192,604.5173,502,613.8939,502.1818,613.9692,501.1223,615.6014,500.506,617.4172,499.8421,619.2133,499.2718,621.0481,498.3388,622.7327,498.3383,622.7315,496.6301,623.6074,494.7327,624.0267,492.9491,624.7209,491.332,625.8168,489.5,626.3939,489.5,625.677,479.4767,626.9029,469.4535,626.6005,459.4302,626.126,449.407,626.0401,439.3837,626.8527,429.3605,626.0946,419.3372,626.9858,409.314,625.8412,399.2907,627.0113,389.2674,626.8782,379.2442,626.6389,369.2209,626.4411,359.1977,627.1205,349.1744,627.0075,339.1512,626.5632,329.1279,626.6621,319.1047,626.2636,309.0814,627.1104,299.0581,626.5488,289.0349,626.5665,279.0116,625.7856,268.9884,625.9887,258.9651,626.9247,248.9419,626.8237,238.9186,626.351,228.8953,626.0717,218.8721,626.175,208.8488,625.7077,198.8256,626.8086,188.8023,627.1335,178.7791,626.9203,168.7558,627.0888,158.7326,626.2572,148.7093,626.4811,138.686,626.0063,128.6628,626.6779,118.6395,626.6407,108.6163,626.9463,98.593,626.1643,88.5698,626.2595,78.5465,626.8374,68.5233,626.9612,58.5,626.3939,58.4346,626.2361,56.7075,625.602,54.9835,624.9754,53.1188,624.0091,51.474,623.5738,49.6612,622.7327,49.7406,622.7657,48.8979,620.9521,48.2405,619.2154,47.6889,617.5224,46.6359,615.6218,46,613.8939,46.315,613.8939,46.2856,604.5173,46.1158,595.1407,46.1409,585.7641,46.1135,576.3875,45.3758,567.0109,46,557.6342,45.8766,557.5831,46.5901,555.8076,47.4841,554.1069,48.2238,552.3422,48.9787,550.5838,49.6612,548.7954,49.624,548.7058,51.4203,548.0424,53.1814,547.2939,55.0381,546.7764,56.7866,545.9978,58.5,545.1342" style="stroke:#181818;stroke-width:0.5;"/><text fill="#000000" font-family="Chalkduster" font-size="24" lengthAdjust="spacing" textLength="436" x="56" y="578.9751">&#127881; Archival-Repository ready &#127881;</text><text fill="#000000" font-family="Chalkduster" font-size="24" lengthAdjust="spacing" textLength="211" x="152" y="609.605">status achieved</text><path d="M557,636.6829 L557.5605,636.6829 L555.8951,646.5196 L557.5154,656.3564 L558.0658,666.1932 L555.0976,676.0299 L556.7928,685.8667 L555.8627,695.7035 L555.9773,705.5402 L556.8182,715.377 L555.1563,725.2137 L558.4764,735.0505 L557,744.8873 L556.8901,744.3379 L552.9655,745.5149 L549.0753,746.8638 L544.985,747.2125 L541.0119,748.1468 L537,748.8873 L536.9944,748.8594 L541.0311,749.8429 L545.0417,750.6957 L549.1021,751.7978 L553.117,752.6722 L557,752.8873 L558.8114,752.8873 L557.679,762.724 L558.2362,772.5608 L558.8726,782.3976 L555.0768,792.2343 L558.8094,802.0711 L556.2093,811.9079 L558.4235,821.7446 L555.6799,831.5814 L556.8173,841.4182 L558.9776,851.2549 L557,861.0917 L557,861.0917 L557,860.9617 L566.9706,861.3725 L576.9412,861.9947 L586.9118,862.2016 L596.8824,861.0813 L606.8529,861.8576 L616.8235,859.5652 L626.7941,861.8501 L636.7647,862.5535 L646.7353,862.2771 L656.7059,862.7264 L666.6765,859.8035 L676.6471,859.3525 L686.6176,859.4346 L696.5882,860.9347 L706.5588,860.5676 L716.5294,862.9088 L726.5,860.6259 L736.4706,860.1769 L746.4412,861.7004 L756.4118,859.3135 L766.3824,859.7074 L776.3529,862.8222 L786.3235,862.2535 L796.2941,863.0503 L806.2647,860.2336 L816.2353,861.9429 L826.2059,862.6661 L836.1765,859.8319 L846.1471,860.8361 L856.1176,861.4276 L866.0882,862.8297 L876.0588,861.0805 L886.0294,862.3252 L896,859.6149 L905.9706,859.2857 L915.9412,862.4347 L925.9118,859.1798 L935.8824,862.4489 L945.8529,861.6427 L955.8235,860.3772 L965.7941,860.1483 L975.7647,862.3151 L985.7353,860.2935 L995.7059,862.67 L1005.6765,859.6177 L1015.6471,862.7382 L1025.6176,862.3832 L1035.5882,861.7449 L1045.5588,861.2176 L1055.5294,863.0293 L1065.5,862.7279 L1075.4706,861.543 L1085.4412,861.8069 L1095.4118,860.7443 L1105.3824,863.0022 L1115.3529,861.5047 L1125.3235,861.5519 L1135.2941,859.4694 L1145.2647,860.0111 L1155.2353,862.507 L1165.2059,862.2377 L1175.1765,860.9772 L1185.1471,860.2326 L1195.1176,860.5079 L1205.0882,859.2619 L1215.0588,862.1977 L1225.0294,863.0639 L1235,861.0917 L1235,861.0917 L1236.4037,861.0917 L1236.8532,850.8817 L1234.6354,840.6718 L1235.2326,830.4619 L1233.9664,820.2519 L1235.7574,810.042 L1235.658,799.832 L1236.473,789.6221 L1234.3876,779.4121 L1234.6416,769.2022 L1236.1826,758.9922 L1236.5129,748.7823 L1233.6332,738.5724 L1234.483,728.3624 L1235.398,718.1525 L1233.3711,707.9425 L1235.9424,697.7326 L1235.688,687.5226 L1234.7313,677.3127 L1235.3793,667.1027 L1236.9431,656.8928 L1235,646.6829 L1234.8033,646.4862 L1233.198,644.8808 L1231.1795,642.8624 L1229.0728,640.7556 L1227.0886,638.7714 L1225,636.6829 L1225,636.9855 L1215.0299,635.0184 L1205.0597,635.614 L1195.0896,635.4521 L1185.1194,636.8531 L1175.1493,636.9179 L1165.1791,637.1142 L1155.209,635.9069 L1145.2388,636.5028 L1135.2687,636.3623 L1125.2985,638.2211 L1115.3284,637.8204 L1105.3582,635.3881 L1095.3881,636.4884 L1085.4179,635.1436 L1075.4478,637.4519 L1065.4776,638.3055 L1055.5075,638.135 L1045.5373,635.5214 L1035.5672,637.9201 L1025.597,634.702 L1015.6269,637.2166 L1005.6567,635.8847 L995.6866,636.9408 L985.7164,637.3238 L975.7463,637.9418 L965.7761,634.7631 L955.806,637.9508 L945.8358,637.158 L935.8657,637.6304 L925.8955,638.677 L915.9254,636.6975 L905.9552,637.1502 L895.9851,637.252 L886.0149,637.2088 L876.0448,636.6807 L866.0746,638.5781 L856.1045,635.0569 L846.1343,638.1903 L836.1642,635.0189 L826.194,635.242 L816.2239,636.7896 L806.2537,636.7583 L796.2836,635.3686 L786.3134,637.7861 L776.3433,636.9731 L766.3731,638.6206 L756.403,638.4618 L746.4328,635.4875 L736.4627,635.6217 L726.4925,636.3384 L716.5224,637.6309 L706.5522,637.7575 L696.5821,637.4859 L686.6119,635.771 L676.6418,638.3798 L666.6716,638.373 L656.7015,636.5568 L646.7313,636.0454 L636.7612,635.6125 L626.791,636.1106 L616.8209,637.0493 L606.8507,636.5005 L596.8806,635.5687 L586.9104,637.9825 L576.9403,635.459 L566.9701,638.0225 L557,636.6829 L557,636.6829 " fill="#FFFFE0" style="stroke:#181818;stroke-width:4.0;"/><path d="M1225,636.6829 L1225.1868,636.6829 L1224.6317,638.6829 L1225.1718,640.6829 L1225.3553,642.6829 L1224.3659,644.6829 L1225,646.6829 L1225,646.6138 L1227,646.3038 L1229,646.342 L1231,646.6223 L1233,646.0683 L1235,646.6829 L1235.348,647.0308 L1232.6038,644.2867 L1230.8757,642.5586 L1229.2715,640.9544 L1226.9461,638.6289 L1225,636.6829 " fill="#FFFFE0" style="stroke:#181818;stroke-width:4.0;"/><text fill="#000000" font-family="Chalkduster" font-size="24" lengthAdjust="spacing" textLength="657" x="563" y="665.5237">Choose according to your means/requirements:</text><text fill="#000000" font-family="Chalkduster" font-size="24" lengthAdjust="spacing" textLength="527" x="563" y="696.1536">- Simple spreadsheet based summaries</text><text fill="#000000" font-family="Chalkduster" font-size="24" lengthAdjust="spacing" textLength="435" x="563" y="726.7834">- Portable database catalogues</text><text fill="#000000" font-family="Chalkduster" font-size="24" lengthAdjust="spacing" textLength="640" x="563" y="757.4132">- Access controlled API with license manager</text><text fill="#000000" font-family="Chalkduster" font-size="24" lengthAdjust="spacing" textLength="641" x="563" y="788.0431">- Full search features a la LDaCA/PARADISEC</text><text fill="#000000" font-family="Chalkduster" font-size="24" lengthAdjust="spacing" textLength="403" x="563" y="818.6729">- IDN-style "Data Catalogue"</text><text fill="#000000" font-family="Chalkduster" font-size="24" lengthAdjust="spacing" textLength="239" x="563" y="849.3027">- More coming ...</text><polygon fill="#F1F1F1" points="23.5,723.5724,23.5,723.7825,33.52,723.158,43.54,723.7656,53.56,723.972,63.58,722.859,73.6,723.4946,83.62,723.1459,93.64,723.1889,103.66,723.5042,113.68,722.881,123.7,724.126,133.72,722.9421,143.74,723.3746,153.76,724.0043,163.78,723.4866,173.8,723.6406,183.82,723.5404,193.84,723.7509,203.86,723.8115,213.88,724.158,223.9,724.2434,233.92,724.2516,243.94,723.827,253.96,724.0359,263.98,724.2746,274,722.8512,284.02,724.2509,294.04,723.2759,304.06,724.1062,314.08,723.0773,324.1,723.5039,334.12,724.314,344.14,723.5236,354.16,723.6777,364.18,723.911,374.2,723.9886,384.22,723.5685,394.24,723.8596,404.26,722.9999,414.28,723.8567,424.3,724.1206,434.32,724.0169,444.34,724.1854,454.36,723.0893,464.38,722.9202,474.4,722.951,484.42,723.5135,494.44,723.3758,504.46,724.2538,514.48,723.3977,524.5,723.5724,524.4562,723.4667,526.2969,724.3749,527.9505,724.8315,529.7371,725.6092,531.6538,726.7011,533.3388,727.2335,533.473,727.2891,534.2973,729.095,534.7042,730.728,535.6338,732.5775,536.4496,734.3799,537,736.0724,536.8425,736.0724,536.968,741.1983,537.042,746.3243,537.2173,751.4503,536.9986,756.5762,537,761.7022,537.1425,761.7612,536.0972,763.3993,535.327,765.1513,534.9584,767.0697,533.8503,768.6818,533.3388,770.541,533.4038,770.6978,531.5974,771.3369,529.7691,771.923,527.9904,772.6288,526.3263,773.6112,524.5,774.2022,524.5,773.9029,514.48,774.7941,504.46,773.6494,494.44,774.8196,484.42,774.6865,474.4,774.4472,464.38,774.2494,454.36,774.9288,444.34,774.8158,434.32,774.3714,424.3,774.4704,414.28,774.0719,404.26,774.9186,394.24,774.3571,384.22,774.3748,374.2,773.5938,364.18,773.797,354.16,774.7329,344.14,774.632,334.12,774.1593,324.1,773.88,314.08,773.9833,304.06,773.516,294.04,774.6169,284.02,774.9418,274,774.7286,263.98,774.8971,253.96,774.0655,243.94,774.2894,233.92,773.8146,223.9,774.4862,213.88,774.449,203.86,774.7546,193.84,773.9725,183.82,774.0678,173.8,774.6457,163.78,774.7695,153.76,773.6897,143.74,774.0083,133.72,774.3515,123.7,773.5913,113.68,774.5556,103.66,774.4602,93.64,774.1014,83.62,774.3444,73.6,774.9309,63.58,773.8893,53.56,774.5172,43.54,774.4878,33.52,774.318,23.5,774.2022,23.518,774.2456,21.7467,773.5049,19.8848,772.5455,18.1456,771.8821,16.3701,771.1311,14.6612,770.541,14.6808,770.5492,13.9561,768.7845,13.2465,767.0261,12.3749,765.2006,11.7114,763.4613,11,761.7022,10.9599,761.7022,11.1923,756.5762,11.1422,751.4503,10.8382,746.3243,10.9757,741.1983,11,736.0724,10.8222,735.9987,11.821,734.3414,12.6519,732.6144,13.3644,730.8385,13.7948,728.9457,14.6612,727.2335,14.7203,727.3764,16.3342,726.2725,18.2222,725.8307,19.9263,724.9446,21.7446,724.3344,23.5,723.5724" style="stroke:#181818;stroke-width:0.5;"/><text fill="#000000" font-family="Chalkduster" font-size="24" lengthAdjust="spacing" textLength="506" x="21" y="757.4132">3: Index and catalogue the `RRKive`</text><polygon fill="#F1F1F1" points="202,267.4105,202,267.6207,212.2857,266.9962,222.5714,267.6038,232.8571,267.8102,243.1429,266.6971,253.4286,267.3328,263.7143,266.984,274,267.027,284.2857,267.3423,294.5714,266.7191,304.8571,267.9641,315.1429,266.7802,325.4286,267.2127,335.7143,267.8424,346,267.4105,345.9775,267.3929,348.4179,270.4875,350.7916,273.5299,353.2468,276.6361,355.6627,279.7116,358,282.7254,358.1537,282.8458,355.7761,285.9264,353.3782,288.991,350.8668,291.9667,348.5216,295.0727,346,298.0403,346,298.7426,335.7143,297.3191,325.4286,298.7188,315.1429,297.7438,304.8571,298.5741,294.5714,297.5453,284.2857,297.9718,274,298.7819,263.7143,297.9916,253.4286,298.1456,243.1429,298.379,232.8571,298.4566,222.5714,298.0364,212.2857,298.3275,202,298.0403,201.8498,297.9226,199.6746,295.0358,197.3438,292.0271,194.9166,288.9428,192.5608,285.9144,190,282.7254,189.8732,282.6261,192.2289,279.5283,194.637,276.4717,197.1846,273.5244,199.5484,270.4331,202,267.4105" style="stroke:#181818;stroke-width:0.5;"/><text fill="#000000" font-family="Chalkduster" font-size="24" lengthAdjust="spacing" textLength="42" x="278" y="321.8812">yes</text><text fill="#000000" font-family="Chalkduster" font-size="24" lengthAdjust="spacing" textLength="144" x="202" y="291.2514">Put online</text><polygon fill="#F1F1F1" points="274,881.0917,274.0495,881.1412,276.3023,883.394,278.8456,885.9373,281.2942,888.3859,283.4319,890.5235,286,893.0917,285.9817,893.0734,283.4995,895.3912,281.1096,897.8013,278.7839,900.2756,276.237,902.5287,274,905.0917,274.1305,905.2222,271.4514,902.5431,269.1534,900.2451,266.9018,897.9935,264.3798,895.4715,262,893.0917,262.0161,893.1078,264.3925,890.6842,266.8421,888.3338,269.2564,885.9481,271.738,883.6297,274,881.0917" style="stroke:#181818;stroke-width:0.5;"/><path d="M274,104.6022 L274.0934,104.6022 L273.8159,111.786 L274.0859,118.9697 L274.1776,126.1535 L273.6829,133.3372 L274,140.521 " fill="#8B0000" style="stroke:#8B0000;stroke-width:4.0;"/><polygon fill="#8B0000" points="270,130.521,270.065,130.547,270.6718,132.4697,271.6598,134.5449,272.5237,136.5705,272.9792,138.4327,274,140.521,273.9759,140.5114,274.668,138.4682,275.4813,136.4735,276.3789,134.5126,276.986,132.4354,278,130.521,278.1305,130.6515,277.0514,131.1724,276.3534,132.0744,275.7018,133.0228,274.7798,133.7008,274,134.521,274.0161,134.5371,273.1925,133.7135,272.4421,132.9631,271.6564,132.1774,270.938,131.459,270,130.521" style="stroke:#8B0000;stroke-width:1.0;"/><path d="M274,453.5597 L274.2802,453.5597 L273.4476,463.7346 L274.2577,473.9096 L274.5329,484.0845 L273.0488,494.2595 L273.8964,504.4344 L273.4313,514.6094 L273.4887,524.7843 L273.9091,534.9593 L274,545.1342 " fill="#8B0000" style="stroke:#8B0000;stroke-width:4.0;"/><polygon fill="#8B0000" points="270,535.1342,270.065,535.1603,270.6718,537.083,271.6598,539.1582,272.5237,541.1837,272.9792,543.0459,274,545.1342,273.9759,545.1246,274.668,543.0814,275.4813,541.0868,276.3789,539.1258,276.986,537.0487,278,535.1342,278.1305,535.2647,277.0514,535.7857,276.3534,536.6876,275.7018,537.6361,274.7798,538.314,274,539.1342,274.0161,539.1503,273.1925,538.3267,272.4421,537.5763,271.6564,536.7906,270.938,536.0723,270,535.1342" style="stroke:#8B0000;stroke-width:1.0;"/><path d="M274,626.3939 L274.2802,626.3939 L273.4476,636.1118 L274.2577,645.8296 L274.5329,655.5474 L273.0488,665.2653 L273.8964,674.9831 L273.4313,684.701 L273.4887,694.4188 L273.9091,704.1367 L273.0782,713.8545 L274,723.5724 " fill="#8B0000" style="stroke:#8B0000;stroke-width:4.0;"/><polygon fill="#8B0000" points="270,713.5724,270.065,713.5984,270.6718,715.5211,271.6598,717.5963,272.5237,719.6218,272.9792,721.484,274,723.5724,273.9759,723.5627,274.668,721.5196,275.4813,719.5249,276.3789,717.5639,276.986,715.4868,278,713.5724,278.1305,713.7029,277.0514,714.2238,276.3534,715.1257,275.7018,716.0742,274.7798,716.7521,274,717.5724,274.0161,717.5884,273.1925,716.7648,272.4421,716.0144,271.6564,715.2287,270.938,714.5104,270,713.5724" style="stroke:#8B0000;stroke-width:1.0;"/><path d="M274,298.0403 L274.2802,298.0403 L273.4476,308.5293 L274.2577,319.0182 L274.5329,329.5072 L273.0488,339.9961 L273.8964,350.4851 L273.4313,360.974 L273.4887,371.463 L273.9091,381.9519 L273.0782,392.4409 L274,402.9298 " fill="#8B0000" style="stroke:#8B0000;stroke-width:4.0;"/><polygon fill="#8B0000" points="270,392.9298,270.065,392.9558,270.6718,394.8785,271.6598,396.9538,272.5237,398.9793,272.9792,400.8415,274,402.9298,273.9759,402.9202,274.668,400.877,275.4813,398.8824,276.3789,396.9214,276.986,394.8442,278,392.9298,278.1305,393.0603,277.0514,393.5813,276.3534,394.4832,275.7018,395.4316,274.7798,396.1096,274,396.9298,274.0161,396.9459,273.1925,396.1223,272.4421,395.3719,271.6564,394.5862,270.938,393.8679,270,392.9298" style="stroke:#8B0000;stroke-width:1.0;"/><path d="M358,282.7254 L358,283.0057 L367.9663,282.173 L377.9326,282.9831 L387.8989,283.2583 L397.8652,281.7742 L407.8315,282.6218 L417.7978,282.1568 L427.764,282.2141 L437.7303,282.6345 L447.6966,281.8036 L457.6629,283.4636 L467.6292,281.885 L477.5955,282.4617 L487.5618,283.3013 L497.5281,282.611 L507.4944,282.8164 L517.4607,282.6828 L527.427,282.9634 L537.3933,283.0443 L547.3596,283.5063 L557.3258,283.6201 L567.2921,283.6311 L577.2584,283.0649 L587.2247,283.3435 L597.191,283.6617 L607.1573,281.7638 L617.1236,283.6301 L627.0899,282.3301 L637.0562,283.4372 L647.0225,282.0654 L656.9888,282.6341 L666.9551,283.7142 L676.9213,282.6604 L686.8876,282.8658 L696.8539,283.1769 L706.8202,283.2804 L716.7865,282.7202 L726.7528,283.1084 L736.7191,281.9622 L746.6854,283.1046 L756.6517,283.4563 L766.618,283.3181 L776.5843,283.5428 L786.5506,282.0813 L796.5169,281.8558 L806.4831,281.8969 L816.4494,282.6469 L826.4157,282.4634 L836.382,283.634 L846.3483,282.4925 L856.3146,282.268 L866.2809,283.0298 L876.2472,281.8363 L886.2135,282.0332 L896.1798,283.5907 L906.1461,283.3063 L916.1124,283.7047 L926.0787,282.2964 L936.0449,283.151 L946.0112,283.5126 L955.9775,282.0955 L965.9438,282.5976 L975.9101,282.8934 L985.8764,283.5944 L995.8427,282.7198 L1005.809,283.3422 L1015.7753,281.987 L1025.7416,281.8224 L1035.7079,283.3969 L1045.6742,281.7695 L1055.6404,283.404 L1065.6067,283.0009 L1075.573,282.3682 L1085.5393,282.2537 L1095.5056,283.3371 L1105.4719,282.3263 L1115.4382,283.5146 L1125.4045,281.9884 L1135.3708,283.5486 L1145.3371,283.3711 L1155.3034,283.052 L1165.2697,282.7884 L1175.236,283.6942 L1185.2022,283.5435 L1195.1685,282.9511 L1205.1348,283.083 L1215.1011,282.5517 L1225.0674,283.6807 L1235.0337,282.9319 L1245,282.7254 " fill="#8B0000" style="stroke:#8B0000;stroke-width:4.0;"/><polygon fill="#8B0000" points="1241,589.4215,1241.065,589.4476,1241.6718,591.3702,1242.6598,593.4455,1243.5237,595.471,1243.9792,597.3332,1245,599.4215,1244.9759,599.4119,1245.668,597.3687,1246.4813,595.3741,1247.3789,593.4131,1247.986,591.3359,1249,589.4215,1249.1305,589.552,1248.0514,590.073,1247.3534,590.9749,1246.7018,591.9233,1245.7798,592.6013,1245,593.4215,1245.0161,593.4376,1244.1925,592.614,1243.4421,591.8636,1242.6564,591.0779,1241.938,590.3596,1241,589.4215" style="stroke:#8B0000;stroke-width:4.0;"/><path d="M1245,282.7254 L1245.2802,282.7254 L1244.4476,292.7314 L1245.2577,302.7374 L1245.5329,312.7434 L1244.0488,322.7494 L1244.8964,332.7554 L1244.4313,342.7614 L1244.4887,352.7674 L1244.9091,362.7734 L1244.0782,372.7795 L1245.7382,382.7855 L1244.1596,392.7915 L1244.7363,402.7975 L1245.5759,412.8035 L1244.8856,422.8095 L1245.091,432.8155 L1244.9574,442.8215 L1245.238,452.8275 L1245.3188,462.8335 L1245.7809,472.8395 L1245.8947,482.8455 L1245.9057,492.8515 L1245.3395,502.8575 L1245.6181,512.8635 L1245.9363,522.8695 L1244.0384,532.8755 L1245.9047,542.8815 L1244.6047,552.8875 L1245.7117,562.8935 L1244.34,572.8995 L1244.9087,582.9055 L1245.9888,592.9116 L1244.935,602.9176 L1245.1404,612.9236 L1245.4515,622.9296 L1245.555,632.9356 L1244.9948,642.9416 L1245.383,652.9476 L1244.2368,662.9536 L1245.3792,672.9596 L1245.7309,682.9656 L1245.5927,692.9716 L1245.8174,702.9776 L1244.3559,712.9836 L1244.1304,722.9896 L1244.1715,732.9956 L1244.9215,743.0016 L1244.738,753.0076 L1245.9085,763.0136 L1244.7671,773.0196 L1244.5426,783.0256 L1245.3044,793.0316 L1244.1109,803.0377 L1244.3078,813.0437 L1245.8653,823.0497 L1245.5809,833.0557 L1245.9793,843.0617 L1244.5709,853.0677 L1245.4256,863.0737 L1245.7872,873.0797 L1244.3701,883.0857 L1245,893.0917 " fill="#8B0000" style="stroke:#8B0000;stroke-width:4.0;"/><path d="M1245,893.0917 L1245,893.3719 L1235.0104,892.5393 L1225.0208,893.3494 L1215.0313,893.6246 L1205.0417,892.1405 L1195.0521,892.9881 L1185.0625,892.523 L1175.0729,892.5804 L1165.0833,893.0008 L1155.0938,892.1699 L1145.1042,893.8299 L1135.1146,892.2513 L1125.125,892.828 L1115.1354,893.6676 L1105.1458,892.9773 L1095.1563,893.1827 L1085.1667,893.0491 L1075.1771,893.3297 L1065.1875,893.4105 L1055.1979,893.8726 L1045.2083,893.9864 L1035.2188,893.9974 L1025.2292,893.4312 L1015.2396,893.7098 L1005.25,894.028 L995.2604,892.1301 L985.2708,893.9964 L975.2813,892.6964 L965.2917,893.8034 L955.3021,892.4317 L945.3125,893.0004 L935.3229,894.0805 L925.3333,893.0267 L915.3438,893.2321 L905.3542,893.5432 L895.3646,893.6467 L885.375,893.0865 L875.3854,893.4746 L865.3958,892.3285 L855.4063,893.4709 L845.4167,893.8226 L835.4271,893.6844 L825.4375,893.9091 L815.4479,892.4476 L805.4583,892.2221 L795.4688,892.2632 L785.4792,893.0132 L775.4896,892.8297 L765.5,894.0002 L755.5104,892.8588 L745.5208,892.6343 L735.5313,893.396 L725.5417,892.2026 L715.5521,892.3995 L705.5625,893.957 L695.5729,893.6726 L685.5833,894.071 L675.5938,892.6626 L665.6042,893.5173 L655.6146,893.8789 L645.625,892.4618 L635.6354,892.9639 L625.6458,893.2597 L615.6563,893.9607 L605.6667,893.0861 L595.6771,893.7084 L585.6875,892.3533 L575.6979,892.1887 L565.7083,893.7632 L555.7188,892.1358 L545.7292,893.7703 L535.7396,893.3672 L525.75,892.7345 L515.7604,892.62 L505.7708,893.7034 L495.7813,892.6926 L485.7917,893.8808 L475.8021,892.3547 L465.8125,893.9149 L455.8229,893.7374 L445.8333,893.4183 L435.8438,893.1547 L425.8542,894.0605 L415.8646,893.9098 L405.875,893.3174 L395.8854,893.4493 L385.8958,892.918 L375.9063,894.047 L365.9167,893.2982 L355.9271,893.3218 L345.9375,892.2806 L335.9479,892.5514 L325.9583,893.7994 L315.9688,893.6647 L305.9792,893.0344 L295.9896,892.6621 L286,893.0917 " fill="#8B0000" style="stroke:#8B0000;stroke-width:4.0;"/><polygon fill="#8B0000" points="296,889.0917,296.026,889.1567,293.9487,889.7635,292.0239,890.7515,290.0495,891.6154,287.9117,892.0709,286,893.0917,285.9904,893.0676,287.9472,893.7597,289.9525,894.573,291.9916,895.4706,293.9144,896.0777,296,897.0917,296.1305,897.2222,295.0514,896.1431,294.3534,895.4451,293.7018,894.7935,292.7798,893.8715,292,893.0917,292.0161,893.1078,292.7925,892.2842,293.6421,891.5338,294.4564,890.7481,295.338,890.0297,296,889.0917" style="stroke:#8B0000;stroke-width:1.0;"/><path d="M274,774.2022 L274.2802,774.2022 L273.4476,783.9194 L274.2577,793.6366 L274.5329,803.3539 L273.0488,813.0711 L273.8964,822.7883 L273.4313,832.5056 L273.4887,842.2228 L273.9091,851.94 L273.0782,861.6572 L274.7382,871.3745 L274,881.0917 " fill="#8B0000" style="stroke:#8B0000;stroke-width:4.0;"/><polygon fill="#8B0000" points="270,871.0917,270.065,871.1177,270.6718,873.0404,271.6598,875.1156,272.5237,877.1412,272.9792,879.0034,274,881.0917,273.9759,881.0821,274.668,879.0389,275.4813,877.0442,276.3789,875.0833,276.986,873.0061,278,871.0917,278.1305,871.2222,277.0514,871.7431,276.3534,872.6451,275.7018,873.5935,274.7798,874.2715,274,875.0917,274.0161,875.1078,273.1925,874.2842,272.4421,873.5338,271.6564,872.7481,270.938,872.0297,270,871.0917" style="stroke:#8B0000;stroke-width:1.0;"/><path d="M274,221.7807 L274.2802,221.7807 L273.4476,230.9066 L274.2577,240.0326 L274.5329,249.1586 L273.0488,258.2845 L274,267.4105 " fill="#8B0000" style="stroke:#8B0000;stroke-width:4.0;"/><polygon fill="#8B0000" points="270,257.4105,270.065,257.4365,270.6718,259.3592,271.6598,261.4344,272.5237,263.46,272.9792,265.3222,274,267.4105,273.9759,267.4009,274.668,265.3577,275.4813,263.363,276.3789,261.4021,276.986,259.3249,278,257.4105,278.1305,257.541,277.0514,258.0619,276.3534,258.9639,275.7018,259.9123,274.7798,260.5903,274,261.4105,274.0161,261.4266,273.1925,260.603,272.4421,259.8526,271.6564,259.0669,270.938,258.3485,270,257.4105" style="stroke:#8B0000;stroke-width:1.0;"/><!--SRC=[LLF1ZjCm4BtdAuQUkX9D1Tm2GWeDI14BMxK7BaYiwqmJWsC7pxYx-GGk_CB-8f_0EDd2DeSepepzthpt_CmuRME3tthbHiZpTQDOhMIXMkpHyOfuj9ZpFMSP6xPOmBjeR6DS2tiC9wEHm3jWFu0_mcxtqPmGY7sG0p9Y5MHZyU9n5oW7nZLuBxrV7S2YCgrXPU7cy1qrq-9rvZmZ1DDsd6q2AbaeiDx_Y0EmEbXCADp9tw0xWIgo5LmROgWhajERL3FXJ41sQiN6EvAscK6l9g8RRwqWIWdMZ-WGqCxDdHaeor1EIsooB3D7M6uZow3MEBnA80wM8zAL3FUo42KOXE05-yHBeoEKhvB8j6xYkAnkQW9aVIN_P-0tgxTFw5om06dwqlddSDSfbXU6TDm78peqI3gOuJpTDlWJEkKqFYMU5NyUVl-2SX9BsTKE1qz6n1a5HpKZf79oOdx4BuwYetJZ2PlBWNRJXgCFOY595cA25k_EMjCSXqluLmNKa-796_52MTz6d1oydSDoU-bvvps9krhxC8MCFOm-1kXHELe7_1bDc999oVgzwGVHWeOq3NKeFXmK2NEAVQ-2mKaQ7-Ref6odydyYgLngoJ21zev3ig61Sbl3dU4ExEmWpFSX9EcZbOanfG-E4iyO9F-IK0NNbTgKwssvAwjw_tuZlNNrURu-adC1XCqPTI75Jpu83z-d6VCy_wVQNm00]--></g></svg>