<?xml version="1.0" encoding="us-ascii" standalone="no"?><svg xmlns="http://www.w3.org/2000/svg" xmlns:xlink="http://www.w3.org/1999/xlink" contentStyleType="text/css" height="917px" preserveAspectRatio="none" style="width:1311px;height:917px;background:#FFFFFF;" version="1.1" viewBox="0 0 1311 917" width="1311px" zoomAndPan="magnify"><defs/><g><text fill="#000000" font-family="Chalkduster" font-size="42" font-weight="bold" lengthAdjust="spacing" textLength="528" x="390" y="61.7215">Choosing a repository</text><polygon fill="#222222" points="308.5552,97.0346,307.0894,99.0375,305.3556,101.971,302.876,103.948,300.2703,105.0291,298.1927,105.123,295.5224,103.7709,293.0029,102.8876,291.0905,101.0942,290.0873,99.0411,289.4924,97.4063,288.9096,95.271,287.9636,93.4335,288.6906,91.6395,289.3275,89.6742,291.7175,88.1199,293.3991,86.1032,295.4804,85.4335,297.9547,84.8568,301.1276,85.1995,302.8655,86.0191,304.8861,86.3906,307.3429,88.9076,308.1993,91.5649,308.5714,93.378,308.15,96.3657" style="stroke:#222222;stroke-width:1.0;"/><path d="M606,114.8912 L606.5605,114.8912 L604.8951,125.2678 L606.5154,135.6444 L607.0658,146.021 L604.0976,156.3976 L605.7928,166.7742 L606,177.1508 L605.9257,176.7791 L601.9331,177.6166 L597.9881,178.6914 L593.8795,178.9482 L590.0965,180.8334 L586,181.1508 L585.8901,180.6015 L589.9655,181.7784 L594.0753,183.1273 L597.985,183.4761 L602.0119,184.4103 L606,185.1508 L605.9148,185.1508 L606.4761,195.5274 L606.6377,205.904 L607.5618,216.2807 L607.7895,226.6573 L607.8114,237.0339 L606,247.4105 L606,247.4105 L606,248.0895 L616.0435,248.6467 L626.087,249.2831 L636.1304,245.4873 L646.1739,249.2199 L656.2174,246.6198 L666.2609,248.834 L676.3043,246.0904 L686.3478,247.2278 L696.3913,249.3881 L706.4348,247.2805 L716.4783,247.6913 L726.5217,248.3135 L736.5652,248.5204 L746.6087,247.4001 L756.6522,248.1764 L766.6957,245.884 L776.7391,248.1689 L786.7826,248.8723 L796.8261,248.5959 L806.8696,249.0452 L816.913,246.1223 L826.9565,245.6713 L837,245.7534 L847.0435,247.2535 L857.087,246.8864 L867.1304,249.2276 L877.1739,246.9447 L887.2174,246.4957 L897.2609,248.0192 L907.3043,245.6323 L917.3478,246.0262 L927.3913,249.141 L937.4348,248.5723 L947.4783,249.3691 L957.5217,246.5524 L967.5652,248.2617 L977.6087,248.9849 L987.6522,246.1507 L997.6957,247.1549 L1007.7391,247.7465 L1017.7826,249.1485 L1027.8261,247.3993 L1037.8696,248.644 L1047.913,245.9337 L1057.9565,245.6045 L1068,248.7535 L1078.0435,245.4987 L1088.087,248.7677 L1098.1304,247.9615 L1108.1739,246.696 L1118.2174,246.4671 L1128.2609,248.6339 L1138.3043,246.6123 L1148.3478,248.9888 L1158.3913,245.9365 L1168.4348,249.057 L1178.4783,248.702 L1188.5217,248.0637 L1198.5652,247.5364 L1208.6087,249.3481 L1218.6522,249.0467 L1228.6957,247.8618 L1238.7391,248.1257 L1248.7826,247.0631 L1258.8261,249.321 L1268.8696,247.8235 L1278.913,247.8707 L1288.9565,245.7882 L1299,247.4105 L1299,247.4105 L1297.9194,247.4105 L1300.4153,237.2005 L1300.146,226.9906 L1298.8855,216.7807 L1298.1409,206.5707 L1298.4162,196.3608 L1297.1702,186.1508 L1300.106,175.9409 L1300.9722,165.7309 L1300.4037,155.521 L1300.8532,145.311 L1298.6354,135.1011 L1299,124.8912 L1299.0548,124.946 L1296.7564,122.6475 L1295.1785,121.0697 L1293.1551,119.0463 L1291.3472,117.2384 L1289,114.8912 L1289,114.2787 L1278.9559,114.5327 L1268.9118,116.0737 L1258.8676,116.4041 L1248.8235,113.5244 L1238.7794,114.3741 L1228.7353,115.2892 L1218.6912,113.2622 L1208.6471,115.8335 L1198.6029,115.5791 L1188.5588,114.6225 L1178.5147,115.2705 L1168.4706,116.8343 L1158.4265,114.0568 L1148.3824,115.7311 L1138.3382,115.6529 L1128.2941,115.1999 L1118.25,115.267 L1108.2059,115.1938 L1098.1618,113.2267 L1088.1176,113.8223 L1078.0735,113.6604 L1068.0294,115.0614 L1057.9853,115.1262 L1047.9412,115.3225 L1037.8971,114.1152 L1027.8529,114.7111 L1017.8088,114.5706 L1007.7647,116.4294 L997.7206,116.0287 L987.6765,113.5964 L977.6324,114.6967 L967.5882,113.3519 L957.5441,115.6602 L947.5,116.5138 L937.4559,116.3433 L927.4118,113.7297 L917.3676,116.1284 L907.3235,112.9103 L897.2794,115.4249 L887.2353,114.093 L877.1912,115.1491 L867.1471,115.5321 L857.1029,116.1501 L847.0588,112.9714 L837.0147,116.1591 L826.9706,115.3663 L816.9265,115.8387 L806.8824,116.8853 L796.8382,114.9058 L786.7941,115.3586 L776.75,115.4603 L766.7059,115.4171 L756.6618,114.889 L746.6176,116.7864 L736.5735,113.2652 L726.5294,116.3986 L716.4853,113.2272 L706.4412,113.4503 L696.3971,114.9979 L686.3529,114.9666 L676.3088,113.5769 L666.2647,115.9944 L656.2206,115.1814 L646.1765,116.8289 L636.1324,116.6701 L626.0882,113.6958 L616.0441,113.83 L606,114.8912 L606,114.8912 " fill="#FFFFE0" style="stroke:#181818;stroke-width:4.0;"/><path d="M1289,114.8912 L1289.1868,114.8912 L1288.6317,116.8912 L1289.1718,118.8912 L1289.3553,120.8912 L1288.3659,122.8912 L1289,124.8912 L1289,124.8221 L1291,124.5121 L1293,124.5503 L1295,124.8306 L1297,124.2766 L1299,124.8912 L1299.348,125.2391 L1296.6038,122.495 L1294.8757,120.7669 L1293.2715,119.1627 L1290.9461,116.8372 L1289,114.8912 " fill="#FFFFE0" style="stroke:#181818;stroke-width:4.0;"/><text fill="#000000" font-family="Chalkduster" font-size="24" lengthAdjust="spacing" textLength="520" x="612" y="143.732">Create a lookup table of the archive:</text><text fill="#000000" font-family="Chalkduster" font-size="24" lengthAdjust="spacing" textLength="522" x="612" y="174.3619">- List IDs and their storage locations</text><text fill="#000000" font-family="Chalkduster" font-size="24" lengthAdjust="spacing" textLength="672" x="612" y="204.9917">- Build map of Collection / Object relationships</text><text fill="#000000" font-family="Chalkduster" font-size="24" lengthAdjust="spacing" textLength="12" x="612" y="235.6215">&#160;</text><polygon fill="#F1F1F1" points="23.5,155.8359,23.5,156.0461,33.5,155.4216,43.5,156.0292,53.5,156.2356,63.5,155.1225,73.5,155.7582,83.5,155.4094,93.5,155.4524,103.5,155.7678,113.5,155.1445,123.5,156.3896,133.5,155.2056,143.5,155.6381,153.5,156.2679,163.5,155.7501,173.5,155.9041,183.5,155.804,193.5,156.0144,203.5,156.075,213.5,156.4216,223.5,156.507,233.5,156.5152,243.5,156.0905,253.5,156.2995,263.5,156.5381,273.5,155.1147,283.5,156.5144,293.5,155.5394,303.5,156.3697,313.5,155.3409,323.5,155.7674,333.5,156.5775,343.5,155.7872,353.5,155.9412,363.5,156.1745,373.5,156.2521,383.5,155.832,393.5,156.1231,403.5,155.2635,413.5,156.1203,423.5,156.3841,433.5,156.2804,443.5,156.4489,453.5,155.3528,463.5,155.1837,473.5,155.2145,483.5,155.777,493.5,155.6394,503.5,156.5173,513.5,155.6612,523.5,155.4929,533.5,156.0642,543.5,155.1691,553.5,155.3168,563.5,156.4849,573.5,155.8359,573.5556,155.9701,575.3615,156.7943,576.9945,157.2013,578.844,158.1309,580.6464,158.9467,582.3388,159.4971,582.1934,159.4368,583.0415,161.2526,583.8421,163.0487,584.7362,164.8835,585.2665,166.5676,586,168.3359,586.1542,168.3359,585.8154,173.4619,585.7742,178.5878,586.1679,183.7138,585.761,188.8398,586,193.9657,586.1567,194.0307,585.3314,195.7599,584.453,197.4671,583.6944,199.2239,583.2123,201.0953,582.3388,202.8046,582.3007,202.7124,580.6466,203.7191,578.7328,204.0988,577.1143,205.1914,575.3295,205.8827,573.5,206.4657,573.5,206.7107,563.5,206.513,553.5,207.1924,543.5,207.0793,533.5,206.635,523.5,206.7339,513.5,206.3355,503.5,207.1822,493.5,206.6206,483.5,206.6383,473.5,205.8574,463.5,206.0605,453.5,206.9965,443.5,206.8955,433.5,206.4228,423.5,206.1436,413.5,206.2468,403.5,205.7796,393.5,206.8805,383.5,207.2053,373.5,206.9921,363.5,207.1607,353.5,206.329,343.5,206.553,333.5,206.0781,323.5,206.7498,313.5,206.7125,303.5,207.0181,293.5,206.2361,283.5,206.3313,273.5,206.9092,263.5,207.0331,253.5,205.9532,243.5,206.2719,233.5,206.615,223.5,205.8549,213.5,206.8191,203.5,206.7237,193.5,206.365,183.5,206.608,173.5,207.1944,163.5,206.1529,153.5,206.7807,143.5,206.7514,133.5,206.5815,123.5,206.6067,113.5,206.5792,103.5,205.8416,93.5,206.0649,83.5,206.0042,73.5,206.5296,63.5,206.5539,53.5,206.6275,43.5,206.1748,33.5,206.3982,23.5,206.4657,23.4847,206.4287,21.8058,205.9112,20.0189,205.1326,18.1348,204.1195,16.4196,203.5144,14.6612,202.8046,14.4834,202.7309,14.0177,201.0736,13.3841,199.3467,12.6322,197.5707,11.5981,195.678,11,193.9657,11.1547,193.9657,10.7524,188.8398,11.0667,183.7138,10.9002,178.5878,11.0322,173.4619,11,168.3359,11.074,168.3666,11.8776,166.6284,12.2428,164.7085,13.3431,163.0933,13.9838,161.2876,14.6612,159.4971,14.7065,159.6065,16.5243,158.9951,18.1974,158.0343,19.9868,157.3544,21.7595,156.6339,23.5,155.8359" style="stroke:#181818;stroke-width:0.5;"/><text fill="#000000" font-family="Chalkduster" font-size="24" lengthAdjust="spacing" textLength="555" x="21" y="189.6768">1: Is there an established repository for</text><path d="M391.5,331.3552 L392.0605,331.3552 L390.3951,341.6763 L392.0154,351.9974 L392.5658,362.3184 L389.5976,372.6395 L391.2928,382.9605 L390.3627,393.2816 L390.4773,403.6026 L391.3182,413.9237 L391.5,424.2447 L391.3795,423.6421 L387.5965,425.5273 L383.3901,425.2954 L379.4655,426.4724 L375.5753,427.8212 L371.5,428.2447 L371.485,428.17 L375.5119,429.1042 L379.4944,429.8169 L383.5311,430.8004 L387.5417,431.6532 L391.5,432.2447 L393.0618,432.2447 L393.2895,442.5658 L393.3114,452.8869 L392.179,463.2079 L392.7362,473.529 L393.3726,483.85 L389.5768,494.1711 L393.3094,504.4921 L390.7093,514.8132 L391.5,525.1342 L391.5,525.1342 L391.5,526.5577 L401.5196,523.8142 L411.5392,524.9516 L421.5588,527.1119 L431.5784,525.0043 L441.598,525.415 L451.6176,526.0373 L461.6373,526.2442 L471.6569,525.1238 L481.6765,525.9001 L491.6961,523.6078 L501.7157,525.8926 L511.7353,526.5961 L521.7549,526.3197 L531.7745,526.769 L541.7941,523.846 L551.8137,523.3951 L561.8333,523.4772 L571.8529,524.9772 L581.8725,524.6102 L591.8922,526.9513 L601.9118,524.6684 L611.9314,524.2194 L621.951,525.743 L631.9706,523.356 L641.9902,523.7499 L652.0098,526.8648 L662.0294,526.296 L672.049,527.0929 L682.0686,524.2761 L692.0882,525.9854 L702.1078,526.7087 L712.1275,523.8745 L722.1471,524.8786 L732.1667,525.4702 L742.1863,526.8723 L752.2059,525.1231 L762.2255,526.3678 L772.2451,523.6575 L782.2647,523.3282 L792.2843,526.4772 L802.3039,523.2224 L812.3235,526.4915 L822.3431,525.6853 L832.3627,524.4198 L842.3824,524.1908 L852.402,526.3576 L862.4216,524.336 L872.4412,526.7125 L882.4608,523.6603 L892.4804,526.7807 L902.5,525.1342 L902.5,525.1342 L903.7915,525.1342 L903.1532,514.9243 L902.6259,504.7144 L904.4376,494.5044 L904.1362,484.2945 L902.9513,474.0845 L903.2152,463.8746 L902.1526,453.6646 L904.4105,443.4547 L902.913,433.2447 L902.9602,423.0348 L900.8777,412.8249 L901.4194,402.6149 L903.9153,392.405 L903.646,382.195 L902.3855,371.9851 L901.6409,361.7751 L901.9162,351.5652 L902.5,341.3552 L902.0687,340.924 L900.7607,339.6159 L898.9648,337.8201 L896.8309,335.6861 L894.9368,333.792 L892.5,331.3552 L892.5,330.9906 L882.48,331.5878 L872.46,330.3217 L862.44,332.1127 L852.42,332.0133 L842.4,332.8283 L832.38,330.7428 L822.36,330.9968 L812.34,332.5378 L802.32,332.8681 L792.3,329.9885 L782.28,330.8382 L772.26,331.7533 L762.24,329.7263 L752.22,332.2976 L742.2,332.0432 L732.18,331.0865 L722.16,331.7346 L712.14,333.2984 L702.12,330.5209 L692.1,332.1952 L682.08,332.117 L672.06,331.664 L662.04,331.731 L652.02,331.6579 L642,329.6908 L631.98,330.2864 L621.96,330.1245 L611.94,331.5254 L601.92,331.5902 L591.9,331.7866 L581.88,330.5793 L571.86,331.1752 L561.84,331.0347 L551.82,332.8935 L541.8,332.4928 L531.78,330.0605 L521.76,331.1608 L511.74,329.816 L501.72,332.1243 L491.7,332.9779 L481.68,332.8074 L471.66,330.1938 L461.64,332.5925 L451.62,329.3744 L441.6,331.889 L431.58,330.5571 L421.56,331.6132 L411.54,331.9961 L401.52,332.6142 L391.5,331.3552 L391.5,331.3552 " fill="#FFFFE0" style="stroke:#181818;stroke-width:4.0;"/><path d="M892.5,331.3552 L892.6868,331.3552 L892.1317,333.3552 L892.6718,335.3552 L892.8553,337.3552 L891.8659,339.3552 L892.5,341.3552 L892.5,341.2862 L894.5,340.9761 L896.5,341.0144 L898.5,341.2947 L900.5,340.7407 L902.5,341.3552 L902.848,341.7032 L900.1038,338.9591 L898.3757,337.2309 L896.7715,335.6267 L894.4461,333.3013 L892.5,331.3552 " fill="#FFFFE0" style="stroke:#181818;stroke-width:4.0;"/><text fill="#000000" font-family="Chalkduster" font-size="24" lengthAdjust="spacing" textLength="126" x="397.5" y="360.1961">- License</text><text fill="#000000" font-family="Chalkduster" font-size="24" lengthAdjust="spacing" textLength="315" x="397.5" y="390.826">- Assign IDs (DOIs etc)</text><text fill="#000000" font-family="Chalkduster" font-size="24" lengthAdjust="spacing" textLength="478" x="397.5" y="421.4558">- Object&lt;-&gt;Collection relationships</text><text fill="#000000" font-family="Chalkduster" font-size="24" lengthAdjust="spacing" textLength="253" x="397.5" y="452.0856">- Who, what where</text><text fill="#000000" font-family="Chalkduster" font-size="24" lengthAdjust="spacing" textLength="257" x="397.5" y="482.7155">- File descriptions</text><text fill="#000000" font-family="Chalkduster" font-size="24" lengthAdjust="spacing" textLength="187" x="397.5" y="513.3453">- Provenance</text><polygon fill="#F1F1F1" points="238,402.9298,238,403.14,248.0833,402.5155,258.1667,403.1231,268.25,403.3295,278.3333,402.2164,288.4167,402.8521,298.5,402.5033,308.5833,402.5463,318.6667,402.8617,328.75,402.2385,338.8333,403.4835,348.9167,402.2995,359,402.9298,358.9748,402.8689,360.8229,403.7951,362.5246,404.3679,364.312,405.1475,366.067,405.8489,367.8388,406.591,367.8938,406.6138,368.6447,408.3893,369.4837,410.2012,370.2422,411.9799,370.977,413.7487,371.5,415.4298,371.5849,415.4298,371.6545,420.5558,371.7341,425.6818,371.2596,430.8077,371.7262,435.9337,371.5,441.0597,371.4087,441.0218,370.9322,442.8955,369.8831,444.532,369.2822,446.3542,368.7995,448.2253,367.8388,449.8985,367.8326,449.8835,366.0845,450.6632,364.3465,451.4672,362.5886,452.2234,360.7673,452.8262,359,453.5597,359,453.8469,348.9167,452.9872,338.8333,453.844,328.75,454.1079,318.6667,454.0042,308.5833,454.1727,298.5,453.0766,288.4167,452.9075,278.3333,452.9383,268.25,453.5008,258.1667,453.3631,248.0833,454.2411,238,453.5597,237.9777,453.5059,236.1885,452.7218,234.4936,452.1655,232.6116,451.1576,230.8627,450.4709,229.1612,449.8985,229.361,449.9813,228.5631,448.1863,227.9229,446.4567,226.8654,444.5541,226.3305,442.8681,225.5,441.0597,225.6968,441.0597,225.3425,435.9337,225.468,430.8077,225.542,425.6818,225.7173,420.5558,225.5,415.4298,225.4987,415.4293,226.3747,413.7211,226.7939,411.8237,227.4881,410.0401,228.584,408.423,229.1612,406.591,229.0697,406.3702,230.9939,406.0155,232.7231,405.1902,234.4303,404.3118,236.1871,403.5531,238,402.9298" style="stroke:#181818;stroke-width:0.5;"/><text fill="#000000" font-family="Chalkduster" font-size="24" lengthAdjust="spacing" textLength="114" x="235.5" y="436.7707">2: Set up</text><path d="M546.5,565.4492 L546.6868,565.4492 L546.1317,568.7121 L546.6718,571.9751 L546.8553,575.2381 L545.8659,578.5011 L546.5,581.7641 L546.4865,581.6963 L542.4257,582.1923 L538.4331,583.0298 L534.4881,584.1047 L530.3795,584.3615 L526.5,585.7641 L526.5965,586.2466 L530.3901,586.0147 L534.4655,587.1917 L538.5753,588.5406 L542.485,588.8893 L546.5,589.7641 L546.5607,589.7641 L546.4716,593.0271 L546.6587,596.29 L546.7126,599.553 L547.0206,602.816 L546.5,606.079 L546.5,606.079 L546.5,607.8685 L556.5179,607.8903 L566.5357,606.758 L576.5536,607.3152 L586.5714,607.9516 L596.5893,604.1558 L606.6071,607.8884 L616.625,605.2883 L626.6429,607.5025 L636.6607,604.7589 L646.6786,605.8963 L656.6964,608.0566 L666.7143,605.949 L676.7321,606.3598 L686.75,606.982 L696.7679,607.1889 L706.7857,606.0686 L716.8036,606.8449 L726.8214,604.5525 L736.8393,606.8374 L746.8571,607.5408 L756.875,607.2644 L766.8929,607.7137 L776.9107,604.7908 L786.9286,604.3398 L796.9464,604.4219 L806.9643,605.922 L816.9821,605.5549 L827,607.8961 L837.0179,605.6132 L847.0357,605.1642 L857.0536,606.6877 L867.0714,604.3008 L877.0893,604.6947 L887.1071,607.8095 L897.125,607.2408 L907.1429,608.0376 L917.1607,605.2209 L927.1786,606.9302 L937.1964,607.6534 L947.2143,604.8192 L957.2321,605.8234 L967.25,606.4149 L977.2679,607.817 L987.2857,606.0678 L997.3036,607.3125 L1007.3214,604.6022 L1017.3393,604.273 L1027.3571,607.422 L1037.375,604.1672 L1047.3929,607.4362 L1057.4107,606.63 L1067.4286,605.3645 L1077.4464,605.1356 L1087.4643,607.3024 L1097.4821,605.2808 L1107.5,606.079 L1107.5,606.079 L1108.0261,606.079 L1107.0087,599.953 L1108.0488,593.8271 L1107.9305,587.7011 L1107.7177,581.5751 L1107.5,575.4492 L1107.5297,575.4788 L1105.9567,573.9059 L1103.8857,571.8348 L1101.6064,569.5555 L1099.6686,567.6177 L1097.5,565.4492 L1097.5,565.1018 L1087.4818,567.3597 L1077.4636,565.8621 L1067.4455,565.9094 L1057.4273,563.8269 L1047.4091,564.3686 L1037.3909,566.8645 L1027.3727,566.5952 L1017.3545,565.3347 L1007.3364,564.59 L997.3182,564.8654 L987.3,563.6194 L977.2818,566.5551 L967.2636,567.4213 L957.2455,566.8529 L947.2273,567.3023 L937.2091,565.0846 L927.1909,565.6817 L917.1727,564.4156 L907.1545,566.2066 L897.1364,566.1072 L887.1182,566.9222 L877.1,564.8367 L867.0818,565.0907 L857.0636,566.6317 L847.0455,566.9621 L837.0273,564.0824 L827.0091,564.9321 L816.9909,565.8472 L806.9727,563.8202 L796.9545,566.3915 L786.9364,566.1371 L776.9182,565.1805 L766.9,565.8285 L756.8818,567.3923 L746.8636,564.6148 L736.8455,566.2891 L726.8273,566.2109 L716.8091,565.7579 L706.7909,565.8249 L696.7727,565.7518 L686.7545,563.7847 L676.7364,564.3803 L666.7182,564.2184 L656.7,565.6194 L646.6818,565.6842 L636.6636,565.8805 L626.6455,564.6732 L616.6273,565.2691 L606.6091,565.1286 L596.5909,566.9874 L586.5727,566.5867 L576.5545,564.1544 L566.5364,565.2547 L556.5182,563.9099 L546.5,565.4492 L546.5,565.4492 " fill="#FFFFE0" style="stroke:#181818;stroke-width:4.0;"/><path d="M1097.5,565.4492 L1097.6868,565.4492 L1097.1317,567.4492 L1097.6718,569.4492 L1097.8553,571.4492 L1096.8659,573.4492 L1097.5,575.4492 L1097.5,575.3801 L1099.5,575.0701 L1101.5,575.1083 L1103.5,575.3886 L1105.5,574.8346 L1107.5,575.4492 L1107.848,575.7971 L1105.1038,573.053 L1103.3757,571.3249 L1101.7715,569.7207 L1099.4461,567.3952 L1097.5,565.4492 " fill="#FFFFE0" style="stroke:#181818;stroke-width:4.0;"/><text fill="#000000" font-family="Chalkduster" font-size="24" lengthAdjust="spacing" textLength="540" x="552.5" y="594.29">Ready for institutional storage service</text><polygon fill="#F1F1F1" points="83,545.1342,83,545.3444,93.0233,544.7199,103.0465,545.3275,113.0698,545.5339,123.093,544.4208,133.1163,545.0565,143.1395,544.7077,153.1628,544.7507,163.186,545.0661,173.2093,544.4429,183.2326,545.6879,193.2558,544.504,203.2791,544.9365,213.3023,545.5662,223.3256,545.0485,233.3488,545.2025,243.3721,545.1023,253.3953,545.3128,263.4186,545.3734,273.4419,545.7199,283.4651,545.8053,293.4884,545.8135,303.5116,545.3889,313.5349,545.5978,323.5581,545.8365,333.5814,544.4131,343.6047,545.8128,353.6279,544.8377,363.6512,545.6681,373.6744,544.6392,383.6977,545.0657,393.7209,545.8758,403.7442,545.0855,413.7674,545.2395,423.7907,545.4729,433.814,545.5505,443.8372,545.1303,453.8605,545.4215,463.8837,544.5618,473.907,545.4186,483.9302,545.6824,493.9535,545.5788,503.9767,545.7473,514,545.1342,513.9384,544.9855,515.6846,545.6656,517.4563,546.4073,519.2958,547.3128,521.046,548.0027,522.8388,548.7954,523.0487,548.8823,523.5173,550.5409,524.1977,552.2872,525.1058,554.1278,525.5624,555.7814,526.5,557.6342,525.9809,557.6342,527.149,567.0109,526.9357,576.3875,527.2345,585.7641,526.1782,595.1407,526.8192,604.5173,526.5,613.8939,526.6818,613.9692,525.6223,615.6014,525.006,617.4172,524.3421,619.2133,523.7718,621.0481,522.8388,622.7327,522.8383,622.7315,521.1301,623.6074,519.2327,624.0267,517.4491,624.7209,515.832,625.8168,514,626.3939,514,625.677,503.9767,626.9029,493.9535,626.6005,483.9302,626.126,473.907,626.0401,463.8837,626.8527,453.8605,626.0946,443.8372,626.9858,433.814,625.8412,423.7907,627.0113,413.7674,626.8782,403.7442,626.6389,393.7209,626.4411,383.6977,627.1205,373.6744,627.0075,363.6512,626.5632,353.6279,626.6621,343.6047,626.2636,333.5814,627.1104,323.5581,626.5488,313.5349,626.5665,303.5116,625.7856,293.4884,625.9887,283.4651,626.9247,273.4419,626.8237,263.4186,626.351,253.3953,626.0717,243.3721,626.175,233.3488,625.7077,223.3256,626.8086,213.3023,627.1335,203.2791,626.9203,193.2558,627.0888,183.2326,626.2572,173.2093,626.4811,163.186,626.0063,153.1628,626.6779,143.1395,626.6407,133.1163,626.9463,123.093,626.1643,113.0698,626.2595,103.0465,626.8374,93.0233,626.9612,83,626.3939,82.9346,626.2361,81.2075,625.602,79.4835,624.9754,77.6188,624.0091,75.974,623.5738,74.1612,622.7327,74.2406,622.7657,73.3979,620.9521,72.7405,619.2154,72.1889,617.5224,71.1359,615.6218,70.5,613.8939,70.815,613.8939,70.7856,604.5173,70.6158,595.1407,70.6409,585.7641,70.6135,576.3875,69.8758,567.0109,70.5,557.6342,70.3766,557.5831,71.0901,555.8076,71.9841,554.1069,72.7238,552.3422,73.4787,550.5838,74.1612,548.7954,74.124,548.7058,75.9203,548.0424,77.6814,547.2939,79.5381,546.7764,81.2866,545.9978,83,545.1342" style="stroke:#181818;stroke-width:0.5;"/><text fill="#000000" font-family="Chalkduster" font-size="24" lengthAdjust="spacing" textLength="436" x="80.5" y="578.9751">&#127881; Archival-Repository ready &#127881;</text><text fill="#000000" font-family="Chalkduster" font-size="24" lengthAdjust="spacing" textLength="211" x="176.5" y="609.605">status achieved</text><path d="M581.5,636.6829 L582.0605,636.6829 L580.3951,646.5196 L582.0154,656.3564 L582.5658,666.1932 L579.5976,676.0299 L581.2928,685.8667 L580.3627,695.7035 L580.4773,705.5402 L581.3182,715.377 L579.6563,725.2137 L582.9764,735.0505 L581.5,744.8873 L581.3901,744.3379 L577.4655,745.5149 L573.5753,746.8638 L569.485,747.2125 L565.5119,748.1468 L561.5,748.8873 L561.4944,748.8594 L565.5311,749.8429 L569.5417,750.6957 L573.6021,751.7978 L577.617,752.6722 L581.5,752.8873 L583.3114,752.8873 L582.179,762.724 L582.7362,772.5608 L583.3726,782.3976 L579.5768,792.2343 L583.3094,802.0711 L580.7093,811.9079 L582.9235,821.7446 L580.1799,831.5814 L581.3173,841.4182 L583.4776,851.2549 L581.5,861.0917 L581.5,861.0917 L581.5,860.9617 L591.4706,861.3725 L601.4412,861.9947 L611.4118,862.2016 L621.3824,861.0813 L631.3529,861.8576 L641.3235,859.5652 L651.2941,861.8501 L661.2647,862.5535 L671.2353,862.2771 L681.2059,862.7264 L691.1765,859.8035 L701.1471,859.3525 L711.1176,859.4346 L721.0882,860.9347 L731.0588,860.5676 L741.0294,862.9088 L751,860.6259 L760.9706,860.1769 L770.9412,861.7004 L780.9118,859.3135 L790.8824,859.7074 L800.8529,862.8222 L810.8235,862.2535 L820.7941,863.0503 L830.7647,860.2336 L840.7353,861.9429 L850.7059,862.6661 L860.6765,859.8319 L870.6471,860.8361 L880.6176,861.4276 L890.5882,862.8297 L900.5588,861.0805 L910.5294,862.3252 L920.5,859.6149 L930.4706,859.2857 L940.4412,862.4347 L950.4118,859.1798 L960.3824,862.4489 L970.3529,861.6427 L980.3235,860.3772 L990.2941,860.1483 L1000.2647,862.3151 L1010.2353,860.2935 L1020.2059,862.67 L1030.1765,859.6177 L1040.1471,862.7382 L1050.1176,862.3832 L1060.0882,861.7449 L1070.0588,861.2176 L1080.0294,863.0293 L1090,862.7279 L1099.9706,861.543 L1109.9412,861.8069 L1119.9118,860.7443 L1129.8824,863.0022 L1139.8529,861.5047 L1149.8235,861.5519 L1159.7941,859.4694 L1169.7647,860.0111 L1179.7353,862.507 L1189.7059,862.2377 L1199.6765,860.9772 L1209.6471,860.2326 L1219.6176,860.5079 L1229.5882,859.2619 L1239.5588,862.1977 L1249.5294,863.0639 L1259.5,861.0917 L1259.5,861.0917 L1260.9037,861.0917 L1261.3532,850.8817 L1259.1354,840.6718 L1259.7326,830.4619 L1258.4664,820.2519 L1260.2574,810.042 L1260.158,799.832 L1260.973,789.6221 L1258.8876,779.4121 L1259.1416,769.2022 L1260.6826,758.9922 L1261.0129,748.7823 L1258.1332,738.5724 L1258.983,728.3624 L1259.898,718.1525 L1257.8711,707.9425 L1260.4424,697.7326 L1260.188,687.5226 L1259.2313,677.3127 L1259.8793,667.1027 L1261.4431,656.8928 L1259.5,646.6829 L1259.3033,646.4862 L1257.698,644.8808 L1255.6795,642.8624 L1253.5728,640.7556 L1251.5886,638.7714 L1249.5,636.6829 L1249.5,636.9855 L1239.5299,635.0184 L1229.5597,635.614 L1219.5896,635.4521 L1209.6194,636.8531 L1199.6493,636.9179 L1189.6791,637.1142 L1179.709,635.9069 L1169.7388,636.5028 L1159.7687,636.3623 L1149.7985,638.2211 L1139.8284,637.8204 L1129.8582,635.3881 L1119.8881,636.4884 L1109.9179,635.1436 L1099.9478,637.4519 L1089.9776,638.3055 L1080.0075,638.135 L1070.0373,635.5214 L1060.0672,637.9201 L1050.097,634.702 L1040.1269,637.2166 L1030.1567,635.8847 L1020.1866,636.9408 L1010.2164,637.3238 L1000.2463,637.9418 L990.2761,634.7631 L980.306,637.9508 L970.3358,637.158 L960.3657,637.6304 L950.3955,638.677 L940.4254,636.6975 L930.4552,637.1502 L920.4851,637.252 L910.5149,637.2088 L900.5448,636.6807 L890.5746,638.5781 L880.6045,635.0569 L870.6343,638.1903 L860.6642,635.0189 L850.694,635.242 L840.7239,636.7896 L830.7537,636.7583 L820.7836,635.3686 L810.8134,637.7861 L800.8433,636.9731 L790.8731,638.6206 L780.903,638.4618 L770.9328,635.4875 L760.9627,635.6217 L750.9925,636.3384 L741.0224,637.6309 L731.0522,637.7575 L721.0821,637.4859 L711.1119,635.771 L701.1418,638.3798 L691.1716,638.373 L681.2015,636.5568 L671.2313,636.0454 L661.2612,635.6125 L651.291,636.1106 L641.3209,637.0493 L631.3507,636.5005 L621.3806,635.5687 L611.4104,637.9825 L601.4403,635.459 L591.4701,638.0225 L581.5,636.6829 L581.5,636.6829 " fill="#FFFFE0" style="stroke:#181818;stroke-width:4.0;"/><path d="M1249.5,636.6829 L1249.6868,636.6829 L1249.1317,638.6829 L1249.6718,640.6829 L1249.8553,642.6829 L1248.8659,644.6829 L1249.5,646.6829 L1249.5,646.6138 L1251.5,646.3038 L1253.5,646.342 L1255.5,646.6223 L1257.5,646.0683 L1259.5,646.6829 L1259.848,647.0308 L1257.1038,644.2867 L1255.3757,642.5586 L1253.7715,640.9544 L1251.4461,638.6289 L1249.5,636.6829 " fill="#FFFFE0" style="stroke:#181818;stroke-width:4.0;"/><text fill="#000000" font-family="Chalkduster" font-size="24" lengthAdjust="spacing" textLength="657" x="587.5" y="665.5237">Choose according to your means/requirements:</text><text fill="#000000" font-family="Chalkduster" font-size="24" lengthAdjust="spacing" textLength="527" x="587.5" y="696.1536">- Simple spreadsheet based summaries</text><text fill="#000000" font-family="Chalkduster" font-size="24" lengthAdjust="spacing" textLength="435" x="587.5" y="726.7834">- Portable database catalogues</text><text fill="#000000" font-family="Chalkduster" font-size="24" lengthAdjust="spacing" textLength="640" x="587.5" y="757.4132">- Access controlled API with license manager</text><text fill="#000000" font-family="Chalkduster" font-size="24" lengthAdjust="spacing" textLength="641" x="587.5" y="788.0431">- Full search features a la LDaCA/PARADISEC</text><text fill="#000000" font-family="Chalkduster" font-size="24" lengthAdjust="spacing" textLength="403" x="587.5" y="818.6729">- IDN-style "Data Catalogue"</text><text fill="#000000" font-family="Chalkduster" font-size="24" lengthAdjust="spacing" textLength="239" x="587.5" y="849.3027">- More coming ...</text><polygon fill="#F1F1F1" points="48,723.5724,48,723.7825,58.02,723.158,68.04,723.7656,78.06,723.972,88.08,722.859,98.1,723.4946,108.12,723.1459,118.14,723.1889,128.16,723.5042,138.18,722.881,148.2,724.126,158.22,722.9421,168.24,723.3746,178.26,724.0043,188.28,723.4866,198.3,723.6406,208.32,723.5404,218.34,723.7509,228.36,723.8115,238.38,724.158,248.4,724.2434,258.42,724.2516,268.44,723.827,278.46,724.0359,288.48,724.2746,298.5,722.8512,308.52,724.2509,318.54,723.2759,328.56,724.1062,338.58,723.0773,348.6,723.5039,358.62,724.314,368.64,723.5236,378.66,723.6777,388.68,723.911,398.7,723.9886,408.72,723.5685,418.74,723.8596,428.76,722.9999,438.78,723.8567,448.8,724.1206,458.82,724.0169,468.84,724.1854,478.86,723.0893,488.88,722.9202,498.9,722.951,508.92,723.5135,518.94,723.3758,528.96,724.2538,538.98,723.3977,549,723.5724,548.9562,723.4667,550.7969,724.3749,552.4505,724.8315,554.2371,725.6092,556.1538,726.7011,557.8388,727.2335,557.973,727.2891,558.7973,729.095,559.2042,730.728,560.1338,732.5775,560.9496,734.3799,561.5,736.0724,561.3425,736.0724,561.468,741.1983,561.542,746.3243,561.7173,751.4503,561.4986,756.5762,561.5,761.7022,561.6425,761.7612,560.5972,763.3993,559.827,765.1513,559.4584,767.0697,558.3503,768.6818,557.8388,770.541,557.9038,770.6978,556.0974,771.3369,554.2691,771.923,552.4904,772.6288,550.8263,773.6112,549,774.2022,549,773.9029,538.98,774.7941,528.96,773.6494,518.94,774.8196,508.92,774.6865,498.9,774.4472,488.88,774.2494,478.86,774.9288,468.84,774.8158,458.82,774.3714,448.8,774.4704,438.78,774.0719,428.76,774.9186,418.74,774.3571,408.72,774.3748,398.7,773.5938,388.68,773.797,378.66,774.7329,368.64,774.632,358.62,774.1593,348.6,773.88,338.58,773.9833,328.56,773.516,318.54,774.6169,308.52,774.9418,298.5,774.7286,288.48,774.8971,278.46,774.0655,268.44,774.2894,258.42,773.8146,248.4,774.4862,238.38,774.449,228.36,774.7546,218.34,773.9725,208.32,774.0678,198.3,774.6457,188.28,774.7695,178.26,773.6897,168.24,774.0083,158.22,774.3515,148.2,773.5913,138.18,774.5556,128.16,774.4602,118.14,774.1014,108.12,774.3444,98.1,774.9309,88.08,773.8893,78.06,774.5172,68.04,774.4878,58.02,774.318,48,774.2022,48.018,774.2456,46.2467,773.5049,44.3848,772.5455,42.6456,771.8821,40.8701,771.1311,39.1612,770.541,39.1808,770.5492,38.4561,768.7845,37.7465,767.0261,36.8749,765.2006,36.2114,763.4613,35.5,761.7022,35.4599,761.7022,35.6923,756.5762,35.6422,751.4503,35.3382,746.3243,35.4757,741.1983,35.5,736.0724,35.3222,735.9987,36.321,734.3414,37.1519,732.6144,37.8644,730.8385,38.2948,728.9457,39.1612,727.2335,39.2203,727.3764,40.8342,726.2725,42.7222,725.8307,44.4263,724.9446,46.2446,724.3344,48,723.5724" style="stroke:#181818;stroke-width:0.5;"/><text fill="#000000" font-family="Chalkduster" font-size="24" lengthAdjust="spacing" textLength="506" x="45.5" y="757.4132">3: Index and catalogue the `RRKive`</text><polygon fill="#F1F1F1" points="226.5,267.4105,226.5,267.6207,236.7857,266.9962,247.0714,267.6038,257.3571,267.8102,267.6429,266.6971,277.9286,267.3328,288.2143,266.984,298.5,267.027,308.7857,267.3423,319.0714,266.7191,329.3571,267.9641,339.6429,266.7802,349.9286,267.2127,360.2143,267.8424,370.5,267.4105,370.4775,267.3929,372.9179,270.4875,375.2916,273.5299,377.7468,276.6361,380.1627,279.7116,382.5,282.7254,382.6537,282.8458,380.2761,285.9264,377.8782,288.991,375.3668,291.9667,373.0216,295.0727,370.5,298.0403,370.5,298.7426,360.2143,297.3191,349.9286,298.7188,339.6429,297.7438,329.3571,298.5741,319.0714,297.5453,308.7857,297.9718,298.5,298.7819,288.2143,297.9916,277.9286,298.1456,267.6429,298.379,257.3571,298.4566,247.0714,298.0364,236.7857,298.3275,226.5,298.0403,226.3498,297.9226,224.1746,295.0358,221.8438,292.0271,219.4166,288.9428,217.0608,285.9144,214.5,282.7254,214.3732,282.6261,216.7289,279.5283,219.137,276.4717,221.6846,273.5244,224.0484,270.4331,226.5,267.4105" style="stroke:#181818;stroke-width:0.5;"/><text fill="#000000" font-family="Chalkduster" font-size="24" lengthAdjust="spacing" textLength="42" x="302.5" y="321.8812">yes</text><text fill="#000000" font-family="Chalkduster" font-size="24" lengthAdjust="spacing" textLength="144" x="226.5" y="291.2514">Put online</text><polygon fill="#F1F1F1" points="298.5,881.0917,298.5495,881.1412,300.8023,883.394,303.3456,885.9373,305.7942,888.3859,307.9319,890.5235,310.5,893.0917,310.4817,893.0734,307.9995,895.3912,305.6096,897.8013,303.2839,900.2756,300.737,902.5287,298.5,905.0917,298.6305,905.2222,295.9514,902.5431,293.6534,900.2451,291.4018,897.9935,288.8798,895.4715,286.5,893.0917,286.5161,893.1078,288.8925,890.6842,291.3421,888.3338,293.7564,885.9481,296.238,883.6297,298.5,881.0917" style="stroke:#181818;stroke-width:0.5;"/><path d="M298.5,104.6022 L298.7802,104.6022 L297.9476,114.849 L298.7577,125.0957 L299.0329,135.3424 L297.5488,145.5892 L298.5,155.8359 " fill="#8B0000" style="stroke:#8B0000;stroke-width:4.0;"/><polygon fill="#8B0000" points="294.5,145.8359,294.565,145.8619,295.1718,147.7846,296.1598,149.8598,297.0237,151.8854,297.4792,153.7476,298.5,155.8359,298.4759,155.8263,299.168,153.7831,299.9813,151.7884,300.8789,149.8275,301.486,147.7503,302.5,145.8359,302.6305,145.9664,301.5514,146.4874,300.8534,147.3893,300.2018,148.3377,299.2798,149.0157,298.5,149.8359,298.5161,149.852,297.6925,149.0284,296.9421,148.278,296.1564,147.4923,295.438,146.774,294.5,145.8359" style="stroke:#8B0000;stroke-width:1.0;"/><path d="M298.5,453.5597 L298.7802,453.5597 L297.9476,463.7346 L298.7577,473.9096 L299.0329,484.0845 L297.5488,494.2595 L298.3964,504.4344 L297.9313,514.6094 L297.9887,524.7843 L298.4091,534.9593 L298.5,545.1342 " fill="#8B0000" style="stroke:#8B0000;stroke-width:4.0;"/><polygon fill="#8B0000" points="294.5,535.1342,294.565,535.1603,295.1718,537.083,296.1598,539.1582,297.0237,541.1837,297.4792,543.0459,298.5,545.1342,298.4759,545.1246,299.168,543.0814,299.9813,541.0868,300.8789,539.1258,301.486,537.0487,302.5,535.1342,302.6305,535.2647,301.5514,535.7857,300.8534,536.6876,300.2018,537.6361,299.2798,538.314,298.5,539.1342,298.5161,539.1503,297.6925,538.3267,296.9421,537.5763,296.1564,536.7906,295.438,536.0723,294.5,535.1342" style="stroke:#8B0000;stroke-width:1.0;"/><path d="M298.5,626.3939 L298.7802,626.3939 L297.9476,636.1118 L298.7577,645.8296 L299.0329,655.5474 L297.5488,665.2653 L298.3964,674.9831 L297.9313,684.701 L297.9887,694.4188 L298.4091,704.1367 L297.5782,713.8545 L298.5,723.5724 " fill="#8B0000" style="stroke:#8B0000;stroke-width:4.0;"/><polygon fill="#8B0000" points="294.5,713.5724,294.565,713.5984,295.1718,715.5211,296.1598,717.5963,297.0237,719.6218,297.4792,721.484,298.5,723.5724,298.4759,723.5627,299.168,721.5196,299.9813,719.5249,300.8789,717.5639,301.486,715.4868,302.5,713.5724,302.6305,713.7029,301.5514,714.2238,300.8534,715.1257,300.2018,716.0742,299.2798,716.7521,298.5,717.5724,298.5161,717.5884,297.6925,716.7648,296.9421,716.0144,296.1564,715.2287,295.438,714.5104,294.5,713.5724" style="stroke:#8B0000;stroke-width:1.0;"/><path d="M298.5,298.0403 L298.7802,298.0403 L297.9476,308.5293 L298.7577,319.0182 L299.0329,329.5072 L297.5488,339.9961 L298.3964,350.4851 L297.9313,360.974 L297.9887,371.463 L298.4091,381.9519 L297.5782,392.4409 L298.5,402.9298 " fill="#8B0000" style="stroke:#8B0000;stroke-width:4.0;"/><polygon fill="#8B0000" points="294.5,392.9298,294.565,392.9558,295.1718,394.8785,296.1598,396.9538,297.0237,398.9793,297.4792,400.8415,298.5,402.9298,298.4759,402.9202,299.168,400.877,299.9813,398.8824,300.8789,396.9214,301.486,394.8442,302.5,392.9298,302.6305,393.0603,301.5514,393.5813,300.8534,394.4832,300.2018,395.4316,299.2798,396.1096,298.5,396.9298,298.5161,396.9459,297.6925,396.1223,296.9421,395.3719,296.1564,394.5862,295.438,393.8679,294.5,392.9298" style="stroke:#8B0000;stroke-width:1.0;"/><path d="M382.5,282.7254 L382.5,283.0057 L392.4663,282.173 L402.4326,282.9831 L412.3989,283.2583 L422.3652,281.7742 L432.3315,282.6218 L442.2978,282.1568 L452.264,282.2141 L462.2303,282.6345 L472.1966,281.8036 L482.1629,283.4636 L492.1292,281.885 L502.0955,282.4617 L512.0618,283.3013 L522.0281,282.611 L531.9944,282.8164 L541.9607,282.6828 L551.927,282.9634 L561.8933,283.0443 L571.8596,283.5063 L581.8258,283.6201 L591.7921,283.6311 L601.7584,283.0649 L611.7247,283.3435 L621.691,283.6617 L631.6573,281.7638 L641.6236,283.6301 L651.5899,282.3301 L661.5562,283.4372 L671.5225,282.0654 L681.4888,282.6341 L691.4551,283.7142 L701.4213,282.6604 L711.3876,282.8658 L721.3539,283.1769 L731.3202,283.2804 L741.2865,282.7202 L751.2528,283.1084 L761.2191,281.9622 L771.1854,283.1046 L781.1517,283.4563 L791.118,283.3181 L801.0843,283.5428 L811.0506,282.0813 L821.0169,281.8558 L830.9831,281.8969 L840.9494,282.6469 L850.9157,282.4634 L860.882,283.634 L870.8483,282.4925 L880.8146,282.268 L890.7809,283.0298 L900.7472,281.8363 L910.7135,282.0332 L920.6798,283.5907 L930.6461,283.3063 L940.6124,283.7047 L950.5787,282.2964 L960.5449,283.151 L970.5112,283.5126 L980.4775,282.0955 L990.4438,282.5976 L1000.4101,282.8934 L1010.3764,283.5944 L1020.3427,282.7198 L1030.309,283.3422 L1040.2753,281.987 L1050.2416,281.8224 L1060.2079,283.3969 L1070.1742,281.7695 L1080.1404,283.404 L1090.1067,283.0009 L1100.073,282.3682 L1110.0393,282.2537 L1120.0056,283.3371 L1129.9719,282.3263 L1139.9382,283.5146 L1149.9045,281.9884 L1159.8708,283.5486 L1169.8371,283.3711 L1179.8034,283.052 L1189.7697,282.7884 L1199.736,283.6942 L1209.7022,283.5435 L1219.6685,282.9511 L1229.6348,283.083 L1239.6011,282.5517 L1249.5674,283.6807 L1259.5337,282.9319 L1269.5,282.7254 " fill="#8B0000" style="stroke:#8B0000;stroke-width:4.0;"/><polygon fill="#8B0000" points="1265.5,589.4215,1265.565,589.4476,1266.1718,591.3702,1267.1598,593.4455,1268.0237,595.471,1268.4792,597.3332,1269.5,599.4215,1269.4759,599.4119,1270.168,597.3687,1270.9813,595.3741,1271.8789,593.4131,1272.486,591.3359,1273.5,589.4215,1273.6305,589.552,1272.5514,590.073,1271.8534,590.9749,1271.2018,591.9233,1270.2798,592.6013,1269.5,593.4215,1269.5161,593.4376,1268.6925,592.614,1267.9421,591.8636,1267.1564,591.0779,1266.438,590.3596,1265.5,589.4215" style="stroke:#8B0000;stroke-width:4.0;"/><path d="M1269.5,282.7254 L1269.7802,282.7254 L1268.9476,292.7314 L1269.7577,302.7374 L1270.0329,312.7434 L1268.5488,322.7494 L1269.3964,332.7554 L1268.9313,342.7614 L1268.9887,352.7674 L1269.4091,362.7734 L1268.5782,372.7795 L1270.2382,382.7855 L1268.6596,392.7915 L1269.2363,402.7975 L1270.0759,412.8035 L1269.3856,422.8095 L1269.591,432.8155 L1269.4574,442.8215 L1269.738,452.8275 L1269.8188,462.8335 L1270.2809,472.8395 L1270.3947,482.8455 L1270.4057,492.8515 L1269.8395,502.8575 L1270.1181,512.8635 L1270.4363,522.8695 L1268.5384,532.8755 L1270.4047,542.8815 L1269.1047,552.8875 L1270.2117,562.8935 L1268.84,572.8995 L1269.4087,582.9055 L1270.4888,592.9116 L1269.435,602.9176 L1269.6404,612.9236 L1269.9515,622.9296 L1270.055,632.9356 L1269.4948,642.9416 L1269.883,652.9476 L1268.7368,662.9536 L1269.8792,672.9596 L1270.2309,682.9656 L1270.0927,692.9716 L1270.3174,702.9776 L1268.8559,712.9836 L1268.6304,722.9896 L1268.6715,732.9956 L1269.4215,743.0016 L1269.238,753.0076 L1270.4085,763.0136 L1269.2671,773.0196 L1269.0426,783.0256 L1269.8044,793.0316 L1268.6109,803.0377 L1268.8078,813.0437 L1270.3653,823.0497 L1270.0809,833.0557 L1270.4793,843.0617 L1269.0709,853.0677 L1269.9256,863.0737 L1270.2872,873.0797 L1268.8701,883.0857 L1269.5,893.0917 " fill="#8B0000" style="stroke:#8B0000;stroke-width:4.0;"/><path d="M1269.5,893.0917 L1269.5,893.3719 L1259.5104,892.5393 L1249.5208,893.3494 L1239.5313,893.6246 L1229.5417,892.1405 L1219.5521,892.9881 L1209.5625,892.523 L1199.5729,892.5804 L1189.5833,893.0008 L1179.5938,892.1699 L1169.6042,893.8299 L1159.6146,892.2513 L1149.625,892.828 L1139.6354,893.6676 L1129.6458,892.9773 L1119.6563,893.1827 L1109.6667,893.0491 L1099.6771,893.3297 L1089.6875,893.4105 L1079.6979,893.8726 L1069.7083,893.9864 L1059.7188,893.9974 L1049.7292,893.4312 L1039.7396,893.7098 L1029.75,894.028 L1019.7604,892.1301 L1009.7708,893.9964 L999.7813,892.6964 L989.7917,893.8034 L979.8021,892.4317 L969.8125,893.0004 L959.8229,894.0805 L949.8333,893.0267 L939.8438,893.2321 L929.8542,893.5432 L919.8646,893.6467 L909.875,893.0865 L899.8854,893.4746 L889.8958,892.3285 L879.9063,893.4709 L869.9167,893.8226 L859.9271,893.6844 L849.9375,893.9091 L839.9479,892.4476 L829.9583,892.2221 L819.9688,892.2632 L809.9792,893.0132 L799.9896,892.8297 L790,894.0002 L780.0104,892.8588 L770.0208,892.6343 L760.0313,893.396 L750.0417,892.2026 L740.0521,892.3995 L730.0625,893.957 L720.0729,893.6726 L710.0833,894.071 L700.0938,892.6626 L690.1042,893.5173 L680.1146,893.8789 L670.125,892.4618 L660.1354,892.9639 L650.1458,893.2597 L640.1563,893.9607 L630.1667,893.0861 L620.1771,893.7084 L610.1875,892.3533 L600.1979,892.1887 L590.2083,893.7632 L580.2188,892.1358 L570.2292,893.7703 L560.2396,893.3672 L550.25,892.7345 L540.2604,892.62 L530.2708,893.7034 L520.2813,892.6926 L510.2917,893.8808 L500.3021,892.3547 L490.3125,893.9149 L480.3229,893.7374 L470.3333,893.4183 L460.3438,893.1547 L450.3542,894.0605 L440.3646,893.9098 L430.375,893.3174 L420.3854,893.4493 L410.3958,892.918 L400.4063,894.047 L390.4167,893.2982 L380.4271,893.3218 L370.4375,892.2806 L360.4479,892.5514 L350.4583,893.7994 L340.4688,893.6647 L330.4792,893.0344 L320.4896,892.6621 L310.5,893.0917 " fill="#8B0000" style="stroke:#8B0000;stroke-width:4.0;"/><polygon fill="#8B0000" points="320.5,889.0917,320.526,889.1567,318.4487,889.7635,316.5239,890.7515,314.5495,891.6154,312.4117,892.0709,310.5,893.0917,310.4904,893.0676,312.4472,893.7597,314.4525,894.573,316.4916,895.4706,318.4144,896.0777,320.5,897.0917,320.6305,897.2222,319.5514,896.1431,318.8534,895.4451,318.2018,894.7935,317.2798,893.8715,316.5,893.0917,316.5161,893.1078,317.2925,892.2842,318.1421,891.5338,318.9564,890.7481,319.838,890.0297,320.5,889.0917" style="stroke:#8B0000;stroke-width:1.0;"/><path d="M298.5,774.2022 L298.7802,774.2022 L297.9476,783.9194 L298.7577,793.6366 L299.0329,803.3539 L297.5488,813.0711 L298.3964,822.7883 L297.9313,832.5056 L297.9887,842.2228 L298.4091,851.94 L297.5782,861.6572 L299.2382,871.3745 L298.5,881.0917 " fill="#8B0000" style="stroke:#8B0000;stroke-width:4.0;"/><polygon fill="#8B0000" points="294.5,871.0917,294.565,871.1177,295.1718,873.0404,296.1598,875.1156,297.0237,877.1412,297.4792,879.0034,298.5,881.0917,298.4759,881.0821,299.168,879.0389,299.9813,877.0442,300.8789,875.0833,301.486,873.0061,302.5,871.0917,302.6305,871.2222,301.5514,871.7431,300.8534,872.6451,300.2018,873.5935,299.2798,874.2715,298.5,875.0917,298.5161,875.1078,297.6925,874.2842,296.9421,873.5338,296.1564,872.7481,295.438,872.0297,294.5,871.0917" style="stroke:#8B0000;stroke-width:1.0;"/><path d="M298.5,206.4657 L298.7802,206.4657 L297.9476,216.6232 L298.7577,226.7807 L299.0329,236.9381 L297.5488,247.0956 L298.3964,257.253 L298.5,267.4105 " fill="#8B0000" style="stroke:#8B0000;stroke-width:4.0;"/><polygon fill="#8B0000" points="294.5,257.4105,294.565,257.4365,295.1718,259.3592,296.1598,261.4344,297.0237,263.46,297.4792,265.3222,298.5,267.4105,298.4759,267.4009,299.168,265.3577,299.9813,263.363,300.8789,261.4021,301.486,259.3249,302.5,257.4105,302.6305,257.541,301.5514,258.0619,300.8534,258.9639,300.2018,259.9123,299.2798,260.5903,298.5,261.4105,298.5161,261.4266,297.6925,260.603,296.9421,259.8526,296.1564,259.0669,295.438,258.3485,294.5,257.4105" style="stroke:#8B0000;stroke-width:1.0;"/><!--SRC=[NLF1ZjCm4BtxAuOzTIMQ2hWLX1GIa2eMjceFN93OgJDj38uTF7PtymbS-8NzHJw1SSBkjkGGsPxnp9ltdfyPfsrgw5k7Re2YM3GOSIuRF517Biuv3fQAU1ULYYPQMaBLUi_67G0XK2_BwCEWE6AGdEMB9QmOOak101sGdE-iuPQQaspO-_1QEHy9WZcqKLM1K3O8rliVgOTyYS3lSo70e5jpfAMQmvNX2AkQfNIJOoO0Iq41ApSrHkCTIzgxP6m37VQvHEMj9Pr3i83htNTP2nGx9RUcPwL8gcKqIYcpXzawHV3E6aUNkOc3sK1yASEzNCAM8WZ0C_GPboR79AkIsHpSY75MNmiL5FMbd4-DtypVdi0vGm6IzANrp-6snIW_8L1EFXZXeI7MmVGFqws3Fv93f-aKk5h-kV_z2ygHBBJppHFRGcupG0v_TV3l4rrY4XubcuuYpjb0c_62Y0J6iSYUSckqZrmpXQFvl_qhKTurT3Tg8rgWzOT4eu8tcyr7KV3cNFFi8r5NQn-QxAVeOV0fG4VeU17ePp9XD25dwRUcwuKBxlCquYVHOOSio3br7GP38pK-JDR9DixX9o0vN6fDpA2zYo7Bq42vNi6jYItOIK6Oh1yozSdAn9JT1tknPmh4sQ48LpLMvM9TRifwjNrVIUwg_Zoz5BYefI5K3rql9FZ9orlGliip5aNnoDfV]--></g></svg>