<?xml version="1.0" encoding="us-ascii" standalone="no"?><svg xmlns="http://www.w3.org/2000/svg" xmlns:xlink="http://www.w3.org/1999/xlink" contentStyleType="text/css" height="1103px" preserveAspectRatio="none" style="width:829px;height:1103px;background:#FFFFFF;" version="1.1" viewBox="0 0 829 1103" width="829px" zoomAndPan="magnify"><defs/><g><text fill="#000000" font-family="Chalkduster" font-size="42" font-weight="bold" lengthAdjust="spacing" textLength="786" x="20" y="61.7215">Is it a FAIR-dinkum repository?</text><polygon fill="#F1F1F1" points="209,376.3,209,376.5102,219.0769,375.8857,229.1538,376.4933,239.2308,376.6997,249.3077,375.5866,259.3846,376.2223,269.4615,375.8735,279.5385,375.9165,289.6154,376.2318,299.6923,375.6086,309.7692,376.8536,319.8462,375.6697,329.9231,376.1022,340,376.7319,350.0769,376.2142,360.1538,376.3682,370.2308,376.268,380.3077,376.4785,390.3846,376.5391,400.4615,376.8857,410.5385,376.971,420.6154,376.9793,430.6923,376.5546,440.7692,376.7636,450.8462,377.0022,460.9231,375.5788,471,376.9785,481.0769,376.0035,491.1538,376.8338,501.2308,375.805,511.3077,376.2315,521.3846,377.0416,531.4615,376.2513,541.5385,376.4053,551.6154,376.6386,561.6923,376.7162,571.7692,376.2961,581.8462,376.5872,591.9231,375.7276,602,376.3,602.0363,376.3876,603.8377,377.201,605.5922,377.9014,607.3815,378.6855,609.0094,379.0802,610.8388,379.9612,610.638,379.878,611.3797,381.6497,612.2852,383.4892,612.975,385.2394,613.9776,387.1191,614.5,388.8,614.4418,388.8,614.3856,393.926,614.5761,399.0519,614.2777,404.1779,614.327,409.3039,614.5,414.4298,614.6999,414.5126,613.9019,416.2532,613.2617,418.0591,612.2042,419.6921,611.6694,421.5416,610.8388,423.2687,610.9141,423.4505,609.0108,423.8554,607.2911,424.7036,605.5516,425.5042,603.8509,426.3983,602,426.9298,602,426.9256,591.9231,427.3924,581.8462,426.376,571.7692,426.2526,561.6923,427.4334,551.6154,426.2129,541.5385,427.4388,531.4615,427.1365,521.3846,426.6619,511.3077,426.5761,501.2308,427.3886,491.1538,426.6305,481.0769,427.5217,471,426.3771,460.9231,427.5473,450.8462,427.4141,440.7692,427.1748,430.6923,426.977,420.6154,427.6564,410.5385,427.5434,400.4615,427.0991,390.3846,427.198,380.3077,426.7996,370.2308,427.6463,360.1538,427.0847,350.0769,427.1024,340,426.3215,329.9231,426.5246,319.8462,427.4606,309.7692,427.3596,299.6923,426.8869,289.6154,426.6077,279.5385,426.7109,269.4615,426.2437,259.3846,427.3446,249.3077,427.6694,239.2308,427.4562,229.1538,427.6248,219.0769,426.7931,209,426.9298,209.0111,426.9567,207.1828,426.0782,205.5007,425.5528,203.7282,424.8091,201.9994,424.171,200.1612,423.2687,200.0904,423.2394,199.3875,421.4837,198.8333,419.7897,198.1392,418.0377,197.0744,416.1322,196.5,414.4298,196.4354,414.4298,196.5498,409.3039,196.2964,404.1779,196.6178,399.0519,196.586,393.926,196.5,388.8,196.469,388.7871,197.276,387.0504,198.1889,385.3574,198.6003,383.4568,199.5259,381.7691,200.1612,379.9612,200.1976,380.0491,201.9437,379.2646,203.7147,378.5401,205.4789,377.7994,207.1526,376.84,209,376.3" style="stroke:#181818;stroke-width:0.5;"/><text fill="#000000" font-family="Chalkduster" font-size="24" lengthAdjust="spacing" textLength="398" x="206.5" y="410.1409">&#9989; Looks like a repository &#9989;</text><polygon fill="#F1F1F1" points="370,585.4232,370,585.6334,380.1429,585.0089,390.2857,585.6165,400.4286,585.8229,410.5714,584.7098,420.7143,585.3455,430.8571,584.9967,441,585.4232,440.9511,585.3051,442.7591,586.1344,444.4473,586.6747,446.3739,587.7904,447.9907,588.158,449.8388,589.0844,449.7779,589.0591,450.7041,590.9072,451.2769,592.609,452.0565,594.3964,452.7579,596.1514,453.5,597.9232,453.5595,597.9232,453.5797,603.0492,453.6952,608.1751,453.7237,613.3011,453.7264,618.4271,453.5,623.553,453.5784,623.5855,452.9105,625.3799,452.2518,627.1781,451.0812,628.7643,450.78,630.7106,449.8388,632.3919,449.801,632.3005,448.1392,633.2885,446.2402,633.7039,444.5268,634.5675,442.8624,635.5492,441,636.053,441,636.0043,430.8571,636.1583,420.7143,636.3917,410.5714,636.4693,400.4286,636.0491,390.2857,636.3402,380.1429,635.4806,370,636.053,370.0363,636.1406,368.3022,635.4896,366.5212,634.7255,364.7749,634.0451,362.8673,632.9753,361.1612,632.3919,360.9603,632.3087,360.2376,630.5448,359.6786,628.8488,358.9039,627.0635,358.4421,625.4077,357.5,623.553,357.4418,623.553,357.3856,618.4271,357.5761,613.3011,357.2777,608.1751,357.327,603.0492,357.5,597.9232,357.6999,598.006,358.3664,596.211,359.1907,594.4814,359.5976,592.5788,360.5272,590.8928,361.1612,589.0844,361.2365,589.2662,362.8687,588.2066,364.6845,587.5904,366.4805,586.9265,368.3154,586.3561,370,585.4232" style="stroke:#181818;stroke-width:0.5;"/><text fill="#000000" font-family="Chalkduster" font-size="24" lengthAdjust="spacing" textLength="76" x="367.5" y="619.2641">Use it</text><polygon fill="none" points="416.5608,679.516,414.9484,681.7191,413.0412,684.946,410.3136,687.1207,407.4474,688.3099,405.162,688.4131,402.2247,686.9259,399.4532,685.9542,397.3495,683.9815,396.2461,681.7231,395.5917,679.9249,394.9506,677.576,393.91,675.5548,394.7096,673.5813,395.4102,671.4195,398.0393,669.7098,399.889,667.4914,402.1784,666.7548,404.9001,666.1204,408.3904,666.4973,410.3021,667.3988,412.5247,667.8075,415.2272,670.5763,416.1693,673.4993,416.5786,675.4937,416.115,678.7802" style="stroke:#222222;stroke-width:1.0;"/><polygon fill="#222222" points="411.5331,678.2998,410.6536,679.5015,409.6134,681.2616,408.1256,682.4478,406.5622,683.0965,405.3156,683.1528,403.7135,682.3415,402.2017,681.8115,401.0543,680.7355,400.4524,679.5036,400.0955,678.5228,399.7458,677.2416,399.1782,676.1391,399.6143,675.0627,399.9965,673.8835,401.4305,672.9509,402.4394,671.7409,403.6882,671.3391,405.1728,670.9931,407.0766,671.1987,408.1193,671.6904,409.3317,671.9133,410.8057,673.4236,411.3196,675.0179,411.5429,676.1058,411.29,677.8984" style="stroke:#111111;stroke-width:1.0;"/><polygon fill="#F1F1F1" points="172.5,521.4784,172.5,521.6886,182.4149,521.0641,192.3298,521.6717,202.2447,521.8781,212.1596,520.765,222.0745,521.4007,231.9894,521.0519,241.9043,521.0949,251.8191,521.4103,261.734,520.7871,271.6489,522.0321,281.5638,520.8482,291.4787,521.2807,301.3936,521.9104,311.3085,521.3927,321.2234,521.5467,331.1383,521.4465,341.0532,521.657,350.9681,521.7176,360.883,522.0641,370.7979,522.1495,380.7128,522.1577,390.6277,521.7331,400.5426,521.942,410.4574,522.1807,420.3723,520.7573,430.2872,522.157,440.2021,521.1819,450.117,522.0123,460.0319,520.9834,469.9468,521.4099,479.8617,522.22,489.7766,521.4297,499.6915,521.5837,509.6064,521.8171,519.5213,521.8947,529.4362,521.4745,539.3511,521.7657,549.266,520.906,559.1809,521.7628,569.0957,522.0266,579.0106,521.923,588.9255,522.0915,598.8404,520.9954,608.7553,520.8263,618.6702,520.857,628.5851,521.4196,638.5,521.4784,638.4484,521.438,641.0788,524.6815,643.2542,527.5685,645.61,530.5969,648.1599,533.7773,650.5,536.7934,650.325,536.6563,647.9638,539.7496,645.8703,543.0527,643.4143,546.0719,641.0927,549.1963,638.5,552.1083,638.5,551.7865,628.5851,552.4275,618.6702,552.6987,608.7553,551.6359,598.8404,552.0124,588.9255,552.2343,579.0106,552.76,569.0957,552.1041,559.1809,552.5708,549.266,551.5545,539.3511,551.431,529.4362,552.6119,519.5213,551.3913,509.6064,552.6172,499.6915,552.3149,489.7766,551.8404,479.8617,551.7545,469.9468,552.567,460.0319,551.8089,450.117,552.7001,440.2021,551.5555,430.2872,552.7257,420.3723,552.5926,410.4574,552.3532,400.5426,552.1555,390.6277,552.8349,380.7128,552.7219,370.7979,552.2775,360.883,552.3765,350.9681,551.978,341.0532,552.8247,331.1383,552.2631,321.2234,552.2808,311.3085,551.4999,301.3936,551.7031,291.4787,552.639,281.5638,552.538,271.6489,552.0653,261.734,551.7861,251.8191,551.8893,241.9043,551.4221,231.9894,552.523,222.0745,552.8478,212.1596,552.6347,202.2447,552.8032,192.3298,551.9715,182.4149,552.1955,172.5,552.1083,172.3983,552.0286,170.1745,549.1037,167.7647,546.033,165.4449,543.0329,162.8397,539.8091,160.5,536.7934,160.4647,536.7657,163.0164,533.8215,165.4489,530.784,167.5655,527.499,170.0491,524.5016,172.5,521.4784" style="stroke:#181818;stroke-width:0.5;"/><text fill="#000000" font-family="Chalkduster" font-size="24" lengthAdjust="spacing" textLength="42" x="409.5" y="575.9492">yes</text><text fill="#000000" font-family="Chalkduster" font-size="24" lengthAdjust="spacing" textLength="466" x="172.5" y="545.3193">Scale &amp; functionality is adequate</text><text fill="#000000" font-family="Chalkduster" font-size="24" lengthAdjust="spacing" textLength="35" x="650.5" y="530.0044">no</text><polygon fill="#F1F1F1" points="209.5,730.3679,209.5,730.5781,219.5513,729.9536,229.6026,730.5612,239.6538,730.7676,249.7051,729.6545,259.7564,730.2902,269.8077,729.9414,279.859,729.9844,289.9103,730.2998,299.9615,729.6766,310.0128,730.9216,320.0641,729.7377,330.1154,730.1702,340.1667,730.7999,350.2179,730.2822,360.2692,730.4362,370.3205,730.336,380.3718,730.5465,390.4231,730.6071,400.4744,730.9536,410.5256,731.039,420.5769,731.0472,430.6282,730.6226,440.6795,730.8315,450.7308,731.0702,460.7821,729.6468,470.8333,731.0465,480.8846,730.0714,490.9359,730.9018,500.9872,729.8729,511.0385,730.2994,521.0897,731.1095,531.141,730.3192,541.1923,730.4732,551.2436,730.7066,561.2949,730.7842,571.3462,730.364,581.3974,730.6552,591.4487,729.7955,601.5,730.3679,601.5363,730.4555,603.3377,731.269,605.0922,731.9693,606.8815,732.7534,608.5094,733.1481,610.3388,734.0291,610.138,733.9459,610.8797,735.7176,611.7852,737.5571,612.475,739.3073,613.4776,741.1871,614,742.8679,613.9418,742.8679,613.8856,747.9939,614.0761,753.1199,613.7777,758.2458,613.827,763.3718,614,768.4978,614.1999,768.5806,613.4019,770.3211,612.7617,772.127,611.7042,773.76,611.1694,775.6096,610.3388,777.3366,610.4141,777.5184,608.5108,777.9234,606.7911,778.7716,605.0516,779.5721,603.3509,780.4663,601.5,780.9978,601.5,780.9936,591.4487,781.4603,581.3974,780.444,571.3462,780.3205,561.2949,781.5014,551.2436,780.2808,541.1923,781.5067,531.141,781.2044,521.0897,780.7299,511.0385,780.644,500.9872,781.4565,490.9359,780.6984,480.8846,781.5896,470.8333,780.445,460.7821,781.6152,450.7308,781.4821,440.6795,781.2427,430.6282,781.045,420.5769,781.7244,410.5256,781.6114,400.4744,781.167,390.4231,781.266,380.3718,780.8675,370.3205,781.7142,360.2692,781.1526,350.2179,781.1703,340.1667,780.3894,330.1154,780.5926,320.0641,781.5285,310.0128,781.4275,299.9615,780.9548,289.9103,780.6756,279.859,780.7788,269.8077,780.3116,259.7564,781.4125,249.7051,781.7373,239.6538,781.5242,229.6026,781.6927,219.5513,780.861,209.5,780.9978,209.5111,781.0246,207.6828,780.1462,206.0007,779.6208,204.2282,778.8771,202.4994,778.239,200.6612,777.3366,200.5904,777.3073,199.8875,775.5517,199.3333,773.8576,198.6392,772.1057,197.5744,770.2002,197,768.4978,196.9354,768.4978,197.0498,763.3718,196.7964,758.2458,197.1178,753.1199,197.086,747.9939,197,742.8679,196.969,742.8551,197.776,741.1183,198.6889,739.4254,199.1003,737.5247,200.0259,735.8371,200.6612,734.0291,200.6976,734.1171,202.4437,733.3325,204.2147,732.608,205.9789,731.8674,207.6526,730.908,209.5,730.3679" style="stroke:#181818;stroke-width:0.5;"/><text fill="#000000" font-family="Chalkduster" font-size="24" lengthAdjust="spacing" textLength="385" x="219" y="764.2088">&#10062; Not for your use case  &#10062;</text><polygon fill="none" points="416.5608,814.6734,414.9484,816.8766,413.0412,820.1035,410.3136,822.2782,407.4474,823.4674,405.162,823.5706,402.2247,822.0833,399.4532,821.1117,397.3495,819.139,396.2461,816.8806,395.5917,815.0823,394.9506,812.7335,393.91,810.7122,394.7096,808.7388,395.4102,806.577,398.0393,804.8673,399.889,802.6489,402.1784,801.9122,404.9001,801.2778,408.3904,801.6547,410.3021,802.5563,412.5247,802.965,415.2272,805.7338,416.1693,808.6567,416.5786,810.6511,416.115,813.9377" style="stroke:#222222;stroke-width:1.0;"/><polygon fill="#222222" points="411.5331,813.4572,410.6536,814.6589,409.6134,816.4191,408.1256,817.6053,406.5622,818.2539,405.3156,818.3102,403.7135,817.499,402.2017,816.969,401.0543,815.893,400.4524,814.6611,400.0955,813.6802,399.7458,812.3991,399.1782,811.2966,399.6143,810.2201,399.9965,809.041,401.4305,808.1084,402.4394,806.8984,403.6882,806.4966,405.1728,806.1505,407.0766,806.3561,408.1193,806.8479,409.3317,807.0708,410.8057,808.581,411.3196,810.1754,411.5429,811.2632,411.29,813.0559" style="stroke:#111111;stroke-width:1.0;"/><polygon fill="#F1F1F1" points="193,457.5337,193,457.7439,202.8837,457.1194,212.7674,457.727,222.6512,457.9334,232.5349,456.8203,242.4186,457.456,252.3023,457.1072,262.186,457.1502,272.0698,457.4655,281.9535,456.8423,291.8372,458.0873,301.7209,456.9034,311.6047,457.3359,321.4884,457.9656,331.3721,457.4479,341.2558,457.6019,351.1395,457.5017,361.0233,457.7122,370.907,457.7728,380.7907,458.1194,390.6744,458.2047,400.5581,458.213,410.4419,457.7883,420.3256,457.9973,430.2093,458.2359,440.093,456.8125,449.9767,458.2122,459.8605,457.2372,469.7442,458.0675,479.6279,457.0387,489.5116,457.4652,499.3953,458.2753,509.2791,457.485,519.1628,457.639,529.0465,457.8723,538.9302,457.9499,548.814,457.5298,558.6977,457.8209,568.5814,456.9613,578.4651,457.8181,588.3488,458.0819,598.2326,457.9782,608.1163,458.1467,618,457.5337,617.8732,457.4344,620.2289,460.4626,622.637,463.5319,625.1846,466.7105,627.5484,469.7452,630,472.8486,630.1788,472.9887,627.5542,475.8757,625.11,478.904,622.8599,482.0845,620.225,484.9634,618,488.1635,618,487.6444,608.1163,488.8125,598.2326,488.5992,588.3488,488.898,578.4651,487.8417,568.5814,488.4827,558.6977,488.7539,548.814,487.6911,538.9302,488.0677,529.0465,488.2895,519.1628,488.8153,509.2791,488.1593,499.3953,488.6261,489.5116,487.6097,479.6279,487.4863,469.7442,488.6671,459.8605,487.4466,449.9767,488.6725,440.093,488.3702,430.2093,487.8956,420.3256,487.8098,410.4419,488.6223,400.5581,487.8642,390.6744,488.7554,380.7907,487.6108,370.907,488.781,361.0233,488.6478,351.1395,488.4085,341.2558,488.2107,331.3721,488.8901,321.4884,488.7771,311.6047,488.3328,301.7209,488.4317,291.8372,488.0333,281.9535,488.88,272.0698,488.3184,262.186,488.3361,252.3023,487.5552,242.4186,487.7583,232.5349,488.6943,222.6512,488.5933,212.7674,488.1206,202.8837,487.8414,193,488.1635,192.9426,488.1185,190.42,484.9595,188.3088,482.1228,185.994,479.1266,183.5381,476.0198,181,472.8486,181.1823,472.9915,183.3641,469.7575,185.8229,466.7406,188.0983,463.58,190.6745,460.6551,193,457.5337" style="stroke:#181818;stroke-width:0.5;"/><text fill="#000000" font-family="Chalkduster" font-size="24" lengthAdjust="spacing" textLength="42" x="409.5" y="512.0044">yes</text><text fill="#000000" font-family="Chalkduster" font-size="24" lengthAdjust="spacing" textLength="425" x="193" y="481.3746">Has appropriate access control</text><text fill="#000000" font-family="Chalkduster" font-size="24" lengthAdjust="spacing" textLength="35" x="630" y="466.0597">no</text><polygon fill="#F1F1F1" points="230.5,312.3552,230.5,312.5654,240.5,311.9409,250.5,312.5485,260.5,312.7549,270.5,311.6418,280.5,312.2775,290.5,311.9287,300.5,311.9717,310.5,312.2871,320.5,311.6639,330.5,312.9089,340.5,311.725,350.5,312.1575,360.5,312.7872,370.5,312.2695,380.5,312.4235,390.5,312.3233,400.5,312.5338,410.5,312.5944,420.5,312.9409,430.5,313.0263,440.5,313.0345,450.5,312.6099,460.5,312.8188,470.5,313.0575,480.5,311.6341,490.5,313.0338,500.5,312.0587,510.5,312.8891,520.5,311.8602,530.5,312.2867,540.5,313.0968,550.5,312.3065,560.5,312.4605,570.5,312.6939,580.5,312.3552,580.6092,312.4408,582.899,315.4174,585.3754,318.5403,587.5498,321.4265,590.1746,324.6656,592.5,327.6702,592.6438,327.7829,590.2166,330.8245,587.8608,333.9222,585.1732,336.7598,582.7289,339.788,580.5,342.9851,580.5,342.3637,570.5,342.9262,560.5,342.7885,550.5,343.6665,540.5,342.8104,530.5,342.642,520.5,343.2133,510.5,342.3182,500.5,342.466,490.5,343.634,480.5,343.4207,470.5,343.7196,460.5,342.6633,450.5,343.3043,440.5,343.5755,430.5,342.5127,420.5,342.8892,410.5,343.1111,400.5,343.6368,390.5,342.9809,380.5,343.4476,370.5,342.4313,360.5,342.3078,350.5,343.4887,340.5,342.2681,330.5,343.494,320.5,343.1917,310.5,342.7172,300.5,342.6313,290.5,343.4438,280.5,342.6857,270.5,343.5769,260.5,342.4323,250.5,343.6025,240.5,343.4694,230.5,342.9851,230.5643,343.0354,228.1124,339.9318,225.8906,337.0085,223.461,333.9223,220.9444,330.7679,218.5,327.6702,218.5704,327.7253,220.8658,324.5804,223.488,321.6915,225.7406,318.513,228.1453,315.4537,230.5,312.3552" style="stroke:#181818;stroke-width:0.5;"/><text fill="#000000" font-family="Chalkduster" font-size="24" lengthAdjust="spacing" textLength="42" x="409.5" y="366.826">yes</text><text fill="#000000" font-family="Chalkduster" font-size="24" lengthAdjust="spacing" textLength="350" x="230.5" y="336.1961">HAs clearly marked Exits</text><text fill="#000000" font-family="Chalkduster" font-size="24" lengthAdjust="spacing" textLength="35" x="592.5" y="320.8812">no</text><polygon fill="#F1F1F1" points="405.5,864.9978,405.5495,865.0473,407.8023,867.3001,410.3456,869.8433,412.7942,872.292,414.9319,874.4296,417.5,876.9978,417.4817,876.9795,414.9995,879.2973,412.6096,881.7074,410.2839,884.1817,407.737,886.4348,405.5,888.9978,405.6305,889.1283,402.9514,886.4492,400.6534,884.1512,398.4018,881.8996,395.8798,879.3776,393.5,876.9978,393.5161,877.0139,395.8925,874.5902,398.3421,872.2399,400.7564,869.8541,403.238,867.5358,405.5,864.9978" style="stroke:#181818;stroke-width:0.5;"/><polygon fill="#F1F1F1" points="105.5,248.4105,105.5,248.6207,115.5,247.9962,125.5,248.6038,135.5,248.8102,145.5,247.6971,155.5,248.3328,165.5,247.984,175.5,248.027,185.5,248.3423,195.5,247.7191,205.5,248.9641,215.5,247.7802,225.5,248.2127,235.5,248.8424,245.5,248.3247,255.5,248.4787,265.5,248.3785,275.5,248.589,285.5,248.6496,295.5,248.9962,305.5,249.0815,315.5,249.0898,325.5,248.6651,335.5,248.8741,345.5,249.1127,355.5,247.6893,365.5,249.089,375.5,248.114,385.5,248.9443,395.5,247.9155,405.5,248.342,415.5,249.1521,425.5,248.3618,435.5,248.5158,445.5,248.7491,455.5,248.8267,465.5,248.4066,475.5,248.6977,485.5,247.8381,495.5,248.6949,505.5,248.9587,515.5,248.855,525.5,249.0235,535.5,247.9274,545.5,247.7583,555.5,247.7891,565.5,248.3516,575.5,248.214,585.5,249.0919,595.5,248.2358,605.5,248.0674,615.5,248.6388,625.5,247.7437,635.5,247.8914,645.5,249.0594,655.5,248.8462,665.5,249.145,675.5,248.0887,685.5,248.7297,695.5,249.0009,705.5,248.4105,705.376,248.3134,707.8748,251.4538,710.3331,254.5624,712.871,257.7334,715.0989,260.6616,717.5,263.7254,717.6214,263.8205,714.9547,266.6745,712.5223,269.7121,710.4321,273.0179,707.7119,275.8299,705.5,279.0403,705.5,279.5493,695.5,279.247,685.5,278.7724,675.5,278.6866,665.5,279.4991,655.5,278.741,645.5,279.6322,635.5,278.4876,625.5,279.6578,615.5,279.5246,605.5,279.2853,595.5,279.0875,585.5,279.7669,575.5,279.6539,565.5,279.2096,555.5,279.3085,545.5,278.9101,535.5,279.7568,525.5,279.1952,515.5,279.2129,505.5,278.432,495.5,278.6351,485.5,279.5711,475.5,279.4701,465.5,278.9974,455.5,278.7182,445.5,278.8214,435.5,278.3542,425.5,279.4551,415.5,279.7799,405.5,279.5667,395.5,279.7353,385.5,278.9036,375.5,279.1275,365.5,278.6527,355.5,279.3244,345.5,279.2871,335.5,279.5927,325.5,278.8107,315.5,278.9059,305.5,279.4838,295.5,279.6077,285.5,278.5278,275.5,278.8464,265.5,279.1896,255.5,278.4295,245.5,279.3937,235.5,279.2983,225.5,278.9396,215.5,279.1826,205.5,279.769,195.5,278.7275,185.5,279.3553,175.5,279.326,165.5,279.1561,155.5,279.1812,145.5,279.1538,135.5,278.4162,125.5,278.6395,115.5,278.5788,105.5,279.0403,105.5167,279.0534,103.1231,275.9955,100.7424,272.9476,98.2237,269.7916,95.8823,266.7745,93.5,263.7254,93.4685,263.7007,96.0514,260.781,98.4119,257.6871,100.5726,254.4366,103.0809,251.4585,105.5,248.4105" style="stroke:#181818;stroke-width:0.5;"/><text fill="#000000" font-family="Chalkduster" font-size="24" lengthAdjust="spacing" textLength="42" x="409.5" y="302.8812">yes</text><text fill="#000000" font-family="Chalkduster" font-size="24" lengthAdjust="spacing" textLength="600" x="105.5" y="272.2514">Has interoperable metadata &amp; discoverable</text><text fill="#000000" font-family="Chalkduster" font-size="24" lengthAdjust="spacing" textLength="35" x="717.5" y="256.9365">no</text><polygon fill="#F1F1F1" points="405.5,908.9978,405.5495,909.0473,407.8023,911.3001,410.3456,913.8433,412.7942,916.292,414.9319,918.4296,417.5,920.9978,417.4817,920.9795,414.9995,923.2973,412.6096,925.7074,410.2839,928.1817,407.737,930.4348,405.5,932.9978,405.6305,933.1283,402.9514,930.4492,400.6534,928.1512,398.4018,925.8996,395.8798,923.3776,393.5,920.9978,393.5161,921.0139,395.8925,918.5902,398.3421,916.2399,400.7564,913.8541,403.238,911.5358,405.5,908.9978" style="stroke:#181818;stroke-width:0.5;"/><polygon fill="#F1F1F1" points="82.5,184.4657,82.5,184.6759,92.4385,184.0514,102.3769,184.659,112.3154,184.8654,122.2538,183.7523,132.1923,184.388,142.1308,184.0393,152.0692,184.0822,162.0077,184.3976,171.9462,183.7744,181.8846,185.0194,191.8231,183.8355,201.7615,184.268,211.7,184.8977,221.6385,184.38,231.5769,184.534,241.5154,184.4338,251.4538,184.6443,261.3923,184.7049,271.3308,185.0514,281.2692,185.1368,291.2077,185.145,301.1462,184.7204,311.0846,184.9293,321.0231,185.168,330.9615,183.7446,340.9,185.1443,350.8385,184.1692,360.7769,184.9996,370.7154,183.9707,380.6538,184.3972,390.5923,185.2073,400.5308,184.417,410.4692,184.571,420.4077,184.8044,430.3462,184.882,440.2846,184.4618,450.2231,184.753,460.1615,183.8933,470.1,184.7501,480.0385,185.0139,489.9769,184.9103,499.9154,185.0788,509.8538,183.9827,519.7923,183.8136,529.7308,183.8443,539.6692,184.4069,549.6077,184.2692,559.5462,185.1472,569.4846,184.2911,579.4231,184.1227,589.3615,184.694,599.3,183.7989,609.2385,183.9466,619.1769,185.1147,629.1154,184.9014,639.0538,185.2002,648.9923,184.1439,658.9308,184.7849,668.8692,185.0562,678.8077,183.9933,688.7462,184.3699,698.6846,184.5917,708.6231,185.1175,718.5615,184.4616,728.5,184.4657,728.6214,184.5608,730.7547,187.4149,733.1223,190.4525,735.8321,193.7582,737.9119,196.5703,740.5,199.7807,740.6335,199.8853,738.1542,202.8861,735.6297,205.8515,733.2072,208.8969,731.0204,212.1269,728.5,215.0956,728.5,214.7962,718.5615,215.6874,708.6231,214.5428,698.6846,215.713,688.7462,215.5799,678.8077,215.3405,668.8692,215.1428,658.9308,215.8222,648.9923,215.7092,639.0538,215.2648,629.1154,215.3638,619.1769,214.9653,609.2385,215.812,599.3,215.2504,589.3615,215.2682,579.4231,214.4872,569.4846,214.6904,559.5462,215.6263,549.6077,215.5253,539.6692,215.0526,529.7308,214.7734,519.7923,214.8766,509.8538,214.4094,499.9154,215.5103,489.9769,215.8351,480.0385,215.622,470.1,215.7905,460.1615,214.9589,450.2231,215.1828,440.2846,214.708,430.3462,215.3796,420.4077,215.3423,410.4692,215.648,400.5308,214.8659,390.5923,214.9612,380.6538,215.539,370.7154,215.6629,360.7769,214.583,350.8385,214.9017,340.9,215.2448,330.9615,214.4847,321.0231,215.449,311.0846,215.3536,301.1462,214.9948,291.2077,215.2378,281.2692,215.8243,271.3308,214.7827,261.3923,215.4106,251.4538,215.3812,241.5154,215.2113,231.5769,215.2365,221.6385,215.2091,211.7,214.4714,201.7615,214.6948,191.8231,214.634,181.8846,215.1594,171.9462,215.1837,162.0077,215.2573,152.0692,214.8046,142.1308,215.0281,132.1923,214.9754,122.2538,215.6724,112.3154,215.5221,102.3769,214.61,92.4385,215.0227,82.5,215.0956,82.3485,214.9769,80.1757,212.0919,77.8597,209.0947,75.4429,206.0186,72.7857,202.7541,70.5,199.7807,70.6217,199.876,72.7051,196.565,75.3525,193.6958,77.6215,190.5302,80.1254,187.5486,82.5,184.4657" style="stroke:#181818;stroke-width:0.5;"/><text fill="#000000" font-family="Chalkduster" font-size="24" lengthAdjust="spacing" textLength="42" x="409.5" y="238.9365">yes</text><text fill="#000000" font-family="Chalkduster" font-size="24" lengthAdjust="spacing" textLength="646" x="82.5" y="208.3066">Has a persistent ID strategy &amp; Implementation</text><text fill="#000000" font-family="Chalkduster" font-size="24" lengthAdjust="spacing" textLength="35" x="740.5" y="192.9917">no</text><polygon fill="#F1F1F1" points="405.5,952.9978,405.5495,953.0473,407.8023,955.3001,410.3456,957.8433,412.7942,960.292,414.9319,962.4296,417.5,964.9978,417.4817,964.9795,414.9995,967.2973,412.6096,969.7074,410.2839,972.1817,407.737,974.4348,405.5,976.9978,405.6305,977.1283,402.9514,974.4492,400.6534,972.1512,398.4018,969.8996,395.8798,967.3776,393.5,964.9978,393.5161,965.0139,395.8925,962.5902,398.3421,960.2399,400.7564,957.8541,403.238,955.5358,405.5,952.9978" style="stroke:#181818;stroke-width:0.5;"/><polygon fill="#F1F1F1" points="179,996.9978,179,997.208,189.0667,996.5835,199.1333,997.1911,209.2,997.3975,219.2667,996.2844,229.3333,996.9201,239.4,996.5713,249.4667,996.6143,259.5333,996.9296,269.6,996.3064,279.6667,997.5514,289.7333,996.3675,299.8,996.8,309.8667,997.4297,319.9333,996.912,330,997.066,340.0667,996.9658,350.1333,997.1763,360.2,997.2369,370.2667,997.5835,380.3333,997.6688,390.4,997.677,400.4667,997.2524,410.5333,997.4614,420.6,997.7,430.6667,996.2766,440.7333,997.6763,450.8,996.7013,460.8667,997.5316,470.9333,996.5028,481,996.9293,491.0667,997.7394,501.1333,996.949,511.2,997.1031,521.2667,997.3364,531.3333,997.414,541.4,996.9939,551.4667,997.285,561.5333,996.4254,571.6,997.2822,581.6667,997.546,591.7333,997.4423,601.8,997.6108,611.8667,996.5147,621.9333,996.3456,632,996.9978,631.9207,996.8064,633.7603,997.7119,635.5105,998.4017,637.3902,999.4043,639.0488,999.8729,640.8388,1000.6589,640.7332,1000.6152,641.6414,1002.4558,642.0979,1004.1094,642.8757,1005.896,643.9676,1007.8128,644.5,1009.4978,644.6452,1009.4978,644.7448,1014.6237,644.3927,1019.7497,644.6064,1024.8757,644.6968,1030.0016,644.5,1035.1276,644.3545,1035.0673,643.7382,1036.8831,643.0743,1038.6792,642.504,1040.514,641.5698,1042.1981,640.8388,1043.9664,640.8978,1044.1089,639.0004,1044.5281,637.2169,1045.2223,635.5998,1046.3182,633.6763,1046.6746,632,1047.6276,632,1048.1366,621.9333,1047.8342,611.8667,1047.3597,601.8,1047.2738,591.7333,1048.0864,581.6667,1047.3283,571.6,1048.2195,561.5333,1047.0749,551.4667,1048.245,541.4,1048.1119,531.3333,1047.8726,521.2667,1047.6748,511.2,1048.3542,501.1333,1048.2412,491.0667,1047.7969,481,1047.8958,470.9333,1047.4973,460.8667,1048.3441,450.8,1047.7825,440.7333,1047.8002,430.6667,1047.0193,420.6,1047.2224,410.5333,1048.1584,400.4667,1048.0574,390.4,1047.5847,380.3333,1047.3054,370.2667,1047.4087,360.2,1046.9414,350.1333,1048.0423,340.0667,1048.3672,330,1048.154,319.9333,1048.3225,309.8667,1047.4909,299.8,1047.7148,289.7333,1047.24,279.6667,1047.9116,269.6,1047.8744,259.5333,1048.18,249.4667,1047.398,239.4,1047.4932,229.3333,1048.0711,219.2667,1048.1949,209.2,1047.1151,199.1333,1047.4337,189.0667,1047.7769,179,1047.6276,178.9221,1047.4395,177.2773,1047.0042,175.4974,1046.2426,173.6838,1045.3999,171.9471,1044.7425,170.1612,1043.9664,170.3856,1044.0594,169.3326,1042.1588,168.7937,1040.4711,168.0524,1038.6996,167.2679,1036.9101,166.5,1035.1276,166.547,1035.1276,166.5378,1030.0016,166.2919,1024.8757,166.3664,1019.7497,166.3462,1014.6237,166.5,1009.4978,166.5197,1009.5059,167.2594,1007.7413,168.0143,1005.9829,168.6071,1004.1574,169.4081,1002.4181,170.1612,1000.6589,170.1458,1000.6219,172.0025,1000.1044,173.7511,999.3258,175.4025,998.3127,177.2229,997.7076,179,996.9978" style="stroke:#181818;stroke-width:0.5;"/><text fill="#000000" font-family="Chalkduster" font-size="24" lengthAdjust="spacing" textLength="446" x="188.5" y="1030.8387">&#10062; It's not really a repository &#10062;</text><polygon fill="#F1F1F1" points="37.5,89.8912,37.5,90.1013,47.4459,89.4768,57.3919,90.0844,67.3378,90.2908,77.2838,89.1778,87.2297,89.8134,97.1757,89.4647,107.1216,89.5077,117.0676,89.823,127.0135,89.1998,136.9595,90.4448,146.9054,89.2609,156.8514,89.6934,166.7973,90.3231,176.7432,89.8054,186.6892,89.9594,196.6351,89.8592,206.5811,90.0697,216.527,90.1303,226.473,90.4769,236.4189,90.5622,246.3649,90.5704,256.3108,90.1458,266.2568,90.3547,276.2027,90.5934,286.1486,89.17,296.0946,90.5697,306.0405,89.5947,315.9865,90.425,325.9324,89.3961,335.8784,89.8227,345.8243,90.6328,355.7703,89.8424,365.7162,89.9965,375.6622,90.2298,385.6081,90.3074,395.5541,89.8873,405.5,90.1784,415.4459,89.3187,425.3919,90.1755,435.3378,90.4394,445.2838,90.3357,455.2297,90.5042,465.1757,89.4081,475.1216,89.239,485.0676,89.2698,495.0135,89.8323,504.9595,89.6946,514.9054,90.5726,524.8514,89.7165,534.7973,89.5481,544.7432,90.1194,554.6892,89.2243,564.6351,89.372,574.5811,90.5401,584.527,90.3268,594.473,90.6257,604.4189,89.5694,614.3649,90.2104,624.3108,90.4816,634.2568,89.4188,644.2027,89.7953,654.1486,90.0171,664.0946,90.5429,674.0405,89.887,683.9865,90.3537,693.9324,89.3374,703.8784,89.2139,713.8243,90.3948,723.7703,89.1742,733.7162,90.4001,743.6622,90.0978,753.6081,89.6232,763.5541,89.5374,773.5,89.8912,773.6424,89.9469,775.8071,95.9807,778.4837,102.2151,780.5284,108.2019,783.2916,114.4701,785.5,120.521,785.6503,120.5799,783.176,126.6767,780.7147,132.7787,778.5255,138.9872,776.0904,145.0995,773.5,151.1508,773.5,151.3201,763.5541,151.419,753.6081,151.0206,743.6622,151.8673,733.7162,151.3057,723.7703,151.3234,713.8243,150.5425,703.8784,150.7456,693.9324,151.6816,683.9865,151.5806,674.0405,151.1079,664.0946,150.8287,654.1486,150.9319,644.2027,150.4647,634.2568,151.5656,624.3108,151.8904,614.3649,151.6772,604.4189,151.8458,594.473,151.0141,584.527,151.238,574.5811,150.7632,564.6351,151.4349,554.6892,151.3976,544.7432,151.7032,534.7973,150.9212,524.8514,151.0164,514.9054,151.5943,504.9595,151.7182,495.0135,150.6383,485.0676,150.9569,475.1216,151.3001,465.1757,150.54,455.2297,151.5042,445.2838,151.4088,435.3378,151.0501,425.3919,151.2931,415.4459,151.8795,405.5,150.838,395.5541,151.4658,385.6081,151.4365,375.6622,151.2666,365.7162,151.2917,355.7703,151.2643,345.8243,150.5267,335.8784,150.75,325.9324,150.6893,315.9865,151.2147,306.0405,151.239,296.0946,151.3126,286.1486,150.8599,276.2027,151.0833,266.2568,151.0306,256.3108,151.7277,246.3649,151.5774,236.4189,150.6653,226.473,151.0779,216.527,150.5736,206.5811,151.4392,196.6351,151.7593,186.6892,151.6954,176.7432,150.7153,166.7973,151.6148,156.8514,150.408,146.9054,151.351,136.9595,150.8515,127.0135,151.2475,117.0676,151.3912,107.1216,151.6229,97.1757,150.4309,87.2297,151.6263,77.2838,151.329,67.3378,151.5062,57.3919,151.8986,47.4459,151.1563,37.5,151.1508,37.5544,151.1721,35.1662,145.0508,32.7612,138.9229,30.2997,132.7728,28.1206,126.7334,25.5,120.521,25.3108,120.4469,28.0754,114.4638,30.1063,108.1932,32.5323,102.0774,35.1124,96.022,37.5,89.8912" style="stroke:#181818;stroke-width:0.5;"/><text fill="#000000" font-family="Chalkduster" font-size="24" lengthAdjust="spacing" textLength="48" x="409.5" y="174.9917">Yes</text><text fill="#000000" font-family="Chalkduster" font-size="24" lengthAdjust="spacing" textLength="736" x="37.5" y="113.732">Has governance to persist data for the required time</text><text fill="#000000" font-family="Chalkduster" font-size="24" lengthAdjust="spacing" textLength="279" x="37.5" y="144.3619">(Forever or shorter)</text><polygon fill="#F1F1F1" points="405.5,1067.6276,405.5495,1067.6771,407.8023,1069.93,410.3456,1072.4732,412.7942,1074.9218,414.9319,1077.0595,417.5,1079.6276,417.4817,1079.6093,414.9995,1081.9271,412.6096,1084.3372,410.2839,1086.8115,407.737,1089.0647,405.5,1091.6276,405.6305,1091.7581,402.9514,1089.0791,400.6534,1086.781,398.4018,1084.5294,395.8798,1082.0074,393.5,1079.6276,393.5161,1079.6437,395.8925,1077.2201,398.3421,1074.8697,400.7564,1072.484,403.238,1070.1657,405.5,1067.6276" style="stroke:#181818;stroke-width:0.5;"/><path d="M405.5,636.053 L405.5934,636.053 L405.3159,642.0105 L405.5859,647.9679 L405.6776,653.9254 L405.1829,659.8829 L405.5,665.8403 " fill="#8B0000" style="stroke:#8B0000;stroke-width:4.0;"/><polygon fill="#8B0000" points="401.5,655.8403,401.565,655.8663,402.1718,657.789,403.1598,659.8642,404.0237,661.8898,404.4792,663.752,405.5,665.8403,405.4759,665.8307,406.168,663.7875,406.9813,661.7928,407.8789,659.8319,408.486,657.7547,409.5,655.8403,409.6305,655.9708,408.5514,656.4918,407.8534,657.3937,407.2018,658.3421,406.2798,659.0201,405.5,659.8403,405.5161,659.8564,404.6925,659.0328,403.9421,658.2824,403.1564,657.4967,402.438,656.7784,401.5,655.8403" style="stroke:#8B0000;stroke-width:1.0;"/><path d="M405.5,552.1083 L405.5934,552.1083 L405.3159,558.7713 L405.5859,565.4342 L405.6776,572.0972 L405.1829,578.7602 L405.5,585.4232 " fill="#8B0000" style="stroke:#8B0000;stroke-width:4.0;"/><polygon fill="#8B0000" points="401.5,575.4232,401.565,575.4492,402.1718,577.3719,403.1598,579.4471,404.0237,581.4727,404.4792,583.3349,405.5,585.4232,405.4759,585.4136,406.168,583.3704,406.9813,581.3757,407.8789,579.4148,408.486,577.3376,409.5,575.4232,409.6305,575.5537,408.5514,576.0746,407.8534,576.9766,407.2018,577.925,406.2798,578.603,405.5,579.4232,405.5161,579.4393,404.6925,578.6157,403.9421,577.8653,403.1564,577.0796,402.438,576.3612,401.5,575.4232" style="stroke:#8B0000;stroke-width:1.0;"/><path d="M650.5,536.7934 L650.5,536.8868 L652.9,536.6092 L655.3,536.8793 L657.7,536.971 L660.1,536.4763 L662.5,536.7934 " fill="#8B0000" style="stroke:#8B0000;stroke-width:4.0;"/><polygon fill="#8B0000" points="658.5,624.5807,658.565,624.6067,659.1718,626.5294,660.1598,628.6046,661.0237,630.6301,661.4792,632.4923,662.5,634.5807,662.4759,634.571,663.168,632.5279,663.9813,630.5332,664.8789,628.5722,665.486,626.4951,666.5,624.5807,666.6305,624.7111,665.5514,625.2321,664.8534,626.134,664.2018,627.0825,663.2798,627.7604,662.5,628.5807,662.5161,628.5967,661.6925,627.7731,660.9421,627.0227,660.1564,626.237,659.438,625.5187,658.5,624.5807" style="stroke:#8B0000;stroke-width:4.0;"/><path d="M662.5,536.7934 L662.7802,536.7934 L661.9476,547.0036 L662.7577,557.2139 L663.0329,567.4242 L661.5488,577.6344 L662.3964,587.8447 L661.9313,598.055 L661.9887,608.2652 L662.4091,618.4755 L661.5782,628.6858 L663.2382,638.8961 L661.6596,649.1063 L662.2363,659.3166 L663.0759,669.5269 L662.3856,679.7371 L662.591,689.9474 L662.4574,700.1577 L662.5,710.3679 " fill="#8B0000" style="stroke:#8B0000;stroke-width:4.0;"/><path d="M662.5,710.3679 L662.5,710.6482 L652.6154,709.8155 L642.7308,710.6257 L632.8462,710.9008 L622.9615,709.4167 L613.0769,710.2643 L603.1923,709.7993 L593.3077,709.8566 L583.4231,710.2771 L573.5385,709.4461 L563.6538,711.1061 L553.7692,709.5276 L543.8846,710.1043 L534,710.9439 L524.1154,710.2536 L514.2308,710.4589 L504.3462,710.3253 L494.4615,710.606 L484.5769,710.6868 L474.6923,711.1489 L464.8077,711.2627 L454.9231,711.2736 L445.0385,710.7074 L435.1538,710.9861 L425.2692,711.3043 L415.3846,709.4064 L405.5,710.3679 " fill="#8B0000" style="stroke:#8B0000;stroke-width:4.0;"/><path d="M405.5,710.3679 L405.5934,710.3679 L405.3159,714.3679 L405.5859,718.3679 L405.6776,722.3679 L405.1829,726.3679 L405.5,730.3679 " fill="#8B0000" style="stroke:#8B0000;stroke-width:4.0;"/><polygon fill="#8B0000" points="401.5,720.3679,401.565,720.394,402.1718,722.3167,403.1598,724.3919,404.0237,726.4174,404.4792,728.2796,405.5,730.3679,405.4759,730.3583,406.168,728.3151,406.9813,726.3205,407.8789,724.3595,408.486,722.2824,409.5,720.3679,409.6305,720.4984,408.5514,721.0194,407.8534,721.9213,407.2018,722.8698,406.2798,723.5477,405.5,724.3679,405.5161,724.384,404.6925,723.5604,403.9421,722.81,403.1564,722.0243,402.438,721.306,401.5,720.3679" style="stroke:#8B0000;stroke-width:1.0;"/><path d="M405.5,780.9978 L405.5934,780.9978 L405.3159,784.9978 L405.5859,788.9978 L405.6776,792.9978 L405.1829,796.9978 L405.5,800.9978 " fill="#8B0000" style="stroke:#8B0000;stroke-width:4.0;"/><polygon fill="#8B0000" points="401.5,790.9978,401.565,791.0238,402.1718,792.9465,403.1598,795.0217,404.0237,797.0473,404.4792,798.9095,405.5,800.9978,405.4759,800.9882,406.168,798.945,406.9813,796.9503,407.8789,794.9893,408.486,792.9122,409.5,790.9978,409.6305,791.1283,408.5514,791.6492,407.8534,792.5512,407.2018,793.4996,406.2798,794.1776,405.5,794.9978,405.5161,795.0139,404.6925,794.1902,403.9421,793.4399,403.1564,792.6541,402.438,791.9358,401.5,790.9978" style="stroke:#8B0000;stroke-width:1.0;"/><path d="M405.5,488.1635 L405.5934,488.1635 L405.3159,494.8265 L405.5859,501.4895 L405.6776,508.1525 L405.1829,514.8155 L405.5,521.4784 " fill="#8B0000" style="stroke:#8B0000;stroke-width:4.0;"/><polygon fill="#8B0000" points="401.5,511.4784,401.565,511.5045,402.1718,513.4272,403.1598,515.5024,404.0237,517.5279,404.4792,519.3901,405.5,521.4784,405.4759,521.4688,406.168,519.4256,406.9813,517.431,407.8789,515.47,408.486,513.3929,409.5,511.4784,409.6305,511.6089,408.5514,512.1299,407.8534,513.0318,407.2018,513.9803,406.2798,514.6582,405.5,515.4784,405.5161,515.4945,404.6925,514.6709,403.9421,513.9205,403.1564,513.1348,402.438,512.4165,401.5,511.4784" style="stroke:#8B0000;stroke-width:1.0;"/><path d="M630,472.8486 L630,472.942 L638.5,472.6645 L647,472.9345 L655.5,473.0262 L664,472.5315 L672.5,472.8486 " fill="#8B0000" style="stroke:#8B0000;stroke-width:4.0;"/><polygon fill="#8B0000" points="668.5,678.3679,668.565,678.394,669.1718,680.3167,670.1598,682.3919,671.0237,684.4174,671.4792,686.2796,672.5,688.3679,672.4759,688.3583,673.168,686.3151,673.9813,684.3205,674.8789,682.3595,675.486,680.2824,676.5,678.3679,676.6305,678.4984,675.5514,679.0194,674.8534,679.9213,674.2018,680.8698,673.2798,681.5477,672.5,682.3679,672.5161,682.384,671.6925,681.5604,670.9421,680.81,670.1564,680.0243,669.438,679.306,668.5,678.3679" style="stroke:#8B0000;stroke-width:4.0;"/><path d="M672.5,472.8486 L672.7802,472.8486 L671.9476,482.9067 L672.7577,492.9648 L673.0329,503.0229 L671.5488,513.081 L672.3964,523.139 L671.9313,533.1971 L671.9887,543.2552 L672.4091,553.3133 L671.5782,563.3714 L673.2382,573.4295 L671.6596,583.4876 L672.2363,593.5456 L673.0759,603.6037 L672.3856,613.6618 L672.591,623.7199 L672.4574,633.778 L672.738,643.8361 L672.8188,653.8942 L673.2809,663.9522 L673.3947,674.0103 L673.4057,684.0684 L672.8395,694.1265 L673.1181,704.1846 L673.4363,714.2427 L671.5384,724.3007 L673.4047,734.3588 L672.1047,744.4169 L673.2117,754.475 L671.84,764.5331 L672.4087,774.5912 L673.4888,784.6493 L672.435,794.7073 L672.6404,804.7654 L672.9515,814.8235 L673.055,824.8816 L672.4948,834.9397 L672.5,844.9978 " fill="#8B0000" style="stroke:#8B0000;stroke-width:4.0;"/><path d="M672.5,844.9978 L672.5,845.278 L662.6111,844.4453 L652.7222,845.2555 L642.8333,845.5307 L632.9444,844.0466 L623.0556,844.8942 L613.1667,844.4291 L603.2778,844.4864 L593.3889,844.9069 L583.5,844.076 L573.6111,845.736 L563.7222,844.1574 L553.8333,844.7341 L543.9444,845.5737 L534.0556,844.8834 L524.1667,845.0888 L514.2778,844.9552 L504.3889,845.2358 L494.5,845.3166 L484.6111,845.7787 L474.7222,845.8925 L464.8333,845.9035 L454.9444,845.3373 L445.0556,845.6159 L435.1667,845.9341 L425.2778,844.0362 L415.3889,845.9025 L405.5,844.9978 " fill="#8B0000" style="stroke:#8B0000;stroke-width:4.0;"/><path d="M405.5,844.9978 L405.5934,844.9978 L405.3159,848.9978 L405.5859,852.9978 L405.6776,856.9978 L405.1829,860.9978 L405.5,864.9978 " fill="#8B0000" style="stroke:#8B0000;stroke-width:4.0;"/><polygon fill="#8B0000" points="401.5,854.9978,401.565,855.0238,402.1718,856.9465,403.1598,859.0217,404.0237,861.0473,404.4792,862.9095,405.5,864.9978,405.4759,864.9882,406.168,862.945,406.9813,860.9503,407.8789,858.9893,408.486,856.9122,409.5,854.9978,409.6305,855.1283,408.5514,855.6492,407.8534,856.5512,407.2018,857.4996,406.2798,858.1776,405.5,858.9978,405.5161,859.0139,404.6925,858.1902,403.9421,857.4399,403.1564,856.6541,402.438,855.9358,401.5,854.9978" style="stroke:#8B0000;stroke-width:1.0;"/><path d="M405.5,426.9298 L405.5934,426.9298 L405.3159,433.0506 L405.5859,439.1714 L405.6776,445.2921 L405.1829,451.4129 L405.5,457.5337 " fill="#8B0000" style="stroke:#8B0000;stroke-width:4.0;"/><polygon fill="#8B0000" points="401.5,447.5337,401.565,447.5597,402.1718,449.4824,403.1598,451.5576,404.0237,453.5832,404.4792,455.4454,405.5,457.5337,405.4759,457.5241,406.168,455.4809,406.9813,453.4862,407.8789,451.5253,408.486,449.4481,409.5,447.5337,409.6305,447.6642,408.5514,448.1851,407.8534,449.0871,407.2018,450.0355,406.2798,450.7135,405.5,451.5337,405.5161,451.5498,404.6925,450.7262,403.9421,449.9758,403.1564,449.1901,402.438,448.4717,401.5,447.5337" style="stroke:#8B0000;stroke-width:1.0;"/><path d="M405.5,342.9851 L405.5934,342.9851 L405.3159,349.6481 L405.5859,356.311 L405.6776,362.974 L405.1829,369.637 L405.5,376.3 " fill="#8B0000" style="stroke:#8B0000;stroke-width:4.0;"/><polygon fill="#8B0000" points="401.5,366.3,401.565,366.326,402.1718,368.2487,403.1598,370.3239,404.0237,372.3495,404.4792,374.2117,405.5,376.3,405.4759,376.2904,406.168,374.2472,406.9813,372.2525,407.8789,370.2916,408.486,368.2144,409.5,366.3,409.6305,366.4305,408.5514,366.9514,407.8534,367.8534,407.2018,368.8018,406.2798,369.4798,405.5,370.3,405.5161,370.3161,404.6925,369.4925,403.9421,368.7421,403.1564,367.9564,402.438,367.238,401.5,366.3" style="stroke:#8B0000;stroke-width:1.0;"/><path d="M592.5,327.6702 L592.5,327.9504 L602.7,327.1177 L612.9,327.9279 L623.1,328.2031 L633.3,326.719 L643.5,327.5665 L653.7,327.1015 L663.9,327.1588 L674.1,327.5793 L684.3,326.7483 L694.5,327.6702 " fill="#8B0000" style="stroke:#8B0000;stroke-width:4.0;"/><polygon fill="#8B0000" points="690.5,631.4508,690.565,631.4768,691.1718,633.3995,692.1598,635.4747,693.0237,637.5003,693.4792,639.3625,694.5,641.4508,694.4759,641.4412,695.168,639.398,695.9813,637.4033,696.8789,635.4424,697.486,633.3652,698.5,631.4508,698.6305,631.5813,697.5514,632.1023,696.8534,633.0042,696.2018,633.9526,695.2798,634.6306,694.5,635.4508,694.5161,635.4669,693.6925,634.6433,692.9421,633.8929,692.1564,633.1072,691.438,632.3889,690.5,631.4508" style="stroke:#8B0000;stroke-width:4.0;"/><path d="M694.5,327.6702 L694.7802,327.6702 L693.9476,337.6579 L694.7577,347.6457 L695.0329,357.6335 L693.5488,367.6213 L694.3964,377.609 L693.9313,387.5968 L693.9887,397.5846 L694.4091,407.5724 L693.5782,417.5601 L695.2382,427.5479 L693.6596,437.5357 L694.2363,447.5235 L695.0759,457.5112 L694.3856,467.499 L694.591,477.4868 L694.4574,487.4746 L694.738,497.4623 L694.8188,507.4501 L695.2809,517.4379 L695.3947,527.4257 L695.4057,537.4134 L694.8395,547.4012 L695.1181,557.389 L695.4363,567.3768 L693.5384,577.3645 L695.4047,587.3523 L694.1047,597.3401 L695.2117,607.3279 L693.84,617.3156 L694.4087,627.3034 L695.4888,637.2912 L694.435,647.279 L694.6404,657.2667 L694.9515,667.2545 L695.055,677.2423 L694.4948,687.2301 L694.883,697.2178 L693.7368,707.2056 L694.8792,717.1934 L695.2309,727.1812 L695.0927,737.1689 L695.3174,747.1567 L693.8559,757.1445 L693.6304,767.1323 L693.6715,777.12 L694.4215,787.1078 L694.238,797.0956 L695.4085,807.0834 L694.2671,817.0711 L694.0426,827.0589 L694.8044,837.0467 L693.6109,847.0345 L693.8078,857.0222 L695.3653,867.01 L694.5,876.9978 " fill="#8B0000" style="stroke:#8B0000;stroke-width:4.0;"/><path d="M694.5,876.9978 L694.5,877.278 L684.6071,876.4453 L674.7143,877.2555 L664.8214,877.5307 L654.9286,876.0466 L645.0357,876.8942 L635.1429,876.4291 L625.25,876.4864 L615.3571,876.9069 L605.4643,876.076 L595.5714,877.736 L585.6786,876.1574 L575.7857,876.7341 L565.8929,877.5737 L556,876.8834 L546.1071,877.0888 L536.2143,876.9552 L526.3214,877.2358 L516.4286,877.3166 L506.5357,877.7787 L496.6429,877.8925 L486.75,877.9035 L476.8571,877.3373 L466.9643,877.6159 L457.0714,877.9341 L447.1786,876.0362 L437.2857,877.9025 L427.3929,876.6024 L417.5,876.9978 " fill="#8B0000" style="stroke:#8B0000;stroke-width:4.0;"/><polygon fill="#8B0000" points="427.5,872.9978,427.526,873.0628,425.4487,873.6695,423.5239,874.6576,421.5495,875.5215,419.4117,875.977,417.5,876.9978,417.4904,876.9737,419.4472,877.6658,421.4525,878.4791,423.4916,879.3767,425.4144,879.9838,427.5,880.9978,427.6305,881.1283,426.5514,880.0492,425.8534,879.3512,425.2018,878.6996,424.2798,877.7776,423.5,876.9978,423.5161,877.0139,424.2925,876.1902,425.1421,875.4399,425.9564,874.6541,426.838,873.9358,427.5,872.9978" style="stroke:#8B0000;stroke-width:1.0;"/><path d="M405.5,279.0403 L405.5934,279.0403 L405.3159,285.7033 L405.5859,292.3663 L405.6776,299.0293 L405.1829,305.6923 L405.5,312.3552 " fill="#8B0000" style="stroke:#8B0000;stroke-width:4.0;"/><polygon fill="#8B0000" points="401.5,302.3552,401.565,302.3813,402.1718,304.304,403.1598,306.3792,404.0237,308.4047,404.4792,310.2669,405.5,312.3552,405.4759,312.3456,406.168,310.3024,406.9813,308.3078,407.8789,306.3468,408.486,304.2697,409.5,302.3552,409.6305,302.4857,408.5514,303.0067,407.8534,303.9086,407.2018,304.8571,406.2798,305.535,405.5,306.3552,405.5161,306.3713,404.6925,305.5477,403.9421,304.7973,403.1564,304.0116,402.438,303.2933,401.5,302.3552" style="stroke:#8B0000;stroke-width:1.0;"/><path d="M717.5,263.7254 L717.5,263.8188 L719.9,263.5413 L722.3,263.8113 L724.7,263.903 L727.1,263.4083 L729.5,263.7254 " fill="#8B0000" style="stroke:#8B0000;stroke-width:4.0;"/><polygon fill="#8B0000" points="725.5,628.1359,725.565,628.1619,726.1718,630.0846,727.1598,632.1598,728.0237,634.1854,728.4792,636.0476,729.5,638.1359,729.4759,638.1263,730.168,636.0831,730.9813,634.0884,731.8789,632.1275,732.486,630.0503,733.5,628.1359,733.6305,628.2664,732.5514,628.7873,731.8534,629.6893,731.2018,630.6377,730.2798,631.3157,729.5,632.1359,729.5161,632.152,728.6925,631.3284,727.9421,630.578,727.1564,629.7923,726.438,629.0739,725.5,628.1359" style="stroke:#8B0000;stroke-width:4.0;"/><path d="M729.5,263.7254 L729.7802,263.7254 L728.9476,273.6841 L729.7577,283.6428 L730.0329,293.6014 L728.5488,303.5601 L729.3964,313.5188 L728.9313,323.4774 L728.9887,333.4361 L729.4091,343.3948 L728.5782,353.3535 L730.2382,363.3121 L728.6596,373.2708 L729.2363,383.2295 L730.0759,393.1881 L729.3856,403.1468 L729.591,413.1055 L729.4574,423.0642 L729.738,433.0228 L729.8188,442.9815 L730.2809,452.9402 L730.3947,462.8989 L730.4057,472.8575 L729.8395,482.8162 L730.1181,492.7749 L730.4363,502.7335 L728.5384,512.6922 L730.4047,522.6509 L729.1047,532.6096 L730.2117,542.5682 L728.84,552.5269 L729.4087,562.4856 L730.4888,572.4442 L729.435,582.4029 L729.6404,592.3616 L729.9515,602.3203 L730.055,612.2789 L729.4948,622.2376 L729.883,632.1963 L728.7368,642.155 L729.8792,652.1136 L730.2309,662.0723 L730.0927,672.031 L730.3174,681.9896 L728.8559,691.9483 L728.6304,701.907 L728.6715,711.8657 L729.4215,721.8243 L729.238,731.783 L730.4085,741.7417 L729.2671,751.7003 L729.0426,761.659 L729.8044,771.6177 L728.6109,781.5764 L728.8078,791.535 L730.3653,801.4937 L730.0809,811.4524 L730.4793,821.4111 L729.0709,831.3697 L729.9256,841.3284 L730.2872,851.2871 L728.8701,861.2457 L729.3722,871.2044 L729.668,881.1631 L730.369,891.1218 L729.4944,901.0804 L730.1168,911.0391 L729.5,920.9978 " fill="#8B0000" style="stroke:#8B0000;stroke-width:4.0;"/><path d="M729.5,920.9978 L729.5,921.278 L719.4355,920.4453 L709.371,921.2555 L699.3065,921.5307 L689.2419,920.0466 L679.1774,920.8942 L669.1129,920.4291 L659.0484,920.4864 L648.9839,920.9069 L638.9194,920.076 L628.8548,921.736 L618.7903,920.1574 L608.7258,920.7341 L598.6613,921.5737 L588.5968,920.8834 L578.5323,921.0888 L568.4677,920.9552 L558.4032,921.2358 L548.3387,921.3166 L538.2742,921.7787 L528.2097,921.8925 L518.1452,921.9035 L508.0806,921.3373 L498.0161,921.6159 L487.9516,921.9341 L477.8871,920.0362 L467.8226,921.9025 L457.7581,920.6024 L447.6935,921.7095 L437.629,920.3377 L427.5645,920.9064 L417.5,920.9978 " fill="#8B0000" style="stroke:#8B0000;stroke-width:4.0;"/><polygon fill="#8B0000" points="427.5,916.9978,427.526,917.0628,425.4487,917.6695,423.5239,918.6576,421.5495,919.5215,419.4117,919.977,417.5,920.9978,417.4904,920.9737,419.4472,921.6658,421.4525,922.4791,423.4916,923.3767,425.4144,923.9838,427.5,924.9978,427.6305,925.1283,426.5514,924.0492,425.8534,923.3512,425.2018,922.6996,424.2798,921.7776,423.5,920.9978,423.5161,921.0139,424.2925,920.1902,425.1421,919.4399,425.9564,918.6541,426.838,917.9358,427.5,916.9978" style="stroke:#8B0000;stroke-width:1.0;"/><path d="M405.5,888.9978 L405.5934,888.9978 L405.3159,892.9978 L405.5859,896.9978 L405.6776,900.9978 L405.1829,904.9978 L405.5,908.9978 " fill="#8B0000" style="stroke:#8B0000;stroke-width:4.0;"/><polygon fill="#8B0000" points="401.5,898.9978,401.565,899.0238,402.1718,900.9465,403.1598,903.0217,404.0237,905.0473,404.4792,906.9095,405.5,908.9978,405.4759,908.9882,406.168,906.945,406.9813,904.9503,407.8789,902.9893,408.486,900.9122,409.5,898.9978,409.6305,899.1283,408.5514,899.6492,407.8534,900.5512,407.2018,901.4996,406.2798,902.1776,405.5,902.9978,405.5161,903.0139,404.6925,902.1902,403.9421,901.4399,403.1564,900.6541,402.438,899.9358,401.5,898.9978" style="stroke:#8B0000;stroke-width:1.0;"/><path d="M405.5,215.0956 L405.5934,215.0956 L405.3159,221.7586 L405.5859,228.4215 L405.6776,235.0845 L405.1829,241.7475 L405.5,248.4105 " fill="#8B0000" style="stroke:#8B0000;stroke-width:4.0;"/><polygon fill="#8B0000" points="401.5,238.4105,401.565,238.4365,402.1718,240.3592,403.1598,242.4344,404.0237,244.46,404.4792,246.3222,405.5,248.4105,405.4759,248.4009,406.168,246.3577,406.9813,244.363,407.8789,242.4021,408.486,240.3249,409.5,238.4105,409.6305,238.541,408.5514,239.0619,407.8534,239.9639,407.2018,240.9123,406.2798,241.5903,405.5,242.4105,405.5161,242.4266,404.6925,241.603,403.9421,240.8526,403.1564,240.0669,402.438,239.3485,401.5,238.4105" style="stroke:#8B0000;stroke-width:1.0;"/><path d="M740.5,199.7807 L740.5,199.8741 L742.9,199.5965 L745.3,199.8666 L747.7,199.9583 L750.1,199.4636 L752.5,199.7807 " fill="#8B0000" style="stroke:#8B0000;stroke-width:4.0;"/><polygon fill="#8B0000" points="748.5,624.821,748.565,624.847,749.1718,626.7697,750.1598,628.8449,751.0237,630.8705,751.4792,632.7327,752.5,634.821,752.4759,634.8114,753.168,632.7682,753.9813,630.7735,754.8789,628.8125,755.486,626.7354,756.5,624.821,756.6305,624.9515,755.5514,625.4724,754.8534,626.3744,754.2018,627.3228,753.2798,628.0008,752.5,628.821,752.5161,628.8371,751.6925,628.0135,750.9421,627.2631,750.1564,626.4773,749.438,625.759,748.5,624.821" style="stroke:#8B0000;stroke-width:4.0;"/><path d="M752.5,199.7807 L752.7802,199.7807 L751.9476,209.7185 L752.7577,219.6564 L753.0329,229.5943 L751.5488,239.5322 L752.3964,249.4701 L751.9313,259.408 L751.9887,269.3459 L752.4091,279.2837 L751.5782,289.2216 L753.2382,299.1595 L751.6596,309.0974 L752.2363,319.0353 L753.0759,328.9732 L752.3856,338.911 L752.591,348.8489 L752.4574,358.7868 L752.738,368.7247 L752.8188,378.6626 L753.2809,388.6005 L753.3947,398.5384 L753.4057,408.4762 L752.8395,418.4141 L753.1181,428.352 L753.4363,438.2899 L751.5384,448.2278 L753.4047,458.1657 L752.1047,468.1035 L753.2117,478.0414 L751.84,487.9793 L752.4087,497.9172 L753.4888,507.8551 L752.435,517.793 L752.6404,527.7309 L752.9515,537.6687 L753.055,547.6066 L752.4948,557.5445 L752.883,567.4824 L751.7368,577.4203 L752.8792,587.3582 L753.2309,597.296 L753.0927,607.2339 L753.3174,617.1718 L751.8559,627.1097 L751.6304,637.0476 L751.6715,646.9855 L752.4215,656.9234 L752.238,666.8612 L753.4085,676.7991 L752.2671,686.737 L752.0426,696.6749 L752.8044,706.6128 L751.6109,716.5507 L751.8078,726.4885 L753.3653,736.4264 L753.0809,746.3643 L753.4793,756.3022 L752.0709,766.2401 L752.9256,776.178 L753.2872,786.1159 L751.8701,796.0537 L752.3722,805.9916 L752.668,815.9295 L753.369,825.8674 L752.4944,835.8053 L753.1168,845.7432 L751.7616,855.681 L751.597,865.6189 L753.1715,875.5568 L751.5441,885.4947 L753.1786,895.4326 L752.7755,905.3705 L752.1428,915.3084 L752.0283,925.2462 L753.1117,935.1841 L752.1009,945.122 L753.2891,955.0599 L752.5,964.9978 " fill="#8B0000" style="stroke:#8B0000;stroke-width:4.0;"/><path d="M752.5,964.9978 L752.5,965.278 L742.6471,964.4453 L732.7941,965.2555 L722.9412,965.5307 L713.0882,964.0466 L703.2353,964.8942 L693.3824,964.4291 L683.5294,964.4864 L673.6765,964.9069 L663.8235,964.076 L653.9706,965.736 L644.1176,964.1574 L634.2647,964.7341 L624.4118,965.5737 L614.5588,964.8834 L604.7059,965.0888 L594.8529,964.9552 L585,965.2358 L575.1471,965.3166 L565.2941,965.7787 L555.4412,965.8925 L545.5882,965.9035 L535.7353,965.3373 L525.8824,965.6159 L516.0294,965.9341 L506.1765,964.0362 L496.3235,965.9025 L486.4706,964.6024 L476.6176,965.7095 L466.7647,964.3377 L456.9118,964.9064 L447.0588,965.9866 L437.2059,964.9328 L427.3529,965.1382 L417.5,964.9978 " fill="#8B0000" style="stroke:#8B0000;stroke-width:4.0;"/><polygon fill="#8B0000" points="427.5,960.9978,427.526,961.0628,425.4487,961.6695,423.5239,962.6576,421.5495,963.5215,419.4117,963.977,417.5,964.9978,417.4904,964.9737,419.4472,965.6658,421.4525,966.4791,423.4916,967.3767,425.4144,967.9838,427.5,968.9978,427.6305,969.1283,426.5514,968.0492,425.8534,967.3512,425.2018,966.6996,424.2798,965.7776,423.5,964.9978,423.5161,965.0139,424.2925,964.1902,425.1421,963.4399,425.9564,962.6541,426.838,961.9358,427.5,960.9978" style="stroke:#8B0000;stroke-width:1.0;"/><path d="M405.5,932.9978 L405.5934,932.9978 L405.3159,936.9978 L405.5859,940.9978 L405.6776,944.9978 L405.1829,948.9978 L405.5,952.9978 " fill="#8B0000" style="stroke:#8B0000;stroke-width:4.0;"/><polygon fill="#8B0000" points="401.5,942.9978,401.565,943.0238,402.1718,944.9465,403.1598,947.0217,404.0237,949.0473,404.4792,950.9095,405.5,952.9978,405.4759,952.9882,406.168,950.945,406.9813,948.9503,407.8789,946.9893,408.486,944.9122,409.5,942.9978,409.6305,943.1283,408.5514,943.6492,407.8534,944.5512,407.2018,945.4996,406.2798,946.1776,405.5,946.9978,405.5161,947.0139,404.6925,946.1902,403.9421,945.4399,403.1564,944.6541,402.438,943.9358,401.5,942.9978" style="stroke:#8B0000;stroke-width:1.0;"/><path d="M405.5,976.9978 L405.5934,976.9978 L405.3159,980.9978 L405.5859,984.9978 L405.6776,988.9978 L405.1829,992.9978 L405.5,996.9978 " fill="#8B0000" style="stroke:#8B0000;stroke-width:4.0;"/><polygon fill="#8B0000" points="401.5,986.9978,401.565,987.0238,402.1718,988.9465,403.1598,991.0217,404.0237,993.0473,404.4792,994.9095,405.5,996.9978,405.4759,996.9882,406.168,994.945,406.9813,992.9503,407.8789,990.9893,408.486,988.9122,409.5,986.9978,409.6305,987.1283,408.5514,987.6492,407.8534,988.5512,407.2018,989.4996,406.2798,990.1776,405.5,990.9978,405.5161,991.0139,404.6925,990.1902,403.9421,989.4399,403.1564,988.6541,402.438,987.9358,401.5,986.9978" style="stroke:#8B0000;stroke-width:1.0;"/><path d="M405.5,151.1508 L405.5934,151.1508 L405.3159,157.8138 L405.5859,164.4768 L405.6776,171.1398 L405.1829,177.8028 L405.5,184.4657 " fill="#8B0000" style="stroke:#8B0000;stroke-width:4.0;"/><polygon fill="#8B0000" points="401.5,174.4657,401.565,174.4918,402.1718,176.4145,403.1598,178.4897,404.0237,180.5152,404.4792,182.3774,405.5,184.4657,405.4759,184.4561,406.168,182.4129,406.9813,180.4183,407.8789,178.4573,408.486,176.3802,409.5,174.4657,409.6305,174.5962,408.5514,175.1172,407.8534,176.0191,407.2018,176.9676,406.2798,177.6455,405.5,178.4657,405.5161,178.4818,404.6925,177.6582,403.9421,176.9078,403.1564,176.1221,402.438,175.4038,401.5,174.4657" style="stroke:#8B0000;stroke-width:1.0;"/><path d="M785.5,120.521 L785.5,120.6144 L787.9,120.3369 L790.3,120.6069 L792.7,120.6986 L795.1,120.2039 L797.5,120.521 " fill="#8B0000" style="stroke:#8B0000;stroke-width:4.0;"/><polygon fill="#8B0000" points="793.5,651.4508,793.565,651.4768,794.1718,653.3995,795.1598,655.4747,796.0237,657.5003,796.4792,659.3625,797.5,661.4508,797.4759,661.4412,798.168,659.398,798.9813,657.4033,799.8789,655.4424,800.486,653.3652,801.5,651.4508,801.6305,651.5813,800.5514,652.1023,799.8534,653.0042,799.2018,653.9526,798.2798,654.6306,797.5,655.4508,797.5161,655.4669,796.6925,654.6433,795.9421,653.8929,795.1564,653.1072,794.438,652.3889,793.5,651.4508" style="stroke:#8B0000;stroke-width:4.0;"/><path d="M797.5,120.521 L797.7802,120.521 L796.9476,130.5117 L797.7577,140.5024 L798.0329,150.4931 L796.5488,160.4838 L797.3964,170.4745 L796.9313,180.4652 L796.9887,190.4559 L797.4091,200.4465 L796.5782,210.4372 L798.2382,220.4279 L796.6596,230.4186 L797.2363,240.4093 L798.0759,250.4 L797.3856,260.3907 L797.591,270.3814 L797.4574,280.3721 L797.738,290.3628 L797.8188,300.3535 L798.2809,310.3442 L798.3947,320.3349 L798.4057,330.3256 L797.8395,340.3163 L798.1181,350.307 L798.4363,360.2976 L796.5384,370.2883 L798.4047,380.279 L797.1047,390.2697 L798.2117,400.2604 L796.84,410.2511 L797.4087,420.2418 L798.4888,430.2325 L797.435,440.2232 L797.6404,450.2139 L797.9515,460.2046 L798.055,470.1953 L797.4948,480.186 L797.883,490.1767 L796.7368,500.1674 L797.8792,510.1581 L798.2309,520.1488 L798.0927,530.1394 L798.3174,540.1301 L796.8559,550.1208 L796.6304,560.1115 L796.6715,570.1022 L797.4215,580.0929 L797.238,590.0836 L798.4085,600.0743 L797.2671,610.065 L797.0426,620.0557 L797.8044,630.0464 L796.6109,640.0371 L796.8078,650.0278 L798.3653,660.0185 L798.0809,670.0092 L798.4793,679.9999 L797.0709,689.9905 L797.9256,699.9812 L798.2872,709.9719 L796.8701,719.9626 L797.3722,729.9533 L797.668,739.944 L798.369,749.9347 L797.4944,759.9254 L798.1168,769.9161 L796.7616,779.9068 L796.597,789.8975 L798.1715,799.8882 L796.5441,809.8789 L798.1786,819.8696 L797.7755,829.8603 L797.1428,839.851 L797.0283,849.8416 L798.1117,859.8323 L797.1009,869.823 L798.2891,879.8137 L796.763,889.8044 L798.3232,899.7951 L798.1457,909.7858 L797.8266,919.7765 L797.563,929.7672 L798.4688,939.7579 L798.3181,949.7486 L797.7257,959.7393 L797.8576,969.73 L797.3263,979.7207 L798.4553,989.7114 L797.7065,999.7021 L797.7301,1009.6928 L796.6889,1019.6834 L796.9597,1029.6741 L798.2077,1039.6648 L798.073,1049.6555 L797.4428,1059.6462 L797.0704,1069.6369 L797.5,1079.6276 " fill="#8B0000" style="stroke:#8B0000;stroke-width:4.0;"/><path d="M797.5,1079.6276 L797.5,1079.9079 L787.5,1079.0752 L777.5,1079.8853 L767.5,1080.1605 L757.5,1078.6764 L747.5,1079.524 L737.5,1079.059 L727.5,1079.1163 L717.5,1079.5367 L707.5,1078.7058 L697.5,1080.3658 L687.5,1078.7872 L677.5,1079.3639 L667.5,1080.2035 L657.5,1079.5132 L647.5,1079.7186 L637.5,1079.585 L627.5,1079.8656 L617.5,1079.9465 L607.5,1080.4085 L597.5,1080.5223 L587.5,1080.5333 L577.5,1079.9671 L567.5,1080.2457 L557.5,1080.5639 L547.5,1078.666 L537.5,1080.5323 L527.5,1079.2323 L517.5,1080.3394 L507.5,1078.9676 L497.5,1079.5363 L487.5,1080.6164 L477.5,1079.5626 L467.5,1079.768 L457.5,1080.0791 L447.5,1080.1826 L437.5,1079.6224 L427.5,1080.0106 L417.5,1079.6276 " fill="#8B0000" style="stroke:#8B0000;stroke-width:4.0;"/><polygon fill="#8B0000" points="427.5,1075.6276,427.526,1075.6927,425.4487,1076.2994,423.5239,1077.2874,421.5495,1078.1513,419.4117,1078.6068,417.5,1079.6276,417.4904,1079.6036,419.4472,1080.2956,421.4525,1081.1089,423.4916,1082.0065,425.4144,1082.6136,427.5,1083.6276,427.6305,1083.7581,426.5514,1082.6791,425.8534,1081.981,425.2018,1081.3294,424.2798,1080.4074,423.5,1079.6276,423.5161,1079.6437,424.2925,1078.8201,425.1421,1078.0697,425.9564,1077.284,426.838,1076.5657,427.5,1075.6276" style="stroke:#8B0000;stroke-width:1.0;"/><path d="M405.5,1047.6276 L405.5934,1047.6276 L405.3159,1051.6276 L405.5859,1055.6276 L405.6776,1059.6276 L405.1829,1063.6276 L405.5,1067.6276 " fill="#8B0000" style="stroke:#8B0000;stroke-width:4.0;"/><polygon fill="#8B0000" points="401.5,1057.6276,401.565,1057.6536,402.1718,1059.5763,403.1598,1061.6515,404.0237,1063.6771,404.4792,1065.5393,405.5,1067.6276,405.4759,1067.618,406.168,1065.5748,406.9813,1063.5801,407.8789,1061.6192,408.486,1059.542,409.5,1057.6276,409.6305,1057.7581,408.5514,1058.2791,407.8534,1059.181,407.2018,1060.1294,406.2798,1060.8074,405.5,1061.6276,405.5161,1061.6437,404.6925,1060.8201,403.9421,1060.0697,403.1564,1059.284,402.438,1058.5657,401.5,1057.6276" style="stroke:#8B0000;stroke-width:1.0;"/><!--SRC=[ZP71RXCn48RlVegVIqWE2VVqW2f1nKge1n0792GqU2VfA5vxwvb5tGVWoXF0o_L96AUKDEg5YoLxvll_VyOl9CSqzVnre3nZitdLaz7QBxJdWREjrUR46xkp44miyHQTGWo4gylkmxgNV9W6L1wBYfKwlmuXo0xBTwJOb-zSC-N8i8AHgueQcWDsfS9ksC7RIIhtC1duIrvUbSeEmSjwKwfnNQrQOyRoC-lgf4sFUXuItHkeLJBUprYW6yPq34yc9J_YSyC1_5EGxEh5LUXROWniT4osG2yQM_BsVaO_e9UAc9XgcZ5GFNZsjtTYUjuPjlU_Vk1zAGT5aWDxtjEEuBMB9wECe-Ueulb1CRAwGSbMIthk_Z6IXrrWD-NOfgCaDaDSfFTDki8vilsaxB_bPcfb386JtvUvj8ISUrSCMzp__edhOiS_cSjKCNbJ93zQwU81FP57xgdI_pxyjUhifIAxNsLAliJppJJ3y0S0]--></g></svg>