<?xml version="1.0" encoding="us-ascii" standalone="no"?><svg xmlns="http://www.w3.org/2000/svg" xmlns:xlink="http://www.w3.org/1999/xlink" contentStyleType="text/css" height="706px" preserveAspectRatio="none" style="width:1758px;height:706px;background:#FFFFFF;" version="1.1" viewBox="0 0 1758 706" width="1758px" zoomAndPan="magnify"><defs/><g><text fill="#000000" font-family="Chalkduster" font-size="42" font-weight="bold" lengthAdjust="spacing" textLength="645" x="555" y="61.7215">Preparing for an  `RRKive`</text><polygon fill="#222222" points="904.0552,97.0346,902.5894,99.0375,900.8556,101.971,898.376,103.948,895.7703,105.0291,893.6927,105.123,891.0224,103.7709,888.5029,102.8876,886.5905,101.0942,885.5873,99.0411,884.9924,97.4063,884.4096,95.271,883.4636,93.4335,884.1906,91.6395,884.8275,89.6742,887.2175,88.1199,888.8991,86.1032,890.9804,85.4335,893.4547,84.8568,896.6276,85.1995,898.3655,86.0191,900.3861,86.3906,902.8429,88.9076,903.6993,91.5649,904.0714,93.378,903.65,96.3657" style="stroke:#222222;stroke-width:1.0;"/><polygon fill="#F1F1F1" points="610.5,135.2061,610.5,135.4163,620.4474,134.7918,630.3947,135.3994,640.3421,135.6058,650.2895,134.4927,660.2368,135.1284,670.1842,134.7796,680.1316,134.8226,690.0789,135.1379,700.0263,134.5147,709.9737,135.7597,719.9211,134.5758,729.8684,135.0083,739.8158,135.638,749.7632,135.1203,759.7105,135.2743,769.6579,135.1741,779.6053,135.3846,789.5526,135.4452,799.5,135.7918,809.4474,135.8771,819.3947,135.8853,829.3421,135.4607,839.2895,135.6697,849.2368,135.9083,859.1842,134.4849,869.1316,135.8846,879.0789,134.9096,889.0263,135.7399,898.9737,134.7111,908.9211,135.1376,918.8684,135.9477,928.8158,135.1573,938.7632,135.3114,948.7105,135.5447,958.6579,135.6223,968.6053,135.2022,978.5526,135.4933,988.5,134.6337,998.4474,135.4905,1008.3947,135.7543,1018.3421,135.6506,1028.2895,135.8191,1038.2368,134.723,1048.1842,134.5539,1058.1316,134.5847,1068.0789,135.1472,1078.0263,135.0095,1087.9737,135.8875,1097.9211,135.0314,1107.8684,134.863,1117.8158,135.4343,1127.7632,134.5392,1137.7105,134.687,1147.6579,135.855,1157.6053,135.6417,1167.5526,135.9406,1177.5,135.2061,1177.4156,135.1399,1179.9838,138.3347,1182.4549,141.4534,1184.576,144.2979,1187.0748,147.4383,1189.5,150.521,1189.5331,150.5469,1187.271,153.718,1184.6989,156.6461,1182.4214,159.805,1179.7547,162.6591,1177.5,165.8359,1177.5,165.1587,1167.5526,166.3395,1157.6053,165.119,1147.6579,166.3449,1137.7105,166.0425,1127.7632,165.568,1117.8158,165.4821,1107.8684,166.2947,1097.9211,165.5366,1087.9737,166.4278,1078.0263,165.2832,1068.0789,166.4533,1058.1316,166.3202,1048.1842,166.0809,1038.2368,165.8831,1028.2895,166.5625,1018.3421,166.4495,1008.3947,166.0052,998.4474,166.1041,988.5,165.7056,978.5526,166.5524,968.6053,165.9908,958.6579,166.0085,948.7105,165.2276,938.7632,165.4307,928.8158,166.3667,918.8684,166.2657,908.9211,165.793,898.9737,165.5137,889.0263,165.617,879.0789,165.1497,869.1316,166.2506,859.1842,166.5755,849.2368,166.3623,839.2895,166.5308,829.3421,165.6992,819.3947,165.9231,809.4474,165.4483,799.5,166.12,789.5526,166.0827,779.6053,166.3883,769.6579,165.6063,759.7105,165.7015,749.7632,166.2794,739.8158,166.4032,729.8684,165.3234,719.9211,165.642,709.9737,165.9852,700.0263,165.2251,690.0789,166.1893,680.1316,166.0939,670.1842,165.7351,660.2368,165.9782,650.2895,166.5646,640.3421,165.523,630.3947,166.1509,620.4474,166.1216,610.5,165.8359,610.5304,165.8597,608.137,162.8019,605.7298,159.7333,603.1362,156.5186,600.7948,153.5016,598.5,150.521,598.3789,150.4261,600.9167,147.4711,603.3231,144.4131,605.7424,141.3653,608.0237,138.2092,610.5,135.2061" style="stroke:#181818;stroke-width:0.5;"/><text fill="#000000" font-family="Chalkduster" font-size="24" lengthAdjust="spacing" textLength="567" x="610.5" y="159.047">Metadata Schema for your domain exists</text><text fill="#000000" font-family="Chalkduster" font-size="24" lengthAdjust="spacing" textLength="42" x="556.5" y="143.732">yes</text><text fill="#000000" font-family="Chalkduster" font-size="24" lengthAdjust="spacing" textLength="35" x="1189.5" y="143.732">no</text><polygon fill="#F1F1F1" points="360.5,175.8359,360.5,176.0461,370.413,175.4216,380.3261,176.0292,390.2391,176.2356,400.1522,175.1225,410.0652,175.7582,419.9783,175.4094,429.8913,175.4524,439.8043,175.7678,449.7174,175.1445,459.6304,176.3896,469.5435,175.2056,479.4565,175.6381,489.3696,176.2679,499.2826,175.7501,509.1957,175.9041,519.1087,175.804,529.0217,176.0144,538.9348,176.075,548.8478,176.4216,558.7609,176.507,568.6739,176.5152,578.587,176.0905,588.5,176.2995,598.413,176.5381,608.3261,175.1147,618.2391,176.5144,628.1522,175.5394,638.0652,176.3697,647.9783,175.3409,657.8913,175.7674,667.8043,176.5775,677.7174,175.7872,687.6304,175.9412,697.5435,176.1745,707.4565,176.2521,717.3696,175.832,727.2826,176.1231,737.1957,175.2635,747.1087,176.1203,757.0217,176.3841,766.9348,176.2804,776.8478,176.4489,786.7609,175.3528,796.6739,175.1837,806.587,175.2145,816.5,175.8359,816.4925,175.8178,818.2427,176.5076,820.1225,177.5102,821.781,177.9788,823.5273,178.6592,825.3388,179.4971,825.4091,179.5262,825.8657,181.1798,826.6434,182.9664,827.7354,184.8832,828.4019,186.6237,829,188.3359,829.7345,188.3359,828.6782,197.7125,829.3192,207.0891,829.5904,216.4657,828.5276,225.8424,828.9041,235.219,829,244.5956,829.0388,244.6116,828.4685,246.4465,827.5342,248.1306,826.9458,249.9579,825.9005,251.596,825.3388,253.4344,825.2524,253.2258,823.6353,254.3217,821.7118,254.6781,820.1005,255.7879,818.2941,256.427,816.5,257.0956,816.5,256.8277,806.587,256.7418,796.6739,257.5543,786.7609,256.7962,776.8478,257.6874,766.9348,256.5428,757.0217,257.713,747.1087,257.5799,737.1957,257.3405,727.2826,257.1428,717.3696,257.8222,707.4565,257.7092,697.5435,257.2648,687.6304,257.3638,677.7174,256.9653,667.8043,257.812,657.8913,257.2504,647.9783,257.2682,638.0652,256.4872,628.1522,256.6904,618.2391,257.6263,608.3261,257.5253,598.413,257.0526,588.5,256.7734,578.587,256.8766,568.6739,256.4094,558.7609,257.5103,548.8478,257.8351,538.9348,257.622,529.0217,257.7905,519.1087,256.9589,509.1957,257.1828,499.2826,256.708,489.3696,257.3796,479.4565,257.3423,469.5435,257.648,459.6304,256.8659,449.7174,256.9612,439.8043,257.539,429.8913,257.6629,419.9783,256.583,410.0652,256.9017,400.1522,257.2448,390.2391,256.4847,380.3261,257.449,370.413,257.3536,360.5,257.0956,360.4871,257.0645,358.7504,256.4072,357.0574,255.8555,355.1568,254.8025,353.4691,254.2636,351.6612,253.4344,351.7491,253.4708,350.9646,251.6814,350.2401,249.9169,349.4994,248.1456,348.54,246.2837,348,244.5956,347.5992,244.5956,347.5385,235.219,348.0638,225.8424,348.0881,216.4657,348.1617,207.0891,347.709,197.7125,348,188.3359,347.9792,188.3273,348.6952,186.5528,349.6421,184.874,350.3281,183.087,350.7794,181.2029,351.6612,179.4971,351.6519,179.4746,353.3553,178.5871,355.2335,178.1214,357.0421,177.4878,358.8017,176.7358,360.5,175.8359" style="stroke:#181818;stroke-width:0.5;"/><text fill="#000000" font-family="Chalkduster" font-size="24" lengthAdjust="spacing" textLength="437" x="370" y="209.6768">Crosswalk to RO-Crate formats</text><text fill="#000000" font-family="Chalkduster" font-size="24" lengthAdjust="spacing" textLength="158" x="370" y="240.3066">(if needed)</text><path d="M1371.5,180.8359 L1371.6868,180.8359 L1371.1317,184.0989 L1371.6718,187.3619 L1371.8553,190.6249 L1370.8659,193.8878 L1371.5,197.1508 L1371.4865,197.0831 L1367.4257,197.5791 L1363.4331,198.4166 L1359.4881,199.4914 L1355.3795,199.7482 L1351.5,201.1508 L1351.5965,201.6334 L1355.3901,201.4015 L1359.4655,202.5784 L1363.5753,203.9273 L1367.485,204.2761 L1371.5,205.1508 L1371.5607,205.1508 L1371.4716,208.4138 L1371.6587,211.6768 L1371.7126,214.9398 L1372.0206,218.2028 L1371.5,221.4657 L1371.5,221.4657 L1371.5,223.2552 L1381.4,223.2771 L1391.3,222.1447 L1401.2,222.702 L1411.1,223.3384 L1421,219.5426 L1430.9,223.2751 L1440.8,220.6751 L1450.7,222.8892 L1460.6,220.1457 L1470.5,221.2831 L1480.4,223.4434 L1490.3,221.3358 L1500.2,221.7465 L1510.1,222.3688 L1520,222.5757 L1529.9,221.4553 L1539.8,222.2316 L1549.7,219.9393 L1559.6,222.2241 L1569.5,222.9276 L1579.4,222.6512 L1589.3,223.1005 L1599.2,220.1775 L1609.1,219.7266 L1619,219.8087 L1628.9,221.3087 L1638.8,220.9417 L1648.7,223.2828 L1658.6,220.9999 L1668.5,221.4657 L1668.5,221.4657 L1668.1951,221.4657 L1668.7029,215.3398 L1667.9073,209.2138 L1668.0386,203.0878 L1669.0768,196.9619 L1668.5,190.8359 L1668.7738,191.1097 L1666.9617,189.2976 L1664.2977,186.6337 L1662.7006,185.0365 L1660.8711,183.207 L1658.5,180.8359 L1658.5,179.5762 L1648.6034,180.5803 L1638.7069,181.1719 L1628.8103,182.5739 L1618.9138,180.8247 L1609.0172,182.0694 L1599.1207,179.3591 L1589.2241,179.0299 L1579.3276,182.1789 L1569.431,178.9241 L1559.5345,182.1931 L1549.6379,181.3869 L1539.7414,180.1215 L1529.8448,179.8925 L1519.9483,182.0593 L1510.0517,180.0377 L1500.1552,182.4142 L1490.2586,179.3619 L1480.3621,182.4824 L1470.4655,182.1274 L1460.569,181.4892 L1450.6724,180.9618 L1440.7759,182.7735 L1430.8793,182.4721 L1420.9828,181.2873 L1411.0862,181.5511 L1401.1897,180.4885 L1391.2931,182.7464 L1381.3966,181.2489 L1371.5,180.8359 L1371.5,180.8359 " fill="#FFFFE0" style="stroke:#181818;stroke-width:4.0;"/><path d="M1658.5,180.8359 L1658.6868,180.8359 L1658.1317,182.8359 L1658.6718,184.8359 L1658.8553,186.8359 L1657.8659,188.8359 L1658.5,190.8359 L1658.5,190.7668 L1660.5,190.4568 L1662.5,190.495 L1664.5,190.7753 L1666.5,190.2214 L1668.5,190.8359 L1668.848,191.1839 L1666.1038,188.4398 L1664.3757,186.7116 L1662.7715,185.1074 L1660.4461,182.782 L1658.5,180.8359 " fill="#FFFFE0" style="stroke:#181818;stroke-width:4.0;"/><text fill="#000000" font-family="Chalkduster" font-size="24" lengthAdjust="spacing" textLength="276" x="1377.5" y="209.6768">Crate-O can do this</text><polygon fill="#F1F1F1" points="1060,175.8359,1060,176.0461,1069.9643,175.4216,1079.9286,176.0292,1089.8929,176.2356,1099.8571,175.1225,1109.8214,175.7582,1119.7857,175.4094,1129.75,175.4524,1139.7143,175.7678,1149.6786,175.1445,1159.6429,176.3896,1169.6071,175.2056,1179.5714,175.6381,1189.5357,176.2679,1199.5,175.7501,1209.4643,175.9041,1219.4286,175.804,1229.3929,176.0144,1239.3571,176.075,1249.3214,176.4216,1259.2857,176.507,1269.25,176.5152,1279.2143,176.0905,1289.1786,176.2995,1299.1429,176.5381,1309.1071,175.1147,1319.0714,176.5144,1329.0357,175.5394,1339,175.8359,1339.0681,176.0003,1340.7046,176.4157,1342.5268,177.2793,1344.3979,178.261,1346.0649,178.7498,1347.8388,179.4971,1347.8713,179.5105,1348.6754,181.308,1349.4315,183.0857,1350.0343,184.7999,1350.8562,186.6048,1351.5,188.3359,1351.3092,188.3359,1351.5948,193.4619,1351.6827,198.5878,1351.6482,203.7138,1351.7043,208.8398,1351.5,213.9657,1351.3512,213.9041,1350.5669,215.6503,1349.8442,217.422,1349.2852,219.2615,1348.5105,221.0117,1347.8388,222.8046,1347.9258,223.0144,1346.0488,223.483,1344.2595,224.1634,1342.5647,225.0716,1340.6827,225.5282,1339,226.4657,1339,225.9466,1329.0357,227.1147,1319.0714,226.9014,1309.1071,227.2002,1299.1429,226.1439,1289.1786,226.7849,1279.2143,227.0562,1269.25,225.9933,1259.2857,226.3699,1249.3214,226.5917,1239.3571,227.1175,1229.3929,226.4616,1219.4286,226.9283,1209.4643,225.912,1199.5,225.7885,1189.5357,226.9694,1179.5714,225.7488,1169.6071,226.9747,1159.6429,226.6724,1149.6786,226.1978,1139.7143,226.112,1129.75,226.9245,1119.7857,226.1664,1109.8214,227.0576,1099.8571,225.913,1089.8929,227.0832,1079.9286,226.95,1069.9643,226.7107,1060,226.4657,1060.006,226.4803,1058.3249,225.9573,1056.5427,225.1902,1054.7183,224.3212,1052.9631,223.6194,1051.1612,222.8046,1051.121,222.788,1050.6496,221.1282,1049.7444,219.2888,1049.0176,217.5233,1048.0449,215.6559,1047.5,213.9657,1047.3649,213.9657,1047.6769,208.8398,1047.6433,203.7138,1047.4857,198.5878,1047.3926,193.4619,1047.5,188.3359,1047.4326,188.308,1048.0209,186.4806,1049.0922,184.8533,1049.9245,183.1269,1050.591,181.332,1051.1612,179.4971,1051.2498,179.7111,1052.9115,178.7227,1054.7078,178.0595,1056.415,177.181,1058.2685,176.6556,1060,175.8359" style="stroke:#181818;stroke-width:0.5;"/><text fill="#000000" font-family="Chalkduster" font-size="24" lengthAdjust="spacing" textLength="272" x="1069.5" y="209.6768">Document a Schema</text><polygon fill="#F1F1F1" points="894,263.0956,894.0495,263.1451,896.3023,265.3979,898.8456,267.9411,901.2942,270.3898,903.4319,272.5274,906,275.0956,905.9817,275.0773,903.4995,277.3951,901.1096,279.8052,898.7839,282.2795,896.237,284.5326,894,287.0956,894.1305,287.2261,891.4514,284.547,889.1534,282.249,886.9018,279.9974,884.3798,277.4754,882,275.0956,882.0161,275.1117,884.3925,272.688,886.8421,270.3377,889.2564,267.9519,891.738,265.6336,894,263.0956" style="stroke:#181818;stroke-width:0.5;"/><polygon fill="#F1F1F1" points="605.5,307.0956,605.5,307.3058,615.4483,306.6813,625.3966,307.2889,635.3448,307.4953,645.2931,306.3822,655.2414,307.0179,665.1897,306.6691,675.1379,306.7121,685.0862,307.0274,695.0345,306.4042,704.9828,307.6492,714.931,306.4653,724.8793,306.8978,734.8276,307.5275,744.7759,307.0098,754.7241,307.1638,764.6724,307.0636,774.6207,307.2741,784.569,307.3347,794.5172,307.6813,804.4655,307.7666,814.4138,307.7748,824.3621,307.3502,834.3103,307.5592,844.2586,307.7978,854.2069,306.3744,864.1552,307.7741,874.1034,306.7991,884.0517,307.6294,894,306.6006,903.9483,307.0271,913.8966,307.8372,923.8448,307.0468,933.7931,307.2009,943.7414,307.4342,953.6897,307.5118,963.6379,307.0917,973.5862,307.3828,983.5345,306.5232,993.4828,307.38,1003.431,307.6438,1013.3793,307.5401,1023.3276,307.7086,1033.2759,306.6125,1043.2241,306.4434,1053.1724,306.4742,1063.1207,307.0367,1073.069,306.899,1083.0172,307.777,1092.9655,306.9209,1102.9138,306.7525,1112.8621,307.3238,1122.8103,306.4287,1132.7586,306.5765,1142.7069,307.7445,1152.6552,307.5312,1162.6034,307.8301,1172.5517,306.7738,1182.5,307.0956,1182.5407,307.1939,1184.3431,308.0096,1185.9753,308.4146,1187.7911,309.2628,1189.5871,310.0633,1191.3388,310.7567,1191.5396,310.8399,1192.0698,312.524,1192.9458,314.3513,1193.365,315.9894,1194.0592,317.7414,1195,319.5956,1195.1679,319.5956,1194.761,324.7215,1195.1697,329.8475,1195.0689,334.9735,1194.9107,340.0994,1195,345.2254,1194.8911,345.1803,1194.409,347.0517,1193.4434,348.7228,1192.9856,350.6042,1191.9008,352.226,1191.3388,354.0642,1191.4176,354.2544,1189.6328,354.9456,1187.8345,355.6042,1186.0416,356.2755,1184.3605,357.2169,1182.5,357.7254,1182.5,358.339,1172.5517,357.8947,1162.6034,357.9936,1152.6552,357.5951,1142.7069,358.4419,1132.7586,357.8803,1122.8103,357.898,1112.8621,357.1171,1102.9138,357.3202,1092.9655,358.2562,1083.0172,358.1552,1073.069,357.6825,1063.1207,357.4032,1053.1724,357.5065,1043.2241,357.0392,1033.2759,358.1401,1023.3276,358.465,1013.3793,358.2518,1003.431,358.4203,993.4828,357.5887,983.5345,357.8126,973.5862,357.3378,963.6379,358.0095,953.6897,357.9722,943.7414,358.2778,933.7931,357.4958,923.8448,357.591,913.8966,358.1689,903.9483,358.2927,894,357.2129,884.0517,357.5315,874.1034,357.8747,864.1552,357.1146,854.2069,358.0788,844.2586,357.9834,834.3103,357.6246,824.3621,357.8677,814.4138,358.4541,804.4655,357.4125,794.5172,358.0404,784.569,358.0111,774.6207,357.8412,764.6724,357.8663,754.7241,357.8389,744.7759,357.1013,734.8276,357.3246,724.8793,357.2639,714.931,357.7892,704.9828,357.8135,695.0345,357.8872,685.0862,357.4344,675.1379,357.6579,665.1897,357.6052,655.2414,358.3023,645.2931,358.152,635.3448,357.2399,625.3966,357.6525,615.4483,357.1482,605.5,357.7254,605.5368,357.8142,603.8099,357.1806,602.0339,356.4286,600.1411,355.3946,598.4881,354.9394,596.6612,354.0642,596.4324,353.9695,595.9906,352.322,595.1045,350.4905,594.4943,348.7733,593.8062,347.0238,593,345.2254,593.1574,345.2254,592.76,340.0994,593.1585,334.9735,593.0594,329.8475,593.1184,324.7215,593,319.5956,593.2303,319.691,593.7339,317.8285,594.5184,316.0824,595.2624,314.3195,595.9897,312.5497,596.6612,310.7567,596.6611,310.7565,598.5196,310.2434,600.1189,309.1045,602.0366,308.7341,603.6526,307.6356,605.5,307.0956" style="stroke:#181818;stroke-width:0.5;"/><text fill="#000000" font-family="Chalkduster" font-size="24" lengthAdjust="spacing" textLength="558" x="615" y="340.9365">Make or source some sample documents</text><path d="M266.5,368.0144 L267.0605,368.0144 L265.3951,378.2082 L267.0154,388.402 L267.5658,398.5957 L264.5976,408.7895 L266.2928,418.9833 L265.3627,429.1771 L265.4773,439.3709 L266.3182,449.5647 L264.6563,459.7585 L267.9764,469.9523 L264.8193,480.1461 L265.9726,490.3399 L266.5,500.5337 L266.5,500.5337 L266.5,501.6856 L276.4474,500.305 L286.3947,500.7157 L296.3421,500.4485 L306.2895,501.0098 L316.2368,501.1714 L326.1842,502.0955 L336.1316,502.3232 L346.0789,502.345 L356.0263,501.2127 L365.9737,501.7699 L375.9211,502.4063 L385.8684,498.6105 L395.8158,502.3431 L405.7632,499.743 L415.7105,501.9572 L425.6579,499.2136 L435.6053,500.351 L445.5526,502.5113 L455.5,500.4037 L465.4474,500.8145 L475.3947,501.4367 L485.3421,501.6436 L495.2895,500.5233 L505.2368,501.2996 L515.1842,499.0072 L525.1316,501.2921 L535.0789,501.9955 L545.0263,501.7191 L554.9737,502.1684 L564.9211,499.2455 L574.8684,498.7945 L584.8158,498.8766 L594.7632,500.3767 L604.7105,500.0096 L614.6579,502.3508 L624.6053,500.0679 L634.5526,499.6189 L644.5,500.5337 L644.5,500.5337 L645.1087,500.5337 L642.7218,490.1571 L643.1157,479.7805 L646.2305,469.4039 L645.6618,459.0272 L646.4586,448.6506 L644.5,438.274 L644.4439,437.9935 L648.5556,437.7522 L652.6029,437.1887 L656.4176,435.4623 L660.4833,434.9905 L664.5,434.274 L664.522,434.3838 L660.6136,434.0421 L656.4993,432.6704 L652.5806,432.2772 L648.4035,430.5913 L644.5,430.274 L642.694,430.274 L645.843,419.8221 L642.5882,409.3702 L645.8572,398.9182 L645.051,388.4663 L644.5,378.0144 L644.3316,377.846 L642.2776,375.792 L640.7883,374.3027 L638.3119,371.8262 L636.872,370.3864 L634.5,368.0144 L634.5,366.5404 L624.5541,369.6608 L614.6081,369.3058 L604.6622,368.6676 L594.7162,368.1403 L584.7703,369.952 L574.8243,369.6506 L564.8784,368.4657 L554.9324,368.7295 L544.9865,367.667 L535.0405,369.9249 L525.0946,368.4273 L515.1486,368.4746 L505.2027,366.3921 L495.2568,366.9338 L485.3108,369.4297 L475.3649,369.1604 L465.4189,367.8999 L455.473,367.1552 L445.527,367.4306 L435.5811,366.1846 L425.6351,369.1203 L415.6892,369.9865 L405.7432,369.4181 L395.7973,369.8675 L385.8514,367.6498 L375.9054,368.2469 L365.9595,366.9808 L356.0135,368.7718 L346.0676,368.6724 L336.1216,369.4874 L326.1757,367.4019 L316.2297,367.6559 L306.2838,369.1969 L296.3378,369.5273 L286.3919,366.6476 L276.4459,367.4973 L266.5,368.0144 L266.5,368.0144 " fill="#FFFFE0" style="stroke:#181818;stroke-width:4.0;"/><path d="M634.5,368.0144 L634.6868,368.0144 L634.1317,370.0144 L634.6718,372.0144 L634.8553,374.0144 L633.8659,376.0144 L634.5,378.0144 L634.5,377.9453 L636.5,377.6353 L638.5,377.6735 L640.5,377.9538 L642.5,377.3998 L644.5,378.0144 L644.848,378.3623 L642.1038,375.6182 L640.3757,373.8901 L638.7715,372.2859 L636.4461,369.9604 L634.5,368.0144 " fill="#FFFFE0" style="stroke:#181818;stroke-width:4.0;"/><text fill="#000000" font-family="Chalkduster" font-size="24" lengthAdjust="spacing" textLength="253" x="272.5" y="396.8552">Mode files enable:</text><text fill="#000000" font-family="Chalkduster" font-size="24" lengthAdjust="spacing" textLength="224" x="272.5" y="427.4851">- Metadata GUI</text><text fill="#000000" font-family="Chalkduster" font-size="24" lengthAdjust="spacing" textLength="357" x="272.5" y="458.1149">- Import via spreadsheets</text><text fill="#000000" font-family="Chalkduster" font-size="24" lengthAdjust="spacing" textLength="244" x="272.5" y="488.7447">- Data validation</text><polygon fill="#F1F1F1" points="677,408.9591,677,409.1693,687.093,408.5448,697.186,409.1524,707.2791,409.3588,717.3721,408.2457,727.4651,408.8814,737.5581,408.5326,747.6512,408.5756,757.7442,408.891,767.8372,408.2677,777.9302,409.5128,788.0233,408.3288,798.1163,408.7613,808.2093,409.3911,818.3023,408.8733,828.3953,409.0273,838.4884,408.9272,848.5814,409.1376,858.6744,409.1982,868.7674,409.5448,878.8605,409.6302,888.9535,409.6384,899.0465,409.2137,909.1395,409.4227,919.2326,409.6613,929.3256,408.2379,939.4186,409.6376,949.5116,408.6626,959.6047,409.4929,969.6977,408.4641,979.7907,408.8906,989.8837,409.7007,999.9767,408.9104,1010.0698,409.0644,1020.1628,409.2977,1030.2558,409.3753,1040.3488,408.9552,1050.4419,409.2463,1060.5349,408.3867,1070.6279,409.2435,1080.7209,409.5073,1090.814,409.4036,1100.907,409.5721,1111,408.9591,1110.9384,408.8103,1112.6846,409.4905,1114.4563,410.2322,1116.2958,411.1377,1118.046,411.8275,1119.8388,412.6203,1120.0487,412.7072,1120.5173,414.3658,1121.1977,416.112,1122.1058,417.9527,1122.5624,419.6063,1123.5,421.4591,1123.327,421.4591,1123.7163,426.5851,1123.6452,431.711,1123.7448,436.837,1123.3927,441.963,1123.5,447.0889,1123.5983,447.1297,1122.9496,448.932,1121.8901,450.5642,1121.2738,452.38,1120.6099,454.1761,1119.8388,455.9278,1119.922,456.1285,1118.0705,456.6587,1116.3623,457.5347,1114.4649,457.9539,1112.6814,458.6481,1111,459.5889,1111,460.0926,1100.907,458.872,1090.814,460.0979,1080.7209,459.7956,1070.6279,459.321,1060.5349,459.2352,1050.4419,460.0477,1040.3488,459.2896,1030.2558,460.1808,1020.1628,459.0362,1010.0698,460.2064,999.9767,460.0732,989.8837,459.8339,979.7907,459.6362,969.6977,460.3156,959.6047,460.2025,949.5116,459.7582,939.4186,459.8571,929.3256,459.4587,919.2326,460.3054,909.1395,459.7438,899.0465,459.7615,888.9535,458.9806,878.8605,459.1837,868.7674,460.1197,858.6744,460.0187,848.5814,459.546,838.4884,459.2668,828.3953,459.37,818.3023,458.9028,808.2093,460.0037,798.1163,460.3285,788.0233,460.1153,777.9302,460.2839,767.8372,459.4522,757.7442,459.6762,747.6512,459.2013,737.5581,459.873,727.4651,459.8357,717.3721,460.1413,707.2791,459.3593,697.186,459.4545,687.093,460.0324,677,459.5889,677.0724,459.7637,675.1669,458.6989,673.4397,458.0648,671.7157,457.4382,669.851,456.4719,668.1612,455.9278,668.27,455.9729,667.5084,454.1929,666.6657,452.3794,666.0083,450.6426,665.4566,448.9497,664.5,447.0889,664.3957,447.0889,664.605,441.963,664.5952,436.837,664.5386,431.711,664.547,426.5851,664.5,421.4591,664.5349,421.4736,665.04,419.6117,665.841,417.8724,666.5546,416.0969,667.4486,414.3962,668.1612,412.6203,668.1724,412.6474,669.9496,411.9379,671.6596,411.0662,673.4559,410.4028,675.2169,409.6543,677,408.9591" style="stroke:#181818;stroke-width:0.5;"/><text fill="#000000" font-family="Chalkduster" font-size="24" lengthAdjust="spacing" textLength="427" x="686.5" y="442.8">Generate a Crate-O Mode File</text><path d="M1157,510.8226 L1157.1868,510.8226 L1156.6317,517.1486 L1157.1718,523.4746 L1157.3553,529.8005 L1156.3659,536.1265 L1157,542.4525 L1156.9865,542.3847 L1152.9257,542.8807 L1148.9331,543.7182 L1144.9881,544.7931 L1140.8795,545.0499 L1137,546.4525 L1137.0965,546.935 L1140.8901,546.7031 L1144.9655,547.8801 L1149.0753,549.229 L1152.985,549.5777 L1157,550.4525 L1157.0607,550.4525 L1156.9716,556.7784 L1157.1587,563.1044 L1157.2126,569.4304 L1157.5206,575.7563 L1157,582.0823 L1157,582.0823 L1157,583.8718 L1166.9831,583.8937 L1176.9661,582.7613 L1186.9492,583.3185 L1196.9322,583.9549 L1206.9153,580.1591 L1216.8983,583.8917 L1226.8814,581.2916 L1236.8644,583.5058 L1246.8475,580.7622 L1256.8305,581.8996 L1266.8136,584.0599 L1276.7966,581.9524 L1286.7797,582.3631 L1296.7627,582.9853 L1306.7458,583.1923 L1316.7288,582.0719 L1326.7119,582.8482 L1336.6949,580.5559 L1346.678,582.8407 L1356.661,583.5442 L1366.6441,583.2677 L1376.6271,583.717 L1386.6102,580.7941 L1396.5932,580.3432 L1406.5763,580.4252 L1416.5593,581.9253 L1426.5424,581.5582 L1436.5254,583.8994 L1446.5085,581.6165 L1456.4915,581.1675 L1466.4746,582.691 L1476.4576,580.3041 L1486.4407,580.698 L1496.4237,583.8128 L1506.4068,583.2441 L1516.3898,584.041 L1526.3729,581.2242 L1536.3559,582.9335 L1546.339,583.6568 L1556.322,580.8226 L1566.3051,581.8267 L1576.2881,582.4183 L1586.2712,583.8203 L1596.2542,582.0711 L1606.2373,583.3158 L1616.2203,580.6055 L1626.2034,580.2763 L1636.1864,583.4253 L1646.1695,580.1705 L1656.1525,583.4395 L1666.1356,582.6333 L1676.1186,581.3679 L1686.1017,581.1389 L1696.0847,583.3057 L1706.0678,581.2841 L1716.0508,583.6606 L1726.0339,580.6083 L1736.0169,583.7288 L1746,582.0823 L1746,582.0823 L1747.2915,582.0823 L1746.6532,571.8724 L1746.1259,561.6624 L1747.9376,551.4525 L1747.6362,541.2425 L1746.4513,531.0326 L1746,520.8226 L1746.1686,520.9912 L1743.9181,518.7408 L1742.4503,517.273 L1740.0973,514.92 L1738.1085,512.9311 L1736,510.8226 L1736,509.2004 L1726.0172,509.7421 L1716.0345,512.238 L1706.0517,511.9687 L1696.069,510.7082 L1686.0862,509.9635 L1676.1034,510.2388 L1666.1207,508.9928 L1656.1379,511.9286 L1646.1552,512.7948 L1636.1724,512.2264 L1626.1897,512.6758 L1616.2069,510.458 L1606.2241,511.0552 L1596.2414,509.7891 L1586.2586,511.5801 L1576.2759,511.4807 L1566.2931,512.2957 L1556.3103,510.2102 L1546.3276,510.4642 L1536.3448,512.0052 L1526.3621,512.3355 L1516.3793,509.4559 L1506.3966,510.3056 L1496.4138,511.2207 L1486.431,509.1937 L1476.4483,511.765 L1466.4655,511.5106 L1456.4828,510.5539 L1446.5,511.202 L1436.5172,512.7658 L1426.5345,509.9883 L1416.5517,511.6626 L1406.569,511.5844 L1396.5862,511.1314 L1386.6034,511.1984 L1376.6207,511.1252 L1366.6379,509.1582 L1356.6552,509.7538 L1346.6724,509.5919 L1336.6897,510.9928 L1326.7069,511.0576 L1316.7241,511.254 L1306.7414,510.0467 L1296.7586,510.6426 L1286.7759,510.5021 L1276.7931,512.3609 L1266.8103,511.9602 L1256.8276,509.5279 L1246.8448,510.6282 L1236.8621,509.2834 L1226.8793,511.5917 L1216.8966,512.4453 L1206.9138,512.2748 L1196.931,509.6612 L1186.9483,512.0599 L1176.9655,508.8418 L1166.9828,511.3564 L1157,510.8226 L1157,510.8226 " fill="#FFFFE0" style="stroke:#181818;stroke-width:4.0;"/><path d="M1736,510.8226 L1736.1868,510.8226 L1735.6317,512.8226 L1736.1718,514.8226 L1736.3553,516.8226 L1735.3659,518.8226 L1736,520.8226 L1736,520.7536 L1738,520.4435 L1740,520.4818 L1742,520.7621 L1744,520.2081 L1746,520.8226 L1746.348,521.1706 L1743.6038,518.4265 L1741.8757,516.6983 L1740.2715,515.0941 L1737.9461,512.7687 L1736,510.8226 " fill="#FFFFE0" style="stroke:#181818;stroke-width:4.0;"/><text fill="#000000" font-family="Chalkduster" font-size="24" lengthAdjust="spacing" textLength="568" x="1163" y="539.6635">- Document collection / object structure</text><text fill="#000000" font-family="Chalkduster" font-size="24" lengthAdjust="spacing" textLength="539" x="1163" y="570.2934">- Use tools to document the Mode File</text><polygon fill="#F1F1F1" points="663.5,521.1376,663.5,521.3477,673.5217,520.7232,683.5435,521.3308,693.5652,521.5372,703.587,520.4242,713.6087,521.0598,723.6304,520.7111,733.6522,520.7541,743.6739,521.0694,753.6957,520.4462,763.7174,521.6912,773.7391,520.5073,783.7609,520.9398,793.7826,521.5695,803.8043,521.0518,813.8261,521.2058,823.8478,521.1056,833.8696,521.3161,843.8913,521.3767,853.913,521.7232,863.9348,521.8086,873.9565,521.8168,883.9783,521.3922,894,521.6011,904.0217,521.8398,914.0435,520.4164,924.0652,521.8161,934.087,520.8411,944.1087,521.6714,954.1304,520.6425,964.1522,521.0691,974.1739,521.8792,984.1957,521.0888,994.2174,521.2429,1004.2391,521.4762,1014.2609,521.5538,1024.2826,521.1337,1034.3043,521.4248,1044.3261,520.5651,1054.3478,521.4219,1064.3696,521.6858,1074.3913,521.5821,1084.413,521.7506,1094.4348,520.6545,1104.4565,520.4854,1114.4783,520.5162,1124.5,521.1376,1124.4925,521.1194,1126.2427,521.8093,1128.1225,522.8119,1129.781,523.2805,1131.5273,523.9608,1133.3388,524.7987,1133.4091,524.8278,1133.8657,526.4814,1134.6434,528.268,1135.7354,530.1848,1136.4019,531.9254,1137,533.6376,1137.2448,533.6376,1136.8927,538.7635,1137.1064,543.8895,1137.1968,549.0155,1136.8425,554.1414,1137,559.2674,1136.9705,559.2552,1136.3066,561.0512,1135.7362,562.8861,1134.802,564.5702,1134.2135,566.3975,1133.3388,568.1062,1133.2682,567.9357,1131.4847,568.6299,1129.8675,569.7258,1127.9441,570.0821,1126.3327,571.1919,1124.5,571.7674,1124.5,571.974,1114.4783,571.4995,1104.4565,571.4136,1094.4348,572.2262,1084.413,571.4681,1074.3913,572.3593,1064.3696,571.2146,1054.3478,572.3848,1044.3261,572.2517,1034.3043,572.0124,1024.2826,571.8146,1014.2609,572.494,1004.2391,572.381,994.2174,571.9366,984.1957,572.0356,974.1739,571.6371,964.1522,572.4838,954.1304,571.9223,944.1087,571.94,934.087,571.159,924.0652,571.3622,914.0435,572.2981,904.0217,572.1972,894,571.7245,883.9783,571.4452,873.9565,571.5485,863.9348,571.0812,853.913,572.1821,843.8913,572.507,833.8696,572.2938,823.8478,572.4623,813.8261,571.6307,803.8043,571.8546,793.7826,571.3798,783.7609,572.0514,773.7391,572.0142,763.7174,572.3198,753.6957,571.5377,743.6739,571.633,733.6522,572.2109,723.6304,572.3347,713.6087,571.2549,703.587,571.5735,693.5652,571.9167,683.5435,571.1565,673.5217,572.1208,663.5,571.7674,663.5329,571.8468,661.7194,571.0041,659.9826,570.3467,658.2896,569.7951,656.389,568.7421,654.6612,568.1062,654.7582,568.1464,654.0169,566.3749,653.2324,564.5855,652.5079,562.8209,651.7672,561.0496,651,559.2674,650.7919,559.2674,650.8664,554.1414,650.8462,549.0155,651.0213,543.8895,651.0294,538.7635,651,533.6376,651.0498,533.6582,651.6426,531.8327,652.4437,530.0934,653.1597,528.3189,654.1066,526.6401,654.6612,524.7987,654.7156,524.9301,656.367,523.917,658.1874,523.3118,659.8908,522.4243,661.769,521.9586,663.5,521.1376" style="stroke:#181818;stroke-width:0.5;"/><text fill="#000000" font-family="Chalkduster" font-size="24" lengthAdjust="spacing" textLength="442" x="673" y="554.9784">Write a human-readable profile</text><path d="M10,592.3713 L10.5605,592.3713 L8.8951,602.5602 L10.5154,612.7492 L11.0658,622.9381 L8.0976,633.1271 L9.7928,643.316 L8.8627,653.505 L8.9773,663.6939 L9.8182,673.8829 L8.1563,684.0718 L10,694.2608 L10,694.2608 L10,695.7371 L19.9242,692.58 L29.8485,693.7334 L39.7727,695.4126 L49.697,694.032 L59.6212,694.4427 L69.5455,694.1756 L79.4697,694.7368 L89.3939,694.8984 L99.3182,695.8226 L109.2424,696.0502 L119.1667,696.0721 L129.0909,694.9398 L139.0152,695.497 L148.9394,696.1334 L158.8636,692.3376 L168.7879,696.0701 L178.7121,693.4701 L188.6364,695.6843 L198.5606,692.9407 L208.4848,694.0781 L218.4091,696.2384 L228.3333,694.1308 L238.2576,694.5416 L248.1818,695.1638 L258.1061,695.3707 L268.0303,694.2503 L277.9545,695.0267 L287.8788,692.7343 L297.803,695.0191 L307.7273,695.7226 L317.6515,695.4462 L327.5758,695.8955 L337.5,692.9725 L347.4242,692.5216 L357.3485,692.6037 L367.2727,694.1037 L377.197,693.7367 L387.1212,696.0779 L397.0455,693.795 L406.9697,693.346 L416.8939,694.8695 L426.8182,692.4825 L436.7424,692.8764 L446.6667,695.9913 L456.5909,695.4225 L466.5152,696.2194 L476.4394,693.4026 L486.3636,695.112 L496.2879,695.8352 L506.2121,693.001 L516.1364,694.0051 L526.0606,694.5967 L535.9848,695.9988 L545.9091,694.2496 L555.8333,695.4943 L565.7576,692.784 L575.6818,692.4547 L585.6061,695.6037 L595.5303,692.3489 L605.4545,695.618 L615.3788,694.8118 L625.303,693.5463 L635.2273,693.3174 L645.1515,695.4841 L655.0758,693.4625 L665,694.2608 L665,694.2608 L666.5783,694.2608 L663.526,684.8718 L666.6465,675.4829 L666.2915,666.0939 L665.6532,656.705 L665,647.316 L665.0082,647.3572 L669.1267,647.1493 L673.107,646.2508 L677.0295,645.0635 L681.0468,644.3498 L685,643.316 L684.9773,643.2025 L681.1249,643.1405 L677.027,641.851 L673.0301,641.0664 L668.8939,639.5858 L665,639.316 L664.6398,639.316 L665.4718,631.9271 L665.382,624.5381 L664.9618,617.1492 L664.7136,609.7602 L665,602.3713 L664.8624,602.2337 L662.5687,599.94 L661.2607,598.6319 L659.4648,596.8361 L657.3309,594.7021 L655,592.3713 L655,594.2244 L645.0769,592.0067 L635.1538,592.6038 L625.2308,591.3377 L615.3077,593.1287 L605.3846,593.0293 L595.4615,593.8443 L585.5385,591.7588 L575.6154,592.0128 L565.6923,593.5538 L555.7692,593.8842 L545.8462,591.0045 L535.9231,591.8542 L526,592.7693 L516.0769,590.7423 L506.1538,593.3136 L496.2308,593.0592 L486.3077,592.1026 L476.3846,592.7506 L466.4615,594.3144 L456.5385,591.5369 L446.6154,593.2112 L436.6923,593.133 L426.7692,592.68 L416.8462,592.747 L406.9231,592.6739 L397,590.7068 L387.0769,591.3024 L377.1538,591.1405 L367.2308,592.5415 L357.3077,592.6063 L347.3846,592.8026 L337.4615,591.5953 L327.5385,592.1912 L317.6154,592.0507 L307.6923,593.9095 L297.7692,593.5088 L287.8462,591.0765 L277.9231,592.1768 L268,590.832 L258.0769,593.1403 L248.1538,593.9939 L238.2308,593.8234 L228.3077,591.2098 L218.3846,593.6085 L208.4615,590.3904 L198.5385,592.905 L188.6154,591.5731 L178.6923,592.6292 L168.7692,593.0122 L158.8462,593.6302 L148.9231,590.4515 L139,593.6392 L129.0769,592.8464 L119.1538,593.3188 L109.2308,594.3654 L99.3077,592.3859 L89.3846,592.8386 L79.4615,592.9404 L69.5385,592.8972 L59.6154,592.3691 L49.6923,594.2665 L39.7692,590.7453 L29.8462,593.8787 L19.9231,590.7073 L10,592.3713 L10,592.3713 " fill="#FFFFE0" style="stroke:#181818;stroke-width:4.0;"/><path d="M655,592.3713 L655.1868,592.3713 L654.6317,594.3713 L655.1718,596.3713 L655.3553,598.3713 L654.3659,600.3713 L655,602.3713 L655,602.3022 L657,601.9922 L659,602.0304 L661,602.3107 L663,601.7567 L665,602.3713 L665.348,602.7192 L662.6038,599.9751 L660.8757,598.247 L659.2715,596.6428 L656.9461,594.3173 L655,592.3713 " fill="#FFFFE0" style="stroke:#181818;stroke-width:4.0;"/><text fill="#000000" font-family="Chalkduster" font-size="24" lengthAdjust="spacing" textLength="413" x="16" y="621.2121">- Choose &amp; configure storage</text><text fill="#000000" font-family="Chalkduster" font-size="24" lengthAdjust="spacing" textLength="634" x="16" y="651.842">- Configure indexing for collection structure</text><text fill="#000000" font-family="Chalkduster" font-size="24" lengthAdjust="spacing" textLength="12" x="16" y="682.4718">&#160;</text><polygon fill="#F1F1F1" points="697.5,618.0011,697.5,618.2113,707.5769,617.5868,717.6538,618.1944,727.7308,618.4008,737.8077,617.2877,747.8846,617.9234,757.9615,617.5746,768.0385,617.6176,778.1154,617.9329,788.1923,617.3097,798.2692,618.5547,808.3462,617.3708,818.4231,617.8033,828.5,618.433,838.5769,617.9153,848.6538,618.0693,858.7308,617.9691,868.8077,618.1796,878.8846,618.2402,888.9615,618.5868,899.0385,618.6721,909.1154,618.6804,919.1923,618.2557,929.2692,618.4647,939.3462,618.7033,949.4231,617.2799,959.5,618.6796,969.5769,617.7046,979.6538,618.5349,989.7308,617.5061,999.8077,617.9326,1009.8846,618.7427,1019.9615,617.9524,1030.0385,618.1064,1040.1154,618.3397,1050.1923,618.4173,1060.2692,617.9972,1070.3462,618.2883,1080.4231,617.4287,1090.5,618.0011,1090.5363,618.0887,1092.3377,618.9021,1094.0922,619.6025,1095.8815,620.3866,1097.5094,620.7813,1099.3388,621.6623,1099.138,621.5791,1099.8797,623.3508,1100.7852,625.1903,1101.475,626.9405,1102.4776,628.8202,1103,630.5011,1102.9418,630.5011,1102.8856,635.6271,1103.0761,640.753,1102.7777,645.879,1102.827,651.005,1103,656.1309,1103.1999,656.2137,1102.4019,657.9543,1101.7617,659.7602,1100.7042,661.3932,1100.1694,663.2427,1099.3388,664.9698,1099.4141,665.1516,1097.5108,665.5565,1095.7911,666.4047,1094.0516,667.2053,1092.3509,668.0994,1090.5,668.6309,1090.5,668.6267,1080.4231,669.0935,1070.3462,668.0771,1060.2692,667.9537,1050.1923,669.1345,1040.1154,667.914,1030.0385,669.1399,1019.9615,668.8376,1009.8846,668.363,999.8077,668.2772,989.7308,669.0897,979.6538,668.3316,969.5769,669.2228,959.5,668.0782,949.4231,669.2484,939.3462,669.1152,929.2692,668.8759,919.1923,668.6781,909.1154,669.3575,899.0385,669.2445,888.9615,668.8002,878.8846,668.8991,868.8077,668.5007,858.7308,669.3474,848.6538,668.7858,838.5769,668.8035,828.5,668.0226,818.4231,668.2257,808.3462,669.1617,798.2692,669.0607,788.1923,668.588,778.1154,668.3088,768.0385,668.412,757.9615,667.9448,747.8846,669.0457,737.8077,669.3705,727.7308,669.1573,717.6538,669.3259,707.5769,668.4942,697.5,668.6309,697.5111,668.6578,695.6828,667.7793,694.0007,667.2539,692.2282,666.5102,690.4994,665.8721,688.6612,664.9698,688.5904,664.9405,687.8875,663.1848,687.3333,661.4908,686.6392,659.7388,685.5744,657.8333,685,656.1309,684.9354,656.1309,685.0498,651.005,684.7964,645.879,685.1178,640.753,685.086,635.6271,685,630.5011,684.969,630.4882,685.776,628.7515,686.6889,627.0585,687.1003,625.1579,688.0259,623.4702,688.6612,621.6623,688.6976,621.7502,690.4437,620.9657,692.2147,620.2412,693.9789,619.5005,695.6526,618.5411,697.5,618.0011" style="stroke:#181818;stroke-width:0.5;"/><text fill="#000000" font-family="Chalkduster" font-size="24" lengthAdjust="spacing" textLength="374" x="707" y="651.842">Configure an RRKive stack</text><path d="M598.5,150.521 L598.5,150.6144 L596.5,150.3369 L594.5,150.6069 L592.5,150.6986 L590.5,150.2039 L588.5,150.521 " fill="#8B0000" style="stroke:#8B0000;stroke-width:4.0;"/><path d="M588.5,150.521 L588.5934,150.521 L588.3159,155.584 L588.5859,160.647 L588.6776,165.7099 L588.1829,170.7729 L588.5,175.8359 " fill="#8B0000" style="stroke:#8B0000;stroke-width:4.0;"/><polygon fill="#8B0000" points="584.5,165.8359,584.565,165.8619,585.1718,167.7846,586.1598,169.8598,587.0237,171.8854,587.4792,173.7476,588.5,175.8359,588.4759,175.8263,589.168,173.7831,589.9813,171.7884,590.8789,169.8275,591.486,167.7503,592.5,165.8359,592.6305,165.9664,591.5514,166.4874,590.8534,167.3893,590.2018,168.3377,589.2798,169.0157,588.5,169.8359,588.5161,169.852,587.6925,169.0284,586.9421,168.278,586.1564,167.4923,585.438,166.774,584.5,165.8359" style="stroke:#8B0000;stroke-width:1.0;"/><path d="M1189.5,150.521 L1189.5,150.6144 L1191.5,150.3369 L1193.5,150.6069 L1195.5,150.6986 L1197.5,150.2039 L1199.5,150.521 " fill="#8B0000" style="stroke:#8B0000;stroke-width:4.0;"/><path d="M1199.5,150.521 L1199.5934,150.521 L1199.3159,155.584 L1199.5859,160.647 L1199.6776,165.7099 L1199.1829,170.7729 L1199.5,175.8359 " fill="#8B0000" style="stroke:#8B0000;stroke-width:4.0;"/><polygon fill="#8B0000" points="1195.5,165.8359,1195.565,165.8619,1196.1718,167.7846,1197.1598,169.8598,1198.0237,171.8854,1198.4792,173.7476,1199.5,175.8359,1199.4759,175.8263,1200.168,173.7831,1200.9813,171.7884,1201.8789,169.8275,1202.486,167.7503,1203.5,165.8359,1203.6305,165.9664,1202.5514,166.4874,1201.8534,167.3893,1201.2018,168.3377,1200.2798,169.0157,1199.5,169.8359,1199.5161,169.852,1198.6925,169.0284,1197.9421,168.278,1197.1564,167.4923,1196.438,166.774,1195.5,165.8359" style="stroke:#8B0000;stroke-width:1.0;"/><path d="M588.5,257.0956 L588.5934,257.0956 L588.3159,260.6956 L588.5859,264.2956 L588.6776,267.8956 L588.1829,271.4956 L588.5,275.0956 " fill="#8B0000" style="stroke:#8B0000;stroke-width:4.0;"/><path d="M588.5,275.0956 L588.5,275.3758 L598.6207,274.5432 L608.7414,275.3533 L618.8621,275.6285 L628.9828,274.1444 L639.1034,274.992 L649.2241,274.5269 L659.3448,274.5842 L669.4655,275.0047 L679.5862,274.1738 L689.7069,275.8338 L699.8276,274.2552 L709.9483,274.8319 L720.069,275.6715 L730.1897,274.9812 L740.3103,275.1866 L750.431,275.053 L760.5517,275.3336 L770.6724,275.4144 L780.7931,275.8765 L790.9138,275.9903 L801.0345,276.0013 L811.1552,275.4351 L821.2759,275.7137 L831.3966,276.0319 L841.5172,274.134 L851.6379,276.0003 L861.7586,274.7002 L871.8793,275.8073 L882,275.0956 " fill="#8B0000" style="stroke:#8B0000;stroke-width:4.0;"/><polygon fill="#8B0000" points="872,271.0956,872.026,271.1606,873.9487,271.7673,876.0239,272.7554,878.0495,273.6193,879.9117,274.0748,882,275.0956,881.9904,275.0715,879.9472,275.7636,877.9525,276.5769,875.9916,277.4745,873.9144,278.0816,872,279.0956,872.1305,279.2261,872.6514,278.147,873.5534,277.449,874.5018,276.7974,875.1798,275.8754,876,275.0956,876.0161,275.1117,875.1925,274.288,874.4421,273.5377,873.6564,272.7519,872.938,272.0336,872,271.0956" style="stroke:#8B0000;stroke-width:1.0;"/><path d="M1199.5,226.4657 L1199.7802,226.4657 L1198.9476,236.1917 L1199.7577,245.9177 L1200.0329,255.6436 L1198.5488,265.3696 L1199.5,275.0956 " fill="#8B0000" style="stroke:#8B0000;stroke-width:4.0;"/><path d="M1199.5,275.0956 L1199.5,275.3758 L1189.3793,274.5432 L1179.2586,275.3533 L1169.1379,275.6285 L1159.0172,274.1444 L1148.8966,274.992 L1138.7759,274.5269 L1128.6552,274.5842 L1118.5345,275.0047 L1108.4138,274.1738 L1098.2931,275.8338 L1088.1724,274.2552 L1078.0517,274.8319 L1067.931,275.6715 L1057.8103,274.9812 L1047.6897,275.1866 L1037.569,275.053 L1027.4483,275.3336 L1017.3276,275.4144 L1007.2069,275.8765 L997.0862,275.9903 L986.9655,276.0013 L976.8448,275.4351 L966.7241,275.7137 L956.6034,276.0319 L946.4828,274.134 L936.3621,276.0003 L926.2414,274.7002 L916.1207,275.8073 L906,275.0956 " fill="#8B0000" style="stroke:#8B0000;stroke-width:4.0;"/><polygon fill="#8B0000" points="916,271.0956,916.026,271.1606,913.9487,271.7673,912.0239,272.7554,910.0495,273.6193,907.9117,274.0748,906,275.0956,905.9904,275.0715,907.9472,275.7636,909.9525,276.5769,911.9916,277.4745,913.9144,278.0816,916,279.0956,916.1305,279.2261,915.0514,278.147,914.3534,277.449,913.7018,276.7974,912.7798,275.8754,912,275.0956,912.0161,275.1117,912.7925,274.288,913.6421,273.5377,914.4564,272.7519,915.338,272.0336,916,271.0956" style="stroke:#8B0000;stroke-width:1.0;"/><path d="M894,104.6022 L894.0934,104.6022 L893.8159,110.723 L894.0859,116.8438 L894.1776,122.9645 L893.6829,129.0853 L894,135.2061 " fill="#8B0000" style="stroke:#8B0000;stroke-width:4.0;"/><polygon fill="#8B0000" points="890,125.2061,890.065,125.2321,890.6718,127.1548,891.6598,129.23,892.5237,131.2556,892.9792,133.1178,894,135.2061,893.9759,135.1965,894.668,133.1533,895.4813,131.1586,896.3789,129.1976,896.986,127.1205,898,125.2061,898.1305,125.3366,897.0514,125.8575,896.3534,126.7595,895.7018,127.7079,894.7798,128.3859,894,129.2061,894.0161,129.2222,893.1925,128.3985,892.4421,127.6482,891.6564,126.8624,890.938,126.1441,890,125.2061" style="stroke:#8B0000;stroke-width:1.0;"/><path d="M894,287.0956 L894.0934,287.0956 L893.8159,291.0956 L894.0859,295.0956 L894.1776,299.0956 L893.6829,303.0956 L894,307.0956 " fill="#8B0000" style="stroke:#8B0000;stroke-width:4.0;"/><polygon fill="#8B0000" points="890,297.0956,890.065,297.1216,890.6718,299.0443,891.6598,301.1195,892.5237,303.1451,892.9792,305.0073,894,307.0956,893.9759,307.086,894.668,305.0428,895.4813,303.0481,896.3789,301.0871,896.986,299.01,898,297.0956,898.1305,297.2261,897.0514,297.747,896.3534,298.649,895.7018,299.5974,894.7798,300.2754,894,301.0956,894.0161,301.1117,893.1925,300.288,892.4421,299.5377,891.6564,298.7519,890.938,298.0336,890,297.0956" style="stroke:#8B0000;stroke-width:1.0;"/><path d="M894,357.7254 L894.2802,357.7254 L893.4476,367.9722 L894.2577,378.2189 L894.5329,388.4656 L893.0488,398.7124 L894,408.9591 " fill="#8B0000" style="stroke:#8B0000;stroke-width:4.0;"/><polygon fill="#8B0000" points="890,398.9591,890.065,398.9851,890.6718,400.9078,891.6598,402.983,892.5237,405.0086,892.9792,406.8708,894,408.9591,893.9759,408.9495,894.668,406.9063,895.4813,404.9116,896.3789,402.9507,896.986,400.8735,898,398.9591,898.1305,399.0896,897.0514,399.6106,896.3534,400.5125,895.7018,401.4609,894.7798,402.1389,894,402.9591,894.0161,402.9752,893.1925,402.1516,892.4421,401.4012,891.6564,400.6155,890.938,399.8972,890,398.9591" style="stroke:#8B0000;stroke-width:1.0;"/><path d="M894,459.5889 L894.2802,459.5889 L893.4476,469.847 L894.2577,480.1051 L894.5329,490.3633 L893.0488,500.6214 L893.8964,510.8795 L894,521.1376 " fill="#8B0000" style="stroke:#8B0000;stroke-width:4.0;"/><polygon fill="#8B0000" points="890,511.1376,890.065,511.1636,890.6718,513.0863,891.6598,515.1615,892.5237,517.187,892.9792,519.0492,894,521.1376,893.9759,521.1279,894.668,519.0848,895.4813,517.0901,896.3789,515.1291,896.986,513.052,898,511.1376,898.1305,511.2681,897.0514,511.789,896.3534,512.6909,895.7018,513.6394,894.7798,514.3173,894,515.1376,894.0161,515.1536,893.1925,514.33,892.4421,513.5796,891.6564,512.7939,890.938,512.0756,890,511.1376" style="stroke:#8B0000;stroke-width:1.0;"/><path d="M894,571.7674 L894.2802,571.7674 L893.4476,581.0141 L894.2577,590.2609 L894.5329,599.5076 L893.0488,608.7544 L894,618.0011 " fill="#8B0000" style="stroke:#8B0000;stroke-width:4.0;"/><polygon fill="#8B0000" points="890,608.0011,890.065,608.0271,890.6718,609.9498,891.6598,612.025,892.5237,614.0506,892.9792,615.9128,894,618.0011,893.9759,617.9915,894.668,615.9483,895.4813,613.9536,896.3789,611.9927,896.986,609.9155,898,608.0011,898.1305,608.1316,897.0514,608.6525,896.3534,609.5545,895.7018,610.5029,894.7798,611.1809,894,612.0011,894.0161,612.0172,893.1925,611.1936,892.4421,610.4432,891.6564,609.6575,890.938,608.9391,890,608.0011" style="stroke:#8B0000;stroke-width:1.0;"/><!--SRC=[JLB1Rjim3BthAxZBa1oStfDZkXL5aRR8KEmoO6KbEjOYYuP8PytVZtAQUZx84lNUunF9Bp7xD0RwtMC-msfr4r2niGCUgAUiZUWvqKhVrMdKH6juBZHWYVa0BHV03F2wtp_44xqw9uf5dNEnXSME5AiO_F0TzJYXppmM2DnZp43lKLIMe1rbM9n9bcuDsy8YVp4TGHdsJysse5AbzgW2lmneqfaeK5Xk7DJFKHA2HURAlsK_LjjmJRjncKsXn4EdRb9hdi2Rwy2MEOgZ7A12NDt5rZHsU2Gmis9cFTcljmNx8P6HBl826sV8Eyeq6KIuIkyu47oFYJRkiIPErAgRWgq51IZZcrNHDV1PdxkNUplUzmCNXLD4aA4G1kc8LEpcje9EcAAX8-VPyHf-bZXbxqRhM5DPLHs6mZKRV7YuFBwPY-Cv9V9L36w0t_xO7aJBw7KiPC0NAwWo9wbTkBwvDcf-dliskzXoRkF1g7KQBhDWSkYFjKfp5HhOTimc_TKCN1cYN6pKwkLdBEPWm_4nOFzvdItEsVy1]--></g></svg>