<?xml version="1.0" encoding="UTF-8" standalone="no"?><svg xmlns="http://www.w3.org/2000/svg" xmlns:xlink="http://www.w3.org/1999/xlink" contentStyleType="text/css" height="644px" preserveAspectRatio="none" style="width:783px;height:644px;background:#FFFFFF;" version="1.1" viewBox="0 0 783 644" width="783px" zoomAndPan="magnify"><defs/><g><text fill="#000000" font-family="Chalkduster" font-size="42" font-weight="bold" lengthAdjust="spacing" textLength="390" x="189.5" y="51.7215">RO-Crate Layers</text><!--cluster p--><g id="cluster_p"><polygon fill="#E6E6FA" points="41.5,83.8912,41.5,84.1013,51.5411,83.4768,61.5822,84.0844,71.6233,84.2908,81.6644,83.1778,91.7055,83.8134,101.7466,83.4647,111.7877,83.5077,121.8288,83.823,131.8699,83.1998,141.911,84.4448,151.9521,83.2609,161.9932,83.6934,172.0342,84.3231,182.0753,83.8054,192.1164,83.9594,202.1575,83.8592,212.1986,84.0697,222.2397,84.1303,232.2808,84.4769,242.3219,84.5622,252.363,84.5704,262.4041,84.1458,272.4452,84.3547,282.4863,84.5934,292.5274,83.17,302.5685,84.5697,312.6096,83.5947,322.6507,84.425,332.6918,83.3961,342.7329,83.8227,352.774,84.6328,362.8151,83.8424,372.8562,83.9965,382.8973,84.2298,392.9384,84.3074,402.9795,83.8873,413.0205,84.1784,423.0616,83.3187,433.1027,84.1755,443.1438,84.4394,453.1849,84.3357,463.226,84.5042,473.2671,83.4081,483.3082,83.239,493.3493,83.2698,503.3904,83.8323,513.4315,83.6946,523.4726,84.5726,533.5137,83.7165,543.5548,83.5481,553.5959,84.1194,563.637,83.2243,573.6781,83.372,583.7192,84.5401,593.7603,84.3268,603.8014,84.6257,613.8425,83.5694,623.8836,84.2104,633.9247,84.4816,643.9658,83.4188,654.0068,83.7953,664.0479,84.0171,674.089,84.5429,684.1301,83.887,694.1712,84.3537,704.2123,83.3374,714.2534,83.2139,724.2945,84.3948,734.3356,83.1742,744.3767,84.4001,754.4178,84.0978,764.4589,83.6232,774.5,83.8912,774.4549,83.7822,774.9121,84.1789,775.1689,84.0919,775.6362,84.5128,775.8437,84.3067,776.2678,84.6234,776.4579,84.7022,776.5634,85.0387,776.6361,85.3617,776.7216,85.6901,777.0773,86.1303,777,86.3912,777.6136,86.3912,777.1693,96.2859,777.2682,106.1806,776.8697,116.0754,777.7165,125.9701,777.1549,135.8648,777.1726,145.7596,776.3916,155.6543,776.5948,165.5491,777.5307,175.4438,777.4298,185.3385,776.9571,195.2333,776.6778,205.128,776.7811,215.0227,776.3138,224.9175,777.4147,234.8122,777.7396,244.707,777.5264,254.6017,777.6949,264.4964,777,274.3912,776.9579,274.3737,776.8804,274.7558,776.5877,275.0488,776.6481,275.4881,776.4902,275.8369,776.2678,276.1589,776.3382,276.329,775.8849,276.2346,775.5435,276.4104,775.2637,276.7348,774.9259,276.9194,774.5,276.8912,774.5,276.3786,764.4589,276.6973,754.4178,277.0404,744.3767,276.2803,734.3356,277.2446,724.2945,277.1492,714.2534,276.7904,704.2123,277.0334,694.1712,277.6198,684.1301,276.5783,674.089,277.2061,664.0479,277.1768,654.0068,277.0069,643.9658,277.0321,633.9247,277.0046,623.8836,276.267,613.8425,276.4903,603.8014,276.4296,593.7603,276.955,583.7192,276.9793,573.6781,277.0529,563.637,276.6002,553.5959,276.8236,543.5548,276.7709,533.5137,277.468,523.4726,277.3177,513.4315,276.4056,503.3904,276.8182,493.3493,276.3139,483.3082,277.1795,473.2671,277.4996,463.226,277.4357,453.1849,276.4556,443.1438,277.3551,433.1027,276.1484,423.0616,277.0913,413.0205,276.5918,402.9795,276.9879,392.9384,277.1315,382.8973,277.3633,372.8562,276.1712,362.8151,277.3666,352.774,277.0693,342.7329,277.2465,332.6918,277.639,322.6507,276.8966,312.6096,277.0664,302.5685,277.1046,292.5274,277.0884,282.4863,276.8903,272.4452,277.6019,262.4041,276.2814,252.363,277.4564,242.3219,276.2672,232.2808,276.3508,222.2397,276.9312,212.1986,276.9194,202.1575,276.3983,192.1164,277.3049,182.0753,277,172.0342,277.6178,161.9932,277.5583,151.9521,276.4429,141.911,276.4932,131.8699,276.762,121.8288,277.2467,111.7877,277.2941,101.7466,277.1923,91.7055,276.5492,81.6644,277.5275,71.6233,277.5249,61.5822,276.8439,51.5411,276.6521,41.5,276.8912,41.4488,276.7676,41.1191,276.6786,40.8104,276.6406,40.4306,276.4308,40.0325,276.1767,39.7322,276.1589,39.8823,276.2211,39.4445,275.7468,39.5941,275.5159,39.4245,275.1528,39.261,274.7922,39,274.3912,39.6925,274.3912,38.7541,264.4964,38.6994,254.6017,39.5189,244.707,38.4031,234.8122,38.766,224.9175,39.1155,215.0227,39.0687,205.128,38.6415,195.2333,38.957,185.3385,39.7446,175.4438,39.6485,165.5491,38.4037,155.6543,39.0785,145.7596,38.4861,135.8648,38.9737,125.9701,39.293,116.0754,39.4199,106.1806,38.3353,96.2859,39,86.3912,39.1234,86.4423,39.149,86.0387,39.1219,85.6132,39.2943,85.2704,39.6864,85.0186,39.7322,84.6234,39.7641,84.7003,40.0837,84.4719,40.3536,84.1235,40.8768,84.3867,41.1067,83.9416,41.5,83.8912" style="stroke:#181818;stroke-width:4.0;"/><text fill="#000000" font-family="Chalkduster" font-size="24" font-style="italic" lengthAdjust="spacing" textLength="170" x="323" y="109.732">«standards»</text><text fill="#000000" font-family="Chalkduster" font-size="24" font-weight="bold" lengthAdjust="spacing" textLength="209" x="303.5" y="140.3619">Domain Profile</text><text fill="#000000" font-family="Chalkduster" font-size="24" font-weight="bold" lengthAdjust="spacing" textLength="12" x="402" y="170.9917"> </text></g><!--cluster roc--><g id="cluster_roc"><polygon fill="#E6E6FA" points="9.5,348.8912,9.5,349.1013,19.4107,348.4768,29.3214,349.0844,39.2321,349.2908,49.1429,348.1778,59.0536,348.8134,68.9643,348.4647,78.875,348.5077,88.7857,348.823,98.6964,348.1998,108.6071,349.4448,118.5179,348.2609,128.4286,348.6934,138.3393,349.3231,148.25,348.8054,158.1607,348.9594,168.0714,348.8592,177.9821,349.0697,187.8929,349.1303,197.8036,349.4769,207.7143,349.5622,217.625,349.5704,227.5357,349.1458,237.4464,349.3547,247.3571,349.5934,257.2679,348.17,267.1786,349.5697,277.0893,348.5947,287,349.425,296.9107,348.3961,306.8214,348.8227,316.7321,349.6328,326.6429,348.8424,336.5536,348.9965,346.4643,349.2298,356.375,349.3074,366.2857,348.8873,376.1964,349.1784,386.1071,348.3187,396.0179,349.1755,405.9286,349.4394,415.8393,349.3357,425.75,349.5042,435.6607,348.4081,445.5714,348.239,455.4821,348.2698,465.3929,348.8323,475.3036,348.6946,485.2143,349.5726,495.125,348.7165,505.0357,348.5481,514.9464,349.1194,524.8571,348.2243,534.7679,348.372,544.6786,349.5401,554.5893,349.3268,564.5,348.8912,564.5937,349.1174,564.8125,348.9385,565.2478,349.2824,565.636,349.5123,565.854,349.3315,566.2678,349.6234,566.2382,349.6112,566.453,349.993,566.7614,350.4136,566.7058,350.6835,566.996,351.0966,567,351.3912,566.4462,351.3912,566.3227,361.2187,567.5036,371.0463,566.2831,380.8739,567.509,390.7015,567.2066,400.5291,566.7321,410.3567,566.6462,420.1843,567.4588,430.0119,566.7007,439.8394,567.5919,449.667,566.4473,459.4946,567.6174,469.3222,567.4843,479.1498,567.245,488.9774,567.0472,498.805,567.7266,508.6325,567.6136,518.4601,567.1693,528.2877,567.2682,538.1153,566.8697,547.9429,567.7165,557.7705,567.1549,567.5981,567.1726,577.4256,566.3916,587.2532,566.5948,597.0808,567.5307,606.9084,567.4298,616.736,566.9571,626.5636,567,636.3912,566.9008,636.3501,566.7861,636.7168,566.4958,637.0107,566.6884,637.5047,566.642,637.8997,566.2678,638.1589,566.3349,638.321,566.0029,638.5194,565.5432,638.4097,565.2182,638.6251,564.8041,638.6254,564.5,638.8912,564.5,639.1752,554.5893,639.1379,544.6786,639.4435,534.7679,638.6615,524.8571,638.7568,514.9464,639.3346,505.0357,639.4585,495.125,638.3786,485.2143,638.6973,475.3036,639.0404,465.3929,638.2803,455.4821,639.2446,445.5714,639.1492,435.6607,638.7904,425.75,639.0334,415.8393,639.6198,405.9286,638.5783,396.0179,639.2061,386.1071,639.1768,376.1964,639.0069,366.2857,639.0321,356.375,639.0046,346.4643,638.267,336.5536,638.4903,326.6429,638.4296,316.7321,638.955,306.8214,638.9793,296.9107,639.0529,287,638.6002,277.0893,638.8236,267.1786,638.7709,257.2679,639.468,247.3571,639.3177,237.4464,638.4056,227.5357,638.8182,217.625,638.3139,207.7143,639.1795,197.8036,639.4996,187.8929,639.4357,177.9821,638.4556,168.0714,639.3551,158.1607,638.1484,148.25,639.0913,138.3393,638.5918,128.4286,638.9879,118.5179,639.1315,108.6071,639.3633,98.6964,638.1712,88.7857,639.3666,78.875,639.0693,68.9643,639.2465,59.0536,639.639,49.1429,638.8966,39.2321,639.0664,29.3214,639.1046,19.4107,639.0884,9.5,638.8912,9.4999,638.8909,9.2371,638.9636,8.7151,638.4105,8.5114,638.6259,8.0062,638.1132,7.7322,638.1589,7.5658,638.09,7.5981,637.8105,7.448,637.4554,7.1411,637.0354,7.2739,636.7975,7,636.3912,7.1089,636.3912,7.7267,626.5636,7.6671,616.736,6.5517,606.9084,6.6021,597.0808,6.8708,587.2532,7.3555,577.4256,7.403,567.5981,7.3012,557.7705,6.658,547.9429,7.6364,538.1153,7.6338,528.2877,6.9527,518.4601,6.7609,508.6325,6.5986,498.805,6.7854,488.9774,7.1374,479.1498,6.9316,469.3222,6.5822,459.4946,7.4874,449.667,6.5411,439.8394,7.5024,430.0119,7.4272,420.1843,7.3719,410.3567,7.6925,400.5291,6.7541,390.7015,6.6994,380.8739,7.5189,371.0463,6.4031,361.2187,7,351.3912,6.9279,351.3613,7.182,351.0523,7.314,350.6928,7.329,350.2848,7.5726,349.9715,7.7322,349.6234,7.8272,349.8527,8.1685,349.6767,8.3633,349.1469,8.8029,349.2082,9.0809,348.8793,9.5,348.8912" style="stroke:#181818;stroke-width:4.0;"/><text fill="#000000" font-family="Chalkduster" font-size="24" font-style="italic" lengthAdjust="spacing" textLength="170" x="202" y="374.732">«standards»</text><text fill="#000000" font-family="Chalkduster" font-size="24" font-weight="bold" lengthAdjust="spacing" textLength="126" x="224" y="405.3619">RO-Crate</text></g><!--entity ds--><g id="elem_ds"><polygon fill="none" points="523.5,201.8912,523.5,202.1013,533.3696,201.4768,543.2391,202.0844,553.1087,202.2908,562.9783,201.1778,572.8478,201.8134,582.7174,201.4647,592.587,201.5077,602.4565,201.823,612.3261,201.1998,622.1957,202.4448,632.0652,201.2609,641.9348,201.6934,651.8043,202.3231,661.6739,201.8054,671.5435,201.9594,681.413,201.8592,691.2826,202.0697,701.1522,202.1303,711.0217,202.4769,720.8913,202.5622,730.7609,202.5704,740.6304,202.1458,750.5,201.8912,750.5591,202.0339,750.9431,202.2539,751.1151,201.962,751.6472,202.5395,751.8764,202.3856,752.2678,202.6234,752.4322,202.6915,752.2618,202.9138,752.5396,203.3218,752.9355,203.7787,752.8385,204.0314,753,204.3912,753.1053,204.3912,753.3386,213.5171,753.4162,222.6431,752.9961,231.7691,753.2872,240.895,753,250.021,752.8237,249.948,752.9411,250.4108,752.8759,250.798,752.6976,251.1384,752.603,251.5134,752.2678,251.7888,752.2061,251.64,751.831,251.7344,751.4814,251.8903,751.1996,252.21,750.8285,252.314,750.5,252.521,750.5,253.2024,740.6304,252.3463,730.7609,252.1779,720.8913,252.7493,711.0217,251.8542,701.1522,252.0019,691.2826,253.1699,681.413,252.9567,671.5435,253.2555,661.6739,252.1992,651.8043,252.8402,641.9348,253.1114,632.0652,252.0486,622.1957,252.4251,612.3261,252.647,602.4565,253.1728,592.587,252.5168,582.7174,252.9836,572.8478,251.9672,562.9783,251.8437,553.1087,253.0246,543.2391,251.8041,533.3696,253.03,523.5,252.521,523.5264,252.5846,523.1123,252.292,522.7478,252.1192,522.4979,252.2229,522.0476,251.843,521.7322,251.7888,521.9145,251.8643,521.4156,251.3647,521.6295,251.1604,521.442,250.7899,521.2219,250.4058,521,250.021,521.0472,250.021,521.7266,240.895,521.6136,231.7691,521.1693,222.6431,521.2682,213.5171,521,204.3912,520.9599,204.3745,521.3671,204.129,521.3406,203.7038,521.4925,203.3525,521.3984,202.8993,521.7322,202.6234,521.6805,202.4986,522.1535,202.6404,522.4942,202.4628,522.7874,202.1708,523.1054,201.9384,523.5,201.8912" style="stroke:#181818;stroke-width:4.0;"/><text fill="#000000" font-family="Chalkduster" font-size="24" lengthAdjust="spacing" textLength="212" x="531" y="235.732">Domain Schema</text></g><!--entity dr--><g id="elem_dr"><polygon fill="none" points="84.5,201.8912,84.5,202.1013,94.475,201.4768,104.45,202.0844,114.425,202.2908,124.4,201.1778,134.375,201.8134,144.35,201.4647,154.325,201.5077,164.3,201.823,174.275,201.1998,184.25,202.4448,194.225,201.2609,204.2,201.6934,214.175,202.3231,224.15,201.8054,234.125,201.9594,244.1,201.8592,254.075,202.0697,264.05,202.1303,274.025,202.4769,284,202.5622,293.975,202.5704,303.95,202.1458,313.925,202.3547,323.9,202.5934,333.875,201.17,343.85,202.5697,353.825,201.5947,363.8,202.425,373.775,201.3961,383.75,201.8227,393.725,202.6328,403.7,201.8424,413.675,201.9965,423.65,202.2298,433.625,202.3074,443.6,201.8873,453.575,202.1784,463.55,201.3187,473.525,202.1755,483.5,201.8912,483.5699,202.06,483.9103,202.1745,484.2853,202.3728,484.499,202.1817,484.831,202.2761,485.2678,202.6234,485.0764,202.5441,485.3961,202.9694,485.5001,203.3054,485.917,203.771,485.7998,204.0153,486,204.3912,485.6569,204.3912,486.2283,213.5171,485.3332,222.6431,485.4809,231.7691,486.649,240.895,486,250.021,486.1342,250.0766,486.0797,250.4682,485.608,250.6871,485.659,251.1224,485.596,251.5105,485.2678,251.7888,485.2075,251.6433,484.902,251.9057,484.5767,252.1205,484.2902,252.4288,483.853,252.3733,483.5,252.521,483.5,252.9836,473.525,251.9672,463.55,251.8437,453.575,253.0246,443.6,251.8041,433.625,253.03,423.65,252.7276,413.675,252.2531,403.7,252.1672,393.725,252.9798,383.75,252.2217,373.775,253.1129,363.8,251.9682,353.825,253.1384,343.85,253.0053,333.875,252.766,323.9,252.5682,313.925,253.2476,303.95,253.1346,293.975,252.6902,284,252.7892,274.025,252.3907,264.05,253.2374,254.075,252.6759,244.1,252.6936,234.125,251.9126,224.15,252.1158,214.175,253.0517,204.2,252.9508,194.225,252.4781,184.25,252.1988,174.275,252.3021,164.3,251.8348,154.325,252.9357,144.35,253.2606,134.375,253.0474,124.4,253.2159,114.425,252.3843,104.45,252.6082,94.475,252.1334,84.5,252.521,84.5362,252.6085,84.1779,252.4505,83.8634,252.3982,83.41,252.0109,83.0686,251.8938,82.7322,251.7888,82.8688,251.8453,82.7605,251.5076,82.2815,251.0163,82.2332,250.7034,82.1924,250.3936,82,250.021,81.3892,250.021,82.3534,240.895,82.258,231.7691,81.8992,222.6431,82.1422,213.5171,82,204.3912,82.2244,204.4841,82.0501,203.9977,82.3899,203.7242,82.5273,203.3669,82.6214,202.9917,82.7322,202.6234,82.7502,202.6668,83.1003,202.5119,83.3597,202.1383,83.7418,202.0606,84.0876,201.8955,84.5,201.8912" style="stroke:#181818;stroke-width:4.0;"/><text fill="#000000" font-family="Chalkduster" font-size="24" lengthAdjust="spacing" textLength="384" x="92" y="235.732">Domain Rules / Constraints</text></g><!--entity bp--><g id="elem_bp"><polygon fill="none" points="26,428.8912,26,429.1013,36.1111,428.4768,46.2222,429.0844,56.3333,429.2908,66.4444,428.1778,76.5556,428.8134,86.6667,428.4647,96.7778,428.5077,106.8889,428.823,117,428.1998,127.1111,429.4448,137.2222,428.2609,147.3333,428.6934,157.4444,429.3231,167.5556,428.8054,177.6667,428.9594,187.7778,428.8592,197.8889,429.0697,208,428.8912,208.0305,428.9648,208.4283,429.218,208.7927,429.3907,209.1473,429.5397,209.4467,429.5554,209.7678,429.6234,209.9105,429.6825,210.1305,430.0665,209.8386,430.2385,210.4161,430.7706,210.2622,430.9998,210.5,431.3912,211.0338,431.3912,210.005,440.5171,210.4315,449.6431,211.2416,458.7691,210.4513,467.895,210.5,477.021,210.5324,477.0344,210.4578,477.4177,210.3353,477.7812,210.0595,478.0812,210.0027,478.4718,209.7678,478.7888,209.6947,478.6125,209.4505,479.0228,209.1306,479.2505,208.7638,479.365,208.4318,479.5633,208,479.521,208,479.0379,197.8889,478.8688,187.7778,478.8996,177.6667,479.4621,167.5556,479.3245,157.4444,480.2024,147.3333,479.3463,137.2222,479.1779,127.1111,479.7493,117,478.8542,106.8889,479.0019,96.7778,480.1699,86.6667,479.9567,76.5556,480.2555,66.4444,479.1992,56.3333,479.8402,46.2222,480.1114,36.1111,479.0486,26,479.521,25.9878,479.4915,25.6625,479.4133,25.376,479.4288,24.9388,479.0804,24.6448,479.0777,24.2322,478.7888,24.0617,478.7181,23.8772,478.3488,24.0944,478.1459,23.5721,477.6366,23.8032,477.4395,23.5,477.021,23.7066,477.021,23.2321,467.895,23.1462,458.7691,23.9588,449.6431,23.2007,440.5171,23.5,431.3912,23.6823,431.4667,23.4762,430.9671,23.983,430.7628,24.0885,430.3923,24.1612,430.0082,24.2322,429.6234,24.2383,429.6379,24.6785,429.7007,25.0176,429.5195,25.3145,429.2362,25.6807,429.1202,26,428.8912" style="stroke:#181818;stroke-width:4.0;"/><text fill="#000000" font-family="Chalkduster" font-size="24" lengthAdjust="spacing" textLength="167" x="33.5" y="462.732">Base Profile</text></g><!--entity ss--><g id="elem_ss"><polygon fill="none" points="248,428.8912,248,429.1013,258,428.4768,268,429.0844,278,429.2908,288,428.1778,298,428.8134,308,428.4647,318,428.5077,328,428.823,338,428.1998,348,429.4448,358,428.2609,368,428.6934,378,429.3231,388,428.8054,398,428.9594,408,428.8592,418,429.0697,428,429.1303,438,429.4769,448,429.5622,458,429.5704,468,429.1458,478,429.3547,488,429.5934,498,428.17,508,429.5697,518,428.5947,528,429.425,538,428.3961,548,428.8912,547.9913,428.8701,548.4482,429.266,548.7009,429.169,549.0741,429.3629,549.4574,429.5812,549.7678,429.6234,549.8959,429.6765,549.913,429.9764,550.1491,430.3671,550.0308,430.611,550.4411,431.0739,550.5,431.3912,551.0482,431.3912,550.9445,440.5171,551.113,449.6431,550.0169,458.7691,549.8478,467.895,550.5,477.021,550.3086,476.9417,550.3354,477.367,550.1466,477.703,550.2705,478.1686,549.8604,478.4129,549.7678,478.7888,549.724,478.6831,549.4433,479.0055,548.9756,478.8763,548.6409,479.0682,548.4363,479.5744,548,479.521,548,479.9567,538,480.2555,528,479.1992,518,479.8402,508,480.1114,498,479.0486,488,479.4251,478,479.647,468,480.1728,458,479.5168,448,479.9836,438,478.9672,428,478.8437,418,480.0246,408,478.8041,398,480.03,388,479.7276,378,479.2531,368,479.1672,358,479.9798,348,479.2217,338,480.1129,328,478.9682,318,480.1384,308,480.0053,298,479.766,288,479.5682,278,480.2476,268,480.1346,258,479.6902,248,479.521,248.0342,479.6036,247.6298,479.3344,247.3843,479.4487,246.9591,479.1293,246.6078,478.9884,246.2322,478.7888,246.0449,478.7112,245.961,478.3835,246.1028,478.1494,245.9252,477.7829,245.6332,477.3691,245.5,477.021,245.1778,477.021,245.2811,467.895,244.8138,458.7691,245.9147,449.6431,246.2396,440.5171,245.5,431.3912,245.6621,431.4583,245.8605,431.1263,245.7508,430.6666,245.9662,430.3416,245.9664,429.9275,246.2322,429.6234,246.2685,429.7109,246.6173,429.5529,247.0098,429.5006,247.2636,429.1133,247.6293,428.9962,248,428.8912" style="stroke:#181818;stroke-width:4.0;"/><text fill="#000000" font-family="Chalkduster" font-size="24" lengthAdjust="spacing" textLength="285" x="255.5" y="462.732">Schema: Schema.org+</text></g><!--entity sx--><g id="elem_sx"><polygon fill="none" points="274,571.8912,274,572.1013,284,571.4768,294,572.0844,304,572.2908,314,571.1778,324,571.8134,334,571.4647,344,571.5077,354,571.823,364,571.1998,374,572.4448,384,571.2609,394,571.6934,404,572.3231,414,571.8054,424,571.9594,434,571.8592,444,572.0697,454,572.1303,464,572.4769,474,572.5622,484,572.5704,494,572.1458,504,571.8912,504.0591,572.0339,504.4431,572.2539,504.6151,571.962,505.1472,572.5395,505.3764,572.3856,505.7678,572.6234,505.9322,572.6915,505.7618,572.9138,506.0396,573.3218,506.4355,573.7787,506.3385,574.0314,506.5,574.3912,506.6053,574.3912,506.8386,583.5171,506.9162,592.6431,506.4961,601.7691,506.7872,610.895,506.5,620.021,506.3237,619.948,506.4411,620.4108,506.3759,620.798,506.1976,621.1384,506.103,621.5134,505.7678,621.7888,505.7061,621.64,505.331,621.7344,504.9814,621.8903,504.6996,622.21,504.3285,622.314,504,622.521,504,623.2024,494,622.3463,484,622.1779,474,622.7493,464,621.8542,454,622.0019,444,623.1699,434,622.9567,424,623.2555,414,622.1992,404,622.8402,394,623.1114,384,622.0486,374,622.4251,364,622.647,354,623.1728,344,622.5168,334,622.9836,324,621.9672,314,621.8437,304,623.0246,294,621.8041,284,623.03,274,622.521,274.0264,622.5846,273.6123,622.292,273.2478,622.1192,272.9979,622.2229,272.5476,621.843,272.2322,621.7888,272.4145,621.8643,271.9156,621.3647,272.1295,621.1604,271.942,620.7899,271.7219,620.4058,271.5,620.021,271.5472,620.021,272.2266,610.895,272.1136,601.7691,271.6693,592.6431,271.7682,583.5171,271.5,574.3912,271.4599,574.3745,271.8671,574.129,271.8406,573.7038,271.9925,573.3525,271.8984,572.8993,272.2322,572.6234,272.1805,572.4986,272.6535,572.6404,272.9942,572.4628,273.2874,572.1708,273.6054,571.9384,274,571.8912" style="stroke:#181818;stroke-width:4.0;"/><text fill="#000000" font-family="Chalkduster" font-size="24" lengthAdjust="spacing" textLength="215" x="281.5" y="605.732">Syntax: JSON-LD</text></g><!--link ss to sx--><g id="link_ss_sx"><path d="M396.41,480.2712 L396.6897,480.289 L395.2543,489.7049 L395.4583,499.2254 L395.1285,508.7118 L393.043,518.0861 L393.2844,527.609 L392.2158,537.0483 L391.6686,546.5208 L391.4838,556.0165 L390.97,565.4912 " fill="none" style="stroke:#8B0000;stroke-width:4.0;"/><polygon fill="#8B0000" points="390.67,570.2412,390.732,570.2738,391.4644,568.4334,392.5603,566.7842,393.5378,565.0727,394.1261,563.1565,395.2532,561.5237,395.2361,561.5042,394.3086,562.1624,393.4672,562.9189,392.6856,563.7436,391.6978,564.333,390.9988,565.252,391.1376,565.3736,390.0951,564.2626,389.4579,563.5068,388.8701,562.7943,387.9947,561.8296,387.2705,560.9976,387.2918,561.0055,387.9404,562.8426,388.6861,564.7156,389.385,566.5713,390.1733,568.4598,390.67,570.2412" style="stroke:#8B0000;stroke-width:4.0;"/><text fill="#000000" font-family="Chalkduster" font-size="24" lengthAdjust="spacing" textLength="160" x="395" y="534.732">Encoded in</text></g><!--link p to bp--><g id="link_p_bp"><path d="M61.2575,277.1913 L61.347,277.218 L61.1013,277.2062 L61.3803,277.3513 L61.4884,277.4452 L61.0347,277.3713 L61.3587,277.5298 L61.3256,277.5199 L61.2176,277.6109 L61.2764,277.7518 L61.4511,277.9274 L61.2263,277.9835 L61.5611,278.2069 L61.7969,278.2775 L61.3739,278.3974 L61.6391,278.7233 L61.9883,279.0743 L61.8489,279.2791 L61.9665,279.5609 L61.9955,279.5696 L62.1152,280.0975 L62.3671,280.6652 L62.5552,281.2136 L62.8651,281.7987 L62.7781,282.2646 L63.0635,282.3511 L63.7114,284.4775 L64.1752,286.548 L64.9084,288.7003 L65.6543,290.8564 L66,292.8912 L65.6938,292.7963 L68.4366,299.9177 L70.1712,306.7269 L72.6722,313.7734 L74.384,320.5754 L76.7427,327.5779 L76.7136,327.5687 L79.2492,334.6329 L81.1064,341.4832 L83.3639,348.4597 L85.6551,355.4467 L87.7038,362.3574 L88.2323,362.5267 L90.8948,372.3348 L94.4605,382.4321 L96.565,392.0615 L100.849,402.3889 L104.3801,412.4751 L106.88,422.2312 " fill="none" style="stroke:#8B0000;stroke-width:4.0;"/><polygon fill="#8B0000" points="108.42,426.9812,108.4897,426.9885,108.4883,425.0077,108.8954,423.0699,109.1695,421.1181,109.0062,419.1203,109.4483,417.1861,109.4253,417.1744,108.8075,418.1293,108.3061,419.1436,107.8856,420.1992,107.1864,421.1125,106.8775,422.225,106.9613,422.3894,105.7742,421.5237,104.832,421.138,103.9196,420.8108,102.8334,420.1429,101.8386,419.6542,101.8555,419.6694,103.1469,421.1125,104.5154,422.6247,105.8467,424.1036,107.249,425.6462,108.42,426.9812" style="stroke:#8B0000;stroke-width:4.0;"/><text fill="#000000" font-family="Chalkduster" font-size="24" lengthAdjust="spacing" textLength="130" x="80" y="325.732">Builds on</text></g><!--link ds to ss--><g id="link_ds_ss"><path d="M610.51,253.3312 L610.7021,253.5352 L602.8697,259.7649 L596.1635,267.1908 L589.0905,274.2272 L580.8116,279.9826 L574.131,287.4357 L566.5506,293.9331 L559.3283,300.8108 L552.3549,307.953 L544.5237,314.184 L538.4,322.2287 L530.0564,327.9153 L523.1901,335.1712 L516.504,342.6185 L508.7692,348.9519 L501.6484,355.9374 L494.2952,362.6761 L487.226,369.7165 L480.0198,376.6113 L473.0749,383.7838 L465.8913,390.7026 L458.6372,397.5466 L450.9875,403.9704 L443.9169,411.0092 L436.8734,418.0769 L428.97,424.2312 " fill="none" style="stroke:#8B0000;stroke-width:4.0;"/><polygon fill="#8B0000" points="425.35,427.6512,425.3732,427.7173,427.1634,426.8697,429.0894,426.4098,430.9712,425.8236,432.7076,424.8223,434.6453,424.3957,434.6445,424.3698,433.5101,424.2193,432.3797,424.1994,431.252,424.2702,430.1149,424.0283,428.991,424.2243,429.1755,424.2299,428.8153,423.0871,428.9936,421.9606,429.2377,420.8361,429.0995,419.7001,429.1623,418.5701,429.1833,418.5789,428.3901,420.3822,427.6923,422.2255,426.9484,424.0496,426.2925,425.9105,425.35,427.6512" style="stroke:#8B0000;stroke-width:4.0;"/><text fill="#000000" font-family="Chalkduster" font-size="24" lengthAdjust="spacing" textLength="108" x="560" y="325.732">Extends</text></g><!--SRC=[KypCIyufJKcDpqtCgrJGqo_ArqqkIYn9rSr9h4mjAjOhACtDuIh9BCb9jL88yjTr1iaf-83b0000]--></g></svg>