<?xml version="1.0" encoding="UTF-8" standalone="no"?><svg xmlns="http://www.w3.org/2000/svg" xmlns:xlink="http://www.w3.org/1999/xlink" contentStyleType="text/css" height="570px" preserveAspectRatio="none" style="width:783px;height:570px;background:#FFFFFF;" version="1.1" viewBox="0 0 783 570" width="783px" zoomAndPan="magnify"><defs/><g><!--cluster p--><g id="cluster_p"><polygon fill="#E6E6FA" points="41.5,9.2889,41.5,9.4991,51.5411,8.8746,61.5822,9.4822,71.6233,9.6886,81.6644,8.5756,91.7055,9.2112,101.7466,8.8625,111.7877,8.9055,121.8288,9.2208,131.8699,8.5976,141.911,9.8426,151.9521,8.6587,161.9932,9.0912,172.0342,9.7209,182.0753,9.2032,192.1164,9.3572,202.1575,9.257,212.1986,9.4675,222.2397,9.5281,232.2808,9.8746,242.3219,9.96,252.363,9.9682,262.4041,9.5436,272.4452,9.7525,282.4863,9.9912,292.5274,8.5678,302.5685,9.9675,312.6096,8.9924,322.6507,9.8228,332.6918,8.7939,342.7329,9.2205,352.774,10.0306,362.8151,9.2402,372.8562,9.3943,382.8973,9.6276,392.9384,9.7052,402.9795,9.285,413.0205,9.5762,423.0616,8.7165,433.1027,9.5733,443.1438,9.8371,453.1849,9.7335,463.226,9.902,473.2671,8.8059,483.3082,8.6368,493.3493,8.6675,503.3904,9.2301,513.4315,9.0924,523.4726,9.9704,533.5137,9.1143,543.5548,8.9459,553.5959,9.5172,563.637,8.6221,573.6781,8.7698,583.7192,9.9379,593.7603,9.7246,603.8014,10.0234,613.8425,8.9672,623.8836,9.6081,633.9247,9.8794,643.9658,8.8165,654.0068,9.1931,664.0479,9.4149,674.089,9.9407,684.1301,9.2848,694.1712,9.7515,704.2123,8.7352,714.2534,8.6117,724.2945,9.7926,734.3356,8.572,744.3767,9.7979,754.4178,9.4956,764.4589,9.021,774.5,9.2889,774.4549,9.18,774.9121,9.5767,775.1689,9.4897,775.6362,9.9106,775.8437,9.7045,776.2678,10.0212,776.4579,10.0999,776.5634,10.4365,776.6361,10.7595,776.7216,11.0879,777.0773,11.5281,777,11.7889,777.6136,11.7889,777.1693,21.6837,777.2682,31.5784,776.8697,41.4732,777.7165,51.3679,777.1549,61.2626,777.1726,71.1574,776.3916,81.0521,776.5948,90.9468,777.5307,100.8416,777.4298,110.7363,776.9571,120.6311,776.6778,130.5258,776.7811,140.4205,776.3138,150.3153,777.4147,160.21,777.7396,170.1047,777.5264,179.9995,777.6949,189.8942,777,199.7889,776.9579,199.7715,776.8804,200.1536,776.5877,200.4466,776.6481,200.8858,776.4902,201.2346,776.2678,201.5567,776.3382,201.7268,775.8849,201.6324,775.5435,201.8082,775.2637,202.1326,774.9259,202.3172,774.5,202.2889,774.5,201.7764,764.4589,202.0951,754.4178,202.4382,744.3767,201.6781,734.3356,202.6423,724.2945,202.5469,714.2534,202.1882,704.2123,202.4312,694.1712,203.0176,684.1301,201.9761,674.089,202.6039,664.0479,202.5746,654.0068,202.4047,643.9658,202.4299,633.9247,202.4024,623.8836,201.6648,613.8425,201.8881,603.8014,201.8274,593.7603,202.3528,583.7192,202.3771,573.6781,202.4507,563.637,201.998,553.5959,202.2214,543.5548,202.1687,533.5137,202.8658,523.4726,202.7155,513.4315,201.8034,503.3904,202.216,493.3493,201.7117,483.3082,202.5773,473.2671,202.8974,463.226,202.8335,453.1849,201.8534,443.1438,202.7529,433.1027,201.5461,423.0616,202.4891,413.0205,201.9896,402.9795,202.3857,392.9384,202.5293,382.8973,202.7611,372.8562,201.569,362.8151,202.7644,352.774,202.4671,342.7329,202.6443,332.6918,203.0368,322.6507,202.2944,312.6096,202.4642,302.5685,202.5024,292.5274,202.4862,282.4863,202.2881,272.4452,202.9997,262.4041,201.6792,252.363,202.8542,242.3219,201.6649,232.2808,201.7486,222.2397,202.329,212.1986,202.3172,202.1575,201.7961,192.1164,202.7027,182.0753,202.3978,172.0342,203.0156,161.9932,202.9561,151.9521,201.8407,141.911,201.891,131.8699,202.1598,121.8288,202.6445,111.7877,202.6919,101.7466,202.5901,91.7055,201.947,81.6644,202.9253,71.6233,202.9227,61.5822,202.2417,51.5411,202.0499,41.5,202.2889,41.4488,202.1653,41.1191,202.0764,40.8104,202.0384,40.4306,201.8285,40.0325,201.5745,39.7322,201.5567,39.8823,201.6189,39.4445,201.1446,39.5941,200.9137,39.4245,200.5506,39.261,200.1899,39,199.7889,39.6925,199.7889,38.7541,189.8942,38.6994,179.9995,39.5189,170.1047,38.4031,160.21,38.766,150.3153,39.1155,140.4205,39.0687,130.5258,38.6415,120.6311,38.957,110.7363,39.7446,100.8416,39.6485,90.9468,38.4037,81.0521,39.0785,71.1574,38.4861,61.2626,38.9737,51.3679,39.293,41.4732,39.4199,31.5784,38.3353,21.6837,39,11.7889,39.1234,11.84,39.149,11.4365,39.1219,11.011,39.2943,10.6682,39.6864,10.4164,39.7322,10.0212,39.7641,10.0981,40.0837,9.8697,40.3536,9.5213,40.8768,9.7845,41.1067,9.3394,41.5,9.2889" style="stroke:#181818;stroke-width:4.0;"/><text fill="#000000" font-family="Chalkduster" font-size="24" font-style="italic" lengthAdjust="spacing" textLength="170" x="323" y="35.1298">«standards»</text><text fill="#000000" font-family="Chalkduster" font-size="24" font-weight="bold" lengthAdjust="spacing" textLength="209" x="303.5" y="65.7597">Domain Profile</text><text fill="#000000" font-family="Chalkduster" font-size="24" font-weight="bold" lengthAdjust="spacing" textLength="12" x="402" y="96.3895"> </text></g><!--cluster roc--><g id="cluster_roc"><polygon fill="#E6E6FA" points="9.5,274.2889,9.5,274.4991,19.4107,273.8746,29.3214,274.4822,39.2321,274.6886,49.1429,273.5756,59.0536,274.2112,68.9643,273.8625,78.875,273.9055,88.7857,274.2208,98.6964,273.5976,108.6071,274.8426,118.5179,273.6587,128.4286,274.0912,138.3393,274.7209,148.25,274.2032,158.1607,274.3572,168.0714,274.257,177.9821,274.4675,187.8929,274.5281,197.8036,274.8746,207.7143,274.96,217.625,274.9682,227.5357,274.5436,237.4464,274.7525,247.3571,274.9912,257.2679,273.5678,267.1786,274.9675,277.0893,273.9924,287,274.8228,296.9107,273.7939,306.8214,274.2205,316.7321,275.0306,326.6429,274.2402,336.5536,274.3943,346.4643,274.6276,356.375,274.7052,366.2857,274.285,376.1964,274.5762,386.1071,273.7165,396.0179,274.5733,405.9286,274.8371,415.8393,274.7335,425.75,274.902,435.6607,273.8059,445.5714,273.6368,455.4821,273.6675,465.3929,274.2301,475.3036,274.0924,485.2143,274.9704,495.125,274.1143,505.0357,273.9459,514.9464,274.5172,524.8571,273.6221,534.7679,273.7698,544.6786,274.9379,554.5893,274.7246,564.5,274.2889,564.5937,274.5151,564.8125,274.3363,565.2478,274.6801,565.636,274.9101,565.854,274.7293,566.2678,275.0212,566.2382,275.009,566.453,275.3908,566.7614,275.8114,566.7058,276.0813,566.996,276.4944,567,276.7889,566.4462,276.7889,566.3227,286.6165,567.5036,296.4441,566.2831,306.2717,567.509,316.0993,567.2066,325.9269,566.7321,335.7545,566.6462,345.5821,567.4588,355.4096,566.7007,365.2372,567.5919,375.0648,566.4473,384.8924,567.6174,394.72,567.4843,404.5476,567.245,414.3752,567.0472,424.2027,567.7266,434.0303,567.6136,443.8579,567.1693,453.6855,567.2682,463.5131,566.8697,473.3407,567.7165,483.1683,567.1549,492.9958,567.1726,502.8234,566.3916,512.651,566.5948,522.4786,567.5307,532.3062,567.4298,542.1338,566.9571,551.9614,567,561.7889,566.9008,561.7479,566.7861,562.1146,566.4958,562.4085,566.6884,562.9025,566.642,563.2975,566.2678,563.5567,566.3349,563.7188,566.0029,563.9172,565.5432,563.8075,565.2182,564.0229,564.8041,564.0231,564.5,564.2889,564.5,564.573,554.5893,564.5357,544.6786,564.8413,534.7679,564.0593,524.8571,564.1545,514.9464,564.7324,505.0357,564.8563,495.125,563.7764,485.2143,564.0951,475.3036,564.4382,465.3929,563.6781,455.4821,564.6423,445.5714,564.5469,435.6607,564.1882,425.75,564.4312,415.8393,565.0176,405.9286,563.9761,396.0179,564.6039,386.1071,564.5746,376.1964,564.4047,366.2857,564.4299,356.375,564.4024,346.4643,563.6648,336.5536,563.8881,326.6429,563.8274,316.7321,564.3528,306.8214,564.3771,296.9107,564.4507,287,563.998,277.0893,564.2214,267.1786,564.1687,257.2679,564.8658,247.3571,564.7155,237.4464,563.8034,227.5357,564.216,217.625,563.7117,207.7143,564.5773,197.8036,564.8974,187.8929,564.8335,177.9821,563.8534,168.0714,564.7529,158.1607,563.5461,148.25,564.4891,138.3393,563.9896,128.4286,564.3857,118.5179,564.5293,108.6071,564.7611,98.6964,563.569,88.7857,564.7644,78.875,564.4671,68.9643,564.6443,59.0536,565.0368,49.1429,564.2944,39.2321,564.4642,29.3214,564.5024,19.4107,564.4862,9.5,564.2889,9.4999,564.2887,9.2371,564.3614,8.7151,563.8083,8.5114,564.0237,8.0062,563.511,7.7322,563.5567,7.5658,563.4878,7.5981,563.2083,7.448,562.8532,7.1411,562.4332,7.2739,562.1953,7,561.7889,7.1089,561.7889,7.7267,551.9614,7.6671,542.1338,6.5517,532.3062,6.6021,522.4786,6.8708,512.651,7.3555,502.8234,7.403,492.9958,7.3012,483.1683,6.658,473.3407,7.6364,463.5131,7.6338,453.6855,6.9527,443.8579,6.7609,434.0303,6.5986,424.2027,6.7854,414.3752,7.1374,404.5476,6.9316,394.72,6.5822,384.8924,7.4874,375.0648,6.5411,365.2372,7.5024,355.4096,7.4272,345.5821,7.3719,335.7545,7.6925,325.9269,6.7541,316.0993,6.6994,306.2717,7.5189,296.4441,6.4031,286.6165,7,276.7889,6.9279,276.7591,7.182,276.4501,7.314,276.0906,7.329,275.6826,7.5726,275.3693,7.7322,275.0212,7.8272,275.2505,8.1685,275.0744,8.3633,274.5447,8.8029,274.606,9.0809,274.2771,9.5,274.2889" style="stroke:#181818;stroke-width:4.0;"/><text fill="#000000" font-family="Chalkduster" font-size="24" font-style="italic" lengthAdjust="spacing" textLength="170" x="202" y="300.1298">«standards»</text><text fill="#000000" font-family="Chalkduster" font-size="24" font-weight="bold" lengthAdjust="spacing" textLength="126" x="224" y="330.7597">RO-Crate</text></g><!--entity ds--><g id="elem_ds"><polygon fill="none" points="523.5,127.2889,523.5,127.4991,533.3696,126.8746,543.2391,127.4822,553.1087,127.6886,562.9783,126.5756,572.8478,127.2112,582.7174,126.8625,592.587,126.9055,602.4565,127.2208,612.3261,126.5976,622.1957,127.8426,632.0652,126.6587,641.9348,127.0912,651.8043,127.7209,661.6739,127.2032,671.5435,127.3572,681.413,127.257,691.2826,127.4675,701.1522,127.5281,711.0217,127.8746,720.8913,127.96,730.7609,127.9682,740.6304,127.5436,750.5,127.2889,750.5591,127.4317,750.9431,127.6517,751.1151,127.3597,751.6472,127.9372,751.8764,127.7834,752.2678,128.0212,752.4322,128.0893,752.2618,128.3116,752.5396,128.7196,752.9355,129.1764,752.8385,129.4292,753,129.7889,753.1053,129.7889,753.3386,138.9149,753.4162,148.0409,752.9961,157.1668,753.2872,166.2928,753,175.4188,752.8237,175.3458,752.9411,175.8086,752.8759,176.1958,752.6976,176.5361,752.603,176.9112,752.2678,177.1866,752.2061,177.0378,751.831,177.1322,751.4814,177.2881,751.1996,177.6078,750.8285,177.7118,750.5,177.9188,750.5,178.6002,740.6304,177.7441,730.7609,177.5757,720.8913,178.1471,711.0217,177.2519,701.1522,177.3997,691.2826,178.5677,681.413,178.3545,671.5435,178.6533,661.6739,177.597,651.8043,178.238,641.9348,178.5092,632.0652,177.4464,622.1957,177.8229,612.3261,178.0448,602.4565,178.5705,592.587,177.9146,582.7174,178.3814,572.8478,177.365,562.9783,177.2415,553.1087,178.4224,543.2391,177.2018,533.3696,178.4277,523.5,177.9188,523.5264,177.9824,523.1123,177.6898,522.7478,177.5169,522.4979,177.6207,522.0476,177.2408,521.7322,177.1866,521.9145,177.262,521.4156,176.7625,521.6295,176.5582,521.442,176.1877,521.2219,175.8036,521,175.4188,521.0472,175.4188,521.7266,166.2928,521.6136,157.1668,521.1693,148.0409,521.2682,138.9149,521,129.7889,520.9599,129.7723,521.3671,129.5268,521.3406,129.1016,521.4925,128.7503,521.3984,128.2971,521.7322,128.0212,521.6805,127.8964,522.1535,128.0382,522.4942,127.8606,522.7874,127.5686,523.1054,127.3362,523.5,127.2889" style="stroke:#181818;stroke-width:4.0;"/><text fill="#000000" font-family="Chalkduster" font-size="24" lengthAdjust="spacing" textLength="212" x="531" y="161.1298">Domain Schema</text></g><!--entity dr--><g id="elem_dr"><polygon fill="none" points="84.5,127.2889,84.5,127.4991,94.475,126.8746,104.45,127.4822,114.425,127.6886,124.4,126.5756,134.375,127.2112,144.35,126.8625,154.325,126.9055,164.3,127.2208,174.275,126.5976,184.25,127.8426,194.225,126.6587,204.2,127.0912,214.175,127.7209,224.15,127.2032,234.125,127.3572,244.1,127.257,254.075,127.4675,264.05,127.5281,274.025,127.8746,284,127.96,293.975,127.9682,303.95,127.5436,313.925,127.7525,323.9,127.9912,333.875,126.5678,343.85,127.9675,353.825,126.9924,363.8,127.8228,373.775,126.7939,383.75,127.2205,393.725,128.0306,403.7,127.2402,413.675,127.3943,423.65,127.6276,433.625,127.7052,443.6,127.285,453.575,127.5762,463.55,126.7165,473.525,127.5733,483.5,127.2889,483.5699,127.4578,483.9103,127.5723,484.2853,127.7706,484.499,127.5795,484.831,127.6739,485.2678,128.0212,485.0764,127.9419,485.3961,128.3672,485.5001,128.7032,485.917,129.1688,485.7998,129.4131,486,129.7889,485.6569,129.7889,486.2283,138.9149,485.3332,148.0409,485.4809,157.1668,486.649,166.2928,486,175.4188,486.1342,175.4744,486.0797,175.866,485.608,176.0848,485.659,176.5202,485.596,176.9083,485.2678,177.1866,485.2075,177.0411,484.902,177.3035,484.5767,177.5182,484.2902,177.8266,483.853,177.771,483.5,177.9188,483.5,178.3814,473.525,177.365,463.55,177.2415,453.575,178.4224,443.6,177.2018,433.625,178.4277,423.65,178.1254,413.675,177.6509,403.7,177.565,393.725,178.3775,383.75,177.6195,373.775,178.5106,363.8,177.366,353.825,178.5362,343.85,178.4031,333.875,178.1638,323.9,177.966,313.925,178.6454,303.95,178.5324,293.975,178.088,284,178.187,274.025,177.7885,264.05,178.6352,254.075,178.0737,244.1,178.0914,234.125,177.3104,224.15,177.5136,214.175,178.4495,204.2,178.3485,194.225,177.8759,184.25,177.5966,174.275,177.6999,164.3,177.2326,154.325,178.3335,144.35,178.6583,134.375,178.4452,124.4,178.6137,114.425,177.7821,104.45,178.006,94.475,177.5312,84.5,177.9188,84.5362,178.0063,84.1779,177.8483,83.8634,177.796,83.41,177.4087,83.0686,177.2916,82.7322,177.1866,82.8688,177.2431,82.7605,176.9054,82.2815,176.4141,82.2332,176.1012,82.1924,175.7914,82,175.4188,81.3892,175.4188,82.3534,166.2928,82.258,157.1668,81.8992,148.0409,82.1422,138.9149,82,129.7889,82.2244,129.8819,82.0501,129.3955,82.3899,129.122,82.5273,128.7647,82.6214,128.3895,82.7322,128.0212,82.7502,128.0646,83.1003,127.9097,83.3597,127.5361,83.7418,127.4584,84.0876,127.2933,84.5,127.2889" style="stroke:#181818;stroke-width:4.0;"/><text fill="#000000" font-family="Chalkduster" font-size="24" lengthAdjust="spacing" textLength="384" x="92" y="161.1298">Domain Rules / Constraints</text></g><!--entity bp--><g id="elem_bp"><polygon fill="none" points="26,354.2889,26,354.4991,36.1111,353.8746,46.2222,354.4822,56.3333,354.6886,66.4444,353.5756,76.5556,354.2112,86.6667,353.8625,96.7778,353.9055,106.8889,354.2208,117,353.5976,127.1111,354.8426,137.2222,353.6587,147.3333,354.0912,157.4444,354.7209,167.5556,354.2032,177.6667,354.3572,187.7778,354.257,197.8889,354.4675,208,354.2889,208.0305,354.3626,208.4283,354.6158,208.7927,354.7885,209.1473,354.9375,209.4467,354.9532,209.7678,355.0212,209.9105,355.0803,210.1305,355.4643,209.8386,355.6363,210.4161,356.1684,210.2622,356.3976,210.5,356.7889,211.0338,356.7889,210.005,365.9149,210.4315,375.0409,211.2416,384.1668,210.4513,393.2928,210.5,402.4188,210.5324,402.4322,210.4578,402.8155,210.3353,403.179,210.0595,403.4789,210.0027,403.8696,209.7678,404.1866,209.6947,404.0103,209.4505,404.4206,209.1306,404.6483,208.7638,404.7628,208.4318,404.9611,208,404.9188,208,404.4357,197.8889,404.2666,187.7778,404.2974,177.6667,404.8599,167.5556,404.7223,157.4444,405.6002,147.3333,404.7441,137.2222,404.5757,127.1111,405.1471,117,404.2519,106.8889,404.3997,96.7778,405.5677,86.6667,405.3545,76.5556,405.6533,66.4444,404.597,56.3333,405.238,46.2222,405.5092,36.1111,404.4464,26,404.9188,25.9878,404.8893,25.6625,404.8111,25.376,404.8266,24.9388,404.4782,24.6448,404.4754,24.2322,404.1866,24.0617,404.1159,23.8772,403.7466,24.0944,403.5437,23.5721,403.0344,23.8032,402.8373,23.5,402.4188,23.7066,402.4188,23.2321,393.2928,23.1462,384.1668,23.9588,375.0409,23.2007,365.9149,23.5,356.7889,23.6823,356.8644,23.4762,356.3649,23.983,356.1606,24.0885,355.7901,24.1612,355.406,24.2322,355.0212,24.2383,355.0357,24.6785,355.0985,25.0176,354.9172,25.3145,354.634,25.6807,354.518,26,354.2889" style="stroke:#181818;stroke-width:4.0;"/><text fill="#000000" font-family="Chalkduster" font-size="24" lengthAdjust="spacing" textLength="167" x="33.5" y="388.1298">Base Profile</text></g><!--entity ss--><g id="elem_ss"><polygon fill="none" points="248,354.2889,248,354.4991,258,353.8746,268,354.4822,278,354.6886,288,353.5756,298,354.2112,308,353.8625,318,353.9055,328,354.2208,338,353.5976,348,354.8426,358,353.6587,368,354.0912,378,354.7209,388,354.2032,398,354.3572,408,354.257,418,354.4675,428,354.5281,438,354.8746,448,354.96,458,354.9682,468,354.5436,478,354.7525,488,354.9912,498,353.5678,508,354.9675,518,353.9924,528,354.8228,538,353.7939,548,354.2889,547.9913,354.2679,548.4482,354.6638,548.7009,354.5668,549.0741,354.7607,549.4574,354.979,549.7678,355.0212,549.8959,355.0743,549.913,355.3742,550.1491,355.7649,550.0308,356.0088,550.4411,356.4717,550.5,356.7889,551.0482,356.7889,550.9445,365.9149,551.113,375.0409,550.0169,384.1668,549.8478,393.2928,550.5,402.4188,550.3086,402.3395,550.3354,402.7648,550.1466,403.1008,550.2705,403.5664,549.8604,403.8107,549.7678,404.1866,549.724,404.0809,549.4433,404.4033,548.9756,404.2741,548.6409,404.466,548.4363,404.9722,548,404.9188,548,405.3545,538,405.6533,528,404.597,518,405.238,508,405.5092,498,404.4464,488,404.8229,478,405.0448,468,405.5705,458,404.9146,448,405.3814,438,404.365,428,404.2415,418,405.4224,408,404.2018,398,405.4277,388,405.1254,378,404.6509,368,404.565,358,405.3775,348,404.6195,338,405.5106,328,404.366,318,405.5362,308,405.4031,298,405.1638,288,404.966,278,405.6454,268,405.5324,258,405.088,248,404.9188,248.0342,405.0014,247.6298,404.7322,247.3843,404.8465,246.9591,404.5271,246.6078,404.3861,246.2322,404.1866,246.0449,404.1089,245.961,403.7813,246.1028,403.5471,245.9252,403.1807,245.6332,402.7669,245.5,402.4188,245.1778,402.4188,245.2811,393.2928,244.8138,384.1668,245.9147,375.0409,246.2396,365.9149,245.5,356.7889,245.6621,356.8561,245.8605,356.524,245.7508,356.0644,245.9662,355.7394,245.9664,355.3253,246.2322,355.0212,246.2685,355.1087,246.6173,354.9507,247.0098,354.8984,247.2636,354.5111,247.6293,354.394,248,354.2889" style="stroke:#181818;stroke-width:4.0;"/><text fill="#000000" font-family="Chalkduster" font-size="24" lengthAdjust="spacing" textLength="285" x="255.5" y="388.1298">Schema: Schema.org+</text></g><!--entity sx--><g id="elem_sx"><polygon fill="none" points="274,497.2889,274,497.4991,284,496.8746,294,497.4822,304,497.6886,314,496.5756,324,497.2112,334,496.8625,344,496.9055,354,497.2208,364,496.5976,374,497.8426,384,496.6587,394,497.0912,404,497.7209,414,497.2032,424,497.3572,434,497.257,444,497.4675,454,497.5281,464,497.8746,474,497.96,484,497.9682,494,497.5436,504,497.2889,504.0591,497.4317,504.4431,497.6517,504.6151,497.3597,505.1472,497.9372,505.3764,497.7834,505.7678,498.0212,505.9322,498.0893,505.7618,498.3116,506.0396,498.7196,506.4355,499.1764,506.3385,499.4292,506.5,499.7889,506.6053,499.7889,506.8386,508.9149,506.9162,518.0409,506.4961,527.1668,506.7872,536.2928,506.5,545.4188,506.3237,545.3458,506.4411,545.8086,506.3759,546.1958,506.1976,546.5361,506.103,546.9112,505.7678,547.1866,505.7061,547.0378,505.331,547.1322,504.9814,547.2881,504.6996,547.6078,504.3285,547.7118,504,547.9188,504,548.6002,494,547.7441,484,547.5757,474,548.1471,464,547.2519,454,547.3997,444,548.5677,434,548.3545,424,548.6533,414,547.597,404,548.238,394,548.5092,384,547.4464,374,547.8229,364,548.0448,354,548.5705,344,547.9146,334,548.3814,324,547.365,314,547.2415,304,548.4224,294,547.2018,284,548.4277,274,547.9188,274.0264,547.9824,273.6123,547.6898,273.2478,547.5169,272.9979,547.6207,272.5476,547.2408,272.2322,547.1866,272.4145,547.262,271.9156,546.7625,272.1295,546.5582,271.942,546.1877,271.7219,545.8036,271.5,545.4188,271.5472,545.4188,272.2266,536.2928,272.1136,527.1668,271.6693,518.0409,271.7682,508.9149,271.5,499.7889,271.4599,499.7723,271.8671,499.5268,271.8406,499.1016,271.9925,498.7503,271.8984,498.2971,272.2322,498.0212,272.1805,497.8964,272.6535,498.0382,272.9942,497.8606,273.2874,497.5686,273.6054,497.3362,274,497.2889" style="stroke:#181818;stroke-width:4.0;"/><text fill="#000000" font-family="Chalkduster" font-size="24" lengthAdjust="spacing" textLength="215" x="281.5" y="531.1298">Syntax: JSON-LD</text></g><!--link ss to sx--><g id="link_ss_sx"><path d="M396.41,405.6689 L396.6897,405.6868 L395.2543,415.1026 L395.4583,424.6231 L395.1285,434.1096 L393.043,443.4839 L393.2844,453.0068 L392.2158,462.4461 L391.6686,471.9186 L391.4838,481.4143 L390.97,490.8889 " fill="none" style="stroke:#8B0000;stroke-width:4.0;"/><polygon fill="#8B0000" points="390.67,495.6389,390.732,495.6716,391.4644,493.8312,392.5603,492.1819,393.5378,490.4705,394.1261,488.5543,395.2532,486.9215,395.2361,486.902,394.3086,487.5602,393.4672,488.3167,392.6856,489.1414,391.6978,489.7308,390.9988,490.6498,391.1376,490.7714,390.0951,489.6604,389.4579,488.9046,388.8701,488.192,387.9947,487.2274,387.2705,486.3954,387.2918,486.4032,387.9404,488.2404,388.6861,490.1134,389.385,491.969,390.1733,493.8576,390.67,495.6389" style="stroke:#8B0000;stroke-width:4.0;"/><text fill="#000000" font-family="Chalkduster" font-size="24" lengthAdjust="spacing" textLength="160" x="395" y="460.1298">Encoded in</text></g><!--link p to bp--><g id="link_p_bp"><path d="M61.2575,202.589 L61.347,202.6158 L61.1013,202.604 L61.3803,202.7491 L61.4884,202.843 L61.0347,202.7691 L61.3587,202.9276 L61.3256,202.9177 L61.2176,203.0087 L61.2764,203.1496 L61.4511,203.3252 L61.2263,203.3812 L61.5611,203.6047 L61.7969,203.6753 L61.3739,203.7951 L61.6391,204.1211 L61.9883,204.4721 L61.8489,204.6769 L61.9665,204.9586 L61.9955,204.9674 L62.1152,205.4953 L62.3671,206.0629 L62.5552,206.6114 L62.8651,207.1964 L62.7781,207.6623 L63.0635,207.7489 L63.7114,209.8753 L64.1752,211.9458 L64.9084,214.0981 L65.6543,216.2542 L66,218.2889 L65.6938,218.1941 L68.4366,225.3155 L70.1712,232.1247 L72.6722,239.1712 L74.384,245.9732 L76.7427,252.9757 L76.7136,252.9665 L79.2492,260.0306 L81.1064,266.881 L83.3639,273.8575 L85.6551,280.8445 L87.7038,287.7552 L88.2323,287.9245 L90.8948,297.7326 L94.4605,307.8299 L96.565,317.4593 L100.849,327.7867 L104.3801,337.8729 L106.88,347.6289 " fill="none" style="stroke:#8B0000;stroke-width:4.0;"/><polygon fill="#8B0000" points="108.42,352.3789,108.4897,352.3863,108.4883,350.4055,108.8954,348.4677,109.1695,346.5158,109.0062,344.5181,109.4483,342.5839,109.4253,342.5722,108.8075,343.5271,108.3061,344.5414,107.8856,345.5969,107.1864,346.5103,106.8775,347.6228,106.9613,347.7872,105.7742,346.9215,104.832,346.5358,103.9196,346.2086,102.8334,345.5407,101.8386,345.052,101.8555,345.0672,103.1469,346.5102,104.5154,348.0225,105.8467,349.5014,107.249,351.044,108.42,352.3789" style="stroke:#8B0000;stroke-width:4.0;"/><text fill="#000000" font-family="Chalkduster" font-size="24" lengthAdjust="spacing" textLength="130" x="80" y="251.1298">Builds on</text></g><!--link ds to ss--><g id="link_ds_ss"><path d="M610.51,178.7289 L610.7021,178.933 L602.8697,185.1627 L596.1635,192.5886 L589.0905,199.625 L580.8116,205.3804 L574.131,212.8335 L566.5506,219.3309 L559.3283,226.2086 L552.3549,233.3508 L544.5237,239.5817 L538.4,247.6264 L530.0564,253.3131 L523.1901,260.569 L516.504,268.0163 L508.7692,274.3497 L501.6484,281.3352 L494.2952,288.0739 L487.226,295.1143 L480.0198,302.0091 L473.0749,309.1816 L465.8913,316.1004 L458.6372,322.9444 L450.9875,329.3681 L443.9169,336.407 L436.8734,343.4747 L428.97,349.6289 " fill="none" style="stroke:#8B0000;stroke-width:4.0;"/><polygon fill="#8B0000" points="425.35,353.0489,425.3732,353.1151,427.1634,352.2675,429.0894,351.8076,430.9712,351.2214,432.7076,350.2201,434.6453,349.7935,434.6445,349.7676,433.5101,349.6171,432.3797,349.5972,431.252,349.668,430.1149,349.426,428.991,349.6221,429.1755,349.6277,428.8153,348.4849,428.9936,347.3584,429.2377,346.2339,429.0995,345.0979,429.1623,343.9679,429.1833,343.9767,428.3901,345.78,427.6923,347.6233,426.9484,349.4474,426.2925,351.3083,425.35,353.0489" style="stroke:#8B0000;stroke-width:4.0;"/><text fill="#000000" font-family="Chalkduster" font-size="24" lengthAdjust="spacing" textLength="108" x="560" y="251.1298">Extends</text></g><!--SRC=[ROynJyD038Nt-nMcAxfqZweCRLaGegXTaP0RcnBfuelE5v48yTyn2KW1rPkVFpy_tpHIXvxufKKPeIZMX1czDNZXbYLxpMFW8W_PkSHrHha4XjK-jjW8FANusWH-bXMWGWURZHf1c4Yh2ZxSjPrJ_SOjJWkaL-R7Fh326dPHD2TJiivmSfzBl-F1xn9c_dVKo1HhkxrmtgBoRzR9wzmjntEYyYTP4TFbTg9KmO7L7tQKZ4C9zwV3et_OpznWZresupt5T_6LIL32dTIHcA0Hru69vyx4RTy4KeZYQ87hDpva5j8l]--></g></svg>