<?xml version="1.0" encoding="us-ascii" standalone="no"?><svg xmlns="http://www.w3.org/2000/svg" xmlns:xlink="http://www.w3.org/1999/xlink" contentStyleType="text/css" height="1078px" preserveAspectRatio="none" style="width:1258px;height:1078px;background:#FFFFFF;" version="1.1" viewBox="0 0 1258 1078" width="1258px" zoomAndPan="magnify"><defs/><g><text fill="#000000" font-family="Chalkduster" font-size="42" font-weight="bold" lengthAdjust="spacing" textLength="877" x="183.5" y="51.7215">Implemenations of RRKive (Arkisto)</text><text fill="#000000" font-family="Chalkduster" font-size="42" font-weight="bold" lengthAdjust="spacing" textLength="691" x="276.5" y="105.3238">Principles and Requirements</text><!--cluster Implementations--><g id="cluster_Implementations"><polygon fill="none" points="9.5,137.4934,9.5,137.7036,19.5,137.0791,29.5,137.6867,39.5,137.8931,49.5,136.78,59.5,137.4157,69.5,137.0669,79.5,137.1099,89.5,137.4252,99.5,136.802,109.5,138.047,119.5,136.8631,129.5,137.2956,139.5,137.9253,149.5,137.4076,159.5,137.5616,169.5,137.4614,179.5,137.6719,189.5,137.7325,199.5,138.0791,209.5,138.1644,219.5,138.1726,229.5,137.748,239.5,137.957,249.5,138.1956,259.5,136.7722,269.5,138.1719,279.5,137.1969,289.5,138.0272,299.5,136.9983,309.5,137.4249,319.5,138.235,329.5,137.4446,339.5,137.5987,349.5,137.832,359.5,137.9096,369.5,137.4895,379.5,137.7806,389.5,136.921,399.5,137.7778,409.5,138.0416,419.5,137.9379,429.5,138.1064,439.5,137.0103,449.5,136.8412,459.5,136.872,469.5,137.4345,479.5,137.2968,489.5,138.1748,499.5,137.3187,509.5,137.1503,519.5,137.7216,529.5,136.8265,539.5,136.9742,549.5,138.1423,559.5,137.929,569.5,138.2279,579.5,137.1716,589.5,137.8126,599.5,138.0838,609.5,137.021,619.5,137.3975,629.5,137.6194,639.5,138.1451,649.5,137.4892,659.5,137.9559,669.5,136.9396,679.5,136.8161,689.5,137.997,699.5,136.7764,709.5,138.0023,719.5,137.7,729.5,137.2255,739.5,137.1396,749.5,137.9521,759.5,137.194,769.5,138.0852,779.5,136.9406,789.5,138.1108,799.5,137.9777,809.5,137.7383,819.5,137.5406,829.5,138.22,839.5,138.1069,849.5,137.6626,859.5,137.7616,869.5,137.3631,879.5,138.2098,889.5,137.6482,899.5,137.6659,909.5,136.885,919.5,137.4934,919.4483,137.3686,919.9213,137.8033,920.2619,137.9186,920.5552,137.9195,920.8731,137.9799,921.2678,138.2256,921.2003,138.1977,921.2029,138.4916,921.6884,138.9856,921.9349,139.3806,922.0157,139.707,922,139.9934,922.6949,139.9934,921.8633,150.0506,922.0872,160.1079,921.6124,170.1652,922.284,180.2225,922.2468,190.2797,922.5524,200.337,921.7703,210.3943,921.8656,220.4516,922.4435,230.5088,922.5673,240.5661,922,250.6234,921.8422,250.558,921.7938,250.9522,921.7531,251.3495,921.3725,251.6061,921.523,252.0827,921.2678,252.3911,921.3007,252.4706,920.9014,252.5066,920.5788,252.7278,920.3001,253.0549,919.8136,252.8806,919.5,253.1234,919.5,253.4384,909.5,253.409,899.5,253.2391,889.5,253.2643,879.5,253.2368,869.5,252.4992,859.5,252.7226,849.5,252.6618,839.5,253.1872,829.5,253.2115,819.5,253.2851,809.5,252.8324,799.5,253.0559,789.5,253.0032,779.5,253.7002,769.5,253.5499,759.5,252.6378,749.5,253.0504,739.5,252.5461,729.5,253.4118,719.5,253.7319,709.5,253.6679,699.5,252.6878,689.5,253.5873,679.5,252.3806,669.5,253.3235,659.5,252.8241,649.5,253.2201,639.5,253.3637,629.5,253.5955,619.5,252.4035,609.5,253.5988,599.5,253.3015,589.5,253.4787,579.5,253.8712,569.5,253.1289,559.5,253.2986,549.5,253.3368,539.5,253.3206,529.5,253.1226,519.5,253.8341,509.5,252.5136,499.5,253.6887,489.5,252.4994,479.5,252.5831,469.5,253.1634,459.5,253.1516,449.5,252.6305,439.5,253.5371,429.5,253.2322,419.5,253.85,409.5,253.7905,399.5,252.6751,389.5,252.7254,379.5,252.9942,369.5,253.4789,359.5,253.5264,349.5,253.4245,339.5,252.7814,329.5,253.7597,319.5,253.7572,309.5,253.0761,299.5,252.8843,289.5,252.722,279.5,252.9088,269.5,253.2608,259.5,253.055,249.5,252.7056,239.5,253.6108,229.5,252.6644,219.5,253.6258,209.5,253.5506,199.5,253.4952,189.5,253.8159,179.5,252.8775,169.5,252.8227,159.5,253.6423,149.5,252.5265,139.5,252.8894,129.5,253.2389,119.5,253.1921,109.5,252.7649,99.5,253.0804,89.5,253.868,79.5,253.7719,69.5,252.5271,59.5,253.2019,49.5,252.6095,39.5,253.0971,29.5,253.4164,19.5,253.5432,9.5,253.1234,9.4152,252.9187,9.1975,253.1003,8.794,252.8331,8.3685,252.513,8.0257,252.3925,7.7322,252.3911,7.8328,252.4328,7.6627,252.0695,7.4343,251.6819,7.0859,251.2447,7.3491,251.0609,7,250.6234,6.6882,250.6234,6.4719,240.5661,6.9327,230.5088,7.5897,220.4516,7.6154,210.3943,7.0351,200.337,6.8488,190.2797,7.1698,180.2225,7.1862,170.1652,6.4922,160.1079,7.414,150.0506,7,139.9934,7.1721,140.0647,7.08,139.6123,7.1607,139.2315,7.6471,139.0188,7.5923,138.5818,7.7322,138.2256,7.7322,138.2256,8.1239,138.1712,8.357,137.7339,8.8605,137.9495,9.1445,137.6351,9.5,137.4934" style="stroke:#181818;stroke-width:4.0;"/><text fill="#000000" font-family="Chalkduster" font-size="24" font-weight="bold" lengthAdjust="spacing" textLength="231" x="349" y="163.3343">Implementations</text></g><!--cluster Open Source Toolkits / Software--><g id="cluster_Open Source Toolkits / Software"><polygon fill="none" points="437.5,375.1234,437.5,375.3336,447.4375,374.7091,457.375,375.3167,467.3125,375.5231,477.25,374.41,487.1875,375.0457,497.125,374.6969,507.0625,374.7399,517,375.0552,526.9375,374.432,536.875,375.677,546.8125,374.4931,556.75,374.9256,566.6875,375.5553,576.625,375.0376,586.5625,375.1916,596.5,375.0914,606.4375,375.3019,616.375,375.3625,626.3125,375.7091,636.25,375.7944,646.1875,375.8026,656.125,375.378,666.0625,375.587,676,375.8256,685.9375,374.4022,695.875,375.8019,705.8125,374.8269,715.75,375.6572,725.6875,374.6283,735.625,375.0549,745.5625,375.865,755.5,375.0746,765.4375,375.2287,775.375,375.462,785.3125,375.5396,795.25,375.1195,805.1875,375.4106,815.125,374.551,825.0625,375.4078,835,375.6716,844.9375,375.5679,854.875,375.7364,864.8125,374.6403,874.75,374.4712,884.6875,374.502,894.625,375.0645,904.5625,374.9268,914.5,375.1234,914.5869,375.3332,914.8313,375.216,915.1633,375.3106,915.5898,375.633,915.8292,375.5038,916.2678,375.8556,916.1079,375.7894,916.6141,376.2919,916.6948,376.6183,916.9333,377.01,916.7545,377.2288,917,377.6234,917.3192,377.6234,917.5904,387.6806,916.5276,397.7379,916.9041,407.7952,917.126,417.8525,917.6518,427.9097,916.9958,437.967,917.4626,448.0243,916.4462,458.0816,916.3227,468.1388,917.5036,478.1961,917,488.2534,916.7792,488.1619,917.0103,488.6718,916.7707,488.9868,916.4782,489.2799,916.3053,489.6225,916.2678,490.0211,916.3263,490.1624,915.876,490.0754,915.6362,490.4963,915.1366,490.2903,914.9323,490.7971,914.5,490.7534,914.5,491.2377,904.5625,490.9983,894.625,490.8006,884.6875,491.48,874.75,491.3669,864.8125,490.9226,854.875,491.0216,844.9375,490.6231,835,491.4698,825.0625,490.9082,815.125,490.9259,805.1875,490.145,795.25,490.3481,785.3125,491.2841,775.375,491.1831,765.4375,490.7104,755.5,490.4312,745.5625,490.5344,735.625,490.0672,725.6875,491.1681,715.75,491.4929,705.8125,491.2798,695.875,491.4483,685.9375,490.6166,676,490.8406,666.0625,490.3658,656.125,491.0374,646.1875,491.0001,636.25,491.3058,626.3125,490.5237,616.375,490.619,606.4375,491.1968,596.5,491.3207,586.5625,490.2408,576.625,490.5595,566.6875,490.9026,556.75,490.1425,546.8125,491.1068,536.875,491.0114,526.9375,490.6526,517,490.8956,507.0625,491.482,497.125,490.4405,487.1875,491.0684,477.25,491.039,467.3125,490.8691,457.375,490.8943,447.4375,490.8668,437.5,490.7534,437.4204,490.5612,437.0953,490.4835,436.734,490.3183,436.4475,490.3337,436.097,490.1947,435.7322,490.0211,435.782,490.0418,435.4962,489.6305,435.4185,489.3054,435.2559,488.9451,435.3241,488.6805,435,488.2534,435.4266,488.2534,434.5145,478.1961,434.9271,468.1388,434.4228,458.0816,435.2884,448.0243,435.6085,437.967,435.5446,427.9097,434.5644,417.8525,435.464,407.7952,434.2572,397.7379,435.2002,387.6806,435,377.6234,434.9078,377.5852,435.1762,377.2822,435.3669,376.9469,435.5847,376.6229,435.3641,376.1173,435.7322,375.8556,435.7929,376.002,436.1085,375.764,436.4847,375.6721,436.8883,375.6466,437.1471,375.2715,437.5,375.1234" style="stroke:#181818;stroke-width:4.0;"/><text fill="#000000" font-family="Chalkduster" font-size="24" font-weight="bold" lengthAdjust="spacing" textLength="449" x="451.5" y="400.9643">Open Source Toolkits / Software</text></g><!--cluster Standards--><g id="cluster_Standards"><polygon fill="none" points="388.5,612.7534,388.5,612.9636,398.5116,612.3391,408.5233,612.9467,418.5349,613.1531,428.5465,612.04,438.5581,612.6757,448.5698,612.3269,458.5814,612.3699,468.593,612.6852,478.6047,612.062,488.6163,613.307,498.6279,612.1231,508.6395,612.5556,518.6512,613.1853,528.6628,612.6676,538.6744,612.8216,548.686,612.7214,558.6977,612.9319,568.7093,612.9925,578.7209,613.3391,588.7326,613.4244,598.7442,613.4326,608.7558,613.008,618.7674,613.217,628.7791,613.4556,638.7907,612.0322,648.8023,613.4319,658.814,612.4569,668.8256,613.2872,678.8372,612.2583,688.8488,612.6849,698.8605,613.495,708.8721,612.7046,718.8837,612.8587,728.8953,613.092,738.907,613.1696,748.9186,612.7495,758.9302,613.0406,768.9419,612.181,778.9535,613.0378,788.9651,613.3016,798.9767,613.1979,808.9884,613.3664,819,612.2703,829.0116,612.1012,839.0233,612.132,849.0349,612.6945,859.0465,612.5568,869.0581,613.4348,879.0698,612.5787,889.0814,612.4103,899.093,612.9816,909.1047,612.0865,919.1163,612.2342,929.1279,613.4023,939.1395,613.189,949.1512,613.4879,959.1628,612.4316,969.1744,613.0726,979.186,613.3438,989.1977,612.281,999.2093,612.6575,1009.2209,612.8794,1019.2326,613.4051,1029.2442,612.7492,1039.2558,613.2159,1049.2674,612.1996,1059.2791,612.0761,1069.2907,613.257,1079.3023,612.0364,1089.314,613.2623,1099.3256,612.96,1109.3372,612.4855,1119.3488,612.3996,1129.3605,613.2121,1139.3721,612.454,1149.3837,613.3452,1159.3953,612.2006,1169.407,613.3708,1179.4186,613.2377,1189.4302,612.9983,1199.4419,612.8006,1209.4535,613.48,1219.4651,613.3669,1229.4767,612.9226,1239.4884,613.0216,1249.5,612.7534,1249.4834,612.7133,1249.9449,613.1205,1250.2269,613.094,1250.5827,613.2459,1250.8366,613.1518,1251.2678,613.4856,1251.143,613.4339,1251.5777,613.9069,1251.693,614.2475,1251.6939,614.5408,1251.7543,614.8587,1252,615.2534,1251.7811,615.2534,1251.3138,625.362,1252.4147,635.4707,1252.7396,645.5794,1252.5264,655.688,1252.6949,665.7967,1251.8633,675.9054,1252.0872,686.014,1251.6124,696.1227,1252.284,706.2314,1252.2468,716.34,1252.5524,726.4487,1251.7703,736.5574,1251.8656,746.666,1252.4435,756.7747,1252.5673,766.8834,1251.4875,776.992,1251.8061,787.1007,1252.1493,797.2094,1251.3892,807.318,1252.3534,817.4267,1252.258,827.5354,1251.8992,837.644,1252.1422,847.7527,1252.7287,857.8614,1251.6871,867.97,1252.315,878.0787,1252.2856,888.1874,1252.1158,898.296,1252.1409,908.4047,1252.1135,918.5134,1251.3758,928.622,1251.5992,938.7307,1251.5385,948.8394,1252.0638,958.948,1252.0881,969.0567,1252.1617,979.1654,1251.709,989.274,1251.9325,999.3827,1251.8798,1009.4914,1252.5769,1019.6,1252.4266,1029.7087,1251.5145,1039.8174,1251.9271,1049.926,1251.4228,1060.0347,1252,1070.1434,1252.0888,1070.1802,1252.0409,1070.5745,1251.8748,1070.9199,1251.4265,1071.1485,1251.5571,1071.6168,1251.2678,1071.9111,1251.173,1071.6824,1250.9397,1072.1192,1250.5225,1072.1119,1250.2194,1072.3803,1249.8842,1072.5709,1249.5,1072.6434,1249.5,1073.1155,1239.4884,1071.9235,1229.4767,1073.1188,1219.4651,1072.8215,1209.4535,1072.9987,1199.4419,1073.3912,1189.4302,1072.6489,1179.4186,1072.8186,1169.407,1072.8568,1159.3953,1072.8406,1149.3837,1072.6426,1139.3721,1073.3541,1129.3605,1072.0336,1119.3488,1073.2087,1109.3372,1072.0194,1099.3256,1072.1031,1089.314,1072.6834,1079.3023,1072.6716,1069.2907,1072.1505,1059.2791,1073.0571,1049.2674,1072.7522,1039.2558,1073.37,1029.2442,1073.3105,1019.2326,1072.1951,1009.2209,1072.2454,999.2093,1072.5142,989.1977,1072.9989,979.186,1073.0464,969.1744,1072.9445,959.1628,1072.3014,949.1512,1073.2797,939.1395,1073.2772,929.1279,1072.5961,919.1163,1072.4043,909.1047,1072.242,899.093,1072.4288,889.0814,1072.7808,879.0698,1072.575,869.0581,1072.2256,859.0465,1073.1308,849.0349,1072.1844,839.0233,1073.1458,829.0116,1073.0706,819,1073.0152,808.9884,1073.3359,798.9767,1072.3975,788.9651,1072.3427,778.9535,1073.1623,768.9419,1072.0465,758.9302,1072.4094,748.9186,1072.7589,738.907,1072.7121,728.8953,1072.2849,718.8837,1072.6004,708.8721,1073.388,698.8605,1073.2919,688.8488,1072.0471,678.8372,1072.7219,668.8256,1072.1295,658.814,1072.6171,648.8023,1072.9364,638.7907,1073.0632,628.7791,1071.9786,618.7674,1073.0439,608.7558,1072.6518,598.7442,1072.088,588.7326,1072.1723,578.7209,1072.97,568.7093,1072.8932,558.6977,1072.6269,548.686,1071.9713,538.6744,1073.3015,528.6628,1072.3315,518.6512,1072.1153,508.6395,1072.5761,498.6279,1073.2331,488.6163,1073.2588,478.6047,1072.6785,468.593,1072.4922,458.5814,1072.8132,448.5698,1072.8296,438.5581,1072.1356,428.5465,1073.0573,418.5349,1073.2022,408.5233,1072.4276,398.5116,1072.2142,388.5,1072.6434,388.5861,1072.8511,388.1491,1072.5034,387.7929,1072.3504,387.4775,1072.2961,387.0034,1071.8587,386.7322,1071.9111,386.8954,1071.9787,386.581,1071.5556,386.6453,1071.2893,386.2264,1070.8229,386.2724,1070.5491,386,1070.1434,385.556,1070.1434,386.245,1060.0347,386.3793,1049.926,385.6727,1039.8174,386.363,1029.7087,385.4286,1019.6,385.5295,1009.4914,386.6828,999.3827,386.6844,989.274,386.5685,979.1654,385.6396,969.0567,386.3842,958.948,385.5279,948.8394,386.0582,938.7307,385.9987,928.622,385.7376,918.5134,386.6159,908.4047,386.4433,898.296,385.6792,888.1874,386.5266,878.0787,386.0919,867.97,385.4164,857.8614,385.7667,847.7527,385.4747,837.644,385.8609,827.5354,385.371,817.4267,385.3998,807.318,386.0703,797.2094,385.8796,787.1007,385.9414,776.992,385.8568,766.8834,386.1673,756.7747,385.4449,746.666,386.1601,736.5574,385.2569,726.4487,386.296,716.34,386.5928,706.2314,386.5221,696.1227,386.3613,686.014,386.1922,675.9054,386.1057,665.7967,385.36,655.688,386.4465,645.5794,386.3296,635.4707,385.8466,625.362,386,615.2534,385.9982,615.2526,386.0822,614.8732,386.3599,614.574,386.6489,614.2795,386.4768,613.794,386.7322,613.4856,386.792,613.63,387.0744,613.3117,387.391,613.0759,387.7378,612.9133,388.0642,612.7013,388.5,612.7534" style="stroke:#181818;stroke-width:4.0;"/><text fill="#000000" font-family="Chalkduster" font-size="24" font-weight="bold" lengthAdjust="spacing" textLength="138" x="750" y="638.5943">Standards</text></g><!--cluster Metadata--><g id="cluster_Metadata"><polygon fill="none" points="836.5,669.7534,836.5,669.9636,846.4744,669.3391,856.4487,669.9467,866.4231,670.1531,876.3974,669.04,886.3718,669.6757,896.3462,669.3269,906.3205,669.3699,916.2949,669.6852,926.2692,669.062,936.2436,670.307,946.2179,669.1231,956.1923,669.5556,966.1667,670.1853,976.141,669.6676,986.1154,669.8216,996.0897,669.7214,1006.0641,669.9319,1016.0385,669.9925,1026.0128,670.3391,1035.9872,670.4244,1045.9615,670.4326,1055.9359,670.008,1065.9103,670.217,1075.8846,670.4556,1085.859,669.0322,1095.8333,670.4319,1105.8077,669.4569,1115.7821,670.2872,1125.7564,669.2583,1135.7308,669.6849,1145.7051,670.495,1155.6795,669.7046,1165.6538,669.8587,1175.6282,670.092,1185.6026,670.1696,1195.5769,669.7495,1205.5513,670.0406,1215.5256,669.181,1225.5,669.7534,1225.5363,669.841,1225.9235,670.0686,1226.2638,670.1832,1226.6389,670.3815,1226.8526,670.1904,1227.2678,670.4856,1227.0669,670.4024,1227.2228,670.7599,1227.5425,671.1852,1227.6466,671.5212,1228.0634,671.9867,1228,672.2534,1227.8253,672.2534,1227.6569,682.3585,1228.2283,692.4636,1227.3332,702.5688,1227.4809,712.6739,1228.649,722.779,1228.4357,732.8842,1228.7345,742.9893,1227.6782,753.0945,1228.3192,763.1996,1228.5904,773.3047,1227.5276,783.4099,1227.9041,793.515,1228.126,803.6201,1228.6518,813.7253,1227.9958,823.8304,1228.4626,833.9355,1227.4462,844.0407,1227.3227,854.1458,1228.5036,864.2509,1227.2831,874.3561,1228.509,884.4612,1228.2066,894.5663,1227.7321,904.6715,1227.6462,914.7766,1228.4588,924.8818,1227.7007,934.9869,1228.5919,945.092,1227.4473,955.1972,1228.6174,965.3023,1228.4843,975.4074,1228.245,985.5126,1228.0472,995.6177,1228.7266,1005.7228,1228.6136,1015.828,1228.1693,1025.9331,1228.2682,1036.0382,1228,1046.1434,1227.9599,1046.1268,1228.0742,1046.5883,1227.7548,1046.8702,1227.6138,1047.226,1227.2269,1047.48,1227.2678,1047.9111,1227.2161,1047.7863,1226.9819,1048.221,1226.6155,1048.3364,1226.2016,1048.3373,1225.8125,1048.3977,1225.5,1048.6434,1225.5,1048.4244,1215.5256,1047.9572,1205.5513,1049.0581,1195.5769,1049.3829,1185.6026,1049.1698,1175.6282,1049.3383,1165.6538,1048.5066,1155.6795,1048.7306,1145.7051,1048.2558,1135.7308,1048.9274,1125.7564,1048.8901,1115.7821,1049.1958,1105.8077,1048.4137,1095.8333,1048.509,1085.859,1049.0868,1075.8846,1049.2107,1065.9103,1048.1308,1055.9359,1048.4495,1045.9615,1048.7926,1035.9872,1048.0325,1026.0128,1048.9968,1016.0385,1048.9014,1006.0641,1048.5426,996.0897,1048.7856,986.1154,1049.372,976.141,1048.3305,966.1667,1048.9584,956.1923,1048.929,946.2179,1048.7591,936.2436,1048.7843,926.2692,1048.7568,916.2949,1048.0192,906.3205,1048.2426,896.3462,1048.1818,886.3718,1048.7072,876.3974,1048.7315,866.4231,1048.8051,856.4487,1048.3524,846.4744,1048.5759,836.5,1048.6434,836.4847,1048.6064,836.22,1048.6746,835.8473,1048.4818,835.3774,1048.0545,835.0765,1048.0351,834.7322,1047.9111,834.5545,1047.8375,834.6746,1047.5944,834.6267,1047.2817,834.4606,1046.9199,834.0123,1046.4414,834,1046.1434,834.464,1046.1434,833.2572,1036.0382,834.2002,1025.9331,833.7007,1015.828,834.0967,1005.7228,834.2403,995.6177,834.4721,985.5126,833.2801,975.4074,834.4755,965.3023,834.1782,955.1972,834.3553,945.092,834.7478,934.9869,834.0055,924.8818,834.1753,914.7766,834.2134,904.6715,834.1972,894.5663,833.9992,884.4612,834.7107,874.3561,833.3903,864.2509,834.5653,854.1458,833.376,844.0407,833.4597,833.9355,834.04,823.8304,834.0283,813.7253,833.5072,803.6201,834.4137,793.515,834.1089,783.4099,834.7267,773.3047,834.6671,763.1996,833.5517,753.0945,833.6021,742.9893,833.8708,732.8842,834.3555,722.779,834.403,712.6739,834.3012,702.5688,833.658,692.4636,834.6364,682.3585,834,672.2534,834.1952,672.3342,834.1319,671.8938,834.2193,671.5158,834.3157,671.1415,834.5197,670.8118,834.7322,670.4856,834.7498,670.5279,835.0771,670.3181,835.386,670.064,835.8551,670.1964,836.0879,669.7585,836.5,669.7534" style="stroke:#181818;stroke-width:4.0;"/><text fill="#000000" font-family="Chalkduster" font-size="24" font-weight="bold" lengthAdjust="spacing" textLength="127" x="967.5" y="695.5943">Metadata</text></g><!--cluster Storage--><g id="cluster_Storage"><polygon fill="none" points="412.5,685.0734,412.5,685.2836,422.375,684.6591,432.25,685.2667,442.125,685.4731,452,684.36,461.875,684.9957,471.75,684.6469,481.625,684.6899,491.5,685.0052,501.375,684.382,511.25,685.627,521.125,684.4431,531,684.8756,540.875,685.5053,550.75,684.9876,560.625,685.1416,570.5,685.0414,580.375,685.2519,590.25,685.3125,600.125,685.6591,610,685.7444,619.875,685.7526,629.75,685.328,639.625,685.537,649.5,685.7756,659.375,684.3522,669.25,685.7519,679.125,684.7769,689,685.6072,698.875,684.5783,708.75,685.0049,718.625,685.815,728.5,685.0246,738.375,685.1787,748.25,685.412,758.125,685.4896,768,685.0695,777.875,685.3606,787.75,684.501,797.625,685.3578,807.5,685.0734,807.5699,685.2422,807.9103,685.3567,808.2853,685.5551,808.499,685.3639,808.831,685.4583,809.2678,685.8056,809.0764,685.7263,809.3961,686.1516,809.5001,686.4876,809.917,686.9532,809.7998,687.1975,810,687.5734,809.6569,687.5734,810.2283,697.6306,809.3332,707.6879,809.4809,717.7452,810.649,727.8025,810.4357,737.8597,810.7345,747.917,809.6782,757.9743,810.3192,768.0316,810.5904,778.0888,809.5276,788.1461,810,798.2034,809.9705,798.1911,809.8924,798.573,809.9078,798.9936,809.5594,799.2635,809.5567,799.6766,809.2678,799.9711,809.1971,799.8006,808.8278,799.909,808.6249,800.4191,808.1157,800.1897,807.9185,800.7137,807.5,800.7034,807.5,800.91,797.625,800.4355,787.75,800.3496,777.875,801.1621,768,800.404,758.125,801.2952,748.25,800.1506,738.375,801.3208,728.5,801.1877,718.625,800.9483,708.75,800.7506,698.875,801.43,689,801.3169,679.125,800.8726,669.25,800.9716,659.375,800.5731,649.5,801.4198,639.625,800.8582,629.75,800.8759,619.875,800.095,610,800.2981,600.125,801.2341,590.25,801.1331,580.375,800.6604,570.5,800.3812,560.625,800.4844,550.75,800.0172,540.875,801.1181,531,801.4429,521.125,801.2298,511.25,801.3983,501.375,800.5666,491.5,800.7906,481.625,800.3158,471.75,800.9874,461.875,800.9501,452,801.2558,442.125,800.4737,432.25,800.569,422.375,801.1468,412.5,800.7034,412.5724,800.8781,412.0811,800.3991,411.7682,800.3508,411.4584,800.31,411.0079,799.9295,410.7322,799.9711,410.8411,800.0162,410.6652,799.6505,410.4083,799.2512,410.3367,798.9286,410.3708,798.6499,410,798.2034,409.6871,798.2034,410.315,788.1461,410.2856,778.0888,410.1158,768.0316,410.1409,757.9743,410.1135,747.917,409.3758,737.8597,409.5992,727.8025,409.5385,717.7452,410.0638,707.6879,410.0881,697.6306,410,687.5734,410.0498,687.594,410.0568,687.1827,410.2721,686.8577,410.4023,686.4974,410.7634,686.2327,410.7322,685.8056,410.7866,685.937,411.0239,685.5096,411.43,685.4903,411.7193,685.1885,412.1832,685.3086,412.5,685.0734" style="stroke:#181818;stroke-width:4.0;"/><text fill="#000000" font-family="Chalkduster" font-size="24" font-weight="bold" lengthAdjust="spacing" textLength="101" x="559.5" y="710.9143">Storage</text></g><!--entity parai--><g id="elem_parai"><polygon fill="none" points="736.5,186.4934,736.5,186.7036,746.3235,186.0791,756.1471,186.6867,765.9706,186.8931,775.7941,185.78,785.6176,186.4157,795.4412,186.0669,805.2647,186.1099,815.0882,186.4252,824.9118,185.802,834.7353,187.047,844.5588,185.8631,854.3824,186.2956,864.2059,186.9253,874.0294,186.4076,883.8529,186.5616,893.6765,186.4614,903.5,186.4934,903.5228,186.5484,903.8841,186.7135,904.2818,186.9666,904.6463,187.1394,905.0009,187.2883,905.2678,187.2256,905.3462,187.2581,905.557,187.6383,905.7769,188.0223,905.485,188.1943,906.0625,188.7264,906,188.9934,905.7035,188.9934,906.5338,198.1193,905.505,207.2453,905.9315,216.3713,906.7416,225.4972,906,234.6232,905.985,234.617,905.886,234.9902,905.8114,235.3735,905.6888,235.737,905.413,236.0369,905.2678,236.391,905.3044,236.4794,904.8412,236.3611,904.5969,236.7714,904.277,236.9991,903.9103,237.1137,903.5,237.1232,903.5,237.7362,893.6765,236.6401,883.8529,236.471,874.0294,236.5018,864.2059,237.0643,854.3824,236.9267,844.5588,237.8046,834.7353,236.9485,824.9118,236.7802,815.0882,237.3515,805.2647,236.4564,795.4412,236.6041,785.6176,237.7722,775.7941,237.5589,765.9706,237.8577,756.1471,236.8014,746.3235,237.4424,736.5,237.1232,736.5753,237.305,736.0862,236.8313,735.7807,236.8008,735.4554,236.7227,735.1689,236.7381,734.7322,236.391,734.7309,236.3904,734.7282,236.0964,734.2688,235.6132,734.0843,235.2439,734.3015,235.041,734,234.6232,733.2831,234.6232,734.509,225.4972,734.2066,216.3713,733.7321,207.2453,733.6462,198.1193,734,188.9934,734.1413,189.0519,734.0543,188.6016,734.4752,188.3618,734.2691,187.8622,734.7759,187.6579,734.7322,187.2256,734.794,187.3748,735.117,187.1546,735.4454,186.9473,735.8856,187.01,736.2247,186.8288,736.5,186.4934" style="stroke:#181818;stroke-width:4.0;"/><text fill="#000000" font-family="Chalkduster" font-size="24" lengthAdjust="spacing" textLength="152" x="744" y="220.3343">PARADISEC</text></g><!--entity nyi--><g id="elem_nyi"><polygon fill="none" points="567.5,186.4934,567.5,186.7036,577.4231,186.0791,587.3462,186.6867,597.2692,186.8931,607.1923,185.78,617.1154,186.4157,627.0385,186.0669,636.9615,186.1099,646.8846,186.4252,656.8077,185.802,666.7308,187.047,676.6538,185.8631,686.5769,186.2956,696.5,186.4934,696.5551,186.6264,696.8426,186.6134,697.2158,186.8073,697.5566,186.9229,697.937,187.1341,698.2678,187.2256,698.3414,187.2561,698.5946,187.6539,698.7673,188.0183,698.9163,188.3729,698.932,188.6723,699,188.9934,699.4636,188.9934,699.7022,198.1193,698.2788,207.2453,699.6785,216.3713,698.7035,225.4972,699,234.6232,699.1644,234.6913,698.7011,234.9136,698.686,235.3216,698.789,235.7785,698.3992,236.0312,698.2678,236.391,698.2812,236.4234,697.9574,236.6417,697.6138,236.812,697.2066,236.8291,696.8902,237.0652,696.5,237.1232,696.5,236.5508,686.5769,237.4076,676.6538,237.6714,666.7308,237.5677,656.8077,237.7362,646.8846,236.6401,636.9615,236.471,627.0385,236.5018,617.1154,237.0643,607.1923,236.9267,597.2692,237.8046,587.3462,236.9485,577.4231,236.7802,567.5,237.1232,567.5291,237.1935,567.0614,236.7714,566.7267,236.6704,566.5221,236.8837,566.1414,236.6716,565.7322,236.391,565.9584,236.4847,565.4867,235.9964,565.5376,235.7246,565.4747,235.4056,565.001,234.9165,565,234.6232,564.9041,234.6232,565.126,225.4972,565.6518,216.3713,564.9958,207.2453,565.4626,198.1193,565,188.9934,564.8295,188.9227,564.9379,188.5534,565.448,188.3505,565.2186,187.8413,565.7425,187.6441,565.7322,187.2256,565.7586,187.2892,566.0516,186.9967,566.3942,186.8238,566.8514,186.9275,567.1083,186.5476,567.5,186.4934" style="stroke:#181818;stroke-width:4.0;"/><text fill="#000000" font-family="Chalkduster" font-size="24" lengthAdjust="spacing" textLength="114" x="575" y="220.3343">Nyngarn</text></g><!--entity uts--><g id="elem_uts"><polygon fill="none" points="167,186.4934,167,186.7036,177.087,186.0791,187.1739,186.6867,197.2609,186.8931,207.3478,185.78,217.4348,186.4157,227.5217,186.0669,237.6087,186.1099,247.6957,186.4252,257.7826,185.802,267.8696,187.047,277.9565,185.8631,288.0435,186.2956,298.1304,186.9253,308.2174,186.4076,318.3043,186.5616,328.3913,186.4614,338.4783,186.6719,348.5652,186.7325,358.6522,187.0791,368.7391,187.1644,378.8261,187.1726,388.913,186.748,399,186.4934,399.0591,186.6361,399.4431,186.8561,399.6151,186.5642,400.1472,187.1417,400.3764,186.9878,400.7678,187.2256,400.9322,187.2937,400.7618,187.516,401.0396,187.924,401.4355,188.3809,401.3385,188.6336,401.5,188.9934,401.6053,188.9934,401.8386,198.1193,401.9162,207.2453,401.4961,216.3713,401.7872,225.4972,401.5,234.6232,401.3237,234.5502,401.4411,235.013,401.3759,235.4002,401.1976,235.7406,401.103,236.1156,400.7678,236.391,400.7061,236.2422,400.331,236.3366,399.9814,236.4925,399.6996,236.8122,399.3285,236.9162,399,237.1232,399,237.8046,388.913,236.9485,378.8261,236.7802,368.7391,237.3515,358.6522,236.4564,348.5652,236.6041,338.4783,237.7722,328.3913,237.5589,318.3043,237.8577,308.2174,236.8014,298.1304,237.4424,288.0435,237.7136,277.9565,236.6508,267.8696,237.0273,257.7826,237.2492,247.6957,237.775,237.6087,237.119,227.5217,237.5858,217.4348,236.5694,207.3478,236.4459,197.2609,237.6268,187.1739,236.4063,177.087,237.6322,167,237.1232,167.0264,237.1868,166.6123,236.8943,166.2478,236.7214,165.9979,236.8251,165.5476,236.4452,165.2322,236.391,165.4145,236.4665,164.9156,235.9669,165.1295,235.7626,164.942,235.3921,164.7219,235.008,164.5,234.6232,164.5472,234.6232,165.2266,225.4972,165.1136,216.3713,164.6693,207.2453,164.7682,198.1193,164.5,188.9934,164.4599,188.9768,164.8671,188.7312,164.8406,188.306,164.9925,187.9547,164.8984,187.5016,165.2322,187.2256,165.1805,187.1008,165.6535,187.2426,165.9942,187.0651,166.2874,186.773,166.6054,186.5406,167,186.4934" style="stroke:#181818;stroke-width:4.0;"/><text fill="#000000" font-family="Chalkduster" font-size="24" lengthAdjust="spacing" textLength="217" x="174.5" y="220.3343">UTS Data portal</text></g><!--entity om--><g id="elem_om"><polygon fill="none" points="439,186.4934,439,186.7036,448.7778,186.0791,458.5556,186.6867,468.3333,186.8931,478.1111,185.78,487.8889,186.4157,497.6667,186.0669,507.4444,186.1099,517.2222,186.4252,527,186.4934,526.9118,186.2805,527.4242,186.8103,527.6267,186.5922,528.0354,186.8718,528.4693,187.2122,528.7678,187.2256,528.7414,187.2147,528.9352,187.5879,529.0508,187.9286,529.2621,188.309,529.4272,188.6703,529.5,188.9934,530.0857,188.9934,530.1711,198.1193,530.1793,207.2453,529.7546,216.3713,529.9636,225.4972,529.5,234.6232,529.7163,234.7128,529.1315,234.8848,529.4161,235.4169,528.9693,235.646,529.0786,236.1055,528.7678,236.391,528.7046,236.2385,528.4055,236.5163,528.1553,236.9123,527.7009,236.8153,527.367,237.0092,527,237.1232,527,237.4618,517.2222,237.5394,507.4444,237.1193,497.6667,237.4104,487.8889,236.5508,478.1111,237.4076,468.3333,237.6714,458.5556,237.5677,448.7778,237.7362,439,237.1232,438.9384,236.9744,438.5633,236.7759,438.2136,236.6389,437.9318,236.6657,437.5607,236.4769,437.2322,236.391,437.4421,236.4779,437.032,236.0151,436.8337,235.6401,436.8632,235.3594,436.4411,234.8917,436.5,234.6232,435.9809,234.6232,437.149,225.4972,436.9357,216.3713,437.2345,207.2453,436.1782,198.1193,436.5,188.9934,436.5983,189.0341,436.8283,188.7151,436.6474,188.226,436.9098,187.9205,437.1246,187.5952,437.2322,187.2256,437.3154,187.4263,437.5853,187.0779,437.9983,187.0752,438.2223,186.6157,438.5601,186.4313,439,186.4934" style="stroke:#181818;stroke-width:4.0;"/><text fill="#000000" font-family="Chalkduster" font-size="24" lengthAdjust="spacing" textLength="73" x="446.5" y="220.3343">OMAA</text></g><!--entity ldaca--><g id="elem_ldaca"><polygon fill="none" points="25.5,186.4934,25.5,186.7036,35.6,186.0791,45.7,186.6867,55.8,186.8931,65.9,185.78,76,186.4157,86.1,186.0669,96.2,186.1099,106.3,186.4252,116.4,185.802,126.5,186.4934,126.5706,186.6639,126.7732,186.4457,127.1819,186.7254,127.6158,187.0657,127.9033,187.0527,128.2678,187.2256,128.2888,187.2343,128.4044,187.5751,128.6156,187.9555,128.7808,188.3168,129.0339,188.7145,129,188.9934,129.6711,188.9934,129.6793,198.1193,129.2546,207.2453,129.4636,216.3713,129.7022,225.4972,129,234.6232,128.7779,234.5312,129.0625,235.0633,128.6158,235.2925,128.7251,235.752,128.2618,235.9743,128.2678,236.391,128.259,236.3699,128.0088,236.7658,127.5544,236.6689,127.2205,236.8627,126.8967,237.081,126.5,237.1232,126.5,237.5394,116.4,237.1193,106.3,237.4104,96.2,236.5508,86.1,237.4076,76,237.6714,65.9,237.5677,55.8,237.7362,45.7,236.6401,35.6,236.471,25.5,237.1232,25.4207,236.9318,25.1389,236.9586,24.7678,236.7698,24.5263,236.8937,24.0635,236.4836,23.7322,236.391,23.6266,236.3472,23.6561,236.0665,23.234,235.5988,23.133,235.2641,23.3463,235.0595,23,234.6232,23.4357,234.6232,23.7345,225.4972,22.6782,216.3713,23.3192,207.2453,23.5904,198.1193,23,188.9934,22.8545,188.9331,23.1169,188.6276,23.3317,188.3023,23.6401,188.0159,23.5845,187.5786,23.7322,187.2256,23.7912,187.3681,24.0151,186.9086,24.3529,186.7241,24.8571,186.9414,25.055,186.419,25.5,186.4934" style="stroke:#181818;stroke-width:4.0;"/><text fill="#000000" font-family="Chalkduster" font-size="24" lengthAdjust="spacing" textLength="86" x="33" y="220.3343">LDaCA</text></g><!--entity oni--><g id="elem_oni"><polygon fill="none" points="453.5,424.1234,453.5,424.3336,463.3333,423.7091,473.1667,424.3167,483,424.5231,492.8333,423.41,502.6667,424.0457,512.5,424.1234,512.4456,423.992,512.8046,424.1517,513.1984,424.3953,513.4725,424.3498,513.9848,424.8797,514.2678,424.8556,514.0737,424.7752,514.3533,425.1839,514.6937,425.6178,514.6807,425.9053,514.8746,426.2785,515,426.6234,514.9681,426.6234,515.1785,435.7493,515.2391,444.8753,515.5857,454.0013,515.6711,463.1272,515,472.2532,515.2092,472.3399,514.932,472.6392,514.8499,473.0194,514.7769,473.4034,514.1921,473.5754,514.2678,474.021,514.3543,474.2299,513.8764,474.0761,513.6288,474.4783,513.144,474.3079,512.8448,474.5857,512.5,474.7532,512.5,475.4948,502.6667,474.7045,492.8333,474.8585,483,475.0918,473.1667,475.1694,463.3333,474.7493,453.5,474.7532,453.5366,474.8417,453.0734,474.4305,452.8292,474.5479,452.5093,474.4827,452.1425,474.3043,451.7322,474.021,451.921,474.0992,451.437,473.6058,451.2385,473.2307,451.1015,472.881,451.1283,472.5992,451,472.2532,450.8035,472.2532,451.6814,463.1272,450.8253,454.0013,450.6569,444.8753,451.2283,435.7493,451,426.6234,450.7946,426.5383,450.9866,426.2036,451.4927,425.999,451.5735,425.6183,451.812,425.3029,451.7322,424.8556,451.6912,424.7565,452.1265,424.8075,452.5147,424.7445,452.7326,424.2708,453.1342,424.2403,453.5,424.1234" style="stroke:#181818;stroke-width:4.0;"/><text fill="#000000" font-family="Chalkduster" font-size="24" lengthAdjust="spacing" textLength="44" x="461" y="457.9643">Oni</text></g><!--entity para--><g id="elem_para"><polygon fill="none" points="731.5,424.1234,731.5,424.3336,741.3235,423.7091,751.1471,424.3167,760.9706,424.5231,770.7941,423.41,780.6176,424.0457,790.4412,423.6969,800.2647,423.7399,810.0882,424.0552,819.9118,423.432,829.7353,424.677,839.5588,423.4931,849.3824,423.9256,859.2059,424.5553,869.0294,424.0376,878.8529,424.1916,888.6765,424.0914,898.5,424.1234,898.5228,424.1784,898.8841,424.3435,899.2818,424.5966,899.6463,424.7694,900.0009,424.9183,900.2678,424.8556,900.3462,424.8881,900.557,425.2683,900.7769,425.6523,900.485,425.8243,901.0625,426.3564,901,426.6234,900.7035,426.6234,901.5338,435.7493,900.505,444.8753,900.9315,454.0013,901.7416,463.1272,901,472.2532,900.985,472.247,900.886,472.6202,900.8114,473.0035,900.6888,473.367,900.413,473.6669,900.2678,474.021,900.3044,474.1094,899.8412,473.9911,899.5969,474.4014,899.277,474.6291,898.9103,474.7437,898.5,474.7532,898.5,475.3662,888.6765,474.2701,878.8529,474.101,869.0294,474.1318,859.2059,474.6943,849.3824,474.5567,839.5588,475.4346,829.7353,474.5785,819.9118,474.4102,810.0882,474.9815,800.2647,474.0864,790.4412,474.2341,780.6176,475.4022,770.7941,475.1889,760.9706,475.4877,751.1471,474.4314,741.3235,475.0724,731.5,474.7532,731.5753,474.935,731.0862,474.4613,730.7807,474.4308,730.4554,474.3527,730.1689,474.3681,729.7322,474.021,729.7309,474.0204,729.7282,473.7264,729.2688,473.2432,729.0843,472.8739,729.3015,472.671,729,472.2532,728.2831,472.2532,729.509,463.1272,729.2066,454.0013,728.7321,444.8753,728.6462,435.7493,729,426.6234,729.1413,426.6819,729.0543,426.2316,729.4752,425.9918,729.2691,425.4922,729.7759,425.2879,729.7322,424.8556,729.794,425.0048,730.117,424.7846,730.4454,424.5773,730.8856,424.64,731.2247,424.4588,731.5,424.1234" style="stroke:#181818;stroke-width:4.0;"/><text fill="#000000" font-family="Chalkduster" font-size="24" lengthAdjust="spacing" textLength="152" x="739" y="457.9643">PARADISEC</text></g><!--entity ny--><g id="elem_ny"><polygon fill="none" points="553,424.1234,553,424.3336,562.8571,423.7091,572.7143,424.3167,582.5714,424.5231,592.4286,423.41,602.2857,424.0457,612.1429,423.6969,622,423.7399,631.8571,424.0552,641.7143,423.432,651.5714,424.677,661.4286,423.4931,671.2857,423.9256,681.1429,424.5553,691,424.1234,690.9891,424.097,691.3623,424.2908,691.703,424.4064,692.0834,424.6177,692.4447,424.7828,692.7678,424.8556,692.9481,424.9303,693.1209,425.2948,693.2698,425.6494,693.2855,425.9487,693.4963,426.329,693.5,426.6234,694.2022,426.6234,692.7788,435.7493,694.1785,444.8753,693.2035,454.0013,694.0338,463.1272,693.5,472.2532,693.3476,472.1901,693.3325,472.598,693.4355,473.0549,693.0457,473.3076,692.9466,473.6809,692.7678,474.021,692.811,474.1253,692.4673,474.2956,692.0602,474.3127,691.7437,474.5488,691.2805,474.4305,691,474.7532,691,475.0376,681.1429,475.3014,671.2857,475.1977,661.4286,475.3662,651.5714,474.2701,641.7143,474.101,631.8571,474.1318,622,474.6943,612.1429,474.5567,602.2857,475.4346,592.4286,474.5785,582.5714,474.4102,572.7143,474.9815,562.8571,474.0864,553,474.7532,552.9338,474.5933,552.7292,474.8066,552.3485,474.5945,552.033,474.5401,551.5447,474.0683,551.2322,474.021,551.3305,474.0617,551.2676,473.7427,550.7939,473.2536,550.7634,472.9481,550.6852,472.6228,550.5,472.2532,551.1518,472.2532,550.4958,463.1272,550.9626,454.0013,549.9462,444.8753,549.8227,435.7493,550.5,426.6234,550.6551,426.6876,550.4257,426.1784,550.9496,425.9812,551.003,425.5891,551.0033,425.175,551.2322,424.8556,551.1871,424.7467,551.6443,424.8504,551.9012,424.4705,552.3684,424.5985,552.5759,424.0996,553,424.1234" style="stroke:#181818;stroke-width:4.0;"/><text fill="#000000" font-family="Chalkduster" font-size="24" lengthAdjust="spacing" textLength="123" x="560.5" y="457.9643">Nyingarn</text></g><!--entity ldacp--><g id="elem_ldacp"><polygon fill="none" points="852.5,718.7534,852.5,718.9636,862.4167,718.3391,872.3333,718.9467,882.25,719.1531,892.1667,718.04,902.0833,718.6757,912,718.3269,921.9167,718.3699,931.8333,718.6852,941.75,718.062,951.6667,719.307,961.5833,718.1231,971.5,718.5556,981.4167,719.1853,991.3333,718.6676,1001.25,718.8216,1011.1667,718.7214,1021.0833,718.9319,1031,718.9925,1040.9167,719.3391,1050.8333,719.4244,1060.75,719.4326,1070.6667,719.008,1080.5833,719.217,1090.5,719.4556,1100.4167,718.0322,1110.3333,719.4319,1120.25,718.4569,1130.1667,719.2872,1140.0833,718.2583,1150,718.6849,1159.9167,719.495,1169.8333,718.7046,1179.75,718.8587,1189.6667,719.092,1199.5833,719.1696,1209.5,718.7534,1209.4995,718.7522,1209.8902,718.9883,1210.1341,718.87,1210.5969,719.2803,1210.9841,719.508,1211.2678,719.4856,1211.4047,719.5423,1211.603,719.9174,1211.4119,720.1311,1211.5063,720.4631,1211.6622,720.8206,1212,721.2534,1211.9411,721.2534,1211.8035,730.7858,1212.6814,740.3183,1211.8253,749.8507,1211.6569,759.3832,1212.2283,768.9157,1211.3332,778.4481,1211.4809,787.9806,1212,797.513,1212.1999,797.5958,1211.9877,797.9222,1211.9333,798.3138,1211.4616,798.5327,1211.5125,798.968,1211.2678,799.2808,1211.3431,799.4626,1210.854,799.2818,1210.5484,799.5442,1210.2232,799.7589,1209.9367,800.0673,1209.5,800.013,1209.5,800.0088,1199.5833,800.4756,1189.6667,799.4593,1179.75,799.3358,1169.8333,800.5167,1159.9167,799.2961,1150,800.522,1140.0833,800.2197,1130.1667,799.7451,1120.25,799.6593,1110.3333,800.4718,1100.4167,799.7137,1090.5,800.6049,1080.5833,799.4603,1070.6667,800.6305,1060.75,800.4973,1050.8333,800.258,1040.9167,800.0603,1031,800.7396,1021.0833,800.6266,1011.1667,800.1823,1001.25,800.2812,991.3333,799.8828,981.4167,800.7295,971.5,800.1679,961.5833,800.1856,951.6667,799.4047,941.75,799.6078,931.8333,800.5438,921.9167,800.4428,912,799.9701,902.0833,799.6909,892.1667,799.7941,882.25,799.3269,872.3333,800.4278,862.4167,800.7526,852.5,800.013,852.5671,800.1751,852.2351,800.0806,851.7755,799.678,851.4505,799.6006,851.0363,799.3079,850.7322,799.2808,850.8197,799.317,850.6618,798.9587,850.6095,798.6442,850.2222,798.1908,850.1051,797.8494,850,797.513,850.4435,797.513,850.5673,787.9806,849.4875,778.4481,849.8061,768.9157,850.1493,759.3832,849.3892,749.8507,850.3534,740.3183,850.258,730.7858,850,721.2534,849.969,721.2405,850.1903,720.918,850.5173,720.6392,850.343,720.1528,850.6828,719.8793,850.7322,719.4856,850.7687,719.5736,851.1006,719.3748,851.4573,719.2361,851.8074,719.0812,852.0668,718.7076,852.5,718.7534" style="stroke:#181818;stroke-width:4.0;"/><text fill="#000000" font-family="Chalkduster" font-size="24" lengthAdjust="spacing" textLength="342" x="860" y="752.5943">Languate Data Commons</text><text fill="#000000" font-family="Chalkduster" font-size="24" lengthAdjust="spacing" textLength="233" x="860" y="783.2241">RO-Crate Profile</text></g><!--entity rocrate--><g id="elem_rocrate"><polygon fill="none" points="906.5,982.0134,906.5,982.2236,916.5714,981.5991,926.6429,982.2067,936.7143,982.4131,946.7857,981.3,956.8571,981.9357,966.9286,981.5869,977,981.6299,987.0714,981.9452,997.1429,981.322,1007.2143,982.567,1017.2857,981.3831,1027.3571,981.8156,1037.4286,982.4453,1047.5,982.0134,1047.4891,981.987,1047.8623,982.1808,1048.203,982.2964,1048.5834,982.5077,1048.9447,982.6728,1049.2678,982.7456,1049.4481,982.8203,1049.6209,983.1848,1049.7698,983.5394,1049.7855,983.8387,1049.9963,984.219,1050,984.5134,1050.7022,984.5134,1049.2788,993.6393,1050.6785,1002.7653,1049.7035,1011.8913,1050.5338,1021.0172,1050,1030.1432,1049.8476,1030.0801,1049.8325,1030.488,1049.9355,1030.9449,1049.5457,1031.1976,1049.4466,1031.5709,1049.2678,1031.911,1049.311,1032.0153,1048.9673,1032.1856,1048.5602,1032.2027,1048.2437,1032.4388,1047.7805,1032.3205,1047.5,1032.6432,1047.5,1032.9276,1037.4286,1033.1914,1027.3571,1033.0877,1017.2857,1033.2562,1007.2143,1032.1601,997.1429,1031.991,987.0714,1032.0218,977,1032.5843,966.9286,1032.4467,956.8571,1033.3246,946.7857,1032.4685,936.7143,1032.3002,926.6429,1032.8715,916.5714,1031.9764,906.5,1032.6432,906.4338,1032.4833,906.2292,1032.6966,905.8485,1032.4845,905.533,1032.4301,905.0447,1031.9583,904.7322,1031.911,904.8305,1031.9517,904.7676,1031.6327,904.2939,1031.1436,904.2634,1030.8381,904.1852,1030.5128,904,1030.1432,904.6518,1030.1432,903.9958,1021.0172,904.4626,1011.8913,903.4462,1002.7653,903.3227,993.6393,904,984.5134,904.1551,984.5776,903.9257,984.0684,904.4496,983.8712,904.503,983.4791,904.5033,983.065,904.7322,982.7456,904.6871,982.6367,905.1443,982.7404,905.4012,982.3605,905.8684,982.4885,906.0759,981.9896,906.5,982.0134" style="stroke:#181818;stroke-width:4.0;"/><text fill="#000000" font-family="Chalkduster" font-size="24" lengthAdjust="spacing" textLength="126" x="914" y="1015.8543">RO-Crate</text></g><!--entity OCFL--><g id="elem_OCFL"><polygon fill="none" points="428,734.0734,428,734.2836,438.5,733.6591,449,734.2667,459.5,734.4731,470,733.36,480.5,733.9957,491,733.6469,501.5,733.6899,512,734.0734,511.9913,734.0524,512.2654,734.0069,512.7777,734.5368,512.9803,734.3186,513.389,734.5983,513.7678,734.8056,513.9008,734.8607,513.8878,735.1482,514.0817,735.5214,514.1973,735.8622,514.4085,736.2426,514.5,736.5734,514.7391,736.5734,515.0857,745.6993,515.1711,754.8253,515.1793,763.9513,514.7546,773.0772,514.5,782.2032,514.6428,782.2623,514.5698,782.6463,513.985,782.8183,514.2696,783.3504,513.8229,783.5796,513.7678,783.971,513.8359,784.1354,513.3511,783.965,513.0519,784.2428,512.8017,784.6387,512.3473,784.5418,512,784.7032,512,784.8085,501.5,785.0418,491,785.1194,480.5,784.6993,470,784.9904,459.5,784.1308,449,784.9876,438.5,785.2514,428,784.7032,428.0567,784.8401,427.7246,784.7455,427.2313,784.2615,426.8561,784.063,426.5065,783.9261,426.2322,783.971,426.2141,783.9635,426.0253,783.5923,426.1492,783.3508,425.7391,782.888,425.5408,782.513,425.5,782.2032,425.7283,782.2032,424.8332,773.0772,424.9809,763.9513,426.149,754.8253,425.9357,745.6993,425.5,736.5734,425.7262,736.6671,425.5473,736.1788,425.8912,735.907,426.1212,735.588,425.9403,735.0989,426.2322,734.8056,426.22,734.7761,426.6019,734.698,427.0225,734.7134,427.2924,734.365,427.7055,734.3623,428,734.0734" style="stroke:#181818;stroke-width:4.0;"/><text fill="#000000" font-family="Chalkduster" font-size="24" lengthAdjust="spacing" textLength="69" x="435.5" y="767.9143">OCFL</text></g><!--entity NOCFL--><g id="elem_NOCFL"><polygon fill="none" points="551.5,734.0734,551.5,734.2836,561.6,733.6591,571.7,734.2667,581.8,734.4731,591.9,733.36,602,733.9957,612.1,733.6469,622.2,733.6899,632.3,734.0052,642.4,733.382,652.5,734.0734,652.5706,734.2439,652.7732,734.0257,653.1819,734.3054,653.6158,734.6457,653.9033,734.6327,654.2678,734.8056,654.2888,734.8143,654.4044,735.1551,654.6156,735.5355,654.7808,735.8968,655.0339,736.2945,655,736.5734,655.6711,736.5734,655.6793,745.6993,655.2546,754.8253,655.4636,763.9513,655.7022,773.0772,655,782.2032,654.7779,782.1112,655.0625,782.6433,654.6158,782.8725,654.7251,783.332,654.2618,783.5543,654.2678,783.971,654.259,783.9499,654.0088,784.3458,653.5544,784.2489,653.2205,784.4427,652.8967,784.661,652.5,784.7032,652.5,785.1194,642.4,784.6993,632.3,784.9904,622.2,784.1308,612.1,784.9876,602,785.2514,591.9,785.1477,581.8,785.3162,571.7,784.2201,561.6,784.051,551.5,784.7032,551.4207,784.5118,551.1389,784.5386,550.7678,784.3498,550.5263,784.4737,550.0635,784.0636,549.7322,783.971,549.6266,783.9272,549.6561,783.6465,549.234,783.1788,549.133,782.8441,549.3463,782.6395,549,782.2032,549.4357,782.2032,549.7345,773.0772,548.6782,763.9513,549.3192,754.8253,549.5904,745.6993,549,736.5734,548.8545,736.5131,549.1169,736.2076,549.3317,735.8823,549.6401,735.5959,549.5845,735.1586,549.7322,734.8056,549.7912,734.9481,550.0151,734.4886,550.3529,734.3041,550.8571,734.5214,551.055,733.999,551.5,734.0734" style="stroke:#181818;stroke-width:4.0;"/><text fill="#000000" font-family="Chalkduster" font-size="24" lengthAdjust="spacing" textLength="86" x="559" y="767.9143">NOCFL</text></g><!--entity pr--><g id="elem_pr"><polygon fill="none" points="693,734.0734,693,734.2836,702.8,733.6591,712.6,734.2667,722.4,734.4731,732.2,733.36,742,733.9957,751.8,733.6469,761.6,733.6899,771.4,734.0052,781.2,733.382,791,734.0734,791.0706,734.2439,791.2732,734.0257,791.6819,734.3054,792.1158,734.6457,792.4033,734.6327,792.7678,734.8056,792.7888,734.8143,792.9044,735.1551,793.1156,735.5355,793.2808,735.8968,793.5339,736.2945,793.5,736.5734,794.1711,736.5734,794.1793,745.6993,793.7546,754.8253,793.9636,763.9513,794.2022,773.0772,793.5,782.2032,793.2779,782.1112,793.5625,782.6433,793.1158,782.8725,793.2251,783.332,792.7618,783.5543,792.7678,783.971,792.759,783.9499,792.5088,784.3458,792.0544,784.2489,791.7205,784.4427,791.3967,784.661,791,784.7032,791,785.1194,781.2,784.6993,771.4,784.9904,761.6,784.1308,751.8,784.9876,742,785.2514,732.2,785.1477,722.4,785.3162,712.6,784.2201,702.8,784.051,693,784.7032,692.9207,784.5118,692.6389,784.5386,692.2678,784.3498,692.0263,784.4737,691.5635,784.0636,691.2322,783.971,691.1266,783.9272,691.1561,783.6465,690.734,783.1788,690.633,782.8441,690.8463,782.6395,690.5,782.2032,690.9357,782.2032,691.2345,773.0772,690.1782,763.9513,690.8192,754.8253,691.0904,745.6993,690.5,736.5734,690.3545,736.5131,690.6169,736.2076,690.8317,735.8823,691.1401,735.5959,691.0845,735.1586,691.2322,734.8056,691.2912,734.9481,691.5151,734.4886,691.8529,734.3041,692.3571,734.5214,692.555,733.999,693,734.0734" style="stroke:#181818;stroke-width:4.0;"/><text fill="#000000" font-family="Chalkduster" font-size="24" lengthAdjust="spacing" textLength="83" x="700.5" y="767.9143">-TBC-</text></g><!--link ny to NOCFL--><g id="link_ny_NOCFL"><path d="M620.4,475.1234 L620.6797,475.1415 L619.1919,485.1996 L619.3436,495.3641 L618.9614,505.4939 L616.8236,515.5097 L617.0126,525.6767 L615.8917,535.7585 L615.2921,545.8742 L615.0549,556.0135 L613.5689,566.0716 L614.5686,576.2912 L612.3366,586.3009 L612.2553,596.4503 L612.4363,606.6167 L611.0907,616.684 L610.6388,626.8093 L609.8487,636.9126 L609.4719,647.0428 L608.8958,657.16 L608.7001,667.302 L608.1569,677.4214 L607.511,687.5341 L606.2892,697.6094 L605.9104,707.7394 L605.5711,717.8721 L603.98,727.9234 " fill="none" style="stroke:#8B0000;stroke-width:4.0;"/><polygon fill="#8B0000" points="603.61,732.5834,603.672,732.616,604.4044,730.7756,605.5003,729.1264,606.4778,727.4149,607.0661,725.4987,608.1932,723.8659,608.1761,723.8464,607.2486,724.5046,606.4072,725.2611,605.6256,726.0858,604.6378,726.6752,603.9388,727.5942,604.0776,727.7158,603.0351,726.6049,602.3979,725.849,601.8101,725.1365,600.9347,724.1718,600.2105,723.3398,600.2318,723.3477,600.8804,725.1848,601.6261,727.0578,602.325,728.9135,603.1133,730.802,603.61,732.5834" style="stroke:#8B0000;stroke-width:4.0;"/></g><!--link para to pr--><g id="link_para_pr"><path d="M809.15,475.1234 L809.4227,475.188 L806.3075,484.719 L804.7908,494.629 L802.7535,504.4155 L799.0045,513.7963 L797.5242,523.7149 L794.7667,533.3307 L792.5175,543.067 L790.6216,552.887 L787.508,562.4184 L786.8183,572.5244 L782.9773,581.8834 L781.2334,591.7395 L779.7454,601.6562 L776.7687,611.2201 L774.6635,620.9905 L772.2286,630.6828 L770.1966,640.4706 L767.9702,650.2123 L766.1149,660.042 L763.9206,669.7913 L761.6263,679.5169 L758.7703,689.1094 L756.7364,698.8967 L754.7411,708.6932 L750.5894,717.9785 L749.22,727.9234 " fill="none" style="stroke:#8B0000;stroke-width:4.0;"/><polygon fill="#8B0000" points="747.88,732.5834,747.9357,732.6259,748.9656,730.934,750.3219,729.4913,751.572,727.9674,752.4725,726.1767,753.8568,724.7554,753.8433,724.7333,752.8187,725.2271,751.8626,725.8322,750.9541,726.5145,749.8816,726.9304,749.0387,727.7195,749.1959,727.8162,748.267,726.6458,747.797,725.7577,747.3829,724.9041,746.6431,723.85,746.0746,722.9014,746.097,722.9056,746.4252,724.8358,746.8553,726.7851,747.2362,728.7252,747.7109,730.6828,747.88,732.5834" style="stroke:#8B0000;stroke-width:4.0;"/></g><!--link oni to OCFL--><g id="link_oni_OCFL"><path d="M481.96,475.1234 L482.24,475.1352 L480.9813,485.2121 L481.3639,495.3582 L481.212,505.4818 L479.3025,515.5313 L479.7225,525.679 L478.831,535.7714 L478.4615,545.8858 L478.4548,556.0155 L477.1978,566.0925 L478.4295,576.2745 L476.4256,586.3199 L476.5749,596.4563 L476.987,606.6037 L475.8705,616.6865 L475.6489,626.8072 L475.0886,636.9136 L474.9422,647.0374 L474.5962,657.1528 L474.631,667.2843 L474.3179,677.4011 L473.9021,687.5136 L472.9096,697.6017 L472.7612,707.7254 L472.6523,717.8509 L471.29,727.9234 " fill="none" style="stroke:#8B0000;stroke-width:4.0;"/><polygon fill="#8B0000" points="471.05,732.5834,471.1127,732.6145,471.8027,730.7578,472.8604,729.0838,473.7983,727.3504,474.3424,725.4212,475.4317,723.7629,475.4142,723.7438,474.502,724.4232,473.6782,725.1987,472.9158,726.0412,471.9418,726.6532,471.2641,727.588,471.4001,727.7127,470.3443,726.6124,469.6855,725.8763,469.0751,725.1848,468.183,724.2345,467.439,723.4204,467.4602,723.4287,468.1513,725.2491,468.9388,727.1074,469.6798,728.9474,470.5094,730.8223,471.05,732.5834" style="stroke:#8B0000;stroke-width:4.0;"/></g><!--link ny to ldacp--><g id="link_ny_ldacp"><path d="M654.78,475.1234 L654.9486,475.3473 L662.4085,480.6758 L670.8565,487.3168 L678.9828,493.5304 L686.0509,498.3385 L694.5214,505.0093 L702.2025,510.6316 L710.1977,516.6711 L718.4113,523.0008 L725.8723,528.3307 L734.8315,535.6506 L741.8428,540.3833 L750.1504,546.8377 L758.6162,553.5022 L766.1617,558.9445 L774.246,565.1023 L782.1264,570.9893 L790.2559,577.2073 L798.2653,583.2656 L806.504,589.6285 L814.5332,595.7132 L822.5005,601.7157 L830.1207,607.2571 L838.249,613.4734 L846.4012,619.7214 L853.2204,624.1989 L862.3037,631.6836 L869.4825,636.6388 L878.1091,643.517 L885.2447,648.4148 L893.5476,654.8629 L902.158,661.7196 L909.4849,666.8715 L917.5692,673.0293 L925.7171,679.2716 L933.7401,685.348 L941.3639,690.8942 L949.5581,697.1981 L956.8294,702.2761 L965.4773,709.1825 L973.21,714.8734 " fill="none" style="stroke:#8B0000;stroke-width:4.0;"/><polygon fill="#8B0000" points="976.81,718.3334,976.8712,718.3674,975.7322,716.5446,974.9522,714.9214,974.0553,713.2332,972.774,711.3312,972.0248,709.7251,971.9991,709.7215,972.0421,710.8255,972.2144,711.9478,972.4765,713.0828,972.4289,714.174,972.8152,715.3265,972.8409,715.5092,971.6655,715.2765,970.5654,715.5774,969.4745,715.9433,968.3301,715.9305,967.2138,716.1169,967.2189,716.139,969.1306,716.5498,971.0657,717.0615,972.9895,717.5244,974.9347,718.0803,976.81,718.3334" style="stroke:#8B0000;stroke-width:4.0;"/></g><!--link para to ldacp--><g id="link_para_ldacp"><path d="M832.31,475.1234 L832.5394,475.2843 L837.6281,483.0327 L844.0617,491.7245 L850.0573,500.109 L854.6127,507.4834 L861.0769,516.1966 L866.4665,524.1561 L872.2838,532.4156 L878.3984,540.8836 L883.4884,548.633 L890.6178,557.8128 L895.0958,565.1329 L901.3383,573.6906 L907.796,582.3993 L913.0012,590.2294 L918.9397,598.5739 L924.6006,606.7237 L930.6007,615.1114 L936.4372,623.3844 L942.5859,631.8763 L948.4494,640.1682 L954.2287,648.401 L959.5355,656.3025 L965.534,664.689 L971.5648,673.0983 L975.7814,680.235 L983.0796,689.5332 L987.7857,697.0132 L994.4624,705.8755 L999.65,713.6934 " fill="none" style="stroke:#8B0000;stroke-width:4.0;"/><polygon fill="#8B0000" points="1002.91,717.3334,1002.9787,717.3469,1002.394,715.374,1002.2123,713.4805,1001.8993,711.5611,1001.1548,709.5567,1001.0076,707.67,1000.9821,707.6655,1000.6731,708.7601,1000.4927,709.877,1000.4017,711.0096,1000.0025,712.0884,1000.035,713.2426,1000.0667,713.4244,998.8844,712.8411,997.7946,712.7886,996.7162,712.8009,995.572,712.4363,994.4624,712.27,994.4741,712.2895,996.1464,713.2735,997.872,714.3464,999.5719,715.3764,1001.3209,716.4881,1002.91,717.3334" style="stroke:#8B0000;stroke-width:4.0;"/></g><!--link oni to ldacp--><g id="link_oni_ldacp"><path d="M504.73,475.1734 L504.7936,475.2417 L507.2853,477.5338 L510.15,480.2268 L512.8933,482.7891 L515.237,484.9223 L518.1338,487.6496 L518.1131,487.6219 L520.9936,489.7185 L523.9783,491.9546 L527.0354,494.2876 L529.8429,496.2864 L533,498.7534 L533.1297,498.9625 L534.9018,499.7868 L537.0527,501.2217 L539.2497,502.731 L541.1779,503.8069 L543.2475,505.1108 L543.2629,505.1369 L545.222,506.2629 L547.2511,507.5079 L549.2464,508.6955 L551.3061,509.9926 L553.1559,510.9325 L553.3006,511.1934 L555.2209,512.2606 L557.0479,513.1595 L559.0116,514.3047 L560.9816,515.4615 L562.7488,516.2526 L562.6005,515.9684 L564.7484,517.4904 L566.4082,518.0766 L568.4391,519.3742 L570.0878,519.9392 L572.0498,521.1047 L572.0367,521.0772 L575.755,523.09 L579.1689,524.4598 L582.7624,526.209 L586.371,527.99 L589.8708,529.5413 L589.9412,529.7124 L593.2576,530.9342 L596.6943,532.4483 L599.9363,533.4895 L603.4688,535.2361 L606.8081,536.5137 L606.8898,536.7432 L610.1229,537.8557 L613.3966,539.0822 L616.4819,539.7791 L619.7053,540.8642 L623.051,542.2932 L622.9696,542.0293 L626.1908,543.2398 L629.3203,544.1529 L632.5829,545.4974 L635.6182,546.1054 L638.7887,547.1512 L638.7485,547.0041 L641.8997,548.0907 L644.8793,548.5485 L647.9809,549.4534 L651.2019,550.7958 L654.2103,551.3592 L654.2573,551.547 L657.3485,552.4417 L660.2934,552.7521 L663.4216,553.7943 L666.5098,554.6771 L669.505,555.1884 L669.4555,554.9843 L672.5664,555.8913 L675.661,556.7315 L678.7875,557.703 L681.7902,558.1641 L684.8621,558.9102 L684.9117,559.1097 L687.9243,559.4486 L691.0328,560.1725 L694.2813,561.459 L697.272,561.7098 L700.4707,562.7961 L700.5295,563.0146 L703.7045,563.7491 L706.8595,564.4097 L710.0594,565.2371 L713.3632,566.4501 L716.5201,567.1175 L716.4817,566.9901 L719.9319,568.3749 L723.1209,568.8935 L726.6069,570.3971 L729.9256,571.346 L733.1994,572.1456 L733.2347,572.2485 L736.7059,573.3667 L740.3036,574.8535 L743.787,576.0072 L747.2226,577.0217 L750.6978,578.1518 L750.7413,578.2628 L754.378,579.5491 L758.2168,581.3506 L761.827,582.5694 L765.5312,584.0279 L769.2046,585.4076 L769.0975,585.1594 L771.0714,586.0785 L773.1743,587.2967 L775.0947,588.0918 L776.9496,588.7351 L778.8953,589.5889 L778.8355,589.4588 L780.8574,590.4196 L782.7735,591.1499 L784.9803,592.5137 L787.0433,593.564 L788.9089,594.1844 L789.0113,594.3947 L791.1162,595.4708 L793.0265,596.1471 L795.1421,597.2453 L797.1218,598.0643 L799.2693,599.2279 L799.3271,599.3401 L801.4656,600.4305 L803.674,601.6563 L805.661,602.4524 L807.8265,603.5952 L810,604.7534 L810.0938,604.9267 L812.3753,606.1949 L814.4023,606.9926 L816.7249,608.3369 L819.0528,609.6908 L821.2766,610.8523 L821.1433,610.6158 L823.6166,612.2645 L825.8588,613.5029 L828.0435,614.6394 L830.3595,616.0088 L832.5915,617.2291 L832.7549,617.5087 L834.7853,618.4325 L837.1901,619.9969 L839.4475,621.3092 L841.6734,622.5675 L843.9114,623.8465 L843.9438,623.9001 L846.1958,625.2539 L848.2846,626.3374 L850.5942,627.7865 L852.8386,629.1275 L855.203,630.6673 L855.218,630.6914 L857.4696,632.0979 L859.7329,633.523 L861.8726,634.7495 L864.171,636.2312 L866.4328,637.654 L866.4041,637.609 L868.7979,639.2931 L870.9889,640.6599 L872.9975,641.7414 L875.3233,643.3191 L877.5677,644.7694 L877.426,644.5555 L882.0086,647.7698 L886.4574,650.782 L890.8119,653.6519 L894.9417,656.1822 L899.4188,659.2371 L899.5358,659.4069 L903.4454,661.8723 L907.8975,665.1242 L911.9856,667.8484 L916.2996,670.9003 L920.4894,673.7718 L920.5514,673.8587 L924.616,676.8032 L928.3127,679.2328 L932.6262,682.5257 L936.554,685.2789 L940.5127,688.0751 L940.6063,688.2023 L944.4515,691.0974 L947.9978,693.5864 L951.7843,696.4018 L955.5362,699.1702 L959.2218,701.8484 L959.2747,701.9184 L962.6472,704.4371 L966.2635,707.2784 L969.3353,709.3992 L973.0758,712.4048 L976.35,714.7934 " fill="none" style="stroke:#8B0000;stroke-width:4.0;"/><polygon fill="#8B0000" points="980.01,718.3634,980.0715,718.3969,978.9465,716.5675,978.182,714.9346,977.3002,713.2378,976.0321,711.3305,975.2987,709.7145,975.273,709.7111,975.3062,710.8174,975.4689,711.9409,975.7216,713.0763,975.6641,714.1706,976.041,715.3224,976.0653,715.5054,974.8919,715.2626,973.7892,715.554,972.6952,715.9106,971.551,715.888,970.4331,716.0648,970.4384,716.0869,972.346,716.5142,974.2778,717.0421,976.1979,717.5215,978.1402,718.0935,980.01,718.3634" style="stroke:#8B0000;stroke-width:4.0;"/></g><!--link oni to rocrate--><g id="link_oni_rocrate"><path d="M450.59,473.1434 L450.6497,473.2152 L447.9422,475.1044 L445.5846,477.4147 L443.1131,479.5878 L440.2668,481.31 L437.9394,483.6564 L437.9159,483.6311 L435.1781,485.9536 L432.5585,488.4039 L430.0212,490.9431 L427.2005,493.1761 L424.7767,495.8379 L424.9553,496.0072 L421.9741,498.3858 L419.5142,501.2587 L417.1178,504.192 L414.3515,506.7743 L411.7798,509.5412 L411.8034,509.5602 L409.338,512.5479 L406.9801,515.6223 L404.5704,518.6549 L402.2596,521.7673 L399.6262,524.6196 L399.8761,524.7825 L397.7526,528.0459 L395.4681,531.2043 L393.4194,534.5164 L391.3817,537.8357 L388.9938,540.9267 L388.7054,540.7868 L387.5784,544.5361 L385.5018,547.8248 L384.1471,551.4636 L382.0489,554.7419 L380.5602,558.3157 L380.531,558.3069 L379.7641,562.0763 L378.3166,565.6392 L377.2706,569.324 L376.2584,573.0189 L375.003,576.6401 L375.187,576.6594 L374.6007,580.4626 L374.3287,584.2987 L373.5482,588.0816 L373.5263,591.9439 L373,595.7534 L373.7309,595.7534 L373.5927,605.5778 L373.8174,615.4023 L372.3559,625.2267 L372.1304,635.0511 L372.1715,644.8756 L372.9215,654.7 L372.738,664.5245 L373.9085,674.3489 L372.7671,684.1734 L372.5426,693.9978 L373.3044,703.8223 L372.1109,713.6467 L372.3078,723.4711 L373.8653,733.2956 L373.5809,743.12 L373.9793,752.9445 L372.5709,762.7689 L373.4256,772.5934 L373.7872,782.4178 L372.3701,792.2423 L372.8722,802.0667 L373.168,811.8911 L373.869,821.7156 L372.9944,831.54 L373.6168,841.3645 L372.2616,851.1889 L373,861.0134 L372.7057,860.9503 L374.0376,864.8819 L374.3259,868.5898 L375.6774,872.5256 L376.3648,876.319 L377.0938,880.1214 L376.9898,880.0633 L377.9492,881.8234 L379.2573,883.778 L379.9559,885.3924 L381.2946,887.3641 L382.0577,889.0145 L381.8658,888.8611 L383.6264,890.8793 L384.9347,892.5356 L386.2061,894.1625 L387.4919,895.8009 L388.83,897.4811 L389.0524,897.7153 L390.7135,899.2889 L392.2732,900.7558 L393.9992,902.3978 L395.573,903.8794 L397.3086,905.5315 L397.501,905.7852 L399.3667,907.1152 L401.388,908.6504 L403.1948,909.9028 L405.2659,911.5037 L407.3913,913.1761 L407.5164,913.3761 L409.8095,914.7879 L412.0149,916.0597 L414.266,917.4044 L416.6073,918.8932 L418.9758,920.4255 L418.8332,920.1559 L421.6588,921.9614 L424.3231,923.4619 L426.8757,924.7511 L429.5075,926.1902 L431.96,927.2901 L431.9349,927.2348 L434.8324,928.6234 L437.6014,929.7293 L440.5813,931.2991 L443.4307,932.5821 L446.2417,933.7803 L446.3321,934.0086 L449.2996,934.9106 L452.4105,936.1753 L455.6005,937.6393 L458.7161,938.9158 L461.7188,939.9066 L461.6438,939.6915 L465.0044,940.9798 L468.3686,942.2783 L471.5715,943.1139 L475.0265,944.6731 L478.2889,945.6794 L478.3228,945.7889 L481.7879,946.7226 L485.332,947.9117 L488.9212,949.2467 L492.2967,949.8904 L495.85,951.1092 L495.8873,951.2441 L499.5738,952.251 L503.2436,953.1977 L506.9366,954.2279 L510.6233,955.2356 L514.2998,956.2064 L514.233,955.9372 L518.1042,956.9885 L521.945,957.9173 L525.8485,959.099 L529.6984,960.0645 L533.5362,960.9815 L533.552,961.0516 L537.4921,961.748 L541.498,962.7376 L545.477,963.6074 L549.5289,964.8024 L553.457,965.4449 L553.4947,965.6307 L557.5147,966.0659 L561.6518,967.078 L565.7078,967.6908 L569.8849,968.9003 L573.96,969.6071 L574.0091,969.8731 L578.2005,970.6194 L582.3181,970.9653 L586.5872,972.1328 L590.6865,972.3796 L594.943,973.4786 L594.9577,973.5663 L599.1931,974.0656 L603.4944,974.9574 L607.7771,975.7386 L612.0664,976.5584 L616.3038,977.0697 L616.2552,976.7534 L620.6631,977.9428 L624.9703,978.4764 L629.3096,979.2185 L633.6633,980.0552 L637.9402,980.3909 L637.9405,980.3933 L642.313,981.0804 L646.6773,981.7096 L651.0382,982.3148 L655.388,982.84 L659.75,983.4527 L659.7903,983.766 L664.0917,983.7465 L668.5345,984.8271 L672.8433,984.8654 L677.2243,985.4648 L681.6311,986.2656 L681.6332,986.2832 L686.0026,986.7929 L690.3455,987.0778 L694.7627,987.9928 L699.1169,988.3731 L703.4813,988.8399 L703.5159,989.161 L707.8565,989.6039 L712.1467,989.5803 L716.4925,990.0718 L720.8487,990.6598 L725.1983,991.1861 L725.2139,991.3434 L729.5123,991.7901 L733.8042,992.1708 L738.0723,992.3121 L742.4115,993.1705 L746.68,993.3148 L746.7055,993.5953 L750.9069,993.6781 L755.1281,993.9775 L759.3504,994.29 L763.5867,994.757 L767.8242,995.2362 L767.8293,995.2971 L771.9626,995.5509 L776.0906,995.7411 L780.2649,996.4869 L784.3709,996.4128 L788.5288,996.961 L788.545,997.1837 L796.4788,997.7306 L804.4133,998.2862 L812.3599,999.0086 L820.2658,999.1729 L828.21,999.8621 L828.2019,999.7287 L835.5633,1000.5402 L842.8723,1000.4931 L850.2214,1001.102 L857.5701,1001.705 L864.9063,1002.1017 L864.9078,1002.1322 L871.477,1002.2749 L878.0628,1002.7473 L884.6592,1003.4292 L891.2358,1003.7189 L897.8,1003.7634 " fill="none" style="stroke:#8B0000;stroke-width:4.0;"/><polygon fill="#8B0000" points="902.54,1004.0234,902.5712,1004.0861,900.7145,1003.0233,899.0405,1002.3284,897.307,1001.5137,895.3778,1000.3051,893.7195,999.6417,893.7004,999.6242,894.3798,1000.3791,895.1554,1001.2223,895.9978,1002.1269,896.6098,1002.8199,897.5446,1003.8093,897.6694,1003.9452,896.569,1004.4195,895.833,1005.2907,895.1414,1006.2104,894.1912,1006.8483,893.377,1007.6343,893.3853,1007.6555,895.2057,1006.9022,897.064,1006.2453,898.904,1005.5419,900.779,1004.9272,902.54,1004.0234" style="stroke:#8B0000;stroke-width:4.0;"/></g><!--link om to oni--><g id="link_om_oni"><path d="M483,237.5834 L483.2802,237.5834 L482.4476,247.5973 L483.2577,257.6111 L483.5329,267.625 L482.0488,277.6389 L482.8964,287.6528 L482.4313,297.6667 L482.4887,307.6806 L482.9091,317.6945 L482.0782,327.7084 L483.7382,337.7223 L482.1596,347.7361 L482.7363,357.75 L483.5759,367.7639 L482.8856,377.7778 L483.091,387.7917 L482.9574,397.8056 L483.238,407.8195 L483,417.8334 " fill="none" style="stroke:#8B0000;stroke-width:4.0;"/><polygon fill="#8B0000" points="483,422.6434,483.064,422.6718,483.6738,420.7873,484.6589,419.0695,485.5217,417.2975,485.9827,415.3468,487,413.6434,486.9817,413.6251,486.0995,414.3428,485.3096,415.153,484.5839,416.0273,483.637,416.6804,483,417.6434,483.1305,417.7739,482.0514,416.6948,481.3534,415.9968,480.7018,415.3452,479.7798,414.4232,479,413.6434,479.0208,413.6526,479.7903,415.439,480.6544,417.2675,481.4728,419.0757,482.3784,420.9227,483,422.6434" style="stroke:#8B0000;stroke-width:4.0;"/></g><!--link uts to oni--><g id="link_uts_oni"><path d="M304.03,237.5834 L304.2437,237.7647 L310.0338,244.7955 L317.0765,252.8893 L323.7113,260.637 L329.0048,267.2462 L336.076,275.3642 L342.1465,282.6329 L348.6152,290.2396 L355.3607,298.0812 L361.1522,305.1131 L368.8428,313.7569 L374.0643,320.305 L380.929,328.2477 L387.9941,336.3606 L393.8928,343.4835 L400.4744,351.186 L406.7975,358.6691 L413.4365,366.4203 L419.9231,374.0422 L426.7004,381.9108 L433.2121,389.554 L439.6455,397.1307 L445.6388,404.3339 L452.2762,412.0838 L458.23,419.2534 " fill="none" style="stroke:#8B0000;stroke-width:4.0;"/><polygon fill="#8B0000" points="461.96,422.6434,462.0272,422.6631,461.2717,420.7147,460.9102,418.8821,460.4204,417.0118,459.5087,415.0173,459.181,413.1947,459.1552,413.1926,458.9476,414.3108,458.8702,415.4397,458.8833,416.5758,458.5846,417.6866,458.7226,418.833,458.7375,419.0169,457.5779,418.5319,456.4619,418.5839,455.3513,418.7014,454.2097,418.4378,453.0843,418.3746,453.0942,418.3951,454.8549,419.2187,456.6604,420.1357,458.4443,421.0077,460.2695,421.9656,461.96,422.6434" style="stroke:#8B0000;stroke-width:4.0;"/></g><!--link ldaca to oni--><g id="link_ldaca_oni"><path d="M110.98,237.5234 L111.0321,237.6009 L114.4358,239.7613 L118.1449,242.3762 L121.7546,244.8431 L125.0372,246.8232 L128.7725,249.4771 L128.7537,249.4481 L130.5018,250.5074 L132.3447,251.7127 L134.2535,253.0196 L135.9352,253.9765 L137.935,255.4235 L138.066,255.6318 L139.5989,256.3264 L141.5142,257.6291 L143.4762,259.006 L145.1667,259.9511 L147,261.1234 L147.0158,261.1492 L151.0242,263.5755 L155.1045,266.1196 L159.1501,268.6068 L163.262,271.2025 L167.1578,273.4447 L167.3113,273.7004 L171.4303,276.1751 L175.4503,278.4848 L179.6152,281.036 L183.7868,283.5985 L187.7433,285.8025 L187.5803,285.5265 L192.0725,288.529 L196.0279,290.6227 L200.3915,293.4073 L204.3347,295.4805 L208.6225,298.1368 L208.6071,298.1105 L212.9961,300.8719 L217.0271,303.0185 L221.2694,305.5279 L225.5294,308.0677 L229.6614,310.3879 L229.9368,310.8698 L238.0631,315.186 L246.66,320.3255 L254.4956,324.133 L263.4667,329.9274 L271.6829,334.4008 L272.0397,335.0387 L280.1829,339.5103 L288.5032,344.2987 L296.0005,347.6154 L304.1011,352.0109 L312.7363,357.3621 L312.6033,357.1201 L320.5264,361.6254 L328.2997,365.8579 L336.2904,370.4861 L343.91,374.4388 L351.7501,378.793 L351.6776,378.6589 L358.9789,382.7665 L365.9702,386.3009 L373.182,390.2429 L380.6096,394.5839 L387.653,398.2145 L387.7442,398.3853 L394.1508,401.8891 L400.2738,404.8615 L406.752,408.4995 L413.1529,411.9924 L419.3734,415.1476 L419.2754,414.9619 L424.6469,417.9031 L429.9862,420.7834 L435.3886,423.7832 L440.5458,426.3186 L445.84,429.1134 " fill="none" style="stroke:#8B0000;stroke-width:4.0;"/><polygon fill="#8B0000" points="449.96,431.8034,450.0149,431.8469,448.629,430.1733,447.5651,428.7547,446.3963,427.2531,444.8826,425.4785,443.8463,424.0818,443.8216,424.074,444.0477,425.1194,444.3985,426.2037,444.8359,427.315,444.9746,428.3331,445.5317,429.4817,445.5867,429.6579,444.3891,429.6182,443.3521,430.0929,442.3346,430.6304,441.2032,430.8027,440.1317,431.1671,440.1332,431.1898,442.0967,431.2837,444.0669,431.481,446.0338,431.6284,448.007,431.8709,449.96,431.8034" style="stroke:#8B0000;stroke-width:4.0;"/></g><!--link ldacp to rocrate--><g id="link_ldacp_rocrate"><path d="M1022.2,800.4434 L1022.4737,800.5035 L1019.5204,810.0733 L1018.1717,819.9953 L1016.3005,829.8026 L1012.7109,839.2328 L1011.3988,849.1628 L1008.8046,858.8114 L1006.7206,868.5721 L1004.9912,878.4106 L1002.0396,887.9807 L1001.521,898.085 L997.8392,907.4948 L996.2624,917.3668 L994.9425,927.2952 L992.1283,936.8955 L990.1889,946.6879 L987.9184,956.4076 L986.0525,966.2161 L983.68,975.9134 " fill="none" style="stroke:#8B0000;stroke-width:4.0;"/><polygon fill="#8B0000" points="982.42,980.6434,982.4764,980.6849,983.4757,978.9747,984.8059,977.5078,986.0283,975.9617,986.8964,974.1551,988.255,972.7091,988.2411,972.6873,987.2256,973.1994,986.2805,973.8216,985.3844,974.5202,984.3196,974.9553,983.491,975.7594,983.6465,975.8589,982.704,974.6933,982.2154,973.8183,981.7821,972.9787,981.0267,971.9328,980.4407,970.9954,980.463,971,980.8261,972.9229,981.2907,974.8666,981.7064,976.8002,982.2154,978.753,982.42,980.6434" style="stroke:#8B0000;stroke-width:4.0;"/></g><!--link parai to para--><g id="link_parai_para"><path d="M819.47,237.5834 L819.7502,237.5893 L818.7055,247.5856 L819.3032,257.6166 L819.3661,267.6363 L817.6701,277.6188 L818.3053,287.6506 L817.6281,297.6547 L817.4732,307.6698 L817.6814,317.6926 L816.6384,327.6888 L818.0858,337.7379 L816.2954,347.7183 L816.6597,357.7445 L817.2869,367.7761 L816.3845,377.7754 L816.3776,387.7936 L816.0319,397.8047 L816.1002,407.8245 L815.65,417.8334 " fill="none" style="stroke:#8B0000;stroke-width:4.0;"/><polygon fill="#8B0000" points="815.53,422.6434,815.5934,422.6731,816.2408,420.8011,817.26,419.1034,818.1581,417.349,818.658,415.4079,819.7092,413.7252,819.6912,413.7065,818.7948,414.4065,817.9889,415.2007,817.2459,416.0603,816.2862,416.6943,815.63,417.6444,815.7631,417.7722,814.6946,416.683,814.0148,415.967,813.3823,415.2966,812.474,414.3612,811.7108,413.5652,811.7317,413.574,812.4648,415.3767,813.2933,417.2195,814.0758,419.043,814.9461,420.9034,815.53,422.6434" style="stroke:#8B0000;stroke-width:4.0;"/></g><!--link nyi to ny--><g id="link_nyi_ny"><path d="M630.95,237.5834 L631.23,237.5953 L629.9731,247.5738 L630.3575,257.6221 L630.2074,267.6476 L628.2997,277.5986 L628.7215,287.6484 L627.8319,297.6426 L627.4641,307.6589 L627.4592,317.6906 L626.204,327.6693 L627.4375,337.7536 L625.4354,347.7005 L625.5865,357.7389 L626.0004,367.7883 L624.8857,377.773 L624.6659,387.7956 L624.1074,397.8038 L623.9628,407.8296 L623.3,417.8334 " fill="none" style="stroke:#8B0000;stroke-width:4.0;"/><polygon fill="#8B0000" points="623.05,422.6434,623.1127,422.6745,623.8029,420.8179,624.8608,419.1441,625.799,417.4107,626.3433,415.4816,627.4328,413.8234,627.4153,413.8043,626.503,414.4836,625.6791,415.2591,624.9166,416.1014,623.9425,416.7133,623.2647,417.648,623.4007,417.7728,622.345,416.6723,621.6863,415.9362,621.0761,415.2445,620.184,414.2942,619.4402,413.4799,619.4613,413.4882,620.1522,415.3087,620.9395,417.1671,621.6802,419.0072,622.5097,420.8822,623.05,422.6434" style="stroke:#8B0000;stroke-width:4.0;"/></g><!--SRC=[VP91J-Cm48Nl_XL3Jt1mkND02Yb8Y5Agf7j3MeqIjx9mxE1CW0ZntnaxsyK9YFRGz7jlnZClFj6sCdsj_ZPe1rWkpsiabFm73wfHbcH7Wr5BUYD1ceowWDkcDK52qivsuFPG57VwHS5fvfzqH-xiqMuzjzNiwm1j3OLwxhMF_JhXLKLe3qR1ujYAnbuBU4_LRLPagzloEby0Tj2YHvtAcy4UqDiesc4Y_TcLiE8ze7MUq4HBFptwuJxB8dTDYjShp4TkQgnGV0WngMgLXTBrlbAmSyuyQUhWdCcUNj6hi02aTgl7CwoUyE-RJUJDeDFLH9WYaKj-gD7Nyxpk5M5uUpEyvjyUIOs9vAvfEEf7Mpp8t0UyzMwlZVg_TClb8foPz3YQeycxAXQ-ny7crfASvxiJe-1FcaP-imuuye-vklbTbhkhN8vn-IzJ-8Od47nvfQpTgvNo4c8l427OX7AXu3UHa60Jqz8nWNdfFpgj_X4Um-5ON9Fmu19y1-SeNhEVOFkzQPmgFInEoVEdZBSHdm00]--></g></svg>