<?xml version="1.0" encoding="us-ascii" standalone="no"?><svg xmlns="http://www.w3.org/2000/svg" xmlns:xlink="http://www.w3.org/1999/xlink" contentStyleType="text/css" height="1078px" preserveAspectRatio="none" style="width:1307px;height:1078px;background:#FFFFFF;" version="1.1" viewBox="0 0 1307 1078" width="1307px" zoomAndPan="magnify"><defs/><g><text fill="#000000" font-family="Chalkduster" font-size="42" font-weight="bold" lengthAdjust="spacing" textLength="877" x="208" y="51.7215">Implemenations of RRKive (Arkisto)</text><text fill="#000000" font-family="Chalkduster" font-size="42" font-weight="bold" lengthAdjust="spacing" textLength="691" x="301" y="105.3238">Principles and Requirements</text><!--cluster Implementations--><g id="cluster_Implementations"><polygon fill="none" points="9.5,137.4934,9.5,137.7036,19.5,137.0791,29.5,137.6867,39.5,137.8931,49.5,136.78,59.5,137.4157,69.5,137.0669,79.5,137.1099,89.5,137.4252,99.5,136.802,109.5,138.047,119.5,136.8631,129.5,137.2956,139.5,137.9253,149.5,137.4076,159.5,137.5616,169.5,137.4614,179.5,137.6719,189.5,137.7325,199.5,138.0791,209.5,138.1644,219.5,138.1726,229.5,137.748,239.5,137.957,249.5,138.1956,259.5,136.7722,269.5,138.1719,279.5,137.1969,289.5,138.0272,299.5,136.9983,309.5,137.4249,319.5,138.235,329.5,137.4446,339.5,137.5987,349.5,137.832,359.5,137.9096,369.5,137.4895,379.5,137.7806,389.5,136.921,399.5,137.7778,409.5,138.0416,419.5,137.9379,429.5,138.1064,439.5,137.0103,449.5,136.8412,459.5,136.872,469.5,137.4345,479.5,137.2968,489.5,138.1748,499.5,137.3187,509.5,137.1503,519.5,137.7216,529.5,136.8265,539.5,136.9742,549.5,138.1423,559.5,137.929,569.5,138.2279,579.5,137.1716,589.5,137.8126,599.5,138.0838,609.5,137.021,619.5,137.3975,629.5,137.6194,639.5,138.1451,649.5,137.4892,659.5,137.9559,669.5,136.9396,679.5,136.8161,689.5,137.997,699.5,136.7764,709.5,138.0023,719.5,137.7,729.5,137.2255,739.5,137.1396,749.5,137.9521,759.5,137.194,769.5,138.0852,779.5,136.9406,789.5,138.1108,799.5,137.9777,809.5,137.7383,819.5,137.5406,829.5,138.22,839.5,138.1069,849.5,137.6626,859.5,137.7616,869.5,137.3631,879.5,138.2098,889.5,137.6482,899.5,137.6659,909.5,136.885,919.5,137.4934,919.4483,137.3686,919.9213,137.8033,920.2619,137.9186,920.5552,137.9195,920.8731,137.9799,921.2678,138.2256,921.2003,138.1977,921.2029,138.4916,921.6884,138.9856,921.9349,139.3806,922.0157,139.707,922,139.9934,922.6949,139.9934,921.8633,150.0506,922.0872,160.1079,921.6124,170.1652,922.284,180.2225,922.2468,190.2797,922.5524,200.337,921.7703,210.3943,921.8656,220.4516,922.4435,230.5088,922.5673,240.5661,922,250.6234,921.8422,250.558,921.7938,250.9522,921.7531,251.3495,921.3725,251.6061,921.523,252.0827,921.2678,252.3911,921.3007,252.4706,920.9014,252.5066,920.5788,252.7278,920.3001,253.0549,919.8136,252.8806,919.5,253.1234,919.5,253.4384,909.5,253.409,899.5,253.2391,889.5,253.2643,879.5,253.2368,869.5,252.4992,859.5,252.7226,849.5,252.6618,839.5,253.1872,829.5,253.2115,819.5,253.2851,809.5,252.8324,799.5,253.0559,789.5,253.0032,779.5,253.7002,769.5,253.5499,759.5,252.6378,749.5,253.0504,739.5,252.5461,729.5,253.4118,719.5,253.7319,709.5,253.6679,699.5,252.6878,689.5,253.5873,679.5,252.3806,669.5,253.3235,659.5,252.8241,649.5,253.2201,639.5,253.3637,629.5,253.5955,619.5,252.4035,609.5,253.5988,599.5,253.3015,589.5,253.4787,579.5,253.8712,569.5,253.1289,559.5,253.2986,549.5,253.3368,539.5,253.3206,529.5,253.1226,519.5,253.8341,509.5,252.5136,499.5,253.6887,489.5,252.4994,479.5,252.5831,469.5,253.1634,459.5,253.1516,449.5,252.6305,439.5,253.5371,429.5,253.2322,419.5,253.85,409.5,253.7905,399.5,252.6751,389.5,252.7254,379.5,252.9942,369.5,253.4789,359.5,253.5264,349.5,253.4245,339.5,252.7814,329.5,253.7597,319.5,253.7572,309.5,253.0761,299.5,252.8843,289.5,252.722,279.5,252.9088,269.5,253.2608,259.5,253.055,249.5,252.7056,239.5,253.6108,229.5,252.6644,219.5,253.6258,209.5,253.5506,199.5,253.4952,189.5,253.8159,179.5,252.8775,169.5,252.8227,159.5,253.6423,149.5,252.5265,139.5,252.8894,129.5,253.2389,119.5,253.1921,109.5,252.7649,99.5,253.0804,89.5,253.868,79.5,253.7719,69.5,252.5271,59.5,253.2019,49.5,252.6095,39.5,253.0971,29.5,253.4164,19.5,253.5432,9.5,253.1234,9.4152,252.9187,9.1975,253.1003,8.794,252.8331,8.3685,252.513,8.0257,252.3925,7.7322,252.3911,7.8328,252.4328,7.6627,252.0695,7.4343,251.6819,7.0859,251.2447,7.3491,251.0609,7,250.6234,6.6882,250.6234,6.4719,240.5661,6.9327,230.5088,7.5897,220.4516,7.6154,210.3943,7.0351,200.337,6.8488,190.2797,7.1698,180.2225,7.1862,170.1652,6.4922,160.1079,7.414,150.0506,7,139.9934,7.1721,140.0647,7.08,139.6123,7.1607,139.2315,7.6471,139.0188,7.5923,138.5818,7.7322,138.2256,7.7322,138.2256,8.1239,138.1712,8.357,137.7339,8.8605,137.9495,9.1445,137.6351,9.5,137.4934" style="stroke:#181818;stroke-width:4.0;"/><text fill="#000000" font-family="Chalkduster" font-size="24" font-weight="bold" lengthAdjust="spacing" textLength="231" x="349" y="163.3343">Implementations</text></g><!--cluster Toolkits / Software--><g id="cluster_Toolkits / Software"><polygon fill="none" points="437.5,375.1234,437.5,375.3336,447.4375,374.7091,457.375,375.3167,467.3125,375.5231,477.25,374.41,487.1875,375.0457,497.125,374.6969,507.0625,374.7399,517,375.0552,526.9375,374.432,536.875,375.677,546.8125,374.4931,556.75,374.9256,566.6875,375.5553,576.625,375.0376,586.5625,375.1916,596.5,375.0914,606.4375,375.3019,616.375,375.3625,626.3125,375.7091,636.25,375.7944,646.1875,375.8026,656.125,375.378,666.0625,375.587,676,375.8256,685.9375,374.4022,695.875,375.8019,705.8125,374.8269,715.75,375.6572,725.6875,374.6283,735.625,375.0549,745.5625,375.865,755.5,375.0746,765.4375,375.2287,775.375,375.462,785.3125,375.5396,795.25,375.1195,805.1875,375.4106,815.125,374.551,825.0625,375.4078,835,375.6716,844.9375,375.5679,854.875,375.7364,864.8125,374.6403,874.75,374.4712,884.6875,374.502,894.625,375.0645,904.5625,374.9268,914.5,375.1234,914.5869,375.3332,914.8313,375.216,915.1633,375.3106,915.5898,375.633,915.8292,375.5038,916.2678,375.8556,916.1079,375.7894,916.6141,376.2919,916.6948,376.6183,916.9333,377.01,916.7545,377.2288,917,377.6234,917.3192,377.6234,917.5904,387.6806,916.5276,397.7379,916.9041,407.7952,917.126,417.8525,917.6518,427.9097,916.9958,437.967,917.4626,448.0243,916.4462,458.0816,916.3227,468.1388,917.5036,478.1961,917,488.2534,916.7792,488.1619,917.0103,488.6718,916.7707,488.9868,916.4782,489.2799,916.3053,489.6225,916.2678,490.0211,916.3263,490.1624,915.876,490.0754,915.6362,490.4963,915.1366,490.2903,914.9323,490.7971,914.5,490.7534,914.5,491.2377,904.5625,490.9983,894.625,490.8006,884.6875,491.48,874.75,491.3669,864.8125,490.9226,854.875,491.0216,844.9375,490.6231,835,491.4698,825.0625,490.9082,815.125,490.9259,805.1875,490.145,795.25,490.3481,785.3125,491.2841,775.375,491.1831,765.4375,490.7104,755.5,490.4312,745.5625,490.5344,735.625,490.0672,725.6875,491.1681,715.75,491.4929,705.8125,491.2798,695.875,491.4483,685.9375,490.6166,676,490.8406,666.0625,490.3658,656.125,491.0374,646.1875,491.0001,636.25,491.3058,626.3125,490.5237,616.375,490.619,606.4375,491.1968,596.5,491.3207,586.5625,490.2408,576.625,490.5595,566.6875,490.9026,556.75,490.1425,546.8125,491.1068,536.875,491.0114,526.9375,490.6526,517,490.8956,507.0625,491.482,497.125,490.4405,487.1875,491.0684,477.25,491.039,467.3125,490.8691,457.375,490.8943,447.4375,490.8668,437.5,490.7534,437.4204,490.5612,437.0953,490.4835,436.734,490.3183,436.4475,490.3337,436.097,490.1947,435.7322,490.0211,435.782,490.0418,435.4962,489.6305,435.4185,489.3054,435.2559,488.9451,435.3241,488.6805,435,488.2534,435.4266,488.2534,434.5145,478.1961,434.9271,468.1388,434.4228,458.0816,435.2884,448.0243,435.6085,437.967,435.5446,427.9097,434.5644,417.8525,435.464,407.7952,434.2572,397.7379,435.2002,387.6806,435,377.6234,434.9078,377.5852,435.1762,377.2822,435.3669,376.9469,435.5847,376.6229,435.3641,376.1173,435.7322,375.8556,435.7929,376.002,436.1085,375.764,436.4847,375.6721,436.8883,375.6466,437.1471,375.2715,437.5,375.1234" style="stroke:#181818;stroke-width:4.0;"/><text fill="#000000" font-family="Chalkduster" font-size="24" font-weight="bold" lengthAdjust="spacing" textLength="272" x="540" y="400.9643">Toolkits / Software</text></g><!--cluster Standards--><g id="cluster_Standards"><polygon fill="none" points="388.5,612.7534,388.5,612.9636,398.5,612.3391,408.5,612.9467,418.5,613.1531,428.5,612.04,438.5,612.6757,448.5,612.3269,458.5,612.3699,468.5,612.6852,478.5,612.062,488.5,613.307,498.5,612.1231,508.5,612.5556,518.5,613.1853,528.5,612.6676,538.5,612.8216,548.5,612.7214,558.5,612.9319,568.5,612.9925,578.5,613.3391,588.5,613.4244,598.5,613.4326,608.5,613.008,618.5,613.217,628.5,613.4556,638.5,612.0322,648.5,613.4319,658.5,612.4569,668.5,613.2872,678.5,612.2583,688.5,612.6849,698.5,613.495,708.5,612.7046,718.5,612.8587,728.5,613.092,738.5,613.1696,748.5,612.7495,758.5,613.0406,768.5,612.181,778.5,613.0378,788.5,613.3016,798.5,613.1979,808.5,613.3664,818.5,612.2703,828.5,612.1012,838.5,612.132,848.5,612.6945,858.5,612.5568,868.5,613.4348,878.5,612.5787,888.5,612.4103,898.5,612.9816,908.5,612.0865,918.5,612.2342,928.5,613.4023,938.5,613.189,948.5,613.4879,958.5,612.4316,968.5,613.0726,978.5,613.3438,988.5,612.281,998.5,612.6575,1008.5,612.8794,1018.5,613.4051,1028.5,612.7492,1038.5,613.2159,1048.5,612.1996,1058.5,612.0761,1068.5,613.257,1078.5,612.0364,1088.5,613.2623,1098.5,612.96,1108.5,612.4855,1118.5,612.3996,1128.5,613.2121,1138.5,612.454,1148.5,613.3452,1158.5,612.2006,1168.5,613.3708,1178.5,613.2377,1188.5,612.9983,1198.5,612.8006,1208.5,613.48,1218.5,613.3669,1228.5,612.9226,1238.5,613.0216,1248.5,612.6231,1258.5,613.4698,1268.5,612.9082,1278.5,612.9259,1288.5,612.145,1298.5,612.7534,1298.4483,612.6286,1298.9213,613.0633,1299.2619,613.1786,1299.5552,613.1795,1299.8731,613.2399,1300.2678,613.4856,1300.2003,613.4577,1300.2029,613.7516,1300.6884,614.2456,1300.9349,614.6406,1301.0157,614.967,1301,615.2534,1301.6949,615.2534,1300.8633,625.362,1301.0872,635.4707,1300.6124,645.5794,1301.284,655.688,1301.2468,665.7967,1301.5524,675.9054,1300.7703,686.014,1300.8656,696.1227,1301.4435,706.2314,1301.5673,716.34,1300.4875,726.4487,1300.8061,736.5574,1301.1493,746.666,1300.3892,756.7747,1301.3534,766.8834,1301.258,776.992,1300.8992,787.1007,1301.1422,797.2094,1301.7287,807.318,1300.6871,817.4267,1301.315,827.5354,1301.2856,837.644,1301.1158,847.7527,1301.1409,857.8614,1301.1135,867.97,1300.3758,878.0787,1300.5992,888.1874,1300.5385,898.296,1301.0638,908.4047,1301.0881,918.5134,1301.1617,928.622,1300.709,938.7307,1300.9325,948.8394,1300.8798,958.948,1301.5769,969.0567,1301.4266,979.1654,1300.5145,989.274,1300.9271,999.3827,1300.4228,1009.4914,1301.2884,1019.6,1301.6085,1029.7087,1301.5446,1039.8174,1300.5644,1049.926,1301.464,1060.0347,1301,1070.1434,1300.7712,1070.0486,1300.9152,1070.5225,1300.6149,1070.8123,1300.5904,1071.2164,1300.4882,1071.5882,1300.2678,1071.9111,1300.328,1072.0565,1299.8224,1071.8359,1299.6213,1072.3505,1299.2298,1072.4053,1298.8989,1072.6064,1298.5,1072.6434,1298.5,1073.3912,1288.5,1072.6489,1278.5,1072.8186,1268.5,1072.8568,1258.5,1072.8406,1248.5,1072.6426,1238.5,1073.3541,1228.5,1072.0336,1218.5,1073.2087,1208.5,1072.0194,1198.5,1072.1031,1188.5,1072.6834,1178.5,1072.6716,1168.5,1072.1505,1158.5,1073.0571,1148.5,1072.7522,1138.5,1073.37,1128.5,1073.3105,1118.5,1072.1951,1108.5,1072.2454,1098.5,1072.5142,1088.5,1072.9989,1078.5,1073.0464,1068.5,1072.9445,1058.5,1072.3014,1048.5,1073.2797,1038.5,1073.2772,1028.5,1072.5961,1018.5,1072.4043,1008.5,1072.242,998.5,1072.4288,988.5,1072.7808,978.5,1072.575,968.5,1072.2256,958.5,1073.1308,948.5,1072.1844,938.5,1073.1458,928.5,1073.0706,918.5,1073.0152,908.5,1073.3359,898.5,1072.3975,888.5,1072.3427,878.5,1073.1623,868.5,1072.0465,858.5,1072.4094,848.5,1072.7589,838.5,1072.7121,828.5,1072.2849,818.5,1072.6004,808.5,1073.388,798.5,1073.2919,788.5,1072.0471,778.5,1072.7219,768.5,1072.1295,758.5,1072.6171,748.5,1072.9364,738.5,1073.0632,728.5,1071.9786,718.5,1073.0439,708.5,1072.6518,698.5,1072.088,688.5,1072.1723,678.5,1072.97,668.5,1072.8932,658.5,1072.6269,648.5,1071.9713,638.5,1073.3015,628.5,1072.3315,618.5,1072.1153,608.5,1072.5761,598.5,1073.2331,588.5,1073.2588,578.5,1072.6785,568.5,1072.4922,558.5,1072.8132,548.5,1072.8296,538.5,1072.1356,528.5,1073.0573,518.5,1073.2022,508.5,1072.4276,498.5,1072.2142,488.5,1073.318,478.5,1072.6644,468.5,1072.6432,458.5,1072.9424,448.5,1071.9977,438.5,1073.1733,428.5,1072.6279,418.5,1073.3122,408.5,1072.4275,398.5,1073.0524,388.5,1072.6434,388.4434,1072.5066,388.1777,1072.5724,387.8413,1072.4673,387.3976,1072.1032,387.1321,1072.1694,386.7322,1071.9111,386.5563,1071.8382,386.4409,1071.4976,386.6496,1071.2911,386.5037,1070.9378,386.3215,1070.5694,386,1070.1434,385.6396,1070.1434,386.3842,1060.0347,385.5279,1049.926,386.0582,1039.8174,385.9987,1029.7087,385.7376,1019.6,386.6159,1009.4914,386.4433,999.3827,385.6792,989.274,386.5266,979.1654,386.0919,969.0567,385.4164,958.948,385.7667,948.8394,385.4747,938.7307,385.8609,928.622,385.371,918.5134,385.3998,908.4047,386.0703,898.296,385.8796,888.1874,385.9414,878.0787,385.8568,867.97,386.1673,857.8614,385.4449,847.7527,386.1601,837.644,385.2569,827.5354,386.296,817.4267,386.5928,807.318,386.5221,797.2094,386.3613,787.1007,386.1922,776.992,386.1057,766.8834,385.36,756.7747,386.4465,746.666,386.3296,736.5574,385.8466,726.4487,385.9942,716.34,385.7914,706.2314,386.2177,696.1227,386.6805,686.014,385.6461,675.9054,386.4689,665.7967,385.9108,655.688,385.6207,645.5794,385.5681,635.4707,385.3553,625.362,386,615.2534,385.8642,615.1971,386.1576,614.9044,386.377,614.5811,386.6168,614.2662,386.7152,613.8927,386.7322,613.4856,386.6415,613.2665,387.1648,613.5298,387.5014,613.3424,387.8619,613.2128,388.213,613.0605,388.5,612.7534" style="stroke:#181818;stroke-width:4.0;"/><text fill="#000000" font-family="Chalkduster" font-size="24" font-weight="bold" lengthAdjust="spacing" textLength="138" x="774.5" y="638.5943">Standards</text></g><!--cluster Metadata--><g id="cluster_Metadata"><polygon fill="none" points="885.5,669.7534,885.5,669.9636,895.4744,669.3391,905.4487,669.9467,915.4231,670.1531,925.3974,669.04,935.3718,669.6757,945.3462,669.3269,955.3205,669.3699,965.2949,669.6852,975.2692,669.062,985.2436,670.307,995.2179,669.1231,1005.1923,669.5556,1015.1667,670.1853,1025.141,669.6676,1035.1154,669.8216,1045.0897,669.7214,1055.0641,669.9319,1065.0385,669.9925,1075.0128,670.3391,1084.9872,670.4244,1094.9615,670.4326,1104.9359,670.008,1114.9103,670.217,1124.8846,670.4556,1134.859,669.0322,1144.8333,670.4319,1154.8077,669.4569,1164.7821,670.2872,1174.7564,669.2583,1184.7308,669.6849,1194.7051,670.495,1204.6795,669.7046,1214.6538,669.8587,1224.6282,670.092,1234.6026,670.1696,1244.5769,669.7495,1254.5513,670.0406,1264.5256,669.181,1274.5,669.7534,1274.5363,669.841,1274.9235,670.0686,1275.2638,670.1832,1275.6389,670.3815,1275.8526,670.1904,1276.2678,670.4856,1276.0669,670.4024,1276.2228,670.7599,1276.5425,671.1852,1276.6466,671.5212,1277.0634,671.9867,1277,672.2534,1276.8253,672.2534,1276.6569,682.3585,1277.2283,692.4636,1276.3332,702.5688,1276.4809,712.6739,1277.649,722.779,1277.4357,732.8842,1277.7345,742.9893,1276.6782,753.0945,1277.3192,763.1996,1277.5904,773.3047,1276.5276,783.4099,1276.9041,793.515,1277.126,803.6201,1277.6518,813.7253,1276.9958,823.8304,1277.4626,833.9355,1276.4462,844.0407,1276.3227,854.1458,1277.5036,864.2509,1276.2831,874.3561,1277.509,884.4612,1277.2066,894.5663,1276.7321,904.6715,1276.6462,914.7766,1277.4588,924.8818,1276.7007,934.9869,1277.5919,945.092,1276.4473,955.1972,1277.6174,965.3023,1277.4843,975.4074,1277.245,985.5126,1277.0472,995.6177,1277.7266,1005.7228,1277.6136,1015.828,1277.1693,1025.9331,1277.2682,1036.0382,1277,1046.1434,1276.9599,1046.1268,1277.0742,1046.5883,1276.7548,1046.8702,1276.6138,1047.226,1276.2269,1047.48,1276.2678,1047.9111,1276.2161,1047.7863,1275.9819,1048.221,1275.6155,1048.3364,1275.2016,1048.3373,1274.8125,1048.3977,1274.5,1048.6434,1274.5,1048.4244,1264.5256,1047.9572,1254.5513,1049.0581,1244.5769,1049.3829,1234.6026,1049.1698,1224.6282,1049.3383,1214.6538,1048.5066,1204.6795,1048.7306,1194.7051,1048.2558,1184.7308,1048.9274,1174.7564,1048.8901,1164.7821,1049.1958,1154.8077,1048.4137,1144.8333,1048.509,1134.859,1049.0868,1124.8846,1049.2107,1114.9103,1048.1308,1104.9359,1048.4495,1094.9615,1048.7926,1084.9872,1048.0325,1075.0128,1048.9968,1065.0385,1048.9014,1055.0641,1048.5426,1045.0897,1048.7856,1035.1154,1049.372,1025.141,1048.3305,1015.1667,1048.9584,1005.1923,1048.929,995.2179,1048.7591,985.2436,1048.7843,975.2692,1048.7568,965.2949,1048.0192,955.3205,1048.2426,945.3462,1048.1818,935.3718,1048.7072,925.3974,1048.7315,915.4231,1048.8051,905.4487,1048.3524,895.4744,1048.5759,885.5,1048.6434,885.4847,1048.6064,885.22,1048.6746,884.8473,1048.4818,884.3774,1048.0545,884.0765,1048.0351,883.7322,1047.9111,883.5545,1047.8375,883.6746,1047.5944,883.6267,1047.2817,883.4606,1046.9199,883.0123,1046.4414,883,1046.1434,883.464,1046.1434,882.2572,1036.0382,883.2002,1025.9331,882.7007,1015.828,883.0967,1005.7228,883.2403,995.6177,883.4721,985.5126,882.2801,975.4074,883.4755,965.3023,883.1782,955.1972,883.3553,945.092,883.7478,934.9869,883.0055,924.8818,883.1753,914.7766,883.2134,904.6715,883.1972,894.5663,882.9992,884.4612,883.7107,874.3561,882.3903,864.2509,883.5653,854.1458,882.376,844.0407,882.4597,833.9355,883.04,823.8304,883.0283,813.7253,882.5072,803.6201,883.4137,793.515,883.1089,783.4099,883.7267,773.3047,883.6671,763.1996,882.5517,753.0945,882.6021,742.9893,882.8708,732.8842,883.3555,722.779,883.403,712.6739,883.3012,702.5688,882.658,692.4636,883.6364,682.3585,883,672.2534,883.1952,672.3342,883.1319,671.8938,883.2193,671.5158,883.3157,671.1415,883.5197,670.8118,883.7322,670.4856,883.7498,670.5279,884.0771,670.3181,884.386,670.064,884.8551,670.1964,885.0879,669.7585,885.5,669.7534" style="stroke:#181818;stroke-width:4.0;"/><text fill="#000000" font-family="Chalkduster" font-size="24" font-weight="bold" lengthAdjust="spacing" textLength="127" x="1016.5" y="695.5943">Metadata</text></g><!--cluster Storage--><g id="cluster_Storage"><polygon fill="none" points="412.5,685.0734,412.5,685.2836,422.5909,684.6591,432.6818,685.2667,442.7727,685.4731,452.8636,684.36,462.9545,684.9957,473.0455,684.6469,483.1364,684.6899,493.2273,685.0052,503.3182,684.382,513.4091,685.627,523.5,684.4431,533.5909,684.8756,543.6818,685.5053,553.7727,684.9876,563.8636,685.1416,573.9545,685.0414,584.0455,685.2519,594.1364,685.3125,604.2273,685.6591,614.3182,685.7444,624.4091,685.7526,634.5,685.328,644.5909,685.537,654.6818,685.7756,664.7727,684.3522,674.8636,685.7519,684.9545,684.7769,695.0455,685.6072,705.1364,684.5783,715.2273,685.0049,725.3182,685.815,735.4091,685.0246,745.5,685.1787,755.5909,685.412,765.6818,685.4896,775.7727,685.0695,785.8636,685.3606,795.9545,684.501,806.0455,685.3578,816.1364,685.6216,826.2273,685.5179,836.3182,685.6864,846.4091,684.5903,856.5,685.0734,856.4168,684.8725,856.7743,685.0285,857.1996,685.3481,857.5356,685.4522,858.0011,685.869,858.2678,685.8056,858.214,685.7833,858.3086,686.1154,858.631,686.5418,858.5017,686.7812,858.6937,687.1536,859,687.5734,859.649,687.5734,859.4357,697.6306,859.7345,707.6879,858.6782,717.7452,859.3192,727.8025,859.5904,737.8597,858.5276,747.917,858.9041,757.9743,859.126,768.0316,859.6518,778.0888,858.9958,788.1461,859,798.2034,859.1425,798.2624,858.683,798.4863,858.4985,798.8241,858.7158,799.3283,858.1934,799.5261,858.2678,799.9711,858.3327,800.1279,857.9406,800.1812,857.5265,800.1815,857.162,800.3015,856.9121,800.6982,856.5,800.7034,856.5,800.404,846.4091,801.2952,836.3182,800.1506,826.2273,801.3208,816.1364,801.1877,806.0455,800.9483,795.9545,800.7506,785.8636,801.43,775.7727,801.3169,765.6818,800.8726,755.5909,800.9716,745.5,800.5731,735.4091,801.4198,725.3182,800.8582,715.2273,800.8759,705.1364,800.095,695.0455,800.2981,684.9545,801.2341,674.8636,801.1331,664.7727,800.6604,654.6818,800.3812,644.5909,800.4844,634.5,800.0172,624.4091,801.1181,614.3182,801.4429,604.2273,801.2298,594.1364,801.3983,584.0455,800.5666,573.9545,800.7906,563.8636,800.3158,553.7727,800.9874,543.6818,800.9501,533.5909,801.2558,523.5,800.4737,513.4091,800.569,503.3182,801.1468,493.2273,801.2707,483.1364,800.1908,473.0455,800.5095,462.9545,800.8526,452.8636,800.0925,442.7727,801.0568,432.6818,800.9614,422.5909,800.6026,412.5,800.7034,412.5181,800.7472,412.2394,800.7813,411.753,800.3141,411.4795,800.361,411.1222,800.2056,410.7322,799.9711,410.7679,799.9859,410.6292,799.6356,410.4743,799.2785,410.1007,798.8309,410.023,798.5058,410,798.2034,409.5385,798.2034,410.0638,788.1461,410.0881,778.0888,410.1617,768.0316,409.709,757.9743,409.9325,747.917,409.8798,737.8597,410.5769,727.8025,410.4266,717.7452,409.5145,707.6879,409.9271,697.6306,410,687.5734,409.8222,687.4997,410.2353,687.2566,410.4803,686.9439,410.607,686.5822,410.4517,686.1036,410.7322,685.8056,410.7914,685.9485,410.991,685.4304,411.4649,685.5744,411.7547,685.2741,412.1588,685.2496,412.5,685.0734" style="stroke:#181818;stroke-width:4.0;"/><text fill="#000000" font-family="Chalkduster" font-size="24" font-weight="bold" lengthAdjust="spacing" textLength="101" x="584" y="710.9143">Storage</text></g><!--entity parai--><g id="elem_parai"><polygon fill="none" points="736.5,186.4934,736.5,186.7036,746.3235,186.0791,756.1471,186.6867,765.9706,186.8931,775.7941,185.78,785.6176,186.4157,795.4412,186.0669,805.2647,186.1099,815.0882,186.4252,824.9118,185.802,834.7353,187.047,844.5588,185.8631,854.3824,186.2956,864.2059,186.9253,874.0294,186.4076,883.8529,186.5616,893.6765,186.4614,903.5,186.4934,903.5228,186.5484,903.8841,186.7135,904.2818,186.9666,904.6463,187.1394,905.0009,187.2883,905.2678,187.2256,905.3462,187.2581,905.557,187.6383,905.7769,188.0223,905.485,188.1943,906.0625,188.7264,906,188.9934,905.7035,188.9934,906.5338,198.1193,905.505,207.2453,905.9315,216.3713,906.7416,225.4972,906,234.6232,905.985,234.617,905.886,234.9902,905.8114,235.3735,905.6888,235.737,905.413,236.0369,905.2678,236.391,905.3044,236.4794,904.8412,236.3611,904.5969,236.7714,904.277,236.9991,903.9103,237.1137,903.5,237.1232,903.5,237.7362,893.6765,236.6401,883.8529,236.471,874.0294,236.5018,864.2059,237.0643,854.3824,236.9267,844.5588,237.8046,834.7353,236.9485,824.9118,236.7802,815.0882,237.3515,805.2647,236.4564,795.4412,236.6041,785.6176,237.7722,775.7941,237.5589,765.9706,237.8577,756.1471,236.8014,746.3235,237.4424,736.5,237.1232,736.5753,237.305,736.0862,236.8313,735.7807,236.8008,735.4554,236.7227,735.1689,236.7381,734.7322,236.391,734.7309,236.3904,734.7282,236.0964,734.2688,235.6132,734.0843,235.2439,734.3015,235.041,734,234.6232,733.2831,234.6232,734.509,225.4972,734.2066,216.3713,733.7321,207.2453,733.6462,198.1193,734,188.9934,734.1413,189.0519,734.0543,188.6016,734.4752,188.3618,734.2691,187.8622,734.7759,187.6579,734.7322,187.2256,734.794,187.3748,735.117,187.1546,735.4454,186.9473,735.8856,187.01,736.2247,186.8288,736.5,186.4934" style="stroke:#181818;stroke-width:4.0;"/><text fill="#000000" font-family="Chalkduster" font-size="24" lengthAdjust="spacing" textLength="152" x="744" y="220.3343">PARADISEC</text></g><!--entity nyi--><g id="elem_nyi"><polygon fill="none" points="567.5,186.4934,567.5,186.7036,577.4231,186.0791,587.3462,186.6867,597.2692,186.8931,607.1923,185.78,617.1154,186.4157,627.0385,186.0669,636.9615,186.1099,646.8846,186.4252,656.8077,185.802,666.7308,187.047,676.6538,185.8631,686.5769,186.2956,696.5,186.4934,696.5551,186.6264,696.8426,186.6134,697.2158,186.8073,697.5566,186.9229,697.937,187.1341,698.2678,187.2256,698.3414,187.2561,698.5946,187.6539,698.7673,188.0183,698.9163,188.3729,698.932,188.6723,699,188.9934,699.4636,188.9934,699.7022,198.1193,698.2788,207.2453,699.6785,216.3713,698.7035,225.4972,699,234.6232,699.1644,234.6913,698.7011,234.9136,698.686,235.3216,698.789,235.7785,698.3992,236.0312,698.2678,236.391,698.2812,236.4234,697.9574,236.6417,697.6138,236.812,697.2066,236.8291,696.8902,237.0652,696.5,237.1232,696.5,236.5508,686.5769,237.4076,676.6538,237.6714,666.7308,237.5677,656.8077,237.7362,646.8846,236.6401,636.9615,236.471,627.0385,236.5018,617.1154,237.0643,607.1923,236.9267,597.2692,237.8046,587.3462,236.9485,577.4231,236.7802,567.5,237.1232,567.5291,237.1935,567.0614,236.7714,566.7267,236.6704,566.5221,236.8837,566.1414,236.6716,565.7322,236.391,565.9584,236.4847,565.4867,235.9964,565.5376,235.7246,565.4747,235.4056,565.001,234.9165,565,234.6232,564.9041,234.6232,565.126,225.4972,565.6518,216.3713,564.9958,207.2453,565.4626,198.1193,565,188.9934,564.8295,188.9227,564.9379,188.5534,565.448,188.3505,565.2186,187.8413,565.7425,187.6441,565.7322,187.2256,565.7586,187.2892,566.0516,186.9967,566.3942,186.8238,566.8514,186.9275,567.1083,186.5476,567.5,186.4934" style="stroke:#181818;stroke-width:4.0;"/><text fill="#000000" font-family="Chalkduster" font-size="24" lengthAdjust="spacing" textLength="114" x="575" y="220.3343">Nyngarn</text></g><!--entity uts--><g id="elem_uts"><polygon fill="none" points="167,186.4934,167,186.7036,177.087,186.0791,187.1739,186.6867,197.2609,186.8931,207.3478,185.78,217.4348,186.4157,227.5217,186.0669,237.6087,186.1099,247.6957,186.4252,257.7826,185.802,267.8696,187.047,277.9565,185.8631,288.0435,186.2956,298.1304,186.9253,308.2174,186.4076,318.3043,186.5616,328.3913,186.4614,338.4783,186.6719,348.5652,186.7325,358.6522,187.0791,368.7391,187.1644,378.8261,187.1726,388.913,186.748,399,186.4934,399.0591,186.6361,399.4431,186.8561,399.6151,186.5642,400.1472,187.1417,400.3764,186.9878,400.7678,187.2256,400.9322,187.2937,400.7618,187.516,401.0396,187.924,401.4355,188.3809,401.3385,188.6336,401.5,188.9934,401.6053,188.9934,401.8386,198.1193,401.9162,207.2453,401.4961,216.3713,401.7872,225.4972,401.5,234.6232,401.3237,234.5502,401.4411,235.013,401.3759,235.4002,401.1976,235.7406,401.103,236.1156,400.7678,236.391,400.7061,236.2422,400.331,236.3366,399.9814,236.4925,399.6996,236.8122,399.3285,236.9162,399,237.1232,399,237.8046,388.913,236.9485,378.8261,236.7802,368.7391,237.3515,358.6522,236.4564,348.5652,236.6041,338.4783,237.7722,328.3913,237.5589,318.3043,237.8577,308.2174,236.8014,298.1304,237.4424,288.0435,237.7136,277.9565,236.6508,267.8696,237.0273,257.7826,237.2492,247.6957,237.775,237.6087,237.119,227.5217,237.5858,217.4348,236.5694,207.3478,236.4459,197.2609,237.6268,187.1739,236.4063,177.087,237.6322,167,237.1232,167.0264,237.1868,166.6123,236.8943,166.2478,236.7214,165.9979,236.8251,165.5476,236.4452,165.2322,236.391,165.4145,236.4665,164.9156,235.9669,165.1295,235.7626,164.942,235.3921,164.7219,235.008,164.5,234.6232,164.5472,234.6232,165.2266,225.4972,165.1136,216.3713,164.6693,207.2453,164.7682,198.1193,164.5,188.9934,164.4599,188.9768,164.8671,188.7312,164.8406,188.306,164.9925,187.9547,164.8984,187.5016,165.2322,187.2256,165.1805,187.1008,165.6535,187.2426,165.9942,187.0651,166.2874,186.773,166.6054,186.5406,167,186.4934" style="stroke:#181818;stroke-width:4.0;"/><text fill="#000000" font-family="Chalkduster" font-size="24" lengthAdjust="spacing" textLength="217" x="174.5" y="220.3343">UTS Data portal</text></g><!--entity om--><g id="elem_om"><polygon fill="none" points="439,186.4934,439,186.7036,448.7778,186.0791,458.5556,186.6867,468.3333,186.8931,478.1111,185.78,487.8889,186.4157,497.6667,186.0669,507.4444,186.1099,517.2222,186.4252,527,186.4934,526.9118,186.2805,527.4242,186.8103,527.6267,186.5922,528.0354,186.8718,528.4693,187.2122,528.7678,187.2256,528.7414,187.2147,528.9352,187.5879,529.0508,187.9286,529.2621,188.309,529.4272,188.6703,529.5,188.9934,530.0857,188.9934,530.1711,198.1193,530.1793,207.2453,529.7546,216.3713,529.9636,225.4972,529.5,234.6232,529.7163,234.7128,529.1315,234.8848,529.4161,235.4169,528.9693,235.646,529.0786,236.1055,528.7678,236.391,528.7046,236.2385,528.4055,236.5163,528.1553,236.9123,527.7009,236.8153,527.367,237.0092,527,237.1232,527,237.4618,517.2222,237.5394,507.4444,237.1193,497.6667,237.4104,487.8889,236.5508,478.1111,237.4076,468.3333,237.6714,458.5556,237.5677,448.7778,237.7362,439,237.1232,438.9384,236.9744,438.5633,236.7759,438.2136,236.6389,437.9318,236.6657,437.5607,236.4769,437.2322,236.391,437.4421,236.4779,437.032,236.0151,436.8337,235.6401,436.8632,235.3594,436.4411,234.8917,436.5,234.6232,435.9809,234.6232,437.149,225.4972,436.9357,216.3713,437.2345,207.2453,436.1782,198.1193,436.5,188.9934,436.5983,189.0341,436.8283,188.7151,436.6474,188.226,436.9098,187.9205,437.1246,187.5952,437.2322,187.2256,437.3154,187.4263,437.5853,187.0779,437.9983,187.0752,438.2223,186.6157,438.5601,186.4313,439,186.4934" style="stroke:#181818;stroke-width:4.0;"/><text fill="#000000" font-family="Chalkduster" font-size="24" lengthAdjust="spacing" textLength="73" x="446.5" y="220.3343">OMAA</text></g><!--entity ldaca--><g id="elem_ldaca"><polygon fill="none" points="25.5,186.4934,25.5,186.7036,35.6,186.0791,45.7,186.6867,55.8,186.8931,65.9,185.78,76,186.4157,86.1,186.0669,96.2,186.1099,106.3,186.4252,116.4,185.802,126.5,186.4934,126.5706,186.6639,126.7732,186.4457,127.1819,186.7254,127.6158,187.0657,127.9033,187.0527,128.2678,187.2256,128.2888,187.2343,128.4044,187.5751,128.6156,187.9555,128.7808,188.3168,129.0339,188.7145,129,188.9934,129.6711,188.9934,129.6793,198.1193,129.2546,207.2453,129.4636,216.3713,129.7022,225.4972,129,234.6232,128.7779,234.5312,129.0625,235.0633,128.6158,235.2925,128.7251,235.752,128.2618,235.9743,128.2678,236.391,128.259,236.3699,128.0088,236.7658,127.5544,236.6689,127.2205,236.8627,126.8967,237.081,126.5,237.1232,126.5,237.5394,116.4,237.1193,106.3,237.4104,96.2,236.5508,86.1,237.4076,76,237.6714,65.9,237.5677,55.8,237.7362,45.7,236.6401,35.6,236.471,25.5,237.1232,25.4207,236.9318,25.1389,236.9586,24.7678,236.7698,24.5263,236.8937,24.0635,236.4836,23.7322,236.391,23.6266,236.3472,23.6561,236.0665,23.234,235.5988,23.133,235.2641,23.3463,235.0595,23,234.6232,23.4357,234.6232,23.7345,225.4972,22.6782,216.3713,23.3192,207.2453,23.5904,198.1193,23,188.9934,22.8545,188.9331,23.1169,188.6276,23.3317,188.3023,23.6401,188.0159,23.5845,187.5786,23.7322,187.2256,23.7912,187.3681,24.0151,186.9086,24.3529,186.7241,24.8571,186.9414,25.055,186.419,25.5,186.4934" style="stroke:#181818;stroke-width:4.0;"/><text fill="#000000" font-family="Chalkduster" font-size="24" lengthAdjust="spacing" textLength="86" x="33" y="220.3343">LDaCA</text></g><!--entity oni--><g id="elem_oni"><polygon fill="none" points="453.5,424.1234,453.5,424.3336,463.3333,423.7091,473.1667,424.3167,483,424.5231,492.8333,423.41,502.6667,424.0457,512.5,424.1234,512.4456,423.992,512.8046,424.1517,513.1984,424.3953,513.4725,424.3498,513.9848,424.8797,514.2678,424.8556,514.0737,424.7752,514.3533,425.1839,514.6937,425.6178,514.6807,425.9053,514.8746,426.2785,515,426.6234,514.9681,426.6234,515.1785,435.7493,515.2391,444.8753,515.5857,454.0013,515.6711,463.1272,515,472.2532,515.2092,472.3399,514.932,472.6392,514.8499,473.0194,514.7769,473.4034,514.1921,473.5754,514.2678,474.021,514.3543,474.2299,513.8764,474.0761,513.6288,474.4783,513.144,474.3079,512.8448,474.5857,512.5,474.7532,512.5,475.4948,502.6667,474.7045,492.8333,474.8585,483,475.0918,473.1667,475.1694,463.3333,474.7493,453.5,474.7532,453.5366,474.8417,453.0734,474.4305,452.8292,474.5479,452.5093,474.4827,452.1425,474.3043,451.7322,474.021,451.921,474.0992,451.437,473.6058,451.2385,473.2307,451.1015,472.881,451.1283,472.5992,451,472.2532,450.8035,472.2532,451.6814,463.1272,450.8253,454.0013,450.6569,444.8753,451.2283,435.7493,451,426.6234,450.7946,426.5383,450.9866,426.2036,451.4927,425.999,451.5735,425.6183,451.812,425.3029,451.7322,424.8556,451.6912,424.7565,452.1265,424.8075,452.5147,424.7445,452.7326,424.2708,453.1342,424.2403,453.5,424.1234" style="stroke:#181818;stroke-width:4.0;"/><text fill="#000000" font-family="Chalkduster" font-size="24" lengthAdjust="spacing" textLength="44" x="461" y="457.9643">Oni</text></g><!--entity para--><g id="elem_para"><polygon fill="none" points="731.5,424.1234,731.5,424.3336,741.3235,423.7091,751.1471,424.3167,760.9706,424.5231,770.7941,423.41,780.6176,424.0457,790.4412,423.6969,800.2647,423.7399,810.0882,424.0552,819.9118,423.432,829.7353,424.677,839.5588,423.4931,849.3824,423.9256,859.2059,424.5553,869.0294,424.0376,878.8529,424.1916,888.6765,424.0914,898.5,424.1234,898.5228,424.1784,898.8841,424.3435,899.2818,424.5966,899.6463,424.7694,900.0009,424.9183,900.2678,424.8556,900.3462,424.8881,900.557,425.2683,900.7769,425.6523,900.485,425.8243,901.0625,426.3564,901,426.6234,900.7035,426.6234,901.5338,435.7493,900.505,444.8753,900.9315,454.0013,901.7416,463.1272,901,472.2532,900.985,472.247,900.886,472.6202,900.8114,473.0035,900.6888,473.367,900.413,473.6669,900.2678,474.021,900.3044,474.1094,899.8412,473.9911,899.5969,474.4014,899.277,474.6291,898.9103,474.7437,898.5,474.7532,898.5,475.3662,888.6765,474.2701,878.8529,474.101,869.0294,474.1318,859.2059,474.6943,849.3824,474.5567,839.5588,475.4346,829.7353,474.5785,819.9118,474.4102,810.0882,474.9815,800.2647,474.0864,790.4412,474.2341,780.6176,475.4022,770.7941,475.1889,760.9706,475.4877,751.1471,474.4314,741.3235,475.0724,731.5,474.7532,731.5753,474.935,731.0862,474.4613,730.7807,474.4308,730.4554,474.3527,730.1689,474.3681,729.7322,474.021,729.7309,474.0204,729.7282,473.7264,729.2688,473.2432,729.0843,472.8739,729.3015,472.671,729,472.2532,728.2831,472.2532,729.509,463.1272,729.2066,454.0013,728.7321,444.8753,728.6462,435.7493,729,426.6234,729.1413,426.6819,729.0543,426.2316,729.4752,425.9918,729.2691,425.4922,729.7759,425.2879,729.7322,424.8556,729.794,425.0048,730.117,424.7846,730.4454,424.5773,730.8856,424.64,731.2247,424.4588,731.5,424.1234" style="stroke:#181818;stroke-width:4.0;"/><text fill="#000000" font-family="Chalkduster" font-size="24" lengthAdjust="spacing" textLength="152" x="739" y="457.9643">PARADISEC</text></g><!--entity ny--><g id="elem_ny"><polygon fill="none" points="553,424.1234,553,424.3336,562.8571,423.7091,572.7143,424.3167,582.5714,424.5231,592.4286,423.41,602.2857,424.0457,612.1429,423.6969,622,423.7399,631.8571,424.0552,641.7143,423.432,651.5714,424.677,661.4286,423.4931,671.2857,423.9256,681.1429,424.5553,691,424.1234,690.9891,424.097,691.3623,424.2908,691.703,424.4064,692.0834,424.6177,692.4447,424.7828,692.7678,424.8556,692.9481,424.9303,693.1209,425.2948,693.2698,425.6494,693.2855,425.9487,693.4963,426.329,693.5,426.6234,694.2022,426.6234,692.7788,435.7493,694.1785,444.8753,693.2035,454.0013,694.0338,463.1272,693.5,472.2532,693.3476,472.1901,693.3325,472.598,693.4355,473.0549,693.0457,473.3076,692.9466,473.6809,692.7678,474.021,692.811,474.1253,692.4673,474.2956,692.0602,474.3127,691.7437,474.5488,691.2805,474.4305,691,474.7532,691,475.0376,681.1429,475.3014,671.2857,475.1977,661.4286,475.3662,651.5714,474.2701,641.7143,474.101,631.8571,474.1318,622,474.6943,612.1429,474.5567,602.2857,475.4346,592.4286,474.5785,582.5714,474.4102,572.7143,474.9815,562.8571,474.0864,553,474.7532,552.9338,474.5933,552.7292,474.8066,552.3485,474.5945,552.033,474.5401,551.5447,474.0683,551.2322,474.021,551.3305,474.0617,551.2676,473.7427,550.7939,473.2536,550.7634,472.9481,550.6852,472.6228,550.5,472.2532,551.1518,472.2532,550.4958,463.1272,550.9626,454.0013,549.9462,444.8753,549.8227,435.7493,550.5,426.6234,550.6551,426.6876,550.4257,426.1784,550.9496,425.9812,551.003,425.5891,551.0033,425.175,551.2322,424.8556,551.1871,424.7467,551.6443,424.8504,551.9012,424.4705,552.3684,424.5985,552.5759,424.0996,553,424.1234" style="stroke:#181818;stroke-width:4.0;"/><text fill="#000000" font-family="Chalkduster" font-size="24" lengthAdjust="spacing" textLength="123" x="560.5" y="457.9643">Nyingarn</text></g><!--entity ldacp--><g id="elem_ldacp"><polygon fill="none" points="901.5,718.7534,901.5,718.9636,911.4167,718.3391,921.3333,718.9467,931.25,719.1531,941.1667,718.04,951.0833,718.6757,961,718.3269,970.9167,718.3699,980.8333,718.6852,990.75,718.062,1000.6667,719.307,1010.5833,718.1231,1020.5,718.5556,1030.4167,719.1853,1040.3333,718.6676,1050.25,718.8216,1060.1667,718.7214,1070.0833,718.9319,1080,718.9925,1089.9167,719.3391,1099.8333,719.4244,1109.75,719.4326,1119.6667,719.008,1129.5833,719.217,1139.5,719.4556,1149.4167,718.0322,1159.3333,719.4319,1169.25,718.4569,1179.1667,719.2872,1189.0833,718.2583,1199,718.6849,1208.9167,719.495,1218.8333,718.7046,1228.75,718.8587,1238.6667,719.092,1248.5833,719.1696,1258.5,718.7534,1258.4995,718.7522,1258.8902,718.9883,1259.1341,718.87,1259.5969,719.2803,1259.9841,719.508,1260.2678,719.4856,1260.4047,719.5423,1260.603,719.9174,1260.4119,720.1311,1260.5063,720.4631,1260.6622,720.8206,1261,721.2534,1260.9411,721.2534,1260.8035,730.7858,1261.6814,740.3183,1260.8253,749.8507,1260.6569,759.3832,1261.2283,768.9157,1260.3332,778.4481,1260.4809,787.9806,1261,797.513,1261.1999,797.5958,1260.9877,797.9222,1260.9333,798.3138,1260.4616,798.5327,1260.5125,798.968,1260.2678,799.2808,1260.3431,799.4626,1259.854,799.2818,1259.5484,799.5442,1259.2232,799.7589,1258.9367,800.0673,1258.5,800.013,1258.5,800.0088,1248.5833,800.4756,1238.6667,799.4593,1228.75,799.3358,1218.8333,800.5167,1208.9167,799.2961,1199,800.522,1189.0833,800.2197,1179.1667,799.7451,1169.25,799.6593,1159.3333,800.4718,1149.4167,799.7137,1139.5,800.6049,1129.5833,799.4603,1119.6667,800.6305,1109.75,800.4973,1099.8333,800.258,1089.9167,800.0603,1080,800.7396,1070.0833,800.6266,1060.1667,800.1823,1050.25,800.2812,1040.3333,799.8828,1030.4167,800.7295,1020.5,800.1679,1010.5833,800.1856,1000.6667,799.4047,990.75,799.6078,980.8333,800.5438,970.9167,800.4428,961,799.9701,951.0833,799.6909,941.1667,799.7941,931.25,799.3269,921.3333,800.4278,911.4167,800.7526,901.5,800.013,901.5671,800.1751,901.2351,800.0806,900.7755,799.678,900.4505,799.6006,900.0363,799.3079,899.7322,799.2808,899.8197,799.317,899.6618,798.9587,899.6095,798.6442,899.2222,798.1908,899.1051,797.8494,899,797.513,899.4435,797.513,899.5673,787.9806,898.4875,778.4481,898.8061,768.9157,899.1493,759.3832,898.3892,749.8507,899.3534,740.3183,899.258,730.7858,899,721.2534,898.969,721.2405,899.1903,720.918,899.5173,720.6392,899.343,720.1528,899.6828,719.8793,899.7322,719.4856,899.7687,719.5736,900.1006,719.3748,900.4573,719.2361,900.8074,719.0812,901.0668,718.7076,901.5,718.7534" style="stroke:#181818;stroke-width:4.0;"/><text fill="#000000" font-family="Chalkduster" font-size="24" lengthAdjust="spacing" textLength="342" x="909" y="752.5943">Languate Data Commons</text><text fill="#000000" font-family="Chalkduster" font-size="24" lengthAdjust="spacing" textLength="233" x="909" y="783.2241">RO-Crate Profile</text></g><!--entity rocrate--><g id="elem_rocrate"><polygon fill="none" points="955.5,982.0134,955.5,982.2236,965.5714,981.5991,975.6429,982.2067,985.7143,982.4131,995.7857,981.3,1005.8571,981.9357,1015.9286,981.5869,1026,981.6299,1036.0714,981.9452,1046.1429,981.322,1056.2143,982.567,1066.2857,981.3831,1076.3571,981.8156,1086.4286,982.4453,1096.5,982.0134,1096.4891,981.987,1096.8623,982.1808,1097.203,982.2964,1097.5834,982.5077,1097.9447,982.6728,1098.2678,982.7456,1098.4481,982.8203,1098.6209,983.1848,1098.7698,983.5394,1098.7855,983.8387,1098.9963,984.219,1099,984.5134,1099.7022,984.5134,1098.2788,993.6393,1099.6785,1002.7653,1098.7035,1011.8913,1099.5338,1021.0172,1099,1030.1432,1098.8476,1030.0801,1098.8325,1030.488,1098.9355,1030.9449,1098.5457,1031.1976,1098.4466,1031.5709,1098.2678,1031.911,1098.311,1032.0153,1097.9673,1032.1856,1097.5602,1032.2027,1097.2437,1032.4388,1096.7805,1032.3205,1096.5,1032.6432,1096.5,1032.9276,1086.4286,1033.1914,1076.3571,1033.0877,1066.2857,1033.2562,1056.2143,1032.1601,1046.1429,1031.991,1036.0714,1032.0218,1026,1032.5843,1015.9286,1032.4467,1005.8571,1033.3246,995.7857,1032.4685,985.7143,1032.3002,975.6429,1032.8715,965.5714,1031.9764,955.5,1032.6432,955.4338,1032.4833,955.2292,1032.6966,954.8485,1032.4845,954.533,1032.4301,954.0447,1031.9583,953.7322,1031.911,953.8305,1031.9517,953.7676,1031.6327,953.2939,1031.1436,953.2634,1030.8381,953.1852,1030.5128,953,1030.1432,953.6518,1030.1432,952.9958,1021.0172,953.4626,1011.8913,952.4462,1002.7653,952.3227,993.6393,953,984.5134,953.1551,984.5776,952.9257,984.0684,953.4496,983.8712,953.503,983.4791,953.5033,983.065,953.7322,982.7456,953.6871,982.6367,954.1443,982.7404,954.4012,982.3605,954.8684,982.4885,955.0759,981.9896,955.5,982.0134" style="stroke:#181818;stroke-width:4.0;"/><text fill="#000000" font-family="Chalkduster" font-size="24" lengthAdjust="spacing" textLength="126" x="963" y="1015.8543">RO-Crate</text></g><!--entity OCFL--><g id="elem_OCFL"><polygon fill="none" points="428,734.0734,428,734.2836,438.5,733.6591,449,734.2667,459.5,734.4731,470,733.36,480.5,733.9957,491,733.6469,501.5,733.6899,512,734.0734,511.9913,734.0524,512.2654,734.0069,512.7777,734.5368,512.9803,734.3186,513.389,734.5983,513.7678,734.8056,513.9008,734.8607,513.8878,735.1482,514.0817,735.5214,514.1973,735.8622,514.4085,736.2426,514.5,736.5734,514.7391,736.5734,515.0857,745.6993,515.1711,754.8253,515.1793,763.9513,514.7546,773.0772,514.5,782.2032,514.6428,782.2623,514.5698,782.6463,513.985,782.8183,514.2696,783.3504,513.8229,783.5796,513.7678,783.971,513.8359,784.1354,513.3511,783.965,513.0519,784.2428,512.8017,784.6387,512.3473,784.5418,512,784.7032,512,784.8085,501.5,785.0418,491,785.1194,480.5,784.6993,470,784.9904,459.5,784.1308,449,784.9876,438.5,785.2514,428,784.7032,428.0567,784.8401,427.7246,784.7455,427.2313,784.2615,426.8561,784.063,426.5065,783.9261,426.2322,783.971,426.2141,783.9635,426.0253,783.5923,426.1492,783.3508,425.7391,782.888,425.5408,782.513,425.5,782.2032,425.7283,782.2032,424.8332,773.0772,424.9809,763.9513,426.149,754.8253,425.9357,745.6993,425.5,736.5734,425.7262,736.6671,425.5473,736.1788,425.8912,735.907,426.1212,735.588,425.9403,735.0989,426.2322,734.8056,426.22,734.7761,426.6019,734.698,427.0225,734.7134,427.2924,734.365,427.7055,734.3623,428,734.0734" style="stroke:#181818;stroke-width:4.0;"/><text fill="#000000" font-family="Chalkduster" font-size="24" lengthAdjust="spacing" textLength="69" x="435.5" y="767.9143">OCFL</text></g><!--entity NOCFL--><g id="elem_NOCFL"><polygon fill="none" points="551.5,734.0734,551.5,734.2836,561.6,733.6591,571.7,734.2667,581.8,734.4731,591.9,733.36,602,733.9957,612.1,733.6469,622.2,733.6899,632.3,734.0052,642.4,733.382,652.5,734.0734,652.5706,734.2439,652.7732,734.0257,653.1819,734.3054,653.6158,734.6457,653.9033,734.6327,654.2678,734.8056,654.2888,734.8143,654.4044,735.1551,654.6156,735.5355,654.7808,735.8968,655.0339,736.2945,655,736.5734,655.6711,736.5734,655.6793,745.6993,655.2546,754.8253,655.4636,763.9513,655.7022,773.0772,655,782.2032,654.7779,782.1112,655.0625,782.6433,654.6158,782.8725,654.7251,783.332,654.2618,783.5543,654.2678,783.971,654.259,783.9499,654.0088,784.3458,653.5544,784.2489,653.2205,784.4427,652.8967,784.661,652.5,784.7032,652.5,785.1194,642.4,784.6993,632.3,784.9904,622.2,784.1308,612.1,784.9876,602,785.2514,591.9,785.1477,581.8,785.3162,571.7,784.2201,561.6,784.051,551.5,784.7032,551.4207,784.5118,551.1389,784.5386,550.7678,784.3498,550.5263,784.4737,550.0635,784.0636,549.7322,783.971,549.6266,783.9272,549.6561,783.6465,549.234,783.1788,549.133,782.8441,549.3463,782.6395,549,782.2032,549.4357,782.2032,549.7345,773.0772,548.6782,763.9513,549.3192,754.8253,549.5904,745.6993,549,736.5734,548.8545,736.5131,549.1169,736.2076,549.3317,735.8823,549.6401,735.5959,549.5845,735.1586,549.7322,734.8056,549.7912,734.9481,550.0151,734.4886,550.3529,734.3041,550.8571,734.5214,551.055,733.999,551.5,734.0734" style="stroke:#181818;stroke-width:4.0;"/><text fill="#000000" font-family="Chalkduster" font-size="24" lengthAdjust="spacing" textLength="86" x="559" y="767.9143">NOCFL</text></g><!--entity pr--><g id="elem_pr"><polygon fill="none" points="692,734.0734,692,734.2836,701.8667,733.6591,711.7333,734.2667,721.6,734.4731,731.4667,733.36,741.3333,733.9957,751.2,733.6469,761.0667,733.6899,770.9333,734.0052,780.8,733.382,790.6667,734.627,800.5333,733.4431,810.4,733.8756,820.2667,734.5053,830.1333,733.9876,840,734.0734,840.0087,734.0944,840.3495,734.21,840.7299,734.4212,841.0912,734.5864,841.4889,734.8395,841.7678,734.8056,841.9744,734.8912,842.1234,735.2458,842.1391,735.5452,842.3499,735.9254,842.5698,736.3094,842.5,736.5734,841.7788,736.5734,843.1785,745.6993,842.2035,754.8253,843.0338,763.9513,842.005,773.0772,842.5,782.2032,842.4789,782.1945,842.5819,782.6514,842.1921,782.9041,842.0931,783.2773,842.0185,783.6606,841.7678,783.971,841.8209,784.0992,841.4137,784.1162,841.0973,784.3523,840.6341,784.234,840.3898,784.6443,840,784.7032,840,785.2514,830.1333,785.1477,820.2667,785.3162,810.4,784.2201,800.5333,784.051,790.6667,784.0818,780.8,784.6443,770.9333,784.5067,761.0667,785.3846,751.2,784.5285,741.3333,784.3602,731.4667,784.9315,721.6,784.0364,711.7333,784.1841,701.8667,785.3522,692,784.7032,692.0556,784.8374,691.7401,784.783,691.2518,784.3112,690.9801,784.3622,690.6611,784.2992,690.2322,783.971,690.0868,783.9107,690.0563,783.6052,689.9781,783.2799,689.9936,782.9935,689.6452,782.5562,689.5,782.2032,689.9626,782.2032,688.9462,773.0772,688.8227,763.9513,690.0036,754.8253,688.7831,745.6993,689.5,736.5734,689.6567,736.6383,689.7101,736.2462,689.7104,735.8321,689.8304,735.4676,690.2271,735.2177,690.2322,734.8056,690.194,734.7134,690.6613,734.8414,690.8688,734.3425,691.3717,734.5564,691.7082,734.369,692,734.0734" style="stroke:#181818;stroke-width:4.0;"/><text fill="#000000" font-family="Chalkduster" font-size="24" lengthAdjust="spacing" textLength="133" x="699.5" y="767.9143">PROXYIST</text></g><!--link ny to NOCFL--><g id="link_ny_NOCFL"><path d="M620.4,475.1234 L620.6797,475.1415 L619.1919,485.1996 L619.3436,495.3641 L618.9614,505.4939 L616.8236,515.5097 L617.0126,525.6767 L615.8917,535.7585 L615.2921,545.8742 L615.0549,556.0135 L613.5689,566.0716 L614.5686,576.2912 L612.3366,586.3009 L612.2553,596.4503 L612.4363,606.6167 L611.0907,616.684 L610.6388,626.8093 L609.8487,636.9126 L609.4719,647.0428 L608.8958,657.16 L608.7001,667.302 L608.1569,677.4214 L607.511,687.5341 L606.2892,697.6094 L605.9104,707.7394 L605.5711,717.8721 L603.98,727.9234 " fill="none" style="stroke:#8B0000;stroke-width:4.0;"/><polygon fill="#8B0000" points="603.61,732.5834,603.672,732.616,604.4044,730.7756,605.5003,729.1264,606.4778,727.4149,607.0661,725.4987,608.1932,723.8659,608.1761,723.8464,607.2486,724.5046,606.4072,725.2611,605.6256,726.0858,604.6378,726.6752,603.9388,727.5942,604.0776,727.7158,603.0351,726.6049,602.3979,725.849,601.8101,725.1365,600.9347,724.1718,600.2105,723.3398,600.2318,723.3477,600.8804,725.1848,601.6261,727.0578,602.325,728.9135,603.1133,730.802,603.61,732.5834" style="stroke:#8B0000;stroke-width:4.0;"/></g><!--link para to pr--><g id="link_para_pr"><path d="M811.07,475.1234 L811.3468,475.1674 L808.9775,484.7597 L808.2307,494.61 L806.9555,504.3763 L803.9429,513.8662 L803.2331,523.7225 L801.2269,533.3725 L799.7366,543.1046 L798.6049,552.8937 L796.2373,562.4862 L796.3298,572.4701 L793.2239,581.9452 L792.2465,591.7589 L791.5288,601.6139 L789.3001,611.2285 L787.956,620.9838 L786.2772,630.6859 L785.0074,640.4531 L783.5403,650.1889 L782.4497,659.9845 L781.0152,669.7255 L779.479,679.4503 L777.373,689.0844 L776.1012,698.8513 L774.8685,708.6243 L771.4473,718.0492 L770.85,727.9234 " fill="none" style="stroke:#8B0000;stroke-width:4.0;"/><polygon fill="#8B0000" points="769.95,732.5834,770.0088,732.6215,770.9068,730.8561,772.1494,729.3143,773.2797,727.6997,774.0412,725.8455,775.3133,724.3229,775.2981,724.302,774.3141,724.8724,773.4069,725.5484,772.5529,726.298,771.5153,726.7944,770.7349,727.6454,770.8843,727.7538,769.9004,726.6063,769.3526,725.7753,768.858,724.9829,768.0538,723.9659,767.4125,723.067,767.4345,723.0729,767.9097,724.9675,768.485,726.8889,769.012,728.7974,769.6311,730.7304,769.95,732.5834" style="stroke:#8B0000;stroke-width:4.0;"/></g><!--link oni to OCFL--><g id="link_oni_OCFL"><path d="M481.96,475.1234 L482.24,475.1352 L480.9813,485.2121 L481.3639,495.3582 L481.212,505.4818 L479.3025,515.5313 L479.7225,525.679 L478.831,535.7714 L478.4615,545.8858 L478.4548,556.0155 L477.1978,566.0925 L478.4295,576.2745 L476.4256,586.3199 L476.5749,596.4563 L476.987,606.6037 L475.8705,616.6865 L475.6489,626.8072 L475.0886,636.9136 L474.9422,647.0374 L474.5962,657.1528 L474.631,667.2843 L474.3179,677.4011 L473.9021,687.5136 L472.9096,697.6017 L472.7612,707.7254 L472.6523,717.8509 L471.29,727.9234 " fill="none" style="stroke:#8B0000;stroke-width:4.0;"/><polygon fill="#8B0000" points="471.05,732.5834,471.1127,732.6145,471.8027,730.7578,472.8604,729.0838,473.7983,727.3504,474.3424,725.4212,475.4317,723.7629,475.4142,723.7438,474.502,724.4232,473.6782,725.1987,472.9158,726.0412,471.9418,726.6532,471.2641,727.588,471.4001,727.7127,470.3443,726.6124,469.6855,725.8763,469.0751,725.1848,468.183,724.2345,467.439,723.4204,467.4602,723.4287,468.1513,725.2491,468.9388,727.1074,469.6798,728.9474,470.5094,730.8223,471.05,732.5834" style="stroke:#8B0000;stroke-width:4.0;"/></g><!--link ny to ldacp--><g id="link_ny_ldacp"><path d="M660.82,475.2034 L660.9715,475.4391 L668.7442,480.0237 L677.4052,485.9904 L685.7769,491.5069 L693.1973,495.5436 L701.9345,501.6288 L701.8782,501.5419 L709.906,506.5176 L718.2179,511.9317 L726.7272,517.6505 L734.556,522.3191 L743.7395,529.0782 L751.6188,533.8246 L751.1582,533.1217 L760.4459,539.4828 L769.8777,546.0639 L778.471,551.3653 L787.5552,557.4158 L796.4536,563.1829 L805.4486,569.0973 L805.4924,569.1634 L810.9247,572.7756 L816.4272,576.4937 L821.8655,580.115 L827.285,583.7077 L832.5356,587.0457 L832.5985,587.1398 L837.9431,590.7585 L843.2949,594.3882 L848.236,597.4039 L853.8748,601.4625 L859,604.7534 L858.7779,604.4263 L867.7426,611.0066 L875.3149,615.5361 L883.9772,621.6709 L892.9268,628.2289 L900.7142,633.0752 L900.6774,633.0217 L909.1987,638.9775 L917.7801,645.0204 L926.2437,650.8922 L934.3309,656.2175 L942.7388,662.0084 L942.9574,662.3228 L950.3235,666.9599 L958.9963,673.4759 L967.2177,679.3428 L975.1593,684.8075 L982.8414,689.899 L982.9978,690.1221 L989.9079,694.7621 L997.0545,699.7394 L1004.2521,704.7895 L1011.5853,710.0331 L1018.79,715.0934 " fill="none" style="stroke:#8B0000;stroke-width:4.0;"/><polygon fill="#8B0000" points="1022.55,718.4434,1022.6102,718.4793,1021.4226,716.6808,1020.5879,715.0926,1019.6382,713.436,1018.3108,711.5541,1017.5063,709.984,1017.4808,709.9796,1017.5582,711.0748,1017.7642,712.1922,1018.0597,713.325,1018.0469,714.4048,1018.466,715.5588,1018.4973,715.7407,1017.3153,715.5437,1016.2248,715.8777,1015.1455,716.2765,1014.0012,716.2983,1012.8911,716.5184,1012.8955,716.5408,1014.8208,716.893,1016.7663,717.3468,1018.702,717.7516,1020.6564,718.2499,1022.55,718.4434" style="stroke:#8B0000;stroke-width:4.0;"/></g><!--link para to ldacp--><g id="link_para_ldacp"><path d="M836.24,475.1234 L836.4524,475.3062 L842.2475,482.2305 L849.2878,490.2265 L855.9227,497.8735 L861.224,504.3729 L868.2927,512.3933 L874.3665,519.5574 L880.8362,527.0623 L887.5811,534.8041 L893.3775,541.7296 L901.062,550.2799 L906.2918,556.7177 L913.1551,564.5614 L920.2178,572.5765 L926.1208,579.5938 L932.7027,587.1952 L939.0277,594.5756 L945.6667,602.2261 L952.1542,609.7463 L958.9307,617.5153 L965.4432,625.057 L971.8777,632.5316 L977.8748,639.6298 L984.5123,647.2791 L991.1797,654.9541 L996.1674,661.1836 L1004.0082,669.8685 L1009.4491,676.488 L1016.7145,684.6776 L1022.101,691.2503 L1028.9583,699.0888 L1036.2032,707.2609 L1041.88,714.0834 " fill="none" style="stroke:#8B0000;stroke-width:4.0;"/><polygon fill="#8B0000" points="1045.54,717.3334,1045.607,717.3537,1044.8362,715.4083,1044.4584,713.5821,1043.9527,711.717,1043.026,709.7243,1042.6819,707.9083,1042.6561,707.9064,1042.4579,709.0264,1042.39,710.1558,1042.4126,711.2918,1042.1232,712.4051,1042.2708,713.5502,1042.2842,713.7343,1041.1271,713.2585,1040.0092,713.32,1038.8961,713.4471,1037.7552,713.1928,1036.6289,713.1391,1036.6386,713.1597,1038.4066,713.9683,1040.2187,714.8706,1042.0095,715.7278,1043.8409,716.6712,1045.54,717.3334" style="stroke:#8B0000;stroke-width:4.0;"/></g><!--link oni to ldacp--><g id="link_oni_ldacp"><path d="M504.06,474.9634 L504.1237,475.0317 L506.6605,477.3689 L509.5706,480.1067 L512.3591,482.7141 L514.7478,484.8924 L517.69,487.6646 L517.6697,487.6366 L520.6408,489.7289 L523.714,491.9621 L526.8582,494.2933 L529.7578,496.2868 L533,498.7534 L533.0895,498.9826 L536.4969,499.8972 L540.1655,501.481 L543.866,503.1465 L547.3811,504.3369 L550.9937,505.7772 L551.0035,505.8059 L554.3271,506.8988 L557.6951,508.1225 L561.0417,509.2831 L564.4292,510.564 L567.6833,511.4526 L567.7763,511.736 L571.9255,513.1016 L576.0146,514.2844 L580.1917,515.7348 L584.3728,517.1977 L588.4234,518.2634 L588.1307,517.3474 L598.7786,522.3465 L608.4625,524.3295 L618.8793,528.6054 L628.5414,530.5201 L638.8221,534.3702 L638.7947,534.283 L648.602,538.2944 L657.7694,540.2701 L667.3144,543.447 L676.8911,546.7247 L686.4055,549.8044 L695.7225,552.2559 L695.7209,552.2509 L705.3261,555.5918 L714.4729,557.4685 L724.3033,561.5292 L733.8976,564.8353 L743.3455,567.6739 L752.6576,570.0788 L752.9033,570.8583 L762.5645,572.6481 L772.5973,575.6168 L782.7102,578.8396 L793.0362,582.7386 L803.1603,585.9971 L803.1334,585.914 L810.7742,588.7197 L818.1777,590.7921 L825.6753,593.1553 L833.2741,595.8313 L840.7635,598.1692 L840.6628,597.8905 L844.3324,599.269 L848.156,601.0742 L851.7711,602.3018 L855.4636,603.7436 L859,604.7534 L858.9349,604.626 L861.3703,606.0577 L863.731,607.343 L865.8219,608.1003 L868.2038,609.4273 L870.529,610.6432 L870.5555,610.6925 L872.9757,612.1408 L875.1471,613.1266 L877.5548,614.5518 L879.6503,615.3965 L882.0764,616.8557 L881.9287,616.5934 L884.4927,618.3496 L886.533,619.1758 L889.1069,620.9494 L891.3475,622.1312 L893.6089,623.3501 L893.5487,623.2474 L895.8263,624.5616 L898.3059,626.2202 L900.4323,627.2767 L902.9296,628.9655 L905.0934,630.0857 L904.9658,629.8758 L907.5167,631.7074 L909.7666,633.0441 L911.992,634.3405 L914.227,635.6526 L916.4968,637.0219 L916.6686,637.2953 L918.8997,638.672 L921.0524,639.924 L923.3335,641.3805 L925.4971,642.6498 L927.7857,644.118 L927.9588,644.3853 L930.0513,645.6188 L932.2839,647.0685 L934.3235,648.2202 L936.6008,649.7391 L938.927,651.3333 L939.0577,651.5297 L941.2249,652.9511 L943.3006,654.2349 L945.424,655.5904 L947.6415,657.0874 L949.8875,658.6271 L949.7143,658.3761 L954.2414,661.7109 L958.5725,664.7619 L962.7679,667.616 L967.0596,670.6098 L971.1334,673.2876 L971.0979,673.2383 L975.1809,676.2164 L979.0825,678.9424 L983.2818,682.082 L987.297,684.9659 L991.2578,687.7742 L991.4047,687.9709 L994.9442,690.4898 L998.717,693.3211 L1002.6181,696.3243 L1006.3986,699.1659 L1009.9952,701.7612 L1009.8562,701.5808 L1013.3596,704.3254 L1016.8696,707.0786 L1020.0804,709.4434 L1023.7589,712.4154 L1027.08,714.9234 " fill="none" style="stroke:#8B0000;stroke-width:4.0;"/><polygon fill="#8B0000" points="1030.71,718.5634,1030.7719,718.5963,1029.6636,716.7592,1028.918,715.1149,1028.0543,713.4078,1026.8022,711.4943,1026.0877,709.8666,1026.062,709.8634,1026.0835,710.9724,1026.2347,712.0972,1026.476,713.233,1026.4068,714.3309,1026.7725,715.4818,1026.7948,715.665,1025.624,715.4102,1024.5184,715.6903,1023.4208,716.0356,1022.2768,716.0013,1021.1572,716.1666,1021.1628,716.1887,1023.0652,716.6356,1024.9928,717.183,1026.9083,717.682,1028.847,718.2734,1030.71,718.5634" style="stroke:#8B0000;stroke-width:4.0;"/></g><!--link oni to rocrate--><g id="link_oni_rocrate"><path d="M450.59,473.1434 L450.6497,473.2152 L447.9422,475.1044 L445.5846,477.4147 L443.1131,479.5878 L440.2668,481.31 L437.9394,483.6564 L437.9159,483.6311 L435.1781,485.9536 L432.5585,488.4039 L430.0212,490.9431 L427.2005,493.1761 L424.7767,495.8379 L424.9553,496.0072 L421.9741,498.3858 L419.5142,501.2587 L417.1178,504.192 L414.3515,506.7743 L411.7798,509.5412 L411.8034,509.5602 L409.338,512.5479 L406.9801,515.6223 L404.5704,518.6549 L402.2596,521.7673 L399.6262,524.6196 L399.8761,524.7825 L397.7526,528.0459 L395.4681,531.2043 L393.4194,534.5164 L391.3817,537.8357 L388.9938,540.9267 L388.7054,540.7868 L387.5784,544.5361 L385.5018,547.8248 L384.1471,551.4636 L382.0489,554.7419 L380.5602,558.3157 L380.531,558.3069 L379.7641,562.0763 L378.3166,565.6392 L377.2706,569.324 L376.2584,573.0189 L375.003,576.6401 L375.187,576.6594 L374.6007,580.4626 L374.3287,584.2987 L373.5482,588.0816 L373.5263,591.9439 L373,595.7534 L373.7309,595.7534 L373.5927,605.5778 L373.8174,615.4023 L372.3559,625.2267 L372.1304,635.0511 L372.1715,644.8756 L372.9215,654.7 L372.738,664.5245 L373.9085,674.3489 L372.7671,684.1734 L372.5426,693.9978 L373.3044,703.8223 L372.1109,713.6467 L372.3078,723.4711 L373.8653,733.2956 L373.5809,743.12 L373.9793,752.9445 L372.5709,762.7689 L373.4256,772.5934 L373.7872,782.4178 L372.3701,792.2423 L372.8722,802.0667 L373.168,811.8911 L373.869,821.7156 L372.9944,831.54 L373.6168,841.3645 L372.2616,851.1889 L373,861.0134 L372.7007,860.9809 L373.453,863.1648 L373.1443,865.2336 L373.9165,867.4196 L374.0134,869.5324 L374.1526,871.6498 L374.0397,871.612 L374.6798,873.6208 L375.6986,875.7563 L376.0553,877.6703 L377.1072,879.817 L377.5341,881.7544 L377.321,881.6322 L378.8713,883.8082 L379.9191,885.696 L380.9259,887.5604 L381.9488,889.434 L383.0297,891.3408 L383.2788,891.5464 L384.7391,893.3308 L386.0859,895.0214 L387.6188,896.8658 L388.9813,898.5694 L390.525,900.4227 L390.74,900.6575 L392.4475,902.1916 L394.3289,903.9156 L395.9705,905.3778 L397.9075,907.1626 L399.9052,909.0136 L400.044,909.2043 L402.2477,910.7908 L404.3542,912.2436 L406.5112,913.766 L408.7683,915.4258 L411.0557,917.1272 L410.8993,916.8654 L413.7115,918.8155 L416.3468,920.4694 L418.8594,921.9181 L421.4591,923.5124 L423.8619,924.7772 L423.8347,924.7229 L426.7488,926.2518 L429.5236,927.5032 L432.5269,929.21 L435.3889,930.6352 L438.2092,931.9771 L438.306,932.2028 L441.3237,933.236 L444.4952,934.6276 L447.7511,936.2164 L450.9276,937.6197 L453.983,938.7406 L453.9037,938.5271 L457.3701,939.928 L460.8403,941.3391 L464.1399,942.2906 L467.7061,943.9605 L471.0685,945.0814 L471.1039,945.1905 L474.7113,946.2251 L478.4012,947.5142 L482.1381,948.9484 L485.6518,949.6944 L489.3513,951.013 L489.3909,951.1473 L491.2981,951.6981 L493.1877,952.189 L495.1017,952.763 L497.0092,953.3147 L498.9058,953.8296 L498.8317,953.5623 L500.8204,954.2018 L502.7754,954.7197 L504.7999,955.4886 L506.765,956.0429 L508.7167,956.5491 L508.7343,956.6188 L512.7515,957.4546 L516.8426,958.5817 L520.9035,959.5898 L525.0463,960.921 L529.05,961.7033 L529.0917,961.8882 L533.2397,962.45 L537.5175,963.586 L541.7054,964.3246 L546.0275,965.6571 L550.2366,966.4892 L550.2901,966.7543 L554.6696,967.6127 L558.9683,968.072 L563.4326,969.3501 L567.7114,969.7107 L572.1619,970.9205 L572.1778,971.0081 L576.648,971.6077 L581.1893,972.599 L585.7106,973.4798 L590.2388,974.3993 L594.7113,975.0109 L594.6597,974.6951 L599.357,975.972 L603.9475,976.5942 L608.572,977.4245 L613.2118,978.3493 L617.7701,978.7738 L617.7704,978.7762 L622.4721,979.5408 L627.1653,980.2474 L631.855,980.9301 L636.5329,981.5329 L641.2237,982.2231 L641.2653,982.5362 L645.9348,982.5843 L650.7503,983.7318 L655.4275,983.8376 L660.1792,984.5043 L664.9575,985.3722 L664.9597,985.3899 L669.7389,985.9572 L674.4912,986.2998 L679.319,987.2724 L684.0828,987.7104 L688.8569,988.2349 L688.8917,988.5559 L693.6789,989.0476 L698.4156,989.0727 L703.2081,989.6129 L708.011,990.2496 L712.8073,990.8247 L712.8226,990.9819 L717.602,991.469 L722.3749,991.8901 L727.1245,992.0718 L731.9441,992.9706 L736.6939,993.1553 L736.7186,993.4359 L741.4337,993.5513 L746.1679,993.8834 L750.9033,994.2286 L755.6522,994.7283 L760.4023,995.2403 L760.4071,995.3012 L765.0829,995.5806 L769.7538,995.7964 L774.4686,996.5681 L779.1185,996.5194 L783.8177,997.0934 L783.8335,997.3161 L788.4327,997.6097 L793.0325,997.9121 L797.6442,998.3812 L802.2162,998.2922 L806.8255,998.7281 L806.817,998.5948 L811.3373,999.2443 L815.8029,999.0354 L820.3103,999.4824 L824.8173,999.9234 L829.3111,1000.1582 L829.3128,1000.1887 L837.8919,1000.4592 L846.4886,1001.0593 L855.0966,1001.869 L863.6835,1002.2864 L872.2574,1002.4588 L872.2463,1002.194 L880.1552,1002.8227 L888.0406,1002.8887 L895.946,1003.4343 L903.8483,1003.9052 L911.7393,1004.1041 L911.7452,1004.2907 L918.7502,1004.0287 L925.7852,1004.7218 L932.7998,1004.7674 L939.8121,1004.7368 L946.84,1005.2034 " fill="none" style="stroke:#8B0000;stroke-width:4.0;"/><polygon fill="#8B0000" points="951.68,1005.3534,951.7101,1005.4166,949.8419,1004.3825,948.1501,1003.7193,946.4009,1002.9353,944.4627,1001.7541,942.7861,1001.1227,942.7673,1001.1048,943.4621,1001.8451,944.2516,1002.6754,945.107,1003.5681,945.7354,1004.2454,946.6817,1005.2245,946.8087,1005.3583,945.7166,1005.8512,944.9955,1006.7349,944.3197,1007.6662,943.3805,1008.3202,942.5799,1009.12,942.5886,1009.141,944.3958,1008.3569,946.2427,1007.6684,948.0704,1006.9337,949.9346,1006.2871,951.68,1005.3534" style="stroke:#8B0000;stroke-width:4.0;"/></g><!--link om to oni--><g id="link_om_oni"><path d="M483,237.5834 L483.2802,237.5834 L482.4476,247.5973 L483.2577,257.6111 L483.5329,267.625 L482.0488,277.6389 L482.8964,287.6528 L482.4313,297.6667 L482.4887,307.6806 L482.9091,317.6945 L482.0782,327.7084 L483.7382,337.7223 L482.1596,347.7361 L482.7363,357.75 L483.5759,367.7639 L482.8856,377.7778 L483.091,387.7917 L482.9574,397.8056 L483.238,407.8195 L483,417.8334 " fill="none" style="stroke:#8B0000;stroke-width:4.0;"/><polygon fill="#8B0000" points="483,422.6434,483.064,422.6718,483.6738,420.7873,484.6589,419.0695,485.5217,417.2975,485.9827,415.3468,487,413.6434,486.9817,413.6251,486.0995,414.3428,485.3096,415.153,484.5839,416.0273,483.637,416.6804,483,417.6434,483.1305,417.7739,482.0514,416.6948,481.3534,415.9968,480.7018,415.3452,479.7798,414.4232,479,413.6434,479.0208,413.6526,479.7903,415.439,480.6544,417.2675,481.4728,419.0757,482.3784,420.9227,483,422.6434" style="stroke:#8B0000;stroke-width:4.0;"/></g><!--link uts to oni--><g id="link_uts_oni"><path d="M304.03,237.5834 L304.2437,237.7647 L310.0338,244.7955 L317.0765,252.8893 L323.7113,260.637 L329.0048,267.2462 L336.076,275.3642 L342.1465,282.6329 L348.6152,290.2396 L355.3607,298.0812 L361.1522,305.1131 L368.8428,313.7569 L374.0643,320.305 L380.929,328.2477 L387.9941,336.3606 L393.8928,343.4835 L400.4744,351.186 L406.7975,358.6691 L413.4365,366.4203 L419.9231,374.0422 L426.7004,381.9108 L433.2121,389.554 L439.6455,397.1307 L445.6388,404.3339 L452.2762,412.0838 L458.23,419.2534 " fill="none" style="stroke:#8B0000;stroke-width:4.0;"/><polygon fill="#8B0000" points="461.96,422.6434,462.0272,422.6631,461.2717,420.7147,460.9102,418.8821,460.4204,417.0118,459.5087,415.0173,459.181,413.1947,459.1552,413.1926,458.9476,414.3108,458.8702,415.4397,458.8833,416.5758,458.5846,417.6866,458.7226,418.833,458.7375,419.0169,457.5779,418.5319,456.4619,418.5839,455.3513,418.7014,454.2097,418.4378,453.0843,418.3746,453.0942,418.3951,454.8549,419.2187,456.6604,420.1357,458.4443,421.0077,460.2695,421.9656,461.96,422.6434" style="stroke:#8B0000;stroke-width:4.0;"/></g><!--link ldaca to oni--><g id="link_ldaca_oni"><path d="M110.98,237.5234 L111.0321,237.6009 L114.4358,239.7613 L118.1449,242.3762 L121.7546,244.8431 L125.0372,246.8232 L128.7725,249.4771 L128.7537,249.4481 L130.5018,250.5074 L132.3447,251.7127 L134.2535,253.0196 L135.9352,253.9765 L137.935,255.4235 L138.066,255.6318 L139.5989,256.3264 L141.5142,257.6291 L143.4762,259.006 L145.1667,259.9511 L147,261.1234 L147.0158,261.1492 L151.0242,263.5755 L155.1045,266.1196 L159.1501,268.6068 L163.262,271.2025 L167.1578,273.4447 L167.3113,273.7004 L171.4303,276.1751 L175.4503,278.4848 L179.6152,281.036 L183.7868,283.5985 L187.7433,285.8025 L187.5803,285.5265 L192.0725,288.529 L196.0279,290.6227 L200.3915,293.4073 L204.3347,295.4805 L208.6225,298.1368 L208.6071,298.1105 L212.9961,300.8719 L217.0271,303.0185 L221.2694,305.5279 L225.5294,308.0677 L229.6614,310.3879 L229.9368,310.8698 L238.0631,315.186 L246.66,320.3255 L254.4956,324.133 L263.4667,329.9274 L271.6829,334.4008 L272.0397,335.0387 L280.1829,339.5103 L288.5032,344.2987 L296.0005,347.6154 L304.1011,352.0109 L312.7363,357.3621 L312.6033,357.1201 L320.5264,361.6254 L328.2997,365.8579 L336.2904,370.4861 L343.91,374.4388 L351.7501,378.793 L351.6776,378.6589 L358.9789,382.7665 L365.9702,386.3009 L373.182,390.2429 L380.6096,394.5839 L387.653,398.2145 L387.7442,398.3853 L394.1508,401.8891 L400.2738,404.8615 L406.752,408.4995 L413.1529,411.9924 L419.3734,415.1476 L419.2754,414.9619 L424.6469,417.9031 L429.9862,420.7834 L435.3886,423.7832 L440.5458,426.3186 L445.84,429.1134 " fill="none" style="stroke:#8B0000;stroke-width:4.0;"/><polygon fill="#8B0000" points="449.96,431.8034,450.0149,431.8469,448.629,430.1733,447.5651,428.7547,446.3963,427.2531,444.8826,425.4785,443.8463,424.0818,443.8216,424.074,444.0477,425.1194,444.3985,426.2037,444.8359,427.315,444.9746,428.3331,445.5317,429.4817,445.5867,429.6579,444.3891,429.6182,443.3521,430.0929,442.3346,430.6304,441.2032,430.8027,440.1317,431.1671,440.1332,431.1898,442.0967,431.2837,444.0669,431.481,446.0338,431.6284,448.007,431.8709,449.96,431.8034" style="stroke:#8B0000;stroke-width:4.0;"/></g><!--link ldacp to rocrate--><g id="link_ldacp_rocrate"><path d="M1071.2,800.4434 L1071.4737,800.5035 L1068.5204,810.0733 L1067.1717,819.9953 L1065.3005,829.8026 L1061.7109,839.2328 L1060.3988,849.1628 L1057.8046,858.8114 L1055.7206,868.5721 L1053.9912,878.4106 L1051.0396,887.9807 L1050.521,898.085 L1046.8392,907.4948 L1045.2624,917.3668 L1043.9425,927.2952 L1041.1283,936.8955 L1039.1889,946.6879 L1036.9184,956.4076 L1035.0525,966.2161 L1032.68,975.9134 " fill="none" style="stroke:#8B0000;stroke-width:4.0;"/><polygon fill="#8B0000" points="1031.42,980.6434,1031.4764,980.6849,1032.4757,978.9747,1033.8059,977.5078,1035.0283,975.9617,1035.8964,974.1551,1037.255,972.7091,1037.2411,972.6873,1036.2256,973.1994,1035.2805,973.8216,1034.3844,974.5202,1033.3196,974.9553,1032.491,975.7594,1032.6465,975.8589,1031.704,974.6933,1031.2154,973.8183,1030.7821,972.9787,1030.0267,971.9328,1029.4407,970.9954,1029.463,971,1029.8261,972.9229,1030.2907,974.8666,1030.7064,976.8002,1031.2154,978.753,1031.42,980.6434" style="stroke:#8B0000;stroke-width:4.0;"/></g><!--link parai to para--><g id="link_parai_para"><path d="M819.47,237.5834 L819.7502,237.5893 L818.7055,247.5856 L819.3032,257.6166 L819.3661,267.6363 L817.6701,277.6188 L818.3053,287.6506 L817.6281,297.6547 L817.4732,307.6698 L817.6814,317.6926 L816.6384,327.6888 L818.0858,337.7379 L816.2954,347.7183 L816.6597,357.7445 L817.2869,367.7761 L816.3845,377.7754 L816.3776,387.7936 L816.0319,397.8047 L816.1002,407.8245 L815.65,417.8334 " fill="none" style="stroke:#8B0000;stroke-width:4.0;"/><polygon fill="#8B0000" points="815.53,422.6434,815.5934,422.6731,816.2408,420.8011,817.26,419.1034,818.1581,417.349,818.658,415.4079,819.7092,413.7252,819.6912,413.7065,818.7948,414.4065,817.9889,415.2007,817.2459,416.0603,816.2862,416.6943,815.63,417.6444,815.7631,417.7722,814.6946,416.683,814.0148,415.967,813.3823,415.2966,812.474,414.3612,811.7108,413.5652,811.7317,413.574,812.4648,415.3767,813.2933,417.2195,814.0758,419.043,814.9461,420.9034,815.53,422.6434" style="stroke:#8B0000;stroke-width:4.0;"/></g><!--link nyi to ny--><g id="link_nyi_ny"><path d="M630.95,237.5834 L631.23,237.5953 L629.9731,247.5738 L630.3575,257.6221 L630.2074,267.6476 L628.2997,277.5986 L628.7215,287.6484 L627.8319,297.6426 L627.4641,307.6589 L627.4592,317.6906 L626.204,327.6693 L627.4375,337.7536 L625.4354,347.7005 L625.5865,357.7389 L626.0004,367.7883 L624.8857,377.773 L624.6659,387.7956 L624.1074,397.8038 L623.9628,407.8296 L623.3,417.8334 " fill="none" style="stroke:#8B0000;stroke-width:4.0;"/><polygon fill="#8B0000" points="623.05,422.6434,623.1127,422.6745,623.8029,420.8179,624.8608,419.1441,625.799,417.4107,626.3433,415.4816,627.4328,413.8234,627.4153,413.8043,626.503,414.4836,625.6791,415.2591,624.9166,416.1014,623.9425,416.7133,623.2647,417.648,623.4007,417.7728,622.345,416.6723,621.6863,415.9362,621.0761,415.2445,620.184,414.2942,619.4402,413.4799,619.4613,413.4882,620.1522,415.3087,620.9395,417.1671,621.6802,419.0072,622.5097,420.8822,623.05,422.6434" style="stroke:#8B0000;stroke-width:4.0;"/></g><!--SRC=[VL9DJyCm3BtdLvYTuD1nvu1KTI1Dx4lja412GjQQJT7IfAGUK27-EqxA8EqGxQ7fU_Qp_U8pPJRwKChd2aqBu_5bYOG9_-1ELj9Gqb2hvPZUIP0YBQzWMjNQKqZAcWRi5lByJhrAE4_TNZLaBvxCoh6iuhW6q9IGovU3Sa6l4Kvk2CrEInWTfQZJ6i57pAxIF9rCYvji1DX0ZGvLJ2zQiqDd0cdQ7dM_Bc32Sq1j7Q4E8OT-wUKyJGDkgnYUJJ3hS5tY1iMd436zjbRl5JLm2ONTqXiwwPk6MDYeJjUe7duwJOzUj2eUH_ZA4LtmeKHN3ZsQIq9_OmDunjy3aknSo6nLiRrF9byccVFmojcjql9dq9hJXQyPQHo3Gv2pcv3u4HeRXXPa7UzBi8AVs8tiTkRXW7yEsSN_z2fVFZnEYtNdcFkDywy_WU2TJPBIlfaakOOW1y9x6w6SAFWo8iI7YNvgPy8mzHljP_y97lrXPsmLuJvAyEeDeR1TVu7rgMZeAYuMkkJ-Ouod4Ly0]--></g></svg>