<?xml version="1.0" encoding="us-ascii" standalone="no"?><svg xmlns="http://www.w3.org/2000/svg" xmlns:xlink="http://www.w3.org/1999/xlink" contentStyleType="text/css" height="1116px" preserveAspectRatio="none" style="width:1507px;height:1116px;background:#FFFFFF;" version="1.1" viewBox="0 0 1507 1116" width="1507px" zoomAndPan="magnify"><defs/><g><text fill="#000000" font-family="Chalkduster" font-size="42" font-weight="bold" lengthAdjust="spacing" textLength="764" x="370" y="61.7215">3 Steps to Archival-Repositories</text><text fill="#000000" font-family="Chalkduster" font-size="42" font-weight="bold" lengthAdjust="spacing" textLength="895" x="304.5" y="115.3238">(Turn that R: drive into an `RRKive`)</text><polygon fill="#222222" points="544.0552,150.6368,542.5894,152.6397,540.8556,155.5732,538.376,157.5502,535.7703,158.6313,533.6927,158.7252,531.0224,157.3731,528.5029,156.4898,526.5905,154.6964,525.5873,152.6433,524.9924,151.0085,524.4096,148.8732,523.4636,147.0358,524.1906,145.2417,524.8275,143.2764,527.2175,141.7221,528.8991,139.7054,530.9804,139.0357,533.4547,138.459,536.6276,138.8017,538.3655,139.6213,540.3861,139.9928,542.8429,142.5099,543.6993,145.1671,544.0714,146.9802,543.65,149.9679" style="stroke:#222222;stroke-width:1.0;"/><path d="M708,168.4934 L708.5605,168.4934 L706.8951,178.8144 L708.5154,189.1355 L709.0658,199.4565 L706.0976,209.7776 L707.7928,220.0986 L706.8627,230.4197 L706.9773,240.7408 L707.8182,251.0618 L708,261.3829 L707.8795,260.7803 L704.0965,262.6654 L699.8901,262.4335 L695.9655,263.6105 L692.0753,264.9594 L688,265.3829 L687.985,265.3081 L692.0119,266.2424 L695.9944,266.955 L700.0311,267.9385 L704.0417,268.7913 L708,269.3829 L709.5618,269.3829 L709.7895,279.7039 L709.8114,290.025 L708.679,300.346 L709.2362,310.6671 L709.8726,320.9881 L706.0768,331.3092 L709.8094,341.6303 L707.2093,351.9513 L708,362.2724 L708,362.2724 L708,363.6959 L717.9464,360.9523 L727.8929,362.0897 L737.8393,364.25 L747.7857,362.1424 L757.7321,362.5532 L767.6786,363.1754 L777.625,363.3823 L787.5714,362.262 L797.5179,363.0383 L807.4643,360.7459 L817.4107,363.0307 L827.3571,363.7342 L837.3036,363.4578 L847.25,363.9071 L857.1964,360.9842 L867.1429,360.5332 L877.0893,360.6153 L887.0357,362.1154 L896.9821,361.7483 L906.9286,364.0895 L916.875,361.8066 L926.8214,361.3576 L936.7679,362.8811 L946.7143,360.4941 L956.6607,360.888 L966.6071,364.0029 L976.5536,363.4342 L986.5,364.231 L996.4464,361.4143 L1006.3929,363.1236 L1016.3393,363.8468 L1026.2857,361.0126 L1036.2321,362.0167 L1046.1786,362.6083 L1056.125,364.0104 L1066.0714,362.2612 L1076.0179,363.5059 L1085.9643,360.7956 L1095.9107,360.4664 L1105.8571,363.6153 L1115.8036,360.3605 L1125.75,363.6296 L1135.6964,362.8234 L1145.6429,361.5579 L1155.5893,361.329 L1165.5357,363.4957 L1175.4821,361.4742 L1185.4286,363.8507 L1195.375,360.7984 L1205.3214,363.9188 L1215.2679,363.5638 L1225.2143,362.9256 L1235.1607,362.3983 L1245.1071,364.21 L1255.0536,363.9086 L1265,362.2724 L1265,362.2724 L1265.4513,362.2724 L1265.7152,352.0624 L1264.6526,341.8525 L1266.9105,331.6425 L1265.413,321.4326 L1265.4602,311.2226 L1263.3777,301.0127 L1263.9194,290.8028 L1266.4153,280.5928 L1266.146,270.3829 L1264.8855,260.1729 L1264.1409,249.963 L1264.4162,239.753 L1263.1702,229.5431 L1266.106,219.3331 L1266.9722,209.1232 L1266.4037,198.9133 L1266.8532,188.7033 L1265,178.4934 L1264.9141,178.4074 L1263.0548,176.5482 L1260.7564,174.2498 L1259.1785,172.6719 L1257.1551,170.6485 L1255,168.4934 L1255,169.9664 L1245.0545,167.881 L1235.1091,168.135 L1225.1636,169.6759 L1215.2182,170.0063 L1205.2727,167.1266 L1195.3273,167.9764 L1185.3818,168.8914 L1175.4364,166.8645 L1165.4909,169.4358 L1155.5455,169.1813 L1145.6,168.2247 L1135.6545,168.8727 L1125.7091,170.4365 L1115.7636,167.659 L1105.8182,169.3333 L1095.8727,169.2551 L1085.9273,168.8021 L1075.9818,168.8692 L1066.0364,168.796 L1056.0909,166.829 L1046.1455,167.4245 L1036.2,167.2626 L1026.2545,168.6636 L1016.3091,168.7284 L1006.3636,168.9247 L996.4182,167.7174 L986.4727,168.3133 L976.5273,168.1728 L966.5818,170.0316 L956.6364,169.6309 L946.6909,167.1986 L936.7455,168.2989 L926.8,166.9541 L916.8545,169.2624 L906.9091,170.116 L896.9636,169.9455 L887.0182,167.3319 L877.0727,169.7306 L867.1273,166.5125 L857.1818,169.0271 L847.2364,167.6952 L837.2909,168.7513 L827.3455,169.1343 L817.4,169.7523 L807.4545,166.5736 L797.5091,169.7613 L787.5636,168.9685 L777.6182,169.4409 L767.6727,170.4875 L757.7273,168.508 L747.7818,168.9608 L737.8364,169.0625 L727.8909,169.0193 L717.9455,168.4912 L708,168.4934 L708,168.4934 " fill="#FFFFE0" style="stroke:#181818;stroke-width:4.0;"/><path d="M1255,168.4934 L1255.1868,168.4934 L1254.6317,170.4934 L1255.1718,172.4934 L1255.3553,174.4934 L1254.3659,176.4934 L1255,178.4934 L1255,178.4243 L1257,178.1143 L1259,178.1525 L1261,178.4328 L1263,177.8788 L1265,178.4934 L1265.348,178.8414 L1262.6038,176.0972 L1260.8757,174.3691 L1259.2715,172.7649 L1256.9461,170.4395 L1255,168.4934 " fill="#FFFFE0" style="stroke:#181818;stroke-width:4.0;"/><text fill="#000000" font-family="Chalkduster" font-size="24" lengthAdjust="spacing" textLength="220" x="714" y="197.3343">Make "Folders":</text><text fill="#000000" font-family="Chalkduster" font-size="24" lengthAdjust="spacing" textLength="389" x="714" y="227.9641">-  Manageable sized objects</text><text fill="#000000" font-family="Chalkduster" font-size="24" lengthAdjust="spacing" textLength="536" x="714" y="258.5939">-  Treat collections as metadata-only</text><text fill="#000000" font-family="Chalkduster" font-size="24" lengthAdjust="spacing" textLength="95" x="750" y="289.2238">objects</text><text fill="#000000" font-family="Chalkduster" font-size="24" lengthAdjust="spacing" textLength="413" x="714" y="319.8536">-  Common access conditions</text><text fill="#000000" font-family="Chalkduster" font-size="24" lengthAdjust="spacing" textLength="296" x="750" y="350.4834">(licensing) per object</text><polygon fill="#F1F1F1" points="392.5,224.753,392.5,224.9632,402.6071,224.3387,412.7143,224.9463,422.8214,225.1527,432.9286,224.0396,443.0357,224.6753,453.1429,224.3265,463.25,224.3695,473.3571,224.6849,483.4643,224.0617,493.5714,225.3067,503.6786,224.1228,513.7857,224.5553,523.8929,225.185,534,224.6673,544.1071,224.8213,554.2143,224.7211,564.3214,224.9316,574.4286,224.9922,584.5357,225.3387,594.6429,225.4241,604.75,225.4323,614.8571,225.0077,624.9643,225.2166,635.0714,225.4553,645.1786,224.0319,655.2857,225.4315,665.3929,224.4565,675.5,224.753,675.5681,224.9174,677.2046,225.3328,679.0268,226.1964,680.8979,227.1781,682.5649,227.667,684.3388,228.4142,684.3713,228.4276,685.1754,230.2252,685.9315,232.0028,686.5343,233.717,687.3562,235.5219,688,237.253,687.4276,237.253,688.2844,246.6296,688.5482,256.0063,688.4445,265.3829,688.613,274.7595,687.5169,284.1361,688,293.5127,687.7992,293.4295,687.0764,295.2012,686.5174,297.0407,685.7428,298.7909,685.2809,300.6707,684.3388,302.3515,684.3166,302.2977,682.5273,302.9781,680.8324,303.8863,678.9505,304.3429,677.2015,305.1206,675.5,306.0127,675.5,306.6617,665.3929,306.4484,655.2857,306.7472,645.1786,305.6909,635.0714,306.3319,624.9643,306.6031,614.8571,305.5403,604.75,305.9168,594.6429,306.1387,584.5357,306.6645,574.4286,306.0085,564.3214,306.4753,554.2143,305.4589,544.1071,305.3354,534,306.5163,523.8929,305.2958,513.7857,306.5217,503.6786,306.2193,493.5714,305.7448,483.4643,305.6589,473.3571,306.4715,463.25,305.7134,453.1429,306.6046,443.0357,305.46,432.9286,306.6301,422.8214,306.497,412.7143,306.2577,402.6071,306.0599,392.5,306.0127,392.5927,306.2365,390.8105,305.4694,388.9861,304.6004,387.2309,303.8986,385.4123,303.0437,383.6612,302.3515,383.8818,302.4429,382.9766,300.6035,382.2498,298.838,381.2771,296.9706,380.6074,295.2288,380,293.5127,380.5307,293.5127,380.4298,284.1361,379.9571,274.7595,379.6778,265.3829,379.7811,256.0063,379.3138,246.6296,380,237.253,380.1277,237.3059,380.96,235.5796,381.6266,233.7847,382.4107,232.0384,382.8868,230.1645,383.6612,228.4142,383.6723,228.4411,385.3795,227.5626,387.2329,227.0372,388.9959,226.2935,390.8027,225.6554,392.5,224.753" style="stroke:#181818;stroke-width:0.5;"/><text fill="#000000" font-family="Chalkduster" font-size="24" lengthAdjust="spacing" textLength="232" x="390" y="258.5939">1: Organize data</text><text fill="#000000" font-family="Chalkduster" font-size="24" lengthAdjust="spacing" textLength="288" x="390" y="289.2238">into "Digital Objects"</text><path d="M957.5,417.8762 L958.0605,417.8762 L956.3951,428.0652 L958.0154,438.2541 L958.5658,448.4431 L955.5976,458.632 L957.2928,468.821 L956.3627,479.0099 L956.4773,489.1989 L957.3182,499.3878 L955.6563,509.5768 L957.5,519.7657 L957.5,521.2421 L967.4615,518.085 L977.4231,519.2384 L987.3846,520.9176 L997.3462,519.537 L1007.3077,519.9477 L1017.2692,519.6805 L1027.2308,520.2418 L1037.1923,520.4034 L1047.1538,521.3276 L1057.1154,521.5552 L1067.0769,521.5771 L1077.0385,520.4447 L1087,521.002 L1096.9615,521.6384 L1106.9231,517.8426 L1116.8846,521.5751 L1126.8462,518.9751 L1136.8077,521.1892 L1146.7692,518.4457 L1156.7308,519.5831 L1166.6923,521.7434 L1176.6538,519.6358 L1186.6154,520.0465 L1196.5769,520.6687 L1206.5385,520.8757 L1216.5,519.7553 L1226.4615,520.5316 L1236.4231,518.2393 L1246.3846,520.5241 L1256.3462,521.2276 L1266.3077,520.9512 L1276.2692,521.4005 L1286.2308,518.4775 L1296.1923,518.0266 L1306.1538,518.1087 L1316.1154,519.6087 L1326.0769,519.2417 L1336.0385,521.5828 L1346,519.2999 L1355.9615,518.8509 L1365.9231,520.3745 L1375.8846,517.9875 L1385.8462,518.3814 L1395.8077,521.4963 L1405.7692,520.9275 L1415.7308,521.7244 L1425.6923,518.9076 L1435.6538,520.6169 L1445.6154,521.3402 L1455.5769,518.506 L1465.5385,519.5101 L1475.5,519.7657 L1475.836,519.7657 L1477.238,509.5558 L1475.4888,499.3458 L1476.7335,489.1359 L1474.0232,478.926 L1473.694,468.716 L1476.843,458.5061 L1473.5882,448.2961 L1476.8572,438.0862 L1475.5,427.8762 L1475.6299,428.0061 L1473.3316,425.7078 L1471.2776,423.6539 L1469.7883,422.1646 L1467.3119,419.6881 L1465.5,417.8762 L1465.5,419.4545 L1455.5392,416.4023 L1445.5784,419.5227 L1435.6176,419.1677 L1425.6569,418.5295 L1415.6961,418.0022 L1405.7353,419.8139 L1395.7745,419.5124 L1385.8137,418.3276 L1375.8529,418.5914 L1365.8922,417.5289 L1355.9314,419.7868 L1345.9706,418.2892 L1336.0098,418.3364 L1326.049,416.254 L1316.0882,416.7956 L1306.1275,419.2916 L1296.1667,419.0223 L1286.2059,417.7618 L1276.2451,417.0171 L1266.2843,417.2924 L1256.3235,416.0464 L1246.3627,418.9822 L1236.402,419.8484 L1226.4412,419.28 L1216.4804,419.7294 L1206.5196,417.5116 L1196.5588,418.1088 L1186.598,416.8426 L1176.6373,418.6337 L1166.6765,418.5343 L1156.7157,419.3493 L1146.7549,417.2638 L1136.7941,417.5178 L1126.8333,419.0588 L1116.8725,419.3891 L1106.9118,416.5095 L1096.951,417.3592 L1086.9902,418.2743 L1077.0294,416.2473 L1067.0686,418.8186 L1057.1078,418.5642 L1047.1471,417.6075 L1037.1863,418.2556 L1027.2255,419.8194 L1017.2647,417.0419 L1007.3039,418.7162 L997.3431,418.638 L987.3824,418.185 L977.4216,418.252 L967.4608,418.1788 L957.5,417.8762 " fill="#FFFFE0" style="stroke:#181818;stroke-width:4.0;"/><path d="M1465.5,417.8762 L1465.6868,417.8762 L1465.1317,419.8762 L1465.6718,421.8762 L1465.8553,423.8762 L1464.8659,425.8762 L1465.5,427.8762 L1465.5,427.8072 L1467.5,427.4971 L1469.5,427.5353 L1471.5,427.8157 L1473.5,427.2617 L1475.5,427.8762 L1475.848,428.2242 L1473.1038,425.4801 L1471.3757,423.7519 L1469.7715,422.1477 L1467.4461,419.8223 L1465.5,417.8762 " fill="#FFFFE0" style="stroke:#181818;stroke-width:4.0;"/><text fill="#000000" font-family="Chalkduster" font-size="24" lengthAdjust="spacing" textLength="497" x="963.5" y="446.7171">Oxford Common File Layout (OCFL)</text><text fill="#000000" font-family="Chalkduster" font-size="24" lengthAdjust="spacing" textLength="475" x="963.5" y="477.347">adds version control and content</text><text fill="#000000" font-family="Chalkduster" font-size="24" lengthAdjust="spacing" textLength="241" x="963.5" y="507.9768">integrity features</text><polygon fill="#F1F1F1" points="335.5,392.8762,335.5,393.0864,345.425,392.4619,355.35,393.0695,365.275,393.2759,375.2,392.1628,385.125,392.7985,395.05,392.4497,404.975,392.4927,414.9,392.8081,424.825,392.1849,434.75,393.4299,444.675,392.246,454.6,392.6785,464.525,393.3082,474.45,392.7905,484.375,392.9445,494.3,392.8443,504.225,393.0548,514.15,393.1154,524.075,393.4619,534,393.5473,543.925,393.5555,553.85,393.1309,563.775,393.3398,573.7,393.5785,583.625,392.1551,593.55,393.5547,603.475,392.5797,613.4,393.41,623.325,392.3812,633.25,392.8077,643.175,393.6178,653.1,392.8275,663.025,392.9815,672.95,393.2149,682.875,393.2925,692.8,392.8723,702.725,393.1635,712.65,392.3038,722.575,393.1606,732.5,392.8762,732.6438,392.9889,735.0166,396.0306,737.4608,399.1282,739.5732,401.9659,741.9289,404.9941,744.5,408.1912,744.337,408.0634,742.0846,411.242,739.6484,414.2767,737.4788,417.5202,734.8542,420.4072,732.5,423.5061,732.5,423.163,722.575,423.7343,712.65,422.8392,702.725,422.9869,692.8,424.155,682.875,423.9417,672.95,424.2406,663.025,423.1843,653.1,423.8253,643.175,424.0965,633.25,423.0337,623.325,423.4102,613.4,423.6321,603.475,424.1578,593.55,423.5019,583.625,423.9686,573.7,422.9523,563.775,422.8288,553.85,424.0097,543.925,422.7891,534,424.015,524.075,423.7127,514.15,423.2382,504.225,423.1523,494.3,423.9648,484.375,423.2067,474.45,424.0979,464.525,422.9533,454.6,424.1235,444.675,423.9904,434.75,423.751,424.825,423.5533,414.9,424.2327,404.975,424.1196,395.05,423.6753,385.125,423.7743,375.2,423.3758,365.275,424.2225,355.35,423.6609,345.425,423.6786,335.5,423.5061,335.3404,423.381,332.9937,420.3598,330.8393,417.4892,328.4128,414.4055,325.8887,411.2453,323.5,408.1912,323.4155,408.1249,325.8426,405.0832,328.12,401.9241,330.8088,399.0875,333.294,396.0913,335.5,392.8762" style="stroke:#181818;stroke-width:0.5;"/><text fill="#000000" font-family="Chalkduster" font-size="24" lengthAdjust="spacing" textLength="397" x="335.5" y="416.7171">Add more archival features?</text><text fill="#000000" font-family="Chalkduster" font-size="24" lengthAdjust="spacing" textLength="35" x="288.5" y="401.4022">no</text><text fill="#000000" font-family="Chalkduster" font-size="24" lengthAdjust="spacing" textLength="42" x="744.5" y="401.4022">yes</text><polygon fill="#F1F1F1" points="167.5,433.5061,167.5,433.7163,177.569,433.0918,187.6379,433.6994,197.7069,433.9058,207.7759,432.7927,217.8448,433.4284,227.9138,433.0796,237.9828,433.1226,248.0517,433.4379,258.1207,432.8147,268.1897,434.0597,278.2586,432.8758,288.3276,433.3083,298.3966,433.938,308.4655,433.4203,318.5345,433.5743,328.6034,433.4741,338.6724,433.6846,348.7414,433.7452,358.8103,434.0918,368.8793,434.1771,378.9483,434.1853,389.0172,433.7607,399.0862,433.9697,409.1552,434.2083,419.2241,432.7849,429.2931,434.1846,439.3621,433.2096,449.431,434.0399,459.5,433.5061,459.4369,433.3536,461.259,434.2172,463.1301,435.1989,464.7971,435.6878,466.5845,436.4674,468.3388,437.1672,468.4431,437.2104,469.1993,438.9881,469.8021,440.7023,470.624,442.5072,471.0915,444.1653,472,446.0061,472.0948,446.0061,472.1827,451.132,472.1482,456.258,472.2043,461.384,471.839,466.5099,472,471.6359,471.7992,471.5527,471.0764,473.3244,470.5174,475.1639,469.7428,476.9141,469.2809,478.7939,468.3388,480.4747,468.3166,480.4209,466.5273,481.1013,464.8324,482.0095,462.9505,482.4661,461.2015,483.2438,459.5,484.1359,459.5,484.7849,449.431,484.5716,439.3621,484.8704,429.2931,483.8141,419.2241,484.4551,409.1552,484.7263,399.0862,483.6635,389.0172,484.04,378.9483,484.2619,368.8793,484.7877,358.8103,484.1317,348.7414,484.5985,338.6724,483.5821,328.6034,483.4586,318.5345,484.6395,308.4655,483.419,298.3966,484.6449,288.3276,484.3425,278.2586,483.868,268.1897,483.7821,258.1207,484.5947,248.0517,483.8366,237.9828,484.7278,227.9138,483.5832,217.8448,484.7533,207.7759,484.6202,197.7069,484.3809,187.6379,484.1831,177.569,484.8625,167.5,484.1359,167.5783,484.3249,165.7538,483.4558,163.9987,482.754,162.1801,481.8991,160.5203,481.4276,158.6612,480.4747,158.7089,480.4945,157.9821,478.729,157.0094,476.8616,156.3397,475.1197,155.8957,473.4714,155,471.6359,155.1433,471.6359,154.9857,466.5099,154.8926,461.384,154.927,456.258,154.7713,451.132,155,446.0061,155.1277,446.059,155.96,444.3326,156.6266,442.5377,157.4107,440.7914,157.8868,438.9176,158.6612,437.1672,158.6723,437.1941,160.3795,436.3156,162.2329,435.7902,163.9959,435.0465,165.8027,434.4084,167.5,433.5061" style="stroke:#181818;stroke-width:0.5;"/><text fill="#000000" font-family="Chalkduster" font-size="24" lengthAdjust="spacing" textLength="297" x="165" y="467.347">1a: Stick with folders</text><polygon fill="#F1F1F1" points="594,433.5061,594,433.7163,604.0313,433.0918,614.0625,433.6994,624.0938,433.9058,634.125,432.7927,644.1563,433.4284,654.1875,433.0796,664.2188,433.1226,674.25,433.4379,684.2813,432.8147,694.3125,434.0597,704.3438,432.8758,714.375,433.3083,724.4063,433.938,734.4375,433.4203,744.4688,433.5743,754.5,433.4741,764.5313,433.6846,774.5625,433.7452,784.5938,434.0918,794.625,434.1771,804.6563,434.1853,814.6875,433.7607,824.7188,433.9697,834.75,434.2083,844.7813,432.7849,854.8125,434.1846,864.8438,433.2096,874.875,434.0399,884.9063,433.011,894.9375,433.4376,904.9688,434.2477,915,433.5061,914.9938,433.4911,916.7812,434.2707,918.5787,435.0748,920.3564,435.831,922.0706,436.4338,923.8388,437.1672,923.9273,437.2039,924.3948,438.862,925.3909,440.739,926.2044,442.5405,926.9047,444.295,927.5,446.0061,928.113,446.0061,927.0169,455.3827,926.8478,464.7593,926.8786,474.1359,927.4411,483.5125,927.3035,492.8891,927.5,502.2657,927.7098,502.3527,926.714,504.0112,925.9299,505.7575,925.3736,507.5982,924.3657,509.2517,923.8388,511.1046,923.7726,510.9447,922.1538,512.0367,920.3589,512.7032,918.6292,513.5275,916.7267,513.9344,915,514.7657,915,515.0849,904.9688,515.3562,894.9375,514.2933,884.9063,514.6699,874.875,514.8917,864.8438,515.4175,854.8125,514.7615,844.7813,515.2283,834.75,514.212,824.7188,514.0885,814.6875,515.2694,804.6563,514.0488,794.625,515.2747,784.5938,514.9724,774.5625,514.4978,764.5313,514.412,754.5,515.2245,744.4688,514.4664,734.4375,515.3576,724.4063,514.213,714.375,515.3832,704.3438,515.25,694.3125,515.0107,684.2813,514.813,674.25,515.4923,664.2188,515.3793,654.1875,514.935,644.1563,515.0339,634.125,514.6355,624.0938,515.4822,614.0625,514.9206,604.0313,514.9383,594,514.7657,593.9224,514.5784,592.1805,513.9087,590.5322,513.4647,588.7515,512.7014,586.9235,511.8236,585.1612,511.1046,585.0619,511.0635,584.3615,509.3089,583.4854,507.4815,583.0922,505.8542,582.46,504.1278,581.5,502.2657,582.0264,502.2657,582.1949,492.8891,581.3633,483.5125,581.5872,474.1359,581.1124,464.7593,581.784,455.3827,581.5,446.0061,581.576,446.0375,582.4023,444.3088,582.8937,442.4412,583.6553,440.6856,584.5655,438.9916,585.1612,437.1672,585.2335,437.342,586.8636,436.2772,588.672,435.6431,590.4835,435.0165,592.1543,434.0502,594,433.5061" style="stroke:#181818;stroke-width:0.5;"/><text fill="#000000" font-family="Chalkduster" font-size="24" lengthAdjust="spacing" textLength="326" x="591.5" y="467.347">1a: Use OCFL or similar</text><text fill="#000000" font-family="Chalkduster" font-size="24" lengthAdjust="spacing" textLength="124" x="591.5" y="497.9768">approach</text><polygon fill="#F1F1F1" points="534,520.7657,534.0495,520.8153,536.3023,523.0681,538.8456,525.6113,541.2942,528.0599,543.4319,530.1976,546,532.7657,545.9817,532.7474,543.4995,535.0652,541.1096,537.4753,538.7839,539.9497,536.237,542.2028,534,544.7657,534.1305,544.8962,531.4514,542.2172,529.1534,539.9191,526.9018,537.6675,524.3798,535.1455,522,532.7657,522.0161,532.7818,524.3925,530.3582,526.8421,528.0078,529.2564,525.6221,531.738,523.3038,534,520.7657" style="stroke:#181818;stroke-width:0.5;"/><path d="M20,595.3956 L20.5605,595.3956 L18.8951,605.5894 L20.5154,615.7832 L21.0658,625.977 L18.0976,636.1708 L19.7928,646.3645 L18.8627,656.5583 L18.9773,666.7521 L19.8182,676.9459 L18.1563,687.1397 L21.4764,697.3335 L18.3193,707.5273 L19.4726,717.7211 L20,727.9149 L20,729.0668 L29.9474,727.6862 L39.8947,728.0969 L49.8421,727.8297 L59.7895,728.391 L69.7368,728.5526 L79.6842,729.4767 L89.6316,729.7044 L99.5789,729.7263 L109.5263,728.5939 L119.4737,729.1511 L129.4211,729.7875 L139.3684,725.9917 L149.3158,729.7243 L159.2632,727.1242 L169.2105,729.3384 L179.1579,726.5948 L189.1053,727.7322 L199.0526,729.8925 L209,727.7849 L218.9474,728.1957 L228.8947,728.8179 L238.8421,729.0249 L248.7895,727.9045 L258.7368,728.6808 L268.6842,726.3885 L278.6316,728.6733 L288.5789,729.3768 L298.5263,729.1003 L308.4737,729.5496 L318.4211,726.6267 L328.3684,726.1757 L338.3158,726.2578 L348.2632,727.7579 L358.2105,727.3908 L368.1579,729.732 L378.1053,727.4491 L388.0526,727.0001 L398,727.9149 L398.6087,727.9149 L396.2218,717.705 L396.6157,707.495 L399.7305,697.2851 L399.1618,687.0751 L399.9586,676.8652 L397.1419,666.6552 L398.8512,656.4453 L399.5745,646.2353 L396.7403,636.0254 L397.7444,625.8155 L398.336,615.6055 L398,605.3956 L398.4097,605.8052 L395.9974,603.3929 L394.2907,601.6863 L391.6519,599.0475 L389.5743,596.9699 L388,595.3956 L388,596.7385 L378.0541,593.4837 L368.1081,596.7528 L358.1622,595.9466 L348.2162,594.6811 L338.2703,594.4522 L328.3243,596.6189 L318.3784,594.5974 L308.4324,596.9739 L298.4865,593.9216 L288.5405,597.042 L278.5946,596.687 L268.6486,596.0488 L258.7027,595.5215 L248.7568,597.3332 L238.8108,597.0318 L228.8649,595.8469 L218.9189,596.1107 L208.973,595.0482 L199.027,597.3061 L189.0811,595.8085 L179.1351,595.8558 L169.1892,593.7733 L159.2432,594.315 L149.2973,596.8109 L139.3514,596.5416 L129.4054,595.2811 L119.4595,594.5365 L109.5135,594.8118 L99.5676,593.5658 L89.6216,596.5015 L79.6757,597.3677 L69.7297,596.7993 L59.7838,597.2487 L49.8378,595.031 L39.8919,595.6282 L29.9459,594.362 L20,595.3956 " fill="#FFFFE0" style="stroke:#181818;stroke-width:4.0;"/><path d="M388,595.3956 L388.1868,595.3956 L387.6317,597.3956 L388.1718,599.3956 L388.3553,601.3956 L387.3659,603.3956 L388,605.3956 L388,605.3265 L390,605.0165 L392,605.0547 L394,605.335 L396,604.781 L398,605.3956 L398.348,605.7436 L395.6038,602.9994 L393.8757,601.2713 L392.2715,599.6671 L389.9461,597.3417 L388,595.3956 " fill="#FFFFE0" style="stroke:#181818;stroke-width:4.0;"/><text fill="#000000" font-family="Chalkduster" font-size="24" lengthAdjust="spacing" textLength="357" x="26" y="624.2365">RO-Crate metadata tools:</text><text fill="#000000" font-family="Chalkduster" font-size="24" lengthAdjust="spacing" textLength="111" x="26" y="654.8663">- Forms</text><text fill="#000000" font-family="Chalkduster" font-size="24" lengthAdjust="spacing" textLength="198" x="26" y="685.4961">- Spreadsheets</text><text fill="#000000" font-family="Chalkduster" font-size="24" lengthAdjust="spacing" textLength="348" x="26" y="716.126">- Batch crosswalk scripts</text><path d="M670,564.7657 L670.5605,564.7657 L668.8951,574.9646 L670.5154,585.1635 L671.0658,595.3624 L668.0976,605.5613 L669.7928,615.7602 L668.8627,625.9591 L668.9773,636.158 L669.8182,646.3569 L668.1563,656.5558 L671.4764,666.7547 L668.3193,676.9536 L669.4726,687.1525 L671.1519,697.3514 L669.7713,707.5503 L670.182,717.7492 L669.9148,727.9481 L670.4761,738.1469 L670.6377,748.3458 L670,758.5447 L670,760.1066 L680.0196,760.3342 L690.0392,760.3561 L700.0588,759.2237 L710.0784,759.781 L720.098,760.4174 L730.1176,756.6216 L740.1373,760.3541 L750.1569,757.7541 L760.1765,759.9682 L770.1961,757.2247 L780.2157,758.3621 L790.2353,760.5224 L800.2549,758.4148 L810.2745,758.8255 L820.2941,759.4477 L830.3137,759.6547 L840.3333,758.5343 L850.3529,759.3106 L860.3725,757.0183 L870.3922,759.3031 L880.4118,760.0066 L890.4314,759.7302 L900.451,760.1795 L910.4706,757.2565 L920.4902,756.8056 L930.5098,756.8877 L940.5294,758.3877 L950.549,758.0207 L960.5686,760.3618 L970.5882,758.0789 L980.6078,757.6299 L990.6275,759.1535 L1000.6471,756.7665 L1010.6667,757.1604 L1020.6863,760.2753 L1030.7059,759.7065 L1040.7255,760.5034 L1050.7451,757.6866 L1060.7647,759.3959 L1070.7843,760.1192 L1080.8039,757.285 L1090.8235,758.2891 L1100.8431,758.8807 L1110.8627,760.2828 L1120.8824,758.5336 L1130.902,759.7783 L1140.9216,757.068 L1150.9412,756.7387 L1160.9608,759.8877 L1170.9804,756.6329 L1181,758.5447 L1182.3572,758.5447 L1181.551,748.3348 L1180.2856,738.1248 L1180.0566,727.9149 L1182.2234,717.705 L1180.2018,707.495 L1182.5783,697.2851 L1179.526,687.0751 L1182.6465,676.8652 L1182.2915,666.6552 L1181.6532,656.4453 L1181.1259,646.2353 L1182.9376,636.0254 L1182.6362,625.8155 L1181.4513,615.6055 L1181.7152,605.3956 L1180.6526,595.1856 L1182.9105,584.9757 L1181,574.7657 L1181.0973,574.8631 L1179.1085,572.8742 L1176.6176,570.3834 L1174.7453,568.511 L1173.3336,567.0993 L1171,564.7657 L1171,565.9118 L1160.98,564.6513 L1150.96,563.9066 L1140.94,564.1819 L1130.92,562.9359 L1120.9,565.8717 L1110.88,566.7379 L1100.86,566.1695 L1090.84,566.6189 L1080.82,564.4011 L1070.8,564.9983 L1060.78,563.7321 L1050.76,565.5232 L1040.74,565.4238 L1030.72,566.2388 L1020.7,564.1533 L1010.68,564.4073 L1000.66,565.9483 L990.64,566.2786 L980.62,563.399 L970.6,564.2487 L960.58,565.1638 L950.56,563.1368 L940.54,565.7081 L930.52,565.4537 L920.5,564.497 L910.48,565.1451 L900.46,566.7089 L890.44,563.9314 L880.42,565.6057 L870.4,565.5275 L860.38,565.0745 L850.36,565.1415 L840.34,565.0683 L830.32,563.1013 L820.3,563.6969 L810.28,563.535 L800.26,564.9359 L790.24,565.0007 L780.22,565.1971 L770.2,563.9898 L760.18,564.5857 L750.16,564.4452 L740.14,566.304 L730.12,565.9032 L720.1,563.471 L710.08,564.5713 L700.06,563.2265 L690.04,565.5348 L680.02,566.3884 L670,564.7657 " fill="#FFFFE0" style="stroke:#181818;stroke-width:4.0;"/><path d="M1171,564.7657 L1171.1868,564.7657 L1170.6317,566.7657 L1171.1718,568.7657 L1171.3553,570.7657 L1170.3659,572.7657 L1171,574.7657 L1171,574.6967 L1173,574.3866 L1175,574.4248 L1177,574.7052 L1179,574.1512 L1181,574.7657 L1181.348,575.1137 L1178.6038,572.3696 L1176.8757,570.6414 L1175.2715,569.0372 L1172.9461,566.7118 L1171,564.7657 " fill="#FFFFE0" style="stroke:#181818;stroke-width:4.0;"/><text fill="#000000" font-family="Chalkduster" font-size="24" lengthAdjust="spacing" textLength="126" x="676" y="593.6066">- License</text><text fill="#000000" font-family="Chalkduster" font-size="24" lengthAdjust="spacing" textLength="315" x="676" y="624.2365">- Assign IDs (DOIs etc)</text><text fill="#000000" font-family="Chalkduster" font-size="24" lengthAdjust="spacing" textLength="478" x="676" y="654.8663">- Object&lt;-&gt;Collection relationships</text><text fill="#000000" font-family="Chalkduster" font-size="24" lengthAdjust="spacing" textLength="253" x="676" y="685.4961">- Who, what where</text><text fill="#000000" font-family="Chalkduster" font-size="24" lengthAdjust="spacing" textLength="257" x="676" y="716.126">- File descriptions</text><text fill="#000000" font-family="Chalkduster" font-size="24" lengthAdjust="spacing" textLength="187" x="676" y="746.7558">- Provenance</text><polygon fill="#F1F1F1" points="420.5,621.0254,420.5,621.2356,430.3696,620.6111,440.2391,621.2187,450.1087,621.4251,459.9783,620.312,469.8478,620.9477,479.7174,620.5989,489.587,620.6419,499.4565,620.9572,509.3261,620.334,519.1957,621.579,529.0652,620.3951,538.9348,620.8276,548.8043,621.4574,558.6739,620.9396,568.5435,621.0936,578.413,620.9935,588.2826,621.2039,598.1522,621.2645,608.0217,621.6111,617.8913,621.6965,627.7609,621.7047,637.6304,621.28,647.5,621.0254,647.5591,621.1682,649.3573,621.9739,650.9435,622.2678,652.8899,623.4311,654.5332,623.863,656.3388,624.6866,656.5032,624.7547,656.9186,626.3912,657.7822,628.2134,658.7639,630.0845,659.2528,631.7514,660,633.5254,660.1053,633.5254,660.3386,642.902,660.4162,652.2786,659.9961,661.6552,660.2872,671.0318,659.4276,680.4085,660,689.7851,660.0876,689.8213,659.4366,691.6228,658.6724,693.3773,657.9921,695.1666,656.9223,696.7945,656.3388,698.6239,656.2556,698.4231,654.4918,699.1648,652.7958,700.0702,651.0105,700.7601,649.3547,701.7627,647.5,702.2851,647.5,702.1104,637.6304,701.942,627.7609,702.5133,617.8913,701.6182,608.0217,701.7659,598.1522,702.934,588.2826,702.7207,578.413,703.0196,568.5435,701.9633,558.6739,702.6043,548.8043,702.8755,538.9348,701.8127,529.0652,702.1892,519.1957,702.4111,509.3261,702.9368,499.4565,702.2809,489.587,702.7476,479.7174,701.7313,469.8478,701.6078,459.9783,702.7887,450.1087,701.5681,440.2391,702.794,430.3696,702.4917,420.5,702.2851,420.4658,702.2026,418.6871,701.4439,417.023,700.9619,415.1585,699.9962,413.5044,699.5384,411.6612,698.6239,411.4909,698.5534,411.1191,696.9349,410.3458,695.1501,409.5399,693.3519,408.7468,691.5589,408,689.7851,408.7266,689.7851,408.6136,680.4085,408.1693,671.0318,408.2682,661.6552,407.8697,652.2786,408.7165,642.902,408,633.5254,408.0477,633.5452,408.7854,631.7797,409.2771,629.9123,410.0719,628.1704,411.0924,626.522,411.6612,624.6866,411.716,624.8189,413.4235,623.9411,415.1556,623.1229,416.9365,622.4224,418.6447,621.5463,420.5,621.0254" style="stroke:#181818;stroke-width:0.5;"/><text fill="#000000" font-family="Chalkduster" font-size="24" lengthAdjust="spacing" textLength="232" x="418" y="654.8663">2: Add metadata</text><text fill="#000000" font-family="Chalkduster" font-size="24" lengthAdjust="spacing" textLength="212" x="418" y="685.4961">for each object</text><path d="M782,808.8597 L782.1868,808.8597 L781.6317,812.1226 L782.1718,815.3856 L782.3553,818.6486 L781.3659,821.9116 L782,825.1746 L781.9865,825.1068 L777.9257,825.6028 L773.9331,826.4403 L769.9881,827.5152 L765.8795,827.772 L762,829.1746 L762.0965,829.6571 L765.8901,829.4252 L769.9655,830.6022 L774.0753,831.9511 L777.985,832.2998 L782,833.1746 L782.0607,833.1746 L781.9716,836.4376 L782.1587,839.7005 L782.2126,842.9635 L782.5206,846.2265 L782,849.4895 L782,849.4895 L782,851.279 L792.0179,851.3008 L802.0357,850.1685 L812.0536,850.7257 L822.0714,851.3621 L832.0893,847.5663 L842.1071,851.2988 L852.125,848.6988 L862.1429,850.913 L872.1607,848.1694 L882.1786,849.3068 L892.1964,851.4671 L902.2143,849.3595 L912.2321,849.7703 L922.25,850.3925 L932.2679,850.5994 L942.2857,849.4791 L952.3036,850.2554 L962.3214,847.963 L972.3393,850.2479 L982.3571,850.9513 L992.375,850.6749 L1002.3929,851.1242 L1012.4107,848.2013 L1022.4286,847.7503 L1032.4464,847.8324 L1042.4643,849.3325 L1052.4821,848.9654 L1062.5,851.3066 L1072.5179,849.0237 L1082.5357,848.5747 L1092.5536,850.0982 L1102.5714,847.7112 L1112.5893,848.1052 L1122.6071,851.22 L1132.625,850.6513 L1142.6429,851.4481 L1152.6607,848.6314 L1162.6786,850.3407 L1172.6964,851.0639 L1182.7143,848.2297 L1192.7321,849.2339 L1202.75,849.8254 L1212.7679,851.2275 L1222.7857,849.4783 L1232.8036,850.723 L1242.8214,848.0127 L1252.8393,847.6835 L1262.8571,850.8325 L1272.875,847.5776 L1282.8929,850.8467 L1292.9107,850.0405 L1302.9286,848.775 L1312.9464,848.5461 L1322.9643,850.7128 L1332.9821,848.6913 L1343,849.4895 L1343,849.4895 L1343.5261,849.4895 L1342.5087,843.3635 L1343.5488,837.2376 L1343.4305,831.1116 L1343.2177,824.9856 L1343,818.8597 L1343.0297,818.8893 L1341.4567,817.3164 L1339.3857,815.2453 L1337.1064,812.966 L1335.1686,811.0282 L1333,808.8597 L1333,808.5123 L1322.9818,810.7702 L1312.9636,809.2726 L1302.9455,809.3198 L1292.9273,807.2374 L1282.9091,807.7791 L1272.8909,810.275 L1262.8727,810.0057 L1252.8545,808.7452 L1242.8364,808.0005 L1232.8182,808.2758 L1222.8,807.0299 L1212.7818,809.9656 L1202.7636,810.8318 L1192.7455,810.2634 L1182.7273,810.7128 L1172.7091,808.495 L1162.6909,809.0922 L1152.6727,807.8261 L1142.6545,809.6171 L1132.6364,809.5177 L1122.6182,810.3327 L1112.6,808.2472 L1102.5818,808.5012 L1092.5636,810.0422 L1082.5455,810.3725 L1072.5273,807.4929 L1062.5091,808.3426 L1052.4909,809.2577 L1042.4727,807.2307 L1032.4545,809.802 L1022.4364,809.5476 L1012.4182,808.591 L1002.4,809.239 L992.3818,810.8028 L982.3636,808.0253 L972.3455,809.6996 L962.3273,809.6214 L952.3091,809.1684 L942.2909,809.2354 L932.2727,809.1623 L922.2545,807.1952 L912.2364,807.7908 L902.2182,807.6289 L892.2,809.0299 L882.1818,809.0947 L872.1636,809.291 L862.1455,808.0837 L852.1273,808.6796 L842.1091,808.5391 L832.0909,810.3979 L822.0727,809.9972 L812.0545,807.5649 L802.0364,808.6652 L792.0182,807.3204 L782,808.8597 L782,808.8597 " fill="#FFFFE0" style="stroke:#181818;stroke-width:4.0;"/><path d="M1333,808.8597 L1333.1868,808.8597 L1332.6317,810.8597 L1333.1718,812.8597 L1333.3553,814.8597 L1332.3659,816.8597 L1333,818.8597 L1333,818.7906 L1335,818.4805 L1337,818.5188 L1339,818.7991 L1341,818.2451 L1343,818.8597 L1343.348,819.2076 L1340.6038,816.4635 L1338.8757,814.7353 L1337.2715,813.1311 L1334.9461,810.8057 L1333,808.8597 " fill="#FFFFE0" style="stroke:#181818;stroke-width:4.0;"/><text fill="#000000" font-family="Chalkduster" font-size="24" lengthAdjust="spacing" textLength="540" x="788" y="837.7005">Ready for institutional storage service</text><polygon fill="#F1F1F1" points="318.5,788.5447,318.5,788.7549,328.5233,788.1304,338.5465,788.738,348.5698,788.9444,358.593,787.8313,368.6163,788.467,378.6395,788.1182,388.6628,788.1612,398.686,788.4766,408.7093,787.8534,418.7326,789.0984,428.7558,787.9145,438.7791,788.347,448.8023,788.9767,458.8256,788.459,468.8488,788.613,478.8721,788.5128,488.8953,788.7233,498.9186,788.7839,508.9419,789.1304,518.9651,789.2158,528.9884,789.224,539.0116,788.7994,549.0349,789.0083,559.0581,789.247,569.0814,787.8236,579.1047,789.2232,589.1279,788.2482,599.1512,789.0785,609.1744,788.0497,619.1977,788.4762,629.2209,789.2863,639.2442,788.496,649.2674,788.65,659.2907,788.8834,669.314,788.961,679.3372,788.5408,689.3605,788.832,699.3837,787.9723,709.407,788.8291,719.4302,789.0929,729.4535,788.9893,739.4767,789.1578,749.5,788.5447,749.4384,788.396,751.1846,789.0761,752.9563,789.8178,754.7958,790.7233,756.546,791.4131,758.3388,792.2059,758.5487,792.2928,759.0173,793.9514,759.6977,795.6977,760.6058,797.5383,761.0624,799.1919,762,801.0447,761.4809,801.0447,762.649,810.4213,762.4357,819.798,762.7345,829.1746,761.6782,838.5512,762.3192,847.9278,762,857.3044,762.1818,857.3797,761.1223,859.0119,760.506,860.8277,759.8421,862.6238,759.2718,864.4586,758.3388,866.1432,758.3383,866.1419,756.6301,867.0179,754.7327,867.4372,752.9491,868.1314,751.332,869.2273,749.5,869.8044,749.5,869.0875,739.4767,870.3134,729.4535,870.011,719.4302,869.5365,709.407,869.4506,699.3837,870.2632,689.3605,869.5051,679.3372,870.3963,669.314,869.2517,659.2907,870.4218,649.2674,870.2887,639.2442,870.0494,629.2209,869.8516,619.1977,870.531,609.1744,870.418,599.1512,869.9737,589.1279,870.0726,579.1047,869.6741,569.0814,870.5209,559.0581,869.9593,549.0349,869.977,539.0116,869.1961,528.9884,869.3992,518.9651,870.3352,508.9419,870.2342,498.9186,869.7615,488.8953,869.4822,478.8721,869.5855,468.8488,869.1182,458.8256,870.2191,448.8023,870.544,438.7791,870.3308,428.7558,870.4993,418.7326,869.6677,408.7093,869.8916,398.686,869.4168,388.6628,870.0884,378.6395,870.0512,368.6163,870.3568,358.593,869.5747,348.5698,869.67,338.5465,870.2479,328.5233,870.3717,318.5,869.8044,318.4346,869.6466,316.7075,869.0125,314.9835,868.3859,313.1188,867.4196,311.474,866.9843,309.6612,866.1432,309.7406,866.1761,308.8979,864.3626,308.2405,862.6258,307.6889,860.9329,306.6359,859.0323,306,857.3044,306.315,857.3044,306.2856,847.9278,306.1158,838.5512,306.1409,829.1746,306.1135,819.798,305.3758,810.4213,306,801.0447,305.8766,800.9936,306.5901,799.2181,307.4841,797.5173,308.2238,795.7527,308.9787,793.9943,309.6612,792.2059,309.624,792.1163,311.4203,791.4529,313.1814,790.7044,315.0381,790.1869,316.7866,789.4083,318.5,788.5447" style="stroke:#181818;stroke-width:0.5;"/><text fill="#000000" font-family="Chalkduster" font-size="24" lengthAdjust="spacing" textLength="436" x="316" y="822.3856">&#127881; Archival-Repository ready &#127881;</text><text fill="#000000" font-family="Chalkduster" font-size="24" lengthAdjust="spacing" textLength="211" x="412" y="853.0155">status achieved</text><path d="M817,880.0934 L817.5605,880.0934 L815.8951,889.9301 L817.5154,899.7669 L818.0658,909.6036 L815.0976,919.4404 L816.7928,929.2772 L815.8627,939.1139 L815.9773,948.9507 L816.8182,958.7875 L815.1563,968.6242 L818.4764,978.461 L817,988.2978 L816.8901,987.7484 L812.9655,988.9254 L809.0753,990.2743 L804.985,990.623 L801.0119,991.5572 L797,992.2978 L796.9944,992.2699 L801.0311,993.2534 L805.0417,994.1062 L809.1021,995.2083 L813.117,996.0827 L817,996.2978 L818.8114,996.2978 L817.679,1006.1345 L818.2362,1015.9713 L818.8726,1025.8081 L815.0768,1035.6448 L818.8094,1045.4816 L816.2093,1055.3184 L818.4235,1065.1551 L815.6799,1074.9919 L816.8173,1084.8287 L818.9776,1094.6654 L817,1104.5022 L817,1104.5022 L817,1104.3722 L826.9706,1104.783 L836.9412,1105.4052 L846.9118,1105.6121 L856.8824,1104.4918 L866.8529,1105.2681 L876.8235,1102.9757 L886.7941,1105.2606 L896.7647,1105.964 L906.7353,1105.6876 L916.7059,1106.1369 L926.6765,1103.214 L936.6471,1102.763 L946.6176,1102.8451 L956.5882,1104.3452 L966.5588,1103.9781 L976.5294,1106.3193 L986.5,1104.0364 L996.4706,1103.5874 L1006.4412,1105.1109 L1016.4118,1102.7239 L1026.3824,1103.1179 L1036.3529,1106.2327 L1046.3235,1105.664 L1056.2941,1106.4608 L1066.2647,1103.6441 L1076.2353,1105.3534 L1086.2059,1106.0766 L1096.1765,1103.2424 L1106.1471,1104.2466 L1116.1176,1104.8381 L1126.0882,1106.2402 L1136.0588,1104.491 L1146.0294,1105.7357 L1156,1103.0254 L1165.9706,1102.6962 L1175.9412,1105.8452 L1185.9118,1102.5903 L1195.8824,1105.8594 L1205.8529,1105.0532 L1215.8235,1103.7877 L1225.7941,1103.5588 L1235.7647,1105.7255 L1245.7353,1103.704 L1255.7059,1106.0805 L1265.6765,1103.0282 L1275.6471,1106.1487 L1285.6176,1105.7937 L1295.5882,1105.1554 L1305.5588,1104.6281 L1315.5294,1106.4398 L1325.5,1106.1384 L1335.4706,1104.9535 L1345.4412,1105.2174 L1355.4118,1104.1548 L1365.3824,1106.4127 L1375.3529,1104.9152 L1385.3235,1104.9624 L1395.2941,1102.8799 L1405.2647,1103.4216 L1415.2353,1105.9175 L1425.2059,1105.6482 L1435.1765,1104.3877 L1445.1471,1103.6431 L1455.1176,1103.9184 L1465.0882,1102.6724 L1475.0588,1105.6082 L1485.0294,1106.4744 L1495,1104.5022 L1495,1104.5022 L1496.4037,1104.5022 L1496.8532,1094.2922 L1494.6354,1084.0823 L1495.2326,1073.8724 L1493.9664,1063.6624 L1495.7574,1053.4525 L1495.658,1043.2425 L1496.473,1033.0326 L1494.3876,1022.8226 L1494.6416,1012.6127 L1496.1826,1002.4027 L1496.5129,992.1928 L1493.6332,981.9829 L1494.483,971.7729 L1495.398,961.563 L1493.3711,951.353 L1495.9424,941.1431 L1495.688,930.9331 L1494.7313,920.7232 L1495.3793,910.5132 L1496.9431,900.3033 L1495,890.0934 L1494.8033,889.8967 L1493.198,888.2913 L1491.1795,886.2729 L1489.0728,884.1661 L1487.0886,882.1819 L1485,880.0934 L1485,880.396 L1475.0299,878.4289 L1465.0597,879.0245 L1455.0896,878.8626 L1445.1194,880.2636 L1435.1493,880.3284 L1425.1791,880.5247 L1415.209,879.3174 L1405.2388,879.9133 L1395.2687,879.7728 L1385.2985,881.6316 L1375.3284,881.2309 L1365.3582,878.7986 L1355.3881,879.8989 L1345.4179,878.5541 L1335.4478,880.8624 L1325.4776,881.716 L1315.5075,881.5455 L1305.5373,878.9319 L1295.5672,881.3306 L1285.597,878.1125 L1275.6269,880.6271 L1265.6567,879.2952 L1255.6866,880.3513 L1245.7164,880.7342 L1235.7463,881.3523 L1225.7761,878.1736 L1215.806,881.3613 L1205.8358,880.5685 L1195.8657,881.0409 L1185.8955,882.0875 L1175.9254,880.108 L1165.9552,880.5607 L1155.9851,880.6625 L1146.0149,880.6193 L1136.0448,880.0912 L1126.0746,881.9886 L1116.1045,878.4674 L1106.1343,881.6008 L1096.1642,878.4293 L1086.194,878.6525 L1076.2239,880.2001 L1066.2537,880.1688 L1056.2836,878.7791 L1046.3134,881.1966 L1036.3433,880.3836 L1026.3731,882.0311 L1016.403,881.8723 L1006.4328,878.898 L996.4627,879.0322 L986.4925,879.7489 L976.5224,881.0414 L966.5522,881.168 L956.5821,880.8964 L946.6119,879.1815 L936.6418,881.7903 L926.6716,881.7835 L916.7015,879.9673 L906.7313,879.4559 L896.7612,879.023 L886.791,879.5211 L876.8209,880.4598 L866.8507,879.911 L856.8806,878.9792 L846.9104,881.393 L836.9403,878.8695 L826.9701,881.433 L817,880.0934 L817,880.0934 " fill="#FFFFE0" style="stroke:#181818;stroke-width:4.0;"/><path d="M1485,880.0934 L1485.1868,880.0934 L1484.6317,882.0934 L1485.1718,884.0934 L1485.3553,886.0934 L1484.3659,888.0934 L1485,890.0934 L1485,890.0243 L1487,889.7142 L1489,889.7525 L1491,890.0328 L1493,889.4788 L1495,890.0934 L1495.348,890.4413 L1492.6038,887.6972 L1490.8757,885.969 L1489.2715,884.3648 L1486.9461,882.0394 L1485,880.0934 " fill="#FFFFE0" style="stroke:#181818;stroke-width:4.0;"/><text fill="#000000" font-family="Chalkduster" font-size="24" lengthAdjust="spacing" textLength="657" x="823" y="908.9342">Choose according to your means/requirements:</text><text fill="#000000" font-family="Chalkduster" font-size="24" lengthAdjust="spacing" textLength="527" x="823" y="939.5641">- Simple spreadsheet based summaries</text><text fill="#000000" font-family="Chalkduster" font-size="24" lengthAdjust="spacing" textLength="435" x="823" y="970.1939">- Portable database catalogues</text><text fill="#000000" font-family="Chalkduster" font-size="24" lengthAdjust="spacing" textLength="640" x="823" y="1000.8237">- Access controlled API with license manager</text><text fill="#000000" font-family="Chalkduster" font-size="24" lengthAdjust="spacing" textLength="641" x="823" y="1031.4536">- Full search features a la LDaCA/PARADISEC</text><text fill="#000000" font-family="Chalkduster" font-size="24" lengthAdjust="spacing" textLength="403" x="823" y="1062.0834">- IDN-style "Data Catalogue"</text><text fill="#000000" font-family="Chalkduster" font-size="24" lengthAdjust="spacing" textLength="239" x="823" y="1092.7132">- More coming ...</text><polygon fill="#F1F1F1" points="283.5,966.9829,283.5,967.193,293.52,966.5685,303.54,967.1761,313.56,967.3825,323.58,966.2695,333.6,966.9051,343.62,966.5564,353.64,966.5994,363.66,966.9147,373.68,966.2915,383.7,967.5365,393.72,966.3526,403.74,966.7851,413.76,967.4148,423.78,966.8971,433.8,967.0511,443.82,966.9509,453.84,967.1614,463.86,967.222,473.88,967.5685,483.9,967.6539,493.92,967.6621,503.94,967.2375,513.96,967.4464,523.98,967.6851,534,966.2617,544.02,967.6614,554.04,966.6863,564.06,967.5167,574.08,966.4878,584.1,966.9144,594.12,967.7245,604.14,966.9341,614.16,967.0882,624.18,967.3215,634.2,967.3991,644.22,966.9789,654.24,967.2701,664.26,966.4104,674.28,967.2672,684.3,967.531,694.32,967.4274,704.34,967.5959,714.36,966.4998,724.38,966.3307,734.4,966.3615,744.42,966.924,754.44,966.7863,764.46,967.6643,774.48,966.8082,784.5,966.9829,784.4562,966.8772,786.2969,967.7854,787.9505,968.242,789.7371,969.0197,791.6538,970.1116,793.3388,970.644,793.473,970.6996,794.2973,972.5055,794.7042,974.1385,795.6338,975.988,796.4496,977.7904,797,979.4829,796.8425,979.4829,796.968,984.6088,797.042,989.7348,797.2173,994.8608,796.9986,999.9867,797,1005.1127,797.1425,1005.1717,796.0972,1006.8098,795.327,1008.5618,794.9584,1010.4802,793.8503,1012.0923,793.3388,1013.9515,793.4038,1014.1083,791.5974,1014.7474,789.7691,1015.3335,787.9904,1016.0393,786.3263,1017.0217,784.5,1017.6127,784.5,1017.3134,774.48,1018.2045,764.46,1017.0599,754.44,1018.2301,744.42,1018.097,734.4,1017.8577,724.38,1017.6599,714.36,1018.3393,704.34,1018.2263,694.32,1017.7819,684.3,1017.8809,674.28,1017.4824,664.26,1018.3291,654.24,1017.7676,644.22,1017.7853,634.2,1017.0043,624.18,1017.2075,614.16,1018.1434,604.14,1018.0424,594.12,1017.5698,584.1,1017.2905,574.08,1017.3938,564.06,1016.9265,554.04,1018.0274,544.02,1018.3523,534,1018.1391,523.98,1018.3076,513.96,1017.476,503.94,1017.6999,493.92,1017.2251,483.9,1017.8967,473.88,1017.8595,463.86,1018.1651,453.84,1017.383,443.82,1017.4783,433.8,1018.0561,423.78,1018.18,413.76,1017.1002,403.74,1017.4188,393.72,1017.7619,383.7,1017.0018,373.68,1017.9661,363.66,1017.8707,353.64,1017.5119,343.62,1017.7549,333.6,1018.3414,323.58,1017.2998,313.56,1017.9277,303.54,1017.8983,293.52,1017.7285,283.5,1017.6127,283.518,1017.6561,281.7467,1016.9154,279.8848,1015.956,278.1456,1015.2926,276.3701,1014.5416,274.6612,1013.9515,274.6808,1013.9597,273.9561,1012.195,273.2465,1010.4366,272.3749,1008.6111,271.7114,1006.8718,271,1005.1127,270.9599,1005.1127,271.1923,999.9867,271.1422,994.8608,270.8382,989.7348,270.9757,984.6088,271,979.4829,270.8222,979.4092,271.821,977.7519,272.6519,976.0249,273.3644,974.249,273.7948,972.3562,274.6612,970.644,274.7203,970.7869,276.3342,969.683,278.2222,969.2412,279.9263,968.3551,281.7446,967.7449,283.5,966.9829" style="stroke:#181818;stroke-width:0.5;"/><text fill="#000000" font-family="Chalkduster" font-size="24" lengthAdjust="spacing" textLength="506" x="281" y="1000.8237">3: Index and catalogue the `RRKive`</text><path d="M534,158.2044 L534.2802,158.2044 L533.4476,167.7114 L534.2577,177.2183 L534.5329,186.7253 L533.0488,196.2322 L533.8964,205.7391 L533.4313,215.2461 L534,224.753 " fill="#8B0000" style="stroke:#8B0000;stroke-width:4.0;"/><polygon fill="#8B0000" points="530,214.753,530.065,214.7791,530.6718,216.7017,531.6598,218.777,532.5237,220.8025,532.9792,222.6647,534,224.753,533.9759,224.7434,534.668,222.7002,535.4813,220.7056,536.3789,218.7446,536.986,216.6674,538,214.753,538.1305,214.8835,537.0514,215.4045,536.3534,216.3064,535.7018,217.2548,534.7798,217.9328,534,218.753,534.0161,218.7691,533.1925,217.9455,532.4421,217.1951,531.6564,216.4094,530.938,215.6911,530,214.753" style="stroke:#8B0000;stroke-width:1.0;"/><path d="M323.5,408.1912 L323.5,408.2846 L321.5,408.007 L319.5,408.2771 L317.5,408.3688 L315.5,407.8741 L313.5,408.1912 " fill="#8B0000" style="stroke:#8B0000;stroke-width:4.0;"/><path d="M313.5,408.1912 L313.5934,408.1912 L313.3159,413.2541 L313.5859,418.3171 L313.6776,423.3801 L313.1829,428.4431 L313.5,433.5061 " fill="#8B0000" style="stroke:#8B0000;stroke-width:4.0;"/><polygon fill="#8B0000" points="309.5,423.5061,309.565,423.5321,310.1718,425.4548,311.1598,427.53,312.0237,429.5556,312.4792,431.4178,313.5,433.5061,313.4759,433.4965,314.168,431.4533,314.9813,429.4586,315.8789,427.4976,316.486,425.4205,317.5,423.5061,317.6305,423.6366,316.5514,424.1575,315.8534,425.0595,315.2018,426.0079,314.2798,426.6859,313.5,427.5061,313.5161,427.5222,312.6925,426.6985,311.9421,425.9482,311.1564,425.1624,310.438,424.4441,309.5,423.5061" style="stroke:#8B0000;stroke-width:1.0;"/><path d="M744.5,408.1912 L744.5,408.2846 L746.5,408.007 L748.5,408.2771 L750.5,408.3688 L752.5,407.8741 L754.5,408.1912 " fill="#8B0000" style="stroke:#8B0000;stroke-width:4.0;"/><path d="M754.5,408.1912 L754.5934,408.1912 L754.3159,413.2541 L754.5859,418.3171 L754.6776,423.3801 L754.1829,428.4431 L754.5,433.5061 " fill="#8B0000" style="stroke:#8B0000;stroke-width:4.0;"/><polygon fill="#8B0000" points="750.5,423.5061,750.565,423.5321,751.1718,425.4548,752.1598,427.53,753.0237,429.5556,753.4792,431.4178,754.5,433.5061,754.4759,433.4965,755.168,431.4533,755.9813,429.4586,756.8789,427.4976,757.486,425.4205,758.5,423.5061,758.6305,423.6366,757.5514,424.1575,756.8534,425.0595,756.2018,426.0079,755.2798,426.6859,754.5,427.5061,754.5161,427.5222,753.6925,426.6985,752.9421,425.9482,752.1564,425.1624,751.438,424.4441,750.5,423.5061" style="stroke:#8B0000;stroke-width:1.0;"/><path d="M313.5,484.1359 L313.7802,484.1359 L312.9476,493.8619 L313.7577,503.5878 L314.0329,513.3138 L312.5488,523.0398 L313.5,532.7657 " fill="#8B0000" style="stroke:#8B0000;stroke-width:4.0;"/><path d="M313.5,532.7657 L313.5,533.046 L323.4286,532.2133 L333.3571,533.0235 L343.2857,533.2986 L353.2143,531.8145 L363.1429,532.6621 L373.0714,532.1971 L383,532.2544 L392.9286,532.6749 L402.8571,531.8439 L412.7857,533.5039 L422.7143,531.9254 L432.6429,532.502 L442.5714,533.3417 L452.5,532.6514 L462.4286,532.8567 L472.3571,532.7231 L482.2857,533.0038 L492.2143,533.0846 L502.1429,533.5467 L512.0714,533.6605 L522,532.7657 " fill="#8B0000" style="stroke:#8B0000;stroke-width:4.0;"/><polygon fill="#8B0000" points="512,528.7657,512.026,528.8308,513.9487,529.4375,516.0239,530.4256,518.0495,531.2894,519.9117,531.7449,522,532.7657,521.9904,532.7417,519.9472,533.4337,517.9525,534.247,515.9916,535.1446,513.9144,535.7518,512,536.7657,512.1305,536.8962,512.6514,535.8172,513.5534,535.1191,514.5018,534.4675,515.1798,533.5455,516,532.7657,516.0161,532.7818,515.1925,531.9582,514.4421,531.2078,513.6564,530.4221,512.938,529.7038,512,528.7657" style="stroke:#8B0000;stroke-width:1.0;"/><path d="M754.5,514.7657 L754.5934,514.7657 L754.3159,518.3657 L754.5859,521.9657 L754.6776,525.5657 L754.1829,529.1657 L754.5,532.7657 " fill="#8B0000" style="stroke:#8B0000;stroke-width:4.0;"/><path d="M754.5,532.7657 L754.5,533.046 L744.5714,532.2133 L734.6429,533.0235 L724.7143,533.2986 L714.7857,531.8145 L704.8571,532.6621 L694.9286,532.1971 L685,532.2544 L675.0714,532.6749 L665.1429,531.8439 L655.2143,533.5039 L645.2857,531.9254 L635.3571,532.502 L625.4286,533.3417 L615.5,532.6514 L605.5714,532.8567 L595.6429,532.7231 L585.7143,533.0038 L575.7857,533.0846 L565.8571,533.5467 L555.9286,533.6605 L546,532.7657 " fill="#8B0000" style="stroke:#8B0000;stroke-width:4.0;"/><polygon fill="#8B0000" points="556,528.7657,556.026,528.8308,553.9487,529.4375,552.0239,530.4256,550.0495,531.2894,547.9117,531.7449,546,532.7657,545.9904,532.7417,547.9472,533.4337,549.9525,534.247,551.9916,535.1446,553.9144,535.7518,556,536.7657,556.1305,536.8962,555.0514,535.8172,554.3534,535.1191,553.7018,534.4675,552.7798,533.5455,552,532.7657,552.0161,532.7818,552.7925,531.9582,553.6421,531.2078,554.4564,530.4221,555.338,529.7038,556,528.7657" style="stroke:#8B0000;stroke-width:1.0;"/><path d="M534,306.0127 L534.2802,306.0127 L533.4476,315.6642 L534.2577,325.3157 L534.5329,334.9672 L533.0488,344.6187 L533.8964,354.2702 L533.4313,363.9217 L533.4887,373.5732 L533.9091,383.2247 L534,392.8762 " fill="#8B0000" style="stroke:#8B0000;stroke-width:4.0;"/><polygon fill="#8B0000" points="530,382.8762,530.065,382.9023,530.6718,384.8249,531.6598,386.9002,532.5237,388.9257,532.9792,390.7879,534,392.8762,533.9759,392.8666,534.668,390.8234,535.4813,388.8288,536.3789,386.8678,536.986,384.7906,538,382.8762,538.1305,383.0067,537.0514,383.5277,536.3534,384.4296,535.7018,385.378,534.7798,386.056,534,386.8762,534.0161,386.8923,533.1925,386.0687,532.4421,385.3183,531.6564,384.5326,530.938,383.8143,530,382.8762" style="stroke:#8B0000;stroke-width:1.0;"/><path d="M534,544.7657 L534.2802,544.7657 L533.4476,554.2982 L534.2577,563.8307 L534.5329,573.3631 L533.0488,582.8956 L533.8964,592.428 L533.4313,601.9605 L533.4887,611.4929 L534,621.0254 " fill="#8B0000" style="stroke:#8B0000;stroke-width:4.0;"/><polygon fill="#8B0000" points="530,611.0254,530.065,611.0514,530.6718,612.9741,531.6598,615.0493,532.5237,617.0749,532.9792,618.9371,534,621.0254,533.9759,621.0158,534.668,618.9726,535.4813,616.9779,536.3789,615.017,536.986,612.9398,538,611.0254,538.1305,611.1559,537.0514,611.6768,536.3534,612.5788,535.7018,613.5272,534.7798,614.2052,534,615.0254,534.0161,615.0415,533.1925,614.2179,532.4421,613.4675,531.6564,612.6818,530.938,611.9635,530,611.0254" style="stroke:#8B0000;stroke-width:1.0;"/><path d="M534,702.2851 L534.2802,702.2851 L533.4476,711.8695 L534.2577,721.4539 L534.5329,731.0383 L533.0488,740.6227 L533.8964,750.2071 L533.4313,759.7915 L533.4887,769.3759 L533.9091,778.9603 L534,788.5447 " fill="#8B0000" style="stroke:#8B0000;stroke-width:4.0;"/><polygon fill="#8B0000" points="530,778.5447,530.065,778.5708,530.6718,780.4934,531.6598,782.5687,532.5237,784.5942,532.9792,786.4564,534,788.5447,533.9759,788.5351,534.668,786.4919,535.4813,784.4973,536.3789,782.5363,536.986,780.4591,538,778.5447,538.1305,778.6752,537.0514,779.1962,536.3534,780.0981,535.7018,781.0465,534.7798,781.7245,534,782.5447,534.0161,782.5608,533.1925,781.7372,532.4421,780.9868,531.6564,780.2011,530.938,779.4828,530,778.5447" style="stroke:#8B0000;stroke-width:1.0;"/><path d="M534,869.8044 L534.2802,869.8044 L533.4476,879.5222 L534.2577,889.2401 L534.5329,898.9579 L533.0488,908.6758 L533.8964,918.3936 L533.4313,928.1115 L533.4887,937.8293 L533.9091,947.5472 L533.0782,957.265 L534,966.9829 " fill="#8B0000" style="stroke:#8B0000;stroke-width:4.0;"/><polygon fill="#8B0000" points="530,956.9829,530.065,957.0089,530.6718,958.9316,531.6598,961.0068,532.5237,963.0323,532.9792,964.8945,534,966.9829,533.9759,966.9732,534.668,964.9301,535.4813,962.9354,536.3789,960.9744,536.986,958.8973,538,956.9829,538.1305,957.1133,537.0514,957.6343,536.3534,958.5362,535.7018,959.4847,534.7798,960.1626,534,960.9829,534.0161,960.9989,533.1925,960.1753,532.4421,959.4249,531.6564,958.6392,530.938,957.9209,530,956.9829" style="stroke:#8B0000;stroke-width:1.0;"/><!--SRC=[RLHBRjim4Dth55ElRA1oa6Qd52rKkGQCEdLWf-Z6G3CHnnORYbH9oevwWsvwXLwnH-YGSkmOg5OYv_lUlE4hgKlL2lfMe-vWFBuGw37b0swf9krJvpj5O__aayHBhoY3ArXvQXnu0xajAxb3bIwfCKvwOoMvjHxUjLQ3hz33CWDXvOv0QlP73VVBvIS-tuyIvz5orkmoWuNTefO_2KBrjOw-WudSIeyA5W_VgVHkS9reumcit5O-kS57Wi7KA47M3R8a1RY9JUE38d2SIu3f0uFjpX8tKngb-4OQxG0TrEGnmZLQTGd0ou32rBNHW6L9pd6W5ZB61RUXaYLf9_Ls10tPGnWaf0M45XEvWM4k1DJ64k218zXm2wqbztx4r926eJQZbv0MJnjZnNFbgMGSS-nCws6uAARpKO92EDWnNcuajEIjKKofYFyyguHvewsLlZlMElK4uSikCUFfoV8Hzj9NiEdvksOhAKSmxCYDakZrXO-XB1ZBTDPIeLrhR1fhiAmu82OCwUKcoTva4F4U25rhHWB4ZWTkpaQNmZpoH_oNEoUt6cOJ1yF9OkQ0V3dY-txcRzDtnN5aO4bXd44bMNtizBKohs4VLBQlo8PqaJH1hhIowSULmgqrEzAeIpgHqRUZQEEJvI8jBFBfkNdMjL4kA6fgR1qoh1fMZt0LKTJ61_GChBJ6kJsgH-YhlQ0woVx- -VthFylHGKZKGJ2lDHm-tWFViY3PctOispEobZ4Wq2crumLi0omMa-Dqh7PmP7Vo31gNlyfWfWKzzU9WJCfiMmggEwxVMP6YCeR7pM9d0RAimsgpy2npWjfTMFhHIXkVWyZBIjPDMB8JBV20ZZjtRLrZU082xSRwk8k1qs0-DHBC-N6nWeeL1-UtirwK_NRnGE8-sp28LZ5Y2fjqL3OWA8Jv18lyuZPVvfFPwcF1lhF9v_xDuWSaJBDuhZfWuqrOoDBK0UDuF3wozWy0]--></g></svg>