<svg xmlns="http://www.w3.org/2000/svg" xmlns:xlink="http://www.w3.org/1999/xlink" contentStyleType="text/css" data-diagram-type="DESCRIPTION" height="418px" preserveAspectRatio="none" style="width:480px;height:418px;background:#FFFFFF;" version="1.1" viewBox="0 0 480 418" width="480px" zoomAndPan="magnify"><title>Detached Crate</title><defs/><g><text fill="#000000" font-family="Chalkduster" font-size="42" font-weight="bold" lengthAdjust="spacing" textLength="365.9801" x="50.0099" y="51.7215">Detached Crate</text><!--cluster One payload file RO-Crate package--><g id="cluster_One payload file RO-Crate package"><path d="M8.5,81.0624 L8.5,81.6229 L18.4665,79.9576 L28.433,81.5779 L38.3995,82.1282 L48.366,79.16 L58.3325,80.8552 L68.2991,79.9251 L78.2656,80.0398 L88.2321,80.8807 L98.1986,79.2188 L108.1651,82.5388 L118.1316,79.3817 L128.0981,80.5351 L138.0646,82.2143 L148.0311,80.8337 L157.9976,81.2444 L167.9641,80.9772 L177.9306,81.5385 L187.8972,81.7001 L197.8637,82.6243 L207.8302,82.8519 L217.7967,82.8738 L227.7632,81.7414 L237.7297,82.2987 L247.6962,82.935 L257.6627,79.1393 L267.6292,82.8718 L277.5957,80.2718 L287.5622,82.4859 L297.5287,81.0624 L300.0287,83.5624 L299.6106,83.4254 L301.3709,87.817 L303.4552,92.3146 L304.1876,96.3694 L305.7177,100.6855 L307.0287,104.9298 L307.0287,105.8328 L317.4352,106.0398 L327.8417,104.9194 L338.2482,105.6957 L348.6547,103.4034 L359.0611,105.6882 L369.4676,106.3917 L379.8741,106.1153 L390.2806,106.5646 L400.687,103.6416 L411.0935,103.1907 L421.5,104.9298 L424,107.4298 L422.3429,107.4298 L423.843,117.6257 L423.4759,127.8215 L425.8171,138.0174 L423.5342,148.2132 L423.0852,158.4091 L424.6087,168.6049 L422.2218,178.8007 L422.6157,188.9966 L424,199.1924 L421.5,201.6924 L421.5,203.423 L411.4268,202.8542 L401.3537,203.6511 L391.2805,200.8343 L381.2073,202.5436 L371.1341,203.2669 L361.061,200.4327 L350.9878,201.4368 L340.9146,202.0284 L330.8415,203.4305 L320.7683,201.6813 L310.6951,202.9259 L300.622,200.2157 L290.5488,199.8864 L280.4756,203.0354 L270.4024,199.7806 L260.3293,203.0497 L250.2561,202.2434 L240.1829,200.978 L230.1098,200.749 L220.0366,202.9158 L209.9634,200.8942 L199.8902,203.2707 L189.8171,200.2184 L179.7439,203.3389 L169.6707,202.9839 L159.5976,202.3457 L149.5244,201.8183 L139.4512,203.6301 L129.378,203.3286 L119.3049,202.1438 L109.2317,202.4076 L99.1585,201.3451 L89.0854,203.603 L79.0122,202.1054 L68.939,202.1526 L58.8659,200.0702 L48.7927,200.6118 L38.7195,203.1078 L28.6463,202.8385 L18.5732,201.5779 L8.5,201.6924 L6,199.1924 L5.1409,199.1924 L5.4162,189.5566 L4.1702,179.9208 L7.106,170.2849 L7.9722,160.6491 L7.4037,151.0133 L7.8532,141.3774 L5.6354,131.7416 L6.2326,122.1058 L4.9664,112.4699 L6.7574,102.8341 L6.658,93.1983 L6,83.5624 L8.5,81.0624 " fill="#E6E6FA" style="stroke:#000000;stroke-width:1.5;"/><path d="M6,104.9298 L6,105.2101 L16.0343,104.3774 L26.0686,105.1876 L36.1029,105.4627 L46.1372,103.9786 L56.1715,104.8262 L66.2057,104.3612 L76.24,104.4185 L86.2743,104.839 L96.3086,104.008 L106.3429,105.668 L116.3772,104.0895 L126.4115,104.6661 L136.4458,105.5058 L146.4801,104.8155 L156.5144,105.0208 L166.5487,104.8872 L176.583,105.1679 L186.6172,105.2487 L196.6515,105.7108 L206.6858,105.8246 L216.7201,105.8355 L226.7544,105.2693 L236.7887,105.5479 L246.823,105.8661 L256.8573,103.9683 L266.8916,105.8345 L276.9259,104.5345 L286.9602,105.6416 L296.9945,104.2698 L307.0287,104.9298 " fill="#E6E6FA" style="stroke:#000000;stroke-width:1.5;"/><text fill="#000000" font-family="Chalkduster" font-size="14" font-weight="bold" lengthAdjust="spacing" textLength="288.0287" x="10" y="96.9696">One payload file RO-Crate package</text><text fill="#000000" font-family="Chalkduster" font-size="14" font-style="italic" lengthAdjust="spacing" textLength="98.3249" x="169.8376" y="120.837">&#171;standards&#187;</text></g><!--cluster Some Repository Service--><g id="cluster_Some Repository Service"><polygon fill="#98FB98" points="132.5,265.6924,132.5,265.9026,142.4706,265.2781,152.4412,265.8857,162.4118,266.0921,172.3824,264.979,182.3529,265.6147,192.3235,265.2659,202.2941,265.3089,212.2647,265.6243,222.2353,265.0011,232.2059,266.2461,242.1765,265.0622,252.1471,265.4947,262.1176,266.1244,272.0882,265.6067,282.0588,265.7607,292.0294,265.6605,302,265.871,311.9706,265.9316,321.9412,266.2781,331.9118,266.3635,341.8824,266.3717,351.8529,265.9471,361.8235,266.156,371.7941,266.3947,381.7647,264.9712,391.7353,266.3709,401.7059,265.3959,411.6765,266.2262,421.6471,265.1974,431.6176,265.6239,441.5882,266.434,451.5588,265.6437,461.5294,265.7977,471.5,265.6924,471.5432,265.7967,471.9066,265.9671,472.2066,265.9841,472.5973,266.2202,472.8412,266.1019,473.2678,266.4247,473.3553,266.4609,473.583,266.8481,473.6976,267.1885,473.8959,267.5635,473.7048,267.7773,474,268.1924,473.3478,268.1924,473.3786,278.3089,473.9411,288.4253,473.8035,298.5417,474.6814,308.6581,473.8253,318.7746,473.6569,328.891,474.2283,339.0074,473.3332,349.1239,473.4809,359.2403,474.649,369.3567,474.4357,379.4731,474.7345,389.5896,473.6782,399.706,474,409.8224,474.0983,409.8631,474.0354,410.2513,473.5616,410.4693,473.5311,410.8709,473.453,411.2527,473.2678,411.5902,473.3509,411.7909,472.9137,411.7354,472.6197,412.0255,472.1365,411.859,471.7672,411.9674,471.5,412.3224,471.5,412.826,461.5294,411.6055,451.5588,412.8314,441.5882,412.5291,431.6176,412.0545,421.6471,411.9687,411.6765,412.7812,401.7059,412.0231,391.7353,412.9143,381.7647,411.7697,371.7941,412.9399,361.8235,412.8067,351.8529,412.5674,341.8824,412.3697,331.9118,413.049,321.9412,412.936,311.9706,412.4917,302,412.5906,292.0294,412.1922,282.0588,413.0389,272.0882,412.4773,262.1176,412.495,252.1471,411.7141,242.1765,411.9172,232.2059,412.8532,222.2353,412.7522,212.2647,412.2795,202.2941,412.0003,192.3235,412.1035,182.3529,411.6363,172.3824,412.7372,162.4118,413.062,152.4412,412.8488,142.4706,413.0174,132.5,412.3224,132.4826,412.2803,132.1576,412.2028,131.7435,411.9102,131.4756,411.9706,131.1173,411.8126,130.7322,411.5902,130.9023,411.6607,130.5151,411.2073,130.3979,410.8659,130.4295,410.5861,130.3212,410.2484,130,409.8224,129.4875,409.8224,129.8061,399.706,130.1493,389.5896,129.3892,379.4731,130.3534,369.3567,130.258,359.2403,129.8992,349.1239,130.1422,339.0074,130.7287,328.891,129.6871,318.7746,130.315,308.6581,130.2856,298.5417,130.1158,288.4253,130.1409,278.3089,130,268.1924,130.0349,268.2069,129.9542,267.7593,130.1695,267.4342,130.2972,267.0729,130.6054,266.7864,130.7322,266.4247,130.7435,266.4518,131.1064,266.328,131.4022,266.0422,131.7843,265.9645,132.1311,265.8019,132.5,265.6924" style="stroke:#181818;stroke-width:4;"/><text fill="#000000" font-family="Chalkduster" font-size="24" font-style="italic" lengthAdjust="spacing" textLength="169.1404" x="217.4298" y="291.5333">&#171;repository&#187;</text><text fill="#000000" font-family="Chalkduster" font-size="24" font-weight="bold" lengthAdjust="spacing" textLength="328.6807" x="137.6597" y="322.1631">Some Repository Service</text></g><!--entity rmd--><g id="elem_rmd"><polygon fill="#FFFFFF" fill-opacity="0.00000" points="24.61,135.0624,24.61,135.2726,34.6306,134.6481,44.6511,135.2557,54.6717,135.4621,64.6922,134.349,74.7128,134.9847,84.7334,134.6359,94.7539,134.6789,104.7745,134.9943,114.795,134.3711,124.8156,135.6161,134.8361,134.4322,144.8567,134.8647,154.8773,135.4944,164.8978,134.9767,174.9184,135.1307,184.9389,135.0305,194.9595,135.241,204.9801,135.3016,215.0006,135.6481,225.0212,135.7335,235.0417,135.7417,245.0623,135.3171,255.0828,135.526,265.1034,135.7647,275.124,134.3412,285.1445,135.7409,295.1651,134.7659,305.1856,135.5962,315.2062,134.5674,325.2268,134.9939,335.2473,135.804,345.2679,135.0137,355.2884,135.1677,365.309,135.4011,375.3295,135.4787,385.3501,135.0585,395.3707,135.3496,405.3912,135.0624,405.3182,134.8862,405.781,135.2965,406.1683,135.5241,406.5086,135.6387,406.8836,135.837,407.159,135.7947,407.0102,135.733,407.1046,136.065,407.2605,136.4225,407.5802,136.8478,407.6843,137.1838,407.8912,137.5624,408.5726,137.5624,407.7165,146.6884,407.5482,155.8144,408.1195,164.9403,407.2244,174.0663,407.8912,183.1923,407.7313,183.126,407.9446,183.6286,407.7325,183.9549,407.6781,184.3466,407.2063,184.5654,407.159,184.96,407.1997,185.0583,406.8807,185.2883,406.3916,185.1074,406.0861,185.3699,405.7608,185.5846,405.3912,185.6923,405.3912,186.344,395.3707,185.6881,385.3501,186.1548,375.3295,185.1385,365.309,185.015,355.2884,186.1959,345.2679,184.9753,335.2473,186.2012,325.2268,185.8989,315.2062,185.4243,305.1856,185.3385,295.1651,186.151,285.1445,185.3929,275.124,186.2841,265.1034,185.1395,255.0828,186.3097,245.0623,186.1766,235.0417,185.9372,225.0212,185.7395,215.0006,186.4189,204.9801,186.3058,194.9595,185.8615,184.9389,185.9605,174.9184,185.562,164.8978,186.4087,154.8773,185.8471,144.8567,185.8648,134.8361,185.0839,124.8156,185.287,114.795,186.223,104.7745,186.122,94.7539,185.6493,84.7334,185.3701,74.7128,185.4733,64.6922,185.0061,54.6717,186.107,44.6511,186.4318,34.6306,186.2187,24.61,185.6923,24.6986,185.9063,24.239,185.5037,23.914,185.4262,23.4999,185.1336,23.232,185.194,22.8422,184.96,22.9182,184.9915,22.8659,184.6769,22.4786,184.2236,22.3615,183.8822,22.393,183.6024,22.11,183.1923,22.6773,183.1923,21.5975,174.0663,21.9161,164.9403,22.2593,155.8144,21.4992,146.6884,22.11,137.5624,22.2188,137.6075,22.3359,137.2418,22.3719,136.8425,22.5931,136.5199,22.9202,136.2412,22.8422,135.7947,22.8023,135.6983,23.236,135.7452,23.5858,135.5897,23.9177,135.391,24.2744,135.2523,24.61,135.0624" style="stroke:#181818;stroke-width:4;"/><text fill="#000000" font-family="Chalkduster" font-size="24" lengthAdjust="spacing" textLength="365.7812" x="32.11" y="168.9033">-- ro-crate-metadata.json</text></g><!--entity f1--><g id="elem_f1"><polygon fill="#FFFFFF" fill-opacity="0.00000" points="174.85,345.6924,174.85,345.9026,184.7185,345.2781,194.587,345.8857,204.4555,346.0921,214.324,344.979,224.1925,345.6147,234.061,345.2659,243.9296,345.3089,253.7981,345.6243,263.6666,345.0011,273.5351,346.2461,283.4036,345.0622,293.2721,345.4947,303.1406,345.6924,303.1957,345.8255,303.4832,345.8125,303.8564,346.0063,304.1972,346.1219,304.5776,346.3332,304.9084,346.4247,304.982,346.4552,305.2352,346.8529,305.4079,347.2174,305.5569,347.572,305.5726,347.8714,305.6406,348.1924,306.1042,348.1924,306.3428,357.3184,304.9194,366.4444,306.3191,375.5703,305.3441,384.6963,305.6406,393.8223,305.805,393.8904,305.3417,394.1127,305.3266,394.5206,305.4296,394.9775,305.0398,395.2303,304.9084,395.59,304.9218,395.6225,304.598,395.8408,304.2544,396.0111,303.8472,396.0282,303.5308,396.2643,303.1406,396.3223,303.1406,395.7498,293.2721,396.6067,283.4036,396.8705,273.5351,396.7668,263.6666,396.9353,253.7981,395.8392,243.9296,395.6701,234.061,395.7009,224.1925,396.2634,214.324,396.1257,204.4555,397.0037,194.587,396.1476,184.7185,395.9792,174.85,396.3223,174.8791,396.3926,174.4114,395.9705,174.0767,395.8695,173.8721,396.0828,173.4914,395.8706,173.0822,395.59,173.3084,395.6837,172.8367,395.1954,172.8876,394.9236,172.8247,394.6047,172.351,394.1156,172.35,393.8223,172.2541,393.8223,172.476,384.6963,173.0018,375.5703,172.3458,366.4444,172.8126,357.3184,172.35,348.1924,172.1795,348.1218,172.2879,347.7525,172.798,347.5496,172.5686,347.0403,173.0925,346.8431,173.0822,346.4247,173.1086,346.4883,173.4016,346.1957,173.7442,346.0228,174.2014,346.1266,174.4583,345.7467,174.85,345.6924" style="stroke:#181818;stroke-width:4;"/><text fill="#000000" font-family="Chalkduster" font-size="24" lengthAdjust="spacing" textLength="113.2906" x="182.35" y="379.5333">File1.txt</text></g><!--link rmd to f1--><g id="link_rmd_f1"><path d="M167.77,185.9224 L167.8282,185.9955 L165.966,187.1227 L164.4447,188.6784 L162.8125,190.0946 L160.8151,191.0518 L159.3231,192.6443 L159.2992,192.6194 L157.6232,194.0147 L156.0678,195.5356 L154.5963,197.1438 L152.8357,198.4512 L151.48,200.1799 L151.6698,200.3366 L149.8858,201.6715 L148.656,203.4637 L147.4937,205.3118 L145.9381,206.8352 L144.5894,208.5293 L144.6153,208.5451 L143.4594,210.3545 L142.4214,212.2359 L141.3265,214.0825 L140.3401,215.9954 L139,217.6924 L139.2881,217.7695 L138.4494,220.9194 L137.4248,224.0197 L136.6723,227.1927 L135.9325,230.3691 L134.7888,233.4374 L134.4785,233.357 L135.9229,236.7641 L136.3457,239.9064 L137.5452,243.2499 L137.9448,246.3863 L139,249.6924 L138.9719,249.6808 L140.4736,252.6388 L141.3182,255.3245 L142.5506,258.1709 L143.8155,261.0309 L144.8455,263.7934 L145.0097,263.8787 L146.2328,266.4661 L147.7364,269.1993 L148.7861,271.6967 L150.5128,274.5457 L151.7894,277.1609 L151.9964,277.2894 L153.5244,279.7896 L155.1551,282.3535 L156.3084,284.621 L157.8116,287.1058 L159.625,289.7831 L159.4007,289.622 L161.3079,292.1408 L162.9624,294.478 L164.9835,297.0786 L166.3786,299.2296 L168.1458,301.6479 L168.0274,301.5518 L170.0245,303.9309 L171.5154,305.8994 L173.3663,308.1599 L175.5693,310.7061 L177.1452,312.7435 L177.2892,312.8729 L179.2423,315.0246 L180.7474,316.7737 L182.8136,319.027 L184.7575,321.1705 L186.4166,323.058 L186.2667,322.911 L188.2536,324.9324 L190.1913,326.9057 L192.2255,328.9736 L193.8847,330.6738 L195.7534,332.5794 L195.8949,332.7286 L197.4233,334.1441 L199.2246,335.8475 L201.4248,337.9717 L202.8908,339.3213 L204.9491,341.2958 " fill="#FFFFFF" fill-opacity="0.00000" style="stroke:#8B0000;stroke-width:4;"/><polygon fill="#8B0000" points="209.37,345.3524,209.4343,345.3804,208.458,343.4909,207.8583,341.7653,207.136,339.9863,206.0104,338.0319,205.4431,336.3203,205.4172,336.3192,205.3496,337.4445,205.4125,338.5755,205.5661,339.7103,205.4071,340.8317,205.6859,341.9719,205.6939,342.1563,204.5466,341.8106,203.4225,342.0032,202.3011,342.2615,201.1634,342.1377,200.0343,342.2148,200.0415,342.2364,201.898,342.8322,203.7875,343.5263,205.6611,344.1729,207.5651,344.91,209.37,345.3524" style="stroke:#8B0000;stroke-width:4;"/><text fill="#000000" font-family="Chalkduster" font-size="24" lengthAdjust="spacing" textLength="121.9359" x="140" y="242.5333">Describes</text></g><!--link rmd to f1--><!--SRC=[JK-vJWD13Etz5MRxYPGMHTk0Q2EHCg8mOsyoC4VaCSSAyUzu5uJYodfwvqsgCR-n89DHA5Jf94MgXMvpberz6bYoBBTuBqRnB8ntIYO0KyiiYiE-2bvepeqOfvG57_TXfJWQNzrkmDsk6rKcvJwE-0Nefn8TEpb_206rXRXeGl6KfShcfRSw87NKml0DSCK_jE8fScazMTCP3wBlAQuv-e_-1Lt97hpSTbcqsavRTtLl3AF_kEphKTEpT81VdDj7FPuJizIdbVG3]--></g></svg>