<svg xmlns="http://www.w3.org/2000/svg" xmlns:xlink="http://www.w3.org/1999/xlink" contentStyleType="text/css" data-diagram-type="DESCRIPTION" height="797px" preserveAspectRatio="none" style="width:1105px;height:797px;background:#FFFFFF;" version="1.1" viewBox="0 0 1105 797" width="1105px" zoomAndPan="magnify"><title>Data findability</title><defs/><g><text fill="#000000" font-family="Chalkduster" font-size="42" font-weight="bold" lengthAdjust="spacing" textLength="380.8309" x="355.0845" y="51.7215">Data findability</text><!--cluster arch--><g class="cluster" data-entity="arch" data-source-line="3" data-uid="ent0002" id="cluster_arch"><polygon fill="#98FB98" points="9.5,122.4922,9.5,122.7024,19.4725,122.0779,29.445,122.6855,39.4174,122.8919,49.3899,121.7788,59.3624,122.4145,69.3349,122.0657,79.3073,122.1087,89.2798,122.4241,99.2523,121.8008,109.2248,123.0459,119.1972,121.8619,129.1697,122.2944,139.1422,122.9242,149.1147,122.4064,159.0872,122.5604,169.0596,122.4603,179.0321,122.6707,189.0046,122.7313,198.9771,123.0779,208.9495,123.1633,218.922,123.1715,228.8945,122.7468,238.867,122.9558,248.8394,123.1944,258.8119,121.771,268.7844,123.1707,278.7569,122.1957,288.7294,123.026,298.7018,121.9972,308.6743,122.4237,318.6468,123.2338,328.6193,122.4435,338.5917,122.5975,348.5642,122.8308,358.5367,122.9084,368.5092,122.4883,378.4817,122.7794,388.4541,121.9198,398.4266,122.7766,408.3991,123.0404,418.3716,122.9367,428.344,123.1052,438.3165,122.0091,448.289,121.84,458.2615,121.8708,468.2339,122.4333,478.2064,122.2957,488.1789,123.1736,498.1514,122.3175,508.1239,122.1492,518.0963,122.7205,528.0688,121.8254,538.0413,121.9731,548.0138,123.1412,557.9862,122.9279,567.9587,123.2267,577.9312,122.1704,587.9037,122.8114,597.8761,123.0826,607.8486,122.0198,617.8211,122.3964,627.7936,122.6182,637.7661,123.144,647.7385,122.488,657.711,122.9548,667.6835,121.9384,677.656,121.815,687.6284,122.9958,697.6009,121.7753,707.5734,123.0012,717.5459,122.6988,727.5183,122.2243,737.4908,122.1384,747.4633,122.951,757.4358,122.1929,767.4083,123.0841,777.3807,121.9395,787.3532,123.1096,797.3257,122.9765,807.2982,122.7372,817.2706,122.5394,827.2431,123.2188,837.2156,123.1058,847.1881,122.6615,857.1606,122.7604,867.133,122.3619,877.1055,123.2087,887.078,122.6471,897.0505,122.6648,907.0229,121.8839,916.9954,122.087,926.9679,123.023,936.9404,122.922,946.9128,122.4493,956.8853,122.17,966.8578,122.2733,976.8303,121.806,986.8028,122.9069,996.7752,123.2318,1006.7477,123.0186,1016.7202,123.1871,1026.6927,122.3555,1036.6651,122.5794,1046.6376,122.1046,1056.6101,122.7763,1066.5826,122.739,1076.555,123.0446,1086.5275,122.2626,1096.5,122.4922,1096.4829,122.4508,1096.9101,122.7752,1097.2795,122.9598,1097.4953,122.7737,1097.8895,123.0183,1098.2678,123.2244,1098.3137,123.2435,1098.2261,123.5001,1098.6695,123.9766,1098.7866,124.318,1098.8225,124.6258,1099,124.9922,1099.1422,124.9922,1099.7287,135.0455,1098.6871,145.0989,1099.315,155.1522,1099.2856,165.2055,1099.1158,175.2589,1099.1409,185.3122,1099.1135,195.3655,1098.3758,205.4189,1098.5992,215.4722,1098.5385,225.5255,1099.0638,235.5789,1099.0881,245.6322,1099.1617,255.6855,1098.709,265.7389,1098.9325,275.7922,1098.8798,285.8455,1099.5769,295.8989,1099.4266,305.9522,1098.5145,316.0055,1098.9271,326.0589,1098.4228,336.1122,1099.2884,346.1655,1099.6085,356.2189,1099.5446,366.2722,1098.5644,376.3255,1099.464,386.3789,1098.2572,396.4322,1099.2002,406.4855,1098.7007,416.5389,1099.0967,426.5922,1099.2403,436.6455,1099.4721,446.6989,1098.2801,456.7522,1099.4755,466.8055,1099.1782,476.8589,1099.3553,486.9122,1099.7478,496.9655,1099.0055,507.0189,1099.1753,517.0722,1099.2134,527.1255,1099.1972,537.1789,1098.9992,547.2322,1099.7107,557.2855,1098.3903,567.3389,1099.5653,577.3922,1098.376,587.4455,1098.4597,597.4989,1099.04,607.5522,1099.0283,617.6055,1098.5072,627.6589,1099.4137,637.7122,1099.1089,647.7655,1099.7267,657.8189,1099.6671,667.8722,1098.5517,677.9255,1098.6021,687.9789,1098.8708,698.0322,1099.3555,708.0855,1099.403,718.1389,1099.3012,728.1922,1098.658,738.2455,1099.6364,748.2989,1099.6338,758.3522,1098.9527,768.4055,1098.7609,778.4589,1099,788.5122,1098.8764,788.461,1098.7875,788.8384,1098.7494,789.2368,1098.5396,789.5641,1098.2855,789.8731,1098.2678,790.28,1098.3299,790.4301,1097.8557,790.2851,1097.6247,790.7276,1097.2616,790.8509,1096.901,790.9803,1096.5,791.0122,1096.5,791.7047,1086.5275,790.7663,1076.555,790.7116,1066.5826,791.5311,1056.6101,790.4153,1046.6376,790.7782,1036.6651,791.1277,1026.6927,791.0809,1016.7202,790.6538,1006.7477,790.9692,996.7752,791.7568,986.8028,791.6607,976.8303,790.4159,966.8578,791.0907,956.8853,790.4983,946.9128,790.9859,936.9404,791.3052,926.9679,791.4321,916.9954,790.3475,907.0229,791.4128,897.0505,791.0206,887.078,790.4569,877.1055,790.5412,867.133,791.3388,857.1606,791.2621,847.1881,790.9958,837.2156,790.3401,827.2431,791.6704,817.2706,790.7004,807.2982,790.4842,797.3257,790.9449,787.3532,791.6019,777.3807,791.6276,767.4083,791.0473,757.4358,790.861,747.4633,791.182,737.4908,791.1984,727.5183,790.5044,717.5459,791.4262,707.5734,791.571,697.6009,790.7965,687.6284,790.583,677.656,791.6869,667.6835,791.0332,657.711,791.0121,647.7385,791.3112,637.7661,790.3665,627.7936,791.5422,617.8211,790.9968,607.8486,791.681,597.8761,790.7964,587.9037,791.4212,577.9312,790.5682,567.9587,791.2572,557.9862,791.3915,548.0138,790.6849,538.0413,791.3752,528.0688,790.4408,518.0963,790.5417,508.1239,791.695,498.1514,791.6966,488.1789,791.5807,478.2064,790.6518,468.2339,791.3964,458.2615,790.5402,448.289,791.0704,438.3165,791.011,428.344,790.7498,418.3716,791.6281,408.3991,791.4555,398.4266,790.6915,388.4541,791.5388,378.4817,791.1041,368.5092,790.4286,358.5367,790.7789,348.5642,790.4869,338.5917,790.8731,328.6193,790.3832,318.6468,790.4121,308.6743,791.0825,298.7018,790.8918,288.7294,790.9536,278.7569,790.869,268.7844,791.1795,258.8119,790.4571,248.8394,791.1723,238.867,790.2691,228.8945,791.3082,218.922,791.605,208.9495,791.5343,198.9771,791.3735,189.0046,791.2044,179.0321,791.1179,169.0596,790.3722,159.0872,791.4587,149.1147,791.3419,139.1422,790.8588,129.1697,791.0064,119.1972,790.8036,109.2248,791.2299,99.2523,791.6928,89.2798,790.6583,79.3073,791.4811,69.3349,790.923,59.3624,790.6329,49.3899,790.5803,39.4174,790.3675,29.445,790.5713,19.4725,791.0485,9.5,791.0122,9.5348,791.0963,9.2199,791.0432,8.8465,790.8487,8.3486,790.3538,8.1648,790.6171,7.7322,790.28,7.8819,790.342,7.7523,789.9954,7.6001,789.6394,7.0899,789.1352,7.0671,788.8329,7,788.5122,7.316,788.5122,6.5185,778.4589,6.8971,768.4055,7.067,758.3522,7.3261,748.2989,7.0458,738.2455,7.7447,728.1922,7.4114,718.1389,7.2561,708.0855,6.4601,698.0322,7.3388,687.9789,6.4255,677.9255,7.3057,667.8722,7.0078,657.8189,7.2995,647.7655,6.9126,637.7122,6.8039,627.6589,6.2591,617.6055,6.7856,607.5522,6.2951,597.4989,6.7539,587.4455,7.4379,577.3922,7.1607,567.3389,6.5485,557.2855,7.2458,547.2322,7.0656,537.1789,7.5433,527.1255,7.5649,517.0722,7.0937,507.0189,6.821,496.9655,6.7855,486.9122,6.9936,476.8589,7.6691,466.8055,6.3263,456.7522,6.8361,446.6989,7.2668,436.6455,7.7317,426.5922,7.2119,416.5389,6.8018,406.4855,6.2621,396.4322,6.5762,386.3789,6.7781,376.3255,7.3398,366.2722,7.3695,356.2189,7.0518,346.1655,6.867,336.1122,6.2804,326.0589,7.129,316.0055,7.4354,305.9522,7.6829,295.8989,7.0983,285.8455,7.0799,275.7922,6.7798,265.7389,7.2487,255.6855,6.53,245.6322,7.5161,235.5789,6.6943,225.5255,6.4698,215.4722,7.2569,205.4189,7.4718,195.3655,7.0573,185.3122,6.8789,175.2589,7.1579,165.2055,6.9753,155.1522,6.9049,145.0989,7.0769,135.0455,7,124.9922,6.8978,124.9499,7.2664,124.6883,7.5046,124.3728,7.3305,123.8864,7.5136,123.5481,7.7322,123.2244,7.6725,123.0801,8.116,123.151,8.4274,122.9027,8.8632,122.9549,9.1081,122.5462,9.5,122.4922" style="stroke:#181818;stroke-width:4;"/><text fill="#000000" font-family="Chalkduster" font-size="24" font-style="italic" lengthAdjust="spacing" textLength="169.1404" x="468.4298" y="148.3331">&#171;repository&#187;</text><text fill="#000000" font-family="Chalkduster" font-size="24" font-weight="bold" lengthAdjust="spacing" textLength="553.6442" x="276.1779" y="178.9629">Multiple storage services made findable</text></g><!--cluster p1--><g class="cluster" data-entity="p1" data-source-line="4" data-uid="ent0003" id="cluster_p1"><polygon fill="none" points="41.5,218.4922,41.5,218.7024,51.5323,218.0779,61.5645,218.6855,71.5968,218.8919,81.629,217.7788,91.6613,218.4145,101.6935,218.0657,111.7258,218.1087,121.7581,218.4241,131.7903,217.8008,141.8226,219.0459,151.8548,217.8619,161.8871,218.2944,171.9194,218.9242,181.9516,218.4064,191.9839,218.5604,202.0161,218.4603,212.0484,218.6707,222.0806,218.7313,232.1129,219.0779,242.1452,219.1633,252.1774,219.1715,262.2097,218.7468,272.2419,218.9558,282.2742,219.1944,292.3065,217.771,302.3387,219.1707,312.371,218.1957,322.4032,219.026,332.4355,217.9972,342.4677,218.4237,352.5,218.4922,352.5946,218.7206,352.8473,218.6236,353.2205,218.8175,353.6039,219.0358,353.9673,219.2062,354.2678,219.2244,354.2666,219.2239,354.5027,219.6146,354.3844,219.8585,354.7947,220.3214,355.0224,220.7086,355,220.9922,355.4445,220.9922,355.613,230.7722,354.5169,240.5522,354.3478,250.3322,354.3786,260.1122,354.9411,269.8922,354.8035,279.6722,355.6814,289.4522,354.8253,299.2322,354.6569,309.0122,355.2283,318.7922,354.3332,328.5722,354.4809,338.3522,355.649,348.1322,355.4357,357.9122,355.7345,367.6922,354.6782,377.4722,355,387.2522,355.0983,387.2929,355.0354,387.6811,354.5616,387.8991,354.5311,388.3006,354.453,388.6825,354.2678,389.02,354.3509,389.2207,353.9137,389.1651,353.6197,389.4553,353.1365,389.2888,352.7672,389.3972,352.5,389.7522,352.5,390.2558,342.4677,389.0353,332.4355,390.2612,322.4032,389.9588,312.371,389.4843,302.3387,389.3984,292.3065,390.211,282.2742,389.4529,272.2419,390.3441,262.2097,389.1995,252.1774,390.3696,242.1452,390.2365,232.1129,389.9972,222.0806,389.7994,212.0484,390.4788,202.0161,390.3658,191.9839,389.9215,181.9516,390.0204,171.9194,389.6219,161.8871,390.4687,151.8548,389.9071,141.8226,389.9248,131.7903,389.1439,121.7581,389.347,111.7258,390.283,101.6935,390.182,91.6613,389.7093,81.629,389.43,71.5968,389.5333,61.5645,389.066,51.5323,390.1669,41.5,389.7522,41.5943,389.98,41.2136,389.7679,40.8815,389.6733,40.4219,389.2708,40.0969,389.1933,39.7322,389.02,39.6129,388.9705,39.6733,388.7027,39.5153,388.3443,39.463,388.0298,39.0757,387.5765,39,387.2522,38.8656,387.2522,39.4435,377.4722,39.5673,367.6922,38.4875,357.9122,38.8061,348.1322,39.1493,338.3522,38.3892,328.5722,39.3534,318.7922,39.258,309.0122,38.8992,299.2322,39.1422,289.4522,39.7287,279.6722,38.6871,269.8922,39.315,260.1122,39.2856,250.3322,39.1158,240.5522,39.1409,230.7722,39,220.9922,39.0349,221.0067,38.9542,220.559,39.1695,220.234,39.2972,219.8727,39.6054,219.5861,39.7322,219.2244,39.7435,219.2516,40.1064,219.1278,40.4022,218.8419,40.7843,218.7643,41.1311,218.6016,41.5,218.4922" style="stroke:#181818;stroke-width:4;"/><text fill="#000000" font-family="Chalkduster" font-size="24" font-weight="bold" lengthAdjust="spacing" textLength="184.9193" x="104.5403" y="244.3331">Data Portal 1</text></g><!--cluster p2--><g class="cluster" data-entity="p2" data-source-line="7" data-uid="ent0005" id="cluster_p2"><polygon fill="none" points="397.5,218.4922,397.5,218.7024,407.5323,218.0779,417.5645,218.6855,427.5968,218.8919,437.629,217.7788,447.6613,218.4145,457.6935,218.0657,467.7258,218.1087,477.7581,218.4241,487.7903,217.8008,497.8226,219.0459,507.8548,217.8619,517.8871,218.2944,527.9194,218.9242,537.9516,218.4064,547.9839,218.5604,558.0161,218.4603,568.0484,218.6707,578.0806,218.7313,588.1129,219.0779,598.1452,219.1633,608.1774,219.1715,618.2097,218.7468,628.2419,218.9558,638.2742,219.1944,648.3065,217.771,658.3387,219.1707,668.371,218.1957,678.4032,219.026,688.4355,217.9972,698.4677,218.4237,708.5,218.4922,708.5946,218.7206,708.8473,218.6236,709.2205,218.8175,709.6039,219.0358,709.9673,219.2062,710.2678,219.2244,710.2666,219.2239,710.5027,219.6146,710.3844,219.8585,710.7947,220.3214,711.0224,220.7086,711,220.9922,711.4445,220.9922,711.613,230.7722,710.5169,240.5522,710.3478,250.3322,710.3786,260.1122,710.9411,269.8922,710.8035,279.6722,711.6814,289.4522,710.8253,299.2322,710.6569,309.0122,711.2283,318.7922,710.3332,328.5722,710.4809,338.3522,711.649,348.1322,711.4357,357.9122,711.7345,367.6922,710.6782,377.4722,711,387.2522,711.0983,387.2929,711.0354,387.6811,710.5616,387.8991,710.5311,388.3006,710.453,388.6825,710.2678,389.02,710.3509,389.2207,709.9137,389.1651,709.6197,389.4553,709.1365,389.2888,708.7672,389.3972,708.5,389.7522,708.5,390.2558,698.4677,389.0353,688.4355,390.2612,678.4032,389.9588,668.371,389.4843,658.3387,389.3984,648.3065,390.211,638.2742,389.4529,628.2419,390.3441,618.2097,389.1995,608.1774,390.3696,598.1452,390.2365,588.1129,389.9972,578.0806,389.7994,568.0484,390.4788,558.0161,390.3658,547.9839,389.9215,537.9516,390.0204,527.9194,389.6219,517.8871,390.4687,507.8548,389.9071,497.8226,389.9248,487.7903,389.1439,477.7581,389.347,467.7258,390.283,457.6935,390.182,447.6613,389.7093,437.629,389.43,427.5968,389.5333,417.5645,389.066,407.5323,390.1669,397.5,389.7522,397.5943,389.98,397.2136,389.7679,396.8815,389.6733,396.4219,389.2708,396.0969,389.1933,395.7322,389.02,395.6129,388.9705,395.6733,388.7027,395.5153,388.3443,395.463,388.0298,395.0757,387.5765,395,387.2522,394.8656,387.2522,395.4435,377.4722,395.5673,367.6922,394.4875,357.9122,394.8061,348.1322,395.1493,338.3522,394.3892,328.5722,395.3534,318.7922,395.258,309.0122,394.8992,299.2322,395.1422,289.4522,395.7287,279.6722,394.6871,269.8922,395.315,260.1122,395.2856,250.3322,395.1158,240.5522,395.1409,230.7722,395,220.9922,395.0349,221.0067,394.9542,220.559,395.1695,220.234,395.2972,219.8727,395.6054,219.5861,395.7322,219.2244,395.7435,219.2516,396.1064,219.1278,396.4022,218.8419,396.7843,218.7643,397.1311,218.6016,397.5,218.4922" style="stroke:#181818;stroke-width:4;"/><text fill="#000000" font-family="Chalkduster" font-size="24" font-weight="bold" lengthAdjust="spacing" textLength="183.9116" x="461.0442" y="244.3331">Data Portal 2</text></g><!--cluster p3--><g class="cluster" data-entity="p3" data-source-line="10" data-uid="ent0007" id="cluster_p3"><polygon fill="none" points="753.5,218.4922,753.5,218.7024,763.5323,218.0779,773.5645,218.6855,783.5968,218.8919,793.629,217.7788,803.6613,218.4145,813.6935,218.0657,823.7258,218.1087,833.7581,218.4241,843.7903,217.8008,853.8226,219.0459,863.8548,217.8619,873.8871,218.2944,883.9194,218.9242,893.9516,218.4064,903.9839,218.5604,914.0161,218.4603,924.0484,218.6707,934.0806,218.7313,944.1129,219.0779,954.1452,219.1633,964.1774,219.1715,974.2097,218.7468,984.2419,218.9558,994.2742,219.1944,1004.3065,217.771,1014.3387,219.1707,1024.371,218.1957,1034.4032,219.026,1044.4355,217.9972,1054.4677,218.4237,1064.5,218.4922,1064.5946,218.7206,1064.8473,218.6236,1065.2205,218.8175,1065.6039,219.0358,1065.9673,219.2062,1066.2678,219.2244,1066.2666,219.2239,1066.5027,219.6146,1066.3844,219.8585,1066.7947,220.3214,1067.0224,220.7086,1067,220.9922,1067.4445,220.9922,1067.613,230.7722,1066.5169,240.5522,1066.3478,250.3322,1066.3786,260.1122,1066.9411,269.8922,1066.8035,279.6722,1067.6814,289.4522,1066.8253,299.2322,1066.6569,309.0122,1067.2283,318.7922,1066.3332,328.5722,1066.4809,338.3522,1067.649,348.1322,1067.4357,357.9122,1067.7345,367.6922,1066.6782,377.4722,1067,387.2522,1067.0983,387.2929,1067.0354,387.6811,1066.5616,387.8991,1066.5311,388.3006,1066.453,388.6825,1066.2678,389.02,1066.3509,389.2207,1065.9137,389.1651,1065.6197,389.4553,1065.1365,389.2888,1064.7672,389.3972,1064.5,389.7522,1064.5,390.2558,1054.4677,389.0353,1044.4355,390.2612,1034.4032,389.9588,1024.371,389.4843,1014.3387,389.3984,1004.3065,390.211,994.2742,389.4529,984.2419,390.3441,974.2097,389.1995,964.1774,390.3696,954.1452,390.2365,944.1129,389.9972,934.0806,389.7994,924.0484,390.4788,914.0161,390.3658,903.9839,389.9215,893.9516,390.0204,883.9194,389.6219,873.8871,390.4687,863.8548,389.9071,853.8226,389.9248,843.7903,389.1439,833.7581,389.347,823.7258,390.283,813.6935,390.182,803.6613,389.7093,793.629,389.43,783.5968,389.5333,773.5645,389.066,763.5323,390.1669,753.5,389.7522,753.5943,389.98,753.2136,389.7679,752.8815,389.6733,752.4219,389.2708,752.0969,389.1933,751.7322,389.02,751.6129,388.9705,751.6733,388.7027,751.5153,388.3443,751.463,388.0298,751.0757,387.5765,751,387.2522,750.8656,387.2522,751.4435,377.4722,751.5673,367.6922,750.4875,357.9122,750.8061,348.1322,751.1493,338.3522,750.3892,328.5722,751.3534,318.7922,751.258,309.0122,750.8992,299.2322,751.1422,289.4522,751.7287,279.6722,750.6871,269.8922,751.315,260.1122,751.2856,250.3322,751.1158,240.5522,751.1409,230.7722,751,220.9922,751.0349,221.0067,750.9542,220.559,751.1695,220.234,751.2972,219.8727,751.6054,219.5861,751.7322,219.2244,751.7435,219.2516,752.1064,219.1278,752.4022,218.8419,752.7843,218.7643,753.1311,218.6016,753.5,218.4922" style="stroke:#181818;stroke-width:4;"/><text fill="#000000" font-family="Chalkduster" font-size="24" font-weight="bold" lengthAdjust="spacing" textLength="186.9083" x="815.5459" y="244.3331">Data Portal 3</text></g><!--cluster stor1--><g class="cluster" data-entity="stor1" data-source-line="15" data-uid="ent0011" id="cluster_stor1"><path d="M42,622.3822 L42,622.3822 L42.0481,622.4623 L43.0052,621.5642 L44.2442,621.1356 L45.3914,620.5541 L46.2368,619.4697 L47.5,619.0814 L47.4942,619.0474 L50.368,618.3985 L53.2713,617.9212 L56.1949,617.5633 L59.0482,616.7942 L62,616.601 L62.0245,616.8458 L63.9096,616.1284 L65.8662,616.1258 L67.8316,616.2104 L69.7462,615.7876 L71.6875,615.6317 L71.6898,615.662 L73.8489,615.4559 L76.0184,615.3876 L78.1829,615.2528 L80.3569,615.2448 L82.5,614.8236 L82.517,615.1214 L84.8297,614.9927 L87.1315,614.672 L89.4493,614.6323 L91.7678,614.6059 L94.0625,614.162 L94.0483,613.8418 L96.4634,614.3573 L98.8317,613.8184 L101.2355,614.0811 L103.6027,613.5184 L106,613.6322 L105.9991,613.6018 L110.7101,613.8171 L115.3993,613.3215 L120.1014,613.2454 L124.8046,613.2045 L129.5,612.9096 L129.5033,613.0945 L133.6,612.8336 L137.7023,612.8887 L141.7954,612.4325 L145.9023,612.7391 L150,612.5385 L150.0019,612.7821 L154.0015,612.7048 L158.0021,612.7484 L161.9983,612.23 L165.9977,612.1236 L170,612.3822 L170,612.3822 L169.9978,612.106 L173.9998,612.3873 L177.9993,612.3574 L182.0024,612.7788 L185.9994,612.4296 L190,612.5385 L189.9972,612.386 L194.1018,612.7141 L198.1946,612.3906 L202.2958,612.5304 L206.4052,613.1237 L210.5,612.9096 L210.506,613.1031 L215.21,613.3804 L219.8956,613.0557 L224.6044,613.4849 L229.3081,613.75 L234,613.6322 L233.9907,613.4225 L236.3856,613.6956 L238.7775,613.9001 L241.1753,614.2395 L243.5499,614.0542 L245.9375,614.162 L245.9492,614.3672 L248.2359,614.0486 L250.5453,614.1261 L252.8878,614.7824 L255.1693,614.3732 L257.5,614.8236 L257.5169,615.0492 L259.6693,615.0768 L261.8161,615.0281 L263.9758,615.1517 L266.1652,615.6734 L268.3125,615.6317 L268.2993,615.4993 L270.2762,616.0873 L272.163,615.775 L274.1523,616.4863 L276.0839,616.6213 L278,616.601 L278.0184,616.7083 L280.9035,617.1177 L283.8545,617.9115 L286.746,618.358 L289.6127,618.6595 L292.5,619.0814 L292.5613,619.1836 L293.5702,619.6919 L294.8639,620.6748 L295.8354,621.1209 L296.9395,621.7878 L298,622.3822 L296.3777,622.3822 L296.9194,632.123 L299.4153,641.8637 L299.146,651.6045 L297.8855,661.3453 L297.1409,671.0861 L297.4162,680.8268 L296.1702,690.5676 L299.106,700.3084 L299.9722,710.0491 L299.4037,719.7899 L299.8532,729.5307 L297.6354,739.2714 L298,749.0122 L298,749.0122 L298.0199,749.0454 L296.8114,749.5247 L295.865,750.4408 L294.7564,751.0867 L293.7263,751.8633 L292.5,752.313 L292.4828,752.2124 L289.5899,752.7502 L286.7332,753.4995 L283.8425,754.0498 L280.8616,754.0728 L278,754.7935 L277.9914,754.7077 L276.0691,755.0533 L274.098,754.911 L272.2031,755.5313 L270.2614,755.6829 L268.3125,755.7627 L268.3092,755.718 L266.1547,755.9874 L264.0116,756.4089 L261.8146,756.1089 L259.6729,756.5488 L257.5,756.5708 L257.5073,756.6976 L255.1904,756.7545 L252.8786,756.898 L250.5654,757.0181 L248.2342,756.8232 L245.9375,757.2324 L245.9296,757.0545 L243.5409,757.1335 L241.1638,757.4727 L238.7767,757.5894 L236.3907,757.7281 L234,757.7622 L233.996,757.6329 L229.2991,757.8767 L224.5984,757.9979 L219.9079,758.4521 L215.2058,758.5298 L210.5,758.4849 L210.4961,758.2691 L206.3994,758.5267 L202.2954,758.3768 L198.2023,758.8357 L194.1049,759.0521 L190,758.856 L190.0019,759.098 L185.9985,758.6936 L182.0016,759.1247 L177.9974,758.6196 L174.0007,759.0699 L170,759.0122 L170,759.0122 L169.999,758.8792 L166.0003,759.0239 L162.0008,759.0565 L158.0016,759.1283 L153.9975,758.5673 L150,758.856 L150.0038,759.0672 L145.9014,758.8609 L141.8029,758.8654 L137.706,758.9656 L133.6,758.5615 L129.5,758.4849 L129.5024,758.5627 L124.8029,758.4352 L120.1027,758.2834 L115.4,758.0509 L110.7097,758.2225 L106,757.7622 L105.988,757.4915 L103.6236,757.9072 L101.2127,757.2732 L98.8269,757.2044 L96.4508,757.3561 L94.0625,757.2324 L94.0632,757.245 L91.7375,756.8814 L89.448,757.1514 L87.1278,756.8838 L84.831,757.0256 L82.5,756.5708 L82.5221,756.8665 L80.3227,756.2105 L78.1618,756.0712 L76.0082,756.0287 L73.8618,756.0819 L71.6875,755.7627 L71.7053,755.9409 L69.7633,755.702 L67.7974,755.2238 L65.9032,755.4626 L63.9655,755.2676 L62,754.7935 L61.9965,754.7727 L59.0821,754.1926 L56.1699,753.6254 L53.2839,753.2112 L50.4103,752.8693 L47.5,752.313 L47.4844,752.2869 L46.3044,751.4936 L45.4115,751.1784 L44.095,750.1576 L43.2149,749.8638 L42,749.0122 L43.1393,749.0122 L42.9916,739.2714 L43.8467,729.5307 L41.3443,719.7899 L41.1983,710.0491 L43.3837,700.3084 L40.4083,690.5676 L41.376,680.8268 L42.308,671.0861 L42.1832,661.3453 L41.0441,651.6045 L41.8854,641.8637 L43.9856,632.123 L42,622.3822" fill="none" style="stroke:#181818;stroke-width:4;"/><path d="M42,622.3822 L42,622.3822 L42.0481,622.4623 L43.0052,622.8845 L44.2442,623.7762 L45.3914,624.515 L46.2368,624.751 L47.5,625.683 L47.4942,625.6489 L50.368,625.9922 L53.2713,626.5072 L56.1949,627.1414 L59.0482,627.3645 L62,628.1635 L62.0245,628.4083 L63.9096,628.0786 L65.8662,628.4637 L67.8316,628.936 L69.7462,628.9009 L71.6875,629.1327 L71.6898,629.1629 L73.8489,629.2802 L76.0184,629.5351 L78.1829,629.7235 L80.3569,630.0388 L82.5,629.9408 L82.517,630.2386 L84.8297,630.3745 L87.1315,630.3184 L89.4493,630.5435 L91.7678,630.7817 L94.0625,630.6024 L94.0483,630.2822 L96.4634,631.0096 L98.8317,630.6827 L101.2355,631.1573 L103.6027,630.8065 L106,631.1322 L105.9991,631.1018 L110.7101,631.6062 L115.3993,631.3996 L120.1014,631.6126 L124.8046,631.8608 L129.5,631.8549 L129.5033,632.0398 L133.6,631.9274 L137.7023,632.1309 L141.7954,631.8232 L145.9023,632.2781 L150,632.226 L150.0019,632.4696 L154.0015,632.4548 L158.0021,632.5609 L161.9983,632.105 L165.9977,632.0611 L170,632.3822 L170,632.3822 L169.9978,632.106 L173.9998,632.3248 L177.9993,632.2324 L182.0024,632.5913 L185.9994,632.1796 L190,632.226 L189.9972,632.0735 L194.1018,632.2532 L198.1946,631.7812 L202.2958,631.7726 L206.4052,632.2175 L210.5,631.8549 L210.506,632.0484 L215.21,632.0366 L219.8956,631.4229 L224.6044,631.5631 L229.3081,631.539 L234,631.1322 L233.9907,630.9225 L236.3856,630.9837 L238.7775,630.9762 L241.1753,631.1037 L243.5499,630.7065 L245.9375,630.6024 L245.9492,630.8077 L248.2359,630.2244 L250.5453,630.0373 L252.8878,630.4289 L255.1693,629.755 L257.5,629.9408 L257.5169,630.1664 L259.6693,629.8708 L261.8161,629.4988 L263.9758,629.2991 L266.1652,629.4976 L268.3125,629.1327 L268.2993,629.0003 L270.2762,629.2006 L272.163,628.5006 L274.1523,628.8242 L276.0839,628.5715 L278,628.1635 L278.0184,628.2708 L280.9035,627.6881 L283.8545,627.4896 L286.746,626.944 L289.6127,626.2532 L292.5,625.683 L292.5613,625.7852 L293.5702,624.9732 L294.8639,624.6357 L295.8354,623.7615 L296.9395,623.1081 L298,622.3822" fill="none" style="stroke:#181818;stroke-width:4;"/><text fill="#000000" font-family="Chalkduster" font-size="24" font-weight="bold" lengthAdjust="spacing" textLength="127.0011" x="106.4994" y="658.2231">Storage 1</text></g><!--cluster stor2--><g class="cluster" data-entity="stor2" data-source-line="19" data-uid="ent0014" id="cluster_stor2"><path d="M338,622.3822 L338,622.3822 L338.0466,622.4632 L339.0554,621.5624 L340.3374,621.1364 L341.5304,620.5557 L342.4309,619.4668 L343.7363,619.0814 L343.7307,619.0473 L346.7303,618.3983 L349.758,617.921 L352.8053,617.5633 L355.785,616.7938 L358.8594,616.601 L358.8829,616.8459 L360.8534,616.1283 L362.8925,616.1258 L364.94,616.2105 L366.9387,615.7876 L368.9631,615.6317 L368.9653,615.662 L371.2175,615.4559 L373.4796,615.3876 L375.737,615.2529 L378.0034,615.2449 L380.2402,614.8236 L380.2566,615.1214 L382.6686,614.9927 L385.0702,614.672 L387.4871,614.6324 L389.9048,614.606 L392.2996,614.162 L392.2859,613.8418 L394.8025,614.3573 L397.2741,613.8184 L399.7799,614.0812 L402.2506,613.5184 L404.75,613.6322 L404.7491,613.6018 L409.6617,613.8171 L414.5533,613.3215 L419.4572,613.2454 L424.3622,613.2045 L429.2598,612.9096 L429.263,613.0945 L433.5359,612.8336 L437.8143,612.8887 L442.0839,612.4325 L446.3666,612.7391 L450.6406,612.5385 L450.6424,612.7821 L454.814,612.7048 L458.9864,612.7484 L463.1546,612.23 L467.326,612.1236 L471.5,612.3822 L471.5,612.3822 L471.4979,612.106 L475.6717,612.3873 L479.8431,612.3574 L484.0179,612.7788 L488.1869,612.4296 L492.3594,612.5385 L492.3567,612.386 L496.6373,612.7141 L500.9066,612.3906 L505.1839,612.5304 L509.4691,613.1237 L513.7402,612.9096 L513.7459,613.1031 L518.6518,613.3804 L523.5399,613.0557 L528.4503,613.485 L533.3558,613.75 L538.25,613.6322 L538.2411,613.4224 L540.7383,613.6956 L543.2326,613.9001 L545.7326,614.2395 L548.2103,614.0542 L550.7004,614.162 L550.7117,614.3673 L553.0988,614.0486 L555.5077,614.1261 L557.9483,614.7825 L560.3304,614.3731 L562.7598,614.8236 L562.7759,615.0492 L565.0217,615.0768 L567.2621,615.0281 L569.5148,615.1517 L571.796,615.6735 L574.0369,615.6317 L574.0242,615.4993 L576.0827,616.0874 L578.0549,615.7749 L580.1253,616.4864 L582.1404,616.6214 L584.1406,616.601 L584.1582,616.7084 L587.1686,617.1178 L590.2421,617.9118 L593.2586,618.3583 L596.2512,618.6596 L599.2637,619.0814 L599.3231,619.1847 L600.3821,619.6914 L601.717,620.6777 L602.7398,621.1216 L603.891,621.7885 L605,622.3822 L603.3777,622.3822 L603.9194,632.123 L606.4153,641.8637 L606.146,651.6045 L604.8855,661.3453 L604.1409,671.0861 L604.4162,680.8268 L603.1702,690.5676 L606.106,700.3084 L606.9722,710.0491 L606.4037,719.7899 L606.8532,729.5307 L604.6354,739.2714 L605,749.0122 L605,749.0122 L605.0193,749.0458 L603.7668,749.5231 L602.7684,750.4419 L601.6129,751.0877 L600.5334,751.8656 L599.2637,752.313 L599.2472,752.2123 L596.2294,752.7501 L593.2464,753.4997 L590.2307,754.0501 L587.1284,754.0726 L584.1406,754.7935 L584.1324,754.7077 L582.1262,755.0533 L580.0732,754.9109 L578.0934,755.5313 L576.0686,755.683 L574.0369,755.7627 L574.0337,755.718 L571.786,755.9874 L569.5492,756.409 L567.2607,756.1089 L565.0252,756.5488 L562.7598,756.5708 L562.7667,756.6976 L560.3507,756.7545 L557.9395,756.898 L555.5269,757.0181 L553.0971,756.8231 L550.7004,757.2324 L550.6929,757.0544 L548.2016,757.1334 L545.7215,757.4727 L543.2318,757.5894 L540.7431,757.7281 L538.25,757.7622 L538.2462,757.6329 L533.3472,757.8767 L528.4445,757.9979 L523.5517,758.4521 L518.6478,758.5298 L513.7402,758.4849 L513.7365,758.2691 L509.4635,758.5267 L505.1834,758.3768 L500.9139,758.8357 L496.6402,759.0521 L492.3594,758.856 L492.3612,759.098 L488.1861,758.6936 L484.0172,759.1247 L479.8413,758.6196 L475.6725,759.0699 L471.5,759.0122 L471.5,759.0122 L471.499,758.8792 L467.3284,759.0239 L463.1571,759.0565 L458.9859,759.1283 L454.8101,758.5673 L450.6406,758.856 L450.6443,759.0673 L446.3658,758.8609 L442.091,758.8654 L437.8179,758.9656 L433.536,758.5615 L429.2598,758.4849 L429.2621,758.5627 L424.3606,758.4352 L419.4584,758.2834 L414.5539,758.0509 L409.6613,758.2225 L404.75,757.7622 L404.7385,757.4915 L402.2706,757.9073 L399.758,757.2732 L397.2695,757.2044 L394.7904,757.3561 L392.2996,757.2324 L392.3002,757.245 L389.8757,756.8814 L387.4859,757.1514 L385.0666,756.8838 L382.6698,757.0256 L380.2402,756.5708 L380.2614,756.8665 L377.9706,756.2105 L375.7168,756.0712 L373.4699,756.0287 L371.2298,756.0819 L368.9631,755.7627 L368.9802,755.941 L366.9552,755.7021 L364.9071,755.2237 L362.9279,755.4627 L360.907,755.2677 L358.8594,754.7935 L358.856,754.7727 L355.8176,754.1925 L352.7813,753.6252 L349.7701,753.2111 L346.7708,752.8694 L343.7363,752.313 L343.7212,752.2866 L342.4965,751.4919 L341.5498,751.1804 L340.1928,750.1557 L339.2586,749.8659 L338,749.0122 L339.1393,749.0122 L338.9916,739.2714 L339.8467,729.5307 L337.3443,719.7899 L337.1983,710.0491 L339.3837,700.3084 L336.4083,690.5676 L337.376,680.8268 L338.308,671.0861 L338.1832,661.3453 L337.0441,651.6045 L337.8854,641.8637 L339.9856,632.123 L338,622.3822" fill="none" style="stroke:#181818;stroke-width:4;"/><path d="M338,622.3822 L338,622.3822 L338.0466,622.4632 L339.0554,622.8828 L340.3374,623.777 L341.5304,624.5166 L342.4309,624.748 L343.7363,625.683 L343.7307,625.6489 L346.7303,625.992 L349.758,626.507 L352.8053,627.1414 L355.785,627.3641 L358.8594,628.1635 L358.8829,628.4084 L360.8534,628.0785 L362.8925,628.4637 L364.94,628.9361 L366.9387,628.9009 L368.9631,629.1327 L368.9653,629.1629 L371.2175,629.2802 L373.4796,629.5351 L375.737,629.7236 L378.0034,630.0388 L380.2402,629.9408 L380.2566,630.2386 L382.6686,630.3746 L385.0702,630.3185 L387.4871,630.5435 L389.9048,630.7817 L392.2996,630.6024 L392.2859,630.2822 L394.8025,631.0097 L397.2741,630.6827 L399.7799,631.1573 L402.2506,630.8064 L404.75,631.1322 L404.7491,631.1018 L409.6617,631.6062 L414.5533,631.3996 L419.4572,631.6126 L424.3622,631.8608 L429.2598,631.8549 L429.263,632.0398 L433.5359,631.9274 L437.8143,632.1309 L442.0839,631.8232 L446.3666,632.2781 L450.6406,632.226 L450.6424,632.4696 L454.814,632.4548 L458.9864,632.5609 L463.1546,632.105 L467.326,632.0611 L471.5,632.3822 L471.5,632.3822 L471.4979,632.106 L475.6717,632.3248 L479.8431,632.2324 L484.0179,632.5913 L488.1869,632.1796 L492.3594,632.226 L492.3567,632.0735 L496.6373,632.2532 L500.9066,631.7812 L505.1839,631.7726 L509.4691,632.2175 L513.7402,631.8549 L513.7459,632.0484 L518.6518,632.0366 L523.5399,631.4228 L528.4503,631.5631 L533.3558,631.539 L538.25,631.1322 L538.2411,630.9224 L540.7383,630.9837 L543.2326,630.9762 L545.7326,631.1037 L548.2103,630.7065 L550.7004,630.6024 L550.7117,630.8077 L553.0988,630.2243 L555.5077,630.0372 L557.9483,630.4289 L560.3304,629.755 L562.7598,629.9408 L562.7759,630.1664 L565.0217,629.8708 L567.2621,629.4988 L569.5148,629.2991 L571.796,629.4977 L574.0369,629.1327 L574.0242,629.0003 L576.0827,629.2007 L578.0549,628.5005 L580.1253,628.8243 L582.1404,628.5716 L584.1406,628.1635 L584.1582,628.2709 L587.1686,627.6881 L590.2421,627.49 L593.2586,626.9443 L596.2512,626.2533 L599.2637,625.683 L599.3231,625.7863 L600.3821,624.9727 L601.717,624.6387 L602.7398,623.7622 L603.891,623.1088 L605,622.3822" fill="none" style="stroke:#181818;stroke-width:4;"/><text fill="#000000" font-family="Chalkduster" font-size="24" font-weight="bold" lengthAdjust="spacing" textLength="125.9934" x="408.5033" y="658.2231">Storage 2</text></g><!--cluster stor3--><g class="cluster" data-entity="stor3" data-source-line="23" data-uid="ent0017" id="cluster_stor3"><path d="M648,622.3822 L648,622.3822 L648.0477,622.4626 L649.0189,621.5637 L650.2696,621.1358 L651.4293,620.5545 L652.2898,619.4689 L653.5645,619.0814 L653.5587,619.0474 L656.4668,618.3984 L659.404,617.9212 L662.3614,617.5633 L665.2492,616.7941 L668.2344,616.601 L668.2586,616.8458 L670.167,616.1283 L672.1461,616.1258 L674.1339,616.2105 L676.0714,615.7876 L678.0354,615.6317 L678.0376,615.662 L680.2222,615.4559 L682.4169,615.3876 L684.6068,615.2529 L686.8059,615.2448 L688.9746,614.8236 L688.9915,615.1214 L691.3313,614.9927 L693.6602,614.672 L696.005,614.6324 L698.3506,614.6059 L700.6726,614.162 L700.6586,613.8418 L703.1013,614.3573 L705.4978,613.8184 L707.9294,614.0811 L710.3249,613.5184 L712.75,613.6322 L712.7491,613.6018 L717.5151,613.8171 L722.2595,613.3215 L727.0167,613.2454 L731.7749,613.2045 L736.5254,612.9096 L736.5287,613.0945 L740.6734,612.8336 L744.8238,612.8887 L748.965,612.4325 L753.1198,612.7391 L757.2656,612.5385 L757.2675,612.7821 L761.314,612.7048 L765.3615,612.7484 L769.4046,612.23 L773.4509,612.1236 L777.5,612.3822 L777.5,612.3822 L777.4979,612.106 L781.5467,612.3873 L785.5931,612.3574 L789.643,612.7788 L793.6869,612.4296 L797.7344,612.5385 L797.7316,612.386 L801.8842,612.7141 L806.0252,612.3906 L810.1744,612.5304 L814.3317,613.1237 L818.4746,612.9096 L818.4805,613.1031 L823.2396,613.3804 L827.9804,613.0557 L832.7442,613.4849 L837.5029,613.75 L842.25,613.6322 L842.2408,613.4225 L844.6636,613.6956 L847.0834,613.9001 L849.5091,614.2395 L851.9118,614.0542 L854.3274,614.162 L854.339,614.3673 L856.6531,614.0486 L858.9896,614.1261 L861.3588,614.7824 L863.6678,614.3732 L866.0254,614.8236 L866.0421,615.0492 L868.22,615.0768 L870.3923,615.0281 L872.5773,615.1517 L874.7918,615.6734 L876.9646,615.6317 L876.9515,615.4993 L878.9507,616.0873 L880.8608,615.7749 L882.8722,616.4863 L884.8266,616.6213 L886.7656,616.601 L886.7838,616.7083 L889.7031,617.1177 L892.6874,617.9116 L895.613,618.3581 L898.5141,618.6595 L901.4355,619.0814 L901.4964,619.1839 L902.5189,619.6918 L903.8238,620.6756 L904.8093,621.1211 L905.9262,621.788 L907,622.3822 L905.3777,622.3822 L905.9194,632.123 L908.4153,641.8637 L908.146,651.6045 L906.8855,661.3453 L906.1409,671.0861 L906.4162,680.8268 L905.1702,690.5676 L908.106,700.3084 L908.9722,710.0491 L908.4037,719.7899 L908.8532,729.5307 L906.6354,739.2714 L907,749.0122 L907,749.0122 L907.0198,749.0456 L905.7992,749.5242 L904.8386,750.4411 L903.7173,751.087 L902.6737,751.864 L901.4355,752.313 L901.4185,752.2124 L898.4916,752.7502 L895.6004,753.4995 L892.6756,754.0499 L889.6616,754.0728 L886.7656,754.7935 L886.7571,754.7077 L884.8119,755.0533 L882.8185,754.911 L880.9005,755.5313 L878.9361,755.683 L876.9646,755.7627 L876.9613,755.718 L874.7814,755.9874 L872.6128,756.4089 L870.3908,756.1089 L868.2235,756.5488 L866.0254,756.5708 L866.0326,756.6976 L863.6887,756.7545 L861.3497,756.898 L859.0094,757.0181 L856.6513,756.8231 L854.3274,757.2324 L854.3196,757.0545 L851.9029,757.1335 L849.4977,757.4727 L847.0827,757.5894 L844.6686,757.7281 L842.25,757.7622 L842.2461,757.6329 L837.494,757.8767 L832.7382,757.9979 L827.9926,758.4521 L823.2354,758.5298 L818.4746,758.4849 L818.4707,758.2691 L814.326,758.5267 L810.1739,758.3768 L806.0328,758.8357 L801.8873,759.0521 L797.7344,758.856 L797.7362,759.098 L793.686,758.6936 L789.6422,759.1247 L785.5912,758.6196 L781.5476,759.0699 L777.5,759.0122 L777.5,759.0122 L777.499,758.8792 L773.4535,759.0239 L769.4071,759.0565 L765.361,759.1283 L761.31,758.5673 L757.2656,758.856 L757.2694,759.0672 L753.119,758.8609 L748.9724,758.8654 L744.8274,758.9656 L740.6735,758.5615 L736.5254,758.4849 L736.5278,758.5627 L731.7732,758.4352 L727.0179,758.2834 L722.2601,758.0509 L717.5147,758.2225 L712.75,757.7622 L712.7381,757.4915 L710.3455,757.9072 L707.9069,757.2732 L705.493,757.2044 L703.0889,757.3561 L700.6726,757.2324 L700.6733,757.245 L698.3206,756.8814 L696.0038,757.1514 L693.6565,756.8838 L691.3324,757.0256 L688.9746,756.5708 L688.9965,756.8665 L686.7721,756.2105 L684.5859,756.0712 L682.4069,756.0287 L680.2349,756.0819 L678.0354,755.7627 L678.053,755.9409 L676.0884,755.702 L674.1,755.2238 L672.1826,755.4626 L670.2223,755.2676 L668.2344,754.7935 L668.2309,754.7727 L665.2827,754.1926 L662.3367,753.6254 L659.4165,753.2111 L656.5086,752.8693 L653.5645,752.313 L653.5489,752.2868 L652.3568,751.4931 L651.4492,751.179 L650.1217,750.1571 L649.2268,749.8644 L648,749.0122 L649.1393,749.0122 L648.9916,739.2714 L649.8467,729.5307 L647.3443,719.7899 L647.1983,710.0491 L649.3837,700.3084 L646.4083,690.5676 L647.376,680.8268 L648.308,671.0861 L648.1832,661.3453 L647.0441,651.6045 L647.8854,641.8637 L649.9856,632.123 L648,622.3822" fill="none" style="stroke:#181818;stroke-width:4;"/><path d="M648,622.3822 L648,622.3822 L648.0477,622.4626 L649.0189,622.884 L650.2696,623.7764 L651.4293,624.5155 L652.2898,624.7501 L653.5645,625.683 L653.5587,625.6489 L656.4668,625.9922 L659.404,626.5071 L662.3614,627.1414 L665.2492,627.3644 L668.2344,628.1635 L668.2586,628.4083 L670.167,628.0785 L672.1461,628.4637 L674.1339,628.936 L676.0714,628.9009 L678.0354,629.1327 L678.0376,629.1629 L680.2222,629.2802 L682.4169,629.5351 L684.6068,629.7236 L686.8059,630.0388 L688.9746,629.9408 L688.9915,630.2386 L691.3313,630.3745 L693.6602,630.3184 L696.005,630.5435 L698.3506,630.7817 L700.6726,630.6024 L700.6586,630.2822 L703.1013,631.0097 L705.4978,630.6827 L707.9294,631.1573 L710.3249,630.8065 L712.75,631.1322 L712.7491,631.1018 L717.5151,631.6062 L722.2595,631.3996 L727.0167,631.6126 L731.7749,631.8608 L736.5254,631.8549 L736.5287,632.0398 L740.6734,631.9274 L744.8238,632.1309 L748.965,631.8232 L753.1198,632.2781 L757.2656,632.226 L757.2675,632.4696 L761.314,632.4548 L765.3615,632.5609 L769.4046,632.105 L773.4509,632.0611 L777.5,632.3822 L777.5,632.3822 L777.4979,632.106 L781.5467,632.3248 L785.5931,632.2324 L789.643,632.5913 L793.6869,632.1796 L797.7344,632.226 L797.7316,632.0735 L801.8842,632.2532 L806.0252,631.7812 L810.1744,631.7726 L814.3317,632.2175 L818.4746,631.8549 L818.4805,632.0484 L823.2396,632.0366 L827.9804,631.4229 L832.7442,631.5631 L837.5029,631.539 L842.25,631.1322 L842.2408,630.9225 L844.6636,630.9837 L847.0834,630.9762 L849.5091,631.1037 L851.9118,630.7065 L854.3274,630.6024 L854.339,630.8077 L856.6531,630.2244 L858.9896,630.0373 L861.3588,630.4289 L863.6678,629.755 L866.0254,629.9408 L866.0421,630.1664 L868.22,629.8708 L870.3923,629.4988 L872.5773,629.2991 L874.7918,629.4977 L876.9646,629.1327 L876.9515,629.0003 L878.9507,629.2006 L880.8608,628.5005 L882.8722,628.8242 L884.8266,628.5715 L886.7656,628.1635 L886.7838,628.2708 L889.7031,627.6881 L892.6874,627.4897 L895.613,626.9441 L898.5141,626.2533 L901.4355,625.683 L901.4964,625.7855 L902.5189,624.973 L903.8238,624.6365 L904.8093,623.7617 L905.9262,623.1083 L907,622.3822" fill="none" style="stroke:#181818;stroke-width:4;"/><text fill="#000000" font-family="Chalkduster" font-size="24" font-weight="bold" lengthAdjust="spacing" textLength="128.9901" x="713.005" y="658.2231">Storage 3</text></g><!--entity api1--><g class="entity" data-entity="api1" data-source-line="13" data-uid="ent0009" id="entity_api1"><polygon fill="none" points="342.96,506.7522,342.96,506.9624,353.6412,506.3379,364.3224,506.9455,375.0036,507.1519,385.6849,506.0388,396.3661,506.6745,407.0473,506.7522,406.9929,506.6209,407.3519,506.7806,407.7457,507.0241,408.0198,506.9786,408.5321,507.5085,408.8151,507.4844,408.621,507.404,408.9006,507.8128,409.241,508.2467,409.228,508.5342,409.4219,508.9074,409.5473,509.2522,409.5153,509.2522,409.7258,518.3782,409.7864,527.5041,410.133,536.6301,410.2183,545.7561,409.5473,554.882,409.7565,554.9687,409.4793,555.2681,409.3972,555.6483,409.3242,556.0323,408.7394,556.2043,408.8151,556.6498,408.9016,556.8588,408.4237,556.7049,408.176,557.1071,407.6913,556.9367,407.3921,557.2145,407.0473,557.382,407.0473,558.1236,396.3661,557.3333,385.6849,557.4873,375.0036,557.7207,364.3224,557.7983,353.6412,557.3781,342.96,557.382,342.9966,557.4705,342.5334,557.0593,342.2892,557.1767,341.9693,557.1115,341.6025,556.9332,341.1922,556.6498,341.381,556.728,340.897,556.2346,340.6985,555.8595,340.5615,555.5099,340.5883,555.2281,340.46,554.882,340.2635,554.882,341.1414,545.7561,340.2853,536.6301,340.1169,527.5041,340.6883,518.3782,340.46,509.2522,340.2546,509.1671,340.4466,508.8324,340.9527,508.6279,341.0335,508.2471,341.272,507.9317,341.1922,507.4844,341.1512,507.3853,341.5865,507.4363,341.9747,507.3734,342.1926,506.8996,342.5942,506.8691,342.96,506.7522" style="stroke:#181818;stroke-width:4;"/><text fill="#000000" font-family="Chalkduster" font-size="24" lengthAdjust="spacing" textLength="49.0873" x="350.46" y="540.5931">API</text></g><!--entity api2--><g class="entity" data-entity="api2" data-source-line="14" data-uid="ent0010" id="entity_api2"><polygon fill="none" points="866.96,506.7522,866.96,506.9624,877.6412,506.3379,888.3224,506.9455,899.0036,507.1519,909.6849,506.0388,920.3661,506.6745,931.0473,506.7522,930.9929,506.6209,931.3519,506.7806,931.7457,507.0241,932.0198,506.9786,932.5321,507.5085,932.8151,507.4844,932.621,507.404,932.9006,507.8128,933.241,508.2467,933.228,508.5342,933.4219,508.9074,933.5473,509.2522,933.5153,509.2522,933.7258,518.3782,933.7864,527.5041,934.133,536.6301,934.2183,545.7561,933.5473,554.882,933.7565,554.9687,933.4793,555.2681,933.3972,555.6483,933.3242,556.0323,932.7394,556.2043,932.8151,556.6498,932.9016,556.8588,932.4237,556.7049,932.176,557.1071,931.6913,556.9367,931.3921,557.2145,931.0473,557.382,931.0473,558.1236,920.3661,557.3333,909.6849,557.4873,899.0036,557.7207,888.3224,557.7983,877.6412,557.3781,866.96,557.382,866.9966,557.4705,866.5334,557.0593,866.2892,557.1767,865.9693,557.1115,865.6025,556.9332,865.1922,556.6498,865.381,556.728,864.897,556.2346,864.6985,555.8595,864.5615,555.5099,864.5883,555.2281,864.46,554.882,864.2635,554.882,865.1414,545.7561,864.2853,536.6301,864.1169,527.5041,864.6883,518.3782,864.46,509.2522,864.2546,509.1671,864.4466,508.8324,864.9527,508.6279,865.0335,508.2471,865.272,507.9317,865.1922,507.4844,865.1512,507.3853,865.5865,507.4363,865.9747,507.3734,866.1926,506.8996,866.5942,506.8691,866.96,506.7522" style="stroke:#181818;stroke-width:4;"/><text fill="#000000" font-family="Chalkduster" font-size="24" lengthAdjust="spacing" textLength="49.0873" x="874.46" y="540.5931">API</text></g><!--entity i1--><g class="entity" data-entity="i1" data-source-line="5" data-uid="ent0004" id="entity_i1"><path d="M62.81,285.4922 L62.81,285.4922 L62.8591,285.5717 L63.7804,284.6754 L64.9897,284.245 L66.1053,283.6628 L66.9123,282.5819 L68.1464,282.1914 L68.1404,282.1574 L70.9272,281.5087 L73.7443,281.0314 L76.5823,280.6733 L79.348,279.9044 L82.215,279.711 L82.2369,279.956 L86.1681,279.0765 L90.1633,278.9125 L94.1662,278.8358 L98.1238,278.2511 L102.1052,277.9336 L102.107,277.9639 L104.3481,277.7871 L106.5973,277.7482 L108.8426,277.6427 L111.0954,277.6642 L113.3237,277.272 L113.3374,277.5699 L115.654,277.4676 L117.9619,277.1731 L120.2826,277.1599 L122.6039,277.1599 L124.9061,276.7422 L124.896,276.4218 L129.4759,276.8991 L134.0223,276.3214 L138.5942,276.5457 L143.1399,275.9442 L147.7071,276.0196 L147.7065,275.9891 L151.6912,276.2749 L155.6627,275.8495 L159.642,275.8437 L163.622,275.8732 L167.5972,275.6485 L167.5987,275.8334 L171.4782,275.6155 L175.3603,275.7136 L179.2382,275.3003 L183.1223,275.6499 L187.0023,275.4922 L187.0023,275.4922 L187.0042,275.7358 L190.8849,275.721 L194.7665,275.8272 L198.6436,275.3713 L202.524,275.3274 L206.4073,275.6485 L206.4022,275.3723 L210.3849,275.6965 L214.3617,275.7096 L218.3471,276.1739 L222.318,275.8677 L226.2975,276.0196 L226.2926,275.8672 L230.8609,276.2655 L235.4085,276.0124 L239.9707,276.2225 L244.5474,276.886 L249.0984,276.7422 L249.1073,276.9356 L251.4298,277.1743 L253.7248,276.8113 L256.0543,277.2018 L258.3763,277.4282 L260.6808,277.272 L260.6684,277.0624 L262.922,277.3618 L265.1715,277.5925 L267.429,277.9581 L269.6555,277.7994 L271.8993,277.9336 L271.9176,278.1384 L275.8555,278.0439 L279.8286,278.3447 L283.8533,279.223 L287.7831,279.0381 L291.7895,279.711 L291.8288,279.9337 L294.6192,280.2975 L297.3963,280.5859 L300.2034,281.0444 L303.0798,281.8961 L305.8582,282.1914 L305.7882,282.0783 L307.0638,283.0753 L307.8635,283.3028 L309.2043,284.4053 L310.2405,285.0151 L311.1945,285.4922 L311.8478,285.4922 L311.3205,295.5293 L313.1322,305.5664 L312.8307,315.6035 L311.6459,325.6406 L311.9097,335.6777 L310.8472,345.7148 L311.1945,355.7519 L311.1945,355.7519 L311.362,356.0227 L310.1635,356.4706 L309.1003,357.1374 L307.8505,357.5024 L306.8307,358.2393 L305.8582,359.0527 L305.8991,359.285 L303.0776,359.7369 L300.2274,360.0261 L297.3921,360.3999 L294.5863,360.9412 L291.7895,361.5331 L291.7624,361.2294 L287.8279,362.0722 L283.8627,362.5715 L279.8762,362.8326 L275.9048,363.2626 L271.8993,363.3105 L271.8957,363.2498 L269.6579,363.4815 L267.4018,363.4032 L265.1756,363.8335 L262.931,363.9493 L260.6808,363.9721 L260.692,364.2173 L258.3596,363.9761 L256.0451,364.1243 L253.7404,364.4869 L251.4264,364.6478 L249.0984,364.5019 L249.0912,364.2742 L244.5355,364.5603 L239.9801,364.8572 L235.4092,364.6641 L230.8626,365.237 L226.2975,365.2245 L226.2996,365.3392 L222.3186,365.254 L218.3426,365.4362 L214.3694,365.771 L210.3828,365.3824 L206.4073,365.5956 L206.4084,365.7356 L202.5273,365.7538 L198.6457,365.7096 L194.7648,365.752 L190.8837,365.7711 L187.0023,365.7519 L187.0023,365.7519 L187,365.4745 L183.1198,365.5425 L179.2386,365.4843 L175.3595,365.6865 L171.4786,365.666 L167.5972,365.5956 L167.5986,365.6675 L163.6168,365.3921 L159.6406,365.4172 L155.6621,365.3196 L151.6899,365.5551 L147.7071,365.2245 L147.7131,365.414 L143.14,364.8643 L138.5857,364.9031 L134.0184,364.5345 L129.4704,364.7745 L124.9061,364.5019 L124.9185,364.772 L122.6007,364.6377 L120.2643,364.0966 L117.9661,364.39 L115.6251,363.7483 L113.3237,363.9721 L113.329,364.0609 L111.0722,363.707 L108.8389,363.7504 L106.5989,363.6818 L104.3613,363.6523 L102.1052,363.3105 L102.0767,362.9918 L98.146,363.1655 L94.1562,362.6784 L90.1852,362.4014 L86.2227,362.2196 L82.215,361.5331 L82.2155,361.5355 L79.4148,361.1137 L76.6041,360.6344 L73.7891,360.1312 L70.9601,359.5484 L68.1464,359.0527 L68.3125,359.3213 L66.9366,358.162 L66.144,357.946 L64.7987,356.8363 L63.751,356.2078 L62.81,355.7519 L62.9167,355.7519 L62.8854,345.7148 L61.4958,335.6777 L63.9132,325.6406 L63.1003,315.6035 L64.7478,305.5664 L64.5889,295.5293 L62.81,285.4922" fill="none" style="stroke:#181818;stroke-width:4;"/><path d="M62.81,285.4922 L62.81,285.4922 L62.8591,285.5717 L63.7804,285.9958 L64.9897,286.8856 L66.1053,287.6238 L66.9123,287.8632 L68.1464,288.793 L68.1404,288.759 L70.9272,289.1024 L73.7443,289.6173 L76.5823,290.2514 L79.348,290.4748 L82.215,291.2735 L82.2369,291.5185 L86.1681,291.3499 L90.1633,291.8969 L94.1662,292.5311 L98.1238,292.6574 L102.1052,293.0508 L102.107,293.0811 L104.3481,293.169 L106.5973,293.3947 L108.8426,293.5539 L111.0954,293.84 L113.3237,293.7124 L113.3374,294.0104 L115.654,294.12 L117.9619,294.0374 L120.2826,294.2361 L122.6039,294.448 L124.9061,294.2422 L124.896,293.9218 L129.4759,294.6882 L134.0223,294.3996 L138.5942,294.9129 L143.1399,294.6004 L147.7071,294.9649 L147.7065,294.9344 L151.6912,295.3686 L155.6627,295.0916 L159.642,295.2343 L163.622,295.4122 L167.5972,295.336 L167.5987,295.5209 L171.4782,295.3655 L175.3603,295.5261 L179.2382,295.1753 L183.1223,295.5874 L187.0023,295.4922 L187.0023,295.4922 L187.0042,295.7358 L190.8849,295.6585 L194.7665,295.7022 L198.6436,295.1838 L202.524,295.0774 L206.4073,295.336 L206.4022,295.0598 L210.3849,295.2356 L214.3617,295.1002 L218.3471,295.4161 L222.318,294.9615 L226.2975,294.9649 L226.2926,294.8125 L230.8609,294.9217 L235.4085,294.3796 L239.9707,294.3007 L244.5474,294.675 L249.0984,294.2422 L249.1073,294.4356 L251.4298,294.4624 L253.7248,293.8874 L256.0543,294.0661 L258.3763,294.0805 L260.6808,293.7124 L260.6684,293.5028 L262.922,293.5376 L265.1715,293.5037 L267.429,293.6046 L269.6555,293.1813 L271.8993,293.0508 L271.9176,293.2556 L275.8555,292.4502 L279.8286,292.0401 L283.8533,292.2073 L287.7831,291.3116 L291.7895,291.2735 L291.8288,291.4962 L294.6192,290.8678 L297.3963,290.164 L300.2034,289.6303 L303.0798,289.4899 L305.8582,288.793 L305.7882,288.6799 L307.0638,288.3565 L307.8635,287.2638 L309.2043,287.0459 L310.2405,286.3354 L311.1945,285.4922" fill="none" style="stroke:#181818;stroke-width:4;"/><text fill="#000000" font-family="Chalkduster" font-size="24" lengthAdjust="spacing" textLength="228.3845" x="72.81" y="323.3331">Discovery Index:</text><text fill="#000000" font-family="Chalkduster" font-size="24" lengthAdjust="spacing" textLength="35.4298" x="84.7437" y="353.9629">1,2</text></g><!--entity i2--><g class="entity" data-entity="i2" data-source-line="8" data-uid="ent0006" id="entity_i2"><path d="M418.81,285.4922 L418.81,285.4922 L418.8591,285.5717 L419.7804,284.6754 L420.9897,284.245 L422.1053,283.6628 L422.9123,282.5819 L424.1464,282.1914 L424.1404,282.1574 L426.9272,281.5087 L429.7443,281.0314 L432.5823,280.6733 L435.348,279.9044 L438.215,279.711 L438.2369,279.956 L442.1681,279.0765 L446.1633,278.9125 L450.1662,278.8358 L454.1238,278.2511 L458.1052,277.9336 L458.107,277.9639 L460.3481,277.7871 L462.5973,277.7482 L464.8426,277.6427 L467.0954,277.6642 L469.3237,277.272 L469.3374,277.5699 L471.654,277.4676 L473.9619,277.1731 L476.2826,277.1599 L478.6039,277.1599 L480.9061,276.7422 L480.896,276.4218 L485.4759,276.8991 L490.0223,276.3214 L494.5942,276.5457 L499.1399,275.9442 L503.7071,276.0196 L503.7065,275.9891 L507.6912,276.2749 L511.6627,275.8495 L515.642,275.8437 L519.622,275.8732 L523.5972,275.6485 L523.5987,275.8334 L527.4782,275.6155 L531.3603,275.7136 L535.2382,275.3003 L539.1223,275.6499 L543.0023,275.4922 L543.0023,275.4922 L543.0042,275.7358 L546.8849,275.721 L550.7665,275.8272 L554.6436,275.3713 L558.524,275.3274 L562.4073,275.6485 L562.4022,275.3723 L566.3849,275.6965 L570.3617,275.7096 L574.3471,276.1739 L578.318,275.8677 L582.2975,276.0196 L582.2926,275.8672 L586.8609,276.2655 L591.4085,276.0124 L595.9707,276.2225 L600.5474,276.886 L605.0984,276.7422 L605.1073,276.9356 L607.4298,277.1743 L609.7248,276.8113 L612.0543,277.2018 L614.3763,277.4282 L616.6808,277.272 L616.6684,277.0624 L618.922,277.3618 L621.1715,277.5925 L623.429,277.9581 L625.6555,277.7994 L627.8993,277.9336 L627.9176,278.1384 L631.8555,278.0439 L635.8286,278.3447 L639.8533,279.223 L643.7831,279.0381 L647.7895,279.711 L647.8288,279.9337 L650.6192,280.2975 L653.3963,280.5859 L656.2034,281.0444 L659.0798,281.8961 L661.8582,282.1914 L661.7882,282.0783 L663.0638,283.0753 L663.8635,283.3028 L665.2043,284.4053 L666.2405,285.0151 L667.1945,285.4922 L667.8478,285.4922 L667.3205,295.5293 L669.1322,305.5664 L668.8307,315.6035 L667.6459,325.6406 L667.9097,335.6777 L666.8472,345.7148 L667.1945,355.7519 L667.1945,355.7519 L667.362,356.0227 L666.1635,356.4706 L665.1003,357.1374 L663.8505,357.5024 L662.8307,358.2393 L661.8582,359.0527 L661.8991,359.285 L659.0776,359.7369 L656.2274,360.0261 L653.3921,360.3999 L650.5863,360.9412 L647.7895,361.5331 L647.7624,361.2294 L643.8279,362.0722 L639.8627,362.5715 L635.8762,362.8326 L631.9048,363.2626 L627.8993,363.3105 L627.8957,363.2498 L625.6579,363.4815 L623.4018,363.4032 L621.1756,363.8335 L618.931,363.9493 L616.6808,363.9721 L616.692,364.2173 L614.3596,363.9761 L612.0451,364.1243 L609.7404,364.4869 L607.4264,364.6478 L605.0984,364.5019 L605.0912,364.2742 L600.5355,364.5603 L595.9801,364.8572 L591.4092,364.6641 L586.8626,365.237 L582.2975,365.2245 L582.2996,365.3392 L578.3186,365.254 L574.3426,365.4362 L570.3694,365.771 L566.3828,365.3824 L562.4073,365.5956 L562.4084,365.7356 L558.5273,365.7538 L554.6457,365.7096 L550.7648,365.752 L546.8837,365.7711 L543.0023,365.7519 L543.0023,365.7519 L543,365.4745 L539.1198,365.5425 L535.2386,365.4843 L531.3595,365.6865 L527.4786,365.666 L523.5972,365.5956 L523.5986,365.6675 L519.6168,365.3921 L515.6406,365.4172 L511.6621,365.3196 L507.6899,365.5551 L503.7071,365.2245 L503.7131,365.414 L499.14,364.8643 L494.5857,364.9031 L490.0184,364.5345 L485.4704,364.7745 L480.9061,364.5019 L480.9185,364.772 L478.6007,364.6377 L476.2643,364.0966 L473.9661,364.39 L471.6251,363.7483 L469.3237,363.9721 L469.329,364.0609 L467.0722,363.707 L464.8389,363.7504 L462.5989,363.6818 L460.3613,363.6523 L458.1052,363.3105 L458.0767,362.9918 L454.146,363.1655 L450.1562,362.6784 L446.1852,362.4014 L442.2227,362.2196 L438.215,361.5331 L438.2155,361.5355 L435.4148,361.1137 L432.6041,360.6344 L429.7891,360.1312 L426.9601,359.5484 L424.1464,359.0527 L424.3125,359.3213 L422.9366,358.162 L422.144,357.946 L420.7987,356.8363 L419.751,356.2078 L418.81,355.7519 L418.9167,355.7519 L418.8854,345.7148 L417.4958,335.6777 L419.9132,325.6406 L419.1003,315.6035 L420.7478,305.5664 L420.5889,295.5293 L418.81,285.4922" fill="none" style="stroke:#181818;stroke-width:4;"/><path d="M418.81,285.4922 L418.81,285.4922 L418.8591,285.5717 L419.7804,285.9958 L420.9897,286.8856 L422.1053,287.6238 L422.9123,287.8632 L424.1464,288.793 L424.1404,288.759 L426.9272,289.1024 L429.7443,289.6173 L432.5823,290.2514 L435.348,290.4748 L438.215,291.2735 L438.2369,291.5185 L442.1681,291.3499 L446.1633,291.8969 L450.1662,292.5311 L454.1238,292.6574 L458.1052,293.0508 L458.107,293.0811 L460.3481,293.169 L462.5973,293.3947 L464.8426,293.5539 L467.0954,293.84 L469.3237,293.7124 L469.3374,294.0104 L471.654,294.12 L473.9619,294.0374 L476.2826,294.2361 L478.6039,294.448 L480.9061,294.2422 L480.896,293.9218 L485.4759,294.6882 L490.0223,294.3996 L494.5942,294.9129 L499.1399,294.6004 L503.7071,294.9649 L503.7065,294.9344 L507.6912,295.3686 L511.6627,295.0916 L515.642,295.2343 L519.622,295.4122 L523.5972,295.336 L523.5987,295.5209 L527.4782,295.3655 L531.3603,295.5261 L535.2382,295.1753 L539.1223,295.5874 L543.0023,295.4922 L543.0023,295.4922 L543.0042,295.7358 L546.8849,295.6585 L550.7665,295.7022 L554.6436,295.1838 L558.524,295.0774 L562.4073,295.336 L562.4022,295.0598 L566.3849,295.2356 L570.3617,295.1002 L574.3471,295.4161 L578.318,294.9615 L582.2975,294.9649 L582.2926,294.8125 L586.8609,294.9217 L591.4085,294.3796 L595.9707,294.3007 L600.5474,294.675 L605.0984,294.2422 L605.1073,294.4356 L607.4298,294.4624 L609.7248,293.8874 L612.0543,294.0661 L614.3763,294.0805 L616.6808,293.7124 L616.6684,293.5028 L618.922,293.5376 L621.1715,293.5037 L623.429,293.6046 L625.6555,293.1813 L627.8993,293.0508 L627.9176,293.2556 L631.8555,292.4502 L635.8286,292.0401 L639.8533,292.2073 L643.7831,291.3116 L647.7895,291.2735 L647.8288,291.4962 L650.6192,290.8678 L653.3963,290.164 L656.2034,289.6303 L659.0798,289.4899 L661.8582,288.793 L661.7882,288.6799 L663.0638,288.3565 L663.8635,287.2638 L665.2043,287.0459 L666.2405,286.3354 L667.1945,285.4922" fill="none" style="stroke:#181818;stroke-width:4;"/><text fill="#000000" font-family="Chalkduster" font-size="24" lengthAdjust="spacing" textLength="228.3845" x="428.81" y="323.3331">Discovery Index:</text><text fill="#000000" font-family="Chalkduster" font-size="24" lengthAdjust="spacing" textLength="93.2685" x="440.7437" y="353.9629">1,2,3 4</text></g><!--entity i3--><g class="entity" data-entity="i3" data-source-line="11" data-uid="ent0008" id="entity_i3"><path d="M774.81,285.4922 L774.81,285.4922 L774.8591,285.5717 L775.7804,284.6754 L776.9897,284.245 L778.1053,283.6628 L778.9123,282.5819 L780.1464,282.1914 L780.1404,282.1574 L782.9272,281.5087 L785.7443,281.0314 L788.5823,280.6733 L791.348,279.9044 L794.215,279.711 L794.2369,279.956 L798.1681,279.0765 L802.1633,278.9125 L806.1662,278.8358 L810.1238,278.2511 L814.1052,277.9336 L814.107,277.9639 L816.3481,277.7871 L818.5973,277.7482 L820.8426,277.6427 L823.0954,277.6642 L825.3237,277.272 L825.3374,277.5699 L827.654,277.4676 L829.9619,277.1731 L832.2826,277.1599 L834.6039,277.1599 L836.9061,276.7422 L836.896,276.4218 L841.4759,276.8991 L846.0223,276.3214 L850.5942,276.5457 L855.1399,275.9442 L859.7071,276.0196 L859.7065,275.9891 L863.6912,276.2749 L867.6627,275.8495 L871.642,275.8437 L875.622,275.8732 L879.5972,275.6485 L879.5987,275.8334 L883.4782,275.6155 L887.3603,275.7136 L891.2382,275.3003 L895.1223,275.6499 L899.0023,275.4922 L899.0023,275.4922 L899.0042,275.7358 L902.8849,275.721 L906.7665,275.8272 L910.6436,275.3713 L914.524,275.3274 L918.4073,275.6485 L918.4022,275.3723 L922.3849,275.6965 L926.3617,275.7096 L930.3471,276.1739 L934.318,275.8677 L938.2975,276.0196 L938.2926,275.8672 L942.8609,276.2655 L947.4085,276.0124 L951.9707,276.2225 L956.5474,276.886 L961.0984,276.7422 L961.1073,276.9356 L963.4298,277.1743 L965.7248,276.8113 L968.0543,277.2018 L970.3763,277.4282 L972.6808,277.272 L972.6684,277.0624 L974.922,277.3618 L977.1715,277.5925 L979.429,277.9581 L981.6555,277.7994 L983.8993,277.9336 L983.9176,278.1384 L987.8555,278.0439 L991.8286,278.3447 L995.8533,279.223 L999.7831,279.0381 L1003.7895,279.711 L1003.8288,279.9337 L1006.6192,280.2975 L1009.3963,280.5859 L1012.2034,281.0444 L1015.0798,281.8961 L1017.8582,282.1914 L1017.7882,282.0783 L1019.0638,283.0753 L1019.8635,283.3028 L1021.2043,284.4053 L1022.2405,285.0151 L1023.1945,285.4922 L1023.8478,285.4922 L1023.3205,295.5293 L1025.1322,305.5664 L1024.8307,315.6035 L1023.6459,325.6406 L1023.9097,335.6777 L1022.8472,345.7148 L1023.1945,355.7519 L1023.1945,355.7519 L1023.362,356.0227 L1022.1635,356.4706 L1021.1003,357.1374 L1019.8505,357.5024 L1018.8307,358.2393 L1017.8582,359.0527 L1017.8991,359.285 L1015.0776,359.7369 L1012.2274,360.0261 L1009.3921,360.3999 L1006.5863,360.9412 L1003.7895,361.5331 L1003.7624,361.2294 L999.8279,362.0722 L995.8627,362.5715 L991.8762,362.8326 L987.9048,363.2626 L983.8993,363.3105 L983.8957,363.2498 L981.6579,363.4815 L979.4018,363.4032 L977.1756,363.8335 L974.931,363.9493 L972.6808,363.9721 L972.692,364.2173 L970.3596,363.9761 L968.0451,364.1243 L965.7404,364.4869 L963.4264,364.6478 L961.0984,364.5019 L961.0912,364.2742 L956.5355,364.5603 L951.9801,364.8572 L947.4092,364.6641 L942.8626,365.237 L938.2975,365.2245 L938.2996,365.3392 L934.3186,365.254 L930.3426,365.4362 L926.3694,365.771 L922.3828,365.3824 L918.4073,365.5956 L918.4084,365.7356 L914.5273,365.7538 L910.6457,365.7096 L906.7648,365.752 L902.8837,365.7711 L899.0023,365.7519 L899.0023,365.7519 L899,365.4745 L895.1198,365.5425 L891.2386,365.4843 L887.3595,365.6865 L883.4786,365.666 L879.5972,365.5956 L879.5986,365.6675 L875.6168,365.3921 L871.6406,365.4172 L867.6621,365.3196 L863.6899,365.5551 L859.7071,365.2245 L859.7131,365.414 L855.14,364.8643 L850.5857,364.9031 L846.0184,364.5345 L841.4704,364.7745 L836.9061,364.5019 L836.9185,364.772 L834.6007,364.6377 L832.2643,364.0966 L829.9661,364.39 L827.6251,363.7483 L825.3237,363.9721 L825.329,364.0609 L823.0722,363.707 L820.8389,363.7504 L818.5989,363.6818 L816.3613,363.6523 L814.1052,363.3105 L814.0767,362.9918 L810.146,363.1655 L806.1562,362.6784 L802.1852,362.4014 L798.2227,362.2196 L794.215,361.5331 L794.2155,361.5355 L791.4148,361.1137 L788.6041,360.6344 L785.7891,360.1312 L782.9601,359.5484 L780.1464,359.0527 L780.3125,359.3213 L778.9366,358.162 L778.144,357.946 L776.7987,356.8363 L775.751,356.2078 L774.81,355.7519 L774.9167,355.7519 L774.8854,345.7148 L773.4958,335.6777 L775.9132,325.6406 L775.1003,315.6035 L776.7478,305.5664 L776.5889,295.5293 L774.81,285.4922" fill="none" style="stroke:#181818;stroke-width:4;"/><path d="M774.81,285.4922 L774.81,285.4922 L774.8591,285.5717 L775.7804,285.9958 L776.9897,286.8856 L778.1053,287.6238 L778.9123,287.8632 L780.1464,288.793 L780.1404,288.759 L782.9272,289.1024 L785.7443,289.6173 L788.5823,290.2514 L791.348,290.4748 L794.215,291.2735 L794.2369,291.5185 L798.1681,291.3499 L802.1633,291.8969 L806.1662,292.5311 L810.1238,292.6574 L814.1052,293.0508 L814.107,293.0811 L816.3481,293.169 L818.5973,293.3947 L820.8426,293.5539 L823.0954,293.84 L825.3237,293.7124 L825.3374,294.0104 L827.654,294.12 L829.9619,294.0374 L832.2826,294.2361 L834.6039,294.448 L836.9061,294.2422 L836.896,293.9218 L841.4759,294.6882 L846.0223,294.3996 L850.5942,294.9129 L855.1399,294.6004 L859.7071,294.9649 L859.7065,294.9344 L863.6912,295.3686 L867.6627,295.0916 L871.642,295.2343 L875.622,295.4122 L879.5972,295.336 L879.5987,295.5209 L883.4782,295.3655 L887.3603,295.5261 L891.2382,295.1753 L895.1223,295.5874 L899.0023,295.4922 L899.0023,295.4922 L899.0042,295.7358 L902.8849,295.6585 L906.7665,295.7022 L910.6436,295.1838 L914.524,295.0774 L918.4073,295.336 L918.4022,295.0598 L922.3849,295.2356 L926.3617,295.1002 L930.3471,295.4161 L934.318,294.9615 L938.2975,294.9649 L938.2926,294.8125 L942.8609,294.9217 L947.4085,294.3796 L951.9707,294.3007 L956.5474,294.675 L961.0984,294.2422 L961.1073,294.4356 L963.4298,294.4624 L965.7248,293.8874 L968.0543,294.0661 L970.3763,294.0805 L972.6808,293.7124 L972.6684,293.5028 L974.922,293.5376 L977.1715,293.5037 L979.429,293.6046 L981.6555,293.1813 L983.8993,293.0508 L983.9176,293.2556 L987.8555,292.4502 L991.8286,292.0401 L995.8533,292.2073 L999.7831,291.3116 L1003.7895,291.2735 L1003.8288,291.4962 L1006.6192,290.8678 L1009.3963,290.164 L1012.2034,289.6303 L1015.0798,289.4899 L1017.8582,288.793 L1017.7882,288.6799 L1019.0638,288.3565 L1019.8635,287.2638 L1021.2043,287.0459 L1022.2405,286.3354 L1023.1945,285.4922" fill="none" style="stroke:#181818;stroke-width:4;"/><text fill="#000000" font-family="Chalkduster" font-size="24" lengthAdjust="spacing" textLength="228.3845" x="784.81" y="323.3331">Discovery Index:</text><text fill="#000000" font-family="Chalkduster" font-size="24" lengthAdjust="spacing" textLength="93.2685" x="796.7437" y="353.9629">1,2,3 4</text></g><!--entity Obj1--><g class="entity" data-entity="Obj1" data-source-line="16" data-uid="ent0012" id="entity_Obj1"><polygon fill="none" points="68.95,684.3822,68.95,684.5924,79.2494,683.9679,89.5489,684.5755,99.8483,684.7819,110.1478,683.6688,120.4472,684.3045,130.7467,683.9557,141.0461,684.3822,140.9972,684.2641,141.391,684.5077,141.665,684.4622,142.1774,684.9921,142.3799,684.7739,142.8139,685.1144,142.753,685.0892,143.0934,685.5231,143.0804,685.8106,143.2743,686.1838,143.3898,686.5246,143.5461,686.8822,143.7247,686.8822,143.7853,696.0082,144.1318,705.1341,144.2172,714.2601,144.2254,723.3861,143.5461,732.512,143.6245,732.5445,143.5424,732.9247,143.4695,733.3087,142.8847,733.4807,143.1693,734.0128,142.8139,734.2798,142.7761,734.1885,142.5284,734.5907,142.0436,734.4203,141.7445,734.6981,141.4943,735.094,141.0461,735.012,141.0461,734.9633,130.7467,735.1173,120.4472,735.3507,110.1478,735.4283,99.8483,735.0081,89.5489,735.2993,79.2494,734.4396,68.95,735.012,68.9863,735.0996,68.6664,735.0344,68.2996,734.856,67.9675,734.7615,67.4742,734.2775,67.1822,734.2798,66.9814,734.1966,66.8444,733.847,66.8712,733.5652,66.6824,733.1941,66.8063,732.9525,66.45,732.512,66.2753,732.512,66.1069,723.3861,66.6783,714.2601,65.7832,705.1341,65.9309,696.0082,66.45,686.8822,66.6499,686.965,66.7306,686.5842,66.9691,686.2688,66.7902,685.7805,67.1341,685.5087,67.1822,685.1144,67.2575,685.2963,67.4755,684.8225,67.8771,684.792,68.259,684.7139,68.6796,684.7294,68.95,684.3822" style="stroke:#181818;stroke-width:4;"/><text fill="#000000" font-family="Chalkduster" font-size="24" lengthAdjust="spacing" textLength="57.0961" x="76.45" y="718.2231">Obj1</text></g><!--entity Obj2--><g class="entity" data-entity="Obj2" data-source-line="17" data-uid="ent0013" id="entity_Obj2"><polygon fill="none" points="181.46,684.3822,181.46,684.5924,191.6155,683.9679,201.771,684.5755,211.9265,684.7819,222.0819,683.6688,232.2374,684.3045,242.3929,683.9557,252.5484,684.3822,252.4995,684.2641,252.8933,684.5077,253.1673,684.4622,253.6797,684.9921,253.8822,684.7739,254.3162,685.1144,254.2553,685.0892,254.5956,685.5231,254.5826,685.8106,254.7765,686.1838,254.8921,686.5246,255.0484,686.8822,255.2269,686.8822,255.2875,696.0082,255.6341,705.1341,255.7194,714.2601,255.7277,723.3861,255.0484,732.512,255.1268,732.5445,255.0447,732.9247,254.9718,733.3087,254.387,733.4807,254.6716,734.0128,254.3162,734.2798,254.2783,734.1885,254.0307,734.5907,253.5459,734.4203,253.2468,734.6981,252.9965,735.094,252.5484,735.012,252.5484,734.9633,242.3929,735.1173,232.2374,735.3507,222.0819,735.4283,211.9265,735.0081,201.771,735.2993,191.6155,734.4396,181.46,735.012,181.4963,735.0996,181.1764,735.0344,180.8096,734.856,180.4775,734.7615,179.9842,734.2775,179.6922,734.2798,179.4914,734.1966,179.3544,733.847,179.3812,733.5652,179.1924,733.1941,179.3163,732.9525,178.96,732.512,178.7853,732.512,178.6169,723.3861,179.1883,714.2601,178.2932,705.1341,178.4409,696.0082,178.96,686.8822,179.1599,686.965,179.2406,686.5842,179.4791,686.2688,179.3002,685.7805,179.6441,685.5087,179.6922,685.1144,179.7675,685.2963,179.9855,684.8225,180.3871,684.792,180.769,684.7139,181.1896,684.7294,181.46,684.3822" style="stroke:#181818;stroke-width:4;"/><text fill="#000000" font-family="Chalkduster" font-size="24" lengthAdjust="spacing" textLength="56.0884" x="188.96" y="718.2231">Obj2</text></g><!--entity Obj3--><g class="entity" data-entity="Obj3" data-source-line="20" data-uid="ent0015" id="entity_Obj3"><polygon fill="none" points="364.96,684.3822,364.96,684.5924,375.5436,683.9679,386.1272,684.5755,396.7107,684.7819,407.2943,683.6688,417.8779,684.3045,428.4615,683.9557,439.0451,684.3822,438.9962,684.2641,439.3899,684.5077,439.664,684.4622,440.1764,684.9921,440.3789,684.7739,440.8128,685.1144,440.7519,685.0892,441.0923,685.5231,441.0793,685.8106,441.2732,686.1838,441.3888,686.5246,441.5451,686.8822,441.7236,686.8822,441.7842,696.0082,442.1308,705.1341,442.2161,714.2601,442.2243,723.3861,441.5451,732.512,441.6235,732.5445,441.5414,732.9247,441.4684,733.3087,440.8836,733.4807,441.1683,734.0128,440.8128,734.2798,440.775,734.1885,440.5274,734.5907,440.0426,734.4203,439.7435,734.6981,439.4932,735.094,439.0451,735.012,439.0451,734.9633,428.4615,735.1173,417.8779,735.3507,407.2943,735.4283,396.7107,735.0081,386.1272,735.2993,375.5436,734.4396,364.96,735.012,364.9963,735.0996,364.6764,735.0344,364.3096,734.856,363.9775,734.7615,363.4842,734.2775,363.1922,734.2798,362.9914,734.1966,362.8544,733.847,362.8812,733.5652,362.6924,733.1941,362.8163,732.9525,362.46,732.512,362.2853,732.512,362.1169,723.3861,362.6883,714.2601,361.7932,705.1341,361.9409,696.0082,362.46,686.8822,362.6599,686.965,362.7406,686.5842,362.9791,686.2688,362.8002,685.7805,363.1441,685.5087,363.1922,685.1144,363.2675,685.2963,363.4855,684.8225,363.8871,684.792,364.269,684.7139,364.6896,684.7294,364.96,684.3822" style="stroke:#181818;stroke-width:4;"/><text fill="#000000" font-family="Chalkduster" font-size="24" lengthAdjust="spacing" textLength="59.0851" x="372.46" y="718.2231">Obj3</text></g><!--entity Obj4--><g class="entity" data-entity="Obj4" data-source-line="21" data-uid="ent0016" id="entity_Obj4"><polygon fill="none" points="479.21,684.3822,479.21,684.5924,489.1568,683.9679,499.1036,684.5755,509.0505,684.7819,518.9973,683.6688,528.9441,684.3045,538.8909,683.9557,548.8378,683.9987,558.7846,684.3822,558.7759,684.3612,559.0499,684.3157,559.5623,684.8456,559.7648,684.6274,560.1736,684.9071,560.5524,685.1144,560.6854,685.1695,560.6724,685.4571,560.8663,685.8303,560.9819,686.171,561.1931,686.5514,561.2846,686.8822,561.5237,686.8822,561.8703,696.0082,561.9556,705.1341,561.9638,714.2601,561.5392,723.3861,561.2846,732.512,561.4274,732.5712,561.3544,732.9552,560.7696,733.1272,561.0542,733.6593,560.6075,733.8884,560.5524,734.2798,560.6204,734.4442,560.1357,734.2738,559.8365,734.5516,559.5863,734.9475,559.1319,734.8506,558.7846,735.012,558.7846,735.1173,548.8378,735.3507,538.8909,735.4283,528.9441,735.0081,518.9973,735.2993,509.0505,734.4396,499.1036,735.2964,489.1568,735.5602,479.21,735.012,479.2667,735.1489,478.9346,735.0544,478.4413,734.5704,478.0661,734.3719,477.7165,734.2349,477.4422,734.2798,477.4241,734.2723,477.2353,733.9012,477.3592,733.6596,476.9491,733.1969,476.7508,732.8218,476.71,732.512,476.9383,732.512,476.0432,723.3861,476.1909,714.2601,477.359,705.1341,477.1457,696.0082,476.71,686.8822,476.9362,686.9759,476.7573,686.4876,477.1012,686.2158,477.3312,685.8969,477.1503,685.4077,477.4422,685.1144,477.43,685.0849,477.8119,685.0068,478.2325,685.0223,478.5024,684.6738,478.9155,684.6711,479.21,684.3822" style="stroke:#181818;stroke-width:4;"/><text fill="#000000" font-family="Chalkduster" font-size="24" lengthAdjust="spacing" textLength="64.5746" x="486.71" y="718.2231">Obj4</text></g><!--entity Obj5--><g class="entity" data-entity="Obj5" data-source-line="24" data-uid="ent0018" id="entity_Obj5"><polygon fill="none" points="674.53,684.3822,674.53,684.5924,684.9507,683.9679,695.3714,684.5755,705.792,684.7819,716.2127,683.6688,726.6334,684.3045,737.0541,683.9557,747.4747,684.3822,747.4258,684.2641,747.8196,684.5077,748.0937,684.4622,748.606,684.9921,748.8086,684.7739,749.2425,685.1144,749.1816,685.0892,749.522,685.5231,749.509,685.8106,749.7029,686.1838,749.8185,686.5246,749.9747,686.8822,750.1533,686.8822,750.2139,696.0082,750.5604,705.1341,750.6458,714.2601,750.654,723.3861,749.9747,732.512,750.0532,732.5445,749.9711,732.9247,749.8981,733.3087,749.3133,733.4807,749.5979,734.0128,749.2425,734.2798,749.2047,734.1885,748.9571,734.5907,748.4723,734.4203,748.1731,734.6981,747.9229,735.094,747.4747,735.012,747.4747,734.9633,737.0541,735.1173,726.6334,735.3507,716.2127,735.4283,705.792,735.0081,695.3714,735.2993,684.9507,734.4396,674.53,735.012,674.5663,735.0996,674.2464,735.0344,673.8796,734.856,673.5475,734.7615,673.0542,734.2775,672.7622,734.2798,672.5614,734.1966,672.4244,733.847,672.4512,733.5652,672.2624,733.1941,672.3863,732.9525,672.03,732.512,671.8553,732.512,671.6869,723.3861,672.2583,714.2601,671.3632,705.1341,671.5109,696.0082,672.03,686.8822,672.2299,686.965,672.3106,686.5842,672.5491,686.2688,672.3702,685.7805,672.7141,685.5087,672.7622,685.1144,672.8375,685.2963,673.0555,684.8225,673.4571,684.792,673.839,684.7139,674.2596,684.7294,674.53,684.3822" style="stroke:#181818;stroke-width:4;"/><text fill="#000000" font-family="Chalkduster" font-size="24" lengthAdjust="spacing" textLength="57.9447" x="682.03" y="718.2231">Obj5</text></g><!--entity Obj6--><g class="entity" data-entity="Obj6" data-source-line="25" data-uid="ent0019" id="entity_Obj6"><polygon fill="none" points="787.21,684.3822,787.21,684.5924,797.7216,683.9679,808.2332,684.5755,818.7448,684.7819,829.2564,683.6688,839.768,684.3045,850.2796,683.9557,860.7912,684.3822,860.7423,684.2641,861.1361,684.5077,861.4101,684.4622,861.9225,684.9921,862.125,684.7739,862.559,685.1144,862.4981,685.0892,862.8385,685.5231,862.8255,685.8106,863.0193,686.1838,863.1349,686.5246,863.2912,686.8822,863.4697,686.8822,863.5303,696.0082,863.8769,705.1341,863.9623,714.2601,863.9705,723.3861,863.2912,732.512,863.3696,732.5445,863.2875,732.9247,863.2146,733.3087,862.6298,733.4807,862.9144,734.0128,862.559,734.2798,862.5212,734.1885,862.2735,734.5907,861.7887,734.4203,861.4896,734.6981,861.2394,735.094,860.7912,735.012,860.7912,734.9633,850.2796,735.1173,839.768,735.3507,829.2564,735.4283,818.7448,735.0081,808.2332,735.2993,797.7216,734.4396,787.21,735.012,787.2463,735.0996,786.9264,735.0344,786.5596,734.856,786.2275,734.7615,785.7342,734.2775,785.4422,734.2798,785.2414,734.1966,785.1044,733.847,785.1312,733.5652,784.9424,733.1941,785.0663,732.9525,784.71,732.512,784.5353,732.512,784.3669,723.3861,784.9383,714.2601,784.0432,705.1341,784.1909,696.0082,784.71,686.8822,784.9099,686.965,784.9906,686.5842,785.2291,686.2688,785.0502,685.7805,785.3941,685.5087,785.4422,685.1144,785.5175,685.2963,785.7355,684.8225,786.1371,684.792,786.519,684.7139,786.9396,684.7294,787.21,684.3822" style="stroke:#181818;stroke-width:4;"/><text fill="#000000" font-family="Chalkduster" font-size="24" lengthAdjust="spacing" textLength="58.5812" x="794.71" y="718.2231">Obj6</text></g><!--link p1 to p2--><!--link p2 to p3--><!--link api1 to stor1--><g class="link" data-entity-1="api1" data-entity-2="stor1" data-source-line="31" data-uid="lnk22" id="link_api1_stor1"><path d="M360.3863,563.263 L360.6386,563.3851 L355.6939,571.6905 L352.228,580.7116 L348.2806,589.4997 L342.7496,597.5213 L339.3174,606.5587 L334.7037,615.0243 L330.5601,623.7174 L326.7435,632.5688 L321.8004,640.875 L318.435,649.9447 L319.0995,650.2663 L313.7576,657.6806 L310.3556,666.0338 L307.1904,674.5016 L302.6481,682.3029 L298.83,690.4547 L298.8573,690.4679 L298.7225,690.6443 L298.712,690.8808 L298.6415,691.0882 L298.6854,691.3511 L298.3564,691.4334 L298.6248,691.5634 L299.1043,690.581 L299.4106,689.5148 L299.9703,688.5713 L300.5419,687.6335 L300.7372,686.5136" fill="none" style="stroke:#8B0000;stroke-width:4;"/><polygon fill="#8B0000" points="363,557.8622,363.0452,557.9157,361.4066,559.0285,360.0332,560.4549,358.5734,561.7792,356.8296,562.7676,355.4789,564.2209,355.4704,564.1965,356.5008,563.7151,357.5741,563.357,358.6773,563.0846,359.6776,562.5168,360.8219,562.3629,360.9962,562.4235,360.9951,563.3625,361.5029,564.4784,362.0728,565.616,362.2814,566.6279,362.68,567.7059,362.7027,567.7066,362.7334,565.7368,362.8675,563.7703,362.9517,561.8023,363.1311,559.8373,363,557.8622" style="stroke:#8B0000;stroke-width:4;"/><polygon fill="#8B0000" points="298.1236,691.9145,298.1688,691.968,299.5386,690.5372,301.1736,689.4201,302.7222,688.2009,303.9868,686.6458,305.6445,685.5556,305.636,685.5311,304.5292,685.793,303.4654,686.1781,302.4313,686.6491,301.2945,686.8245,300.3016,687.4138,300.4759,687.4744,299.7315,686.2762,299.496,685.2549,299.3227,684.2553,298.788,683.13,298.4434,682.0708,298.4661,682.0716,298.3688,684.0392,298.3749,686.0102,298.3312,687.9796,298.3827,689.9521,298.1236,691.9145" style="stroke:#8B0000;stroke-width:4;"/></g><!--link api1 to stor2--><g class="link" data-entity-1="api1" data-entity-2="stor2" data-source-line="32" data-uid="lnk23" id="link_api1_stor2"><path d="M415.7101,533.8968 L415.7175,533.9899 L419.3476,534.0034 L423.0211,534.5629 L426.6805,534.9445 L430.2934,534.7416 L433.9707,535.3479 L433.9667,535.3136 L435.9264,535.3874 L437.906,535.6342 L439.8995,536.0012 L441.8452,535.9538 L443.8578,536.4869 L443.8926,536.7305 L445.8738,536.5035 L447.9567,536.9877 L450.0519,537.5586 L452.075,537.6247 L454.136,537.9564 L454.1412,537.9862 L456.2504,538.3106 L458.3833,538.771 L460.5047,539.1658 L462.648,539.6858 L464.7202,539.7976 L464.7811,540.0896 L466.9429,540.544 L469.0653,540.8101 L471.2453,541.3519 L473.428,541.9066 L475.5253,542.0519 L475.4482,541.7408 L477.7859,542.8864 L479.8699,543.0074 L482.1468,543.9073 L484.225,544.0052 L486.4661,544.7605 L486.4576,544.7312 L488.7566,545.7177 L490.8566,546.0213 L493.0741,546.7278 L495.3014,547.4682 L497.4575,547.9645 L497.5173,548.1396 L499.6484,548.711 L501.8816,549.5816 L503.9496,549.9682 L506.264,551.0767 L508.4146,551.7052 L508.5048,551.9316 L510.6552,552.7525 L512.8504,553.6858 L514.8376,554.097 L516.9772,554.8909 L519.252,556.0239 L519.1357,555.7734 L521.3676,556.9878 L523.4683,557.9199 L525.7593,559.2613 L527.7256,559.9038 L529.8848,560.9618 L529.8122,560.8277 L532.0017,562.1707 L533.8809,562.9405 L535.9808,564.1179 L538.2965,565.6941 L540.2278,566.5601 L540.3313,566.7238 L542.3959,568.096 L544.1387,568.9592 L546.2845,570.46 L548.3425,571.8219 L550.196,572.8601 L550.071,572.6914 L552.0722,574.2344 L554.0325,575.7222 L556.0733,577.3185 L557.8014,578.4928 L559.7041,579.9029 L559.8393,580.0578 L561.3348,581.2829 L563.0913,582.807 L565.2292,584.7677 L566.665,585.9245 L568.6672,587.7299 L568.8301,587.8868 L570.3999,589.5241 L571.9145,591.1082 L573.5536,592.8122 L575.4803,594.7932 L577,596.3822 L576.8938,596.3021 L578.7381,598.5669 L579.86,600.287 L581.8033,602.6265 L583.2841,604.6172 L584.6403,606.514" fill="none" style="stroke:#8B0000;stroke-width:4;"/><polygon fill="#8B0000" points="409.72,533.5522,409.7521,533.6145,411.4078,534.3315,413.2517,535.4136,415.0343,536.3768,416.6155,536.949,418.4755,538.0624,418.4561,538.0452,417.6166,537.1232,416.8745,536.2881,416.2003,535.5135,415.2924,534.5306,414.7117,533.8393,414.8345,533.9771,415.4166,532.9297,416.3571,532.2846,417.3414,531.6886,418.0712,530.807,418.9348,530.0756,418.9429,530.0969,417.0881,530.761,415.2699,531.5219,413.4341,532.2362,411.6319,533.0396,409.72,533.5522" style="stroke:#8B0000;stroke-width:4;"/><polygon fill="#8B0000" points="587.3422,611.8712,587.4122,611.8746,587.108,609.897,587.214,607.9395,587.1864,605.9754,586.7195,603.9899,586.8608,602.0341,586.8362,602.026,586.3717,603.0642,586.0313,604.1432,585.7771,605.2506,585.2257,606.2602,585.0906,607.4068,585.1483,607.5821,583.9503,606.8533,582.9209,606.6362,581.912,606.4815,580.7834,605.9636,579.7178,605.6367,579.7322,605.6543,581.236,606.8753,582.8053,608.1765,584.3429,609.4391,585.9409,610.7754,587.3422,611.8712" style="stroke:#8B0000;stroke-width:4;"/></g><!--link api2 to stor3--><g class="link" data-entity-1="api2" data-entity-2="stor3" data-source-line="33" data-uid="lnk24" id="link_api2_stor3"><path d="M899,563.8622 L899.0934,563.8622 L898.8159,571.3065 L899.0859,578.7507 L899.1776,586.195 L898.6829,593.6392 L899,601.0835 L898.9655,601.0835 L898.8104,602.3007 L898.8296,603.5179 L898.9697,604.7352 L898.6927,605.9524 L899,607.1696 L899.2461,607.1696 L898.7199,607.7831 L898.9121,608.3966 L899.192,609.0102 L898.9619,609.6237 L899,610.2372 L899.0303,610.2372 L898.9858,609.3449 L899.0793,608.4526 L899.1063,607.5602 L899.2603,606.6679 L899,605.7756" fill="none" style="stroke:#8B0000;stroke-width:4;"/><polygon fill="#8B0000" points="899,557.8622,899.064,557.8907,898.0738,559.6061,897.4589,561.4884,896.7217,563.3163,895.5827,564.9656,895,566.8622,894.9817,566.8439,895.6995,565.9617,896.5096,565.1718,897.3839,564.4461,898.037,563.4993,899,562.8622,899.1305,562.9927,899.6514,563.5137,900.5534,564.4156,901.5018,565.364,902.1798,566.042,903,566.8622,903.0208,566.8714,902.1903,565.0579,901.4544,563.2864,900.6728,561.4946,899.9784,559.7415,899,557.8622" style="stroke:#8B0000;stroke-width:4;"/><polygon fill="#8B0000" points="899,611.7756,899.064,611.8041,899.6738,609.9195,900.6589,608.2018,901.5217,606.4297,901.9827,604.479,903,602.7756,902.9817,602.7573,902.0995,603.4751,901.3096,604.2852,900.5839,605.1595,899.637,605.8127,899,606.7756,899.1305,606.9061,898.0514,605.8271,897.3534,605.129,896.7018,604.4774,895.7798,603.5554,895,602.7756,895.0208,602.7849,895.7903,604.5713,896.6544,606.3998,897.4728,608.208,898.3784,610.0549,899,611.7756" style="stroke:#8B0000;stroke-width:4;"/></g><!--link i1 to api1--><g class="link" data-entity-1="i1" data-entity-2="api1" data-source-line="34" data-uid="lnk25" id="link_i1_api1"><path d="M207.16,366.0522 L207.243,366.0951 L208.3429,368.5731 L209.9293,371.3025 L211.3572,373.95 L212.2642,376.3283 L213.8924,379.0792 L213.8621,379.0626 L215.245,381.7579 L216.7805,384.537 L218.4222,387.3742 L219.6982,390.0109 L221.4864,392.9285 L221.6987,393.0528 L222.9282,395.6621 L224.7775,398.6345 L226.7025,401.6511 L228.1874,404.4101 L229.9038,407.3046 L229.9295,407.3207 L231.7323,410.2185 L233.6519,413.1899 L235.5152,416.1258 L237.486,419.1294 L239.1063,421.9122 L239.3524,422.0806 L241.3453,424.9914 L243.1793,427.7937 L245.2458,430.7549 L247.3232,433.7236 L249.0554,436.4561 L248.7992,436.2636 L251.428,439.4742 L253.2131,442.0509 L255.6396,445.1095 L257.4056,447.6718 L259.713,450.641 L259.6896,450.6214 L262.2312,453.5586 L264.2274,456.0392 L266.5454,458.7893 L268.8905,461.5619 L271.0406,464.1714 L271.1747,464.2989 L273.4312,466.6864 L275.9169,469.2917 L278.0319,471.5446 L280.6997,474.3231 L283,476.7522 L283.1623,476.9339 L285.6349,479.136 L288.188,481.4283 L290.3666,483.3015 L292.8198,485.482 L295.5161,487.9346 L295.3515,487.7129 L298.0561,489.8119 L300.5752,491.6612 L303.3634,493.8728 L305.6921,495.4657 L308.2939,497.4263 L308.2131,497.297 L310.9763,499.155 L313.3942,500.4602 L316.0577,502.1585 L318.9615,504.2413 L321.4373,505.6393 L321.5292,505.8097 L324.3149,507.3958 L326.8146,508.4519 L329.6725,510.1719 L332.4523,511.7472 L335.0503,512.9855" fill="none" style="stroke:#8B0000;stroke-width:4;"/><polygon fill="#8B0000" points="340.4,515.7022,340.4544,515.7464,339.0502,514.0868,337.9646,512.6862,336.7753,511.2013,335.2448,509.4389,334.1866,508.0606,334.162,508.0526,334.4025,509.092,334.7672,510.172,335.2182,511.2801,335.3718,512.2912,335.9419,513.4382,335.9992,513.6137,334.8012,513.5896,333.7704,514.0777,332.76,514.6283,331.6309,514.8153,330.5643,515.1935,330.5655,515.2163,332.5309,515.2846,334.5016,515.4564,336.4698,515.5783,338.4429,515.7954,340.4,515.7022" style="stroke:#8B0000;stroke-width:4;"/><text fill="#000000" font-family="Chalkduster" font-size="24" lengthAdjust="spacing" textLength="80.7779" x="307.1116" y="438.5931">Index</text><text fill="#000000" font-family="Chalkduster" font-size="24" lengthAdjust="spacing" textLength="127.0011" x="284" y="469.2229">Storage 1</text></g><!--link i2 to api1--><g class="link" data-entity-1="i2" data-entity-2="api1" data-source-line="35" data-uid="lnk26" id="link_i2_api1"><path d="M507.37,366.0422 L507.5886,366.2176 L500.5399,373.6748 L494.7726,382.1598 L488.5881,390.3102 L481.0312,397.3598 L475.2932,405.8683 L468.5312,413.5555 L462.1767,421.5696 L456.1055,429.8108 L449.0581,437.2691 L443.9539,446.2859 L436.3233,453.2764 L430.3739,461.6155 L424.6297,470.119 L417.692,477.6653 L411.453,485.7719 L404.9496,493.6665 L398.5836,501.6714" fill="none" style="stroke:#8B0000;stroke-width:4;"/><polygon fill="#8B0000" points="394.83,506.3522,394.8621,506.4145,396.5168,505.3257,398.36,504.6019,400.1417,503.7593,401.7217,502.5258,403.581,501.8334,403.5782,501.8076,402.4409,501.8157,401.3178,501.9536,400.2047,502.1817,399.0574,502.0988,397.958,502.4515,398.1415,502.4717,397.6256,501.304,397.6452,500.1951,397.7303,499.0935,397.4351,497.95,397.3399,496.8285,397.3619,496.8343,396.8276,498.7306,396.3935,500.6532,395.911,502.5631,395.5208,504.4972,394.83,506.3522" style="stroke:#8B0000;stroke-width:4;"/><text fill="#000000" font-family="Chalkduster" font-size="24" lengthAdjust="spacing" textLength="80.7779" x="516.8799" y="438.5931">Index</text><text fill="#000000" font-family="Chalkduster" font-size="24" lengthAdjust="spacing" textLength="186.3514" x="470.06" y="469.2229">Storage 1 &amp; 2</text></g><!--link i3 to api2--><g class="link" data-entity-1="i3" data-entity-2="api2" data-source-line="36" data-uid="lnk27" id="link_i3_api2"><path d="M899,366.0422 L899.2802,366.0422 L898.4476,376.3737 L899.2577,386.7053 L899.5329,397.0368 L898.0488,407.3684 L898.8964,417.6999 L898.4313,428.0314 L898.4887,438.363 L898.9091,448.6945 L898.0782,459.0261 L899.7382,469.3576 L898.1596,479.6891 L898.7363,490.0207 L899,500.3522" fill="none" style="stroke:#8B0000;stroke-width:4;"/><polygon fill="#8B0000" points="899,506.3522,899.064,506.3807,899.6738,504.4961,900.6589,502.7784,901.5217,501.0063,901.9827,499.0556,903,497.3522,902.9817,497.3339,902.0995,498.0517,901.3096,498.8618,900.5839,499.7361,899.637,500.3893,899,501.3522,899.1305,501.4827,898.0514,500.4037,897.3534,499.7056,896.7018,499.054,895.7798,498.132,895,497.3522,895.0208,497.3614,895.7903,499.1479,896.6544,500.9764,897.4728,502.7846,898.3784,504.6315,899,506.3522" style="stroke:#8B0000;stroke-width:4;"/><text fill="#000000" font-family="Chalkduster" font-size="24" lengthAdjust="spacing" textLength="80.7779" x="918.1392" y="438.5931">Index</text><text fill="#000000" font-family="Chalkduster" font-size="24" lengthAdjust="spacing" textLength="128.9901" x="900" y="469.2229">Storage 3</text></g><!--SRC=[dPB1JiCm38RlUGhJ0wTrgCdWC4sJaBZiW9Z4aI6KDMOBoj8goSOgj7SdQRkHQIqIvDJ-_ltPiNCbTQws0jysN5Sm7Du8xdZgV_WADwXTQbsbSEZsZZZf58xXmHlWNMh1br99Ln63kUDwfH2InwroilHVrXN64y2YsSaSBMoum3PBOGB0BN2Jhs4oCLWMLdf_DPt25m5_8c9TRLuOnnLaIKWhizOLJkXsoMqmIfiNEpGLpBJ0_NYX8HlGEaDcjV_m6xjnblGFx063KSEd4R-l06iAiF_mMNV_z_DP7UTbUyFkMDFTJxNdTZVDECEcueb6ZAVbHvRq16WIt_aIJazmsWjdVV3H6Ro3pavqrak_xQFV7Ua7ujzIQkHgxLxMKWZKh-dKlm7Ydy6bp0W9WuP9AefFxPLwSXqQ3HezrnZnhgDGfuoRNI_qQHt49tLP8FB0DL0YMUoZ7JxVAo7V]--></g></svg>