<svg xmlns="http://www.w3.org/2000/svg" xmlns:xlink="http://www.w3.org/1999/xlink" contentStyleType="text/css" data-diagram-type="DESCRIPTION" height="539px" preserveAspectRatio="none" style="width:1735px;height:539px;background:#FFFFFF;" version="1.1" viewBox="0 0 1735 539" width="1735px" zoomAndPan="magnify"><title>OCFL Storage with Objects</title><defs/><g><text fill="#000000" font-family="Chalkduster" font-size="42" font-weight="bold" lengthAdjust="spacing" textLength="624.3381" x="548.7436" y="51.7215">OCFL Storage with Objects</text><!--cluster stor1--><g class="cluster" data-entity="stor1" data-source-line="6" data-uid="ent0002" id="cluster_stor1"><path d="M6,90.6022 L6,90.6022 L6.0251,90.6922 L7.214,90.0728 L8.5499,89.9809 L9.838,89.7172 L10.9686,88.8886 L12.3171,88.842 L12.3142,88.8075 L15.8714,88.345 L19.4436,88.0559 L23.0262,87.8875 L26.5729,87.3034 L30.1699,87.3014 L30.1833,87.5471 L32.7022,86.8832 L35.2601,86.9367 L37.8227,87.0777 L40.3577,86.7094 L42.9072,86.609 L42.9085,86.6393 L45.9072,86.4662 L48.9119,86.4311 L51.9137,86.3294 L54.9209,86.3546 L57.9104,85.966 L57.9199,86.2641 L65.116,86.0387 L72.3061,85.6211 L79.5051,85.4849 L86.7045,85.3619 L93.8906,84.821 L93.8833,84.5005 L102.4119,84.9286 L110.9164,84.3015 L119.4392,84.4766 L127.9432,83.8256 L136.4626,83.8517 L136.4611,83.7604 L145.9826,84.6788 L155.4679,83.4635 L164.9746,83.5072 L174.483,83.6567 L183.9785,83.0436 L183.9857,83.5985 L194.1408,82.9061 L204.3082,83.1619 L214.4556,81.8835 L224.6329,82.8935 L234.7903,82.382 L234.7977,83.1129 L245.2882,82.8687 L255.7824,82.9874 L266.2596,81.4201 L276.7493,81.0886 L287.25,81.8522 L287.2442,81.0237 L297.5766,81.7014 L307.9025,81.4456 L318.2378,82.5439 L328.557,81.3303 L338.8825,81.0335 L349.215,81.723 L359.5338,80.4573 L369.8623,80.5819 L380.2004,82.0671 L390.5215,81.1296 L390.5239,81.7104 L400.5353,82.0676 L410.5392,80.618 L420.5525,81.4314 L430.5638,81.7518 L440.5677,80.2935 L450.5796,80.7543 L460.5905,81.0089 L470.6032,81.6687 L480.6094,80.7585 L480.6094,80.7529 L490.3761,81.3579 L500.1393,79.9854 L509.9046,79.8034 L519.6731,81.3605 L529.4358,79.7157 L539.2043,81.3329 L548.9692,80.9124 L558.7337,80.2623 L568.5,80.6022 L568.5,80.6022 L568.4992,80.1305 L578.2667,81.2313 L588.0305,80.2378 L597.7983,81.4434 L607.5612,79.9347 L617.3296,81.5122 L627.0949,81.3521 L636.86,81.0504 L646.6251,80.8041 L656.3906,80.7585 L656.3946,81.7273 L666.4038,81.6178 L676.4111,81.0666 L686.4214,81.2397 L696.429,80.7497 L706.4434,81.9199 L716.4501,81.2123 L726.4599,81.2772 L736.4654,80.2772 L746.4785,81.1296 L746.4747,80.5893 L756.8106,81.9095 L767.1368,81.8471 L777.4596,81.2891 L787.7841,80.9891 L798.1122,81.199 L808.435,80.6483 L818.7724,82.1884 L829.1026,82.6937 L839.4278,82.4818 L849.75,81.8522 L849.7594,82.7787 L860.2401,81.7759 L870.7351,82.1804 L881.2206,81.6533 L891.7216,82.6547 L902.2097,82.382 L902.214,82.711 L912.3817,83.2508 L922.5304,82.3405 L932.6944,82.5998 L942.8668,83.5025 L953.0215,83.0436 L953.0343,83.8 L962.513,82.522 L972.0234,83.1084 L981.5344,83.7275 L991.0203,82.8758 L1000.5374,83.8517 L1000.5409,84.0087 L1009.0544,84.1602 L1017.5651,84.1946 L1026.082,84.4965 L1034.6023,84.9509 L1043.1094,84.821 L1043.105,84.682 L1050.3099,85.1899 L1057.5055,85.4059 L1064.6991,85.5594 L1071.8955,85.7996 L1079.0896,85.966 L1079.0918,86.0164 L1082.0784,85.8174 L1085.0833,86.0452 L1088.0827,86.1468 L1091.0934,86.5087 L1094.0928,86.609 L1094.0949,86.6481 L1096.6442,86.8193 L1099.1807,86.7568 L1101.7335,86.9945 L1104.2797,87.1096 L1106.8301,87.3014 L1106.8521,87.5569 L1110.4169,87.7984 L1113.9526,87.7026 L1117.539,88.1935 L1121.0902,88.2783 L1124.6829,88.842 L1124.7173,88.9654 L1126.0189,89.4545 L1127.2747,89.7792 L1128.4212,89.7116 L1129.7919,90.4488 L1131,90.6022 L1129.0192,90.6022 L1131.5337,100.6575 L1130.2018,110.7127 L1131.2579,120.768 L1131.6409,130.8232 L1132.2589,140.8785 L1129.0802,150.9337 L1132.2679,160.989 L1131.4751,171.0442 L1131.9475,181.0995 L1132.9941,191.1547 L1131.0146,201.21 L1131.4674,211.2652 L1131.5692,221.3205 L1131.526,231.3757 L1130.9978,241.431 L1132.8952,251.4862 L1129.374,261.5415 L1132.5074,271.5967 L1129.336,281.652 L1129.5592,291.7072 L1131.1067,301.7625 L1131.0754,311.8177 L1129.6858,321.873 L1132.1032,331.9282 L1131.2903,341.9835 L1132.9378,352.0387 L1132.7789,362.094 L1129.8046,372.1492 L1129.9389,382.2045 L1130.6555,392.2597 L1131.9481,402.315 L1132.0746,412.3702 L1131.8031,422.4255 L1130.0881,432.4807 L1132.6969,442.536 L1132.6901,452.5912 L1130.8739,462.6465 L1130.3625,472.7017 L1129.9296,482.757 L1131,492.8122 L1131,492.8122 L1130.9744,492.7203 L1129.753,493.2231 L1128.465,493.487 L1127.1599,493.6895 L1126.0044,494.4291 L1124.6829,494.5725 L1124.6653,494.3692 L1121.1315,495.103 L1117.5581,495.3779 L1113.9854,495.6614 L1110.4271,496.1115 L1106.8301,496.113 L1106.8241,496.0039 L1104.2754,496.1181 L1101.7477,496.6202 L1099.1733,496.2636 L1096.6346,496.5631 L1094.0928,496.8054 L1094.095,496.8567 L1091.0935,496.9645 L1088.0847,496.9035 L1085.0901,497.1722 L1082.1044,497.6505 L1079.0896,497.4484 L1079.0988,497.7365 L1071.8851,497.4126 L1064.6986,497.9413 L1057.4942,497.9072 L1050.305,498.3528 L1043.1094,498.5935 L1043.1123,498.7236 L1034.5992,498.9739 L1026.0738,498.6858 L1017.5702,499.353 L1009.0518,499.3726 L1000.5374,499.5627 L1000.5248,498.8223 L991.0235,499.0963 L981.5384,500.3213 L972.0335,500.3807 L962.5243,500.1873 L953.0215,500.3708 L953.0098,499.4747 L942.8706,501.3806 L932.6914,500.2197 L922.5253,500.0638 L912.3709,500.8103 L902.2097,501.0324 L902.2177,501.8187 L891.7261,501.9589 L881.2263,501.2912 L870.7319,501.1487 L860.2442,501.6826 L849.75,501.5622 L849.7517,501.8105 L839.4181,500.9574 L829.0996,502.2587 L818.7738,502.5241 L808.4394,501.5636 L798.1103,501.3513 L787.7934,502.8953 L777.4602,502.0961 L767.1328,502.1401 L756.8085,502.6113 L746.4785,502.2849 L746.475,501.424 L736.4717,503.0327 L726.4589,502.3467 L716.4529,503.3003 L706.4383,502.162 L696.4319,503.0364 L686.4175,501.9403 L676.4115,502.9002 L666.4025,503.1204 L656.3906,502.656 L656.3898,502.2195 L646.6259,503.1573 L636.858,501.9288 L627.0926,502.0807 L617.3297,503.6359 L607.5641,503.6553 L597.7982,503.5181 L588.0304,502.297 L578.2665,503.3072 L568.5,502.8122 L568.5,502.8122 L568.4989,502.1828 L558.7345,502.8724 L548.9687,502.7758 L539.2025,502.4102 L529.439,503.564 L519.6729,503.3164 L509.9055,502.2804 L500.1419,503.3929 L490.3752,502.7958 L480.6094,502.656 L480.6062,501.8779 L470.5983,502.3036 L460.587,501.8731 L450.5793,502.3468 L440.5669,501.6524 L430.5573,501.6496 L420.5512,502.5023 L410.5404,502.2068 L400.5309,502.248 L390.5215,502.2849 L390.5201,502.0939 L380.1959,502.4357 L369.862,501.4002 L359.5415,502.2815 L349.206,501.005 L338.8885,502.3182 L328.5641,502.6416 L318.2363,502.4751 L307.9077,502.1885 L297.5789,501.8908 L287.25,501.5622 L287.2514,501.7032 L276.7494,500.6029 L266.2721,501.9456 L255.7786,501.6838 L245.2802,500.9339 L234.7903,501.0324 L234.7902,501.0247 L224.6243,500.622 L214.4694,501.058 L204.315,501.5428 L194.1347,500.0313 L183.9785,500.3708 L183.9891,500.9959 L174.4733,500.0903 L164.9636,499.5419 L155.4592,499.3102 L145.9512,498.8649 L136.4626,499.5627 L136.4582,499.3668 L127.9486,499.385 L119.4366,499.2963 L110.9253,499.2372 L102.4093,498.974 L93.8906,498.5935 L93.8806,498.2775 L86.7033,498.6394 L79.5054,498.3514 L72.3101,498.1466 L65.1138,497.9093 L57.9104,497.4484 L57.8979,497.1558 L54.9049,497.2054 L51.9151,497.3315 L48.8993,496.8488 L45.9059,496.8884 L42.9072,496.8054 L42.9088,496.8352 L40.3676,496.8117 L37.8134,496.5488 L35.2828,496.7205 L32.7273,496.4341 L30.1699,496.113 L30.1797,496.2264 L26.5787,495.5658 L23.0418,495.6468 L19.4363,494.9343 L15.8994,495.0159 L12.3171,494.5725 L12.3181,494.5758 L11.0894,494.3486 L9.7799,493.8309 L8.5035,493.4324 L7.175,492.8471 L6,492.8122 L5.4282,492.8122 L4.1202,482.757 L5.3437,472.7017 L7.1676,462.6465 L6.4286,452.5912 L4.7959,442.536 L6.6556,432.4807 L6.1749,422.4255 L7.4487,412.3702 L7.5065,402.315 L6.2498,392.2597 L5.5227,382.2045 L5.4281,372.1492 L5.983,362.094 L7.7844,352.0387 L4.2035,341.9835 L5.563,331.9282 L6.7114,321.873 L7.9512,311.8177 L6.5651,301.7625 L5.4714,291.7072 L4.0321,281.652 L4.8699,271.5967 L5.4083,261.5415 L6.9062,251.4862 L6.9852,241.431 L6.1382,231.3757 L5.6455,221.3205 L4.081,211.2652 L6.344,201.21 L7.1611,191.1547 L7.8209,181.0995 L6.2622,171.0442 L6.2132,160.989 L5.4129,150.9337 L6.6632,140.8785 L4.7468,130.8232 L7.3761,120.768 L5.1849,110.7127 L4.5862,100.6575 L6,90.6022" fill="#98FB98" style="stroke:#181818;stroke-width:4;"/><path d="M6,90.6022 L6,90.6022 L6.0251,90.6922 L7.214,90.7769 L8.5499,91.3891 L9.838,91.8295 L10.9686,91.705 L12.3171,92.3625 L12.3142,92.3281 L15.8714,92.4817 L19.4436,92.8089 L23.0262,93.2566 L26.5729,93.2887 L30.1699,93.903 L30.1833,94.1487 L32.7022,93.7618 L35.2601,94.0922 L37.8227,94.5102 L40.3577,94.4189 L42.9072,94.5954 L42.9085,94.6257 L45.9072,94.7099 L48.9119,94.9319 L51.9137,95.0874 L54.9209,95.3699 L57.9104,95.2384 L57.9199,95.5365 L65.116,95.7692 L72.3061,95.8096 L79.5051,96.1314 L86.7045,96.4664 L93.8906,96.3835 L93.8833,96.063 L102.4119,96.8788 L110.9164,96.6394 L119.4392,97.2022 L127.9432,96.9389 L136.4626,97.3527 L136.4611,97.2614 L145.9826,98.503 L155.4679,97.611 L164.9746,97.9779 L174.483,98.4506 L183.9785,98.1608 L183.9857,98.7157 L194.1408,98.2879 L204.3082,98.8084 L214.4556,97.7946 L224.6329,99.0693 L234.7903,98.8224 L234.7977,99.5533 L245.2882,99.5211 L255.7824,99.8517 L266.2596,98.4962 L276.7493,98.3767 L287.25,99.3522 L287.2442,98.5237 L297.5766,99.346 L307.9025,99.2347 L318.2378,100.4775 L328.557,99.4084 L338.8825,99.2561 L349.215,100.0902 L359.5338,98.969 L369.8623,99.2382 L380.2004,100.8678 L390.5215,100.0749 L390.5239,100.6558 L400.5353,101.0954 L410.5392,99.7283 L420.5525,100.6242 L430.5638,101.027 L440.5677,99.6512 L450.5796,100.1945 L460.5905,100.5315 L470.6032,101.2737 L480.6094,100.446 L480.6094,100.4404 L490.3761,101.0801 L500.1393,99.7423 L509.9046,99.595 L519.6731,101.1869 L529.4358,99.5768 L539.2043,101.2287 L548.9692,100.843 L558.7337,100.2276 L568.5,100.6022 L568.5,100.6022 L568.4992,100.1305 L578.2667,101.1965 L588.0305,100.1684 L597.7983,101.3393 L607.5612,99.7958 L617.3296,101.3386 L627.0949,101.1438 L636.86,100.8073 L646.6251,100.5263 L656.3906,100.446 L656.3946,101.4148 L666.4038,101.2228 L676.4111,100.5892 L686.4214,100.6798 L696.429,100.1073 L706.4434,101.1951 L716.4501,100.4051 L726.4599,100.3874 L736.4654,99.305 L746.4785,100.0749 L746.4747,99.5346 L756.8106,100.7102 L767.1368,100.5033 L777.4596,99.8008 L787.7841,99.3563 L798.1122,99.4216 L808.435,98.7264 L818.7724,100.122 L829.1026,100.4828 L839.4278,100.1263 L849.75,99.3522 L849.7594,100.2787 L860.2401,99.064 L870.7351,99.2566 L881.2206,98.5176 L891.7216,99.3071 L902.2097,98.8224 L902.214,99.1514 L912.3817,99.4266 L922.5304,98.2516 L932.6944,98.2463 L942.8668,98.8844 L953.0215,98.1608 L953.0343,98.9171 L962.513,97.3159 L972.0234,97.5791 L981.5344,97.8749 L991.0203,96.7 L1000.5374,97.3527 L1000.5409,97.5097 L1009.0544,97.2735 L1017.5651,96.9202 L1026.082,96.8344 L1034.6023,96.9011 L1043.1094,96.3835 L1043.105,96.2445 L1050.3099,96.2944 L1057.5055,96.0523 L1064.6991,95.7479 L1071.8955,95.53 L1079.0896,95.2384 L1079.0918,95.2888 L1082.0784,94.8327 L1085.0833,94.8033 L1088.0827,94.6477 L1091.0934,94.7524 L1094.0928,94.5954 L1094.0949,94.6345 L1096.6442,94.5287 L1099.1807,94.1893 L1101.7335,94.15 L1104.2797,93.9881 L1106.8301,93.903 L1106.8521,94.1584 L1110.4169,93.7838 L1113.9526,93.0718 L1117.539,92.9464 L1121.0902,92.415 L1124.6829,92.3625 L1124.7173,92.4859 L1126.0189,92.2709 L1127.2747,91.8915 L1128.4212,91.1198 L1129.7919,91.1529 L1131,90.6022" fill="none" style="stroke:#181818;stroke-width:4;"/><text fill="#000000" font-family="Chalkduster" font-size="24" font-style="italic" lengthAdjust="spacing" textLength="169.1404" x="483.9298" y="126.4431">&#171;repository&#187;</text><text fill="#000000" font-family="Chalkduster" font-size="24" font-weight="bold" lengthAdjust="spacing" textLength="176.5923" x="480.2039" y="157.0729">Storage Root</text></g><!--cluster obj1--><g class="cluster" data-entity="obj1" data-source-line="7" data-uid="ent0003" id="cluster_obj1"><polygon fill="none" points="32.5,183.6022,32.5,183.8124,42.5,183.1879,52.5,183.7955,62.5,184.0019,72.5,182.8888,82.5,183.5245,92.5,183.1757,102.5,183.2187,112.5,183.5341,122.5,182.9108,132.5,184.1559,142.5,182.9719,152.5,183.4044,162.5,184.0342,172.5,183.5164,182.5,183.6704,192.5,183.5703,202.5,183.7807,212.5,183.8413,222.5,184.1879,232.5,184.2733,242.5,184.2815,252.5,183.8568,262.5,184.0658,272.5,184.3044,282.5,182.881,292.5,184.2807,302.5,183.3057,312.5,184.136,322.5,183.1072,332.5,183.5337,342.5,184.3438,352.5,183.5535,362.5,183.7075,372.5,183.9408,382.5,184.0184,392.5,183.5983,402.5,183.8894,412.5,183.0298,422.5,183.8866,432.5,184.1504,442.5,184.0467,452.5,184.2152,462.5,183.1191,472.5,182.95,482.5,182.9808,492.5,183.5433,502.5,183.4057,512.5,184.2836,522.5,183.4275,532.5,183.2592,542.5,183.8305,552.5,182.9354,562.5,183.0831,572.5,183.6022,572.5828,183.8021,572.9091,183.8828,573.3008,184.1213,573.5196,183.9425,573.9549,184.2863,574.2678,184.3344,574.4496,184.4098,574.2687,184.6277,574.5311,185.0293,574.7459,185.4112,575.0543,185.8318,575,186.1022,574.9958,186.1022,575.4626,196.188,574.4462,206.2738,574.3227,216.3596,575.5036,226.4454,574.2831,236.5312,575.509,246.6169,575.2066,256.7027,574.7321,266.7885,574.6462,276.8743,575.4588,286.9601,574.7007,297.0459,575.5919,307.1317,574.4473,317.2175,575.6174,327.3033,575.4843,337.3891,575.245,347.4748,575.0472,357.5606,575.7266,367.6464,575,377.7322,575.189,377.8105,574.9057,378.1074,574.7897,378.4735,574.5205,378.7763,574.6349,379.2378,574.2678,379.5,574.2875,379.5477,573.9362,379.6996,573.4831,379.6055,573.1554,379.8145,572.9213,380.2492,572.5,380.2322,572.5,380.662,562.5,380.1893,552.5,379.91,542.5,380.0133,532.5,379.546,522.5,380.6469,512.5,380.9718,502.5,380.7586,492.5,380.9271,482.5,380.0955,472.5,380.3194,462.5,379.8446,452.5,380.5163,442.5,380.479,432.5,380.7846,422.5,380.0026,412.5,380.0978,402.5,380.6757,392.5,380.7995,382.5,379.7197,372.5,380.0383,362.5,380.3815,352.5,379.6214,342.5,380.5856,332.5,380.4902,322.5,380.1315,312.5,380.3745,302.5,380.9609,292.5,379.9193,282.5,380.5472,272.5,380.5179,262.5,380.348,252.5,380.3731,242.5,380.3457,232.5,379.6081,222.5,379.8314,212.5,379.7707,202.5,380.296,192.5,380.3203,182.5,380.394,172.5,379.9412,162.5,380.1647,152.5,380.112,142.5,380.8091,132.5,380.6588,122.5,379.7467,112.5,380.1593,102.5,379.655,92.5,380.5206,82.5,380.8407,72.5,380.7768,62.5,379.7967,52.5,380.6962,42.5,379.4894,32.5,380.2322,32.5255,380.2939,32.1083,379.9936,31.8052,379.9691,31.47,379.8669,31.146,379.7918,30.7322,379.5,30.5105,379.4081,30.7322,379.2071,30.4942,378.8156,30.4023,378.4846,30.3767,378.1812,30,377.7322,30.0055,377.7322,30.1753,367.6464,30.2134,357.5606,30.1972,347.4748,29.9992,337.3891,30.7107,327.3033,29.3903,317.2175,30.5653,307.1317,29.376,297.0459,29.4597,286.9601,30.04,276.8743,30.0283,266.7885,29.5072,256.7027,30.4137,246.6169,30.1089,236.5312,30.7267,226.4454,30.6671,216.3596,29.5517,206.2738,29.6021,196.188,30,186.1022,29.9602,186.0857,30.2559,185.794,30.417,185.4465,30.5321,185.08,30.4805,184.6444,30.7322,184.3344,30.8134,184.5304,31.1666,184.3832,31.4333,184.027,31.7624,183.8215,32.0952,183.625,32.5,183.6022" style="stroke:#181818;stroke-width:4;"/><text fill="#000000" font-family="Chalkduster" font-size="24" font-weight="bold" lengthAdjust="spacing" textLength="222.4442" x="191.2779" y="209.4431">Storage Object 1</text></g><!--cluster v1--><g class="cluster" data-entity="v1" data-source-line="10" data-uid="ent0005" id="cluster_v1"><polygon fill="none" points="56.5,240.6022,56.5,240.8124,66.5667,240.1879,76.6333,240.7955,86.7,241.0019,96.7667,239.8888,106.8333,240.5245,116.9,240.1757,126.9667,240.2187,137.0333,240.5341,147.1,239.9108,157.1667,241.1559,167.2333,239.9719,177.3,240.4044,187.3667,241.0342,197.4333,240.5164,207.5,240.6022,207.5087,240.6232,207.8495,240.7388,208.2299,240.9501,208.5912,241.1152,208.9889,241.3684,209.2678,241.3344,209.4744,241.42,209.6234,241.7746,209.6391,242.074,209.8499,242.4542,210.0698,242.8382,210,243.1022,209.2788,243.1022,210.6785,253.1595,209.7035,263.2168,210.5338,273.274,209.505,283.3313,209.9315,293.3886,210.7416,303.4458,209.9513,313.5031,210.1053,323.5604,210.3386,333.6177,210.4162,343.6749,210,353.7322,209.9988,353.7317,209.942,354.1224,209.5308,354.3663,209.6482,354.8291,209.583,355.2164,209.2678,355.5,209.3245,355.6369,208.9924,355.8352,208.499,355.6441,208.1239,355.7385,207.7743,355.8944,207.5,356.2322,207.5,356.1733,197.4333,356.0357,187.3667,356.9136,177.3,356.0575,167.2333,355.8892,157.1667,356.4605,147.1,355.5654,137.0333,355.7131,126.9667,356.8812,116.9,356.6679,106.8333,356.9667,96.7667,355.9104,86.7,356.5514,76.6333,356.8226,66.5667,355.7598,56.5,356.2322,56.4878,356.2027,56.1625,356.1246,55.876,356.14,55.4388,355.7916,55.1448,355.7889,54.7322,355.5,54.5617,355.4293,54.3772,355.06,54.5944,354.8571,54.0721,354.3479,54.3032,354.1507,54,353.7322,54.2066,353.7322,53.7321,343.6749,53.6462,333.6177,54.4588,323.5604,53.7007,313.5031,54.5919,303.4458,53.4473,293.3886,54.6174,283.3313,54.4843,273.274,54.245,263.2168,54.0472,253.1595,54,243.1022,54.2238,243.1949,54.3354,242.8269,54.345,242.4167,54.5219,242.0758,54.5457,241.6714,54.7322,241.3344,54.8236,241.5551,55.1055,241.2357,55.4614,241.0947,55.7153,240.7078,56.0948,240.6239,56.5,240.6022" style="stroke:#181818;stroke-width:4;"/><text fill="#000000" font-family="Chalkduster" font-size="24" font-weight="bold" lengthAdjust="spacing" textLength="29.4365" x="117.2818" y="266.4431">v1</text></g><!--cluster v2--><g class="cluster" data-entity="v2" data-source-line="13" data-uid="ent0007" id="cluster_v2"><polygon fill="none" points="236.5,240.6022,236.5,240.8124,246.5667,240.1879,256.6333,240.7955,266.7,241.0019,276.7667,239.8888,286.8333,240.5245,296.9,240.1757,306.9667,240.2187,317.0333,240.5341,327.1,239.9108,337.1667,241.1559,347.2333,239.9719,357.3,240.4044,367.3667,241.0342,377.4333,240.5164,387.5,240.6022,387.5087,240.6232,387.8495,240.7388,388.2299,240.9501,388.5912,241.1152,388.9889,241.3684,389.2678,241.3344,389.4744,241.42,389.6234,241.7746,389.6391,242.074,389.8499,242.4542,390.0698,242.8382,390,243.1022,389.2788,243.1022,390.6785,253.1595,389.7035,263.2168,390.5338,273.274,389.505,283.3313,389.9315,293.3886,390.7416,303.4458,389.9513,313.5031,390.1053,323.5604,390.3386,333.6177,390.4162,343.6749,390,353.7322,389.9988,353.7317,389.942,354.1224,389.5308,354.3663,389.6482,354.8291,389.583,355.2164,389.2678,355.5,389.3245,355.6369,388.9924,355.8352,388.499,355.6441,388.1239,355.7385,387.7743,355.8944,387.5,356.2322,387.5,356.1733,377.4333,356.0357,367.3667,356.9136,357.3,356.0575,347.2333,355.8892,337.1667,356.4605,327.1,355.5654,317.0333,355.7131,306.9667,356.8812,296.9,356.6679,286.8333,356.9667,276.7667,355.9104,266.7,356.5514,256.6333,356.8226,246.5667,355.7598,236.5,356.2322,236.4878,356.2027,236.1625,356.1246,235.876,356.14,235.4388,355.7916,235.1448,355.7889,234.7322,355.5,234.5617,355.4293,234.3772,355.06,234.5944,354.8571,234.0721,354.3479,234.3032,354.1507,234,353.7322,234.2066,353.7322,233.7321,343.6749,233.6462,333.6177,234.4588,323.5604,233.7007,313.5031,234.5919,303.4458,233.4473,293.3886,234.6174,283.3313,234.4843,273.274,234.245,263.2168,234.0472,253.1595,234,243.1022,234.2238,243.1949,234.3354,242.8269,234.345,242.4167,234.5219,242.0758,234.5457,241.6714,234.7322,241.3344,234.8236,241.5551,235.1055,241.2357,235.4614,241.0947,235.7153,240.7078,236.0948,240.6239,236.5,240.6022" style="stroke:#181818;stroke-width:4;"/><text fill="#000000" font-family="Chalkduster" font-size="24" font-weight="bold" lengthAdjust="spacing" textLength="28.4287" x="297.7856" y="266.4431">v2</text></g><g class="entity" data-entity="GMN11" data-source-line="24" data-uid="ent0012" id="entity_GMN11"><path d="M254.26,446.1822 L254.4468,446.1822 L253.8917,454.3082 L254.4318,462.4341 L254.6153,470.5601 L253.6259,478.6861 L254.26,486.812 L254.26,486.812 L254.26,486.6048 L264.2485,485.6747 L274.237,485.7894 L284.2255,486.6303 L294.214,484.9684 L304.2025,488.2884 L314.191,485.1313 L324.1795,486.2847 L334.168,487.9639 L344.1564,486.5833 L354.1449,486.994 L364.1334,486.7269 L374.1219,487.2881 L384.1104,487.4497 L394.0989,488.3739 L404.0874,488.6015 L414.0759,488.6234 L424.0644,487.491 L434.0529,488.0483 L444.0414,488.6847 L454.0299,484.8889 L464.0184,488.6214 L474.0069,486.0214 L483.9954,488.2355 L493.9839,485.492 L503.9724,486.6294 L513.9608,488.7897 L523.9493,486.6821 L533.9378,487.0928 L543.9263,487.7151 L553.9148,487.922 L563.9033,486.8016 L573.8918,487.5779 L583.8803,485.2856 L593.8688,487.5704 L603.8573,488.2739 L613.8458,487.9975 L623.8343,488.4468 L633.8228,485.5238 L643.8113,485.0729 L653.7998,485.155 L663.7883,486.655 L673.7768,486.288 L683.7653,488.6291 L693.7537,486.3462 L703.7422,485.8972 L713.7307,486.812 L713.7307,486.812 L713.9336,486.812 L713.138,480.6861 L713.2693,474.5601 L714.3076,468.4341 L714.118,462.3082 L713.7307,456.1822 L714.1924,456.6439 L711.5285,453.98 L709.9314,452.3828 L708.1018,450.5533 L705.4338,447.8853 L703.7307,446.1822 L703.7307,445.9266 L693.9248,446.5182 L684.1188,447.9202 L674.3129,446.171 L664.507,447.4157 L654.701,444.7054 L644.8951,444.3762 L635.0891,447.5252 L625.2832,444.2704 L615.4773,447.5394 L605.6713,446.7332 L595.8654,445.4678 L586.0594,445.2388 L576.2535,447.4056 L566.4475,445.384 L556.6416,447.7605 L546.8357,444.7082 L537.0297,447.8287 L527.2238,447.4737 L517.4178,446.8355 L507.6119,446.3081 L497.8059,448.1198 L488,446.1822 L489.635,446.2442 L488.0874,436.602 L487.9874,427.0147 L486.562,417.3772 L488.4546,407.8655 L486.5945,398.2115 L486.278,388.616 L483.8334,378.9399 L484.0111,369.3631 L486.1416,359.8603 L485.5088,350.2529 L484,340.6122 L483.8856,340.6079 L482.7779,350.177 L482.6893,359.7847 L481.0806,369.3347 L483.6506,379.0432 L484.1526,388.6732 L483.2209,398.249 L483.3064,407.8633 L480.7266,417.3766 L480.9597,426.9965 L479.3308,436.5458 L480,446.1822 L480,446.9397 L470.1852,446.8402 L460.3704,447.6552 L450.5557,445.5698 L440.7409,445.8238 L430.9261,447.3648 L421.1113,447.6951 L411.2965,444.8155 L401.4817,445.6652 L391.667,446.5802 L381.8522,444.5533 L372.0374,447.1246 L362.2226,446.8702 L352.4078,445.9135 L342.593,446.5615 L332.7783,448.1253 L322.9635,445.3479 L313.1487,447.0222 L303.3339,446.9439 L293.5191,446.4909 L283.7043,446.558 L273.8896,446.4848 L264.0748,444.5178 L254.26,446.1822 L254.26,446.1822" fill="#FFFFE0" style="stroke:#181818;stroke-width:4;"/><path d="M703.7307,446.1822 L703.9176,446.1822 L703.3624,448.1822 L703.9025,450.1822 L704.086,452.1822 L703.0966,454.1822 L703.7307,456.1822 L703.7307,456.1131 L705.7307,455.8031 L707.7307,455.8413 L709.7307,456.1216 L711.7307,455.5677 L713.7307,456.1822 L714.0787,456.5302 L711.3346,453.7861 L709.6064,452.0579 L708.0022,450.4537 L705.6768,448.1283 L703.7307,446.1822" fill="#FFFFE0" style="stroke:#181818;stroke-width:4;"/><text fill="#000000" font-family="Chalkduster" font-size="24" lengthAdjust="spacing" textLength="438.4707" x="260.26" y="475.0231">Checksums for each unique file</text></g><!--entity m1--><g class="entity" data-entity="m1" data-source-line="8" data-uid="ent0004" id="entity_m1"><polygon fill="none" points="411.77,289.6022,411.77,289.8124,422.0891,289.1879,432.4082,289.7955,442.7273,290.0019,453.0464,288.8888,463.3655,289.5245,473.6846,289.1757,484.0037,289.2187,494.3228,289.5341,504.6419,288.9108,514.961,290.1559,525.2801,288.9719,535.5992,289.4044,545.9183,290.0342,556.2374,289.6022,556.2265,289.5758,556.5996,289.7697,556.9404,289.8853,557.3208,290.0965,557.6821,290.2616,558.0052,290.3344,558.1855,290.4092,558.3583,290.7736,558.5072,291.1282,558.5229,291.4276,558.7337,291.8078,558.7374,292.1022,559.4396,292.1022,558.0162,301.2282,559.4159,310.3541,558.4409,319.4801,559.2712,328.6061,558.7374,337.732,558.5849,337.6689,558.5699,338.0769,558.6729,338.5338,558.283,338.7865,558.184,339.1597,558.0052,339.4998,558.0484,339.6041,557.7047,339.7744,557.2976,339.7915,556.9811,340.0276,556.5179,339.9093,556.2374,340.232,556.2374,340.5164,545.9183,340.7802,535.5992,340.6766,525.2801,340.8451,514.961,339.749,504.6419,339.5799,494.3228,339.6106,484.0037,340.1732,473.6846,340.0355,463.3655,340.9135,453.0464,340.0574,442.7273,339.889,432.4082,340.4603,422.0891,339.5652,411.77,340.232,411.7038,340.0722,411.4992,340.2854,411.1185,340.0733,410.803,340.0189,410.3147,339.5472,410.0022,339.4998,410.1005,339.5405,410.0376,339.2216,409.5639,338.7324,409.5334,338.4269,409.4552,338.1017,409.27,337.732,409.9218,337.732,409.2658,328.6061,409.7326,319.4801,408.7162,310.3541,408.5927,301.2282,409.27,292.1022,409.4251,292.1665,409.1957,291.6572,409.7196,291.46,409.773,291.0679,409.7733,290.6538,410.0022,290.3344,409.9571,290.2255,410.4143,290.3293,410.6712,289.9494,411.1384,290.0774,411.3459,289.5784,411.77,289.6022" style="stroke:#181818;stroke-width:4;"/><text fill="#000000" font-family="Chalkduster" font-size="24" lengthAdjust="spacing" textLength="129.4674" x="419.27" y="323.4431">metadata</text></g><!--entity c1--><g class="entity" data-entity="c1" data-source-line="11" data-uid="ent0006" id="entity_c1"><polygon fill="none" points="72.34,289.6022,72.34,289.8124,82.2839,289.1879,92.2278,289.7955,102.1718,290.0019,112.1157,288.8888,122.0596,289.5245,132.0035,289.1757,141.9475,289.2187,151.8914,289.5341,161.8353,288.9108,171.7792,290.1559,181.7231,288.9719,191.6671,289.6022,191.6418,289.5413,192.0757,289.8817,192.3632,289.8687,192.7364,290.0626,193.0772,290.1782,193.4348,290.3344,193.4898,290.3572,193.6549,290.7185,193.9081,291.1163,194.0808,291.4807,194.2298,291.8353,194.1671,292.1022,194.4217,292.1022,194.6307,301.2282,194.8693,310.3541,193.4459,319.4801,194.8456,328.6061,194.1671,337.732,194.0758,337.6942,194.185,338.1537,193.7217,338.376,193.7066,338.784,193.8097,339.2409,193.4348,339.4998,193.4286,339.4848,193.0947,339.6787,192.7709,339.897,192.4273,340.0673,192.0201,340.0844,191.6671,340.232,191.6671,340.5193,181.7231,339.6596,171.7792,340.5164,161.8353,340.7802,151.8914,340.6766,141.9475,340.8451,132.0035,339.749,122.0596,339.5799,112.1157,339.6106,102.1718,340.1732,92.2278,340.0355,82.2839,340.9135,72.34,340.232,72.3177,340.1783,71.9427,339.98,71.662,340.0094,71.1943,339.5873,70.8596,339.4864,70.5722,339.4998,70.7721,339.5826,70.56,339.2018,70.5055,338.8864,70.0338,338.3981,70.0847,338.1263,69.84,337.732,70.4304,337.732,69.3676,328.6061,69.7441,319.4801,69.966,310.3541,70.4918,301.2282,69.84,292.1022,69.8387,292.1017,70.1289,291.8077,69.9623,291.3245,70.0708,290.9552,70.5809,290.7522,70.5722,290.3344,70.4808,290.1137,70.9907,290.3447,71.3057,290.1052,71.5987,289.8126,71.9413,289.6397,72.34,289.6022" style="stroke:#181818;stroke-width:4;"/><text fill="#000000" font-family="Chalkduster" font-size="24" lengthAdjust="spacing" textLength="104.3271" x="79.84" y="323.4431">content</text></g><!--entity c2--><g class="entity" data-entity="c2" data-source-line="14" data-uid="ent0008" id="entity_c2"><polygon fill="none" points="252.34,289.6022,252.34,289.8124,262.2839,289.1879,272.2278,289.7955,282.1718,290.0019,292.1157,288.8888,302.0596,289.5245,312.0035,289.1757,321.9475,289.2187,331.8914,289.5341,341.8353,288.9108,351.7792,290.1559,361.7231,288.9719,371.6671,289.6022,371.6418,289.5413,372.0757,289.8817,372.3632,289.8687,372.7364,290.0626,373.0772,290.1782,373.4348,290.3344,373.4898,290.3572,373.6549,290.7185,373.9081,291.1163,374.0808,291.4807,374.2298,291.8353,374.1671,292.1022,374.4217,292.1022,374.6307,301.2282,374.8693,310.3541,373.4459,319.4801,374.8456,328.6061,374.1671,337.732,374.0758,337.6942,374.185,338.1537,373.7217,338.376,373.7066,338.784,373.8097,339.2409,373.4348,339.4998,373.4286,339.4848,373.0947,339.6787,372.7709,339.897,372.4273,340.0673,372.0201,340.0844,371.6671,340.232,371.6671,340.5193,361.7231,339.6596,351.7792,340.5164,341.8353,340.7802,331.8914,340.6766,321.9475,340.8451,312.0035,339.749,302.0596,339.5799,292.1157,339.6106,282.1718,340.1732,272.2278,340.0355,262.2839,340.9135,252.34,340.232,252.3177,340.1783,251.9427,339.98,251.662,340.0094,251.1943,339.5873,250.8596,339.4864,250.5722,339.4998,250.7721,339.5826,250.56,339.2018,250.5055,338.8864,250.0338,338.3981,250.0847,338.1263,249.84,337.732,250.4304,337.732,249.3676,328.6061,249.7441,319.4801,249.966,310.3541,250.4918,301.2282,249.84,292.1022,249.8387,292.1017,250.1289,291.8077,249.9623,291.3245,250.0708,290.9552,250.5809,290.7522,250.5722,290.3344,250.4808,290.1137,250.9907,290.3447,251.3057,290.1052,251.5987,289.8126,251.9413,289.6397,252.34,289.6022" style="stroke:#181818;stroke-width:4;"/><text fill="#000000" font-family="Chalkduster" font-size="24" lengthAdjust="spacing" textLength="104.3271" x="259.84" y="323.4431">content</text></g><!--entity obj2--><g class="entity" data-entity="obj2" data-source-line="18" data-uid="ent0009" id="entity_obj2"><polygon fill="none" points="595.78,289.6022,595.78,289.8124,605.6315,289.1879,615.483,289.7955,625.3346,290.0019,635.1861,288.8888,645.0376,289.5245,654.8891,289.1757,664.7406,289.2187,674.5922,289.5341,684.4437,288.9108,694.2952,290.1559,704.1467,288.9719,713.9982,289.4044,723.8498,290.0342,733.7013,289.5164,743.5528,289.6704,753.4043,289.5703,763.2558,289.7807,773.1073,289.8413,782.9589,290.1879,792.8104,290.2733,802.6619,290.2815,812.5134,289.8568,822.3649,290.0658,832.2165,289.6022,832.306,289.8185,832.478,289.5266,833.0101,290.1041,833.2393,289.9502,833.6988,290.3524,833.9842,290.3344,833.8318,290.2713,834.1096,290.6793,834.5055,291.1362,834.4086,291.3889,834.6024,291.7621,834.7165,292.1022,835.0551,292.1022,835.1327,301.2282,834.7126,310.3541,835.0037,319.4801,834.144,328.6061,834.7165,337.732,834.804,337.7683,834.7388,338.1555,834.5605,338.4959,834.4659,338.8709,833.9819,339.0846,833.9842,339.4998,833.901,339.299,833.5514,339.4549,833.2696,339.7746,832.8985,339.8786,832.6569,340.2954,832.2165,340.232,832.2165,340.0574,822.3649,339.889,812.5134,340.4603,802.6619,339.5652,792.8104,339.7129,782.9589,340.881,773.1073,340.6677,763.2558,340.9665,753.4043,339.9102,743.5528,340.5512,733.7013,340.8225,723.8498,339.7596,713.9982,340.1362,704.1467,340.358,694.2952,340.8838,684.4437,340.2279,674.5922,340.6946,664.7406,339.6783,654.8891,339.5548,645.0376,340.7357,635.1861,339.5151,625.3346,340.741,615.483,340.4387,605.6315,339.9641,595.78,340.232,595.7349,340.1231,595.485,340.2269,595.0347,339.847,594.7948,339.975,594.2953,339.476,594.0122,339.4998,594.2024,339.5786,594.0149,339.208,593.7948,338.824,593.5874,338.4452,593.6502,338.1783,593.28,337.732,593.8936,337.732,593.4493,328.6061,593.5482,319.4801,593.1497,310.3541,593.9965,301.2282,593.28,292.1022,593.3277,292.122,593.4796,291.7707,593.3855,291.3175,593.5945,290.9899,594.0292,290.7557,594.0122,290.3344,594.0671,290.4668,594.3603,290.1748,594.6782,289.9423,595.045,289.8277,595.3389,289.5373,595.78,289.6022" style="stroke:#181818;stroke-width:4;"/><text fill="#000000" font-family="Chalkduster" font-size="24" lengthAdjust="spacing" textLength="221.4365" x="603.28" y="323.4431">Storage Object 2</text></g><!--entity obj3--><g class="entity" data-entity="obj3" data-source-line="20" data-uid="ent0010" id="entity_obj3"><polygon fill="none" points="871.73,289.6022,871.73,289.8124,881.7528,289.1879,891.7756,289.7955,901.7984,290.0019,911.8212,288.8888,921.844,289.5245,931.8667,289.1757,941.8895,289.2187,951.9123,289.5341,961.9351,288.9108,971.9579,290.1559,981.9807,288.9719,992.0035,289.4044,1002.0263,290.0342,1012.0491,289.5164,1022.0719,289.6704,1032.0946,289.5703,1042.1174,289.7807,1052.1402,289.8413,1062.163,290.1879,1072.1858,290.2733,1082.2086,290.2815,1092.2314,289.8568,1102.2542,290.0658,1112.277,289.6022,1112.3665,289.8185,1112.5385,289.5266,1113.0706,290.1041,1113.2998,289.9502,1113.7593,290.3524,1114.0447,290.3344,1113.8923,290.2713,1114.1701,290.6793,1114.566,291.1362,1114.4691,291.3889,1114.6629,291.7621,1114.777,292.1022,1115.1156,292.1022,1115.1932,301.2282,1114.7731,310.3541,1115.0642,319.4801,1114.2045,328.6061,1114.777,337.732,1114.8645,337.7683,1114.7993,338.1555,1114.621,338.4959,1114.5264,338.8709,1114.0424,339.0846,1114.0447,339.4998,1113.9615,339.299,1113.6119,339.4549,1113.3301,339.7746,1112.959,339.8786,1112.7174,340.2954,1112.277,340.232,1112.277,340.0574,1102.2542,339.889,1092.2314,340.4603,1082.2086,339.5652,1072.1858,339.7129,1062.163,340.881,1052.1402,340.6677,1042.1174,340.9665,1032.0946,339.9102,1022.0719,340.5512,1012.0491,340.8225,1002.0263,339.7596,992.0035,340.1362,981.9807,340.358,971.9579,340.8838,961.9351,340.2279,951.9123,340.6946,941.8895,339.6783,931.8667,339.5548,921.844,340.7357,911.8212,339.5151,901.7984,340.741,891.7756,340.4387,881.7528,339.9641,871.73,340.232,871.6849,340.1231,871.435,340.2269,870.9847,339.847,870.7448,339.975,870.2453,339.476,869.9622,339.4998,870.1524,339.5786,869.9649,339.208,869.7448,338.824,869.5374,338.4452,869.6002,338.1783,869.23,337.732,869.8436,337.732,869.3993,328.6061,869.4982,319.4801,869.0997,310.3541,869.9465,301.2282,869.23,292.1022,869.2777,292.122,869.4296,291.7707,869.3355,291.3175,869.5445,290.9899,869.9792,290.7557,869.9622,290.3344,870.0171,290.4668,870.3103,290.1748,870.6282,289.9423,870.995,289.8277,871.2889,289.5373,871.73,289.6022" style="stroke:#181818;stroke-width:4;"/><text fill="#000000" font-family="Chalkduster" font-size="24" lengthAdjust="spacing" textLength="225.547" x="879.23" y="323.4431">Storage Object n</text></g><g class="entity" data-entity="GMN14" data-source-line="29" data-uid="ent0015" id="entity_GMN14"><path d="M1147.18,400.2322 L1147.7405,400.2322 L1146.0751,410.426 L1147.6954,420.6198 L1148.2458,430.8136 L1145.2776,441.0074 L1146.9728,451.2012 L1146.0427,461.395 L1146.1573,471.5888 L1146.9982,481.7826 L1145.3363,491.9764 L1148.6564,502.1702 L1145.4993,512.364 L1146.6526,522.5577 L1147.18,532.7515 L1147.18,533.9034 L1157.2084,532.5228 L1167.2367,532.9335 L1177.2651,532.6664 L1187.2935,533.2276 L1197.3218,533.3892 L1207.3502,534.3134 L1217.3786,534.541 L1227.4069,534.5629 L1237.4353,533.4305 L1247.4637,533.9878 L1257.492,534.6242 L1267.5204,530.8284 L1277.5488,534.5609 L1287.5771,531.9609 L1297.6055,534.175 L1307.6338,531.4315 L1317.6622,532.5689 L1327.6906,534.7292 L1337.7189,532.6216 L1347.7473,533.0323 L1357.7757,533.6546 L1367.804,533.8615 L1377.8324,532.7411 L1387.8608,533.5174 L1397.8891,531.2251 L1407.9175,533.5099 L1417.9459,534.2134 L1427.9742,533.937 L1438.0026,534.3863 L1448.031,531.4633 L1458.0593,531.0124 L1468.0877,531.0945 L1478.1161,532.5945 L1488.1444,532.2275 L1498.1728,534.5686 L1508.2012,532.2857 L1518.2295,531.8367 L1528.2579,533.3603 L1538.2863,530.9733 L1548.3146,531.3672 L1558.343,534.4821 L1568.3714,533.9133 L1578.3997,534.7102 L1588.4281,531.8934 L1598.4565,533.6027 L1608.4848,534.326 L1618.5132,531.4918 L1628.5415,532.4959 L1638.5699,533.0875 L1648.5983,534.4896 L1658.6266,532.7404 L1668.655,533.9851 L1678.6834,531.2748 L1688.7117,530.9455 L1698.7401,534.0945 L1708.7685,530.8397 L1718.7968,534.1088 L1728.8252,532.7515 L1729.3762,532.7515 L1728.1108,522.5416 L1727.8818,512.3317 L1730.0486,502.1217 L1728.027,491.9118 L1730.4035,481.7018 L1727.3512,471.4919 L1730.4717,461.2819 L1730.1167,451.072 L1729.4785,440.862 L1728.9511,430.6521 L1730.7628,420.4422 L1728.8252,410.2322 L1729.2109,410.6179 L1726.9316,408.3386 L1724.9938,406.4008 L1722.7433,404.1503 L1721.2755,402.6825 L1718.8252,400.2322 L1718.8252,400.6452 L1708.7963,400.6924 L1698.7675,398.6099 L1688.7386,399.1516 L1678.7097,401.6475 L1668.6809,401.3782 L1658.652,400.1177 L1648.6232,399.3731 L1638.5943,399.6484 L1628.5654,398.4024 L1618.5366,401.3382 L1608.5077,402.2044 L1598.4788,401.6359 L1588.45,402.0854 L1578.4211,399.8676 L1568.3923,400.4648 L1558.3634,399.1986 L1548.3345,400.9897 L1538.3057,400.8902 L1528.2768,401.7052 L1518.2479,399.6198 L1508.2191,399.8738 L1498.1902,401.4148 L1488.1613,401.7451 L1478.1325,398.8655 L1468.1036,399.7152 L1458.0748,400.6302 L1448.0459,398.6033 L1438.017,401.1746 L1427.9882,400.9202 L1417.9593,399.9635 L1407.9304,400.6115 L1397.9016,402.1753 L1387.8727,399.3979 L1377.8439,401.0722 L1367.815,400.9939 L1357.7861,400.5409 L1347.7573,400.608 L1337.7284,400.5348 L1327.6995,398.5678 L1317.6707,399.1634 L1307.6418,399.0015 L1297.6129,400.4024 L1287.5841,400.4672 L1277.5552,400.6635 L1267.5264,399.4563 L1257.4975,400.0522 L1247.4686,399.9116 L1237.4398,401.7705 L1227.4109,401.3697 L1217.382,398.9375 L1207.3532,400.0377 L1197.3243,398.6929 L1187.2955,401.0012 L1177.2666,401.8548 L1167.2377,401.6844 L1157.2089,399.0707 L1147.18,400.2322" fill="#FFFFE0" style="stroke:#181818;stroke-width:4;"/><path d="M1718.8252,400.2322 L1719.012,400.2322 L1718.4569,402.2322 L1718.997,404.2322 L1719.1805,406.2322 L1718.1911,408.2322 L1718.8252,410.2322 L1718.8252,410.1631 L1720.8252,409.8531 L1722.8252,409.8913 L1724.8252,410.1716 L1726.8252,409.6177 L1728.8252,410.2322 L1729.1732,410.5802 L1726.429,407.8361 L1724.7009,406.1079 L1723.0967,404.5037 L1720.7713,402.1783 L1718.8252,400.2322" fill="#FFFFE0" style="stroke:#181818;stroke-width:1;"/><text fill="#000000" font-family="Chalkduster" font-size="24" lengthAdjust="spacing" textLength="444.3846" x="1153.18" y="429.0731">Write once for each unique file,</text><text fill="#000000" font-family="Chalkduster" font-size="24" lengthAdjust="spacing" textLength="367.7702" x="1153.18" y="459.7029">reduces risk of corruption</text><text fill="#000000" font-family="Chalkduster" font-size="24" lengthAdjust="spacing" textLength="447.6995" x="1153.18" y="490.3328">(with the downside that it's hard</text><text fill="#000000" font-family="Chalkduster" font-size="24" lengthAdjust="spacing" textLength="560.6452" x="1153.18" y="520.9626">for humans to read an OCFL filesystem)</text></g><!--link obj2 to GMN14--><g class="link" data-entity-1="obj2" data-entity-2="GMN14" data-source-line="29" data-uid="lnk16" id="link_obj2_GMN14"><path d="M750.23,340.5822 L750.2788,340.6619 L752.2464,341.7186 L754.4999,343.2424 L756.6603,344.6141 L758.5145,345.4857 L760.7926,347.0495 L760.7752,347.0197 L762.9922,348.2209 L765.2967,349.5726 L767.662,351.029 L769.8176,352.1248 L772.267,353.7256 L772.3853,353.9414 L774.5801,354.8215 L777.1203,356.3316 L779.7025,357.9185 L782.0397,359.0582 L784.5058,360.4332 L784.5195,360.4602 L787.0704,361.7328 L789.684,363.1285 L792.2674,364.4648 L794.9085,365.9143 L797.3612,366.9947 L797.4877,367.2648 L800.1542,368.5157 L802.7391,369.5924 L805.4434,370.9242 L808.1533,372.2678 L810.686,373.2328 L810.5617,372.9373 L813.5321,374.6582 L816.0934,375.4062 L818.9657,376.8938 L821.5178,377.6198 L824.3323,378.97 L824.3219,378.9414 L827.2097,380.2913 L829.8531,380.9733 L832.6407,382.0493 L835.4405,383.1585 L838.1529,384.029 L838.2066,384.206 L840.9218,384.868 L843.7288,385.8324 L846.3873,386.3075 L849.2673,387.5125 L852,388.2322 L852.0522,388.4702 L854.509,388.9663 L856.9916,389.5805 L859.3539,389.6458 L861.8044,390.1134 L864.3331,390.9377 L864.2928,390.6645 L867.1967,391.3354 L870.055,391.6985 L872.9794,392.5081 L875.7911,392.5553 L878.6698,393.0557 L878.6547,392.904 L881.8912,393.4768 L885.0631,393.401 L888.281,393.7865 L891.5438,394.6232 L894.7266,394.6563 L894.7393,394.8495 L898.2467,395.2127 L901.7145,394.9749 L905.2319,395.4898 L908.7384,395.8408 L912.2198,395.8096 L912.2111,395.5998 L915.9473,395.9222 L919.6807,396.1758 L923.4197,396.5645 L927.1369,396.4283 L930.8662,396.5854 L930.8711,396.7909 L934.7635,396.433 L938.6653,396.4718 L942.5811,397.0902 L946.4713,396.6416 L950.3821,397.0538 L950.3847,397.28 L954.4036,397.1918 L958.4216,397.0271 L962.4415,397.0352 L966.4661,397.4425 L970.4841,397.2848 L970.4837,397.1518 L974.5659,397.5606 L978.6452,397.0646 L982.7278,397.5974 L986.8085,397.551 L990.8887,397.3485 L990.889,397.4573 L999.0054,397.3505 L1007.1227,397.6335 L1015.2392,397.5642 L1023.3553,397.3478 L1031.4718,397.2536 L1031.472,397.3728 L1039.15,397.2108 L1046.829,397.6023 L1054.5068,397.3678 L1062.1851,397.3908 L1069.8633,397.3292 L1069.859,397.0589 L1073.3935,397.2045 L1076.9331,397.6758 L1080.4654,397.6863 L1083.9951,397.5316 L1087.5285,397.606 L1087.5238,397.4629 L1090.7787,397.6147 L1094.0253,397.513 L1097.2946,398.1079 L1100.5527,398.3581 L1103.7953,398.1354 L1103.809,398.369 L1106.7303,398.6142 L1109.6258,398.4156 L1112.5486,398.6854 L1115.4533,398.6451 L1118.3803,398.9875 L1118.3927,399.1131 L1120.915,399.3456 L1123.4523,399.7297 L1125.9421,399.6327 L1128.4702,399.9238 L1131,400.2322 L1131.0261,400.4276 L1134.2194,400.9081 L1137.3418,400.8584 L1140.5466,401.4248 L1143.7528,402.002 L1146.93,402.3622" fill="none" style="stroke:#8B0000;stroke-width:4;stroke-dasharray:7.0,7.0;"/></g><!--SRC=[xLVVRnit37xNNy7bPGdGkFOb3GeZ29ewpR0qMOByQ1y7-KJxrBkJF8cowmp-tqUTv_eSsyaop6iBzCMmnE-Zo4yaBV-aJLe4XR-NqeoXqNYf9CbTNiW-bcXerzEum0Pz9a6Q2cp3PUVq76x8EaR0I5C6bzrFc98N0a14UbTwXAqPvDfQsWBfmVD62muF7GwirxmO7nt1dy8nLvf-KQDC7KAhejdkfnR306h04ad6aof0EJLF5Y73ANiuDIwOKck8KwliQMi5DPbIaoUeIKMTY4TII6OfH5-JHu1c1johWC9OGkXQ8bk2xN6EefDXcljGUkXP1oZJ38BHVmI4dYvGe54GIIl8yNZnqMdUj2R5bVmN79iAANfmskUHbLhdme2qDMAxkcRA49GT6QyLya8IQFhPGoQT4j5b5hXiF91bmQG2QQQb4htxiISiT-P1mXl-6if22E5pRGRIoH8KzcGew9Gr_asM29rC5haAJ7KrL3JVw7k4PB-s-olVY-l955URgzhzOjfFQYRfd1sjPbMcZYqukHFfycjK3ustcKvpWzx34k-uq7qJMmWAxD6J2RoLQTvtDXXL7NXu22FhSZ_Wb83x14hDdUYinmN9P4fwg6cy9lwQzH55Px0JBKjhrEE-ZX_ALSFm9mlD5JFFyQ2vrhuKqK9cLGt_tO3_N9lLQ1aeiqxVo-hioCYimR72qHh2V4HLw84iiEyGpHgu3uE1TLHX-TOp6cDHs9NEb-tMANJrEegx2m9F7jmuUzcyCBNW5ZlWkPA9Vo5QJ7yLhju4wyLxA3avdaki7lVYihYBwiu7zF-byB8k783YcUgdoiWXJqfkZeqMweRKP9No-1lthMcvwHBUa9nfOOFwUcB-bqFnsT8yCHM_F3k_MtKs8D7anvFznvDz0q_sgq8QkhiuXo4w7_kZrKYQoQj6ilqH5Ponb-PhQEwrcw_QUmTmtBcvXMZV4Tk_N9s3jy5nHeexqEbkYD7kY3Cvb70T3Eaorki0pTd9-za6l3D3xMprc1Pd7oxcW8FztRUQu0OTXm8VBiJ9z2y4CrAhjEctuUxsTFUrEESh37ntRU2Ex73_a1ktuVZkBm00]--></g></svg>