<svg xmlns="http://www.w3.org/2000/svg" xmlns:xlink="http://www.w3.org/1999/xlink" contentStyleType="text/css" data-diagram-type="CLASS" height="626px" preserveAspectRatio="none" style="width:731px;height:626px;background:#FFFFFF;" version="1.1" viewBox="0 0 731 626" width="731px" zoomAndPan="magnify"><title>OCFL Storage</title><defs/><g><text fill="#000000" font-family="Chalkduster" font-size="42" font-weight="bold" lengthAdjust="spacing" textLength="319.2464" x="199.1989" y="51.7215">OCFL Storage</text><!--cluster stor1--><g class="cluster" data-entity="stor1" data-source-line="6" data-uid="ent0002" id="cluster_stor1"><path d="M84.32,90.6022 L84.32,90.6022 L84.3638,90.6847 L85.4754,89.7795 L86.8439,89.3578 L88.1288,88.7786 L89.1384,87.6816 L90.529,87.3014 L90.5238,87.2673 L93.7744,86.6179 L97.0511,86.1407 L100.3459,85.7832 L103.5783,85.0132 L106.8981,84.821 L106.9198,85.0661 L109.0607,84.3481 L111.2649,84.3457 L113.4768,84.4306 L115.6438,84.0076 L117.8344,83.8517 L117.8364,83.882 L120.2747,83.6759 L122.7222,83.6077 L125.1652,83.4729 L127.6166,83.465 L130.0407,83.0436 L130.0558,83.3415 L132.6666,83.2128 L135.2676,82.892 L137.8829,82.8524 L140.4989,82.826 L143.0937,82.382 L143.0811,82.0617 L145.8008,82.5774 L148.479,82.0384 L151.1888,82.3012 L153.8661,81.7383 L156.57,81.8522 L156.5692,81.8218 L161.8848,82.0372 L167.1811,81.5415 L172.4889,81.4654 L177.7975,81.4245 L183.0993,81.1296 L183.1023,81.3145 L187.7278,81.0536 L192.3584,81.1088 L196.9808,80.6525 L201.6154,80.9591 L206.2419,80.7585 L206.2436,81.0021 L210.7589,80.9248 L215.275,80.9684 L219.7873,80.45 L224.3024,80.3436 L228.82,80.6022 L228.82,80.6022 L228.8181,80.326 L233.3354,80.6073 L237.8506,80.5774 L242.369,80.9988 L246.882,80.6496 L251.3981,80.7585 L251.3957,80.606 L256.0283,80.9341 L260.6504,80.6106 L265.28,80.7504 L269.9168,81.3437 L274.5407,81.1296 L274.546,81.3231 L279.8555,81.6004 L285.1485,81.2757 L290.4621,81.705 L295.7713,81.97 L301.07,81.8522 L301.0618,81.6424 L303.7636,81.9156 L306.4627,82.1201 L309.1672,82.4595 L311.851,82.2742 L314.5463,82.382 L314.5567,82.5873 L317.1445,82.2685 L319.7523,82.346 L322.3894,83.0025 L324.9726,82.5931 L327.5993,83.0436 L327.6142,83.2693 L330.0466,83.2969 L332.474,83.248 L334.9127,83.3716 L337.3778,83.8935 L339.8056,83.8517 L339.7939,83.7192 L342.0161,84.3076 L344.1584,83.9947 L346.3916,84.7066 L348.5736,84.8415 L350.7419,84.821 L350.7582,84.9286 L354.0188,85.3378 L357.3379,86.1324 L360.6042,86.5789 L363.8485,86.8797 L367.111,87.3014 L367.167,87.4067 L368.3256,87.9105 L369.7441,88.9029 L370.8687,89.3427 L372.1142,90.0098 L373.32,90.6022 L371.6977,90.6022 L372.2394,100.404 L374.7353,110.2057 L374.466,120.0075 L373.2055,129.8093 L372.4609,139.611 L372.7362,149.4128 L371.4902,159.2146 L374.426,169.0163 L375.2922,178.8181 L374.7237,188.6199 L375.1732,198.4216 L372.9554,208.2234 L373.5526,218.0252 L372.2864,227.8269 L374.0774,237.6287 L373.978,247.4304 L373.32,257.2322 L373.32,257.2322 L373.4352,257.449 L372.0303,257.8022 L370.8084,258.4998 L369.6871,259.3867 L368.4712,260.0955 L367.111,260.533 L367.0769,260.3078 L363.8243,260.9439 L360.5733,261.5908 L357.2489,261.7529 L354.0392,262.6727 L350.7419,263.0135 L350.752,263.1277 L348.5507,263.1627 L346.3729,263.4641 L344.2087,263.9176 L341.9806,263.6503 L339.8056,263.9827 L339.8148,264.1224 L337.3727,264.271 L334.9265,264.3573 L332.486,264.5301 L330.0439,264.6795 L327.5993,264.7908 L327.5853,264.5138 L324.9797,264.7452 L322.3677,264.8506 L319.7689,265.2161 L317.1589,265.3592 L314.5463,265.4524 L314.5491,265.5243 L311.846,265.4292 L309.1546,265.6344 L306.4584,265.7169 L303.7753,266.1324 L301.07,265.9822 L301.0752,266.1717 L295.7583,265.911 L290.4574,266.2389 L285.1454,266.1594 L279.8501,266.6885 L274.5407,266.7049 L274.545,266.9753 L269.9161,267.0211 L265.2806,266.6597 L260.6585,267.1337 L256.0213,266.6716 L251.3981,267.076 L251.3987,267.1649 L246.8816,266.9742 L242.3672,267.1814 L237.852,267.2765 L233.3371,267.4108 L228.82,267.2322 L228.82,267.2322 L228.8178,266.9123 L224.3058,267.4123 L219.7893,267.2489 L215.2742,267.2964 L210.7598,267.4396 L206.2419,267.076 L206.2419,267.0784 L201.6146,267.0796 L196.9864,267.0224 L192.3577,266.941 L187.7278,266.7787 L183.0993,266.7049 L183.1079,267.0206 L177.7861,266.2894 L172.4944,266.6669 L167.1742,265.994 L161.8693,265.8867 L156.57,265.9822 L156.5707,266 L153.8752,265.8888 L151.1709,265.5514 L148.4914,265.8481 L145.7908,265.6067 L143.0937,265.4524 L143.11,265.775 L140.4981,265.6162 L137.8624,264.9888 L135.2529,264.8788 L132.6484,264.8658 L130.0407,264.7908 L130.0511,264.9485 L127.6113,264.8079 L125.167,264.6011 L122.7069,264.1543 L120.2943,264.4265 L117.8344,263.9827 L117.8593,264.2633 L115.6453,263.7679 L113.4505,263.4892 L111.2569,263.2235 L109.077,263.1123 L106.8981,263.0135 L106.9073,263.0738 L103.6197,262.4873 L100.3226,261.8377 L97.1091,261.7393 L93.7723,260.8274 L90.529,260.533 L90.6338,260.7301 L89.3763,260.0405 L88.123,259.3586 L86.9481,258.8243 L85.5105,257.7959 L84.32,257.2322 L83.5183,257.2322 L85.7037,247.4304 L82.7283,237.6287 L83.696,227.8269 L84.628,218.0252 L84.5032,208.2234 L83.3641,198.4216 L84.2054,188.6199 L86.3056,178.8181 L86.0493,169.0163 L82.7299,159.2146 L84.5294,149.4128 L82.9496,139.611 L84.2498,129.8093 L85.1013,120.0075 L85.4397,110.2057 L82.5474,100.404 L84.32,90.6022" fill="#98FB98" style="stroke:#181818;stroke-width:4;"/><path d="M84.32,90.6022 L84.32,90.6022 L84.3638,90.6847 L85.4754,91.0998 L86.8439,91.9984 L88.1288,92.7395 L89.1384,92.9629 L90.529,93.903 L90.5238,93.8688 L93.7744,94.2117 L97.0511,94.7267 L100.3459,95.3613 L103.5783,95.5836 L106.8981,96.3835 L106.9198,96.6286 L109.0607,96.2983 L111.2649,96.6836 L113.4768,97.1562 L115.6438,97.1209 L117.8344,97.3527 L117.8364,97.383 L120.2747,97.5002 L122.7222,97.7551 L125.1652,97.9436 L127.6166,98.2589 L130.0407,98.1608 L130.0558,98.4587 L132.6666,98.5946 L135.2676,98.5385 L137.8829,98.7636 L140.4989,99.0018 L143.0937,98.8224 L143.0811,98.5021 L145.8008,99.2297 L148.479,98.9027 L151.1888,99.3774 L153.8661,99.0264 L156.57,99.3522 L156.5692,99.3218 L161.8848,99.8262 L167.1811,99.6196 L172.4889,99.8326 L177.7975,100.0808 L183.0993,100.0749 L183.1023,100.2598 L187.7278,100.1474 L192.3584,100.3509 L196.9808,100.0431 L201.6154,100.4981 L206.2419,100.446 L206.2436,100.6896 L210.7589,100.6748 L215.275,100.7809 L219.7873,100.325 L224.3024,100.2811 L228.82,100.6022 L228.82,100.6022 L228.8181,100.326 L233.3354,100.5448 L237.8506,100.4524 L242.369,100.8113 L246.882,100.3996 L251.3981,100.446 L251.3957,100.2935 L256.0283,100.4732 L260.6504,100.0012 L265.28,99.9926 L269.9168,100.4375 L274.5407,100.0749 L274.546,100.2684 L279.8555,100.2567 L285.1485,99.6428 L290.4621,99.7831 L295.7713,99.7591 L301.07,99.3522 L301.0618,99.1424 L303.7636,99.2037 L306.4627,99.1962 L309.1672,99.3238 L311.851,98.9265 L314.5463,98.8224 L314.5567,99.0277 L317.1445,98.4443 L319.7523,98.2572 L322.3894,98.649 L324.9726,97.9749 L327.5993,98.1608 L327.6142,98.3865 L330.0466,98.0908 L332.474,97.7187 L334.9127,97.5191 L337.3778,97.7178 L339.8056,97.3527 L339.7939,97.2202 L342.0161,97.4209 L344.1584,96.7203 L346.3916,97.0445 L348.5736,96.7917 L350.7419,96.3835 L350.7582,96.4911 L354.0188,95.9081 L357.3379,95.7106 L360.6042,95.1648 L363.8485,94.4735 L367.111,93.903 L367.167,94.0082 L368.3256,93.1917 L369.7441,92.8638 L370.8687,91.9833 L372.1142,91.3301 L373.32,90.6022" fill="none" style="stroke:#181818;stroke-width:4;"/><text fill="#000000" font-family="Chalkduster" font-size="24" font-style="italic" lengthAdjust="spacing" textLength="169.1404" x="144.2498" y="126.4431">&#171;repository&#187;</text><text fill="#000000" font-family="Chalkduster" font-size="24" font-weight="bold" lengthAdjust="spacing" textLength="176.5923" x="140.5239" y="157.0729">Storage Root</text></g><!--entity Obj-1--><g class="entity" data-entity="Obj-1" data-source-line="7" data-uid="ent0003" id="entity_Obj-1"><path d="M108.52,193.6022 L108.52,193.6022 L108.5787,193.6749 L109.8356,192.3027 L111.4366,191.3565 L112.9255,190.2716 L114.0459,188.7306 L115.6764,187.821 L115.67,187.787 L118.7901,187.0409 L121.9425,186.466 L125.1173,186.0099 L128.2148,185.144 L131.4206,184.8522 L131.4376,185.0977 L134.55,184.354 L137.7121,184.327 L140.8803,184.3875 L144.0132,183.9392 L147.1647,183.7585 L147.1653,183.7888 L148.5957,183.713 L150.029,183.7753 L151.4609,183.771 L152.8955,183.8937 L154.3211,183.6022 L154.3211,183.6022 L154.3276,183.9004 L155.759,183.9353 L157.1861,183.7779 L158.6195,183.9019 L160.0531,184.0392 L161.4775,183.7585 L161.4553,183.4387 L164.6473,184.278 L167.766,184.0645 L170.9404,184.6514 L174.0576,184.414 L177.2217,184.8522 L177.216,184.8223 L180.4316,185.7699 L183.5153,186.0184 L186.6768,186.6795 L189.8448,187.3751 L192.9658,187.821 L193.082,187.9649 L194.396,188.9759 L195.9086,190.2328 L197.0998,191.0918 L198.7704,192.5443 L200.1222,193.6022 L200.6095,193.6022 L200.5174,201.5282 L200.6671,209.4541 L199.6928,217.3801 L199.5425,225.3061 L200.1222,233.232 L200.1222,233.232 L199.9487,233.0172 L198.6745,234.3679 L197.2048,235.4766 L196.0187,236.9364 L194.3483,237.7967 L192.9658,239.0133 L192.9375,238.8635 L189.8358,239.7067 L186.6132,239.9096 L183.4766,240.5678 L180.4239,241.6717 L177.2217,241.982 L177.2351,242.1752 L174.0955,242.5264 L170.9141,242.2769 L167.785,242.7798 L164.6445,243.1188 L161.4775,243.0758 L161.4729,242.8659 L160.0453,243.0645 L158.6162,243.1943 L157.19,243.4591 L155.7523,243.1989 L154.3211,243.232 L154.3211,243.232 L154.3256,243.4376 L152.8844,242.9547 L151.452,242.8686 L150.0321,243.3621 L148.589,242.7885 L147.1647,243.0758 L147.1804,243.3015 L144.0222,242.9487 L140.8588,242.5195 L137.7073,242.2627 L134.5835,242.4042 L131.4206,241.982 L131.3959,241.8513 L128.3205,241.6468 L125.0774,240.5531 L122.0249,240.4705 L118.8651,239.8186 L115.6764,239.0133 L115.7448,239.098 L114.2583,237.8734 L113.0168,236.952 L111.5539,235.7567 L109.9986,234.4468 L108.52,233.232 L108.7584,233.232 L108.4042,225.3061 L109.1568,217.3801 L108.6577,209.4541 L108.6734,201.5282 L108.52,193.6022" fill="none" style="stroke:#181818;stroke-width:4;"/><path d="M108.52,193.6022 L108.52,193.6022 L108.5787,193.6749 L109.8356,194.6152 L111.4366,195.9815 L112.9255,197.2091 L114.0459,197.9806 L115.6764,199.3835 L115.67,199.3495 L118.7901,199.7909 L121.9425,200.4035 L125.1173,201.1349 L128.2148,201.4565 L131.4206,202.3522 L131.4376,202.5977 L134.55,202.2915 L137.7121,202.702 L140.8803,203.2 L144.0132,203.1892 L147.1647,203.446 L147.1653,203.4763 L148.5957,203.463 L150.029,203.5878 L151.4609,203.646 L152.8955,203.8312 L154.3211,203.6022 L154.3211,203.6022 L154.3276,203.9004 L155.759,203.8728 L157.1861,203.6529 L158.6195,203.7144 L160.0531,203.7892 L161.4775,203.446 L161.4553,203.1262 L164.6473,203.528 L167.766,202.877 L170.9404,203.0264 L174.0576,202.3515 L177.2217,202.3522 L177.216,202.3223 L180.4316,202.0824 L183.5153,201.1434 L186.6768,200.617 L189.8448,200.1251 L192.9658,199.3835 L193.082,199.5274 L194.396,198.2259 L195.9086,197.1703 L197.0998,195.7168 L198.7704,194.8568 L200.1222,193.6022" fill="none" style="stroke:#181818;stroke-width:4;"/><text fill="#000000" font-family="Chalkduster" font-size="24" lengthAdjust="spacing" textLength="71.6022" x="118.52" y="231.4431">Obj-1</text></g><!--entity Obj-n--><g class="entity" data-entity="Obj-n" data-source-line="10" data-uid="ent0004" id="entity_Obj-n"><path d="M234.97,193.6022 L234.97,193.6022 L235.0275,193.6758 L236.3364,192.3009 L237.9824,191.3574 L239.5187,190.2734 L240.6938,188.7274 L242.3688,187.821 L242.3626,187.787 L245.5903,187.0407 L248.8492,186.4658 L252.1298,186.0099 L255.3356,185.1437 L258.6462,184.8522 L258.6627,185.0977 L261.8829,184.354 L265.1513,184.327 L268.4256,184.3875 L271.6656,183.9392 L274.9237,183.7585 L274.9243,183.7888 L276.4031,183.713 L277.8849,183.7753 L279.3652,183.771 L280.8482,183.8937 L282.3225,183.6022 L282.3225,183.6022 L282.3288,183.9004 L283.8086,183.9353 L285.2844,183.7779 L286.7661,183.902 L288.2481,184.0392 L289.7213,183.7585 L289.6998,183.4387 L292.997,184.2781 L296.2234,184.0645 L299.5037,184.6514 L302.7285,184.4139 L305.9987,184.8522 L305.9933,184.8223 L309.3134,185.7702 L312.5058,186.0184 L315.7736,186.6795 L319.0477,187.3753 L322.2761,187.821 L322.39,187.9667 L323.7548,188.9758 L325.3143,190.234 L326.5588,191.0892 L328.273,192.5456 L329.675,193.6022 L330.1623,193.6022 L330.0701,201.5282 L330.2199,209.4541 L329.2456,217.3801 L329.0953,225.3061 L329.675,233.232 L329.675,233.232 L329.5049,233.0144 L328.1791,234.3677 L326.6617,235.4757 L325.4221,236.9394 L323.7081,237.7959 L322.2761,239.0133 L322.2488,238.8633 L319.0389,239.7069 L315.712,239.9092 L312.4683,240.5676 L309.306,241.672 L305.9987,241.982 L306.0117,242.1752 L302.7651,242.5265 L299.4782,242.2768 L296.2418,242.7798 L292.9944,243.1189 L289.7213,243.0758 L289.7169,242.8659 L288.2406,243.0644 L286.763,243.1943 L285.2881,243.4592 L283.8022,243.1989 L282.3225,243.232 L282.3225,243.232 L282.3268,243.4376 L280.8375,242.9547 L279.3566,242.8686 L277.8879,243.3621 L276.3967,242.7885 L274.9237,243.0758 L274.9388,243.3015 L271.6743,242.9487 L268.4047,242.5195 L265.1467,242.2627 L261.9154,242.4042 L258.6462,241.982 L258.6224,241.8512 L255.438,241.6471 L252.0912,240.5529 L248.929,240.4708 L245.6629,239.8188 L242.3688,239.0133 L242.4359,239.0991 L240.902,237.8736 L239.6081,236.9553 L238.0974,235.7594 L236.4961,234.4476 L234.97,233.232 L235.2084,233.232 L234.8542,225.3061 L235.6068,217.3801 L235.1077,209.4541 L235.1234,201.5282 L234.97,193.6022" fill="none" style="stroke:#181818;stroke-width:4;"/><path d="M234.97,193.6022 L234.97,193.6022 L235.0275,193.6758 L236.3364,194.6134 L237.9824,195.9824 L239.5187,197.2109 L240.6938,197.9774 L242.3688,199.3835 L242.3626,199.3495 L245.5903,199.7907 L248.8492,200.4033 L252.1298,201.1349 L255.3356,201.4562 L258.6462,202.3522 L258.6627,202.5977 L261.8829,202.2915 L265.1513,202.702 L268.4256,203.2 L271.6656,203.1892 L274.9237,203.446 L274.9243,203.4763 L276.4031,203.463 L277.8849,203.5878 L279.3652,203.646 L280.8482,203.8312 L282.3225,203.6022 L282.3225,203.6022 L282.3288,203.9004 L283.8086,203.8728 L285.2844,203.6529 L286.7661,203.7145 L288.2481,203.7892 L289.7213,203.446 L289.6998,203.1262 L292.997,203.5281 L296.2234,202.877 L299.5037,203.0264 L302.7285,202.3514 L305.9987,202.3522 L305.9933,202.3223 L309.3134,202.0827 L312.5058,201.1434 L315.7736,200.617 L319.0477,200.1253 L322.2761,199.3835 L322.39,199.5292 L323.7548,198.2258 L325.3143,197.1715 L326.5588,195.7142 L328.273,194.8581 L329.675,193.6022" fill="none" style="stroke:#181818;stroke-width:4;"/><text fill="#000000" font-family="Chalkduster" font-size="24" lengthAdjust="spacing" textLength="74.705" x="244.97" y="231.4431">Obj-n</text></g><g class="entity" data-entity="GMN5" data-source-line="17" data-uid="ent0006" id="entity_GMN5"><path d="M6,303.2322 L6.5605,303.2322 L4.8951,313.1165 L6.5154,323.0009 L7.0658,332.8852 L4.0976,342.7695 L5.7928,352.6538 L4.8627,362.5381 L4.9773,372.4225 L5.8182,382.3068 L4.1563,392.1911 L7.4764,402.0754 L4.3193,411.9598 L5.4726,421.8441 L7.1519,431.7284 L5.7713,441.6127 L6.182,451.4971 L5.9148,461.3814 L6.4761,471.2657 L6.6377,481.15 L7.5618,491.0343 L7.7895,500.9187 L7.8114,510.803 L6.679,520.6873 L7.2362,530.5716 L7.8726,540.456 L4.0768,550.3403 L7.8094,560.2246 L5.2093,570.1089 L7.4235,579.9933 L4.6799,589.8776 L5.8173,599.7619 L7.9776,609.6462 L6,619.5305 L6,619.4006 L15.9812,619.8113 L25.9623,620.4336 L35.9435,620.6405 L45.9247,619.5201 L55.9058,620.2964 L65.887,618.0041 L75.8682,620.2889 L85.8494,620.9924 L95.8305,620.716 L105.8117,621.1653 L115.7929,618.2423 L125.774,617.7914 L135.7552,617.8735 L145.7364,619.3735 L155.7175,619.0065 L165.6987,621.3476 L175.6799,619.0647 L185.661,618.6157 L195.6422,620.1393 L205.6234,617.7523 L215.6045,618.1462 L225.5857,621.2611 L235.5669,620.6923 L245.5481,621.4892 L255.5292,618.6724 L265.5104,620.3817 L275.4916,621.105 L285.4727,618.2708 L295.4539,619.2749 L305.4351,619.8665 L315.4162,621.2686 L325.3974,619.5194 L335.3786,620.7641 L345.3597,618.0538 L355.3409,617.7245 L365.3221,620.8735 L375.3033,617.6187 L385.2844,620.8878 L395.2656,620.0816 L405.2468,618.8161 L415.2279,618.5871 L425.2091,620.7539 L435.1903,618.7323 L445.1714,621.1088 L455.1526,618.0566 L465.1338,621.177 L475.1149,620.822 L485.0961,620.1838 L495.0773,619.6565 L505.0584,621.4682 L515.0396,621.1667 L525.0208,619.9819 L535.002,620.2457 L544.9831,619.1832 L554.9643,621.4411 L564.9455,619.9435 L574.9266,619.9907 L584.9078,617.9083 L594.889,618.45 L604.8701,620.9459 L614.8513,620.6766 L624.8325,619.4161 L634.8136,618.6714 L644.7948,618.9467 L654.776,617.7007 L664.7572,620.6365 L674.7383,621.5027 L684.7195,620.9343 L694.7007,621.3837 L704.6818,619.1659 L714.663,619.7631 L724.6442,619.5305 L723.6106,619.5305 L725.4016,609.65 L725.3022,599.7694 L726.1172,589.8888 L724.0317,580.0082 L724.2857,570.1276 L725.8267,560.247 L726.1571,550.3664 L723.2774,540.4858 L724.1271,530.6052 L725.0422,520.7246 L723.0152,510.844 L725.5865,500.9634 L725.3321,491.0829 L724.3755,481.2023 L725.0235,471.3217 L726.5873,461.4411 L723.8098,451.5605 L725.4841,441.6799 L725.4059,431.7993 L724.9529,421.9187 L725.02,412.0381 L724.9468,402.1575 L722.9797,392.2769 L723.5753,382.3964 L723.4134,372.5158 L724.8144,362.6352 L724.8792,352.7546 L725.0755,342.874 L723.8682,332.9934 L724.4641,323.1128 L724.6442,313.2322 L724.5686,313.1567 L723.0067,311.5948 L720.9123,309.5003 L718.339,306.927 L716.5983,305.1864 L714.6442,303.2322 L714.6442,301.6929 L704.6633,304.0012 L694.6824,304.8548 L684.7015,304.6844 L674.7206,302.0707 L664.7396,304.4695 L654.7587,301.2514 L644.7778,303.766 L634.7969,302.434 L624.816,303.4901 L614.8351,303.8731 L604.8542,304.4912 L594.8733,301.3124 L584.8924,304.5001 L574.9115,303.7073 L564.9306,304.1798 L554.9497,305.2263 L544.9688,303.2468 L534.9879,303.6996 L525.007,303.8014 L515.0261,303.7582 L505.0452,303.23 L495.0643,305.1274 L485.0834,301.6062 L475.1025,304.7396 L465.1216,301.5682 L455.1407,301.7914 L445.1598,303.3389 L435.1789,303.3076 L425.198,301.918 L415.2171,304.3355 L405.2361,303.5225 L395.2552,305.17 L385.2743,305.0112 L375.2934,302.0369 L365.3125,302.1711 L355.3316,302.8877 L345.3507,304.1803 L335.3698,304.3068 L325.3889,304.0353 L315.408,302.3203 L305.4271,304.9292 L295.4462,304.9223 L285.4653,303.1061 L275.4844,302.5947 L265.5035,302.1618 L255.5226,302.66 L245.5417,303.5987 L235.5608,303.0498 L225.5799,302.1181 L215.599,304.5319 L205.6181,302.0084 L195.6372,304.5719 L185.6563,304.3715 L175.6754,304.2239 L165.6945,305.0789 L155.7136,302.5765 L145.7327,302.4305 L135.7517,304.6159 L125.7708,301.6405 L115.7899,302.6082 L105.809,303.5402 L95.8281,303.4154 L85.8472,302.2763 L75.8663,303.1176 L65.8854,305.2178 L55.9045,304.9615 L45.9236,301.6421 L35.9427,303.4416 L25.9618,301.8618 L15.9809,303.162 L6,303.2322" fill="#FFFFE0" style="stroke:#181818;stroke-width:4;"/><path d="M714.6442,303.2322 L714.831,303.2322 L714.2759,305.2322 L714.816,307.2322 L714.9994,309.2322 L714.01,311.2322 L714.6442,313.2322 L714.6442,313.1631 L716.6442,312.8531 L718.6442,312.8913 L720.6442,313.1716 L722.6442,312.6177 L724.6442,313.2322 L724.9922,313.5802 L722.248,310.8361 L720.5199,309.1079 L718.9157,307.5037 L716.5903,305.1783 L714.6442,303.2322" fill="#FFFFE0" style="stroke:#181818;stroke-width:1;"/><text fill="#000000" font-family="Chalkduster" font-size="24" lengthAdjust="spacing" textLength="12.3845" x="12" y="332.0731">&#160;</text><text fill="#000000" font-family="Chalkduster" font-size="24" lengthAdjust="spacing" textLength="514.316" x="12" y="362.7029">- File system root for OCFL storage*</text><text fill="#000000" font-family="Chalkduster" font-size="24" lengthAdjust="spacing" textLength="638.5325" x="12" y="393.3328">- Contains OCFL objects which are directories</text><text fill="#000000" font-family="Chalkduster" font-size="24" lengthAdjust="spacing" textLength="617.5557" x="12" y="423.9626">- OCFL objects contain files and directories</text><text fill="#000000" font-family="Chalkduster" font-size="24" lengthAdjust="spacing" textLength="404.2343" x="12" y="454.5924">- OCFL objects are versioned</text><text fill="#000000" font-family="Chalkduster" font-size="24" lengthAdjust="spacing" textLength="632.9636" x="12" y="485.2223">- OCFL objects are identified with unique IDs</text><text fill="#000000" font-family="Chalkduster" font-size="24" lengthAdjust="spacing" textLength="12.3845" x="12" y="515.8521">&#160;</text><text fill="#000000" font-family="Chalkduster" font-size="24" lengthAdjust="spacing" textLength="685.7104" x="23.9337" y="546.4819">*OCFL can also be use with other storage systems</text><text fill="#000000" font-family="Chalkduster" font-size="24" lengthAdjust="spacing" textLength="529.6177" x="12" y="577.1118">like Amazon S3 or Azure Blob Storage</text><text fill="#000000" font-family="Chalkduster" font-size="24" lengthAdjust="spacing" textLength="12.3845" x="12" y="607.7416">&#160;</text></g><!--link stor1 to GMN5--><g class="link" data-entity-1="stor1" data-entity-2="GMN5" data-source-line="17" data-uid="lnk7" id="link_stor1_GMN5"><path d="M365.32,267.4091 L365.4134,267.4091 L365.1359,267.7958 L365.4059,268.1825 L365.4976,268.5692 L365.0029,268.9558 L365.32,269.3425 L365.2855,269.3425 L365.1304,276.0345 L365.1496,282.7264 L365.2897,289.4183 L365.0127,296.1103 L365.32,302.8022" fill="none" style="stroke:#8B0000;stroke-width:4;stroke-dasharray:7.0,7.0;"/></g><!--SRC=[xPRRJXin48Rl_HHJhW0fQGW7eGYXXgHKK2Y80Bsi9kj9OkArKzkRDAdoxftT03b3gPgUr8j4kvv_x9dFCrw_KYRIYQHFCPe-vFEl9GRCyGisAIOJSZxqDUN3bo222ffAS54vFeDQi8uLGW28rAEEdc3jVXIkh0rhW1uy3sp1mO6ZZlMAN_g7X_2LdM3iT56_ossjyMWwFEGVf0-p2hCsyikCGp4KGXWR2Ees11k3ROpM4Y87nqeJ-BuF58FZIA1XtIXgFuflaqKLQm8guqS6Mx-ZA7ZejLJK0dG4KZaUiKwHP_MKA1gvGeFNyO16FYLEv-gIyyeQaekCIZ9brL0aeQT22nAZFYS49rNFG3OpUOG6K7iBTOA4WMGw6rha7ZAwJzSBhTe4vHW7ra1j6pZnyY3XLOwqhOytZJZcb1v3X3VyaiIQ7trRcGuwZ45I0nCTZZdH3nWJL5gespBX9To4AZNNr82Wk3CnUc9OrS285fkp8deqxHGdJEYSxItsoamLgpcVAhhs5QESCLxpphKDUGzpVcMjcYQjPT3K2CycS8HHk-biOcIsuC41zAnh-mwd15oz42jk2MSzJI73AAYk2lqbyKzOdo3w8AigZAsHJyzLdiKreU5_1iqrDyvnhx3KFXVHL6PPczqtt_UpMQp69BIuJGQOhPrwjBWl-f9wInp61qUcxg2cfYCoI-G-wNIi2vcMTxqL-gIrNJZvlDqwIMwoZjBHAS33cHtdMLOFPYAuwGvuAJBn0z3Iz1Vf9fjWERnPvC6XOIQEUt4UxZJTz415qzJqomZFS-4093hfHsImooSbDyTA2tL5D9bIE_rC_6aiLrt2Ay8PQPl8tmVpPnwABqRppAduU6lxQ-ci0D7m_ztvtxuxNsequURyx25SsCeN2yNTV77z8yTsoZ4Kzg6mNIhibhRte5ofNKDgtn3hxouPhKrSb6BpmQbwabRwXZZ5Bi9Lmld5QU5qo9nMtpyCm5lJLSvcjrfnUdi-5kpjv8vKW1ev3WLkpqLrT9TdZyXAPPebkBa-pksBC_ww9fnH2RWrAbp8mVLBKBxv1W00]--></g></svg>