<?xml version="1.0" encoding="UTF-8" standalone="no"?><svg xmlns="http://www.w3.org/2000/svg" xmlns:xlink="http://www.w3.org/1999/xlink" contentStyleType="text/css" height="742px" preserveAspectRatio="none" style="width:1473px;height:742px;background:#FFFFFF;" version="1.1" viewBox="0 0 1473 742" width="1473px" zoomAndPan="magnify"><defs/><g><text fill="#000000" font-family="Chalkduster" font-size="42" font-weight="bold" lengthAdjust="spacing" textLength="676" x="391.5" y="51.7215">Dynamic Datapacks -- TODO</text><!--cluster RO-Crate Profiles--><g id="cluster_RO-Crate Profiles"><polygon fill="#E6E6FA" points="9.5,83.8912,9.5,84.1013,19.4658,83.4768,29.4315,84.0844,39.3973,84.2908,49.363,83.1778,59.3288,83.8134,69.2945,83.4647,79.2603,83.5077,89.226,83.823,99.1918,83.1998,109.1575,84.4448,119.1233,83.2609,129.089,83.6934,139.0548,84.3231,149.0205,83.8054,158.9863,83.9594,168.9521,83.8592,178.9178,84.0697,188.8836,84.1303,198.8493,84.4769,208.8151,84.5622,218.7808,84.5704,228.7466,84.1458,238.7123,84.3547,248.6781,84.5934,258.6438,83.17,268.6096,84.5697,278.5753,83.5947,288.5411,84.425,298.5068,83.3961,308.4726,83.8227,318.4384,84.6328,328.4041,83.8424,338.3699,83.9965,348.3356,84.2298,358.3014,84.3074,368.2671,83.8873,378.2329,84.1784,388.1986,83.3187,398.1644,84.1755,408.1301,84.4394,418.0959,84.3357,428.0616,84.5042,438.0274,83.4081,447.9932,83.239,457.9589,83.2698,467.9247,83.8323,477.8904,83.6946,487.8562,84.5726,497.8219,83.7165,507.7877,83.5481,517.7534,84.1194,527.7192,83.2243,537.6849,83.372,547.6507,84.5401,557.6164,84.3268,567.5822,84.6257,577.5479,83.5694,587.5137,84.2104,597.4795,84.4816,607.4452,83.4188,617.411,83.7953,627.3767,84.0171,637.3425,84.5429,647.3082,83.887,657.274,84.3537,667.2397,83.3374,677.2055,83.2139,687.1712,84.3948,697.137,83.1742,707.1027,84.4001,717.0685,84.0978,727.0342,83.6232,737,83.5374,746.9658,84.3499,756.9315,83.5918,766.8973,84.483,776.863,83.3384,786.8288,84.5086,796.7945,84.3755,806.7603,84.1361,816.726,83.9384,826.6918,84.6178,836.6575,84.5047,846.6233,84.0604,856.589,84.1593,866.5548,83.7609,876.5205,84.6076,886.4863,84.046,896.4521,84.0637,906.4178,83.2828,916.3836,83.4859,926.3493,84.4219,936.3151,84.3209,946.2808,83.8482,956.2466,83.569,966.2123,83.6722,976.1781,83.205,986.1438,84.3059,996.1096,84.6307,1006.0753,84.4176,1016.0411,84.5861,1026.0068,83.7544,1035.9726,83.9784,1045.9384,83.5036,1055.9041,84.1752,1065.8699,84.1379,1075.8356,84.4435,1085.8014,83.6615,1095.7671,83.7568,1105.7329,84.3346,1115.6986,84.4585,1125.6644,83.3786,1135.6301,83.6973,1145.5959,84.0404,1155.5616,83.2803,1165.5274,84.2446,1175.4932,84.1492,1185.4589,83.7904,1195.4247,84.0334,1205.3904,84.6198,1215.3562,83.5783,1225.3219,84.2061,1235.2877,84.1768,1245.2534,84.0069,1255.2192,84.0321,1265.1849,84.0046,1275.1507,83.267,1285.1164,83.4903,1295.0822,83.4296,1305.0479,83.955,1315.0137,83.9793,1324.9795,84.0529,1334.9452,83.6002,1344.911,83.8236,1354.8767,83.7709,1364.8425,84.468,1374.8082,84.3177,1384.774,83.4056,1394.7397,83.8182,1404.7055,83.3139,1414.6712,84.1795,1424.637,84.4996,1434.6027,84.4357,1444.5685,83.4556,1454.5342,84.3551,1464.5,83.8912,1464.4052,83.6624,1464.8791,84.0992,1465.1689,84.0919,1465.573,84.3603,1465.9449,84.551,1466.2678,84.6234,1466.4132,84.6836,1466.1925,84.8851,1466.7071,85.3912,1466.762,85.7068,1466.963,86.0829,1467,86.3912,1467.7478,86.3912,1467.0055,96.3604,1467.1753,106.3296,1467.2134,116.2989,1467.1972,126.2681,1466.9992,136.2373,1467.7107,146.2065,1466.3903,156.1758,1467.5653,166.145,1466.376,176.1142,1466.4597,186.0835,1467.04,196.0527,1467.0283,206.0219,1466.5072,215.9912,1467.4137,225.9604,1467.1089,235.9296,1467.7267,245.8989,1467.6671,255.8681,1466.5517,265.8373,1466.6021,275.8065,1466.8708,285.7758,1467.3555,295.745,1467.403,305.7142,1467.3012,315.6835,1466.658,325.6527,1467.6364,335.6219,1467.6338,345.5912,1466.9527,355.5604,1466.7609,365.5296,1466.5986,375.4989,1466.7854,385.4681,1467.1374,395.4373,1466.9316,405.4065,1466.5822,415.3758,1467.4874,425.345,1466.5411,435.3142,1467.5024,445.2835,1467.4272,455.2527,1467.3719,465.2219,1467.6925,475.1912,1466.7541,485.1604,1466.6994,495.1296,1467.5189,505.0989,1466.4031,515.0681,1466.766,525.0373,1467.1155,535.0065,1467.0687,544.9758,1466.6415,554.945,1466.957,564.9142,1467.7446,574.8835,1467.6485,584.8527,1466.4037,594.8219,1467.0785,604.7912,1466.4861,614.7604,1466.9737,624.7296,1467.293,634.6989,1467.4199,644.6681,1466.3353,654.6373,1467.4005,664.6065,1467.0084,674.5758,1466.4447,684.545,1466.5289,694.5142,1467.3266,704.4835,1467.2499,714.4527,1466.9836,724.4219,1467,734.3912,1466.793,734.3054,1467.0562,734.8287,1466.6111,735.0585,1466.398,735.3845,1466.3935,735.7968,1466.2678,736.1589,1466.343,736.3405,1465.9927,736.4949,1465.5651,736.4626,1465.1878,736.5517,1464.8752,736.797,1464.5,736.8912,1464.5,737.0774,1454.5342,736.3834,1444.5685,737.3051,1434.6027,737.45,1424.637,736.6754,1414.6712,736.462,1404.7055,737.5658,1394.7397,736.9122,1384.774,736.891,1374.8082,737.1902,1364.8425,736.2455,1354.8767,737.4211,1344.911,736.8757,1334.9452,737.56,1324.9795,736.6753,1315.0137,737.3002,1305.0479,736.4472,1295.0822,737.1362,1285.1164,737.2705,1275.1507,736.5638,1265.1849,737.2542,1255.2192,736.3197,1245.2534,736.4207,1235.2877,737.574,1225.3219,737.5755,1215.3562,737.4597,1205.3904,736.5308,1195.4247,737.2754,1185.4589,736.4191,1175.4932,736.9493,1165.5274,736.8899,1155.5616,736.6287,1145.5959,737.5071,1135.6301,737.3344,1125.6644,736.5704,1115.6986,737.4178,1105.7329,736.983,1095.7671,736.3076,1085.8014,736.6578,1075.8356,736.3659,1065.8699,736.7521,1055.9041,736.2622,1045.9384,736.291,1035.9726,736.9615,1026.0068,736.7708,1016.0411,736.8326,1006.0753,736.748,996.1096,737.0585,986.1438,736.3361,976.1781,737.0512,966.2123,736.148,956.2466,737.1872,946.2808,737.4839,936.3151,737.4133,926.3493,737.2525,916.3836,737.0834,906.4178,736.9969,896.4521,736.2511,886.4863,737.3377,876.5205,737.2208,866.5548,736.7378,856.589,736.8854,846.6233,736.6826,836.6575,737.1089,826.6918,737.5717,816.726,736.5373,806.7603,737.36,796.7945,736.802,786.8288,736.5119,776.863,736.4593,766.8973,736.2465,756.9315,736.4503,746.9658,736.9275,737,737.1641,727.0342,737.4674,717.0685,737.3113,707.1027,736.1798,697.137,737.5102,687.1712,737.3773,677.2055,737.4319,667.2397,737.413,657.274,736.232,647.3082,736.6334,637.3425,737.2071,627.3767,736.4097,617.411,736.7883,607.4452,736.9582,597.4795,737.2172,587.5137,736.9369,577.5479,737.6359,567.5822,737.3026,557.6164,737.1472,547.6507,736.3512,537.6849,737.2299,527.7192,736.3167,517.7534,737.1968,507.7877,736.899,497.8219,737.1906,487.8562,736.8037,477.8904,736.6951,467.9247,736.1503,457.9589,736.6767,447.9932,736.1862,438.0274,736.645,428.0616,737.329,418.0959,737.0519,408.1301,736.4396,398.1644,737.137,388.1986,736.9568,378.2329,737.4344,368.2671,737.4561,358.3014,736.9848,348.3356,736.7122,338.3699,736.6767,328.4041,736.8848,318.4384,737.5603,308.4726,736.2175,298.5068,736.7273,288.5411,737.1579,278.5753,737.6228,268.6096,737.1031,258.6438,736.6929,248.6781,736.1532,238.7123,736.4674,228.7466,736.6693,218.7808,737.231,208.8151,737.2606,198.8493,736.943,188.8836,736.7582,178.9178,736.1715,168.9521,737.0201,158.9863,737.3266,149.0205,737.574,139.0548,736.9895,129.089,736.9711,119.1233,736.671,109.1575,737.1399,99.1918,736.4212,89.226,737.4072,79.2603,736.5855,69.2945,736.361,59.3288,737.1481,49.363,737.363,39.3973,736.9485,29.4315,736.77,19.4658,737.049,9.5,736.8912,9.4969,736.8836,9.1343,736.7154,8.8027,736.6219,8.397,736.3496,8.1355,736.4253,7.7322,736.1589,7.9439,736.2466,7.4769,735.7603,7.3672,735.4219,7.1486,735.0385,7.2194,734.7749,7,734.3912,6.9062,734.3912,7.5514,724.4219,6.6998,714.4527,6.6411,704.4835,7.2968,694.5142,6.7755,684.545,7.2669,674.5758,7.2796,664.6065,7.4358,654.6373,6.5152,644.6681,7.088,634.6989,7.5351,624.7296,6.4569,614.7604,7.5044,604.7912,6.6604,594.8219,7.1567,584.8527,7.6528,574.8835,6.3696,564.9142,7.7221,554.945,6.9216,544.9758,6.6741,535.0065,7.7313,525.0373,6.3123,515.0681,7.6056,505.0989,6.5987,495.1296,7.2901,485.1604,7.73,475.1912,6.8515,465.2219,6.5728,455.2527,6.6267,445.2835,6.8177,435.3142,7.2961,425.345,6.4447,415.3758,7.5114,405.4065,7.5645,395.4373,6.2979,385.4681,6.8573,375.4989,6.5373,365.5296,7.1721,355.5604,6.2885,345.5912,7.1357,335.6219,7.3587,325.6527,6.9512,315.6835,7.1559,305.7142,7.0141,295.745,7.2472,285.7758,7.7179,275.8065,7.6579,265.8373,7.2698,255.8681,7.0485,245.8989,7.2436,235.9296,7.1528,225.9604,7.1926,215.9912,7.4578,206.0219,6.2689,196.0527,7.4323,186.0835,7.5061,176.1142,6.3152,166.145,7.6309,156.1758,7.1348,146.2065,6.8667,136.2373,6.356,126.2681,6.6698,116.2989,7.6239,106.3296,6.4134,96.3604,7,86.3912,7.1679,86.4607,7.0761,86.0085,7.3902,85.7243,7.2877,85.2677,7.5136,84.947,7.7322,84.6234,7.8188,84.8323,8.1176,84.5538,8.4144,84.2702,8.8216,84.2533,9.2166,84.2069,9.5,83.8912" style="stroke:#181818;stroke-width:4.0;"/><text fill="#000000" font-family="Chalkduster" font-size="24" font-style="italic" lengthAdjust="spacing" textLength="170" x="652" y="109.732">«standards»</text><text fill="#000000" font-family="Chalkduster" font-size="24" font-weight="bold" lengthAdjust="spacing" textLength="245" x="614.5" y="140.3619">RO-Crate Profiles</text></g><!--cluster prof--><g id="cluster_prof"><polygon fill="none" points="33.5,251.8912,33.5,252.1013,43.4787,251.4768,53.4574,252.0844,63.4362,252.2908,73.4149,251.1778,83.3936,251.8134,93.3723,251.4647,103.3511,251.5077,113.3298,251.823,123.3085,251.1998,133.2872,252.4448,143.266,251.2609,153.2447,251.6934,163.2234,252.3231,173.2021,251.8054,183.1809,251.9594,193.1596,251.8592,203.1383,252.0697,213.117,252.1303,223.0957,252.4769,233.0745,252.5622,243.0532,252.5704,253.0319,252.1458,263.0106,252.3547,272.9894,252.5934,282.9681,251.17,292.9468,252.5697,302.9255,251.5947,312.9043,252.425,322.883,251.3961,332.8617,251.8227,342.8404,252.6328,352.8191,251.8424,362.7979,251.9965,372.7766,252.2298,382.7553,252.3074,392.734,251.8873,402.7128,252.1784,412.6915,251.3187,422.6702,252.1755,432.6489,252.4394,442.6277,252.3357,452.6064,252.5042,462.5851,251.4081,472.5638,251.239,482.5426,251.2698,492.5213,251.8323,502.5,251.6946,512.4787,252.5726,522.4574,251.7165,532.4362,251.5481,542.4149,252.1194,552.3936,251.2243,562.3723,251.372,572.3511,252.5401,582.3298,252.3268,592.3085,252.6257,602.2872,251.5694,612.266,252.2104,622.2447,252.4816,632.2234,251.4188,642.2021,251.7953,652.1809,252.0171,662.1596,252.5429,672.1383,251.887,682.117,252.3537,692.0957,251.3374,702.0745,251.2139,712.0532,252.3948,722.0319,251.1742,732.0106,252.4001,741.9894,252.0978,751.9681,251.6232,761.9468,251.5374,771.9255,252.3499,781.9043,251.5918,791.883,252.483,801.8617,251.3384,811.8404,252.5086,821.8191,252.3755,831.7979,252.1361,841.7766,251.9384,851.7553,252.6178,861.734,252.5047,871.7128,252.0604,881.6915,252.1593,891.6702,251.7609,901.6489,252.6076,911.6277,252.046,921.6064,252.0637,931.5851,251.2828,941.5638,251.4859,951.5426,252.4219,961.5213,252.3209,971.5,251.8482,981.4787,251.569,991.4574,251.6722,1001.4362,251.205,1011.4149,252.3059,1021.3936,252.6307,1031.3723,252.4176,1041.3511,252.5861,1051.3298,251.7544,1061.3085,251.9784,1071.2872,251.5036,1081.266,252.1752,1091.2447,252.1379,1101.2234,252.4435,1111.2021,251.6615,1121.1809,251.7568,1131.1596,252.3346,1141.1383,252.4585,1151.117,251.3786,1161.0957,251.6973,1171.0745,252.0404,1181.0532,251.2803,1191.0319,252.2446,1201.0106,252.1492,1210.9894,251.7904,1220.9681,252.0334,1230.9468,252.6198,1240.9255,251.5783,1250.9043,252.2061,1260.883,252.1768,1270.8617,252.0069,1280.8404,252.0321,1290.8191,252.0046,1300.7979,251.267,1310.7766,251.4903,1320.7553,251.4296,1330.734,251.955,1340.7128,251.9793,1350.6915,252.0529,1360.6702,251.6002,1370.6489,251.8236,1380.6277,251.7709,1390.6064,252.468,1400.5851,252.3177,1410.5638,251.4056,1420.5426,251.8182,1430.5213,251.3139,1440.5,251.8912,1440.5368,251.98,1440.9312,252.225,1441.2766,252.3518,1441.5051,252.1964,1441.9734,252.6198,1442.2678,252.6234,1442.039,252.5286,1442.4759,253.0025,1442.4685,253.2923,1442.7369,253.6964,1442.9276,254.0683,1443,254.3912,1443.4721,254.3912,1442.2801,264.3042,1443.4755,274.2172,1443.1782,284.1303,1443.3553,294.0433,1443.7478,303.9564,1443.0055,313.8694,1443.1753,323.7825,1443.2134,333.6955,1443.1972,343.6086,1442.9992,353.5216,1443.7107,363.4346,1442.3903,373.3477,1443.5653,383.2607,1442.376,393.1738,1442.4597,403.0868,1443.04,412.9999,1443.0283,422.9129,1442.5072,432.8259,1443.4137,442.739,1443.1089,452.652,1443.7267,462.5651,1443.6671,472.4781,1442.5517,482.3912,1442.6021,492.3042,1442.8708,502.2172,1443.3555,512.1303,1443.403,522.0433,1443.3012,531.9564,1442.658,541.8694,1443.6364,551.7825,1443.6338,561.6955,1442.9527,571.6086,1442.7609,581.5216,1442.5986,591.4346,1442.7854,601.3477,1443.1374,611.2607,1442.9316,621.1738,1442.5822,631.0868,1443.4874,640.9999,1442.5411,650.9129,1443.5024,660.8259,1443.4272,670.739,1443.3719,680.652,1443.6925,690.5651,1442.7541,700.4781,1443,710.3912,1442.9074,710.3528,1443.0133,710.8109,1442.5233,711.0221,1442.4886,711.422,1442.4498,711.8201,1442.2678,712.1589,1442.2765,712.1801,1441.8685,712.195,1441.5552,712.4386,1441.3021,712.8276,1440.9363,712.9444,1440.5,712.8912,1440.5,712.2949,1430.5213,712.9697,1420.5426,712.3773,1410.5638,712.8648,1400.5851,713.1842,1390.6064,713.311,1380.6277,712.2264,1370.6489,713.2917,1360.6702,712.8996,1350.6915,712.3358,1340.7128,712.4201,1330.734,713.2178,1320.7553,713.141,1310.7766,712.8747,1300.7979,712.2191,1290.8191,713.5493,1280.8404,712.5793,1270.8617,712.3631,1260.883,712.8238,1250.9043,713.4809,1240.9255,713.5066,1230.9468,712.9263,1220.9681,712.74,1210.9894,713.0609,1201.0106,713.0774,1191.0319,712.3834,1181.0532,713.3051,1171.0745,713.45,1161.0957,712.6754,1151.117,712.462,1141.1383,713.5658,1131.1596,712.9122,1121.1809,712.891,1111.2021,713.1902,1101.2234,712.2455,1091.2447,713.4211,1081.266,712.8757,1071.2872,713.56,1061.3085,712.6753,1051.3298,713.3002,1041.3511,712.4472,1031.3723,713.1362,1021.3936,713.2705,1011.4149,712.5638,1001.4362,713.2542,991.4574,712.3197,981.4787,712.4207,971.5,713.574,961.5213,713.5755,951.5426,713.4597,941.5638,712.5308,931.5851,713.2754,921.6064,712.4191,911.6277,712.9493,901.6489,712.8899,891.6702,712.6287,881.6915,713.5071,871.7128,713.3344,861.734,712.5704,851.7553,713.4178,841.7766,712.983,831.7979,712.3076,821.8191,712.6578,811.8404,712.3659,801.8617,712.7521,791.883,712.2622,781.9043,712.291,771.9255,712.9615,761.9468,712.7708,751.9681,712.8326,741.9894,712.748,732.0106,713.0585,722.0319,712.3361,712.0532,713.0512,702.0745,712.148,692.0957,713.1872,682.117,713.4839,672.1383,713.4133,662.1596,713.2525,652.1809,713.0834,642.2021,712.9969,632.2234,712.2511,622.2447,713.3377,612.266,713.2208,602.2872,712.7378,592.3085,712.8854,582.3298,712.6826,572.3511,713.1089,562.3723,713.5717,552.3936,712.5373,542.4149,713.36,532.4362,712.802,522.4574,712.5119,512.4787,712.4593,502.5,712.2465,492.5213,712.4503,482.5426,712.9275,472.5638,713.1641,462.5851,713.4674,452.6064,713.3113,442.6277,712.1798,432.6489,713.5102,422.6702,713.3773,412.6915,713.4319,402.7128,713.413,392.734,712.232,382.7553,712.6334,372.7766,713.2071,362.7979,712.4097,352.8191,712.7883,342.8404,712.9582,332.8617,713.2172,322.883,712.9369,312.9043,713.6359,302.9255,713.3026,292.9468,713.1472,282.9681,712.3512,272.9894,713.2299,263.0106,712.3167,253.0319,713.1968,243.0532,712.899,233.0745,713.1906,223.0957,712.8037,213.117,712.6951,203.1383,712.1503,193.1596,712.6767,183.1809,712.1862,173.2021,712.645,163.2234,713.329,153.2447,713.0519,143.266,712.4396,133.2872,713.137,123.3085,712.9568,113.3298,713.4344,103.3511,713.4561,93.3723,712.9848,83.3936,712.7122,73.4149,712.6767,63.4362,712.8848,53.4574,713.5603,43.4787,712.2175,33.5,712.8912,33.4791,712.8407,33.1805,712.8269,32.8862,712.8236,32.4664,712.5171,32.0605,712.2443,31.7322,712.1589,31.505,712.0648,31.4553,711.7513,31.371,711.4235,31.3975,711.1416,31.2602,710.7918,31,710.3912,31.0518,710.3912,30.867,700.4781,30.2804,690.5651,31.129,680.652,31.4354,670.739,31.6829,660.8259,31.0983,650.9129,31.0799,640.9999,30.7798,631.0868,31.2487,621.1738,30.53,611.2607,31.5161,601.3477,30.6943,591.4346,30.4698,581.5216,31.2569,571.6086,31.4718,561.6955,31.0573,551.7825,30.8789,541.8694,31.1579,531.9564,30.9753,522.0433,30.9049,512.1303,31.0769,502.2172,30.668,492.3042,31.3895,482.3912,31.6875,472.4781,30.6464,462.5651,30.7656,452.652,30.5314,442.739,31.2369,432.8259,30.9062,422.9129,31.5514,412.9999,30.6998,403.0868,30.6411,393.1738,31.2968,383.2607,30.7755,373.3477,31.2669,363.4346,31.2796,353.5216,31.4358,343.6086,30.5152,333.6955,31.088,323.7825,31.5351,313.8694,30.4569,303.9564,31.5044,294.0433,30.6604,284.1303,31.1567,274.2172,31.6528,264.3042,31,254.3912,30.8059,254.3107,31.3688,254.1297,31.2688,253.6741,31.339,253.2889,31.811,253.0702,31.7322,252.6234,31.6445,252.4116,32.163,252.6635,32.3881,252.2069,32.8299,252.2734,33.2396,252.2624,33.5,251.8912" style="stroke:#181818;stroke-width:4.0;"/><text fill="#000000" font-family="Chalkduster" font-size="24" font-weight="bold" lengthAdjust="spacing" textLength="592" x="441" y="277.732">Language Data Commons RO-Crate Profile</text></g><!--cluster r1--><g id="cluster_r1"><polygon fill="none" points="869.5,308.8912,869.5,309.1013,879.4455,308.4768,889.3909,309.0844,899.3364,309.2908,909.2818,308.1778,919.2273,308.8134,929.1727,308.4647,939.1182,308.5077,949.0636,308.823,959.0091,308.1998,968.9545,309.4448,978.9,308.2609,988.8455,308.6934,998.7909,309.3231,1008.7364,308.8054,1018.6818,308.9594,1028.6273,308.8592,1038.5727,309.0697,1048.5182,309.1303,1058.4636,309.4769,1068.4091,309.5622,1078.3545,309.5704,1088.3,309.1458,1098.2455,309.3547,1108.1909,309.5934,1118.1364,308.17,1128.0818,309.5697,1138.0273,308.5947,1147.9727,309.425,1157.9182,308.3961,1167.8636,308.8227,1177.8091,309.6328,1187.7545,308.8424,1197.7,308.9965,1207.6455,309.2298,1217.5909,309.3074,1227.5364,308.8873,1237.4818,309.1784,1247.4273,308.3187,1257.3727,309.1755,1267.3182,309.4394,1277.2636,309.3357,1287.2091,309.5042,1297.1545,308.4081,1307.1,308.239,1317.0455,308.2698,1326.9909,308.8323,1336.9364,308.6946,1346.8818,309.5726,1356.8273,308.7165,1366.7727,308.5481,1376.7182,309.1194,1386.6636,308.2243,1396.6091,308.372,1406.5545,309.5401,1416.5,308.8912,1416.5556,309.0253,1416.9472,309.2638,1417.1661,309.085,1417.6014,309.4288,1417.9895,309.6588,1418.2678,309.6234,1418.1223,309.5631,1418.3847,309.9647,1418.5995,310.3466,1418.9078,310.7672,1418.8523,311.0371,1419,311.3912,1419.4626,311.3912,1418.4462,321.4821,1418.3227,331.573,1419.5036,341.6639,1418.2831,351.7548,1419.509,361.8457,1419.2066,371.9366,1418.7321,382.0275,1418.6462,392.1184,1419.4588,402.2093,1418.7007,412.3003,1419,422.3912,1419.1823,422.4667,1418.6833,422.6742,1418.8972,423.177,1418.7098,423.5136,1418.4897,423.8366,1418.2678,424.1589,1418.2738,424.1735,1418.0069,424.5291,1417.6389,424.6408,1417.2287,424.6504,1416.8878,424.8273,1416.5,424.8912,1416.5,424.7609,1406.5545,425.6076,1396.6091,425.046,1386.6636,425.0637,1376.7182,424.2828,1366.7727,424.4859,1356.8273,425.4219,1346.8818,425.3209,1336.9364,424.8482,1326.9909,424.569,1317.0455,424.6722,1307.1,424.205,1297.1545,425.3059,1287.2091,425.6307,1277.2636,425.4176,1267.3182,425.5861,1257.3727,424.7544,1247.4273,424.9784,1237.4818,424.5036,1227.5364,425.1752,1217.5909,425.1379,1207.6455,425.4435,1197.7,424.6615,1187.7545,424.7568,1177.8091,425.3346,1167.8636,425.4585,1157.9182,424.3786,1147.9727,424.6973,1138.0273,425.0404,1128.0818,424.2803,1118.1364,425.2446,1108.1909,425.1492,1098.2455,424.7904,1088.3,425.0334,1078.3545,425.6198,1068.4091,424.5783,1058.4636,425.2061,1048.5182,425.1768,1038.5727,425.0069,1028.6273,425.0321,1018.6818,425.0046,1008.7364,424.267,998.7909,424.4903,988.8455,424.4296,978.9,424.955,968.9545,424.9793,959.0091,425.0529,949.0636,424.6002,939.1182,424.8236,929.1727,424.7709,919.2273,425.468,909.2818,425.3177,899.3364,424.4056,889.3909,424.8182,879.4455,424.3139,869.5,424.8912,869.5368,424.98,869.2241,424.9321,868.8624,424.766,868.3838,424.3177,868.145,424.4483,867.7322,424.1589,867.5035,424.0642,867.6474,423.8309,867.3472,423.4136,867.3227,423.1106,867.2205,422.7754,867,422.3912,867.4721,422.3912,866.2801,412.3003,867.4755,402.2093,867.1782,392.1184,867.3553,382.0275,867.7478,371.9366,867.0055,361.8457,867.1753,351.7548,867.2134,341.6639,867.1972,331.573,866.9992,321.4821,867,311.3912,867.2189,311.4818,866.9587,310.9598,867.467,310.7562,867.2472,310.2509,867.4194,309.908,867.7322,309.6234,867.7373,309.6357,868.0894,309.4857,868.3765,309.1787,868.8457,309.3115,869.1603,309.0711,869.5,308.8912" style="stroke:#181818;stroke-width:4.0;"/><text fill="#000000" font-family="Chalkduster" font-size="24" font-weight="bold" lengthAdjust="spacing" textLength="73" x="1106.5" y="334.732">Rules</text></g><g id="elem_GMN10"><path d="M249.5,163.8912 L249.6868,163.8912 L249.1317,172.0171 L249.6718,180.1431 L249.8553,188.2691 L248.8659,196.395 L249.5,204.521 L249.5,204.521 L249.5,204.3138 L259.4125,203.3837 L269.325,203.4983 L279.2375,204.3392 L289.15,202.6773 L299.0625,205.9974 L308.975,202.8402 L318.8875,203.9936 L328.8,205.6729 L338.7125,204.2923 L348.625,204.703 L358.5375,204.4358 L368.45,204.9971 L378.3625,205.1587 L388.275,206.0828 L398.1875,206.3105 L408.1,206.3323 L418.0125,205.2 L427.925,205.7572 L437.8375,206.3936 L447.75,202.5978 L457.6625,206.3304 L467.575,203.7303 L477.4875,205.9445 L487.4,203.2009 L497.3125,204.3383 L507.225,206.4986 L517.1375,204.391 L527.05,204.8018 L536.9625,205.424 L546.875,205.6309 L556.7875,204.5106 L566.7,205.2869 L576.6125,202.9945 L586.525,205.2794 L596.4375,205.9828 L606.35,205.7064 L616.2625,206.1557 L626.175,203.2328 L636.0875,202.7818 L646,204.521 L644.3435,204.4777 L646.1097,214.7116 L646.0094,224.8966 L648.6165,235.1525 L646.601,245.2875 L646.4188,255.4705 L648.2085,265.705 L646.089,275.8372 L646.7495,286.0422 L650.1299,296.3183 L649.828,306.4982 L650.8913,316.7137 L648.3422,326.8347 L650.3176,337.0741 L651.3072,347.2877 L650,357.4412 L648.7407,357.4082 L650.0111,347.2398 L650.8692,337.0606 L652.5374,326.9026 L651.0555,316.6622 L652.5664,306.5 L650.1237,296.2345 L650.0613,286.0312 L653.4758,275.9189 L650.4888,265.6391 L654.0234,255.5299 L653.4842,245.3141 L652.4858,235.0863 L652.5236,224.8857 L654.9563,214.7477 L654,204.521 L654,203.7228 L663.9125,206.0993 L673.825,203.047 L683.7375,206.1675 L693.65,205.8125 L703.5625,205.1742 L713.475,204.6469 L723.3875,206.4586 L733.3,206.1572 L743.2125,204.9723 L753.125,205.2362 L763.0375,204.1736 L772.95,206.4315 L782.8625,204.934 L792.775,204.9812 L802.6875,202.8987 L812.6,203.4404 L822.5125,205.9363 L832.425,205.667 L842.3375,204.4065 L852.25,203.6619 L862.1625,203.9372 L872.075,202.6912 L881.9875,205.627 L891.9,206.4932 L901.8125,205.9247 L911.725,206.3741 L921.6375,204.1564 L931.55,204.7536 L941.4625,203.4874 L951.375,205.2784 L961.2875,205.179 L971.2,205.994 L981.1125,203.9086 L991.025,204.1626 L1000.9375,205.7036 L1010.85,206.0339 L1020.7625,203.1542 L1030.675,204.004 L1040.5875,204.919 L1050.5,204.521 L1050.5,204.521 L1049.957,204.521 L1050.8141,198.395 L1050.7293,192.2691 L1050.4104,186.1431 L1050.6264,180.0171 L1050.5,173.8912 L1050.958,174.3492 L1048.3033,171.6945 L1046.698,170.0891 L1044.6795,168.0707 L1042.5728,165.9639 L1040.5,163.8912 L1040.5,164.267 L1030.4873,164.1938 L1020.4747,162.2267 L1010.462,162.8223 L1000.4494,162.6604 L990.4367,164.0614 L980.4241,164.1262 L970.4114,164.3225 L960.3987,163.1152 L950.3861,163.7111 L940.3734,163.5706 L930.3608,165.4294 L920.3481,165.0287 L910.3354,162.5964 L900.3228,163.6967 L890.3101,162.3519 L880.2975,164.6602 L870.2848,165.5138 L860.2722,165.3433 L850.2595,162.7297 L840.2468,165.1284 L830.2342,161.9103 L820.2215,164.4249 L810.2089,163.093 L800.1962,164.1491 L790.1835,164.5321 L780.1709,165.1501 L770.1582,161.9714 L760.1456,165.1591 L750.1329,164.3663 L740.1203,164.8387 L730.1076,165.8853 L720.0949,163.9058 L710.0823,164.3586 L700.0696,164.4603 L690.057,164.4171 L680.0443,163.889 L670.0316,165.7864 L660.019,162.2652 L650.0063,165.3986 L639.9937,162.2272 L629.981,162.4503 L619.9684,163.9979 L609.9557,163.9666 L599.943,162.5769 L589.9304,164.9944 L579.9177,164.1814 L569.9051,165.8289 L559.8924,165.6701 L549.8797,162.6958 L539.8671,162.83 L529.8544,163.5467 L519.8418,164.8392 L509.8291,164.9658 L499.8165,164.6942 L489.8038,162.9793 L479.7911,165.5881 L469.7785,165.5813 L459.7658,163.7651 L449.7532,163.2537 L439.7405,162.8208 L429.7278,163.3189 L419.7152,164.2576 L409.7025,163.7088 L399.6899,162.777 L389.6772,165.1908 L379.6646,162.6673 L369.6519,165.2308 L359.6392,165.0305 L349.6266,164.8828 L339.6139,165.7378 L329.6013,163.2355 L319.5886,163.0894 L309.5759,165.2748 L299.5633,162.2994 L289.5506,163.2672 L279.538,164.1991 L269.5253,164.0743 L259.5127,162.9353 L249.5,163.8912 L249.5,163.8912 " fill="none" style="stroke:#181818;stroke-width:4.0;"/><path d="M1040.5,163.8912 L1040.6868,163.8912 L1040.1317,165.8912 L1040.6718,167.8912 L1040.8553,169.8912 L1039.8659,171.8912 L1040.5,173.8912 L1040.5,173.8221 L1042.5,173.5121 L1044.5,173.5503 L1046.5,173.8306 L1048.5,173.2766 L1050.5,173.8912 L1050.848,174.2391 L1048.1038,171.495 L1046.3757,169.7669 L1044.7715,168.1627 L1042.4461,165.8372 L1040.5,163.8912 " fill="none" style="stroke:#181818;stroke-width:4.0;"/><text fill="#000000" font-family="Chalkduster" font-size="24" lengthAdjust="spacing" textLength="780" x="255.5" y="192.732">http://purl.archive.org/language-data-commons/profile</text></g><!--entity eprof--><g id="elem_eprof"><polygon fill="none" points="50,357.8912,50,358.1013,59.9184,357.4768,69.8367,358.0844,79.7551,358.2908,89.6735,357.1778,99.5918,357.8134,109.5102,357.4647,119.4286,357.5077,129.3469,357.823,139.2653,357.1998,149.1837,358.4448,159.102,357.2609,169.0204,357.6934,178.9388,358.3231,188.8571,357.8054,198.7755,357.9594,208.6939,357.8592,218.6122,358.0697,228.5306,358.1303,238.449,358.4769,248.3673,358.5622,258.2857,358.5704,268.2041,358.1458,278.1224,358.3547,288.0408,358.5934,297.9592,357.17,307.8776,358.5697,317.7959,357.5947,327.7143,358.425,337.6327,357.3961,347.551,357.8227,357.4694,358.6328,367.3878,357.8424,377.3061,357.9965,387.2245,358.2298,397.1429,358.3074,407.0612,357.8873,416.9796,358.1784,426.898,357.3187,436.8163,358.1755,446.7347,358.4394,456.6531,358.3357,466.5714,358.5042,476.4898,357.4081,486.4082,357.239,496.3265,357.2698,506.2449,357.8323,516.1633,357.6946,526.0816,358.5726,536,357.8912,535.9777,357.8374,536.3098,357.932,536.7362,358.2544,536.9756,358.1251,537.348,358.3171,537.7678,358.6234,537.9676,358.7062,538.0484,359.0325,538.2869,359.4242,538.108,359.643,538.4519,360.0783,538.5,360.3912,539.0904,360.3912,538.0276,369.5171,538.4041,378.6431,538.626,387.7691,539.1518,396.895,538.5,406.021,538.4987,406.0205,538.496,406.4336,538.0366,406.6575,537.8521,406.9953,538.0693,407.4994,537.7678,407.7888,537.6763,407.568,537.4791,408.0919,537.087,408.1453,536.6729,408.1456,536.3084,408.2656,536,408.521,536,408.9798,526.0816,408.2217,516.1633,409.1129,506.2449,407.9682,496.3265,409.1384,486.4082,409.0053,476.4898,408.766,466.5714,408.5682,456.6531,409.2476,446.7347,409.1346,436.8163,408.6902,426.898,408.7892,416.9796,408.3907,407.0612,409.2374,397.1429,408.6759,387.2245,408.6936,377.3061,407.9126,367.3878,408.1158,357.4694,409.0517,347.551,408.9508,337.6327,408.4781,327.7143,408.1988,317.7959,408.3021,307.8776,407.8348,297.9592,408.9357,288.0408,409.2606,278.1224,409.0474,268.2041,409.2159,258.2857,408.3843,248.3673,408.6082,238.449,408.1334,228.5306,408.805,218.6122,408.7678,208.6939,409.0734,198.7755,408.2913,188.8571,408.3866,178.9388,408.9645,169.0204,409.0883,159.102,408.0085,149.1837,408.3271,139.2653,408.6703,129.3469,407.9101,119.4286,408.8744,109.5102,408.779,99.5918,408.4202,89.6735,408.6632,79.7551,409.2497,69.8367,408.2081,59.9184,408.836,50,408.521,50.0364,408.609,49.6612,408.4102,49.3109,408.2715,48.9538,408.1166,48.5062,407.743,48.2322,407.7888,48.1088,407.7376,47.9437,407.3763,47.959,407.0898,47.82,406.7393,47.6963,406.3952,47.5,406.021,47.209,406.021,47.4325,396.895,47.3798,387.7691,48.0769,378.6431,47.9266,369.5171,47.5,360.3912,47.3505,360.3292,47.624,360.0283,47.6151,359.6104,48.0282,359.3673,48.2732,359.0546,48.2322,358.6234,48.3017,358.7911,48.5302,358.3428,48.9985,358.4734,49.1981,357.9553,49.672,358.0992,50,357.8912" style="stroke:#181818;stroke-width:4.0;"/><text fill="#000000" font-family="Chalkduster" font-size="24" lengthAdjust="spacing" textLength="471" x="57.5" y="391.732">RO-Crate Metadata Editor Profile</text></g><!--entity lsoss--><g id="elem_lsoss"><polygon fill="none" points="59.5,502.8912,59.5,503.1013,69.5164,502.4768,79.5328,503.0844,89.5492,503.2908,99.5656,502.1778,109.582,502.8134,119.5984,502.4647,129.6148,502.5077,139.6311,502.823,149.6475,502.1998,159.6639,503.4448,169.6803,502.2609,179.6967,502.6934,189.7131,503.3231,199.7295,502.8054,209.7459,502.9594,219.7623,502.8592,229.7787,503.0697,239.7951,503.1303,249.8115,503.4769,259.8279,503.5622,269.8443,503.5704,279.8607,503.1458,289.877,503.3547,299.8934,503.5934,309.9098,502.17,319.9262,503.5697,329.9426,502.5947,339.959,503.425,349.9754,502.3961,359.9918,502.8227,370.0082,503.6328,380.0246,502.8424,390.041,502.9965,400.0574,503.2298,410.0738,503.3074,420.0902,502.8873,430.1066,503.1784,440.123,502.3187,450.1393,503.1755,460.1557,503.4394,470.1721,503.3357,480.1885,503.5042,490.2049,502.4081,500.2213,502.239,510.2377,502.2698,520.2541,502.8323,530.2705,502.6946,540.2869,503.5726,550.3033,502.7165,560.3197,502.5481,570.3361,503.1194,580.3525,502.2243,590.3689,502.372,600.3852,503.5401,610.4016,503.3268,620.418,503.6257,630.4344,502.5694,640.4508,503.2104,650.4672,503.4816,660.4836,502.4188,670.5,502.8912,670.4878,502.8616,670.8696,503.0764,671.2902,503.3848,671.5601,503.3292,671.9732,503.6194,672.2678,503.6234,672.0972,503.5528,672.2056,503.8906,672.7158,504.3947,672.4863,504.5926,673.0103,505.1025,673,505.3912,673.2066,505.3912,672.7321,514.5171,672.6462,523.6431,673.4588,532.7691,672.7007,541.895,673,551.021,673.1823,551.0965,672.6833,551.304,672.8972,551.8069,672.7098,552.1434,672.4897,552.4665,672.2678,552.7888,672.2738,552.8033,672.0069,553.159,671.6389,553.2706,671.2287,553.2802,670.8878,553.4571,670.5,553.521,670.5,553.3907,660.4836,554.2374,650.4672,553.6759,640.4508,553.6936,630.4344,552.9126,620.418,553.1158,610.4016,554.0517,600.3852,553.9508,590.3689,553.4781,580.3525,553.1988,570.3361,553.3021,560.3197,552.8348,550.3033,553.9357,540.2869,554.2606,530.2705,554.0474,520.2541,554.2159,510.2377,553.3843,500.2213,553.6082,490.2049,553.1334,480.1885,553.805,470.1721,553.7678,460.1557,554.0734,450.1393,553.2913,440.123,553.3866,430.1066,553.9645,420.0902,554.0883,410.0738,553.0085,400.0574,553.3271,390.041,553.6703,380.0246,552.9101,370.0082,553.8744,359.9918,553.779,349.9754,553.4202,339.959,553.6632,329.9426,554.2497,319.9262,553.2081,309.9098,553.836,299.8934,553.8066,289.877,553.6368,279.8607,553.6619,269.8443,553.6345,259.8279,552.8968,249.8115,553.1202,239.7951,553.0595,229.7787,553.5848,219.7623,553.6091,209.7459,553.6827,199.7295,553.23,189.7131,553.4535,179.6967,553.4008,169.6803,554.0978,159.6639,553.9476,149.6475,553.0355,139.6311,553.4481,129.6148,552.9438,119.5984,553.8094,109.582,554.1295,99.5656,554.0656,89.5492,553.0854,79.5328,553.985,69.5164,552.7782,59.5,553.521,59.5255,553.5826,59.1083,553.2824,58.8052,553.2579,58.47,553.1557,58.146,553.0806,57.7322,552.7888,57.5105,552.6969,57.7322,552.4959,57.4942,552.1044,57.4023,551.7734,57.3767,551.4699,57,551.021,57.0055,551.021,57.1753,541.895,57.2134,532.7691,57.1972,523.6431,56.9992,514.5171,57,505.3912,57.2189,505.4818,56.9587,504.9598,57.467,504.7562,57.2472,504.2509,57.4194,503.908,57.7322,503.6234,57.7373,503.6357,58.0894,503.4857,58.3765,503.1787,58.8457,503.3115,59.1603,503.0711,59.5,502.8912" style="stroke:#181818;stroke-width:4.0;"/><text fill="#000000" font-family="Chalkduster" font-size="24" lengthAdjust="spacing" textLength="596" x="67" y="536.732">Language Data Commons Metadata Schema</text></g><!--entity soss--><g id="elem_soss"><polygon fill="none" points="50,645.8912,50,646.1013,60,645.4768,70,646.0844,80,646.2908,90,645.1778,100,645.8134,110,645.4647,120,645.5077,130,645.823,140,645.1998,150,646.4448,160,645.2609,170,645.6934,180,646.3231,190,645.8054,200,645.9594,210,645.8592,220,646.0697,230,646.1303,240,646.4769,250,646.5622,260,646.5704,270,646.1458,280,646.3547,290,646.5934,300,645.17,310,646.5697,320,645.5947,330,646.425,340,645.3961,350,645.8227,360,646.6328,370,645.8424,380,645.9965,390,646.2298,400,646.3074,410,645.8873,420,646.1784,430,645.3187,440,646.1755,450,646.4394,460,646.3357,470,646.5042,480,645.4081,490,645.239,500,645.2698,510,645.8323,520,645.6946,530,646.5726,540,645.7165,550,645.5481,560,646.1194,570,645.2243,580,645.372,590,646.5401,600,646.3268,610,646.6257,620,645.5694,630,646.2104,640,646.4816,650,645.4188,660,645.7953,670,646.0171,680,646.5429,690,645.887,700,645.8912,700.059,646.0336,700.2829,645.8671,700.6207,645.9755,701.1249,646.4856,701.3228,646.2562,701.7678,646.6234,701.9245,646.6883,701.9778,647.0033,701.9782,647.2963,702.0982,647.6389,702.4948,648.0961,702.5,648.3912,702.2007,648.3912,703.0919,657.5171,701.9473,666.6431,703.1174,675.7691,702.9843,684.895,702.5,694.021,702.5754,694.0522,702.3681,694.3806,702.4309,694.8208,702.2496,695.1599,701.9663,695.4568,701.7678,695.7888,701.802,695.8714,701.3976,695.8951,701.1521,696.3023,700.7269,696.2758,700.3756,696.4277,700,696.521,700,695.9126,690,696.1158,680,697.0517,670,696.9508,660,696.4781,650,696.1988,640,696.3021,630,695.8348,620,696.9357,610,697.2606,600,697.0474,590,697.2159,580,696.3843,570,696.6082,560,696.1334,550,696.805,540,696.7678,530,697.0734,520,696.2913,510,696.3866,500,696.9645,490,697.0883,480,696.0085,470,696.3271,460,696.6703,450,695.9101,440,696.8744,430,696.779,420,696.4202,410,696.6632,400,697.2497,390,696.2081,380,696.836,370,696.8066,360,696.6368,350,696.6619,340,696.6345,330,695.8968,320,696.1202,310,696.0595,300,696.5848,290,696.6091,280,696.6827,270,696.23,260,696.4535,250,696.4008,240,697.0978,230,696.9476,220,696.0355,210,696.4481,200,695.9438,190,696.8094,180,697.1295,170,697.0656,160,696.0854,150,696.985,140,695.7782,130,696.7211,120,696.2217,110,696.6177,100,696.7613,90,696.9931,80,695.8011,70,696.9965,60,696.6992,50,696.521,50.0453,696.6304,49.7418,696.6048,49.2936,696.2298,48.9617,696.1356,48.613,696.0009,48.2322,695.7888,48.293,695.8139,48.0855,695.4351,48.1582,695.1723,47.6051,694.6503,47.8205,694.4467,47.5,694.021,46.876,694.021,46.9597,684.895,47.54,675.7691,47.5283,666.6431,47.0072,657.5171,47.5,648.3912,47.6274,648.4439,47.68,648.0515,48.0167,647.7767,48.1448,647.4156,47.9477,646.9198,48.2322,646.6234,48.1815,646.5008,48.5693,646.4372,48.9847,646.44,49.3443,646.3082,49.6849,646.1304,50,645.8912" style="stroke:#181818;stroke-width:4.0;"/><text fill="#000000" font-family="Chalkduster" font-size="24" lengthAdjust="spacing" textLength="635" x="57.5" y="679.732">RO-Crate Metadata Schema (incl. Schema.org)</text></g><!--entity doc--><g id="elem_doc"><polygon fill="none" points="576,357.8912,576,358.1013,585.8667,357.4768,595.7333,358.0844,605.6,358.2908,615.4667,357.1778,625.3333,357.8134,635.2,357.4647,645.0667,357.5077,654.9333,357.823,664.8,357.1998,674.6667,358.4448,684.5333,357.2609,694.4,357.6934,704.2667,358.3231,714.1333,357.8054,724,357.8912,724.0087,357.9122,724.3495,358.0278,724.7299,358.239,725.0912,358.4041,725.4889,358.6573,725.7678,358.6234,725.9744,358.709,726.1234,359.0636,726.1391,359.363,726.3499,359.7432,726.5698,360.1272,726.5,360.3912,725.7788,360.3912,727.1785,369.5171,726.2035,378.6431,727.0338,387.7691,726.005,396.895,726.5,406.021,726.4789,406.0123,726.5819,406.4691,726.1921,406.7219,726.0931,407.0951,726.0185,407.4784,725.7678,407.7888,725.8209,407.9169,725.4137,407.934,725.0973,408.1701,724.6341,408.0518,724.3898,408.4621,724,408.521,724,409.0692,714.1333,408.9655,704.2667,409.134,694.4,408.0379,684.5333,407.8688,674.6667,407.8996,664.8,408.4621,654.9333,408.3245,645.0667,409.2024,635.2,408.3463,625.3333,408.1779,615.4667,408.7493,605.6,407.8542,595.7333,408.0019,585.8667,409.1699,576,408.521,576.0556,408.6552,575.7401,408.6007,575.2518,408.129,574.9801,408.18,574.6611,408.117,574.2322,407.7888,574.0868,407.7285,574.0563,407.423,573.9781,407.0977,573.9936,406.8112,573.6452,406.374,573.5,406.021,573.9626,406.021,572.9462,396.895,572.8227,387.7691,574.0036,378.6431,572.7831,369.5171,573.5,360.3912,573.6567,360.4561,573.7101,360.064,573.7104,359.6499,573.8304,359.2854,574.2271,359.0355,574.2322,358.6234,574.194,358.5312,574.6613,358.6592,574.8688,358.1603,575.3717,358.3742,575.7082,358.1868,576,357.8912" style="stroke:#181818;stroke-width:4.0;"/><text fill="#000000" font-family="Chalkduster" font-size="24" lengthAdjust="spacing" textLength="133" x="583.5" y="391.732">Document</text></g><!--entity rules--><g id="elem_rules"><polygon fill="none" points="885.5,357.8912,885.5,358.1013,895.4038,357.4768,905.3077,358.0844,915.2115,358.2908,925.1154,357.1778,935.0192,357.8134,944.9231,357.4647,954.8269,357.5077,964.7308,357.823,974.6346,357.1998,984.5385,358.4448,994.4423,357.2609,1004.3462,357.6934,1014.25,358.3231,1024.1538,357.8054,1034.0577,357.9594,1043.9615,357.8592,1053.8654,358.0697,1063.7692,358.1303,1073.6731,358.4769,1083.5769,358.5622,1093.4808,358.5704,1103.3846,358.1458,1113.2885,358.3547,1123.1923,358.5934,1133.0962,357.17,1143,358.5697,1152.9038,357.5947,1162.8077,358.425,1172.7115,357.3961,1182.6154,357.8227,1192.5192,358.6328,1202.4231,357.8424,1212.3269,357.9965,1222.2308,358.2298,1232.1346,358.3074,1242.0385,357.8873,1251.9423,358.1784,1261.8462,357.3187,1271.75,358.1755,1281.6538,358.4394,1291.5577,358.3357,1301.4615,358.5042,1311.3654,357.4081,1321.2692,357.239,1331.1731,357.2698,1341.0769,357.8323,1350.9808,357.6946,1360.8846,358.5726,1370.7885,357.7165,1380.6923,357.5481,1390.5962,358.1194,1400.5,357.8912,1400.4149,357.6858,1400.7873,357.8777,1401.2899,358.3839,1401.6162,358.4647,1402.0079,358.7031,1402.2678,358.6234,1402.1687,358.5823,1402.5125,359.0177,1402.7425,359.4058,1402.5616,359.6238,1402.824,360.0254,1403,360.3912,1403.126,360.3912,1403.6518,369.5171,1402.9958,378.6431,1403.4626,387.7691,1402.4462,396.895,1403,406.021,1402.7914,405.9346,1403.0086,406.4388,1402.4863,406.6366,1402.7174,407.1466,1402.4778,407.4616,1402.2678,407.7888,1402.2336,407.7063,1401.8691,407.8263,1401.6192,408.2229,1401.1689,408.1359,1400.9291,408.5568,1400.5,408.521,1400.5,407.9682,1390.5962,409.1384,1380.6923,409.0053,1370.7885,408.766,1360.8846,408.5682,1350.9808,409.2476,1341.0769,409.1346,1331.1731,408.6902,1321.2692,408.7892,1311.3654,408.3907,1301.4615,409.2374,1291.5577,408.6759,1281.6538,408.6936,1271.75,407.9126,1261.8462,408.1158,1251.9423,409.0517,1242.0385,408.9508,1232.1346,408.4781,1222.2308,408.1988,1212.3269,408.3021,1202.4231,407.8348,1192.5192,408.9357,1182.6154,409.2606,1172.7115,409.0474,1162.8077,409.2159,1152.9038,408.3843,1143,408.6082,1133.0962,408.1334,1123.1923,408.805,1113.2885,408.7678,1103.3846,409.0734,1093.4808,408.2913,1083.5769,408.3866,1073.6731,408.9645,1063.7692,409.0883,1053.8654,408.0085,1043.9615,408.3271,1034.0577,408.6703,1024.1538,407.9101,1014.25,408.8744,1004.3462,408.779,994.4423,408.4202,984.5385,408.6632,974.6346,409.2497,964.7308,408.2081,954.8269,408.836,944.9231,408.8066,935.0192,408.6368,925.1154,408.6619,915.2115,408.6345,905.3077,407.8968,895.4038,408.1202,885.5,408.521,885.4411,408.3789,885.1546,408.3942,884.8041,408.2552,884.46,408.1315,884.0487,407.8456,883.7322,407.7888,883.7114,407.7801,883.5488,407.4199,883.617,407.1552,883.4243,406.7825,882.9969,406.3126,883,406.021,882.9271,406.021,882.4228,396.895,883.2884,387.7691,883.6085,378.6431,883.5446,369.5171,883,360.3912,882.8659,360.3356,883.2893,360.0968,883.0641,359.5893,883.501,359.356,883.4936,358.9388,883.7322,358.6234,883.7446,358.6532,884.1164,358.551,884.4996,358.4759,884.7011,357.9623,885.2071,358.184,885.5,357.8912" style="stroke:#181818;stroke-width:4.0;"/><text fill="#000000" font-family="Chalkduster" font-size="24" lengthAdjust="spacing" textLength="488" x="893" y="391.732">Human &amp; Machine readable clauses</text></g><!--link eprof to lsoss--><g id="link_eprof_lsoss"><path d="M305.54,409.3012 L305.7903,409.4272 L309.4646,417.8267 L314.6062,426.9651 L319.27,435.8628 L322.3624,443.9694 L327.5375,453.1246 L331.5401,461.6894 L336.0093,470.4892 L340.8028,479.4523 L344.4787,487.8526 L349.72,497.0412 " fill="none" style="stroke:#8B0000;stroke-width:4.0;"/><polygon fill="#8B0000" points="351.92,501.4112,351.99,501.4146,351.6851,499.437,351.7904,497.4796,351.7622,495.5156,351.2946,493.5299,351.4351,491.5742,351.4105,491.5661,350.9464,492.6045,350.6064,493.6836,350.3526,494.7912,349.8016,495.8009,349.6668,496.9476,349.7245,497.1229,348.5265,496.3944,347.4969,496.1777,346.4878,496.0234,345.3592,495.5058,344.2935,495.1793,344.3079,495.1969,345.812,496.4174,347.3817,497.7181,348.9198,498.9801,350.5182,500.316,351.92,501.4112" style="stroke:#8B0000;stroke-width:4.0;"/><text fill="#000000" font-family="Chalkduster" font-size="24" lengthAdjust="spacing" textLength="182" x="336" y="465.732">Derived from</text></g><!--link lsoss to soss--><g id="link_lsoss_soss"><path d="M366.76,554.2712 L367.0395,554.291 L366.8812,563.7009 L368.3615,573.2272 L369.3082,582.7156 L368.5001,592.0794 L370.0178,601.6083 L370.2261,611.0442 L370.9555,620.5172 L372.0471,630.0158 L372.81,639.4912 " fill="none" style="stroke:#8B0000;stroke-width:4.0;"/><polygon fill="#8B0000" points="373.15,644.2512,373.2159,644.275,373.6895,642.3517,374.5493,640.5679,375.2833,638.7388,375.6037,636.7601,376.4967,634.9884,376.4771,634.9714,375.6485,635.7504,374.9185,636.6149,374.2572,637.5388,373.3594,638.2579,372.7927,639.2639,372.9136,639.4034,371.8001,638.3644,371.0394,637.7325,370.3217,637.1504,369.3536,636.2791,368.5172,635.56,368.5372,635.5707,369.4343,637.2932,370.4228,639.0644,371.3672,640.8122,372.3957,642.6048,373.15,644.2512" style="stroke:#8B0000;stroke-width:4.0;"/><text fill="#000000" font-family="Chalkduster" font-size="24" lengthAdjust="spacing" textLength="108" x="371" y="608.732">Extends</text></g><!--link doc to rules--><g id="link_doc_rules"><path d="M726.76,383.3912 L726.76,383.6714 L736.722,382.8387 L746.684,383.6489 L756.646,383.9241 L766.608,382.44 L776.57,383.2875 L786.532,382.8225 L796.494,382.8798 L806.456,383.3003 L816.418,382.4693 L826.38,384.1294 L836.342,382.5508 L846.304,383.1275 L856.266,383.9671 L866.228,383.2768 L876.19,383.3912 " fill="none" style="stroke:#8B0000;stroke-width:4.0;"/><polygon fill="#8B0000" points="881.02,383.3912,881.0485,383.4552,879.1639,382.465,877.4462,381.85,875.6741,381.1129,873.7234,379.9739,872.02,379.3912,872.0017,379.3728,872.7195,380.0906,873.5296,380.9008,874.4039,381.7751,875.057,382.4282,876.02,383.3912,876.1505,383.5217,875.0714,384.0426,874.3734,384.9445,873.7218,385.893,872.7998,386.5709,872.02,387.3912,872.0292,387.4119,873.8157,386.5814,875.6442,385.8455,877.4524,385.064,879.2993,384.3696,881.02,383.3912" style="stroke:#8B0000;stroke-width:4.0;"/><text fill="#000000" font-family="Chalkduster" font-size="24" lengthAdjust="spacing" textLength="120" x="744.75" y="373.232">Includes</text></g><!--SRC=[LSmn2i0W343HtLEa1uZkdTrTkfUWeKWrI8rGRr_NZXyUVyiIoqXyLf89rhf4IhY2BguiYbrdOQklckrFNLUIH4_gjerQm1ZDMdW7FuLgZk3NgL6yEo324Npu0000]--></g></svg>