<?xml version="1.0" encoding="UTF-8" standalone="no"?><svg xmlns="http://www.w3.org/2000/svg" xmlns:xlink="http://www.w3.org/1999/xlink" contentStyleType="text/css" height="541px" preserveAspectRatio="none" style="width:628px;height:541px;background:#FFFFFF;" version="1.1" viewBox="0 0 628 541" width="628px" zoomAndPan="magnify"><defs/><g><text fill="#000000" font-family="Chalkduster" font-size="42" font-weight="bold" lengthAdjust="spacing" textLength="600" x="10" y="51.7215">RO-Crate Editor Profiles</text><!--cluster CO--><g id="cluster_CO"><polygon fill="#FFE4E1" points="21,140.8912,21,141.1013,30.8636,140.4768,40.7273,141.0844,50.5909,141.2908,60.4545,140.1778,70.3182,140.8134,80.1818,140.4647,90.0455,140.5077,99.9091,140.823,109.7727,140.1998,119.6364,141.4448,129.5,140.2609,139.3636,140.6934,149.2273,141.3231,159.0909,140.8054,168.9545,140.9594,178.8182,140.8592,188.6818,141.0697,198.5455,141.1303,208.4091,141.4769,218.2727,141.5622,228.1364,141.5704,238,140.8912,238.0325,140.9696,238.4127,141.1804,238.7967,141.4003,238.9687,141.1084,239.5008,141.6859,239.7678,141.6234,239.6765,141.5856,240.0786,142.045,239.9082,142.2674,240.186,142.6753,240.5819,143.1322,240.5,143.3912,240.4513,143.3912,240.6053,153.4821,240.8386,163.573,240.9162,173.6639,240.4961,183.7548,240.7872,193.8457,239.9276,203.9366,240.7844,214.0275,241.0482,224.1184,240.9445,234.2093,241.113,244.3003,240.0169,254.3912,239.8478,264.4821,239.8786,274.573,240.4411,284.6639,240.3035,294.7548,241.1814,304.8457,240.3253,314.9366,240.1569,325.0275,240.7283,335.1184,239.8332,345.2093,239.9809,355.3003,240.5,365.3912,240.6999,365.4739,240.4877,365.8003,240.4333,366.192,239.9616,366.4108,240.0125,366.8461,239.7678,367.1589,239.8431,367.3408,239.354,367.1599,239.0484,367.4223,238.7232,367.6371,238.4367,367.9454,238,367.8912,238,367.887,228.1364,368.3537,218.2727,367.3374,208.4091,367.2139,198.5455,368.3948,188.6818,367.1742,178.8182,368.4001,168.9545,368.0978,159.0909,367.6232,149.2273,367.5374,139.3636,368.3499,129.5,367.5918,119.6364,368.483,109.7727,367.3384,99.9091,368.5086,90.0455,368.3755,80.1818,368.1361,70.3182,367.9384,60.4545,368.6178,50.5909,368.5047,40.7273,368.0604,30.8636,368.1593,21,367.8912,20.9834,367.851,20.7378,367.9654,20.3126,367.646,19.9614,367.505,19.5082,367.118,19.2322,367.1589,19.1074,367.1072,19.2492,366.8731,19.0717,366.5066,18.7797,366.0928,18.5472,365.7036,18.5,365.3912,18.2811,365.3912,17.8138,355.3003,18.9147,345.2093,19.2396,335.1184,19.0264,325.0275,19.1949,314.9366,18.3633,304.8457,18.5872,294.7548,18.1124,284.6639,18.784,274.573,18.7468,264.4821,19.0524,254.3912,18.2703,244.3003,18.3656,234.2093,18.9435,224.1184,19.0673,214.0275,17.9875,203.9366,18.3061,193.8457,18.6493,183.7548,17.8892,173.6639,18.8534,163.573,18.758,153.4821,18.5,143.3912,18.469,143.3783,18.6903,143.0558,19.0173,142.777,18.843,142.2906,19.1828,142.0171,19.2322,141.6234,19.2687,141.7114,19.6006,141.5126,19.9573,141.3739,20.3074,141.219,20.5668,140.8454,21,140.8912" style="stroke:#181818;stroke-width:4.0;"/><text fill="#000000" font-family="Chalkduster" font-size="24" font-style="italic" lengthAdjust="spacing" textLength="175" x="42" y="166.732">«workspace»</text><text fill="#000000" font-family="Chalkduster" font-size="24" font-weight="bold" lengthAdjust="spacing" textLength="206" x="26.5" y="197.3619">Crate-O Editor</text></g><!--entity Obj1a--><g id="elem_Obj1a"><polygon fill="none" points="125,292.8912,125,293.1013,134.8889,292.4768,144.7778,293.0844,154.6667,293.2908,164.5556,292.1778,174.4444,292.8134,184.3333,292.4647,194.2222,292.5077,204.1111,292.823,214,292.8912,213.9118,292.6782,214.4242,293.2081,214.6267,292.99,215.0354,293.2696,215.4693,293.61,215.7678,293.6234,215.7414,293.6125,215.9352,293.9857,216.0508,294.3264,216.2621,294.7068,216.4272,295.0681,216.5,295.3912,217.0857,295.3912,217.1711,304.5171,217.1793,313.6431,216.7546,322.7691,216.9636,331.895,216.5,341.021,216.7163,341.1106,216.1315,341.2826,216.4161,341.8147,215.9693,342.0438,216.0786,342.5033,215.7678,342.7888,215.7046,342.6363,215.4055,342.9141,215.1553,343.31,214.7009,343.2131,214.367,343.407,214,343.521,214,343.8596,204.1111,343.9372,194.2222,343.5171,184.3333,343.8082,174.4444,342.9486,164.5556,343.8054,154.6667,344.0692,144.7778,343.9655,134.8889,344.134,125,343.521,124.9384,343.3722,124.5633,343.1737,124.2136,343.0367,123.9318,343.0635,123.5607,342.8747,123.2322,342.7888,123.4421,342.8757,123.032,342.4129,122.8337,342.0379,122.8632,341.7572,122.4411,341.2895,122.5,341.021,121.9809,341.021,123.149,331.895,122.9357,322.7691,123.2345,313.6431,122.1782,304.5171,122.5,295.3912,122.5983,295.4319,122.8283,295.1129,122.6474,294.6238,122.9098,294.3183,123.1246,293.993,123.2322,293.6234,123.3154,293.8241,123.5853,293.4757,123.9983,293.473,124.2223,293.0135,124.5601,292.829,125,292.8912" style="stroke:#181818;stroke-width:4.0;"/><text fill="#000000" font-family="Chalkduster" font-size="24" lengthAdjust="spacing" textLength="74" x="132.5" y="326.732">Obj1a</text></g><!--entity dep--><g id="elem_dep"><polygon fill="none" points="267,277.8912,267,278.1013,276.9143,277.4768,286.8286,278.0844,296.7429,278.2908,306.6571,277.1778,316.5714,277.8134,326.4857,277.4647,336.4,277.5077,346.3143,277.823,356.2286,277.1998,366.1429,278.4448,376.0571,277.2609,385.9714,277.6934,395.8857,278.3231,405.8,277.8054,415.7143,277.9594,425.6286,277.8592,435.5429,278.0697,445.4571,278.1303,455.3714,278.4769,465.2857,278.5622,475.2,278.5704,485.1143,278.1458,495.0286,278.3547,504.9429,278.5934,514.8571,277.17,524.7714,278.5697,534.6857,277.5947,544.6,278.425,554.5143,277.3961,564.4286,277.8227,574.3429,278.6328,584.2571,277.8424,594.1714,277.9965,604.0857,278.2298,614,277.8912,614.0531,278.0193,614.3531,278.0364,614.7437,278.2725,614.9876,278.1542,615.4505,278.5645,615.7678,278.6234,615.9366,278.6933,616.0511,279.0337,616.2494,279.4087,616.0583,279.6224,616.1527,279.9544,616.5,280.3912,615.8786,280.3912,616.4411,289.9236,616.3035,299.4561,617.1814,308.9885,616.3253,318.521,616.1569,328.0535,616.7283,337.5859,615.8332,347.1184,616.5,356.6508,616.3401,356.5846,616.5534,357.0872,616.3413,357.4135,616.2869,357.8052,615.8151,358.024,615.7678,358.4186,615.8085,358.5169,615.4895,358.7469,615.0004,358.566,614.6949,358.8284,614.3696,359.0432,614,359.1508,614,359.8026,604.0857,359.1466,594.1714,359.6134,584.2571,358.597,574.3429,358.4736,564.4286,359.6544,554.5143,358.4339,544.6,359.6598,534.6857,359.3575,524.7714,358.8829,514.8571,358.7971,504.9429,359.6096,495.0286,358.8515,485.1143,359.7427,475.2,358.5981,465.2857,359.7683,455.3714,359.6351,445.4571,359.3958,435.5429,359.198,425.6286,359.8774,415.7143,359.7644,405.8,359.3201,395.8857,359.419,385.9714,359.0206,376.0571,359.8673,366.1429,359.3057,356.2286,359.3234,346.3143,358.5425,336.4,358.7456,326.4857,359.6816,316.5714,359.5806,306.6571,359.1079,296.7429,358.8287,286.8286,358.9319,276.9143,358.4647,267,359.1508,267.0529,359.2785,266.7408,359.2321,266.36,359.02,266.028,358.9255,265.5683,358.5229,265.2322,358.4186,265.2591,358.4297,264.9664,358.0156,265.0268,357.7477,264.8689,357.3894,264.8166,357.0748,264.5,356.6508,264.2703,356.6508,264.3656,347.1184,264.9435,337.5859,265.0673,328.0535,263.9875,318.521,264.3061,308.9885,264.6493,299.4561,263.8892,289.9236,264.5,280.3912,264.6088,280.4362,264.7259,280.0705,264.7619,279.6712,264.9831,279.3486,265.3102,279.0699,265.2322,278.6234,265.1923,278.527,265.626,278.574,265.9758,278.4185,266.3077,278.2197,266.6644,278.081,267,277.8912" style="stroke:#181818;stroke-width:4.0;"/><text fill="#000000" font-family="Chalkduster" font-size="24" lengthAdjust="spacing" textLength="217" x="274.5" y="311.732">Domain Specific</text><text fill="#000000" font-family="Chalkduster" font-size="24" lengthAdjust="spacing" textLength="332" x="274.5" y="342.3619">RO-Crate Editor Profile</text></g><!--entity pr--><g id="elem_pr"><polygon fill="#E6E6FA" points="271,453.8912,271,454.1013,280.9706,453.4768,290.9412,454.0844,300.9118,454.2908,310.8824,453.1778,320.8529,453.8134,330.8235,453.4647,340.7941,453.5077,350.7647,453.823,360.7353,453.1998,370.7059,454.4448,380.6765,453.2609,390.6471,453.6934,400.6176,454.3231,410.5882,453.8054,420.5588,453.9594,430.5294,453.8592,440.5,454.0697,450.4706,454.1303,460.4412,454.4769,470.4118,454.5622,480.3824,454.5704,490.3529,454.1458,500.3235,454.3547,510.2941,454.5934,520.2647,453.17,530.2353,454.5697,540.2059,453.5947,550.1765,454.425,560.1471,453.3961,570.1176,453.8227,580.0882,454.6328,590.0588,453.8424,600.0294,453.9965,610,453.8912,610.0432,453.9954,610.4066,454.1658,610.7066,454.1829,611.0973,454.419,611.3412,454.3007,611.7678,454.6234,611.8553,454.6597,612.083,455.0469,612.1976,455.3872,612.3959,455.7623,612.2048,455.976,612.5,456.3912,611.8478,456.3912,611.8786,465.9236,612.4411,475.4561,612.3035,484.9885,613.1814,494.521,612.3253,504.0535,612.1569,513.5859,612.7283,523.1184,612.5,532.6508,612.2946,532.5658,612.1937,532.9382,612.407,533.4407,612.1948,533.7671,612.1404,534.1587,611.7678,534.4186,611.7267,534.3195,611.4549,534.6633,611.136,534.8933,610.6468,534.7125,610.3413,534.9749,610,535.1508,610,535.2768,600.0294,535.8026,590.0588,535.1466,580.0882,535.6134,570.1176,534.597,560.1471,534.4736,550.1765,535.6544,540.2059,534.4339,530.2353,535.6598,520.2647,535.3575,510.2941,534.8829,500.3235,534.7971,490.3529,535.6096,480.3824,534.8515,470.4118,535.7427,460.4412,534.5981,450.4706,535.7683,440.5,535.6351,430.5294,535.3958,420.5588,535.198,410.5882,535.8774,400.6176,535.7644,390.6471,535.3201,380.6765,535.419,370.7059,535.0206,360.7353,535.8673,350.7647,535.3057,340.7941,535.3234,330.8235,534.5425,320.8529,534.7456,310.8824,535.6816,300.9118,535.5806,290.9412,535.1079,280.9706,534.8287,271,535.1508,270.9721,535.0834,270.5589,534.7931,270.3458,534.9857,270.0337,534.9392,269.6529,534.7271,269.2322,534.4186,269.4462,534.5072,269.0437,534.0476,268.9662,533.7226,268.6735,533.3085,268.7339,533.0406,268.5,532.6508,268.7468,532.6508,269.0524,523.1184,268.2703,513.5859,268.3656,504.0535,268.9435,494.521,269.0673,484.9885,267.9875,475.4561,268.3061,465.9236,268.5,456.3912,268.546,456.4102,268.4583,455.9597,268.9017,455.7291,269.0188,455.3634,269.0548,454.9641,269.2322,454.6234,269.2504,454.6672,269.6787,454.7014,269.8994,454.2341,270.3331,454.2811,270.6829,454.1256,271,453.8912" style="stroke:#181818;stroke-width:4.0;"/><text fill="#000000" font-family="Chalkduster" font-size="24" font-style="italic" lengthAdjust="spacing" textLength="170" x="355.5" y="487.732">«standards»</text><text fill="#000000" font-family="Chalkduster" font-size="24" lengthAdjust="spacing" textLength="324" x="278.5" y="518.3619">Domain Specific Profile</text></g><!--reverse link CO to dep--><g id="link_CO_dep"><path d="M108.7262,140.5223 L108.786,140.5941 L109.0572,140.0076 L109.6786,139.8421 L110.186,139.5396 L110.3184,138.7861 L110.9698,138.6567 L110.9488,138.6294 L111.7619,137.8095 L112.6811,137.1277 L113.674,136.5419 L114.4129,135.6253 L115.5076,135.1721 L115.6415,135.3785 L117.2088,133.7355 L119.167,132.6952 L121.1728,131.7286 L122.9012,130.334 L124.7755,129.1644 L124.7891,129.1915 L126.6701,128.1975 L128.613,127.3269 L130.526,126.3968 L132.4961,125.5803 L134.2803,124.3934 L134.3836,124.6732 L136.3285,123.9588 L138.2068,123.0639 L140.1826,122.4332 L142.163,121.8148 L143.9986,120.8042 L143.9213,120.4932 L146.053,120.6044 L147.9301,119.6914 L150.0008,119.5571 L151.8722,118.6209 L153.907,118.342 L153.9028,118.3118 L155.967,118.3905 L157.9341,117.7645 L159.9584,117.5543 L161.9876,117.379 L163.9821,116.9519 L163.9888,117.1368 L166.0257,116.8756 L168.0741,116.9304 L170.1039,116.474 L172.1615,116.78 L174.2006,116.5791 L174.2145,116.8224 L176.2795,116.8943 L178.3515,117.087 L180.3914,116.7186 L182.4549,116.7615 L184.5391,117.1688 L184.4998,116.8954 L186.6224,117.4424 L188.7007,117.6813 L190.8431,118.367 L192.8761,118.2898 L194.9741,118.6661 L194.9408,118.5173 L197.0979,119.2352 L199.1128,119.3169 L201.2287,119.851 L203.4437,120.8277 L205.4824,121.0162 L205.5377,121.2018 L207.6873,121.9587 L209.6648,122.1384 L211.8578,123.041 L214.0039,123.7862 L216.0405,124.1643 L215.968,123.9673 L218.1427,124.9026 L220.2936,125.7733 L222.4912,126.7709 L224.5075,127.2755 L226.625,128.0555 L226.7067,128.2442 L228.6449,128.7455 L230.7406,129.611 L233.0665,131.0086 L234.9686,131.4267 L237.2126,132.635 L237.3127,132.8379 L239.3667,133.76 L241.3869,134.6134 L243.4835,135.6218 L245.7567,136.9882 L247.7799,137.848 L247.7158,137.7314 L250.0115,139.2367 L251.8709,139.9494 L254.2264,141.5633 L256.3026,142.6698 L258.3035,143.6395 L258.3598,143.7327 L260.4057,144.9206 L262.6531,146.4421 L264.7184,147.6622 L266.7076,148.7562 L268.76,149.9549 L268.8253,150.0546 L270.8015,151.2633 L273.0808,152.9351 L275.0173,154.0831 L277.0948,155.4465 L279.126,156.7392 L278.9707,156.518 L281.073,158.0315 L283.3624,159.8117 L285.3871,161.2146 L287.3168,162.4824 L289.3782,163.9377 L289.2925,163.823 L291.3429,165.3713 L293.2416,166.7165 L295.5575,168.62 L297.6669,170.2472 L299.4931,171.4954 L299.6381,171.679 L301.6754,173.3102 L303.4372,174.5926 L305.4898,176.2431 L307.3498,177.65 L309.4475,179.3576 L309.5281,179.4547 L311.4716,181.0643 L313.5124,182.7912 L315.2445,184.1461 L317.2256,185.8011 L319.2178,187.4694 L319.347,187.6182 L321.2957,189.3211 L322.8936,190.62 L324.899,192.3883 L326.9116,194.1647 L328.7807,195.776 L328.5985,195.5747 L330.7526,197.5817 L332.5905,199.2396 L334.35,200.8107 L336.2889,202.5801 L338.1129,204.2225 L338.3347,204.4585 L339.8333,205.8275 L341.84,207.7372 L343.6467,209.434 L345.4106,211.0853 L347.1909,212.7541 L347.2346,212.799 L348.9862,214.5027 L350.5177,215.9801 L352.347,217.7636 L354.0883,219.4566 L355.9914,221.316 L356.0115,221.3361 L357.7191,223.0512 L359.4422,224.7817 L360.9995,226.3472 L362.7698,228.1248 L364.491,229.8534 L364.4526,229.8163 L366.3104,231.7232 L367.8975,233.3684 L369.241,234.7782 L371.008,236.5973 L372.6663,238.3114 L372.4794,238.1356 L374.3252,240.0639 L375.9944,241.8261 L377.5392,243.4714 L378.7874,244.8378 L380.4939,246.6351 L380.6468,246.7736 L383.153,249.6186 L386.3673,253.105 L389.1066,256.1611 L392.1407,259.4844 L395.0126,262.6606 L395.0934,262.7305 L397.7407,265.7641 L399.9097,268.3833 L402.8808,271.6973 L405.3504,274.5769 L407.86,277.4912 " fill="none" style="stroke:#8B0000;stroke-width:4.0;"/><polygon fill="#8B0000" points="108.7262,140.5223,108.7461,140.5895,110.5755,139.8301,112.5216,139.4645,114.4297,138.9706,116.2128,138.0551,118.169,137.7232,118.1669,137.6974,117.0299,137.4922,115.9032,137.4172,114.7836,137.4327,113.6394,137.1364,112.5297,137.2768,112.7137,137.2914,112.4096,136.1324,112.6426,135.0159,112.9411,133.9047,112.8584,132.7632,112.9762,131.6376,112.9967,131.6474,112.1166,133.41,111.3299,135.2172,110.4981,137.0028,109.7523,138.8296,108.7262,140.5223" style="stroke:#8B0000;stroke-width:4.0;"/><text fill="#000000" font-family="Chalkduster" font-size="24" lengthAdjust="spacing" textLength="148" x="101.5" y="109.732">Configures</text></g><!--link dep to pr--><g id="link_dep_pr"><path d="M440.5,359.3112 L440.7802,359.3112 L439.9476,369.0789 L440.7577,378.8467 L441.0329,388.6145 L439.5488,398.3823 L440.3964,408.15 L439.9313,417.9178 L439.9887,427.6856 L440.4091,437.4534 L440.5,447.2212 " fill="none" style="stroke:#8B0000;stroke-width:4.0;"/><polygon fill="#8B0000" points="440.5,452.1412,440.564,452.1696,441.1738,450.2851,442.1589,448.5673,443.0217,446.7953,443.4827,444.8446,444.5,443.1412,444.4817,443.1228,443.5995,443.8406,442.8096,444.6508,442.0839,445.5251,441.137,446.1782,440.5,447.1412,440.6305,447.2717,439.5514,446.1926,438.8534,445.4945,438.2018,444.843,437.2798,443.9209,436.5,443.1412,436.5208,443.1504,437.2903,444.9368,438.1544,446.7653,438.9728,448.5735,439.8784,450.4205,440.5,452.1412" style="stroke:#8B0000;stroke-width:4.0;"/><text fill="#000000" font-family="Chalkduster" font-size="24" lengthAdjust="spacing" textLength="159" x="441.5" y="416.732">Implements</text></g><!--SRC=[VP0nJyGm38Lt_mhJFKMifwXBOM0gWXK9cSGjWJI979-E4-A_avvEuXRmPljzpq- -2id5lUUNbT8H-_xQav9f3IsySb9JzHYvrqy5qA2HT_WucL586Uzyq2pu87aEaIk2i5DAIsJiRlDA8U5JOHVcu9xJ7rI7LD5p0RYaJqepdRKTMdl8yb4BEHu6t91nmY_0SrsGq-lx3NNm_K-MtzFMrgRn9Buss-PQ1A0vMoDXULEp1SCTZZdDOTaBLzW6nkT3CaCJjztzMkBfKHL-0000]--></g></svg>