<svg xmlns="http://www.w3.org/2000/svg" xmlns:xlink="http://www.w3.org/1999/xlink" contentStyleType="text/css" data-diagram-type="DESCRIPTION" height="770px" preserveAspectRatio="none" style="width:2047px;height:770px;background:#FFFFFF;" version="1.1" viewBox="0 0 2047 770" width="2047px" zoomAndPan="magnify"><title>The three main components for a metadata environment</title><defs/><g><text fill="#000000" font-family="Chalkduster" font-size="42" font-weight="bold" lengthAdjust="spacing" textLength="1383.1227" x="325.2925" y="51.7215">The three main components for a metadata environment</text><!--entity soss--><g class="entity" data-entity="soss" data-source-line="6" data-uid="ent0002" id="entity_soss"><polygon fill="#E6E6FA" points="55.41,305.0412,55.41,305.2513,65.3802,304.6268,75.3505,305.2344,85.3207,305.4408,95.291,304.3278,105.2612,304.9634,115.2314,304.6147,125.2017,304.6577,135.1719,304.973,145.1421,304.3498,155.1124,305.5948,165.0826,304.4109,175.0529,304.8434,185.0231,305.4731,194.9933,304.9554,204.9636,305.1094,214.9338,305.0092,224.9041,305.2197,234.8743,305.2803,244.8445,305.6269,254.8148,305.7122,264.785,305.7204,274.7553,305.2958,284.7255,305.5047,294.6957,305.7434,304.666,304.32,314.6362,305.7197,324.6064,304.7447,334.5767,305.575,344.5469,304.5461,354.5172,304.9727,364.4874,305.7828,374.4576,304.9924,384.4279,305.1465,394.3981,305.3798,404.3684,305.4574,414.3386,305.0373,424.3088,305.3284,434.2791,304.4687,444.2493,305.3255,454.2196,305.5894,464.1898,305.4857,474.16,305.6542,484.1303,304.5581,494.1005,304.389,504.0707,304.4198,514.041,304.9823,524.0112,304.8446,533.9815,305.7226,543.9517,304.8665,553.9219,304.6981,563.8922,305.2694,573.8624,304.3743,583.8327,304.522,593.8029,305.6901,603.7731,305.4768,613.7434,305.7757,623.7136,304.7194,633.6839,305.3604,643.6541,305.6316,653.6243,304.5688,663.5946,305.0412,663.5823,305.0116,663.9642,305.2264,664.3848,305.5348,664.6547,305.4792,665.0678,305.7694,665.3623,305.7734,665.1918,305.7028,665.3002,306.0406,665.8103,306.5447,665.5809,306.7426,666.1049,307.2525,666.0946,307.5412,666.3012,307.5412,665.8267,317.0736,665.7408,326.6061,666.5533,336.1385,665.7952,345.671,666.6864,355.2035,665.5418,364.7359,666.712,374.2684,666.0946,383.8008,666.2437,383.8626,666.0236,384.1856,665.8162,384.514,665.879,384.9542,665.6977,385.2933,665.3623,385.5686,665.3839,385.6207,665.043,385.7976,664.6386,385.8214,664.3931,386.2286,663.9679,386.2021,663.5946,386.3008,663.5946,386.4734,653.6243,385.6925,643.6541,385.8956,633.6839,386.8316,623.7136,386.7306,613.7434,386.2579,603.7731,385.9787,593.8029,386.0819,583.8327,385.6147,573.8624,386.7156,563.8922,387.0404,553.9219,386.8272,543.9517,386.9958,533.9815,386.1641,524.0112,386.388,514.041,385.9132,504.0707,386.5849,494.1005,386.5476,484.1303,386.8532,474.16,386.0712,464.1898,386.1664,454.2196,386.7443,444.2493,386.8682,434.2791,385.7883,424.3088,386.1069,414.3386,386.4501,404.3684,385.69,394.3981,386.6542,384.4279,386.5588,374.4576,386.2001,364.4874,386.4431,354.5172,387.0295,344.5469,385.988,334.5767,386.6158,324.6064,386.5865,314.6362,386.4166,304.666,386.4417,294.6957,386.4143,284.7255,385.6767,274.7553,385.9,264.785,385.8393,254.8148,386.3647,244.8445,386.389,234.8743,386.4626,224.9041,386.0099,214.9338,386.2333,204.9636,386.1806,194.9933,386.8777,185.0231,386.7274,175.0529,385.8153,165.0826,386.2279,155.1124,385.7236,145.1421,386.5892,135.1719,386.9093,125.2017,386.8454,115.2314,385.8653,105.2612,386.7648,95.291,385.558,85.3207,386.501,75.3505,386.0015,65.3802,386.3975,55.41,386.3008,55.4407,386.3748,55.1167,386.2998,54.6111,385.7862,54.41,386.0079,54.0185,385.7699,53.6422,385.5686,53.7517,385.6139,53.7261,385.3104,53.351,384.8622,53.2569,384.5303,53.1222,384.1816,52.91,383.8008,53.1072,383.8008,52.9092,374.2684,53.6207,364.7359,52.3003,355.2035,53.4753,345.671,52.286,336.1385,52.3697,326.6061,52.95,317.0736,52.91,307.5412,52.9187,307.5448,52.9047,307.1247,53.3303,306.8868,53.3829,306.4944,53.7196,306.2196,53.6422,305.7734,53.7273,305.9788,53.9386,305.4889,54.2986,305.358,54.6864,305.2943,55.1018,305.2971,55.41,305.0412" style="stroke:#181818;stroke-width:4;"/><text fill="#000000" font-family="Chalkduster" font-size="24" font-style="italic" lengthAdjust="spacing" textLength="168.5569" x="275.2238" y="338.882">&#171;standards&#187;</text><text fill="#000000" font-family="Chalkduster" font-size="24" lengthAdjust="spacing" textLength="593.1846" x="62.91" y="369.5119">Schema.org Style Schema (SOSS) for Domain</text></g><g class="entity" data-entity="GMN3" data-source-line="11" data-uid="ent0004" id="entity_GMN3"><path d="M6,126.8412 L6.5605,126.8412 L4.8951,137.0211 L6.5154,147.2011 L7.0658,157.381 L4.0976,167.561 L5.7928,177.7409 L4.8627,187.9209 L6,198.1008 L6,198.1008 L6,197.0782 L16.0039,197.9191 L26.0079,196.2572 L36.0118,199.5772 L46.0158,196.4201 L56.0197,197.5734 L66.0236,199.2527 L76.0276,197.8721 L86.0315,198.2828 L96.0355,198.0156 L106.0394,198.5769 L116.0433,198.7385 L126.0473,199.6627 L136.0512,199.8903 L146.0552,199.9122 L156.0591,198.7798 L166.063,199.3371 L176.067,199.9734 L186.0709,196.1777 L196.0748,199.9102 L206.0788,197.3102 L216.0827,199.5243 L226.0867,196.7808 L236.0906,197.9182 L246.0945,200.0784 L256.0985,197.9709 L266.1024,198.3816 L276.1064,199.0038 L286.1103,199.2108 L296.1142,198.0904 L306.1182,198.8667 L316.1221,196.5744 L326.1261,198.8592 L336.13,198.1008 L337.5713,198.3452 L338.9433,207.9981 L341.0308,217.7723 L339.7936,226.9828 L340.9935,236.6066 L342.719,246.3194 L345.8425,256.2693 L347.1251,265.9071 L351.0779,275.9976 L350.4717,285.315 L351.6735,294.9391 L354.22,304.7912 L354.826,304.8485 L351.5324,294.9246 L351.0073,285.2626 L353.191,275.8567 L351.7075,266.1041 L351.5836,256.48 L347.8621,246.5156 L348.6465,236.9775 L348.4493,227.3464 L344.7104,217.3805 L344.7928,207.7759 L344.13,198.1008 L344.13,198.4368 L354.1573,199.8389 L364.1845,198.0897 L374.2118,199.3343 L384.239,196.6241 L394.2663,196.2948 L404.2936,199.4438 L414.3208,196.189 L424.3481,199.4581 L434.3753,198.6518 L444.4026,197.3864 L454.4299,197.1574 L464.4571,199.3242 L474.4844,197.3026 L484.5116,199.6791 L494.5389,196.6268 L504.5662,199.7473 L514.5934,199.3923 L524.6207,198.7541 L534.6479,198.2267 L544.6752,200.0385 L554.7025,199.737 L564.7297,198.5522 L574.757,198.816 L584.7842,197.7535 L594.8115,200.0114 L604.8388,198.5138 L614.866,198.561 L624.8933,196.4786 L634.9205,197.0202 L644.9478,199.5162 L654.9751,199.2469 L665.0023,198.1008 L665.0023,198.1008 L664.8878,198.1008 L664.1432,187.8909 L664.4185,177.6809 L663.1725,167.471 L666.1083,157.261 L666.9745,147.0511 L665.0023,136.8412 L665.3332,137.172 L663.4391,135.278 L660.9164,132.7552 L659.0571,130.896 L656.7587,128.5975 L655.0023,126.8412 L655.0023,127.5986 L645.0177,127.4992 L635.033,128.3142 L625.0484,126.2287 L615.0637,126.4827 L605.0791,128.0237 L595.0944,128.3541 L585.1098,125.4744 L575.1251,126.3241 L565.1405,127.2392 L555.1558,125.2122 L545.1712,127.7835 L535.1865,127.5291 L525.2019,126.5725 L515.2172,127.2205 L505.2326,128.7843 L495.2479,126.0068 L485.2633,127.6811 L475.2786,127.6029 L465.2939,127.1499 L455.3093,127.217 L445.3246,127.1438 L435.34,125.1767 L425.3553,125.7723 L415.3707,125.6104 L405.386,127.0114 L395.4014,127.0762 L385.4167,127.2725 L375.4321,126.0652 L365.4474,126.6611 L355.4628,126.5206 L345.4781,128.3794 L335.4935,127.9787 L325.5088,125.5464 L315.5242,126.6467 L305.5395,125.3019 L295.5549,127.6102 L285.5702,128.4638 L275.5856,128.2933 L265.6009,125.6797 L255.6163,128.0784 L245.6316,124.8603 L235.647,127.3749 L225.6623,126.043 L215.6777,127.0991 L205.693,127.4821 L195.7084,128.1001 L185.7237,124.9214 L175.7391,128.1091 L165.7544,127.3163 L155.7698,127.7887 L145.7851,128.8353 L135.8005,126.8558 L125.8158,127.3086 L115.8312,127.4103 L105.8465,127.3671 L95.8619,126.839 L85.8772,128.7364 L75.8926,125.2152 L65.9079,128.3486 L55.9233,125.1772 L45.9386,125.4003 L35.954,126.9479 L25.9693,126.9166 L15.9847,125.5269 L6,126.8412 L6,126.8412" fill="#FFFFE0" style="stroke:#181818;stroke-width:4;"/><path d="M655.0023,126.8412 L655.1891,126.8412 L654.634,128.8412 L655.1741,130.8412 L655.3576,132.8412 L654.3682,134.8412 L655.0023,136.8412 L655.0023,136.7721 L657.0023,136.4621 L659.0023,136.5003 L661.0023,136.7806 L663.0023,136.2266 L665.0023,136.8412 L665.3503,137.1891 L662.6062,134.445 L660.878,132.7169 L659.2738,131.1127 L656.9484,128.7872 L655.0023,126.8412" fill="#FFFFE0" style="stroke:#181818;stroke-width:4;"/><text fill="#000000" font-family="Chalkduster" font-size="24" lengthAdjust="spacing" textLength="493.2332" x="12" y="155.682">e.g. Language Data Commons terms</text><text fill="#000000" font-family="Chalkduster" font-size="24" lengthAdjust="spacing" textLength="638.0023" x="12" y="186.3119">such as communicationMode, SpokenLanguage</text></g><!--entity md--><g class="entity" data-entity="md" data-source-line="14" data-uid="ent0006" id="entity_md"><polygon fill="#FFE4E1" points="844.44,305.0412,844.44,305.2513,854.3811,304.6268,864.3223,305.2344,874.2634,305.4408,884.2045,304.3278,894.1456,304.9634,904.0868,304.6147,914.0279,304.6577,923.969,304.973,933.9101,304.3498,943.8513,305.5948,953.7924,304.4109,963.7335,304.8434,973.6746,305.4731,983.6158,304.9554,993.5569,305.1094,1003.498,305.0092,1013.4392,305.2197,1023.3803,305.2803,1033.3214,305.6269,1043.2625,305.7122,1053.2037,305.7204,1063.1448,305.2958,1073.0859,305.5047,1083.027,305.7434,1092.9682,304.32,1102.9093,305.7197,1112.8504,304.7447,1122.7916,305.575,1132.7327,304.5461,1142.6738,304.9727,1152.6149,305.7828,1162.5561,305.0412,1162.5498,305.0262,1162.923,305.22,1163.3064,305.4383,1163.6698,305.6087,1163.9698,305.6257,1164.3238,305.7734,1164.4123,305.81,1164.294,306.0539,1164.7043,306.5168,1164.932,306.904,1165.0465,307.2443,1165.0561,307.5412,1165.6691,307.5412,1164.573,317.0736,1164.4039,326.6061,1164.4347,336.1385,1164.9972,345.671,1164.8595,355.2035,1165.7375,364.7359,1164.8814,374.2684,1165.0561,383.8008,1164.9504,383.7571,1164.9799,384.1835,1164.5578,384.4229,1164.4568,384.7953,1164.6701,385.2978,1164.3238,385.5686,1164.3794,385.7028,1164.064,385.9412,1163.5757,385.7624,1163.3039,386.1062,1162.9849,386.3362,1162.5561,386.3008,1162.5561,385.8284,1152.6149,386.205,1142.6738,386.4268,1132.7327,386.9526,1122.7916,386.2966,1112.8504,386.7634,1102.9093,385.747,1092.9682,385.6236,1083.027,386.8044,1073.0859,385.5839,1063.1448,386.8098,1053.2037,386.5075,1043.2625,386.0329,1033.3214,385.9471,1023.3803,386.7596,1013.4392,386.0015,1003.498,386.8927,993.5569,385.7481,983.6158,386.9183,973.6746,386.7851,963.7335,386.5458,953.7924,386.348,943.8513,387.0274,933.9101,386.9144,923.969,386.4701,914.0279,386.569,904.0868,386.1706,894.1456,387.0173,884.2045,386.4557,874.2634,386.4734,864.3223,385.6925,854.3811,385.8956,844.44,386.3008,844.5077,386.4643,844.1413,386.2867,843.7274,385.9947,843.3382,385.7623,842.9979,385.6476,842.6722,385.5686,842.4609,385.4811,842.6535,385.2679,842.6071,384.9558,842.395,384.5751,842.3005,384.243,841.94,383.8008,841.8033,383.8008,842.0272,374.2684,841.5524,364.7359,842.224,355.2035,842.1868,345.671,842.4924,336.1385,841.7103,326.6061,841.8056,317.0736,841.94,307.5412,842.0766,307.5977,842.2612,307.26,842.0751,306.7687,842.3196,306.4558,842.5718,306.146,842.6722,305.7734,842.5943,305.5853,843.0709,305.7358,843.4122,305.56,843.72,305.303,844.1046,305.2314,844.44,305.0412" style="stroke:#181818;stroke-width:4;"/><text fill="#000000" font-family="Chalkduster" font-size="24" font-style="italic" lengthAdjust="spacing" textLength="174.126" x="916.435" y="338.882">&#171;workspace&#187;</text><text fill="#000000" font-family="Chalkduster" font-size="24" lengthAdjust="spacing" textLength="303.1161" x="851.94" y="369.5119">Domain-specific Mode</text></g><g class="entity" data-entity="GMN7" data-source-line="17" data-uid="ent0008" id="entity_GMN7"><path d="M701.82,80.8912 L702.3805,80.8912 L700.7151,91.088 L702.3354,101.2848 L702.8858,111.4816 L699.9176,121.6785 L701.6128,131.8753 L700.6827,142.0721 L700.7973,152.2689 L701.6382,162.4657 L699.9763,172.6626 L703.2964,182.8594 L700.1393,193.0562 L701.2926,203.253 L702.9719,213.4499 L701.5913,223.6467 L702.002,233.8435 L701.82,244.0403 L701.82,244.0403 L701.82,243.9551 L711.9823,244.5164 L722.1447,244.678 L732.307,245.6022 L742.4693,245.8298 L752.6317,245.8517 L762.794,244.7193 L772.9563,245.2766 L783.1187,245.9129 L793.281,242.1172 L803.4433,245.8497 L813.6057,243.2497 L823.768,245.4638 L833.9303,242.7203 L844.0927,243.8577 L854.255,246.0179 L864.4173,243.9104 L874.5797,244.3211 L884.742,244.9433 L894.9043,245.1503 L905.0667,244.0299 L915.229,244.8062 L925.3913,242.5139 L935.5537,244.7987 L945.716,245.5022 L955.8783,245.2257 L966.0407,245.6751 L976.203,242.7521 L986.3653,242.3012 L996.5277,242.3833 L1006.69,244.0403 L1006.533,244.0395 L1006.1109,254.1676 L1008.3971,264.3105 L1006.0592,274.4282 L1005.5552,284.5559 L1007.0237,294.6943 L1006.36,304.8212 L1004.5982,304.5797 L1006.3768,294.5031 L1010.8512,284.7959 L1011.676,274.5885 L1013.8538,264.5666 L1012.4515,254.054 L1014.69,244.0403 L1014.69,244.8915 L1024.5801,245.6148 L1034.4702,242.7806 L1044.3603,243.7847 L1054.2504,244.3763 L1064.1405,245.7784 L1074.0307,244.0292 L1083.9208,245.2738 L1093.8109,242.5636 L1103.701,242.2343 L1113.5911,245.3833 L1123.4812,242.1285 L1133.3713,245.3976 L1143.2614,244.5913 L1153.1515,243.3259 L1163.0416,243.0969 L1172.9318,245.2637 L1182.8219,243.2421 L1192.712,245.6186 L1202.6021,242.5663 L1212.4922,245.6868 L1222.3823,245.3318 L1232.2724,244.6936 L1242.1625,244.1662 L1252.0526,245.978 L1261.9427,245.6765 L1271.8329,244.4917 L1281.723,244.7555 L1291.6131,243.693 L1301.5032,245.9509 L1311.3933,244.4533 L1321.2834,244.5005 L1331.1735,244.0403 L1331.1735,244.0403 L1329.5512,244.0403 L1330.0929,233.8304 L1332.5888,223.6204 L1332.3195,213.4105 L1331.059,203.2005 L1330.3144,192.9906 L1330.5897,182.7807 L1329.3437,172.5707 L1332.2795,162.3608 L1333.1457,152.1508 L1332.5772,141.9409 L1333.0267,131.7309 L1330.8089,121.521 L1331.4061,111.311 L1330.1399,101.1011 L1331.1735,90.8912 L1331.352,91.0697 L1329.3286,89.0463 L1327.5207,87.2384 L1325.0292,84.7468 L1323.089,82.8067 L1321.1735,80.8912 L1321.1735,82.0737 L1311.1839,82.4041 L1301.1944,79.5244 L1291.2048,80.3741 L1281.2152,81.2892 L1271.2257,79.2622 L1261.2361,81.8335 L1251.2465,81.5791 L1241.2569,80.6225 L1231.2674,81.2705 L1221.2778,82.8343 L1211.2882,80.0568 L1201.2986,81.7311 L1191.3091,81.6529 L1181.3195,81.1999 L1171.3299,81.267 L1161.3404,81.1938 L1151.3508,79.2267 L1141.3612,79.8223 L1131.3716,79.6604 L1121.3821,81.0614 L1111.3925,81.1262 L1101.4029,81.3225 L1091.4133,80.1152 L1081.4238,80.7111 L1071.4342,80.5706 L1061.4446,82.4294 L1051.455,82.0287 L1041.4655,79.5964 L1031.4759,80.6967 L1021.4863,79.3519 L1011.4968,81.6602 L1001.5072,82.5138 L991.5176,82.3433 L981.528,79.7297 L971.5385,82.1284 L961.5489,78.9103 L951.5593,81.4249 L941.5697,80.093 L931.5802,81.1491 L921.5906,81.5321 L911.601,82.1501 L901.6115,78.9714 L891.6219,82.1591 L881.6323,81.3663 L871.6427,81.8387 L861.6532,82.8853 L851.6636,80.9058 L841.674,81.3586 L831.6844,81.4603 L821.6949,81.4171 L811.7053,80.889 L801.7157,82.7864 L791.7262,79.2652 L781.7366,82.3986 L771.747,79.2272 L761.7574,79.4503 L751.7679,80.9979 L741.7783,80.9666 L731.7887,79.5769 L721.7991,81.9944 L711.8096,81.1814 L701.82,80.8912 L701.82,80.8912" fill="#FFFFE0" style="stroke:#181818;stroke-width:4;"/><path d="M1321.1735,80.8912 L1321.3603,80.8912 L1320.8052,82.8912 L1321.3453,84.8912 L1321.5288,86.8912 L1320.5394,88.8912 L1321.1735,90.8912 L1321.1735,90.8221 L1323.1735,90.5121 L1325.1735,90.5503 L1327.1735,90.8306 L1329.1735,90.2766 L1331.1735,90.8912 L1331.5215,91.2391 L1328.7774,88.495 L1327.0492,86.7669 L1325.445,85.1627 L1323.1196,82.8372 L1321.1735,80.8912" fill="#FFFFE0" style="stroke:#181818;stroke-width:4;"/><text fill="#000000" font-family="Chalkduster" font-size="24" lengthAdjust="spacing" textLength="584.4861" x="719.7537" y="109.732">e.g. Language Data Commons\nmode file.</text><text fill="#000000" font-family="Chalkduster" font-size="24" lengthAdjust="spacing" textLength="466.157" x="719.7537" y="140.3619">Mode files are used to configure:</text><text fill="#000000" font-family="Chalkduster" font-size="24" lengthAdjust="spacing" textLength="418.263" x="707.82" y="170.9917">- RO-Crate editing in Crate-O</text><text fill="#000000" font-family="Chalkduster" font-size="24" lengthAdjust="spacing" textLength="306.2188" x="707.82" y="201.6215">- RO-Crate validation</text><text fill="#000000" font-family="Chalkduster" font-size="24" lengthAdjust="spacing" textLength="12.3845" x="707.82" y="232.2514">&#160;</text></g><g class="entity" data-entity="GMN10" data-source-line="25" data-uid="ent0011" id="entity_GMN10"><path d="M623.57,447.3012 L624.1305,447.3012 L622.4651,457.1855 L624.0854,467.0698 L624.6358,476.9541 L621.6676,486.8385 L623.3628,496.7228 L622.4327,506.6071 L622.5473,516.4914 L623.3882,526.3757 L621.7263,536.2601 L625.0464,546.1444 L621.8893,556.0287 L623.0426,565.913 L624.7219,575.7974 L623.3413,585.6817 L623.752,595.566 L623.4848,605.4503 L624.0461,615.3346 L624.2077,625.219 L625.1318,635.1033 L625.3595,644.9876 L625.3814,654.8719 L624.249,664.7563 L624.8062,674.6406 L625.4426,684.5249 L621.6468,694.4092 L625.3794,704.2936 L622.7793,714.1779 L624.9935,724.0622 L622.2499,733.9465 L623.3873,743.8308 L625.5476,753.7152 L623.57,763.5995 L623.57,763.5995 L623.57,763.4695 L633.5681,763.8803 L643.5662,764.5025 L653.5643,764.7094 L663.5624,763.5891 L673.5605,764.3654 L683.5586,762.073 L693.5567,764.3579 L703.5548,765.0613 L713.5529,764.7849 L723.551,765.2342 L733.5491,762.3113 L743.5472,761.8603 L753.5452,761.9424 L763.5433,763.4425 L773.5414,763.0754 L783.5395,765.4166 L793.5376,763.1337 L803.5357,762.6847 L813.5338,764.2082 L823.5319,761.8213 L833.53,762.2152 L843.5281,765.33 L853.5262,764.7613 L863.5243,765.5581 L873.5224,762.7414 L883.5205,764.4507 L893.5186,765.1739 L903.5167,762.3397 L913.5148,763.3439 L923.5129,763.9354 L933.511,765.3375 L943.5091,763.5883 L953.5072,764.833 L963.5053,762.1227 L973.5034,761.7935 L983.5015,764.9425 L993.4995,761.6877 L1003.4976,764.9567 L1013.4957,764.1505 L1023.4938,762.885 L1033.4919,762.6561 L1043.49,764.8229 L1053.4881,762.8013 L1063.4862,765.1778 L1073.4843,762.1255 L1083.4824,765.246 L1093.4805,764.891 L1103.4786,764.2527 L1113.4767,763.7254 L1123.4748,765.5371 L1133.4729,765.2357 L1143.471,764.0508 L1153.4691,764.3147 L1163.4672,763.2521 L1173.4653,765.51 L1183.4634,764.0125 L1193.4615,764.0597 L1203.4596,761.9772 L1213.4577,762.5189 L1223.4558,765.0148 L1233.4538,764.7455 L1243.4519,763.485 L1253.45,762.7404 L1263.4481,763.0157 L1273.4462,761.7697 L1283.4443,764.7055 L1293.4424,765.5717 L1303.4405,765.0032 L1313.4386,765.4526 L1323.4367,763.2349 L1333.4348,763.8321 L1343.4329,762.5659 L1353.431,764.3569 L1363.4291,764.2575 L1373.4272,765.0725 L1383.4253,763.5995 L1383.4253,763.5995 L1382.8129,763.5995 L1383.0669,753.7189 L1384.6078,743.8383 L1384.9382,733.9577 L1382.0585,724.0771 L1382.9083,714.1965 L1383.8233,704.3159 L1381.7964,694.4354 L1384.3677,684.5548 L1384.1133,674.6742 L1383.1566,664.7936 L1383.8046,654.913 L1385.3684,645.0324 L1382.591,635.1518 L1384.2653,625.2712 L1384.187,615.3906 L1383.734,605.51 L1383.8011,595.6294 L1383.7279,585.7488 L1381.7609,575.8683 L1382.3564,565.9877 L1382.1945,556.1071 L1383.5955,546.2265 L1383.6603,536.3459 L1383.8566,526.4653 L1382.6494,516.5847 L1383.2452,506.7041 L1383.1047,496.8235 L1384.9636,486.9429 L1384.5628,477.0623 L1382.1305,467.1818 L1383.4253,457.3012 L1383.3795,457.2553 L1381.0625,454.9383 L1379.6065,453.4824 L1377.8077,451.6836 L1375.7676,449.6434 L1373.4253,447.3012 L1373.4253,446.1397 L1363.5354,448.5384 L1353.6455,445.3203 L1343.7557,447.8349 L1333.8658,446.503 L1323.9759,447.5591 L1314.0861,447.9421 L1304.1962,448.5601 L1294.3063,445.3814 L1284.4164,448.5691 L1274.5266,447.7763 L1264.6367,448.2487 L1254.7468,449.2953 L1244.8569,447.3158 L1234.9671,447.7686 L1225.0772,447.8703 L1215.1873,447.8271 L1205.2975,447.299 L1195.4076,449.1964 L1185.5177,445.6752 L1175.6278,448.8086 L1165.738,445.6372 L1155.8481,445.8603 L1145.9582,447.4079 L1136.0683,447.3766 L1126.1785,445.9869 L1116.2886,448.4044 L1106.3987,447.5914 L1096.5089,449.2389 L1086.619,449.0801 L1076.7291,446.1058 L1066.8392,446.24 L1056.9494,446.9567 L1047.0595,448.2492 L1037.1696,448.3758 L1027.2797,448.1042 L1017.3899,446.3893 L1007.5,447.3012 L1009.1933,447.4129 L1008.5198,437.3074 L1006.0409,427.0829 L1004.8639,416.9442 L1003.7653,406.8107 L1003.5957,396.7385 L1003.5,386.6712 L1003.8656,386.6953 L1002.6514,396.7642 L1001.055,406.8078 L1002.7969,417.0717 L999.6122,427.0106 L1001.5034,437.2844 L999.5,447.3012 L999.5,448.4405 L989.6071,448.2928 L979.7142,449.1478 L969.8213,446.6455 L959.9284,446.4994 L950.0355,448.6848 L940.1426,445.7094 L930.2497,446.6772 L920.3568,447.6091 L910.4639,447.4843 L900.5711,446.3453 L890.6782,447.1866 L880.7853,449.2867 L870.8924,449.0304 L860.9995,445.7111 L851.1066,447.5105 L841.2137,445.9308 L831.3208,447.231 L821.4279,448.0825 L811.535,448.4208 L801.6421,445.5286 L791.7492,448.3693 L781.8563,447.3236 L771.9634,445.8202 L762.0705,446.045 L752.1776,448.1721 L742.2847,447.9674 L732.3918,447.2573 L722.4989,445.5089 L712.6061,449.0562 L702.7132,446.4696 L692.8203,445.893 L682.9274,447.1216 L673.0345,448.8737 L663.1416,448.9423 L653.2487,447.3948 L643.3558,446.898 L633.4629,447.7539 L623.57,447.3012 L623.57,447.3012" fill="#FFFFE0" style="stroke:#181818;stroke-width:4;"/><path d="M1373.4253,447.3012 L1373.6121,447.3012 L1373.057,449.3012 L1373.5971,451.3012 L1373.7806,453.3012 L1372.7912,455.3012 L1373.4253,457.3012 L1373.4253,457.2321 L1375.4253,456.9221 L1377.4253,456.9603 L1379.4253,457.2406 L1381.4253,456.6866 L1383.4253,457.3012 L1383.7733,457.6491 L1381.0291,454.905 L1379.301,453.1769 L1377.6968,451.5727 L1375.3714,449.2472 L1373.4253,447.3012" fill="#FFFFE0" style="stroke:#181818;stroke-width:4;"/><text fill="#000000" font-family="Chalkduster" font-size="24" lengthAdjust="spacing" textLength="125.3304" x="629.57" y="476.142">Used for:</text><text fill="#000000" font-family="Chalkduster" font-size="24" lengthAdjust="spacing" textLength="585.9183" x="641.5037" y="506.7719">- Specify behaviour of editor, e.g. Crate-O</text><text fill="#000000" font-family="Chalkduster" font-size="24" lengthAdjust="spacing" textLength="413.8873" x="641.5037" y="537.4017">- Validate RO-Crate structure</text><text fill="#000000" font-family="Chalkduster" font-size="24" lengthAdjust="spacing" textLength="627.1824" x="641.5037" y="568.0315">- Used for generating profile documentation</text><text fill="#000000" font-family="Chalkduster" font-size="24" lengthAdjust="spacing" textLength="12.3845" x="629.57" y="598.6614">&#160;</text><text fill="#000000" font-family="Chalkduster" font-size="24" lengthAdjust="spacing" textLength="523.6509" x="641.5037" y="629.2912">(Currently uses a custom JSON format</text><text fill="#000000" font-family="Chalkduster" font-size="24" lengthAdjust="spacing" textLength="620.5525" x="641.5037" y="659.921">but the RO-Crate community is exploring the</text><text fill="#000000" font-family="Chalkduster" font-size="24" lengthAdjust="spacing" textLength="714.9879" x="641.5037" y="690.5509">use of LinkML as a consistent schema language for</text><text fill="#000000" font-family="Chalkduster" font-size="24" lengthAdjust="spacing" textLength="206.7978" x="641.5037" y="721.1807">these purposes)</text><text fill="#000000" font-family="Chalkduster" font-size="24" lengthAdjust="spacing" textLength="12.3845" x="629.57" y="751.8105">&#160;</text></g><!--entity pf--><g class="entity" data-entity="pf" data-source-line="36" data-uid="ent0013" id="entity_pf"><polygon fill="#E6E6FA" points="1562.21,305.0412,1562.21,305.2513,1572.2762,304.6268,1582.3424,305.2344,1592.4086,305.4408,1602.4749,304.3278,1612.5411,304.9634,1622.6073,304.6147,1632.6735,304.6577,1642.7397,304.973,1652.8059,304.3498,1662.8721,305.5948,1672.9384,304.4109,1683.0046,304.8434,1693.0708,305.4731,1703.137,304.9554,1713.2032,305.1094,1723.2694,305.0092,1733.3356,305.2197,1743.4018,305.2803,1753.4681,305.6269,1763.5343,305.7122,1773.6005,305.7204,1783.6667,305.2958,1793.7329,305.5047,1803.7991,305.7434,1813.8653,304.32,1823.9316,305.7197,1833.9978,304.7447,1844.064,305.575,1854.1302,304.5461,1864.1964,304.9727,1874.2626,305.7828,1884.3288,304.9924,1894.3951,305.1465,1904.4613,305.3798,1914.5275,305.4574,1924.5937,305.0373,1934.6599,305.3284,1944.7261,304.4687,1954.7923,305.0412,1954.8286,305.1287,1955.2158,305.3564,1955.5561,305.471,1955.9312,305.6693,1956.1449,305.4782,1956.5601,305.7734,1956.3593,305.6902,1956.5152,306.0477,1956.8349,306.473,1956.9389,306.809,1957.3557,307.2745,1957.2923,307.5412,1957.1177,307.5412,1956.9493,317.0736,1957.5206,326.6061,1956.6255,336.1385,1956.7732,345.671,1957.9413,355.2035,1957.728,364.7359,1958.0268,374.2684,1957.2923,383.8008,1957.1932,383.7598,1957.2442,384.1951,1957.1813,384.5832,1956.7075,384.8012,1956.677,385.2028,1956.5601,385.5686,1956.5762,385.6074,1956.2897,385.9158,1955.8525,385.8602,1955.5584,386.1504,1955.0752,385.9838,1954.7923,386.3008,1954.7923,385.6236,1944.7261,386.8044,1934.6599,385.5839,1924.5937,386.8098,1914.5275,386.5075,1904.4613,386.0329,1894.3951,385.9471,1884.3288,386.7596,1874.2626,386.0015,1864.1964,386.8927,1854.1302,385.7481,1844.064,386.9183,1833.9978,386.7851,1823.9316,386.5458,1813.8653,386.348,1803.7991,387.0274,1793.7329,386.9144,1783.6667,386.4701,1773.6005,386.569,1763.5343,386.1706,1753.4681,387.0173,1743.4018,386.4557,1733.3356,386.4734,1723.2694,385.6925,1713.2032,385.8956,1703.137,386.8316,1693.0708,386.7306,1683.0046,386.2579,1672.9384,385.9787,1662.8721,386.0819,1652.8059,385.6147,1642.7397,386.7156,1632.6735,387.0404,1622.6073,386.8272,1612.5411,386.9958,1602.4749,386.1641,1592.4086,386.388,1582.3424,385.9132,1572.2762,386.5849,1562.21,386.3008,1562.2415,386.3768,1561.9269,386.3245,1561.4736,385.9372,1561.1322,385.8201,1560.8524,385.8516,1560.4422,385.5686,1560.6169,385.641,1560.1379,385.1497,1560.0896,384.8368,1560.0489,384.527,1559.6683,384.0765,1559.71,383.8008,1560.0634,383.8008,1559.968,374.2684,1559.6092,364.7359,1559.8522,355.2035,1560.4387,345.671,1559.3971,336.1385,1560.025,326.6061,1559.9956,317.0736,1559.71,307.5412,1559.7457,307.5559,1559.8998,307.2056,1560.0378,306.8485,1559.9571,306.4009,1560.1724,306.0758,1560.4422,305.7734,1560.3834,305.6313,1560.8039,305.6466,1561.1606,305.5076,1561.5235,305.3839,1561.8193,305.098,1562.21,305.0412" style="stroke:#181818;stroke-width:4;"/><text fill="#000000" font-family="Chalkduster" font-size="24" font-style="italic" lengthAdjust="spacing" textLength="168.5569" x="1674.2227" y="338.882">&#171;standards&#187;</text><text fill="#000000" font-family="Chalkduster" font-size="24" lengthAdjust="spacing" textLength="377.5823" x="1569.71" y="369.5119">RO-Crate Profile Document</text></g><g class="entity" data-entity="GMN17" data-source-line="41" data-uid="ent0018" id="entity_GMN17"><path d="M1476.3,126.8412 L1476.8605,126.8412 L1475.1951,137.0211 L1476.8154,147.2011 L1477.3658,157.381 L1474.3976,167.561 L1476.0928,177.7409 L1475.1627,187.9209 L1476.3,198.1008 L1476.3,198.1008 L1476.3,197.0782 L1486.2357,197.9191 L1496.1714,196.2572 L1506.1071,199.5772 L1516.0429,196.4201 L1525.9786,197.5734 L1535.9143,199.2527 L1545.85,197.8721 L1555.7857,198.2828 L1565.7214,198.0156 L1575.6571,198.5769 L1585.5929,198.7385 L1595.5286,199.6627 L1605.4643,199.8903 L1615.4,199.9122 L1625.3357,198.7798 L1635.2714,199.3371 L1645.2071,199.9734 L1655.1429,196.1777 L1665.0786,199.9102 L1675.0143,197.3102 L1684.95,199.5243 L1694.8857,196.7808 L1704.8214,197.9182 L1714.7571,200.0784 L1724.6929,197.9709 L1734.6286,198.3816 L1744.5643,199.0038 L1754.5,198.1008 L1755.6092,198.1424 L1754.8532,207.7996 L1755.9926,217.5278 L1754.0655,227.141 L1756.7124,236.9257 L1757.779,246.6512 L1757.8664,256.34 L1758.679,266.0559 L1756.1218,275.6455 L1756.0348,285.3278 L1756.4805,295.03 L1758.5,304.7912 L1758.3431,304.7853 L1758.3399,295.0724 L1761.0431,285.461 L1759.1254,275.6763 L1759.0404,265.9604 L1760.9265,256.3184 L1758.9048,246.5298 L1759.6621,236.8454 L1763.1384,227.263 L1762.9337,217.5426 L1764.0936,207.8733 L1762.5,198.1008 L1762.5,197.2427 L1772.436,198.952 L1782.372,199.6753 L1792.308,196.8411 L1802.244,197.8452 L1812.18,198.4368 L1822.116,199.8389 L1832.0519,198.0897 L1841.9879,199.3343 L1851.9239,196.6241 L1861.8599,196.2948 L1871.7959,199.4438 L1881.7319,196.189 L1891.6679,199.4581 L1901.6039,198.6518 L1911.5399,197.3864 L1921.4759,197.1574 L1931.4119,199.3242 L1941.3479,197.3026 L1951.2838,199.6791 L1961.2198,196.6268 L1971.1558,199.7473 L1981.0918,199.3923 L1991.0278,198.7541 L2000.9638,198.2267 L2010.8998,200.0385 L2020.8358,199.737 L2030.7718,198.5522 L2040.7078,198.1008 L2040.7078,198.1008 L2041.4229,198.1008 L2040.3604,187.8909 L2042.6183,177.6809 L2041.1208,167.471 L2041.168,157.261 L2039.0855,147.0511 L2040.7078,136.8412 L2040.4531,136.5865 L2039.0414,135.1748 L2036.9779,133.1113 L2034.6808,130.8142 L2032.5053,128.6387 L2030.7078,126.8412 L2030.7078,126.2574 L2020.6276,125.0114 L2010.5475,127.9471 L2000.4674,128.8133 L1990.3872,128.2449 L1980.3071,128.6943 L1970.2269,126.4766 L1960.1468,127.0737 L1950.0666,125.8076 L1939.9865,127.5986 L1929.9064,127.4992 L1919.8262,128.3142 L1909.7461,126.2287 L1899.6659,126.4827 L1889.5858,128.0237 L1879.5057,128.3541 L1869.4255,125.4744 L1859.3454,126.3241 L1849.2652,127.2392 L1839.1851,125.2122 L1829.1049,127.7835 L1819.0248,127.5291 L1808.9447,126.5725 L1798.8645,127.2205 L1788.7844,128.7843 L1778.7042,126.0068 L1768.6241,127.6811 L1758.544,127.6029 L1748.4638,127.1499 L1738.3837,127.217 L1728.3035,127.1438 L1718.2234,125.1767 L1708.1433,125.7723 L1698.0631,125.6104 L1687.983,127.0114 L1677.9028,127.0762 L1667.8227,127.2725 L1657.7425,126.0652 L1647.6624,126.6611 L1637.5823,126.5206 L1627.5021,128.3794 L1617.422,127.9787 L1607.3418,125.5464 L1597.2617,126.6467 L1587.1816,125.3019 L1577.1014,127.6102 L1567.0213,128.4638 L1556.9411,128.2933 L1546.861,125.6797 L1536.7808,128.0784 L1526.7007,124.8603 L1516.6206,127.3749 L1506.5404,126.043 L1496.4603,127.0991 L1486.3801,127.4821 L1476.3,126.8412 L1476.3,126.8412" fill="#FFFFE0" style="stroke:#181818;stroke-width:4;"/><path d="M2030.7078,126.8412 L2030.8946,126.8412 L2030.3395,128.8412 L2030.8796,130.8412 L2031.063,132.8412 L2030.0736,134.8412 L2030.7078,136.8412 L2030.7078,136.7721 L2032.7078,136.4621 L2034.7078,136.5003 L2036.7078,136.7806 L2038.7078,136.2266 L2040.7078,136.8412 L2041.0558,137.1891 L2038.3116,134.445 L2036.5835,132.7169 L2034.9793,131.1127 L2032.6539,128.7872 L2030.7078,126.8412" fill="#FFFFE0" style="stroke:#181818;stroke-width:4;"/><text fill="#000000" font-family="Chalkduster" font-size="24" lengthAdjust="spacing" textLength="543.4078" x="1482.3" y="155.682">e.g. Language Data Commons RO-Crate</text><text fill="#000000" font-family="Chalkduster" font-size="24" lengthAdjust="spacing" textLength="240.5834" x="1482.3" y="186.3119">Profile Document</text></g><!--reverse link md to pf--><g class="link" data-entity-1="md" data-entity-2="pf" data-source-line="38" data-uid="lnk15" id="link_md_pf"><path d="M1171.47,345.6712 L1171.47,345.9514 L1181.42,345.1187 L1191.37,345.9289 L1201.32,346.2041 L1211.27,344.72 L1221.22,345.5675 L1231.17,345.1025 L1241.12,345.1598 L1251.07,345.5803 L1261.02,344.7493 L1270.97,346.4094 L1280.92,344.8308 L1290.87,345.4075 L1300.82,346.2471 L1310.77,345.5568 L1320.72,345.7621 L1330.67,345.6286 L1340.62,345.9092 L1350.57,345.99 L1360.52,346.4521 L1370.47,346.5659 L1380.42,346.5768 L1390.37,346.0107 L1400.32,346.2893 L1410.27,346.6075 L1420.22,344.7096 L1430.17,346.5758 L1440.12,345.2758 L1450.07,346.3829 L1460.02,345.0111 L1469.97,345.5798 L1479.92,346.66 L1489.87,345.6062 L1499.82,345.8116 L1509.77,346.1227 L1519.72,346.2261 L1529.67,345.666 L1539.62,346.0541 L1549.57,344.9079 L1559.52,345.6712" fill="none" style="stroke:#8B0000;stroke-width:4;"/><polygon fill="#8B0000" points="1165.47,345.6712,1165.4985,345.7352,1167.2139,346.345,1169.0962,347.33,1170.9241,348.1929,1172.5734,348.6539,1174.47,349.6712,1174.4517,349.6528,1173.5695,348.7706,1172.7796,347.9808,1172.0539,347.2551,1171.107,346.3082,1170.47,345.6712,1170.6005,345.8017,1171.1214,344.7226,1172.0234,344.0245,1172.9718,343.373,1173.6498,342.4509,1174.47,341.6712,1174.4792,341.6919,1172.6657,342.4614,1170.8942,343.3255,1169.1024,344.144,1167.3493,345.0496,1165.47,345.6712" style="stroke:#8B0000;stroke-width:4;"/><text fill="#000000" font-family="Chalkduster" font-size="24" lengthAdjust="spacing" textLength="187.7304" x="1268.791" y="274.512">Include rules</text><text fill="#000000" font-family="Chalkduster" font-size="24" lengthAdjust="spacing" textLength="356.5525" x="1184.38" y="305.1419">documentation generated</text><text fill="#000000" font-family="Chalkduster" font-size="24" lengthAdjust="spacing" textLength="66.9348" x="1329.1888" y="335.7717">from</text></g><!--reverse link soss to md--><g class="link" data-entity-1="soss" data-entity-2="md" data-source-line="39" data-uid="lnk16" id="link_soss_md"><path d="M672.41,345.6712 L672.41,345.9514 L682.3676,345.1187 L692.3253,345.9289 L702.2829,346.2041 L712.2406,344.72 L722.1982,345.5675 L732.1559,345.1025 L742.1135,345.1598 L752.0712,345.5803 L762.0288,344.7493 L771.9865,346.4094 L781.9441,344.8308 L791.9018,345.4075 L801.8594,346.2471 L811.8171,345.5568 L821.7747,345.7621 L831.7324,345.6286 L841.69,345.6712" fill="none" style="stroke:#8B0000;stroke-width:4;"/><polygon fill="#8B0000" points="666.41,345.6712,666.4385,345.7352,668.1539,346.345,670.0362,347.33,671.8641,348.1929,673.5134,348.6539,675.41,349.6712,675.3917,349.6528,674.5095,348.7706,673.7196,347.9808,672.9939,347.2551,672.047,346.3082,671.41,345.6712,671.5405,345.8017,672.0614,344.7226,672.9634,344.0245,673.9118,343.373,674.5898,342.4509,675.41,341.6712,675.4192,341.6919,673.6057,342.4614,671.8342,343.3255,670.0424,344.144,668.2893,345.0496,666.41,345.6712" style="stroke:#8B0000;stroke-width:4;"/><text fill="#000000" font-family="Chalkduster" font-size="24" lengthAdjust="spacing" textLength="125.0917" x="691.52" y="335.512">Based on</text></g><!--SRC=[VPDDRzim38Rl-XLSJorGU_SWo679PKEw3FEsKu11aMXRY2KQ-iYQVpyoZjTqA7en88bytuSV_k226Oh5trw7CzJrHwkphlYWE_GOSfNoUS0wFsUbiii3Bk17Zv3xY0XUkm26_4Y1GnEq5463nwn51J2SNAGWCagfY2Rhq0q8TutfqUkQOWUDoCDq0VVDhcaUBZ8R4l4xM2uJPraTRLgjG2T8b1AhgK2PCMW4QgSxmBghOSiMXTbX8mHhyfv2WepHSqGgfXSDHlObEAEpe_145X-X6Uc8OSvM62o8motrX5Ib4OrhdG595C0_58zfr0OdG6zVm_7v7RHzy2m3hUCcWxfeNWu9T4Ge2IthC71eNLSYBbG5ttVLEcesGEko2ntm42uNrUxszQG7PoyLgfTo9h83vKp-2lTJFBZb2mKLjq6AEyC1UtroLA84YG_5nwcAsOc3VqqE-EAPSYmcCwSypyBGOK1-5jGnabG7baoHlRZomVswnCZduImrS_5WIXB6BytkguXudHKSIkRDk_6x3ZAVmIN0vt6WA2uSeqH7uBSk79-sCXWjRKmkPVQ1D6tSCCz4E9KaSjPOuaXCyQ3Ut8D_xj-knMoknRonhMCBIl6d6h3DrOhx3GluFFro40lFUHzUzM9k5jfzQ2Dv9RiDoogwhi_LbFz9IsUbRxTxDhQBztw1cNeV_iV-2m00]--></g></svg>