<?xml version="1.0" encoding="UTF-8" standalone="no"?><svg xmlns="http://www.w3.org/2000/svg" xmlns:xlink="http://www.w3.org/1999/xlink" contentStyleType="text/css" height="1283px" preserveAspectRatio="none" style="width:1719px;height:1283px;background:#FFFFFF;" version="1.1" viewBox="0 0 1719 1283" width="1719px" zoomAndPan="magnify"><defs/><g><text fill="#000000" font-family="Chalkduster" font-size="42" font-weight="bold" lengthAdjust="spacing" textLength="715" x="495" y="51.7215">Adding Objects using Crate-O</text><!--cluster arch--><g id="cluster_arch"><polygon fill="#98FB98" points="923.5,684.8912,923.5,685.1013,933.6,684.4768,943.7,685.0844,953.8,685.2908,963.9,684.1778,974,684.8134,984.1,684.4647,994.2,684.5077,1004.3,684.823,1014.4,684.1998,1024.5,685.4448,1034.6,684.2609,1044.7,684.6934,1054.8,685.3231,1064.9,684.8054,1075,684.9594,1085.1,684.8592,1095.2,685.0697,1105.3,685.1303,1115.4,685.4769,1125.5,685.5622,1135.6,685.5704,1145.7,685.1458,1155.8,685.3547,1165.9,685.5934,1176,684.17,1186.1,685.5697,1196.2,684.5947,1206.3,685.425,1216.4,684.3961,1226.5,684.8227,1236.6,685.6328,1246.7,684.8424,1256.8,684.9965,1266.9,685.2298,1277,685.3074,1287.1,684.8873,1297.2,685.1784,1307.3,684.3187,1317.4,685.1755,1327.5,684.8912,1327.5699,685.06,1327.9103,685.1745,1328.2853,685.3728,1328.499,685.1817,1328.831,685.2761,1329.2678,685.6234,1329.0764,685.5441,1329.3961,685.9694,1329.5001,686.3054,1329.917,686.771,1329.7998,687.0153,1330,687.3912,1329.6569,687.3912,1330.2283,697.3573,1329.3332,707.3234,1329.4809,717.2895,1330.649,727.2556,1330.4357,737.2217,1330.7345,747.1878,1329.6782,757.1539,1330.3192,767.12,1330.5904,777.0861,1329.5276,787.0522,1329.9041,797.0183,1330.126,806.9844,1330.6518,816.9505,1329.9958,826.9166,1330.4626,836.8827,1329.4462,846.8488,1329.3227,856.8149,1330.5036,866.781,1329.2831,876.7471,1330.509,886.7132,1330.2066,896.6793,1329.7321,906.6454,1329.6462,916.6115,1330.4588,926.5776,1329.7007,936.5437,1330.5919,946.5098,1329.4473,956.4759,1330.6174,966.442,1330.4843,976.4081,1330.245,986.3742,1330.0472,996.3403,1330.7266,1006.3064,1330.6136,1016.2725,1330.1693,1026.2386,1330.2682,1036.2047,1329.8697,1046.1708,1330.7165,1056.1369,1330.1549,1066.103,1330.1726,1076.0691,1329.3916,1086.0352,1329.5948,1096.0013,1330.5307,1105.9674,1330.4298,1115.9335,1329.9571,1125.8996,1329.6778,1135.8657,1329.7811,1145.8318,1329.3138,1155.7979,1330.4147,1165.764,1330.7396,1175.7301,1330.5264,1185.6962,1330.6949,1195.6623,1329.8633,1205.6284,1330.0872,1215.5946,1329.6124,1225.5607,1330.284,1235.5268,1330.2468,1245.4929,1330.5524,1255.459,1329.7703,1265.4251,1330,1275.3912,1329.9586,1275.374,1329.9901,1275.8013,1329.8818,1276.1706,1329.4028,1276.3864,1329.3545,1276.7806,1329.2678,1277.1589,1329.2868,1277.2049,1328.8363,1277.1173,1328.6057,1277.5607,1328.24,1277.6777,1327.8407,1277.7137,1327.5,1277.8912,1327.5,1278.0334,1317.4,1278.6198,1307.3,1277.5783,1297.2,1278.2061,1287.1,1278.1768,1277,1278.0069,1266.9,1278.0321,1256.8,1278.0046,1246.7,1277.267,1236.6,1277.4903,1226.5,1277.4296,1216.4,1277.955,1206.3,1277.9793,1196.2,1278.0529,1186.1,1277.6002,1176,1277.8236,1165.9,1277.7709,1155.8,1278.468,1145.7,1278.3177,1135.6,1277.4056,1125.5,1277.8182,1115.4,1277.3139,1105.3,1278.1795,1095.2,1278.4996,1085.1,1278.4357,1075,1277.4556,1064.9,1278.3551,1054.8,1277.1484,1044.7,1278.0913,1034.6,1277.5918,1024.5,1277.9879,1014.4,1278.1315,1004.3,1278.3633,994.2,1277.1712,984.1,1278.3666,974,1278.0693,963.9,1278.2465,953.8,1278.639,943.7,1277.8966,933.6,1278.0664,923.5,1277.8912,923.5272,1277.9569,923.1716,1277.8055,922.7928,1277.598,922.53,1277.6707,922.008,1277.1176,921.7322,1277.1589,921.9063,1277.231,921.3936,1276.7258,921.2729,1276.3829,921.3052,1276.1034,921.1552,1275.7483,921,1275.3912,920.5072,1275.3912,921.4137,1265.4251,921.1089,1255.459,921.7267,1245.4929,921.6671,1235.5268,920.5517,1225.5607,920.6021,1215.5946,920.8708,1205.6284,921.3555,1195.6623,921.403,1185.6962,921.3012,1175.7301,920.658,1165.764,921.6364,1155.7979,921.6338,1145.8318,920.9527,1135.8657,920.7609,1125.8996,920.5986,1115.9335,920.7854,1105.9674,921.1374,1096.0013,920.9316,1086.0352,920.5822,1076.0691,921.4874,1066.103,920.5411,1056.1369,921.5024,1046.1708,921.4272,1036.2047,921.3719,1026.2386,921.6925,1016.2725,920.7541,1006.3064,920.6994,996.3403,921.5189,986.3742,920.4031,976.4081,920.766,966.442,921.1155,956.4759,921.0687,946.5098,920.6415,936.5437,920.957,926.5776,921.7446,916.6115,921.6485,906.6454,920.4037,896.6793,921.0785,886.7132,920.4861,876.7471,920.9737,866.781,921.293,856.8149,921.4199,846.8488,920.3353,836.8827,921.4005,826.9166,921.0084,816.9505,920.4447,806.9844,920.5289,797.0183,921.3266,787.0522,921.2499,777.0861,920.9836,767.12,920.3279,757.1539,921.6581,747.1878,920.6882,737.2217,920.4719,727.2556,920.9327,717.2895,921.5897,707.3234,921.6154,697.3573,921,687.3912,921.0108,687.3956,921.0999,687.0183,921.3452,686.7057,921.4967,686.3543,921.4294,685.9122,921.7322,685.6234,921.785,685.7509,922.1571,685.649,922.4118,685.2641,922.7381,685.0519,923.2325,685.2454,923.5,684.8912" style="stroke:#181818;stroke-width:4.0;"/><text fill="#000000" font-family="Chalkduster" font-size="24" font-style="italic" lengthAdjust="spacing" textLength="169" x="1041" y="710.732">«repository»</text><text fill="#000000" font-family="Chalkduster" font-size="24" font-weight="bold" lengthAdjust="spacing" textLength="306" x="972.5" y="741.3619">Repository with portal</text></g><!--cluster stor1--><g id="cluster_stor1"><path d="M953,944.8912 L953,944.8912 L953.038,944.9765 L954.4075,944.0628 L955.9998,943.6493 L957.5195,943.073 L958.8007,941.9609 L960.4121,941.5904 L960.4078,941.5561 L964.2964,940.9062 L968.2071,940.4291 L972.1329,940.072 L976.0062,939.3012 L979.9531,939.1099 L979.9713,939.3553 L982.5435,938.6367 L985.1688,938.6346 L987.8006,938.7198 L990.3946,938.2965 L993.0085,938.1407 L993.0102,938.171 L995.9221,937.9649 L998.8416,937.8967 L1001.7573,937.7619 L1004.6802,937.7541 L1007.5801,937.3326 L1007.5927,937.6305 L1010.7093,937.5019 L1013.8178,937.181 L1016.9382,937.1414 L1020.0591,937.1151 L1023.1624,936.6709 L1023.1518,936.3506 L1026.3898,936.8664 L1029.5931,936.3273 L1032.8228,936.5902 L1036.0252,936.0272 L1039.25,936.1412 L1039.2493,936.1107 L1045.5915,936.3261 L1051.9175,935.8304 L1058.253,935.7544 L1064.5894,935.7135 L1070.9199,935.4185 L1070.9224,935.6035 L1076.4453,935.3426 L1081.9724,935.3977 L1087.4927,934.9415 L1093.0232,935.248 L1098.5469,935.0474 L1098.5483,935.291 L1103.9386,935.2137 L1109.3297,935.2574 L1114.7175,934.739 L1120.1077,934.6326 L1125.5,934.8912 L1125.5,934.8912 L1125.4984,934.615 L1130.8905,934.8962 L1136.2807,934.8663 L1141.6736,935.2878 L1147.062,934.9385 L1152.4531,935.0474 L1152.4511,934.895 L1157.9799,935.2231 L1163.4999,934.8995 L1169.0262,935.0394 L1174.5586,935.6327 L1180.0801,935.4185 L1180.0845,935.6121 L1186.4215,935.8894 L1192.7448,935.5646 L1199.0853,935.9939 L1205.422,936.259 L1211.75,936.1412 L1211.7431,935.9313 L1214.9661,936.2045 L1218.1869,936.409 L1221.4121,936.7485 L1224.6201,936.5631 L1227.8376,936.6709 L1227.8464,936.8763 L1230.9437,936.5574 L1234.0578,936.6349 L1237.1965,937.2915 L1240.2899,936.8819 L1243.4199,937.3326 L1243.4324,937.5584 L1246.3393,937.5859 L1249.2419,937.5369 L1252.1541,937.6604 L1255.0884,938.1826 L1257.9915,938.1407 L1257.9816,938.008 L1260.622,938.5968 L1263.1954,938.2834 L1265.845,938.9959 L1268.4517,939.1307 L1271.0469,939.1099 L1271.0606,939.2179 L1274.9577,939.6268 L1278.9039,940.4225 L1282.8058,940.8687 L1286.6892,941.1689 L1290.5879,941.5904 L1290.6364,941.6993 L1292.0468,942.1976 L1293.6823,943.2016 L1295.0632,943.6337 L1296.5488,944.3011 L1298,944.8912 L1296.3777,944.8912 L1296.9194,954.9256 L1299.4153,964.9601 L1299.146,974.9946 L1297.8855,985.0291 L1297.1409,995.0636 L1297.4162,1005.0981 L1296.1702,1015.1325 L1299.106,1025.167 L1299.9722,1035.2015 L1299.4037,1045.236 L1299.8532,1055.2705 L1297.6354,1065.305 L1298.2326,1075.3394 L1296.9664,1085.3739 L1298.7574,1095.4084 L1298.658,1105.4429 L1299.473,1115.4774 L1297.3876,1125.5119 L1297.6416,1135.5463 L1299.1826,1145.5808 L1299.5129,1155.6153 L1296.6332,1165.6498 L1297.483,1175.6843 L1298.398,1185.7187 L1296.3711,1195.7532 L1298.9424,1205.7877 L1298.688,1215.8222 L1297.7313,1225.8567 L1298,1235.8912 L1298,1235.8912 L1298.0257,1235.9489 L1296.6493,1236.8472 L1294.9786,1237.0844 L1293.6097,1237.9995 L1292.122,1238.6478 L1290.5879,1239.1919 L1290.5944,1239.243 L1286.6876,1239.7502 L1282.7778,1240.2342 L1278.8283,1240.405 L1274.9326,1240.9996 L1271.0469,1241.6724 L1271.0317,1241.4678 L1268.4379,1241.8945 L1265.8276,1242.0992 L1263.2189,1242.3256 L1260.593,1242.3188 L1257.9915,1242.6416 L1257.9898,1242.6117 L1255.0742,1242.7499 L1252.177,1243.2209 L1249.259,1243.3158 L1246.3223,1243.0727 L1243.4199,1243.4498 L1243.4185,1243.4174 L1240.2926,1243.3258 L1237.1924,1243.8425 L1234.082,1244.1169 L1230.9644,1244.2209 L1227.8376,1244.1114 L1227.8313,1243.9179 L1224.6269,1244.4234 L1221.3917,1243.9933 L1218.188,1244.5182 L1214.9632,1244.4022 L1211.75,1244.6412 L1211.751,1244.6841 L1205.4185,1244.8925 L1199.0868,1245.14 L1192.7407,1244.7549 L1186.4189,1245.4306 L1180.0801,1245.3638 L1180.0811,1245.443 L1174.5568,1245.5959 L1169.0338,1245.8446 L1163.5039,1245.5889 L1157.9796,1245.7386 L1152.4531,1245.7349 L1152.4537,1245.8298 L1147.063,1245.8538 L1141.6719,1245.797 L1136.2831,1246.1445 L1130.8891,1245.5889 L1125.5,1245.8912 L1125.5,1245.8912 L1125.5015,1246.1424 L1120.1078,1245.5826 L1114.7174,1245.5885 L1109.3282,1245.8152 L1103.9376,1245.7787 L1098.5469,1245.7349 L1098.5439,1245.5159 L1093.024,1245.8445 L1087.4967,1245.6348 L1081.975,1245.8352 L1076.4493,1245.7345 L1070.9199,1245.3638 L1070.9154,1245.1646 L1064.5819,1245.0425 L1058.2506,1245.0174 L1051.9216,1245.0882 L1045.5881,1244.9647 L1039.25,1244.6412 L1039.2544,1244.7749 L1036.0275,1244.3833 L1032.8243,1244.7119 L1029.6067,1244.6048 L1026.3792,1244.1963 L1023.1624,1244.1114 L1023.1578,1244.0052 L1020.0383,1243.8008 L1016.9254,1243.7514 L1013.8156,1243.7754 L1010.6952,1243.5517 L1007.5801,1243.4498 L1007.5698,1243.2644 L1004.6778,1243.5044 L1001.7402,1242.9229 L998.8495,1243.1878 L995.9334,1242.9929 L993.0085,1242.6416 L993.0208,1242.8065 L990.4202,1242.7547 L987.7783,1242.145 L985.1654,1241.9269 L982.5813,1242.0962 L979.9531,1241.6724 L979.9197,1241.4092 L976.0318,1241.0731 L972.1432,1240.7311 L968.2324,1240.2144 L964.3003,1239.53 L960.4121,1239.1919 L960.4043,1239.1745 L959.0643,1238.8341 L957.5645,1238.1349 L955.857,1236.9694 L954.4966,1236.5832 L953,1235.8912 L951.6296,1235.8912 L952.9298,1225.8567 L953.7813,1215.8222 L954.1197,1205.7877 L951.2274,1195.7532 L954.0681,1185.7187 L953.0224,1175.6843 L951.5191,1165.6498 L951.7439,1155.6153 L953.8709,1145.5808 L953.6663,1135.5463 L952.9561,1125.5119 L951.2077,1115.4774 L954.755,1105.4429 L952.1684,1095.4084 L951.5918,1085.3739 L952.8205,1075.3394 L954.5726,1065.305 L954.6411,1055.2705 L953.0937,1045.236 L952.5969,1035.2015 L953.4528,1025.167 L953.4966,1015.1325 L951.6459,1005.0981 L954.1039,995.0636 L954.4901,985.0291 L952.4246,974.9946 L951.8555,964.9601 L954.7991,954.9256 L953,944.8912 " fill="none" style="stroke:#181818;stroke-width:4.0;"/><path d="M953,944.8912 L953,944.8912 L953.038,944.9765 L954.4075,945.3831 L955.9998,946.2899 L957.5195,947.0339 L958.8007,947.2421 L960.4121,948.1919 L960.4078,948.1577 L964.2964,948.5 L968.2071,949.015 L972.1329,949.6502 L976.0062,949.8715 L979.9531,950.6724 L979.9713,950.9178 L982.5435,950.5869 L985.1688,950.9725 L987.8006,951.4454 L990.3946,951.4098 L993.0085,951.6416 L993.0102,951.6719 L995.9221,951.7891 L998.8416,952.0441 L1001.7573,952.2326 L1004.6802,952.548 L1007.5801,952.4498 L1007.5927,952.7477 L1010.7093,952.8837 L1013.8178,952.8275 L1016.9382,953.0526 L1020.0591,953.2909 L1023.1624,953.1114 L1023.1518,952.791 L1026.3898,953.5187 L1029.5931,953.1916 L1032.8228,953.6664 L1036.0252,953.3153 L1039.25,953.6412 L1039.2493,953.6107 L1045.5915,954.1152 L1051.9175,953.9086 L1058.253,954.1215 L1064.5894,954.3697 L1070.9199,954.3638 L1070.9224,954.5488 L1076.4453,954.4363 L1081.9724,954.6399 L1087.4927,954.3321 L1093.0232,954.7871 L1098.5469,954.7349 L1098.5483,954.9785 L1103.9386,954.9637 L1109.3297,955.0699 L1114.7175,954.614 L1120.1077,954.5701 L1125.5,954.8912 L1125.5,954.8912 L1125.4984,954.615 L1130.8905,954.8337 L1136.2807,954.7413 L1141.6736,955.1003 L1147.062,954.6885 L1152.4531,954.7349 L1152.4511,954.5825 L1157.9799,954.7621 L1163.4999,954.2901 L1169.0262,954.2816 L1174.5586,954.7264 L1180.0801,954.3638 L1180.0845,954.5574 L1186.4215,954.5456 L1192.7448,953.9318 L1199.0853,954.0721 L1205.422,954.048 L1211.75,953.6412 L1211.7431,953.4313 L1214.9661,953.4926 L1218.1869,953.4852 L1221.4121,953.6128 L1224.6201,953.2155 L1227.8376,953.1114 L1227.8464,953.3168 L1230.9437,952.7331 L1234.0578,952.546 L1237.1965,952.938 L1240.2899,952.2637 L1243.4199,952.4498 L1243.4324,952.6756 L1246.3393,952.3798 L1249.2419,952.0076 L1252.1541,951.8079 L1255.0884,952.0069 L1257.9915,951.6416 L1257.9816,951.509 L1260.622,951.7101 L1263.1954,951.009 L1265.845,951.3338 L1268.4517,951.0809 L1271.0469,950.6724 L1271.0606,950.7804 L1274.9577,950.1971 L1278.9039,950.0006 L1282.8058,949.4547 L1286.6892,948.7627 L1290.5879,948.1919 L1290.6364,948.3008 L1292.0468,947.4789 L1293.6823,947.1625 L1295.0632,946.2744 L1296.5488,945.6214 L1298,944.8912 " fill="none" style="stroke:#181818;stroke-width:4.0;"/><text fill="#000000" font-family="Chalkduster" font-size="24" font-weight="bold" lengthAdjust="spacing" textLength="128" x="1061.5" y="980.732">Storage 1</text></g><!--cluster Obj1--><g id="cluster_Obj1"><polygon fill="none" points="1093.5,1029.8912,1093.5,1030.1013,1103.5,1029.4768,1113.5,1030.0844,1123.5,1030.2908,1133.5,1029.1778,1143.5,1029.8134,1153.5,1029.4647,1163.5,1029.5077,1173.5,1029.823,1183.5,1029.1998,1193.5,1030.4448,1203.5,1029.2609,1213.5,1029.6934,1223.5,1030.3231,1233.5,1029.8054,1243.5,1029.9594,1253.5,1029.8592,1263.5,1029.8912,1263.5228,1029.9461,1263.8841,1030.1113,1264.2818,1030.3644,1264.6463,1030.5372,1265.0009,1030.6861,1265.2678,1030.6234,1265.3462,1030.6559,1265.557,1031.0361,1265.7769,1031.4201,1265.485,1031.5921,1266.0625,1032.1242,1266,1032.3912,1265.7035,1032.3912,1266.5338,1042.3356,1265.505,1052.28,1265.9315,1062.2245,1266.7416,1072.1689,1265.9513,1082.1134,1266.1053,1092.0578,1266.3386,1102.0023,1266.4162,1111.9467,1265.9961,1121.8912,1266.2872,1131.8356,1265.4276,1141.78,1266.2844,1151.7245,1266.5482,1161.6689,1266.4445,1171.6134,1266.613,1181.5578,1265.5169,1191.5023,1265.3478,1201.4467,1266,1211.3912,1265.8086,1211.3119,1265.8354,1211.7372,1265.6466,1212.0732,1265.7705,1212.5387,1265.3604,1212.7831,1265.2678,1213.1589,1265.224,1213.0533,1264.9433,1213.3757,1264.4756,1213.2465,1264.1409,1213.4384,1263.9363,1213.9446,1263.5,1213.8912,1263.5,1214.3268,1253.5,1214.6257,1243.5,1213.5694,1233.5,1214.2104,1223.5,1214.4816,1213.5,1213.4188,1203.5,1213.7953,1193.5,1214.0171,1183.5,1214.5429,1173.5,1213.887,1163.5,1214.3537,1153.5,1213.3374,1143.5,1213.2139,1133.5,1214.3948,1123.5,1213.1742,1113.5,1214.4001,1103.5,1214.0978,1093.5,1213.8912,1093.4658,1213.8087,1093.1013,1213.6358,1092.8514,1213.7395,1092.4012,1213.3596,1092.1613,1213.4876,1091.7322,1213.1589,1091.562,1213.0884,1091.7759,1212.8841,1091.5885,1212.5136,1091.3683,1212.1295,1091.161,1211.7507,1091,1211.3912,1091.7266,1211.3912,1091.6136,1201.4467,1091.1693,1191.5023,1091.2682,1181.5578,1090.8697,1171.6134,1091.7165,1161.6689,1091.1549,1151.7245,1091.1726,1141.78,1090.3916,1131.8356,1090.5948,1121.8912,1091.5307,1111.9467,1091.4298,1102.0023,1090.9571,1092.0578,1090.6778,1082.1134,1090.7811,1072.1689,1090.3138,1062.2245,1091.4147,1052.28,1091.7396,1042.3356,1091,1032.3912,1091.1621,1032.4583,1091.3605,1032.1263,1091.2508,1031.6666,1091.4662,1031.3416,1091.4664,1030.9275,1091.7322,1030.6234,1091.7685,1030.7109,1092.1173,1030.5529,1092.5098,1030.5006,1092.7636,1030.1133,1093.1293,1029.9962,1093.5,1029.8912" style="stroke:#181818;stroke-width:4.0;"/><text fill="#000000" font-family="Chalkduster" font-size="24" font-weight="bold" lengthAdjust="spacing" textLength="57" x="1150" y="1055.732">Obj1</text></g><!--cluster stor1a--><g id="cluster_stor1a"><path d="M1183,182.3912 L1183,182.3912 L1183.031,182.4793 L1186.2201,181.0612 L1189.5911,180.1597 L1192.9028,179.0899 L1196.0196,177.4671 L1199.4063,176.6099 L1199.4026,176.5756 L1202.7496,176.0659 L1206.1149,175.7295 L1209.4929,175.5134 L1212.8271,174.8825 L1216.2227,174.8326 L1216.2378,175.0782 L1220.0608,174.3147 L1223.9282,174.2683 L1227.8009,174.3093 L1231.6422,173.8414 L1235.5,173.6412 L1235.5011,173.6715 L1239.3549,173.4824 L1243.2139,173.4314 L1247.0704,173.3138 L1250.9316,173.3232 L1254.7773,172.9185 L1254.7839,173.2167 L1258.1473,173.1461 L1261.5064,172.8832 L1264.8717,172.9018 L1268.2374,172.9337 L1271.5938,172.5474 L1271.5907,172.2269 L1274.8779,172.8177 L1278.155,172.3531 L1281.4398,172.6909 L1284.7167,172.2024 L1288,172.3912 L1288,172.3912 L1287.9997,172.3607 L1291.2844,172.752 L1294.5623,172.432 L1297.8442,172.5317 L1301.1264,172.6667 L1304.4063,172.5474 L1304.4103,172.7324 L1307.7695,172.6199 L1311.1356,172.8235 L1314.4905,172.5157 L1317.8622,172.9706 L1321.2227,172.9185 L1321.2318,173.162 L1325.0855,173.2605 L1328.9438,173.4798 L1332.781,173.1375 L1336.6337,173.207 L1340.5,173.6412 L1340.483,173.3655 L1344.3539,173.8533 L1348.2055,174.0305 L1352.0851,174.6583 L1355.9171,174.5168 L1359.7773,174.8326 L1359.7613,174.6809 L1363.1513,175.2889 L1366.4728,175.2488 L1369.8429,175.6695 L1373.2608,176.5413 L1376.5938,176.6099 L1376.6581,176.7925 L1379.9835,178.074 L1383.1087,178.7875 L1386.4846,180.2125 L1389.806,181.4824 L1393,182.3912 L1391.7403,182.3912 L1392.7444,192.2662 L1393.336,202.1412 L1394.738,212.0162 L1392.9888,221.8912 L1394.2335,231.7662 L1391.5232,241.6412 L1391.194,251.5162 L1394.343,261.3912 L1391.0882,271.2662 L1394.3572,281.1412 L1393.551,291.0162 L1392.2856,300.8912 L1392.0566,310.7662 L1394.2234,320.6412 L1392.2018,330.5162 L1394.5783,340.3912 L1391.526,350.2662 L1394.6465,360.1412 L1394.2915,370.0162 L1393.6532,379.8912 L1393.1259,389.7662 L1394.9376,399.6412 L1394.6362,409.5162 L1393,419.3912 L1393,419.3912 L1393.025,419.4621 L1389.7584,420.6598 L1386.4183,421.6491 L1383.2621,423.1602 L1379.8979,424.0811 L1376.5938,425.1724 L1376.6018,425.2487 L1373.2021,425.259 L1369.8483,425.7042 L1366.5287,426.4734 L1363.1607,426.7842 L1359.7773,426.9498 L1359.7762,426.9307 L1355.913,427.0451 L1352.0604,427.3292 L1348.1921,427.3602 L1344.3668,428.0869 L1340.5,428.1412 L1340.5123,428.4696 L1336.6533,428.5195 L1332.8006,428.7389 L1328.9313,428.514 L1325.0796,428.758 L1321.2227,428.8638 L1321.2189,428.6916 L1317.8622,429.0642 L1314.4985,429.1219 L1311.1382,429.3319 L1307.7673,429.0586 L1304.4063,429.2349 L1304.4057,429.1752 L1301.1269,429.4632 L1297.8462,429.5495 L1294.5603,429.1009 L1291.2804,429.2737 L1288,429.3912 L1288,429.3912 L1288.0006,429.4575 L1284.7162,429.0884 L1281.439,429.4857 L1278.1573,429.4121 L1274.8746,429.2214 L1271.5938,429.2349 L1271.5951,429.2981 L1268.2376,429.4845 L1264.8641,428.9475 L1261.507,429.1522 L1258.1434,429.065 L1254.7773,428.8638 L1254.7793,428.9152 L1250.9242,428.7819 L1247.0683,428.6252 L1243.2005,428.153 L1239.3488,428.1077 L1235.5,428.1412 L1235.4873,427.9364 L1231.6463,427.9312 L1227.7915,427.7037 L1223.938,427.4981 L1220.0701,427.059 L1216.2227,426.9498 L1216.2195,426.9199 L1212.8538,426.5412 L1209.523,426.4938 L1206.1527,426.0719 L1202.7469,425.3133 L1199.4063,425.1724 L1199.3955,425.1418 L1196.0397,423.7742 L1192.8863,422.9808 L1189.6524,421.9587 L1186.3617,420.7757 L1183,419.3912 L1181.8385,419.3912 L1184.2372,409.5162 L1181.0192,399.6412 L1183.5337,389.7662 L1182.2018,379.8912 L1183.2579,370.0162 L1183.6409,360.1412 L1184.2589,350.2662 L1181.0802,340.3912 L1184.2679,330.5162 L1183.4751,320.6412 L1183.9475,310.7662 L1184.9941,300.8912 L1183.0146,291.0162 L1183.4674,281.1412 L1183.5692,271.2662 L1183.526,261.3912 L1182.9978,251.5162 L1184.8952,241.6412 L1181.374,231.7662 L1184.5074,221.8912 L1181.336,212.0162 L1181.5592,202.1412 L1183.1067,192.2662 L1183,182.3912 " fill="#FFE4E1" style="stroke:#181818;stroke-width:4.0;"/><path d="M1183,182.3912 L1183,182.3912 L1183.031,182.4793 L1186.2201,183.3737 L1189.5911,184.7847 L1192.9028,186.0274 L1196.0196,186.7171 L1199.4063,188.1724 L1199.4026,188.1381 L1202.7496,188.3394 L1206.1149,188.7138 L1209.4929,189.2087 L1212.8271,189.2887 L1216.2227,189.9498 L1216.2378,190.1953 L1220.0608,189.9084 L1223.9282,190.3386 L1227.8009,190.8562 L1231.6422,190.8648 L1235.5,191.1412 L1235.5011,191.1715 L1239.3549,191.2715 L1243.2139,191.5095 L1247.0704,191.681 L1250.9316,191.9794 L1254.7773,191.8638 L1254.7839,192.162 L1258.1473,192.2399 L1261.5064,192.1254 L1264.8717,192.2925 L1268.2374,192.4727 L1271.5938,192.2349 L1271.5907,191.9144 L1274.8779,192.5677 L1278.155,192.1656 L1281.4398,192.5659 L1284.7167,192.1399 L1288,192.3912 L1288,192.3912 L1287.9997,192.3607 L1291.2844,192.6895 L1294.5623,192.307 L1297.8442,192.3442 L1301.1264,192.4167 L1304.4063,192.2349 L1304.4103,192.4199 L1307.7695,192.159 L1311.1356,192.2141 L1314.4905,191.7579 L1317.8622,192.0644 L1321.2227,191.8638 L1321.2318,192.1073 L1325.0855,191.9167 L1328.9438,191.847 L1332.781,191.2157 L1336.6337,190.996 L1340.5,191.1412 L1340.483,190.8655 L1344.3539,190.8768 L1348.2055,190.5774 L1352.0851,190.7286 L1355.9171,190.1105 L1359.7773,189.9498 L1359.7613,189.7981 L1363.1513,189.6952 L1366.4728,188.9441 L1369.8429,188.6539 L1373.2608,188.8147 L1376.5938,188.1724 L1376.6581,188.355 L1379.9835,187.324 L1383.1087,185.725 L1386.4846,184.8375 L1389.806,183.7949 L1393,182.3912 " fill="none" style="stroke:#181818;stroke-width:4.0;"/><text fill="#000000" font-family="Chalkduster" font-size="24" font-style="italic" lengthAdjust="spacing" textLength="175" x="1200.5" y="218.232">«workspace»</text><text fill="#000000" font-family="Chalkduster" font-size="24" font-weight="bold" lengthAdjust="spacing" textLength="194" x="1191" y="248.8619">Working Store</text></g><!--cluster test--><g id="cluster_test"><polygon fill="#FFE4E1" points="9.5,132.8912,9.5,133.1013,19.4825,132.4768,29.4649,133.0844,39.4474,133.2908,49.4298,132.1778,59.4123,132.8134,69.3947,132.4647,79.3772,132.5077,89.3596,132.823,99.3421,132.1998,109.3246,133.4448,119.307,132.2609,129.2895,132.6934,139.2719,133.3231,149.2544,132.8054,159.2368,132.9594,169.2193,132.8592,179.2018,133.0697,189.1842,133.1303,199.1667,133.4769,209.1491,133.5622,219.1316,133.5704,229.114,133.1458,239.0965,133.3547,249.0789,133.5934,259.0614,132.17,269.0439,133.5697,279.0263,132.5947,289.0088,133.425,298.9912,132.3961,308.9737,132.8227,318.9561,133.6328,328.9386,132.8424,338.9211,132.9965,348.9035,133.2298,358.886,133.3074,368.8684,132.8873,378.8509,133.1784,388.8333,132.3187,398.8158,133.1755,408.7982,133.4394,418.7807,133.3357,428.7632,133.5042,438.7456,132.4081,448.7281,132.239,458.7105,132.2698,468.693,132.8323,478.6754,132.6946,488.6579,133.5726,498.6404,132.7165,508.6228,132.5481,518.6053,133.1194,528.5877,132.2243,538.5702,132.372,548.5526,133.5401,558.5351,133.3268,568.5175,133.6257,578.5,132.5694,588.4825,133.2104,598.4649,133.4816,608.4474,132.4188,618.4298,132.7953,628.4123,133.0171,638.3947,133.5429,648.3772,132.887,658.3596,133.3537,668.3421,132.3374,678.3246,132.2139,688.307,133.3948,698.2895,132.1742,708.2719,133.4001,718.2544,133.0978,728.2368,132.6232,738.2193,132.5374,748.2018,133.3499,758.1842,132.5918,768.1667,133.483,778.1491,132.3384,788.1316,133.5086,798.114,133.3755,808.0965,133.1361,818.0789,132.9384,828.0614,133.6178,838.0439,133.5047,848.0263,133.0604,858.0088,133.1593,867.9912,132.7609,877.9737,133.6076,887.9561,133.046,897.9386,133.0637,907.9211,132.2828,917.9035,132.4859,927.886,133.4219,937.8684,133.3209,947.8509,132.8482,957.8333,132.569,967.8158,132.6722,977.7982,132.205,987.7807,133.3059,997.7632,133.6307,1007.7456,133.4176,1017.7281,133.5861,1027.7105,132.7544,1037.693,132.9784,1047.6754,132.5036,1057.6579,133.1752,1067.6404,133.1379,1077.6228,133.4435,1087.6053,132.6615,1097.5877,132.7568,1107.5702,133.3346,1117.5526,133.4585,1127.5351,132.3786,1137.5175,132.6973,1147.5,132.8912,1147.519,132.9371,1147.7756,132.8495,1148.2522,133.2929,1148.5936,133.41,1148.9014,133.4459,1149.2678,133.6234,1149.3116,133.6415,1149.6386,134.0699,1149.4643,134.2906,1149.8041,134.7242,1149.9415,135.074,1150,135.3912,1150.1158,135.3912,1150.1409,145.3306,1150.1135,155.2699,1149.3758,165.2093,1149.5992,175.1487,1149.5385,185.0881,1150.0638,195.0275,1150.0881,204.9669,1150.1617,214.9063,1149.709,224.8457,1149.9325,234.7851,1149.8798,244.7245,1150.5769,254.6639,1150.4266,264.6033,1149.5145,274.5427,1149.9271,284.4821,1149.4228,294.4215,1150.2884,304.3609,1150.6085,314.3003,1150.5446,324.2396,1149.5644,334.179,1150.464,344.1184,1149.2572,354.0578,1150.2002,363.9972,1149.7007,373.9366,1150.0967,383.876,1150.2403,393.8154,1150.4721,403.7548,1149.2801,413.6942,1150.4755,423.6336,1150.1782,433.573,1150.3553,443.5124,1150.7478,453.4518,1150,463.3912,1150.0017,463.3919,1149.9075,463.7671,1149.7728,464.1255,1149.6214,464.477,1149.414,464.8053,1149.2678,465.1589,1149.3584,465.3778,1148.8364,465.1176,1148.6328,465.6259,1148.1275,465.4061,1147.7846,465.5783,1147.5,465.8912,1147.5,465.9312,1137.5175,465.9194,1127.5351,465.3983,1117.5526,466.3049,1107.5702,466,1097.5877,466.6178,1087.6053,466.5583,1077.6228,465.4429,1067.6404,465.4932,1057.6579,465.762,1047.6754,466.2467,1037.693,466.2941,1027.7105,466.1923,1017.7281,465.5492,1007.7456,466.5275,997.7632,466.5249,987.7807,465.8439,977.7982,465.6521,967.8158,465.4898,957.8333,465.6766,947.8509,466.0286,937.8684,465.8228,927.886,465.4734,917.9035,466.3785,907.9211,465.4322,897.9386,466.3935,887.9561,466.3184,877.9737,466.263,867.9912,466.5837,858.0088,465.6453,848.0263,465.5905,838.0439,466.41,828.0614,465.2943,818.0789,465.6572,808.0965,466.0067,798.114,465.9598,788.1316,465.5327,778.1491,465.8482,768.1667,466.6358,758.1842,466.5396,748.2018,465.2949,738.2193,465.9697,728.2368,465.3773,718.2544,465.8648,708.2719,466.1842,698.2895,466.311,688.307,465.2264,678.3246,466.2917,668.3421,465.8996,658.3596,465.3358,648.3772,465.4201,638.3947,466.2178,628.4123,466.141,618.4298,465.8747,608.4474,465.2191,598.4649,466.5493,588.4825,465.5793,578.5,465.3631,568.5175,465.8238,558.5351,466.4809,548.5526,466.5066,538.5702,465.9263,528.5877,465.74,518.6053,466.0609,508.6228,466.0774,498.6404,465.3834,488.6579,466.3051,478.6754,466.45,468.693,465.6754,458.7105,465.462,448.7281,466.5658,438.7456,465.9122,428.7632,465.891,418.7807,466.1902,408.7982,465.2455,398.8158,466.4211,388.8333,465.8757,378.8509,466.56,368.8684,465.6753,358.886,466.3002,348.9035,465.4472,338.9211,466.1362,328.9386,466.2705,318.9561,465.5638,308.9737,466.2542,298.9912,465.3197,289.0088,465.4207,279.0263,466.574,269.0439,466.5755,259.0614,466.4597,249.0789,465.5308,239.0965,466.2754,229.114,465.4191,219.1316,465.9493,209.1491,465.8899,199.1667,465.6287,189.1842,466.5071,179.2018,466.3344,169.2193,465.5704,159.2368,466.4178,149.2544,465.983,139.2719,465.3076,129.2895,465.6578,119.307,465.3659,109.3246,465.7521,99.3421,465.2622,89.3596,465.291,79.3772,465.9615,69.3947,465.7708,59.4123,465.8326,49.4298,465.748,39.4474,466.0585,29.4649,465.3361,19.4825,466.0512,9.5,465.8912,9.4052,465.6623,9.1842,465.8359,8.8685,465.7808,8.5059,465.6126,8.1319,465.4166,7.7322,465.1589,7.7914,465.1834,7.6183,464.8189,7.2422,464.3702,7.4304,464.1552,7.248,463.7868,7,463.3912,6.8466,463.3912,6.9942,453.4518,6.7914,443.5124,7.2177,433.573,7.6805,423.6336,6.6461,413.6942,7.4689,403.7548,6.9108,393.8154,6.6207,383.876,6.5681,373.9366,6.3553,363.9972,6.5591,354.0578,7.0363,344.1184,7.273,334.179,7.5762,324.2396,7.4201,314.3003,6.2886,304.3609,7.619,294.4215,7.4861,284.4821,7.5407,274.5427,7.5219,264.6033,6.3409,254.6639,6.7423,244.7245,7.316,234.7851,6.5185,224.8457,6.8971,214.9063,7.067,204.9669,7.3261,195.0275,7.0458,185.0881,7.7447,175.1487,7.4114,165.2093,7.2561,155.2699,6.4601,145.3306,7,135.3912,7.1043,135.4344,6.9695,134.9643,7.387,134.723,7.4417,134.3315,7.678,134.0151,7.7322,133.6234,7.7211,133.5965,8.0608,133.4166,8.3448,133.1023,8.7655,133.118,9.0565,132.8205,9.5,132.8912" style="stroke:#181818;stroke-width:4.0;"/><text fill="#000000" font-family="Chalkduster" font-size="24" font-style="italic" lengthAdjust="spacing" textLength="175" x="491" y="158.732">«workspace»</text><text fill="#000000" font-family="Chalkduster" font-size="24" font-weight="bold" lengthAdjust="spacing" textLength="257" x="450" y="189.3619">Editing Workspace</text></g><!--cluster CO--><g id="cluster_CO"><polygon fill="none" points="898.5,264.3912,898.5,264.6013,908.3636,263.9768,918.2273,264.5844,928.0909,264.7908,937.9545,263.6778,947.8182,264.3134,957.6818,263.9647,967.5455,264.0077,977.4091,264.323,987.2727,263.6998,997.1364,264.9448,1007,263.7609,1016.8636,264.1934,1026.7273,264.8231,1036.5909,264.3054,1046.4545,264.4594,1056.3182,264.3592,1066.1818,264.5697,1076.0455,264.6303,1085.9091,264.9769,1095.7727,265.0622,1105.6364,265.0704,1115.5,264.3912,1115.5325,264.4696,1115.9127,264.6804,1116.2967,264.9003,1116.4687,264.6084,1117.0008,265.1859,1117.2678,265.1234,1117.1765,265.0856,1117.5786,265.545,1117.4082,265.7674,1117.686,266.1753,1118.0819,266.6322,1118,266.8912,1117.9513,266.8912,1118.1053,276.8912,1118.3386,286.8912,1118.4162,296.8912,1117.9961,306.8912,1118.2872,316.8912,1117.4276,326.8912,1118.2844,336.8912,1118.5482,346.8912,1118.4445,356.8912,1118.613,366.8912,1117.5169,376.8912,1117.3478,386.8912,1117.3786,396.8912,1117.9411,406.8912,1117.8035,416.8912,1118,426.8912,1118.2098,426.9781,1117.7998,427.2224,1117.6015,427.5545,1117.631,427.9809,1117.2089,428.2203,1117.2678,428.6589,1117.2015,428.4991,1116.997,429.0052,1116.6162,429.086,1116.3008,429.3245,1115.8125,429.1456,1115.5,429.3912,1115.5,429.7104,1105.6364,429.9816,1095.7727,428.9188,1085.9091,429.2953,1076.0455,429.5171,1066.1818,430.0429,1056.3182,429.387,1046.4545,429.8537,1036.5909,428.8374,1026.7273,428.7139,1016.8636,429.8948,1007,428.6742,997.1364,429.9001,987.2727,429.5978,977.4091,429.1232,967.5455,429.0374,957.6818,429.8499,947.8182,429.0918,937.9545,429.983,928.0909,428.8384,918.2273,430.0086,908.3636,429.8755,898.5,429.3912,898.5312,429.4666,898.1525,429.2593,897.8856,429.322,897.5176,429.1408,897.1074,428.8575,896.7322,428.6589,896.8148,428.6931,896.5457,428.2888,896.66,428.0432,896.3406,427.618,896.1996,427.2667,896,426.8912,895.3916,426.8912,895.5948,416.8912,896.5307,406.8912,896.4298,396.8912,895.9571,386.8912,895.6778,376.8912,895.7811,366.8912,895.3138,356.8912,896.4147,346.8912,896.7396,336.8912,896.5264,326.8912,896.6949,316.8912,895.8633,306.8912,896.0872,296.8912,895.6124,286.8912,896.284,276.8912,896,266.8912,896.076,266.9226,896.3166,266.6081,896.2222,266.1548,896.3979,265.8134,896.7224,265.5335,896.7322,265.1234,896.8046,265.2981,897.0204,264.8191,897.4146,264.7708,897.8119,264.73,898.0685,264.3495,898.5,264.3912" style="stroke:#181818;stroke-width:4.0;"/><text fill="#000000" font-family="Chalkduster" font-size="24" font-weight="bold" lengthAdjust="spacing" textLength="206" x="904" y="290.232">Crate-O Editor</text></g><!--cluster p1a--><g id="cluster_p1a"><polygon fill="none" points="641.5,259.8912,641.5,260.1013,651.5952,259.4768,661.6905,260.0844,671.7857,260.2908,681.881,259.1778,691.9762,259.8134,702.0714,259.4647,712.1667,259.5077,722.2619,259.823,732.3571,259.1998,742.4524,260.4448,752.5476,259.2609,762.6429,259.6934,772.7381,260.3231,782.8333,259.8054,792.9286,259.9594,803.0238,259.8592,813.119,260.0697,823.2143,260.1303,833.3095,260.4769,843.4048,260.5622,853.5,259.8912,853.5866,260.1003,853.886,260.116,854.2662,260.3268,854.6502,260.5468,854.8222,260.2549,855.2678,260.6234,855.4767,260.7099,855.3229,260.9391,855.7251,261.3986,855.5547,261.6209,855.8325,262.0289,856,262.3912,856.7416,262.3912,855.9513,272.3323,856.1053,282.2735,856.3386,292.2147,856.4162,302.1559,855.9961,312.097,856.2872,322.0382,855.4276,331.9794,856.2844,341.9206,856.5482,351.8617,856.4445,361.8029,856.613,371.7441,855.5169,381.6853,855.3478,391.6265,855.3786,401.5676,855.9411,411.5088,855.8035,421.45,856,431.3912,856.2098,431.4781,855.7998,431.7224,855.6015,432.0545,855.631,432.4809,855.2089,432.7203,855.2678,433.1589,855.2015,432.9991,854.997,433.5052,854.6162,433.586,854.3008,433.8245,853.8125,433.6456,853.5,433.8912,853.5,434.2104,843.4048,434.4816,833.3095,433.4188,823.2143,433.7953,813.119,434.0171,803.0238,434.5429,792.9286,433.887,782.8333,434.3537,772.7381,433.3374,762.6429,433.2139,752.5476,434.3948,742.4524,433.1742,732.3571,434.4001,722.2619,434.0978,712.1667,433.6232,702.0714,433.5374,691.9762,434.3499,681.881,433.5918,671.7857,434.483,661.6905,433.3384,651.5952,434.5086,641.5,433.8912,641.5618,434.0403,641.1777,433.8202,640.7989,433.6128,640.532,433.6756,640.1641,433.4943,639.7322,433.1589,639.7844,433.1805,639.6684,432.8396,639.3992,432.4352,639.5135,432.1897,639.1941,431.7645,639,431.3912,639.1726,431.3912,638.3916,421.45,638.5948,411.5088,639.5307,401.5676,639.4298,391.6265,638.9571,381.6853,638.6778,371.7441,638.7811,361.8029,638.3138,351.8617,639.4147,341.9206,639.7396,331.9794,639.5264,322.0382,639.6949,312.097,638.8633,302.1559,639.0872,292.2147,638.6124,282.2735,639.284,272.3323,639,262.3912,639.076,262.4226,639.3166,262.1081,639.2222,261.6548,639.3979,261.3134,639.7224,261.0335,639.7322,260.6234,639.8046,260.7981,640.0204,260.3191,640.4146,260.2708,640.8119,260.23,641.0685,259.8495,641.5,259.8912" style="stroke:#181818;stroke-width:4.0;"/><text fill="#000000" font-family="Chalkduster" font-size="24" font-weight="bold" lengthAdjust="spacing" textLength="201" x="647" y="285.732">Portal 1 - test</text></g><!--entity api1--><g id="elem_api1"><polygon fill="none" points="940,828.8912,940,829.1013,950.6667,828.4768,961.3333,829.0844,972,829.2908,982.6667,828.1778,993.3333,828.8134,1004,828.8912,1003.9456,828.7598,1004.3046,828.9195,1004.6984,829.1631,1004.9725,829.1176,1005.4848,829.6474,1005.7678,829.6234,1005.5737,829.543,1005.8533,829.9517,1006.1937,830.3856,1006.1807,830.6731,1006.3746,831.0463,1006.5,831.3912,1006.4681,831.3912,1006.6785,840.5171,1006.7391,849.6431,1007.0857,858.7691,1007.1711,867.895,1006.5,877.021,1006.7092,877.1076,1006.432,877.407,1006.3499,877.7872,1006.2769,878.1712,1005.6921,878.3432,1005.7678,878.7888,1005.8543,878.9977,1005.3764,878.8439,1005.1288,879.246,1004.644,879.0757,1004.3448,879.3535,1004,879.521,1004,880.2626,993.3333,879.4723,982.6667,879.6263,972,879.8596,961.3333,879.9372,950.6667,879.5171,940,879.521,940.0366,879.6094,939.5734,879.1983,939.3292,879.3157,939.0093,879.2505,938.6425,879.0721,938.2322,878.7888,938.421,878.867,937.937,878.3736,937.7385,877.9985,937.6015,877.6488,937.6283,877.367,937.5,877.021,937.3035,877.021,938.1814,867.895,937.3253,858.7691,937.1569,849.6431,937.7283,840.5171,937.5,831.3912,937.2946,831.3061,937.4866,830.9714,937.9927,830.7668,938.0735,830.3861,938.312,830.0706,938.2322,829.6234,938.1912,829.5243,938.6265,829.5752,939.0147,829.5123,939.2326,829.0386,939.6342,829.0081,940,828.8912" style="stroke:#181818;stroke-width:4.0;"/><text fill="#000000" font-family="Chalkduster" font-size="24" lengthAdjust="spacing" textLength="49" x="947.5" y="862.732">API</text></g><!--entity Obj2--><g id="elem_Obj2"><polygon fill="none" points="999,1129.3912,999,1129.6013,1009,1128.9768,1019,1129.5844,1029,1129.7908,1039,1128.6778,1049,1129.3134,1059,1128.9647,1069,1129.3912,1068.9511,1129.2731,1069.3449,1129.5166,1069.6189,1129.4711,1070.1313,1130.001,1070.3338,1129.7828,1070.7678,1130.1234,1070.7069,1130.0982,1071.0472,1130.532,1071.0342,1130.8196,1071.2281,1131.1928,1071.3437,1131.5335,1071.5,1131.8912,1071.6785,1131.8912,1071.7391,1141.0171,1072.0857,1150.1431,1072.1711,1159.2691,1072.1793,1168.395,1071.5,1177.521,1071.5784,1177.5535,1071.4963,1177.9337,1071.4234,1178.3177,1070.8386,1178.4897,1071.1232,1179.0218,1070.7678,1179.2888,1070.7299,1179.1975,1070.4823,1179.5996,1069.9975,1179.4292,1069.6984,1179.707,1069.4482,1180.1029,1069,1180.021,1069,1179.9723,1059,1180.1263,1049,1180.3596,1039,1180.4372,1029,1180.0171,1019,1180.3082,1009,1179.4486,999,1180.021,999.0363,1180.1086,998.7164,1180.0434,998.3496,1179.865,998.0175,1179.7704,997.5242,1179.2864,997.2322,1179.2888,997.0314,1179.2056,996.8944,1178.8559,996.9212,1178.5741,996.7324,1178.203,996.8563,1177.9615,996.5,1177.521,996.3253,1177.521,996.1569,1168.395,996.7283,1159.2691,995.8332,1150.1431,995.9809,1141.0171,996.5,1131.8912,996.6999,1131.9739,996.7806,1131.5932,997.0191,1131.2777,996.8402,1130.7895,997.1841,1130.5177,997.2322,1130.1234,997.3075,1130.3052,997.5255,1129.8315,997.9271,1129.801,998.309,1129.7229,998.7296,1129.7383,999,1129.3912" style="stroke:#181818;stroke-width:4.0;"/><text fill="#000000" font-family="Chalkduster" font-size="24" lengthAdjust="spacing" textLength="55" x="1006.5" y="1163.232">Obj2</text></g><!--entity v1--><g id="elem_v1"><polygon fill="#F1F1F1" points="1231.0442,1156.8371,1229.8715,1158.4394,1228.4845,1160.7862,1226.5008,1162.3678,1224.4163,1163.2327,1222.7542,1163.3078,1220.618,1162.2261,1218.6023,1161.5195,1217.0724,1160.0847,1216.2699,1158.4423,1215.7939,1157.1345,1215.3277,1155.4262,1214.5709,1153.9562,1215.1525,1152.521,1215.662,1150.9488,1217.574,1149.7053,1218.9192,1148.092,1220.5843,1147.5562,1222.5637,1147.0948,1225.1021,1147.369,1226.4924,1148.0246,1228.1089,1148.3218,1230.0743,1150.3355,1230.7595,1152.4613,1231.0571,1153.9118,1230.72,1156.302" style="stroke:#181818;stroke-width:0.5;"/><text fill="#000000" font-family="Chalkduster" font-size="24" lengthAdjust="spacing" textLength="30" x="1208" y="1195.732">v1</text></g><!--entity v2--><g id="elem_v2"><polygon fill="#F1F1F1" points="1142.0442,1156.8371,1140.8715,1158.4394,1139.4845,1160.7862,1137.5008,1162.3678,1135.4163,1163.2327,1133.7542,1163.3078,1131.618,1162.2261,1129.6023,1161.5195,1128.0724,1160.0847,1127.2699,1158.4423,1126.7939,1157.1345,1126.3277,1155.4262,1125.5709,1153.9562,1126.1525,1152.521,1126.662,1150.9488,1128.574,1149.7053,1129.9192,1148.092,1131.5843,1147.5562,1133.5637,1147.0948,1136.1021,1147.369,1137.4924,1148.0246,1139.1089,1148.3218,1141.0743,1150.3355,1141.7595,1152.4613,1142.0571,1153.9118,1141.72,1156.302" style="stroke:#181818;stroke-width:0.5;"/><text fill="#000000" font-family="Chalkduster" font-size="24" lengthAdjust="spacing" textLength="28" x="1120" y="1195.732">v2</text></g><!--entity Obj1aa--><g id="elem_Obj1aa"><polygon fill="none" points="1253.5,354.3912,1253.5,354.6013,1263.3889,353.9768,1273.2778,354.5844,1283.1667,354.7908,1293.0556,353.6778,1302.9444,354.3134,1312.8333,353.9647,1322.7222,354.0077,1332.6111,354.323,1342.5,354.3912,1342.4118,354.1782,1342.9242,354.7081,1343.1267,354.49,1343.5354,354.7696,1343.9693,355.11,1344.2678,355.1234,1344.2414,355.1125,1344.4352,355.4857,1344.5508,355.8264,1344.7621,356.2068,1344.9272,356.5681,1345,356.8912,1345.5857,356.8912,1345.6711,366.0171,1345.6793,375.1431,1345.2546,384.2691,1345.4636,393.395,1345,402.521,1345.2163,402.6106,1344.6315,402.7826,1344.9161,403.3147,1344.4693,403.5438,1344.5786,404.0033,1344.2678,404.2888,1344.2046,404.1363,1343.9055,404.4141,1343.6553,404.81,1343.2009,404.7131,1342.867,404.907,1342.5,405.021,1342.5,405.3596,1332.6111,405.4372,1322.7222,405.0171,1312.8333,405.3082,1302.9444,404.4486,1293.0556,405.3054,1283.1667,405.5692,1273.2778,405.4655,1263.3889,405.634,1253.5,405.021,1253.4384,404.8722,1253.0633,404.6737,1252.7136,404.5367,1252.4318,404.5635,1252.0607,404.3747,1251.7322,404.2888,1251.9421,404.3757,1251.532,403.9129,1251.3337,403.5379,1251.3632,403.2572,1250.9411,402.7895,1251,402.521,1250.4809,402.521,1251.649,393.395,1251.4357,384.2691,1251.7345,375.1431,1250.6782,366.0171,1251,356.8912,1251.0983,356.9319,1251.3283,356.6129,1251.1474,356.1238,1251.4098,355.8183,1251.6246,355.493,1251.7322,355.1234,1251.8154,355.3241,1252.0853,354.9757,1252.4983,354.973,1252.7223,354.5135,1253.0601,354.329,1253.5,354.3912" style="stroke:#181818;stroke-width:4.0;"/><text fill="#000000" font-family="Chalkduster" font-size="24" lengthAdjust="spacing" textLength="74" x="1261" y="388.232">Obj1a</text></g><!--entity Obj1a--><g id="elem_Obj1a"><polygon fill="none" points="971.5,354.3912,971.5,354.6013,981.3889,353.9768,991.2778,354.5844,1001.1667,354.7908,1011.0556,353.6778,1020.9444,354.3134,1030.8333,353.9647,1040.7222,354.0077,1050.6111,354.323,1060.5,354.3912,1060.4118,354.1782,1060.9242,354.7081,1061.1267,354.49,1061.5354,354.7696,1061.9693,355.11,1062.2678,355.1234,1062.2414,355.1125,1062.4352,355.4857,1062.5508,355.8264,1062.7621,356.2068,1062.9272,356.5681,1063,356.8912,1063.5857,356.8912,1063.6711,366.0171,1063.6793,375.1431,1063.2546,384.2691,1063.4636,393.395,1063,402.521,1063.2163,402.6106,1062.6315,402.7826,1062.9161,403.3147,1062.4693,403.5438,1062.5786,404.0033,1062.2678,404.2888,1062.2046,404.1363,1061.9055,404.4141,1061.6553,404.81,1061.2009,404.7131,1060.867,404.907,1060.5,405.021,1060.5,405.3596,1050.6111,405.4372,1040.7222,405.0171,1030.8333,405.3082,1020.9444,404.4486,1011.0556,405.3054,1001.1667,405.5692,991.2778,405.4655,981.3889,405.634,971.5,405.021,971.4384,404.8722,971.0633,404.6737,970.7136,404.5367,970.4318,404.5635,970.0607,404.3747,969.7322,404.2888,969.9421,404.3757,969.532,403.9129,969.3337,403.5379,969.3632,403.2572,968.9411,402.7895,969,402.521,968.4809,402.521,969.649,393.395,969.4357,384.2691,969.7345,375.1431,968.6782,366.0171,969,356.8912,969.0983,356.9319,969.3283,356.6129,969.1474,356.1238,969.4098,355.8183,969.6246,355.493,969.7322,355.1234,969.8154,355.3241,970.0853,354.9757,970.4983,354.973,970.7223,354.5135,971.0601,354.329,971.5,354.3912" style="stroke:#181818;stroke-width:4.0;"/><text fill="#000000" font-family="Chalkduster" font-size="24" lengthAdjust="spacing" textLength="74" x="979" y="388.232">Obj1a</text></g><!--entity i1a--><g id="elem_i1a"><path d="M730.5,359.8912 L730.5,359.8912 L730.5552,359.9665 L731.9693,358.5864 L733.707,357.648 L735.3394,356.5657 L736.6251,355.0104 L738.3906,354.1099 L738.3848,354.0759 L741.8305,353.3293 L745.3056,352.7544 L748.8011,352.2988 L752.2263,351.432 L755.75,351.1412 L755.7655,351.3867 L759.2043,350.6428 L762.6882,350.6159 L766.1777,350.6765 L769.6351,350.2281 L773.1094,350.0474 L773.11,350.0777 L774.6872,350.002 L776.2672,350.0642 L777.8459,350.0599 L779.427,350.1827 L781,349.8912 L781,349.8912 L781.0059,350.1893 L782.5841,350.2242 L784.1585,350.0668 L785.7385,350.1909 L787.3187,350.3282 L788.8906,350.0474 L788.8705,349.7275 L792.3815,350.5671 L795.8261,350.3534 L799.3212,350.9404 L802.7643,350.7028 L806.25,351.1412 L806.2449,351.1112 L809.7774,352.0598 L813.1901,352.3073 L816.6735,352.9685 L820.1629,353.6645 L823.6094,354.1099 L823.7187,354.2591 L825.1865,355.2648 L826.8411,356.5254 L828.1934,357.3734 L829.9966,358.8369 L831.5,359.8912 L831.9873,359.8912 L831.8951,367.8171 L832.0449,375.7431 L831.0706,383.6691 L830.9203,391.595 L831.5,399.521 L831.5,399.521 L831.3368,399.2982 L829.9064,400.6561 L828.2921,401.763 L826.9446,403.234 L825.1416,404.0834 L823.6094,405.3022 L823.5837,405.152 L820.1546,405.996 L816.6157,406.1976 L813.1549,406.8561 L809.7705,407.9615 L806.25,408.271 L806.2622,408.4642 L802.7987,408.8155 L799.2973,408.5658 L795.8433,409.0688 L792.379,409.4079 L788.8906,409.3647 L788.8865,409.1548 L787.3117,409.3534 L785.7355,409.4832 L784.162,409.7481 L782.5781,409.4879 L781,409.521 L781,409.521 L781.0041,409.7265 L779.417,409.2437 L777.8378,409.1576 L776.2701,409.651 L774.6812,409.0774 L773.1094,409.3647 L773.1236,409.5905 L769.6433,409.2376 L766.1581,408.8084 L762.6839,408.5516 L759.2347,408.6932 L755.75,408.271 L755.7276,408.1399 L752.3225,407.9365 L748.7648,406.8413 L745.3806,406.7602 L741.8988,406.1082 L738.3906,405.3022 L738.455,405.3901 L736.8249,404.1629 L735.4252,403.2502 L733.8174,402.0535 L732.1226,400.7379 L730.5,399.521 L730.7384,399.521 L730.3842,391.595 L731.1368,383.6691 L730.6377,375.7431 L730.6534,367.8171 L730.5,359.8912 " fill="none" style="stroke:#181818;stroke-width:4.0;"/><path d="M730.5,359.8912 L730.5,359.8912 L730.5552,359.9665 L731.9693,360.8989 L733.707,362.273 L735.3394,363.5032 L736.6251,364.2604 L738.3906,365.6724 L738.3848,365.6384 L741.8305,366.0793 L745.3056,366.6919 L748.8011,367.4238 L752.2263,367.7445 L755.75,368.6412 L755.7655,368.8867 L759.2043,368.5803 L762.6882,368.9909 L766.1777,369.489 L769.6351,369.4781 L773.1094,369.7349 L773.11,369.7652 L774.6872,369.752 L776.2672,369.8767 L777.8459,369.9349 L779.427,370.1202 L781,369.8912 L781,369.8912 L781.0059,370.1893 L782.5841,370.1617 L784.1585,369.9418 L785.7385,370.0034 L787.3187,370.0782 L788.8906,369.7349 L788.8705,369.415 L792.3815,369.8171 L795.8261,369.1659 L799.3212,369.3154 L802.7643,368.6403 L806.25,368.6412 L806.2449,368.6112 L809.7774,368.3723 L813.1901,367.4323 L816.6735,366.906 L820.1629,366.4145 L823.6094,365.6724 L823.7187,365.8216 L825.1865,364.5148 L826.8411,363.4629 L828.1934,361.9984 L829.9966,361.1494 L831.5,359.8912 " fill="none" style="stroke:#181818;stroke-width:4.0;"/><text fill="#000000" font-family="Chalkduster" font-size="24" lengthAdjust="spacing" textLength="81" x="740.5" y="397.732">Index</text></g><!--entity Repository Management Application (Oni)--><g id="elem_Repository Management Application (Oni)"><polygon fill="none" points="25.5,354.3912,25.5,354.6013,35.4492,353.9768,45.3983,354.5844,55.3475,354.7908,65.2966,353.6778,75.2458,354.3134,85.1949,353.9647,95.1441,354.0077,105.0932,354.323,115.0424,353.6998,124.9915,354.9448,134.9407,353.7609,144.8898,354.1934,154.839,354.8231,164.7881,354.3054,174.7373,354.4594,184.6864,354.3592,194.6356,354.5697,204.5847,354.6303,214.5339,354.9769,224.4831,355.0622,234.4322,355.0704,244.3814,354.6458,254.3305,354.8547,264.2797,355.0934,274.2288,353.67,284.178,355.0697,294.1271,354.0947,304.0763,354.925,314.0254,353.8961,323.9746,354.3227,333.9237,355.1328,343.8729,354.3424,353.822,354.4965,363.7712,354.7298,373.7203,354.8074,383.6695,354.3873,393.6186,354.6784,403.5678,353.8187,413.5169,354.6755,423.4661,354.9394,433.4153,354.8357,443.3644,355.0042,453.3136,353.9081,463.2627,353.739,473.2119,353.7698,483.161,354.3323,493.1102,354.1946,503.0593,355.0726,513.0085,354.2165,522.9576,354.0481,532.9068,354.6194,542.8559,353.7243,552.8051,353.872,562.7542,355.0401,572.7034,354.8268,582.6525,355.1257,592.6017,354.0694,602.5508,354.7104,612.5,354.3912,612.5753,354.573,612.7933,354.3921,613.1949,354.6545,613.5767,354.8693,613.9974,355.1777,614.2678,355.1234,614.2665,355.1229,614.5567,355.536,614.3901,355.7599,614.4985,356.0977,615.0086,356.6018,615,356.8912,614.2831,356.8912,615.509,366.0171,615.2066,375.1431,614.7321,384.2691,614.6462,393.395,615,402.521,615.1413,402.5795,614.7614,402.8364,614.8894,403.3036,614.3904,403.5111,614.6044,404.014,614.2678,404.2888,614.3295,404.4379,613.9455,404.5106,613.5667,404.5962,613.2998,404.9519,612.9318,405.0635,612.5,405.021,612.5,405.1902,602.5508,405.2892,592.6017,404.8907,582.6525,405.7374,572.7034,405.1759,562.7542,405.1936,552.8051,404.4126,542.8559,404.6158,532.9068,405.5517,522.9576,405.4508,513.0085,404.9781,503.0593,404.6988,493.1102,404.8021,483.161,404.3348,473.2119,405.4357,463.2627,405.7606,453.3136,405.5474,443.3644,405.7159,433.4153,404.8843,423.4661,405.1082,413.5169,404.6334,403.5678,405.305,393.6186,405.2678,383.6695,405.5734,373.7203,404.7913,363.7712,404.8866,353.822,405.4645,343.8729,405.5883,333.9237,404.5085,323.9746,404.8271,314.0254,405.1703,304.0763,404.4101,294.1271,405.3744,284.178,405.279,274.2288,404.9202,264.2797,405.1632,254.3305,405.7497,244.3814,404.7081,234.4322,405.336,224.4831,405.3066,214.5339,405.1368,204.5847,405.1619,194.6356,405.1345,184.6864,404.3968,174.7373,404.6202,164.7881,404.5595,154.839,405.0848,144.8898,405.1091,134.9407,405.1827,124.9915,404.73,115.0424,404.9535,105.0932,404.9008,95.1441,405.5978,85.1949,405.4476,75.2458,404.5355,65.2966,404.9481,55.3475,404.4438,45.3983,405.3094,35.4492,405.6295,25.5,405.021,25.5695,405.1887,25.0909,404.7404,24.8521,404.871,24.3446,404.3529,24.1113,404.4968,23.7322,404.2888,23.6401,404.2506,23.6156,403.9475,23.5134,403.6123,23.4383,403.2883,22.9247,402.7827,23,402.521,23.4755,402.521,23.1782,393.395,23.3553,384.2691,23.7478,375.1431,23.0055,366.0171,23,356.8912,23.054,356.9135,23.2122,356.5648,23.3536,356.2092,23.4391,355.8304,23.8047,355.5676,23.7322,355.1234,23.6545,354.9356,24.1579,355.151,24.3597,354.6383,24.724,354.5177,25.1516,354.5499,25.5,354.3912" style="stroke:#181818;stroke-width:4.0;"/><text fill="#000000" font-family="Chalkduster" font-size="24" lengthAdjust="spacing" textLength="572" x="33" y="388.232">Repository Management Application (Oni)</text></g><!--link p1a to stor1a--><g id="link_p1a_stor1a"><path d="M695.2494,259.4284 L695.3428,259.4317 L695.0746,259.1582 L695.3538,258.9038 L695.4547,258.6432 L694.9695,258.3621 L695.2957,258.1093 L695.2611,258.1081 L695.1255,257.5742 L695.1638,257.0467 L695.3231,256.5236 L695.0655,255.9853 L695.3918,255.4682 L695.6377,255.4784 L695.1991,253.3396 L695.4784,251.2303 L695.8452,249.1247 L695.7025,246.9981 L695.8278,244.8825 L695.8581,244.8841 L696.0414,240.6656 L696.3625,236.4546 L696.6172,232.24 L696.9988,228.0322 L696.9666,223.802 L697.264,223.8243 L697.5753,219.7122 L697.6947,215.5857 L698.0949,211.4803 L698.5083,207.3758 L698.5047,203.2402 L698.1858,203.2078 L699.2026,199.3573 L699.1693,195.4002 L699.9343,191.5242 L699.8772,187.5646 L700.4939,183.6735 L700.4637,183.6694 L701.3189,180.0995 L701.4693,176.4326 L702.0356,172.823 L702.6368,169.2182 L702.9861,165.5787 L703.1679,165.613 L703.5939,162.349 L704.3304,159.1438 L704.5644,155.8436 L705.5481,152.685 L706.0333,149.4322 L706.2687,149.4949 L706.955,146.7388 L707.7582,144.0138 L708.0182,141.1442 L708.6764,138.3805 L709.6873,135.7109 L709.4307,135.6086 L710.5255,133.5372 L711.3312,131.3506 L712.5562,129.3312 L713.0653,127.0264 L714,124.8912 L713.8761,124.8023 L715.4582,123.031 L716.5106,120.88 L717.9397,118.999 L719.7374,117.3822 L720.8788,115.2949 L720.9666,115.4675 L723.151,114.5051 L725.0624,113.0059 L727.3158,112.1791 L729.4947,111.2058 L731.5,109.8912 L731.4494,109.6874 L733.2888,109.4026 L735.1117,109.0511 L736.9672,108.8307 L738.696,108.1006 L740.4955,107.6552 L740.5244,107.8588 L743.1904,107.024 L745.9121,106.5821 L748.7154,106.7141 L751.3686,105.7895 L754.1429,105.7174 L754.1638,105.9426 L757.6783,105.4809 L761.1857,104.943 L764.709,104.577 L768.2694,104.6087 L771.7774,104.0777 L771.7689,103.945 L775.9857,104.0719 L780.1446,103.2959 L784.3693,103.5466 L788.557,103.2193 L792.7347,102.7362 L792.7395,102.8449 L797.4587,102.5484 L802.1951,102.6414 L806.916,102.3825 L811.6304,101.9766 L816.3501,101.6927 L816.3536,101.8119 L821.4702,101.4858 L826.603,101.7129 L831.7176,101.3143 L836.8396,101.1731 L841.9592,100.9474 L841.9547,100.6771 L847.3438,100.6779 L852.7384,101.0044 L858.1252,100.8701 L863.5094,100.5706 L868.8973,100.5002 L868.8965,100.357 L874.4173,100.3731 L879.9367,100.1356 L885.4599,100.5951 L890.9812,100.7097 L896.5,100.3512 L896.5013,100.5851 L902.0222,100.6898 L907.5407,100.35 L913.0618,100.4794 L918.5812,100.2981 L924.1027,100.5002 L924.1048,100.6264 L929.4921,100.6993 L934.882,100.9246 L940.2639,100.6665 L945.6522,100.7982 L951.0408,100.9474 L951.0466,101.1444 L956.17,101.3485 L961.2778,101.0178 L966.4037,101.3085 L971.53,101.61 L976.6499,101.6927 L976.6379,101.4215 L981.3799,102.0583 L986.1011,102.2246 L990.8172,102.274 L995.545,102.5906 L1000.2653,102.7362 L1000.286,103.0594 L1004.4479,102.8657 L1008.6572,103.4125 L1012.8478,103.6678 L1017.0344,103.8608 L1021.2226,104.0777 L1021.2284,104.1401 L1024.7542,104.4559 L1028.2507,104.4574 L1031.7868,104.8842 L1035.3112,105.1852 L1038.8571,105.7174 L1038.8611,105.7455 L1041.5921,106.1438 L1044.3262,106.5637 L1047.0274,106.7521 L1049.7708,107.238 L1052.5045,107.6552 L1052.4916,107.6034 L1054.3654,108.3512 L1056.1484,108.7336 L1057.8497,108.7874 L1059.6931,109.4125 L1061.5,109.8912 L1061.3999,109.655 L1063.7591,110.9456 L1066.0237,112.013 L1068.2217,112.9233 L1070.2608,113.4587 L1072.5454,114.5734 L1072.6429,114.755 L1074.4713,115.4007 L1076.7517,116.8881 L1078.7287,117.8107 L1080.8941,119.0839 L1082.9559,120.1642 L1083.0145,120.2535 L1085.0299,121.6261 L1086.698,122.4699 L1088.9485,124.2005 L1090.8348,125.3766 L1092.7502,126.5969 L1092.8477,126.7212 L1094.7946,128.3001 L1096.4305,129.482 L1098.3165,130.983 L1100.1663,132.4379 L1101.9472,133.8048 L1102.0065,133.8693 L1103.6706,135.3877 L1105.6082,137.2039 L1106.9348,138.3549 L1109.0118,140.3227 L1110.5655,141.721 L1110.3636,141.5308 L1112.0023,143.2679 L1113.8017,145.1563 L1115.4096,146.8642 L1116.8527,148.417 L1118.6238,150.2787 L1118.7658,150.3956 L1120.1646,152.136 L1121.88,154.137 L1123.363,155.9467 L1124.4837,157.4582 L1126.1409,159.4113 L1125.9978,159.3074 L1127.4934,161.3057 L1129.0667,163.3604 L1130.4827,165.3009 L1131.845,167.2024 L1133.1356,169.0519 L1133.0078,168.9697 L1134.6716,171.2214 L1135.9688,173.2372 L1137.0125,175.0897 L1138.239,177.06 L1139.6266,179.1339 L1139.4719,179.045 L1140.7451,181.1776 L1142.0819,183.3469 L1143.2038,185.3926 L1144.2703,187.4065 L1145.6325,189.5903 L1145.8251,189.6894 L1146.5591,191.6498 L1148.0469,193.9981 L1149.1252,196.1357 L1150.2112,198.2773 L1151.1722,200.3545 L1151.4515,200.4837 L1152.0915,202.5096 L1153.0878,204.7004 L1154.4368,207.0544 L1155.0052,209.0472 L1156.2644,211.3597 L1156.1684,211.3196 L1157.2444,213.6153 L1158.1579,215.8432 L1158.9154,218.006 L1159.9774,220.2958 L1160.9278,222.5391 L1161.2374,222.6557 L1162.0481,224.8981 L1162.3811,226.9603 L1163.5124,229.3235 L1164.1167,231.488 L1165.1811,233.8259 L1165.17,233.8221 L1166.0767,236.1334 L1166.9025,238.4171 L1167.2186,240.5271 L1168.4392,242.9454 L1169.0431,245.1534 L1169.0466,245.1545 L1169.5051,247.3409 L1170.2388,249.6123 L1171.2754,251.9771 L1171.9407,254.2274 L1172.5325,256.4549 L1172.5255,256.4529 L1172.8719,258.6162 L1174.0684,261.0172 L1174.2804,263.1427 L1174.8149,265.3586 L1175.6681,267.6635 L1175.6391,267.6562 L1176.4822,269.9377 L1177.0534,272.1503 L1177.3635,274.2968 L1177.8433,276.4862 L1178.4685,278.7126 L1178.5421,278.7294 L1179.046,280.8956 L1179.2422,282.9911 L1180.1383,285.2473 L1180.6979,287.4262 L1180.9526,289.5352 L1180.8588,289.5152 L1180.9919,290.5566 L1181.6976,291.7198 L1181.6393,292.7205 L1181.856,293.7796 L1182.0819,294.8408 L1182.2121,294.8674 L1181.9082,295.3077 L1182.5276,295.9371 L1182.3976,296.413 L1182.803,296.9986 L1182.6193,297.4635 L1182.5253,297.4445 L1182.85,297.76 L1182.5307,297.9459 L1182.8833,298.2669 L1182.9942,298.5394 L1182.8814,298.7668 " fill="none" style="stroke:#8B0000;stroke-width:4.0;"/><polygon fill="#8B0000" points="1182.8814,298.7668,1182.9498,298.7822,1183.1785,296.8147,1183.8079,294.9372,1184.3069,293.0305,1184.3767,291.0273,1185.0406,289.1576,1185.019,289.1432,1184.2946,290.0199,1183.6787,290.9691,1183.1384,291.9687,1182.3378,292.7946,1181.9018,293.8637,1182.0042,294.0173,1180.844,293.0612,1179.9827,292.5534,1179.158,292.1002,1178.121,291.3289,1177.1956,290.7249,1177.2142,290.7381,1178.3241,292.3272,1179.5185,293.976,1180.6722,295.5961,1181.9037,297.2711,1182.8814,298.7668" style="stroke:#8B0000;stroke-width:4.0;"/></g><!--reverse link Obj1aa to api1--><g id="link_Obj1aa_api1"><path d="M1288.75,411.8012 L1288.836,411.8376 L1287.1981,414.9918 L1286.0645,418.3596 L1284.7666,421.6579 L1282.9288,424.7273 L1281.8384,428.1135 L1281.8081,428.097 L1279.8437,431.3857 L1278.0323,434.7577 L1276.3273,438.1874 L1274.2557,441.4179 L1272.6975,444.9274 L1272.896,445.0728 L1270.1611,447.9166 L1268.0057,451.1848 L1265.9211,454.5048 L1263.425,457.5235 L1261.1453,460.7007 L1261.166,460.7229 L1258.3066,463.3284 L1255.5413,466.0349 L1252.7306,468.6927 L1250.0066,471.4434 L1247,473.8912 L1247.1674,474.138 L1244.7826,475.7598 L1242.2898,477.2224 L1239.955,478.918 L1237.6277,480.6246 L1235.0657,481.9851 L1234.9069,481.7066 L1232.836,483.6035 L1230.2424,484.5836 L1228.0462,486.2607 L1225.4407,487.22 L1223.1707,488.7676 L1223.1578,488.74 L1220.9402,490.1788 L1218.4203,490.9736 L1216.0789,492.1484 L1213.7523,493.3551 L1211.3178,494.3317 L1211.3829,494.5049 L1208.9556,495.2179 L1206.6395,496.2268 L1204.1434,496.7569 L1201.9158,498.0011 L1199.5097,498.7706 L1199.5775,499.0046 L1197.2125,499.6416 L1194.8812,500.3949 L1192.3936,500.6082 L1190.0205,501.2174 L1187.749,502.1771 L1187.6921,501.9068 L1185.4015,502.6449 L1183.0468,503.0785 L1180.7852,503.9538 L1178.3646,504.0749 L1176.0385,504.6443 L1176.0175,504.4933 L1173.721,505.069 L1171.3346,504.9992 L1169.0121,505.3884 L1166.7521,506.2268 L1164.3809,506.2654 L1164.3953,506.4585 L1162.0848,506.7645 L1159.7293,506.4699 L1157.4302,506.9275 L1155.1187,507.2213 L1152.7788,507.1332 L1152.775,506.9233 L1150.4692,507.1321 L1148.1622,507.2722 L1145.8576,507.5474 L1143.5436,507.2975 L1141.2349,507.3409 L1141.2413,507.5463 L1138.9306,507.023 L1136.6323,506.8962 L1134.3521,507.3489 L1132.0386,506.7348 L1129.752,506.9814 L1129.7684,507.207 L1127.4748,506.9063 L1125.1756,506.5292 L1122.8889,506.3245 L1120.6314,506.5179 L1118.3327,506.1479 L1118.3185,506.0156 L1116.09,506.1665 L1113.7653,505.4177 L1111.5501,505.6919 L1109.2732,505.3902 L1106.9797,504.9333 L1106.9941,505.0412 L1104.7257,504.6535 L1102.5087,504.6523 L1100.2453,504.302 L1097.9625,503.8057 L1095.6957,503.4306 L1095.7136,503.5485 L1093.4446,503.0338 L1091.2585,503.0664 L1088.9787,502.4801 L1086.7374,502.1484 L1084.4835,501.733 L1084.4401,501.4661 L1080.0149,500.8336 L1075.642,500.5226 L1071.195,499.7567 L1066.7216,498.8277 L1062.285,498.1249 L1062.2628,497.9835 L1060.0737,497.6839 L1057.8453,497.1339 L1055.7251,497.2724 L1053.5513,497.0701 L1051.3041,496.4005 L1051.337,496.6321 L1049.1678,496.3969 L1046.9362,495.7215 L1044.7705,495.5106 L1042.5612,494.9922 L1040.4057,494.8533 L1040.4205,494.9786 L1038.2559,494.7068 L1036.1092,494.5863 L1033.9058,493.9857 L1031.7481,493.7723 L1029.5925,493.5762 L1029.6092,493.7726 L1027.4688,493.6447 L1025.283,492.9837 L1023.15,492.942 L1021.0179,492.9112 L1018.8672,492.6624 L1018.8555,492.3911 L1016.747,492.7277 L1014.6182,492.5939 L1012.4844,492.343 L1010.3621,492.3594 L1008.2325,492.2047 L1008.2353,492.5286 L1006.123,492.084 L1004.0171,492.3814 L1001.9087,492.3867 L999.7998,492.3295 L997.691,492.2964 L997.6954,492.3589 L995.6055,492.4935 L993.4934,492.3133 L991.4112,492.5591 L989.3203,492.679 L987.2455,493.0304 L987.2495,493.0585 L985.1817,493.3631 L983.1169,493.6893 L981.0193,493.784 L978.9639,494.1762 L976.8988,494.4998 L976.8871,494.4476 L974.9058,495.2095 L972.8421,495.6038 L970.7043,495.6678 L968.6953,496.3063 L966.6533,496.7975 L966.5757,496.553 L964.6638,497.5635 L962.6786,498.3429 L960.6417,498.9597 L958.4817,499.1883 L956.512,500.0166 L956.5921,500.2066 L954.3767,500.5592 L952.5327,501.792 L950.4395,502.4342 L948.501,503.4431 L946.4773,504.2502 L946.528,504.3443 L944.5917,505.5032 L942.3557,506.1049 L940.6224,507.641 L938.5747,508.5928 L936.5522,509.5913 L936.6398,509.7227 L934.7739,511.1762 L932.6283,512.21 L930.7076,513.5811 L928.7544,514.9035 L926.7392,516.1329 L926.7943,516.2011 L924.7993,517.6996 L923.0584,519.5127 L920.75,520.6232 L919.1385,522.5964 L917.041,523.9681 L916.8487,523.7682 L914.9584,525.6394 L913.2211,527.6696 L911.3014,529.5102 L909.2246,531.1876 L907.4604,533.1898 L907.5982,533.3116 L905.6046,535.3621 L903.9182,537.6842 L902.0063,539.807 L899.7428,541.6189 L898,543.8912 L897.8584,543.7852 L896.7247,545.4993 L895.6678,547.2709 L894.4553,548.9261 L893.1897,550.5415 L891.8532,552.1038 L891.7239,552.0238 L891.0399,553.9555 L889.9851,555.6578 L888.6739,557.2014 L887.5477,558.8594 L886.5842,560.6182 L886.4217,560.5448 L884.887,564.1453 L883.4192,567.7759 L881.7254,571.3045 L879.9736,574.8069 L878.5324,578.4495 L878.7418,578.5052 L877.3386,582.143 L876.7548,585.9987 L875.7258,589.736 L874.7053,593.4755 L873.5489,597.1789 L873.8547,597.2137 L872.9982,601.0508 L872.5318,604.9322 L872.4516,608.8577 L871.5167,612.6858 L871.3381,616.6001 L871.2341,616.5987 L871.4427,620.5821 L871.4752,624.5632 L871.3386,628.5421 L871.5321,632.5253 L871.6044,636.5069 L871.9338,636.5387 L872.0853,638.5488 L871.7285,640.51 L872.221,642.553 L872.1529,644.542 L872.5741,646.5781 L872.5626,646.5764 L872.9986,648.62 L873.35,650.6512 L873.1687,652.6045 L873.9328,654.696 L874.0523,656.6933 L874.0559,656.694 L874.1998,658.6734 L874.6265,660.7072 L875.3646,662.8009 L875.721,664.8212 L876.0019,666.8269 L875.9947,666.8252 L876.1879,668.7837 L877.2402,670.9444 L877.2974,672.8708 L877.6807,674.874 L878.386,676.953 L878.3571,676.9451 L879.195,679.0413 L879.7624,681.0629 L880.0701,683.0129 L880.5466,685.0095 L881.1677,687.046 L881.2397,687.0685 L881.8751,689.0775 L882.2092,690.9921 L883.2286,693.1213 L883.9185,695.1473 L884.31,697.0799 L884.2194,697.0484 L884.8231,699.007 L885.9795,701.1582 L886.3984,703.0525 L887.0827,705.0392 L887.776,707.0291 L887.9002,707.0765 L888.2584,708.8946 L889.4972,711.0485 L890.0212,712.9298 L891.0559,715.006 L891.5287,716.8678 L891.44,716.8312 L892.4972,718.8775 L892.9473,720.6734 L894.0309,722.7307 L894.8865,724.6939 L895.5312,726.5701 L895.3981,726.5113 L896.5218,728.5434 L896.985,730.2836 L897.8691,732.2098 L899.181,734.325 L899.7465,736.1104 L900.0218,736.2397 L900.8534,738.0883 L901.358,739.7833 L902.5358,741.7944 L903.0695,743.5032 L904.1377,745.4628 L904.1608,745.4743 L905.0432,747.2904 L905.8452,749.0666 L907.101,751.0677 L907.9382,752.8614 L908.6677,754.6017 L908.5419,754.5347 L910.7402,758.2183 L912.4354,761.6343 L914.0362,765.0001 L916.0395,768.5799 L917.9969,772.1354 L917.7946,772.0187 L919.8316,775.3785 L921.5313,778.5437 L923.4307,781.8241 L925.5771,785.247 L927.4383,788.5054 L927.3927,788.4773 L929.2677,791.4917 L931.0873,794.472 L933.0564,797.5445 L934.6348,800.3758 L936.6963,803.5054 L936.7559,803.5444 L938.1757,806.0095 L940.3181,808.947 L942.1843,811.704 L943.9138,814.3716 L945.4754,816.9294 L945.6078,817.0204 L947.1467,819.3062 L948.716,821.6127 L950.0438,823.7533 L952.0426,826.3553 L953.48,828.5712 " fill="none" style="stroke:#8B0000;stroke-width:4.0;"/><polygon fill="#8B0000" points="1290.39,407.2612,1290.4405,407.3097,1288.9259,408.5861,1287.7074,410.1469,1286.3924,411.6152,1284.7603,412.7787,1283.5673,414.364,1283.5563,414.3405,1284.5313,413.7551,1285.5618,413.2879,1286.6309,412.9029,1287.5671,412.2346,1288.6893,411.963,1288.8564,412.0414,1288.9793,412.8983,1289.59,413.9839,1290.2603,415.0974,1290.5842,416.0485,1291.0903,417.0851,1291.113,417.0867,1290.9396,415.1195,1290.8695,413.1598,1290.7496,411.1964,1290.7248,409.2398,1290.39,407.2612" style="stroke:#8B0000;stroke-width:4.0;"/><text fill="#000000" font-family="Chalkduster" font-size="24" lengthAdjust="spacing" textLength="497" x="899" y="584.232">Checked out for editing / approval</text></g><!--link Obj1aa to api1--><g id="link_Obj1aa_api1"><path d="M1324.88,405.7412 L1324.9468,405.8065 L1326.4104,407.3102 L1328.2655,409.1969 L1329.993,410.9589 L1331.3016,412.3107 L1333.1902,414.2303 L1333.1649,414.2067 L1334.8186,415.9966 L1336.5997,417.9052 L1338.4692,419.8963 L1340.0337,421.6029 L1342.0255,423.708 L1342.2101,423.8708 L1343.6448,425.5969 L1345.6182,427.7983 L1347.6574,430.0576 L1349.3142,431.9796 L1351.172,434.0791 L1351.1954,434.0984 L1353.0098,436.3039 L1354.9306,438.5974 L1356.8001,440.8484 L1358.7674,443.1805 L1360.4156,445.2483 L1360.6521,445.4301 L1362.4803,447.8068 L1364.156,450.0662 L1366.055,452.4973 L1367.9644,454.9364 L1369.5423,457.1206 L1369.2803,456.936 L1371.5479,459.7904 L1372.9528,462.0368 L1375.0136,464.7454 L1376.3989,466.978 L1378.3379,469.6007 L1378.3122,469.5844 L1380.2663,472.376 L1381.6198,474.7862 L1383.3278,477.4215 L1385.0654,480.0756 L1386.5885,482.5935 L1386.75,482.6837 L1388.0853,485.2747 L1389.6965,488.0198 L1390.8613,490.5155 L1392.692,493.3833 L1394.08,496.0037 L1394.3001,496.1081 L1395.5622,498.8349 L1396.9335,501.6135 L1397.7971,504.1511 L1399.0329,506.8653 L1400.5984,509.7361 L1400.3404,509.6376 L1401.6402,512.5187 L1402.6493,515.2888 L1404.08,518.2199 L1404.7908,520.876 L1405.9296,523.6957 L1405.7827,523.6547 L1406.8133,526.5412 L1407.2161,529.2526 L1408.0654,532.0885 L1409.3514,535.0463 L1409.8596,537.7871 L1410.0507,537.8184 L1410.6447,540.6655 L1410.6444,543.4152 L1411.3885,546.2869 L1411.9704,549.132 L1412.1744,551.9152 L1411.9645,551.908 L1412.2289,554.7277 L1412.4245,557.545 L1412.7551,560.367 L1412.5609,563.1709 L1412.6598,565.9849 L1412.8641,566.0078 L1412.1037,568.7407 L1411.7375,571.5178 L1411.9475,574.3594 L1411.0969,577.0822 L1411.102,579.9009 L1411.3198,579.9617 L1410.4274,582.659 L1409.4612,585.3357 L1408.6614,588.0589 L1408.2461,590.8894 L1407.2867,593.568 L1407.1664,593.5113 L1406.2672,596.3449 L1404.5498,598.7925 L1403.7628,601.679 L1402.452,604.3184 L1401,606.8912 L1401.0927,606.9482 L1399.336,609.6351 L1397.9114,612.5263 L1396.1867,615.2329 L1394.3367,617.8624 L1392.5908,620.5559 L1392.6889,620.6236 L1390.722,623.1619 L1389.2105,626.0145 L1387.1839,628.5115 L1385.3692,631.1549 L1383.4849,633.7502 L1383.2703,633.5857 L1381.3906,636.1867 L1379.7694,638.9859 L1377.7824,641.5047 L1375.6642,643.923 L1373.728,646.4808 L1373.6186,646.3884 L1371.5812,648.8727 L1369.3501,651.1935 L1367.6515,653.9639 L1365.6894,656.5118 L1363.3658,658.7545 L1363.5377,658.9132 L1361.4083,661.3287 L1358.9524,663.4426 L1356.8412,665.8749 L1354.5018,668.0964 L1352.444,670.578 L1352.533,670.6675 L1350.2342,672.9317 L1348.0428,675.304 L1345.5105,677.3337 L1343.2532,679.6397 L1341.0082,681.9581 L1341.1416,682.1032 L1338.7981,684.3324 L1336.0924,686.1678 L1333.8075,688.4607 L1331.5299,690.7617 L1329.1042,692.9015 L1328.928,692.695 L1326.7408,695.1237 L1324.248,697.1942 L1321.6792,699.1756 L1319.284,701.3605 L1316.7777,703.4151 L1316.9791,703.6687 L1314.1505,705.3243 L1311.7834,707.5608 L1309.2346,709.5687 L1306.6469,711.5277 L1304.0742,713.5055 L1304.1116,713.5558 L1301.4974,715.4808 L1298.6951,717.1523 L1296.1473,719.1668 L1293.5243,721.0799 L1291.0397,723.1795 L1291.0559,723.2027 L1288.398,725.0645 L1285.7527,726.9442 L1282.9738,728.6319 L1280.3665,730.5663 L1277.7196,732.4438 L1277.6904,732.3991 L1275.1479,734.4307 L1272.3994,736.1471 L1269.4656,737.5801 L1266.854,739.5059 L1264.1597,741.3053 L1264.0253,741.0868 L1261.4761,743.1075 L1258.7999,744.9217 L1256.0342,746.5906 L1253.0551,747.9127 L1250.4058,749.7706 L1250.5094,749.9489 L1247.4595,751.1003 L1244.8895,753.0779 L1241.9976,754.5012 L1239.3055,756.2686 L1236.5034,757.8466 L1236.5549,757.9402 L1233.8034,759.5692 L1230.7474,760.6435 L1228.2021,762.6478 L1225.3375,764.0707 L1222.4984,765.5399 L1222.5713,765.68 L1219.8394,767.2983 L1216.8746,768.4691 L1214.0971,769.9995 L1211.2925,771.4781 L1208.4363,772.8574 L1208.4751,772.936 L1205.6214,774.2468 L1202.9467,775.92 L1199.8722,776.7834 L1197.2887,778.6414 L1194.3628,779.8058 L1194.245,779.5547 L1191.453,780.9056 L1188.7547,782.4563 L1185.9447,783.7688 L1183.0385,784.8763 L1180.3237,786.3918 L1180.3987,786.5597 L1177.5516,787.682 L1174.8717,789.1789 L1172.0691,790.4008 L1169.0753,791.1942 L1166.3647,792.6222 L1166.2955,792.4594 L1163.5755,793.7457 L1160.8932,795.1202 L1158.1348,796.316 L1155.3504,797.4506 L1152.5313,798.5038 L1152.4742,798.3629 L1149.9052,799.8738 L1147.1724,800.9806 L1144.3263,801.808 L1141.5619,802.8369 L1138.8695,804.0432 L1138.8051,803.8769 L1136.1461,804.9951 L1133.5136,806.1818 L1130.7916,807.1374 L1128.0466,808.0334 L1125.4247,809.2474 L1125.4998,809.4505 L1122.7175,810.0312 L1120.2293,811.407 L1117.5814,812.3508 L1114.9364,813.3028 L1112.2427,814.1229 L1112.3453,814.4131 L1109.6316,814.9306 L1107.0487,815.8184 L1104.5955,817.0726 L1101.8554,817.5158 L1099.3692,818.6766 L1099.3359,818.5781 L1096.8818,819.573 L1094.3713,820.401 L1091.8066,821.0689 L1089.3477,822.0495 L1086.8499,822.9153 L1086.952,823.2301 L1084.5149,823.9755 L1081.9204,824.2353 L1079.589,825.3067 L1077.0839,825.8423 L1074.7305,826.8456 L1074.7271,826.8344 L1070.1972,828.3627 L1065.6423,829.8092 L1060.9305,830.7406 L1056.4972,832.5861 L1051.874,833.8083 L1051.8751,833.8119 L1047.6656,834.7328 L1043.534,835.931 L1039.4881,837.4344 L1035.3371,838.5637 L1031.1654,839.6188 L1031.1635,839.6118 L1027.4514,840.2721 L1023.9606,841.7869 L1020.2134,842.3121 L1016.5502,843.1615 L1012.97,844.3312 " fill="none" style="stroke:#8B0000;stroke-width:4.0;"/><polygon fill="#8B0000" points="1008.2,845.5012,1008.2125,845.5701,1010.1138,845.7156,1012.0882,846.2652,1014.0388,846.6832,1015.9112,846.6684,1017.8919,847.2527,1017.8784,847.2305,1016.8511,846.5437,1015.8917,845.9685,1014.9794,845.4709,1013.9046,844.7059,1013.0574,844.3154,1013.2151,844.4112,1013.4653,843.2394,1014.1759,842.3474,1014.9428,841.4895,1015.3827,840.4329,1015.9946,839.4809,1016.0085,839.4989,1014.4292,840.6765,1012.9132,841.9361,1011.3666,843.1561,1009.8783,844.4516,1008.2,845.5012" style="stroke:#8B0000;stroke-width:4.0;"/><text fill="#000000" font-family="Chalkduster" font-size="24" lengthAdjust="spacing" textLength="298" x="1413" y="568.732">Check in new version</text><text fill="#000000" font-family="Chalkduster" font-size="24" lengthAdjust="spacing" textLength="190" x="1467" y="599.3619">or new object</text></g><!--link CO to stor1a--><g id="link_CO_stor1a"><path d="M901.697,264.0276 L901.7895,264.0408 L901.5464,263.779 L901.8456,263.5946 L901.9681,263.385 L901.5102,263.0925 L901.8558,262.9147 L901.8216,262.9097 L901.7346,262.4415 L901.8197,261.9989 L902.0246,261.5741 L901.8169,261.0879 L902.187,260.6877 L902.4296,260.7289 L902.2134,258.858 L902.7054,257.1073 L903.2839,255.3712 L903.3596,253.5498 L903.6997,251.7733 L903.7293,251.78 L904.4856,248.2252 L905.3767,244.7008 L906.2028,241.1618 L907.1528,237.6507 L907.6987,234.0484 L907.9832,234.1379 L909.0761,230.6767 L909.9854,227.1577 L911.1634,223.7233 L912.354,220.2928 L913.1456,216.7368 L912.8508,216.6109 L914.8378,213.5415 L915.8541,210.0577 L917.6083,206.8889 L918.6026,203.3957 L920.2198,200.1684 L920.1934,200.1532 L922.2819,197.2332 L923.7533,193.9595 L925.5889,190.8944 L927.455,187.8469 L929.1006,184.673 L929.2471,184.786 L931.2726,181.8535 L933.5485,179.114 L935.4193,176.0623 L937.8943,173.4763 L939.9676,170.5807 L940.1352,170.7575 L942.71,168.2521 L945.368,165.8346 L947.6393,163.0092 L950.1941,160.4827 L953,158.2212 L952.841,157.9954 L956.1827,155.9473 L959.3452,153.6448 L962.7676,151.7113 L965.7463,149.1477 L968.9887,146.9587 L968.921,146.8221 L972.113,145.5235 L975.0155,143.6409 L978.1238,142.1737 L981.4336,141.1127 L984.3847,139.3282 L984.4367,139.5147 L987.4856,138.8015 L990.3724,137.5082 L993.4621,136.9415 L996.5076,136.2165 L999.4502,135.1226 L999.4364,134.9131 L1002.4469,134.8826 L1005.4528,134.7834 L1008.4676,134.819 L1011.4479,134.3306 L1014.4475,134.1349 L1014.4746,134.3387 L1017.4533,134.2956 L1020.4843,134.6458 L1023.5919,135.5706 L1026.5585,135.4375 L1029.6389,136.158 L1029.7055,136.3741 L1032.7955,137.2111 L1035.8628,137.9749 L1038.9811,138.9038 L1042.2171,140.2142 L1045.2866,140.9848 L1045.2316,140.8636 L1048.6685,142.709 L1051.7316,143.7304 L1055.2197,145.6887 L1058.4685,147.1195 L1061.6529,148.4082 L1061.7065,148.5029 L1065.1326,150.389 L1068.7507,152.6144 L1072.1954,154.5333 L1075.5676,156.324 L1079,158.2212 L1079.0689,158.3185 L1082.214,160.4719 L1085.6788,163.077 L1088.7821,165.1712 L1092.0341,167.4756 L1095.2373,169.711 L1095.0547,169.5115 L1098.0524,172.2657 L1101.27,175.2602 L1104.1765,177.9146 L1106.9714,180.4472 L1109.921,183.1489 L1109.8159,183.0517 L1111.206,184.5508 L1112.4098,185.8778 L1114.1256,187.6778 L1115.588,189.2437 L1116.703,190.4886 L1116.8826,190.6384 L1118.2243,192.2254 L1119.2246,193.5276 L1120.5852,195.1304 L1121.7073,196.5342 L1123.1237,198.1836 L1123.2243,198.2598 L1124.4248,199.8511 L1125.7468,201.5345 L1126.6835,202.9258 L1127.9309,204.5526 L1129.1922,206.19 L1129.3543,206.3022 L1130.5447,207.9883 L1131.2951,209.37 L1132.5566,211.1054 L1133.8271,212.8469 L1134.9177,214.464 L1134.6884,214.3185 L1136.1285,216.2476 L1137.171,217.9244 L1138.1146,219.5385 L1139.2841,221.2959 L1140.309,222.9616 L1140.5887,223.1248 L1141.2021,224.6269 L1142.4564,226.5031 L1143.4584,228.2319 L1144.4064,229.9293 L1145.3753,231.6389 L1145.4308,231.6677 L1147.2587,235.2057 L1148.8065,238.5984 L1150.7333,242.1877 L1152.5481,245.7189 L1154.5689,249.3571 L1154.5948,249.3686 L1156.2051,252.9551 L1157.8353,256.5505 L1159.252,260.0505 L1160.9431,263.6731 L1162.5709,267.2674 L1162.5211,267.2481 L1164.1865,270.9103 L1165.5008,274.4364 L1166.4994,277.8401 L1168.047,281.4567 L1169.4538,285.0187 L1169.2107,284.9364 L1170.7424,288.508 L1172.0443,292.0018 L1173.1846,295.4409 L1173.9392,298.7494 L1175.2897,302.2597 L1175.4874,302.3184 L1175.9456,305.4417 L1177.3196,308.8369 L1178.0791,312.0496 L1179.2202,315.3756 L1180.1513,318.6393 L1180.2544,318.6671 L1180.7715,320.2453 L1180.6775,321.659 L1181.6081,323.3485 L1181.8981,324.8655 L1182.2392,326.3964 L1182.3921,326.4359 L1182.6586,326.8569 L1182.4367,327.1517 L1182.6073,327.5479 L1182.7213,327.9295 L1182.727,328.2831 L1182.812,328.3048 L1182.7745,328.47 L1183.1286,328.7353 L1182.6078,328.777 L1183.1616,329.0933 L1182.9659,329.2181 " fill="none" style="stroke:#8B0000;stroke-width:4.0;"/><polygon fill="#8B0000" points="1182.9659,329.2181,1183.035,329.2299,1183.1612,327.2532,1183.6922,325.3456,1184.0915,323.4155,1184.0571,321.4114,1184.623,319.5097,1184.6007,319.4964,1183.9227,320.4096,1183.357,321.3895,1182.8694,322.4158,1182.1128,323.2822,1181.7329,324.3726,1181.8272,324.5312,1180.653,323.6139,1179.7541,323.1599,1178.8887,322.7623,1177.828,322.0359,1176.87,321.4825,1176.8879,321.4966,1178.0808,323.023,1179.3551,324.6136,1180.5902,326.1732,1181.9001,327.7918,1182.9659,329.2181" style="stroke:#8B0000;stroke-width:4.0;"/><text fill="#000000" font-family="Chalkduster" font-size="24" lengthAdjust="spacing" textLength="71" x="1121.5" y="109.732">Draft</text></g><!--link stor1a to CO--><g id="link_stor1a_CO"><path d="M1182.9659,329.2181 L1183.0564,329.2413 L1182.7397,328.9856 L1182.9536,328.8654 L1182.9947,328.7011 L1182.4676,328.3916 L1182.727,328.2831 L1182.6936,328.2745 L1182.446,327.8583 L1182.3669,327.4857 L1182.405,327.1435 L1182.0393,326.6968 L1182.2392,326.3964 L1182.4768,326.4603 L1181.5511,324.7721 L1181.3192,323.2707 L1181.1718,321.792 L1180.532,320.1808 L1180.1513,318.6393 L1180.1803,318.648 L1179.1654,315.3594 L1178.2827,312.1101 L1177.3362,308.8418 L1176.5116,305.6097 L1175.2897,302.2597 L1175.5722,302.3553 L1174.4085,298.9083 L1173.0625,295.3996 L1171.9833,291.9811 L1170.9166,288.5669 L1169.4538,285.0187 L1169.1549,284.9028 L1168.3584,281.5774 L1166.5778,277.8705 L1165.5453,274.4537 L1163.7424,270.7381 L1162.5709,267.2674 L1162.5431,267.255 L1161.2715,263.8198 L1159.3503,260.0944 L1157.8124,256.5403 L1156.3067,253.0005 L1154.5689,249.3571 L1154.7331,249.4423 L1152.7286,245.8126 L1151.0047,242.3286 L1148.8269,238.609 L1147.3262,235.2407 L1145.3753,231.6389 L1145.5857,231.7617 L1144.5326,230.003 L1143.584,228.3053 L1142.1501,226.3242 L1141.0719,224.5509 L1140.309,222.9616 L1140.0758,222.8136 L1139.2086,221.248 L1138.0787,219.5157 L1137.3299,218.0253 L1135.9304,216.1219 L1134.9177,214.464 L1134.7923,214.3772 L1133.856,212.8669 L1132.3838,210.9857 L1131.2927,209.3683 L1130.5745,208.0089 L1129.1922,206.19 L1129.3466,206.307 L1128.2387,204.7859 L1126.6509,202.901 L1125.6642,201.4718 L1124.5465,199.9434 L1123.1237,198.1836 L1122.9625,198.0491 L1121.8069,196.6173 L1120.5984,195.1414 L1119.4937,193.7521 L1117.9857,192.0264 L1116.703,190.4886 L1116.854,190.6281 L1115.1658,188.8536 L1113.7691,187.3484 L1112.7982,186.2366 L1111.0434,184.4006 L1109.921,183.1489 L1110.0738,183.3157 L1107.0463,180.529 L1103.9671,177.6859 L1101.0046,174.9701 L1098.3117,172.549 L1095.2373,169.711 L1095.1604,169.6024 L1092.1418,167.6278 L1088.6005,164.9145 L1085.6534,163.0411 L1082.3718,160.6948 L1079,158.2212 L1079.0536,158.3159 L1075.5409,156.2768 L1072.2201,154.577 L1068.726,152.5707 L1065.1593,150.4362 L1061.6529,148.4082 L1061.7021,148.5167 L1058.3557,146.8708 L1055.2379,145.7288 L1051.8615,144.0168 L1048.5915,142.5393 L1045.2866,140.9848 L1045.2069,140.7264 L1042.1039,139.8473 L1039.097,139.2795 L1035.9542,138.2712 L1032.7628,137.1051 L1029.6389,136.158 L1029.62,136.016 L1026.5877,135.6569 L1023.5221,135.0465 L1020.5484,135.1269 L1017.5292,134.8653 L1014.4475,134.1349 L1014.4629,134.3684 L1011.4683,134.6406 L1008.4446,134.4694 L1005.4517,134.7662 L1002.4383,134.7532 L999.4502,135.1226 L999.4841,135.2442 L996.4666,136.0694 L993.49,137.0413 L990.3834,137.5477 L987.3817,138.4295 L984.3847,139.3282 L984.4722,139.5048 L981.4175,141.0802 L978.1251,142.1763 L975.1088,143.8293 L972.0974,145.492 L968.9887,146.9587 L968.8324,146.7367 L965.8814,149.3396 L962.6593,151.5574 L959.3697,153.6796 L956.2342,156.0204 L953,158.2212 L953.2229,158.4561 L950.2978,160.5922 L947.8834,163.2665 L945.2679,165.729 L942.6095,168.1461 L939.9676,170.5807 L940.0172,170.6189 L937.8341,173.4299 L935.4011,176.0482 L933.3063,178.9273 L931.1116,181.7293 L929.1006,184.673 L929.1252,184.6871 L927.3584,187.7916 L925.6107,190.9069 L923.6599,193.9059 L921.9699,197.0544 L920.2198,200.1684 L920.1706,200.1474 L919.0407,203.5827 L917.5645,206.8702 L915.7768,210.0247 L914.5306,213.4104 L913.1456,216.7368 L912.9009,216.6598 L912.1785,220.2376 L911.2248,223.7426 L910.1084,227.1964 L908.6035,230.528 L907.6987,234.0484 L907.8999,234.0938 L906.5769,237.5207 L906.1859,241.158 L905.1695,244.6541 L904.5414,248.2378 L903.6997,251.7733 L903.805,251.7912 L903.604,253.5913 L902.7792,255.2856 L903.0004,257.1573 L902.5676,258.9181 L902.187,260.6877 L902.3432,260.711 L902.4495,261.182 L902.057,261.5789 L902.0653,262.0354 L902.0159,262.4833 L901.8558,262.9147 L901.9426,262.9271 L901.8237,263.1373 L902.105,263.4045 L901.4922,263.5442 L901.9775,263.8405 L901.697,264.0276 " fill="none" style="stroke:#8B0000;stroke-width:4.0;"/><polygon fill="#8B0000" points="901.697,264.0276,901.7564,264.0647,902.6229,262.2835,903.8377,260.7198,904.9391,259.0853,905.6674,257.2179,906.9122,255.6729,906.8966,255.6522,905.923,256.24,905.0279,256.9322,904.1875,257.6968,903.1588,258.2116,902.3938,259.0764,902.5412,259.1874,901.5453,258.0463,900.9797,257.2293,900.4667,256.4519,899.6482,255.4444,898.9903,254.558,899.0122,254.5642,899.5214,256.449,900.1302,258.3622,900.6909,260.2616,901.3434,262.1873,901.697,264.0276" style="stroke:#8B0000;stroke-width:4.0;"/><text fill="#000000" font-family="Chalkduster" font-size="24" lengthAdjust="spacing" textLength="174" x="940" y="109.732">More editing</text></g><!--link api1 to stor1--><g id="link_api1_stor1"><path d="M970.86,886.4012 L970.9534,886.4046 L970.4341,892.9588 L970.462,899.5331 L970.3118,906.1009 L969.5755,912.647 L969.6505,919.2231 L969.616,919.2218 L969.3916,921.1026 L969.3411,922.9897 L969.4117,924.8814 L969.0654,926.7576 L969.3029,928.6554 L969.5488,928.6645 L968.9872,929.6178 L969.1434,930.5975 L969.3873,931.5805 L969.1215,932.5448 L969.1237,933.5189 L969.154,933.52 L969.1005,933.7644 L969.1849,934.0138 L969.2027,934.2608 L969.3476,934.5125 L969.0784,934.749 " fill="none" style="stroke:#8B0000;stroke-width:4.0;"/><polygon fill="#8B0000" points="971.03,881.8412,971.0929,881.872,970.0397,883.5495,969.3553,885.4076,968.5509,887.2069,967.3514,888.8128,966.6987,890.6865,966.6811,890.6675,967.4311,889.8125,968.27,889.0533,969.1707,888.3606,969.8585,887.4386,970.8444,886.8377,970.9797,886.9633,971.4602,887.5239,972.3356,888.4511,973.2592,889.4231,973.9025,890.1348,974.6932,890.9834,974.7143,890.9919,973.9507,889.151,973.2832,887.3487,972.5693,885.5277,971.9439,883.7422,971.03,881.8412" style="stroke:#8B0000;stroke-width:4.0;"/><polygon fill="#8B0000" points="969.0784,934.749,969.1413,934.7798,969.8201,932.9189,970.8678,931.2386,971.7953,929.4996,972.3278,927.5672,973.4071,925.9024,973.3895,925.8834,972.4814,926.5682,971.6623,927.3487,970.9049,928.1957,969.9346,928.8135,969.2625,929.7524,969.3977,929.878,968.3386,928.7805,967.6742,928.0497,967.058,927.3636,966.1616,926.4172,965.4125,925.6078,965.4336,925.6162,966.1358,927.4321,966.9341,929.2864,967.686,931.1222,968.5264,932.9934,969.0784,934.749" style="stroke:#8B0000;stroke-width:4.0;"/></g><!--SRC=[XLEnRkCm3Dtr5JnFTuDIk6CG10Xo7JeKANf3bmCArcOINLr9a9YamI7_NafsOgTjK0-6gVVu-4ZHFuojcarDJwzezp0QNTN8g2N05RsIPHrvtz28trWfDjpG66PrRUmA5i__gE88cvYYUK0clL11pj2k6eBYWRoBXbtOmyxm6hmBZ4q1W14mL6kOJCA9Cft2VwK08B_oCv2QtTyMESsRCfCIdfm-OnJuZoY8NoWpAKfKYjeNEk9PE3sK7cEPmX8hWcrv2RW-0OSBijU5wc5ra2vwUuyklAGP9PjKIDixEOXUbANhes6yx1XpM_aBMqvNQy2xgGsd6ez7wNREJ94_59Gngmz5kik39E92cpbVdCtfawL1kmFiFjynbA1pwMpSd_NMZ-NMrlIM6QR4NawTAmwswEwqbJ3plZ4Lid4MVYwi-LLqw_FTvXpItIYLFEdQxQoUTkDNYG5QRxoMitROC8RvcgeNgi5j69Ok07LplX957zmM6oMJEgb8nk-0IrPTcBG47yETNFqnMNNgWcOBmid5ksgoU61f1riAKVhxQwLiYbt-uLgVapFpwXq0]--></g></svg>