<?xml version="1.0" encoding="us-ascii" standalone="no"?><svg xmlns="http://www.w3.org/2000/svg" xmlns:xlink="http://www.w3.org/1999/xlink" contentStyleType="text/css" height="1185px" preserveAspectRatio="none" style="width:985px;height:1185px;background:#FFFFFF;" version="1.1" viewBox="0 0 985 1185" width="985px" zoomAndPan="magnify"><defs/><g><text fill="#000000" font-family="Chalkduster" font-size="42" font-weight="bold" lengthAdjust="spacing" textLength="896" x="37.82" y="51.7215">Adding Objects using Crate-O (TODO)</text><!--cluster arch--><g id="cluster_arch"><polygon fill="#98FB98" points="138.14,703.0622,138.14,703.2724,147.9971,702.6479,157.8543,703.2555,167.7114,703.4619,177.5686,702.3488,187.4257,702.9845,197.2829,702.6357,207.14,702.6787,216.9971,702.9941,226.8543,702.3708,236.7114,703.6159,246.5686,702.4319,256.4257,702.8644,266.2829,703.4942,276.14,702.9764,285.9971,703.1304,295.8543,703.0303,305.7114,703.2407,315.5686,703.3013,325.4257,703.6479,335.2829,703.7333,345.14,703.7415,354.9971,703.3168,364.8543,703.5258,374.7114,703.7644,384.5686,702.341,394.4257,703.7407,404.2829,702.7657,414.14,703.596,423.9971,702.5672,433.8543,702.9937,443.7114,703.8038,453.5686,703.0135,463.4257,703.1675,473.2829,703.4008,483.14,703.0622,483.1931,703.1904,483.4931,703.2075,483.8837,703.4436,484.1276,703.3253,484.5905,703.7356,484.9078,703.7944,485.0766,703.8644,485.1911,704.2047,485.3894,704.5797,485.1983,704.7935,485.2927,705.1255,485.64,705.5622,485.0186,705.5622,485.5811,715.589,485.4435,725.6158,486.3214,735.6426,485.4653,745.6694,485.2969,755.6963,485.8683,765.7231,484.9732,775.7499,485.1209,785.7767,486.289,795.8035,486.0757,805.8303,486.3745,815.8571,485.3182,825.8839,485.9592,835.9107,486.2304,845.9375,485.1676,855.9643,485.5441,865.9911,485.766,876.018,486.2918,886.0448,485.6358,896.0716,486.1026,906.0984,485.0862,916.1252,484.9627,926.152,486.1436,936.1788,484.9231,946.2056,486.149,956.2324,485.8466,966.2592,485.3721,976.286,485.2862,986.3128,486.0988,996.3397,485.3407,1006.3665,486.2319,1016.3933,485.0873,1026.4201,486.2574,1036.4469,486.1243,1046.4737,485.885,1056.5005,485.6872,1066.5273,486.3666,1076.5541,486.2536,1086.5809,485.8093,1096.6077,485.9082,1106.6346,485.5097,1116.6614,486.3565,1126.6882,485.7949,1136.715,485.8126,1146.7418,485.0316,1156.7686,485.2348,1166.7954,485.64,1176.8222,485.8034,1176.8899,485.6259,1177.2306,485.3339,1177.5238,485.1014,1177.8418,484.9868,1178.2085,484.9078,1178.59,484.8202,1178.3787,484.6071,1178.8641,484.295,1179.1106,483.9143,1179.1914,483.5822,1179.3898,483.14,1179.3222,483.14,1179.1855,473.2829,1179.4094,463.4257,1178.9346,453.5686,1179.6063,443.7114,1179.569,433.8543,1179.8746,423.9971,1179.0926,414.14,1179.1878,404.2829,1179.7657,394.4257,1179.8895,384.5686,1178.8097,374.7114,1179.1283,364.8543,1179.4715,354.9971,1178.7114,345.14,1179.6756,335.2829,1179.5802,325.4257,1179.2215,315.5686,1179.4645,305.7114,1180.0509,295.8543,1179.0093,285.9971,1179.6372,276.14,1179.6079,266.2829,1179.438,256.4257,1179.4631,246.5686,1179.4357,236.7114,1178.6981,226.8543,1178.9214,216.9971,1178.8607,207.14,1179.386,197.2829,1179.4103,187.4257,1179.484,177.5686,1179.0312,167.7114,1179.2547,157.8543,1179.202,147.9971,1179.8991,138.14,1179.3222,138.1944,1179.4536,137.7245,1179.0262,137.4236,1179.0069,137.0057,1178.7051,136.7626,1178.8252,136.3722,1178.59,136.5596,1178.6676,136.3935,1178.3059,135.9452,1177.8273,136.0758,1177.5885,135.5577,1177.081,135.64,1176.8222,135.8402,1176.8222,135.3407,1166.7954,135.7367,1156.7686,135.8803,1146.7418,136.1121,1136.715,134.9201,1126.6882,136.1155,1116.6614,135.8182,1106.6346,135.9953,1096.6077,136.3878,1086.5809,135.6455,1076.5541,135.8153,1066.5273,135.8534,1056.5005,135.8372,1046.4737,135.6392,1036.4469,136.3507,1026.4201,135.0303,1016.3933,136.2053,1006.3665,135.016,996.3397,135.0997,986.3128,135.68,976.286,135.6683,966.2592,135.1472,956.2324,136.0537,946.2056,135.7489,936.1788,136.3667,926.152,136.3071,916.1252,135.1917,906.0984,135.2421,896.0716,135.5108,886.0448,135.9955,876.018,136.043,865.9911,135.9412,855.9643,135.298,845.9375,136.2764,835.9107,136.2738,825.8839,135.5927,815.8571,135.4009,805.8303,135.2386,795.8035,135.4254,785.7767,135.7774,775.7499,135.5716,765.7231,135.2222,755.6963,136.1274,745.6694,135.1811,735.6426,136.1424,725.6158,136.0672,715.589,135.64,705.5622,135.7545,705.6096,135.9997,705.297,135.8572,704.8237,135.9868,704.4632,136.3856,704.2142,136.3722,703.7944,136.2961,703.6106,136.6959,703.5759,137.0941,703.5371,137.4417,703.3763,137.7407,703.0983,138.14,703.0622" style="stroke:#181818;stroke-width:4.0;"/><text fill="#000000" font-family="Chalkduster" font-size="24" font-style="italic" lengthAdjust="spacing" textLength="169" x="226.14" y="728.9031">&#171;repository&#187;</text><text fill="#000000" font-family="Chalkduster" font-size="24" font-weight="bold" lengthAdjust="spacing" textLength="306" x="157.64" y="759.5329">Repository with portal</text></g><!--cluster stor1--><g id="cluster_stor1"><path d="M167.64,962.6922 L167.64,962.6922 L167.6842,962.7745 L168.7818,961.8698 L170.1385,961.4476 L171.4108,960.8682 L172.4056,959.7723 L173.7845,959.3914 L173.7793,959.3573 L176.9957,958.708 L180.2384,958.2308 L183.4995,957.8732 L186.6974,957.1033 L189.9838,956.911 L190.0057,957.156 L192.1233,956.4381 L194.305,956.4357 L196.4945,956.5206 L198.6386,956.0976 L200.8065,955.9417 L200.8085,955.972 L203.2215,955.7659 L205.6436,955.6976 L208.0614,955.5629 L210.4876,955.555 L212.8861,955.1336 L212.9013,955.4315 L215.485,955.3028 L218.0589,954.982 L220.6471,954.9424 L223.236,954.916 L225.8036,954.472 L225.7909,954.1517 L228.4828,954.6674 L231.1329,954.1284 L233.8148,954.3912 L236.464,953.8283 L239.14,953.9422 L239.1392,953.9118 L244.3999,954.1272 L249.641,953.6315 L254.8936,953.5554 L260.1473,953.5145 L265.3939,953.2196 L265.3969,953.4045 L269.9743,953.1436 L274.5569,953.1988 L279.1312,952.7425 L283.7178,953.0491 L288.2963,952.8485 L288.298,953.0921 L292.7664,953.0148 L297.2357,953.0584 L301.701,952.54 L306.1692,952.4336 L310.64,952.6922 L310.64,952.6922 L310.6381,952.416 L315.1086,952.6973 L319.5769,952.6674 L324.0484,953.0888 L328.5145,952.7396 L332.9838,952.8485 L332.9813,952.696 L337.5659,953.0241 L342.1399,952.7006 L346.7214,952.8404 L351.3103,953.4337 L355.8861,953.2196 L355.8914,953.4131 L361.1459,953.6904 L366.3837,953.3657 L371.6423,953.795 L376.8964,954.06 L382.14,953.9422 L382.1317,953.7324 L384.8056,954.0056 L387.4768,954.2101 L390.1534,954.5495 L392.8091,954.3642 L395.4764,954.472 L395.4869,954.6773 L398.0473,954.3585 L400.628,954.436 L403.2384,955.0925 L405.7941,954.6831 L408.3939,955.1336 L408.409,955.3593 L410.816,955.3869 L413.2178,955.3381 L415.6312,955.4616 L418.0712,955.9835 L420.4735,955.9417 L420.4616,955.8092 L422.6615,956.3976 L424.7807,956.0847 L426.9916,956.7966 L429.1509,956.9315 L431.2963,956.911 L431.3127,957.0186 L434.5393,957.4278 L437.8248,958.2224 L441.0571,958.6688 L444.267,958.9697 L447.4955,959.3914 L447.5519,959.4964 L448.697,960.0006 L450.104,960.9923 L451.2148,961.4325 L452.4474,962.0996 L453.64,962.6922 L452.0177,962.6922 L452.5594,972.9646 L455.0553,983.2369 L454.786,993.5093 L453.5255,1003.7816 L452.7809,1014.054 L453.0562,1024.3263 L451.8102,1034.5987 L454.746,1044.871 L455.6122,1055.1434 L455.0437,1065.4157 L455.4932,1075.6881 L453.2754,1085.9604 L453.8726,1096.2328 L452.6064,1106.5052 L454.3974,1116.7775 L454.298,1127.0499 L453.64,1137.3222 L453.64,1137.3222 L453.7562,1137.5385 L452.3628,1137.8924 L451.1539,1138.5899 L450.0466,1139.4763 L448.8437,1140.185 L447.4955,1140.623 L447.461,1140.3978 L444.2426,1141.0339 L441.0258,1141.6808 L437.7348,1141.8429 L434.5599,1142.7626 L431.2963,1143.1035 L431.3065,1143.2177 L429.1277,1143.2527 L426.9728,1143.5541 L424.8315,1144.0076 L422.6256,1143.7404 L420.4735,1144.0727 L420.4828,1144.2124 L418.0661,1144.361 L415.6451,1144.4473 L413.2299,1144.6201 L410.8132,1144.7695 L408.3939,1144.8808 L408.3797,1144.6038 L405.8013,1144.8352 L403.2164,1144.9406 L400.6449,1145.3061 L398.0619,1145.4492 L395.4764,1145.5424 L395.4793,1145.6143 L392.804,1145.5192 L390.1407,1145.7244 L387.4724,1145.8069 L384.8175,1146.2224 L382.14,1146.0722 L382.1452,1146.2617 L376.8833,1146.001 L371.6375,1146.3289 L366.3806,1146.2494 L361.1404,1146.7785 L355.8861,1146.7949 L355.8905,1147.0653 L351.3095,1147.1111 L346.722,1146.7498 L342.148,1147.2237 L337.5589,1146.7616 L332.9838,1147.166 L332.9844,1147.2549 L328.5141,1147.0642 L324.0466,1147.2714 L319.5782,1147.3665 L315.1102,1147.5008 L310.64,1147.3222 L310.64,1147.3222 L310.6378,1147.0023 L306.1727,1147.5023 L301.7031,1147.3389 L297.2349,1147.3864 L292.7673,1147.5296 L288.2963,1147.166 L288.2963,1147.1684 L283.717,1147.1696 L279.1368,1147.1124 L274.5563,1147.031 L269.9744,1146.8687 L265.3939,1146.7949 L265.4026,1147.1106 L260.1357,1146.3794 L254.8993,1146.7569 L249.6339,1146.084 L244.3842,1145.9767 L239.14,1146.0722 L239.1407,1146.09 L236.4732,1145.9788 L233.7967,1145.6414 L231.1454,1145.9381 L228.4728,1145.6967 L225.8036,1145.5424 L225.8201,1145.865 L223.2352,1145.7062 L220.6264,1145.0788 L218.044,1144.9688 L215.4667,1144.9558 L212.8861,1144.8808 L212.8966,1145.0385 L210.4821,1144.8979 L208.0632,1144.6911 L205.6282,1144.2443 L203.2413,1144.5165 L200.8065,1144.0727 L200.8316,1144.3533 L198.6401,1143.8579 L196.4679,1143.5792 L194.2969,1143.3135 L192.1398,1143.2023 L189.9838,1143.1035 L189.993,1143.1638 L186.7393,1142.5773 L183.476,1141.9277 L180.297,1141.8293 L176.9935,1140.9175 L173.7845,1140.623 L173.8902,1140.8197 L172.6455,1140.1301 L171.4049,1139.4483 L170.2435,1138.9137 L168.8172,1137.8861 L167.64,1137.3222 L166.8383,1137.3222 L169.0237,1127.0499 L166.0483,1116.7775 L167.016,1106.5052 L167.948,1096.2328 L167.8232,1085.9604 L166.6841,1075.6881 L167.5254,1065.4157 L169.6256,1055.1434 L169.3693,1044.871 L166.0499,1034.5987 L167.8494,1024.3263 L166.2696,1014.054 L167.5698,1003.7816 L168.4213,993.5093 L168.7597,983.2369 L165.8674,972.9646 L167.64,962.6922 " fill="none" style="stroke:#181818;stroke-width:4.0;"/><path d="M167.64,962.6922 L167.64,962.6922 L167.6842,962.7745 L168.7818,963.1901 L170.1385,964.0882 L171.4108,964.8292 L172.4056,965.0535 L173.7845,965.993 L173.7793,965.9589 L176.9957,966.3017 L180.2384,966.8167 L183.4995,967.4513 L186.6974,967.6736 L189.9838,968.4735 L190.0057,968.7185 L192.1233,968.3883 L194.305,968.7736 L196.4945,969.2462 L198.6386,969.2109 L200.8065,969.4427 L200.8085,969.473 L203.2215,969.5902 L205.6436,969.8451 L208.0614,970.0336 L210.4876,970.3489 L212.8861,970.2508 L212.9013,970.5487 L215.485,970.6846 L218.0589,970.6285 L220.6471,970.8535 L223.236,971.0918 L225.8036,970.9124 L225.7909,970.5922 L228.4828,971.3197 L231.1329,970.9927 L233.8148,971.4674 L236.464,971.1164 L239.14,971.4422 L239.1392,971.4118 L244.3999,971.9162 L249.641,971.7096 L254.8936,971.9226 L260.1473,972.1708 L265.3939,972.1649 L265.3969,972.3498 L269.9743,972.2374 L274.5569,972.4409 L279.1312,972.1331 L283.7178,972.5881 L288.2963,972.536 L288.298,972.7796 L292.7664,972.7648 L297.2357,972.8709 L301.701,972.415 L306.1692,972.3711 L310.64,972.6922 L310.64,972.6922 L310.6381,972.416 L315.1086,972.6348 L319.5769,972.5424 L324.0484,972.9013 L328.5145,972.4896 L332.9838,972.536 L332.9813,972.3835 L337.5659,972.5632 L342.1399,972.0912 L346.7214,972.0826 L351.3103,972.5275 L355.8861,972.1649 L355.8914,972.3584 L361.1459,972.3467 L366.3837,971.7328 L371.6423,971.8731 L376.8964,971.8491 L382.14,971.4422 L382.1317,971.2324 L384.8056,971.2937 L387.4768,971.2862 L390.1534,971.4138 L392.8091,971.0165 L395.4764,970.9124 L395.4869,971.1177 L398.0473,970.5343 L400.628,970.3472 L403.2384,970.739 L405.7941,970.0649 L408.3939,970.2508 L408.409,970.4765 L410.816,970.1808 L413.2178,969.8088 L415.6312,969.6091 L418.0712,969.8078 L420.4735,969.4427 L420.4616,969.3102 L422.6615,969.5109 L424.7807,968.8103 L426.9916,969.1345 L429.1509,968.8817 L431.2963,968.4735 L431.3127,968.5811 L434.5393,967.9981 L437.8248,967.8005 L441.0571,967.2547 L444.267,966.5634 L447.4955,965.993 L447.5519,966.098 L448.697,965.2818 L450.104,964.9532 L451.2148,964.0732 L452.4474,963.4199 L453.64,962.6922 " fill="none" style="stroke:#181818;stroke-width:4.0;"/><text fill="#000000" font-family="Chalkduster" font-size="24" font-weight="bold" lengthAdjust="spacing" textLength="128" x="246.64" y="998.5331">Storage 1</text></g><!--cluster test--><g id="cluster_test"><polygon fill="#FFE4E1" points="249.14,160.4322,249.14,160.6424,259.1126,160.0179,269.0852,160.6255,279.0578,160.8319,289.0304,159.7188,299.003,160.3545,308.9756,160.0057,318.9482,160.0487,328.9208,160.3641,338.8934,159.7408,348.866,160.9859,358.8386,159.8019,368.8112,160.2344,378.7838,160.8642,388.7564,160.3464,398.729,160.5004,408.7016,160.4003,418.6742,160.6107,428.6468,160.6713,438.6195,161.0179,448.5921,161.1033,458.5647,161.1115,468.5373,160.6868,478.5099,160.8958,488.4825,161.1344,498.4551,159.711,508.4277,161.1107,518.4003,160.1357,528.3729,160.966,538.3455,159.9372,548.3181,160.3637,558.2907,161.1738,568.2633,160.3835,578.2359,160.5375,588.2085,160.7708,598.1811,160.8484,608.1537,160.4283,618.1263,160.7194,628.0989,159.8598,638.0715,160.7166,648.0441,160.9804,658.0167,160.8767,667.9893,161.0452,677.9619,159.9491,687.9345,159.78,697.9071,159.8108,707.8797,160.3733,717.8523,160.2357,727.8249,161.1136,737.7975,160.2575,747.7701,160.0892,757.7427,160.6605,767.7153,159.7654,777.6879,159.9131,787.6605,161.0812,797.6332,160.8679,807.6058,161.1667,817.5784,160.1104,827.551,160.7514,837.5236,161.0226,847.4962,159.9598,857.4688,160.3364,867.4414,160.5582,877.414,161.084,887.3866,160.428,897.3592,160.8948,907.3318,159.8784,917.3044,159.755,927.277,160.9358,937.2496,159.7153,947.2222,160.9412,957.1948,160.6388,967.1674,160.1643,977.14,160.4322,977.0949,160.3233,977.5521,160.7199,977.8089,160.6329,978.2762,161.0538,978.4837,160.8478,978.9078,161.1644,979.0979,161.2432,979.2034,161.5798,979.2761,161.9028,979.3616,162.2311,979.7173,162.6713,979.64,162.9322,980.2536,162.9322,979.8093,172.8894,979.9082,182.8466,979.5097,192.8038,980.3565,202.761,979.7949,212.7181,979.8126,222.6753,979.0316,232.6325,979.2348,242.5897,980.1707,252.5469,980.0698,262.5041,979.5971,272.4613,979.3178,282.4185,979.4211,292.3756,978.9538,302.3328,980.0547,312.29,980.3796,322.2472,980.1664,332.2044,980.3349,342.1616,979.5033,352.1188,979.7272,362.076,979.2524,372.0331,979.924,381.9903,979.8868,391.9475,980.1924,401.9047,979.4103,411.8619,979.5056,421.8191,980.0835,431.7763,980.2073,441.7335,979.1275,451.6906,979.4461,461.6478,979.7893,471.605,979.64,481.5622,979.4519,481.4843,979.6024,481.9608,979.4266,482.3022,979.1696,482.61,979.098,482.9946,978.9078,483.33,979.0007,483.5544,978.5143,483.3801,978.2408,483.7199,977.8835,483.8573,977.5083,483.9514,977.14,484.0622,977.14,484.2031,967.1674,484.1757,957.1948,483.4381,947.2222,483.6614,937.2496,483.6007,927.277,484.126,917.3044,484.1503,907.3318,484.224,897.3592,483.7712,887.3866,483.9947,877.414,483.942,867.4414,484.6391,857.4688,484.4888,847.4962,483.5767,837.5236,483.9893,827.551,483.485,817.5784,484.3506,807.6058,484.6707,797.6332,484.6068,787.6605,483.6267,777.6879,484.5262,767.7153,483.3194,757.7427,484.2624,747.7701,483.7629,737.7975,484.1589,727.8249,484.3025,717.8523,484.5343,707.8797,483.3423,697.9071,484.5377,687.9345,484.2404,677.9619,484.4175,667.9893,484.81,658.0167,484.0677,648.0441,484.2375,638.0715,484.2757,628.0989,484.2594,618.1263,484.0614,608.1537,484.7729,598.1811,483.4525,588.2085,484.6275,578.2359,483.4382,568.2633,483.5219,558.2907,484.1022,548.3181,484.0905,538.3455,483.5694,528.3729,484.4759,518.4003,484.1711,508.4277,484.7889,498.4551,484.7293,488.4825,483.614,478.5099,483.6643,468.5373,483.933,458.5647,484.4177,448.5921,484.4652,438.6195,484.3634,428.6468,483.7203,418.6742,484.6986,408.7016,484.696,398.729,484.0149,388.7564,483.8232,378.7838,483.6608,368.8112,483.8476,358.8386,484.1996,348.866,483.9938,338.8934,483.6444,328.9208,484.5496,318.9482,483.6033,308.9756,484.5646,299.003,484.4894,289.0304,484.4341,279.0578,484.7547,269.0852,483.8163,259.1126,483.7616,249.14,484.0622,249.2062,484.222,248.7103,483.7319,248.403,483.6973,248.0941,483.6584,247.7345,483.4976,247.3722,483.33,247.2618,483.2843,247.2126,482.9709,247.3086,482.7179,247.1326,482.352,246.6028,481.8397,246.64,481.5622,246.7185,481.5622,246.1261,471.605,246.6137,461.6478,246.933,451.6906,247.0599,441.7335,245.9753,431.7763,247.0405,421.8191,246.6484,411.8619,246.0847,401.9047,246.1689,391.9475,246.9666,381.9903,246.8899,372.0331,246.6236,362.076,245.9679,352.1188,247.2981,342.1616,246.3282,332.2044,246.1119,322.2472,246.5727,312.29,247.2297,302.3328,247.2554,292.3756,246.6751,282.4185,246.4888,272.4613,246.8098,262.5041,246.8262,252.5469,246.1322,242.5897,247.054,232.6325,247.1988,222.6753,246.4242,212.7181,246.2108,202.761,247.3146,192.8038,246.661,182.8466,246.6398,172.8894,246.64,162.9322,246.7321,162.9704,246.5876,162.4963,247.0961,162.2927,247.0746,161.8696,247.4318,161.6033,247.3722,161.1644,247.3447,161.098,247.778,161.144,248.0227,160.7348,248.4641,160.8006,248.8348,160.6955,249.14,160.4322" style="stroke:#181818;stroke-width:4.0;"/><text fill="#000000" font-family="Chalkduster" font-size="24" font-style="italic" lengthAdjust="spacing" textLength="175" x="525.64" y="186.2731">&#171;workspace&#187;</text><text fill="#000000" font-family="Chalkduster" font-size="24" font-weight="bold" lengthAdjust="spacing" textLength="257" x="484.64" y="216.9029">Editing Workspace</text></g><!--cluster CO--><g id="cluster_CO"><polygon fill="none" points="728.14,287.4322,728.14,287.6424,738.0036,287.0179,747.8673,287.6255,757.7309,287.8319,767.5945,286.7188,777.4582,287.3545,787.3218,287.0057,797.1855,287.0487,807.0491,287.3641,816.9127,286.7408,826.7764,287.9859,836.64,286.8019,846.5036,287.2344,856.3673,287.8642,866.2309,287.3464,876.0945,287.5004,885.9582,287.4003,895.8218,287.6107,905.6855,287.6713,915.5491,288.0179,925.4127,288.1033,935.2764,288.1115,945.14,287.4322,945.1725,287.5106,945.5527,287.7214,945.9367,287.9414,946.1087,287.6495,946.6408,288.227,946.9078,288.1644,946.8165,288.1266,947.2186,288.5861,947.0482,288.8084,947.326,289.2164,947.7219,289.6733,947.64,289.9322,947.5913,289.9322,947.7453,299.9091,947.9786,309.886,948.0562,319.8628,947.6361,329.8397,947.9272,339.8166,947.0676,349.7935,947.9244,359.7703,948.1882,369.7472,948.0845,379.7241,948.253,389.701,947.1569,399.6778,946.9878,409.6547,947.0186,419.6316,947.5811,429.6085,947.4435,439.5853,947.64,449.5622,947.8498,449.6491,947.4398,449.8935,947.2415,450.2256,947.271,450.652,946.8489,450.8914,946.9078,451.33,946.8415,451.1701,946.637,451.6763,946.2562,451.757,945.9408,451.9955,945.4525,451.8167,945.14,452.0622,945.14,452.3814,935.2764,452.6526,925.4127,451.5898,915.5491,451.9664,905.6855,452.1882,895.8218,452.714,885.9582,452.058,876.0945,452.5248,866.2309,451.5084,856.3673,451.385,846.5036,452.5658,836.64,451.3453,826.7764,452.5712,816.9127,452.2688,807.0491,451.7943,797.1855,451.7084,787.3218,452.521,777.4582,451.7629,767.5945,452.6541,757.7309,451.5095,747.8673,452.6796,738.0036,452.5465,728.14,452.0622,728.1712,452.1377,727.7925,451.9303,727.5256,451.9931,727.1576,451.8118,726.7474,451.5285,726.3722,451.33,726.4548,451.3642,726.1857,450.9598,726.3,450.7143,725.9806,450.2891,725.8396,449.9378,725.64,449.5622,725.0316,449.5622,725.2348,439.5853,726.1707,429.6085,726.0698,419.6316,725.5971,409.6547,725.3178,399.6778,725.4211,389.701,724.9538,379.7241,726.0547,369.7472,726.3796,359.7703,726.1664,349.7935,726.3349,339.8166,725.5033,329.8397,725.7272,319.8628,725.2524,309.886,725.924,299.9091,725.64,289.9322,725.716,289.9637,725.9566,289.6491,725.8622,289.1958,726.0379,288.8544,726.3624,288.5746,726.3722,288.1644,726.4446,288.3392,726.6604,287.8602,727.0546,287.8118,727.4519,287.7711,727.7085,287.3905,728.14,287.4322" style="stroke:#181818;stroke-width:4.0;"/><text fill="#000000" font-family="Chalkduster" font-size="24" font-weight="bold" lengthAdjust="spacing" textLength="206" x="733.64" y="313.2731">Crate-O Editor</text></g><!--entity api1--><g id="elem_api1"><polygon fill="none" points="153.64,847.0622,153.64,847.2724,164.3067,846.6479,174.9733,847.2555,185.64,847.4619,196.3067,846.3488,206.9733,846.9845,217.64,847.0622,217.5856,846.9309,217.9446,847.0906,218.3384,847.3341,218.6125,847.2886,219.1248,847.8185,219.4078,847.7944,219.2137,847.714,219.4933,848.1228,219.8337,848.5567,219.8207,848.8442,220.0146,849.2174,220.14,849.5622,220.1081,849.5622,220.3185,858.6882,220.3791,867.8141,220.7257,876.9401,220.8111,886.0661,220.14,895.192,220.3492,895.2787,220.072,895.5781,219.9899,895.9583,219.9169,896.3423,219.3321,896.5143,219.4078,896.9598,219.4943,897.1688,219.0164,897.0149,218.7688,897.4171,218.284,897.2467,217.9848,897.5245,217.64,897.692,217.64,898.4336,206.9733,897.6433,196.3067,897.7973,185.64,898.0307,174.9733,898.1083,164.3067,897.6881,153.64,897.692,153.6766,897.7805,153.2134,897.3693,152.9692,897.4867,152.6493,897.4215,152.2825,897.2432,151.8722,896.9598,152.061,897.038,151.577,896.5446,151.3785,896.1695,151.2415,895.8199,151.2683,895.5381,151.14,895.192,150.9435,895.192,151.8214,886.0661,150.9653,876.9401,150.7969,867.8141,151.3683,858.6882,151.14,849.5622,150.9346,849.4771,151.1266,849.1424,151.6327,848.9379,151.7135,848.5571,151.952,848.2417,151.8722,847.7944,151.8312,847.6953,152.2665,847.7463,152.6547,847.6834,152.8726,847.2096,153.2742,847.1791,153.64,847.0622" style="stroke:#181818;stroke-width:4.0;"/><text fill="#000000" font-family="Chalkduster" font-size="24" lengthAdjust="spacing" textLength="49" x="161.14" y="880.9031">API</text></g><!--entity Obj1--><g id="elem_Obj1"><polygon fill="none" points="355.64,1072.6922,355.64,1072.9024,365.9257,1072.2779,376.2114,1072.8855,386.4971,1073.0919,396.7829,1071.9788,407.0686,1072.6145,417.3543,1072.2657,427.64,1072.6922,427.5911,1072.5741,427.9849,1072.8177,428.2589,1072.7722,428.7713,1073.3021,428.9738,1073.0839,429.4078,1073.4244,429.3469,1073.3992,429.6872,1073.8331,429.6742,1074.1206,429.8681,1074.4938,429.9837,1074.8346,430.14,1075.1922,430.3185,1075.1922,430.3791,1084.3182,430.7257,1093.4441,430.8111,1102.5701,430.8193,1111.6961,430.14,1120.822,430.2184,1120.8545,430.1363,1121.2347,430.0634,1121.6187,429.4786,1121.7907,429.7632,1122.3228,429.4078,1122.5898,429.3699,1122.4985,429.1223,1122.9007,428.6375,1122.7303,428.3384,1123.0081,428.0882,1123.404,427.64,1123.322,427.64,1123.2733,417.3543,1123.4273,407.0686,1123.6607,396.7829,1123.7383,386.4971,1123.3181,376.2114,1123.6093,365.9257,1122.7496,355.64,1123.322,355.6763,1123.4096,355.3564,1123.3444,354.9896,1123.166,354.6575,1123.0715,354.1642,1122.5875,353.8722,1122.5898,353.6714,1122.5066,353.5344,1122.157,353.5612,1121.8752,353.3724,1121.5041,353.4963,1121.2625,353.14,1120.822,352.9653,1120.822,352.7969,1111.6961,353.3683,1102.5701,352.4732,1093.4441,352.6209,1084.3182,353.14,1075.1922,353.3399,1075.275,353.4206,1074.8942,353.6591,1074.5788,353.4802,1074.0905,353.8241,1073.8187,353.8722,1073.4244,353.9475,1073.6063,354.1655,1073.1325,354.5671,1073.102,354.949,1073.0239,355.3696,1073.0394,355.64,1072.6922" style="stroke:#181818;stroke-width:4.0;"/><text fill="#000000" font-family="Chalkduster" font-size="24" lengthAdjust="spacing" textLength="57" x="363.14" y="1106.5331">Obj1</text></g><!--entity Obj2--><g id="elem_Obj2"><polygon fill="none" points="229.64,1072.6922,229.64,1072.9024,239.64,1072.2779,249.64,1072.8855,259.64,1073.0919,269.64,1071.9788,279.64,1072.6145,289.64,1072.2657,299.64,1072.6922,299.5911,1072.5741,299.9849,1072.8177,300.2589,1072.7722,300.7713,1073.3021,300.9738,1073.0839,301.4078,1073.4244,301.3469,1073.3992,301.6872,1073.8331,301.6742,1074.1206,301.8681,1074.4938,301.9837,1074.8346,302.14,1075.1922,302.3185,1075.1922,302.3791,1084.3182,302.7257,1093.4441,302.8111,1102.5701,302.8193,1111.6961,302.14,1120.822,302.2184,1120.8545,302.1363,1121.2347,302.0634,1121.6187,301.4786,1121.7907,301.7632,1122.3228,301.4078,1122.5898,301.3699,1122.4985,301.1223,1122.9007,300.6375,1122.7303,300.3384,1123.0081,300.0882,1123.404,299.64,1123.322,299.64,1123.2733,289.64,1123.4273,279.64,1123.6607,269.64,1123.7383,259.64,1123.3181,249.64,1123.6093,239.64,1122.7496,229.64,1123.322,229.6763,1123.4096,229.3564,1123.3444,228.9896,1123.166,228.6575,1123.0715,228.1642,1122.5875,227.8722,1122.5898,227.6714,1122.5066,227.5344,1122.157,227.5612,1121.8752,227.3724,1121.5041,227.4963,1121.2625,227.14,1120.822,226.9653,1120.822,226.7969,1111.6961,227.3683,1102.5701,226.4732,1093.4441,226.6209,1084.3182,227.14,1075.1922,227.3399,1075.275,227.4206,1074.8942,227.6591,1074.5788,227.4802,1074.0905,227.8241,1073.8187,227.8722,1073.4244,227.9475,1073.6063,228.1655,1073.1325,228.5671,1073.102,228.949,1073.0239,229.3696,1073.0394,229.64,1072.6922" style="stroke:#181818;stroke-width:4.0;"/><text fill="#000000" font-family="Chalkduster" font-size="24" lengthAdjust="spacing" textLength="55" x="237.14" y="1106.5331">Obj2</text></g><!--entity p1a--><g id="elem_p1a"><path d="M263.14,382.9322 L263.14,382.9322 L263.1838,383.0147 L264.2954,382.1095 L265.6639,381.6878 L266.9488,381.1086 L267.9584,380.0116 L269.349,379.6314 L269.3438,379.5973 L272.5944,378.9479 L275.8711,378.4707 L279.1659,378.1132 L282.3983,377.3432 L285.7181,377.151 L285.7398,377.3961 L287.8807,376.6781 L290.0849,376.6757 L292.2968,376.7606 L294.4638,376.3376 L296.6544,376.1817 L296.6564,376.212 L299.0947,376.0059 L301.5422,375.9377 L303.9852,375.8029 L306.4366,375.795 L308.8607,375.3736 L308.8758,375.6715 L311.4866,375.5428 L314.0876,375.222 L316.7029,375.1824 L319.3189,375.156 L321.9137,374.712 L321.9011,374.3917 L324.6208,374.9074 L327.299,374.3684 L330.0088,374.6312 L332.6861,374.0683 L335.39,374.1822 L335.3892,374.1518 L340.7048,374.3672 L346.0011,373.8715 L351.3089,373.7954 L356.6175,373.7545 L361.9193,373.4596 L361.9223,373.6445 L366.5478,373.3836 L371.1784,373.4388 L375.8008,372.9825 L380.4354,373.2891 L385.0619,373.0885 L385.0636,373.3321 L389.5789,373.2548 L394.095,373.2984 L398.6073,372.78 L403.1224,372.6736 L407.64,372.9322 L407.64,372.9322 L407.6381,372.656 L412.1554,372.9373 L416.6706,372.9074 L421.189,373.3288 L425.702,372.9796 L430.2181,373.0885 L430.2157,372.936 L434.8483,373.2641 L439.4704,372.9406 L444.1,373.0804 L448.7368,373.6737 L453.3607,373.4596 L453.366,373.6531 L458.6755,373.9304 L463.9685,373.6057 L469.2821,374.035 L474.5913,374.3 L479.89,374.1822 L479.8818,373.9724 L482.5836,374.2456 L485.2827,374.4501 L487.9872,374.7895 L490.671,374.6042 L493.3663,374.712 L493.3767,374.9173 L495.9645,374.5985 L498.5723,374.676 L501.2094,375.3325 L503.7926,374.9231 L506.4193,375.3736 L506.4342,375.5993 L508.8666,375.6269 L511.294,375.578 L513.7327,375.7016 L516.1978,376.2235 L518.6256,376.1817 L518.6139,376.0492 L520.8361,376.6376 L522.9784,376.3247 L525.2116,377.0366 L527.3936,377.1715 L529.5619,377.151 L529.5782,377.2586 L532.8388,377.6678 L536.1579,378.4624 L539.4242,378.9089 L542.6685,379.2097 L545.931,379.6314 L545.987,379.7367 L547.1456,380.2405 L548.5641,381.2329 L549.6887,381.6727 L550.9342,382.3398 L552.14,382.9322 L551.5992,382.9322 L551.7798,390.8582 L552.6118,398.7841 L552.522,406.7101 L552.1018,414.6361 L552.14,422.562 L552.14,422.562 L552.0728,422.4356 L550.8525,423.1363 L549.5133,423.6131 L548.5011,424.7053 L547.3271,425.4929 L545.931,425.8628 L545.9661,426.0941 L542.7035,426.6643 L539.3743,426.7949 L536.1153,427.3894 L532.8099,427.6769 L529.5619,428.3433 L529.573,428.469 L527.3843,428.6464 L525.209,428.9755 L522.9911,428.8232 L520.8076,429.0592 L518.6256,429.3125 L518.6386,429.5092 L516.201,429.7258 L513.728,429.4085 L511.2961,429.7114 L508.8649,430.0252 L506.4193,430.1206 L506.4056,429.8495 L503.8167,430.4098 L501.2039,430.4998 L498.5852,430.4729 L495.9801,430.7131 L493.3663,430.7823 L493.379,431.1059 L490.6656,430.7493 L487.9813,431.1341 L485.2855,431.227 L482.5873,431.2575 L479.89,431.312 L479.8917,431.3747 L474.5855,431.507 L469.2707,431.3238 L463.9676,431.5676 L458.661,431.6851 L453.3607,432.0347 L453.3612,432.0631 L448.7328,432.1481 L444.1048,432.255 L439.4731,432.1281 L434.8462,432.3016 L430.2181,432.4058 L430.2178,432.3524 L425.7043,432.6934 L421.1882,432.6579 L416.6698,432.2838 L412.1554,432.4984 L407.64,432.562 L407.64,432.562 L407.6382,432.3055 L403.1253,432.659 L398.6106,432.77 L394.0948,432.7103 L389.5762,432.2435 L385.0619,432.4058 L385.0652,432.612 L380.4281,432.0015 L375.8063,432.3463 L371.1742,432.0501 L366.5485,432.1519 L361.9193,432.0347 L361.9222,432.1415 L356.6192,432.0999 L351.2989,431.4258 L346.0075,431.8124 L340.698,431.5357 L335.39,431.312 L335.3962,431.4698 L332.7078,431.5382 L329.9996,431.1026 L327.3073,431.072 L324.6127,430.983 L321.9137,430.7823 L321.9181,430.8698 L319.3031,430.6496 L316.7085,430.8331 L314.0682,430.1146 L311.484,430.5039 L308.8607,430.1206 L308.8424,429.8439 L306.4036,429.7194 L303.9794,429.8151 L301.5378,429.6483 L299.0812,429.2556 L296.6544,429.3125 L296.6706,429.4957 L294.4714,429.1669 L292.3084,429.2465 L290.1188,429.0263 L287.8878,428.3387 L285.7181,428.3433 L285.6916,428.1684 L282.4357,427.7904 L279.1941,427.5073 L275.9235,427.0321 L272.6429,426.4913 L269.349,425.8628 L269.2776,425.7286 L268.2399,425.4524 L266.9976,424.7912 L265.6137,423.8638 L264.3319,423.1284 L263.14,422.562 L262.7832,422.562 L262.9493,414.6361 L263.2621,406.7101 L263.0792,398.7841 L262.7686,390.8582 L263.14,382.9322 " fill="none" style="stroke:#181818;stroke-width:4.0;"/><path d="M263.14,382.9322 L263.14,382.9322 L263.1838,383.0147 L264.2954,383.4298 L265.6639,384.3284 L266.9488,385.0695 L267.9584,385.2929 L269.349,386.233 L269.3438,386.1988 L272.5944,386.5417 L275.8711,387.0567 L279.1659,387.6913 L282.3983,387.9136 L285.7181,388.7135 L285.7398,388.9586 L287.8807,388.6283 L290.0849,389.0136 L292.2968,389.4862 L294.4638,389.4509 L296.6544,389.6827 L296.6564,389.713 L299.0947,389.8302 L301.5422,390.0851 L303.9852,390.2736 L306.4366,390.5889 L308.8607,390.4908 L308.8758,390.7887 L311.4866,390.9246 L314.0876,390.8685 L316.7029,391.0936 L319.3189,391.3318 L321.9137,391.1524 L321.9011,390.8321 L324.6208,391.5597 L327.299,391.2327 L330.0088,391.7074 L332.6861,391.3564 L335.39,391.6822 L335.3892,391.6518 L340.7048,392.1562 L346.0011,391.9496 L351.3089,392.1626 L356.6175,392.4108 L361.9193,392.4049 L361.9223,392.5898 L366.5478,392.4774 L371.1784,392.6809 L375.8008,392.3731 L380.4354,392.8281 L385.0619,392.776 L385.0636,393.0196 L389.5789,393.0048 L394.095,393.1109 L398.6073,392.655 L403.1224,392.6111 L407.64,392.9322 L407.64,392.9322 L407.6381,392.656 L412.1554,392.8748 L416.6706,392.7824 L421.189,393.1413 L425.702,392.7296 L430.2181,392.776 L430.2157,392.6235 L434.8483,392.8032 L439.4704,392.3312 L444.1,392.3226 L448.7368,392.7675 L453.3607,392.4049 L453.366,392.5984 L458.6755,392.5867 L463.9685,391.9728 L469.2821,392.1131 L474.5913,392.0891 L479.89,391.6822 L479.8818,391.4724 L482.5836,391.5337 L485.2827,391.5262 L487.9872,391.6538 L490.671,391.2565 L493.3663,391.1524 L493.3767,391.3577 L495.9645,390.7743 L498.5723,390.5872 L501.2094,390.979 L503.7926,390.3049 L506.4193,390.4908 L506.4342,390.7165 L508.8666,390.4208 L511.294,390.0487 L513.7327,389.8491 L516.1978,390.0478 L518.6256,389.6827 L518.6139,389.5502 L520.8361,389.7509 L522.9784,389.0503 L525.2116,389.3745 L527.3936,389.1217 L529.5619,388.7135 L529.5782,388.8211 L532.8388,388.2381 L536.1579,388.0406 L539.4242,387.4948 L542.6685,386.8035 L545.931,386.233 L545.987,386.3382 L547.1456,385.5217 L548.5641,385.1938 L549.6887,384.3133 L550.9342,383.6601 L552.14,382.9322 " fill="none" style="stroke:#181818;stroke-width:4.0;"/><text fill="#000000" font-family="Chalkduster" font-size="24" lengthAdjust="spacing" textLength="269" x="273.14" y="420.7731">Preview 'Repository'</text></g><!--entity Obj1a--><g id="elem_Obj1a"><polygon fill="none" points="832.14,377.4322,832.14,377.6424,842.0289,377.0179,851.9178,377.6255,861.8067,377.8319,871.6956,376.7188,881.5844,377.3545,891.4733,377.0057,901.3622,377.0487,911.2511,377.3641,921.14,377.4322,921.0518,377.2193,921.5642,377.7492,921.7667,377.531,922.1754,377.8106,922.6093,378.151,922.9078,378.1644,922.8814,378.1535,923.0752,378.5267,923.1908,378.8675,923.4021,379.2479,923.5672,379.6092,923.64,379.9322,924.2257,379.9322,924.3111,389.0582,924.3193,398.1841,923.8946,407.3101,924.1036,416.4361,923.64,425.562,923.8563,425.6516,923.2715,425.8236,923.5561,426.3557,923.1093,426.5849,923.2186,427.0444,922.9078,427.3298,922.8446,427.1774,922.5455,427.4552,922.2953,427.8511,921.8409,427.7541,921.507,427.948,921.14,428.062,921.14,428.4007,911.2511,428.4783,901.3622,428.0581,891.4733,428.3493,881.5844,427.4896,871.6956,428.3464,861.8067,428.6102,851.9178,428.5066,842.0289,428.6751,832.14,428.062,832.0784,427.9133,831.7033,427.7148,831.3536,427.5778,831.0718,427.6046,830.7007,427.4157,830.3722,427.3298,830.5821,427.4167,830.172,426.954,829.9737,426.5789,830.0032,426.2983,829.5811,425.8305,829.64,425.562,829.1209,425.562,830.289,416.4361,830.0757,407.3101,830.3745,398.1841,829.3182,389.0582,829.64,379.9322,829.7383,379.9729,829.9683,379.654,829.7874,379.1648,830.0498,378.8593,830.2646,378.5341,830.3722,378.1644,830.4554,378.3652,830.7253,378.0167,831.1383,378.014,831.3623,377.5546,831.7001,377.3701,832.14,377.4322" style="stroke:#181818;stroke-width:4.0;"/><text fill="#000000" font-family="Chalkduster" font-size="24" lengthAdjust="spacing" textLength="74" x="839.64" y="411.2731">Obj1a</text></g><!--link api1 to p1a--><g id="link_api1_p1a"><path d="M161.93,846.9522 L161.9996,847.0146 L159.8033,844.6102 L158.0148,842.5714 L156.0936,840.4135 L153.7356,837.8642 L151.9822,835.8568 L151.9559,835.8343 L149.6504,833.1761 L147.4772,830.631 L145.396,828.1646 L142.9978,825.4271 L141.0436,823.0694 L141.2347,823.2243 L138.5058,820.0313 L136.3349,817.2906 L134.2321,814.6052 L131.7331,811.5986 L129.4425,808.7609 L129.4666,808.7792 L127.0441,805.6205 L124.7314,802.5454 L122.3658,799.43 L120.1012,796.3916 L117.507,793.1021 L117.7487,793.2768 L116.5535,791.6225 L115.2025,789.8554 L114.0796,788.2534 L112.9674,786.6591 L111.5164,784.8197 L111.2533,784.6367 L110.5738,783.2807 L109.0278,781.3221 L108.1405,779.8216 L106.5749,777.8494 L105.5653,776.2638 L105.5399,776.2469 L104.6654,774.685 L103.199,772.7286 L102.0818,771.005 L100.9939,769.3009 L99.6946,767.4558 L99.8507,767.5551 L98.5433,765.6471 L97.5026,763.9088 L96.0304,761.896 L95.2019,760.2926 L93.9454,758.417 L94.1539,758.543 L92.9971,756.6695 L91.9439,754.8586 L90.4096,752.757 L89.2279,750.8685 L88.3587,749.1688 L88.1188,749.0319 L87.2593,747.2685 L86.1295,745.3509 L85.3918,743.657 L83.9847,741.5812 L82.9755,739.7324 L82.8411,739.6605 L82.0372,737.8597 L80.6587,735.7514 L79.6889,733.8617 L79.1189,732.1861 L77.8368,730.1294 L78.0102,730.2157 L77.1585,728.3252 L75.7676,726.1663 L75.052,724.3436 L74.1893,722.4476 L72.9838,720.381 L72.7929,720.2935 L72.0397,718.3887 L71.224,716.4553 L70.5312,714.5782 L69.3608,712.4822 L68.4572,710.5085 L68.647,710.5876 L67.3983,708.4188 L66.5158,706.4027 L66.1685,704.6096 L64.836,702.4058 L64.2983,700.5334 L64.5102,700.6125 L63.6343,698.5542 L62.6866,696.4693 L61.9008,694.4447 L61.4891,692.5596 L60.548,690.477 L60.4215,690.4358 L60.1379,688.5354 L58.9942,686.3543 L58.8284,684.4924 L58.1121,682.4507 L57.2473,680.3607 L57.3522,680.3897 L56.7055,678.3353 L56.4345,676.3849 L55.8241,674.3405 L55.0717,672.2568 L54.4372,670.2058 L54.5535,670.2318 L53.9251,668.1587 L53.8366,666.2065 L53.1374,664.1175 L52.6894,662.0848 L52.1588,660.0336 L51.8922,659.9889 L51.6401,657.9702 L51.7092,656.0054 L51.3238,653.9644 L50.7754,651.896 L50.4531,649.8656 L50.3108,649.8502 L50.138,647.8266 L49.7131,645.7759 L49.9812,643.7998 L49.9063,641.7867 L49.3611,639.723 L49.5948,639.7331 L49.5822,637.7172 L49.1255,635.6821 L49.1374,633.6672 L48.8391,631.6389 L48.9238,629.6273 L49.05,629.6305 L49.0851,627.6246 L49.2726,625.6226 L48.9768,623.6081 L49.0708,621.6037 L49.1822,619.5997 L49.3774,619.627 L49.9855,615.6816 L50.0638,611.6621 L50.7577,607.7287 L51.4624,603.7968 L51.9503,599.8346 L51.688,599.7645 L52.6204,597.9362 L53.0977,595.9862 L53.4621,594.0061 L54.0847,592.095 L54.542,590.1397 L54.8465,590.2499 L55.1015,588.1842 L56.0543,586.3708 L56.7323,584.4582 L57.3516,582.5242 L57.9935,580.5985 L58.0503,580.6249 L58.9097,578.7465 L59.4829,576.735 L60.4434,574.9036 L61.2894,573.019 L62.3458,571.2322 L62.3704,571.2464 L63.4386,569.4178 L64.5258,567.6001 L65.4103,565.6655 L66.5552,563.8812 L67.64,562.0622 L67.596,562.0319 L69.5087,559.7972 L71.1111,557.349 L72.4344,554.709 L74.243,552.4026 L75.9271,550.0107 L75.726,549.8514 L77.8385,547.8035 L79.761,545.605 L81.5497,543.3006 L83.0191,540.7434 L84.9819,538.5768 L85.135,538.7149 L86.6886,536.1894 L88.952,534.3035 L90.7392,531.9885 L92.822,529.9399 L94.7421,527.7447 L94.817,527.8208 L96.97,525.8449 L98.6789,523.4182 L101.1324,521.7475 L103.1204,519.6041 L105.1455,517.4985 L105.2499,517.617 L107.562,515.8126 L109.5408,513.6298 L111.7876,511.7512 L113.9957,509.8287 L116.1298,507.8222 L116.1843,507.8909 L118.4302,505.9975 L120.9273,504.4209 L122.8633,502.1366 L125.4884,500.7214 L127.6329,498.7001 L127.4712,498.4748 L129.8848,496.7882 L132.4271,495.281 L134.816,493.56 L137.0728,491.6551 L139.5925,490.1162 L139.6929,490.2702 L142.0897,488.5444 L144.7105,487.1621 L147.1668,485.5276 L149.3666,483.5002 L151.9463,482.0547 L151.8558,481.9028 L154.454,480.4944 L157.1014,479.1685 L159.6494,477.6756 L162.1634,476.1257 L164.632,474.4997 L164.5593,474.3662 L167.3585,473.3351 L169.9491,471.9212 L172.3953,470.2426 L174.9456,468.7549 L177.5876,467.4353 L177.5077,467.2757 L180.1775,466.032 L182.8801,464.854 L185.4718,463.4543 L188.0349,461.9975 L190.7506,460.8456 L190.8412,461.0423 L193.3269,459.4341 L196.1673,458.596 L198.815,457.3395 L201.4664,456.091 L204.0589,454.7147 L204.1792,454.998 L206.6945,453.4765 L209.3632,452.3166 L212.1839,451.5142 L214.6683,449.9202 L217.4502,449.0268 L217.4123,448.93 L220.1514,448.0225 L222.8262,446.9509 L225.4393,445.722 L228.173,444.8004 L230.8624,443.766 L230.9752,444.0771 L233.6348,443.0671 L236.1203,441.5771 L238.8967,440.8891 L241.481,439.6717 L244.233,438.9165 L244.2293,438.9054 L246.9279,438.1491 L249.5992,437.3117 L252.0992,435.9638 L254.9033,435.5218 L257.5,434.4622 " fill="none" style="stroke:#8B0000;stroke-width:4.0;"/><polygon fill="#8B0000" points="261.98,432.7222,261.9878,432.7918,260.007,432.3669,258.0718,432.3502,256.1217,432.2005,254.123,431.6138,252.1917,431.6321,252.1797,431.6091,253.1308,432.0264,254.1419,432.5596,255.1948,433.1735,256.1037,433.5096,257.2142,434.2347,257.3781,434.3196,256.5072,435.1426,256.1147,436.2134,255.7805,437.3145,255.1068,438.2396,254.6116,439.2573,254.6267,439.2743,256.0782,437.9423,257.5985,436.6878,259.0855,435.3959,260.6359,434.1753,261.98,432.7222" style="stroke:#8B0000;stroke-width:4.0;"/><text fill="#000000" font-family="Chalkduster" font-size="24" lengthAdjust="spacing" textLength="497" x="68.64" y="602.4031">Checked out for editing / approval</text></g><!--link p1a to api1--><g id="link_p1a_api1"><path d="M457.81,432.9922 L457.8616,433.0701 L460.1335,434.446 L462.7079,436.2785 L465.1838,437.9622 L467.3357,439.1572 L469.9361,441.0288 L469.9163,441.0005 L472.3536,442.6398 L474.8907,444.4218 L477.4971,446.303 L479.8645,447.8424 L482.5668,449.8606 L482.7134,450.0581 L484.9776,451.5496 L487.67,453.6179 L490.4147,455.7566 L492.8554,457.4859 L495.456,459.4304 L495.4748,459.4542 L498.0275,461.4695 L500.6661,463.593 L503.2632,465.6642 L505.9394,467.835 L508.3578,469.6814 L508.5521,469.9077 L511.0882,472.0855 L513.4989,474.1173 L516.0931,476.3628 L518.6959,478.6183 L521.0263,480.5565 L520.807,480.3228 L523.6706,483.0648 L525.8118,485.0373 L528.5023,487.5948 L530.6272,489.5498 L533.2156,491.9986 L533.1936,491.9776 L535.7463,494.6172 L537.7856,496.7645 L540.1278,499.2023 L542.4954,501.6645 L544.6796,503.9508 L544.8209,504.0703 L546.7769,506.4307 L548.9742,508.9953 L550.7811,511.2296 L553.1704,513.9566 L555.1725,516.356 L555.3698,516.4989 L557.1876,519.0321 L559.1034,521.6363 L560.5641,523.9107 L562.3584,526.4268 L564.4483,529.1571 L564.2109,529.016 L565.9883,531.7717 L567.4983,534.3685 L569.3962,537.1959 L570.6317,539.6295 L572.261,542.2972 L572.1222,542.2341 L573.5741,545.0236 L574.4327,547.5433 L575.7132,550.2549 L577.4065,553.1542 L578.3647,555.7192 L578.5499,555.7755 L579.5068,558.5435 L579.8873,561.1364 L580.9897,563.9486 L581.9347,566.7131 L582.5134,569.3661 L582.3055,569.3368 L582.8608,572.1231 L583.348,574.8998 L583.969,577.6954 L584.0699,580.4177 L584.4613,583.1809 L584.6667,583.1883 L584.1155,585.9572 L583.9609,588.7404 L584.3856,591.5443 L583.7437,594.31 L583.9623,597.1065 L584.1828,597.1569 L583.4135,599.9229 L582.5695,602.6718 L581.8939,605.4592 L581.6077,608.3355 L580.7705,611.086 L580.6487,611.0325 L579.7853,613.9869 L578.0933,616.5778 L577.3435,619.5819 L576.0632,622.3534 L574.64,625.0622 L574.734,625.1171 L573.1678,627.6229 L571.9383,630.3254 L570.4046,632.8501 L568.7439,635.3006 L567.1886,637.8128 L567.2884,637.878 L565.5247,640.254 L564.2244,642.9326 L562.4,645.269 L560.7911,647.7461 L559.1115,650.177 L558.8924,650.0186 L557.233,652.4678 L555.8375,655.1079 L554.0686,657.4779 L552.1658,659.7512 L550.4488,662.1587 L550.3366,662.0697 L548.531,664.4188 L546.5267,666.6103 L545.0684,669.235 L543.3399,671.6453 L541.2409,673.7616 L541.4178,673.9147 L539.5319,676.2093 L537.3098,678.213 L535.4426,680.5237 L533.3404,682.6312 L531.5282,684.9895 L531.6203,685.0759 L529.5727,687.2359 L527.6364,689.5001 L525.3473,691.4337 L523.3428,693.634 L521.3509,695.8462 L521.4895,695.9863 L519.408,698.1233 L516.9501,699.88 L514.9294,702.0785 L512.9164,704.2848 L510.7494,706.3355 L510.5654,706.1359 L508.6588,708.4761 L506.433,710.4701 L504.1279,712.3779 L502.004,714.4825 L499.7641,716.4611 L499.9755,716.7064 L497.4075,718.3089 L495.3239,720.4735 L493.0496,722.4167 L490.7345,724.3127 L488.4351,726.2269 L488.4745,726.2756 L486.1404,728.148 L483.6078,729.7751 L481.3438,731.7342 L479.0004,733.5951 L476.803,735.6365 L476.8201,735.6591 L474.4477,737.4792 L472.0885,739.3167 L469.5876,740.9681 L467.2687,742.8586 L464.9079,744.6939 L464.8767,744.6505 L462.634,746.6439 L460.1714,748.3314 L457.5113,749.744 L455.1948,751.6347 L452.7902,753.4027 L452.6459,753.1906 L450.4023,755.1815 L448.0223,756.972 L445.5463,758.6213 L442.8414,759.9339 L440.4902,761.7668 L440.602,761.9401 L437.8229,763.094 L435.5617,765.0508 L432.953,766.4689 L430.56,768.2215 L428.0483,769.79 L428.1042,769.881 L425.6493,771.5061 L422.8638,772.5915 L420.6326,774.5817 L418.0549,776.0062 L415.5048,777.4759 L415.5844,777.6123 L413.1513,779.2335 L410.4641,780.419 L407.9812,781.9547 L405.4688,783.4399 L402.9,784.8285 L402.9426,784.9051 L400.3747,786.2327 L398.0032,787.9137 L395.1928,788.8054 L392.9215,790.6664 L390.2742,791.8514 L390.1441,791.6065 L387.6402,792.9787 L385.24,794.5459 L382.7162,795.8807 L380.0863,797.0156 L377.6677,798.5485 L377.751,798.7124 L375.1803,799.8666 L372.7953,801.3864 L370.274,802.6378 L367.5401,803.4709 L365.121,804.9235 L365.0436,804.7645 L362.6065,806.0832 L360.2114,807.4883 L357.7313,808.7186 L355.2221,809.8893 L352.6742,810.9803 L352.6099,810.8426 L350.3325,812.385 L347.8707,813.5324 L345.2814,814.4066 L342.7841,815.4778 L340.3677,816.7225 L340.2948,816.5597 L337.9036,817.7218 L335.5423,818.9509 L333.0798,819.9537 L330.5911,820.8983 L328.2419,822.1541 L328.3275,822.3531 L325.7803,822.9917 L323.5682,824.409 L321.174,825.4033 L318.7833,826.4056 L316.337,827.2787 L316.4548,827.5631 L313.9665,828.142 L311.6285,829.0838 L309.4391,830.3847 L306.9207,830.8908 L304.6934,832.1002 L304.6549,832.0036 L302.4441,833.0523 L300.168,833.9374 L297.8293,834.6655 L295.6128,835.7001 L293.3515,836.6223 L293.4702,836.9312 L291.2548,837.7366 L288.8564,838.0655 L286.764,839.1908 L284.4695,839.7903 L282.3514,840.8488 L282.3474,840.8378 L278.2334,842.4874 L274.0901,844.0567 L269.7625,845.12 L265.762,847.0812 L261.5385,848.4302 L261.5397,848.4337 L257.6668,849.4853 L253.8866,850.8097 L250.2084,852.4342 L246.4051,853.6908 L242.5771,854.8746 L242.5749,854.8676 L239.1292,855.6574 L235.9509,857.2884 L232.4629,857.9451 L229.0763,858.921 L225.79,860.2122 " fill="none" style="stroke:#8B0000;stroke-width:4.0;"/><polygon fill="#8B0000" points="221.46,861.8222,221.4686,861.8917,223.3981,861.9262,225.3778,862.3682,227.3412,862.6775,229.2508,862.5503,231.2349,863.0273,231.2227,863.0044,230.1696,862.3696,229.178,861.8499,228.2292,861.4104,227.1331,860.6948,226.2432,860.3658,226.406,860.4527,226.5901,859.2687,227.2496,858.3382,227.9671,857.4386,228.3471,856.3591,228.9047,855.3742,228.9195,855.3914,227.4088,856.6557,225.9658,857.9984,224.49,859.3033,223.0767,860.6802,221.46,861.8222" style="stroke:#8B0000;stroke-width:4.0;"/><text fill="#000000" font-family="Chalkduster" font-size="24" lengthAdjust="spacing" textLength="298" x="584.64" y="586.9031">Check in new version</text><text fill="#000000" font-family="Chalkduster" font-size="24" lengthAdjust="spacing" textLength="190" x="638.64" y="617.5329">or new object</text></g><!--link Obj1a to p1a--><g id="link_Obj1a_p1a"><path d="M879.65,377.0422 L879.7432,377.0478 L879.7034,373.0655 L880.2102,369.1158 L880.539,365.1555 L880.2824,361.1602 L880.8361,357.2134 L880.8016,357.2126 L880.7001,354.937 L880.7727,352.6655 L880.9663,350.3969 L880.7429,348.1185 L881.1035,345.8538 L881.3496,345.8549 L880.812,343.4288 L880.9927,341.006 L881.2611,338.5836 L881.0196,336.1588 L881.0463,333.7353 L881.0766,333.7364 L880.9395,331.1901 L880.9404,328.6487 L880.8748,326.1049 L880.9362,323.5657 L880.5835,321.0115 L880.881,321.0329 L880.6948,318.398 L880.3168,315.7493 L880.2196,313.1208 L880.1356,310.4933 L879.6345,307.8357 L879.316,307.7999 L879.631,305.1746 L878.8972,302.4313 L878.9607,299.7777 L878.2032,297.0317 L878.1186,294.3615 L878.0885,294.3567 L878.0114,291.6893 L877.2318,288.9104 L876.8667,286.1973 L876.5364,283.4897 L875.955,280.7422 L876.136,280.7807 L875.3749,278.0197 L874.923,275.3244 L873.9709,272.5228 L873.765,269.8798 L873.0629,267.1314 L873.2979,267.196 L872.5132,264.494 L871.8451,261.8241 L870.6352,259.0051 L869.8225,256.2953 L869.3617,253.6824 L869.101,253.5913 L868.4188,251.0471 L867.4428,248.4002 L866.8929,245.9022 L865.6155,243.15 L864.7706,240.5489 L864.631,240.4876 L863.7511,238.0567 L862.2745,235.3638 L861.2222,232.8572 L860.5852,230.533 L859.2088,227.8841 L859.3785,227.9773 L858.1722,225.6327 L856.4381,222.9982 L855.3652,220.7269 L854.1482,218.3764 L852.5955,215.8416 L852.4225,215.7226 L851.0113,213.5641 L849.5435,211.3666 L848.187,209.2456 L846.3977,206.8271 L844.8502,204.5748 L845.0055,204.7094 L842.8725,202.3461 L841.0394,200.2426 L839.6444,198.5188 L837.4427,196.096 L835.8919,194.2372 L836.0435,194.4051 L833.9031,192.4544 L831.7113,190.4468 L829.6354,188.5675 L827.827,186.9846 L825.64,184.9822 L825.5629,184.8738 L823.2913,183.417 L820.4952,181.223 L818.2956,179.8672 L815.7601,178.0394 L813.1341,176.0845 L813.1873,176.1795 L810.5821,174.6681 L808.1673,173.4968 L805.5804,172.0181 L802.9216,170.4111 L800.3225,168.9107 L800.3689,169.0205 L797.683,167.7517 L795.2125,166.9928 L792.4983,165.6573 L789.8844,164.5589 L787.2376,163.3826 L787.1606,163.1235 L784.5211,162.418 L781.9745,162.0247 L779.2966,161.1896 L776.5716,160.1962 L773.9119,159.4224 L773.8862,159.2815 L771.1876,158.8326 L768.4435,158.1342 L765.8245,158.1215 L763.1436,157.7694 L760.3778,156.9519 L760.3958,157.1852 L757.6596,157.0481 L754.8891,156.4678 L752.1548,156.3553 L749.3965,155.9332 L746.6678,155.8932 L746.6703,156.0194 L743.8993,156.0578 L741.1313,156.2486 L738.3537,155.9561 L735.5839,156.0534 L732.8144,156.1681 L732.8359,156.3641 L730.049,156.7249 L727.2038,156.554 L724.4264,157.0009 L721.6501,157.4586 L718.85,157.6988 L718.7986,157.4322 L716.0712,158.3947 L713.2545,158.8947 L710.4158,159.2798 L707.6276,159.9275 L704.8071,160.4071 L704.8916,160.7197 L701.953,161.0344 L699.208,162.0654 L696.3868,162.8143 L693.5493,163.503 L690.7181,164.215 L690.7384,164.2742 L687.914,165.2286 L684.9872,165.8843 L682.1989,166.9441 L679.3696,167.8845 L676.6156,169.0444 L676.6263,169.0707 L673.8137,170.2353 L671.0094,171.4202 L668.1163,172.3886 L665.3372,173.6351 L662.5319,174.8175 L662.509,174.7692 L659.835,176.377 L657,177.6443 L654.0202,178.6056 L651.2921,180.0991 L648.4995,181.4561 L648.3789,181.2296 L645.77,183.0544 L643.0472,184.6652 L640.2441,186.1254 L637.2497,187.2261 L634.5509,188.8821 L634.6555,189.0599 L631.6171,190.2247 L629.0631,192.213 L626.1841,193.6488 L623.5069,195.4276 L620.7186,197.0177 L620.7762,197.1076 L618.0951,198.9478 L615.0726,200.2551 L612.6224,202.4558 L609.8144,204.098 L607.035,205.7847 L607.1247,205.9147 L604.5233,207.9223 L601.6354,209.5149 L598.9778,211.4411 L596.2869,213.3191 L593.5326,215.1051 L593.5846,215.1757 L590.8746,217.064 L588.4045,219.2777 L585.3985,220.7645 L583.0506,223.144 L580.2438,224.9009 L580.073,224.6824 L577.4873,226.7504 L575.0376,228.9922 L572.4259,231.0268 L569.6747,232.8829 L567.201,235.0941 L567.3179,235.2361 L564.679,237.234 L562.3007,239.5484 L559.731,241.6305 L556.8631,243.3503 L554.4369,245.6066 L554.3213,245.4728 L551.9087,247.7139 L549.5589,250.0277 L547.082,252.1945 L544.5618,254.311 L541.9837,256.3604 L541.882,256.2476 L539.7512,258.7539 L537.3285,260.9365 L534.7039,262.8951 L532.2249,265.0152 L529.8741,267.2775 L529.752,267.1474 L527.4621,269.4084 L525.2223,271.723 L522.813,273.8567 L520.3601,275.9439 L518.1403,278.2798 L518.2913,278.4352 L515.7331,280.3355 L513.7658,282.8438 L511.4775,285.0217 L509.1953,287.206 L506.815,289.2894 L507.0332,289.5065 L504.5606,291.4001 L502.3665,293.5706 L500.4478,296.0153 L497.9194,297.8533 L495.9305,300.2281 L495.8557,300.1559 L493.8852,302.4218 L491.788,304.5653 L489.5692,306.5915 L487.5879,308.8468 L485.5194,311.018 L485.7608,311.2444 L483.7485,313.3278 L481.3639,315.062 L479.6016,317.3797 L477.4285,319.3122 L475.614,321.5811 L475.6054,321.5732 L473.8367,323.7205 L472.005,325.8102 L469.7756,327.5367 L468.2518,329.9076 L466.2469,331.8392 L466.2497,331.8417 L464.3033,333.6501 L462.572,335.65 L461.0774,337.8609 L459.2927,339.8132 L457.4504,341.7144 L457.4449,341.7096 L455.5865,343.4012 L454.3938,345.6721 L452.4299,347.272 L450.7188,349.0917 L449.2572,351.1287 L449.2343,351.1094 L446.5681,354.7243 L443.6874,358.1584 L440.6008,361.4189 L437.6481,364.7922 L434.81,368.2622 " fill="none" style="stroke:#8B0000;stroke-width:4.0;"/><polygon fill="#8B0000" points="431.18,371.6822,431.2114,371.7449,432.8793,370.6765,434.7311,369.9753,436.5231,369.1545,438.118,367.9405,439.9857,367.2708,439.9831,367.245,438.8458,367.2392,437.7212,367.3633,436.6054,367.5778,435.4592,367.4809,434.3555,367.8201,434.5392,367.838,434.0366,366.6737,434.0702,365.5616,434.1693,364.456,433.8876,363.3132,433.8062,362.19,433.8282,362.196,433.2707,364.0856,432.8131,366.0027,432.3073,367.9066,431.8934,369.8358,431.18,371.6822" style="stroke:#8B0000;stroke-width:4.0;"/><text fill="#000000" font-family="Chalkduster" font-size="24" lengthAdjust="spacing" textLength="71" x="655.14" y="137.2731">Draft</text></g><!--link p1a to CO--><g id="link_p1a_CO"><path d="M552.41,402.7522 L552.41,403.0325 L562.1399,402.1998 L571.8698,403.0099 L581.5998,403.2851 L591.3297,401.801 L601.0596,402.6486 L610.7895,402.1836 L620.5194,402.2409 L630.2493,402.6613 L639.9793,401.8304 L649.7092,403.4904 L659.4391,401.9118 L669.169,402.4885 L678.8989,403.3281 L688.6288,402.6378 L698.3588,402.7522 L698.3588,402.7825 L701.4461,402.738 L704.5335,402.8316 L707.6209,402.8585 L710.7083,403.0125 L713.7957,402.7522 L713.7957,403.0505 L715.2504,403.0541 L716.7051,402.8654 L718.1598,402.9582 L719.6145,403.0643 L721.0693,402.7522 L721.0693,402.4317 L721.7724,403.0538 L722.4756,402.6204 L723.1787,402.9895 L723.8819,402.5322 L724.5851,402.7522 L724.5851,402.7218 L724.7582,403.0818 L724.9314,402.7306 L725.1046,402.799 L725.2778,402.9027 L725.451,402.7522 " fill="none" style="stroke:#8B0000;stroke-width:4.0;"/><polygon fill="#8B0000" points="725.451,402.7522,725.4794,402.8162,723.5949,401.826,721.8771,401.2111,720.1051,400.474,718.1544,399.3349,716.451,398.7522,716.4326,398.7339,717.1504,399.4517,717.9606,400.2618,718.8349,401.1361,719.488,401.7893,720.451,402.7522,720.5814,402.8827,719.5024,403.4037,718.8043,404.3056,718.1528,405.254,717.2307,405.932,716.451,406.7522,716.4602,406.773,718.2466,405.9425,720.0751,405.2066,721.8833,404.4251,723.7302,403.7306,725.451,402.7522" style="stroke:#8B0000;stroke-width:4.0;"/><text fill="#000000" font-family="Chalkduster" font-size="24" lengthAdjust="spacing" textLength="174" x="578.21" y="392.5931">More editing</text></g><!--link api1 to stor1--><g id="link_api1_stor1"><path d="M184.26,904.1322 L184.3533,904.1364 L183.8491,909.2099 L183.8919,914.3077 L183.7565,919.3977 L183.0353,924.4615 L183.1251,929.5615 L183.0906,929.5599 L182.8071,932.4334 L182.6975,935.3147 L182.7089,938.2013 L182.3036,941.0694 L182.4819,943.9635 L182.7277,943.9745 L182.135,945.4509 L182.2601,946.9594 L182.4727,948.4719 L182.1758,949.9615 L182.1469,951.4632 L182.1772,951.4645 L182.1242,951.6523 L182.2092,951.8463 L182.2276,952.0372 L182.373,952.2339 L182.1045,952.4121 " fill="none" style="stroke:#8B0000;stroke-width:4.0;"/><polygon fill="#8B0000" points="184.53,899.1622,184.5927,899.1936,183.5251,900.862,182.8249,902.7142,182.0051,904.5066,180.7919,906.1022,180.1232,907.9702,180.1057,907.951,180.863,907.1025,181.7084,906.3505,182.615,905.6655,183.3106,904.7494,184.3017,904.157,184.438,904.2814,184.9091,904.8511,185.7782,905.784,186.6959,906.7611,187.3311,907.4805,188.1148,908.3355,188.136,908.3438,187.3879,906.497,186.7363,904.6878,186.0382,902.8605,185.4288,901.0679,184.53,899.1622" style="stroke:#8B0000;stroke-width:4.0;"/><polygon fill="#8B0000" points="182.1045,952.4121,182.1672,952.4433,182.8604,950.5879,183.9212,948.9158,184.8623,947.184,185.4099,945.2559,186.5022,943.5995,186.4847,943.5804,185.5713,944.2581,184.7461,945.0322,183.9821,945.8733,183.007,946.4835,182.3276,947.417,182.4638,947.5416,181.4091,946.4403,180.752,945.7027,180.1434,945.0095,179.2525,944.0581,178.5101,943.2425,178.5313,943.2508,179.2191,945.0725,180.0033,946.932,180.741,948.7733,181.5674,950.6494,182.1045,952.4121" style="stroke:#8B0000;stroke-width:4.0;"/></g><!--SRC=[TL8zJyCm4DtzAuuiXI6jmbXLbQgKWG6b0YGM9EGcryGqjQFpjQ52_U_OJbE2W0oMpk_kVPnpfNHUxmjysqbzXF5uKaYMiIjaYJlK75i-rZZc3nQ25TSuXKLHA5r2jdx7d2tihQzIaenn1jVFsJAx4UGWgSiQ8Nh4nbZ5XexGAgwWCSIoZW2a1Kbv1RCPNLhcS_WK0W324Ru1rM9r7uMnHYMXoUFUy5fQ1pyv1cSRaj1aNPKujZzud7NNymzo6mNW54vn4iCiTuLYd_R5qDOsCiSk1gDb5wFjRqCA-6bkHNXGsCBeUn-ZuBD9PD_TQNR6n2NWGB_VilTXg1DFiq78Np5bdqRuA4BurK4SaoehZkDvK9z2Mc6-nGBCdc5Z2F2SS-9MtP0vo5e4CZWFzdDBaXiMpH18ioay6CAU8w1EiJ2jzeB1m5aHb0RjTd90iiheL-saVMt2hzLvdNMJy-uznHS0]--></g></svg>