<?xml version="1.0" encoding="us-ascii" standalone="no"?><svg xmlns="http://www.w3.org/2000/svg" xmlns:xlink="http://www.w3.org/1999/xlink" contentStyleType="text/css" height="760px" preserveAspectRatio="none" style="width:1099px;height:760px;background:#FFFFFF;" version="1.1" viewBox="0 0 1099 760" width="1099px" zoomAndPan="magnify"><defs/><g><!--cluster RO-Crate Profiles--><g id="cluster_RO-Crate Profiles"><polygon fill="#E6E6FA" points="9.5,9.2889,9.5,9.4991,19.5093,8.8746,29.5185,9.4822,39.5278,9.6886,49.537,8.5756,59.5463,9.2112,69.5556,8.8625,79.5648,8.9055,89.5741,9.2208,99.5833,8.5976,109.5926,9.8426,119.6019,8.6587,129.6111,9.0912,139.6204,9.7209,149.6296,9.2032,159.6389,9.3572,169.6481,9.257,179.6574,9.4675,189.6667,9.5281,199.6759,9.8746,209.6852,9.96,219.6944,9.9682,229.7037,9.5436,239.713,9.7525,249.7222,9.9912,259.7315,8.5678,269.7407,9.9675,279.75,8.9924,289.7593,9.8228,299.7685,8.7939,309.7778,9.2205,319.787,10.0306,329.7963,9.2402,339.8056,9.3943,349.8148,9.6276,359.8241,9.7052,369.8333,9.285,379.8426,9.5762,389.8519,8.7165,399.8611,9.5733,409.8704,9.8371,419.8796,9.7335,429.8889,9.902,439.8981,8.8059,449.9074,8.6368,459.9167,8.6675,469.9259,9.2301,479.9352,9.0924,489.9444,9.9704,499.9537,9.1143,509.963,8.9459,519.9722,9.5172,529.9815,8.6221,539.9907,8.7698,550,9.9379,560.0093,9.7246,570.0185,10.0234,580.0278,8.9672,590.037,9.6081,600.0463,9.8794,610.0556,8.8165,620.0648,9.1931,630.0741,9.4149,640.0833,9.9407,650.0926,9.2848,660.1019,9.7515,670.1111,8.7352,680.1204,8.6117,690.1296,9.7926,700.1389,8.572,710.1481,9.7979,720.1574,9.4956,730.1667,9.021,740.1759,8.9352,750.1852,9.7477,760.1944,8.9896,770.2037,9.8808,780.213,8.7362,790.2222,9.9064,800.2315,9.7733,810.2407,9.5339,820.25,9.3362,830.2593,10.0156,840.2685,9.9025,850.2778,9.4582,860.287,9.5571,870.2963,9.1587,880.3056,10.0054,890.3148,9.4438,900.3241,9.4615,910.3333,8.6806,920.3426,8.8837,930.3519,9.8197,940.3611,9.7187,950.3704,9.246,960.3796,8.9668,970.3889,9.07,980.3981,8.6028,990.4074,9.7037,1000.4167,10.0285,1010.4259,9.8153,1020.4352,9.9839,1030.4444,9.1522,1040.4537,9.3762,1050.463,8.9014,1060.4722,9.573,1070.4815,9.5357,1080.4907,9.8413,1090.5,9.2889,1090.4707,9.2182,1090.8364,9.394,1091.2637,9.7184,1091.633,9.903,1091.8488,9.7169,1092.2678,10.0212,1092.2081,9.9965,1092.4602,10.3938,1092.3725,10.6504,1092.8159,11.1269,1092.933,11.4683,1093,11.7889,1092.8992,11.7889,1093.1422,21.791,1093.7287,31.793,1092.6871,41.795,1093.315,51.7971,1093.2856,61.7991,1093.1158,71.8011,1093.1409,81.8031,1093.1135,91.8052,1092.3758,101.8072,1092.5992,111.8092,1092.5385,121.8112,1093.0638,131.8133,1093.0881,141.8153,1093.1617,151.8173,1092.709,161.8194,1092.9325,171.8214,1092.8798,181.8234,1093.5769,191.8254,1093.4266,201.8275,1092.5145,211.8295,1092.9271,221.8315,1092.4228,231.8335,1093.2884,241.8356,1093.6085,251.8376,1093.5446,261.8396,1092.5644,271.8417,1093.464,281.8437,1092.2572,291.8457,1093.2002,301.8477,1092.7007,311.8498,1093.0967,321.8518,1093.2403,331.8538,1093.4721,341.8558,1092.2801,351.8579,1093.4755,361.8599,1093.1782,371.8619,1093.3553,381.8639,1093.7478,391.866,1093.0055,401.868,1093.1753,411.87,1093.2134,421.8721,1093.1972,431.8741,1092.9992,441.8761,1093.7107,451.8781,1092.3903,461.8802,1093.5653,471.8822,1092.376,481.8842,1092.4597,491.8862,1093.04,501.8883,1093.0283,511.8903,1092.5072,521.8923,1093.4137,531.8944,1093.1089,541.8964,1093.7267,551.8984,1093.6671,561.9004,1092.5517,571.9025,1092.6021,581.9045,1092.8708,591.9065,1093.3555,601.9085,1093.403,611.9106,1093.3012,621.9126,1092.658,631.9146,1093.6364,641.9167,1093.6338,651.9187,1092.9527,661.9207,1092.7609,671.9227,1092.5986,681.9248,1092.7854,691.9268,1093.1374,701.9288,1092.9316,711.9308,1092.5822,721.9329,1093.4874,731.9349,1092.5411,741.9369,1093,751.9389,1093.1547,752.003,1092.9851,752.347,1092.8216,752.6935,1092.7739,753.0879,1092.3385,753.3218,1092.2678,753.7067,1092.2294,753.6141,1091.9804,754.013,1091.4845,753.8158,1091.1773,754.074,1090.8683,754.3281,1090.5,754.4389,1090.5,754.5076,1080.4907,754.0805,1070.4815,754.396,1060.4722,755.1835,1050.463,755.0874,1040.4537,753.8427,1030.4444,754.5175,1020.4352,753.925,1010.4259,754.4126,1000.4167,754.7319,990.4074,754.8588,980.3981,753.7742,970.3889,754.8395,960.3796,754.4474,950.3704,753.8836,940.3611,753.9679,930.3519,754.7655,920.3426,754.6888,910.3333,754.4225,900.3241,753.7668,890.3148,755.0971,880.3056,754.1271,870.2963,753.9109,860.287,754.3716,850.2778,755.0287,840.2685,755.0544,830.2593,754.4741,820.25,754.2878,810.2407,754.6087,800.2315,754.6252,790.2222,753.9312,780.213,754.8529,770.2037,754.9978,760.1944,754.2232,750.1852,754.0098,740.1759,755.1136,730.1667,754.46,720.1574,754.4388,710.1481,754.738,700.1389,753.7933,690.1296,754.9689,680.1204,754.4235,670.1111,755.1078,660.1019,754.2231,650.0926,754.8479,640.0833,753.995,630.0741,754.684,620.0648,754.8182,610.0556,754.1116,600.0463,754.802,590.037,753.8675,580.0278,753.9685,570.0185,755.1218,560.0093,755.1233,550,755.0074,539.9907,754.0786,529.9815,754.8232,519.9722,753.9669,509.963,754.4971,499.9537,754.4377,489.9444,754.1765,479.9352,755.0549,469.9259,754.8822,459.9167,754.1182,449.9074,754.9656,439.8981,754.5308,429.8889,753.8554,419.8796,754.2056,409.8704,753.9137,399.8611,754.2999,389.8519,753.81,379.8426,753.8388,369.8333,754.5093,359.8241,754.3186,349.8148,754.3804,339.8056,754.2958,329.7963,754.6063,319.787,753.8839,309.7778,754.599,299.7685,753.6958,289.7593,754.735,279.75,755.0317,269.7407,754.961,259.7315,754.8003,249.7222,754.6312,239.713,754.5447,229.7037,753.7989,219.6944,754.8855,209.6852,754.7686,199.6759,754.2856,189.6667,754.4332,179.6574,754.2304,169.6481,754.6566,159.6389,755.1195,149.6296,754.085,139.6204,754.9078,129.6111,754.3497,119.6019,754.0597,109.5926,754.0071,99.5833,753.7943,89.5741,753.9981,79.5648,754.4752,69.5556,754.7119,59.5463,755.0152,49.537,754.859,39.5278,753.7276,29.5185,755.058,19.5093,754.9251,9.5,754.4389,9.569,754.6055,9.213,754.4532,8.7088,753.9431,8.4065,753.9202,8.1261,753.9505,7.7322,753.7067,7.584,753.6453,7.5541,753.34,7.46,753.0082,7.3933,752.6877,7.1605,752.2983,7,751.9389,7.7447,751.9389,7.4114,741.9369,7.2561,731.9349,6.4601,721.9329,7.3388,711.9308,6.4255,701.9288,7.3057,691.9268,7.0078,681.9248,7.2995,671.9227,6.9126,661.9207,6.8039,651.9187,6.2591,641.9167,6.7856,631.9146,6.2951,621.9126,6.7539,611.9106,7.4379,601.9085,7.1607,591.9065,6.5485,581.9045,7.2458,571.9025,7.0656,561.9004,7.5433,551.8984,7.5649,541.8964,7.0937,531.8944,6.821,521.8923,6.7855,511.8903,6.9936,501.8883,7.6691,491.8862,6.3263,481.8842,6.8361,471.8822,7.2668,461.8802,7.7317,451.8781,7.2119,441.8761,6.8018,431.8741,6.2621,421.8721,6.5762,411.87,6.7781,401.868,7.3398,391.866,7.3695,381.8639,7.0518,371.8619,6.867,361.8599,6.2804,351.8579,7.129,341.8558,7.4354,331.8538,7.6829,321.8518,7.0983,311.8498,7.0799,301.8477,6.7798,291.8457,7.2487,281.8437,6.53,271.8417,7.5161,261.8396,6.6943,251.8376,6.4698,241.8356,7.2569,231.8335,7.4718,221.8315,7.0573,211.8295,6.8789,201.8275,7.1579,191.8254,6.9753,181.8234,6.9049,171.8214,7.0769,161.8194,6.668,151.8173,7.3895,141.8153,7.6875,131.8133,6.6464,121.8112,6.7656,111.8092,6.5314,101.8072,7.2369,91.8052,6.9062,81.8031,7.5514,71.8011,6.6998,61.7991,6.6411,51.7971,7.2968,41.795,6.7755,31.793,7.2669,21.791,7,11.7889,7.0861,11.8246,7.2807,11.491,7.1436,11.02,7.4664,10.7395,7.7506,10.443,7.7322,10.0212,7.663,9.8539,8.1501,10.0301,8.396,9.6237,8.8129,9.6301,9.2297,9.6364,9.5,9.2889" style="stroke:#181818;stroke-width:4.0;"/><text fill="#000000" font-family="Chalkduster" font-size="24" font-style="italic" lengthAdjust="spacing" textLength="170" x="465" y="35.1298">&#171;standards&#187;</text><text fill="#000000" font-family="Chalkduster" font-size="24" font-weight="bold" lengthAdjust="spacing" textLength="245" x="427.5" y="65.7597">RO-Crate Profiles</text></g><!--cluster prof--><g id="cluster_prof"><polygon fill="none" points="41.5,184.9189,41.5,185.1291,51.4706,184.5046,61.4412,185.1122,71.4118,185.3186,81.3824,184.2056,91.3529,184.8412,101.3235,184.4925,111.2941,184.5355,121.2647,184.8508,131.2353,184.2276,141.2059,185.4726,151.1765,184.2887,161.1471,184.7212,171.1176,185.3509,181.0882,184.8332,191.0588,184.9872,201.0294,184.887,211,185.0975,220.9706,185.1581,230.9412,185.5046,240.9118,185.59,250.8824,185.5982,260.8529,185.1736,270.8235,185.3825,280.7941,185.6212,290.7647,184.1978,300.7353,185.5975,310.7059,184.6224,320.6765,185.4528,330.6471,184.4239,340.6176,184.8505,350.5882,185.6606,360.5588,184.8702,370.5294,185.0243,380.5,185.2576,390.4706,185.3352,400.4412,184.915,410.4118,185.2062,420.3824,184.3465,430.3529,185.2033,440.3235,185.4671,450.2941,185.3635,460.2647,185.532,470.2353,184.4359,480.2059,184.2668,490.1765,184.2975,500.1471,184.8601,510.1176,184.7224,520.0882,185.6004,530.0588,184.7443,540.0294,184.5759,550,185.1472,559.9706,184.2521,569.9412,184.3998,579.9118,185.5679,589.8824,185.3546,599.8529,185.6534,609.8235,184.5972,619.7941,185.2381,629.7647,185.5094,639.7353,184.4465,649.7059,184.8231,659.6765,185.0449,669.6471,185.5707,679.6176,184.9148,689.5882,185.3815,699.5588,184.3652,709.5294,184.2417,719.5,185.4226,729.4706,184.202,739.4412,185.4279,749.4118,185.1256,759.3824,184.651,769.3529,184.5652,779.3235,185.3777,789.2941,184.6196,799.2647,185.5108,809.2353,184.3662,819.2059,185.5364,829.1765,185.4033,839.1471,185.1639,849.1176,184.9662,859.0882,185.6456,869.0588,185.5325,879.0294,185.0882,889,185.1871,898.9706,184.7887,908.9412,185.6354,918.9118,185.0738,928.8824,185.0915,938.8529,184.3106,948.8235,184.5137,958.7941,185.4497,968.7647,185.3487,978.7353,184.876,988.7059,184.5968,998.6765,184.7,1008.6471,184.2328,1018.6176,185.3337,1028.5882,185.6585,1038.5588,185.4453,1048.5294,185.6139,1058.5,184.9189,1058.4826,184.8768,1058.8647,185.0923,1059.1577,185.0925,1059.5969,185.4458,1059.9457,185.5807,1060.2678,185.6512,1060.4379,185.7216,1060.3435,185.9754,1060.5193,186.3411,1060.8437,186.7684,1061.0283,187.1378,1061,187.4189,1060.4875,187.4189,1060.8061,197.1597,1061.1493,206.9005,1060.3892,216.6413,1061.3534,226.382,1061.258,236.1228,1060.8992,245.8636,1061.1422,255.6043,1061.7287,265.3451,1060.6871,275.0859,1061.315,284.8266,1061.2856,294.5674,1061.1158,304.3082,1061,314.0489,1061.0434,314.0669,1060.8885,314.417,1060.5149,314.6764,1060.4372,315.0585,1060.2721,315.4043,1060.2678,315.8167,1060.2759,315.8364,1059.9255,315.9903,1059.5813,316.1594,1059.17,316.1664,1058.8449,316.3817,1058.5,316.5489,1058.5,316.4287,1048.5294,317.1258,1038.5588,316.9755,1028.5882,316.0634,1018.6176,316.476,1008.6471,315.9717,998.6765,316.8373,988.7059,317.1574,978.7353,317.0935,968.7647,316.1134,958.7941,317.0129,948.8235,315.8061,938.8529,316.7491,928.8824,316.2496,918.9118,316.6457,908.9412,316.7893,898.9706,317.0211,889,315.829,879.0294,317.0244,869.0588,316.7271,859.0882,316.9043,849.1176,317.2968,839.1471,316.5544,829.1765,316.7242,819.2059,316.7624,809.2353,316.7462,799.2647,316.5481,789.2941,317.2597,779.3235,315.9392,769.3529,317.1142,759.3824,315.9249,749.4118,316.0086,739.4412,316.589,729.4706,316.5772,719.5,316.0561,709.5294,316.9627,699.5588,316.6578,689.5882,317.2756,679.6176,317.2161,669.6471,316.1007,659.6765,316.151,649.7059,316.4198,639.7353,316.9045,629.7647,316.9519,619.7941,316.8501,609.8235,316.207,599.8529,317.1853,589.8824,317.1827,579.9118,316.5017,569.9412,316.3099,559.9706,316.1476,550,316.3344,540.0294,316.6864,530.0588,316.4806,520.0882,316.1312,510.1176,317.0363,500.1471,316.09,490.1765,317.0513,480.2059,316.9762,470.2353,316.9208,460.2647,317.2414,450.2941,316.3031,440.3235,316.2483,430.3529,317.0678,420.3824,315.9521,410.4118,316.315,400.4412,316.6644,390.4706,316.6176,380.5,316.1905,370.5294,316.506,360.5588,317.2935,350.5882,317.1974,340.6176,315.9527,330.6471,316.6275,320.6765,316.035,310.7059,316.5226,300.7353,316.8419,290.7647,316.9688,280.7941,315.8842,270.8235,316.9495,260.8529,316.5574,250.8824,315.9936,240.9118,316.0779,230.9412,316.8755,220.9706,316.7988,211,316.5325,201.0294,315.8768,191.0588,317.2071,181.0882,316.2371,171.1176,316.0209,161.1471,316.4816,151.1765,317.1387,141.2059,317.1644,131.2353,316.5841,121.2647,316.3978,111.2941,316.7187,101.3235,316.7352,91.3529,316.0412,81.3824,316.9629,71.4118,317.1078,61.4412,316.3332,51.4706,316.1198,41.5,316.5489,41.5861,316.7567,41.1491,316.409,40.7929,316.256,40.4775,316.2017,40.0034,315.7643,39.7322,315.8167,39.8954,315.8843,39.581,315.4612,39.6453,315.1949,39.2264,314.7285,39.2724,314.4547,39,314.0489,38.556,314.0489,39.245,304.3082,39.3793,294.5674,38.6727,284.8266,39.363,275.0859,38.4286,265.3451,38.5295,255.6043,39.6828,245.8636,39.6844,236.1228,39.5685,226.382,38.6396,216.6413,39.3842,206.9005,38.5279,197.1597,39,187.4189,39.0179,187.4264,39.1461,187.0652,39.2121,186.6784,39.629,186.4369,39.7223,186.0613,39.7322,185.6512,39.6913,185.5524,40.153,185.6669,40.4511,185.3866,40.7185,185.0321,41.1167,184.9935,41.5,184.9189" style="stroke:#181818;stroke-width:4.0;"/><text fill="#000000" font-family="Chalkduster" font-size="24" font-weight="bold" lengthAdjust="spacing" textLength="737" x="181.5" y="210.7598">Language Data Commons RO-Crate Profile Document</text></g><!--entity eprof--><g id="elem_eprof"><polygon fill="none" points="369,402.5489,369,402.7591,379,402.1346,389,402.7422,399,402.9486,409,401.8356,419,402.4712,429,402.1225,439,402.1655,449,402.4808,459,401.8576,469,403.1026,479,401.9187,489,402.3512,499,402.9809,509,402.4632,519,402.6172,529,402.517,539,402.7275,549,402.7881,559,403.1346,569,403.22,579,403.2282,589,402.8036,599,403.0125,609,403.2512,619,401.8278,629,403.2275,639,402.5489,638.9622,402.4576,639.4216,402.8598,639.644,402.6894,640.0519,402.9672,640.5088,403.3631,640.7678,403.2812,640.7528,403.275,640.9466,403.6482,641.1649,404.0315,641.3353,404.3949,641.3524,404.6949,641.5,405.0489,641.7872,405.0489,640.9276,414.1749,641.7844,423.3009,642.0482,432.4268,641.9445,441.5528,641.5,450.6788,641.6888,450.757,641.2048,450.9707,641.0063,451.3027,640.8693,451.6602,640.8961,452.0855,640.7678,452.4466,640.7427,452.386,640.5011,452.8028,640.0384,452.6856,639.6633,452.7802,639.3827,453.1026,639,453.1788,639,452.5119,629,452.6597,619,453.8277,609,453.6145,599,453.9133,589,452.857,579,453.498,569,453.7692,559,452.7064,549,453.0829,539,453.3048,529,453.8305,519,453.1746,509,453.6414,499,452.625,489,452.5015,479,453.6824,469,452.4618,459,453.6877,449,453.3854,439,452.9109,429,452.825,419,453.6375,409,452.8795,399,453.7706,389,452.626,379,453.7962,369,453.1788,369.0618,453.3279,368.6777,453.1078,368.2989,452.9004,368.032,452.9632,367.6641,452.782,367.2322,452.4466,367.2844,452.4681,367.1684,452.1272,366.8992,451.7228,367.0135,451.4773,366.6941,451.0521,366.5,450.6788,366.6726,450.6788,365.8916,441.5528,366.0948,432.4268,367.0307,423.3009,366.9298,414.1749,366.5,405.0489,366.4868,405.0435,366.5472,404.6543,366.7255,404.3139,366.728,403.9008,367.2135,403.6876,367.2322,403.2812,367.3266,403.5089,367.6529,403.2968,368.028,403.2023,368.2755,402.7997,368.6576,402.7223,369,402.5489" style="stroke:#181818;stroke-width:4.0;"/><text fill="#000000" font-family="Chalkduster" font-size="24" lengthAdjust="spacing" textLength="255" x="376.5" y="436.3898">Crate-O Mode File</text></g><!--entity lsoss--><g id="elem_lsoss"><polygon fill="none" points="375.5,545.1789,375.5,545.3891,385.5164,544.7646,395.5328,545.3722,405.5492,545.5786,415.5656,544.4656,425.582,545.1012,435.5984,544.7525,445.6148,544.7955,455.6311,545.1108,465.6475,544.4876,475.6639,545.7326,485.6803,544.5487,495.6967,544.9812,505.7131,545.6109,515.7295,545.0932,525.7459,545.2472,535.7623,545.147,545.7787,545.3575,555.7951,545.4181,565.8115,545.7646,575.8279,545.85,585.8443,545.8582,595.8607,545.4336,605.877,545.6425,615.8934,545.8812,625.9098,544.4578,635.9262,545.8575,645.9426,544.8824,655.959,545.7128,665.9754,544.6839,675.9918,545.1105,686.0082,545.9206,696.0246,545.1302,706.041,545.2843,716.0574,545.5176,726.0738,545.5952,736.0902,545.175,746.1066,545.4662,756.123,544.6065,766.1393,545.4633,776.1557,545.7271,786.1721,545.6235,796.1885,545.792,806.2049,544.6959,816.2213,544.5268,826.2377,544.5575,836.2541,545.1201,846.2705,544.9824,856.2869,545.8604,866.3033,545.0043,876.3197,544.8359,886.3361,545.4072,896.3525,544.5121,906.3689,544.6598,916.3852,545.8279,926.4016,545.6146,936.418,545.9134,946.4344,544.8572,956.4508,545.4981,966.4672,545.7694,976.4836,544.7065,986.5,545.1789,986.4878,545.1494,986.8696,545.3642,987.2902,545.6726,987.5601,545.617,987.9732,545.9072,988.2678,545.9112,988.0972,545.8405,988.2056,546.1783,988.7158,546.6825,988.4863,546.8804,989.0103,547.3903,989,547.6789,989.2066,547.6789,988.7321,556.8049,988.6462,565.9309,989.4588,575.0568,988.7007,584.1828,989,593.3088,989.1823,593.3843,988.6833,593.5918,988.8972,594.0946,988.7098,594.4312,988.4897,594.7542,988.2678,595.0766,988.2738,595.0911,988.0069,595.4468,987.6389,595.5584,987.2287,595.568,986.8878,595.7449,986.5,595.8088,986.5,595.6785,976.4836,596.5252,966.4672,595.9637,956.4508,595.9814,946.4344,595.2004,936.418,595.4036,926.4016,596.3395,916.3852,596.2385,906.3689,595.7659,896.3525,595.4866,886.3361,595.5899,876.3197,595.1226,866.3033,596.2235,856.2869,596.5483,846.2705,596.3352,836.2541,596.5037,826.2377,595.6721,816.2213,595.896,806.2049,595.4212,796.1885,596.0928,786.1721,596.0555,776.1557,596.3612,766.1393,595.5791,756.123,595.6744,746.1066,596.2522,736.0902,596.3761,726.0738,595.2963,716.0574,595.6149,706.041,595.958,696.0246,595.1979,686.0082,596.1622,675.9918,596.0668,665.9754,595.708,655.959,595.951,645.9426,596.5375,635.9262,595.4959,625.9098,596.1238,615.8934,596.0944,605.877,595.9246,595.8607,595.9497,585.8443,595.9223,575.8279,595.1846,565.8115,595.408,555.7951,595.3472,545.7787,595.8726,535.7623,595.8969,525.7459,595.9705,515.7295,595.5178,505.7131,595.7413,495.6967,595.6886,485.6803,596.3856,475.6639,596.2353,465.6475,595.3232,455.6311,595.7359,445.6148,595.2316,435.5984,596.0972,425.582,596.4173,415.5656,596.3533,405.5492,595.3732,395.5328,596.2728,385.5164,595.066,375.5,595.8088,375.5255,595.8704,375.1083,595.5702,374.8052,595.5457,374.47,595.4435,374.146,595.3684,373.7322,595.0766,373.5105,594.9847,373.7322,594.7836,373.4942,594.3922,373.4023,594.0612,373.3767,593.7577,373,593.3088,373.0055,593.3088,373.1753,584.1828,373.2134,575.0568,373.1972,565.9309,372.9992,556.8049,373,547.6789,373.2189,547.7696,372.9587,547.2476,373.467,547.044,373.2472,546.5387,373.4194,546.1958,373.7322,545.9112,373.7373,545.9235,374.0894,545.7734,374.3765,545.4665,374.8457,545.5993,375.1603,545.3589,375.5,545.1789" style="stroke:#181818;stroke-width:4.0;"/><text fill="#000000" font-family="Chalkduster" font-size="24" lengthAdjust="spacing" textLength="596" x="383" y="579.0198">Language Data Commons Metadata Schema</text></g><!--entity soss--><g id="elem_soss"><polygon fill="none" points="356,687.8089,356,688.0191,366,687.3946,376,688.0022,386,688.2086,396,687.0956,406,687.7312,416,687.3825,426,687.4255,436,687.7408,446,687.1176,456,688.3626,466,687.1787,476,687.6112,486,688.2409,496,687.7232,506,687.8772,516,687.777,526,687.9875,536,688.0481,546,688.3946,556,688.48,566,688.4882,576,688.0636,586,688.2725,596,688.5112,606,687.0878,616,688.4875,626,687.5124,636,688.3428,646,687.3139,656,687.7405,666,688.5506,676,687.7602,686,687.9143,696,688.1476,706,688.2252,716,687.805,726,688.0962,736,687.2365,746,688.0933,756,688.3571,766,688.2535,776,688.422,786,687.3259,796,687.1568,806,687.1875,816,687.7501,826,687.6124,836,688.4904,846,687.6343,856,687.4659,866,688.0372,876,687.1421,886,687.2898,896,688.4579,906,688.2446,916,688.5434,926,687.4872,936,688.1281,946,688.3994,956,687.3365,966,687.7131,976,687.9349,986,688.4607,996,687.8048,1006,687.8089,1006.059,687.9514,1006.2829,687.7849,1006.6207,687.8933,1007.1249,688.4034,1007.3228,688.1739,1007.7678,688.5412,1007.9245,688.6061,1007.9778,688.9211,1007.9782,689.2141,1008.0982,689.5567,1008.4948,690.0139,1008.5,690.3089,1008.2007,690.3089,1009.0919,699.4349,1007.9473,708.5609,1009.1174,717.6868,1008.9843,726.8128,1008.5,735.9388,1008.5754,735.97,1008.3681,736.2984,1008.4309,736.7386,1008.2496,737.0777,1007.9663,737.3746,1007.7678,737.7066,1007.802,737.7891,1007.3976,737.8129,1007.1521,738.2201,1006.7269,738.1936,1006.3756,738.3455,1006,738.4388,1006,737.8304,996,738.0336,986,738.9695,976,738.8685,966,738.3959,956,738.1166,946,738.2199,936,737.7526,926,738.8535,916,739.1783,906,738.9652,896,739.1337,886,738.3021,876,738.526,866,738.0512,856,738.7228,846,738.6855,836,738.9912,826,738.2091,816,738.3044,806,738.8822,796,739.0061,786,737.9263,776,738.2449,766,738.588,756,737.8279,746,738.7922,736,738.6968,726,738.338,716,738.581,706,739.1675,696,738.1259,686,738.7538,676,738.7244,666,738.5546,656,738.5797,646,738.5523,636,737.8146,626,738.038,616,737.9772,606,738.5026,596,738.5269,586,738.6005,576,738.1478,566,738.3713,556,738.3186,546,739.0156,536,738.8653,526,737.9532,516,738.3659,506,737.8616,496,738.7272,486,739.0473,476,738.9833,466,738.0032,456,738.9028,446,737.696,436,738.6389,426,738.1395,416,738.5355,406,738.6791,396,738.9109,386,737.7189,376,738.9143,366,738.617,356,738.4388,356.0453,738.5482,355.7418,738.5226,355.2936,738.1476,354.9617,738.0534,354.613,737.9187,354.2322,737.7066,354.293,737.7317,354.0855,737.3529,354.1582,737.0901,353.6051,736.5681,353.8205,736.3644,353.5,735.9388,352.876,735.9388,352.9597,726.8128,353.54,717.6868,353.5283,708.5609,353.0072,699.4349,353.5,690.3089,353.6274,690.3617,353.68,689.9693,354.0167,689.6945,354.1448,689.3334,353.9477,688.8376,354.2322,688.5412,354.1815,688.4186,354.5693,688.355,354.9847,688.3578,355.3443,688.2259,355.6849,688.0481,356,687.8089" style="stroke:#181818;stroke-width:4.0;"/><text fill="#000000" font-family="Chalkduster" font-size="24" lengthAdjust="spacing" textLength="635" x="363.5" y="721.6498">RO-Crate Metadata Schema (incl. Schema.org)</text></g><g id="elem_GMN9"><path d="M659,89.2889 L659.1868,89.2889 L658.6317,97.4149 L659.1718,105.5409 L659.3553,113.6668 L658.3659,121.7928 L659,129.9188 L659,129.7115 L668.9524,128.7815 L678.9048,128.8961 L688.8571,129.737 L698.8095,128.0751 L708.7619,131.3952 L718.7143,128.238 L728.6667,129.3914 L738.619,131.0706 L748.5714,129.69 L758.5238,130.1008 L768.4762,129.8336 L778.4286,130.3949 L788.381,130.5565 L798.3333,131.4806 L808.2857,131.7083 L818.2381,131.7301 L828.1905,130.5978 L838.1429,131.155 L848.0952,131.7914 L858.0476,127.9956 L868,131.7281 L877.9524,129.1281 L887.9048,131.3423 L897.8571,128.5987 L907.8095,129.7361 L917.7619,131.8964 L927.7143,129.7888 L937.6667,130.1996 L947.619,130.8218 L957.5714,131.0287 L967.5238,129.9084 L977.4762,130.6847 L987.4286,128.3923 L997.381,130.6771 L1007.3333,131.3806 L1017.2857,131.1042 L1027.2381,131.5535 L1037.1905,128.6306 L1047.1429,128.1796 L1057.0952,128.2617 L1067.0476,129.7618 L1077,129.9188 L1076.8253,129.9188 L1077.6057,123.7928 L1076.8447,117.6668 L1076.6951,111.5409 L1077.2029,105.4149 L1077,99.2889 L1076.5809,98.8698 L1074.6737,96.9627 L1073.4079,95.6968 L1071.2738,93.5628 L1069.4617,91.7506 L1067,89.2889 L1067,88.4308 L1057.0488,90.1401 L1047.0976,90.8634 L1037.1463,88.0292 L1027.1951,89.0333 L1017.2439,89.6249 L1007.2927,91.027 L997.3415,89.2778 L987.3902,90.5225 L977.439,87.8122 L967.4878,87.4829 L957.5366,90.6319 L947.5854,87.3771 L937.6341,90.6462 L927.6829,89.84 L917.7317,88.5745 L907.7805,88.3456 L897.8293,90.5123 L887.878,88.4907 L877.9268,90.8672 L867.9756,87.815 L858.0244,90.9354 L848.0732,90.5804 L838.122,89.9422 L828.1707,89.4149 L818.2195,91.2266 L808.2683,90.9252 L798.3171,89.7403 L788.3659,90.0041 L778.4146,88.9416 L768.4634,91.1995 L758.5122,89.7019 L748.561,89.7491 L738.6098,87.6667 L728.6585,88.2084 L718.7073,90.7043 L708.7561,90.435 L698.8049,89.1745 L688.8537,88.4298 L678.9024,88.7051 L668.9512,87.4591 L659,89.2889 " fill="#FFFFE0" style="stroke:#181818;stroke-width:4.0;"/><path d="M1067,89.2889 L1067.1868,89.2889 L1066.6317,91.2889 L1067.1718,93.2889 L1067.3553,95.2889 L1066.3659,97.2889 L1067,99.2889 L1067,99.2199 L1069,98.9098 L1071,98.9481 L1073,99.2284 L1075,98.6744 L1077,99.2889 L1077.348,99.6369 L1074.6038,96.8928 L1072.8757,95.1646 L1071.2715,93.5604 L1068.9461,91.235 L1067,89.2889 " fill="#FFFFE0" style="stroke:#181818;stroke-width:1.0;"/><text fill="#000000" font-family="Chalkduster" font-size="24" lengthAdjust="spacing" textLength="397" x="665" y="118.1298">http://w3id.org/ldac/profile</text></g><g id="elem_GMN12"><path d="M677,407.5489 L677.1868,407.5489 L676.6317,415.6749 L677.1718,423.8009 L677.3553,431.9268 L676.3659,440.0528 L677,448.1788 L677,447.9715 L687,447.0415 L697,447.1561 L707,447.997 L717,446.3351 L727,449.6552 L737,446.498 L747,447.6514 L757,449.3306 L767,447.95 L777,448.3608 L787,448.0936 L797,448.6549 L807,448.8165 L817,449.7406 L827,449.9683 L837,449.9901 L847,448.8578 L857,449.415 L867,450.0514 L877,446.2556 L887,449.9881 L897,447.3881 L907,449.6023 L917,446.8587 L927,447.9961 L937,450.1564 L947,448.0488 L957,448.4596 L967,449.0818 L977,449.2887 L987,448.1684 L997,448.9447 L1007,446.6523 L1017,448.9371 L1027,449.6406 L1037,449.3642 L1047,449.8135 L1057,446.8906 L1067,446.4396 L1077,448.1788 L1076.4476,448.1788 L1076.9477,442.0528 L1076.8253,435.9268 L1077.6057,429.8009 L1076.8447,423.6749 L1077,417.5489 L1076.7844,417.3333 L1075.1435,415.6924 L1072.5809,413.1298 L1070.6737,411.2227 L1069.4079,409.9568 L1067,407.5489 L1067,408.7107 L1057,409.5076 L1047,406.6908 L1037,408.4001 L1027,409.1234 L1017,406.2892 L1007,407.2933 L997,407.8849 L987,409.287 L977,407.5378 L967,408.7825 L957,406.0722 L947,405.7429 L937,408.8919 L927,405.6371 L917,408.9062 L907,408.1 L897,406.8345 L887,406.6056 L877,408.7723 L867,406.7507 L857,409.1272 L847,406.075 L837,409.1954 L827,408.8404 L817,408.2022 L807,407.6749 L797,409.4866 L787,409.1852 L777,408.0003 L767,408.2641 L757,407.2016 L747,409.4595 L737,407.9619 L727,408.0091 L717,405.9267 L707,406.4684 L697,408.9643 L687,408.695 L677,407.5489 " fill="#FFFFE0" style="stroke:#181818;stroke-width:4.0;"/><path d="M1067,407.5489 L1067.1868,407.5489 L1066.6317,409.5489 L1067.1718,411.5489 L1067.3553,413.5489 L1066.3659,415.5489 L1067,417.5489 L1067,417.4799 L1069,417.1698 L1071,417.2081 L1073,417.4884 L1075,416.9344 L1077,417.5489 L1077.348,417.8969 L1074.6038,415.1528 L1072.8757,413.4246 L1071.2715,411.8204 L1068.9461,409.495 L1067,407.5489 " fill="#FFFFE0" style="stroke:#181818;stroke-width:1.0;"/><text fill="#000000" font-family="Chalkduster" font-size="24" lengthAdjust="spacing" textLength="379" x="683" y="436.3898">http://w3id.org/ldac/terms</text></g><!--entity Exposition: Collection Structure, Guidance etc--><g id="elem_Exposition: Collection Structure, Guidance etc"><polygon fill="none" points="65.5,241.9189,65.5,242.1291,75.5152,241.5046,85.5303,242.1122,95.5455,242.3186,105.5606,241.2056,115.5758,241.8412,125.5909,241.4925,135.6061,241.5355,145.6212,241.8508,155.6364,241.2276,165.6515,242.4726,175.6667,241.2887,185.6818,241.7212,195.697,242.3509,205.7121,241.8332,215.7273,241.9872,225.7424,241.887,235.7576,242.0975,245.7727,242.1581,255.7879,242.5046,265.803,242.59,275.8182,242.5982,285.8333,242.1736,295.8485,242.3825,305.8636,242.6212,315.8788,241.1978,325.8939,242.5975,335.9091,241.6224,345.9242,242.4528,355.9394,241.4239,365.9545,241.8505,375.9697,242.6606,385.9848,241.8702,396,242.0243,406.0152,242.2576,416.0303,242.3352,426.0455,241.915,436.0606,242.2062,446.0758,241.3465,456.0909,242.2033,466.1061,242.4671,476.1212,242.3635,486.1364,242.532,496.1515,241.4359,506.1667,241.2668,516.1818,241.2975,526.197,241.8601,536.2121,241.7224,546.2273,242.6004,556.2424,241.7443,566.2576,241.5759,576.2727,242.1472,586.2879,241.2521,596.303,241.3998,606.3182,242.5679,616.3333,242.3546,626.3485,242.6534,636.3636,241.5972,646.3788,242.2381,656.3939,242.5094,666.4091,241.4465,676.4242,241.8231,686.4394,242.0449,696.4545,242.5707,706.4697,241.9148,716.4848,242.3815,726.5,241.9189,726.4294,241.7484,726.7672,241.8568,727.2713,242.3669,727.4692,242.1375,727.9791,242.6615,728.2678,242.6512,728.3314,242.6775,728.3317,242.9706,728.4517,243.3132,728.8484,243.7704,728.7614,244.0272,729,244.4189,729.5919,244.4189,728.4473,253.5449,729.6174,262.6709,729.4843,271.7968,729.245,280.9228,729,290.0488,729.0145,290.0548,729.0773,290.495,728.8961,290.8342,728.6128,291.131,728.4968,291.4972,728.2678,291.8166,728.2512,291.7764,728.0056,292.1836,727.5804,292.1571,727.2291,292.309,726.776,292.215,726.5,292.5488,726.5,292.1436,716.4848,293.0795,706.4697,292.9785,696.4545,292.5059,686.4394,292.2266,676.4242,292.3299,666.4091,291.8626,656.3939,292.9635,646.3788,293.2883,636.3636,293.0752,626.3485,293.2437,616.3333,292.4121,606.3182,292.636,596.303,292.1612,586.2879,292.8328,576.2727,292.7955,566.2576,293.1012,556.2424,292.3191,546.2273,292.4144,536.2121,292.9922,526.197,293.1161,516.1818,292.0363,506.1667,292.3549,496.1515,292.698,486.1364,291.9379,476.1212,292.9022,466.1061,292.8068,456.0909,292.448,446.0758,292.691,436.0606,293.2775,426.0455,292.2359,416.0303,292.8638,406.0152,292.8344,396,292.6646,385.9848,292.6897,375.9697,292.6623,365.9545,291.9246,355.9394,292.148,345.9242,292.0872,335.9091,292.6126,325.8939,292.6369,315.8788,292.7105,305.8636,292.2578,295.8485,292.4813,285.8333,292.4286,275.8182,293.1256,265.803,292.9753,255.7879,292.0632,245.7727,292.4759,235.7576,291.9716,225.7424,292.8372,215.7273,293.1573,205.7121,293.0933,195.697,292.1132,185.6818,293.0128,175.6667,291.806,165.6515,292.7489,155.6364,292.2495,145.6212,292.6455,135.6061,292.7891,125.5909,293.0209,115.5758,291.8289,105.5606,293.0243,95.5455,292.727,85.5303,292.9041,75.5152,293.2966,65.5,292.5488,65.5007,292.5505,65.1688,292.4563,64.8201,292.3216,64.4645,292.1702,64.0857,291.9627,63.7322,291.8166,63.9511,291.9072,63.398,291.3852,63.6134,291.1816,63.1007,290.6763,62.9801,290.3334,63,290.0488,63.04,290.0488,63.0283,280.9228,62.5072,271.7968,63.4137,262.6709,63.1089,253.5449,63,244.4189,63.2238,244.5116,63.3519,244.1505,63.1548,243.6547,63.3168,243.3075,63.546,242.9883,63.7322,242.6512,63.7776,242.7607,64.1372,242.6288,64.4778,242.451,64.7493,242.1065,65.2276,242.2614,65.5,241.9189" style="stroke:#181818;stroke-width:4.0;"/><text fill="#000000" font-family="Chalkduster" font-size="24" lengthAdjust="spacing" textLength="646" x="73" y="275.7598">Exposition: Collection Structure, Guidance etc</text></g><!--entity rules--><g id="elem_rules"><polygon fill="none" points="767,241.9189,767,242.1291,776.92,241.5046,786.84,242.1122,796.76,242.3186,806.68,241.2056,816.6,241.8412,826.52,241.4925,836.44,241.5355,846.36,241.8508,856.28,241.2276,866.2,242.4726,876.12,241.2887,886.04,241.7212,895.96,242.3509,905.88,241.8332,915.8,241.9872,925.72,241.887,935.64,242.0975,945.56,242.1581,955.48,242.5046,965.4,242.59,975.32,242.5982,985.24,242.1736,995.16,242.3825,1005.08,242.6212,1015,241.9189,1014.908,241.6969,1015.4401,242.2744,1015.6693,242.1205,1016.1288,242.5227,1016.3511,242.3523,1016.7678,242.6512,1016.7467,242.6424,1017.1426,243.0993,1017.0457,243.3521,1017.2395,243.7253,1017.4578,244.1086,1017.5,244.4189,1017.9162,244.4189,1017.4961,253.5449,1017.7872,262.6709,1016.9276,271.7968,1017.7844,280.9228,1017.5,290.0488,1017.6688,290.1187,1017.4905,290.459,1017.3959,290.8341,1016.9119,291.0478,1016.7134,291.3798,1016.7678,291.8166,1016.6885,291.6252,1016.4067,291.9449,1016.0356,292.0489,1015.794,292.4657,1015.3313,292.3485,1015,292.5488,1015,292.2057,1005.08,292.7771,995.16,291.8819,985.24,292.0297,975.32,293.1977,965.4,292.9845,955.48,293.2833,945.56,292.227,935.64,292.868,925.72,293.1392,915.8,292.0764,905.88,292.4529,895.96,292.6748,886.04,293.2005,876.12,292.5446,866.2,293.0114,856.28,291.995,846.36,291.8715,836.44,293.0524,826.52,291.8318,816.6,293.0577,806.68,292.7554,796.76,292.2809,786.84,292.195,776.92,293.0075,767,292.5488,766.9618,292.4566,766.7219,292.5846,766.2224,292.0857,766.0181,292.2996,765.6476,292.1121,765.2322,291.8166,765.3077,291.8478,765.1003,291.469,765.1631,291.2021,764.9819,290.8342,764.6986,290.4239,764.5,290.0488,764.7682,290.0488,764.3697,280.9228,765.2165,271.7968,764.6549,262.6709,764.6726,253.5449,764.5,244.4189,764.3127,244.3413,764.5217,244.0137,764.9563,243.7795,765.0717,243.4131,765.0726,242.9993,765.2322,242.6512,765.1911,242.552,765.5579,242.4373,765.8518,242.147,766.3458,242.3396,766.7408,242.2932,767,241.9189" style="stroke:#181818;stroke-width:4.0;"/><text fill="#000000" font-family="Chalkduster" font-size="24" lengthAdjust="spacing" textLength="221" x="774.5" y="275.7598">Syntax summary</text></g><!--link GMN9 to prof--><g id="link_GMN9_prof"><path d="M975.85,130.3389 L975.8878,130.4244 L979.0098,131.6029 L982.3536,133.2821 L985.6251,134.7983 L988.6592,135.7783 L992.022,137.5005 L992.005,137.4705 L995.0049,139.0788 L998.0907,140.8386 L1001.2361,142.7037 L1004.1759,144.2059 L1007.4038,146.2164 L1007.5497,146.4145 L1010.066,148.0754 L1013.0085,150.3146 L1016.003,152.6243 L1018.695,154.5235 L1021.5461,156.6386 L1021.5674,156.6602 L1024.0269,159.0846 L1026.5834,161.6073 L1029.0931,164.0825 L1031.692,166.6482 L1034,168.9189 L1034.2485,169.0839 L1036.0463,171.7904 L1037.6839,174.3905 L1039.5561,177.1464 L1041.4393,179.9095 L1042.974,182.4415 L1042.6864,182.3 L1043.425,182.9413 L1043.2166,183.1166 L1043.7281,183.6462 L1043.4982,183.811 L1043.876,184.2748 L1043.8484,184.2618 L1044.2177,184.508 L1043.9437,184.4504 L1044.0493,184.5721 L1044.1867,184.7089 L1044.0943,184.7371 " fill="none" style="stroke:#8B0000;stroke-width:4.0;stroke-dasharray:7.0,7.0;"/></g><!--link GMN12 to lsoss--><g id="link_GMN12_lsoss"><path d="M858.94,448.6789 L859.0074,448.7436 L857.3882,450.03 L856.1642,451.6954 L854.8115,453.2375 L853.0356,454.3734 L851.8455,456.0715 L851.8209,456.0472 L850.1183,457.5507 L848.5396,459.1765 L847.047,460.8874 L845.2576,462.3052 L843.8839,464.1335 L844.0561,464.3092 L841.9474,465.6391 L840.3416,467.482 L838.7971,469.3875 L836.8956,470.9288 L835.1819,472.6617 L835.2027,472.6837 L833.3091,474.4095 L831.5101,476.2358 L829.6655,478.0136 L827.908,479.8838 L825.8663,481.4527 L826.0661,481.6741 L824.108,483.4469 L822.021,485.0769 L820.1227,486.916 L818.2332,488.7648 L816.0635,490.3033 L815.855,490.0599 L814.2271,492.2736 L811.9126,493.6859 L810.1201,495.7075 L807.7899,497.1016 L805.9005,499.01 L805.8814,498.9863 L804.0277,500.9388 L801.7282,502.337 L799.6918,504.0623 L797.6774,505.8151 L795.5037,507.3697 L795.6141,507.5182 L793.4019,508.9302 L791.3784,510.5958 L789.0497,511.8511 L787.1762,513.7185 L785,515.1789 L785.1359,515.3812 L782.711,516.9554 L780.3536,518.6301 L777.6827,519.8383 L775.2416,521.3884 L773.0041,523.2414 L772.8601,523.0058 L770.4761,524.7551 L767.9299,526.2389 L765.619,528.1079 L762.9063,529.3192 L760.4325,530.9214 L760.3575,530.7887 L757.9253,532.4535 L755.1727,533.5509 L752.6479,535.0518 L750.3461,536.9476 L747.6472,538.1402 L747.7377,538.3114 L745.2723,539.7646 L742.5255,540.6853 L740.1312,542.2729 L737.66,543.7152 L735.01,544.8189 " fill="none" style="stroke:#8B0000;stroke-width:4.0;stroke-dasharray:7.0,7.0;"/></g><!--link eprof to lsoss--><g id="link_eprof_lsoss"><path d="M528.21,453.5489 L528.2751,453.616 L531.0718,456.319 L534.25,459.4149 L537.3039,462.3829 L539.9494,464.9301 L543.1603,468.0597 L543.1368,468.0345 L546.4325,471.0896 L549.847,474.2722 L553.344,477.5433 L556.5566,480.5093 L560.1675,483.9027 L560.3317,484.0859 L561.7832,485.3094 L563.714,487.068 L565.7034,488.8918 L567.3525,490.3358 L569.1805,491.9795 L569.2004,492.0024 L571.0138,493.5681 L572.9177,495.2381 L574.7779,496.8578 L576.7215,498.5735 L578.3934,499.9763 L578.5847,500.2051 L580.4486,501.7637 L582.1892,503.1747 L584.1104,504.8018 L586.04,506.439 L587.7015,507.7553 L587.5015,507.5048 L589.7494,509.4757 L591.3387,510.6218 L593.4286,512.3949 L595.003,513.5223 L597,515.1789 L596.9816,515.1547 L599.1208,516.9021 L600.8296,518.0833 L602.7923,519.5986 L604.7764,521.142 L606.6067,522.483 L606.7148,522.6331 L608.4233,523.7907 L610.3166,525.2047 L611.9109,526.2038 L613.9511,527.8219 L615.6949,529.0284 L615.8319,529.2299 L617.6439,530.4416 L619.5239,531.7534 L621.0878,532.6004 L622.8834,533.788 L624.8843,535.2776 L624.7342,535.0457 L626.8522,536.5387 L628.801,537.7704 L630.9951,539.381 L632.7705,540.3446 L634.7947,541.6929 " fill="none" style="stroke:#8B0000;stroke-width:4.0;"/><polygon fill="#8B0000" points="639.86,544.9089,639.9183,544.9477,638.6542,543.1923,637.7321,541.6642,636.6986,540.0621,635.2989,538.2165,634.4062,536.708,634.3809,536.7023,634.514,537.7812,634.7745,538.8885,635.1237,540.0156,635.1675,541.0745,635.639,542.2289,635.6792,542.409,634.489,542.2704,633.4162,542.6576,632.3578,543.1091,631.216,543.1872,630.1181,543.4616,630.1214,543.4841,632.0649,543.7406,634.0236,544.0994,635.9749,544.4089,637.9403,544.8126,639.86,544.9089" style="stroke:#8B0000;stroke-width:4.0;"/><text fill="#000000" font-family="Chalkduster" font-size="24" lengthAdjust="spacing" textLength="182" x="598" y="508.0198">Derived from</text></g><!--link lsoss to soss--><g id="link_lsoss_soss"><path d="M681,595.9889 L681.2802,595.9889 L680.4476,605.4834 L681.2577,614.9778 L681.5329,624.4723 L680.0488,633.9667 L680.8964,643.4612 L680.4313,652.9556 L680.4887,662.4501 L680.9091,671.9445 L681,681.4389 " fill="none" style="stroke:#8B0000;stroke-width:4.0;"/><polygon fill="#8B0000" points="681,687.4389,681.064,687.4674,681.6738,685.5829,682.6589,683.8651,683.5217,682.0931,683.9827,680.1424,685,678.4389,684.9817,678.4206,684.0995,679.1384,683.3096,679.9486,682.5839,680.8229,681.637,681.476,681,682.4389,681.1305,682.5694,680.0514,681.4904,679.3534,680.7923,678.7018,680.1408,677.7798,679.2187,677,678.4389,677.0208,678.4482,677.7903,680.2346,678.6544,682.0631,679.4728,683.8713,680.3784,685.7182,681,687.4389" style="stroke:#8B0000;stroke-width:4.0;"/><text fill="#000000" font-family="Chalkduster" font-size="24" lengthAdjust="spacing" textLength="108" x="682" y="650.6498">Extends</text></g><!--link rules to eprof--><g id="link_rules_eprof"><path d="M837.26,292.9989 L837.2984,293.0841 L832.9347,294.7462 L828.796,296.9076 L824.584,298.9064 L820.1311,300.3705 L816.0117,302.5747 L815.9977,302.5432 L811.3917,304.4181 L806.8564,306.4521 L802.3701,308.5968 L797.7147,310.3603 L793.2963,312.6577 L793.3945,312.8833 L788.5247,314.4291 L783.9417,316.6335 L779.3937,318.9184 L774.6422,320.7356 L769.9977,322.7988 L770.0095,322.8267 L765.3926,324.7358 L760.8296,326.7719 L756.2405,328.7467 L751.7011,330.8386 L747,332.5489 L747.1139,332.8246 L742.6422,334.6763 L738.097,336.3502 L733.6594,338.2844 L729.2268,340.2308 L724.6345,341.7907 L724.5139,341.4937 L720.2518,343.8961 L715.5924,345.3207 L711.235,347.4886 L706.5667,348.891 L702.1533,350.9209 L702.1195,350.836 L693.6155,355.3772 L684.3235,357.9352 L675.4965,361.6633 L666.7085,365.4898 L657.6389,368.6075 L657.8396,369.1249 L649.1189,371.9071 L640.7412,375.5734 L631.8085,377.8093 L623.7036,382.1788 L615.0483,385.1297 L615.135,385.3574 L607.3035,388.2901 L599.5151,391.3359 L591.5266,393.8564 L583.6848,396.7619 L575.9728,400.0085 " fill="none" style="stroke:#8B0000;stroke-width:4.0;"/><polygon fill="#8B0000" points="570.36,402.1289,570.364,402.1989,572.3187,402.1033,574.2968,402.4178,576.2673,402.5987,578.2127,402.3406,580.1929,402.6902,580.1822,402.6666,579.1032,402.095,578.078,401.6424,577.0902,401.2726,575.9736,400.6176,575.0374,400.3619,575.2056,400.4379,575.3115,399.2444,575.9086,398.2726,576.5656,397.3279,576.8739,396.2258,577.3656,395.2065,577.3816,395.2226,575.957,396.5834,574.6052,398.0178,573.2183,399.4167,571.8984,400.8833,570.36,402.1289" style="stroke:#8B0000;stroke-width:4.0;"/><text fill="#000000" font-family="Chalkduster" font-size="24" lengthAdjust="spacing" textLength="229" x="728" y="365.3898">Generated from</text></g><!--SRC=[TPBFRi8m3CRlUGglfqrQsyDk5U82ZCiGqtY0AKfCgPG_LUACLjFUVMbQ46EGIvhOty_sbpuqHgWWyLDpqqDHb98Jp-E1rwZHKEwfLrXGHumnXuAugHL2zh7D5uuJmhkp-qQXps0syp4gkPD-FeTl1d5TADxY7Y8Lbh42BApMrdYuvi3IYZ0Kpe1xQEFbH3gj2-AgQwrlgB6cYZobOYH-muvS41GSFiCwD98RWO0aidkONM-8T-23rjpra0gx44TAWf-pZB7_sjHxleMDbGYliV-ang7l6zctBTWWyS5rs8a3Qfu8obllRn3ETbs9u75uns8w5TRLJucJCCP60TaMefb3PnKSYDggB8ylZHnoIoMvADln1Vwafpxkv1CwVUbH_47Iu91BUpJvV1H31KjqpHTAs3khsNXvIfaoLXsXaPubsy_1aLR16WqEGq-4Nm00]--></g></svg>