<?xml version="1.0" encoding="us-ascii" standalone="no"?><svg xmlns="http://www.w3.org/2000/svg" xmlns:xlink="http://www.w3.org/1999/xlink" contentStyleType="text/css" height="760px" preserveAspectRatio="none" style="width:1099px;height:760px;background:#FFFFFF;" version="1.1" viewBox="0 0 1099 760" width="1099px" zoomAndPan="magnify"><defs/><g><!--cluster RO-Crate Profiles--><g id="cluster_RO-Crate Profiles"><polygon fill="#E6E6FA" points="9.5,9.2889,9.5,9.4991,19.5093,8.8746,29.5185,9.4822,39.5278,9.6886,49.537,8.5756,59.5463,9.2112,69.5556,8.8625,79.5648,8.9055,89.5741,9.2208,99.5833,8.5976,109.5926,9.8426,119.6019,8.6587,129.6111,9.0912,139.6204,9.7209,149.6296,9.2032,159.6389,9.3572,169.6481,9.257,179.6574,9.4675,189.6667,9.5281,199.6759,9.8746,209.6852,9.96,219.6944,9.9682,229.7037,9.5436,239.713,9.7525,249.7222,9.9912,259.7315,8.5678,269.7407,9.9675,279.75,8.9924,289.7593,9.8228,299.7685,8.7939,309.7778,9.2205,319.787,10.0306,329.7963,9.2402,339.8056,9.3943,349.8148,9.6276,359.8241,9.7052,369.8333,9.285,379.8426,9.5762,389.8519,8.7165,399.8611,9.5733,409.8704,9.8371,419.8796,9.7335,429.8889,9.902,439.8981,8.8059,449.9074,8.6368,459.9167,8.6675,469.9259,9.2301,479.9352,9.0924,489.9444,9.9704,499.9537,9.1143,509.963,8.9459,519.9722,9.5172,529.9815,8.6221,539.9907,8.7698,550,9.9379,560.0093,9.7246,570.0185,10.0234,580.0278,8.9672,590.037,9.6081,600.0463,9.8794,610.0556,8.8165,620.0648,9.1931,630.0741,9.4149,640.0833,9.9407,650.0926,9.2848,660.1019,9.7515,670.1111,8.7352,680.1204,8.6117,690.1296,9.7926,700.1389,8.572,710.1481,9.7979,720.1574,9.4956,730.1667,9.021,740.1759,8.9352,750.1852,9.7477,760.1944,8.9896,770.2037,9.8808,780.213,8.7362,790.2222,9.9064,800.2315,9.7733,810.2407,9.5339,820.25,9.3362,830.2593,10.0156,840.2685,9.9025,850.2778,9.4582,860.287,9.5571,870.2963,9.1587,880.3056,10.0054,890.3148,9.4438,900.3241,9.4615,910.3333,8.6806,920.3426,8.8837,930.3519,9.8197,940.3611,9.7187,950.3704,9.246,960.3796,8.9668,970.3889,9.07,980.3981,8.6028,990.4074,9.7037,1000.4167,10.0285,1010.4259,9.8153,1020.4352,9.9839,1030.4444,9.1522,1040.4537,9.3762,1050.463,8.9014,1060.4722,9.573,1070.4815,9.5357,1080.4907,9.8413,1090.5,9.2889,1090.4707,9.2182,1090.8364,9.394,1091.2637,9.7184,1091.633,9.903,1091.8488,9.7169,1092.2678,10.0212,1092.2081,9.9965,1092.4602,10.3938,1092.3725,10.6504,1092.8159,11.1269,1092.933,11.4683,1093,11.7889,1092.8992,11.7889,1093.1422,21.791,1093.7287,31.793,1092.6871,41.795,1093.315,51.7971,1093.2856,61.7991,1093.1158,71.8011,1093.1409,81.8031,1093.1135,91.8052,1092.3758,101.8072,1092.5992,111.8092,1092.5385,121.8112,1093.0638,131.8133,1093.0881,141.8153,1093.1617,151.8173,1092.709,161.8194,1092.9325,171.8214,1092.8798,181.8234,1093.5769,191.8254,1093.4266,201.8275,1092.5145,211.8295,1092.9271,221.8315,1092.4228,231.8335,1093.2884,241.8356,1093.6085,251.8376,1093.5446,261.8396,1092.5644,271.8417,1093.464,281.8437,1092.2572,291.8457,1093.2002,301.8477,1092.7007,311.8498,1093.0967,321.8518,1093.2403,331.8538,1093.4721,341.8558,1092.2801,351.8579,1093.4755,361.8599,1093.1782,371.8619,1093.3553,381.8639,1093.7478,391.866,1093.0055,401.868,1093.1753,411.87,1093.2134,421.8721,1093.1972,431.8741,1092.9992,441.8761,1093.7107,451.8781,1092.3903,461.8802,1093.5653,471.8822,1092.376,481.8842,1092.4597,491.8862,1093.04,501.8883,1093.0283,511.8903,1092.5072,521.8923,1093.4137,531.8944,1093.1089,541.8964,1093.7267,551.8984,1093.6671,561.9004,1092.5517,571.9025,1092.6021,581.9045,1092.8708,591.9065,1093.3555,601.9085,1093.403,611.9106,1093.3012,621.9126,1092.658,631.9146,1093.6364,641.9167,1093.6338,651.9187,1092.9527,661.9207,1092.7609,671.9227,1092.5986,681.9248,1092.7854,691.9268,1093.1374,701.9288,1092.9316,711.9308,1092.5822,721.9329,1093.4874,731.9349,1092.5411,741.9369,1093,751.9389,1093.1547,752.003,1092.9851,752.347,1092.8216,752.6935,1092.7739,753.0879,1092.3385,753.3218,1092.2678,753.7067,1092.2294,753.6141,1091.9804,754.013,1091.4845,753.8158,1091.1773,754.074,1090.8683,754.3281,1090.5,754.4389,1090.5,754.5076,1080.4907,754.0805,1070.4815,754.396,1060.4722,755.1835,1050.463,755.0874,1040.4537,753.8427,1030.4444,754.5175,1020.4352,753.925,1010.4259,754.4126,1000.4167,754.7319,990.4074,754.8588,980.3981,753.7742,970.3889,754.8395,960.3796,754.4474,950.3704,753.8836,940.3611,753.9679,930.3519,754.7655,920.3426,754.6888,910.3333,754.4225,900.3241,753.7668,890.3148,755.0971,880.3056,754.1271,870.2963,753.9109,860.287,754.3716,850.2778,755.0287,840.2685,755.0544,830.2593,754.4741,820.25,754.2878,810.2407,754.6087,800.2315,754.6252,790.2222,753.9312,780.213,754.8529,770.2037,754.9978,760.1944,754.2232,750.1852,754.0098,740.1759,755.1136,730.1667,754.46,720.1574,754.4388,710.1481,754.738,700.1389,753.7933,690.1296,754.9689,680.1204,754.4235,670.1111,755.1078,660.1019,754.2231,650.0926,754.8479,640.0833,753.995,630.0741,754.684,620.0648,754.8182,610.0556,754.1116,600.0463,754.802,590.037,753.8675,580.0278,753.9685,570.0185,755.1218,560.0093,755.1233,550,755.0074,539.9907,754.0786,529.9815,754.8232,519.9722,753.9669,509.963,754.4971,499.9537,754.4377,489.9444,754.1765,479.9352,755.0549,469.9259,754.8822,459.9167,754.1182,449.9074,754.9656,439.8981,754.5308,429.8889,753.8554,419.8796,754.2056,409.8704,753.9137,399.8611,754.2999,389.8519,753.81,379.8426,753.8388,369.8333,754.5093,359.8241,754.3186,349.8148,754.3804,339.8056,754.2958,329.7963,754.6063,319.787,753.8839,309.7778,754.599,299.7685,753.6958,289.7593,754.735,279.75,755.0317,269.7407,754.961,259.7315,754.8003,249.7222,754.6312,239.713,754.5447,229.7037,753.7989,219.6944,754.8855,209.6852,754.7686,199.6759,754.2856,189.6667,754.4332,179.6574,754.2304,169.6481,754.6566,159.6389,755.1195,149.6296,754.085,139.6204,754.9078,129.6111,754.3497,119.6019,754.0597,109.5926,754.0071,99.5833,753.7943,89.5741,753.9981,79.5648,754.4752,69.5556,754.7119,59.5463,755.0152,49.537,754.859,39.5278,753.7276,29.5185,755.058,19.5093,754.9251,9.5,754.4389,9.569,754.6055,9.213,754.4532,8.7088,753.9431,8.4065,753.9202,8.1261,753.9505,7.7322,753.7067,7.584,753.6453,7.5541,753.34,7.46,753.0082,7.3933,752.6877,7.1605,752.2983,7,751.9389,7.7447,751.9389,7.4114,741.9369,7.2561,731.9349,6.4601,721.9329,7.3388,711.9308,6.4255,701.9288,7.3057,691.9268,7.0078,681.9248,7.2995,671.9227,6.9126,661.9207,6.8039,651.9187,6.2591,641.9167,6.7856,631.9146,6.2951,621.9126,6.7539,611.9106,7.4379,601.9085,7.1607,591.9065,6.5485,581.9045,7.2458,571.9025,7.0656,561.9004,7.5433,551.8984,7.5649,541.8964,7.0937,531.8944,6.821,521.8923,6.7855,511.8903,6.9936,501.8883,7.6691,491.8862,6.3263,481.8842,6.8361,471.8822,7.2668,461.8802,7.7317,451.8781,7.2119,441.8761,6.8018,431.8741,6.2621,421.8721,6.5762,411.87,6.7781,401.868,7.3398,391.866,7.3695,381.8639,7.0518,371.8619,6.867,361.8599,6.2804,351.8579,7.129,341.8558,7.4354,331.8538,7.6829,321.8518,7.0983,311.8498,7.0799,301.8477,6.7798,291.8457,7.2487,281.8437,6.53,271.8417,7.5161,261.8396,6.6943,251.8376,6.4698,241.8356,7.2569,231.8335,7.4718,221.8315,7.0573,211.8295,6.8789,201.8275,7.1579,191.8254,6.9753,181.8234,6.9049,171.8214,7.0769,161.8194,6.668,151.8173,7.3895,141.8153,7.6875,131.8133,6.6464,121.8112,6.7656,111.8092,6.5314,101.8072,7.2369,91.8052,6.9062,81.8031,7.5514,71.8011,6.6998,61.7991,6.6411,51.7971,7.2968,41.795,6.7755,31.793,7.2669,21.791,7,11.7889,7.0861,11.8246,7.2807,11.491,7.1436,11.02,7.4664,10.7395,7.7506,10.443,7.7322,10.0212,7.663,9.8539,8.1501,10.0301,8.396,9.6237,8.8129,9.6301,9.2297,9.6364,9.5,9.2889" style="stroke:#181818;stroke-width:4.0;"/><text fill="#000000" font-family="Chalkduster" font-size="24" font-style="italic" lengthAdjust="spacing" textLength="170" x="465" y="35.1298">&#171;standards&#187;</text><text fill="#000000" font-family="Chalkduster" font-size="24" font-weight="bold" lengthAdjust="spacing" textLength="245" x="427.5" y="65.7597">RO-Crate Profiles</text></g><!--cluster prof--><g id="cluster_prof"><polygon fill="none" points="41.5,184.9189,41.5,185.1291,51.4706,184.5046,61.4412,185.1122,71.4118,185.3186,81.3824,184.2056,91.3529,184.8412,101.3235,184.4925,111.2941,184.5355,121.2647,184.8508,131.2353,184.2276,141.2059,185.4726,151.1765,184.2887,161.1471,184.7212,171.1176,185.3509,181.0882,184.8332,191.0588,184.9872,201.0294,184.887,211,185.0975,220.9706,185.1581,230.9412,185.5046,240.9118,185.59,250.8824,185.5982,260.8529,185.1736,270.8235,185.3825,280.7941,185.6212,290.7647,184.1978,300.7353,185.5975,310.7059,184.6224,320.6765,185.4528,330.6471,184.4239,340.6176,184.8505,350.5882,185.6606,360.5588,184.8702,370.5294,185.0243,380.5,185.2576,390.4706,185.3352,400.4412,184.915,410.4118,185.2062,420.3824,184.3465,430.3529,185.2033,440.3235,185.4671,450.2941,185.3635,460.2647,185.532,470.2353,184.4359,480.2059,184.2668,490.1765,184.2975,500.1471,184.8601,510.1176,184.7224,520.0882,185.6004,530.0588,184.7443,540.0294,184.5759,550,185.1472,559.9706,184.2521,569.9412,184.3998,579.9118,185.5679,589.8824,185.3546,599.8529,185.6534,609.8235,184.5972,619.7941,185.2381,629.7647,185.5094,639.7353,184.4465,649.7059,184.8231,659.6765,185.0449,669.6471,185.5707,679.6176,184.9148,689.5882,185.3815,699.5588,184.3652,709.5294,184.2417,719.5,185.4226,729.4706,184.202,739.4412,185.4279,749.4118,185.1256,759.3824,184.651,769.3529,184.5652,779.3235,185.3777,789.2941,184.6196,799.2647,185.5108,809.2353,184.3662,819.2059,185.5364,829.1765,185.4033,839.1471,185.1639,849.1176,184.9662,859.0882,185.6456,869.0588,185.5325,879.0294,185.0882,889,185.1871,898.9706,184.7887,908.9412,185.6354,918.9118,185.0738,928.8824,185.0915,938.8529,184.3106,948.8235,184.5137,958.7941,185.4497,968.7647,185.3487,978.7353,184.876,988.7059,184.5968,998.6765,184.7,1008.6471,184.2328,1018.6176,185.3337,1028.5882,185.6585,1038.5588,185.4453,1048.5294,185.6139,1058.5,184.9189,1058.4826,184.8768,1058.8647,185.0923,1059.1577,185.0925,1059.5969,185.4458,1059.9457,185.5807,1060.2678,185.6512,1060.4379,185.7216,1060.3435,185.9754,1060.5193,186.3411,1060.8437,186.7684,1061.0283,187.1378,1061,187.4189,1060.4875,187.4189,1060.8061,197.1597,1061.1493,206.9005,1060.3892,216.6413,1061.3534,226.382,1061.258,236.1228,1060.8992,245.8636,1061.1422,255.6043,1061.7287,265.3451,1060.6871,275.0859,1061.315,284.8266,1061.2856,294.5674,1061.1158,304.3082,1061,314.0489,1061.0434,314.0669,1060.8885,314.417,1060.5149,314.6764,1060.4372,315.0585,1060.2721,315.4043,1060.2678,315.8167,1060.2759,315.8364,1059.9255,315.9903,1059.5813,316.1594,1059.17,316.1664,1058.8449,316.3817,1058.5,316.5489,1058.5,316.4287,1048.5294,317.1258,1038.5588,316.9755,1028.5882,316.0634,1018.6176,316.476,1008.6471,315.9717,998.6765,316.8373,988.7059,317.1574,978.7353,317.0935,968.7647,316.1134,958.7941,317.0129,948.8235,315.8061,938.8529,316.7491,928.8824,316.2496,918.9118,316.6457,908.9412,316.7893,898.9706,317.0211,889,315.829,879.0294,317.0244,869.0588,316.7271,859.0882,316.9043,849.1176,317.2968,839.1471,316.5544,829.1765,316.7242,819.2059,316.7624,809.2353,316.7462,799.2647,316.5481,789.2941,317.2597,779.3235,315.9392,769.3529,317.1142,759.3824,315.9249,749.4118,316.0086,739.4412,316.589,729.4706,316.5772,719.5,316.0561,709.5294,316.9627,699.5588,316.6578,689.5882,317.2756,679.6176,317.2161,669.6471,316.1007,659.6765,316.151,649.7059,316.4198,639.7353,316.9045,629.7647,316.9519,619.7941,316.8501,609.8235,316.207,599.8529,317.1853,589.8824,317.1827,579.9118,316.5017,569.9412,316.3099,559.9706,316.1476,550,316.3344,540.0294,316.6864,530.0588,316.4806,520.0882,316.1312,510.1176,317.0363,500.1471,316.09,490.1765,317.0513,480.2059,316.9762,470.2353,316.9208,460.2647,317.2414,450.2941,316.3031,440.3235,316.2483,430.3529,317.0678,420.3824,315.9521,410.4118,316.315,400.4412,316.6644,390.4706,316.6176,380.5,316.1905,370.5294,316.506,360.5588,317.2935,350.5882,317.1974,340.6176,315.9527,330.6471,316.6275,320.6765,316.035,310.7059,316.5226,300.7353,316.8419,290.7647,316.9688,280.7941,315.8842,270.8235,316.9495,260.8529,316.5574,250.8824,315.9936,240.9118,316.0779,230.9412,316.8755,220.9706,316.7988,211,316.5325,201.0294,315.8768,191.0588,317.2071,181.0882,316.2371,171.1176,316.0209,161.1471,316.4816,151.1765,317.1387,141.2059,317.1644,131.2353,316.5841,121.2647,316.3978,111.2941,316.7187,101.3235,316.7352,91.3529,316.0412,81.3824,316.9629,71.4118,317.1078,61.4412,316.3332,51.4706,316.1198,41.5,316.5489,41.5861,316.7567,41.1491,316.409,40.7929,316.256,40.4775,316.2017,40.0034,315.7643,39.7322,315.8167,39.8954,315.8843,39.581,315.4612,39.6453,315.1949,39.2264,314.7285,39.2724,314.4547,39,314.0489,38.556,314.0489,39.245,304.3082,39.3793,294.5674,38.6727,284.8266,39.363,275.0859,38.4286,265.3451,38.5295,255.6043,39.6828,245.8636,39.6844,236.1228,39.5685,226.382,38.6396,216.6413,39.3842,206.9005,38.5279,197.1597,39,187.4189,39.0179,187.4264,39.1461,187.0652,39.2121,186.6784,39.629,186.4369,39.7223,186.0613,39.7322,185.6512,39.6913,185.5524,40.153,185.6669,40.4511,185.3866,40.7185,185.0321,41.1167,184.9935,41.5,184.9189" style="stroke:#181818;stroke-width:4.0;"/><text fill="#000000" font-family="Chalkduster" font-size="24" font-weight="bold" lengthAdjust="spacing" textLength="737" x="181.5" y="210.7598">Language Data Commons RO-Crate Profile Document</text></g><!--entity eprof--><g id="elem_eprof"><polygon fill="none" points="491,402.5489,491,402.7591,501,402.1346,511,402.7422,521,402.9486,531,401.8356,541,402.4712,551,402.1225,561,402.1655,571,402.4808,581,401.8576,591,403.1026,601,401.9187,611,402.3512,621,402.9809,631,402.4632,641,402.6172,651,402.517,661,402.7275,671,402.7881,681,403.1346,691,403.22,701,403.2282,711,402.8036,721,403.0125,731,403.2512,741,401.8278,751,403.2275,761,402.5489,760.9622,402.4576,761.4216,402.8598,761.644,402.6894,762.0519,402.9672,762.5088,403.3631,762.7678,403.2812,762.7528,403.275,762.9466,403.6482,763.1649,404.0315,763.3353,404.3949,763.3524,404.6949,763.5,405.0489,763.7872,405.0489,762.9276,414.1749,763.7844,423.3009,764.0482,432.4268,763.9445,441.5528,763.5,450.6788,763.6888,450.757,763.2048,450.9707,763.0063,451.3027,762.8693,451.6602,762.8961,452.0855,762.7678,452.4466,762.7427,452.386,762.5011,452.8028,762.0384,452.6856,761.6633,452.7802,761.3827,453.1026,761,453.1788,761,452.5119,751,452.6597,741,453.8277,731,453.6145,721,453.9133,711,452.857,701,453.498,691,453.7692,681,452.7064,671,453.0829,661,453.3048,651,453.8305,641,453.1746,631,453.6414,621,452.625,611,452.5015,601,453.6824,591,452.4618,581,453.6877,571,453.3854,561,452.9109,551,452.825,541,453.6375,531,452.8795,521,453.7706,511,452.626,501,453.7962,491,453.1788,491.0618,453.3279,490.6777,453.1078,490.2989,452.9004,490.032,452.9632,489.6641,452.782,489.2322,452.4466,489.2844,452.4681,489.1684,452.1272,488.8992,451.7228,489.0135,451.4773,488.6941,451.0521,488.5,450.6788,488.6726,450.6788,487.8916,441.5528,488.0948,432.4268,489.0307,423.3009,488.9298,414.1749,488.5,405.0489,488.4868,405.0435,488.5472,404.6543,488.7255,404.3139,488.728,403.9008,489.2135,403.6876,489.2322,403.2812,489.3266,403.5089,489.6529,403.2968,490.028,403.2023,490.2755,402.7997,490.6576,402.7223,491,402.5489" style="stroke:#181818;stroke-width:4.0;"/><text fill="#000000" font-family="Chalkduster" font-size="24" lengthAdjust="spacing" textLength="255" x="498.5" y="436.3898">Crate-O Mode File</text></g><!--entity lsoss--><g id="elem_lsoss"><polygon fill="none" points="460.5,545.1789,460.5,545.3891,470.5164,544.7646,480.5328,545.3722,490.5492,545.5786,500.5656,544.4656,510.582,545.1012,520.5984,544.7525,530.6148,544.7955,540.6311,545.1108,550.6475,544.4876,560.6639,545.7326,570.6803,544.5487,580.6967,544.9812,590.7131,545.6109,600.7295,545.0932,610.7459,545.2472,620.7623,545.147,630.7787,545.3575,640.7951,545.4181,650.8115,545.7646,660.8279,545.85,670.8443,545.8582,680.8607,545.4336,690.877,545.6425,700.8934,545.8812,710.9098,544.4578,720.9262,545.8575,730.9426,544.8824,740.959,545.7128,750.9754,544.6839,760.9918,545.1105,771.0082,545.9206,781.0246,545.1302,791.041,545.2843,801.0574,545.5176,811.0738,545.5952,821.0902,545.175,831.1066,545.4662,841.123,544.6065,851.1393,545.4633,861.1557,545.7271,871.1721,545.6235,881.1885,545.792,891.2049,544.6959,901.2213,544.5268,911.2377,544.5575,921.2541,545.1201,931.2705,544.9824,941.2869,545.8604,951.3033,545.0043,961.3197,544.8359,971.3361,545.4072,981.3525,544.5121,991.3689,544.6598,1001.3852,545.8279,1011.4016,545.6146,1021.418,545.9134,1031.4344,544.8572,1041.4508,545.4981,1051.4672,545.7694,1061.4836,544.7065,1071.5,545.1789,1071.4878,545.1494,1071.8696,545.3642,1072.2902,545.6726,1072.5601,545.617,1072.9732,545.9072,1073.2678,545.9112,1073.0972,545.8405,1073.2056,546.1783,1073.7158,546.6825,1073.4863,546.8804,1074.0103,547.3903,1074,547.6789,1074.2066,547.6789,1073.7321,556.8049,1073.6462,565.9309,1074.4588,575.0568,1073.7007,584.1828,1074,593.3088,1074.1823,593.3843,1073.6833,593.5918,1073.8972,594.0946,1073.7098,594.4312,1073.4897,594.7542,1073.2678,595.0766,1073.2738,595.0911,1073.0069,595.4468,1072.6389,595.5584,1072.2287,595.568,1071.8878,595.7449,1071.5,595.8088,1071.5,595.6785,1061.4836,596.5252,1051.4672,595.9637,1041.4508,595.9814,1031.4344,595.2004,1021.418,595.4036,1011.4016,596.3395,1001.3852,596.2385,991.3689,595.7659,981.3525,595.4866,971.3361,595.5899,961.3197,595.1226,951.3033,596.2235,941.2869,596.5483,931.2705,596.3352,921.2541,596.5037,911.2377,595.6721,901.2213,595.896,891.2049,595.4212,881.1885,596.0928,871.1721,596.0555,861.1557,596.3612,851.1393,595.5791,841.123,595.6744,831.1066,596.2522,821.0902,596.3761,811.0738,595.2963,801.0574,595.6149,791.041,595.958,781.0246,595.1979,771.0082,596.1622,760.9918,596.0668,750.9754,595.708,740.959,595.951,730.9426,596.5375,720.9262,595.4959,710.9098,596.1238,700.8934,596.0944,690.877,595.9246,680.8607,595.9497,670.8443,595.9223,660.8279,595.1846,650.8115,595.408,640.7951,595.3472,630.7787,595.8726,620.7623,595.8969,610.7459,595.9705,600.7295,595.5178,590.7131,595.7413,580.6967,595.6886,570.6803,596.3856,560.6639,596.2353,550.6475,595.3232,540.6311,595.7359,530.6148,595.2316,520.5984,596.0972,510.582,596.4173,500.5656,596.3533,490.5492,595.3732,480.5328,596.2728,470.5164,595.066,460.5,595.8088,460.5255,595.8704,460.1083,595.5702,459.8052,595.5457,459.47,595.4435,459.146,595.3684,458.7322,595.0766,458.5105,594.9847,458.7322,594.7836,458.4942,594.3922,458.4023,594.0612,458.3767,593.7577,458,593.3088,458.0055,593.3088,458.1753,584.1828,458.2134,575.0568,458.1972,565.9309,457.9992,556.8049,458,547.6789,458.2189,547.7696,457.9587,547.2476,458.467,547.044,458.2472,546.5387,458.4194,546.1958,458.7322,545.9112,458.7373,545.9235,459.0894,545.7734,459.3765,545.4665,459.8457,545.5993,460.1603,545.3589,460.5,545.1789" style="stroke:#181818;stroke-width:4.0;"/><text fill="#000000" font-family="Chalkduster" font-size="24" lengthAdjust="spacing" textLength="596" x="468" y="579.0198">Language Data Commons Metadata Schema</text></g><!--entity soss--><g id="elem_soss"><polygon fill="none" points="225,687.8089,225,688.0191,235,687.3946,245,688.0022,255,688.2086,265,687.0956,275,687.7312,285,687.3825,295,687.4255,305,687.7408,315,687.1176,325,688.3626,335,687.1787,345,687.6112,355,688.2409,365,687.7232,375,687.8772,385,687.777,395,687.9875,405,688.0481,415,688.3946,425,688.48,435,688.4882,445,688.0636,455,688.2725,465,688.5112,475,687.0878,485,688.4875,495,687.5124,505,688.3428,515,687.3139,525,687.7405,535,688.5506,545,687.7602,555,687.9143,565,688.1476,575,688.2252,585,687.805,595,688.0962,605,687.2365,615,688.0933,625,688.3571,635,688.2535,645,688.422,655,687.3259,665,687.1568,675,687.1875,685,687.7501,695,687.6124,705,688.4904,715,687.6343,725,687.4659,735,688.0372,745,687.1421,755,687.2898,765,688.4579,775,688.2446,785,688.5434,795,687.4872,805,688.1281,815,688.3994,825,687.3365,835,687.7131,845,687.9349,855,688.4607,865,687.8048,875,687.8089,875.059,687.9514,875.2829,687.7849,875.6207,687.8933,876.1249,688.4034,876.3228,688.1739,876.7678,688.5412,876.9245,688.6061,876.9778,688.9211,876.9782,689.2141,877.0982,689.5567,877.4948,690.0139,877.5,690.3089,877.2007,690.3089,878.0919,699.4349,876.9473,708.5609,878.1174,717.6868,877.9843,726.8128,877.5,735.9388,877.5754,735.97,877.3681,736.2984,877.4309,736.7386,877.2496,737.0777,876.9663,737.3746,876.7678,737.7066,876.802,737.7891,876.3976,737.8129,876.1521,738.2201,875.7269,738.1936,875.3756,738.3455,875,738.4388,875,737.8304,865,738.0336,855,738.9695,845,738.8685,835,738.3959,825,738.1166,815,738.2199,805,737.7526,795,738.8535,785,739.1783,775,738.9652,765,739.1337,755,738.3021,745,738.526,735,738.0512,725,738.7228,715,738.6855,705,738.9912,695,738.2091,685,738.3044,675,738.8822,665,739.0061,655,737.9263,645,738.2449,635,738.588,625,737.8279,615,738.7922,605,738.6968,595,738.338,585,738.581,575,739.1675,565,738.1259,555,738.7538,545,738.7244,535,738.5546,525,738.5797,515,738.5523,505,737.8146,495,738.038,485,737.9772,475,738.5026,465,738.5269,455,738.6005,445,738.1478,435,738.3713,425,738.3186,415,739.0156,405,738.8653,395,737.9532,385,738.3659,375,737.8616,365,738.7272,355,739.0473,345,738.9833,335,738.0032,325,738.9028,315,737.696,305,738.6389,295,738.1395,285,738.5355,275,738.6791,265,738.9109,255,737.7189,245,738.9143,235,738.617,225,738.4388,225.0453,738.5482,224.7418,738.5226,224.2936,738.1476,223.9617,738.0534,223.613,737.9187,223.2322,737.7066,223.293,737.7317,223.0855,737.3529,223.1582,737.0901,222.6051,736.5681,222.8205,736.3644,222.5,735.9388,221.876,735.9388,221.9597,726.8128,222.54,717.6868,222.5283,708.5609,222.0072,699.4349,222.5,690.3089,222.6274,690.3617,222.68,689.9693,223.0167,689.6945,223.1448,689.3334,222.9477,688.8376,223.2322,688.5412,223.1815,688.4186,223.5693,688.355,223.9847,688.3578,224.3443,688.2259,224.6849,688.0481,225,687.8089" style="stroke:#181818;stroke-width:4.0;"/><text fill="#000000" font-family="Chalkduster" font-size="24" lengthAdjust="spacing" textLength="635" x="232.5" y="721.6498">RO-Crate Metadata Schema (incl. Schema.org)</text></g><g id="elem_GMN9"><path d="M23,89.2889 L23.1868,89.2889 L22.6317,97.4149 L23.1718,105.5409 L23.3553,113.6668 L22.3659,121.7928 L23,129.9188 L23,129.7115 L32.9524,128.7815 L42.9048,128.8961 L52.8571,129.737 L62.8095,128.0751 L72.7619,131.3952 L82.7143,128.238 L92.6667,129.3914 L102.619,131.0706 L112.5714,129.69 L122.5238,130.1008 L132.4762,129.8336 L142.4286,130.3949 L152.381,130.5565 L162.3333,131.4806 L172.2857,131.7083 L182.2381,131.7301 L192.1905,130.5978 L202.1429,131.155 L212.0952,131.7914 L222.0476,127.9956 L232,131.7281 L241.9524,129.1281 L251.9048,131.3423 L261.8571,128.5987 L271.8095,129.7361 L281.7619,131.8964 L291.7143,129.7888 L301.6667,130.1996 L311.619,130.8218 L321.5714,131.0287 L331.5238,129.9084 L341.4762,130.6847 L351.4286,128.3923 L361.381,130.6771 L371.3333,131.3806 L381.2857,131.1042 L391.2381,131.5535 L401.1905,128.6306 L411.1429,128.1796 L421.0952,128.2617 L431.0476,129.7618 L441,129.9188 L440.8253,129.9188 L441.6057,123.7928 L440.8447,117.6668 L440.6951,111.5409 L441.2029,105.4149 L441,99.2889 L440.5809,98.8698 L438.6737,96.9627 L437.4079,95.6968 L435.2738,93.5628 L433.4617,91.7506 L431,89.2889 L431,88.4308 L421.0488,90.1401 L411.0976,90.8634 L401.1463,88.0292 L391.1951,89.0333 L381.2439,89.6249 L371.2927,91.027 L361.3415,89.2778 L351.3902,90.5225 L341.439,87.8122 L331.4878,87.4829 L321.5366,90.6319 L311.5854,87.3771 L301.6341,90.6462 L291.6829,89.84 L281.7317,88.5745 L271.7805,88.3456 L261.8293,90.5123 L251.878,88.4907 L241.9268,90.8672 L231.9756,87.815 L222.0244,90.9354 L212.0732,90.5804 L202.122,89.9422 L192.1707,89.4149 L182.2195,91.2266 L172.2683,90.9252 L162.3171,89.7403 L152.3659,90.0041 L142.4146,88.9416 L132.4634,91.1995 L122.5122,89.7019 L112.561,89.7491 L102.6098,87.6667 L92.6585,88.2084 L82.7073,90.7043 L72.7561,90.435 L62.8049,89.1745 L52.8537,88.4298 L42.9024,88.7051 L32.9512,87.4591 L23,89.2889 " fill="#FFFFE0" style="stroke:#181818;stroke-width:4.0;"/><path d="M431,89.2889 L431.1868,89.2889 L430.6317,91.2889 L431.1718,93.2889 L431.3553,95.2889 L430.3659,97.2889 L431,99.2889 L431,99.2199 L433,98.9098 L435,98.9481 L437,99.2284 L439,98.6744 L441,99.2889 L441.348,99.6369 L438.6038,96.8928 L436.8757,95.1646 L435.2715,93.5604 L432.9461,91.235 L431,89.2889 " fill="#FFFFE0" style="stroke:#181818;stroke-width:1.0;"/><text fill="#000000" font-family="Chalkduster" font-size="24" lengthAdjust="spacing" textLength="397" x="29" y="118.1298">http://w3id.org/ldac/profile</text></g><g id="elem_GMN12"><path d="M23,550.1789 L23.1868,550.1789 L22.6317,558.3049 L23.1718,566.4309 L23.3553,574.5568 L22.3659,582.6828 L23,590.8088 L23,590.8088 L23,590.6015 L33.0754,589.6715 L43.1508,589.7861 L53.2263,590.627 L63.3017,588.9651 L73.3771,592.2852 L83.4525,589.128 L93.5279,590.2814 L103.6033,591.9606 L113.6788,590.58 L123.7542,590.9908 L133.8296,590.7236 L143.905,591.2849 L153.9804,591.4465 L164.0558,592.3706 L174.1313,592.5983 L184.2067,592.6201 L194.2821,591.4878 L204.3575,592.045 L214.4329,592.6814 L224.5083,588.8856 L234.5838,592.6181 L244.6592,590.0181 L254.7346,592.2323 L264.81,590.8088 L264.2945,589.5935 L273.8419,594.5022 L283.7887,600.3526 L292.0688,602.274 L301.3325,606.5137 L310.6786,610.9481 L319.8627,615.0002 L328.5283,617.8304 L337.9347,622.4067 L346.1427,624.158 L356.1382,630.123 L365.5161,634.6322 L374.5113,638.2394 L383.79,642.5146 L391.7517,643.6854 L400.6788,647.1318 L409.8141,651.069 L419.5031,656.3115 L428.4629,659.8352 L438.4804,665.8521 L446.6921,667.6121 L455.6199,671.0604 L465.3181,676.3245 L473.4892,677.9887 L482.7462,682.2129 L492.39,687.3489 L493.0865,688.9331 L483.7084,684.39 L474.88,681.0969 L464.5971,674.4959 L456.1359,672.0381 L447.2778,668.6777 L436.988,662.0607 L428.2429,658.9574 L419.3319,655.4764 L410.747,652.7374 L400.8938,647.1136 L392.2456,644.2306 L382.0056,637.727 L372.724,633.4031 L364.8422,632.2632 L354.383,625.2612 L346.5496,624.2313 L337.0759,619.4707 L327.4175,614.2898 L318.1761,610.0577 L309.899,608.0187 L299.9362,602.1456 L291.7436,600.2986 L281.3659,593.482 L272.81,590.8088 L272.81,592.4553 L282.8227,592.1003 L292.8353,591.462 L302.848,590.9347 L312.8607,592.7464 L322.8733,592.445 L332.886,591.2601 L342.8987,591.524 L352.9113,590.4614 L362.924,592.7193 L372.9367,591.2218 L382.9493,591.269 L392.962,589.1865 L402.9747,589.7282 L412.9873,592.2241 L423,590.8088 L423,590.8088 L423.382,590.8088 L422.9618,584.6828 L422.7136,578.5568 L422.8054,572.4309 L422.3901,566.3049 L423,560.1789 L423.2607,560.4396 L421.4648,558.6438 L419.3309,556.5098 L417.4368,554.6157 L414.9141,552.093 L413,550.1789 L413,550.4115 L403,549.1454 L393,550.9364 L383,550.837 L373,551.652 L363,549.5665 L353,549.8205 L343,551.3615 L333,551.6918 L323,548.8122 L313,549.6619 L303,550.577 L293,548.55 L283,551.1213 L273,550.8669 L263,549.9103 L253,550.5583 L243,552.1221 L233,549.3446 L223,551.0189 L213,550.9407 L203,550.4877 L193,550.5547 L183,550.4816 L173,548.5145 L163,549.1101 L153,548.9482 L143,550.3491 L133,550.414 L123,550.6103 L113,549.403 L103,549.9989 L93,549.8584 L83,551.7172 L73,551.3165 L63,548.8842 L53,549.9845 L43,548.6397 L33,550.948 L23,550.1789 L23,550.1789 " fill="#FFFFE0" style="stroke:#181818;stroke-width:4.0;"/><path d="M413,550.1789 L413.1868,550.1789 L412.6317,552.1789 L413.1718,554.1789 L413.3553,556.1789 L412.3659,558.1789 L413,560.1789 L413,560.1099 L415,559.7998 L417,559.8381 L419,560.1184 L421,559.5644 L423,560.1789 L423.348,560.5269 L420.6038,557.7828 L418.8757,556.0546 L417.2715,554.4504 L414.9461,552.125 L413,550.1789 " fill="#FFFFE0" style="stroke:#181818;stroke-width:4.0;"/><text fill="#000000" font-family="Chalkduster" font-size="24" lengthAdjust="spacing" textLength="379" x="29" y="579.0198">http://w3id.org/ldac/terms</text></g><!--entity Exposition: Collection Structure, Guidance etc--><g id="elem_Exposition: Collection Structure, Guidance etc"><polygon fill="none" points="373.5,241.9189,373.5,242.1291,383.5152,241.5046,393.5303,242.1122,403.5455,242.3186,413.5606,241.2056,423.5758,241.8412,433.5909,241.4925,443.6061,241.5355,453.6212,241.8508,463.6364,241.2276,473.6515,242.4726,483.6667,241.2887,493.6818,241.7212,503.697,242.3509,513.7121,241.8332,523.7273,241.9872,533.7424,241.887,543.7576,242.0975,553.7727,242.1581,563.7879,242.5046,573.803,242.59,583.8182,242.5982,593.8333,242.1736,603.8485,242.3825,613.8636,242.6212,623.8788,241.1978,633.8939,242.5975,643.9091,241.6224,653.9242,242.4528,663.9394,241.4239,673.9545,241.8505,683.9697,242.6606,693.9848,241.8702,704,242.0243,714.0152,242.2576,724.0303,242.3352,734.0455,241.915,744.0606,242.2062,754.0758,241.3465,764.0909,242.2033,774.1061,242.4671,784.1212,242.3635,794.1364,242.532,804.1515,241.4359,814.1667,241.2668,824.1818,241.2975,834.197,241.8601,844.2121,241.7224,854.2273,242.6004,864.2424,241.7443,874.2576,241.5759,884.2727,242.1472,894.2879,241.2521,904.303,241.3998,914.3182,242.5679,924.3333,242.3546,934.3485,242.6534,944.3636,241.5972,954.3788,242.2381,964.3939,242.5094,974.4091,241.4465,984.4242,241.8231,994.4394,242.0449,1004.4545,242.5707,1014.4697,241.9148,1024.4848,242.3815,1034.5,241.9189,1034.4294,241.7484,1034.7672,241.8568,1035.2713,242.3669,1035.4692,242.1375,1035.9791,242.6615,1036.2678,242.6512,1036.3314,242.6775,1036.3317,242.9706,1036.4517,243.3132,1036.8484,243.7704,1036.7614,244.0272,1037,244.4189,1037.5919,244.4189,1036.4473,253.5449,1037.6174,262.6709,1037.4843,271.7968,1037.245,280.9228,1037,290.0488,1037.0145,290.0548,1037.0773,290.495,1036.8961,290.8342,1036.6128,291.131,1036.4968,291.4972,1036.2678,291.8166,1036.2512,291.7764,1036.0056,292.1836,1035.5804,292.1571,1035.2291,292.309,1034.776,292.215,1034.5,292.5488,1034.5,292.1436,1024.4848,293.0795,1014.4697,292.9785,1004.4545,292.5059,994.4394,292.2266,984.4242,292.3299,974.4091,291.8626,964.3939,292.9635,954.3788,293.2883,944.3636,293.0752,934.3485,293.2437,924.3333,292.4121,914.3182,292.636,904.303,292.1612,894.2879,292.8328,884.2727,292.7955,874.2576,293.1012,864.2424,292.3191,854.2273,292.4144,844.2121,292.9922,834.197,293.1161,824.1818,292.0363,814.1667,292.3549,804.1515,292.698,794.1364,291.9379,784.1212,292.9022,774.1061,292.8068,764.0909,292.448,754.0758,292.691,744.0606,293.2775,734.0455,292.2359,724.0303,292.8638,714.0152,292.8344,704,292.6646,693.9848,292.6897,683.9697,292.6623,673.9545,291.9246,663.9394,292.148,653.9242,292.0872,643.9091,292.6126,633.8939,292.6369,623.8788,292.7105,613.8636,292.2578,603.8485,292.4813,593.8333,292.4286,583.8182,293.1256,573.803,292.9753,563.7879,292.0632,553.7727,292.4759,543.7576,291.9716,533.7424,292.8372,523.7273,293.1573,513.7121,293.0933,503.697,292.1132,493.6818,293.0128,483.6667,291.806,473.6515,292.7489,463.6364,292.2495,453.6212,292.6455,443.6061,292.7891,433.5909,293.0209,423.5758,291.8289,413.5606,293.0243,403.5455,292.727,393.5303,292.9041,383.5152,293.2966,373.5,292.5488,373.5007,292.5505,373.1688,292.4563,372.8201,292.3216,372.4645,292.1702,372.0857,291.9627,371.7322,291.8166,371.9511,291.9072,371.398,291.3852,371.6134,291.1816,371.1007,290.6763,370.9801,290.3334,371,290.0488,371.04,290.0488,371.0283,280.9228,370.5072,271.7968,371.4137,262.6709,371.1089,253.5449,371,244.4189,371.2238,244.5116,371.3519,244.1505,371.1548,243.6547,371.3168,243.3075,371.546,242.9883,371.7322,242.6512,371.7776,242.7607,372.1372,242.6288,372.4778,242.451,372.7493,242.1065,373.2276,242.2614,373.5,241.9189" style="stroke:#181818;stroke-width:4.0;"/><text fill="#000000" font-family="Chalkduster" font-size="24" lengthAdjust="spacing" textLength="646" x="381" y="275.7598">Exposition: Collection Structure, Guidance etc</text></g><!--entity rules--><g id="elem_rules"><polygon fill="none" points="85,241.9189,85,242.1291,94.92,241.5046,104.84,242.1122,114.76,242.3186,124.68,241.2056,134.6,241.8412,144.52,241.4925,154.44,241.5355,164.36,241.8508,174.28,241.2276,184.2,242.4726,194.12,241.2887,204.04,241.7212,213.96,242.3509,223.88,241.8332,233.8,241.9872,243.72,241.887,253.64,242.0975,263.56,242.1581,273.48,242.5046,283.4,242.59,293.32,242.5982,303.24,242.1736,313.16,242.3825,323.08,242.6212,333,241.9189,332.908,241.6969,333.4401,242.2744,333.6693,242.1205,334.1288,242.5227,334.3511,242.3523,334.7678,242.6512,334.7467,242.6424,335.1426,243.0993,335.0457,243.3521,335.2395,243.7253,335.4578,244.1086,335.5,244.4189,335.9162,244.4189,335.4961,253.5449,335.7872,262.6709,334.9276,271.7968,335.7844,280.9228,335.5,290.0488,335.6688,290.1187,335.4905,290.459,335.3959,290.8341,334.9119,291.0478,334.7134,291.3798,334.7678,291.8166,334.6885,291.6252,334.4067,291.9449,334.0356,292.0489,333.794,292.4657,333.3313,292.3485,333,292.5488,333,292.2057,323.08,292.7771,313.16,291.8819,303.24,292.0297,293.32,293.1977,283.4,292.9845,273.48,293.2833,263.56,292.227,253.64,292.868,243.72,293.1392,233.8,292.0764,223.88,292.4529,213.96,292.6748,204.04,293.2005,194.12,292.5446,184.2,293.0114,174.28,291.995,164.36,291.8715,154.44,293.0524,144.52,291.8318,134.6,293.0577,124.68,292.7554,114.76,292.2809,104.84,292.195,94.92,293.0075,85,292.5488,84.9618,292.4566,84.7219,292.5846,84.2224,292.0857,84.0181,292.2996,83.6476,292.1121,83.2322,291.8166,83.3077,291.8478,83.1003,291.469,83.1631,291.2021,82.9819,290.8342,82.6986,290.4239,82.5,290.0488,82.7682,290.0488,82.3697,280.9228,83.2165,271.7968,82.6549,262.6709,82.6726,253.5449,82.5,244.4189,82.3127,244.3413,82.5217,244.0137,82.9563,243.7795,83.0717,243.4131,83.0726,242.9993,83.2322,242.6512,83.1911,242.552,83.5579,242.4373,83.8518,242.147,84.3458,242.3396,84.7408,242.2932,85,241.9189" style="stroke:#181818;stroke-width:4.0;"/><text fill="#000000" font-family="Chalkduster" font-size="24" lengthAdjust="spacing" textLength="221" x="92.5" y="275.7598">Syntax summary</text></g><!--link GMN9 to prof--><g id="link_GMN9_prof"><path d="M124.15,130.3389 L124.1878,130.4244 L120.841,131.6029 L117.716,133.2821 L114.5187,134.7983 L111.084,135.7783 L107.978,137.5005 L107.9609,137.4705 L104.8082,139.0788 L101.7413,140.8386 L98.734,142.7037 L95.5211,144.2059 L92.5963,146.2164 L92.7422,146.4145 L89.6016,148.0754 L86.8872,150.3146 L84.2247,152.6243 L81.2598,154.5235 L78.4539,156.6386 L78.4752,156.6602 L75.9532,159.0846 L73.5281,161.6073 L71.0562,164.0825 L68.6735,166.6482 L66,168.9189 L66.2485,169.0839 L64.4567,171.7904 L62.5047,174.3905 L60.7873,177.1464 L59.0808,179.9095 L57.026,182.4415 L56.7384,182.3 L57.1162,182.9413 L56.547,183.1166 L56.6977,183.6462 L56.107,183.811 L56.124,184.2748 L56.0965,184.2618 L56.3784,184.508 L56.0171,184.4504 L56.0353,184.5721 L56.0854,184.7089 L55.9057,184.7371 " fill="none" style="stroke:#8B0000;stroke-width:4.0;stroke-dasharray:7.0,7.0;"/></g><!--link eprof to lsoss--><g id="link_eprof_lsoss"><path d="M650.39,453.3589 L650.5886,453.5567 L657.251,460.2542 L665.0776,468.1108 L672.5252,475.5899 L678.7259,481.8279 L686.5791,489.7108 L693.502,496.6677 L700.7951,503.9932 L708.3456,511.5748 L715.0092,518.2736 L723.4381,526.7298 L729.5719,532.901 L737.42,540.7789 " fill="none" style="stroke:#8B0000;stroke-width:4.0;"/><polygon fill="#8B0000" points="740.42,543.8089,740.4854,543.834,739.5876,541.9197,739.0734,540.1522,738.4343,538.3368,737.3843,536.3644,736.903,534.6094,736.8771,534.6094,736.7586,535.7405,736.7706,536.8719,736.8735,538.0035,736.6634,539.1344,736.8916,540.2663,736.892,540.4508,735.7598,540.0539,734.6287,540.1958,733.4978,540.4034,732.3661,540.2285,731.2348,540.2549,731.243,540.2761,733.068,540.9557,734.9303,541.732,736.7747,542.4617,738.6534,543.2802,740.42,543.8089" style="stroke:#8B0000;stroke-width:4.0;"/><text fill="#000000" font-family="Chalkduster" font-size="24" lengthAdjust="spacing" textLength="182" x="709" y="508.0198">Derived from</text></g><!--link lsoss to soss--><g id="link_lsoss_soss"><path d="M728.38,595.9889 L728.5329,596.2238 L719.5955,601.0491 L711.5544,607.2512 L703.2214,613.0049 L693.9285,617.2843 L685.9078,623.5177 L677.171,628.6511 L668.7191,634.2223 L660.4654,640.0978 L651.5289,644.9246 L643.9515,651.8388 L634.6071,656.0391 L626.4386,662.0455 L618.4136,668.2722 L609.5538,673.2169 L601.1828,678.9121 L592.65,684.3589 " fill="none" style="stroke:#8B0000;stroke-width:4.0;"/><polygon fill="#8B0000" points="588.92,687.4389,588.931,687.5081,590.8435,686.9928,592.8207,686.8831,594.7767,686.6412,596.6637,685.9651,598.6463,685.8902,598.6409,685.8648,597.5101,685.5161,596.4064,685.2951,595.3215,685.1628,594.1717,684.7246,593.1129,684.715,593.2934,684.7533,593.1424,683.5647,593.5184,682.4879,593.9588,681.4249,594.025,680.2823,594.288,679.1816,594.3071,679.194,593.2055,680.8272,592.1907,682.517,591.134,684.1794,590.1573,685.8939,588.92,687.4389" style="stroke:#8B0000;stroke-width:4.0;"/><text fill="#000000" font-family="Chalkduster" font-size="24" lengthAdjust="spacing" textLength="108" x="678" y="650.6498">Extends</text></g><!--link rules to eprof--><g id="link_rules_eprof"><path d="M261.92,292.9789 L261.9584,293.0641 L266.1545,294.7541 L270.5757,296.9434 L274.9236,298.9701 L279.0304,300.4621 L283.4709,302.6943 L283.457,302.6626 L288.0225,304.5542 L292.658,306.6051 L297.3422,308.7668 L301.8586,310.5467 L306.61,312.8614 L306.7062,313.0879 L311.2633,314.6273 L316.1013,316.8279 L320.9735,319.1092 L325.6463,320.9211 L330.4241,322.9799 L330.4355,323.008 L335.1339,324.8805 L339.8843,326.881 L344.6096,328.8198 L349.3827,330.8763 L354,332.5489 L354.1078,332.827 L358.907,334.6903 L363.6368,336.3742 L368.4683,338.3206 L373.3045,340.2794 L377.9896,341.8483 L377.8769,341.5482 L383.0069,343.9761 L387.7656,345.416 L392.8065,347.607 L397.5568,349.0245 L402.5453,351.076 L402.5349,351.0474 L407.6182,353.2002 L412.4571,354.6849 L417.4402,356.5639 L422.4354,358.4759 L427.3433,360.1492 L427.4056,360.3234 L432.2861,361.9148 L437.273,363.8038 L442.0877,365.2113 L447.1592,367.337 L452.06,368.9852 L452.1405,369.2151 L456.9876,370.8748 L461.8747,372.6487 L466.576,373.892 L471.4135,375.5243 L476.3717,377.501 L476.2818,377.2398 L481.0798,379.0988 L485.7765,380.6635 L490.62,382.6551 L495.2128,383.9178 L499.9547,385.6138 L499.8089,385.1802 L508.7887,388.8393 L517.1455,390.6451 L525.9453,393.7688 L535.1786,398.1821 L543.64,400.2989 " fill="none" style="stroke:#8B0000;stroke-width:4.0;"/><polygon fill="#8B0000" points="548.16,402.1289,548.2071,402.1808,546.61,400.7013,545.2893,399.5256,543.8785,398.2509,542.1718,396.651,540.8748,395.5013,540.8516,395.4897,541.2555,396.4485,541.7761,397.466,542.3778,398.5242,542.7,399.4419,543.4137,400.5564,543.4966,400.7213,542.3084,400.8764,541.3621,401.5131,540.4453,402.2084,539.3569,402.562,538.3587,403.0954,538.3609,403.118,540.3179,402.8915,542.285,402.768,544.2473,402.5948,546.2189,402.5165,548.16,402.1289" style="stroke:#8B0000;stroke-width:4.0;"/><text fill="#000000" font-family="Chalkduster" font-size="24" lengthAdjust="spacing" textLength="229" x="458" y="365.3898">Generated from</text></g><!--SRC=[TPBFRi8m3CRlUGglfqrQsyDk5U82ZCiGqtY0AKeCLCgVAd56gsdllYG5n1ZaaYRszxFzfG-j4If8_DJS351LjUJ4otZWEzHegFGqAAoe9yQOGq7Sx1H2yR4kPuuJmhkpsrQXBs0oyJ4gkPD-EeLl1d5TADxY7Y8Lvh42pApMrdYuvi3SYf0A5y0zTF7oI3gj2-AYxwnlgRMcYJobOYH-muPS41GSFiCoj98RWO0aYdkOpM28z-23rjmDa0kx44VAWf-pZB7_sjnxkOQLbGYliV-injJtZUpR5goGU78TDcAFccU2yjRx6uIpNLSYU4plM1rFbNMxfyp966EZW6m7qSpKMGDxegwfwyDBArDkhIGNTJU-m9_qfB-JJkZqfKNn_yXpGodjmPJJSGPeO8wk_K89MsSr6ozFASUCHKzef6VPzNDmf3MmH8DfvYFX5m00]--></g></svg>