<svg xmlns="http://www.w3.org/2000/svg" xmlns:xlink="http://www.w3.org/1999/xlink" contentStyleType="text/css" data-diagram-type="DESCRIPTION" height="658px" preserveAspectRatio="none" style="width:1549px;height:658px;background:#FFFFFF;" version="1.1" viewBox="0 0 1549 658" width="1549px" zoomAndPan="magnify"><defs/><g><!--cluster RO-Crate Profiles--><g id="cluster_RO-Crate Profiles"><polygon fill="#E6E6FA" points="9.5,9.2889,9.5,9.4991,19.5065,8.8746,29.5131,9.4822,39.5196,9.6886,49.5261,8.5756,59.5327,9.2112,69.5392,8.8625,79.5458,8.9055,89.5523,9.2208,99.5588,8.5976,109.5654,9.8426,119.5719,8.6587,129.5784,9.0912,139.585,9.7209,149.5915,9.2032,159.598,9.3572,169.6046,9.257,179.6111,9.4675,189.6176,9.5281,199.6242,9.8746,209.6307,9.96,219.6373,9.9682,229.6438,9.5436,239.6503,9.7525,249.6569,9.9912,259.6634,8.5678,269.6699,9.9675,279.6765,8.9924,289.683,9.8228,299.6895,8.7939,309.6961,9.2205,319.7026,10.0306,329.7092,9.2402,339.7157,9.3943,349.7222,9.6276,359.7288,9.7052,369.7353,9.285,379.7418,9.5762,389.7484,8.7165,399.7549,9.5733,409.7614,9.8371,419.768,9.7335,429.7745,9.902,439.781,8.8059,449.7876,8.6368,459.7941,8.6675,469.8007,9.2301,479.8072,9.0924,489.8137,9.9704,499.8203,9.1143,509.8268,8.9459,519.8333,9.5172,529.8399,8.6221,539.8464,8.7698,549.8529,9.9379,559.8595,9.7246,569.866,10.0234,579.8725,8.9672,589.8791,9.6081,599.8856,9.8794,609.8922,8.8165,619.8987,9.1931,629.9052,9.4149,639.9118,9.9407,649.9183,9.2848,659.9248,9.7515,669.9314,8.7352,679.9379,8.6117,689.9444,9.7926,699.951,8.572,709.9575,9.7979,719.9641,9.4956,729.9706,9.021,739.9771,8.9352,749.9837,9.7477,759.9902,8.9896,769.9967,9.8808,780.0033,8.7362,790.0098,9.9064,800.0163,9.7733,810.0229,9.5339,820.0294,9.3362,830.0359,10.0156,840.0425,9.9025,850.049,9.4582,860.0556,9.5571,870.0621,9.1587,880.0686,10.0054,890.0752,9.4438,900.0817,9.4615,910.0882,8.6806,920.0948,8.8837,930.1013,9.8197,940.1078,9.7187,950.1144,9.246,960.1209,8.9668,970.1275,9.07,980.134,8.6028,990.1405,9.7037,1000.1471,10.0285,1010.1536,9.8153,1020.1601,9.9839,1030.1667,9.1522,1040.1732,9.3762,1050.1797,8.9014,1060.1863,9.573,1070.1928,9.5357,1080.1993,9.8413,1090.2059,9.0593,1100.2124,9.1545,1110.219,9.7324,1120.2255,9.8563,1130.232,8.7764,1140.2386,9.0951,1150.2451,9.4382,1160.2516,8.6781,1170.2582,9.6423,1180.2647,9.5469,1190.2712,9.1882,1200.2778,9.4312,1210.2843,10.0176,1220.2908,8.9761,1230.2974,9.6039,1240.3039,9.5746,1250.3105,9.4047,1260.317,9.4299,1270.3235,9.4024,1280.3301,8.6648,1290.3366,8.8881,1300.3431,8.8274,1310.3497,9.3528,1320.3562,9.3771,1330.3627,9.4507,1340.3693,8.998,1350.3758,9.2214,1360.3824,9.1687,1370.3889,9.8658,1380.3954,9.7155,1390.402,8.8034,1400.4085,9.216,1410.415,8.7117,1420.4216,9.5773,1430.4281,9.8974,1440.4346,9.8335,1450.4412,8.8534,1460.4477,9.7529,1470.4542,8.5461,1480.4608,9.4891,1490.4673,8.9896,1500.4739,9.3857,1510.4804,9.5293,1520.4869,9.7611,1530.4935,8.569,1540.5,9.2889,1540.5607,9.4354,1540.8763,9.4903,1541.2524,9.6913,1541.6561,9.9586,1541.9149,9.8764,1542.2678,10.0212,1542.3217,10.0435,1542.4799,10.402,1542.6214,10.7534,1542.7069,11.0817,1543.0724,11.5261,1543,11.7889,1542.3903,11.7889,1543.5653,21.7658,1542.376,31.7427,1542.4597,41.7196,1543.04,51.6964,1543.0283,61.6733,1542.5072,71.6502,1543.4137,81.6271,1543.1089,91.6039,1543.7267,101.5808,1543.6671,111.5577,1542.5517,121.5346,1542.6021,131.5114,1542.8708,141.4883,1543.3555,151.4652,1543.403,161.4421,1543.3012,171.4189,1542.658,181.3958,1543.6364,191.3727,1543.6338,201.3496,1542.9527,211.3264,1542.7609,221.3033,1542.5986,231.2802,1542.7854,241.2571,1543.1374,251.2339,1542.9316,261.2108,1542.5822,271.1877,1543.4874,281.1646,1542.5411,291.1414,1543.5024,301.1183,1543.4272,311.0952,1543.3719,321.0721,1543.6925,331.0489,1542.7541,341.0258,1542.6994,351.0027,1543.5189,360.9796,1542.4031,370.9564,1542.766,380.9333,1543.1155,390.9102,1543.0687,400.8871,1542.6415,410.8639,1542.957,420.8408,1543.7446,430.8177,1543.6485,440.7946,1542.4037,450.7714,1543.0785,460.7483,1542.4861,470.7252,1542.9737,480.7021,1543.293,490.6789,1543.4199,500.6558,1542.3353,510.6327,1543.4005,520.6096,1543.0084,530.5864,1542.4447,540.5633,1542.5289,550.5402,1543.3266,560.5171,1543.2499,570.4939,1542.9836,580.4708,1542.3279,590.4477,1543.6581,600.4246,1542.6882,610.4014,1542.4719,620.3783,1542.9327,630.3552,1543.5897,640.3321,1543,650.3089,1543.1895,650.3875,1542.8644,650.667,1542.6606,650.9968,1542.6129,651.3913,1542.4716,651.7469,1542.2678,652.0767,1542.203,651.9203,1541.967,652.3506,1541.6319,652.5417,1541.1796,652.4496,1540.7988,652.5303,1540.5,652.8089,1540.5,653.4836,1530.4935,652.83,1520.4869,652.8088,1510.4804,653.108,1500.4739,652.1633,1490.4673,653.3389,1480.4608,652.7935,1470.4542,653.4778,1460.4477,652.5931,1450.4412,653.2179,1440.4346,652.365,1430.4281,653.054,1420.4216,653.1882,1410.415,652.4816,1400.4085,653.172,1390.402,652.2375,1380.3954,652.3385,1370.3889,653.4918,1360.3824,653.4933,1350.3758,653.3774,1340.3693,652.4486,1330.3627,653.1932,1320.3562,652.3369,1310.3497,652.8671,1300.3431,652.8077,1290.3366,652.5465,1280.3301,653.4249,1270.3235,653.2522,1260.317,652.4882,1250.3105,653.3356,1240.3039,652.9008,1230.2974,652.2254,1220.2908,652.5756,1210.2843,652.2837,1200.2778,652.6699,1190.2712,652.18,1180.2647,652.2088,1170.2582,652.8793,1160.2516,652.6886,1150.2451,652.7504,1140.2386,652.6658,1130.232,652.9763,1120.2255,652.2539,1110.219,652.969,1100.2124,652.0658,1090.2059,653.105,1080.1993,653.4017,1070.1928,653.331,1060.1863,653.1703,1050.1797,653.0012,1040.1732,652.9147,1030.1667,652.1689,1020.1601,653.2555,1010.1536,653.1386,1000.1471,652.6556,990.1405,652.8032,980.134,652.6004,970.1275,653.0266,960.1209,653.4895,950.1144,652.455,940.1078,653.2778,930.1013,652.7197,920.0948,652.4297,910.0882,652.3771,900.0817,652.1643,890.0752,652.3681,880.0686,652.8452,870.0621,653.0819,860.0556,653.3852,850.049,653.229,840.0425,652.0976,830.0359,653.428,820.0294,653.2951,810.0229,653.3497,800.0163,653.3308,790.0098,652.1498,780.0033,652.5512,769.9967,653.1249,759.9902,652.3275,749.9837,652.7061,739.9771,652.8759,729.9706,653.135,719.9641,652.8547,709.9575,653.5537,699.951,653.2203,689.9444,653.065,679.9379,652.269,669.9314,653.1477,659.9248,652.2345,649.9183,653.1146,639.9118,652.8168,629.9052,653.1084,619.8987,652.7215,609.8922,652.6128,599.8856,652.0681,589.8791,652.5945,579.8725,652.104,569.866,652.5628,559.8595,653.2468,549.8529,652.9697,539.8464,652.3574,529.8399,653.0548,519.8333,652.8745,509.8268,653.3522,499.8203,653.3739,489.8137,652.9026,479.8072,652.63,469.8007,652.5945,459.7941,652.8026,449.7876,653.4781,439.781,652.1353,429.7745,652.6451,419.768,653.0757,409.7614,653.5406,399.7549,653.0209,389.7484,652.6107,379.7418,652.071,369.7353,652.3851,359.7288,652.5871,349.7222,653.1488,339.7157,653.1784,329.7092,652.8608,319.7026,652.676,309.6961,652.0893,299.6895,652.9379,289.683,653.2444,279.6765,653.4918,269.6699,652.9073,259.6634,652.8889,249.6569,652.5888,239.6503,653.0577,229.6438,652.339,219.6373,653.325,209.6307,652.5033,199.6242,652.2788,189.6176,653.0658,179.6111,653.2808,169.6046,652.8662,159.598,652.6878,149.5915,652.9668,139.585,652.7843,129.5784,652.7138,119.5719,652.8858,109.5654,652.477,99.5588,653.1985,89.5523,653.4964,79.5458,652.4554,69.5392,652.5746,59.5327,652.3404,49.5261,653.0459,39.5196,652.7152,29.5131,653.3603,19.5065,652.5087,9.5,652.8089,9.4542,652.6984,9.1843,652.7539,8.7643,652.4469,8.4734,652.4518,8.1215,652.3093,7.7322,652.0767,7.8665,652.1323,7.4365,651.6613,7.4664,651.3808,7.4577,651.0843,6.9792,650.5932,7,650.3089,7.5044,650.3089,6.6604,640.3321,7.1567,630.3552,7.6528,620.3783,6.3696,610.4014,7.7221,600.4246,6.9216,590.4477,6.6741,580.4708,7.7313,570.4939,6.3123,560.5171,7.6056,550.5402,6.5987,540.5633,7.2901,530.5864,7.73,520.6096,6.8515,510.6327,6.5728,500.6558,6.6267,490.6789,6.8177,480.7021,7.2961,470.7252,6.4447,460.7483,7.5114,450.7714,7.5645,440.7946,6.2979,430.8177,6.8573,420.8408,6.5373,410.8639,7.1721,400.8871,6.2885,390.9102,7.1357,380.9333,7.3587,370.9564,6.9512,360.9796,7.1559,351.0027,7.0141,341.0258,7.2472,331.0489,7.7179,321.0721,7.6579,311.0952,7.2698,301.1183,7.0485,291.1414,7.2436,281.1646,7.1528,271.1877,7.1926,261.2108,7.4578,251.2339,6.2689,241.2571,7.4323,231.2802,7.5061,221.3033,6.3152,211.3264,7.6309,201.3496,7.1348,191.3727,6.8667,181.3958,6.356,171.4189,6.6698,161.4421,7.6239,151.4652,6.4134,141.4883,7.5453,131.5114,6.7715,121.5346,7.3158,111.5577,6.5076,101.5808,6.7655,91.6039,7.6784,81.6271,7.2497,71.6502,6.8041,61.6733,7.2248,51.6964,7.5497,41.7196,7.203,31.7427,7.6193,21.7658,7,11.7889,7.154,11.8527,7.2011,11.458,7.2529,11.0653,7.3522,10.6922,7.4731,10.3281,7.7322,10.0212,7.7677,10.1067,8.0903,9.8857,8.5181,9.9185,8.7497,9.4777,9.1277,9.3901,9.5,9.2889" style="stroke:#181818;stroke-width:4;"/><text fill="#000000" font-family="Chalkduster" font-size="24" font-style="italic" lengthAdjust="spacing" textLength="168.5569" x="690.7215" y="35.1298">&#171;standards&#187;</text><text fill="#000000" font-family="Chalkduster" font-size="24" font-weight="bold" lengthAdjust="spacing" textLength="244.4287" x="652.7856" y="65.7597">RO-Crate Profiles</text></g><!--cluster prof--><g id="cluster_prof"><polygon fill="#FFFFFF" fill-opacity="0.00000" points="173.5,368.5489,173.5,368.7591,183.4706,368.1346,193.4412,368.7422,203.4118,368.9486,213.3824,367.8356,223.3529,368.4712,233.3235,368.1225,243.2941,368.1655,253.2647,368.4808,263.2353,367.8576,273.2059,369.1026,283.1765,367.9187,293.1471,368.3512,303.1176,368.9809,313.0882,368.4632,323.0588,368.6172,333.0294,368.517,343,368.7275,352.9706,368.7881,362.9412,369.1346,372.9118,369.22,382.8824,369.2282,392.8529,368.8036,402.8235,369.0125,412.7941,369.2512,422.7647,367.8278,432.7353,369.2275,442.7059,368.2524,452.6765,369.0828,462.6471,368.0539,472.6176,368.4805,482.5882,369.2906,492.5588,368.5002,502.5294,368.6543,512.5,368.8876,522.4706,368.9652,532.4412,368.545,542.4118,368.8362,552.3824,367.9765,562.3529,368.8333,572.3235,369.0971,582.2941,368.9935,592.2647,369.162,602.2353,368.0659,612.2059,367.8968,622.1765,367.9275,632.1471,368.4901,642.1176,368.3524,652.0882,369.2304,662.0588,368.3743,672.0294,368.2059,682,368.7772,691.9706,367.8821,701.9412,368.0298,711.9118,369.1979,721.8824,368.9846,731.8529,369.2834,741.8235,368.2272,751.7941,368.8681,761.7647,369.1394,771.7353,368.0765,781.7059,368.4531,791.6765,368.6749,801.6471,369.2007,811.6176,368.5448,821.5882,369.0115,831.5588,367.9952,841.5294,367.8717,851.5,369.0526,861.4706,367.832,871.4412,369.0579,881.4118,368.7556,891.3824,368.281,901.3529,368.1952,911.3235,369.0077,921.2941,368.2496,931.2647,369.1408,941.2353,367.9962,951.2059,369.1664,961.1765,369.0333,971.1471,368.7939,981.1176,368.5962,991.0882,369.2756,1001.0588,369.1625,1011.0294,368.7182,1021,368.8171,1030.9706,368.4187,1040.9412,369.2654,1050.9118,368.7038,1060.8824,368.7215,1070.8529,367.9406,1080.8235,368.1437,1090.7941,369.0797,1100.7647,368.9787,1110.7353,368.506,1120.7059,368.2268,1130.6765,368.33,1140.6471,367.8628,1150.6176,368.9637,1160.5882,369.2885,1170.5588,369.0753,1180.5294,369.2439,1190.5,368.5489,1190.4826,368.5068,1190.8647,368.7223,1191.1577,368.7225,1191.5969,369.0758,1191.9457,369.2107,1192.2678,369.2812,1192.4379,369.3516,1192.3435,369.6054,1192.5193,369.9711,1192.8437,370.3984,1193.0283,370.7678,1193,371.0489,1192.4875,371.0489,1192.8061,380.7897,1193.1493,390.5305,1192.3892,400.2713,1193.3534,410.012,1193.258,419.7528,1192.8992,429.4936,1193.1422,439.2343,1193.7287,448.9751,1192.6871,458.7159,1193.315,468.4566,1193.2856,478.1974,1193.1158,487.9382,1193,497.6789,1193.0434,497.6969,1192.8885,498.047,1192.5149,498.3064,1192.4372,498.6885,1192.2721,499.0343,1192.2678,499.4467,1192.2759,499.4664,1191.9255,499.6203,1191.5813,499.7894,1191.17,499.7964,1190.8449,500.0117,1190.5,500.1789,1190.5,500.0587,1180.5294,500.7558,1170.5588,500.6055,1160.5882,499.6934,1150.6176,500.106,1140.6471,499.6017,1130.6765,500.4673,1120.7059,500.7874,1110.7353,500.7235,1100.7647,499.7434,1090.7941,500.6429,1080.8235,499.4361,1070.8529,500.3791,1060.8824,499.8796,1050.9118,500.2757,1040.9412,500.4193,1030.9706,500.6511,1021,499.459,1011.0294,500.6544,1001.0588,500.3571,991.0882,500.5343,981.1176,500.9268,971.1471,500.1844,961.1765,500.3542,951.2059,500.3924,941.2353,500.3762,931.2647,500.1781,921.2941,500.8897,911.3235,499.5692,901.3529,500.7442,891.3824,499.5549,881.4118,499.6386,871.4412,500.219,861.4706,500.2072,851.5,499.6861,841.5294,500.5927,831.5588,500.2878,821.5882,500.9056,811.6176,500.8461,801.6471,499.7307,791.6765,499.781,781.7059,500.0498,771.7353,500.5345,761.7647,500.5819,751.7941,500.4801,741.8235,499.837,731.8529,500.8153,721.8824,500.8127,711.9118,500.1317,701.9412,499.9399,691.9706,499.7776,682,499.9644,672.0294,500.3164,662.0588,500.1106,652.0882,499.7612,642.1176,500.6663,632.1471,499.72,622.1765,500.6813,612.2059,500.6062,602.2353,500.5508,592.2647,500.8714,582.2941,499.9331,572.3235,499.8783,562.3529,500.6978,552.3824,499.5821,542.4118,499.945,532.4412,500.2944,522.4706,500.2476,512.5,499.8205,502.5294,500.136,492.5588,500.9235,482.5882,500.8274,472.6176,499.5827,462.6471,500.2575,452.6765,499.665,442.7059,500.1526,432.7353,500.4719,422.7647,500.5988,412.7941,499.5142,402.8235,500.5795,392.8529,500.1874,382.8824,499.6236,372.9118,499.7079,362.9412,500.5055,352.9706,500.4288,343,500.1625,333.0294,499.5068,323.0588,500.8371,313.0882,499.8671,303.1176,499.6509,293.1471,500.1116,283.1765,500.7687,273.2059,500.7944,263.2353,500.2141,253.2647,500.0278,243.2941,500.3487,233.3235,500.3652,223.3529,499.6712,213.3824,500.5929,203.4118,500.7378,193.4412,499.9632,183.4706,499.7498,173.5,500.1789,173.5861,500.3867,173.1491,500.039,172.7929,499.886,172.4775,499.8317,172.0034,499.3943,171.7322,499.4467,171.8954,499.5143,171.581,499.0912,171.6453,498.8249,171.2264,498.3585,171.2724,498.0847,171,497.6789,170.556,497.6789,171.245,487.9382,171.3793,478.1974,170.6727,468.4566,171.363,458.7159,170.4286,448.9751,170.5295,439.2343,171.6828,429.4936,171.6844,419.7528,171.5685,410.012,170.6396,400.2713,171.3842,390.5305,170.5279,380.7897,171,371.0489,171.0179,371.0564,171.1461,370.6952,171.2121,370.3084,171.629,370.0669,171.7223,369.6913,171.7322,369.2812,171.6913,369.1824,172.153,369.2969,172.4511,369.0166,172.7185,368.6621,173.1167,368.6235,173.5,368.5489" style="stroke:#181818;stroke-width:4;"/><text fill="#000000" font-family="Chalkduster" font-size="24" font-weight="bold" lengthAdjust="spacing" textLength="736.4684" x="313.7658" y="394.3898">Language Data Commons RO-Crate Profile Document</text></g><!--entity soss--><g id="elem_soss"><polygon fill="#FFFFFF" fill-opacity="0.00000" points="25.59,89.2889,25.59,89.4991,35.5411,88.8746,45.4923,89.4822,55.4434,89.6886,65.3945,88.5756,75.3456,89.2112,85.2968,88.8625,95.2479,88.9055,105.199,89.2208,115.1501,88.5976,125.1013,89.8426,135.0524,88.6587,145.0035,89.0912,154.9546,89.7209,164.9058,89.2032,174.8569,89.3572,184.808,89.257,194.7592,89.4675,204.7103,89.5281,214.6614,89.8746,224.6125,89.96,234.5637,89.9682,244.5148,89.5436,254.4659,89.7525,264.417,89.9912,274.3682,88.5678,284.3193,89.9675,294.2704,88.9924,304.2216,89.8228,314.1727,88.7939,324.1238,89.2205,334.0749,90.0306,344.0261,89.2402,353.9772,89.3943,363.9283,89.6276,373.8794,89.7052,383.8306,89.285,393.7817,89.5762,403.7328,88.7165,413.6839,89.5733,423.6351,89.8371,433.5862,89.7335,443.5373,89.902,453.4885,88.8059,463.4396,88.6368,473.3907,88.6675,483.3418,89.2301,493.293,89.0924,503.2441,89.9704,513.1952,89.1143,523.1463,88.9459,533.0975,89.5172,543.0486,88.6221,552.9997,88.7698,562.9508,89.9379,572.902,89.7246,582.8531,90.0234,592.8042,88.9672,602.7554,89.6081,612.7065,89.8794,622.6576,88.8165,632.6087,89.1931,642.5599,89.4149,652.511,89.9407,662.4621,89.2848,672.4132,89.2889,672.4722,89.4314,672.6962,89.2649,673.034,89.3733,673.5381,89.8834,673.736,89.6539,674.181,90.0212,674.3377,90.0861,674.3911,90.4011,674.3914,90.6941,674.5114,91.0367,674.9081,91.4939,674.9132,91.7889,674.6139,91.7889,675.5051,100.9149,674.3605,110.0409,675.5307,119.1668,675.3975,128.2928,674.9132,137.4188,674.9887,137.45,674.7813,137.7784,674.8441,138.2186,674.6629,138.5577,674.3796,138.8546,674.181,139.1866,674.2152,139.2691,673.8108,139.2929,673.5653,139.7001,673.1401,139.6736,672.7888,139.8255,672.4132,139.9188,672.4132,139.3104,662.4621,139.5136,652.511,140.4495,642.5599,140.3485,632.6087,139.8759,622.6576,139.5966,612.7065,139.6999,602.7554,139.2326,592.8042,140.3335,582.8531,140.6583,572.902,140.4452,562.9508,140.6137,552.9997,139.7821,543.0486,140.006,533.0975,139.5312,523.1463,140.2028,513.1952,140.1655,503.2441,140.4712,493.293,139.6891,483.3418,139.7844,473.3907,140.3622,463.4396,140.4861,453.4885,139.4063,443.5373,139.7249,433.5862,140.068,423.6351,139.3079,413.6839,140.2722,403.7328,140.1768,393.7817,139.818,383.8306,140.061,373.8794,140.6475,363.9283,139.6059,353.9772,140.2338,344.0261,140.2044,334.0749,140.0346,324.1238,140.0597,314.1727,140.0323,304.2216,139.2946,294.2704,139.518,284.3193,139.4572,274.3682,139.9826,264.417,140.0069,254.4659,140.0805,244.5148,139.6278,234.5637,139.8513,224.6125,139.7986,214.6614,140.4956,204.7103,140.3453,194.7592,139.4332,184.808,139.8459,174.8569,139.3416,164.9058,140.2072,154.9546,140.5273,145.0035,140.4633,135.0524,139.4832,125.1013,140.3828,115.1501,139.176,105.199,140.1189,95.2479,139.6195,85.2968,140.0155,75.3456,140.1591,65.3945,140.3909,55.4434,139.1989,45.4923,140.3943,35.5411,140.097,25.59,139.9188,25.6353,140.0282,25.3318,140.0026,24.8836,139.6276,24.5517,139.5334,24.203,139.3987,23.8222,139.1866,23.883,139.2117,23.6755,138.8329,23.7482,138.5701,23.1951,138.0481,23.4105,137.8444,23.09,137.4188,22.466,137.4188,22.5497,128.2928,23.13,119.1668,23.1183,110.0409,22.5972,100.9149,23.09,91.7889,23.2174,91.8417,23.27,91.4493,23.6067,91.1745,23.7348,90.8134,23.5377,90.3176,23.8222,90.0212,23.7715,89.8986,24.1593,89.835,24.5747,89.8378,24.9343,89.7059,25.2749,89.5281,25.59,89.2889" style="stroke:#181818;stroke-width:4;"/><text fill="#000000" font-family="Chalkduster" font-size="24" lengthAdjust="spacing" textLength="631.8232" x="33.09" y="123.1298">RO-Crate Metadata Schema (incl. Schema.org)</text></g><!--entity lsoss--><g id="elem_lsoss"><polygon fill="#FFFFFF" fill-opacity="0.00000" points="25.63,231.9189,25.63,232.1291,35.6094,231.5046,45.5887,232.1122,55.5681,232.3186,65.5475,231.2056,75.5268,231.8412,85.5062,231.4925,95.4856,231.5355,105.4649,231.8508,115.4443,231.2276,125.4237,232.4726,135.403,231.2887,145.3824,231.7212,155.3618,232.3509,165.3411,231.8332,175.3205,231.9872,185.2999,231.887,195.2792,232.0975,205.2586,232.1581,215.238,232.5046,225.2173,232.59,235.1967,232.5982,245.1761,232.1736,255.1554,232.3825,265.1348,232.6212,275.1142,231.1978,285.0935,232.5975,295.0729,231.6224,305.0523,232.4528,315.0316,231.4239,325.011,231.8505,334.9904,232.6606,344.9697,231.8702,354.9491,232.0243,364.9285,232.2576,374.9078,232.3352,384.8872,231.915,394.8666,232.2062,404.846,231.3465,414.8253,232.2033,424.8047,232.4671,434.7841,232.3635,444.7634,232.532,454.7428,231.4359,464.7222,231.2668,474.7015,231.2975,484.6809,231.8601,494.6603,231.7224,504.6396,232.6004,514.619,231.7443,524.5984,231.5759,534.5777,232.1472,544.5571,231.2521,554.5365,231.3998,564.5158,232.5679,574.4952,232.3546,584.4746,232.6534,594.4539,231.5972,604.4333,232.2381,614.4127,232.5094,624.392,231.4465,634.3714,231.9189,634.3592,231.8894,634.741,232.1042,635.1616,232.4126,635.4315,232.357,635.8446,232.6472,636.1392,232.6512,635.9686,232.5805,636.077,232.9183,636.5871,233.4225,636.3577,233.6204,636.8817,234.1303,636.8714,234.4189,637.078,234.4189,636.6035,243.5449,636.5176,252.6709,637.3302,261.7968,636.5721,270.9228,636.8714,280.0488,637.0537,280.1243,636.5547,280.3318,636.7686,280.8346,636.5812,281.1712,636.361,281.4942,636.1392,281.8166,636.1452,281.8311,635.8783,282.1868,635.5103,282.2984,635.1001,282.308,634.7592,282.4849,634.3714,282.5488,634.3714,282.4185,624.392,283.2652,614.4127,282.7037,604.4333,282.7214,594.4539,281.9404,584.4746,282.1436,574.4952,283.0795,564.5158,282.9785,554.5365,282.5059,544.5571,282.2266,534.5777,282.3299,524.5984,281.8626,514.619,282.9635,504.6396,283.2883,494.6603,283.0752,484.6809,283.2437,474.7015,282.4121,464.7222,282.636,454.7428,282.1612,444.7634,282.8328,434.7841,282.7955,424.8047,283.1012,414.8253,282.3191,404.846,282.4144,394.8666,282.9922,384.8872,283.1161,374.9078,282.0363,364.9285,282.3549,354.9491,282.698,344.9697,281.9379,334.9904,282.9022,325.011,282.8068,315.0316,282.448,305.0523,282.691,295.0729,283.2775,285.0935,282.2359,275.1142,282.8638,265.1348,282.8344,255.1554,282.6646,245.1761,282.6897,235.1967,282.6623,225.2173,281.9246,215.238,282.148,205.2586,282.0872,195.2792,282.6126,185.2999,282.6369,175.3205,282.7105,165.3411,282.2578,155.3618,282.4813,145.3824,282.4286,135.403,283.1256,125.4237,282.9753,115.4443,282.0632,105.4649,282.4759,95.4856,281.9716,85.5062,282.8372,75.5268,283.1573,65.5475,283.0933,55.5681,282.1132,45.5887,283.0128,35.6094,281.806,25.63,282.5488,25.6555,282.6104,25.2383,282.3102,24.9352,282.2857,24.6,282.1835,24.276,282.1084,23.8622,281.8166,23.6405,281.7247,23.8622,281.5236,23.6242,281.1322,23.5323,280.8012,23.5067,280.4977,23.13,280.0488,23.1355,280.0488,23.3053,270.9228,23.3434,261.7968,23.3272,252.6709,23.1292,243.5449,23.13,234.4189,23.3489,234.5096,23.0887,233.9876,23.597,233.784,23.3772,233.2787,23.5494,232.9358,23.8622,232.6512,23.8673,232.6635,24.2194,232.5134,24.5065,232.2065,24.9757,232.3393,25.2903,232.0989,25.63,231.9189" style="stroke:#181818;stroke-width:4;"/><text fill="#000000" font-family="Chalkduster" font-size="24" lengthAdjust="spacing" textLength="593.7414" x="33.13" y="265.7598">Language Data Commons Metadata Schema</text></g><g id="elem_GMN5"><path d="M671.53,236.9189 L671.7168,236.9189 L671.1617,240.1829 L671.7018,243.4469 L671.8853,246.7109 L670.8959,249.9749 L671.53,253.2389 L671.522,253.1703 L664.632,253.6624 L657.7825,254.5004 L650.961,255.5788 L644.0428,255.8285 L637.26,257.2389 L637.3171,257.7278 L644.049,257.4825 L650.9476,258.6643 L657.8665,260.0203 L664.6672,260.3632 L671.53,261.2389 L671.5907,261.2389 L671.5016,264.5009 L671.6887,267.7629 L671.7426,271.0248 L672.0506,274.2868 L671.53,277.5488 L671.53,277.5488 L671.53,279.3383 L681.5536,279.3601 L691.5771,278.2278 L701.6007,278.785 L711.6243,279.4214 L721.6478,275.6256 L731.6714,279.3581 L741.6949,276.7581 L751.7185,278.9723 L761.7421,276.2287 L771.7656,277.3661 L781.7892,279.5264 L791.8128,277.4188 L801.8363,277.8296 L811.8599,278.4518 L821.8834,278.6587 L831.907,277.5384 L841.9306,278.3147 L851.9541,276.0223 L861.9777,278.3071 L872.0013,279.0106 L882.0248,278.7342 L892.0484,279.1835 L902.0719,276.2606 L912.0955,275.8096 L922.1191,275.8917 L932.1426,277.3918 L942.1662,277.0247 L952.1898,279.3659 L962.2133,277.083 L972.2369,276.634 L982.2604,278.1575 L992.284,275.7705 L1002.3076,276.1644 L1012.3311,279.2793 L1022.3547,278.7106 L1032.3783,279.5074 L1042.4018,276.6907 L1052.4254,278.4 L1062.4489,279.1232 L1072.4725,277.5488 L1072.4725,277.5488 L1072.0526,277.5488 L1072.3873,271.4228 L1072.5845,265.2968 L1073.0518,259.1709 L1072.4688,253.0449 L1072.4725,246.9189 L1072.7632,247.2097 L1070.1244,244.5709 L1068.0468,242.4933 L1066.789,241.2355 L1064.0219,238.4683 L1062.4725,236.9189 L1062.4725,238.2762 L1052.4483,237.47 L1042.4242,236.2045 L1032.4,235.9756 L1022.3758,238.1423 L1012.3517,236.1207 L1002.3275,238.4972 L992.3033,235.445 L982.2792,238.5654 L972.255,238.2104 L962.2308,237.5722 L952.2067,237.0449 L942.1825,238.8566 L932.1583,238.5552 L922.1342,237.3703 L912.11,237.6341 L902.0858,236.5716 L892.0617,238.8295 L882.0375,237.3319 L872.0133,237.3791 L861.9892,235.2967 L851.965,235.8384 L841.9408,238.3343 L831.9167,238.065 L821.8925,236.8045 L811.8683,236.0598 L801.8442,236.3351 L791.82,235.0891 L781.7958,238.0249 L771.7717,238.8911 L761.7475,238.3227 L751.7233,238.7721 L741.6992,236.5543 L731.675,237.1515 L721.6508,235.8854 L711.6267,237.6764 L701.6025,237.577 L691.5783,238.392 L681.5542,236.3065 L671.53,236.9189 L671.53,236.9189 " fill="#FFFFE0" style="stroke:#181818;stroke-width:4;"/><path d="M1062.4725,236.9189 L1062.6593,236.9189 L1062.1042,238.9189 L1062.6443,240.9189 L1062.8278,242.9189 L1061.8384,244.9189 L1062.4725,246.9189 L1062.4725,246.8499 L1064.4725,246.5398 L1066.4725,246.5781 L1068.4725,246.8584 L1070.4725,246.3044 L1072.4725,246.9189 L1072.8205,247.2669 L1070.0763,244.5228 L1068.3482,242.7946 L1066.744,241.1904 L1064.4186,238.865 L1062.4725,236.9189 " fill="#FFFFE0" style="stroke:#181818;stroke-width:4;"/><text fill="#000000" font-family="Chalkduster" font-size="24" lengthAdjust="spacing" textLength="379.9425" x="677.53" y="265.7598">http://w3id.org/ldac/terms</text></g><!--entity eprof--><g id="elem_eprof"><polygon fill="#FFFFFF" fill-opacity="0.00000" points="768.1,586.1789,768.1,586.3891,778.0925,585.7646,788.085,586.3722,798.0775,586.5786,808.07,585.4656,818.0626,586.1012,828.0551,585.7525,838.0476,585.7955,848.0401,586.1108,858.0326,585.4876,868.0251,586.7326,878.0176,585.5487,888.0101,585.9812,898.0026,586.6109,907.9952,586.0932,917.9877,586.2472,927.9802,586.147,937.9727,586.3575,947.9652,586.4181,957.9577,586.7646,967.9502,586.85,977.9427,586.8582,987.9352,586.4336,997.9278,586.6425,1007.9203,586.8812,1017.9128,585.4578,1027.9053,586.8575,1037.8978,586.1789,1037.86,586.0876,1038.3195,586.4898,1038.5418,586.3194,1038.9497,586.5972,1039.4066,586.9931,1039.6656,586.9112,1039.6506,586.905,1039.8444,587.2782,1040.0627,587.6615,1040.2331,588.0249,1040.2502,588.3249,1040.3978,588.6789,1040.685,588.6789,1039.8254,597.8049,1040.6822,606.9309,1040.946,616.0568,1040.8423,625.1828,1040.3978,634.3088,1040.5866,634.387,1040.1026,634.6007,1039.9041,634.9327,1039.7671,635.2902,1039.7939,635.7155,1039.6656,636.0766,1039.6405,636.016,1039.3989,636.4328,1038.9362,636.3156,1038.5612,636.4102,1038.2805,636.7326,1037.8978,636.8088,1037.8978,636.1419,1027.9053,636.2897,1017.9128,637.4577,1007.9203,637.2445,997.9278,637.5433,987.9352,636.487,977.9427,637.128,967.9502,637.3992,957.9577,636.3364,947.9652,636.7129,937.9727,636.9348,927.9802,637.4605,917.9877,636.8046,907.9952,637.2714,898.0026,636.255,888.0101,636.1315,878.0176,637.3124,868.0251,636.0918,858.0326,637.3177,848.0401,637.0154,838.0476,636.5409,828.0551,636.455,818.0626,637.2675,808.07,636.5095,798.0775,637.4006,788.085,636.256,778.0925,637.4262,768.1,636.8088,768.1618,636.9579,767.7777,636.7378,767.3989,636.5304,767.132,636.5932,766.7641,636.412,766.3322,636.0766,766.3844,636.0981,766.2684,635.7572,765.9992,635.3528,766.1135,635.1073,765.7941,634.6821,765.6,634.3088,765.7726,634.3088,764.9916,625.1828,765.1948,616.0568,766.1307,606.9309,766.0298,597.8049,765.6,588.6789,765.5868,588.6735,765.6472,588.2843,765.8255,587.9439,765.828,587.5308,766.3135,587.3176,766.3322,586.9112,766.4266,587.1389,766.7529,586.9268,767.128,586.8323,767.3755,586.4297,767.7576,586.3523,768.1,586.1789" style="stroke:#181818;stroke-width:4;"/><text fill="#000000" font-family="Chalkduster" font-size="24" lengthAdjust="spacing" textLength="254.7978" x="775.6" y="620.0198">Crate-O Mode File</text></g><!--entity valid--><g id="elem_valid"><polygon fill="#FFFFFF" fill-opacity="0.00000" points="1077.98,586.1789,1077.98,586.3891,1087.8215,585.7646,1097.6629,586.3722,1107.5044,586.5786,1117.3458,585.4656,1127.1873,586.1012,1137.0288,585.7525,1146.8702,585.7955,1156.7117,586.1108,1166.5531,585.4876,1176.3946,586.7326,1186.236,585.5487,1196.0775,585.9812,1205.919,586.6109,1215.7604,586.0932,1225.6019,586.2472,1235.4433,586.147,1245.2848,586.3575,1255.1263,586.4181,1264.9677,586.7646,1274.8092,586.85,1284.6506,586.8582,1294.4921,586.4336,1304.3336,586.6425,1314.175,586.8812,1324.0165,586.1789,1323.9245,585.9569,1324.4566,586.5344,1324.6858,586.3805,1325.1452,586.7827,1325.3675,586.6123,1325.7842,586.9112,1325.7631,586.9024,1326.1591,587.3593,1326.0621,587.6121,1326.256,587.9853,1326.4743,588.3686,1326.5165,588.6789,1326.9327,588.6789,1326.5126,597.8049,1326.8037,606.9309,1325.9441,616.0568,1326.8009,625.1828,1326.5165,634.3088,1326.6853,634.3787,1326.5069,634.719,1326.4124,635.0941,1325.9284,635.3078,1325.7298,635.6398,1325.7842,636.0766,1325.705,635.8852,1325.4232,636.2049,1325.0521,636.3089,1324.8105,636.7257,1324.3477,636.6085,1324.0165,636.8088,1324.0165,636.4657,1314.175,637.0371,1304.3336,636.1419,1294.4921,636.2897,1284.6506,637.4577,1274.8092,637.2445,1264.9677,637.5433,1255.1263,636.487,1245.2848,637.128,1235.4433,637.3992,1225.6019,636.3364,1215.7604,636.7129,1205.919,636.9348,1196.0775,637.4605,1186.236,636.8046,1176.3946,637.2714,1166.5531,636.255,1156.7117,636.1315,1146.8702,637.3124,1137.0288,636.0918,1127.1873,637.3177,1117.3458,637.0154,1107.5044,636.5409,1097.6629,636.455,1087.8215,637.2675,1077.98,636.8088,1077.9418,636.7166,1077.7019,636.8446,1077.2024,636.3457,1076.9981,636.5596,1076.6276,636.3721,1076.2122,636.0766,1076.2877,636.1078,1076.0803,635.729,1076.1431,635.4621,1075.9619,635.0942,1075.6786,634.6839,1075.48,634.3088,1075.7482,634.3088,1075.3497,625.1828,1076.1965,616.0568,1075.6349,606.9309,1075.6526,597.8049,1075.48,588.6789,1075.2927,588.6013,1075.5017,588.2737,1075.9363,588.0395,1076.0517,587.6731,1076.0526,587.2593,1076.2122,586.9112,1076.1711,586.812,1076.5379,586.6973,1076.8318,586.407,1077.3258,586.5996,1077.7208,586.5532,1077.98,586.1789" style="stroke:#181818;stroke-width:4;"/><text fill="#000000" font-family="Chalkduster" font-size="24" lengthAdjust="spacing" textLength="231.0365" x="1085.48" y="620.0198">Validation Rules</text></g><g id="elem_GMN13"><path d="M1107.43,236.9189 L1107.6168,236.9189 L1107.0617,245.0449 L1107.6018,253.1709 L1107.7853,261.2968 L1106.7959,269.4228 L1107.43,277.5488 L1107.43,277.3415 L1117.4094,276.4115 L1127.3888,276.5261 L1137.3682,277.367 L1147.3476,275.7051 L1157.327,279.0252 L1167.3064,275.868 L1177.2858,277.0214 L1187.2652,278.7006 L1197.2446,277.32 L1207.224,277.7308 L1217.2034,277.4636 L1227.1828,278.0249 L1237.1622,278.1865 L1247.1416,279.1106 L1257.121,279.3383 L1267.1004,279.3601 L1277.0798,278.2278 L1287.0592,278.785 L1297.0386,279.4214 L1307.018,275.6256 L1316.9974,279.3581 L1326.9768,276.7581 L1336.9562,278.9723 L1346.9356,276.2287 L1356.915,277.3661 L1366.8944,279.5264 L1376.8738,277.4188 L1386.8532,277.8296 L1396.8326,278.4518 L1406.812,278.6587 L1416.7914,277.5384 L1426.7708,278.3147 L1436.7502,276.0223 L1446.7296,278.3071 L1456.709,279.0106 L1466.6884,278.7342 L1476.6678,279.1835 L1486.6472,276.2606 L1496.6266,275.8096 L1506.606,275.8917 L1516.5854,277.3918 L1526.5648,277.5488 L1526.3901,277.5488 L1527.1705,271.4228 L1526.4095,265.2968 L1526.2599,259.1709 L1526.7677,253.0449 L1526.5648,246.9189 L1526.1457,246.4998 L1524.2385,244.5927 L1522.9727,243.3268 L1520.8386,241.1928 L1519.0265,239.3806 L1516.5648,236.9189 L1516.5648,236.0608 L1506.5859,237.7701 L1496.607,238.4934 L1486.6281,235.6592 L1476.6492,236.6633 L1466.6703,237.2549 L1456.6914,238.657 L1446.7125,236.9078 L1436.7336,238.1525 L1426.7547,235.4422 L1416.7758,235.1129 L1406.7969,238.2619 L1396.818,235.0071 L1386.8391,238.2762 L1376.8602,237.47 L1366.8813,236.2045 L1356.9024,235.9756 L1346.9235,238.1423 L1336.9446,236.1207 L1326.9657,238.4972 L1316.9868,235.445 L1307.0079,238.5654 L1297.0291,238.2104 L1287.0502,237.5722 L1277.0713,237.0449 L1267.0924,238.8566 L1257.1135,238.5552 L1247.1346,237.3703 L1237.1557,237.6341 L1227.1768,236.5716 L1217.1979,238.8295 L1207.219,237.3319 L1197.2401,237.3791 L1187.2612,235.2967 L1177.2823,235.8384 L1167.3034,238.3343 L1157.3245,238.065 L1147.3456,236.8045 L1137.3667,236.0598 L1127.3878,236.3351 L1117.4089,235.0891 L1107.43,236.9189 " fill="#FFFFE0" style="stroke:#181818;stroke-width:4;"/><path d="M1516.5648,236.9189 L1516.7516,236.9189 L1516.1965,238.9189 L1516.7366,240.9189 L1516.9201,242.9189 L1515.9307,244.9189 L1516.5648,246.9189 L1516.5648,246.8499 L1518.5648,246.5398 L1520.5648,246.5781 L1522.5648,246.8584 L1524.5648,246.3044 L1526.5648,246.9189 L1526.9128,247.2669 L1524.1686,244.5228 L1522.4405,242.7946 L1520.8363,241.1904 L1518.5109,238.865 L1516.5648,236.9189 " fill="#FFFFE0" style="stroke:#181818;stroke-width:1;"/><text fill="#000000" font-family="Chalkduster" font-size="24" lengthAdjust="spacing" textLength="398.1348" x="1113.43" y="265.7598">http://w3id.org/ldac/profile</text></g><!--entity Exposition: Collection Structure, Guidance etc--><g id="elem_Exposition: Collection Structure, Guidance etc"><polygon fill="#FFFFFF" fill-opacity="0.00000" points="197.54,425.5489,197.54,425.7591,207.5842,425.1346,217.6285,425.7422,227.6727,425.9486,237.717,424.8356,247.7612,425.4712,257.8055,425.1225,267.8497,425.1655,277.894,425.4808,287.9382,424.8576,297.9825,426.1026,308.0267,424.9187,318.071,425.3512,328.1152,425.9809,338.1595,425.4632,348.2037,425.6172,358.248,425.517,368.2922,425.7275,378.3365,425.7881,388.3807,426.1346,398.425,426.22,408.4692,426.2282,418.5135,425.8036,428.5577,426.0125,438.602,426.2512,448.6462,424.8278,458.6905,426.2275,468.7347,425.2524,478.779,426.0828,488.8232,425.0539,498.8675,425.4805,508.9117,426.2906,518.956,425.5002,529.0002,425.6543,539.0445,425.8876,549.0887,425.9652,559.133,425.545,569.1772,425.8362,579.2214,424.9765,589.2657,425.8333,599.3099,426.0971,609.3542,425.9935,619.3984,426.162,629.4427,425.0659,639.4869,424.8968,649.5312,424.9275,659.5754,425.4901,669.6197,425.3524,679.6639,426.2304,689.7082,425.3743,699.7524,425.2059,709.7967,425.7772,719.8409,424.8821,729.8852,425.0298,739.9294,426.1979,749.9737,425.9846,760.0179,426.2834,770.0622,425.2272,780.1064,425.8681,790.1507,426.1394,800.1949,425.0765,810.2392,425.4531,820.2834,425.6749,830.3277,426.2007,840.3719,425.5448,850.4162,426.0115,860.4604,425.5489,860.3898,425.3784,860.7276,425.4868,861.2318,425.9969,861.4296,425.7675,861.9395,426.2915,862.2282,426.2812,862.2918,426.3075,862.2921,426.6006,862.4121,426.9432,862.8088,427.4004,862.7218,427.6572,862.9604,428.0489,863.5523,428.0489,862.4077,437.1749,863.5778,446.3009,863.4447,455.4268,863.2054,464.5528,862.9604,473.6788,862.975,473.6848,863.0377,474.125,862.8565,474.4642,862.5732,474.761,862.4572,475.1272,862.2282,475.4466,862.2116,475.4064,861.966,475.8136,861.5408,475.7871,861.1895,475.939,860.7364,475.845,860.4604,476.1788,860.4604,475.7736,850.4162,476.7095,840.3719,476.6085,830.3277,476.1359,820.2834,475.8566,810.2392,475.9599,800.1949,475.4926,790.1507,476.5935,780.1064,476.9183,770.0622,476.7052,760.0179,476.8737,749.9737,476.0421,739.9294,476.266,729.8852,475.7912,719.8409,476.4628,709.7967,476.4255,699.7524,476.7312,689.7082,475.9491,679.6639,476.0444,669.6197,476.6222,659.5754,476.7461,649.5312,475.6663,639.4869,475.9849,629.4427,476.328,619.3984,475.5679,609.3542,476.5322,599.3099,476.4368,589.2657,476.078,579.2214,476.321,569.1772,476.9075,559.133,475.8659,549.0887,476.4938,539.0445,476.4644,529.0002,476.2946,518.956,476.3197,508.9117,476.2923,498.8675,475.5546,488.8232,475.778,478.779,475.7172,468.7347,476.2426,458.6905,476.2669,448.6462,476.3405,438.602,475.8878,428.5577,476.1113,418.5135,476.0586,408.4692,476.7556,398.425,476.6053,388.3807,475.6932,378.3365,476.1059,368.2922,475.6016,358.248,476.4672,348.2037,476.7873,338.1595,476.7233,328.1152,475.7432,318.071,476.6428,308.0267,475.436,297.9825,476.3789,287.9382,475.8795,277.894,476.2755,267.8497,476.4191,257.8055,476.6509,247.7612,475.4589,237.717,476.6543,227.6727,476.357,217.6285,476.5341,207.5842,476.9266,197.54,476.1788,197.5407,476.1805,197.2088,476.0863,196.8601,475.9516,196.5045,475.8002,196.1257,475.5927,195.7722,475.4466,195.9911,475.5372,195.438,475.0152,195.6534,474.8116,195.1407,474.3063,195.0201,473.9634,195.04,473.6788,195.08,473.6788,195.0683,464.5528,194.5472,455.4268,195.4537,446.3009,195.1489,437.1749,195.04,428.0489,195.2638,428.1416,195.3919,427.7805,195.1948,427.2847,195.3568,426.9375,195.586,426.6183,195.7722,426.2812,195.8176,426.3907,196.1772,426.2588,196.5178,426.081,196.7893,425.7365,197.2676,425.8914,197.54,425.5489" style="stroke:#181818;stroke-width:4;"/><text fill="#000000" font-family="Chalkduster" font-size="24" lengthAdjust="spacing" textLength="647.9204" x="205.04" y="459.3898">Exposition: Collection Structure, Guidance etc</text></g><!--entity rules--><g id="elem_rules"><polygon fill="#FFFFFF" fill-opacity="0.00000" points="900.61,425.5489,900.61,425.7591,910.4812,425.1346,920.3523,425.7422,930.2235,425.9486,940.0946,424.8356,949.9658,425.4712,959.837,425.1225,969.7081,425.1655,979.5793,425.4808,989.4504,424.8576,999.3216,426.1026,1009.1928,424.9187,1019.0639,425.3512,1028.9351,425.9809,1038.8062,425.4632,1048.6774,425.6172,1058.5486,425.517,1068.4197,425.7275,1078.2909,425.7881,1088.162,426.1346,1098.0332,426.22,1107.9044,426.2282,1117.7755,425.8036,1127.6467,426.0125,1137.5178,426.2512,1147.389,425.5489,1147.297,425.3269,1147.8291,425.9044,1148.0583,425.7505,1148.5177,426.1527,1148.7401,425.9823,1149.1568,426.2812,1149.1357,426.2724,1149.5316,426.7293,1149.4346,426.9821,1149.6285,427.3553,1149.8468,427.7386,1149.889,428.0489,1150.3052,428.0489,1149.8851,437.1749,1150.1762,446.3009,1149.3166,455.4268,1150.1734,464.5528,1149.889,473.6788,1150.0578,473.7487,1149.8794,474.089,1149.7849,474.4641,1149.3009,474.6778,1149.1024,475.0098,1149.1568,475.4466,1149.0775,475.2552,1148.7957,475.5749,1148.4246,475.6789,1148.183,476.0957,1147.7203,475.9785,1147.389,476.1788,1147.389,475.8357,1137.5178,476.4071,1127.6467,475.5119,1117.7755,475.6597,1107.9044,476.8277,1098.0332,476.6145,1088.162,476.9133,1078.2909,475.857,1068.4197,476.498,1058.5486,476.7692,1048.6774,475.7064,1038.8062,476.0829,1028.9351,476.3048,1019.0639,476.8305,1009.1928,476.1746,999.3216,476.6414,989.4504,475.625,979.5793,475.5015,969.7081,476.6824,959.837,475.4618,949.9658,476.6877,940.0946,476.3854,930.2235,475.9109,920.3523,475.825,910.4812,476.6375,900.61,476.1788,900.5718,476.0866,900.3319,476.2146,899.8324,475.7157,899.6281,475.9296,899.2576,475.7421,898.8422,475.4466,898.9177,475.4778,898.7103,475.099,898.7731,474.8321,898.5919,474.4642,898.3086,474.0539,898.11,473.6788,898.3782,473.6788,897.9797,464.5528,898.8265,455.4268,898.2649,446.3009,898.2826,437.1749,898.11,428.0489,897.9227,427.9713,898.1317,427.6437,898.5663,427.4095,898.6817,427.0431,898.6826,426.6293,898.8422,426.2812,898.8011,426.182,899.1679,426.0673,899.4618,425.777,899.9558,425.9696,900.3508,425.9232,900.61,425.5489" style="stroke:#181818;stroke-width:4;"/><text fill="#000000" font-family="Chalkduster" font-size="24" lengthAdjust="spacing" textLength="219.8453" x="908.11" y="459.3898">Syntax summary</text></g><!--link GMN13 to prof--><g id="link_GMN13_prof"><path d="M1303.37,278.0189 L1303.6008,278.1779 L1297.0283,286.2516 L1291.8087,295.2572 L1286.1486,303.9594 L1279.0396,311.6635 L1273.8508,320.6904 L1267.5811,328.9726 L1261.7415,337.5512 L1256.201,346.3357 L1249.6299,354.4104 L1245.1102,363.8981 L1237.9234,371.5487 L1232.7288,380.5714 L1232.5116,380.4219 L1227.7418,388.8265 L1221.7121,396.3633 L1216.42,404.4082 L1210.8488,412.2608 L1205.6187,420.3484 L1199.9614,428.1418 L1200.0489,428.2021 L1199.001,429.995 L1197.8575,431.7221 L1196.6857,433.4298 L1195.3555,435.0283 L1194.0876,436.6697 L1194.2573,436.7865 L1194.2154,437.0344 L1193.5651,436.8632 L1193.9482,437.4037 L1193.462,437.3456 L1193.4413,437.608 L1193.6367,437.7426 L1193.197,437.5748 L1193.2901,437.7739 L1193.5235,438.0697 L1193.1712,437.962 L1193.1259,438.0659 " fill="#FFFFFF" fill-opacity="0.00000" style="stroke:#8B0000;stroke-width:4;stroke-dasharray:7.0,7.0;"/></g><!--reverse link soss to lsoss--><g id="link_soss_lsoss"><path d="M344.8859,146.0448 L345.1637,146.0823 L343.0556,155.4714 L342.5756,165.0802 L341.5654,174.6175 L338.8118,183.9194 L338.3688,193.5333 L336.6251,202.9715 L335.399,212.4796 L334.5328,222.0363 L333.34,231.5489 " fill="#FFFFFF" fill-opacity="0.00000" style="stroke:#8B0000;stroke-width:4;"/><polygon fill="#8B0000" points="345.69,140.0989,345.7496,140.1357,344.5384,141.703,343.6768,143.4859,342.7014,145.1986,341.3516,146.6803,340.52,148.4817,340.5043,148.4611,341.3338,147.6831,342.2425,147.0089,343.2062,146.4069,343.9803,145.5561,345.0199,145.0538,345.1668,145.1657,345.5384,145.8265,346.3387,146.8139,347.1912,147.8411,347.7395,148.6365,348.4478,149.5538,348.4697,149.5602,347.886,147.6599,347.4018,145.7885,346.8697,143.9032,346.429,142.0446,345.69,140.0989" style="stroke:#8B0000;stroke-width:4;"/><text fill="#000000" font-family="Chalkduster" font-size="24" lengthAdjust="spacing" textLength="158.7713" x="342.2" y="194.7598">is Based On</text></g><!--reverse link lsoss to rules--><g id="link_lsoss_rules"><path d="M616.757,283.9423 L616.7719,284.0345 L620.0446,284.2986 L623.4049,285.1032 L626.7367,285.7318 L629.9746,285.7815 L633.3425,286.6325 L633.3366,286.5985 L636.6353,287.0179 L639.9635,287.6088 L643.3122,288.319 L646.5902,288.6182 L649.9672,289.4931 L650.0114,289.7352 L653.2473,289.8255 L656.6122,290.6227 L659.9928,291.506 L663.2818,291.8876 L666.619,292.5331 L666.6248,292.5629 L669.9496,293.1649 L673.3007,293.9025 L676.6391,294.5747 L680.0018,295.3716 L683.2856,295.7618 L683.3456,296.0539 L686.6802,296.7428 L689.976,297.2432 L693.3285,298.0195 L696.6837,298.8086 L699.9547,299.1882 L699.8864,298.875 L703.3509,300.2095 L706.5905,300.5128 L710.001,301.6 L713.2355,301.8799 L716.6143,302.8216 L716.6075,302.7919 L720.0162,303.9126 L723.2646,304.3402 L726.6076,305.1768 L729.9585,306.0477 L733.2521,306.671 L733.2962,306.8506 L736.5725,307.4842 L739.9241,308.4248 L743.1538,308.8687 L746.5653,310.0535 L749.856,310.7456 L749.9173,310.9814 L753.2173,311.7986 L756.5477,312.7329 L759.7365,313.1233 L763.0291,313.9123 L766.4136,315.0547 L766.3402,314.7884 L769.7065,315.9399 L772.9901,316.7915 L776.3938,318.0781 L779.5924,318.6219 L782.9129,319.6072 L782.8701,319.4609 L786.2272,320.6656 L789.4012,321.2448 L792.7054,322.2689 L796.1369,323.7282 L799.3417,324.4124 L799.399,324.5974 L802.7075,325.7376 L805.8377,326.3026 L809.1913,327.5882 L812.4962,328.7167 L815.6876,329.4795 L815.6221,329.28 L818.9246,330.5066 L822.2055,331.6679 L825.5287,332.9575 L828.6879,333.7481 L831.9387,334.8175 L832.0062,335.0117 L835.0865,335.7087 L838.2973,336.7805 L841.6985,338.3998 L844.749,339.0111 L848.0825,340.4357 L848.1608,340.6479 L851.3192,341.7033 L854.4511,342.6869 L857.6428,343.8326 L860.9727,345.3529 L864.107,346.3431 L864.0586,346.2192 L867.3813,347.8293 L870.3749,348.5966 L873.7426,350.3222 L876.8997,351.5083 L880,352.5489 L880.044,352.6485 L883.2907,354.0183 L886.695,355.7446 L889.9569,357.1488 L893.1594,358.4183 L896.4112,359.7996 L896.4657,359.9056 L899.6324,361.4184 L903.0522,363.4234 L906.1857,364.8717 L909.4369,366.549 L912.6495,368.1511 L912.5143,367.917 L915.7335,369.8278 L919.1155,372.0206 L922.2671,373.8143 L925.3361,375.465 L928.5197,377.3141 L928.4431,377.1931 L931.529,379.1688 L934.4792,380.9303 L937.8022,383.2808 L940.9407,385.3397 L943.8263,386.9989 L943.958,387.1923 L946.9098,389.2376 L949.6111,390.9157 L952.5767,392.9814 L955.3674,394.7905 L958.3739,396.9163 L958.4481,397.0185 L961.157,398.9772 L963.9554,401.0592 L966.47,402.75 L969.2136,404.7563 L971.9673,406.7768 L972.0871,406.9333 L974.6093,408.8799 L976.8065,410.4014 L979.3813,412.4167 L981.9627,414.4407 L984.4112,416.2908 L984.2416,416.0788 L986.729,418.1891 L988.9223,419.9316 L991.0425,421.5827 L993.3297,423.4427 L995.51,425.1689 " fill="#FFFFFF" fill-opacity="0.00000" style="stroke:#8B0000;stroke-width:4;"/><polygon fill="#8B0000" points="610.83,283.0089,610.8681,283.0678,612.4086,283.9633,614.1723,285.2036,615.8633,286.3316,617.3153,287.0904,619.0982,288.3603,619.0773,288.3451,618.3174,287.3619,617.6632,286.4557,617.0824,285.6028,616.2486,284.5658,615.7691,283.7868,615.8777,283.936,616.5602,282.9511,617.5598,282.4018,618.598,281.9057,619.4111,281.1004,620.3427,280.4577,620.3486,280.4797,618.4374,280.9577,616.553,281.5357,614.6557,282.0654,612.7831,282.6873,610.83,283.0089" style="stroke:#8B0000;stroke-width:4;"/><text fill="#000000" font-family="Chalkduster" font-size="24" lengthAdjust="spacing" textLength="181.2066" x="852.98" y="337.3898">Derived from</text></g><!--link rules to eprof--><g id="link_rules_eprof"><path d="M999.67,476.3689 L999.7381,476.4329 L997.4995,478.4131 L995.6601,480.7681 L993.6908,483.0011 L991.2938,484.8328 L989.4888,487.2199 L989.4631,487.1968 L987.2053,489.4682 L985.0767,491.8563 L983.038,494.3255 L980.6896,496.5153 L978.775,499.0964 L978.9618,499.2566 L976.4256,501.4072 L974.4348,504.0254 L972.5105,506.7006 L970.1991,509.0439 L968.0913,511.5618 L968.1149,511.5807 L966.0619,514.0763 L964.1167,516.6582 L962.1195,519.1985 L960.2215,521.8181 L958,524.1789 L958.2402,524.3558 L956.072,527.3072 L953.7489,530.1446 L951.6526,533.1489 L949.567,536.161 L947.1445,538.9252 L946.8799,538.7444 L945.429,541.9705 L943.1067,544.6012 L941.4469,547.6846 L939.1048,550.3018 L937.322,553.3011 L937.2963,553.2847 L935.8113,556.2715 L933.7272,558.8747 L931.9966,561.7043 L930.2957,564.5529 L928.3807,567.2644 L928.5388,567.3605 L926.7369,569.9653 L925.2051,572.7343 L923.2363,575.2376 L921.9193,578.1371 L920.169,580.7732 " fill="#FFFFFF" fill-opacity="0.00000" style="stroke:#8B0000;stroke-width:4;"/><polygon fill="#8B0000" points="917.1,585.9289,917.1405,585.9861,918.6284,584.6787,920.3534,583.7065,922.0013,582.6251,923.3951,581.1847,925.1406,580.2413,925.1342,580.2162,924.009,580.3818,922.9159,580.6739,921.8451,581.054,920.6974,581.1309,919.6575,581.6325,919.8363,581.6779,919.1756,580.4842,919.0371,579.4231,918.9623,578.378,918.5168,577.239,918.2663,576.1494,918.2889,576.1521,918.0225,578.104,917.8589,580.0683,917.6457,582.0266,917.5271,583.9962,917.1,585.9289" style="stroke:#8B0000;stroke-width:4;"/><text fill="#000000" font-family="Chalkduster" font-size="24" lengthAdjust="spacing" textLength="141.1359" x="959" y="549.0198">Generates</text></g><!--link rules to valid--><g id="link_rules_valid"><path d="M1051.76,476.6089 L1051.9467,476.8179 L1058.9976,482.9927 L1067.1431,490.3926 L1074.9322,497.3935 L1081.5491,503.0825 L1089.7195,510.5103 L1097.0154,516.9592 L1105,524.1789 L1104.6583,523.7986 L1112.0782,530.5243 L1118.6618,536.319 L1126.9101,543.9668 L1132.9941,549.2054 L1140.5184,556.0473 L1148.2184,563.0849 L1154.896,568.9843 L1162.1721,575.5499 L1169.2502,581.8952 " fill="#FFFFFF" fill-opacity="0.00000" style="stroke:#8B0000;stroke-width:4;"/><polygon fill="#8B0000" points="1173.71,585.9089,1173.774,585.9375,1172.7811,584.0539,1172.1633,582.3377,1171.4234,580.5669,1170.2818,578.617,1169.6962,576.9151,1169.6703,576.9137,1169.6137,578.0374,1169.6875,579.168,1169.8519,580.3033,1169.7039,581.4222,1169.9935,582.5641,1170.0032,582.7484,1168.8527,582.4138,1167.7305,582.6172,1166.6117,582.8863,1165.4728,582.7734,1164.3445,582.8614,1164.3515,582.8831,1166.2143,583.4608,1168.1091,584.137,1169.9885,584.7657,1171.8973,585.4851,1173.71,585.9089" style="stroke:#8B0000;stroke-width:4;"/><text fill="#000000" font-family="Chalkduster" font-size="24" lengthAdjust="spacing" textLength="141.1359" x="1140.35" y="549.0198">Generates</text></g><!--SRC=[ZL5BQm8n4BxdLqmzjT3TFVGcug7QUgbO57ejOJEkWJoMPDO7nV_UILQeLGlDPTdCzvelTzhLfbFuQQKxG5bMIf8i-4SsQD5H4UbWiAGz2H6m9kaQWp1OBef9a8Jm7lnQ6um368qYJvKCAex7y2K4yBb5cIF9v0AhUeDMmdsAK9x-IX-QXm782D77U2Nonj-Eey4q2KoyjTx5IyLCDvcVwCwpQT3DXi2l-_iXR8ZQOLNjdhHAbfLHigu8WxtspAcB1SozGdZbPRC-jhpv9VH36ir1j7Umx78hZDocotzkSjahJ7tTfNV8IicIcuNJELDxsRS-wcGyP2rZU992h2XqDNK17s7MSJ9N8o3LWriIguCZkOVOMIl30R9XI4jayF54-6cKV9lwJ9d-gBCzxP1eufYP8hKFeqBvdIlwju0Xw0ZFCgA2XHFc5o87OCGKWzuoO1sy5VrbZnZt3y6G6JfCrSMBUQx_V0xY6m00]--></g></svg>