<?xml version="1.0" encoding="UTF-8" standalone="no"?><svg xmlns="http://www.w3.org/2000/svg" xmlns:xlink="http://www.w3.org/1999/xlink" contentStyleType="text/css" height="913px" preserveAspectRatio="none" style="width:1168px;height:913px;background:#FFFFFF;" version="1.1" viewBox="0 0 1168 913" width="1168px" zoomAndPan="magnify"><defs/><g><text fill="#000000" font-family="sans-serif" font-size="42" font-weight="bold" lengthAdjust="spacing" textLength="827" x="163.5" y="50.6055">ATAP Ecosystem - Major Components</text><!--cluster aw--><g id="cluster_aw"><polygon fill="#FFFF00" points="147.5,78.0273,147.5,78.2375,157.488,77.613,167.4759,78.2206,177.4639,78.427,187.4518,77.3139,197.4398,77.9496,207.4277,77.6009,217.4157,77.6438,227.4036,77.9592,237.3916,77.336,247.3795,78.581,257.3675,77.3971,267.3554,77.8296,277.3434,78.4593,287.3313,77.9416,297.3193,78.0956,307.3072,77.9954,317.2952,78.2059,327.2831,78.2665,337.2711,78.613,347.259,78.6984,357.247,78.7066,367.2349,78.282,377.2229,78.4909,387.2108,78.7296,397.1988,77.3062,407.1867,78.7059,417.1747,77.7308,427.1627,78.5612,437.1506,77.5323,447.1386,77.9588,457.1265,78.7689,467.1145,77.9786,477.1024,78.1326,487.0904,78.366,497.0783,78.4436,507.0663,78.0234,517.0542,78.3146,527.0422,77.4549,537.0301,78.3117,547.0181,78.5755,557.006,78.4719,566.994,78.6404,576.9819,77.5443,586.9699,77.3752,596.9578,77.4059,606.9458,77.9685,616.9337,77.8308,626.9217,78.7088,636.9096,77.8527,646.8976,77.6843,656.8855,78.2556,666.8735,77.3605,676.8614,77.5082,686.8494,78.6763,696.8373,78.463,706.8253,78.7618,716.8133,77.7055,726.8012,78.3465,736.7892,78.6178,746.7771,77.5549,756.7651,77.9315,766.753,78.1533,776.741,78.6791,786.7289,78.0232,796.7169,78.4899,806.7048,77.4736,816.6928,77.3501,826.6807,78.531,836.6687,77.3104,846.6566,78.5363,856.6446,78.234,866.6325,77.7594,876.6205,77.6736,886.6084,78.4861,896.5964,77.728,906.5843,78.6192,916.5723,77.4746,926.5602,78.6448,936.5482,78.5116,946.5361,78.2723,956.5241,78.0746,966.512,78.754,976.5,78.0273,976.5783,78.2163,976.8751,78.2259,977.2413,78.4028,977.544,78.4266,978.0056,78.8338,978.2678,78.7596,978.3155,78.7793,978.4674,79.1351,978.3733,79.3891,978.5823,79.7685,979.017,80.2415,979,80.5273,979.4298,80.5273,978.9571,90.6702,978.6778,100.8131,978.7811,110.9559,978.3138,121.0988,979.4147,131.2416,979.7396,141.3845,979.5264,151.5273,979.6949,161.6702,978.8633,171.8131,979.0872,181.9559,978.6124,192.0988,979.284,202.2416,979.2468,212.3845,979.5524,222.5273,978.7703,232.6702,978.8656,242.8131,979.4435,252.9559,979.5673,263.0988,978.4875,273.2416,978.8061,283.3845,979,293.5273,979.046,293.5464,978.6654,293.803,978.8159,294.2795,978.6401,294.6209,978.3832,294.9287,978.2678,295.2951,978.2859,295.3389,978.0072,295.666,977.5207,295.4917,977.2473,295.8315,976.89,295.9689,976.5,296.0273,976.5,296.1431,966.512,296.1683,956.5241,296.1408,946.5361,295.4032,936.5482,295.6265,926.5602,295.5658,916.5723,296.0912,906.5843,296.1155,896.5964,296.1891,886.6084,295.7364,876.6205,295.9598,866.6325,295.9071,856.6446,296.6042,846.6566,296.4539,836.6687,295.5418,826.6807,295.9544,816.6928,295.4501,806.7048,296.3157,796.7169,296.6358,786.7289,296.5719,776.741,295.5918,766.753,296.4913,756.7651,295.2845,746.7771,296.2275,736.7892,295.728,726.8012,296.1241,716.8133,296.2677,706.8253,296.4994,696.8373,295.3074,686.8494,296.5028,676.8614,296.2055,666.8735,296.3827,656.8855,296.7751,646.8976,296.0328,636.9096,296.2026,626.9217,296.2408,616.9337,296.2246,606.9458,296.0265,596.9578,296.738,586.9699,295.4176,576.9819,296.5926,566.994,295.4033,557.006,295.487,547.0181,296.0674,537.0301,296.0556,527.0422,295.5345,517.0542,296.4411,507.0663,296.1362,497.0783,296.754,487.0904,296.6944,477.1024,295.5791,467.1145,295.6294,457.1265,295.8982,447.1386,296.3829,437.1506,296.4303,427.1627,296.3285,417.1747,295.6854,407.1867,296.6637,397.1988,296.6611,387.2108,295.9801,377.2229,295.7883,367.2349,295.626,357.247,295.8128,347.259,296.1648,337.2711,295.959,327.2831,295.6095,317.2952,296.5147,307.3072,295.5684,297.3193,296.5297,287.3313,296.4546,277.3434,296.3992,267.3554,296.7198,257.3675,295.7815,247.3795,295.7267,237.3916,296.5462,227.4036,295.4305,217.4157,295.7933,207.4277,296.1428,197.4398,296.096,187.4518,295.6689,177.4639,295.9844,167.4759,296.7719,157.488,296.6758,147.5,296.0273,147.4239,295.8437,147.1565,295.9051,146.7273,295.5762,146.436,295.5799,146.1232,295.5318,145.7322,295.2951,145.8615,295.3487,145.3811,294.8568,145.5627,294.6391,145.2955,294.2355,144.9754,293.8101,145,293.5273,144.5289,293.5273,145.3266,283.3845,145.2499,273.2416,144.9836,263.0988,144.3279,252.9559,145.6581,242.8131,144.6882,232.6702,144.4719,222.5273,144.9327,212.3845,145.5897,202.2416,145.6154,192.0988,145.0351,181.9559,144.8488,171.8131,145.1698,161.6702,145.1862,151.5273,144.4922,141.3845,145.414,131.2416,145.5588,121.0988,144.7842,110.9559,144.5708,100.8131,145.6746,90.6702,145,80.5273,145.0065,80.53,145.1464,80.1738,145.385,79.8584,145.2405,79.3843,145.749,79.1807,145.7322,78.7596,145.7303,78.7548,146.1711,78.8191,146.4118,78.4002,146.8451,78.4462,147.0898,78.0371,147.5,78.0273" style="stroke:#181818;stroke-width:4.0;"/><text fill="#000000" font-family="sans-serif" font-size="24" font-style="italic" lengthAdjust="spacing" textLength="117" x="503.5" y="103.2305">«support»</text><text fill="#000000" font-family="sans-serif" font-size="24" font-weight="bold" lengthAdjust="spacing" textLength="174" x="475" y="131.4961">ATAP Website</text></g><!--cluster adp--><g id="cluster_adp"><polygon fill="none" points="506.5,161.0273,506.5,161.2375,516.4111,160.613,526.3222,161.2206,536.2333,161.427,546.1444,160.3139,556.0556,160.9496,565.9667,160.6009,575.8778,160.6438,585.7889,160.9592,595.7,160.336,605.6111,161.581,615.5222,160.3971,625.4333,160.8296,635.3444,161.4593,645.2556,160.9416,655.1667,161.0956,665.0778,160.9954,674.9889,161.2059,684.9,161.2665,694.8111,161.613,704.7222,161.6984,714.6333,161.7066,724.5444,161.282,734.4556,161.4909,744.3667,161.7296,754.2778,160.3062,764.1889,161.7059,774.1,160.7308,784.0111,161.5612,793.9222,160.5323,803.8333,160.9588,813.7444,161.7689,823.6556,160.9786,833.5667,161.1326,843.4778,161.366,853.3889,161.4436,863.3,161.0234,873.2111,161.3146,883.1222,160.4549,893.0333,161.3117,902.9444,161.5755,912.8556,161.4719,922.7667,161.6404,932.6778,160.5443,942.5889,160.3752,952.5,161.0273,952.4207,160.836,952.846,161.1557,953.182,161.2597,953.6476,161.6765,953.8919,161.5593,954.2678,161.7596,954.1621,161.7158,954.4845,162.1422,954.3553,162.3816,954.5472,162.754,955.0534,163.2566,955,163.5273,955.4357,163.5273,955.7345,173.1637,954.6782,182.8001,955.3192,192.4364,955.5904,202.0728,954.5276,211.7092,954.9041,221.3455,955.126,230.9819,955.6518,240.6183,954.9958,250.2546,955.4626,259.891,955,269.5273,954.8295,269.4567,954.645,269.7945,954.8622,270.2987,954.3399,270.4966,954.571,271.0065,954.2678,271.2951,954.2941,271.3587,953.88,271.359,953.5155,271.4791,953.2656,271.8757,952.8154,271.7887,952.5,272.0273,952.5,272.6192,942.5889,271.4746,932.6778,272.6448,922.7667,272.5116,912.8556,272.2723,902.9444,272.0746,893.0333,272.754,883.1222,272.6409,873.2111,272.1966,863.3,272.2955,853.3889,271.8971,843.4778,272.7438,833.5667,272.1822,823.6556,272.1999,813.7444,271.419,803.8333,271.6221,793.9222,272.5581,784.0111,272.4571,774.1,271.9844,764.1889,271.7052,754.2778,271.8084,744.3667,271.3412,734.4556,272.4421,724.5444,272.7669,714.6333,272.5537,704.7222,272.7223,694.8111,271.8906,684.9,272.1146,674.9889,271.6397,665.0778,272.3114,655.1667,272.2741,645.2556,272.5797,635.3444,271.7977,625.4333,271.8929,615.5222,272.4708,605.6111,272.5947,595.7,271.5148,585.7889,271.8335,575.8778,272.1766,565.9667,271.4165,556.0556,272.3807,546.1444,272.2853,536.2333,271.9266,526.3222,272.1696,516.4111,272.756,506.5,272.0273,506.4601,271.931,506.1866,271.9779,505.8293,271.8224,505.4541,271.6237,505.1038,271.485,504.7322,271.2951,504.7672,271.3096,504.3936,270.8619,504.3159,270.5369,504.1508,270.1756,504.1661,269.889,504,269.5273,504.0881,269.5273,504.1617,259.891,503.709,250.2546,503.9325,240.6183,503.8798,230.9819,504.5769,221.3455,504.4266,211.7092,503.5145,202.0728,503.9271,192.4364,503.4228,182.8001,504.2884,173.1637,504,163.5273,504.1874,163.605,504.3142,163.2433,504.1588,162.7647,504.5822,162.5259,504.357,162.0184,504.7322,161.7596,504.7578,161.8212,505.0476,161.521,505.4517,161.4965,505.8236,161.3943,506.2067,161.3192,506.5,161.0273" style="stroke:#181818;stroke-width:4.0;"/><text fill="#000000" font-family="sans-serif" font-size="24" font-weight="bold" lengthAdjust="spacing" textLength="214" x="622.5" y="186.2305">ATAP Data Portal</text></g><!--cluster ws--><g id="cluster_ws"><polygon fill="#FFC7D8" points="9.5,576.0273,9.5,576.2375,19.5678,575.613,29.6356,576.2206,39.7034,576.427,49.7712,575.3139,59.839,575.9496,69.9068,575.6009,79.9746,575.6438,90.0424,575.9592,100.1102,575.336,110.178,576.581,120.2458,575.3971,130.3136,575.8296,140.3814,576.4593,150.4492,575.9416,160.5169,576.0956,170.5847,575.9954,180.6525,576.2059,190.7203,576.2665,200.7881,576.613,210.8559,576.6984,220.9237,576.7066,230.9915,576.282,241.0593,576.4909,251.1271,576.7296,261.1949,575.3062,271.2627,576.7059,281.3305,575.7308,291.3983,576.5612,301.4661,575.5323,311.5339,575.9588,321.6017,576.7689,331.6695,575.9786,341.7373,576.1326,351.8051,576.366,361.8729,576.4436,371.9407,576.0234,382.0085,576.3146,392.0763,575.4549,402.1441,576.3117,412.2119,576.5755,422.2797,576.4719,432.3475,576.6404,442.4153,575.5443,452.4831,575.3752,462.5508,575.4059,472.6186,575.9685,482.6864,575.8308,492.7542,576.7088,502.822,575.8527,512.8898,575.6843,522.9576,576.2556,533.0254,575.3605,543.0932,575.5082,553.161,576.6763,563.2288,576.463,573.2966,576.7618,583.3644,575.7055,593.4322,576.3465,603.5,576.0273,603.5753,576.2092,603.7933,576.0283,604.1949,576.2907,604.5767,576.5055,604.9974,576.8138,605.2678,576.7596,605.2665,576.759,605.5567,577.1721,605.3901,577.396,605.4985,577.7338,606.0086,578.238,606,578.5273,605.2831,578.5273,606.509,588.4061,606.2066,598.2849,605.7321,608.1637,605.6462,618.0425,606.4588,627.9213,605.7007,637.8001,606.5919,647.6789,605.4473,657.5576,606.6174,667.4364,606.4843,677.3152,606.245,687.194,606.0472,697.0728,606.7266,706.9516,606.6136,716.8304,606.1693,726.7092,606.2682,736.5879,605.8697,746.4667,606.7165,756.3455,606.1549,766.2243,606.1726,776.1031,605.3916,785.9819,605.5948,795.8607,606.5307,805.7395,606.4298,815.6183,605.9571,825.497,605.6778,835.3758,605.7811,845.2546,605.3138,855.1334,606.4147,865.0122,606.7396,874.891,606.5264,884.7698,606.6949,894.6486,606,904.5273,605.9579,904.5099,605.8804,904.892,605.5877,905.185,605.6481,905.6242,605.4902,905.973,605.2678,906.2951,605.3382,906.4652,604.8849,906.3708,604.5435,906.5466,604.2637,906.871,603.9259,907.0556,603.5,907.0273,603.5,906.5148,593.4322,906.8335,583.3644,907.1766,573.2966,906.4165,563.2288,907.3807,553.161,907.2853,543.0932,906.9266,533.0254,907.1696,522.9576,907.756,512.8898,906.7145,502.822,907.3423,492.7542,907.313,482.6864,907.1431,472.6186,907.1683,462.5508,907.1408,452.4831,906.4032,442.4153,906.6265,432.3475,906.5658,422.2797,907.0912,412.2119,907.1155,402.1441,907.1891,392.0763,906.7364,382.0085,906.9598,371.9407,906.9071,361.8729,907.6042,351.8051,907.4539,341.7373,906.5418,331.6695,906.9544,321.6017,906.4501,311.5339,907.3157,301.4661,907.6358,291.3983,907.5719,281.3305,906.5918,271.2627,907.4913,261.1949,906.2845,251.1271,907.2275,241.0593,906.728,230.9915,907.1241,220.9237,907.2677,210.8559,907.4994,200.7881,906.3074,190.7203,907.5028,180.6525,907.2055,170.5847,907.3827,160.5169,907.7751,150.4492,907.0328,140.3814,907.2026,130.3136,907.2408,120.2458,907.2246,110.178,907.0265,100.1102,907.738,90.0424,906.4176,79.9746,907.5926,69.9068,906.4033,59.839,906.487,49.7712,907.0674,39.7034,907.0556,29.6356,906.5345,19.5678,907.4411,9.5,907.0273,9.5139,907.0609,9.2391,907.1047,8.878,906.9399,8.3822,906.45,8.035,906.319,7.7322,906.2951,7.6925,906.2786,7.6953,905.9869,7.5634,905.6394,7.3856,905.2729,7.0411,904.8373,7,904.5273,7.6364,904.5273,7.6338,894.6486,6.9527,884.7698,6.7609,874.891,6.5986,865.0122,6.7854,855.1334,7.1374,845.2546,6.9316,835.3758,6.5822,825.497,7.4874,815.6183,6.5411,805.7395,7.5024,795.8607,7.4272,785.9819,7.3719,776.1031,7.6925,766.2243,6.7541,756.3455,6.6994,746.4667,7.5189,736.5879,6.4031,726.7092,6.766,716.8304,7.1155,706.9516,7.0687,697.0728,6.6415,687.194,6.957,677.3152,7.7446,667.4364,7.6485,657.5576,6.4037,647.6789,7.0785,637.8001,6.4861,627.9213,6.9737,618.0425,7.293,608.1637,7.4199,598.2849,6.3353,588.4061,7,578.5273,7.1234,578.5784,7.149,578.1749,7.1219,577.7494,7.2943,577.4066,7.6864,577.1548,7.7322,576.7596,7.7641,576.8365,8.0837,576.6081,8.3536,576.2597,8.8768,576.5229,9.1067,576.0778,9.5,576.0273" style="stroke:#181818;stroke-width:4.0;"/><text fill="#000000" font-family="sans-serif" font-size="24" font-style="italic" lengthAdjust="spacing" textLength="148" x="232.5" y="601.2305">«workspace»</text><text fill="#000000" font-family="sans-serif" font-size="24" font-weight="bold" lengthAdjust="spacing" textLength="148" x="232.5" y="629.4961">Workspaces</text></g><!--cluster ar--><g id="cluster_ar"><polygon fill="#00FF7F" points="605.5,358.0273,605.5,358.2375,615.5727,357.613,625.6455,358.2206,635.7182,358.427,645.7909,357.3139,655.8636,357.9496,665.9364,357.6009,676.0091,357.6438,686.0818,357.9592,696.1545,357.336,706.2273,358.581,716.3,357.3971,726.3727,357.8296,736.4455,358.4593,746.5182,357.9416,756.5909,358.0956,766.6636,357.9954,776.7364,358.2059,786.8091,358.2665,796.8818,358.613,806.9545,358.6984,817.0273,358.7066,827.1,358.282,837.1727,358.4909,847.2455,358.7296,857.3182,357.3062,867.3909,358.7059,877.4636,357.7308,887.5364,358.5612,897.6091,357.5323,907.6818,357.9588,917.7545,358.7689,927.8273,357.9786,937.9,358.1326,947.9727,358.366,958.0455,358.4436,968.1182,358.0234,978.1909,358.3146,988.2636,357.4549,998.3364,358.3117,1008.4091,358.5755,1018.4818,358.4719,1028.5545,358.6404,1038.6273,357.5443,1048.7,357.3752,1058.7727,357.4059,1068.8455,357.9685,1078.9182,357.8308,1088.9909,358.7088,1099.0636,357.8527,1109.1364,357.6843,1119.2091,358.2556,1129.2818,357.3605,1139.3545,357.5082,1149.4273,358.6763,1159.5,358.0273,1159.5556,358.1615,1159.9472,358.4,1160.1661,358.2211,1160.6014,358.565,1160.9895,358.795,1161.2678,358.7596,1161.1223,358.6993,1161.3847,359.1009,1161.5995,359.4828,1161.9078,359.9034,1161.8523,360.1733,1162,360.5273,1162.4626,360.5273,1161.4462,370.7416,1161.3227,380.9559,1162.5036,391.1702,1161.2831,401.3845,1162.509,411.5988,1162.2066,421.8131,1161.7321,432.0273,1161.6462,442.2416,1162.4588,452.4559,1161.7007,462.6702,1162.5919,472.8845,1161.4473,483.0988,1162.6174,493.3131,1162,503.5273,1162.1491,503.5891,1161.929,503.9121,1161.7216,504.2405,1161.7844,504.6807,1161.6032,505.0198,1161.2678,505.2951,1161.2894,505.3472,1160.9484,505.5241,1160.544,505.5479,1160.2985,505.9551,1159.8733,505.9286,1159.5,506.0273,1159.5,506.1999,1149.4273,505.419,1139.3545,505.6221,1129.2818,506.5581,1119.2091,506.4571,1109.1364,505.9844,1099.0636,505.7052,1088.9909,505.8084,1078.9182,505.3412,1068.8455,506.4421,1058.7727,506.7669,1048.7,506.5537,1038.6273,506.7223,1028.5545,505.8906,1018.4818,506.1146,1008.4091,505.6397,998.3364,506.3114,988.2636,506.2741,978.1909,506.5797,968.1182,505.7977,958.0455,505.8929,947.9727,506.4708,937.9,506.5947,927.8273,505.5148,917.7545,505.8335,907.6818,506.1766,897.6091,505.4165,887.5364,506.3807,877.4636,506.2853,867.3909,505.9266,857.3182,506.1696,847.2455,506.756,837.1727,505.7145,827.1,506.3423,817.0273,506.313,806.9545,506.1431,796.8818,506.1683,786.8091,506.1408,776.7364,505.4032,766.6636,505.6265,756.5909,505.5658,746.5182,506.0912,736.4455,506.1155,726.3727,506.1891,716.3,505.7364,706.2273,505.9598,696.1545,505.9071,686.0818,506.6042,676.0091,506.4539,665.9364,505.5418,655.8636,505.9544,645.7909,505.4501,635.7182,506.3157,625.6455,506.6358,615.5727,506.5719,605.5,506.0273,605.4444,505.8932,605.2056,506.0238,604.6981,505.5057,604.4649,505.6496,604.0476,505.3494,603.7322,505.2951,603.762,505.3074,603.6598,504.9722,603.5847,504.6482,603.0712,504.1426,603.2929,503.9415,603,503.5273,603.1782,503.5273,603.3553,493.3131,603.7478,483.0988,603.0055,472.8845,603.1753,462.6702,603.2134,452.4559,603.1972,442.2416,602.9992,432.0273,603.7107,421.8131,602.3903,411.5988,603.5653,401.3845,602.376,391.1702,602.4597,380.9559,603.04,370.7416,603,360.5273,603.0087,360.531,602.9947,360.1109,603.4203,359.873,603.4729,359.4806,603.8096,359.2058,603.7322,358.7596,603.8173,358.965,604.0286,358.4751,604.3886,358.3441,604.7764,358.2805,605.1918,358.2833,605.5,358.0273" style="stroke:#181818;stroke-width:4.0;"/><text fill="#000000" font-family="sans-serif" font-size="24" font-style="italic" lengthAdjust="spacing" textLength="145" x="810" y="383.2305">«repository»</text><text fill="#000000" font-family="sans-serif" font-size="24" font-weight="bold" lengthAdjust="spacing" textLength="266" x="749.5" y="411.4961">Archival Repositories</text></g><!--entity tr--><g id="elem_tr"><polygon fill="none" points="522.5,208.0273,522.5,208.2375,532.4412,207.613,542.3824,208.2206,552.3235,208.427,562.2647,207.3139,572.2059,207.9496,582.1471,207.6009,592.0882,207.6438,602.0294,207.9592,611.9706,207.336,621.9118,208.581,631.8529,207.3971,641.7941,207.8296,651.7353,208.4593,661.6765,207.9416,671.6176,208.0956,681.5588,207.9954,691.5,208.0273,691.5228,208.0823,691.8841,208.2474,692.2818,208.5006,692.6463,208.6733,693.0009,208.8223,693.2678,208.7596,693.3462,208.7921,693.557,209.1723,693.7769,209.5563,693.485,209.7282,694.0625,210.2603,694,210.5273,693.9012,210.5273,694.1779,219.1805,693.835,227.8336,693.9772,236.4867,694.2472,245.1398,694,253.793,693.985,253.7868,693.886,254.16,693.8114,254.5433,693.6888,254.9067,693.413,255.2067,693.2678,255.5607,693.3044,255.6492,692.8412,255.5309,692.5969,255.9412,692.277,256.1689,691.9103,256.2834,691.5,256.293,691.5,256.906,681.5588,255.8099,671.6176,255.6408,661.6765,255.6716,651.7353,256.2341,641.7941,256.0964,631.8529,256.9744,621.9118,256.1183,611.9706,255.9499,602.0294,256.5212,592.0882,255.6261,582.1471,255.7738,572.2059,256.9419,562.2647,256.7286,552.3235,257.0275,542.3824,255.9712,532.4412,256.6122,522.5,256.293,522.5753,256.4748,522.0862,256.001,521.7807,255.9706,521.4554,255.8924,521.1689,255.9079,520.7322,255.5607,520.7309,255.5602,520.7282,255.2662,520.2688,254.783,520.0843,254.4137,520.3015,254.2108,520,253.793,519.761,253.793,520.1697,245.1398,520.0689,236.4867,519.9107,227.8336,519.8821,219.1805,520,210.5273,520.1413,210.5859,520.0543,210.1356,520.4752,209.8957,520.2691,209.3962,520.7759,209.1919,520.7322,208.7596,520.794,208.9087,521.117,208.6886,521.4454,208.4812,521.8856,208.544,522.2247,208.3627,522.5,208.0273" style="stroke:#181818;stroke-width:4.0;"/><text fill="#000000" font-family="sans-serif" font-size="24" lengthAdjust="spacing" textLength="154" x="530" y="241.2305">Tool Registry</text></g><!--entity dc--><g id="elem_dc"><polygon fill="none" points="731.5,208.0273,731.5,208.2375,741.2619,207.613,751.0238,208.2206,760.7857,208.427,770.5476,207.3139,780.3095,207.9496,790.0714,207.6009,799.8333,207.6438,809.5952,207.9592,819.3571,207.336,829.119,208.581,838.881,207.3971,848.6429,207.8296,858.4048,208.4593,868.1667,207.9416,877.9286,208.0956,887.6905,207.9954,897.4524,208.2059,907.2143,208.2665,916.9762,208.613,926.7381,208.6984,936.5,208.0273,936.5866,208.2365,936.886,208.2522,937.2662,208.463,937.6502,208.6829,937.8222,208.391,938.2678,208.7596,938.4767,208.8461,938.3229,209.0753,938.7251,209.5348,938.5547,209.7571,938.8325,210.1651,939,210.5273,939.2472,210.5273,938.9838,219.1805,939.0351,227.8336,939.1129,236.4867,939.1387,245.1398,939,253.793,938.9988,253.7925,938.942,254.1832,938.5308,254.4271,938.6482,254.8899,938.583,255.2771,938.2678,255.5607,938.3245,255.6976,937.9924,255.896,937.499,255.7049,937.1239,255.7992,936.7743,255.9552,936.5,256.293,936.5,256.2341,926.7381,256.0964,916.9762,256.9744,907.2143,256.1183,897.4524,255.9499,887.6905,256.5212,877.9286,255.6261,868.1667,255.7738,858.4048,256.9419,848.6429,256.7286,838.881,257.0275,829.119,255.9712,819.3571,256.6122,809.5952,256.8834,799.8333,255.8206,790.0714,256.1971,780.3095,256.419,770.5476,256.9447,760.7857,256.2888,751.0238,256.7555,741.2619,255.7392,731.5,256.293,731.4136,256.0844,731.2107,256.3016,730.7014,255.7793,730.5043,256.0104,730.1121,255.7708,729.7322,255.5607,729.6497,255.5266,729.4768,255.1621,729.5806,254.9121,729.2007,254.4619,729.3287,254.222,729,253.793,728.8158,253.793,729.2058,245.1398,729.1614,236.4867,729.0817,227.8336,729.0157,219.1805,729,210.5273,729.2238,210.62,729.3354,210.2521,729.345,209.8418,729.5219,209.5009,729.5457,209.0965,729.7322,208.7596,729.8236,208.9802,730.1055,208.6608,730.4614,208.5198,730.7153,208.1329,731.0948,208.049,731.5,208.0273" style="stroke:#181818;stroke-width:4.0;"/><text fill="#000000" font-family="sans-serif" font-size="24" lengthAdjust="spacing" textLength="190" x="739" y="241.2305">Data Collections</text></g><!--entity dag--><g id="elem_dag"><polygon fill="none" points="163.5,208.0273,163.5,208.2375,173.4688,207.613,183.4375,208.2206,193.4063,208.427,203.375,207.3139,213.3438,207.9496,223.3125,207.6009,233.2813,207.6438,243.25,207.9592,253.2188,207.336,263.1875,208.581,273.1563,207.3971,283.125,207.8296,293.0938,208.4593,303.0625,207.9416,313.0313,208.0956,323,207.9954,332.9688,208.2059,342.9375,208.2665,352.9063,208.613,362.875,208.6984,372.8438,208.7066,382.8125,208.282,392.7813,208.4909,402.75,208.7296,412.7188,207.3062,422.6875,208.7059,432.6563,207.7308,442.625,208.5612,452.5938,207.5323,462.5625,207.9588,472.5313,208.7689,482.5,208.0273,482.4938,208.0123,482.867,208.2062,483.2503,208.4245,483.6138,208.5949,483.9137,208.6119,484.2678,208.7596,484.3562,208.7962,484.2379,209.0401,484.6482,209.503,484.8759,209.8902,484.9905,210.2305,485,210.5273,485.2043,210.5273,484.839,219.1805,484.7826,227.8336,484.7929,236.4867,484.9804,245.1398,485,253.793,484.9395,253.7679,485.0634,254.2334,484.6533,254.4778,484.455,254.8099,484.4845,255.2363,484.2678,255.5607,484.1827,255.3554,483.848,255.5473,483.6434,256.0535,483.2627,256.1342,482.9472,256.3727,482.5,256.293,482.5,255.9712,472.5313,256.6122,462.5625,256.8834,452.5938,255.8206,442.625,256.1971,432.6563,256.419,422.6875,256.9447,412.7188,256.2888,402.75,256.7555,392.7813,255.7392,382.8125,255.6157,372.8438,256.7966,362.875,255.576,352.9063,256.8019,342.9375,256.4996,332.9688,256.0251,323,255.9392,313.0313,256.7517,303.0625,255.9936,293.0938,256.8848,283.125,255.7402,273.1563,256.9104,263.1875,256.7773,253.2188,256.5379,243.25,256.3402,233.2813,257.0196,223.3125,256.9065,213.3438,256.4622,203.375,256.5612,193.4063,256.1627,183.4375,257.0094,173.4688,256.4478,163.5,256.293,163.522,256.3461,163.0688,255.9592,162.7412,255.8753,162.507,256.0171,162.1406,255.8395,161.7322,255.5607,161.719,255.5553,161.4866,255.1661,161.3719,254.8257,161.0816,254.4125,161.2742,254.1994,161,253.793,161.2465,253.793,161.1755,245.1398,161.2316,236.4867,160.9544,227.8336,161.0291,219.1805,161,210.5273,160.8806,210.4779,161.2339,210.21,161.3689,209.8517,161.6095,209.5371,161.5151,209.0838,161.7322,208.7596,161.7151,208.7182,162.1424,208.7497,162.5117,208.6414,162.7275,208.1624,163.1217,208.1141,163.5,208.0273" style="stroke:#181818;stroke-width:4.0;"/><text fill="#000000" font-family="sans-serif" font-size="24" lengthAdjust="spacing" textLength="304" x="171" y="241.2305">Data and Analytics Guides</text></g><!--entity git--><g id="elem_git"><path d="M368,807.0273 L368,807.0273 L368.0305,807.1156 L371.2836,805.6971 L374.7156,804.796 L378.0893,803.7265 L381.2714,802.1027 L384.7188,801.2461 L384.7152,801.2117 L388.1265,800.7021 L391.5559,800.3656 L394.9977,800.1496 L398.3964,799.5186 L401.8555,799.4688 L401.8704,799.7144 L405.7674,798.9509 L409.708,798.9045 L413.6538,798.9455 L417.5688,798.4776 L421.5,798.2773 L421.5011,798.3077 L425.4284,798.1186 L429.3607,798.0676 L433.2906,797.95 L437.2252,797.9593 L441.1445,797.5547 L441.151,797.8529 L444.5784,797.7823 L448.0017,797.5194 L451.431,797.538 L454.8607,797.5698 L458.2813,797.1836 L458.2783,796.8631 L461.6278,797.4539 L464.9675,796.9893 L468.3147,797.3271 L471.6542,796.8386 L475,797.0273 L475,797.0273 L474.9997,796.9969 L478.3468,797.3882 L481.6873,797.0682 L485.0317,797.1679 L488.3764,797.3028 L491.7188,797.1836 L491.7228,797.3685 L495.1461,797.2561 L498.5762,797.4597 L501.9953,797.1519 L505.4309,797.6068 L508.8555,797.5547 L508.8644,797.7982 L512.7916,797.8967 L516.7233,798.116 L520.6343,797.7737 L524.5604,797.8431 L528.5,798.2773 L528.4833,798.0017 L532.4273,798.4895 L536.3525,798.6667 L540.3051,799.2945 L544.2109,799.153 L548.1445,799.4688 L548.1288,799.3171 L551.5823,799.9251 L554.9686,799.8849 L558.4028,800.3057 L561.8837,801.1775 L565.2813,801.2461 L565.3445,801.4291 L568.7317,802.7109 L571.922,803.4234 L575.3589,804.8489 L578.742,806.1191 L582,807.0273 L580.7403,807.0273 L581.7444,816.389 L582.336,825.7506 L583.738,835.1122 L581.9888,844.4738 L583.2335,853.8354 L580.5232,863.197 L582,872.5586 L582,872.5586 L581.9016,872.2741 L578.7294,873.9264 L575.2084,874.5699 L572.0427,876.2411 L568.655,877.2704 L565.2813,878.3398 L565.269,878.2214 L561.8377,878.5389 L558.4476,879.2536 L554.9855,879.2739 L551.599,880.0234 L548.1445,880.1172 L548.1297,879.872 L544.2322,880.6294 L540.2997,880.8086 L536.3644,880.9407 L532.4302,881.0913 L528.5,881.3086 L528.5119,881.6313 L524.5811,881.7256 L520.645,881.6728 L516.7177,881.8613 L512.7822,881.8289 L508.8555,882.0313 L508.8624,882.3496 L505.4296,882.1743 L502.0024,882.2564 L498.5676,881.9836 L495.1422,882.1481 L491.7188,882.4023 L491.721,882.6382 L488.3768,882.6246 L485.0311,882.4458 L481.6862,882.3529 L478.3428,882.43 L475,882.5586 L475,882.5586 L474.9971,882.2536 L471.658,882.7117 L468.3156,882.8248 L464.9709,882.6988 L461.6279,882.7424 L458.2813,882.4023 L458.2799,882.3416 L454.8547,882.3669 L451.4228,882.0817 L448.002,882.3059 L444.5742,882.2151 L441.1445,882.0313 L441.1536,882.2766 L437.2119,881.7847 L433.2845,881.6825 L429.3651,881.7946 L425.4382,881.7051 L421.5,881.3086 L421.4862,881.0812 L417.5659,880.9843 L413.6462,880.8982 L409.6968,880.3228 L405.7939,880.5122 L401.8555,880.1172 L401.8673,880.2312 L398.4235,879.7172 L395.0073,879.4691 L391.6068,879.3729 L388.1317,878.557 L384.7188,878.3398 L384.7645,878.4722 L381.4165,877.3036 L378.0481,876.076 L374.708,874.9303 L371.3602,873.7625 L368,872.5586 L366.3356,872.5586 L366.9312,863.197 L366.7692,853.8354 L368.1702,844.4738 L368.235,835.1122 L368.4313,825.7506 L367.2241,816.389 L368,807.0273 " fill="none" style="stroke:#181818;stroke-width:4.0;"/><path d="M368,807.0273 L368,807.0273 L368.0305,807.1156 L371.2836,808.0096 L374.7156,809.421 L378.0893,810.664 L381.2714,811.3527 L384.7188,812.8086 L384.7152,812.7742 L388.1265,812.9755 L391.5559,813.35 L394.9977,813.8449 L398.3964,813.9248 L401.8555,814.5859 L401.8704,814.8315 L405.7674,814.5446 L409.708,814.9748 L413.6538,815.4924 L417.5688,815.501 L421.5,815.7773 L421.5011,815.8077 L425.4284,815.9077 L429.3607,816.1457 L433.2906,816.3171 L437.2252,816.6156 L441.1445,816.5 L441.151,816.7982 L444.5784,816.876 L448.0017,816.7616 L451.431,816.9286 L454.8607,817.1089 L458.2813,816.8711 L458.2783,816.5506 L461.6278,817.2039 L464.9675,816.8018 L468.3147,817.2021 L471.6542,816.7761 L475,817.0273 L475,817.0273 L474.9997,816.9969 L478.3468,817.3257 L481.6873,816.9432 L485.0317,816.9804 L488.3764,817.0528 L491.7188,816.8711 L491.7228,817.056 L495.1461,816.7951 L498.5762,816.8503 L501.9953,816.3941 L505.4309,816.7006 L508.8555,816.5 L508.8644,816.7435 L512.7916,816.5529 L516.7233,816.4832 L520.6343,815.8518 L524.5604,815.6322 L528.5,815.7773 L528.4833,815.5017 L532.4273,815.5129 L536.3525,815.2136 L540.3051,815.3648 L544.2109,814.7467 L548.1445,814.5859 L548.1288,814.4343 L551.5823,814.3314 L554.9686,813.5802 L558.4028,813.29 L561.8837,813.4509 L565.2813,812.8086 L565.3445,812.9916 L568.7317,811.9609 L571.922,810.3609 L575.3589,809.4739 L578.742,808.4316 L582,807.0273 " fill="none" style="stroke:#181818;stroke-width:4.0;"/><text fill="#000000" font-family="sans-serif" font-size="24" lengthAdjust="spacing" textLength="112" x="378" y="844.2305">Git Server</text><text fill="#000000" font-family="sans-serif" font-size="24" lengthAdjust="spacing" textLength="194" x="378" y="872.4961">eg github, gitlab</text></g><!--entity bh--><g id="elem_bh"><polygon fill="none" points="189.5,659.0273,189.5,659.2375,199.1667,658.613,208.8333,659.2206,218.5,659.427,228.1667,658.3139,237.8333,658.9496,247.5,658.6009,257.1667,658.6438,266.8333,658.9592,276.5,658.336,286.1667,659.581,295.8333,658.3971,305.5,658.8296,315.1667,659.4593,324.8333,658.9416,334.5,659.0273,334.5087,659.0484,334.8495,659.164,335.2299,659.3752,335.5912,659.5403,335.9889,659.7935,336.2678,659.7596,336.4744,659.8452,336.6234,660.1998,336.6391,660.4992,336.8499,660.8794,337.0698,661.2634,337,661.5273,336.7596,661.5273,337.2262,670.1805,336.9012,678.8336,337.1779,687.4867,336.835,696.1398,337,704.793,336.9789,704.7842,337.0819,705.2411,336.6921,705.4939,336.5931,705.8671,336.5185,706.2504,336.2678,706.5607,336.3209,706.6889,335.9137,706.706,335.5973,706.9421,335.1341,706.8238,334.8898,707.2341,334.5,707.293,334.5,707.8412,324.8333,707.7375,315.1667,707.906,305.5,706.8099,295.8333,706.6408,286.1667,706.6716,276.5,707.2341,266.8333,707.0964,257.1667,707.9744,247.5,707.1183,237.8333,706.9499,228.1667,707.5212,218.5,706.6261,208.8333,706.7738,199.1667,707.9419,189.5,707.293,189.5556,707.4271,189.2401,707.3727,188.7518,706.901,188.4801,706.9519,188.1611,706.889,187.7322,706.5607,187.5868,706.5005,187.5563,706.195,187.4781,705.8697,187.4936,705.5832,187.1452,705.146,187,704.793,187.1542,704.793,186.8154,696.1398,186.7742,687.4867,187.1679,678.8336,186.761,670.1805,187,661.5273,187.1567,661.5923,187.2101,661.2001,187.2104,660.7861,187.3304,660.4216,187.7271,660.1717,187.7322,659.7596,187.694,659.6674,188.1613,659.7954,188.3688,659.2965,188.8717,659.5104,189.2082,659.3229,189.5,659.0273" style="stroke:#181818;stroke-width:4.0;"/><text fill="#000000" font-family="sans-serif" font-size="24" lengthAdjust="spacing" textLength="130" x="197" y="692.2305">Binder Hub</text></g><!--entity nectar--><g id="elem_nectar"><polygon fill="none" points="41.5,816.0273,41.5,816.2375,51.4655,815.613,61.431,816.2206,71.3966,816.427,81.3621,815.3139,91.3276,815.9496,101.2931,815.6009,111.2586,815.6438,121.2241,815.9592,131.1897,815.336,141.1552,816.581,151.1207,815.3971,161.0862,815.8296,171.0517,816.4593,181.0172,815.9416,190.9828,816.0956,200.9483,815.9954,210.9138,816.2059,220.8793,816.2665,230.8448,816.613,240.8103,816.6984,250.7759,816.7066,260.7414,816.282,270.7069,816.4909,280.6724,816.7296,290.6379,815.3062,300.6034,816.7059,310.569,815.7308,320.5345,816.5612,330.5,816.0273,330.4369,815.8749,330.8448,816.1527,331.3017,816.5486,331.5544,816.4517,331.9276,816.6456,332.2678,816.7596,332.3721,816.8028,332.5424,817.1662,332.5595,817.4662,332.7956,817.8569,332.6773,818.1008,333,818.5273,333.0948,818.5273,333.1827,827.1805,333.1482,835.8336,333.2043,844.4867,332.839,853.1398,333,861.793,332.7992,861.7098,332.6622,862.0673,332.689,862.4926,332.5001,862.8286,332.6241,863.2941,332.2678,863.5607,332.2455,863.5069,331.8705,863.6015,331.5898,863.9239,331.122,863.7947,330.7873,863.9867,330.5,864.293,330.5,864.9419,320.5345,864.7286,310.569,865.0275,300.6034,863.9712,290.6379,864.6122,280.6724,864.8834,270.7069,863.8206,260.7414,864.1971,250.7759,864.419,240.8103,864.9447,230.8448,864.2888,220.8793,864.7555,210.9138,863.7392,200.9483,863.6157,190.9828,864.7966,181.0172,863.576,171.0517,864.8019,161.0862,864.4996,151.1207,864.0251,141.1552,863.9392,131.1897,864.7517,121.2241,863.9936,111.2586,864.8848,101.2931,863.7402,91.3276,864.9104,81.3621,864.7773,71.3966,864.5379,61.431,864.3402,51.4655,865.0196,41.5,864.293,41.5783,864.4819,41.168,864.1986,40.8271,864.0827,40.4227,863.8135,40.1772,863.9278,39.7322,863.5607,39.7799,863.5805,39.6389,863.2292,39.252,862.776,39.1681,862.4484,39.3099,862.2142,39,861.793,39.1433,861.793,38.9857,853.1398,38.8926,844.4867,38.927,835.8336,38.7713,827.1805,39,818.5273,39.1277,818.5802,39.3742,818.2681,39.455,817.8874,39.6534,817.5553,39.5437,817.0957,39.7322,816.7596,39.7434,816.7864,40.0363,816.4938,40.4756,816.5542,40.8244,816.3962,41.2169,816.3439,41.5,816.0273" style="stroke:#181818;stroke-width:4.0;"/><text fill="#000000" font-family="sans-serif" font-size="24" lengthAdjust="spacing" textLength="274" x="49" y="849.2305">Nectar Virtual Compute</text></g><!--entity a--><g id="elem_a"><path d="M804.5,443.0273 L804.5,443.0273 L804.5429,443.1103 L806.6497,441.7076 L809.0082,440.7911 L811.2848,439.7164 L813.2918,438.1207 L815.6719,437.2461 L815.6666,437.212 L817.933,436.7033 L820.2262,436.3667 L822.5379,436.1498 L824.7857,435.5206 L827.123,435.4688 L827.1453,435.7138 L829.7231,434.9515 L832.3659,434.9047 L835.0166,434.9451 L837.6212,434.4777 L840.25,434.2773 L840.2517,434.3076 L842.8746,434.1186 L845.5051,434.0675 L848.132,433.9499 L850.7659,433.9591 L853.377,433.5547 L853.3866,433.8528 L855.677,433.7822 L857.9611,433.5194 L860.2543,433.538 L862.548,433.5698 L864.8281,433.1836 L864.8236,432.8631 L867.0667,433.4539 L869.295,432.9893 L871.5346,433.3271 L873.7625,432.8386 L876,433.0273 L876,433.0273 L875.9996,432.9969 L878.239,433.3882 L880.4684,433.0682 L882.7038,433.1679 L884.9396,433.3028 L887.1719,433.1836 L887.1779,433.3685 L889.4621,433.2561 L891.7565,433.4596 L894.0343,433.152 L896.3369,433.6068 L898.623,433.5547 L898.6364,433.798 L901.2593,433.8965 L903.8888,434.1158 L906.4874,433.7739 L909.1087,433.8434 L911.75,434.2773 L911.725,434.0023 L914.373,434.4896 L916.9929,434.6669 L919.6535,435.2938 L922.2445,435.1532 L924.877,435.4688 L924.8536,435.3181 L927.1827,435.9245 L929.412,435.8868 L931.7123,436.3072 L934.0821,437.1756 L936.3281,437.2461 L936.4171,437.4181 L938.7125,438.6923 L940.7311,439.4316 L943.0965,440.8408 L945.3862,442.1041 L947.5,443.0273 L947.0801,443.0273 L947.4148,450.4805 L947.612,457.9336 L948.0793,465.3867 L947.4963,472.8398 L947.5,480.293 L947.5,480.293 L947.5945,480.4756 L945.1525,481.2306 L942.8929,482.3381 L940.8997,483.9605 L938.4161,484.635 L936.3281,486.0742 L936.3628,486.2977 L934.052,486.5204 L931.7294,486.6675 L929.4333,486.9853 L927.1985,487.6976 L924.877,487.8516 L924.8649,487.7191 L922.2753,488.3518 L919.604,488.0835 L917.0256,488.8397 L914.3948,489.0191 L911.75,489.043 L911.756,489.1517 L909.1258,489.2085 L906.517,489.6545 L903.8888,489.7489 L901.2526,489.6962 L898.623,489.7656 L898.6269,489.8848 L896.3309,489.782 L894.0529,490.2323 L891.7546,490.0571 L889.4646,490.1392 L887.1719,490.1367 L887.1681,489.8664 L884.935,489.9879 L882.7064,490.4351 L880.4714,490.4215 L878.2341,490.2426 L876,490.293 L876,490.293 L875.998,490.1498 L873.7643,490.1644 L871.527,489.9255 L869.2995,490.3835 L867.0671,490.4966 L864.8281,490.1367 L864.8357,490.3705 L862.5479,490.3712 L860.2457,489.9275 L857.9587,489.9528 L855.6616,489.6677 L853.377,489.7656 L853.3839,489.8917 L850.7576,489.7306 L848.1397,489.7217 L845.4952,489.2301 L842.8721,489.1279 L840.25,489.043 L840.2678,489.2393 L837.6474,489.0558 L834.9786,488.3395 L832.366,488.2423 L829.7544,488.1559 L827.123,487.8516 L827.0814,487.5833 L824.8569,487.6513 L822.5602,487.2539 L820.2455,486.7409 L817.9718,486.4922 L815.6719,486.0742 L815.8207,486.3618 L813.3736,484.7945 L811.2675,483.8861 L809.0271,482.7182 L806.758,481.4949 L804.5,480.293 L804.6253,480.293 L804.6009,472.8398 L803.9452,465.3867 L804.1437,457.9336 L804.0897,450.4805 L804.5,443.0273 " fill="none" style="stroke:#181818;stroke-width:4.0;"/><path d="M804.5,443.0273 L804.5,443.0273 L804.5429,443.1103 L806.6497,444.0201 L809.0082,445.4161 L811.2848,446.6539 L813.2918,447.3707 L815.6719,448.8086 L815.6666,448.7745 L817.933,448.9768 L820.2262,449.3511 L822.5379,449.8451 L824.7857,449.9268 L827.123,450.5859 L827.1453,450.831 L829.7231,450.5452 L832.3659,450.975 L835.0166,451.492 L837.6212,451.5011 L840.25,451.7773 L840.2517,451.8076 L842.8746,451.9077 L845.5051,452.1456 L848.132,452.3171 L850.7659,452.6154 L853.377,452.5 L853.3866,452.7981 L855.677,452.876 L857.9611,452.7615 L860.2543,452.9286 L862.548,453.1088 L864.8281,452.8711 L864.8236,452.5506 L867.0667,453.2039 L869.295,452.8018 L871.5346,453.2021 L873.7625,452.7761 L876,453.0273 L876,453.0273 L875.9996,452.9969 L878.239,453.3257 L880.4684,452.9432 L882.7038,452.9804 L884.9396,453.0528 L887.1719,452.8711 L887.1779,453.056 L889.4621,452.7951 L891.7565,452.8502 L894.0343,452.3942 L896.3369,452.7005 L898.623,452.5 L898.6364,452.7433 L901.2593,452.5527 L903.8888,452.483 L906.4874,451.852 L909.1087,451.6325 L911.75,451.7773 L911.725,451.5023 L914.373,451.513 L916.9929,451.2138 L919.6535,451.3641 L922.2445,450.7469 L924.877,450.5859 L924.8536,450.4353 L927.1827,450.3307 L929.412,449.5821 L931.7123,449.2915 L934.0821,449.4491 L936.3281,448.8086 L936.4171,448.9806 L938.7125,447.9423 L940.7311,446.3691 L943.0965,445.4658 L945.3862,444.4166 L947.5,443.0273 " fill="none" style="stroke:#181818;stroke-width:4.0;"/><text fill="#000000" font-family="sans-serif" font-size="24" lengthAdjust="spacing" textLength="123" x="814.5" y="480.2305">ATAP repo</text></g><!--entity l--><g id="elem_l"><path d="M982.5,443.0273 L982.5,443.0273 L982.5386,443.1124 L984.9708,441.7034 L987.6293,440.7931 L990.2141,439.7203 L992.5564,438.1136 L995.2344,437.2461 L995.2297,437.2119 L997.8193,436.7028 L1000.4325,436.3663 L1003.0619,436.1497 L1005.6351,435.5198 L1008.2871,435.4688 L1008.3066,435.714 L1011.2575,434.9512 L1014.2653,434.9046 L1017.2801,434.9453 L1020.2544,434.4776 L1023.25,434.2773 L1023.2515,434.3076 L1026.2419,434.1186 L1029.239,434.0675 L1032.2329,433.9499 L1035.2329,433.9592 L1038.2129,433.5547 L1038.2214,433.8528 L1040.832,433.7822 L1043.4372,433.5194 L1046.0504,433.538 L1048.6639,433.5698 L1051.2656,433.1836 L1051.2617,432.8631 L1053.8162,433.4539 L1056.3578,432.9893 L1058.9092,433.3271 L1061.4504,432.8386 L1064,433.0273 L1064,433.0273 L1063.9996,432.9969 L1066.5509,433.3882 L1069.0935,433.0682 L1071.6412,433.1679 L1074.1893,433.3028 L1076.7344,433.1836 L1076.7396,433.3685 L1079.3449,433.2561 L1081.9591,433.4596 L1084.5588,433.1519 L1087.1802,433.6068 L1089.7871,433.5547 L1089.7989,433.798 L1092.7892,433.8966 L1095.7854,434.1159 L1098.7545,433.7738 L1101.7434,433.8433 L1104.75,434.2773 L1104.7281,434.002 L1107.7405,434.4895 L1110.7282,434.6668 L1113.7518,435.2941 L1116.7142,435.1531 L1119.7129,435.4688 L1119.6923,435.3177 L1122.3371,435.9247 L1124.894,435.886 L1127.5134,436.3065 L1130.194,437.1764 L1132.7656,437.2461 L1132.8457,437.4224 L1135.4474,438.6996 L1137.8003,439.4284 L1140.4649,440.844 L1143.0616,442.11 L1145.5,443.0273 L1145.0801,443.0273 L1145.4148,450.4805 L1145.612,457.9336 L1146.0793,465.3867 L1145.4963,472.8398 L1145.5,480.293 L1145.5,480.293 L1145.585,480.4802 L1142.8514,481.2251 L1140.2818,482.3314 L1137.9519,483.9655 L1135.1808,484.6278 L1132.7656,486.0742 L1132.7961,486.2984 L1130.1675,486.5207 L1127.5285,486.6672 L1124.9128,486.9848 L1122.3509,487.6981 L1119.7129,487.8516 L1119.7023,487.7189 L1116.7412,488.3521 L1113.7082,488.0832 L1110.7569,488.84 L1107.7597,489.0193 L1104.75,489.043 L1104.7553,489.1517 L1101.7584,489.2085 L1098.7804,489.6546 L1095.7854,489.7489 L1092.7833,489.6962 L1089.7871,489.7656 L1089.7905,489.8848 L1087.1749,489.782 L1084.5751,490.2324 L1081.9574,490.0571 L1079.3471,490.1392 L1076.7344,490.1367 L1076.7311,489.8664 L1074.1853,489.9879 L1071.6435,490.4351 L1069.0961,490.4215 L1066.5466,490.2426 L1064,490.293 L1064,490.293 L1063.9982,490.1498 L1061.4519,490.1644 L1058.9025,489.9255 L1056.3616,490.3835 L1053.8165,490.4966 L1051.2656,490.1367 L1051.2723,490.3706 L1048.6639,490.3712 L1046.0428,489.9275 L1043.4351,489.9528 L1040.8185,489.6676 L1038.2129,489.7656 L1038.219,489.8917 L1035.2256,489.7306 L1032.2396,489.7218 L1029.2302,489.2301 L1026.2397,489.1278 L1023.25,489.043 L1023.2656,489.2394 L1020.2774,489.056 L1017.2468,488.3393 L1014.2654,488.2422 L1011.285,488.156 L1008.2871,487.8516 L1008.2505,487.5826 L1005.6978,487.6517 L1003.0815,487.2542 L1000.4494,486.7408 L997.8535,486.4923 L995.2344,486.0742 L995.3683,486.3691 L992.63,484.7914 L990.1985,483.8892 L987.6462,482.7211 L985.0681,481.4961 L982.5,480.293 L982.6253,480.293 L982.6009,472.8398 L981.9452,465.3867 L982.1437,457.9336 L982.0897,450.4805 L982.5,443.0273 " fill="none" style="stroke:#181818;stroke-width:4.0;"/><path d="M982.5,443.0273 L982.5,443.0273 L982.5386,443.1124 L984.9708,444.0159 L987.6293,445.4181 L990.2141,446.6578 L992.5564,447.3636 L995.2344,448.8086 L995.2297,448.7744 L997.8193,448.9762 L1000.4325,449.3506 L1003.0619,449.845 L1005.6351,449.926 L1008.2871,450.5859 L1008.3066,450.8312 L1011.2575,450.545 L1014.2653,450.9749 L1017.2801,451.4922 L1020.2544,451.5011 L1023.25,451.7773 L1023.2515,451.8076 L1026.2419,451.9077 L1029.239,452.1457 L1032.2329,452.3171 L1035.2329,452.6155 L1038.2129,452.5 L1038.2214,452.7981 L1040.832,452.876 L1043.4372,452.7616 L1046.0504,452.9286 L1048.6639,453.1089 L1051.2656,452.8711 L1051.2617,452.5506 L1053.8162,453.2039 L1056.3578,452.8018 L1058.9092,453.2021 L1061.4504,452.7761 L1064,453.0273 L1064,453.0273 L1063.9996,452.9969 L1066.5509,453.3257 L1069.0935,452.9432 L1071.6412,452.9804 L1074.1893,453.0528 L1076.7344,452.8711 L1076.7396,453.056 L1079.3449,452.7951 L1081.9591,452.8503 L1084.5588,452.3941 L1087.1802,452.7006 L1089.7871,452.5 L1089.7989,452.7434 L1092.7892,452.5528 L1095.7854,452.4831 L1098.7545,451.852 L1101.7434,451.6324 L1104.75,451.7773 L1104.7281,451.502 L1107.7405,451.513 L1110.7282,451.2137 L1113.7518,451.3644 L1116.7142,450.7468 L1119.7129,450.5859 L1119.6923,450.4349 L1122.3371,450.331 L1124.894,449.5813 L1127.5134,449.2909 L1130.194,449.4498 L1132.7656,448.8086 L1132.8457,448.9849 L1135.4474,447.9496 L1137.8003,446.3659 L1140.4649,445.469 L1143.0616,444.4225 L1145.5,443.0273 " fill="none" style="stroke:#181818;stroke-width:4.0;"/><text fill="#000000" font-family="sans-serif" font-size="24" lengthAdjust="spacing" textLength="143" x="992.5" y="480.2305">LDACA repo</text></g><!--entity z--><g id="elem_z"><polygon fill="none" points="621.5,437.5273,621.5,437.7375,631.1667,437.113,640.8333,437.7206,650.5,437.927,660.1667,436.8139,669.8333,437.4496,679.5,437.1009,689.1667,437.1438,698.8333,437.4592,708.5,436.836,718.1667,438.081,727.8333,436.8971,737.5,437.3296,747.1667,437.9593,756.8333,437.4416,766.5,437.5273,766.5087,437.5484,766.8495,437.664,767.2299,437.8752,767.5912,438.0403,767.9889,438.2935,768.2678,438.2596,768.4744,438.3452,768.6234,438.6998,768.6391,438.9992,768.8499,439.3794,769.0698,439.7634,769,440.0273,768.7596,440.0273,769.2262,448.6805,768.9012,457.3336,769.1779,465.9867,768.835,474.6398,769,483.293,768.9789,483.2842,769.0819,483.7411,768.6921,483.9939,768.5931,484.3671,768.5185,484.7504,768.2678,485.0607,768.3209,485.1889,767.9137,485.206,767.5973,485.4421,767.1341,485.3238,766.8898,485.7341,766.5,485.793,766.5,486.3412,756.8333,486.2375,747.1667,486.406,737.5,485.3099,727.8333,485.1408,718.1667,485.1716,708.5,485.7341,698.8333,485.5964,689.1667,486.4744,679.5,485.6183,669.8333,485.4499,660.1667,486.0212,650.5,485.1261,640.8333,485.2738,631.1667,486.4419,621.5,485.793,621.5556,485.9271,621.2401,485.8727,620.7518,485.401,620.4801,485.4519,620.1611,485.389,619.7322,485.0607,619.5868,485.0005,619.5563,484.695,619.4781,484.3697,619.4936,484.0832,619.1452,483.646,619,483.293,619.1542,483.293,618.8154,474.6398,618.7742,465.9867,619.1679,457.3336,618.761,448.6805,619,440.0273,619.1567,440.0923,619.2101,439.7001,619.2104,439.2861,619.3304,438.9216,619.7271,438.6717,619.7322,438.2596,619.694,438.1674,620.1613,438.2954,620.3688,437.7965,620.8717,438.0104,621.2082,437.8229,621.5,437.5273" style="stroke:#181818;stroke-width:4.0;"/><text fill="#000000" font-family="sans-serif" font-size="24" lengthAdjust="spacing" textLength="130" x="629" y="470.7305">Zenodo etc</text></g><!--link bh to git--><g id="link_bh_git"><path d="M287.86,707.4973 L287.9223,707.5669 L291.4596,710.6919 L295.3621,714.225 L299.1457,717.6251 L302.5382,720.5883 L306.472,724.1564 L306.4492,724.1305 L310.2382,727.4378 L314.1421,730.8758 L318.1261,734.4047 L321.8344,737.6205 L325.9288,741.2748 L326.0885,741.462 L329.2884,744.0842 L332.9546,747.2529 L336.6778,750.4882 L340.0699,753.3356 L343.6361,756.387 L343.655,756.4108 L346.3,758.504 L349.0311,760.7052 L351.7206,762.8544 L354.4894,765.1029 L357,767.0273 L357.1737,767.2698 L359.0467,768.6136 L360.8076,769.801 L362.7326,771.2173 L364.6652,772.6444 L366.3542,773.7316 L366.1727,773.4674 L368.4579,775.308 L370.1454,776.2788 L372.2873,777.9108 L373.9613,778.8618 L376.0187,780.3711 L376.0019,780.3457 L378.1708,781.9509 L379.9469,782.9631 L381.9547,784.3252 L383.982,785.7167 L385.8689,786.8963 L385.9688,787.0519 L387.8502,788.167 L389.9023,789.5481 L391.6781,790.4988 L393.8661,792.0915 L395.78,793.2573 " fill="none" style="stroke:#8B0000;stroke-width:4.0;"/><polygon fill="#8B0000" points="399.75,795.7473,399.8082,795.7864,398.5383,794.0344,397.6096,792.5111,396.5697,790.9134,395.1646,789.0707,394.2652,787.5671,394.2399,787.5614,394.3773,788.6388,394.642,789.7452,394.9952,790.8718,395.0434,791.929,395.5188,793.0833,395.5597,793.2632,394.369,793.1291,393.2978,793.5205,392.241,793.9759,391.0996,794.0583,390.0027,794.337,390.0059,794.3595,391.9506,794.6085,393.9101,794.96,395.8625,795.2621,397.8285,795.6585,399.75,795.7473" style="stroke:#8B0000;stroke-width:4.0;"/><text fill="#000000" font-family="sans-serif" font-size="24" lengthAdjust="spacing" textLength="181" x="358" y="761.2305">Fetch notebook</text></g><!--link bh to nectar--><g id="link_bh_nectar"><path d="M186.87,705.9973 L186.8984,706.0863 L184.1425,706.6741 L181.5531,707.7836 L178.9094,708.7232 L176.0876,709.1041 L173.5124,710.2584 L173.5015,710.2256 L170.8483,710.9424 L168.2498,711.8244 L165.6894,712.8214 L162.9977,713.4224 L160.49,714.578 L160.571,714.8103 L157.9339,715.1723 L155.5333,716.2127 L153.1616,717.3358 L150.622,717.9774 L148.1707,718.8723 L148.1813,718.9007 L145.9161,719.696 L143.6991,720.6207 L141.4588,721.4829 L139.2629,722.4643 L136.9225,723.0573 L137.0409,723.3311 L133.4801,724.8758 L129.8429,726.244 L126.3176,727.8706 L122.7974,729.5093 L119.1112,730.7642 L118.9297,730.5001 L117.4598,732.2654 L115.3921,733.1609 L113.7789,734.7176 L111.6976,735.5934 L110,737.0273 L109.9728,737.0137 L109.3217,739.1246 L108.0341,740.9178 L107.1221,742.8984 L106.2417,744.8948 L105.1338,746.7777 L105.3173,746.801 L104.8807,748.7579 L104.7578,750.7547 L104.1274,752.687 L104.2539,754.7154 L103.8772,756.68 L104.1167,756.7246 L104.4406,758.7004 L104.8835,760.6984 L104.7737,762.5935 L105.0691,764.564 L105.7232,766.6013 L105.4717,766.4874 L106.5878,768.552 L107.4204,770.4882 L108.6642,772.6106 L109.2059,774.4151 L110.165,776.4086 L110.0391,776.3226 L111.5549,778.3779 L112.5325,780.0655 L113.8928,782.0146 L115.6276,784.2195 L116.6955,785.9688 L116.8406,786.0971 L118.5626,788.0211 L119.8333,789.5462 L121.6692,791.5709 L123.382,793.4868 L124.8078,795.1491 L124.6637,794.9963 L126.616,796.8515 L128.5211,798.6567 L130.5189,800.5601 L132.1563,802.0814 L133.995,803.8162 L134.1255,803.975 L135.7896,805.2303 L137.7058,806.7922 L139.9901,808.8018 L141.5966,809.987 L143.75,811.8373 " fill="none" style="stroke:#8B0000;stroke-width:4.0;"/><polygon fill="#8B0000" points="147.45,814.6373,147.5113,814.6712,146.376,812.8467,145.6002,811.2209,144.7073,809.5303,143.4295,807.627,142.6845,806.0182,142.6588,806.0146,142.6992,807.1193,142.8689,808.2419,143.1285,809.377,143.0783,810.469,143.462,811.6214,143.4874,811.8042,142.3125,811.5688,141.2117,811.8671,140.1199,812.2305,138.9756,812.2151,137.8589,812.3989,137.8641,812.4211,139.7747,812.8363,141.7089,813.3523,143.6317,813.8196,145.5761,814.3798,147.45,814.6373" style="stroke:#8B0000;stroke-width:4.0;"/><text fill="#000000" font-family="sans-serif" font-size="24" lengthAdjust="spacing" textLength="205" x="111" y="761.2305">Launch Notebook</text></g><!--link dc to a--><g id="link_dc_a"><path d="M838.34,256.5173 L838.6156,256.5682 L839.6397,266.4 L842.2793,276.53 L844.3929,286.5629 L844.7764,296.2764 L847.4528,306.4132 L848.8384,316.3118 L850.7378,326.3051 L852.9942,336.3644 L854.02,346.1965 L857.4953,356.4808 L857.7859,366.1771 L860.196,376.2648 L862.8646,386.4001 L864.0287,396.2578 L866.0736,406.278 L867.7852,416.2367 L869.67,426.2273 " fill="none" style="stroke:#8B0000;stroke-width:4.0;"/><polygon fill="#8B0000" points="870.57,431.0973,870.6381,431.1136,870.8929,429.1493,871.5472,427.2804,872.0714,425.3804,872.1678,423.3783,872.8563,421.5175,872.835,421.5029,872.099,422.3699,871.4706,423.3109,870.9171,424.3032,870.1056,425.1185,869.6555,426.1817,869.7599,426.3339,868.6038,425.3683,867.7525,424.847,866.9384,424.3799,865.908,423.5974,864.9913,422.9808,865.0101,422.9937,866.0983,424.5981,867.2718,426.2611,868.4042,427.8959,869.6152,429.5846,870.57,431.0973" style="stroke:#8B0000;stroke-width:4.0;"/><text fill="#000000" font-family="sans-serif" font-size="24" lengthAdjust="spacing" textLength="123" x="854" y="336.2305">Index data</text></g><!--link dc to l--><g id="link_dc_l"><path d="M899.1,256.3973 L899.139,256.4822 L901.2493,257.2529 L903.5882,258.5211 L905.8526,259.6273 L907.8722,260.2006 L910.2307,261.5115 L910.2154,261.4806 L912.4186,262.4682 L914.6991,263.6118 L917.0334,264.8639 L919.1824,265.7423 L921.5909,267.1441 L921.7075,267.3607 L923.7455,268.1283 L926.1239,269.5285 L928.5439,271.0058 L930.7222,272.0341 L933.0275,273.2985 L933.0429,273.3247 L935.2923,274.6223 L937.6117,276.039 L939.8974,277.3982 L942.2475,278.867 L944.3875,279.9786 L944.5496,280.2289 L946.7777,281.6738 L948.9011,282.9573 L951.1777,284.4771 L953.4614,286.008 L955.5178,287.1879 L955.3304,286.9278 L957.8435,288.981 L959.7398,290.1778 L962.105,292.0257 L963.9872,293.2031 L966.2653,294.93 L966.2461,294.9064 L968.5152,296.8418 L970.3364,298.2246 L972.4218,299.9335 L974.5295,301.6698 L976.4771,303.2086 L976.6028,303.3443 L978.3805,304.9711 L980.373,306.8298 L982.018,308.3132 L984.1813,310.3563 L986,312.0273 L986.1802,312.1913 L988.5085,314.7558 L990.9262,317.4016 L992.9283,319.6692 L995.2351,322.214 L997.8118,325.0046 L997.5924,324.8369 L999.9545,327.8194 L1002.0694,330.6129 L1004.543,333.6805 L1006.4042,336.2802 L1008.6294,339.158 L1008.502,339.0742 L1010.6802,342.2013 L1012.314,344.9703 L1014.3349,347.994 L1016.7346,351.267 L1018.4598,354.096 L1018.6275,354.1928 L1020.5125,357.3255 L1021.876,360.157 L1023.8928,363.3657 L1025.7672,366.4923 L1027.31,369.4273 L1027.1232,369.3314 L1028.8475,372.4745 L1030.5106,375.5862 L1032.2939,378.7596 L1033.61,381.6931 L1035.1871,384.7605 L1035.3737,384.8468 L1036.3459,387.646 L1037.6783,390.6117 L1039.5369,393.8207 L1040.4267,396.5817 L1042.0981,399.7042 L1042.3067,399.7919 L1043.3732,402.5723 L1044.3691,405.3232 L1045.5243,408.1409 L1047.0477,411.1134 L1048.0501,413.867 L1047.9259,413.8192 L1049.2956,416.5595 L1049.8208,418.9749 L1051.3061,421.7598 L1052.2509,424.3366 L1053.05,426.8573 " fill="none" style="stroke:#8B0000;stroke-width:4.0;"/><polygon fill="#8B0000" points="1054.67,431.3373,1054.7399,431.3423,1054.6723,429.3627,1055.0144,427.4124,1055.2231,425.4525,1054.993,423.4613,1055.3703,421.5134,1055.3468,421.5024,1054.7614,422.4775,1054.2941,423.508,1053.9091,424.577,1053.2408,425.5132,1052.9693,426.6355,1053.0476,426.8026,1051.8557,425.965,1050.8925,425.6154,1049.9572,425.3253,1048.8595,424.6888,1047.8473,424.2345,1047.8637,424.2503,1049.2041,425.6477,1050.6193,427.1169,1051.9984,428.5514,1053.4463,430.052,1054.67,431.3373" style="stroke:#8B0000;stroke-width:4.0;"/><text fill="#000000" font-family="sans-serif" font-size="24" lengthAdjust="spacing" textLength="123" x="1010" y="336.2305">Index data</text></g><!--link tr to git--><g id="link_tr_git"><path d="M606.21,256.2273 L606.3033,256.2312 L605.6578,265.0333 L605.5595,273.8582 L605.283,282.6757 L604.4205,291.4686 L604.3691,300.2955 L604.3346,300.2938 L603.9011,306.016 L603.6414,311.7465 L603.5027,317.483 L602.9473,323.1992 L602.9755,328.9438 L603.2212,328.9571 L602.3473,335.3558 L602.1907,341.7933 L602.1217,348.2356 L601.5434,354.6503 L601.233,361.0795 L601.2632,361.0814 L600.7955,368.065 L600.4656,375.057 L600.0692,382.045 L599.7997,389.0407 L599.1166,396.0113 L599.4141,396.0315 L598.9147,403.439 L598.2234,410.8334 L597.813,418.2469 L597.4157,425.6614 L596.6013,433.0475 L596.2817,433.023 L596.3141,440.7603 L595.2942,448.4171 L595.0743,456.1351 L594.0305,463.79 L593.662,471.4967 L593.6317,471.494 L593.3127,479.3592 L592.2851,487.1631 L591.6757,495.0031 L591.1013,502.8462 L590.2738,510.6673 L590.4579,510.6855 L589.4996,518.5073 L588.8559,526.3601 L587.7032,534.1628 L587.3097,542.0403 L586.4115,549.868 L586.6537,549.8945 L586.1845,553.7686 L585.8356,557.6558 L584.928,561.482 L584.4299,565.353 L584.2948,569.2635 L584.0205,569.2314 L583.8198,573.0892 L583.3102,576.9108 L583.2488,580.785 L582.422,584.5694 L582.0501,588.4072 L581.8989,588.3881 L581.6757,592.181 L580.8058,595.8923 L580.3959,599.6616 L580.4358,603.4877 L579.6745,607.2127 L579.8663,607.2389 L579.496,610.933 L578.5289,614.5456 L578.3092,618.2603 L577.9267,621.9528 L577.1647,625.5934 L576.957,625.5627 L576.5932,629.1611 L576.1613,632.7495 L575.863,636.3577 L575.0452,639.8889 L574.5176,643.4631 L574.7206,643.4958 L573.7172,646.8783 L573.1055,650.3239 L573.0661,653.862 L571.9731,657.23 L571.7302,660.7352 L571.9529,660.7745 L571.2344,664.0688 L570.4405,667.3497 L569.8167,670.6607 L569.5861,674.0411 L568.7991,677.3232 L568.6685,677.2978 L568.4418,680.537 L567.3269,683.6034 L567.2219,686.8663 L566.5483,690.0185 L565.7214,693.1409 L565.8279,693.1639 L565.0965,696.1375 L564.7461,699.1933 L564.0515,702.1749 L563.213,705.1254 L562.494,708.1017 L562.6098,708.1296 L561.7616,710.8916 L561.4513,713.7833 L560.5326,716.5283 L559.8642,719.3337 L559.1135,722.1192 L558.8527,722.0481 L558.2325,724.6694 L557.9265,727.3763 L557.1759,729.962 L556.2659,732.5044 L555.5771,735.1069 L555.4403,735.0644 L554.745,737.4523 L553.8076,739.7649 L553.5357,742.2847 L552.9344,744.7019 L551.8814,746.9785 L552.1014,747.058 L551.4003,749.2173 L550.2811,751.2254 L549.6031,753.393 L548.633,755.4551 L548.0234,757.6474 L548.1394,757.6972 L547.3195,759.5667 L546.6397,761.4962 L545.5156,763.2351 L544.7498,765.1278 L544,767.0273 L544.1717,767.1241 L542.767,769.7308 L540.896,772.0751 L539.5667,774.7243 L538.2468,777.3789 L536.7363,779.9261 L536.5173,779.7656 L535.0877,782.4412 L533.2782,784.8384 L531.3744,787.1664 L529.6862,789.6525 L527.86,792.0373 " fill="none" style="stroke:#8B0000;stroke-width:4.0;"/><polygon fill="#8B0000" points="524.83,795.6373,524.8607,795.7003,526.5395,794.6491,528.3984,793.9669,530.1987,793.1645,531.806,791.9669,533.6804,791.3164,533.6782,791.2906,532.541,791.2731,531.4151,791.3857,530.2972,791.5887,529.152,791.4801,528.045,791.808,528.2288,791.824,527.7373,790.6626,527.7827,789.5481,527.8935,788.4392,527.6232,787.2971,527.5534,786.1725,527.5753,786.1788,526.9985,788.0625,526.5212,789.9749,525.996,791.8735,525.5623,793.7984,524.83,795.6373" style="stroke:#8B0000;stroke-width:4.0;"/><text fill="#000000" font-family="sans-serif" font-size="24" lengthAdjust="spacing" textLength="131" x="589" y="546.2305">Index tools</text></g><!--link dag to ws--><g id="link_dag_ws"><path d="M290.07,256.3473 L290.1262,256.422 L287.351,258.1648 L284.9054,260.3451 L282.3524,262.3829 L279.4466,263.9523 L277.0292,266.1701 L277.008,266.1428 L273.9853,268.2956 L271.0695,270.5858 L268.228,272.9717 L265.1305,275.0281 L262.3915,277.5459 L262.5457,277.7377 L259.0167,279.8991 L255.9378,282.6205 L252.9138,285.4102 L249.5703,287.8023 L246.3949,290.4036 L246.4143,290.4269 L242.9623,293.2464 L239.5986,296.1719 L236.1923,299.0463 L232.8674,302.0183 L229.2772,304.672 L229.4726,304.8974 L225.8748,308.0217 L222.1509,311.0007 L218.6116,314.1925 L215.0809,317.3942 L211.2762,320.28 L211.0611,320.0424 L207.7493,323.8789 L203.7293,326.9329 L200.2476,330.5818 L196.2115,333.618 L192.6299,337.1564 L192.6091,337.1342 L190.9571,339.1753 L188.8187,340.6973 L186.9674,342.5256 L185.1401,344.3796 L183.139,346.0481 L183.2671,346.1815 L181.2252,347.8832 L179.4022,349.813 L177.225,351.3738 L175.5762,353.4849 L173.576,355.2301 L173.747,355.4037 L171.7936,357.2636 L169.9251,359.2096 L167.6621,360.7553 L165.6883,362.5945 L163.9706,364.6937 L163.7741,364.4996 L162.0284,366.6225 L160.0612,368.5267 L158.4152,370.7482 L156.2209,372.428 L154.3525,374.4298 L154.2425,374.3242 L152.5055,376.5001 L150.2983,378.2245 L148.4254,380.27 L146.8797,382.6295 L144.7514,384.4298 L144.8931,384.5618 L143.0794,386.7032 L140.8251,388.4342 L139.1227,390.6793 L137.3,392.8124 L135.1972,394.6845 L135.0413,394.5438 L133.27,396.7561 L131.4476,398.9223 L129.7256,401.179 L127.6136,403.0838 L125.7194,405.1852 L125.8743,405.3204 L123.6597,407.1709 L121.7441,409.2824 L120.2652,411.775 L117.9822,413.5659 L116.3479,415.9229 L116.5209,416.0686 L114.5711,418.1753 L112.5626,420.2326 L110.6864,422.4012 L109.1155,424.827 L107.1124,426.8888 L107.0091,426.805 L105.5028,429.2915 L103.2937,431.2081 L101.8837,433.7727 L100.0238,435.9725 L98.0426,438.074 L98.1285,438.1408 L96.2843,440.3659 L94.7476,442.8306 L92.9331,445.0788 L91.0025,447.2366 L89.1682,449.4694 L89.2638,449.5407 L87.392,451.7542 L85.9638,454.2986 L84.0339,456.4688 L82.3104,458.7929 L80.5191,461.0664 L80.2988,460.9096 L78.6935,463.3199 L77.3535,465.919 L75.6381,468.2509 L73.7881,470.487 L72.1248,472.8559 L72.0062,472.7756 L70.4223,475.196 L68.6284,477.4742 L67.4116,480.1432 L65.9092,482.6188 L64.0152,484.8291 L64.2121,484.9555 L62.7161,487.4255 L60.8459,489.6555 L59.3706,492.1389 L57.634,494.4545 L56.2199,496.9771 L56.3279,497.0425 L54.8235,499.4967 L53.4495,502.0298 L51.6619,504.3126 L50.2079,506.7973 L48.7688,509.291 L48.9402,509.3883 L47.5726,511.9096 L45.7398,514.1669 L44.4475,516.731 L43.1647,519.3004 L41.6915,521.7618 L41.4515,521.6349 L40.4956,524.359 L39.1234,526.863 L37.6477,529.3123 L36.4084,531.8865 L35.0178,534.3808 L35.3087,534.5231 L33.6448,536.8713 L32.6474,539.5455 L31.3876,542.0914 L30.0717,544.6099 L28.7774,547.1389 L28.8345,547.1645 L27.6679,549.7372 L26.2133,552.1808 L25.1484,554.7991 L23.9683,557.3658 L23,560.0273 L23.0265,560.0373 L22.325,561.9315 L21.6439,563.8333 L20.744,565.6528 L20.1252,567.5781 L19.4417,569.479 L19.3906,569.4632 L19.3857,570.5291 L19.021,571.484 L18.3327,572.3389 L18.207,573.3675 L17.9371,574.3516 L17.6903,574.2816 L17.9906,574.6327 L18.0577,574.9176 L17.9606,575.156 L17.4717,575.2833 L17.5881,575.5822 " fill="none" style="stroke:#8B0000;stroke-width:4.0;"/><polygon fill="#8B0000" points="17.5881,575.5822,17.6422,575.6268,18.7355,573.9752,20.1456,572.585,21.4525,571.1096,22.4203,569.3543,23.8576,567.9866,23.8449,567.964,22.8023,568.4186,21.824,568.9869,20.8902,569.6343,19.8027,570.0092,18.9305,570.7658,19.0913,570.8565,18.1917,569.6772,17.7614,568.7626,17.3884,567.8803,16.6822,566.8101,16.1513,565.8387,16.1738,565.842,16.4281,567.7859,16.7849,569.7448,17.0923,571.6964,17.4939,573.662,17.5881,575.5822" style="stroke:#8B0000;stroke-width:4.0;"/><text fill="#000000" font-family="sans-serif" font-size="24" lengthAdjust="spacing" textLength="49" x="177" y="470.7305">Link</text></g><!--SRC=[PP91Rzim38Nl_XLSptDs3u80Rhfr1RgYw8eMA7QXBSBHeaY6H3NrYlptKhAzEAWl5lI-9r6FPCs6bb0zLlVmlN6X3qnxAE4N_dKUDcxVEKkMGr5yqROnKH4i5jyKCfPxjDZINjGoS6zemMzSoEUfORIj8RZ8npvJ7JJJ1M00FC1g5MBNES_hDRn_Wg_aPBWN5SrWKDqvzUYSWGTgTM3VPuGz258SvrG-PkECaItjRCYWQWRkU5vaPj4gg2oQddKJu3fgHQC9s-HAfkFSzkpyBdJOK4ZK8SYx3jDMVbcHGgeno0tNck4t-LVoVoorq6hUnlfh-Xkiyoso76gR5tQfhI8FFwCm2QgtmfmZTsdfuKbxZcXolsAAEk5sqDx7qiLTAdUmvJhVjeGVnCqMh6EgdTlDzT6vX5kCLfYxYPbtopTR_Ogf5vsJ_ZglnyJ4kLhvQRSVmfYbaVkSz84UqptfjrVLfZe1Peh_HBoGTSg1r9-9Vv-Zkx61DSVKUoanT_XXEd32qnZ8I4oFHddlZGJ-1kcYkMBE5PctSf3-HpceBACPYZGmarF6GaBKTlS1]--></g></svg>