<?xml version="1.0" encoding="UTF-8" standalone="no"?><svg xmlns="http://www.w3.org/2000/svg" xmlns:xlink="http://www.w3.org/1999/xlink" contentStyleType="text/css" height="796px" preserveAspectRatio="none" style="width:2491px;height:796px;background:#FFFFFF;" version="1.1" viewBox="0 0 2491 796" width="2491px" zoomAndPan="magnify"><defs/><g><path d="M82,102.6298 L82.2802,102.6298 L81.4476,112.5492 L82.2577,122.4685 L82.5329,132.3878 L81.0488,142.3072 L81.8964,152.2265 L81.4313,162.1459 L81.4887,172.0652 L81.9091,181.9845 L81.0782,191.9039 L82.7382,201.8232 L81.1596,211.7425 L81.7363,221.6619 L82.5759,231.5812 L81.8856,241.5006 L82.091,251.4199 L81.9574,261.3392 L82.238,271.2586 L82.3188,281.1779 L82.7809,291.0972 L82.8947,301.0166 L82.9057,310.9359 L82.3395,320.8552 L82.6181,330.7746 L82.9363,340.6939 L81.0384,350.6133 L82.9047,360.5326 L81.6047,370.4519 L82.7117,380.3713 L81.34,390.2906 L81.9087,400.2099 L82.9888,410.1293 L81.935,420.0486 L82.1404,429.968 L82.4515,439.8873 L82.555,449.8066 L81.9948,459.726 L82.383,469.6453 L81.2368,479.5646 L82.3792,489.484 L82.7309,499.4033 L82.5927,509.3226 L82.8174,519.242 L81.3559,529.1613 L81.1304,539.0807 L81.1715,549 L81.9215,558.9193 L81.738,568.8387 L82.9085,578.758 L81.7671,588.6773 L81.5426,598.5967 L82.3044,608.516 L81.1109,618.4354 L81.3078,628.3547 L82.8653,638.274 L82.5809,648.1934 L82.9793,658.1127 L81.5709,668.032 L82.4256,677.9514 L82.7872,687.8707 L82,697.7901 " fill="none" style="stroke:#181818;stroke-width:0.5;stroke-dasharray:5.0,5.0;"/><path d="M1428.5,102.6298 L1428.7802,102.6298 L1427.9476,112.5492 L1428.7577,122.4685 L1429.0329,132.3878 L1427.5488,142.3072 L1428.3964,152.2265 L1427.9313,162.1459 L1427.9887,172.0652 L1428.4091,181.9845 L1427.5782,191.9039 L1429.2382,201.8232 L1427.6596,211.7425 L1428.2363,221.6619 L1429.0759,231.5812 L1428.3856,241.5006 L1428.591,251.4199 L1428.4574,261.3392 L1428.738,271.2586 L1428.8188,281.1779 L1429.2809,291.0972 L1429.3947,301.0166 L1429.4057,310.9359 L1428.8395,320.8552 L1429.1181,330.7746 L1429.4363,340.6939 L1427.5384,350.6133 L1429.4047,360.5326 L1428.1047,370.4519 L1429.2117,380.3713 L1427.84,390.2906 L1428.4087,400.2099 L1429.4888,410.1293 L1428.435,420.0486 L1428.6404,429.968 L1428.9515,439.8873 L1429.055,449.8066 L1428.4948,459.726 L1428.883,469.6453 L1427.7368,479.5646 L1428.8792,489.484 L1429.2309,499.4033 L1429.0927,509.3226 L1429.3174,519.242 L1427.8559,529.1613 L1427.6304,539.0807 L1427.6715,549 L1428.4215,558.9193 L1428.238,568.8387 L1429.4085,578.758 L1428.2671,588.6773 L1428.0426,598.5967 L1428.8044,608.516 L1427.6109,618.4354 L1427.8078,628.3547 L1429.3653,638.274 L1429.0809,648.1934 L1429.4793,658.1127 L1428.0709,668.032 L1428.9256,677.9514 L1429.2872,687.8707 L1428.5,697.7901 " fill="none" style="stroke:#181818;stroke-width:0.5;stroke-dasharray:5.0,5.0;"/><path d="M2131,102.6298 L2131.2802,102.6298 L2130.4476,112.5492 L2131.2577,122.4685 L2131.5329,132.3878 L2130.0488,142.3072 L2130.8964,152.2265 L2130.4313,162.1459 L2130.4887,172.0652 L2130.9091,181.9845 L2130.0782,191.9039 L2131.7382,201.8232 L2130.1596,211.7425 L2130.7363,221.6619 L2131.5759,231.5812 L2130.8856,241.5006 L2131.091,251.4199 L2130.9574,261.3392 L2131.238,271.2586 L2131.3188,281.1779 L2131.7809,291.0972 L2131.8947,301.0166 L2131.9057,310.9359 L2131.3395,320.8552 L2131.6181,330.7746 L2131.9363,340.6939 L2130.0384,350.6133 L2131.9047,360.5326 L2130.6047,370.4519 L2131.7117,380.3713 L2130.34,390.2906 L2130.9087,400.2099 L2131.9888,410.1293 L2130.935,420.0486 L2131.1404,429.968 L2131.4515,439.8873 L2131.555,449.8066 L2130.9948,459.726 L2131.383,469.6453 L2130.2368,479.5646 L2131.3792,489.484 L2131.7309,499.4033 L2131.5927,509.3226 L2131.8174,519.242 L2130.3559,529.1613 L2130.1304,539.0807 L2130.1715,549 L2130.9215,558.9193 L2130.738,568.8387 L2131.9085,578.758 L2130.7671,588.6773 L2130.5426,598.5967 L2131.3044,608.516 L2130.1109,618.4354 L2130.3078,628.3547 L2131.8653,638.274 L2131.5809,648.1934 L2131.9793,658.1127 L2130.5709,668.032 L2131.4256,677.9514 L2131.7872,687.8707 L2131,697.7901 " fill="none" style="stroke:#181818;stroke-width:0.5;stroke-dasharray:5.0,5.0;"/><path d="M2395,102.6298 L2395.2802,102.6298 L2394.4476,112.5492 L2395.2577,122.4685 L2395.5329,132.3878 L2394.0488,142.3072 L2394.8964,152.2265 L2394.4313,162.1459 L2394.4887,172.0652 L2394.9091,181.9845 L2394.0782,191.9039 L2395.7382,201.8232 L2394.1596,211.7425 L2394.7363,221.6619 L2395.5759,231.5812 L2394.8856,241.5006 L2395.091,251.4199 L2394.9574,261.3392 L2395.238,271.2586 L2395.3188,281.1779 L2395.7809,291.0972 L2395.8947,301.0166 L2395.9057,310.9359 L2395.3395,320.8552 L2395.6181,330.7746 L2395.9363,340.6939 L2394.0384,350.6133 L2395.9047,360.5326 L2394.6047,370.4519 L2395.7117,380.3713 L2394.34,390.2906 L2394.9087,400.2099 L2395.9888,410.1293 L2394.935,420.0486 L2395.1404,429.968 L2395.4515,439.8873 L2395.555,449.8066 L2394.9948,459.726 L2395.383,469.6453 L2394.2368,479.5646 L2395.3792,489.484 L2395.7309,499.4033 L2395.5927,509.3226 L2395.8174,519.242 L2394.3559,529.1613 L2394.1304,539.0807 L2394.1715,549 L2394.9215,558.9193 L2394.738,568.8387 L2395.9085,578.758 L2394.7671,588.6773 L2394.5426,598.5967 L2395.3044,608.516 L2394.1109,618.4354 L2394.3078,628.3547 L2395.8653,638.274 L2395.5809,648.1934 L2395.9793,658.1127 L2394.5709,668.032 L2395.4256,677.9514 L2395.7872,687.8707 L2395,697.7901 " fill="none" style="stroke:#181818;stroke-width:0.5;stroke-dasharray:5.0,5.0;"/><text fill="#000000" font-family="Chalkduster" font-size="24" lengthAdjust="spacing" textLength="149" x="5" y="95.8409">Researcher</text><polygon fill="none" points="90.5442,18.9459,89.3715,20.5482,87.9845,22.8951,86.0008,24.4767,83.9163,25.3415,82.2542,25.4166,80.118,24.3349,78.1023,23.6283,76.5724,22.1936,75.7699,20.5511,75.2939,19.2433,74.8277,17.5351,74.0709,16.0651,74.6525,14.6298,75.162,13.0576,77.074,11.8142,78.4192,10.2008,80.0843,9.665,82.0637,9.2037,84.6021,9.4778,85.9924,10.1335,87.6089,10.4307,89.5743,12.4443,90.2595,14.5701,90.5571,16.0206,90.22,18.4108" style="stroke:#8B0000;stroke-width:4.0;"/><path d="M82.5,25 L82.6868,25 L82.1317,30.4 L82.6718,35.8 L82.8553,41.2 L81.8659,46.6 L82.5,52 M69.5,33 L69.5,32.9309 L74.7,32.6209 L79.9,32.6591 L85.1,32.9394 L90.3,32.3854 L95.5,33 M82.5,52 L82.8719,52.3223 L79.4766,54.6331 L77.1672,57.8849 L74.9901,61.2515 L72.0424,63.9501 L69.5,67 M82.5,52 L82.5458,52.0397 L85.0785,54.9814 L87.8199,58.1039 L90.4606,61.1392 L93.2934,64.341 L95.5,67 " fill="none" style="stroke:#8B0000;stroke-width:4.0;"/><text fill="#000000" font-family="Chalkduster" font-size="24" lengthAdjust="spacing" textLength="149" x="5" y="720.6309">Researcher</text><polygon fill="none" points="90.5442,741.3658,89.3715,742.9681,87.9845,745.3149,86.0008,746.8965,83.9163,747.7614,82.2542,747.8365,80.118,746.7548,78.1023,746.0482,76.5724,744.6135,75.7699,742.971,75.2939,741.6632,74.8277,739.9549,74.0709,738.485,74.6525,737.0497,75.162,735.4775,77.074,734.234,78.4192,732.6207,80.0843,732.0849,82.0637,731.6236,84.6021,731.8977,85.9924,732.5534,87.6089,732.8506,89.5743,734.8642,90.2595,736.99,90.5571,738.4405,90.22,740.8307" style="stroke:#8B0000;stroke-width:4.0;"/><path d="M82.5,747.4199 L82.6868,747.4199 L82.1317,752.8199 L82.6718,758.2199 L82.8553,763.6199 L81.8659,769.0199 L82.5,774.4199 M69.5,755.4199 L69.5,755.3508 L74.7,755.0408 L79.9,755.079 L85.1,755.3593 L90.3,754.8053 L95.5,755.4199 M82.5,774.4199 L82.8719,774.7422 L79.4766,777.053 L77.1672,780.3048 L74.9901,783.6713 L72.0424,786.3699 L69.5,789.4199 M82.5,774.4199 L82.5458,774.4596 L85.0785,777.4013 L87.8199,780.5238 L90.4606,783.5591 L93.2934,786.7608 L95.5,789.4199 " fill="none" style="stroke:#8B0000;stroke-width:4.0;"/><polygon fill="#E2E2F0" points="1358,49.3425,1358,49.5527,1368.0714,48.9282,1378.1429,49.5358,1388.2143,49.7422,1398.2857,48.6291,1408.3571,49.2648,1418.4286,48.916,1428.5,48.959,1438.5714,49.2744,1448.6429,48.6512,1458.7143,49.8962,1468.7857,48.7123,1478.8571,49.1448,1488.9286,49.7745,1499,49.3425,1498.9891,49.3161,1499.3623,49.51,1499.703,49.6256,1500.0834,49.8369,1500.4447,50.002,1500.7678,50.0748,1500.9481,50.1495,1501.1209,50.5139,1501.2698,50.8685,1501.2855,51.1679,1501.4963,51.5481,1501.5,51.8425,1502.2022,51.8425,1500.7788,61.3,1502.1785,70.7575,1501.2035,80.2149,1502.0338,89.6724,1501.5,99.1298,1501.3476,99.0667,1501.3325,99.4746,1501.4355,99.9315,1501.0457,100.1843,1500.9466,100.5575,1500.7678,100.8976,1500.811,101.0019,1500.4673,101.1722,1500.0602,101.1893,1499.7437,101.4254,1499.2805,101.3071,1499,101.6298,1499,101.9142,1488.9286,102.178,1478.8571,102.0744,1468.7857,102.2429,1458.7143,101.1468,1448.6429,100.9776,1438.5714,101.0084,1428.5,101.571,1418.4286,101.4333,1408.3571,102.3112,1398.2857,101.4552,1388.2143,101.2868,1378.1429,101.8581,1368.0714,100.963,1358,101.6298,1357.9338,101.47,1357.7292,101.6832,1357.3485,101.4711,1357.033,101.4167,1356.5447,100.9449,1356.2322,100.8976,1356.3305,100.9383,1356.2676,100.6194,1355.7939,100.1302,1355.7634,99.8247,1355.6852,99.4995,1355.5,99.1298,1356.1518,99.1298,1355.4958,89.6724,1355.9626,80.2149,1354.9462,70.7575,1354.8227,61.3,1355.5,51.8425,1355.6551,51.9068,1355.4257,51.3975,1355.9496,51.2004,1356.003,50.8082,1356.0033,50.3942,1356.2322,50.0748,1356.1871,49.9658,1356.6443,50.0696,1356.9012,49.6897,1357.3684,49.8177,1357.5759,49.3188,1358,49.3425" style="stroke:#181818;stroke-width:0.5;"/><text fill="#000000" font-family="Chalkduster" font-size="30" lengthAdjust="spacing" textLength="132" x="1362.5" y="86.1436">Browser</text><polygon fill="#E2E2F0" points="1358,696.7901,1358,697.0002,1368.0714,696.3757,1378.1429,696.9833,1388.2143,697.1897,1398.2857,696.0767,1408.3571,696.7123,1418.4286,696.3636,1428.5,696.4066,1438.5714,696.7219,1448.6429,696.0987,1458.7143,697.3437,1468.7857,696.1598,1478.8571,696.5923,1488.9286,697.222,1499,696.7901,1498.9891,696.7636,1499.3623,696.9575,1499.703,697.0731,1500.0834,697.2844,1500.4447,697.4495,1500.7678,697.5223,1500.9481,697.597,1501.1209,697.9614,1501.2698,698.316,1501.2855,698.6154,1501.4963,698.9956,1501.5,699.2901,1502.2022,699.2901,1500.7788,708.7475,1502.1785,718.205,1501.2035,727.6624,1502.0338,737.1199,1501.5,746.5773,1501.3476,746.5142,1501.3325,746.9222,1501.4355,747.379,1501.0457,747.6318,1500.9466,748.005,1500.7678,748.3451,1500.811,748.4494,1500.4673,748.6197,1500.0602,748.6368,1499.7437,748.8729,1499.2805,748.7546,1499,749.0773,1499,749.3617,1488.9286,749.6255,1478.8571,749.5219,1468.7857,749.6904,1458.7143,748.5943,1448.6429,748.4252,1438.5714,748.4559,1428.5,749.0185,1418.4286,748.8808,1408.3571,749.7588,1398.2857,748.9027,1388.2143,748.7343,1378.1429,749.3056,1368.0714,748.4105,1358,749.0773,1357.9338,748.9175,1357.7292,749.1307,1357.3485,748.9186,1357.033,748.8642,1356.5447,748.3925,1356.2322,748.3451,1356.3305,748.3858,1356.2676,748.0669,1355.7939,747.5777,1355.7634,747.2722,1355.6852,746.947,1355.5,746.5773,1356.1518,746.5773,1355.4958,737.1199,1355.9626,727.6624,1354.9462,718.205,1354.8227,708.7475,1355.5,699.2901,1355.6551,699.3543,1355.4257,698.845,1355.9496,698.6479,1356.003,698.2557,1356.0033,697.8417,1356.2322,697.5223,1356.1871,697.4133,1356.6443,697.5171,1356.9012,697.1372,1357.3684,697.2652,1357.5759,696.7663,1358,696.7901" style="stroke:#181818;stroke-width:0.5;"/><text fill="#000000" font-family="Chalkduster" font-size="30" lengthAdjust="spacing" textLength="132" x="1362.5" y="733.5912">Browser</text><polygon fill="#E2E2F0" points="1970.5,49.3425,1970.5,49.5527,1980.5625,48.9282,1990.625,49.5358,2000.6875,49.7422,2010.75,48.6291,2020.8125,49.2648,2030.875,48.916,2040.9375,48.959,2051,49.2744,2061.0625,48.6512,2071.125,49.8962,2081.1875,48.7123,2091.25,49.1448,2101.3125,49.7745,2111.375,49.2568,2121.4375,49.4108,2131.5,49.3106,2141.5625,49.5211,2151.625,49.5817,2161.6875,49.9282,2171.75,50.0136,2181.8125,50.0218,2191.875,49.5972,2201.9375,49.8061,2212,50.0448,2222.0625,48.6214,2232.125,50.0211,2242.1875,49.046,2252.25,49.8764,2262.3125,48.8475,2272.375,49.274,2282.4375,50.0841,2292.5,49.3425,2292.4938,49.3275,2292.867,49.5214,2293.2503,49.7397,2293.6138,49.9101,2293.9137,49.9271,2294.2678,50.0748,2294.3562,50.1114,2294.2379,50.3553,2294.6482,50.8182,2294.8759,51.2054,2294.9905,51.5457,2295,51.8425,2295.613,51.8425,2294.5169,61.3,2294.3478,70.7575,2294.3786,80.2149,2294.9411,89.6724,2295,99.1298,2294.9395,99.1048,2295.0634,99.5703,2294.6533,99.8147,2294.455,100.1467,2294.4845,100.5732,2294.2678,100.8976,2294.1827,100.6922,2293.848,100.8842,2293.6434,101.3903,2293.2627,101.4711,2292.9472,101.7096,2292.5,101.6298,2292.5,101.308,2282.4375,101.949,2272.375,102.2203,2262.3125,101.1574,2252.25,101.534,2242.1875,101.7558,2232.125,102.2816,2222.0625,101.6256,2212,102.0924,2201.9375,101.076,2191.875,100.9526,2181.8125,102.1334,2171.75,100.9129,2161.6875,102.1388,2151.625,101.8365,2141.5625,101.3619,2131.5,101.2761,2121.4375,102.0886,2111.375,101.3305,2101.3125,102.2217,2091.25,101.0771,2081.1875,102.2473,2071.125,102.1141,2061.0625,101.8748,2051,101.6771,2040.9375,102.3564,2030.875,102.2434,2020.8125,101.7991,2010.75,101.898,2000.6875,101.4996,1990.625,102.3463,1980.5625,101.7847,1970.5,101.6298,1970.522,101.683,1970.0688,101.296,1969.7412,101.2121,1969.507,101.3539,1969.1406,101.1764,1968.7322,100.8976,1968.719,100.8921,1968.4866,100.503,1968.3719,100.1626,1968.0816,99.7494,1968.2742,99.5363,1968,99.1298,1968.7396,99.1298,1968.5264,89.6724,1968.6949,80.2149,1967.8633,70.7575,1968.0872,61.3,1968,51.8425,1967.8806,51.7931,1968.2339,51.5252,1968.3689,51.1669,1968.6095,50.8523,1968.5151,50.399,1968.7322,50.0748,1968.7151,50.0334,1969.1424,50.0649,1969.5117,49.9566,1969.7275,49.4776,1970.1217,49.4293,1970.5,49.3425" style="stroke:#181818;stroke-width:0.5;"/><text fill="#000000" font-family="Chalkduster" font-size="30" lengthAdjust="spacing" textLength="313" x="1975" y="86.1436">ATAP/LDaCA Repo</text><polygon fill="#E2E2F0" points="1970.5,696.7901,1970.5,697.0002,1980.5625,696.3757,1990.625,696.9833,2000.6875,697.1897,2010.75,696.0767,2020.8125,696.7123,2030.875,696.3636,2040.9375,696.4066,2051,696.7219,2061.0625,696.0987,2071.125,697.3437,2081.1875,696.1598,2091.25,696.5923,2101.3125,697.222,2111.375,696.7043,2121.4375,696.8583,2131.5,696.7581,2141.5625,696.9686,2151.625,697.0292,2161.6875,697.3757,2171.75,697.4611,2181.8125,697.4693,2191.875,697.0447,2201.9375,697.2536,2212,697.4923,2222.0625,696.0689,2232.125,697.4686,2242.1875,696.4935,2252.25,697.3239,2262.3125,696.295,2272.375,696.7216,2282.4375,697.5317,2292.5,696.7901,2292.4938,696.775,2292.867,696.9689,2293.2503,697.1872,2293.6138,697.3576,2293.9137,697.3746,2294.2678,697.5223,2294.3562,697.5589,2294.2379,697.8028,2294.6482,698.2657,2294.8759,698.6529,2294.9905,698.9932,2295,699.2901,2295.613,699.2901,2294.5169,708.7475,2294.3478,718.205,2294.3786,727.6624,2294.9411,737.1199,2295,746.5773,2294.9395,746.5523,2295.0634,747.0178,2294.6533,747.2622,2294.455,747.5942,2294.4845,748.0207,2294.2678,748.3451,2294.1827,748.1398,2293.848,748.3317,2293.6434,748.8379,2293.2627,748.9186,2292.9472,749.1571,2292.5,749.0773,2292.5,748.7555,2282.4375,749.3965,2272.375,749.6678,2262.3125,748.6049,2252.25,748.9815,2242.1875,749.2033,2232.125,749.7291,2222.0625,749.0732,2212,749.5399,2201.9375,748.5236,2191.875,748.4001,2181.8125,749.581,2171.75,748.3604,2161.6875,749.5863,2151.625,749.284,2141.5625,748.8094,2131.5,748.7236,2121.4375,749.5361,2111.375,748.778,2101.3125,749.6692,2091.25,748.5246,2081.1875,749.6948,2071.125,749.5616,2061.0625,749.3223,2051,749.1246,2040.9375,749.804,2030.875,749.6909,2020.8125,749.2466,2010.75,749.3455,2000.6875,748.9471,1990.625,749.7938,1980.5625,749.2322,1970.5,749.0773,1970.522,749.1305,1970.0688,748.7435,1969.7412,748.6597,1969.507,748.8015,1969.1406,748.6239,1968.7322,748.3451,1968.719,748.3396,1968.4866,747.9505,1968.3719,747.6101,1968.0816,747.1969,1968.2742,746.9838,1968,746.5773,1968.7396,746.5773,1968.5264,737.1199,1968.6949,727.6624,1967.8633,718.205,1968.0872,708.7475,1968,699.2901,1967.8806,699.2406,1968.2339,698.9727,1968.3689,698.6144,1968.6095,698.2999,1968.5151,697.8465,1968.7322,697.5223,1968.7151,697.4809,1969.1424,697.5124,1969.5117,697.4041,1969.7275,696.9251,1970.1217,696.8768,1970.5,696.7901" style="stroke:#181818;stroke-width:0.5;"/><text fill="#000000" font-family="Chalkduster" font-size="30" lengthAdjust="spacing" textLength="313" x="1975" y="733.5912">ATAP/LDaCA Repo</text><polygon fill="#E2E2F0" points="2307.5,49.3425,2307.5,49.5527,2317.2222,48.9282,2326.9444,49.5358,2336.6667,49.7422,2346.3889,48.6291,2356.1111,49.2648,2365.8333,48.916,2375.5556,48.959,2385.2778,49.2744,2395,48.6512,2404.7222,49.8962,2414.4444,48.7123,2424.1667,49.1448,2433.8889,49.7745,2443.6111,49.2568,2453.3333,49.4108,2463.0556,49.3106,2472.7778,49.5211,2482.5,49.3425,2482.5305,49.4162,2482.9283,49.6694,2483.2927,49.8421,2483.6473,49.9911,2483.9467,50.0067,2484.2678,50.0748,2484.4105,50.1339,2484.6305,50.5179,2484.3386,50.6899,2484.9161,51.222,2484.7622,51.4512,2485,51.8425,2485.5338,51.8425,2484.505,61.3,2484.9315,70.7575,2485.7416,80.2149,2484.9513,89.6724,2485,99.1298,2485.0324,99.1433,2484.9578,99.5266,2484.8353,99.89,2484.5595,100.19,2484.5027,100.5807,2484.2678,100.8976,2484.1947,100.7213,2483.9505,101.1316,2483.6306,101.3593,2483.2638,101.4738,2482.9318,101.6722,2482.5,101.6298,2482.5,101.1468,2472.7778,100.9776,2463.0556,101.0084,2453.3333,101.571,2443.6111,101.4333,2433.8889,102.3112,2424.1667,101.4552,2414.4444,101.2868,2404.7222,101.8581,2395,100.963,2385.2778,101.1107,2375.5556,102.2788,2365.8333,102.0655,2356.1111,102.3643,2346.3889,101.308,2336.6667,101.949,2326.9444,102.2203,2317.2222,101.1574,2307.5,101.6298,2307.4878,101.6003,2307.1625,101.5222,2306.876,101.5377,2306.4388,101.1892,2306.1448,101.1865,2305.7322,100.8976,2305.5617,100.827,2305.3772,100.4577,2305.5944,100.2547,2305.0721,99.7455,2305.3032,99.5483,2305,99.1298,2305.2066,99.1298,2304.7321,89.6724,2304.6462,80.2149,2305.4588,70.7575,2304.7007,61.3,2305,51.8425,2305.1823,51.918,2304.9762,51.4185,2305.483,51.2142,2305.5885,50.8437,2305.6612,50.4596,2305.7322,50.0748,2305.7383,50.0893,2306.1785,50.1521,2306.5176,49.9708,2306.8145,49.6876,2307.1807,49.5716,2307.5,49.3425" style="stroke:#181818;stroke-width:0.5;"/><text fill="#000000" font-family="Chalkduster" font-size="30" lengthAdjust="spacing" textLength="166" x="2312" y="86.1436">binderhub</text><polygon fill="#E2E2F0" points="2307.5,696.7901,2307.5,697.0002,2317.2222,696.3757,2326.9444,696.9833,2336.6667,697.1897,2346.3889,696.0767,2356.1111,696.7123,2365.8333,696.3636,2375.5556,696.4066,2385.2778,696.7219,2395,696.0987,2404.7222,697.3437,2414.4444,696.1598,2424.1667,696.5923,2433.8889,697.222,2443.6111,696.7043,2453.3333,696.8583,2463.0556,696.7581,2472.7778,696.9686,2482.5,696.7901,2482.5305,696.8637,2482.9283,697.1169,2483.2927,697.2896,2483.6473,697.4386,2483.9467,697.4543,2484.2678,697.5223,2484.4105,697.5814,2484.6305,697.9654,2484.3386,698.1374,2484.9161,698.6695,2484.7622,698.8987,2485,699.2901,2485.5338,699.2901,2484.505,708.7475,2484.9315,718.205,2485.7416,727.6624,2484.9513,737.1199,2485,746.5773,2485.0324,746.5908,2484.9578,746.9741,2484.8353,747.3375,2484.5595,747.6375,2484.5027,748.0282,2484.2678,748.3451,2484.1947,748.1688,2483.9505,748.5791,2483.6306,748.8068,2483.2638,748.9213,2482.9318,749.1197,2482.5,749.0773,2482.5,748.5943,2472.7778,748.4252,2463.0556,748.4559,2453.3333,749.0185,2443.6111,748.8808,2433.8889,749.7588,2424.1667,748.9027,2414.4444,748.7343,2404.7222,749.3056,2395,748.4105,2385.2778,748.5582,2375.5556,749.7263,2365.8333,749.513,2356.1111,749.8118,2346.3889,748.7555,2336.6667,749.3965,2326.9444,749.6678,2317.2222,748.6049,2307.5,749.0773,2307.4878,749.0478,2307.1625,748.9697,2306.876,748.9852,2306.4388,748.6367,2306.1448,748.634,2305.7322,748.3451,2305.5617,748.2745,2305.3772,747.9052,2305.5944,747.7022,2305.0721,747.193,2305.3032,746.9958,2305,746.5773,2305.2066,746.5773,2304.7321,737.1199,2304.6462,727.6624,2305.4588,718.205,2304.7007,708.7475,2305,699.2901,2305.1823,699.3655,2304.9762,698.866,2305.483,698.6617,2305.5885,698.2912,2305.6612,697.9071,2305.7322,697.5223,2305.7383,697.5368,2306.1785,697.5996,2306.5176,697.4183,2306.8145,697.1351,2307.1807,697.0191,2307.5,696.7901" style="stroke:#181818;stroke-width:0.5;"/><text fill="#000000" font-family="Chalkduster" font-size="30" lengthAdjust="spacing" textLength="166" x="2312" y="733.5912">binderhub</text><polygon fill="#8B0000" points="1416.5,152.9171,1416.526,152.9822,1418.4487,153.5889,1420.5239,154.5769,1422.5495,155.4408,1424.4117,155.8963,1426.5,156.9171,1426.4904,156.8931,1424.4472,157.5851,1422.4525,158.3984,1420.4916,159.296,1418.4144,159.9032,1416.5,160.9171,1416.6305,161.0476,1417.1514,159.9686,1418.0534,159.2705,1419.0018,158.6189,1419.6798,157.6969,1420.5,156.9171,1420.5161,156.9332,1419.6925,156.1096,1418.9421,155.3592,1418.1564,154.5735,1417.438,153.8552,1416.5,152.9171" style="stroke:#8B0000;stroke-width:1.0;"/><path d="M82.5,156.9171 L82.5,157.1974 L92.5,156.3647 L102.5,157.1748 L112.5,157.45 L122.5,155.9659 L132.5,156.8135 L142.5,156.3485 L152.5,156.4058 L162.5,156.8263 L172.5,155.9953 L182.5,157.6553 L192.5,156.0768 L202.5,156.6534 L212.5,157.4931 L222.5,156.8028 L232.5,157.0081 L242.5,156.8745 L252.5,157.1552 L262.5,157.236 L272.5,157.698 L282.5,157.8119 L292.5,157.8228 L302.5,157.2566 L312.5,157.5352 L322.5,157.8534 L332.5,155.9555 L342.5,157.8218 L352.5,156.5218 L362.5,157.6289 L372.5,156.2571 L382.5,156.8258 L392.5,157.9059 L402.5,156.8521 L412.5,157.0575 L422.5,157.3686 L432.5,157.4721 L442.5,156.9119 L452.5,157.3001 L462.5,156.1539 L472.5,157.2963 L482.5,157.6481 L492.5,157.5098 L502.5,157.7345 L512.5,156.273 L522.5,156.0475 L532.5,156.0886 L542.5,156.8386 L552.5,156.6551 L562.5,157.8257 L572.5,156.6842 L582.5,156.4597 L592.5,157.2215 L602.5,156.028 L612.5,156.225 L622.5,157.7824 L632.5,157.498 L642.5,157.8964 L652.5,156.4881 L662.5,157.3427 L672.5,157.7044 L682.5,156.2873 L692.5,156.7893 L702.5,157.0851 L712.5,157.7861 L722.5,156.9115 L732.5,157.5339 L742.5,156.1787 L752.5,156.0141 L762.5,157.5886 L772.5,155.9612 L782.5,157.5957 L792.5,157.1926 L802.5,156.5599 L812.5,156.4454 L822.5,157.5288 L832.5,156.518 L842.5,157.7063 L852.5,156.1801 L862.5,157.7404 L872.5,157.5629 L882.5,157.2438 L892.5,156.9801 L902.5,157.8859 L912.5,157.7352 L922.5,157.1428 L932.5,157.2747 L942.5,156.7434 L952.5,157.8724 L962.5,157.1236 L972.5,157.1472 L982.5,156.106 L992.5,156.3768 L1002.5,157.6248 L1012.5,157.4901 L1022.5,156.8599 L1032.5,156.4876 L1042.5,156.6252 L1052.5,156.0022 L1062.5,157.4701 L1072.5,157.9032 L1082.5,157.619 L1092.5,157.8437 L1102.5,156.7348 L1112.5,157.0334 L1122.5,156.4003 L1132.5,157.2958 L1142.5,157.2461 L1152.5,157.6536 L1162.5,156.6109 L1172.5,156.7379 L1182.5,157.5084 L1192.5,157.6736 L1202.5,156.2337 L1212.5,156.6586 L1222.5,157.1161 L1232.5,156.1027 L1242.5,157.3883 L1252.5,157.2611 L1262.5,156.7828 L1272.5,157.1068 L1282.5,157.8887 L1292.5,156.5 L1302.5,157.3371 L1312.5,157.298 L1322.5,157.0715 L1332.5,157.105 L1342.5,157.0684 L1352.5,156.0849 L1362.5,156.3827 L1372.5,156.3017 L1382.5,157.0022 L1392.5,157.0346 L1402.5,157.1328 L1412.5,156.5292 L1422.5,156.9171 " fill="none" style="stroke:#8B0000;stroke-width:4.0;"/><text fill="#000000" font-family="Chalkduster" font-size="30" lengthAdjust="spacing" textLength="1322" x="89.5" y="146.4309">I want to learn topic modeling. Do we have notebooks for topic modeling?</text><polygon fill="#8B0000" points="1439.5,205.2044,1439.526,205.2695,1437.4487,205.8762,1435.5239,206.8642,1433.5495,207.7281,1431.4117,208.1836,1429.5,209.2044,1429.4904,209.1804,1431.4472,209.8724,1433.4525,210.6857,1435.4916,211.5833,1437.4144,212.1904,1439.5,213.2044,1439.6305,213.3349,1438.5514,212.2559,1437.8534,211.5578,1437.2018,210.9062,1436.2798,209.9842,1435.5,209.2044,1435.5161,209.2205,1436.2925,208.3969,1437.1421,207.6465,1437.9564,206.8608,1438.838,206.1425,1439.5,205.2044" style="stroke:#8B0000;stroke-width:1.0;"/><path d="M1433.5,209.2044 L1433.5,209.4847 L1443.4571,208.652 L1453.4143,209.4621 L1463.3714,209.7373 L1473.3286,208.2532 L1483.2857,209.1008 L1493.2429,208.6358 L1503.2,208.6931 L1513.1571,209.1135 L1523.1143,208.2826 L1533.0714,209.9426 L1543.0286,208.364 L1552.9857,208.9407 L1562.9429,209.7803 L1572.9,209.09 L1582.8571,209.2954 L1592.8143,209.1618 L1602.7714,209.4425 L1612.7286,209.5233 L1622.6857,209.9853 L1632.6429,210.0992 L1642.6,210.1101 L1652.5571,209.5439 L1662.5143,209.8225 L1672.4714,210.1407 L1682.4286,208.2428 L1692.3857,210.1091 L1702.3429,208.8091 L1712.3,209.9162 L1722.2571,208.5444 L1732.2143,209.1131 L1742.1714,210.1932 L1752.1286,209.1394 L1762.0857,209.3448 L1772.0429,209.6559 L1782,209.7594 L1791.9571,209.1992 L1801.9143,209.5874 L1811.8714,208.4412 L1821.8286,209.5836 L1831.7857,209.9353 L1841.7429,209.7971 L1851.7,210.0218 L1861.6571,208.5603 L1871.6143,208.3348 L1881.5714,208.3759 L1891.5286,209.1259 L1901.4857,208.9424 L1911.4429,210.113 L1921.4,208.9715 L1931.3571,208.747 L1941.3143,209.5088 L1951.2714,208.3153 L1961.2286,208.5123 L1971.1857,210.0697 L1981.1429,209.7853 L1991.1,210.1837 L2001.0571,208.7754 L2011.0143,209.63 L2020.9714,209.9916 L2030.9286,208.5745 L2040.8857,209.0766 L2050.8429,209.3724 L2060.8,210.0734 L2070.7571,209.1988 L2080.7143,209.8212 L2090.6714,208.466 L2100.6286,208.3014 L2110.5857,209.8759 L2120.5429,208.2485 L2130.5,209.2044 " fill="none" style="stroke:#8B0000;stroke-width:4.0;"/><text fill="#000000" font-family="Chalkduster" font-size="30" lengthAdjust="spacing" textLength="195" x="1445.5" y="198.7182">Here's three</text><polygon fill="#8B0000" points="1416.5,257.4917,1416.526,257.5568,1418.4487,258.1635,1420.5239,259.1515,1422.5495,260.0154,1424.4117,260.4709,1426.5,261.4917,1426.4904,261.4677,1424.4472,262.1597,1422.4525,262.973,1420.4916,263.8706,1418.4144,264.4777,1416.5,265.4917,1416.6305,265.6222,1417.1514,264.5432,1418.0534,263.8451,1419.0018,263.1935,1419.6798,262.2715,1420.5,261.4917,1420.5161,261.5078,1419.6925,260.6842,1418.9421,259.9338,1418.1564,259.1481,1417.438,258.4298,1416.5,257.4917" style="stroke:#8B0000;stroke-width:1.0;"/><path d="M82.5,261.4917 L82.5,261.772 L92.5,260.9393 L102.5,261.7494 L112.5,262.0246 L122.5,260.5405 L132.5,261.3881 L142.5,260.9231 L152.5,260.9804 L162.5,261.4008 L172.5,260.5699 L182.5,262.2299 L192.5,260.6513 L202.5,261.228 L212.5,262.0676 L222.5,261.3773 L232.5,261.5827 L242.5,261.4491 L252.5,261.7297 L262.5,261.8106 L272.5,262.2726 L282.5,262.3864 L292.5,262.3974 L302.5,261.8312 L312.5,262.1098 L322.5,262.428 L332.5,260.5301 L342.5,262.3964 L352.5,261.0964 L362.5,262.2035 L372.5,260.8317 L382.5,261.4004 L392.5,262.4805 L402.5,261.4267 L412.5,261.6321 L422.5,261.9432 L432.5,262.0467 L442.5,261.4865 L452.5,261.8747 L462.5,260.7285 L472.5,261.8709 L482.5,262.2226 L492.5,262.0844 L502.5,262.3091 L512.5,260.8476 L522.5,260.6221 L532.5,260.6632 L542.5,261.4132 L552.5,261.2297 L562.5,262.4003 L572.5,261.2588 L582.5,261.0343 L592.5,261.7961 L602.5,260.6026 L612.5,260.7995 L622.5,262.357 L632.5,262.0726 L642.5,262.471 L652.5,261.0627 L662.5,261.9173 L672.5,262.2789 L682.5,260.8618 L692.5,261.3639 L702.5,261.6597 L712.5,262.3607 L722.5,261.4861 L732.5,262.1085 L742.5,260.7533 L752.5,260.5887 L762.5,262.1632 L772.5,260.5358 L782.5,262.1703 L792.5,261.7672 L802.5,261.1345 L812.5,261.02 L822.5,262.1034 L832.5,261.0926 L842.5,262.2809 L852.5,260.7547 L862.5,262.3149 L872.5,262.1374 L882.5,261.8183 L892.5,261.5547 L902.5,262.4605 L912.5,262.3098 L922.5,261.7174 L932.5,261.8493 L942.5,261.318 L952.5,262.447 L962.5,261.6982 L972.5,261.7218 L982.5,260.6806 L992.5,260.9514 L1002.5,262.1994 L1012.5,262.0647 L1022.5,261.4345 L1032.5,261.0622 L1042.5,261.1998 L1052.5,260.5768 L1062.5,262.0447 L1072.5,262.4778 L1082.5,262.1936 L1092.5,262.4183 L1102.5,261.3094 L1112.5,261.608 L1122.5,260.9749 L1132.5,261.8704 L1142.5,261.8207 L1152.5,262.2282 L1162.5,261.1855 L1172.5,261.3125 L1182.5,262.083 L1192.5,262.2482 L1202.5,260.8083 L1212.5,261.2332 L1222.5,261.6907 L1232.5,260.6773 L1242.5,261.9629 L1252.5,261.8357 L1262.5,261.3574 L1272.5,261.6814 L1282.5,262.4633 L1292.5,261.0745 L1302.5,261.9117 L1312.5,261.8726 L1322.5,261.6461 L1332.5,261.6796 L1342.5,261.643 L1352.5,260.6595 L1362.5,260.9573 L1372.5,260.8763 L1382.5,261.5768 L1392.5,261.6092 L1402.5,261.7074 L1412.5,261.1037 L1422.5,261.4917 " fill="none" style="stroke:#8B0000;stroke-width:4.0;"/><text fill="#000000" font-family="Chalkduster" font-size="30" lengthAdjust="spacing" textLength="381" x="89.5" y="251.0055">What data do I need?</text><polygon fill="#8B0000" points="2119.5,309.779,2119.526,309.8441,2121.4487,310.4508,2123.5239,311.4388,2125.5495,312.3027,2127.4117,312.7582,2129.5,313.779,2129.4904,313.755,2127.4472,314.447,2125.4525,315.2603,2123.4916,316.1579,2121.4144,316.765,2119.5,317.779,2119.6305,317.9095,2120.1514,316.8304,2121.0534,316.1324,2122.0018,315.4808,2122.6798,314.5588,2123.5,313.779,2123.5161,313.7951,2122.6925,312.9715,2121.9421,312.2211,2121.1564,311.4354,2120.438,310.7171,2119.5,309.779" style="stroke:#8B0000;stroke-width:1.0;"/><path d="M1428.5,313.779 L1428.5,314.0592 L1438.4571,313.2266 L1448.4143,314.0367 L1458.3714,314.3119 L1468.3286,312.8278 L1478.2857,313.6754 L1488.2429,313.2103 L1498.2,313.2677 L1508.1571,313.6881 L1518.1143,312.8572 L1528.0714,314.5172 L1538.0286,312.9386 L1547.9857,313.5153 L1557.9429,314.3549 L1567.9,313.6646 L1577.8571,313.87 L1587.8143,313.7364 L1597.7714,314.017 L1607.7286,314.0978 L1617.6857,314.5599 L1627.6429,314.6737 L1637.6,314.6847 L1647.5571,314.1185 L1657.5143,314.3971 L1667.4714,314.7153 L1677.4286,312.8174 L1687.3857,314.6837 L1697.3429,313.3837 L1707.3,314.4908 L1717.2571,313.119 L1727.2143,313.6877 L1737.1714,314.7678 L1747.1286,313.714 L1757.0857,313.9194 L1767.0429,314.2305 L1777,314.334 L1786.9571,313.7738 L1796.9143,314.162 L1806.8714,313.0158 L1816.8286,314.1582 L1826.7857,314.5099 L1836.7429,314.3717 L1846.7,314.5964 L1856.6571,313.1349 L1866.6143,312.9094 L1876.5714,312.9505 L1886.5286,313.7005 L1896.4857,313.517 L1906.4429,314.6876 L1916.4,313.5461 L1926.3571,313.3216 L1936.3143,314.0834 L1946.2714,312.8899 L1956.2286,313.0868 L1966.1857,314.6443 L1976.1429,314.3599 L1986.1,314.7583 L1996.0571,313.3499 L2006.0143,314.2046 L2015.9714,314.5662 L2025.9286,313.1491 L2035.8857,313.6512 L2045.8429,313.947 L2055.8,314.648 L2065.7571,313.7734 L2075.7143,314.3958 L2085.6714,313.0406 L2095.6286,312.876 L2105.5857,314.4505 L2115.5429,312.8231 L2125.5,313.779 " fill="none" style="stroke:#8B0000;stroke-width:4.0;"/><text fill="#000000" font-family="Chalkduster" font-size="30" lengthAdjust="spacing" textLength="679" x="1435.5" y="303.2928">Does a notebook have an 'input' value?</text><polygon fill="#8B0000" points="93.5,362.0663,93.526,362.1313,91.4487,362.7381,89.5239,363.7261,87.5495,364.59,85.4117,365.0455,83.5,366.0663,83.4904,366.0422,85.4472,366.7343,87.4525,367.5476,89.4916,368.4452,91.4144,369.0523,93.5,370.0663,93.6305,370.1968,92.5514,369.1177,91.8534,368.4197,91.2018,367.7681,90.2798,366.8461,89.5,366.0663,89.5161,366.0824,90.2925,365.2588,91.1421,364.5084,91.9564,363.7227,92.838,363.0043,93.5,362.0663" style="stroke:#8B0000;stroke-width:1.0;"/><path d="M87.5,366.0663 L87.5,366.3465 L97.5147,365.5139 L107.5294,366.324 L117.5441,366.5992 L127.5588,365.1151 L137.5735,365.9627 L147.5882,365.4976 L157.6029,365.555 L167.6176,365.9754 L177.6324,365.1445 L187.6471,366.8045 L197.6618,365.2259 L207.6765,365.8026 L217.6912,366.6422 L227.7059,365.9519 L237.7206,366.1573 L247.7353,366.0237 L257.75,366.3043 L267.7647,366.3851 L277.7794,366.8472 L287.7941,366.961 L297.8088,366.972 L307.8235,366.4058 L317.8382,366.6844 L327.8529,367.0026 L337.8676,365.1047 L347.8824,366.971 L357.8971,365.671 L367.9118,366.778 L377.9265,365.4063 L387.9412,365.975 L397.9559,367.0551 L407.9706,366.0013 L417.9853,366.2067 L428,366.5178 L438.0147,366.6213 L448.0294,366.0611 L458.0441,366.4492 L468.0588,365.3031 L478.0735,366.4455 L488.0882,366.7972 L498.1029,366.659 L508.1176,366.8837 L518.1324,365.4222 L528.1471,365.1967 L538.1618,365.2378 L548.1765,365.9878 L558.1912,365.8043 L568.2059,366.9748 L578.2206,365.8334 L588.2353,365.6089 L598.25,366.3707 L608.2647,365.1772 L618.2794,365.3741 L628.2941,366.9316 L638.3088,366.6472 L648.3235,367.0456 L658.3382,365.6372 L668.3529,366.4919 L678.3676,366.8535 L688.3824,365.4364 L698.3971,365.9385 L708.4118,366.2343 L718.4265,366.9353 L728.4412,366.0607 L738.4559,366.6831 L748.4706,365.3279 L758.4853,365.1633 L768.5,366.7378 L778.5147,365.1104 L788.5294,366.7449 L798.5441,366.3418 L808.5588,365.7091 L818.5735,365.5946 L828.5882,366.678 L838.6029,365.6672 L848.6176,366.8554 L858.6324,365.3293 L868.6471,366.8895 L878.6618,366.712 L888.6765,366.3929 L898.6912,366.1293 L908.7059,367.0351 L918.7206,366.8844 L928.7353,366.292 L938.75,366.4239 L948.7647,365.8926 L958.7794,367.0216 L968.7941,366.2728 L978.8088,366.2964 L988.8235,365.2552 L998.8382,365.526 L1008.8529,366.774 L1018.8676,366.6393 L1028.8824,366.0091 L1038.8971,365.6367 L1048.9118,365.7744 L1058.9265,365.1514 L1068.9412,366.6193 L1078.9559,367.0524 L1088.9706,366.7682 L1098.9853,366.9929 L1109,365.884 L1119.0147,366.1826 L1129.0294,365.5495 L1139.0441,366.445 L1149.0588,366.3953 L1159.0735,366.8028 L1169.0882,365.7601 L1179.1029,365.8871 L1189.1176,366.6576 L1199.1324,366.8227 L1209.1471,365.3829 L1219.1618,365.8078 L1229.1765,366.2653 L1239.1912,365.2518 L1249.2059,366.5375 L1259.2206,366.4103 L1269.2353,365.9319 L1279.25,366.256 L1289.2647,367.0379 L1299.2794,365.6491 L1309.2941,366.4863 L1319.3088,366.4472 L1329.3235,366.2207 L1339.3382,366.2542 L1349.3529,366.2176 L1359.3676,365.2341 L1369.3824,365.5319 L1379.3971,365.4509 L1389.4118,366.1514 L1399.4265,366.1838 L1409.4412,366.282 L1419.4559,365.6783 L1429.4706,365.9763 L1439.4853,365.906 L1449.5,366.8354 L1459.5147,366.6351 L1469.5294,365.4189 L1479.5441,365.9691 L1489.5588,365.2967 L1499.5735,366.4508 L1509.5882,366.8776 L1519.6029,366.7924 L1529.6176,365.4856 L1539.6324,366.6849 L1549.6471,365.0759 L1559.6618,366.3332 L1569.6765,365.6672 L1579.6912,366.1953 L1589.7059,366.3867 L1599.7206,366.6958 L1609.7353,365.1064 L1619.75,366.7003 L1629.7647,366.3039 L1639.7794,366.5401 L1649.7941,367.0634 L1659.8088,366.0736 L1669.8235,366.3 L1679.8382,366.3509 L1689.8529,366.3293 L1699.8676,366.0652 L1709.8824,367.0139 L1719.8971,365.2533 L1729.9118,366.82 L1739.9265,365.2343 L1749.9412,365.3459 L1759.9559,366.1196 L1769.9706,366.104 L1779.9853,365.4092 L1790,366.6179 L1800.0147,366.2114 L1810.0294,367.0352 L1820.0441,366.9558 L1830.0588,365.4686 L1840.0735,365.5357 L1850.0882,365.8941 L1860.1029,366.5403 L1870.1176,366.6036 L1880.1324,366.4678 L1890.1471,365.6104 L1900.1618,366.9148 L1910.1765,366.9113 L1920.1912,366.0033 L1930.2059,365.7476 L1940.2206,365.5311 L1950.2353,365.7802 L1960.25,366.2495 L1970.2647,365.9751 L1980.2794,365.5092 L1990.2941,366.7161 L2000.3088,365.4544 L2010.3235,366.7361 L2020.3382,366.6359 L2030.3529,366.5621 L2040.3676,366.9896 L2050.3824,365.7384 L2060.3971,365.6654 L2070.4118,366.7581 L2080.4265,365.2704 L2090.4412,365.7543 L2100.4559,366.2203 L2110.4706,366.1579 L2120.4853,365.5884 L2130.5,366.0663 " fill="none" style="stroke:#8B0000;stroke-width:4.0;"/><text fill="#000000" font-family="Chalkduster" font-size="30" lengthAdjust="spacing" textLength="527" x="99.5" y="355.5801">Notebook 2 has input = CoOEE</text><polygon fill="#8B0000" points="2119.5,414.3536,2119.526,414.4186,2121.4487,415.0254,2123.5239,416.0134,2125.5495,416.8773,2127.4117,417.3328,2129.5,418.3536,2129.4904,418.3295,2127.4472,419.0216,2125.4525,419.8349,2123.4916,420.7325,2121.4144,421.3396,2119.5,422.3536,2119.6305,422.4841,2120.1514,421.405,2121.0534,420.707,2122.0018,420.0554,2122.6798,419.1334,2123.5,418.3536,2123.5161,418.3697,2122.6925,417.5461,2121.9421,416.7957,2121.1564,416.01,2120.438,415.2916,2119.5,414.3536" style="stroke:#8B0000;stroke-width:1.0;"/><path d="M82.5,418.3536 L82.5,418.6338 L92.5147,417.8012 L102.5294,418.6113 L112.5441,418.8865 L122.5588,417.4024 L132.5735,418.25 L142.5882,417.7849 L152.6029,417.8423 L162.6176,418.2627 L172.6324,417.4318 L182.6471,419.0918 L192.6618,417.5132 L202.6765,418.0899 L212.6912,418.9295 L222.7059,418.2392 L232.7206,418.4446 L242.7353,418.311 L252.75,418.5916 L262.7647,418.6724 L272.7794,419.1345 L282.7941,419.2483 L292.8088,419.2593 L302.8235,418.6931 L312.8382,418.9717 L322.8529,419.2899 L332.8676,417.392 L342.8824,419.2583 L352.8971,417.9583 L362.9118,419.0653 L372.9265,417.6936 L382.9412,418.2623 L392.9559,419.3424 L402.9706,418.2886 L412.9853,418.494 L423,418.8051 L433.0147,418.9086 L443.0294,418.3484 L453.0441,418.7365 L463.0588,417.5904 L473.0735,418.7328 L483.0882,419.0845 L493.1029,418.9463 L503.1176,419.171 L513.1324,417.7095 L523.1471,417.484 L533.1618,417.5251 L543.1765,418.2751 L553.1912,418.0916 L563.2059,419.2621 L573.2206,418.1207 L583.2353,417.8962 L593.25,418.6579 L603.2647,417.4645 L613.2794,417.6614 L623.2941,419.2189 L633.3088,418.9345 L643.3235,419.3329 L653.3382,417.9245 L663.3529,418.7792 L673.3676,419.1408 L683.3824,417.7237 L693.3971,418.2258 L703.4118,418.5216 L713.4265,419.2226 L723.4412,418.348 L733.4559,418.9703 L743.4706,417.6152 L753.4853,417.4506 L763.5,419.0251 L773.5147,417.3977 L783.5294,419.0322 L793.5441,418.6291 L803.5588,417.9964 L813.5735,417.8819 L823.5882,418.9653 L833.6029,417.9545 L843.6176,419.1427 L853.6324,417.6166 L863.6471,419.1768 L873.6618,418.9993 L883.6765,418.6802 L893.6912,418.4165 L903.7059,419.3224 L913.7206,419.1717 L923.7353,418.5793 L933.75,418.7112 L943.7647,418.1799 L953.7794,419.3089 L963.7941,418.5601 L973.8088,418.5837 L983.8235,417.5425 L993.8382,417.8133 L1003.8529,419.0613 L1013.8676,418.9266 L1023.8824,418.2963 L1033.8971,417.924 L1043.9118,418.0617 L1053.9265,417.4387 L1063.9412,418.9066 L1073.9559,419.3397 L1083.9706,419.0554 L1093.9853,419.2802 L1104,418.1713 L1114.0147,418.4699 L1124.0294,417.8368 L1134.0441,418.7323 L1144.0588,418.6826 L1154.0735,419.0901 L1164.0882,418.0474 L1174.1029,418.1744 L1184.1176,418.9449 L1194.1324,419.11 L1204.1471,417.6702 L1214.1618,418.0951 L1224.1765,418.5526 L1234.1912,417.5391 L1244.2059,418.8248 L1254.2206,418.6976 L1264.2353,418.2192 L1274.25,418.5433 L1284.2647,419.3252 L1294.2794,417.9364 L1304.2941,418.7736 L1314.3088,418.7345 L1324.3235,418.5079 L1334.3382,418.5415 L1344.3529,418.5049 L1354.3676,417.5214 L1364.3824,417.8192 L1374.3971,417.7382 L1384.4118,418.4387 L1394.4265,418.4711 L1404.4412,418.5693 L1414.4559,417.9656 L1424.4706,418.2636 L1434.4853,418.1933 L1444.5,419.1227 L1454.5147,418.9223 L1464.5294,417.7062 L1474.5441,418.2564 L1484.5588,417.5839 L1494.5735,418.7381 L1504.5882,419.1649 L1514.6029,419.0797 L1524.6176,417.7728 L1534.6324,418.9722 L1544.6471,417.3632 L1554.6618,418.6205 L1564.6765,417.9545 L1574.6912,418.4826 L1584.7059,418.674 L1594.7206,418.9831 L1604.7353,417.3937 L1614.75,418.9876 L1624.7647,418.5912 L1634.7794,418.8274 L1644.7941,419.3507 L1654.8088,418.3609 L1664.8235,418.5873 L1674.8382,418.6382 L1684.8529,418.6166 L1694.8676,418.3525 L1704.8824,419.3012 L1714.8971,417.5406 L1724.9118,419.1073 L1734.9265,417.5216 L1744.9412,417.6332 L1754.9559,418.4069 L1764.9706,418.3913 L1774.9853,417.6965 L1785,418.9052 L1795.0147,418.4987 L1805.0294,419.3225 L1815.0441,419.2431 L1825.0588,417.7559 L1835.0735,417.823 L1845.0882,418.1814 L1855.1029,418.8276 L1865.1176,418.8909 L1875.1324,418.7551 L1885.1471,417.8976 L1895.1618,419.2021 L1905.1765,419.1986 L1915.1912,418.2905 L1925.2059,418.0348 L1935.2206,417.8184 L1945.2353,418.0675 L1955.25,418.5368 L1965.2647,418.2624 L1975.2794,417.7965 L1985.2941,419.0034 L1995.3088,417.7417 L2005.3235,419.0234 L2015.3382,418.9232 L2025.3529,418.8494 L2035.3676,419.2769 L2045.3824,418.0257 L2055.3971,417.9527 L2065.4118,419.0454 L2075.4265,417.5577 L2085.4412,418.0416 L2095.4559,418.5076 L2105.4706,418.4452 L2115.4853,417.8757 L2125.5,418.3536 " fill="none" style="stroke:#8B0000;stroke-width:4.0;"/><text fill="#000000" font-family="Chalkduster" font-size="30" lengthAdjust="spacing" textLength="257" x="89.5" y="407.8674">Get me CoOEE</text><polygon fill="#8B0000" points="1439.5,466.6409,1439.526,466.7059,1437.4487,467.3127,1435.5239,468.3007,1433.5495,469.1646,1431.4117,469.6201,1429.5,470.6409,1429.4904,470.6168,1431.4472,471.3089,1433.4525,472.1222,1435.4916,473.0198,1437.4144,473.6269,1439.5,474.6409,1439.6305,474.7714,1438.5514,473.6923,1437.8534,472.9943,1437.2018,472.3427,1436.2798,471.4207,1435.5,470.6409,1435.5161,470.657,1436.2925,469.8334,1437.1421,469.083,1437.9564,468.2972,1438.838,467.5789,1439.5,466.6409" style="stroke:#8B0000;stroke-width:1.0;"/><path d="M1433.5,470.6409 L1433.5,470.9211 L1443.4571,470.0885 L1453.4143,470.8986 L1463.3714,471.1738 L1473.3286,469.6897 L1483.2857,470.5373 L1493.2429,470.0722 L1503.2,470.1295 L1513.1571,470.55 L1523.1143,469.7191 L1533.0714,471.3791 L1543.0286,469.8005 L1552.9857,470.3772 L1562.9429,471.2168 L1572.9,470.5265 L1582.8571,470.7319 L1592.8143,470.5983 L1602.7714,470.8789 L1612.7286,470.9597 L1622.6857,471.4218 L1632.6429,471.5356 L1642.6,471.5466 L1652.5571,470.9804 L1662.5143,471.259 L1672.4714,471.5772 L1682.4286,469.6793 L1692.3857,471.5456 L1702.3429,470.2455 L1712.3,471.3526 L1722.2571,469.9808 L1732.2143,470.5495 L1742.1714,471.6297 L1752.1286,470.5759 L1762.0857,470.7813 L1772.0429,471.0924 L1782,471.1959 L1791.9571,470.6357 L1801.9143,471.0238 L1811.8714,469.8777 L1821.8286,471.0201 L1831.7857,471.3718 L1841.7429,471.2336 L1851.7,471.4582 L1861.6571,469.9968 L1871.6143,469.7713 L1881.5714,469.8123 L1891.5286,470.5624 L1901.4857,470.3788 L1911.4429,471.5494 L1921.4,470.408 L1931.3571,470.1835 L1941.3143,470.9452 L1951.2714,469.7518 L1961.2286,469.9487 L1971.1857,471.5061 L1981.1429,471.2218 L1991.1,471.6202 L2001.0571,470.2118 L2011.0143,471.0665 L2020.9714,471.4281 L2030.9286,470.011 L2040.8857,470.5131 L2050.8429,470.8089 L2060.8,471.5099 L2070.7571,470.6353 L2080.7143,471.2576 L2090.6714,469.9025 L2100.6286,469.7379 L2110.5857,471.3124 L2120.5429,469.685 L2130.5,470.6409 " fill="none" style="stroke:#8B0000;stroke-width:4.0;"/><text fill="#000000" font-family="Chalkduster" font-size="30" lengthAdjust="spacing" textLength="235" x="1445.5" y="460.1547">return CoOEE</text><polygon fill="#8B0000" points="2119.5,518.9282,2119.526,518.9932,2121.4487,519.5999,2123.5239,520.588,2125.5495,521.4519,2127.4117,521.9074,2129.5,522.9282,2129.4904,522.9041,2127.4472,523.5962,2125.4525,524.4095,2123.4916,525.3071,2121.4144,525.9142,2119.5,526.9282,2119.6305,527.0587,2120.1514,525.9796,2121.0534,525.2816,2122.0018,524.63,2122.6798,523.708,2123.5,522.9282,2123.5161,522.9443,2122.6925,522.1206,2121.9421,521.3703,2121.1564,520.5845,2120.438,519.8662,2119.5,518.9282" style="stroke:#8B0000;stroke-width:1.0;"/><path d="M82.5,522.9282 L82.5,523.2084 L92.5147,522.3757 L102.5294,523.1859 L112.5441,523.4611 L122.5588,521.977 L132.5735,522.8246 L142.5882,522.3595 L152.6029,522.4168 L162.6176,522.8373 L172.6324,522.0063 L182.6471,523.6664 L192.6618,522.0878 L202.6765,522.6645 L212.6912,523.5041 L222.7059,522.8138 L232.7206,523.0192 L242.7353,522.8856 L252.75,523.1662 L262.7647,523.247 L272.7794,523.7091 L282.7941,523.8229 L292.8088,523.8338 L302.8235,523.2677 L312.8382,523.5463 L322.8529,523.8645 L332.8676,521.9666 L342.8824,523.8329 L352.8971,522.5328 L362.9118,523.6399 L372.9265,522.2681 L382.9412,522.8368 L392.9559,523.917 L402.9706,522.8632 L412.9853,523.0686 L423,523.3797 L433.0147,523.4831 L443.0294,522.923 L453.0441,523.3111 L463.0588,522.1649 L473.0735,523.3074 L483.0882,523.6591 L493.1029,523.5209 L503.1176,523.7455 L513.1324,522.2841 L523.1471,522.0586 L533.1618,522.0996 L543.1765,522.8497 L553.1912,522.6661 L563.2059,523.8367 L573.2206,522.6953 L583.2353,522.4708 L593.25,523.2325 L603.2647,522.0391 L613.2794,522.236 L623.2941,523.7934 L633.3088,523.5091 L643.3235,523.9075 L653.3382,522.4991 L663.3529,523.3538 L673.3676,523.7154 L683.3824,522.2983 L693.3971,522.8004 L703.4118,523.0962 L713.4265,523.7972 L723.4412,522.9226 L733.4559,523.5449 L743.4706,522.1898 L753.4853,522.0252 L763.5,523.5997 L773.5147,521.9723 L783.5294,523.6068 L793.5441,523.2037 L803.5588,522.571 L813.5735,522.4565 L823.5882,523.5399 L833.6029,522.5291 L843.6176,523.7173 L853.6324,522.1912 L863.6471,523.7514 L873.6618,523.5739 L883.6765,523.2548 L893.6912,522.9911 L903.7059,523.897 L913.7206,523.7463 L923.7353,523.1538 L933.75,523.2858 L943.7647,522.7545 L953.7794,523.8834 L963.7941,523.1347 L973.8088,523.1583 L983.8235,522.117 L993.8382,522.3879 L1003.8529,523.6358 L1013.8676,523.5012 L1023.8824,522.8709 L1033.8971,522.4986 L1043.9118,522.6363 L1053.9265,522.0133 L1063.9412,523.4812 L1073.9559,523.9143 L1083.9706,523.63 L1093.9853,523.8547 L1104,522.7459 L1114.0147,523.0445 L1124.0294,522.4114 L1134.0441,523.3069 L1144.0588,523.2572 L1154.0735,523.6647 L1164.0882,522.622 L1174.1029,522.749 L1184.1176,523.5195 L1194.1324,523.6846 L1204.1471,522.2448 L1214.1618,522.6697 L1224.1765,523.1272 L1234.1912,522.1137 L1244.2059,523.3994 L1254.2206,523.2722 L1264.2353,522.7938 L1274.25,523.1178 L1284.2647,523.8997 L1294.2794,522.511 L1304.2941,523.3482 L1314.3088,523.309 L1324.3235,523.0825 L1334.3382,523.1161 L1344.3529,523.0795 L1354.3676,522.096 L1364.3824,522.3937 L1374.3971,522.3128 L1384.4118,523.0133 L1394.4265,523.0457 L1404.4412,523.1438 L1414.4559,522.5402 L1424.4706,522.8381 L1434.4853,522.7679 L1444.5,523.6973 L1454.5147,523.4969 L1464.5294,522.2808 L1474.5441,522.8309 L1484.5588,522.1585 L1494.5735,523.3127 L1504.5882,523.7395 L1514.6029,523.6543 L1524.6176,522.3474 L1534.6324,523.5468 L1544.6471,521.9378 L1554.6618,523.195 L1564.6765,522.5291 L1574.6912,523.0571 L1584.7059,523.2486 L1594.7206,523.5576 L1604.7353,521.9683 L1614.75,523.5621 L1624.7647,523.1657 L1634.7794,523.4019 L1644.7941,523.9252 L1654.8088,522.9355 L1664.8235,523.1619 L1674.8382,523.2128 L1684.8529,523.1911 L1694.8676,522.9271 L1704.8824,523.8758 L1714.8971,522.1152 L1724.9118,523.6819 L1734.9265,522.0962 L1744.9412,522.2078 L1754.9559,522.9815 L1764.9706,522.9659 L1774.9853,522.2711 L1785,523.4798 L1795.0147,523.0733 L1805.0294,523.8971 L1815.0441,523.8176 L1825.0588,522.3305 L1835.0735,522.3976 L1845.0882,522.7559 L1855.1029,523.4022 L1865.1176,523.4655 L1875.1324,523.3297 L1885.1471,522.4722 L1895.1618,523.7766 L1905.1765,523.7732 L1915.1912,522.8651 L1925.2059,522.6094 L1935.2206,522.393 L1945.2353,522.6421 L1955.25,523.1114 L1965.2647,522.837 L1975.2794,522.3711 L1985.2941,523.578 L1995.3088,522.3163 L2005.3235,523.598 L2015.3382,523.4978 L2025.3529,523.424 L2035.3676,523.8515 L2045.3824,522.6003 L2055.3971,522.5273 L2065.4118,523.62 L2075.4265,522.1323 L2085.4412,522.6162 L2095.4559,523.0822 L2105.4706,523.0198 L2115.4853,522.4502 L2125.5,522.9282 " fill="none" style="stroke:#8B0000;stroke-width:4.0;"/><text fill="#000000" font-family="Chalkduster" font-size="30" lengthAdjust="spacing" textLength="337" x="89.5" y="512.442">Get me Notebook 2</text><polygon fill="#8B0000" points="1439.5,571.2155,1439.526,571.2805,1437.4487,571.8872,1435.5239,572.8753,1433.5495,573.7392,1431.4117,574.1947,1429.5,575.2155,1429.4904,575.1914,1431.4472,575.8835,1433.4525,576.6968,1435.4916,577.5944,1437.4144,578.2015,1439.5,579.2155,1439.6305,579.346,1438.5514,578.2669,1437.8534,577.5689,1437.2018,576.9173,1436.2798,575.9952,1435.5,575.2155,1435.5161,575.2315,1436.2925,574.4079,1437.1421,573.6575,1437.9564,572.8718,1438.838,572.1535,1439.5,571.2155" style="stroke:#8B0000;stroke-width:1.0;"/><path d="M1433.5,575.2155 L1433.5,575.4957 L1443.4571,574.663 L1453.4143,575.4732 L1463.3714,575.7484 L1473.3286,574.2643 L1483.2857,575.1118 L1493.2429,574.6468 L1503.2,574.7041 L1513.1571,575.1246 L1523.1143,574.2936 L1533.0714,575.9537 L1543.0286,574.3751 L1552.9857,574.9518 L1562.9429,575.7914 L1572.9,575.1011 L1582.8571,575.3064 L1592.8143,575.1729 L1602.7714,575.4535 L1612.7286,575.5343 L1622.6857,575.9964 L1632.6429,576.1102 L1642.6,576.1211 L1652.5571,575.555 L1662.5143,575.8336 L1672.4714,576.1518 L1682.4286,574.2539 L1692.3857,576.1201 L1702.3429,574.8201 L1712.3,575.9272 L1722.2571,574.5554 L1732.2143,575.1241 L1742.1714,576.2043 L1752.1286,575.1505 L1762.0857,575.3559 L1772.0429,575.667 L1782,575.7704 L1791.9571,575.2103 L1801.9143,575.5984 L1811.8714,574.4522 L1821.8286,575.5946 L1831.7857,575.9464 L1841.7429,575.8082 L1851.7,576.0328 L1861.6571,574.5714 L1871.6143,574.3459 L1881.5714,574.3869 L1891.5286,575.137 L1901.4857,574.9534 L1911.4429,576.124 L1921.4,574.9826 L1931.3571,574.7581 L1941.3143,575.5198 L1951.2714,574.3263 L1961.2286,574.5233 L1971.1857,576.0807 L1981.1429,575.7964 L1991.1,576.1948 L2001.0571,574.7864 L2011.0143,575.6411 L2020.9714,576.0027 L2030.9286,574.5856 L2040.8857,575.0877 L2050.8429,575.3834 L2060.8,576.0845 L2070.7571,575.2099 L2080.7143,575.8322 L2090.6714,574.4771 L2100.6286,574.3125 L2110.5857,575.8869 L2120.5429,574.2595 L2130.5,575.2155 " fill="none" style="stroke:#8B0000;stroke-width:4.0;"/><text fill="#000000" font-family="Chalkduster" font-size="30" lengthAdjust="spacing" textLength="663" x="1445.5" y="564.7293">Notebook 2 record w/"RUN ME" button</text><polygon fill="#8B0000" points="2383,623.5028,2383.026,623.5678,2384.9487,624.1745,2387.0239,625.1626,2389.0495,626.0265,2390.9117,626.482,2393,627.5028,2392.9904,627.4787,2390.9472,628.1708,2388.9525,628.9841,2386.9916,629.8817,2384.9144,630.4888,2383,631.5028,2383.1305,631.6333,2383.6514,630.5542,2384.5534,629.8561,2385.5018,629.2046,2386.1798,628.2825,2387,627.5028,2387.0161,627.5188,2386.1925,626.6952,2385.4421,625.9448,2384.6564,625.1591,2383.938,624.4408,2383,623.5028" style="stroke:#8B0000;stroke-width:1.0;"/><path d="M1428.5,627.5028 L1428.5,627.783 L1438.5052,626.9503 L1448.5104,627.7605 L1458.5156,628.0357 L1468.5208,626.5516 L1478.526,627.3991 L1488.5313,626.9341 L1498.5365,626.9914 L1508.5417,627.4119 L1518.5469,626.5809 L1528.5521,628.2409 L1538.5573,626.6624 L1548.5625,627.2391 L1558.5677,628.0787 L1568.5729,627.3884 L1578.5781,627.5937 L1588.5833,627.4602 L1598.5885,627.7408 L1608.5938,627.8216 L1618.599,628.2837 L1628.6042,628.3975 L1638.6094,628.4084 L1648.6146,627.8423 L1658.6198,628.1209 L1668.625,628.4391 L1678.6302,626.5412 L1688.6354,628.4074 L1698.6406,627.1074 L1708.6458,628.2145 L1718.651,626.8427 L1728.6563,627.4114 L1738.6615,628.4916 L1748.6667,627.4378 L1758.6719,627.6432 L1768.6771,627.9543 L1778.6823,628.0577 L1788.6875,627.4975 L1798.6927,627.8857 L1808.6979,626.7395 L1818.7031,627.8819 L1828.7083,628.2337 L1838.7135,628.0955 L1848.7188,628.3201 L1858.724,626.8587 L1868.7292,626.6332 L1878.7344,626.6742 L1888.7396,627.4243 L1898.7448,627.2407 L1908.75,628.4113 L1918.7552,627.2699 L1928.7604,627.0454 L1938.7656,627.8071 L1948.7708,626.6136 L1958.776,626.8106 L1968.7813,628.368 L1978.7865,628.0836 L1988.7917,628.4821 L1998.7969,627.0737 L2008.8021,627.9284 L2018.8073,628.29 L2028.8125,626.8729 L2038.8177,627.3749 L2048.8229,627.6707 L2058.8281,628.3718 L2068.8333,627.4972 L2078.8385,628.1195 L2088.8438,626.7644 L2098.849,626.5997 L2108.8542,628.1742 L2118.8594,626.5468 L2128.8646,628.1814 L2138.8698,627.7783 L2148.875,627.1455 L2158.8802,627.0311 L2168.8854,628.1144 L2178.8906,627.1036 L2188.8958,628.2919 L2198.901,626.7658 L2208.9063,628.326 L2218.9115,628.1485 L2228.9167,627.8294 L2238.9219,627.5657 L2248.9271,628.4716 L2258.9323,628.3209 L2268.9375,627.7284 L2278.9427,627.8603 L2288.9479,627.3291 L2298.9531,628.458 L2308.9583,627.7092 L2318.9635,627.7329 L2328.9688,626.6916 L2338.974,626.9625 L2348.9792,628.2104 L2358.9844,628.0758 L2368.9896,627.4455 L2378.9948,627.0732 L2389,627.5028 " fill="none" style="stroke:#8B0000;stroke-width:4.0;"/><text fill="#000000" font-family="Chalkduster" font-size="30" lengthAdjust="spacing" textLength="287" x="1435.5" y="617.0166">Start Notebook 2</text><polygon fill="#8B0000" points="1439.5,675.7901,1439.526,675.8551,1437.4487,676.4618,1435.5239,677.4499,1433.5495,678.3137,1431.4117,678.7693,1429.5,679.7901,1429.4904,679.766,1431.4472,680.4581,1433.4525,681.2714,1435.4916,682.169,1437.4144,682.7761,1439.5,683.7901,1439.6305,683.9205,1438.5514,682.8415,1437.8534,682.1434,1437.2018,681.4919,1436.2798,680.5698,1435.5,679.7901,1435.5161,679.8061,1436.2925,678.9825,1437.1421,678.2321,1437.9564,677.4464,1438.838,676.7281,1439.5,675.7901" style="stroke:#8B0000;stroke-width:1.0;"/><path d="M1433.5,679.7901 L1433.5,680.0703 L1443.5052,679.2376 L1453.5104,680.0478 L1463.5156,680.323 L1473.5208,678.8389 L1483.526,679.6864 L1493.5313,679.2214 L1503.5365,679.2787 L1513.5417,679.6992 L1523.5469,678.8682 L1533.5521,680.5282 L1543.5573,678.9497 L1553.5625,679.5264 L1563.5677,680.366 L1573.5729,679.6757 L1583.5781,679.881 L1593.5833,679.7475 L1603.5885,680.0281 L1613.5938,680.1089 L1623.599,680.571 L1633.6042,680.6848 L1643.6094,680.6957 L1653.6146,680.1296 L1663.6198,680.4082 L1673.625,680.7264 L1683.6302,678.8285 L1693.6354,680.6947 L1703.6406,679.3947 L1713.6458,680.5018 L1723.651,679.13 L1733.6563,679.6987 L1743.6615,680.7789 L1753.6667,679.7251 L1763.6719,679.9305 L1773.6771,680.2416 L1783.6823,680.345 L1793.6875,679.7848 L1803.6927,680.173 L1813.6979,679.0268 L1823.7031,680.1692 L1833.7083,680.521 L1843.7135,680.3828 L1853.7188,680.6074 L1863.724,679.1459 L1873.7292,678.9205 L1883.7344,678.9615 L1893.7396,679.7115 L1903.7448,679.528 L1913.75,680.6986 L1923.7552,679.5571 L1933.7604,679.3326 L1943.7656,680.0944 L1953.7708,678.9009 L1963.776,679.0979 L1973.7813,680.6553 L1983.7865,680.3709 L1993.7917,680.7694 L2003.7969,679.361 L2013.8021,680.2156 L2023.8073,680.5773 L2033.8125,679.1602 L2043.8177,679.6622 L2053.8229,679.958 L2063.8281,680.6591 L2073.8333,679.7845 L2083.8385,680.4068 L2093.8438,679.0517 L2103.849,678.887 L2113.8542,680.4615 L2123.8594,678.8341 L2133.8646,680.4687 L2143.8698,680.0656 L2153.875,679.4328 L2163.8802,679.3184 L2173.8854,680.4017 L2183.8906,679.3909 L2193.8958,680.5792 L2203.901,679.0531 L2213.9063,680.6133 L2223.9115,680.4358 L2233.9167,680.1167 L2243.9219,679.853 L2253.9271,680.7589 L2263.9323,680.6082 L2273.9375,680.0157 L2283.9427,680.1476 L2293.9479,679.6164 L2303.9531,680.7453 L2313.9583,679.9965 L2323.9635,680.0201 L2333.9688,678.9789 L2343.974,679.2498 L2353.9792,680.4977 L2363.9844,680.3631 L2373.9896,679.7328 L2383.9948,679.3605 L2394,679.7901 " fill="none" style="stroke:#8B0000;stroke-width:4.0;"/><text fill="#000000" font-family="Chalkduster" font-size="30" lengthAdjust="spacing" textLength="370" x="1445.5" y="669.3039">Return live notebook</text><!--MD5=[f93f281d7b4b645bb309465bd20ee31b]
@startuml
!include ../data-management-style.txt

actor Researcher as r
   skinparam defaultFontSize 30
   skinparam actorFontSize 30
   r -> "Browser" as b : I want to learn topic modeling. Do we have notebooks for topic modeling?
   "ATAP/LDaCA Repo" as port -> b : Here's three
   r -> b : What data do I need?
   b -> port : Does a notebook have an 'input' value?
 
   port -> r : Notebook 2 has input = CoOEE
   r -> "ATAP/LDaCA Repo" as port : Get me CoOEE
	port -> b : return CoOEE
	 r -> "ATAP/LDaCA Repo" as port : Get me Notebook 2
	 port -> b : Notebook 2 record w/"RUN ME" button
   b -> binderhub : Start Notebook 2
   binderhub -> b : Return live notebook
@enduml

@startuml

skinparam defaultFontName Chalkduster
skinparam handwritten true
skinparam FontSize 24
skinparam InterfaceFontSize 24

skinparam titleFontSize 42
skinparam arrowFontSize 24
skinparam arrowColor DarkRed

skinparam arrowThickness 4



skinparam note  {
    BackgroundColor<< workspace >>  #FFC7D8
    BackgroundColor<< repository >>  springgreen
    BackgroundColor<< support >>  yellow
    BorderThickness 4
    BackgroundColor transparent
    FontSize 24

}

skinparam actor  {
    BackgroundColor<< workspace >>  #FFC7D8
    BorderColor DarkRed

    BackgroundColor<< repository >>  springgreen


    BackgroundColor<< support >>  yellow
    FontColor<< support >>  #FFC7D8


    BorderThickness 4
    BackgroundColor transparent
    FontSize 24


}

skinparam rectangle  {
    BackgroundColor<< workspace >>  #FFC7D8

    BackgroundColor<< repository >>  springgreen


    BackgroundColor<< support >>  yellow


    BorderThickness 4
    BackgroundColor transparent
    FontSize 24


}

skinparam cloud  {
    BackgroundColor<< workspace >>  #FFC7D8
    BackgroundColor<< repository >>  springgreen
    BackgroundColor<< support >>  yellow
    BorderThickness 4
    BackgroundColor transparent

    FontSize 24

}

skinparam database  {
    BackgroundColor<< workspace >>  #FFC7D8
    BackgroundColor<< repository >>  springgreen
    BackgroundColor<< support >>  lightyellow
    BorderThickness 4
    BackgroundColor transparent

    FontSize 24
}

actor Researcher as r
   skinparam defaultFontSize 30
   skinparam actorFontSize 30
   r -> "Browser" as b : I want to learn topic modeling. Do we have notebooks for topic modeling?
   "ATAP/LDaCA Repo" as port -> b : Here's three
   r -> b : What data do I need?
   b -> port : Does a notebook have an 'input' value?
 
   port -> r : Notebook 2 has input = CoOEE
   r -> "ATAP/LDaCA Repo" as port : Get me CoOEE
	port -> b : return CoOEE
	 r -> "ATAP/LDaCA Repo" as port : Get me Notebook 2
	 port -> b : Notebook 2 record w/"RUN ME" button
   b -> binderhub : Start Notebook 2
   binderhub -> b : Return live notebook
@enduml

PlantUML version 1.2022.7(Tue Aug 23 03:01:30 AEST 2022)
(GPL source distribution)
Java Runtime: OpenJDK Runtime Environment
JVM: OpenJDK 64-Bit Server VM
Default Encoding: UTF-8
Language: en
Country: AU
--></g></svg>