<?xml version="1.0" encoding="UTF-8" standalone="no"?><svg xmlns="http://www.w3.org/2000/svg" xmlns:xlink="http://www.w3.org/1999/xlink" contentStyleType="text/css" height="195px" preserveAspectRatio="none" style="width:841px;height:195px;background:#FFFFFF;" version="1.1" viewBox="0 0 841 195" width="841px" zoomAndPan="magnify"><defs/><g><text fill="#000000" font-family="sans-serif" font-size="14" font-weight="bold" lengthAdjust="spacing" textLength="216" x="305.5163" y="23.5352">ATAP Ecosystem - Publishing</text><!--cluster ws--><g id="cluster_ws"><path d="M21.0154,73.897 C22.9357,68.0851 27.3017,66.7531 31.8761,71.0435 C35.2694,64.1916 40.8854,63.7993 44.8365,70.5105 C47.3772,62.9569 52.8505,61.7593 58.0062,68.0169 C60.2135,60.7001 65.6694,60.1478 70.996,64.5634 C75.9813,58.8021 81.4411,60.4983 83.2837,67.572 C87.8455,61.3737 94.3,61.9025 96.5458,69.7576 C101.6566,63.7626 107.8051,65.4592 109.9141,72.7729 C114.9688,67.4768 119.7606,68.3792 123.0254,74.7794 C128.7226,78.1494 130.5643,83.8846 124.0153,88.1606 C130.1687,90.4804 130.9801,96.1464 126.5074,100.5958 C133.5175,104.9341 134.0331,109.642 127.6024,115.0021 C132.9452,118.7601 131.9733,124.3244 126.3675,126.9508 C131.3381,132.6168 130.9329,137.0039 123.6542,140.1524 C129.0599,144.8586 127.9098,150.319 121.8929,153.5201 C119.3628,160.5535 114.2261,159.7861 109.8781,155.4393 C106.5713,162.2495 101.6438,162.4811 96.4922,157.5409 C94.866,164.371 89.012,165.0571 84.8972,159.9602 C80.0886,166.6966 74.5062,166.3229 70.1993,159.4195 C66.0294,164.3074 61.357,163.1978 58.6164,157.8085 C54.2022,162.9904 48.5045,163.6203 45.2138,156.5768 C41.6678,163.1102 35.5476,162.9302 31.7287,156.8689 C27.5109,161.624 21.2829,162.1214 19.1594,154.706 C13.3088,151.2731 12.7858,145.0416 18.2267,140.8487 C10.2036,139.4202 9.4816,133.0118 14.5491,127.8731 C8.1056,125.4858 6,119.1498 12.1225,114.4849 C7.1588,109.5302 6.2349,103.6926 14.2572,100.7572 C7.8187,95.4066 10.1931,89.5211 17.2597,87.1506 C11.9091,80.9643 13.8957,76.5496 21.0154,73.897 " fill="none" style="stroke:#181818;stroke-width:1.0;"/><text fill="#000000" font-family="sans-serif" font-size="14" font-weight="bold" lengthAdjust="spacing" textLength="85" x="27.4663" y="91.7652">Workspaces</text></g><!--cluster ar--><g id="cluster_ar"><path d="M167.0169,80.9271 C179.8664,57.5016 194.828,58.7185 212.6254,75.2841 C223.3556,51.9835 240.923,53.6485 255.1781,71.6528 C268.1407,47.0209 291.7437,53.5301 302.9979,73.4851 C313.2098,52.9935 328.0346,52.1356 343.69,67.2669 C361.5848,46.7548 375.0642,50.8996 389.2046,71.4303 C403.0732,44.0014 419.9994,47.6386 437.4261,67.8271 C451.8705,46.8101 466.9322,48.5707 479.6762,69.5382 C489.6066,45.8652 512.3241,46.5091 525.7369,65.8053 C542.2629,46.0215 559.8419,43.4883 572.3797,69.8376 C586.1443,49.3342 605.4243,50.4699 618.4242,70.702 C632.5271,47.3236 652.141,50.2463 664.7158,72.2602 C677.0339,47.4938 699.581,44.678 714.2641,69.9168 C730.4956,51.4423 745.7417,51.0232 757.3362,74.6597 C774.4638,49.9236 789.0099,54.0344 804.0865,76.6832 C830.8272,84.6362 834.0326,101.5429 815.039,120.8397 C829.3083,140.1228 823.0388,152.6233 801.8171,159.8895 C786.244,181.4889 770.838,187.0417 753.9516,161.215 C741.5627,181.3943 727.251,184.8019 712.3875,163.7069 C694.991,182.3029 678.9475,184.2575 664.9556,159.9435 C651.3472,182.0156 629.3259,181.5306 616.1484,159.4669 C607.1236,179.1605 587.4638,186.6735 572.0793,166.4962 C558.3112,188.335 539.1454,188.7334 525.3959,166.4764 C512.6495,182.5784 495.8426,180.5692 485.7799,163.2914 C470.9695,181.3544 454.072,185.5518 440.9832,161.4618 C426.0057,186.4028 407.9666,187.0253 392.8797,161.5663 C379.9203,183.0649 359.6215,182.4442 346.8345,161.3797 C332.0344,183.3074 312.5092,177.4224 301.4752,157.3156 C290.1602,179.7409 274.8586,185.5846 257.2646,163.561 C241.1581,180.9105 222.869,178.2094 212.4197,156.9841 C196.3425,183.5153 177.0908,180.103 162.3755,155.6473 C152.5683,149.7359 150.0231,142.4247 160.7664,134.9181 C150.5127,131.4987 146.5969,125.7942 153.7041,115.9207 C146.871,108.9328 146.6805,100.7789 157.3866,97.2503 C152.4523,86.6696 155.3513,81.7141 167.0169,80.9271 " fill="none" style="stroke:#181818;stroke-width:1.0;"/><text fill="#000000" font-family="sans-serif" font-size="14" font-weight="bold" lengthAdjust="spacing" textLength="154" x="402.4663" y="91.7652">Archival Repositories</text></g><!--entity git--><g id="elem_git"><path d="M26.9663,110.23 C26.9663,100.23 69.9663,100.23 69.9663,100.23 C69.9663,100.23 112.9663,100.23 112.9663,110.23 L112.9663,135.7183 C112.9663,145.7183 69.9663,145.7183 69.9663,145.7183 C69.9663,145.7183 26.9663,145.7183 26.9663,135.7183 L26.9663,110.23 " fill="#F1F1F1" style="stroke:#181818;stroke-width:0.5;"/><path d="M26.9663,110.23 C26.9663,120.23 69.9663,120.23 69.9663,120.23 C69.9663,120.23 112.9663,120.23 112.9663,110.23 " fill="none" style="stroke:#181818;stroke-width:0.5;"/><text fill="#000000" font-family="sans-serif" font-size="14" lengthAdjust="spacing" textLength="66" x="36.9663" y="137.7652">Git Server</text></g><!--entity adp--><g id="elem_adp"><rect fill="#F1F1F1" height="36.4883" rx="2.5" ry="2.5" style="stroke:#181818;stroke-width:0.5;" width="136" x="653.9663" y="104.73"/><text fill="#000000" font-family="sans-serif" font-size="14" lengthAdjust="spacing" textLength="116" x="663.9663" y="128.2652">ATAP Data Portal</text></g><!--entity a--><g id="elem_a"><path d="M525.4663,110.23 C525.4663,100.23 571.9663,100.23 571.9663,100.23 C571.9663,100.23 618.4663,100.23 618.4663,110.23 L618.4663,135.7183 C618.4663,145.7183 571.9663,145.7183 571.9663,145.7183 C571.9663,145.7183 525.4663,145.7183 525.4663,135.7183 L525.4663,110.23 " fill="#F1F1F1" style="stroke:#181818;stroke-width:0.5;"/><path d="M525.4663,110.23 C525.4663,120.23 571.9663,120.23 571.9663,120.23 C571.9663,120.23 618.4663,120.23 618.4663,110.23 " fill="none" style="stroke:#181818;stroke-width:0.5;"/><text fill="#000000" font-family="sans-serif" font-size="14" lengthAdjust="spacing" textLength="73" x="535.4663" y="137.7652">ATAP repo</text></g><!--entity z--><g id="elem_z"><rect fill="#F1F1F1" height="36.4883" rx="2.5" ry="2.5" style="stroke:#181818;stroke-width:0.5;" width="72" x="417.9663" y="104.73"/><text fill="#000000" font-family="sans-serif" font-size="14" lengthAdjust="spacing" textLength="52" x="427.9663" y="128.2652">Zenodo</text></g><!--entity idp--><g id="elem_idp"><rect fill="#F1F1F1" height="36.4883" rx="2.5" ry="2.5" style="stroke:#181818;stroke-width:0.5;" width="214" x="168.9663" y="104.73"/><text fill="#000000" font-family="sans-serif" font-size="14" lengthAdjust="spacing" textLength="194" x="178.9663" y="128.2652">Institutional Data Repository</text></g><!--SRC=[ZOxDQiD038Jl-nJ2zxv0ReQKafjf0u7SbBLmHBQxHf9Tqf9tptgtpS-j5u6OcM_6s0AjeDss7Rpwf6Sr-eGNwAP3O3ro79npFgIfXrsIauxeIG4LlXH-dElHy81AqBonmGV9JD8iyf3Vh5zoUZcLqBJYZpnZW7SQax8bOTBYHybs8MyOXv1nPT0wqw5BOXYggHyhz5vRV99frR38Izy3QKynzLN-_ftqe6wY6jjad6AULGflsyubn7-b_uWzjLpS5G00]--></g></svg>