<?xml version="1.0" encoding="UTF-8" standalone="no"?><svg xmlns="http://www.w3.org/2000/svg" xmlns:xlink="http://www.w3.org/1999/xlink" contentStyleType="text/css" height="730px" preserveAspectRatio="none" style="width:2032px;height:730px;background:#FFFFFF;" version="1.1" viewBox="0 0 2032 730" width="2032px" zoomAndPan="magnify"><defs/><g><path d="M82,102.6298 L82.2802,102.6298 L81.4476,112.6086 L82.2577,122.5873 L82.5329,132.566 L81.0488,142.5448 L81.8964,152.5235 L81.4313,162.5022 L81.4887,172.481 L81.9091,182.4597 L81.0782,192.4384 L82.7382,202.4172 L81.1596,212.3959 L81.7363,222.3746 L82.5759,232.3534 L81.8856,242.3321 L82.091,252.3108 L81.9574,262.2896 L82.238,272.2683 L82.3188,282.2471 L82.7809,292.2258 L82.8947,302.2045 L82.9057,312.1833 L82.3395,322.162 L82.6181,332.1407 L82.9363,342.1195 L81.0384,352.0982 L82.9047,362.0769 L81.6047,372.0557 L82.7117,382.0344 L81.34,392.0131 L81.9087,401.9919 L82.9888,411.9706 L81.935,421.9493 L82.1404,431.9281 L82.4515,441.9068 L82.555,451.8855 L81.9948,461.8643 L82.383,471.843 L81.2368,481.8217 L82.3792,491.8005 L82.7309,501.7792 L82.5927,511.7579 L82.8174,521.7367 L81.3559,531.7154 L81.1304,541.6941 L81.1715,551.6729 L81.9215,561.6516 L81.738,571.6304 L82.9085,581.6091 L81.7671,591.5878 L81.5426,601.5666 L82.3044,611.5453 L81.1109,621.524 L82,631.5028 " fill="none" style="stroke:#181818;stroke-width:0.5;stroke-dasharray:5.0,5.0;"/><path d="M901.5,102.6298 L901.7802,102.6298 L900.9476,112.6086 L901.7577,122.5873 L902.0329,132.566 L900.5488,142.5448 L901.3964,152.5235 L900.9313,162.5022 L900.9887,172.481 L901.4091,182.4597 L900.5782,192.4384 L902.2382,202.4172 L900.6596,212.3959 L901.2363,222.3746 L902.0759,232.3534 L901.3856,242.3321 L901.591,252.3108 L901.4574,262.2896 L901.738,272.2683 L901.8188,282.2471 L902.2809,292.2258 L902.3947,302.2045 L902.4057,312.1833 L901.8395,322.162 L902.1181,332.1407 L902.4363,342.1195 L900.5384,352.0982 L902.4047,362.0769 L901.1047,372.0557 L902.2117,382.0344 L900.84,392.0131 L901.4087,401.9919 L902.4888,411.9706 L901.435,421.9493 L901.6404,431.9281 L901.9515,441.9068 L902.055,451.8855 L901.4948,461.8643 L901.883,471.843 L900.7368,481.8217 L901.8792,491.8005 L902.2309,501.7792 L902.0927,511.7579 L902.3174,521.7367 L900.8559,531.7154 L900.6304,541.6941 L900.6715,551.6729 L901.4215,561.6516 L901.238,571.6304 L902.4085,581.6091 L901.2671,591.5878 L901.0426,601.5666 L901.8044,611.5453 L900.6109,621.524 L901.5,631.5028 " fill="none" style="stroke:#181818;stroke-width:0.5;stroke-dasharray:5.0,5.0;"/><path d="M1672,102.6298 L1672.2802,102.6298 L1671.4476,112.6086 L1672.2577,122.5873 L1672.5329,132.566 L1671.0488,142.5448 L1671.8964,152.5235 L1671.4313,162.5022 L1671.4887,172.481 L1671.9091,182.4597 L1671.0782,192.4384 L1672.7382,202.4172 L1671.1596,212.3959 L1671.7363,222.3746 L1672.5759,232.3534 L1671.8856,242.3321 L1672.091,252.3108 L1671.9574,262.2896 L1672.238,272.2683 L1672.3188,282.2471 L1672.7809,292.2258 L1672.8947,302.2045 L1672.9057,312.1833 L1672.3395,322.162 L1672.6181,332.1407 L1672.9363,342.1195 L1671.0384,352.0982 L1672.9047,362.0769 L1671.6047,372.0557 L1672.7117,382.0344 L1671.34,392.0131 L1671.9087,401.9919 L1672.9888,411.9706 L1671.935,421.9493 L1672.1404,431.9281 L1672.4515,441.9068 L1672.555,451.8855 L1671.9948,461.8643 L1672.383,471.843 L1671.2368,481.8217 L1672.3792,491.8005 L1672.7309,501.7792 L1672.5927,511.7579 L1672.8174,521.7367 L1671.3559,531.7154 L1671.1304,541.6941 L1671.1715,551.6729 L1671.9215,561.6516 L1671.738,571.6304 L1672.9085,581.6091 L1671.7671,591.5878 L1671.5426,601.5666 L1672.3044,611.5453 L1671.1109,621.524 L1672,631.5028 " fill="none" style="stroke:#181818;stroke-width:0.5;stroke-dasharray:5.0,5.0;"/><path d="M1936,102.6298 L1936.2802,102.6298 L1935.4476,112.6086 L1936.2577,122.5873 L1936.5329,132.566 L1935.0488,142.5448 L1935.8964,152.5235 L1935.4313,162.5022 L1935.4887,172.481 L1935.9091,182.4597 L1935.0782,192.4384 L1936.7382,202.4172 L1935.1596,212.3959 L1935.7363,222.3746 L1936.5759,232.3534 L1935.8856,242.3321 L1936.091,252.3108 L1935.9574,262.2896 L1936.238,272.2683 L1936.3188,282.2471 L1936.7809,292.2258 L1936.8947,302.2045 L1936.9057,312.1833 L1936.3395,322.162 L1936.6181,332.1407 L1936.9363,342.1195 L1935.0384,352.0982 L1936.9047,362.0769 L1935.6047,372.0557 L1936.7117,382.0344 L1935.34,392.0131 L1935.9087,401.9919 L1936.9888,411.9706 L1935.935,421.9493 L1936.1404,431.9281 L1936.4515,441.9068 L1936.555,451.8855 L1935.9948,461.8643 L1936.383,471.843 L1935.2368,481.8217 L1936.3792,491.8005 L1936.7309,501.7792 L1936.5927,511.7579 L1936.8174,521.7367 L1935.3559,531.7154 L1935.1304,541.6941 L1935.1715,551.6729 L1935.9215,561.6516 L1935.738,571.6304 L1936.9085,581.6091 L1935.7671,591.5878 L1935.5426,601.5666 L1936.3044,611.5453 L1935.1109,621.524 L1936,631.5028 " fill="none" style="stroke:#181818;stroke-width:0.5;stroke-dasharray:5.0,5.0;"/><text fill="#000000" font-family="Chalkduster" font-size="24" lengthAdjust="spacing" textLength="149" x="5" y="95.8409">Researcher</text><polygon fill="none" points="90.5442,18.9459,89.3715,20.5482,87.9845,22.8951,86.0008,24.4767,83.9163,25.3415,82.2542,25.4166,80.118,24.3349,78.1023,23.6283,76.5724,22.1936,75.7699,20.5511,75.2939,19.2433,74.8277,17.5351,74.0709,16.0651,74.6525,14.6298,75.162,13.0576,77.074,11.8142,78.4192,10.2008,80.0843,9.665,82.0637,9.2037,84.6021,9.4778,85.9924,10.1335,87.6089,10.4307,89.5743,12.4443,90.2595,14.5701,90.5571,16.0206,90.22,18.4108" style="stroke:#8B0000;stroke-width:4.0;"/><path d="M82.5,25 L82.6868,25 L82.1317,30.4 L82.6718,35.8 L82.8553,41.2 L81.8659,46.6 L82.5,52 M69.5,33 L69.5,32.9309 L74.7,32.6209 L79.9,32.6591 L85.1,32.9394 L90.3,32.3854 L95.5,33 M82.5,52 L82.8719,52.3223 L79.4766,54.6331 L77.1672,57.8849 L74.9901,61.2515 L72.0424,63.9501 L69.5,67 M82.5,52 L82.5458,52.0397 L85.0785,54.9814 L87.8199,58.1039 L90.4606,61.1392 L93.2934,64.341 L95.5,67 " fill="none" style="stroke:#8B0000;stroke-width:4.0;"/><text fill="#000000" font-family="Chalkduster" font-size="24" lengthAdjust="spacing" textLength="149" x="5" y="654.3436">Researcher</text><polygon fill="none" points="90.5442,675.0785,89.3715,676.6808,87.9845,679.0276,86.0008,680.6092,83.9163,681.4741,82.2542,681.5492,80.118,680.4675,78.1023,679.7609,76.5724,678.3262,75.7699,676.6837,75.2939,675.3759,74.8277,673.6676,74.0709,672.1977,74.6525,670.7624,75.162,669.1902,77.074,667.9468,78.4192,666.3334,80.0843,665.7976,82.0637,665.3363,84.6021,665.6104,85.9924,666.2661,87.6089,666.5633,89.5743,668.5769,90.2595,670.7027,90.5571,672.1532,90.22,674.5434" style="stroke:#8B0000;stroke-width:4.0;"/><path d="M82.5,681.1326 L82.6868,681.1326 L82.1317,686.5326 L82.6718,691.9326 L82.8553,697.3326 L81.8659,702.7326 L82.5,708.1326 M69.5,689.1326 L69.5,689.0635 L74.7,688.7535 L79.9,688.7917 L85.1,689.072 L90.3,688.518 L95.5,689.1326 M82.5,708.1326 L82.8719,708.4549 L79.4766,710.7657 L77.1672,714.0175 L74.9901,717.3841 L72.0424,720.0827 L69.5,723.1326 M82.5,708.1326 L82.5458,708.1723 L85.0785,711.114 L87.8199,714.2365 L90.4606,717.2718 L93.2934,720.4736 L95.5,723.1326 " fill="none" style="stroke:#8B0000;stroke-width:4.0;"/><polygon fill="#E2E2F0" points="831,49.3425,831,49.5527,841.0714,48.9282,851.1429,49.5358,861.2143,49.7422,871.2857,48.6291,881.3571,49.2648,891.4286,48.916,901.5,48.959,911.5714,49.2744,921.6429,48.6512,931.7143,49.8962,941.7857,48.7123,951.8571,49.1448,961.9286,49.7745,972,49.3425,971.9891,49.3161,972.3623,49.51,972.703,49.6256,973.0834,49.8369,973.4447,50.002,973.7678,50.0748,973.9481,50.1495,974.1209,50.5139,974.2698,50.8685,974.2855,51.1679,974.4963,51.5481,974.5,51.8425,975.2022,51.8425,973.7788,61.3,975.1785,70.7575,974.2035,80.2149,975.0338,89.6724,974.5,99.1298,974.3476,99.0667,974.3325,99.4746,974.4355,99.9315,974.0457,100.1843,973.9466,100.5575,973.7678,100.8976,973.811,101.0019,973.4673,101.1722,973.0602,101.1893,972.7437,101.4254,972.2805,101.3071,972,101.6298,972,101.9142,961.9286,102.178,951.8571,102.0744,941.7857,102.2429,931.7143,101.1468,921.6429,100.9776,911.5714,101.0084,901.5,101.571,891.4286,101.4333,881.3571,102.3112,871.2857,101.4552,861.2143,101.2868,851.1429,101.8581,841.0714,100.963,831,101.6298,830.9338,101.47,830.7292,101.6832,830.3485,101.4711,830.033,101.4167,829.5447,100.9449,829.2322,100.8976,829.3305,100.9383,829.2676,100.6194,828.7939,100.1302,828.7634,99.8247,828.6852,99.4995,828.5,99.1298,829.1518,99.1298,828.4958,89.6724,828.9626,80.2149,827.9462,70.7575,827.8227,61.3,828.5,51.8425,828.6551,51.9068,828.4257,51.3975,828.9496,51.2004,829.003,50.8082,829.0033,50.3942,829.2322,50.0748,829.1871,49.9658,829.6443,50.0696,829.9012,49.6897,830.3684,49.8177,830.5759,49.3188,831,49.3425" style="stroke:#181818;stroke-width:0.5;"/><text fill="#000000" font-family="Chalkduster" font-size="30" lengthAdjust="spacing" textLength="132" x="835.5" y="86.1436">Browser</text><polygon fill="#E2E2F0" points="831,630.5028,831,630.7129,841.0714,630.0884,851.1429,630.696,861.2143,630.9024,871.2857,629.7894,881.3571,630.425,891.4286,630.0763,901.5,630.1193,911.5714,630.4346,921.6429,629.8114,931.7143,631.0564,941.7857,629.8725,951.8571,630.305,961.9286,630.9347,972,630.5028,971.9891,630.4763,972.3623,630.6702,972.703,630.7858,973.0834,630.9971,973.4447,631.1622,973.7678,631.235,973.9481,631.3097,974.1209,631.6741,974.2698,632.0287,974.2855,632.3281,974.4963,632.7083,974.5,633.0028,975.2022,633.0028,973.7788,642.4602,975.1785,651.9177,974.2035,661.3751,975.0338,670.8326,974.5,680.2901,974.3476,680.2269,974.3325,680.6349,974.4355,681.0918,974.0457,681.3445,973.9466,681.7177,973.7678,682.0578,973.811,682.1621,973.4673,682.3324,973.0602,682.3495,972.7437,682.5856,972.2805,682.4673,972,682.7901,972,683.0744,961.9286,683.3382,951.8571,683.2346,941.7857,683.4031,931.7143,682.307,921.6429,682.1379,911.5714,682.1687,901.5,682.7312,891.4286,682.5935,881.3571,683.4715,871.2857,682.6154,861.2143,682.447,851.1429,683.0183,841.0714,682.1232,831,682.7901,830.9338,682.6302,830.7292,682.8435,830.3485,682.6313,830.033,682.5769,829.5447,682.1052,829.2322,682.0578,829.3305,682.0985,829.2676,681.7796,828.7939,681.2905,828.7634,680.9849,828.6852,680.6597,828.5,680.2901,829.1518,680.2901,828.4958,670.8326,828.9626,661.3751,827.9462,651.9177,827.8227,642.4602,828.5,633.0028,828.6551,633.067,828.4257,632.5578,828.9496,632.3606,829.003,631.9685,829.0033,631.5544,829.2322,631.235,829.1871,631.126,829.6443,631.2298,829.9012,630.8499,830.3684,630.9779,830.5759,630.479,831,630.5028" style="stroke:#181818;stroke-width:0.5;"/><text fill="#000000" font-family="Chalkduster" font-size="30" lengthAdjust="spacing" textLength="132" x="835.5" y="667.3039">Browser</text><polygon fill="#E2E2F0" points="1511.5,49.3425,1511.5,49.5527,1521.5625,48.9282,1531.625,49.5358,1541.6875,49.7422,1551.75,48.6291,1561.8125,49.2648,1571.875,48.916,1581.9375,48.959,1592,49.2744,1602.0625,48.6512,1612.125,49.8962,1622.1875,48.7123,1632.25,49.1448,1642.3125,49.7745,1652.375,49.2568,1662.4375,49.4108,1672.5,49.3106,1682.5625,49.5211,1692.625,49.5817,1702.6875,49.9282,1712.75,50.0136,1722.8125,50.0218,1732.875,49.5972,1742.9375,49.8061,1753,50.0448,1763.0625,48.6214,1773.125,50.0211,1783.1875,49.046,1793.25,49.8764,1803.3125,48.8475,1813.375,49.274,1823.4375,50.0841,1833.5,49.3425,1833.4938,49.3275,1833.867,49.5214,1834.2503,49.7397,1834.6138,49.9101,1834.9137,49.9271,1835.2678,50.0748,1835.3562,50.1114,1835.2379,50.3553,1835.6482,50.8182,1835.8759,51.2054,1835.9905,51.5457,1836,51.8425,1836.613,51.8425,1835.5169,61.3,1835.3478,70.7575,1835.3786,80.2149,1835.9411,89.6724,1836,99.1298,1835.9395,99.1048,1836.0634,99.5703,1835.6533,99.8147,1835.455,100.1467,1835.4845,100.5732,1835.2678,100.8976,1835.1827,100.6922,1834.848,100.8842,1834.6434,101.3903,1834.2627,101.4711,1833.9472,101.7096,1833.5,101.6298,1833.5,101.308,1823.4375,101.949,1813.375,102.2203,1803.3125,101.1574,1793.25,101.534,1783.1875,101.7558,1773.125,102.2816,1763.0625,101.6256,1753,102.0924,1742.9375,101.076,1732.875,100.9526,1722.8125,102.1334,1712.75,100.9129,1702.6875,102.1388,1692.625,101.8365,1682.5625,101.3619,1672.5,101.2761,1662.4375,102.0886,1652.375,101.3305,1642.3125,102.2217,1632.25,101.0771,1622.1875,102.2473,1612.125,102.1141,1602.0625,101.8748,1592,101.6771,1581.9375,102.3564,1571.875,102.2434,1561.8125,101.7991,1551.75,101.898,1541.6875,101.4996,1531.625,102.3463,1521.5625,101.7847,1511.5,101.6298,1511.522,101.683,1511.0688,101.296,1510.7412,101.2121,1510.507,101.3539,1510.1406,101.1764,1509.7322,100.8976,1509.719,100.8921,1509.4866,100.503,1509.3719,100.1626,1509.0816,99.7494,1509.2742,99.5363,1509,99.1298,1509.7396,99.1298,1509.5264,89.6724,1509.6949,80.2149,1508.8633,70.7575,1509.0872,61.3,1509,51.8425,1508.8806,51.7931,1509.2339,51.5252,1509.3689,51.1669,1509.6095,50.8523,1509.5151,50.399,1509.7322,50.0748,1509.7151,50.0334,1510.1424,50.0649,1510.5117,49.9566,1510.7275,49.4776,1511.1217,49.4293,1511.5,49.3425" style="stroke:#181818;stroke-width:0.5;"/><text fill="#000000" font-family="Chalkduster" font-size="30" lengthAdjust="spacing" textLength="313" x="1516" y="86.1436">ATAP/LDaCA Repo</text><polygon fill="#E2E2F0" points="1511.5,630.5028,1511.5,630.7129,1521.5625,630.0884,1531.625,630.696,1541.6875,630.9024,1551.75,629.7894,1561.8125,630.425,1571.875,630.0763,1581.9375,630.1193,1592,630.4346,1602.0625,629.8114,1612.125,631.0564,1622.1875,629.8725,1632.25,630.305,1642.3125,630.9347,1652.375,630.417,1662.4375,630.571,1672.5,630.4708,1682.5625,630.6813,1692.625,630.7419,1702.6875,631.0884,1712.75,631.1738,1722.8125,631.182,1732.875,630.7574,1742.9375,630.9663,1753,631.205,1763.0625,629.7816,1773.125,631.1813,1783.1875,630.2063,1793.25,631.0366,1803.3125,630.0077,1813.375,630.4343,1823.4375,631.2444,1833.5,630.5028,1833.4938,630.4877,1833.867,630.6816,1834.2503,630.8999,1834.6138,631.0703,1834.9137,631.0873,1835.2678,631.235,1835.3562,631.2716,1835.2379,631.5155,1835.6482,631.9784,1835.8759,632.3656,1835.9905,632.7059,1836,633.0028,1836.613,633.0028,1835.5169,642.4602,1835.3478,651.9177,1835.3786,661.3751,1835.9411,670.8326,1836,680.2901,1835.9395,680.265,1836.0634,680.7305,1835.6533,680.9749,1835.455,681.307,1835.4845,681.7334,1835.2678,682.0578,1835.1827,681.8525,1834.848,682.0444,1834.6434,682.5506,1834.2627,682.6313,1833.9472,682.8698,1833.5,682.7901,1833.5,682.4683,1823.4375,683.1092,1813.375,683.3805,1803.3125,682.3176,1793.25,682.6942,1783.1875,682.916,1773.125,683.4418,1763.0625,682.7859,1753,683.2526,1742.9375,682.2363,1732.875,682.1128,1722.8125,683.2937,1712.75,682.0731,1702.6875,683.299,1692.625,682.9967,1682.5625,682.5221,1672.5,682.4363,1662.4375,683.2488,1652.375,682.4907,1642.3125,683.3819,1632.25,682.2373,1622.1875,683.4075,1612.125,683.2744,1602.0625,683.035,1592,682.8373,1581.9375,683.5167,1571.875,683.4036,1561.8125,682.9593,1551.75,683.0582,1541.6875,682.6598,1531.625,683.5065,1521.5625,682.9449,1511.5,682.7901,1511.522,682.8432,1511.0688,682.4563,1510.7412,682.3724,1510.507,682.5142,1510.1406,682.3366,1509.7322,682.0578,1509.719,682.0523,1509.4866,681.6632,1509.3719,681.3228,1509.0816,680.9096,1509.2742,680.6965,1509,680.2901,1509.7396,680.2901,1509.5264,670.8326,1509.6949,661.3751,1508.8633,651.9177,1509.0872,642.4602,1509,633.0028,1508.8806,632.9533,1509.2339,632.6854,1509.3689,632.3271,1509.6095,632.0126,1509.5151,631.5592,1509.7322,631.235,1509.7151,631.1936,1510.1424,631.2251,1510.5117,631.1168,1510.7275,630.6378,1511.1217,630.5895,1511.5,630.5028" style="stroke:#181818;stroke-width:0.5;"/><text fill="#000000" font-family="Chalkduster" font-size="30" lengthAdjust="spacing" textLength="313" x="1516" y="667.3039">ATAP/LDaCA Repo</text><polygon fill="#E2E2F0" points="1848.5,49.3425,1848.5,49.5527,1858.2222,48.9282,1867.9444,49.5358,1877.6667,49.7422,1887.3889,48.6291,1897.1111,49.2648,1906.8333,48.916,1916.5556,48.959,1926.2778,49.2744,1936,48.6512,1945.7222,49.8962,1955.4444,48.7123,1965.1667,49.1448,1974.8889,49.7745,1984.6111,49.2568,1994.3333,49.4108,2004.0556,49.3106,2013.7778,49.5211,2023.5,49.3425,2023.5305,49.4162,2023.9283,49.6694,2024.2927,49.8421,2024.6473,49.9911,2024.9467,50.0067,2025.2678,50.0748,2025.4105,50.1339,2025.6305,50.5179,2025.3386,50.6899,2025.9161,51.222,2025.7622,51.4512,2026,51.8425,2026.5338,51.8425,2025.505,61.3,2025.9315,70.7575,2026.7416,80.2149,2025.9513,89.6724,2026,99.1298,2026.0324,99.1433,2025.9578,99.5266,2025.8353,99.89,2025.5595,100.19,2025.5027,100.5807,2025.2678,100.8976,2025.1947,100.7213,2024.9505,101.1316,2024.6306,101.3593,2024.2638,101.4738,2023.9318,101.6722,2023.5,101.6298,2023.5,101.1468,2013.7778,100.9776,2004.0556,101.0084,1994.3333,101.571,1984.6111,101.4333,1974.8889,102.3112,1965.1667,101.4552,1955.4444,101.2868,1945.7222,101.8581,1936,100.963,1926.2778,101.1107,1916.5556,102.2788,1906.8333,102.0655,1897.1111,102.3643,1887.3889,101.308,1877.6667,101.949,1867.9444,102.2203,1858.2222,101.1574,1848.5,101.6298,1848.4878,101.6003,1848.1625,101.5222,1847.876,101.5377,1847.4388,101.1892,1847.1448,101.1865,1846.7322,100.8976,1846.5617,100.827,1846.3772,100.4577,1846.5944,100.2547,1846.0721,99.7455,1846.3032,99.5483,1846,99.1298,1846.2066,99.1298,1845.7321,89.6724,1845.6462,80.2149,1846.4588,70.7575,1845.7007,61.3,1846,51.8425,1846.1823,51.918,1845.9762,51.4185,1846.483,51.2142,1846.5885,50.8437,1846.6612,50.4596,1846.7322,50.0748,1846.7383,50.0893,1847.1785,50.1521,1847.5176,49.9708,1847.8145,49.6876,1848.1807,49.5716,1848.5,49.3425" style="stroke:#181818;stroke-width:0.5;"/><text fill="#000000" font-family="Chalkduster" font-size="30" lengthAdjust="spacing" textLength="166" x="1853" y="86.1436">binderhub</text><polygon fill="#E2E2F0" points="1848.5,630.5028,1848.5,630.7129,1858.2222,630.0884,1867.9444,630.696,1877.6667,630.9024,1887.3889,629.7894,1897.1111,630.425,1906.8333,630.0763,1916.5556,630.1193,1926.2778,630.4346,1936,629.8114,1945.7222,631.0564,1955.4444,629.8725,1965.1667,630.305,1974.8889,630.9347,1984.6111,630.417,1994.3333,630.571,2004.0556,630.4708,2013.7778,630.6813,2023.5,630.5028,2023.5305,630.5764,2023.9283,630.8296,2024.2927,631.0023,2024.6473,631.1513,2024.9467,631.167,2025.2678,631.235,2025.4105,631.2941,2025.6305,631.6781,2025.3386,631.8501,2025.9161,632.3822,2025.7622,632.6114,2026,633.0028,2026.5338,633.0028,2025.505,642.4602,2025.9315,651.9177,2026.7416,661.3751,2025.9513,670.8326,2026,680.2901,2026.0324,680.3035,2025.9578,680.6868,2025.8353,681.0503,2025.5595,681.3502,2025.5027,681.7409,2025.2678,682.0578,2025.1947,681.8815,2024.9505,682.2918,2024.6306,682.5195,2024.2638,682.6341,2023.9318,682.8324,2023.5,682.7901,2023.5,682.307,2013.7778,682.1379,2004.0556,682.1687,1994.3333,682.7312,1984.6111,682.5935,1974.8889,683.4715,1965.1667,682.6154,1955.4444,682.447,1945.7222,683.0183,1936,682.1232,1926.2778,682.2709,1916.5556,683.439,1906.8333,683.2257,1897.1111,683.5245,1887.3889,682.4683,1877.6667,683.1092,1867.9444,683.3805,1858.2222,682.3176,1848.5,682.7901,1848.4878,682.7605,1848.1625,682.6824,1847.876,682.6979,1847.4388,682.3494,1847.1448,682.3467,1846.7322,682.0578,1846.5617,681.9872,1846.3772,681.6179,1846.5944,681.415,1846.0721,680.9057,1846.3032,680.7085,1846,680.2901,1846.2066,680.2901,1845.7321,670.8326,1845.6462,661.3751,1846.4588,651.9177,1845.7007,642.4602,1846,633.0028,1846.1823,633.0783,1845.9762,632.5787,1846.483,632.3744,1846.5885,632.0039,1846.6612,631.6198,1846.7322,631.235,1846.7383,631.2495,1847.1785,631.3123,1847.5176,631.1311,1847.8145,630.8478,1848.1807,630.7318,1848.5,630.5028" style="stroke:#181818;stroke-width:0.5;"/><text fill="#000000" font-family="Chalkduster" font-size="30" lengthAdjust="spacing" textLength="166" x="1853" y="667.3039">binderhub</text><polygon fill="#8B0000" points="889.5,152.9171,889.526,152.9822,891.4487,153.5889,893.5239,154.5769,895.5495,155.4408,897.4117,155.8963,899.5,156.9171,899.4904,156.8931,897.4472,157.5851,895.4525,158.3984,893.4916,159.296,891.4144,159.9032,889.5,160.9171,889.6305,161.0476,890.1514,159.9686,891.0534,159.2705,892.0018,158.6189,892.6798,157.6969,893.5,156.9171,893.5161,156.9332,892.6925,156.1096,891.9421,155.3592,891.1564,154.5735,890.438,153.8552,889.5,152.9171" style="stroke:#8B0000;stroke-width:1.0;"/><path d="M82.5,156.9171 L82.5,157.1974 L92.537,156.3647 L102.5741,157.1748 L112.6111,157.45 L122.6481,155.9659 L132.6852,156.8135 L142.7222,156.3485 L152.7593,156.4058 L162.7963,156.8263 L172.8333,155.9953 L182.8704,157.6553 L192.9074,156.0768 L202.9444,156.6534 L212.9815,157.4931 L223.0185,156.8028 L233.0556,157.0081 L243.0926,156.8745 L253.1296,157.1552 L263.1667,157.236 L273.2037,157.698 L283.2407,157.8119 L293.2778,157.8228 L303.3148,157.2566 L313.3519,157.5352 L323.3889,157.8534 L333.4259,155.9555 L343.463,157.8218 L353.5,156.5218 L363.537,157.6289 L373.5741,156.2571 L383.6111,156.8258 L393.6481,157.9059 L403.6852,156.8521 L413.7222,157.0575 L423.7593,157.3686 L433.7963,157.4721 L443.8333,156.9119 L453.8704,157.3001 L463.9074,156.1539 L473.9444,157.2963 L483.9815,157.6481 L494.0185,157.5098 L504.0556,157.7345 L514.0926,156.273 L524.1296,156.0475 L534.1667,156.0886 L544.2037,156.8386 L554.2407,156.6551 L564.2778,157.8257 L574.3148,156.6842 L584.3519,156.4597 L594.3889,157.2215 L604.4259,156.028 L614.463,156.225 L624.5,157.7824 L634.537,157.498 L644.5741,157.8964 L654.6111,156.4881 L664.6481,157.3427 L674.6852,157.7044 L684.7222,156.2873 L694.7593,156.7893 L704.7963,157.0851 L714.8333,157.7861 L724.8704,156.9115 L734.9074,157.5339 L744.9444,156.1787 L754.9815,156.0141 L765.0185,157.5886 L775.0556,155.9612 L785.0926,157.5957 L795.1296,157.1926 L805.1667,156.5599 L815.2037,156.4454 L825.2407,157.5288 L835.2778,156.518 L845.3148,157.7063 L855.3519,156.1801 L865.3889,157.7404 L875.4259,157.5629 L885.463,157.2438 L895.5,156.9171 " fill="none" style="stroke:#8B0000;stroke-width:4.0;"/><text fill="#000000" font-family="Chalkduster" font-size="30" lengthAdjust="spacing" textLength="795" x="89.5" y="146.4309">I have my data, I want to do topic modeling</text><polygon fill="#8B0000" points="1660.5,205.2044,1660.526,205.2695,1662.4487,205.8762,1664.5239,206.8642,1666.5495,207.7281,1668.4117,208.1836,1670.5,209.2044,1670.4904,209.1804,1668.4472,209.8724,1666.4525,210.6857,1664.4916,211.5833,1662.4144,212.1904,1660.5,213.2044,1660.6305,213.3349,1661.1514,212.2559,1662.0534,211.5578,1663.0018,210.9062,1663.6798,209.9842,1664.5,209.2044,1664.5161,209.2205,1663.6925,208.3969,1662.9421,207.6465,1662.1564,206.8608,1661.438,206.1425,1660.5,205.2044" style="stroke:#8B0000;stroke-width:1.0;"/><path d="M901.5,209.2044 L901.5,209.4847 L911.4351,208.652 L921.3701,209.4621 L931.3052,209.7373 L941.2403,208.2532 L951.1753,209.1008 L961.1104,208.6358 L971.0455,208.6931 L980.9805,209.1135 L990.9156,208.2826 L1000.8506,209.9426 L1010.7857,208.364 L1020.7208,208.9407 L1030.6558,209.7803 L1040.5909,209.09 L1050.526,209.2954 L1060.461,209.1618 L1070.3961,209.4425 L1080.3312,209.5233 L1090.2662,209.9853 L1100.2013,210.0992 L1110.1364,210.1101 L1120.0714,209.5439 L1130.0065,209.8225 L1139.9416,210.1407 L1149.8766,208.2428 L1159.8117,210.1091 L1169.7468,208.8091 L1179.6818,209.9162 L1189.6169,208.5444 L1199.5519,209.1131 L1209.487,210.1932 L1219.4221,209.1394 L1229.3571,209.3448 L1239.2922,209.6559 L1249.2273,209.7594 L1259.1623,209.1992 L1269.0974,209.5874 L1279.0325,208.4412 L1288.9675,209.5836 L1298.9026,209.9353 L1308.8377,209.7971 L1318.7727,210.0218 L1328.7078,208.5603 L1338.6429,208.3348 L1348.5779,208.3759 L1358.513,209.1259 L1368.4481,208.9424 L1378.3831,210.113 L1388.3182,208.9715 L1398.2532,208.747 L1408.1883,209.5088 L1418.1234,208.3153 L1428.0584,208.5123 L1437.9935,210.0697 L1447.9286,209.7853 L1457.8636,210.1837 L1467.7987,208.7754 L1477.7338,209.63 L1487.6688,209.9916 L1497.6039,208.5745 L1507.539,209.0766 L1517.474,209.3724 L1527.4091,210.0734 L1537.3442,209.1988 L1547.2792,209.8212 L1557.2143,208.466 L1567.1494,208.3014 L1577.0844,209.8759 L1587.0195,208.2485 L1596.9545,209.883 L1606.8896,209.4799 L1616.8247,208.8472 L1626.7597,208.7327 L1636.6948,209.8161 L1646.6299,208.8053 L1656.5649,209.9936 L1666.5,209.2044 " fill="none" style="stroke:#8B0000;stroke-width:4.0;"/><text fill="#000000" font-family="Chalkduster" font-size="30" lengthAdjust="spacing" textLength="747" x="908.5" y="198.7182">Do we have notebooks for topic modeling?</text><polygon fill="#8B0000" points="912.5,257.4917,912.526,257.5568,910.4487,258.1635,908.5239,259.1515,906.5495,260.0154,904.4117,260.4709,902.5,261.4917,902.4904,261.4677,904.4472,262.1597,906.4525,262.973,908.4916,263.8706,910.4144,264.4777,912.5,265.4917,912.6305,265.6222,911.5514,264.5432,910.8534,263.8451,910.2018,263.1935,909.2798,262.2715,908.5,261.4917,908.5161,261.5078,909.2925,260.6842,910.1421,259.9338,910.9564,259.1481,911.838,258.4298,912.5,257.4917" style="stroke:#8B0000;stroke-width:1.0;"/><path d="M906.5,261.4917 L906.5,261.772 L916.4351,260.9393 L926.3701,261.7494 L936.3052,262.0246 L946.2403,260.5405 L956.1753,261.3881 L966.1104,260.9231 L976.0455,260.9804 L985.9805,261.4008 L995.9156,260.5699 L1005.8506,262.2299 L1015.7857,260.6513 L1025.7208,261.228 L1035.6558,262.0676 L1045.5909,261.3773 L1055.526,261.5827 L1065.461,261.4491 L1075.3961,261.7297 L1085.3312,261.8106 L1095.2662,262.2726 L1105.2013,262.3864 L1115.1364,262.3974 L1125.0714,261.8312 L1135.0065,262.1098 L1144.9416,262.428 L1154.8766,260.5301 L1164.8117,262.3964 L1174.7468,261.0964 L1184.6818,262.2035 L1194.6169,260.8317 L1204.5519,261.4004 L1214.487,262.4805 L1224.4221,261.4267 L1234.3571,261.6321 L1244.2922,261.9432 L1254.2273,262.0467 L1264.1623,261.4865 L1274.0974,261.8747 L1284.0325,260.7285 L1293.9675,261.8709 L1303.9026,262.2226 L1313.8377,262.0844 L1323.7727,262.3091 L1333.7078,260.8476 L1343.6429,260.6221 L1353.5779,260.6632 L1363.513,261.4132 L1373.4481,261.2297 L1383.3831,262.4003 L1393.3182,261.2588 L1403.2532,261.0343 L1413.1883,261.7961 L1423.1234,260.6026 L1433.0584,260.7995 L1442.9935,262.357 L1452.9286,262.0726 L1462.8636,262.471 L1472.7987,261.0627 L1482.7338,261.9173 L1492.6688,262.2789 L1502.6039,260.8618 L1512.539,261.3639 L1522.474,261.6597 L1532.4091,262.3607 L1542.3442,261.4861 L1552.2792,262.1085 L1562.2143,260.7533 L1572.1494,260.5887 L1582.0844,262.1632 L1592.0195,260.5358 L1601.9545,262.1703 L1611.8896,261.7672 L1621.8247,261.1345 L1631.7597,261.02 L1641.6948,262.1034 L1651.6299,261.0926 L1661.5649,262.2809 L1671.5,261.4917 " fill="none" style="stroke:#8B0000;stroke-width:4.0;"/><text fill="#000000" font-family="Chalkduster" font-size="30" lengthAdjust="spacing" textLength="195" x="918.5" y="251.0055">Here's three</text><polygon fill="#8B0000" points="889.5,309.779,889.526,309.8441,891.4487,310.4508,893.5239,311.4388,895.5495,312.3027,897.4117,312.7582,899.5,313.779,899.4904,313.755,897.4472,314.447,895.4525,315.2603,893.4916,316.1579,891.4144,316.765,889.5,317.779,889.6305,317.9095,890.1514,316.8304,891.0534,316.1324,892.0018,315.4808,892.6798,314.5588,893.5,313.779,893.5161,313.7951,892.6925,312.9715,891.9421,312.2211,891.1564,311.4354,890.438,310.7171,889.5,309.779" style="stroke:#8B0000;stroke-width:1.0;"/><path d="M82.5,313.779 L82.5,314.0592 L92.537,313.2266 L102.5741,314.0367 L112.6111,314.3119 L122.6481,312.8278 L132.6852,313.6754 L142.7222,313.2103 L152.7593,313.2677 L162.7963,313.6881 L172.8333,312.8572 L182.8704,314.5172 L192.9074,312.9386 L202.9444,313.5153 L212.9815,314.3549 L223.0185,313.6646 L233.0556,313.87 L243.0926,313.7364 L253.1296,314.017 L263.1667,314.0978 L273.2037,314.5599 L283.2407,314.6737 L293.2778,314.6847 L303.3148,314.1185 L313.3519,314.3971 L323.3889,314.7153 L333.4259,312.8174 L343.463,314.6837 L353.5,313.3837 L363.537,314.4908 L373.5741,313.119 L383.6111,313.6877 L393.6481,314.7678 L403.6852,313.714 L413.7222,313.9194 L423.7593,314.2305 L433.7963,314.334 L443.8333,313.7738 L453.8704,314.162 L463.9074,313.0158 L473.9444,314.1582 L483.9815,314.5099 L494.0185,314.3717 L504.0556,314.5964 L514.0926,313.1349 L524.1296,312.9094 L534.1667,312.9505 L544.2037,313.7005 L554.2407,313.517 L564.2778,314.6876 L574.3148,313.5461 L584.3519,313.3216 L594.3889,314.0834 L604.4259,312.8899 L614.463,313.0868 L624.5,314.6443 L634.537,314.3599 L644.5741,314.7583 L654.6111,313.3499 L664.6481,314.2046 L674.6852,314.5662 L684.7222,313.1491 L694.7593,313.6512 L704.7963,313.947 L714.8333,314.648 L724.8704,313.7734 L734.9074,314.3958 L744.9444,313.0406 L754.9815,312.876 L765.0185,314.4505 L775.0556,312.8231 L785.0926,314.4576 L795.1296,314.0545 L805.1667,313.4218 L815.2037,313.3073 L825.2407,314.3907 L835.2778,313.3799 L845.3148,314.5682 L855.3519,313.042 L865.3889,314.6022 L875.4259,314.4247 L885.463,314.1056 L895.5,313.779 " fill="none" style="stroke:#8B0000;stroke-width:4.0;"/><text fill="#000000" font-family="Chalkduster" font-size="30" lengthAdjust="spacing" textLength="447" x="89.5" y="303.2928">I want to run notebook 2</text><polygon fill="#8B0000" points="1660.5,362.0663,1660.526,362.1313,1662.4487,362.7381,1664.5239,363.7261,1666.5495,364.59,1668.4117,365.0455,1670.5,366.0663,1670.4904,366.0422,1668.4472,366.7343,1666.4525,367.5476,1664.4916,368.4452,1662.4144,369.0523,1660.5,370.0663,1660.6305,370.1968,1661.1514,369.1177,1662.0534,368.4197,1663.0018,367.7681,1663.6798,366.8461,1664.5,366.0663,1664.5161,366.0824,1663.6925,365.2588,1662.9421,364.5084,1662.1564,363.7227,1661.438,363.0043,1660.5,362.0663" style="stroke:#8B0000;stroke-width:1.0;"/><path d="M901.5,366.0663 L901.5,366.3465 L911.4351,365.5139 L921.3701,366.324 L931.3052,366.5992 L941.2403,365.1151 L951.1753,365.9627 L961.1104,365.4976 L971.0455,365.555 L980.9805,365.9754 L990.9156,365.1445 L1000.8506,366.8045 L1010.7857,365.2259 L1020.7208,365.8026 L1030.6558,366.6422 L1040.5909,365.9519 L1050.526,366.1573 L1060.461,366.0237 L1070.3961,366.3043 L1080.3312,366.3851 L1090.2662,366.8472 L1100.2013,366.961 L1110.1364,366.972 L1120.0714,366.4058 L1130.0065,366.6844 L1139.9416,367.0026 L1149.8766,365.1047 L1159.8117,366.971 L1169.7468,365.671 L1179.6818,366.778 L1189.6169,365.4063 L1199.5519,365.975 L1209.487,367.0551 L1219.4221,366.0013 L1229.3571,366.2067 L1239.2922,366.5178 L1249.2273,366.6213 L1259.1623,366.0611 L1269.0974,366.4492 L1279.0325,365.3031 L1288.9675,366.4455 L1298.9026,366.7972 L1308.8377,366.659 L1318.7727,366.8837 L1328.7078,365.4222 L1338.6429,365.1967 L1348.5779,365.2378 L1358.513,365.9878 L1368.4481,365.8043 L1378.3831,366.9748 L1388.3182,365.8334 L1398.2532,365.6089 L1408.1883,366.3707 L1418.1234,365.1772 L1428.0584,365.3741 L1437.9935,366.9316 L1447.9286,366.6472 L1457.8636,367.0456 L1467.7987,365.6372 L1477.7338,366.4919 L1487.6688,366.8535 L1497.6039,365.4364 L1507.539,365.9385 L1517.474,366.2343 L1527.4091,366.9353 L1537.3442,366.0607 L1547.2792,366.6831 L1557.2143,365.3279 L1567.1494,365.1633 L1577.0844,366.7378 L1587.0195,365.1104 L1596.9545,366.7449 L1606.8896,366.3418 L1616.8247,365.7091 L1626.7597,365.5946 L1636.6948,366.678 L1646.6299,365.6672 L1656.5649,366.8554 L1666.5,366.0663 " fill="none" style="stroke:#8B0000;stroke-width:4.0;"/><text fill="#000000" font-family="Chalkduster" font-size="30" lengthAdjust="spacing" textLength="260" x="908.5" y="355.5801">(what she said)</text><polygon fill="#8B0000" points="912.5,452.6409,912.526,452.7059,910.4487,453.3127,908.5239,454.3007,906.5495,455.1646,904.4117,455.6201,902.5,456.6409,902.4904,456.6168,904.4472,457.3089,906.4525,458.1222,908.4916,459.0198,910.4144,459.6269,912.5,460.6409,912.6305,460.7714,911.5514,459.6923,910.8534,458.9943,910.2018,458.3427,909.2798,457.4207,908.5,456.6409,908.5161,456.657,909.2925,455.8334,910.1421,455.083,910.9564,454.2972,911.838,453.5789,912.5,452.6409" style="stroke:#8B0000;stroke-width:1.0;"/><path d="M906.5,456.6409 L906.5,456.9211 L916.4351,456.0885 L926.3701,456.8986 L936.3052,457.1738 L946.2403,455.6897 L956.1753,456.5373 L966.1104,456.0722 L976.0455,456.1295 L985.9805,456.55 L995.9156,455.7191 L1005.8506,457.3791 L1015.7857,455.8005 L1025.7208,456.3772 L1035.6558,457.2168 L1045.5909,456.5265 L1055.526,456.7319 L1065.461,456.5983 L1075.3961,456.8789 L1085.3312,456.9597 L1095.2662,457.4218 L1105.2013,457.5356 L1115.1364,457.5466 L1125.0714,456.9804 L1135.0065,457.259 L1144.9416,457.5772 L1154.8766,455.6793 L1164.8117,457.5456 L1174.7468,456.2455 L1184.6818,457.3526 L1194.6169,455.9808 L1204.5519,456.5495 L1214.487,457.6297 L1224.4221,456.5759 L1234.3571,456.7813 L1244.2922,457.0924 L1254.2273,457.1959 L1264.1623,456.6357 L1274.0974,457.0238 L1284.0325,455.8777 L1293.9675,457.0201 L1303.9026,457.3718 L1313.8377,457.2336 L1323.7727,457.4582 L1333.7078,455.9968 L1343.6429,455.7713 L1353.5779,455.8123 L1363.513,456.5624 L1373.4481,456.3788 L1383.3831,457.5494 L1393.3182,456.408 L1403.2532,456.1835 L1413.1883,456.9452 L1423.1234,455.7518 L1433.0584,455.9487 L1442.9935,457.5061 L1452.9286,457.2218 L1462.8636,457.6202 L1472.7987,456.2118 L1482.7338,457.0665 L1492.6688,457.4281 L1502.6039,456.011 L1512.539,456.5131 L1522.474,456.8089 L1532.4091,457.5099 L1542.3442,456.6353 L1552.2792,457.2576 L1562.2143,455.9025 L1572.1494,455.7379 L1582.0844,457.3124 L1592.0195,455.685 L1601.9545,457.3195 L1611.8896,456.9164 L1621.8247,456.2837 L1631.7597,456.1692 L1641.6948,457.2526 L1651.6299,456.2418 L1661.5649,457.43 L1671.5,456.6409 " fill="none" style="stroke:#8B0000;stroke-width:4.0;"/><text fill="#000000" font-family="Chalkduster" font-size="30" lengthAdjust="spacing" textLength="349" x="918.5" y="407.8674">Notebook record w/</text><text fill="#000000" font-family="Chalkduster" font-size="30" lengthAdjust="spacing" textLength="282" x="918.5" y="446.1547">"RUN ME" button</text><polygon fill="#8B0000" points="889.5,504.9282,889.526,504.9932,891.4487,505.5999,893.5239,506.588,895.5495,507.4519,897.4117,507.9074,899.5,508.9282,899.4904,508.9041,897.4472,509.5962,895.4525,510.4095,893.4916,511.3071,891.4144,511.9142,889.5,512.9282,889.6305,513.0587,890.1514,511.9796,891.0534,511.2816,892.0018,510.63,892.6798,509.708,893.5,508.9282,893.5161,508.9443,892.6925,508.1206,891.9421,507.3703,891.1564,506.5845,890.438,505.8662,889.5,504.9282" style="stroke:#8B0000;stroke-width:1.0;"/><path d="M82.5,508.9282 L82.5,509.2084 L92.537,508.3757 L102.5741,509.1859 L112.6111,509.4611 L122.6481,507.977 L132.6852,508.8246 L142.7222,508.3595 L152.7593,508.4168 L162.7963,508.8373 L172.8333,508.0063 L182.8704,509.6664 L192.9074,508.0878 L202.9444,508.6645 L212.9815,509.5041 L223.0185,508.8138 L233.0556,509.0192 L243.0926,508.8856 L253.1296,509.1662 L263.1667,509.247 L273.2037,509.7091 L283.2407,509.8229 L293.2778,509.8338 L303.3148,509.2677 L313.3519,509.5463 L323.3889,509.8645 L333.4259,507.9666 L343.463,509.8329 L353.5,508.5328 L363.537,509.6399 L373.5741,508.2681 L383.6111,508.8368 L393.6481,509.917 L403.6852,508.8632 L413.7222,509.0686 L423.7593,509.3797 L433.7963,509.4831 L443.8333,508.923 L453.8704,509.3111 L463.9074,508.1649 L473.9444,509.3074 L483.9815,509.6591 L494.0185,509.5209 L504.0556,509.7455 L514.0926,508.2841 L524.1296,508.0586 L534.1667,508.0996 L544.2037,508.8497 L554.2407,508.6661 L564.2778,509.8367 L574.3148,508.6953 L584.3519,508.4708 L594.3889,509.2325 L604.4259,508.0391 L614.463,508.236 L624.5,509.7934 L634.537,509.5091 L644.5741,509.9075 L654.6111,508.4991 L664.6481,509.3538 L674.6852,509.7154 L684.7222,508.2983 L694.7593,508.8004 L704.7963,509.0962 L714.8333,509.7972 L724.8704,508.9226 L734.9074,509.5449 L744.9444,508.1898 L754.9815,508.0252 L765.0185,509.5997 L775.0556,507.9723 L785.0926,509.6068 L795.1296,509.2037 L805.1667,508.571 L815.2037,508.4565 L825.2407,509.5399 L835.2778,508.5291 L845.3148,509.7173 L855.3519,508.1912 L865.3889,509.7514 L875.4259,509.5739 L885.463,509.2548 L895.5,508.9282 " fill="none" style="stroke:#8B0000;stroke-width:4.0;"/><text fill="#000000" font-family="Chalkduster" font-size="30" lengthAdjust="spacing" textLength="404" x="89.5" y="498.442">Clicks "RUN ME" button</text><polygon fill="#8B0000" points="1924,557.2155,1924.026,557.2805,1925.9487,557.8872,1928.0239,558.8753,1930.0495,559.7392,1931.9117,560.1947,1934,561.2155,1933.9904,561.1914,1931.9472,561.8835,1929.9525,562.6968,1927.9916,563.5944,1925.9144,564.2015,1924,565.2155,1924.1305,565.346,1924.6514,564.2669,1925.5534,563.5689,1926.5018,562.9173,1927.1798,561.9952,1928,561.2155,1928.0161,561.2315,1927.1925,560.4079,1926.4421,559.6575,1925.6564,558.8718,1924.938,558.1535,1924,557.2155" style="stroke:#8B0000;stroke-width:1.0;"/><path d="M901.5,561.2155 L901.5,561.4957 L911.4854,560.663 L921.4709,561.4732 L931.4563,561.7484 L941.4417,560.2643 L951.4272,561.1118 L961.4126,560.6468 L971.3981,560.7041 L981.3835,561.1246 L991.3689,560.2936 L1001.3544,561.9537 L1011.3398,560.3751 L1021.3252,560.9518 L1031.3107,561.7914 L1041.2961,561.1011 L1051.2816,561.3064 L1061.267,561.1729 L1071.2524,561.4535 L1081.2379,561.5343 L1091.2233,561.9964 L1101.2087,562.1102 L1111.1942,562.1211 L1121.1796,561.555 L1131.165,561.8336 L1141.1505,562.1518 L1151.1359,560.2539 L1161.1214,562.1201 L1171.1068,560.8201 L1181.0922,561.9272 L1191.0777,560.5554 L1201.0631,561.1241 L1211.0485,562.2043 L1221.034,561.1505 L1231.0194,561.3559 L1241.0049,561.667 L1250.9903,561.7704 L1260.9757,561.2103 L1270.9612,561.5984 L1280.9466,560.4522 L1290.932,561.5946 L1300.9175,561.9464 L1310.9029,561.8082 L1320.8883,562.0328 L1330.8738,560.5714 L1340.8592,560.3459 L1350.8447,560.3869 L1360.8301,561.137 L1370.8155,560.9534 L1380.801,562.124 L1390.7864,560.9826 L1400.7718,560.7581 L1410.7573,561.5198 L1420.7427,560.3263 L1430.7282,560.5233 L1440.7136,562.0807 L1450.699,561.7964 L1460.6845,562.1948 L1470.6699,560.7864 L1480.6553,561.6411 L1490.6408,562.0027 L1500.6262,560.5856 L1510.6117,561.0877 L1520.5971,561.3834 L1530.5825,562.0845 L1540.568,561.2099 L1550.5534,561.8322 L1560.5388,560.4771 L1570.5243,560.3125 L1580.5097,561.8869 L1590.4951,560.2595 L1600.4806,561.8941 L1610.466,561.491 L1620.4515,560.8582 L1630.4369,560.7438 L1640.4223,561.8271 L1650.4078,560.8164 L1660.3932,562.0046 L1670.3786,560.4785 L1680.3641,562.0387 L1690.3495,561.8612 L1700.335,561.5421 L1710.3204,561.2784 L1720.3058,562.1843 L1730.2913,562.0336 L1740.2767,561.4411 L1750.2621,561.5731 L1760.2476,561.0418 L1770.233,562.1707 L1780.2184,561.422 L1790.2039,561.4456 L1800.1893,560.4043 L1810.1748,560.6752 L1820.1602,561.9231 L1830.1456,561.7885 L1840.1311,561.1582 L1850.1165,560.7859 L1860.1019,560.9236 L1870.0874,560.3006 L1880.0728,561.7684 L1890.0583,562.2016 L1900.0437,561.9173 L1910.0291,562.142 L1920.0146,561.0332 L1930,561.2155 " fill="none" style="stroke:#8B0000;stroke-width:4.0;"/><text fill="#000000" font-family="Chalkduster" font-size="30" lengthAdjust="spacing" textLength="287" x="908.5" y="550.7293">Start Notebook 2</text><polygon fill="#8B0000" points="912.5,609.5028,912.526,609.5678,910.4487,610.1745,908.5239,611.1626,906.5495,612.0265,904.4117,612.482,902.5,613.5028,902.4904,613.4787,904.4472,614.1708,906.4525,614.9841,908.4916,615.8817,910.4144,616.4888,912.5,617.5028,912.6305,617.6333,911.5514,616.5542,910.8534,615.8561,910.2018,615.2046,909.2798,614.2825,908.5,613.5028,908.5161,613.5188,909.2925,612.6952,910.1421,611.9448,910.9564,611.1591,911.838,610.4408,912.5,609.5028" style="stroke:#8B0000;stroke-width:1.0;"/><path d="M906.5,613.5028 L906.5,613.783 L916.4854,612.9503 L926.4709,613.7605 L936.4563,614.0357 L946.4417,612.5516 L956.4272,613.3991 L966.4126,612.9341 L976.3981,612.9914 L986.3835,613.4119 L996.3689,612.5809 L1006.3544,614.2409 L1016.3398,612.6624 L1026.3252,613.2391 L1036.3107,614.0787 L1046.2961,613.3884 L1056.2816,613.5937 L1066.267,613.4602 L1076.2524,613.7408 L1086.2379,613.8216 L1096.2233,614.2837 L1106.2087,614.3975 L1116.1942,614.4084 L1126.1796,613.8423 L1136.165,614.1209 L1146.1505,614.4391 L1156.1359,612.5412 L1166.1214,614.4074 L1176.1068,613.1074 L1186.0922,614.2145 L1196.0777,612.8427 L1206.0631,613.4114 L1216.0485,614.4916 L1226.034,613.4378 L1236.0194,613.6432 L1246.0049,613.9543 L1255.9903,614.0577 L1265.9757,613.4975 L1275.9612,613.8857 L1285.9466,612.7395 L1295.932,613.8819 L1305.9175,614.2337 L1315.9029,614.0955 L1325.8883,614.3201 L1335.8738,612.8587 L1345.8592,612.6332 L1355.8447,612.6742 L1365.8301,613.4243 L1375.8155,613.2407 L1385.801,614.4113 L1395.7864,613.2699 L1405.7718,613.0454 L1415.7573,613.8071 L1425.7427,612.6136 L1435.7282,612.8106 L1445.7136,614.368 L1455.699,614.0836 L1465.6845,614.4821 L1475.6699,613.0737 L1485.6553,613.9284 L1495.6408,614.29 L1505.6262,612.8729 L1515.6117,613.3749 L1525.5971,613.6707 L1535.5825,614.3718 L1545.568,613.4972 L1555.5534,614.1195 L1565.5388,612.7644 L1575.5243,612.5997 L1585.5097,614.1742 L1595.4951,612.5468 L1605.4806,614.1814 L1615.466,613.7783 L1625.4515,613.1455 L1635.4369,613.0311 L1645.4223,614.1144 L1655.4078,613.1036 L1665.3932,614.2919 L1675.3786,612.7658 L1685.3641,614.326 L1695.3495,614.1485 L1705.335,613.8294 L1715.3204,613.5657 L1725.3058,614.4716 L1735.2913,614.3209 L1745.2767,613.7284 L1755.2621,613.8603 L1765.2476,613.3291 L1775.233,614.458 L1785.2184,613.7092 L1795.2039,613.7329 L1805.1893,612.6916 L1815.1748,612.9625 L1825.1602,614.2104 L1835.1456,614.0758 L1845.1311,613.4455 L1855.1165,613.0732 L1865.1019,613.2109 L1875.0874,612.5879 L1885.0728,614.0557 L1895.0583,614.4888 L1905.0437,614.2046 L1915.0291,614.4293 L1925.0146,613.3205 L1935,613.5028 " fill="none" style="stroke:#8B0000;stroke-width:4.0;"/><text fill="#000000" font-family="Chalkduster" font-size="30" lengthAdjust="spacing" textLength="370" x="918.5" y="603.0166">Return live notebook</text><!--MD5=[edc0633df78affeb3bc31ed505ca0262]
@startuml
!include ../data-management-style.txt

actor Researcher as r
   skinparam defaultFontSize 30
   skinparam actorFontSize 30
   r -> "Browser" as b : I have my data, I want to do topic modeling
   b -> "ATAP/LDaCA Repo" as port : Do we have notebooks for topic modeling?
   port -> b : Here's three
   r -> b : I want to run notebook 2
   b -> "ATAP/LDaCA Repo" as port : (what she said)
   port -> b : Notebook record w/\n"RUN ME" button
   r -> b: Clicks "RUN ME" button
   b -> binderhub : Start Notebook 2
   binderhub -> b : Return live notebook
@enduml

@startuml

skinparam defaultFontName Chalkduster
skinparam handwritten true
skinparam FontSize 24
skinparam InterfaceFontSize 24

skinparam titleFontSize 42
skinparam arrowFontSize 24
skinparam arrowColor DarkRed

skinparam arrowThickness 4



skinparam note  {
    BackgroundColor<< workspace >>  #FFC7D8
    BackgroundColor<< repository >>  springgreen
    BackgroundColor<< support >>  yellow
    BorderThickness 4
    BackgroundColor transparent
    FontSize 24

}

skinparam actor  {
    BackgroundColor<< workspace >>  #FFC7D8
    BorderColor DarkRed

    BackgroundColor<< repository >>  springgreen


    BackgroundColor<< support >>  yellow
    FontColor<< support >>  #FFC7D8


    BorderThickness 4
    BackgroundColor transparent
    FontSize 24


}

skinparam rectangle  {
    BackgroundColor<< workspace >>  #FFC7D8

    BackgroundColor<< repository >>  springgreen


    BackgroundColor<< support >>  yellow


    BorderThickness 4
    BackgroundColor transparent
    FontSize 24


}

skinparam cloud  {
    BackgroundColor<< workspace >>  #FFC7D8
    BackgroundColor<< repository >>  springgreen
    BackgroundColor<< support >>  yellow
    BorderThickness 4
    BackgroundColor transparent

    FontSize 24

}

skinparam database  {
    BackgroundColor<< workspace >>  #FFC7D8
    BackgroundColor<< repository >>  springgreen
    BackgroundColor<< support >>  lightyellow
    BorderThickness 4
    BackgroundColor transparent

    FontSize 24
}

actor Researcher as r
   skinparam defaultFontSize 30
   skinparam actorFontSize 30
   r -> "Browser" as b : I have my data, I want to do topic modeling
   b -> "ATAP/LDaCA Repo" as port : Do we have notebooks for topic modeling?
   port -> b : Here's three
   r -> b : I want to run notebook 2
   b -> "ATAP/LDaCA Repo" as port : (what she said)
   port -> b : Notebook record w/\n"RUN ME" button
   r -> b: Clicks "RUN ME" button
   b -> binderhub : Start Notebook 2
   binderhub -> b : Return live notebook
@enduml

PlantUML version 1.2022.7(Tue Aug 23 03:01:30 AEST 2022)
(GPL source distribution)
Java Runtime: OpenJDK Runtime Environment
JVM: OpenJDK 64-Bit Server VM
Default Encoding: UTF-8
Language: en
Country: AU
--></g></svg>