<?xml version="1.0" encoding="UTF-8" standalone="no"?><svg xmlns="http://www.w3.org/2000/svg" xmlns:xlink="http://www.w3.org/1999/xlink" contentStyleType="text/css" height="419px" preserveAspectRatio="none" style="width:435px;height:419px;background:#FFFFFF;" version="1.1" viewBox="0 0 435 419" width="435px" zoomAndPan="magnify"><defs/><g><text fill="#000000" font-family="Chalkduster" font-size="42" font-weight="bold" lengthAdjust="spacing" textLength="384" x="18.5" y="51.7215">Dettached Crate</text><!--cluster One payload file RO-Crate package--><g id="cluster_One payload file RO-Crate package"><path d="M8.5,81.0624 L8.5,81.6229 L18.6034,79.9576 L28.7069,81.5779 L38.8103,82.1282 L48.9138,79.16 L59.0172,80.8552 L69.1207,79.9251 L79.2241,80.0398 L89.3276,80.8807 L99.431,79.2188 L109.5345,82.5388 L119.6379,79.3817 L129.7414,80.5351 L139.8448,82.2143 L149.9483,80.8337 L160.0517,81.2444 L170.1552,80.9772 L180.2586,81.5385 L190.3621,81.7001 L200.4655,82.6243 L210.569,82.8519 L220.6724,82.8738 L230.7759,81.7414 L240.8793,82.2987 L250.9828,82.935 L261.0862,79.1393 L271.1897,82.8718 L281.2931,80.2718 L291.3966,82.4859 L301.5,81.0624 L304,83.5624 L303.5818,83.4254 L305.3421,87.817 L307.4264,92.3146 L308.1588,96.3694 L309.689,100.6855 L311,104.9298 L311,105.8328 L321.4091,106.0398 L331.8182,104.9194 L342.2273,105.6957 L352.6364,103.4034 L363.0455,105.6882 L373.4545,106.3917 L383.8636,106.1153 L394.2727,106.5646 L404.6818,103.6416 L415.0909,103.1907 L425.5,104.9298 L428,107.4298 L426.3429,107.4298 L427.843,117.6668 L427.4759,127.9037 L429.8171,138.1407 L427.5342,148.3777 L427.0852,158.6146 L428.6087,168.8516 L426.2218,179.0885 L426.6157,189.3255 L428,199.5624 L425.5,202.0624 L425.5,203.793 L415.5714,203.2242 L405.6429,204.0211 L395.7143,201.2043 L385.7857,202.9136 L375.8571,203.6369 L365.9286,200.8027 L356,201.8068 L346.0714,202.3984 L336.1429,203.8005 L326.2143,202.0513 L316.2857,203.2959 L306.3571,200.5857 L296.4286,200.2564 L286.5,203.4054 L276.5714,200.1506 L266.6429,203.4197 L256.7143,202.6134 L246.7857,201.348 L236.8571,201.119 L226.9286,203.2858 L217,201.2642 L207.0714,203.6407 L197.1429,200.5884 L187.2143,203.7089 L177.2857,203.3539 L167.3571,202.7157 L157.4286,202.1883 L147.5,204.0001 L137.5714,203.6986 L127.6429,202.5138 L117.7143,202.7776 L107.7857,201.7151 L97.8571,203.973 L87.9286,202.4754 L78,202.5226 L68.0714,200.4402 L58.1429,200.9818 L48.2143,203.4778 L38.2857,203.2085 L28.3571,201.9479 L18.4286,201.2033 L8.5,202.0624 L6,199.5624 L5.4162,199.5624 L4.1702,189.8958 L7.106,180.2291 L7.9722,170.5624 L7.4037,160.8958 L7.8532,151.2291 L5.6354,141.5624 L6.2326,131.8958 L4.9664,122.2291 L6.7574,112.5624 L6.658,102.8958 L7.473,93.2291 L6,83.5624 L8.5,81.0624 " fill="#E6E6FA" style="stroke:#000000;stroke-width:1.5;"/><path d="M6,104.9298 L6,105.2101 L15.8387,104.3774 L25.6774,105.1876 L35.5161,105.4627 L45.3548,103.9786 L55.1935,104.8262 L65.0323,104.3612 L74.871,104.4185 L84.7097,104.839 L94.5484,104.008 L104.3871,105.668 L114.2258,104.0895 L124.0645,104.6661 L133.9032,105.5058 L143.7419,104.8155 L153.5806,105.0208 L163.4194,104.8872 L173.2581,105.1679 L183.0968,105.2487 L192.9355,105.7108 L202.7742,105.8246 L212.6129,105.8355 L222.4516,105.2693 L232.2903,105.5479 L242.129,105.8661 L251.9677,103.9683 L261.8065,105.8345 L271.6452,104.5345 L281.4839,105.6416 L291.3226,104.2698 L301.1613,104.8385 L311,104.9298 " fill="#E6E6FA" style="stroke:#000000;stroke-width:1.5;"/><text fill="#000000" font-family="Chalkduster" font-size="14" font-weight="bold" lengthAdjust="spacing" textLength="292" x="10" y="96.9696">One payload file RO-Crate package</text><text fill="#000000" font-family="Chalkduster" font-size="14" font-style="italic" lengthAdjust="spacing" textLength="98" x="172" y="120.837">«standards»</text></g><!--cluster Some Repository Service--><g id="cluster_Some Repository Service"><polygon fill="#98FB98" points="42.5,266.0624,42.5,266.2726,52.5,265.6481,62.5,266.2557,72.5,266.4621,82.5,265.349,92.5,265.9847,102.5,265.6359,112.5,265.6789,122.5,265.9943,132.5,265.3711,142.5,266.6161,152.5,265.4322,162.5,265.8647,172.5,266.4944,182.5,265.9767,192.5,266.1307,202.5,266.0305,212.5,266.241,222.5,266.3016,232.5,266.6481,242.5,266.7335,252.5,266.7417,262.5,266.3171,272.5,266.526,282.5,266.7647,292.5,265.3412,302.5,266.7409,312.5,265.7659,322.5,266.5962,332.5,265.5674,342.5,265.9939,352.5,266.804,362.5,266.0137,372.5,266.1677,382.5,266.0624,382.5432,266.1667,382.9066,266.3371,383.2066,266.3541,383.5973,266.5902,383.8412,266.4719,384.2678,266.7947,384.3553,266.8309,384.583,267.2181,384.6976,267.5585,384.8959,267.9335,384.7048,268.1473,385,268.5624,384.3478,268.5624,384.3786,278.7053,384.9411,288.8481,384.8035,298.991,385.6814,309.1339,384.8253,319.2767,384.6569,329.4196,385.2283,339.5624,384.3332,349.7053,384.4809,359.8481,385.649,369.991,385.4357,380.1339,385.7345,390.2767,384.6782,400.4196,385,410.5624,385.0983,410.6031,385.0354,410.9913,384.5616,411.2093,384.5311,411.6109,384.453,411.9927,384.2678,412.3302,384.3509,412.5309,383.9137,412.4754,383.6197,412.7655,383.1365,412.599,382.7672,412.7074,382.5,413.0624,382.5,413.566,372.5,412.3455,362.5,413.5714,352.5,413.2691,342.5,412.7945,332.5,412.7087,322.5,413.5212,312.5,412.7631,302.5,413.6543,292.5,412.5097,282.5,413.6799,272.5,413.5467,262.5,413.3074,252.5,413.1097,242.5,413.789,232.5,413.676,222.5,413.2317,212.5,413.3306,202.5,412.9322,192.5,413.7789,182.5,413.2173,172.5,413.235,162.5,412.4541,152.5,412.6572,142.5,413.5932,132.5,413.4922,122.5,413.0195,112.5,412.7403,102.5,412.8435,92.5,412.3763,82.5,413.4772,72.5,413.802,62.5,413.5888,52.5,413.7574,42.5,413.0624,42.4826,413.0203,42.1576,412.9428,41.7435,412.6502,41.4756,412.7106,41.1173,412.5526,40.7322,412.3302,40.9023,412.4007,40.5151,411.9473,40.3979,411.6059,40.4295,411.3261,40.3212,410.9884,40,410.5624,39.4875,410.5624,39.8061,400.4196,40.1493,390.2767,39.3892,380.1339,40.3534,369.991,40.258,359.8481,39.8992,349.7053,40.1422,339.5624,40.7287,329.4196,39.6871,319.2767,40.315,309.1339,40.2856,298.991,40.1158,288.8481,40.1409,278.7053,40,268.5624,40.0349,268.5769,39.9542,268.1293,40.1695,267.8042,40.2972,267.4429,40.6054,267.1564,40.7322,266.7947,40.7435,266.8218,41.1064,266.698,41.4022,266.4122,41.7843,266.3345,42.1311,266.1719,42.5,266.0624" style="stroke:#181818;stroke-width:4.0;"/><text fill="#000000" font-family="Chalkduster" font-size="24" font-style="italic" lengthAdjust="spacing" textLength="169" x="128" y="291.9033">«repository»</text><text fill="#000000" font-family="Chalkduster" font-size="24" font-weight="bold" lengthAdjust="spacing" textLength="329" x="48" y="322.5331">Some Repository Service</text></g><!--entity rmd--><g id="elem_rmd"><polygon fill="none" points="24.5,135.0624,24.5,135.2726,34.3718,134.6481,44.2436,135.2557,54.1154,135.4621,63.9872,134.349,73.859,134.9847,83.7308,134.6359,93.6026,134.6789,103.4744,134.9943,113.3462,134.3711,123.2179,135.6161,133.0897,134.4322,142.9615,134.8647,152.8333,135.4944,162.7051,134.9767,172.5769,135.1307,182.4487,135.0305,192.3205,135.241,202.1923,135.3016,212.0641,135.6481,221.9359,135.7335,231.8077,135.7417,241.6795,135.3171,251.5513,135.526,261.4231,135.7647,271.2949,134.3412,281.1667,135.7409,291.0385,134.7659,300.9103,135.5962,310.7821,134.5674,320.6538,134.9939,330.5256,135.804,340.3974,135.0137,350.2692,135.1677,360.141,135.4011,370.0128,135.4787,379.8846,135.0585,389.7564,135.3496,399.6282,134.49,409.5,135.0624,409.5363,135.15,409.9235,135.3777,410.2638,135.4922,410.6389,135.6906,410.8526,135.4994,411.2678,135.7947,411.0669,135.7115,411.2228,136.069,411.5425,136.4943,411.6466,136.8303,412.0634,137.2958,412,137.5624,411.8253,137.5624,411.6569,146.6884,412.2283,155.8144,411.3332,164.9403,411.4809,174.0663,412,183.1923,412.1999,183.275,411.9877,183.6014,411.9333,183.9931,411.4616,184.2119,411.5125,184.6472,411.2678,184.96,411.3431,185.1419,410.854,184.961,410.5484,185.2234,410.2232,185.4382,409.9367,185.7465,409.5,185.6923,409.5,185.6881,399.6282,186.1548,389.7564,185.1385,379.8846,185.015,370.0128,186.1959,360.141,184.9753,350.2692,186.2012,340.3974,185.8989,330.5256,185.4243,320.6538,185.3385,310.7821,186.151,300.9103,185.3929,291.0385,186.2841,281.1667,185.1395,271.2949,186.3097,261.4231,186.1766,251.5513,185.9372,241.6795,185.7395,231.8077,186.4189,221.9359,186.3058,212.0641,185.8615,202.1923,185.9605,192.3205,185.562,182.4487,186.4087,172.5769,185.8471,162.7051,185.8648,152.8333,185.0839,142.9615,185.287,133.0897,186.223,123.2179,186.122,113.3462,185.6493,103.4744,185.3701,93.6026,185.4733,83.7308,185.0061,73.859,186.107,63.9872,186.4318,54.1154,186.2187,44.2436,186.3872,34.3718,185.5555,24.5,185.6923,24.5111,185.7191,24.097,185.4265,23.8291,185.4868,23.4708,185.3289,23.1562,185.2766,22.7322,184.96,22.6615,184.9307,22.5444,184.5893,22.5759,184.3095,22.4676,183.9717,21.9886,183.4804,22,183.1923,21.8061,183.1923,22.1493,174.0663,21.3892,164.9403,22.3534,155.8144,22.258,146.6884,22,137.5624,21.969,137.5496,22.1903,137.227,22.5173,136.9483,22.343,136.4619,22.6828,136.1884,22.7322,135.7947,22.7687,135.8826,23.1006,135.6839,23.4573,135.5452,23.8074,135.3903,24.0668,135.0167,24.5,135.0624" style="stroke:#181818;stroke-width:4.0;"/><text fill="#000000" font-family="Chalkduster" font-size="24" lengthAdjust="spacing" textLength="370" x="32" y="168.9033">-- ro-crate-metadata.json</text></g><!--entity f1--><g id="elem_f1"><polygon fill="none" points="106,346.0624,106,346.2726,115.8462,345.6481,125.6923,346.2557,135.5385,346.4621,145.3846,345.349,155.2308,345.9847,165.0769,345.6359,174.9231,345.6789,184.7692,345.9943,194.6154,345.3711,204.4615,346.6161,214.3077,345.4322,224.1538,345.8647,234,346.0624,234.0551,346.1955,234.3426,346.1825,234.7158,346.3763,235.0566,346.4919,235.437,346.7032,235.7678,346.7947,235.8414,346.8252,236.0946,347.2229,236.2673,347.5874,236.4163,347.942,236.432,348.2414,236.5,348.5624,236.9636,348.5624,237.2022,357.6884,235.7788,366.8144,237.1785,375.9403,236.2035,385.0663,236.5,394.1923,236.6644,394.2604,236.2011,394.4827,236.186,394.8906,236.289,395.3475,235.8992,395.6003,235.7678,395.96,235.7812,395.9925,235.4574,396.2108,235.1138,396.3811,234.7066,396.3982,234.3902,396.6343,234,396.6923,234,396.1198,224.1538,396.9767,214.3077,397.2405,204.4615,397.1368,194.6154,397.3053,184.7692,396.2092,174.9231,396.0401,165.0769,396.0709,155.2308,396.6334,145.3846,396.4957,135.5385,397.3737,125.6923,396.5176,115.8462,396.3492,106,396.6923,106.0291,396.7626,105.5614,396.3405,105.2267,396.2395,105.0221,396.4528,104.6414,396.2406,104.2322,395.96,104.4584,396.0537,103.9867,395.5654,104.0376,395.2936,103.9747,394.9747,103.501,394.4856,103.5,394.1923,103.4041,394.1923,103.626,385.0663,104.1518,375.9403,103.4958,366.8144,103.9626,357.6884,103.5,348.5624,103.3295,348.4918,103.4379,348.1225,103.948,347.9196,103.7186,347.4103,104.2425,347.2131,104.2322,346.7947,104.2586,346.8583,104.5516,346.5657,104.8942,346.3928,105.3514,346.4966,105.6083,346.1167,106,346.0624" style="stroke:#181818;stroke-width:4.0;"/><text fill="#000000" font-family="Chalkduster" font-size="24" lengthAdjust="spacing" textLength="113" x="113.5" y="379.9033">File1.txt</text></g><!--link rmd to f1--><g id="link_rmd_f1"><path d="M149.79,186.5124 L149.8423,186.5898 L147.7748,187.6527 L146.0141,189.1692 L144.1534,190.5379 L141.9643,191.4209 L140.2298,192.9763 L140.2077,192.9498 L138.3373,194.3067 L136.5783,195.7973 L134.8968,197.381 L132.9483,198.6442 L131.3737,200.3562 L131.553,200.5247 L129.6006,201.8334 L128.1715,203.6342 L126.8063,205.495 L125.0696,207.0064 L123.5283,208.7017 L123.5532,208.719 L122.211,210.5657 L120.982,212.4914 L119.6985,214.3789 L118.5192,216.3392 L117,218.0624 L117.2754,218.1769 L116.0028,221.2486 L114.5525,224.2465 L113.3622,227.3525 L112.1841,230.4635 L110.6199,233.4141 L110.3024,233.37 L110.4724,236.6718 L109.5969,239.8286 L109.5162,243.0956 L108.6171,246.249 L108.3888,249.4956 L108.3584,249.4932 L108.9694,252.81 L108.8712,256.0724 L109.1915,259.3668 L109.5469,262.664 L109.6488,265.9417 L109.8283,265.9864 L110.4659,269.2304 L111.4102,272.5508 L111.8582,275.7477 L113.0464,279.1288 L113.7425,282.3874 L113.9695,282.4759 L115.1805,285.6752 L116.5042,288.9184 L117.3042,291.9575 L118.4881,295.1462 L120.0121,298.4675 L119.7658,298.3425 L121.5464,301.5255 L123.0494,304.5677 L124.9549,307.8141 L126.1732,310.7118 L127.8,313.8168 L127.6697,313.7377 L129.6164,316.7201 L131.006,319.3644 L132.7919,322.2491 L134.9654,325.3691 L136.4485,328.0702 L136.6077,328.1803 L138.4873,330.8144 L139.8715,333.1057 L141.8761,335.8262 L143.7455,338.4533 L145.3,340.8624 " fill="none" style="stroke:#8B0000;stroke-width:4.0;"/><polygon fill="#8B0000" points="148.08,344.5924,148.1483,344.6081,147.5054,342.6416,147.2628,340.7668,146.8899,338.8622,146.0882,336.8593,145.88,334.9924,145.8544,334.9888,145.5793,336.0923,145.4335,337.2144,145.3775,338.3492,145.0119,339.4398,145.08,340.5924,145.1061,340.7751,143.9303,340.2244,142.8307,340.2072,141.7404,340.255,140.596,339.9241,139.48,339.7924,139.4911,339.8123,141.1948,340.7431,142.949,341.7644,144.6788,342.742,146.4551,343.8029,148.08,344.5924" style="stroke:#8B0000;stroke-width:4.0;"/><text fill="#000000" font-family="Chalkduster" font-size="24" lengthAdjust="spacing" textLength="122" x="118" y="242.9033">Describes</text></g><!--link rmd to f1--><!--SRC=[JKyxJyD03DxlLvZi5zGLLLb0h9NeY3guPwSzk4VbSu6ewd-l4n2g9-lJzto89QGpCVJz8w6YprZmm9cB-gPJubv_r6dKn4_mmgeOZapmBAZit5WJiK2tAGmdd595WZ4cXhUDNoY6Xa_pws2zReg5KAWD0rmSs0a7mmx6xxm7gJxC6fzPSUxIVxHQEi06aibTdRlZRsks53xL5hNA15kMhnYM7Fb7_uBkPAzMRZLFMcp7bRcQD_Z1VfW7jY1npysvNvpgTta_HY8kkuLq0m00]--></g></svg>