<svg xmlns="http://www.w3.org/2000/svg" xmlns:xlink="http://www.w3.org/1999/xlink" contentStyleType="text/css" data-diagram-type="DESCRIPTION" height="658px" preserveAspectRatio="none" style="width:1488px;height:658px;background:#FFFFFF;" version="1.1" viewBox="0 0 1488 658" width="1488px" zoomAndPan="magnify"><title>Batch-loading data into RAPID (Data Curation and Deposit)</title><defs/><g><text fill="#000000" font-family="Chalkduster" font-size="42" font-weight="bold" lengthAdjust="spacing" textLength="1460.0686" x="10" y="51.7215">Batch-loading data into RAPID (Data Curation and Deposit)</text><!--cluster repo--><g class="cluster" data-entity="repo" data-source-line="16" data-uid="ent0005" id="cluster_repo"><path d="M118.7797,473.8622 L118.7797,473.8622 L118.796,473.9542 L122.4556,473.0208 L126.2111,472.6265 L129.9354,472.0566 L133.5569,470.9094 L137.3207,470.5614 L137.3182,470.527 L139.2615,470.2339 L141.217,470.1144 L143.1811,470.1157 L145.1157,469.701 L147.0916,469.869 L147.1053,470.1147 L149.3778,469.4607 L151.6903,469.524 L154.0078,469.6749 L156.2968,469.3165 L158.6007,469.226 L158.602,469.2563 L164.1203,468.9828 L169.6443,468.8472 L175.1656,468.6452 L180.6922,468.57 L186.2015,468.081 L186.2104,468.3791 L192.742,468.1889 L199.2679,467.8064 L205.8021,467.7054 L212.3368,467.6175 L218.859,467.1117 L218.8519,466.7913 L226.1557,467.2516 L233.4361,466.6567 L240.7342,466.8641 L248.0141,466.2453 L255.309,466.3036 L255.3084,466.2732 L263.1102,466.5008 L270.8999,466.0173 L278.6967,465.9534 L286.4941,465.9248 L294.2872,465.642 L294.2897,465.827 L302.3357,465.5343 L310.3859,465.5577 L318.4293,465.0697 L326.4828,465.3446 L334.5297,465.1122 L334.5363,465.8431 L344.4377,465.6146 L354.3423,465.7489 L364.2316,464.1971 L374.1321,463.8813 L384.035,463.8321 L393.9445,464.4917 L403.8454,464.2179 L413.7504,464.3896 L413.7552,465.2981 L423.6216,464.1036 L433.4929,463.8261 L443.3695,464.5349 L453.2355,463.2884 L463.1091,463.4323 L472.9899,464.9367 L482.8578,464.0185 L482.8591,464.5993 L492.4918,464.9755 L502.1202,463.5448 L511.7539,464.3771 L521.3864,464.7164 L531.0148,463.277 L540.6477,463.7567 L550.2797,463.8622 L550.2797,463.8622 L550.2801,464.0302 L559.9134,464.7535 L569.543,463.9013 L579.1762,464.5459 L588.8047,463.2131 L598.4361,463.0708 L608.0714,464.6676 L617.7015,464.0185 L617.6964,463.0626 L627.5777,464.7501 L637.448,464.4 L647.3171,463.8203 L657.189,463.7588 L667.0673,464.8952 L676.9343,463.9374 L686.809,464.3896 L686.8162,465.1787 L696.7048,463.7429 L706.6216,465.3934 L716.5226,465.3063 L726.4223,465.0775 L736.3225,464.9042 L746.2333,465.9003 L756.1345,465.8399 L766.0297,465.1122 L766.0307,465.1874 L774.0797,465.3374 L782.1259,465.2662 L790.1793,465.7485 L798.2245,465.6049 L806.2721,465.642 L806.2734,465.7187 L814.0632,465.504 L821.8603,465.7266 L829.6631,466.2748 L837.458,466.3623 L845.2504,466.3036 L845.2499,466.2845 L852.5372,466.3221 L859.8282,466.5296 L867.1136,466.4836 L874.4144,467.1344 L881.7003,467.1117 L881.7101,467.4403 L888.2388,467.5394 L894.7725,467.8081 L901.293,467.6325 L907.8274,467.9259 L914.3578,468.081 L914.3506,467.9088 L919.8832,468.4361 L925.4027,468.6485 L930.9285,469.0133 L936.4342,468.895 L941.9586,469.226 L941.9553,469.1663 L944.2714,469.5514 L946.5763,469.7349 L948.8514,469.3843 L951.1611,469.6543 L953.4677,469.869 L953.4724,469.9352 L955.4027,469.7367 L957.3872,470.3026 L959.3384,470.3988 L961.2813,470.3783 L963.2386,470.5614 L963.2497,470.6237 L967.0036,471.5404 L970.6307,471.7448 L974.3878,472.6797 L978.0937,473.327 L981.7797,473.8622 L982.0884,473.8622 L982.1555,483.7141 L982.0823,493.566 L980.1152,503.4178 L980.7108,513.2697 L980.5489,523.1216 L981.9499,532.9735 L982.0147,542.8253 L982.211,552.6772 L981.0037,562.5291 L981.5996,572.381 L981.4591,582.2328 L983.3179,592.0847 L982.9172,601.9366 L980.4849,611.7885 L981.5852,621.6403 L981.7797,631.4922 L981.7797,631.4922 L981.7347,631.2396 L978.0939,632.2786 L974.4107,633.0788 L970.6975,633.711 L966.9129,633.9423 L963.2386,634.793 L963.2532,634.9987 L961.2611,634.6022 L959.3366,635.1587 L957.3667,635.0758 L955.425,635.3898 L953.4677,635.4854 L953.4737,635.5921 L951.1776,635.8235 L948.8462,635.4232 L946.5741,636.0822 L944.2649,636.0789 L941.9586,636.1284 L941.9652,636.2862 L936.4522,636.6895 L930.9184,636.5889 L925.4013,636.8933 L919.8819,637.1392 L914.3578,637.2735 L914.3604,637.3611 L907.8263,637.4669 L901.3042,637.9769 L894.7553,637.5841 L888.2393,638.3 L881.7003,638.2427 L881.6942,637.9654 L874.405,638.1642 L867.1207,638.5837 L859.8306,638.7401 L852.5355,638.6702 L845.2504,639.0508 L845.2535,639.2347 L837.4555,639.2315 L829.6645,639.6384 L821.8684,639.7442 L814.0644,639.3809 L806.2721,639.7124 L806.2698,639.5356 L798.2229,639.761 L790.1772,640.0823 L782.129,640.2094 L774.0799,640.2701 L766.0297,640.2422 L766.0255,639.7863 L756.1348,641.181 L746.2322,641.2679 L736.3213,640.4502 L726.4164,640.2848 L716.5118,640.1587 L706.6115,640.4981 L696.7132,641.0577 L686.809,640.9649 L686.8085,640.8737 L676.9335,640.4608 L667.0675,641.7207 L657.1882,640.512 L647.3226,641.8468 L637.4496,641.7996 L627.5767,641.7788 L617.7015,641.336 L617.7037,642.2593 L608.0691,641.0304 L598.4372,640.9797 L588.8081,642.0948 L579.1729,640.6294 L569.5423,641.1356 L559.9117,641.6239 L550.2797,641.4922 L550.2797,641.4922 L550.2799,641.5838 L540.6469,640.992 L531.0161,641.3903 L521.3869,642.418 L511.7549,642.2676 L502.1193,640.5856 L492.4897,641.463 L482.8578,641.336 L482.8541,640.6508 L472.9851,641.2479 L463.1149,641.6206 L453.2433,641.7367 L443.3631,640.2376 L433.4982,641.6049 L423.6229,641.0291 L413.7504,640.9649 L413.7436,640.2244 L403.842,640.2465 L393.9492,641.2197 L384.0456,641.027 L374.1398,640.5816 L364.2293,639.6171 L354.3428,641.3004 L344.4285,639.9168 L334.5297,640.2422 L334.5266,640.0075 L326.4808,640.1063 L318.4361,640.2924 L310.3878,640.1978 L302.3359,639.834 L294.2872,639.7124 L294.2861,639.6452 L286.4929,639.6556 L278.6973,639.5305 L270.8964,639.0898 L263.1077,639.3671 L255.309,639.0508 L255.3145,639.2991 L248.0168,638.7933 L240.7248,638.5369 L233.4456,638.8657 L226.1492,638.4137 L218.859,638.2427 L218.859,638.2426 L212.3315,638.1817 L205.7875,637.5682 L199.2715,637.8966 L192.7328,637.4604 L186.2015,637.2735 L186.2139,637.5705 L180.6774,636.9486 L175.1687,636.9971 L169.6329,636.3893 L164.1254,636.4662 L158.6007,636.1284 L158.6101,636.2968 L156.2908,635.8546 L154.0061,636.0323 L151.6811,635.4891 L149.3817,635.4053 L147.0916,635.4854 L147.113,635.7882 L145.1589,635.6504 L143.2011,635.4605 L141.2177,634.9102 L139.2869,635.1018 L137.3207,634.793 L137.2839,634.5864 L133.617,634.1583 L129.9042,633.4721 L126.1756,632.6977 L122.5358,632.4219 L118.7797,631.4922 L119.9617,631.4922 L117.9243,621.6403 L120.184,611.7885 L119.0246,601.9366 L117.2234,592.0847 L118.1575,582.2328 L117.3789,572.381 L118.4088,562.5291 L117.1024,552.6772 L117.1792,542.8253 L118.9671,532.9735 L118.4586,523.1216 L118.6235,513.2697 L118.3978,503.4178 L119.2259,493.566 L117.2994,483.7141 L118.7797,473.8622" fill="#98FB98" style="stroke:#181818;stroke-width:4;"/><path d="M118.7797,473.8622 L118.7797,473.8622 L118.796,473.9542 L122.4556,474.3411 L126.2111,475.2671 L129.9354,476.0176 L133.5569,476.1907 L137.3207,477.163 L137.3182,477.1285 L139.2615,477.1124 L141.217,477.27 L143.1811,477.5482 L145.1157,477.4104 L147.0916,477.8554 L147.1053,478.1011 L149.3778,477.7043 L151.6903,478.0249 L154.0078,478.4329 L156.2968,478.3318 L158.6007,478.4984 L158.602,478.5287 L164.1203,478.7133 L169.6443,479.0357 L175.1656,479.2916 L180.6922,479.6745 L186.2015,479.6435 L186.2104,479.9416 L192.742,480.1391 L199.2679,480.1443 L205.8021,480.431 L212.3368,480.7308 L218.859,480.6127 L218.8519,480.2923 L226.1557,481.0758 L233.4361,480.8042 L240.7342,481.3348 L248.0141,481.0392 L255.309,481.4208 L255.3084,481.3904 L263.1102,481.8827 L270.8999,481.6638 L278.6967,481.8646 L286.4941,482.1006 L294.2872,482.0824 L294.2897,482.2674 L302.3357,482.1866 L310.3859,482.422 L318.4293,482.1459 L326.4828,482.6326 L334.5297,482.6122 L334.5363,483.3431 L344.4377,483.2952 L354.3423,483.6102 L364.2316,482.2391 L374.1321,482.104 L384.035,482.2354 L393.9445,483.0757 L403.8454,482.9825 L413.7504,483.3349 L413.7552,484.2434 L423.6216,483.155 L433.4929,482.9835 L443.3695,483.7983 L453.2355,482.6578 L463.1091,482.9078 L472.9899,484.5182 L482.8578,483.706 L482.8591,484.2868 L492.4918,484.7076 L502.1202,483.3215 L511.7539,484.1985 L521.3864,484.5825 L531.0148,483.1877 L540.6477,483.7121 L550.2797,483.8622 L550.2797,483.8622 L550.2801,484.0302 L559.9134,484.7089 L569.543,483.812 L579.1762,484.412 L588.8047,483.0345 L598.4361,482.8476 L608.0714,484.3998 L617.7015,483.706 L617.6964,482.7501 L627.5777,484.3316 L637.448,483.8754 L647.3171,483.1897 L657.189,483.0222 L667.0673,484.0526 L676.9343,482.9888 L686.809,483.3349 L686.8162,484.124 L696.7048,482.5076 L706.6216,483.9774 L716.5226,483.7096 L726.4223,483.3002 L736.3225,482.9462 L746.2333,483.7616 L756.1345,483.5206 L766.0297,482.6122 L766.0307,482.6874 L774.0797,482.6254 L782.1259,482.3424 L790.1793,482.6127 L798.2245,482.2572 L806.2721,482.0824 L806.2734,482.1591 L814.0632,481.6798 L821.8603,481.6377 L829.6631,481.9213 L837.458,481.7441 L845.2504,481.4208 L845.2499,481.4017 L852.5372,481.116 L859.8282,481.0003 L867.1136,480.631 L874.4144,480.9586 L881.7003,480.6127 L881.7101,480.9412 L888.2388,480.6527 L894.7725,480.5337 L901.293,479.9704 L907.8274,479.8761 L914.3578,479.6435 L914.3506,479.4713 L919.8832,479.5406 L925.4027,479.295 L930.9285,479.2017 L936.4342,478.6255 L941.9586,478.4984 L941.9553,478.4388 L944.2714,478.5666 L946.5763,478.493 L948.8514,477.8852 L951.1611,477.898 L953.4677,477.8554 L953.4724,477.9216 L955.4027,477.4461 L957.3872,477.7351 L959.3384,477.5543 L961.2813,477.2568 L963.2386,477.163 L963.2497,477.2252 L967.0036,476.8217 L970.6307,475.7058 L974.3878,475.3204 L978.0937,474.6474 L981.7797,473.8622" fill="none" style="stroke:#181818;stroke-width:4;"/><text fill="#000000" font-family="Chalkduster" font-size="24" font-style="italic" lengthAdjust="spacing" textLength="169.1404" x="465.7095" y="509.7031">&#171;repository&#187;</text><text fill="#000000" font-family="Chalkduster" font-size="24" font-weight="bold" lengthAdjust="spacing" textLength="142.6475" x="478.9559" y="540.3329">Repository</text></g><!--entity data--><g class="entity" data-entity="data" data-source-line="7" data-uid="ent0002" id="entity_data"><polygon fill="none" points="613.8097,100.1022,613.8097,100.3124,623.9811,99.6879,634.1526,100.2955,644.3241,100.5019,654.4955,99.3888,664.667,100.0245,674.8384,99.6757,685.0099,99.7187,695.1814,100.0341,705.3528,99.4108,715.5243,100.6559,725.6958,99.4719,735.8672,99.9044,746.0387,100.5342,756.2102,100.0164,766.3816,100.1704,776.5531,100.0703,786.7245,100.2807,796.896,100.3413,807.0675,100.6879,817.2389,100.7733,827.4104,100.7815,837.5819,100.3568,847.7533,100.1022,847.8125,100.245,848.1965,100.4649,848.3684,100.173,848.9005,100.7505,849.1297,100.5967,849.5211,100.8344,849.6855,100.9025,849.5151,101.1249,849.7929,101.5328,850.1888,101.9897,850.0919,102.2424,850.2533,102.6022,850.3586,102.6022,850.592,111.7282,850.6696,120.8541,850.2494,129.9801,850.5405,139.1061,850.2533,148.232,850.077,148.159,850.1945,148.6219,850.1293,149.0091,849.9509,149.3494,849.8563,149.7245,849.5211,149.9998,849.4595,149.851,849.0843,149.9454,848.7347,150.1013,848.4529,150.421,848.0818,150.5251,847.7533,150.732,847.7533,151.4135,837.5819,150.5574,827.4104,150.389,817.2389,150.9603,807.0675,150.0652,796.896,150.2129,786.7245,151.381,776.5531,151.1677,766.3816,151.4665,756.2102,150.4102,746.0387,151.0512,735.8672,151.3225,725.6958,150.2596,715.5243,150.6362,705.3528,150.858,695.1814,151.3838,685.0099,150.7279,674.8384,151.1946,664.667,150.1783,654.4955,150.0548,644.3241,151.2357,634.1526,150.0151,623.9811,151.241,613.8097,150.732,613.836,150.7957,613.4219,150.5031,613.0574,150.3302,612.8075,150.434,612.3573,150.0541,612.0419,149.9998,612.2242,150.0753,611.7252,149.5757,611.9391,149.3715,611.7517,149.0009,611.5315,148.6168,611.3097,148.232,611.3569,148.232,612.0363,139.1061,611.9232,129.9801,611.4789,120.8541,611.5779,111.7282,611.3097,102.6022,611.2695,102.5856,611.6767,102.34,611.6502,101.9149,611.8021,101.5636,611.7081,101.1104,612.0419,100.8344,611.9902,100.7097,612.4632,100.8514,612.8038,100.6739,613.0971,100.3819,613.415,100.1494,613.8097,100.1022" style="stroke:#181818;stroke-width:4;"/><text fill="#000000" font-family="Chalkduster" font-size="24" lengthAdjust="spacing" textLength="218.9437" x="621.3097" y="133.9431">Hansard Website</text></g><!--entity ct--><g class="entity" data-entity="ct" data-source-line="11" data-uid="ent0003" id="entity_ct"><polygon fill="none" points="796.1197,327.2322,796.1197,327.4424,805.9895,326.8179,815.8594,327.4255,825.7292,327.6319,835.5991,326.5188,845.469,327.1545,855.3388,326.8057,865.2087,326.8487,875.0786,327.1641,884.9484,326.5408,894.8183,327.7859,904.6881,326.6019,914.558,327.0344,924.4279,327.6642,934.2977,327.1464,944.1676,327.3004,954.0375,327.2003,963.9073,327.4107,973.7772,327.4713,983.647,327.8179,993.5169,327.9033,1003.3868,327.9115,1013.2566,327.4868,1023.1265,327.6958,1032.9964,327.9344,1042.8662,326.511,1052.7361,327.9107,1062.6059,326.9357,1072.4758,327.766,1082.3457,326.7372,1092.2155,327.1637,1102.0854,327.9738,1111.9552,327.1835,1121.8251,327.3375,1131.695,327.5708,1141.5648,327.6484,1151.4347,327.2322,1151.4342,327.231,1151.8249,327.4671,1152.0688,327.3488,1152.5316,327.7591,1152.9188,327.9868,1153.2025,327.9644,1153.3394,328.0211,1153.5377,328.3962,1153.3466,328.6099,1153.441,328.9419,1153.5969,329.2994,1153.9347,329.7322,1153.8758,329.7322,1153.7382,338.8582,1154.6161,347.9841,1153.76,357.1101,1153.5916,366.2361,1153.9347,375.362,1154.005,375.3912,1153.5829,375.6305,1153.4819,376.0029,1153.6952,376.5055,1153.4831,376.8318,1153.2025,377.1298,1153.2962,377.356,1152.8079,377.1772,1152.5361,377.521,1152.2171,377.751,1151.728,377.5701,1151.4347,377.862,1151.4347,377.7662,1141.5648,377.988,1131.695,378.5138,1121.8251,377.8579,1111.9552,378.3246,1102.0854,377.3083,1092.2155,377.1848,1082.3457,378.3657,1072.4758,377.1451,1062.6059,378.371,1052.7361,378.0687,1042.8662,377.5941,1032.9964,377.5083,1023.1265,378.3208,1013.2566,377.5627,1003.3868,378.4539,993.5169,377.3093,983.647,378.4795,973.7772,378.3463,963.9073,378.107,954.0375,377.9093,944.1676,378.5887,934.2977,378.4756,924.4279,378.0313,914.558,378.1302,904.6881,377.7318,894.8183,378.5785,884.9484,378.0169,875.0786,378.0346,865.2087,377.2537,855.3388,377.4568,845.469,378.3928,835.5991,378.2918,825.7292,377.8191,815.8594,377.5399,805.9895,377.6431,796.1197,377.862,796.0321,377.6507,795.819,377.8433,795.5069,377.7969,795.1261,377.5848,794.7941,377.4903,794.3519,377.1298,794.3098,377.1124,794.2323,376.7874,793.9396,376.3733,794,376.1054,793.8421,375.7471,793.6197,375.362,794.1721,375.362,793.39,366.2361,793.4853,357.1101,794.0631,347.9841,794.187,338.8582,793.6197,329.7322,793.4618,329.6668,793.7064,329.3539,793.9585,329.0441,793.8709,328.5936,794.3143,328.3631,794.3519,327.9644,794.3848,328.0439,794.6926,327.787,795.0771,327.7154,795.5055,327.7495,795.7262,327.2823,796.1197,327.2322" style="stroke:#181818;stroke-width:4;"/><text fill="#000000" font-family="Chalkduster" font-size="24" lengthAdjust="spacing" textLength="328.3813" x="803.6197" y="361.0731">&#9881;&#65039; Conversion script &#9881;&#65039;</text></g><!--entity 1--><g class="entity" data-entity="1" data-source-line="17" data-uid="ent0006" id="entity_1"><polygon fill="none" points="145.5297,566.8622,145.5297,567.0724,155.3241,566.4479,165.1185,567.0555,174.9129,567.2619,184.7073,566.1488,194.5017,566.7845,204.2961,566.4357,214.0905,566.4787,223.8849,566.7941,233.6794,566.1708,243.4738,567.4159,253.2682,566.2319,263.0626,566.6644,272.857,567.2942,282.6514,566.7764,292.4458,566.9304,302.2402,566.8303,312.0346,566.8622,312.0574,566.9172,312.4187,567.0823,312.8165,567.3355,313.1809,567.5082,313.5355,567.6572,313.8024,567.5944,313.8808,567.6269,314.0916,568.0071,314.3116,568.3911,314.0196,568.5631,314.5971,569.0952,314.5346,569.3622,314.2381,569.3622,315.0684,578.4882,314.0396,587.6141,314.4661,596.7401,315.2762,605.8661,314.5346,614.992,314.5196,614.9858,314.4206,615.359,314.346,615.7423,314.2235,616.1058,313.9476,616.4058,313.8024,616.7598,313.839,616.8483,313.3758,616.73,313.1316,617.1403,312.8117,617.368,312.4449,617.4825,312.0346,617.492,312.0346,618.1051,302.2402,617.009,292.4458,616.8399,282.6514,616.8706,272.857,617.4332,263.0626,617.2955,253.2682,618.1735,243.4738,617.3174,233.6794,617.149,223.8849,617.7203,214.0905,616.8252,204.2961,616.9729,194.5017,618.141,184.7073,617.9277,174.9129,618.2265,165.1185,617.1702,155.3241,617.8112,145.5297,617.492,145.605,617.6739,145.1158,617.2001,144.8103,617.1696,144.4851,617.0915,144.1986,617.107,143.7619,616.7598,143.7606,616.7593,143.7579,616.4653,143.2985,615.9821,143.114,615.6128,143.3312,615.4098,143.0297,614.992,142.3127,614.992,143.5386,605.8661,143.2363,596.7401,142.7617,587.6141,142.6759,578.4882,143.0297,569.3622,143.1709,569.4207,143.0839,568.9705,143.5048,568.7306,143.2988,568.231,143.8056,568.0268,143.7619,567.5944,143.8237,567.7436,144.1467,567.5234,144.475,567.3161,144.9152,567.3789,145.2544,567.1976,145.5297,566.8622" style="stroke:#181818;stroke-width:4;"/><text fill="#000000" font-family="Chalkduster" font-size="24" lengthAdjust="spacing" textLength="151.505" x="153.0297" y="600.7031">RO-Crate 1</text></g><!--entity 2--><g class="entity" data-entity="2" data-source-line="18" data-uid="ent0007" id="entity_2"><polygon fill="none" points="352.0297,566.8622,352.0297,567.0724,361.7648,566.4479,371.4999,567.0555,381.2351,567.2619,390.9702,566.1488,400.7053,566.7845,410.4405,566.4357,420.1756,566.4787,429.9107,566.7941,439.6458,566.1708,449.381,567.4159,459.1161,566.2319,468.8512,566.6644,478.5864,567.2942,488.3215,566.7764,498.0566,566.9304,507.7918,566.8303,517.5269,566.8622,517.5497,566.9172,517.911,567.0823,518.3087,567.3355,518.6732,567.5082,519.0278,567.6572,519.2947,567.5944,519.3731,567.6269,519.5839,568.0071,519.8038,568.3911,519.5119,568.5631,520.0894,569.0952,520.0269,569.3622,519.7304,569.3622,520.5607,578.4882,519.5319,587.6141,519.9584,596.7401,520.7685,605.8661,520.0269,614.992,520.0119,614.9858,519.9129,615.359,519.8383,615.7423,519.7157,616.1058,519.4399,616.4058,519.2947,616.7598,519.3313,616.8483,518.8681,616.73,518.6238,617.1403,518.3039,617.368,517.9372,617.4825,517.5269,617.492,517.5269,618.1051,507.7918,617.009,498.0566,616.8399,488.3215,616.8706,478.5864,617.4332,468.8512,617.2955,459.1161,618.1735,449.381,617.3174,439.6458,617.149,429.9107,617.7203,420.1756,616.8252,410.4405,616.9729,400.7053,618.141,390.9702,617.9277,381.2351,618.2265,371.4999,617.1702,361.7648,617.8112,352.0297,617.492,352.105,617.6739,351.6158,617.2001,351.3103,617.1696,350.9851,617.0915,350.6986,617.107,350.2619,616.7598,350.2606,616.7593,350.2579,616.4653,349.7985,615.9821,349.614,615.6128,349.8312,615.4098,349.5297,614.992,348.8127,614.992,350.0386,605.8661,349.7363,596.7401,349.2617,587.6141,349.1759,578.4882,349.5297,569.3622,349.6709,569.4207,349.5839,568.9705,350.0048,568.7306,349.7988,568.231,350.3056,568.0268,350.2619,567.5944,350.3237,567.7436,350.6467,567.5234,350.975,567.3161,351.4152,567.3789,351.7544,567.1976,352.0297,566.8622" style="stroke:#181818;stroke-width:4;"/><text fill="#000000" font-family="Chalkduster" font-size="24" lengthAdjust="spacing" textLength="150.4972" x="359.5297" y="600.7031">RO-Crate 2</text></g><!--entity 3--><g class="entity" data-entity="3" data-source-line="19" data-uid="ent0008" id="entity_3"><polygon fill="none" points="557.5297,566.8622,557.5297,567.0724,567.4411,566.4479,577.3525,567.0555,587.2639,567.2619,597.1753,566.1488,607.0867,566.7845,616.9981,566.4357,626.9095,566.4787,636.8209,566.7941,646.7323,566.1708,656.6437,567.4159,666.5551,566.2319,676.4666,566.6644,686.378,567.2942,696.2894,566.7764,706.2008,566.9304,716.1122,566.8303,726.0236,566.8622,726.0464,566.9172,726.4076,567.0823,726.8054,567.3355,727.1699,567.5082,727.5244,567.6572,727.7914,567.5944,727.8698,567.6269,728.0806,568.0071,728.3005,568.3911,728.0086,568.5631,728.5861,569.0952,728.5236,569.3622,728.2271,569.3622,729.0574,578.4882,728.0286,587.6141,728.4551,596.7401,729.2652,605.8661,728.5236,614.992,728.5086,614.9858,728.4096,615.359,728.335,615.7423,728.2124,616.1058,727.9366,616.4058,727.7914,616.7598,727.828,616.8483,727.3648,616.73,727.1205,617.1403,726.8006,617.368,726.4338,617.4825,726.0236,617.492,726.0236,618.1051,716.1122,617.009,706.2008,616.8399,696.2894,616.8706,686.378,617.4332,676.4666,617.2955,666.5551,618.1735,656.6437,617.3174,646.7323,617.149,636.8209,617.7203,626.9095,616.8252,616.9981,616.9729,607.0867,618.141,597.1753,617.9277,587.2639,618.2265,577.3525,617.1702,567.4411,617.8112,557.5297,617.492,557.605,617.6739,557.1158,617.2001,556.8103,617.1696,556.4851,617.0915,556.1986,617.107,555.7619,616.7598,555.7606,616.7593,555.7579,616.4653,555.2985,615.9821,555.114,615.6128,555.3312,615.4098,555.0297,614.992,554.3127,614.992,555.5386,605.8661,555.2363,596.7401,554.7617,587.6141,554.6759,578.4882,555.0297,569.3622,555.1709,569.4207,555.0839,568.9705,555.5048,568.7306,555.2988,568.231,555.8056,568.0268,555.7619,567.5944,555.8237,567.7436,556.1467,567.5234,556.475,567.3161,556.9152,567.3789,557.2544,567.1976,557.5297,566.8622" style="stroke:#181818;stroke-width:4;"/><text fill="#000000" font-family="Chalkduster" font-size="24" lengthAdjust="spacing" textLength="153.4939" x="565.0297" y="600.7031">RO-Crate 3</text></g><!--entity n--><g class="entity" data-entity="n" data-source-line="20" data-uid="ent0009" id="entity_n"><polygon fill="none" points="765.9797,566.8622,765.9797,567.0724,775.9566,566.4479,785.9335,567.0555,795.9104,567.2619,805.8874,566.1488,815.8643,566.7845,825.8412,566.4357,835.8181,566.4787,845.7951,566.7941,855.772,566.1708,865.7489,567.4159,875.7258,566.2319,885.7028,566.6644,895.6797,567.2942,905.6566,566.7764,915.6336,566.9304,925.6105,566.8303,935.5874,566.8622,935.6102,566.9172,935.9715,567.0823,936.3692,567.3355,936.7337,567.5082,937.0883,567.6572,937.3552,567.5944,937.4336,567.6269,937.6444,568.0071,937.8643,568.3911,937.5724,568.5631,938.1499,569.0952,938.0874,569.3622,937.7909,569.3622,938.6212,578.4882,937.5924,587.6141,938.0189,596.7401,938.829,605.8661,938.0874,614.992,938.0724,614.9858,937.9734,615.359,937.8988,615.7423,937.7762,616.1058,937.5004,616.4058,937.3552,616.7598,937.3918,616.8483,936.9286,616.73,936.6843,617.1403,936.3644,617.368,935.9977,617.4825,935.5874,617.492,935.5874,618.1051,925.6105,617.009,915.6336,616.8399,905.6566,616.8706,895.6797,617.4332,885.7028,617.2955,875.7258,618.1735,865.7489,617.3174,855.772,617.149,845.7951,617.7203,835.8181,616.8252,825.8412,616.9729,815.8643,618.141,805.8874,617.9277,795.9104,618.2265,785.9335,617.1702,775.9566,617.8112,765.9797,617.492,766.055,617.6739,765.5658,617.2001,765.2603,617.1696,764.9351,617.0915,764.6486,617.107,764.2119,616.7598,764.2106,616.7593,764.2079,616.4653,763.7485,615.9821,763.564,615.6128,763.7812,615.4098,763.4797,614.992,762.7627,614.992,763.9886,605.8661,763.6863,596.7401,763.2117,587.6141,763.1259,578.4882,763.4797,569.3622,763.6209,569.4207,763.5339,568.9705,763.9548,568.7306,763.7488,568.231,764.2556,568.0268,764.2119,567.5944,764.2737,567.7436,764.5967,567.5234,764.925,567.3161,765.3652,567.3789,765.7044,567.1976,765.9797,566.8622" style="stroke:#181818;stroke-width:4;"/><text fill="#000000" font-family="Chalkduster" font-size="24" lengthAdjust="spacing" textLength="154.6077" x="773.4797" y="600.7031">RO-Crate n</text></g><!--entity p--><g class="entity" data-entity="p" data-source-line="15" data-uid="ent0004" id="entity_p"><polygon fill="none" points="1224.8288,90.5481,1223.6562,92.1504,1222.2691,94.4973,1220.2854,96.0789,1218.2009,96.9437,1216.5388,97.0188,1214.4026,95.9372,1212.3869,95.2305,1210.857,93.7958,1210.0545,92.1533,1209.5786,90.8455,1209.1123,89.1373,1208.3555,87.6673,1208.9371,86.232,1209.4466,84.6598,1211.3587,83.4164,1212.7039,81.803,1214.3689,81.2673,1216.3484,80.8059,1218.8867,81.08,1220.2771,81.7357,1221.8935,82.0329,1223.8589,84.0466,1224.5441,86.1724,1224.8418,87.6228,1224.5046,90.013" style="stroke:#8B0000;stroke-width:4;"/><path d="M1216.7846,96.6022 L1216.9715,96.6022 L1216.4163,102.0022 L1216.9564,107.4022 L1217.1399,112.8022 L1216.1505,118.2022 L1216.7846,123.6022 M1203.7846,104.6022 L1203.7846,104.5331 L1208.9846,104.2231 L1214.1846,104.2613 L1219.3846,104.5416 L1224.5846,103.9877 L1229.7846,104.6022 M1216.7846,123.6022 L1217.1565,123.9245 L1213.7613,126.2353 L1211.4518,129.4871 L1209.2748,132.8537 L1206.327,135.5523 L1203.7846,138.6022 M1216.7846,123.6022 L1216.8305,123.6419 L1219.3632,126.5836 L1222.1046,129.7061 L1224.7453,132.7414 L1227.5781,135.9432 L1229.7846,138.6022" fill="none" style="stroke:#8B0000;stroke-width:4;"/><text fill="#000000" font-family="Chalkduster" font-size="24" lengthAdjust="spacing" textLength="168.6099" x="1132.4797" y="167.4431">Programmer</text></g><!--link 1 to 2--><!--link 2 to 3--><!--link 3 to n--><!--link p to ct--><g class="link" data-entity-1="p" data-entity-2="ct" data-source-line="26" data-uid="lnk13" id="link_p_ct"><path d="M1218.4997,174.6722 L1218.5929,174.6775 L1218.1471,177.6388 L1218.248,180.631 L1218.1708,183.6132 L1217.5082,186.5621 L1217.656,189.557 L1217.6217,189.5534 L1217.1324,192.696 L1216.8163,195.8571 L1216.6205,199.0309 L1216.01,202.1606 L1215.9804,205.3521 L1216.2232,205.3922 L1215.1644,208.5688 L1214.8145,211.8626 L1214.551,215.1708 L1213.7843,218.3957 L1213.2823,221.6643 L1213.3118,221.6714 L1212.4862,224.9484 L1211.7949,228.2574 L1211.0389,231.5509 L1210.4064,234.8739 L1209.3709,238.101 L1209.6542,238.1941 L1208.5946,241.4289 L1207.3523,244.6035 L1206.3775,247.8661 L1205.4152,251.1329 L1204.0556,254.269 L1203.7628,254.1385 L1202.9491,257.493 L1201.1713,260.418 L1200.1264,263.6695 L1198.3268,266.5846 L1197.1458,269.7755 L1197.1197,269.7598 L1195.6892,272.8358 L1193.6492,275.5451 L1191.9688,278.4709 L1190.3186,281.4147 L1188.4507,284.2275 L1188.5937,284.3449 L1186.3151,286.8274 L1184.2809,289.5104 L1181.8514,291.869 L1180.0116,294.7115 L1177.7797,297.2322 L1177.9308,297.4233 L1175.8596,299.0021 L1173.8635,300.6758 L1171.5188,301.9085 L1169.4296,303.4645 L1167.5668,305.3068 L1167.4406,305.0611 L1164.7555,306.7218 L1161.9281,308.1056 L1159.307,309.891 L1156.3337,310.9908 L1153.5698,312.4981 L1153.5168,312.3552 L1150.0598,313.9067 L1146.3763,314.847 L1142.8538,316.2219 L1139.4889,318.0222 L1135.8434,319.0651 L1135.9,319.2503 L1133.8899,320.0033 L1131.7038,320.1804 L1129.7381,321.0789 L1127.7244,321.8202 L1125.5988,322.1953 L1125.5431,321.9929 L1123.3562,322.7685 L1121.1511,323.4778 L1118.9819,324.3173 L1116.6732,324.6505 L1114.4424,325.2665" fill="none" style="stroke:#8B0000;stroke-width:4;"/><polygon fill="#8B0000" points="1108.6397,326.7922,1108.6509,326.8614,1110.5618,326.9719,1112.5385,327.4878,1114.4938,327.8717,1116.3785,327.8215,1118.361,328.3722,1118.3479,328.3499,1117.3122,327.6792,1116.3423,327.1213,1115.4181,326.6418,1114.3363,325.8921,1113.4753,325.5208,1113.6347,325.6138,1113.8641,324.4378,1114.5589,323.5333,1115.3105,322.662,1115.7318,321.5979,1116.3267,320.6352,1116.341,320.6529,1114.7827,321.8583,1113.2891,323.1444,1111.7643,324.3916,1110.2991,325.7132,1108.6397,326.7922" style="stroke:#8B0000;stroke-width:4;"/><text fill="#000000" font-family="Chalkduster" font-size="24" lengthAdjust="spacing" textLength="156.7293" x="1216.5597" y="259.5731">Write script</text></g><!--link data to ct--><g class="link" data-entity-1="data" data-entity-2="ct" data-source-line="27" data-uid="lnk15" id="link_data_ct"><path d="M720.6497,151.0422 L720.7382,151.0719 L719.4715,153.9808 L718.724,157.0637 L717.8074,160.0899 L716.3347,162.93 L715.6318,166.0277 L715.5985,166.0185 L714.4945,169.4344 L713.5584,172.8966 L712.7389,176.391 L711.5174,179.7744 L710.859,183.3133 L711.1001,183.3627 L709.8091,187.0381 L709.222,190.8578 L708.7206,194.6951 L707.7198,198.4299 L706.9816,202.2186 L707.0117,202.2222 L706.5011,206.1859 L706.1276,210.1658 L705.688,214.1379 L705.3746,218.1249 L704.6497,222.0635 L704.9477,222.0748 L704.8747,224.0874 L704.6094,226.0926 L704.6256,228.1086 L704.6549,230.125 L704.2664,232.1256 L703.946,232.1177 L704.6173,234.1414 L704.2334,236.1391 L704.6517,238.1566 L704.244,240.1537 L704.5133,242.1675 L704.4832,242.1634 L705.3817,246.149 L705.5757,250.0377 L706.1854,253.9837 L706.83,257.9344 L707.2228,261.8505 L707.3983,261.9091 L708.4622,265.5663 L709.826,269.3236 L710.7047,272.9189 L712.307,276.7559 L713.4282,280.4322 L713.6356,280.56 L715.6667,283.8958 L717.8007,287.2951 L719.4563,290.3996 L721.4626,293.7201 L723.7797,297.2322 L723.5925,297.0292 L725.7444,299.0407 L727.6853,300.8234 L729.9323,302.938 L731.6568,304.4859 L733.6919,306.3707 L733.617,306.2379 L736.5056,308.0166 L739.0741,309.2275 L741.8702,310.8421 L744.889,312.8519 L747.5113,314.1581 L747.5799,314.3392 L751.1941,315.8157 L754.5948,316.7291 L758.2629,318.3478 L761.8728,319.8129 L765.3469,320.9199 L765.2873,320.7186 L767.4264,321.4987 L769.546,322.2128 L771.704,323.0564 L773.7128,323.3965 L775.8049,324.0179 L775.8562,324.217 L778.0441,324.3723 L780.331,324.9119 L782.7625,326.0128 L784.9278,326.0802 L787.3079,326.9815" fill="none" style="stroke:#8B0000;stroke-width:4;"/><polygon fill="#8B0000" points="793.1397,328.3922,793.1824,328.4477,791.494,327.082,790.056,326.0417,788.5365,324.8955,786.7489,323.4006,785.3324,322.3883,785.3103,322.3748,785.8006,323.2799,786.4023,324.253,787.0815,325.2735,787.4936,326.1309,788.2798,327.2166,788.376,327.3742,787.2047,327.6268,786.3141,328.3393,785.4578,329.108,784.4023,329.5502,783.4515,330.1641,783.4556,330.1864,785.3872,329.7992,787.3375,329.5139,789.2787,329.1794,791.2372,328.9386,793.1397,328.3922" style="stroke:#8B0000;stroke-width:4;"/><text fill="#000000" font-family="Chalkduster" font-size="24" lengthAdjust="spacing" textLength="284.8442" x="804.8415" y="229.0731">Convert to RO-Crate</text><text fill="#000000" font-family="Chalkduster" font-size="24" lengthAdjust="spacing" textLength="444.9679" x="724.7797" y="259.7029">using Public Interest Documents</text><text fill="#000000" font-family="Chalkduster" font-size="24" lengthAdjust="spacing" textLength="379.4387" x="763.5111" y="290.3328">RO-Crate Metadata profile)</text></g><!--link ct to repo--><g class="link" data-entity-1="ct" data-entity-2="repo" data-source-line="28" data-uid="lnk16" id="link_ct_repo"><path d="M973.7797,378.0822 L974.0599,378.0822 L973.2272,387.7229 L974.0374,397.3635 L974.3126,407.0042 L972.8285,416.6448 L973.676,426.2855 L973.7797,435.9261 L973.5901,435.9261 L973.6092,439.3477 L973.7494,442.7692 L973.4724,446.1908 L974.0257,449.6123 L973.7797,453.0339 L973.4995,453.0339 L973.6918,454.7772 L973.9716,456.5205 L973.7415,458.2638 L973.81,460.0071 L973.7797,461.7503 L973.7655,461.7503 L973.859,460.7692 L973.8859,459.788 L974.04,458.8068 L974.0779,457.8256 L973.7797,456.8444" fill="none" style="stroke:#8B0000;stroke-width:4;"/><polygon fill="#8B0000" points="973.7797,462.8444,973.8437,462.8729,974.4535,460.9883,975.4385,459.2706,976.3014,457.4985,976.7624,455.5478,977.7797,453.8444,977.7613,453.8261,976.8791,454.5439,976.0893,455.354,975.3636,456.2283,974.4167,456.8814,973.7797,457.8444,973.9102,457.9749,972.8311,456.8958,972.133,456.1978,971.4815,455.5462,970.5594,454.6242,969.7797,453.8444,969.8004,453.8536,970.5699,455.6401,971.434,457.4686,972.2525,459.2768,973.1581,461.1237,973.7797,462.8444" style="stroke:#8B0000;stroke-width:4;"/><text fill="#000000" font-family="Chalkduster" font-size="24" lengthAdjust="spacing" textLength="144.4243" x="974.7797" y="432.7031">Write data</text></g><!--SRC=[TPAnJiCm48RtFCNHYGukQhjLLIHe1ZeWgYuT027NFb9BoJcoBq25U0PcU1AUXnVW5R3Tj2f3lVc-k__-_0uRhd02LvBLHbHMQaCbQCaI3B65vULYNi1v4Gkpraasba2IXW8RwmttipD3gcerFjQIjZ0ONCHX4Iwon1g9XUTjXGD-vImSXuebbHL2xrgIbqx32jT127iW_MxnMvQz_-ly-Vhy_Vw0cQLdT3uwyCgPXg43QLHnDoWLMmUzXREbatMDBk4cYzfhwOFUSkVTkcr2BbnXEdM7Qfu7AGZdoCFoLip2voCCqypm91ybFZh9nucFJt9Ad18VWhZR6AsH7l9ESdHSsgcCZqiK8sX0QFj28e-fJ63bGhvTPbceJ4NRY5tMaovLXlZOdOTxQdty3HRjkZ8AviJeq3CKLhNnIVqz7NhX1bacgSRP9rDXFsxOhq_HxWsahkmF]--></g></svg>