<svg xmlns="http://www.w3.org/2000/svg" xmlns:xlink="http://www.w3.org/1999/xlink" contentStyleType="text/css" data-diagram-type="DESCRIPTION" height="939px" preserveAspectRatio="none" style="width:1518px;height:939px;background:#FFFFFF;" version="1.1" viewBox="0 0 1518 939" width="1518px" zoomAndPan="magnify"><title>RAPID Portal</title><defs/><g><text fill="#000000" font-family="Chalkduster" font-size="42" font-weight="bold" lengthAdjust="spacing" textLength="318.8287" x="592.5856" y="51.7215">RAPID Portal</text><!--cluster portal--><g class="cluster" data-entity="portal" data-source-line="7" data-uid="ent0002" id="cluster_portal"><polygon fill="none" points="115.5,83.8912,115.5,84.1013,125.4265,83.4768,135.3529,84.0844,145.2794,84.2908,155.2059,83.1778,165.1324,83.8134,175.0588,83.4647,184.9853,83.5077,194.9118,83.823,204.8382,83.1998,214.7647,84.4448,224.6912,83.2609,234.6176,83.6934,244.5441,84.3231,254.4706,83.8054,264.3971,83.9594,274.3235,83.8592,284.25,84.0697,294.1765,84.1303,304.1029,84.4769,314.0294,84.5622,323.9559,84.5704,333.8824,84.1458,343.8088,84.3547,353.7353,84.5934,363.6618,83.17,373.5882,84.5697,383.5147,83.5947,393.4412,84.425,403.3676,83.3961,413.2941,83.8227,423.2206,84.6328,433.1471,83.8424,443.0735,83.9965,453,84.2298,462.9265,84.3074,472.8529,83.8873,482.7794,84.1784,492.7059,83.3187,502.6324,84.1755,512.5588,84.4394,522.4853,84.3357,532.4118,84.5042,542.3382,83.4081,552.2647,83.239,562.1912,83.2698,572.1176,83.8323,582.0441,83.6946,591.9706,84.5726,601.8971,83.7165,611.8235,83.5481,621.75,84.1194,631.6765,83.2243,641.6029,83.372,651.5294,84.5401,661.4559,84.3268,671.3824,84.6257,681.3088,83.5694,691.2353,84.2104,701.1618,84.4816,711.0882,83.4188,721.0147,83.7953,730.9412,84.0171,740.8676,84.5429,750.7941,83.887,760.7206,84.3537,770.6471,83.3374,780.5735,83.2139,790.5,83.8912,790.5642,84.0463,790.7621,83.8168,791.272,84.3408,791.587,84.3941,791.88,84.3944,792.2678,84.6234,792.1588,84.5783,792.5555,85.0355,792.4685,85.2923,792.8894,85.7596,792.6833,85.9671,793,86.3912,793.6174,86.3912,793.4843,96.4146,793.245,106.438,793.0472,116.4614,793.7266,126.4848,793.6136,136.5083,793.1693,146.5317,793.2682,156.5551,792.8697,166.5785,793.7165,176.602,793.1549,186.6254,793.1726,196.6488,792.3916,206.6722,792.5948,216.6956,793.5307,226.7191,793.4298,236.7425,792.9571,246.7659,792.6778,256.7893,792.7811,266.8127,792.3138,276.8362,793.4147,286.8596,793.7396,296.883,793.5264,306.9064,793.6949,316.9298,792.8633,326.9533,793.0872,336.9767,792.6124,347.0001,793.284,357.0235,793.2468,367.047,793.5524,377.0704,792.7703,387.0938,792.8656,397.1172,793.4435,407.1406,793.5673,417.1641,792.4875,427.1875,792.8061,437.2109,793.1493,447.2343,792.3892,457.2577,793,467.2812,793.1088,467.3262,792.933,467.6676,792.6761,467.9754,792.6045,468.36,792.6386,468.7883,792.2678,469.0489,792.2279,468.9526,791.9544,469.2924,791.5971,469.4298,791.2219,469.5239,790.8715,469.6781,790.5,469.7812,790.5,469.8946,780.5735,469.157,770.6471,469.3803,760.7206,469.3196,750.7941,469.845,740.8676,469.8693,730.9412,469.9429,721.0147,469.4902,711.0882,469.7136,701.1618,469.6609,691.2353,470.358,681.3088,470.2077,671.3824,469.2956,661.4559,469.7082,651.5294,469.2039,641.6029,470.0695,631.6765,470.3896,621.75,470.3257,611.8235,469.3456,601.8971,470.2451,591.9706,469.0384,582.0441,469.9813,572.1176,469.4818,562.1912,469.8779,552.2647,470.0215,542.3382,470.2533,532.4118,469.0612,522.4853,470.2566,512.5588,469.9593,502.6324,470.1365,492.7059,470.529,482.7794,469.7866,472.8529,469.9564,462.9265,469.9946,453,469.9784,443.0735,469.7803,433.1471,470.4919,423.2206,469.1714,413.2941,470.3464,403.3676,469.1572,393.4412,469.2408,383.5147,469.8212,373.5882,469.8094,363.6618,469.2883,353.7353,470.1949,343.8088,469.89,333.8824,470.5078,323.9559,470.4483,314.0294,469.3329,304.1029,469.3832,294.1765,469.652,284.25,470.1367,274.3235,470.1841,264.3971,470.0823,254.4706,469.4392,244.5441,470.4175,234.6176,470.4149,224.6912,469.7339,214.7647,469.5421,204.8382,469.3798,194.9118,469.5666,184.9853,469.9186,175.0588,469.7128,165.1324,469.3634,155.2059,470.2685,145.2794,469.3222,135.3529,470.2835,125.4265,470.2084,115.5,469.7812,115.5474,469.8957,115.2348,469.848,114.7615,469.4125,114.401,469.2492,114.152,469.3552,113.7322,469.0489,113.5484,468.9728,113.5137,468.6655,113.4749,468.3566,113.314,467.997,113.0361,467.589,113,467.2812,112.957,467.2812,113.7446,457.2577,113.6485,447.2343,112.4037,437.2109,113.0785,427.1875,112.4861,417.1641,112.9737,407.1406,113.293,397.1172,113.4199,387.0938,112.3353,377.0704,113.4005,367.047,113.0084,357.0235,112.4447,347.0001,112.5289,336.9767,113.3266,326.9533,113.2499,316.9298,112.9836,306.9064,112.3279,296.883,113.6581,286.8596,112.6882,276.8362,112.4719,266.8127,112.9327,256.7893,113.5897,246.7659,113.6154,236.7425,113.0351,226.7191,112.8488,216.6956,113.1698,206.6722,113.1862,196.6488,112.4922,186.6254,113.414,176.602,113.5588,166.5785,112.7842,156.5551,112.5708,146.5317,113.6746,136.5083,113.021,126.4848,112.9998,116.4614,113.299,106.438,112.3543,96.4146,113,86.3912,113.1632,86.4588,113.1417,86.0356,113.4989,85.7694,113.3729,85.303,113.7117,85.0291,113.7322,84.6234,113.6756,84.4867,114.117,84.5524,114.4877,84.4473,114.7511,84.0832,115.1928,84.1494,115.5,83.8912" style="stroke:#181818;stroke-width:4;"/><text fill="#000000" font-family="Chalkduster" font-size="24" font-weight="bold" lengthAdjust="spacing" textLength="439.0807" x="233.4597" y="109.732">Data Portal with faceted search</text></g><!--cluster search--><g class="cluster" data-entity="search" data-source-line="8" data-uid="ent0003" id="cluster_search"><polygon fill="none" points="147.5,148.8912,147.5,149.1013,157.55,148.4768,167.6,149.0844,177.65,149.2908,187.7,148.1778,197.75,148.8134,207.8,148.4647,217.85,148.5077,227.9,148.823,237.95,148.1998,248,149.4448,258.05,148.2609,268.1,148.6934,278.15,149.3231,288.2,148.8054,298.25,148.9594,308.3,148.8592,318.35,149.0697,328.4,149.1303,338.45,149.4769,348.5,149.5622,358.55,149.5704,368.6,149.1458,378.65,149.3547,388.7,149.5934,398.75,148.17,408.8,149.5697,418.85,148.5947,428.9,149.425,438.95,148.3961,449,148.8227,459.05,149.6328,469.1,148.8424,479.15,148.9965,489.2,149.2298,499.25,149.3074,509.3,148.8873,519.35,149.1784,529.4,148.3187,539.45,149.1755,549.5,149.4394,559.55,149.3357,569.6,149.5042,579.65,148.4081,589.7,148.239,599.75,148.2698,609.8,148.8323,619.85,148.6946,629.9,149.5726,639.95,148.7165,650,148.5481,660.05,149.1194,670.1,148.2243,680.15,148.372,690.2,149.5401,700.25,149.3268,710.3,149.6257,720.35,148.5694,730.4,149.2104,740.45,149.4816,750.5,148.8912,750.4397,148.7457,750.8413,149.0081,751.2232,149.2229,751.6438,149.5312,751.9137,149.4757,752.2678,149.6234,752.4102,149.6824,752.2437,149.9063,752.3521,150.2441,752.8622,150.7483,752.6328,150.9462,753,151.3912,753.509,151.3912,753.2066,161.5301,752.7321,171.669,752.6462,181.8079,753.4588,191.9469,752.7007,202.0858,753.5919,212.2247,752.4473,222.3637,753.6174,232.5026,753.4843,242.6415,753.245,252.7804,753.0472,262.9194,753.7266,273.0583,753.6136,283.1972,753.1693,293.3362,753.2682,303.4751,752.8697,313.614,753.7165,323.7529,753.1549,333.8919,753.1726,344.0308,752.3916,354.1697,752.5948,364.3087,753.5307,374.4476,753.4298,384.5865,752.9571,394.7254,752.6778,404.8644,752.7811,415.0033,752.3138,425.1422,753,435.2812,753.1277,435.3341,753.0813,435.7291,752.8692,436.0554,752.7747,436.4305,752.3721,436.6779,752.2678,437.0489,752.2789,437.0758,751.8648,437.076,751.5969,437.4293,751.2386,437.5643,750.924,437.8048,750.5,437.7812,750.5,437.5515,740.45,437.6468,730.4,438.2246,720.35,438.3485,710.3,437.2686,700.25,437.5873,690.2,437.9304,680.15,437.1703,670.1,438.1346,660.05,438.0392,650,437.6804,639.95,437.9234,629.9,438.5098,619.85,437.4683,609.8,438.0961,599.75,438.0668,589.7,437.8969,579.65,437.9221,569.6,437.8946,559.55,437.157,549.5,437.3803,539.45,437.3196,529.4,437.845,519.35,437.8693,509.3,437.9429,499.25,437.4902,489.2,437.7136,479.15,437.6609,469.1,438.358,459.05,438.2077,449,437.2956,438.95,437.7082,428.9,437.2039,418.85,438.0695,408.8,438.3896,398.75,438.3257,388.7,437.3456,378.65,438.2451,368.6,437.0384,358.55,437.9813,348.5,437.4818,338.45,437.8779,328.4,438.0215,318.35,438.2533,308.3,437.0612,298.25,438.2566,288.2,437.9593,278.15,438.1365,268.1,438.529,258.05,437.7866,248,437.9564,237.95,437.9946,227.9,437.9784,217.85,437.7803,207.8,438.4919,197.75,437.1714,187.7,438.3464,177.65,437.1572,167.6,437.2408,157.55,437.8212,147.5,437.7812,147.5036,437.7899,147.0836,437.4829,146.8457,437.6157,146.4532,437.3753,146.1785,437.4192,145.7322,437.0489,145.9377,437.134,145.4477,436.6382,145.3168,436.2911,145.2531,435.9718,145.2559,435.6801,145,435.2812,145.403,435.2812,145.3012,425.1422,144.658,415.0033,145.6364,404.8644,145.6338,394.7254,144.9527,384.5865,144.7609,374.4476,144.5986,364.3087,144.7854,354.1697,145.1374,344.0308,144.9316,333.8919,144.5822,323.7529,145.4874,313.614,144.5411,303.4751,145.5024,293.3362,145.4272,283.1972,145.3719,273.0583,145.6925,262.9194,144.7541,252.7804,144.6994,242.6415,145.5189,232.5026,144.4031,222.3637,144.766,212.2247,145.1155,202.0858,145.0687,191.9469,144.6415,181.8079,144.957,171.669,145.7446,161.5301,145,151.3912,145.1997,151.4739,144.9628,150.9615,145.3171,150.6941,145.2811,150.2649,145.5777,149.9736,145.7322,149.6234,145.7696,149.7136,146.1393,149.6063,146.3545,149.1258,146.844,149.3074,147.1475,149.0402,147.5,148.8912" style="stroke:#181818;stroke-width:4;"/><text fill="#000000" font-family="Chalkduster" font-size="24" font-weight="bold" lengthAdjust="spacing" textLength="85.9227" x="406.0387" y="174.732">Search</text></g><!--cluster repo--><g class="cluster" data-entity="repo" data-source-line="25" data-uid="ent0009" id="cluster_repo"><path d="M6,754.4112 L6,754.4112 L6.0164,754.5031 L9.6759,753.5697 L13.4315,753.1754 L17.1557,752.6056 L20.7772,751.4584 L24.541,751.1104 L24.5386,751.0759 L26.4818,750.7828 L28.4373,750.6634 L30.4014,750.6647 L32.336,750.2499 L34.3119,750.4179 L34.3256,750.6636 L36.5981,750.0096 L38.9107,750.073 L41.2281,750.2238 L43.5171,749.8655 L45.821,749.7749 L45.8223,749.8052 L51.3406,749.5317 L56.8647,749.3962 L62.3859,749.1941 L67.9125,749.119 L73.4219,748.6299 L73.4307,748.928 L79.9623,748.7378 L86.4882,748.3553 L93.0225,748.2543 L99.5571,748.1665 L106.0793,747.6607 L106.0722,747.3402 L113.376,747.8005 L120.6564,747.2057 L127.9546,747.413 L135.2344,746.7942 L142.5293,746.8526 L142.5288,746.8221 L150.3305,747.0498 L158.1202,746.5663 L165.9171,746.5024 L173.7145,746.4737 L181.5076,746.1909 L181.51,746.3759 L189.556,746.0833 L197.6062,746.1067 L205.6497,745.6187 L213.7032,745.8935 L221.75,745.6612 L221.7567,746.3921 L231.658,746.1635 L241.5626,746.2978 L251.4519,744.7461 L261.3524,744.4303 L271.2554,744.381 L281.1648,745.0407 L291.0657,744.7668 L300.9707,744.9385 L300.9756,745.847 L310.8419,744.6526 L320.7132,744.3751 L330.5898,745.0838 L340.4559,743.8373 L350.3294,743.9813 L360.2103,745.4857 L370.0781,744.5674 L370.0795,745.1483 L379.7121,745.5244 L389.3405,744.0937 L398.9742,744.926 L408.6067,745.2653 L418.2351,743.8259 L427.868,744.3057 L437.5,744.4112 L437.5,744.4112 L437.5004,744.5791 L447.1337,745.3025 L456.7634,744.4502 L466.3965,745.0949 L476.0251,743.7621 L485.6564,743.6198 L495.2917,745.2166 L504.9219,744.5674 L504.9167,743.6115 L514.798,745.299 L524.6683,744.9489 L534.5374,744.3692 L544.4093,744.3078 L554.2876,745.4441 L564.1547,744.4864 L574.0293,744.9385 L574.0365,745.7276 L583.9252,744.2919 L593.842,745.9424 L603.743,745.8552 L613.6426,745.6264 L623.5428,745.4531 L633.4537,746.4493 L643.3549,746.3889 L653.25,745.6612 L653.251,745.7364 L661.3001,745.8863 L669.3462,745.8152 L677.3997,746.2974 L685.4449,746.1538 L693.4924,746.1909 L693.4937,746.2676 L701.2835,746.0529 L709.0807,746.2755 L716.8834,746.8238 L724.6783,746.9112 L732.4707,746.8526 L732.4703,746.8335 L739.7575,746.871 L747.0485,747.0785 L754.3339,747.0325 L761.6347,747.6833 L768.9207,747.6607 L768.9304,747.9892 L775.4591,748.0884 L781.9928,748.3571 L788.5133,748.1815 L795.0478,748.4748 L801.5781,748.6299 L801.571,748.4578 L807.1035,748.985 L812.623,749.1975 L818.1488,749.5622 L823.6546,749.4439 L829.179,749.7749 L829.1756,749.7153 L831.4918,750.1003 L833.7967,750.2839 L836.0717,749.9333 L838.3814,750.2033 L840.6881,750.4179 L840.6928,750.4841 L842.6231,750.2856 L844.6075,750.8516 L846.5587,750.9478 L848.5016,750.9272 L850.459,751.1104 L850.4701,751.1726 L854.2239,752.0894 L857.851,752.2938 L861.6081,753.2287 L865.314,753.876 L869,754.4112 L869.3087,754.4112 L869.3758,764.263 L869.3026,774.1149 L867.3356,783.9668 L867.9312,793.8187 L867.7692,803.6705 L869.1702,813.5224 L869.235,823.3743 L869.4313,833.2262 L868.2241,843.078 L868.82,852.9299 L868.6794,862.7818 L870.5383,872.6337 L870.1375,882.4855 L867.7052,892.3374 L868.8055,902.1893 L869,912.0412 L869,912.0412 L868.955,911.7886 L865.3143,912.8275 L861.631,913.6277 L857.9178,914.2599 L854.1333,914.4912 L850.459,915.3419 L850.4736,915.5476 L848.4815,915.1511 L846.5569,915.7077 L844.587,915.6247 L842.6453,915.9388 L840.6881,916.0344 L840.694,916.141 L838.398,916.3725 L836.0666,915.9721 L833.7944,916.6312 L831.4852,916.6279 L829.179,916.6774 L829.1855,916.8352 L823.6726,917.2385 L818.1387,917.1378 L812.6217,917.4422 L807.1022,917.6882 L801.5781,917.8224 L801.5807,917.91 L795.0466,918.0159 L788.5245,918.5258 L781.9756,918.1331 L775.4596,918.8489 L768.9207,918.7916 L768.9145,918.5144 L761.6253,918.7132 L754.3411,919.1327 L747.051,919.2891 L739.7558,919.2192 L732.4707,919.5998 L732.4738,919.7836 L724.6759,919.7805 L716.8849,920.1873 L709.0888,920.2932 L701.2847,919.9299 L693.4924,920.2614 L693.4901,920.0845 L685.4432,920.3099 L677.3975,920.6313 L669.3493,920.7583 L661.3002,920.819 L653.25,920.7912 L653.2458,920.3352 L643.3552,921.7299 L633.4525,921.8168 L623.5417,920.9991 L613.6367,920.8338 L603.7322,920.7077 L593.8319,921.0471 L583.9336,921.6067 L574.0293,921.5138 L574.0288,921.4226 L564.1538,921.0098 L554.2878,922.2697 L544.4085,921.061 L534.5429,922.3957 L524.6699,922.3485 L514.797,922.3277 L504.9219,921.8849 L504.924,922.8082 L495.2894,921.5794 L485.6576,921.5287 L476.0284,922.6437 L466.3932,921.1783 L456.7627,921.6845 L447.1321,922.1728 L437.5,922.0412 L437.5,922.0412 L437.5002,922.1327 L427.8672,921.5409 L418.2365,921.9392 L408.6072,922.967 L398.9752,922.8165 L389.3397,921.1345 L379.7101,922.0119 L370.0781,921.8849 L370.0744,921.1997 L360.2054,921.7968 L350.3352,922.1695 L340.4637,922.2857 L330.5834,920.7866 L320.7185,922.1539 L310.8433,921.578 L300.9707,921.5138 L300.9639,920.7734 L291.0624,920.7954 L281.1695,921.7686 L271.266,921.5759 L261.3602,921.1306 L251.4496,920.1661 L241.5632,921.8493 L231.6488,920.4657 L221.75,920.7912 L221.7469,920.5565 L213.7011,920.6553 L205.6565,920.8413 L197.6081,920.7468 L189.5563,920.3829 L181.5076,920.2614 L181.5064,920.1942 L173.7132,920.2045 L165.9177,920.0795 L158.1168,919.6388 L150.3281,919.916 L142.5293,919.5998 L142.5348,919.8481 L135.2372,919.3423 L127.9451,919.0858 L120.666,919.4147 L113.3695,918.9626 L106.0793,918.7916 L106.0793,918.7916 L99.5518,918.7306 L93.0078,918.1171 L86.4919,918.4455 L79.9532,918.0094 L73.4219,917.8224 L73.4342,918.1194 L67.8977,917.4976 L62.3891,917.546 L56.8532,916.9382 L51.3457,917.0152 L45.821,916.6774 L45.8304,916.8457 L43.5111,916.4035 L41.2264,916.5813 L38.9014,916.038 L36.6021,915.9542 L34.3119,916.0344 L34.3334,916.3371 L32.3792,916.1993 L30.4214,916.0094 L28.4381,915.4592 L26.5073,915.6508 L24.541,915.3419 L24.5042,915.1354 L20.8373,914.7072 L17.1245,914.0211 L13.396,913.2466 L9.7562,912.9708 L6,912.0412 L7.1821,912.0412 L5.1447,902.1893 L7.4043,892.3374 L6.245,882.4855 L4.4438,872.6337 L5.3778,862.7818 L4.5993,852.9299 L5.6291,843.078 L4.3227,833.2262 L4.3996,823.3743 L6.1875,813.5224 L5.679,803.6705 L5.8438,793.8187 L5.6181,783.9668 L6.4462,774.1149 L4.5198,764.263 L6,754.4112" fill="#98FB98" style="stroke:#181818;stroke-width:4;"/><path d="M6,754.4112 L6,754.4112 L6.0164,754.5031 L9.6759,754.89 L13.4315,755.816 L17.1557,756.5665 L20.7772,756.7396 L24.541,757.7119 L24.5386,757.6775 L26.4818,757.6614 L28.4373,757.8189 L30.4014,758.0972 L32.336,757.9594 L34.3119,758.4044 L34.3256,758.6501 L36.5981,758.2533 L38.9107,758.5738 L41.2281,758.9819 L43.5171,758.8807 L45.821,759.0474 L45.8223,759.0777 L51.3406,759.2622 L56.8647,759.5847 L62.3859,759.8406 L67.9125,760.2235 L73.4219,760.1924 L73.4307,760.4905 L79.9623,760.688 L86.4882,760.6932 L93.0225,760.9799 L99.5571,761.2798 L106.0793,761.1616 L106.0722,760.8412 L113.376,761.6248 L120.6564,761.3531 L127.9546,761.8837 L135.2344,761.5882 L142.5293,761.9698 L142.5288,761.9393 L150.3305,762.4316 L158.1202,762.2127 L165.9171,762.4135 L173.7145,762.6495 L181.5076,762.6314 L181.51,762.8164 L189.556,762.7356 L197.6062,762.9709 L205.6497,762.6949 L213.7032,763.1816 L221.75,763.1612 L221.7567,763.8921 L231.658,763.8442 L241.5626,764.1592 L251.4519,762.7881 L261.3524,762.6529 L271.2554,762.7843 L281.1648,763.6246 L291.0657,763.5315 L300.9707,763.8838 L300.9756,764.7924 L310.8419,763.7039 L320.7132,763.5324 L330.5898,764.3472 L340.4559,763.2068 L350.3294,763.4567 L360.2103,765.0672 L370.0781,764.2549 L370.0795,764.8358 L379.7121,765.2566 L389.3405,763.8705 L398.9742,764.7475 L408.6067,765.1314 L418.2351,763.7366 L427.868,764.261 L437.5,764.4112 L437.5,764.4112 L437.5004,764.5791 L447.1337,765.2578 L456.7634,764.3609 L466.3965,764.961 L476.0251,763.5835 L485.6564,763.3965 L495.2917,764.9487 L504.9219,764.2549 L504.9167,763.299 L514.798,764.8805 L524.6683,764.4244 L534.5374,763.7387 L544.4093,763.5712 L554.2876,764.6015 L564.1547,763.5377 L574.0293,763.8838 L574.0365,764.6729 L583.9252,763.0565 L593.842,764.5264 L603.743,764.2585 L613.6426,763.8491 L623.5428,763.4951 L633.4537,764.3106 L643.3549,764.0696 L653.25,763.1612 L653.251,763.2364 L661.3001,763.1744 L669.3462,762.8914 L677.3997,763.1617 L685.4449,762.8062 L693.4924,762.6314 L693.4937,762.7081 L701.2835,762.2287 L709.0807,762.1867 L716.8834,762.4703 L724.6783,762.2931 L732.4707,761.9698 L732.4703,761.9507 L739.7575,761.665 L747.0485,761.5492 L754.3339,761.18 L761.6347,761.5076 L768.9207,761.1616 L768.9304,761.4902 L775.4591,761.2017 L781.9928,761.0827 L788.5133,760.5194 L795.0478,760.425 L801.5781,760.1924 L801.571,760.0203 L807.1035,760.0895 L812.623,759.844 L818.1488,759.7507 L823.6546,759.1744 L829.179,759.0474 L829.1756,758.9877 L831.4918,759.1156 L833.7967,759.0419 L836.0717,758.4342 L838.3814,758.447 L840.6881,758.4044 L840.6928,758.4706 L842.6231,757.9951 L844.6075,758.2841 L846.5587,758.1033 L848.5016,757.8058 L850.459,757.7119 L850.4701,757.7742 L854.2239,757.3706 L857.851,756.2547 L861.6081,755.8693 L865.314,755.1963 L869,754.4112" fill="none" style="stroke:#181818;stroke-width:4;"/><text fill="#000000" font-family="Chalkduster" font-size="24" font-style="italic" lengthAdjust="spacing" textLength="169.1404" x="352.9298" y="790.252">&#171;repository&#187;</text><text fill="#000000" font-family="Chalkduster" font-size="24" font-weight="bold" lengthAdjust="spacing" textLength="142.6475" x="366.1762" y="820.8819">Repository</text></g><!--cluster Indexes--><g class="cluster" data-entity="Indexes" data-source-line="35" data-uid="ent0017" id="cluster_Indexes"><path d="M958,551.7812 L958,551.7812 L958.0254,551.871 L960.2831,550.9438 L962.6898,550.5435 L965.048,549.9716 L967.2465,548.8354 L969.666,548.4804 L969.6626,548.446 L972.3251,548.0247 L975.0049,547.7766 L977.6967,547.649 L980.347,547.1063 L983.0554,547.1449 L983.0716,547.3905 L986.5103,546.6364 L989.9962,546.5992 L993.4879,546.6495 L996.9461,546.1909 L1000.4219,545.9999 L1000.4233,546.0302 L1004.5308,545.7919 L1008.6449,545.6915 L1012.7557,545.5245 L1016.8726,545.4845 L1020.97,545.0307 L1020.9805,545.3287 L1025.5675,545.1708 L1030.1477,544.8205 L1034.7378,544.7517 L1039.3284,544.6961 L1043.9043,544.2226 L1043.8957,543.9022 L1048.8175,544.3917 L1053.7108,543.8262 L1058.6258,544.0628 L1063.5185,543.4733 L1068.4294,543.5609 L1068.4288,543.5305 L1073.5004,543.7845 L1078.5572,543.3274 L1083.6228,543.2899 L1088.689,543.2876 L1093.75,543.0312 L1093.758,543.5861 L1103.7191,542.8814 L1113.6938,543.125 L1123.6464,541.8344 L1133.6321,542.8322 L1143.5957,542.3085 L1143.5978,542.5521 L1152.2939,542.4318 L1160.991,542.4325 L1169.6833,541.8712 L1178.3792,541.7218 L1187.0781,541.9374 L1187.0771,541.6612 L1195.5624,541.88 L1204.0466,541.7876 L1212.5324,542.1465 L1221.0153,541.7348 L1229.5,541.7812 L1229.5,541.7812 L1229.4994,541.6287 L1237.9847,541.9139 L1246.4677,541.5473 L1254.9523,541.6442 L1263.4386,542.1946 L1271.9219,541.9374 L1271.9235,542.131 L1280.6211,542.3381 L1289.3136,541.9428 L1298.0125,542.3019 L1306.7101,542.4967 L1315.4043,542.3085 L1315.3952,541.6787 L1325.3716,542.3252 L1335.345,542.7655 L1345.3243,543.611 L1355.2808,542.881 L1365.25,543.0312 L1365.2543,543.2367 L1370.309,542.891 L1375.3719,542.9421 L1380.447,543.5728 L1385.4998,543.1364 L1390.5706,543.5609 L1390.5767,543.7871 L1395.4781,543.7851 L1400.3774,543.7066 L1405.2814,543.8007 L1410.1962,544.2941 L1415.0957,544.2226 L1415.091,544.0896 L1419.6918,544.6471 L1424.2608,544.3003 L1428.866,544.9817 L1433.4507,545.0842 L1438.03,545.0307 L1438.0352,545.1394 L1442.1406,545.2455 L1446.2645,545.7409 L1450.3717,545.8846 L1454.4721,545.8812 L1458.5781,545.9999 L1458.586,546.1188 L1462.0476,546.1711 L1465.5457,546.7757 L1469.0025,546.7556 L1472.4763,546.9925 L1475.9446,547.1449 L1475.9177,546.8759 L1478.6046,547.2328 L1481.3238,547.9138 L1483.9972,548.1363 L1486.6542,548.1943 L1489.334,548.4804 L1489.295,548.3426 L1491.6407,549.0469 L1493.9174,549.5072 L1496.3838,550.6382 L1498.7563,551.4373 L1501,551.7812 L1502.4037,551.7812 L1502.8532,561.8384 L1500.6354,571.8957 L1501.2326,581.953 L1499.9664,592.0103 L1501.7574,602.0675 L1501.658,612.1248 L1502.473,622.1821 L1500.3876,632.2393 L1500.6416,642.2966 L1502.1826,652.3539 L1501,662.4112 L1501,662.4112 L1501.0686,662.6538 L1498.6048,662.8521 L1496.3101,663.6486 L1494.0185,664.4555 L1491.5933,664.7906 L1489.334,665.7119 L1489.3496,665.8682 L1486.6675,666.0931 L1483.9738,666.2016 L1481.3066,666.5761 L1478.6546,667.1026 L1475.9446,667.0474 L1475.9354,666.9086 L1472.4805,667.4161 L1469.0064,667.6321 L1465.5281,667.7857 L1462.0555,668.0259 L1458.5781,668.1924 L1458.5805,668.2428 L1454.4554,668.1092 L1450.3505,668.4022 L1446.2396,668.5691 L1442.141,668.9961 L1438.03,669.1616 L1438.0314,669.2008 L1433.4457,669.3951 L1428.8517,669.3556 L1424.2684,669.6165 L1419.6807,669.7547 L1415.0957,669.9698 L1415.1026,670.226 L1410.1958,670.2916 L1405.2798,670.0187 L1400.3797,670.3343 L1395.4687,670.2426 L1390.5706,670.6314 L1390.5732,670.7595 L1385.5121,671.0077 L1380.4474,671.0853 L1375.3742,670.7557 L1370.3184,671.2614 L1365.25,671.1612 L1365.2356,670.1709 L1355.2847,671.5725 L1345.3059,671.0512 L1335.3444,671.7237 L1325.3781,672.0597 L1315.4043,671.8838 L1315.4061,672.0936 L1306.7051,671.6381 L1298.0131,672.2436 L1289.3155,672.1857 L1280.6197,672.3386 L1271.9219,672.2549 L1271.9231,672.5873 L1263.4375,672.2886 L1254.9534,672.3953 L1246.4691,672.4435 L1237.9847,672.4676 L1229.5,672.4112 L1229.5,672.4112 L1229.5,672.4108 L1221.0168,672.6958 L1212.5303,672.0777 L1204.0478,672.5686 L1195.5615,672.0088 L1187.0781,672.2549 L1187.0761,672.0148 L1178.3818,672.1985 L1169.6853,672.119 L1160.9868,671.8132 L1152.2938,672.1419 L1143.5957,671.8838 L1143.5978,672.0289 L1133.6406,672.7081 L1123.6703,672.4841 L1113.6796,670.8526 L1103.7114,670.7752 L1093.75,671.1612 L1093.7488,671.1038 L1088.6892,671.2132 L1083.6255,671.1283 L1078.5605,670.9771 L1073.4904,670.5854 L1068.4294,670.6314 L1068.4371,670.9141 L1063.532,670.7806 L1058.6188,670.3457 L1053.7115,670.1282 L1048.8045,669.9237 L1043.9043,669.9698 L1043.9009,669.8744 L1039.3196,669.8692 L1034.7295,669.6161 L1030.1372,669.2993 L1025.5645,669.5397 L1020.97,669.1616 L1020.9604,668.9579 L1016.8709,669.1908 L1012.7597,668.9636 L1008.6489,668.7452 L1004.546,668.6937 L1000.4219,668.1924 L1000.4147,668.0834 L996.9398,667.8301 L993.4905,667.9645 L989.9845,667.2407 L986.5219,667.1726 L983.0554,667.0474 L983.0605,667.0985 L980.3806,666.8107 L977.6838,666.3547 L975.0199,666.2271 L972.3767,666.3083 L969.666,665.7119 L969.7445,665.9893 L967.2607,664.7968 L965.0091,664.4252 L962.6042,663.5117 L960.33,663.0601 L958,662.4112 L958.7813,662.4112 L959.1197,652.3539 L956.2274,642.2966 L959.0681,632.2393 L958.0224,622.1821 L956.5191,612.1248 L956.7439,602.0675 L958.8709,592.0103 L958.6663,581.953 L957.9561,571.8957 L956.2077,561.8384 L958,551.7812" fill="none" style="stroke:#181818;stroke-width:4;"/><path d="M958,551.7812 L958,551.7812 L958.0254,551.871 L960.2831,552.2641 L962.6898,553.1841 L965.048,553.9326 L967.2465,554.1167 L969.666,555.0819 L969.6626,555.0476 L972.3251,555.1604 L975.0049,555.4465 L977.6967,555.8531 L980.347,555.8445 L983.0554,556.4174 L983.0716,556.6629 L986.5103,556.3669 L989.9962,556.7877 L993.4879,557.296 L996.9461,557.2954 L1000.4219,557.5624 L1000.4233,557.5927 L1004.5308,557.7421 L1008.6449,558.0294 L1012.7557,558.2501 L1016.8726,558.5978 L1020.97,558.5316 L1020.9805,558.8297 L1025.5675,558.995 L1030.1477,558.968 L1034.7378,559.2224 L1039.3284,559.49 L1043.9043,559.3398 L1043.8957,559.0193 L1048.8175,559.7735 L1053.7108,559.4727 L1058.6258,559.9739 L1063.5185,559.6491 L1068.4294,560.0014 L1068.4288,559.9709 L1073.5004,560.4369 L1078.5572,560.1916 L1083.6228,560.366 L1088.689,560.5757 L1093.75,560.5312 L1093.758,561.0861 L1103.7191,560.6705 L1113.6938,561.2031 L1123.6464,560.2016 L1133.6321,561.4884 L1143.5957,561.2538 L1143.5978,561.4975 L1152.2939,561.5256 L1160.991,561.6747 L1169.6833,561.2618 L1178.3792,561.2608 L1187.0781,561.6249 L1187.0771,561.3487 L1195.5624,561.63 L1204.0466,561.6001 L1212.5324,562.0215 L1221.0153,561.6723 L1229.5,561.7812 L1229.5,561.7812 L1229.4994,561.6287 L1237.9847,561.8514 L1246.4677,561.4223 L1254.9523,561.4567 L1263.4386,561.9446 L1271.9219,561.6249 L1271.9235,561.8185 L1280.6211,561.8771 L1289.3136,561.3335 L1298.0125,561.5441 L1306.7101,561.5904 L1315.4043,561.2538 L1315.3952,560.624 L1325.3716,560.9815 L1335.345,561.1327 L1345.3243,561.6891 L1355.2808,560.6701 L1365.25,560.5312 L1365.2543,560.7367 L1370.309,560.1791 L1375.3719,560.0183 L1380.447,560.4371 L1385.4998,559.7888 L1390.5706,560.0014 L1390.5767,560.2275 L1395.4781,559.9609 L1400.3774,559.6177 L1405.2814,559.4472 L1410.1962,559.6759 L1415.0957,559.3398 L1415.091,559.2068 L1419.6918,559.441 L1424.2608,558.771 L1428.866,559.1291 L1433.4507,558.9084 L1438.03,558.5316 L1438.0352,558.6404 L1442.1406,558.3588 L1446.2645,558.4665 L1450.3717,558.2225 L1454.4721,557.8314 L1458.5781,557.5624 L1458.586,557.6813 L1462.0476,557.2756 L1465.5457,557.4221 L1469.0025,556.9441 L1472.4763,556.7229 L1475.9446,556.4174 L1475.9177,556.1483 L1478.6046,555.9711 L1481.3238,556.1179 L1483.9972,555.8062 L1486.6542,555.33 L1489.334,555.0819 L1489.295,554.9442 L1491.6407,554.3282 L1493.9174,553.4682 L1496.3838,553.2788 L1498.7563,552.7576 L1501,551.7812" fill="none" style="stroke:#181818;stroke-width:4;"/><text fill="#000000" font-family="Chalkduster" font-size="24" font-weight="bold" lengthAdjust="spacing" textLength="107.7746" x="1175.6127" y="587.622">Indexes</text></g><!--entity facet--><g class="entity" data-entity="facet" data-source-line="9" data-uid="ent0004" id="entity_facet"><polygon fill="none" points="184.09,197.8912,184.09,198.1013,194.1729,197.4768,204.2558,198.0844,214.3388,198.2908,224.4217,197.1778,234.5046,197.8134,244.5875,197.4647,254.6705,197.5077,264.7534,197.823,274.8363,197.1998,284.9192,198.4448,295.0022,197.2609,305.0851,197.6934,315.168,198.3231,325.2509,197.8054,335.3338,197.9594,345.4168,197.8592,355.4997,198.0697,365.5826,198.1303,375.6655,198.4769,385.7485,198.5622,395.8314,198.5704,405.9143,197.8912,405.9468,197.9696,406.327,198.1804,406.711,198.4003,406.883,198.1084,407.4151,198.6859,407.6821,198.6234,407.5908,198.5856,407.9929,199.045,407.8225,199.2674,408.1003,199.6753,408.4962,200.1322,408.4143,200.3912,408.3656,200.3912,408.5196,209.5171,408.7529,218.6431,408.8305,227.7691,408.4104,236.895,408.4143,246.021,408.5028,246.0576,408.0916,246.3015,408.209,246.7644,408.1438,247.1516,407.9654,247.4919,407.6821,247.7888,407.7603,247.9775,407.2669,247.7864,406.8918,247.8808,406.5422,248.0367,406.2604,248.3564,405.9143,248.521,405.9143,248.3245,395.8314,249.2024,385.7485,248.3463,375.6655,248.1779,365.5826,248.7493,355.4997,247.8542,345.4168,248.0019,335.3338,249.1699,325.2509,248.9567,315.168,249.2555,305.0851,248.1992,295.0022,248.8402,284.9192,249.1114,274.8363,248.0486,264.7534,248.4251,254.6705,248.647,244.5875,249.1728,234.5046,248.5168,224.4217,248.9836,214.3388,247.9672,204.2558,247.8437,194.1729,249.0246,184.09,248.521,183.9985,248.3002,183.8014,248.5313,183.4093,248.2917,182.9952,247.9991,182.6307,247.8263,182.3222,247.7888,182.4635,247.8473,182.0836,247.397,182.2116,247.1572,181.7127,246.6576,181.9266,246.4533,181.59,246.021,182.0743,246.021,181.835,236.895,181.6372,227.7691,182.3166,218.6431,182.2036,209.5171,181.59,200.3912,181.6421,200.4128,181.819,200.0718,181.8428,199.6674,182.25,199.4219,182.2235,198.9967,182.3222,198.6234,182.3442,198.6765,182.5982,198.2896,182.9776,198.2057,183.4506,198.3475,183.7913,198.17,184.09,197.8912" style="stroke:#181818;stroke-width:4;"/><text fill="#000000" font-family="Chalkduster" font-size="24" lengthAdjust="spacing" textLength="206.8243" x="191.59" y="231.732">Faceted Search</text></g><!--entity results--><g class="entity" data-entity="results" data-source-line="10" data-uid="ent0005" id="entity_results"><polygon fill="none" points="446.04,197.8912,446.04,198.1013,456.2103,197.4768,466.3806,198.0844,476.5509,198.2908,486.7212,197.1778,496.8915,197.8134,507.0619,197.4647,517.2322,197.5077,527.4025,197.823,537.5728,197.1998,547.7431,198.4448,557.9134,197.2609,568.0837,197.6934,578.254,198.3231,588.4243,197.8054,598.5946,197.9594,608.765,197.8592,618.9353,198.0697,629.1056,198.1303,639.2759,198.4769,649.4462,198.5622,659.6165,198.5704,669.7868,198.1458,679.9571,197.8912,680.0163,198.0339,680.4003,198.2539,680.5722,197.962,681.1043,198.5395,681.3335,198.3856,681.7249,198.6234,681.8893,198.6915,681.7189,198.9138,681.9967,199.3218,682.3926,199.7787,682.2957,200.0314,682.4571,200.3912,682.5624,200.3912,682.7958,209.5171,682.8734,218.6431,682.4532,227.7691,682.7443,236.895,682.4571,246.021,682.2808,245.948,682.3983,246.4108,682.3331,246.798,682.1547,247.1384,682.0601,247.5134,681.7249,247.7888,681.6633,247.64,681.2881,247.7344,680.9385,247.8903,680.6567,248.21,680.2856,248.314,679.9571,248.521,679.9571,249.2024,669.7868,248.3463,659.6165,248.1779,649.4462,248.7493,639.2759,247.8542,629.1056,248.0019,618.9353,249.1699,608.765,248.9567,598.5946,249.2555,588.4243,248.1992,578.254,248.8402,568.0837,249.1114,557.9134,248.0486,547.7431,248.4251,537.5728,248.647,527.4025,249.1728,517.2322,248.5168,507.0619,248.9836,496.8915,247.9672,486.7212,247.8437,476.5509,249.0246,466.3806,247.8041,456.2103,249.03,446.04,248.521,446.0664,248.5846,445.6523,248.292,445.2878,248.1192,445.0379,248.2229,444.5876,247.843,444.2722,247.7888,444.4545,247.8643,443.9556,247.3647,444.1695,247.1604,443.982,246.7899,443.7619,246.4058,443.54,246.021,443.5872,246.021,444.2666,236.895,444.1536,227.7691,443.7093,218.6431,443.8082,209.5171,443.54,200.3912,443.4999,200.3745,443.9071,200.129,443.8806,199.7038,444.0325,199.3525,443.9384,198.8993,444.2722,198.6234,444.2205,198.4986,444.6935,198.6404,445.0342,198.4628,445.3274,198.1708,445.6454,197.9384,446.04,197.8912" style="stroke:#181818;stroke-width:4;"/><text fill="#000000" font-family="Chalkduster" font-size="24" lengthAdjust="spacing" textLength="218.9171" x="453.54" y="231.732">Full text search</text></g><!--entity preview--><g class="entity" data-entity="preview" data-source-line="11" data-uid="ent0006" id="entity_preview"><polygon fill="none" points="163.14,355.8412,163.14,356.0513,173.2833,355.4268,183.4265,356.0344,193.5698,356.2408,203.7131,355.1278,213.8563,355.7634,223.9996,355.4147,234.1428,355.4577,244.2861,355.773,254.4294,355.1498,264.5726,356.3948,274.7159,355.2109,284.8592,355.6434,295.0024,356.2731,305.1457,355.7554,315.289,355.9094,325.4322,355.8092,335.5755,356.0197,345.7188,356.0803,355.862,356.4269,366.0053,356.5122,376.1485,356.5204,386.2918,356.0958,396.4351,356.3047,406.5783,356.5434,416.7216,355.12,426.8649,355.8412,426.9514,356.0501,427.1806,355.8963,427.6401,356.2984,427.8624,356.1281,428.2703,356.4059,428.6326,356.5734,428.861,356.668,428.7641,356.9207,428.958,357.2939,429.1763,357.6772,429.3466,358.0407,429.3649,358.3412,429.361,358.3412,429.6521,367.4671,428.7925,376.5931,429.6493,385.7191,429.9131,394.845,429.3649,403.971,429.5018,404.0277,429.4072,404.4027,428.9232,404.6165,428.7247,404.9485,428.5877,405.3059,428.6326,405.7388,428.6251,405.7206,428.254,405.8247,428.0125,406.2415,427.5497,406.1243,427.1747,406.2189,426.8649,406.471,426.8649,406.6993,416.7216,405.8042,406.5783,405.9519,396.4351,407.1199,386.2918,406.9067,376.1485,407.2055,366.0053,406.1492,355.862,406.7902,345.7188,407.0614,335.5755,405.9986,325.4322,406.3751,315.289,406.597,305.1457,407.1228,295.0024,406.4668,284.8592,406.9336,274.7159,405.9172,264.5726,405.7937,254.4294,406.9746,244.2861,405.7541,234.1428,406.98,223.9996,406.6776,213.8563,406.2031,203.7131,406.1172,193.5698,406.9298,183.4265,406.1717,173.2833,407.0629,163.14,406.471,163.0695,406.3008,162.8652,406.5147,162.4947,406.3272,162.1106,406.1071,161.7318,405.8997,161.3722,405.7388,161.596,405.8314,161.4147,405.4635,161.1315,405.0532,161.0155,404.7123,160.7463,404.3079,160.64,403.971,161.3565,403.971,160.7949,394.845,160.8126,385.7191,160.0316,376.5931,160.2348,367.4671,160.64,358.3412,160.8034,358.4089,160.9188,358.0424,160.9197,357.6286,160.9801,357.2394,161.1584,356.899,161.3722,356.5734,161.2847,356.3621,161.7787,356.5547,162.1737,356.5083,162.5,356.2962,162.8751,356.2016,163.14,355.8412" style="stroke:#181818;stroke-width:4;"/><text fill="#000000" font-family="Chalkduster" font-size="24" lengthAdjust="spacing" textLength="248.7249" x="170.64" y="389.682">Document Preview</text></g><!--entity download--><g class="entity" data-entity="download" data-source-line="12" data-uid="ent0007" id="entity_download"><polygon fill="none" points="467.15,340.5212,467.15,340.7313,477.0649,340.1068,486.9798,340.7144,496.8948,340.9208,506.8097,339.8078,516.7246,340.4434,526.6395,340.0947,536.5544,340.1377,546.4693,340.453,556.3843,339.8298,566.2992,341.0748,576.2141,339.8909,586.129,340.3234,596.0439,340.9531,605.9588,340.4354,615.8738,340.5894,625.7887,340.4892,635.7036,340.6997,645.6185,340.7603,655.5334,341.1069,665.4483,341.1922,675.3633,341.2004,685.2782,340.7758,695.1931,340.9847,705.108,341.2234,715.0229,339.8,724.9378,341.1997,734.8528,340.5212,734.8149,340.4298,735.2744,340.832,735.4967,340.6616,735.9047,340.9394,736.3616,341.3353,736.6205,341.2534,736.6055,341.2472,736.7994,341.6204,737.0177,342.0037,737.188,342.3671,737.2051,342.6671,737.3528,343.0212,737.64,343.0212,736.7803,352.5536,737.6371,362.0861,737.901,371.6185,737.7973,381.151,737.9658,390.6835,736.8697,400.2159,736.7006,409.7484,737.3528,419.2808,737.1614,419.2016,737.1882,419.6269,736.9993,419.9629,737.1233,420.4284,736.7132,420.6728,736.6205,421.0486,736.5768,420.9429,736.2961,421.2653,735.8284,421.1361,735.4936,421.3281,735.2891,421.8342,734.8528,421.7808,734.8528,422.2165,724.9378,422.5153,715.0229,421.459,705.108,422.1,695.1931,422.3712,685.2782,421.3084,675.3633,421.685,665.4483,421.9068,655.5334,422.4326,645.6185,421.7766,635.7036,422.2434,625.7887,421.227,615.8738,421.1036,605.9588,422.2844,596.0439,421.0639,586.129,422.2898,576.2141,421.9875,566.2992,421.5129,556.3843,421.4271,546.4693,422.2396,536.5544,421.4815,526.6395,422.3727,516.7246,421.2281,506.8097,422.3983,496.8948,422.2651,486.9798,422.0258,477.0649,421.828,467.15,421.7808,467.2427,422.0046,466.8747,421.8233,466.4645,421.5401,466.1236,421.4241,465.7192,421.1549,465.3822,421.0486,465.6029,421.14,465.2835,420.7148,465.1425,420.3635,464.7555,419.9103,464.6717,419.5827,464.65,419.2808,465.1807,419.2808,465.0798,409.7484,464.6071,400.2159,464.3278,390.6835,464.4311,381.151,463.9638,371.6185,465.0647,362.0861,465.3896,352.5536,464.65,343.0212,464.8121,343.0883,465.0105,342.7563,464.9008,342.2966,465.1162,341.9716,465.1164,341.5575,465.3822,341.2534,465.4185,341.3409,465.7673,341.1829,466.1598,341.1306,466.4136,340.7433,466.7793,340.6262,467.15,340.5212" style="stroke:#181818;stroke-width:4;"/><text fill="#000000" font-family="Chalkduster" font-size="24" lengthAdjust="spacing" textLength="252.7028" x="474.65" y="374.362">Downloadable API</text><text fill="#000000" font-family="Chalkduster" font-size="24" lengthAdjust="spacing" textLength="184.6807" x="474.65" y="404.9919">code snippets</text></g><!--entity api--><g class="entity" data-entity="api" data-source-line="21" data-uid="ent0008" id="entity_api"><polygon fill="none" points="852.92,355.8412,852.92,356.0513,863.1802,355.4268,873.4405,356.0344,883.7007,356.2408,893.9609,355.1278,904.2211,355.7634,914.4814,355.4147,924.7416,355.4577,935.0018,355.773,945.262,355.1498,955.5223,356.3948,965.7825,355.2109,976.0427,355.6434,986.3029,356.2731,996.5632,355.7554,1006.8234,355.9094,1017.0836,355.8412,1017.0795,355.8313,1017.4599,356.0426,1017.8212,356.2077,1018.219,356.4609,1018.5834,356.6336,1018.8514,356.5734,1019.0606,356.66,1019.0762,356.9594,1019.287,357.3396,1019.507,357.7236,1019.2151,357.8956,1019.5836,358.3412,1020.2621,358.3412,1019.2871,367.4671,1020.1174,376.5931,1019.0886,385.7191,1019.5151,394.845,1019.5836,403.971,1019.812,404.0656,1019.4222,404.3183,1019.3232,404.6915,1019.2486,405.0749,1019.126,405.4383,1018.8514,405.7388,1018.8509,405.7376,1018.5345,405.9737,1018.0713,405.8554,1017.827,406.2657,1017.5071,406.4934,1017.0836,406.471,1017.0836,406.9155,1006.8234,407.084,996.5632,405.9879,986.3029,405.8188,976.0427,405.8496,965.7825,406.4121,955.5223,406.2745,945.262,407.1524,935.0018,406.2963,924.7416,406.1279,914.4814,406.6993,904.2211,405.8042,893.9609,405.9519,883.7007,407.1199,873.4405,406.9067,863.1802,407.2055,852.92,406.471,852.879,406.3719,852.6072,406.4228,852.2882,406.3599,851.7991,405.8862,851.4936,405.8557,851.1522,405.7388,851.191,405.7548,851.2065,405.4683,850.858,405.0311,850.8553,404.7371,850.3959,404.2539,850.42,403.971,849.7427,403.971,850.9236,394.845,849.7031,385.7191,850.929,376.5931,850.6266,367.4671,850.42,358.3412,850.3375,358.307,850.4575,357.9425,850.8542,357.6926,850.7672,357.2423,851.1881,357.0024,851.1522,356.5734,851.0817,356.4032,851.5845,356.6171,851.9211,356.4296,852.2441,356.2095,852.5725,356.0021,852.92,355.8412" style="stroke:#181818;stroke-width:4;"/><text fill="#000000" font-family="Chalkduster" font-size="24" lengthAdjust="spacing" textLength="137.2299" x="860.42" y="389.682">&#9881;&#65039; API &#9881;&#65039;</text></g><!--entity 1--><g class="entity" data-entity="1" data-source-line="26" data-uid="ent0010" id="entity_1"><polygon fill="none" points="32.75,847.4112,32.75,847.6213,42.5444,846.9968,52.3388,847.6044,62.1332,847.8108,71.9276,846.6978,81.7221,847.3334,91.5165,846.9847,101.3109,847.0277,111.1053,847.343,120.8997,846.7198,130.6941,847.9648,140.4885,846.7809,150.2829,847.2134,160.0773,847.8431,169.8717,847.3254,179.6662,847.4794,189.4606,847.3792,199.255,847.4112,199.2777,847.4661,199.639,847.6313,200.0368,847.8844,200.4012,848.0572,200.7558,848.2061,201.0227,848.1434,201.1012,848.1759,201.312,848.5561,201.5319,848.9401,201.24,849.1121,201.8175,849.6442,201.755,849.9112,201.4585,849.9112,202.2888,859.0371,201.26,868.1631,201.6865,877.2891,202.4966,886.415,201.755,895.541,201.74,895.5348,201.641,895.908,201.5664,896.2913,201.4438,896.6547,201.168,896.9547,201.0227,897.3088,201.0594,897.3972,200.5962,897.2789,200.3519,897.6892,200.032,897.9169,199.6652,898.0314,199.255,898.041,199.255,898.654,189.4606,897.5579,179.6662,897.3888,169.8717,897.4196,160.0773,897.9821,150.2829,897.8445,140.4885,898.7224,130.6941,897.8663,120.8997,897.6979,111.1053,898.2693,101.3109,897.3742,91.5165,897.5219,81.7221,898.6899,71.9276,898.4767,62.1332,898.7755,52.3388,897.7192,42.5444,898.3602,32.75,898.041,32.8253,898.2228,32.3362,897.7491,32.0307,897.7186,31.7054,897.6405,31.4189,897.6559,30.9822,897.3088,30.9809,897.3082,30.9782,897.0142,30.5188,896.531,30.3343,896.1617,30.5515,895.9588,30.25,895.541,29.5331,895.541,30.759,886.415,30.4566,877.2891,29.9821,868.1631,29.8962,859.0371,30.25,849.9112,30.3913,849.9697,30.3043,849.5194,30.7252,849.2796,30.5191,848.78,31.0259,848.5757,30.9822,848.1434,31.044,848.2925,31.367,848.0724,31.6954,847.865,32.1356,847.9278,32.4747,847.7466,32.75,847.4112" style="stroke:#181818;stroke-width:4;"/><text fill="#000000" font-family="Chalkduster" font-size="24" lengthAdjust="spacing" textLength="151.505" x="40.25" y="881.252">RO-Crate 1</text></g><!--entity 2--><g class="entity" data-entity="2" data-source-line="27" data-uid="ent0011" id="entity_2"><polygon fill="none" points="239.25,847.4112,239.25,847.6213,248.9851,846.9968,258.7203,847.6044,268.4554,847.8108,278.1905,846.6978,287.9257,847.3334,297.6608,846.9847,307.3959,847.0277,317.1311,847.343,326.8662,846.7198,336.6013,847.9648,346.3364,846.7809,356.0716,847.2134,365.8067,847.8431,375.5418,847.3254,385.277,847.4794,395.0121,847.3792,404.7472,847.4112,404.77,847.4661,405.1313,847.6313,405.5291,847.8844,405.8935,848.0572,406.2481,848.2061,406.515,848.1434,406.5934,848.1759,406.8042,848.5561,407.0242,848.9401,406.7322,849.1121,407.3097,849.6442,407.2472,849.9112,406.9507,849.9112,407.7811,859.0371,406.7522,868.1631,407.1787,877.2891,407.9888,886.415,407.2472,895.541,407.2322,895.5348,407.1332,895.908,407.0586,896.2913,406.9361,896.6547,406.6602,896.9547,406.515,897.3088,406.5516,897.3972,406.0884,897.2789,405.8442,897.6892,405.5243,897.9169,405.1575,898.0314,404.7472,898.041,404.7472,898.654,395.0121,897.5579,385.277,897.3888,375.5418,897.4196,365.8067,897.9821,356.0716,897.8445,346.3364,898.7224,336.6013,897.8663,326.8662,897.6979,317.1311,898.2693,307.3959,897.3742,297.6608,897.5219,287.9257,898.6899,278.1905,898.4767,268.4554,898.7755,258.7203,897.7192,248.9851,898.3602,239.25,898.041,239.3253,898.2228,238.8362,897.7491,238.5307,897.7186,238.2054,897.6405,237.9189,897.6559,237.4822,897.3088,237.4809,897.3082,237.4782,897.0142,237.0188,896.531,236.8343,896.1617,237.0515,895.9588,236.75,895.541,236.0331,895.541,237.259,886.415,236.9566,877.2891,236.4821,868.1631,236.3962,859.0371,236.75,849.9112,236.8913,849.9697,236.8043,849.5194,237.2252,849.2796,237.0191,848.78,237.5259,848.5757,237.4822,848.1434,237.544,848.2925,237.867,848.0724,238.1954,847.865,238.6356,847.9278,238.9747,847.7466,239.25,847.4112" style="stroke:#181818;stroke-width:4;"/><text fill="#000000" font-family="Chalkduster" font-size="24" lengthAdjust="spacing" textLength="150.4972" x="246.75" y="881.252">RO-Crate 2</text></g><!--entity 3--><g class="entity" data-entity="3" data-source-line="28" data-uid="ent0012" id="entity_3"><polygon fill="none" points="444.75,847.4112,444.75,847.6213,454.6614,846.9968,464.5728,847.6044,474.4842,847.8108,484.3956,846.6978,494.307,847.3334,504.2184,846.9847,514.1299,847.0277,524.0413,847.343,533.9527,846.7198,543.8641,847.9648,553.7755,846.7809,563.6869,847.2134,573.5983,847.8431,583.5097,847.3254,593.4211,847.4794,603.3325,847.3792,613.2439,847.4112,613.2667,847.4661,613.628,847.6313,614.0257,847.8844,614.3902,848.0572,614.7448,848.2061,615.0117,848.1434,615.0901,848.1759,615.3009,848.5561,615.5208,848.9401,615.2289,849.1121,615.8064,849.6442,615.7439,849.9112,615.4474,849.9112,616.2777,859.0371,615.2489,868.1631,615.6754,877.2891,616.4855,886.415,615.7439,895.541,615.7289,895.5348,615.6299,895.908,615.5553,896.2913,615.4328,896.6547,615.1569,896.9547,615.0117,897.3088,615.0483,897.3972,614.5851,897.2789,614.3409,897.6892,614.021,897.9169,613.6542,898.0314,613.2439,898.041,613.2439,898.654,603.3325,897.5579,593.4211,897.3888,583.5097,897.4196,573.5983,897.9821,563.6869,897.8445,553.7755,898.7224,543.8641,897.8663,533.9527,897.6979,524.0413,898.2693,514.1299,897.3742,504.2184,897.5219,494.307,898.6899,484.3956,898.4767,474.4842,898.7755,464.5728,897.7192,454.6614,898.3602,444.75,898.041,444.8253,898.2228,444.3362,897.7491,444.0307,897.7186,443.7054,897.6405,443.4189,897.6559,442.9822,897.3088,442.9809,897.3082,442.9782,897.0142,442.5188,896.531,442.3343,896.1617,442.5515,895.9588,442.25,895.541,441.5331,895.541,442.759,886.415,442.4566,877.2891,441.9821,868.1631,441.8962,859.0371,442.25,849.9112,442.3913,849.9697,442.3043,849.5194,442.7252,849.2796,442.5191,848.78,443.0259,848.5757,442.9822,848.1434,443.044,848.2925,443.367,848.0724,443.6954,847.865,444.1356,847.9278,444.4747,847.7466,444.75,847.4112" style="stroke:#181818;stroke-width:4;"/><text fill="#000000" font-family="Chalkduster" font-size="24" lengthAdjust="spacing" textLength="153.4939" x="452.25" y="881.252">RO-Crate 3</text></g><!--entity n--><g class="entity" data-entity="n" data-source-line="29" data-uid="ent0013" id="entity_n"><polygon fill="none" points="653.2,847.4112,653.2,847.6213,663.1769,846.9968,673.1539,847.6044,683.1308,847.8108,693.1077,846.6978,703.0846,847.3334,713.0616,846.9847,723.0385,847.0277,733.0154,847.343,742.9923,846.7198,752.9693,847.9648,762.9462,846.7809,772.9231,847.2134,782.9,847.8431,792.877,847.3254,802.8539,847.4794,812.8308,847.3792,822.8077,847.4112,822.8305,847.4661,823.1918,847.6313,823.5896,847.8844,823.954,848.0572,824.3086,848.2061,824.5755,848.1434,824.6539,848.1759,824.8647,848.5561,825.0847,848.9401,824.7928,849.1121,825.3702,849.6442,825.3077,849.9112,825.0112,849.9112,825.8416,859.0371,824.8127,868.1631,825.2392,877.2891,826.0493,886.415,825.3077,895.541,825.2927,895.5348,825.1937,895.908,825.1191,896.2913,824.9966,896.6547,824.7208,896.9547,824.5755,897.3088,824.6121,897.3972,824.1489,897.2789,823.9047,897.6892,823.5848,897.9169,823.218,898.0314,822.8077,898.041,822.8077,898.654,812.8308,897.5579,802.8539,897.3888,792.877,897.4196,782.9,897.9821,772.9231,897.8445,762.9462,898.7224,752.9693,897.8663,742.9923,897.6979,733.0154,898.2693,723.0385,897.3742,713.0616,897.5219,703.0846,898.6899,693.1077,898.4767,683.1308,898.7755,673.1539,897.7192,663.1769,898.3602,653.2,898.041,653.2753,898.2228,652.7862,897.7491,652.4807,897.7186,652.1554,897.6405,651.8689,897.6559,651.4322,897.3088,651.4309,897.3082,651.4282,897.0142,650.9688,896.531,650.7843,896.1617,651.0015,895.9588,650.7,895.541,649.9831,895.541,651.209,886.415,650.9066,877.2891,650.4321,868.1631,650.3462,859.0371,650.7,849.9112,650.8413,849.9697,650.7543,849.5194,651.1752,849.2796,650.9691,848.78,651.4759,848.5757,651.4322,848.1434,651.494,848.2925,651.817,848.0724,652.1454,847.865,652.5856,847.9278,652.9247,847.7466,653.2,847.4112" style="stroke:#181818;stroke-width:4;"/><text fill="#000000" font-family="Chalkduster" font-size="24" lengthAdjust="spacing" textLength="154.6077" x="660.7" y="881.252">RO-Crate n</text></g><!--entity index--><g class="entity" data-entity="index" data-source-line="36" data-uid="ent0018" id="entity_index"><polygon fill="none" points="976.63,605.7812,976.63,605.9913,986.7445,605.3668,996.859,605.9744,1006.9735,606.1808,1017.088,605.0678,1027.2025,605.7034,1037.317,605.3547,1047.4315,605.3977,1057.546,605.713,1067.6605,605.0898,1077.775,606.3348,1087.8895,605.1509,1098.004,605.5834,1108.1185,606.2131,1118.233,605.6954,1128.3475,605.8494,1138.462,605.7492,1148.5765,605.9597,1158.691,606.0203,1168.8055,606.3669,1178.92,606.4522,1189.0345,606.4604,1199.149,606.0358,1209.2635,606.2447,1219.378,605.7812,1219.4676,605.9974,1219.6396,605.7055,1220.1717,606.283,1220.4009,606.1292,1220.8604,606.5313,1221.1458,606.5134,1220.9934,606.4502,1221.2712,606.8582,1221.6671,607.3151,1221.5701,607.5678,1221.764,607.941,1221.878,608.2812,1222.2167,608.2812,1222.2943,617.4071,1221.8741,626.5331,1222.1653,635.6591,1221.3056,644.785,1221.878,653.911,1221.9656,653.9473,1221.9004,654.3345,1221.7221,654.6748,1221.6275,655.0499,1221.1435,655.2636,1221.1458,655.6788,1221.0626,655.4779,1220.713,655.6338,1220.4312,655.9535,1220.0601,656.0576,1219.8185,656.4744,1219.378,656.411,1219.378,656.2363,1209.2635,656.0679,1199.149,656.6393,1189.0345,655.7442,1178.92,655.8919,1168.8055,657.0599,1158.691,656.8467,1148.5765,657.1455,1138.462,656.0892,1128.3475,656.7302,1118.233,657.0014,1108.1185,655.9386,1098.004,656.3151,1087.8895,656.537,1077.775,657.0628,1067.6605,656.4068,1057.546,656.8736,1047.4315,655.8572,1037.317,655.7337,1027.2025,656.9146,1017.088,655.6941,1006.9735,656.92,996.859,656.6176,986.7445,656.1431,976.63,656.411,976.5849,656.302,976.335,656.4058,975.8847,656.0259,975.6448,656.1539,975.1453,655.655,974.8622,655.6788,975.0524,655.7575,974.8649,655.387,974.6448,655.0029,974.4374,654.6241,974.5002,654.3572,974.13,653.911,974.7436,653.911,974.2993,644.785,974.3982,635.6591,973.9997,626.5331,974.8465,617.4071,974.13,608.2812,974.1777,608.3009,974.3296,607.9496,974.2355,607.4965,974.4445,607.1688,974.8792,606.9347,974.8622,606.5134,974.9171,606.6457,975.2103,606.3537,975.5282,606.1213,975.895,606.0066,976.1889,605.7163,976.63,605.7812" style="stroke:#181818;stroke-width:4;"/><text fill="#000000" font-family="Chalkduster" font-size="24" lengthAdjust="spacing" textLength="227.748" x="984.13" y="639.622">Structural Index</text></g><!--entity fulltext--><g class="entity" data-entity="fulltext" data-source-line="37" data-uid="ent0019" id="entity_fulltext"><polygon fill="none" points="1259.12,605.7812,1259.12,605.9913,1269.2909,605.3668,1279.4618,605.9744,1289.6328,606.1808,1299.8037,605.0678,1309.9746,605.7034,1320.1455,605.3547,1330.3164,605.3977,1340.4874,605.713,1350.6583,605.0898,1360.8292,606.3348,1371.0001,605.1509,1381.171,605.5834,1391.342,606.2131,1401.5129,605.6954,1411.6838,605.8494,1421.8547,605.7492,1432.0256,605.9597,1442.1965,606.0203,1452.3675,606.3669,1462.5384,606.4522,1472.7093,606.4604,1482.8802,605.7812,1482.9127,605.8596,1483.2929,606.0704,1483.6769,606.2903,1483.8489,605.9984,1484.381,606.5759,1484.648,606.5134,1484.5567,606.4756,1484.9588,606.935,1484.7884,607.1574,1485.0662,607.5653,1485.4622,608.0222,1485.3802,608.2812,1485.3315,608.2812,1485.4855,617.4071,1485.7189,626.5331,1485.7965,635.6591,1485.3763,644.785,1485.3802,653.911,1485.4687,653.9476,1485.0575,654.1915,1485.1749,654.6544,1485.1097,655.0416,1484.9313,655.3819,1484.648,655.6788,1484.7262,655.8675,1484.2328,655.6764,1483.8577,655.7708,1483.5081,655.9267,1483.2263,656.2464,1482.8802,656.411,1482.8802,656.2145,1472.7093,657.0924,1462.5384,656.2363,1452.3675,656.0679,1442.1965,656.6393,1432.0256,655.7442,1421.8547,655.8919,1411.6838,657.0599,1401.5129,656.8467,1391.342,657.1455,1381.171,656.0892,1371.0001,656.7302,1360.8292,657.0014,1350.6583,655.9386,1340.4874,656.3151,1330.3164,656.537,1320.1455,657.0628,1309.9746,656.4068,1299.8037,656.8736,1289.6328,655.8572,1279.4618,655.7337,1269.2909,656.9146,1259.12,656.411,1259.0285,656.1902,1258.8314,656.4213,1258.4393,656.1817,1258.0252,655.8891,1257.6607,655.7163,1257.3522,655.6788,1257.4935,655.7373,1257.1136,655.287,1257.2416,655.0472,1256.7427,654.5476,1256.9566,654.3433,1256.62,653.911,1257.1043,653.911,1256.865,644.785,1256.6672,635.6591,1257.3466,626.5331,1257.2336,617.4071,1256.62,608.2812,1256.6721,608.3028,1256.849,607.9618,1256.8728,607.5574,1257.28,607.3119,1257.2535,606.8867,1257.3522,606.5134,1257.3742,606.5665,1257.6282,606.1796,1258.0076,606.0957,1258.4806,606.2375,1258.8213,606.06,1259.12,605.7812" style="stroke:#181818;stroke-width:4;"/><text fill="#000000" font-family="Chalkduster" font-size="24" lengthAdjust="spacing" textLength="208.7602" x="1266.62" y="639.622">Full text index</text></g><!--link 1 to 2--><!--link 2 to 3--><!--link 3 to n--><!--reverse link portal to api--><g class="link" data-entity-1="portal" data-entity-2="api" data-source-line="41" data-uid="lnk20" id="link_portal_api"><path d="M794.7651,267.9627 L794.8527,267.9953 L794.8006,268.457 L795.2617,269.1098 L795.5557,269.7003 L795.3002,270.0862 L795.8054,270.7554 L795.7732,270.7427 L796.734,273.472 L797.8566,276.2656 L799.0918,279.1037 L799.9392,281.7881 L801.3297,284.6879 L801.5482,284.8011 L802.4835,287.2658 L804.0567,290.061 L805.7077,292.8965 L806.9059,295.4974 L808.3423,298.2217 L808.3671,298.2391 L810.0622,300.6734 L811.8703,303.1871 L813.6238,305.6625 L815.4813,308.2111 L817,310.5212 L817.2149,310.728 L819.7932,313.406 L822.2329,315.9506 L824.8755,318.6905 L827.5276,321.4395 L829.8784,323.8985 L829.6753,323.6505 L832.9838,326.5191 L835.6236,328.5711 L838.7717,331.2439 L841.3963,333.2774 L844.45,335.8349 L844.433,335.8097 L847.7424,338.2084 L850.6535,340.0178 L853.7996,342.1749 L856.9655,344.3612 L859.9891,346.3369 L860.0813,346.4973 L863.1444,348.1503 L866.3651,350.0773 L869.3308,351.5609 L872.6768,353.7059 L875.77,355.4112" fill="none" style="stroke:#8B0000;stroke-width:4;"/><polygon fill="#8B0000" points="793.0387,262.2165,793.1082,262.2253,792.6535,264.1531,792.6061,266.1327,792.4261,268.0954,791.8098,270.0028,791.7975,271.9868,791.7746,271.9745,792.2082,270.9231,792.7569,269.9335,793.3854,268.987,793.7384,267.8922,794.4774,267.005,794.5648,267.1675,795.3742,267.356,796.4389,268.0189,797.5347,268.7398,798.4493,269.1238,799.4592,269.685,799.4764,269.6998,798.167,268.1843,796.9361,266.7363,795.6674,265.2558,794.4709,263.8374,793.0387,262.2165" style="stroke:#8B0000;stroke-width:4;"/><text fill="#000000" font-family="Chalkduster" font-size="24" lengthAdjust="spacing" textLength="144" x="818" y="303.362">Serve data</text></g><!--link portal to api--><g class="link" data-entity-1="portal" data-entity-2="api" data-source-line="42" data-uid="lnk21" id="link_portal_api"><path d="M793.2742,225.369 L793.2886,225.4613 L797.0007,225.7707 L800.797,226.6211 L804.5658,227.2954 L808.2446,227.3902 L812.0481,228.2871 L812.0423,228.253 L814.4881,228.5198 L816.9629,228.9583 L819.4581,229.5161 L821.8834,229.6626 L824.4065,230.3852 L824.4505,230.6272 L827.1168,230.6117 L829.9116,231.303 L832.7221,232.0805 L835.4413,232.3563 L838.2086,232.896 L838.2144,232.9257 L841.1745,233.4648 L844.1611,234.1393 L847.1348,234.7484 L850.1331,235.4823 L853.0516,235.8096 L853.1139,236.1013 L856.2108,236.7662 L859.2676,237.2429 L862.3832,237.995 L865.5015,238.7601 L868.5325,239.1162 L868.4592,238.8041 L871.7446,240.1476 L874.7888,240.4637 L878.0163,241.5608 L881.055,241.8536 L884.2485,242.8057 L884.2408,242.7762 L887.4415,243.9371 L890.4623,244.4097 L893.5893,245.2885 L896.7251,246.2013 L899.7967,246.8682 L899.8491,247.0456 L902.7917,247.7517 L905.8239,248.7609 L908.7111,249.2796 L911.8145,250.53 L914.7742,251.2939 L914.8529,251.5245 L917.6388,252.4366 L920.4638,253.4633 L923.1072,253.958 L925.8837,254.8426 L928.7781,256.0727 L928.6743,255.8168 L931.2938,257.0729 L933.7963,258.0406 L936.4684,259.4266 L938.8509,260.0984 L941.4055,261.1948 L941.337,261.0586 L943.6207,262.3765 L945.6116,263.1122 L947.8107,264.2619 L950.2136,265.8168 L952.2536,266.6502 L952.375,266.801 L955.4076,269.2787 L958.0625,271.2872 L961.1904,273.8833 L964.2153,276.3514 L967,278.5212 L966.8076,278.437 L968.5172,282.0621 L970.1637,285.6596 L971.934,289.3113 L973.2231,292.7525 L974.781,296.3112 L974.9865,296.3176 L974.4195,300.0071 L974.2492,303.7089 L974.6583,307.4288 L974.0007,311.1154 L974.2037,314.8289 L974.4169,314.9046 L972.986,318.5309 L971.4831,322.1316 L970.1429,325.7901 L969.179,329.5823 L967.6826,333.1853 L967.5654,333.1225 L966.9675,335.0775 L965.5721,336.6053 L965.0836,338.6189 L964.0845,340.3589 L962.9478,342.0253 L963.04,342.0832 L961.9025,343.7297 L961.0951,345.5836 L959.9895,347.2501 L958.7592,348.8384 L957.6324,350.4917" fill="none" style="stroke:#8B0000;stroke-width:4;"/><polygon fill="#8B0000" points="954.3,355.4812,954.3374,355.5404,955.8912,354.3119,957.6644,353.4306,959.3661,352.4362,960.8329,351.07,962.6249,350.2185,962.6199,350.1931,961.4876,350.3,960.3808,350.535,959.2917,350.8591,958.1416,350.8763,957.077,351.3232,957.258,351.3593,956.65,350.1726,956.5704,349.0912,956.5554,348.0226,956.1652,346.8793,955.9722,345.7753,955.9947,345.7792,955.6273,347.7147,955.362,349.6678,955.0475,351.6124,954.8268,353.5731,954.3,355.4812" style="stroke:#8B0000;stroke-width:4;"/><text fill="#000000" font-family="Chalkduster" font-size="24" lengthAdjust="spacing" textLength="85.9227" x="975.54" y="303.362">Search</text></g><!--link index to repo--><g class="link" data-entity-1="index" data-entity-2="repo" data-source-line="43" data-uid="lnk22" id="link_index_repo"><path d="M1073.53,656.8412 L1073.7293,657.0382 L1066.091,663.5771 L1059.6209,671.2711 L1052.7704,678.589 L1044.669,684.6698 L1038.2254,692.3902 L1030.8486,699.1875 L1023.8432,706.3522 L1017.0959,713.7723 L1009.459,720.3123 L1003.593,728.604 L995.4245,734.6183 L988.7884,742.1482 L982.3391,749.863 L974.8022,756.502 L967.902,763.7708 L960.7608,770.8012 L953.9142,778.1229 L946.6988,785.0799 L946.9254,785.3041 L939.9,793.0644 L932.627,800.5798 L925.2808,808.0229 L917.5243,815.0601 L910.3684,822.6914 L903.2407,830.3506 L894.5373,836.4513 L887.867,844.5629 L888.0814,844.7749 L884.8676,847.4079 L882.2243,850.6051 L878.9935,853.2212 L876.2226,856.2922 L873.3385,859.2513" fill="none" style="stroke:#8B0000;stroke-width:4;"/><polygon fill="#8B0000" points="869.1189,863.5168,869.1444,863.5821,870.9033,862.6712,872.8116,862.1427,874.6713,861.4898,876.3708,860.4271,878.292,859.9316,878.2919,859.9057,877.1599,859.7955,876.0286,859.816,874.8978,859.9272,873.7654,859.7256,872.6353,859.9622,872.8198,859.9632,872.419,858.8297,872.5571,857.6991,872.7608,856.5689,872.5821,855.4366,872.6046,854.3054,872.6259,854.3135,871.8975,856.1439,871.266,858.0111,870.5877,859.8605,869.9987,861.7437,869.1189,863.5168" style="stroke:#8B0000;stroke-width:4;"/><text fill="#000000" font-family="Chalkduster" font-size="24" lengthAdjust="spacing" textLength="80.7779" x="1041.73" y="713.252">Index</text></g><!--link api to index--><g class="link" data-entity-1="api" data-entity-2="index" data-source-line="44" data-uid="lnk23" id="link_api_index"><path d="M951.22,406.8312 L951.4542,406.9851 L956.2942,414.948 L962.507,423.8133 L968.2727,432.3848 L972.5685,439.9898 L978.8125,448.8757 L983.9597,457.0405 L989.5435,465.4922 L995.4306,474.1435 L1000.2721,482.1073 L1007.195,491.4395 L1011.4118,498.9926 L1017.4295,507.7297 L1023.6669,516.6112 L1028.6259,524.6523 L1034.3333,533.1854 L1039.7575,541.5323 L1045.5278,550.1067 L1051.1311,558.5714 L1057.0531,567.2455 L1062.684,575.7283 L1068.229,584.1546 L1073.2917,592.2639 L1078.5438,600.4977" fill="none" style="stroke:#8B0000;stroke-width:4;"/><polygon fill="#8B0000" points="1081.84,605.5112,1081.9091,605.5226,1081.3833,603.5452,1081.2628,601.6346,1081.0103,599.7022,1080.3238,597.6983,1080.2381,595.7935,1080.2127,595.7882,1079.8699,596.8726,1079.6549,597.9835,1079.5289,599.1127,1079.0965,600.1786,1079.0932,601.3332,1079.1305,601.514,1077.9427,600.8985,1076.8639,600.8107,1075.7984,600.7873,1074.6556,600.3893,1073.5534,600.1884,1073.5657,600.2075,1075.205,601.244,1076.9002,602.3676,1078.5684,603.4491,1080.2882,604.6109,1081.84,605.5112" style="stroke:#8B0000;stroke-width:4;"/><text fill="#000000" font-family="Chalkduster" font-size="24" lengthAdjust="spacing" textLength="85.9227" x="1027.26" y="518.622">Search</text></g><!--reverse link api to repo--><g class="link" data-entity-1="api" data-entity-2="repo" data-source-line="45" data-uid="lnk25" id="link_api_repo"><path d="M901.2417,410.8187 L901.3056,410.8868 L898.7711,412.886 L896.6114,415.2845 L894.3297,417.553 L891.6465,419.394 L889.519,421.8268 L889.4944,421.8024 L886.9197,424.1771 L884.4685,426.6744 L882.1032,429.257 L879.4418,431.5458 L877.1952,434.2461 L877.377,434.4119 L874.4796,436.8069 L872.113,439.6861 L869.8111,442.6243 L867.1324,445.2189 L864.6519,447.9942 L864.6753,448.0135 L862.1648,450.9841 L859.7607,454.0425 L857.3052,457.0585 L854.9478,460.1555 L852.2708,462.9887 L852.5086,463.1687 L851.3094,464.7587 L849.9569,466.2325 L848.8288,467.8763 L847.7113,469.5281 L846.2604,470.9275 L845.9989,470.7421 L845.341,472.7458 L843.8221,474.1391 L842.9578,475.9964 L841.4194,477.3759 L840.4335,479.147 L840.4081,479.1303 L839.5896,481.0264 L838.1772,482.5311 L837.1153,484.2667 L836.0828,486.0218 L834.838,487.6369 L834.9961,487.733 L833.7732,489.386 L832.8205,491.2032 L831.4307,492.7548 L830.6928,494.7025 L829.5215,496.3869 L829.7346,496.505 L828.6964,498.2826 L827.7639,500.1189 L826.3399,501.6826 L825.2762,503.4461 L824.5318,505.3866 L824.2847,505.2631 L823.5853,507.2227 L822.6075,509.0432 L822.0335,511.0654 L820.7701,512.7432 L819.9165,514.6257 L819.7771,514.564 L819.1706,516.5605 L817.9682,518.293 L817.1896,520.2133 L816.8257,522.3172 L815.7233,524.094 L815.9041,524.1635 L815.2834,526.1486 L814.1005,527.9176 L813.6217,529.9572 L812.9896,531.9379 L812,533.7812 L811.8013,533.7133 L811.2034,535.9831 L810.5404,538.2307 L810.0053,540.522 L808.9731,542.6435 L808.2186,544.8599 L808.415,544.9208 L807.3457,546.8432 L806.6554,548.8831 L806.5189,551.0948 L805.3629,552.9903 L805.0294,555.141 L805.2488,555.196 L804.183,558.8902 L803.043,562.5657 L802.0705,566.2832 L801.4853,570.098 L800.352,573.7752 L800.2205,573.7554 L800.1052,577.1821 L799.0951,580.474 L799.1024,583.9192 L798.5369,587.278 L797.8171,590.6137 L797.9259,590.6174 L797.7294,593.8089 L797.9225,597.0137 L797.7636,600.2064 L797.4576,603.3942 L797.2738,606.5862 L797.3926,606.5958 L797.4755,609.7887 L798.1101,613.0263 L798.1208,616.2134 L798.3882,619.4213 L798.5712,622.6224 L798.3049,622.5757 L798.9913,625.9972 L799.9985,629.475 L800.5518,632.8732 L800.9423,636.2429 L801.5586,639.6521 L801.4193,639.6188 L802.3693,643.4201 L803.0726,647.1625 L804.4538,651.0667 L805.4995,654.8909 L806.0851,658.6051 L806.3109,658.6664 L807.5662,663.0472 L808.3924,667.3116 L809.6715,671.6989 L810.6508,676.0049 L812,680.4112 L812.1159,680.4612 L813.3369,683.3198 L814.6977,686.2388 L815.6147,688.9663 L816.8898,691.8482 L818.1808,694.7371 L818.3362,694.8583 L819.9197,696.866 L821.0814,698.5446 L822.7331,700.6055 L824.3935,702.6732 L825.8812,704.6062 L825.6713,704.4341 L827.6047,706.66 L829.1739,708.5875 L830.6525,710.4407 L832.338,712.4635 L833.8911,714.3777 L834.18,714.5241 L835.1888,717.1216 L836.8595,720.0544 L838.2697,722.8552 L839.6241,725.6277 L841,728.4112 L841.0596,728.4305 L841.791,730.7093 L842.2224,732.8904 L843.0599,735.2037 L843.7773,737.4779 L844.7154,739.824 L844.7426,739.832 L844.9232,740.4179 L845.1249,741.01 L845.1019,741.5365 L845.3675,742.1472 L845.5665,742.7385 L845.5151,742.724 L845.8961,743.1012 L845.9147,743.376 L845.6075,743.5587 L845.8668,743.9016 L845.9808,744.2034" fill="none" style="stroke:#8B0000;stroke-width:4;"/><polygon fill="#8B0000" points="905.68,406.7812,905.702,406.8477,903.7667,407.2695,901.9606,408.0813,900.1124,408.7661,898.1259,409.0333,896.3309,409.8785,896.3296,409.8527,897.4543,409.79,898.585,409.8577,899.7201,410.0162,900.8404,409.8621,901.9814,410.1457,902.1658,410.1545,901.7181,411.2659,901.8087,412.4028,901.9649,413.5429,901.7391,414.6648,901.7142,415.7963,901.735,415.8054,902.4976,413.989,903.355,412.2142,904.1666,410.4193,905.0655,408.6628,905.68,406.7812" style="stroke:#8B0000;stroke-width:4;"/><text fill="#000000" font-family="Chalkduster" font-size="24" lengthAdjust="spacing" textLength="144" x="813" y="639.942">Serve data</text></g><!--SRC=[XP9BJiCm48RtFiNGVOhQxggg4g92geIWAZiUGcuyfHQk7TcJFeHw1jPm4ix31RW2jfE655BXHMJF_yq_ZcT8ai8-JCycun5CZ2Mks8dKgSe5FYwvtaAxVIeuySGV-1CkKLFYQAkmJHjYVbbCYUidXT0QUQuqWRMa1SnvYeG277ARBbh07MI5_CB0hrhkpGzIq2No2xie7MjuBDB8vae1uORgzIswN95huaScpSF_mSJYIkAwk6-nR-9lnnCOcRLMXel8YlBG15yPmfanpt39SvqkqFwRiRVcCt_o_RdNgH48JiiiGtA7-ImwxCANxGwQyld-zlNn6WoWtCPCdad_me4DtPrnvz4fPiP9CdPRFbLcO32mLNGu_DktwNLoRZaXT69EvwZUZNhtgDwBUk-ehgEkezw1v6uXXK3zC2mjk_LGuTAhX_J1huwrm0swXZ4acwUKMp-YaOb5PTYnezCbAt3kOo4KtxMSz44IcfJ41-_xkRKhX72FlLx8mqeFaygYPIN5HlIB2m4Bu5ufk2ejWacUrUogSkmR]--></g></svg>