<?xml version="1.0" encoding="UTF-8" standalone="no"?><svg xmlns="http://www.w3.org/2000/svg" xmlns:xlink="http://www.w3.org/1999/xlink" contentStyleType="text/css" height="440px" preserveAspectRatio="none" style="width:1486px;height:440px;background:#FFFFFF;" version="1.1" viewBox="0 0 1486 440" width="1486px" zoomAndPan="magnify"><defs/><g><text fill="#000000" font-family="sans-serif" font-size="14" font-weight="bold" lengthAdjust="spacing" textLength="320" x="576.3175" y="23.5352">Batch-loading data into LDaCA more details</text><!--cluster data--><g id="cluster_data"><path d="M201.1604,182.0845 C222.7962,148.6809 259.7017,152.0984 277.4852,186.4256 C300.0208,142.6277 335.1808,133.9371 366.8914,176.9796 C394.9109,139.7405 437.0104,141.8644 458.2784,184.6863 C481.428,149.8968 511.9478,141.0315 538.9045,180.5559 C571.216,139.1939 599.2238,146.6557 627.2084,185.3298 C656.1095,138.6189 685.5875,130.6346 723.5822,175.7901 C753.7498,125.9806 785.5303,135.8209 816.8636,174.5621 C842.0589,139.7119 870.6525,133.9077 894.1939,176.2196 C917.393,139.5341 953.9935,132.3212 980.1855,172.8882 C1006.6522,126.7422 1054.409,128.4756 1079.3679,174.5106 C1110.4728,130.151 1138.9037,131.0448 1171.4643,172.9566 C1200.9231,140.7286 1237.1766,144.0823 1258.2205,183.1905 C1278.3595,141.3989 1307.143,142.709 1336.0256,173.8647 C1364.8264,130.6616 1406.6276,129.5597 1427.5,181.4883 C1432.6835,180.5851 1435.9364,183.6823 1434.1015,188.971 C1479.6351,214.585 1474.9102,244.3947 1439.3401,274.9503 C1477.2676,306.8778 1470.4164,350.2531 1420.5,363.4883 C1431.0138,359.6359 1437.1451,366.4434 1434.3999,376.6227 C1395.3037,427.0578 1365.5506,419.1606 1335.2481,368.0375 C1315.5059,405.2382 1284.8597,411.3455 1257.564,376.1419 C1230.3092,418.8684 1201.8893,421.983 1170.9537,379.9009 C1146.6239,432.7308 1096.703,433.5322 1068.78,383.469 C1049.2507,421.6544 1012.8068,428.8247 990.2169,386.4538 C960.1701,427.8825 923.9898,415.8832 906.0693,374.1795 C886.989,416.6635 842.8526,427.4808 811.8747,387.8227 C780.9582,432.588 745.5587,430.6405 723.4825,379.6613 C695.3765,418.8838 662.9277,419.673 633.2379,381.5084 C605.6146,425.1949 572.8373,418.6974 544.3166,382.5074 C510.5784,422.46 484.7712,410.9925 460.4942,372.4093 C433.1966,415.3016 386.736,419.7467 362.6212,369.0798 C340.4659,402.1725 308.1153,397.9349 289.1679,365.4847 C256.2755,420.323 202.6524,409.1639 178.5,356.4883 C189.1883,354.2681 196.6141,360.3823 191.8367,371.7114 C143.4514,349.8587 134.5085,313.0477 180.7622,279.7928 C137.2635,243.0707 135.5297,207.005 185.5,174.4883 C193.9194,170.2688 199.9209,171.5017 201.1604,182.0845 " fill="none" style="stroke:#181818;stroke-width:1.0;"/><text fill="#000000" font-family="sans-serif" font-size="14" font-weight="bold" lengthAdjust="spacing" textLength="145" x="730.5" y="193.0234">Original Data Types</text></g><g id="elem_GMN4"><path d="M1270.5,314.4883 L1270.5,339.7988 L1402.5,339.7988 L1402.5,324.4883 L1392.5,314.4883 L1270.5,314.4883 " fill="#FEFFDD" style="stroke:#181818;stroke-width:0.5;"/><path d="M1392.5,314.4883 L1392.5,324.4883 L1402.5,324.4883 L1392.5,314.4883 " fill="#FEFFDD" style="stroke:#181818;stroke-width:1.0;"/><text fill="#000000" font-family="sans-serif" font-size="13" lengthAdjust="spacing" textLength="111" x="1276.5" y="332.0566">Eg Sydney Speaks</text></g><g id="elem_GMN8"><path d="M1079.5,314.4883 L1079.5,339.7988 L1235.5,339.7988 L1235.5,324.4883 L1225.5,314.4883 L1079.5,314.4883 " fill="#FEFFDD" style="stroke:#181818;stroke-width:0.5;"/><path d="M1225.5,314.4883 L1225.5,324.4883 L1235.5,324.4883 L1225.5,314.4883 " fill="#FEFFDD" style="stroke:#181818;stroke-width:1.0;"/><text fill="#000000" font-family="sans-serif" font-size="13" lengthAdjust="spacing" textLength="135" x="1085.5" y="332.0566">Eg Farms to Freeways</text></g><g id="elem_GMN12"><path d="M931.5,314.4883 L931.5,339.7988 L1019.5,339.7988 L1019.5,324.4883 L1009.5,314.4883 L931.5,314.4883 " fill="#FEFFDD" style="stroke:#181818;stroke-width:0.5;"/><path d="M1009.5,314.4883 L1009.5,324.4883 L1019.5,324.4883 L1009.5,314.4883 " fill="#FEFFDD" style="stroke:#181818;stroke-width:1.0;"/><text fill="#000000" font-family="sans-serif" font-size="13" lengthAdjust="spacing" textLength="67" x="937.5" y="332.0566">Eg Austalk</text></g><g id="elem_GMN16"><path d="M618,306.4883 L618,347.1094 L823,347.1094 L823,316.4883 L813,306.4883 L618,306.4883 " fill="#FEFFDD" style="stroke:#181818;stroke-width:0.5;"/><path d="M813,306.4883 L813,316.4883 L823,316.4883 L813,306.4883 " fill="#FEFFDD" style="stroke:#181818;stroke-width:1.0;"/><text fill="#000000" font-family="sans-serif" font-size="13" lengthAdjust="spacing" textLength="184" x="624" y="324.0566">Eg Monash Corpus of English</text><text fill="#000000" font-family="sans-serif" font-size="13" lengthAdjust="spacing" textLength="86" x="624" y="339.3672">(legacy .docs)</text></g><!--entity csv--><g id="elem_csv"><rect fill="#F1F1F1" height="36.4883" rx="2.5" ry="2.5" style="stroke:#181818;stroke-width:0.5;" width="152" x="1259.5" y="209.4883"/><text fill="#000000" font-family="sans-serif" font-size="14" lengthAdjust="spacing" textLength="132" x="1269.5" y="233.0234">Spreadsheet + files</text></g><!--entity crate--><g id="elem_crate"><rect fill="#F1F1F1" height="36.4883" rx="2.5" ry="2.5" style="stroke:#181818;stroke-width:0.5;" width="132" x="1092.5" y="209.4883"/><text fill="#000000" font-family="sans-serif" font-size="14" lengthAdjust="spacing" textLength="112" x="1102.5" y="233.0234">RO-Crate + files</text></g><!--entity rdf--><g id="elem_rdf"><rect fill="#F1F1F1" height="36.4883" rx="2.5" ry="2.5" style="stroke:#181818;stroke-width:0.5;" width="164" x="893.5" y="209.4883"/><text fill="#000000" font-family="sans-serif" font-size="14" lengthAdjust="spacing" textLength="144" x="903.5" y="233.0234">RDF Metadata + Files</text></g><!--entity word--><g id="elem_word"><rect fill="#F1F1F1" height="36.4883" rx="2.5" ry="2.5" style="stroke:#181818;stroke-width:0.5;" width="275" x="583" y="209.4883"/><text fill="#000000" font-family="sans-serif" font-size="14" lengthAdjust="spacing" textLength="255" x="593" y="233.0234">Transcripts with embedded metadata</text></g><!--entity Service with API--><g id="elem_Service with API"><rect fill="#F1F1F1" height="36.4883" rx="2.5" ry="2.5" style="stroke:#181818;stroke-width:0.5;" width="127" x="421" y="209.4883"/><text fill="#000000" font-family="sans-serif" font-size="14" lengthAdjust="spacing" textLength="107" x="431" y="233.0234">Service with API</text></g><!--entity HTML interface to files--><g id="elem_HTML interface to files"><rect fill="#F1F1F1" height="36.4883" rx="2.5" ry="2.5" style="stroke:#181818;stroke-width:0.5;" width="172" x="213.5" y="209.4883"/><text fill="#000000" font-family="sans-serif" font-size="14" lengthAdjust="spacing" textLength="152" x="223.5" y="233.0234">HTML interface to files</text></g><!--entity ct--><g id="elem_ct"><rect fill="#F1F1F1" height="36.4883" rx="2.5" ry="2.5" style="stroke:#181818;stroke-width:0.5;" width="227" x="12" y="44.4883"/><text fill="#000000" font-family="sans-serif" font-size="14" lengthAdjust="spacing" textLength="207" x="22" y="68.0234">'Corpus Tool' conversion code</text></g><!--entity repo--><g id="elem_repo"><rect fill="#F1F1F1" height="36.4883" rx="2.5" ry="2.5" style="stroke:#181818;stroke-width:0.5;" width="133" x="7" y="209.4883"/><text fill="#000000" font-family="sans-serif" font-size="14" lengthAdjust="spacing" textLength="113" x="17" y="233.0234">OCFL Repository</text></g><!--link csv to GMN4--><g id="link_csv_GMN4"><path d="M1335.68,245.9183 C1335.88,265.6383 1336.2,297.2083 1336.38,314.2183 " fill="none" id="csv-GMN4" style="stroke:#181818;stroke-width:1.0;stroke-dasharray:7.0,7.0;"/></g><!--link crate to GMN8--><g id="link_crate_GMN8"><path d="M1158.32,245.9183 C1158.12,265.6383 1157.8,297.2083 1157.62,314.2183 " fill="none" id="crate-GMN8" style="stroke:#181818;stroke-width:1.0;stroke-dasharray:7.0,7.0;"/></g><!--link rdf to GMN12--><g id="link_rdf_GMN12"><path d="M975.5,245.9183 C975.5,265.6383 975.5,297.2083 975.5,314.2183 " fill="none" id="rdf-GMN12" style="stroke:#181818;stroke-width:1.0;stroke-dasharray:7.0,7.0;"/></g><!--link word to GMN16--><g id="link_word_GMN16"><path d="M720.5,245.9183 C720.5,262.7883 720.5,288.3383 720.5,306.0183 " fill="none" id="word-GMN16" style="stroke:#181818;stroke-width:1.0;stroke-dasharray:7.0,7.0;"/></g><!--reverse link ct to data--><g id="link_ct_data"><path d="M134.48,86.2983 C141.2,103.7383 150.42,128.4683 157.5,150.4883 C160.0975,158.5683 162.6688,167.192 165.0741,175.6223 C166.2767,179.8375 167.4379,184.0043 168.5401,188.0306 C169.0912,190.0437 169.6276,192.0217 170.1471,193.9531 C170.212,194.1945 170.2767,194.4352 170.3411,194.6752 C170.3733,194.7951 170.4054,194.9149 170.4375,195.0345 " fill="none" id="ct-backto-data" style="stroke:#181818;stroke-width:1.0;"/><polygon fill="#181818" points="132.85,82.0883,132.3636,91.9251,134.6526,86.7521,139.8256,89.041,132.85,82.0883" style="stroke:#181818;stroke-width:1.0;"/><text fill="#000000" font-family="sans-serif" font-size="13" lengthAdjust="spacing" textLength="129" x="200" y="124.0566">Convert to RO-Crate</text><text fill="#000000" font-family="sans-serif" font-size="13" lengthAdjust="spacing" textLength="220" x="154.5" y="139.3672">(using Language Commons profile)</text></g><!--link ct to repo--><g id="link_ct_repo"><path d="M96.14,80.9683 C86.07,88.6483 75.97,98.6283 70.5,110.4883 C56.88,140.0483 61.64,178.4983 67.02,202.8483 " fill="none" id="ct-to-repo" style="stroke:#181818;stroke-width:1.0;"/><polygon fill="#181818" points="68.11,207.5483,69.9755,197.8777,66.9815,202.6773,62.182,199.6833,68.11,207.5483" style="stroke:#181818;stroke-width:1.0;"/><text fill="#000000" font-family="sans-serif" font-size="13" lengthAdjust="spacing" textLength="63" x="71.5" y="131.5566">Write data</text></g><!--SRC=[TPB1Rjim38RlUWeYbxOel0S8YW5PKcC34cHe0lJI2oinjb1PD2GvWL7qtKlPtkPWg4-o-FCZVrB99aTB-859ruLZDDPNO30XM9yOjXjShw3XG60eeNLHAUsuCx3O1rjPZmusMNtiMueBm3Wclwj0Eg6l7C7Yq0P24skY1FTmicvIwdWMeVfGdXF1AwV43V0fto_XiO93RpprS6W9t-8S-BGlrW4bvuestBmha4-O_q5pUC2M69e8OguCH1VinTASlIbX9rO76_TG_kK7S_gQBi61lUfYGlSs1nu3-gY3RLE4YqqrKFDAnf21PYepu2ySpDVy8JfKsB77MCEQGzl577gKCZRMB_xMKOMwXs-6TRnJwihMWSBPQXexMFt-jPZLcib-7dVRl7aA9nIr36aQy3_rTSBDrCYHsTs0Pd-c42rxEHeQzvB69S-pzkjo2q_KShI9Gp_ELtudfQGy55rRZ6zfAMOpDkLs_gnUx7OnlzMj83kiI4HDmpv26pZtV9SfXU6BBxwFx2Ky1ojJ7Q3g4m00]--></g></svg>