<svg xmlns="http://www.w3.org/2000/svg" xmlns:xlink="http://www.w3.org/1999/xlink" contentStyleType="text/css" data-diagram-type="DESCRIPTION" height="938px" preserveAspectRatio="none" style="width:1912px;height:938px;background:#FFFFFF;" version="1.1" viewBox="0 0 1912 938" width="1912px" zoomAndPan="magnify"><title>Data Prep Workbench</title><defs/><g><text fill="#000000" font-family="Chalkduster" font-size="42" font-weight="bold" lengthAdjust="spacing" textLength="508.8265" x="694.8709" y="51.7215">Data Prep Workbench</text><!--cluster repo--><g class="cluster" data-entity="repo" data-source-line="21" data-uid="ent0008" id="cluster_repo"><path d="M6,753.4922 L6,753.4922 L6.0164,753.5842 L9.6759,752.6508 L13.4315,752.2565 L17.1557,751.6866 L20.7772,750.5394 L24.541,750.1914 L24.5386,750.157 L26.4818,749.8639 L28.4373,749.7444 L30.4014,749.7457 L32.336,749.331 L34.3119,749.499 L34.3256,749.7447 L36.5981,749.0907 L38.9107,749.154 L41.2281,749.3049 L43.5171,748.9465 L45.821,748.856 L45.8223,748.8863 L51.3406,748.6128 L56.8647,748.4772 L62.3859,748.2752 L67.9125,748.2 L73.4219,747.711 L73.4307,748.0091 L79.9623,747.8189 L86.4882,747.4364 L93.0225,747.3354 L99.5571,747.2475 L106.0793,746.7417 L106.0722,746.4213 L113.376,746.8816 L120.6564,746.2867 L127.9546,746.4941 L135.2344,745.8753 L142.5293,745.9336 L142.5288,745.9032 L150.3305,746.1308 L158.1202,745.6473 L165.9171,745.5834 L173.7145,745.5548 L181.5076,745.272 L181.51,745.457 L189.556,745.1643 L197.6062,745.1877 L205.6497,744.6997 L213.7032,744.9746 L221.75,744.7422 L221.7567,745.4731 L231.658,745.2446 L241.5626,745.3789 L251.4519,743.8271 L261.3524,743.5113 L271.2554,743.4621 L281.1648,744.1217 L291.0657,743.8479 L300.9707,744.0196 L300.9756,744.9281 L310.8419,743.7336 L320.7132,743.4561 L330.5898,744.1649 L340.4559,742.9184 L350.3294,743.0623 L360.2103,744.5667 L370.0781,743.6485 L370.0795,744.2293 L379.7121,744.6055 L389.3405,743.1748 L398.9742,744.0071 L408.6067,744.3464 L418.2351,742.907 L427.868,743.3867 L437.5,743.4922 L437.5,743.4922 L437.5004,743.6602 L447.1337,744.3835 L456.7634,743.5313 L466.3965,744.1759 L476.0251,742.8431 L485.6564,742.7008 L495.2917,744.2976 L504.9219,743.6485 L504.9167,742.6926 L514.798,744.3801 L524.6683,744.03 L534.5374,743.4503 L544.4093,743.3888 L554.2876,744.5252 L564.1547,743.5674 L574.0293,744.0196 L574.0365,744.8087 L583.9252,743.3729 L593.842,745.0234 L603.743,744.9363 L613.6426,744.7075 L623.5428,744.5342 L633.4537,745.5303 L643.3549,745.4699 L653.25,744.7422 L653.251,744.8174 L661.3001,744.9674 L669.3462,744.8962 L677.3997,745.3785 L685.4449,745.2349 L693.4924,745.272 L693.4937,745.3487 L701.2835,745.134 L709.0807,745.3566 L716.8834,745.9048 L724.6783,745.9923 L732.4707,745.9336 L732.4703,745.9145 L739.7575,745.9521 L747.0485,746.1596 L754.3339,746.1136 L761.6347,746.7644 L768.9207,746.7417 L768.9304,747.0703 L775.4591,747.1694 L781.9928,747.4381 L788.5133,747.2625 L795.0478,747.5559 L801.5781,747.711 L801.571,747.5388 L807.1035,748.0661 L812.623,748.2785 L818.1488,748.6433 L823.6546,748.525 L829.179,748.856 L829.1756,748.7963 L831.4918,749.1814 L833.7967,749.3649 L836.0717,749.0143 L838.3814,749.2843 L840.6881,749.499 L840.6928,749.5652 L842.6231,749.3667 L844.6075,749.9326 L846.5587,750.0288 L848.5016,750.0083 L850.459,750.1914 L850.4701,750.2537 L854.2239,751.1704 L857.851,751.3748 L861.6081,752.3097 L865.314,752.957 L869,753.4922 L869.3087,753.4922 L869.3758,763.3441 L869.3026,773.196 L867.3356,783.0478 L867.9312,792.8997 L867.7692,802.7516 L869.1702,812.6035 L869.235,822.4553 L869.4313,832.3072 L868.2241,842.1591 L868.82,852.011 L868.6794,861.8628 L870.5383,871.7147 L870.1375,881.5666 L867.7052,891.4185 L868.8055,901.2703 L869,911.1222 L869,911.1222 L868.955,910.8696 L865.3143,911.9086 L861.631,912.7088 L857.9178,913.341 L854.1333,913.5723 L850.459,914.423 L850.4736,914.6287 L848.4815,914.2322 L846.5569,914.7887 L844.587,914.7058 L842.6453,915.0198 L840.6881,915.1154 L840.694,915.2221 L838.398,915.4535 L836.0666,915.0532 L833.7944,915.7122 L831.4852,915.7089 L829.179,915.7584 L829.1855,915.9162 L823.6726,916.3195 L818.1387,916.2189 L812.6217,916.5233 L807.1022,916.7692 L801.5781,916.9035 L801.5807,916.9911 L795.0466,917.0969 L788.5245,917.6069 L781.9756,917.2141 L775.4596,917.93 L768.9207,917.8727 L768.9145,917.5954 L761.6253,917.7942 L754.3411,918.2137 L747.051,918.3701 L739.7558,918.3002 L732.4707,918.6808 L732.4738,918.8647 L724.6759,918.8615 L716.8849,919.2684 L709.0888,919.3742 L701.2847,919.0109 L693.4924,919.3424 L693.4901,919.1656 L685.4432,919.391 L677.3975,919.7123 L669.3493,919.8394 L661.3002,919.9001 L653.25,919.8722 L653.2458,919.4163 L643.3552,920.811 L633.4525,920.8979 L623.5417,920.0802 L613.6367,919.9148 L603.7322,919.7887 L593.8319,920.1281 L583.9336,920.6877 L574.0293,920.5949 L574.0288,920.5037 L564.1538,920.0908 L554.2878,921.3507 L544.4085,920.142 L534.5429,921.4768 L524.6699,921.4296 L514.797,921.4088 L504.9219,920.966 L504.924,921.8893 L495.2894,920.6604 L485.6576,920.6097 L476.0284,921.7248 L466.3932,920.2594 L456.7627,920.7656 L447.1321,921.2539 L437.5,921.1222 L437.5,921.1222 L437.5002,921.2138 L427.8672,920.622 L418.2365,921.0203 L408.6072,922.048 L398.9752,921.8976 L389.3397,920.2156 L379.7101,921.093 L370.0781,920.966 L370.0744,920.2808 L360.2054,920.8779 L350.3352,921.2506 L340.4637,921.3667 L330.5834,919.8676 L320.7185,921.2349 L310.8433,920.6591 L300.9707,920.5949 L300.9639,919.8544 L291.0624,919.8765 L281.1695,920.8497 L271.266,920.657 L261.3602,920.2116 L251.4496,919.2471 L241.5632,920.9304 L231.6488,919.5468 L221.75,919.8722 L221.7469,919.6375 L213.7011,919.7363 L205.6565,919.9224 L197.6081,919.8278 L189.5563,919.464 L181.5076,919.3424 L181.5064,919.2752 L173.7132,919.2856 L165.9177,919.1605 L158.1168,918.7198 L150.3281,918.9971 L142.5293,918.6808 L142.5348,918.9291 L135.2372,918.4233 L127.9451,918.1669 L120.666,918.4957 L113.3695,918.0437 L106.0793,917.8727 L106.0793,917.8726 L99.5518,917.8117 L93.0078,917.1982 L86.4919,917.5266 L79.9532,917.0904 L73.4219,916.9035 L73.4342,917.2005 L67.8977,916.5786 L62.3891,916.6271 L56.8532,916.0193 L51.3457,916.0962 L45.821,915.7584 L45.8304,915.9268 L43.5111,915.4846 L41.2264,915.6623 L38.9014,915.1191 L36.6021,915.0353 L34.3119,915.1154 L34.3334,915.4182 L32.3792,915.2804 L30.4214,915.0905 L28.4381,914.5402 L26.5073,914.7318 L24.541,914.423 L24.5042,914.2164 L20.8373,913.7883 L17.1245,913.1021 L13.396,912.3277 L9.7562,912.0519 L6,911.1222 L7.1821,911.1222 L5.1447,901.2703 L7.4043,891.4185 L6.245,881.5666 L4.4438,871.7147 L5.3778,861.8628 L4.5993,852.011 L5.6291,842.1591 L4.3227,832.3072 L4.3996,822.4553 L6.1875,812.6035 L5.679,802.7516 L5.8438,792.8997 L5.6181,783.0478 L6.4462,773.196 L4.5198,763.3441 L6,753.4922" fill="#98FB98" style="stroke:#181818;stroke-width:4;"/><path d="M6,753.4922 L6,753.4922 L6.0164,753.5842 L9.6759,753.9711 L13.4315,754.8971 L17.1557,755.6476 L20.7772,755.8207 L24.541,756.793 L24.5386,756.7585 L26.4818,756.7424 L28.4373,756.9 L30.4014,757.1782 L32.336,757.0404 L34.3119,757.4854 L34.3256,757.7311 L36.5981,757.3343 L38.9107,757.6549 L41.2281,758.0629 L43.5171,757.9618 L45.821,758.1284 L45.8223,758.1587 L51.3406,758.3433 L56.8647,758.6657 L62.3859,758.9216 L67.9125,759.3045 L73.4219,759.2735 L73.4307,759.5716 L79.9623,759.7691 L86.4882,759.7743 L93.0225,760.061 L99.5571,760.3608 L106.0793,760.2427 L106.0722,759.9223 L113.376,760.7058 L120.6564,760.4342 L127.9546,760.9648 L135.2344,760.6692 L142.5293,761.0508 L142.5288,761.0204 L150.3305,761.5127 L158.1202,761.2938 L165.9171,761.4946 L173.7145,761.7306 L181.5076,761.7124 L181.51,761.8974 L189.556,761.8166 L197.6062,762.052 L205.6497,761.7759 L213.7032,762.2626 L221.75,762.2422 L221.7567,762.9731 L231.658,762.9252 L241.5626,763.2402 L251.4519,761.8691 L261.3524,761.734 L271.2554,761.8654 L281.1648,762.7057 L291.0657,762.6125 L300.9707,762.9649 L300.9756,763.8734 L310.8419,762.785 L320.7132,762.6135 L330.5898,763.4283 L340.4559,762.2878 L350.3294,762.5378 L360.2103,764.1482 L370.0781,763.336 L370.0795,763.9168 L379.7121,764.3376 L389.3405,762.9515 L398.9742,763.8285 L408.6067,764.2125 L418.2351,762.8177 L427.868,763.3421 L437.5,763.4922 L437.5,763.4922 L437.5004,763.6602 L447.1337,764.3389 L456.7634,763.442 L466.3965,764.042 L476.0251,762.6645 L485.6564,762.4776 L495.2917,764.0298 L504.9219,763.336 L504.9167,762.3801 L514.798,763.9616 L524.6683,763.5054 L534.5374,762.8197 L544.4093,762.6522 L554.2876,763.6826 L564.1547,762.6188 L574.0293,762.9649 L574.0365,763.754 L583.9252,762.1376 L593.842,763.6074 L603.743,763.3396 L613.6426,762.9302 L623.5428,762.5762 L633.4537,763.3916 L643.3549,763.1506 L653.25,762.2422 L653.251,762.3174 L661.3001,762.2554 L669.3462,761.9724 L677.3997,762.2427 L685.4449,761.8872 L693.4924,761.7124 L693.4937,761.7891 L701.2835,761.3098 L709.0807,761.2677 L716.8834,761.5513 L724.6783,761.3741 L732.4707,761.0508 L732.4703,761.0317 L739.7575,760.746 L747.0485,760.6303 L754.3339,760.261 L761.6347,760.5886 L768.9207,760.2427 L768.9304,760.5712 L775.4591,760.2827 L781.9928,760.1637 L788.5133,759.6004 L795.0478,759.5061 L801.5781,759.2735 L801.571,759.1013 L807.1035,759.1706 L812.623,758.925 L818.1488,758.8317 L823.6546,758.2555 L829.179,758.1284 L829.1756,758.0688 L831.4918,758.1966 L833.7967,758.123 L836.0717,757.5152 L838.3814,757.528 L840.6881,757.4854 L840.6928,757.5516 L842.6231,757.0761 L844.6075,757.3651 L846.5587,757.1843 L848.5016,756.8868 L850.459,756.793 L850.4701,756.8552 L854.2239,756.4517 L857.851,755.3358 L861.6081,754.9504 L865.314,754.2774 L869,753.4922" fill="none" style="stroke:#181818;stroke-width:4;"/><text fill="#000000" font-family="Chalkduster" font-size="24" font-style="italic" lengthAdjust="spacing" textLength="169.1404" x="352.9298" y="789.3331">&#171;repository&#187;</text><text fill="#000000" font-family="Chalkduster" font-size="24" font-weight="bold" lengthAdjust="spacing" textLength="142.6475" x="366.1762" y="819.9629">Repository</text></g><!--entity data--><g class="entity" data-entity="data" data-source-line="7" data-uid="ent0002" id="entity_data"><polygon fill="none" points="416.11,100.1022,416.11,100.3124,426.1058,99.6879,436.1017,100.2955,446.0975,100.5019,456.0933,99.3888,466.0892,100.0245,476.085,99.6757,486.0808,99.7187,496.0767,100.0341,506.0725,99.4108,516.0683,100.6559,526.0642,99.4719,536.06,99.9044,546.0558,100.5342,556.0516,100.0164,566.0475,100.1704,576.0433,100.0703,586.0391,100.2807,596.035,100.3413,606.0308,100.6879,616.0266,100.7733,626.0225,100.7815,636.0183,100.3568,646.0141,100.5658,656.01,100.8044,666.0058,99.381,676.0016,100.7807,685.9975,99.8057,695.9933,100.636,705.9891,99.6072,715.985,100.0337,725.9808,100.8438,735.9766,100.0535,745.9725,100.2075,755.9683,100.4408,765.9641,100.5184,775.96,100.0983,785.9558,100.3894,795.9516,99.5298,805.9474,100.3866,815.9433,100.6504,825.9391,100.5467,835.9349,100.7152,845.9308,99.6191,855.9266,99.45,865.9224,99.4808,875.9183,100.0433,885.9141,99.9057,895.9099,100.7836,905.9058,99.9275,915.9016,99.7592,925.8974,100.3305,935.8933,100.1022,935.8082,99.8969,936.1806,100.0888,936.6832,100.595,937.0095,100.6757,937.4012,100.9142,937.661,100.8344,937.5619,100.7934,937.9058,101.2287,938.1357,101.6169,937.9549,101.8348,938.2173,102.2364,938.3933,102.6022,938.5192,102.6022,939.045,111.7282,938.3891,120.8541,938.8558,129.9801,937.8395,139.1061,938.3933,148.232,938.1847,148.1457,938.4019,148.6498,937.8796,148.8477,938.1107,149.3576,937.8711,149.6726,937.661,149.9998,937.6269,149.9173,937.2624,150.0373,937.0124,150.434,936.5622,150.347,936.3223,150.7679,935.8933,150.732,935.8933,150.1793,925.8974,151.3495,915.9016,151.2163,905.9058,150.977,895.9099,150.7793,885.9141,151.4587,875.9183,151.3456,865.9224,150.9013,855.9266,151.0002,845.9308,150.6018,835.9349,151.4485,825.9391,150.8869,815.9433,150.9046,805.9474,150.1237,795.9516,150.3268,785.9558,151.2628,775.96,151.1618,765.9641,150.6891,755.9683,150.4099,745.9725,150.5131,735.9766,150.0459,725.9808,151.1468,715.985,151.4716,705.9891,151.2584,695.9933,151.427,685.9975,150.5953,676.0016,150.8193,666.0058,150.3444,656.01,151.0161,646.0141,150.9788,636.0183,151.2844,626.0225,150.5024,616.0266,150.5976,606.0308,151.1755,596.035,151.2994,586.0391,150.2195,576.0433,150.5382,566.0475,150.8813,556.0516,150.1212,546.0558,151.0854,536.06,150.99,526.0642,150.6313,516.0683,150.8743,506.0725,151.4607,496.0767,150.4192,486.0808,151.047,476.085,151.0177,466.0892,150.8478,456.0933,150.873,446.0975,150.8455,436.1017,150.1079,426.1058,150.3312,416.11,150.732,416.0511,150.5899,415.7646,150.6053,415.4141,150.4663,415.07,150.3425,414.6587,150.0566,414.3422,149.9998,414.3214,149.9912,414.1588,149.6309,414.227,149.3663,414.0343,148.9936,413.6069,148.5237,413.61,148.232,413.5371,148.232,413.0328,139.1061,413.8984,129.9801,414.2185,120.8541,414.1546,111.7282,413.61,102.6022,413.4759,102.5467,413.8993,102.3078,413.6741,101.8004,414.111,101.5671,414.1036,101.1498,414.3422,100.8344,414.3546,100.8642,414.7264,100.762,415.1096,100.6869,415.3111,100.1734,415.8171,100.3951,416.11,100.1022" style="stroke:#181818;stroke-width:4;"/><text fill="#000000" font-family="Chalkduster" font-size="24" lengthAdjust="spacing" textLength="504.7833" x="423.61" y="133.9431">&#128200;&#128196;&#128220;  Folders of original data &#127909;&#127897;</text></g><!--entity dp--><g class="entity" data-entity="dp" data-source-line="11" data-uid="ent0003" id="entity_dp"><polygon fill="#ADD8E6" points="607.58,421.2322,607.58,421.4424,617.5182,420.8179,627.4563,421.4255,637.3945,421.6319,647.3327,420.5188,657.2708,421.1545,667.209,420.8057,677.1472,420.8487,687.0853,421.1641,697.0235,420.5408,706.9617,421.7859,716.8998,420.6019,726.838,421.0344,736.7762,421.6642,746.7143,421.1464,756.6525,421.3004,766.5907,421.2003,776.5288,421.4107,786.467,421.4713,796.4052,421.8179,806.3433,421.9033,816.2815,421.9115,826.2197,421.4868,836.1578,421.6958,846.096,421.9344,856.0342,420.511,865.9723,421.9107,875.9105,420.9357,885.8487,421.766,895.7868,420.7372,905.725,421.1637,915.6632,421.9738,925.6013,421.1835,935.5395,421.3375,945.4777,421.5708,955.4158,421.6484,965.354,421.2283,975.2922,421.5194,985.2303,420.6598,995.1685,421.5166,1005.1067,421.7804,1015.0448,421.6767,1024.983,421.8452,1034.9212,420.7491,1044.8593,420.58,1054.7975,420.6108,1064.7357,421.1733,1074.6738,421.0357,1084.612,421.9136,1094.5502,421.0575,1104.4883,420.8892,1114.4265,421.2322,1114.4556,421.3025,1114.695,421.1733,1115.0674,421.3652,1115.5699,421.8714,1115.8963,421.9522,1116.1943,421.9644,1116.4205,422.0581,1116.2416,422.2769,1116.5855,422.7123,1116.8154,423.1004,1116.6346,423.3184,1116.9265,423.7322,1116.8306,423.7322,1117.0525,433.2647,1117.5783,442.7971,1116.9223,452.3296,1117.3891,461.862,1116.3727,471.3945,1116.2492,480.927,1117.4301,490.4594,1116.9265,499.9919,1116.7057,499.9004,1116.9368,500.4104,1116.6972,500.7253,1116.4046,501.0184,1116.2318,501.361,1116.1943,501.7596,1116.2528,501.9009,1115.8025,501.8139,1115.5627,502.2348,1115.0631,502.0288,1114.8588,502.5356,1114.4265,502.4919,1114.4265,502.9762,1104.4883,502.7368,1094.5502,502.5391,1084.612,503.2185,1074.6738,503.1055,1064.7357,502.6611,1054.7975,502.7601,1044.8593,502.3616,1034.9212,503.2083,1024.983,502.6467,1015.0448,502.6645,1005.1067,501.8835,995.1685,502.0867,985.2303,503.0226,975.2922,502.9216,965.354,502.4489,955.4158,502.1697,945.4777,502.2729,935.5395,501.8057,925.6013,502.9066,915.6632,503.2314,905.725,503.0183,895.7868,503.1868,885.8487,502.3552,875.9105,502.5791,865.9723,502.1043,856.0342,502.7759,846.096,502.7386,836.1578,503.0443,826.2197,502.2622,816.2815,502.3575,806.3433,502.9353,796.4052,503.0592,786.467,501.9793,776.5288,502.298,766.5907,502.6411,756.6525,501.881,746.7143,502.8453,736.7762,502.7499,726.838,502.3911,716.8998,502.6341,706.9617,503.2206,697.0235,502.179,687.0853,502.8069,677.1472,502.7775,667.209,502.6076,657.2708,502.6328,647.3327,502.6054,637.3945,501.8677,627.4563,502.0911,617.5182,502.0303,607.58,502.4919,607.5881,502.5115,607.2377,502.3726,606.8935,502.2488,606.4822,501.9629,606.1572,501.8853,605.8122,501.7596,605.7752,501.7443,605.8434,501.4797,605.6507,501.107,605.2234,500.637,605.204,500.3361,605.08,499.9919,604.5028,499.9919,605.3684,490.4594,605.6885,480.927,605.6246,471.3945,604.6444,461.862,605.544,452.3296,604.3372,442.7971,605.2802,433.2647,605.08,423.7322,604.9878,423.694,605.2562,423.391,605.4469,423.0558,605.6647,422.7318,605.4441,422.2262,605.8122,421.9644,605.8729,422.1109,606.1885,421.8729,606.5647,421.781,606.9683,421.7554,607.2271,421.3803,607.58,421.2322" style="stroke:#181818;stroke-width:4;"/><text fill="#000000" font-family="Chalkduster" font-size="24" font-style="italic" lengthAdjust="spacing" textLength="152.4862" x="784.7602" y="455.0731">&#171;dataprep&#187;</text><text fill="#000000" font-family="Chalkduster" font-size="24" lengthAdjust="spacing" textLength="479.9128" x="615.08" y="485.7029">&#9881;&#65039; Data Preparation Workbench &#9881;&#65039;</text></g><!--entity dt--><g class="entity" data-entity="dt" data-source-line="14" data-uid="ent0004" id="entity_dt"><polygon fill="#FFE4E1" points="1411.94,421.2322,1411.94,421.4424,1421.9834,420.8179,1432.0269,421.4255,1442.0703,421.6319,1452.1137,420.5188,1462.1572,421.1545,1472.2006,420.8057,1482.244,420.8487,1492.2875,421.1641,1502.3309,420.5408,1512.3743,421.7859,1522.4178,420.6019,1532.4612,421.0344,1542.5046,421.6642,1552.5481,421.1464,1562.5915,421.3004,1572.635,421.2003,1582.6784,421.4107,1592.7218,421.4713,1602.7653,421.8179,1612.8087,421.9033,1622.8521,421.9115,1632.8956,421.4868,1642.939,421.6958,1652.9824,421.9344,1663.0259,420.511,1673.0693,421.9107,1683.1127,420.9357,1693.1562,421.766,1703.1996,420.7372,1713.243,421.1637,1723.2865,421.9738,1733.3299,421.1835,1743.3733,421.3375,1753.4168,421.5708,1763.4602,421.6484,1773.5036,421.2283,1783.5471,421.5194,1793.5905,420.6598,1803.6339,421.5166,1813.6774,421.7804,1823.7208,421.6767,1833.7643,421.8452,1843.8077,420.7491,1853.8511,420.58,1863.8946,420.6108,1873.938,421.1733,1883.9814,421.0357,1894.0249,421.9136,1904.0683,421.2322,1904.046,421.1784,1904.3781,421.273,1904.8045,421.5954,1905.0439,421.4662,1905.4163,421.6581,1905.8361,421.9644,1906.0359,422.0472,1906.1167,422.3736,1906.3551,422.7652,1906.1763,422.9841,1906.5201,423.4194,1906.5683,423.7322,1907.1587,423.7322,1906.0959,433.2647,1906.4724,442.7971,1906.6943,452.3296,1907.2201,461.862,1906.5641,471.3945,1907.0309,480.927,1906.0145,490.4594,1906.5683,499.9919,1906.3597,499.9055,1906.5769,500.4097,1906.0546,500.6075,1906.2857,501.1175,1906.0461,501.4324,1905.8361,501.7596,1905.8019,501.6771,1905.4374,501.7971,1905.1875,502.1938,1904.7372,502.1068,1904.4973,502.5277,1904.0683,502.4919,1904.0683,501.9391,1894.0249,503.1093,1883.9814,502.9762,1873.938,502.7368,1863.8946,502.5391,1853.8511,503.2185,1843.8077,503.1055,1833.7643,502.6611,1823.7208,502.7601,1813.6774,502.3616,1803.6339,503.2083,1793.5905,502.6467,1783.5471,502.6645,1773.5036,501.8835,1763.4602,502.0867,1753.4168,503.0226,1743.3733,502.9216,1733.3299,502.4489,1723.2865,502.1697,1713.243,502.2729,1703.1996,501.8057,1693.1562,502.9066,1683.1127,503.2314,1673.0693,503.0183,1663.0259,503.1868,1652.9824,502.3552,1642.939,502.5791,1632.8956,502.1043,1622.8521,502.7759,1612.8087,502.7386,1602.7653,503.0443,1592.7218,502.2622,1582.6784,502.3575,1572.635,502.9353,1562.5915,503.0592,1552.5481,501.9793,1542.5046,502.298,1532.4612,502.6411,1522.4178,501.881,1512.3743,502.8453,1502.3309,502.7499,1492.2875,502.3911,1482.244,502.6341,1472.2006,503.2206,1462.1572,502.179,1452.1137,502.8069,1442.0703,502.7775,1432.0269,502.6076,1421.9834,502.6328,1411.94,502.4919,1411.9545,502.5268,1411.5068,502.1532,1411.1818,502.0755,1410.8205,501.9104,1410.5339,501.9257,1410.1722,501.7596,1410.1994,501.7709,1410.0756,501.4267,1409.7897,501.0154,1409.7121,500.6904,1409.5494,500.3301,1409.44,499.9919,1410.0169,499.9919,1409.8666,490.4594,1408.9545,480.927,1409.3671,471.3945,1408.8628,461.862,1409.7284,452.3296,1410.0485,442.7971,1409.9846,433.2647,1409.44,423.7322,1409.3059,423.6767,1409.7293,423.4378,1409.5041,422.9304,1409.941,422.6971,1409.9336,422.2798,1410.1722,421.9644,1410.1846,421.9942,1410.5564,421.892,1410.9396,421.8169,1411.1411,421.3034,1411.6471,421.5251,1411.94,421.2322" style="stroke:#181818;stroke-width:4;"/><text fill="#000000" font-family="Chalkduster" font-size="24" font-style="italic" lengthAdjust="spacing" textLength="174.126" x="1570.9412" y="455.0731">&#171;workspace&#187;</text><text fill="#000000" font-family="Chalkduster" font-size="24" lengthAdjust="spacing" textLength="465.1946" x="1419.44" y="485.7029">&#9881;&#65039; Data Transformation Tools &#9881;&#65039;</text></g><!--entity 1--><g class="entity" data-entity="1" data-source-line="22" data-uid="ent0009" id="entity_1"><polygon fill="none" points="32.75,846.4922,32.75,846.7024,42.5444,846.0779,52.3388,846.6855,62.1332,846.8919,71.9276,845.7788,81.7221,846.4145,91.5165,846.0657,101.3109,846.1087,111.1053,846.4241,120.8997,845.8008,130.6941,847.0459,140.4885,845.8619,150.2829,846.2944,160.0773,846.9242,169.8717,846.4064,179.6662,846.5604,189.4606,846.4603,199.255,846.4922,199.2777,846.5472,199.639,846.7123,200.0368,846.9655,200.4012,847.1382,200.7558,847.2872,201.0227,847.2244,201.1012,847.2569,201.312,847.6371,201.5319,848.0211,201.24,848.1931,201.8175,848.7252,201.755,848.9922,201.4585,848.9922,202.2888,858.1182,201.26,867.2441,201.6865,876.3701,202.4966,885.4961,201.755,894.622,201.74,894.6158,201.641,894.989,201.5664,895.3723,201.4438,895.7358,201.168,896.0358,201.0227,896.3898,201.0594,896.4783,200.5962,896.36,200.3519,896.7703,200.032,896.998,199.6652,897.1125,199.255,897.122,199.255,897.7351,189.4606,896.639,179.6662,896.4699,169.8717,896.5006,160.0773,897.0632,150.2829,896.9255,140.4885,897.8035,130.6941,896.9474,120.8997,896.779,111.1053,897.3503,101.3109,896.4552,91.5165,896.6029,81.7221,897.771,71.9276,897.5577,62.1332,897.8565,52.3388,896.8002,42.5444,897.4412,32.75,897.122,32.8253,897.3039,32.3362,896.8301,32.0307,896.7996,31.7054,896.7215,31.4189,896.737,30.9822,896.3898,30.9809,896.3893,30.9782,896.0953,30.5188,895.6121,30.3343,895.2428,30.5515,895.0398,30.25,894.622,29.5331,894.622,30.759,885.4961,30.4566,876.3701,29.9821,867.2441,29.8962,858.1182,30.25,848.9922,30.3913,849.0507,30.3043,848.6005,30.7252,848.3606,30.5191,847.861,31.0259,847.6568,30.9822,847.2244,31.044,847.3736,31.367,847.1534,31.6954,846.9461,32.1356,847.0089,32.4747,846.8276,32.75,846.4922" style="stroke:#181818;stroke-width:4;"/><text fill="#000000" font-family="Chalkduster" font-size="24" lengthAdjust="spacing" textLength="151.505" x="40.25" y="880.3331">RO-Crate 1</text></g><!--entity 2--><g class="entity" data-entity="2" data-source-line="23" data-uid="ent0010" id="entity_2"><polygon fill="none" points="239.25,846.4922,239.25,846.7024,248.9851,846.0779,258.7203,846.6855,268.4554,846.8919,278.1905,845.7788,287.9257,846.4145,297.6608,846.0657,307.3959,846.1087,317.1311,846.4241,326.8662,845.8008,336.6013,847.0459,346.3364,845.8619,356.0716,846.2944,365.8067,846.9242,375.5418,846.4064,385.277,846.5604,395.0121,846.4603,404.7472,846.4922,404.77,846.5472,405.1313,846.7123,405.5291,846.9655,405.8935,847.1382,406.2481,847.2872,406.515,847.2244,406.5934,847.2569,406.8042,847.6371,407.0242,848.0211,406.7322,848.1931,407.3097,848.7252,407.2472,848.9922,406.9507,848.9922,407.7811,858.1182,406.7522,867.2441,407.1787,876.3701,407.9888,885.4961,407.2472,894.622,407.2322,894.6158,407.1332,894.989,407.0586,895.3723,406.9361,895.7358,406.6602,896.0358,406.515,896.3898,406.5516,896.4783,406.0884,896.36,405.8442,896.7703,405.5243,896.998,405.1575,897.1125,404.7472,897.122,404.7472,897.7351,395.0121,896.639,385.277,896.4699,375.5418,896.5006,365.8067,897.0632,356.0716,896.9255,346.3364,897.8035,336.6013,896.9474,326.8662,896.779,317.1311,897.3503,307.3959,896.4552,297.6608,896.6029,287.9257,897.771,278.1905,897.5577,268.4554,897.8565,258.7203,896.8002,248.9851,897.4412,239.25,897.122,239.3253,897.3039,238.8362,896.8301,238.5307,896.7996,238.2054,896.7215,237.9189,896.737,237.4822,896.3898,237.4809,896.3893,237.4782,896.0953,237.0188,895.6121,236.8343,895.2428,237.0515,895.0398,236.75,894.622,236.0331,894.622,237.259,885.4961,236.9566,876.3701,236.4821,867.2441,236.3962,858.1182,236.75,848.9922,236.8913,849.0507,236.8043,848.6005,237.2252,848.3606,237.0191,847.861,237.5259,847.6568,237.4822,847.2244,237.544,847.3736,237.867,847.1534,238.1954,846.9461,238.6356,847.0089,238.9747,846.8276,239.25,846.4922" style="stroke:#181818;stroke-width:4;"/><text fill="#000000" font-family="Chalkduster" font-size="24" lengthAdjust="spacing" textLength="150.4972" x="246.75" y="880.3331">RO-Crate 2</text></g><!--entity 3--><g class="entity" data-entity="3" data-source-line="24" data-uid="ent0011" id="entity_3"><polygon fill="none" points="444.75,846.4922,444.75,846.7024,454.6614,846.0779,464.5728,846.6855,474.4842,846.8919,484.3956,845.7788,494.307,846.4145,504.2184,846.0657,514.1299,846.1087,524.0413,846.4241,533.9527,845.8008,543.8641,847.0459,553.7755,845.8619,563.6869,846.2944,573.5983,846.9242,583.5097,846.4064,593.4211,846.5604,603.3325,846.4603,613.2439,846.4922,613.2667,846.5472,613.628,846.7123,614.0257,846.9655,614.3902,847.1382,614.7448,847.2872,615.0117,847.2244,615.0901,847.2569,615.3009,847.6371,615.5208,848.0211,615.2289,848.1931,615.8064,848.7252,615.7439,848.9922,615.4474,848.9922,616.2777,858.1182,615.2489,867.2441,615.6754,876.3701,616.4855,885.4961,615.7439,894.622,615.7289,894.6158,615.6299,894.989,615.5553,895.3723,615.4328,895.7358,615.1569,896.0358,615.0117,896.3898,615.0483,896.4783,614.5851,896.36,614.3409,896.7703,614.021,896.998,613.6542,897.1125,613.2439,897.122,613.2439,897.7351,603.3325,896.639,593.4211,896.4699,583.5097,896.5006,573.5983,897.0632,563.6869,896.9255,553.7755,897.8035,543.8641,896.9474,533.9527,896.779,524.0413,897.3503,514.1299,896.4552,504.2184,896.6029,494.307,897.771,484.3956,897.5577,474.4842,897.8565,464.5728,896.8002,454.6614,897.4412,444.75,897.122,444.8253,897.3039,444.3362,896.8301,444.0307,896.7996,443.7054,896.7215,443.4189,896.737,442.9822,896.3898,442.9809,896.3893,442.9782,896.0953,442.5188,895.6121,442.3343,895.2428,442.5515,895.0398,442.25,894.622,441.5331,894.622,442.759,885.4961,442.4566,876.3701,441.9821,867.2441,441.8962,858.1182,442.25,848.9922,442.3913,849.0507,442.3043,848.6005,442.7252,848.3606,442.5191,847.861,443.0259,847.6568,442.9822,847.2244,443.044,847.3736,443.367,847.1534,443.6954,846.9461,444.1356,847.0089,444.4747,846.8276,444.75,846.4922" style="stroke:#181818;stroke-width:4;"/><text fill="#000000" font-family="Chalkduster" font-size="24" lengthAdjust="spacing" textLength="153.4939" x="452.25" y="880.3331">RO-Crate 3</text></g><!--entity n--><g class="entity" data-entity="n" data-source-line="25" data-uid="ent0012" id="entity_n"><polygon fill="none" points="653.2,846.4922,653.2,846.7024,663.1769,846.0779,673.1539,846.6855,683.1308,846.8919,693.1077,845.7788,703.0846,846.4145,713.0616,846.0657,723.0385,846.1087,733.0154,846.4241,742.9923,845.8008,752.9693,847.0459,762.9462,845.8619,772.9231,846.2944,782.9,846.9242,792.877,846.4064,802.8539,846.5604,812.8308,846.4603,822.8077,846.4922,822.8305,846.5472,823.1918,846.7123,823.5896,846.9655,823.954,847.1382,824.3086,847.2872,824.5755,847.2244,824.6539,847.2569,824.8647,847.6371,825.0847,848.0211,824.7928,848.1931,825.3702,848.7252,825.3077,848.9922,825.0112,848.9922,825.8416,858.1182,824.8127,867.2441,825.2392,876.3701,826.0493,885.4961,825.3077,894.622,825.2927,894.6158,825.1937,894.989,825.1191,895.3723,824.9966,895.7358,824.7208,896.0358,824.5755,896.3898,824.6121,896.4783,824.1489,896.36,823.9047,896.7703,823.5848,896.998,823.218,897.1125,822.8077,897.122,822.8077,897.7351,812.8308,896.639,802.8539,896.4699,792.877,896.5006,782.9,897.0632,772.9231,896.9255,762.9462,897.8035,752.9693,896.9474,742.9923,896.779,733.0154,897.3503,723.0385,896.4552,713.0616,896.6029,703.0846,897.771,693.1077,897.5577,683.1308,897.8565,673.1539,896.8002,663.1769,897.4412,653.2,897.122,653.2753,897.3039,652.7862,896.8301,652.4807,896.7996,652.1554,896.7215,651.8689,896.737,651.4322,896.3898,651.4309,896.3893,651.4282,896.0953,650.9688,895.6121,650.7843,895.2428,651.0015,895.0398,650.7,894.622,649.9831,894.622,651.209,885.4961,650.9066,876.3701,650.4321,867.2441,650.3462,858.1182,650.7,848.9922,650.8413,849.0507,650.7543,848.6005,651.1752,848.3606,650.9691,847.861,651.4759,847.6568,651.4322,847.2244,651.494,847.3736,651.817,847.1534,652.1454,846.9461,652.5856,847.0089,652.9247,846.8276,653.2,846.4922" style="stroke:#181818;stroke-width:4;"/><text fill="#000000" font-family="Chalkduster" font-size="24" lengthAdjust="spacing" textLength="154.6077" x="660.7" y="880.3331">RO-Crate n</text></g><!--entity p--><g class="entity" data-entity="p" data-source-line="20" data-uid="ent0007" id="entity_p"><polygon fill="none" points="1055.0454,90.5481,1053.8727,92.1504,1052.4857,94.4973,1050.502,96.0789,1048.4174,96.9437,1046.7553,97.0188,1044.6191,95.9372,1042.6035,95.2305,1041.0735,93.7958,1040.271,92.1533,1039.7951,90.8455,1039.3288,89.1373,1038.5721,87.6673,1039.1536,86.232,1039.6631,84.6598,1041.5752,83.4164,1042.9204,81.803,1044.5854,81.2673,1046.5649,80.8059,1049.1033,81.08,1050.4936,81.7357,1052.11,82.0329,1054.0755,84.0466,1054.7606,86.1724,1055.0583,87.6228,1054.7211,90.013" style="stroke:#8B0000;stroke-width:4;"/><path d="M1047.0012,96.6022 L1047.188,96.6022 L1046.6329,102.0022 L1047.173,107.4022 L1047.3564,112.8022 L1046.367,118.2022 L1047.0012,123.6022 M1034.0012,104.6022 L1034.0012,104.5331 L1039.2012,104.2231 L1044.4012,104.2613 L1049.6012,104.5416 L1054.8012,103.9877 L1060.0012,104.6022 M1047.0012,123.6022 L1047.3731,123.9245 L1043.9778,126.2353 L1041.6683,129.4871 L1039.4913,132.8537 L1036.5435,135.5523 L1034.0012,138.6022 M1047.0012,123.6022 L1047.047,123.6419 L1049.5797,126.5836 L1052.3211,129.7061 L1054.9618,132.7414 L1057.7946,135.9432 L1060.0012,138.6022" fill="none" style="stroke:#8B0000;stroke-width:4;"/><text fill="#000000" font-family="Chalkduster" font-size="24" lengthAdjust="spacing" textLength="147.1823" x="973.41" y="167.4431">Researcher</text></g><!--link dp to dt--><g class="link" data-entity-1="dp" data-entity-2="dt" data-source-line="18" data-uid="lnk6" id="link_dp_dt"><path d="M1117.29,461.8622 L1117.29,462.1425 L1127.15,461.3098 L1137.01,462.1199 L1146.87,462.3951 L1156.73,460.911 L1166.59,461.7586 L1176.45,461.2936 L1186.31,461.3509 L1196.17,461.7713 L1206.03,460.9404 L1215.89,462.6004 L1225.75,461.0218 L1235.61,461.5985 L1245.47,462.4381 L1255.33,461.7478 L1265.19,461.9532 L1275.05,461.8196 L1284.91,462.1002 L1294.77,462.1811 L1304.63,462.6431 L1314.49,462.7569 L1324.35,462.7679 L1334.21,462.2017 L1344.07,462.4803 L1353.93,462.7985 L1363.79,460.9006 L1373.65,462.7669 L1383.51,461.4669 L1393.37,462.574 L1403.23,461.8622" fill="none" style="stroke:#8B0000;stroke-width:4;"/><polygon fill="#8B0000" points="1409.23,461.8622,1409.2585,461.9262,1407.3739,460.936,1405.6562,460.3211,1403.8841,459.584,1401.9334,458.4449,1400.23,457.8622,1400.2117,457.8439,1400.9295,458.5617,1401.7396,459.3718,1402.6139,460.2461,1403.267,460.8993,1404.23,461.8622,1404.3605,461.9927,1403.2814,462.5137,1402.5834,463.4156,1401.9318,464.364,1401.0098,465.042,1400.23,465.8622,1400.2392,465.883,1402.0257,465.0525,1403.8542,464.3166,1405.6624,463.5351,1407.5093,462.8406,1409.23,461.8622" style="stroke:#8B0000;stroke-width:4;"/><text fill="#000000" font-family="Chalkduster" font-size="24" lengthAdjust="spacing" textLength="246.7094" x="1140.2187" y="420.7031">Use *conformant*</text><text fill="#000000" font-family="Chalkduster" font-size="24" lengthAdjust="spacing" textLength="256.7867" x="1135.18" y="451.3329">RO-Crates directly</text></g><!--link dt to dp--><g class="link" data-entity-1="dt" data-entity-2="dp" data-source-line="31" data-uid="lnk18" id="link_dt_dp"><path d="M1498.21,502.9322 L1498.2295,503.0236 L1494.603,503.5134 L1491.0909,504.5388 L1487.5415,505.3899 L1483.8697,505.6674 L1480.3673,506.7388 L1480.3604,506.7049 L1476.6915,507.2922 L1473.0571,508.05 L1469.4469,508.9265 L1465.7537,509.3943 L1462.1767,510.4346 L1462.2231,510.6762 L1458.4357,510.8678 L1454.7837,511.765 L1451.1482,512.7482 L1447.4166,513.2306 L1443.7356,513.9764 L1443.7409,514.0062 L1440.0142,514.6313 L1436.3119,515.3923 L1432.5978,516.0877 L1428.9062,516.9082 L1425.1413,517.321 L1425.1902,517.6152 L1421.4608,518.2396 L1417.6998,518.6742 L1413.985,519.3867 L1410.2724,520.1121 L1406.4912,520.4251 L1406.4431,520.1082 L1402.8146,521.2873 L1399.028,521.423 L1395.3616,522.3519 L1391.5714,522.4639 L1387.8827,523.2455 L1387.8786,523.2153 L1384.2329,524.0708 L1380.492,524.2214 L1376.8072,524.7879 L1373.1272,525.3894 L1369.4131,525.7389 L1369.4345,525.9227 L1365.7663,526.1619 L1362.1347,526.715 L1358.4438,526.7602 L1354.8412,527.5631 L1351.18,527.8622 L1351.1992,528.1051 L1347.769,528.33 L1344.3484,528.6756 L1340.8835,528.4608 L1337.451,528.6567 L1334.0473,529.2165 L1334.0349,528.9406 L1329.7854,529.3825 L1325.5219,529.5134 L1321.2787,530.0953 L1317.0008,529.9073 L1312.7436,530.1769 L1312.74,530.0245 L1307.9291,530.3923 L1303.1027,530.1086 L1298.2874,530.2882 L1293.4827,530.9211 L1288.659,530.7468 L1288.6604,530.9404 L1283.5663,531.1098 L1278.4679,530.6769 L1273.3749,530.9984 L1268.2807,531.1555 L1263.1838,530.9297 L1263.1821,530.7198 L1258.0883,530.847 L1252.9939,530.9055 L1247.9006,531.0991 L1242.8032,530.7674 L1237.708,530.7292 L1237.713,530.9347 L1232.8849,530.3671 L1228.0664,530.1961 L1223.2618,530.6047 L1218.4316,529.9463 L1213.622,530.1488 L1213.6322,530.3748 L1209.3649,530.0491 L1205.0943,529.6471 L1200.8313,529.4176 L1196.5863,529.587 L1192.316,529.1919 L1192.3057,529.0593 L1188.9091,529.1883 L1185.4426,528.4151 L1182.0556,528.6677 L1178.6238,528.3428 L1175.18,527.8622 L1175.1922,527.9704 L1171.5012,527.4692 L1167.8538,527.3553 L1164.167,526.8915 L1160.4638,526.2813 L1156.7743,525.7927 L1156.7895,525.9109 L1153.1194,525.2649 L1149.5201,525.1677 L1145.8407,524.4498 L1142.1942,523.9873 L1138.5369,523.4408 L1138.4982,523.1732 L1134.8898,522.7386 L1131.3281,522.6262 L1127.7003,522.0578 L1124.0489,521.3258 L1120.4303,520.8206 L1120.4077,520.6793 L1116.8122,520.1496 L1113.1768,519.3697 L1109.6512,519.2779 L1106.0712,518.8456 L1102.4167,517.9461 L1102.4566,518.1766 L1098.8778,517.6274 L1095.2229,516.6402 L1091.6483,516.1152 L1088.0206,515.2843 L1084.4583,514.831 L1084.4815,514.9551 L1080.8903,514.2705 L1077.327,513.7357 L1073.6752,512.7257 L1070.0948,512.099 L1066.5176,511.4894 L1066.5559,511.6827 L1062.9744,511.0259 L1059.2891,509.8443 L1055.7244,509.2724 L1052.1619,508.7111 L1048.5569,507.9352 L1048.5015,507.6694 L1044.9852,507.3384 L1041.3728,506.5463 L1037.7366,505.6397 L1034.1549,504.9949 L1030.5383,504.1824" fill="none" style="stroke:#8B0000;stroke-width:4;"/><polygon fill="#8B0000" points="1024.67,502.9322,1024.7112,502.9889,1026.1826,503.978,1027.8955,505.2993,1029.5297,506.5125,1030.9055,507.3698,1032.639,508.7197,1032.6173,508.7056,1031.904,507.6932,1031.3003,506.7519,1030.7727,505.8599,1029.9827,504.7977,1029.5603,503.974,1029.6607,504.1289,1030.395,503.182,1031.4226,502.6872,1032.486,502.2476,1033.3412,501.487,1034.3059,500.8953,1034.3106,500.9175,1032.3765,501.2922,1030.4639,501.7683,1028.5409,502.1954,1026.6376,502.7158,1024.67,502.9322" style="stroke:#8B0000;stroke-width:4;"/><text fill="#000000" font-family="Chalkduster" font-size="24" lengthAdjust="spacing" textLength="94.2497" x="1216.1181" y="489.7031">Import</text><text fill="#000000" font-family="Chalkduster" font-size="24" lengthAdjust="spacing" textLength="174.126" x="1176.18" y="520.3329">(to enhance)</text></g><!--link 1 to 2--><!--link 2 to 3--><!--link 3 to n--><!--reverse link dp to repo--><g class="link" data-entity-1="dp" data-entity-2="repo" data-source-line="30" data-uid="lnk17" id="link_dp_repo"><path d="M809.9257,507.0629 L809.9923,507.1284 L807.9969,508.7628 L806.3922,510.7809 L804.6602,512.6741 L802.51,514.1563 L800.9388,516.2075 L800.9133,516.1842 L799.047,517.9976 L797.3093,519.9285 L795.6609,521.941 L793.7046,523.6723 L792.1796,525.7975 L792.3683,525.9555 L790.2786,527.6312 L788.7396,529.7681 L787.2679,531.9613 L785.4052,533.8271 L783.7481,535.8652 L783.7723,535.8835 L782.136,537.9721 L780.6098,540.144 L779.0304,542.2757 L777.5525,544.4842 L775.7441,546.4426 L775.9916,546.609 L774.4993,548.8349 L772.8473,550.9534 L771.429,553.2291 L770.0217,555.5121 L768.2674,557.5618 L767.9908,557.3998 L767.1577,560.0529 L765.4139,562.1726 L764.3624,564.6977 L762.598,566.8053 L761.4179,569.2551 L761.3907,569.2416 L760.4885,571.8619 L758.9496,574.1652 L757.7864,576.6556 L756.6547,579.1617 L755.2955,581.5545 L755.4667,581.6246 L754.2348,584.1414 L753.2954,586.778 L751.8828,589.2208 L751.1761,591.9526 L750,594.4922 L750.2312,594.5692 L749.0287,598.0359 L747.941,601.5409 L746.32,604.8683 L745.09,608.3259 L744.2063,611.8988 L743.9339,611.8529 L743.6907,614.8016 L743.1406,617.6986 L743.0356,620.6706 L742.1707,623.5146 L741.7575,626.4347 L741.6061,626.417 L742.1928,629.3094 L742.1321,632.1262 L742.5318,634.9967 L743.382,637.9199 L743.43,640.7494 L743.6102,640.8201 L745.0479,644.2172 L745.9249,647.3943 L747.5041,650.8469 L748.9303,654.2395 L750,657.4922 L749.824,657.3777 L751.8301,660.3375 L753.7786,663.2597 L755.8403,666.2556 L757.4618,668.9652 L759.3291,671.8347 L759.4666,671.9875 L761.3226,673.5928 L763.4439,675.4931 L765.953,677.8244 L767.7482,679.3622 L770.1194,681.5402 L770.2296,681.7377 L772.5267,682.938 L774.7866,684.0714 L777.1306,685.3557 L779.6691,686.9887 L781.9324,688.1282 L781.8827,688.0048 L784.5102,689.3703 L786.7997,689.8964 L789.4734,691.3769 L791.9309,692.3201 L794.33,693.1185 L794.3697,693.2198 L796.8464,694.1204 L799.4653,695.3839 L801.9557,696.3195 L804.3925,697.1181 L806.8738,698.0304 L806.9287,698.1362 L809.2975,699.2496 L811.9211,700.8544 L814.2566,701.9034 L816.7106,703.1811 L819.1256,704.3836 L818.9556,704.1734 L821.3167,706.1064 L823.8825,708.2927 L826.1586,710.1206 L828.3308,711.82 L830.6471,713.6977 L830.5326,713.6118 L832.6399,716.3982 L834.5444,719.0324 L837.0063,722.0851 L839.1923,724.9306 L841,727.4922 L841.2079,727.5996 L842.3692,729.7534 L843.1357,731.7031 L844.3189,733.8682 L845.2262,735.8908 L846.4741,738.0892 L846.5895,738.1405 L846.8182,738.6825 L847.1862,739.2864 L847.1124,739.694 L847.395,740.2599 L847.6934,740.8329 L847.8748,740.91 L848.0431,741.2083 L847.719,741.2975 L847.967,741.6297 L848.225,741.9662 L848.2816,742.2171 L848.0309,742.1129 L848.4844,742.4163 L848.503,742.5391 L848.4135,742.6169 L848.571,742.7974 L848.5703,742.9121" fill="none" style="stroke:#8B0000;stroke-width:4;"/><polygon fill="#8B0000" points="814.2,502.8522,814.2247,502.9178,812.3077,503.4162,810.5352,504.2991,808.7157,505.0568,806.7414,505.4028,804.9814,506.3187,804.9812,506.2928,806.1116,506.185,807.2431,506.2078,808.3752,506.3214,809.505,506.1222,810.638,506.3611,810.8226,506.3625,810.4195,507.4909,810.5552,508.6233,810.7566,509.7562,810.5755,510.8863,810.5956,512.0178,810.6168,512.0261,811.3066,510.1808,812.0928,508.3734,812.8324,506.5476,813.6608,504.7568,814.2,502.8522" style="stroke:#8B0000;stroke-width:4;"/><text fill="#000000" font-family="Chalkduster" font-size="24" lengthAdjust="spacing" textLength="94.2497" x="790.9381" y="619.3331">Import</text><text fill="#000000" font-family="Chalkduster" font-size="24" lengthAdjust="spacing" textLength="174.126" x="751" y="649.9629">(to enhance)</text></g><!--link dp to repo--><g class="link" data-entity-1="dp" data-entity-2="repo" data-source-line="35" data-uid="lnk22" id="link_dp_repo"><path d="M888.51,502.8922 L888.59,502.9405 L889.5344,504.7551 L890.9476,506.8528 L892.2082,508.8583 L892.9667,510.5608 L894.4202,512.6827 L894.3902,512.6656 L895.4532,514.6862 L896.6674,516.7931 L897.9867,518.9601 L898.9438,520.9202 L900.4083,523.17 L900.6252,523.2861 L901.346,525.2524 L902.7002,527.5577 L904.1317,529.9042 L905.1136,532.0103 L906.3319,534.2428 L906.3591,534.2563 L907.4626,536.5459 L908.6898,538.8968 L909.8573,541.2181 L911.1387,543.5958 L912.0488,545.7897 L912.3207,545.9123 L913.3975,548.2957 L914.299,550.6001 L915.4572,553.0202 L916.6274,555.4457 L917.4163,557.6994 L917.1188,557.5802 L918.6714,560.2439 L919.2444,562.5149 L920.5622,565.0845 L921.1129,567.3465 L922.2923,569.8606 L922.2636,569.8507 L923.4523,572.4284 L923.9687,574.7741 L924.8818,577.2567 L925.8282,579.7508 L926.5344,582.162 L926.7124,582.2121 L927.2258,584.6276 L928.0435,587.1286 L928.3688,589.4913 L929.4286,592.0604 L930,594.4922 L930.2383,594.5429 L930.6796,596.8182 L931.2392,599.1185 L931.2491,601.3019 L931.6619,603.5711 L932.4318,605.9162 L932.1587,605.8752 L932.7532,608.2254 L933.0399,610.5293 L933.7731,612.9002 L933.744,615.1568 L934.1681,617.4813 L934.0163,617.4672 L934.4853,619.8254 L934.3053,622.1236 L934.5868,624.4644 L935.3199,626.8471 L935.2489,629.1553 L935.4424,629.1629 L935.6682,631.5183 L935.2921,633.8499 L935.6698,636.2113 L935.8833,638.5662 L935.7142,640.906 L935.5043,640.904 L935.6495,643.2647 L935.7261,645.6247 L935.9377,647.986 L935.6241,650.3423 L935.6039,652.7014 L935.8092,652.7126 L935.229,655.0496 L935.045,657.4081 L935.4399,659.7984 L934.769,662.1304 L934.958,664.5094 L935.1832,664.5312 L934.8211,666.8759 L934.3829,669.2132 L934.1166,671.5672 L934.2477,673.9597 L933.8165,676.2977 L933.6846,676.2798 L933.7577,678.6805 L932.9341,680.9593 L933.13,683.3767 L932.7519,685.7161 L932.2192,688.0344 L932.3265,688.0529 L931.8373,690.3685 L931.7322,692.7505 L931.2801,695.0725 L930.683,697.3695 L930.2062,699.6873 L930.323,699.7114 L929.6718,701.9829 L929.5625,704.3666 L928.8404,706.6234 L928.3703,708.9323 L927.8175,711.2242 L927.5545,711.1613 L927.0974,713.46 L926.957,715.8346 L926.3685,718.1019 L925.6192,720.3308 L925.0929,722.613 L924.9546,722.5758 L924.3948,724.8294 L923.5902,727.0171 L923.4586,729.3862 L922.9939,731.6655 L922.0724,733.8217 L922.2967,733.8885 L921.7132,736.1092 L920.7037,738.2029 L920.1438,740.4306 L919.2863,742.5696 L918.7961,744.8181 L918.9162,744.8571 L918.2019,747.0024 L917.6327,749.1947 L916.6036,751.2377 L915.9455,753.4012 L915.3038,755.57 L915.4898,755.6352 L914.8081,757.7485 L913.6215,759.6849 L913.0215,761.8268 L912.4318,763.9723 L911.6355,766.0455 L911.3813,765.9503 L911.0218,768.1339 L910.2212,770.1523 L909.311,772.1298 L908.6513,774.201 L907.8313,776.2122 L908.1323,776.3317 L906.9219,778.1261 L906.4012,780.1943 L905.609,782.1546 L904.7588,784.092 L903.9309,786.0382 L903.9887,786.0624 L903.1861,787.9483 L902.0924,789.7123 L901.3927,791.6413 L900.5765,793.5214 L899.9744,795.4913 L900.0003,795.5029 L898.4259,799.0391 L896.8715,802.5843 L895.1036,806.0337 L893.6099,809.6061 L892.053,813.1502 L892.005,813.1269 L890.7504,816.4186 L889.157,819.5458 L887.2591,822.5251 L885.8908,825.7616 L884.3867,828.9321 L884.1591,828.8138 L883.0821,831.7208 L881.7901,834.516 L880.3465,837.2325 L878.5417,839.7612 L877.2952,842.58 L877.4758,842.6795 L875.7665,844.6722 L874.8942,847.1257 L873.4603,849.27 L872.3751,851.6063 L871.098,853.8369 L871.1909,853.8898 L871.006,854.4228 L870.2711,854.6429 L870.4585,855.3878 L870.0692,855.8045 L869.726,856.2475 L869.8628,856.3264 L870.4818,855.6022 L870.6639,854.626 L871.1972,853.8523 L871.6798,853.0494 L872.0655,852.1907" fill="none" style="stroke:#8B0000;stroke-width:4;"/><polygon fill="#8B0000" points="869.07,857.3894,869.1112,857.446,870.5804,856.1176,872.2916,855.1211,873.9239,854.0165,875.2972,852.5564,877.0291,851.5884,877.0224,851.5634,875.8996,851.7448,874.8108,852.0524,873.7455,852.4477,872.599,852.5408,871.5663,853.0572,871.7445,853.1051,871.0696,851.91,870.9151,850.8549,870.824,849.8168,870.3636,848.6795,870.0975,847.5943,870.1201,847.5967,869.8814,849.5522,869.7457,851.5186,869.5602,853.4797,869.4696,855.4508,869.07,857.3894" style="stroke:#8B0000;stroke-width:4;"/><text fill="#000000" font-family="Chalkduster" font-size="24" lengthAdjust="spacing" textLength="270.3381" x="957.1201" y="619.3331">Write LDAC profile-</text><text fill="#000000" font-family="Chalkduster" font-size="24" lengthAdjust="spacing" textLength="311.0983" x="936.74" y="649.9629">conformant RO-Crates</text></g><!--link p to dp--><g class="link" data-entity-1="p" data-entity-2="dp" data-source-line="33" data-uid="lnk19" id="link_p_dp"><path d="M1046.32,174.4722 L1046.4132,174.4791 L1045.885,177.8682 L1045.9029,181.2976 L1045.743,184.7139 L1044.9983,188.0871 L1045.0631,191.5199 L1045.0287,191.5163 L1044.4803,195.2101 L1044.105,198.9223 L1043.85,202.6473 L1043.1803,206.3282 L1043.0916,210.0708 L1043.3351,210.106 L1042.2476,213.9569 L1041.8711,217.9105 L1041.5814,221.8766 L1040.787,225.7699 L1040.258,229.7014 L1040.2879,229.7067 L1039.8868,231.7166 L1039.6217,233.7505 L1039.291,235.7727 L1039.0854,237.8172 L1038.4719,239.7894 L1038.7643,239.8483 L1038.3565,241.8889 L1037.7601,243.8914 L1037.4397,245.9496 L1037.1323,248.0103 L1036.415,249.9885 L1036.1025,249.917 L1036.2397,252.1072 L1035.3481,254.062 L1035.2386,256.1958 L1034.3236,258.1453 L1034.0689,260.2458 L1034.0394,260.2382 L1033.8572,262.3808 L1032.9864,264.3454 L1032.5219,266.4151 L1032.0916,268.4936 L1031.4151,270.5084 L1031.5927,270.5602 L1030.8175,272.551 L1030.3457,274.6302 L1029.383,276.5662 L1029.1526,278.7159 L1028.4353,280.7235 L1028.6667,280.7996 L1027.9581,282.8081 L1027.3644,284.8544 L1026.2367,286.7252 L1025.5004,288.7246 L1025.1109,290.838 L1024.8519,290.7421 L1024.3489,292.8211 L1023.5541,294.7921 L1023.1826,296.9198 L1022.0883,298.7799 L1021.4237,300.799 L1021.2829,300.7404 L1020.7036,302.789 L1019.5227,304.5868 L1018.7695,306.563 L1018.435,308.7138 L1017.355,310.5537 L1017.5302,310.6362 L1016.7567,312.5918 L1015.4383,314.291 L1014.8024,316.3113 L1014.0177,318.2617 L1012.8866,320.0491 L1012.7013,319.9504 L1011.8717,321.8657 L1010.9814,323.7486 L1010.2104,325.695 L1008.9757,327.3947 L1008,329.2322 L1008.1752,329.3397 L1006.1503,331.7756 L1004.4635,334.419 L1003.2709,337.3656 L1001.1686,339.754 L999.8002,342.5928 L999.9845,342.7238 L998.0827,345.1672 L996.1185,347.5662 L994.295,350.0653 L992.797,352.7958 L990.8385,355.1988 L990.7351,355.1152 L989.1187,357.7427 L986.7988,359.8011 L985.2788,362.5067 L983.3085,364.8479 L981.2168,367.0909 L981.2974,367.164 L979.1963,369.3486 L977.3839,371.7952 L975.3107,374.0051 L973.1285,376.1161 L971.0367,378.3092 L971.1208,378.3937 L968.8686,380.3852 L967.0067,382.7689 L964.7033,384.709 L962.5816,386.8316 L960.4001,388.8943 L960.2183,388.6942 L958.0807,390.7594 L956.1622,393.0657 L953.9338,395.0309 L951.5942,396.8739 L949.4087,398.8864 L949.3167,398.7768 L947.0973,400.6998 L944.7148,402.4287 L942.7806,404.6914 L940.6245,406.6899 L938.1643,408.3261 L938.3085,408.5103 L936.0756,410.3548 L933.5685,411.8493 L931.3507,413.7132 L928.9414,415.3326 L926.7685,417.2537" fill="none" style="stroke:#8B0000;stroke-width:4;"/><polygon fill="#8B0000" points="921.99,420.8822,922.0061,420.9504,923.8757,420.2964,925.8395,420.0421,927.7726,419.6576,929.6049,418.845,931.5767,418.6251,931.5732,418.5994,930.4365,418.3309,929.3175,418.1918,928.2109,418.1426,927.0618,417.7834,925.9721,417.8585,926.1549,417.8835,925.9172,416.709,926.2134,415.6077,926.5747,414.5152,926.5571,413.3708,926.7387,412.2538,926.7586,412.2648,925.7796,413.9743,924.8914,415.7338,923.9593,417.4693,923.1108,419.2507,921.99,420.8822" style="stroke:#8B0000;stroke-width:4;"/><text fill="#000000" font-family="Chalkduster" font-size="24" lengthAdjust="spacing" textLength="296.0619" x="1110.7832" y="291.0731">Make decisions about</text><text fill="#000000" font-family="Chalkduster" font-size="24" lengthAdjust="spacing" textLength="450.9083" x="1033.36" y="321.7029">data description &amp; organization</text></g><!--link data to dp--><g class="link" data-entity-1="data" data-entity-2="dp" data-source-line="34" data-uid="lnk21" id="link_data_dp"><path d="M677.54,151.1422 L677.633,151.1514 L677.6882,154.4684 L678.2883,157.8394 L678.711,161.1927 L678.5501,164.4883 L679.197,167.8639 L679.1628,167.8595 L679.5139,171.7911 L680.0376,175.7447 L680.6815,179.7137 L680.9116,183.6299 L681.7213,187.62 L681.9645,187.6571 L681.7729,189.7357 L682.2914,191.9225 L682.8966,194.1224 L682.9977,196.2456 L683.3639,198.4092 L683.3938,198.4143 L683.7351,200.6619 L684.2125,202.9328 L684.6242,205.1924 L685.1613,207.4735 L685.2898,209.6848 L685.5828,209.7408 L686.0326,212.0757 L686.2935,214.3745 L686.831,216.7262 L687.3814,219.0804 L687.5212,221.356 L687.2077,221.289 L688.3278,223.8143 L688.4158,226.119 L689.2885,228.5913 L689.3531,230.891 L690.08,233.3322 L690.0504,233.3251 L690.9823,235.8468 L691.2223,238.2034 L691.8706,240.6573 L692.5532,243.1195 L692.9885,245.5226 L693.1673,245.5703 L693.6429,247.985 L694.424,250.4811 L694.7109,252.8455 L695.735,255.4063 L696.2689,257.8365 L696.5024,257.906 L697.1931,260.3622 L697.9998,262.8529 L698.2677,265.1833 L698.9306,267.6312 L699.9433,270.1832 L699.6812,270.096 L700.7365,272.6327 L701.4966,275.0711 L702.6849,277.6521 L703.142,279.9896 L704.0338,282.4719 L703.8909,282.4186 L705.0346,284.9354 L705.5676,287.2243 L706.5348,289.6752 L707.927,292.2847 L708.5625,294.6119 L708.7411,294.6867 L709.8614,297.1182 L710.4263,299.3168 L711.6869,301.807 L712.7959,304.2338 L713.5517,306.5124 L713.3619,306.4226 L714.6076,308.8083 L715.791,311.1645 L717.0966,313.5785 L717.9275,315.7679 L719.0235,318.0828 L719.2047,318.1799 L720.0019,320.1964 L721.1488,322.4003 L722.8067,324.8782 L723.5239,326.8518 L725,329.2322 L725.1928,329.3505 L726.6785,331.8875 L728.099,334.3844 L729.6668,336.9716 L731.5748,339.7677 L733.0013,342.2683 L732.8922,342.1921 L734.947,344.8956 L736.2599,347.0808 L738.4163,349.8553 L740.0978,352.298 L741.6514,354.6514 L741.7371,354.7185 L743.5092,357.0163 L745.5884,359.5543 L747.3902,361.8753 L749.076,364.1055 L750.8581,366.4111 L750.9482,366.4892 L752.7487,368.6064 L754.9674,371.0861 L756.7131,373.1559 L758.6533,375.3943 L760.5296,377.5773 L760.3333,377.3913 L762.4077,379.5739 L764.7185,381.9804 L766.6948,384.07 L768.5511,386.0459 L770.5737,388.1795 L770.4738,388.077 L772.5708,390.1235 L774.4907,391.9884 L776.8973,394.3523 L779.063,396.4693 L780.8985,398.2475 L781.0559,398.4206 L783.209,400.3887 L785.0629,402.028 L787.2326,404.0143 L789.1933,405.7709 L791.4118,407.8111 L791.494,407.907 L793.6052,409.7121 L795.8155,411.633 L797.7114,413.1868 L799.8609,415.0367 L802.0217,416.8998" fill="none" style="stroke:#8B0000;stroke-width:4;"/><polygon fill="#8B0000" points="806.63,420.7422,806.6929,420.7732,805.6359,418.9141,804.9475,417.2364,804.139,415.4996,802.936,413.5686,802.2792,411.9065,802.2534,411.9041,802.2397,413.0204,802.3561,414.1484,802.5629,415.2847,802.4581,416.3927,802.7898,417.5402,802.8064,417.724,801.6441,417.4331,800.5303,417.6788,799.4225,417.99,798.2802,417.9202,797.156,418.0508,797.1622,418.0727,799.0479,418.5788,800.9619,419.1846,802.8622,419.7423,804.7886,420.3917,806.63,420.7422" style="stroke:#8B0000;stroke-width:4;"/><text fill="#000000" font-family="Chalkduster" font-size="24" lengthAdjust="spacing" textLength="134.3735" x="797.8011" y="291.0731">Import to</text><text fill="#000000" font-family="Chalkduster" font-size="24" lengthAdjust="spacing" textLength="277.9757" x="726" y="321.7029">organize &amp; describe</text></g><!--SRC=[VLBDYXD14BxtKvGvY2vq9CajX83i8WYAigpimSZIwQaapNQgckuEQroyUV2a1qyhmfxs7NmUNy1z16jw9cOyn8Q2cVggllhg9xliSGmd9Xju7J70ESVBEP9TWNhWoFfDXHThGrlezvzK4gNbnonnZPHrobkF_Vm-AtaHRJQqz0Yz-zjldyK-YVq0UCQ-mfY05y3HBHqP3pKJtDz-kHExwO59ZUTQgO__CFtwVlFxvzUzF1DDTamTbMr43oQJcY98q7HQ24D3Tu3jB1fA2uxhXl2CsQSksPLKIC5ORDboAqu-9jhZ8kkwmXZU98GZorIeA1_DwFILFXQPA4ckBkwtIXcREKBl51EQQ5SOIyz1rPBdHYW42foSH6qB96smg8X_lIBZMe6yJZ-xIZ0eEOE3-B3WmuFugE2ZWpWLd0e-0FrsvQeAwTsqfHnsNGtBgEkYiWPfI6-2dZPpUxuE7FEC7cK6f9KXYu_huVuNLm6qhlYAz2xifRb4gD2w95jCOEQyaQHoJ1Kc6rqewtqefxSqv3wKRIj9dUXQZ6xkRbSECi-eZKH9QYZc27N6ldBfPGpdqSbiNfmyFOOGUU4ywXdjJm7sXw3-0000]--></g></svg>