<?xml version="1.0" encoding="UTF-8" standalone="no"?><svg xmlns="http://www.w3.org/2000/svg" xmlns:xlink="http://www.w3.org/1999/xlink" contentStyleType="text/css" height="629px" preserveAspectRatio="none" style="width:1409px;height:629px;background:#FFFFFF;" version="1.1" viewBox="0 0 1409 629" width="1409px" zoomAndPan="magnify"><defs/><g><text fill="#000000" font-family="Chalkduster" font-size="42" font-weight="bold" lengthAdjust="spacing" textLength="762" x="316.5" y="51.7215">Batch-loading data into LDaCA</text><!--cluster repo--><g id="cluster_repo"><path d="M525,444.6022 L525,444.6022 L525.0163,444.6942 L528.6933,443.7607 L532.4658,443.3665 L536.2072,442.7967 L539.8462,441.6494 L543.627,441.3014 L543.6245,441.267 L545.5769,440.9739 L547.5414,440.8544 L549.5145,440.8557 L551.4583,440.441 L553.4431,440.609 L553.4568,440.8547 L555.7401,440.2007 L558.0633,440.264 L560.3913,440.4149 L562.691,440.0565 L565.0056,439.966 L565.0069,439.9963 L570.5508,439.7228 L576.1004,439.5873 L581.6473,439.3852 L587.1994,439.31 L592.7344,438.821 L592.7432,439.1191 L599.3051,438.9289 L605.8613,438.5464 L612.4258,438.4454 L618.9907,438.3575 L625.5432,437.8517 L625.5361,437.5313 L632.8736,437.9916 L640.1879,437.3967 L647.5198,437.6041 L654.8335,436.9853 L662.1621,437.0436 L662.1616,437.0132 L669.9995,437.2408 L677.8253,436.7573 L685.6583,436.6934 L693.4918,436.6648 L701.321,436.382 L701.3235,436.567 L709.4068,436.2743 L717.4943,436.2977 L725.5751,435.8097 L733.6659,436.0846 L741.75,435.8522 L741.7566,436.5831 L751.7039,436.3546 L761.6544,436.4889 L771.5896,434.9371 L781.536,434.6213 L791.4849,434.5721 L801.4402,435.2317 L811.387,434.9579 L821.3379,435.1296 L821.3427,436.0381 L831.2549,434.8436 L841.1719,434.5661 L851.0943,435.2749 L861.0061,434.0284 L870.9254,434.1723 L880.852,435.6767 L890.7656,434.7585 L890.767,435.3393 L900.4442,435.7155 L910.1173,434.2848 L919.7956,435.1171 L929.4728,435.4564 L939.1459,434.017 L948.8234,434.4967 L958.5,434.6022 L958.5,434.6022 L958.5004,434.7702 L968.1783,435.4935 L977.8527,434.6413 L987.5304,435.2859 L997.2037,433.9531 L1006.8796,433.8108 L1016.5596,435.4076 L1026.2344,434.7585 L1026.2293,433.8026 L1036.1562,435.4901 L1046.0723,435.14 L1055.9872,434.5603 L1065.9048,434.4988 L1075.8289,435.6352 L1085.7417,434.6774 L1095.6621,435.1296 L1095.6693,435.9187 L1105.6039,434.4829 L1115.5666,436.1334 L1125.5134,436.0463 L1135.459,435.8175 L1145.4051,435.6442 L1155.3618,436.6403 L1165.3089,436.5799 L1175.25,435.8522 L1175.251,435.9274 L1183.3374,436.0774 L1191.4208,436.0062 L1199.5115,436.4885 L1207.5941,436.3449 L1215.679,436.382 L1215.6803,436.4587 L1223.5062,436.244 L1231.3395,436.4666 L1239.1783,437.0148 L1247.0093,437.1023 L1254.8379,437.0436 L1254.8375,437.0245 L1262.1585,437.0621 L1269.4833,437.2696 L1276.8025,437.2236 L1284.1371,437.8744 L1291.4568,437.8517 L1291.4665,438.1803 L1298.0255,438.2794 L1304.5894,438.5481 L1311.1403,438.3725 L1317.705,438.6659 L1324.2656,438.821 L1324.2585,438.6488 L1329.8166,439.1761 L1335.3617,439.3885 L1340.913,439.7533 L1346.4444,439.635 L1351.9944,439.966 L1351.9911,439.9063 L1354.3178,440.2914 L1356.6334,440.4749 L1358.9192,440.1243 L1361.2396,440.3943 L1363.5569,440.609 L1363.5615,440.6752 L1365.501,440.4767 L1367.4944,441.0426 L1369.4546,441.1388 L1371.4067,441.1183 L1373.373,441.3014 L1373.3841,441.3637 L1377.1549,442.2805 L1380.7996,442.4848 L1384.5736,443.4197 L1388.2968,444.0671 L1392,444.6022 L1392.3087,444.6022 L1392.3758,454.4772 L1392.3026,464.3522 L1390.3356,474.2272 L1390.9312,484.1022 L1390.7692,493.9772 L1392.1702,503.8522 L1392.235,513.7272 L1392.4313,523.6022 L1391.2241,533.4772 L1391.82,543.3522 L1391.6794,553.2272 L1393.5383,563.1022 L1393.1375,572.9772 L1390.7052,582.8522 L1391.8055,592.7272 L1392,602.6022 L1392,602.6022 L1391.9552,602.3496 L1388.297,603.3886 L1384.5964,604.1888 L1380.8661,604.821 L1377.0647,605.0522 L1373.373,605.903 L1373.3876,606.1087 L1371.3866,605.7122 L1369.4528,606.2687 L1367.474,606.1858 L1365.5231,606.4998 L1363.5569,606.5954 L1363.5628,606.7021 L1361.256,606.9335 L1358.9141,606.5332 L1356.6311,607.1922 L1354.3113,607.1889 L1351.9944,607.2384 L1352.0009,607.3962 L1346.4623,607.7995 L1340.903,607.6989 L1335.3603,608.0033 L1329.8153,608.2492 L1324.2656,608.3835 L1324.2682,608.4711 L1317.7038,608.5769 L1311.1514,609.0869 L1304.5723,608.6941 L1298.026,609.41 L1291.4568,609.3527 L1291.4507,609.0754 L1284.1277,609.2742 L1276.8096,609.6937 L1269.4857,609.8501 L1262.1568,609.7802 L1254.8379,610.1608 L1254.841,610.3447 L1247.0069,610.3415 L1239.1798,610.7484 L1231.3475,610.8542 L1223.5074,610.4909 L1215.679,610.8224 L1215.6766,610.6456 L1207.5924,610.871 L1199.5094,611.1923 L1191.4239,611.3194 L1183.3375,611.3801 L1175.25,611.3522 L1175.2459,610.8963 L1165.3092,612.291 L1155.3607,612.3779 L1145.404,611.5602 L1135.4532,611.3948 L1125.5027,611.2687 L1115.5565,611.6081 L1105.6123,612.1677 L1095.6621,612.0749 L1095.6616,611.9837 L1085.7409,611.5708 L1075.8291,612.8307 L1065.9041,611.622 L1055.9927,612.9568 L1046.0739,612.9096 L1036.1553,612.8888 L1026.2344,612.446 L1026.2365,613.3693 L1016.5573,612.1404 L1006.8808,612.0897 L997.207,613.2048 L987.5272,611.7394 L977.852,612.2456 L968.1767,612.7339 L958.5,612.6022 L958.5,612.6022 L958.5002,612.6938 L948.8226,612.102 L939.1472,612.5003 L929.4733,613.528 L919.7966,613.3776 L910.1165,611.6956 L900.4422,612.573 L890.7656,612.446 L890.762,611.7608 L880.8472,612.3579 L870.9312,612.7306 L861.0139,612.8467 L851.0879,611.3476 L841.1772,612.7149 L831.2562,612.1391 L821.3379,612.0749 L821.3312,611.3344 L811.3837,611.3565 L801.4449,612.3297 L791.4955,612.137 L781.5437,611.6916 L771.5873,610.7271 L761.6549,612.4104 L751.6947,611.0268 L741.75,611.3522 L741.7469,611.1175 L733.6638,611.2163 L725.5819,611.4024 L717.4962,611.3078 L709.407,610.944 L701.321,610.8224 L701.3199,610.7552 L693.4905,610.7656 L685.6589,610.6405 L677.8219,610.1998 L669.997,610.4771 L662.1621,610.1608 L662.1676,610.4091 L654.8362,609.9033 L647.5103,609.6469 L640.1974,609.9757 L632.8672,609.5237 L625.5432,609.3527 L625.5432,609.3526 L618.9854,609.2917 L612.4112,608.6782 L605.8649,609.0066 L599.2959,608.5704 L592.7344,608.3835 L592.7466,608.6805 L587.1847,608.0586 L581.6504,608.1071 L576.089,607.4993 L570.5559,607.5762 L565.0056,607.2384 L565.015,607.4068 L562.685,606.9646 L560.3896,607.1423 L558.054,606.5991 L555.744,606.5153 L553.4431,606.5954 L553.4645,606.8982 L551.5013,606.7604 L549.5344,606.5705 L547.5422,606.0202 L545.6022,606.2118 L543.627,605.903 L543.5903,605.6964 L539.9061,605.2683 L536.1761,604.5821 L532.4304,603.8077 L528.7732,603.5319 L525,602.6022 L526.1821,602.6022 L524.1447,592.7272 L526.4043,582.8522 L525.245,572.9772 L523.4438,563.1022 L524.3778,553.2272 L523.5993,543.3522 L524.6291,533.4772 L523.3227,523.6022 L523.3996,513.7272 L525.1875,503.8522 L524.679,493.9772 L524.8438,484.1022 L524.6181,474.2272 L525.4462,464.3522 L523.5198,454.4772 L525,444.6022 " fill="#00FF7F" style="stroke:#181818;stroke-width:4.0;"/><path d="M525,444.6022 L525,444.6022 L525.0163,444.6942 L528.6933,445.081 L532.4658,446.0071 L536.2072,446.7576 L539.8462,446.9306 L543.627,447.903 L543.6245,447.8685 L545.5769,447.8524 L547.5414,448.0099 L549.5145,448.2882 L551.4583,448.1504 L553.4431,448.5954 L553.4568,448.8411 L555.7401,448.4443 L558.0633,448.7649 L560.3913,449.1729 L562.691,449.0718 L565.0056,449.2384 L565.0069,449.2687 L570.5508,449.4533 L576.1004,449.7757 L581.6473,450.0316 L587.1994,450.4145 L592.7344,450.3835 L592.7432,450.6816 L599.3051,450.8791 L605.8613,450.8843 L612.4258,451.171 L618.9907,451.4708 L625.5432,451.3527 L625.5361,451.0323 L632.8736,451.8158 L640.1879,451.5442 L647.5198,452.0748 L654.8335,451.7792 L662.1621,452.1608 L662.1616,452.1304 L669.9995,452.6227 L677.8253,452.4038 L685.6583,452.6046 L693.4918,452.8406 L701.321,452.8224 L701.3235,453.0074 L709.4068,452.9266 L717.4943,453.162 L725.5751,452.8859 L733.6659,453.3726 L741.75,453.3522 L741.7566,454.0831 L751.7039,454.0352 L761.6544,454.3502 L771.5896,452.9791 L781.536,452.844 L791.4849,452.9754 L801.4402,453.8157 L811.387,453.7225 L821.3379,454.0749 L821.3427,454.9834 L831.2549,453.895 L841.1719,453.7235 L851.0943,454.5383 L861.0061,453.3978 L870.9254,453.6478 L880.852,455.2582 L890.7656,454.446 L890.767,455.0268 L900.4442,455.4476 L910.1173,454.0615 L919.7956,454.9385 L929.4728,455.3225 L939.1459,453.9277 L948.8234,454.4521 L958.5,454.6022 L958.5,454.6022 L958.5004,454.7702 L968.1783,455.4489 L977.8527,454.552 L987.5304,455.152 L997.2037,453.7745 L1006.8796,453.5876 L1016.5596,455.1398 L1026.2344,454.446 L1026.2293,453.4901 L1036.1562,455.0716 L1046.0723,454.6154 L1055.9872,453.9297 L1065.9048,453.7622 L1075.8289,454.7926 L1085.7417,453.7288 L1095.6621,454.0749 L1095.6693,454.864 L1105.6039,453.2476 L1115.5666,454.7174 L1125.5134,454.4496 L1135.459,454.0402 L1145.4051,453.6862 L1155.3618,454.5016 L1165.3089,454.2606 L1175.25,453.3522 L1175.251,453.4274 L1183.3374,453.3654 L1191.4208,453.0824 L1199.5115,453.3527 L1207.5941,452.9972 L1215.679,452.8224 L1215.6803,452.8991 L1223.5062,452.4198 L1231.3395,452.3777 L1239.1783,452.6613 L1247.0093,452.4841 L1254.8379,452.1608 L1254.8375,452.1417 L1262.1585,451.856 L1269.4833,451.7403 L1276.8025,451.371 L1284.1371,451.6986 L1291.4568,451.3527 L1291.4665,451.6813 L1298.0255,451.3927 L1304.5894,451.2737 L1311.1403,450.7104 L1317.705,450.6161 L1324.2656,450.3835 L1324.2585,450.2113 L1329.8166,450.2806 L1335.3617,450.035 L1340.913,449.9417 L1346.4444,449.3655 L1351.9944,449.2384 L1351.9911,449.1788 L1354.3178,449.3066 L1356.6334,449.233 L1358.9192,448.6252 L1361.2396,448.638 L1363.5569,448.5954 L1363.5615,448.6616 L1365.501,448.1861 L1367.4944,448.4751 L1369.4546,448.2943 L1371.4067,447.9968 L1373.373,447.903 L1373.3841,447.9652 L1377.1549,447.5617 L1380.7996,446.4458 L1384.5736,446.0604 L1388.2968,445.3874 L1392,444.6022 " fill="none" style="stroke:#181818;stroke-width:4.0;"/><text fill="#000000" font-family="Chalkduster" font-size="24" font-style="italic" lengthAdjust="spacing" textLength="169" x="874" y="480.4431">«repository»</text><text fill="#000000" font-family="Chalkduster" font-size="24" font-weight="bold" lengthAdjust="spacing" textLength="143" x="887" y="511.0729">Repository</text></g><!--entity data--><g id="elem_data"><polygon fill="none" points="9.5,100.1022,9.5,100.3124,19.5192,99.6879,29.5385,100.2955,39.5577,100.5019,49.5769,99.3888,59.5962,100.0245,69.6154,99.6757,79.6346,99.7187,89.6538,100.0341,99.6731,99.4108,109.6923,100.6559,119.7115,99.4719,129.7308,99.9044,139.75,100.5342,149.7692,100.0164,159.7885,100.1704,169.8077,100.0703,179.8269,100.2807,189.8462,100.3413,199.8654,100.6879,209.8846,100.7733,219.9038,100.7815,229.9231,100.3568,239.9423,100.5658,249.9615,100.8044,259.9808,99.381,270,100.7807,280.0192,99.8057,290.0385,100.636,300.0577,99.6072,310.0769,100.0337,320.0962,100.8438,330.1154,100.0535,340.1346,100.2075,350.1538,100.4408,360.1731,100.5184,370.1923,100.0983,380.2115,100.3894,390.2308,99.5298,400.25,100.3866,410.2692,100.6504,420.2885,100.5467,430.3077,100.7152,440.3269,99.6191,450.3462,99.45,460.3654,99.4808,470.3846,100.0433,480.4038,99.9057,490.4231,100.7836,500.4423,99.9275,510.4615,99.7592,520.4808,100.3305,530.5,100.1022,530.4149,99.8969,530.7873,100.0888,531.2899,100.595,531.6162,100.6757,532.0079,100.9142,532.2678,100.8344,532.1687,100.7934,532.5125,101.2287,532.7425,101.6169,532.5616,101.8348,532.824,102.2364,533,102.6022,533.126,102.6022,533.6518,111.7282,532.9958,120.8541,533.4626,129.9801,532.4462,139.1061,533,148.232,532.7914,148.1457,533.0086,148.6498,532.4863,148.8477,532.7174,149.3576,532.4778,149.6726,532.2678,149.9998,532.2336,149.9173,531.8691,150.0373,531.6192,150.434,531.1689,150.347,530.9291,150.7679,530.5,150.732,530.5,150.1793,520.4808,151.3495,510.4615,151.2163,500.4423,150.977,490.4231,150.7793,480.4038,151.4587,470.3846,151.3456,460.3654,150.9013,450.3462,151.0002,440.3269,150.6018,430.3077,151.4485,420.2885,150.8869,410.2692,150.9046,400.25,150.1237,390.2308,150.3268,380.2115,151.2628,370.1923,151.1618,360.1731,150.6891,350.1538,150.4099,340.1346,150.5131,330.1154,150.0459,320.0962,151.1468,310.0769,151.4716,300.0577,151.2584,290.0385,151.427,280.0192,150.5953,270,150.8193,259.9808,150.3444,249.9615,151.0161,239.9423,150.9788,229.9231,151.2844,219.9038,150.5024,209.8846,150.5976,199.8654,151.1755,189.8462,151.2994,179.8269,150.2195,169.8077,150.5382,159.7885,150.8813,149.7692,150.1212,139.75,151.0854,129.7308,150.99,119.7115,150.6313,109.6923,150.8743,99.6731,151.4607,89.6538,150.4192,79.6346,151.047,69.6154,151.0177,59.5962,150.8478,49.5769,150.873,39.5577,150.8455,29.5385,150.1079,19.5192,150.3312,9.5,150.732,9.4411,150.5899,9.1546,150.6053,8.8041,150.4663,8.46,150.3425,8.0487,150.0566,7.7322,149.9998,7.7114,149.9912,7.5488,149.6309,7.617,149.3663,7.4243,148.9936,6.9969,148.5237,7,148.232,6.9271,148.232,6.4228,139.1061,7.2884,129.9801,7.6085,120.8541,7.5446,111.7282,7,102.6022,6.8659,102.5467,7.2893,102.3078,7.0641,101.8004,7.501,101.5671,7.4936,101.1498,7.7322,100.8344,7.7446,100.8642,8.1164,100.762,8.4996,100.6869,8.7011,100.1734,9.2071,100.3951,9.5,100.1022" style="stroke:#181818;stroke-width:4.0;"/><text fill="#000000" font-family="Chalkduster" font-size="24" lengthAdjust="spacing" textLength="506" x="17" y="133.9431">&#128200;&#128196;&#128220;  Folders of original data &#127909;&#127897;</text></g><!--entity ct--><g id="elem_ct"><polygon fill="none" points="221,297.6022,221,297.8124,231.0645,297.1879,241.129,297.7955,251.1935,298.0019,261.2581,296.8888,271.3226,297.5245,281.3871,297.1757,291.4516,297.2187,301.5161,297.5341,311.5806,296.9108,321.6452,298.1559,331.7097,296.9719,341.7742,297.4044,351.8387,298.0342,361.9032,297.5164,371.9677,297.6704,382.0323,297.5703,392.0968,297.7807,402.1613,297.8413,412.2258,298.1879,422.2903,298.2733,432.3548,298.2815,442.4194,297.8568,452.4839,298.0658,462.5484,298.3044,472.6129,296.881,482.6774,298.2807,492.7419,297.3057,502.8065,298.136,512.871,297.1072,522.9355,297.5337,533,298.3438,543.0645,297.5535,553.129,297.7075,563.1935,297.9408,573.2581,298.0184,583.3226,297.5983,593.3871,297.8894,603.4516,297.0298,613.5161,297.8866,623.5806,298.1504,633.6452,298.0467,643.7097,298.2152,653.7742,297.1191,663.8387,296.95,673.9032,296.9808,683.9677,297.5433,694.0323,297.4057,704.0968,298.2836,714.1613,297.4275,724.2258,297.2592,734.2903,297.8305,744.3548,296.9354,754.4194,297.0831,764.4839,298.2512,774.5484,298.0379,784.6129,298.3367,794.6774,297.2804,804.7419,297.9214,814.8065,298.1926,824.871,297.1298,834.9355,297.5064,845,297.6022,845.0161,297.641,845.4367,297.9494,845.7066,297.8938,846.1197,298.184,846.3436,298.0175,846.7678,298.3344,846.5592,298.2481,847.0693,298.7522,846.8399,298.9501,847.3638,299.46,847.4172,299.775,847.5,300.1022,847.2321,300.1022,847.1462,309.2282,847.9588,318.3541,847.2007,327.4801,848.0919,336.6061,847.5,345.732,847.3298,345.6615,847.5437,346.1644,847.3563,346.5009,847.1361,346.824,846.9288,347.1523,846.7678,347.4998,846.8605,347.7236,846.4925,347.8352,846.0823,347.8448,845.7413,348.0217,845.3369,348.0455,845,348.232,845,348.9485,834.9355,348.3869,824.871,348.4046,814.8065,347.6237,804.7419,347.8268,794.6774,348.7628,784.6129,348.6618,774.5484,348.1891,764.4839,347.9099,754.4194,348.0131,744.3548,347.5459,734.2903,348.6468,724.2258,348.9716,714.1613,348.7584,704.0968,348.927,694.0323,348.0953,683.9677,348.3193,673.9032,347.8444,663.8387,348.5161,653.7742,348.4788,643.7097,348.7844,633.6452,348.0024,623.5806,348.0976,613.5161,348.6755,603.4516,348.7994,593.3871,347.7195,583.3226,348.0382,573.2581,348.3813,563.1935,347.6212,553.129,348.5854,543.0645,348.49,533,348.1313,522.9355,348.3743,512.871,348.9607,502.8065,347.9192,492.7419,348.547,482.6774,348.5177,472.6129,348.3478,462.5484,348.373,452.4839,348.3455,442.4194,347.6079,432.3548,347.8312,422.2903,347.7705,412.2258,348.2959,402.1613,348.3202,392.0968,348.3938,382.0323,347.9411,371.9677,348.1645,361.9032,348.1118,351.8387,348.8089,341.7742,348.6586,331.7097,347.7465,321.6452,348.1591,311.5806,347.6548,301.5161,348.5204,291.4516,348.8405,281.3871,348.7766,271.3226,347.7965,261.2581,348.696,251.1935,347.4892,241.129,348.4322,231.0645,347.9327,221,348.232,221.0123,348.2618,220.6771,348.1596,220.3531,348.0845,219.8475,347.571,219.6464,347.7927,219.2322,347.4998,219.2871,347.5225,219.1952,347.1916,219.1696,346.8881,218.7946,346.4399,218.7004,346.108,218.5,345.732,218.7134,345.732,218.6972,336.6061,218.4992,327.4801,219.2107,318.3541,217.8903,309.2282,218.5,300.1022,218.6741,300.1743,218.4543,299.6691,218.6265,299.3262,218.9517,299.0467,219.0945,298.6916,219.2322,298.3344,219.1694,298.1827,219.6386,298.3154,219.9532,298.0751,220.3856,298.1189,220.7315,297.9541,221,297.6022" style="stroke:#181818;stroke-width:4.0;"/><text fill="#000000" font-family="Chalkduster" font-size="24" lengthAdjust="spacing" textLength="597" x="228.5" y="331.4431">⚙️ Collection-specific conversion script ⚙️</text></g><!--entity 1--><g id="elem_1"><polygon fill="none" points="571,537.6022,571,537.8124,580.8824,537.1879,590.7647,537.7955,600.6471,538.0019,610.5294,536.8888,620.4118,537.5245,630.2941,537.1757,640.1765,537.2187,650.0588,537.5341,659.9412,536.9108,669.8235,538.1559,679.7059,536.9719,689.5882,537.4044,699.4706,538.0342,709.3529,537.5164,719.2353,537.6704,729.1176,537.5703,739,537.6022,739.0228,537.6572,739.3841,537.8223,739.7818,538.0755,740.1463,538.2482,740.5009,538.3972,740.7678,538.3344,740.8462,538.3669,741.057,538.7471,741.2769,539.1311,740.985,539.3031,741.5625,539.8352,741.5,540.1022,741.2035,540.1022,742.0338,549.2282,741.005,558.3541,741.4315,567.4801,742.2416,576.6061,741.5,585.732,741.485,585.7258,741.386,586.099,741.3114,586.4823,741.1888,586.8458,740.913,587.1458,740.7678,587.4998,740.8044,587.5883,740.3412,587.47,740.0969,587.8803,739.777,588.108,739.4103,588.2225,739,588.232,739,588.8451,729.1176,587.749,719.2353,587.5799,709.3529,587.6106,699.4706,588.1732,689.5882,588.0355,679.7059,588.9135,669.8235,588.0574,659.9412,587.889,650.0588,588.4603,640.1765,587.5652,630.2941,587.7129,620.4118,588.881,610.5294,588.6677,600.6471,588.9665,590.7647,587.9102,580.8824,588.5512,571,588.232,571.0753,588.4139,570.5862,587.9401,570.2807,587.9096,569.9554,587.8315,569.6689,587.847,569.2322,587.4998,569.2309,587.4993,569.2282,587.2053,568.7688,586.7221,568.5843,586.3528,568.8015,586.1498,568.5,585.732,567.7831,585.732,569.009,576.6061,568.7066,567.4801,568.2321,558.3541,568.1462,549.2282,568.5,540.1022,568.6413,540.1607,568.5543,539.7105,568.9752,539.4706,568.7691,538.971,569.2759,538.7668,569.2322,538.3344,569.294,538.4836,569.617,538.2634,569.9454,538.0561,570.3856,538.1189,570.7247,537.9376,571,537.6022" style="stroke:#181818;stroke-width:4.0;"/><text fill="#000000" font-family="Chalkduster" font-size="24" lengthAdjust="spacing" textLength="153" x="578.5" y="571.4431">RO-Crate 1</text></g><!--entity 2--><g id="elem_2"><polygon fill="none" points="779,537.6022,779,537.8124,788.7647,537.1879,798.5294,537.7955,808.2941,538.0019,818.0588,536.8888,827.8235,537.5245,837.5882,537.1757,847.3529,537.2187,857.1176,537.5341,866.8824,536.9108,876.6471,538.1559,886.4118,536.9719,896.1765,537.4044,905.9412,538.0342,915.7059,537.5164,925.4706,537.6704,935.2353,537.5703,945,537.6022,945.0228,537.6572,945.3841,537.8223,945.7818,538.0755,946.1463,538.2482,946.5009,538.3972,946.7678,538.3344,946.8462,538.3669,947.057,538.7471,947.2769,539.1311,946.985,539.3031,947.5625,539.8352,947.5,540.1022,947.2035,540.1022,948.0338,549.2282,947.005,558.3541,947.4315,567.4801,948.2416,576.6061,947.5,585.732,947.485,585.7258,947.386,586.099,947.3114,586.4823,947.1888,586.8458,946.913,587.1458,946.7678,587.4998,946.8044,587.5883,946.3412,587.47,946.0969,587.8803,945.777,588.108,945.4103,588.2225,945,588.232,945,588.8451,935.2353,587.749,925.4706,587.5799,915.7059,587.6106,905.9412,588.1732,896.1765,588.0355,886.4118,588.9135,876.6471,588.0574,866.8824,587.889,857.1176,588.4603,847.3529,587.5652,837.5882,587.7129,827.8235,588.881,818.0588,588.6677,808.2941,588.9665,798.5294,587.9102,788.7647,588.5512,779,588.232,779.0753,588.4139,778.5862,587.9401,778.2807,587.9096,777.9554,587.8315,777.6689,587.847,777.2322,587.4998,777.2309,587.4993,777.2282,587.2053,776.7688,586.7221,776.5843,586.3528,776.8015,586.1498,776.5,585.732,775.7831,585.732,777.009,576.6061,776.7066,567.4801,776.2321,558.3541,776.1462,549.2282,776.5,540.1022,776.6413,540.1607,776.5543,539.7105,776.9752,539.4706,776.7691,538.971,777.2759,538.7668,777.2322,538.3344,777.294,538.4836,777.617,538.2634,777.9454,538.0561,778.3856,538.1189,778.7247,537.9376,779,537.6022" style="stroke:#181818;stroke-width:4.0;"/><text fill="#000000" font-family="Chalkduster" font-size="24" lengthAdjust="spacing" textLength="151" x="786.5" y="571.4431">RO-Crate 2</text></g><!--entity 3--><g id="elem_3"><polygon fill="none" points="985.5,537.6022,985.5,537.8124,995.4412,537.1879,1005.3824,537.7955,1015.3235,538.0019,1025.2647,536.8888,1035.2059,537.5245,1045.1471,537.1757,1055.0882,537.2187,1065.0294,537.5341,1074.9706,536.9108,1084.9118,538.1559,1094.8529,536.9719,1104.7941,537.4044,1114.7353,538.0342,1124.6765,537.5164,1134.6176,537.6704,1144.5588,537.5703,1154.5,537.6022,1154.5228,537.6572,1154.8841,537.8223,1155.2818,538.0755,1155.6463,538.2482,1156.0009,538.3972,1156.2678,538.3344,1156.3462,538.3669,1156.557,538.7471,1156.7769,539.1311,1156.485,539.3031,1157.0625,539.8352,1157,540.1022,1156.7035,540.1022,1157.5338,549.2282,1156.505,558.3541,1156.9315,567.4801,1157.7416,576.6061,1157,585.732,1156.985,585.7258,1156.886,586.099,1156.8114,586.4823,1156.6888,586.8458,1156.413,587.1458,1156.2678,587.4998,1156.3044,587.5883,1155.8412,587.47,1155.5969,587.8803,1155.277,588.108,1154.9103,588.2225,1154.5,588.232,1154.5,588.8451,1144.5588,587.749,1134.6176,587.5799,1124.6765,587.6106,1114.7353,588.1732,1104.7941,588.0355,1094.8529,588.9135,1084.9118,588.0574,1074.9706,587.889,1065.0294,588.4603,1055.0882,587.5652,1045.1471,587.7129,1035.2059,588.881,1025.2647,588.6677,1015.3235,588.9665,1005.3824,587.9102,995.4412,588.5512,985.5,588.232,985.5753,588.4139,985.0862,587.9401,984.7807,587.9096,984.4554,587.8315,984.1689,587.847,983.7322,587.4998,983.7309,587.4993,983.7282,587.2053,983.2688,586.7221,983.0843,586.3528,983.3015,586.1498,983,585.732,982.2831,585.732,983.509,576.6061,983.2066,567.4801,982.7321,558.3541,982.6462,549.2282,983,540.1022,983.1413,540.1607,983.0543,539.7105,983.4752,539.4706,983.2691,538.971,983.7759,538.7668,983.7322,538.3344,983.794,538.4836,984.117,538.2634,984.4454,538.0561,984.8856,538.1189,985.2247,537.9376,985.5,537.6022" style="stroke:#181818;stroke-width:4.0;"/><text fill="#000000" font-family="Chalkduster" font-size="24" lengthAdjust="spacing" textLength="154" x="993" y="571.4431">RO-Crate 3</text></g><!--entity n--><g id="elem_n"><polygon fill="none" points="1194.5,537.6022,1194.5,537.8124,1204.5588,537.1879,1214.6176,537.7955,1224.6765,538.0019,1234.7353,536.8888,1244.7941,537.5245,1254.8529,537.1757,1264.9118,537.2187,1274.9706,537.5341,1285.0294,536.9108,1295.0882,538.1559,1305.1471,536.9719,1315.2059,537.4044,1325.2647,538.0342,1335.3235,537.5164,1345.3824,537.6704,1355.4412,537.5703,1365.5,537.6022,1365.5228,537.6572,1365.8841,537.8223,1366.2818,538.0755,1366.6463,538.2482,1367.0009,538.3972,1367.2678,538.3344,1367.3462,538.3669,1367.557,538.7471,1367.7769,539.1311,1367.485,539.3031,1368.0625,539.8352,1368,540.1022,1367.7035,540.1022,1368.5338,549.2282,1367.505,558.3541,1367.9315,567.4801,1368.7416,576.6061,1368,585.732,1367.985,585.7258,1367.886,586.099,1367.8114,586.4823,1367.6888,586.8458,1367.413,587.1458,1367.2678,587.4998,1367.3044,587.5883,1366.8412,587.47,1366.5969,587.8803,1366.277,588.108,1365.9103,588.2225,1365.5,588.232,1365.5,588.8451,1355.4412,587.749,1345.3824,587.5799,1335.3235,587.6106,1325.2647,588.1732,1315.2059,588.0355,1305.1471,588.9135,1295.0882,588.0574,1285.0294,587.889,1274.9706,588.4603,1264.9118,587.5652,1254.8529,587.7129,1244.7941,588.881,1234.7353,588.6677,1224.6765,588.9665,1214.6176,587.9102,1204.5588,588.5512,1194.5,588.232,1194.5753,588.4139,1194.0862,587.9401,1193.7807,587.9096,1193.4554,587.8315,1193.1689,587.847,1192.7322,587.4998,1192.7309,587.4993,1192.7282,587.2053,1192.2688,586.7221,1192.0843,586.3528,1192.3015,586.1498,1192,585.732,1191.2831,585.732,1192.509,576.6061,1192.2066,567.4801,1191.7321,558.3541,1191.6462,549.2282,1192,540.1022,1192.1413,540.1607,1192.0543,539.7105,1192.4752,539.4706,1192.2691,538.971,1192.7759,538.7668,1192.7322,538.3344,1192.794,538.4836,1193.117,538.2634,1193.4454,538.0561,1193.8856,538.1189,1194.2247,537.9376,1194.5,537.6022" style="stroke:#181818;stroke-width:4.0;"/><text fill="#000000" font-family="Chalkduster" font-size="24" lengthAdjust="spacing" textLength="156" x="1202" y="571.4431">RO-Crate n</text></g><!--entity p--><g id="elem_p"><polygon fill="none" points="804.0442,90.5481,802.8715,92.1504,801.4845,94.4973,799.5008,96.0789,797.4163,96.9437,795.7542,97.0188,793.618,95.9372,791.6023,95.2305,790.0724,93.7958,789.2699,92.1533,788.7939,90.8455,788.3277,89.1373,787.5709,87.6673,788.1525,86.232,788.662,84.6598,790.574,83.4164,791.9192,81.803,793.5843,81.2673,795.5637,80.8059,798.1021,81.08,799.4924,81.7357,801.1089,82.0329,803.0743,84.0466,803.7595,86.1724,804.0571,87.6228,803.72,90.013" style="stroke:#8B0000;stroke-width:4.0;"/><path d="M796,96.6022 L796.1868,96.6022 L795.6317,102.0022 L796.1718,107.4022 L796.3553,112.8022 L795.3659,118.2022 L796,123.6022 M783,104.6022 L783,104.5331 L788.2,104.2231 L793.4,104.2613 L798.6,104.5416 L803.8,103.9877 L809,104.6022 M796,123.6022 L796.3719,123.9245 L792.9766,126.2353 L790.6672,129.4871 L788.4901,132.8537 L785.5424,135.5523 L783,138.6022 M796,123.6022 L796.0458,123.6419 L798.5785,126.5836 L801.3199,129.7061 L803.9606,132.7414 L806.7934,135.9432 L809,138.6022 " fill="none" style="stroke:#8B0000;stroke-width:4.0;"/><text fill="#000000" font-family="Chalkduster" font-size="24" lengthAdjust="spacing" textLength="169" x="711.5" y="167.4431">Programmer</text></g><!--link 1 to 2--><!--link 2 to 3--><!--link 3 to n--><!--link p to ct--><g id="link_p_ct"><path d="M794.64,174.9922 L794.7326,175.0047 L794.1386,177.3217 L794.0874,179.7122 L793.8594,182.0787 L793.0503,184.3665 L793.0456,186.7633 L793.0117,186.757 L792.4058,189.1735 L791.971,191.6217 L791.6553,194.092 L790.9295,196.4863 L790.7781,198.9871 L791.0171,199.0457 L789.8964,201.4047 L789.4734,203.935 L789.1355,206.4862 L788.3024,208.9158 L787.7297,211.4093 L787.7586,211.4185 L786.9287,213.8784 L786.2304,216.3801 L785.4686,218.8616 L784.828,221.3816 L783.7925,223.776 L784.0685,223.8889 L783.0852,226.3017 L781.9237,228.6415 L781.0229,231.0881 L780.1344,233.5396 L778.8588,235.8327 L778.575,235.6837 L777.9181,238.2715 L776.3268,240.3685 L775.4459,242.8387 L773.8335,244.9246 L772.8206,247.3255 L772.7954,247.3084 L771.6432,249.6456 L769.9026,251.5831 L768.5092,253.7565 L767.1449,255.9497 L765.5703,258 L765.7083,258.1232 L763.855,259.9193 L762.2374,261.9259 L760.2383,263.5919 L758.8084,265.7659 L757,267.6022 L757.1425,267.7998 L754.9234,269.3437 L752.7749,270.9856 L750.2977,272.1717 L748.0616,273.692 L746.0389,275.5083 L745.9203,275.2589 L742.9566,276.9457 L739.8593,278.3515 L736.9559,280.1649 L733.7214,281.2823 L730.6837,282.8135 L730.6327,282.6698 L726.9503,284.249 L723.0496,285.214 L719.3042,286.6158 L715.7108,288.4448 L711.8467,289.513 L711.9022,289.6985 L709.8524,290.45 L707.6301,290.6244 L705.6239,291.5216 L703.5706,292.2614 L701.4076,292.6342 L701.3527,292.4315 L699.2029,293.1867 L697.0352,293.8754 L694.9027,294.6946 L692.633,295.0068 L690.44,295.6022 " fill="none" style="stroke:#8B0000;stroke-width:4.0;"/><polygon fill="#8B0000" points="685.89,296.7522,685.9021,296.8212,687.8065,296.9557,689.7817,297.4948,691.7338,297.9021,693.6101,297.8762,695.5914,298.45,695.5781,298.4277,694.5481,297.746,693.5854,297.1762,692.6693,296.6842,691.5923,295.924,690.7407,295.5395,690.899,295.6345,691.1426,294.4613,691.8484,293.5653,692.6104,292.7032,693.0445,291.6443,693.6511,290.6888,693.6651,290.7067,692.0924,291.8931,690.5833,293.1611,689.0435,294.3897,687.5624,295.6934,685.89,296.7522" style="stroke:#8B0000;stroke-width:4.0;"/><text fill="#000000" font-family="Chalkduster" font-size="24" lengthAdjust="spacing" textLength="157" x="791" y="244.9431">Write script</text></g><!--link data to ct--><g id="link_data_ct"><path d="M259.71,151.3722 L259.7987,151.4014 L258.712,153.8178 L258.1455,156.4052 L257.4096,158.9369 L256.1166,161.2854 L255.5948,163.8875 L255.5614,163.8785 L254.6562,166.6519 L253.9192,169.4704 L253.2992,172.3203 L252.2762,175.062 L251.8175,177.9552 L252.059,178.0024 L250.9503,180.9277 L250.5466,183.9909 L250.2289,187.071 L249.4108,190.0531 L248.8559,193.0867 L248.886,193.0899 L248.5081,196.2265 L248.2674,199.3778 L247.9605,202.522 L247.78,205.6796 L247.1875,208.7935 L247.4857,208.7954 L247.5099,211.9541 L247.3417,215.1116 L247.4551,218.2709 L247.5817,221.4303 L247.2901,224.587 L246.9732,224.5386 L248.0584,227.7108 L248.1003,230.7237 L248.9353,233.8578 L248.9535,236.8671 L249.6413,239.9786 L249.6125,239.9686 L250.9678,242.9878 L251.6518,245.772 L252.7319,248.6948 L253.8452,251.6294 L254.7187,254.4799 L254.8751,254.5786 L256.3735,257.1034 L258.1392,259.7969 L259.4723,262.2175 L261.4506,265.0452 L263,267.6022 L263.163,267.7833 L264.9551,269.3904 L266.8281,271.0875 L268.3251,272.3669 L270.0977,273.9524 L272.1145,275.8092 L271.977,275.5697 L274.6648,277.2579 L277.1977,278.6762 L279.9553,280.4859 L282.3293,281.6273 L284.9313,283.166 L284.8733,283.0249 L288.159,284.5703 L291.197,285.5128 L294.4112,286.884 L297.7977,288.6746 L300.8773,289.7183 L300.9352,289.9031 L304.6754,291.1886 L308.2357,291.8994 L312.0213,293.33 L315.7579,294.6038 L319.38,295.5122 " fill="none" style="stroke:#8B0000;stroke-width:4.0;"/><polygon fill="#8B0000" points="323.93,296.7322,323.974,296.7868,322.3098,295.3885,320.9033,294.3099,319.413,293.1273,317.6466,291.6022,316.2623,290.5511,316.2398,290.5381,316.7065,291.4588,317.2861,292.4449,317.9443,293.4765,318.3317,294.3512,319.0984,295.4457,319.1909,295.6054,318.0141,295.8311,317.1075,296.5231,316.2338,297.2719,315.1684,297.6898,314.2038,298.2818,314.2074,298.3042,316.1474,297.9613,318.1036,297.7207,320.0521,297.4308,322.0155,297.2349,323.93,296.7322" style="stroke:#8B0000;stroke-width:4.0;"/><text fill="#000000" font-family="Chalkduster" font-size="24" lengthAdjust="spacing" textLength="286" x="363" y="229.4431">Convert to RO-Crate</text><text fill="#000000" font-family="Chalkduster" font-size="24" lengthAdjust="spacing" textLength="484" x="264" y="260.0729">(using Language Commons profile)</text></g><!--link ct to repo--><g id="link_ct_repo"><path d="M533,348.6722 L533.2802,348.6722 L532.4476,358.3276 L533.2577,367.9829 L533.5329,377.6383 L532.0488,387.2937 L532.8964,396.949 L533,406.6044 L532.8104,406.6044 L532.8296,410.0312 L532.9697,413.4581 L532.6927,416.8849 L533.2461,420.3118 L533,423.7386 L532.7199,423.7386 L532.9121,425.4846 L533.192,427.2306 L532.9619,428.9766 L533.0303,430.7226 L533,432.4686 L532.9858,432.4686 L533.0793,432.6877 L533.1063,432.9069 L533.2603,433.126 L533.2982,433.3452 L533,433.5643 " fill="none" style="stroke:#8B0000;stroke-width:4.0;"/><polygon fill="#8B0000" points="533,433.5643,533.064,433.5928,533.6738,431.7082,534.6589,429.9905,535.5217,428.2184,535.9827,426.2677,537,424.5643,536.9817,424.546,536.0995,425.2638,535.3096,426.0739,534.5839,426.9483,533.637,427.6014,533,428.5643,533.1305,428.6948,532.0514,427.6158,531.3534,426.9177,530.7018,426.2661,529.7798,425.3441,529,424.5643,529.0208,424.5736,529.7903,426.36,530.6544,428.1885,531.4728,429.9967,532.3784,431.8436,533,433.5643" style="stroke:#8B0000;stroke-width:4.0;"/><text fill="#000000" font-family="Chalkduster" font-size="24" lengthAdjust="spacing" textLength="146" x="534" y="403.4431">Write data</text></g><!--SRC=[TPAnJiCm48RtFCNH2GONjTsgAX8KCLK2TM40X8pZffQSSsHVW0gnCJ31m5I4r8btu7dw0lGHk3WjAaCjtU3_ltnt-cCoP7KVZYMfgR1EPWPpo2H9C4WEHYToU9Ji6LIsolHD8N46xVPXtI3u8dDTQ2GHQ6PrcnueuUEr8ecvrT1QBTvVk9wvFW5EdSsq3-0cuBp93KhRZ5ejNh-uvYsGeL4Ua-Jf7sdvCV_vVeEXivP5ur24KYipCGgKmpl6iWP1ULCIh9iZJj4Q9XKv3wrpxt8lYqBxQ9T9FUzM1funrgKBXhjcqV9yXS70_wbfoYZWixNN-4mClIGDdVXDPwVVZNvtfz-BVc-dZz77w7T0N4vDbccyJjV8xhRKK7hR4jOHb20oTuyYhLFfmuKt36uoIrWPYAeKJVvzJhfEbO0VmMQ7AzolGlq-HhnSnV-Ucuh28QVetSHOVL1JDYDYV9iX4Phy0W00]--></g></svg>