<svg xmlns="http://www.w3.org/2000/svg" xmlns:xlink="http://www.w3.org/1999/xlink" contentStyleType="text/css" data-diagram-type="CLASS" height="792px" preserveAspectRatio="none" style="width:1245px;height:792px;background:#FFFFFF;" version="1.1" viewBox="0 0 1245 792" width="1245px" zoomAndPan="magnify"><title>NT Study</title><defs/><g><text fill="#000000" font-family="sans-serif" font-size="14" font-weight="bold" lengthAdjust="spacing" textLength="65.3379" x="582.8311" y="23.5352">NT Study</text><!--cluster a--><g id="cluster_a"><path d="M573.5,43.4883 L716.4824,43.4883 A3.75,3.75 0 0 1 718.9824,45.9883 L725.9824,65.9766 L738.5,65.9766 A2.5,2.5 0 0 1 741,68.4766 L741,161.4483 A2.5,2.5 0 0 1 738.5,163.9483 L573.5,163.9483 A2.5,2.5 0 0 1 571,161.4483 L571,45.9883 A2.5,2.5 0 0 1 573.5,43.4883 " fill="#FFFFFF" fill-opacity="0.00000" style="stroke:#000000;stroke-width:1.5;"/><line style="stroke:#000000;stroke-width:1.5;" x1="571" x2="725.9824" y1="65.9766" y2="65.9766"/><text fill="#000000" font-family="sans-serif" font-size="14" font-weight="bold" lengthAdjust="spacing" textLength="141.9824" x="575" y="59.0234">RO-Crate: NT Study</text></g><!--cluster cb--><g id="cluster_cb"><path d="M282.5,274.9483 L587.4326,274.9483 A3.75,3.75 0 0 1 589.9326,277.4483 L596.9326,297.4366 L596.5,297.4366 A2.5,2.5 0 0 1 599,299.9366 L599,376.4283 A2.5,2.5 0 0 1 596.5,378.9283 L282.5,378.9283 A2.5,2.5 0 0 1 280,376.4283 L280,277.4483 A2.5,2.5 0 0 1 282.5,274.9483 " fill="#FFFFFF" fill-opacity="0.00000" style="stroke:#000000;stroke-width:1.5;"/><line style="stroke:#000000;stroke-width:1.5;" x1="280" x2="596.9326" y1="297.4366" y2="297.4366"/><text fill="#000000" font-family="sans-serif" font-size="14" font-weight="bold" lengthAdjust="spacing" textLength="303.9326" x="284" y="290.4834">RO-Crate: Collection: Batchelor Interviews</text></g><!--cluster ob1--><g id="cluster_ob1"><path d="M8.5,489.9283 L248.4912,489.9283 A3.75,3.75 0 0 1 250.9912,492.4283 L257.9912,512.4166 L301.5,512.4166 A2.5,2.5 0 0 1 304,514.9166 L304,783.3783 A2.5,2.5 0 0 1 301.5,785.8783 L8.5,785.8783 A2.5,2.5 0 0 1 6,783.3783 L6,492.4283 A2.5,2.5 0 0 1 8.5,489.9283 " fill="#FFFFFF" fill-opacity="0.00000" style="stroke:#000000;stroke-width:1.5;"/><line style="stroke:#000000;stroke-width:1.5;" x1="6" x2="257.9912" y1="512.4166" y2="512.4166"/><text fill="#000000" font-family="sans-serif" font-size="14" font-weight="bold" lengthAdjust="spacing" textLength="238.9912" x="10" y="505.4634">RO-Crate: Batchelor Interview #1</text></g><!--cluster ob2--><g id="cluster_ob2"><path d="M330.5,489.9283 L570.4912,489.9283 A3.75,3.75 0 0 1 572.9912,492.4283 L579.9912,512.4166 L623.5,512.4166 A2.5,2.5 0 0 1 626,514.9166 L626,783.3783 A2.5,2.5 0 0 1 623.5,785.8783 L330.5,785.8783 A2.5,2.5 0 0 1 328,783.3783 L328,492.4283 A2.5,2.5 0 0 1 330.5,489.9283 " fill="#FFFFFF" fill-opacity="0.00000" style="stroke:#000000;stroke-width:1.5;"/><line style="stroke:#000000;stroke-width:1.5;" x1="328" x2="579.9912" y1="512.4166" y2="512.4166"/><text fill="#000000" font-family="sans-serif" font-size="14" font-weight="bold" lengthAdjust="spacing" textLength="238.9912" x="332" y="505.4634">RO-Crate: Batchelor Interview #2</text></g><!--cluster cd--><g id="cluster_cd"><path d="M679.5,274.9483 L968.5254,274.9483 A3.75,3.75 0 0 1 971.0254,277.4483 L978.0254,297.4366 L978.5,297.4366 A2.5,2.5 0 0 1 981,299.9366 L981,376.4283 A2.5,2.5 0 0 1 978.5,378.9283 L679.5,378.9283 A2.5,2.5 0 0 1 677,376.4283 L677,277.4483 A2.5,2.5 0 0 1 679.5,274.9483 " fill="#FFFFFF" fill-opacity="0.00000" style="stroke:#000000;stroke-width:1.5;"/><line style="stroke:#000000;stroke-width:1.5;" x1="677" x2="978.0254" y1="297.4366" y2="297.4366"/><text fill="#000000" font-family="sans-serif" font-size="14" font-weight="bold" lengthAdjust="spacing" textLength="288.0254" x="681" y="290.4834">RO-Crate: Collection: Darwin Interviews</text></g><!--cluster od1--><g id="cluster_od1"><path d="M652.5,489.9283 L876.584,489.9283 A3.75,3.75 0 0 1 879.084,492.4283 L886.084,512.4166 L929.5,512.4166 A2.5,2.5 0 0 1 932,514.9166 L932,783.3783 A2.5,2.5 0 0 1 929.5,785.8783 L652.5,785.8783 A2.5,2.5 0 0 1 650,783.3783 L650,492.4283 A2.5,2.5 0 0 1 652.5,489.9283 " fill="#FFFFFF" fill-opacity="0.00000" style="stroke:#000000;stroke-width:1.5;"/><line style="stroke:#000000;stroke-width:1.5;" x1="650" x2="886.084" y1="512.4166" y2="512.4166"/><text fill="#000000" font-family="sans-serif" font-size="14" font-weight="bold" lengthAdjust="spacing" textLength="223.084" x="654" y="505.4634">RO-Crate: Darwin Interview #1</text></g><!--cluster od2--><g id="cluster_od2"><path d="M958.5,489.9283 L1182.584,489.9283 A3.75,3.75 0 0 1 1185.084,492.4283 L1192.084,512.4166 L1235.5,512.4166 A2.5,2.5 0 0 1 1238,514.9166 L1238,783.3783 A2.5,2.5 0 0 1 1235.5,785.8783 L958.5,785.8783 A2.5,2.5 0 0 1 956,783.3783 L956,492.4283 A2.5,2.5 0 0 1 958.5,489.9283 " fill="#FFFFFF" fill-opacity="0.00000" style="stroke:#000000;stroke-width:1.5;"/><line style="stroke:#000000;stroke-width:1.5;" x1="956" x2="1192.084" y1="512.4166" y2="512.4166"/><text fill="#000000" font-family="sans-serif" font-size="14" font-weight="bold" lengthAdjust="spacing" textLength="223.084" x="960" y="505.4634">RO-Crate: Darwin Interview #2</text></g><!--entity ab--><g id="elem_ab"><rect fill="#F1F1F1" height="69.4648" rx="2.5" ry="2.5" style="stroke:#181818;stroke-width:0.5;" width="137.9609" x="587.02" y="78.4883"/><text fill="#000000" font-family="sans-serif" font-size="14" lengthAdjust="spacing" textLength="61.2158" x="597.02" y="102.0234">NT Study</text><text fill="#000000" font-family="sans-serif" font-size="14" lengthAdjust="spacing" textLength="117.9609" x="597.02" y="118.5117">@type: Collection</text><text fill="#000000" font-family="sans-serif" font-size="14" lengthAdjust="spacing" textLength="93.1055" x="597.02" y="135">License:cc-by</text></g><!--entity cb1--><g id="elem_cb1"><rect fill="#F1F1F1" height="52.9766" rx="2.5" ry="2.5" style="stroke:#181818;stroke-width:0.5;" width="155.9873" x="399.01" y="309.9483"/><text fill="#000000" font-family="sans-serif" font-size="14" lengthAdjust="spacing" textLength="135.9873" x="409.01" y="333.4834">Batchelor Interviews</text><text fill="#000000" font-family="sans-serif" font-size="14" lengthAdjust="spacing" textLength="123.1631" x="409.01" y="349.9717">License: License A</text></g><!--entity oob1--><g id="elem_oob1"><rect fill="#F1F1F1" height="52.9766" rx="2.5" ry="2.5" style="stroke:#181818;stroke-width:0.5;" width="223.998" x="54" y="524.9283"/><text fill="#000000" font-family="sans-serif" font-size="14" lengthAdjust="spacing" textLength="203.998" x="64" y="548.4634">Object: Batchelor Interview #1</text><text fill="#000000" font-family="sans-serif" font-size="14" lengthAdjust="spacing" textLength="123.1631" x="64" y="564.9517">License: License A</text></g><!--entity fob1--><g id="elem_fob1"><rect fill="#F1F1F1" height="52.9766" rx="2.5" ry="2.5" style="stroke:#181818;stroke-width:0.5;" width="266.1279" x="21.94" y="716.8983"/><text fill="#000000" font-family="sans-serif" font-size="14" lengthAdjust="spacing" textLength="246.1279" x="31.94" y="740.4334">File: Batchelor Interview #1 dialogue</text><text fill="#000000" font-family="sans-serif" font-size="14" lengthAdjust="spacing" textLength="123.1631" x="31.94" y="756.9217">License: License A</text></g><!--entity oob2--><g id="elem_oob2"><rect fill="#F1F1F1" height="52.9766" rx="2.5" ry="2.5" style="stroke:#181818;stroke-width:0.5;" width="223.998" x="365" y="524.9283"/><text fill="#000000" font-family="sans-serif" font-size="14" lengthAdjust="spacing" textLength="203.998" x="375" y="548.4634">Object: Batchelor Interview #2</text><text fill="#000000" font-family="sans-serif" font-size="14" lengthAdjust="spacing" textLength="123.1631" x="375" y="564.9517">License: License A</text></g><!--entity fob2--><g id="elem_fob2"><rect fill="#F1F1F1" height="52.9766" rx="2.5" ry="2.5" style="stroke:#181818;stroke-width:0.5;" width="266.1279" x="343.94" y="716.8983"/><text fill="#000000" font-family="sans-serif" font-size="14" lengthAdjust="spacing" textLength="246.1279" x="353.94" y="740.4334">File: Batchelor Interview #2 dialogue</text><text fill="#000000" font-family="sans-serif" font-size="14" lengthAdjust="spacing" textLength="123.1631" x="353.94" y="756.9217">License: License A</text></g><!--entity cd1--><g id="elem_cd1"><rect fill="#F1F1F1" height="52.9766" rx="2.5" ry="2.5" style="stroke:#181818;stroke-width:0.5;" width="141.5566" x="720.22" y="309.9483"/><text fill="#000000" font-family="sans-serif" font-size="14" lengthAdjust="spacing" textLength="120.4014" x="730.22" y="333.4834">Darwin Interviews</text><text fill="#000000" font-family="sans-serif" font-size="14" lengthAdjust="spacing" textLength="121.5566" x="730.22" y="349.9717">License: License B</text></g><!--entity ood1--><g id="elem_ood1"><rect fill="#F1F1F1" height="52.9766" rx="2.5" ry="2.5" style="stroke:#181818;stroke-width:0.5;" width="208.4121" x="686.79" y="524.9283"/><text fill="#000000" font-family="sans-serif" font-size="14" lengthAdjust="spacing" textLength="188.4121" x="696.79" y="548.4634">Object: Darwin Interview #1</text><text fill="#000000" font-family="sans-serif" font-size="14" lengthAdjust="spacing" textLength="121.5566" x="696.79" y="564.9517">License: License B</text></g><!--entity fod1--><g id="elem_fod1"><rect fill="#F1F1F1" height="52.9766" rx="2.5" ry="2.5" style="stroke:#181818;stroke-width:0.5;" width="250.542" x="665.73" y="716.8983"/><text fill="#000000" font-family="sans-serif" font-size="14" lengthAdjust="spacing" textLength="230.542" x="675.73" y="740.4334">File: Darwin Interview #1 dialogue</text><text fill="#000000" font-family="sans-serif" font-size="14" lengthAdjust="spacing" textLength="121.5566" x="675.73" y="756.9217">License: License B</text></g><!--entity ood2--><g id="elem_ood2"><rect fill="#F1F1F1" height="52.9766" rx="2.5" ry="2.5" style="stroke:#181818;stroke-width:0.5;" width="208.4121" x="981.79" y="524.9283"/><text fill="#000000" font-family="sans-serif" font-size="14" lengthAdjust="spacing" textLength="188.4121" x="991.79" y="548.4634">Object: Darwin Interview #2</text><text fill="#000000" font-family="sans-serif" font-size="14" lengthAdjust="spacing" textLength="121.5566" x="991.79" y="564.9517">License: License B</text></g><!--entity fod2--><g id="elem_fod2"><rect fill="#F1F1F1" height="52.9766" rx="2.5" ry="2.5" style="stroke:#181818;stroke-width:0.5;" width="250.542" x="971.73" y="716.8983"/><text fill="#000000" font-family="sans-serif" font-size="14" lengthAdjust="spacing" textLength="230.542" x="981.73" y="740.4334">File: Darwin Interview #2 dialogue</text><text fill="#000000" font-family="sans-serif" font-size="14" lengthAdjust="spacing" textLength="121.5566" x="981.73" y="756.9217">License: License B</text></g><!--reverse link ab to cb1--><g id="link_ab_cb1"><path codeLine="63" d="M624.6459,152.9627 C588.6559,197.4427 530.24,269.6383 497.9,309.6083 " fill="#FFFFFF" fill-opacity="0.00000" id="ab-backto-cb1" style="stroke:#181818;stroke-width:1;"/><polygon fill="#181818" points="628.42,148.2983,619.6493,152.7788,625.2749,152.1853,625.8685,157.8109,628.42,148.2983" style="stroke:#181818;stroke-width:1;"/><text fill="#000000" font-family="sans-serif" font-size="13" lengthAdjust="spacing" textLength="67.1392" x="578.66" y="224.5166">memberOf</text></g><!--reverse link cb1 to oob1--><g id="link_cb1_oob1"><path codeLine="65" d="M434.2295,366.7284 C374.3295,407.7484 263.29,483.7883 203.56,524.6883 " fill="#FFFFFF" fill-opacity="0.00000" id="cb1-backto-oob1" style="stroke:#181818;stroke-width:1;"/><polygon fill="#181818" points="439.18,363.3383,429.4942,365.1231,435.0546,366.1634,434.0144,371.7238,439.18,363.3383" style="stroke:#181818;stroke-width:1;"/><text fill="#000000" font-family="sans-serif" font-size="13" lengthAdjust="spacing" textLength="67.1392" x="348.31" y="439.4966">memberOf</text></g><!--reverse link cb1 to oob2--><g id="link_cb1_oob2"><path codeLine="66" d="M477,369.1283 C477,410.0583 477,483.6383 477,524.6283 " fill="#FFFFFF" fill-opacity="0.00000" id="cb1-backto-oob2" style="stroke:#181818;stroke-width:1;"/><polygon fill="#181818" points="477,363.1283,473,372.1283,477,368.1283,481,372.1283,477,363.1283" style="stroke:#181818;stroke-width:1;"/><text fill="#000000" font-family="sans-serif" font-size="13" lengthAdjust="spacing" textLength="67.1392" x="478" y="439.4966">memberOf</text></g><!--link oob1 to fob1--><g id="link_oob1_fob1"><path codeLine="68" d="M164.52,578.0383 C162.42,614.2883 158.9459,674.2083 156.8459,710.5783 " fill="#FFFFFF" fill-opacity="0.00000" id="oob1-to-fob1" style="stroke:#181818;stroke-width:1;"/><polygon fill="#181818" points="156.5,716.5683,161.0121,707.8138,156.7882,711.5766,153.0254,707.3527,156.5,716.5683" style="stroke:#181818;stroke-width:1;"/><text fill="#000000" font-family="sans-serif" font-size="13" lengthAdjust="spacing" textLength="46.4204" x="161.96" y="652.4666">hasPart</text></g><!--link oob2 to fob2--><g id="link_oob2_fob2"><path codeLine="69" d="M477,578.0383 C477,614.2883 477,674.1983 477,710.5683 " fill="#FFFFFF" fill-opacity="0.00000" id="oob2-to-fob2" style="stroke:#181818;stroke-width:1;"/><polygon fill="#181818" points="477,716.5683,481,707.5683,477,711.5683,473,707.5683,477,716.5683" style="stroke:#181818;stroke-width:1;"/><text fill="#000000" font-family="sans-serif" font-size="13" lengthAdjust="spacing" textLength="46.4204" x="478" y="652.4666">hasPart</text></g><!--reverse link ab to cd1--><g id="link_ab_cd1"><path codeLine="73" d="M679.9252,153.4201 C707.0652,197.9001 750.85,269.6383 775.24,309.6083 " fill="#FFFFFF" fill-opacity="0.00000" id="ab-backto-cd1" style="stroke:#181818;stroke-width:1;"/><polygon fill="#181818" points="676.8,148.2983,678.0732,158.0645,679.4043,152.5665,684.9023,153.8976,676.8,148.2983" style="stroke:#181818;stroke-width:1;"/><text fill="#000000" font-family="sans-serif" font-size="13" lengthAdjust="spacing" textLength="67.1392" x="726.19" y="224.5166">memberOf</text></g><!--reverse link cd1 to ood1--><g id="link_cd1_ood1"><path codeLine="75" d="M791,369.1283 C791,410.0583 791,483.6383 791,524.6283 " fill="#FFFFFF" fill-opacity="0.00000" id="cd1-backto-ood1" style="stroke:#181818;stroke-width:1;"/><polygon fill="#181818" points="791,363.1283,787,372.1283,791,368.1283,795,372.1283,791,363.1283" style="stroke:#181818;stroke-width:1;"/><text fill="#000000" font-family="sans-serif" font-size="13" lengthAdjust="spacing" textLength="67.1392" x="792" y="439.4966">memberOf</text></g><!--reverse link cd1 to ood2--><g id="link_cd1_ood2"><path codeLine="76" d="M831.7445,366.8507 C888.5545,407.8707 993.71,483.7883 1050.37,524.6883 " fill="#FFFFFF" fill-opacity="0.00000" id="cd1-backto-ood2" style="stroke:#181818;stroke-width:1;"/><polygon fill="#181818" points="826.88,363.3383,831.8351,371.8499,830.9337,366.2653,836.5183,365.3639,826.88,363.3383" style="stroke:#181818;stroke-width:1;"/><text fill="#000000" font-family="sans-serif" font-size="13" lengthAdjust="spacing" textLength="67.1392" x="937.04" y="439.4966">memberOf</text></g><!--link ood1 to fod1--><g id="link_ood1_fod1"><path codeLine="78" d="M791,578.0383 C791,614.2883 791,674.1983 791,710.5683 " fill="#FFFFFF" fill-opacity="0.00000" id="ood1-to-fod1" style="stroke:#181818;stroke-width:1;"/><polygon fill="#181818" points="791,716.5683,795,707.5683,791,711.5683,787,707.5683,791,716.5683" style="stroke:#181818;stroke-width:1;"/><text fill="#000000" font-family="sans-serif" font-size="13" lengthAdjust="spacing" textLength="46.4204" x="792" y="652.4666">hasPart</text></g><!--link ood2 to fod2--><g id="link_ood2_fod2"><path codeLine="79" d="M1087.48,578.0383 C1089.58,614.2883 1093.0541,674.2083 1095.1541,710.5783 " fill="#FFFFFF" fill-opacity="0.00000" id="ood2-to-fod2" style="stroke:#181818;stroke-width:1;"/><polygon fill="#181818" points="1095.5,716.5683,1098.9746,707.3527,1095.2118,711.5766,1090.9879,707.8138,1095.5,716.5683" style="stroke:#181818;stroke-width:1;"/><text fill="#000000" font-family="sans-serif" font-size="13" lengthAdjust="spacing" textLength="46.4204" x="1092.96" y="652.4666">hasPart</text></g><!--SRC=[dLH1JuCm6BttLtpEmqxCh4SEHZTZOcASKOzBJA7TLYtj0iL9pFwxXPG1ey2sdY3lUw_lbKV7SCLbA5BAFYCYCvXCRYZHn3ClPCqY9hMNw4omYVxLI7Cjc0yl7_2kKveXj2NXjnc3qTl2cyT4ry0Ha0G8_24mAsQX9d8jp6I9B-MTphQ6C5T269WhkPJFF6GoONuOUe5L28n4eR57QE_SiHBmOKPqk652nV0aDOj_EDibXKuOjAsuXYiFO1_WtWfCAoTk8muzk9uMR5MmZ_PV15_cfOlNwKIfkfKZpKSkEfq0vKIeTSewfLVgmfJOfiGsvJb9SLzIV4bIV59It4Wwzl8rMB074k-uRBMBjhzkQzBXPMRPWuT-B7Re5UtfbOFKwK4fEbGgXrpVES_iELyIpjQ93jJ9GUmBYCyEY4yAw2WIGlbzuNdfrhlDxp0V8XO5B5wi42h-NmlbKpMiABmRAcbKxQH1yp_LXmr9NaciIrw5uGhB3HaxjDjE1ULJ3JiKTq0bxR0bRTYX3JkqPkSV]--></g></svg>