<svg xmlns="http://www.w3.org/2000/svg" xmlns:xlink="http://www.w3.org/1999/xlink" contentStyleType="text/css" data-diagram-type="CLASS" height="679px" preserveAspectRatio="none" style="width:468px;height:679px;background:#FFFFFF;" version="1.1" viewBox="0 0 468 679" width="468px" zoomAndPan="magnify"><defs/><g><!--cluster RO-Crate: Darwin Study--><g id="cluster_RO-Crate: Darwin Study"><path d="M8.5,6 L182.5859,6 A3.75,3.75 0 0 1 185.0859,8.5 L192.0859,28.4883 L458.5,28.4883 A2.5,2.5 0 0 1 461,30.9883 L461,670.38 A2.5,2.5 0 0 1 458.5,672.88 L8.5,672.88 A2.5,2.5 0 0 1 6,670.38 L6,8.5 A2.5,2.5 0 0 1 8.5,6 " fill="#FFFFFF" fill-opacity="0.00000" style="stroke:#000000;stroke-width:1.5;"/><line style="stroke:#000000;stroke-width:1.5;" x1="6" x2="192.0859" y1="28.4883" y2="28.4883"/><text fill="#000000" font-family="sans-serif" font-size="14" font-weight="bold" lengthAdjust="spacing" textLength="173.0859" x="10" y="21.5352">RO-Crate: Darwin Study</text></g><!--entity col--><g id="elem_col"><rect fill="#F1F1F1" height="52.9766" rx="2.5" ry="2.5" style="stroke:#181818;stroke-width:0.5;" width="186.2705" x="136.86" y="41"/><text fill="#000000" font-family="sans-serif" font-size="14" lengthAdjust="spacing" textLength="166.2705" x="146.86" y="64.5352">Collection: Darwin Study</text><text fill="#000000" font-family="sans-serif" font-size="14" lengthAdjust="spacing" textLength="123.1631" x="146.86" y="81.0234">License: License A</text></g><!--entity o--><g id="elem_o"><rect fill="#F1F1F1" height="52.9766" rx="2.5" ry="2.5" style="stroke:#181818;stroke-width:0.5;" width="186.2773" x="21.86" y="232.97"/><text fill="#000000" font-family="sans-serif" font-size="14" lengthAdjust="spacing" textLength="166.2773" x="31.86" y="256.5052">Object: Darwin Interview</text><text fill="#000000" font-family="sans-serif" font-size="14" lengthAdjust="spacing" textLength="123.1631" x="31.86" y="272.9934">License: License A</text></g><!--entity b--><g id="elem_b"><rect fill="#F1F1F1" height="52.9766" rx="2.5" ry="2.5" style="stroke:#181818;stroke-width:0.5;" width="201.8633" x="243.07" y="232.97"/><text fill="#000000" font-family="sans-serif" font-size="14" lengthAdjust="spacing" textLength="181.8633" x="253.07" y="256.5052">Object: Batchelor Interview</text><text fill="#000000" font-family="sans-serif" font-size="14" lengthAdjust="spacing" textLength="123.1631" x="253.07" y="272.9934">License: License A</text></g><!--entity d--><g id="elem_d"><rect fill="#F1F1F1" height="69.4648" rx="2.5" ry="2.5" style="stroke:#181818;stroke-width:0.5;" width="196.8115" x="21.59" y="440.95"/><text fill="#000000" font-family="sans-serif" font-size="14" lengthAdjust="spacing" textLength="176.8115" x="31.59" y="464.4852">File: Darwin Interview text</text><text fill="#000000" font-family="sans-serif" font-size="14" lengthAdjust="spacing" textLength="113.1963" x="31.59" y="480.9734">type: Annotation</text><text fill="#000000" font-family="sans-serif" font-size="14" lengthAdjust="spacing" textLength="123.1631" x="31.59" y="497.4617">License: License A</text></g><!--entity e--><g id="elem_e"><rect fill="#F1F1F1" height="69.4648" rx="2.5" ry="2.5" style="stroke:#181818;stroke-width:0.5;" width="207.8311" x="86.08" y="587.42"/><text fill="#000000" font-family="sans-serif" font-size="14" lengthAdjust="spacing" textLength="187.8311" x="96.08" y="610.9552">File: Darwin Interview audio</text><text fill="#000000" font-family="sans-serif" font-size="14" lengthAdjust="spacing" textLength="148.1895" x="96.08" y="627.4434">type: Primary Material</text><text fill="#000000" font-family="sans-serif" font-size="14" lengthAdjust="spacing" textLength="123.1631" x="96.08" y="643.9317">License: License A</text></g><!--link col to o--><g id="link_col_o"><path codeLine="23" d="M214.49,94.11 C192.54,130.36 155.7575,191.1374 133.7375,227.5074 " fill="#FFFFFF" fill-opacity="0.00000" id="col-to-o" style="stroke:#181818;stroke-width:1;"/><polygon fill="#181818" points="130.63,232.64,138.713,227.0128,133.2196,228.3628,131.8695,222.8695,130.63,232.64" style="stroke:#181818;stroke-width:1;"/><text fill="#000000" font-family="sans-serif" font-size="13" lengthAdjust="spacing" textLength="73.1948" x="178.29" y="168.5384">hasMember</text></g><!--link col to b--><g id="link_col_b"><path codeLine="24" d="M245.37,94.11 C267.13,130.36 303.5932,191.1249 325.4132,227.4949 " fill="#FFFFFF" fill-opacity="0.00000" id="col-to-b" style="stroke:#181818;stroke-width:1;"/><polygon fill="#181818" points="328.5,232.64,327.2999,222.8645,325.9277,228.3524,320.4398,226.9802,328.5,232.64" style="stroke:#181818;stroke-width:1;"/><text fill="#000000" font-family="sans-serif" font-size="13" lengthAdjust="spacing" textLength="73.1948" x="292.75" y="168.5384">hasMember</text></g><!--link o to d--><g id="link_o_d"><path codeLine="25" d="M115.6,286.3 C116.5,324.92 118.0588,391.7217 119.0688,434.6317 " fill="#FFFFFF" fill-opacity="0.00000" id="o-to-d" style="stroke:#181818;stroke-width:1;"/><polygon fill="#181818" points="119.21,440.63,122.9971,431.5384,119.0923,435.6314,114.9993,431.7266,119.21,440.63" style="stroke:#181818;stroke-width:1;"/><text fill="#000000" font-family="sans-serif" font-size="13" lengthAdjust="spacing" textLength="46.4204" x="118.33" y="360.5184">hasPart</text></g><!--link o to e--><g id="link_o_e"><path codeLine="26" d="M138.15,286.39 C166.37,319.63 213.13,380.23 236,440.95 C254.36,489.69 268,508.92 249,557.42 C244.76,568.23 241.7055,573.7972 233.9555,582.5972 " fill="#FFFFFF" fill-opacity="0.00000" id="o-to-e" style="stroke:#181818;stroke-width:1;"/><polygon fill="#181818" points="229.99,587.1,238.9401,582.9895,233.2946,583.3477,232.9364,577.7022,229.99,587.1" style="stroke:#181818;stroke-width:1;"/><text fill="#000000" font-family="sans-serif" font-size="13" lengthAdjust="spacing" textLength="46.4204" x="223.32" y="407.5184">hasPart</text></g><!--link d to e--><g id="link_d_e"><path codeLine="27" d="M136.41,510.55 C147.57,533.57 159.6543,558.5102 170.8343,581.5902 " fill="#FFFFFF" fill-opacity="0.00000" id="d-to-e" style="stroke:#181818;stroke-width:1;"/><polygon fill="#181818" points="173.45,586.99,173.1264,577.1465,171.2703,582.4901,165.9266,580.634,173.45,586.99" style="stroke:#181818;stroke-width:1;"/><text fill="#000000" font-family="sans-serif" font-size="13" lengthAdjust="spacing" textLength="82.894" x="158.1" y="553.9884">annotationOf</text></g><!--SRC=[ZP71JiCm38RlUmhJ2wUK-mv8OmW9YQaJN2SXDp5R87McrAMh4EzEMi7Q0P4MvH3_jZxRVoxXmh9sZQ7d2hc3FByoAAXYW5kgY4NLqZdAvI2psHxrMvGXUopKCg3G76unj9RXIHhJPG0VCuWda1RahOkLI-zSZApdqzeDFrXDN4V4zmCM6M0Dshj86J2Vls55-Hg38-YUXSAxfJO9yoCgnRf1qJjoFfo1A_lz_X_jpZhwEnW87MJ3qkrZSi7i1NihaWrCSlK47njZ_K-3TR0LXWvMyMU2HPTiGnDRukqjLyhubjKr-3dii5vHLL8upPJJZ1zrC-Xh339LQLHDL0S1ZmuKBry0]--></g></svg>