<svg xmlns="http://www.w3.org/2000/svg" xmlns:xlink="http://www.w3.org/1999/xlink" contentStyleType="text/css" data-diagram-type="DESCRIPTION" height="659px" preserveAspectRatio="none" style="width:1283px;height:659px;background:#FFFFFF;" version="1.1" viewBox="0 0 1283 659" width="1283px" zoomAndPan="magnify"><title>Batch-loading data into LDaCA</title><defs/><g><text fill="#000000" font-family="Chalkduster" font-size="42" font-weight="bold" lengthAdjust="spacing" textLength="760.8729" x="254.1932" y="51.7215">Batch-loading data into LDaCA</text><!--cluster repo--><g class="cluster" data-entity="repo" data-source-line="16" data-uid="ent0005" id="cluster_repo"><path d="M6,474.4922 L6,474.4922 L6.0164,474.5842 L9.6759,473.6508 L13.4315,473.2565 L17.1557,472.6866 L20.7772,471.5394 L24.541,471.1914 L24.5386,471.157 L26.4818,470.8639 L28.4373,470.7444 L30.4014,470.7457 L32.336,470.331 L34.3119,470.499 L34.3256,470.7447 L36.5981,470.0907 L38.9107,470.154 L41.2281,470.3049 L43.5171,469.9465 L45.821,469.856 L45.8223,469.8863 L51.3406,469.6128 L56.8647,469.4772 L62.3859,469.2752 L67.9125,469.2 L73.4219,468.711 L73.4307,469.0091 L79.9623,468.8189 L86.4882,468.4364 L93.0225,468.3354 L99.5571,468.2475 L106.0793,467.7417 L106.0722,467.4213 L113.376,467.8816 L120.6564,467.2867 L127.9546,467.4941 L135.2344,466.8753 L142.5293,466.9336 L142.5288,466.9032 L150.3305,467.1308 L158.1202,466.6473 L165.9171,466.5834 L173.7145,466.5548 L181.5076,466.272 L181.51,466.457 L189.556,466.1643 L197.6062,466.1877 L205.6497,465.6997 L213.7032,465.9746 L221.75,465.7422 L221.7567,466.4731 L231.658,466.2446 L241.5626,466.3789 L251.4519,464.8271 L261.3524,464.5113 L271.2554,464.4621 L281.1648,465.1217 L291.0657,464.8479 L300.9707,465.0196 L300.9756,465.9281 L310.8419,464.7336 L320.7132,464.4561 L330.5898,465.1649 L340.4559,463.9184 L350.3294,464.0623 L360.2103,465.5667 L370.0781,464.6485 L370.0795,465.2293 L379.7121,465.6055 L389.3405,464.1748 L398.9742,465.0071 L408.6067,465.3464 L418.2351,463.907 L427.868,464.3867 L437.5,464.4922 L437.5,464.4922 L437.5004,464.6602 L447.1337,465.3835 L456.7634,464.5313 L466.3965,465.1759 L476.0251,463.8431 L485.6564,463.7008 L495.2917,465.2976 L504.9219,464.6485 L504.9167,463.6926 L514.798,465.3801 L524.6683,465.03 L534.5374,464.4503 L544.4093,464.3888 L554.2876,465.5252 L564.1547,464.5674 L574.0293,465.0196 L574.0365,465.8087 L583.9252,464.3729 L593.842,466.0234 L603.743,465.9363 L613.6426,465.7075 L623.5428,465.5342 L633.4537,466.5303 L643.3549,466.4699 L653.25,465.7422 L653.251,465.8174 L661.3001,465.9674 L669.3462,465.8962 L677.3997,466.3785 L685.4449,466.2349 L693.4924,466.272 L693.4937,466.3487 L701.2835,466.134 L709.0807,466.3566 L716.8834,466.9048 L724.6783,466.9923 L732.4707,466.9336 L732.4703,466.9145 L739.7575,466.9521 L747.0485,467.1596 L754.3339,467.1136 L761.6347,467.7644 L768.9207,467.7417 L768.9304,468.0703 L775.4591,468.1694 L781.9928,468.4381 L788.5133,468.2625 L795.0478,468.5559 L801.5781,468.711 L801.571,468.5388 L807.1035,469.0661 L812.623,469.2785 L818.1488,469.6433 L823.6546,469.525 L829.179,469.856 L829.1756,469.7963 L831.4918,470.1814 L833.7967,470.3649 L836.0717,470.0143 L838.3814,470.2843 L840.6881,470.499 L840.6928,470.5652 L842.6231,470.3667 L844.6075,470.9326 L846.5587,471.0288 L848.5016,471.0083 L850.459,471.1914 L850.4701,471.2537 L854.2239,472.1704 L857.851,472.3748 L861.6081,473.3097 L865.314,473.957 L869,474.4922 L869.3087,474.4922 L869.3758,484.3441 L869.3026,494.196 L867.3356,504.0478 L867.9312,513.8997 L867.7692,523.7516 L869.1702,533.6035 L869.235,543.4553 L869.4313,553.3072 L868.2241,563.1591 L868.82,573.011 L868.6794,582.8628 L870.5383,592.7147 L870.1375,602.5666 L867.7052,612.4185 L868.8055,622.2703 L869,632.1222 L869,632.1222 L868.955,631.8696 L865.3143,632.9086 L861.631,633.7088 L857.9178,634.341 L854.1333,634.5723 L850.459,635.423 L850.4736,635.6287 L848.4815,635.2322 L846.5569,635.7887 L844.587,635.7058 L842.6453,636.0198 L840.6881,636.1154 L840.694,636.2221 L838.398,636.4535 L836.0666,636.0532 L833.7944,636.7122 L831.4852,636.7089 L829.179,636.7584 L829.1855,636.9162 L823.6726,637.3195 L818.1387,637.2189 L812.6217,637.5233 L807.1022,637.7692 L801.5781,637.9035 L801.5807,637.9911 L795.0466,638.0969 L788.5245,638.6069 L781.9756,638.2141 L775.4596,638.93 L768.9207,638.8727 L768.9145,638.5954 L761.6253,638.7942 L754.3411,639.2137 L747.051,639.3701 L739.7558,639.3002 L732.4707,639.6808 L732.4738,639.8647 L724.6759,639.8615 L716.8849,640.2684 L709.0888,640.3742 L701.2847,640.0109 L693.4924,640.3424 L693.4901,640.1656 L685.4432,640.391 L677.3975,640.7123 L669.3493,640.8394 L661.3002,640.9001 L653.25,640.8722 L653.2458,640.4163 L643.3552,641.811 L633.4525,641.8979 L623.5417,641.0802 L613.6367,640.9148 L603.7322,640.7887 L593.8319,641.1281 L583.9336,641.6877 L574.0293,641.5949 L574.0288,641.5037 L564.1538,641.0908 L554.2878,642.3507 L544.4085,641.142 L534.5429,642.4768 L524.6699,642.4296 L514.797,642.4088 L504.9219,641.966 L504.924,642.8893 L495.2894,641.6604 L485.6576,641.6097 L476.0284,642.7248 L466.3932,641.2594 L456.7627,641.7656 L447.1321,642.2539 L437.5,642.1222 L437.5,642.1222 L437.5002,642.2138 L427.8672,641.622 L418.2365,642.0203 L408.6072,643.048 L398.9752,642.8976 L389.3397,641.2156 L379.7101,642.093 L370.0781,641.966 L370.0744,641.2808 L360.2054,641.8779 L350.3352,642.2506 L340.4637,642.3667 L330.5834,640.8676 L320.7185,642.2349 L310.8433,641.6591 L300.9707,641.5949 L300.9639,640.8544 L291.0624,640.8765 L281.1695,641.8497 L271.266,641.657 L261.3602,641.2116 L251.4496,640.2471 L241.5632,641.9304 L231.6488,640.5468 L221.75,640.8722 L221.7469,640.6375 L213.7011,640.7363 L205.6565,640.9224 L197.6081,640.8278 L189.5563,640.464 L181.5076,640.3424 L181.5064,640.2752 L173.7132,640.2856 L165.9177,640.1605 L158.1168,639.7198 L150.3281,639.9971 L142.5293,639.6808 L142.5348,639.9291 L135.2372,639.4233 L127.9451,639.1669 L120.666,639.4957 L113.3695,639.0437 L106.0793,638.8727 L106.0793,638.8726 L99.5518,638.8117 L93.0078,638.1982 L86.4919,638.5266 L79.9532,638.0904 L73.4219,637.9035 L73.4342,638.2005 L67.8977,637.5786 L62.3891,637.6271 L56.8532,637.0193 L51.3457,637.0962 L45.821,636.7584 L45.8304,636.9268 L43.5111,636.4846 L41.2264,636.6623 L38.9014,636.1191 L36.6021,636.0353 L34.3119,636.1154 L34.3334,636.4182 L32.3792,636.2804 L30.4214,636.0905 L28.4381,635.5402 L26.5073,635.7318 L24.541,635.423 L24.5042,635.2164 L20.8373,634.7883 L17.1245,634.1021 L13.396,633.3277 L9.7562,633.0519 L6,632.1222 L7.1821,632.1222 L5.1447,622.2703 L7.4043,612.4185 L6.245,602.5666 L4.4438,592.7147 L5.3778,582.8628 L4.5993,573.011 L5.6291,563.1591 L4.3227,553.3072 L4.3996,543.4553 L6.1875,533.6035 L5.679,523.7516 L5.8438,513.8997 L5.6181,504.0478 L6.4462,494.196 L4.5198,484.3441 L6,474.4922" fill="#98FB98" style="stroke:#181818;stroke-width:4;"/><path d="M6,474.4922 L6,474.4922 L6.0164,474.5842 L9.6759,474.9711 L13.4315,475.8971 L17.1557,476.6476 L20.7772,476.8207 L24.541,477.793 L24.5386,477.7585 L26.4818,477.7424 L28.4373,477.9 L30.4014,478.1782 L32.336,478.0404 L34.3119,478.4854 L34.3256,478.7311 L36.5981,478.3343 L38.9107,478.6549 L41.2281,479.0629 L43.5171,478.9618 L45.821,479.1284 L45.8223,479.1587 L51.3406,479.3433 L56.8647,479.6657 L62.3859,479.9216 L67.9125,480.3045 L73.4219,480.2735 L73.4307,480.5716 L79.9623,480.7691 L86.4882,480.7743 L93.0225,481.061 L99.5571,481.3608 L106.0793,481.2427 L106.0722,480.9223 L113.376,481.7058 L120.6564,481.4342 L127.9546,481.9648 L135.2344,481.6692 L142.5293,482.0508 L142.5288,482.0204 L150.3305,482.5127 L158.1202,482.2938 L165.9171,482.4946 L173.7145,482.7306 L181.5076,482.7124 L181.51,482.8974 L189.556,482.8166 L197.6062,483.052 L205.6497,482.7759 L213.7032,483.2626 L221.75,483.2422 L221.7567,483.9731 L231.658,483.9252 L241.5626,484.2402 L251.4519,482.8691 L261.3524,482.734 L271.2554,482.8654 L281.1648,483.7057 L291.0657,483.6125 L300.9707,483.9649 L300.9756,484.8734 L310.8419,483.785 L320.7132,483.6135 L330.5898,484.4283 L340.4559,483.2878 L350.3294,483.5378 L360.2103,485.1482 L370.0781,484.336 L370.0795,484.9168 L379.7121,485.3376 L389.3405,483.9515 L398.9742,484.8285 L408.6067,485.2125 L418.2351,483.8177 L427.868,484.3421 L437.5,484.4922 L437.5,484.4922 L437.5004,484.6602 L447.1337,485.3389 L456.7634,484.442 L466.3965,485.042 L476.0251,483.6645 L485.6564,483.4776 L495.2917,485.0298 L504.9219,484.336 L504.9167,483.3801 L514.798,484.9616 L524.6683,484.5054 L534.5374,483.8197 L544.4093,483.6522 L554.2876,484.6826 L564.1547,483.6188 L574.0293,483.9649 L574.0365,484.754 L583.9252,483.1376 L593.842,484.6074 L603.743,484.3396 L613.6426,483.9302 L623.5428,483.5762 L633.4537,484.3916 L643.3549,484.1506 L653.25,483.2422 L653.251,483.3174 L661.3001,483.2554 L669.3462,482.9724 L677.3997,483.2427 L685.4449,482.8872 L693.4924,482.7124 L693.4937,482.7891 L701.2835,482.3098 L709.0807,482.2677 L716.8834,482.5513 L724.6783,482.3741 L732.4707,482.0508 L732.4703,482.0317 L739.7575,481.746 L747.0485,481.6303 L754.3339,481.261 L761.6347,481.5886 L768.9207,481.2427 L768.9304,481.5712 L775.4591,481.2827 L781.9928,481.1637 L788.5133,480.6004 L795.0478,480.5061 L801.5781,480.2735 L801.571,480.1013 L807.1035,480.1706 L812.623,479.925 L818.1488,479.8317 L823.6546,479.2555 L829.179,479.1284 L829.1756,479.0688 L831.4918,479.1966 L833.7967,479.123 L836.0717,478.5152 L838.3814,478.528 L840.6881,478.4854 L840.6928,478.5516 L842.6231,478.0761 L844.6075,478.3651 L846.5587,478.1843 L848.5016,477.8868 L850.459,477.793 L850.4701,477.8552 L854.2239,477.4517 L857.851,476.3358 L861.6081,475.9504 L865.314,475.2774 L869,474.4922" fill="none" style="stroke:#181818;stroke-width:4;"/><text fill="#000000" font-family="Chalkduster" font-size="24" font-style="italic" lengthAdjust="spacing" textLength="169.1404" x="352.9298" y="510.3331">&#171;repository&#187;</text><text fill="#000000" font-family="Chalkduster" font-size="24" font-weight="bold" lengthAdjust="spacing" textLength="142.6475" x="366.1762" y="540.9629">Repository</text></g><!--entity data--><g class="entity" data-entity="data" data-source-line="7" data-uid="ent0002" id="entity_data"><polygon fill="none" points="338.11,100.1022,338.11,100.3124,348.1058,99.6879,358.1017,100.2955,368.0975,100.5019,378.0933,99.3888,388.0892,100.0245,398.085,99.6757,408.0808,99.7187,418.0767,100.0341,428.0725,99.4108,438.0683,100.6559,448.0642,99.4719,458.06,99.9044,468.0558,100.5342,478.0516,100.0164,488.0475,100.1704,498.0433,100.0703,508.0391,100.2807,518.035,100.3413,528.0308,100.6879,538.0266,100.7733,548.0225,100.7815,558.0183,100.3568,568.0141,100.5658,578.01,100.8044,588.0058,99.381,598.0016,100.7807,607.9975,99.8057,617.9933,100.636,627.9891,99.6072,637.985,100.0337,647.9808,100.8438,657.9766,100.0535,667.9725,100.2075,677.9683,100.4408,687.9641,100.5184,697.96,100.0983,707.9558,100.3894,717.9516,99.5298,727.9474,100.3866,737.9433,100.6504,747.9391,100.5467,757.9349,100.7152,767.9308,99.6191,777.9266,99.45,787.9224,99.4808,797.9183,100.0433,807.9141,99.9057,817.9099,100.7836,827.9058,99.9275,837.9016,99.7592,847.8974,100.3305,857.8933,100.1022,857.8082,99.8969,858.1806,100.0888,858.6832,100.595,859.0095,100.6757,859.4012,100.9142,859.661,100.8344,859.5619,100.7934,859.9058,101.2287,860.1357,101.6169,859.9549,101.8348,860.2173,102.2364,860.3933,102.6022,860.5192,102.6022,861.045,111.7282,860.3891,120.8541,860.8558,129.9801,859.8395,139.1061,860.3933,148.232,860.1847,148.1457,860.4019,148.6498,859.8796,148.8477,860.1107,149.3576,859.8711,149.6726,859.661,149.9998,859.6269,149.9173,859.2624,150.0373,859.0124,150.434,858.5622,150.347,858.3223,150.7679,857.8933,150.732,857.8933,150.1793,847.8974,151.3495,837.9016,151.2163,827.9058,150.977,817.9099,150.7793,807.9141,151.4587,797.9183,151.3456,787.9224,150.9013,777.9266,151.0002,767.9308,150.6018,757.9349,151.4485,747.9391,150.8869,737.9433,150.9046,727.9474,150.1237,717.9516,150.3268,707.9558,151.2628,697.96,151.1618,687.9641,150.6891,677.9683,150.4099,667.9725,150.5131,657.9766,150.0459,647.9808,151.1468,637.985,151.4716,627.9891,151.2584,617.9933,151.427,607.9975,150.5953,598.0016,150.8193,588.0058,150.3444,578.01,151.0161,568.0141,150.9788,558.0183,151.2844,548.0225,150.5024,538.0266,150.5976,528.0308,151.1755,518.035,151.2994,508.0391,150.2195,498.0433,150.5382,488.0475,150.8813,478.0516,150.1212,468.0558,151.0854,458.06,150.99,448.0642,150.6313,438.0683,150.8743,428.0725,151.4607,418.0767,150.4192,408.0808,151.047,398.085,151.0177,388.0892,150.8478,378.0933,150.873,368.0975,150.8455,358.1017,150.1079,348.1058,150.3312,338.11,150.732,338.0511,150.5899,337.7646,150.6053,337.4141,150.4663,337.07,150.3425,336.6587,150.0566,336.3422,149.9998,336.3214,149.9912,336.1588,149.6309,336.227,149.3663,336.0343,148.9936,335.6069,148.5237,335.61,148.232,335.5371,148.232,335.0328,139.1061,335.8984,129.9801,336.2185,120.8541,336.1546,111.7282,335.61,102.6022,335.4759,102.5467,335.8993,102.3078,335.6741,101.8004,336.111,101.5671,336.1036,101.1498,336.3422,100.8344,336.3546,100.8642,336.7264,100.762,337.1096,100.6869,337.3111,100.1734,337.8171,100.3951,338.11,100.1022" style="stroke:#181818;stroke-width:4;"/><text fill="#000000" font-family="Chalkduster" font-size="24" lengthAdjust="spacing" textLength="504.7833" x="345.61" y="133.9431">&#128200;&#128196;&#128220;  Folders of original data &#127909;&#127897;</text></g><!--entity ct--><g class="entity" data-entity="ct" data-source-line="11" data-uid="ent0003" id="entity_ct"><polygon fill="#ADD8E6" points="548.23,297.2322,548.23,297.4424,558.1593,296.8179,568.0886,297.4255,578.018,297.6319,587.9473,296.5188,597.8766,297.1545,607.8059,296.8057,617.7352,296.8487,627.6646,297.1641,637.5939,296.5408,647.5232,297.7859,657.4525,296.6019,667.3818,297.0344,677.3112,297.6642,687.2405,297.1464,697.1698,297.3004,707.0991,297.2003,717.0284,297.4107,726.9577,297.4713,736.8871,297.8179,746.8164,297.9033,756.7457,297.9115,766.675,297.4868,776.6043,297.6958,786.5337,297.9344,796.463,296.511,806.3923,297.9107,816.3216,296.9357,826.2509,297.766,836.1803,296.7372,846.1096,297.1637,856.0389,297.9738,865.9682,297.1835,875.8975,297.3375,885.8269,297.5708,895.7562,297.6484,905.6855,297.2283,915.6148,297.5194,925.5441,296.6598,935.4735,297.5166,945.4028,297.7804,955.3321,297.6767,965.2614,297.8452,975.1907,296.7491,985.1201,296.58,995.0494,296.6108,1004.9787,297.1733,1014.908,297.0357,1024.8373,297.9136,1034.7666,297.0575,1044.696,296.8892,1054.6253,297.4605,1064.5546,296.5654,1074.4839,296.7131,1084.4132,297.8812,1094.3426,297.6679,1104.2719,297.9667,1114.2012,296.9104,1124.1305,297.5514,1134.0598,297.8226,1143.9892,296.7598,1153.9185,297.1364,1163.8478,297.3582,1173.7771,297.2322,1173.8603,297.4329,1174.1301,297.3774,1174.5432,297.6676,1174.7671,297.501,1175.1049,297.6094,1175.5449,297.9644,1175.7,298.0287,1175.4705,298.2265,1175.9945,298.7365,1176.0479,299.0515,1176.0482,299.3445,1176.2771,299.7322,1175.9233,299.7322,1176.7359,309.2647,1175.9778,318.7971,1176.869,328.3296,1175.7244,337.862,1176.8945,347.3945,1176.7614,356.927,1176.5221,366.4594,1176.2771,375.9919,1176.2917,375.9979,1176.3544,376.4381,1176.1732,376.7773,1175.8899,377.0741,1175.7739,377.4403,1175.5449,377.7596,1175.5283,377.7195,1175.2827,378.1267,1174.8575,378.1002,1174.5062,378.2521,1174.0531,378.1581,1173.7771,378.4919,1173.7771,378.0867,1163.8478,379.0226,1153.9185,378.9216,1143.9892,378.4489,1134.0598,378.1697,1124.1305,378.2729,1114.2012,377.8057,1104.2719,378.9066,1094.3426,379.2314,1084.4132,379.0183,1074.4839,379.1868,1064.5546,378.3552,1054.6253,378.5791,1044.696,378.1043,1034.7666,378.7759,1024.8373,378.7386,1014.908,379.0443,1004.9787,378.2622,995.0494,378.3575,985.1201,378.9353,975.1907,379.0592,965.2614,377.9793,955.3321,378.298,945.4028,378.6411,935.4735,377.881,925.5441,378.8453,915.6148,378.7499,905.6855,378.3911,895.7562,378.6341,885.8269,379.2206,875.8975,378.179,865.9682,378.8069,856.0389,378.7775,846.1096,378.6076,836.1803,378.6328,826.2509,378.6054,816.3216,377.8677,806.3923,378.0911,796.463,378.0303,786.5337,378.5557,776.6043,378.58,766.675,378.6536,756.7457,378.2009,746.8164,378.4244,736.8871,378.3717,726.9577,379.0687,717.0284,378.9184,707.0991,378.0063,697.1698,378.419,687.2405,377.9146,677.3112,378.7803,667.3818,379.1004,657.4525,379.0364,647.5232,378.0563,637.5939,378.9558,627.6646,377.7491,617.7352,378.692,607.8059,378.1926,597.8766,378.5886,587.9473,378.7322,578.018,378.964,568.0886,377.772,558.1593,378.9674,548.23,378.4919,548.2527,378.5467,547.9218,378.4549,547.6183,378.4293,547.17,378.0542,546.8381,377.9601,546.4622,377.7596,546.528,377.7869,546.3765,377.4313,546.1691,377.0524,546.2418,376.7896,545.6887,376.2677,545.73,375.9919,546.2953,375.9919,545.106,366.4594,545.1897,356.927,545.77,347.3945,545.7583,337.862,545.2372,328.3296,546.1437,318.7971,545.8389,309.2647,545.73,299.7322,545.9538,299.8249,546.0819,299.4638,545.8848,298.9679,546.0468,298.6208,546.276,298.3015,546.4622,297.9644,546.5076,298.0739,546.8672,297.9421,547.2078,297.7643,547.4793,297.4198,547.9576,297.5746,548.23,297.2322" style="stroke:#181818;stroke-width:4;"/><text fill="#000000" font-family="Chalkduster" font-size="24" font-style="italic" lengthAdjust="spacing" textLength="152.4862" x="784.7605" y="331.0731">&#171;dataprep&#187;</text><text fill="#000000" font-family="Chalkduster" font-size="24" lengthAdjust="spacing" textLength="598.6134" x="555.73" y="361.7029">&#9881;&#65039; Collection-specific conversion script &#9881;&#65039;</text></g><!--entity 1--><g class="entity" data-entity="1" data-source-line="17" data-uid="ent0006" id="entity_1"><polygon fill="none" points="32.75,567.4922,32.75,567.7024,42.5444,567.0779,52.3388,567.6855,62.1332,567.8919,71.9276,566.7788,81.7221,567.4145,91.5165,567.0657,101.3109,567.1087,111.1053,567.4241,120.8997,566.8008,130.6941,568.0459,140.4885,566.8619,150.2829,567.2944,160.0773,567.9242,169.8717,567.4064,179.6662,567.5604,189.4606,567.4603,199.255,567.4922,199.2777,567.5472,199.639,567.7123,200.0368,567.9655,200.4012,568.1382,200.7558,568.2872,201.0227,568.2244,201.1012,568.2569,201.312,568.6371,201.5319,569.0211,201.24,569.1931,201.8175,569.7252,201.755,569.9922,201.4585,569.9922,202.2888,579.1182,201.26,588.2441,201.6865,597.3701,202.4966,606.4961,201.755,615.622,201.74,615.6158,201.641,615.989,201.5664,616.3723,201.4438,616.7358,201.168,617.0358,201.0227,617.3898,201.0594,617.4783,200.5962,617.36,200.3519,617.7703,200.032,617.998,199.6652,618.1125,199.255,618.122,199.255,618.7351,189.4606,617.639,179.6662,617.4699,169.8717,617.5006,160.0773,618.0632,150.2829,617.9255,140.4885,618.8035,130.6941,617.9474,120.8997,617.779,111.1053,618.3503,101.3109,617.4552,91.5165,617.6029,81.7221,618.771,71.9276,618.5577,62.1332,618.8565,52.3388,617.8002,42.5444,618.4412,32.75,618.122,32.8253,618.3039,32.3362,617.8301,32.0307,617.7996,31.7054,617.7215,31.4189,617.737,30.9822,617.3898,30.9809,617.3893,30.9782,617.0953,30.5188,616.6121,30.3343,616.2428,30.5515,616.0398,30.25,615.622,29.5331,615.622,30.759,606.4961,30.4566,597.3701,29.9821,588.2441,29.8962,579.1182,30.25,569.9922,30.3913,570.0507,30.3043,569.6005,30.7252,569.3606,30.5191,568.861,31.0259,568.6568,30.9822,568.2244,31.044,568.3736,31.367,568.1534,31.6954,567.9461,32.1356,568.0089,32.4747,567.8276,32.75,567.4922" style="stroke:#181818;stroke-width:4;"/><text fill="#000000" font-family="Chalkduster" font-size="24" lengthAdjust="spacing" textLength="151.505" x="40.25" y="601.3331">RO-Crate 1</text></g><!--entity 2--><g class="entity" data-entity="2" data-source-line="18" data-uid="ent0007" id="entity_2"><polygon fill="none" points="239.25,567.4922,239.25,567.7024,248.9851,567.0779,258.7203,567.6855,268.4554,567.8919,278.1905,566.7788,287.9257,567.4145,297.6608,567.0657,307.3959,567.1087,317.1311,567.4241,326.8662,566.8008,336.6013,568.0459,346.3364,566.8619,356.0716,567.2944,365.8067,567.9242,375.5418,567.4064,385.277,567.5604,395.0121,567.4603,404.7472,567.4922,404.77,567.5472,405.1313,567.7123,405.5291,567.9655,405.8935,568.1382,406.2481,568.2872,406.515,568.2244,406.5934,568.2569,406.8042,568.6371,407.0242,569.0211,406.7322,569.1931,407.3097,569.7252,407.2472,569.9922,406.9507,569.9922,407.7811,579.1182,406.7522,588.2441,407.1787,597.3701,407.9888,606.4961,407.2472,615.622,407.2322,615.6158,407.1332,615.989,407.0586,616.3723,406.9361,616.7358,406.6602,617.0358,406.515,617.3898,406.5516,617.4783,406.0884,617.36,405.8442,617.7703,405.5243,617.998,405.1575,618.1125,404.7472,618.122,404.7472,618.7351,395.0121,617.639,385.277,617.4699,375.5418,617.5006,365.8067,618.0632,356.0716,617.9255,346.3364,618.8035,336.6013,617.9474,326.8662,617.779,317.1311,618.3503,307.3959,617.4552,297.6608,617.6029,287.9257,618.771,278.1905,618.5577,268.4554,618.8565,258.7203,617.8002,248.9851,618.4412,239.25,618.122,239.3253,618.3039,238.8362,617.8301,238.5307,617.7996,238.2054,617.7215,237.9189,617.737,237.4822,617.3898,237.4809,617.3893,237.4782,617.0953,237.0188,616.6121,236.8343,616.2428,237.0515,616.0398,236.75,615.622,236.0331,615.622,237.259,606.4961,236.9566,597.3701,236.4821,588.2441,236.3962,579.1182,236.75,569.9922,236.8913,570.0507,236.8043,569.6005,237.2252,569.3606,237.0191,568.861,237.5259,568.6568,237.4822,568.2244,237.544,568.3736,237.867,568.1534,238.1954,567.9461,238.6356,568.0089,238.9747,567.8276,239.25,567.4922" style="stroke:#181818;stroke-width:4;"/><text fill="#000000" font-family="Chalkduster" font-size="24" lengthAdjust="spacing" textLength="150.4972" x="246.75" y="601.3331">RO-Crate 2</text></g><!--entity 3--><g class="entity" data-entity="3" data-source-line="19" data-uid="ent0008" id="entity_3"><polygon fill="none" points="444.75,567.4922,444.75,567.7024,454.6614,567.0779,464.5728,567.6855,474.4842,567.8919,484.3956,566.7788,494.307,567.4145,504.2184,567.0657,514.1299,567.1087,524.0413,567.4241,533.9527,566.8008,543.8641,568.0459,553.7755,566.8619,563.6869,567.2944,573.5983,567.9242,583.5097,567.4064,593.4211,567.5604,603.3325,567.4603,613.2439,567.4922,613.2667,567.5472,613.628,567.7123,614.0257,567.9655,614.3902,568.1382,614.7448,568.2872,615.0117,568.2244,615.0901,568.2569,615.3009,568.6371,615.5208,569.0211,615.2289,569.1931,615.8064,569.7252,615.7439,569.9922,615.4474,569.9922,616.2777,579.1182,615.2489,588.2441,615.6754,597.3701,616.4855,606.4961,615.7439,615.622,615.7289,615.6158,615.6299,615.989,615.5553,616.3723,615.4328,616.7358,615.1569,617.0358,615.0117,617.3898,615.0483,617.4783,614.5851,617.36,614.3409,617.7703,614.021,617.998,613.6542,618.1125,613.2439,618.122,613.2439,618.7351,603.3325,617.639,593.4211,617.4699,583.5097,617.5006,573.5983,618.0632,563.6869,617.9255,553.7755,618.8035,543.8641,617.9474,533.9527,617.779,524.0413,618.3503,514.1299,617.4552,504.2184,617.6029,494.307,618.771,484.3956,618.5577,474.4842,618.8565,464.5728,617.8002,454.6614,618.4412,444.75,618.122,444.8253,618.3039,444.3362,617.8301,444.0307,617.7996,443.7054,617.7215,443.4189,617.737,442.9822,617.3898,442.9809,617.3893,442.9782,617.0953,442.5188,616.6121,442.3343,616.2428,442.5515,616.0398,442.25,615.622,441.5331,615.622,442.759,606.4961,442.4566,597.3701,441.9821,588.2441,441.8962,579.1182,442.25,569.9922,442.3913,570.0507,442.3043,569.6005,442.7252,569.3606,442.5191,568.861,443.0259,568.6568,442.9822,568.2244,443.044,568.3736,443.367,568.1534,443.6954,567.9461,444.1356,568.0089,444.4747,567.8276,444.75,567.4922" style="stroke:#181818;stroke-width:4;"/><text fill="#000000" font-family="Chalkduster" font-size="24" lengthAdjust="spacing" textLength="153.4939" x="452.25" y="601.3331">RO-Crate 3</text></g><!--entity n--><g class="entity" data-entity="n" data-source-line="20" data-uid="ent0009" id="entity_n"><polygon fill="none" points="653.2,567.4922,653.2,567.7024,663.1769,567.0779,673.1539,567.6855,683.1308,567.8919,693.1077,566.7788,703.0846,567.4145,713.0616,567.0657,723.0385,567.1087,733.0154,567.4241,742.9923,566.8008,752.9693,568.0459,762.9462,566.8619,772.9231,567.2944,782.9,567.9242,792.877,567.4064,802.8539,567.5604,812.8308,567.4603,822.8077,567.4922,822.8305,567.5472,823.1918,567.7123,823.5896,567.9655,823.954,568.1382,824.3086,568.2872,824.5755,568.2244,824.6539,568.2569,824.8647,568.6371,825.0847,569.0211,824.7928,569.1931,825.3702,569.7252,825.3077,569.9922,825.0112,569.9922,825.8416,579.1182,824.8127,588.2441,825.2392,597.3701,826.0493,606.4961,825.3077,615.622,825.2927,615.6158,825.1937,615.989,825.1191,616.3723,824.9966,616.7358,824.7208,617.0358,824.5755,617.3898,824.6121,617.4783,824.1489,617.36,823.9047,617.7703,823.5848,617.998,823.218,618.1125,822.8077,618.122,822.8077,618.7351,812.8308,617.639,802.8539,617.4699,792.877,617.5006,782.9,618.0632,772.9231,617.9255,762.9462,618.8035,752.9693,617.9474,742.9923,617.779,733.0154,618.3503,723.0385,617.4552,713.0616,617.6029,703.0846,618.771,693.1077,618.5577,683.1308,618.8565,673.1539,617.8002,663.1769,618.4412,653.2,618.122,653.2753,618.3039,652.7862,617.8301,652.4807,617.7996,652.1554,617.7215,651.8689,617.737,651.4322,617.3898,651.4309,617.3893,651.4282,617.0953,650.9688,616.6121,650.7843,616.2428,651.0015,616.0398,650.7,615.622,649.9831,615.622,651.209,606.4961,650.9066,597.3701,650.4321,588.2441,650.3462,579.1182,650.7,569.9922,650.8413,570.0507,650.7543,569.6005,651.1752,569.3606,650.9691,568.861,651.4759,568.6568,651.4322,568.2244,651.494,568.3736,651.817,568.1534,652.1454,567.9461,652.5856,568.0089,652.9247,567.8276,653.2,567.4922" style="stroke:#181818;stroke-width:4;"/><text fill="#000000" font-family="Chalkduster" font-size="24" lengthAdjust="spacing" textLength="154.6077" x="660.7" y="601.3331">RO-Crate n</text></g><!--entity p--><g class="entity" data-entity="p" data-source-line="15" data-uid="ent0004" id="entity_p"><polygon fill="none" points="1133.0492,90.5481,1131.8765,92.1504,1130.4895,94.4973,1128.5058,96.0789,1126.4212,96.9437,1124.7592,97.0188,1122.6229,95.9372,1120.6073,95.2305,1119.0774,93.7958,1118.2748,92.1533,1117.7989,90.8455,1117.3327,89.1373,1116.5759,87.6673,1117.1574,86.232,1117.6669,84.6598,1119.579,83.4164,1120.9242,81.803,1122.5893,81.2673,1124.5687,80.8059,1127.1071,81.08,1128.4974,81.7357,1130.1138,82.0329,1132.0793,84.0466,1132.7644,86.1724,1133.0621,87.6228,1132.7249,90.013" style="stroke:#8B0000;stroke-width:4;"/><path d="M1125.005,96.6022 L1125.1918,96.6022 L1124.6367,102.0022 L1125.1768,107.4022 L1125.3602,112.8022 L1124.3708,118.2022 L1125.005,123.6022 M1112.005,104.6022 L1112.005,104.5331 L1117.205,104.2231 L1122.405,104.2613 L1127.605,104.5416 L1132.805,103.9877 L1138.005,104.6022 M1125.005,123.6022 L1125.3769,123.9245 L1121.9816,126.2353 L1119.6721,129.4871 L1117.4951,132.8537 L1114.5474,135.5523 L1112.005,138.6022 M1125.005,123.6022 L1125.0508,123.6419 L1127.5835,126.5836 L1130.3249,129.7061 L1132.9656,132.7414 L1135.7984,135.9432 L1138.005,138.6022" fill="none" style="stroke:#8B0000;stroke-width:4;"/><text fill="#000000" font-family="Chalkduster" font-size="24" lengthAdjust="spacing" textLength="168.6099" x="1040.7" y="167.4431">Programmer</text></g><!--link 1 to 2--><!--link 2 to 3--><!--link 3 to n--><!--link p to ct--><g class="link" data-entity-1="p" data-entity-2="ct" data-source-line="26" data-uid="lnk13" id="link_p_ct"><path d="M1123.08,174.5822 L1123.1725,174.5955 L1122.5628,176.8883 L1122.4952,179.2589 L1122.2511,181.6042 L1121.4266,183.8661 L1121.4055,186.2434 L1121.3716,186.2369 L1120.7549,188.633 L1120.3093,191.0618 L1119.9825,193.5134 L1119.2461,195.8865 L1119.0834,198.3696 L1119.3222,198.4289 L1118.1978,200.7714 L1117.7706,203.2872 L1117.4285,205.8241 L1116.5914,208.2381 L1116.0146,210.7167 L1116.0436,210.7259 L1115.2182,213.1772 L1114.5244,215.6704 L1113.7672,218.1434 L1113.131,220.6549 L1112.1,223.041 L1112.3766,223.1525 L1111.4081,225.5653 L1110.2611,227.9063 L1109.3753,230.3525 L1108.5018,232.8037 L1107.2404,235.0985 L1106.955,234.9526 L1106.3281,237.5452 L1104.7615,239.6573 L1103.9093,242.1347 L1102.3214,244.2359 L1101.3366,246.6455 L1101.3111,246.6288 L1100.2031,248.9842 L1098.4996,250.9507 L1097.1475,253.1466 L1095.8249,255.3618 L1094.2895,257.438 L1094.4307,257.5575 L1092.6303,259.3957 L1091.0711,261.4382 L1089.1216,263.1502 L1087.7544,265.355 L1086,267.2322 L1086.1712,267.4055 L1084.5236,268.9686 L1082.961,270.6177 L1081.0034,271.867 L1079.3353,273.4093 L1077.9238,275.2114 L1077.7428,275.0028 L1076.3586,276.5351 L1074.7704,277.8323 L1073.4782,279.4705 L1071.6807,280.5266 L1070.1836,281.9287 L1070.0939,281.8054 L1068.5835,283.2188 L1066.6896,284.1053 L1065.0684,285.3665 L1063.7142,286.9943 L1061.8846,287.9692 L1061.9855,288.1345 L1060.1041,289.4376 L1057.9092,290.2265 L1056.107,291.6594 L1054.2193,292.952 L1052.1322,293.9177" fill="none" style="stroke:#8B0000;stroke-width:4;"/><polygon fill="#8B0000" points="1046.91,296.8722,1046.9168,296.9419,1048.8573,296.5447,1050.8374,296.5562,1052.8046,296.4346,1054.7294,295.8753,1056.7129,295.9219,1056.706,295.8969,1055.5847,295.4826,1054.4983,295.194,1053.4362,294.9929,1052.2904,294.4904,1051.2618,294.4101,1051.4396,294.4594,1051.3617,293.2638,1051.803,292.2121,1052.3076,291.1779,1052.4437,290.0416,1052.7736,288.959,1052.7918,288.9726,1051.5923,290.5353,1050.476,292.1597,1049.3195,293.7544,1048.2396,295.4058,1046.91,296.8722" style="stroke:#8B0000;stroke-width:4;"/><text fill="#000000" font-family="Chalkduster" font-size="24" lengthAdjust="spacing" textLength="156.7293" x="1118.53" y="244.5731">Write script</text></g><!--link data to ct--><g class="link" data-entity-1="data" data-entity-2="ct" data-source-line="27" data-uid="lnk15" id="link_data_ct"><path d="M588.94,151.2022 L589.0299,151.2276 L588.0614,153.6345 L587.6199,156.1902 L587.0068,158.6974 L585.8294,161.0452 L585.4331,163.6138 L585.3994,163.6062 L584.6188,166.363 L584.008,169.1581 L583.5153,171.9798 L582.6157,174.7098 L582.2861,177.5683 L582.5292,177.6065 L581.5378,180.5299 L581.2561,183.5647 L581.061,186.613 L580.3621,189.5823 L579.9282,192.5932 L579.9585,192.5955 L579.6862,195.7168 L579.5516,198.8481 L579.3505,201.9746 L579.2763,205.1104 L578.7888,208.216 L579.0868,208.2256 L579.1921,211.3753 L579.1051,214.5188 L579.2996,217.6713 L579.5072,220.8243 L579.2969,223.9638 L578.9808,223.9108 L580.1114,227.0938 L580.201,230.1022 L581.082,233.2434 L581.148,236.2477 L581.882,239.3642 L581.8533,239.3542 L583.2115,242.389 L583.8981,245.1892 L584.981,248.1279 L586.0971,251.0781 L586.9733,253.9446 L587.1316,254.0402 L588.5772,256.6012 L590.2932,259.3256 L591.5716,261.7856 L593.5028,264.64 L595,267.2322 L595.1763,267.4004 L596.6468,268.9453 L598.2047,270.5737 L599.356,271.8143 L600.8054,273.3391 L602.5189,275.1159 L602.3596,274.8903 L604.477,276.488 L606.4149,277.8315 L608.6131,279.5436 L610.3668,280.6263 L612.3847,282.0831 L612.3162,281.9469 L614.9851,283.4592 L617.3611,284.3893 L619.9454,285.7334 L622.7335,287.4826 L625.1587,288.5104 L625.2284,288.691 L628.5248,290.0677 L631.6046,290.8824 L634.9557,292.401 L638.2477,293.7662 L641.402,294.7741" fill="none" style="stroke:#8B0000;stroke-width:4;"/><polygon fill="#8B0000" points="647.07,296.7422,647.1179,296.7934,645.5376,295.2952,644.2381,294.0969,642.8471,292.8009,641.1555,291.1839,639.8801,290.0113,639.8567,290,640.2454,290.9675,640.7517,291.9919,641.3396,293.0559,641.6459,293.9835,642.3466,295.1021,642.4271,295.2682,641.2369,295.4064,640.2816,296.0294,639.355,296.7116,638.2616,297.0496,637.2559,297.5687,637.2578,297.5914,639.2178,297.3928,641.1865,297.2974,643.151,297.1522,645.1236,297.1021,647.07,296.7422" style="stroke:#8B0000;stroke-width:4;"/><text fill="#000000" font-family="Chalkduster" font-size="24" lengthAdjust="spacing" textLength="284.8442" x="696.4552" y="229.0731">Convert to RO-Crate</text><text fill="#000000" font-family="Chalkduster" font-size="24" lengthAdjust="spacing" textLength="485.7547" x="596" y="259.7029">(using Language Commons profile)</text></g><!--link ct to repo--><g class="link" data-entity-1="ct" data-entity-2="repo" data-source-line="28" data-uid="lnk16" id="link_ct_repo"><path d="M861,378.9422 L861.2802,378.9422 L860.4476,389.3187 L861.2577,399.6952 L861.5329,410.0717 L860.0488,420.4481 L860.8964,430.8246 L861,441.2011 L860.8104,441.2011 L860.8296,444.6676 L860.9697,448.134 L860.6927,451.6005 L861.2461,455.067 L861,458.5334 L860.7199,458.5334 L860.9121,459.406 L861.192,460.2785 L860.9619,461.151 L861.0303,462.0236 L861,462.8961 L860.9858,462.8961 L861.0793,461.9143 L861.1063,460.9326 L861.2603,459.9508 L861.2982,458.9691 L861,457.9873" fill="none" style="stroke:#8B0000;stroke-width:4;"/><polygon fill="#8B0000" points="861,463.9873,861.064,464.0158,861.6738,462.1312,862.6589,460.4135,863.5217,458.6414,863.9827,456.6907,865,454.9873,864.9817,454.969,864.0995,455.6868,863.3096,456.4969,862.5839,457.3713,861.637,458.0244,861,458.9873,861.1305,459.1178,860.0514,458.0388,859.3534,457.3407,858.7018,456.6891,857.7798,455.7671,857,454.9873,857.0208,454.9966,857.7903,456.783,858.6544,458.6115,859.4728,460.4197,860.3784,462.2666,861,463.9873" style="stroke:#8B0000;stroke-width:4;"/><text fill="#000000" font-family="Chalkduster" font-size="24" lengthAdjust="spacing" textLength="144.4243" x="862" y="433.3331">Write data</text></g><!--SRC=[TP8nJWCn44NxFSMG2We79UcYQ2K8eee4IaC121clix7a7Lks5uWYEWegAAY2a59n1yx31SWH67iJ58fOccB_dtqp-dPGGSi-7FCWfamRNYWieU21Wy9WO7J2XqVPdaAXwqBUL1ndq6uVnWP67xoKbSJ0V9XfsGuF8QFZf0WSIosXjLg-FLCzKNq0d1fTIEV1JC0uLIhakXcrMhvyKYrQm7sZpBFiyH_f-ttny_KAGwCrYSeWyrOADL42XC4xmf86NZXb0woRMp0OH9frqkPvP8km9dCHZ8FMkJEburKbNHfjizX-opqD74jhlAAkMR88OGZd_bG2pZEWixNa-8mD7GyIEkcVpaw_c_pkJh-N_DvE7vEFoUy0kvogef1udQ-HtMsfeVIs9OmHM625kKUMnrJwSE4KWPi0Cr86hBQikOm-nHuZ3a0lOhF35UxNFZwM4IrNqqEWfgeoI2awCr5Q7aJAPaIARpCaGRDV]--></g></svg>