<?xml version="1.0" encoding="us-ascii" standalone="no"?><svg xmlns="http://www.w3.org/2000/svg" xmlns:xlink="http://www.w3.org/1999/xlink" contentStyleType="text/css" height="565px" preserveAspectRatio="none" style="width:1141px;height:565px;background:#FFFFFF;" version="1.1" viewBox="0 0 1141 565" width="1141px" zoomAndPan="magnify"><defs/><g><text fill="#000000" font-family="Chalkduster" font-size="42" font-weight="bold" lengthAdjust="spacing" textLength="1113" x="10" y="51.7215">Batch-loading data into LDaCA, simplest view</text><!--entity data--><g id="elem_data"><polygon fill="none" points="171.75,81.6022,171.75,81.8124,181.6929,81.1879,191.6357,81.7955,201.5786,82.0019,211.5214,80.8888,221.4643,81.5245,231.4071,81.1757,241.35,81.2187,251.2929,81.5341,261.2357,80.9108,271.1786,82.1559,281.1214,80.9719,291.0643,81.4044,301.0071,82.0342,310.95,81.5164,320.8929,81.6704,330.8357,81.5703,340.7786,81.7807,350.7214,81.8413,360.6643,82.1879,370.6071,82.2733,380.55,82.2815,390.4929,81.8568,400.4357,82.0658,410.3786,82.3044,420.3214,80.881,430.2643,82.2807,440.2071,81.3057,450.15,82.136,460.0929,81.1072,470.0357,81.5337,479.9786,82.3438,489.9214,81.5535,499.8643,81.7075,509.8071,81.9408,519.75,81.6022,519.8031,81.7304,520.1031,81.7475,520.4937,81.9836,520.7376,81.8653,521.2005,82.2756,521.5178,82.3344,521.6866,82.4044,521.8011,82.7447,521.9994,83.1197,521.8083,83.3335,521.9027,83.6655,522.25,84.1022,521.6286,84.1022,522.1911,93.2282,522.0535,102.3541,522.9314,111.4801,522.0753,120.6061,522.25,129.732,522.1444,129.6883,522.1739,130.1147,521.7517,130.3541,521.6508,130.7265,521.8641,131.229,521.5178,131.4998,521.5733,131.634,521.2579,131.8725,520.7696,131.6936,520.4978,132.0375,520.1789,132.2674,519.75,132.232,519.75,131.7596,509.8071,132.1362,499.8643,132.358,489.9214,132.8838,479.9786,132.2279,470.0357,132.6946,460.0929,131.6783,450.15,131.5548,440.2071,132.7357,430.2643,131.5151,420.3214,132.741,410.3786,132.4387,400.4357,131.9641,390.4929,131.8783,380.55,132.6908,370.6071,131.9327,360.6643,132.8239,350.7214,131.6793,340.7786,132.8495,330.8357,132.7163,320.8929,132.477,310.95,132.2793,301.0071,132.9587,291.0643,132.8456,281.1214,132.4013,271.1786,132.5002,261.2357,132.1018,251.2929,132.9485,241.35,132.3869,231.4071,132.4046,221.4643,131.6237,211.5214,131.8268,201.5786,132.7628,191.6357,132.6618,181.6929,132.1891,171.75,132.232,171.7089,132.1328,171.3685,132.0182,170.9554,131.7278,170.7422,131.9204,170.4301,131.874,169.9822,131.4998,170.1443,131.567,170.0498,131.2349,169.6472,130.7753,169.5698,130.4503,169.2771,130.0362,169.25,129.732,169.534,129.732,169.4968,120.6061,169.8024,111.4801,169.0203,102.3541,169.1156,93.2282,169.25,84.1022,169.3866,84.1588,169.5712,83.821,169.3851,83.3297,169.6296,83.0168,169.8818,82.707,169.9822,82.3344,169.9043,82.1463,170.3809,82.2968,170.7222,82.121,171.03,81.8641,171.4146,81.7925,171.75,81.6022" style="stroke:#181818;stroke-width:4.0;"/><text fill="#000000" font-family="Chalkduster" font-size="24" lengthAdjust="spacing" textLength="333" x="179.25" y="115.4431">&#128200;&#128196;&#128220; Original Data &#127909;&#127897;</text></g><!--entity ct--><g id="elem_ct"><polygon fill="#FFE4E1" points="313.25,285.2322,313.25,285.4424,323.2689,284.8179,333.2877,285.4255,343.3066,285.6319,353.3255,284.5188,363.3443,285.1545,373.3632,284.8057,383.3821,284.8487,393.4009,285.1641,403.4198,284.5408,413.4387,285.7859,423.4575,284.6019,433.4764,285.0344,443.4953,285.6642,453.5142,285.1464,463.533,285.3004,473.5519,285.2003,483.5708,285.4107,493.5896,285.4713,503.6085,285.8179,513.6274,285.9033,523.6462,285.9115,533.6651,285.4868,543.684,285.6958,553.7028,285.9344,563.7217,284.511,573.7406,285.9107,583.7594,284.9357,593.7783,285.766,603.7972,284.7372,613.816,285.1637,623.8349,285.9738,633.8538,285.1835,643.8726,285.3375,653.8915,285.5708,663.9104,285.6484,673.9292,285.2283,683.9481,285.5194,693.967,284.6598,703.9858,285.5166,714.0047,285.7804,724.0236,285.6767,734.0425,285.8452,744.0613,284.7491,754.0802,284.58,764.0991,284.6108,774.1179,285.1733,784.1368,285.0357,794.1557,285.9136,804.1745,285.0575,814.1934,284.8892,824.2123,285.4605,834.2311,284.5654,844.25,285.2322,844.1838,285.0723,844.6863,285.5785,845.0127,285.6593,845.4044,285.8977,845.6232,285.7189,846.0178,285.9644,846.1161,286.0052,846.346,286.3933,846.1652,286.6113,846.4276,287.0129,846.6424,287.3947,846.75,287.7322,847.4018,287.7322,846.7458,297.2647,847.2126,306.7971,846.1962,316.3296,846.0727,325.862,847.2536,335.3945,846.0331,344.927,847.259,354.4594,846.75,363.9919,846.8136,364.0182,846.521,364.3113,846.3482,364.6539,846.4519,365.1111,846.072,365.3679,846.0178,365.7596,846.0933,365.9419,845.5937,365.7359,845.3894,366.2427,845.0189,366.3481,844.6348,366.4209,844.25,366.4919,844.25,366.5391,834.2311,367.2185,824.2123,367.1055,814.1934,366.6611,804.1745,366.7601,794.1557,366.3616,784.1368,367.2083,774.1179,366.6467,764.0991,366.6645,754.0802,365.8835,744.0613,366.0867,734.0425,367.0226,724.0236,366.9216,714.0047,366.4489,703.9858,366.1697,693.967,366.2729,683.9481,365.8057,673.9292,366.9066,663.9104,367.2314,653.8915,367.0183,643.8726,367.1868,633.8538,366.3552,623.8349,366.5791,613.816,366.1043,603.7972,366.7759,593.7783,366.7386,583.7594,367.0443,573.7406,366.2622,563.7217,366.3575,553.7028,366.9353,543.684,367.0592,533.6651,365.9793,523.6462,366.298,513.6274,366.6411,503.6085,365.881,493.5896,366.8453,483.5708,366.7499,473.5519,366.3911,463.533,366.6341,453.5142,367.2206,443.4953,366.179,433.4764,366.8069,423.4575,366.7775,413.4387,366.6076,403.4198,366.6328,393.4009,366.6054,383.3821,365.8677,373.3632,366.0911,363.3443,366.0303,353.3255,366.5557,343.3066,366.58,333.2877,366.6536,323.2689,366.2009,313.25,366.4919,313.2414,366.4711,312.8811,366.3084,312.6165,366.3766,312.2438,366.1839,311.7739,365.7566,311.4822,365.7596,311.4598,365.7503,311.158,365.3325,311.2782,365.0893,311.2303,364.7766,311.0642,364.4149,310.75,363.9919,310.3144,363.9919,311.214,354.4594,310.0072,344.927,310.9502,335.3945,310.4507,325.862,310.8467,316.3296,310.9903,306.7971,311.2221,297.2647,310.75,287.7322,310.5283,287.6404,311.0429,287.4393,311.0978,287.0478,311.2988,286.7169,311.5661,286.4134,311.4822,285.9644,311.4829,285.9661,311.8581,285.872,312.2166,285.7373,312.5681,285.5858,312.8963,285.3784,313.25,285.2322" style="stroke:#181818;stroke-width:4.0;"/><text fill="#000000" font-family="Chalkduster" font-size="24" font-style="italic" lengthAdjust="spacing" textLength="175" x="491.25" y="319.0731">&#171;workspace&#187;</text><text fill="#000000" font-family="Chalkduster" font-size="24" lengthAdjust="spacing" textLength="504" x="320.75" y="349.7029">&#9881;&#65039; 'Corpus Tool' conversion code &#9881;&#65039;</text></g><!--entity repo--><g id="elem_repo"><path d="M456.75,468.4922 L456.75,468.4922 L456.7771,468.5816 L460.5091,467.1597 L464.3999,466.2619 L468.2391,465.1935 L471.908,463.5638 L475.8125,462.711 L475.8094,462.6766 L479.7031,462.1667 L483.6127,461.8303 L487.5332,461.6144 L491.4159,460.9831 L495.3516,460.9336 L495.3663,461.1792 L497.5389,460.5217 L499.7545,460.5812 L501.9754,460.7283 L504.1657,460.3663 L506.3721,460.272 L506.3735,460.3023 L508.647,460.1519 L510.9269,460.1393 L513.2038,460.0603 L515.4865,460.1082 L517.75,459.7422 L517.7596,460.0403 L522.2394,459.8994 L526.713,459.5663 L531.1957,459.5145 L535.6788,459.476 L540.1484,459.0196 L540.1424,458.6991 L544.062,459.2468 L547.9616,458.7394 L551.8764,459.0341 L555.7755,458.5027 L559.6875,458.6485 L559.6873,458.618 L563.5027,458.9468 L567.3123,458.5643 L571.1254,458.6015 L574.9387,458.674 L578.75,458.4922 L578.75,458.4922 L578.7515,458.6772 L582.5625,458.5217 L586.376,458.6824 L590.1854,458.3316 L594.001,458.7436 L597.8125,458.6485 L597.8171,458.8921 L601.7241,458.9202 L605.6333,459.0693 L609.5319,458.6565 L613.4382,458.6555 L617.3516,459.0196 L617.3427,458.7435 L621.8304,459.1379 L626.3081,459.2213 L630.8004,459.7558 L635.2678,459.5201 L639.75,459.7422 L639.7429,459.5899 L642.0303,459.9495 L644.2874,459.6581 L646.566,459.8296 L648.8658,460.4541 L651.1279,460.272 L651.1395,460.4653 L653.3516,460.7302 L655.5276,460.3939 L657.7487,460.8106 L659.9601,461.0632 L662.1484,460.9336 L662.1294,460.7245 L666.0524,461.2467 L669.9691,461.7003 L673.8981,462.2885 L677.7795,462.3536 L681.6875,462.711 L681.7472,462.9077 L685.4286,463.6317 L689.2251,464.7354 L693.19,466.3939 L696.845,467.031 L700.75,468.4922 L702.1072,468.4922 L701.301,478.5293 L700.0356,488.5664 L699.8066,498.6035 L701.9734,508.6406 L699.9518,518.6777 L702.3283,528.7148 L700.75,538.7519 L700.75,538.7519 L700.6787,538.5168 L697.0171,540.1707 L693.1875,541.2704 L689.3441,542.3248 L685.5061,543.397 L681.6875,544.5331 L681.7168,544.8547 L677.8044,545.1602 L673.8787,545.319 L669.9749,545.7182 L666.051,545.8973 L662.1484,546.3105 L662.1675,546.6283 L659.9485,546.5115 L657.7448,546.6517 L655.5199,546.4376 L653.3212,546.66 L651.1279,546.9721 L651.1389,547.2077 L648.8612,547.2688 L646.5759,547.1649 L644.2945,547.1469 L642.0211,547.2987 L639.75,547.5019 L639.7402,547.1971 L635.2763,547.8306 L630.8012,548.1195 L626.3185,548.1693 L621.8412,548.3887 L617.3516,548.2245 L617.3504,548.1638 L613.4445,548.3375 L609.5327,548.2007 L605.6305,548.5734 L601.7224,548.6311 L597.8125,548.5956 L597.8145,548.8411 L593.9992,548.5248 L590.187,548.5984 L586.3766,548.8865 L582.5646,548.9728 L578.75,548.7519 L578.75,548.7519 L578.7481,548.5241 L574.9368,548.6345 L571.1255,548.7557 L567.3103,548.3866 L563.5013,548.7839 L559.6875,548.5956 L559.6897,548.7103 L555.7788,548.4766 L551.8731,548.5104 L547.9702,548.6968 L544.0536,548.1597 L540.1484,548.2245 L540.153,548.3645 L535.6728,548.2069 L531.1907,547.9869 L526.7114,547.8535 L522.2313,547.6968 L517.75,547.5019 L517.7371,547.2248 L515.4661,547.218 L513.1893,547.0851 L510.9246,547.2123 L508.6495,547.1172 L506.3721,546.9721 L506.3764,547.0439 L504.1602,546.7107 L501.9621,546.6775 L499.7566,546.5218 L497.571,546.6987 L495.3516,546.3105 L495.3687,546.4993 L491.4242,545.7401 L487.533,545.5673 L483.6049,544.9886 L479.7319,545.0162 L475.8125,544.5331 L475.891,544.7919 L472.0702,543.6085 L468.1313,542.0354 L464.4348,541.2617 L460.4667,539.5922 L456.75,538.7519 L457.2837,538.7519 L455.9518,528.7148 L457.0079,518.6777 L457.3909,508.6406 L458.0089,498.6035 L454.8302,488.5664 L458.0179,478.5293 L456.75,468.4922 " fill="#98FB98" style="stroke:#181818;stroke-width:4.0;"/><path d="M456.75,468.4922 L456.75,468.4922 L456.7771,468.5816 L460.5091,469.4722 L464.3999,470.8869 L468.2391,472.131 L471.908,472.8138 L475.8125,474.2735 L475.8094,474.2391 L479.7031,474.4402 L483.6127,474.8147 L487.5332,475.3097 L491.4159,475.3893 L495.3516,476.0508 L495.3663,476.2964 L497.5389,475.9035 L499.7545,476.2277 L501.9754,476.6394 L504.1657,476.542 L506.3721,476.7124 L506.3735,476.7427 L508.647,476.8042 L510.9269,477.0036 L513.2038,477.1365 L515.4865,477.3963 L517.75,477.2422 L517.7596,477.5403 L522.2394,477.6885 L526.713,477.6444 L531.1957,477.8817 L535.6788,478.1323 L540.1484,477.9649 L540.1424,477.6444 L544.062,478.3406 L547.9616,477.9815 L551.8764,478.4247 L555.7755,478.0418 L559.6875,478.336 L559.6873,478.3055 L563.5027,478.6968 L567.3123,478.3768 L571.1254,478.4765 L574.9387,478.6115 L578.75,478.4922 L578.75,478.4922 L578.7515,478.6772 L582.5625,478.4592 L586.376,478.5574 L590.1854,478.1441 L594.001,478.4936 L597.8125,478.336 L597.8171,478.5796 L601.7241,478.4593 L605.6333,478.4599 L609.5319,477.8986 L613.4382,477.7493 L617.3516,477.9649 L617.3427,477.6888 L621.8304,477.7942 L626.3081,477.5885 L630.8004,477.834 L635.2678,477.3091 L639.75,477.2422 L639.7429,477.0899 L642.0303,477.2376 L644.2874,476.7342 L646.566,476.6939 L648.8658,477.1065 L651.1279,476.7124 L651.1395,476.9057 L653.3516,476.906 L655.5276,476.305 L657.7487,476.4571 L659.9601,476.4451 L662.1484,476.0508 L662.1294,475.8417 L666.0524,475.6529 L669.9691,475.3956 L673.8981,475.2729 L677.7795,474.6271 L681.6875,474.2735 L681.7472,474.4702 L685.4286,472.8817 L689.2251,471.6729 L693.19,471.0189 L696.845,469.3435 L700.75,468.4922 " fill="none" style="stroke:#181818;stroke-width:4.0;"/><text fill="#000000" font-family="Chalkduster" font-size="24" font-style="italic" lengthAdjust="spacing" textLength="169" x="494.25" y="506.3331">&#171;repository&#187;</text><text fill="#000000" font-family="Chalkduster" font-size="24" lengthAdjust="spacing" textLength="224" x="466.75" y="536.9629">OCFL Repository</text></g><g id="elem_GMN4"><path d="M645.75,86.6022 L645.9368,86.6022 L645.3817,94.7282 L645.9218,102.8541 L646.1053,110.9801 L645.1159,119.1061 L645.75,127.232 L645.75,127.0248 L655.8106,126.0947 L665.8712,126.2094 L675.9318,127.0503 L685.9924,125.3884 L696.053,128.7084 L706.1136,125.5513 L716.1742,126.7047 L726.2348,128.3839 L736.2955,127.0033 L746.3561,127.414 L756.4167,127.1469 L766.4773,127.7081 L776.5379,127.8697 L786.5985,128.7939 L796.6591,129.0215 L806.7197,129.0434 L816.7803,127.911 L826.8409,128.4683 L836.9015,129.1047 L846.9621,125.3089 L857.0227,129.0414 L867.0833,126.4414 L877.1439,128.6555 L887.2045,125.912 L897.2652,127.0494 L907.3258,129.2097 L917.3864,127.1021 L927.447,127.5128 L937.5076,128.1351 L947.5682,128.342 L957.6288,127.2216 L967.6894,127.9979 L977.75,127.232 L977.2412,127.232 L978.0028,121.1061 L978.2373,114.9801 L978.1451,108.8541 L978.2949,102.7282 L977.75,96.6022 L977.4464,96.2986 L975.3401,94.1923 L973.3594,92.2116 L971.713,90.5652 L969.6265,88.4787 L967.75,86.6022 L967.75,88.4193 L957.6875,86.1364 L947.625,85.6874 L937.5625,87.2109 L927.5,84.824 L917.4375,85.2179 L907.375,88.3327 L897.3125,87.764 L887.25,88.5609 L877.1875,85.7441 L867.125,87.4534 L857.0625,88.1767 L847,85.3425 L836.9375,86.3466 L826.875,86.9382 L816.8125,88.3402 L806.75,86.591 L796.6875,87.8357 L786.625,85.1254 L776.5625,84.7962 L766.5,87.9452 L756.4375,84.6904 L746.375,87.9594 L736.3125,87.1532 L726.25,85.8878 L716.1875,85.6588 L706.125,87.8256 L696.0625,85.804 L686,88.1805 L675.9375,85.1282 L665.875,88.2487 L655.8125,87.8937 L645.75,86.6022 " fill="#FFFFE0" style="stroke:#181818;stroke-width:4.0;"/><path d="M967.75,86.6022 L967.9368,86.6022 L967.3817,88.6022 L967.9218,90.6022 L968.1053,92.6022 L967.1159,94.6022 L967.75,96.6022 L967.75,96.5331 L969.75,96.2231 L971.75,96.2613 L973.75,96.5416 L975.75,95.9877 L977.75,96.6022 L978.098,96.9502 L975.3538,94.2061 L973.6257,92.4779 L972.0215,90.8737 L969.6961,88.5483 L967.75,86.6022 " fill="#FFFFE0" style="stroke:#181818;stroke-width:1.0;"/><text fill="#000000" font-family="Chalkduster" font-size="24" lengthAdjust="spacing" textLength="311" x="651.75" y="115.4431">Tool is corpus specific</text></g><!--link GMN4 to ct--><g id="link_GMN4_ct"><path d="M814.78,127.6822 L814.873,127.6909 L814.8386,130.2415 L815.3495,132.8433 L815.6828,135.4285 L815.4322,137.9588 L815.9899,140.565 L815.9554,140.5634 L815.9407,143.556 L816.1,146.5567 L816.3803,149.5631 L816.2438,152.55 L816.6909,155.5642 L816.937,155.5668 L816.3762,158.8603 L816.5338,162.1612 L816.779,165.4632 L816.5143,168.7597 L816.5178,172.0591 L816.548,172.0615 L816.2211,175.5318 L816.0317,179.0133 L815.776,182.4893 L815.647,185.9757 L815.105,189.4285 L815.399,189.4788 L814.799,193.004 L814.0094,196.4968 L813.4974,200.037 L812.9984,203.5795 L812.0872,207.0514 L811.7793,206.9624 L811.3793,210.5863 L809.9654,213.9171 L809.3222,217.4707 L807.8853,220.7948 L807.0991,224.3071 L807.0713,224.2946 L805.9348,227.6958 L804.1497,230.8051 L802.7474,234.0866 L801.3771,237.3826 L799.7751,240.5743 L799.9278,240.6787 L797.7687,243.5049 L795.8704,246.5095 L793.5501,249.2254 L791.8594,252.372 L789.75,255.2322 L789.9291,255.3974 L788.3301,257.0626 L786.8201,258.8098 L784.8969,260.1759 L783.2766,261.8214 L781.9245,263.7144 L781.7384,263.5104 L780.2047,265.2486 L778.4613,266.757 L777.0222,268.5988 L775.0636,269.8713 L773.4137,271.4822 L773.3202,271.3618 L771.6535,272.9794 L769.5868,274.0824 L767.8045,275.5513 L766.3007,277.3782 L764.3011,278.5675 L764.4087,278.7285 L762.5562,280.1259 L760.3692,281.0225 L758.6012,282.5463 L756.742,283.9335 L754.67,285.0022 " fill="none" style="stroke:#8B0000;stroke-width:4.0;stroke-dasharray:7.0,7.0;"/></g><!--link data to ct--><g id="link_data_ct"><path d="M335.82,132.6122 L335.909,132.6406 L334.8197,135.1404 L334.2522,137.8066 L333.5147,140.4186 L332.2186,142.8524 L331.6959,145.5329 L331.6624,145.5242 L330.7498,148.4091 L330.0056,151.3379 L329.3785,154.2972 L328.3478,157.1513 L327.8825,160.1528 L328.1242,160.1989 L327.004,163.263 L326.5896,166.4617 L326.2612,169.6768 L325.4319,172.7964 L324.866,175.9662 L324.8962,175.9694 L324.5052,179.2649 L324.2515,182.5749 L323.9316,185.8779 L323.7381,189.1942 L323.1325,192.4672 L323.4307,192.4678 L323.4415,195.8044 L323.2599,199.1406 L323.3599,202.4774 L323.473,205.8142 L323.168,209.1501 L322.8506,209.1057 L323.9248,212.4637 L323.9538,215.6754 L324.7774,218.9984 L324.7827,222.2068 L325.4588,225.5091 L325.4298,225.4997 L326.7787,228.7165 L327.4509,231.7141 L328.5224,234.8411 L329.6275,237.9789 L330.4907,241.0384 L330.6506,241.1314 L332.1411,243.8763 L333.9048,246.7801 L335.2264,249.4267 L337.2074,252.457 L338.75,255.2322 L338.9231,255.4037 L340.3673,256.862 L341.8975,258.4054 L343.0285,259.5533 L344.4521,260.9911 L346.135,262.6858 L345.9795,262.4576 L348.1958,264.0782 L350.2368,265.4417 L352.532,267.1782 L354.3933,268.2778 L356.5125,269.756 L356.4426,269.6205 L359.1468,271.1818 L361.5521,272.1639 L364.1699,273.5579 L366.9958,275.3549 L369.4513,276.4342 L369.5257,276.613 L372.5905,277.9912 L375.4237,278.8134 L378.5471,280.332 L381.6072,281.6988 L384.52,282.7122 " fill="none" style="stroke:#8B0000;stroke-width:4.0;"/><polygon fill="#8B0000" points="389.04,284.7422,389.0889,284.7924,387.5318,283.2697,386.2612,282.0413,384.8973,280.7171,383.2267,279.0776,381.9806,277.8745,381.9571,277.8637,382.3252,278.8424,382.8119,279.8759,383.381,280.9473,383.6661,281.8878,384.349,283.0117,384.4263,283.1793,383.2336,283.2946,382.2665,283.8992,381.327,284.5635,380.2273,284.8804,379.2118,285.3801,379.2133,285.4028,381.1768,285.2419,383.1469,285.1843,385.1139,285.0769,387.087,285.0646,389.04,284.7422" style="stroke:#8B0000;stroke-width:4.0;"/><text fill="#000000" font-family="Chalkduster" font-size="24" lengthAdjust="spacing" textLength="286" x="417.25" y="187.0731">Convert to RO-Crate</text><text fill="#000000" font-family="Chalkduster" font-size="24" lengthAdjust="spacing" textLength="441" x="339.75" y="217.7029">(using Language Data Commons</text><text fill="#000000" font-family="Chalkduster" font-size="24" lengthAdjust="spacing" textLength="243" x="438.75" y="248.3328">RO-Crate profile)</text></g><!--link ct to repo--><g id="link_ct_repo"><path d="M578.75,366.7422 L579.0302,366.7422 L578.1976,376.2767 L579.0077,385.8111 L579.2829,395.3455 L577.7988,404.88 L578.6464,414.4144 L578.1813,423.9489 L578.2387,433.4833 L578.6591,443.0178 L578.75,452.5522 " fill="none" style="stroke:#8B0000;stroke-width:4.0;"/><polygon fill="#8B0000" points="578.75,457.2622,578.814,457.2907,579.4238,455.4061,580.4089,453.6884,581.2717,451.9163,581.7327,449.9656,582.75,448.2622,582.7317,448.2439,581.8495,448.9617,581.0596,449.7718,580.3339,450.6461,579.387,451.2993,578.75,452.2622,578.8805,452.3927,577.8014,451.3137,577.1034,450.6156,576.4518,449.964,575.5298,449.042,574.75,448.2622,574.7708,448.2714,575.5403,450.0579,576.4044,451.8864,577.2228,453.6946,578.1284,455.5415,578.75,457.2622" style="stroke:#8B0000;stroke-width:4.0;"/><text fill="#000000" font-family="Chalkduster" font-size="24" lengthAdjust="spacing" textLength="146" x="579.75" y="421.3331">Write data</text></g><!--SRC=[LP31IWCn48RlUOgnbogOUY-be5iy5Gf5y5AGc9skmMmc9BEjHRnvyAG7JnMX9z_1v_45x2EOTAlWOI0p_Fd-cV_0E6sR4gzgvLRGwvsKYfLCZQgmHiSoyifYZ-zO23PiiGzdYlMDjAHAuoh8UZ2E2SOZLPmUGpIrjnWP5WQNGWJKh5nb4JhRpUjJgiTKxp09fZ9EMHXbm7Rp_95gtG4LM-Iz40__Vd-zhRy_Nw1RKF1DX0iYsmLDRe4X6dBfMIBiHHqO39OKRgDN6eV33DMyHpfY12OFDC_3_eu49YbQSFIepTne8V8UroecxqbnFeOfUeg6AQmoFlnrYPyDyc1laR03sNZPNjA7OhSb9rUOJcGH5EFC7JOnvpTEvpKfx3Q7WkgQN9ovNntuG7DZyIX3PKbB9uUjLHykWqc2dOVu0G00]--></g></svg>