<?xml version="1.0" encoding="UTF-8" standalone="no"?><svg xmlns="http://www.w3.org/2000/svg" xmlns:xlink="http://www.w3.org/1999/xlink" contentStyleType="text/css" height="494px" preserveAspectRatio="none" style="width:1141px;height:494px;background:#FFFFFF;" version="1.1" viewBox="0 0 1141 494" width="1141px" zoomAndPan="magnify"><defs/><g><text fill="#000000" font-family="Chalkduster" font-size="42" font-weight="bold" lengthAdjust="spacing" textLength="1113" x="10" y="51.7215">Batch-loading data into LDaCA, simplest view</text><!--entity data--><g id="elem_data"><polygon fill="none" points="151.25,406.3912,151.25,406.6013,161.25,405.9768,171.25,406.5844,181.25,406.7908,191.25,405.6778,201.25,406.3134,211.25,405.9647,221.25,406.0077,231.25,406.323,241.25,405.6998,251.25,406.9448,261.25,405.7609,271.25,406.1934,281.25,406.8231,291.25,406.3054,301.25,406.4594,311.25,406.3592,321.25,406.5697,331.25,406.6303,341.25,406.9769,351.25,407.0622,361.25,407.0704,371.25,406.6458,381.25,406.8547,391.25,407.0934,401.25,405.67,411.25,407.0697,421.25,406.0947,431.25,406.925,441.25,405.8961,451.25,406.3227,461.25,407.1328,471.25,406.3424,481.25,406.4965,491.25,406.7298,501.25,406.8074,511.25,406.3912,511.2495,406.39,511.6402,406.6261,511.8841,406.5078,512.3469,406.9181,512.7341,407.1458,513.0178,407.1234,513.1547,407.1801,513.353,407.5551,513.1619,407.7689,513.2563,408.1009,513.4122,408.4583,513.75,408.8912,513.6911,408.8912,513.5535,418.0171,514.4314,427.1431,513.5753,436.2691,513.4069,445.395,513.75,454.521,513.8203,454.5501,513.3982,454.7895,513.2972,455.1619,513.5105,455.6644,513.2984,455.9908,513.0178,456.2888,513.1115,456.515,512.6232,456.3361,512.3514,456.68,512.0324,456.9099,511.5433,456.7291,511.25,457.021,511.25,456.9251,501.25,457.147,491.25,457.6728,481.25,457.0168,471.25,457.4836,461.25,456.4672,451.25,456.3437,441.25,457.5246,431.25,456.3041,421.25,457.53,411.25,457.2276,401.25,456.7531,391.25,456.6672,381.25,457.4798,371.25,456.7217,361.25,457.6129,351.25,456.4682,341.25,457.6384,331.25,457.5053,321.25,457.266,311.25,457.0682,301.25,457.7476,291.25,457.6346,281.25,457.1902,271.25,457.2892,261.25,456.8907,251.25,457.7374,241.25,457.1759,231.25,457.1936,221.25,456.4126,211.25,456.6158,201.25,457.5517,191.25,457.4508,181.25,456.9781,171.25,456.6988,161.25,456.8021,151.25,457.021,151.1625,456.8097,150.9494,457.0023,150.6372,456.9559,150.2565,456.7438,149.9244,456.6492,149.4822,456.2888,149.4401,456.2713,149.3626,455.9463,149.07,455.5322,149.1304,455.2643,148.9724,454.906,148.75,454.521,149.3024,454.521,148.5203,445.395,148.6156,436.2691,149.1935,427.1431,149.3173,418.0171,148.75,408.8912,148.5922,408.8258,148.8367,408.5129,149.0889,408.2031,149.0012,407.7526,149.4446,407.522,149.4822,407.1234,149.5151,407.2028,149.8229,406.9459,150.2075,406.8743,150.6358,406.9085,150.8565,406.4413,151.25,406.3912" style="stroke:#181818;stroke-width:4.0;"/><text fill="#000000" font-family="Chalkduster" font-size="24" lengthAdjust="spacing" textLength="345" x="158.75" y="440.232">&#128200;&#128196;&#128220;  Original Data &#127909;&#127897;</text></g><!--entity ct--><g id="elem_ct"><polygon fill="#FFE4E1" points="328.75,182.8912,328.75,183.1013,338.7689,182.4768,348.7877,183.0844,358.8066,183.2908,368.8255,182.1778,378.8443,182.8134,388.8632,182.4647,398.8821,182.5077,408.9009,182.823,418.9198,182.1998,428.9387,183.4448,438.9575,182.2609,448.9764,182.6934,458.9953,183.3231,469.0142,182.8054,479.033,182.9594,489.0519,182.8592,499.0708,183.0697,509.0896,183.1303,519.1085,183.4769,529.1274,183.5622,539.1462,183.5704,549.1651,183.1458,559.184,183.3547,569.2028,183.5934,579.2217,182.17,589.2406,183.5697,599.2594,182.5947,609.2783,183.425,619.2972,182.3961,629.316,182.8227,639.3349,183.6328,649.3538,182.8424,659.3726,182.9965,669.3915,183.2298,679.4104,183.3074,689.4292,182.8873,699.4481,183.1784,709.467,182.3187,719.4858,183.1755,729.5047,183.4394,739.5236,183.3357,749.5425,183.5042,759.5613,182.4081,769.5802,182.239,779.5991,182.2698,789.6179,182.8323,799.6368,182.6946,809.6557,183.5726,819.6745,182.7165,829.6934,182.5481,839.7123,183.1194,849.7311,182.2243,859.75,182.8912,859.6838,182.7313,860.1863,183.2375,860.5127,183.3182,860.9044,183.5567,861.1232,183.3778,861.5178,183.6234,861.6161,183.6641,861.846,184.0523,861.6652,184.2702,861.9276,184.6718,862.1424,185.0537,862.25,185.3912,862.9018,185.3912,862.2458,194.9236,862.7126,204.4561,861.6962,213.9885,861.5727,223.521,862.7536,233.0535,861.5331,242.5859,862.759,252.1184,862.25,261.6508,862.3136,261.6772,862.021,261.9702,861.8482,262.3128,861.9519,262.77,861.572,263.0269,861.5178,263.4186,861.5933,263.6009,861.0937,263.3948,860.8894,263.9016,860.5189,264.0071,860.1348,264.0798,859.75,264.1508,859.75,264.198,849.7311,264.8774,839.7123,264.7644,829.6934,264.3201,819.6745,264.419,809.6557,264.0206,799.6368,264.8673,789.6179,264.3057,779.5991,264.3234,769.5802,263.5425,759.5613,263.7456,749.5425,264.6816,739.5236,264.5806,729.5047,264.1079,719.4858,263.8287,709.467,263.9319,699.4481,263.4647,689.4292,264.5656,679.4104,264.8904,669.3915,264.6772,659.3726,264.8458,649.3538,264.0141,639.3349,264.238,629.316,263.7632,619.2972,264.4349,609.2783,264.3976,599.2594,264.7032,589.2406,263.9212,579.2217,264.0164,569.2028,264.5943,559.184,264.7182,549.1651,263.6383,539.1462,263.9569,529.1274,264.3001,519.1085,263.54,509.0896,264.5042,499.0708,264.4088,489.0519,264.0501,479.033,264.2931,469.0142,264.8795,458.9953,263.838,448.9764,264.4658,438.9575,264.4365,428.9387,264.2666,418.9198,264.2917,408.9009,264.2643,398.8821,263.5267,388.8632,263.75,378.8443,263.6893,368.8255,264.2147,358.8066,264.239,348.7877,264.3126,338.7689,263.8599,328.75,264.1508,328.7414,264.13,328.3811,263.9674,328.1165,264.0356,327.7438,263.8429,327.2739,263.4155,326.9822,263.4186,326.9598,263.4093,326.658,262.9914,326.7782,262.7483,326.7303,262.4356,326.5642,262.0738,326.25,261.6508,325.8144,261.6508,326.714,252.1184,325.5072,242.5859,326.4502,233.0535,325.9507,223.521,326.3467,213.9885,326.4903,204.4561,326.7221,194.9236,326.25,185.3912,326.0283,185.2993,326.5429,185.0983,326.5978,184.7068,326.7988,184.3758,327.0661,184.0723,326.9822,183.6234,326.9829,183.6251,327.3581,183.5309,327.7166,183.3962,328.0681,183.2448,328.3963,183.0374,328.75,182.8912" style="stroke:#181818;stroke-width:4.0;"/><text fill="#000000" font-family="Chalkduster" font-size="24" font-style="italic" lengthAdjust="spacing" textLength="175" x="506.75" y="216.732">«workspace»</text><text fill="#000000" font-family="Chalkduster" font-size="24" lengthAdjust="spacing" textLength="504" x="336.25" y="247.3619">⚙️ 'Corpus Tool' conversion code ⚙️</text></g><!--entity repo--><g id="elem_repo"><path d="M735.25,396.8912 L735.25,396.8912 L735.2771,396.9806 L739.0091,395.5587 L742.8999,394.6609 L746.7391,393.5924 L750.408,391.9627 L754.3125,391.1099 L754.3094,391.0755 L758.2031,390.5657 L762.1127,390.2292 L766.0332,390.0133 L769.9159,389.382 L773.8516,389.3326 L773.8663,389.5782 L776.0389,388.9206 L778.2545,388.9802 L780.4754,389.1272 L782.6657,388.7652 L784.8721,388.6709 L784.8735,388.7012 L787.147,388.5508 L789.4269,388.5383 L791.7038,388.4592 L793.9865,388.5071 L796.25,388.1412 L796.2596,388.4393 L800.7394,388.2984 L805.213,387.9652 L809.6957,387.9135 L814.1788,387.875 L818.6484,387.4185 L818.6424,387.098 L822.562,387.6458 L826.4616,387.1383 L830.3764,387.4331 L834.2755,386.9017 L838.1875,387.0474 L838.1873,387.017 L842.0027,387.3458 L845.8123,386.9633 L849.6254,387.0005 L853.4387,387.0729 L857.25,386.8912 L857.25,386.8912 L857.2515,387.0761 L861.0625,386.9207 L864.876,387.0813 L868.6854,386.7305 L872.501,387.1426 L876.3125,387.0474 L876.3171,387.291 L880.2241,387.3192 L884.1333,387.4683 L888.0319,387.0554 L891.9382,387.0545 L895.8516,387.4185 L895.8427,387.1425 L900.3304,387.5369 L904.8081,387.6203 L909.3004,388.1548 L913.7678,387.919 L918.25,388.1412 L918.2429,387.9889 L920.5303,388.3485 L922.7874,388.057 L925.066,388.2286 L927.3658,388.8531 L929.6279,388.6709 L929.6395,388.8642 L931.8516,389.1291 L934.0276,388.7928 L936.2487,389.2095 L938.4601,389.4622 L940.6484,389.3326 L940.6294,389.1235 L944.5524,389.6456 L948.4691,390.0993 L952.3981,390.6875 L956.2795,390.7526 L960.1875,391.1099 L960.2472,391.3066 L963.9286,392.0306 L967.7251,393.1344 L971.69,394.7929 L975.345,395.43 L979.25,396.8912 L980.6072,396.8912 L979.801,406.9283 L978.5356,416.9654 L978.3066,427.0024 L980.4734,437.0395 L978.4518,447.0766 L980.8283,457.1137 L979.25,467.1508 L979.25,467.1508 L979.1787,466.9157 L975.5171,468.5697 L971.6875,469.6693 L967.8441,470.7238 L964.0061,471.7959 L960.1875,472.9321 L960.2168,473.2537 L956.3044,473.5591 L952.3787,473.7179 L948.4749,474.1172 L944.551,474.2963 L940.6484,474.7094 L940.6675,475.0273 L938.4485,474.9105 L936.2448,475.0506 L934.0199,474.8365 L931.8212,475.0589 L929.6279,475.371 L929.6389,475.6067 L927.3612,475.6678 L925.0759,475.5639 L922.7945,475.5459 L920.5211,475.6977 L918.25,475.9008 L918.2402,475.596 L913.7763,476.2296 L909.3012,476.5184 L904.8185,476.5683 L900.3412,476.7877 L895.8516,476.6235 L895.8504,476.5627 L891.9445,476.7365 L888.0327,476.5997 L884.1305,476.9724 L880.2224,477.03 L876.3125,476.9946 L876.3145,477.2401 L872.4992,476.9238 L868.687,476.9973 L864.8766,477.2854 L861.0646,477.3717 L857.25,477.1508 L857.25,477.1508 L857.2481,476.923 L853.4368,477.0334 L849.6255,477.1547 L845.8103,476.7856 L842.0013,477.1829 L838.1875,476.9946 L838.1897,477.1092 L834.2788,476.8756 L830.3731,476.9094 L826.4702,477.0957 L822.5536,476.5587 L818.6484,476.6235 L818.653,476.7634 L814.1728,476.6058 L809.6907,476.3858 L805.2114,476.2525 L800.7313,476.0958 L796.25,475.9008 L796.2371,475.6237 L793.9661,475.6169 L791.6893,475.484 L789.4246,475.6113 L787.1495,475.5161 L784.8721,475.371 L784.8764,475.4428 L782.6602,475.1096 L780.4621,475.0764 L778.2566,474.9207 L776.071,475.0977 L773.8516,474.7094 L773.8687,474.8982 L769.9242,474.139 L766.033,473.9662 L762.1049,473.3875 L758.2319,473.4152 L754.3125,472.9321 L754.391,473.1909 L750.5702,472.0074 L746.6313,470.4343 L742.9348,469.6607 L738.9667,467.9911 L735.25,467.1508 L735.7837,467.1508 L734.4518,457.1137 L735.5079,447.0766 L735.8909,437.0395 L736.5089,427.0024 L733.3302,416.9654 L736.5179,406.9283 L735.25,396.8912 " fill="#98FB98" style="stroke:#181818;stroke-width:4.0;"/><path d="M735.25,396.8912 L735.25,396.8912 L735.2771,396.9806 L739.0091,397.8712 L742.8999,399.2859 L746.7391,400.5299 L750.408,401.2127 L754.3125,402.6724 L754.3094,402.638 L758.2031,402.8391 L762.1127,403.2136 L766.0332,403.7086 L769.9159,403.7883 L773.8516,404.4498 L773.8663,404.6954 L776.0389,404.3025 L778.2545,404.6267 L780.4754,405.0384 L782.6657,404.941 L784.8721,405.1114 L784.8735,405.1417 L787.147,405.2031 L789.4269,405.4025 L791.7038,405.5354 L793.9865,405.7952 L796.25,405.6412 L796.2596,405.9393 L800.7394,406.0874 L805.213,406.0433 L809.6957,406.2807 L814.1788,406.5312 L818.6484,406.3638 L818.6424,406.0433 L822.562,406.7395 L826.4616,406.3805 L830.3764,406.8237 L834.2755,406.4407 L838.1875,406.7349 L838.1873,406.7045 L842.0027,407.0958 L845.8123,406.7758 L849.6254,406.8755 L853.4387,407.0104 L857.25,406.8912 L857.25,406.8912 L857.2515,407.0761 L861.0625,406.8582 L864.876,406.9563 L868.6854,406.543 L872.501,406.8926 L876.3125,406.7349 L876.3171,406.9785 L880.2241,406.8582 L884.1333,406.8589 L888.0319,406.2976 L891.9382,406.1482 L895.8516,406.3638 L895.8427,406.0878 L900.3304,406.1931 L904.8081,405.9875 L909.3004,406.2329 L913.7678,405.7081 L918.25,405.6412 L918.2429,405.4889 L920.5303,405.6365 L922.7874,405.1332 L925.066,405.0928 L927.3658,405.5054 L929.6279,405.1114 L929.6395,405.3047 L931.8516,405.3049 L934.0276,404.704 L936.2487,404.856 L938.4601,404.844 L940.6484,404.4498 L940.6294,404.2407 L944.5524,404.0519 L948.4691,403.7946 L952.3981,403.6718 L956.2795,403.026 L960.1875,402.6724 L960.2472,402.8691 L963.9286,401.2806 L967.7251,400.0719 L971.69,399.4179 L975.345,397.7425 L979.25,396.8912 " fill="none" style="stroke:#181818;stroke-width:4.0;"/><text fill="#000000" font-family="Chalkduster" font-size="24" font-style="italic" lengthAdjust="spacing" textLength="169" x="772.75" y="434.732">«repository»</text><text fill="#000000" font-family="Chalkduster" font-size="24" lengthAdjust="spacing" textLength="224" x="745.25" y="465.3619">OCFL Repository</text></g><g id="elem_GMN4"><path d="M428.25,80.8912 L428.4368,80.8912 L427.8817,89.0171 L428.4218,97.1431 L428.6053,105.2691 L427.6159,113.395 L428.25,121.521 L428.25,121.3138 L438.3106,120.3837 L448.3712,120.4983 L458.4318,121.3392 L468.4924,119.6773 L478.553,122.9974 L488.6136,119.8402 L498.6742,120.9936 L508.7348,122.6729 L518.7955,121.2923 L528.8561,121.703 L538.9167,121.4358 L548.9773,121.9971 L559.0379,122.1587 L569.0985,123.0828 L579.1591,123.3105 L589.2197,123.3323 L599.2803,122.2 L609.3409,122.7572 L619.4015,123.3936 L629.4621,119.5978 L639.5227,123.3304 L649.5833,120.7303 L659.6439,122.9445 L669.7045,120.2009 L679.7652,121.3383 L689.8258,123.4986 L699.8864,121.391 L709.947,121.8018 L720.0076,122.424 L730.0682,122.6309 L740.1288,121.5106 L750.1894,122.2869 L760.25,121.521 L759.7412,121.521 L760.5028,115.395 L760.7373,109.2691 L760.6451,103.1431 L760.7949,97.0171 L760.25,90.8912 L759.9464,90.5875 L757.8401,88.4812 L755.8594,86.5006 L754.213,84.8542 L752.1265,82.7676 L750.25,80.8912 L750.25,82.7083 L740.1875,80.4254 L730.125,79.9764 L720.0625,81.4999 L710,79.1129 L699.9375,79.5068 L689.875,82.6217 L679.8125,82.0529 L669.75,82.8498 L659.6875,80.033 L649.625,81.7424 L639.5625,82.4656 L629.5,79.6314 L619.4375,80.6355 L609.375,81.2271 L599.3125,82.6292 L589.25,80.88 L579.1875,82.1247 L569.125,79.4144 L559.0625,79.0851 L549,82.2341 L538.9375,78.9793 L528.875,82.2484 L518.8125,81.4422 L508.75,80.1767 L498.6875,79.9478 L488.625,82.1145 L478.5625,80.0929 L468.5,82.4695 L458.4375,79.4172 L448.375,82.5376 L438.3125,82.1826 L428.25,80.8912 " fill="none" style="stroke:#181818;stroke-width:4.0;"/><path d="M750.25,80.8912 L750.4368,80.8912 L749.8817,82.8912 L750.4218,84.8912 L750.6053,86.8912 L749.6159,88.8912 L750.25,90.8912 L750.25,90.8221 L752.25,90.5121 L754.25,90.5503 L756.25,90.8306 L758.25,90.2766 L760.25,90.8912 L760.598,91.2391 L757.8538,88.495 L756.1257,86.7669 L754.5215,85.1627 L752.1961,82.8372 L750.25,80.8912 " fill="none" style="stroke:#181818;stroke-width:1.0;"/><text fill="#000000" font-family="Chalkduster" font-size="24" lengthAdjust="spacing" textLength="311" x="434.25" y="109.732">Tool is corpus specific</text></g><!--link GMN4 to ct--><g id="link_GMN4_ct"><path d="M594.25,122.2112 L594.5302,122.2112 L593.6976,132.2795 L594.5077,142.3478 L594.7829,152.4162 L593.2988,162.4845 L594.1464,172.5528 L594.25,182.6212 " fill="none" style="stroke:#8B0000;stroke-width:4.0;stroke-dasharray:7.0,7.0;"/></g><!--reverse link ct to data--><g id="link_ct_data"><path d="M374.74,266.4012 L374.7751,266.4877 L371.6238,267.467 L368.6784,268.9538 L365.666,270.2753 L362.433,271.0534 L359.5053,272.5837 L359.4897,272.5529 L356.802,273.7426 L354.1931,275.0877 L351.6389,276.5406 L348.896,277.6216 L346.4175,279.2237 L346.5549,279.4278 L344.1513,280.4115 L342.1488,281.9912 L340.1953,283.6437 L337.957,284.873 L335.8684,286.3249 L335.8898,286.3464 L334.3347,287.8281 L332.877,289.4077 L331.3723,290.9401 L329.9571,292.5626 L328.25,293.8912 L328.5051,294.0456 L326.9575,296.6089 L325.2452,299.0726 L323.7739,301.6821 L322.3138,304.2985 L320.496,306.6982 L320.1936,306.5919 L319.7923,309.6078 L318.3953,312.2736 L317.7552,315.2055 L316.3357,317.8633 L315.555,320.7458 L315.525,320.7407 L315.3728,323.7694 L314.5195,326.6783 L314.0799,329.6579 L313.675,332.6434 L313.0196,335.5861 L313.2045,335.5927 L312.9105,338.6231 L312.9323,341.6646 L312.4431,344.6882 L312.7162,347.7386 L312.4825,350.7712 L312.7255,350.7881 L312.8904,353.8013 L313.1758,356.8229 L312.9006,359.8053 L313.0364,362.8165 L313.5363,365.8531 L313.2634,365.811 L313.9579,368.7553 L314.345,371.6521 L315.1781,374.6177 L315.2495,377.466 L315.7738,380.384 L315.6249,380.3508 L316.4755,383.1124 L316.6899,385.7323 L317.3567,388.453 L318.4662,391.2723 L318.7874,393.916 L318.9739,393.9682 L319.7783,396.421 L320.0027,398.7115 L320.9536,401.2053 L321.7462,403.6549 L322.17,406.0012 " fill="none" style="stroke:#8B0000;stroke-width:4.0;"/><polygon fill="#8B0000" points="379.2,264.8112,379.2052,264.881,377.2254,264.5281,375.2759,264.5847,373.3166,264.508,371.3248,263.9926,369.378,264.0845,369.3669,264.061,370.3404,264.4388,371.3696,264.9347,372.4376,265.5127,373.3721,265.8078,374.4936,266.4992,374.6604,266.578,373.8206,267.4326,373.4681,268.5173,373.1749,269.63,372.5359,270.5794,372.0788,271.6148,372.0945,271.6312,373.4957,270.2463,374.9684,268.9363,376.4066,267.5902,377.9106,266.313,379.2,264.8112" style="stroke:#8B0000;stroke-width:4.0;"/><text fill="#000000" font-family="Chalkduster" font-size="24" lengthAdjust="spacing" textLength="286" x="428.25" y="318.732">Convert to RO-Crate</text><text fill="#000000" font-family="Chalkduster" font-size="24" lengthAdjust="spacing" textLength="484" x="329.25" y="349.3619">(using Language Commons profile)</text></g><!--link ct to repo--><g id="link_ct_repo"><path d="M778.98,264.2912 L779.0283,264.3711 L781.0076,265.414 L783.2697,266.9257 L785.4398,268.2848 L787.307,269.1417 L789.5934,270.6937 L789.5737,270.6653 L791.5131,271.9475 L793.5518,273.3727 L795.6596,274.8973 L797.5293,276.0794 L799.7325,277.7412 L799.8869,277.9327 L801.4728,279.0676 L803.5095,280.7617 L805.6012,282.5241 L807.3728,283.8895 L809.3128,285.4637 L809.3336,285.4857 L811.0905,287.1388 L812.9421,288.8924 L814.748,290.5975 L816.6411,292.395 L818.25,293.8912 L818.4764,294.0853 L820.0385,295.9061 L821.4545,297.6018 L823.0843,299.4807 L824.7241,301.3682 L826.0464,302.9835 L825.7802,302.805 L827.6363,305.15 L828.6157,306.9074 L830.2616,309.1114 L831.2211,310.8555 L832.7433,312.9766 L832.7164,312.9623 L834.1703,315.2685 L834.9961,317.2408 L836.1925,319.41 L837.4201,321.5958 L838.4232,323.6624 L838.5934,323.7347 L839.3707,325.8957 L840.4389,328.1803 L841.0364,330.2649 L842.336,332.6478 L843.1688,334.8324 L843.3994,334.9109 L844.1346,337.1853 L844.9842,339.4986 L845.3018,341.631 L846.0094,343.896 L847.0626,346.2786 L846.7961,346.2062 L847.6623,348.5745 L848.2282,350.8613 L849.2297,353.2663 L849.4875,355.4694 L850.1873,357.7926 L850.0383,357.7606 L850.7742,360.0886 L850.8729,362.2799 L851.4247,364.5684 L852.42,366.9519 L852.6256,369.1662 L852.8166,369.198 L853.3145,371.4248 L853.2183,373.5527 L853.8662,375.8045 L854.352,378.0292 L854.46,380.1912 " fill="none" style="stroke:#8B0000;stroke-width:4.0;"/><polygon fill="#8B0000" points="855.11,385.1112,855.1772,385.131,855.534,383.1826,856.2848,381.3503,856.9073,379.4802,857.1079,377.4859,857.8926,375.6636,857.872,375.6478,857.0918,376.4753,856.4152,377.3822,855.8107,378.3443,854.9579,379.1162,854.4529,380.1545,854.5651,380.301,853.427,379.2998,852.6165,378.7263,851.8459,378.205,850.8428,377.3801,849.962,376.7149,849.9813,376.7268,850.9825,378.3886,852.0719,380.1045,853.1187,381.7943,854.2468,383.534,855.11,385.1112" style="stroke:#8B0000;stroke-width:4.0;"/><text fill="#000000" font-family="Chalkduster" font-size="24" lengthAdjust="spacing" textLength="146" x="851.25" y="334.232">Write data</text></g><!--SRC=[LP31IWCn48RlUOgnbogOUbzAGRTuAXIAu4MGc9skmMmc9BEjHRnvyAG7JnMX9z_1v_45x2EOT8lWOI0p_Fd-V-R0E6tR2gyRvLOm69nKYfLCZQgnGSSoyihYWEzP23PiiO0pnVfMMbALSJLaFHZ719EnAa-F8Ph6MumC2uDB8G9gLgws2BtjvkqvrLEg3u1fCBLnoi8u4xQRbyzKwnwes34VX7Zyz_txVVtpzGhzae9l8rmGsJveSWiCqP1BpmfXB-h1SBYaS1UzqZWQPQZcFT8H8p1ve7aU5ZiIcAJemD6ZDdEZXSWvRbHCtjFoV08pz1GDKrXbVFZh4ZyRvC7U8c67ilMoswI0SfUIaolCfh8CYl7A7ROn7t2IrclJjPEeQSX5y87cnk9HfiYAbawEEdO1by6ax3ke-0K0]--></g></svg>