<?xml version="1.0" encoding="UTF-8" standalone="no"?><svg xmlns="http://www.w3.org/2000/svg" xmlns:xlink="http://www.w3.org/1999/xlink" contentStyleType="text/css" height="1255px" preserveAspectRatio="none" style="width:1371px;height:1255px;background:#FFFFFF;" version="1.1" viewBox="0 0 1371 1255" width="1371px" zoomAndPan="magnify"><defs/><g><!--cluster RO-Crate 1--><g id="cluster_RO-Crate 1"><path d="M8.5,9.2889 L8.5,9.8494 L18.7667,8.1841 L29.0333,9.8044 L39.3,10.3548 L49.5667,7.3866 L59.8333,9.0817 L70.1,8.1516 L80.3667,8.2663 L90.6333,9.1072 L100.9,7.4453 L111.1667,10.7653 L121.4333,7.6082 L131.7,8.7616 L141.9667,10.4408 L152.2333,9.0602 L162.5,9.2889 L165,11.7889 L165.0594,11.8011 L166.3722,18.6092 L167.9555,25.4728 L169.4082,32.3096 L171.11,39.1974 L172,45.9188 L172,47.7083 L181.9958,47.7301 L191.9916,46.5978 L201.9874,47.155 L211.9832,47.7914 L221.979,43.9956 L231.9748,47.7281 L241.9706,45.1281 L251.9664,47.3423 L261.9622,44.5987 L271.958,45.7361 L281.9538,47.8964 L291.9496,45.7888 L301.9454,46.1996 L311.9412,46.8218 L321.937,47.0287 L331.9328,45.9084 L341.9286,46.6847 L351.9244,44.3923 L361.9202,46.6771 L371.916,47.3806 L381.9118,47.1042 L391.9076,47.5535 L401.9034,44.6306 L411.8992,44.1796 L421.895,44.2617 L431.8908,45.7618 L441.8866,45.3947 L451.8824,47.7359 L461.8782,45.453 L471.8739,45.004 L481.8697,46.5275 L491.8655,44.1405 L501.8613,44.5344 L511.8571,47.6493 L521.8529,47.0806 L531.8487,47.8774 L541.8445,45.0607 L551.8403,46.77 L561.8361,47.4932 L571.8319,44.659 L581.8277,45.6632 L591.8235,46.2547 L601.8193,47.6568 L611.8151,45.9076 L621.8109,47.1523 L631.8067,44.442 L641.8025,44.1128 L651.7983,47.2618 L661.7941,44.0069 L671.7899,47.276 L681.7857,46.4698 L691.7815,45.2043 L701.7773,44.9754 L711.7731,47.1421 L721.7689,45.1206 L731.7647,47.4971 L741.7605,44.4448 L751.7563,47.5653 L761.7521,47.2103 L771.7479,46.572 L781.7437,46.0447 L791.7395,47.8564 L801.7353,47.555 L811.7311,46.3701 L821.7269,46.634 L831.7227,45.5714 L841.7185,47.8293 L851.7143,46.3318 L861.7101,46.379 L871.7059,44.2965 L881.7017,44.8382 L891.6975,47.3341 L901.6933,47.0648 L911.6891,45.8043 L921.6849,45.0597 L931.6807,45.335 L941.6765,44.089 L951.6723,47.0247 L961.6681,47.891 L971.6639,47.3225 L981.6597,47.7719 L991.6555,45.5542 L1001.6513,46.1514 L1011.6471,44.8852 L1021.6429,46.6762 L1031.6387,46.5768 L1041.6345,47.3918 L1051.6303,45.3064 L1061.6261,45.5604 L1071.6218,47.1013 L1081.6176,47.4317 L1091.6134,44.552 L1101.6092,45.4018 L1111.605,46.3168 L1121.6008,44.2899 L1131.5966,46.8612 L1141.5924,46.6068 L1151.5882,45.6501 L1161.584,46.2981 L1171.5798,47.8619 L1181.5756,45.0845 L1191.5714,46.7587 L1201.5672,46.6805 L1211.563,46.2275 L1221.5588,46.2946 L1231.5546,46.2214 L1241.5504,44.2544 L1251.5462,44.8499 L1261.542,44.688 L1271.5378,46.089 L1281.5336,46.1538 L1291.5294,46.3501 L1301.5252,45.1428 L1311.521,45.7387 L1321.5168,45.5982 L1331.5126,47.4571 L1341.5084,47.0563 L1351.5042,44.624 L1361.5,45.9188 L1364,48.4188 L1363.8055,48.4188 L1362.4607,58.3969 L1364.769,68.375 L1365.6226,78.353 L1365.4522,88.3311 L1362.8385,98.3092 L1365.2372,108.2873 L1362.0192,118.2654 L1364.5337,128.2435 L1363.2018,138.2215 L1364.2579,148.1996 L1364.6409,158.1777 L1365.2589,168.1558 L1362.0802,178.1339 L1365.2679,188.112 L1364.4751,198.0901 L1364.9475,208.0681 L1365.9941,218.0462 L1364.0146,228.0243 L1364.4674,238.0024 L1364.5692,247.9805 L1364.526,257.9586 L1363.9978,267.9366 L1365.8952,277.9147 L1362.374,287.8928 L1365.5074,297.8709 L1362.336,307.849 L1362.5592,317.8271 L1364.1067,327.8052 L1364.0754,337.7832 L1362.6858,347.7613 L1365.1032,357.7394 L1364.2903,367.7175 L1365.9378,377.6956 L1365.7789,387.6737 L1362.8046,397.6517 L1362.9389,407.6298 L1363.6555,417.6079 L1364.9481,427.586 L1365.0746,437.5641 L1364.8031,447.5422 L1363.0881,457.5203 L1365.6969,467.4983 L1365.6901,477.4764 L1363.8739,487.4545 L1363.3625,497.4326 L1362.9296,507.4107 L1363.4278,517.3888 L1364.3664,527.3668 L1363.8176,537.3449 L1362.8859,547.323 L1365.2997,557.3011 L1362.7762,567.2792 L1365.3397,577.2573 L1365.1393,587.2354 L1364.9916,597.2134 L1365.8467,607.1915 L1363.3443,617.1696 L1363.1983,627.1477 L1365.3837,637.1258 L1362.4083,647.1039 L1363.376,657.082 L1364.308,667.06 L1364.1832,677.0381 L1363.0441,687.0162 L1363.8854,696.9943 L1365.9856,706.9724 L1365.7293,716.9505 L1362.4099,726.9285 L1364.2094,736.9066 L1362.6296,746.8847 L1363.9298,756.8628 L1364.7813,766.8409 L1365.1197,776.819 L1362.2274,786.7971 L1365.0681,796.7751 L1364.0224,806.7532 L1362.5191,816.7313 L1362.7439,826.7094 L1364.8709,836.6875 L1364.6663,846.6656 L1363.9561,856.6436 L1362.2077,866.6217 L1365.755,876.5998 L1363.1684,886.5779 L1362.5918,896.556 L1363.8205,906.5341 L1365.5726,916.5122 L1365.6411,926.4902 L1364.0937,936.4683 L1363.5969,946.4464 L1364.4528,956.4245 L1364.4966,966.4026 L1362.6459,976.3807 L1365.1039,986.3587 L1365.4901,996.3368 L1363.4246,1006.3149 L1362.8555,1016.293 L1365.7991,1026.2711 L1364.056,1036.2492 L1363.9996,1046.2273 L1364.7974,1056.2053 L1362.2782,1066.1834 L1365.4133,1076.1615 L1363.9588,1086.1396 L1365.7835,1096.1177 L1363.4244,1106.0958 L1365.0907,1116.0738 L1362.816,1126.0519 L1364.6534,1136.03 L1365.0114,1146.0081 L1363.1271,1155.9862 L1364.968,1165.9643 L1362.4762,1175.9424 L1362.7454,1185.9204 L1365.8209,1195.8985 L1365.825,1205.8766 L1365.516,1215.8547 L1363.039,1225.8328 L1365.0246,1235.8109 L1364,1245.7889 L1361.5,1248.2889 L1361.5,1247.0301 L1351.4778,1248.444 L1341.4556,1248.2856 L1331.4333,1247.5891 L1321.4111,1249.9314 L1311.3889,1249.471 L1301.3667,1247.4336 L1291.3444,1249.6933 L1281.3222,1248.5339 L1271.3,1246.7327 L1261.2778,1247.6667 L1251.2556,1246.8882 L1241.2333,1247.9181 L1231.2111,1246.6117 L1221.1889,1246.6885 L1211.1667,1248.4764 L1201.1444,1247.9679 L1191.1222,1248.1328 L1181.1,1247.9071 L1171.0778,1248.7351 L1161.0556,1246.8087 L1151.0333,1248.7158 L1141.0111,1246.3072 L1130.9889,1249.0783 L1120.9667,1249.8696 L1110.9444,1249.6812 L1100.9222,1249.2525 L1090.9,1248.8015 L1080.8778,1248.5709 L1070.8556,1246.5822 L1060.8333,1249.4797 L1050.8111,1249.168 L1040.7889,1247.88 L1030.7667,1248.2735 L1020.7444,1247.7327 L1010.7222,1248.8695 L1000.7,1250.1037 L990.6778,1247.3452 L980.6556,1249.5393 L970.6333,1248.0511 L960.6111,1247.2776 L950.5889,1247.1373 L940.5667,1246.5698 L930.5444,1247.1133 L920.5222,1248.3857 L910.5,1249.0169 L900.4778,1249.8255 L890.4556,1249.4092 L880.4333,1246.392 L870.4111,1249.9397 L860.3889,1249.5853 L850.3667,1249.7308 L840.3444,1249.6806 L830.3222,1246.5313 L820.3,1247.6017 L810.2778,1249.1315 L800.2556,1247.005 L790.2333,1248.0146 L780.2111,1248.4676 L770.1889,1249.1585 L760.1667,1248.411 L750.1444,1250.2749 L740.1222,1249.386 L730.1,1248.9718 L720.0778,1246.8492 L710.0556,1249.1923 L700.0333,1246.757 L690.0111,1249.1041 L679.9889,1248.3098 L669.9667,1249.0875 L659.9444,1248.0558 L649.9222,1247.766 L639.9,1246.3133 L629.8778,1247.7172 L619.8556,1246.4092 L609.8333,1247.6326 L599.8111,1249.4566 L589.7889,1248.7175 L579.7667,1247.0849 L569.7444,1248.9445 L559.7222,1248.4639 L549.7,1249.7376 L539.6778,1249.7955 L529.6556,1248.5387 L519.6333,1247.8117 L509.6111,1247.7171 L499.5889,1248.2719 L489.5667,1250.0733 L479.5444,1246.4924 L469.5222,1247.852 L459.5,1249.0003 L449.4778,1250.2401 L439.4556,1248.854 L429.4333,1247.7603 L419.4111,1246.3211 L409.3889,1247.1588 L399.3667,1247.6972 L389.3444,1249.1952 L379.3222,1249.2742 L369.3,1248.4271 L359.2778,1247.9344 L349.2556,1246.37 L339.2333,1248.6329 L329.2111,1249.4501 L319.1889,1250.1099 L309.1667,1248.5511 L299.1444,1248.5021 L289.1222,1247.7018 L279.1,1248.9522 L269.0778,1247.0357 L259.0556,1249.6651 L249.0333,1247.4738 L239.0111,1246.8751 L228.9889,1248.974 L218.9667,1249.5472 L208.9444,1248.4417 L198.9222,1247.9659 L188.9,1248.7099 L178.8778,1248.2231 L168.8556,1248.0353 L158.8333,1248.4939 L148.8111,1247.4037 L138.7889,1249.3277 L128.7667,1250.1222 L118.7444,1247.3461 L108.7222,1247.664 L98.7,1247.0394 L88.6778,1248.9208 L78.6556,1248.0388 L68.6333,1249.7593 L58.6111,1247.4883 L48.5889,1247.3319 L38.5667,1249.0805 L28.5444,1247.6902 L18.5222,1249.0008 L8.5,1248.2889 L6,1245.7889 L6.7457,1245.7889 L7.1622,1235.7564 L4.7071,1225.7239 L6.2347,1215.6914 L7.4268,1205.6589 L4.5518,1195.6263 L7.345,1185.5938 L5.0945,1175.5613 L6.4179,1165.5288 L7.7407,1155.4963 L4.3189,1145.4637 L7.9257,1135.4312 L5.791,1125.3987 L5.1309,1115.3662 L7.9502,1105.3337 L4.1661,1095.3011 L7.615,1085.2686 L4.9298,1075.2361 L6.7737,1065.2036 L7.9468,1055.1711 L5.6039,1045.1385 L4.8607,1035.106 L5.0044,1025.0735 L5.514,1015.041 L6.7895,1005.0085 L4.5193,994.9759 L7.3638,984.9434 L7.5053,974.9109 L4.1278,964.8784 L5.6194,954.8459 L4.766,944.8133 L6.4589,934.7808 L4.1028,924.7483 L6.3617,914.7158 L6.9565,904.6833 L5.8698,894.6507 L6.4158,884.6182 L6.0377,874.5857 L6.6593,864.5532 L7.9145,854.5207 L7.7543,844.4881 L6.7195,834.4556 L6.1293,824.4231 L6.6497,814.3906 L6.4076,804.3581 L6.5137,794.3255 L7.2209,784.293 L4.0503,774.2605 L7.1528,764.228 L7.3495,754.1955 L4.174,744.1629 L7.6825,734.1304 L6.3595,724.0979 L5.6446,714.0654 L4.2827,704.0329 L5.1196,694.0003 L7.6637,683.9678 L4.4357,673.9353 L7.454,663.9028 L5.3906,653.8703 L6.8422,643.8377 L4.6868,633.8052 L5.3747,623.7727 L7.8092,613.7402 L6.6658,603.7076 L5.4776,593.6751 L6.5995,583.6426 L7.4658,573.6101 L6.5414,563.5776 L7.6516,553.545 L7.3332,543.5125 L6.4732,533.48 L5.6539,523.4475 L5.2458,513.415 L5.0243,503.3824 L6.7405,493.3499 L6.0949,483.3174 L7.6467,473.2849 L5.0978,463.2524 L5.6075,453.2198 L4.1198,443.1873 L6.9126,433.1548 L4.2492,423.1223 L4.1064,413.0898 L5.201,403.0572 L5.0737,393.0247 L6.6823,382.9922 L4.9264,372.9597 L7.9465,362.9272 L5.4676,352.8946 L6.5165,342.8621 L7.3385,332.8296 L5.2329,322.7971 L6.289,312.7646 L6.3033,302.732 L7.3994,292.6995 L4.0511,282.667 L5.5274,272.6345 L6.1791,262.602 L7.6845,252.5694 L4.593,242.5369 L6.34,232.5044 L6.6513,222.4719 L7.6086,212.4394 L4.0087,202.4068 L4.6498,192.3743 L4.3492,182.3418 L7.0797,172.3093 L5.0406,162.2768 L6.3838,152.2442 L4.2887,142.2117 L4.7848,132.1792 L6.3938,122.1467 L4.2594,112.1142 L4.2914,102.0816 L7.8451,92.0491 L6.2299,82.0166 L7.3987,71.9841 L7.1582,61.9516 L7.8831,51.919 L6.5723,41.8865 L5.2977,31.854 L4.0436,21.8215 L6,11.7889 L8.5,9.2889 " fill="none" style="stroke:#000000;stroke-width:4.0;"/><path d="M6,45.9188 L6,46.199 L15.7647,45.3664 L25.5294,46.1765 L35.2941,46.4517 L45.0588,44.9676 L54.8235,45.8152 L64.5882,45.3501 L74.3529,45.4075 L84.1176,45.8279 L93.8824,44.997 L103.6471,46.657 L113.4118,45.0784 L123.1765,45.6551 L132.9412,46.4947 L142.7059,45.8044 L152.4706,46.0098 L162.2353,45.8762 L172,45.9188 " fill="none" style="stroke:#000000;stroke-width:4.0;"/><text fill="#000000" font-family="Chalkduster" font-size="24" font-weight="bold" lengthAdjust="spacing" textLength="153" x="10" y="35.1298">RO-Crate 1</text></g><!--cluster json--><g id="cluster_json"><polygon fill="none" points="40.5,74.2889,40.5,74.4991,50.4577,73.8746,60.4155,74.4822,70.3732,74.6886,80.331,73.5756,90.2887,74.2112,100.2465,73.8625,110.2042,73.9055,120.162,74.2208,130.1197,73.5976,140.0775,74.8426,150.0352,73.6587,159.993,74.0912,169.9507,74.7209,179.9085,74.2032,189.8662,74.3572,199.8239,74.257,209.7817,74.4675,219.7394,74.5281,229.6972,74.8746,239.6549,74.96,249.6127,74.9682,259.5704,74.5436,269.5282,74.7525,279.4859,74.9912,289.4437,73.5678,299.4014,74.9675,309.3592,73.9924,319.3169,74.8228,329.2746,73.7939,339.2324,74.2205,349.1901,75.0306,359.1479,74.2402,369.1056,74.3943,379.0634,74.6276,389.0211,74.7052,398.9789,74.285,408.9366,74.5762,418.8944,73.7165,428.8521,74.5733,438.8099,74.8371,448.7676,74.7335,458.7254,74.902,468.6831,73.8059,478.6408,73.6368,488.5986,73.6675,498.5563,74.2301,508.5141,74.0924,518.4718,74.9704,528.4296,74.1143,538.3873,73.9459,548.3451,74.5172,558.3028,73.6221,568.2606,73.7698,578.2183,74.9379,588.1761,74.7246,598.1338,75.0234,608.0915,73.9672,618.0493,74.6081,628.007,74.8794,637.9648,73.8165,647.9225,74.1931,657.8803,74.4149,667.838,74.9407,677.7958,74.2848,687.7535,74.7515,697.7113,73.7352,707.669,73.6117,717.6268,74.7926,727.5845,73.572,737.5423,74.7979,747.5,74.2889,747.5264,74.3526,747.8194,74.3529,748.162,74.4729,748.6192,74.8696,748.876,74.7826,749.2678,75.0212,749.45,75.0967,749.244,75.3042,749.7508,75.807,749.8563,76.1436,749.929,76.4666,750,76.7889,750.0472,76.7889,750.7266,86.7981,750.6136,96.8073,750.1693,106.8165,750.2682,116.8256,749.8697,126.8348,750.7165,136.844,750.1549,146.8532,750.1726,156.8623,749.3916,166.8715,749.5948,176.8807,750.5307,186.8899,750.4298,196.899,749.9571,206.9082,749.6778,216.9174,749.7811,226.9266,749.3138,236.9357,750.4147,246.9449,750.7396,256.9541,750.5264,266.9633,750.6949,276.9724,749.8633,286.9816,750.0872,296.9908,749.6124,307,750.284,317.0091,750.2468,327.0183,750.5524,337.0275,749.7703,347.0367,749.8656,357.0458,750.4435,367.055,750.5673,377.0642,749.4875,387.0734,749.8061,397.0825,750.1493,407.0917,749.3892,417.1009,750.3534,427.1101,750.258,437.1192,749.8992,447.1284,750.1422,457.1376,750.7287,467.1467,749.6871,477.1559,750.315,487.1651,750.2856,497.1743,750.1158,507.1834,750.1409,517.1926,750.1135,527.2018,749.3758,537.211,749.5992,547.2201,749.5385,557.2293,750.0638,567.2385,750.0881,577.2477,750.1617,587.2568,749.709,597.266,749.9325,607.2752,749.8798,617.2844,750.5769,627.2935,750.4266,637.3027,749.5145,647.3119,749.9271,657.3211,749.4228,667.3302,750.2884,677.3394,750.6085,687.3486,750.5446,697.3578,749.5644,707.3669,750.464,717.3761,749.2572,727.3853,750.2002,737.3945,749.7007,747.4036,750.0967,757.4128,750.2403,767.422,750.4721,777.4312,749.2801,787.4403,750.4755,797.4495,750.1782,807.4587,750.3553,817.4678,750.7478,827.477,750.0055,837.4862,750.1753,847.4954,750.2134,857.5045,750.1972,867.5137,749.9992,877.5229,750.7107,887.5321,749.3903,897.5412,750.5653,907.5504,749.376,917.5596,749.4597,927.5688,750.04,937.5779,750.0283,947.5871,749.5072,957.5963,750.4137,967.6055,750.1089,977.6146,750.7267,987.6238,750.6671,997.633,749.5517,1007.6422,749.6021,1017.6513,749.8708,1027.6605,750.3555,1037.6697,750.403,1047.6789,750.3012,1057.688,749.658,1067.6972,750.6364,1077.7064,750.6338,1087.7156,749.9527,1097.7247,749.7609,1107.7339,749.5986,1117.7431,749.7854,1127.7523,750.1374,1137.7614,749.9316,1147.7706,749.5822,1157.7798,750,1167.7889,750.1501,1167.8511,749.7122,1168.084,749.8618,1168.5601,749.6922,1168.9041,749.5287,1169.2506,749.2678,1169.5567,749.3561,1169.77,748.8828,1169.6274,748.5223,1169.757,748.2733,1170.1559,747.7774,1169.9587,747.5,1170.2889,747.5,1170.055,737.5423,1170.4044,727.5845,1170.3576,717.6268,1169.9305,707.669,1170.246,697.7113,1171.0335,687.7535,1170.9374,677.7958,1169.6927,667.838,1170.3675,657.8803,1169.775,647.9225,1170.2626,637.9648,1170.5819,628.007,1170.7088,618.0493,1169.6242,608.0915,1170.6895,598.1338,1170.2974,588.1761,1169.7336,578.2183,1169.8179,568.2606,1170.6155,558.3028,1170.5388,548.3451,1170.2725,538.3873,1169.6168,528.4296,1170.9471,518.4718,1169.9771,508.5141,1169.7609,498.5563,1170.2216,488.5986,1170.8787,478.6408,1170.9044,468.6831,1170.3241,458.7254,1170.1378,448.7676,1170.4587,438.8099,1170.4752,428.8521,1169.7812,418.8944,1170.7029,408.9366,1170.8478,398.9789,1170.0732,389.0211,1169.8598,379.0634,1170.9636,369.1056,1170.31,359.1479,1170.2888,349.1901,1170.588,339.2324,1169.6433,329.2746,1170.8189,319.3169,1170.2735,309.3592,1170.9578,299.4014,1170.0731,289.4437,1170.6979,279.4859,1169.845,269.5282,1170.534,259.5704,1170.6682,249.6127,1169.9616,239.6549,1170.652,229.6972,1169.7175,219.7394,1169.8185,209.7817,1170.9718,199.8239,1170.9733,189.8662,1170.8574,179.9085,1169.9286,169.9507,1170.6732,159.993,1169.8169,150.0352,1170.3471,140.0775,1170.2877,130.1197,1170.0265,120.162,1170.9049,110.2042,1170.7322,100.2465,1169.9682,90.2887,1170.8156,80.331,1170.3808,70.3732,1169.7054,60.4155,1170.0556,50.4577,1169.7637,40.5,1170.2889,40.4823,1170.2461,40.0662,1169.9488,39.7163,1169.8112,39.4483,1169.8713,39.0704,1169.6661,38.7322,1169.5567,38.7142,1169.5492,38.5417,1169.1849,38.4909,1168.871,38.1219,1168.4252,38.1957,1168.1629,38,1167.7889,37.2569,1167.7889,38.296,1157.7798,38.5928,1147.7706,38.5221,1137.7614,38.3613,1127.7523,38.1922,1117.7431,38.1057,1107.7339,37.36,1097.7247,38.4465,1087.7156,38.3296,1077.7064,37.8466,1067.6972,37.9942,1057.688,37.7914,1047.6789,38.2177,1037.6697,38.6805,1027.6605,37.6461,1017.6513,38.4689,1007.6422,37.9108,997.633,37.6207,987.6238,37.5681,977.6146,37.3553,967.6055,37.5591,957.5963,38.0363,947.5871,38.273,937.5779,38.5762,927.5688,38.4201,917.5596,37.2886,907.5504,38.619,897.5412,38.4861,887.5321,38.5407,877.5229,38.5219,867.5137,37.3409,857.5045,37.7423,847.4954,38.316,837.4862,37.5185,827.477,37.8971,817.4678,38.067,807.4587,38.3261,797.4495,38.0458,787.4403,38.7447,777.4312,38.4114,767.422,38.2561,757.4128,37.4601,747.4036,38.3388,737.3945,37.4255,727.3853,38.3057,717.3761,38.0078,707.3669,38.2995,697.3578,37.9126,687.3486,37.8039,677.3394,37.2591,667.3302,37.7856,657.3211,37.2951,647.3119,37.7539,637.3027,38.4379,627.2935,38.1607,617.2844,37.5485,607.2752,38.2458,597.266,38.0656,587.2568,38.5433,577.2477,38.5649,567.2385,38.0937,557.2293,37.821,547.2201,37.7855,537.211,37.9936,527.2018,38.6691,517.1926,37.3263,507.1834,37.8361,497.1743,38.2668,487.1651,38.7317,477.1559,38.2119,467.1467,37.8018,457.1376,37.2621,447.1284,37.5762,437.1192,37.7781,427.1101,38.3398,417.1009,38.3695,407.0917,38.0518,397.0825,37.867,387.0734,37.2804,377.0642,38.129,367.055,38.4354,357.0458,38.6829,347.0367,38.0983,337.0275,38.0799,327.0183,37.7798,317.0091,38.2487,307,37.53,296.9908,38.5161,286.9816,37.6943,276.9724,37.4698,266.9633,38.2569,256.9541,38.4718,246.9449,38.0573,236.9357,37.8789,226.9266,38.1579,216.9174,37.9753,206.9082,37.9049,196.899,38.0769,186.8899,37.668,176.8807,38.3895,166.8715,38.6875,156.8623,37.6464,146.8532,37.7656,136.844,37.5314,126.8348,38.2369,116.8256,37.9062,106.8165,38.5514,96.8073,37.6998,86.7981,38,76.7889,37.8895,76.7432,38.2379,76.4733,38.2237,76.0532,38.5215,75.7623,38.6719,75.4104,38.7322,75.0212,38.7878,75.1554,39.0239,74.7254,39.4506,74.7554,39.8611,74.7466,40.0772,74.2682,40.5,74.2889" style="stroke:#181818;stroke-width:4.0;"/><text fill="#000000" font-family="Chalkduster" font-size="24" font-weight="bold" lengthAdjust="spacing" textLength="410" x="189" y="100.1298">RO-Crate Metadata Document</text><text fill="#000000" font-family="Chalkduster" font-size="24" font-weight="bold" lengthAdjust="spacing" textLength="328" x="230" y="130.7597">ro-crate-metadata.json</text></g><!--cluster data--><g id="cluster_data"><path d="M792.5,992.2889 L792.5,992.8494 L801.9286,991.1841 L811.3571,992.8044 L820.7857,993.3548 L830.2143,990.3866 L839.6429,992.0817 L849.0714,991.1516 L858.5,992.2889 L861,994.7889 L860.6661,994.7205 L862.3407,1001.6027 L863.198,1008.3174 L865.6821,1015.3657 L866.0512,1021.9803 L868,1028.9188 L868,1028.3914 L878.0326,1030.0706 L888.0652,1028.69 L898.0978,1029.1008 L908.1304,1028.8336 L918.163,1029.3949 L928.1957,1029.5565 L938.2283,1030.4806 L948.2609,1030.7083 L958.2935,1030.7301 L968.3261,1029.5978 L978.3587,1030.155 L988.3913,1030.7914 L998.4239,1026.9956 L1008.4565,1030.7281 L1018.4891,1028.1281 L1028.5217,1030.3423 L1038.5543,1027.5987 L1048.587,1028.7361 L1058.6196,1030.8964 L1068.6522,1028.7888 L1078.6848,1029.1996 L1088.7174,1029.8218 L1098.75,1030.0287 L1108.7826,1028.9084 L1118.8152,1029.6847 L1128.8478,1027.3923 L1138.8804,1029.6771 L1148.913,1030.3806 L1158.9457,1030.1042 L1168.9783,1030.5535 L1179.0109,1027.6306 L1189.0435,1027.1796 L1199.0761,1027.2617 L1209.1087,1028.7618 L1219.1413,1028.3947 L1229.1739,1030.7359 L1239.2065,1028.453 L1249.2391,1028.004 L1259.2717,1029.5275 L1269.3043,1027.1405 L1279.337,1027.5344 L1289.3696,1030.6493 L1299.4022,1030.0806 L1309.4348,1030.8774 L1319.4674,1028.0607 L1329.5,1028.9188 L1332,1031.4188 L1332.8512,1031.4188 L1333.5745,1041.5505 L1330.7403,1051.6821 L1331.7444,1061.8138 L1332.336,1071.9455 L1333.738,1082.0772 L1331.9888,1092.2088 L1333.2335,1102.3405 L1330.5232,1112.4722 L1330.194,1122.6039 L1333.343,1132.7355 L1330.0882,1142.8672 L1333.3572,1152.9989 L1332.551,1163.1306 L1331.2856,1173.2622 L1331.0566,1183.3939 L1333.2234,1193.5256 L1331.2018,1203.6573 L1332,1213.7889 L1329.5,1216.2889 L1329.5,1217.8672 L1319.5556,1214.815 L1309.6111,1217.9354 L1299.6667,1217.5804 L1289.7222,1216.9422 L1279.7778,1216.4149 L1269.8333,1218.2266 L1259.8889,1217.9252 L1249.9444,1216.7403 L1240,1217.0041 L1230.0556,1215.9416 L1220.1111,1218.1995 L1210.1667,1216.7019 L1200.2222,1216.7491 L1190.2778,1214.6667 L1180.3333,1215.2084 L1170.3889,1217.7043 L1160.4444,1217.435 L1150.5,1216.1745 L1140.5556,1215.4298 L1130.6111,1215.7051 L1120.6667,1214.4591 L1110.7222,1217.3949 L1100.7778,1218.2611 L1090.8333,1217.6927 L1080.8889,1218.1421 L1070.9444,1215.9243 L1061,1216.5215 L1051.0556,1215.2554 L1041.1111,1217.0464 L1031.1667,1216.947 L1021.2222,1217.762 L1011.2778,1215.6765 L1001.3333,1215.9305 L991.3889,1217.4715 L981.4444,1217.8018 L971.5,1214.9222 L961.5556,1215.7719 L951.6111,1216.687 L941.6667,1214.66 L931.7222,1217.2313 L921.7778,1216.9769 L911.8333,1216.0203 L901.8889,1216.6683 L891.9444,1218.2321 L882,1215.4546 L872.0556,1217.1289 L862.1111,1217.0507 L852.1667,1216.5977 L842.2222,1216.6647 L832.2778,1216.5916 L822.3333,1214.6245 L812.3889,1215.2201 L802.4444,1215.0582 L792.5,1216.2889 L790,1213.7889 L790.1702,1213.7889 L790.235,1203.8344 L790.4313,1193.8799 L789.2241,1183.9253 L789.82,1173.9708 L789.6794,1164.0162 L791.5383,1154.0617 L791.1375,1144.1071 L788.7052,1134.1526 L789.8055,1124.198 L788.4607,1114.2435 L790.769,1104.2889 L791.6226,1094.3344 L791.4522,1084.3799 L788.8385,1074.4253 L791.2372,1064.4708 L788.0192,1054.5162 L790.5337,1044.5617 L789.2018,1034.6071 L790.2579,1024.6526 L790.6409,1014.698 L791.2589,1004.7435 L790,994.7889 L792.5,992.2889 " fill="none" style="stroke:#000000;stroke-width:4.0;"/><path d="M790,1028.9188 L790,1029.199 L799.75,1028.3664 L809.5,1029.1765 L819.25,1029.4517 L829,1027.9676 L838.75,1028.8152 L848.5,1028.3501 L858.25,1028.4075 L868,1028.9188 " fill="none" style="stroke:#000000;stroke-width:4.0;"/><text fill="#000000" font-family="Chalkduster" font-size="24" font-weight="bold" lengthAdjust="spacing" textLength="65" x="794" y="1018.1298">Files</text></g><!--entity html--><g id="elem_html"><polygon fill="none" points="776.5,305.2889,776.5,305.4991,786.5545,304.8746,796.6091,305.4822,806.6636,305.6886,816.7182,304.5756,826.7727,305.2112,836.8273,304.8625,846.8818,304.9055,856.9364,305.2208,866.9909,304.5976,877.0455,305.8426,887.1,304.6587,897.1545,305.0912,907.2091,305.7209,917.2636,305.2032,927.3182,305.3572,937.3727,305.257,947.4273,305.4675,957.4818,305.5281,967.5364,305.8746,977.5909,305.96,987.6455,305.9682,997.7,305.5436,1007.7545,305.7525,1017.8091,305.9912,1027.8636,304.5678,1037.9182,305.9675,1047.9727,304.9924,1058.0273,305.8228,1068.0818,304.7939,1078.1364,305.2205,1088.1909,306.0306,1098.2455,305.2402,1108.3,305.3943,1118.3545,305.6276,1128.4091,305.7052,1138.4636,305.285,1148.5182,305.5762,1158.5727,304.7165,1168.6273,305.5733,1178.6818,305.8371,1188.7364,305.7335,1198.7909,305.902,1208.8455,304.8059,1218.9,304.6368,1228.9545,304.6675,1239.0091,305.2301,1249.0636,305.0924,1259.1182,305.9704,1269.1727,305.1143,1279.2273,304.9459,1289.2818,305.5172,1299.3364,304.6221,1309.3909,304.7698,1319.4455,305.9379,1329.5,305.2889,1329.5556,305.4231,1329.9472,305.6616,1330.1661,305.4827,1330.6014,305.8266,1330.9895,306.0566,1331.2678,306.0212,1331.1223,305.9609,1331.3847,306.3625,1331.5995,306.7444,1331.9078,307.165,1331.8523,307.4349,1332,307.7889,1332.4626,307.7889,1331.4462,317.7904,1331.3227,327.7919,1332.5036,337.7934,1331.2831,347.7949,1332.509,357.7964,1332.2066,367.7979,1331.7321,377.7994,1331.6462,387.8008,1332.4588,397.8023,1331.7007,407.8038,1332.5919,417.8053,1331.4473,427.8068,1332.6174,437.8083,1332.4843,447.8098,1332.245,457.8113,1332.0472,467.8127,1332.7266,477.8142,1332.6136,487.8157,1332.1693,497.8172,1332.2682,507.8187,1331.8697,517.8202,1332.7165,527.8217,1332.1549,537.8232,1332.1726,547.8246,1331.3916,557.8261,1332,567.8276,1331.8752,567.7759,1332.017,568.2489,1331.8395,568.5895,1331.5474,568.8828,1331.315,569.2007,1331.2678,569.5954,1331.2398,569.528,1330.8267,569.5305,1330.6136,570.016,1330.3014,570.2625,1329.9207,570.3433,1329.5,570.3276,1329.5,571.0225,1319.4455,570.1909,1309.3909,570.4148,1299.3364,569.94,1289.2818,570.6117,1279.2273,570.5744,1269.1727,570.88,1259.1182,570.098,1249.0636,570.1932,1239.0091,570.7711,1228.9545,570.895,1218.9,569.8151,1208.8455,570.1337,1198.7909,570.4769,1188.7364,569.7168,1178.6818,570.681,1168.6273,570.5856,1158.5727,570.2269,1148.5182,570.4699,1138.4636,571.0563,1128.4091,570.0147,1118.3545,570.6426,1108.3,570.6133,1098.2455,570.4434,1088.1909,570.4685,1078.1364,570.4411,1068.0818,569.7035,1058.0273,569.9268,1047.9727,569.8661,1037.9182,570.3914,1027.8636,570.4157,1017.8091,570.4894,1007.7545,570.0366,997.7,570.2601,987.6455,570.2074,977.5909,570.9045,967.5364,570.7542,957.4818,569.8421,947.4273,570.2547,937.3727,569.7504,927.3182,570.616,917.2636,570.9361,907.2091,570.8722,897.1545,569.8921,887.1,570.7916,877.0455,569.5848,866.9909,570.5278,856.9364,570.0283,846.8818,570.4243,836.8273,570.568,826.7727,570.7997,816.7182,569.6077,806.6636,570.8031,796.6091,570.5058,786.5545,570.6829,776.5,570.3276,776.5954,570.5579,776.1471,570.1829,775.8153,570.0887,775.4666,569.954,775.1109,569.8026,774.7322,569.5954,774.732,569.5953,774.8047,569.3325,774.2516,568.8105,774.467,568.6068,773.9543,568.1016,774,567.8276,773.4597,567.8276,774.04,557.8261,774.0283,547.8246,773.5072,537.8232,774.4137,527.8217,774.1089,517.8202,774.7267,507.8187,774.6671,497.8172,773.5517,487.8157,773.6021,477.8142,773.8708,467.8127,774.3555,457.8113,774.403,447.8098,774.3012,437.8083,773.658,427.8068,774.6364,417.8053,774.6338,407.8038,773.9527,397.8023,773.7609,387.8008,773.5986,377.7994,773.7854,367.7979,774.1374,357.7964,773.9316,347.7949,773.5822,337.7934,774.4874,327.7919,773.5411,317.7904,774,307.7889,774.1547,307.853,774.278,307.4899,774.4074,307.1293,774.6526,306.8166,774.5101,306.3434,774.7322,306.0212,774.6939,305.9286,775.152,306.0345,775.3632,305.5445,775.763,305.5098,776.1612,305.471,776.5,305.2889" style="stroke:#181818;stroke-width:4.0;"/><text fill="#000000" font-family="Chalkduster" font-size="24" lengthAdjust="spacing" textLength="514" x="784" y="339.1298">Web page: Human Readable Metadata</text><text fill="#000000" font-family="Chalkduster" font-size="24" lengthAdjust="spacing" textLength="302" x="784" y="369.7597">ro-crate-preview.html</text><text fill="#000000" font-family="Chalkduster" font-size="24" lengthAdjust="spacing" textLength="12" x="784" y="400.3895"> </text><text fill="#000000" font-family="Chalkduster" font-size="24" lengthAdjust="spacing" textLength="12" x="784" y="431.0193"> </text><text fill="#000000" font-family="Chalkduster" font-size="24" lengthAdjust="spacing" textLength="166" x="796" y="461.6492">Type: Object</text><text fill="#000000" font-family="Chalkduster" font-size="24" lengthAdjust="spacing" textLength="226" x="796" y="492.279">Modalty: Spoken</text><text fill="#000000" font-family="Chalkduster" font-size="24" lengthAdjust="spacing" textLength="340" x="796" y="522.9088">DateCreated: 2022-01-30</text><text fill="#000000" font-family="Chalkduster" font-size="24" lengthAdjust="spacing" textLength="49" x="796" y="553.5387">etc.</text></g><!--entity type--><g id="elem_type"><polygon fill="none" points="331.5,162.2889,331.5,162.4991,341.6,161.8746,351.7,162.4822,361.8,162.6886,371.9,161.5756,382,162.2112,392.1,161.8625,402.2,161.9055,412.3,162.2208,422.4,161.5976,432.5,162.8426,442.6,161.6587,452.7,162.0912,462.8,162.7209,472.9,162.2032,483,162.3572,493.1,162.257,503.2,162.4675,513.3,162.5281,523.4,162.8746,533.5,162.96,543.6,162.9682,553.7,162.5436,563.8,162.7525,573.9,162.9912,584,161.5678,594.1,162.9675,604.2,161.9924,614.3,162.8228,624.4,161.7939,634.5,162.2889,634.4913,162.2679,634.9482,162.6638,635.2009,162.5668,635.5741,162.7607,635.9574,162.979,636.2678,163.0212,636.3959,163.0743,636.413,163.3742,636.6491,163.7649,636.5308,164.0088,636.9411,164.4717,637,164.7889,637.5482,164.7889,637.4445,173.9149,637.613,183.0409,636.5169,192.1668,636.3478,201.2928,637,210.4188,636.8086,210.3395,636.8354,210.7648,636.6466,211.1008,636.7705,211.5664,636.3604,211.8107,636.2678,212.1866,636.224,212.0809,635.9433,212.4033,635.4756,212.2741,635.1409,212.466,634.9363,212.9722,634.5,212.9188,634.5,213.3545,624.4,213.6533,614.3,212.597,604.2,213.238,594.1,213.5092,584,212.4464,573.9,212.8229,563.8,213.0448,553.7,213.5705,543.6,212.9146,533.5,213.3814,523.4,212.365,513.3,212.2415,503.2,213.4224,493.1,212.2018,483,213.4277,472.9,213.1254,462.8,212.6509,452.7,212.565,442.6,213.3775,432.5,212.6195,422.4,213.5106,412.3,212.366,402.2,213.5362,392.1,213.4031,382,213.1638,371.9,212.966,361.8,213.6454,351.7,213.5324,341.6,213.088,331.5,212.9188,331.5342,213.0014,331.1298,212.7322,330.8843,212.8465,330.4591,212.5271,330.1078,212.3861,329.7322,212.1866,329.5449,212.1089,329.461,211.7813,329.6028,211.5471,329.4252,211.1807,329.1332,210.7669,329,210.4188,328.6778,210.4188,328.7811,201.2928,328.3138,192.1668,329.4147,183.0409,329.7396,173.9149,329,164.7889,329.1621,164.8561,329.3605,164.524,329.2508,164.0644,329.4662,163.7394,329.4664,163.3253,329.7322,163.0212,329.7685,163.1087,330.1173,162.9507,330.5098,162.8984,330.7636,162.5111,331.1293,162.394,331.5,162.2889" style="stroke:#181818;stroke-width:4.0;"/><text fill="#000000" font-family="Chalkduster" font-size="24" lengthAdjust="spacing" textLength="288" x="339" y="196.1298">What type of data &#127358;️</text></g><!--entity who--><g id="elem_who"><polygon fill="none" points="303,412.2889,303,412.4991,313,411.8746,323,412.4822,333,412.6886,343,411.5756,353,412.2112,363,411.8625,373,411.9055,383,412.2208,393,411.5976,403,412.8426,413,411.6587,423,412.0912,433,412.7209,443,412.2032,453,412.3572,463,412.257,473,412.4675,483,412.5281,493,412.8746,503,412.96,513,412.9682,523,412.5436,533,412.7525,543,412.9912,553,411.5678,563,412.9675,573,411.9924,583,412.8228,593,411.7939,603,412.2205,613,413.0306,623,412.2402,633,412.3943,643,412.6276,653,412.7052,663,412.2889,662.9995,412.2877,663.3902,412.5238,663.6341,412.4056,664.0969,412.8159,664.4841,413.0436,664.7678,413.0212,664.9047,413.0779,665.103,413.4529,664.9119,413.6667,665.0063,413.9986,665.1622,414.3561,665.5,414.7889,665.4411,414.7889,665.3035,423.9149,666.1814,433.0409,665.3253,442.1668,665.1569,451.2928,665.5,460.4188,665.5703,460.4479,665.1482,460.6873,665.0472,461.0597,665.2605,461.5622,665.0484,461.8886,664.7678,462.1866,664.8615,462.4127,664.3732,462.2339,664.1014,462.5777,663.7824,462.8077,663.2933,462.6269,663,462.9188,663,462.8229,653,463.0448,643,463.5705,633,462.9146,623,463.3814,613,462.365,603,462.2415,593,463.4224,583,462.2018,573,463.4277,563,463.1254,553,462.6509,543,462.565,533,463.3775,523,462.6195,513,463.5106,503,462.366,493,463.5362,483,463.4031,473,463.1638,463,462.966,453,463.6454,443,463.5324,433,463.088,423,463.187,413,462.7885,403,463.6352,393,463.0737,383,463.0914,373,462.3104,363,462.5136,353,463.4495,343,463.3485,333,462.8759,323,462.5966,313,462.6999,303,462.9188,302.9125,462.7075,302.6994,462.9001,302.3872,462.8536,302.0065,462.6416,301.6744,462.547,301.2322,462.1866,301.1901,462.1691,301.1126,461.8441,300.82,461.43,300.8804,461.1621,300.7224,460.8038,300.5,460.4188,301.0524,460.4188,300.2703,451.2928,300.3656,442.1668,300.9435,433.0409,301.0673,423.9149,300.5,414.7889,300.3422,414.7236,300.5867,414.4107,300.8389,414.1009,300.7512,413.6504,301.1946,413.4198,301.2322,413.0212,301.2651,413.1006,301.5729,412.8437,301.9575,412.7721,302.3858,412.8062,302.6065,412.339,303,412.2889" style="stroke:#181818;stroke-width:4.0;"/><text fill="#000000" font-family="Chalkduster" font-size="24" lengthAdjust="spacing" textLength="345" x="310.5" y="446.1298">&#129489; Who was involved &#129489;&#127997;‍&#128300;</text></g><!--entity what--><g id="elem_what"><polygon fill="none" points="316.5,631.2889,316.5,631.4991,326.5909,630.8746,336.6818,631.4822,346.7727,631.6886,356.8636,630.5756,366.9545,631.2112,377.0455,630.8625,387.1364,630.9055,397.2273,631.2208,407.3182,630.5976,417.4091,631.8426,427.5,630.6587,437.5909,631.0912,447.6818,631.7209,457.7727,631.2032,467.8636,631.3572,477.9545,631.257,488.0455,631.4675,498.1364,631.5281,508.2273,631.8746,518.3182,631.96,528.4091,631.9682,538.5,631.5436,548.5909,631.7525,558.6818,631.9912,568.7727,630.5678,578.8636,631.9675,588.9545,630.9924,599.0455,631.8228,609.1364,630.7939,619.2273,631.2205,629.3182,632.0306,639.4091,631.2402,649.5,631.2889,649.5134,631.3214,649.8967,631.5397,650.2602,631.71,650.5602,631.7271,650.9509,631.9632,651.2678,632.0212,651.0915,631.9482,651.5018,632.411,651.7295,632.7982,651.844,633.1385,652.0423,633.5136,652,633.7889,651.5169,633.7889,651.3478,642.9149,651.3786,652.0409,651.9411,661.1668,651.8035,670.2928,652,679.4188,652.2098,679.5057,651.7998,679.7501,651.6015,680.0821,651.631,680.5086,651.2089,680.7479,651.2678,681.1866,651.2015,681.0267,650.997,681.5328,650.6162,681.6136,650.3008,681.8521,649.8125,681.6732,649.5,681.9188,649.5,682.238,639.4091,682.5092,629.3182,681.4464,619.2273,681.8229,609.1364,682.0448,599.0455,682.5705,588.9545,681.9146,578.8636,682.3814,568.7727,681.365,558.6818,681.2415,548.5909,682.4224,538.5,681.2018,528.4091,682.4277,518.3182,682.1254,508.2273,681.6509,498.1364,681.565,488.0455,682.3775,477.9545,681.6195,467.8636,682.5106,457.7727,681.366,447.6818,682.5362,437.5909,682.4031,427.5,682.1638,417.4091,681.966,407.3182,682.6454,397.2273,682.5324,387.1364,682.088,377.0455,682.187,366.9545,681.7885,356.8636,682.6352,346.7727,682.0737,336.6818,682.0914,326.5909,681.3104,316.5,681.9188,316.4483,681.794,316.2141,681.9358,315.8477,681.7582,315.4339,681.4662,315.0447,681.2338,314.7322,681.1866,314.6648,681.1586,314.3745,680.7455,314.5671,680.5323,314.5206,680.2202,314.3086,679.8395,314,679.4188,314.6949,679.4188,313.8633,670.2928,314.0872,661.1668,313.6124,652.0409,314.284,642.9149,314,633.7889,314.076,633.8204,314.3166,633.5059,314.2222,633.0525,314.3979,632.7111,314.7224,632.4313,314.7322,632.0212,314.8046,632.1959,315.0204,631.7169,315.4146,631.6686,315.8119,631.6278,316.0685,631.2473,316.5,631.2889" style="stroke:#181818;stroke-width:4.0;"/><text fill="#000000" font-family="Chalkduster" font-size="24" lengthAdjust="spacing" textLength="318" x="324" y="665.1298">❓ What is this about ❓</text></g><!--entity where--><g id="elem_where"><polygon fill="none" points="281.5,743.2889,281.5,743.4991,291.575,742.8746,301.65,743.4822,311.725,743.6886,321.8,742.5756,331.875,743.2112,341.95,742.8625,352.025,742.9055,362.1,743.2208,372.175,742.5976,382.25,743.8426,392.325,742.6587,402.4,743.0912,412.475,743.7209,422.55,743.2032,432.625,743.3572,442.7,743.257,452.775,743.4675,462.85,743.5281,472.925,743.8746,483,743.96,493.075,743.9682,503.15,743.5436,513.225,743.7525,523.3,743.9912,533.375,742.5678,543.45,743.9675,553.525,742.9924,563.6,743.8228,573.675,742.7939,583.75,743.2205,593.825,744.0306,603.9,743.2402,613.975,743.3943,624.05,743.6276,634.125,743.7052,644.2,743.285,654.275,743.5762,664.35,742.7165,674.425,743.5733,684.5,743.2889,684.5699,743.4578,684.9103,743.5723,685.2853,743.7706,685.499,743.5795,685.831,743.6739,686.2678,744.0212,686.0764,743.9419,686.3961,744.3672,686.5001,744.7032,686.917,745.1688,686.7998,745.4131,687,745.7889,686.6569,745.7889,687.2283,754.9149,686.3332,764.0409,686.4809,773.1668,687.649,782.2928,687,791.4188,687.1342,791.4744,687.0797,791.866,686.608,792.0848,686.659,792.5202,686.596,792.9083,686.2678,793.1866,686.2075,793.0411,685.902,793.3035,685.5767,793.5182,685.2902,793.8266,684.853,793.771,684.5,793.9188,684.5,794.3814,674.425,793.365,664.35,793.2415,654.275,794.4224,644.2,793.2018,634.125,794.4277,624.05,794.1254,613.975,793.6509,603.9,793.565,593.825,794.3775,583.75,793.6195,573.675,794.5106,563.6,793.366,553.525,794.5362,543.45,794.4031,533.375,794.1638,523.3,793.966,513.225,794.6454,503.15,794.5324,493.075,794.088,483,794.187,472.925,793.7885,462.85,794.6352,452.775,794.0737,442.7,794.0914,432.625,793.3104,422.55,793.5136,412.475,794.4495,402.4,794.3485,392.325,793.8759,382.25,793.5966,372.175,793.6999,362.1,793.2326,352.025,794.3335,341.95,794.6583,331.875,794.4452,321.8,794.6137,311.725,793.7821,301.65,794.006,291.575,793.5312,281.5,793.9188,281.5362,794.0063,281.1779,793.8483,280.8634,793.796,280.41,793.4087,280.0686,793.2916,279.7322,793.1866,279.8688,793.2431,279.7605,792.9054,279.2815,792.4141,279.2332,792.1012,279.1924,791.7914,279,791.4188,278.3892,791.4188,279.3534,782.2928,279.258,773.1668,278.8992,764.0409,279.1422,754.9149,279,745.7889,279.2244,745.8819,279.0501,745.3955,279.3899,745.122,279.5273,744.7647,279.6214,744.3895,279.7322,744.0212,279.7502,744.0646,280.1003,743.9097,280.3597,743.5361,280.7418,743.4584,281.0876,743.2933,281.5,743.2889" style="stroke:#181818;stroke-width:4.0;"/><text fill="#000000" font-family="Chalkduster" font-size="24" lengthAdjust="spacing" textLength="388" x="289" y="777.1298">&#128506;️ Where was it collected &#128506;️</text></g><!--entity files--><g id="elem_files"><polygon fill="none" points="303,855.2889,303,855.4991,313,854.8746,323,855.4822,333,855.6886,343,854.5756,353,855.2112,363,854.8625,373,854.9055,383,855.2208,393,854.5976,403,855.8426,413,854.6587,423,855.0912,433,855.7209,443,855.2032,453,855.3572,463,855.257,473,855.4675,483,855.5281,493,855.8746,503,855.96,513,855.9682,523,855.5436,533,855.7525,543,855.9912,553,854.5678,563,855.9675,573,854.9924,583,855.8228,593,854.7939,603,855.2205,613,856.0306,623,855.2402,633,855.3943,643,855.6276,653,855.7052,663,855.2889,662.9995,855.2877,663.3902,855.5238,663.6341,855.4056,664.0969,855.8159,664.4841,856.0436,664.7678,856.0212,664.9047,856.0779,665.103,856.4529,664.9119,856.6667,665.0063,856.9986,665.1622,857.3561,665.5,857.7889,665.4411,857.7889,665.3035,866.9149,666.1814,876.0409,665.3253,885.1668,665.1569,894.2928,665.5,903.4188,665.5703,903.4479,665.1482,903.6873,665.0472,904.0597,665.2605,904.5622,665.0484,904.8886,664.7678,905.1866,664.8615,905.4127,664.3732,905.2339,664.1014,905.5777,663.7824,905.8077,663.2933,905.6269,663,905.9188,663,905.8229,653,906.0448,643,906.5705,633,905.9146,623,906.3814,613,905.365,603,905.2415,593,906.4224,583,905.2018,573,906.4277,563,906.1254,553,905.6509,543,905.565,533,906.3775,523,905.6195,513,906.5106,503,905.366,493,906.5362,483,906.4031,473,906.1638,463,905.966,453,906.6454,443,906.5324,433,906.088,423,906.187,413,905.7885,403,906.6352,393,906.0737,383,906.0914,373,905.3104,363,905.5136,353,906.4495,343,906.3485,333,905.8759,323,905.5966,313,905.6999,303,905.9188,302.9125,905.7075,302.6994,905.9001,302.3872,905.8536,302.0065,905.6416,301.6744,905.547,301.2322,905.1866,301.1901,905.1691,301.1126,904.8441,300.82,904.43,300.8804,904.1621,300.7224,903.8038,300.5,903.4188,301.0524,903.4188,300.2703,894.2928,300.3656,885.1668,300.9435,876.0409,301.0673,866.9149,300.5,857.7889,300.3422,857.7236,300.5867,857.4107,300.8389,857.1009,300.7512,856.6504,301.1946,856.4198,301.2322,856.0212,301.2651,856.1006,301.5729,855.8437,301.9575,855.7721,302.3858,855.8062,302.6065,855.339,303,855.2889" style="stroke:#181818;stroke-width:4.0;"/><text fill="#000000" font-family="Chalkduster" font-size="24" lengthAdjust="spacing" textLength="345" x="310.5" y="889.1298">&#128193; What is in each file &#128193;</text></g><!--entity lic--><g id="elem_lic"><polygon fill="none" points="64.5,1095.2889,64.5,1095.4991,74.5154,1094.8746,84.5308,1095.4822,94.5462,1095.6886,104.5615,1094.5756,114.5769,1095.2112,124.5923,1094.8625,134.6077,1094.9055,144.6231,1095.2208,154.6385,1094.5976,164.6538,1095.8426,174.6692,1094.6587,184.6846,1095.0912,194.7,1095.7209,204.7154,1095.2032,214.7308,1095.3572,224.7462,1095.257,234.7615,1095.4675,244.7769,1095.5281,254.7923,1095.8746,264.8077,1095.96,274.8231,1095.9682,284.8385,1095.5436,294.8538,1095.7525,304.8692,1095.9912,314.8846,1094.5678,324.9,1095.9675,334.9154,1094.9924,344.9308,1095.8228,354.9462,1094.7939,364.9615,1095.2205,374.9769,1096.0306,384.9923,1095.2402,395.0077,1095.3943,405.0231,1095.6276,415.0385,1095.7052,425.0538,1095.285,435.0692,1095.5762,445.0846,1094.7165,455.1,1095.5733,465.1154,1095.8371,475.1308,1095.7335,485.1462,1095.902,495.1615,1094.8059,505.1769,1094.6368,515.1923,1094.6675,525.2077,1095.2301,535.2231,1095.0924,545.2385,1095.9704,555.2538,1095.1143,565.2692,1094.9459,575.2846,1095.5172,585.3,1094.6221,595.3154,1094.7698,605.3308,1095.9379,615.3462,1095.7246,625.3615,1096.0234,635.3769,1094.9672,645.3923,1095.6081,655.4077,1095.8794,665.4231,1094.8165,675.4385,1095.1931,685.4538,1095.4149,695.4692,1095.9407,705.4846,1095.2848,715.5,1095.2889,715.559,1095.4314,715.7829,1095.2649,716.1207,1095.3733,716.6249,1095.8834,716.8228,1095.6539,717.2678,1096.0212,717.4245,1096.0861,717.4778,1096.4011,717.4782,1096.6941,717.5982,1097.0367,717.9948,1097.4939,718,1097.7889,717.7007,1097.7889,718.5919,1106.9149,717.4473,1116.0409,718.6174,1125.1668,718.4843,1134.2928,718,1143.4188,718.0754,1143.45,717.8681,1143.7784,717.9309,1144.2186,717.7496,1144.5577,717.4663,1144.8546,717.2678,1145.1866,717.302,1145.2691,716.8976,1145.2929,716.6521,1145.7001,716.2269,1145.6736,715.8756,1145.8255,715.5,1145.9188,715.5,1145.3104,705.4846,1145.5136,695.4692,1146.4495,685.4538,1146.3485,675.4385,1145.8759,665.4231,1145.5966,655.4077,1145.6999,645.3923,1145.2326,635.3769,1146.3335,625.3615,1146.6583,615.3462,1146.4452,605.3308,1146.6137,595.3154,1145.7821,585.3,1146.006,575.2846,1145.5312,565.2692,1146.2028,555.2538,1146.1655,545.2385,1146.4712,535.2231,1145.6891,525.2077,1145.7844,515.1923,1146.3622,505.1769,1146.4861,495.1615,1145.4063,485.1462,1145.7249,475.1308,1146.068,465.1154,1145.3079,455.1,1146.2722,445.0846,1146.1768,435.0692,1145.818,425.0538,1146.061,415.0385,1146.6475,405.0231,1145.6059,395.0077,1146.2338,384.9923,1146.2044,374.9769,1146.0346,364.9615,1146.0597,354.9462,1146.0323,344.9308,1145.2946,334.9154,1145.518,324.9,1145.4572,314.8846,1145.9826,304.8692,1146.0069,294.8538,1146.0805,284.8385,1145.6278,274.8231,1145.8513,264.8077,1145.7986,254.7923,1146.4956,244.7769,1146.3453,234.7615,1145.4332,224.7462,1145.8459,214.7308,1145.3416,204.7154,1146.2072,194.7,1146.5273,184.6846,1146.4633,174.6692,1145.4832,164.6538,1146.3828,154.6385,1145.176,144.6231,1146.1189,134.6077,1145.6195,124.5923,1146.0155,114.5769,1146.1591,104.5615,1146.3909,94.5462,1145.1989,84.5308,1146.3943,74.5154,1146.097,64.5,1145.9188,64.5453,1146.0282,64.2418,1146.0026,63.7936,1145.6276,63.4617,1145.5334,63.113,1145.3987,62.7322,1145.1866,62.793,1145.2117,62.5855,1144.8329,62.6582,1144.5701,62.1051,1144.0481,62.3205,1143.8444,62,1143.4188,61.376,1143.4188,61.4597,1134.2928,62.04,1125.1668,62.0283,1116.0409,61.5072,1106.9149,62,1097.7889,62.1274,1097.8417,62.18,1097.4493,62.5167,1097.1745,62.6448,1096.8134,62.4477,1096.3176,62.7322,1096.0212,62.6815,1095.8986,63.0693,1095.835,63.4847,1095.8378,63.8443,1095.7059,64.1849,1095.5281,64.5,1095.2889" style="stroke:#181818;stroke-width:4.0;"/><text fill="#000000" font-family="Chalkduster" font-size="24" lengthAdjust="spacing" textLength="636" x="72" y="1129.1298">♻️ How can data be resued and by whom ♻️</text></g><!--entity lict--><g id="elem_lict"><polygon fill="none" points="1132.5,1095.2889,1132.5,1095.4991,1142.6765,1094.8746,1152.8529,1095.4822,1163.0294,1095.6886,1173.2059,1094.5756,1183.3824,1095.2112,1193.5588,1094.8625,1203.7353,1094.9055,1213.9118,1095.2208,1224.0882,1094.5976,1234.2647,1095.8426,1244.4412,1094.6587,1254.6176,1095.0912,1264.7941,1095.7209,1274.9706,1095.2032,1285.1471,1095.3572,1295.3235,1095.257,1305.5,1095.2889,1305.5228,1095.3439,1305.8841,1095.509,1306.2818,1095.7622,1306.6463,1095.9349,1307.0009,1096.0839,1307.2678,1096.0212,1307.3462,1096.0537,1307.557,1096.4339,1307.7769,1096.8179,1307.485,1096.9898,1308.0625,1097.5219,1308,1097.7889,1307.7035,1097.7889,1308.5338,1106.9149,1307.505,1116.0409,1307.9315,1125.1668,1308.7416,1134.2928,1308,1143.4188,1307.985,1143.4126,1307.886,1143.7858,1307.8114,1144.1691,1307.6888,1144.5325,1307.413,1144.8325,1307.2678,1145.1866,1307.3044,1145.275,1306.8412,1145.1567,1306.5969,1145.567,1306.277,1145.7947,1305.9103,1145.9092,1305.5,1145.9188,1305.5,1146.5318,1295.3235,1145.4357,1285.1471,1145.2666,1274.9706,1145.2974,1264.7941,1145.8599,1254.6176,1145.7223,1244.4412,1146.6002,1234.2647,1145.7441,1224.0882,1145.5757,1213.9118,1146.1471,1203.7353,1145.2519,1193.5588,1145.3997,1183.3824,1146.5677,1173.2059,1146.3545,1163.0294,1146.6533,1152.8529,1145.597,1142.6765,1146.238,1132.5,1145.9188,1132.5753,1146.1006,1132.0862,1145.6269,1131.7807,1145.5964,1131.4554,1145.5182,1131.1689,1145.5337,1130.7322,1145.1866,1130.7309,1145.186,1130.7282,1144.892,1130.2688,1144.4088,1130.0843,1144.0395,1130.3015,1143.8366,1130,1143.4188,1129.2831,1143.4188,1130.509,1134.2928,1130.2066,1125.1668,1129.7321,1116.0409,1129.6462,1106.9149,1130,1097.7889,1130.1413,1097.8475,1130.0543,1097.3972,1130.4752,1097.1573,1130.2691,1096.6578,1130.7759,1096.4535,1130.7322,1096.0212,1130.794,1096.1703,1131.117,1095.9502,1131.4454,1095.7428,1131.8856,1095.8056,1132.2247,1095.6244,1132.5,1095.2889" style="stroke:#181818;stroke-width:4.0;"/><text fill="#000000" font-family="Chalkduster" font-size="24" lengthAdjust="spacing" textLength="158" x="1140" y="1129.1298">LICENSE.txt</text></g><!--entity data/\n   transcriptions/\n   audio/\n   video/--><g id="elem_data/\n   transcriptions/\n   audio/\n   video/"><polygon fill="none" points="835.5,1049.2889,835.5,1049.4991,845.3846,1048.8746,855.2692,1049.4822,865.1538,1049.6886,875.0385,1048.5756,884.9231,1049.2112,894.8077,1048.8625,904.6923,1048.9055,914.5769,1049.2208,924.4615,1048.5976,934.3462,1049.8426,944.2308,1048.6587,954.1154,1049.0912,964,1049.7209,973.8846,1049.2032,983.7692,1049.3572,993.6538,1049.257,1003.5385,1049.4675,1013.4231,1049.5281,1023.3077,1049.8746,1033.1923,1049.96,1043.0769,1049.9682,1052.9615,1049.5436,1062.8462,1049.7525,1072.7308,1049.9912,1082.6154,1048.5678,1092.5,1049.2889,1092.5866,1049.4979,1092.8157,1049.3441,1093.2752,1049.7462,1093.4975,1049.5758,1093.9055,1049.8536,1094.2678,1050.0212,1094.4962,1050.1158,1094.3992,1050.3685,1094.5931,1050.7417,1094.8114,1051.125,1094.9817,1051.4885,1095,1051.7889,1094.9961,1051.7889,1095.2872,1061.6118,1094.4276,1071.4346,1095.2844,1081.2574,1095.5482,1091.0802,1095.4445,1100.903,1095.613,1110.7258,1094.5169,1120.5486,1094.3478,1130.3714,1094.3786,1140.1942,1094.9411,1150.017,1094.8035,1159.8399,1095.6814,1169.6627,1094.8253,1179.4855,1095,1189.3083,1094.8944,1189.2645,1094.9239,1189.691,1094.5017,1189.9303,1094.4008,1190.3027,1094.6141,1190.8053,1094.2678,1191.076,1094.3233,1191.2102,1094.0079,1191.4487,1093.5196,1191.2698,1093.2478,1191.6137,1092.9289,1191.8437,1092.5,1191.8083,1092.5,1191.3359,1082.6154,1191.7124,1072.7308,1191.9343,1062.8462,1192.46,1052.9615,1191.8041,1043.0769,1192.2709,1033.1923,1191.2545,1023.3077,1191.131,1013.4231,1192.3119,1003.5385,1191.0913,993.6538,1192.3172,983.7692,1192.0149,973.8846,1191.5404,964,1191.4545,954.1154,1192.267,944.2308,1191.509,934.3462,1192.4001,924.4615,1191.2555,914.5769,1192.4257,904.6923,1192.2926,894.8077,1192.0533,884.9231,1191.8555,875.0385,1192.5349,865.1538,1192.4219,855.2692,1191.9775,845.3846,1192.0765,835.5,1191.8083,835.4834,1191.7682,835.2378,1191.8825,834.8126,1191.5631,834.4614,1191.4221,834.0082,1191.0351,833.7322,1191.076,833.6074,1191.0244,833.7492,1190.7902,833.5717,1190.4238,833.2797,1190.0099,833.0472,1189.6207,833,1189.3083,832.7811,1189.3083,832.3138,1179.4855,833.4147,1169.6627,833.7396,1159.8399,833.5264,1150.017,833.6949,1140.1942,832.8633,1130.3714,833.0872,1120.5486,832.6124,1110.7258,833.284,1100.903,833.2468,1091.0802,833.5524,1081.2574,832.7703,1071.4346,832.8656,1061.6118,833,1051.7889,833.1366,1051.8455,833.3212,1051.5078,833.1351,1051.0165,833.3796,1050.7036,833.6318,1050.3938,833.7322,1050.0212,833.6543,1049.8331,834.1309,1049.9836,834.4722,1049.8077,834.78,1049.5508,835.1646,1049.4792,835.5,1049.2889" style="stroke:#181818;stroke-width:4.0;"/><text fill="#000000" font-family="Chalkduster" font-size="24" lengthAdjust="spacing" textLength="80" x="843" y="1083.1298">data/</text><text fill="#000000" font-family="Chalkduster" font-size="24" lengthAdjust="spacing" textLength="206" x="879" y="1113.7597">transcriptions/</text><text fill="#000000" font-family="Chalkduster" font-size="24" lengthAdjust="spacing" textLength="94" x="879" y="1144.3895">audio/</text><text fill="#000000" font-family="Chalkduster" font-size="24" lengthAdjust="spacing" textLength="91" x="879" y="1175.0193">video/</text></g><!--link files to data--><g id="link_files_data"><path d="M605.14,906.7389 L605.1697,906.8275 L608.4753,907.7031 L611.955,909.0978 L615.378,910.3234 L618.6145,910.9931 L622.1092,912.4324 L622.097,912.4001 L625.4645,913.5472 L628.8934,914.8571 L632.3651,916.2803 L635.6894,917.3133 L639.2202,918.8929 L639.3167,919.1192 L642.522,920.0897 L646.0091,921.721 L649.5306,923.433 L652.8521,924.6758 L656.2788,926.1654 L656.292,926.1927 L659.6351,927.7786 L663.0383,929.4888 L666.4125,931.139 L669.8421,932.9036 L673.0913,934.2952 L673.2353,934.5563 L676.5115,936.366 L679.6948,938.0071 L683.0141,939.8949 L686.3398,941.7942 L689.4635,943.3273 L689.2919,943.0566 L692.7727,945.5779 L695.6882,947.2079 L699.0335,949.5154 L701.9363,951.1252 L705.2017,953.3069 L705.1837,953.2824 L708.3791,955.7668 L711.1529,957.6783 L714.1755,959.9279 L717.219,962.2059 L720.1119,964.2791 L720.2329,964.419 L722.8883,966.6797 L725.7506,969.1796 L728.2783,971.2926 L731.305,973.9826 L734,976.2889 L734.1759,976.4575 L735.9344,978.2951 L737.7802,980.2164 L739.2203,981.7487 L740.9578,983.5662 L742.9588,985.6362 L742.7427,985.4643 L744.5659,987.6661 L746.1457,989.6741 L748.0786,991.9632 L749.4085,993.7725 L751.0968,995.8669 L750.9704,995.7818 L752.6513,998.1064 L753.7916,1000.067 L755.3163,1002.2864 L757.2172,1004.7592 L758.4482,1006.7809 L758.6158,1006.8779 L760.0505,1009.2239 L760.964,1011.268 L762.5304,1013.6902 L763.9545,1016.03 L765.0472,1018.1779 L764.8597,1018.0834 L766.1853,1020.4946 L767.4495,1022.8749 L768.8343,1025.3159 L769.7501,1027.5207 L770.9279,1029.8575 L771.116,1029.9406 L771.7421,1032.1105 L772.7312,1034.4407 L774.2506,1037.0052 L774.7938,1039.1384 L776.1246,1041.6196 L776.3353,1041.7019 L777.1195,1043.9819 L777.8324,1046.234 L778.7062,1048.549 L779.9519,1051.0092 L780.6714,1053.2639 L780.5457,1053.2203 L781.7061,1055.6155 L782.0117,1057.7139 L783.2893,1060.1497 L784.0196,1062.3955 L784.6025,1064.5902 L784.7065,1064.6224 L785.2925,1066.758 L786.2508,1069.009 L786.8728,1071.1557 L787.3541,1073.2588 L787.9521,1075.3981 L788.0668,1075.4308 L788.19,1076.4117 L788.8453,1077.5442 L788.8988,1078.5052 L789.1999,1079.5368 L789.4196,1080.5451 L789.1589,1080.4733 L789.3152,1080.7485 L789.7854,1081.1101 L789.8113,1081.3493 L789.678,1081.5447 L789.7656,1081.8009 L789.6274,1081.7632 L789.7057,1081.8999 L789.5393,1081.9698 L790.0454,1082.2232 L790.2186,1082.3858 L789.9355,1082.4239 " fill="none" style="stroke:#8B0000;stroke-width:4.0;"/><polygon fill="#8B0000" points="789.9355,1082.4239,790.0047,1082.4345,790.0988,1080.456,790.5988,1078.54,790.9667,1076.6037,790.8998,1074.6004,791.4347,1072.6898,791.4122,1072.6769,790.7492,1073.601,790.1994,1074.5899,789.7285,1075.624,788.9861,1076.5026,788.624,1077.5989,788.7156,1077.7591,787.5377,1076.8545,786.6275,1076.4174,785.75,1076.0375,784.6824,1075.3255,783.7148,1074.7882,783.7324,1074.8026,784.9507,1076.3086,786.2492,1077.8801,787.509,1079.4199,788.8427,1081.02,789.9355,1082.4239" style="stroke:#8B0000;stroke-width:4.0;"/><text fill="#000000" font-family="Chalkduster" font-size="24" lengthAdjust="spacing" textLength="110" x="725" y="961.1298">Describe</text></g><!--link type to who--><!--link who to what--><!--link what to where--><!--link where to files--><!--link files to lic--><!--link lic to lict--><g id="link_lic_lict"><path d="M432.83,1094.8489 L432.8766,1094.9299 L435.6366,1093.0198 L438.6698,1091.5843 L441.6141,1089.9942 L444.2656,1087.896 L447.3224,1086.5012 L447.3054,1086.4711 L450.477,1084.508 L453.734,1082.6966 L457.0504,1080.9907 L460.1622,1078.9213 L463.5606,1077.361 L463.679,1077.5767 L466.9959,1075.1558 L470.6585,1073.3646 L474.3633,1071.6502 L477.8227,1069.4888 L481.4112,1067.5626 L481.4255,1067.5893 L485.2704,1065.4855 L489.1804,1063.5035 L493.059,1061.4627 L496.9975,1059.534 L500.7408,1057.2399 L500.878,1057.5047 L505.0147,1055.3654 L509.0629,1053.0553 L513.2407,1050.9952 L517.4245,1048.9468 L521.416,1046.5271 L521.2724,1046.2405 L525.9286,1044.6029 L530.1119,1042.0218 L534.6547,1040.1579 L538.8274,1037.5554 L543.3034,1035.5583 L543.2902,1035.5309 L548.04,1033.6369 L552.4805,1031.1025 L557.1035,1028.946 L561.7418,1026.8212 L566.2696,1024.4675 L566.3474,1024.6354 L571.0512,1022.2502 L575.8879,1020.1519 L580.5097,1017.5895 L585.4521,1015.7194 L590.1813,1013.3889 L590.2798,1013.6118 L595.2059,1011.3832 L600.1809,1009.2652 L604.9286,1006.6332 L609.8429,1004.378 L614.9049,1002.4566 L614.7981,1002.2019 L619.9752,1000.3021 L625.032,998.1153 L630.2633,996.3447 L635.1966,993.8634 L640.3071,991.8046 L640.2503,991.6631 L642.9276,990.863 L645.3623,989.458 L647.9695,988.4831 L650.7455,987.9291 L653.2209,986.6256 L653.291,986.8062 L655.9457,985.9183 L658.3826,984.4689 L661.0924,983.7227 L663.7427,982.8234 L666.2544,981.5671 L666.1808,981.3704 L668.8668,980.5429 L671.5287,979.6509 L674.2379,978.8854 L676.7629,977.6281 L679.3909,976.6456 L679.4606,976.839 L681.9519,975.4605 L684.5779,974.4554 L687.4004,973.9956 L689.861,972.5318 L692.6136,971.878 L692.6875,972.0918 L695.3021,971.0454 L697.8916,969.9267 L700.5376,968.9713 L703.3141,968.3932 L705.9059,967.2811 L705.8642,967.1548 L708.6575,966.649 L711.1669,965.284 L713.9991,964.8959 L716.6496,963.9579 L719.2511,962.8716 L719.2838,962.9755 L721.9337,962.0505 L724.7005,961.4975 L727.3618,960.6086 L729.9789,959.5791 L732.6326,958.6663 L732.6666,958.7805 L735.2963,957.8139 L738.0838,957.3777 L740.6929,956.3416 L743.3753,955.5523 L746.0337,954.6819 L745.9609,954.4215 L748.666,953.7591 L751.4587,953.4104 L754.1274,952.6178 L756.7517,951.6662 L759.4376,950.9352 L759.4015,950.7966 L762.0911,950.1426 L764.7167,949.2432 L767.5182,949.0182 L770.2327,948.4595 L772.8277,947.443 L772.8826,947.6704 L775.5721,947.099 L778.1574,946.0955 L780.8526,945.5481 L783.4751,944.6987 L786.1874,944.222 L786.2146,944.3453 L788.8735,943.7425 L791.5653,943.2885 L794.153,942.3625 L796.8246,941.8172 L799.5,941.2889 L799.5424,941.4814 L804.207,940.5115 L808.7566,939.019 L813.4399,938.1335 L818.1254,937.2587 L822.764,936.1702 L822.7013,935.9061 L827.1297,935.2953 L831.4493,934.2264 L835.7419,933.0436 L840.0963,932.121 L844.4111,931.0318 L844.489,931.3461 L852.2347,928.95 L860.1588,927.274 L868.0127,925.3146 L875.8516,923.2945 L883.6963,921.2977 L883.7107,921.3586 L887.3197,920.4878 L890.8556,919.3099 L894.4903,918.5476 L898.0958,917.6624 L901.755,917.003 L901.7609,917.0307 L905.2199,916.2988 L908.6834,915.5883 L912.0978,914.6491 L915.5753,914.0037 L919.0383,913.2905 L919.0289,913.2379 L922.4269,912.9469 L925.7588,912.2852 L929.0313,911.2902 L932.4072,910.8747 L935.7565,910.3107 L935.7239,910.0562 L939.0455,910.0185 L942.3363,909.7402 L945.6054,909.2927 L948.8227,908.4413 L952.12,908.2139 L952.1335,908.4197 L955.3422,907.6719 L958.6135,907.8775 L961.8428,907.4433 L965.0981,907.4063 L968.3391,907.1508 L968.3399,907.2576 L971.5977,907.3848 L974.8508,906.8792 L978.1117,907.4347 L981.3678,907.3268 L984.6242,907.2718 L984.638,907.4291 L987.9656,907.8939 L991.249,907.8564 L994.5679,908.2226 L997.8817,908.5306 L1001.1856,908.7272 L1001.2005,908.8136 L1004.5952,909.315 L1008.0586,910.2147 L1011.3684,910.2245 L1014.8668,911.3272 L1018.2337,911.6677 L1018.1645,911.3992 L1021.7228,912.3504 L1025.3362,913.5153 L1028.884,914.4254 L1032.3752,915.1164 L1035.9789,916.2436 L1036.0382,916.4177 L1039.725,917.5618 L1043.5442,919.0941 L1047.2661,920.3414 L1050.8366,921.1446 L1054.6314,922.6055 L1054.5657,922.4413 L1056.5565,923.3318 L1058.5831,924.3113 L1060.5374,925.1104 L1062.467,925.8479 L1064.3637,926.5032 L1064.3026,926.364 L1066.4848,927.6423 L1068.492,928.5214 L1070.378,929.1243 L1072.3514,929.9264 L1074.4017,930.9038 L1074.3252,930.7426 L1076.4348,931.8021 L1078.5759,932.9279 L1080.6106,933.8297 L1082.618,934.6739 L1084.7717,935.8261 L1084.87,936.0191 L1086.8248,936.7369 L1089.1643,938.2102 L1091.2948,939.273 L1093.4293,940.3437 L1095.5,941.2889 L1095.6551,941.5548 L1097.6115,942.4582 L1099.7658,943.7009 L1102.1159,945.2792 L1104.0326,946.1145 L1106.3328,947.6073 L1106.2732,947.5221 L1108.4226,949.0912 L1110.471,950.516 L1112.4225,951.8023 L1114.5632,953.359 L1116.6345,954.8165 L1116.844,955.0727 L1118.7721,956.6381 L1120.377,957.8082 L1122.5219,959.6389 L1124.3104,961.0334 L1126.4101,962.8087 L1126.4021,962.8002 L1128.35,964.6372 L1130.2394,966.4118 L1131.7607,967.7933 L1133.9352,969.8723 L1135.6644,971.4758 L1135.6671,971.4784 L1137.2327,973.153 L1139.0075,975.0256 L1141.0126,977.116 L1142.7354,978.9394 L1144.4023,980.7099 L1144.3968,980.7052 L1145.8199,982.4552 L1147.916,984.7764 L1149.2326,986.436 L1150.8047,988.3125 L1152.6289,990.4029 L1152.6052,990.3847 L1154.3807,992.5715 L1155.9338,994.5872 L1157.2733,996.4389 L1158.7517,998.3972 L1160.349,1000.4469 L1160.4108,1000.4903 L1161.8604,1002.5519 L1163.0517,1004.4321 L1164.8307,1006.7248 L1166.3271,1008.8192 L1167.5675,1010.7339 L1167.4869,1010.682 L1168.7516,1012.715 L1170.5082,1015.0653 L1171.6085,1016.9922 L1172.9449,1019.0715 L1174.2894,1021.156 L1174.4035,1021.224 L1175.2889,1023.0988 L1176.9837,1025.4562 L1178.0216,1027.4218 L1179.5288,1029.6674 L1180.5195,1031.605 L1180.4356,1031.5585 L1181.8272,1033.7667 L1182.6443,1035.6566 L1184.0608,1037.8786 L1185.2617,1039.9811 L1186.2629,1041.973 L1186.1336,1041.9062 L1187.4585,1044.0829 L1188.1419,1045.928 L1189.234,1047.9844 L1190.7417,1050.2556 L1191.5244,1052.1521 L1191.7981,1052.2846 L1192.7087,1054.2386 L1193.294,1056.0351 L1194.5488,1058.1558 L1195.1632,1059.9663 L1196.3089,1062.0342 L1196.3324,1062.0449 L1197.1709,1063.9294 L1197.9277,1065.7768 L1199.1456,1067.8339 L1199.9382,1069.6975 L1200.6214,1071.5114 L1200.4899,1071.4564 L1202.2831,1075.0631 L1203.5505,1078.4501 L1204.7192,1081.796 L1206.3086,1085.3175 L1207.85,1088.8189 " fill="none" style="stroke:#8B0000;stroke-width:4.0;"/><polygon fill="#8B0000" points="1209.65,1093.4689,1209.72,1093.4725,1209.6114,1091.4947,1209.913,1089.5377,1210.081,1087.5739,1209.8097,1085.5879,1210.1465,1083.6326,1210.1228,1083.6221,1209.5577,1084.6091,1209.112,1085.6491,1208.7492,1086.7258,1208.1004,1087.6757,1207.8522,1088.8033,1207.9271,1088.972,1206.7329,1088.1524,1205.7572,1087.8254,1204.8082,1087.5584,1203.7041,1086.9418,1202.6815,1086.509,1202.6976,1086.5251,1204.0677,1087.8935,1205.511,1089.3351,1206.9189,1090.7414,1208.3943,1092.2151,1209.65,1093.4689" style="stroke:#8B0000;stroke-width:4.0;"/></g><!--reverse link json to html--><g id="link_json_html"><path d="M750.0681,195.2248 L750.1263,195.2978 L751.0348,195.9432 L752.2846,197.0167 L753.4233,197.9509 L754.1963,198.4265 L755.4755,199.5368 L755.4539,199.5098 L761.9139,204.617 L768.4825,209.8604 L775.1266,215.1984 L781.5105,220.2103 L788.2588,225.6789 L788.719,226.2561 L795.3749,231.1142 L803.3745,237.6574 L811.5381,244.4062 L818.7478,249.9588 L826.516,256.2116 L834.0728,262.1995 L841.8878,268.5112 L849.5783,274.6667 L857.5065,281.1203 L865.2175,287.3016 L872.8645,293.4024 L880.1516,299.0521 L887.58,304.8789 " fill="none" style="stroke:#8B0000;stroke-width:4.0;"/><polygon fill="#8B0000" points="750.0681,195.2248,750.1303,195.2571,750.8541,196.9088,751.9424,198.7499,752.912,200.5294,753.4913,202.106,754.6109,203.9634,754.5851,203.9605,754.3429,202.8232,754.2304,201.7006,754.2082,200.5881,753.875,199.4406,753.9773,198.3421,753.998,198.5255,755.0781,198.0066,756.2185,198.0232,757.3662,198.1051,758.4711,197.8069,759.5986,197.7086,759.6043,197.7306,757.6898,197.2015,755.8014,196.7726,753.9004,196.2954,752.0234,195.9105,750.0681,195.2248" style="stroke:#8B0000;stroke-width:4.0;"/><text fill="#000000" font-family="Chalkduster" font-size="24" lengthAdjust="spacing" textLength="182" x="843" y="268.1298">Derived from</text></g><!--SRC=[RLF1RjD04BtlLmovsqd3BGSkIQiYKIgrI3bGXDQxatfRUzUormaHYWG7ZgX2HK8SK8vS-80A11-J7o2VmCmwhQpWM5djpfjvyzRp_CXObTKQN-VIBY6E-rfw6T51NcAEraULNsOO-pTUY4AgQmf3x-mq6fVI8npq0DuAe5-9oajxcRNH4_IIwM3YLCra5xPqaM8iodTOV5KvsmDP0MzsPB37E4sb1xyi4DmC0kDs_U7FtxkRK1W0qL6sNN__1DFKmOAoZ9sxR8uQEBfTt_pUlFkuNN_-4IWMgUiYs7oxXT3RK9UK5fcusWE5GnMLIT_T-CjFKaUrM6BJtODoMKOfGK60xpaufvlbzlr3UsC1fKfXPWXY95JpgUeitdpznGgEtGAKjCrBIv0ogfeKIAiXMVArSsWo0rrcL4Essf_f51CeQFOZEAx97726DBqaQyqOMiCjIfmRNCIfpxCBom-ye26Du3Iv8auwdZWjCxySmNdXhf4J9bGuBf5MFOBXO3YC1WVHum4Xw5KSv35T4FPWn2E-FtcGm21YPv-My6TFnuVFpm_PmFTNzFybSMsVEW7uKjfAbQRmnjcgYSbQ6zTivqQZw_TsRtmbLgAPGAJTmaPF6X4Zc21p92Y2DGFuCZLQetr5IMms-dV4oKsyT23a4T4uPHyB0jeoMXXTLl1Ccwq7mMyGehgWGFZSM6ff-AkObIuN_m00]--></g></svg>