<?xml version="1.0" encoding="UTF-8" standalone="no"?><svg xmlns="http://www.w3.org/2000/svg" xmlns:xlink="http://www.w3.org/1999/xlink" contentStyleType="text/css" height="1150px" preserveAspectRatio="none" style="width:1684px;height:1150px;background:#FFFFFF;" version="1.1" viewBox="0 0 1684 1150" width="1684px" zoomAndPan="magnify"><defs/><g><!--cluster RO-Crate 1--><g id="cluster_RO-Crate 1"><path d="M8.5,9.2889 L8.5,9.8494 L18.7667,8.1841 L29.0333,9.8044 L39.3,10.3548 L49.5667,7.3866 L59.8333,9.0817 L70.1,8.1516 L80.3667,8.2663 L90.6333,9.1072 L100.9,7.4453 L111.1667,10.7653 L121.4333,7.6082 L131.7,8.7616 L141.9667,10.4408 L152.2333,9.0602 L162.5,9.2889 L165,11.7889 L165.0594,11.8011 L166.3722,18.6092 L167.9555,25.4728 L169.4082,32.3096 L171.11,39.1974 L172,45.9188 L172,47.7083 L182.0167,47.7301 L192.0333,46.5978 L202.05,47.155 L212.0667,47.7914 L222.0833,43.9956 L232.1,47.7281 L242.1167,45.1281 L252.1333,47.3423 L262.15,44.5987 L272.1667,45.7361 L282.1833,47.8964 L292.2,45.7888 L302.2167,46.1996 L312.2333,46.8218 L322.25,47.0287 L332.2667,45.9084 L342.2833,46.6847 L352.3,44.3923 L362.3167,46.6771 L372.3333,47.3806 L382.35,47.1042 L392.3667,47.5535 L402.3833,44.6306 L412.4,44.1796 L422.4167,44.2617 L432.4333,45.7618 L442.45,45.3947 L452.4667,47.7359 L462.4833,45.453 L472.5,45.004 L482.5167,46.5275 L492.5333,44.1405 L502.55,44.5344 L512.5667,47.6493 L522.5833,47.0806 L532.6,47.8774 L542.6167,45.0607 L552.6333,46.77 L562.65,47.4932 L572.6667,44.659 L582.6833,45.6632 L592.7,46.2547 L602.7167,47.6568 L612.7333,45.9076 L622.75,47.1523 L632.7667,44.442 L642.7833,44.1128 L652.8,47.2618 L662.8167,44.0069 L672.8333,47.276 L682.85,46.4698 L692.8667,45.2043 L702.8833,44.9754 L712.9,47.1421 L722.9167,45.1206 L732.9333,47.4971 L742.95,44.4448 L752.9667,47.5653 L762.9833,47.2103 L773,46.572 L783.0167,46.0447 L793.0333,47.8564 L803.05,47.555 L813.0667,46.3701 L823.0833,46.634 L833.1,45.5714 L843.1167,47.8293 L853.1333,46.3318 L863.15,46.379 L873.1667,44.2965 L883.1833,44.8382 L893.2,47.3341 L903.2167,47.0648 L913.2333,45.8043 L923.25,45.0597 L933.2667,45.335 L943.2833,44.089 L953.3,47.0247 L963.3167,47.891 L973.3333,47.3225 L983.35,47.7719 L993.3667,45.5542 L1003.3833,46.1514 L1013.4,44.8852 L1023.4167,46.6762 L1033.4333,46.5768 L1043.45,47.3918 L1053.4667,45.3064 L1063.4833,45.5604 L1073.5,47.1013 L1083.5167,47.4317 L1093.5333,44.552 L1103.55,45.4018 L1113.5667,46.3168 L1123.5833,44.2899 L1133.6,46.8612 L1143.6167,46.6068 L1153.6333,45.6501 L1163.65,46.2981 L1173.6667,47.8619 L1183.6833,45.0845 L1193.7,46.7587 L1203.7167,46.6805 L1213.7333,46.2275 L1223.75,46.2946 L1233.7667,46.2214 L1243.7833,44.2544 L1253.8,44.8499 L1263.8167,44.688 L1273.8333,46.089 L1283.85,46.1538 L1293.8667,46.3501 L1303.8833,45.1428 L1313.9,45.7387 L1323.9167,45.5982 L1333.9333,47.4571 L1343.95,47.0563 L1353.9667,44.624 L1363.9833,45.7243 L1374,44.3795 L1384.0167,46.6878 L1394.0333,47.5414 L1404.05,47.371 L1414.0667,44.7573 L1424.0833,47.156 L1434.1,43.938 L1444.1167,46.4525 L1454.1333,45.1206 L1464.15,46.1767 L1474.1667,46.5597 L1484.1833,47.1777 L1494.2,43.999 L1504.2167,47.1867 L1514.2333,46.3939 L1524.25,46.8663 L1534.2667,47.9129 L1544.2833,45.9334 L1554.3,46.3862 L1564.3167,46.488 L1574.3333,46.4447 L1584.35,45.9166 L1594.3667,47.814 L1604.3833,44.2928 L1614.4,47.4262 L1624.4167,44.2548 L1634.4333,44.4779 L1644.45,46.0255 L1654.4667,45.9942 L1664.4833,44.6046 L1674.5,45.9188 L1677,48.4188 L1678.1032,48.4188 L1677.2903,58.4405 L1678.9378,68.4623 L1678.7789,78.484 L1675.8046,88.5058 L1675.9389,98.5275 L1676.6555,108.5493 L1677.9481,118.571 L1678.0746,128.5927 L1677.8031,138.6145 L1676.0881,148.6362 L1678.6969,158.658 L1678.6901,168.6797 L1676.8739,178.7015 L1676.3625,188.7232 L1675.9296,198.745 L1676.4278,208.7667 L1677.3664,218.7884 L1676.8176,228.8102 L1675.8859,238.8319 L1678.2997,248.8537 L1675.7762,258.8754 L1678.3397,268.8972 L1678.1393,278.9189 L1677.9916,288.9407 L1678.8467,298.9624 L1676.3443,308.9841 L1676.1983,319.0059 L1678.3837,329.0276 L1675.4083,339.0494 L1676.376,349.0711 L1677.308,359.0929 L1677.1832,369.1146 L1676.0441,379.1364 L1676.8854,389.1581 L1678.9856,399.1798 L1678.7293,409.2016 L1675.4099,419.2233 L1677.2094,429.2451 L1675.6296,439.2668 L1676.9298,449.2886 L1677.7813,459.3103 L1678.1197,469.3321 L1675.2274,479.3538 L1678.0681,489.3755 L1677.0224,499.3973 L1675.5191,509.419 L1675.7439,519.4408 L1677.8709,529.4625 L1677.6663,539.4843 L1676.9561,549.506 L1675.2077,559.5278 L1678.755,569.5495 L1676.1684,579.5712 L1675.5918,589.593 L1676.8205,599.6147 L1678.5726,609.6365 L1678.6411,619.6582 L1677.0937,629.68 L1676.5969,639.7017 L1677.4528,649.7235 L1677.4966,659.7452 L1675.6459,669.767 L1678.1039,679.7887 L1678.4901,689.8104 L1676.4246,699.8322 L1675.8555,709.8539 L1678.7991,719.8757 L1677.056,729.8974 L1676.9996,739.9192 L1677.7974,749.9409 L1675.2782,759.9627 L1678.4133,769.9844 L1676.9588,780.0061 L1678.7835,790.0279 L1676.4244,800.0496 L1678.0907,810.0714 L1675.816,820.0931 L1677.6534,830.1149 L1678.0114,840.1366 L1676.1271,850.1584 L1677.968,860.1801 L1675.4762,870.2018 L1675.7454,880.2236 L1678.8209,890.2453 L1678.825,900.2671 L1678.516,910.2888 L1676.039,920.3106 L1678.0246,930.3323 L1675.7412,940.3541 L1677.1551,950.3758 L1676.9967,960.3975 L1676.3002,970.4193 L1678.6424,980.441 L1678.1821,990.4628 L1676.1447,1000.4845 L1678.4043,1010.5063 L1677.245,1020.528 L1675.4438,1030.5498 L1676.3778,1040.5715 L1675.5993,1050.5932 L1676.6291,1060.615 L1675.3227,1070.6367 L1675.3996,1080.6585 L1677.1875,1090.6802 L1676.679,1100.702 L1676.8438,1110.7237 L1676.6181,1120.7455 L1677.4462,1130.7672 L1677,1140.7889 L1674.5,1143.2889 L1674.5,1141.8087 L1664.524,1143.7158 L1654.5479,1141.3072 L1644.5719,1144.0783 L1634.5958,1144.8696 L1624.6198,1144.6812 L1614.6437,1144.2525 L1604.6677,1143.8015 L1594.6916,1143.5709 L1584.7156,1141.5822 L1574.7395,1144.4797 L1564.7635,1144.168 L1554.7874,1142.88 L1544.8114,1143.2735 L1534.8353,1142.7327 L1524.8593,1143.8695 L1514.8832,1145.1037 L1504.9072,1142.3452 L1494.9311,1144.5393 L1484.9551,1143.0511 L1474.979,1142.2776 L1465.003,1142.1373 L1455.0269,1141.5698 L1445.0509,1142.1133 L1435.0749,1143.3857 L1425.0988,1144.0169 L1415.1228,1144.8255 L1405.1467,1144.4092 L1395.1707,1141.392 L1385.1946,1144.9397 L1375.2186,1144.5853 L1365.2425,1144.7308 L1355.2665,1144.6806 L1345.2904,1141.5313 L1335.3144,1142.6017 L1325.3383,1144.1315 L1315.3623,1142.005 L1305.3862,1143.0146 L1295.4102,1143.4676 L1285.4341,1144.1585 L1275.4581,1143.411 L1265.482,1145.2749 L1255.506,1144.386 L1245.5299,1143.9718 L1235.5539,1141.8492 L1225.5778,1144.1923 L1215.6018,1141.757 L1205.6257,1144.1041 L1195.6497,1143.3098 L1185.6737,1144.0875 L1175.6976,1143.0558 L1165.7216,1142.766 L1155.7455,1141.3133 L1145.7695,1142.7172 L1135.7934,1141.4092 L1125.8174,1142.6326 L1115.8413,1144.4566 L1105.8653,1143.7175 L1095.8892,1142.0849 L1085.9132,1143.9445 L1075.9371,1143.4639 L1065.9611,1144.7376 L1055.985,1144.7955 L1046.009,1143.5387 L1036.0329,1142.8117 L1026.0569,1142.7171 L1016.0808,1143.2719 L1006.1048,1145.0733 L996.1287,1141.4924 L986.1527,1142.852 L976.1766,1144.0003 L966.2006,1145.2401 L956.2246,1143.854 L946.2485,1142.7603 L936.2725,1141.3211 L926.2964,1142.1588 L916.3204,1142.6972 L906.3443,1144.1952 L896.3683,1144.2742 L886.3922,1143.4271 L876.4162,1142.9344 L866.4401,1141.37 L856.4641,1143.6329 L846.488,1144.4501 L836.512,1145.1099 L826.5359,1143.5511 L816.5599,1143.5021 L806.5838,1142.7018 L796.6078,1143.9522 L786.6317,1142.0357 L776.6557,1144.6651 L766.6796,1142.4738 L756.7036,1141.8751 L746.7275,1143.974 L736.7515,1144.5472 L726.7754,1143.4417 L716.7994,1142.9659 L706.8234,1143.7099 L696.8473,1143.2231 L686.8713,1143.0353 L676.8952,1143.4939 L666.9192,1142.4037 L656.9431,1144.3277 L646.9671,1145.1222 L636.991,1142.3461 L627.015,1142.664 L617.0389,1142.0394 L607.0629,1143.9208 L597.0868,1143.0388 L587.1108,1144.7593 L577.1347,1142.4883 L567.1587,1142.3319 L557.1826,1144.0805 L547.2066,1142.6902 L537.2305,1144.0008 L527.2545,1144.0347 L517.2784,1144.4512 L507.3024,1141.996 L497.3263,1143.5237 L487.3503,1144.7158 L477.3743,1141.8408 L467.3982,1144.6339 L457.4222,1142.3834 L447.4461,1143.7069 L437.4701,1145.0296 L427.494,1141.6078 L417.518,1145.2146 L407.5419,1143.08 L397.5659,1142.4198 L387.5898,1145.2392 L377.6138,1141.4551 L367.6377,1144.9039 L357.6617,1142.2188 L347.6856,1144.0626 L337.7096,1145.2357 L327.7335,1142.8928 L317.7575,1142.1496 L307.7814,1142.2934 L297.8054,1142.8029 L287.8293,1144.0784 L277.8533,1141.8083 L267.8772,1144.6528 L257.9012,1144.7942 L247.9251,1141.4168 L237.9491,1142.9083 L227.9731,1142.055 L217.997,1143.7478 L208.021,1141.3917 L198.0449,1143.6507 L188.0689,1144.2455 L178.0928,1143.1588 L168.1168,1143.7047 L158.1407,1143.3267 L148.1647,1143.9482 L138.1886,1145.2034 L128.2126,1145.0432 L118.2365,1144.0084 L108.2605,1143.4182 L98.2844,1143.9387 L88.3084,1143.6965 L78.3323,1143.8026 L68.3563,1144.5099 L58.3802,1141.3393 L48.4042,1144.4418 L38.4281,1144.6385 L28.4521,1141.4629 L18.476,1144.9714 L8.5,1143.2889 L6,1140.7889 L6.3595,1140.7889 L5.6446,1130.7978 L4.2827,1120.8066 L5.1196,1110.8155 L7.6637,1100.8243 L4.4357,1090.8332 L7.454,1080.842 L5.3906,1070.8509 L6.8422,1060.8597 L4.6868,1050.8686 L5.3747,1040.8774 L7.8092,1030.8863 L6.6658,1020.8951 L5.4776,1010.904 L6.5995,1000.9128 L7.4658,990.9217 L6.5414,980.9305 L7.6516,970.9394 L7.3332,960.9482 L6.4732,950.9571 L5.6539,940.9659 L5.2458,930.9748 L5.0243,920.9836 L6.7405,910.9925 L6.0949,901.0013 L7.6467,891.0102 L5.0978,881.019 L5.6075,871.0279 L4.1198,861.0367 L6.9126,851.0456 L4.2492,841.0544 L4.1064,831.0633 L5.201,821.0721 L5.0737,811.081 L6.6823,801.0898 L4.9264,791.0987 L7.9465,781.1075 L5.4676,771.1164 L6.5165,761.1252 L7.3385,751.1341 L5.2329,741.1429 L6.289,731.1518 L6.3033,721.1606 L7.3994,711.1695 L4.0511,701.1783 L5.5274,691.1872 L6.1791,681.196 L7.6845,671.2049 L4.593,661.2137 L6.34,651.2226 L6.6513,641.2314 L7.6086,631.2403 L4.0087,621.2491 L4.6498,611.258 L4.3492,601.2668 L7.0797,591.2757 L5.0406,581.2845 L6.3838,571.2934 L4.2887,561.3022 L4.7848,551.3111 L6.3938,541.3199 L4.2594,531.3288 L4.2914,521.3376 L7.8451,511.3465 L6.2299,501.3553 L7.3987,491.3642 L7.1582,481.373 L7.8831,471.3819 L6.5723,461.3907 L5.2977,451.3996 L4.0436,441.4084 L7.7297,431.4173 L4.6902,421.4261 L4.798,411.435 L4.1873,401.4438 L7.0566,391.4527 L5.6788,381.4615 L4.7031,371.4704 L5.7507,361.4792 L6.155,351.4881 L4.4833,341.4969 L7.5554,331.5058 L5.9727,321.5146 L4.887,311.5235 L5.5132,301.5323 L7.8332,291.5412 L4.1952,281.55 L6.5227,271.5589 L5.7738,261.5677 L4.4506,251.5766 L6.5281,241.5854 L7.7332,231.5943 L7.0923,221.6031 L6.9371,211.612 L4.0092,201.6208 L6.4431,191.6297 L4.5446,181.6385 L7.0463,171.6474 L7.0818,161.6562 L4.5554,151.6651 L5.5889,141.6739 L6.7883,131.6828 L6.0527,121.6916 L6.745,111.7005 L7.6935,101.7093 L6.0032,91.7182 L5.9061,81.727 L7.5751,71.7359 L5.3939,61.7447 L5.5857,51.7536 L6.4411,41.7624 L5.1257,31.7713 L6.7451,21.7801 L6,11.7889 L8.5,9.2889 " fill="none" style="stroke:#000000;stroke-width:4.0;"/><path d="M6,45.9188 L6,46.199 L15.7647,45.3664 L25.5294,46.1765 L35.2941,46.4517 L45.0588,44.9676 L54.8235,45.8152 L64.5882,45.3501 L74.3529,45.4075 L84.1176,45.8279 L93.8824,44.997 L103.6471,46.657 L113.4118,45.0784 L123.1765,45.6551 L132.9412,46.4947 L142.7059,45.8044 L152.4706,46.0098 L162.2353,45.8762 L172,45.9188 " fill="none" style="stroke:#000000;stroke-width:4.0;"/><text fill="#000000" font-family="Chalkduster" font-size="24" font-weight="bold" lengthAdjust="spacing" textLength="153" x="10" y="35.1298">RO-Crate 1</text></g><!--cluster Machine Readable Metadata\nro-crate-metadata.json--><g id="cluster_Machine Readable Metadata\nro-crate-metadata.json"><polygon fill="none" points="598.5,85.2889,598.5,85.4991,608.5441,84.8746,618.5882,85.4822,628.6324,85.6886,638.6765,84.5756,648.7206,85.2112,658.7647,84.8625,668.8088,84.9055,678.8529,85.2208,688.8971,84.5976,698.9412,85.8426,708.9853,84.6587,719.0294,85.0912,729.0735,85.7209,739.1176,85.2032,749.1618,85.3572,759.2059,85.257,769.25,85.4675,779.2941,85.5281,789.3382,85.8746,799.3824,85.96,809.4265,85.9682,819.4706,85.5436,829.5147,85.7525,839.5588,85.9912,849.6029,84.5678,859.6471,85.9675,869.6912,84.9924,879.7353,85.8228,889.7794,84.7939,899.8235,85.2205,909.8676,86.0306,919.9118,85.2402,929.9559,85.3943,940,85.6276,950.0441,85.7052,960.0882,85.285,970.1324,85.5762,980.1765,84.7165,990.2206,85.5733,1000.2647,85.8371,1010.3088,85.7335,1020.3529,85.902,1030.3971,84.8059,1040.4412,84.6368,1050.4853,84.6675,1060.5294,85.2301,1070.5735,85.0924,1080.6176,85.9704,1090.6618,85.1143,1100.7059,84.9459,1110.75,85.5172,1120.7941,84.6221,1130.8382,84.7698,1140.8824,85.9379,1150.9265,85.7246,1160.9706,86.0234,1171.0147,84.9672,1181.0588,85.6081,1191.1029,85.8794,1201.1471,84.8165,1211.1912,85.1931,1221.2353,85.4149,1231.2794,85.9407,1241.3235,85.2848,1251.3676,85.7515,1261.4118,84.7352,1271.4559,84.6117,1281.5,85.2889,1281.5642,85.444,1281.7621,85.2146,1282.272,85.7386,1282.587,85.7919,1282.88,85.7922,1283.2678,86.0212,1283.1588,85.9761,1283.5555,86.4333,1283.4685,86.6901,1283.8894,87.1573,1283.6833,87.3649,1284,87.7889,1284.6174,87.7889,1284.4843,97.81,1284.245,107.8311,1284.0472,117.8521,1284.7266,127.8732,1284.6136,137.8942,1284.1693,147.9153,1284.2682,157.9363,1283.8697,167.9574,1284.7165,177.9784,1284.1549,187.9995,1284.1726,198.0205,1283.3916,208.0416,1283.5948,218.0626,1284.5307,228.0837,1284.4298,238.1047,1283.9571,248.1258,1283.6778,258.1468,1283.7811,268.1679,1283.3138,278.1889,1284.4147,288.21,1284.7396,298.2311,1284.5264,308.2521,1284.6949,318.2732,1283.8633,328.2942,1284.0872,338.3153,1283.6124,348.3363,1284.284,358.3574,1284.2468,368.3784,1284.5524,378.3995,1283.7703,388.4205,1283.8656,398.4416,1284.4435,408.4626,1284.5673,418.4837,1283.4875,428.5047,1283.8061,438.5258,1284.1493,448.5468,1283.3892,458.5679,1284.3534,468.5889,1284.258,478.61,1283.8992,488.6311,1284.1422,498.6521,1284.7287,508.6732,1283.6871,518.6942,1284.315,528.7153,1284.2856,538.7363,1284.1158,548.7574,1284.1409,558.7784,1284.1135,568.7995,1283.3758,578.8205,1283.5992,588.8416,1283.5385,598.8626,1284.0638,608.8837,1284.0881,618.9047,1284.1617,628.9258,1283.709,638.9468,1283.9325,648.9679,1283.8798,658.9889,1284.5769,669.01,1284.4266,679.0311,1283.5145,689.0521,1283.9271,699.0732,1283.4228,709.0942,1284.2884,719.1153,1284.6085,729.1363,1284.5446,739.1574,1283.5644,749.1784,1284.464,759.1995,1283.2572,769.2205,1284.2002,779.2416,1283.7007,789.2626,1284.0967,799.2837,1284.2403,809.3047,1284.4721,819.3258,1283.2801,829.3468,1284.4755,839.3679,1284.1782,849.3889,1284.3553,859.41,1284.7478,869.4311,1284.0055,879.4521,1284.1753,889.4732,1284.2134,899.4942,1284.1972,909.5153,1283.9992,919.5363,1284.7107,929.5574,1283.3903,939.5784,1284.5653,949.5995,1283.376,959.6205,1283.4597,969.6416,1284.04,979.6626,1284.0283,989.6837,1283.5072,999.7047,1284.4137,1009.7258,1284.1089,1019.7468,1284.7267,1029.7679,1284,1039.7889,1284.2054,1039.874,1283.7155,1040.0853,1283.5846,1040.4453,1283.5209,1040.8331,1283.5237,1041.2485,1283.2678,1041.5567,1283.3192,1041.6808,1282.9526,1041.7959,1282.517,1041.7443,1282.2883,1042.192,1281.9344,1042.3377,1281.5,1042.2889,1281.5,1042.2417,1271.4559,1042.0499,1261.4118,1041.8876,1251.3676,1042.0744,1241.3235,1042.4264,1231.2794,1042.2206,1221.2353,1041.8712,1211.1912,1042.7763,1201.1471,1041.83,1191.1029,1042.7913,1181.0588,1042.7162,1171.0147,1042.6608,1160.9706,1042.9814,1150.9265,1042.0431,1140.8824,1041.9883,1130.8382,1042.8078,1120.7941,1041.6921,1110.75,1042.055,1100.7059,1042.4044,1090.6618,1042.3576,1080.6176,1041.9305,1070.5735,1042.246,1060.5294,1043.0335,1050.4853,1042.9374,1040.4412,1041.6927,1030.3971,1042.3675,1020.3529,1041.775,1010.3088,1042.2626,1000.2647,1042.5819,990.2206,1042.7088,980.1765,1041.6242,970.1324,1042.6895,960.0882,1042.2974,950.0441,1041.7336,940,1041.8179,929.9559,1042.6155,919.9118,1042.5388,909.8676,1042.2725,899.8235,1041.6168,889.7794,1042.9471,879.7353,1041.9771,869.6912,1041.7609,859.6471,1042.2216,849.6029,1042.8787,839.5588,1042.9044,829.5147,1042.3241,819.4706,1042.1378,809.4265,1042.4587,799.3824,1042.4752,789.3382,1041.7812,779.2941,1042.7029,769.25,1042.8478,759.2059,1042.0732,749.1618,1041.8598,739.1176,1042.9636,729.0735,1042.31,719.0294,1042.2888,708.9853,1042.588,698.9412,1041.6433,688.8971,1042.8189,678.8529,1042.2735,668.8088,1042.9578,658.7647,1042.0731,648.7206,1042.6979,638.6765,1041.845,628.6324,1042.534,618.5882,1042.6682,608.5441,1041.9616,598.5,1042.2889,598.5463,1042.4007,598.0736,1041.9665,597.7329,1041.8512,597.5264,1042.0599,597.1731,1041.9139,596.7322,1041.5567,596.9073,1041.6292,596.4748,1041.1572,596.5577,1040.8986,596.1475,1040.4358,596.1644,1040.1499,596,1039.7889,595.9987,1039.7889,595.7376,1029.7679,596.6159,1019.7468,596.4433,1009.7258,595.6792,999.7047,596.5266,989.6837,596.0919,979.6626,595.4164,969.6416,595.7667,959.6205,595.4747,949.5995,595.8609,939.5784,595.371,929.5574,595.3998,919.5363,596.0703,909.5153,595.8796,899.4942,595.9414,889.4732,595.8568,879.4521,596.1673,869.4311,595.4449,859.41,596.1601,849.3889,595.2569,839.3679,596.296,829.3468,596.5928,819.3258,596.5221,809.3047,596.3613,799.2837,596.1922,789.2626,596.1057,779.2416,595.36,769.2205,596.4465,759.1995,596.3296,749.1784,595.8466,739.1574,595.9942,729.1363,595.7914,719.1153,596.2177,709.0942,596.6805,699.0732,595.6461,689.0521,596.4689,679.0311,595.9108,669.01,595.6207,658.9889,595.5681,648.9679,595.3553,638.9468,595.5591,628.9258,596.0363,618.9047,596.273,608.8837,596.5762,598.8626,596.4201,588.8416,595.2886,578.8205,596.619,568.7995,596.4861,558.7784,596.5407,548.7574,596.5219,538.7363,595.3409,528.7153,595.7423,518.6942,596.316,508.6732,595.5185,498.6521,595.8971,488.6311,596.067,478.61,596.3261,468.5889,596.0458,458.5679,596.7447,448.5468,596.4114,438.5258,596.2561,428.5047,595.4601,418.4837,596.3388,408.4626,595.4255,398.4416,596.3057,388.4205,596.0078,378.3995,596.2995,368.3784,595.9126,358.3574,595.8039,348.3363,595.2591,338.3153,595.7856,328.2942,595.2951,318.2732,595.7539,308.2521,596.4379,298.2311,596.1607,288.21,595.5485,278.1889,596.2458,268.1679,596.0656,258.1468,596.5433,248.1258,596.5649,238.1047,596.0937,228.0837,595.821,218.0626,595.7855,208.0416,595.9936,198.0205,596.6691,187.9995,595.3263,177.9784,595.8361,167.9574,596.2668,157.9363,596.7317,147.9153,596.2119,137.8942,595.8018,127.8732,595.2621,117.8521,595.5762,107.8311,595.7781,97.81,596,87.7889,596.1047,87.8323,596.2602,87.4825,596.3088,87.0885,596.3984,86.7113,596.3642,86.2829,596.7322,86.0212,596.7487,86.0609,597.1413,86.0088,597.5264,85.9386,597.8054,85.6121,598.1566,85.46,598.5,85.2889" style="stroke:#181818;stroke-width:4.0;"/><text fill="#000000" font-family="Chalkduster" font-size="24" font-weight="bold" lengthAdjust="spacing" textLength="387" x="746.5" y="111.1298">Machine Readable Metadata</text><text fill="#000000" font-family="Chalkduster" font-size="24" font-weight="bold" lengthAdjust="spacing" textLength="328" x="776" y="141.7597">ro-crate-metadata.json</text></g><!--cluster data--><g id="cluster_data"><path d="M1318.5,857.2889 L1318.5,857.8494 L1327.9286,856.1841 L1337.3571,857.8044 L1346.7857,858.3548 L1356.2143,855.3866 L1365.6429,857.0817 L1375.0714,856.1516 L1384.5,857.2889 L1387,859.7889 L1386.6661,859.7205 L1388.3407,866.6027 L1389.198,873.3174 L1391.6821,880.3657 L1392.0512,886.9803 L1394,893.9188 L1394,893.3914 L1403.94,895.0706 L1413.88,893.69 L1423.82,894.1008 L1433.76,893.8336 L1443.7,894.3949 L1453.64,894.5565 L1463.58,895.4806 L1473.52,895.7083 L1483.46,895.7301 L1493.4,894.5978 L1503.34,895.155 L1513.28,895.7914 L1523.22,891.9956 L1533.16,895.7281 L1543.1,893.1281 L1553.04,895.3423 L1562.98,892.5987 L1572.92,893.7361 L1582.86,895.8964 L1592.8,893.7888 L1602.74,894.1996 L1612.68,894.8218 L1622.62,895.0287 L1632.56,893.9084 L1642.5,893.9188 L1645,896.4188 L1645.7659,896.4188 L1643.4736,906.5316 L1645.7584,916.6445 L1646.4619,926.7574 L1646.1854,936.8702 L1646.6347,946.9831 L1643.7118,957.096 L1643.2608,967.2088 L1643.3429,977.3217 L1644.843,987.4346 L1644.4759,997.5474 L1646.8171,1007.6603 L1644.5342,1017.7732 L1644.0852,1027.886 L1645.6087,1037.9989 L1643.2218,1048.1118 L1643.6157,1058.2246 L1646.7305,1068.3375 L1646.1618,1078.4504 L1646.9586,1088.5632 L1644.1419,1098.6761 L1645,1108.7889 L1642.5,1111.2889 L1642.5,1112.1401 L1632.375,1112.8634 L1622.25,1110.0292 L1612.125,1111.0333 L1602,1111.6249 L1591.875,1113.027 L1581.75,1111.2778 L1571.625,1112.5225 L1561.5,1109.8122 L1551.375,1109.4829 L1541.25,1112.6319 L1531.125,1109.3771 L1521,1112.6462 L1510.875,1111.84 L1500.75,1110.5745 L1490.625,1110.3456 L1480.5,1112.5123 L1470.375,1110.4907 L1460.25,1112.8672 L1450.125,1109.815 L1440,1112.9354 L1429.875,1112.5804 L1419.75,1111.9422 L1409.625,1111.4149 L1399.5,1113.2266 L1389.375,1112.9252 L1379.25,1111.7403 L1369.125,1112.0041 L1359,1110.9416 L1348.875,1113.1995 L1338.75,1111.7019 L1328.625,1111.7491 L1318.5,1111.2889 L1316,1108.7889 L1314.3777,1108.7889 L1314.9194,1098.8289 L1317.4153,1088.8689 L1317.146,1078.9089 L1315.8855,1068.9489 L1315.1409,1058.9889 L1315.4162,1049.0289 L1314.1702,1039.0689 L1317.106,1029.1089 L1317.9722,1019.1489 L1317.4037,1009.1889 L1317.8532,999.2289 L1315.6354,989.2689 L1316.2326,979.3089 L1314.9664,969.3489 L1316.7574,959.3889 L1316.658,949.4289 L1317.473,939.4689 L1315.3876,929.5089 L1315.6416,919.5489 L1317.1826,909.5889 L1317.5129,899.6289 L1314.6332,889.6689 L1315.483,879.7089 L1316.398,869.7489 L1316,859.7889 L1318.5,857.2889 " fill="none" style="stroke:#000000;stroke-width:4.0;"/><path d="M1316,893.9188 L1316,894.199 L1325.75,893.3664 L1335.5,894.1765 L1345.25,894.4517 L1355,892.9676 L1364.75,893.8152 L1374.5,893.3501 L1384.25,893.4075 L1394,893.9188 " fill="none" style="stroke:#000000;stroke-width:4.0;"/><text fill="#000000" font-family="Chalkduster" font-size="24" font-weight="bold" lengthAdjust="spacing" textLength="65" x="1320" y="883.1298">Files</text></g><!--entity html--><g id="elem_html"><polygon fill="none" points="24.5,58.2889,24.5,58.4991,34.5545,57.8746,44.6091,58.4822,54.6636,58.6886,64.7182,57.5756,74.7727,58.2112,84.8273,57.8625,94.8818,57.9055,104.9364,58.2208,114.9909,57.5976,125.0455,58.8426,135.1,57.6587,145.1545,58.0912,155.2091,58.7209,165.2636,58.2032,175.3182,58.3572,185.3727,58.257,195.4273,58.4675,205.4818,58.5281,215.5364,58.8746,225.5909,58.96,235.6455,58.9682,245.7,58.5436,255.7545,58.7525,265.8091,58.9912,275.8636,57.5678,285.9182,58.9675,295.9727,57.9924,306.0273,58.8228,316.0818,57.7939,326.1364,58.2205,336.1909,59.0306,346.2455,58.2402,356.3,58.3943,366.3545,58.6276,376.4091,58.7052,386.4636,58.285,396.5182,58.5762,406.5727,57.7165,416.6273,58.5733,426.6818,58.8371,436.7364,58.7335,446.7909,58.902,456.8455,57.8059,466.9,57.6368,476.9545,57.6675,487.0091,58.2301,497.0636,58.0924,507.1182,58.9704,517.1727,58.1143,527.2273,57.9459,537.2818,58.5172,547.3364,57.6221,557.3909,57.7698,567.4455,58.9379,577.5,58.2889,577.5556,58.4231,577.9472,58.6616,578.1661,58.4827,578.6014,58.8266,578.9895,59.0566,579.2678,59.0212,579.1223,58.9609,579.3847,59.3625,579.5995,59.7444,579.9078,60.165,579.8523,60.4349,580,60.7889,580.4626,60.7889,579.4462,70.7904,579.3227,80.7919,580.5036,90.7934,579.2831,100.7949,580.509,110.7964,580.2066,120.7979,579.7321,130.7994,579.6462,140.8008,580.4588,150.8023,579.7007,160.8038,580.5919,170.8053,579.4473,180.8068,580.6174,190.8083,580.4843,200.8098,580.245,210.8113,580.0472,220.8127,580.7266,230.8142,580.6136,240.8157,580.1693,250.8172,580.2682,260.8187,579.8697,270.8202,580.7165,280.8217,580.1549,290.8232,580.1726,300.8246,579.3916,310.8261,580,320.8276,579.8752,320.7759,580.017,321.2489,579.8395,321.5895,579.5474,321.8828,579.315,322.2007,579.2678,322.5954,579.2398,322.528,578.8267,322.5305,578.6136,323.016,578.3014,323.2625,577.9207,323.3433,577.5,323.3276,577.5,324.0225,567.4455,323.1909,557.3909,323.4148,547.3364,322.94,537.2818,323.6117,527.2273,323.5744,517.1727,323.88,507.1182,323.098,497.0636,323.1932,487.0091,323.7711,476.9545,323.895,466.9,322.8151,456.8455,323.1337,446.7909,323.4769,436.7364,322.7168,426.6818,323.681,416.6273,323.5856,406.5727,323.2269,396.5182,323.4699,386.4636,324.0563,376.4091,323.0147,366.3545,323.6426,356.3,323.6133,346.2455,323.4434,336.1909,323.4685,326.1364,323.4411,316.0818,322.7035,306.0273,322.9268,295.9727,322.8661,285.9182,323.3914,275.8636,323.4157,265.8091,323.4894,255.7545,323.0366,245.7,323.2601,235.6455,323.2074,225.5909,323.9045,215.5364,323.7542,205.4818,322.8421,195.4273,323.2547,185.3727,322.7504,175.3182,323.616,165.2636,323.9361,155.2091,323.8722,145.1545,322.8921,135.1,323.7916,125.0455,322.5848,114.9909,323.5278,104.9364,323.0283,94.8818,323.4243,84.8273,323.568,74.7727,323.7997,64.7182,322.6077,54.6636,323.8031,44.6091,323.5058,34.5545,323.6829,24.5,323.3276,24.5954,323.5579,24.1471,323.1829,23.8153,323.0887,23.4666,322.954,23.1109,322.8026,22.7322,322.5954,22.732,322.5953,22.8047,322.3325,22.2516,321.8105,22.467,321.6068,21.9543,321.1016,22,320.8276,21.4597,320.8276,22.04,310.8261,22.0283,300.8246,21.5072,290.8232,22.4137,280.8217,22.1089,270.8202,22.7267,260.8187,22.6671,250.8172,21.5517,240.8157,21.6021,230.8142,21.8708,220.8127,22.3555,210.8113,22.403,200.8098,22.3012,190.8083,21.658,180.8068,22.6364,170.8053,22.6338,160.8038,21.9527,150.8023,21.7609,140.8008,21.5986,130.7994,21.7854,120.7979,22.1374,110.7964,21.9316,100.7949,21.5822,90.7934,22.4874,80.7919,21.5411,70.7904,22,60.7889,22.1547,60.853,22.278,60.4899,22.4074,60.1293,22.6526,59.8166,22.5101,59.3434,22.7322,59.0212,22.6939,58.9286,23.152,59.0345,23.3632,58.5445,23.763,58.5098,24.1612,58.471,24.5,58.2889" style="stroke:#181818;stroke-width:4.0;"/><text fill="#000000" font-family="Chalkduster" font-size="24" lengthAdjust="spacing" textLength="514" x="32" y="92.1298">Web page: Human Readable Metadata</text><text fill="#000000" font-family="Chalkduster" font-size="24" lengthAdjust="spacing" textLength="302" x="32" y="122.7597">ro-crate-preview.html</text><text fill="#000000" font-family="Chalkduster" font-size="24" lengthAdjust="spacing" textLength="12" x="32" y="153.3895"> </text><text fill="#000000" font-family="Chalkduster" font-size="24" lengthAdjust="spacing" textLength="12" x="32" y="184.0193"> </text><text fill="#000000" font-family="Chalkduster" font-size="24" lengthAdjust="spacing" textLength="166" x="44" y="214.6492">Type: Object</text><text fill="#000000" font-family="Chalkduster" font-size="24" lengthAdjust="spacing" textLength="226" x="44" y="245.279">Modalty: Spoken</text><text fill="#000000" font-family="Chalkduster" font-size="24" lengthAdjust="spacing" textLength="340" x="44" y="275.9088">DateCreated: 2022-01-30</text><text fill="#000000" font-family="Chalkduster" font-size="24" lengthAdjust="spacing" textLength="49" x="44" y="306.5387">etc.</text></g><!--entity type--><g id="elem_type"><polygon fill="none" points="881.5,165.2889,881.5,165.4991,891.6,164.8746,901.7,165.4822,911.8,165.6886,921.9,164.5756,932,165.2112,942.1,164.8625,952.2,164.9055,962.3,165.2208,972.4,164.5976,982.5,165.8426,992.6,164.6587,1002.7,165.0912,1012.8,165.7209,1022.9,165.2032,1033,165.3572,1043.1,165.257,1053.2,165.4675,1063.3,165.5281,1073.4,165.8746,1083.5,165.96,1093.6,165.9682,1103.7,165.5436,1113.8,165.7525,1123.9,165.9912,1134,164.5678,1144.1,165.9675,1154.2,164.9924,1164.3,165.8228,1174.4,164.7939,1184.5,165.2889,1184.4913,165.2679,1184.9482,165.6638,1185.2009,165.5668,1185.5741,165.7607,1185.9574,165.979,1186.2678,166.0212,1186.3959,166.0743,1186.413,166.3742,1186.6491,166.7649,1186.5308,167.0088,1186.9411,167.4717,1187,167.7889,1187.5482,167.7889,1187.4445,176.9149,1187.613,186.0409,1186.5169,195.1668,1186.3478,204.2928,1187,213.4188,1186.8086,213.3395,1186.8354,213.7648,1186.6466,214.1008,1186.7705,214.5664,1186.3604,214.8107,1186.2678,215.1866,1186.224,215.0809,1185.9433,215.4033,1185.4756,215.2741,1185.1409,215.466,1184.9363,215.9722,1184.5,215.9188,1184.5,216.3545,1174.4,216.6533,1164.3,215.597,1154.2,216.238,1144.1,216.5092,1134,215.4464,1123.9,215.8229,1113.8,216.0448,1103.7,216.5705,1093.6,215.9146,1083.5,216.3814,1073.4,215.365,1063.3,215.2415,1053.2,216.4224,1043.1,215.2018,1033,216.4277,1022.9,216.1254,1012.8,215.6509,1002.7,215.565,992.6,216.3775,982.5,215.6195,972.4,216.5106,962.3,215.366,952.2,216.5362,942.1,216.4031,932,216.1638,921.9,215.966,911.8,216.6454,901.7,216.5324,891.6,216.088,881.5,215.9188,881.5342,216.0014,881.1298,215.7322,880.8843,215.8465,880.4591,215.5271,880.1078,215.3861,879.7322,215.1866,879.5449,215.1089,879.461,214.7813,879.6028,214.5471,879.4252,214.1807,879.1332,213.7669,879,213.4188,878.6778,213.4188,878.7811,204.2928,878.3138,195.1668,879.4147,186.0409,879.7396,176.9149,879,167.7889,879.1621,167.8561,879.3605,167.524,879.2508,167.0644,879.4662,166.7394,879.4664,166.3253,879.7322,166.0212,879.7685,166.1087,880.1173,165.9507,880.5098,165.8984,880.7636,165.5111,881.1293,165.394,881.5,165.2889" style="stroke:#181818;stroke-width:4.0;"/><text fill="#000000" font-family="Chalkduster" font-size="24" lengthAdjust="spacing" textLength="288" x="889" y="199.1298">What type of data &#127358;️</text></g><!--entity who--><g id="elem_who"><polygon fill="none" points="853,384.2889,853,384.4991,863,383.8746,873,384.4822,883,384.6886,893,383.5756,903,384.2112,913,383.8625,923,383.9055,933,384.2208,943,383.5976,953,384.8426,963,383.6587,973,384.0912,983,384.7209,993,384.2032,1003,384.3572,1013,384.257,1023,384.4675,1033,384.5281,1043,384.8746,1053,384.96,1063,384.9682,1073,384.5436,1083,384.7525,1093,384.9912,1103,383.5678,1113,384.9675,1123,383.9924,1133,384.8228,1143,383.7939,1153,384.2205,1163,385.0306,1173,384.2402,1183,384.3943,1193,384.6276,1203,384.7052,1213,384.2889,1212.9995,384.2877,1213.3902,384.5238,1213.6341,384.4056,1214.0969,384.8159,1214.4841,385.0436,1214.7678,385.0212,1214.9047,385.0779,1215.103,385.4529,1214.9119,385.6667,1215.0063,385.9986,1215.1622,386.3561,1215.5,386.7889,1215.4411,386.7889,1215.3035,395.9149,1216.1814,405.0409,1215.3253,414.1668,1215.1569,423.2928,1215.5,432.4188,1215.5703,432.4479,1215.1482,432.6873,1215.0472,433.0597,1215.2605,433.5622,1215.0484,433.8886,1214.7678,434.1866,1214.8615,434.4127,1214.3732,434.2339,1214.1014,434.5777,1213.7824,434.8077,1213.2933,434.6269,1213,434.9188,1213,434.8229,1203,435.0448,1193,435.5705,1183,434.9146,1173,435.3814,1163,434.365,1153,434.2415,1143,435.4224,1133,434.2018,1123,435.4277,1113,435.1254,1103,434.6509,1093,434.565,1083,435.3775,1073,434.6195,1063,435.5106,1053,434.366,1043,435.5362,1033,435.4031,1023,435.1638,1013,434.966,1003,435.6454,993,435.5324,983,435.088,973,435.187,963,434.7885,953,435.6352,943,435.0737,933,435.0914,923,434.3104,913,434.5136,903,435.4495,893,435.3485,883,434.8759,873,434.5966,863,434.6999,853,434.9188,852.9125,434.7075,852.6994,434.9001,852.3872,434.8536,852.0065,434.6416,851.6744,434.547,851.2322,434.1866,851.1901,434.1691,851.1126,433.8441,850.82,433.43,850.8804,433.1621,850.7224,432.8038,850.5,432.4188,851.0524,432.4188,850.2703,423.2928,850.3656,414.1668,850.9435,405.0409,851.0673,395.9149,850.5,386.7889,850.3422,386.7236,850.5867,386.4107,850.8389,386.1009,850.7512,385.6504,851.1946,385.4198,851.2322,385.0212,851.2651,385.1006,851.5729,384.8437,851.9575,384.7721,852.3858,384.8062,852.6065,384.339,853,384.2889" style="stroke:#181818;stroke-width:4.0;"/><text fill="#000000" font-family="Chalkduster" font-size="24" lengthAdjust="spacing" textLength="345" x="860.5" y="418.1298">&#129489; Who was involved &#129489;&#127997;‍&#128300;</text></g><!--entity what--><g id="elem_what"><polygon fill="none" points="866.5,496.2889,866.5,496.4991,876.5909,495.8746,886.6818,496.4822,896.7727,496.6886,906.8636,495.5756,916.9545,496.2112,927.0455,495.8625,937.1364,495.9055,947.2273,496.2208,957.3182,495.5976,967.4091,496.8426,977.5,495.6587,987.5909,496.0912,997.6818,496.7209,1007.7727,496.2032,1017.8636,496.3572,1027.9545,496.257,1038.0455,496.4675,1048.1364,496.5281,1058.2273,496.8746,1068.3182,496.96,1078.4091,496.9682,1088.5,496.5436,1098.5909,496.7525,1108.6818,496.9912,1118.7727,495.5678,1128.8636,496.9675,1138.9545,495.9924,1149.0455,496.8228,1159.1364,495.7939,1169.2273,496.2205,1179.3182,497.0306,1189.4091,496.2402,1199.5,496.2889,1199.5134,496.3214,1199.8967,496.5397,1200.2602,496.71,1200.5602,496.7271,1200.9509,496.9632,1201.2678,497.0212,1201.0915,496.9482,1201.5018,497.411,1201.7295,497.7982,1201.844,498.1385,1202.0423,498.5136,1202,498.7889,1201.5169,498.7889,1201.3478,507.9149,1201.3786,517.0409,1201.9411,526.1668,1201.8035,535.2928,1202,544.4188,1202.2098,544.5057,1201.7998,544.7501,1201.6015,545.0821,1201.631,545.5086,1201.2089,545.7479,1201.2678,546.1866,1201.2015,546.0267,1200.997,546.5328,1200.6162,546.6136,1200.3008,546.8521,1199.8125,546.6732,1199.5,546.9188,1199.5,547.238,1189.4091,547.5092,1179.3182,546.4464,1169.2273,546.8229,1159.1364,547.0448,1149.0455,547.5705,1138.9545,546.9146,1128.8636,547.3814,1118.7727,546.365,1108.6818,546.2415,1098.5909,547.4224,1088.5,546.2018,1078.4091,547.4277,1068.3182,547.1254,1058.2273,546.6509,1048.1364,546.565,1038.0455,547.3775,1027.9545,546.6195,1017.8636,547.5106,1007.7727,546.366,997.6818,547.5362,987.5909,547.4031,977.5,547.1638,967.4091,546.966,957.3182,547.6454,947.2273,547.5324,937.1364,547.088,927.0455,547.187,916.9545,546.7885,906.8636,547.6352,896.7727,547.0737,886.6818,547.0914,876.5909,546.3104,866.5,546.9188,866.4483,546.794,866.2141,546.9358,865.8477,546.7582,865.4339,546.4662,865.0447,546.2338,864.7322,546.1866,864.6648,546.1586,864.3745,545.7455,864.5671,545.5323,864.5206,545.2202,864.3086,544.8395,864,544.4188,864.6949,544.4188,863.8633,535.2928,864.0872,526.1668,863.6124,517.0409,864.284,507.9149,864,498.7889,864.076,498.8204,864.3166,498.5059,864.2222,498.0525,864.3979,497.7111,864.7224,497.4313,864.7322,497.0212,864.8046,497.1959,865.0204,496.7169,865.4146,496.6686,865.8119,496.6278,866.0685,496.2473,866.5,496.2889" style="stroke:#181818;stroke-width:4.0;"/><text fill="#000000" font-family="Chalkduster" font-size="24" lengthAdjust="spacing" textLength="318" x="874" y="530.1298">❓ What is this about ❓</text></g><!--entity where--><g id="elem_where"><polygon fill="none" points="831.5,608.2889,831.5,608.4991,841.575,607.8746,851.65,608.4822,861.725,608.6886,871.8,607.5756,881.875,608.2112,891.95,607.8625,902.025,607.9055,912.1,608.2208,922.175,607.5976,932.25,608.8426,942.325,607.6587,952.4,608.0912,962.475,608.7209,972.55,608.2032,982.625,608.3572,992.7,608.257,1002.775,608.4675,1012.85,608.5281,1022.925,608.8746,1033,608.96,1043.075,608.9682,1053.15,608.5436,1063.225,608.7525,1073.3,608.9912,1083.375,607.5678,1093.45,608.9675,1103.525,607.9924,1113.6,608.8228,1123.675,607.7939,1133.75,608.2205,1143.825,609.0306,1153.9,608.2402,1163.975,608.3943,1174.05,608.6276,1184.125,608.7052,1194.2,608.285,1204.275,608.5762,1214.35,607.7165,1224.425,608.5733,1234.5,608.2889,1234.5699,608.4578,1234.9103,608.5723,1235.2853,608.7706,1235.499,608.5795,1235.831,608.6739,1236.2678,609.0212,1236.0764,608.9419,1236.3961,609.3672,1236.5001,609.7032,1236.917,610.1688,1236.7998,610.4131,1237,610.7889,1236.6569,610.7889,1237.2283,619.9149,1236.3332,629.0409,1236.4809,638.1668,1237.649,647.2928,1237,656.4188,1237.1342,656.4744,1237.0797,656.866,1236.608,657.0848,1236.659,657.5202,1236.596,657.9083,1236.2678,658.1866,1236.2075,658.0411,1235.902,658.3035,1235.5767,658.5182,1235.2902,658.8266,1234.853,658.771,1234.5,658.9188,1234.5,659.3814,1224.425,658.365,1214.35,658.2415,1204.275,659.4224,1194.2,658.2018,1184.125,659.4277,1174.05,659.1254,1163.975,658.6509,1153.9,658.565,1143.825,659.3775,1133.75,658.6195,1123.675,659.5106,1113.6,658.366,1103.525,659.5362,1093.45,659.4031,1083.375,659.1638,1073.3,658.966,1063.225,659.6454,1053.15,659.5324,1043.075,659.088,1033,659.187,1022.925,658.7885,1012.85,659.6352,1002.775,659.0737,992.7,659.0914,982.625,658.3104,972.55,658.5136,962.475,659.4495,952.4,659.3485,942.325,658.8759,932.25,658.5966,922.175,658.6999,912.1,658.2326,902.025,659.3335,891.95,659.6583,881.875,659.4452,871.8,659.6137,861.725,658.7821,851.65,659.006,841.575,658.5312,831.5,658.9188,831.5362,659.0063,831.1779,658.8483,830.8634,658.796,830.41,658.4087,830.0686,658.2916,829.7322,658.1866,829.8688,658.2431,829.7605,657.9054,829.2815,657.4141,829.2332,657.1012,829.1924,656.7914,829,656.4188,828.3892,656.4188,829.3534,647.2928,829.258,638.1668,828.8992,629.0409,829.1422,619.9149,829,610.7889,829.2244,610.8819,829.0501,610.3955,829.3899,610.122,829.5273,609.7647,829.6214,609.3895,829.7322,609.0212,829.7502,609.0646,830.1003,608.9097,830.3597,608.5361,830.7418,608.4584,831.0876,608.2933,831.5,608.2889" style="stroke:#181818;stroke-width:4.0;"/><text fill="#000000" font-family="Chalkduster" font-size="24" lengthAdjust="spacing" textLength="388" x="839" y="642.1298">&#128506;️ Where was it collected &#128506;️</text></g><!--entity files--><g id="elem_files"><polygon fill="none" points="853,720.2889,853,720.4991,863,719.8746,873,720.4822,883,720.6886,893,719.5756,903,720.2112,913,719.8625,923,719.9055,933,720.2208,943,719.5976,953,720.8426,963,719.6587,973,720.0912,983,720.7209,993,720.2032,1003,720.3572,1013,720.257,1023,720.4675,1033,720.5281,1043,720.8746,1053,720.96,1063,720.9682,1073,720.5436,1083,720.7525,1093,720.9912,1103,719.5678,1113,720.9675,1123,719.9924,1133,720.8228,1143,719.7939,1153,720.2205,1163,721.0306,1173,720.2402,1183,720.3943,1193,720.6276,1203,720.7052,1213,720.2889,1212.9995,720.2877,1213.3902,720.5238,1213.6341,720.4056,1214.0969,720.8159,1214.4841,721.0436,1214.7678,721.0212,1214.9047,721.0779,1215.103,721.4529,1214.9119,721.6667,1215.0063,721.9986,1215.1622,722.3561,1215.5,722.7889,1215.4411,722.7889,1215.3035,731.9149,1216.1814,741.0409,1215.3253,750.1668,1215.1569,759.2928,1215.5,768.4188,1215.5703,768.4479,1215.1482,768.6873,1215.0472,769.0597,1215.2605,769.5622,1215.0484,769.8886,1214.7678,770.1866,1214.8615,770.4127,1214.3732,770.2339,1214.1014,770.5777,1213.7824,770.8077,1213.2933,770.6269,1213,770.9188,1213,770.8229,1203,771.0448,1193,771.5705,1183,770.9146,1173,771.3814,1163,770.365,1153,770.2415,1143,771.4224,1133,770.2018,1123,771.4277,1113,771.1254,1103,770.6509,1093,770.565,1083,771.3775,1073,770.6195,1063,771.5106,1053,770.366,1043,771.5362,1033,771.4031,1023,771.1638,1013,770.966,1003,771.6454,993,771.5324,983,771.088,973,771.187,963,770.7885,953,771.6352,943,771.0737,933,771.0914,923,770.3104,913,770.5136,903,771.4495,893,771.3485,883,770.8759,873,770.5966,863,770.6999,853,770.9188,852.9125,770.7075,852.6994,770.9001,852.3872,770.8536,852.0065,770.6416,851.6744,770.547,851.2322,770.1866,851.1901,770.1691,851.1126,769.8441,850.82,769.43,850.8804,769.1621,850.7224,768.8038,850.5,768.4188,851.0524,768.4188,850.2703,759.2928,850.3656,750.1668,850.9435,741.0409,851.0673,731.9149,850.5,722.7889,850.3422,722.7236,850.5867,722.4107,850.8389,722.1009,850.7512,721.6504,851.1946,721.4198,851.2322,721.0212,851.2651,721.1006,851.5729,720.8437,851.9575,720.7721,852.3858,720.8062,852.6065,720.339,853,720.2889" style="stroke:#181818;stroke-width:4.0;"/><text fill="#000000" font-family="Chalkduster" font-size="24" lengthAdjust="spacing" textLength="345" x="860.5" y="754.1298">&#128193; What is in each file &#128193;</text></g><!--entity lic--><g id="elem_lic"><polygon fill="none" points="614.5,975.2889,614.5,975.4991,624.5154,974.8746,634.5308,975.4822,644.5462,975.6886,654.5615,974.5756,664.5769,975.2112,674.5923,974.8625,684.6077,974.9055,694.6231,975.2208,704.6385,974.5976,714.6538,975.8426,724.6692,974.6587,734.6846,975.0912,744.7,975.7209,754.7154,975.2032,764.7308,975.3572,774.7462,975.257,784.7615,975.4675,794.7769,975.5281,804.7923,975.8746,814.8077,975.96,824.8231,975.9682,834.8385,975.5436,844.8538,975.7525,854.8692,975.9912,864.8846,974.5678,874.9,975.9675,884.9154,974.9924,894.9308,975.8228,904.9462,974.7939,914.9615,975.2205,924.9769,976.0306,934.9923,975.2402,945.0077,975.3943,955.0231,975.6276,965.0385,975.7052,975.0538,975.285,985.0692,975.5762,995.0846,974.7165,1005.1,975.5733,1015.1154,975.8371,1025.1308,975.7335,1035.1462,975.902,1045.1615,974.8059,1055.1769,974.6368,1065.1923,974.6675,1075.2077,975.2301,1085.2231,975.0924,1095.2385,975.9704,1105.2538,975.1143,1115.2692,974.9459,1125.2846,975.5172,1135.3,974.6221,1145.3154,974.7698,1155.3308,975.9379,1165.3462,975.7246,1175.3615,976.0234,1185.3769,974.9672,1195.3923,975.6081,1205.4077,975.8794,1215.4231,974.8165,1225.4385,975.1931,1235.4538,975.4149,1245.4692,975.9407,1255.4846,975.2848,1265.5,975.2889,1265.559,975.4314,1265.7829,975.2649,1266.1207,975.3733,1266.6249,975.8834,1266.8228,975.6539,1267.2678,976.0212,1267.4245,976.0861,1267.4778,976.4011,1267.4782,976.6941,1267.5982,977.0367,1267.9948,977.4939,1268,977.7889,1267.7007,977.7889,1268.5919,986.9149,1267.4473,996.0409,1268.6174,1005.1668,1268.4843,1014.2928,1268,1023.4188,1268.0754,1023.45,1267.8681,1023.7784,1267.9309,1024.2186,1267.7496,1024.5577,1267.4663,1024.8546,1267.2678,1025.1866,1267.302,1025.2691,1266.8976,1025.2929,1266.6521,1025.7001,1266.2269,1025.6736,1265.8756,1025.8255,1265.5,1025.9188,1265.5,1025.3104,1255.4846,1025.5136,1245.4692,1026.4495,1235.4538,1026.3485,1225.4385,1025.8759,1215.4231,1025.5966,1205.4077,1025.6999,1195.3923,1025.2326,1185.3769,1026.3335,1175.3615,1026.6583,1165.3462,1026.4452,1155.3308,1026.6137,1145.3154,1025.7821,1135.3,1026.006,1125.2846,1025.5312,1115.2692,1026.2028,1105.2538,1026.1655,1095.2385,1026.4712,1085.2231,1025.6891,1075.2077,1025.7844,1065.1923,1026.3622,1055.1769,1026.4861,1045.1615,1025.4063,1035.1462,1025.7249,1025.1308,1026.068,1015.1154,1025.3079,1005.1,1026.2722,995.0846,1026.1768,985.0692,1025.818,975.0538,1026.061,965.0385,1026.6475,955.0231,1025.6059,945.0077,1026.2338,934.9923,1026.2044,924.9769,1026.0346,914.9615,1026.0597,904.9462,1026.0323,894.9308,1025.2946,884.9154,1025.518,874.9,1025.4572,864.8846,1025.9826,854.8692,1026.0069,844.8538,1026.0805,834.8385,1025.6278,824.8231,1025.8513,814.8077,1025.7986,804.7923,1026.4956,794.7769,1026.3453,784.7615,1025.4332,774.7462,1025.8459,764.7308,1025.3416,754.7154,1026.2072,744.7,1026.5273,734.6846,1026.4633,724.6692,1025.4832,714.6538,1026.3828,704.6385,1025.176,694.6231,1026.1189,684.6077,1025.6195,674.5923,1026.0155,664.5769,1026.1591,654.5615,1026.3909,644.5462,1025.1989,634.5308,1026.3943,624.5154,1026.097,614.5,1025.9188,614.5453,1026.0282,614.2418,1026.0026,613.7936,1025.6276,613.4617,1025.5334,613.113,1025.3987,612.7322,1025.1866,612.793,1025.2117,612.5855,1024.8329,612.6582,1024.5701,612.1051,1024.0481,612.3205,1023.8444,612,1023.4188,611.376,1023.4188,611.4597,1014.2928,612.04,1005.1668,612.0283,996.0409,611.5072,986.9149,612,977.7889,612.1274,977.8417,612.18,977.4493,612.5167,977.1745,612.6448,976.8134,612.4477,976.3176,612.7322,976.0212,612.6815,975.8986,613.0693,975.835,613.4847,975.8378,613.8443,975.7059,614.1849,975.5281,614.5,975.2889" style="stroke:#181818;stroke-width:4.0;"/><text fill="#000000" font-family="Chalkduster" font-size="24" lengthAdjust="spacing" textLength="636" x="622" y="1009.1298">♻️ How can data be resued and by whom ♻️</text></g><!--entity LICENSE.txt\ndata/\n   transcriptions/\n   audio/\n   video/--><g id="elem_LICENSE.txt\ndata/\n   transcriptions/\n   audio/\n   video/"><polygon fill="none" points="1361.5,914.2889,1361.5,914.4991,1371.3846,913.8746,1381.2692,914.4822,1391.1538,914.6886,1401.0385,913.5756,1410.9231,914.2112,1420.8077,913.8625,1430.6923,913.9055,1440.5769,914.2208,1450.4615,913.5976,1460.3462,914.8426,1470.2308,913.6587,1480.1154,914.0912,1490,914.7209,1499.8846,914.2032,1509.7692,914.3572,1519.6538,914.257,1529.5385,914.4675,1539.4231,914.5281,1549.3077,914.8746,1559.1923,914.96,1569.0769,914.9682,1578.9615,914.5436,1588.8462,914.7525,1598.7308,914.9912,1608.6154,913.5678,1618.5,914.2889,1618.5866,914.4979,1618.8157,914.3441,1619.2752,914.7462,1619.4975,914.5758,1619.9055,914.8536,1620.2678,915.0212,1620.4962,915.1158,1620.3992,915.3685,1620.5931,915.7417,1620.8114,916.125,1620.9817,916.4885,1621,916.7889,1620.9961,916.7889,1621.2872,926.6801,1620.4276,936.5712,1621.2844,946.4623,1621.5482,956.3535,1621.4445,966.2446,1621.613,976.1357,1620.5169,986.0268,1620.3478,995.918,1620.3786,1005.8091,1620.9411,1015.7002,1620.8035,1025.5914,1621.6814,1035.4825,1620.8253,1045.3736,1620.6569,1055.2647,1621.2283,1065.1559,1620.3332,1075.047,1621,1084.9381,1620.8401,1084.8719,1621.0534,1085.3745,1620.8413,1085.7008,1620.7869,1086.0925,1620.3151,1086.3113,1620.2678,1086.7059,1620.3085,1086.8042,1619.9895,1087.0342,1619.5004,1086.8533,1619.1949,1087.1157,1618.8696,1087.3305,1618.5,1087.4381,1618.5,1088.0899,1608.6154,1087.4339,1598.7308,1087.9007,1588.8462,1086.8843,1578.9615,1086.7609,1569.0769,1087.9417,1559.1923,1086.7212,1549.3077,1087.9471,1539.4231,1087.6447,1529.5385,1087.1702,1519.6538,1087.0843,1509.7692,1087.8969,1499.8846,1087.1388,1490,1088.03,1480.1154,1086.8854,1470.2308,1088.0555,1460.3462,1087.9224,1450.4615,1087.6831,1440.5769,1087.4853,1430.6923,1088.1647,1420.8077,1088.0517,1410.9231,1087.6074,1401.0385,1087.7063,1391.1538,1087.3079,1381.2692,1088.1546,1371.3846,1087.593,1361.5,1087.4381,1361.522,1087.4913,1361.0688,1087.1043,1360.7412,1087.0204,1360.507,1087.1622,1360.1406,1086.9847,1359.7322,1086.7059,1359.719,1086.7004,1359.4866,1086.3112,1359.3719,1085.9708,1359.0816,1085.5577,1359.2742,1085.3446,1359,1084.9381,1359.7396,1084.9381,1359.5264,1075.047,1359.6949,1065.1559,1358.8633,1055.2647,1359.0872,1045.3736,1358.6124,1035.4825,1359.284,1025.5914,1359.2468,1015.7002,1359.5524,1005.8091,1358.7703,995.918,1358.8656,986.0268,1359.4435,976.1357,1359.5673,966.2446,1358.4875,956.3535,1358.8061,946.4623,1359.1493,936.5712,1358.3892,926.6801,1359,916.7889,1359.1088,916.834,1359.2259,916.4683,1359.2619,916.069,1359.4831,915.7464,1359.8102,915.4677,1359.7322,915.0212,1359.6923,914.9248,1360.126,914.9717,1360.4758,914.8163,1360.8077,914.6175,1361.1644,914.4788,1361.5,914.2889" style="stroke:#181818;stroke-width:4.0;"/><text fill="#000000" font-family="Chalkduster" font-size="24" lengthAdjust="spacing" textLength="158" x="1369" y="948.1298">LICENSE.txt</text><text fill="#000000" font-family="Chalkduster" font-size="24" lengthAdjust="spacing" textLength="80" x="1369" y="978.7597">data/</text><text fill="#000000" font-family="Chalkduster" font-size="24" lengthAdjust="spacing" textLength="206" x="1405" y="1009.3895">transcriptions/</text><text fill="#000000" font-family="Chalkduster" font-size="24" lengthAdjust="spacing" textLength="94" x="1405" y="1040.0193">audio/</text><text fill="#000000" font-family="Chalkduster" font-size="24" lengthAdjust="spacing" textLength="91" x="1405" y="1070.6492">video/</text></g><!--link type to who--><!--link who to what--><!--link what to where--><!--link where to files--><!--link files to lic--><!--link files to data--><g id="link_files_data"><path d="M1168.06,771.7789 L1168.0911,771.867 L1171.1771,772.7284 L1174.4456,774.1061 L1177.6546,775.3157 L1180.6683,775.9724 L1183.9524,777.3944 L1183.9394,777.3624 L1187.0477,778.4975 L1190.2211,779.7941 L1193.4399,781.2029 L1196.5025,782.225 L1199.7839,783.7888 L1199.8873,784.0121 L1202.7864,784.9792 L1205.9874,786.5982 L1209.2253,788.2968 L1212.2488,789.5325 L1215.3851,791.0117 L1215.3993,791.0385 L1218.4186,792.6194 L1221.5029,794.3221 L1224.5558,795.9661 L1227.6684,797.7222 L1230.5862,799.1127 L1230.7429,799.3665 L1233.6711,801.1753 L1236.4983,802.8205 L1239.4734,804.7052 L1242.4555,806.6012 L1245.2179,808.1414 L1245.0306,807.8813 L1248.1727,810.3872 L1250.6979,812.0368 L1253.6921,814.3374 L1256.2034,815.9675 L1259.1105,818.1472 L1259.0908,818.124 L1261.9207,820.6049 L1264.29,822.5438 L1266.9311,824.8025 L1269.595,827.0881 L1272.0944,829.1799 L1272.2263,829.3096 L1274.4742,831.6005 L1276.9476,834.113 L1279.0563,836.267 L1281.709,838.9558 L1284,841.2889 L1284.1914,841.4398 L1285.8157,843.5181 L1287.5351,845.6714 L1288.8131,847.4767 L1290.4146,849.5371 L1292.3028,851.8234 L1292.0681,851.6779 L1293.7014,854.101 L1295.0702,856.3602 L1296.8227,858.8572 L1297.9201,860.9481 L1299.4069,863.2805 L1299.2702,863.213 L1300.6972,865.7581 L1301.5397,868.0149 L1302.7979,870.4767 L1304.4628,873.139 L1305.4034,875.4443 L1305.5836,875.5152 L1306.7032,878.0948 L1307.2623,880.4538 L1308.5234,883.0891 L1309.6316,885.6642 L1310.3834,888.0991 L1310.1831,888.0363 L1311.1537,890.6724 L1312.0587,893.2879 L1313.0926,895.9438 L1313.6253,898.4426 L1314.438,901.0291 L1314.6365,901.0829 L1314.3764,901.6149 L1314.4994,902.2506 L1315.1819,903.0378 L1314.8342,903.5461 L1315.3177,904.2794 L1315.5367,904.3361 L1315.4908,904.6275 L1315.3708,904.8997 L1315.418,905.2152 L1315.8517,905.6308 L1315.7385,905.9048 L1315.6095,905.8722 L1316.0346,906.1319 L1315.5826,906.1696 L1316.1279,906.4597 L1316.1117,906.6077 L1315.9442,906.7175 " fill="none" style="stroke:#8B0000;stroke-width:4.0;"/><polygon fill="#8B0000" points="1315.9442,906.7175,1316.0132,906.7295,1316.1454,904.7531,1316.6823,902.8471,1317.0875,900.9183,1317.0593,898.9141,1317.6309,897.0141,1317.6087,897.0008,1316.9279,897.9119,1316.3593,898.8901,1315.8685,899.9148,1315.1092,900.779,1314.726,901.8681,1314.8208,902.0265,1313.6473,901.1069,1312.7505,900.6496,1311.8875,900.2487,1310.8281,899.5196,1309.872,898.9632,1309.8899,898.9772,1311.078,900.5075,1312.3477,902.1016,1313.578,903.6649,1314.8834,905.287,1315.9442,906.7175" style="stroke:#8B0000;stroke-width:4.0;"/><text fill="#000000" font-family="Chalkduster" font-size="24" lengthAdjust="spacing" textLength="110" x="1275" y="826.1298">Describe</text></g><!--SRC=[XPF1RjD048Rl-nI3xtRISFE1IzggI8HABL8E1A7rxhJUrjwrx7LCL4M20qTKeLP2752ENFe020GFqnSWZy3iseIGL8ejMTxvPp__CvvzfBJ8QeclSwvd44KzoIqFQS7FCKTjmyhECepi6yjOmSKbXI4uEGw79RS8Um705GEwIXIMw_ECr14NgT889yWbJoWoGiiTTg9B4mgtCSoxK7HH6Hrq3DW0ZLDkmSuA17C6BXkMY_U_Vd-x3e1NhN35LZldx074Sl7r8unJ0mtjK7fgiYbASD7bulhd_TiFoyNjdSSrbBIBTl_b1hmfHPzFwS4JKrkWi4SGWxHr23piwTDtAe98M69hp88mMKOftfoN_n9TpkugRzwjZ2aDI7y0pXH9Jl4ajwfs5_ZvXtDsP1eGNBSzJv0ogfgSSIqXcRbEvT1cUdIcnFzWze_lVr8eJQDVfafArA_29mxWHTVoROtRJgHojbLgHoUxncpglaglj_LkwcILROxh61CeQAnZEAffxhV75c1jS8iIfmgRABLvDj7kXXTKOmp7oGKnQJaoacTs5iDfOIxH9UpJnc69z9Gn3Fg3GTZV2n_tIK4h8jz3XskThGxPeQk0pXUftaLtHjQSFtiwF7X-Uk0EvqIxd1uXgUSbrvKeLM6LqLKRuxLKfdsTAecc5tIZEMTpjjOhwf7_M0pxw1W9iZy0]--></g></svg>