<?xml version="1.0" encoding="UTF-8" standalone="no"?><svg xmlns="http://www.w3.org/2000/svg" xmlns:xlink="http://www.w3.org/1999/xlink" contentStyleType="text/css" height="1097px" preserveAspectRatio="none" style="width:1292px;height:1097px;background:#FFFFFF;" version="1.1" viewBox="0 0 1292 1097" width="1292px" zoomAndPan="magnify"><defs/><g><rect fill="none" height="26.2969" id="_title" style="stroke:none;stroke-width:1.0;" width="194" x="542.3776" y="5"/><text fill="#000000" font-family="sans-serif" font-size="14" font-weight="bold" lengthAdjust="spacing" textLength="184" x="547.3776" y="22.9951">Full ATAP environment</text><!--MD5=[f8591df0e1365c432ba9b941aefac820]
cluster aw--><g id="cluster_aw"><rect fill="none" height="173" rx="2.5" ry="2.5" style="stroke:#181818;stroke-width:1.0;" width="335" x="435.0891" y="44.2969"/><text fill="#000000" font-family="sans-serif" font-size="14" font-weight="bold" lengthAdjust="spacing" textLength="113" x="546.0891" y="59.292">ATAP Website</text></g><!--MD5=[a1d20f148247cb2584ca053a94c0fdf3]
cluster Tutorials--><g id="cluster_Tutorials"><rect fill="none" height="106" rx="2.5" ry="2.5" style="stroke:#181818;stroke-width:1.0;" width="196" x="550.0891" y="87.2969"/><text fill="#000000" font-family="sans-serif" font-size="14" font-weight="bold" lengthAdjust="spacing" textLength="75" x="610.5891" y="102.292">Tutorials</text></g><!--MD5=[50093eb77a31ed1c6cfcedfdeb891791]
cluster ws--><g id="cluster_ws"><path d="M43.4311,357.91 C60.634,328.6021 77.5703,330.6988 98.1374,354.4407 C112.1561,327.7519 130.5207,331.0397 146.1875,352.8064 C159.7535,327.8191 179.7686,329.7195 192.2833,353.7941 C207.4205,327.9827 227.5291,326.4176 243.5088,352.97 C253.9428,327.8229 278.938,324.886 294.3187,347.7331 C309.3762,330.712 325.366,332.6734 335.8782,352.816 C351.5194,329.1977 372.9706,325.6117 387.5773,353.8473 C402.2775,332.2753 420.4635,324.9664 437.9639,350.8758 C456.7477,331.1768 474.4368,334.5352 488.4468,356.6407 C499.1392,335.091 514.7974,328.654 531.9212,350.1444 C550.7806,326.7855 569.7611,329.6779 585.7972,353.3767 C604.5239,331.8049 622.9871,337.3085 636.0891,359.7969 C637.5201,357.7194 639.7167,358.0413 640.6688,360.3024 C666.0462,376.7107 665.2988,396.1669 638.2531,410.0284 C660.2824,426.6058 661.8124,446.376 638.2156,462.921 C662.716,477.7699 662.7788,497.2173 638.5805,512.4252 C660.2608,527.9151 661.4257,544.6136 639.9839,561.3406 C665.238,575.7147 665.6529,598.1032 638.1272,610.4831 C658.5084,621.649 662.6018,640.404 639.8901,653.3425 C667.8375,665.9731 665.1326,689.8786 645.068,707.1311 C666.926,724.8341 666.998,741.8087 642.5149,757.1462 C664.073,770.4384 669.2643,787.8608 645.5451,804.0765 C663.5828,821.8965 662.5917,839.3977 637.6826,849.8389 C661.9691,863.2792 660.741,884.4237 636.8248,896.9871 C661.8446,911.068 670.4799,929.0912 643.7913,949.9708 C670.3657,965.647 668.6316,988.5939 640.9075,1001.2144 C664.5391,1021.636 656.21,1042.0959 629.0891,1050.2969 C635.8926,1049.2568 637.6212,1053.5826 636.0833,1059.14 C616.2101,1079.3483 602.2762,1074.4986 588.5846,1052.228 C576.3962,1082.0649 552.8645,1086.2136 531.355,1062.1192 C514.0799,1082.6707 497.8697,1078.9737 487.6992,1055.1324 C476.9223,1083.1402 456.3624,1086.6336 437.623,1062.8279 C420.2933,1084.4681 400.0195,1090.1755 384.0951,1061.3378 C372.4702,1086.9019 348.4505,1084.3275 335.7218,1062.4636 C323.1785,1083.2793 300.7203,1085.2922 288.9972,1061.6026 C272.1938,1087.8743 252.2709,1080.4339 238.3953,1058.5276 C227.2903,1080.5971 207.9311,1084.1683 194.4406,1060.8371 C179.7394,1082.1194 154.2965,1081.4277 142.4498,1057.5508 C126.7302,1081.4871 112.8796,1082.5232 96.7309,1057.9553 C69.1041,1081.3299 47.7244,1079.7138 34.0891,1043.2969 C39.8691,1040.6052 42.0332,1043.3013 42.502,1048.7715 C21.5498,1036.9882 21.8048,1013.3747 41.671,1000.8832 C17.2238,989.4434 15.2848,969.678 33.3284,951.1155 C9.6804,937.6087 13.0788,916.4631 34.1038,903.6865 C6,890.2122 12.2208,865.6757 34.3696,852.4622 C15.0414,836.3153 13.2591,821.719 34.362,805.5656 C9.6915,784.0363 13.837,768.3339 40.279,752.5045 C20.4232,742.0214 19.0555,720.9314 38.5505,708.8888 C8.8055,692.2041 6.9826,673.1146 35.5619,653.2945 C14.3148,639.9676 15.8021,621.8612 35.2102,608.2171 C10.3634,595.1984 10.8434,573.6347 35.1503,560.5542 C16.3144,544.3831 14.9601,527.2017 37.4842,513.0632 C9.9057,494.6384 11.0681,473.2616 41.4774,459.1302 C12.6646,447.1909 12.3189,429.4076 34.8524,410.4767 C8.9579,389.9686 14.7999,367.6626 41.0891,352.7969 C44.1948,353.0991 45.2475,355.3533 43.4311,357.91 " fill="none" style="stroke:#181818;stroke-width:1.0;"/><text fill="#000000" font-family="sans-serif" font-size="14" font-weight="bold" lengthAdjust="spacing" textLength="97" x="286.5891" y="370.792">Workspaces</text></g><!--MD5=[6349f622145a1800f7b29448c3bad664]
cluster gs--><g id="cluster_gs"><path d="M74.0891,413.7969 C74.0891,403.7969 338.5891,403.7969 338.5891,403.7969 C338.5891,403.7969 603.0891,403.7969 603.0891,413.7969 L603.0891,545.7969 C603.0891,555.7969 338.5891,555.7969 338.5891,555.7969 C338.5891,555.7969 74.0891,555.7969 74.0891,545.7969 L74.0891,413.7969 " fill="none" style="stroke:#181818;stroke-width:1.0;"/><path d="M74.0891,413.7969 C74.0891,423.7969 338.5891,423.7969 338.5891,423.7969 C338.5891,423.7969 603.0891,423.7969 603.0891,413.7969 " fill="none" style="stroke:#181818;stroke-width:1.0;"/><text fill="#000000" font-family="sans-serif" font-size="14" font-weight="bold" lengthAdjust="spacing" textLength="81" x="298.0891" y="438.792">Git Server</text></g><!--MD5=[87816015c5aa6b6a736781152cf53468]
cluster bh--><g id="cluster_bh"><rect fill="none" height="106" rx="2.5" ry="2.5" style="stroke:#181818;stroke-width:1.0;" width="546" x="66.0891" y="920.2969"/><text fill="#000000" font-family="sans-serif" font-size="14" font-weight="bold" lengthAdjust="spacing" textLength="88" x="295.0891" y="935.292">Binder Hub</text></g><!--MD5=[20a0156f4b163439148bbba4be1d8d29]
cluster ar--><g id="cluster_ar"><path d="M713.8169,283.963 C726.8204,268.7607 738.1974,266.4285 749.9946,285.2459 C762.7619,265.2964 776.3061,266.5044 788.8698,285.4495 C798.0859,268.8913 811.9919,267.8659 822.8579,283.7193 C833.126,259.6112 847.3052,261.3379 864.4131,276.4774 C878.967,259.7228 889.3266,264.4569 899.9152,280.7386 C907.944,258.0513 924.8948,256.0931 940.4307,273.0705 C951.4468,254.1189 963.6463,255.0645 976.0399,271.6919 C989.8858,250.7603 1009.4859,258.0127 1017.7693,277.4428 C1029.1922,258.4743 1047.6821,262.9744 1056.2215,280.4825 C1066.0141,263.368 1080.6851,259.0942 1093.8626,276.8262 C1109.9376,257.5009 1124.0332,260.2826 1133.2909,283.1907 C1145.1698,266.0127 1161.456,264.0252 1171.2134,285.2838 C1179.3146,267.8677 1196.2586,264.9294 1207.8291,281.5518 C1223.5594,263.1349 1242.1163,265.386 1250.0891,289.2969 C1254.3234,289.5509 1255.3326,292.3526 1252.8607,295.5697 C1272.8879,305.5987 1272.4616,320.573 1258.2733,335.2672 C1279.5833,349.9598 1278.2265,364.1979 1255.9342,376.4117 C1279.145,384.7314 1277.5595,401.0232 1262.7199,415.8841 C1285.3186,428.355 1279.1581,449.1742 1260.8001,459.8571 C1278.1844,471.3867 1282.3844,487.794 1261.2585,499.766 C1280.2156,508.8336 1281.276,527.8914 1264.0988,539.5394 C1280.0446,553.9936 1285.2551,566.5665 1262.8716,579.8539 C1285.7553,593.3984 1278.6855,613.9402 1259.4121,624.1956 C1273.8405,635.9651 1270.1382,654.2368 1253.5822,661.1134 C1270.4287,681.557 1269.5963,696.7035 1243.0891,707.2969 C1245.6777,704.7718 1248.7768,705.2431 1250.1168,708.7512 C1239.2318,730.8383 1222.5619,733.4595 1206.5717,714.1171 C1196.7945,726.995 1180.064,725.4389 1172.8609,710.9467 C1160.3627,731.211 1146.163,727.5332 1133.2558,711.3915 C1122.2338,732.4854 1100.7733,732.6894 1090.2575,710.8841 C1083.1359,728.7146 1067.5534,728.3129 1056.3271,715.4168 C1040.8501,733.039 1027.3637,732.0962 1016.8652,710.4178 C1008.2252,728.0666 992.5504,731.8594 980.6881,713.6707 C967.7785,728.5931 953.6887,731.0207 942.1598,712.0989 C929.4835,734.4534 913.4642,730.6925 899.4023,713.6008 C887.7953,727.6276 874.402,729.9817 864.2028,712.0503 C852.0439,730.8174 836.9533,732.1541 826.0669,710.8397 C814.0598,732.1743 794.9767,728.7057 785.2417,708.6014 C777.4259,724.7152 764.1491,729.0497 751.7271,713.4727 C730.411,731.4277 710.5938,727.7358 701.0891,700.2969 C703.8726,700.1605 705.6682,702.0906 703.9959,704.8186 C683.6064,693.875 686.5599,675.9554 703.7869,664.8153 C678.5101,655.6054 681.4817,635.6255 697.4033,620.4833 C681.0949,609.8547 679.8703,593.0363 698.0818,583.033 C678.0826,569.4551 676.7569,551.662 697.8451,537.8688 C680.6698,530.9041 672.0155,515.701 689.4769,500.8966 C669.6166,485.4497 673.3647,472.1484 691.6299,458.6441 C675.4236,444.9947 675.653,429.4736 695.4458,419.3173 C675.6573,407.5484 676.2586,388.1381 697.2214,378.126 C681.2952,366.9333 679.5678,346.5163 699.4157,337.2437 C676.0603,314.7082 682.5712,297.1177 708.0891,282.2969 C710.6873,280.4412 712.6355,280.9477 713.8169,283.963 " fill="none" style="stroke:#181818;stroke-width:1.0;"/><text fill="#000000" font-family="sans-serif" font-size="14" font-weight="bold" lengthAdjust="spacing" textLength="173" x="889.0891" y="300.292">Archival Repositories</text></g><!--MD5=[03c9795141fffc1586b10a901fd13311]
cluster a--><g id="cluster_a"><path d="M869.0891,370.7969 C869.0891,360.7969 1043.5891,360.7969 1043.5891,360.7969 C1043.5891,360.7969 1218.0891,360.7969 1218.0891,370.7969 L1218.0891,569.7969 C1218.0891,579.7969 1043.5891,579.7969 1043.5891,579.7969 C1043.5891,579.7969 869.0891,579.7969 869.0891,569.7969 L869.0891,370.7969 " fill="none" style="stroke:#181818;stroke-width:1.0;"/><path d="M869.0891,370.7969 C869.0891,380.7969 1043.5891,380.7969 1043.5891,380.7969 C1043.5891,380.7969 1218.0891,380.7969 1218.0891,370.7969 " fill="none" style="stroke:#181818;stroke-width:1.0;"/><text fill="#000000" font-family="sans-serif" font-size="14" font-weight="bold" lengthAdjust="spacing" textLength="84" x="1001.5891" y="395.792">ATAP repo</text></g><!--MD5=[3c86060503af52263e985933fdcffbaa]
cluster nr--><g id="cluster_nr"><rect fill="none" height="106" rx="2.5" ry="2.5" style="stroke:#181818;stroke-width:1.0;" width="277" x="909.0891" y="441.7969"/><text fill="#000000" font-family="sans-serif" font-size="14" font-weight="bold" lengthAdjust="spacing" textLength="150" x="972.5891" y="456.792">Notebook Registry</text></g><!--MD5=[4deb7753515de286d568fa33f0a2fe6f]
entity Registry--><g id="elem_Registry"><rect fill="#F1F1F1" height="36.2969" rx="2.5" ry="2.5" style="stroke:#181818;stroke-width:0.5;" width="80" x="451.0891" y="141.2969"/><text fill="#000000" font-family="sans-serif" font-size="14" lengthAdjust="spacing" textLength="60" x="461.0891" y="164.292">Registry</text></g><!--MD5=[77b74dea607a1e0369244b40312b04d5]
entity nt2--><g id="elem_nt2"><rect fill="#F1F1F1" height="36.2969" rx="2.5" ry="2.5" style="stroke:#181818;stroke-width:0.5;" width="163" x="566.5891" y="141.2969"/><text fill="#000000" font-family="sans-serif" font-size="14" lengthAdjust="spacing" textLength="143" x="576.5891" y="164.292">Notebook 2 Tutorial</text></g><!--MD5=[ec0ce55baad344de3025d2ffee8adffc]
entity n1--><g id="elem_n1"><rect fill="#F1F1F1" height="36.2969" rx="2.5" ry="2.5" style="stroke:#181818;stroke-width:0.5;" width="105" x="454.5891" y="495.7969"/><text fill="#000000" font-family="sans-serif" font-size="14" lengthAdjust="spacing" textLength="85" x="464.5891" y="518.792">Notebook 1</text></g><!--MD5=[2e097bb411287f6ed1a33ac9cb2c3661]
entity n2--><g id="elem_n2"><rect fill="#F1F1F1" height="36.2969" rx="2.5" ry="2.5" style="stroke:#181818;stroke-width:0.5;" width="104" x="98.0891" y="495.7969"/><text fill="#000000" font-family="sans-serif" font-size="14" lengthAdjust="spacing" textLength="84" x="108.0891" y="518.792">Notebook 2</text></g><!--MD5=[e500e3b118c1ffaf57096e8df910e65e]
entity n2m--><g id="elem_n2m"><rect fill="#F1F1F1" height="36.2969" rx="2.5" ry="2.5" style="stroke:#181818;stroke-width:0.5;" width="182" x="237.0891" y="495.7969"/><text fill="#000000" font-family="sans-serif" font-size="14" lengthAdjust="spacing" textLength="162" x="247.0891" y="518.792">Notebook 2 (modified)</text></g><!--MD5=[a6a6f4b66b6ed005f41828f772c39169]
entity 1in2--><g id="elem_1in2"><rect fill="#F1F1F1" height="36.2969" rx="2.5" ry="2.5" style="stroke:#181818;stroke-width:0.5;" width="122" x="474.0891" y="974.2969"/><text fill="#000000" font-family="sans-serif" font-size="14" lengthAdjust="spacing" textLength="102" x="484.0891" y="997.292">Instance of N2</text></g><!--MD5=[42fa31ab7071a9af618b8504d108454d]
entity tin2--><g id="elem_tin2"><rect fill="#F1F1F1" height="36.2969" rx="2.5" ry="2.5" style="stroke:#181818;stroke-width:0.5;" width="122" x="317.0891" y="974.2969"/><text fill="#000000" font-family="sans-serif" font-size="14" lengthAdjust="spacing" textLength="102" x="327.0891" y="997.292">Instance of N2</text></g><!--MD5=[865ff4796db1a78ebeb353ca5371777a]
entity 2in2--><g id="elem_2in2"><rect fill="#F1F1F1" height="36.2969" rx="2.5" ry="2.5" style="stroke:#181818;stroke-width:0.5;" width="200" x="82.0891" y="974.2969"/><text fill="#000000" font-family="sans-serif" font-size="14" lengthAdjust="spacing" textLength="180" x="92.0891" y="997.292">Instance of N2 (modified)</text></g><!--MD5=[cd94fa46b6185af2e2a71a2867c79b4b]
entity n1r--><g id="elem_n1r"><rect fill="#F1F1F1" height="36.2969" rx="2.5" ry="2.5" style="stroke:#181818;stroke-width:0.5;" width="105" x="1064.5891" y="495.7969"/><text fill="#000000" font-family="sans-serif" font-size="14" lengthAdjust="spacing" textLength="85" x="1074.5891" y="518.792">Notebook 1</text></g><!--MD5=[2517643be633efb3695a46753cc96f5b]
entity n2r--><g id="elem_n2r"><rect fill="#F1F1F1" height="36.2969" rx="2.5" ry="2.5" style="stroke:#181818;stroke-width:0.5;" width="104" x="925.0891" y="495.7969"/><text fill="#000000" font-family="sans-serif" font-size="14" lengthAdjust="spacing" textLength="84" x="935.0891" y="518.792">Notebook 2</text></g><!--MD5=[baa2ecd00d74afb0d8de1b5208cc46a6]
entity l--><g id="elem_l"><path d="M736.5891,346.2969 C736.5891,336.2969 789.0891,336.2969 789.0891,336.2969 C789.0891,336.2969 841.5891,336.2969 841.5891,346.2969 L841.5891,681.2344 C841.5891,691.2344 789.0891,691.2344 789.0891,691.2344 C789.0891,691.2344 736.5891,691.2344 736.5891,681.2344 L736.5891,346.2969 " fill="#F1F1F1" style="stroke:#181818;stroke-width:0.5;"/><path d="M736.5891,346.2969 C736.5891,356.2969 789.0891,356.2969 789.0891,356.2969 C789.0891,356.2969 841.5891,356.2969 841.5891,346.2969 " fill="none" style="stroke:#181818;stroke-width:0.5;"/><text fill="#000000" font-family="sans-serif" font-size="14" lengthAdjust="spacing" textLength="85" x="746.5891" y="373.292">LDaCA repo</text><text fill="#000000" font-family="sans-serif" font-size="14" lengthAdjust="spacing" textLength="4" x="746.5891" y="389.5889"> </text><text fill="#000000" font-family="sans-serif" font-size="14" lengthAdjust="spacing" textLength="4" x="746.5891" y="405.8857"> </text><text fill="#000000" font-family="sans-serif" font-size="14" lengthAdjust="spacing" textLength="4" x="746.5891" y="422.1826"> </text><text fill="#000000" font-family="sans-serif" font-size="14" lengthAdjust="spacing" textLength="4" x="746.5891" y="438.4795"> </text><text fill="#000000" font-family="sans-serif" font-size="14" lengthAdjust="spacing" textLength="4" x="746.5891" y="454.7764"> </text><text fill="#000000" font-family="sans-serif" font-size="14" lengthAdjust="spacing" textLength="4" x="746.5891" y="471.0732"> </text><text fill="#000000" font-family="sans-serif" font-size="14" lengthAdjust="spacing" textLength="4" x="746.5891" y="487.3701"> </text><text fill="#000000" font-family="sans-serif" font-size="14" lengthAdjust="spacing" textLength="4" x="746.5891" y="503.667"> </text><text fill="#000000" font-family="sans-serif" font-size="14" lengthAdjust="spacing" textLength="4" x="746.5891" y="519.9639"> </text><text fill="#000000" font-family="sans-serif" font-size="14" lengthAdjust="spacing" textLength="4" x="746.5891" y="536.2607"> </text><text fill="#000000" font-family="sans-serif" font-size="14" lengthAdjust="spacing" textLength="4" x="746.5891" y="552.5576"> </text><text fill="#000000" font-family="sans-serif" font-size="14" lengthAdjust="spacing" textLength="4" x="746.5891" y="568.8545"> </text><text fill="#000000" font-family="sans-serif" font-size="14" lengthAdjust="spacing" textLength="4" x="746.5891" y="585.1514"> </text><text fill="#000000" font-family="sans-serif" font-size="14" lengthAdjust="spacing" textLength="4" x="746.5891" y="601.4482"> </text><text fill="#000000" font-family="sans-serif" font-size="14" lengthAdjust="spacing" textLength="4" x="746.5891" y="617.7451"> </text><text fill="#000000" font-family="sans-serif" font-size="14" lengthAdjust="spacing" textLength="4" x="746.5891" y="634.042"> </text><text fill="#000000" font-family="sans-serif" font-size="14" lengthAdjust="spacing" textLength="4" x="746.5891" y="650.3389"> </text><text fill="#000000" font-family="sans-serif" font-size="14" lengthAdjust="spacing" textLength="4" x="746.5891" y="666.6357"> </text><text fill="#000000" font-family="sans-serif" font-size="14" lengthAdjust="spacing" textLength="4" x="746.5891" y="682.9326"> </text></g><g id="elem_GMN24"><path d="M668.0891,770.2969 L668.0891,795.4297 L796.0891,795.4297 L796.0891,780.2969 L786.0891,770.2969 L668.0891,770.2969 " fill="#FEFFDD" style="stroke:#181818;stroke-width:0.5;"/><path d="M786.0891,770.2969 L786.0891,780.2969 L796.0891,780.2969 L786.0891,770.2969 " fill="#FEFFDD" style="stroke:#181818;stroke-width:1.0;"/><text fill="#000000" font-family="sans-serif" font-size="13" lengthAdjust="spacing" textLength="107" x="674.0891" y="787.3638">Eg github / gitlab</text></g><!--MD5=[004a169db3f2b9e5f208c1f0aeba1c91]
link nt2 to tin2--><g id="link_nt2_tin2"><path codeLine="17" d="M646.6851,177.5019 C640.0591,263.1669 615.0651,643.0849 685.0891,731.2969 C724.8811,781.4249 851.6421,743.4709 814.0891,795.2969 C716.1181,930.5029 599.3441,824.8739 457.0891,912.2969 C432.0471,927.6869 408.9701,952.5379 394.3071,970.2579 " fill="none" id="nt2-to-tin2" style="stroke:#181818;stroke-width:1.0;"/><polygon fill="#181818" points="391.1271,974.1479,399.9198,969.7108,394.2913,970.2765,393.7256,964.648,391.1271,974.1479" style="stroke:#181818;stroke-width:1.0;"/><text fill="#000000" font-family="sans-serif" font-size="13" lengthAdjust="spacing" textLength="52" x="821.0891" y="787.3638">LAUNCH</text></g><!--MD5=[a89637a5884c480e7b7861e26e8dd4af]
link ws to ar--><g id="link_ws_ar"><path d="M41.6542,344.4691 C41.7865,344.0998 41.92,343.731 42.0546,343.3627 C42.3238,342.6262 42.5976,341.8917 42.876,341.1595 C43.4327,339.695 44.0079,338.2394 44.602,336.7936 C45.7902,333.9019 47.0542,331.0492 48.398,328.2428 C51.0857,322.63 54.0928,317.2025 57.4518,312.0182 C64.1697,301.6495 72.2954,292.2541 82.0891,284.2969 C133.1401,242.8179 624.9351,240.5869 674.0891,284.2969 C678.7359,288.4291 682.919,292.9022 686.6775,297.6598 C688.5567,300.0387 690.3298,302.4886 692.0017,305.0027 C692.2106,305.3169 692.418,305.6322 692.6239,305.9484 " fill="none" id="ws-to-ar" style="stroke:#181818;stroke-width:1.0;"/><polygon fill="#181818" points="692.6239,305.9484,691.067,296.2234,689.8964,301.7578,684.362,300.5873,692.6239,305.9484" style="stroke:#181818;stroke-width:1.0;"/><text fill="#000000" font-family="sans-serif" font-size="13" lengthAdjust="spacing" textLength="82" x="432.0891" y="246.3638">Data deposit</text></g><!--MD5=[fadac22d7d7b5ddf9b290d5bc26fc851]
link a to ws--><g id="link_a_ws"><path d="M905.6495,360.4901 C905.6141,360.1082 905.5774,359.7266 905.5396,359.3453 C905.464,358.5826 905.3837,357.821 905.2985,357.0604 C904.9579,354.0184 904.54,350.9945 904.0391,347.9957 C900.032,324.005 890.7111,301.6144 873.0891,284.2969 C810.4031,222.6939 150.3011,228.8749 82.0891,284.2969 C72.2954,292.2541 64.1697,301.6495 57.4518,312.0182 C54.0928,317.2025 51.0857,322.63 48.398,328.2428 C47.0542,331.0492 45.7902,333.9019 44.602,336.7936 C44.0079,338.2394 43.4327,339.695 42.876,341.1595 C42.5976,341.8917 42.3238,342.6262 42.0546,343.3627 C41.92,343.731 41.7865,344.0998 41.6542,344.4691 " fill="none" id="a-to-ws" style="stroke:#181818;stroke-width:1.0;"/><polygon fill="#181818" points="41.6542,344.4691,48.4558,337.346,43.3409,339.7622,40.9248,334.6473,41.6542,344.4691" style="stroke:#181818;stroke-width:1.0;"/><text fill="#000000" font-family="sans-serif" font-size="13" lengthAdjust="spacing" textLength="58" x="146.0891" y="246.3638">Data use</text></g><!--MD5=[792d3dcb321bb1cf24812b0934895f47]
link gs to GMN24--><g id="link_gs_GMN24"><path d="M589.083,556.3109 C589.0304,556.8645 588.9783,557.4222 588.927,557.984 C588.7215,560.231 588.5269,562.5424 588.3465,564.9125 C587.6251,574.3928 587.1317,584.8113 587.0861,595.7985 C586.9036,639.7474 593.8851,692.7959 622.0891,731.2969 C636.2461,750.6219 659.6071,762.7499 681.1691,770.2589 " fill="none" id="gs-GMN24" style="stroke:#181818;stroke-width:1.0;stroke-dasharray:7.0,7.0;"/></g><!--MD5=[66c841e5a4953ce774df895c8561f630]
link ar to gs--><g id="link_ar_gs"><path d="M693.0406,513.7969 C692.935,513.7969 692.8285,513.7969 692.7212,513.7969 C692.2918,513.7969 691.8484,513.7969 691.3916,513.7969 C690.478,513.7969 689.5109,513.7969 688.4951,513.7969 C686.4635,513.7969 684.2371,513.7969 681.8547,513.7969 C672.3253,513.7969 660.3005,513.7969 648.2636,513.7969 C636.2267,513.7969 624.1778,513.7969 614.6004,513.7969 C612.2061,513.7969 609.9662,513.7969 607.9196,513.7969 C606.8963,513.7969 605.9213,513.7969 604.9995,513.7969 C604.5385,513.7969 604.0909,513.7969 603.6572,513.7969 C603.5488,513.7969 603.4412,513.7969 603.3345,513.7969 C603.2812,513.7969 603.2281,513.7969 603.1752,513.7969 " fill="none" id="ar-to-gs" style="stroke:#181818;stroke-width:1.0;"/><polygon fill="#181818" points="603.1752,513.7969,612.1752,517.7969,608.1752,513.7969,612.1752,509.7969,603.1752,513.7969" style="stroke:#181818;stroke-width:1.0;"/><text fill="#000000" font-family="sans-serif" font-size="13" lengthAdjust="spacing" textLength="170" x="563.0891" y="506.8638">Harvest metadata &amp; index</text></g><!--MD5=[f15f186a32d2bbc0c552a26ea7bab264]
link n2r to 1in2--><g id="link_n2r_1in2"><path d="M979.4561,532.0689 C986.7891,593.3939 1002.4491,802.4249 892.0891,904.2969 C850.1661,942.9949 692.5441,970.0879 601.3671,982.9016 " fill="none" id="n2r-to-1in2" style="stroke:#181818;stroke-width:1.0;"/><polygon fill="#181818" points="596.2691,983.613,605.735,986.3326,601.2212,982.9229,604.6309,978.4091,596.2691,983.613" style="stroke:#181818;stroke-width:1.0;"/><text fill="#000000" font-family="sans-serif" font-size="13" lengthAdjust="spacing" textLength="62" x="948.0891" y="838.3638">LAUNCH!!</text></g><!--MD5=[28cd7600394111ba5c4ff0a32ad67065]
link n2 to 2in2--><g id="link_n2_2in2"><path d="M151.2471,532.0369 C156.1371,604.8529 175.0991,887.2109 180.5911,968.9879 " fill="none" id="n2-to-2in2" style="stroke:#181818;stroke-width:1.0;"/><polygon fill="#181818" points="180.9331,974.0799,184.3224,964.8326,180.5988,969.0911,176.3403,965.3675,180.9331,974.0799" style="stroke:#181818;stroke-width:1.0;"/><text fill="#000000" font-family="sans-serif" font-size="13" lengthAdjust="spacing" textLength="62" x="173.0891" y="838.3638">LAUNCH!!</text></g><!--MD5=[9c1469314eff89420aabcacc806f5138]
link 2in2 to n2m--><g id="link_2in2_n2m"><path d="M190.1641,974.1709 C202.8631,946.7729 227.7401,891.1889 244.0891,842.2969 C281.7021,729.8129 312.2701,590.8659 323.4821,537.3069 " fill="none" id="2in2-to-n2m" style="stroke:#181818;stroke-width:1.0;"/><polygon fill="#181818" points="324.5691,532.0949,318.8175,540.0898,323.5493,536.9898,326.6493,541.7215,324.5691,532.0949" style="stroke:#181818;stroke-width:1.0;"/><text fill="#000000" font-family="sans-serif" font-size="13" lengthAdjust="spacing" textLength="31" x="251.0891" y="838.3638">Push</text></g><!--MD5=[d90545a30c2c55d0b80c7ba58db2f19b]
@startuml
title: Full ATAP environment
rectangle "ATAP Website" as aw {

rectangle "Registry"  {

}

rectangle "Tutorials" {
 rectangle "Notebook 2 Tutorial" as  nt2  {

}

}

}

nt2 - - -down- -> tin2 : LAUNCH


cloud Workspaces as ws {

database "Git Server" as gs {
rectangle "Notebook 1" as  n1 {

}
rectangle "Notebook 2" as  n2 {

}

rectangle "Notebook 2 (modified)" as  n2m {

}



}

rectangle "Binder Hub"  as bh {

rectangle "Instance of N2" as  1in2 {

}


rectangle "Instance of N2" as  tin2 {

}
rectangle "Instance of N2 (modified)" as  2in2 {

}


}
}

cloud "Archival Repositories" as ar {
database "ATAP repo" as a {

rectangle "Notebook Registry" as nr {
rectangle "Notebook 1" as  n1r {

}
rectangle "Notebook 2" as  n2r {

}
}

}

database "LDaCA repo\n\n\n\n\n\n\n\n\n\n\n\n\n\n\n\n\n\n\n" as l {
}

}


ws - -right- -> ar : Data deposit
a - -left- -> ws :  Data use
note bottom of gs : Eg github / gitlab
ar - -> gs : Harvest metadata & index
n2r - - - -> 1in2 : LAUNCH!!
n2 - - - -> 2in2 : LAUNCH!!
2in2 - - -> n2m: Push
@enduml

PlantUML version 1.2022.8beta6(Unknown compile time)
(GPL source distribution)
Java Runtime: Java(TM) SE Runtime Environment
JVM: Java HotSpot(TM) 64-Bit Server VM
Default Encoding: UTF-8
Language: en
Country: US
--></g></svg>