<?xml version="1.0" encoding="UTF-8" standalone="no"?><svg xmlns="http://www.w3.org/2000/svg" xmlns:xlink="http://www.w3.org/1999/xlink" contentStyleType="text/css" height="200px" preserveAspectRatio="none" style="width:855px;height:200px;background:#FFFFFF;" version="1.1" viewBox="0 0 855 200" width="855px" zoomAndPan="magnify"><defs/><g><rect fill="none" height="26.2969" id="_title" style="stroke:none;stroke-width:1.0;" width="245" x="298.2421" y="5"/><text fill="#000000" font-family="sans-serif" font-size="14" font-weight="bold" lengthAdjust="spacing" textLength="235" x="303.2421" y="22.9951">ATAP Ecosystem - Publishing</text><!--MD5=[50093eb77a31ed1c6cfcedfdeb891791]
cluster ws--><g id="cluster_ws"><path d="M18.0808,79.1035 C20.0516,73.4282 24.0326,71.5775 29.1756,75.3966 C32.0876,69.3472 36.9172,68.688 40.6609,74.5978 C43.4945,68.7684 47.8987,67.8399 52.646,72.3875 C54.6642,67.1786 58.3798,65.9286 62.404,70.3561 C64.6921,64.7351 69.4062,64.8857 72.4628,69.6087 C75.8153,64.7404 81.1662,64.9266 84.2323,69.9494 C87.8774,66.064 93.1791,67.3503 94.9319,72.2532 C99.7752,67.9677 104.6453,68.8923 107.215,74.9527 C110.5886,70.7115 114.9765,71.1582 117.7937,75.6285 C123.244,70.4541 126.617,72.9135 129.247,78.6021 C136.0981,81.2634 136.4693,87.301 130.2743,91.0398 C137.0975,95.0352 136.0733,100.4875 130.4116,104.6093 C137.9747,107.5802 138.5712,111.9705 132.7629,117.3995 C137.9093,121.7264 137.442,127.6915 131.3115,130.7966 C137.8347,135.8175 136.764,142.3099 129.6665,145.8415 C136.0587,149.8783 135.8952,155.4879 129.1056,158.9612 C125.0366,163.9477 120.4237,164.1042 116.8159,158.4296 C114.0483,162.8311 111.2206,163.5544 107.5859,159.3607 C103.4113,164.1515 99.1038,164.6133 95.7142,158.5057 C91.8896,163.5722 87.7983,163.6404 83.9196,158.5686 C81.9987,164.1941 76.9209,164.3594 73.3522,160.382 C70.2029,164.7093 65.2898,165.2645 62.4799,159.9974 C58.677,165.2686 53.9144,164.2989 51.8189,158.3719 C48.5849,163.7735 45.0843,164.2861 41.3722,158.832 C36.7568,165.1557 32.6186,163.8553 28.5074,158.2865 C25.9704,163.7034 20.5171,164.2931 17.4875,158.7834 C11.6161,155.0726 10.9989,150.7262 15.897,145.7056 C8.7252,142.9989 6,136.1276 12.9333,130.6452 C7.606,127.5667 6.2384,122.6184 11.7816,118.5083 C6.2926,113.8396 6.9247,107.0711 14.5216,105.0707 C7.7523,99.9837 10.5707,93.6356 17.1229,91.0137 C11.5299,87.212 13.0045,82.0471 18.0808,79.1035 " fill="none" style="stroke:#181818;stroke-width:1.0;"/><text fill="#000000" font-family="sans-serif" font-size="14" font-weight="bold" lengthAdjust="spacing" textLength="97" x="23.9477" y="95.1944">Workspaces</text></g><!--MD5=[20a0156f4b163439148bbba4be1d8d29]
cluster ar--><g id="cluster_ar"><path d="M171.6062,84.9568 C185.8214,62.7767 204.1109,59.7648 220.5524,82.5325 C231.2895,59.2068 248.6238,57.2741 264.4451,77.3962 C280.0427,53.8959 297.3911,50.9479 313.5089,76.8799 C327.5518,50.8394 349.8074,52.0743 365.7217,74.8794 C379.4255,57.229 394.6861,59.4377 406.751,76.7999 C420.1609,50.8841 442.2699,47.7218 460.5749,71.4979 C475.3691,51.2337 488.9359,50.5734 505.0134,70.0634 C523.0517,44.0623 538.3696,43.2969 555.7833,70.6577 C567.4517,49.419 587.7554,50.65 598.4465,71.645 C614.391,54.814 632.7957,54.6642 644.1926,76.9616 C660.741,53.9181 676.9562,56.1394 694.354,75.9677 C709.9166,53.411 729.534,54.6198 740.6975,80.2027 C755.6778,54.2592 777.7664,55.4581 790.5895,82.2438 C801.5067,57.4196 821.0004,56.096 835.6684,78.677 C845.5286,86.017 843.1125,92.6605 834.4925,98.9273 C845.494,103.5987 847.398,111.4625 837.3474,119.1115 C846.0679,125.6886 842.8123,134.9653 833.9036,138.3938 C847.2433,144.9794 848.4841,154.069 838.3642,164.6415 C821.2632,186.7841 803.0754,180.6318 791.0338,159.152 C775.32,187.0311 759.3084,191.3864 738.161,164.3871 C726.9904,183.5086 709.5744,189.5789 695.1985,167.7499 C682.0522,190.4481 661.9665,190.8673 650.4305,166.2271 C634.583,193.2622 617.3766,191.2943 600.1138,167.6316 C588.8407,191.9623 569.0909,190.0092 555.1673,170.3391 C536.5447,192.3073 518.7766,193.6739 504.6468,165.7864 C488.6806,187.5081 469.8415,184.5594 457.0378,162.3584 C443.639,188.1125 422.6719,186.1578 406.1588,165.7942 C388.9599,183.2937 375.7219,180.4488 362.9091,160.7013 C348.9676,184.19 326.9339,188.7151 310.5921,163.2674 C301.5946,185.2896 282.4502,181.3409 270.8269,166.0668 C252.5384,192.71 232.2506,190.836 219.1109,161.325 C201.7272,182.4585 186.6255,186.5865 170.7728,159.7812 C158.2716,156.6001 156.4243,148.1187 164.5985,138.8413 C151.8246,136.775 149.9135,129.5165 155.5911,119.0518 C150.3693,109.2913 153.7572,102.212 164.763,100.4548 C159.8861,91.8818 161.8372,87.0629 171.6062,84.9568 " fill="none" style="stroke:#181818;stroke-width:1.0;"/><text fill="#000000" font-family="sans-serif" font-size="14" font-weight="bold" lengthAdjust="spacing" textLength="173" x="413.4477" y="95.1944">Archival Repositories</text></g><!--MD5=[4d3fe30f1291fc2fac05ba39abe9dac2]
entity git--><g id="elem_git"><path d="M25.9477,114.1993 C25.9477,104.1993 72.4477,104.1993 72.4477,104.1993 C72.4477,104.1993 118.9477,104.1993 118.9477,114.1993 L118.9477,139.4962 C118.9477,149.4962 72.4477,149.4962 72.4477,149.4962 C72.4477,149.4962 25.9477,149.4962 25.9477,139.4962 L25.9477,114.1993 " fill="#F1F1F1" style="stroke:#181818;stroke-width:0.5;"/><path d="M25.9477,114.1993 C25.9477,124.1993 72.4477,124.1993 72.4477,124.1993 C72.4477,124.1993 118.9477,124.1993 118.9477,114.1993 " fill="none" style="stroke:#181818;stroke-width:0.5;"/><text fill="#000000" font-family="sans-serif" font-size="14" lengthAdjust="spacing" textLength="73" x="35.9477" y="141.1944">Git Server</text></g><!--MD5=[449c910214855d4d7fcaa034bc35ee26]
entity adp--><g id="elem_adp"><rect fill="#F1F1F1" height="36.2969" rx="2.5" ry="2.5" style="stroke:#181818;stroke-width:0.5;" width="143" x="680.9477" y="108.6993"/><text fill="#000000" font-family="sans-serif" font-size="14" lengthAdjust="spacing" textLength="123" x="690.9477" y="131.6944">ATAP Data Portal</text></g><!--MD5=[f83ae91a690dfc657e1c5fbbd818f13d]
entity a--><g id="elem_a"><path d="M549.4477,114.1993 C549.4477,104.1993 597.4477,104.1993 597.4477,104.1993 C597.4477,104.1993 645.4477,104.1993 645.4477,114.1993 L645.4477,139.4962 C645.4477,149.4962 597.4477,149.4962 597.4477,149.4962 C597.4477,149.4962 549.4477,149.4962 549.4477,139.4962 L549.4477,114.1993 " fill="#F1F1F1" style="stroke:#181818;stroke-width:0.5;"/><path d="M549.4477,114.1993 C549.4477,124.1993 597.4477,124.1993 597.4477,124.1993 C597.4477,124.1993 645.4477,124.1993 645.4477,114.1993 " fill="none" style="stroke:#181818;stroke-width:0.5;"/><text fill="#000000" font-family="sans-serif" font-size="14" lengthAdjust="spacing" textLength="76" x="559.4477" y="141.1944">ATAP repo</text></g><!--MD5=[6daba76d8761c3a357662017ec1c04bc]
entity z--><g id="elem_z"><rect fill="#F1F1F1" height="36.2969" rx="2.5" ry="2.5" style="stroke:#181818;stroke-width:0.5;" width="75" x="438.9477" y="108.6993"/><text fill="#000000" font-family="sans-serif" font-size="14" lengthAdjust="spacing" textLength="55" x="448.9477" y="131.6944">Zenodo</text></g><!--MD5=[1729cd35d55f98b869577ea5b63d9f84]
entity idp--><g id="elem_idp"><rect fill="#F1F1F1" height="36.2969" rx="2.5" ry="2.5" style="stroke:#181818;stroke-width:0.5;" width="228" x="175.4477" y="108.6993"/><text fill="#000000" font-family="sans-serif" font-size="14" lengthAdjust="spacing" textLength="208" x="185.4477" y="131.6944">Institutional Data Repository</text></g><!--MD5=[e131985c9e828ab42be3fde3f567e46f]
@startuml
title: ATAP Ecosystem - Publishing


cloud Workspaces as ws {

database "Git Server" as git {

}



}

cloud "Archival Repositories" as ar {
rectangle "ATAP Data Portal" as adp {

}
database "ATAP repo" as a {


}

rectangle "Zenodo" as z {

}

rectangle "Institutional Data Repository" as idp {

}

rectangle "Institutional Data Repo" as z {

}

}
@enduml

PlantUML version 1.2022.8beta9(Unknown compile time)
(GPL source distribution)
Java Runtime: Java(TM) SE Runtime Environment
JVM: Java HotSpot(TM) 64-Bit Server VM
Default Encoding: UTF-8
Language: en
Country: US
--></g></svg>