<?xml version="1.0" encoding="UTF-8" standalone="no"?><svg xmlns="http://www.w3.org/2000/svg" xmlns:xlink="http://www.w3.org/1999/xlink" contentStyleType="text/css" height="414px" preserveAspectRatio="none" style="width:754px;height:414px;background:#FFFFFF;" version="1.1" viewBox="0 0 754 414" width="754px" zoomAndPan="magnify"><defs/><g><rect fill="none" height="26.2969" id="_title" style="stroke:none;stroke-width:1.0;" width="261" x="239.6493" y="5"/><text fill="#000000" font-family="sans-serif" font-size="14" font-weight="bold" lengthAdjust="spacing" textLength="251" x="244.6493" y="22.9951">ATAP Ecosystem - components</text><!--MD5=[50093eb77a31ed1c6cfcedfdeb891791]
cluster ws--><g id="cluster_ws"><path d="M381.6849,160.3244 C388.238,147.8111 397.8378,146.6198 405.7153,159.0485 C412.3858,148.0458 421.7976,147.3472 429.4729,157.9433 C436.3784,146.6831 448.7926,145.3236 455.1069,158.5619 C462.3133,144.7621 473.318,144.2119 481.0761,158.0434 C486.0272,145.6182 495.5013,145.9329 502.8451,155.696 C511.3591,142.6854 523.296,147.9033 528.4646,159.2192 C534.7194,147.241 541.4034,145.0878 551.0233,155.8863 C557.5613,145.3806 569.7851,144.8538 576.4299,155.7595 C584.6883,142.1599 595.2348,144.3382 602.5123,156.7434 C612.0424,145.188 622.2001,146.8961 629.3043,159.4403 C634.4937,149.6595 645.1294,149.808 651.1032,158.5156 C659.1752,145.1251 670.4175,148.2623 676.4715,160.5122 C683.0915,148.8734 694.0807,145.2582 702.4153,158.7416 C713.4285,149.3822 726.2921,149.5304 730.2016,166.2969 C731.3808,166.1028 732.0558,166.8543 731.8446,168.0009 C746.3903,174.9381 743.9046,187.5306 731.8841,194.5074 C744.5635,203.5014 747.0378,212.929 732.1262,222.1645 C744.6059,227.8455 745.184,237.8761 734.7694,246.0868 C746.3963,255.3875 744.4111,264.8083 732.5821,272.1398 C747.2939,281.2274 745.4779,292.836 733.3026,302.5604 C744.6512,310.048 744.1038,317.6066 733.602,325.3809 C747.2985,335.7454 743.5017,346.7871 730.8485,354.6749 C742.4393,365.6779 741.0162,380.8848 723.2016,384.2969 C723.9154,383.8444 724.4045,384.2523 724.4153,385.0049 C717.9404,398.6558 709.3662,399.016 699.2679,388.8271 C693.1657,399.3394 684.0523,400.2127 676.3569,390.6449 C666.9136,403.3891 659.4887,402.3038 651.483,389.2585 C644.2181,401.79 633.7154,399.9697 625.9607,389.8094 C618.8746,401.9445 608.2582,399.7815 601.3886,389.5713 C595.201,401.7799 587.2488,399.8738 579.2898,391.4706 C573.4712,407.0894 559.6742,406.8046 551.5345,393.7146 C544.9183,403.3969 534.2402,402.8622 528.5214,392.6752 C520.4276,406.1018 507.6944,405.6727 501.753,390.6499 C495.1094,401.9652 486.7666,401.2576 479.7115,391.0718 C472.1262,403.4035 460.5418,403.5998 453.851,390.1737 C444.6215,401.1809 436.1392,401.6339 428.5345,388.4719 C421.8195,397.9798 411.795,396.3752 407.4813,385.9373 C393.4621,402.2611 377.2144,394.5905 371.2016,377.2969 C372.3792,377.0849 373.2242,377.6992 372.7817,378.9949 C360.1063,371.1036 359.1436,360.0317 371.8103,351.253 C359.6605,347.5603 359.132,336.1818 367.7419,328.7379 C355.3011,321.2763 355.5725,308.3196 368.4405,301.5075 C353.4803,293.3569 355.922,283.1245 367.2194,273.816 C355.227,266.3141 353.6329,253.9138 366.5291,245.7986 C354.4509,238.2558 357.2011,226.9557 369.1814,222.1063 C357.4671,214.4724 358.159,201.6202 370.2911,194.9611 C358.3327,180.8449 357.8149,166.2388 378.2016,159.2969 C379.8168,158.2261 380.9771,158.3193 381.6849,160.3244 " fill="#FFC0CB" style="stroke:#181818;stroke-width:1.0;"/><text fill="#000000" font-family="sans-serif" font-size="14" font-style="italic" lengthAdjust="spacing" textLength="94" x="503.7016" y="177.292">«workspace»</text><text fill="#000000" font-family="sans-serif" font-size="14" font-weight="bold" lengthAdjust="spacing" textLength="97" x="502.2016" y="193.5889">Workspaces</text></g><!--MD5=[20a0156f4b163439148bbba4be1d8d29]
cluster ar--><g id="cluster_ar"><path d="M35.3049,167.6159 C41.8098,159.6173 47.4995,160.1686 52.729,168.941 C57.453,157.335 66.2278,156.1107 74.1191,165.7523 C79.4073,155.903 85.4458,155.732 93.5115,162.5137 C99.5388,153.1131 108.9477,151.2851 115.8416,161.5285 C120.9227,152.3886 129.0072,151.1145 136.2493,158.927 C141.265,149.4217 148.3671,149.3958 154.7787,157.4545 C160.2526,147.0351 169.2515,145.1223 176.2199,155.9459 C183.3582,148.9898 191.5235,149.4598 194.8571,159.9989 C200.9207,149.8778 209.0695,151.5857 214.8514,160.2979 C221.831,151.4636 230.6584,148.6301 237.1195,160.8463 C245.099,152.5545 251.9741,155.3993 256.4381,164.7056 C261.7019,155.5723 270.0211,155.1674 275.9914,163.9339 C284.7582,154.0207 292.5726,155.7308 296.9711,168.0552 C308.2854,158.2794 317.6472,159.8667 323.2016,174.2969 C325.5089,173.4514 326.813,174.3098 326.6719,176.8251 C336.5677,181.985 335.2314,190.3858 326.5072,195.3805 C335.0727,200.3275 336.4802,209.3818 328.0345,215.6129 C338.4159,219.0229 340.3359,224.5922 332.9231,233.0041 C343.5668,238.2608 346.7571,248.4694 334.9392,255.7198 C342.8669,260.3972 343.6975,267.8942 334.9762,272.608 C346.1549,280.6027 343.1891,287.319 334.018,294.4197 C341.7085,299.4711 342.2866,308.2051 332.6693,311.9229 C340.8958,318.8107 340.0305,328.7636 328.5445,331.4975 C336.4473,338.6629 335.3338,344.887 326.8363,350.5846 C335.3258,361.7981 332.7624,375.4443 316.2016,376.2969 C318.9951,375.6025 320.6178,377.2339 319.5975,380.019 C311.1538,389.2527 302.9223,387.4743 297.6324,376.5777 C291.2262,385.9708 283.5518,388.9805 275.8785,377.9258 C269.351,386.185 262.6413,386.9642 256.1573,377.8762 C249.0832,389.0394 242.357,387.8808 235.6072,377.5659 C231.1511,385.5058 221.988,387.8825 216.9975,378.1279 C210.8324,388.3944 204.0844,389.0816 197.3441,378.6748 C190.6989,388.1231 182.1192,390.1451 175.8959,378.2508 C170.3377,387.9959 160.8269,388.8766 154.561,379.0211 C150.0438,388.2348 141.7999,389.4233 136.5394,379.7295 C129.98,388.2439 121.2639,388.059 115.9087,378.3651 C110.168,389.3392 102.9781,388.9506 96.2481,379.3085 C89.4165,390.4215 79.9527,387.9813 74.4201,377.9665 C68.615,389.1843 58.9162,387.7281 52.8664,378.2211 C40.2219,388.3889 29.5387,384.8816 25.2016,369.2969 C25.9989,368.6587 26.518,368.8294 26.7952,369.8092 C15.0384,363.6272 11.9884,356.3504 23.1949,346.6054 C12.9432,340.7599 8.6121,330.1939 21.1316,322.4069 C9.8228,315.7847 11.9757,305.5871 21.6092,299.3996 C10.3165,293.7158 6,284.5793 17.369,274.9633 C6.5945,265.6264 7.7475,257.007 20.9293,251.2699 C7.4146,242.5374 6.7437,231.7142 21.6534,223.7291 C12.0056,215.2149 13.8211,207.9151 24.7732,202.4164 C11.1324,187.4037 12.4431,175.2451 32.2016,167.2969 C33.3562,165.8977 34.456,166.0419 35.3049,167.6159 " fill="#90EE90" style="stroke:#181818;stroke-width:1.0;"/><text fill="#000000" font-family="sans-serif" font-size="14" font-style="italic" lengthAdjust="spacing" textLength="90" x="129.2016" y="185.292">«repository»</text><text fill="#000000" font-family="sans-serif" font-size="14" font-weight="bold" lengthAdjust="spacing" textLength="173" x="87.7016" y="201.5889">Archival Repositories</text></g><!--MD5=[9df8cf392a5ce0f511a82455335437ab]
entity aw--><g id="elem_aw"><rect fill="#F1F1F1" height="36.2969" rx="2.5" ry="2.5" style="stroke:#181818;stroke-width:0.5;" width="122" x="253.2016" y="44.2969"/><text fill="#000000" font-family="sans-serif" font-size="14" lengthAdjust="spacing" textLength="102" x="263.2016" y="67.292">ATAP Website</text></g><!--MD5=[4d3fe30f1291fc2fac05ba39abe9dac2]
entity git--><g id="elem_git"><path d="M395.7016,333.2969 C395.7016,323.2969 442.2016,323.2969 442.2016,323.2969 C442.2016,323.2969 488.7016,323.2969 488.7016,333.2969 L488.7016,358.5938 C488.7016,368.5938 442.2016,368.5938 442.2016,368.5938 C442.2016,368.5938 395.7016,368.5938 395.7016,358.5938 L395.7016,333.2969 " fill="#F1F1F1" style="stroke:#181818;stroke-width:0.5;"/><path d="M395.7016,333.2969 C395.7016,343.2969 442.2016,343.2969 442.2016,343.2969 C442.2016,343.2969 488.7016,343.2969 488.7016,333.2969 " fill="none" style="stroke:#181818;stroke-width:0.5;"/><text fill="#000000" font-family="sans-serif" font-size="14" lengthAdjust="spacing" textLength="73" x="405.7016" y="360.292">Git Server</text></g><!--MD5=[bdcd9ce91ffb4845b67ef28492c322c8]
entity bh--><g id="elem_bh"><rect fill="#F1F1F1" height="36.2969" rx="2.5" ry="2.5" style="stroke:#181818;stroke-width:0.5;" width="99" x="480.7016" y="210.2969"/><text fill="#000000" font-family="sans-serif" font-size="14" lengthAdjust="spacing" textLength="79" x="490.7016" y="233.292">Binder Hub</text></g><!--MD5=[2271387efd9ec408171f11e77a32a4f7]
entity nectar--><g id="elem_nectar"><rect fill="#F1F1F1" height="36.2969" rx="2.5" ry="2.5" style="stroke:#181818;stroke-width:0.5;" width="190" x="524.2016" y="327.7969"/><text fill="#000000" font-family="sans-serif" font-size="14" lengthAdjust="spacing" textLength="170" x="534.2016" y="350.792">Nectar Virtual Compute</text></g><!--MD5=[449c910214855d4d7fcaa034bc35ee26]
entity adp--><g id="elem_adp"><rect fill="#F1F1F1" height="36.2969" rx="2.5" ry="2.5" style="stroke:#181818;stroke-width:0.5;" width="143" x="171.7016" y="210.2969"/><text fill="#000000" font-family="sans-serif" font-size="14" lengthAdjust="spacing" textLength="123" x="181.7016" y="233.292">ATAP Data Portal</text></g><!--MD5=[f83ae91a690dfc657e1c5fbbd818f13d]
entity a--><g id="elem_a"><path d="M118.2016,333.2969 C118.2016,323.2969 166.2016,323.2969 166.2016,323.2969 C166.2016,323.2969 214.2016,323.2969 214.2016,333.2969 L214.2016,358.5938 C214.2016,368.5938 166.2016,368.5938 166.2016,368.5938 C166.2016,368.5938 118.2016,368.5938 118.2016,358.5938 L118.2016,333.2969 " fill="#F1F1F1" style="stroke:#181818;stroke-width:0.5;"/><path d="M118.2016,333.2969 C118.2016,343.2969 166.2016,343.2969 166.2016,343.2969 C166.2016,343.2969 214.2016,343.2969 214.2016,333.2969 " fill="none" style="stroke:#181818;stroke-width:0.5;"/><text fill="#000000" font-family="sans-serif" font-size="14" lengthAdjust="spacing" textLength="76" x="128.2016" y="360.292">ATAP repo</text></g><!--MD5=[6daba76d8761c3a357662017ec1c04bc]
entity z--><g id="elem_z"><rect fill="#F1F1F1" height="36.2969" rx="2.5" ry="2.5" style="stroke:#181818;stroke-width:0.5;" width="103" x="33.7016" y="210.2969"/><text fill="#000000" font-family="sans-serif" font-size="14" lengthAdjust="spacing" textLength="83" x="43.7016" y="233.292">Zenodo etc</text></g><!--MD5=[2132c769fa58d85e1912c65bd3c3f532]
link bh to git--><g id="link_bh_git"><path d="M491.8766,246.3719 C479.0826,253.8409 465.8876,263.7939 457.2016,276.2969 C448.8006,288.3889 444.9896,304.3449 443.3066,317.8148 " fill="none" id="bh-to-git" style="stroke:#181818;stroke-width:1.0;"/><polygon fill="#181818" points="442.7436,323.0325,447.687,314.5141,443.2806,318.0614,439.7333,313.655,442.7436,323.0325" style="stroke:#181818;stroke-width:1.0;"/><text fill="#000000" font-family="sans-serif" font-size="13" lengthAdjust="spacing" textLength="99" x="458.2016" y="289.3638">Fetch notebook</text></g><!--MD5=[71c89033ef370983d7f299a2eb4b796a]
link bh to nectar--><g id="link_bh_nectar"><path d="M543.3336,246.3389 C559.1746,266.8969 585.8056,301.4569 602.9326,323.684 " fill="none" id="bh-to-nectar" style="stroke:#181818;stroke-width:1.0;"/><polygon fill="#181818" points="606.0156,327.6846,603.69,318.1142,602.9635,323.7242,597.3535,322.9976,606.0156,327.6846" style="stroke:#181818;stroke-width:1.0;"/><text fill="#000000" font-family="sans-serif" font-size="13" lengthAdjust="spacing" textLength="111" x="578.2016" y="289.3638">Launch Notebook</text></g><!--MD5=[05418fac0b7a6a575845dd9c19890c82]
link adp to git--><g id="link_adp_git"><path d="M264.7436,246.5239 C282.3086,260.1369 308.0726,279.1379 332.2016,293.2969 C350.7276,304.1679 371.9276,314.5419 390.7396,323.093 " fill="none" id="adp-to-git" style="stroke:#181818;stroke-width:1.0;"/><polygon fill="#181818" points="395.4676,325.227,388.9102,317.8785,390.9103,323.1699,385.6189,325.1701,395.4676,325.227" style="stroke:#181818;stroke-width:1.0;"/><text fill="#000000" font-family="sans-serif" font-size="13" lengthAdjust="spacing" textLength="107" x="333.2016" y="289.3638">Index Notebooks</text></g><!--MD5=[88d6fd47c6e5a030fcf9008fc995e488]
link adp to a--><g id="link_adp_a"><path d="M196.2546,246.3819 C183.2356,253.5369 170.6426,263.2949 163.2016,276.2969 C156.1026,288.7009 156.3226,304.5369 158.5576,317.8579 " fill="none" id="adp-to-a" style="stroke:#181818;stroke-width:1.0;"/><polygon fill="#181818" points="159.5416,323.0156,161.7836,313.4253,158.6043,318.1042,153.9254,314.9249,159.5416,323.0156" style="stroke:#181818;stroke-width:1.0;"/><text fill="#000000" font-family="sans-serif" font-size="13" lengthAdjust="spacing" textLength="103" x="164.2016" y="289.3638">Index and serve</text></g><!--MD5=[fff3b6da1eb9466fa0030711be3d10c6]
link aw to adp--><g id="link_aw_adp"><path d="M306.7376,80.5379 C293.7066,110.6369 266.8386,172.6979 252.5756,205.6449 " fill="none" id="aw-to-adp" style="stroke:#181818;stroke-width:1.0;"/><polygon fill="#181818" points="250.5656,210.2869,257.8128,203.6177,252.5526,205.6986,250.4716,200.4385,250.5656,210.2869" style="stroke:#181818;stroke-width:1.0;"/><text fill="#000000" font-family="sans-serif" font-size="13" lengthAdjust="spacing" textLength="25" x="295.2016" y="123.3638">Link</text></g><!--MD5=[6b43acd1a85f23893d03dd921ae904b8]
link aw to ws--><g id="link_aw_ws"><path d="M320.1936,80.5379 C327.3966,101.2619 339.8658,137.1379 350.6725,168.2303 C353.3741,176.0033 355.9719,183.4775 358.3574,190.3411 C359.5502,193.7729 360.6899,197.0521 361.7631,200.1398 C362.0314,200.9117 362.2955,201.6716 362.5553,202.419 C362.6852,202.7927 362.8139,203.1632 362.9416,203.5305 C363.0054,203.7142 363.069,203.897 363.1323,204.0791 " fill="none" id="aw-to-ws" style="stroke:#181818;stroke-width:1.0;"/><polygon fill="#181818" points="363.1323,204.0791,363.9559,194.2647,361.4908,199.3562,356.3993,196.8911,363.1323,204.0791" style="stroke:#181818;stroke-width:1.0;"/><text fill="#000000" font-family="sans-serif" font-size="13" lengthAdjust="spacing" textLength="25" x="337.2016" y="123.3638">Link</text></g><!--MD5=[5e3034344fcf59622994028f1aa5be03]
@startuml
title: ATAP Ecosystem - components

skinparam cloud<<workspace>> {
    backgroundcolor Pink

}

skinparam cloud<<repository>> {
    backgroundcolor LightGreen


}


rectangle "ATAP Website" as aw {

}

cloud Workspaces as ws <<workspace>> {

database "Git Server" as git {

}

rectangle "Binder Hub"  as bh {
}

rectangle "Nectar Virtual Compute"  as nectar {
}

}

bh -down-> git : Fetch notebook
bh -down-> nectar : Launch Notebook
cloud "Archival Repositories" as ar <<repository>> {

rectangle "ATAP Data Portal" as adp {

}
database "ATAP repo" as a {


}

rectangle "Zenodo etc" as z {

}

rectangle "Institutional Data Repo" as z {

}

}

adp -left-> git : Index Notebooks

adp -down-> a : Index and serve
aw -down-> adp : Link
aw -down-> ws : Link
@enduml

PlantUML version 1.2022.8beta9(Unknown compile time)
(GPL source distribution)
Java Runtime: Java(TM) SE Runtime Environment
JVM: Java HotSpot(TM) 64-Bit Server VM
Default Encoding: UTF-8
Language: en
Country: US
--></g></svg>