<?xml version="1.0" encoding="UTF-8" standalone="no"?><svg xmlns="http://www.w3.org/2000/svg" xmlns:xlink="http://www.w3.org/1999/xlink" contentStyleType="text/css" height="476px" preserveAspectRatio="none" style="width:727px;height:476px;background:#FFFFFF;" version="1.1" viewBox="0 0 727 476" width="727px" zoomAndPan="magnify"><defs/><g><rect fill="none" height="26.2969" id="_title" style="stroke:none;stroke-width:1.0;" width="385" x="164" y="5"/><text fill="#000000" font-family="sans-serif" font-size="14" font-weight="bold" lengthAdjust="spacing" textLength="375" x="169" y="22.9951">Self contained corpus crate with all resources</text><!--MD5=[962f5a35e4ed158d57cb83032929f5e1]
cluster ROCrate: My Corpus--><g id="cluster_ROCrate: My Corpus"><path d="M8.5,43.2969 L171.5,43.2969 A3.75,3.75 0 0 1 174,45.7969 L181,65.5938 L717.5,65.5938 A2.5,2.5 0 0 1 720,68.0938 L720,466.7969 A2.5,2.5 0 0 1 717.5,469.2969 L8.5,469.2969 A2.5,2.5 0 0 1 6,466.7969 L6,45.7969 A2.5,2.5 0 0 1 8.5,43.2969 " fill="none" style="stroke:#000000;stroke-width:1.5;"/><line style="stroke:#000000;stroke-width:1.5;" x1="6" x2="181" y1="65.5938" y2="65.5938"/><text fill="#000000" font-family="sans-serif" font-size="14" font-weight="bold" lengthAdjust="spacing" textLength="162" x="10" y="58.292">ROCrate: My Corpus</text></g><!--MD5=[9b5fd479ff9e12a7cc0df0f0353b59f8]
entity a1--><g id="elem_a1"><rect fill="#F1F1F1" height="36.2969" rx="2.5" ry="2.5" style="stroke:#181818;stroke-width:0.5;" width="220" x="105" y="417.2969"/><text fill="#000000" font-family="sans-serif" font-size="14" lengthAdjust="spacing" textLength="200" x="115" y="440.292">File, Audio:  files/audio1.wav</text></g><!--MD5=[7390fb06dead13a51c589bbf615679ce]
entity csv1--><g id="elem_csv1"><rect fill="#F1F1F1" height="36.2969" rx="2.5" ry="2.5" style="stroke:#181818;stroke-width:0.5;" width="343" x="360.5" y="417.2969"/><text fill="#000000" font-family="sans-serif" font-size="14" lengthAdjust="spacing" textLength="323" x="370.5" y="440.292">File, OthographicTranscription: files/csv1.csv</text></g><!--MD5=[82f23cda116f7491e2ad662b9686858a]
entity files--><g id="elem_files"><rect fill="#F1F1F1" height="36.2969" rx="2.5" ry="2.5" style="stroke:#181818;stroke-width:0.5;" width="116" x="588" y="304.2969"/><text fill="#000000" font-family="sans-serif" font-size="14" lengthAdjust="spacing" textLength="96" x="598" y="327.292">Dataset: files</text></g><!--MD5=[db956f40f2dc50163091c98812b3e6f0]
entity cc--><g id="elem_cc"><rect fill="#F1F1F1" height="36.2969" rx="2.5" ry="2.5" style="stroke:#181818;stroke-width:0.5;" width="251" x="408.5" y="78.2969"/><text fill="#000000" font-family="sans-serif" font-size="14" lengthAdjust="spacing" textLength="231" x="418.5" y="101.292">RepositoryCollection: MyCorpus</text></g><!--MD5=[df3f65bb428d6182b9f1cb89f779efa3]
entity o1--><g id="elem_o1"><rect fill="#F1F1F1" height="36.2969" rx="2.5" ry="2.5" style="stroke:#181818;stroke-width:0.5;" width="248" x="305" y="304.2969"/><text fill="#000000" font-family="sans-serif" font-size="14" lengthAdjust="spacing" textLength="228" x="315" y="327.292">RepositoryObject, Dialogue: #1</text></g><!--MD5=[faa3f1ca3e3ede7fe61b43e7609f74ed]
entity o2--><g id="elem_o2"><rect fill="#F1F1F1" height="36.2969" rx="2.5" ry="2.5" style="stroke:#181818;stroke-width:0.5;" width="247" x="22.5" y="304.2969"/><text fill="#000000" font-family="sans-serif" font-size="14" lengthAdjust="spacing" textLength="227" x="32.5" y="327.292">RepositoryObject, Dialogue: #2</text></g><!--MD5=[3d2111c8a0a2d14b8769ddc11704380e]
entity c2--><g id="elem_c2"><rect fill="#F1F1F1" height="36.2969" rx="2.5" ry="2.5" style="stroke:#181818;stroke-width:0.5;" width="268" x="295" y="191.2969"/><text fill="#000000" font-family="sans-serif" font-size="14" lengthAdjust="spacing" textLength="248" x="305" y="214.292">RepositoryCollection: Collection A</text></g><!--MD5=[28648b3a517a8822a9365d9ad950e59f]
link cc to c2--><g id="link_cc_c2"><path d="M517.594,114.6409 C499.024,134.2719 468.776,166.2479 448.88,187.2809 " fill="none" id="cc-to-c2" style="stroke:#181818;stroke-width:1.0;"/><polygon fill="#181818" points="445.291,191.0749,454.382,187.2862,448.7273,187.4428,448.5707,181.7881,445.291,191.0749" style="stroke:#181818;stroke-width:1.0;"/><text fill="#000000" font-family="sans-serif" font-size="13" lengthAdjust="spacing" textLength="75" x="488" y="157.3638">hasMember</text></g><!--MD5=[9311915b248ab7b5c5b1868a857406ef]
link c2 to o1--><g id="link_c2_o1"><path d="M429,227.6409 C429,246.8649 429,277.9269 429,298.9579 " fill="none" id="c2-to-o1" style="stroke:#181818;stroke-width:1.0;"/><polygon fill="#181818" points="429,304.0749,433,295.0749,429,299.0749,425,295.0749,429,304.0749" style="stroke:#181818;stroke-width:1.0;"/><text fill="#000000" font-family="sans-serif" font-size="13" lengthAdjust="spacing" textLength="75" x="430" y="270.3638">hasMember</text></g><!--MD5=[bcd7322c8e61bd409d9be1dd46861ae8]
link c2 to o2--><g id="link_c2_o2"><path d="M385.401,227.3969 C333.779,247.6449 248.057,281.2679 194.415,302.3069 " fill="none" id="c2-to-o2" style="stroke:#181818;stroke-width:1.0;"/><polygon fill="#181818" points="189.648,304.1769,199.4871,304.6141,194.3027,302.351,196.5658,297.1665,189.648,304.1769" style="stroke:#181818;stroke-width:1.0;"/><text fill="#000000" font-family="sans-serif" font-size="13" lengthAdjust="spacing" textLength="75" x="306" y="270.3638">hasMember</text></g><!--MD5=[d9ddaf9e2fe4a34e5495ce8f29682e0a]
link o1 to a1--><g id="link_o1_a1"><path d="M396.031,340.3969 C357.388,360.4419 293.475,393.5924 252.843,414.6683 " fill="none" id="o1-to-a1" style="stroke:#181818;stroke-width:1.0;"/><polygon fill="#181818" points="248.006,417.177,257.8371,416.5851,252.4448,414.8754,254.1545,409.4831,248.006,417.177" style="stroke:#181818;stroke-width:1.0;"/><text fill="#000000" font-family="sans-serif" font-size="13" lengthAdjust="spacing" textLength="49" x="335" y="383.3638">hasPart</text></g><!--MD5=[9d1176678757bd75fd8ade7fead5ca7d]
link o1 to csv1--><g id="link_o1_csv1"><path d="M430.208,340.4269 C431.976,354.3469 436.321,373.8159 447,387.2969 C456.046,398.716 468.666,407.7805 481.418,414.7791 " fill="none" id="o1-to-csv1" style="stroke:#181818;stroke-width:1.0;"/><polygon fill="#181818" points="486.116,417.2646,480.0318,409.5197,481.6966,414.9261,476.2902,416.5908,486.116,417.2646" style="stroke:#181818;stroke-width:1.0;"/><text fill="#000000" font-family="sans-serif" font-size="13" lengthAdjust="spacing" textLength="49" x="448" y="383.3638">hasPart</text></g><!--MD5=[20ed630a26c1e7423deb52c9bfa2417a]
link cc to files--><g id="link_cc_files"><path d="M550.068,114.7139 C557.376,123.2139 565.763,133.8439 572,144.2969 C603.23,196.6389 627.625,264.5959 638.998,299.0959 " fill="none" id="cc-to-files" style="stroke:#181818;stroke-width:1.0;"/><polygon fill="#181818" points="640.581,303.9379,641.5855,294.1404,639.0269,299.1855,633.9817,296.627,640.581,303.9379" style="stroke:#181818;stroke-width:1.0;"/><text fill="#000000" font-family="sans-serif" font-size="13" lengthAdjust="spacing" textLength="49" x="612" y="213.8638">hasPart</text></g><!--MD5=[efc1ec3c68cf46431925c959197e9c62]
link files to csv1--><g id="link_files_csv1"><path d="M635.89,340.5599 C627.39,354.1949 614.354,373.2049 600,387.2969 C589.785,397.3256 577.206,406.6748 565.657,414.3514 " fill="none" id="files-to-csv1" style="stroke:#181818;stroke-width:1.0;"/><polygon fill="#181818" points="561.455,417.1021,571.1759,415.5194,565.6384,414.3636,566.7942,408.826,561.455,417.1021" style="stroke:#181818;stroke-width:1.0;"/><text fill="#000000" font-family="sans-serif" font-size="13" lengthAdjust="spacing" textLength="49" x="615" y="383.3638">hasPart</text></g><!--MD5=[259b0818f678c7232fc3ac505cf88405]
link files to a1--><g id="link_files_a1"><path d="M607.999,340.3269 C566.272,359.0059 504.761,386.4723 502,387.2969 C470.233,396.786 395.529,408.9083 330.302,418.4649 " fill="none" id="files-to-a1" style="stroke:#181818;stroke-width:1.0;"/><polygon fill="#181818" points="325.224,419.2065,334.7077,421.8633,330.1715,418.4836,333.5512,413.9473,325.224,419.2065" style="stroke:#181818;stroke-width:1.0;"/><text fill="#000000" font-family="sans-serif" font-size="13" lengthAdjust="spacing" textLength="49" x="539" y="383.3638">hasPart</text></g><!--MD5=[55ed1a5e8fe5e0aa019eca14aa7447c3]
@startuml
title: Self contained corpus crate with all resources
package "ROCrate: My Corpus" {
   rectangle "RepositoryCollection: MyCorpus" as cc {

   }
   rectangle "RepositoryObject, Dialogue: #1" as o1 {

   }
   rectangle "RepositoryObject, Dialogue: #2" as o2 {

   }
   rectangle "File, Audio:  files/audio1.wav" as a1
   rectangle "File, OthographicTranscription: files/csv1.csv" as csv1
   rectangle "Dataset: files" as files



   rectangle "RepositoryCollection: Collection A" as c2 {

   }
   cc -down-> c2 : hasMember

   c2 -down-> o1 : hasMember
   c2 -down-> o2 : hasMember

   o1 -down-> a1 : hasPart
   o1 -down-> csv1 : hasPart


   cc -down-> files : hasPart
   files -down-> csv1 : hasPart
   files -down-> a1 : hasPart


}
@enduml

PlantUML version 1.2022.8beta6(Unknown compile time)
(GPL source distribution)
Java Runtime: Java(TM) SE Runtime Environment
JVM: Java HotSpot(TM) 64-Bit Server VM
Default Encoding: UTF-8
Language: en
Country: US
--></g></svg>