<?xml version="1.0" encoding="UTF-8" standalone="no"?><svg xmlns="http://www.w3.org/2000/svg" xmlns:xlink="http://www.w3.org/1999/xlink" contentStyleType="text/css" height="146px" preserveAspectRatio="none" style="width:332px;height:146px;background:#FFFFFF;" version="1.1" viewBox="0 0 332 146" width="332px" zoomAndPan="magnify"><defs/><g><text fill="#000000" font-family="sans-serif" font-size="14" font-weight="bold" lengthAdjust="spacing" textLength="195" x="61.5" y="22.9951">PARADISEC Architecture</text><!--cluster Nabu--><g id="cluster_Nabu"><path d="M135.5,43.2969 L177.5,43.2969 A3.75,3.75 0 0 1 180,45.7969 L187,65.5938 L322.5,65.5938 A2.5,2.5 0 0 1 325,68.0938 L325,136.7969 A2.5,2.5 0 0 1 322.5,139.2969 L135.5,139.2969 A2.5,2.5 0 0 1 133,136.7969 L133,45.7969 A2.5,2.5 0 0 1 135.5,43.2969 " fill="none" style="stroke:#000000;stroke-width:1.5;"/><line style="stroke:#000000;stroke-width:1.5;" x1="133" x2="187" y1="65.5938" y2="65.5938"/><text fill="#000000" font-family="sans-serif" font-size="14" font-weight="bold" lengthAdjust="spacing" textLength="41" x="137" y="58.292">Nabu</text></g><!--entity Metadata Database--><g id="elem_Metadata Database"><path d="M149,88.2969 C149,78.2969 229,78.2969 229,78.2969 C229,78.2969 309,78.2969 309,88.2969 L309,113.5938 C309,123.5938 229,123.5938 229,123.5938 C229,123.5938 149,123.5938 149,113.5938 L149,88.2969 " fill="#F1F1F1" style="stroke:#181818;stroke-width:0.5;"/><path d="M149,88.2969 C149,98.2969 229,98.2969 229,98.2969 C229,98.2969 309,98.2969 309,88.2969 " fill="none" style="stroke:#181818;stroke-width:0.5;"/><text fill="#000000" font-family="sans-serif" font-size="14" lengthAdjust="spacing" textLength="140" x="159" y="115.292">Metadata Database</text></g><!--entity NFS Storage--><g id="elem_NFS Storage"><path d="M6,88.2969 C6,78.2969 60,78.2969 60,78.2969 C60,78.2969 114,78.2969 114,88.2969 L114,113.5938 C114,123.5938 60,123.5938 60,123.5938 C60,123.5938 6,123.5938 6,113.5938 L6,88.2969 " fill="#F1F1F1" style="stroke:#181818;stroke-width:0.5;"/><path d="M6,88.2969 C6,98.2969 60,98.2969 60,98.2969 C60,98.2969 114,98.2969 114,88.2969 " fill="none" style="stroke:#181818;stroke-width:0.5;"/><text fill="#000000" font-family="sans-serif" font-size="14" lengthAdjust="spacing" textLength="88" x="16" y="115.292">NFS Storage</text></g><!--SRC=[AyaioKcrKWXm379qyGnsTLPmB4hEo2n9JIufBKhbuYf8JCvEJ4zLKF9BJ2fLKgZcKb1GI4aiIKnAB0OA-gQM989u2YvG8IK5e1AGcbekBY12gFHp2rO8Bial0fe5CWKe2m00]--></g></svg>