<?xml version="1.0" encoding="UTF-8" standalone="no"?><svg xmlns="http://www.w3.org/2000/svg" xmlns:xlink="http://www.w3.org/1999/xlink" contentStyleType="text/css" height="64px" preserveAspectRatio="none" style="width:434px;height:64px;background:#FFFFFF;" version="1.1" viewBox="0 0 434 64" width="434px" zoomAndPan="magnify"><defs/><g><!--MD5=[c9750dafa4ae4a01f4cdbdcf14d4b946]
entity ws--><g id="elem_ws"><path d="M13.9643,15.5868 C17.4064,8.9947 22.3028,8.0802 27.1183,14.1613 C31.411,7.5403 37.1153,8.1482 40.8975,14.6955 C43.5138,8.9749 48.9962,8.0443 52.7087,13.5414 C56.9143,6.8533 61.2637,6.2659 65.96,13.059 C68.8533,7.9644 73.6051,7.8753 77.1466,12.2971 C82.2217,7.5425 87.3671,7.56 90.6372,14.3978 C94.1881,8.3632 98.2547,9.0085 101.8746,14.3295 C106.8933,7.6093 112.1841,7.1326 116.4304,15.0953 C124.3239,17.7332 124.8421,24.3396 119.326,29.6461 C126.6534,36.8063 125.2202,43.0582 115.3333,46.0211 C111.1083,52.6703 107.0448,51.6455 102.5596,46.2981 C98.936,52.2765 93.7338,53.676 89.6136,46.7981 C87.7204,53.8681 82.2293,55.6966 77.2305,49.7533 C73.7121,56.2247 69.2208,56.5877 64.8367,50.6155 C60.3057,55.4929 54.5267,54.8628 52.1515,48.2379 C48.6235,54.4721 43.5246,54.38 40.2672,47.9833 C35.9823,53.5234 30.3079,51.7228 28.2312,45.6873 C23.7773,52.4178 17.736,51.0672 14.2704,44.6387 C6,40.5162 6.5344,35.343 12.1606,29.308 C6.8695,23.8668 6.076,19.2955 13.9643,15.5868 " fill="#F1F1F1" style="stroke:#181818;stroke-width:0.5;"/><text fill="#000000" font-family="sans-serif" font-size="14" lengthAdjust="spacing" textLength="87" x="20.4566" y="34.1524">Workspaces</text></g><!--MD5=[b296f98f1f3cc91ffecee884998a1f62]
entity ar--><g id="elem_ar"><path d="M250.1532,14.1667 C253.7838,9.2437 257.423,8.6958 261.2343,13.9705 C264.8636,8.5447 270.4103,8.5063 273.0435,14.9606 C275.2248,8.5937 280.2865,7.3365 284.611,12.8789 C288.5046,6.1996 293.5971,6.1638 297.9546,12.3996 C301.5677,7.6844 306.2889,7.1712 309.0948,13.2339 C312.5852,7.1096 316.1631,6.73 320.7441,12.1317 C324.8692,6.7675 328.4592,6.67 332.6127,12.1005 C337.8609,6 342.1836,6.4861 346.0307,13.5308 C348.6403,8.0275 353.552,7.8671 356.72,12.9679 C359.7754,7.145 365.3841,6.4583 369.0971,12.2683 C373.7841,7.7763 377.4765,7.6626 380.9132,13.6747 C385.5026,7.7588 389.2793,9.1296 392.7101,14.8494 C395.5813,8.6196 400.5626,8.0579 404.3027,14.0235 C408.9946,9.7833 412.9255,10.3953 415.5712,16.2971 C423.534,17.9628 424.8894,22.5663 421.5636,29.3962 C427.6785,36.25 425.9149,44.6422 416.0803,46.332 C412.8178,51.461 407.106,52.7197 403.6384,46.5579 C400.5102,52.1412 394.6073,51.3312 391.5568,46.4681 C388.9679,52.4083 384.0901,52.7344 380.2457,47.7705 C377.3568,53.1613 371.7474,53.6671 368.2212,48.496 C364.4146,53.7382 360.7196,53.2235 357.3097,48.0792 C355.2301,53.3268 350.0551,55.7371 345.7938,50.4682 C341.5614,57.4909 336.5825,57.4126 332.0433,50.777 C327.2965,56.0821 323.1852,54.8938 320.5106,48.699 C316.7488,53.2702 312.9499,52.9092 309.6857,48.1233 C305.9174,54.5563 301.9931,54.6591 297.9362,48.3902 C293.9566,52.7582 289.6602,52.5615 286.6339,47.2743 C283.1249,54.1241 277.7516,52.8812 273.991,47.535 C269.2686,53.4254 264.2731,51.6302 261.3064,45.6577 C258.1936,51.3356 254.7342,51.1606 250.9465,46.3226 C243.0311,43.7981 240.4698,38.3773 245.5554,31.2138 C238.4684,23.754 240.8451,17.2046 250.1532,14.1667 " fill="#F1F1F1" style="stroke:#181818;stroke-width:0.5;"/><text fill="#000000" font-family="sans-serif" font-size="14" lengthAdjust="spacing" textLength="152" x="255.9566" y="34.1524">Archival Repositories</text></g><!--MD5=[a89637a5884c480e7b7861e26e8dd4af]
link ws to ar--><g id="link_ws_ar"><path d="M122.7706,29.1572 C155.8756,29.1572 198.0326,29.1572 235.8156,29.1572 " fill="none" id="ws-to-ar" style="stroke:#181818;stroke-width:1.0;"/><polygon fill="#181818" points="240.8776,29.1572,231.8776,25.1572,235.8776,29.1572,231.8776,33.1572,240.8776,29.1572" style="stroke:#181818;stroke-width:1.0;"/><text fill="#000000" font-family="sans-serif" font-size="13" lengthAdjust="spacing" textLength="82" x="140.7066" y="22.2241">Data deposit</text></g><!--MD5=[e1ed22f00c18cc5cc2d51105efab7d60]
link ar to ws--><g id="link_ar_ws"><path d="M240.7156,47.1956 C212.2076,50.7056 180.6476,52.4137 151.7066,49.1572 C143.8626,48.2747 135.6986,46.9617 127.6446,45.4225 " fill="none" id="ar-to-ws" style="stroke:#181818;stroke-width:1.0;"/><polygon fill="#181818" points="122.6476,44.4367,130.7039,50.1021,127.5532,45.4039,132.2514,42.2532,122.6476,44.4367" style="stroke:#181818;stroke-width:1.0;"/><text fill="#000000" font-family="sans-serif" font-size="13" lengthAdjust="spacing" textLength="58" x="152.7066" y="45.2241">Data use</text></g><!--MD5=[c45f437d017787b9765fc682c88a64ce]
@startuml
cloud Workspaces as ws {


}

cloud "Archival Repositories" as ar {

}


ws -right-> ar : Data deposit
ar -left-> ws :  Data use
@enduml

PlantUML version 1.2022.8beta6(Unknown compile time)
(GPL source distribution)
Java Runtime: Java(TM) SE Runtime Environment
JVM: Java HotSpot(TM) 64-Bit Server VM
Default Encoding: UTF-8
Language: en
Country: US
--></g></svg>