<?xml version="1.0" encoding="UTF-8" standalone="no"?><svg xmlns="http://www.w3.org/2000/svg" xmlns:xlink="http://www.w3.org/1999/xlink" contentStyleType="text/css" height="1223px" preserveAspectRatio="none" style="width:2161px;height:1223px;background:#FFFFFF;" version="1.1" viewBox="0 0 2161 1223" width="2161px" zoomAndPan="magnify"><defs/><g><text fill="#000000" font-family="sans-serif" font-size="14" font-weight="bold" lengthAdjust="spacing" textLength="203" x="980.5" y="27.9951">Simple repository access</text><line style="stroke:#181818;stroke-width:0.5;stroke-dasharray:5.0,5.0;" x1="76" x2="76" y1="123.25" y2="1137.9844"/><line style="stroke:#181818;stroke-width:0.5;stroke-dasharray:5.0,5.0;" x1="343" x2="343" y1="123.25" y2="1137.9844"/><line style="stroke:#181818;stroke-width:0.5;stroke-dasharray:5.0,5.0;" x1="1048" x2="1048" y1="123.25" y2="1137.9844"/><line style="stroke:#181818;stroke-width:0.5;stroke-dasharray:5.0,5.0;" x1="1483" x2="1483" y1="123.25" y2="1137.9844"/><line style="stroke:#181818;stroke-width:0.5;stroke-dasharray:5.0,5.0;" x1="1919" x2="1919" y1="123.25" y2="1137.9844"/><line style="stroke:#181818;stroke-width:0.5;stroke-dasharray:5.0,5.0;" x1="2121" x2="2121" y1="123.25" y2="1137.9844"/><text fill="#000000" font-family="sans-serif" font-size="18" lengthAdjust="spacing" textLength="137" x="5" y="119.0049">License Server</text><ellipse cx="76.5" cy="86.2969" fill="#E2E2F0" rx="12" ry="12" style="stroke:#181818;stroke-width:0.5;"/><line style="stroke:#181818;stroke-width:0.5;" x1="64.5" x2="88.5" y1="100.2969" y2="100.2969"/><text fill="#000000" font-family="sans-serif" font-size="18" lengthAdjust="spacing" textLength="137" x="5" y="1153.6924">License Server</text><ellipse cx="76.5" cy="1173.9375" fill="#E2E2F0" rx="12" ry="12" style="stroke:#181818;stroke-width:0.5;"/><line style="stroke:#181818;stroke-width:0.5;" x1="64.5" x2="88.5" y1="1187.9375" y2="1187.9375"/><text fill="#000000" font-family="sans-serif" font-size="18" lengthAdjust="spacing" textLength="65" x="308" y="119.0049">groups</text><path d="M325.5,66.2969 C325.5,56.2969 343.5,56.2969 343.5,56.2969 C343.5,56.2969 361.5,56.2969 361.5,66.2969 L361.5,92.2969 C361.5,102.2969 343.5,102.2969 343.5,102.2969 C343.5,102.2969 325.5,102.2969 325.5,92.2969 L325.5,66.2969 " fill="#E2E2F0" style="stroke:#181818;stroke-width:1.5;"/><path d="M325.5,66.2969 C325.5,76.2969 343.5,76.2969 343.5,76.2969 C343.5,76.2969 361.5,76.2969 361.5,66.2969 " fill="none" style="stroke:#181818;stroke-width:1.5;"/><text fill="#000000" font-family="sans-serif" font-size="18" lengthAdjust="spacing" textLength="65" x="308" y="1153.6924">groups</text><path d="M325.5,1167.9375 C325.5,1157.9375 343.5,1157.9375 343.5,1157.9375 C343.5,1157.9375 361.5,1157.9375 361.5,1167.9375 L361.5,1193.9375 C361.5,1203.9375 343.5,1203.9375 343.5,1203.9375 C343.5,1203.9375 325.5,1203.9375 325.5,1193.9375 L325.5,1167.9375 " fill="#E2E2F0" style="stroke:#181818;stroke-width:1.5;"/><path d="M325.5,1167.9375 C325.5,1177.9375 343.5,1177.9375 343.5,1177.9375 C343.5,1177.9375 361.5,1177.9375 361.5,1167.9375 " fill="none" style="stroke:#181818;stroke-width:1.5;"/><text fill="#000000" font-family="sans-serif" font-size="18" lengthAdjust="spacing" textLength="103" x="994" y="119.0049">researcher</text><ellipse cx="1048.5" cy="50.7969" fill="#E2E2F0" rx="8" ry="8" style="stroke:#181818;stroke-width:0.5;"/><path d="M1048.5,58.7969 L1048.5,85.7969 M1035.5,66.7969 L1061.5,66.7969 M1048.5,85.7969 L1035.5,100.7969 M1048.5,85.7969 L1061.5,100.7969 " fill="none" style="stroke:#181818;stroke-width:0.5;"/><text fill="#000000" font-family="sans-serif" font-size="18" lengthAdjust="spacing" textLength="103" x="994" y="1153.6924">researcher</text><ellipse cx="1048.5" cy="1166.4375" fill="#E2E2F0" rx="8" ry="8" style="stroke:#181818;stroke-width:0.5;"/><path d="M1048.5,1174.4375 L1048.5,1201.4375 M1035.5,1182.4375 L1061.5,1182.4375 M1048.5,1201.4375 L1035.5,1216.4375 M1048.5,1201.4375 L1061.5,1216.4375 " fill="none" style="stroke:#181818;stroke-width:0.5;"/><text fill="#000000" font-family="sans-serif" font-size="18" lengthAdjust="spacing" textLength="97" x="1432" y="119.0049">repository</text><ellipse cx="1483.5" cy="86.2969" fill="#E2E2F0" rx="12" ry="12" style="stroke:#181818;stroke-width:0.5;"/><line style="stroke:#181818;stroke-width:0.5;" x1="1471.5" x2="1495.5" y1="100.2969" y2="100.2969"/><text fill="#000000" font-family="sans-serif" font-size="18" lengthAdjust="spacing" textLength="97" x="1432" y="1153.6924">repository</text><ellipse cx="1483.5" cy="1173.9375" fill="#E2E2F0" rx="12" ry="12" style="stroke:#181818;stroke-width:0.5;"/><line style="stroke:#181818;stroke-width:0.5;" x1="1471.5" x2="1495.5" y1="1187.9375" y2="1187.9375"/><text fill="#000000" font-family="sans-serif" font-size="18" lengthAdjust="spacing" textLength="299" x="1767" y="119.0049">https://doi.org/x/some-notebook</text><ellipse cx="1919.5" cy="86.2969" fill="#E2E2F0" rx="12" ry="12" style="stroke:#181818;stroke-width:0.5;"/><line style="stroke:#181818;stroke-width:0.5;" x1="1907.5" x2="1931.5" y1="100.2969" y2="100.2969"/><text fill="#000000" font-family="sans-serif" font-size="18" lengthAdjust="spacing" textLength="299" x="1767" y="1153.6924">https://doi.org/x/some-notebook</text><ellipse cx="1919.5" cy="1173.9375" fill="#E2E2F0" rx="12" ry="12" style="stroke:#181818;stroke-width:0.5;"/><line style="stroke:#181818;stroke-width:0.5;" x1="1907.5" x2="1931.5" y1="1187.9375" y2="1187.9375"/><text fill="#000000" font-family="sans-serif" font-size="18" lengthAdjust="spacing" textLength="72" x="2082" y="119.0049">CILogon</text><ellipse cx="2121" cy="86.2969" fill="#E2E2F0" rx="12" ry="12" style="stroke:#181818;stroke-width:0.5;"/><line style="stroke:#181818;stroke-width:0.5;" x1="2109" x2="2133" y1="100.2969" y2="100.2969"/><text fill="#000000" font-family="sans-serif" font-size="18" lengthAdjust="spacing" textLength="72" x="2082" y="1153.6924">CILogon</text><ellipse cx="2121" cy="1173.9375" fill="#E2E2F0" rx="12" ry="12" style="stroke:#181818;stroke-width:0.5;"/><line style="stroke:#181818;stroke-width:0.5;" x1="2109" x2="2133" y1="1187.9375" y2="1187.9375"/><polygon fill="#181818" points="1471.5,156.2031,1481.5,160.2031,1471.5,164.2031,1475.5,160.2031" style="stroke:#181818;stroke-width:1.0;"/><line style="stroke:#181818;stroke-width:1.0;" x1="1048.5" x2="1477.5" y1="160.2031" y2="160.2031"/><text fill="#000000" font-family="sans-serif" font-size="18" lengthAdjust="spacing" textLength="411" x="1055.5" y="153.958">Can I have https://doi.org/x/some-notebook?</text><polygon fill="#181818" points="1907.5,191.1563,1917.5,195.1563,1907.5,199.1563,1911.5,195.1563" style="stroke:#181818;stroke-width:1.0;"/><line style="stroke:#181818;stroke-width:1.0;" x1="1483.5" x2="1913.5" y1="195.1563" y2="195.1563"/><text fill="#000000" font-family="sans-serif" font-size="18" lengthAdjust="spacing" textLength="192" x="1490.5" y="188.9111">What's your licence?</text><polygon fill="#181818" points="1494.5,226.1094,1484.5,230.1094,1494.5,234.1094,1490.5,230.1094" style="stroke:#181818;stroke-width:1.0;"/><line style="stroke:#181818;stroke-width:1.0;" x1="1488.5" x2="1918.5" y1="230.1094" y2="230.1094"/><text fill="#000000" font-family="sans-serif" font-size="18" lengthAdjust="spacing" textLength="354" x="1500.5" y="223.8643">Accessible to github org MyTroveData</text><line style="stroke:#181818;stroke-width:1.0;" x1="1483.5" x2="1525.5" y1="265.0625" y2="265.0625"/><line style="stroke:#181818;stroke-width:1.0;" x1="1525.5" x2="1525.5" y1="265.0625" y2="278.0625"/><line style="stroke:#181818;stroke-width:1.0;" x1="1484.5" x2="1525.5" y1="278.0625" y2="278.0625"/><polygon fill="#181818" points="1494.5,274.0625,1484.5,278.0625,1494.5,282.0625,1490.5,278.0625" style="stroke:#181818;stroke-width:1.0;"/><text fill="#000000" font-family="sans-serif" font-size="18" lengthAdjust="spacing" textLength="361" x="1490.5" y="258.8174">Is that URL on the list of trusted sites?</text><line style="stroke:#181818;stroke-width:1.0;" x1="1483.5" x2="1525.5" y1="313.0156" y2="313.0156"/><line style="stroke:#181818;stroke-width:1.0;" x1="1525.5" x2="1525.5" y1="313.0156" y2="326.0156"/><line style="stroke:#181818;stroke-width:1.0;" x1="1484.5" x2="1525.5" y1="326.0156" y2="326.0156"/><polygon fill="#181818" points="1494.5,322.0156,1484.5,326.0156,1494.5,330.0156,1490.5,326.0156" style="stroke:#181818;stroke-width:1.0;"/><text fill="#000000" font-family="sans-serif" font-size="18" lengthAdjust="spacing" textLength="34" x="1490.5" y="306.7705">Yep</text><polygon fill="#181818" points="1059.5,356.9688,1049.5,360.9688,1059.5,364.9688,1055.5,360.9688" style="stroke:#181818;stroke-width:1.0;"/><line style="stroke:#181818;stroke-width:1.0;" x1="1053.5" x2="1482.5" y1="360.9688" y2="360.9688"/><text fill="#000000" font-family="sans-serif" font-size="18" lengthAdjust="spacing" textLength="370" x="1065.5" y="354.7236">Authenticate yourself to license service</text><polygon fill="#181818" points="87.5,391.9219,77.5,395.9219,87.5,399.9219,83.5,395.9219" style="stroke:#181818;stroke-width:1.0;"/><line style="stroke:#181818;stroke-width:1.0;" x1="81.5" x2="1047.5" y1="395.9219" y2="395.9219"/><text fill="#000000" font-family="sans-serif" font-size="18" lengthAdjust="spacing" textLength="238" x="93.5" y="389.6768">Logs user in using Github</text><polygon fill="#181818" points="331.5,426.875,341.5,430.875,331.5,434.875,335.5,430.875" style="stroke:#181818;stroke-width:1.0;"/><line style="stroke:#181818;stroke-width:1.0;" x1="76.5" x2="337.5" y1="430.875" y2="430.875"/><text fill="#000000" font-family="sans-serif" font-size="18" lengthAdjust="spacing" textLength="243" x="83.5" y="424.6299">User in MyTroveData org?</text><polygon fill="#181818" points="87.5,461.8281,77.5,465.8281,87.5,469.8281,83.5,465.8281" style="stroke:#181818;stroke-width:1.0;"/><line style="stroke:#181818;stroke-width:1.0;" x1="81.5" x2="1047.5" y1="465.8281" y2="465.8281"/><text fill="#000000" font-family="sans-serif" font-size="18" lengthAdjust="spacing" textLength="34" x="93.5" y="459.583">Yep</text><polygon fill="#181818" points="1036.5,496.7813,1046.5,500.7813,1036.5,504.7813,1040.5,500.7813" style="stroke:#181818;stroke-width:1.0;"/><line style="stroke:#181818;stroke-width:1.0;" x1="76.5" x2="1042.5" y1="500.7813" y2="500.7813"/><text fill="#000000" font-family="sans-serif" font-size="18" lengthAdjust="spacing" textLength="948" x="83.5" y="494.5361">(To web browser) Here's a token for your browser that will let the repo get your group-memberships</text><polygon fill="#181818" points="1471.5,531.7344,1481.5,535.7344,1471.5,539.7344,1475.5,535.7344" style="stroke:#181818;stroke-width:1.0;"/><line style="stroke:#181818;stroke-width:1.0;" x1="1048.5" x2="1477.5" y1="535.7344" y2="535.7344"/><text fill="#000000" font-family="sans-serif" font-size="18" lengthAdjust="spacing" textLength="266" x="1055.5" y="529.4893">(via browser) Here's a token</text><polygon fill="#181818" points="87.5,566.6875,77.5,570.6875,87.5,574.6875,83.5,570.6875" style="stroke:#181818;stroke-width:1.0;"/><line style="stroke:#181818;stroke-width:1.0;" x1="81.5" x2="1482.5" y1="570.6875" y2="570.6875"/><text fill="#000000" font-family="sans-serif" font-size="18" lengthAdjust="spacing" textLength="156" x="93.5" y="564.4424">I have this token</text><polygon fill="#181818" points="1471.5,601.6406,1481.5,605.6406,1471.5,609.6406,1475.5,605.6406" style="stroke:#181818;stroke-width:1.0;"/><line style="stroke:#181818;stroke-width:1.0;" x1="76.5" x2="1477.5" y1="605.6406" y2="605.6406"/><text fill="#000000" font-family="sans-serif" font-size="18" lengthAdjust="spacing" textLength="34" x="83.5" y="599.3955">yep</text><polygon fill="#181818" points="1907.5,636.5938,1917.5,640.5938,1907.5,644.5938,1911.5,640.5938" style="stroke:#181818;stroke-width:1.0;"/><line style="stroke:#181818;stroke-width:1.0;" x1="1483.5" x2="1913.5" y1="640.5938" y2="640.5938"/><text fill="#000000" font-family="sans-serif" font-size="18" lengthAdjust="spacing" textLength="48" x="1490.5" y="634.3486">fetch</text><polygon fill="#181818" points="1059.5,671.5469,1049.5,675.5469,1059.5,679.5469,1055.5,675.5469" style="stroke:#181818;stroke-width:1.0;"/><line style="stroke:#181818;stroke-width:1.0;" x1="1053.5" x2="1482.5" y1="675.5469" y2="675.5469"/><text fill="#000000" font-family="sans-serif" font-size="18" lengthAdjust="spacing" textLength="188" x="1065.5" y="669.3018">Here's the RO-Crate</text><polygon fill="#181818" points="1471.5,706.5,1481.5,710.5,1471.5,714.5,1475.5,710.5" style="stroke:#181818;stroke-width:1.0;"/><line style="stroke:#181818;stroke-width:1.0;" x1="1048.5" x2="1477.5" y1="710.5" y2="710.5"/><text fill="#000000" font-family="sans-serif" font-size="18" lengthAdjust="spacing" textLength="373" x="1055.5" y="704.2549">Can I have https://doi.org/x/some-crate?</text><polygon fill="#181818" points="1907.5,762.4063,1917.5,766.4063,1907.5,770.4063,1911.5,766.4063" style="stroke:#181818;stroke-width:1.0;"/><line style="stroke:#181818;stroke-width:1.0;" x1="1483.5" x2="1913.5" y1="766.4063" y2="766.4063"/><text fill="#000000" font-family="sans-serif" font-size="18" lengthAdjust="spacing" textLength="250" x="1490.5" y="739.208">Internal repository lookup:</text><text fill="#000000" font-family="sans-serif" font-size="18" lengthAdjust="spacing" textLength="189" x="1490.5" y="760.1611">what's your licence?</text><polygon fill="#181818" points="1494.5,797.3594,1484.5,801.3594,1494.5,805.3594,1490.5,801.3594" style="stroke:#181818;stroke-width:1.0;"/><line style="stroke:#181818;stroke-width:1.0;" x1="1488.5" x2="1918.5" y1="801.3594" y2="801.3594"/><text fill="#000000" font-family="sans-serif" font-size="18" lengthAdjust="spacing" textLength="412" x="1500.5" y="795.1143">Accessible to people in group G1 on CILogon</text><line style="stroke:#181818;stroke-width:1.0;" x1="1483.5" x2="1525.5" y1="836.3125" y2="836.3125"/><line style="stroke:#181818;stroke-width:1.0;" x1="1525.5" x2="1525.5" y1="836.3125" y2="849.3125"/><line style="stroke:#181818;stroke-width:1.0;" x1="1484.5" x2="1525.5" y1="849.3125" y2="849.3125"/><polygon fill="#181818" points="1494.5,845.3125,1484.5,849.3125,1494.5,853.3125,1490.5,849.3125" style="stroke:#181818;stroke-width:1.0;"/><text fill="#000000" font-family="sans-serif" font-size="18" lengthAdjust="spacing" textLength="316" x="1490.5" y="830.0674">Is that on my list of trusted sites?</text><line style="stroke:#181818;stroke-width:1.0;" x1="1483.5" x2="1525.5" y1="884.2656" y2="884.2656"/><line style="stroke:#181818;stroke-width:1.0;" x1="1525.5" x2="1525.5" y1="884.2656" y2="897.2656"/><line style="stroke:#181818;stroke-width:1.0;" x1="1484.5" x2="1525.5" y1="897.2656" y2="897.2656"/><polygon fill="#181818" points="1494.5,893.2656,1484.5,897.2656,1494.5,901.2656,1490.5,897.2656" style="stroke:#181818;stroke-width:1.0;"/><text fill="#000000" font-family="sans-serif" font-size="18" lengthAdjust="spacing" textLength="34" x="1490.5" y="878.0205">Yep</text><polygon fill="#181818" points="1059.5,928.2188,1049.5,932.2188,1059.5,936.2188,1055.5,932.2188" style="stroke:#181818;stroke-width:1.0;"/><line style="stroke:#181818;stroke-width:1.0;" x1="1053.5" x2="1482.5" y1="932.2188" y2="932.2188"/><text fill="#000000" font-family="sans-serif" font-size="18" lengthAdjust="spacing" textLength="353" x="1065.5" y="925.9736">Authenticate yourself over at CILogon</text><polygon fill="#181818" points="2109,963.1719,2119,967.1719,2109,971.1719,2113,967.1719" style="stroke:#181818;stroke-width:1.0;"/><line style="stroke:#181818;stroke-width:1.0;" x1="1048.5" x2="2115" y1="967.1719" y2="967.1719"/><text fill="#000000" font-family="sans-serif" font-size="18" lengthAdjust="spacing" textLength="65" x="1055.5" y="960.9268">Logs in</text><polygon fill="#181818" points="1494.5,998.125,1484.5,1002.125,1494.5,1006.125,1490.5,1002.125" style="stroke:#181818;stroke-width:1.0;"/><line style="stroke:#181818;stroke-width:1.0;" x1="1488.5" x2="2120" y1="1002.125" y2="1002.125"/><text fill="#000000" font-family="sans-serif" font-size="18" lengthAdjust="spacing" textLength="461" x="1500.5" y="995.8799">Calls repo back "User is a member of G1, G2, G3"</text><line style="stroke:#181818;stroke-width:1.0;" x1="1483.5" x2="1525.5" y1="1037.0781" y2="1037.0781"/><line style="stroke:#181818;stroke-width:1.0;" x1="1525.5" x2="1525.5" y1="1037.0781" y2="1050.0781"/><line style="stroke:#181818;stroke-width:1.0;" x1="1484.5" x2="1525.5" y1="1050.0781" y2="1050.0781"/><polygon fill="#181818" points="1494.5,1046.0781,1484.5,1050.0781,1494.5,1054.0781,1490.5,1050.0781" style="stroke:#181818;stroke-width:1.0;"/><text fill="#000000" font-family="sans-serif" font-size="18" lengthAdjust="spacing" textLength="258" x="1490.5" y="1030.833">OK, user is a member of G1</text><polygon fill="#181818" points="1907.5,1081.0313,1917.5,1085.0313,1907.5,1089.0313,1911.5,1085.0313" style="stroke:#181818;stroke-width:1.0;"/><line style="stroke:#181818;stroke-width:1.0;" x1="1483.5" x2="1913.5" y1="1085.0313" y2="1085.0313"/><text fill="#000000" font-family="sans-serif" font-size="18" lengthAdjust="spacing" textLength="48" x="1490.5" y="1078.7861">fetch</text><polygon fill="#181818" points="1059.5,1115.9844,1049.5,1119.9844,1059.5,1123.9844,1055.5,1119.9844" style="stroke:#181818;stroke-width:1.0;"/><line style="stroke:#181818;stroke-width:1.0;" x1="1053.5" x2="1482.5" y1="1119.9844" y2="1119.9844"/><text fill="#000000" font-family="sans-serif" font-size="18" lengthAdjust="spacing" textLength="144" x="1065.5" y="1113.7393">Here's the data</text><!--SRC=[hLHDQzj04BthLmmwj2d4DMulnOUQu5B7D2KG9uH2BglrM5gytXKx8xlEh- -iFcmhO9f01CRQdPctRz_C4wsDArLG6rZYIbMMVth72_ECCFgM96pOuXWMLOa15cPJMeGRez4HmWB3LdPtGvWPBgeChYekqB7HYertyA7UyC4yr-j4QVO1cYSWeGgwm6P3KTn9OZ7lctZfoKZ-_X0kJy9fdqFQ9kNsW94Mp2MDXyEbDvzzo8T_X-GtE72UCVD-dSPydImLgqm9K9e7NvLKR-Sb9K871j_ZiJ26gN8mXq9j4Vu3EqbYXHHgANii57yasFigW8s4DKuIVOIzqXg9J2QQieUy4L50uVV-FlWj_X1oq04s9NC25bHukBi1aLZq5cHYy2lWK17Z4aGsf4c_x8-eTzYWUFInLLWJ9BIhoCAsmf88Aw-T3gAiLDtudA2I41Wd_yRbNUiXaOoOLyQyXpRbz1vohqaVBPAARmTI5_SUTfX15lnE43x1DGOK0PKGMwE3bOnFBMQRq4YnCzQ2HQx5Y7C3kIpglBgdWmrkCWnKc9TjlTWQTUwmJgw6QjjyBWoruGFn2BG_oXlxlaBMHL_l5ZnIlBiTJ8F8diX3hp9VOxiJIwXwSE3T79N63X7o-Cb9xCo8BvkS9tUDTXcxUqHipNJYp-bSPiMxpfZQ96zrb8uQzUmqTup1ANjw5IkUgqhXlNkJrqhqKLAvH3qYC1j5DxMaprXE0flzUxhDnw-d0BV7TW9fqpbDw2MoEX7DMcf6F5Dw3MdZipYppOn7OhFH9So-oEzhscTr- -kozUxBWjVFRfo1Vm00]--></g></svg>