<?xml version="1.0" encoding="UTF-8" standalone="no"?><svg xmlns="http://www.w3.org/2000/svg" xmlns:xlink="http://www.w3.org/1999/xlink" contentStyleType="text/css" height="708px" preserveAspectRatio="none" style="width:903px;height:708px;background:#FFFFFF;" version="1.1" viewBox="0 0 903 708" width="903px" zoomAndPan="magnify"><defs/><g><rect fill="none" height="26.2969" id="_title" style="stroke:none;stroke-width:1.0;" width="233" x="333.75" y="15"/><text fill="#000000" font-family="sans-serif" font-size="14" font-weight="bold" lengthAdjust="spacing" textLength="223" x="338.75" y="32.9951">LDaCA Persistent IDs (PIDs)</text><ellipse cx="550.6875" cy="57.2969" fill="#222222" rx="10" ry="10" style="stroke:#222222;stroke-width:1.0;"/><polygon fill="#F1F1F1" points="454.6875,87.2969,646.6875,87.2969,658.6875,99.2969,646.6875,111.2969,454.6875,111.2969,442.6875,99.2969,454.6875,87.2969" style="stroke:#181818;stroke-width:0.5;"/><text fill="#000000" font-family="sans-serif" font-size="11" lengthAdjust="spacing" textLength="192" x="454.6875" y="103.105">Data has a custodial Organization</text><text fill="#000000" font-family="sans-serif" font-size="11" lengthAdjust="spacing" textLength="21" x="421.6875" y="96.7026">yes</text><text fill="#000000" font-family="sans-serif" font-size="11" lengthAdjust="spacing" textLength="14" x="658.6875" y="96.7026">no</text><polygon fill="#F1F1F1" points="169.875,121.2969,357.875,121.2969,369.875,133.2969,357.875,145.2969,169.875,145.2969,157.875,133.2969,169.875,121.2969" style="stroke:#181818;stroke-width:0.5;"/><text fill="#000000" font-family="sans-serif" font-size="11" lengthAdjust="spacing" textLength="188" x="169.875" y="137.105">Org has PID policy &amp; governance</text><text fill="#000000" font-family="sans-serif" font-size="11" lengthAdjust="spacing" textLength="21" x="136.875" y="130.7026">yes</text><text fill="#000000" font-family="sans-serif" font-size="11" lengthAdjust="spacing" textLength="14" x="369.875" y="130.7026">no</text><rect fill="#F1F1F1" height="33.9688" rx="12.5" ry="12.5" style="stroke:#181818;stroke-width:0.5;" width="135" x="11" y="155.2969"/><text fill="#000000" font-family="sans-serif" font-size="12" lengthAdjust="spacing" textLength="115" x="21" y="176.4355">Use existing policy</text><ellipse cx="78.5" cy="235.2656" fill="none" rx="11" ry="11" style="stroke:#222222;stroke-width:1.0;"/><ellipse cx="78.5" cy="235.2656" fill="#222222" rx="6" ry="6" style="stroke:#111111;stroke-width:1.0;"/><rect fill="#F1F1F1" height="33.9688" rx="12.5" ry="12.5" style="stroke:#181818;stroke-width:0.5;" width="138" x="380.25" y="155.2969"/><text fill="#000000" font-family="sans-serif" font-size="12" lengthAdjust="spacing" textLength="118" x="390.25" y="176.4355">Use LDaCA defaults</text><rect fill="#F1F1F1" height="33.9688" rx="12.5" ry="12.5" style="stroke:#181818;stroke-width:0.5;" width="366" x="266.25" y="224.2656"/><text fill="#000000" font-family="sans-serif" font-size="12" lengthAdjust="spacing" textLength="346" x="276.25" y="245.4043">ARCP IDs for context, demographics, collectionEvents etc</text><polygon fill="#F1F1F1" points="376.25,333.9448,522.25,333.9448,534.25,345.9448,522.25,357.9448,376.25,357.9448,364.25,345.9448,376.25,333.9448" style="stroke:#181818;stroke-width:0.5;"/><text fill="#000000" font-family="sans-serif" font-size="11" lengthAdjust="spacing" textLength="146" x="376.25" y="349.7529">Content has existing PIDs</text><text fill="#000000" font-family="sans-serif" font-size="11" lengthAdjust="spacing" textLength="21" x="343.25" y="343.3506">yes</text><text fill="#000000" font-family="sans-serif" font-size="11" lengthAdjust="spacing" textLength="14" x="534.25" y="343.3506">no</text><rect fill="#F1F1F1" height="33.9688" rx="12.5" ry="12.5" style="stroke:#181818;stroke-width:0.5;" width="127" x="276.5" y="367.9448"/><text fill="#000000" font-family="sans-serif" font-size="12" lengthAdjust="spacing" textLength="107" x="286.5" y="389.0835">Use exisiting PIDs</text><rect fill="#F1F1F1" height="33.9688" rx="12.5" ry="12.5" style="stroke:#181818;stroke-width:0.5;" width="270" x="423.5" y="367.9448"/><text fill="#000000" font-family="sans-serif" font-size="12" lengthAdjust="spacing" textLength="250" x="433.5" y="389.0835">ARCP IDs for collections, objects and files</text><polygon fill="#F1F1F1" points="449.25,407.9136,461.25,419.9136,449.25,431.9136,437.25,419.9136,449.25,407.9136" style="stroke:#181818;stroke-width:0.5;"/><polygon fill="#F1F1F1" points="283.25,278.2344,615.25,278.2344,627.25,290.2344,615.25,302.2344,283.25,302.2344,271.25,290.2344,283.25,278.2344" style="stroke:#181818;stroke-width:0.5;"/><text fill="#000000" font-family="sans-serif" font-size="11" lengthAdjust="spacing" textLength="14" x="453.25" y="312.4448">no</text><text fill="#000000" font-family="sans-serif" font-size="11" lengthAdjust="spacing" textLength="332" x="283.25" y="294.0425">Can Identify responsible party within ORG to manage PIDs</text><text fill="#000000" font-family="sans-serif" font-size="11" lengthAdjust="spacing" textLength="21" x="250.25" y="287.6401">yes</text><polygon fill="#F1F1F1" points="404.25,473.9136,494.25,473.9136,506.25,485.9136,494.25,497.9136,404.25,497.9136,392.25,485.9136,404.25,473.9136" style="stroke:#181818;stroke-width:0.5;"/><text fill="#000000" font-family="sans-serif" font-size="11" lengthAdjust="spacing" textLength="90" x="404.25" y="489.7217">Type of deposit</text><rect fill="#F1F1F1" height="33.9688" rx="12.5" ry="12.5" style="stroke:#181818;stroke-width:0.5;" width="189" x="170" y="533.5229"/><text fill="#000000" font-family="sans-serif" font-size="12" lengthAdjust="spacing" textLength="169" x="180" y="554.6616">DOI at study/collection level</text><rect fill="#F1F1F1" height="33.9688" rx="12.5" ry="12.5" style="stroke:#181818;stroke-width:0.5;" width="197" x="166" y="587.4917"/><text fill="#000000" font-family="sans-serif" font-size="12" lengthAdjust="spacing" textLength="177" x="176" y="608.6304">ARCP IDs for objects and files</text><rect fill="#F1F1F1" height="33.9688" rx="12.5" ry="12.5" style="stroke:#181818;stroke-width:0.5;" width="132" x="492.5" y="533.5229"/><text fill="#000000" font-family="sans-serif" font-size="12" lengthAdjust="spacing" textLength="112" x="502.5" y="554.6616">DOI at object level</text><rect fill="#F1F1F1" height="33.9688" rx="12.5" ry="12.5" style="stroke:#181818;stroke-width:0.5;" width="122" x="497.5" y="587.4917"/><text fill="#000000" font-family="sans-serif" font-size="12" lengthAdjust="spacing" textLength="102" x="507.5" y="608.6304">ARCP IDs for files</text><polygon fill="#F1F1F1" points="449.25,631.4604,449.25,631.4604,461.25,643.4604,449.25,655.4604,449.25,655.4604,437.25,643.4604,449.25,631.4604" style="stroke:#181818;stroke-width:0.5;"/><rect fill="#F1F1F1" height="33.9688" rx="12.5" ry="12.5" style="stroke:#181818;stroke-width:0.5;" width="150" x="742.5" y="121.2969"/><text fill="#000000" font-family="sans-serif" font-size="12" lengthAdjust="spacing" textLength="130" x="752.5" y="142.4355">Continue negotiations</text><ellipse cx="817.5" cy="201.2656" fill="none" rx="11" ry="11" style="stroke:#222222;stroke-width:1.0;"/><ellipse cx="817.5" cy="201.2656" fill="#222222" rx="6" ry="6" style="stroke:#111111;stroke-width:1.0;"/><ellipse cx="550.6875" cy="686.4604" fill="none" rx="11" ry="11" style="stroke:#222222;stroke-width:1.0;"/><ellipse cx="550.6875" cy="686.4604" fill="#222222" rx="6" ry="6" style="stroke:#111111;stroke-width:1.0;"/><line style="stroke:#181818;stroke-width:1.0;" x1="78.5" x2="78.5" y1="189.2656" y2="224.2656"/><polygon fill="#181818" points="74.5,214.2656,78.5,224.2656,82.5,214.2656,78.5,218.2656" style="stroke:#181818;stroke-width:1.0;"/><line style="stroke:#181818;stroke-width:1.0;" x1="449.25" x2="449.25" y1="189.2656" y2="224.2656"/><polygon fill="#181818" points="445.25,214.2656,449.25,224.2656,453.25,214.2656,449.25,218.2656" style="stroke:#181818;stroke-width:1.0;"/><line style="stroke:#181818;stroke-width:1.0;" x1="364.25" x2="340" y1="345.9448" y2="345.9448"/><line style="stroke:#181818;stroke-width:1.0;" x1="340" x2="340" y1="345.9448" y2="367.9448"/><polygon fill="#181818" points="336,357.9448,340,367.9448,344,357.9448,340,361.9448" style="stroke:#181818;stroke-width:1.0;"/><line style="stroke:#181818;stroke-width:1.0;" x1="534.25" x2="558.5" y1="345.9448" y2="345.9448"/><line style="stroke:#181818;stroke-width:1.0;" x1="558.5" x2="558.5" y1="345.9448" y2="367.9448"/><polygon fill="#181818" points="554.5,357.9448,558.5,367.9448,562.5,357.9448,558.5,361.9448" style="stroke:#181818;stroke-width:1.0;"/><line style="stroke:#181818;stroke-width:1.0;" x1="340" x2="340" y1="401.9136" y2="419.9136"/><line style="stroke:#181818;stroke-width:1.0;" x1="340" x2="437.25" y1="419.9136" y2="419.9136"/><polygon fill="#181818" points="427.25,415.9136,437.25,419.9136,427.25,423.9136,431.25,419.9136" style="stroke:#181818;stroke-width:1.0;"/><line style="stroke:#181818;stroke-width:1.0;" x1="558.5" x2="558.5" y1="401.9136" y2="419.9136"/><line style="stroke:#181818;stroke-width:1.0;" x1="558.5" x2="461.25" y1="419.9136" y2="419.9136"/><polygon fill="#181818" points="471.25,415.9136,461.25,419.9136,471.25,423.9136,467.25,419.9136" style="stroke:#181818;stroke-width:1.0;"/><line style="stroke:#181818;stroke-width:1.0;" x1="449.25" x2="449.25" y1="302.2344" y2="333.9448"/><polygon fill="#181818" points="445.25,323.9448,449.25,333.9448,453.25,323.9448,449.25,327.9448" style="stroke:#181818;stroke-width:1.0;"/><line style="stroke:#181818;stroke-width:1.0;" x1="449.25" x2="449.25" y1="431.9136" y2="441.9136"/><line style="stroke:#181818;stroke-width:1.0;" x1="449.25" x2="715.5" y1="441.9136" y2="441.9136"/><polygon fill="#181818" points="711.5,374.5269,715.5,364.5269,719.5,374.5269,715.5,370.5269" style="stroke:#181818;stroke-width:1.0;"/><line style="stroke:#181818;stroke-width:1.0;" x1="715.5" x2="715.5" y1="290.2344" y2="441.9136"/><line style="stroke:#181818;stroke-width:1.0;" x1="715.5" x2="627.25" y1="290.2344" y2="290.2344"/><polygon fill="#181818" points="637.25,286.2344,627.25,290.2344,637.25,294.2344,633.25,290.2344" style="stroke:#181818;stroke-width:1.0;"/><line style="stroke:#181818;stroke-width:1.0;" x1="271.25" x2="254.5" y1="290.2344" y2="290.2344"/><polygon fill="#181818" points="250.5,360.5269,254.5,370.5269,258.5,360.5269,254.5,364.5269" style="stroke:#181818;stroke-width:1.0;"/><line style="stroke:#181818;stroke-width:1.0;" x1="254.5" x2="254.5" y1="290.2344" y2="453.9136"/><line style="stroke:#181818;stroke-width:1.0;" x1="254.5" x2="449.25" y1="453.9136" y2="453.9136"/><line style="stroke:#181818;stroke-width:1.0;" x1="449.25" x2="449.25" y1="453.9136" y2="473.9136"/><polygon fill="#181818" points="445.25,463.9136,449.25,473.9136,453.25,463.9136,449.25,467.9136" style="stroke:#181818;stroke-width:1.0;"/><line style="stroke:#181818;stroke-width:1.0;" x1="449.25" x2="449.25" y1="258.2344" y2="278.2344"/><polygon fill="#181818" points="445.25,268.2344,449.25,278.2344,453.25,268.2344,449.25,272.2344" style="stroke:#181818;stroke-width:1.0;"/><line style="stroke:#181818;stroke-width:1.0;" x1="264.5" x2="264.5" y1="567.4917" y2="587.4917"/><polygon fill="#181818" points="260.5,577.4917,264.5,587.4917,268.5,577.4917,264.5,581.4917" style="stroke:#181818;stroke-width:1.0;"/><line style="stroke:#181818;stroke-width:1.0;" x1="558.5" x2="558.5" y1="567.4917" y2="587.4917"/><polygon fill="#181818" points="554.5,577.4917,558.5,587.4917,562.5,577.4917,558.5,581.4917" style="stroke:#181818;stroke-width:1.0;"/><line style="stroke:#181818;stroke-width:1.0;" x1="392.25" x2="264.5" y1="485.9136" y2="485.9136"/><line style="stroke:#181818;stroke-width:1.0;" x1="264.5" x2="264.5" y1="485.9136" y2="533.5229"/><polygon fill="#181818" points="260.5,523.5229,264.5,533.5229,268.5,523.5229,264.5,527.5229" style="stroke:#181818;stroke-width:1.0;"/><text fill="#000000" font-family="sans-serif" font-size="11" lengthAdjust="spacing" textLength="200" x="268.5" y="513.5264">Completed speech study or corpus</text><line style="stroke:#181818;stroke-width:1.0;" x1="506.25" x2="558.5" y1="485.9136" y2="485.9136"/><line style="stroke:#181818;stroke-width:1.0;" x1="558.5" x2="558.5" y1="485.9136" y2="533.5229"/><polygon fill="#181818" points="554.5,523.5229,558.5,533.5229,562.5,523.5229,558.5,527.5229" style="stroke:#181818;stroke-width:1.0;"/><text fill="#000000" font-family="sans-serif" font-size="11" lengthAdjust="spacing" textLength="166" x="562.5" y="513.5264">Continuing deposit of objects</text><line style="stroke:#181818;stroke-width:1.0;" x1="264.5" x2="264.5" y1="621.4604" y2="643.4604"/><line style="stroke:#181818;stroke-width:1.0;" x1="264.5" x2="437.25" y1="643.4604" y2="643.4604"/><polygon fill="#181818" points="427.25,639.4604,437.25,643.4604,427.25,647.4604,431.25,643.4604" style="stroke:#181818;stroke-width:1.0;"/><line style="stroke:#181818;stroke-width:1.0;" x1="558.5" x2="558.5" y1="621.4604" y2="643.4604"/><line style="stroke:#181818;stroke-width:1.0;" x1="558.5" x2="461.25" y1="643.4604" y2="643.4604"/><polygon fill="#181818" points="471.25,639.4604,461.25,643.4604,471.25,647.4604,467.25,643.4604" style="stroke:#181818;stroke-width:1.0;"/><line style="stroke:#181818;stroke-width:1.0;" x1="157.875" x2="78.5" y1="133.2969" y2="133.2969"/><line style="stroke:#181818;stroke-width:1.0;" x1="78.5" x2="78.5" y1="133.2969" y2="155.2969"/><polygon fill="#181818" points="74.5,145.2969,78.5,155.2969,82.5,145.2969,78.5,149.2969" style="stroke:#181818;stroke-width:1.0;"/><line style="stroke:#181818;stroke-width:1.0;" x1="369.875" x2="449.25" y1="133.2969" y2="133.2969"/><line style="stroke:#181818;stroke-width:1.0;" x1="449.25" x2="449.25" y1="133.2969" y2="155.2969"/><polygon fill="#181818" points="445.25,145.2969,449.25,155.2969,453.25,145.2969,449.25,149.2969" style="stroke:#181818;stroke-width:1.0;"/><line style="stroke:#181818;stroke-width:1.0;" x1="449.25" x2="449.25" y1="655.4604" y2="660.4604"/><line style="stroke:#181818;stroke-width:1.0;" x1="449.25" x2="550.6875" y1="660.4604" y2="660.4604"/><line style="stroke:#181818;stroke-width:1.0;" x1="550.6875" x2="550.6875" y1="660.4604" y2="675.4604"/><polygon fill="#181818" points="546.6875,665.4604,550.6875,675.4604,554.6875,665.4604,550.6875,669.4604" style="stroke:#181818;stroke-width:1.0;"/><line style="stroke:#181818;stroke-width:1.0;" x1="817.5" x2="817.5" y1="155.2656" y2="190.2656"/><polygon fill="#181818" points="813.5,180.2656,817.5,190.2656,821.5,180.2656,817.5,184.2656" style="stroke:#181818;stroke-width:1.0;"/><line style="stroke:#181818;stroke-width:1.0;" x1="442.6875" x2="263.875" y1="99.2969" y2="99.2969"/><line style="stroke:#181818;stroke-width:1.0;" x1="263.875" x2="263.875" y1="99.2969" y2="121.2969"/><polygon fill="#181818" points="259.875,111.2969,263.875,121.2969,267.875,111.2969,263.875,115.2969" style="stroke:#181818;stroke-width:1.0;"/><line style="stroke:#181818;stroke-width:1.0;" x1="658.6875" x2="817.5" y1="99.2969" y2="99.2969"/><line style="stroke:#181818;stroke-width:1.0;" x1="817.5" x2="817.5" y1="99.2969" y2="121.2969"/><polygon fill="#181818" points="813.5,111.2969,817.5,121.2969,821.5,111.2969,817.5,115.2969" style="stroke:#181818;stroke-width:1.0;"/><line style="stroke:#181818;stroke-width:1.0;" x1="550.6875" x2="550.6875" y1="67.2969" y2="87.2969"/><polygon fill="#181818" points="546.6875,77.2969,550.6875,87.2969,554.6875,77.2969,550.6875,81.2969" style="stroke:#181818;stroke-width:1.0;"/><!--MD5=[d38f7e28122b62cc5c3132a527e01fc7]
@startuml
title: LDaCA Persistent IDs (PIDs)

start

if (Data has a custodial Organization) then (yes)
 
  if (Org has PID policy & governance) then (yes)
         :Use existing policy;
         stop
  else (no)
      :Use LDaCA defaults;
      :ARCP IDs for context, demographics, collectionEvents etc;
      while (Can Identify responsible party within ORG to manage PIDs) is (no)
            if (Content has existing PIDs) then (yes)
                :Use exisiting PIDs;
            else (no)
               :ARCP IDs for collections, objects and files;
            endif
       endwhile (yes)
       switch (Type of deposit)
            case ( Completed speech study or corpus )
               :DOI at study/collection level;
               :ARCP IDs for objects and files;
            case ( Continuing deposit of objects ) 
               :DOI at object level;
               :ARCP IDs for files;
         endswitch
       
   

  endif
else (no)
   :Continue negotiations;
   stop
endif


     
 



stop
@enduml

PlantUML version 1.2022.8beta8(Unknown compile time)
(GPL source distribution)
Java Runtime: Java(TM) SE Runtime Environment
JVM: Java HotSpot(TM) 64-Bit Server VM
Default Encoding: UTF-8
Language: en
Country: US
--></g></svg>