<?xml version="1.0" encoding="UTF-8" standalone="no"?><svg xmlns="http://www.w3.org/2000/svg" xmlns:xlink="http://www.w3.org/1999/xlink" contentStyleType="text/css" height="188px" preserveAspectRatio="none" style="width:490px;height:188px;background:#FFFFFF;" version="1.1" viewBox="0 0 490 188" width="490px" zoomAndPan="magnify"><defs/><g><text fill="#000000" font-family="sans-serif" font-size="14" font-weight="bold" lengthAdjust="spacing" textLength="292" x="92" y="22.9951">Step 1 - Fetching data over the wire</text><!--cluster Workbench--><g id="cluster_Workbench"><rect fill="none" height="106" rx="2.5" ry="2.5" style="stroke:#181818;stroke-width:1.0;" width="138" x="7" y="76.8628"/><text fill="#000000" font-family="sans-serif" font-size="14" font-weight="bold" lengthAdjust="spacing" textLength="89" x="31.5" y="91.8579">Workbench</text></g><!--cluster Webserver--><g id="cluster_Webserver"><rect fill="none" height="106" rx="2.5" ry="2.5" style="stroke:#181818;stroke-width:1.0;" width="315" x="169" y="76.8628"/><text fill="#000000" font-family="sans-serif" font-size="14" font-weight="bold" lengthAdjust="spacing" textLength="84" x="284.5" y="91.8579">Webserver</text></g><!--entity w1--><g id="elem_w1"><rect fill="#F1F1F1" height="36.2969" rx="2.5" ry="2.5" style="stroke:#181818;stroke-width:0.5;" width="105" x="23.5" y="130.8628"/><text fill="#000000" font-family="sans-serif" font-size="14" lengthAdjust="spacing" textLength="85" x="33.5" y="153.8579">Notebook 1</text></g><!--entity c1--><g id="elem_c1"><rect fill="#F1F1F1" height="36.2969" rx="2.5" ry="2.5" style="stroke:#181818;stroke-width:0.5;" width="124" x="344" y="130.8628"/><text fill="#000000" font-family="sans-serif" font-size="14" lengthAdjust="spacing" textLength="104" x="354" y="153.8579">Crate 1 (open)</text></g><!--entity c2--><g id="elem_c2"><rect fill="#F1F1F1" height="36.2969" rx="2.5" ry="2.5" style="stroke:#181818;stroke-width:0.5;" width="123" x="185.5" y="130.8628"/><text fill="#000000" font-family="sans-serif" font-size="14" lengthAdjust="spacing" textLength="103" x="195.5" y="153.8579">Crate 2 (open)</text></g><!--link w1 to c1--><g id="link_w1_c1"><path d="M90.5589,130.7397 C107.222,111.5042 136.446,82.0958 169,68.8628 C189.007,60.7298 195.914,66.5298 217.5,65.8628 C265.718,64.3728 281.828,49.4718 326,68.8628 C353.589,80.9738 376.839,107.2955 391.044,126.4485 " fill="none" id="w1-to-c1" style="stroke:#181818;stroke-width:1.0;"/><polygon fill="#181818" points="394.11,130.6618,392.0489,121.031,391.1681,126.6189,385.5802,125.7381,394.11,130.6618" style="stroke:#181818;stroke-width:1.0;"/><text fill="#000000" font-family="sans-serif" font-size="13" lengthAdjust="spacing" textLength="35" x="218.5" y="56.9297">Fetch</text></g><!--SRC=[PO-n3eCm34HtlkB4r0uCOMJeKgbZbrRgdAGd4e4I52mOglvx0ooWsf87-zxPVdhfsU0X7A1GuKQnpeSMRoqQSMA2E6BsYKMY5HtQddZ5r1a6w_3PTSjx59eOEwWIUiIiylYRizYZD2FJudj0hqaBymMdE32SLznk-9-eFeZgLPGZbxomkYnSi_tn0m00]--></g></svg>