<?xml version="1.0" encoding="UTF-8" standalone="no"?><svg xmlns="http://www.w3.org/2000/svg" xmlns:xlink="http://www.w3.org/1999/xlink" contentStyleType="text/css" height="425px" preserveAspectRatio="none" style="width:491px;height:425px;background:#FFFFFF;" version="1.1" viewBox="0 0 491 425" width="491px" zoomAndPan="magnify"><defs/><g><!--cluster RO-Crate Profile (this document)--><g id="cluster_RO-Crate Profile (this document)"><rect fill="none" height="87" rx="2.5" ry="2.5" style="stroke:#181818;stroke-width:1.0;" width="283" x="7" y="7"/><text fill="#000000" font-family="sans-serif" font-size="14" font-weight="bold" lengthAdjust="spacing" textLength="267" x="15" y="21.9951">RO-Crate Profile (this document)</text></g><!--entity procoll--><g id="elem_procoll"><rect fill="#F1F1F1" height="36.2969" rx="2.5" ry="2.5" style="stroke:#181818;stroke-width:0.5;" width="109" x="159.5" y="42"/><text fill="#000000" font-family="sans-serif" font-size="14" lengthAdjust="spacing" textLength="85" x="173.5" y="64.9951">#Collection</text></g><!--entity proobj--><g id="elem_proobj"><rect fill="#F1F1F1" height="36.2969" rx="2.5" ry="2.5" style="stroke:#181818;stroke-width:0.5;" width="97" x="27.5" y="42"/><text fill="#000000" font-family="sans-serif" font-size="14" lengthAdjust="spacing" textLength="61" x="53.5" y="64.9951">#Object</text></g><!--entity coll--><g id="elem_coll"><rect fill="#F1F1F1" height="36.2969" rx="2.5" ry="2.5" style="stroke:#181818;stroke-width:0.5;" width="93" x="179.5" y="157"/><text fill="#000000" font-family="sans-serif" font-size="14" lengthAdjust="spacing" textLength="73" x="189.5" y="179.9951">Collection</text></g><!--entity obj--><g id="elem_obj"><rect fill="#F1F1F1" height="36.2969" rx="2.5" ry="2.5" style="stroke:#181818;stroke-width:0.5;" width="69" x="88.5" y="270"/><text fill="#000000" font-family="sans-serif" font-size="14" lengthAdjust="spacing" textLength="49" x="98.5" y="292.9951">Object</text></g><!--entity file--><g id="elem_file"><rect fill="#F1F1F1" height="36.2969" rx="2.5" ry="2.5" style="stroke:#181818;stroke-width:0.5;" width="45" x="100.5" y="383"/><text fill="#000000" font-family="sans-serif" font-size="14" lengthAdjust="spacing" textLength="25" x="110.5" y="405.9951">File</text></g><!--link coll to coll--><g id="link_coll_coll"><path d="M272.562,166.807 C325.952,161.988 397.5,164.719 397.5,175 C397.5,184.96 330.354,187.834 277.618,183.623 " fill="none" id="coll-to-coll" style="stroke:#181818;stroke-width:1.0;"/><polygon fill="#181818" points="272.562,183.193,281.1914,187.9399,277.5441,183.6159,281.8681,179.9686,272.562,183.193" style="stroke:#181818;stroke-width:1.0;"/><text fill="#000000" font-family="sans-serif" font-size="13" lengthAdjust="spacing" textLength="75" x="403.5" y="179.5669">hasMember</text></g><!--link coll to coll--><g id="link_coll_coll"><path d="M272.901,169.782 C291.711,169.487 307.5,171.227 307.5,175 C307.5,178.42 294.533,180.169 278.101,180.247 " fill="none" id="coll-to-coll-1" style="stroke:#181818;stroke-width:1.0;"/><polygon fill="#181818" points="272.901,180.218,281.8792,184.2668,277.9009,180.2451,281.9226,176.2669,272.901,180.218" style="stroke:#181818;stroke-width:1.0;"/><text fill="#000000" font-family="sans-serif" font-size="13" lengthAdjust="spacing" textLength="78" x="313.5" y="179.5669">memberOfq</text></g><!--link coll to obj--><g id="link_coll_obj"><path d="M179.464,184.473 C157.488,191.061 133.227,202.666 120,223 C112.075,235.183 113.021,251.601 115.847,264.758 " fill="none" id="coll-to-obj" style="stroke:#181818;stroke-width:1.0;"/><polygon fill="#181818" points="117.056,269.807,118.8505,260.123,115.8918,264.9444,111.0704,261.9857,117.056,269.807" style="stroke:#181818;stroke-width:1.0;"/><text fill="#000000" font-family="sans-serif" font-size="13" lengthAdjust="spacing" textLength="75" x="121" y="236.0669">hasMember</text></g><!--reverse link coll to obj--><g id="link_coll_obj"><path d="M221.19,198.166 C217.434,211.438 211.114,228.003 201,240 C189.383,253.78 172.645,264.607 157.65,272.379 " fill="none" id="coll-backto-obj" style="stroke:#181818;stroke-width:1.0;"/><polygon fill="#181818" points="222.553,193.074,216.3619,200.7337,221.2602,197.904,224.0898,202.8022,222.553,193.074" style="stroke:#181818;stroke-width:1.0;"/><text fill="#000000" font-family="sans-serif" font-size="13" lengthAdjust="spacing" textLength="70" x="213" y="236.0669">memberOf</text></g><!--reverse link procoll to coll--><g id="link_procoll_coll"><path d="M216.378,83.396 C218.665,104.931 222.074,137.028 224.16,156.676 " fill="none" id="procoll-backto-coll" style="stroke:#181818;stroke-width:1.0;"/><polygon fill="#181818" points="215.823,78.162,212.7967,87.5344,216.3515,83.134,220.7519,86.6888,215.823,78.162" style="stroke:#181818;stroke-width:1.0;"/><text fill="#000000" font-family="sans-serif" font-size="13" lengthAdjust="spacing" textLength="77" x="222" y="123.0669">conformsTo</text></g><!--link obj to proobj--><g id="link_obj_proobj"><path d="M113.582,269.947 C103.957,251.571 89.5244,221.163 83,193 C74.2599,155.273 74.0008,109.927 74.8394,83.4 " fill="none" id="obj-to-proobj" style="stroke:#181818;stroke-width:1.0;"/><polygon fill="#181818" points="75.0195,78.354,70.7006,87.2054,74.8409,83.3508,78.6955,87.4911,75.0195,78.354" style="stroke:#181818;stroke-width:1.0;"/><text fill="#000000" font-family="sans-serif" font-size="13" lengthAdjust="spacing" textLength="77" x="84" y="179.5669">conformsTo</text></g><!--link obj to file--><g id="link_obj_file"><path d="M123,306.344 C123,325.5677 123,356.6296 123,377.6606 " fill="none" id="obj-to-file" style="stroke:#181818;stroke-width:1.0;"/><polygon fill="#181818" points="123,382.778,127,373.778,123,377.778,119,373.778,123,382.778" style="stroke:#181818;stroke-width:1.0;"/><text fill="#000000" font-family="sans-serif" font-size="13" lengthAdjust="spacing" textLength="49" x="124" y="349.0669">hasPart</text></g><!--SRC=[PP1D3e9038NtdAA1ZIwuW0it9EuCn7Y10OQ_m5GxGrmOxcxdHqNihlrUt-iCoSe8rOuIuakUPYICX8AmwNcoCrsleSPgdgGo-nYU4Ntba6GuZjptg68G6cw45Kz-D5n9NWuyUKkm7A8bYjQgZOyruQXbBLbviC6MdlXQnzpP5ZgFrDRH-nsW4_eifr9IW1ymkMdUtFagZsfyAEOsQRrd-tI-_M-6DOV2Bp2jK3L8axwYtwI-xOnNUEUj8CIwHxZSGf1v0G00]--></g></svg>