<?xml version="1.0" encoding="UTF-8" standalone="no"?><svg xmlns="http://www.w3.org/2000/svg" xmlns:xlink="http://www.w3.org/1999/xlink" contentStyleType="text/css" height="437px" preserveAspectRatio="none" style="width:1558px;height:437px;background:#FFFFFF;" version="1.1" viewBox="0 0 1558 437" width="1558px" zoomAndPan="magnify"><defs/><g><rect fill="none" height="26.2969" id="_title" style="stroke:none;stroke-width:1.0;" width="368" x="588.4532" y="5"/><text fill="#000000" font-family="sans-serif" font-size="14" font-weight="bold" lengthAdjust="spacing" textLength="358" x="593.4532" y="22.9951">Batch-loading data into LDaCA more details</text><!--MD5=[dce4c2b5694dd28223e7b1d160ba96c4]
cluster data--><g id="cluster_data"><path d="M198.1863,175.9961 C238.3454,124.7085 268.9597,141.6967 298.8336,186.742 C327.816,153.7586 353.5457,151.9049 380.6684,188.9161 C404.6481,132.4468 453.8189,133.1057 483.1947,183.7511 C501.356,144.0325 541.2079,147.679 562.5716,180.2339 C594.8267,129.7376 641.352,139.8031 666.1327,188.0713 C690.1349,143.913 723.3932,134.0739 758.6853,175.922 C783.4297,131.0313 823.8422,143.0817 843.7252,180.9193 C877.7272,139.9187 916.055,135.9501 946.43,185.0535 C972.0747,146.67 1001.7581,140.4943 1030.5082,181.776 C1053.6862,129.8217 1094.5039,133.2255 1124.6952,174.7062 C1159.9864,140.865 1187.5467,146.0136 1209.9686,188.9918 C1242.8259,142.3897 1283.4153,135.7112 1317.0487,188.1527 C1336.6743,145.1045 1364.6466,146.978 1394.5351,177.3167 C1427.4962,124.5887 1464.2948,128.7401 1493,181.2969 C1497.932,174.2792 1503.8705,173.1807 1508.7093,181.3929 C1546.1581,212.588 1551.9064,254.1182 1499.618,276.7586 C1541.3196,307.7924 1534.4345,345.613 1486,362.2969 C1496.3011,364.7741 1497.7775,369.8477 1491.8759,378.2811 C1466.2214,429.0888 1424.2919,421.7257 1399.127,377.8017 C1367.5341,422.2797 1328.7267,418.7247 1303.2575,371.4062 C1279.8377,419.853 1236.8108,416.2214 1210.6646,374.1966 C1184.2762,408.3669 1144.0436,410.7484 1123.1729,367.9264 C1098.7543,412.7565 1066.5792,420.7127 1030.1051,381.2345 C1000.2126,419.0397 961.9892,416.5262 942.9969,369.9784 C913.0982,422.1007 876.0187,412.574 846.5593,369.5333 C820.1333,407.3239 792.4825,410.4621 761.8405,374.3676 C726.73,424.0388 692.8237,421.517 655.9574,376.3273 C628.3991,414.4821 602.1823,408.4248 578.1601,372.6082 C545.7556,418.2895 516.7465,415.0747 484.278,372.6764 C462.0345,427.5831 415.455,422.4612 385.5248,380.5138 C353.5263,420.4458 317.1142,430.4453 286.187,379.3448 C240.7625,423.9969 206.6419,413.8924 186,355.2969 C191.8181,357.6677 192.9961,362.35 188.1497,366.7266 C142.7367,340.6075 136.9294,313.436 180.2429,279.2931 C139.1096,246.6512 145.3146,196.1472 193,174.2969 C195.1886,172.4091 197.593,173.0152 198.1863,175.9961 " fill="none" style="stroke:#181818;stroke-width:1.0;"/><text fill="#000000" font-family="sans-serif" font-size="14" font-weight="bold" lengthAdjust="spacing" textLength="161" x="759" y="192.292">Original Data Types</text></g><g id="elem_GMN4"><path d="M1328.5,313.7969 L1328.5,338.9297 L1467.5,338.9297 L1467.5,323.7969 L1457.5,313.7969 L1328.5,313.7969 " fill="#FEFFDD" style="stroke:#181818;stroke-width:0.5;"/><path d="M1457.5,313.7969 L1457.5,323.7969 L1467.5,323.7969 L1457.5,313.7969 " fill="#FEFFDD" style="stroke:#181818;stroke-width:1.0;"/><text fill="#000000" font-family="sans-serif" font-size="13" lengthAdjust="spacing" textLength="118" x="1334.5" y="330.8638">Eg Sydney Speaks</text></g><g id="elem_GMN8"><path d="M1129,313.7969 L1129,338.9297 L1293,338.9297 L1293,323.7969 L1283,313.7969 L1129,313.7969 " fill="#FEFFDD" style="stroke:#181818;stroke-width:0.5;"/><path d="M1283,313.7969 L1283,323.7969 L1293,323.7969 L1283,313.7969 " fill="#FEFFDD" style="stroke:#181818;stroke-width:1.0;"/><text fill="#000000" font-family="sans-serif" font-size="13" lengthAdjust="spacing" textLength="143" x="1135" y="330.8638">Eg Farms to Freeways</text></g><g id="elem_GMN12"><path d="M979,313.7969 L979,338.9297 L1067,338.9297 L1067,323.7969 L1057,313.7969 L979,313.7969 " fill="#FEFFDD" style="stroke:#181818;stroke-width:0.5;"/><path d="M1057,313.7969 L1057,323.7969 L1067,323.7969 L1057,313.7969 " fill="#FEFFDD" style="stroke:#181818;stroke-width:1.0;"/><text fill="#000000" font-family="sans-serif" font-size="13" lengthAdjust="spacing" textLength="67" x="985" y="330.8638">Eg Austalk</text></g><g id="elem_GMN16"><path d="M653.5,306.2969 L653.5,346.5625 L858.5,346.5625 L858.5,316.2969 L848.5,306.2969 L653.5,306.2969 " fill="#FEFFDD" style="stroke:#181818;stroke-width:0.5;"/><path d="M848.5,306.2969 L848.5,316.2969 L858.5,316.2969 L848.5,306.2969 " fill="#FEFFDD" style="stroke:#181818;stroke-width:1.0;"/><text fill="#000000" font-family="sans-serif" font-size="13" lengthAdjust="spacing" textLength="184" x="659.5" y="323.3638">Eg Monash Corpus of English</text><text fill="#000000" font-family="sans-serif" font-size="13" lengthAdjust="spacing" textLength="90" x="659.5" y="338.4966">(legacy .docs)</text></g><!--MD5=[5b5b6116e9ca12b5be308e1a61d0aa39]
entity csv--><g id="elem_csv"><rect fill="#F1F1F1" height="36.2969" rx="2.5" ry="2.5" style="stroke:#181818;stroke-width:0.5;" width="161" x="1315.5" y="209.2969"/><text fill="#000000" font-family="sans-serif" font-size="14" lengthAdjust="spacing" textLength="141" x="1325.5" y="232.292">Spreadsheet + files</text></g><!--MD5=[68ed47e20afb3153da56cce0b31eee5d]
entity crate--><g id="elem_crate"><rect fill="#F1F1F1" height="36.2969" rx="2.5" ry="2.5" style="stroke:#181818;stroke-width:0.5;" width="136" x="1144" y="209.2969"/><text fill="#000000" font-family="sans-serif" font-size="14" lengthAdjust="spacing" textLength="116" x="1154" y="232.292">RO-Crate + files</text></g><!--MD5=[d968cb161b28e4468d265724c669f32e]
entity rdf--><g id="elem_rdf"><rect fill="#F1F1F1" height="36.2969" rx="2.5" ry="2.5" style="stroke:#181818;stroke-width:0.5;" width="172" x="937" y="209.2969"/><text fill="#000000" font-family="sans-serif" font-size="14" lengthAdjust="spacing" textLength="152" x="947" y="232.292">RDF Metadata + Files</text></g><!--MD5=[5a805625d5531209e570b5ca86c77d09]
entity word--><g id="elem_word"><rect fill="#F1F1F1" height="36.2969" rx="2.5" ry="2.5" style="stroke:#181818;stroke-width:0.5;" width="292" x="610" y="209.2969"/><text fill="#000000" font-family="sans-serif" font-size="14" lengthAdjust="spacing" textLength="272" x="620" y="232.292">Transcripts with embedded metadata</text></g><!--MD5=[1d972db5b171e50b461ebb8daaca712c]
entity Service with API--><g id="elem_Service with API"><rect fill="#F1F1F1" height="36.2969" rx="2.5" ry="2.5" style="stroke:#181818;stroke-width:0.5;" width="135" x="439.5" y="209.2969"/><text fill="#000000" font-family="sans-serif" font-size="14" lengthAdjust="spacing" textLength="115" x="449.5" y="232.292">Service with API</text></g><!--MD5=[55723d23e03dfbd4cdcbc3191844398b]
entity HTML interface to files--><g id="elem_HTML interface to files"><rect fill="#F1F1F1" height="36.2969" rx="2.5" ry="2.5" style="stroke:#181818;stroke-width:0.5;" width="183" x="221.5" y="209.2969"/><text fill="#000000" font-family="sans-serif" font-size="14" lengthAdjust="spacing" textLength="163" x="231.5" y="232.292">HTML interface to files</text></g><!--MD5=[d6c9eaecddfd69550070453b61bcb09c]
entity ct--><g id="elem_ct"><rect fill="#F1F1F1" height="36.2969" rx="2.5" ry="2.5" style="stroke:#181818;stroke-width:0.5;" width="234" x="14" y="44.2969"/><text fill="#000000" font-family="sans-serif" font-size="14" lengthAdjust="spacing" textLength="214" x="24" y="67.292">'Corpus Tool' conversion code</text></g><!--MD5=[ae38f3df50bbf8acf027574e6a8bac37]
entity repo--><g id="elem_repo"><rect fill="#F1F1F1" height="36.2969" rx="2.5" ry="2.5" style="stroke:#181818;stroke-width:0.5;" width="140" x="7" y="209.2969"/><text fill="#000000" font-family="sans-serif" font-size="14" lengthAdjust="spacing" textLength="120" x="17" y="232.292">OCFL Repository</text></g><!--MD5=[02ce534567b2df790e0653f47912a37f]
link csv to GMN4--><g id="link_csv_GMN4"><path d="M1396.36,245.6389 C1396.76,265.2559 1397.41,296.6684 1397.76,313.5904 " fill="none" id="csv-GMN4" style="stroke:#181818;stroke-width:1.0;stroke-dasharray:7.0,7.0;"/></g><!--MD5=[17b89bacf675fdf26e2d534d62233a32]
link crate to GMN8--><g id="link_crate_GMN8"><path d="M1211.82,245.6389 C1211.62,265.2559 1211.3,296.6684 1211.12,313.5904 " fill="none" id="crate-GMN8" style="stroke:#181818;stroke-width:1.0;stroke-dasharray:7.0,7.0;"/></g><!--MD5=[204b244c7171510f7b290e12c616f198]
link rdf to GMN12--><g id="link_rdf_GMN12"><path d="M1023,245.6389 C1023,265.2559 1023,296.6684 1023,313.5904 " fill="none" id="rdf-GMN12" style="stroke:#181818;stroke-width:1.0;stroke-dasharray:7.0,7.0;"/></g><!--MD5=[d8fb8c50ab3bee8502c861fc00d28940]
link word to GMN16--><g id="link_word_GMN16"><path d="M756,245.6389 C756,262.6409 756,288.5019 756,306.1111 " fill="none" id="word-GMN16" style="stroke:#181818;stroke-width:1.0;stroke-dasharray:7.0,7.0;"/></g><!--MD5=[f17114b243edf3f8d950235866970a9b]
reverse link ct to data--><g id="link_ct_data"><path d="M139.871,85.1999 C146.816,102.6879 156.52,127.8869 164,150.2969 C166.6965,158.3751 169.3773,166.9982 171.8919,175.4285 C173.1491,179.6436 174.3648,183.8105 175.5202,187.837 C176.0978,189.8502 176.6604,191.8284 177.2055,193.7598 C177.3418,194.2427 177.477,194.7227 177.611,195.1995 C177.678,195.438 177.7448,195.6756 177.8113,195.9125 C177.8445,196.0309 177.8776,196.1492 177.9107,196.2672 " fill="none" id="ct-backto-data" style="stroke:#181818;stroke-width:1.0;"/><polygon fill="#181818" points="137.989,80.4809,137.6087,90.3224,139.8418,85.1249,145.0392,87.358,137.989,80.4809" style="stroke:#181818;stroke-width:1.0;"/><text fill="#000000" font-family="sans-serif" font-size="13" lengthAdjust="spacing" textLength="131" x="209" y="123.3638">Convert to RO-Crate</text><text fill="#000000" font-family="sans-serif" font-size="13" lengthAdjust="spacing" textLength="225" x="162" y="138.4966">(using Language Commons profile)</text></g><!--MD5=[8c10ca441584a950c9cc358e8fb45cd2]
link ct to repo--><g id="link_ct_repo"><path d="M100.8963,80.3489 C90.3651,88.0199 79.744,98.1159 74,110.2969 C59.8016,140.4069 65.1831,179.9779 70.7831,204.2509 " fill="none" id="ct-to-repo" style="stroke:#181818;stroke-width:1.0;"/><polygon fill="#181818" points="71.9744,209.1889,73.7517,199.5017,70.8016,204.3284,65.9749,201.3782,71.9744,209.1889" style="stroke:#181818;stroke-width:1.0;"/><text fill="#000000" font-family="sans-serif" font-size="13" lengthAdjust="spacing" textLength="67" x="75" y="130.8638">Write data</text></g><!--MD5=[946e042620633d5c166bb9b2a54fce57]
@startuml
title: Batch-loading data into LDaCA more details

cloud "Original Data Types" as data {
rectangle "Spreadsheet + files" as csv {

}
note bottom of csv: Eg Sydney Speaks
rectangle "RO-Crate + files" as crate {
    
}

note bottom of crate: Eg Farms to Freeways

rectangle "RDF Metadata + Files" as rdf {
    
}

note bottom of rdf: Eg Austalk
rectangle "Transcripts with embedded metadata" as word {
    
}

note bottom of word : Eg Monash Corpus of English\n(legacy .docs)



rectangle "Service with API" {
    
}

rectangle "HTML interface to files" {
    
}

}

rectangle "'Corpus Tool' conversion code" as ct {

}

rectangle "OCFL Repository" as repo {

}

ct <-up- data : Convert to RO-Crate\n(using Language Commons profile)
ct -down-> repo : Write data
@enduml

PlantUML version 1.2022.8beta9(Unknown compile time)
(GPL source distribution)
Java Runtime: Java(TM) SE Runtime Environment
JVM: Java HotSpot(TM) 64-Bit Server VM
Default Encoding: UTF-8
Language: en
Country: US
--></g></svg>