<?xml version="1.0" encoding="UTF-8" standalone="no"?><svg xmlns="http://www.w3.org/2000/svg" xmlns:xlink="http://www.w3.org/1999/xlink" contentStyleType="text/css" height="86px" preserveAspectRatio="none" style="width:277px;height:86px;background:#FFFFFF;" version="1.1" viewBox="0 0 277 86" width="277px" zoomAndPan="magnify"><defs/><g><!--entity w--><g id="elem_w"><rect fill="#F1F1F1" height="36.2969" rx="2.5" ry="2.5" style="stroke:#181818;stroke-width:0.5;" width="58" x="7" y="25.5"/><text fill="#000000" font-family="sans-serif" font-size="14" lengthAdjust="spacing" textLength="38" x="17" y="48.4951">Work</text></g><!--entity c--><g id="elem_c"><ellipse cx="226" cy="14" fill="#F1F1F1" rx="8" ry="8" style="stroke:#181818;stroke-width:0.5;"/><path d="M226,22 L226,49 M213,30 L239,30 M226,49 L213,64 M226,49 L239,64 " fill="none" style="stroke:#181818;stroke-width:0.5;"/><text fill="#000000" font-family="sans-serif" font-size="14" lengthAdjust="spacing" textLength="85" x="181.5" y="78.4951">Contributor</text></g><!--link w to c--><g id="link_w_c"><path d="M65.2711,43.5 C94.8373,43.5 141.064,43.5 176.367,43.5 " fill="none" id="w-to-c" style="stroke:#181818;stroke-width:1.0;"/><polygon fill="#181818" points="181.493,43.5,172.493,39.5,176.493,43.5,172.493,47.5,181.493,43.5" style="stroke:#181818;stroke-width:1.0;"/><text fill="#000000" font-family="sans-serif" font-size="13" lengthAdjust="spacing" textLength="80" x="83.25" y="36.5669">hasCompiler</text></g><!--reverse link w to c--><g id="link_w_c"><path d="M70.2988,58.8821 C75.8655,60.7939 81.6446,62.445 87.25,63.5 C118.698,69.4188 127.588,68.1414 159.25,63.5 C166.432,62.4472 173.914,60.7893 181.161,58.8677 " fill="none" id="w-backto-c" style="stroke:#181818;stroke-width:1.0;"/><polygon fill="#181818" points="65.2573,57.0628,72.3651,63.8804,69.9604,58.7601,75.0807,56.3554,65.2573,57.0628" style="stroke:#181818;stroke-width:1.0;"/><text fill="#000000" font-family="sans-serif" font-size="13" lengthAdjust="spacing" textLength="70" x="88.25" y="59.5669">compilerOf</text></g><!--SRC=[AqfDBadCIyz9LL0Apo_ALb98B5OeLwZcughbuafCBialKb1opiyhASfCAWLpGFB9N5pb2hfs2iaALWePYSNE-Ra5cJcfHGf0KHjTi6WoLCW_3G00]--></g></svg>