<?xml version="1.0" encoding="UTF-8" standalone="no"?><svg xmlns="http://www.w3.org/2000/svg" xmlns:xlink="http://www.w3.org/1999/xlink" contentStyleType="text/css" height="234px" preserveAspectRatio="none" style="width:472px;height:234px;background:#FFFFFF;" version="1.1" viewBox="0 0 472 234" width="472px" zoomAndPan="magnify"><defs/><g><rect fill="none" height="26.2969" id="_title" style="stroke:none;stroke-width:1.0;" width="454" x="5" y="5"/><text fill="#000000" font-family="sans-serif" font-size="14" font-weight="bold" lengthAdjust="spacing" textLength="444" x="10" y="22.9951">Multiple portals serving data from an OCFL Repository</text><!--MD5=[89582973b81c8d740f90880da0655979]
entity portal--><g id="elem_portal"><rect fill="#F1F1F1" height="36.2969" rx="2.5" ry="2.5" style="stroke:#181818;stroke-width:0.5;" width="150" x="49" y="44.2969"/><text fill="#000000" font-family="sans-serif" font-size="14" lengthAdjust="spacing" textLength="130" x="59" y="67.292">&#128161; LDaCA Portal &#128161;</text></g><!--MD5=[c50bc4b6eff9eda00d7d448aaf654607]
entity aportal--><g id="elem_aportal"><rect fill="#F1F1F1" height="36.2969" rx="2.5" ry="2.5" style="stroke:#181818;stroke-width:0.5;" width="156" x="251" y="44.2969"/><text fill="#000000" font-family="sans-serif" font-size="14" lengthAdjust="spacing" textLength="136" x="261" y="67.292">&#128161; Austalk Portal &#128161;</text></g><!--MD5=[ae38f3df50bbf8acf027574e6a8bac37]
entity repo--><g id="elem_repo"><path d="M148.5,182.2969 C148.5,172.2969 226,172.2969 226,172.2969 C226,172.2969 303.5,172.2969 303.5,182.2969 L303.5,207.5938 C303.5,217.5938 226,217.5938 226,217.5938 C226,217.5938 148.5,217.5938 148.5,207.5938 L148.5,182.2969 " fill="#F1F1F1" style="stroke:#181818;stroke-width:0.5;"/><path d="M148.5,182.2969 C148.5,192.2969 226,192.2969 226,192.2969 C226,192.2969 303.5,192.2969 303.5,182.2969 " fill="none" style="stroke:#181818;stroke-width:0.5;"/><text fill="#000000" font-family="sans-serif" font-size="14" lengthAdjust="spacing" textLength="135" x="158.5" y="209.292">Arkisto Repository</text></g><!--MD5=[d71e828b5f5ce5c4891462193f3db50e]
link portal to repo--><g id="link_portal_repo"><path d="M116.8595,85.4489 C112.8331,102.3069 110.4725,125.4078 121,142.2969 C128.0638,153.6293 138.4285,162.538 149.932,169.5205 " fill="none" id="portal-repo" style="stroke:#181818;stroke-width:1.0;"/><polygon fill="#181818" points="154.568,172.2004,148.7788,164.2326,150.2395,169.6976,144.7744,171.1582,154.568,172.2004" style="stroke:#181818;stroke-width:1.0;"/><polygon fill="#181818" points="118.1501,80.4309,112.034,88.1505,116.9044,85.2732,119.7817,90.1436,118.1501,80.4309" style="stroke:#181818;stroke-width:1.0;"/><text fill="#000000" font-family="sans-serif" font-size="13" lengthAdjust="spacing" textLength="163" x="122" y="130.8638">Index and serve ALL data</text></g><!--MD5=[20647c6497c196390f8b27490a5aa65b]
link aportal to repo--><g id="link_aportal_repo"><path d="M321.062,85.5299 C314.41,102.2359 303.788,125.1024 290,142.2969 C282.193,152.0324 272.246,161.1293 262.534,168.8868 " fill="none" id="aportal-repo" style="stroke:#181818;stroke-width:1.0;"/><polygon fill="#181818" points="258.393,172.1273,267.9459,169.7309,262.3307,169.0459,263.0157,163.4307,258.393,172.1273" style="stroke:#181818;stroke-width:1.0;"/><polygon fill="#181818" points="322.998,80.5559,316.0064,87.4926,321.1847,85.2155,323.4618,90.3938,322.998,80.5559" style="stroke:#181818;stroke-width:1.0;"/><text fill="#000000" font-family="sans-serif" font-size="13" lengthAdjust="spacing" textLength="103" x="317.5" y="123.3638">Index and serve</text><text fill="#000000" font-family="sans-serif" font-size="13" lengthAdjust="spacing" textLength="118" x="310" y="138.4966">Austalk data ONLY</text></g><!--MD5=[11f0844f8119ee4395873a65c89d32a0]
@startuml
title: Multiple portals serving data from an OCFL Repository

rectangle "💡 LDaCA Portal 💡" as portal {

}

rectangle "💡 Austalk Portal 💡" as aportal {

}

database "Arkisto Repository" as repo {

}

portal <-down-> repo : Index and serve ALL data 
aportal <-down-> repo : Index and serve\nAustalk data ONLY
@enduml

PlantUML version 1.2022.8beta9(Unknown compile time)
(GPL source distribution)
Java Runtime: Java(TM) SE Runtime Environment
JVM: Java HotSpot(TM) 64-Bit Server VM
Default Encoding: UTF-8
Language: en
Country: US
--></g></svg>