<?xml version="1.0" encoding="UTF-8" standalone="no"?><svg xmlns="http://www.w3.org/2000/svg" xmlns:xlink="http://www.w3.org/1999/xlink" contentStyleType="text/css" height="995px" preserveAspectRatio="none" style="width:1081px;height:995px;background:#FFFFFF;" version="1.1" viewBox="0 0 1081 995" width="1081px" zoomAndPan="magnify"><defs/><g><!--cluster RO-Crate Profile (this document)--><g id="cluster_RO-Crate Profile (this document)"><rect fill="none" height="106" rx="2.5" ry="2.5" style="stroke:#181818;stroke-width:1.0;" width="283" x="792.6562" y="66.46"/><text fill="#000000" font-family="sans-serif" font-size="14" font-weight="bold" lengthAdjust="spacing" textLength="267" x="800.6562" y="81.4551">RO-Crate Profile (this document)</text></g><!--cluster c1--><g id="cluster_c1"><rect fill="none" height="122" rx="2.5" ry="2.5" style="stroke:#181818;stroke-width:1.0;" width="283" x="396.6562" y="58.46"/><text fill="#000000" font-family="sans-serif" font-size="14" font-weight="bold" lengthAdjust="spacing" textLength="107" x="484.6562" y="73.4551">Conversation</text></g><!--cluster audio1--><g id="cluster_audio1"><rect fill="none" height="204" rx="2.5" ry="2.5" style="stroke:#181818;stroke-width:1.0;" width="329" x="16.6562" y="247.46"/><text fill="#000000" font-family="sans-serif" font-size="14" font-weight="bold" lengthAdjust="spacing" textLength="79" x="141.6562" y="262.4551">Audio File</text></g><!--cluster pdf1--><g id="cluster_pdf1"><rect fill="none" height="204" rx="2.5" ry="2.5" style="stroke:#181818;stroke-width:1.0;" width="317" x="146.6562" y="516.46"/><text fill="#000000" font-family="sans-serif" font-size="14" font-weight="bold" lengthAdjust="spacing" textLength="63" x="273.6562" y="531.4551">PDF File</text></g><!--cluster csv1--><g id="cluster_csv1"><rect fill="none" height="204" rx="2.5" ry="2.5" style="stroke:#181818;stroke-width:1.0;" width="365" x="146.6562" y="785.46"/><text fill="#000000" font-family="sans-serif" font-size="14" font-weight="bold" lengthAdjust="spacing" textLength="64" x="297.1562" y="800.4551">CSV File</text></g><!--entity procoll--><g id="elem_procoll"><rect fill="#F1F1F1" height="36.2969" rx="2.5" ry="2.5" style="stroke:#181818;stroke-width:0.5;" width="112" x="810.6562" y="120.46"/><text fill="#000000" font-family="sans-serif" font-size="14" lengthAdjust="spacing" textLength="14" x="820.6562" y="143.4551">1.</text><text fill="#000000" font-family="sans-serif" font-size="14" lengthAdjust="spacing" textLength="73" x="839.6562" y="143.4551">Collection</text></g><!--entity proobj--><g id="elem_proobj"><rect fill="#F1F1F1" height="36.2969" rx="2.5" ry="2.5" style="stroke:#181818;stroke-width:0.5;" width="88" x="957.6562" y="120.46"/><text fill="#000000" font-family="sans-serif" font-size="14" lengthAdjust="spacing" textLength="14" x="967.6562" y="143.4551">1.</text><text fill="#000000" font-family="sans-serif" font-size="14" lengthAdjust="spacing" textLength="49" x="986.6562" y="143.4551">Object</text></g><!--entity @type: [RepositoryObject]--><g id="elem_@type: [RepositoryObject]"><rect fill="#F1F1F1" height="36.2969" rx="2.5" ry="2.5" style="stroke:#181818;stroke-width:0.5;" width="215" x="440.1562" y="120.46"/><text fill="#000000" font-family="sans-serif" font-size="14" lengthAdjust="spacing" textLength="195" x="450.1562" y="143.4551">@type: [RepositoryObject]</text></g><!--entity @id: [file.wav]\n@type: [File, PrimaryText]\nmodality: [Speech]\ncommunicationGenre: [Interview]\nresourceType: [PrimaryText]\nencodingFormat: [audio/x-wav]--><g id="elem_@id: [file.wav]\n@type: [File, PrimaryText]\nmodality: [Speech]\ncommunicationGenre: [Interview]\nresourceType: [PrimaryText]\nencodingFormat: [audio/x-wav]"><rect fill="#F1F1F1" height="117.7813" rx="2.5" ry="2.5" style="stroke:#181818;stroke-width:0.5;" width="261" x="60.1562" y="309.46"/><text fill="#000000" font-family="sans-serif" font-size="14" lengthAdjust="spacing" textLength="101" x="70.1562" y="332.4551">@id: [file.wav]</text><text fill="#000000" font-family="sans-serif" font-size="14" lengthAdjust="spacing" textLength="188" x="70.1562" y="348.752">@type: [File, PrimaryText]</text><text fill="#000000" font-family="sans-serif" font-size="14" lengthAdjust="spacing" textLength="136" x="70.1562" y="365.0489">modality: [Speech]</text><text fill="#000000" font-family="sans-serif" font-size="14" lengthAdjust="spacing" textLength="241" x="70.1562" y="381.3457">communicationGenre: [Interview]</text><text fill="#000000" font-family="sans-serif" font-size="14" lengthAdjust="spacing" textLength="205" x="70.1562" y="397.6426">resourceType: [PrimaryText]</text><text fill="#000000" font-family="sans-serif" font-size="14" lengthAdjust="spacing" textLength="221" x="70.1562" y="413.9395">encodingFormat: [audio/x-wav]</text></g><!--entity pt--><g id="elem_pt"><rect fill="#F1F1F1" height="117.7813" rx="2.5" ry="2.5" style="stroke:#181818;stroke-width:0.5;" width="250" x="189.6562" y="578.46"/><text fill="#000000" font-family="sans-serif" font-size="14" lengthAdjust="spacing" textLength="99" x="199.6562" y="601.4551">@id: [file.pdf]</text><text fill="#000000" font-family="sans-serif" font-size="14" lengthAdjust="spacing" textLength="181" x="199.6562" y="617.752">@type: [File, Annotation]</text><text fill="#000000" font-family="sans-serif" font-size="14" lengthAdjust="spacing" textLength="230" x="199.6562" y="634.0489">annotationType: [Transcription]</text><text fill="#000000" font-family="sans-serif" font-size="14" lengthAdjust="spacing" textLength="174" x="199.6562" y="650.3457">modality: [Orthography]</text><text fill="#000000" font-family="sans-serif" font-size="14" lengthAdjust="spacing" textLength="206" x="199.6562" y="666.6426">resourceType: [DerivedText]</text><text fill="#000000" font-family="sans-serif" font-size="14" lengthAdjust="spacing" textLength="198" x="199.6562" y="682.9395">encodingFormat: [text/pdf]</text></g><!--entity @id: [file.csv]\n@type: [File, Annotation, DerivedText]\nannotationType: [Transcription]\nmodality: [Orthography]\nresourceType: [DerivedText]\nencodingFormat: [text/csv]--><g id="elem_@id: [file.csv]\n@type: [File, Annotation, DerivedText]\nannotationType: [Transcription]\nmodality: [Orthography]\nresourceType: [DerivedText]\nencodingFormat: [text/csv]"><rect fill="#F1F1F1" height="117.7813" rx="2.5" ry="2.5" style="stroke:#181818;stroke-width:0.5;" width="298" x="189.6562" y="847.46"/><text fill="#000000" font-family="sans-serif" font-size="14" lengthAdjust="spacing" textLength="97" x="199.6562" y="870.4551">@id: [file.csv]</text><text fill="#000000" font-family="sans-serif" font-size="14" lengthAdjust="spacing" textLength="278" x="199.6562" y="886.752">@type: [File, Annotation, DerivedText]</text><text fill="#000000" font-family="sans-serif" font-size="14" lengthAdjust="spacing" textLength="230" x="199.6562" y="903.0489">annotationType: [Transcription]</text><text fill="#000000" font-family="sans-serif" font-size="14" lengthAdjust="spacing" textLength="174" x="199.6562" y="919.3457">modality: [Orthography]</text><text fill="#000000" font-family="sans-serif" font-size="14" lengthAdjust="spacing" textLength="206" x="199.6562" y="935.6426">resourceType: [DerivedText]</text><text fill="#000000" font-family="sans-serif" font-size="14" lengthAdjust="spacing" textLength="196" x="199.6562" y="951.9395">encodingFormat: [text/csv]</text></g><!--entity s1--><g id="elem_s1"><ellipse cx="259.6562" cy="108.96" fill="#F1F1F1" rx="8" ry="8" style="stroke:#181818;stroke-width:0.5;"/><path d="M259.6562,116.96 L259.6562,143.96 M246.6562,124.96 L272.6562,124.96 M259.6562,143.96 L246.6562,158.96 M259.6562,143.96 L272.6562,158.96 " fill="none" style="stroke:#181818;stroke-width:0.5;"/><text fill="#000000" font-family="sans-serif" font-size="14" lengthAdjust="spacing" textLength="73" x="223.1562" y="173.4551">Speaker 1</text></g><!--entity s2--><g id="elem_s2"><ellipse cx="739.6562" cy="108.96" fill="#F1F1F1" rx="8" ry="8" style="stroke:#181818;stroke-width:0.5;"/><path d="M739.6562,116.96 L739.6562,143.96 M726.6562,124.96 L752.6562,124.96 M739.6562,143.96 L726.6562,158.96 M739.6562,143.96 L752.6562,158.96 " fill="none" style="stroke:#181818;stroke-width:0.5;"/><text fill="#000000" font-family="sans-serif" font-size="14" lengthAdjust="spacing" textLength="72" x="703.6562" y="173.4551">Speaker 2</text></g><!--link c1 to pdf1--><g id="link_c1_pdf1"><path d="M409.4489,181.3402 C409.5062,182.0738 409.5629,182.8151 409.6189,183.564 C409.7309,185.0619 409.84,186.5902 409.9455,188.1476 C410.1567,191.2625 410.3538,194.494 410.5314,197.8322 C410.8868,204.5086 411.1645,211.6119 411.3223,219.0626 C411.6379,233.9642 411.4735,250.2557 410.4899,267.3021 C406.5557,335.488 389.5147,415.7535 337.6562,467.46 C331.0752,474.022 180.0282,493.695 173.6562,500.46 C171.0816,503.1933 168.7519,506.105 166.6467,509.1628 C165.5941,510.6918 164.5976,512.2572 163.6547,513.8552 C163.1833,514.6542 162.7252,515.4613 162.2802,516.276 " fill="none" id="c1-to-pdf1" style="stroke:#181818;stroke-width:1.0;"/><polygon fill="#181818" points="162.2802,516.276,170.1048,510.2947,164.6769,511.8879,163.0838,506.46,162.2802,516.276" style="stroke:#181818;stroke-width:1.0;"/><text fill="#000000" font-family="sans-serif" font-size="13" lengthAdjust="spacing" textLength="49" x="412.6562" y="373.0269">hasPart</text></g><!--reverse link audio1 to pdf1--><g id="link_audio1_pdf1"><path d="M34.0539,451.7203 C34.3401,452.347 34.6334,452.9698 34.9342,453.5884 C37.3402,458.5373 40.2191,463.2186 43.6562,467.46 C55.5056,482.082 109.4702,486.117 121.6562,500.46 C131.5672,512.1248 138.5987,526.2847 143.5677,541.0053 C144.1888,542.8454 144.7777,544.6942 145.336,546.548 C145.6151,547.4749 145.8866,548.4031 146.1506,549.332 C146.2826,549.7965 146.4128,550.2611 146.5411,550.7259 " fill="none" id="audio1-backto-pdf1" style="stroke:#181818;stroke-width:1.0;"/><polygon fill="#181818" points="34.0539,451.7203,34.1538,461.5687,36.1308,456.2686,41.4309,458.2456,34.0539,451.7203" style="stroke:#181818;stroke-width:1.0;"/><text fill="#000000" font-family="sans-serif" font-size="13" lengthAdjust="spacing" textLength="84" x="109.6562" y="488.5269">annotationOf</text></g><!--link c1 to audio1--><g id="link_c1_audio1"><path d="M396.4802,146.3245 C396.403,146.3871 396.3254,146.4501 396.2472,146.5135 C395.9346,146.7669 395.6143,147.0259 395.2863,147.29 C390.0389,151.5169 382.8465,157.0889 374.3798,163.0731 C357.4464,175.0415 335.4162,188.6585 313.6562,196.46 C256.7042,216.879 86.6488,188.891 43.6562,231.46 C40.988,234.1019 38.5762,236.9336 36.3993,239.9216 C35.3109,241.4156 34.2812,242.9486 33.3076,244.5166 C32.8207,245.3006 32.3479,246.0934 31.8888,246.8943 " fill="none" id="c1-to-audio1" style="stroke:#181818;stroke-width:1.0;"/><polygon fill="#181818" points="31.8888,246.8943,39.835,241.0755,34.3754,242.5565,32.8944,237.0969,31.8888,246.8943" style="stroke:#181818;stroke-width:1.0;"/><text fill="#000000" font-family="sans-serif" font-size="13" lengthAdjust="spacing" textLength="49" x="142.6562" y="219.5269">hasPart</text></g><!--link c1 to csv1--><g id="link_c1_csv1"><path d="M414.8267,180.5245 C414.8671,180.6202 414.9076,180.7158 414.9482,180.8114 C415.0295,181.0025 415.1114,181.1935 415.1939,181.3843 C415.5239,182.1473 415.8637,182.9071 416.2135,183.6623 C416.9133,185.1727 417.6533,186.6646 418.4357,188.127 C420.0006,191.0519 421.735,193.8589 423.6562,196.46 C428.1992,202.611 431.4972,201.929 437.6562,206.46 C452.4772,217.364 462.4672,214.983 470.6562,231.46 C570.5892,432.54 609.3702,572.778 455.6562,736.46 C423.4842,770.718 292.3442,756.087 245.6562,761.46 C229.6632,763.3 185.1982,758.238 173.6562,769.46 C170.964,772.0774 168.5311,774.8876 166.3359,777.8568 C165.2383,779.3414 164.2001,780.8658 163.2186,782.4258 C162.7279,783.2058 162.2513,783.9947 161.7885,784.7919 C161.6728,784.9912 161.558,785.191 161.4441,785.3914 " fill="none" id="c1-to-csv1" style="stroke:#181818;stroke-width:1.0;"/><polygon fill="#181818" points="161.4441,785.3914,169.3708,779.5462,163.9162,781.0453,162.4171,775.5907,161.4441,785.3914" style="stroke:#181818;stroke-width:1.0;"/><text fill="#000000" font-family="sans-serif" font-size="13" lengthAdjust="spacing" textLength="49" x="558.6562" y="488.5269">hasPart</text></g><!--reverse link audio1 to csv1--><g id="link_audio1_csv1"><path d="M20.1871,452.374 C20.177,452.8566 20.1672,453.3409 20.1575,453.8266 C20.119,455.7697 20.0842,457.7376 20.0534,459.7291 C19.9918,463.7123 19.9463,467.7905 19.9196,471.9559 C19.8663,480.2868 19.8883,488.9668 20.0074,497.9338 C20.96,569.6695 28.1262,659.773 52.6562,736.46 C65.8117,777.5875 90.7267,819.17 112.6384,850.7966 C123.5943,866.6099 133.7994,879.9343 141.4083,889.4683 C143.3105,891.8518 145.0505,893.9984 146.5993,895.8878 " fill="none" id="audio1-backto-csv1" style="stroke:#181818;stroke-width:1.0;"/><polygon fill="#181818" points="20.1871,452.374,16,461.2885,20.0827,457.3729,23.9983,461.4556,20.1871,452.374" style="stroke:#181818;stroke-width:1.0;"/><text fill="#000000" font-family="sans-serif" font-size="13" lengthAdjust="spacing" textLength="84" x="53.6562" y="642.0269">annotationOf</text></g><!--reverse link pdf1 to csv1--><g id="link_pdf1_csv1"><path d="M154.6562,720.8013 C154.6562,721.7578 154.6562,722.7185 154.6562,723.6831 C154.6562,739.1163 154.6562,755.5443 154.6562,771.9721 C154.6562,776.0791 154.6562,780.186 154.6562,784.2774 C154.6562,784.5331 154.6562,784.7887 154.6562,785.0443 " fill="none" id="pdf1-backto-csv1" style="stroke:#181818;stroke-width:1.0;"/><polygon fill="#181818" points="154.6562,720.8013,150.6562,729.8013,154.6562,725.8013,158.6562,729.8013,154.6562,720.8013" style="stroke:#181818;stroke-width:1.0;"/><text fill="#000000" font-family="sans-serif" font-size="13" lengthAdjust="spacing" textLength="81" x="155.6562" y="757.5269">derivedFrom</text></g><!--reverse link s1 to c1--><g id="link_s1_c1"><path d="M301.6302,138.46 C321.9947,138.46 346.2902,138.46 366.1723,138.46 C376.1134,138.46 384.9511,138.46 391.6424,138.46 C393.3152,138.46 394.8539,138.46 396.2422,138.46 C396.3289,138.46 396.4151,138.46 396.5007,138.46 " fill="none" id="s1-backto-c1" style="stroke:#181818;stroke-width:1.0;"/><polygon fill="#181818" points="296.2462,138.46,305.2462,142.46,301.2462,138.46,305.2462,134.46,296.2462,138.46" style="stroke:#181818;stroke-width:1.0;"/><text fill="#000000" font-family="sans-serif" font-size="13" lengthAdjust="spacing" textLength="72" x="314.2262" y="131.5269">interviewer</text></g><!--link c1 to s2--><g id="link_c1_s2"><path d="M410.9642,58.4077 C411.0378,58.2667 411.112,58.1261 411.1867,57.9857 C411.3361,57.7051 411.4877,57.4257 411.6413,57.1477 C412.2561,56.0357 412.9054,54.9454 413.5908,53.8798 C416.3323,49.6174 419.652,45.7493 423.6562,42.46 C466.2412,7.48 622.7032,17.145 671.6562,42.46 C693.5822,53.799 709.9622,75.828 721.1452,95.927 " fill="none" id="c1-to-s2" style="stroke:#181818;stroke-width:1.0;"/><polygon fill="#181818" points="723.5932,100.448,722.8244,90.6292,721.212,96.0514,715.7898,94.439,723.5932,100.448" style="stroke:#181818;stroke-width:1.0;"/><text fill="#000000" font-family="sans-serif" font-size="13" lengthAdjust="spacing" textLength="75" x="503.1562" y="30.5269">interviewee</text></g><!--link c1 to proobj--><g id="link_c1_proobj"><path d="M410.9642,58.4077 C411.0378,58.2667 411.112,58.1261 411.1867,57.9857 C411.3361,57.7051 411.4877,57.4257 411.6413,57.1477 C412.2561,56.0357 412.9054,54.9454 413.5908,53.8798 C416.3323,49.6174 419.652,45.7493 423.6562,42.46 C468.0442,6 890.3092,14.8 940.6562,42.46 C968.7702,57.906 985.7672,92.404 994.4362,115.556 " fill="none" id="c1-to-proobj" style="stroke:#181818;stroke-width:1.0;"/><polygon fill="#181818" points="996.1562,120.313,996.8485,110.4885,994.4517,115.6125,989.3277,113.2157,996.1562,120.313" style="stroke:#181818;stroke-width:1.0;"/><text fill="#000000" font-family="sans-serif" font-size="13" lengthAdjust="spacing" textLength="77" x="781.1562" y="30.5269">conformsTo</text></g><!--SRC=[lPD1Rzim38Nl_XM4Tzc0UaLopA5OaIB3JWdQO9Uj1rMcOtMsQ52oKsFOVnybEucDOZdkI3xo-NsIhBGdXlIfGVKB6HOfA0TkaQXvVpdqbqd2gBsoXmeXVTncQrOUOSTK6EbyzALna9DkQxJ-Kmg_f-CVrbHLKXgoqQrXqjAPZMnVNgKwoVJocloPVN9DjaDswcoY5_AH11AO37tnVOCh-F683JaZ7FrW-vn28dwJoVisDmGRoHxDL2Y38S3Cp-JY5WW_7rNt_DEUFX0MRuJUr8hxFRvvqMhALMLyBx8S7kfIUfhgkhL6nzXVqN9O_cOzScVmA0ECZbhMk1zyvuue-xcnXmrnhRp8CURjMnR21AGvq-vXSo5gyk8gZ-ZlUEwj9H-ZYgJEnPXjpyewpQOP1oQyM_Ob7LWrPV-UwG7PT9Z_YybB_pQa6MBxU5Epct_wVi7IhhkA9VeLh1kOX_clZ26QN9h0oTFDSZhQx6wufXMKokqK-oI9TTOs8erlSWMNbDjYkdiUE6rFj7XE4oMKLsql0sEaV43QCDL3uWeBBx8BeZazOUIeiJcKKLpEH8pY7Oo_z0eqsK8EnUtfBm00]--></g></svg>