<?xml version="1.0" encoding="UTF-8" standalone="no"?><svg xmlns="http://www.w3.org/2000/svg" xmlns:xlink="http://www.w3.org/1999/xlink" contentStyleType="text/css" height="378px" preserveAspectRatio="none" style="width:832px;height:378px;background:#FFFFFF;" version="1.1" viewBox="0 0 832 378" width="832px" zoomAndPan="magnify"><defs/><g><!--cluster a1--><g id="cluster_a1"><rect fill="none" height="113" rx="2.5" ry="2.5" style="stroke:#181818;stroke-width:1.0;" width="229" x="597" y="152.5"/><text fill="#000000" font-family="sans-serif" font-size="14" font-weight="bold" lengthAdjust="spacing" textLength="154" x="634.5" y="167.4951">CreateActionSpeak</text></g><!--cluster a2--><g id="cluster_a2"><rect fill="none" height="113" rx="2.5" ry="2.5" style="stroke:#181818;stroke-width:1.0;" width="229" x="328" y="152.5"/><text fill="#000000" font-family="sans-serif" font-size="14" font-weight="bold" lengthAdjust="spacing" textLength="173" x="356" y="167.4951">UpdateActionDeposit</text></g><!--cluster a3--><g id="cluster_a3"><rect fill="none" height="113" rx="2.5" ry="2.5" style="stroke:#181818;stroke-width:1.0;" width="229" x="59" y="152.5"/><text fill="#000000" font-family="sans-serif" font-size="14" font-weight="bold" lengthAdjust="spacing" textLength="162" x="92.5" y="167.4951">CreateActionRecord</text></g><!--entity w--><g id="elem_w"><rect fill="#F1F1F1" height="36.2969" rx="2.5" ry="2.5" style="stroke:#181818;stroke-width:0.5;" width="58" x="307" y="336.5"/><text fill="#000000" font-family="sans-serif" font-size="14" lengthAdjust="spacing" textLength="38" x="317" y="359.4951">Work</text></g><!--entity date: 2022-01-02--><g id="elem_date: 2022-01-02"><rect fill="#F1F1F1" height="46.2969" rx="2.5" ry="2.5" style="stroke:#181818;stroke-width:0.5;" width="162" x="640" y="195.5"/><rect fill="#F1F1F1" height="10" style="stroke:#181818;stroke-width:0.5;" width="15" x="782" y="200.5"/><rect fill="#F1F1F1" height="2" style="stroke:#181818;stroke-width:0.5;" width="4" x="780" y="202.5"/><rect fill="#F1F1F1" height="2" style="stroke:#181818;stroke-width:0.5;" width="4" x="780" y="206.5"/><text fill="#000000" font-family="sans-serif" font-size="14" lengthAdjust="spacing" textLength="122" x="655" y="228.4951">date: 2022-01-02</text></g><!--entity date: 2022-02-02--><g id="elem_date: 2022-02-02"><rect fill="#F1F1F1" height="46.2969" rx="2.5" ry="2.5" style="stroke:#181818;stroke-width:0.5;" width="161" x="371.5" y="195.5"/><rect fill="#F1F1F1" height="10" style="stroke:#181818;stroke-width:0.5;" width="15" x="512.5" y="200.5"/><rect fill="#F1F1F1" height="2" style="stroke:#181818;stroke-width:0.5;" width="4" x="510.5" y="202.5"/><rect fill="#F1F1F1" height="2" style="stroke:#181818;stroke-width:0.5;" width="4" x="510.5" y="206.5"/><text fill="#000000" font-family="sans-serif" font-size="14" lengthAdjust="spacing" textLength="121" x="386.5" y="228.4951">date: 2022-02-02</text></g><!--entity di--><g id="elem_di"><rect fill="#F1F1F1" height="46.2969" rx="2.5" ry="2.5" style="stroke:#181818;stroke-width:0.5;" width="161" x="102.5" y="195.5"/><rect fill="#F1F1F1" height="10" style="stroke:#181818;stroke-width:0.5;" width="15" x="243.5" y="200.5"/><rect fill="#F1F1F1" height="2" style="stroke:#181818;stroke-width:0.5;" width="4" x="241.5" y="202.5"/><rect fill="#F1F1F1" height="2" style="stroke:#181818;stroke-width:0.5;" width="4" x="241.5" y="206.5"/><text fill="#000000" font-family="sans-serif" font-size="14" lengthAdjust="spacing" textLength="121" x="117.5" y="228.4951">date: 2022-02-02</text></g><!--entity cam--><g id="elem_cam"><rect fill="#F1F1F1" height="36.2969" rx="2.5" ry="2.5" style="stroke:#181818;stroke-width:0.5;" width="120" x="7" y="336.5"/><text fill="#000000" font-family="sans-serif" font-size="14" lengthAdjust="spacing" textLength="100" x="17" y="359.4951">Video Camera</text></g><!--entity c1--><g id="elem_c1"><ellipse cx="605" cy="14" fill="#F1F1F1" rx="8" ry="8" style="stroke:#181818;stroke-width:0.5;"/><path d="M605,22 L605,49 M592,30 L618,30 M605,49 L592,64 M605,49 L618,64 " fill="none" style="stroke:#181818;stroke-width:0.5;"/><text fill="#000000" font-family="sans-serif" font-size="14" lengthAdjust="spacing" textLength="98" x="556" y="78.4951">Contributor 1</text></g><!--entity c2--><g id="elem_c2"><ellipse cx="178" cy="14" fill="#F1F1F1" rx="8" ry="8" style="stroke:#181818;stroke-width:0.5;"/><path d="M178,22 L178,49 M165,30 L191,30 M178,49 L165,64 M178,49 L191,64 " fill="none" style="stroke:#181818;stroke-width:0.5;"/><text fill="#000000" font-family="sans-serif" font-size="14" lengthAdjust="spacing" textLength="97" x="127.5" y="78.4951">Contributor 2</text></g><!--link a1 to w--><g id="link_a1_w"><path d="M596.8467,231.8008 C596.79,231.8812 596.733,231.9619 596.6758,232.0429 C596.4468,232.3668 596.2136,232.6952 595.9763,233.0279 C595.5016,233.6933 595.0104,234.3758 594.5031,235.0738 C592.4739,237.8657 590.1879,240.9042 587.6788,244.0778 C577.642,256.772 564.0335,271.627 549,281.5 C492.292,318.7412 414.407,338.6018 370.238,347.5163 " fill="none" id="a1-to-w" style="stroke:#181818;stroke-width:1.0;"/><polygon fill="#181818" points="365.284,348.4985,374.8903,350.671,370.1884,347.5257,373.3337,342.8238,365.284,348.4985" style="stroke:#181818;stroke-width:1.0;"/><text fill="#000000" font-family="sans-serif" font-size="13" lengthAdjust="spacing" textLength="36" x="534" y="302.5669">result</text></g><!--reverse link c1 to a1--><g id="link_c1_a1"><path d="M605,86.703 C605,99.2992 605,113.6119 605,128.0347 C605,135.246 605,142.4849 605,149.5505 C605,150.4337 605,151.3142 605,152.1916 " fill="none" id="c1-backto-a1" style="stroke:#181818;stroke-width:1.0;"/><polygon fill="#181818" points="605,81.613,601,90.613,605,86.613,609,90.613,605,81.613" style="stroke:#181818;stroke-width:1.0;"/><text fill="#000000" font-family="sans-serif" font-size="13" lengthAdjust="spacing" textLength="37" x="606" y="124.5669">agent</text></g><!--link a2 to w--><g id="link_a2_w"><path d="M336,265.7944 C336,266.1577 336,266.5218 336,266.8868 C336,268.3468 336,269.8204 336,271.3044 C336,274.2726 336,277.2828 336,280.31 C336,286.3643 336,292.4866 336,298.477 C336,310.4576 336,321.9101 336,331.2343 " fill="none" id="a2-to-w" style="stroke:#181818;stroke-width:1.0;"/><polygon fill="#181818" points="336,336.4778,340,327.4778,336,331.4778,332,327.4778,336,336.4778" style="stroke:#181818;stroke-width:1.0;"/><text fill="#000000" font-family="sans-serif" font-size="13" lengthAdjust="spacing" textLength="36" x="337" y="302.5669">result</text></g><!--reverse link c2 to a2--><g id="link_c2_a2"><path d="M227.48,84.999 C244.921,100.316 264.122,118.43 280,136.5 C293.9925,152.425 307.5685,171.9268 317.8485,187.804 C320.4185,191.7733 322.7825,195.5161 324.8955,198.9198 C325.952,200.6217 326.9458,202.2388 327.8712,203.7571 " fill="none" id="c2-backto-a2" style="stroke:#181818;stroke-width:1.0;"/><polygon fill="#181818" points="223.555,81.573,227.7045,90.5051,227.3217,84.8612,232.9656,84.4784,223.555,81.573" style="stroke:#181818;stroke-width:1.0;"/><text fill="#000000" font-family="sans-serif" font-size="13" lengthAdjust="spacing" textLength="37" x="274" y="124.5669">agent</text></g><!--link a3 to w--><g id="link_a3_w"><path d="M74.5503,265.7899 C74.7333,266.1888 74.9207,266.5854 75.1123,266.9798 C75.4957,267.7684 75.8966,268.5476 76.3157,269.3154 C77.1539,270.851 78.0652,272.3411 79.0558,273.7707 C81.0369,276.6298 83.335,279.2466 86,281.5 C96.4397,290.3275 133.684,286.4038 147,289.5 C202.382,302.3771 264.439,325.0498 301.846,339.6643 " fill="none" id="a3-to-w" style="stroke:#181818;stroke-width:1.0;"/><polygon fill="#181818" points="306.733,341.5824,299.8171,334.5702,302.0788,339.7553,296.8937,342.017,306.733,341.5824" style="stroke:#181818;stroke-width:1.0;"/><text fill="#000000" font-family="sans-serif" font-size="13" lengthAdjust="spacing" textLength="36" x="207" y="302.5669">result</text></g><!--reverse link c2 to a3--><g id="link_c2_a3"><path d="M127.408,85.244 C112.08,99.924 96.5324,117.577 86,136.5 C83.8223,140.4125 81.8934,144.5652 80.185,148.8426 C79.7579,149.9119 79.3446,150.989 78.9446,152.0721 C78.8946,152.2075 78.8448,152.343 78.7952,152.4786 " fill="none" id="c2-backto-a3" style="stroke:#181818;stroke-width:1.0;"/><polygon fill="#181818" points="131.297,81.577,122.005,84.8417,127.6594,85.0074,127.4937,90.6619,131.297,81.577" style="stroke:#181818;stroke-width:1.0;"/><text fill="#000000" font-family="sans-serif" font-size="13" lengthAdjust="spacing" textLength="37" x="103" y="124.5669">agent</text></g><!--link a3 to cam--><g id="link_a3_cam"><path d="M67,265.7944 C67,266.1577 67,266.5218 67,266.8868 C67,268.3468 67,269.8204 67,271.3044 C67,274.2726 67,277.2828 67,280.31 C67,286.3643 67,292.4866 67,298.477 C67,310.4576 67,321.9101 67,331.2343 " fill="none" id="a3-to-cam" style="stroke:#181818;stroke-width:1.0;"/><polygon fill="#181818" points="67,336.4778,71,327.4778,67,331.4778,63,327.4778,67,336.4778" style="stroke:#181818;stroke-width:1.0;"/><text fill="#000000" font-family="sans-serif" font-size="13" lengthAdjust="spacing" textLength="70" x="68" y="302.5669">instrument</text></g><!--SRC=[TP31QiCm38RlVWgHUo1MRZaCIlO46zqEOmVL5iMiiOEYqCFOky-fQHksz2Zzdtxzah1JYiSJG_MUvAi2ck0CtyRy64DEaq3LfwWI3lDIs0lWx9Q6K4GqHkwklJ0fxvo655z7fhA2RDu101y-YnrWWrWtjcxmSrcy6j-F_ZR-p6EQWXO3t330gy6Z02_ialXYq3uoM5GV_kHu2vuJz3ImK3cJXlAcV4hjqpdMJ_bn7GXFyqaltNdCFMTpauuSDJyKDr6yehX2sqsq_O-ko2LJ1o5EAlEGjLy0]--></g></svg>