<?xml version="1.0" encoding="UTF-8" standalone="no"?><svg xmlns="http://www.w3.org/2000/svg" xmlns:xlink="http://www.w3.org/1999/xlink" contentStyleType="text/css" height="476px" preserveAspectRatio="none" style="width:727px;height:476px;background:#FFFFFF;" version="1.1" viewBox="0 0 727 476" width="727px" zoomAndPan="magnify"><defs/><g><text fill="#000000" font-family="sans-serif" font-size="14" font-weight="bold" lengthAdjust="spacing" textLength="375" x="169" y="22.9951">Self contained corpus crate with all resources</text><!--cluster ROCrate: My Corpus--><g id="cluster_ROCrate: My Corpus"><path d="M8.5,43.2969 L171.5,43.2969 A3.75,3.75 0 0 1 174,45.7969 L181,65.5938 L717.5,65.5938 A2.5,2.5 0 0 1 720,68.0938 L720,466.7969 A2.5,2.5 0 0 1 717.5,469.2969 L8.5,469.2969 A2.5,2.5 0 0 1 6,466.7969 L6,45.7969 A2.5,2.5 0 0 1 8.5,43.2969 " fill="none" style="stroke:#000000;stroke-width:1.5;"/><line style="stroke:#000000;stroke-width:1.5;" x1="6" x2="181" y1="65.5938" y2="65.5938"/><text fill="#000000" font-family="sans-serif" font-size="14" font-weight="bold" lengthAdjust="spacing" textLength="162" x="10" y="58.292">ROCrate: My Corpus</text></g><!--entity a1--><g id="elem_a1"><rect fill="#F1F1F1" height="36.2969" rx="2.5" ry="2.5" style="stroke:#181818;stroke-width:0.5;" width="220" x="105" y="417.2969"/><text fill="#000000" font-family="sans-serif" font-size="14" lengthAdjust="spacing" textLength="200" x="115" y="440.292">File, Audio:  files/audio1.wav</text></g><!--entity csv1--><g id="elem_csv1"><rect fill="#F1F1F1" height="36.2969" rx="2.5" ry="2.5" style="stroke:#181818;stroke-width:0.5;" width="343" x="360.5" y="417.2969"/><text fill="#000000" font-family="sans-serif" font-size="14" lengthAdjust="spacing" textLength="323" x="370.5" y="440.292">File, OthographicTranscription: files/csv1.csv</text></g><!--entity files--><g id="elem_files"><rect fill="#F1F1F1" height="36.2969" rx="2.5" ry="2.5" style="stroke:#181818;stroke-width:0.5;" width="116" x="588" y="304.2969"/><text fill="#000000" font-family="sans-serif" font-size="14" lengthAdjust="spacing" textLength="96" x="598" y="327.292">Dataset: files</text></g><!--entity cc--><g id="elem_cc"><rect fill="#F1F1F1" height="36.2969" rx="2.5" ry="2.5" style="stroke:#181818;stroke-width:0.5;" width="251" x="408.5" y="78.2969"/><text fill="#000000" font-family="sans-serif" font-size="14" lengthAdjust="spacing" textLength="231" x="418.5" y="101.292">RepositoryCollection: MyCorpus</text></g><!--entity o1--><g id="elem_o1"><rect fill="#F1F1F1" height="36.2969" rx="2.5" ry="2.5" style="stroke:#181818;stroke-width:0.5;" width="248" x="305" y="304.2969"/><text fill="#000000" font-family="sans-serif" font-size="14" lengthAdjust="spacing" textLength="228" x="315" y="327.292">RepositoryObject, Dialogue: #1</text></g><!--entity o2--><g id="elem_o2"><rect fill="#F1F1F1" height="36.2969" rx="2.5" ry="2.5" style="stroke:#181818;stroke-width:0.5;" width="247" x="22.5" y="304.2969"/><text fill="#000000" font-family="sans-serif" font-size="14" lengthAdjust="spacing" textLength="227" x="32.5" y="327.292">RepositoryObject, Dialogue: #2</text></g><!--entity c2--><g id="elem_c2"><rect fill="#F1F1F1" height="36.2969" rx="2.5" ry="2.5" style="stroke:#181818;stroke-width:0.5;" width="268" x="295" y="191.2969"/><text fill="#000000" font-family="sans-serif" font-size="14" lengthAdjust="spacing" textLength="248" x="305" y="214.292">RepositoryCollection: Collection A</text></g><!--link cc to c2--><g id="link_cc_c2"><path d="M517.594,114.6409 C499.024,134.2719 468.776,166.2479 448.88,187.2809 " fill="none" id="cc-to-c2" style="stroke:#181818;stroke-width:1.0;"/><polygon fill="#181818" points="445.291,191.0749,454.382,187.2862,448.7273,187.4428,448.5707,181.7881,445.291,191.0749" style="stroke:#181818;stroke-width:1.0;"/><text fill="#000000" font-family="sans-serif" font-size="13" lengthAdjust="spacing" textLength="75" x="488" y="157.3638">hasMember</text></g><!--link c2 to o1--><g id="link_c2_o1"><path d="M429,227.6409 C429,246.8649 429,277.9269 429,298.9579 " fill="none" id="c2-to-o1" style="stroke:#181818;stroke-width:1.0;"/><polygon fill="#181818" points="429,304.0749,433,295.0749,429,299.0749,425,295.0749,429,304.0749" style="stroke:#181818;stroke-width:1.0;"/><text fill="#000000" font-family="sans-serif" font-size="13" lengthAdjust="spacing" textLength="75" x="430" y="270.3638">hasMember</text></g><!--link c2 to o2--><g id="link_c2_o2"><path d="M385.401,227.3969 C333.779,247.6449 248.057,281.2679 194.415,302.3069 " fill="none" id="c2-to-o2" style="stroke:#181818;stroke-width:1.0;"/><polygon fill="#181818" points="189.648,304.1769,199.4871,304.6141,194.3027,302.351,196.5658,297.1665,189.648,304.1769" style="stroke:#181818;stroke-width:1.0;"/><text fill="#000000" font-family="sans-serif" font-size="13" lengthAdjust="spacing" textLength="75" x="306" y="270.3638">hasMember</text></g><!--link o1 to a1--><g id="link_o1_a1"><path d="M396.031,340.3969 C357.388,360.4419 293.475,393.5924 252.843,414.6683 " fill="none" id="o1-to-a1" style="stroke:#181818;stroke-width:1.0;"/><polygon fill="#181818" points="248.006,417.177,257.8371,416.5851,252.4448,414.8754,254.1545,409.4831,248.006,417.177" style="stroke:#181818;stroke-width:1.0;"/><text fill="#000000" font-family="sans-serif" font-size="13" lengthAdjust="spacing" textLength="49" x="335" y="383.3638">hasPart</text></g><!--link o1 to csv1--><g id="link_o1_csv1"><path d="M430.208,340.4269 C431.976,354.3469 436.321,373.8159 447,387.2969 C456.046,398.716 468.666,407.7805 481.418,414.7791 " fill="none" id="o1-to-csv1" style="stroke:#181818;stroke-width:1.0;"/><polygon fill="#181818" points="486.116,417.2646,480.0318,409.5197,481.6966,414.9261,476.2902,416.5908,486.116,417.2646" style="stroke:#181818;stroke-width:1.0;"/><text fill="#000000" font-family="sans-serif" font-size="13" lengthAdjust="spacing" textLength="49" x="448" y="383.3638">hasPart</text></g><!--link cc to files--><g id="link_cc_files"><path d="M550.068,114.7139 C557.376,123.2139 565.763,133.8439 572,144.2969 C603.23,196.6389 627.625,264.5959 638.998,299.0959 " fill="none" id="cc-to-files" style="stroke:#181818;stroke-width:1.0;"/><polygon fill="#181818" points="640.581,303.9379,641.5855,294.1404,639.0269,299.1855,633.9817,296.627,640.581,303.9379" style="stroke:#181818;stroke-width:1.0;"/><text fill="#000000" font-family="sans-serif" font-size="13" lengthAdjust="spacing" textLength="49" x="612" y="213.8638">hasPart</text></g><!--link files to csv1--><g id="link_files_csv1"><path d="M635.89,340.5599 C627.39,354.1949 614.354,373.2049 600,387.2969 C589.785,397.3256 577.206,406.6748 565.657,414.3514 " fill="none" id="files-to-csv1" style="stroke:#181818;stroke-width:1.0;"/><polygon fill="#181818" points="561.455,417.1021,571.1759,415.5194,565.6384,414.3636,566.7942,408.826,561.455,417.1021" style="stroke:#181818;stroke-width:1.0;"/><text fill="#000000" font-family="sans-serif" font-size="13" lengthAdjust="spacing" textLength="49" x="615" y="383.3638">hasPart</text></g><!--link files to a1--><g id="link_files_a1"><path d="M607.999,340.3269 C566.272,359.0059 504.761,386.4723 502,387.2969 C470.233,396.786 395.529,408.9083 330.302,418.4649 " fill="none" id="files-to-a1" style="stroke:#181818;stroke-width:1.0;"/><polygon fill="#181818" points="325.224,419.2065,334.7077,421.8633,330.1715,418.4836,333.5512,413.9473,325.224,419.2065" style="stroke:#181818;stroke-width:1.0;"/><text fill="#000000" font-family="sans-serif" font-size="13" lengthAdjust="spacing" textLength="49" x="539" y="383.3638">hasPart</text></g><!--SRC=[dP31Ri8m38RlUGgBNO6f77kOX8fsGvsslO19GnkM9LMIKg69Tv-JK8sM8KsxHBR__xDZU-cLoE5Dg3rmeprABIgARDivu1QzW5xw1b0fiCAPpdBXM8ly0si1izUo29uSjYSe8ZI3BmP0NkvHrofuH6kSzCQU2gCKrQNH0HZyI8CuKG4xtsNBtO7ASzX8LARkQEH35bcJ_OTT9NPrXtsMIinXtLNIv01xojmZXYnRzdYCB6Q_CgLlJ6snRIH_jwWTjx9D6wSkt1sp9JrfRqecNJReqGb_iKTNZ1XZVxhhJmphD6Eq8rrwKPbUBvw2a4E3RYi-Ty962vK6bSvwhKx4MvJyWueNz0MjdqXXuIkHJRuKDnt3gNI7lz5ntFty3G00]--></g></svg>