<?xml version="1.0" encoding="UTF-8" standalone="no"?><svg xmlns="http://www.w3.org/2000/svg" xmlns:xlink="http://www.w3.org/1999/xlink" contentStyleType="text/css" height="437px" preserveAspectRatio="none" style="width:735px;height:437px;background:#FFFFFF;" version="1.1" viewBox="0 0 735 437" width="735px" zoomAndPan="magnify"><defs/><g><rect fill="none" height="26.2969" id="_title" style="stroke:none;stroke-width:1.0;" width="155" x="283" y="5"/><text fill="#000000" font-family="sans-serif" font-size="14" font-weight="bold" lengthAdjust="spacing" textLength="145" x="288" y="22.9951">Data Publications</text><!--MD5=[9ac95a62b6bea9fd5cbb09176a2aa23f]
cluster git--><g id="cluster_git"><path d="M8.5,43.2969 L192.5,43.2969 A3.75,3.75 0 0 1 195,45.7969 L202,65.5938 L725.5,65.5938 A2.5,2.5 0 0 1 728,68.0938 L728,427.7969 A2.5,2.5 0 0 1 725.5,430.2969 L8.5,430.2969 A2.5,2.5 0 0 1 6,427.7969 L6,45.7969 A2.5,2.5 0 0 1 8.5,43.2969 " fill="none" style="stroke:#000000;stroke-width:1.5;"/><line style="stroke:#000000;stroke-width:1.5;" x1="6" x2="202" y1="65.5938" y2="65.5938"/><text fill="#000000" font-family="sans-serif" font-size="14" font-weight="bold" lengthAdjust="spacing" textLength="183" x="10" y="58.292">Git Service (eg github)</text></g><!--MD5=[334049d3a1ffeab5811ce8957a01f1ef]
cluster repo--><g id="cluster_repo"><path d="M32.5,86.2969 L261.5,86.2969 A3.75,3.75 0 0 1 264,88.7969 L271,108.5938 L701.5,108.5938 A2.5,2.5 0 0 1 704,111.0938 L704,403.7969 A2.5,2.5 0 0 1 701.5,406.2969 L32.5,406.2969 A2.5,2.5 0 0 1 30,403.7969 L30,88.7969 A2.5,2.5 0 0 1 32.5,86.2969 " fill="none" style="stroke:#000000;stroke-width:1.5;"/><line style="stroke:#000000;stroke-width:1.5;" x1="30" x2="271" y1="108.5938" y2="108.5938"/><text fill="#000000" font-family="sans-serif" font-size="14" font-weight="bold" lengthAdjust="spacing" textLength="228" x="34" y="101.292">Study or Method Repository</text></g><!--MD5=[2bc939c7bbf98dfa0cc238fa8b52edd6]
cluster RO-Crate Metadata--><g id="cluster_RO-Crate Metadata"><path d="M309.5,129.2969 L467.5,129.2969 A3.75,3.75 0 0 1 470,131.7969 L477,151.5938 L677.5,151.5938 A2.5,2.5 0 0 1 680,154.0938 L680,379.7969 A2.5,2.5 0 0 1 677.5,382.2969 L309.5,382.2969 A2.5,2.5 0 0 1 307,379.7969 L307,131.7969 A2.5,2.5 0 0 1 309.5,129.2969 " fill="none" style="stroke:#000000;stroke-width:1.5;"/><line style="stroke:#000000;stroke-width:1.5;" x1="307" x2="477" y1="151.5938" y2="151.5938"/><text fill="#000000" font-family="sans-serif" font-size="14" font-weight="bold" lengthAdjust="spacing" textLength="157" x="311" y="144.292">RO-Crate Metadata</text></g><!--MD5=[628470a0d9fd4a9911a0d4e4fbc08e5d]
cluster name: My Thesis Data\nauthor: https://orcid.org/12345\n--><g id="cluster_name: My Thesis Data\nauthor: https://orcid.org/12345\n"><rect fill="none" height="186" rx="2.5" ry="2.5" style="stroke:#181818;stroke-width:1.0;" width="325" x="331" y="172.2969"/><text fill="#000000" font-family="sans-serif" font-size="14" font-weight="bold" lengthAdjust="spacing" textLength="180" x="403.5" y="187.292">name: My Thesis Data</text><text fill="#000000" font-family="sans-serif" font-size="14" font-weight="bold" lengthAdjust="spacing" textLength="255" x="366" y="203.5889">author: https://orcid.org/12345</text><text fill="#000000" font-family="sans-serif" font-size="14" font-weight="bold" lengthAdjust="spacing" textLength="5" x="491" y="219.8857"> </text></g><!--MD5=[915be166d76636fdfdbf0a60418ed655]
cluster hasPart--><g id="cluster_hasPart"><rect fill="none" height="87" rx="2.5" ry="2.5" style="stroke:#181818;stroke-width:1.0;" width="277" x="355" y="247.2969"/><text fill="#000000" font-family="sans-serif" font-size="14" font-weight="bold" lengthAdjust="spacing" textLength="64" x="461.5" y="262.292">hasPart</text></g><!--MD5=[75ddc6848be21b643a280b5e2ff61c5a]
entity Notebook 1--><g id="elem_Notebook 1"><rect fill="#F1F1F1" height="36.2969" rx="2.5" ry="2.5" style="stroke:#181818;stroke-width:0.5;" width="105" x="510.5" y="282.2969"/><text fill="#000000" font-family="sans-serif" font-size="14" lengthAdjust="spacing" textLength="85" x="520.5" y="305.292">Notebook 1</text></g><!--MD5=[da1ea819abf5d50e6543551d1ce16cad]
entity Notebook 2--><g id="elem_Notebook 2"><rect fill="#F1F1F1" height="36.2969" rx="2.5" ry="2.5" style="stroke:#181818;stroke-width:0.5;" width="104" x="371" y="282.2969"/><text fill="#000000" font-family="sans-serif" font-size="14" lengthAdjust="spacing" textLength="84" x="381" y="305.292">Notebook 2</text></g><path d="M188,273.7969 L274,273.7969 A3.75,3.75 0 0 1 276.5,276.2969 L283.5,296.0938 L288,296.0938 A2.5,2.5 0 0 1 290.5,298.5938 L290.5,323.8906 A2.5,2.5 0 0 1 288,326.3906 L188,326.3906 A2.5,2.5 0 0 1 185.5,323.8906 L185.5,276.2969 A2.5,2.5 0 0 1 188,273.7969 " fill="#F1F1F1" style="stroke:#181818;stroke-width:0.5;"/><line style="stroke:#181818;stroke-width:0.5;" x1="185.5" x2="283.5" y1="296.0938" y2="296.0938"/><text fill="#000000" font-family="sans-serif" font-size="14" lengthAdjust="spacing" textLength="85" x="189.5" y="288.792">Notebook 1</text><path d="M48.5,273.7969 L133.5,273.7969 A3.75,3.75 0 0 1 136,276.2969 L143,296.0938 L147.5,296.0938 A2.5,2.5 0 0 1 150,298.5938 L150,323.8906 A2.5,2.5 0 0 1 147.5,326.3906 L48.5,326.3906 A2.5,2.5 0 0 1 46,323.8906 L46,276.2969 A2.5,2.5 0 0 1 48.5,273.7969 " fill="#F1F1F1" style="stroke:#181818;stroke-width:0.5;"/><line style="stroke:#181818;stroke-width:0.5;" x1="46" x2="143" y1="296.0938" y2="296.0938"/><text fill="#000000" font-family="sans-serif" font-size="14" lengthAdjust="spacing" textLength="84" x="50" y="288.792">Notebook 2</text><!--MD5=[3a7140daecdbbf65704ac6808fe50774]
@startuml
title: Data Publications

package "Git Service (eg github)" as git {
   package "Study or Method Repository" as repo {
   package "RO-Crate Metadata" {
      rectangle "name: My Thesis Data\nauthor: https://orcid.org/12345\n" {
         rectangle "hasPart" {
            rectangle "Notebook 1" {

            }
            rectangle "Notebook 2" {
               
            }
         }


      }

   }
   package "Notebook 1" as n1 {

   }
   package "Notebook 2" as n2 {
      
   }
   
   }

   
}
@enduml

PlantUML version 1.2022.8beta6(Unknown compile time)
(GPL source distribution)
Java Runtime: Java(TM) SE Runtime Environment
JVM: Java HotSpot(TM) 64-Bit Server VM
Default Encoding: UTF-8
Language: en
Country: US
--></g></svg>