<?xml version="1.0" encoding="UTF-8" standalone="no"?><svg xmlns="http://www.w3.org/2000/svg" xmlns:xlink="http://www.w3.org/1999/xlink" contentStyleType="text/css" height="883px" preserveAspectRatio="none" style="width:1494px;height:883px;background:#FFFFFF;" version="1.1" viewBox="0 0 1494 883" width="1494px" zoomAndPan="magnify"><defs/><g><rect fill="none" height="26.2969" id="_title" style="stroke:none;stroke-width:1.0;" width="728" x="384.5" y="10"/><text fill="#000000" font-family="sans-serif" font-size="14" font-weight="bold" lengthAdjust="spacing" textLength="718" x="389.5" y="27.9951">A sketch of POTENTIAL authorization and authentication required by FAIR principle A1.2</text><line style="stroke:#181818;stroke-width:0.5;stroke-dasharray:5.0,5.0;" x1="59" x2="59" y1="123.25" y2="798.4063"/><line style="stroke:#181818;stroke-width:0.5;stroke-dasharray:5.0,5.0;" x1="584" x2="584" y1="123.25" y2="798.4063"/><line style="stroke:#181818;stroke-width:0.5;stroke-dasharray:5.0,5.0;" x1="1031" x2="1031" y1="123.25" y2="798.4063"/><line style="stroke:#181818;stroke-width:0.5;stroke-dasharray:5.0,5.0;" x1="1278" x2="1278" y1="123.25" y2="798.4063"/><line style="stroke:#181818;stroke-width:0.5;stroke-dasharray:5.0,5.0;" x1="1457" x2="1457" y1="123.25" y2="798.4063"/><text fill="#000000" font-family="sans-serif" font-size="18" lengthAdjust="spacing" textLength="103" x="5" y="119.0049">researcher</text><ellipse cx="59.5" cy="50.7969" fill="#E2E2F0" rx="8" ry="8" style="stroke:#181818;stroke-width:0.5;"/><path d="M59.5,58.7969 L59.5,85.7969 M46.5,66.7969 L72.5,66.7969 M59.5,85.7969 L46.5,100.7969 M59.5,85.7969 L72.5,100.7969 " fill="none" style="stroke:#181818;stroke-width:0.5;"/><text fill="#000000" font-family="sans-serif" font-size="18" lengthAdjust="spacing" textLength="103" x="5" y="814.1143">researcher</text><ellipse cx="59.5" cy="826.8594" fill="#E2E2F0" rx="8" ry="8" style="stroke:#181818;stroke-width:0.5;"/><path d="M59.5,834.8594 L59.5,861.8594 M46.5,842.8594 L72.5,842.8594 M59.5,861.8594 L46.5,876.8594 M59.5,861.8594 L72.5,876.8594 " fill="none" style="stroke:#181818;stroke-width:0.5;"/><text fill="#000000" font-family="sans-serif" font-size="18" lengthAdjust="spacing" textLength="97" x="533" y="119.0049">repository</text><ellipse cx="584.5" cy="86.2969" fill="#E2E2F0" rx="12" ry="12" style="stroke:#181818;stroke-width:0.5;"/><line style="stroke:#181818;stroke-width:0.5;" x1="572.5" x2="596.5" y1="100.2969" y2="100.2969"/><text fill="#000000" font-family="sans-serif" font-size="18" lengthAdjust="spacing" textLength="97" x="533" y="814.1143">repository</text><ellipse cx="584.5" cy="834.3594" fill="#E2E2F0" rx="12" ry="12" style="stroke:#181818;stroke-width:0.5;"/><line style="stroke:#181818;stroke-width:0.5;" x1="572.5" x2="596.5" y1="848.3594" y2="848.3594"/><text fill="#000000" font-family="sans-serif" font-size="18" lengthAdjust="spacing" textLength="201" x="928" y="119.0049">Group Licence Server</text><ellipse cx="1031.5" cy="86.2969" fill="#E2E2F0" rx="12" ry="12" style="stroke:#181818;stroke-width:0.5;"/><line style="stroke:#181818;stroke-width:0.5;" x1="1019.5" x2="1043.5" y1="100.2969" y2="100.2969"/><text fill="#000000" font-family="sans-serif" font-size="18" lengthAdjust="spacing" textLength="201" x="928" y="814.1143">Group Licence Server</text><ellipse cx="1031.5" cy="834.3594" fill="#E2E2F0" rx="12" ry="12" style="stroke:#181818;stroke-width:0.5;"/><line style="stroke:#181818;stroke-width:0.5;" x1="1019.5" x2="1043.5" y1="848.3594" y2="848.3594"/><text fill="#000000" font-family="sans-serif" font-size="18" lengthAdjust="spacing" textLength="261" x="1145" y="119.0049">https://doi.org/x/some-crate</text><ellipse cx="1278.5" cy="86.2969" fill="#E2E2F0" rx="12" ry="12" style="stroke:#181818;stroke-width:0.5;"/><line style="stroke:#181818;stroke-width:0.5;" x1="1266.5" x2="1290.5" y1="100.2969" y2="100.2969"/><text fill="#000000" font-family="sans-serif" font-size="18" lengthAdjust="spacing" textLength="261" x="1145" y="814.1143">https://doi.org/x/some-crate</text><ellipse cx="1278.5" cy="834.3594" fill="#E2E2F0" rx="12" ry="12" style="stroke:#181818;stroke-width:0.5;"/><line style="stroke:#181818;stroke-width:0.5;" x1="1266.5" x2="1290.5" y1="848.3594" y2="848.3594"/><text fill="#000000" font-family="sans-serif" font-size="18" lengthAdjust="spacing" textLength="65" x="1422" y="119.0049">groups</text><path d="M1439.5,66.2969 C1439.5,56.2969 1457.5,56.2969 1457.5,56.2969 C1457.5,56.2969 1475.5,56.2969 1475.5,66.2969 L1475.5,92.2969 C1475.5,102.2969 1457.5,102.2969 1457.5,102.2969 C1457.5,102.2969 1439.5,102.2969 1439.5,92.2969 L1439.5,66.2969 " fill="#E2E2F0" style="stroke:#181818;stroke-width:1.5;"/><path d="M1439.5,66.2969 C1439.5,76.2969 1457.5,76.2969 1457.5,76.2969 C1457.5,76.2969 1475.5,76.2969 1475.5,66.2969 " fill="none" style="stroke:#181818;stroke-width:1.5;"/><text fill="#000000" font-family="sans-serif" font-size="18" lengthAdjust="spacing" textLength="65" x="1422" y="814.1143">groups</text><path d="M1439.5,828.3594 C1439.5,818.3594 1457.5,818.3594 1457.5,818.3594 C1457.5,818.3594 1475.5,818.3594 1475.5,828.3594 L1475.5,854.3594 C1475.5,864.3594 1457.5,864.3594 1457.5,864.3594 C1457.5,864.3594 1439.5,864.3594 1439.5,854.3594 L1439.5,828.3594 " fill="#E2E2F0" style="stroke:#181818;stroke-width:1.5;"/><path d="M1439.5,828.3594 C1439.5,838.3594 1457.5,838.3594 1457.5,838.3594 C1457.5,838.3594 1475.5,838.3594 1475.5,828.3594 " fill="none" style="stroke:#181818;stroke-width:1.5;"/><polygon fill="#181818" points="572.5,156.2031,582.5,160.2031,572.5,164.2031,576.5,160.2031" style="stroke:#181818;stroke-width:1.0;"/><line style="stroke:#181818;stroke-width:1.0;" x1="59.5" x2="578.5" y1="160.2031" y2="160.2031"/><text fill="#000000" font-family="sans-serif" font-size="18" lengthAdjust="spacing" textLength="373" x="66.5" y="153.958">Can I have https://doi.org/x/some-crate?</text><polygon fill="#181818" points="1266.5,191.1563,1276.5,195.1563,1266.5,199.1563,1270.5,195.1563" style="stroke:#181818;stroke-width:1.0;"/><line style="stroke:#181818;stroke-width:1.0;" x1="584.5" x2="1272.5" y1="195.1563" y2="195.1563"/><text fill="#000000" font-family="sans-serif" font-size="18" lengthAdjust="spacing" textLength="192" x="591.5" y="188.9111">What's your licence?</text><polygon fill="#181818" points="595.5,226.1094,585.5,230.1094,595.5,234.1094,591.5,230.1094" style="stroke:#181818;stroke-width:1.0;"/><line style="stroke:#181818;stroke-width:1.0;" x1="589.5" x2="1277.5" y1="230.1094" y2="230.1094"/><text fill="#000000" font-family="sans-serif" font-size="18" lengthAdjust="spacing" textLength="382" x="601.5" y="223.8643">Accessible to ppl who agree to SS licence</text><line style="stroke:#181818;stroke-width:1.0;" x1="584.5" x2="626.5" y1="265.0625" y2="265.0625"/><line style="stroke:#181818;stroke-width:1.0;" x1="626.5" x2="626.5" y1="265.0625" y2="278.0625"/><line style="stroke:#181818;stroke-width:1.0;" x1="585.5" x2="626.5" y1="278.0625" y2="278.0625"/><polygon fill="#181818" points="595.5,274.0625,585.5,278.0625,595.5,282.0625,591.5,278.0625" style="stroke:#181818;stroke-width:1.0;"/><text fill="#000000" font-family="sans-serif" font-size="18" lengthAdjust="spacing" textLength="361" x="591.5" y="258.8174">Is that URL on the list of trusted sites?</text><line style="stroke:#181818;stroke-width:1.0;" x1="584.5" x2="626.5" y1="313.0156" y2="313.0156"/><line style="stroke:#181818;stroke-width:1.0;" x1="626.5" x2="626.5" y1="313.0156" y2="326.0156"/><line style="stroke:#181818;stroke-width:1.0;" x1="585.5" x2="626.5" y1="326.0156" y2="326.0156"/><polygon fill="#181818" points="595.5,322.0156,585.5,326.0156,595.5,330.0156,591.5,326.0156" style="stroke:#181818;stroke-width:1.0;"/><text fill="#000000" font-family="sans-serif" font-size="18" lengthAdjust="spacing" textLength="34" x="591.5" y="306.7705">Yep</text><polygon fill="#181818" points="70.5,356.9688,60.5,360.9688,70.5,364.9688,66.5,360.9688" style="stroke:#181818;stroke-width:1.0;"/><line style="stroke:#181818;stroke-width:1.0;" x1="64.5" x2="583.5" y1="360.9688" y2="360.9688"/><text fill="#000000" font-family="sans-serif" font-size="18" lengthAdjust="spacing" textLength="501" x="76.5" y="354.7236">Authenticate yourself to the the group-licence-server</text><polygon fill="#181818" points="1019.5,391.9219,1029.5,395.9219,1019.5,399.9219,1023.5,395.9219" style="stroke:#181818;stroke-width:1.0;"/><line style="stroke:#181818;stroke-width:1.0;" x1="59.5" x2="1025.5" y1="395.9219" y2="395.9219"/><text fill="#000000" font-family="sans-serif" font-size="18" lengthAdjust="spacing" textLength="65" x="66.5" y="389.6768">Logs in</text><polygon fill="#181818" points="1445.5,426.875,1455.5,430.875,1445.5,434.875,1449.5,430.875" style="stroke:#181818;stroke-width:1.0;"/><line style="stroke:#181818;stroke-width:1.0;" x1="1031.5" x2="1451.5" y1="430.875" y2="430.875"/><text fill="#000000" font-family="sans-serif" font-size="18" lengthAdjust="spacing" textLength="104" x="1038.5" y="424.6299">User in SS?</text><polygon fill="#181818" points="1042.5,461.8281,1032.5,465.8281,1042.5,469.8281,1038.5,465.8281" style="stroke:#181818;stroke-width:1.0;"/><line style="stroke:#181818;stroke-width:1.0;" x1="1036.5" x2="1456.5" y1="465.8281" y2="465.8281"/><text fill="#000000" font-family="sans-serif" font-size="18" lengthAdjust="spacing" textLength="48" x="1048.5" y="459.583">Nope</text><polygon fill="#181818" points="70.5,496.7813,60.5,500.7813,70.5,504.7813,66.5,500.7813" style="stroke:#181818;stroke-width:1.0;"/><line style="stroke:#181818;stroke-width:1.0;" x1="64.5" x2="1030.5" y1="500.7813" y2="500.7813"/><text fill="#000000" font-family="sans-serif" font-size="18" lengthAdjust="spacing" textLength="376" x="76.5" y="494.5361">Do you agree to these SS license terms?</text><polygon fill="#181818" points="1019.5,531.7344,1029.5,535.7344,1019.5,539.7344,1023.5,535.7344" style="stroke:#181818;stroke-width:1.0;"/><line style="stroke:#181818;stroke-width:1.0;" x1="59.5" x2="1025.5" y1="535.7344" y2="535.7344"/><text fill="#000000" font-family="sans-serif" font-size="18" lengthAdjust="spacing" textLength="34" x="66.5" y="529.4893">Yep</text><polygon fill="#181818" points="1445.5,566.6875,1455.5,570.6875,1445.5,574.6875,1449.5,570.6875" style="stroke:#181818;stroke-width:1.0;"/><line style="stroke:#181818;stroke-width:1.0;" x1="1031.5" x2="1451.5" y1="570.6875" y2="570.6875"/><text fill="#000000" font-family="sans-serif" font-size="18" lengthAdjust="spacing" textLength="401" x="1038.5" y="564.4424">Add user to SS license group (TTL 100days)</text><polygon fill="#181818" points="70.5,601.6406,60.5,605.6406,70.5,609.6406,66.5,605.6406" style="stroke:#181818;stroke-width:1.0;"/><line style="stroke:#181818;stroke-width:1.0;" x1="64.5" x2="1030.5" y1="605.6406" y2="605.6406"/><text fill="#000000" font-family="sans-serif" font-size="18" lengthAdjust="spacing" textLength="948" x="76.5" y="599.3955">(To web browser) Here's a token for your browser that will let the repo get your group-memberships</text><polygon fill="#181818" points="572.5,636.5938,582.5,640.5938,572.5,644.5938,576.5,640.5938" style="stroke:#181818;stroke-width:1.0;"/><line style="stroke:#181818;stroke-width:1.0;" x1="59.5" x2="578.5" y1="640.5938" y2="640.5938"/><text fill="#000000" font-family="sans-serif" font-size="18" lengthAdjust="spacing" textLength="266" x="66.5" y="634.3486">(via browser) Here's a token</text><polygon fill="#181818" points="1019.5,671.5469,1029.5,675.5469,1019.5,679.5469,1023.5,675.5469" style="stroke:#181818;stroke-width:1.0;"/><line style="stroke:#181818;stroke-width:1.0;" x1="584.5" x2="1025.5" y1="675.5469" y2="675.5469"/><text fill="#000000" font-family="sans-serif" font-size="18" lengthAdjust="spacing" textLength="156" x="591.5" y="669.3018">I have this token</text><polygon fill="#181818" points="595.5,706.5,585.5,710.5,595.5,714.5,591.5,710.5" style="stroke:#181818;stroke-width:1.0;"/><line style="stroke:#181818;stroke-width:1.0;" x1="589.5" x2="1030.5" y1="710.5" y2="710.5"/><text fill="#000000" font-family="sans-serif" font-size="18" lengthAdjust="spacing" textLength="34" x="601.5" y="704.2549">yep</text><polygon fill="#181818" points="1266.5,741.4531,1276.5,745.4531,1266.5,749.4531,1270.5,745.4531" style="stroke:#181818;stroke-width:1.0;"/><line style="stroke:#181818;stroke-width:1.0;" x1="584.5" x2="1272.5" y1="745.4531" y2="745.4531"/><text fill="#000000" font-family="sans-serif" font-size="18" lengthAdjust="spacing" textLength="48" x="591.5" y="739.208">fetch</text><polygon fill="#181818" points="70.5,776.4063,60.5,780.4063,70.5,784.4063,66.5,780.4063" style="stroke:#181818;stroke-width:1.0;"/><line style="stroke:#181818;stroke-width:1.0;" x1="64.5" x2="583.5" y1="780.4063" y2="780.4063"/><text fill="#000000" font-family="sans-serif" font-size="18" lengthAdjust="spacing" textLength="188" x="76.5" y="774.1611">Here's the RO-Crate</text><!--MD5=[fc1610ef7607b5ca4ce07cd96bd8a63c]
@startuml
skinparam defaultFontSize 18

title: A sketch of POTENTIAL authorization and authentication required by FAIR principle A1.2 
actor       researcher     as res
entity    repository    as rep
entity    "Group Licence Server"    as gls
entity "https://doi.org/x/some-crate" as c
database "groups" as gps
res -> rep : Can I have https://doi.org/x/some-crate?
rep -> c : What's your licence?
c -> rep : Accessible to ppl who agree to SS licence
rep -> rep : Is that URL on the list of trusted sites?
rep -> rep : Yep
rep -> res : Authenticate yourself to the the group-licence-server
res -> gls : Logs in 
gls-> gps : User in SS?
gps -> gls : Nope
gls -> res : Do you agree to these SS license terms?
res -> gls : Yep
gls -> gps : Add user to SS license group (TTL 100days)
gls -> res : (To web browser) Here's a token for your browser that will let the repo get your group-memberships
res -> rep : (via browser) Here's a token
rep -> gls : I have this token
gls -> rep : yep
rep -> c : fetch
rep -> res : Here's the RO-Crate
@enduml

PlantUML version 1.2022.8beta6(Unknown compile time)
(GPL source distribution)
Java Runtime: Java(TM) SE Runtime Environment
JVM: Java HotSpot(TM) 64-Bit Server VM
Default Encoding: UTF-8
Language: en
Country: US
--></g></svg>