<?xml version="1.0" encoding="UTF-8" standalone="no"?><svg xmlns="http://www.w3.org/2000/svg" xmlns:xlink="http://www.w3.org/1999/xlink" contentStyleType="text/css" height="329px" preserveAspectRatio="none" style="width:621px;height:329px;background:#FFFFFF;" version="1.1" viewBox="0 0 621 329" width="621px" zoomAndPan="magnify"><defs/><g><rect fill="none" height="26.2969" id="_title" style="stroke:none;stroke-width:1.0;" width="224" x="191.5" y="5"/><text fill="#000000" font-family="sans-serif" font-size="14" font-weight="bold" lengthAdjust="spacing" textLength="214" x="196.5" y="22.9951">Step 2 - Adding scalability</text><!--MD5=[49922c1fb65fec7366eab94c7b2714c5]
cluster Workbench--><g id="cluster_Workbench"><rect fill="none" height="87" rx="2.5" ry="2.5" style="stroke:#181818;stroke-width:1.0;" width="138" x="7" y="44.2969"/><text fill="#000000" font-family="sans-serif" font-size="14" font-weight="bold" lengthAdjust="spacing" textLength="89" x="31.5" y="59.292">Workbench</text></g><!--MD5=[d5b38d4b24307be98c9c362692fbd4b9]
cluster Webserver--><g id="cluster_Webserver"><rect fill="none" height="279" rx="2.5" ry="2.5" style="stroke:#181818;stroke-width:1.0;" width="414" x="201" y="44.2969"/><text fill="#000000" font-family="sans-serif" font-size="14" font-weight="bold" lengthAdjust="spacing" textLength="84" x="366" y="59.292">Webserver</text></g><!--MD5=[1cf1c7b1a9e849733b508c86811a28ab]
cluster ocfl--><g id="cluster_ocfl"><rect fill="none" height="103" rx="2.5" ry="2.5" style="stroke:#181818;stroke-width:1.0;" width="350" x="233" y="188.2969"/><text fill="#000000" font-family="sans-serif" font-size="14" font-weight="bold" lengthAdjust="spacing" textLength="85" x="365.5" y="203.292">OCFL Repo</text></g><!--MD5=[945bb76cb2232b12ba90c731e52d4c9b]
entity w1--><g id="elem_w1"><rect fill="#F1F1F1" height="36.2969" rx="2.5" ry="2.5" style="stroke:#181818;stroke-width:0.5;" width="105" x="23.5" y="79.2969"/><text fill="#000000" font-family="sans-serif" font-size="14" lengthAdjust="spacing" textLength="85" x="33.5" y="102.292">Notebook 1</text></g><!--MD5=[bf1b4add2ee2e1b53e65912b20fb7ef4]
entity ui--><g id="elem_ui"><rect fill="#F1F1F1" height="36.2969" rx="2.5" ry="2.5" style="stroke:#181818;stroke-width:0.5;" width="183" x="251.5" y="79.2969"/><text fill="#000000" font-family="sans-serif" font-size="14" lengthAdjust="spacing" textLength="163" x="261.5" y="102.292">Simple OCFL front end</text></g><!--MD5=[0aac872f208ab6f5f7887aae079fb447]
entity c1--><g id="elem_c1"><rect fill="#F1F1F1" height="36.2969" rx="2.5" ry="2.5" style="stroke:#181818;stroke-width:0.5;" width="124" x="435" y="231.2969"/><text fill="#000000" font-family="sans-serif" font-size="14" lengthAdjust="spacing" textLength="104" x="445" y="254.292">Crate 1 (open)</text></g><!--MD5=[3d2111c8a0a2d14b8769ddc11704380e]
entity c2--><g id="elem_c2"><rect fill="#F1F1F1" height="36.2969" rx="2.5" ry="2.5" style="stroke:#181818;stroke-width:0.5;" width="123" x="276.5" y="231.2969"/><text fill="#000000" font-family="sans-serif" font-size="14" lengthAdjust="spacing" textLength="103" x="286.5" y="254.292">Crate 2 (open)</text></g><!--MD5=[98f97cb98d137c1acb51471d008056fb]
link w1 to ui--><g id="link_w1_ui"><path d="M128.751,97.2969 C162.203,97.2969 206.492,97.2969 246.116,97.2969 " fill="none" id="w1-to-ui" style="stroke:#181818;stroke-width:1.0;"/><polygon fill="#181818" points="251.423,97.2969,242.423,93.2969,246.423,97.2969,242.423,101.2969,251.423,97.2969" style="stroke:#181818;stroke-width:1.0;"/><text fill="#000000" font-family="sans-serif" font-size="13" lengthAdjust="spacing" textLength="86" x="147" y="90.3638">Fetch Crate 1</text></g><!--MD5=[e0d6be031015ca7c2c6d334e9bf46695]
link ui to ocfl--><g id="link_ui_ocfl"><path d="M311.903,118.8269 C294.181,132.0779 272.984,150.8229 260,172.2969 C257.8185,175.9048 255.8867,179.7533 254.1762,183.7313 C253.7485,184.7258 253.3347,185.7284 252.9343,186.7373 C252.7341,187.2418 252.5372,187.7479 252.3436,188.2553 " fill="none" id="ui-ocfl" style="stroke:#181818;stroke-width:1.0;"/><polygon fill="#181818" points="252.3436,188.2553,259.2888,181.2721,254.1258,183.5837,251.8142,178.4207,252.3436,188.2553" style="stroke:#181818;stroke-width:1.0;"/><polygon fill="#181818" points="316.327,115.5779,306.7055,117.6818,312.2972,118.5377,311.4412,124.1294,316.327,115.5779" style="stroke:#181818;stroke-width:1.0;"/><text fill="#000000" font-family="sans-serif" font-size="13" lengthAdjust="spacing" textLength="86" x="280" y="160.3638">Fetch Crate 1</text></g><!--MD5=[0614fa7133e84beda1155e4e6e7f1550]
link ui to c1--><g id="link_ui_c1"><path d="M360.666,115.5039 C389.211,143.3079 445.362,198.0009 475.941,227.7849 " fill="none" id="ui-to-c1" style="stroke:#181818;stroke-width:1.0;"/><polygon fill="#181818" points="479.54,231.2909,475.8841,222.1457,475.9584,227.8021,470.302,227.8763,479.54,231.2909" style="stroke:#181818;stroke-width:1.0;"/><text fill="#000000" font-family="sans-serif" font-size="13" lengthAdjust="spacing" textLength="35" x="407" y="160.3638">Fetch</text></g><!--MD5=[41dfb8110cc9d419a95e8cc83bd16028]
@startuml
Title: Step 2 - Adding scalability
rectangle Workbench {
rectangle "Notebook 1" as w1 {
}
}


rectangle Webserver {
rectangle "Simple OCFL front end" as ui {

}

rectangle "OCFL Repo" as ocfl {



rectangle "Crate 1 (open)" as c1 {
}
rectangle "Crate 2 (open)" as c2 {
}
}



}

w1 -> ui : Fetch Crate 1
ui <-> ocfl : Fetch Crate 1
ui - -> c1 : Fetch
@enduml

PlantUML version 1.2022.8beta8(Unknown compile time)
(GPL source distribution)
Java Runtime: Java(TM) SE Runtime Environment
JVM: Java HotSpot(TM) 64-Bit Server VM
Default Encoding: UTF-8
Language: en
Country: US
--></g></svg>