<?xml version="1.0" encoding="UTF-8" standalone="no"?><svg xmlns="http://www.w3.org/2000/svg" xmlns:xlink="http://www.w3.org/1999/xlink" contentStyleType="text/css" height="669px" preserveAspectRatio="none" style="width:718px;height:669px;background:#FFFFFF;" version="1.1" viewBox="0 0 718 669" width="718px" zoomAndPan="magnify"><defs/><g><rect fill="none" height="26.2969" id="_title" style="stroke:none;stroke-width:1.0;" width="160" x="272.25" y="5"/><text fill="#000000" font-family="sans-serif" font-size="14" font-weight="bold" lengthAdjust="spacing" textLength="150" x="277.25" y="22.9951">ATAP Architecture</text><!--MD5=[86844113ad714c69d9470a2dc95dc2a8]
cluster atap--><g id="cluster_atap"><rect fill="none" height="96" rx="2.5" ry="2.5" style="stroke:#181818;stroke-width:1.0;" width="322" x="7" y="191.7969"/><text fill="#000000" font-family="sans-serif" font-size="18" font-weight="bold" lengthAdjust="spacing" textLength="249" x="43.5" y="210.5049">Text Analytics Platform</text></g><!--MD5=[ec0ce55baad344de3025d2ffee8adffc]
entity n1--><g id="elem_n1"><rect fill="#F1F1F1" height="40.9531" rx="2.5" ry="2.5" style="stroke:#181818;stroke-width:0.5;" width="127" x="185.5" y="230.7969"/><text fill="#000000" font-family="sans-serif" font-size="18" lengthAdjust="spacing" textLength="107" x="195.5" y="257.5049">Notebook 1</text></g><!--MD5=[2e097bb411287f6ed1a33ac9cb2c3661]
entity n2--><g id="elem_n2"><rect fill="#F1F1F1" height="40.9531" rx="2.5" ry="2.5" style="stroke:#181818;stroke-width:0.5;" width="127" x="23.5" y="230.7969"/><text fill="#000000" font-family="sans-serif" font-size="18" lengthAdjust="spacing" textLength="107" x="33.5" y="257.5049">Notebook 1</text></g><!--MD5=[ae38f3df50bbf8acf027574e6a8bac37]
entity repo--><g id="elem_repo"><path d="M162,612.7969 C162,602.7969 249,602.7969 249,602.7969 C249,602.7969 336,602.7969 336,612.7969 L336,642.75 C336,652.75 249,652.75 249,652.75 C249,652.75 162,652.75 162,642.75 L162,612.7969 " fill="#F1F1F1" style="stroke:#181818;stroke-width:0.5;"/><path d="M162,612.7969 C162,622.7969 249,622.7969 249,622.7969 C249,622.7969 336,622.7969 336,612.7969 " fill="none" style="stroke:#181818;stroke-width:0.5;"/><text fill="#000000" font-family="sans-serif" font-size="18" lengthAdjust="spacing" textLength="154" x="172" y="643.5049">OCFL Repository</text></g><!--MD5=[eaab342c5300046f6bb20eaa7b6a6a16]
entity oni--><g id="elem_oni"><rect fill="#F1F1F1" height="40.9531" rx="2.5" ry="2.5" style="stroke:#181818;stroke-width:0.5;" width="48" x="225" y="355.7969"/><text fill="#000000" font-family="sans-serif" font-size="18" lengthAdjust="spacing" textLength="28" x="235" y="382.5049">API</text></g><!--MD5=[1c5ba14a582780a0070707c3598231a5]
entity ac--><g id="elem_ac"><rect fill="#F1F1F1" height="40.9531" rx="2.5" ry="2.5" style="stroke:#181818;stroke-width:0.5;" width="155" x="557.5" y="355.7969"/><text fill="#000000" font-family="sans-serif" font-size="18" lengthAdjust="spacing" textLength="135" x="567.5" y="382.5049">Access control</text></g><!--MD5=[13667c3cc77eef8b4369a09bdfceffb1]
entity researcher--><g id="elem_researcher"><ellipse cx="249" cy="51.2969" fill="#F1F1F1" rx="8" ry="8" style="stroke:#181818;stroke-width:0.5;"/><path d="M249,59.2969 L249,86.2969 M236,67.2969 L262,67.2969 M249,86.2969 L236,101.2969 M249,86.2969 L262,101.2969 " fill="none" style="stroke:#181818;stroke-width:0.5;"/><text fill="#000000" font-family="sans-serif" font-size="18" lengthAdjust="spacing" textLength="103" x="197.5" y="119.5049">researcher</text></g><!--MD5=[a32a2c51f42559b8f58a9314de6302fc]
link researcher to n1--><g id="link_researcher_n1"><path d="M249,124.0579 C249,155.5309 249,198.5119 249,225.3239 " fill="none" id="researcher-to-n1" style="stroke:#181818;stroke-width:1.0;"/><polygon fill="#181818" points="249,230.4629,253,221.4629,249,225.4629,245,221.4629,249,230.4629" style="stroke:#181818;stroke-width:1.0;"/><text fill="#000000" font-family="sans-serif" font-size="18" lengthAdjust="spacing" textLength="130" x="250" y="171.5049">Use Notebook</text></g><!--MD5=[429ef1941ba1f61b7b9a2b70a9c33f65]
link n1 to oni--><g id="link_n1_oni"><path d="M212.722,271.8079 C198.749,279.3159 182.636,287.9639 168,295.7969 C161.338,299.3619 156.887,297.3179 153,303.7969 C147.969,312.1809 147.911,317.4479 153,325.7969 C167.426,349.4659 197.2,362.3049 219.788,368.9299 " fill="none" id="n1-to-oni" style="stroke:#181818;stroke-width:1.0;"/><polygon fill="#181818" points="224.78,370.3279,217.1925,364.0485,219.9653,368.9792,215.0346,371.752,224.78,370.3279" style="stroke:#181818;stroke-width:1.0;"/><text fill="#000000" font-family="sans-serif" font-size="18" lengthAdjust="spacing" textLength="145" x="154" y="321.5049">Fetch Metadata</text></g><!--MD5=[429ef1941ba1f61b7b9a2b70a9c33f65]
link n1 to oni--><g id="link_n1_oni"><path d="M278.42,272.0039 C288.496,280.4759 298.588,291.3149 304,303.7969 C312.787,324.0629 295.196,343.7019 277.625,357.2529 " fill="none" id="n1-to-oni-1" style="stroke:#181818;stroke-width:1.0;"/><polygon fill="#181818" points="273.175,360.5639,282.7835,358.4012,277.1866,357.5794,278.0084,351.9826,273.175,360.5639" style="stroke:#181818;stroke-width:1.0;"/><text fill="#000000" font-family="sans-serif" font-size="18" lengthAdjust="spacing" textLength="182" x="308" y="321.5049">Fetch data streams</text></g><!--MD5=[e8ef89c804737912502380e4d6d700f4]
link oni to ac--><g id="link_oni_ac"><path d="M273.146,376.2969 C327.843,376.2969 463.332,376.2969 552.11,376.2969 " fill="none" id="oni-to-ac" style="stroke:#181818;stroke-width:1.0;"/><polygon fill="#181818" points="557.359,376.2969,548.359,372.2969,552.359,376.2969,548.359,380.2969,557.359,376.2969" style="stroke:#181818;stroke-width:1.0;"/><text fill="#000000" font-family="sans-serif" font-size="18" lengthAdjust="spacing" textLength="248" x="291.25" y="369.0049">Authenticate each request</text></g><!--MD5=[ad602d8490489333d31a5c32504d6d48]
reverse link oni to repo--><g id="link_oni_repo"><path d="M220.176,389.4739 C185.044,406.0919 127.356,439.5489 103,488.7969 C78.802,537.7239 138.753,578.404 189.011,602.6348 " fill="none" id="oni-backto-repo" style="stroke:#181818;stroke-width:1.0;"/><polygon fill="#181818" points="224.766,387.3369,214.9186,387.5074,220.2328,389.4464,218.2938,394.7605,224.766,387.3369" style="stroke:#181818;stroke-width:1.0;"/><text fill="#000000" font-family="sans-serif" font-size="18" lengthAdjust="spacing" textLength="245" x="104" y="506.5049">Index  (w/ access licenses)</text></g><!--MD5=[1fafda5eb12195af5c89f3cabba07985]
link oni to repo--><g id="link_oni_repo"><path d="M273.276,390.6609 C310.046,412.8439 373.616,459.8949 354,510.7969 C340.185,546.6459 309.586,578.2901 284.965,599.4334 " fill="none" id="oni-to-repo" style="stroke:#181818;stroke-width:1.0;"/><polygon fill="#181818" points="281.068,602.7356,290.5201,599.9682,284.8824,599.5029,285.3477,593.8652,281.068,602.7356" style="stroke:#181818;stroke-width:1.0;"/><text fill="#000000" font-family="sans-serif" font-size="18" lengthAdjust="spacing" textLength="52" x="358" y="506.5049">Fetch</text></g><!--MD5=[8b3daf2f492c68e971e7e2ec5559c295]
@startuml
skinparam defaultFontSize 18
title: ATAP Architecture

rectangle "Text Analytics Platform" as atap {
rectangle "Notebook 1" as n1 {

}

rectangle "Notebook 1" as n2 {
    
}
}
database "OCFL Repository" as repo {


}

rectangle "API" as oni {

}

rectangle "Access control" as ac {

}



actor researcher

researcher -down-> n1 : Use Notebook
n1 -down-> oni : Fetch Metadata 
n1 -down-> oni : Fetch data streams
oni -> ac : Authenticate each request
oni <- -down- - repo : Index  (w/ access licenses)
oni -down-> repo : Fetch
@enduml

PlantUML version 1.2022.8beta9(Unknown compile time)
(GPL source distribution)
Java Runtime: Java(TM) SE Runtime Environment
JVM: Java HotSpot(TM) 64-Bit Server VM
Default Encoding: UTF-8
Language: en
Country: US
--></g></svg>