<?xml version="1.0" encoding="UTF-8" standalone="no"?><svg xmlns="http://www.w3.org/2000/svg" xmlns:xlink="http://www.w3.org/1999/xlink" contentStyleType="text/css" height="484px" preserveAspectRatio="none" style="width:308px;height:484px;background:#FFFFFF;" version="1.1" viewBox="0 0 308 484" width="308px" zoomAndPan="magnify"><defs/><g><text fill="#000000" font-family="sans-serif" font-size="14" font-weight="bold" lengthAdjust="spacing" textLength="148" x="78.5" y="32.9951">LDaCA data triage</text><ellipse cx="137.5" cy="57.2969" fill="#222222" rx="10" ry="10" style="stroke:#222222;stroke-width:1.0;"/><rect fill="#F1F1F1" height="33.9688" rx="12.5" ry="12.5" style="stroke:#181818;stroke-width:0.5;" width="134" x="70.5" y="232.5039"/><text fill="#000000" font-family="sans-serif" font-size="12" lengthAdjust="spacing" textLength="114" x="80.5" y="253.6426">Organize Migration</text><polygon fill="#F1F1F1" points="49,184.1016,226,184.1016,238,196.1016,226,208.1016,49,208.1016,37,196.1016,49,184.1016" style="stroke:#181818;stroke-width:0.5;"/><text fill="#000000" font-family="sans-serif" font-size="11" lengthAdjust="spacing" textLength="21" x="141.5" y="218.312">yes</text><text fill="#000000" font-family="sans-serif" font-size="11" lengthAdjust="spacing" textLength="177" x="49" y="199.9097">Service needs to  be migrated</text><text fill="#000000" font-family="sans-serif" font-size="11" lengthAdjust="spacing" textLength="14" x="238" y="193.5073">no</text><polygon fill="#F1F1F1" points="137.5,286.4727,149.5,298.4727,137.5,310.4727,125.5,298.4727,137.5,286.4727" style="stroke:#181818;stroke-width:0.5;"/><rect fill="#F1F1F1" height="33.9688" rx="12.5" ry="12.5" style="stroke:#181818;stroke-width:0.5;" width="123" x="76" y="330.4727"/><text fill="#000000" font-family="sans-serif" font-size="12" lengthAdjust="spacing" textLength="103" x="86" y="351.6113">Set up Harvester</text><ellipse cx="137.5" cy="395.4414" fill="none" rx="11" ry="11" style="stroke:#222222;stroke-width:1.0;"/><ellipse cx="137.5" cy="395.4414" fill="#222222" rx="6" ry="6" style="stroke:#111111;stroke-width:1.0;"/><polygon fill="#F1F1F1" points="32,135.6992,243,135.6992,255,147.6992,243,159.6992,32,159.6992,20,147.6992,32,135.6992" style="stroke:#181818;stroke-width:0.5;"/><text fill="#000000" font-family="sans-serif" font-size="11" lengthAdjust="spacing" textLength="21" x="141.5" y="169.9097">yes</text><text fill="#000000" font-family="sans-serif" font-size="11" lengthAdjust="spacing" textLength="211" x="32" y="151.5073">Service can be sustainably Managed</text><text fill="#000000" font-family="sans-serif" font-size="11" lengthAdjust="spacing" textLength="14" x="255" y="145.105">no</text><polygon fill="#F1F1F1" points="82,87.2969,193,87.2969,205,99.2969,193,111.2969,82,111.2969,70,99.2969,82,87.2969" style="stroke:#181818;stroke-width:0.5;"/><text fill="#000000" font-family="sans-serif" font-size="11" lengthAdjust="spacing" textLength="21" x="141.5" y="121.5073">yes</text><text fill="#000000" font-family="sans-serif" font-size="11" lengthAdjust="spacing" textLength="111" x="82" y="103.105">Data is in a service</text><polygon fill="#F1F1F1" points="137.5,448.4414,149.5,460.4414,137.5,472.4414,125.5,460.4414,137.5,448.4414" style="stroke:#181818;stroke-width:0.5;"/><line style="stroke:#181818;stroke-width:1.0;" x1="137.5" x2="137.5" y1="208.1016" y2="232.5039"/><polygon fill="#181818" points="133.5,222.5039,137.5,232.5039,141.5,222.5039,137.5,226.5039" style="stroke:#181818;stroke-width:1.0;"/><line style="stroke:#181818;stroke-width:1.0;" x1="238" x2="250" y1="196.1016" y2="196.1016"/><polygon fill="#181818" points="246,239.4883,250,249.4883,254,239.4883,250,243.4883" style="stroke:#181818;stroke-width:1.0;"/><line style="stroke:#181818;stroke-width:1.0;" x1="250" x2="250" y1="196.1016" y2="298.4727"/><line style="stroke:#181818;stroke-width:1.0;" x1="250" x2="149.5" y1="298.4727" y2="298.4727"/><polygon fill="#181818" points="159.5,294.4727,149.5,298.4727,159.5,302.4727,155.5,298.4727" style="stroke:#181818;stroke-width:1.0;"/><line style="stroke:#181818;stroke-width:1.0;" x1="137.5" x2="137.5" y1="266.4727" y2="286.4727"/><polygon fill="#181818" points="133.5,276.4727,137.5,286.4727,141.5,276.4727,137.5,280.4727" style="stroke:#181818;stroke-width:1.0;"/><line style="stroke:#181818;stroke-width:1.0;" x1="137.5" x2="137.5" y1="310.4727" y2="330.4727"/><polygon fill="#181818" points="133.5,320.4727,137.5,330.4727,141.5,320.4727,137.5,324.4727" style="stroke:#181818;stroke-width:1.0;"/><line style="stroke:#181818;stroke-width:1.0;" x1="137.5" x2="137.5" y1="364.4414" y2="384.4414"/><polygon fill="#181818" points="133.5,374.4414,137.5,384.4414,141.5,374.4414,137.5,378.4414" style="stroke:#181818;stroke-width:1.0;"/><line style="stroke:#181818;stroke-width:1.0;" x1="137.5" x2="137.5" y1="159.6992" y2="184.1016"/><polygon fill="#181818" points="133.5,174.1016,137.5,184.1016,141.5,174.1016,137.5,178.1016" style="stroke:#181818;stroke-width:1.0;"/><line style="stroke:#181818;stroke-width:1.0;" x1="255" x2="267" y1="147.6992" y2="147.6992"/><polygon fill="#181818" points="263,295.0703,267,305.0703,271,295.0703,267,299.0703" style="stroke:#181818;stroke-width:1.0;"/><line style="stroke:#181818;stroke-width:1.0;" x1="267" x2="267" y1="147.6992" y2="428.4414"/><line style="stroke:#181818;stroke-width:1.0;" x1="267" x2="137.5" y1="428.4414" y2="428.4414"/><line style="stroke:#181818;stroke-width:1.0;" x1="137.5" x2="137.5" y1="428.4414" y2="448.4414"/><polygon fill="#181818" points="133.5,438.4414,137.5,448.4414,141.5,438.4414,137.5,442.4414" style="stroke:#181818;stroke-width:1.0;"/><line style="stroke:#181818;stroke-width:1.0;" x1="137.5" x2="137.5" y1="111.2969" y2="135.6992"/><polygon fill="#181818" points="133.5,125.6992,137.5,135.6992,141.5,125.6992,137.5,129.6992" style="stroke:#181818;stroke-width:1.0;"/><line style="stroke:#181818;stroke-width:1.0;" x1="205" x2="282" y1="99.2969" y2="99.2969"/><polygon fill="#181818" points="278,289.0703,282,299.0703,286,289.0703,282,293.0703" style="stroke:#181818;stroke-width:1.0;"/><line style="stroke:#181818;stroke-width:1.0;" x1="282" x2="282" y1="99.2969" y2="460.4414"/><line style="stroke:#181818;stroke-width:1.0;" x1="282" x2="149.5" y1="460.4414" y2="460.4414"/><polygon fill="#181818" points="159.5,456.4414,149.5,460.4414,159.5,464.4414,155.5,460.4414" style="stroke:#181818;stroke-width:1.0;"/><line style="stroke:#181818;stroke-width:1.0;" x1="137.5" x2="137.5" y1="67.2969" y2="87.2969"/><polygon fill="#181818" points="133.5,77.2969,137.5,87.2969,141.5,77.2969,137.5,81.2969" style="stroke:#181818;stroke-width:1.0;"/><!--SRC=[ROmx3i9034JxFSMKuGgXGb1G457a12OnmLBmHck31ASd2uW4mLJ-p7iktdE9tORMAxJa14z27GTpIXw2755iybaCeY0Ofwiql82VM57Ss1O10SZ5-lL3Gue3mowZH9GE_GqLwMXjlp5ay9qvhyojmIEovInT8lz5FodtgIELEwDwLYNgSYfmRun2uunXRUKuhMNDZik0BQKhctEQqUPn27yaOMu9p_41]--></g></svg>