<?xml version="1.0" encoding="UTF-8" standalone="no"?><svg xmlns="http://www.w3.org/2000/svg" xmlns:xlink="http://www.w3.org/1999/xlink" contentStyleType="text/css" height="214px" preserveAspectRatio="none" style="width:472px;height:214px;background:#FFFFFF;" version="1.1" viewBox="0 0 472 214" width="472px" zoomAndPan="magnify"><defs/><g><rect fill="none" height="26.2969" id="_title" style="stroke:none;stroke-width:1.0;" width="454" x="5" y="5"/><text fill="#000000" font-family="sans-serif" font-size="14" font-weight="bold" lengthAdjust="spacing" textLength="444" x="10" y="22.9951">Multiple portals serving data from an OCFL Repository</text><!--MD5=[89582973b81c8d740f90880da0655979]
entity portal--><g id="elem_portal"><rect fill="#F1F1F1" height="36.2969" rx="2.5" ry="2.5" style="stroke:#181818;stroke-width:0.5;" width="114" x="58" y="44.2969"/><text fill="#000000" font-family="sans-serif" font-size="14" lengthAdjust="spacing" textLength="94" x="68" y="67.292">LDaCA Portal</text></g><!--MD5=[c50bc4b6eff9eda00d7d448aaf654607]
entity aportal--><g id="elem_aportal"><rect fill="#F1F1F1" height="36.2969" rx="2.5" ry="2.5" style="stroke:#181818;stroke-width:0.5;" width="120" x="260" y="44.2969"/><text fill="#000000" font-family="sans-serif" font-size="14" lengthAdjust="spacing" textLength="100" x="270" y="67.292">Austalk Portal</text></g><!--MD5=[ae38f3df50bbf8acf027574e6a8bac37]
entity repo--><g id="elem_repo"><rect fill="#F1F1F1" height="36.2969" rx="2.5" ry="2.5" style="stroke:#181818;stroke-width:0.5;" width="140" x="147" y="172.2969"/><text fill="#000000" font-family="sans-serif" font-size="14" lengthAdjust="spacing" textLength="120" x="157" y="195.292">OCFL Repository</text></g><!--MD5=[d71e828b5f5ce5c4891462193f3db50e]
link portal to repo--><g id="link_portal_repo"><path d="M107.6931,85.5539 C103.5773,102.4689 101.1775,125.5953 112,142.2969 C119.7384,154.239 131.3028,163.1743 143.9641,169.8516 " fill="none" id="portal-repo" style="stroke:#181818;stroke-width:1.0;"/><polygon fill="#181818" points="148.6733,172.2108,142.4183,164.6032,144.2029,169.9712,138.835,171.7558,148.6733,172.2108" style="stroke:#181818;stroke-width:1.0;"/><polygon fill="#181818" points="109.0127,80.5179,102.8603,88.2086,107.7442,85.3543,110.5985,90.2382,109.0127,80.5179" style="stroke:#181818;stroke-width:1.0;"/><text fill="#000000" font-family="sans-serif" font-size="13" lengthAdjust="spacing" textLength="163" x="113" y="130.8638">Index and serve ALL data</text></g><!--MD5=[20647c6497c196390f8b27490a5aa65b]
link aportal to repo--><g id="link_aportal_repo"><path d="M312.401,85.3899 C305.872,102.2169 295.253,125.3049 281,142.2969 C272.397,152.5533 261.111,161.7915 250.416,169.3082 " fill="none" id="aportal-repo" style="stroke:#181818;stroke-width:1.0;"/><polygon fill="#181818" points="246.196,172.2089,255.8789,170.4086,250.3169,169.3772,251.3483,163.8152,246.196,172.2089" style="stroke:#181818;stroke-width:1.0;"/><polygon fill="#181818" points="314.295,80.3829,307.3685,87.3845,312.5253,85.0592,314.8506,90.216,314.295,80.3829" style="stroke:#181818;stroke-width:1.0;"/><text fill="#000000" font-family="sans-serif" font-size="13" lengthAdjust="spacing" textLength="103" x="308.5" y="123.3638">Index and serve</text><text fill="#000000" font-family="sans-serif" font-size="13" lengthAdjust="spacing" textLength="118" x="301" y="138.4966">Austalk data ONLY</text></g><!--MD5=[538d5b3a0035ff04429a704ddded964a]
@startuml
title: Multiple portals serving data from an OCFL Repository

rectangle "LDaCA Portal" as portal {

}

rectangle "Austalk Portal" as aportal {

}

rectangle "OCFL Repository" as repo {

}

portal <-down-> repo : Index and serve ALL data 
aportal <-down-> repo : Index and serve\nAustalk data ONLY
@enduml

PlantUML version 1.2022.8beta9(Unknown compile time)
(GPL source distribution)
Java Runtime: Java(TM) SE Runtime Environment
JVM: Java HotSpot(TM) 64-Bit Server VM
Default Encoding: UTF-8
Language: en
Country: US
--></g></svg>