<?xml version="1.0" encoding="UTF-8" standalone="no"?><svg xmlns="http://www.w3.org/2000/svg" xmlns:xlink="http://www.w3.org/1999/xlink" contentStyleType="text/css" height="86px" preserveAspectRatio="none" style="width:253px;height:86px;background:#FFFFFF;" version="1.1" viewBox="0 0 253 86" width="253px" zoomAndPan="magnify"><defs/><g><!--MD5=[5b15d04c6eb656314d90c943872e8a65]
entity w--><g id="elem_w"><rect fill="#F1F1F1" height="36.2969" rx="2.5" ry="2.5" style="stroke:#181818;stroke-width:0.5;" width="58" x="7" y="25.5"/><text fill="#000000" font-family="sans-serif" font-size="14" lengthAdjust="spacing" textLength="38" x="17" y="48.4951">Work</text></g><!--MD5=[8e9b2d9d80e066cced8e5d90e9bdea61]
entity c--><g id="elem_c"><ellipse cx="204" cy="14" fill="#F1F1F1" rx="8" ry="8" style="stroke:#181818;stroke-width:0.5;"/><path d="M204,22 L204,49 M191,30 L217,30 M204,49 L191,64 M204,49 L217,64 " fill="none" style="stroke:#181818;stroke-width:0.5;"/><text fill="#000000" font-family="sans-serif" font-size="14" lengthAdjust="spacing" textLength="85" x="161.5" y="78.4951">Contributor</text></g><!--MD5=[b9ffb09f4e7dcc44505832a7e6d73fd9]
link w to c--><g id="link_w_c"><path d="M65.0743,57.5684 C71.4186,60.0269 78.198,62.2082 84.75,63.5 C109.605,68.4003 116.722,67.4218 141.75,63.5 C146.544,62.7488 151.473,61.6907 156.358,60.4492 " fill="none" id="w-to-c" style="stroke:#181818;stroke-width:1.0;"/><polygon fill="#181818" points="161.222,59.1512,151.4951,57.6058,156.3909,60.4398,153.5569,65.3356,161.222,59.1512" style="stroke:#181818;stroke-width:1.0;"/><text fill="#000000" font-family="sans-serif" font-size="13" lengthAdjust="spacing" textLength="55" x="85.75" y="59.5669">compiler</text></g><!--MD5=[b9ffb09f4e7dcc44505832a7e6d73fd9]
link w to c--><g id="link_w_c"><path d="M65.2634,43.5 C90.3244,43.5 126.899,43.5 156.203,43.5 " fill="none" id="w-to-c-1" style="stroke:#181818;stroke-width:1.0;"/><polygon fill="#181818" points="161.213,43.5,152.213,39.5,156.213,43.5,152.213,47.5,161.213,43.5" style="stroke:#181818;stroke-width:1.0;"/><text fill="#000000" font-family="sans-serif" font-size="13" lengthAdjust="spacing" textLength="60" x="83.25" y="36.5669">depositor</text></g><!--MD5=[c716577d0ce0e7ffe8c8b3c331fc1d3f]
@startuml
rectangle "Work" as w {

}

actor "Contributor" as c

w -> c : compiler 
w -> c : depositor
@enduml

PlantUML version 1.2022.8beta6(Unknown compile time)
(GPL source distribution)
Java Runtime: Java(TM) SE Runtime Environment
JVM: Java HotSpot(TM) 64-Bit Server VM
Default Encoding: UTF-8
Language: en
Country: US
--></g></svg>