<?xml version="1.0" encoding="UTF-8" standalone="no"?><svg xmlns="http://www.w3.org/2000/svg" xmlns:xlink="http://www.w3.org/1999/xlink" contentStyleType="text/css" height="1005px" preserveAspectRatio="none" style="width:868px;height:1005px;background:#FFFFFF;" version="1.1" viewBox="0 0 868 1005" width="868px" zoomAndPan="magnify"><defs/><g><rect fill="none" height="26.2969" id="_title" style="stroke:none;stroke-width:1.0;" width="166" x="344" y="5"/><text fill="#000000" font-family="sans-serif" font-size="14" font-weight="bold" lengthAdjust="spacing" textLength="156" x="349" y="22.9951">LDaCA Aggregation</text><!--MD5=[0c4a738b3201a23a254af68352446157]
cluster auth--><g id="cluster_auth"><rect fill="none" height="220" rx="2.5" ry="2.5" style="stroke:#181818;stroke-width:1.0;" width="393" x="7" y="44.2969"/><text fill="#000000" font-family="sans-serif" font-size="14" font-weight="bold" lengthAdjust="spacing" textLength="113" x="147" y="59.292">Authorization</text></g><!--MD5=[790cf33570bffa13edb14ea3041ddd23]
cluster port--><g id="cluster_port"><rect fill="none" height="112" rx="2.5" ry="2.5" style="stroke:#181818;stroke-width:1.0;" width="406" x="391" y="391.2969"/><text fill="#000000" font-family="sans-serif" font-size="14" font-weight="bold" lengthAdjust="spacing" textLength="50" x="569" y="406.292">Portal</text></g><!--MD5=[0db9ec160bc224612e9899d46029c873]
entity AAF--><g id="elem_AAF"><rect fill="#F1F1F1" height="46.2969" rx="2.5" ry="2.5" style="stroke:#181818;stroke-width:0.5;" width="68" x="162" y="87.2969"/><rect fill="#F1F1F1" height="10" style="stroke:#181818;stroke-width:0.5;" width="15" x="210" y="92.2969"/><rect fill="#F1F1F1" height="2" style="stroke:#181818;stroke-width:0.5;" width="4" x="208" y="94.2969"/><rect fill="#F1F1F1" height="2" style="stroke:#181818;stroke-width:0.5;" width="4" x="208" y="98.2969"/><text fill="#000000" font-family="sans-serif" font-size="14" lengthAdjust="spacing" textLength="28" x="177" y="120.292">AAF</text></g><!--MD5=[989097e6dfab97c8886170276168fdd4]
entity Google--><g id="elem_Google"><rect fill="#F1F1F1" height="46.2969" rx="2.5" ry="2.5" style="stroke:#181818;stroke-width:0.5;" width="91" x="265.5" y="87.2969"/><rect fill="#F1F1F1" height="10" style="stroke:#181818;stroke-width:0.5;" width="15" x="336.5" y="92.2969"/><rect fill="#F1F1F1" height="2" style="stroke:#181818;stroke-width:0.5;" width="4" x="334.5" y="94.2969"/><rect fill="#F1F1F1" height="2" style="stroke:#181818;stroke-width:0.5;" width="4" x="334.5" y="98.2969"/><text fill="#000000" font-family="sans-serif" font-size="14" lengthAdjust="spacing" textLength="51" x="280.5" y="120.292">Google</text></g><!--MD5=[7e280c3f70c48d5961513cb2f615199c]
entity lic--><g id="elem_lic"><rect fill="#F1F1F1" height="46.2969" rx="2.5" ry="2.5" style="stroke:#181818;stroke-width:0.5;" width="175" x="108.5" y="194.2969"/><rect fill="#F1F1F1" height="10" style="stroke:#181818;stroke-width:0.5;" width="15" x="263.5" y="199.2969"/><rect fill="#F1F1F1" height="2" style="stroke:#181818;stroke-width:0.5;" width="4" x="261.5" y="201.2969"/><rect fill="#F1F1F1" height="2" style="stroke:#181818;stroke-width:0.5;" width="4" x="261.5" y="205.2969"/><text fill="#000000" font-family="sans-serif" font-size="14" lengthAdjust="spacing" textLength="135" x="123.5" y="227.292">Licence Authorizer</text></g><!--MD5=[ff011c0e4758c4033cf2bcb4b35d5b3d]
entity la--><g id="elem_la"><path d="M31.5,97.7969 C31.5,87.7969 79,87.7969 79,87.7969 C79,87.7969 126.5,87.7969 126.5,97.7969 L126.5,123.0938 C126.5,133.0938 79,133.0938 79,133.0938 C79,133.0938 31.5,133.0938 31.5,123.0938 L31.5,97.7969 " fill="#F1F1F1" style="stroke:#181818;stroke-width:0.5;"/><path d="M31.5,97.7969 C31.5,107.7969 79,107.7969 79,107.7969 C79,107.7969 126.5,107.7969 126.5,97.7969 " fill="none" style="stroke:#181818;stroke-width:0.5;"/><text fill="#000000" font-family="sans-serif" font-size="14" lengthAdjust="spacing" textLength="75" x="41.5" y="124.792">Local Auth</text></g><!--MD5=[5d46dbcc00107d3edb367456503c62e0]
entity repo1--><g id="elem_repo1"><path d="M445,708.2969 C445,698.2969 501,698.2969 501,698.2969 C501,698.2969 557,698.2969 557,708.2969 L557,978.0469 C557,988.0469 501,988.0469 501,988.0469 C501,988.0469 445,988.0469 445,978.0469 L445,708.2969 " fill="#F1F1F1" style="stroke:#181818;stroke-width:0.5;"/><path d="M445,708.2969 C445,718.2969 501,718.2969 501,718.2969 C501,718.2969 557,718.2969 557,708.2969 " fill="none" style="stroke:#181818;stroke-width:0.5;"/><text fill="#000000" font-family="sans-serif" font-size="14" lengthAdjust="spacing" textLength="92" x="455" y="735.292">Repository 1</text><text fill="#000000" font-family="sans-serif" font-size="14" lengthAdjust="spacing" textLength="4" x="455" y="751.5889"> </text><text fill="#000000" font-family="sans-serif" font-size="14" lengthAdjust="spacing" textLength="4" x="455" y="767.8857"> </text><text fill="#000000" font-family="sans-serif" font-size="14" lengthAdjust="spacing" textLength="4" x="455" y="784.1826"> </text><text fill="#000000" font-family="sans-serif" font-size="14" lengthAdjust="spacing" textLength="4" x="455" y="800.4795"> </text><text fill="#000000" font-family="sans-serif" font-size="14" lengthAdjust="spacing" textLength="4" x="455" y="816.7764"> </text><text fill="#000000" font-family="sans-serif" font-size="14" lengthAdjust="spacing" textLength="4" x="455" y="833.0732"> </text><text fill="#000000" font-family="sans-serif" font-size="14" lengthAdjust="spacing" textLength="4" x="455" y="849.3701"> </text><text fill="#000000" font-family="sans-serif" font-size="14" lengthAdjust="spacing" textLength="4" x="455" y="865.667"> </text><text fill="#000000" font-family="sans-serif" font-size="14" lengthAdjust="spacing" textLength="4" x="455" y="881.9639"> </text><text fill="#000000" font-family="sans-serif" font-size="14" lengthAdjust="spacing" textLength="4" x="455" y="898.2607"> </text><text fill="#000000" font-family="sans-serif" font-size="14" lengthAdjust="spacing" textLength="4" x="455" y="914.5576"> </text><text fill="#000000" font-family="sans-serif" font-size="14" lengthAdjust="spacing" textLength="4" x="455" y="930.8545"> </text><text fill="#000000" font-family="sans-serif" font-size="14" lengthAdjust="spacing" textLength="4" x="455" y="947.1514"> </text><text fill="#000000" font-family="sans-serif" font-size="14" lengthAdjust="spacing" textLength="4" x="455" y="963.4482"> </text><text fill="#000000" font-family="sans-serif" font-size="14" lengthAdjust="spacing" textLength="4" x="455" y="979.7451"> </text></g><!--MD5=[7daec57375d54fbd4fdbee41f91c157c]
entity repo2--><g id="elem_repo2"><path d="M592.5,708.2969 C592.5,698.2969 648,698.2969 648,698.2969 C648,698.2969 703.5,698.2969 703.5,708.2969 L703.5,978.0469 C703.5,988.0469 648,988.0469 648,988.0469 C648,988.0469 592.5,988.0469 592.5,978.0469 L592.5,708.2969 " fill="#F1F1F1" style="stroke:#181818;stroke-width:0.5;"/><path d="M592.5,708.2969 C592.5,718.2969 648,718.2969 648,718.2969 C648,718.2969 703.5,718.2969 703.5,708.2969 " fill="none" style="stroke:#181818;stroke-width:0.5;"/><text fill="#000000" font-family="sans-serif" font-size="14" lengthAdjust="spacing" textLength="91" x="602.5" y="735.292">Repository 2</text><text fill="#000000" font-family="sans-serif" font-size="14" lengthAdjust="spacing" textLength="4" x="602.5" y="751.5889"> </text><text fill="#000000" font-family="sans-serif" font-size="14" lengthAdjust="spacing" textLength="4" x="602.5" y="767.8857"> </text><text fill="#000000" font-family="sans-serif" font-size="14" lengthAdjust="spacing" textLength="4" x="602.5" y="784.1826"> </text><text fill="#000000" font-family="sans-serif" font-size="14" lengthAdjust="spacing" textLength="4" x="602.5" y="800.4795"> </text><text fill="#000000" font-family="sans-serif" font-size="14" lengthAdjust="spacing" textLength="4" x="602.5" y="816.7764"> </text><text fill="#000000" font-family="sans-serif" font-size="14" lengthAdjust="spacing" textLength="4" x="602.5" y="833.0732"> </text><text fill="#000000" font-family="sans-serif" font-size="14" lengthAdjust="spacing" textLength="4" x="602.5" y="849.3701"> </text><text fill="#000000" font-family="sans-serif" font-size="14" lengthAdjust="spacing" textLength="4" x="602.5" y="865.667"> </text><text fill="#000000" font-family="sans-serif" font-size="14" lengthAdjust="spacing" textLength="4" x="602.5" y="881.9639"> </text><text fill="#000000" font-family="sans-serif" font-size="14" lengthAdjust="spacing" textLength="4" x="602.5" y="898.2607"> </text><text fill="#000000" font-family="sans-serif" font-size="14" lengthAdjust="spacing" textLength="4" x="602.5" y="914.5576"> </text><text fill="#000000" font-family="sans-serif" font-size="14" lengthAdjust="spacing" textLength="4" x="602.5" y="930.8545"> </text><text fill="#000000" font-family="sans-serif" font-size="14" lengthAdjust="spacing" textLength="4" x="602.5" y="947.1514"> </text><text fill="#000000" font-family="sans-serif" font-size="14" lengthAdjust="spacing" textLength="4" x="602.5" y="963.4482"> </text><text fill="#000000" font-family="sans-serif" font-size="14" lengthAdjust="spacing" textLength="4" x="602.5" y="979.7451"> </text></g><!--MD5=[719c480851c7ee5b0350ab8b807134fe]
entity repo3--><g id="elem_repo3"><path d="M739,708.2969 C739,698.2969 795,698.2969 795,698.2969 C795,698.2969 851,698.2969 851,708.2969 L851,978.0469 C851,988.0469 795,988.0469 795,988.0469 C795,988.0469 739,988.0469 739,978.0469 L739,708.2969 " fill="#F1F1F1" style="stroke:#181818;stroke-width:0.5;"/><path d="M739,708.2969 C739,718.2969 795,718.2969 795,718.2969 C795,718.2969 851,718.2969 851,708.2969 " fill="none" style="stroke:#181818;stroke-width:0.5;"/><text fill="#000000" font-family="sans-serif" font-size="14" lengthAdjust="spacing" textLength="92" x="749" y="735.292">Repository 3</text><text fill="#000000" font-family="sans-serif" font-size="14" lengthAdjust="spacing" textLength="4" x="749" y="751.5889"> </text><text fill="#000000" font-family="sans-serif" font-size="14" lengthAdjust="spacing" textLength="4" x="749" y="767.8857"> </text><text fill="#000000" font-family="sans-serif" font-size="14" lengthAdjust="spacing" textLength="4" x="749" y="784.1826"> </text><text fill="#000000" font-family="sans-serif" font-size="14" lengthAdjust="spacing" textLength="4" x="749" y="800.4795"> </text><text fill="#000000" font-family="sans-serif" font-size="14" lengthAdjust="spacing" textLength="4" x="749" y="816.7764"> </text><text fill="#000000" font-family="sans-serif" font-size="14" lengthAdjust="spacing" textLength="4" x="749" y="833.0732"> </text><text fill="#000000" font-family="sans-serif" font-size="14" lengthAdjust="spacing" textLength="4" x="749" y="849.3701"> </text><text fill="#000000" font-family="sans-serif" font-size="14" lengthAdjust="spacing" textLength="4" x="749" y="865.667"> </text><text fill="#000000" font-family="sans-serif" font-size="14" lengthAdjust="spacing" textLength="4" x="749" y="881.9639"> </text><text fill="#000000" font-family="sans-serif" font-size="14" lengthAdjust="spacing" textLength="4" x="749" y="898.2607"> </text><text fill="#000000" font-family="sans-serif" font-size="14" lengthAdjust="spacing" textLength="4" x="749" y="914.5576"> </text><text fill="#000000" font-family="sans-serif" font-size="14" lengthAdjust="spacing" textLength="4" x="749" y="930.8545"> </text><text fill="#000000" font-family="sans-serif" font-size="14" lengthAdjust="spacing" textLength="4" x="749" y="947.1514"> </text><text fill="#000000" font-family="sans-serif" font-size="14" lengthAdjust="spacing" textLength="4" x="749" y="963.4482"> </text><text fill="#000000" font-family="sans-serif" font-size="14" lengthAdjust="spacing" textLength="4" x="749" y="979.7451"> </text></g><!--MD5=[1a25da1238f2b747f6bafb31fd47389c]
entity inbox--><g id="elem_inbox"><rect fill="#F1F1F1" height="36.2969" rx="2.5" ry="2.5" style="stroke:#181818;stroke-width:0.5;" width="60" x="713" y="438.7969"/><text fill="#000000" font-family="sans-serif" font-size="14" lengthAdjust="spacing" textLength="40" x="723" y="461.792">Inbox</text></g><!--MD5=[c807758c2e9e0d1754c3d4b69a0f6713]
entity i--><g id="elem_i"><path d="M618.5,444.2969 C618.5,434.2969 648,434.2969 648,434.2969 C648,434.2969 677.5,434.2969 677.5,444.2969 L677.5,469.5938 C677.5,479.5938 648,479.5938 648,479.5938 C648,479.5938 618.5,479.5938 618.5,469.5938 L618.5,444.2969 " fill="#F1F1F1" style="stroke:#181818;stroke-width:0.5;"/><path d="M618.5,444.2969 C618.5,454.2969 648,454.2969 648,454.2969 C648,454.2969 677.5,454.2969 677.5,444.2969 " fill="none" style="stroke:#181818;stroke-width:0.5;"/><text fill="#000000" font-family="sans-serif" font-size="14" lengthAdjust="spacing" textLength="39" x="628.5" y="471.292">Index</text></g><!--MD5=[08af8945a84acfe1eabc0963aa87c412]
entity web--><g id="elem_web"><rect fill="#F1F1F1" height="36.2969" rx="2.5" ry="2.5" style="stroke:#181818;stroke-width:0.5;" width="70" x="513" y="438.7969"/><text fill="#000000" font-family="sans-serif" font-size="14" lengthAdjust="spacing" textLength="50" x="523" y="461.792">Web UI</text></g><!--MD5=[e2307af040e3f87d22824e7603ca28ec]
entity api--><g id="elem_api"><rect fill="#F1F1F1" height="36.2969" rx="2.5" ry="2.5" style="stroke:#181818;stroke-width:0.5;" width="43" x="434.5" y="438.7969"/><text fill="#000000" font-family="sans-serif" font-size="14" lengthAdjust="spacing" textLength="23" x="444.5" y="461.792">API</text></g><!--MD5=[1b905f2178911742b0802adf82617478]
reverse link auth to port--><g id="link_auth_port"><path d="M395.1375,265.7066 C395.1509,266.3658 395.1643,267.0254 395.1777,267.6853 C395.285,272.9643 395.3927,278.2633 395.5004,283.5624 C395.9311,304.7585 396.3618,325.9543 396.7664,345.866 C396.9687,355.8218 397.1645,365.4566 397.3505,374.6099 C397.4435,379.1865 397.5341,383.6427 397.6218,387.9586 C397.6437,389.0375 397.6654,390.1077 397.687,391.1688 " fill="none" id="auth-backto-port" style="stroke:#181818;stroke-width:1.0;"/><polygon fill="#181818" points="395.1375,265.7066,391.3212,274.786,395.2391,270.7056,399.3196,274.6235,395.1375,265.7066" style="stroke:#181818;stroke-width:1.0;"/><text fill="#000000" font-family="sans-serif" font-size="13" lengthAdjust="spacing" textLength="100" x="397" y="301.3638">Authorise users</text></g><!--MD5=[f699d4f3e564e83d3460ded22259ceb0]
link i to repo1--><g id="link_i_repo1"><path d="M631.01,479.4749 C604.394,513.5989 555.334,577.2179 550,589.2969 C535.744,621.5759 525.622,657.9799 518.438,692.9029 " fill="none" id="i-to-repo1" style="stroke:#181818;stroke-width:1.0;"/><polygon fill="#181818" points="517.4,698.0439,523.1031,690.0143,518.3902,693.1429,515.2616,688.43,517.4,698.0439" style="stroke:#181818;stroke-width:1.0;"/><text fill="#000000" font-family="sans-serif" font-size="13" lengthAdjust="spacing" textLength="88" x="551" y="602.3638">Index content</text></g><!--MD5=[652e998ba0745fae7ce9431c50997763]
link i to repo2--><g id="link_i_repo2"><path d="M648,479.5709 C648,520.4549 648,611.8789 648,692.7089 " fill="none" id="i-to-repo2" style="stroke:#181818;stroke-width:1.0;"/><polygon fill="#181818" points="648,698.0169,652,689.0169,648,693.0169,644,689.0169,648,698.0169" style="stroke:#181818;stroke-width:1.0;"/><text fill="#000000" font-family="sans-serif" font-size="13" lengthAdjust="spacing" textLength="88" x="649" y="602.3638">Index content</text></g><!--MD5=[407a1afc72944fbf8b5cf79ad200d8f9]
link i to repo3--><g id="link_i_repo3"><path d="M664.498,479.4069 C691.712,515.1269 743.297,583.1759 746,589.2969 C760.256,621.5759 770.378,657.9799 777.562,692.9029 " fill="none" id="i-to-repo3" style="stroke:#181818;stroke-width:1.0;"/><polygon fill="#181818" points="778.6,698.0439,780.7384,688.43,777.6098,693.1429,772.8969,690.0143,778.6,698.0439" style="stroke:#181818;stroke-width:1.0;"/><text fill="#000000" font-family="sans-serif" font-size="13" lengthAdjust="spacing" textLength="88" x="754" y="602.3638">Index content</text></g><!--MD5=[c52a65594a76808419803e339046aceb]
@startuml
top to bottom direction
title: LDaCA Aggregation

rectangle Authorization as auth {
database "Local Auth" as la {
}
[AAF]
[Google]
[Licence Authorizer] as lic

}

database "Repository 1\n\n\n\n\n\n\n\n\n\n\n\n\n\n\n" as repo1 {

}

database "Repository 2\n\n\n\n\n\n\n\n\n\n\n\n\n\n\n" as repo2 {

}

database "Repository 3\n\n\n\n\n\n\n\n\n\n\n\n\n\n\n" as repo3 {

}

rectangle Portal as port {
database "Index" as i {


}
rectangle "Web UI" as web {


}

rectangle "API" as api {
}

rectangle "Inbox" as inbox


}


port - -up- -> auth : Authorise users
i - - - -> repo1 : Index content
i - - - -> repo2 : Index content 
i - - - -> repo3 : Index content
@enduml

PlantUML version 1.2022.8beta8(Unknown compile time)
(GPL source distribution)
Java Runtime: Java(TM) SE Runtime Environment
JVM: Java HotSpot(TM) 64-Bit Server VM
Default Encoding: UTF-8
Language: en
Country: US
--></g></svg>