<?xml version="1.0" encoding="UTF-8" standalone="no"?><svg xmlns="http://www.w3.org/2000/svg" xmlns:xlink="http://www.w3.org/1999/xlink" contentStyleType="text/css" height="1722px" preserveAspectRatio="none" style="width:1354px;height:1722px;background:#FFFFFF;" version="1.1" viewBox="0 0 1354 1722" width="1354px" zoomAndPan="magnify"><defs/><g><rect fill="none" height="26.2969" id="_title" style="stroke:none;stroke-width:1.0;" width="227" x="556.809" y="5"/><text fill="#000000" font-family="sans-serif" font-size="14" font-weight="bold" lengthAdjust="spacing" textLength="217" x="561.809" y="22.9951">LDACA Repository Services</text><!--MD5=[5b16638da74ee2624443ac6b2748fb53]
cluster cs--><g id="cluster_cs"><path d="M299.0759,653.2557 C305.0354,643.2326 313.7667,642.1444 320.8686,652.0036 C326.4171,645.0934 334.6168,644.219 338.5028,653.7832 C342.5016,642.5223 352.1902,641.7597 358.5404,651.5445 C364.1256,642.1589 369.5582,641.1563 376.4884,650.2374 C382.1705,642.2046 388.8315,640.3837 395.4245,649.2147 C401.2804,639.7969 407.4672,640.1061 413.9837,648.5273 C422.2717,638.0791 429.0735,637.2271 436.0941,649.7474 C442.222,642.691 448.6364,641.7743 454.1305,650.4729 C459.1172,640.6463 465.745,639.9031 472.7344,648.4445 C481.6564,639.6631 487.9516,640.8818 493.2907,652.123 C498.6044,643.4707 508.2021,642.9331 513.0839,652.5899 C517.6241,643.3251 525.9536,643.7315 531.7859,651.1405 C538.387,644.1067 544.9015,644.8989 547.8689,654.627 C556.5907,644.599 569.6003,644.8354 574,659.2481 C575.8457,658.8229 576.8204,659.2403 576.6716,661.3501 C592.0046,671.7059 593.1103,683.6585 579.081,696.0529 C594.0422,715.0556 591.9225,731.4003 567,739.2481 C569.3222,739.1565 570.9297,740.3434 569.9159,742.9089 C563.5659,753.482 554.9209,752.4539 549.0491,742.4247 C541.7435,750.9416 535.4773,752.271 528.9429,741.6159 C524.4413,750.4834 519.52,752.4402 512.0142,744.6732 C505.9485,753.2176 498.5981,753.5766 492.0307,745.2683 C486.7096,752.8017 480.2679,753.3485 474.8661,745.3576 C468.4913,757.6069 461.8887,758.1652 453.5356,747.1734 C448.0033,755.813 440.8688,757.4261 434.3109,748.2821 C428.5298,758.0472 422.6727,755.9049 416.3806,748.8259 C409.0087,756.0313 401.9763,754.7729 398.3027,744.9091 C393.3217,755.8807 383.4804,755.9786 377.1806,746.255 C370.2554,755.519 362.6657,753.1745 357.9368,743.9668 C351.5865,753.66 343.2115,752.6204 337.5876,743.1937 C330.8216,752.0009 324.8228,753.0511 318.6361,742.6229 C306.9056,751.855 294.7901,745.9695 292,732.2481 C294.2186,731.7164 295.8309,732.8146 295.0008,735.2902 C277.5999,724.9413 273.7882,712.0479 289.3759,696.8694 C270.8438,676.9053 271.608,662.3072 299,652.2481 C299.4444,652.5366 299.5948,652.8947 299.0759,653.2557 " fill="none" style="stroke:#181818;stroke-width:1.0;"/><text fill="#000000" font-family="sans-serif" font-size="14" font-weight="bold" lengthAdjust="spacing" textLength="161" x="352.5" y="670.2432">Conversion Services</text></g><!--MD5=[c13524c47b130638f68e821de7351e61]
cluster vocab--><g id="cluster_vocab"><path d="M206.3222,1023.7286 C217.0685,1011.6347 227.5789,1011.3048 236.6022,1025.6983 C244.6411,1011.0734 253.8169,1009.6333 264.8707,1022.6106 C274.5299,1010.4229 285.2205,1007.8037 294.4126,1023.1125 C299.3654,1005.6944 315.3761,1005.9713 325.4736,1017.6137 C333.6184,1002.1201 345.035,1003.9703 354.5526,1016.1723 C361.9197,1002.539 374.7134,1005.1898 380.606,1017.6449 C389.3442,1003.3423 403.0937,1002.6483 412.3022,1017.127 C421.6486,1000.8362 436.6627,1000.5773 444.5233,1018.5253 C453.7956,1008.645 463.0152,1006.8604 470.5799,1020.4233 C479.8955,1007.0763 490.5328,1006.7632 500.861,1019.2357 C508.9558,1007.1359 522.141,1004.9376 530.0449,1019.4451 C540.3799,1004.6123 553.4275,1008.2943 559.5243,1023.5917 C566.2505,1011.234 579.3367,1007.7768 587.5875,1021.981 C601.7067,1004.3131 617.0914,1010.7863 624,1029.2481 C627.6561,1028.1706 629.9714,1029.606 629.4653,1033.6713 C640.3128,1043.5087 639.0827,1052.5834 627.2336,1060.5353 C644.8936,1070.1512 643.2456,1081.1471 630.2733,1093.5807 C642.2961,1100.3789 643.8731,1112.2227 632.399,1120.8524 C644.9208,1129.2679 648.7154,1137.6133 635.3065,1148.7329 C646.4943,1161.0001 646.299,1171.0534 630.7205,1179.3056 C644.8555,1190.2023 642.9625,1201.8634 627.7849,1209.9522 C642.9011,1217.1572 641.2587,1231.0925 628.8266,1239.2761 C641.1793,1255.9101 639.4378,1269.7135 617,1274.7481 C617.0983,1274.6718 617.2039,1274.7047 617.2327,1274.8288 C609.4976,1288.6277 600.3415,1290.6186 589.5016,1278.1003 C580.2907,1294.8759 570.8737,1294.1109 559.1435,1280.6279 C550.2287,1291.1458 538.5515,1291.298 533.0651,1277.022 C525.7568,1291.0214 514.5892,1293.8666 503.3025,1281.5155 C492.7326,1296.4309 480.7113,1297.5205 470.2131,1281.4391 C462.0335,1296.2355 451.7647,1295.5372 442.1032,1282.961 C434.2119,1298.8784 420.1948,1295.6369 412.6026,1282.6556 C403.4066,1297.8221 388.6195,1296.4273 382.7771,1279.5355 C372.8714,1293.3326 362.5915,1297.568 351.1468,1281.1464 C341.6421,1292.322 329.7172,1290.3495 323.7517,1277.1661 C314.67,1291.1474 302.685,1293.7448 293.3416,1277.4287 C287.1843,1289.9175 273.7514,1294.793 264.7083,1280.516 C253.565,1294.8758 243.3354,1292.5704 235.277,1277.4375 C218.7629,1290.6263 203.4187,1291.4281 196,1267.7481 C199.1152,1266.243 201.0172,1267.6755 201.2748,1270.921 C185.7103,1264.1813 187.8089,1250.0557 199.2441,1241.4552 C183.3606,1232.5399 185.7123,1220.8748 197.7771,1210.6295 C184.1823,1201.4262 186.5234,1186.6301 199.8934,1179.2452 C183.6328,1171.0842 183.1898,1160.3967 197.7628,1149.9901 C184.8204,1139.9943 185.8551,1130.5785 198.3264,1121.0781 C182.2498,1112.4247 185.4686,1100.3161 197.4739,1090.8702 C185.4458,1081.1249 187.5811,1071.6681 199.229,1063.4375 C179.371,1048.8242 183.9127,1033.2959 203,1022.2481 C204.8722,1021.0613 205.9121,1021.6348 206.3222,1023.7286 " fill="none" style="stroke:#181818;stroke-width:1.0;"/><text fill="#000000" font-family="sans-serif" font-size="14" font-weight="bold" lengthAdjust="spacing" textLength="122" x="349" y="1040.2432">Vocab Services</text></g><!--MD5=[bcef42744c9777c74f09f50d49f817f9]
cluster Workspaces--><g id="cluster_Workspaces"><path d="M857.5328,68.1233 C868.3698,54.802 878.9565,55.6605 888.9896,69.0693 C898.5536,55.3777 911.5952,52.2208 920.6003,69.6372 C931.495,54.5164 943.566,50.9471 954.9978,69.0817 C962.2642,54.6033 971.6377,49.3597 984.3992,63.4205 C995.9206,46.1819 1008.5965,43.2969 1020.8592,62.6825 C1031.2323,48.811 1043.5922,51.2397 1048.7298,67.5217 C1057.1601,45.564 1071.3961,46.8436 1085.633,61.7012 C1096.3644,49.5314 1105.8619,47.5438 1115.926,62.4478 C1126.2092,48.2185 1140.9453,50.9825 1148.8949,65.1565 C1161.222,48.2082 1174.3434,53.302 1183.7167,68.3692 C1192.5617,52.573 1204.204,52.7391 1213.9811,67.4444 C1224.5991,51.9558 1238.5937,52.8485 1248.4392,68.3047 C1256.0898,54.3524 1271.9267,52.046 1280.8154,66.9139 C1294.7656,53.7259 1307.6928,55.0908 1316,73.2481 C1317.8124,71.5582 1319.0843,72.0343 1319.8318,74.2839 C1339.7679,80.1714 1341.5831,97.0482 1325.1587,108.5829 C1343.0171,121.1511 1347.618,133.9124 1327.1343,148.3838 C1345.6307,158.5161 1343.437,175.5815 1325.3324,183.8545 C1340.632,201.7804 1333.1097,220.0079 1309,220.2481 C1309.8864,219.6789 1310.4656,219.8318 1310.7806,220.8779 C1302.2139,235.4738 1292.8991,237.9005 1281.7466,223.4638 C1273.2696,237.1886 1257.5611,240.8026 1248.8823,223.6789 C1241.7645,240.7512 1225.2034,243.6691 1214.2044,227.7597 C1204.3774,242.3909 1193.2508,243.4239 1183.2718,227.9158 C1170.1726,241.4235 1157.1525,242.2055 1147.744,223.8063 C1138.7076,236.798 1126.4399,237.7462 1117.1004,224.1557 C1108.8818,238.4373 1096.3293,243.0532 1084.7448,227.8493 C1075.2114,243.8828 1062.8505,242.435 1051.8318,229.5391 C1038.3974,246.0859 1026.4108,245.2612 1016.374,226.1598 C1007.4655,238.3466 994.86,241.2297 987.089,224.9881 C980.2467,242.0427 965.2659,242.9445 955.9555,227.3409 C944.1237,242.3625 932.8205,241.6164 922.8471,225.3729 C911.5172,240.3181 898.1004,242.1484 888.6142,223.4944 C869.2294,242.5439 854.9957,234.1644 845,213.2481 C847.456,210.9678 848.9695,212.0124 850.1643,214.5891 C832.568,209.1049 824.691,196.4841 839.4746,180.7662 C821.7041,173.8767 821.9342,158.7998 836.1581,148.6105 C820.9847,135.0921 824.1124,117.2874 843.8455,110.8813 C825.822,92.3889 825.8003,76.661 852,66.2481 C854.746,64.3629 856.4722,65.0356 857.5328,68.1233 " fill="none" style="stroke:#181818;stroke-width:1.0;"/><text fill="#000000" font-family="sans-serif" font-size="14" font-weight="bold" lengthAdjust="spacing" textLength="97" x="1032" y="84.2432">Workspaces</text></g><!--MD5=[6d8b222e37d233dcccd45f0d62e825e7]
cluster Cloudstor--><g id="cluster_Cloudstor"><rect fill="none" height="87" rx="2.5" ry="2.5" style="stroke:#181818;stroke-width:1.0;" width="266" x="1026" y="109.2481"/><text fill="#000000" font-family="sans-serif" font-size="14" font-weight="bold" lengthAdjust="spacing" textLength="79" x="1119.5" y="124.2432">Cloudstor</text></g><!--MD5=[0c4a738b3201a23a254af68352446157]
cluster auth--><g id="cluster_auth"><rect fill="none" height="113" rx="2.5" ry="2.5" style="stroke:#181818;stroke-width:1.0;" width="753" x="7" y="96.2481"/><text fill="#000000" font-family="sans-serif" font-size="14" font-weight="bold" lengthAdjust="spacing" textLength="113" x="327" y="111.2432">Authorization</text></g><!--MD5=[d5ac3844f66b12d9e08170e47495e096]
cluster app--><g id="cluster_app"><rect fill="none" height="532" rx="2.5" ry="2.5" style="stroke:#181818;stroke-width:1.0;" width="512" x="622" y="417.2481"/><text fill="#000000" font-family="sans-serif" font-size="14" font-weight="bold" lengthAdjust="spacing" textLength="106" x="825" y="432.2432">Curation App</text></g><!--MD5=[38c27b35aef4eebaf210b1fd39b25fb0]
cluster spa--><g id="cluster_spa"><rect fill="none" height="103" rx="2.5" ry="2.5" style="stroke:#181818;stroke-width:1.0;" width="191" x="837" y="476.2481"/><text fill="#000000" font-family="sans-serif" font-size="14" font-weight="bold" lengthAdjust="spacing" textLength="109" x="878" y="491.2432">Data Day Spa</text></g><!--MD5=[790cf33570bffa13edb14ea3041ddd23]
cluster port--><g id="cluster_port"><rect fill="none" height="112" rx="2.5" ry="2.5" style="stroke:#181818;stroke-width:1.0;" width="406" x="676" y="1014.7481"/><text fill="#000000" font-family="sans-serif" font-size="14" font-weight="bold" lengthAdjust="spacing" textLength="50" x="854" y="1029.7432">Portal</text></g><!--MD5=[cf0d3feae0a35f7903af2a09a0dfb4f5]
entity Your service here--><g id="elem_Your service here"><rect fill="#F1F1F1" height="36.2969" rx="2.5" ry="2.5" style="stroke:#181818;stroke-width:0.5;" width="144" x="414" y="687.2481"/><text fill="#000000" font-family="sans-serif" font-size="14" lengthAdjust="spacing" textLength="124" x="424" y="710.2432">Your service here</text></g><!--MD5=[4c610494c50c3860a772a9b3d0fbdd6b]
entity ocr--><g id="elem_ocr"><rect fill="#F1F1F1" height="36.2969" rx="2.5" ry="2.5" style="stroke:#181818;stroke-width:0.5;" width="51" x="327.5" y="687.2481"/><text fill="#000000" font-family="sans-serif" font-size="14" lengthAdjust="spacing" textLength="31" x="337.5" y="710.2432">OCR</text></g><!--MD5=[d55d7cbd8f6fc4f4081530b5f5ca05ca]
entity Orcid--><g id="elem_Orcid"><rect fill="#F1F1F1" height="46.2969" rx="2.5" ry="2.5" style="stroke:#181818;stroke-width:0.5;" width="78" x="212" y="1057.2481"/><rect fill="#F1F1F1" height="10" style="stroke:#181818;stroke-width:0.5;" width="15" x="270" y="1062.2481"/><rect fill="#F1F1F1" height="2" style="stroke:#181818;stroke-width:0.5;" width="4" x="268" y="1064.2481"/><rect fill="#F1F1F1" height="2" style="stroke:#181818;stroke-width:0.5;" width="4" x="268" y="1068.2481"/><text fill="#000000" font-family="sans-serif" font-size="14" lengthAdjust="spacing" textLength="38" x="227" y="1090.2432">Orcid</text></g><!--MD5=[7f322288b12a1083ceb6b9aac00a8d7f]
entity ROR--><g id="elem_ROR"><rect fill="#F1F1F1" height="46.2969" rx="2.5" ry="2.5" style="stroke:#181818;stroke-width:0.5;" width="71" x="325.5" y="1057.2481"/><rect fill="#F1F1F1" height="10" style="stroke:#181818;stroke-width:0.5;" width="15" x="376.5" y="1062.2481"/><rect fill="#F1F1F1" height="2" style="stroke:#181818;stroke-width:0.5;" width="4" x="374.5" y="1064.2481"/><rect fill="#F1F1F1" height="2" style="stroke:#181818;stroke-width:0.5;" width="4" x="374.5" y="1068.2481"/><text fill="#000000" font-family="sans-serif" font-size="14" lengthAdjust="spacing" textLength="31" x="340.5" y="1090.2432">ROR</text></g><!--MD5=[6671104faee74f997a8568a834628c08]
entity lo--><g id="elem_lo"><rect fill="#F1F1F1" height="46.2969" rx="2.5" ry="2.5" style="stroke:#181818;stroke-width:0.5;" width="190" x="212" y="1212.7481"/><rect fill="#F1F1F1" height="10" style="stroke:#181818;stroke-width:0.5;" width="15" x="382" y="1217.7481"/><rect fill="#F1F1F1" height="2" style="stroke:#181818;stroke-width:0.5;" width="4" x="380" y="1219.7481"/><rect fill="#F1F1F1" height="2" style="stroke:#181818;stroke-width:0.5;" width="4" x="380" y="1223.7481"/><text fill="#000000" font-family="sans-serif" font-size="14" lengthAdjust="spacing" textLength="150" x="227" y="1245.7432">Language Ontologies</text></g><!--MD5=[f9e019f3199e06ad1975523cf61a9418]
entity ee--><g id="elem_ee"><rect fill="#F1F1F1" height="46.2969" rx="2.5" ry="2.5" style="stroke:#181818;stroke-width:0.5;" width="157" x="431.5" y="1057.2481"/><rect fill="#F1F1F1" height="10" style="stroke:#181818;stroke-width:0.5;" width="15" x="568.5" y="1062.2481"/><rect fill="#F1F1F1" height="2" style="stroke:#181818;stroke-width:0.5;" width="4" x="566.5" y="1064.2481"/><rect fill="#F1F1F1" height="2" style="stroke:#181818;stroke-width:0.5;" width="4" x="566.5" y="1068.2481"/><text fill="#000000" font-family="sans-serif" font-size="14" lengthAdjust="spacing" textLength="117" x="446.5" y="1090.2432">Existing Entities</text></g><!--MD5=[daf8ac38870254aed921518ab56c6565]
entity ftp--><g id="elem_ftp"><rect fill="#F1F1F1" height="36.2969" rx="2.5" ry="2.5" style="stroke:#181818;stroke-width:0.5;" width="127" x="880.5" y="144.2481"/><text fill="#000000" font-family="sans-serif" font-size="14" lengthAdjust="spacing" textLength="107" x="890.5" y="167.2432">From The Page</text></g><!--MD5=[f21d49010b95ecf897428d3dbcd8342d]
entity File Sync n Share--><g id="elem_File Sync n Share"><rect fill="#F1F1F1" height="36.2969" rx="2.5" ry="2.5" style="stroke:#181818;stroke-width:0.5;" width="141" x="1134.5" y="144.2481"/><text fill="#000000" font-family="sans-serif" font-size="14" lengthAdjust="spacing" textLength="121" x="1144.5" y="167.2432">File Sync n Share</text></g><!--MD5=[71b7a3a681506dc7ca4d1638c8eae823]
entity Swan--><g id="elem_Swan"><rect fill="#F1F1F1" height="36.2969" rx="2.5" ry="2.5" style="stroke:#181818;stroke-width:0.5;" width="57" x="1042.5" y="144.2481"/><text fill="#000000" font-family="sans-serif" font-size="14" lengthAdjust="spacing" textLength="37" x="1052.5" y="167.2432">Swan</text></g><!--MD5=[0db9ec160bc224612e9899d46029c873]
entity AAF--><g id="elem_AAF"><rect fill="#F1F1F1" height="46.2969" rx="2.5" ry="2.5" style="stroke:#181818;stroke-width:0.5;" width="68" x="498" y="139.2481"/><rect fill="#F1F1F1" height="10" style="stroke:#181818;stroke-width:0.5;" width="15" x="546" y="144.2481"/><rect fill="#F1F1F1" height="2" style="stroke:#181818;stroke-width:0.5;" width="4" x="544" y="146.2481"/><rect fill="#F1F1F1" height="2" style="stroke:#181818;stroke-width:0.5;" width="4" x="544" y="150.2481"/><text fill="#000000" font-family="sans-serif" font-size="14" lengthAdjust="spacing" textLength="28" x="513" y="172.2432">AAF</text></g><!--MD5=[989097e6dfab97c8886170276168fdd4]
entity Google--><g id="elem_Google"><rect fill="#F1F1F1" height="46.2969" rx="2.5" ry="2.5" style="stroke:#181818;stroke-width:0.5;" width="91" x="371.5" y="139.2481"/><rect fill="#F1F1F1" height="10" style="stroke:#181818;stroke-width:0.5;" width="15" x="442.5" y="144.2481"/><rect fill="#F1F1F1" height="2" style="stroke:#181818;stroke-width:0.5;" width="4" x="440.5" y="146.2481"/><rect fill="#F1F1F1" height="2" style="stroke:#181818;stroke-width:0.5;" width="4" x="440.5" y="150.2481"/><text fill="#000000" font-family="sans-serif" font-size="14" lengthAdjust="spacing" textLength="51" x="386.5" y="172.2432">Google</text></g><!--MD5=[7e280c3f70c48d5961513cb2f615199c]
entity lic--><g id="elem_lic"><rect fill="#F1F1F1" height="46.2969" rx="2.5" ry="2.5" style="stroke:#181818;stroke-width:0.5;" width="175" x="161.5" y="139.2481"/><rect fill="#F1F1F1" height="10" style="stroke:#181818;stroke-width:0.5;" width="15" x="316.5" y="144.2481"/><rect fill="#F1F1F1" height="2" style="stroke:#181818;stroke-width:0.5;" width="4" x="314.5" y="146.2481"/><rect fill="#F1F1F1" height="2" style="stroke:#181818;stroke-width:0.5;" width="4" x="314.5" y="150.2481"/><text fill="#000000" font-family="sans-serif" font-size="14" lengthAdjust="spacing" textLength="135" x="176.5" y="172.2432">Licence Authorizer</text></g><!--MD5=[ff011c0e4758c4033cf2bcb4b35d5b3d]
entity la--><g id="elem_la"><path d="M31.5,149.7481 C31.5,139.7481 79,139.7481 79,139.7481 C79,139.7481 126.5,139.7481 126.5,149.7481 L126.5,175.045 C126.5,185.045 79,185.045 79,185.045 C79,185.045 31.5,185.045 31.5,175.045 L31.5,149.7481 " fill="#F1F1F1" style="stroke:#181818;stroke-width:0.5;"/><path d="M31.5,149.7481 C31.5,159.7481 79,159.7481 79,159.7481 C79,159.7481 126.5,159.7481 126.5,149.7481 " fill="none" style="stroke:#181818;stroke-width:0.5;"/><text fill="#000000" font-family="sans-serif" font-size="14" lengthAdjust="spacing" textLength="75" x="41.5" y="176.7432">Local Auth</text></g><!--MD5=[82f23cda116f7491e2ad662b9686858a]
entity files--><g id="elem_files"><rect fill="#F1F1F1" height="36.2969" rx="2.5" ry="2.5" style="stroke:#181818;stroke-width:0.5;" width="123" x="880.5" y="519.2481"/><text fill="#000000" font-family="sans-serif" font-size="14" lengthAdjust="spacing" textLength="103" x="890.5" y="542.2432">Uploaded Files</text></g><!--MD5=[bed66dcb970e069033b6065646db6f7b]
entity describo--><g id="elem_describo"><rect fill="#F1F1F1" height="36.2969" rx="2.5" ry="2.5" style="stroke:#181818;stroke-width:0.5;" width="142" x="654" y="884.7481"/><text fill="#000000" font-family="sans-serif" font-size="14" lengthAdjust="spacing" textLength="122" x="664" y="907.7432">Data Description</text></g><!--MD5=[0a2ed6daf5e8ac75853ca05a0b454f8d]
entity itemdb--><g id="elem_itemdb"><path d="M928.5,890.2481 C928.5,880.2481 959,880.2481 959,880.2481 C959,880.2481 989.5,880.2481 989.5,890.2481 L989.5,915.545 C989.5,925.545 959,925.545 959,925.545 C959,925.545 928.5,925.545 928.5,915.545 L928.5,890.2481 " fill="#F1F1F1" style="stroke:#181818;stroke-width:0.5;"/><path d="M928.5,890.2481 C928.5,900.2481 959,900.2481 959,900.2481 C959,900.2481 989.5,900.2481 989.5,890.2481 " fill="none" style="stroke:#181818;stroke-width:0.5;"/><text fill="#000000" font-family="sans-serif" font-size="14" lengthAdjust="spacing" textLength="41" x="938.5" y="917.2432">Items</text></g><!--MD5=[ae38f3df50bbf8acf027574e6a8bac37]
entity repo--><g id="elem_repo"><path d="M720,1425.7481 C720,1415.7481 788,1415.7481 788,1415.7481 C788,1415.7481 856,1415.7481 856,1425.7481 L856,1695.4981 C856,1705.4981 788,1705.4981 788,1705.4981 C788,1705.4981 720,1705.4981 720,1695.4981 L720,1425.7481 " fill="#F1F1F1" style="stroke:#181818;stroke-width:0.5;"/><path d="M720,1425.7481 C720,1435.7481 788,1435.7481 788,1435.7481 C788,1435.7481 856,1435.7481 856,1425.7481 " fill="none" style="stroke:#181818;stroke-width:0.5;"/><text fill="#000000" font-family="sans-serif" font-size="14" lengthAdjust="spacing" textLength="116" x="730" y="1452.7432">Main Repository</text><text fill="#000000" font-family="sans-serif" font-size="14" lengthAdjust="spacing" textLength="4" x="730" y="1469.0401"> </text><text fill="#000000" font-family="sans-serif" font-size="14" lengthAdjust="spacing" textLength="4" x="730" y="1485.337"> </text><text fill="#000000" font-family="sans-serif" font-size="14" lengthAdjust="spacing" textLength="4" x="730" y="1501.6339"> </text><text fill="#000000" font-family="sans-serif" font-size="14" lengthAdjust="spacing" textLength="4" x="730" y="1517.9307"> </text><text fill="#000000" font-family="sans-serif" font-size="14" lengthAdjust="spacing" textLength="4" x="730" y="1534.2276"> </text><text fill="#000000" font-family="sans-serif" font-size="14" lengthAdjust="spacing" textLength="4" x="730" y="1550.5245"> </text><text fill="#000000" font-family="sans-serif" font-size="14" lengthAdjust="spacing" textLength="4" x="730" y="1566.8214"> </text><text fill="#000000" font-family="sans-serif" font-size="14" lengthAdjust="spacing" textLength="4" x="730" y="1583.1182"> </text><text fill="#000000" font-family="sans-serif" font-size="14" lengthAdjust="spacing" textLength="4" x="730" y="1599.4151"> </text><text fill="#000000" font-family="sans-serif" font-size="14" lengthAdjust="spacing" textLength="4" x="730" y="1615.712"> </text><text fill="#000000" font-family="sans-serif" font-size="14" lengthAdjust="spacing" textLength="4" x="730" y="1632.0089"> </text><text fill="#000000" font-family="sans-serif" font-size="14" lengthAdjust="spacing" textLength="4" x="730" y="1648.3057"> </text><text fill="#000000" font-family="sans-serif" font-size="14" lengthAdjust="spacing" textLength="4" x="730" y="1664.6026"> </text><text fill="#000000" font-family="sans-serif" font-size="14" lengthAdjust="spacing" textLength="4" x="730" y="1680.8995"> </text><text fill="#000000" font-family="sans-serif" font-size="14" lengthAdjust="spacing" textLength="4" x="730" y="1697.1964"> </text></g><!--MD5=[1a25da1238f2b747f6bafb31fd47389c]
entity inbox--><g id="elem_inbox"><rect fill="#F1F1F1" height="36.2969" rx="2.5" ry="2.5" style="stroke:#181818;stroke-width:0.5;" width="60" x="903" y="1062.2481"/><text fill="#000000" font-family="sans-serif" font-size="14" lengthAdjust="spacing" textLength="40" x="913" y="1085.2432">Inbox</text></g><!--MD5=[c807758c2e9e0d1754c3d4b69a0f6713]
entity i--><g id="elem_i"><path d="M998.5,1067.7481 C998.5,1057.7481 1028,1057.7481 1028,1057.7481 C1028,1057.7481 1057.5,1057.7481 1057.5,1067.7481 L1057.5,1093.045 C1057.5,1103.045 1028,1103.045 1028,1103.045 C1028,1103.045 998.5,1103.045 998.5,1093.045 L998.5,1067.7481 " fill="#F1F1F1" style="stroke:#181818;stroke-width:0.5;"/><path d="M998.5,1067.7481 C998.5,1077.7481 1028,1077.7481 1028,1077.7481 C1028,1077.7481 1057.5,1077.7481 1057.5,1067.7481 " fill="none" style="stroke:#181818;stroke-width:0.5;"/><text fill="#000000" font-family="sans-serif" font-size="14" lengthAdjust="spacing" textLength="39" x="1008.5" y="1094.7432">Index</text></g><!--MD5=[08af8945a84acfe1eabc0963aa87c412]
entity web--><g id="elem_web"><rect fill="#F1F1F1" height="36.2969" rx="2.5" ry="2.5" style="stroke:#181818;stroke-width:0.5;" width="70" x="798" y="1062.2481"/><text fill="#000000" font-family="sans-serif" font-size="14" lengthAdjust="spacing" textLength="50" x="808" y="1085.2432">Web UI</text></g><!--MD5=[e2307af040e3f87d22824e7603ca28ec]
entity api--><g id="elem_api"><rect fill="#F1F1F1" height="36.2969" rx="2.5" ry="2.5" style="stroke:#181818;stroke-width:0.5;" width="43" x="719.5" y="1062.2481"/><text fill="#000000" font-family="sans-serif" font-size="14" lengthAdjust="spacing" textLength="23" x="729.5" y="1085.2432">API</text></g><!--MD5=[aa7db9c1bd801e95ec55912fdad0d42a]
entity rm--><g id="elem_rm"><ellipse cx="937" cy="1206.2481" fill="#F1F1F1" rx="8" ry="8" style="stroke:#181818;stroke-width:0.5;"/><path d="M937,1214.2481 L937,1241.2481 M924,1222.2481 L950,1222.2481 M937,1241.2481 L924,1256.2481 M937,1241.2481 L950,1256.2481 " fill="none" style="stroke:#181818;stroke-width:0.5;"/><text fill="#000000" font-family="sans-serif" font-size="14" lengthAdjust="spacing" textLength="103" x="885.5" y="1270.7432">Repo Manager</text></g><!--MD5=[5fb191068b1c5ae6bd62471faef38ab0]
link repo to vocab--><g id="link_repo_vocab"><path d="M741.507,1415.6851 C729.785,1380.0191 717.091,1341.9421 705,1306.7481 C687.97,1257.1781 668.0818,1201.7766 652.2744,1158.2922 C644.3707,1136.55 637.4872,1117.7871 632.4914,1104.2221 C632.3352,1103.7982 632.181,1103.3794 632.0286,1102.9657 " fill="none" id="repo-to-vocab" style="stroke:#181818;stroke-width:1.0;"/><polygon fill="#181818" points="632.0286,1102.9657,631.3864,1112.7936,633.757,1107.6574,638.8932,1110.028,632.0286,1102.9657" style="stroke:#181818;stroke-width:1.0;"/><text fill="#000000" font-family="sans-serif" font-size="13" lengthAdjust="spacing" textLength="46" x="712" y="1319.815">Lookup</text></g><!--MD5=[0bf71add57a83863d275095208a5be61]
reverse link auth to app--><g id="link_auth_app"><path d="M604.6879,210.6835 C604.9973,214.6619 605.3218,218.8358 605.6598,223.1834 C608.3641,257.9644 611.9329,303.8644 615.5015,349.7631 C617.2858,372.7125 619.0701,395.6615 620.7463,417.2203 C621.1653,422.6099 621.5776,427.9127 621.9814,433.1069 " fill="none" id="auth-backto-app" style="stroke:#181818;stroke-width:1.0;"/><polygon fill="#181818" points="604.6879,210.6835,601.3977,219.9665,605.0755,215.6685,609.3736,219.3463,604.6879,210.6835" style="stroke:#181818;stroke-width:1.0;"/><text fill="#000000" font-family="sans-serif" font-size="13" lengthAdjust="spacing" textLength="100" x="615" y="327.315">Authorise users</text></g><!--MD5=[973809148e62c60384a3483f6e21cc37]
link i to repo--><g id="link_i_repo"><path d="M1031.91,1102.7631 C1034.19,1116.4491 1036.84,1134.5761 1038,1150.7481 C1042.8,1217.8741 1036.34,1238.6781 1006,1298.7481 C969.032,1371.9361 908.014,1442.5301 859.922,1491.8041 " fill="none" id="i-to-repo" style="stroke:#181818;stroke-width:1.0;"/><polygon fill="#181818" points="856.19,1495.6121,865.3469,1491.9857,859.6904,1492.0417,859.6344,1486.3852,856.19,1495.6121" style="stroke:#181818;stroke-width:1.0;"/><text fill="#000000" font-family="sans-serif" font-size="13" lengthAdjust="spacing" textLength="269" x="1002" y="1319.815">Index content (with license info of course)</text></g><!--MD5=[25b8b812bca8ca84608d8c1c805b11ee]
link ee to repo--><g id="link_ee_repo"><path d="M501.803,1103.3551 C486.781,1147.6881 459.492,1249.5541 495,1323.7481 C540.318,1418.4401 644.22,1487.2541 715.284,1525.3601 " fill="none" id="ee-to-repo" style="stroke:#181818;stroke-width:1.0;"/><polygon fill="#181818" points="719.917,1527.8261,713.8503,1520.0675,715.5029,1525.4776,710.0928,1527.1301,719.917,1527.8261" style="stroke:#181818;stroke-width:1.0;"/><text fill="#000000" font-family="sans-serif" font-size="13" lengthAdjust="spacing" textLength="200" x="496" y="1319.815">Look up collections / people etc</text></g><!--MD5=[8812a90ea4f61da669b0f1f3805289a8]
link port to lic--><g id="link_port_lic"><path d="M675.9792,1052.6108 C675.2273,1050.6134 674.4174,1048.556 673.5473,1046.4581 C666.586,1029.6746 655.77,1010.2941 640,998.2481 C494.49,887.0991 239,1086.8521 239,903.7481 C239,283.2481 239,283.2481 239,283.2481 C239,251.2381 242.577,214.5981 245.452,190.3081 " fill="none" id="port-to-lic" style="stroke:#181818;stroke-width:1.0;"/><polygon fill="#181818" points="246.054,185.3181,241.027,193.7874,245.4681,190.2837,248.9719,194.7248,246.054,185.3181" style="stroke:#181818;stroke-width:1.0;"/><text fill="#000000" font-family="sans-serif" font-size="13" lengthAdjust="spacing" textLength="263" x="240" y="616.315">Check keys/credentials for EVERY access</text></g><!--MD5=[c76e06f5f613cd75d93e65aa79c6f764]
link spa to cs--><g id="link_spa_cs"><path d="M849.2292,579.4937 C847.9549,585.4444 845.434,590.9856 841,595.2481 C830.542,605.2981 594.369,601.2581 580,603.2481 C549.143,607.5281 542.837,615.8281 512,620.2481 C500.938,621.8381 319.67,621.1981 311,628.2481 C307.729,630.9081 304.9716,634.0383 302.6513,637.4857 C301.4912,639.2094 300.4403,641.0125 299.4892,642.8757 C299.3704,643.1086 299.253,643.3425 299.1372,643.5772 C299.0793,643.6946 299.0218,643.8122 298.9647,643.93 " fill="none" id="spa-to-cs" style="stroke:#181818;stroke-width:1.0;"/><polygon fill="#181818" points="298.9647,643.93,306.4905,637.5769,301.1461,639.431,299.292,634.0866,298.9647,643.93" style="stroke:#181818;stroke-width:1.0;"/><text fill="#000000" font-family="sans-serif" font-size="13" lengthAdjust="spacing" textLength="110" x="581" y="616.315">Batch conversion</text></g><!--MD5=[b16450fcff70a224b1995efb295df5a4]
link describo to itemdb--><g id="link_describo_itemdb"><path d="M796.161,902.7481 C838.152,902.7481 889.5,902.7481 923.169,902.7481 " fill="none" id="describo-to-itemdb" style="stroke:#181818;stroke-width:1.0;"/><polygon fill="#181818" points="928.417,902.7481,919.417,898.7481,923.417,902.7481,919.417,906.7481,928.417,902.7481" style="stroke:#181818;stroke-width:1.0;"/><text fill="#000000" font-family="sans-serif" font-size="13" lengthAdjust="spacing" textLength="96" x="814.25" y="895.815">Make RO-Crate</text></g><!--MD5=[9db01802150ddeb05f1bc6db25fa6cd5]
link auth to auth--><g id="link_auth_auth"><path d="M743,161.7281 C754.876,139.7481 778.082,139.9281 778.082,162.2481 C778.082,184.5681 754.876,184.7481 743,162.7681 " fill="none" id="auth-to-auth" style="stroke:#181818;stroke-width:1.0;"/><polygon fill="#181818" points="743,162.7681,743.7591,172.5877,745.3768,167.1671,750.7974,168.7848,743,162.7681" style="stroke:#181818;stroke-width:1.0;"/><text fill="#000000" font-family="sans-serif" font-size="13" lengthAdjust="spacing" textLength="121" x="784.082" y="166.815">Authenticate users</text></g><!--MD5=[b7b4775cab7721adea3da6589f9acd6e]
link itemdb to api--><g id="link_itemdb_api"><path d="M928.43,919.4191 C899.638,933.5201 854.933,953.7381 814,965.2481 C802.322,968.5321 768.707,964.8011 760,973.2481 C737.794,994.7911 736.358,1032.7761 738.118,1056.9441 " fill="none" id="itemdb-to-api" style="stroke:#181818;stroke-width:1.0;"/><polygon fill="#181818" points="738.565,1062.1771,741.7841,1052.8692,738.1393,1057.1953,733.8132,1053.5504,738.565,1062.1771" style="stroke:#181818;stroke-width:1.0;"/><text fill="#000000" font-family="sans-serif" font-size="13" lengthAdjust="spacing" textLength="176" x="761" y="986.315">Fetch latest version of item</text></g><!--MD5=[d629056c7f3399d1b43ed2fcbc70da6b]
link itemdb to itemdb--><g id="link_itemdb_itemdb"><path d="M989.66,893.5701 C1007.66,891.6141 1024.5,894.6741 1024.5,902.7481 C1024.5,910.0651 1010.67,913.2641 994.68,912.3441 " fill="none" id="itemdb-to-itemdb" style="stroke:#181818;stroke-width:1.0;"/><polygon fill="#181818" points="989.66,911.9261,998.2976,916.6581,994.6428,912.3404,998.9605,908.6856,989.66,911.9261" style="stroke:#181818;stroke-width:1.0;"/><text fill="#000000" font-family="sans-serif" font-size="13" lengthAdjust="spacing" textLength="90" x="1030.5" y="907.315">Mint new item</text></g><!--MD5=[bc6fe02f21eb4fb7c53a026c174ebbe2]
link itemdb to inbox--><g id="link_itemdb_inbox"><path d="M955.812,925.2681 C950.869,958.6311 941.403,1022.5311 936.358,1056.5801 " fill="none" id="itemdb-to-inbox" style="stroke:#181818;stroke-width:1.0;"/><polygon fill="#181818" points="935.588,1061.7791,940.864,1053.4626,936.3209,1056.8331,932.9504,1052.29,935.588,1061.7791" style="stroke:#181818;stroke-width:1.0;"/><text fill="#000000" font-family="sans-serif" font-size="13" lengthAdjust="spacing" textLength="82" x="949" y="986.315">Deposit item</text></g><!--MD5=[e574ff7608eb7e00fd16ef14efde8166]
reverse link Workspaces to spa--><g id="link_Workspaces_spa"><path d="M845,229.8324 C845,232.0904 845,234.3891 845,236.7258 C845,241.3991 845,246.2245 845,251.1802 C845,261.0916 845,271.5241 845,282.3041 C845,303.864 845,326.8137 845,349.7631 C845,372.7125 845,395.6615 845,417.2203 C845,427.9996 845,438.4314 845,448.3418 C845,453.297 845,458.1219 845,462.7947 C845,465.1311 845,467.4295 845,469.6872 C845,470.816 845,471.9347 845,473.0428 C845,473.5969 845,474.1483 845,474.6971 C845,474.9715 845,475.2452 845,475.5182 " fill="none" id="Workspaces-backto-spa" style="stroke:#181818;stroke-width:1.0;"/><polygon fill="#181818" points="845,229.8324,841,238.8324,845,234.8324,849,238.8324,845,229.8324" style="stroke:#181818;stroke-width:1.0;"/><text fill="#000000" font-family="sans-serif" font-size="13" lengthAdjust="spacing" textLength="368" x="846" y="327.315">Send data to asynchronous services for cleaning/analysis</text></g><!--MD5=[86dbd913b1e1bbe61f1877be4b799169]
link spa to itemdb--><g id="link_spa_itemdb"><path d="M858.0889,579.9847 C858.2113,580.3751 858.3345,580.7678 858.4583,581.1626 C866.383,606.4307 877.0844,640.5529 888.5564,677.1319 C911.5003,750.2899 937.526,833.2751 950.583,874.9091 " fill="none" id="spa-to-itemdb" style="stroke:#181818;stroke-width:1.0;"/><polygon fill="#181818" points="952.227,880.1511,953.3509,870.3666,950.731,875.3802,945.7174,872.7602,952.227,880.1511" style="stroke:#181818;stroke-width:1.0;"/><text fill="#000000" font-family="sans-serif" font-size="13" lengthAdjust="spacing" textLength="150" x="923" y="784.315">Populate item with text</text></g><!--MD5=[d8cb22121460bd48661be547c893d655]
reverse link inbox to rm--><g id="link_inbox_rm"><path d="M931.158,1103.6601 C929.979,1121.1281 928.866,1145.9891 930,1167.7481 C930.505,1177.4421 931.418,1187.8931 932.422,1197.5911 " fill="none" id="inbox-backto-rm" style="stroke:#181818;stroke-width:1.0;"/><polygon fill="#181818" points="931.523,1098.4881,926.8978,1107.1834,931.1701,1103.4756,934.8778,1107.748,931.523,1098.4881" style="stroke:#181818;stroke-width:1.0;"/><text fill="#000000" font-family="sans-serif" font-size="13" lengthAdjust="spacing" textLength="102" x="931" y="1163.815">Approve / reject</text></g><!--MD5=[5a3917b91c4cf4d7a492ac8d865de4bf]
link inbox to repo--><g id="link_inbox_repo"><path d="M921.169,1098.6181 C906.63,1120.7211 882.153,1160.5101 868,1197.7481 C842.204,1265.6201 823.608,1343.9711 810.875,1410.3841 " fill="none" id="inbox-to-repo" style="stroke:#181818;stroke-width:1.0;"/><polygon fill="#181818" points="809.892,1415.5501,815.5034,1407.4562,810.8264,1410.6382,807.6443,1405.9612,809.892,1415.5501" style="stroke:#181818;stroke-width:1.0;"/><text fill="#000000" font-family="sans-serif" font-size="13" lengthAdjust="spacing" textLength="49" x="834" y="1319.815">Deposit</text></g><!--MD5=[c462ca16dd0dcbc3678d67f6b86ff123]
@startuml
top to bottom direction
title: LDACA Repository Services


cloud "Conversion Services"  as cs {
rectangle "OCR" as ocr {

}
rectangle "Your service here"

}

cloud "Vocab Services" as vocab {
[Orcid]
[ROR]
[Language Ontologies] as lo
[Existing Entities] as ee

}

cloud "Workspaces" {
rectangle "From The Page" as ftp {

}

rectangle "Cloudstor" {

rectangle "File Sync n Share" {

}
rectangle "Swan" {

}

}


}


rectangle Authorization as auth {
database "Local Auth" as la {
}
[AAF]
[Google]
[Licence Authorizer] as lic

}



rectangle "Curation App" as app {

rectangle "Data Day Spa"  as spa {
rectangle "Uploaded Files" as files {

}
}

rectangle "Data Description" as describo {

}


database "Items" as itemdb {

}



}

database "Main Repository\n\n\n\n\n\n\n\n\n\n\n\n\n\n\n" as repo {

}

rectangle Portal as port {
database "Index" as i {


}
rectangle "Web UI" as web {


}

rectangle "API" as api {
}

rectangle "Inbox" as inbox


}



repo -down-> vocab : Lookup
app - -up- -> auth : Authorise users
i - - - -> repo : Index content (with license info of course)
ee - - - -> repo : Look up collections / people etc
actor "Repo Manager" as rm
port - -down- -> lic : Check keys/credentials for EVERY access
spa -down-> cs : Batch conversion
describo -> itemdb : Make RO-Crate
auth - - -down- - -> auth : Authenticate users
itemdb -down-> api : Fetch latest version of item 
itemdb - - -> itemdb : Mint new item
itemdb - -down- -> inbox : Deposit item
spa - -up- -> Workspaces : Send data to asynchronous services for cleaning/analysis
spa - -down- -> itemdb : Populate item with text
rm -up-> inbox : Approve / reject
inbox -> repo : Deposit
@enduml

PlantUML version 1.2022.8beta8(Unknown compile time)
(GPL source distribution)
Java Runtime: Java(TM) SE Runtime Environment
JVM: Java HotSpot(TM) 64-Bit Server VM
Default Encoding: UTF-8
Language: en
Country: US
--></g></svg>