<?xml version="1.0" encoding="UTF-8" standalone="no"?><svg xmlns="http://www.w3.org/2000/svg" xmlns:xlink="http://www.w3.org/1999/xlink" contentStyleType="text/css" height="641px" preserveAspectRatio="none" style="width:572px;height:641px;background:#FFFFFF;" version="1.1" viewBox="0 0 572 641" width="572px" zoomAndPan="magnify"><defs/><g><!--entity nv--><g id="elem_nv"><rect fill="#F1F1F1" height="36.2969" rx="2.5" ry="2.5" style="stroke:#181818;stroke-width:0.5;" width="142" x="305.5" y="7"/><text fill="#000000" font-family="sans-serif" font-size="14" lengthAdjust="spacing" textLength="122" x="315.5" y="29.9951">Need versioning?</text></g><!--entity atomic--><g id="elem_atomic"><rect fill="#F1F1F1" height="36.2969" rx="2.5" ry="2.5" style="stroke:#181818;stroke-width:0.5;" width="217" x="157" y="120"/><text fill="#000000" font-family="sans-serif" font-size="14" lengthAdjust="spacing" textLength="197" x="167" y="142.9951">Directories must be atomic</text></g><!--entity atomic2--><g id="elem_atomic2"><rect fill="#F1F1F1" height="36.2969" rx="2.5" ry="2.5" style="stroke:#181818;stroke-width:0.5;" width="217" x="319" y="486"/><text fill="#000000" font-family="sans-serif" font-size="14" lengthAdjust="spacing" textLength="197" x="329" y="508.9951">Directories must be atomic</text></g><!--entity cr--><g id="elem_cr"><rect fill="#F1F1F1" height="36.2969" rx="2.5" ry="2.5" style="stroke:#181818;stroke-width:0.5;" width="172" x="179.5" y="264"/><text fill="#000000" font-family="sans-serif" font-size="14" lengthAdjust="spacing" textLength="152" x="189.5" y="286.9951">Checksums required?</text></g><!--entity ocfl--><g id="elem_ocfl"><rect fill="#F1F1F1" height="36.2969" rx="2.5" ry="2.5" style="stroke:#181818;stroke-width:0.5;" width="86" x="275.5" y="599"/><text fill="#000000" font-family="sans-serif" font-size="14" lengthAdjust="spacing" textLength="66" x="285.5" y="621.9951">Use OCFL</text></g><!--entity bagit--><g id="elem_bagit"><rect fill="#F1F1F1" height="36.2969" rx="2.5" ry="2.5" style="stroke:#181818;stroke-width:0.5;" width="233" x="7" y="599"/><text fill="#000000" font-family="sans-serif" font-size="14" lengthAdjust="spacing" textLength="213" x="17" y="621.9951">Consider BagIt based solution</text></g><!--entity ns--><g id="elem_ns"><rect fill="#F1F1F1" height="36.2969" rx="2.5" ry="2.5" style="stroke:#181818;stroke-width:0.5;" width="169" x="397" y="599"/><text fill="#000000" font-family="sans-serif" font-size="14" lengthAdjust="spacing" textLength="149" x="407" y="621.9951">Create new standard</text></g><!--link nv to atomic--><g id="link_nv_atomic"><path d="M359.156,43.344 C339.525,62.975 307.549,94.951 286.516,115.984 " fill="none" id="nv-to-atomic" style="stroke:#181818;stroke-width:1.0;"/><polygon fill="#181818" points="282.722,119.778,291.9144,116.2425,286.2575,116.2425,286.2575,110.5856,282.722,119.778" style="stroke:#181818;stroke-width:1.0;"/><text fill="#000000" font-family="sans-serif" font-size="13" lengthAdjust="spacing" textLength="17" x="328.5" y="86.0669">No</text></g><!--link atomic to bagit--><g id="link_atomic_bagit"><path d="M198.658,156.015 C161.828,169.843 123.5,193.679 123.5,233 C123.5,233 123.5,233 123.5,505 C123.5,535.6858 123.5,571.1433 123.5,593.5642 " fill="none" id="atomic-to-bagit" style="stroke:#181818;stroke-width:1.0;"/><polygon fill="#181818" points="123.5,598.6961,127.5,589.6961,123.5,593.6961,119.5,589.6961,123.5,598.6961" style="stroke:#181818;stroke-width:1.0;"/><text fill="#000000" font-family="sans-serif" font-size="13" lengthAdjust="spacing" textLength="23" x="124.5" y="374.0669">Yes</text></g><!--link atomic to cr--><g id="link_atomic_cr"><path d="M265.5,156.129 C265.5,181.822 265.5,230.35 265.5,258.752 " fill="none" id="atomic-to-cr" style="stroke:#181818;stroke-width:1.0;"/><polygon fill="#181818" points="265.5,263.811,269.5,254.811,265.5,258.811,261.5,254.811,265.5,263.811" style="stroke:#181818;stroke-width:1.0;"/><text fill="#000000" font-family="sans-serif" font-size="13" lengthAdjust="spacing" textLength="17" x="266.5" y="199.0669">No</text></g><!--link cr to ocfl--><g id="link_cr_ocfl"><path d="M265.5,300.033 C265.5,317.289 265.5,344.75 265.5,368.5 C265.5,368.5 265.5,368.5 265.5,505 C265.5,538.8341 285.801,573.3053 301.274,594.6653 " fill="none" id="cr-to-ocfl" style="stroke:#181818;stroke-width:1.0;"/><polygon fill="#181818" points="304.297,598.7585,302.1672,589.1427,301.3263,594.7367,295.7323,593.8958,304.297,598.7585" style="stroke:#181818;stroke-width:1.0;"/><text fill="#000000" font-family="sans-serif" font-size="13" lengthAdjust="spacing" textLength="23" x="266.5" y="421.0669">Yes</text></g><!--link nv to atomic2--><g id="link_nv_atomic2"><path d="M390.167,43.328 C405.274,64.265 427.5,101.159 427.5,137 C427.5,137 427.5,137 427.5,417.5 C427.5,439.023 427.5,463.595 427.5,480.856 " fill="none" id="nv-to-atomic2" style="stroke:#181818;stroke-width:1.0;"/><polygon fill="#181818" points="427.5,485.967,431.5,476.967,427.5,480.967,423.5,476.967,427.5,485.967" style="stroke:#181818;stroke-width:1.0;"/><text fill="#000000" font-family="sans-serif" font-size="13" lengthAdjust="spacing" textLength="23" x="428.5" y="286.5669">Yes</text></g><!--link atomic2 to ocfl--><g id="link_atomic2_ocfl"><path d="M410.469,522.344 C391.191,541.975 359.791,573.9511 339.138,594.9836 " fill="none" id="atomic2-to-ocfl" style="stroke:#181818;stroke-width:1.0;"/><polygon fill="#181818" points="335.412,598.778,344.5714,595.1578,338.9147,595.21,338.8625,589.5534,335.412,598.778" style="stroke:#181818;stroke-width:1.0;"/><text fill="#000000" font-family="sans-serif" font-size="13" lengthAdjust="spacing" textLength="17" x="380.5" y="565.0669">No</text></g><!--link atomic2 to ns--><g id="link_atomic2_ns"><path d="M435.938,522.344 C445.369,541.7307 460.657,573.1569 470.891,594.1931 " fill="none" id="atomic2-to-ns" style="stroke:#181818;stroke-width:1.0;"/><polygon fill="#181818" points="473.122,598.778,472.7814,588.935,470.9345,594.2819,465.5877,592.435,473.122,598.778" style="stroke:#181818;stroke-width:1.0;"/><text fill="#000000" font-family="sans-serif" font-size="13" lengthAdjust="spacing" textLength="23" x="458.5" y="565.0669">Yes</text></g><!--SRC=[bP2n3W8X38RtUuh6dSNHGHCr9YP69mT7X7eIxo2sd0x6TxV2dLxKHHQW_R_sRmbDrBwi40PhH0iN97R1ErzE1g0P_0LkHN4lvD1REdVFJo2737N34VO8EeRQcGJb9xJalzpm1pWxeZbnKpCGdXkfOhCzGz_QBIDiPejL4WHpgBAaNoruTXO9fhfSYWdDCZc7geaoUiBskdJnXmr27H4yNe4bPZNPl2LkjR8kPSFLgt6tX16iGz6-bSf99UdSOGGxv5Uw9MMeHCdTXT8OMVniqQlJxQnVQVZ9lIoyCs8v8Gy0]--></g></svg>