<?xml version="1.0" encoding="UTF-8" standalone="no"?><svg xmlns="http://www.w3.org/2000/svg" xmlns:xlink="http://www.w3.org/1999/xlink" contentStyleType="text/css" height="634px" preserveAspectRatio="none" style="width:988px;height:634px;background:#FFFFFF;" version="1.1" viewBox="0 0 988 634" width="988px" zoomAndPan="magnify"><defs/><g><!--cluster atap--><g id="cluster_atap"><path d="M563.2086,205.0113 C568.9384,189.4752 581.1533,190.6846 590.2002,201.6303 C598.4437,190.804 606.308,186.7059 615.9582,200.1367 C622.943,189.594 633.267,189.6192 640.2052,200.1903 C649.2664,184.3785 659.7051,185.5198 670.3077,198.5836 C677.5685,187.2621 689.9792,186.1273 697.0221,198.8259 C702.1922,186.6549 714.6049,185.8285 722.2496,196.0363 C731.0151,185.6258 742.5064,183.2853 749.2171,198.2224 C757.3802,186.78 770.2267,186.6273 777.705,199.0401 C786.9948,187.2317 795.6201,188.6924 803.2504,200.8118 C810.3719,189.0456 822.8651,187.0186 830.6499,200.0797 C837.6285,189.6503 848.054,191.0407 854.0577,201.1887 C864.4893,187.7296 876.8079,189.1435 885.6629,203.0121 C892.9791,189.4603 901.201,191.9114 910.2342,201.1619 C922.2049,186.4916 936.1283,190.3063 941.5,207.6139 C942.2709,207.0341 942.8693,207.4566 942.9634,208.3066 C964.4248,217.9339 964.4574,231.5668 948.181,246.3673 C963.6985,265.3272 960.0495,282.2754 934.5,287.6139 C936.1748,287.3179 937.1623,288.0272 936.8745,289.8321 C928.9899,303.8421 919.0946,301.3928 910.5003,290.5864 C905.0635,307.6588 890.7848,307.0229 880.994,295.0023 C874.2539,308.2645 861.6009,308.0093 855.345,294.5377 C847.7586,306.915 834.6126,305.2114 828.3297,293.0997 C823.6288,305.9514 812.9789,310.9871 802.5466,299.0644 C793.6721,310.7523 784.728,313.6585 774.7106,300.3364 C765.0836,313.56 755.3585,312.6456 747.68,298.4177 C741.5232,308.8206 730.3021,309.2801 724.7146,297.8197 C716.7509,313.3321 703.955,312.1467 695.1957,298.6288 C686.5142,308.8966 677.9874,308.1388 670.7187,297.0124 C660.716,308.1612 647.9819,307.1228 643.2345,291.5974 C636.0406,303.1987 622.8961,303.922 615.0026,292.4535 C607.5772,306.5375 596.6033,306.0555 589.0636,292.561 C572.4943,305.9803 557.0471,301.8499 551.5,280.6139 C553.1372,281.4312 553.3203,282.5516 552.169,283.9312 C533.5489,275.5561 527.6854,263.1733 541.9646,245.9574 C527.0291,223.8741 531.099,207.2584 558.5,200.6139 C561.9079,199.5925 563.6678,201.8919 563.2086,205.0113 " fill="none" style="stroke:#181818;stroke-width:1.0;"/><text fill="#000000" font-family="sans-serif" font-size="14" font-weight="bold" lengthAdjust="spacing" textLength="223" x="632.5" y="218.609">ATAP analytics 'Ecosystem'</text></g><!--entity Git service--><g id="elem_Git service"><rect fill="#F1F1F1" height="36.2969" rx="2.5" ry="2.5" style="stroke:#181818;stroke-width:0.5;" width="97" x="828" y="235.6139"/><text fill="#000000" font-family="sans-serif" font-size="14" lengthAdjust="spacing" textLength="77" x="838" y="258.609">Git service</text></g><!--entity BinderHub Launch Service--><g id="elem_BinderHub Launch Service"><rect fill="#F1F1F1" height="36.2969" rx="2.5" ry="2.5" style="stroke:#181818;stroke-width:0.5;" width="206" x="586.5" y="235.6139"/><text fill="#000000" font-family="sans-serif" font-size="14" lengthAdjust="spacing" textLength="186" x="596.5" y="258.609">BinderHub Launch Service</text></g><!--entity oni--><g id="elem_oni"><rect fill="#FFFF00" height="52.5938" rx="2.5" ry="2.5" style="stroke:#181818;stroke-width:0.5;" width="233" x="207" y="227.1139"/><text fill="#000000" font-family="sans-serif" font-size="14" font-style="italic" lengthAdjust="spacing" textLength="40" x="303.5" y="250.109">«oni»</text><text fill="#000000" font-family="sans-serif" font-size="14" lengthAdjust="spacing" textLength="213" x="217" y="266.4059">LDaCA Search / browse portal</text></g><!--entity elastic--><g id="elem_elastic"><rect fill="#FFFF00" height="52.5938" rx="2.5" ry="2.5" style="stroke:#181818;stroke-width:0.5;" width="173" x="174" y="366.6139"/><text fill="#000000" font-family="sans-serif" font-size="14" font-style="italic" lengthAdjust="spacing" textLength="40" x="240.5" y="389.609">«oni»</text><text fill="#000000" font-family="sans-serif" font-size="14" lengthAdjust="spacing" textLength="153" x="184" y="405.9059">Full text search index</text></g><!--entity api--><g id="elem_api"><rect fill="#FFFF00" height="52.5938" rx="2.5" ry="2.5" style="stroke:#181818;stroke-width:0.5;" width="149" x="419" y="366.6139"/><text fill="#000000" font-family="sans-serif" font-size="14" font-style="italic" lengthAdjust="spacing" textLength="40" x="473.5" y="389.609">«oni»</text><text fill="#000000" font-family="sans-serif" font-size="14" lengthAdjust="spacing" textLength="129" x="429" y="405.9059">Data &amp; Access API</text></g><!--entity ocfl--><g id="elem_ocfl"><path d="M364.5,506.6139 C364.5,496.6139 493.5,496.6139 493.5,496.6139 C493.5,496.6139 622.5,496.6139 622.5,506.6139 L622.5,531.9107 C622.5,541.9107 493.5,541.9107 493.5,541.9107 C493.5,541.9107 364.5,541.9107 364.5,531.9107 L364.5,506.6139 " fill="#F1F1F1" style="stroke:#181818;stroke-width:0.5;"/><path d="M364.5,506.6139 C364.5,516.6139 493.5,516.6139 493.5,516.6139 C493.5,516.6139 622.5,516.6139 622.5,506.6139 " fill="none" style="stroke:#181818;stroke-width:0.5;"/><text fill="#000000" font-family="sans-serif" font-size="14" lengthAdjust="spacing" textLength="238" x="374.5" y="533.609">LDaCA file-based data repository</text></g><!--entity auth--><g id="elem_auth"><path d="M350.7461,25.1204 C354.5533,13.2589 365.3047,12.6306 372.8766,21.0028 C379.4619,11.4686 386.5363,9.6314 393.4561,20.6681 C399.6175,11.822 406.9186,13.0506 412.3198,21.4974 C418.0753,11.4441 425.1683,11.5428 431.8074,20.5963 C437.9514,8.2922 446.5174,6.1286 455.3415,17.9858 C460.7816,7.4263 469.4198,8.656 474.9485,17.8981 C479.6019,6.8434 488.8012,6 496.0812,15.1509 C503.3703,6.8391 509.2323,8.1516 514.4037,17.365 C520.619,9.1482 530.4461,7.6497 535.3531,18.7815 C542.1991,9.5708 550.1586,9.5987 556.3586,19.4918 C563.3789,10.9157 572.6743,10.5172 578.4195,20.9701 C584.5912,9.3012 592.4999,8.3104 600.1205,19.6007 C606.0385,11.488 612.5286,13.1677 617.4277,20.726 C624.966,9.8733 631.9645,12.8902 638.234,22.0454 C643.8923,21.8756 645.6764,26.326 642.5576,30.595 C647.6661,31.0401 648.1155,34.2179 646.0044,38.0162 C648.9028,42.1425 646.2965,45.5405 641.8134,45.5731 C645.624,48.6802 644.6509,53.0007 640.0136,54.3818 C633.7687,65.7954 626.0298,64.4597 618.7291,55.484 C614.0171,65.7942 606.1147,66.5375 599.3302,57.5695 C593.9466,67.5684 583.0095,67.3754 577.282,57.9599 C572.1525,66.9694 563.2293,66.2665 557.8719,58.2193 C552.3447,68.5271 543.996,69.9245 537.1928,59.4917 C531.9138,68.91 520.8789,70.0907 515.0389,60.1331 C509.3754,71.4793 501.5095,70.5416 493.6911,62.5067 C488.9034,71.6175 481.6534,72.3682 475.781,63.5928 C466.3036,73.3065 458.1651,69.9757 452.6794,59.1116 C447.0653,67.9379 439.3969,65.1276 435.3033,57.5054 C429.8956,66.7841 421.4173,70.2449 414.0133,59.6431 C404.1823,69.3261 396.6567,68.4127 391.3046,55.2007 C385.3918,64.4383 377.8799,63.3231 372.051,55.1081 C364.1412,64.3432 355.5593,62.089 350.2574,52.1447 C345.3017,51.8374 343.5824,49.3965 345.1211,44.6427 C340.8104,45.149 338.1088,42.9611 339.9425,38.3837 C337.3672,33.6075 339.2707,30.6374 344.6444,30.7702 C343.7059,26.5652 346.8134,24.0645 350.7461,25.1204 " fill="#F1F1F1" style="stroke:#181818;stroke-width:0.5;"/><text fill="#000000" font-family="sans-serif" font-size="14" lengthAdjust="spacing" textLength="275" x="356" y="41.609">Authentication &amp; Group services (AAF)</text></g><g id="elem_GMN15"><path d="M6,602.6139 L6,627.7467 L981,627.7467 L981,612.6139 L971,602.6139 L6,602.6139 " fill="#FFFFFF" style="stroke:#181818;stroke-width:0.5;"/><path d="M971,602.6139 L971,612.6139 L981,612.6139 L971,602.6139 " fill="#FFFFFF" style="stroke:#181818;stroke-width:1.0;"/><text fill="#000000" font-family="sans-serif" font-size="13" lengthAdjust="spacing" textLength="954" x="12" y="619.6808">All data stored using the Research Object Crate metadata specification, with an OLAC-derived metadata schema and with re-use license information</text></g><!--link atap to api--><g id="link_atap_api"><path d="M543.4963,273.5884 C543.386,273.8498 543.2749,274.1132 543.1629,274.3787 C542.939,274.9096 542.7116,275.4486 542.481,275.9953 C542.0197,277.0889 541.5453,278.2136 541.0589,279.3667 C539.1132,283.9794 536.9753,289.0477 534.7164,294.4029 C525.6808,315.8236 514.709,341.8344 506.358,361.6319 " fill="none" id="atap-to-api" style="stroke:#181818;stroke-width:1.0;"/><polygon fill="#181818" points="504.375,366.3319,511.5578,359.5934,506.3178,361.7248,504.1864,356.4848,504.375,366.3319" style="stroke:#181818;stroke-width:1.0;"/><text fill="#000000" font-family="sans-serif" font-size="13" lengthAdjust="spacing" textLength="94" x="523.5" y="332.6808">Consume data</text></g><!--link oni to api--><g id="link_oni_api"><path d="M359.084,283.3949 C388.002,306.7849 428.612,339.6309 457.612,363.0869 " fill="none" id="oni-api" style="stroke:#181818;stroke-width:1.0;"/><polygon fill="#181818" points="355.077,280.1539,359.5588,288.9239,358.9644,283.2984,364.59,282.7041,355.077,280.1539" style="stroke:#181818;stroke-width:1.0;"/><polygon fill="#181818" points="461.804,366.4769,457.3207,357.7076,457.916,363.3331,452.2906,363.9284,461.804,366.4769" style="stroke:#181818;stroke-width:1.0;"/></g><!--link auth to api--><g id="link_auth_api"><path d="M493.5,65.1649 C493.5,130.1519 493.5,292.6649 493.5,361.0329 " fill="none" id="auth-api" style="stroke:#181818;stroke-width:1.0;"/><polygon fill="#181818" points="493.5,59.7899,489.5,68.7899,493.5,64.7899,497.5,68.7899,493.5,59.7899" style="stroke:#181818;stroke-width:1.0;"/><polygon fill="#181818" points="493.5,366.1809,497.5,357.1809,493.5,361.1809,489.5,357.1809,493.5,366.1809" style="stroke:#181818;stroke-width:1.0;"/><text fill="#000000" font-family="sans-serif" font-size="13" lengthAdjust="spacing" textLength="100" x="494.5" y="164.6808">Authorize users</text></g><!--link elastic to api--><g id="link_elastic_api"><path d="M347.261,393.1139 C369.061,393.1139 392.35,393.1139 413.788,393.1139 " fill="none" id="elastic-to-api" style="stroke:#181818;stroke-width:1.0;"/><polygon fill="#181818" points="418.906,393.1139,409.906,389.1139,413.906,393.1139,409.906,397.1139,418.906,393.1139" style="stroke:#181818;stroke-width:1.0;"/><text fill="#000000" font-family="sans-serif" font-size="13" lengthAdjust="spacing" textLength="35" x="365.5" y="386.1808">index</text></g><!--link api to ocfl--><g id="link_api_ocfl"><path d="M493.5,419.8069 C493.5,440.7339 493.5,470.1809 493.5,491.3829 " fill="none" id="api-to-ocfl" style="stroke:#181818;stroke-width:1.0;"/><polygon fill="#181818" points="493.5,496.5859,497.5,487.5859,493.5,491.5859,489.5,487.5859,493.5,496.5859" style="stroke:#181818;stroke-width:1.0;"/><text fill="#000000" font-family="sans-serif" font-size="13" lengthAdjust="spacing" textLength="276" x="494.5" y="462.6808">Mediate secure access according to license</text></g><!--link ocfl to GMN15--><g id="link_ocfl_GMN15"><path d="M493.5,541.9157 C493.5,560.7896 493.5,587.3606 493.5,602.4461 " fill="none" id="ocfl-GMN15" style="stroke:#181818;stroke-width:1.0;stroke-dasharray:7.0,7.0;"/></g><!--SRC=[ZLBBRjmm3BpxAmWVcXQeqNkmMC1nchJ05WdQ_W0jqsiricZe4MTRvDzBQwrDjhbK5nlY36Sub7_GTaA78pXI0UtUK8lgOUyusgvXmswpOQktMpYGCJmN_aJeC62B_h_nbWDTdMDX7dIWGeuo73iewv_rFQ15SmXQURZuhDWVVA3n0af03o8vmPy2v9pyGdch0tXoZrfHATLKVluNTALjH-vBR667qQe1VhmmO3qhyxaeNX5trzZKWaOdf4_GEfuzmSGke2aXZolcv6THFsVVH6CWqDFYC7LOR3oTySYWbt7VSgzbN7W7jLBaFTJtNyzeE6Mvl8dijTU6gkMYIqkI52RsEh0xb92Cgjwir9nx30DPCO51inNDMrdIb4FryBwkRpuSDo38bPkMKNKyssgRt5n2mzR7aP9iiUInULKl4dTJ7QzEd4MRdVvD44NF5pcE4o0bLYp_kLaQu1A-KQSnaDXKqH7WCIVviEkqtKDWC6BVUdbYo-k3baFW4RZF7MfPJeh8IpeIL_I9Dn1yftLVT-qlsGWqRb4QAU0HFv7I_PhNHvYrJ8OMxdPrKyapqu_Ix0Mi1XfHwjqHwAYIKRCtcQzdDwPEVm40]--></g></svg>