<?xml version="1.0" encoding="UTF-8" standalone="no"?><svg xmlns="http://www.w3.org/2000/svg" xmlns:xlink="http://www.w3.org/1999/xlink" contentStyleType="text/css" height="596px" preserveAspectRatio="none" style="width:988px;height:596px;background:#FFFFFF;" version="1.1" viewBox="0 0 988 596" width="988px" zoomAndPan="magnify"><defs/><g><!--entity atap--><g id="elem_atap"><rect fill="#F1F1F1" height="36.2969" rx="2.5" ry="2.5" style="stroke:#181818;stroke-width:0.5;" width="217" x="125" y="207.1139"/><text fill="#000000" font-family="sans-serif" font-size="14" lengthAdjust="spacing" textLength="197" x="135" y="230.109">ATAP analytics (notebooks)</text></g><!--entity oni--><g id="elem_oni"><rect fill="#FFFF00" height="52.5938" rx="2.5" ry="2.5" style="stroke:#181818;stroke-width:0.5;" width="233" x="377" y="198.6139"/><text fill="#000000" font-family="sans-serif" font-size="14" font-style="italic" lengthAdjust="spacing" textLength="40" x="473.5" y="221.609">«oni»</text><text fill="#000000" font-family="sans-serif" font-size="14" lengthAdjust="spacing" textLength="213" x="387" y="237.9059">LDaCA Search / browse portal</text></g><!--entity elastic--><g id="elem_elastic"><rect fill="#FFFF00" height="52.5938" rx="2.5" ry="2.5" style="stroke:#181818;stroke-width:0.5;" width="173" x="174" y="328.6139"/><text fill="#000000" font-family="sans-serif" font-size="14" font-style="italic" lengthAdjust="spacing" textLength="40" x="240.5" y="351.609">«oni»</text><text fill="#000000" font-family="sans-serif" font-size="14" lengthAdjust="spacing" textLength="153" x="184" y="367.9059">Full text search index</text></g><!--entity api--><g id="elem_api"><rect fill="#FFFF00" height="52.5938" rx="2.5" ry="2.5" style="stroke:#181818;stroke-width:0.5;" width="149" x="419" y="328.6139"/><text fill="#000000" font-family="sans-serif" font-size="14" font-style="italic" lengthAdjust="spacing" textLength="40" x="473.5" y="351.609">«oni»</text><text fill="#000000" font-family="sans-serif" font-size="14" lengthAdjust="spacing" textLength="129" x="429" y="367.9059">Data &amp; Access API</text></g><!--entity ocfl--><g id="elem_ocfl"><path d="M364.5,468.6139 C364.5,458.6139 493.5,458.6139 493.5,458.6139 C493.5,458.6139 622.5,458.6139 622.5,468.6139 L622.5,493.9107 C622.5,503.9107 493.5,503.9107 493.5,503.9107 C493.5,503.9107 364.5,503.9107 364.5,493.9107 L364.5,468.6139 " fill="#F1F1F1" style="stroke:#181818;stroke-width:0.5;"/><path d="M364.5,468.6139 C364.5,478.6139 493.5,478.6139 493.5,478.6139 C493.5,478.6139 622.5,478.6139 622.5,468.6139 " fill="none" style="stroke:#181818;stroke-width:0.5;"/><text fill="#000000" font-family="sans-serif" font-size="14" lengthAdjust="spacing" textLength="238" x="374.5" y="495.609">LDaCA file-based data repository</text></g><!--entity auth--><g id="elem_auth"><path d="M520.7461,25.1204 C524.5533,13.2589 535.3047,12.6306 542.8766,21.0028 C549.4619,11.4686 556.5363,9.6314 563.4561,20.6681 C569.6175,11.822 576.9186,13.0506 582.3198,21.4974 C588.0753,11.4441 595.1683,11.5428 601.8074,20.5963 C607.9514,8.2922 616.5174,6.1286 625.3415,17.9858 C630.7816,7.4263 639.4198,8.656 644.9485,17.8981 C649.6019,6.8434 658.8012,6 666.0812,15.1509 C673.3703,6.8391 679.2323,8.1516 684.4037,17.365 C690.619,9.1482 700.4461,7.6497 705.3531,18.7815 C712.1991,9.5708 720.1586,9.5987 726.3586,19.4918 C733.3789,10.9157 742.6743,10.5172 748.4195,20.9701 C754.5912,9.3012 762.4999,8.3104 770.1205,19.6007 C776.0385,11.488 782.5286,13.1677 787.4277,20.726 C794.966,9.8733 801.9645,12.8902 808.234,22.0454 C813.8923,21.8756 815.6764,26.326 812.5576,30.595 C817.6661,31.0401 818.1155,34.2179 816.0044,38.0162 C818.9028,42.1425 816.2965,45.5405 811.8134,45.5731 C815.624,48.6802 814.6509,53.0007 810.0136,54.3818 C803.7687,65.7954 796.0298,64.4597 788.7291,55.484 C784.0171,65.7942 776.1147,66.5375 769.3302,57.5695 C763.9466,67.5684 753.0095,67.3754 747.282,57.9599 C742.1525,66.9694 733.2293,66.2665 727.8719,58.2193 C722.3447,68.5271 713.996,69.9245 707.1928,59.4917 C701.9138,68.91 690.8789,70.0907 685.0389,60.1331 C679.3754,71.4793 671.5095,70.5416 663.6911,62.5067 C658.9034,71.6175 651.6534,72.3682 645.781,63.5928 C636.3036,73.3065 628.1651,69.9757 622.6794,59.1116 C617.0653,67.9379 609.3969,65.1276 605.3033,57.5054 C599.8956,66.7841 591.4173,70.2449 584.0133,59.6431 C574.1823,69.3261 566.6567,68.4127 561.3046,55.2007 C555.3918,64.4383 547.8799,63.3231 542.051,55.1081 C534.1412,64.3432 525.5593,62.089 520.2574,52.1447 C515.3017,51.8374 513.5824,49.3965 515.1211,44.6427 C510.8104,45.149 508.1088,42.9611 509.9425,38.3837 C507.3672,33.6075 509.2707,30.6374 514.6444,30.7702 C513.7059,26.5652 516.8134,24.0645 520.7461,25.1204 " fill="#F1F1F1" style="stroke:#181818;stroke-width:0.5;"/><text fill="#000000" font-family="sans-serif" font-size="14" lengthAdjust="spacing" textLength="275" x="526" y="41.609">Authentication &amp; Group services (AAF)</text></g><g id="elem_GMN13"><path d="M6,564.6139 L6,589.7467 L981,589.7467 L981,574.6139 L971,564.6139 L6,564.6139 " fill="#FFFFFF" style="stroke:#181818;stroke-width:0.5;"/><path d="M971,564.6139 L971,574.6139 L981,574.6139 L971,564.6139 " fill="#FFFFFF" style="stroke:#181818;stroke-width:1.0;"/><text fill="#000000" font-family="sans-serif" font-size="13" lengthAdjust="spacing" textLength="954" x="12" y="581.6808">All data stored using the Research Object Crate metadata specification, with an OLAC-derived metadata schema and with re-use license information</text></g><!--link atap to api--><g id="link_atap_api"><path d="M268.295,243.2439 C311.412,264.4709 385.459,300.9239 436.819,326.2089 " fill="none" id="atap-to-api" style="stroke:#181818;stroke-width:1.0;"/><polygon fill="#181818" points="441.406,328.4679,435.0985,320.9038,436.9202,326.2593,431.5647,328.081,441.406,328.4679" style="stroke:#181818;stroke-width:1.0;"/><text fill="#000000" font-family="sans-serif" font-size="13" lengthAdjust="spacing" textLength="94" x="380.5" y="294.6808">Consume data</text></g><!--link oni to api--><g id="link_oni_api"><path d="M493.5,256.8349 C493.5,276.9629 493.5,303.1739 493.5,323.3169 " fill="none" id="oni-api" style="stroke:#181818;stroke-width:1.0;"/><polygon fill="#181818" points="493.5,251.7089,489.5,260.7089,493.5,256.7089,497.5,260.7089,493.5,251.7089" style="stroke:#181818;stroke-width:1.0;"/><polygon fill="#181818" points="493.5,328.5629,497.5,319.5629,493.5,323.5629,489.5,319.5629,493.5,328.5629" style="stroke:#181818;stroke-width:1.0;"/></g><!--link auth to api--><g id="link_auth_api"><path d="M665.048,64.7709 C666.221,107.6429 663.278,192.2299 627.5,251.6139 C608.561,283.0489 576.061,308.2669 547.812,325.8229 " fill="none" id="auth-api" style="stroke:#181818;stroke-width:1.0;"/><polygon fill="#181818" points="664.886,59.7539,661.1787,68.8783,665.0474,64.7513,669.1745,68.62,664.886,59.7539" style="stroke:#181818;stroke-width:1.0;"/><polygon fill="#181818" points="543.317,328.5749,553.0816,327.2897,547.582,325.9653,548.9063,320.4657,543.317,328.5749" style="stroke:#181818;stroke-width:1.0;"/><text fill="#000000" font-family="sans-serif" font-size="13" lengthAdjust="spacing" textLength="100" x="660.5" y="164.6808">Authorize users</text></g><!--link elastic to api--><g id="link_elastic_api"><path d="M347.261,355.1139 C369.061,355.1139 392.35,355.1139 413.788,355.1139 " fill="none" id="elastic-to-api" style="stroke:#181818;stroke-width:1.0;"/><polygon fill="#181818" points="418.906,355.1139,409.906,351.1139,413.906,355.1139,409.906,359.1139,418.906,355.1139" style="stroke:#181818;stroke-width:1.0;"/><text fill="#000000" font-family="sans-serif" font-size="13" lengthAdjust="spacing" textLength="35" x="365.5" y="348.1808">index</text></g><!--link api to ocfl--><g id="link_api_ocfl"><path d="M493.5,381.8069 C493.5,402.7339 493.5,432.1809 493.5,453.3829 " fill="none" id="api-to-ocfl" style="stroke:#181818;stroke-width:1.0;"/><polygon fill="#181818" points="493.5,458.5859,497.5,449.5859,493.5,453.5859,489.5,449.5859,493.5,458.5859" style="stroke:#181818;stroke-width:1.0;"/><text fill="#000000" font-family="sans-serif" font-size="13" lengthAdjust="spacing" textLength="276" x="494.5" y="424.6808">Mediate secure access according to license</text></g><!--link ocfl to GMN13--><g id="link_ocfl_GMN13"><path d="M493.5,503.9157 C493.5,522.7896 493.5,549.3606 493.5,564.4461 " fill="none" id="ocfl-GMN13" style="stroke:#181818;stroke-width:1.0;stroke-dasharray:7.0,7.0;"/></g><!--SRC=[ZPB1Qjmm48RlVefX3oM1cDx3ig0uf1HI4jg-m5WQhzMLDKQIusnBtprZsTvasKjyiP7cd_-VRnmFrlSOi8D0Eg7VEwfH7_Q11sygTXosM_PsjuCZESTZ4Ky2WmbhZ9-kzvpexhmMnjOcAkGvkSD6_LRFW1xTCLaTuMhIrSo7UBq1Z22kFVmhYlzdeiTxh1Jy8WowXQzG1nuZGSyXeTl0cadayd6fVXYSWqIl2UBSmNf3hsSwSXWbpwNsNWB15r1QKuoWdh-VoR1VxLPSQzR6EYgd0vD92l-UeqqSZXl8GNNZ5gbsF1W1CwIMl8J0PDcBvpSXsKlay6B57AwKUbWOIUMYpRXAmwClTpdDBLJiuz1HjYqc7jiFzqNMRilvwAIPl3dOlmI3-CLYnN4goCIAwNjjbWUuXHzaB2QIc7e813XpaXS7O_qU4eEJ-3xAVp2j6cfEYJlWPksWP3aPKHGwWck8MTSI_AHbNq_r7za8L65owYZXND-Jjit2wmP6AvEXXwT7LPM6WdsHPk_5kgKEvTxCXO5A6NND9lCr7BhSwGq0]--></g></svg>