<?xml version="1.0" encoding="UTF-8" standalone="no"?><svg xmlns="http://www.w3.org/2000/svg" xmlns:xlink="http://www.w3.org/1999/xlink" contentStyleType="text/css" height="756px" preserveAspectRatio="none" style="width:1470px;height:756px;background:#FFFFFF;" version="1.1" viewBox="0 0 1470 756" width="1470px" zoomAndPan="magnify"><defs/><g><text fill="#000000" font-family="Chalkduster" font-size="42" font-weight="bold" lengthAdjust="spacing" textLength="859" x="298.5" y="51.7215">Distributed access control summary</text><!--cluster auths--><g id="cluster_auths"><polygon fill="none" points="365.5,398.3912,365.5,398.6013,375.4481,397.9768,385.3961,398.5844,395.3442,398.7908,405.2922,397.6778,415.2403,398.3134,425.1883,397.9647,435.1364,398.0077,445.0844,398.323,455.0325,397.6998,464.9805,398.9448,474.9286,397.7609,484.8766,398.1934,494.8247,398.8231,504.7727,398.3054,514.7208,398.4594,524.6688,398.3592,534.6169,398.5697,544.5649,398.6303,554.513,398.9769,564.461,399.0622,574.4091,399.0704,584.3571,398.6458,594.3052,398.8547,604.2532,399.0934,614.2013,397.67,624.1494,399.0697,634.0974,398.0947,644.0455,398.925,653.9935,397.8961,663.9416,398.3227,673.8896,399.1328,683.8377,398.3424,693.7857,398.4965,703.7338,398.7298,713.6818,398.8074,723.6299,398.3873,733.5779,398.6784,743.526,397.8187,753.474,398.6755,763.4221,398.9394,773.3701,398.8357,783.3182,399.0042,793.2662,397.9081,803.2143,397.739,813.1623,397.7698,823.1104,398.3323,833.0584,398.1946,843.0065,399.0726,852.9545,398.2165,862.9026,398.0481,872.8506,398.6194,882.7987,397.7243,892.7468,397.872,902.6948,399.0401,912.6429,398.8268,922.5909,399.1257,932.539,398.0694,942.487,398.7104,952.4351,398.9816,962.3831,397.9188,972.3312,398.2953,982.2792,398.5171,992.2273,399.0429,1002.1753,398.387,1012.1234,398.8537,1022.0714,397.8374,1032.0195,397.7139,1041.9675,398.8948,1051.9156,397.6742,1061.8636,398.9001,1071.8117,398.5978,1081.7597,398.1232,1091.7078,398.0374,1101.6558,398.8499,1111.6039,398.0918,1121.5519,398.983,1131.5,398.3912,1131.4295,398.2209,1131.9323,398.7277,1132.2689,398.8332,1132.5919,398.9059,1132.9202,398.9915,1133.2678,399.1234,1133.4915,399.2161,1133.6032,399.5552,1133.6128,399.8521,1133.7897,400.2183,1133.8134,400.521,1134,400.8912,1134.7165,400.8912,1134.1549,410.9794,1134.1726,421.0676,1133.3916,431.1559,1133.5948,441.2441,1134.5307,451.3323,1134.4298,461.4206,1133.9571,471.5088,1133.6778,481.597,1133.7811,491.6853,1133.3138,501.7735,1134.4147,511.8617,1134.7396,521.95,1134.5264,532.0382,1134.6949,542.1265,1133.8633,552.2147,1134.0872,562.3029,1133.6124,572.3912,1134.284,582.4794,1134.2468,592.5676,1134.5524,602.6559,1133.7703,612.7441,1133.8656,622.8323,1134.4435,632.9206,1134.5673,643.0088,1133.4875,653.097,1133.8061,663.1853,1134.1493,673.2735,1133.3892,683.3617,1134.3534,693.45,1134.258,703.5382,1133.8992,713.6265,1134.1422,723.7147,1134.7287,733.8029,1134,743.8912,1133.9036,743.8513,1133.9506,744.2849,1133.7951,744.6347,1133.5963,744.9666,1133.4576,745.3234,1133.2678,745.6589,1133.2822,745.6939,1132.8346,745.6132,1132.5095,745.8284,1132.1482,745.9561,1131.8617,746.2644,1131.5,746.3912,1131.5,746.4793,1121.5519,746.5529,1111.6039,746.1002,1101.6558,746.3236,1091.7078,746.2709,1081.7597,746.968,1071.8117,746.8177,1061.8636,745.9056,1051.9156,746.3182,1041.9675,745.8139,1032.0195,746.6795,1022.0714,746.9996,1012.1234,746.9357,1002.1753,745.9556,992.2273,746.8551,982.2792,745.6484,972.3312,746.5913,962.3831,746.0918,952.4351,746.4879,942.487,746.6315,932.539,746.8633,922.5909,745.6712,912.6429,746.8666,902.6948,746.5693,892.7468,746.7465,882.7987,747.139,872.8506,746.3966,862.9026,746.5664,852.9545,746.6046,843.0065,746.5884,833.0584,746.3903,823.1104,747.1019,813.1623,745.7814,803.2143,746.9564,793.2662,745.7672,783.3182,745.8508,773.3701,746.4312,763.4221,746.4194,753.474,745.8983,743.526,746.8049,733.5779,746.5,723.6299,747.1178,713.6818,747.0583,703.7338,745.9429,693.7857,745.9932,683.8377,746.262,673.8896,746.7467,663.9416,746.7941,653.9935,746.6923,644.0455,746.0492,634.0974,747.0275,624.1494,747.0249,614.2013,746.3439,604.2532,746.1521,594.3052,745.9898,584.3571,746.1766,574.4091,746.5286,564.461,746.3228,554.513,745.9734,544.5649,746.8785,534.6169,745.9322,524.6688,746.8935,514.7208,746.8184,504.7727,746.763,494.8247,747.0837,484.8766,746.1453,474.9286,746.0905,464.9805,746.91,455.0325,745.7943,445.0844,746.1572,435.1364,746.5067,425.1883,746.4598,415.2403,746.0327,405.2922,746.3482,395.3442,747.1358,385.3961,747.0396,375.4481,745.7949,365.5,746.3912,365.51,746.4153,365.0809,746.0865,364.7895,746.0902,364.4767,746.0421,364.1393,745.9347,363.7322,745.6589,363.5275,745.5741,363.7091,745.3565,363.4419,744.9529,363.1219,744.5274,363.0014,744.1846,363,743.8912,363.3266,743.8912,363.2499,733.8029,362.9836,723.7147,362.3279,713.6265,363.6581,703.5382,362.6882,693.45,362.4719,683.3617,362.9327,673.2735,363.5897,663.1853,363.6154,653.097,363.0351,643.0088,362.8488,632.9206,363.1698,622.8323,363.1862,612.7441,362.4922,602.6559,363.414,592.5676,363.5588,582.4794,362.7842,572.3912,362.5708,562.3029,363.6746,552.2147,363.021,542.1265,362.9998,532.0382,363.299,521.95,362.3543,511.8617,363.53,501.7735,362.9846,491.6853,363.6688,481.597,362.7841,471.5088,363.409,461.4206,362.556,451.3323,363.245,441.2441,363.3793,431.1559,362.6727,421.0676,363.363,410.9794,363,400.8912,362.824,400.8183,363.0016,400.4776,363.5032,400.2712,363.6501,399.9178,363.7609,399.5495,363.7322,399.1234,363.6863,399.0124,364.1348,399.0953,364.3791,398.6851,364.8003,398.702,365.1463,398.5372,365.5,398.3912" style="stroke:#181818;stroke-width:4.0;"/><text fill="#000000" font-family="Chalkduster" font-size="24" font-weight="bold" lengthAdjust="spacing" textLength="465" x="516" y="424.232">Authorization and Authentication</text></g><!--cluster Repositories--><g id="cluster_Repositories"><polygon fill="#00FF7F" points="9.5,132.8912,9.5,133.1013,19.4091,132.4768,29.3182,133.0844,39.2273,133.2908,49.1364,132.1778,59.0455,132.8134,68.9545,132.4647,78.8636,132.5077,88.7727,132.823,98.6818,132.1998,108.5909,133.4448,118.5,132.2609,128.4091,132.6934,138.3182,133.3231,148.2273,132.8054,158.1364,132.9594,168.0455,132.8592,177.9545,133.0697,187.8636,133.1303,197.7727,133.4769,207.6818,133.5622,217.5909,133.5704,227.5,133.1458,237.4091,133.3547,247.3182,133.5934,257.2273,132.17,267.1364,133.5697,277.0455,132.5947,286.9545,133.425,296.8636,132.3961,306.7727,132.8227,316.6818,133.6328,326.5909,132.8424,336.5,132.8912,336.5134,132.9236,336.8967,133.1419,337.2602,133.3122,337.5602,133.3293,337.9509,133.5654,338.2678,133.6234,338.0915,133.5504,338.5018,134.0132,338.7295,134.4004,338.844,134.7408,339.0423,135.1158,339,135.3912,338.5169,135.3912,338.3478,145.4403,338.3786,155.4895,338.9411,165.5387,338.8035,175.5879,339.6814,185.6371,338.8253,195.6862,338.6569,205.7354,339.2283,215.7846,338.3332,225.8338,338.4809,235.883,339.649,245.9321,339.4357,255.9813,339.7345,266.0305,338.6782,276.0797,339.3192,286.1289,339.5904,296.178,338.5276,306.2272,338.9041,316.2764,339.126,326.3256,339.6518,336.3748,338.9958,346.4239,339.4626,356.4731,338.4462,366.5223,338.3227,376.5715,339.5036,386.6207,338.2831,396.6698,339.509,406.719,339.2066,416.7682,338.7321,426.8174,338.6462,436.8666,339.4588,446.9158,338.7007,456.9649,339.5919,467.0141,338.4473,477.0633,339.6174,487.1125,339.4843,497.1617,339.245,507.2108,339.0472,517.26,339.7266,527.3092,339.6136,537.3584,339.1693,547.4076,339.2682,557.4567,338.8697,567.5059,339.7165,577.5551,339.1549,587.6043,339.1726,597.6535,338.3916,607.7026,338.5948,617.7518,339.5307,627.801,339.4298,637.8502,338.9571,647.8994,338.6778,657.9485,338.7811,667.9977,338.3138,678.0469,339.4147,688.0961,339.7396,698.1453,339.5264,708.1944,339.6949,718.2436,338.8633,728.2928,339.0872,738.342,339,748.3912,338.8806,748.3417,338.941,748.7809,338.7831,749.1297,338.7308,749.5223,338.3435,749.7761,338.2678,750.1589,338.2506,750.1175,337.9708,750.4419,337.633,750.6265,337.1417,750.4404,336.8288,750.685,336.5,750.8912,336.5,751.0404,326.5909,750.2803,316.6818,751.2446,306.7727,751.1492,296.8636,750.7904,286.9545,751.0334,277.0455,751.6198,267.1364,750.5783,257.2273,751.2061,247.3182,751.1768,237.4091,751.0069,227.5,751.0321,217.5909,751.0046,207.6818,750.267,197.7727,750.4903,187.8636,750.4296,177.9545,750.955,168.0455,750.9793,158.1364,751.0529,148.2273,750.6002,138.3182,750.8236,128.4091,750.7709,118.5,751.468,108.5909,751.3177,98.6818,750.4056,88.7727,750.8182,78.8636,750.3139,68.9545,751.1795,59.0455,751.4996,49.1364,751.4357,39.2273,750.4556,29.3182,751.3551,19.4091,750.1484,9.5,750.8912,9.5255,750.9528,9.1083,750.6525,8.8052,750.6281,8.47,750.5258,8.146,750.4508,7.7322,750.1589,7.5105,750.0671,7.7322,749.866,7.4942,749.4745,7.4023,749.1436,7.3767,748.8401,7,748.3912,7.0055,748.3912,7.1753,738.342,7.2134,728.2928,7.1972,718.2436,6.9992,708.1944,7.7107,698.1453,6.3903,688.0961,7.5653,678.0469,6.376,667.9977,6.4597,657.9485,7.04,647.8994,7.0283,637.8502,6.5072,627.801,7.4137,617.7518,7.1089,607.7026,7.7267,597.6535,7.6671,587.6043,6.5517,577.5551,6.6021,567.5059,6.8708,557.4567,7.3555,547.4076,7.403,537.3584,7.3012,527.3092,6.658,517.26,7.6364,507.2108,7.6338,497.1617,6.9527,487.1125,6.7609,477.0633,6.5986,467.0141,6.7854,456.9649,7.1374,446.9158,6.9316,436.8666,6.5822,426.8174,7.4874,416.7682,6.5411,406.719,7.5024,396.6698,7.4272,386.6207,7.3719,376.5715,7.6925,366.5223,6.7541,356.4731,6.6994,346.4239,7.5189,336.3748,6.4031,326.3256,6.766,316.2764,7.1155,306.2272,7.0687,296.178,6.6415,286.1289,6.957,276.0797,7.7446,266.0305,7.6485,255.9813,6.4037,245.9321,7.0785,235.883,6.4861,225.8338,6.9737,215.7846,7.293,205.7354,7.4199,195.6862,6.3353,185.6371,7.4005,175.5879,7.0084,165.5387,6.4447,155.4895,6.5289,145.4403,7,135.3912,7.1006,135.4328,7.2234,135.0695,7.2878,134.682,7.2324,134.2448,7.7885,134.0609,7.7322,133.6234,7.6925,133.5274,8.0184,133.3143,8.4308,133.3098,8.8681,133.3657,9.225,133.2271,9.5,132.8912" style="stroke:#181818;stroke-width:4.0;"/><text fill="#000000" font-family="Chalkduster" font-size="24" font-style="italic" lengthAdjust="spacing" textLength="169" x="88.5" y="158.732">«repository»</text><text fill="#000000" font-family="Chalkduster" font-size="24" font-weight="bold" lengthAdjust="spacing" textLength="164" x="91" y="189.3619">Repositories</text></g><!--entity lic--><g id="elem_lic"><polygon fill="none" points="749.5,679.3912,749.5,679.6013,759.4,678.9768,769.3,679.5844,779.2,679.7908,789.1,678.6778,799,679.3134,808.9,678.9647,818.8,679.0077,828.7,679.323,838.6,678.6998,848.5,679.9448,858.4,678.7609,868.3,679.1934,878.2,679.8231,888.1,679.3054,898,679.4594,907.9,679.3592,917.8,679.5697,927.7,679.6303,937.6,679.9769,947.5,680.0622,957.4,680.0704,967.3,679.6458,977.2,679.8547,987.1,680.0934,997,678.67,1006.9,680.0697,1016.8,679.0947,1026.7,679.925,1036.6,678.8961,1046.5,679.3912,1046.4913,679.3701,1046.9482,679.766,1047.2009,679.669,1047.5741,679.8629,1047.9574,680.0812,1048.2678,680.1234,1048.3959,680.1765,1048.413,680.4764,1048.6491,680.8671,1048.5308,681.111,1048.9411,681.5739,1049,681.8912,1049.5482,681.8912,1049.4445,691.0171,1049.613,700.1431,1048.5169,709.2691,1048.3478,718.395,1049,727.521,1048.8086,727.4417,1048.8354,727.867,1048.6466,728.203,1048.7705,728.6686,1048.3604,728.9129,1048.2678,729.2888,1048.224,729.1831,1047.9433,729.5055,1047.4756,729.3763,1047.1409,729.5682,1046.9363,730.0744,1046.5,730.021,1046.5,730.4567,1036.6,730.7555,1026.7,729.6992,1016.8,730.3402,1006.9,730.6114,997,729.5486,987.1,729.9251,977.2,730.147,967.3,730.6728,957.4,730.0168,947.5,730.4836,937.6,729.4672,927.7,729.3437,917.8,730.5246,907.9,729.3041,898,730.53,888.1,730.2276,878.2,729.7531,868.3,729.6672,858.4,730.4798,848.5,729.7217,838.6,730.6129,828.7,729.4682,818.8,730.6384,808.9,730.5053,799,730.266,789.1,730.0682,779.2,730.7476,769.3,730.6346,759.4,730.1902,749.5,730.021,749.5342,730.1036,749.1298,729.8344,748.8843,729.9487,748.4591,729.6293,748.1078,729.4884,747.7322,729.2888,747.5449,729.2112,747.461,728.8835,747.6028,728.6494,747.4252,728.2829,747.1332,727.8691,747,727.521,746.6778,727.521,746.7811,718.395,746.3138,709.2691,747.4147,700.1431,747.7396,691.0171,747,681.8912,747.1621,681.9583,747.3605,681.6263,747.2508,681.1666,747.4662,680.8416,747.4664,680.4275,747.7322,680.1234,747.7685,680.2109,748.1173,680.0529,748.5098,680.0006,748.7636,679.6133,749.1293,679.4962,749.5,679.3912" style="stroke:#181818;stroke-width:4.0;"/><text fill="#000000" font-family="Chalkduster" font-size="24" lengthAdjust="spacing" textLength="282" x="757" y="713.232">License Management</text></g><!--entity att--><g id="elem_att"><polygon fill="none" points="760.5,480.3912,760.5,480.6013,770.3611,479.9768,780.2222,480.5844,790.0833,480.7908,799.9444,479.6778,809.8056,480.3134,819.6667,479.9647,829.5278,480.0077,839.3889,480.323,849.25,479.6998,859.1111,480.9448,868.9722,479.7609,878.8333,480.1934,888.6944,480.8231,898.5556,480.3054,908.4167,480.4594,918.2778,480.3592,928.1389,480.5697,938,480.6303,947.8611,480.9769,957.7222,481.0622,967.5833,481.0704,977.4444,480.6458,987.3056,480.8547,997.1667,481.0934,1007.0278,479.67,1016.8889,481.0697,1026.75,480.0947,1036.6111,480.925,1046.4722,479.8961,1056.3333,480.3227,1066.1944,481.1328,1076.0556,480.3424,1085.9167,480.4965,1095.7778,480.7298,1105.6389,480.8074,1115.5,480.3912,1115.4995,480.39,1115.8902,480.6261,1116.1341,480.5078,1116.5969,480.9181,1116.9841,481.1458,1117.2678,481.1234,1117.4047,481.1801,1117.603,481.5551,1117.4119,481.7689,1117.5063,482.1009,1117.6622,482.4583,1118,482.8912,1117.9411,482.8912,1117.8035,492.4236,1118.6814,501.9561,1117.8253,511.4885,1117.6569,521.021,1118.2283,530.5535,1117.3332,540.0859,1117.4809,549.6184,1118,559.1508,1118.1999,559.2336,1117.9877,559.56,1117.9333,559.9516,1117.4616,560.1704,1117.5125,560.6058,1117.2678,560.9186,1117.3431,561.1004,1116.854,560.9196,1116.5484,561.182,1116.2232,561.3967,1115.9367,561.7051,1115.5,561.6508,1115.5,561.6466,1105.6389,562.1134,1095.7778,561.097,1085.9167,560.9736,1076.0556,562.1544,1066.1944,560.9339,1056.3333,562.1598,1046.4722,561.8575,1036.6111,561.3829,1026.75,561.2971,1016.8889,562.1096,1007.0278,561.3515,997.1667,562.2427,987.3056,561.0981,977.4444,562.2683,967.5833,562.1351,957.7222,561.8958,947.8611,561.698,938,562.3774,928.1389,562.2644,918.2778,561.8201,908.4167,561.919,898.5556,561.5206,888.6944,562.3673,878.8333,561.8057,868.9722,561.8234,859.1111,561.0425,849.25,561.2456,839.3889,562.1816,829.5278,562.0806,819.6667,561.6079,809.8056,561.3287,799.9444,561.4319,790.0833,560.9647,780.2222,562.0656,770.3611,562.3904,760.5,561.6508,760.5671,561.8129,760.2351,561.7184,759.7755,561.3158,759.4505,561.2383,759.0363,560.9457,758.7322,560.9186,758.8197,560.9548,758.6618,560.5965,758.6095,560.282,758.2222,559.8286,758.1051,559.4872,758,559.1508,758.4435,559.1508,758.5673,549.6184,757.4875,540.0859,757.8061,530.5535,758.1493,521.021,757.3892,511.4885,758.3534,501.9561,758.258,492.4236,758,482.8912,757.969,482.8783,758.1903,482.5558,758.5173,482.277,758.343,481.7906,758.6828,481.5171,758.7322,481.1234,758.7687,481.2114,759.1006,481.0126,759.4573,480.8739,759.8074,480.719,760.0668,480.3454,760.5,480.3912" style="stroke:#181818;stroke-width:4.0;"/><text fill="#000000" font-family="Chalkduster" font-size="24" lengthAdjust="spacing" textLength="340" x="768" y="514.232">Attribute &amp; Certification</text><text fill="#000000" font-family="Chalkduster" font-size="24" lengthAdjust="spacing" textLength="171" x="768" y="544.8619">Management</text></g><!--entity id--><g id="elem_id"><polygon fill="none" points="381.5,495.3912,381.5,495.6013,391.4706,494.9768,401.4412,495.5844,411.4118,495.7908,421.3824,494.6778,431.3529,495.3134,441.3235,494.9647,451.2941,495.0077,461.2647,495.323,471.2353,494.6998,481.2059,495.9448,491.1765,494.7609,501.1471,495.1934,511.1176,495.8231,521.0882,495.3054,531.0588,495.4594,541.0294,495.3592,551,495.5697,560.9706,495.6303,570.9412,495.9769,580.9118,496.0622,590.8824,496.0704,600.8529,495.6458,610.8235,495.8547,620.7941,496.0934,630.7647,494.67,640.7353,496.0697,650.7059,495.0947,660.6765,495.925,670.6471,494.8961,680.6176,495.3227,690.5882,496.1328,700.5588,495.3424,710.5294,495.4965,720.5,495.3912,720.5432,495.4954,720.9066,495.6658,721.2066,495.6829,721.5973,495.919,721.8412,495.8007,722.2678,496.1234,722.3553,496.1597,722.583,496.5469,722.6976,496.8872,722.8959,497.2623,722.7048,497.476,723,497.8912,722.3478,497.8912,722.3786,507.0171,722.9411,516.1431,722.8035,525.2691,723.6814,534.395,723,543.521,722.9462,543.4987,722.7479,543.8308,722.7774,544.2572,722.3553,544.4966,722.2543,544.869,722.2678,545.2888,722.3505,545.4886,721.9698,545.5694,721.6544,545.8078,721.1661,545.629,720.8943,545.9728,720.5,546.021,720.5,546.6114,710.5294,545.5486,700.5588,545.9251,690.5882,546.147,680.6176,546.6728,670.6471,546.0168,660.6765,546.4836,650.7059,545.4672,640.7353,545.3437,630.7647,546.5246,620.7941,545.3041,610.8235,546.53,600.8529,546.2276,590.8824,545.7531,580.9118,545.6672,570.9412,546.4798,560.9706,545.7217,551,546.6129,541.0294,545.4682,531.0588,546.6384,521.0882,546.5053,511.1176,546.266,501.1471,546.0682,491.1765,546.7476,481.2059,546.6346,471.2353,546.1902,461.2647,546.2892,451.2941,545.8907,441.3235,546.7374,431.3529,546.1759,421.3824,546.1936,411.4118,545.4126,401.4412,545.6158,391.4706,546.5517,381.5,546.021,381.5548,546.1533,381.141,545.8613,380.7518,545.6289,380.4114,545.5142,379.9983,545.2239,379.7322,545.2888,379.86,545.3417,379.8135,545.0295,379.6014,544.6488,379.5069,544.3167,379.1043,543.8571,379,543.521,379.0872,543.521,378.6124,534.395,379.284,525.2691,379.2468,516.1431,379.5524,507.0171,379,497.8912,378.9293,497.8619,379.1051,497.5205,379.4295,497.2406,379.6141,496.9029,379.4279,496.4116,379.7322,496.1234,379.7075,496.0637,380.1048,496.0229,380.3614,495.6424,380.838,495.7929,381.1794,495.6171,381.5,495.3912" style="stroke:#181818;stroke-width:4.0;"/><text fill="#000000" font-family="Chalkduster" font-size="24" lengthAdjust="spacing" textLength="324" x="389" y="529.232">Identity Authentication</text></g><!--entity p1--><g id="elem_p1"><polygon fill="none" points="192,276.8912,192,277.1013,201.8462,276.4768,211.6923,277.0844,221.5385,277.2908,231.3846,276.1778,241.2308,276.8134,251.0769,276.4647,260.9231,276.5077,270.7692,276.823,280.6154,276.1998,290.4615,277.4448,300.3077,276.2609,310.1538,276.6934,320,276.8912,320.0551,277.0242,320.3426,277.0112,320.7158,277.2051,321.0566,277.3207,321.437,277.5319,321.7678,277.6234,321.8414,277.6539,322.0946,278.0517,322.2673,278.4161,322.4163,278.7707,322.432,279.0701,322.5,279.3912,322.9636,279.3912,323.2022,288.5171,321.7788,297.6431,323.1785,306.7691,322.2035,315.895,322.5,325.021,322.6644,325.0891,322.2011,325.3114,322.186,325.7194,322.289,326.1763,321.8992,326.429,321.7678,326.7888,321.7812,326.8212,321.4574,327.0395,321.1138,327.2098,320.7066,327.2269,320.3902,327.463,320,327.521,320,326.9486,310.1538,327.8054,300.3077,328.0692,290.4615,327.9655,280.6154,328.134,270.7692,327.0379,260.9231,326.8688,251.0769,326.8996,241.2308,327.4621,231.3846,327.3245,221.5385,328.2024,211.6923,327.3463,201.8462,327.1779,192,327.521,192.0291,327.5913,191.5614,327.1692,191.2267,327.0682,191.0221,327.2815,190.6414,327.0694,190.2322,326.7888,190.4584,326.8825,189.9867,326.3942,190.0376,326.1224,189.9747,325.8034,189.501,325.3143,189.5,325.021,189.4041,325.021,189.626,315.895,190.1518,306.7691,189.4958,297.6431,189.9626,288.5171,189.5,279.3912,189.3295,279.3205,189.4379,278.9512,189.948,278.7483,189.7186,278.239,190.2425,278.0419,190.2322,277.6234,190.2586,277.687,190.5516,277.3944,190.8942,277.2216,191.3514,277.3253,191.6083,276.9454,192,276.8912" style="stroke:#181818;stroke-width:4.0;"/><text fill="#000000" font-family="Chalkduster" font-size="24" lengthAdjust="spacing" textLength="113" x="199.5" y="310.732">Portal 1</text></g><!--entity p2--><g id="elem_p2"><polygon fill="none" points="26,276.8912,26,277.1013,35.6923,276.4768,45.3846,277.0844,55.0769,277.2908,64.7692,276.1778,74.4615,276.8134,84.1538,276.4647,93.8462,276.5077,103.5385,276.823,113.2308,276.1998,122.9231,277.4448,132.6154,276.2609,142.3077,276.6934,152,276.8912,152.0551,277.0242,152.3426,277.0112,152.7158,277.2051,153.0566,277.3207,153.437,277.5319,153.7678,277.6234,153.8414,277.6539,154.0946,278.0517,154.2673,278.4161,154.4163,278.7707,154.432,279.0701,154.5,279.3912,154.9636,279.3912,155.2022,288.5171,153.7788,297.6431,155.1785,306.7691,154.2035,315.895,154.5,325.021,154.6644,325.0891,154.2011,325.3114,154.186,325.7194,154.289,326.1763,153.8992,326.429,153.7678,326.7888,153.7812,326.8212,153.4574,327.0395,153.1138,327.2098,152.7066,327.2269,152.3902,327.463,152,327.521,152,326.9486,142.3077,327.8054,132.6154,328.0692,122.9231,327.9655,113.2308,328.134,103.5385,327.0379,93.8462,326.8688,84.1538,326.8996,74.4615,327.4621,64.7692,327.3245,55.0769,328.2024,45.3846,327.3463,35.6923,327.1779,26,327.521,26.0291,327.5913,25.5614,327.1692,25.2267,327.0682,25.0221,327.2815,24.6414,327.0694,24.2322,326.7888,24.4584,326.8825,23.9867,326.3942,24.0376,326.1224,23.9747,325.8034,23.501,325.3143,23.5,325.021,23.4041,325.021,23.626,315.895,24.1518,306.7691,23.4958,297.6431,23.9626,288.5171,23.5,279.3912,23.3295,279.3205,23.4379,278.9512,23.948,278.7483,23.7186,278.239,24.2425,278.0419,24.2322,277.6234,24.2586,277.687,24.5516,277.3944,24.8942,277.2216,25.3514,277.3253,25.6083,276.9454,26,276.8912" style="stroke:#181818;stroke-width:4.0;"/><text fill="#000000" font-family="Chalkduster" font-size="24" lengthAdjust="spacing" textLength="111" x="33.5" y="310.732">Portal 2</text></g><!--entity a1--><g id="elem_a1"><polygon fill="none" points="210.5,495.3912,210.5,495.6013,220.6111,494.9768,230.7222,495.5844,240.8333,495.7908,250.9444,494.6778,261.0556,495.3134,271.1667,494.9647,281.2778,495.0077,291.3889,495.323,301.5,495.3912,301.4118,495.1782,301.9242,495.7081,302.1267,495.49,302.5354,495.7696,302.9693,496.11,303.2678,496.1234,303.2414,496.1125,303.4352,496.4857,303.5508,496.8264,303.7621,497.2068,303.9272,497.5681,304,497.8912,304.5857,497.8912,304.6711,507.0171,304.6793,516.1431,304.2546,525.2691,304.4636,534.395,304,543.521,304.2163,543.6106,303.6315,543.7826,303.9161,544.3147,303.4693,544.5438,303.5786,545.0033,303.2678,545.2888,303.2046,545.1363,302.9055,545.4141,302.6553,545.81,302.2009,545.7131,301.867,545.907,301.5,546.021,301.5,546.3596,291.3889,546.4372,281.2778,546.0171,271.1667,546.3082,261.0556,545.4486,250.9444,546.3054,240.8333,546.5692,230.7222,546.4655,220.6111,546.634,210.5,546.021,210.4384,545.8722,210.0633,545.6737,209.7136,545.5367,209.4318,545.5635,209.0607,545.3747,208.7322,545.2888,208.9421,545.3757,208.532,544.9129,208.3337,544.5379,208.3632,544.2572,207.9411,543.7895,208,543.521,207.4809,543.521,208.649,534.395,208.4357,525.2691,208.7345,516.1431,207.6782,507.0171,208,497.8912,208.0983,497.9319,208.3283,497.6129,208.1474,497.1238,208.4098,496.8183,208.6246,496.493,208.7322,496.1234,208.8154,496.3241,209.0853,495.9757,209.4983,495.973,209.7223,495.5135,210.0601,495.329,210.5,495.3912" style="stroke:#181818;stroke-width:4.0;"/><text fill="#000000" font-family="Chalkduster" font-size="24" lengthAdjust="spacing" textLength="76" x="218" y="529.232">API 1</text></g><!--entity a2--><g id="elem_a2"><polygon fill="none" points="59.5,495.3912,59.5,495.6013,69.3889,494.9768,79.2778,495.5844,89.1667,495.7908,99.0556,494.6778,108.9444,495.3134,118.8333,494.9647,128.7222,495.0077,138.6111,495.323,148.5,495.3912,148.4118,495.1782,148.9242,495.7081,149.1267,495.49,149.5354,495.7696,149.9693,496.11,150.2678,496.1234,150.2414,496.1125,150.4352,496.4857,150.5508,496.8264,150.7621,497.2068,150.9272,497.5681,151,497.8912,151.5857,497.8912,151.6711,507.0171,151.6793,516.1431,151.2546,525.2691,151.4636,534.395,151,543.521,151.2163,543.6106,150.6315,543.7826,150.9161,544.3147,150.4693,544.5438,150.5786,545.0033,150.2678,545.2888,150.2046,545.1363,149.9055,545.4141,149.6553,545.81,149.2009,545.7131,148.867,545.907,148.5,546.021,148.5,546.3596,138.6111,546.4372,128.7222,546.0171,118.8333,546.3082,108.9444,545.4486,99.0556,546.3054,89.1667,546.5692,79.2778,546.4655,69.3889,546.634,59.5,546.021,59.4384,545.8722,59.0633,545.6737,58.7136,545.5367,58.4318,545.5635,58.0607,545.3747,57.7322,545.2888,57.9421,545.3757,57.532,544.9129,57.3337,544.5379,57.3632,544.2572,56.9411,543.7895,57,543.521,56.4809,543.521,57.649,534.395,57.4357,525.2691,57.7345,516.1431,56.6782,507.0171,57,497.8912,57.0983,497.9319,57.3283,497.6129,57.1474,497.1238,57.4098,496.8183,57.6246,496.493,57.7322,496.1234,57.8154,496.3241,58.0853,495.9757,58.4983,495.973,58.7223,495.5135,59.0601,495.329,59.5,495.3912" style="stroke:#181818;stroke-width:4.0;"/><text fill="#000000" font-family="Chalkduster" font-size="24" lengthAdjust="spacing" textLength="74" x="67" y="529.232">API 2</text></g><!--entity d1--><g id="elem_d1"><path d="M198.5,684.8912 L198.5,684.8912 L198.5525,684.9684 L200.0997,683.5826 L201.9545,682.6497 L203.7092,681.5694 L205.1344,680.0038 L207.0156,679.1099 L207.0102,679.0758 L210.7328,678.3289 L214.4827,677.7541 L218.2515,677.2987 L221.955,676.4314 L225.75,676.1412 L225.7643,676.3868 L229.4805,675.6428 L233.2386,675.6159 L237.0018,675.6766 L240.7353,675.2281 L244.4844,675.0474 L244.4849,675.0777 L246.1872,675.002 L247.8921,675.0642 L249.5957,675.0599 L251.3017,675.1827 L253,674.8912 L253,674.8912 L253.0055,675.1894 L254.7087,675.2243 L256.4083,675.0668 L258.1132,675.1909 L259.8182,675.3282 L261.5156,675.0474 L261.4969,674.7274 L265.2801,675.5672 L269.0017,675.3534 L272.7701,675.9405 L276.4903,675.7028 L280.25,676.1412 L280.2452,676.1111 L284.0485,677.0605 L287.7404,677.3073 L291.4979,677.9686 L295.2611,678.6648 L298.9844,679.1099 L299.0883,679.263 L300.6865,680.2647 L302.4623,681.528 L303.9509,682.3682 L305.8679,683.8395 L307.5,684.8912 L307.9873,684.8912 L307.8951,692.8171 L308.0449,700.7431 L307.0706,708.6691 L306.9203,716.595 L307.5,724.521 L307.5,724.521 L307.3449,724.2925 L305.7822,725.6556 L304.0447,726.7612 L302.5607,728.2403 L300.6439,729.0818 L298.9844,730.3022 L298.9605,730.1517 L295.2534,730.9962 L291.4442,731.197 L287.7076,731.8556 L284.042,732.9621 L280.25,733.271 L280.2613,733.4643 L276.5222,733.8156 L272.7479,733.5657 L269.0176,734.0689 L265.2778,734.408 L261.5156,734.3647 L261.5118,734.1548 L259.8117,734.3534 L258.1104,734.4832 L256.4116,734.7481 L254.7031,734.4879 L253,734.521 L253,734.521 L253.0038,734.7265 L251.2924,734.2437 L249.5882,734.1575 L247.8947,734.651 L246.1817,734.0774 L244.4844,734.3647 L244.4976,734.5906 L240.7429,734.2377 L236.9837,733.8084 L233.2346,733.5515 L229.5088,733.6933 L225.75,733.271 L225.7292,733.1396 L222.0443,732.9371 L218.2178,731.8409 L214.5523,731.7608 L210.7962,731.1086 L207.0156,730.3022 L207.0768,730.3923 L205.3243,729.1634 L203.7908,728.2569 L202.0594,727.0591 L200.2454,725.7395 L198.5,724.521 L198.7384,724.521 L198.3842,716.595 L199.1368,708.6691 L198.6377,700.7431 L198.6534,692.8171 L198.5,684.8912 " fill="none" style="stroke:#181818;stroke-width:4.0;"/><path d="M198.5,684.8912 L198.5,684.8912 L198.5525,684.9684 L200.0997,685.8951 L201.9545,687.2747 L203.7092,688.5069 L205.1344,689.2538 L207.0156,690.6724 L207.0102,690.6383 L210.7328,691.0789 L214.4827,691.6916 L218.2515,692.4237 L221.955,692.7439 L225.75,693.6412 L225.7643,693.8868 L229.4805,693.5803 L233.2386,693.9909 L237.0018,694.4891 L240.7353,694.4781 L244.4844,694.7349 L244.4849,694.7652 L246.1872,694.752 L247.8921,694.8767 L249.5957,694.9349 L251.3017,695.1202 L253,694.8912 L253,694.8912 L253.0055,695.1894 L254.7087,695.1618 L256.4083,694.9418 L258.1132,695.0034 L259.8182,695.0782 L261.5156,694.7349 L261.4969,694.4149 L265.2801,694.8172 L269.0017,694.1659 L272.7701,694.3155 L276.4903,693.6403 L280.25,693.6412 L280.2452,693.6111 L284.0485,693.373 L287.7404,692.4323 L291.4979,691.9061 L295.2611,691.4148 L298.9844,690.6724 L299.0883,690.8255 L300.6865,689.5147 L302.4623,688.4655 L303.9509,686.9932 L305.8679,686.152 L307.5,684.8912 " fill="none" style="stroke:#181818;stroke-width:4.0;"/><text fill="#000000" font-family="Chalkduster" font-size="24" lengthAdjust="spacing" textLength="89" x="208.5" y="722.732">Data 1</text></g><!--entity d2--><g id="elem_d2"><path d="M50.5,684.8912 L50.5,684.8912 L50.5531,684.968 L52.0671,683.5835 L53.8926,682.6493 L55.6167,681.5685 L57.0072,680.0054 L58.8594,679.1099 L58.8539,679.0758 L62.5073,678.329 L66.1885,677.7541 L69.8889,677.2988 L73.5229,676.4316 L77.25,676.1412 L77.2646,676.3868 L80.9115,675.6428 L84.601,675.6159 L88.2958,675.6765 L91.9602,675.2281 L95.6406,675.0474 L95.6412,675.0777 L97.3122,675.002 L98.9859,675.0642 L100.6582,675.0599 L102.333,675.1827 L104,674.8912 L104,674.8912 L104.0056,675.1894 L105.6775,675.2243 L107.3459,675.0668 L109.0195,675.1909 L110.6933,675.3282 L112.3594,675.0474 L112.3403,674.7274 L116.0554,675.5672 L119.7078,675.3534 L123.4078,675.9405 L127.0588,675.7028 L130.75,676.1412 L130.7451,676.1111 L134.4807,677.0603 L138.1028,677.3073 L141.7918,677.9686 L145.4865,678.6647 L149.1406,679.1099 L149.2459,679.2621 L150.8115,680.2647 L152.557,681.5274 L154.0115,682.3694 L155.9,683.8389 L157.5,684.8912 L157.9873,684.8912 L157.8951,692.8171 L158.0449,700.7431 L157.0706,708.6691 L156.9203,716.595 L157.5,724.521 L157.5,724.521 L157.3429,724.2938 L155.8132,725.6557 L154.1066,726.7617 L152.6566,728.2388 L150.7683,729.0821 L149.1406,730.3022 L149.1163,730.1517 L145.4787,730.9962 L141.7371,731.1972 L138.0695,731.8557 L134.4741,732.962 L130.75,733.271 L130.7615,733.4643 L127.0913,733.8156 L123.3853,733.5657 L119.724,734.0689 L116.0531,734.4079 L112.3594,734.3647 L112.3555,734.1548 L110.6867,734.3534 L109.0167,734.4832 L107.3492,734.7481 L105.6718,734.4879 L104,734.521 L104,734.521 L104.0038,734.7265 L102.3235,734.2437 L100.6506,734.1575 L98.9886,734.651 L97.3065,734.0774 L95.6406,734.3647 L95.6541,734.5906 L91.968,734.2377 L88.2773,733.8084 L84.5969,733.5515 L80.9402,733.6933 L77.25,733.271 L77.2288,733.1397 L73.6138,732.9369 L69.8546,731.841 L66.2594,731.7606 L62.5718,731.1085 L58.8594,730.3022 L58.9213,730.3918 L57.1994,729.1633 L55.6993,728.2554 L53.9989,727.0578 L52.2147,725.7391 L50.5,724.521 L50.7384,724.521 L50.3842,716.595 L51.1368,708.6691 L50.6377,700.7431 L50.6534,692.8171 L50.5,684.8912 " fill="none" style="stroke:#181818;stroke-width:4.0;"/><path d="M50.5,684.8912 L50.5,684.8912 L50.5531,684.968 L52.0671,685.896 L53.8926,687.2743 L55.6167,688.506 L57.0072,689.2554 L58.8594,690.6724 L58.8539,690.6383 L62.5073,691.079 L66.1885,691.6916 L69.8889,692.4238 L73.5229,692.7441 L77.25,693.6412 L77.2646,693.8868 L80.9115,693.5803 L84.601,693.9909 L88.2958,694.489 L91.9602,694.4781 L95.6406,694.7349 L95.6412,694.7652 L97.3122,694.752 L98.9859,694.8767 L100.6582,694.9349 L102.333,695.1202 L104,694.8912 L104,694.8912 L104.0056,695.1894 L105.6775,695.1618 L107.3459,694.9418 L109.0195,695.0034 L110.6933,695.0782 L112.3594,694.7349 L112.3403,694.4149 L116.0554,694.8172 L119.7078,694.1659 L123.4078,694.3155 L127.0588,693.6403 L130.75,693.6412 L130.7451,693.6111 L134.4807,693.3728 L138.1028,692.4323 L141.7918,691.9061 L145.4865,691.4147 L149.1406,690.6724 L149.2459,690.8246 L150.8115,689.5147 L152.557,688.4649 L154.0115,686.9944 L155.9,686.1514 L157.5,684.8912 " fill="none" style="stroke:#181818;stroke-width:4.0;"/><text fill="#000000" font-family="Chalkduster" font-size="24" lengthAdjust="spacing" textLength="87" x="60.5" y="722.732">Data 2</text></g><!--entity res--><g id="elem_res"><polygon fill="none" points="774.0442,267.3371,772.8715,268.9394,771.4845,271.2862,769.5008,272.8678,767.4163,273.7327,765.7542,273.8078,763.618,272.7261,761.6023,272.0195,760.0724,270.5847,759.2699,268.9423,758.7939,267.6345,758.3277,265.9262,757.5709,264.4562,758.1525,263.021,758.662,261.4488,760.574,260.2053,761.9192,258.592,763.5843,258.0562,765.5637,257.5948,768.1021,257.869,769.4924,258.5246,771.1089,258.8218,773.0743,260.8355,773.7595,262.9613,774.0571,264.4118,773.72,266.802" style="stroke:#8B0000;stroke-width:4.0;"/><path d="M766,273.3912 L766.1868,273.3912 L765.6317,278.7912 L766.1718,284.1912 L766.3553,289.5912 L765.3659,294.9912 L766,300.3912 M753,281.3912 L753,281.3221 L758.2,281.0121 L763.4,281.0503 L768.6,281.3306 L773.8,280.7766 L779,281.3912 M766,300.3912 L766.3719,300.7135 L762.9766,303.0242 L760.6672,306.276 L758.4901,309.6426 L755.5424,312.3412 L753,315.3912 M766,300.3912 L766.0458,300.4309 L768.5785,303.3726 L771.3199,306.4951 L773.9606,309.5304 L776.7934,312.7321 L779,315.3912 " fill="none" style="stroke:#8B0000;stroke-width:4.0;"/><text fill="#000000" font-family="Chalkduster" font-size="24" lengthAdjust="spacing" textLength="455" x="538.5" y="344.232">Researcher / Community Member</text></g><!--link id to lic--><g id="link_id_lic"><path d="M621.71,546.7412 L621.7392,546.8299 L627.2536,548.4126 L632.9393,550.5154 L638.5693,552.4488 L644.0156,553.8253 L649.7161,555.9727 L649.7057,555.9398 L655.6561,557.6821 L661.6589,559.5905 L667.6981,561.6144 L673.6118,563.2404 L679.7013,565.4237 L679.7724,565.6592 L682.6952,566.0844 L685.8257,567.1972 L688.9816,568.394 L691.99,569.1026 L695.0759,570.0679 L695.0844,570.097 L698.1594,570.9549 L701.2731,571.9453 L704.3681,572.8717 L707.4987,573.9202 L710.5133,574.5708 L710.5936,574.8581 L713.6658,575.7208 L716.6862,576.3983 L719.7824,577.347 L722.8822,578.3084 L725.8693,578.8671 L725.7869,578.5573 L728.973,579.9633 L731.8877,580.3493 L735.0087,581.5108 L737.9173,581.8737 L741,582.8912 L740.9936,582.8614 L743.5083,583.7342 L745.8745,583.9114 L748.3284,584.4991 L750.7895,585.1212 L753.1977,585.4948 L753.2213,585.6782 L755.5219,585.7925 L757.863,586.2204 L760.1386,586.1409 L762.5118,586.8181 L764.8202,586.9923 L764.8335,587.2355 L767.0497,587.311 L769.2725,587.5073 L771.4645,587.1424 L773.6791,587.1889 L775.9137,587.5998 L775.912,587.3236 L778.0356,587.5604 L780.1574,587.486 L782.282,587.863 L784.4018,587.4693 L786.5244,587.5337 L786.5146,587.3815 L790.5224,587.3772 L794.4883,586.7225 L798.4841,586.5303 L802.5091,586.7906 L806.482,586.2451 L806.4965,586.4382 L810.2225,586.2928 L813.9036,585.5469 L817.6409,585.5532 L821.366,585.3956 L825.0625,584.8562 L825.0596,584.6462 L828.5764,584.8617 L832.0923,585.0083 L835.6101,585.2901 L839.1206,585.0467 L842.6352,585.0966 L842.6779,585.2977 L845.9708,585.5758 L849.3463,586.242 L852.8422,587.4753 L856.1163,587.6646 L859.5694,588.6962 L859.6739,588.8967 L862.9449,590.5152 L866.1804,592.0659 L869.4958,593.7697 L872.9958,595.8276 L876.2345,597.3844 L876.1506,597.2813 L878.07,598.9471 L879.4183,599.9111 L881.416,601.673 L883.0481,602.9857 L884.5816,604.1774 L884.6599,604.253 L886.2804,605.9347 L888.1812,607.8873 L889.8288,609.5951 L891.3704,611.2007 L893,612.8912 L893.1086,612.9403 L893.8392,614.8373 L895.0739,616.9625 L895.7384,618.8295 L896.6375,620.8028 L897.4595,622.7412 L897.1924,622.6991 L897.75,625.6866 L898.6292,628.7249 L899.0532,631.6914 L899.3141,634.6322 L899.8013,637.6087 L899.6582,637.6026 L899.8533,641.1053 L899.795,644.5972 L900.4331,648.1188 L900.7265,651.6257 L900.5473,655.1124 L900.7813,655.1167 L900.7907,658.6699 L900.3556,662.2148 L900.3897,665.7684 L900.1132,669.3162 L900.22,672.8712 " fill="none" style="stroke:#8B0000;stroke-width:4.0;"/><polygon fill="#8B0000" points="899.99,677.6212,900.0527,677.6525,900.7479,675.7978,901.8103,674.1268,902.7532,672.396,903.3028,670.4684,904.3968,668.8132,904.3794,668.7941,903.4653,669.4708,902.6393,670.2441,901.8744,671.0843,900.8987,671.6935,900.2183,672.6264,900.3547,672.7508,899.3005,671.6491,898.6444,670.9105,898.0368,670.2163,897.1467,669.2643,896.4052,668.4479,896.4264,668.4562,897.1122,670.2787,897.8945,672.1389,898.6303,673.9809,899.4549,675.8576,899.99,677.6212" style="stroke:#8B0000;stroke-width:4.0;"/></g><!--link att to lic--><g id="link_att_lic"><path d="M929.22,561.8312 L929.4937,561.8913 L926.4623,571.8062 L925.0353,582.0737 L923.0859,592.2265 L919.4182,602.0015 L918.0279,612.2771 L915.3555,622.2709 L913.1933,632.3769 L911.3858,642.5607 L908.356,652.476 L907.7592,662.926 L904.82,672.8612 " fill="none" style="stroke:#8B0000;stroke-width:4.0;"/><polygon fill="#8B0000" points="903.76,677.6612,903.8163,677.7028,904.8204,675.9954,906.1546,674.5323,907.3814,672.9896,908.2545,671.1854,909.6171,669.7432,909.6032,669.7213,908.5863,670.2307,907.6395,670.8502,906.7414,671.5462,905.6754,671.9784,904.8447,672.7802,905.0003,672.8793,904.06,671.7129,903.5742,670.8358,903.1439,669.994,902.3909,668.9469,901.8076,668.0078,901.8299,668.0123,902.1877,669.9363,902.6469,671.8809,903.0572,673.8156,903.5609,675.7692,903.76,677.6612" style="stroke:#8B0000;stroke-width:4.0;"/></g><!--link p1 to a1--><g id="link_p1_a1"><path d="M256,334.6212 L256.2802,334.6212 L255.4476,344.8925 L256.2577,355.1638 L256.5329,365.4352 L255.0488,375.7065 L255.8964,385.9778 L255.4313,396.2492 L255.4887,406.5205 L255.9091,416.7918 L255.0782,427.0632 L256.7382,437.3345 L255.1596,447.6058 L255.7363,457.8772 L256.5759,468.1485 L255.8856,478.4198 L256,488.6912 " fill="none" style="stroke:#8B0000;stroke-width:4.0;"/><polygon fill="#8B0000" points="256,329.7412,256.064,329.7696,255.0738,331.4851,254.4589,333.3673,253.7217,335.1953,252.5827,336.8446,252,338.7412,251.9817,338.7228,252.6995,337.8406,253.5096,337.0508,254.3839,336.3251,255.037,335.3782,256,334.7412,256.1305,334.8717,256.6514,335.3926,257.5534,336.2945,258.5018,337.243,259.1798,337.9209,260,338.7412,260.0208,338.7504,259.1903,336.9368,258.4544,335.1653,257.6728,333.3735,256.9784,331.6205,256,329.7412" style="stroke:#8B0000;stroke-width:4.0;"/><polygon fill="#8B0000" points="256,493.5012,256.064,493.5296,256.6738,491.6451,257.6589,489.9273,258.5217,488.1553,258.9827,486.2046,260,484.5012,259.9817,484.4828,259.0995,485.2006,258.3096,486.0108,257.5839,486.8851,256.637,487.5382,256,488.5012,256.1305,488.6317,255.0514,487.5526,254.3534,486.8545,253.7018,486.203,252.7798,485.2809,252,484.5012,252.0208,484.5104,252.7903,486.2968,253.6544,488.1253,254.4728,489.9335,255.3784,491.7805,256,493.5012" style="stroke:#8B0000;stroke-width:4.0;"/></g><!--link p2 to a2--><g id="link_p2_a2"><path d="M91.16,334.6212 L91.4396,334.6405 L91.3209,344.8543 L92.8411,355.1816 L93.8276,365.472 L93.0591,375.6407 L94.6166,385.9707 L94.8647,396.2098 L95.6339,406.4851 L96.7653,416.7855 L96.6484,426.9994 L99.0164,437.3855 L98.1536,447.5477 L99.4409,457.8589 L100.9906,468.1883 L101.0139,478.4119 L101.84,488.6912 " fill="none" style="stroke:#8B0000;stroke-width:4.0;"/><polygon fill="#8B0000" points="90.83,329.7412,90.8958,329.7652,90.0256,331.5445,89.5413,333.4645,88.9313,335.3387,87.9081,337.0623,87.4569,338.9944,87.4373,338.9774,88.0929,338.048,88.847,337.2044,89.6694,336.4205,90.256,335.431,91.173,334.7294,91.2943,334.8685,91.888,335.3142,92.8357,336.1661,93.8266,337.0676,94.5662,337.6807,95.438,338.4455,95.4581,338.4562,94.507,336.6997,93.6474,334.9916,92.7437,333.2602,91.9241,331.5734,90.83,329.7412" style="stroke:#8B0000;stroke-width:4.0;"/><polygon fill="#8B0000" points="102.17,493.5012,102.2358,493.5252,102.7149,491.6032,103.5798,489.8219,104.319,487.9949,104.6451,486.0171,105.5431,484.2479,105.5236,484.2309,104.6927,485.0076,103.9603,485.87,103.2963,486.792,102.3964,487.5085,101.827,488.5129,101.9482,488.6521,100.836,487.6113,100.0777,486.9768,99.3626,486.3918,98.3962,485.5185,97.562,484.7968,97.5821,484.8074,98.4742,486.5327,99.4578,488.3064,100.3972,490.0567,101.4209,491.8516,102.17,493.5012" style="stroke:#8B0000;stroke-width:4.0;"/></g><!--reverse link p1 to res--><g id="link_p1_res"><path d="M329.19,302.3912 L329.19,302.6714 L339.1352,301.8387 L349.0805,302.6489 L359.0257,302.9241 L368.971,301.44 L378.9162,302.2875 L388.8614,301.8225 L398.8067,301.8798 L408.7519,302.3003 L418.6971,301.4693 L428.6424,303.1294 L438.5876,301.5508 L448.5329,302.1275 L458.4781,302.9671 L468.4233,302.2768 L478.3686,302.4821 L488.3138,302.3486 L498.259,302.6292 L508.2043,302.71 L518.1495,303.1721 L528.0948,303.2859 L538.04,302.3912 " fill="none" style="stroke:#8B0000;stroke-width:4.0;"/><polygon fill="#8B0000" points="324.45,302.3912,324.4785,302.4552,326.1939,303.065,328.0762,304.05,329.9041,304.9129,331.5534,305.3739,333.45,306.3912,333.4317,306.3728,332.5495,305.4906,331.7596,304.7008,331.0339,303.9751,330.087,303.0282,329.45,302.3912,329.5805,302.5217,330.1014,301.4426,331.0034,300.7445,331.9518,300.093,332.6298,299.1709,333.45,298.3912,333.4592,298.4119,331.6457,299.1814,329.8742,300.0455,328.0824,300.864,326.3293,301.7696,324.45,302.3912" style="stroke:#8B0000;stroke-width:4.0;"/><text fill="#000000" font-family="Chalkduster" font-size="24" lengthAdjust="spacing" textLength="179" x="341" y="292.232">Request data</text></g><!--reverse link p2 to res--><g id="link_p2_res"><path d="M94.96,270.4412 L95.0504,270.4646 L95.5867,267.2857 L96.6531,264.2441 L97.5468,261.1578 L97.8729,257.9246 L98.9848,254.8947 L98.9518,254.8845 L99.8703,251.4046 L100.955,247.9764 L102.1553,244.5841 L102.9573,241.0681 L104.3172,237.7254 L104.5476,237.8118 L105.4123,234.0088 L106.9497,230.458 L108.5691,226.9381 L109.711,223.2391 L111.1041,219.6342 L111.1319,219.6463 L111.888,217.7941 L112.7708,215.997 L113.5925,214.1733 L114.5307,212.4002 L115.0889,210.4621 L115.3576,210.5915 L116.2416,208.7652 L116.9523,206.8553 L117.9167,205.0677 L118.893,203.2858 L119.4925,201.3224 L119.2101,201.1708 L120.7263,199.6611 L121.3127,197.6523 L122.606,196.0229 L123.1712,194.0027 L124.3332,192.3029 L124.3071,192.2872 L125.6749,190.7103 L126.4331,188.767 L127.551,187.0399 L128.6991,185.331 L129.6293,183.4911 L129.7825,183.5948 L130.7819,181.7868 L132.043,180.1561 L132.8807,178.2385 L134.35,176.7488 L135.3993,174.9747 L135.5924,175.1233 L136.8083,173.4685 L138.1201,171.8875 L138.9866,169.9637 L140.1794,168.2912 L141.6616,166.8413 L141.4546,166.6584 L142.9965,165.2915 L144.3052,163.7184 L145.9522,162.4443 L147.0216,160.6598 L148.4344,159.1786 L148.328,159.0694 L149.9655,157.8305 L151.1484,156.1245 L152.6545,154.7507 L154.4769,153.7019 L155.7361,152.0743 L155.8592,152.2238 L157.5134,151.0347 L158.7849,149.3805 L160.5357,148.3088 L162.1821,147.1102 L163.5852,145.6159 L163.4671,145.4423 L165.2442,144.4358 L166.9826,143.3723 L168.797,142.4206 L170.316,141.0346 L172,139.8912 L172.1015,140.0699 L174.1795,138.3705 L176.4534,137.0161 L179.0135,136.1659 L181.0467,134.3875 L183.505,133.3579 L183.6019,133.5623 L185.7145,132.4124 L187.7943,131.1932 L189.9481,130.1302 L192.2729,129.428 L194.3557,128.2152 L194.309,128.0907 L196.5092,127.6889 L198.3918,126.4398 L200.6356,126.1541 L202.676,125.326 L204.6617,124.3518 L204.6904,124.4568 L206.6414,123.833 L208.6952,123.5851 L210.6562,122.9976 L212.5784,122.268 L214.5328,121.6563 L214.5474,121.7746 L218.301,121.1324 L222.1224,121.0394 L225.8671,120.3252 L229.6433,119.8665 L233.4092,119.3239 L233.3945,119.0539 L237.0901,119.3447 L240.8033,119.9608 L244.4915,120.1167 L248.1708,120.1077 L251.8625,120.3274 L251.8368,120.1865 L255.6266,120.9215 L259.371,121.407 L263.2404,122.5781 L267.0479,123.41 L270.7705,123.7764 L270.8248,124.004 L272.822,124.5495 L274.7159,124.6626 L276.7188,125.2321 L278.6495,125.4995 L280.6693,126.1397 L280.7005,126.262 L282.7648,126.7741 L284.8667,127.4338 L286.849,127.6252 L288.9278,128.1944 L291.0109,128.7804 L291.0601,128.9712 L293.2527,129.5859 L295.3118,129.6825 L297.5259,130.381 L299.7428,131.0901 L301.9051,131.5872 L301.8398,131.3237 L304.2541,132.312 L306.5552,132.8431 L308.8282,133.2607 L311.1654,133.9378 L313.4615,134.4488 L313.5334,134.7646 L315.8964,134.8742 L318.4239,135.7073 L320.8867,136.2556 L323.3357,136.743 L325.7899,137.2539 L325.8022,137.3153 L328.4418,137.8308 L331.0196,138.0368 L333.6811,138.6616 L336.3178,139.1626 L339,139.8912 L339.0053,139.919 L341.2067,140.3506 L343.4122,140.8037 L345.5738,141.0271 L347.7918,141.5456 L349.9968,141.996 L349.986,141.9437 L352.2571,142.7024 L354.4522,143.0922 L356.5789,143.1504 L358.8245,143.7852 L361.0396,144.2722 L360.9828,144.022 L365.5052,145.4041 L369.9739,146.5498 L374.4049,147.529 L378.7458,148.1112 L383.2258,149.3069 L383.2764,149.5068 L387.5965,150.1118 L392.1508,151.6431 L396.5479,152.5529 L401.0426,153.8485 L405.4837,154.9318 L405.5121,155.0348 L409.9904,156.3644 L414.3001,157.0841 L418.8925,158.8266 L423.3082,159.9296 L427.738,161.0837 L427.7831,161.235 L432.2681,162.7252 L436.609,163.7322 L441.0657,165.1276 L445.5057,166.4669 L449.9137,167.6991 L449.9403,167.7826 L454.318,169.1019 L458.8184,170.8064 L463.0447,171.6503 L467.6076,173.5511 L471.9358,174.7148 L471.8471,174.4521 L476.2177,175.9578 L480.6588,177.6727 L485.0158,179.1383 L489.3005,180.3894 L493.7292,182.0675 L493.7907,182.2407 L498.0433,183.6383 L502.433,185.4223 L506.7221,186.9226 L510.8542,187.9807 L515.2188,189.6937 L515.1572,189.5279 L519.4209,191.2071 L523.718,192.9764 L527.9475,194.5634 L532.1539,196.0883 L536.3295,197.5301 L536.2747,197.3883 L540.5628,199.3906 L544.6937,200.9862 L548.7159,202.3005 L552.8166,203.8177 L556.9862,205.5134 L556.9199,205.3478 L560.9763,207.0383 L565.0601,208.7969 L569.0516,210.3253 L573.0194,211.7946 L577.114,213.5803 L577.1969,213.7804 L580.9407,215.0093 L585.0089,217.0214 L588.9009,218.608 L592.7962,220.2027 L596.6377,221.6674 L596.7585,221.9505 L600.3637,223.1757 L604.123,224.7621 L608.0349,226.7059 L611.6091,227.8586 L615.4822,229.7114 L615.4404,229.6162 L619.1208,231.3459 L622.7305,232.9143 L626.2723,234.328 L629.9467,236.0439 L633.5724,237.6489 L633.7082,237.9507 L637.1429,239.4653 L640.3681,240.5143 L643.9433,242.3413 L647.2875,243.6548 L650.8334,245.4166 L650.8285,245.406 L654.1592,247.0418 L657.4541,248.5999 L660.5238,249.669 L663.9932,251.6059 L667.19,252.9512 " fill="none" style="stroke:#8B0000;stroke-width:4.0;"/><polygon fill="#8B0000" points="93.94,274.9512,93.9962,274.993,95.0061,273.2891,96.3453,271.8305,97.5773,270.292,98.4566,268.4908,99.8241,267.0532,99.8103,267.0313,98.7916,267.5372,97.8427,268.1534,96.9423,268.8465,95.8748,269.275,95.0413,270.074,95.1973,270.1725,94.2595,269.0052,93.7773,268.1256,93.3506,267.2812,92.6006,266.2324,92.0206,265.2911,92.0429,265.2956,92.394,267.2211,92.8467,269.1668,93.2504,271.1027,93.7476,273.0572,93.94,274.9512" style="stroke:#8B0000;stroke-width:4.0;"/><text fill="#000000" font-family="Chalkduster" font-size="24" lengthAdjust="spacing" textLength="179" x="256.5" y="109.732">Request data</text></g><!--link a1 to d1--><g id="link_a1_d1"><path d="M255.49,552.9212 L255.7702,552.9258 L254.7793,562.4987 L255.431,572.0988 L255.5478,581.69 L253.9056,591.2521 L254.5947,600.8528 L253.9714,610.4318 L253.8704,620.0194 L254.1325,629.613 L253.1433,639.1859 L254.6448,648.8 L252.9081,658.3606 L253.59,667.9612 " fill="none" style="stroke:#8B0000;stroke-width:4.0;"/><polygon fill="#8B0000" points="255.56,548.3312,255.6235,548.3607,254.604,550.0589,253.9569,551.9304,253.1886,553.7454,252.0214,555.375,251.4063,557.2613,251.3883,557.2426,252.1211,556.3729,252.9447,555.597,253.8313,554.8864,254.5006,553.9509,255.4743,553.3304,255.607,553.4587,256.1094,553.998,256.9992,554.9118,257.9363,555.8713,258.5984,556.5649,259.4051,557.3984,259.4261,557.4073,258.6263,555.5808,257.9219,553.7947,257.1714,551.9892,256.5088,550.2208,255.56,548.3312" style="stroke:#8B0000;stroke-width:4.0;"/><polygon fill="#8B0000" points="253.51,672.9412,253.5735,672.9707,254.2155,671.0969,255.2299,669.3963,256.123,667.6393,256.6173,665.6968,257.6637,664.011,257.6457,663.9924,256.7513,664.695,255.9477,665.4915,255.2071,666.3532,254.2492,666.99,253.5957,667.9419,253.7284,668.0701,252.6584,666.9823,251.976,666.2689,251.3407,665.6012,250.4305,664.6676,249.6649,663.8739,249.6858,663.8828,250.4241,665.6832,251.2577,667.5241,252.0453,669.3454,252.9207,671.2039,253.51,672.9412" style="stroke:#8B0000;stroke-width:4.0;"/></g><!--link a2 to d2--><g id="link_a2_d2"><path d="M104,552.9212 L104.2802,552.9212 L103.4476,562.5078 L104.2577,572.0945 L104.5329,581.6812 L103.0488,591.2678 L103.8964,600.8545 L103.4313,610.4412 L103.4887,620.0278 L103.9091,629.6145 L103.0782,639.2012 L104.7382,648.7878 L103.1596,658.3745 L104,667.9612 " fill="none" style="stroke:#8B0000;stroke-width:4.0;"/><polygon fill="#8B0000" points="104,548.3312,104.064,548.3596,103.0738,550.0751,102.4589,551.9573,101.7217,553.7853,100.5827,555.4346,100,557.3312,99.9817,557.3128,100.6995,556.4306,101.5096,555.6408,102.3839,554.9151,103.037,553.9682,104,553.3312,104.1305,553.4617,104.6514,553.9826,105.5534,554.8845,106.5018,555.833,107.1798,556.5109,108,557.3312,108.0208,557.3404,107.1903,555.5268,106.4544,553.7553,105.6728,551.9635,104.9784,550.2105,104,548.3312" style="stroke:#8B0000;stroke-width:4.0;"/><polygon fill="#8B0000" points="104,672.9412,104.064,672.9696,104.6738,671.0851,105.6589,669.3673,106.5217,667.5953,106.9827,665.6446,108,663.9412,107.9817,663.9228,107.0995,664.6406,106.3096,665.4508,105.5839,666.3251,104.637,666.9782,104,667.9412,104.1305,668.0717,103.0514,666.9926,102.3534,666.2945,101.7018,665.643,100.7798,664.7209,100,663.9412,100.0208,663.9504,100.7903,665.7368,101.6544,667.5653,102.4728,669.3735,103.3784,671.2205,104,672.9412" style="stroke:#8B0000;stroke-width:4.0;"/></g><!--link a1 to lic--><g id="link_a1_lic"><path d="M291.51,546.6612 L291.5588,546.7408 L294.6325,548.4756 L297.9923,550.6773 L301.2589,552.727 L304.2193,554.2765 L307.6036,556.5183 L307.5865,556.4884 L309.2478,557.3465 L310.9955,558.3558 L312.8032,559.4702 L314.404,560.2224 L316.2946,561.482 L316.4114,561.6986 L317.9645,562.2078 L319.8586,563.3493 L321.7942,564.568 L323.4878,565.3378 L325.3088,566.3437 L325.3224,566.3707 L327.1538,567.2641 L329.0474,568.2808 L330.911,569.238 L332.8318,570.3087 L334.5662,571.0094 L334.6918,571.2799 L336.5775,572.1584 L338.3822,572.8624 L340.3055,573.8218 L342.2343,574.7931 L343.987,575.3852 L343.8629,575.0897 L346.0047,576.4616 L347.7378,576.8605 L349.7816,577.9991 L351.5055,578.3759 L353.4916,579.3771 L353.481,579.3486 L355.5075,580.3891 L357.2874,580.7624 L359.2129,581.5295 L361.1505,582.3295 L363,582.8912 L363.0538,583.0682 L366.241,583.8747 L369.5201,584.9837 L372.6506,585.6034 L376.0028,586.953 L379.2076,587.8173 L379.2615,588.0549 L382.2741,588.6964 L385.3135,589.4559 L388.2284,589.6673 L391.2345,590.2805 L394.3215,591.2497 L394.2796,590.9767 L397.1512,591.6581 L399.9756,592.032 L402.8684,592.852 L405.6444,592.9102 L408.4898,593.4212 L408.4768,593.2693 L411.1726,593.7511 L413.8129,593.5834 L416.4926,593.8776 L419.211,594.6236 L421.8606,594.5649 L421.8659,594.7585 L424.4138,594.961 L426.9452,594.5614 L429.4973,594.9159 L432.0449,595.1062 L434.582,594.9136 L434.5783,594.7036 L437.0252,594.8283 L439.4709,594.8842 L441.919,595.0751 L444.3579,594.741 L446.802,594.7001 L446.8113,594.9055 L449.164,594.3458 L451.5349,594.1824 L453.9322,594.5982 L456.2807,593.9478 L458.6686,594.1575 L458.681,594.3834 L461.0059,594.1215 L463.3266,593.7831 L465.6568,593.6172 L468.0089,593.85 L470.33,593.5187 L470.3242,593.3857 L472.6622,593.681 L474.9611,593.0723 L477.3044,593.4915 L479.6227,593.3319 L481.9342,593.0164 L481.9354,593.1253 L484.2735,593.0109 L486.6159,593.2863 L488.9544,593.2095 L491.2911,592.9855 L493.6293,592.8837 L493.634,593.0028 L496.0138,592.9198 L498.4154,593.3898 L500.7924,593.2344 L503.1795,593.3362 L505.5633,593.3535 L505.5348,593.0846 L508.0086,593.4354 L510.5166,594.1101 L512.9761,594.3265 L515.4182,594.3787 L517.8844,594.6587 L517.8584,594.5179 L520.4379,595.0377 L522.9715,595.3081 L525.6315,596.264 L528.2289,596.8806 L530.7405,597.0321 L530.8018,597.2579 L533.5293,598.0651 L536.1403,598.4433 L538.8742,599.2743 L541.5268,599.8055 L544.2798,600.7067 L544.3228,600.8254 L547.1912,601.8516 L550.1116,603.021 L552.8673,603.736 L555.7558,604.8175 L558.6502,605.9154 L558.7318,606.0949 L561.8245,607.5401 L564.6959,608.4983 L567.8244,610.0224 L570.9575,611.5564 L574,612.8912 L573.8387,612.6728 L576.1128,614.5086 L578.1072,615.9655 L580.032,617.3283 L582.1157,618.9063 L584.0977,620.3465 L584.3606,620.5355 L585.1855,621.9352 L586.6128,623.7681 L587.8029,625.4304 L588.9423,627.0563 L590.1013,628.6962 L590.1524,628.7322 L591.3331,630.4147 L592.2557,631.9152 L593.5274,633.6619 L594.696,635.3357 L596.0542,637.1433 L596.0717,637.1657 L598.0674,638.7238 L600.0767,640.2992 L601.9422,641.69 L603.9924,643.3179 L606,644.8912 L605.976,644.8434 L609.2476,646.6914 L612.3503,648.2029 L615.3012,649.4116 L618.5161,651.1466 L621.6633,652.7467 L621.5601,652.5119 L624.959,654.2896 L628.2604,655.8454 L631.4932,657.2449 L634.5622,658.2717 L637.8842,659.8744 L637.9585,660.0668 L641.0973,660.8535 L644.5804,662.5315 L647.8325,663.6114 L651.228,665.0627 L654.5446,666.3096 L654.579,666.4107 L658.0085,667.6638 L661.2342,668.3178 L664.8017,669.9763 L668.1554,671.0068 L671.5262,672.0874 L671.5716,672.2387 L675.0587,673.4369 L678.4008,674.1521 L681.8594,675.2555 L685.3012,676.3029 L688.7108,677.2432 L688.7333,677.328 L692.1646,678.1567 L695.6994,679.3762 L699.0031,679.7227 L702.5906,681.1413 L705.9802,681.8123 L705.9172,681.5422 L709.3728,682.3819 L712.8785,683.4366 L716.3245,684.235 L719.7191,684.813 L723.216,685.8298 L723.2529,686.0099 L726.6425,686.5775 L730.1144,687.5467 L733.5259,688.2211 L736.8432,688.4357 L740.3,689.3312 " fill="none" style="stroke:#8B0000;stroke-width:4.0;"/><polygon fill="#8B0000" points="745.18,690.2412,745.2197,690.2989,743.4785,689.0116,741.9699,688.0628,740.3855,687.0037,738.5521,685.5822,737.0635,684.6625,737.0421,684.6478,737.5864,685.5149,738.2384,686.4558,738.9653,687.4481,739.4342,688.2634,740.2643,689.3266,740.3688,689.4788,739.2126,689.7936,738.3614,690.5526,737.5473,691.3659,736.5168,691.8638,735.6002,692.5275,735.6055,692.5496,737.5137,692.0599,739.4459,691.6709,741.3666,691.2332,743.3094,690.8883,745.18,690.2412" style="stroke:#8B0000;stroke-width:4.0;"/><text fill="#000000" font-family="Chalkduster" font-size="24" lengthAdjust="spacing" textLength="277" x="607" y="637.732">Check every request</text></g><!--link a2 to lic--><g id="link_a2_lic"><path d="M130.98,546.7112 L131.0404,546.7824 L133.6294,548.9204 L136.5727,551.476 L139.4006,553.8956 L141.849,555.8681 L144.8228,558.4595 L144.8009,558.4327 L146.2581,559.5828 L147.8255,560.8677 L149.4694,562.2464 L150.8495,563.302 L152.5991,564.8101 L152.7521,565.0028 L154.0841,565.907 L155.8627,567.374 L157.6957,568.9097 L159.2118,570.0458 L160.8945,571.3921 L160.913,571.4161 L162.6411,572.7306 L164.4534,574.1545 L166.225,575.5256 L168.0741,576.9975 L169.6707,578.1409 L169.8486,578.3803 L171.6945,579.7534 L173.4257,580.9721 L175.3248,582.4168 L177.2318,583.8721 L178.8894,584.9917 L178.7028,584.7311 L180.9895,586.6146 L182.6618,587.6399 L184.8012,589.3177 L186.4596,590.3235 L188.5123,591.8801 L188.4951,591.855 L190.6967,593.524 L192.4956,594.6066 L194.5322,596.0353 L196.5887,597.493 L198.5013,598.7412 L198.6027,598.8958 L200.5636,600.0936 L202.698,601.5556 L204.5517,602.59 L206.824,604.2622 L208.818,605.5104 L208.9469,605.7171 L211.0438,607.0006 L213.2046,608.3867 L215.0681,609.2958 L217.1496,610.5546 L219.4242,612.1231 L219.2841,611.8851 L221.5825,613.3788 L223.7229,614.6044 L226.0924,616.219 L228.0709,617.1694 L230.2818,618.5146 L230.2081,618.3811 L232.5449,619.8245 L234.5669,620.6973 L236.8127,621.9759 L239.2775,623.6517 L241.3523,624.6202 L241.4406,624.7926 L243.7501,626.0618 L245.7853,626.795 L248.1642,628.1996 L250.4682,629.4579 L252.5977,630.3754 L252.5085,630.1853 L254.856,631.4048 L257.1742,632.562 L259.5499,633.8416 L261.7024,634.6457 L263.9796,635.7153 L264.0597,635.9047 L266.1797,636.4607 L268.4543,637.3822 L270.955,638.8375 L273.0395,639.31 L275.4598,640.5755 L275.539,640.7874 L277.8,641.5246 L280.0342,642.1902 L282.3288,643.0176 L284.7634,644.219 L287,644.8912 L286.961,644.764 L290.425,646.1694 L293.6238,646.7099 L297.1242,648.2339 L300.4547,649.2041 L303.7395,650.0251 L303.7668,650.1305 L305.6444,650.5379 L307.6198,651.3228 L309.5069,651.7667 L311.3569,652.0681 L313.2377,652.4878 L313.2649,652.6039 L315.2644,652.9103 L317.3904,653.7555 L319.3734,653.9914 L321.4152,654.4779 L323.4377,654.8821 L323.3811,654.6177 L325.5728,655.1713 L327.8327,656.0433 L329.9961,656.4648 L332.1249,656.7246 L334.3017,657.2086 L334.2741,657.0681 L336.581,657.565 L338.839,657.8132 L341.2315,658.7452 L343.5574,659.3387 L345.792,659.4681 L345.8338,659.6983 L348.263,660.2106 L350.6127,660.2856 L353.0462,660.8222 L355.4243,661.0532 L357.8708,661.6614 L357.8918,661.7859 L360.4149,662.1951 L362.9633,662.7546 L365.4314,662.8374 L367.9644,663.3047 L370.5002,663.7891 L370.5297,663.984 L375.8899,664.8508 L381.1697,665.1887 L386.5429,666.1411 L391.9177,667.1043 L397.2596,667.8511 L397.2236,667.582 L402.982,668.7686 L408.6781,669.4883 L414.3586,670.0921 L420.0746,670.9609 L425.7679,671.66 L425.8061,671.9816 L431.7424,672.2343 L437.7663,673.2237 L443.7557,673.9231 L449.7377,674.5605 L455.7226,675.2218 L455.7292,675.2841 L461.9477,675.9361 L468.1326,676.2742 L474.3629,677.037 L480.5797,677.6743 L486.8213,678.5424 L486.824,678.5706 L493.2131,679.1985 L499.6042,679.8481 L505.9729,680.2649 L512.3705,680.9809 L518.7614,681.6278 L518.7568,681.5746 L525.2798,682.4545 L531.7698,682.9592 L538.2301,683.1266 L544.742,683.8805 L551.2407,684.484 L551.2201,684.2283 L557.7942,685.1384 L564.3488,685.8068 L570.8897,686.305 L577.3979,686.3974 L583.9566,687.117 L583.9718,687.3226 L590.4623,687.2708 L597.0232,688.1719 L603.5369,688.4337 L610.0799,689.0923 L616.6067,689.5326 L616.614,689.6391 L623.0774,690.1828 L629.4977,690.0951 L635.9902,691.066 L642.4376,691.375 L648.8885,691.7368 L648.8985,691.8944 L655.2317,692.4683 L661.5331,692.5388 L667.8601,693.0139 L674.1834,693.4306 L680.4997,693.7357 L680.5146,693.9983 L690.4997,694.3022 L700.5535,695.8169 L710.4538,694.6268 L720.5426,696.7585 L730.4528,695.7429 L740.5,697.1412 " fill="none" style="stroke:#8B0000;stroke-width:4.0;"/><polygon fill="#8B0000" points="745.29,697.3912,745.3217,697.4536,743.471,696.3766,741.8061,695.6658,740.0807,694.8358,738.1562,693.6135,736.5073,692.9342,736.4881,692.9168,737.1596,693.679,737.9281,694.5286,738.764,695.4391,739.3676,696.14,740.2966,697.1344,740.4202,697.2714,739.3158,697.7362,738.5724,698.6011,737.8729,699.5148,736.9173,700.1446,736.0964,700.9236,736.1046,700.9449,737.9313,700.2072,739.7952,699.5662,741.6412,698.8786,743.5213,698.2799,745.29,697.3912" style="stroke:#8B0000;stroke-width:4.0;"/><text fill="#000000" font-family="Chalkduster" font-size="24" lengthAdjust="spacing" textLength="277" x="288" y="637.732">Check every request</text></g><!--link res to lic--><g id="link_res_lic"><path d="M993.9,333.3512 L993.9196,333.4425 L996.2558,333.6854 L998.7069,334.4638 L1001.1206,335.0678 L1003.4112,335.0984 L1005.8722,335.9227 L1005.8645,335.889 L1008.1853,336.2769 L1010.545,336.8344 L1012.9316,337.51 L1015.2252,337.7789 L1017.6491,338.6174 L1017.7076,338.8564 L1019.8897,338.9093 L1022.2423,339.66 L1024.6158,340.4958 L1026.8682,340.8363 L1029.1843,341.4373 L1029.192,341.4666 L1031.4301,342.0129 L1033.7032,342.6928 L1035.9594,343.3083 L1038.2478,344.0467 L1040.4313,344.3843 L1040.5122,344.6713 L1042.6956,345.2901 L1044.8269,345.7237 L1047.0345,346.4283 L1049.2457,347.1456 L1051.3435,347.4604 L1051.2501,347.1538 L1053.5376,348.3904 L1055.5176,348.6173 L1057.7313,349.6118 L1059.7043,349.8158 L1061.8746,350.6677 L1061.8651,350.6388 L1063.9988,351.6487 L1065.9092,351.9833 L1067.9514,352.7164 L1070.0046,353.4829 L1071.9781,354.0081 L1072.0409,354.1821 L1073.9034,354.7016 L1075.8732,355.5184 L1077.6694,355.8542 L1079.7245,356.9074 L1081.6075,357.4837 L1081.7013,357.7085 L1085.2137,359.1389 L1088.7727,360.6809 L1092.1152,361.7041 L1095.6165,363.1077 L1099.2582,364.848 L1099.1305,364.6032 L1102.2855,366.4106 L1105.2965,367.9421 L1108.5164,369.8738 L1111.3797,371.1222 L1114.455,372.7768 L1114.3686,372.6512 L1116.9867,374.5622 L1119.2355,375.9362 L1121.747,377.6921 L1124.5154,379.8217 L1126.8262,381.2858 L1126.9626,381.4233 L1128.8909,383.3386 L1130.395,384.8265 L1132.4304,386.8497 L1134.3501,388.7563 L1136,390.3912 L1135.8316,390.2657 L1137.8149,392.8481 L1139.7431,395.3893 L1141.7796,398.0113 L1143.3949,400.3195 L1145.2454,402.8029 L1145.4181,402.9146 L1146.6069,405.0937 L1148.129,407.4883 L1150.1379,410.1977 L1151.2506,412.3275 L1153.0863,414.9249 L1153.2849,415.0331 L1154.4616,417.3455 L1155.571,419.6213 L1156.8321,421.9798 L1158.4438,424.5292 L1159.5594,426.8084 L1159.4376,426.7548 L1160.8286,429.2534 L1161.3914,431.3879 L1162.8959,433.9364 L1163.8702,436.2519 L1164.7016,438.5044 L1164.8049,438.5388 L1165.4911,440.8231 L1166.5472,443.2304 L1167.2691,445.5266 L1167.8514,447.7762 L1168.5496,450.0644 L1168.6659,450.0907 L1169.0113,452.3467 L1169.8966,454.7246 L1170.1713,456.9646 L1170.6971,459.2614 L1171.1404,461.5395 L1170.872,461.5073 L1171.2357,463.8064 L1171.9228,466.1441 L1172.1523,468.4271 L1172.2178,470.6904 L1172.5108,472.9809 L1172.3676,472.9786 L1172.4508,475.2711 L1172.2805,477.5596 L1172.8071,479.8593 L1172.9888,482.1535 L1172.6975,484.4399 L1172.9306,484.4593 L1172.8133,486.7711 L1172.2529,489.046 L1172.1601,491.3598 L1171.7578,493.6478 L1171.7374,495.9677 L1171.8617,495.9898 L1171.4314,498.3164 L1171.1511,500.6698 L1170.3949,502.9385 L1170.0226,505.2755 L1169.6674,507.6155 L1169.8579,507.6661 L1169.2824,510.0441 L1168.19,512.2845 L1167.6982,514.6847 L1167.2169,517.0878 L1166.5242,519.4345 L1166.2677,519.3455 L1165.8367,521.8943 L1164.9607,524.2887 L1163.9742,526.6447 L1163.2403,529.0884 L1162.3447,531.476 L1162.6432,531.6015 L1161.1807,533.8851 L1160.4021,536.4563 L1159.3543,538.9143 L1158.2489,541.3481 L1157.1657,543.7912 L1157.222,543.8186 L1155.9827,546.3413 L1154.4595,548.726 L1153.3205,551.2974 L1152.0679,553.8136 L1151.024,556.4313 L1151.049,556.4448 L1149.6449,559.0532 L1148.2602,561.6721 L1146.6699,564.1793 L1145.3436,566.83 L1143.9565,569.4475 L1143.9105,569.4203 L1142.5858,572.2668 L1140.9371,574.9216 L1138.9969,577.4038 L1137.5634,580.1859 L1136,582.8912 L1135.7859,582.7498 L1134.982,584.6659 L1133.9758,586.4484 L1132.8271,588.1369 L1131.3386,589.601 L1130.3752,591.4118 L1130.5397,591.5362 L1128.8823,592.8379 L1127.9869,594.7161 L1126.5803,596.2074 L1125.491,597.9389 L1124.2271,599.5383 L1124.3082,599.6078 L1123.0605,601.223 L1121.3321,602.4266 L1120.4096,604.3205 L1118.9832,605.7827 L1117.597,607.2794 L1117.7109,607.3888 L1116.4226,608.9825 L1114.7705,610.2269 L1113.4108,611.7521 L1112.0088,613.2368 L1110.5263,614.644 L1110.5862,614.708 L1109.032,616.043 L1107.7541,617.6732 L1105.8589,618.6442 L1104.7219,620.4247 L1103.0561,621.6406 L1102.8767,621.4291 L1101.3352,622.785 L1099.9363,624.3092 L1098.3673,625.6328 L1096.6519,626.7837 L1095.2279,628.2782 L1095.3402,628.4238 L1093.6285,629.574 L1092.1672,631.0488 L1090.5221,632.2853 L1088.5902,633.1503 L1087.0829,634.5655 L1086.9809,634.421 L1085.3657,635.7077 L1083.8059,637.0728 L1082.134,638.2792 L1080.4238,639.4314 L1078.6625,640.5112 L1078.5798,640.3836 L1077.0855,641.871 L1075.3539,642.9926 L1073.4583,643.8612 L1071.681,644.9123 L1070.0079,646.124 L1069.9164,645.9709 L1068.1895,647.0999 L1066.5003,648.292 L1064.6839,649.2712 L1062.8348,650.1957 L1061.1605,651.4128 L1061.2653,651.6024 L1059.2621,652.229 L1057.669,653.5977 L1055.853,654.5631 L1054.0414,655.5363 L1052.1616,656.3864 L1052.302,656.6603 L1050.29,657.2225 L1048.4571,658.1342 L1046.8013,659.3918 L1044.7534,659.8838 L1043.0525,661.0533 L1043.0078,660.9594 L1041.239,661.9735 L1039.3944,662.8286 L1037.4772,663.531 L1035.7019,664.5315 L1033.8745,665.4226 L1034.0086,665.7251 L1032.1501,666.5021 L1030.0848,666.8124 L1028.3652,667.9026 L1026.4174,668.4779 L1024.6688,669.5028 L1024.6645,669.4919 L1021.0514,671.0894 L1017.4066,672.6074 L1013.5619,673.6255 L1010.0719,675.5308 L1006.34,676.8312 " fill="none" style="stroke:#8B0000;stroke-width:4.0;"/><polygon fill="#8B0000" points="1001.86,678.4612,1001.8648,678.5311,1003.8157,678.4582,1005.7947,678.795,1007.7646,678.9984,1009.7043,678.763,1011.6858,679.1351,1011.6748,679.1116,1010.6001,678.5287,1009.5804,678.0643,1008.5991,677.6821,1007.4857,677.0164,1006.5573,676.7479,1006.7246,676.8257,1006.8443,675.6335,1007.4524,674.6687,1008.1201,673.7315,1008.4411,672.633,1008.9445,671.6194,1008.9603,671.6357,1007.5202,672.9801,1006.152,674.3989,1004.7492,675.7818,1003.4125,677.2332,1001.86,678.4612" style="stroke:#8B0000;stroke-width:4.0;"/><text fill="#000000" font-family="Chalkduster" font-size="24" lengthAdjust="spacing" textLength="275" x="1180" y="483.732">Sign up for licences</text><text fill="#000000" font-family="Chalkduster" font-size="24" lengthAdjust="spacing" textLength="226" x="1204.5" y="514.3619">✅  Click thru ✅</text><text fill="#000000" font-family="Chalkduster" font-size="24" lengthAdjust="spacing" textLength="176" x="1235.5" y="544.9917">✍️ Apply ✍️</text><text fill="#000000" font-family="Chalkduster" font-size="24" lengthAdjust="spacing" textLength="277" x="1185" y="575.6215">✉️  By invitation ✉️</text></g><!--SRC=[VP9DJjn048NtVOfYzfwHlKIZaM3Oi412i4MAQjh5k4N_qLqDSIAMBBA8Se4S9EV91RW2PNj0an71YrQ_UlMz_d6pOKl7S6Oo9xCfJ2sWrfGpwE0v1GkvE8UfLqV6QrjQ-kBGzp2VBrfah4JWbXnvhZBtbkRybGzR5rYu2ybyGpR1Lpgu6BmGUHwBiqgXvf1WTaMPCEcE4YnW7Pmhtd0F5-Gsb6Q06H9bfH9fHh-rD10nP2EmeJo3vJAzwNwrWkyAvDlhlWo9qK8zHiNwFtOpsSsXVN9vlaEn_iYRE9ouuMescCKwazcEQ-kFl8bh6_MaOWtBgWsFlbeDYyHcJpR3mJDKbcvPjBGUmnNT5yey9lxhDeUkmhrisGZkPSlQer_9t1ejwBeZVGVqGAcNOuun0_5vmxI3PBOTl_TTcws74k5M_gzKoClBkl5_Vpy3h4NV0NUfWEWRB-FFbp-_u2H6s-_4MFqnLE6q1-CV38zFQ5TLhm00]--></g></svg>