<?xml version="1.0" encoding="us-ascii" standalone="no"?><svg xmlns="http://www.w3.org/2000/svg" xmlns:xlink="http://www.w3.org/1999/xlink" contentStyleType="text/css" height="581px" preserveAspectRatio="none" style="width:906px;height:581px;background:#FFFFFF;" version="1.1" viewBox="0 0 906 581" width="906px" zoomAndPan="magnify"><defs/><g><!--cluster p1--><g id="cluster_p1"><polygon fill="#98FB98" points="158,9.2889,158,9.4991,168,8.8746,178,9.4822,188,9.6886,198,8.5756,208,9.2112,218,8.8625,228,8.9055,238,9.2208,248,8.5976,258,9.8426,268,8.6587,278,9.0912,288,9.7209,298,9.2032,308,9.3572,318,9.257,328,9.4675,338,9.5281,348,9.8746,358,9.96,368,9.9682,378,9.5436,388,9.7525,398,9.9912,408,8.5678,418,9.9675,428,8.9924,438,9.8228,448,8.7939,458,9.2205,468,9.2889,468.0946,9.5173,468.3473,9.4204,468.7205,9.6143,469.1039,9.8326,469.4673,10.0029,469.7678,10.0212,469.7666,10.0207,470.0027,10.4114,469.8844,10.6553,470.2947,11.1181,470.5224,11.5053,470.5,11.7889,470.9445,11.7889,471.113,21.7697,470.0169,31.7505,469.8478,41.7313,469.8786,51.7121,470.4411,61.6929,470.3035,71.6737,471.1814,81.6545,470.3253,91.6353,470.1569,101.6161,470.7283,111.5969,469.8332,121.5777,469.9809,131.5585,471.149,141.5393,470.9357,151.5201,471.2345,161.5009,470.1782,171.4817,470.8192,181.4625,471.0904,191.4433,470.0276,201.4241,470.4041,211.4049,470.626,221.3857,471.1518,231.3665,470.4958,241.3473,470.9626,251.3281,470.5,261.3089,470.3295,261.2383,470.145,261.5761,470.3622,262.0803,469.8399,262.2782,470.071,262.7881,469.7678,263.0767,469.7941,263.1404,469.38,263.1407,469.0155,263.2607,468.7656,263.6573,468.3154,263.5703,468,263.8089,468,264.4008,458,263.2562,448,264.4264,438,264.2933,428,264.0539,418,263.8562,408,264.5356,398,264.4225,388,263.9782,378,264.0771,368,263.6787,358,264.5254,348,263.9638,338,263.9815,328,263.2006,318,263.4037,308,264.3397,298,264.2387,288,263.766,278,263.4868,268,263.59,258,263.1228,248,264.2237,238,264.5485,228,264.3353,218,264.5039,208,263.6722,198,263.8962,188,263.4214,178,264.093,168,264.0557,158,263.8089,158.0705,263.9791,157.6172,263.5918,157.2757,263.4747,156.9959,263.5062,156.6582,263.3979,156.2322,263.0767,156.0744,263.0113,156.0261,262.6984,155.9853,262.3887,155.6048,261.9381,155.7553,261.7076,155.5,261.3089,155.758,261.3089,155.3992,251.3281,155.6422,241.3473,156.2287,231.3665,155.1871,221.3857,155.815,211.4049,155.7856,201.4241,155.6158,191.4433,155.6409,181.4625,155.6135,171.4817,154.8758,161.5009,155.0992,151.5201,155.0385,141.5393,155.5638,131.5585,155.5881,121.5777,155.6617,111.5969,155.209,101.6161,155.4325,91.6353,155.3798,81.6545,156.0769,71.6737,155.9266,61.6929,155.0145,51.7121,155.4271,41.7313,154.9228,31.7505,155.7884,21.7697,155.5,11.7889,155.6874,11.8666,155.8142,11.5049,155.6588,11.0263,156.0822,10.7875,155.857,10.28,156.2322,10.0212,156.2578,10.0828,156.5476,9.7826,156.9517,9.7581,157.3236,9.6559,157.7067,9.5808,158,9.2889" style="stroke:#181818;stroke-width:4.0;"/><text fill="#000000" font-family="Chalkduster" font-size="24" font-style="italic" lengthAdjust="spacing" textLength="169" x="228.5" y="35.1298">&#171;repository&#187;</text><text fill="#000000" font-family="Chalkduster" font-size="24" font-weight="bold" lengthAdjust="spacing" textLength="212" x="207" y="65.7597">Access Portal 1</text></g><!--cluster p2--><g id="cluster_p2"><polygon fill="#98FB98" points="513,9.2889,513,9.4991,522.8718,8.8746,532.7436,9.4822,542.6154,9.6886,552.4872,8.5756,562.359,9.2112,572.2308,8.8625,582.1026,8.9055,591.9744,9.2208,601.8462,8.5976,611.7179,9.8426,621.5897,8.6587,631.4615,9.0912,641.3333,9.7209,651.2051,9.2032,661.0769,9.3572,670.9487,9.257,680.8205,9.4675,690.6923,9.5281,700.5641,9.8746,710.4359,9.96,720.3077,9.9682,730.1795,9.5436,740.0513,9.7525,749.9231,9.9912,759.7949,8.5678,769.6667,9.9675,779.5385,8.9924,789.4103,9.8228,799.2821,8.7939,809.1538,9.2205,819.0256,10.0306,828.8974,9.2402,838.7692,9.3943,848.641,9.6276,858.5128,9.7052,868.3846,9.285,878.2564,9.5762,888.1282,8.7165,898,9.2889,898.0363,9.3765,898.4235,9.6042,898.7638,9.7187,899.1389,9.9171,899.3526,9.726,899.7678,10.0212,899.5669,9.938,899.7228,10.2955,900.0425,10.7208,900.1466,11.0568,900.5634,11.5223,900.5,11.7889,900.3253,11.7889,900.1569,21.7697,900.7283,31.7505,899.8332,41.7313,899.9809,51.7121,901.149,61.6929,900.9357,71.6737,901.2345,81.6545,900.1782,91.6353,900.8192,101.6161,901.0904,111.5969,900.0276,121.5777,900.4041,131.5585,900.626,141.5393,901.1518,151.5201,900.4958,161.5009,900.9626,171.4817,899.9462,181.4625,899.8227,191.4433,901.0036,201.4241,899.7831,211.4049,901.009,221.3857,900.7066,231.3665,900.2321,241.3473,900.1462,251.3281,900.5,261.3089,900.6413,261.3675,900.2614,261.6243,900.3894,262.0916,899.8904,262.2991,900.1044,262.8019,899.7678,263.0767,899.8295,263.2259,899.4455,263.2986,899.0667,263.3842,898.7998,263.7398,898.4318,263.8515,898,263.8089,898,263.9782,888.1282,264.0771,878.2564,263.6787,868.3846,264.5254,858.5128,263.9638,848.641,263.9815,838.7692,263.2006,828.8974,263.4037,819.0256,264.3397,809.1538,264.2387,799.2821,263.766,789.4103,263.4868,779.5385,263.59,769.6667,263.1228,759.7949,264.2237,749.9231,264.5485,740.0513,264.3353,730.1795,264.5039,720.3077,263.6722,710.4359,263.8962,700.5641,263.4214,690.6923,264.093,680.8205,264.0557,670.9487,264.3613,661.0769,263.5793,651.2051,263.6745,641.3333,264.2524,631.4615,264.3763,621.5897,263.2964,611.7179,263.6151,601.8462,263.9582,591.9744,263.1981,582.1026,264.1623,572.2308,264.0669,562.359,263.7082,552.4872,263.9512,542.6154,264.5376,532.7436,263.4961,522.8718,264.1239,513,263.8089,513.0364,263.8969,512.6612,263.6982,512.3109,263.5595,511.9538,263.4046,511.5062,263.0309,511.2322,263.0767,511.1088,263.0256,510.9437,262.6643,510.959,262.3778,510.82,262.0273,510.6963,261.6831,510.5,261.3089,510.209,261.3089,510.4325,251.3281,510.3798,241.3473,511.0769,231.3665,510.9266,221.3857,510.0145,211.4049,510.4271,201.4241,509.9228,191.4433,510.7884,181.4625,511.1085,171.4817,511.0446,161.5009,510.0644,151.5201,510.964,141.5393,509.7572,131.5585,510.7002,121.5777,510.2007,111.5969,510.5967,101.6161,510.7403,91.6353,510.9721,81.6545,509.7801,71.6737,510.9755,61.6929,510.6782,51.7121,510.8553,41.7313,511.2478,31.7505,510.5055,21.7697,510.5,11.7889,510.554,11.8113,510.7122,11.4626,510.8536,11.107,510.9391,10.7282,511.3047,10.4654,511.2322,10.0212,511.1545,9.8334,511.6579,10.0488,511.8597,9.5361,512.224,9.4154,512.6516,9.4477,513,9.2889" style="stroke:#181818;stroke-width:4.0;"/><text fill="#000000" font-family="Chalkduster" font-size="24" font-style="italic" lengthAdjust="spacing" textLength="169" x="621" y="35.1298">&#171;repository&#187;</text><text fill="#000000" font-family="Chalkduster" font-size="24" font-weight="bold" lengthAdjust="spacing" textLength="210" x="600.5" y="65.7597">Access Portal 2</text></g><!--entity a1--><g id="elem_a1"><polygon fill="#F0FFF0" points="201,97.2889,201,97.4991,211.125,96.8746,221.25,97.4822,231.375,97.6886,241.5,96.5756,251.625,97.2112,261.75,96.8625,271.875,96.9055,282,97.2208,292.125,96.5976,302.25,97.8426,312.375,96.6587,322.5,97.0912,332.625,97.7209,342.75,97.2032,352.875,97.3572,363,97.257,373.125,97.4675,383.25,97.5281,393.375,97.8746,403.5,97.96,413.625,97.9682,423.75,97.5436,433.875,97.7525,444,97.2889,444.0896,97.5052,444.2616,97.2133,444.7937,97.7908,445.0228,97.637,445.4823,98.0391,445.7678,98.0212,445.6153,97.958,445.8931,98.366,446.289,98.8229,446.1921,99.0756,446.386,99.4488,446.5,99.7889,446.8386,99.7889,446.9162,109.6118,446.4961,119.4346,446.7872,129.2574,445.9276,139.0802,446.7844,148.903,447.0482,158.7258,446.9445,168.5486,447.113,178.3714,446.0169,188.1942,445.8478,198.017,445.8786,207.8399,446.4411,217.6627,446.3035,227.4855,446.5,237.3083,446.7098,237.3952,446.2998,237.6396,446.1015,237.9716,446.131,238.3981,445.7089,238.6374,445.7678,239.076,445.7015,238.9162,445.497,239.4223,445.1162,239.5031,444.8008,239.7416,444.3125,239.5627,444,239.8083,444,240.1275,433.875,240.3987,423.75,239.3359,413.625,239.7124,403.5,239.9343,393.375,240.46,383.25,239.8041,373.125,240.2709,363,239.2545,352.875,239.131,342.75,240.3119,332.625,239.0913,322.5,240.3172,312.375,240.0149,302.25,239.5404,292.125,239.4545,282,240.267,271.875,239.509,261.75,240.4001,251.625,239.2555,241.5,240.4257,231.375,240.2926,221.25,240.0533,211.125,239.8555,201,239.8083,201.0927,240.032,200.7247,239.8508,200.3145,239.5675,199.9736,239.4515,199.5692,239.1824,199.2322,239.076,199.4529,239.1674,199.1335,238.7423,198.9925,238.391,198.6055,237.9378,198.5217,237.6101,198.5,237.3083,199.0307,237.3083,198.9298,227.4855,198.4571,217.6627,198.1778,207.8399,198.2811,198.017,197.8138,188.1942,198.9147,178.3714,199.2396,168.5486,199.0264,158.7258,199.1949,148.903,198.3633,139.0802,198.5872,129.2574,198.1124,119.4346,198.784,109.6118,198.5,99.7889,198.576,99.8204,198.8166,99.5059,198.7222,99.0525,198.8979,98.7111,199.2224,98.4313,199.2322,98.0212,199.3046,98.1959,199.5204,97.7169,199.9146,97.6686,200.3119,97.6278,200.5685,97.2473,201,97.2889" style="stroke:#181818;stroke-width:4.0;"/><text fill="#000000" font-family="Chalkduster" font-size="24" font-style="italic" lengthAdjust="spacing" textLength="218" x="213.5" y="131.1298">&#171;authorization&#187;</text><text fill="#000000" font-family="Chalkduster" font-size="24" lengthAdjust="spacing" textLength="187" x="208.5" y="161.7597">Authorization</text><text fill="#000000" font-family="Chalkduster" font-size="24" lengthAdjust="spacing" textLength="228" x="208.5" y="192.3895">Role-based acce</text><text fill="#000000" font-family="Chalkduster" font-size="24" lengthAdjust="spacing" textLength="89" x="208.5" y="223.0193">system</text></g><!--entity a2--><g id="elem_a2"><polygon fill="#F0FFF0" points="556.5,97.2889,556.5,97.4991,566.4375,96.8746,576.375,97.4822,586.3125,97.6886,596.25,96.5756,606.1875,97.2112,616.125,96.8625,626.0625,96.9055,636,97.2208,645.9375,96.5976,655.875,97.8426,665.8125,96.6587,675.75,97.0912,685.6875,97.7209,695.625,97.2032,705.5625,97.3572,715.5,97.257,725.4375,97.4675,735.375,97.5281,745.3125,97.8746,755.25,97.96,765.1875,97.9682,775.125,97.5436,785.0625,97.7525,795,97.9912,804.9375,96.5678,814.875,97.9675,824.8125,96.9924,834.75,97.8228,844.6875,96.7939,854.625,97.2205,864.5625,98.0306,874.5,97.2889,874.4938,97.2739,874.867,97.4678,875.2503,97.6861,875.6138,97.8565,875.9137,97.8735,876.2678,98.0212,876.3562,98.0578,876.2379,98.3017,876.6482,98.7646,876.8759,99.1518,876.9905,99.4921,877,99.7889,877.613,99.7889,876.5169,109.6118,876.3478,119.4346,876.3786,129.2574,876.9411,139.0802,876.8035,148.903,877.6814,158.7258,876.8253,168.5486,876.6569,178.3714,877.2283,188.1942,876.3332,198.017,876.4809,207.8399,877.649,217.6627,877.4357,227.4855,877,237.3083,877.2262,237.402,876.7545,237.6208,876.8054,238.0561,876.7425,238.4443,876.2687,238.6622,876.2678,239.076,876.2555,239.0465,875.9303,239.2613,875.6438,239.5697,875.2066,239.5141,874.9126,239.8043,874.5,239.8083,874.5,239.2545,864.5625,239.131,854.625,240.3119,844.6875,239.0913,834.75,240.3172,824.8125,240.0149,814.875,239.5404,804.9375,239.4545,795,240.267,785.0625,239.509,775.125,240.4001,765.1875,239.2555,755.25,240.4257,745.3125,240.2926,735.375,240.0533,725.4375,239.8555,715.5,240.5349,705.5625,240.4219,695.625,239.9775,685.6875,240.0765,675.75,239.678,665.8125,240.5247,655.875,239.9631,645.9375,239.9809,636,239.1999,626.0625,239.4031,616.125,240.339,606.1875,240.238,596.25,239.7654,586.3125,239.4861,576.375,239.5894,566.4375,239.1221,556.5,239.8083,556.5529,239.936,556.2408,239.8896,555.86,239.6775,555.528,239.583,555.0683,239.1804,554.7322,239.076,554.7591,239.0872,554.4664,238.6731,554.5268,238.4052,554.3689,238.0469,554.3166,237.7323,554,237.3083,553.7703,237.3083,553.8656,227.4855,554.4435,217.6627,554.5673,207.8399,553.4875,198.017,553.8061,188.1942,554.1493,178.3714,553.3892,168.5486,554.3534,158.7258,554.258,148.903,553.8992,139.0802,554.1422,129.2574,554.7287,119.4346,553.6871,109.6118,554,99.7889,554.097,99.8291,554.2344,99.4718,554.3285,99.0966,554.4827,98.7463,554.6207,98.3892,554.7322,98.0212,554.6526,97.829,555.0347,97.7513,555.3805,97.5862,555.801,97.6015,556.1577,97.4625,556.5,97.2889" style="stroke:#181818;stroke-width:4.0;"/><text fill="#000000" font-family="Chalkduster" font-size="24" font-style="italic" lengthAdjust="spacing" textLength="218" x="606.5" y="131.1298">&#171;authorization&#187;</text><text fill="#000000" font-family="Chalkduster" font-size="24" lengthAdjust="spacing" textLength="195" x="564" y="161.7597">Authorization:</text><text fill="#000000" font-family="Chalkduster" font-size="24" lengthAdjust="spacing" textLength="303" x="564" y="192.3895">Simple Access Control</text><text fill="#000000" font-family="Chalkduster" font-size="24" lengthAdjust="spacing" textLength="47" x="564" y="223.0193">List</text></g><!--entity rep1--><g id="elem_rep1"><path d="M6,483.8089 L6,483.8089 L6.041,483.8929 L7.2728,482.9833 L8.7447,482.5658 L10.1384,481.9881 L11.2751,480.8833 L12.7676,480.5082 L12.7628,480.474 L16.3098,479.8243 L19.8808,479.3472 L23.4685,478.9899 L26.9987,478.2194 L30.6094,478.0277 L30.6293,478.273 L32.9707,477.5546 L35.3703,477.5524 L37.777,477.6375 L40.1424,477.2143 L42.5295,477.0585 L42.5314,477.0887 L45.1896,476.8827 L47.8561,476.8144 L50.5187,476.6797 L53.1889,476.6718 L55.834,476.2504 L55.8478,476.5483 L58.6935,476.4196 L61.5302,476.0988 L64.3799,476.0592 L67.2303,476.0328 L70.0613,475.5887 L70.0497,475.2684 L73.0099,475.7841 L75.932,475.2451 L78.8831,475.508 L81.8043,474.945 L84.75,475.0589 L84.7492,475.0285 L90.5414,475.2439 L96.3159,474.7482 L102.1008,474.6721 L107.8866,474.6313 L113.666,474.3363 L113.6687,474.5213 L118.7109,474.2603 L123.7577,474.3155 L128.797,473.8593 L133.8476,474.1658 L138.8906,473.9652 L138.8922,474.2088 L143.8138,474.1315 L148.7361,474.1751 L153.6549,473.6568 L158.5763,473.5503 L163.5,473.8089 L163.5,473.8089 L163.4982,473.5328 L168.4217,473.814 L173.3432,473.7841 L178.2675,474.2055 L183.187,473.8563 L188.1094,473.9652 L188.1071,473.8127 L193.1558,474.1409 L198.1949,473.8173 L203.2407,473.9572 L208.2933,474.5505 L213.334,474.3363 L213.3388,474.5299 L219.1253,474.8072 L224.8968,474.4824 L230.6871,474.9117 L236.4734,475.1767 L242.25,475.0589 L242.2424,474.8491 L245.1862,475.1223 L248.1275,475.3268 L251.0737,475.6663 L254.0009,475.4809 L256.9387,475.5887 L256.9483,475.7941 L259.7727,475.4752 L262.6157,475.5527 L265.4855,476.2093 L268.3058,475.7997 L271.166,476.2504 L271.1797,476.4761 L273.8325,476.5036 L276.4806,476.4547 L279.1391,476.5783 L281.8219,477.1004 L284.4705,477.0585 L284.4597,476.9259 L286.8758,477.5145 L289.2186,477.2013 L291.6448,477.9135 L294.024,478.0484 L296.3906,478.0277 L296.4056,478.1355 L299.9619,478.5446 L303.5718,479.3397 L307.1333,479.7861 L310.6744,480.0866 L314.2324,480.5082 L314.2847,480.6153 L315.5606,481.1163 L317.079,482.1147 L318.3231,482.5505 L319.6801,483.2177 L321,483.8089 L319.3777,483.8089 L319.9194,493.846 L322.4153,503.8831 L322.146,513.9202 L320.8855,523.9573 L320.1409,533.9944 L320.4162,544.0315 L321,554.0686 L321,554.0686 L320.8663,553.7945 L319.7273,554.8944 L318.4371,555.6844 L317.042,556.2594 L315.7213,556.9868 L314.2324,557.3694 L314.2241,557.3092 L310.6694,557.9039 L307.072,558.191 L303.5447,558.9827 L299.9741,559.4624 L296.3906,559.8499 L296.4105,560.0946 L293.9983,559.942 L291.6177,560.178 L289.2545,560.6279 L286.8749,560.8766 L284.4705,560.8191 L284.4566,560.5917 L281.8043,560.8947 L279.1527,561.2086 L276.4713,561.033 L273.8364,561.6224 L271.166,561.6272 L271.1713,561.7417 L268.3185,561.7148 L265.478,561.955 L262.6447,562.3477 L259.7777,562.0176 L256.9387,562.2888 L256.9438,562.4287 L254.0056,562.5217 L251.0651,562.5522 L248.1277,562.6693 L245.1896,562.7631 L242.25,562.8186 L242.2431,562.5413 L236.4623,562.7851 L230.6785,562.9026 L224.9011,563.2806 L219.1182,563.4359 L213.334,563.5413 L213.335,563.6132 L208.2872,563.4862 L203.2437,563.6597 L198.1984,563.7105 L193.1581,564.0945 L188.1094,563.9124 L188.1106,564.1019 L183.1861,563.7278 L178.2654,563.9425 L173.3421,563.7496 L168.4227,564.1655 L163.5,564.0686 L163.5,564.0686 L163.5017,564.339 L158.5797,564.2794 L153.655,563.8125 L148.7357,564.1811 L143.8104,563.6135 L138.8906,563.9124 L138.8919,564.0013 L133.8437,563.7051 L128.8014,563.8069 L123.7574,563.7965 L118.714,563.8253 L113.666,563.5413 L113.658,563.2214 L107.8881,563.608 L102.1016,563.3314 L96.3204,563.2656 L90.5415,563.2954 L84.75,562.8186 L84.7501,562.8211 L81.8151,562.7905 L78.8779,562.7015 L75.9399,562.5883 L72.999,562.3944 L70.0613,562.2888 L70.076,562.6044 L67.2032,561.8858 L64.382,562.2751 L61.512,561.6148 L58.6683,561.5197 L55.834,561.6272 L55.8351,561.645 L53.1739,561.4781 L50.4989,561.0853 L47.8625,561.3259 L45.1934,561.029 L42.5295,560.8191 L42.5557,561.141 L40.1695,560.9208 L37.7453,560.2328 L35.3631,560.0613 L32.9888,559.9865 L30.6094,559.8499 L30.6311,560.0064 L27.0657,559.5312 L23.4911,558.9903 L19.8834,558.2111 L16.3749,558.1456 L12.7676,557.3694 L12.8911,557.6226 L11.4049,556.6904 L10.014,555.9536 L8.6288,555.2286 L7.3117,554.6431 L6,554.0686 L6.3664,554.0686 L5.8176,544.0315 L4.8859,533.9944 L7.2997,523.9573 L4.7762,513.9202 L7.3397,503.8831 L7.1393,493.846 L6,483.8089 " fill="#98FB98" style="stroke:#181818;stroke-width:4.0;"/><path d="M6,483.8089 L6,483.8089 L6.041,483.8929 L7.2728,484.3036 L8.7447,485.2065 L10.1384,485.9491 L11.2751,486.1646 L12.7676,487.1097 L12.7628,487.0755 L16.3098,487.4181 L19.8808,487.9331 L23.4685,488.568 L26.9987,488.7898 L30.6094,489.5902 L30.6293,489.8355 L32.9707,489.5048 L35.3703,489.8903 L37.777,490.3631 L40.1424,490.3276 L42.5295,490.5594 L42.5314,490.5897 L45.1896,490.7069 L47.8561,490.9619 L50.5187,491.1504 L53.1889,491.4658 L55.834,491.3675 L55.8478,491.6655 L58.6935,491.8014 L61.5302,491.7452 L64.3799,491.9703 L67.2303,492.2086 L70.0613,492.0292 L70.0497,491.7088 L73.0099,492.4365 L75.932,492.1094 L78.8831,492.5841 L81.8043,492.2331 L84.75,492.5589 L84.7492,492.5285 L90.5414,493.033 L96.3159,492.8264 L102.1008,493.0393 L107.8866,493.2875 L113.666,493.2816 L113.6687,493.4666 L118.7109,493.3541 L123.7577,493.5577 L128.797,493.2499 L133.8476,493.7049 L138.8906,493.6527 L138.8922,493.8963 L143.8138,493.8815 L148.7361,493.9876 L153.6549,493.5318 L158.5763,493.4878 L163.5,493.8089 L163.5,493.8089 L163.4982,493.5328 L168.4217,493.7515 L173.3432,493.6591 L178.2675,494.018 L183.187,493.6063 L188.1094,493.6527 L188.1071,493.5002 L193.1558,493.6799 L198.1949,493.2079 L203.2407,493.1993 L208.2933,493.6442 L213.334,493.2816 L213.3388,493.4752 L219.1253,493.4634 L224.8968,492.8496 L230.6871,492.9898 L236.4734,492.9658 L242.25,492.5589 L242.2424,492.3491 L245.1862,492.4104 L248.1275,492.403 L251.0737,492.5306 L254.0009,492.1333 L256.9387,492.0292 L256.9483,492.2345 L259.7727,491.651 L262.6157,491.4638 L265.4855,491.8558 L268.3058,491.1816 L271.166,491.3675 L271.1797,491.5933 L273.8325,491.2976 L276.4806,490.9254 L279.1391,490.7257 L281.8219,490.9246 L284.4705,490.5594 L284.4597,490.4268 L286.8758,490.6278 L289.2186,489.9269 L291.6448,490.2514 L294.024,489.9986 L296.3906,489.5902 L296.4056,489.698 L299.9619,489.1149 L303.5718,488.9179 L307.1333,488.372 L310.6744,487.6803 L314.2324,487.1097 L314.2847,487.2169 L315.5606,486.3975 L317.079,486.0756 L318.3231,485.1911 L319.6801,484.538 L321,483.8089 " fill="none" style="stroke:#181818;stroke-width:4.0;"/><text fill="#000000" font-family="Chalkduster" font-size="24" font-style="italic" lengthAdjust="spacing" textLength="169" x="79" y="521.6498">&#171;repository&#187;</text><text fill="#000000" font-family="Chalkduster" font-size="24" lengthAdjust="spacing" textLength="295" x="16" y="552.2797">Archival Repository 1</text></g><!--entity rep2--><g id="elem_rep2"><path d="M362,483.8089 L362,483.8089 L362.0412,483.8928 L363.2638,482.9835 L364.7277,482.5658 L366.113,481.9879 L367.24,480.8837 L368.7246,480.5082 L368.7198,480.474 L372.244,479.8244 L375.7924,479.3472 L379.3575,478.9899 L382.8648,478.2195 L386.4531,478.0277 L386.4732,478.2729 L388.7992,477.5547 L391.1837,477.5524 L393.5755,477.6375 L395.9256,477.2143 L398.2976,477.0585 L398.2995,477.0887 L400.9407,476.8827 L403.5904,476.8144 L406.2361,476.6797 L408.8895,476.6718 L411.5176,476.2504 L411.5315,476.5483 L414.3591,476.4196 L417.1777,476.0988 L420.0094,476.0592 L422.8417,476.0328 L425.6545,475.5887 L425.6429,475.2684 L428.5846,475.7841 L431.4879,475.2451 L434.4204,475.508 L437.3229,474.945 L440.25,475.0589 L440.2492,475.0285 L446.0048,475.2439 L451.7424,474.7482 L457.4906,474.6721 L463.2397,474.6313 L468.9824,474.3363 L468.9852,474.5213 L473.9953,474.2603 L479.0101,474.3155 L484.0173,473.8593 L489.0359,474.1658 L494.0469,473.9652 L494.0484,474.2088 L498.9388,474.1315 L503.8299,474.1751 L508.7174,473.6568 L513.6075,473.5503 L518.5,473.8089 L518.5,473.8089 L518.4982,473.5328 L523.3905,473.814 L528.2807,473.7841 L533.1738,474.2055 L538.062,473.8563 L542.9531,473.9652 L542.9509,473.8127 L547.9675,474.1409 L552.9745,473.8173 L557.9884,473.9572 L563.009,474.5505 L568.0176,474.3363 L568.0224,474.5299 L573.7723,474.8072 L579.507,474.4824 L585.2606,474.9117 L591.0101,475.1767 L596.75,475.0589 L596.7424,474.8491 L599.6675,475.1223 L602.5902,475.3268 L605.5178,475.6663 L608.4263,475.4809 L611.3455,475.5887 L611.3551,475.7941 L614.1613,475.4752 L616.9862,475.5527 L619.8381,476.2093 L622.6401,475.7997 L625.4824,476.2504 L625.4962,476.4761 L628.132,476.5036 L630.7631,476.4547 L633.4048,476.5783 L636.0708,477.1004 L638.7024,477.0585 L638.6915,476.9259 L641.0927,477.5145 L643.4201,477.2013 L645.8315,477.9135 L648.1955,478.0484 L650.5469,478.0277 L650.562,478.1355 L654.0955,478.5446 L657.683,479.3397 L661.2218,479.7861 L664.7401,480.0866 L668.2754,480.5082 L668.3279,480.6152 L669.5948,481.1164 L671.1055,482.1143 L672.3405,482.5504 L673.6889,483.2176 L675,483.8089 L673.3777,483.8089 L673.9194,493.846 L676.4153,503.8831 L676.146,513.9202 L674.8855,523.9573 L674.1409,533.9944 L674.4162,544.0315 L675,554.0686 L675,554.0686 L674.8656,553.7949 L673.7363,554.8942 L672.455,555.684 L671.0683,556.2591 L669.7564,556.9865 L668.2754,557.3694 L668.267,557.3092 L664.7351,557.9039 L661.1601,558.191 L657.6558,558.9827 L654.1078,559.4624 L650.5469,559.8499 L650.5669,560.0946 L648.1697,559.942 L645.8042,560.178 L643.4563,560.6278 L641.0919,560.8766 L638.7024,560.8191 L638.6885,560.5917 L636.0531,560.8947 L633.4185,561.2086 L630.7538,561.033 L628.136,561.6224 L625.4824,561.6272 L625.4878,561.7417 L622.6529,561.7148 L619.8306,561.955 L617.0154,562.3477 L614.1664,562.0176 L611.3455,562.2888 L611.3505,562.4287 L608.431,562.5217 L605.5091,562.5522 L602.5905,562.6693 L599.6709,562.7631 L596.75,562.8186 L596.743,562.5413 L590.999,562.7851 L585.2519,562.9026 L579.5113,563.2806 L573.765,563.4359 L568.0176,563.5413 L568.0186,563.6132 L563.0028,563.4862 L557.9914,563.6597 L552.9781,563.7105 L547.9698,564.0945 L542.9531,563.9124 L542.9543,564.1019 L538.0611,563.7278 L533.1717,563.9425 L528.2796,563.7496 L523.3914,564.1655 L518.5,564.0686 L518.5,564.0686 L518.5017,564.339 L513.6109,564.2794 L508.7175,563.8125 L503.8294,564.1811 L498.9354,563.6135 L494.0469,563.9124 L494.0482,564.0013 L489.032,563.7051 L484.0217,563.8069 L479.0098,563.7965 L473.9984,563.8253 L468.9824,563.5413 L468.9744,563.2214 L463.2413,563.608 L457.4914,563.3314 L451.7469,563.2656 L446.0048,563.2954 L440.25,562.8186 L440.2501,562.8211 L437.3337,562.7905 L434.4153,562.7015 L431.4959,562.5883 L428.5736,562.3944 L425.6545,562.2888 L425.6693,562.6044 L422.8145,561.8858 L420.0115,562.2751 L417.1594,561.6148 L414.3337,561.5197 L411.5176,561.6272 L411.5187,561.645 L408.8744,561.4781 L406.2162,561.0853 L403.5968,561.3259 L400.9446,561.029 L398.2976,560.8191 L398.3239,561.141 L395.9529,560.9208 L393.5436,560.2328 L391.1765,560.0613 L388.8173,559.9865 L386.4531,559.8499 L386.475,560.0064 L382.9322,559.5311 L379.3803,558.9902 L375.795,558.2111 L372.3095,558.1456 L368.7246,557.3694 L368.8487,557.6223 L367.3704,556.6904 L365.9879,555.9537 L364.6112,555.2288 L363.3029,554.6432 L362,554.0686 L362.3664,554.0686 L361.8176,544.0315 L360.8859,533.9944 L363.2997,523.9573 L360.7762,513.9202 L363.3397,503.8831 L363.1393,493.846 L362,483.8089 " fill="#98FB98" style="stroke:#181818;stroke-width:4.0;"/><path d="M362,483.8089 L362,483.8089 L362.0412,483.8928 L363.2638,484.3038 L364.7277,485.2064 L366.113,485.9489 L367.24,486.165 L368.7246,487.1097 L368.7198,487.0755 L372.244,487.4181 L375.7924,487.9331 L379.3575,488.568 L382.8648,488.7898 L386.4531,489.5902 L386.4732,489.8354 L388.7992,489.5049 L391.1837,489.8903 L393.5755,490.3631 L395.9256,490.3276 L398.2976,490.5594 L398.2995,490.5897 L400.9407,490.7069 L403.5904,490.9619 L406.2361,491.1504 L408.8895,491.4657 L411.5176,491.3675 L411.5315,491.6655 L414.3591,491.8014 L417.1777,491.7452 L420.0094,491.9703 L422.8417,492.2086 L425.6545,492.0292 L425.6429,491.7088 L428.5846,492.4365 L431.4879,492.1094 L434.4204,492.5841 L437.3229,492.2331 L440.25,492.5589 L440.2492,492.5285 L446.0048,493.033 L451.7424,492.8264 L457.4906,493.0393 L463.2397,493.2875 L468.9824,493.2816 L468.9852,493.4666 L473.9953,493.3541 L479.0101,493.5577 L484.0173,493.2499 L489.0359,493.7049 L494.0469,493.6527 L494.0484,493.8963 L498.9388,493.8815 L503.8299,493.9876 L508.7174,493.5318 L513.6075,493.4878 L518.5,493.8089 L518.5,493.8089 L518.4982,493.5328 L523.3905,493.7515 L528.2807,493.6591 L533.1738,494.018 L538.062,493.6063 L542.9531,493.6527 L542.9509,493.5002 L547.9675,493.6799 L552.9745,493.2079 L557.9884,493.1993 L563.009,493.6442 L568.0176,493.2816 L568.0224,493.4752 L573.7723,493.4634 L579.507,492.8496 L585.2606,492.9898 L591.0101,492.9658 L596.75,492.5589 L596.7424,492.3491 L599.6675,492.4104 L602.5902,492.403 L605.5178,492.5306 L608.4263,492.1333 L611.3455,492.0292 L611.3551,492.2345 L614.1613,491.651 L616.9862,491.4638 L619.8381,491.8558 L622.6401,491.1816 L625.4824,491.3675 L625.4962,491.5933 L628.132,491.2976 L630.7631,490.9254 L633.4048,490.7257 L636.0708,490.9246 L638.7024,490.5594 L638.6915,490.4268 L641.0927,490.6278 L643.4201,489.9269 L645.8315,490.2514 L648.1955,489.9986 L650.5469,489.5902 L650.562,489.698 L654.0955,489.1149 L657.683,488.9178 L661.2218,488.372 L664.7401,487.6803 L668.2754,487.1097 L668.3279,487.2167 L669.5948,486.3976 L671.1055,486.0753 L672.3405,485.1911 L673.6889,484.538 L675,483.8089 " fill="none" style="stroke:#181818;stroke-width:4.0;"/><text fill="#000000" font-family="Chalkduster" font-size="24" font-style="italic" lengthAdjust="spacing" textLength="169" x="434" y="521.6498">&#171;repository&#187;</text><text fill="#000000" font-family="Chalkduster" font-size="24" lengthAdjust="spacing" textLength="293" x="372" y="552.2797">Archival Repository 2</text></g><!--link p1 to rep1--><g id="link_p1_rep1"><path d="M163.5,264.3734 L163.5934,264.3734 L163.3159,264.9296 L163.5859,265.4857 L163.6776,266.0419 L163.1829,266.598 L163.5,267.1542 L163.4655,267.1542 L163.3104,268.2794 L163.3296,269.4047 L163.4697,270.5299 L163.1927,271.6551 L163.5,272.7804 L163.7461,272.7804 L163.2199,275.0778 L163.4121,277.3753 L163.692,279.6728 L163.4619,281.9702 L163.5,284.2677 L163.591,284.2677 L163.4574,294.4489 L163.738,304.6301 L163.8188,314.8112 L164.2809,324.9924 L164.3947,335.1736 L164.4057,345.3548 L163.8395,355.536 L164.1181,365.7171 L164.4363,375.8983 L162.5384,386.0795 L164.4047,396.2607 L163.1047,406.4419 L164.2117,416.623 L162.84,426.8042 L163.4087,436.9854 L164.4888,447.1666 L163.435,457.3478 L163.5,467.5289 " fill="none" style="stroke:#8B0000;stroke-width:4.0;"/><polygon fill="#8B0000" points="163.5,472.3889,163.564,472.4174,164.1738,470.5329,165.1589,468.8151,166.0217,467.0431,166.4827,465.0924,167.5,463.3889,167.4817,463.3706,166.5995,464.0884,165.8096,464.8986,165.0839,465.7729,164.137,466.426,163.5,467.3889,163.6305,467.5194,162.5514,466.4404,161.8534,465.7423,161.2018,465.0908,160.2798,464.1687,159.5,463.3889,159.5208,463.3982,160.2903,465.1846,161.1544,467.0131,161.9728,468.8213,162.8784,470.6682,163.5,472.3889" style="stroke:#8B0000;stroke-width:4.0;"/><text fill="#000000" font-family="Chalkduster" font-size="24" lengthAdjust="spacing" textLength="197" x="164.5" y="374.6498">Index &amp; serve</text></g><!--link p2 to rep2--><g id="link_p2_rep2"><path d="M518.5,264.3734 L518.5934,264.3734 L518.3159,264.9296 L518.5859,265.4857 L518.6776,266.0419 L518.1829,266.598 L518.5,267.1542 L518.4655,267.1542 L518.3104,268.2794 L518.3296,269.4047 L518.4697,270.5299 L518.1927,271.6551 L518.5,272.7804 L518.7461,272.7804 L518.2199,275.0778 L518.4121,277.3753 L518.692,279.6728 L518.4619,281.9702 L518.5,284.2677 L518.591,284.2677 L518.4574,294.4489 L518.738,304.6301 L518.8188,314.8112 L519.2809,324.9924 L519.3947,335.1736 L519.4057,345.3548 L518.8395,355.536 L519.1181,365.7171 L519.4363,375.8983 L517.5384,386.0795 L519.4047,396.2607 L518.1047,406.4419 L519.2117,416.623 L517.84,426.8042 L518.4087,436.9854 L519.4888,447.1666 L518.435,457.3478 L518.5,467.5289 " fill="none" style="stroke:#8B0000;stroke-width:4.0;"/><polygon fill="#8B0000" points="518.5,472.3889,518.564,472.4174,519.1738,470.5329,520.1589,468.8151,521.0217,467.0431,521.4827,465.0924,522.5,463.3889,522.4817,463.3706,521.5995,464.0884,520.8096,464.8986,520.0839,465.7729,519.137,466.426,518.5,467.3889,518.6305,467.5194,517.5514,466.4404,516.8534,465.7423,516.2018,465.0908,515.2798,464.1687,514.5,463.3889,514.5208,463.3982,515.2903,465.1846,516.1544,467.0131,516.9728,468.8213,517.8784,470.6682,518.5,472.3889" style="stroke:#8B0000;stroke-width:4.0;"/><text fill="#000000" font-family="Chalkduster" font-size="24" lengthAdjust="spacing" textLength="197" x="519.5" y="374.6498">Index &amp; serve</text></g><!--SRC=[VP31IWCn48RlUOfn3zvIsHnBMH1FWWUfrmKPTuSsa9qioRHs5T_T2QrIYzlS4lxlppTpuxaBkvvU1-G95ekx7WMjNd130x7OB5EWXHp469Ee4-HD8AZkkuvoXkUO10FK5QnMYSQOlSGqDGrWXh66JmDwph6TR6Fo7oW-Silh6CY-OQOUK0jRpbCM6gg2OwsTU9vl6lDrpSBzQ-5E5hCQovPV_33g-wdk8RAa65f-ybcEBcx6nPYohpA1bgPkw_VgiVvLA8jHN9tgIxKYLIgky-w7TtEyCTfjRH_VsThc-DKI7hcd0zn2fhGdZRY_4NSP-GO0]--></g></svg>