<?xml version="1.0" encoding="UTF-8" standalone="no"?><svg xmlns="http://www.w3.org/2000/svg" xmlns:xlink="http://www.w3.org/1999/xlink" contentStyleType="text/css" height="350px" preserveAspectRatio="none" style="width:720px;height:350px;background:#FFFFFF;" version="1.1" viewBox="0 0 720 350" width="720px" zoomAndPan="magnify"><defs/><g><!--cluster arch--><g id="cluster_arch"><rect fill="none" height="337" rx="2.5" ry="2.5" style="stroke:#181818;stroke-width:1.0;" width="707" x="7" y="7"/><text fill="#000000" font-family="sans-serif" font-size="14" font-style="italic" lengthAdjust="spacing" textLength="84" x="318.5" y="22.5352">«repository»</text><text fill="#000000" font-family="sans-serif" font-size="14" font-weight="bold" lengthAdjust="spacing" textLength="154" x="316" y="39.0234">Archival Repositories</text><text fill="#000000" font-family="sans-serif" font-size="14" font-weight="bold" lengthAdjust="spacing" textLength="5" x="358" y="55.5117"> </text><text fill="#000000" font-family="sans-serif" font-size="14" font-weight="bold" lengthAdjust="spacing" textLength="5" x="358" y="72"> </text></g><!--entity disco--><g id="elem_disco"><rect fill="#F1F1F1" height="36.4883" rx="2.5" ry="2.5" style="stroke:#181818;stroke-width:0.5;" width="144" x="502" y="91"/><text fill="#000000" font-family="sans-serif" font-size="14" lengthAdjust="spacing" textLength="124" x="512" y="114.5352">Discovery Services</text></g><!--entity api--><g id="elem_api"><rect fill="#F1F1F1" height="36.4883" rx="2.5" ry="2.5" style="stroke:#181818;stroke-width:0.5;" width="49" x="233.5" y="91"/><text fill="#000000" font-family="sans-serif" font-size="14" lengthAdjust="spacing" textLength="29" x="243.5" y="114.5352">APIs</text></g><!--entity 1--><g id="elem_1"><path d="M115.5,197 C115.5,187 138,187 138,187 C138,187 160.5,187 160.5,197 L160.5,222.4883 C160.5,232.4883 138,232.4883 138,232.4883 C138,232.4883 115.5,232.4883 115.5,222.4883 L115.5,197 " fill="#F1F1F1" style="stroke:#181818;stroke-width:0.5;"/><path d="M115.5,197 C115.5,207 138,207 138,207 C138,207 160.5,207 160.5,197 " fill="none" style="stroke:#181818;stroke-width:0.5;"/><text fill="#000000" font-family="sans-serif" font-size="14" lengthAdjust="spacing" textLength="9" x="133.5" y="224.5352">1</text></g><!--entity 2--><g id="elem_2"><path d="M195.5,197 C195.5,187 218,187 218,187 C218,187 240.5,187 240.5,197 L240.5,222.4883 C240.5,232.4883 218,232.4883 218,232.4883 C218,232.4883 195.5,232.4883 195.5,222.4883 L195.5,197 " fill="#F1F1F1" style="stroke:#181818;stroke-width:0.5;"/><path d="M195.5,197 C195.5,207 218,207 218,207 C218,207 240.5,207 240.5,197 " fill="none" style="stroke:#181818;stroke-width:0.5;"/><text fill="#000000" font-family="sans-serif" font-size="14" lengthAdjust="spacing" textLength="9" x="213.5" y="224.5352">2</text></g><!--entity 3--><g id="elem_3"><path d="M275.5,197 C275.5,187 298,187 298,187 C298,187 320.5,187 320.5,197 L320.5,222.4883 C320.5,232.4883 298,232.4883 298,232.4883 C298,232.4883 275.5,232.4883 275.5,222.4883 L275.5,197 " fill="#F1F1F1" style="stroke:#181818;stroke-width:0.5;"/><path d="M275.5,197 C275.5,207 298,207 298,207 C298,207 320.5,207 320.5,197 " fill="none" style="stroke:#181818;stroke-width:0.5;"/><text fill="#000000" font-family="sans-serif" font-size="14" lengthAdjust="spacing" textLength="9" x="293.5" y="224.5352">3</text></g><!--entity 4--><g id="elem_4"><path d="M405.5,197 C405.5,187 428,187 428,187 C428,187 450.5,187 450.5,197 L450.5,222.4883 C450.5,232.4883 428,232.4883 428,232.4883 C428,232.4883 405.5,232.4883 405.5,222.4883 L405.5,197 " fill="#F1F1F1" style="stroke:#181818;stroke-width:0.5;"/><path d="M405.5,197 C405.5,207 428,207 428,207 C428,207 450.5,207 450.5,197 " fill="none" style="stroke:#181818;stroke-width:0.5;"/><text fill="#000000" font-family="sans-serif" font-size="14" lengthAdjust="spacing" textLength="9" x="423.5" y="224.5352">4</text></g><!--entity arbin--><g id="elem_arbin"><rect fill="#F1F1F1" height="36.4883" rx="2.5" ry="2.5" style="stroke:#181818;stroke-width:0.5;" width="437" x="260.5" y="292"/><text fill="#000000" font-family="sans-serif" font-size="14" lengthAdjust="spacing" textLength="401" x="270.5" y="315.5352">&#128465; Policy based data management  preservation / disposal</text></g><!--entity ids--><g id="elem_ids"><rect fill="#F1F1F1" height="36.4883" rx="2.5" ry="2.5" style="stroke:#181818;stroke-width:0.5;" width="202" x="23" y="292"/><text fill="#000000" font-family="sans-serif" font-size="14" lengthAdjust="spacing" textLength="166" x="33" y="315.5352">Policy based Indentifiers</text></g><!--link api to 1--><g id="link_api_1"><path d="M231.88,131.44 C212.26,147.54 185.46,169.55 165.51,185.92 " fill="none" id="api-1" style="stroke:#181818;stroke-width:1.0;"/><polygon fill="#181818" points="235.65,128.34,226.153,130.949,231.7821,131.5085,231.2226,137.1376,235.65,128.34" style="stroke:#181818;stroke-width:1.0;"/><polygon fill="#181818" points="161.77,188.99,171.2623,186.3638,165.6321,185.8145,166.1814,180.1843,161.77,188.99" style="stroke:#181818;stroke-width:1.0;"/></g><!--link api to 2--><g id="link_api_2"><path d="M248.71,132.87 C242.9,147.19 235.36,165.74 229.21,180.88 " fill="none" id="api-2" style="stroke:#181818;stroke-width:1.0;"/><polygon fill="#181818" points="250.46,128.56,243.36,135.3856,248.5735,133.1905,250.7687,138.404,250.46,128.56" style="stroke:#181818;stroke-width:1.0;"/><polygon fill="#181818" points="227.42,185.31,234.52,178.4844,229.3065,180.6795,227.1113,175.466,227.42,185.31" style="stroke:#181818;stroke-width:1.0;"/></g><!--link api to 3--><g id="link_api_3"><path d="M267.29,132.87 C273.1,147.19 280.64,165.74 286.79,180.88 " fill="none" id="api-3" style="stroke:#181818;stroke-width:1.0;"/><polygon fill="#181818" points="265.54,128.56,265.2313,138.404,267.4265,133.1905,272.64,135.3856,265.54,128.56" style="stroke:#181818;stroke-width:1.0;"/><polygon fill="#181818" points="288.58,185.31,288.8887,175.466,286.6935,180.6795,281.48,178.4844,288.58,185.31" style="stroke:#181818;stroke-width:1.0;"/></g><!--link api to 4--><g id="link_api_4"><path d="M288.33,127.57 C319.86,145.84 368.84,174.22 399.63,192.06 " fill="none" id="api-4" style="stroke:#181818;stroke-width:1.0;"/><polygon fill="#181818" points="284.03,125.08,289.823,133.045,288.3597,127.5807,293.8241,126.1174,284.03,125.08" style="stroke:#181818;stroke-width:1.0;"/><polygon fill="#181818" points="403.85,194.51,398.0767,186.5307,399.5265,191.9986,394.0585,193.4484,403.85,194.51" style="stroke:#181818;stroke-width:1.0;"/></g><!--link 4 to arbin--><!--link 2 to ids--><!--SRC=[PP0zRiCm38LtduB8RXJ-6Gq30Rfa2zgnoS1OR4B0aGnAS644FKIdZhrYZr19LNziQnBvlVT4KQXpgCyzmGOMPolTXKViuO46OzaPORA-Vz07xSLe0Rq2caP- -DIsSCk2L_vYxzbsPYIPu95av8xi9dXLQ2-rs_tkc-B0aIbqU48Rfoi08YjWXSg4oXMf4gbMf4waNWxn-V7-1dlJSpT14AjeWojgFDELj0COXAp_33es6kx2N_m6_AOWPQASMCVS_y6pp9rMFegVcSJ- -bZPuCfUCxy0Q79bNdJU5hEgd5NLhAgp6kBrwSBAvn_pDirIhlhXhIy0]--></g></svg>