<?xml version="1.0" encoding="UTF-8" standalone="no"?><svg xmlns="http://www.w3.org/2000/svg" xmlns:xlink="http://www.w3.org/1999/xlink" contentStyleType="text/css" height="303px" preserveAspectRatio="none" style="width:784px;height:303px;background:#FFFFFF;" version="1.1" viewBox="0 0 784 303" width="784px" zoomAndPan="magnify"><defs/><g><!--cluster auths--><g id="cluster_auths"><polygon fill="#F0FFF0" points="9.5,9.2889,9.5,9.4991,19.4481,8.8746,29.3961,9.4822,39.3442,9.6886,49.2922,8.5756,59.2403,9.2112,69.1883,8.8625,79.1364,8.9055,89.0844,9.2208,99.0325,8.5976,108.9805,9.8426,118.9286,8.6587,128.8766,9.0912,138.8247,9.7209,148.7727,9.2032,158.7208,9.3572,168.6688,9.257,178.6169,9.4675,188.5649,9.5281,198.513,9.8746,208.461,9.96,218.4091,9.9682,228.3571,9.5436,238.3052,9.7525,248.2532,9.9912,258.2013,8.5678,268.1494,9.9675,278.0974,8.9924,288.0455,9.8228,297.9935,8.7939,307.9416,9.2205,317.8896,10.0306,327.8377,9.2402,337.7857,9.3943,347.7338,9.6276,357.6818,9.7052,367.6299,9.285,377.5779,9.5762,387.526,8.7165,397.474,9.5733,407.4221,9.8371,417.3701,9.7335,427.3182,9.902,437.2662,8.8059,447.2143,8.6368,457.1623,8.6675,467.1104,9.2301,477.0584,9.0924,487.0065,9.9704,496.9545,9.1143,506.9026,8.9459,516.8506,9.5172,526.7987,8.6221,536.7468,8.7698,546.6948,9.9379,556.6429,9.7246,566.5909,10.0234,576.539,8.9672,586.487,9.6081,596.4351,9.8794,606.3831,8.8165,616.3312,9.1931,626.2792,9.4149,636.2273,9.9407,646.1753,9.2848,656.1234,9.7515,666.0714,8.7352,676.0195,8.6117,685.9675,9.7926,695.9156,8.572,705.8636,9.7979,715.8117,9.4956,725.7597,9.021,735.7078,8.9352,745.6558,9.7477,755.6039,8.9896,765.5519,9.8808,775.5,9.2889,775.4295,9.1187,775.9323,9.6255,776.2689,9.731,776.5919,9.8037,776.9202,9.8893,777.2678,10.0212,777.4915,10.1139,777.6032,10.453,777.6128,10.7499,777.7897,11.1161,777.8134,11.4188,778,11.7889,778.7165,11.7889,778.1549,21.8961,778.1726,32.0032,777.3916,42.1104,777.5948,52.2175,778.5307,62.3247,778.4298,72.4318,777.9571,82.5389,777.6778,92.6461,777.7811,102.7532,777.3138,112.8604,778.4147,122.9675,778.7396,133.0747,778.5264,143.1818,778.6949,153.2889,777.8633,163.3961,778.0872,173.5032,777.6124,183.6104,778.284,193.7175,778.2468,203.8247,778.5524,213.9318,777.7703,224.0389,777.8656,234.1461,778.4435,244.2532,778.5673,254.3604,777.4875,264.4675,777.8061,274.5747,778.1493,284.6818,778,294.7889,777.8119,294.711,777.9624,295.1876,777.7866,295.529,777.5296,295.8368,777.458,296.2213,777.2678,296.5567,777.3607,296.7811,776.8743,296.6068,776.6008,296.9466,776.2435,297.084,775.8683,297.1782,775.5,297.2889,775.5,297.4299,765.5519,297.4024,755.6039,296.6648,745.6558,296.8881,735.7078,296.8274,725.7597,297.3528,715.8117,297.3771,705.8636,297.4507,695.9156,296.998,685.9675,297.2214,676.0195,297.1687,666.0714,297.8658,656.1234,297.7155,646.1753,296.8034,636.2273,297.216,626.2792,296.7117,616.3312,297.5773,606.3831,297.8974,596.4351,297.8335,586.487,296.8534,576.539,297.7529,566.5909,296.5461,556.6429,297.4891,546.6948,296.9896,536.7468,297.3857,526.7987,297.5293,516.8506,297.7611,506.9026,296.569,496.9545,297.7644,487.0065,297.4671,477.0584,297.6443,467.1104,298.0368,457.1623,297.2944,447.2143,297.4642,437.2662,297.5024,427.3182,297.4862,417.3701,297.2881,407.4221,297.9997,397.474,296.6792,387.526,297.8542,377.5779,296.6649,367.6299,296.7486,357.6818,297.329,347.7338,297.3172,337.7857,296.7961,327.8377,297.7027,317.8896,297.3978,307.9416,298.0156,297.9935,297.9561,288.0455,296.8407,278.0974,296.891,268.1494,297.1598,258.2013,297.6445,248.2532,297.6919,238.3052,297.5901,228.3571,296.947,218.4091,297.9253,208.461,297.9227,198.513,297.2417,188.5649,297.0499,178.6169,296.8876,168.6688,297.0744,158.7208,297.4264,148.7727,297.2206,138.8247,296.8712,128.8766,297.7763,118.9286,296.83,108.9805,297.7913,99.0325,297.7162,89.0844,297.6608,79.1364,297.9814,69.1883,297.0431,59.2403,296.9883,49.2922,297.8078,39.3442,296.6921,29.3961,297.055,19.4481,297.4044,9.5,297.2889,9.5088,297.3101,9.1007,297.0321,8.7874,296.9828,8.5343,297.0789,8.1685,296.9029,7.7322,296.5567,7.5486,296.4807,7.61,296.2132,7.2811,295.7841,7.2848,295.4927,7.2367,295.1799,7,294.7889,7.4199,294.7889,6.3353,284.6818,7.4005,274.5747,7.0084,264.4675,6.4447,254.3604,6.5289,244.2532,7.3266,234.1461,7.2499,224.0389,6.9836,213.9318,6.3279,203.8247,7.6581,193.7175,6.6882,183.6104,6.4719,173.5032,6.9327,163.3961,7.5897,153.2889,7.6154,143.1818,7.0351,133.0747,6.8488,122.9675,7.1698,112.8604,7.1862,102.7532,6.4922,92.6461,7.414,82.5389,7.5588,72.4318,6.7842,62.3247,6.5708,52.2175,7.6746,42.1104,7.021,32.0032,6.9998,21.8961,7,11.7889,7.0921,11.8271,6.9476,11.353,7.4561,11.1494,7.4346,10.7263,7.7918,10.46,7.7322,10.0212,7.7047,9.9547,8.138,10.0007,8.3827,9.5916,8.8241,9.6573,9.1948,9.5522,9.5,9.2889" style="stroke:#181818;stroke-width:4.0;"/><text fill="#000000" font-family="Chalkduster" font-size="24" font-style="italic" lengthAdjust="spacing" textLength="218" x="283.5" y="35.1298">«authorization»</text><text fill="#000000" font-family="Chalkduster" font-size="24" font-weight="bold" lengthAdjust="spacing" textLength="465" x="160" y="65.7597">Authorization and Authentication</text></g><!--entity lic--><g id="elem_lic"><polygon fill="none" points="239.5,230.2889,239.5,230.4991,249.4,229.8746,259.3,230.4822,269.2,230.6886,279.1,229.5756,289,230.2112,298.9,229.8625,308.8,229.9055,318.7,230.2208,328.6,229.5976,338.5,230.8426,348.4,229.6587,358.3,230.0912,368.2,230.7209,378.1,230.2032,388,230.3572,397.9,230.257,407.8,230.4675,417.7,230.5281,427.6,230.8746,437.5,230.96,447.4,230.9682,457.3,230.5436,467.2,230.7525,477.1,230.9912,487,229.5678,496.9,230.9675,506.8,229.9924,516.7,230.8228,526.6,229.7939,536.5,230.2889,536.4913,230.2679,536.9482,230.6638,537.2009,230.5668,537.5741,230.7607,537.9574,230.979,538.2678,231.0212,538.3959,231.0743,538.413,231.3742,538.6491,231.7649,538.5308,232.0088,538.9411,232.4717,539,232.7889,539.5482,232.7889,539.4445,241.9149,539.613,251.0409,538.5169,260.1668,538.3478,269.2928,539,278.4188,538.8086,278.3395,538.8354,278.7648,538.6466,279.1008,538.7705,279.5664,538.3604,279.8107,538.2678,280.1866,538.224,280.0809,537.9433,280.4033,537.4756,280.2741,537.1409,280.466,536.9363,280.9722,536.5,280.9188,536.5,281.3545,526.6,281.6533,516.7,280.597,506.8,281.238,496.9,281.5092,487,280.4464,477.1,280.8229,467.2,281.0448,457.3,281.5705,447.4,280.9146,437.5,281.3814,427.6,280.365,417.7,280.2415,407.8,281.4224,397.9,280.2018,388,281.4277,378.1,281.1254,368.2,280.6509,358.3,280.565,348.4,281.3775,338.5,280.6195,328.6,281.5106,318.7,280.366,308.8,281.5362,298.9,281.4031,289,281.1638,279.1,280.966,269.2,281.6454,259.3,281.5324,249.4,281.088,239.5,280.9188,239.5342,281.0014,239.1298,280.7322,238.8843,280.8465,238.4591,280.5271,238.1078,280.3861,237.7322,280.1866,237.5449,280.1089,237.461,279.7813,237.6028,279.5471,237.4252,279.1807,237.1332,278.7669,237,278.4188,236.6778,278.4188,236.7811,269.2928,236.3138,260.1668,237.4147,251.0409,237.7396,241.9149,237,232.7889,237.1621,232.8561,237.3605,232.524,237.2508,232.0644,237.4662,231.7394,237.4664,231.3253,237.7322,231.0212,237.7685,231.1087,238.1173,230.9507,238.5098,230.8984,238.7636,230.5111,239.1293,230.394,239.5,230.2889" style="stroke:#181818;stroke-width:4.0;"/><text fill="#000000" font-family="Chalkduster" font-size="24" lengthAdjust="spacing" textLength="282" x="247" y="264.1298">License Management</text></g><!--entity att--><g id="elem_att"><polygon fill="none" points="404.5,89.2889,404.5,89.4991,414.3611,88.8746,424.2222,89.4822,434.0833,89.6886,443.9444,88.5756,453.8056,89.2112,463.6667,88.8625,473.5278,88.9055,483.3889,89.2208,493.25,88.5976,503.1111,89.8426,512.9722,88.6587,522.8333,89.0912,532.6944,89.7209,542.5556,89.2032,552.4167,89.3572,562.2778,89.257,572.1389,89.4675,582,89.5281,591.8611,89.8746,601.7222,89.96,611.5833,89.9682,621.4444,89.5436,631.3056,89.7525,641.1667,89.9912,651.0278,88.5678,660.8889,89.9675,670.75,88.9924,680.6111,89.8228,690.4722,88.7939,700.3333,89.2205,710.1944,90.0306,720.0556,89.2402,729.9167,89.3943,739.7778,89.6276,749.6389,89.7052,759.5,89.2889,759.4995,89.2877,759.8902,89.5238,760.1341,89.4056,760.5969,89.8159,760.9841,90.0436,761.2678,90.0212,761.4047,90.0779,761.603,90.4529,761.4119,90.6667,761.5063,90.9986,761.6622,91.3561,762,91.7889,761.9411,91.7889,761.8035,101.3214,762.6814,110.8539,761.8253,120.3863,761.6569,129.9188,762.2283,139.4512,761.3332,148.9837,761.4809,158.5162,762,168.0486,762.1999,168.1314,761.9877,168.4577,761.9333,168.8494,761.4616,169.0682,761.5125,169.5035,761.2678,169.8164,761.3431,169.9982,760.854,169.8173,760.5484,170.0798,760.2232,170.2945,759.9367,170.6029,759.5,170.5486,759.5,170.5444,749.6389,171.0112,739.7778,169.9948,729.9167,169.8714,720.0556,171.0522,710.1944,169.8317,700.3333,171.0576,690.4722,170.7552,680.6111,170.2807,670.75,170.1948,660.8889,171.0074,651.0278,170.2493,641.1667,171.1405,631.3056,169.9959,621.4444,171.166,611.5833,171.0329,601.7222,170.7936,591.8611,170.5958,582,171.2752,572.1389,171.1622,562.2778,170.7179,552.4167,170.8168,542.5556,170.4184,532.6944,171.2651,522.8333,170.7035,512.9722,170.7212,503.1111,169.9403,493.25,170.1434,483.3889,171.0794,473.5278,170.9784,463.6667,170.5057,453.8056,170.2264,443.9444,170.3297,434.0833,169.8624,424.2222,170.9634,414.3611,171.2882,404.5,170.5486,404.5671,170.7107,404.2351,170.6162,403.7755,170.2136,403.4505,170.1361,403.0363,169.8435,402.7322,169.8164,402.8197,169.8526,402.6618,169.4943,402.6095,169.1797,402.2222,168.7264,402.1051,168.385,402,168.0486,402.4435,168.0486,402.5673,158.5162,401.4875,148.9837,401.8061,139.4512,402.1493,129.9188,401.3892,120.3863,402.3534,110.8539,402.258,101.3214,402,91.7889,401.969,91.7761,402.1903,91.4535,402.5173,91.1748,402.343,90.6884,402.6828,90.4149,402.7322,90.0212,402.7687,90.1092,403.1006,89.9104,403.4573,89.7717,403.8074,89.6168,404.0668,89.2432,404.5,89.2889" style="stroke:#181818;stroke-width:4.0;"/><text fill="#000000" font-family="Chalkduster" font-size="24" lengthAdjust="spacing" textLength="340" x="412" y="123.1298">Attribute &amp; Certification</text><text fill="#000000" font-family="Chalkduster" font-size="24" lengthAdjust="spacing" textLength="171" x="412" y="153.7597">Management</text></g><!--entity id--><g id="elem_id"><polygon fill="none" points="25.5,104.2889,25.5,104.4991,35.4706,103.8746,45.4412,104.4822,55.4118,104.6886,65.3824,103.5756,75.3529,104.2112,85.3235,103.8625,95.2941,103.9055,105.2647,104.2208,115.2353,103.5976,125.2059,104.8426,135.1765,103.6587,145.1471,104.0912,155.1176,104.7209,165.0882,104.2032,175.0588,104.3572,185.0294,104.257,195,104.4675,204.9706,104.5281,214.9412,104.8746,224.9118,104.96,234.8824,104.9682,244.8529,104.5436,254.8235,104.7525,264.7941,104.9912,274.7647,103.5678,284.7353,104.9675,294.7059,103.9924,304.6765,104.8228,314.6471,103.7939,324.6176,104.2205,334.5882,105.0306,344.5588,104.2402,354.5294,104.3943,364.5,104.2889,364.5432,104.3932,364.9066,104.5636,365.2066,104.5806,365.5973,104.8167,365.8412,104.6985,366.2678,105.0212,366.3553,105.0575,366.583,105.4447,366.6976,105.785,366.8959,106.16,366.7048,106.3738,367,106.7889,366.3478,106.7889,366.3786,115.9149,366.9411,125.0409,366.8035,134.1668,367.6814,143.2928,367,152.4188,366.9462,152.3965,366.7479,152.7286,366.7774,153.155,366.3553,153.3944,366.2543,153.7668,366.2678,154.1866,366.3505,154.3864,365.9698,154.4672,365.6544,154.7056,365.1661,154.5268,364.8943,154.8706,364.5,154.9188,364.5,155.5092,354.5294,154.4464,344.5588,154.8229,334.5882,155.0448,324.6176,155.5705,314.6471,154.9146,304.6765,155.3814,294.7059,154.365,284.7353,154.2415,274.7647,155.4224,264.7941,154.2018,254.8235,155.4277,244.8529,155.1254,234.8824,154.6509,224.9118,154.565,214.9412,155.3775,204.9706,154.6195,195,155.5106,185.0294,154.366,175.0588,155.5362,165.0882,155.4031,155.1176,155.1638,145.1471,154.966,135.1765,155.6454,125.2059,155.5324,115.2353,155.088,105.2647,155.187,95.2941,154.7885,85.3235,155.6352,75.3529,155.0737,65.3824,155.0914,55.4118,154.3104,45.4412,154.5136,35.4706,155.4495,25.5,154.9188,25.5548,155.0511,25.141,154.7591,24.7518,154.5267,24.4114,154.412,23.9983,154.1217,23.7322,154.1866,23.86,154.2395,23.8135,153.9273,23.6014,153.5466,23.5069,153.2145,23.1043,152.7549,23,152.4188,23.0872,152.4188,22.6124,143.2928,23.284,134.1668,23.2468,125.0409,23.5524,115.9149,23,106.7889,22.9293,106.7597,23.1051,106.4183,23.4295,106.1384,23.6141,105.8007,23.4279,105.3094,23.7322,105.0212,23.7075,104.9615,24.1048,104.9207,24.3614,104.5402,24.838,104.6907,25.1794,104.5148,25.5,104.2889" style="stroke:#181818;stroke-width:4.0;"/><text fill="#000000" font-family="Chalkduster" font-size="24" lengthAdjust="spacing" textLength="324" x="33" y="138.1298">Identity Authentication</text></g><!--link id to lic--><g id="link_id_lic"><path d="M233.59,155.5889 L233.7415,155.8247 L241.7776,160.5757 L250.7016,166.7089 L259.3365,172.3919 L267.0205,176.5948 L275.9648,182.7595 L284.1996,187.8197 L292.7167,193.3195 L301.4301,199.1248 L309.4671,203.8772 L318.8505,210.7254 L326.4835,214.8488 L335.2813,220.7856 L343.91,226.4589 " fill="none" style="stroke:#8B0000;stroke-width:4.0;"/><polygon fill="#8B0000" points="347.87,229.0089,347.9285,229.0475,346.6706,227.2883,345.7557,225.7551,344.7291,224.1484,343.3352,222.2995,342.4497,220.7858,342.4244,220.7802,342.5529,221.8605,342.8089,222.9688,343.1537,224.0964,343.1928,225.1572,343.6599,226.3117,343.6994,226.4919,342.5098,226.3485,341.4355,226.7313,340.3752,227.1784,339.2331,227.2519,338.1341,227.5219,338.1375,227.5444,340.0796,227.8088,342.0374,228.1755,343.9877,228.4929,345.9523,228.9045,347.87,229.0089" style="stroke:#8B0000;stroke-width:4.0;"/></g><!--link att to lic--><g id="link_att_lic"><path d="M519.55,170.7089 L519.7009,170.9451 L510.5255,175.8205 L502.2348,182.0801 L493.656,187.889 L484.1298,192.2154 L475.8592,198.5066 L466.8818,203.6918 L458.1857,209.3171 L449.6851,215.2484 L440.5106,220.1252 L432.28,226.4789 " fill="none" style="stroke:#8B0000;stroke-width:4.0;"/><polygon fill="#8B0000" points="428.16,229.1189,428.1706,229.1882,430.0863,228.685,432.0641,228.5878,434.0217,228.3584,435.9128,227.6942,437.8959,227.6319,437.8904,227.6066,436.7604,227.251,435.6582,227.0229,434.5756,226.8835,433.4259,226.4386,432.3701,226.4217,432.5503,226.4611,432.4069,225.2715,432.7898,224.1972,433.2368,223.1369,433.3103,221.9948,433.5803,220.8958,433.5993,220.9083,432.4873,222.5345,431.4619,224.2178,430.3947,225.8735,429.4071,227.5818,428.16,229.1189" style="stroke:#8B0000;stroke-width:4.0;"/></g><!--SRC=[RKvB2i8m4Dtd56CNxbelK0h5bQ0t46HCnZgGJY6PebMyksaHgSMtUu_tMx5OtpiwjIW35CN6eMAU23RKacWUTV1Kw5sD2MGLfV44MTthjGlyGELE0CN1g2G_sqdA02DWaYAK9SxDLGLF0mcpjZrRaaXm-CvEUSzswQnL0vzx9LZ3beBovJDub4KOLPVXdHiFwl3lApjZNiQmWznrDychQJsL_F0t]--></g></svg>