<?xml version="1.0" encoding="UTF-8" standalone="no"?><svg xmlns="http://www.w3.org/2000/svg" xmlns:xlink="http://www.w3.org/1999/xlink" contentStyleType="text/css" height="213px" preserveAspectRatio="none" style="width:440px;height:213px;background:#FFFFFF;" version="1.1" viewBox="0 0 440 213" width="440px" zoomAndPan="magnify"><defs/><g><!--cluster auths--><g id="cluster_auths"><rect fill="none" height="200" rx="2.5" ry="2.5" style="stroke:#181818;stroke-width:1.0;" width="427" x="7" y="7"/><text fill="#000000" font-family="sans-serif" font-size="14" font-weight="bold" lengthAdjust="spacing" textLength="241" x="100" y="22.5352">Authorization and Authentication</text></g><!--entity lic--><g id="elem_lic"><rect fill="#F1F1F1" height="36.4883" rx="2.5" ry="2.5" style="stroke:#181818;stroke-width:0.5;" width="163" x="136.5" y="155"/><text fill="#000000" font-family="sans-serif" font-size="14" lengthAdjust="spacing" textLength="143" x="146.5" y="178.5352">License Management</text></g><!--entity att--><g id="elem_att"><rect fill="#F1F1F1" height="52.9766" rx="2.5" ry="2.5" style="stroke:#181818;stroke-width:0.5;" width="183" x="234.5" y="42"/><text fill="#000000" font-family="sans-serif" font-size="14" lengthAdjust="spacing" textLength="163" x="244.5" y="65.5352">Attribute &amp; Certification</text><text fill="#000000" font-family="sans-serif" font-size="14" lengthAdjust="spacing" textLength="89" x="244.5" y="82.0234">Management</text></g><!--entity id--><g id="elem_id"><rect fill="#F1F1F1" height="36.4883" rx="2.5" ry="2.5" style="stroke:#181818;stroke-width:0.5;" width="176" x="23" y="50.5"/><text fill="#000000" font-family="sans-serif" font-size="14" lengthAdjust="spacing" textLength="156" x="33" y="74.0352">Identity Authentication</text></g><!--link id to lic--><g id="link_id_lic"><path d="M129.15,86.89 C147.44,104.41 175.72,131.49 195.44,150.39 " fill="none" id="id-to-lic" style="stroke:#181818;stroke-width:1.0;"/><polygon fill="#181818" points="198.67,153.48,194.9491,144.361,195.0636,150.0167,189.4079,150.1312,198.67,153.48" style="stroke:#181818;stroke-width:1.0;"/></g><!--link att to lic--><g id="link_att_lic"><path d="M298.75,95.37 C280.93,112.28 257.91,134.13 241.01,150.16 " fill="none" id="att-to-lic" style="stroke:#181818;stroke-width:1.0;"/><polygon fill="#181818" points="237.51,153.48,246.792,150.187,241.1371,150.0385,241.2856,144.3836,237.51,153.48" style="stroke:#181818;stroke-width:1.0;"/></g><!--SRC=[ROx12i8m44Jl-OgX1s_z1Q5u4lGFlAp9MXVg1f8jOiL_Dms26DpR3FDc9x4tqd5YTCDirvXa8PEe80rO7LOJNwqEb475odWwb4jVzY2UDJEEf3JohK0rFOblauDPalDiZ0rsd4mkd_gJDZ2PjV0-h7FiyM-P1ETUpab07-9T-stzNaf-z1i0]--></g></svg>