<?xml version="1.0" encoding="UTF-8" standalone="no"?><svg xmlns="http://www.w3.org/2000/svg" xmlns:xlink="http://www.w3.org/1999/xlink" contentStyleType="text/css" height="272px" preserveAspectRatio="none" style="width:784px;height:272px;background:#FFFFFF;" version="1.1" viewBox="0 0 784 272" width="784px" zoomAndPan="magnify"><defs/><g><!--cluster auths--><g id="cluster_auths"><polygon fill="none" points="9.5,9.2889,9.5,9.4991,19.4481,8.8746,29.3961,9.4822,39.3442,9.6886,49.2922,8.5756,59.2403,9.2112,69.1883,8.8625,79.1364,8.9055,89.0844,9.2208,99.0325,8.5976,108.9805,9.8426,118.9286,8.6587,128.8766,9.0912,138.8247,9.7209,148.7727,9.2032,158.7208,9.3572,168.6688,9.257,178.6169,9.4675,188.5649,9.5281,198.513,9.8746,208.461,9.96,218.4091,9.9682,228.3571,9.5436,238.3052,9.7525,248.2532,9.9912,258.2013,8.5678,268.1494,9.9675,278.0974,8.9924,288.0455,9.8228,297.9935,8.7939,307.9416,9.2205,317.8896,10.0306,327.8377,9.2402,337.7857,9.3943,347.7338,9.6276,357.6818,9.7052,367.6299,9.285,377.5779,9.5762,387.526,8.7165,397.474,9.5733,407.4221,9.8371,417.3701,9.7335,427.3182,9.902,437.2662,8.8059,447.2143,8.6368,457.1623,8.6675,467.1104,9.2301,477.0584,9.0924,487.0065,9.9704,496.9545,9.1143,506.9026,8.9459,516.8506,9.5172,526.7987,8.6221,536.7468,8.7698,546.6948,9.9379,556.6429,9.7246,566.5909,10.0234,576.539,8.9672,586.487,9.6081,596.4351,9.8794,606.3831,8.8165,616.3312,9.1931,626.2792,9.4149,636.2273,9.9407,646.1753,9.2848,656.1234,9.7515,666.0714,8.7352,676.0195,8.6117,685.9675,9.7926,695.9156,8.572,705.8636,9.7979,715.8117,9.4956,725.7597,9.021,735.7078,8.9352,745.6558,9.7477,755.6039,8.9896,765.5519,9.8808,775.5,9.2889,775.4295,9.1187,775.9323,9.6255,776.2689,9.731,776.5919,9.8037,776.9202,9.8893,777.2678,10.0212,777.4915,10.1139,777.6032,10.453,777.6128,10.7499,777.7897,11.1161,777.8134,11.4188,778,11.7889,778.7165,11.7889,778.1549,21.8689,778.1726,31.9489,777.3916,42.0289,777.5948,52.1089,778.5307,62.1889,778.4298,72.2689,777.9571,82.3489,777.6778,92.4289,777.7811,102.5089,777.3138,112.5889,778.4147,122.6689,778.7396,132.7489,778.5264,142.8289,778.6949,152.9089,777.8633,162.9889,778.0872,173.0689,777.6124,183.1489,778.284,193.2289,778.2468,203.3089,778.5524,213.3889,777.7703,223.4689,777.8656,233.5489,778.4435,243.6289,778.5673,253.7089,778,263.7889,777.8422,263.7236,777.7938,264.1178,777.7531,264.5151,777.3725,264.7717,777.523,265.2482,777.2678,265.5567,777.3007,265.6362,776.9014,265.6721,776.5788,265.8934,776.3001,266.2205,775.8136,266.0462,775.5,266.2889,775.5,266.6039,765.5519,266.5746,755.6039,266.4047,745.6558,266.4299,735.7078,266.4024,725.7597,265.6648,715.8117,265.8881,705.8636,265.8274,695.9156,266.3528,685.9675,266.3771,676.0195,266.4507,666.0714,265.998,656.1234,266.2214,646.1753,266.1687,636.2273,266.8658,626.2792,266.7155,616.3312,265.8034,606.3831,266.216,596.4351,265.7117,586.487,266.5773,576.539,266.8974,566.5909,266.8335,556.6429,265.8534,546.6948,266.7529,536.7468,265.5461,526.7987,266.4891,516.8506,265.9896,506.9026,266.3857,496.9545,266.5293,487.0065,266.7611,477.0584,265.569,467.1104,266.7644,457.1623,266.4671,447.2143,266.6443,437.2662,267.0368,427.3182,266.2944,417.3701,266.4642,407.4221,266.5024,397.474,266.4862,387.526,266.2881,377.5779,266.9997,367.6299,265.6792,357.6818,266.8542,347.7338,265.6649,337.7857,265.7486,327.8377,266.329,317.8896,266.3172,307.9416,265.7961,297.9935,266.7027,288.0455,266.3978,278.0974,267.0156,268.1494,266.9561,258.2013,265.8407,248.2532,265.891,238.3052,266.1598,228.3571,266.6445,218.4091,266.6919,208.461,266.5901,198.513,265.947,188.5649,266.9253,178.6169,266.9227,168.6688,266.2417,158.7208,266.0499,148.7727,265.8876,138.8247,266.0744,128.8766,266.4264,118.9286,266.2206,108.9805,265.8712,99.0325,266.7763,89.0844,265.83,79.1364,266.7913,69.1883,266.7162,59.2403,266.6608,49.2922,266.9814,39.3442,266.0431,29.3961,265.9883,19.4481,266.8078,9.5,266.2889,9.4239,266.1051,9.1166,266.0704,8.8076,266.0316,8.4481,265.8708,8.0401,265.5928,7.7322,265.5567,7.719,265.5512,7.8151,265.2981,7.639,264.9323,7.1093,264.42,7.1706,264.1525,7,263.7889,6.4861,263.7889,6.9737,253.7089,7.293,243.6289,7.4199,233.5489,6.3353,223.4689,7.4005,213.3889,7.0084,203.3089,6.4447,193.2289,6.5289,183.1489,7.3266,173.0689,7.2499,162.9889,6.9836,152.9089,6.3279,142.8289,7.6581,132.7489,6.6882,122.6689,6.4719,112.5889,6.9327,102.5089,7.5897,92.4289,7.6154,82.3489,7.0351,72.2689,6.8488,62.1889,7.1698,52.1089,7.1862,42.0289,6.4922,31.9489,7.414,21.8689,7,11.7889,7.1721,11.8602,7.08,11.4079,7.1607,11.0271,7.6471,10.8143,7.5923,10.3774,7.7322,10.0212,7.7322,10.0211,8.1239,9.9668,8.357,9.5294,8.8605,9.7451,9.1445,9.4306,9.5,9.2889" style="stroke:#181818;stroke-width:4.0;"/><text fill="#000000" font-family="Chalkduster" font-size="24" font-weight="bold" lengthAdjust="spacing" textLength="465" x="160" y="35.1298">Authorization and Authentication</text></g><!--entity lic--><g id="elem_lic"><polygon fill="none" points="239.5,199.2889,239.5,199.4991,249.4,198.8746,259.3,199.4822,269.2,199.6886,279.1,198.5756,289,199.2112,298.9,198.8625,308.8,198.9055,318.7,199.2208,328.6,198.5976,338.5,199.8426,348.4,198.6587,358.3,199.0912,368.2,199.7209,378.1,199.2032,388,199.3572,397.9,199.257,407.8,199.4675,417.7,199.5281,427.6,199.8746,437.5,199.96,447.4,199.9682,457.3,199.5436,467.2,199.7525,477.1,199.9912,487,198.5678,496.9,199.9675,506.8,198.9924,516.7,199.8228,526.6,198.7939,536.5,199.2889,536.4913,199.2679,536.9482,199.6638,537.2009,199.5668,537.5741,199.7607,537.9574,199.979,538.2678,200.0212,538.3959,200.0743,538.413,200.3742,538.6491,200.7649,538.5308,201.0088,538.9411,201.4717,539,201.7889,539.5482,201.7889,539.4445,210.9149,539.613,220.0409,538.5169,229.1668,538.3478,238.2928,539,247.4188,538.8086,247.3395,538.8354,247.7648,538.6466,248.1008,538.7705,248.5664,538.3604,248.8107,538.2678,249.1866,538.224,249.0809,537.9433,249.4033,537.4756,249.2741,537.1409,249.466,536.9363,249.9722,536.5,249.9188,536.5,250.3545,526.6,250.6533,516.7,249.597,506.8,250.238,496.9,250.5092,487,249.4464,477.1,249.8229,467.2,250.0448,457.3,250.5705,447.4,249.9146,437.5,250.3814,427.6,249.365,417.7,249.2415,407.8,250.4224,397.9,249.2018,388,250.4277,378.1,250.1254,368.2,249.6509,358.3,249.565,348.4,250.3775,338.5,249.6195,328.6,250.5106,318.7,249.366,308.8,250.5362,298.9,250.4031,289,250.1638,279.1,249.966,269.2,250.6454,259.3,250.5324,249.4,250.088,239.5,249.9188,239.5342,250.0014,239.1298,249.7322,238.8843,249.8465,238.4591,249.5271,238.1078,249.3861,237.7322,249.1866,237.5449,249.1089,237.461,248.7813,237.6028,248.5471,237.4252,248.1807,237.1332,247.7669,237,247.4188,236.6778,247.4188,236.7811,238.2928,236.3138,229.1668,237.4147,220.0409,237.7396,210.9149,237,201.7889,237.1621,201.8561,237.3605,201.524,237.2508,201.0644,237.4662,200.7394,237.4664,200.3253,237.7322,200.0212,237.7685,200.1087,238.1173,199.9507,238.5098,199.8984,238.7636,199.5111,239.1293,199.394,239.5,199.2889" style="stroke:#181818;stroke-width:4.0;"/><text fill="#000000" font-family="Chalkduster" font-size="24" lengthAdjust="spacing" textLength="282" x="247" y="233.1298">License Management</text></g><!--entity att--><g id="elem_att"><polygon fill="none" points="404.5,58.2889,404.5,58.4991,414.3611,57.8746,424.2222,58.4822,434.0833,58.6886,443.9444,57.5756,453.8056,58.2112,463.6667,57.8625,473.5278,57.9055,483.3889,58.2208,493.25,57.5976,503.1111,58.8426,512.9722,57.6587,522.8333,58.0912,532.6944,58.7209,542.5556,58.2032,552.4167,58.3572,562.2778,58.257,572.1389,58.4675,582,58.5281,591.8611,58.8746,601.7222,58.96,611.5833,58.9682,621.4444,58.5436,631.3056,58.7525,641.1667,58.9912,651.0278,57.5678,660.8889,58.9675,670.75,57.9924,680.6111,58.8228,690.4722,57.7939,700.3333,58.2205,710.1944,59.0306,720.0556,58.2402,729.9167,58.3943,739.7778,58.6276,749.6389,58.7052,759.5,58.2889,759.4995,58.2877,759.8902,58.5238,760.1341,58.4056,760.5969,58.8159,760.9841,59.0436,761.2678,59.0212,761.4047,59.0779,761.603,59.4529,761.4119,59.6667,761.5063,59.9986,761.6622,60.3561,762,60.7889,761.9411,60.7889,761.8035,70.3214,762.6814,79.8539,761.8253,89.3863,761.6569,98.9188,762.2283,108.4512,761.3332,117.9837,761.4809,127.5162,762,137.0486,762.1999,137.1314,761.9877,137.4577,761.9333,137.8494,761.4616,138.0682,761.5125,138.5035,761.2678,138.8164,761.3431,138.9982,760.854,138.8173,760.5484,139.0798,760.2232,139.2945,759.9367,139.6029,759.5,139.5486,759.5,139.5444,749.6389,140.0112,739.7778,138.9948,729.9167,138.8714,720.0556,140.0522,710.1944,138.8317,700.3333,140.0576,690.4722,139.7552,680.6111,139.2807,670.75,139.1948,660.8889,140.0074,651.0278,139.2493,641.1667,140.1405,631.3056,138.9959,621.4444,140.166,611.5833,140.0329,601.7222,139.7936,591.8611,139.5958,582,140.2752,572.1389,140.1622,562.2778,139.7179,552.4167,139.8168,542.5556,139.4184,532.6944,140.2651,522.8333,139.7035,512.9722,139.7212,503.1111,138.9403,493.25,139.1434,483.3889,140.0794,473.5278,139.9784,463.6667,139.5057,453.8056,139.2264,443.9444,139.3297,434.0833,138.8624,424.2222,139.9634,414.3611,140.2882,404.5,139.5486,404.5671,139.7107,404.2351,139.6162,403.7755,139.2136,403.4505,139.1361,403.0363,138.8435,402.7322,138.8164,402.8197,138.8526,402.6618,138.4943,402.6095,138.1797,402.2222,137.7264,402.1051,137.385,402,137.0486,402.4435,137.0486,402.5673,127.5162,401.4875,117.9837,401.8061,108.4512,402.1493,98.9188,401.3892,89.3863,402.3534,79.8539,402.258,70.3214,402,60.7889,401.969,60.7761,402.1903,60.4535,402.5173,60.1748,402.343,59.6884,402.6828,59.4149,402.7322,59.0212,402.7687,59.1092,403.1006,58.9104,403.4573,58.7717,403.8074,58.6168,404.0668,58.2432,404.5,58.2889" style="stroke:#181818;stroke-width:4.0;"/><text fill="#000000" font-family="Chalkduster" font-size="24" lengthAdjust="spacing" textLength="340" x="412" y="92.1298">Attribute &amp; Certification</text><text fill="#000000" font-family="Chalkduster" font-size="24" lengthAdjust="spacing" textLength="171" x="412" y="122.7597">Management</text></g><!--entity id--><g id="elem_id"><polygon fill="none" points="25.5,73.2889,25.5,73.4991,35.4706,72.8746,45.4412,73.4822,55.4118,73.6886,65.3824,72.5756,75.3529,73.2112,85.3235,72.8625,95.2941,72.9055,105.2647,73.2208,115.2353,72.5976,125.2059,73.8426,135.1765,72.6587,145.1471,73.0912,155.1176,73.7209,165.0882,73.2032,175.0588,73.3572,185.0294,73.257,195,73.4675,204.9706,73.5281,214.9412,73.8746,224.9118,73.96,234.8824,73.9682,244.8529,73.5436,254.8235,73.7525,264.7941,73.9912,274.7647,72.5678,284.7353,73.9675,294.7059,72.9924,304.6765,73.8228,314.6471,72.7939,324.6176,73.2205,334.5882,74.0306,344.5588,73.2402,354.5294,73.3943,364.5,73.2889,364.5432,73.3932,364.9066,73.5636,365.2066,73.5806,365.5973,73.8167,365.8412,73.6985,366.2678,74.0212,366.3553,74.0575,366.583,74.4447,366.6976,74.785,366.8959,75.16,366.7048,75.3738,367,75.7889,366.3478,75.7889,366.3786,84.9149,366.9411,94.0409,366.8035,103.1668,367.6814,112.2928,367,121.4188,366.9462,121.3965,366.7479,121.7286,366.7774,122.155,366.3553,122.3944,366.2543,122.7668,366.2678,123.1866,366.3505,123.3864,365.9698,123.4672,365.6544,123.7056,365.1661,123.5268,364.8943,123.8706,364.5,123.9188,364.5,124.5092,354.5294,123.4464,344.5588,123.8229,334.5882,124.0448,324.6176,124.5705,314.6471,123.9146,304.6765,124.3814,294.7059,123.365,284.7353,123.2415,274.7647,124.4224,264.7941,123.2018,254.8235,124.4277,244.8529,124.1254,234.8824,123.6509,224.9118,123.565,214.9412,124.3775,204.9706,123.6195,195,124.5106,185.0294,123.366,175.0588,124.5362,165.0882,124.4031,155.1176,124.1638,145.1471,123.966,135.1765,124.6454,125.2059,124.5324,115.2353,124.088,105.2647,124.187,95.2941,123.7885,85.3235,124.6352,75.3529,124.0737,65.3824,124.0914,55.4118,123.3104,45.4412,123.5136,35.4706,124.4495,25.5,123.9188,25.5548,124.0511,25.141,123.7591,24.7518,123.5267,24.4114,123.412,23.9983,123.1217,23.7322,123.1866,23.86,123.2395,23.8135,122.9273,23.6014,122.5466,23.5069,122.2145,23.1043,121.7549,23,121.4188,23.0872,121.4188,22.6124,112.2928,23.284,103.1668,23.2468,94.0409,23.5524,84.9149,23,75.7889,22.9293,75.7597,23.1051,75.4183,23.4295,75.1384,23.6141,74.8007,23.4279,74.3094,23.7322,74.0212,23.7075,73.9615,24.1048,73.9207,24.3614,73.5402,24.838,73.6907,25.1794,73.5148,25.5,73.2889" style="stroke:#181818;stroke-width:4.0;"/><text fill="#000000" font-family="Chalkduster" font-size="24" lengthAdjust="spacing" textLength="324" x="33" y="107.1298">Identity Authentication</text></g><!--link id to lic--><g id="link_id_lic"><path d="M233.59,124.5889 L233.7415,124.8247 L241.7776,129.5757 L250.7016,135.7089 L259.3365,141.3919 L267.0205,145.5948 L275.9648,151.7595 L284.1996,156.8197 L292.7167,162.3195 L301.4301,168.1248 L309.4671,172.8772 L318.8505,179.7254 L326.4835,183.8488 L335.2813,189.7856 L343.91,195.4589 " fill="none" style="stroke:#8B0000;stroke-width:4.0;"/><polygon fill="#8B0000" points="347.87,198.0089,347.9285,198.0475,346.6706,196.2883,345.7557,194.7551,344.7291,193.1484,343.3352,191.2995,342.4497,189.7858,342.4244,189.7802,342.5529,190.8605,342.8089,191.9688,343.1537,193.0964,343.1928,194.1572,343.6599,195.3117,343.6994,195.4919,342.5098,195.3485,341.4355,195.7313,340.3752,196.1784,339.2331,196.2519,338.1341,196.5219,338.1375,196.5444,340.0796,196.8088,342.0374,197.1755,343.9877,197.4929,345.9523,197.9045,347.87,198.0089" style="stroke:#8B0000;stroke-width:4.0;"/></g><!--link att to lic--><g id="link_att_lic"><path d="M519.55,139.7089 L519.7009,139.9451 L510.5255,144.8205 L502.2348,151.0801 L493.656,156.889 L484.1298,161.2154 L475.8592,167.5066 L466.8818,172.6918 L458.1857,178.3171 L449.6851,184.2484 L440.5106,189.1252 L432.28,195.4789 " fill="none" style="stroke:#8B0000;stroke-width:4.0;"/><polygon fill="#8B0000" points="428.16,198.1189,428.1706,198.1882,430.0863,197.685,432.0641,197.5878,434.0217,197.3584,435.9128,196.6942,437.8959,196.6319,437.8904,196.6066,436.7604,196.251,435.6582,196.0229,434.5756,195.8835,433.4259,195.4386,432.3701,195.4217,432.5503,195.4611,432.4069,194.2715,432.7898,193.1972,433.2368,192.1369,433.3103,190.9948,433.5803,189.8958,433.5993,189.9083,432.4873,191.5345,431.4619,193.2178,430.3947,194.8735,429.4071,196.5818,428.16,198.1189" style="stroke:#8B0000;stroke-width:4.0;"/></g><!--SRC=[RKvB2i8m4Dtd56CNxb9l81HNWjv0a34Pwq0wXMIAHl7kfaL4Ys_t7k-tO75Xy7JiK3BKzSgZeYq4M-f8r2RDWMgzgJ6HdAAqWQ1g1htqaU-et0kWU1YLucStIHLW0YnIWeU1Wg_iZXr98jX_HYPtO3TtDggHJuCIB653KVdyhZ_8B8ogy_3MZtSq_tl6tfYdCUp1-lugTZsjbv8V_W80]--></g></svg>