<?xml version="1.0" encoding="UTF-8" standalone="no"?><svg xmlns="http://www.w3.org/2000/svg" xmlns:xlink="http://www.w3.org/1999/xlink" contentStyleType="text/css" height="797px" preserveAspectRatio="none" style="width:934px;height:797px;background:#FFFFFF;" version="1.1" viewBox="0 0 934 797" width="934px" zoomAndPan="magnify"><defs/><g><text fill="#000000" font-family="Chalkduster" font-size="42" font-weight="bold" lengthAdjust="spacing" textLength="382" x="269" y="51.7215">Data findability</text><!--cluster arch--><g id="cluster_arch"><polygon fill="#00FF7F" points="9.5,122.2622,9.5,122.4724,19.4565,121.8479,29.413,122.4555,39.3696,122.6619,49.3261,121.5488,59.2826,122.1845,69.2391,121.8357,79.1957,121.8787,89.1522,122.1941,99.1087,121.5708,109.0652,122.8159,119.0217,121.6319,128.9783,122.0644,138.9348,122.6942,148.8913,122.1764,158.8478,122.3304,168.8043,122.2303,178.7609,122.4407,188.7174,122.5013,198.6739,122.8479,208.6304,122.9333,218.587,122.9415,228.5435,122.5168,238.5,122.7258,248.4565,122.9644,258.413,121.541,268.3696,122.9407,278.3261,121.9657,288.2826,122.796,298.2391,121.7672,308.1957,122.1937,318.1522,123.0038,328.1087,122.2135,338.0652,122.3675,348.0217,122.6008,357.9783,122.6784,367.9348,122.2583,377.8913,122.5494,387.8478,121.6898,397.8043,122.5466,407.7609,122.8104,417.7174,122.7067,427.6739,122.8752,437.6304,121.7791,447.587,121.61,457.5435,121.6408,467.5,122.2033,477.4565,122.0657,487.413,122.9436,497.3696,122.0875,507.3261,121.9192,517.2826,122.4905,527.2391,121.5954,537.1957,121.7431,547.1522,122.9112,557.1087,122.6979,567.0652,122.9967,577.0217,121.9404,586.9783,122.5814,596.9348,122.8526,606.8913,121.7898,616.8478,122.1664,626.8043,122.3882,636.7609,122.914,646.7174,122.258,656.6739,122.7248,666.6304,121.7084,676.587,121.585,686.5435,122.7658,696.5,121.5453,706.4565,122.7712,716.413,122.4688,726.3696,121.9943,736.3261,121.9084,746.2826,122.721,756.2391,121.9629,766.1957,122.8541,776.1522,121.7095,786.1087,122.8796,796.0652,122.7465,806.0217,122.5072,815.9783,122.3094,825.9348,122.9888,835.8913,122.8758,845.8478,122.4315,855.8043,122.5304,865.7609,122.1319,875.7174,122.9787,885.6739,122.4171,895.6304,122.4348,905.587,121.6539,915.5435,121.857,925.5,122.2622,925.5677,122.4257,925.9084,122.541,926.2016,122.5419,926.5196,122.6023,926.8863,122.7806,927.2678,122.9944,927.0565,122.9069,927.5419,123.4009,927.7884,123.7959,927.8692,124.1223,928.0676,124.4973,928,124.7622,927.8633,124.7622,928.0872,134.8228,927.6124,144.8834,928.284,154.944,928.2468,165.0046,928.5524,175.0652,927.7703,185.1258,927.8656,195.1865,928.4435,205.2471,928.5673,215.3077,927.4875,225.3683,927.8061,235.4289,928.1493,245.4895,927.3892,255.5501,928.3534,265.6107,928.258,275.6713,927.8992,285.7319,928.1422,295.7925,928.7287,305.8531,927.6871,315.9137,928.315,325.9743,928.2856,336.0349,928.1158,346.0955,928.1409,356.1562,928.1135,366.2168,927.3758,376.2774,927.5992,386.338,927.5385,396.3986,928.0638,406.4592,928.0881,416.5198,928.1617,426.5804,927.709,436.641,927.9325,446.7016,927.8798,456.7622,928.5769,466.8228,928.4266,476.8834,927.5145,486.944,927.9271,497.0046,927.4228,507.0652,928.2884,517.1258,928.6085,527.1865,928.5446,537.2471,927.5644,547.3077,928.464,557.3683,927.2572,567.4289,928.2002,577.4895,927.7007,587.5501,928.0967,597.6107,928.2403,607.6713,928.4721,617.7319,927.2801,627.7925,928.4755,637.8531,928.1782,647.9137,928.3553,657.9743,928.7478,668.0349,928.0055,678.0955,928.1753,688.1562,928.2134,698.2168,928.1972,708.2774,927.9992,718.338,928.7107,728.3986,927.3903,738.4592,928.5653,748.5198,927.376,758.5804,927.4597,768.641,928.04,778.7016,928,788.7622,928.0087,788.7658,927.7018,789.0529,927.8345,789.5221,927.5942,789.8368,927.638,790.2691,927.2678,790.53,927.3529,790.7354,926.857,790.5384,926.5099,790.7003,926.1906,790.9295,925.8989,791.2253,925.5,791.2622,925.5,791.6652,915.5435,791.5634,905.587,790.9203,895.6304,791.8986,885.6739,791.896,875.7174,791.2149,865.7609,791.0232,855.8043,790.8608,845.8478,791.0476,835.8913,791.3996,825.9348,791.1938,815.9783,790.8444,806.0217,791.7496,796.0652,790.8033,786.1087,791.7646,776.1522,791.6894,766.1957,791.6341,756.2391,791.9547,746.2826,791.0163,736.3261,790.9616,726.3696,791.7811,716.413,790.6653,706.4565,791.0282,696.5,791.3777,686.5435,791.3309,676.587,790.9038,666.6304,791.2192,656.6739,792.0068,646.7174,791.9107,636.7609,790.6659,626.8043,791.3407,616.8478,790.7483,606.8913,791.2359,596.9348,791.5552,586.9783,791.6821,577.0217,790.5975,567.0652,791.6628,557.1087,791.2706,547.1522,790.7069,537.1957,790.7912,527.2391,791.5888,517.2826,791.5121,507.3261,791.2458,497.3696,790.5901,487.413,791.9204,477.4565,790.9504,467.5,790.7342,457.5435,791.1949,447.587,791.8519,437.6304,791.8776,427.6739,791.2973,417.7174,791.111,407.7609,791.432,397.8043,791.4484,387.8478,790.7544,377.8913,791.6762,367.9348,791.821,357.9783,791.0465,348.0217,790.833,338.0652,791.9369,328.1087,791.2832,318.1522,791.2621,308.1957,791.5612,298.2391,790.6165,288.2826,791.7922,278.3261,791.2468,268.3696,791.931,258.413,791.0464,248.4565,791.6712,238.5,790.8182,228.5435,791.5072,218.587,791.6415,208.6304,790.9349,198.6739,791.6252,188.7174,790.6908,178.7609,790.7917,168.8043,791.945,158.8478,791.9466,148.8913,791.8307,138.9348,790.9018,128.9783,791.6464,119.0217,790.7902,109.0652,791.3204,99.1087,791.261,89.1522,790.9998,79.1957,791.8781,69.2391,791.7055,59.2826,790.9415,49.3261,791.7888,39.3696,791.3541,29.413,790.6786,19.4565,791.0289,9.5,791.2622,9.433,791.1004,9.1287,791.0729,8.7127,790.7756,8.3628,790.638,8.0948,790.6981,7.7322,790.53,7.6952,790.5146,7.5678,790.169,7.3952,789.8046,7.3444,789.4907,6.9755,789.045,7,788.7622,7.1601,788.7622,6.2569,778.7016,7.296,768.641,7.5928,758.5804,7.5221,748.5198,7.3613,738.4592,7.1922,728.3986,7.1057,718.338,6.36,708.2774,7.4465,698.2168,7.3296,688.1562,6.8466,678.0955,6.9942,668.0349,6.7914,657.9743,7.2177,647.9137,7.6805,637.8531,6.6461,627.7925,7.4689,617.7319,6.9108,607.6713,6.6207,597.6107,6.5681,587.5501,6.3553,577.4895,6.5591,567.4289,7.0363,557.3683,7.273,547.3077,7.5762,537.2471,7.4201,527.1865,6.2886,517.1258,7.619,507.0652,7.4861,497.0046,7.5407,486.944,7.5219,476.8834,6.3409,466.8228,6.7423,456.7622,7.316,446.7016,6.5185,436.641,6.8971,426.5804,7.067,416.5198,7.3261,406.4592,7.0458,396.3986,7.7447,386.338,7.4114,376.2774,7.2561,366.2168,6.4601,356.1562,7.3388,346.0955,6.4255,336.0349,7.3057,325.9743,7.0078,315.9137,7.2995,305.8531,6.9126,295.7925,6.8039,285.7319,6.2591,275.6713,6.7856,265.6107,6.2951,255.5501,6.7539,245.4895,7.4379,235.4289,7.1607,225.3683,6.5485,215.3077,7.2458,205.2471,7.0656,195.1865,7.5433,185.1258,7.5649,175.0652,7.0937,165.0046,6.821,154.944,6.7855,144.8834,6.9936,134.8228,7,124.7622,7.2061,124.8476,6.939,124.3227,7.2424,124.0342,7.5215,123.7356,7.8111,123.4413,7.7322,122.9944,7.7593,123.0597,8.0605,122.787,8.3452,122.4743,8.7388,122.4246,9.1181,122.3403,9.5,122.2622" style="stroke:#181818;stroke-width:4.0;"/><text fill="#000000" font-family="Chalkduster" font-size="24" font-style="italic" lengthAdjust="spacing" textLength="169" x="383" y="148.1031">«repository»</text><text fill="#000000" font-family="Chalkduster" font-size="24" font-weight="bold" lengthAdjust="spacing" textLength="554" x="190.5" y="178.7329">Multiple storage services made findable</text></g><!--cluster p1--><g id="cluster_p1"><polygon fill="none" points="505.5,218.2622,505.5,218.4724,515.6176,217.8479,525.7353,218.4555,535.8529,218.6619,545.9706,217.5488,556.0882,218.1845,566.2059,217.8357,576.3235,217.8787,586.4412,218.1941,596.5588,217.5708,606.6765,218.8159,616.7941,217.6319,626.9118,218.0644,637.0294,218.6942,647.1471,218.1764,657.2647,218.3304,667.3824,218.2303,677.5,218.2622,677.5228,218.3172,677.8841,218.4823,678.2818,218.7355,678.6463,218.9082,679.0009,219.0572,679.2678,218.9944,679.3462,219.0269,679.557,219.4071,679.7769,219.7911,679.485,219.9631,680.0625,220.4952,680,220.7622,679.7035,220.7622,680.5338,230.5269,679.505,240.2916,679.9315,250.0563,680.7416,259.821,679.9513,269.5857,680.1053,279.3504,680.3386,289.1152,680.4162,298.8799,679.9961,308.6446,680.2872,318.4093,679.4276,328.174,680.2844,337.9387,680.5482,347.7034,680.4445,357.4681,680.613,367.2328,679.5169,376.9975,680,386.7622,679.7992,386.679,679.6622,387.0365,679.689,387.4618,679.5001,387.7978,679.6241,388.2633,679.2678,388.53,679.2455,388.4762,678.8705,388.5708,678.5898,388.8932,678.122,388.764,677.7873,388.9559,677.5,389.2622,677.5,389.9112,667.3824,389.6979,657.2647,389.9967,647.1471,388.9404,637.0294,389.5814,626.9118,389.8526,616.7941,388.7898,606.6765,389.1664,596.5588,389.3882,586.4412,389.914,576.3235,389.258,566.2059,389.7248,556.0882,388.7084,545.9706,388.585,535.8529,389.7658,525.7353,388.5453,515.6176,389.7712,505.5,389.2622,505.5264,389.3258,505.1123,389.0333,504.7478,388.8604,504.4979,388.9642,504.0476,388.5842,503.7322,388.53,503.9145,388.6055,503.4156,388.1059,503.6295,387.9016,503.442,387.5311,503.2219,387.147,503,386.7622,503.0472,386.7622,503.7266,376.9975,503.6136,367.2328,503.1693,357.4681,503.2682,347.7034,502.8697,337.9387,503.7165,328.174,503.1549,318.4093,503.1726,308.6446,502.3916,298.8799,502.5948,289.1152,503.5307,279.3504,503.4298,269.5857,502.9571,259.821,502.6778,250.0563,502.7811,240.2916,502.3138,230.5269,503,220.7622,503.1277,220.8151,503.3742,220.503,503.455,220.1223,503.6534,219.7902,503.5437,219.3306,503.7322,218.9944,503.7434,219.0213,504.0363,218.7286,504.4756,218.789,504.8244,218.6311,505.2169,218.5788,505.5,218.2622" style="stroke:#181818;stroke-width:4.0;"/><text fill="#000000" font-family="Chalkduster" font-size="24" font-weight="bold" lengthAdjust="spacing" textLength="113" x="535" y="244.1031">Portal 1</text></g><!--cluster p2--><g id="cluster_p2"><polygon fill="none" points="272.5,218.2622,272.5,218.4724,282.2895,217.8479,292.0789,218.4555,301.8684,218.6619,311.6579,217.5488,321.4474,218.1845,331.2368,217.8357,341.0263,217.8787,350.8158,218.1941,360.6053,217.5708,370.3947,218.8159,380.1842,217.6319,389.9737,218.0644,399.7632,218.6942,409.5526,218.1764,419.3421,218.3304,429.1316,218.2303,438.9211,218.4407,448.7105,218.5013,458.5,218.2622,458.5747,218.4426,458.9392,218.6153,459.2938,218.7643,459.5931,218.78,459.9733,218.9908,460.2678,218.9944,460.484,219.084,460.1921,219.256,460.7696,219.7881,460.6158,220.0173,461.0179,220.4768,461,220.7622,460.505,220.7622,460.9315,230.5269,461.7416,240.2916,460.9513,250.0563,461.1053,259.821,461.3386,269.5857,461.4162,279.3504,460.9961,289.1152,461.2872,298.8799,460.4276,308.6446,461.2844,318.4093,461.5482,328.174,461.4445,337.9387,461.613,347.7034,460.5169,357.4681,460.3478,367.2328,460.3786,376.9975,461,386.7622,460.9819,386.7547,460.793,387.0907,460.917,387.5562,460.5069,387.8006,460.3086,388.1327,460.2678,388.53,460.2969,388.6003,459.8292,388.4711,459.4944,388.663,459.2899,389.1692,458.9091,389.2499,458.5,389.2622,458.5,389.9967,448.7105,388.9404,438.9211,389.5814,429.1316,389.8526,419.3421,388.7898,409.5526,389.1664,399.7632,389.3882,389.9737,389.914,380.1842,389.258,370.3947,389.7248,360.6053,388.7084,350.8158,388.585,341.0263,389.7658,331.2368,388.5453,321.4474,389.7712,311.6579,389.4688,301.8684,388.9943,292.0789,388.9084,282.2895,389.721,272.5,389.2622,272.4618,389.17,272.2219,389.298,271.7224,388.7991,271.5181,389.013,271.1476,388.8256,270.7322,388.53,270.8077,388.5612,270.6003,388.1824,270.6631,387.9156,270.4819,387.5476,270.1986,387.1374,270,386.7622,270.2682,386.7622,269.8697,376.9975,270.7165,367.2328,270.1549,357.4681,270.1726,347.7034,269.3916,337.9387,269.5948,328.174,270.5307,318.4093,270.4298,308.6446,269.9571,298.8799,269.6778,289.1152,269.7811,279.3504,269.3138,269.5857,270.4147,259.821,270.7396,250.0563,270.5264,240.2916,270.6949,230.5269,270,220.7622,269.9579,220.7448,270.1733,220.4198,270.1735,220.0057,270.5268,219.7378,270.6618,219.3795,270.7322,218.9944,270.8027,219.1646,271.0565,218.7773,271.4222,218.6602,271.8495,218.6917,272.2188,218.5834,272.5,218.2622" style="stroke:#181818;stroke-width:4.0;"/><text fill="#000000" font-family="Chalkduster" font-size="24" font-weight="bold" lengthAdjust="spacing" textLength="111" x="310" y="244.1031">Portal 2</text></g><!--cluster p3--><g id="cluster_p3"><polygon fill="none" points="41.5,218.2622,41.5,218.4724,51.2895,217.8479,61.0789,218.4555,70.8684,218.6619,80.6579,217.5488,90.4474,218.1845,100.2368,217.8357,110.0263,217.8787,119.8158,218.1941,129.6053,217.5708,139.3947,218.8159,149.1842,217.6319,158.9737,218.0644,168.7632,218.6942,178.5526,218.1764,188.3421,218.3304,198.1316,218.2303,207.9211,218.4407,217.7105,218.5013,227.5,218.2622,227.5747,218.4426,227.9392,218.6153,228.2938,218.7643,228.5931,218.78,228.9733,218.9908,229.2678,218.9944,229.484,219.084,229.1921,219.256,229.7696,219.7881,229.6158,220.0173,230.0179,220.4768,230,220.7622,229.505,220.7622,229.9315,230.5269,230.7416,240.2916,229.9513,250.0563,230.1053,259.821,230.3386,269.5857,230.4162,279.3504,229.9961,289.1152,230.2872,298.8799,229.4276,308.6446,230.2844,318.4093,230.5482,328.174,230.4445,337.9387,230.613,347.7034,229.5169,357.4681,229.3478,367.2328,229.3786,376.9975,230,386.7622,229.9819,386.7547,229.793,387.0907,229.917,387.5562,229.5069,387.8006,229.3086,388.1327,229.2678,388.53,229.2969,388.6003,228.8292,388.4711,228.4944,388.663,228.2899,389.1692,227.9091,389.2499,227.5,389.2622,227.5,389.9967,217.7105,388.9404,207.9211,389.5814,198.1316,389.8526,188.3421,388.7898,178.5526,389.1664,168.7632,389.3882,158.9737,389.914,149.1842,389.258,139.3947,389.7248,129.6053,388.7084,119.8158,388.585,110.0263,389.7658,100.2368,388.5453,90.4474,389.7712,80.6579,389.4688,70.8684,388.9943,61.0789,388.9084,51.2895,389.721,41.5,389.2622,41.4618,389.17,41.2219,389.298,40.7224,388.7991,40.5181,389.013,40.1476,388.8256,39.7322,388.53,39.8077,388.5612,39.6003,388.1824,39.6631,387.9156,39.4819,387.5476,39.1986,387.1374,39,386.7622,39.2682,386.7622,38.8697,376.9975,39.7165,367.2328,39.1549,357.4681,39.1726,347.7034,38.3916,337.9387,38.5948,328.174,39.5307,318.4093,39.4298,308.6446,38.9571,298.8799,38.6778,289.1152,38.7811,279.3504,38.3138,269.5857,39.4147,259.821,39.7396,250.0563,39.5264,240.2916,39.6949,230.5269,39,220.7622,38.9579,220.7448,39.1733,220.4198,39.1735,220.0057,39.5268,219.7378,39.6618,219.3795,39.7322,218.9944,39.8027,219.1646,40.0565,218.7773,40.4222,218.6602,40.8495,218.6917,41.2188,218.5834,41.5,218.2622" style="stroke:#181818;stroke-width:4.0;"/><text fill="#000000" font-family="Chalkduster" font-size="24" font-weight="bold" lengthAdjust="spacing" textLength="114" x="77.5" y="244.1031">Portal 3</text></g><!--cluster stor1--><g id="cluster_stor1"><path d="M337,622.2622 L337,622.2622 L337.0482,622.3422 L338.0007,621.4443 L339.2357,621.0155 L340.3788,620.4339 L341.2192,619.35 L342.4785,618.9614 L342.4727,618.9274 L345.3351,618.2785 L348.227,617.8013 L351.1394,617.4433 L353.9812,616.6742 L356.9219,616.481 L356.9465,616.7258 L358.8238,616.0084 L360.773,616.0058 L362.7309,616.0904 L364.6378,615.6676 L366.5715,615.5117 L366.5738,615.542 L368.7245,615.3359 L370.8856,615.2676 L373.0416,615.1328 L375.2072,615.1248 L377.3418,614.7036 L377.3589,615.0014 L379.6626,614.8727 L381.9552,614.552 L384.264,614.5123 L386.5736,614.4859 L388.8591,614.042 L388.8449,613.7218 L391.2507,614.2373 L393.6096,613.6984 L396.0042,613.9611 L398.362,613.3984 L400.75,613.5122 L400.7491,613.4818 L405.4418,613.6971 L410.1126,613.2015 L414.7964,613.1254 L419.4812,613.0845 L424.1582,612.7896 L424.1616,612.9745 L428.2422,612.7136 L432.3285,612.7687 L436.4055,612.3125 L440.4964,612.6191 L444.5781,612.4185 L444.58,612.6621 L448.564,612.5848 L452.549,612.6284 L456.5296,612.11 L460.5134,612.0036 L464.5,612.2622 L464.5,612.2622 L464.4978,611.986 L468.4842,612.2673 L472.4681,612.2374 L476.4555,612.6588 L480.4369,612.3096 L484.4219,612.4185 L484.4191,612.266 L488.5077,612.5941 L492.5845,612.2706 L496.6696,612.4104 L500.7631,613.0037 L504.8418,612.7896 L504.8478,612.9831 L509.5335,613.2604 L514.2007,612.9357 L518.8911,613.3649 L523.5765,613.63 L528.25,613.5122 L528.2407,613.3025 L530.6263,613.5756 L533.0088,613.7801 L535.3974,614.1195 L537.7626,613.9342 L540.1409,614.042 L540.1527,614.2472 L542.4302,613.9286 L544.7305,614.0061 L547.0641,614.6624 L549.3365,614.2532 L551.6582,614.7036 L551.6751,614.9292 L553.8191,614.9568 L555.9574,614.9081 L558.1086,615.0317 L560.2897,615.5534 L562.4285,615.5117 L562.4152,615.3794 L564.3847,615.9673 L566.2638,615.655 L568.2457,616.3663 L570.1697,616.5013 L572.0781,616.481 L572.0966,616.5883 L574.9703,616.9977 L577.9101,617.7914 L580.7903,618.238 L583.6455,618.5395 L586.5215,618.9614 L586.583,619.0635 L587.5873,619.572 L588.8772,620.5545 L589.8441,621.0009 L590.9439,621.6678 L592,622.2622 L590.3777,622.2622 L590.9194,632.0314 L593.4153,641.8007 L593.146,651.5699 L591.8855,661.3391 L591.1409,671.1084 L591.4162,680.8776 L590.1702,690.6468 L593.106,700.4161 L593.9722,710.1853 L593.4037,719.9545 L593.8532,729.7237 L591.6354,739.493 L592,749.2622 L592,749.2622 L592.02,749.2954 L590.8154,749.7748 L589.8737,750.6907 L588.7695,751.3366 L587.7439,752.1131 L586.5215,752.563 L586.5042,752.4624 L583.6227,753.0002 L580.7775,753.7494 L577.8981,754.2998 L574.9282,754.3229 L572.0781,755.0435 L572.0695,754.9577 L570.1548,755.3033 L568.1911,755.161 L566.304,755.7813 L564.3699,755.9329 L562.4285,756.0127 L562.4251,755.968 L560.2791,756.2374 L558.1446,756.6589 L555.9559,756.3589 L553.8227,756.7988 L551.6582,756.8208 L551.6655,756.9476 L549.3577,757.0045 L547.0549,757.148 L544.7507,757.2681 L542.4284,757.0732 L540.1409,757.4824 L540.1329,757.3045 L537.7536,757.3835 L535.3858,757.7227 L533.0081,757.8394 L530.6314,757.9781 L528.25,758.0122 L528.246,757.883 L523.5674,758.1267 L518.8851,758.2479 L514.213,758.7021 L509.5293,758.7798 L504.8418,758.7349 L504.8379,758.5191 L500.7572,758.7767 L496.6692,758.6268 L492.5922,759.0857 L488.5108,759.3021 L484.4219,759.106 L484.4238,759.348 L480.436,758.9436 L476.4547,759.3747 L472.4662,758.8696 L468.4851,759.3199 L464.5,759.2622 L464.5,759.2622 L464.499,759.1292 L460.516,759.2739 L456.5321,759.3065 L452.5485,759.3783 L448.56,758.8173 L444.5781,759.106 L444.582,759.3172 L440.4956,759.1109 L436.413,759.1154 L432.3322,759.2156 L428.2422,758.8115 L424.1582,758.7349 L424.1606,758.8127 L419.4795,758.6852 L414.7976,758.5334 L410.1133,758.3009 L405.4414,758.4725 L400.75,758.0122 L400.7379,757.7415 L398.383,758.1572 L395.9813,757.5232 L393.6048,757.4544 L391.2381,757.6061 L388.8591,757.4824 L388.8599,757.495 L386.5431,757.1314 L384.2627,757.4013 L381.9515,757.1338 L379.6638,757.2756 L377.3418,756.8208 L377.364,757.1165 L375.1728,756.4605 L373.0205,756.3212 L370.8753,756.2787 L368.7374,756.3319 L366.5715,756.0127 L366.5894,756.1909 L364.655,755.952 L362.6965,755.4738 L360.81,755.7126 L358.88,755.5176 L356.9219,755.0435 L356.9183,755.0227 L354.0152,754.4427 L351.1143,753.8755 L348.2397,753.4612 L345.3775,753.1193 L342.4785,752.563 L342.4628,752.537 L341.287,751.7438 L340.3989,751.4282 L339.0861,750.4078 L338.2109,750.1136 L337,749.2622 L338.1393,749.2622 L337.9916,739.493 L338.8467,729.7237 L336.3443,719.9545 L336.1983,710.1853 L338.3837,700.4161 L335.4083,690.6468 L336.376,680.8776 L337.308,671.1084 L337.1832,661.3391 L336.0441,651.5699 L336.8854,641.8007 L338.9856,632.0314 L337,622.2622 " fill="none" style="stroke:#181818;stroke-width:4.0;"/><path d="M337,622.2622 L337,622.2622 L337.0482,622.3422 L338.0007,622.7646 L339.2357,623.6561 L340.3788,624.3948 L341.2192,624.6313 L342.4785,625.563 L342.4727,625.529 L345.3351,625.8723 L348.227,626.3872 L351.1394,627.0214 L353.9812,627.2445 L356.9219,628.0435 L356.9465,628.2883 L358.8238,627.9586 L360.773,628.3437 L362.7309,628.816 L364.6378,628.7809 L366.5715,629.0127 L366.5738,629.0429 L368.7245,629.1602 L370.8856,629.4151 L373.0416,629.6035 L375.2072,629.9188 L377.3418,629.8208 L377.3589,630.1186 L379.6626,630.2545 L381.9552,630.1984 L384.264,630.4235 L386.5736,630.6617 L388.8591,630.4824 L388.8449,630.1622 L391.2507,630.8896 L393.6096,630.5627 L396.0042,631.0373 L398.362,630.6865 L400.75,631.0122 L400.7491,630.9818 L405.4418,631.4862 L410.1126,631.2796 L414.7964,631.4926 L419.4812,631.7408 L424.1582,631.7349 L424.1616,631.9198 L428.2422,631.8074 L432.3285,632.0109 L436.4055,631.7032 L440.4964,632.1581 L444.5781,632.106 L444.58,632.3496 L448.564,632.3348 L452.549,632.4409 L456.5296,631.985 L460.5134,631.9411 L464.5,632.2622 L464.5,632.2622 L464.4978,631.986 L468.4842,632.2048 L472.4681,632.1124 L476.4555,632.4713 L480.4369,632.0596 L484.4219,632.106 L484.4191,631.9535 L488.5077,632.1332 L492.5845,631.6612 L496.6696,631.6526 L500.7631,632.0975 L504.8418,631.7349 L504.8478,631.9284 L509.5335,631.9166 L514.2007,631.3029 L518.8911,631.4431 L523.5765,631.419 L528.25,631.0122 L528.2407,630.8025 L530.6263,630.8637 L533.0088,630.8562 L535.3974,630.9837 L537.7626,630.5865 L540.1409,630.4824 L540.1527,630.6877 L542.4302,630.1044 L544.7305,629.9173 L547.0641,630.3089 L549.3365,629.635 L551.6582,629.8208 L551.6751,630.0464 L553.8191,629.7508 L555.9574,629.3788 L558.1086,629.1791 L560.2897,629.3776 L562.4285,629.0127 L562.4152,628.8803 L564.3847,629.0806 L566.2638,628.3806 L568.2457,628.7042 L570.1697,628.4515 L572.0781,628.0435 L572.0966,628.1508 L574.9703,627.5681 L577.9101,627.3696 L580.7903,626.8239 L583.6455,626.1332 L586.5215,625.563 L586.583,625.6651 L587.5873,624.8532 L588.8772,624.5154 L589.8441,623.6415 L590.9439,622.9881 L592,622.2622 " fill="none" style="stroke:#181818;stroke-width:4.0;"/><text fill="#000000" font-family="Chalkduster" font-size="24" font-weight="bold" lengthAdjust="spacing" textLength="128" x="400.5" y="658.1031">Storage 1</text></g><!--cluster stor2--><g id="cluster_stor2"><path d="M632,622.2622 L632,622.2622 L632.047,622.3429 L633.0418,621.4429 L634.312,621.0161 L635.4925,620.4353 L636.378,619.3475 L637.6719,618.9614 L637.6662,618.9274 L640.6315,618.2783 L643.6252,617.8011 L646.6388,617.4433 L649.5841,616.6739 L652.625,616.481 L652.6488,616.7259 L654.596,616.0083 L656.6126,616.0058 L658.6377,616.0905 L660.6135,615.6676 L662.6152,615.5117 L662.6174,615.542 L664.8443,615.3359 L667.0811,615.2676 L669.3132,615.1329 L671.5544,615.1249 L673.7656,614.7036 L673.7821,615.0014 L676.1671,614.8727 L678.5414,614.552 L680.9313,614.5124 L683.322,614.4859 L685.6895,614.042 L685.6757,613.7218 L688.1645,614.2373 L690.608,613.6984 L693.086,613.9612 L695.5284,613.3984 L698,613.5122 L697.9991,613.4818 L702.8567,613.6971 L707.6931,613.2015 L712.542,613.1254 L717.392,613.0845 L722.2344,612.7896 L722.2376,612.9745 L726.4625,612.7136 L730.6929,612.7687 L734.9143,612.3125 L739.1491,612.6191 L743.375,612.4185 L743.3768,612.6621 L747.5015,612.5848 L751.6271,612.6284 L755.7484,612.11 L759.8728,612.0036 L764,612.2622 L764,612.2622 L763.9979,611.986 L768.1248,612.2673 L772.2493,612.2374 L776.3773,612.6588 L780.4994,612.3096 L784.625,612.4185 L784.6223,612.266 L788.8549,612.5941 L793.076,612.2706 L797.3053,612.4104 L801.5426,613.0037 L805.7656,612.7896 L805.7714,612.9831 L810.6222,613.2604 L815.4551,612.9357 L820.3105,613.365 L825.1609,613.63 L830,613.5122 L829.991,613.3024 L832.4603,613.5756 L834.9266,613.7801 L837.3988,614.1195 L839.8484,613.9342 L842.3105,614.042 L842.3219,614.2473 L844.6817,613.9286 L847.0634,614.0061 L849.4772,614.6625 L851.832,614.2531 L854.2344,614.7036 L854.2507,614.9292 L856.4711,614.9568 L858.6859,614.9081 L860.9132,615.0317 L863.1694,615.5535 L865.3848,615.5117 L865.3719,615.3793 L867.4082,615.9674 L869.3571,615.6549 L871.4054,616.3664 L873.3977,616.5014 L875.375,616.481 L875.3928,616.5884 L878.3691,616.9978 L881.4091,617.7917 L884.3915,618.2383 L887.3498,618.5395 L890.3281,618.9614 L890.3881,619.0644 L891.4334,619.5715 L892.757,620.557 L893.7659,621.0014 L894.9042,621.6683 L896,622.2622 L894.3777,622.2622 L894.9194,632.0314 L897.4153,641.8007 L897.146,651.5699 L895.8855,661.3391 L895.1409,671.1084 L895.4162,680.8776 L894.1702,690.6468 L897.106,700.4161 L897.9722,710.1853 L897.4037,719.9545 L897.8532,729.7237 L895.6354,739.493 L896,749.2622 L896,749.2622 L896.0195,749.2957 L894.779,749.7735 L893.7947,750.6916 L892.652,751.3375 L891.586,752.115 L890.3281,752.563 L890.3114,752.4623 L887.3277,753.0002 L884.3791,753.7496 L881.3975,754.3 L878.3283,754.3226 L875.375,755.0435 L875.3667,754.9577 L873.3834,755.3033 L871.3527,755.1609 L869.396,755.7813 L867.3939,755.933 L865.3848,756.0127 L865.3815,755.968 L863.1593,756.2374 L860.948,756.659 L858.6845,756.3589 L856.4746,756.7988 L854.2344,756.8208 L854.2414,756.9476 L851.8525,757.0045 L849.4683,757.148 L847.0829,757.2681 L844.6799,757.0731 L842.3105,757.4824 L842.3029,757.3044 L839.8396,757.3834 L837.3875,757.7227 L834.9259,757.8394 L832.4652,757.9781 L830,758.0122 L829.9961,757.8829 L825.1522,758.1267 L820.3047,758.2479 L815.467,758.7021 L810.6182,758.7798 L805.7656,758.7349 L805.7618,758.5191 L801.5369,758.7767 L797.3049,758.6268 L793.0835,759.0857 L788.8579,759.3021 L784.625,759.106 L784.6268,759.348 L780.4985,758.9436 L776.3766,759.3747 L772.2475,758.8696 L768.1257,759.3199 L764,759.2622 L764,759.2622 L763.999,759.1292 L759.8753,759.2739 L755.7508,759.3065 L751.6266,759.3783 L747.4976,758.8173 L743.375,759.106 L743.3787,759.3173 L739.1483,759.1109 L734.9215,759.1154 L730.6965,759.2156 L726.4625,758.8115 L722.2344,758.7349 L722.2367,758.8127 L717.3903,758.6852 L712.5432,758.5334 L707.6937,758.3009 L702.8563,758.4725 L698,758.0122 L697.9883,757.7415 L695.5487,758.1573 L693.0639,757.5232 L690.6033,757.4544 L688.1523,757.6061 L685.6895,757.4824 L685.6901,757.495 L683.2926,757.1314 L680.9301,757.4014 L678.5378,757.1338 L676.1683,757.2756 L673.7656,756.8208 L673.7871,757.1165 L671.5211,756.4605 L669.2927,756.3212 L667.0712,756.2787 L664.8567,756.3319 L662.6152,756.0127 L662.6325,756.191 L660.6301,755.9521 L658.6045,755.4737 L656.6484,755.7127 L654.6502,755.5177 L652.625,755.0435 L652.6216,755.0227 L649.617,754.4426 L646.6146,753.8753 L643.6375,753.4611 L640.6725,753.1193 L637.6719,752.563 L637.6566,752.5367 L636.4441,751.7423 L635.5121,751.4299 L634.1662,750.4062 L633.2467,750.1153 L632,749.2622 L633.1393,749.2622 L632.9916,739.493 L633.8467,729.7237 L631.3443,719.9545 L631.1983,710.1853 L633.3837,700.4161 L630.4083,690.6468 L631.376,680.8776 L632.308,671.1084 L632.1832,661.3391 L631.0441,651.5699 L631.8854,641.8007 L633.9856,632.0314 L632,622.2622 " fill="none" style="stroke:#181818;stroke-width:4.0;"/><path d="M632,622.2622 L632,622.2622 L632.047,622.3429 L633.0418,622.7632 L634.312,623.6568 L635.4925,624.3962 L636.378,624.6288 L637.6719,625.563 L637.6662,625.5289 L640.6315,625.8721 L643.6252,626.387 L646.6388,627.0214 L649.5841,627.2442 L652.625,628.0435 L652.6488,628.2884 L654.596,627.9585 L656.6126,628.3437 L658.6377,628.8161 L660.6135,628.7809 L662.6152,629.0127 L662.6174,629.0429 L664.8443,629.1602 L667.0811,629.4151 L669.3132,629.6036 L671.5544,629.9188 L673.7656,629.8208 L673.7821,630.1186 L676.1671,630.2546 L678.5414,630.1984 L680.9313,630.4235 L683.322,630.6617 L685.6895,630.4824 L685.6757,630.1622 L688.1645,630.8897 L690.608,630.5627 L693.086,631.0373 L695.5284,630.6864 L698,631.0122 L697.9991,630.9818 L702.8567,631.4862 L707.6931,631.2796 L712.542,631.4926 L717.392,631.7408 L722.2344,631.7349 L722.2376,631.9198 L726.4625,631.8074 L730.6929,632.0109 L734.9143,631.7032 L739.1491,632.1581 L743.375,632.106 L743.3768,632.3496 L747.5015,632.3348 L751.6271,632.4409 L755.7484,631.985 L759.8728,631.9411 L764,632.2622 L764,632.2622 L763.9979,631.986 L768.1248,632.2048 L772.2493,632.1124 L776.3773,632.4713 L780.4994,632.0596 L784.625,632.106 L784.6223,631.9535 L788.8549,632.1332 L793.076,631.6612 L797.3053,631.6526 L801.5426,632.0975 L805.7656,631.7349 L805.7714,631.9284 L810.6222,631.9166 L815.4551,631.3028 L820.3105,631.4431 L825.1609,631.419 L830,631.0122 L829.991,630.8024 L832.4603,630.8637 L834.9266,630.8562 L837.3988,630.9837 L839.8484,630.5865 L842.3105,630.4824 L842.3219,630.6877 L844.6817,630.1044 L847.0634,629.9172 L849.4772,630.3089 L851.832,629.635 L854.2344,629.8208 L854.2507,630.0464 L856.4711,629.7508 L858.6859,629.3788 L860.9132,629.1791 L863.1694,629.3777 L865.3848,629.0127 L865.3719,628.8803 L867.4082,629.0807 L869.3571,628.3805 L871.4054,628.7043 L873.3977,628.4515 L875.375,628.0435 L875.3928,628.1509 L878.3691,627.5681 L881.4091,627.3699 L884.3915,626.8242 L887.3498,626.1333 L890.3281,625.563 L890.3881,625.666 L891.4334,624.8528 L892.757,624.5179 L893.7659,623.642 L894.9042,622.9887 L896,622.2622 " fill="none" style="stroke:#181818;stroke-width:4.0;"/><text fill="#000000" font-family="Chalkduster" font-size="24" font-weight="bold" lengthAdjust="spacing" textLength="126" x="701" y="658.1031">Storage 2</text></g><!--cluster stor3--><g id="cluster_stor3"><path d="M39,622.2622 L39,622.2622 L39.0478,622.3425 L40.0144,621.4438 L41.2611,621.0157 L42.4167,620.4344 L43.2722,619.3492 L44.543,618.9614 L44.5372,618.9274 L47.4339,618.2785 L50.3598,617.8012 L53.3059,617.4433 L56.1822,616.6741 L59.1563,616.481 L59.1806,616.7258 L61.0812,616.0084 L63.0528,616.0058 L65.0331,616.0905 L66.963,615.6676 L68.9194,615.5117 L68.9217,615.542 L71.0978,615.3359 L73.2841,615.2676 L75.4655,615.1329 L77.6563,615.1248 L79.8164,614.7036 L79.8333,615.0014 L82.1641,614.8727 L84.484,614.552 L86.8198,614.5124 L89.1564,614.4859 L91.4692,614.042 L91.4551,613.7218 L93.8887,614.2373 L96.2757,613.6984 L98.6981,613.9611 L101.0842,613.3984 L103.5,613.5122 L103.4991,613.4818 L108.2468,613.6971 L112.9728,613.2015 L117.7116,613.1254 L122.4515,613.0845 L127.1836,612.7896 L127.1869,612.9745 L131.3156,612.7136 L135.4499,612.7687 L139.5751,612.3125 L143.714,612.6191 L147.8438,612.4185 L147.8456,612.6621 L151.8765,612.5848 L155.9084,612.6284 L159.9358,612.11 L163.9665,612.0036 L168,612.2622 L168,612.2622 L167.9979,611.986 L172.031,612.2673 L176.0618,612.2374 L180.0961,612.6588 L184.1244,612.3096 L188.1563,612.4185 L188.1535,612.266 L192.2901,612.5941 L196.415,612.2706 L200.5482,612.4104 L204.6896,613.0037 L208.8164,612.7896 L208.8223,612.9831 L213.5631,613.2604 L218.2855,612.9357 L223.0309,613.3649 L227.7713,613.63 L232.5,613.5122 L232.4908,613.3025 L234.9043,613.5756 L237.3148,613.7801 L239.7312,614.1195 L242.1245,613.9342 L244.5308,614.042 L244.5424,614.2473 L246.8474,613.9286 L249.1748,614.0061 L251.5351,614.6624 L253.835,614.2532 L256.1836,614.7036 L256.2003,614.9292 L258.3698,614.9568 L260.5336,614.9081 L262.7101,615.0317 L264.9163,615.5534 L267.0806,615.5117 L267.0674,615.3793 L269.0592,615.9673 L270.9616,615.655 L272.9656,616.3663 L274.9124,616.5013 L276.8438,616.481 L276.862,616.5883 L279.7699,616.9977 L282.7431,617.7915 L285.6574,618.2381 L288.547,618.5395 L291.457,618.9614 L291.518,619.0638 L292.536,619.5718 L293.8371,620.5553 L294.818,621.001 L295.9306,621.668 L297,622.2622 L295.3777,622.2622 L295.9194,632.0314 L298.4153,641.8007 L298.146,651.5699 L296.8855,661.3391 L296.1409,671.1084 L296.4162,680.8776 L295.1702,690.6468 L298.106,700.4161 L298.9722,710.1853 L298.4037,719.9545 L298.8532,729.7237 L296.6354,739.493 L297,749.2622 L297,749.2622 L297.0198,749.2955 L295.8033,749.7744 L294.8474,750.691 L293.7303,751.3369 L292.6912,752.1138 L291.457,752.563 L291.44,752.4624 L288.5244,753.0002 L285.6447,753.7495 L282.7313,754.2999 L279.7283,754.3228 L276.8438,755.0435 L276.8352,754.9577 L274.8977,755.3033 L272.9117,755.161 L271.0014,755.7813 L269.0445,755.933 L267.0806,756.0127 L267.0773,755.968 L264.9058,756.2374 L262.7457,756.6589 L260.5321,756.3589 L258.3733,756.7988 L256.1836,756.8208 L256.1908,756.9476 L253.8559,757.0045 L251.526,757.148 L249.1948,757.2681 L246.8456,757.0731 L244.5308,757.4824 L244.5229,757.3045 L242.1156,757.3835 L239.7197,757.7227 L237.314,757.8394 L234.9093,757.9781 L232.5,758.0122 L232.4961,757.8829 L227.7624,758.1267 L223.0249,758.2479 L218.2977,758.7021 L213.5589,758.7798 L208.8164,758.7349 L208.8125,758.5191 L204.6838,758.7767 L200.5477,758.6268 L196.4226,759.0857 L192.2931,759.3021 L188.1563,759.106 L188.1581,759.348 L184.1235,758.9436 L180.0953,759.3747 L176.0599,758.8696 L172.0319,759.3199 L168,759.2622 L168,759.2622 L167.999,759.1292 L163.9691,759.2739 L159.9383,759.3065 L155.9079,759.3783 L151.8725,758.8173 L147.8438,759.106 L147.8475,759.3172 L143.7131,759.1109 L139.5825,759.1154 L135.4536,759.2156 L131.3157,758.8115 L127.1836,758.7349 L127.186,758.8127 L122.4498,758.6852 L117.7128,758.5334 L112.9734,758.3009 L108.2464,758.4725 L103.5,758.0122 L103.4881,757.7415 L101.1049,758.1572 L98.6755,757.5232 L96.271,757.4544 L93.8762,757.6061 L91.4692,757.4824 L91.47,757.495 L89.1263,757.1314 L86.8185,757.4014 L84.4803,757.1338 L82.1653,757.2756 L79.8164,756.8208 L79.8383,757.1165 L77.6223,756.4605 L75.4445,756.3212 L73.274,756.2787 L71.1105,756.3319 L68.9194,756.0127 L68.9371,756.1909 L66.98,755.952 L64.9991,755.4738 L63.0895,755.7126 L61.1367,755.5176 L59.1563,755.0435 L59.1527,755.0227 L56.2158,754.4426 L53.2811,753.8754 L50.3723,753.4612 L47.4758,753.1193 L44.543,752.563 L44.5274,752.5369 L43.3394,751.7433 L42.4366,751.4288 L41.1128,750.4073 L40.2228,750.1142 L39,749.2622 L40.1393,749.2622 L39.9916,739.493 L40.8467,729.7237 L38.3443,719.9545 L38.1983,710.1853 L40.3837,700.4161 L37.4083,690.6468 L38.376,680.8776 L39.308,671.1084 L39.1832,661.3391 L38.0441,651.5699 L38.8854,641.8007 L40.9856,632.0314 L39,622.2622 " fill="none" style="stroke:#181818;stroke-width:4.0;"/><path d="M39,622.2622 L39,622.2622 L39.0478,622.3425 L40.0144,622.7642 L41.2611,623.6563 L42.4167,624.3953 L43.2722,624.6304 L44.543,625.563 L44.5372,625.5289 L47.4339,625.8722 L50.3598,626.3871 L53.3059,627.0214 L56.1822,627.2444 L59.1563,628.0435 L59.1806,628.2883 L61.0812,627.9586 L63.0528,628.3437 L65.0331,628.816 L66.963,628.7809 L68.9194,629.0127 L68.9217,629.0429 L71.0978,629.1602 L73.2841,629.4151 L75.4655,629.6036 L77.6563,629.9188 L79.8164,629.8208 L79.8333,630.1186 L82.1641,630.2545 L84.484,630.1984 L86.8198,630.4235 L89.1564,630.6617 L91.4692,630.4824 L91.4551,630.1622 L93.8887,630.8897 L96.2757,630.5627 L98.6981,631.0373 L101.0842,630.6865 L103.5,631.0122 L103.4991,630.9818 L108.2468,631.4862 L112.9728,631.2796 L117.7116,631.4926 L122.4515,631.7408 L127.1836,631.7349 L127.1869,631.9198 L131.3156,631.8074 L135.4499,632.0109 L139.5751,631.7032 L143.714,632.1581 L147.8438,632.106 L147.8456,632.3496 L151.8765,632.3348 L155.9084,632.4409 L159.9358,631.985 L163.9665,631.9411 L168,632.2622 L168,632.2622 L167.9979,631.986 L172.031,632.2048 L176.0618,632.1124 L180.0961,632.4713 L184.1244,632.0596 L188.1563,632.106 L188.1535,631.9535 L192.2901,632.1332 L196.415,631.6612 L200.5482,631.6526 L204.6896,632.0975 L208.8164,631.7349 L208.8223,631.9284 L213.5631,631.9166 L218.2855,631.3029 L223.0309,631.4431 L227.7713,631.419 L232.5,631.0122 L232.4908,630.8025 L234.9043,630.8637 L237.3148,630.8562 L239.7312,630.9837 L242.1245,630.5865 L244.5308,630.4824 L244.5424,630.6877 L246.8474,630.1044 L249.1748,629.9173 L251.5351,630.3089 L253.835,629.635 L256.1836,629.8208 L256.2003,630.0464 L258.3698,629.7508 L260.5336,629.3788 L262.7101,629.1791 L264.9163,629.3777 L267.0806,629.0127 L267.0674,628.8803 L269.0592,629.0806 L270.9616,628.3805 L272.9656,628.7042 L274.9124,628.4515 L276.8438,628.0435 L276.862,628.1508 L279.7699,627.5681 L282.7431,627.3697 L285.6574,626.824 L288.547,626.1332 L291.457,625.563 L291.518,625.6654 L292.536,624.8531 L293.8371,624.5163 L294.818,623.6417 L295.9306,622.9883 L297,622.2622 " fill="none" style="stroke:#181818;stroke-width:4.0;"/><text fill="#000000" font-family="Chalkduster" font-size="24" font-weight="bold" lengthAdjust="spacing" textLength="129" x="103.5" y="658.1031">Storage 3</text></g><!--entity api1--><g id="elem_api1"><polygon fill="none" points="408,506.2622,408,506.4724,418.6667,505.8479,429.3333,506.4555,440,506.6619,450.6667,505.5488,461.3333,506.1845,472,506.2622,471.9456,506.1309,472.3046,506.2906,472.6984,506.5341,472.9725,506.4886,473.4848,507.0185,473.7678,506.9944,473.5737,506.914,473.8533,507.3228,474.1937,507.7567,474.1807,508.0442,474.3746,508.4174,474.5,508.7622,474.4681,508.7622,474.6785,517.8882,474.7391,527.0141,475.0857,536.1401,475.1711,545.2661,474.5,554.392,474.7092,554.4787,474.432,554.7781,474.3499,555.1583,474.2769,555.5423,473.6921,555.7143,473.7678,556.1598,473.8543,556.3688,473.3764,556.2149,473.1288,556.6171,472.644,556.4467,472.3448,556.7245,472,556.892,472,557.6336,461.3333,556.8433,450.6667,556.9973,440,557.2307,429.3333,557.3083,418.6667,556.8881,408,556.892,408.0366,556.9805,407.5734,556.5693,407.3292,556.6867,407.0093,556.6215,406.6425,556.4432,406.2322,556.1598,406.421,556.238,405.937,555.7446,405.7385,555.3695,405.6015,555.0199,405.6283,554.7381,405.5,554.392,405.3035,554.392,406.1814,545.2661,405.3253,536.1401,405.1569,527.0141,405.7283,517.8882,405.5,508.7622,405.2946,508.6771,405.4866,508.3424,405.9927,508.1379,406.0735,507.7571,406.312,507.4417,406.2322,506.9944,406.1912,506.8953,406.6265,506.9463,407.0147,506.8834,407.2326,506.4096,407.6342,506.3791,408,506.2622" style="stroke:#181818;stroke-width:4.0;"/><text fill="#000000" font-family="Chalkduster" font-size="24" lengthAdjust="spacing" textLength="49" x="415.5" y="540.1031">API</text></g><!--entity api2--><g id="elem_api2"><polygon fill="none" points="69,506.2622,69,506.4724,79.6667,505.8479,90.3333,506.4555,101,506.6619,111.6667,505.5488,122.3333,506.1845,133,506.2622,132.9456,506.1309,133.3046,506.2906,133.6984,506.5341,133.9725,506.4886,134.4848,507.0185,134.7678,506.9944,134.5737,506.914,134.8533,507.3228,135.1937,507.7567,135.1807,508.0442,135.3746,508.4174,135.5,508.7622,135.4681,508.7622,135.6785,517.8882,135.7391,527.0141,136.0857,536.1401,136.1711,545.2661,135.5,554.392,135.7092,554.4787,135.432,554.7781,135.3499,555.1583,135.2769,555.5423,134.6921,555.7143,134.7678,556.1598,134.8543,556.3688,134.3764,556.2149,134.1288,556.6171,133.644,556.4467,133.3448,556.7245,133,556.892,133,557.6336,122.3333,556.8433,111.6667,556.9973,101,557.2307,90.3333,557.3083,79.6667,556.8881,69,556.892,69.0366,556.9805,68.5734,556.5693,68.3292,556.6867,68.0093,556.6215,67.6425,556.4432,67.2322,556.1598,67.421,556.238,66.937,555.7446,66.7385,555.3695,66.6015,555.0199,66.6283,554.7381,66.5,554.392,66.3035,554.392,67.1814,545.2661,66.3253,536.1401,66.1569,527.0141,66.7283,517.8882,66.5,508.7622,66.2946,508.6771,66.4866,508.3424,66.9927,508.1379,67.0735,507.7571,67.312,507.4417,67.2322,506.9944,67.1912,506.8953,67.6265,506.9463,68.0147,506.8834,68.2326,506.4096,68.6342,506.3791,69,506.2622" style="stroke:#181818;stroke-width:4.0;"/><text fill="#000000" font-family="Chalkduster" font-size="24" lengthAdjust="spacing" textLength="49" x="76.5" y="540.1031">API</text></g><!--entity i1--><g id="elem_i1"><path d="M546.5,285.2622 L546.5,285.2622 L546.5525,285.3395 L548.0997,283.9536 L549.9545,283.0208 L551.7092,281.9404 L553.1344,280.3749 L555.0156,279.481 L555.0102,279.4468 L558.7328,278.7 L562.4827,278.1251 L566.2515,277.6698 L569.955,276.8025 L573.75,276.5122 L573.7643,276.7579 L577.4805,276.0138 L581.2386,275.987 L585.0018,276.0476 L588.7353,275.5992 L592.4844,275.4185 L592.4849,275.4488 L594.1872,275.373 L595.8921,275.4353 L597.5957,275.431 L599.3017,275.5537 L601,275.2622 L601,275.2622 L601.0055,275.5604 L602.7087,275.5953 L604.4083,275.4379 L606.1132,275.562 L607.8182,275.6993 L609.5156,275.4185 L609.4969,275.0985 L613.2801,275.9383 L617.0017,275.7244 L620.7701,276.3116 L624.4903,276.0738 L628.25,276.5122 L628.2452,276.4821 L632.0485,277.4315 L635.7404,277.6783 L639.4979,278.3397 L643.2611,279.0359 L646.9844,279.481 L647.0883,279.634 L648.6865,280.6358 L650.4623,281.8991 L651.9509,282.7392 L653.8679,284.2105 L655.5,285.2622 L656.9619,285.2622 L656.6854,295.2993 L657.1347,305.3364 L654.2118,315.3735 L653.7608,325.4106 L653.8429,335.4477 L655.343,345.4848 L655.5,355.5219 L655.5,355.5219 L655.4509,355.4496 L653.967,356.9287 L652.0501,357.7701 L650.305,358.8645 L648.7445,360.2308 L646.9844,361.3031 L646.938,361.0104 L643.2014,361.669 L639.5358,362.7755 L635.7741,363.2756 L632.048,364.0005 L628.25,364.2719 L628.2417,364.1291 L624.5114,364.6323 L620.7715,364.9713 L616.9971,364.7185 L613.26,365.1043 L609.5156,365.3656 L609.5167,365.4216 L607.8178,365.6865 L606.1093,365.4263 L604.41,365.6649 L602.6986,365.2445 L601,365.5219 L601,365.5219 L600.9945,365.2209 L599.301,365.7144 L597.5879,365.1408 L595.8948,365.6543 L594.1892,365.4887 L592.4844,365.3656 L592.4774,365.2468 L588.7283,364.9899 L585.0025,365.1317 L581.236,364.5766 L577.5122,364.7532 L573.75,364.2719 L573.7116,364.0292 L570.0461,363.9492 L566.2899,363.297 L562.5264,362.5982 L558.7658,361.9176 L555.0156,361.3031 L555.197,361.5703 L553.4657,360.3725 L551.6516,359.0529 L549.9732,357.933 L548.1706,356.6302 L546.5,355.5219 L548.4105,355.5219 L546.913,345.4848 L546.9602,335.4477 L544.8777,325.4106 L545.4194,315.3735 L547.9153,305.3364 L547.646,295.2993 L546.5,285.2622 " fill="none" style="stroke:#181818;stroke-width:4.0;"/><path d="M546.5,285.2622 L546.5,285.2622 L546.5525,285.3395 L548.0997,286.2661 L549.9545,287.6458 L551.7092,288.8779 L553.1344,289.6249 L555.0156,291.0435 L555.0102,291.0093 L558.7328,291.45 L562.4827,292.0626 L566.2515,292.7948 L569.955,293.115 L573.75,294.0122 L573.7643,294.2579 L577.4805,293.9513 L581.2386,294.362 L585.0018,294.8601 L588.7353,294.8492 L592.4844,295.106 L592.4849,295.1363 L594.1872,295.123 L595.8921,295.2478 L597.5957,295.306 L599.3017,295.4912 L601,295.2622 L601,295.2622 L601.0055,295.5604 L602.7087,295.5328 L604.4083,295.3129 L606.1132,295.3745 L607.8182,295.4493 L609.5156,295.106 L609.4969,294.786 L613.2801,295.1883 L617.0017,294.5369 L620.7701,294.6866 L624.4903,294.0113 L628.25,294.0122 L628.2452,293.9821 L632.0485,293.744 L635.7404,292.8033 L639.4979,292.2772 L643.2611,291.7859 L646.9844,291.0435 L647.0883,291.1965 L648.6865,289.8858 L650.4623,288.8366 L651.9509,287.3642 L653.8679,286.523 L655.5,285.2622 " fill="none" style="stroke:#181818;stroke-width:4.0;"/><text fill="#000000" font-family="Chalkduster" font-size="24" lengthAdjust="spacing" textLength="89" x="556.5" y="323.1031">Index:</text><text fill="#000000" font-family="Chalkduster" font-size="24" lengthAdjust="spacing" textLength="35" x="568.5" y="353.7329">1,2</text></g><!--entity i2--><g id="elem_i2"><path d="M313,285.2622 L313,285.2622 L313.0479,285.3424 L314.8431,283.9478 L316.919,283.0235 L318.9035,281.946 L320.5875,280.3649 L322.6875,279.481 L322.6814,279.447 L324.64,278.9389 L326.6293,278.6022 L328.64,278.3847 L330.5771,277.7566 L332.6172,277.7036 L332.6428,277.9483 L334.8646,277.1867 L337.1612,277.1396 L339.4669,277.1797 L341.7195,276.7126 L344,276.5122 L344.0019,276.5425 L346.2757,276.3535 L348.5582,276.3023 L350.8364,276.1847 L353.1227,276.1939 L355.3828,275.7896 L355.394,276.0876 L357.38,276.017 L359.3589,275.7542 L361.3483,275.7728 L363.3382,275.8046 L365.3125,275.4185 L365.3073,275.098 L367.2549,275.6887 L369.1854,275.2242 L371.1288,275.5619 L373.059,275.0735 L375,275.2622 L375,275.2622 L374.9995,275.2318 L376.9428,275.623 L378.8747,275.3031 L380.8133,275.4028 L382.7524,275.5377 L384.6875,275.4185 L384.6944,275.6033 L386.6734,275.4909 L388.6641,275.6945 L390.6358,275.3869 L392.636,275.8416 L394.6172,275.7896 L394.6326,276.0327 L396.9063,276.1313 L399.1876,276.3505 L401.4333,276.0089 L403.7051,276.0784 L406,276.5122 L405.9713,276.2375 L408.2738,276.7245 L410.544,276.9019 L412.8612,277.5283 L415.0982,277.3881 L417.3828,277.7036 L417.3559,277.5535 L419.3866,278.159 L421.3025,278.1228 L423.3,278.5429 L425.3774,279.4094 L427.3125,279.481 L427.4117,279.6472 L429.4173,280.9175 L431.1142,281.6706 L433.1977,283.0715 L435.197,284.3313 L437,285.2622 L435.7403,285.2622 L436.7444,295.2993 L437.336,305.3364 L438.738,315.3735 L436.9888,325.4106 L438.2335,335.4477 L435.5232,345.4848 L437,355.5219 L437,355.5219 L436.8457,355.2634 L435.1772,356.8703 L432.9617,357.5608 L431.3034,359.1849 L429.2971,360.2257 L427.3125,361.3031 L427.2915,361.1859 L425.2989,361.5038 L423.3765,362.2148 L421.3312,362.2386 L419.4151,362.9839 L417.3828,363.0805 L417.3572,362.8361 L415.1348,363.5917 L412.8521,363.7711 L410.5645,363.9036 L408.2787,364.0545 L406,364.2719 L406.0205,364.5942 L403.7407,364.6886 L401.4516,364.636 L399.1779,364.8244 L396.8901,364.7922 L394.6172,364.9945 L394.6291,365.3127 L392.6338,365.1375 L390.6482,365.2196 L388.6493,364.947 L386.6667,365.1114 L384.6875,365.3656 L384.6913,365.6015 L382.7531,365.5879 L380.8122,365.409 L378.8727,365.3162 L376.9359,365.3933 L375,365.5219 L375,365.5219 L374.9951,365.217 L373.0655,365.6749 L371.1303,365.788 L369.1913,365.6621 L367.255,365.7057 L365.3125,365.3656 L365.3102,365.3049 L363.328,365.3301 L361.3342,365.045 L359.3594,365.2691 L357.3728,365.1783 L355.3828,364.9945 L355.3984,365.2395 L353.0998,364.7481 L350.8259,364.6459 L348.5656,364.7576 L346.2925,364.6681 L344,364.2719 L343.9763,364.0453 L341.7145,363.9479 L339.4538,363.8613 L337.1421,363.287 L334.9101,363.475 L332.6172,363.0805 L332.6374,363.1933 L330.6234,362.6809 L328.6565,362.4318 L326.7164,362.3329 L324.6489,361.5217 L322.6875,361.3031 L322.7592,361.4233 L320.8151,360.2559 L318.8389,359.0348 L316.9071,357.8882 L314.9633,356.7214 L313,355.5219 L311.3356,355.5219 L311.9312,345.4848 L311.7692,335.4477 L313.1702,325.4106 L313.235,315.3735 L313.4313,305.3364 L312.2241,295.2993 L313,285.2622 " fill="none" style="stroke:#181818;stroke-width:4.0;"/><path d="M313,285.2622 L313,285.2622 L313.0479,285.3424 L314.8431,286.2603 L316.919,287.6485 L318.9035,288.8835 L320.5875,289.6149 L322.6875,291.0435 L322.6814,291.0095 L324.64,291.2123 L326.6293,291.5866 L328.64,292.08 L330.5771,292.1629 L332.6172,292.8208 L332.6428,293.0655 L334.8646,292.7805 L337.1612,293.2099 L339.4669,293.7266 L341.7195,293.736 L344,294.0122 L344.0019,294.0425 L346.2757,294.1426 L348.5582,294.3805 L350.8364,294.5519 L353.1227,294.8501 L355.3828,294.7349 L355.394,295.0329 L357.38,295.1108 L359.3589,294.9964 L361.3483,295.1634 L363.3382,295.3436 L365.3125,295.106 L365.3073,294.7855 L367.2549,295.4387 L369.1854,295.0367 L371.1288,295.4369 L373.059,295.011 L375,295.2622 L375,295.2622 L374.9995,295.2318 L376.9428,295.5605 L378.8747,295.1781 L380.8133,295.2153 L382.7524,295.2877 L384.6875,295.106 L384.6944,295.2908 L386.6734,295.03 L388.6641,295.0851 L390.6358,294.6291 L392.636,294.9354 L394.6172,294.7349 L394.6326,294.978 L396.9063,294.7875 L399.1876,294.7177 L401.4333,294.087 L403.7051,293.8675 L406,294.0122 L405.9713,293.7375 L408.2738,293.7479 L410.544,293.4488 L412.8612,293.5986 L415.0982,292.9819 L417.3828,292.8208 L417.3559,292.6707 L419.3866,292.5652 L421.3025,291.8181 L423.3,291.5273 L425.3774,291.6828 L427.3125,291.0435 L427.4117,291.2097 L429.4173,290.1675 L431.1142,288.6081 L433.1977,287.6965 L435.197,286.6438 L437,285.2622 " fill="none" style="stroke:#181818;stroke-width:4.0;"/><text fill="#000000" font-family="Chalkduster" font-size="24" lengthAdjust="spacing" textLength="89" x="323" y="323.1031">Index:</text><text fill="#000000" font-family="Chalkduster" font-size="24" lengthAdjust="spacing" textLength="92" x="335" y="353.7329">1,2,3 4</text></g><!--entity i3--><g id="elem_i3"><path d="M82,285.2622 L82,285.2622 L82.0479,285.3424 L83.8431,283.9478 L85.919,283.0235 L87.9035,281.946 L89.5875,280.3649 L91.6875,279.481 L91.6814,279.447 L93.64,278.9389 L95.6293,278.6022 L97.64,278.3847 L99.5771,277.7566 L101.6172,277.7036 L101.6428,277.9483 L103.8646,277.1867 L106.1612,277.1396 L108.4669,277.1797 L110.7195,276.7126 L113,276.5122 L113.0019,276.5425 L115.2757,276.3535 L117.5582,276.3023 L119.8364,276.1847 L122.1227,276.1939 L124.3828,275.7896 L124.394,276.0876 L126.38,276.017 L128.3589,275.7542 L130.3483,275.7728 L132.3382,275.8046 L134.3125,275.4185 L134.3073,275.098 L136.2549,275.6887 L138.1854,275.2242 L140.1288,275.5619 L142.059,275.0735 L144,275.2622 L144,275.2622 L143.9995,275.2318 L145.9428,275.623 L147.8747,275.3031 L149.8133,275.4028 L151.7524,275.5377 L153.6875,275.4185 L153.6944,275.6033 L155.6734,275.4909 L157.6641,275.6945 L159.6358,275.3869 L161.636,275.8416 L163.6172,275.7896 L163.6326,276.0327 L165.9063,276.1313 L168.1876,276.3505 L170.4333,276.0089 L172.7051,276.0784 L175,276.5122 L174.9713,276.2375 L177.2738,276.7245 L179.544,276.9019 L181.8612,277.5283 L184.0982,277.3881 L186.3828,277.7036 L186.3559,277.5535 L188.3866,278.159 L190.3025,278.1228 L192.3,278.5429 L194.3774,279.4094 L196.3125,279.481 L196.4117,279.6472 L198.4173,280.9175 L200.1142,281.6706 L202.1977,283.0715 L204.197,284.3313 L206,285.2622 L204.7403,285.2622 L205.7444,295.2993 L206.336,305.3364 L207.738,315.3735 L205.9888,325.4106 L207.2335,335.4477 L204.5232,345.4848 L206,355.5219 L206,355.5219 L205.8457,355.2634 L204.1772,356.8703 L201.9617,357.5608 L200.3034,359.1849 L198.2971,360.2257 L196.3125,361.3031 L196.2915,361.1859 L194.2989,361.5038 L192.3765,362.2148 L190.3312,362.2386 L188.4151,362.9839 L186.3828,363.0805 L186.3572,362.8361 L184.1348,363.5917 L181.8521,363.7711 L179.5645,363.9036 L177.2787,364.0545 L175,364.2719 L175.0205,364.5942 L172.7407,364.6886 L170.4516,364.636 L168.1779,364.8244 L165.8901,364.7922 L163.6172,364.9945 L163.6291,365.3127 L161.6338,365.1375 L159.6482,365.2196 L157.6493,364.947 L155.6667,365.1114 L153.6875,365.3656 L153.6913,365.6015 L151.7531,365.5879 L149.8122,365.409 L147.8727,365.3162 L145.9359,365.3933 L144,365.5219 L144,365.5219 L143.9951,365.217 L142.0655,365.6749 L140.1303,365.788 L138.1913,365.6621 L136.255,365.7057 L134.3125,365.3656 L134.3102,365.3049 L132.328,365.3301 L130.3342,365.045 L128.3594,365.2691 L126.3728,365.1783 L124.3828,364.9945 L124.3984,365.2395 L122.0998,364.7481 L119.8259,364.6459 L117.5656,364.7576 L115.2925,364.6681 L113,364.2719 L112.9763,364.0453 L110.7145,363.9479 L108.4538,363.8613 L106.1421,363.287 L103.9101,363.475 L101.6172,363.0805 L101.6374,363.1933 L99.6234,362.6809 L97.6565,362.4318 L95.7164,362.3329 L93.6489,361.5217 L91.6875,361.3031 L91.7592,361.4233 L89.8151,360.2559 L87.8389,359.0348 L85.9071,357.8882 L83.9633,356.7214 L82,355.5219 L80.3356,355.5219 L80.9312,345.4848 L80.7692,335.4477 L82.1702,325.4106 L82.235,315.3735 L82.4313,305.3364 L81.2241,295.2993 L82,285.2622 " fill="none" style="stroke:#181818;stroke-width:4.0;"/><path d="M82,285.2622 L82,285.2622 L82.0479,285.3424 L83.8431,286.2603 L85.919,287.6485 L87.9035,288.8835 L89.5875,289.6149 L91.6875,291.0435 L91.6814,291.0095 L93.64,291.2123 L95.6293,291.5866 L97.64,292.08 L99.5771,292.1629 L101.6172,292.8208 L101.6428,293.0655 L103.8646,292.7805 L106.1612,293.2099 L108.4669,293.7266 L110.7195,293.736 L113,294.0122 L113.0019,294.0425 L115.2757,294.1426 L117.5582,294.3805 L119.8364,294.5519 L122.1227,294.8501 L124.3828,294.7349 L124.394,295.0329 L126.38,295.1108 L128.3589,294.9964 L130.3483,295.1634 L132.3382,295.3436 L134.3125,295.106 L134.3073,294.7855 L136.2549,295.4387 L138.1854,295.0367 L140.1288,295.4369 L142.059,295.011 L144,295.2622 L144,295.2622 L143.9995,295.2318 L145.9428,295.5605 L147.8747,295.1781 L149.8133,295.2153 L151.7524,295.2877 L153.6875,295.106 L153.6944,295.2908 L155.6734,295.03 L157.6641,295.0851 L159.6358,294.6291 L161.636,294.9354 L163.6172,294.7349 L163.6326,294.978 L165.9063,294.7875 L168.1876,294.7177 L170.4333,294.087 L172.7051,293.8675 L175,294.0122 L174.9713,293.7375 L177.2738,293.7479 L179.544,293.4488 L181.8612,293.5986 L184.0982,292.9819 L186.3828,292.8208 L186.3559,292.6707 L188.3866,292.5652 L190.3025,291.8181 L192.3,291.5273 L194.3774,291.6828 L196.3125,291.0435 L196.4117,291.2097 L198.4173,290.1675 L200.1142,288.6081 L202.1977,287.6965 L204.197,286.6438 L206,285.2622 " fill="none" style="stroke:#181818;stroke-width:4.0;"/><text fill="#000000" font-family="Chalkduster" font-size="24" lengthAdjust="spacing" textLength="89" x="92" y="323.1031">Index:</text><text fill="#000000" font-family="Chalkduster" font-size="24" lengthAdjust="spacing" textLength="92" x="104" y="353.7329">1,2,3 4</text></g><!--entity Obj1--><g id="elem_Obj1"><polygon fill="none" points="493,684.2622,493,684.4724,503.2857,683.8479,513.5714,684.4555,523.8571,684.6619,534.1429,683.5488,544.4286,684.1845,554.7143,683.8357,565,684.2622,564.9511,684.1441,565.3449,684.3877,565.6189,684.3422,566.1313,684.8721,566.3338,684.6539,566.7678,684.9944,566.7069,684.9692,567.0472,685.4031,567.0342,685.6906,567.2281,686.0638,567.3437,686.4046,567.5,686.7622,567.6785,686.7622,567.7391,695.8882,568.0857,705.0141,568.1711,714.1401,568.1793,723.2661,567.5,732.392,567.5784,732.4245,567.4963,732.8047,567.4234,733.1887,566.8386,733.3607,567.1232,733.8928,566.7678,734.1598,566.7299,734.0685,566.4823,734.4707,565.9975,734.3003,565.6984,734.5781,565.4482,734.974,565,734.892,565,734.8433,554.7143,734.9973,544.4286,735.2307,534.1429,735.3083,523.8571,734.8881,513.5714,735.1793,503.2857,734.3196,493,734.892,493.0363,734.9796,492.7164,734.9144,492.3496,734.736,492.0175,734.6415,491.5242,734.1575,491.2322,734.1598,491.0314,734.0766,490.8944,733.727,490.9212,733.4452,490.7324,733.0741,490.8563,732.8325,490.5,732.392,490.3253,732.392,490.1569,723.2661,490.7283,714.1401,489.8332,705.0141,489.9809,695.8882,490.5,686.7622,490.6999,686.845,490.7806,686.4642,491.0191,686.1488,490.8402,685.6605,491.1841,685.3887,491.2322,684.9944,491.3075,685.1763,491.5255,684.7025,491.9271,684.672,492.309,684.5939,492.7296,684.6094,493,684.2622" style="stroke:#181818;stroke-width:4.0;"/><text fill="#000000" font-family="Chalkduster" font-size="24" lengthAdjust="spacing" textLength="57" x="500.5" y="718.1031">Obj1</text></g><!--entity Obj2--><g id="elem_Obj2"><polygon fill="none" points="383,684.2622,383,684.4724,393,683.8479,403,684.4555,413,684.6619,423,683.5488,433,684.1845,443,683.8357,453,684.2622,452.9511,684.1441,453.3449,684.3877,453.6189,684.3422,454.1313,684.8721,454.3338,684.6539,454.7678,684.9944,454.7069,684.9692,455.0472,685.4031,455.0342,685.6906,455.2281,686.0638,455.3437,686.4046,455.5,686.7622,455.6785,686.7622,455.7391,695.8882,456.0857,705.0141,456.1711,714.1401,456.1793,723.2661,455.5,732.392,455.5784,732.4245,455.4963,732.8047,455.4234,733.1887,454.8386,733.3607,455.1232,733.8928,454.7678,734.1598,454.7299,734.0685,454.4823,734.4707,453.9975,734.3003,453.6984,734.5781,453.4482,734.974,453,734.892,453,734.8433,443,734.9973,433,735.2307,423,735.3083,413,734.8881,403,735.1793,393,734.3196,383,734.892,383.0363,734.9796,382.7164,734.9144,382.3496,734.736,382.0175,734.6415,381.5242,734.1575,381.2322,734.1598,381.0314,734.0766,380.8944,733.727,380.9212,733.4452,380.7324,733.0741,380.8563,732.8325,380.5,732.392,380.3253,732.392,380.1569,723.2661,380.7283,714.1401,379.8332,705.0141,379.9809,695.8882,380.5,686.7622,380.6999,686.845,380.7806,686.4642,381.0191,686.1488,380.8402,685.6605,381.1841,685.3887,381.2322,684.9944,381.3075,685.1763,381.5255,684.7025,381.9271,684.672,382.309,684.5939,382.7296,684.6094,383,684.2622" style="stroke:#181818;stroke-width:4.0;"/><text fill="#000000" font-family="Chalkduster" font-size="24" lengthAdjust="spacing" textLength="55" x="390.5" y="718.1031">Obj2</text></g><!--entity Obj3--><g id="elem_Obj3"><polygon fill="none" points="796.5,684.2622,796.5,684.4724,806.9286,683.8479,817.3571,684.4555,827.7857,684.6619,838.2143,683.5488,848.6429,684.1845,859.0714,683.8357,869.5,684.2622,869.4511,684.1441,869.8449,684.3877,870.1189,684.3422,870.6313,684.8721,870.8338,684.6539,871.2678,684.9944,871.2069,684.9692,871.5472,685.4031,871.5342,685.6906,871.7281,686.0638,871.8437,686.4046,872,686.7622,872.1785,686.7622,872.2391,695.8882,872.5857,705.0141,872.6711,714.1401,872.6793,723.2661,872,732.392,872.0784,732.4245,871.9963,732.8047,871.9234,733.1887,871.3386,733.3607,871.6232,733.8928,871.2678,734.1598,871.2299,734.0685,870.9823,734.4707,870.4975,734.3003,870.1984,734.5781,869.9482,734.974,869.5,734.892,869.5,734.8433,859.0714,734.9973,848.6429,735.2307,838.2143,735.3083,827.7857,734.8881,817.3571,735.1793,806.9286,734.3196,796.5,734.892,796.5363,734.9796,796.2164,734.9144,795.8496,734.736,795.5175,734.6415,795.0242,734.1575,794.7322,734.1598,794.5314,734.0766,794.3944,733.727,794.4212,733.4452,794.2324,733.0741,794.3563,732.8325,794,732.392,793.8253,732.392,793.6569,723.2661,794.2283,714.1401,793.3332,705.0141,793.4809,695.8882,794,686.7622,794.1999,686.845,794.2806,686.4642,794.5191,686.1488,794.3402,685.6605,794.6841,685.3887,794.7322,684.9944,794.8075,685.1763,795.0255,684.7025,795.4271,684.672,795.809,684.5939,796.2296,684.6094,796.5,684.2622" style="stroke:#181818;stroke-width:4.0;"/><text fill="#000000" font-family="Chalkduster" font-size="24" lengthAdjust="spacing" textLength="58" x="804" y="718.1031">Obj3</text></g><!--entity Obj4--><g id="elem_Obj4"><polygon fill="none" points="677.5,684.2622,677.5,684.4724,687.375,683.8479,697.25,684.4555,707.125,684.6619,717,683.5488,726.875,684.1845,736.75,683.8357,746.625,683.8787,756.5,684.2622,756.4913,684.2412,756.7654,684.1957,757.2777,684.7256,757.4803,684.5074,757.889,684.7871,758.2678,684.9944,758.4008,685.0495,758.3878,685.3371,758.5817,685.7103,758.6973,686.051,758.9085,686.4314,759,686.7622,759.2391,686.7622,759.5857,695.8882,759.6711,705.0141,759.6793,714.1401,759.2546,723.2661,759,732.392,759.1428,732.4512,759.0698,732.8352,758.485,733.0072,758.7696,733.5393,758.3229,733.7684,758.2678,734.1598,758.3359,734.3242,757.8511,734.1538,757.5519,734.4316,757.3017,734.8275,756.8473,734.7306,756.5,734.892,756.5,734.9973,746.625,735.2307,736.75,735.3083,726.875,734.8881,717,735.1793,707.125,734.3196,697.25,735.1764,687.375,735.4402,677.5,734.892,677.5567,735.0289,677.2246,734.9344,676.7313,734.4504,676.3561,734.2519,676.0065,734.1149,675.7322,734.1598,675.7141,734.1523,675.5253,733.7812,675.6492,733.5396,675.2391,733.0769,675.0408,732.7018,675,732.392,675.2283,732.392,674.3332,723.2661,674.4809,714.1401,675.649,705.0141,675.4357,695.8882,675,686.7622,675.2262,686.8559,675.0473,686.3676,675.3912,686.0958,675.6212,685.7769,675.4403,685.2877,675.7322,684.9944,675.72,684.9649,676.1019,684.8868,676.5225,684.9023,676.7924,684.5538,677.2055,684.5511,677.5,684.2622" style="stroke:#181818;stroke-width:4.0;"/><text fill="#000000" font-family="Chalkduster" font-size="24" lengthAdjust="spacing" textLength="64" x="685" y="718.1031">Obj4</text></g><!--entity Obj5--><g id="elem_Obj5"><polygon fill="none" points="198,684.2622,198,684.4724,208.2857,683.8479,218.5714,684.4555,228.8571,684.6619,239.1429,683.5488,249.4286,684.1845,259.7143,683.8357,270,684.2622,269.9511,684.1441,270.3449,684.3877,270.6189,684.3422,271.1313,684.8721,271.3338,684.6539,271.7678,684.9944,271.7069,684.9692,272.0472,685.4031,272.0342,685.6906,272.2281,686.0638,272.3437,686.4046,272.5,686.7622,272.6785,686.7622,272.7391,695.8882,273.0857,705.0141,273.1711,714.1401,273.1793,723.2661,272.5,732.392,272.5784,732.4245,272.4963,732.8047,272.4234,733.1887,271.8386,733.3607,272.1232,733.8928,271.7678,734.1598,271.7299,734.0685,271.4823,734.4707,270.9975,734.3003,270.6984,734.5781,270.4482,734.974,270,734.892,270,734.8433,259.7143,734.9973,249.4286,735.2307,239.1429,735.3083,228.8571,734.8881,218.5714,735.1793,208.2857,734.3196,198,734.892,198.0363,734.9796,197.7164,734.9144,197.3496,734.736,197.0175,734.6415,196.5242,734.1575,196.2322,734.1598,196.0314,734.0766,195.8944,733.727,195.9212,733.4452,195.7324,733.0741,195.8563,732.8325,195.5,732.392,195.3253,732.392,195.1569,723.2661,195.7283,714.1401,194.8332,705.0141,194.9809,695.8882,195.5,686.7622,195.6999,686.845,195.7806,686.4642,196.0191,686.1488,195.8402,685.6605,196.1841,685.3887,196.2322,684.9944,196.3075,685.1763,196.5255,684.7025,196.9271,684.672,197.309,684.5939,197.7296,684.6094,198,684.2622" style="stroke:#181818;stroke-width:4.0;"/><text fill="#000000" font-family="Chalkduster" font-size="24" lengthAdjust="spacing" textLength="57" x="205.5" y="718.1031">Obj5</text></g><!--entity Obj6--><g id="elem_Obj6"><polygon fill="none" points="84.5,684.2622,84.5,684.4724,94.9286,683.8479,105.3571,684.4555,115.7857,684.6619,126.2143,683.5488,136.6429,684.1845,147.0714,683.8357,157.5,684.2622,157.4511,684.1441,157.8449,684.3877,158.1189,684.3422,158.6313,684.8721,158.8338,684.6539,159.2678,684.9944,159.2069,684.9692,159.5472,685.4031,159.5342,685.6906,159.7281,686.0638,159.8437,686.4046,160,686.7622,160.1785,686.7622,160.2391,695.8882,160.5857,705.0141,160.6711,714.1401,160.6793,723.2661,160,732.392,160.0784,732.4245,159.9963,732.8047,159.9234,733.1887,159.3386,733.3607,159.6232,733.8928,159.2678,734.1598,159.2299,734.0685,158.9823,734.4707,158.4975,734.3003,158.1984,734.5781,157.9482,734.974,157.5,734.892,157.5,734.8433,147.0714,734.9973,136.6429,735.2307,126.2143,735.3083,115.7857,734.8881,105.3571,735.1793,94.9286,734.3196,84.5,734.892,84.5363,734.9796,84.2164,734.9144,83.8496,734.736,83.5175,734.6415,83.0242,734.1575,82.7322,734.1598,82.5314,734.0766,82.3944,733.727,82.4212,733.4452,82.2324,733.0741,82.3563,732.8325,82,732.392,81.8253,732.392,81.6569,723.2661,82.2283,714.1401,81.3332,705.0141,81.4809,695.8882,82,686.7622,82.1999,686.845,82.2806,686.4642,82.5191,686.1488,82.3402,685.6605,82.6841,685.3887,82.7322,684.9944,82.8075,685.1763,83.0255,684.7025,83.4271,684.672,83.809,684.5939,84.2296,684.6094,84.5,684.2622" style="stroke:#181818;stroke-width:4.0;"/><text fill="#000000" font-family="Chalkduster" font-size="24" lengthAdjust="spacing" textLength="58" x="92" y="718.1031">Obj6</text></g><!--link p1 to p2--><!--link p2 to p3--><!--link api1 to stor1--><g id="link_api1_stor1"><path d="M400.23,557.4122 L400.2891,557.4845 L398.0846,558.9284 L396.2267,560.7962 L394.256,562.5259 L391.9141,563.8016 L390.0859,565.7058 L390.0621,565.6808 L388.0026,567.4265 L386.0631,569.2984 L384.207,571.258 L382.0634,572.9153 L380.3225,574.996 L380.5083,575.1573 L378.3376,576.8544 L376.7093,579.0226 L375.1471,581.2483 L373.2,583.1396 L371.4553,585.2067 L371.4805,585.2237 L369.9525,587.4099 L368.539,589.6733 L367.0702,591.8994 L365.7069,594.1967 L364,596.2622 L364.2652,596.3987 L363.4063,598.0752 L362.3764,599.6636 L361.5968,601.3808 L360.829,603.1042 L359.6894,604.6361 L359.3957,604.5077 L359.585,605.6279 L358.8072,606.3254 L358.7646,607.3443 L357.9649,608.0322 L357.7858,608.9914 L357.7575,608.98 L357.9131,609.5571 L357.409,609.8684 L357.2941,610.3365 L357.2119,610.8178 L356.894,611.204 L357.0663,611.2712 L356.849,611.3147 L356.9262,611.473 L356.5268,611.4455 L356.8383,611.6951 L356.6772,611.7605 " fill="none" style="stroke:#8B0000;stroke-width:4.0;"/><polygon fill="#8B0000" points="403.97,554.6322,403.9852,554.7006,402.0173,554.9253,400.1385,555.5509,398.2307,556.046,396.2274,556.1117,394.3563,556.7718,394.3525,556.7461,395.4543,556.7982,396.5754,556.9794,397.7099,557.2504,398.7982,557.212,399.9512,557.607,400.1337,557.6342,399.5764,558.6949,399.5519,559.8352,399.5925,560.9852,399.2547,562.0786,399.116,563.2018,399.1358,563.213,400.0775,561.4827,401.1094,559.8033,402.0977,558.0993,403.1691,556.4424,403.97,554.6322" style="stroke:#8B0000;stroke-width:4.0;"/><polygon fill="#8B0000" points="356.6772,611.7605,356.7266,611.8101,357.9755,610.2727,359.5142,609.0264,360.9585,607.6852,362.0925,606.0324,363.656,604.811,363.6455,604.7873,362.5637,605.1383,361.5347,605.6087,360.5424,606.1622,359.4236,606.4295,358.4819,607.0976,358.6507,607.1722,357.8324,605.9778,357.507,605.0013,357.2416,604.0513,356.6265,602.9467,356.1953,601.9234,356.218,601.9245,356.2811,603.8903,356.4475,605.8612,356.564,607.8296,356.7758,609.8026,356.6772,611.7605" style="stroke:#8B0000;stroke-width:4.0;"/></g><!--link api1 to stor2--><g id="link_api1_stor2"><path d="M481.07,542.6422 L481.0981,542.7313 L483.4671,543.2387 L486.0006,544.2684 L488.4806,545.128 L490.7845,545.4282 L493.3321,546.5027 L493.3206,546.4702 L495.874,547.243 L498.4852,548.18 L501.1368,549.2311 L503.6496,549.8889 L506.3567,551.0977 L506.4477,551.3263 L508.9516,551.911 L511.7211,553.1633 L514.523,554.4969 L517.1364,555.3568 L519.8489,556.4658 L519.8614,556.4935 L522.576,557.6889 L525.3476,559.0102 L528.0916,560.2707 L530.8881,561.6471 L533.5138,562.646 L533.6512,562.9107 L536.3614,564.3201 L538.9829,565.5588 L541.7342,567.0474 L544.4915,568.5477 L547.0562,569.6769 L546.8906,569.4024 L549.8371,571.5192 L552.2382,572.7322 L555.0539,574.6323 L557.4427,575.8249 L560.1814,577.5974 L560.1637,577.5726 L562.8553,579.6355 L565.134,581.1193 L567.6563,582.9448 L570.1991,584.799 L572.5943,586.4462 L572.715,586.5864 L574.8743,588.4081 L577.2399,590.4694 L579.2718,592.143 L581.8013,594.3948 L584,596.2622 L584.176,596.4307 L585.5782,597.8976 L587.0677,599.4482 L588.1514,600.61 L589.5326,602.0567 L591.1774,603.756 L590.9632,603.5817 L592.4825,605.3683 L593.7605,606.9586 L595.3886,608.8338 L596.4188,610.2225 L597.8045,611.9004 L597.6798,611.8126 L599.1053,613.6874 L599.998,615.1867 L601.2696,616.953 L602.9119,618.9805 L603.894,620.5429 L604.0586,620.6448 L605.2845,622.5122 L605.9984,624.0626 L607.3536,626.0101 L608.569,627.8711 L609.4589,629.5305 L609.275,629.4292 L610.4322,631.346 L611.5292,633.2295 L612.7445,635.1782 L613.4997,636.8737 L614.512,638.7106 L614.6963,638.8017 L615.2021,640.4456 L616.0637,642.2653 L617.4451,644.3417 L617.8696,645.9454 L619.0661,647.9305 L619.2741,648.0193 L620.6831,651.5561 L622.0216,655.0629 L623.5191,658.6375 L625.3837,662.3689 L626.7288,665.8785 L626.6041,665.8321 L627.6021,667.6547 L627.7522,669.1618 L628.8665,671.0278 L629.4379,672.6916 L629.863,674.3011 L629.9658,674.337 L630.1625,675.1094 L630.7273,676.0102 L630.9596,676.795 L631.0528,677.5312 L631.2615,678.3078 L631.3744,678.346 L631.3382,678.678 L631.8262,679.1874 L631.7214,679.4961 L631.8604,679.8874 L631.9193,680.2516 " fill="none" style="stroke:#8B0000;stroke-width:4.0;"/><polygon fill="#8B0000" points="476.4,541.2922,476.4451,541.3458,477.8186,542.4544,479.4564,543.8773,481.0082,545.1978,482.2769,546.1817,483.9374,547.6315,483.9148,547.619,483.2662,546.5723,482.7321,545.5888,482.2774,544.6491,481.5488,543.5582,481.2038,542.679,481.293,542.8406,482.0928,541.9484,483.153,541.5279,484.2449,541.1649,485.152,540.4671,486.1563,539.9454,486.1595,539.968,484.2036,540.2042,482.2619,540.5431,480.3134,540.8325,478.378,541.2162,476.4,541.2922" style="stroke:#8B0000;stroke-width:4.0;"/><polygon fill="#8B0000" points="631.9193,680.2516,631.989,680.2582,631.9687,678.2776,632.3571,676.3359,632.6125,674.3816,632.43,672.3855,632.8536,670.4471,632.8304,670.4356,632.2219,671.3964,631.7302,672.4155,631.3198,673.475,630.6294,674.3951,630.3312,675.5105,630.4135,675.6757,629.2248,674.818,628.2765,674.4425,627.3574,674.1259,626.2678,673.467,625.2678,672.9881,625.2846,673.0035,626.5903,674.4336,627.9723,675.9337,629.3175,677.4,630.733,678.9307,631.9193,680.2516" style="stroke:#8B0000;stroke-width:4.0;"/></g><!--link api2 to stor3--><g id="link_api2_stor3"><path d="M81.62,563.0122 L81.7027,563.0556 L79.7555,566.1684 L78.2931,569.5356 L76.6728,572.82 L74.5333,575.8319 L73.1125,579.221 L73.0806,579.2077 L71.5151,582.5562 L70.1102,585.9718 L68.817,589.434 L67.1389,592.7356 L66,596.2622 L66.2341,596.3381 L65.1492,597.9774 L64.7477,599.8383 L64.4296,601.7262 L63.6264,603.4569 L63.0783,605.2702 L63.1074,605.2787 L62.7959,606.1885 L62.6171,607.1368 L62.3742,608.0666 L62.2534,609.0319 L61.7348,609.8813 L62.0223,609.9608 L61.8971,610.4269 L61.5866,610.8418 L61.5474,611.3318 L61.521,611.8253 L61.0915,612.2073 " fill="none" style="stroke:#8B0000;stroke-width:4.0;"/><polygon fill="#8B0000" points="84.06,558.8022,84.1011,558.8589,82.3843,559.8467,80.9085,561.167,79.3542,562.379,77.5418,563.235,76.0867,564.5838,76.08,564.5587,77.1434,564.1553,78.2404,563.8781,79.3607,563.6886,80.4005,563.1967,81.5531,563.1284,81.7315,563.1758,81.6412,564.1676,82.0716,565.298,82.5655,566.4453,82.6898,567.4941,83.0085,568.5948,83.0312,568.5972,83.2082,566.6351,83.4883,564.6841,83.7187,562.7277,84.0438,560.7816,84.06,558.8022" style="stroke:#8B0000;stroke-width:4.0;"/><polygon fill="#8B0000" points="61.0915,612.2073,61.1458,612.2516,62.2286,610.593,63.6298,609.1938,64.9273,607.7102,65.8839,605.9487,67.3124,604.5718,67.2995,604.5494,66.2599,605.0106,65.2852,605.5851,64.3556,606.2385,63.2705,606.6203,62.4032,607.3824,62.5633,607.4741,61.6587,606.2962,61.2217,605.386,60.8418,604.5084,60.1299,603.4408,59.5926,602.4732,59.615,602.4767,59.8818,604.4184,60.251,606.3759,60.5707,608.3258,60.9847,610.2902,61.0915,612.2073" style="stroke:#8B0000;stroke-width:4.0;"/></g><!--link i1 to api1--><g id="link_i1_api1"><path d="M600.34,365.6922 L600.4329,365.7015 L599.892,368.3125 L599.8959,370.9781 L599.7224,373.6259 L598.9654,376.2152 L599.0161,378.8855 L598.9819,378.8806 L598.4248,381.6593 L598.04,384.4629 L597.775,387.2838 L597.0971,390.0452 L596.9975,392.8899 L597.239,392.9372 L596.1539,395.7359 L595.7738,398.6728 L595.4797,401.6266 L594.6852,404.4822 L594.1539,407.3895 L594.1833,407.3971 L593.3804,410.3217 L592.7112,413.2809 L591.9775,416.2235 L591.3668,419.1979 L590.355,422.0685 L590.6377,422.1634 L589.6643,425.0731 L588.5085,427.9215 L587.6196,430.8596 L586.7432,433.8019 L585.4705,436.6111 L585.1763,436.4837 L584.5271,439.5489 L582.9093,442.1948 L582.0279,445.1595 L580.3882,447.7959 L579.37,450.7014 L579.3434,450.6866 L578.1684,453.5267 L576.3724,456.0198 L574.9428,458.7177 L573.544,461.4327 L571.9233,464.0238 L572.0728,464.1327 L570.1372,466.4704 L568.4571,468.9943 L566.3637,471.2169 L564.8868,473.889 L563,476.2622 L563.1764,476.4302 L561.4665,478.1588 L559.8441,479.9708 L557.8148,481.3951 L556.0838,483.1036 L554.6171,485.0639 L554.4404,484.8516 L552.7185,486.6104 L550.7975,488.13 L549.1653,489.9964 L547.04,491.2706 L545.2078,492.8969 L545.1222,492.7707 L543.2263,494.3644 L540.9644,495.4187 L538.9627,496.8565 L537.2157,498.6696 L535.0153,499.8144 L535.1104,499.9831 L533.0291,501.3098 L530.6519,502.112 L528.6453,503.5712 L526.558,504.8872 L524.2825,505.8697 L524.1923,505.6801 L522.0582,506.8805 L519.8946,508.0188 L517.7889,509.279 L515.4577,510.065 L513.2525,511.1159 L513.3297,511.3065 L510.9433,511.7859 L508.7059,512.6331 L506.6861,514.0176 L504.2656,514.4129 L502.1684,515.6063 L502.2427,515.8199 L500.0196,516.4506 L497.7713,517.0089 L495.5797,517.7304 L493.5192,518.829 L491.2732,519.394 L491.235,519.2665 L489.2562,520.2736 L487.0174,520.414 L485.0741,521.5398 L482.9645,522.1107 L480.81,522.5322 " fill="none" style="stroke:#8B0000;stroke-width:4.0;"/><polygon fill="#8B0000" points="476.25,523.7522,476.2608,523.8214,478.1747,523.9203,480.1521,524.4249,482.1089,524.7975,483.9976,524.7354,485.9804,525.2749,485.9675,525.2525,484.929,524.5872,483.9557,524.0351,483.0277,523.5617,481.9436,522.8171,481.0781,522.4523,481.238,522.5444,481.4605,521.367,482.15,520.4585,482.8964,519.5828,483.3114,518.5162,483.9006,517.55,483.915,517.5677,482.3638,518.7822,480.8779,520.0771,479.3605,521.3332,477.9031,522.6634,476.25,523.7522" style="stroke:#8B0000;stroke-width:4.0;"/><text fill="#000000" font-family="Chalkduster" font-size="24" lengthAdjust="spacing" textLength="81" x="616.5" y="438.1031">Index</text><text fill="#000000" font-family="Chalkduster" font-size="24" lengthAdjust="spacing" textLength="128" x="593" y="468.7329">Storage 1</text></g><!--link i2 to api1--><g id="link_i2_api1"><path d="M362.92,365.6622 L363.012,365.6783 L362.2982,368.1551 L362.1239,370.7261 L361.7739,373.2664 L360.8462,375.706 L360.7182,378.285 L360.6839,378.2807 L360.1855,380.9536 L359.8597,383.6486 L359.654,386.359 L359.0346,389.0164 L358.9947,391.748 L359.2401,391.7662 L358.5067,394.5382 L358.4897,397.3634 L358.5601,400.1951 L358.122,402.989 L357.9514,405.8027 L357.9817,405.8031 L357.9049,408.6822 L357.9662,411.5629 L357.9608,414.4429 L358.0826,417.3242 L357.79,420.201 L358.0876,420.2199 L358.2758,423.1188 L358.2719,426.0055 L358.5491,428.9101 L358.8394,431.8155 L358.7124,434.6943 L358.3956,434.6456 L359.452,437.6083 L359.4653,440.4104 L360.2716,443.3346 L360.2613,446.133 L360.9203,449.0346 L360.8909,449.0268 L361.978,451.9068 L362.3775,454.6045 L363.1827,457.4098 L364.022,460.2241 L364.6156,462.9733 L364.787,463.0428 L365.6909,465.6304 L366.8877,468.3368 L367.6104,470.8511 L369.0403,473.6519 L370,476.2622 L370.2087,476.388 L371.3306,478.2916 L372.5561,480.2576 L373.3001,481.9335 L374.3971,483.8221 L375.8067,485.8991 L375.5943,485.7226 L377.2395,487.6305 L378.6454,489.3395 L380.3983,491.337 L381.5586,492.842 L383.0712,494.6397 L382.9664,494.529 L384.7953,496.2793 L386.1761,497.5562 L387.8755,499.1698 L389.8866,501.1127 L391.3427,502.4691 L391.4619,502.6216 L393.3092,504.1069 L394.7855,505.1177 L396.7265,506.7227 L398.5662,508.1983 L400.17,509.3722 " fill="none" style="stroke:#8B0000;stroke-width:4.0;"/><polygon fill="#8B0000" points="404.05,512.0422,404.1097,512.0788,402.9022,510.291,402.0448,508.7179,401.0734,507.0749,399.7271,505.2019,398.8997,503.6473,398.8743,503.6426,398.966,504.7339,399.1861,505.8489,399.4954,506.9805,399.4972,508.0551,399.9298,509.2096,399.9634,509.391,398.7791,509.209,397.6929,509.5568,396.6186,509.9692,395.4748,510.0055,394.3675,510.2396,394.3717,510.262,396.3021,510.5897,398.2514,511.0192,400.1916,511.3995,402.1492,511.8736,404.05,512.0422" style="stroke:#8B0000;stroke-width:4.0;"/><text fill="#000000" font-family="Chalkduster" font-size="24" lengthAdjust="spacing" textLength="81" x="418" y="438.1031">Index</text><text fill="#000000" font-family="Chalkduster" font-size="24" lengthAdjust="spacing" textLength="187" x="371" y="468.7329">Storage 1 &amp; 2</text></g><!--link i3 to api2--><g id="link_i3_api2"><path d="M134.88,365.6922 L135.1545,365.7485 L132.3746,375.1526 L131.2039,384.8869 L129.5092,394.5136 L126.0911,403.7867 L124.9571,413.5285 L122.5372,423.0065 L120.6291,432.5894 L119.0767,442.2454 L116.2984,451.6497 L115.9603,461.5549 L112.4496,470.809 L111.0503,480.4963 L109.9085,490.2366 L107.38,499.6922 " fill="none" style="stroke:#8B0000;stroke-width:4.0;"/><polygon fill="#8B0000" points="106.38,504.5522,106.4369,504.5931,107.416,502.8712,108.7289,501.3888,109.933,499.8285,110.7798,498.0117,112.1213,496.5498,112.107,496.5282,111.0976,497.0523,110.16,497.6855,109.2721,498.3946,108.2125,498.8422,107.3935,499.656,107.5477,499.7573,106.5967,498.5951,106.0959,497.7287,105.6501,496.8984,104.8847,495.8581,104.2873,494.9282,104.3096,494.9331,104.6955,496.8508,105.1826,498.7905,105.6208,500.7196,106.1522,502.6689,106.38,504.5522" style="stroke:#8B0000;stroke-width:4.0;"/><text fill="#000000" font-family="Chalkduster" font-size="24" lengthAdjust="spacing" textLength="81" x="144" y="438.1031">Index</text><text fill="#000000" font-family="Chalkduster" font-size="24" lengthAdjust="spacing" textLength="129" x="126" y="468.7329">Storage 3</text></g><!--SRC=[ZP8_JyCm4CLtVueZ0rDJ5BimH5Kb99OEY4gC524tFbeZrubi5ngXVdUSFoskwWWy9U_U_N9-bokf2xKJ-BRbkeRn-4PmnrF_mjUuHUrIwsg5OxTtn4cdC8S7Ru1tgGLVIILTJGmMZkkrGaWUTyh9oZzPLnfF08lcKnPeOSi5zbqA4m1kWPjY0zEfmQgqqllhsGo-2VWJ41UbSLn1bZGTLTORcjCCkkBMU-PQu3vVQiX6jFN9h7KT1c2TgQ9_maOC9XsG1i08aNL4zdyWYqzulvYtTLxrTuZNkd5-l_7Snzt5r8GV9XKmdbOVMJ9Ge4buoKiuFS7f89mDmITdy0YTdUXia7uxHByxqW_4_oEfaUkDUzb88L2_fZE_QkAtVIapGfgWOPgAyajxfKqkej56e-SQ8zvr5DgM7DfTB_Lf7SGtnImGUE0QA94izD68pyzAo0y0]--></g></svg>