<?xml version="1.0" encoding="UTF-8" standalone="no"?><svg xmlns="http://www.w3.org/2000/svg" xmlns:xlink="http://www.w3.org/1999/xlink" contentStyleType="text/css" height="797px" preserveAspectRatio="none" style="width:934px;height:797px;background:#FFFFFF;" version="1.1" viewBox="0 0 934 797" width="934px" zoomAndPan="magnify"><defs/><g><text fill="#000000" font-family="Chalkduster" font-size="42" font-weight="bold" lengthAdjust="spacing" textLength="382" x="269" y="51.7215">Data findability</text><!--cluster arch--><g id="cluster_arch"><polygon fill="#00FF7F" points="9.5,122.2622,9.5,122.4724,19.4565,121.8479,29.413,122.4555,39.3696,122.6619,49.3261,121.5488,59.2826,122.1845,69.2391,121.8357,79.1957,121.8787,89.1522,122.1941,99.1087,121.5708,109.0652,122.8159,119.0217,121.6319,128.9783,122.0644,138.9348,122.6942,148.8913,122.1764,158.8478,122.3304,168.8043,122.2303,178.7609,122.4407,188.7174,122.5013,198.6739,122.8479,208.6304,122.9333,218.587,122.9415,228.5435,122.5168,238.5,122.7258,248.4565,122.9644,258.413,121.541,268.3696,122.9407,278.3261,121.9657,288.2826,122.796,298.2391,121.7672,308.1957,122.1937,318.1522,123.0038,328.1087,122.2135,338.0652,122.3675,348.0217,122.6008,357.9783,122.6784,367.9348,122.2583,377.8913,122.5494,387.8478,121.6898,397.8043,122.5466,407.7609,122.8104,417.7174,122.7067,427.6739,122.8752,437.6304,121.7791,447.587,121.61,457.5435,121.6408,467.5,122.2033,477.4565,122.0657,487.413,122.9436,497.3696,122.0875,507.3261,121.9192,517.2826,122.4905,527.2391,121.5954,537.1957,121.7431,547.1522,122.9112,557.1087,122.6979,567.0652,122.9967,577.0217,121.9404,586.9783,122.5814,596.9348,122.8526,606.8913,121.7898,616.8478,122.1664,626.8043,122.3882,636.7609,122.914,646.7174,122.258,656.6739,122.7248,666.6304,121.7084,676.587,121.585,686.5435,122.7658,696.5,121.5453,706.4565,122.7712,716.413,122.4688,726.3696,121.9943,736.3261,121.9084,746.2826,122.721,756.2391,121.9629,766.1957,122.8541,776.1522,121.7095,786.1087,122.8796,796.0652,122.7465,806.0217,122.5072,815.9783,122.3094,825.9348,122.9888,835.8913,122.8758,845.8478,122.4315,855.8043,122.5304,865.7609,122.1319,875.7174,122.9787,885.6739,122.4171,895.6304,122.4348,905.587,121.6539,915.5435,121.857,925.5,122.2622,925.5677,122.4257,925.9084,122.541,926.2016,122.5419,926.5196,122.6023,926.8863,122.7806,927.2678,122.9944,927.0565,122.9069,927.5419,123.4009,927.7884,123.7959,927.8692,124.1223,928.0676,124.4973,928,124.7622,927.8633,124.7622,928.0872,134.8228,927.6124,144.8834,928.284,154.944,928.2468,165.0046,928.5524,175.0652,927.7703,185.1258,927.8656,195.1865,928.4435,205.2471,928.5673,215.3077,927.4875,225.3683,927.8061,235.4289,928.1493,245.4895,927.3892,255.5501,928.3534,265.6107,928.258,275.6713,927.8992,285.7319,928.1422,295.7925,928.7287,305.8531,927.6871,315.9137,928.315,325.9743,928.2856,336.0349,928.1158,346.0955,928.1409,356.1562,928.1135,366.2168,927.3758,376.2774,927.5992,386.338,927.5385,396.3986,928.0638,406.4592,928.0881,416.5198,928.1617,426.5804,927.709,436.641,927.9325,446.7016,927.8798,456.7622,928.5769,466.8228,928.4266,476.8834,927.5145,486.944,927.9271,497.0046,927.4228,507.0652,928.2884,517.1258,928.6085,527.1865,928.5446,537.2471,927.5644,547.3077,928.464,557.3683,927.2572,567.4289,928.2002,577.4895,927.7007,587.5501,928.0967,597.6107,928.2403,607.6713,928.4721,617.7319,927.2801,627.7925,928.4755,637.8531,928.1782,647.9137,928.3553,657.9743,928.7478,668.0349,928.0055,678.0955,928.1753,688.1562,928.2134,698.2168,928.1972,708.2774,927.9992,718.338,928.7107,728.3986,927.3903,738.4592,928.5653,748.5198,927.376,758.5804,927.4597,768.641,928.04,778.7016,928,788.7622,928.0087,788.7658,927.7018,789.0529,927.8345,789.5221,927.5942,789.8368,927.638,790.2691,927.2678,790.53,927.3529,790.7354,926.857,790.5384,926.5099,790.7003,926.1906,790.9295,925.8989,791.2253,925.5,791.2622,925.5,791.6652,915.5435,791.5634,905.587,790.9203,895.6304,791.8986,885.6739,791.896,875.7174,791.2149,865.7609,791.0232,855.8043,790.8608,845.8478,791.0476,835.8913,791.3996,825.9348,791.1938,815.9783,790.8444,806.0217,791.7496,796.0652,790.8033,786.1087,791.7646,776.1522,791.6894,766.1957,791.6341,756.2391,791.9547,746.2826,791.0163,736.3261,790.9616,726.3696,791.7811,716.413,790.6653,706.4565,791.0282,696.5,791.3777,686.5435,791.3309,676.587,790.9038,666.6304,791.2192,656.6739,792.0068,646.7174,791.9107,636.7609,790.6659,626.8043,791.3407,616.8478,790.7483,606.8913,791.2359,596.9348,791.5552,586.9783,791.6821,577.0217,790.5975,567.0652,791.6628,557.1087,791.2706,547.1522,790.7069,537.1957,790.7912,527.2391,791.5888,517.2826,791.5121,507.3261,791.2458,497.3696,790.5901,487.413,791.9204,477.4565,790.9504,467.5,790.7342,457.5435,791.1949,447.587,791.8519,437.6304,791.8776,427.6739,791.2973,417.7174,791.111,407.7609,791.432,397.8043,791.4484,387.8478,790.7544,377.8913,791.6762,367.9348,791.821,357.9783,791.0465,348.0217,790.833,338.0652,791.9369,328.1087,791.2832,318.1522,791.2621,308.1957,791.5612,298.2391,790.6165,288.2826,791.7922,278.3261,791.2468,268.3696,791.931,258.413,791.0464,248.4565,791.6712,238.5,790.8182,228.5435,791.5072,218.587,791.6415,208.6304,790.9349,198.6739,791.6252,188.7174,790.6908,178.7609,790.7917,168.8043,791.945,158.8478,791.9466,148.8913,791.8307,138.9348,790.9018,128.9783,791.6464,119.0217,790.7902,109.0652,791.3204,99.1087,791.261,89.1522,790.9998,79.1957,791.8781,69.2391,791.7055,59.2826,790.9415,49.3261,791.7888,39.3696,791.3541,29.413,790.6786,19.4565,791.0289,9.5,791.2622,9.433,791.1004,9.1287,791.0729,8.7127,790.7756,8.3628,790.638,8.0948,790.6981,7.7322,790.53,7.6952,790.5146,7.5678,790.169,7.3952,789.8046,7.3444,789.4907,6.9755,789.045,7,788.7622,7.1601,788.7622,6.2569,778.7016,7.296,768.641,7.5928,758.5804,7.5221,748.5198,7.3613,738.4592,7.1922,728.3986,7.1057,718.338,6.36,708.2774,7.4465,698.2168,7.3296,688.1562,6.8466,678.0955,6.9942,668.0349,6.7914,657.9743,7.2177,647.9137,7.6805,637.8531,6.6461,627.7925,7.4689,617.7319,6.9108,607.6713,6.6207,597.6107,6.5681,587.5501,6.3553,577.4895,6.5591,567.4289,7.0363,557.3683,7.273,547.3077,7.5762,537.2471,7.4201,527.1865,6.2886,517.1258,7.619,507.0652,7.4861,497.0046,7.5407,486.944,7.5219,476.8834,6.3409,466.8228,6.7423,456.7622,7.316,446.7016,6.5185,436.641,6.8971,426.5804,7.067,416.5198,7.3261,406.4592,7.0458,396.3986,7.7447,386.338,7.4114,376.2774,7.2561,366.2168,6.4601,356.1562,7.3388,346.0955,6.4255,336.0349,7.3057,325.9743,7.0078,315.9137,7.2995,305.8531,6.9126,295.7925,6.8039,285.7319,6.2591,275.6713,6.7856,265.6107,6.2951,255.5501,6.7539,245.4895,7.4379,235.4289,7.1607,225.3683,6.5485,215.3077,7.2458,205.2471,7.0656,195.1865,7.5433,185.1258,7.5649,175.0652,7.0937,165.0046,6.821,154.944,6.7855,144.8834,6.9936,134.8228,7,124.7622,7.2061,124.8476,6.939,124.3227,7.2424,124.0342,7.5215,123.7356,7.8111,123.4413,7.7322,122.9944,7.7593,123.0597,8.0605,122.787,8.3452,122.4743,8.7388,122.4246,9.1181,122.3403,9.5,122.2622" style="stroke:#181818;stroke-width:4.0;"/><text fill="#000000" font-family="Chalkduster" font-size="24" font-style="italic" lengthAdjust="spacing" textLength="169" x="383" y="148.1031">«repository»</text><text fill="#000000" font-family="Chalkduster" font-size="24" font-weight="bold" lengthAdjust="spacing" textLength="554" x="190.5" y="178.7329">Multiple storage services made findable</text></g><!--cluster p1--><g id="cluster_p1"><polygon fill="none" points="526.5,218.2622,526.5,218.4724,536.4,217.8479,546.3,218.4555,556.2,218.6619,566.1,217.5488,576,218.1845,585.9,217.8357,595.8,217.8787,605.7,218.1941,615.6,217.5708,625.5,218.8159,635.4,217.6319,645.3,218.0644,655.2,218.6942,665.1,218.1764,675,218.3304,684.9,218.2303,694.8,218.4407,704.7,218.5013,714.6,218.8479,724.5,218.2622,724.5856,218.4689,724.9402,218.6178,725.2396,218.6335,725.6198,218.8443,726.0038,219.0643,726.2678,218.9944,726.0457,218.9024,726.6232,219.4345,726.4693,219.6637,726.8715,220.1232,726.7011,220.3455,727,220.7622,726.9315,220.7622,727.7416,230.5269,726.9513,240.2916,727.1053,250.0563,727.3386,259.821,727.4162,269.5857,726.9961,279.3504,727.2872,289.1152,726.4276,298.8799,727.2844,308.6446,727.5482,318.4093,727.4445,328.174,727.613,337.9387,726.5169,347.7034,726.3478,357.4681,726.3786,367.2328,726.9411,376.9975,727,386.7622,726.9395,386.7371,727.0634,387.2027,726.6533,387.447,726.455,387.7791,726.4845,388.2055,726.2678,388.53,726.1827,388.3246,725.848,388.5166,725.6434,389.0227,725.2627,389.1035,724.9472,389.342,724.5,389.2622,724.5,388.9404,714.6,389.5814,704.7,389.8526,694.8,388.7898,684.9,389.1664,675,389.3882,665.1,389.914,655.2,389.258,645.3,389.7248,635.4,388.7084,625.5,388.585,615.6,389.7658,605.7,388.5453,595.8,389.7712,585.9,389.4688,576,388.9943,566.1,388.9084,556.2,389.721,546.3,388.9629,536.4,389.8541,526.5,389.2622,526.4295,389.092,526.2252,389.3059,525.8547,389.1185,525.4706,388.8983,525.0918,388.691,524.7322,388.53,524.956,388.6227,524.7747,388.2547,524.4915,387.8445,524.3755,387.5035,524.1063,387.0991,524,386.7622,524.7165,386.7622,524.1549,376.9975,524.1726,367.2328,523.3916,357.4681,523.5948,347.7034,524.5307,337.9387,524.4298,328.174,523.9571,318.4093,523.6778,308.6446,523.7811,298.8799,523.3138,289.1152,524.4147,279.3504,524.7396,269.5857,524.5264,259.821,524.6949,250.0563,523.8633,240.2916,524.0872,230.5269,524,220.7622,523.8806,220.7128,524.2339,220.4449,524.3689,220.0866,524.6095,219.772,524.5151,219.3187,524.7322,218.9944,524.7151,218.9531,525.1424,218.9846,525.5117,218.8763,525.7275,218.3973,526.1217,218.3489,526.5,218.2622" style="stroke:#181818;stroke-width:4.0;"/><text fill="#000000" font-family="Chalkduster" font-size="24" font-weight="bold" lengthAdjust="spacing" textLength="187" x="532" y="244.1031">Data Portal 1</text></g><!--cluster p2--><g id="cluster_p2"><polygon fill="none" points="285.5,218.2622,285.5,218.4724,295.3,217.8479,305.1,218.4555,314.9,218.6619,324.7,217.5488,334.5,218.1845,344.3,217.8357,354.1,217.8787,363.9,218.1941,373.7,217.5708,383.5,218.8159,393.3,217.6319,403.1,218.0644,412.9,218.6942,422.7,218.1764,432.5,218.3304,442.3,218.2303,452.1,218.4407,461.9,218.5013,471.7,218.8479,481.5,218.2622,481.5856,218.4689,481.9402,218.6178,482.2396,218.6335,482.6198,218.8443,483.0038,219.0643,483.2678,218.9944,483.0457,218.9024,483.6232,219.4345,483.4693,219.6637,483.8715,220.1232,483.7011,220.3455,484,220.7622,483.9315,220.7622,484.7416,230.5269,483.9513,240.2916,484.1053,250.0563,484.3386,259.821,484.4162,269.5857,483.9961,279.3504,484.2872,289.1152,483.4276,298.8799,484.2844,308.6446,484.5482,318.4093,484.4445,328.174,484.613,337.9387,483.5169,347.7034,483.3478,357.4681,483.3786,367.2328,483.9411,376.9975,484,386.7622,483.9395,386.7371,484.0634,387.2027,483.6533,387.447,483.455,387.7791,483.4845,388.2055,483.2678,388.53,483.1827,388.3246,482.848,388.5166,482.6434,389.0227,482.2627,389.1035,481.9472,389.342,481.5,389.2622,481.5,388.9404,471.7,389.5814,461.9,389.8526,452.1,388.7898,442.3,389.1664,432.5,389.3882,422.7,389.914,412.9,389.258,403.1,389.7248,393.3,388.7084,383.5,388.585,373.7,389.7658,363.9,388.5453,354.1,389.7712,344.3,389.4688,334.5,388.9943,324.7,388.9084,314.9,389.721,305.1,388.9629,295.3,389.8541,285.5,389.2622,285.4295,389.092,285.2252,389.3059,284.8547,389.1185,284.4706,388.8983,284.0918,388.691,283.7322,388.53,283.956,388.6227,283.7747,388.2547,283.4915,387.8445,283.3755,387.5035,283.1063,387.0991,283,386.7622,283.7165,386.7622,283.1549,376.9975,283.1726,367.2328,282.3916,357.4681,282.5948,347.7034,283.5307,337.9387,283.4298,328.174,282.9571,318.4093,282.6778,308.6446,282.7811,298.8799,282.3138,289.1152,283.4147,279.3504,283.7396,269.5857,283.5264,259.821,283.6949,250.0563,282.8633,240.2916,283.0872,230.5269,283,220.7622,282.8806,220.7128,283.2339,220.4449,283.3689,220.0866,283.6095,219.772,283.5151,219.3187,283.7322,218.9944,283.7151,218.9531,284.1424,218.9846,284.5117,218.8763,284.7275,218.3973,285.1217,218.3489,285.5,218.2622" style="stroke:#181818;stroke-width:4.0;"/><text fill="#000000" font-family="Chalkduster" font-size="24" font-weight="bold" lengthAdjust="spacing" textLength="185" x="291" y="244.1031">Data Portal 2</text></g><!--cluster p3--><g id="cluster_p3"><polygon fill="none" points="41.5,218.2622,41.5,218.4724,51.45,217.8479,61.4,218.4555,71.35,218.6619,81.3,217.5488,91.25,218.1845,101.2,217.8357,111.15,217.8787,121.1,218.1941,131.05,217.5708,141,218.8159,150.95,217.6319,160.9,218.0644,170.85,218.6942,180.8,218.1764,190.75,218.3304,200.7,218.2303,210.65,218.4407,220.6,218.5013,230.55,218.8479,240.5,218.2622,240.5856,218.4689,240.9402,218.6178,241.2396,218.6335,241.6198,218.8443,242.0038,219.0643,242.2678,218.9944,242.0457,218.9024,242.6232,219.4345,242.4693,219.6637,242.8715,220.1232,242.7011,220.3455,243,220.7622,242.9315,220.7622,243.7416,230.5269,242.9513,240.2916,243.1053,250.0563,243.3386,259.821,243.4162,269.5857,242.9961,279.3504,243.2872,289.1152,242.4276,298.8799,243.2844,308.6446,243.5482,318.4093,243.4445,328.174,243.613,337.9387,242.5169,347.7034,242.3478,357.4681,242.3786,367.2328,242.9411,376.9975,243,386.7622,242.9395,386.7371,243.0634,387.2027,242.6533,387.447,242.455,387.7791,242.4845,388.2055,242.2678,388.53,242.1827,388.3246,241.848,388.5166,241.6434,389.0227,241.2627,389.1035,240.9472,389.342,240.5,389.2622,240.5,388.9404,230.55,389.5814,220.6,389.8526,210.65,388.7898,200.7,389.1664,190.75,389.3882,180.8,389.914,170.85,389.258,160.9,389.7248,150.95,388.7084,141,388.585,131.05,389.7658,121.1,388.5453,111.15,389.7712,101.2,389.4688,91.25,388.9943,81.3,388.9084,71.35,389.721,61.4,388.9629,51.45,389.8541,41.5,389.2622,41.4295,389.092,41.2252,389.3059,40.8547,389.1185,40.4706,388.8983,40.0918,388.691,39.7322,388.53,39.956,388.6227,39.7747,388.2547,39.4915,387.8445,39.3755,387.5035,39.1063,387.0991,39,386.7622,39.7165,386.7622,39.1549,376.9975,39.1726,367.2328,38.3916,357.4681,38.5948,347.7034,39.5307,337.9387,39.4298,328.174,38.9571,318.4093,38.6778,308.6446,38.7811,298.8799,38.3138,289.1152,39.4147,279.3504,39.7396,269.5857,39.5264,259.821,39.6949,250.0563,38.8633,240.2916,39.0872,230.5269,39,220.7622,38.8806,220.7128,39.2339,220.4449,39.3689,220.0866,39.6095,219.772,39.5151,219.3187,39.7322,218.9944,39.7151,218.9531,40.1424,218.9846,40.5117,218.8763,40.7275,218.3973,41.1217,218.3489,41.5,218.2622" style="stroke:#181818;stroke-width:4.0;"/><text fill="#000000" font-family="Chalkduster" font-size="24" font-weight="bold" lengthAdjust="spacing" textLength="188" x="47" y="244.1031">Data Portal 3</text></g><!--cluster stor1--><g id="cluster_stor1"><path d="M337,622.2622 L337,622.2622 L337.0482,622.3422 L338.0007,621.4443 L339.2357,621.0155 L340.3788,620.4339 L341.2192,619.35 L342.4785,618.9614 L342.4727,618.9274 L345.3351,618.2785 L348.227,617.8013 L351.1394,617.4433 L353.9812,616.6742 L356.9219,616.481 L356.9465,616.7258 L358.8238,616.0084 L360.773,616.0058 L362.7309,616.0904 L364.6378,615.6676 L366.5715,615.5117 L366.5738,615.542 L368.7245,615.3359 L370.8856,615.2676 L373.0416,615.1328 L375.2072,615.1248 L377.3418,614.7036 L377.3589,615.0014 L379.6626,614.8727 L381.9552,614.552 L384.264,614.5123 L386.5736,614.4859 L388.8591,614.042 L388.8449,613.7218 L391.2507,614.2373 L393.6096,613.6984 L396.0042,613.9611 L398.362,613.3984 L400.75,613.5122 L400.7491,613.4818 L405.4418,613.6971 L410.1126,613.2015 L414.7964,613.1254 L419.4812,613.0845 L424.1582,612.7896 L424.1616,612.9745 L428.2422,612.7136 L432.3285,612.7687 L436.4055,612.3125 L440.4964,612.6191 L444.5781,612.4185 L444.58,612.6621 L448.564,612.5848 L452.549,612.6284 L456.5296,612.11 L460.5134,612.0036 L464.5,612.2622 L464.5,612.2622 L464.4978,611.986 L468.4842,612.2673 L472.4681,612.2374 L476.4555,612.6588 L480.4369,612.3096 L484.4219,612.4185 L484.4191,612.266 L488.5077,612.5941 L492.5845,612.2706 L496.6696,612.4104 L500.7631,613.0037 L504.8418,612.7896 L504.8478,612.9831 L509.5335,613.2604 L514.2007,612.9357 L518.8911,613.3649 L523.5765,613.63 L528.25,613.5122 L528.2407,613.3025 L530.6263,613.5756 L533.0088,613.7801 L535.3974,614.1195 L537.7626,613.9342 L540.1409,614.042 L540.1527,614.2472 L542.4302,613.9286 L544.7305,614.0061 L547.0641,614.6624 L549.3365,614.2532 L551.6582,614.7036 L551.6751,614.9292 L553.8191,614.9568 L555.9574,614.9081 L558.1086,615.0317 L560.2897,615.5534 L562.4285,615.5117 L562.4152,615.3794 L564.3847,615.9673 L566.2638,615.655 L568.2457,616.3663 L570.1697,616.5013 L572.0781,616.481 L572.0966,616.5883 L574.9703,616.9977 L577.9101,617.7914 L580.7903,618.238 L583.6455,618.5395 L586.5215,618.9614 L586.583,619.0635 L587.5873,619.572 L588.8772,620.5545 L589.8441,621.0009 L590.9439,621.6678 L592,622.2622 L590.3777,622.2622 L590.9194,632.0314 L593.4153,641.8007 L593.146,651.5699 L591.8855,661.3391 L591.1409,671.1084 L591.4162,680.8776 L590.1702,690.6468 L593.106,700.4161 L593.9722,710.1853 L593.4037,719.9545 L593.8532,729.7237 L591.6354,739.493 L592,749.2622 L592,749.2622 L592.02,749.2954 L590.8154,749.7748 L589.8737,750.6907 L588.7695,751.3366 L587.7439,752.1131 L586.5215,752.563 L586.5042,752.4624 L583.6227,753.0002 L580.7775,753.7494 L577.8981,754.2998 L574.9282,754.3229 L572.0781,755.0435 L572.0695,754.9577 L570.1548,755.3033 L568.1911,755.161 L566.304,755.7813 L564.3699,755.9329 L562.4285,756.0127 L562.4251,755.968 L560.2791,756.2374 L558.1446,756.6589 L555.9559,756.3589 L553.8227,756.7988 L551.6582,756.8208 L551.6655,756.9476 L549.3577,757.0045 L547.0549,757.148 L544.7507,757.2681 L542.4284,757.0732 L540.1409,757.4824 L540.1329,757.3045 L537.7536,757.3835 L535.3858,757.7227 L533.0081,757.8394 L530.6314,757.9781 L528.25,758.0122 L528.246,757.883 L523.5674,758.1267 L518.8851,758.2479 L514.213,758.7021 L509.5293,758.7798 L504.8418,758.7349 L504.8379,758.5191 L500.7572,758.7767 L496.6692,758.6268 L492.5922,759.0857 L488.5108,759.3021 L484.4219,759.106 L484.4238,759.348 L480.436,758.9436 L476.4547,759.3747 L472.4662,758.8696 L468.4851,759.3199 L464.5,759.2622 L464.5,759.2622 L464.499,759.1292 L460.516,759.2739 L456.5321,759.3065 L452.5485,759.3783 L448.56,758.8173 L444.5781,759.106 L444.582,759.3172 L440.4956,759.1109 L436.413,759.1154 L432.3322,759.2156 L428.2422,758.8115 L424.1582,758.7349 L424.1606,758.8127 L419.4795,758.6852 L414.7976,758.5334 L410.1133,758.3009 L405.4414,758.4725 L400.75,758.0122 L400.7379,757.7415 L398.383,758.1572 L395.9813,757.5232 L393.6048,757.4544 L391.2381,757.6061 L388.8591,757.4824 L388.8599,757.495 L386.5431,757.1314 L384.2627,757.4013 L381.9515,757.1338 L379.6638,757.2756 L377.3418,756.8208 L377.364,757.1165 L375.1728,756.4605 L373.0205,756.3212 L370.8753,756.2787 L368.7374,756.3319 L366.5715,756.0127 L366.5894,756.1909 L364.655,755.952 L362.6965,755.4738 L360.81,755.7126 L358.88,755.5176 L356.9219,755.0435 L356.9183,755.0227 L354.0152,754.4427 L351.1143,753.8755 L348.2397,753.4612 L345.3775,753.1193 L342.4785,752.563 L342.4628,752.537 L341.287,751.7438 L340.3989,751.4282 L339.0861,750.4078 L338.2109,750.1136 L337,749.2622 L338.1393,749.2622 L337.9916,739.493 L338.8467,729.7237 L336.3443,719.9545 L336.1983,710.1853 L338.3837,700.4161 L335.4083,690.6468 L336.376,680.8776 L337.308,671.1084 L337.1832,661.3391 L336.0441,651.5699 L336.8854,641.8007 L338.9856,632.0314 L337,622.2622 " fill="none" style="stroke:#181818;stroke-width:4.0;"/><path d="M337,622.2622 L337,622.2622 L337.0482,622.3422 L338.0007,622.7646 L339.2357,623.6561 L340.3788,624.3948 L341.2192,624.6313 L342.4785,625.563 L342.4727,625.529 L345.3351,625.8723 L348.227,626.3872 L351.1394,627.0214 L353.9812,627.2445 L356.9219,628.0435 L356.9465,628.2883 L358.8238,627.9586 L360.773,628.3437 L362.7309,628.816 L364.6378,628.7809 L366.5715,629.0127 L366.5738,629.0429 L368.7245,629.1602 L370.8856,629.4151 L373.0416,629.6035 L375.2072,629.9188 L377.3418,629.8208 L377.3589,630.1186 L379.6626,630.2545 L381.9552,630.1984 L384.264,630.4235 L386.5736,630.6617 L388.8591,630.4824 L388.8449,630.1622 L391.2507,630.8896 L393.6096,630.5627 L396.0042,631.0373 L398.362,630.6865 L400.75,631.0122 L400.7491,630.9818 L405.4418,631.4862 L410.1126,631.2796 L414.7964,631.4926 L419.4812,631.7408 L424.1582,631.7349 L424.1616,631.9198 L428.2422,631.8074 L432.3285,632.0109 L436.4055,631.7032 L440.4964,632.1581 L444.5781,632.106 L444.58,632.3496 L448.564,632.3348 L452.549,632.4409 L456.5296,631.985 L460.5134,631.9411 L464.5,632.2622 L464.5,632.2622 L464.4978,631.986 L468.4842,632.2048 L472.4681,632.1124 L476.4555,632.4713 L480.4369,632.0596 L484.4219,632.106 L484.4191,631.9535 L488.5077,632.1332 L492.5845,631.6612 L496.6696,631.6526 L500.7631,632.0975 L504.8418,631.7349 L504.8478,631.9284 L509.5335,631.9166 L514.2007,631.3029 L518.8911,631.4431 L523.5765,631.419 L528.25,631.0122 L528.2407,630.8025 L530.6263,630.8637 L533.0088,630.8562 L535.3974,630.9837 L537.7626,630.5865 L540.1409,630.4824 L540.1527,630.6877 L542.4302,630.1044 L544.7305,629.9173 L547.0641,630.3089 L549.3365,629.635 L551.6582,629.8208 L551.6751,630.0464 L553.8191,629.7508 L555.9574,629.3788 L558.1086,629.1791 L560.2897,629.3776 L562.4285,629.0127 L562.4152,628.8803 L564.3847,629.0806 L566.2638,628.3806 L568.2457,628.7042 L570.1697,628.4515 L572.0781,628.0435 L572.0966,628.1508 L574.9703,627.5681 L577.9101,627.3696 L580.7903,626.8239 L583.6455,626.1332 L586.5215,625.563 L586.583,625.6651 L587.5873,624.8532 L588.8772,624.5154 L589.8441,623.6415 L590.9439,622.9881 L592,622.2622 " fill="none" style="stroke:#181818;stroke-width:4.0;"/><text fill="#000000" font-family="Chalkduster" font-size="24" font-weight="bold" lengthAdjust="spacing" textLength="128" x="400.5" y="658.1031">Storage 1</text></g><!--cluster stor2--><g id="cluster_stor2"><path d="M632,622.2622 L632,622.2622 L632.047,622.3429 L633.0418,621.4429 L634.312,621.0161 L635.4925,620.4353 L636.378,619.3475 L637.6719,618.9614 L637.6662,618.9274 L640.6315,618.2783 L643.6252,617.8011 L646.6388,617.4433 L649.5841,616.6739 L652.625,616.481 L652.6488,616.7259 L654.596,616.0083 L656.6126,616.0058 L658.6377,616.0905 L660.6135,615.6676 L662.6152,615.5117 L662.6174,615.542 L664.8443,615.3359 L667.0811,615.2676 L669.3132,615.1329 L671.5544,615.1249 L673.7656,614.7036 L673.7821,615.0014 L676.1671,614.8727 L678.5414,614.552 L680.9313,614.5124 L683.322,614.4859 L685.6895,614.042 L685.6757,613.7218 L688.1645,614.2373 L690.608,613.6984 L693.086,613.9612 L695.5284,613.3984 L698,613.5122 L697.9991,613.4818 L702.8567,613.6971 L707.6931,613.2015 L712.542,613.1254 L717.392,613.0845 L722.2344,612.7896 L722.2376,612.9745 L726.4625,612.7136 L730.6929,612.7687 L734.9143,612.3125 L739.1491,612.6191 L743.375,612.4185 L743.3768,612.6621 L747.5015,612.5848 L751.6271,612.6284 L755.7484,612.11 L759.8728,612.0036 L764,612.2622 L764,612.2622 L763.9979,611.986 L768.1248,612.2673 L772.2493,612.2374 L776.3773,612.6588 L780.4994,612.3096 L784.625,612.4185 L784.6223,612.266 L788.8549,612.5941 L793.076,612.2706 L797.3053,612.4104 L801.5426,613.0037 L805.7656,612.7896 L805.7714,612.9831 L810.6222,613.2604 L815.4551,612.9357 L820.3105,613.365 L825.1609,613.63 L830,613.5122 L829.991,613.3024 L832.4603,613.5756 L834.9266,613.7801 L837.3988,614.1195 L839.8484,613.9342 L842.3105,614.042 L842.3219,614.2473 L844.6817,613.9286 L847.0634,614.0061 L849.4772,614.6625 L851.832,614.2531 L854.2344,614.7036 L854.2507,614.9292 L856.4711,614.9568 L858.6859,614.9081 L860.9132,615.0317 L863.1694,615.5535 L865.3848,615.5117 L865.3719,615.3793 L867.4082,615.9674 L869.3571,615.6549 L871.4054,616.3664 L873.3977,616.5014 L875.375,616.481 L875.3928,616.5884 L878.3691,616.9978 L881.4091,617.7917 L884.3915,618.2383 L887.3498,618.5395 L890.3281,618.9614 L890.3881,619.0644 L891.4334,619.5715 L892.757,620.557 L893.7659,621.0014 L894.9042,621.6683 L896,622.2622 L894.3777,622.2622 L894.9194,632.0314 L897.4153,641.8007 L897.146,651.5699 L895.8855,661.3391 L895.1409,671.1084 L895.4162,680.8776 L894.1702,690.6468 L897.106,700.4161 L897.9722,710.1853 L897.4037,719.9545 L897.8532,729.7237 L895.6354,739.493 L896,749.2622 L896,749.2622 L896.0195,749.2957 L894.779,749.7735 L893.7947,750.6916 L892.652,751.3375 L891.586,752.115 L890.3281,752.563 L890.3114,752.4623 L887.3277,753.0002 L884.3791,753.7496 L881.3975,754.3 L878.3283,754.3226 L875.375,755.0435 L875.3667,754.9577 L873.3834,755.3033 L871.3527,755.1609 L869.396,755.7813 L867.3939,755.933 L865.3848,756.0127 L865.3815,755.968 L863.1593,756.2374 L860.948,756.659 L858.6845,756.3589 L856.4746,756.7988 L854.2344,756.8208 L854.2414,756.9476 L851.8525,757.0045 L849.4683,757.148 L847.0829,757.2681 L844.6799,757.0731 L842.3105,757.4824 L842.3029,757.3044 L839.8396,757.3834 L837.3875,757.7227 L834.9259,757.8394 L832.4652,757.9781 L830,758.0122 L829.9961,757.8829 L825.1522,758.1267 L820.3047,758.2479 L815.467,758.7021 L810.6182,758.7798 L805.7656,758.7349 L805.7618,758.5191 L801.5369,758.7767 L797.3049,758.6268 L793.0835,759.0857 L788.8579,759.3021 L784.625,759.106 L784.6268,759.348 L780.4985,758.9436 L776.3766,759.3747 L772.2475,758.8696 L768.1257,759.3199 L764,759.2622 L764,759.2622 L763.999,759.1292 L759.8753,759.2739 L755.7508,759.3065 L751.6266,759.3783 L747.4976,758.8173 L743.375,759.106 L743.3787,759.3173 L739.1483,759.1109 L734.9215,759.1154 L730.6965,759.2156 L726.4625,758.8115 L722.2344,758.7349 L722.2367,758.8127 L717.3903,758.6852 L712.5432,758.5334 L707.6937,758.3009 L702.8563,758.4725 L698,758.0122 L697.9883,757.7415 L695.5487,758.1573 L693.0639,757.5232 L690.6033,757.4544 L688.1523,757.6061 L685.6895,757.4824 L685.6901,757.495 L683.2926,757.1314 L680.9301,757.4014 L678.5378,757.1338 L676.1683,757.2756 L673.7656,756.8208 L673.7871,757.1165 L671.5211,756.4605 L669.2927,756.3212 L667.0712,756.2787 L664.8567,756.3319 L662.6152,756.0127 L662.6325,756.191 L660.6301,755.9521 L658.6045,755.4737 L656.6484,755.7127 L654.6502,755.5177 L652.625,755.0435 L652.6216,755.0227 L649.617,754.4426 L646.6146,753.8753 L643.6375,753.4611 L640.6725,753.1193 L637.6719,752.563 L637.6566,752.5367 L636.4441,751.7423 L635.5121,751.4299 L634.1662,750.4062 L633.2467,750.1153 L632,749.2622 L633.1393,749.2622 L632.9916,739.493 L633.8467,729.7237 L631.3443,719.9545 L631.1983,710.1853 L633.3837,700.4161 L630.4083,690.6468 L631.376,680.8776 L632.308,671.1084 L632.1832,661.3391 L631.0441,651.5699 L631.8854,641.8007 L633.9856,632.0314 L632,622.2622 " fill="none" style="stroke:#181818;stroke-width:4.0;"/><path d="M632,622.2622 L632,622.2622 L632.047,622.3429 L633.0418,622.7632 L634.312,623.6568 L635.4925,624.3962 L636.378,624.6288 L637.6719,625.563 L637.6662,625.5289 L640.6315,625.8721 L643.6252,626.387 L646.6388,627.0214 L649.5841,627.2442 L652.625,628.0435 L652.6488,628.2884 L654.596,627.9585 L656.6126,628.3437 L658.6377,628.8161 L660.6135,628.7809 L662.6152,629.0127 L662.6174,629.0429 L664.8443,629.1602 L667.0811,629.4151 L669.3132,629.6036 L671.5544,629.9188 L673.7656,629.8208 L673.7821,630.1186 L676.1671,630.2546 L678.5414,630.1984 L680.9313,630.4235 L683.322,630.6617 L685.6895,630.4824 L685.6757,630.1622 L688.1645,630.8897 L690.608,630.5627 L693.086,631.0373 L695.5284,630.6864 L698,631.0122 L697.9991,630.9818 L702.8567,631.4862 L707.6931,631.2796 L712.542,631.4926 L717.392,631.7408 L722.2344,631.7349 L722.2376,631.9198 L726.4625,631.8074 L730.6929,632.0109 L734.9143,631.7032 L739.1491,632.1581 L743.375,632.106 L743.3768,632.3496 L747.5015,632.3348 L751.6271,632.4409 L755.7484,631.985 L759.8728,631.9411 L764,632.2622 L764,632.2622 L763.9979,631.986 L768.1248,632.2048 L772.2493,632.1124 L776.3773,632.4713 L780.4994,632.0596 L784.625,632.106 L784.6223,631.9535 L788.8549,632.1332 L793.076,631.6612 L797.3053,631.6526 L801.5426,632.0975 L805.7656,631.7349 L805.7714,631.9284 L810.6222,631.9166 L815.4551,631.3028 L820.3105,631.4431 L825.1609,631.419 L830,631.0122 L829.991,630.8024 L832.4603,630.8637 L834.9266,630.8562 L837.3988,630.9837 L839.8484,630.5865 L842.3105,630.4824 L842.3219,630.6877 L844.6817,630.1044 L847.0634,629.9172 L849.4772,630.3089 L851.832,629.635 L854.2344,629.8208 L854.2507,630.0464 L856.4711,629.7508 L858.6859,629.3788 L860.9132,629.1791 L863.1694,629.3777 L865.3848,629.0127 L865.3719,628.8803 L867.4082,629.0807 L869.3571,628.3805 L871.4054,628.7043 L873.3977,628.4515 L875.375,628.0435 L875.3928,628.1509 L878.3691,627.5681 L881.4091,627.3699 L884.3915,626.8242 L887.3498,626.1333 L890.3281,625.563 L890.3881,625.666 L891.4334,624.8528 L892.757,624.5179 L893.7659,623.642 L894.9042,622.9887 L896,622.2622 " fill="none" style="stroke:#181818;stroke-width:4.0;"/><text fill="#000000" font-family="Chalkduster" font-size="24" font-weight="bold" lengthAdjust="spacing" textLength="126" x="701" y="658.1031">Storage 2</text></g><!--cluster stor3--><g id="cluster_stor3"><path d="M39,622.2622 L39,622.2622 L39.0478,622.3425 L40.0144,621.4438 L41.2611,621.0157 L42.4167,620.4344 L43.2722,619.3492 L44.543,618.9614 L44.5372,618.9274 L47.4339,618.2785 L50.3598,617.8012 L53.3059,617.4433 L56.1822,616.6741 L59.1563,616.481 L59.1806,616.7258 L61.0812,616.0084 L63.0528,616.0058 L65.0331,616.0905 L66.963,615.6676 L68.9194,615.5117 L68.9217,615.542 L71.0978,615.3359 L73.2841,615.2676 L75.4655,615.1329 L77.6563,615.1248 L79.8164,614.7036 L79.8333,615.0014 L82.1641,614.8727 L84.484,614.552 L86.8198,614.5124 L89.1564,614.4859 L91.4692,614.042 L91.4551,613.7218 L93.8887,614.2373 L96.2757,613.6984 L98.6981,613.9611 L101.0842,613.3984 L103.5,613.5122 L103.4991,613.4818 L108.2468,613.6971 L112.9728,613.2015 L117.7116,613.1254 L122.4515,613.0845 L127.1836,612.7896 L127.1869,612.9745 L131.3156,612.7136 L135.4499,612.7687 L139.5751,612.3125 L143.714,612.6191 L147.8438,612.4185 L147.8456,612.6621 L151.8765,612.5848 L155.9084,612.6284 L159.9358,612.11 L163.9665,612.0036 L168,612.2622 L168,612.2622 L167.9979,611.986 L172.031,612.2673 L176.0618,612.2374 L180.0961,612.6588 L184.1244,612.3096 L188.1563,612.4185 L188.1535,612.266 L192.2901,612.5941 L196.415,612.2706 L200.5482,612.4104 L204.6896,613.0037 L208.8164,612.7896 L208.8223,612.9831 L213.5631,613.2604 L218.2855,612.9357 L223.0309,613.3649 L227.7713,613.63 L232.5,613.5122 L232.4908,613.3025 L234.9043,613.5756 L237.3148,613.7801 L239.7312,614.1195 L242.1245,613.9342 L244.5308,614.042 L244.5424,614.2473 L246.8474,613.9286 L249.1748,614.0061 L251.5351,614.6624 L253.835,614.2532 L256.1836,614.7036 L256.2003,614.9292 L258.3698,614.9568 L260.5336,614.9081 L262.7101,615.0317 L264.9163,615.5534 L267.0806,615.5117 L267.0674,615.3793 L269.0592,615.9673 L270.9616,615.655 L272.9656,616.3663 L274.9124,616.5013 L276.8438,616.481 L276.862,616.5883 L279.7699,616.9977 L282.7431,617.7915 L285.6574,618.2381 L288.547,618.5395 L291.457,618.9614 L291.518,619.0638 L292.536,619.5718 L293.8371,620.5553 L294.818,621.001 L295.9306,621.668 L297,622.2622 L295.3777,622.2622 L295.9194,632.0314 L298.4153,641.8007 L298.146,651.5699 L296.8855,661.3391 L296.1409,671.1084 L296.4162,680.8776 L295.1702,690.6468 L298.106,700.4161 L298.9722,710.1853 L298.4037,719.9545 L298.8532,729.7237 L296.6354,739.493 L297,749.2622 L297,749.2622 L297.0198,749.2955 L295.8033,749.7744 L294.8474,750.691 L293.7303,751.3369 L292.6912,752.1138 L291.457,752.563 L291.44,752.4624 L288.5244,753.0002 L285.6447,753.7495 L282.7313,754.2999 L279.7283,754.3228 L276.8438,755.0435 L276.8352,754.9577 L274.8977,755.3033 L272.9117,755.161 L271.0014,755.7813 L269.0445,755.933 L267.0806,756.0127 L267.0773,755.968 L264.9058,756.2374 L262.7457,756.6589 L260.5321,756.3589 L258.3733,756.7988 L256.1836,756.8208 L256.1908,756.9476 L253.8559,757.0045 L251.526,757.148 L249.1948,757.2681 L246.8456,757.0731 L244.5308,757.4824 L244.5229,757.3045 L242.1156,757.3835 L239.7197,757.7227 L237.314,757.8394 L234.9093,757.9781 L232.5,758.0122 L232.4961,757.8829 L227.7624,758.1267 L223.0249,758.2479 L218.2977,758.7021 L213.5589,758.7798 L208.8164,758.7349 L208.8125,758.5191 L204.6838,758.7767 L200.5477,758.6268 L196.4226,759.0857 L192.2931,759.3021 L188.1563,759.106 L188.1581,759.348 L184.1235,758.9436 L180.0953,759.3747 L176.0599,758.8696 L172.0319,759.3199 L168,759.2622 L168,759.2622 L167.999,759.1292 L163.9691,759.2739 L159.9383,759.3065 L155.9079,759.3783 L151.8725,758.8173 L147.8438,759.106 L147.8475,759.3172 L143.7131,759.1109 L139.5825,759.1154 L135.4536,759.2156 L131.3157,758.8115 L127.1836,758.7349 L127.186,758.8127 L122.4498,758.6852 L117.7128,758.5334 L112.9734,758.3009 L108.2464,758.4725 L103.5,758.0122 L103.4881,757.7415 L101.1049,758.1572 L98.6755,757.5232 L96.271,757.4544 L93.8762,757.6061 L91.4692,757.4824 L91.47,757.495 L89.1263,757.1314 L86.8185,757.4014 L84.4803,757.1338 L82.1653,757.2756 L79.8164,756.8208 L79.8383,757.1165 L77.6223,756.4605 L75.4445,756.3212 L73.274,756.2787 L71.1105,756.3319 L68.9194,756.0127 L68.9371,756.1909 L66.98,755.952 L64.9991,755.4738 L63.0895,755.7126 L61.1367,755.5176 L59.1563,755.0435 L59.1527,755.0227 L56.2158,754.4426 L53.2811,753.8754 L50.3723,753.4612 L47.4758,753.1193 L44.543,752.563 L44.5274,752.5369 L43.3394,751.7433 L42.4366,751.4288 L41.1128,750.4073 L40.2228,750.1142 L39,749.2622 L40.1393,749.2622 L39.9916,739.493 L40.8467,729.7237 L38.3443,719.9545 L38.1983,710.1853 L40.3837,700.4161 L37.4083,690.6468 L38.376,680.8776 L39.308,671.1084 L39.1832,661.3391 L38.0441,651.5699 L38.8854,641.8007 L40.9856,632.0314 L39,622.2622 " fill="none" style="stroke:#181818;stroke-width:4.0;"/><path d="M39,622.2622 L39,622.2622 L39.0478,622.3425 L40.0144,622.7642 L41.2611,623.6563 L42.4167,624.3953 L43.2722,624.6304 L44.543,625.563 L44.5372,625.5289 L47.4339,625.8722 L50.3598,626.3871 L53.3059,627.0214 L56.1822,627.2444 L59.1563,628.0435 L59.1806,628.2883 L61.0812,627.9586 L63.0528,628.3437 L65.0331,628.816 L66.963,628.7809 L68.9194,629.0127 L68.9217,629.0429 L71.0978,629.1602 L73.2841,629.4151 L75.4655,629.6036 L77.6563,629.9188 L79.8164,629.8208 L79.8333,630.1186 L82.1641,630.2545 L84.484,630.1984 L86.8198,630.4235 L89.1564,630.6617 L91.4692,630.4824 L91.4551,630.1622 L93.8887,630.8897 L96.2757,630.5627 L98.6981,631.0373 L101.0842,630.6865 L103.5,631.0122 L103.4991,630.9818 L108.2468,631.4862 L112.9728,631.2796 L117.7116,631.4926 L122.4515,631.7408 L127.1836,631.7349 L127.1869,631.9198 L131.3156,631.8074 L135.4499,632.0109 L139.5751,631.7032 L143.714,632.1581 L147.8438,632.106 L147.8456,632.3496 L151.8765,632.3348 L155.9084,632.4409 L159.9358,631.985 L163.9665,631.9411 L168,632.2622 L168,632.2622 L167.9979,631.986 L172.031,632.2048 L176.0618,632.1124 L180.0961,632.4713 L184.1244,632.0596 L188.1563,632.106 L188.1535,631.9535 L192.2901,632.1332 L196.415,631.6612 L200.5482,631.6526 L204.6896,632.0975 L208.8164,631.7349 L208.8223,631.9284 L213.5631,631.9166 L218.2855,631.3029 L223.0309,631.4431 L227.7713,631.419 L232.5,631.0122 L232.4908,630.8025 L234.9043,630.8637 L237.3148,630.8562 L239.7312,630.9837 L242.1245,630.5865 L244.5308,630.4824 L244.5424,630.6877 L246.8474,630.1044 L249.1748,629.9173 L251.5351,630.3089 L253.835,629.635 L256.1836,629.8208 L256.2003,630.0464 L258.3698,629.7508 L260.5336,629.3788 L262.7101,629.1791 L264.9163,629.3777 L267.0806,629.0127 L267.0674,628.8803 L269.0592,629.0806 L270.9616,628.3805 L272.9656,628.7042 L274.9124,628.4515 L276.8438,628.0435 L276.862,628.1508 L279.7699,627.5681 L282.7431,627.3697 L285.6574,626.824 L288.547,626.1332 L291.457,625.563 L291.518,625.6654 L292.536,624.8531 L293.8371,624.5163 L294.818,623.6417 L295.9306,622.9883 L297,622.2622 " fill="none" style="stroke:#181818;stroke-width:4.0;"/><text fill="#000000" font-family="Chalkduster" font-size="24" font-weight="bold" lengthAdjust="spacing" textLength="129" x="103.5" y="658.1031">Storage 3</text></g><!--entity api1--><g id="elem_api1"><polygon fill="none" points="424,506.2622,424,506.4724,434.6667,505.8479,445.3333,506.4555,456,506.6619,466.6667,505.5488,477.3333,506.1845,488,506.2622,487.9456,506.1309,488.3046,506.2906,488.6984,506.5341,488.9725,506.4886,489.4848,507.0185,489.7678,506.9944,489.5737,506.914,489.8533,507.3228,490.1937,507.7567,490.1807,508.0442,490.3746,508.4174,490.5,508.7622,490.4681,508.7622,490.6785,517.8882,490.7391,527.0141,491.0857,536.1401,491.1711,545.2661,490.5,554.392,490.7092,554.4787,490.432,554.7781,490.3499,555.1583,490.2769,555.5423,489.6921,555.7143,489.7678,556.1598,489.8543,556.3688,489.3764,556.2149,489.1288,556.6171,488.644,556.4467,488.3448,556.7245,488,556.892,488,557.6336,477.3333,556.8433,466.6667,556.9973,456,557.2307,445.3333,557.3083,434.6667,556.8881,424,556.892,424.0366,556.9805,423.5734,556.5693,423.3292,556.6867,423.0093,556.6215,422.6425,556.4432,422.2322,556.1598,422.421,556.238,421.937,555.7446,421.7385,555.3695,421.6015,555.0199,421.6283,554.7381,421.5,554.392,421.3035,554.392,422.1814,545.2661,421.3253,536.1401,421.1569,527.0141,421.7283,517.8882,421.5,508.7622,421.2946,508.6771,421.4866,508.3424,421.9927,508.1379,422.0735,507.7571,422.312,507.4417,422.2322,506.9944,422.1912,506.8953,422.6265,506.9463,423.0147,506.8834,423.2326,506.4096,423.6342,506.3791,424,506.2622" style="stroke:#181818;stroke-width:4.0;"/><text fill="#000000" font-family="Chalkduster" font-size="24" lengthAdjust="spacing" textLength="49" x="431.5" y="540.1031">API</text></g><!--entity api2--><g id="elem_api2"><polygon fill="none" points="69,506.2622,69,506.4724,79.6667,505.8479,90.3333,506.4555,101,506.6619,111.6667,505.5488,122.3333,506.1845,133,506.2622,132.9456,506.1309,133.3046,506.2906,133.6984,506.5341,133.9725,506.4886,134.4848,507.0185,134.7678,506.9944,134.5737,506.914,134.8533,507.3228,135.1937,507.7567,135.1807,508.0442,135.3746,508.4174,135.5,508.7622,135.4681,508.7622,135.6785,517.8882,135.7391,527.0141,136.0857,536.1401,136.1711,545.2661,135.5,554.392,135.7092,554.4787,135.432,554.7781,135.3499,555.1583,135.2769,555.5423,134.6921,555.7143,134.7678,556.1598,134.8543,556.3688,134.3764,556.2149,134.1288,556.6171,133.644,556.4467,133.3448,556.7245,133,556.892,133,557.6336,122.3333,556.8433,111.6667,556.9973,101,557.2307,90.3333,557.3083,79.6667,556.8881,69,556.892,69.0366,556.9805,68.5734,556.5693,68.3292,556.6867,68.0093,556.6215,67.6425,556.4432,67.2322,556.1598,67.421,556.238,66.937,555.7446,66.7385,555.3695,66.6015,555.0199,66.6283,554.7381,66.5,554.392,66.3035,554.392,67.1814,545.2661,66.3253,536.1401,66.1569,527.0141,66.7283,517.8882,66.5,508.7622,66.2946,508.6771,66.4866,508.3424,66.9927,508.1379,67.0735,507.7571,67.312,507.4417,67.2322,506.9944,67.1912,506.8953,67.6265,506.9463,68.0147,506.8834,68.2326,506.4096,68.6342,506.3791,69,506.2622" style="stroke:#181818;stroke-width:4.0;"/><text fill="#000000" font-family="Chalkduster" font-size="24" lengthAdjust="spacing" textLength="49" x="76.5" y="540.1031">API</text></g><!--entity i1--><g id="elem_i1"><path d="M569.5,285.2622 L569.5,285.2622 L569.5525,285.3395 L571.0997,283.9536 L572.9545,283.0208 L574.7092,281.9404 L576.1344,280.3749 L578.0156,279.481 L578.0102,279.4468 L581.7328,278.7 L585.4827,278.1251 L589.2515,277.6698 L592.955,276.8025 L596.75,276.5122 L596.7643,276.7579 L600.4805,276.0138 L604.2386,275.987 L608.0018,276.0476 L611.7353,275.5992 L615.4844,275.4185 L615.4849,275.4488 L617.1872,275.373 L618.8921,275.4353 L620.5957,275.431 L622.3017,275.5537 L624,275.2622 L624,275.2622 L624.0055,275.5604 L625.7087,275.5953 L627.4083,275.4379 L629.1132,275.562 L630.8182,275.6993 L632.5156,275.4185 L632.4969,275.0985 L636.2801,275.9383 L640.0017,275.7244 L643.7701,276.3116 L647.4903,276.0738 L651.25,276.5122 L651.2452,276.4821 L655.0485,277.4315 L658.7404,277.6783 L662.4979,278.3397 L666.2611,279.0359 L669.9844,279.481 L670.0883,279.634 L671.6865,280.6358 L673.4623,281.8991 L674.9509,282.7392 L676.8679,284.2105 L678.5,285.2622 L679.9619,285.2622 L679.6854,295.2993 L680.1347,305.3364 L677.2118,315.3735 L676.7608,325.4106 L676.8429,335.4477 L678.343,345.4848 L678.5,355.5219 L678.5,355.5219 L678.4509,355.4496 L676.967,356.9287 L675.0501,357.7701 L673.305,358.8645 L671.7445,360.2308 L669.9844,361.3031 L669.938,361.0104 L666.2014,361.669 L662.5358,362.7755 L658.7741,363.2756 L655.048,364.0005 L651.25,364.2719 L651.2417,364.1291 L647.5114,364.6323 L643.7715,364.9713 L639.9971,364.7185 L636.26,365.1043 L632.5156,365.3656 L632.5167,365.4216 L630.8178,365.6865 L629.1093,365.4263 L627.41,365.6649 L625.6986,365.2445 L624,365.5219 L624,365.5219 L623.9945,365.2209 L622.301,365.7144 L620.5879,365.1408 L618.8948,365.6543 L617.1892,365.4887 L615.4844,365.3656 L615.4774,365.2468 L611.7283,364.9899 L608.0025,365.1317 L604.236,364.5766 L600.5122,364.7532 L596.75,364.2719 L596.7116,364.0292 L593.0461,363.9492 L589.2899,363.297 L585.5264,362.5982 L581.7658,361.9176 L578.0156,361.3031 L578.197,361.5703 L576.4657,360.3725 L574.6516,359.0529 L572.9732,357.933 L571.1706,356.6302 L569.5,355.5219 L571.4105,355.5219 L569.913,345.4848 L569.9602,335.4477 L567.8777,325.4106 L568.4194,315.3735 L570.9153,305.3364 L570.646,295.2993 L569.5,285.2622 " fill="none" style="stroke:#181818;stroke-width:4.0;"/><path d="M569.5,285.2622 L569.5,285.2622 L569.5525,285.3395 L571.0997,286.2661 L572.9545,287.6458 L574.7092,288.8779 L576.1344,289.6249 L578.0156,291.0435 L578.0102,291.0093 L581.7328,291.45 L585.4827,292.0626 L589.2515,292.7948 L592.955,293.115 L596.75,294.0122 L596.7643,294.2579 L600.4805,293.9513 L604.2386,294.362 L608.0018,294.8601 L611.7353,294.8492 L615.4844,295.106 L615.4849,295.1363 L617.1872,295.123 L618.8921,295.2478 L620.5957,295.306 L622.3017,295.4912 L624,295.2622 L624,295.2622 L624.0055,295.5604 L625.7087,295.5328 L627.4083,295.3129 L629.1132,295.3745 L630.8182,295.4493 L632.5156,295.106 L632.4969,294.786 L636.2801,295.1883 L640.0017,294.5369 L643.7701,294.6866 L647.4903,294.0113 L651.25,294.0122 L651.2452,293.9821 L655.0485,293.744 L658.7404,292.8033 L662.4979,292.2772 L666.2611,291.7859 L669.9844,291.0435 L670.0883,291.1965 L671.6865,289.8858 L673.4623,288.8366 L674.9509,287.3642 L676.8679,286.523 L678.5,285.2622 " fill="none" style="stroke:#181818;stroke-width:4.0;"/><text fill="#000000" font-family="Chalkduster" font-size="24" lengthAdjust="spacing" textLength="89" x="579.5" y="323.1031">Index:</text><text fill="#000000" font-family="Chalkduster" font-size="24" lengthAdjust="spacing" textLength="35" x="591.5" y="353.7329">1,2</text></g><!--entity i2--><g id="elem_i2"><path d="M333,285.2622 L333,285.2622 L333.0479,285.3424 L334.8431,283.9478 L336.919,283.0235 L338.9035,281.946 L340.5875,280.3649 L342.6875,279.481 L342.6814,279.447 L344.64,278.9389 L346.6293,278.6022 L348.64,278.3847 L350.5771,277.7566 L352.6172,277.7036 L352.6428,277.9483 L354.8646,277.1867 L357.1612,277.1396 L359.4669,277.1797 L361.7195,276.7126 L364,276.5122 L364.0019,276.5425 L366.2757,276.3535 L368.5582,276.3023 L370.8364,276.1847 L373.1227,276.1939 L375.3828,275.7896 L375.394,276.0876 L377.38,276.017 L379.3589,275.7542 L381.3483,275.7728 L383.3382,275.8046 L385.3125,275.4185 L385.3073,275.098 L387.2549,275.6887 L389.1854,275.2242 L391.1288,275.5619 L393.059,275.0735 L395,275.2622 L395,275.2622 L394.9995,275.2318 L396.9428,275.623 L398.8747,275.3031 L400.8133,275.4028 L402.7524,275.5377 L404.6875,275.4185 L404.6944,275.6033 L406.6734,275.4909 L408.6641,275.6945 L410.6358,275.3869 L412.636,275.8416 L414.6172,275.7896 L414.6326,276.0327 L416.9063,276.1313 L419.1876,276.3505 L421.4333,276.0089 L423.7051,276.0784 L426,276.5122 L425.9713,276.2375 L428.2738,276.7245 L430.544,276.9019 L432.8612,277.5283 L435.0982,277.3881 L437.3828,277.7036 L437.3559,277.5535 L439.3866,278.159 L441.3025,278.1228 L443.3,278.5429 L445.3774,279.4094 L447.3125,279.481 L447.4117,279.6472 L449.4173,280.9175 L451.1142,281.6706 L453.1977,283.0715 L455.197,284.3313 L457,285.2622 L455.7403,285.2622 L456.7444,295.2993 L457.336,305.3364 L458.738,315.3735 L456.9888,325.4106 L458.2335,335.4477 L455.5232,345.4848 L457,355.5219 L457,355.5219 L456.8457,355.2634 L455.1772,356.8703 L452.9617,357.5608 L451.3034,359.1849 L449.2971,360.2257 L447.3125,361.3031 L447.2915,361.1859 L445.2989,361.5038 L443.3765,362.2148 L441.3312,362.2386 L439.4151,362.9839 L437.3828,363.0805 L437.3572,362.8361 L435.1348,363.5917 L432.8521,363.7711 L430.5645,363.9036 L428.2787,364.0545 L426,364.2719 L426.0205,364.5942 L423.7407,364.6886 L421.4516,364.636 L419.1779,364.8244 L416.8901,364.7922 L414.6172,364.9945 L414.6291,365.3127 L412.6338,365.1375 L410.6482,365.2196 L408.6493,364.947 L406.6667,365.1114 L404.6875,365.3656 L404.6913,365.6015 L402.7531,365.5879 L400.8122,365.409 L398.8727,365.3162 L396.9359,365.3933 L395,365.5219 L395,365.5219 L394.9951,365.217 L393.0655,365.6749 L391.1303,365.788 L389.1913,365.6621 L387.255,365.7057 L385.3125,365.3656 L385.3102,365.3049 L383.328,365.3301 L381.3342,365.045 L379.3594,365.2691 L377.3728,365.1783 L375.3828,364.9945 L375.3984,365.2395 L373.0998,364.7481 L370.8259,364.6459 L368.5656,364.7576 L366.2925,364.6681 L364,364.2719 L363.9763,364.0453 L361.7145,363.9479 L359.4538,363.8613 L357.1421,363.287 L354.9101,363.475 L352.6172,363.0805 L352.6374,363.1933 L350.6234,362.6809 L348.6565,362.4318 L346.7164,362.3329 L344.6489,361.5217 L342.6875,361.3031 L342.7592,361.4233 L340.8151,360.2559 L338.8389,359.0348 L336.9071,357.8882 L334.9633,356.7214 L333,355.5219 L331.3356,355.5219 L331.9312,345.4848 L331.7692,335.4477 L333.1702,325.4106 L333.235,315.3735 L333.4313,305.3364 L332.2241,295.2993 L333,285.2622 " fill="none" style="stroke:#181818;stroke-width:4.0;"/><path d="M333,285.2622 L333,285.2622 L333.0479,285.3424 L334.8431,286.2603 L336.919,287.6485 L338.9035,288.8835 L340.5875,289.6149 L342.6875,291.0435 L342.6814,291.0095 L344.64,291.2123 L346.6293,291.5866 L348.64,292.08 L350.5771,292.1629 L352.6172,292.8208 L352.6428,293.0655 L354.8646,292.7805 L357.1612,293.2099 L359.4669,293.7266 L361.7195,293.736 L364,294.0122 L364.0019,294.0425 L366.2757,294.1426 L368.5582,294.3805 L370.8364,294.5519 L373.1227,294.8501 L375.3828,294.7349 L375.394,295.0329 L377.38,295.1108 L379.3589,294.9964 L381.3483,295.1634 L383.3382,295.3436 L385.3125,295.106 L385.3073,294.7855 L387.2549,295.4387 L389.1854,295.0367 L391.1288,295.4369 L393.059,295.011 L395,295.2622 L395,295.2622 L394.9995,295.2318 L396.9428,295.5605 L398.8747,295.1781 L400.8133,295.2153 L402.7524,295.2877 L404.6875,295.106 L404.6944,295.2908 L406.6734,295.03 L408.6641,295.0851 L410.6358,294.6291 L412.636,294.9354 L414.6172,294.7349 L414.6326,294.978 L416.9063,294.7875 L419.1876,294.7177 L421.4333,294.087 L423.7051,293.8675 L426,294.0122 L425.9713,293.7375 L428.2738,293.7479 L430.544,293.4488 L432.8612,293.5986 L435.0982,292.9819 L437.3828,292.8208 L437.3559,292.6707 L439.3866,292.5652 L441.3025,291.8181 L443.3,291.5273 L445.3774,291.6828 L447.3125,291.0435 L447.4117,291.2097 L449.4173,290.1675 L451.1142,288.6081 L453.1977,287.6965 L455.197,286.6438 L457,285.2622 " fill="none" style="stroke:#181818;stroke-width:4.0;"/><text fill="#000000" font-family="Chalkduster" font-size="24" lengthAdjust="spacing" textLength="89" x="343" y="323.1031">Index:</text><text fill="#000000" font-family="Chalkduster" font-size="24" lengthAdjust="spacing" textLength="92" x="355" y="353.7329">1,2,3 4</text></g><!--entity i3--><g id="elem_i3"><path d="M88,285.2622 L88,285.2622 L88.0479,285.3424 L89.8431,283.9478 L91.919,283.0235 L93.9035,281.946 L95.5875,280.3649 L97.6875,279.481 L97.6814,279.447 L99.64,278.9389 L101.6293,278.6022 L103.64,278.3847 L105.5771,277.7566 L107.6172,277.7036 L107.6428,277.9483 L109.8646,277.1867 L112.1612,277.1396 L114.4669,277.1797 L116.7195,276.7126 L119,276.5122 L119.0019,276.5425 L121.2757,276.3535 L123.5582,276.3023 L125.8364,276.1847 L128.1227,276.1939 L130.3828,275.7896 L130.394,276.0876 L132.38,276.017 L134.3589,275.7542 L136.3483,275.7728 L138.3382,275.8046 L140.3125,275.4185 L140.3073,275.098 L142.2549,275.6887 L144.1854,275.2242 L146.1288,275.5619 L148.059,275.0735 L150,275.2622 L150,275.2622 L149.9995,275.2318 L151.9428,275.623 L153.8747,275.3031 L155.8133,275.4028 L157.7524,275.5377 L159.6875,275.4185 L159.6944,275.6033 L161.6734,275.4909 L163.6641,275.6945 L165.6358,275.3869 L167.636,275.8416 L169.6172,275.7896 L169.6326,276.0327 L171.9063,276.1313 L174.1876,276.3505 L176.4333,276.0089 L178.7051,276.0784 L181,276.5122 L180.9713,276.2375 L183.2738,276.7245 L185.544,276.9019 L187.8612,277.5283 L190.0982,277.3881 L192.3828,277.7036 L192.3559,277.5535 L194.3866,278.159 L196.3025,278.1228 L198.3,278.5429 L200.3774,279.4094 L202.3125,279.481 L202.4117,279.6472 L204.4173,280.9175 L206.1142,281.6706 L208.1977,283.0715 L210.197,284.3313 L212,285.2622 L210.7403,285.2622 L211.7444,295.2993 L212.336,305.3364 L213.738,315.3735 L211.9888,325.4106 L213.2335,335.4477 L210.5232,345.4848 L212,355.5219 L212,355.5219 L211.8457,355.2634 L210.1772,356.8703 L207.9617,357.5608 L206.3034,359.1849 L204.2971,360.2257 L202.3125,361.3031 L202.2915,361.1859 L200.2989,361.5038 L198.3765,362.2148 L196.3312,362.2386 L194.4151,362.9839 L192.3828,363.0805 L192.3572,362.8361 L190.1348,363.5917 L187.8521,363.7711 L185.5645,363.9036 L183.2787,364.0545 L181,364.2719 L181.0205,364.5942 L178.7407,364.6886 L176.4516,364.636 L174.1779,364.8244 L171.8901,364.7922 L169.6172,364.9945 L169.6291,365.3127 L167.6338,365.1375 L165.6482,365.2196 L163.6493,364.947 L161.6667,365.1114 L159.6875,365.3656 L159.6913,365.6015 L157.7531,365.5879 L155.8122,365.409 L153.8727,365.3162 L151.9359,365.3933 L150,365.5219 L150,365.5219 L149.9951,365.217 L148.0655,365.6749 L146.1303,365.788 L144.1913,365.6621 L142.255,365.7057 L140.3125,365.3656 L140.3102,365.3049 L138.328,365.3301 L136.3342,365.045 L134.3594,365.2691 L132.3728,365.1783 L130.3828,364.9945 L130.3984,365.2395 L128.0998,364.7481 L125.8259,364.6459 L123.5656,364.7576 L121.2925,364.6681 L119,364.2719 L118.9763,364.0453 L116.7145,363.9479 L114.4538,363.8613 L112.1421,363.287 L109.9101,363.475 L107.6172,363.0805 L107.6374,363.1933 L105.6234,362.6809 L103.6565,362.4318 L101.7164,362.3329 L99.6489,361.5217 L97.6875,361.3031 L97.7592,361.4233 L95.8151,360.2559 L93.8389,359.0348 L91.9071,357.8882 L89.9633,356.7214 L88,355.5219 L86.3356,355.5219 L86.9312,345.4848 L86.7692,335.4477 L88.1702,325.4106 L88.235,315.3735 L88.4313,305.3364 L87.2241,295.2993 L88,285.2622 " fill="none" style="stroke:#181818;stroke-width:4.0;"/><path d="M88,285.2622 L88,285.2622 L88.0479,285.3424 L89.8431,286.2603 L91.919,287.6485 L93.9035,288.8835 L95.5875,289.6149 L97.6875,291.0435 L97.6814,291.0095 L99.64,291.2123 L101.6293,291.5866 L103.64,292.08 L105.5771,292.1629 L107.6172,292.8208 L107.6428,293.0655 L109.8646,292.7805 L112.1612,293.2099 L114.4669,293.7266 L116.7195,293.736 L119,294.0122 L119.0019,294.0425 L121.2757,294.1426 L123.5582,294.3805 L125.8364,294.5519 L128.1227,294.8501 L130.3828,294.7349 L130.394,295.0329 L132.38,295.1108 L134.3589,294.9964 L136.3483,295.1634 L138.3382,295.3436 L140.3125,295.106 L140.3073,294.7855 L142.2549,295.4387 L144.1854,295.0367 L146.1288,295.4369 L148.059,295.011 L150,295.2622 L150,295.2622 L149.9995,295.2318 L151.9428,295.5605 L153.8747,295.1781 L155.8133,295.2153 L157.7524,295.2877 L159.6875,295.106 L159.6944,295.2908 L161.6734,295.03 L163.6641,295.0851 L165.6358,294.6291 L167.636,294.9354 L169.6172,294.7349 L169.6326,294.978 L171.9063,294.7875 L174.1876,294.7177 L176.4333,294.087 L178.7051,293.8675 L181,294.0122 L180.9713,293.7375 L183.2738,293.7479 L185.544,293.4488 L187.8612,293.5986 L190.0982,292.9819 L192.3828,292.8208 L192.3559,292.6707 L194.3866,292.5652 L196.3025,291.8181 L198.3,291.5273 L200.3774,291.6828 L202.3125,291.0435 L202.4117,291.2097 L204.4173,290.1675 L206.1142,288.6081 L208.1977,287.6965 L210.197,286.6438 L212,285.2622 " fill="none" style="stroke:#181818;stroke-width:4.0;"/><text fill="#000000" font-family="Chalkduster" font-size="24" lengthAdjust="spacing" textLength="89" x="98" y="323.1031">Index:</text><text fill="#000000" font-family="Chalkduster" font-size="24" lengthAdjust="spacing" textLength="92" x="110" y="353.7329">1,2,3 4</text></g><!--entity Obj1--><g id="elem_Obj1"><polygon fill="none" points="493,684.2622,493,684.4724,503.2857,683.8479,513.5714,684.4555,523.8571,684.6619,534.1429,683.5488,544.4286,684.1845,554.7143,683.8357,565,684.2622,564.9511,684.1441,565.3449,684.3877,565.6189,684.3422,566.1313,684.8721,566.3338,684.6539,566.7678,684.9944,566.7069,684.9692,567.0472,685.4031,567.0342,685.6906,567.2281,686.0638,567.3437,686.4046,567.5,686.7622,567.6785,686.7622,567.7391,695.8882,568.0857,705.0141,568.1711,714.1401,568.1793,723.2661,567.5,732.392,567.5784,732.4245,567.4963,732.8047,567.4234,733.1887,566.8386,733.3607,567.1232,733.8928,566.7678,734.1598,566.7299,734.0685,566.4823,734.4707,565.9975,734.3003,565.6984,734.5781,565.4482,734.974,565,734.892,565,734.8433,554.7143,734.9973,544.4286,735.2307,534.1429,735.3083,523.8571,734.8881,513.5714,735.1793,503.2857,734.3196,493,734.892,493.0363,734.9796,492.7164,734.9144,492.3496,734.736,492.0175,734.6415,491.5242,734.1575,491.2322,734.1598,491.0314,734.0766,490.8944,733.727,490.9212,733.4452,490.7324,733.0741,490.8563,732.8325,490.5,732.392,490.3253,732.392,490.1569,723.2661,490.7283,714.1401,489.8332,705.0141,489.9809,695.8882,490.5,686.7622,490.6999,686.845,490.7806,686.4642,491.0191,686.1488,490.8402,685.6605,491.1841,685.3887,491.2322,684.9944,491.3075,685.1763,491.5255,684.7025,491.9271,684.672,492.309,684.5939,492.7296,684.6094,493,684.2622" style="stroke:#181818;stroke-width:4.0;"/><text fill="#000000" font-family="Chalkduster" font-size="24" lengthAdjust="spacing" textLength="57" x="500.5" y="718.1031">Obj1</text></g><!--entity Obj2--><g id="elem_Obj2"><polygon fill="none" points="383,684.2622,383,684.4724,393,683.8479,403,684.4555,413,684.6619,423,683.5488,433,684.1845,443,683.8357,453,684.2622,452.9511,684.1441,453.3449,684.3877,453.6189,684.3422,454.1313,684.8721,454.3338,684.6539,454.7678,684.9944,454.7069,684.9692,455.0472,685.4031,455.0342,685.6906,455.2281,686.0638,455.3437,686.4046,455.5,686.7622,455.6785,686.7622,455.7391,695.8882,456.0857,705.0141,456.1711,714.1401,456.1793,723.2661,455.5,732.392,455.5784,732.4245,455.4963,732.8047,455.4234,733.1887,454.8386,733.3607,455.1232,733.8928,454.7678,734.1598,454.7299,734.0685,454.4823,734.4707,453.9975,734.3003,453.6984,734.5781,453.4482,734.974,453,734.892,453,734.8433,443,734.9973,433,735.2307,423,735.3083,413,734.8881,403,735.1793,393,734.3196,383,734.892,383.0363,734.9796,382.7164,734.9144,382.3496,734.736,382.0175,734.6415,381.5242,734.1575,381.2322,734.1598,381.0314,734.0766,380.8944,733.727,380.9212,733.4452,380.7324,733.0741,380.8563,732.8325,380.5,732.392,380.3253,732.392,380.1569,723.2661,380.7283,714.1401,379.8332,705.0141,379.9809,695.8882,380.5,686.7622,380.6999,686.845,380.7806,686.4642,381.0191,686.1488,380.8402,685.6605,381.1841,685.3887,381.2322,684.9944,381.3075,685.1763,381.5255,684.7025,381.9271,684.672,382.309,684.5939,382.7296,684.6094,383,684.2622" style="stroke:#181818;stroke-width:4.0;"/><text fill="#000000" font-family="Chalkduster" font-size="24" lengthAdjust="spacing" textLength="55" x="390.5" y="718.1031">Obj2</text></g><!--entity Obj3--><g id="elem_Obj3"><polygon fill="none" points="796.5,684.2622,796.5,684.4724,806.9286,683.8479,817.3571,684.4555,827.7857,684.6619,838.2143,683.5488,848.6429,684.1845,859.0714,683.8357,869.5,684.2622,869.4511,684.1441,869.8449,684.3877,870.1189,684.3422,870.6313,684.8721,870.8338,684.6539,871.2678,684.9944,871.2069,684.9692,871.5472,685.4031,871.5342,685.6906,871.7281,686.0638,871.8437,686.4046,872,686.7622,872.1785,686.7622,872.2391,695.8882,872.5857,705.0141,872.6711,714.1401,872.6793,723.2661,872,732.392,872.0784,732.4245,871.9963,732.8047,871.9234,733.1887,871.3386,733.3607,871.6232,733.8928,871.2678,734.1598,871.2299,734.0685,870.9823,734.4707,870.4975,734.3003,870.1984,734.5781,869.9482,734.974,869.5,734.892,869.5,734.8433,859.0714,734.9973,848.6429,735.2307,838.2143,735.3083,827.7857,734.8881,817.3571,735.1793,806.9286,734.3196,796.5,734.892,796.5363,734.9796,796.2164,734.9144,795.8496,734.736,795.5175,734.6415,795.0242,734.1575,794.7322,734.1598,794.5314,734.0766,794.3944,733.727,794.4212,733.4452,794.2324,733.0741,794.3563,732.8325,794,732.392,793.8253,732.392,793.6569,723.2661,794.2283,714.1401,793.3332,705.0141,793.4809,695.8882,794,686.7622,794.1999,686.845,794.2806,686.4642,794.5191,686.1488,794.3402,685.6605,794.6841,685.3887,794.7322,684.9944,794.8075,685.1763,795.0255,684.7025,795.4271,684.672,795.809,684.5939,796.2296,684.6094,796.5,684.2622" style="stroke:#181818;stroke-width:4.0;"/><text fill="#000000" font-family="Chalkduster" font-size="24" lengthAdjust="spacing" textLength="58" x="804" y="718.1031">Obj3</text></g><!--entity Obj4--><g id="elem_Obj4"><polygon fill="none" points="677.5,684.2622,677.5,684.4724,687.375,683.8479,697.25,684.4555,707.125,684.6619,717,683.5488,726.875,684.1845,736.75,683.8357,746.625,683.8787,756.5,684.2622,756.4913,684.2412,756.7654,684.1957,757.2777,684.7256,757.4803,684.5074,757.889,684.7871,758.2678,684.9944,758.4008,685.0495,758.3878,685.3371,758.5817,685.7103,758.6973,686.051,758.9085,686.4314,759,686.7622,759.2391,686.7622,759.5857,695.8882,759.6711,705.0141,759.6793,714.1401,759.2546,723.2661,759,732.392,759.1428,732.4512,759.0698,732.8352,758.485,733.0072,758.7696,733.5393,758.3229,733.7684,758.2678,734.1598,758.3359,734.3242,757.8511,734.1538,757.5519,734.4316,757.3017,734.8275,756.8473,734.7306,756.5,734.892,756.5,734.9973,746.625,735.2307,736.75,735.3083,726.875,734.8881,717,735.1793,707.125,734.3196,697.25,735.1764,687.375,735.4402,677.5,734.892,677.5567,735.0289,677.2246,734.9344,676.7313,734.4504,676.3561,734.2519,676.0065,734.1149,675.7322,734.1598,675.7141,734.1523,675.5253,733.7812,675.6492,733.5396,675.2391,733.0769,675.0408,732.7018,675,732.392,675.2283,732.392,674.3332,723.2661,674.4809,714.1401,675.649,705.0141,675.4357,695.8882,675,686.7622,675.2262,686.8559,675.0473,686.3676,675.3912,686.0958,675.6212,685.7769,675.4403,685.2877,675.7322,684.9944,675.72,684.9649,676.1019,684.8868,676.5225,684.9023,676.7924,684.5538,677.2055,684.5511,677.5,684.2622" style="stroke:#181818;stroke-width:4.0;"/><text fill="#000000" font-family="Chalkduster" font-size="24" lengthAdjust="spacing" textLength="64" x="685" y="718.1031">Obj4</text></g><!--entity Obj5--><g id="elem_Obj5"><polygon fill="none" points="198,684.2622,198,684.4724,208.2857,683.8479,218.5714,684.4555,228.8571,684.6619,239.1429,683.5488,249.4286,684.1845,259.7143,683.8357,270,684.2622,269.9511,684.1441,270.3449,684.3877,270.6189,684.3422,271.1313,684.8721,271.3338,684.6539,271.7678,684.9944,271.7069,684.9692,272.0472,685.4031,272.0342,685.6906,272.2281,686.0638,272.3437,686.4046,272.5,686.7622,272.6785,686.7622,272.7391,695.8882,273.0857,705.0141,273.1711,714.1401,273.1793,723.2661,272.5,732.392,272.5784,732.4245,272.4963,732.8047,272.4234,733.1887,271.8386,733.3607,272.1232,733.8928,271.7678,734.1598,271.7299,734.0685,271.4823,734.4707,270.9975,734.3003,270.6984,734.5781,270.4482,734.974,270,734.892,270,734.8433,259.7143,734.9973,249.4286,735.2307,239.1429,735.3083,228.8571,734.8881,218.5714,735.1793,208.2857,734.3196,198,734.892,198.0363,734.9796,197.7164,734.9144,197.3496,734.736,197.0175,734.6415,196.5242,734.1575,196.2322,734.1598,196.0314,734.0766,195.8944,733.727,195.9212,733.4452,195.7324,733.0741,195.8563,732.8325,195.5,732.392,195.3253,732.392,195.1569,723.2661,195.7283,714.1401,194.8332,705.0141,194.9809,695.8882,195.5,686.7622,195.6999,686.845,195.7806,686.4642,196.0191,686.1488,195.8402,685.6605,196.1841,685.3887,196.2322,684.9944,196.3075,685.1763,196.5255,684.7025,196.9271,684.672,197.309,684.5939,197.7296,684.6094,198,684.2622" style="stroke:#181818;stroke-width:4.0;"/><text fill="#000000" font-family="Chalkduster" font-size="24" lengthAdjust="spacing" textLength="57" x="205.5" y="718.1031">Obj5</text></g><!--entity Obj6--><g id="elem_Obj6"><polygon fill="none" points="84.5,684.2622,84.5,684.4724,94.9286,683.8479,105.3571,684.4555,115.7857,684.6619,126.2143,683.5488,136.6429,684.1845,147.0714,683.8357,157.5,684.2622,157.4511,684.1441,157.8449,684.3877,158.1189,684.3422,158.6313,684.8721,158.8338,684.6539,159.2678,684.9944,159.2069,684.9692,159.5472,685.4031,159.5342,685.6906,159.7281,686.0638,159.8437,686.4046,160,686.7622,160.1785,686.7622,160.2391,695.8882,160.5857,705.0141,160.6711,714.1401,160.6793,723.2661,160,732.392,160.0784,732.4245,159.9963,732.8047,159.9234,733.1887,159.3386,733.3607,159.6232,733.8928,159.2678,734.1598,159.2299,734.0685,158.9823,734.4707,158.4975,734.3003,158.1984,734.5781,157.9482,734.974,157.5,734.892,157.5,734.8433,147.0714,734.9973,136.6429,735.2307,126.2143,735.3083,115.7857,734.8881,105.3571,735.1793,94.9286,734.3196,84.5,734.892,84.5363,734.9796,84.2164,734.9144,83.8496,734.736,83.5175,734.6415,83.0242,734.1575,82.7322,734.1598,82.5314,734.0766,82.3944,733.727,82.4212,733.4452,82.2324,733.0741,82.3563,732.8325,82,732.392,81.8253,732.392,81.6569,723.2661,82.2283,714.1401,81.3332,705.0141,81.4809,695.8882,82,686.7622,82.1999,686.845,82.2806,686.4642,82.5191,686.1488,82.3402,685.6605,82.6841,685.3887,82.7322,684.9944,82.8075,685.1763,83.0255,684.7025,83.4271,684.672,83.809,684.5939,84.2296,684.6094,84.5,684.2622" style="stroke:#181818;stroke-width:4.0;"/><text fill="#000000" font-family="Chalkduster" font-size="24" lengthAdjust="spacing" textLength="58" x="92" y="718.1031">Obj6</text></g><!--link p1 to p2--><!--link p2 to p3--><!--link api1 to stor1--><g id="link_api1_stor1"><path d="M415.68,551.1922 L415.7291,551.2717 L412.745,552.7894 L410.0488,554.7729 L407.2589,556.6048 L404.1607,557.9377 L401.4892,559.9613 L401.4686,559.9336 L398.5773,561.8981 L395.7901,564.0021 L393.0753,566.2031 L390.1111,568.0698 L387.4963,570.4047 L387.6652,570.5836 L384.7397,572.622 L382.3075,575.1827 L379.9354,577.8071 L377.2132,580.0607 L374.6752,582.5094 L374.6991,582.528 L372.5289,585.2513 L370.4678,588.0592 L368.354,590.8263 L366.3407,593.6713 L364,596.2622 L364.2595,596.4092 L363.3358,598.0469 L362.2447,599.5896 L361.3987,601.2712 L360.5641,602.9593 L359.3657,604.4413 L359.0763,604.3036 L359.2312,605.4262 L358.4331,606.0954 L358.3595,607.1093 L357.5397,607.7683 L357.3316,608.7181 L357.3037,608.7059 L357.4438,609.2854 L356.9319,609.5806 L356.8047,610.0435 L356.7098,610.5205 L356.3819,610.896 L356.5526,610.9672 L356.2886,611.1149 L356.3163,611.3843 L355.8721,611.4566 L356.1318,611.8229 L355.9235,611.9938 " fill="none" style="stroke:#8B0000;stroke-width:4.0;"/><polygon fill="#8B0000" points="420.06,548.7822,420.0659,548.852,418.0856,548.8118,416.1401,549.1808,414.1833,549.4166,412.1892,549.2141,410.2467,549.6183,410.2395,549.5934,411.2937,549.7968,412.3844,550.1256,413.5002,550.5416,414.529,550.6571,415.6798,551.1934,415.8571,551.2448,415.163,552.2216,414.9864,553.3483,414.873,554.4934,414.3922,555.532,414.1047,556.6266,414.1228,556.6403,415.2873,555.0513,416.5342,553.5248,417.7414,551.9682,419.0244,550.4691,420.06,548.7822" style="stroke:#8B0000;stroke-width:4.0;"/><polygon fill="#8B0000" points="355.9235,611.9938,355.9719,612.0445,357.253,610.5338,358.8177,609.3202,360.29,608.0099,361.4586,606.3814,363.0476,605.1933,363.0377,605.1694,361.9487,605.4974,360.9099,605.946,359.9061,606.4784,358.7819,606.722,357.8264,607.37,357.9967,607.4411,357.1971,606.2449,356.8948,605.2562,356.6532,604.2927,356.0586,603.182,355.6496,602.1488,355.6724,602.1494,355.6938,604.1175,355.8187,606.0884,355.8936,608.058,356.0639,610.0302,355.9235,611.9938" style="stroke:#8B0000;stroke-width:4.0;"/></g><!--link api1 to stor2--><g id="link_api1_stor2"><path d="M497.04,545.3722 L497.0737,545.4593 L499.0955,546.0204 L501.3148,547.0922 L503.4698,547.9977 L505.4134,548.3562 L507.6496,549.4719 L507.6361,549.4401 L509.8016,550.241 L512.035,551.2022 L514.3157,552.2749 L516.4336,552.9635 L518.7795,554.19 L518.8839,554.4129 L520.9462,555.0064 L523.3132,556.2506 L525.7174,557.5742 L527.9053,558.4359 L530.2069,559.5405 L530.221,559.5674 L532.5007,560.7273 L534.8443,562.0096 L537.1572,563.2328 L539.5287,564.5687 L541.7088,565.5372 L541.8596,565.7945 L544.1321,567.129 L546.3073,568.2975 L548.6249,569.709 L550.9492,571.1318 L553.062,572.1939 L552.884,571.9273 L555.4257,573.9108 L557.3815,575.0165 L559.7827,576.7895 L561.7251,577.8753 L564.0436,579.5244 L564.025,579.5003 L566.3224,581.3889 L568.1852,582.7145 L570.3044,584.3723 L572.4452,586.0581 L574.4306,587.5426 L574.5552,587.6793 L576.3433,589.2852 L578.3443,591.1248 L580.0009,592.5863 L582.1713,594.6117 L584,596.2622 L584.1793,596.4272 L585.5521,597.9242 L587.0139,599.503 L588.0623,600.7013 L589.4137,602.1785 L591.0337,603.903 L590.817,603.7318 L592.3171,605.5376 L593.5731,607.1505 L595.1832,609.0432 L596.1886,610.4582 L597.5535,612.1572 L597.428,612.0706 L598.84,613.9585 L599.7155,615.4764 L600.9725,617.2574 L602.6028,619.296 L603.5684,620.8759 L603.7336,620.9769 L604.9508,622.853 L605.654,624.4151 L607.001,626.3704 L608.2077,628.2401 L609.0877,629.9102 L608.9035,629.8094 L610.0568,631.7299 L611.1499,633.6174 L612.3615,635.5697 L613.1122,637.27 L614.1204,639.111 L614.3047,639.2021 L614.8109,640.8457 L615.6727,642.6651 L617.0543,644.7413 L617.4791,646.3446 L618.6758,648.3295 L618.8836,648.4191 L620.3033,651.9447 L621.6527,655.4399 L623.1607,659.0036 L625.0354,662.7254 L626.3913,666.2235 L626.2669,666.1763 L627.2729,667.9923 L627.4329,669.4874 L628.5548,671.3473 L629.1351,673.0019 L629.5696,674.601 L629.6721,674.6377 L629.874,675.4044 L630.443,676.3023 L630.6803,677.0816 L630.779,677.8114 L630.9929,678.5823 L631.1055,678.6214 L631.0723,678.9494 L631.5619,679.459 L631.4603,679.7633 L631.6019,680.152 L631.6636,680.5129 L631.4078,680.4253 L631.5582,680.6444 L632.0168,680.9691 L632.0394,681.1444 L631.9056,681.2661 L631.9887,681.4622 " fill="none" style="stroke:#8B0000;stroke-width:4.0;"/><polygon fill="#8B0000" points="492.39,543.6922,492.4385,543.7427,493.7149,544.9572,495.2758,546.4678,496.744,547.8819,497.9075,548.9789,499.4928,550.5149,499.4694,550.5039,498.8839,549.4302,498.4167,548.4119,498.0317,547.4321,497.3634,546.3195,497.0919,545.3929,497.1702,545.56,498.0271,544.7225,499.1127,544.3728,500.2262,544.0827,501.1774,543.4462,502.2139,542.9919,502.2155,543.0146,500.2484,543.1214,498.2886,543.3314,496.3252,543.4916,494.3687,543.7469,492.39,543.6922" style="stroke:#8B0000;stroke-width:4.0;"/><polygon fill="#8B0000" points="631.9887,681.4622,632.0585,681.4685,632.0275,679.488,632.4055,677.5442,632.6504,675.5885,632.4572,673.5934,632.8703,671.6529,632.8471,671.6414,632.2437,672.6055,631.7576,673.6272,631.3529,674.6889,630.6674,675.6127,630.3752,676.7297,630.4566,676.8953,629.2671,676.0421,628.3154,675.6725,627.3926,675.3618,626.3011,674.7079,625.2984,674.2345,625.315,674.25,626.6286,675.6728,628.0182,677.166,629.3711,678.6253,630.7939,680.1493,631.9887,681.4622" style="stroke:#8B0000;stroke-width:4.0;"/></g><!--link api2 to stor3--><g id="link_api2_stor3"><path d="M81.62,563.0122 L81.7027,563.0556 L79.7555,566.1684 L78.2931,569.5356 L76.6728,572.82 L74.5333,575.8319 L73.1125,579.221 L73.0806,579.2077 L71.5151,582.5562 L70.1102,585.9718 L68.817,589.434 L67.1389,592.7356 L66,596.2622 L66.2341,596.3381 L65.1492,597.9774 L64.7477,599.8383 L64.4296,601.7262 L63.6264,603.4569 L63.0783,605.2702 L63.1074,605.2787 L62.7959,606.1885 L62.6171,607.1368 L62.3742,608.0666 L62.2534,609.0319 L61.7348,609.8813 L62.0223,609.9608 L61.8971,610.4269 L61.5866,610.8418 L61.5474,611.3318 L61.521,611.8253 L61.0915,612.2073 " fill="none" style="stroke:#8B0000;stroke-width:4.0;"/><polygon fill="#8B0000" points="84.06,558.8022,84.1011,558.8589,82.3843,559.8467,80.9085,561.167,79.3542,562.379,77.5418,563.235,76.0867,564.5838,76.08,564.5587,77.1434,564.1553,78.2404,563.8781,79.3607,563.6886,80.4005,563.1967,81.5531,563.1284,81.7315,563.1758,81.6412,564.1676,82.0716,565.298,82.5655,566.4453,82.6898,567.4941,83.0085,568.5948,83.0312,568.5972,83.2082,566.6351,83.4883,564.6841,83.7187,562.7277,84.0438,560.7816,84.06,558.8022" style="stroke:#8B0000;stroke-width:4.0;"/><polygon fill="#8B0000" points="61.0915,612.2073,61.1458,612.2516,62.2286,610.593,63.6298,609.1938,64.9273,607.7102,65.8839,605.9487,67.3124,604.5718,67.2995,604.5494,66.2599,605.0106,65.2852,605.5851,64.3556,606.2385,63.2705,606.6203,62.4032,607.3824,62.5633,607.4741,61.6587,606.2962,61.2217,605.386,60.8418,604.5084,60.1299,603.4408,59.5926,602.4732,59.615,602.4767,59.8818,604.4184,60.251,606.3759,60.5707,608.3258,60.9847,610.2902,61.0915,612.2073" style="stroke:#8B0000;stroke-width:4.0;"/></g><!--link i1 to api1--><g id="link_i1_api1"><path d="M623.19,365.4822 L623.2829,365.4919 L622.7319,368.1112 L622.7255,370.7871 L622.5418,373.4446 L621.7748,376.0415 L621.8152,378.7223 L621.781,378.7172 L621.2113,381.5061 L620.8137,384.3205 L620.5359,387.1526 L619.8455,389.9236 L619.733,392.7802 L619.9742,392.8286 L618.874,395.6358 L618.4782,398.5843 L618.1683,401.5501 L617.3584,404.4156 L616.8114,407.3338 L616.8407,407.3415 L616.0192,410.2756 L615.3311,413.2449 L614.5786,416.1973 L613.9489,419.182 L612.9188,422.061 L613.2009,422.1576 L612.2052,425.0745 L611.0275,427.9291 L610.1163,430.8749 L609.2175,433.825 L607.9231,436.6395 L607.6299,436.51 L606.9529,439.5829 L605.3104,442.2294 L604.4019,445.2001 L602.7375,447.8369 L601.6927,450.7474 L601.6662,450.7323 L600.4595,453.5737 L598.635,456.0626 L597.1751,458.7595 L595.7457,461.4739 L594.0956,464.0623 L594.2439,464.1729 L592.2751,466.5013 L590.5597,469.0186 L588.4343,471.2302 L586.9204,473.8978 L585,476.2622 L585.1741,476.4326 L583.3343,478.2463 L581.581,480.1445 L579.426,481.6496 L577.5655,483.4429 L575.9657,485.4915 L575.7927,485.2762 L573.9218,487.1008 L571.8558,488.6828 L570.0727,490.6167 L567.8068,491.9498 L565.8278,493.64 L565.7447,493.5122 L563.6887,495.1516 L561.2775,496.2447 L559.119,497.7262 L557.2075,499.5881 L554.856,500.7728 L554.9474,500.9435 L552.703,502.2969 L550.174,503.1195 L548.0014,504.607 L545.7511,505.9496 L543.32,506.9547 L543.2342,506.7631 L540.9365,507.975 L538.6107,509.1242 L536.3401,510.3967 L533.855,511.1898 L531.4896,512.2507 L531.5623,512.443 L529.0317,512.9154 L526.6414,513.7591 L524.4557,515.1451 L521.8932,515.5325 L519.6347,516.7256 L519.7037,516.9411 L517.3407,517.5569 L514.9544,518.0998 L512.6208,518.8072 L510.409,519.8949 L508.0249,520.4445 L507.9899,520.3162 L505.8752,521.3038 L503.5223,521.4186 L501.4402,522.5259 L499.2056,523.0743 L496.93,523.4722 " fill="none" style="stroke:#8B0000;stroke-width:4.0;"/><polygon fill="#8B0000" points="492.42,524.5522,492.4329,524.6211,494.3308,524.7788,496.3042,525.3402,498.253,525.7702,500.1209,525.7679,502.1008,526.364,502.0872,526.3419,501.063,525.6495,500.1073,525.0682,499.1992,524.5643,498.127,523.7939,497.2846,523.3967,497.4418,523.4935,497.6992,522.3232,498.4154,521.4356,499.1876,520.5825,499.6341,519.5288,500.2519,518.5805,500.2657,518.5986,498.6791,519.7664,497.1552,521.0165,495.6011,522.2269,494.1048,523.5131,492.42,524.5522" style="stroke:#8B0000;stroke-width:4.0;"/><text fill="#000000" font-family="Chalkduster" font-size="24" lengthAdjust="spacing" textLength="81" x="638.5" y="438.1031">Index</text><text fill="#000000" font-family="Chalkduster" font-size="24" lengthAdjust="spacing" textLength="128" x="615" y="468.7329">Storage 1</text></g><!--link i2 to api1--><g id="link_i2_api1"><path d="M384.21,365.4522 L384.3023,365.4663 L383.6441,367.9422 L383.5273,370.5007 L383.2342,373.0323 L382.3613,375.4755 L382.2909,378.041 L382.2566,378.0373 L381.8098,380.7082 L381.536,383.3979 L381.3827,386.1008 L380.8146,388.7585 L380.8273,391.4794 L381.073,391.4938 L380.3832,394.2717 L380.4106,397.0917 L380.5255,399.9168 L380.1312,402.712 L380.0048,405.523 L380.0351,405.523 L379.9914,408.4038 L380.0857,411.2847 L380.1134,414.1655 L380.2683,417.0464 L380.0088,419.9272 L380.3063,419.948 L380.5131,422.8524 L380.528,425.7433 L380.8239,428.6539 L381.1329,431.5654 L381.0247,434.4477 L380.7079,434.399 L381.7655,437.372 L381.7799,440.1846 L382.5874,443.1192 L382.5781,445.9281 L383.2383,448.84 L383.2088,448.8325 L384.2769,451.7259 L384.6559,454.4425 L385.4416,457.2634 L386.2613,460.0931 L386.8349,462.8597 L387.0075,462.9262 L387.8663,465.5396 L389.02,468.2666 L389.6966,470.8097 L391.0849,473.6272 L392,476.2622 L392.2044,476.3948 L394.268,479.6115 L396.4331,482.894 L398.1266,485.8706 L400.1658,489.0715 L402.5113,492.471 L402.3172,492.2745 L405.2566,495.1826 L407.9774,497.8693 L411.0153,500.8772 L413.5117,503.3367 L416.33,506.1222 " fill="none" style="stroke:#8B0000;stroke-width:4.0;"/><polygon fill="#8B0000" points="419.98,509.0522,420.0423,509.0843,418.9538,507.2385,418.2303,505.581,417.388,503.8622,416.1548,501.9417,415.4627,500.3004,415.4369,500.2976,415.4448,501.4095,415.5825,502.5357,415.8104,503.6718,415.7273,504.7738,416.0798,505.9235,416.1,506.107,414.9323,505.8381,413.8234,506.1049,412.7217,506.4369,411.5783,506.3888,410.4568,506.5407,410.4626,506.5627,412.3587,507.0327,414.2812,507.6028,416.191,508.1247,418.1251,508.7387,419.98,509.0522" style="stroke:#8B0000;stroke-width:4.0;"/><text fill="#000000" font-family="Chalkduster" font-size="24" lengthAdjust="spacing" textLength="81" x="440" y="438.1031">Index</text><text fill="#000000" font-family="Chalkduster" font-size="24" lengthAdjust="spacing" textLength="187" x="393" y="468.7329">Storage 1 &amp; 2</text></g><!--link i3 to api2--><g id="link_i3_api2"><path d="M139.61,365.6922 L139.8829,365.756 L136.8257,375.1692 L135.3681,384.9566 L133.3896,394.6222 L129.6981,403.887 L128.277,413.6829 L125.5777,423.1798 L123.3871,432.7957 L121.5501,442.4944 L118.4946,451.9079 L117.8645,461.8889 L114.081,471.1322 L112.3961,480.8664 L110.9672,490.6605 L108.16,500.1322 " fill="none" style="stroke:#8B0000;stroke-width:4.0;"/><polygon fill="#8B0000" points="107.13,504.5622,107.1858,504.6045,108.2099,502.9091,109.5613,501.4617,110.8061,499.9336,111.7004,498.1398,113.0799,496.7137,113.0662,496.6917,112.0434,497.189,111.0894,497.7973,110.1832,498.4828,109.1122,498.9024,108.272,499.6944,108.4289,499.7916,107.4973,498.6221,107.0237,497.7365,106.606,496.8855,105.8632,495.833,105.2914,494.8865,105.3137,494.8907,105.6486,496.8197,106.0853,498.7679,106.4729,500.7068,106.9541,502.6635,107.13,504.5622" style="stroke:#8B0000;stroke-width:4.0;"/><text fill="#000000" font-family="Chalkduster" font-size="24" lengthAdjust="spacing" textLength="81" x="147" y="438.1031">Index</text><text fill="#000000" font-family="Chalkduster" font-size="24" lengthAdjust="spacing" textLength="129" x="129" y="468.7329">Storage 3</text></g><!--SRC=[ZP91Jy8m583l_HNF7Jmnp5hqG0Y9YHSEHXAFOanPAzIKRccBiXZ-ks_Tm18sjAVkzNjVNz_RbJAvtWhvjk6cWk7mHd3FK_pWAxcHngVELreE_SuJhxoMOtX00DwL4NofjF8LiJBttAoqXEHngxqgSUTyOT40JjfFbKi76ovacwLb0i0TS9klOJAniYoSGhwQJk6R0Ax866wR5zPp3LbIfvLPIzMhhdR97O8p8-Hkl32G3MZWL1Qe_ILZGvRqJ-E0mQYnqiZQfsMDbltVohfhlP_FmZalszTqdpKr_Txnt7Q_QLWzYxXdaUDf-P4bFGSqYLzwBgT7EUsLipxvw4JUOMT7E-krt_RPxmxsFS6_9RLgjVOlQoM4DA_f5ETDSEJdOKP8tMYOfABuCXW9dUk8qJf6JsEC87K8X9GnX5alp74S19Ew48WOk0PA58ivsi5XhOJy0000]--></g></svg>