<?xml version="1.0" encoding="UTF-8" standalone="no"?><svg xmlns="http://www.w3.org/2000/svg" xmlns:xlink="http://www.w3.org/1999/xlink" contentStyleType="text/css" height="726px" preserveAspectRatio="none" style="width:934px;height:726px;background:#FFFFFF;" version="1.1" viewBox="0 0 934 726" width="934px" zoomAndPan="magnify"><defs/><g><text fill="#000000" font-family="Chalkduster" font-size="42" font-weight="bold" lengthAdjust="spacing" textLength="382" x="269" y="51.7215">Data findability</text><!--cluster arch--><g id="cluster_arch"><polygon fill="#00FF7F" points="9.5,83.8912,9.5,84.1013,19.4565,83.4768,29.413,84.0844,39.3696,84.2908,49.3261,83.1778,59.2826,83.8134,69.2391,83.4647,79.1957,83.5077,89.1522,83.823,99.1087,83.1998,109.0652,84.4448,119.0217,83.2609,128.9783,83.6934,138.9348,84.3231,148.8913,83.8054,158.8478,83.9594,168.8043,83.8592,178.7609,84.0697,188.7174,84.1303,198.6739,84.4769,208.6304,84.5622,218.587,84.5704,228.5435,84.1458,238.5,84.3547,248.4565,84.5934,258.413,83.17,268.3696,84.5697,278.3261,83.5947,288.2826,84.425,298.2391,83.3961,308.1957,83.8227,318.1522,84.6328,328.1087,83.8424,338.0652,83.9965,348.0217,84.2298,357.9783,84.3074,367.9348,83.8873,377.8913,84.1784,387.8478,83.3187,397.8043,84.1755,407.7609,84.4394,417.7174,84.3357,427.6739,84.5042,437.6304,83.4081,447.587,83.239,457.5435,83.2698,467.5,83.8323,477.4565,83.6946,487.413,84.5726,497.3696,83.7165,507.3261,83.5481,517.2826,84.1194,527.2391,83.2243,537.1957,83.372,547.1522,84.5401,557.1087,84.3268,567.0652,84.6257,577.0217,83.5694,586.9783,84.2104,596.9348,84.4816,606.8913,83.4188,616.8478,83.7953,626.8043,84.0171,636.7609,84.5429,646.7174,83.887,656.6739,84.3537,666.6304,83.3374,676.587,83.2139,686.5435,84.3948,696.5,83.1742,706.4565,84.4001,716.413,84.0978,726.3696,83.6232,736.3261,83.5374,746.2826,84.3499,756.2391,83.5918,766.1957,84.483,776.1522,83.3384,786.1087,84.5086,796.0652,84.3755,806.0217,84.1361,815.9783,83.9384,825.9348,84.6178,835.8913,84.5047,845.8478,84.0604,855.8043,84.1593,865.7609,83.7609,875.7174,84.6076,885.6739,84.046,895.6304,84.0637,905.587,83.2828,915.5435,83.4859,925.5,83.8912,925.5677,84.0546,925.9084,84.17,926.2016,84.1708,926.5196,84.2313,926.8863,84.4095,927.2678,84.6234,927.0565,84.5359,927.5419,85.0299,927.7884,85.4248,927.8692,85.7512,928.0676,86.1263,928,86.3912,927.8633,86.3912,928.0872,96.4229,927.6124,106.4547,928.284,116.4864,928.2468,126.5181,928.5524,136.5499,927.7703,146.5816,927.8656,156.6134,928.4435,166.6451,928.5673,176.6769,927.4875,186.7086,927.8061,196.7404,928.1493,206.7721,927.3892,216.8039,928.3534,226.8356,928.258,236.8674,927.8992,246.8991,928.1422,256.9308,928.7287,266.9626,927.6871,276.9943,928.315,287.0261,928.2856,297.0578,928.1158,307.0896,928.1409,317.1213,928.1135,327.1531,927.3758,337.1848,927.5992,347.2166,927.5385,357.2483,928.0638,367.28,928.0881,377.3118,928.1617,387.3435,927.709,397.3753,927.9325,407.407,927.8798,417.4388,928.5769,427.4705,928.4266,437.5023,927.5145,447.534,927.9271,457.5658,927.4228,467.5975,928.2884,477.6293,928.6085,487.661,928.5446,497.6927,927.5644,507.7245,928.464,517.7562,927.2572,527.788,928.2002,537.8197,927.7007,547.8515,928.0967,557.8832,928.2403,567.915,928.4721,577.9467,927.2801,587.9785,928.4755,598.0102,928.1782,608.042,928.3553,618.0737,928.7478,628.1054,928.0055,638.1372,928.1753,648.1689,928.2134,658.2007,928.1972,668.2324,927.9992,678.2642,928.7107,688.2959,927.3903,698.3277,928.5653,708.3594,928,718.3912,927.8078,718.3116,927.6872,718.6758,927.7194,719.1034,927.5694,719.4554,927.2624,719.7425,927.2678,720.1589,927.3205,720.2863,926.9281,720.3389,926.6534,720.6756,926.2922,720.8037,925.7964,720.6067,925.5,720.8912,925.5,720.4932,915.5435,720.762,905.587,721.2467,895.6304,721.2941,885.6739,721.1923,875.7174,720.5492,865.7609,721.5275,855.8043,721.5249,845.8478,720.8439,835.8913,720.6521,825.9348,720.4898,815.9783,720.6766,806.0217,721.0286,796.0652,720.8228,786.1087,720.4734,776.1522,721.3785,766.1957,720.4322,756.2391,721.3935,746.2826,721.3184,736.3261,721.263,726.3696,721.5837,716.413,720.6453,706.4565,720.5905,696.5,721.41,686.5435,720.2943,676.587,720.6572,666.6304,721.0067,656.6739,720.9598,646.7174,720.5327,636.7609,720.8482,626.8043,721.6358,616.8478,721.5396,606.8913,720.2949,596.9348,720.9697,586.9783,720.3773,577.0217,720.8648,567.0652,721.1842,557.1087,721.311,547.1522,720.2264,537.1957,721.2917,527.2391,720.8996,517.2826,720.3358,507.3261,720.4201,497.3696,721.2178,487.413,721.141,477.4565,720.8747,467.5,720.2191,457.5435,721.5493,447.587,720.5793,437.6304,720.3631,427.6739,720.8238,417.7174,721.4809,407.7609,721.5066,397.8043,720.9263,387.8478,720.74,377.8913,721.0609,367.9348,721.0774,357.9783,720.3834,348.0217,721.3051,338.0652,721.45,328.1087,720.6754,318.1522,720.462,308.1957,721.5658,298.2391,720.9122,288.2826,720.891,278.3261,721.1902,268.3696,720.2455,258.413,721.4211,248.4565,720.8757,238.5,721.56,228.5435,720.6753,218.587,721.3002,208.6304,720.4472,198.6739,721.1362,188.7174,721.2705,178.7609,720.5638,168.8043,721.2542,158.8478,720.3197,148.8913,720.4207,138.9348,721.574,128.9783,721.5755,119.0217,721.4597,109.0652,720.5308,99.1087,721.2754,89.1522,720.4191,79.1957,720.9493,69.2391,720.8899,59.2826,720.6287,49.3261,721.5071,39.3696,721.3344,29.413,720.5704,19.4565,721.4178,9.5,720.8912,9.5117,720.9195,9.072,720.565,8.7631,720.5264,8.3723,720.2901,8.068,720.2625,7.7322,720.1589,7.5385,720.0787,7.401,719.7288,7.461,719.4608,7.2558,719.0829,7.1284,718.7372,7,718.3912,6.8568,718.3912,7.1673,708.3594,6.4449,698.3277,7.1601,688.2959,6.2569,678.2642,7.296,668.2324,7.5928,658.2007,7.5221,648.1689,7.3613,638.1372,7.1922,628.1054,7.1057,618.0737,6.36,608.042,7.4465,598.0102,7.3296,587.9785,6.8466,577.9467,6.9942,567.915,6.7914,557.8832,7.2177,547.8515,7.6805,537.8197,6.6461,527.788,7.4689,517.7562,6.9108,507.7245,6.6207,497.6927,6.5681,487.661,6.3553,477.6293,6.5591,467.5975,7.0363,457.5658,7.273,447.534,7.5762,437.5023,7.4201,427.4705,6.2886,417.4388,7.619,407.407,7.4861,397.3753,7.5407,387.3435,7.5219,377.3118,6.3409,367.28,6.7423,357.2483,7.316,347.2166,6.5185,337.1848,6.8971,327.1531,7.067,317.1213,7.3261,307.0896,7.0458,297.0578,7.7447,287.0261,7.4114,276.9943,7.2561,266.9626,6.4601,256.9308,7.3388,246.8991,6.4255,236.8674,7.3057,226.8356,7.0078,216.8039,7.2995,206.7721,6.9126,196.7404,6.8039,186.7086,6.2591,176.6769,6.7856,166.6451,6.2951,156.6134,6.7539,146.5816,7.4379,136.5499,7.1607,126.5181,6.5485,116.4864,7.2458,106.4547,7.0656,96.4229,7,86.3912,7.1673,86.4605,7.3204,86.1097,7.3217,85.696,7.3842,85.3077,7.5197,84.9496,7.7322,84.6234,7.7314,84.6214,8.1711,84.683,8.3534,84.123,8.772,84.1336,9.1805,84.1198,9.5,83.8912" style="stroke:#181818;stroke-width:4.0;"/><text fill="#000000" font-family="Chalkduster" font-size="24" font-style="italic" lengthAdjust="spacing" textLength="169" x="383" y="109.732">«repository»</text><text fill="#000000" font-family="Chalkduster" font-size="24" font-weight="bold" lengthAdjust="spacing" textLength="37" x="449" y="140.3619">RE</text></g><!--cluster p1--><g id="cluster_p1"><polygon fill="none" points="529.5,171.8912,529.5,172.1013,539.2857,171.4768,549.0714,172.0844,558.8571,172.2908,568.6429,171.1778,578.4286,171.8134,588.2143,171.4647,598,171.5077,607.7857,171.823,617.5714,171.1998,627.3571,172.4448,637.1429,171.2609,646.9286,171.6934,656.7143,172.3231,666.5,171.8912,666.4891,171.8647,666.8623,172.0586,667.203,172.1742,667.5834,172.3855,667.9447,172.5506,668.2678,172.6234,668.4481,172.6981,668.6209,173.0625,668.7698,173.4171,668.7855,173.7165,668.9963,174.0967,669,174.3912,669.7022,174.3912,668.2788,184.3912,669.6785,194.3912,668.7035,204.3912,669.5338,214.3912,668.505,224.3912,668.9315,234.3912,669.7416,244.3912,668.9513,254.3912,669.1053,264.3912,669.3386,274.3912,669.4162,284.3912,668.9961,294.3912,669.2872,304.3912,668.4276,314.3912,669,324.3912,669.0876,324.4274,669.0224,324.8146,668.844,325.155,668.7494,325.53,668.2654,325.7438,668.2678,326.1589,668.1846,325.9581,667.8349,326.114,667.5531,326.4337,667.182,326.5377,666.9405,326.9546,666.5,326.8912,666.5,326.7165,656.7143,326.5481,646.9286,327.1194,637.1429,326.2243,627.3571,326.372,617.5714,327.5401,607.7857,327.3268,598,327.6257,588.2143,326.5694,578.4286,327.2104,568.6429,327.4816,558.8571,326.4188,549.0714,326.7953,539.2857,327.0171,529.5,326.8912,529.5831,327.0919,529.1459,326.7434,528.8519,326.7407,528.3687,326.2813,527.9994,326.0968,527.7322,326.1589,527.8873,326.2232,527.365,325.7139,527.5961,325.5167,527.3565,325.1246,527.0639,324.7105,527,324.3912,526.6462,324.3912,527.4588,314.3912,526.7007,304.3912,527.5919,294.3912,526.4473,284.3912,527.6174,274.3912,527.4843,264.3912,527.245,254.3912,527.0472,244.3912,527.7266,234.3912,527.6136,224.3912,527.1693,214.3912,527.2682,204.3912,526.8697,194.3912,527.7165,184.3912,527,174.3912,527.0477,174.4109,527.1996,174.0596,527.1055,173.6065,527.3145,173.2788,527.7492,173.0447,527.7322,172.6234,527.7871,172.7557,528.0803,172.4637,528.3982,172.2313,528.765,172.1166,529.0589,171.8263,529.5,171.8912" style="stroke:#181818;stroke-width:4.0;"/><text fill="#000000" font-family="Chalkduster" font-size="24" font-weight="bold" lengthAdjust="spacing" textLength="113" x="541.5" y="197.732">Portal 1</text></g><!--cluster p2--><g id="cluster_p2"><polygon fill="none" points="293.5,171.8912,293.5,172.1013,303.5667,171.4768,313.6333,172.0844,323.7,172.2908,333.7667,171.1778,343.8333,171.8134,353.9,171.4647,363.9667,171.5077,374.0333,171.823,384.1,171.1998,394.1667,172.4448,404.2333,171.2609,414.3,171.6934,424.3667,172.3231,434.4333,171.8054,444.5,171.8912,444.5087,171.9122,444.8495,172.0278,445.2299,172.239,445.5912,172.4041,445.9889,172.6573,446.2678,172.6234,446.4744,172.709,446.6234,173.0636,446.6391,173.363,446.8499,173.7432,447.0698,174.1272,447,174.3912,446.2788,174.3912,447.6785,184.3912,446.7035,194.3912,447.5338,204.3912,446.505,214.3912,446.9315,224.3912,447.7416,234.3912,446.9513,244.3912,447.1053,254.3912,447.3386,264.3912,447.4162,274.3912,446.9961,284.3912,447.2872,294.3912,446.4276,304.3912,447.2844,314.3912,447,324.3912,447.1688,324.4611,446.9905,324.8014,446.8959,325.1765,446.4119,325.3902,446.2134,325.7222,446.2678,326.1589,446.1885,325.9676,445.9067,326.2872,445.5356,326.3913,445.294,326.8081,444.8313,326.6909,444.5,326.8912,444.5,326.5481,434.4333,327.1194,424.3667,326.2243,414.3,326.372,404.2333,327.5401,394.1667,327.3268,384.1,327.6257,374.0333,326.5694,363.9667,327.2104,353.9,327.4816,343.8333,326.4188,333.7667,326.7953,323.7,327.0171,313.6333,327.5429,303.5667,326.887,293.5,326.8912,293.559,327.0336,293.0758,326.5742,292.7065,326.3897,292.5036,326.6069,291.9943,326.0846,291.7322,326.1589,291.889,326.2239,291.6494,325.8317,291.3568,325.4176,291.1839,325.0531,291.2877,324.8032,291,324.3912,290.7007,324.3912,291.5919,314.3912,290.4473,304.3912,291.6174,294.3912,291.4843,284.3912,291.245,274.3912,291.0472,264.3912,291.7266,254.3912,291.6136,244.3912,291.1693,234.3912,291.2682,224.3912,290.8697,214.3912,291.7165,204.3912,291.1549,194.3912,291.1726,184.3912,291,174.3912,290.8127,174.3136,291.0217,173.9859,291.4563,173.7518,291.5717,173.3853,291.5726,172.9715,291.7322,172.6234,291.6911,172.5242,292.0579,172.4095,292.3518,172.1192,292.8458,172.3118,293.2408,172.2654,293.5,171.8912" style="stroke:#181818;stroke-width:4.0;"/><text fill="#000000" font-family="Chalkduster" font-size="24" font-weight="bold" lengthAdjust="spacing" textLength="111" x="313.5" y="197.732">Portal 2</text></g><!--cluster p3--><g id="cluster_p3"><polygon fill="none" points="33.5,171.8912,33.5,172.1013,43.5667,171.4768,53.6333,172.0844,63.7,172.2908,73.7667,171.1778,83.8333,171.8134,93.9,171.4647,103.9667,171.5077,114.0333,171.823,124.1,171.1998,134.1667,172.4448,144.2333,171.2609,154.3,171.6934,164.3667,172.3231,174.4333,171.8054,184.5,171.8912,184.5087,171.9122,184.8495,172.0278,185.2299,172.239,185.5912,172.4041,185.9889,172.6573,186.2678,172.6234,186.4744,172.709,186.6234,173.0636,186.6391,173.363,186.8499,173.7432,187.0698,174.1272,187,174.3912,186.2788,174.3912,187.6785,184.3912,186.7035,194.3912,187.5338,204.3912,186.505,214.3912,186.9315,224.3912,187.7416,234.3912,186.9513,244.3912,187.1053,254.3912,187.3386,264.3912,187.4162,274.3912,186.9961,284.3912,187.2872,294.3912,186.4276,304.3912,187.2844,314.3912,187,324.3912,187.1688,324.4611,186.9905,324.8014,186.8959,325.1765,186.4119,325.3902,186.2134,325.7222,186.2678,326.1589,186.1885,325.9676,185.9067,326.2872,185.5356,326.3913,185.294,326.8081,184.8313,326.6909,184.5,326.8912,184.5,326.5481,174.4333,327.1194,164.3667,326.2243,154.3,326.372,144.2333,327.5401,134.1667,327.3268,124.1,327.6257,114.0333,326.5694,103.9667,327.2104,93.9,327.4816,83.8333,326.4188,73.7667,326.7953,63.7,327.0171,53.6333,327.5429,43.5667,326.887,33.5,326.8912,33.559,327.0336,33.0758,326.5742,32.7065,326.3897,32.5036,326.6069,31.9943,326.0846,31.7322,326.1589,31.889,326.2239,31.6494,325.8317,31.3568,325.4176,31.1839,325.0531,31.2877,324.8032,31,324.3912,30.7007,324.3912,31.5919,314.3912,30.4473,304.3912,31.6174,294.3912,31.4843,284.3912,31.245,274.3912,31.0472,264.3912,31.7266,254.3912,31.6136,244.3912,31.1693,234.3912,31.2682,224.3912,30.8697,214.3912,31.7165,204.3912,31.1549,194.3912,31.1726,184.3912,31,174.3912,30.8127,174.3136,31.0217,173.9859,31.4563,173.7518,31.5717,173.3853,31.5726,172.9715,31.7322,172.6234,31.6911,172.5242,32.0579,172.4095,32.3518,172.1192,32.8458,172.3118,33.2408,172.2654,33.5,171.8912" style="stroke:#181818;stroke-width:4.0;"/><text fill="#000000" font-family="Chalkduster" font-size="24" font-weight="bold" lengthAdjust="spacing" textLength="114" x="52" y="197.732">Portal 3</text></g><!--cluster stor1--><g id="cluster_stor1"><path d="M337,551.8912 L337,551.8912 L337.0482,551.9712 L338.0007,551.0733 L339.2357,550.6444 L340.3788,550.0628 L341.2192,548.979 L342.4785,548.5904 L342.4727,548.5563 L345.3351,547.9075 L348.227,547.4302 L351.1394,547.0722 L353.9812,546.3032 L356.9219,546.1099 L356.9465,546.3547 L358.8238,545.6373 L360.773,545.6348 L362.7309,545.7194 L364.6378,545.2966 L366.5715,545.1407 L366.5738,545.1709 L368.7245,544.9649 L370.8856,544.8966 L373.0416,544.7618 L375.2072,544.7538 L377.3418,544.3326 L377.3589,544.6303 L379.6626,544.5016 L381.9552,544.1809 L384.264,544.1413 L386.5736,544.1149 L388.8591,543.6709 L388.8449,543.3507 L391.2507,543.8663 L393.6096,543.3274 L396.0042,543.5901 L398.362,543.0273 L400.75,543.1412 L400.7491,543.1107 L405.4418,543.3261 L410.1126,542.8304 L414.7964,542.7543 L419.4812,542.7135 L424.1582,542.4185 L424.1616,542.6035 L428.2422,542.3426 L432.3285,542.3977 L436.4055,541.9415 L440.4964,542.248 L444.5781,542.0474 L444.58,542.291 L448.564,542.2137 L452.549,542.2574 L456.5296,541.739 L460.5134,541.6326 L464.5,541.8912 L464.5,541.8912 L464.4978,541.615 L468.4842,541.8962 L472.4681,541.8663 L476.4555,542.2878 L480.4369,541.9385 L484.4219,542.0474 L484.4191,541.895 L488.5077,542.2231 L492.5845,541.8995 L496.6696,542.0394 L500.7631,542.6327 L504.8418,542.4185 L504.8478,542.612 L509.5335,542.8893 L514.2007,542.5646 L518.8911,542.9939 L523.5765,543.2589 L528.25,543.1412 L528.2407,542.9314 L530.6263,543.2046 L533.0088,543.409 L535.3974,543.7484 L537.7626,543.5631 L540.1409,543.6709 L540.1527,543.8762 L542.4302,543.5575 L544.7305,543.6351 L547.0641,544.2914 L549.3365,543.8821 L551.6582,544.3326 L551.6751,544.5581 L553.8191,544.5858 L555.9574,544.5371 L558.1086,544.6606 L560.2897,545.1824 L562.4285,545.1407 L562.4152,545.0083 L564.3847,545.5963 L566.2638,545.2839 L568.2457,545.9953 L570.1697,546.1302 L572.0781,546.1099 L572.0966,546.2172 L574.9703,546.6267 L577.9101,547.4204 L580.7903,547.867 L583.6455,548.1684 L586.5215,548.5904 L586.583,548.6925 L587.5873,549.2009 L588.8772,550.1834 L589.8441,550.6298 L590.9439,551.2967 L592,551.8912 L590.3777,551.8912 L590.9194,561.6604 L593.4153,571.4296 L593.146,581.1989 L591.8855,590.9681 L591.1409,600.7373 L591.4162,610.5065 L590.1702,620.2758 L593.106,630.045 L593.9722,639.8142 L593.4037,649.5835 L593.8532,659.3527 L591.6354,669.1219 L592,678.8912 L592,678.8912 L592.02,678.9244 L590.8154,679.4038 L589.8737,680.3196 L588.7695,680.9656 L587.7439,681.7421 L586.5215,682.1919 L586.5042,682.0913 L583.6227,682.6292 L580.7775,683.3784 L577.8981,683.9287 L574.9282,683.9518 L572.0781,684.6724 L572.0695,684.5867 L570.1548,684.9323 L568.1911,684.79 L566.304,685.4102 L564.3699,685.5619 L562.4285,685.6416 L562.4251,685.597 L560.2791,685.8663 L558.1446,686.2878 L555.9559,685.9878 L553.8227,686.4277 L551.6582,686.4498 L551.6655,686.5765 L549.3577,686.6334 L547.0549,686.7769 L544.7507,686.8971 L542.4284,686.7021 L540.1409,687.1114 L540.1329,686.9334 L537.7536,687.0124 L535.3858,687.3516 L533.0081,687.4684 L530.6314,687.607 L528.25,687.6412 L528.246,687.5119 L523.5674,687.7557 L518.8851,687.8768 L514.213,688.331 L509.5293,688.4088 L504.8418,688.3638 L504.8379,688.1481 L500.7572,688.4056 L496.6692,688.2557 L492.5922,688.7146 L488.5108,688.9311 L484.4219,688.7349 L484.4238,688.9769 L480.436,688.5726 L476.4547,689.0036 L472.4662,688.4985 L468.4851,688.9489 L464.5,688.8912 L464.5,688.8912 L464.499,688.7581 L460.516,688.9029 L456.5321,688.9355 L452.5485,689.0072 L448.56,688.4462 L444.5781,688.7349 L444.582,688.9462 L440.4956,688.7399 L436.413,688.7444 L432.3322,688.8446 L428.2422,688.4405 L424.1582,688.3638 L424.1606,688.4417 L419.4795,688.3141 L414.7976,688.1624 L410.1133,687.9299 L405.4414,688.1014 L400.75,687.6412 L400.7379,687.3704 L398.383,687.7862 L395.9813,687.1522 L393.6048,687.0834 L391.2381,687.2351 L388.8591,687.1114 L388.8599,687.1239 L386.5431,686.7604 L384.2627,687.0303 L381.9515,686.7627 L379.6638,686.9045 L377.3418,686.4498 L377.364,686.7454 L375.1728,686.0895 L373.0205,685.9502 L370.8753,685.9076 L368.7374,685.9608 L366.5715,685.6416 L366.5894,685.8199 L364.655,685.581 L362.6965,685.1027 L360.81,685.3415 L358.88,685.1465 L356.9219,684.6724 L356.9183,684.6517 L354.0152,684.0716 L351.1143,683.5044 L348.2397,683.0901 L345.3775,682.7482 L342.4785,682.1919 L342.4628,682.1659 L341.287,681.3727 L340.3989,681.0572 L339.0861,680.0368 L338.2109,679.7426 L337,678.8912 L338.1393,678.8912 L337.9916,669.1219 L338.8467,659.3527 L336.3443,649.5835 L336.1983,639.8142 L338.3837,630.045 L335.4083,620.2758 L336.376,610.5065 L337.308,600.7373 L337.1832,590.9681 L336.0441,581.1989 L336.8854,571.4296 L338.9856,561.6604 L337,551.8912 " fill="none" style="stroke:#181818;stroke-width:4.0;"/><path d="M337,551.8912 L337,551.8912 L337.0482,551.9712 L338.0007,552.3936 L339.2357,553.2851 L340.3788,554.0238 L341.2192,554.2602 L342.4785,555.1919 L342.4727,555.1579 L345.3351,555.5012 L348.227,556.0161 L351.1394,556.6504 L353.9812,556.8735 L356.9219,557.6724 L356.9465,557.9172 L358.8238,557.5875 L360.773,557.9727 L362.7309,558.445 L364.6378,558.4099 L366.5715,558.6416 L366.5738,558.6719 L368.7245,558.7891 L370.8856,559.044 L373.0416,559.2325 L375.2072,559.5477 L377.3418,559.4498 L377.3589,559.7475 L379.6626,559.8835 L381.9552,559.8274 L384.264,560.0524 L386.5736,560.2906 L388.8591,560.1114 L388.8449,559.7912 L391.2507,560.5186 L393.6096,560.1916 L396.0042,560.6663 L398.362,560.3154 L400.75,560.6412 L400.7491,560.6107 L405.4418,561.1151 L410.1126,560.9086 L414.7964,561.1215 L419.4812,561.3697 L424.1582,561.3638 L424.1616,561.5488 L428.2422,561.4363 L432.3285,561.6399 L436.4055,561.3321 L440.4964,561.7871 L444.5781,561.7349 L444.58,561.9785 L448.564,561.9637 L452.549,562.0699 L456.5296,561.614 L460.5134,561.5701 L464.5,561.8912 L464.5,561.8912 L464.4978,561.615 L468.4842,561.8337 L472.4681,561.7413 L476.4555,562.1003 L480.4369,561.6885 L484.4219,561.7349 L484.4191,561.5825 L488.5077,561.7621 L492.5845,561.2901 L496.6696,561.2816 L500.7631,561.7264 L504.8418,561.3638 L504.8478,561.5574 L509.5335,561.5456 L514.2007,560.9318 L518.8911,561.072 L523.5765,561.048 L528.25,560.6412 L528.2407,560.4314 L530.6263,560.4926 L533.0088,560.4852 L535.3974,560.6127 L537.7626,560.2155 L540.1409,560.1114 L540.1527,560.3166 L542.4302,559.7333 L544.7305,559.5462 L547.0641,559.9379 L549.3365,559.264 L551.6582,559.4498 L551.6751,559.6753 L553.8191,559.3797 L555.9574,559.0078 L558.1086,558.8081 L560.2897,559.0066 L562.4285,558.6416 L562.4152,558.5093 L564.3847,558.7095 L566.2638,558.0095 L568.2457,558.3331 L570.1697,558.0804 L572.0781,557.6724 L572.0966,557.7797 L574.9703,557.197 L577.9101,556.9985 L580.7903,556.4529 L583.6455,555.7622 L586.5215,555.1919 L586.583,555.294 L587.5873,554.4822 L588.8772,554.1444 L589.8441,553.2704 L590.9439,552.617 L592,551.8912 " fill="none" style="stroke:#181818;stroke-width:4.0;"/><text fill="#000000" font-family="Chalkduster" font-size="24" font-weight="bold" lengthAdjust="spacing" textLength="128" x="400.5" y="587.732">Storage 1</text></g><!--cluster stor2--><g id="cluster_stor2"><path d="M632,551.8912 L632,551.8912 L632.047,551.9719 L633.0418,551.0719 L634.312,550.6451 L635.4925,550.0642 L636.378,548.9765 L637.6719,548.5904 L637.6662,548.5563 L640.6315,547.9073 L643.6252,547.43 L646.6388,547.0722 L649.5841,546.3029 L652.625,546.1099 L652.6488,546.3548 L654.596,545.6372 L656.6126,545.6347 L658.6377,545.7194 L660.6135,545.2966 L662.6152,545.1407 L662.6174,545.1709 L664.8443,544.9649 L667.0811,544.8966 L669.3132,544.7618 L671.5544,544.7538 L673.7656,544.3326 L673.7821,544.6304 L676.1671,544.5017 L678.5414,544.1809 L680.9313,544.1413 L683.322,544.1149 L685.6895,543.6709 L685.6757,543.3507 L688.1645,543.8663 L690.608,543.3274 L693.086,543.5901 L695.5284,543.0273 L698,543.1412 L697.9991,543.1107 L702.8567,543.3261 L707.6931,542.8304 L712.542,542.7543 L717.392,542.7135 L722.2344,542.4185 L722.2376,542.6035 L726.4625,542.3426 L730.6929,542.3977 L734.9143,541.9415 L739.1491,542.248 L743.375,542.0474 L743.3768,542.291 L747.5015,542.2137 L751.6271,542.2574 L755.7484,541.739 L759.8728,541.6326 L764,541.8912 L764,541.8912 L763.9979,541.615 L768.1248,541.8962 L772.2493,541.8663 L776.3773,542.2878 L780.4994,541.9385 L784.625,542.0474 L784.6223,541.895 L788.8549,542.2231 L793.076,541.8995 L797.3053,542.0394 L801.5426,542.6327 L805.7656,542.4185 L805.7714,542.612 L810.6222,542.8893 L815.4551,542.5646 L820.3105,542.9939 L825.1609,543.2589 L830,543.1412 L829.991,542.9314 L832.4603,543.2046 L834.9266,543.409 L837.3988,543.7484 L839.8484,543.5631 L842.3105,543.6709 L842.3219,543.8762 L844.6817,543.5575 L847.0634,543.6351 L849.4772,544.2914 L851.832,543.8821 L854.2344,544.3326 L854.2507,544.5582 L856.4711,544.5858 L858.6859,544.537 L860.9132,544.6606 L863.1694,545.1824 L865.3848,545.1407 L865.3719,545.0083 L867.4082,545.5963 L869.3571,545.2839 L871.4054,545.9953 L873.3977,546.1303 L875.375,546.1099 L875.3928,546.2173 L878.3691,546.6267 L881.4091,547.4207 L884.3915,547.8672 L887.3498,548.1685 L890.3281,548.5904 L890.3881,548.6934 L891.4334,549.2005 L892.757,550.1859 L893.7659,550.6303 L894.9042,551.2973 L896,551.8912 L894.3777,551.8912 L894.9194,561.6604 L897.4153,571.4296 L897.146,581.1989 L895.8855,590.9681 L895.1409,600.7373 L895.4162,610.5065 L894.1702,620.2758 L897.106,630.045 L897.9722,639.8142 L897.4037,649.5835 L897.8532,659.3527 L895.6354,669.1219 L896,678.8912 L896,678.8912 L896.0195,678.9247 L894.779,679.4024 L893.7947,680.3206 L892.652,680.9664 L891.586,681.744 L890.3281,682.1919 L890.3114,682.0912 L887.3277,682.6291 L884.3791,683.3786 L881.3975,683.929 L878.3283,683.9516 L875.375,684.6724 L875.3667,684.5866 L873.3834,684.9323 L871.3527,684.7899 L869.396,685.4103 L867.3939,685.5619 L865.3848,685.6416 L865.3815,685.597 L863.1593,685.8663 L860.948,686.2879 L858.6845,685.9878 L856.4746,686.4278 L854.2344,686.4498 L854.2414,686.5765 L851.8525,686.6335 L849.4683,686.7769 L847.0829,686.8971 L844.6799,686.7021 L842.3105,687.1114 L842.3029,686.9334 L839.8396,687.0124 L837.3875,687.3516 L834.9259,687.4684 L832.4652,687.607 L830,687.6412 L829.9961,687.5119 L825.1522,687.7557 L820.3047,687.8768 L815.467,688.331 L810.6182,688.4088 L805.7656,688.3638 L805.7618,688.1481 L801.5369,688.4056 L797.3049,688.2557 L793.0835,688.7146 L788.8579,688.9311 L784.625,688.7349 L784.6268,688.9769 L780.4985,688.5726 L776.3766,689.0036 L772.2475,688.4985 L768.1257,688.9489 L764,688.8912 L764,688.8912 L763.999,688.7581 L759.8753,688.9029 L755.7508,688.9355 L751.6266,689.0072 L747.4976,688.4462 L743.375,688.7349 L743.3787,688.9462 L739.1483,688.7399 L734.9215,688.7444 L730.6965,688.8446 L726.4625,688.4405 L722.2344,688.3638 L722.2367,688.4417 L717.3903,688.3141 L712.5432,688.1624 L707.6937,687.9299 L702.8563,688.1014 L698,687.6412 L697.9883,687.3704 L695.5487,687.7862 L693.0639,687.1522 L690.6033,687.0834 L688.1523,687.2351 L685.6895,687.1114 L685.6901,687.1239 L683.2926,686.7604 L680.9301,687.0303 L678.5378,686.7627 L676.1683,686.9045 L673.7656,686.4498 L673.7871,686.7455 L671.5211,686.0894 L669.2927,685.9501 L667.0712,685.9076 L664.8567,685.9609 L662.6152,685.6416 L662.6325,685.8199 L660.6301,685.581 L658.6045,685.1027 L656.6484,685.3416 L654.6502,685.1466 L652.625,684.6724 L652.6216,684.6517 L649.617,684.0715 L646.6146,683.5042 L643.6375,683.09 L640.6725,682.7483 L637.6719,682.1919 L637.6566,682.1657 L636.4441,681.3713 L635.5121,681.0588 L634.1662,680.0352 L633.2467,679.7443 L632,678.8912 L633.1393,678.8912 L632.9916,669.1219 L633.8467,659.3527 L631.3443,649.5835 L631.1983,639.8142 L633.3837,630.045 L630.4083,620.2758 L631.376,610.5065 L632.308,600.7373 L632.1832,590.9681 L631.0441,581.1989 L631.8854,571.4296 L633.9856,561.6604 L632,551.8912 " fill="none" style="stroke:#181818;stroke-width:4.0;"/><path d="M632,551.8912 L632,551.8912 L632.047,551.9719 L633.0418,552.3922 L634.312,553.2857 L635.4925,554.0252 L636.378,554.2577 L637.6719,555.1919 L637.6662,555.1579 L640.6315,555.501 L643.6252,556.016 L646.6388,556.6503 L649.5841,556.8732 L652.625,557.6724 L652.6488,557.9173 L654.596,557.5874 L656.6126,557.9726 L658.6377,558.445 L660.6135,558.4099 L662.6152,558.6416 L662.6174,558.6719 L664.8443,558.7891 L667.0811,559.044 L669.3132,559.2325 L671.5544,559.5478 L673.7656,559.4498 L673.7821,559.7475 L676.1671,559.8835 L678.5414,559.8274 L680.9313,560.0524 L683.322,560.2907 L685.6895,560.1114 L685.6757,559.7911 L688.1645,560.5186 L690.608,560.1916 L693.086,560.6663 L695.5284,560.3154 L698,560.6412 L697.9991,560.6107 L702.8567,561.1151 L707.6931,560.9086 L712.542,561.1215 L717.392,561.3697 L722.2344,561.3638 L722.2376,561.5488 L726.4625,561.4363 L730.6929,561.6399 L734.9143,561.3321 L739.1491,561.7871 L743.375,561.7349 L743.3768,561.9785 L747.5015,561.9637 L751.6271,562.0699 L755.7484,561.614 L759.8728,561.5701 L764,561.8912 L764,561.8912 L763.9979,561.615 L768.1248,561.8337 L772.2493,561.7413 L776.3773,562.1003 L780.4994,561.6885 L784.625,561.7349 L784.6223,561.5825 L788.8549,561.7621 L793.076,561.2901 L797.3053,561.2816 L801.5426,561.7264 L805.7656,561.3638 L805.7714,561.5574 L810.6222,561.5456 L815.4551,560.9318 L820.3105,561.072 L825.1609,561.048 L830,560.6412 L829.991,560.4314 L832.4603,560.4926 L834.9266,560.4852 L837.3988,560.6127 L839.8484,560.2155 L842.3105,560.1114 L842.3219,560.3166 L844.6817,559.7333 L847.0634,559.5462 L849.4772,559.9379 L851.832,559.2639 L854.2344,559.4498 L854.2507,559.6754 L856.4711,559.3797 L858.6859,559.0077 L860.9132,558.8081 L863.1694,559.0066 L865.3848,558.6416 L865.3719,558.5092 L867.4082,558.7096 L869.3571,558.0094 L871.4054,558.3332 L873.3977,558.0805 L875.375,557.6724 L875.3928,557.7798 L878.3691,557.197 L881.4091,556.9988 L884.3915,556.4532 L887.3498,555.7622 L890.3281,555.1919 L890.3881,555.295 L891.4334,554.4817 L892.757,554.1468 L893.7659,553.271 L894.9042,552.6176 L896,551.8912 " fill="none" style="stroke:#181818;stroke-width:4.0;"/><text fill="#000000" font-family="Chalkduster" font-size="24" font-weight="bold" lengthAdjust="spacing" textLength="126" x="701" y="587.732">Storage 2</text></g><!--cluster stor3--><g id="cluster_stor3"><path d="M39,551.8912 L39,551.8912 L39.0478,551.9714 L40.0144,551.0728 L41.2611,550.6447 L42.4167,550.0633 L43.2722,548.9781 L44.543,548.5904 L44.5372,548.5563 L47.4339,547.9074 L50.3598,547.4302 L53.3059,547.0722 L56.1822,546.3031 L59.1563,546.1099 L59.1806,546.3548 L61.0812,545.6373 L63.0528,545.6347 L65.0331,545.7194 L66.963,545.2966 L68.9194,545.1407 L68.9217,545.1709 L71.0978,544.9649 L73.2841,544.8966 L75.4655,544.7618 L77.6563,544.7538 L79.8164,544.3326 L79.8333,544.6303 L82.1641,544.5016 L84.484,544.1809 L86.8198,544.1413 L89.1564,544.1149 L91.4692,543.6709 L91.4551,543.3507 L93.8887,543.8663 L96.2757,543.3274 L98.6981,543.5901 L101.0842,543.0273 L103.5,543.1412 L103.4991,543.1107 L108.2468,543.3261 L112.9728,542.8304 L117.7116,542.7543 L122.4515,542.7135 L127.1836,542.4185 L127.1869,542.6035 L131.3156,542.3426 L135.4499,542.3977 L139.5751,541.9415 L143.714,542.248 L147.8438,542.0474 L147.8456,542.291 L151.8765,542.2137 L155.9084,542.2574 L159.9358,541.739 L163.9665,541.6326 L168,541.8912 L168,541.8912 L167.9979,541.615 L172.031,541.8962 L176.0618,541.8663 L180.0961,542.2878 L184.1244,541.9385 L188.1563,542.0474 L188.1535,541.895 L192.2901,542.2231 L196.415,541.8995 L200.5482,542.0394 L204.6896,542.6327 L208.8164,542.4185 L208.8223,542.612 L213.5631,542.8893 L218.2855,542.5646 L223.0309,542.9939 L227.7713,543.2589 L232.5,543.1412 L232.4908,542.9314 L234.9043,543.2046 L237.3148,543.409 L239.7312,543.7484 L242.1245,543.5631 L244.5308,543.6709 L244.5424,543.8762 L246.8474,543.5575 L249.1748,543.6351 L251.5351,544.2914 L253.835,543.8821 L256.1836,544.3326 L256.2003,544.5582 L258.3698,544.5858 L260.5336,544.5371 L262.7101,544.6606 L264.9163,545.1824 L267.0806,545.1407 L267.0674,545.0083 L269.0592,545.5963 L270.9616,545.2839 L272.9656,545.9953 L274.9124,546.1303 L276.8438,546.1099 L276.862,546.2173 L279.7699,546.6267 L282.7431,547.4205 L285.6574,547.867 L288.547,548.1684 L291.457,548.5904 L291.518,548.6928 L292.536,549.2008 L293.8371,550.1843 L294.818,550.63 L295.9306,551.2969 L297,551.8912 L295.3777,551.8912 L295.9194,561.6604 L298.4153,571.4296 L298.146,581.1989 L296.8855,590.9681 L296.1409,600.7373 L296.4162,610.5065 L295.1702,620.2758 L298.106,630.045 L298.9722,639.8142 L298.4037,649.5835 L298.8532,659.3527 L296.6354,669.1219 L297,678.8912 L297,678.8912 L297.0198,678.9245 L295.8033,679.4033 L294.8474,680.3199 L293.7303,680.9659 L292.6912,681.7427 L291.457,682.1919 L291.44,682.0913 L288.5244,682.6291 L285.6447,683.3784 L282.7313,683.9288 L279.7283,683.9517 L276.8438,684.6724 L276.8352,684.5867 L274.8977,684.9323 L272.9117,684.7899 L271.0014,685.4102 L269.0445,685.5619 L267.0806,685.6416 L267.0773,685.597 L264.9058,685.8663 L262.7457,686.2879 L260.5321,685.9878 L258.3733,686.4277 L256.1836,686.4498 L256.1908,686.5765 L253.8559,686.6334 L251.526,686.7769 L249.1948,686.8971 L246.8456,686.7021 L244.5308,687.1114 L244.5229,686.9334 L242.1156,687.0124 L239.7197,687.3516 L237.314,687.4684 L234.9093,687.607 L232.5,687.6412 L232.4961,687.5119 L227.7624,687.7557 L223.0249,687.8768 L218.2977,688.331 L213.5589,688.4088 L208.8164,688.3638 L208.8125,688.1481 L204.6838,688.4056 L200.5477,688.2557 L196.4226,688.7146 L192.2931,688.9311 L188.1563,688.7349 L188.1581,688.9769 L184.1235,688.5726 L180.0953,689.0036 L176.0599,688.4985 L172.0319,688.9489 L168,688.8912 L168,688.8912 L167.999,688.7581 L163.9691,688.9029 L159.9383,688.9355 L155.9079,689.0072 L151.8725,688.4462 L147.8438,688.7349 L147.8475,688.9462 L143.7131,688.7399 L139.5825,688.7444 L135.4536,688.8446 L131.3157,688.4405 L127.1836,688.3638 L127.186,688.4417 L122.4498,688.3141 L117.7128,688.1624 L112.9734,687.9299 L108.2464,688.1014 L103.5,687.6412 L103.4881,687.3704 L101.1049,687.7862 L98.6755,687.1522 L96.271,687.0834 L93.8762,687.2351 L91.4692,687.1114 L91.47,687.1239 L89.1263,686.7604 L86.8185,687.0303 L84.4803,686.7627 L82.1653,686.9045 L79.8164,686.4498 L79.8383,686.7454 L77.6223,686.0895 L75.4445,685.9501 L73.274,685.9076 L71.1105,685.9608 L68.9194,685.6416 L68.9371,685.8199 L66.98,685.581 L64.9991,685.1027 L63.0895,685.3415 L61.1367,685.1466 L59.1563,684.6724 L59.1527,684.6517 L56.2158,684.0716 L53.2811,683.5043 L50.3723,683.0901 L47.4758,682.7482 L44.543,682.1919 L44.5274,682.1658 L43.3394,681.3722 L42.4366,681.0577 L41.1128,680.0362 L40.2228,679.7432 L39,678.8912 L40.1393,678.8912 L39.9916,669.1219 L40.8467,659.3527 L38.3443,649.5835 L38.1983,639.8142 L40.3837,630.045 L37.4083,620.2758 L38.376,610.5065 L39.308,600.7373 L39.1832,590.9681 L38.0441,581.1989 L38.8854,571.4296 L40.9856,561.6604 L39,551.8912 " fill="none" style="stroke:#181818;stroke-width:4.0;"/><path d="M39,551.8912 L39,551.8912 L39.0478,551.9714 L40.0144,552.3931 L41.2611,553.2853 L42.4167,554.0243 L43.2722,554.2594 L44.543,555.1919 L44.5372,555.1579 L47.4339,555.5012 L50.3598,556.0161 L53.3059,556.6504 L56.1822,556.8734 L59.1563,557.6724 L59.1806,557.9173 L61.0812,557.5875 L63.0528,557.9726 L65.0331,558.445 L66.963,558.4099 L68.9194,558.6416 L68.9217,558.6719 L71.0978,558.7891 L73.2841,559.044 L75.4655,559.2325 L77.6563,559.5477 L79.8164,559.4498 L79.8333,559.7475 L82.1641,559.8835 L84.484,559.8274 L86.8198,560.0524 L89.1564,560.2907 L91.4692,560.1114 L91.4551,559.7912 L93.8887,560.5186 L96.2757,560.1916 L98.6981,560.6663 L101.0842,560.3154 L103.5,560.6412 L103.4991,560.6107 L108.2468,561.1151 L112.9728,560.9086 L117.7116,561.1215 L122.4515,561.3697 L127.1836,561.3638 L127.1869,561.5488 L131.3156,561.4363 L135.4499,561.6399 L139.5751,561.3321 L143.714,561.7871 L147.8438,561.7349 L147.8456,561.9785 L151.8765,561.9637 L155.9084,562.0699 L159.9358,561.614 L163.9665,561.5701 L168,561.8912 L168,561.8912 L167.9979,561.615 L172.031,561.8337 L176.0618,561.7413 L180.0961,562.1003 L184.1244,561.6885 L188.1563,561.7349 L188.1535,561.5825 L192.2901,561.7621 L196.415,561.2901 L200.5482,561.2816 L204.6896,561.7264 L208.8164,561.3638 L208.8223,561.5574 L213.5631,561.5456 L218.2855,560.9318 L223.0309,561.072 L227.7713,561.048 L232.5,560.6412 L232.4908,560.4314 L234.9043,560.4926 L237.3148,560.4852 L239.7312,560.6127 L242.1245,560.2155 L244.5308,560.1114 L244.5424,560.3166 L246.8474,559.7333 L249.1748,559.5462 L251.5351,559.9379 L253.835,559.264 L256.1836,559.4498 L256.2003,559.6753 L258.3698,559.3797 L260.5336,559.0078 L262.7101,558.8081 L264.9163,559.0066 L267.0806,558.6416 L267.0674,558.5093 L269.0592,558.7096 L270.9616,558.0095 L272.9656,558.3332 L274.9124,558.0805 L276.8438,557.6724 L276.862,557.7798 L279.7699,557.197 L282.7431,556.9986 L285.6574,556.453 L288.547,555.7622 L291.457,555.1919 L291.518,555.2944 L292.536,554.482 L293.8371,554.1452 L294.818,553.2706 L295.9306,552.6172 L297,551.8912 " fill="none" style="stroke:#181818;stroke-width:4.0;"/><text fill="#000000" font-family="Chalkduster" font-size="24" font-weight="bold" lengthAdjust="spacing" textLength="129" x="103.5" y="587.732">Storage 3</text></g><!--entity api1--><g id="elem_api1"><polygon fill="none" points="417,435.8912,417,436.1013,427.6667,435.4768,438.3333,436.0844,449,436.2908,459.6667,435.1778,470.3333,435.8134,481,435.8912,480.9456,435.7598,481.3046,435.9195,481.6984,436.1631,481.9725,436.1176,482.4848,436.6474,482.7678,436.6234,482.5737,436.543,482.8533,436.9517,483.1937,437.3856,483.1807,437.6731,483.3746,438.0463,483.5,438.3912,483.4681,438.3912,483.6785,447.5171,483.7391,456.6431,484.0857,465.7691,484.1711,474.895,483.5,484.021,483.7092,484.1076,483.432,484.407,483.3499,484.7872,483.2769,485.1712,482.6921,485.3432,482.7678,485.7888,482.8543,485.9977,482.3764,485.8439,482.1288,486.246,481.644,486.0757,481.3448,486.3535,481,486.521,481,487.2626,470.3333,486.4723,459.6667,486.6263,449,486.8596,438.3333,486.9372,427.6667,486.5171,417,486.521,417.0366,486.6094,416.5734,486.1983,416.3292,486.3157,416.0093,486.2505,415.6425,486.0721,415.2322,485.7888,415.421,485.867,414.937,485.3736,414.7385,484.9985,414.6015,484.6488,414.6283,484.367,414.5,484.021,414.3035,484.021,415.1814,474.895,414.3253,465.7691,414.1569,456.6431,414.7283,447.5171,414.5,438.3912,414.2946,438.3061,414.4866,437.9714,414.9927,437.7668,415.0735,437.3861,415.312,437.0706,415.2322,436.6234,415.1912,436.5243,415.6265,436.5752,416.0147,436.5123,416.2326,436.0386,416.6342,436.0081,417,435.8912" style="stroke:#181818;stroke-width:4.0;"/><text fill="#000000" font-family="Chalkduster" font-size="24" lengthAdjust="spacing" textLength="49" x="424.5" y="469.732">API</text></g><!--entity api2--><g id="elem_api2"><polygon fill="none" points="51,435.8912,51,436.1013,61.6667,435.4768,72.3333,436.0844,83,436.2908,93.6667,435.1778,104.3333,435.8134,115,435.8912,114.9456,435.7598,115.3046,435.9195,115.6984,436.1631,115.9725,436.1176,116.4848,436.6474,116.7678,436.6234,116.5737,436.543,116.8533,436.9517,117.1937,437.3856,117.1807,437.6731,117.3746,438.0463,117.5,438.3912,117.4681,438.3912,117.6785,447.5171,117.7391,456.6431,118.0857,465.7691,118.1711,474.895,117.5,484.021,117.7092,484.1076,117.432,484.407,117.3499,484.7872,117.2769,485.1712,116.6921,485.3432,116.7678,485.7888,116.8543,485.9977,116.3764,485.8439,116.1288,486.246,115.644,486.0757,115.3448,486.3535,115,486.521,115,487.2626,104.3333,486.4723,93.6667,486.6263,83,486.8596,72.3333,486.9372,61.6667,486.5171,51,486.521,51.0366,486.6094,50.5734,486.1983,50.3292,486.3157,50.0093,486.2505,49.6425,486.0721,49.2322,485.7888,49.421,485.867,48.937,485.3736,48.7385,484.9985,48.6015,484.6488,48.6283,484.367,48.5,484.021,48.3035,484.021,49.1814,474.895,48.3253,465.7691,48.1569,456.6431,48.7283,447.5171,48.5,438.3912,48.2946,438.3061,48.4866,437.9714,48.9927,437.7668,49.0735,437.3861,49.312,437.0706,49.2322,436.6234,49.1912,436.5243,49.6265,436.5752,50.0147,436.5123,50.2326,436.0386,50.6342,436.0081,51,435.8912" style="stroke:#181818;stroke-width:4.0;"/><text fill="#000000" font-family="Chalkduster" font-size="24" lengthAdjust="spacing" textLength="49" x="58.5" y="469.732">API</text></g><!--entity i1--><g id="elem_i1"><path d="M543.5,230.8912 L543.5,230.8912 L543.5525,230.9684 L545.0997,229.5826 L546.9545,228.6497 L548.7092,227.5694 L550.1344,226.0038 L552.0156,225.1099 L552.0102,225.0758 L555.7328,224.3289 L559.4827,223.7541 L563.2515,223.2987 L566.955,222.4314 L570.75,222.1412 L570.7643,222.3868 L574.4805,221.6428 L578.2386,221.6159 L582.0018,221.6766 L585.7353,221.2281 L589.4844,221.0474 L589.4849,221.0777 L591.1872,221.002 L592.8921,221.0642 L594.5957,221.0599 L596.3017,221.1827 L598,220.8912 L598,220.8912 L598.0055,221.1894 L599.7087,221.2243 L601.4083,221.0668 L603.1132,221.1909 L604.8182,221.3282 L606.5156,221.0474 L606.4969,220.7274 L610.2801,221.5672 L614.0017,221.3534 L617.7701,221.9405 L621.4903,221.7028 L625.25,222.1412 L625.2452,222.1111 L629.0485,223.0605 L632.7404,223.3073 L636.4979,223.9686 L640.2611,224.6648 L643.9844,225.1099 L644.0883,225.263 L645.6865,226.2647 L647.4623,227.528 L648.9509,228.3682 L650.8679,229.8395 L652.5,230.8912 L653.9619,230.8912 L653.6854,240.9283 L654.1347,250.9654 L651.2118,261.0024 L650.7608,271.0395 L650.8429,281.0766 L652.343,291.1137 L652.5,301.1508 L652.5,301.1508 L652.4509,301.0786 L650.967,302.5576 L649.0501,303.3991 L647.305,304.4934 L645.7445,305.8598 L643.9844,306.9321 L643.938,306.6394 L640.2014,307.2979 L636.5358,308.4044 L632.7741,308.9046 L629.048,309.6295 L625.25,309.9008 L625.2417,309.7581 L621.5114,310.2612 L617.7715,310.6003 L613.9971,310.3475 L610.26,310.7333 L606.5156,310.9946 L606.5167,311.0506 L604.8178,311.3154 L603.1093,311.0552 L601.41,311.2939 L599.6986,310.8735 L598,311.1508 L598,311.1508 L597.9945,310.8499 L596.301,311.3434 L594.5879,310.7697 L592.8948,311.2832 L591.1892,311.1176 L589.4844,310.9946 L589.4774,310.8757 L585.7283,310.6189 L582.0025,310.7606 L578.236,310.2055 L574.5122,310.3822 L570.75,309.9008 L570.7116,309.6582 L567.0461,309.5781 L563.2899,308.9259 L559.5264,308.2271 L555.7658,307.5466 L552.0156,306.9321 L552.197,307.1993 L550.4657,306.0014 L548.6516,304.6818 L546.9732,303.5619 L545.1706,302.2592 L543.5,301.1508 L545.4105,301.1508 L543.913,291.1137 L543.9602,281.0766 L541.8777,271.0395 L542.4194,261.0024 L544.9153,250.9654 L544.646,240.9283 L543.5,230.8912 " fill="none" style="stroke:#181818;stroke-width:4.0;"/><path d="M543.5,230.8912 L543.5,230.8912 L543.5525,230.9684 L545.0997,231.8951 L546.9545,233.2747 L548.7092,234.5069 L550.1344,235.2538 L552.0156,236.6724 L552.0102,236.6383 L555.7328,237.0789 L559.4827,237.6916 L563.2515,238.4237 L566.955,238.7439 L570.75,239.6412 L570.7643,239.8868 L574.4805,239.5803 L578.2386,239.9909 L582.0018,240.4891 L585.7353,240.4781 L589.4844,240.7349 L589.4849,240.7652 L591.1872,240.752 L592.8921,240.8767 L594.5957,240.9349 L596.3017,241.1202 L598,240.8912 L598,240.8912 L598.0055,241.1894 L599.7087,241.1618 L601.4083,240.9418 L603.1132,241.0034 L604.8182,241.0782 L606.5156,240.7349 L606.4969,240.4149 L610.2801,240.8172 L614.0017,240.1659 L617.7701,240.3155 L621.4903,239.6403 L625.25,239.6412 L625.2452,239.6111 L629.0485,239.373 L632.7404,238.4323 L636.4979,237.9061 L640.2611,237.4148 L643.9844,236.6724 L644.0883,236.8255 L645.6865,235.5147 L647.4623,234.4655 L648.9509,232.9932 L650.8679,232.152 L652.5,230.8912 " fill="none" style="stroke:#181818;stroke-width:4.0;"/><text fill="#000000" font-family="Chalkduster" font-size="24" lengthAdjust="spacing" textLength="89" x="553.5" y="268.732">Index:</text><text fill="#000000" font-family="Chalkduster" font-size="24" lengthAdjust="spacing" textLength="35" x="565.5" y="299.3619">1,2</text></g><!--entity i2--><g id="elem_i2"><path d="M307,230.8912 L307,230.8912 L307.0479,230.9714 L308.8431,229.5768 L310.919,228.6524 L312.9035,227.5749 L314.5875,225.9939 L316.6875,225.1099 L316.6814,225.0759 L318.64,224.5679 L320.6293,224.2312 L322.64,224.0137 L324.5771,223.3856 L326.6172,223.3326 L326.6428,223.5773 L328.8646,222.8157 L331.1612,222.7686 L333.4669,222.8087 L335.7195,222.3415 L338,222.1412 L338.0019,222.1714 L340.2757,221.9825 L342.5582,221.9313 L344.8364,221.8136 L347.1227,221.8228 L349.3828,221.4185 L349.394,221.7165 L351.38,221.646 L353.3589,221.3832 L355.3483,221.4017 L357.3382,221.4335 L359.3125,221.0474 L359.3073,220.7269 L361.2549,221.3177 L363.1854,220.8531 L365.1288,221.1909 L367.059,220.7024 L369,220.8912 L369,220.8912 L368.9995,220.8607 L370.9428,221.252 L372.8747,220.932 L374.8133,221.0317 L376.7524,221.1666 L378.6875,221.0474 L378.6944,221.2323 L380.6734,221.1199 L382.6641,221.3234 L384.6358,221.0158 L386.636,221.4706 L388.6172,221.4185 L388.6326,221.6617 L390.9063,221.7602 L393.1876,221.9795 L395.4333,221.6378 L397.7051,221.7074 L400,222.1412 L399.9713,221.8665 L402.2738,222.3534 L404.544,222.5309 L406.8612,223.1572 L409.0982,223.0171 L411.3828,223.3326 L411.3559,223.1825 L413.3866,223.7879 L415.3025,223.7518 L417.3,224.1719 L419.3774,225.0384 L421.3125,225.1099 L421.4117,225.2762 L423.4173,226.5465 L425.1142,227.2996 L427.1977,228.7005 L429.197,229.9602 L431,230.8912 L429.7403,230.8912 L430.7444,240.9283 L431.336,250.9654 L432.738,261.0024 L430.9888,271.0395 L432.2335,281.0766 L429.5232,291.1137 L431,301.1508 L431,301.1508 L430.8457,300.8924 L429.1772,302.4993 L426.9617,303.1897 L425.3034,304.8138 L423.2971,305.8547 L421.3125,306.9321 L421.2915,306.8149 L419.2989,307.1328 L417.3765,307.8437 L415.3312,307.8675 L413.4151,308.6129 L411.3828,308.7094 L411.3572,308.4651 L409.1348,309.2206 L406.8521,309.4001 L404.5645,309.5325 L402.2787,309.6834 L400,309.9008 L400.0205,310.2231 L397.7407,310.3175 L395.4516,310.265 L393.1779,310.4534 L390.8901,310.4212 L388.6172,310.6235 L388.6291,310.9417 L386.6338,310.7665 L384.6482,310.8486 L382.6493,310.576 L380.6667,310.7404 L378.6875,310.9946 L378.6913,311.2304 L376.7531,311.2168 L374.8122,311.038 L372.8727,310.9452 L370.9359,311.0223 L369,311.1508 L369,311.1508 L368.9951,310.8459 L367.0655,311.3039 L365.1303,311.417 L363.1913,311.291 L361.255,311.3346 L359.3125,310.9946 L359.3102,310.9339 L357.328,310.9591 L355.3342,310.674 L353.3594,310.8981 L351.3728,310.8073 L349.3828,310.6235 L349.3984,310.8685 L347.0998,310.3771 L344.8259,310.2748 L342.5656,310.3866 L340.2925,310.297 L338,309.9008 L337.9763,309.6743 L335.7145,309.5768 L333.4538,309.4902 L331.1421,308.916 L328.9101,309.1039 L326.6172,308.7094 L326.6374,308.8223 L324.6234,308.3099 L322.6565,308.0607 L320.7164,307.9618 L318.6489,307.1507 L316.6875,306.9321 L316.7592,307.0523 L314.8151,305.8848 L312.8389,304.6638 L310.9071,303.5171 L308.9633,302.3504 L307,301.1508 L305.3356,301.1508 L305.9312,291.1137 L305.7692,281.0766 L307.1702,271.0395 L307.235,261.0024 L307.4313,250.9654 L306.2241,240.9283 L307,230.8912 " fill="none" style="stroke:#181818;stroke-width:4.0;"/><path d="M307,230.8912 L307,230.8912 L307.0479,230.9714 L308.8431,231.8893 L310.919,233.2774 L312.9035,234.5124 L314.5875,235.2439 L316.6875,236.6724 L316.6814,236.6384 L318.64,236.8413 L320.6293,237.2156 L322.64,237.709 L324.5771,237.7918 L326.6172,238.4498 L326.6428,238.6945 L328.8646,238.4094 L331.1612,238.8389 L333.4669,239.3555 L335.7195,239.365 L338,239.6412 L338.0019,239.6714 L340.2757,239.7715 L342.5582,240.0094 L344.8364,240.1808 L347.1227,240.4791 L349.3828,240.3638 L349.394,240.6619 L351.38,240.7397 L353.3589,240.6253 L355.3483,240.7924 L357.3382,240.9726 L359.3125,240.7349 L359.3073,240.4144 L361.2549,241.0677 L363.1854,240.6656 L365.1288,241.0659 L367.059,240.6399 L369,240.8912 L369,240.8912 L368.9995,240.8607 L370.9428,241.1895 L372.8747,240.807 L374.8133,240.8442 L376.7524,240.9166 L378.6875,240.7349 L378.6944,240.9198 L380.6734,240.659 L382.6641,240.714 L384.6358,240.258 L386.636,240.5643 L388.6172,240.3638 L388.6326,240.607 L390.9063,240.4165 L393.1876,240.3467 L395.4333,239.716 L397.7051,239.4964 L400,239.6412 L399.9713,239.3665 L402.2738,239.3769 L404.544,239.0777 L406.8612,239.2275 L409.0982,238.6108 L411.3828,238.4498 L411.3559,238.2997 L413.3866,238.1942 L415.3025,237.4471 L417.3,237.1562 L419.3774,237.3118 L421.3125,236.6724 L421.4117,236.8387 L423.4173,235.7965 L425.1142,234.2371 L427.1977,233.3255 L429.197,232.2727 L431,230.8912 " fill="none" style="stroke:#181818;stroke-width:4.0;"/><text fill="#000000" font-family="Chalkduster" font-size="24" lengthAdjust="spacing" textLength="89" x="317" y="268.732">Index:</text><text fill="#000000" font-family="Chalkduster" font-size="24" lengthAdjust="spacing" textLength="92" x="329" y="299.3619">1,2,3 4</text></g><!--entity i3--><g id="elem_i3"><path d="M47,230.8912 L47,230.8912 L47.0479,230.9714 L48.8431,229.5768 L50.919,228.6524 L52.9035,227.5749 L54.5875,225.9939 L56.6875,225.1099 L56.6814,225.0759 L58.64,224.5679 L60.6293,224.2312 L62.64,224.0137 L64.5771,223.3856 L66.6172,223.3326 L66.6428,223.5773 L68.8646,222.8157 L71.1612,222.7686 L73.4669,222.8087 L75.7195,222.3415 L78,222.1412 L78.0019,222.1714 L80.2757,221.9825 L82.5582,221.9313 L84.8364,221.8136 L87.1227,221.8228 L89.3828,221.4185 L89.394,221.7165 L91.38,221.646 L93.3589,221.3832 L95.3483,221.4017 L97.3382,221.4335 L99.3125,221.0474 L99.3073,220.7269 L101.2549,221.3177 L103.1854,220.8531 L105.1288,221.1909 L107.059,220.7024 L109,220.8912 L109,220.8912 L108.9995,220.8607 L110.9428,221.252 L112.8747,220.932 L114.8133,221.0317 L116.7524,221.1666 L118.6875,221.0474 L118.6944,221.2323 L120.6734,221.1199 L122.6641,221.3234 L124.6358,221.0158 L126.636,221.4706 L128.6172,221.4185 L128.6326,221.6617 L130.9063,221.7602 L133.1876,221.9795 L135.4333,221.6378 L137.7051,221.7074 L140,222.1412 L139.9713,221.8665 L142.2738,222.3534 L144.544,222.5309 L146.8612,223.1572 L149.0982,223.0171 L151.3828,223.3326 L151.3559,223.1825 L153.3866,223.7879 L155.3025,223.7518 L157.3,224.1719 L159.3774,225.0384 L161.3125,225.1099 L161.4117,225.2762 L163.4173,226.5465 L165.1142,227.2996 L167.1977,228.7005 L169.197,229.9602 L171,230.8912 L169.7403,230.8912 L170.7444,240.9283 L171.336,250.9654 L172.738,261.0024 L170.9888,271.0395 L172.2335,281.0766 L169.5232,291.1137 L171,301.1508 L171,301.1508 L170.8457,300.8924 L169.1772,302.4993 L166.9617,303.1897 L165.3034,304.8138 L163.2971,305.8547 L161.3125,306.9321 L161.2915,306.8149 L159.2989,307.1328 L157.3765,307.8437 L155.3312,307.8675 L153.4151,308.6129 L151.3828,308.7094 L151.3572,308.4651 L149.1348,309.2206 L146.8521,309.4001 L144.5645,309.5325 L142.2787,309.6834 L140,309.9008 L140.0205,310.2231 L137.7407,310.3175 L135.4516,310.265 L133.1779,310.4534 L130.8901,310.4212 L128.6172,310.6235 L128.6291,310.9417 L126.6338,310.7665 L124.6482,310.8486 L122.6493,310.576 L120.6667,310.7404 L118.6875,310.9946 L118.6913,311.2304 L116.7531,311.2168 L114.8122,311.038 L112.8727,310.9452 L110.9359,311.0223 L109,311.1508 L109,311.1508 L108.9951,310.8459 L107.0655,311.3039 L105.1303,311.417 L103.1913,311.291 L101.255,311.3346 L99.3125,310.9946 L99.3102,310.9339 L97.328,310.9591 L95.3342,310.674 L93.3594,310.8981 L91.3728,310.8073 L89.3828,310.6235 L89.3984,310.8685 L87.0998,310.3771 L84.8259,310.2748 L82.5656,310.3866 L80.2925,310.297 L78,309.9008 L77.9763,309.6743 L75.7145,309.5768 L73.4538,309.4902 L71.1421,308.916 L68.9101,309.1039 L66.6172,308.7094 L66.6374,308.8223 L64.6234,308.3099 L62.6565,308.0607 L60.7164,307.9618 L58.6489,307.1507 L56.6875,306.9321 L56.7592,307.0523 L54.8151,305.8848 L52.8389,304.6638 L50.9071,303.5171 L48.9633,302.3504 L47,301.1508 L45.3356,301.1508 L45.9312,291.1137 L45.7692,281.0766 L47.1702,271.0395 L47.235,261.0024 L47.4313,250.9654 L46.2241,240.9283 L47,230.8912 " fill="none" style="stroke:#181818;stroke-width:4.0;"/><path d="M47,230.8912 L47,230.8912 L47.0479,230.9714 L48.8431,231.8893 L50.919,233.2774 L52.9035,234.5124 L54.5875,235.2439 L56.6875,236.6724 L56.6814,236.6384 L58.64,236.8413 L60.6293,237.2156 L62.64,237.709 L64.5771,237.7918 L66.6172,238.4498 L66.6428,238.6945 L68.8646,238.4094 L71.1612,238.8389 L73.4669,239.3555 L75.7195,239.365 L78,239.6412 L78.0019,239.6714 L80.2757,239.7715 L82.5582,240.0094 L84.8364,240.1808 L87.1227,240.4791 L89.3828,240.3638 L89.394,240.6619 L91.38,240.7397 L93.3589,240.6253 L95.3483,240.7924 L97.3382,240.9726 L99.3125,240.7349 L99.3073,240.4144 L101.2549,241.0677 L103.1854,240.6656 L105.1288,241.0659 L107.059,240.6399 L109,240.8912 L109,240.8912 L108.9995,240.8607 L110.9428,241.1895 L112.8747,240.807 L114.8133,240.8442 L116.7524,240.9166 L118.6875,240.7349 L118.6944,240.9198 L120.6734,240.659 L122.6641,240.714 L124.6358,240.258 L126.636,240.5643 L128.6172,240.3638 L128.6326,240.607 L130.9063,240.4165 L133.1876,240.3467 L135.4333,239.716 L137.7051,239.4964 L140,239.6412 L139.9713,239.3665 L142.2738,239.3769 L144.544,239.0777 L146.8612,239.2275 L149.0982,238.6108 L151.3828,238.4498 L151.3559,238.2997 L153.3866,238.1942 L155.3025,237.4471 L157.3,237.1562 L159.3774,237.3118 L161.3125,236.6724 L161.4117,236.8387 L163.4173,235.7965 L165.1142,234.2371 L167.1977,233.3255 L169.197,232.2727 L171,230.8912 " fill="none" style="stroke:#181818;stroke-width:4.0;"/><text fill="#000000" font-family="Chalkduster" font-size="24" lengthAdjust="spacing" textLength="89" x="57" y="268.732">Index:</text><text fill="#000000" font-family="Chalkduster" font-size="24" lengthAdjust="spacing" textLength="92" x="69" y="299.3619">1,2,3 4</text></g><!--entity Obj1--><g id="elem_Obj1"><polygon fill="none" points="493,613.8912,493,614.1013,503.2857,613.4768,513.5714,614.0844,523.8571,614.2908,534.1429,613.1778,544.4286,613.8134,554.7143,613.4647,565,613.8912,564.9511,613.7731,565.3449,614.0166,565.6189,613.9711,566.1313,614.501,566.3338,614.2828,566.7678,614.6234,566.7069,614.5982,567.0472,615.032,567.0342,615.3196,567.2281,615.6928,567.3437,616.0335,567.5,616.3912,567.6785,616.3912,567.7391,625.5171,568.0857,634.6431,568.1711,643.7691,568.1793,652.895,567.5,662.021,567.5784,662.0535,567.4963,662.4337,567.4234,662.8177,566.8386,662.9897,567.1232,663.5218,566.7678,663.7888,566.7299,663.6975,566.4823,664.0996,565.9975,663.9292,565.6984,664.207,565.4482,664.6029,565,664.521,565,664.4723,554.7143,664.6263,544.4286,664.8596,534.1429,664.9372,523.8571,664.5171,513.5714,664.8082,503.2857,663.9486,493,664.521,493.0363,664.6086,492.7164,664.5434,492.3496,664.365,492.0175,664.2704,491.5242,663.7864,491.2322,663.7888,491.0314,663.7056,490.8944,663.3559,490.9212,663.0741,490.7324,662.703,490.8563,662.4615,490.5,662.021,490.3253,662.021,490.1569,652.895,490.7283,643.7691,489.8332,634.6431,489.9809,625.5171,490.5,616.3912,490.6999,616.4739,490.7806,616.0932,491.0191,615.7777,490.8402,615.2895,491.1841,615.0177,491.2322,614.6234,491.3075,614.8052,491.5255,614.3315,491.9271,614.301,492.309,614.2229,492.7296,614.2383,493,613.8912" style="stroke:#181818;stroke-width:4.0;"/><text fill="#000000" font-family="Chalkduster" font-size="24" lengthAdjust="spacing" textLength="57" x="500.5" y="647.732">Obj1</text></g><!--entity Obj2--><g id="elem_Obj2"><polygon fill="none" points="383,613.8912,383,614.1013,393,613.4768,403,614.0844,413,614.2908,423,613.1778,433,613.8134,443,613.4647,453,613.8912,452.9511,613.7731,453.3449,614.0166,453.6189,613.9711,454.1313,614.501,454.3338,614.2828,454.7678,614.6234,454.7069,614.5982,455.0472,615.032,455.0342,615.3196,455.2281,615.6928,455.3437,616.0335,455.5,616.3912,455.6785,616.3912,455.7391,625.5171,456.0857,634.6431,456.1711,643.7691,456.1793,652.895,455.5,662.021,455.5784,662.0535,455.4963,662.4337,455.4234,662.8177,454.8386,662.9897,455.1232,663.5218,454.7678,663.7888,454.7299,663.6975,454.4823,664.0996,453.9975,663.9292,453.6984,664.207,453.4482,664.6029,453,664.521,453,664.4723,443,664.6263,433,664.8596,423,664.9372,413,664.5171,403,664.8082,393,663.9486,383,664.521,383.0363,664.6086,382.7164,664.5434,382.3496,664.365,382.0175,664.2704,381.5242,663.7864,381.2322,663.7888,381.0314,663.7056,380.8944,663.3559,380.9212,663.0741,380.7324,662.703,380.8563,662.4615,380.5,662.021,380.3253,662.021,380.1569,652.895,380.7283,643.7691,379.8332,634.6431,379.9809,625.5171,380.5,616.3912,380.6999,616.4739,380.7806,616.0932,381.0191,615.7777,380.8402,615.2895,381.1841,615.0177,381.2322,614.6234,381.3075,614.8052,381.5255,614.3315,381.9271,614.301,382.309,614.2229,382.7296,614.2383,383,613.8912" style="stroke:#181818;stroke-width:4.0;"/><text fill="#000000" font-family="Chalkduster" font-size="24" lengthAdjust="spacing" textLength="55" x="390.5" y="647.732">Obj2</text></g><!--entity Obj3--><g id="elem_Obj3"><polygon fill="none" points="796.5,613.8912,796.5,614.1013,806.9286,613.4768,817.3571,614.0844,827.7857,614.2908,838.2143,613.1778,848.6429,613.8134,859.0714,613.4647,869.5,613.8912,869.4511,613.7731,869.8449,614.0166,870.1189,613.9711,870.6313,614.501,870.8338,614.2828,871.2678,614.6234,871.2069,614.5982,871.5472,615.032,871.5342,615.3196,871.7281,615.6928,871.8437,616.0335,872,616.3912,872.1785,616.3912,872.2391,625.5171,872.5857,634.6431,872.6711,643.7691,872.6793,652.895,872,662.021,872.0784,662.0535,871.9963,662.4337,871.9234,662.8177,871.3386,662.9897,871.6232,663.5218,871.2678,663.7888,871.2299,663.6975,870.9823,664.0996,870.4975,663.9292,870.1984,664.207,869.9482,664.6029,869.5,664.521,869.5,664.4723,859.0714,664.6263,848.6429,664.8596,838.2143,664.9372,827.7857,664.5171,817.3571,664.8082,806.9286,663.9486,796.5,664.521,796.5363,664.6086,796.2164,664.5434,795.8496,664.365,795.5175,664.2704,795.0242,663.7864,794.7322,663.7888,794.5314,663.7056,794.3944,663.3559,794.4212,663.0741,794.2324,662.703,794.3563,662.4615,794,662.021,793.8253,662.021,793.6569,652.895,794.2283,643.7691,793.3332,634.6431,793.4809,625.5171,794,616.3912,794.1999,616.4739,794.2806,616.0932,794.5191,615.7777,794.3402,615.2895,794.6841,615.0177,794.7322,614.6234,794.8075,614.8052,795.0255,614.3315,795.4271,614.301,795.809,614.2229,796.2296,614.2383,796.5,613.8912" style="stroke:#181818;stroke-width:4.0;"/><text fill="#000000" font-family="Chalkduster" font-size="24" lengthAdjust="spacing" textLength="58" x="804" y="647.732">Obj3</text></g><!--entity Obj4--><g id="elem_Obj4"><polygon fill="none" points="677.5,613.8912,677.5,614.1013,687.375,613.4768,697.25,614.0844,707.125,614.2908,717,613.1778,726.875,613.8134,736.75,613.4647,746.625,613.5077,756.5,613.8912,756.4913,613.8702,756.7654,613.8247,757.2777,614.3546,757.4803,614.1364,757.889,614.416,758.2678,614.6234,758.4008,614.6785,758.3878,614.966,758.5817,615.3392,758.6973,615.68,758.9085,616.0604,759,616.3912,759.2391,616.3912,759.5857,625.5171,759.6711,634.6431,759.6793,643.7691,759.2546,652.895,759,662.021,759.1428,662.0801,759.0698,662.4641,758.485,662.6361,758.7696,663.1682,758.3229,663.3974,758.2678,663.7888,758.3359,663.9532,757.8511,663.7828,757.5519,664.0606,757.3017,664.4565,756.8473,664.3595,756.5,664.521,756.5,664.6263,746.625,664.8596,736.75,664.9372,726.875,664.5171,717,664.8082,707.125,663.9486,697.25,664.8054,687.375,665.0692,677.5,664.521,677.5567,664.6579,677.2246,664.5633,676.7313,664.0793,676.3561,663.8808,676.0065,663.7438,675.7322,663.7888,675.7141,663.7813,675.5253,663.4101,675.6492,663.1686,675.2391,662.7058,675.0408,662.3308,675,662.021,675.2283,662.021,674.3332,652.895,674.4809,643.7691,675.649,634.6431,675.4357,625.5171,675,616.3912,675.2262,616.4849,675.0473,615.9966,675.3912,615.7248,675.6212,615.4058,675.4403,614.9167,675.7322,614.6234,675.72,614.5939,676.1019,614.5157,676.5225,614.5312,676.7924,614.1828,677.2055,614.1801,677.5,613.8912" style="stroke:#181818;stroke-width:4.0;"/><text fill="#000000" font-family="Chalkduster" font-size="24" lengthAdjust="spacing" textLength="64" x="685" y="647.732">Obj4</text></g><!--entity Obj5--><g id="elem_Obj5"><polygon fill="none" points="198,613.8912,198,614.1013,208.2857,613.4768,218.5714,614.0844,228.8571,614.2908,239.1429,613.1778,249.4286,613.8134,259.7143,613.4647,270,613.8912,269.9511,613.7731,270.3449,614.0166,270.6189,613.9711,271.1313,614.501,271.3338,614.2828,271.7678,614.6234,271.7069,614.5982,272.0472,615.032,272.0342,615.3196,272.2281,615.6928,272.3437,616.0335,272.5,616.3912,272.6785,616.3912,272.7391,625.5171,273.0857,634.6431,273.1711,643.7691,273.1793,652.895,272.5,662.021,272.5784,662.0535,272.4963,662.4337,272.4234,662.8177,271.8386,662.9897,272.1232,663.5218,271.7678,663.7888,271.7299,663.6975,271.4823,664.0996,270.9975,663.9292,270.6984,664.207,270.4482,664.6029,270,664.521,270,664.4723,259.7143,664.6263,249.4286,664.8596,239.1429,664.9372,228.8571,664.5171,218.5714,664.8082,208.2857,663.9486,198,664.521,198.0363,664.6086,197.7164,664.5434,197.3496,664.365,197.0175,664.2704,196.5242,663.7864,196.2322,663.7888,196.0314,663.7056,195.8944,663.3559,195.9212,663.0741,195.7324,662.703,195.8563,662.4615,195.5,662.021,195.3253,662.021,195.1569,652.895,195.7283,643.7691,194.8332,634.6431,194.9809,625.5171,195.5,616.3912,195.6999,616.4739,195.7806,616.0932,196.0191,615.7777,195.8402,615.2895,196.1841,615.0177,196.2322,614.6234,196.3075,614.8052,196.5255,614.3315,196.9271,614.301,197.309,614.2229,197.7296,614.2383,198,613.8912" style="stroke:#181818;stroke-width:4.0;"/><text fill="#000000" font-family="Chalkduster" font-size="24" lengthAdjust="spacing" textLength="57" x="205.5" y="647.732">Obj5</text></g><!--entity Obj6--><g id="elem_Obj6"><polygon fill="none" points="84.5,613.8912,84.5,614.1013,94.9286,613.4768,105.3571,614.0844,115.7857,614.2908,126.2143,613.1778,136.6429,613.8134,147.0714,613.4647,157.5,613.8912,157.4511,613.7731,157.8449,614.0166,158.1189,613.9711,158.6313,614.501,158.8338,614.2828,159.2678,614.6234,159.2069,614.5982,159.5472,615.032,159.5342,615.3196,159.7281,615.6928,159.8437,616.0335,160,616.3912,160.1785,616.3912,160.2391,625.5171,160.5857,634.6431,160.6711,643.7691,160.6793,652.895,160,662.021,160.0784,662.0535,159.9963,662.4337,159.9234,662.8177,159.3386,662.9897,159.6232,663.5218,159.2678,663.7888,159.2299,663.6975,158.9823,664.0996,158.4975,663.9292,158.1984,664.207,157.9482,664.6029,157.5,664.521,157.5,664.4723,147.0714,664.6263,136.6429,664.8596,126.2143,664.9372,115.7857,664.5171,105.3571,664.8082,94.9286,663.9486,84.5,664.521,84.5363,664.6086,84.2164,664.5434,83.8496,664.365,83.5175,664.2704,83.0242,663.7864,82.7322,663.7888,82.5314,663.7056,82.3944,663.3559,82.4212,663.0741,82.2324,662.703,82.3563,662.4615,82,662.021,81.8253,662.021,81.6569,652.895,82.2283,643.7691,81.3332,634.6431,81.4809,625.5171,82,616.3912,82.1999,616.4739,82.2806,616.0932,82.5191,615.7777,82.3402,615.2895,82.6841,615.0177,82.7322,614.6234,82.8075,614.8052,83.0255,614.3315,83.4271,614.301,83.809,614.2229,84.2296,614.2383,84.5,613.8912" style="stroke:#181818;stroke-width:4.0;"/><text fill="#000000" font-family="Chalkduster" font-size="24" lengthAdjust="spacing" textLength="58" x="92" y="647.732">Obj6</text></g><!--link api1 to stor1--><g id="link_api1_stor1"><path d="M408.52,483.5212 L408.5735,483.5978 L405.9456,485.0927 L403.6312,487.0368 L401.2146,488.8346 L398.4626,490.1515 L396.175,492.1341 L396.153,492.1075 L393.6481,493.9813 L391.2543,495.9892 L388.9377,498.0903 L386.355,499.8701 L384.145,502.0999 L384.3213,502.2716 L381.7498,504.1583 L379.693,506.5462 L377.699,508.9952 L375.3397,511.0884 L373.1725,513.3688 L373.197,513.3867 L371.3265,515.8649 L369.5675,518.4246 L367.7547,520.945 L366.0445,523.5405 L364,525.8912 L364.2619,526.0339 L363.3643,527.6877 L362.2979,529.2493 L361.4786,530.9458 L360.671,532.6485 L359.4962,534.1511 L359.205,534.0172 L359.3739,535.139 L358.5839,535.8198 L358.5229,536.8359 L357.7112,537.5067 L357.5148,538.4605 L357.4867,538.4486 L357.6331,539.0272 L357.1243,539.329 L357.0021,539.7941 L356.9124,540.2729 L356.5885,540.6528 L356.7599,540.7222 L356.4974,540.873 L356.5278,541.1425 L356.0842,541.22 L356.3477,541.5839 L356.1411,541.7574 " fill="none" style="stroke:#8B0000;stroke-width:4.0;"/><polygon fill="#8B0000" points="412.72,480.8812,412.7298,480.9505,410.7503,481.02,408.8282,481.4962,406.8875,481.8399,404.8851,481.7481,402.968,482.2592,402.9622,482.2339,404.0385,482.375,405.1441,482.6434,406.2701,483.0002,407.3258,483.0522,408.48,483.5312,408.6598,483.5727,408.0209,484.5863,407.907,485.7211,407.8571,486.8707,407.4346,487.9343,407.208,489.0431,407.2269,489.0559,408.3016,487.4048,409.4621,485.8117,410.5813,484.1906,411.7794,482.6228,412.72,480.8812" style="stroke:#8B0000;stroke-width:4.0;"/><polygon fill="#8B0000" points="356.1411,541.7574,356.19,541.8076,357.4552,540.2836,359.0071,539.0537,360.4657,537.7281,361.6173,536.0875,363.1938,534.8829,363.1836,534.8591,362.0981,535.1985,361.0641,535.6579,360.0659,536.2007,358.9443,536.456,357.9955,537.114,358.1651,537.1868,357.3563,535.9915,357.0425,535.0087,356.7892,534.0518,356.1844,532.9441,355.7644,531.9157,355.7872,531.9166,355.8291,533.8837,355.9745,535.8547,356.0701,537.8238,356.2608,539.7965,356.1411,541.7574" style="stroke:#8B0000;stroke-width:4.0;"/></g><!--link api1 to stor2--><g id="link_api1_stor2"><path d="M489.89,473.6712 L489.9211,473.7593 L492.0992,474.2982 L494.4595,475.3535 L496.7605,476.2407 L498.8664,476.5749 L501.2424,477.6746 L501.2298,477.6424 L503.5694,478.4332 L505.9723,479.3863 L508.4191,480.4521 L510.7144,481.1294 L513.222,482.3508 L513.3202,482.5765 L515.5807,483.1686 L518.1278,484.4196 L520.7099,485.7509 L523.0885,486.6145 L525.5741,487.7242 L525.5874,487.7514 L528.0618,488.9303 L530.5968,490.2333 L533.1026,491.4764 L535.6641,492.8336 L538.0438,493.8187 L538.1884,494.0795 L540.6566,495.4506 L543.0316,496.6535 L545.5431,498.1027 L548.061,499.5634 L550.376,500.6585 L550.2038,500.3882 L552.9261,502.4346 L555.0812,503.591 L557.6676,505.4241 L559.8098,506.5603 L562.3161,508.2677 L562.2979,508.2433 L564.7714,510.2127 L566.8203,511.6115 L569.1198,513.347 L571.4403,515.1107 L573.609,516.6706 L573.7318,516.8089 L575.6861,518.5134 L577.8502,520.4543 L579.6748,522.0126 L582.0057,524.1416 L584,525.8912 L584.1777,526.0578 L585.5644,527.5409 L587.0393,529.1067 L588.1042,530.2881 L589.4697,531.7513 L591.1014,533.4641 L590.8858,533.2915 L592.395,535.0885 L593.6613,536.6909 L595.2799,538.5755 L596.2969,539.9784 L597.6716,541.6676 L597.5465,541.5804 L598.9648,543.4623 L599.8484,544.9715 L601.1122,546.7457 L602.7482,548.7791 L603.7215,550.3509 L603.8864,550.4523 L605.1077,552.3244 L605.8159,553.881 L607.1667,555.8327 L608.3775,557.6983 L609.262,559.3633 L609.078,559.2624 L610.2331,561.181 L611.328,563.0666 L612.5412,565.0172 L613.2941,566.7152 L614.3041,568.5543 L614.4884,568.6453 L614.9944,570.289 L615.8561,572.1084 L617.2375,574.1846 L617.6621,575.7881 L618.8587,577.773 L619.0665,577.8622 L620.4811,581.3928 L621.8253,584.8933 L623.3282,588.4619 L625.1981,592.1879 L626.5487,595.6912 L626.4242,595.6443 L627.4265,597.4634 L627.5818,598.9639 L628.7,600.8266 L629.2761,602.4854 L629.7061,604.0893 L629.8088,604.1255 L630.0082,604.8948 L630.5752,605.794 L630.8102,606.5759 L630.9063,607.3086 L631.1177,608.0821 L631.2304,608.1208 L631.1958,608.4507 L631.6847,608.9601 L631.5815,609.2665 L631.7219,609.6564 L631.7823,610.0188 L631.5262,609.932 L631.6441,610.0565 L632.0704,610.2855 L632.0603,610.3666 L631.8937,610.3947 L631.9442,610.4963 " fill="none" style="stroke:#8B0000;stroke-width:4.0;"/><polygon fill="#8B0000" points="485.24,472.1612,485.287,472.2132,486.6093,473.3789,488.2068,474.8495,489.7148,476.2208,490.9279,477.2657,492.5491,478.7625,492.526,478.7508,491.9108,477.689,491.4122,476.6863,490.9945,475.7247,490.2978,474.6216,489.9919,473.7166,490.0753,473.8812,490.9061,473.0178,491.9805,472.6349,493.0845,472.3107,494.0157,471.6453,495.0378,471.1594,495.0401,471.182,493.0771,471.3492,491.1247,471.6193,489.1672,471.8398,487.2194,472.155,485.24,472.1612" style="stroke:#8B0000;stroke-width:4.0;"/><polygon fill="#8B0000" points="631.9442,610.4963,632.0139,610.5028,631.9878,608.5222,632.3707,606.5794,632.6204,604.6243,632.4322,602.6288,632.8501,600.6892,632.8269,600.6777,632.2212,601.6403,631.7325,602.6608,631.3251,603.7215,630.6374,604.6436,630.3424,605.7598,630.4242,605.9253,629.2351,605.07,628.2849,604.6976,627.3638,604.3842,626.2732,603.728,625.2718,603.2521,625.2885,603.2675,626.5984,604.6937,627.9845,606.1901,629.3338,607.6526,630.7533,609.1797,631.9442,610.4963" style="stroke:#8B0000;stroke-width:4.0;"/></g><!--link api2 to stor3--><g id="link_api2_stor3"><path d="M74.04,493.5012 L74.1304,493.5248 L73.0226,496.6666 L72.4446,499.9469 L71.6941,503.1821 L70.3762,506.269 L69.8438,509.5612 L69.8101,509.5532 L68.8905,512.7837 L68.1403,516.0541 L67.508,519.3522 L66.4696,522.5548 L66,525.8912 L66.2407,525.942 L65.3338,527.689 L65.1297,529.5846 L65.0114,531.4982 L64.3942,533.3064 L64.0394,535.1701 L64.0691,535.1761 L63.8343,536.1113 L63.7348,537.074 L63.57,538.0234 L63.5298,538.9981 L63.0835,539.8905 L63.376,539.9487 L63.3323,540.1867 L63.1,540.3871 L63.1438,540.6425 L63.2005,540.9004 L62.8472,541.0767 L62.5328,541.0144 L63.1195,541.2541 L62.6709,541.2887 L63.0093,541.4792 L62.5372,541.5091 L62.7295,541.6706 " fill="none" style="stroke:#8B0000;stroke-width:4.0;"/><polygon fill="#8B0000" points="75.35,488.7512,75.4043,488.7955,73.9972,490.1896,72.9083,491.8434,71.7158,493.4127,70.1826,494.7038,69.121,496.38,69.1081,496.3575,70.0329,495.6955,71.0225,495.1469,72.057,494.6771,72.9365,493.9356,74.0332,493.5746,74.1935,493.6662,74.4118,494.4529,75.0981,495.5068,75.8414,496.5934,76.2527,497.4903,76.8386,498.4869,76.861,498.4903,76.5303,496.5381,76.302,494.6016,76.0242,492.6575,75.8407,490.7278,75.35,488.7512" style="stroke:#8B0000;stroke-width:4.0;"/><polygon fill="#8B0000" points="62.7295,541.6706,62.7868,541.711,63.7508,539.9806,65.0506,538.4868,66.241,536.9159,67.0718,535.0918,68.4005,533.6183,68.386,533.5968,67.3813,534.1297,66.4492,534.7711,65.5676,535.4879,64.5119,535.9448,63.7001,536.7657,63.8534,536.8684,62.896,535.7088,62.3863,534.8489,61.9313,534.0256,61.1584,532.9895,60.5526,532.0654,60.5748,532.0704,60.9776,533.9841,61.4814,535.9206,61.9365,537.8461,62.4845,539.7927,62.7295,541.6706" style="stroke:#8B0000;stroke-width:4.0;"/></g><!--link i1 to api1--><g id="link_i1_api1"><path d="M594.85,311.2912 L594.9422,311.3059 L594.3017,313.5598 L594.2018,315.9 L593.9259,318.2121 L593.0709,320.4318 L593.0175,322.7794 L592.9837,322.7726 L592.3468,325.1543 L591.8805,327.5702 L591.533,330.01 L590.7765,332.3676 L590.5928,334.8404 L590.8315,334.9001 L589.7012,337.2515 L589.2678,339.7772 L588.9195,342.3242 L588.0764,344.7475 L587.4936,347.2358 L587.5225,347.2447 L586.7088,349.7299 L586.0269,352.2558 L585.2815,354.7621 L584.6574,357.3059 L583.6375,359.7274 L583.9163,359.8334 L582.9807,362.3046 L581.8652,364.7075 L581.013,367.2104 L580.1731,369.718 L578.9424,372.077 L578.6522,371.9408 L578.0921,374.599 L576.5765,376.8087 L575.7873,379.3594 L574.2501,381.559 L573.3259,384.0463 L573.2996,384.031 L572.2866,386.4825 L570.6592,388.5757 L569.3943,390.8804 L568.1599,393.2028 L566.7059,395.3971 L566.855,395.5066 L565.1633,397.4949 L563.7264,399.6703 L561.8773,401.543 L560.6431,403.8672 L559,405.8912 L559.1787,406.0568 L557.7281,407.5535 L556.3663,409.1323 L554.5923,410.3291 L553.1204,411.8059 L551.9162,413.5309 L551.7335,413.3239 L550.3227,414.9021 L548.7061,416.2471 L547.388,417.9305 L545.5601,419.036 L544.0353,420.4851 L543.9446,420.3625 L542.3955,421.8255 L540.4585,422.7646 L538.7974,424.0763 L537.4061,425.7524 L535.5343,426.7794 L535.6378,426.943 L533.92,428.1874 L531.8801,428.9228 L530.2436,430.2956 L528.5192,431.5295 L526.59,432.4399 L526.489,432.2558 L524.7274,433.4131 L522.9327,434.51 L521.203,435.7254 L519.2207,436.4803 L517.3795,437.4924 L517.4686,437.6777 L515.4129,438.1647 L513.5292,439.0093 L511.8966,440.3764 L509.8016,440.7816 L508.0797,441.9629 L508.164,442.1728 L504.482,443.5077 L500.7714,444.7717 L497.1252,446.196 L493.628,447.9907 L489.92,449.2612 " fill="none" style="stroke:#8B0000;stroke-width:4.0;"/><polygon fill="#8B0000" points="485.21,450.8812,485.2161,450.951,487.1605,450.9138,489.1404,451.2858,491.1087,451.5246,493.039,451.3252,495.022,451.7324,495.0106,451.7091,493.9428,451.1087,492.9322,450.6257,491.9613,450.2243,490.8534,449.5417,489.9375,449.253,490.1033,449.3339,490.2445,448.144,490.87,447.1903,491.5545,446.2654,491.8953,445.1728,492.4169,444.1684,492.4324,444.1851,490.9683,445.5032,489.5747,446.8971,488.1471,448.2544,486.7844,449.6815,485.21,450.8812" style="stroke:#8B0000;stroke-width:4.0;"/><text fill="#000000" font-family="Chalkduster" font-size="24" lengthAdjust="spacing" textLength="81" x="612.5" y="367.732">Index</text><text fill="#000000" font-family="Chalkduster" font-size="24" lengthAdjust="spacing" textLength="128" x="589" y="398.3619">Storage 1</text></g><!--link i2 to api1--><g id="link_i2_api1"><path d="M357.31,311.1612 L357.4023,311.1755 L356.783,313.3584 L356.7049,315.6252 L356.4506,317.8647 L355.6167,320.0143 L355.585,322.2883 L355.5507,322.2847 L355.1469,324.6144 L354.9162,326.9626 L354.8058,329.3236 L354.2807,331.6405 L354.3366,334.0191 L354.5823,334.0315 L353.9351,336.432 L354.0053,338.8686 L354.1631,341.3095 L353.8116,343.7249 L353.7279,346.1538 L353.7583,346.1542 L353.7526,348.6213 L353.8851,351.0905 L353.9509,353.5586 L354.1439,356.0288 L353.9225,358.4924 L354.2194,358.5203 L354.4553,360.9893 L354.4996,363.4402 L354.8243,365.9174 L355.1621,368.3959 L355.0836,370.8353 L354.7687,370.7759 L355.8382,373.3206 L355.8706,375.6698 L356.6914,378.1676 L356.7003,380.5123 L357.3747,382.9826 L357.3456,382.9737 L358.4068,385.4291 L358.7877,387.677 L359.5701,390.0474 L360.3861,392.428 L360.959,394.7345 L361.1276,394.8106 L361.9656,396.9651 L363.0917,399.2497 L363.7518,401.3237 L365.107,403.7119 L366,405.8912 L366.2006,406.0295 L367.8109,408.3937 L369.5207,410.8267 L370.7679,412.9406 L372.3542,415.2884 L374.2411,417.8433 L374.0463,417.6475 L376.3012,419.8924 L378.3366,421.9165 L380.6903,424.2607 L382.5005,426.0586 L384.6338,428.1812 L384.5423,428.0591 L387.0397,430.0194 L389.1464,431.4581 L391.5309,433.2677 L394.1873,435.4402 L396.3595,436.9665 L396.4587,437.1328 L398.9747,438.7058 L401.1825,439.7615 L403.7764,441.4652 L406.2862,443.0276 L408.6,444.2612 " fill="none" style="stroke:#8B0000;stroke-width:4.0;"/><polygon fill="#8B0000" points="412.73,446.3912,412.7846,446.4351,411.3878,444.7698,410.311,443.3619,409.13,441.8702,407.6062,440.1028,406.5569,438.717,406.5322,438.7091,406.7669,439.7509,407.126,440.8327,407.5715,441.9421,407.719,442.9561,408.2839,444.1038,408.3402,444.2795,407.1424,444.2491,406.1091,444.7318,405.0958,445.2771,403.9657,445.4581,402.8971,445.8308,402.8984,445.8535,404.8631,445.9322,406.8336,446.1143,408.8014,446.2466,410.7745,446.474,412.73,446.3912" style="stroke:#8B0000;stroke-width:4.0;"/><text fill="#000000" font-family="Chalkduster" font-size="24" lengthAdjust="spacing" textLength="81" x="414" y="367.732">Index</text><text fill="#000000" font-family="Chalkduster" font-size="24" lengthAdjust="spacing" textLength="187" x="367" y="398.3619">Storage 1 &amp; 2</text></g><!--link i3 to api2--><g id="link_i3_api2"><path d="M103.04,311.2812 L103.3177,311.3185 L101.1708,321.0426 L100.6521,330.9855 L99.6032,340.8571 L96.8106,350.4945 L96.329,360.4424 L94.5464,370.2154 L93.2816,380.0581 L92.3766,389.9491 L90.2314,399.6734 L90.5549,409.7295 L87.6688,419.3542 L87.18,429.3012 " fill="none" style="stroke:#8B0000;stroke-width:4.0;"/><polygon fill="#8B0000" points="86.55,433.9312,86.6097,433.9678,87.4619,432.1797,88.6641,430.6063,89.7524,428.963,90.4657,427.0898,91.698,425.5349,91.6823,425.5143,90.7134,426.1099,89.8239,426.8092,88.9896,427.5806,87.9651,428.1036,87.2071,428.9745,87.3536,429.0867,86.3524,427.9486,85.7789,427.1381,85.2576,426.3675,84.4327,425.3644,83.7674,424.4836,83.7892,424.49,84.3137,426.3701,84.9375,428.2794,85.5134,430.1746,86.1808,432.0968,86.55,433.9312" style="stroke:#8B0000;stroke-width:4.0;"/><text fill="#000000" font-family="Chalkduster" font-size="24" lengthAdjust="spacing" textLength="81" x="117" y="367.732">Index</text><text fill="#000000" font-family="Chalkduster" font-size="24" lengthAdjust="spacing" textLength="129" x="99" y="398.3619">Storage 3</text></g><!--SRC=[ZP4zJyCm48Pt_ueZ0rCJ5BimH56aIZ1qeeAr4heafhXodIWneX7gVyVvQ71LM-3DTuyVdr_V25N8pvA_7L1r44Lt9MeCpGPt_C2L3blTIHxfeoPQQCaJU3G0l0jLOYwaq1rfUA5HxII7uEKf0C0Mi2a-84qRNbUjq5NJPHby4p3BWZTLer527FGdwdW2-jNFa6DhcBKg-J7PAeWNTE14F50dZso4QlgdRC5WEGgf9NGOsMXa_nSozuIhpNheOpszmTqRn_czuzN4P_vYYgarEpifo_6Sx-F0qw21_SXhEPtbr2jdFldoGkwmizdElFPxd_tXR3yHGlhi80tBwak5sHY6eqRx6hsiCMAeSs4uai3mVLir9qpC8HS25WEtG8bWDaST73F3aXy0]--></g></svg>