<?xml version="1.0" encoding="us-ascii" standalone="no"?><svg xmlns="http://www.w3.org/2000/svg" xmlns:xlink="http://www.w3.org/1999/xlink" contentStyleType="text/css" height="1122px" preserveAspectRatio="none" style="width:938px;height:1122px;background:#FFFFFF;" version="1.1" viewBox="0 0 938 1122" width="938px" zoomAndPan="magnify"><defs/><g><text fill="#000000" font-family="Chalkduster" font-size="42" font-weight="bold" lengthAdjust="spacing" textLength="910" x="10" y="51.7215">Data findability w/ compiled indexes</text><!--cluster arch--><g id="cluster_arch"><polygon fill="#98FB98" points="78.5,83.8912,78.5,84.1013,88.4747,83.4768,98.4494,84.0844,108.4241,84.2908,118.3987,83.1778,128.3734,83.8134,138.3481,83.4647,148.3228,83.5077,158.2975,83.823,168.2722,83.1998,178.2468,84.4448,188.2215,83.2609,198.1962,83.6934,208.1709,84.3231,218.1456,83.8054,228.1203,83.9594,238.0949,83.8592,248.0696,84.0697,258.0443,84.1303,268.019,84.4769,277.9937,84.5622,287.9684,84.5704,297.943,84.1458,307.9177,84.3547,317.8924,84.5934,327.8671,83.17,337.8418,84.5697,347.8165,83.5947,357.7911,84.425,367.7658,83.3961,377.7405,83.8227,387.7152,84.6328,397.6899,83.8424,407.6646,83.9965,417.6392,84.2298,427.6139,84.3074,437.5886,83.8873,447.5633,84.1784,457.538,83.3187,467.5127,84.1755,477.4873,84.4394,487.462,84.3357,497.4367,84.5042,507.4114,83.4081,517.3861,83.239,527.3608,83.2698,537.3354,83.8323,547.3101,83.6946,557.2848,84.5726,567.2595,83.7165,577.2342,83.5481,587.2089,84.1194,597.1835,83.2243,607.1582,83.372,617.1329,84.5401,627.1076,84.3268,637.0823,84.6257,647.057,83.5694,657.0316,84.2104,667.0063,84.4816,676.981,83.4188,686.9557,83.7953,696.9304,84.0171,706.9051,84.5429,716.8797,83.887,726.8544,84.3537,736.8291,83.3374,746.8038,83.2139,756.7785,84.3948,766.7532,83.1742,776.7278,84.4001,786.7025,84.0978,796.6772,83.6232,806.6519,83.5374,816.6266,84.3499,826.6013,83.5918,836.5759,84.483,846.5506,83.3384,856.5253,84.5086,866.5,83.8912,866.5618,84.0403,866.8848,84.113,867.2131,84.1986,867.6533,84.5543,867.9925,84.6659,868.2678,84.6234,868.3199,84.645,868.4968,85.0112,868.5205,85.3139,868.9277,85.7754,868.9012,86.0574,869,86.3912,869.1726,86.3912,868.3916,96.3696,868.5948,106.3481,869.5307,116.3265,869.4298,126.3049,868.9571,136.2834,868.6778,146.2618,868.7811,156.2403,868.3138,166.2187,869.4147,176.1972,869.7396,186.1756,869.5264,196.1541,869.6949,206.1325,868.8633,216.111,869.0872,226.0894,868.6124,236.0679,869.284,246.0463,869.2468,256.0248,869.5524,266.0032,868.7703,275.9816,868.8656,285.9601,869.4435,295.9385,869.5673,305.917,868.4875,315.8954,868.8061,325.8739,869.1493,335.8523,868.3892,345.8308,869.3534,355.8092,869.258,365.7877,868.8992,375.7661,869.1422,385.7446,869.7287,395.723,868.6871,405.7015,869.315,415.6799,869.2856,425.6583,869.1158,435.6368,869.1409,445.6152,869.1135,455.5937,868.3758,465.5721,868.5992,475.5506,868.5385,485.529,869.0638,495.5075,869.0881,505.4859,869.1617,515.4644,868.709,525.4428,868.9325,535.4213,868.8798,545.3997,869.5769,555.3782,869.4266,565.3566,868.5145,575.335,868.9271,585.3135,868.4228,595.2919,869.2884,605.2704,869.6085,615.2488,869.5446,625.2273,868.5644,635.2057,869.464,645.1842,868.2572,655.1626,869.2002,665.1411,868.7007,675.1195,869.0967,685.098,869.2403,695.0764,869.4721,705.0549,868.2801,715.0333,869.4755,725.0117,869.1782,734.9902,869.3553,744.9686,869.7478,754.9471,869.0055,764.9255,869.1753,774.904,869.2134,784.8824,869.1972,794.8609,868.9992,804.8393,869.7107,814.8178,868.3903,824.7962,869.5653,834.7747,868.376,844.7531,868.4597,854.7315,869.04,864.71,869.0283,874.6884,868.5072,884.6669,869.4137,894.6453,869.1089,904.6238,869.7267,914.6022,869.6671,924.5807,868.5517,934.5591,868.6021,944.5376,868.8708,954.516,869.3555,964.4945,869.403,974.4729,869.3012,984.4514,868.658,994.4298,869.6364,1004.4082,869.6338,1014.3867,868.9527,1024.3651,868.7609,1034.3436,868.5986,1044.322,868.7854,1054.3005,869.1374,1064.2789,868.9316,1074.2574,868.5822,1084.2358,869.4874,1094.2143,868.5411,1104.1927,869,1114.1712,869.1547,1114.2352,868.9851,1114.5792,868.8216,1114.9257,868.7739,1115.3202,868.3385,1115.554,868.2678,1115.9389,868.2294,1115.8463,867.9804,1116.2452,867.4845,1116.048,867.1773,1116.3062,866.8683,1116.5603,866.5,1116.6712,866.5,1116.7398,856.5253,1116.3127,846.5506,1116.6282,836.5759,1117.4158,826.6013,1117.3196,816.6266,1116.0749,806.6519,1116.7497,796.6772,1116.1573,786.7025,1116.6448,776.7278,1116.9642,766.7532,1117.091,756.7785,1116.0064,746.8038,1117.0717,736.8291,1116.6796,726.8544,1116.1158,716.8797,1116.2001,706.9051,1116.9978,696.9304,1116.921,686.9557,1116.6547,676.981,1115.9991,667.0063,1117.3293,657.0316,1116.3593,647.057,1116.1431,637.0823,1116.6038,627.1076,1117.2609,617.1329,1117.2866,607.1582,1116.7063,597.1835,1116.52,587.2089,1116.8409,577.2342,1116.8574,567.2595,1116.1634,557.2848,1117.0851,547.3101,1117.23,537.3354,1116.4554,527.3608,1116.242,517.3861,1117.3458,507.4114,1116.6922,497.4367,1116.671,487.462,1116.9702,477.4873,1116.0255,467.5127,1117.2011,457.538,1116.6557,447.5633,1117.34,437.5886,1116.4553,427.6139,1117.0802,417.6392,1116.2272,407.6646,1116.9162,397.6899,1117.0505,387.7152,1116.3438,377.7405,1117.0342,367.7658,1116.0997,357.7911,1116.2007,347.8165,1117.354,337.8418,1117.3555,327.8671,1117.2397,317.8924,1116.3108,307.9177,1117.0554,297.943,1116.1991,287.9684,1116.7293,277.9937,1116.6699,268.019,1116.4087,258.0443,1117.2871,248.0696,1117.1144,238.0949,1116.3504,228.1203,1117.1978,218.1456,1116.763,208.1709,1116.0876,198.1962,1116.4378,188.2215,1116.1459,178.2468,1116.5321,168.2722,1116.0422,158.2975,1116.071,148.3228,1116.7415,138.3481,1116.5508,128.3734,1116.6126,118.3987,1116.528,108.4241,1116.8385,98.4494,1116.1161,88.4747,1116.8312,78.5,1116.6712,78.4052,1116.4423,78.1842,1116.6159,77.8685,1116.5608,77.5059,1116.3926,77.1319,1116.1966,76.7322,1115.9389,76.7914,1115.9634,76.6183,1115.5989,76.2422,1115.1502,76.4304,1114.9352,76.248,1114.5668,76,1114.1712,75.8466,1114.1712,75.9942,1104.1927,75.7914,1094.2143,76.2177,1084.2358,76.6805,1074.2574,75.6461,1064.2789,76.4689,1054.3005,75.9108,1044.322,75.6207,1034.3436,75.5681,1024.3651,75.3553,1014.3867,75.5591,1004.4082,76.0363,994.4298,76.273,984.4514,76.5762,974.4729,76.4201,964.4945,75.2886,954.516,76.619,944.5376,76.4861,934.5591,76.5407,924.5807,76.5219,914.6022,75.3409,904.6238,75.7423,894.6453,76.316,884.6669,75.5185,874.6884,75.8971,864.71,76.067,854.7315,76.3261,844.7531,76.0458,834.7747,76.7447,824.7962,76.4114,814.8178,76.2561,804.8393,75.4601,794.8609,76.3388,784.8824,75.4255,774.904,76.3057,764.9255,76.0078,754.9471,76.2995,744.9686,75.9126,734.9902,75.8039,725.0117,75.2591,715.0333,75.7856,705.0549,75.2951,695.0764,75.7539,685.098,76.4379,675.1195,76.1607,665.1411,75.5485,655.1626,76.2458,645.1842,76.0656,635.2057,76.5433,625.2273,76.5649,615.2488,76.0937,605.2704,75.821,595.2919,75.7855,585.3135,75.9936,575.335,76.6691,565.3566,75.3263,555.3782,75.8361,545.3997,76.2668,535.4213,76.7317,525.4428,76.2119,515.4644,75.8018,505.4859,75.2621,495.5075,75.5762,485.529,75.7781,475.5506,76.3398,465.5721,76.3695,455.5937,76.0518,445.6152,75.867,435.6368,75.2804,425.6583,76.129,415.6799,76.4354,405.7015,76.6829,395.723,76.0983,385.7446,76.0799,375.7661,75.7798,365.7877,76.2487,355.8092,75.53,345.8308,76.5161,335.8523,75.6943,325.8739,75.4698,315.8954,76.2569,305.917,76.4718,295.9385,76.0573,285.9601,75.8789,275.9816,76.1579,266.0032,75.9753,256.0248,75.9049,246.0463,76.0769,236.0679,75.668,226.0894,76.3895,216.111,76.6875,206.1325,75.6464,196.1541,75.7656,186.1756,75.5314,176.1972,76.2369,166.2187,75.9062,156.2403,76.5514,146.2618,75.6998,136.2834,75.6411,126.3049,76.2968,116.3265,75.7755,106.3481,76.2669,96.3696,76,86.3912,76.0861,86.4268,76.2807,86.0932,76.1436,85.6222,76.4664,85.3417,76.7506,85.0452,76.7322,84.6234,76.663,84.4561,77.1501,84.6323,77.396,84.2259,77.8129,84.2323,78.2297,84.2386,78.5,83.8912" style="stroke:#181818;stroke-width:4.0;"/><text fill="#000000" font-family="Chalkduster" font-size="24" font-style="italic" lengthAdjust="spacing" textLength="169" x="388" y="109.732">&#171;repository&#187;</text><text fill="#000000" font-family="Chalkduster" font-size="24" font-weight="bold" lengthAdjust="spacing" textLength="306" x="319.5" y="140.3619">Austalk (for example)</text></g><!--cluster p3--><g id="cluster_p3"><polygon fill="none" points="410.5,171.8912,410.5,172.1013,420.5465,171.4768,430.593,172.0844,440.6395,172.2908,450.686,171.1778,460.7326,171.8134,470.7791,171.4647,480.8256,171.5077,490.8721,171.823,500.9186,171.1998,510.9651,172.4448,521.0116,171.2609,531.0581,171.6934,541.1047,172.3231,551.1512,171.8054,561.1977,171.9594,571.2442,171.8592,581.2907,172.0697,591.3372,172.1303,601.3837,172.4769,611.4302,172.5622,621.4767,172.5704,631.5233,172.1458,641.5698,172.3547,651.6163,172.5934,661.6628,171.17,671.7093,172.5697,681.7558,171.5947,691.8023,172.425,701.8488,171.3961,711.8953,171.8227,721.9419,172.6328,731.9884,171.8424,742.0349,171.9965,752.0814,172.2298,762.1279,172.3074,772.1744,171.8873,782.2209,172.1784,792.2674,171.3187,802.314,172.1755,812.3605,172.4394,822.407,172.3357,832.4535,172.5042,842.5,171.8912,842.4384,171.7424,842.7704,171.8368,843.1278,171.9927,843.5531,172.3124,843.8891,172.4164,844.2678,172.6234,844.4776,172.7103,844.3604,172.9547,844.455,173.2867,844.7774,173.7132,844.6482,173.9525,845,174.3912,844.4809,174.3912,845.649,184.4085,845.4357,194.4258,845.7345,204.4432,844.6782,214.4605,845.3192,224.4778,845.5904,234.4952,844.5276,244.5125,844.9041,254.5298,845.126,264.5472,845.6518,274.5645,844.9958,284.5818,845.4626,294.5992,844.4462,304.6165,844.3227,314.6338,845,324.6512,845.1551,324.7154,844.6328,324.9133,844.8638,325.4232,844.6243,325.7382,844.3317,326.0312,844.2678,326.4189,844.2226,326.31,843.9727,326.7067,843.5225,326.6196,843.2826,327.0405,842.783,326.8345,842.5,327.1512,842.5,327.7686,832.4535,327.6355,822.407,327.3961,812.3605,327.1984,802.314,327.8778,792.2674,327.7647,782.2209,327.3204,772.1744,327.4193,762.1279,327.0209,752.0814,327.8676,742.0349,327.306,731.9884,327.3237,721.9419,326.5428,711.8953,326.7459,701.8488,327.6819,691.8023,327.5809,681.7558,327.1082,671.7093,326.829,661.6628,326.9322,651.6163,326.465,641.5698,327.5659,631.5233,327.8907,621.4767,327.6776,611.4302,327.8461,601.3837,327.0144,591.3372,327.2384,581.2907,326.7636,571.2442,327.4352,561.1977,327.3979,551.1512,327.7035,541.1047,326.9215,531.0581,327.0168,521.0116,327.5946,510.9651,327.7185,500.9186,326.6386,490.8721,326.9573,480.8256,327.3004,470.7791,326.5403,460.7326,327.5046,450.686,327.4092,440.6395,327.0504,430.593,327.2934,420.5465,327.8798,410.5,327.1512,410.4601,327.0548,410.1866,327.1017,409.8293,326.9462,409.4541,326.7475,409.1038,326.6088,408.7322,326.4189,408.7672,326.4334,408.3936,325.9858,408.3159,325.6607,408.1508,325.2994,408.1661,325.0129,408,324.6512,408.0881,324.6512,408.1617,314.6338,407.709,304.6165,407.9325,294.5992,407.8798,284.5818,408.5769,274.5645,408.4266,264.5472,407.5145,254.5298,407.9271,244.5125,407.4228,234.4952,408.2884,224.4778,408.6085,214.4605,408.5446,204.4432,407.5644,194.4258,408.464,184.4085,408,174.3912,407.7712,174.2964,408.2081,174.0631,408.2007,173.6459,408.4691,173.3428,408.6598,173.0076,408.7322,172.6234,408.7925,172.7688,408.994,172.2552,409.5,172.4769,409.8156,172.2389,410.1918,172.147,410.5,171.8912" style="stroke:#181818;stroke-width:4.0;"/><text fill="#000000" font-family="Chalkduster" font-size="24" font-weight="bold" lengthAdjust="spacing" textLength="421" x="416" y="197.732">Standard LDaCA Search Portal</text></g><!--cluster Public Repo (eg Zenodo)--><g id="cluster_Public Repo (eg Zenodo)"><path d="M205,739.4112 L205,739.4112 L205.025,739.5012 L207.3313,738.5736 L209.7839,738.1736 L212.1889,737.6019 L214.4371,736.465 L216.9023,736.1104 L216.899,736.076 L219.616,735.6546 L222.35,735.4066 L225.0958,735.279 L227.801,734.7362 L230.563,734.7749 L230.5789,735.0205 L234.0886,734.2664 L237.6446,734.2292 L241.2063,734.2795 L244.7351,733.8209 L248.2813,733.6299 L248.2827,733.6602 L252.4735,733.4219 L256.6707,733.3215 L260.8648,733.1545 L265.0648,733.1145 L269.2456,732.6607 L269.2559,732.9587 L273.9358,732.8008 L278.6091,732.4505 L283.2921,732.3817 L287.9755,732.3261 L292.6445,731.8526 L292.6361,731.5322 L297.6569,732.0217 L302.6498,731.4562 L307.664,731.6928 L312.6563,731.1033 L317.6665,731.1909 L317.6659,731.1605 L322.84,731.4145 L327.9995,730.9574 L333.1676,730.9199 L338.3364,730.9176 L343.5,730.6612 L343.5079,731.2161 L353.671,730.5114 L363.8476,730.755 L374.0024,729.4644 L384.1898,730.4622 L394.3555,729.9385 L394.3575,730.1821 L403.2298,730.0618 L412.1031,730.0625 L420.9716,729.5012 L429.8437,729.3518 L438.7188,729.5674 L438.7178,729.2912 L447.3749,729.51 L456.0309,729.4176 L464.6886,729.7765 L473.3435,729.3648 L482,729.4112 L482,729.4112 L481.9994,729.2587 L490.6566,729.5439 L499.3114,729.1773 L507.9679,729.2742 L516.626,729.8246 L525.2813,729.5674 L525.2829,729.761 L534.1566,729.9681 L543.0254,729.5728 L551.9004,729.9319 L560.7741,730.1267 L569.6445,729.9385 L569.6356,729.3087 L579.8138,729.9552 L589.9891,730.3955 L600.1702,731.241 L610.3288,730.511 L620.5,730.6612 L620.5042,730.8667 L625.6617,730.521 L630.8272,730.5721 L636.0047,731.2028 L641.1603,730.7664 L646.3335,731.1909 L646.3395,731.4171 L651.3403,731.4151 L656.3391,731.3366 L661.3425,731.4307 L666.3565,731.9241 L671.3555,731.8526 L671.3509,731.7196 L676.0443,732.2771 L680.7066,731.9303 L685.4043,732.6117 L690.082,732.7142 L694.7544,732.6607 L694.7594,732.7694 L698.9482,732.8755 L703.1551,733.371 L707.3456,733.5146 L711.5294,733.5112 L715.7188,733.6299 L715.7264,733.7489 L719.2587,733.8011 L722.8266,734.4057 L726.3541,734.3856 L729.8983,734.6225 L733.437,734.7749 L733.4107,734.5058 L736.1516,734.8628 L738.9242,735.5439 L741.652,735.7663 L744.3637,735.8243 L747.0977,736.1104 L747.0594,735.9724 L749.4521,736.6768 L751.7771,737.1368 L754.2883,738.2685 L756.7074,739.0677 L759,739.4112 L760.4037,739.4112 L760.8532,749.507 L758.6354,759.6029 L759.2326,769.6988 L757.9664,779.7947 L759.7574,789.8906 L759.658,799.9865 L760.473,810.0823 L758.3876,820.1782 L758.6416,830.2741 L760.1826,840.37 L760.5129,850.4659 L757.6332,860.5617 L758.483,870.6576 L759.398,880.7535 L757.3711,890.8494 L759.9424,900.9453 L759.688,911.0412 L758.7313,921.137 L759.3793,931.2329 L760.9431,941.3288 L758.1657,951.4247 L759.84,961.5206 L759.7617,971.6165 L759.3087,981.7123 L759.3758,991.8082 L759.3026,1001.9041 L757.3356,1012 L757.9312,1022.0959 L757.7692,1032.1917 L759.1702,1042.2876 L759.235,1052.3835 L759.4313,1062.4794 L758.2241,1072.5753 L759,1082.6712 L759,1082.6712 L758.992,1082.6422 L756.6053,1083.2798 L754.3076,1084.2385 L751.9093,1084.8343 L749.4205,1085.1038 L747.0977,1085.9719 L747.0945,1085.9397 L744.3406,1085.9837 L741.6459,1086.6337 L738.9276,1087.0424 L736.1927,1087.2812 L733.437,1087.3074 L733.4245,1087.1142 L729.9067,1087.7422 L726.3284,1087.4359 L722.8118,1088.0832 L719.2538,1088.0907 L715.7188,1088.4524 L715.7207,1088.4954 L711.5308,1088.753 L707.3427,1089.0497 L703.1254,1088.7143 L698.957,1089.4389 L694.7544,1089.4216 L694.7571,1089.5008 L690.0801,1089.7411 L685.4063,1090.077 L680.7151,1089.9089 L676.0379,1090.146 L671.3555,1090.2298 L671.358,1090.3246 L666.3534,1090.4497 L661.3467,1090.494 L656.3506,1090.9425 L651.3307,1090.4881 L646.3335,1090.8914 L646.3386,1091.1426 L641.1611,1090.7201 L635.9952,1090.8632 L630.8338,1091.227 L625.667,1091.3278 L620.5,1091.4212 L620.4907,1090.7641 L610.3367,1092.1173 L600.1599,1091.8553 L590.0005,1092.8235 L579.8283,1092.8887 L569.6445,1092.1438 L569.6429,1091.9446 L560.7704,1092.0412 L551.8987,1092.2348 L543.0279,1092.5245 L534.1554,1092.6198 L525.2813,1092.5149 L525.2817,1092.6488 L516.6245,1092.3942 L507.9698,1092.8602 L499.3135,1092.8903 L490.6562,1092.6189 L482,1092.6712 L482,1092.6712 L481.9996,1092.5649 L473.3431,1092.4615 L464.6872,1092.5133 L456.0315,1092.6385 L447.3749,1092.5158 L438.7188,1092.5149 L438.7172,1092.3292 L429.8479,1092.6573 L420.9717,1092.1625 L412.1026,1092.5155 L403.2297,1092.4079 L394.3555,1092.1438 L394.3625,1092.6396 L384.1975,1092.9225 L374.0086,1091.5269 L363.8365,1091.3094 L353.6809,1092.2575 L343.5,1091.4212 L343.4946,1091.1559 L338.3312,1091.2112 L333.1677,1091.2606 L328.0005,1091.1338 L322.8299,1090.8381 L317.6665,1090.8914 L317.666,1090.8723 L312.6709,1091.0899 L307.6653,1090.9148 L302.6463,1090.2295 L297.6498,1090.397 L292.6445,1090.2298 L292.6366,1090.0015 L287.9643,1090.0564 L283.2895,1090.0367 L278.6116,1089.9314 L273.9152,1089.288 L269.2456,1089.4216 L269.2538,1089.5995 L265.0529,1089.2315 L260.8485,1088.7874 L256.6573,1088.631 L252.4808,1088.7913 L248.2813,1088.4524 L248.2884,1088.5632 L244.7371,1088.2161 L241.1747,1087.6963 L237.6692,1088.0573 L234.0977,1087.3981 L230.563,1087.3074 L230.5402,1087.0738 L227.8279,1087.0105 L225.1242,1087.0341 L222.3932,1086.7783 L219.636,1086.2546 L216.9023,1085.9719 L216.8844,1085.9072 L214.542,1085.3845 L212.1635,1084.7314 L209.7006,1083.774 L207.4296,1083.5086 L205,1082.6712 L206.4901,1082.6712 L204.4246,1072.5753 L203.8555,1062.4794 L206.7991,1052.3835 L205.056,1042.2876 L204.9996,1032.1917 L205.7974,1022.0959 L203.2782,1012 L206.4133,1001.9041 L204.9588,991.8082 L206.7835,981.7123 L204.4244,971.6165 L206.0907,961.5206 L203.816,951.4247 L205.6534,941.3288 L206.0114,931.2329 L204.1271,921.137 L205.968,911.0412 L203.4762,900.9453 L203.7454,890.8494 L206.8209,880.7535 L206.825,870.6576 L206.516,860.5617 L204.039,850.4659 L206.0246,840.37 L203.7412,830.2741 L205.1551,820.1782 L204.9967,810.0823 L204.3002,799.9865 L206.6424,789.8906 L206.1821,779.7947 L204.1447,769.6988 L206.4043,759.6029 L205.245,749.507 L205,739.4112 " fill="none" style="stroke:#181818;stroke-width:4.0;"/><path d="M205,739.4112 L205,739.4112 L205.025,739.5012 L207.3313,739.8939 L209.7839,740.8143 L212.1889,741.5628 L214.4371,741.7463 L216.9023,742.7119 L216.899,742.6776 L219.616,742.7904 L222.35,743.0765 L225.0958,743.4831 L227.801,743.4745 L230.563,744.0474 L230.5789,744.2929 L234.0886,743.9969 L237.6446,744.4177 L241.2063,744.926 L244.7351,744.9254 L248.2813,745.1924 L248.2827,745.2227 L252.4735,745.3721 L256.6707,745.6594 L260.8648,745.8801 L265.0648,746.2278 L269.2456,746.1616 L269.2559,746.4597 L273.9358,746.625 L278.6091,746.598 L283.2921,746.8524 L287.9755,747.1201 L292.6445,746.9698 L292.6361,746.6493 L297.6569,747.4035 L302.6498,747.1027 L307.664,747.6039 L312.6563,747.2791 L317.6665,747.6314 L317.6659,747.6009 L322.84,748.0669 L327.9995,747.8216 L333.1676,747.996 L338.3364,748.2057 L343.5,748.1612 L343.5079,748.7161 L353.671,748.3005 L363.8476,748.8331 L374.0024,747.8316 L384.1898,749.1184 L394.3555,748.8838 L394.3575,749.1275 L403.2298,749.1556 L412.1031,749.3047 L420.9716,748.8918 L429.8437,748.8908 L438.7188,749.2549 L438.7178,748.9787 L447.3749,749.26 L456.0309,749.2301 L464.6886,749.6515 L473.3435,749.3023 L482,749.4112 L482,749.4112 L481.9994,749.2587 L490.6566,749.4814 L499.3114,749.0523 L507.9679,749.0867 L516.626,749.5746 L525.2813,749.2549 L525.2829,749.4485 L534.1566,749.5071 L543.0254,748.9635 L551.9004,749.1741 L560.7741,749.2204 L569.6445,748.8838 L569.6356,748.254 L579.8138,748.6115 L589.9891,748.7627 L600.1702,749.3191 L610.3288,748.3001 L620.5,748.1612 L620.5042,748.3667 L625.6617,747.8091 L630.8272,747.6483 L636.0047,748.0671 L641.1603,747.4188 L646.3335,747.6314 L646.3395,747.8575 L651.3403,747.5909 L656.3391,747.2477 L661.3425,747.0772 L666.3565,747.3059 L671.3555,746.9698 L671.3509,746.8368 L676.0443,747.071 L680.7066,746.401 L685.4043,746.7591 L690.082,746.5384 L694.7544,746.1616 L694.7594,746.2704 L698.9482,745.9888 L703.1551,746.0965 L707.3456,745.8525 L711.5294,745.4614 L715.7188,745.1924 L715.7264,745.3114 L719.2587,744.9056 L722.8266,745.0522 L726.3541,744.5741 L729.8983,744.3529 L733.437,744.0474 L733.4107,743.7783 L736.1516,743.6011 L738.9242,743.748 L741.652,743.4362 L744.3637,742.96 L747.0977,742.7119 L747.0594,742.574 L749.4521,741.958 L751.7771,741.0978 L754.2883,740.9091 L756.7074,740.3881 L759,739.4112 " fill="none" style="stroke:#181818;stroke-width:4.0;"/><text fill="#000000" font-family="Chalkduster" font-size="24" font-weight="bold" lengthAdjust="spacing" textLength="343" x="310.5" y="775.252">Public Repo (eg Zenodo)</text></g><!--cluster Portal At Rest RO-Crate--><g id="cluster_Portal At Rest RO-Crate"><polygon fill="none" points="231.5,801.4112,231.5,801.6213,241.52,800.9968,251.54,801.6044,261.56,801.8108,271.58,800.6978,281.6,801.3334,291.62,800.9847,301.64,801.0277,311.66,801.343,321.68,800.7198,331.7,801.9648,341.72,800.7809,351.74,801.2134,361.76,801.8431,371.78,801.3254,381.8,801.4794,391.82,801.3792,401.84,801.5897,411.86,801.6503,421.88,801.9969,431.9,802.0822,441.92,802.0904,451.94,801.6658,461.96,801.8747,471.98,802.1134,482,800.69,492.02,802.0897,502.04,801.1147,512.06,801.945,522.08,800.9161,532.1,801.3427,542.12,802.1528,552.14,801.3624,562.16,801.5165,572.18,801.7498,582.2,801.8274,592.22,801.4073,602.24,801.6984,612.26,800.8387,622.28,801.6955,632.3,801.9594,642.32,801.8557,652.34,802.0242,662.36,800.9281,672.38,800.759,682.4,800.7898,692.42,801.3523,702.44,801.2146,712.46,802.0926,722.48,801.2365,732.5,801.4112,732.4562,801.3055,732.8827,801.6279,733.122,801.4987,733.4944,801.6906,733.997,802.1968,734.2678,802.1434,734.4019,802.199,734.6404,802.5906,734.4616,802.8095,734.8054,803.2448,735.0354,803.6329,735,803.9112,734.5276,803.9112,734.9041,813.9981,735.126,824.085,735.6518,834.1719,734.9958,844.2589,735.4626,854.3458,734.4462,864.4327,734.3227,874.5196,735.5036,884.6065,734.2831,894.6935,735.509,904.7804,735.2066,914.8673,734.7321,924.9542,734.6462,935.0412,735.4588,945.1281,734.7007,955.215,735.5919,965.3019,734.4473,975.3889,735.6174,985.4758,735.4843,995.5627,735.245,1005.6496,735.0472,1015.7365,735.7266,1025.8235,735.6136,1035.9104,735.1693,1045.9973,735.2682,1056.0842,735,1066.1712,734.9599,1066.1545,735.0742,1066.6161,734.7548,1066.898,734.6138,1067.2538,734.2269,1067.5078,734.2678,1067.9389,734.2161,1067.8141,733.9819,1068.2488,733.6155,1068.3642,733.2016,1068.365,732.8125,1068.4255,732.5,1068.6712,732.5,1068.4522,722.48,1067.985,712.46,1069.0859,702.44,1069.4107,692.42,1069.1976,682.4,1069.3661,672.38,1068.5344,662.36,1068.7584,652.34,1068.2836,642.32,1068.9552,632.3,1068.9179,622.28,1069.2235,612.26,1068.4415,602.24,1068.5368,592.22,1069.1146,582.2,1069.2385,572.18,1068.1586,562.16,1068.4773,552.14,1068.8204,542.12,1068.0603,532.1,1069.0246,522.08,1068.9292,512.06,1068.5704,502.04,1068.8134,492.02,1069.3998,482,1068.3583,471.98,1068.9861,461.96,1068.9568,451.94,1068.7869,441.92,1068.8121,431.9,1068.7846,421.88,1068.047,411.86,1068.2703,401.84,1068.2096,391.82,1068.735,381.8,1068.7593,371.78,1068.8329,361.76,1068.3802,351.74,1068.6036,341.72,1068.5509,331.7,1069.248,321.68,1069.0977,311.66,1068.1856,301.64,1068.5982,291.62,1068.0939,281.6,1068.9595,271.58,1069.2796,261.56,1069.2157,251.54,1068.2356,241.52,1069.1351,231.5,1068.6712,231.4052,1068.4424,231.172,1068.5864,230.7547,1068.2861,230.4517,1068.2616,230.1164,1068.1594,229.7322,1067.9389,229.8776,1067.9992,229.3641,1067.4935,229.5858,1067.2925,229.3478,1066.901,229.2559,1066.57,229,1066.1712,229.7478,1066.1712,229.0055,1056.0842,229.1753,1045.9973,229.2134,1035.9104,229.1972,1025.8235,228.9992,1015.7365,229.7107,1005.6496,228.3903,995.5627,229.5653,985.4758,228.376,975.3889,228.4597,965.3019,229.04,955.215,229.0283,945.1281,228.5072,935.0412,229.4137,924.9542,229.1089,914.8673,229.7267,904.7804,229.6671,894.6935,228.5517,884.6065,228.6021,874.5196,228.8708,864.4327,229.3555,854.3458,229.403,844.2589,229.3012,834.1719,228.658,824.085,229.6364,813.9981,229,803.9112,229.1952,803.992,229.1319,803.5516,229.2193,803.1736,229.3157,802.7993,229.5197,802.4696,229.7322,802.1434,229.7498,802.1857,230.0771,801.9759,230.386,801.7218,230.8551,801.8541,231.0879,801.4163,231.5,801.4112" style="stroke:#181818;stroke-width:4.0;"/><text fill="#000000" font-family="Chalkduster" font-size="24" font-weight="bold" lengthAdjust="spacing" textLength="334" x="315" y="827.252">Portal At Rest RO-Crate</text></g><!--cluster stor3--><g id="cluster_stor3"><path d="M503,551.7812 L503,551.7812 L503.0399,551.8656 L504.3178,550.9545 L505.8297,550.5385 L507.2654,549.9613 L508.4504,548.8539 L509.9824,548.4804 L509.9778,548.4461 L513.6387,547.7964 L517.3229,547.3193 L521.0233,546.9621 L524.668,546.1915 L528.3906,545.9999 L528.41,546.2452 L530.8283,545.5268 L533.3032,545.5246 L535.7849,545.6098 L538.2265,545.1865 L540.6892,545.0307 L540.691,545.0609 L543.4337,544.8549 L546.1846,544.7866 L548.9315,544.6519 L551.686,544.644 L554.416,544.2226 L554.4294,544.5205 L557.3654,544.3918 L560.2927,544.071 L563.2327,544.0314 L566.1732,544.0051 L569.095,543.5609 L569.0838,543.2406 L572.1365,543.7564 L575.1524,543.2173 L578.1963,543.4802 L581.2113,542.9172 L584.25,543.0312 L584.2493,543.0007 L590.2248,543.2161 L596.1831,542.7204 L602.1515,542.6444 L608.1208,542.6035 L614.084,542.3085 L614.0866,542.4935 L619.289,542.2326 L624.496,542.2877 L629.6956,541.8315 L634.9061,542.138 L640.1094,541.9374 L640.1109,542.181 L645.1887,542.1037 L650.2673,542.1474 L655.3424,541.629 L660.4201,541.5226 L665.5,541.7812 L665.5,541.7812 L665.4983,541.505 L670.578,541.7862 L675.6557,541.7563 L680.7362,542.1778 L685.812,541.8285 L690.8906,541.9374 L690.8885,541.785 L696.0971,542.1131 L701.2966,541.7895 L706.5026,541.9294 L711.715,542.5227 L716.916,542.3085 L716.9207,542.5021 L722.8907,542.7794 L728.8461,542.4546 L734.8198,542.8839 L740.7896,543.149 L746.75,543.0312 L746.7427,542.8213 L749.7795,543.0945 L752.814,543.299 L755.8531,543.6385 L758.874,543.4531 L761.905,543.5609 L761.9143,543.7663 L764.8297,543.4474 L767.7631,543.5249 L770.7225,544.1815 L773.6338,543.7719 L776.584,544.2226 L776.5973,544.4484 L779.3347,544.4759 L782.0677,544.4269 L784.8108,544.5505 L787.5774,545.0726 L790.3108,545.0307 L790.3003,544.898 L792.7912,545.4868 L795.2109,545.1735 L797.7115,545.8858 L800.1666,546.0206 L802.6094,545.9999 L802.6239,546.1078 L806.2938,546.5168 L810.0158,547.3121 L813.6907,547.7585 L817.346,548.0588 L821.0176,548.4804 L821.0685,548.5881 L822.3893,549.0882 L823.9466,550.0886 L825.2364,550.5231 L826.6363,551.1903 L828,551.7812 L826.3777,551.7812 L826.9194,561.5219 L829.4153,571.2627 L829.146,581.0035 L827.8855,590.7442 L827.1409,600.485 L827.4162,610.2258 L826.1702,619.9665 L829.106,629.7073 L829.9722,639.4481 L829.4037,649.1889 L829.8532,658.9296 L827.6354,668.6704 L828,678.4112 L828,678.4112 L828.0166,678.4462 L826.5299,678.9156 L825.261,679.8456 L823.8574,680.4908 L822.519,681.2737 L821.0176,681.7119 L821.0039,681.6108 L817.328,682.1488 L813.6806,682.8995 L810.0063,683.4501 L806.2606,683.4706 L802.6094,684.1924 L802.6026,684.1065 L800.1549,684.4524 L797.6686,684.3095 L795.2426,684.9305 L792.7795,685.0821 L790.3108,685.1616 L790.3082,685.1169 L787.5691,685.3864 L784.8391,685.8082 L782.0665,685.5077 L779.3376,685.9479 L776.584,685.9698 L776.5897,686.0966 L773.6505,686.1535 L770.7152,686.297 L767.7789,686.4171 L764.8283,686.2219 L761.905,686.6314 L761.8988,686.4533 L758.8669,686.5323 L755.844,686.8716 L752.8134,686.9884 L749.7835,687.127 L746.75,687.1612 L746.7469,687.0319 L740.7825,687.2757 L734.8151,687.3968 L728.8558,687.8511 L722.8874,687.9288 L716.916,687.8838 L716.9129,687.668 L711.7105,687.9256 L706.5022,687.7757 L701.3026,688.2346 L696.0996,688.4511 L690.8906,688.2549 L690.8921,688.4969 L685.8113,688.0926 L680.7356,688.5236 L675.6542,688.0185 L670.5787,688.4689 L665.5,688.4112 L665.5,688.4112 L665.4992,688.2781 L660.4221,688.4229 L655.3444,688.4555 L650.2669,688.5272 L645.1855,687.9662 L640.1094,688.2549 L640.1124,688.4662 L634.9054,688.2599 L629.7015,688.2644 L624.4989,688.3646 L619.2891,687.9605 L614.084,687.8838 L614.0859,687.9617 L608.1195,687.8341 L602.1525,687.6824 L596.1836,687.4499 L590.2244,687.6215 L584.25,687.1612 L584.2405,686.8903 L581.2278,687.3063 L578.1783,686.6721 L575.1486,686.6033 L572.1266,686.7551 L569.095,686.6314 L569.0955,686.6439 L566.1493,686.2802 L563.2317,686.5504 L560.2898,686.2827 L557.3663,686.4247 L554.416,685.9698 L554.4334,686.2657 L551.6589,685.6093 L548.9149,685.47 L546.1766,685.4276 L543.4439,685.481 L540.6892,685.1616 L540.7033,685.3402 L538.24,685.1012 L535.7578,684.6224 L533.3323,684.8621 L530.8725,684.6671 L528.3906,684.1924 L528.3878,684.1716 L524.6948,683.591 L521.0035,683.0234 L517.333,682.6096 L513.6722,682.2686 L509.9824,681.7119 L509.9694,681.6845 L508.5066,680.8839 L507.282,680.5875 L505.7058,679.5471 L504.4919,679.2732 L503,678.4112 L504.1393,678.4112 L503.9916,668.6704 L504.8467,658.9296 L502.3443,649.1889 L502.1983,639.4481 L504.3837,629.7073 L501.4083,619.9665 L502.376,610.2258 L503.308,600.485 L503.1832,590.7442 L502.0441,581.0035 L502.8854,571.2627 L504.9856,561.5219 L503,551.7812 " fill="none" style="stroke:#181818;stroke-width:4.0;"/><path d="M503,551.7812 L503,551.7812 L503.0399,551.8656 L504.3178,552.2748 L505.8297,553.1791 L507.2654,553.9222 L508.4504,554.1351 L509.9824,555.0819 L509.9778,555.0477 L513.6387,555.3902 L517.3229,555.9052 L521.0233,556.5402 L524.668,556.7618 L528.3906,557.5624 L528.41,557.8077 L530.8283,557.477 L533.3032,557.8625 L535.7849,558.3353 L538.2265,558.2998 L540.6892,558.5316 L540.691,558.5619 L543.4337,558.6791 L546.1846,558.9341 L548.9315,559.1226 L551.686,559.438 L554.416,559.3398 L554.4294,559.6377 L557.3654,559.7737 L560.2927,559.7175 L563.2327,559.9426 L566.1732,560.1808 L569.095,560.0014 L569.0838,559.681 L572.1365,560.4087 L575.1524,560.0816 L578.1963,560.5564 L581.2113,560.2053 L584.25,560.5312 L584.2493,560.5007 L590.2248,561.0052 L596.1831,560.7986 L602.1515,561.0115 L608.1208,561.2597 L614.084,561.2538 L614.0866,561.4388 L619.289,561.3263 L624.496,561.5299 L629.6956,561.2221 L634.9061,561.6771 L640.1094,561.6249 L640.1109,561.8685 L645.1887,561.8537 L650.2673,561.9599 L655.3424,561.504 L660.4201,561.4601 L665.5,561.7812 L665.5,561.7812 L665.4983,561.505 L670.578,561.7237 L675.6557,561.6313 L680.7362,561.9903 L685.812,561.5785 L690.8906,561.6249 L690.8885,561.4725 L696.0971,561.6521 L701.2966,561.1801 L706.5026,561.1716 L711.715,561.6164 L716.916,561.2538 L716.9207,561.4474 L722.8907,561.4356 L728.8461,560.8218 L734.8198,560.962 L740.7896,560.938 L746.75,560.5312 L746.7427,560.3213 L749.7795,560.3826 L752.814,560.3752 L755.8531,560.5028 L758.874,560.1055 L761.905,560.0014 L761.9143,560.2068 L764.8297,559.6232 L767.7631,559.436 L770.7225,559.828 L773.6338,559.1538 L776.584,559.3398 L776.5973,559.5656 L779.3347,559.2698 L782.0677,558.8976 L784.8108,558.6979 L787.5774,558.8968 L790.3108,558.5316 L790.3003,558.399 L792.7912,558.6 L795.2109,557.899 L797.7115,558.2237 L800.1666,557.9708 L802.6094,557.5624 L802.6239,557.6703 L806.2938,557.0871 L810.0158,556.8903 L813.6907,556.3444 L817.346,555.6526 L821.0176,555.0819 L821.0685,555.1897 L822.3893,554.3694 L823.9466,554.0495 L825.2364,553.1637 L826.6363,552.5107 L828,551.7812 " fill="none" style="stroke:#181818;stroke-width:4.0;"/><text fill="#000000" font-family="Chalkduster" font-size="24" font-weight="bold" lengthAdjust="spacing" textLength="309" x="511" y="587.622">Austalk Archival Store</text></g><!--entity api2--><g id="elem_api2"><polygon fill="none" points="357,436.1512,357,436.3613,366.8788,435.7368,376.7576,436.3444,386.6364,436.5508,396.5152,435.4378,406.3939,436.0734,416.2727,435.7247,426.1515,435.7677,436.0303,436.083,445.9091,435.4598,455.7879,436.7048,465.6667,435.5209,475.5455,435.9534,485.4242,436.5831,495.303,436.0654,505.1818,436.2194,515.0606,436.1192,524.9394,436.3297,534.8182,436.3903,544.697,436.7369,554.5758,436.8222,564.4545,436.8304,574.3333,436.4058,584.2121,436.6147,594.0909,436.8534,603.9697,435.43,613.8485,436.8297,623.7273,435.8547,633.6061,436.685,643.4848,435.6561,653.3636,436.0827,663.2424,436.8928,673.1212,436.1024,683,436.1512,683.0134,436.1836,683.3967,436.4019,683.7602,436.5722,684.0602,436.5893,684.4509,436.8254,684.7678,436.8834,684.5915,436.8104,685.0018,437.2732,685.2295,437.6604,685.344,438.0008,685.5423,438.3758,685.5,438.6512,685.0169,438.6512,684.8478,447.7771,684.8786,456.9031,685.4411,466.0291,685.3035,475.155,685.5,484.281,685.7098,484.3679,685.2998,484.6123,685.1015,484.9443,685.131,485.3708,684.7089,485.6101,684.7678,486.0488,684.7015,485.8889,684.497,486.3951,684.1162,486.4758,683.8008,486.7143,683.3125,486.5354,683,486.781,683,487.1002,673.1212,487.3714,663.2424,486.3086,653.3636,486.6851,643.4848,486.907,633.6061,487.4328,623.7273,486.7768,613.8485,487.2436,603.9697,486.2272,594.0909,486.1037,584.2121,487.2846,574.3333,486.0641,564.4545,487.29,554.5758,486.9876,544.697,486.5131,534.8182,486.4272,524.9394,487.2398,515.0606,486.4817,505.1818,487.3729,495.303,486.2282,485.4242,487.3984,475.5455,487.2653,465.6667,487.026,455.7879,486.8282,445.9091,487.5076,436.0303,487.3946,426.1515,486.9502,416.2727,487.0492,406.3939,486.6507,396.5152,487.4974,386.6364,486.9359,376.7576,486.9536,366.8788,486.1726,357,486.781,356.9483,486.6562,356.7141,486.798,356.3477,486.6205,355.9339,486.3284,355.5447,486.096,355.2322,486.0488,355.1648,486.0208,354.8745,485.6077,355.0671,485.3946,355.0206,485.0824,354.8086,484.7017,354.5,484.281,355.1949,484.281,354.3633,475.155,354.5872,466.0291,354.1124,456.9031,354.784,447.7771,354.5,438.6512,354.576,438.6826,354.8166,438.3681,354.7222,437.9148,354.8979,437.5734,355.2224,437.2935,355.2322,436.8834,355.3046,437.0581,355.5204,436.5791,355.9146,436.5308,356.3119,436.49,356.5685,436.1095,357,436.1512" style="stroke:#181818;stroke-width:4.0;"/><text fill="#000000" font-family="Chalkduster" font-size="24" lengthAdjust="spacing" textLength="311" x="364.5" y="469.992">Access Controlled API</text></g><!--entity i3--><g id="elem_i3"><path d="M474,230.8912 L474,230.8912 L474.0479,230.9714 L475.8431,229.5768 L477.919,228.6524 L479.9035,227.5749 L481.5875,225.9939 L483.6875,225.1099 L483.6814,225.0759 L485.64,224.5679 L487.6293,224.2312 L489.64,224.0137 L491.5771,223.3856 L493.6172,223.3326 L493.6428,223.5773 L495.8646,222.8157 L498.1612,222.7686 L500.4669,222.8087 L502.7195,222.3415 L505,222.1412 L505.0019,222.1714 L507.2757,221.9825 L509.5582,221.9313 L511.8364,221.8136 L514.1227,221.8228 L516.3828,221.4185 L516.394,221.7165 L518.38,221.646 L520.3589,221.3832 L522.3483,221.4017 L524.3382,221.4335 L526.3125,221.0474 L526.3073,220.7269 L528.2549,221.3177 L530.1854,220.8531 L532.1288,221.1909 L534.059,220.7024 L536,220.8912 L536,220.8912 L535.9995,220.8607 L537.9428,221.252 L539.8747,220.932 L541.8133,221.0317 L543.7524,221.1666 L545.6875,221.0474 L545.6944,221.2323 L547.6734,221.1199 L549.6641,221.3234 L551.6358,221.0158 L553.636,221.4706 L555.6172,221.4185 L555.6326,221.6617 L557.9063,221.7602 L560.1876,221.9795 L562.4333,221.6378 L564.7051,221.7074 L567,222.1412 L566.9713,221.8665 L569.2738,222.3534 L571.544,222.5309 L573.8612,223.1572 L576.0982,223.0171 L578.3828,223.3326 L578.3559,223.1825 L580.3866,223.7879 L582.3025,223.7518 L584.3,224.1719 L586.3774,225.0384 L588.3125,225.1099 L588.4117,225.2762 L590.4173,226.5465 L592.1142,227.2996 L594.1977,228.7005 L596.197,229.9602 L598,230.8912 L596.7403,230.8912 L597.7444,240.9283 L598.336,250.9654 L599.738,261.0024 L597.9888,271.0395 L599.2335,281.0766 L596.5232,291.1137 L598,301.1508 L598,301.1508 L597.8457,300.8924 L596.1772,302.4993 L593.9617,303.1897 L592.3034,304.8138 L590.2971,305.8547 L588.3125,306.9321 L588.2915,306.8149 L586.2989,307.1328 L584.3765,307.8437 L582.3312,307.8675 L580.4151,308.6129 L578.3828,308.7094 L578.3572,308.4651 L576.1348,309.2206 L573.8521,309.4001 L571.5645,309.5325 L569.2787,309.6834 L567,309.9008 L567.0205,310.2231 L564.7407,310.3175 L562.4516,310.265 L560.1779,310.4534 L557.8901,310.4212 L555.6172,310.6235 L555.6291,310.9417 L553.6338,310.7665 L551.6482,310.8486 L549.6493,310.576 L547.6667,310.7404 L545.6875,310.9946 L545.6913,311.2304 L543.7531,311.2168 L541.8122,311.038 L539.8727,310.9452 L537.9359,311.0223 L536,311.1508 L536,311.1508 L535.9951,310.8459 L534.0655,311.3039 L532.1303,311.417 L530.1913,311.291 L528.255,311.3346 L526.3125,310.9946 L526.3102,310.9339 L524.328,310.9591 L522.3342,310.674 L520.3594,310.8981 L518.3728,310.8073 L516.3828,310.6235 L516.3984,310.8685 L514.0998,310.3771 L511.8259,310.2748 L509.5656,310.3866 L507.2925,310.297 L505,309.9008 L504.9763,309.6743 L502.7145,309.5768 L500.4538,309.4902 L498.1421,308.916 L495.9101,309.1039 L493.6172,308.7094 L493.6374,308.8223 L491.6234,308.3099 L489.6565,308.0607 L487.7164,307.9618 L485.6489,307.1507 L483.6875,306.9321 L483.7592,307.0523 L481.8151,305.8848 L479.8389,304.6638 L477.9071,303.5171 L475.9633,302.3504 L474,301.1508 L472.3356,301.1508 L472.9312,291.1137 L472.7692,281.0766 L474.1702,271.0395 L474.235,261.0024 L474.4313,250.9654 L473.2241,240.9283 L474,230.8912 " fill="none" style="stroke:#181818;stroke-width:4.0;"/><path d="M474,230.8912 L474,230.8912 L474.0479,230.9714 L475.8431,231.8893 L477.919,233.2774 L479.9035,234.5124 L481.5875,235.2439 L483.6875,236.6724 L483.6814,236.6384 L485.64,236.8413 L487.6293,237.2156 L489.64,237.709 L491.5771,237.7918 L493.6172,238.4498 L493.6428,238.6945 L495.8646,238.4094 L498.1612,238.8389 L500.4669,239.3555 L502.7195,239.365 L505,239.6412 L505.0019,239.6714 L507.2757,239.7715 L509.5582,240.0094 L511.8364,240.1808 L514.1227,240.4791 L516.3828,240.3638 L516.394,240.6619 L518.38,240.7397 L520.3589,240.6253 L522.3483,240.7924 L524.3382,240.9726 L526.3125,240.7349 L526.3073,240.4144 L528.2549,241.0677 L530.1854,240.6656 L532.1288,241.0659 L534.059,240.6399 L536,240.8912 L536,240.8912 L535.9995,240.8607 L537.9428,241.1895 L539.8747,240.807 L541.8133,240.8442 L543.7524,240.9166 L545.6875,240.7349 L545.6944,240.9198 L547.6734,240.659 L549.6641,240.714 L551.6358,240.258 L553.636,240.5643 L555.6172,240.3638 L555.6326,240.607 L557.9063,240.4165 L560.1876,240.3467 L562.4333,239.716 L564.7051,239.4964 L567,239.6412 L566.9713,239.3665 L569.2738,239.3769 L571.544,239.0777 L573.8612,239.2275 L576.0982,238.6108 L578.3828,238.4498 L578.3559,238.2997 L580.3866,238.1942 L582.3025,237.4471 L584.3,237.1562 L586.3774,237.3118 L588.3125,236.6724 L588.4117,236.8387 L590.4173,235.7965 L592.1142,234.2371 L594.1977,233.3255 L596.197,232.2727 L598,230.8912 " fill="none" style="stroke:#181818;stroke-width:4.0;"/><text fill="#000000" font-family="Chalkduster" font-size="24" lengthAdjust="spacing" textLength="89" x="484" y="268.732">Index:</text><text fill="#000000" font-family="Chalkduster" font-size="24" lengthAdjust="spacing" textLength="92" x="496" y="299.3619">1,2,3 4</text></g><!--entity sqlite--><g id="elem_sqlite"><path d="M268.5,1003.0412 L268.5,1003.0412 L268.5349,1003.1278 L270.0682,1002.2102 L271.8063,1001.8005 L273.4778,1001.2254 L274.9299,1000.1065 L276.6855,999.7404 L276.6807,999.7062 L278.5378,999.2856 L280.4195,999.0375 L282.3181,998.9091 L284.1581,998.3678 L286.0803,998.4049 L286.1033,998.6499 L288.4912,997.897 L290.9462,997.8594 L293.4095,997.9091 L295.825,997.451 L298.2656,997.2599 L298.2677,997.2902 L301.1482,997.0519 L304.038,996.9514 L306.9234,996.7844 L309.8173,996.7442 L312.6833,996.2907 L312.6983,996.5885 L315.9169,996.4306 L319.1258,996.0805 L322.3489,996.0116 L325.5726,995.9559 L328.7754,995.4826 L328.7631,995.1623 L332.2286,995.6516 L335.6536,995.0862 L339.1095,995.3227 L342.5335,994.7334 L345.9836,994.8209 L345.9827,994.7905 L349.5467,995.0444 L353.0895,994.5874 L356.6449,994.5499 L360.2012,994.5476 L363.75,994.2912 L363.7538,994.4761 L370.7449,994.1449 L377.7425,994.1297 L384.7295,993.6032 L391.7323,993.8394 L398.7246,993.5685 L398.7276,993.8121 L404.829,993.6918 L410.9318,993.6925 L417.0279,993.1312 L423.1289,992.9818 L429.2344,993.1974 L429.2329,992.9212 L435.1874,993.14 L441.1402,993.0476 L447.0953,993.4065 L453.0465,992.9948 L459,993.0412 L459,993.0412 L458.9992,992.8887 L464.9537,993.1739 L470.9047,992.8073 L476.8582,992.9042 L482.814,993.4546 L488.7656,993.1974 L488.768,993.391 L494.8715,993.598 L500.9678,993.2028 L507.0732,993.5619 L513.1766,993.7567 L519.2754,993.5685 L519.2711,993.3586 L526.2694,993.6704 L533.2664,993.9135 L540.2661,994.2917 L547.255,994.1448 L554.25,994.2912 L554.2561,994.4967 L557.7959,994.1511 L561.3476,994.2022 L564.9165,994.8328 L568.4536,994.3965 L572.0164,994.8209 L572.025,995.047 L575.4615,995.045 L578.8951,994.9666 L582.3353,995.0608 L585.7908,995.554 L589.2246,995.4826 L589.2179,995.3497 L592.4562,995.9069 L595.6491,995.5605 L598.8936,996.2415 L602.109,996.344 L605.3167,996.2907 L605.324,996.3993 L608.2016,996.5055 L611.1054,997.0006 L613.9856,997.1443 L616.8559,997.1411 L619.7344,997.2599 L619.7455,997.3786 L622.166,997.4313 L624.6383,998.0349 L627.052,998.0155 L629.4898,998.2523 L631.9197,998.4049 L631.8816,998.1372 L633.7733,998.4937 L635.7108,999.1727 L637.5834,999.3953 L639.4328,999.4544 L641.3145,999.7404 L641.2609,999.6076 L642.9152,1000.3103 L644.4746,1000.7779 L646.2947,1001.8918 L647.9858,1002.6858 L649.5,1003.0412 L649.9679,1003.0412 L650.1177,1010.9671 L649.3785,1018.8931 L649.5775,1026.8191 L649.1555,1034.745 L649.5,1042.671 L649.5,1042.671 L649.5472,1042.7881 L647.9039,1043.4329 L646.3176,1044.219 L644.5505,1044.5568 L642.9292,1045.2562 L641.3145,1045.9718 L641.3422,1046.1669 L639.471,1046.4885 L637.5245,1046.2804 L635.6655,1046.6877 L633.808,1047.1058 L631.9197,1047.3072 L631.8943,1047.0369 L629.4973,1047.6926 L627.0563,1047.8794 L624.6043,1047.9497 L622.1774,1048.2862 L619.7344,1048.4522 L619.7561,1048.7754 L616.8415,1048.5074 L613.9767,1048.9796 L611.0923,1049.1605 L608.2036,1049.279 L605.3167,1049.4215 L605.3198,1049.484 L602.1008,1049.6335 L598.8659,1049.4677 L595.6525,1049.7284 L592.4327,1049.8631 L589.2246,1050.2296 L589.2257,1050.2579 L585.7845,1050.4011 L582.3441,1050.5661 L578.8947,1050.4973 L575.4569,1050.7289 L572.0164,1050.8912 L572.0148,1050.8378 L568.4707,1051.2534 L564.9155,1051.2926 L561.3501,1050.9934 L557.8023,1051.2826 L554.25,1051.421 L554.2447,1051.1645 L547.2577,1051.6937 L540.2657,1051.9804 L533.2702,1052.0966 L526.2663,1051.8056 L519.2754,1052.1437 L519.2779,1052.3498 L513.1694,1051.8878 L507.0726,1052.381 L500.9679,1052.2333 L494.8681,1052.4835 L488.7656,1052.5147 L488.7662,1052.6216 L482.8136,1052.7558 L476.8577,1052.2573 L470.9074,1052.8198 L464.9535,1052.7189 L459,1052.671 L459,1052.671 L459.0008,1052.8289 L453.0486,1052.9721 L447.0938,1052.6109 L441.141,1052.6551 L435.188,1052.6409 L429.2344,1052.5147 L429.2354,1052.6024 L423.1324,1052.4402 L417.0343,1052.6822 L410.9252,1052.0211 L404.8296,1052.4691 L398.7246,1052.1437 L398.7189,1051.8664 L391.7247,1051.759 L384.7351,1051.8724 L377.7401,1051.7226 L370.7404,1051.3465 L363.75,1051.421 L363.7555,1051.6048 L360.1982,1051.3634 L356.6531,1051.5319 L353.099,1051.3995 L349.531,1050.798 L345.9836,1050.8912 L345.9768,1050.7145 L342.5398,1050.7015 L339.1064,1050.7845 L335.6656,1050.6732 L332.2222,1050.4957 L328.7754,1050.2296 L328.7678,1050.0778 L325.5712,1050.3504 L322.3527,1050.1877 L319.1191,1049.7237 L315.8964,1049.477 L312.6833,1049.4215 L312.6714,1049.2435 L309.7934,1049.1325 L306.9204,1049.0947 L304.0307,1048.8096 L301.1367,1048.4608 L298.2656,1048.4522 L298.2859,1048.6679 L295.8095,1048.0202 L293.4124,1048.2165 L290.9722,1047.9543 L288.5328,1047.7008 L286.0803,1047.3072 L286.1236,1047.6119 L284.186,1046.9319 L282.3036,1046.6408 L280.4759,1046.7343 L278.5272,1045.9762 L276.6855,1045.9718 L276.6467,1045.8753 L275.0676,1045.3592 L273.4227,1044.6798 L271.7146,1043.8436 L270.13,1043.3134 L268.5,1042.671 L269.1619,1042.671 L269.0764,1034.745 L267.97,1026.8191 L268.5698,1018.8931 L268.0432,1010.9671 L268.5,1003.0412 " fill="none" style="stroke:#181818;stroke-width:4.0;"/><path d="M268.5,1003.0412 L268.5,1003.0412 L268.5349,1003.1278 L270.0682,1003.5305 L271.8063,1004.4411 L273.4778,1005.1864 L274.9299,1005.3877 L276.6855,1006.3419 L276.6807,1006.3077 L278.5378,1006.4214 L280.4195,1006.7074 L282.3181,1007.1132 L284.1581,1007.1061 L286.0803,1007.6774 L286.1033,1007.9224 L288.4912,1007.6275 L290.9462,1008.0479 L293.4095,1008.5555 L295.825,1008.5555 L298.2656,1008.8224 L298.2677,1008.8527 L301.1482,1009.0021 L304.038,1009.2893 L306.9234,1009.51 L309.8173,1009.8575 L312.6833,1009.7916 L312.6983,1010.0895 L315.9169,1010.2548 L319.1258,1010.2279 L322.3489,1010.4823 L325.5726,1010.7498 L328.7754,1010.5998 L328.7631,1010.2795 L332.2286,1011.0334 L335.6536,1010.7327 L339.1095,1011.2338 L342.5335,1010.9092 L345.9836,1011.2614 L345.9827,1011.2309 L349.5467,1011.6968 L353.0895,1011.4516 L356.6449,1011.626 L360.2012,1011.8356 L363.75,1011.7912 L363.7538,1011.9761 L370.7449,1011.934 L377.7425,1012.2078 L384.7295,1011.9704 L391.7323,1012.4957 L398.7246,1012.5138 L398.7276,1012.7574 L404.829,1012.7856 L410.9318,1012.9347 L417.0279,1012.5218 L423.1289,1012.5209 L429.2344,1012.8849 L429.2329,1012.6087 L435.1874,1012.89 L441.1402,1012.8601 L447.0953,1013.2815 L453.0465,1012.9323 L459,1013.0412 L459,1013.0412 L458.9992,1012.8887 L464.9537,1013.1114 L470.9047,1012.6823 L476.8582,1012.7167 L482.814,1013.2046 L488.7656,1012.8849 L488.768,1013.0785 L494.8715,1013.1371 L500.9678,1012.5935 L507.0732,1012.8041 L513.1766,1012.8504 L519.2754,1012.5138 L519.2711,1012.3039 L526.2694,1012.3267 L533.2664,1012.2807 L540.2661,1012.3698 L547.255,1011.9338 L554.25,1011.7912 L554.2561,1011.9967 L557.7959,1011.4392 L561.3476,1011.2784 L564.9165,1011.697 L568.4536,1011.0488 L572.0164,1011.2614 L572.025,1011.4874 L575.4615,1011.2208 L578.8951,1010.8777 L582.3353,1010.7073 L585.7908,1010.9358 L589.2246,1010.5998 L589.2179,1010.4669 L592.4562,1010.7009 L595.6491,1010.0312 L598.8936,1010.389 L602.109,1010.1682 L605.3167,1009.7916 L605.324,1009.9003 L608.2016,1009.6187 L611.1054,1009.7262 L613.9856,1009.4822 L616.8559,1009.0913 L619.7344,1008.8224 L619.7455,1008.9411 L622.166,1008.5358 L624.6383,1008.6814 L627.052,1008.2039 L629.4898,1007.9828 L631.9197,1007.6774 L631.8816,1007.4097 L633.7733,1007.232 L635.7108,1007.3768 L637.5834,1007.0652 L639.4328,1006.5901 L641.3145,1006.3419 L641.2609,1006.2091 L642.9152,1005.5915 L644.4746,1004.7388 L646.2947,1004.5324 L647.9858,1004.0062 L649.5,1003.0412 " fill="none" style="stroke:#181818;stroke-width:4.0;"/><text fill="#000000" font-family="Chalkduster" font-size="24" lengthAdjust="spacing" textLength="361" x="278.5" y="1040.882">Compiled Metadata Index</text></g><!--entity ds--><g id="elem_ds"><polygon fill="none" points="247.5,850.4112,247.5,850.6213,257.4787,849.9968,267.4574,850.6044,277.4362,850.8108,287.4149,849.6978,297.3936,850.3334,307.3723,849.9847,317.3511,850.0277,327.3298,850.343,337.3085,849.7198,347.2872,850.9648,357.266,849.7809,367.2447,850.2134,377.2234,850.8431,387.2021,850.3254,397.1809,850.4794,407.1596,850.3792,417.1383,850.5897,427.117,850.6503,437.0957,850.9969,447.0745,851.0822,457.0532,851.0904,467.0319,850.6658,477.0106,850.8747,486.9894,851.1134,496.9681,849.69,506.9468,851.0897,516.9255,850.1147,526.9043,850.945,536.883,849.9161,546.8617,850.3427,556.8404,851.1528,566.8191,850.3624,576.7979,850.5165,586.7766,850.7498,596.7553,850.8274,606.734,850.4073,616.7128,850.6984,626.6915,849.8387,636.6702,850.6955,646.6489,850.9594,656.6277,850.8557,666.6064,851.0242,676.5851,849.9281,686.5638,849.759,696.5426,849.7898,706.5213,850.3523,716.5,850.4112,716.4749,850.3506,716.9405,850.7675,717.1848,850.6503,717.5169,850.7449,717.9433,851.0672,718.2678,851.1434,718.0624,851.0583,718.2543,851.4307,718.7605,851.9333,718.8413,852.2596,719.0797,852.6513,719,852.9112,718.6782,852.9112,719.3192,862.0371,719.5904,871.1631,718.5276,880.2891,718.9041,889.415,719,898.541,719.0388,898.5571,719.0543,898.9777,718.7058,899.2476,718.7031,899.6607,718.2437,899.8846,718.2678,900.3088,718.1814,900.1002,717.9785,900.6103,717.4692,900.3809,717.272,900.9048,716.8799,900.9582,716.5,901.041,716.5,900.7731,706.5213,900.6872,696.5426,901.4998,686.5638,900.7417,676.5851,901.6329,666.6064,900.4882,656.6277,901.6584,646.6489,901.5253,636.6702,901.286,626.6915,901.0882,616.7128,901.7676,606.734,901.6546,596.7553,901.2102,586.7766,901.3092,576.7979,900.9107,566.8191,901.7574,556.8404,901.1959,546.8617,901.2136,536.883,900.4326,526.9043,900.6358,516.9255,901.5717,506.9468,901.4708,496.9681,900.9981,486.9894,900.7188,477.0106,900.8221,467.0319,900.3548,457.0532,901.4557,447.0745,901.7806,437.0957,901.5674,427.117,901.7359,417.1383,900.9043,407.1596,901.1282,397.1809,900.6534,387.2021,901.325,377.2234,901.2878,367.2447,901.5934,357.266,900.8113,347.2872,900.9066,337.3085,901.4845,327.3298,901.6083,317.3511,900.5285,307.3723,900.8471,297.3936,901.1903,287.4149,900.4301,277.4362,901.3944,267.4574,901.299,257.4787,900.9402,247.5,901.041,247.5181,901.0848,247.2394,901.119,246.753,900.6517,246.4795,900.6987,246.1222,900.5432,245.7322,900.3088,245.7679,900.3235,245.6292,899.9732,245.4743,899.6161,245.1007,899.1685,245.023,898.8434,245,898.541,244.5385,898.541,245.0638,889.415,245.0881,880.2891,245.1617,871.1631,244.709,862.0371,245,852.9112,244.9792,852.9025,245.1094,852.5423,245.4705,852.2776,245.5707,851.9049,245.4363,851.435,245.7322,851.1434,245.7229,851.1209,246.0122,850.8192,246.4761,850.9393,246.8705,850.8914,247.2159,850.7253,247.5,850.4112" style="stroke:#181818;stroke-width:4.0;"/><text fill="#000000" font-family="Chalkduster" font-size="24" lengthAdjust="spacing" textLength="454" x="255" y="884.252">Lightweight (eg Datasette) Portal</text></g><!--entity script--><g id="elem_script"><polygon fill="none" points="95,240.7112,95,240.9213,105.1379,240.2968,115.2759,240.9044,125.4138,241.1108,135.5517,239.9978,145.6897,240.6334,155.8276,240.2847,165.9655,240.3277,176.1034,240.643,186.2414,240.0198,196.3793,241.2648,206.5172,240.0809,216.6552,240.5134,226.7931,241.1431,236.931,240.6254,247.069,240.7794,257.2069,240.6792,267.3448,240.8897,277.4828,240.9503,287.6207,241.2969,297.7586,241.3822,307.8966,241.3904,318.0345,240.9658,328.1724,241.1747,338.3103,241.4134,348.4483,239.99,358.5862,241.3897,368.7241,240.4147,378.8621,241.245,389,240.7112,388.9369,240.5587,389.3448,240.8365,389.8017,241.2324,390.0544,241.1355,390.4276,241.3294,390.7678,241.4434,390.8721,241.4866,391.0424,241.85,391.0595,242.15,391.2956,242.5407,391.1773,242.7846,391.5,243.2112,391.7844,243.2112,392.0482,252.3371,391.9445,261.4631,392.113,270.5891,391.0169,279.715,391.5,288.841,391.2992,288.7578,391.1622,289.1153,391.189,289.5406,391.0001,289.8766,391.1241,290.3421,390.7678,290.6088,390.7455,290.555,390.3705,290.6496,390.0898,290.972,389.622,290.8427,389.2873,291.0347,389,291.341,389,291.9899,378.8621,291.7767,368.7241,292.0755,358.5862,291.0192,348.4483,291.6602,338.3103,291.9314,328.1724,290.8686,318.0345,291.2451,307.8966,291.467,297.7586,291.9928,287.6207,291.3368,277.4828,291.8036,267.3448,290.7872,257.2069,290.6637,247.069,291.8446,236.931,290.6241,226.7931,291.85,216.6552,291.5476,206.5172,291.0731,196.3793,290.9872,186.2414,291.7998,176.1034,291.0417,165.9655,291.9329,155.8276,290.7882,145.6897,291.9584,135.5517,291.8253,125.4138,291.586,115.2759,291.3882,105.1379,292.0676,95,291.341,95.0783,291.53,94.668,291.2467,94.3271,291.1307,93.9227,290.8615,93.6772,290.9758,93.2322,290.6088,93.2799,290.6285,93.1389,290.2772,92.752,289.8241,92.6681,289.4964,92.8099,289.2623,92.5,288.841,92.9298,288.841,92.4571,279.715,92.1778,270.5891,92.2811,261.4631,91.8138,252.3371,92.5,243.2112,92.6277,243.2641,92.8742,242.9519,92.955,242.5712,93.1534,242.2391,93.0437,241.7795,93.2322,241.4434,93.2434,241.4703,93.5363,241.1776,93.9756,241.238,94.3244,241.08,94.7169,241.0277,95,240.7112" style="stroke:#181818;stroke-width:4.0;"/><text fill="#000000" font-family="Chalkduster" font-size="24" lengthAdjust="spacing" textLength="279" x="102.5" y="274.552">Custom Index Script</text></g><!--entity 1--><g id="elem_1"><polygon fill="none" points="720,613.7812,720,613.8512,726,613.6431,732,613.8456,738,613.9144,744,613.5434,750,613.7812,749.9901,613.7572,750.2991,613.7963,750.6582,613.956,751.052,614.1995,751.326,614.154,751.7678,614.5134,751.9383,614.584,751.7201,614.7865,751.9998,615.1953,752.3401,615.6292,752.3271,615.9167,752.5,616.2812,752.5682,616.2812,752.4681,625.4071,752.6785,634.5331,752.7391,643.6591,753.0857,652.785,752.5,661.911,752.7067,661.9966,752.5627,662.3512,752.2855,662.6506,752.2034,663.0308,752.1305,663.4148,751.7678,663.6788,751.6758,663.4567,751.5008,664.0342,751.0228,663.8803,750.7752,664.2825,750.2904,664.1121,750,664.411,750,664.3882,744,664.6582,738,664.3947,732,664.4461,726,664.5239,720,664.411,720.0531,664.5392,719.6459,664.2633,719.3295,664.2066,718.8663,663.7954,718.6221,663.9128,718.2322,663.6788,718.4011,663.7487,718.2227,663.3819,718.1281,663.0499,717.6441,662.5565,717.4456,662.1814,717.5,661.911,716.8786,661.911,717.4411,652.785,717.3035,643.6591,718.1814,634.5331,717.3253,625.4071,717.5,616.2812,717.3944,616.2374,717.7167,615.9567,717.5875,615.489,717.7795,615.1543,718.2856,614.9497,718.2322,614.5134,718.2878,614.6476,718.6795,614.5931,718.8983,614.1214,719.3336,614.1724,719.7218,614.1094,720,613.7812" style="stroke:#181818;stroke-width:4.0;"/><text fill="#000000" font-family="Chalkduster" font-size="24" lengthAdjust="spacing" textLength="15" x="727.5" y="647.622">1</text></g><!--entity 1000--><g id="elem_1000"><polygon fill="none" points="599.5,613.7812,599.5,613.9913,609.625,613.3668,619.75,613.9744,629.875,614.1808,640,613.0678,650.125,613.7034,660.25,613.3547,670.375,613.3977,680.5,613.7812,680.4913,613.7602,680.7654,613.7147,681.2777,614.2446,681.4803,614.0264,681.889,614.306,682.2678,614.5134,682.4008,614.5685,682.3878,614.856,682.5817,615.2292,682.6973,615.57,682.9085,615.9504,683,616.2812,683.2391,616.2812,683.5857,625.4071,683.6711,634.5331,683.6793,643.6591,683.2546,652.785,683,661.911,683.1428,661.9701,683.0698,662.3541,682.485,662.5261,682.7696,663.0582,682.3229,663.2874,682.2678,663.6788,682.3359,663.8432,681.8511,663.6728,681.5519,663.9506,681.3017,664.3465,680.8473,664.2495,680.5,664.411,680.5,664.5163,670.375,664.7496,660.25,664.8272,650.125,664.4071,640,664.6982,629.875,663.8386,619.75,664.6954,609.625,664.9592,599.5,664.411,599.5567,664.5479,599.2246,664.4533,598.7313,663.9693,598.3561,663.7708,598.0065,663.6338,597.7322,663.6788,597.7141,663.6713,597.5253,663.3001,597.6492,663.0586,597.2391,662.5958,597.0408,662.2208,597,661.911,597.2283,661.911,596.3332,652.785,596.4809,643.6591,597.649,634.5331,597.4357,625.4071,597,616.2812,597.2262,616.3749,597.0473,615.8866,597.3912,615.6148,597.6212,615.2958,597.4403,614.8067,597.7322,614.5134,597.72,614.4839,598.1019,614.4057,598.5225,614.4212,598.7924,614.0728,599.2055,614.0701,599.5,613.7812" style="stroke:#181818;stroke-width:4.0;"/><text fill="#000000" font-family="Chalkduster" font-size="24" lengthAdjust="spacing" textLength="66" x="607" y="647.622">1000</text></g><!--link ds to sqlite--><g id="link_ds_sqlite"><path d="M478.1,901.3412 L478.3768,901.385 L476.0499,910.748 L475.3456,920.3682 L474.113,929.9046 L471.1428,939.1656 L470.4754,948.7916 L468.5117,958.2122 L467.0639,967.7145 L465.9747,977.2736 L464.56,986.7812 " fill="none" style="stroke:#8B0000;stroke-width:4.0;"/><polygon fill="#8B0000" points="463.64,991.6112,463.6988,991.6493,464.5968,989.8839,465.8394,988.3421,466.9697,986.7274,467.7312,984.8733,469.0033,983.3507,468.9881,983.3297,468.0041,983.9001,467.0969,984.5762,466.2429,985.3258,465.2053,985.8222,464.4249,986.6732,464.5743,986.7815,463.5904,985.6341,463.0426,984.8031,462.548,984.0107,461.7438,982.9937,461.1025,982.0948,461.1245,982.1007,461.5997,983.9953,462.175,985.9167,462.702,987.8252,463.3211,989.7582,463.64,991.6112" style="stroke:#8B0000;stroke-width:4.0;"/><text fill="#000000" font-family="Chalkduster" font-size="24" lengthAdjust="spacing" textLength="81" x="474" y="955.882">Index</text></g><!--link script to api2--><g id="link_script_api2"><path d="M239.49,291.8412 L239.5834,291.8441 L239.2269,294.3533 L239.4178,296.8796 L239.4304,299.4004 L238.8569,301.9028 L239.0947,304.4306 L239.0602,304.43 L238.9556,307.2498 L239.025,310.0726 L239.2155,312.8976 L238.989,315.7152 L239.3466,318.5432 L239.5919,318.5623 L239.3026,321.5448 L239.7296,324.5831 L240.244,327.6282 L240.2499,330.6337 L240.5232,333.66 L240.5532,333.6646 L240.9851,336.7784 L241.5534,339.913 L242.0559,343.0375 L242.684,346.1812 L242.9025,349.2624 L243.192,349.3342 L243.9674,352.4489 L244.5562,355.5173 L245.4182,358.6534 L246.2931,361.7928 L246.7621,364.8315 L246.4619,364.7192 L248.168,367.9406 L248.8857,370.7921 L250.3549,373.9248 L251.0501,376.768 L252.3797,379.8485 L252.353,379.8339 L254.1993,382.7963 L255.4221,385.4165 L257.0128,388.2387 L258.6343,391.0778 L260.0331,393.7947 L260.1771,393.9108 L262.0251,396.2649 L264.1192,398.8174 L265.8152,401.0488 L268.105,403.7592 L270,406.1512 L270.1434,406.3481 L272.6526,408.1579 L275.2329,410.0655 L277.4824,411.5187 L279.9744,413.305 L282.6813,415.3863 L282.5666,415.1351 L286.2851,417.0117 L289.8745,418.6053 L293.6512,420.6095 L297.108,421.9126 L300.755,423.6324 L300.7044,423.4886 L302.9269,424.4809 L304.933,424.8585 L307.093,425.6733 L309.4037,426.9158 L311.4461,427.3966 L311.5025,427.5818 L313.8607,428.4151 L316.0435,428.6723 L318.446,429.6511 L320.8007,430.4726 L323.0438,430.9279 L322.9895,430.725 L325.5042,431.5474 L328.001,432.3033 L330.5328,433.1897 L332.9289,433.5687 L335.4008,434.2311 L335.4483,434.4312 L337.9378,434.6077 L340.5189,435.1703 L343.234,436.2969 L345.7025,436.3851 L348.37,437.3112 " fill="none" style="stroke:#8B0000;stroke-width:4.0;"/><polygon fill="#8B0000" points="353.07,438.5612,353.1115,438.6176,351.4013,437.2829,349.9345,436.2791,348.3884,435.1675,346.5817,433.7016,345.1357,432.7261,345.1139,432.7122,345.6261,433.6023,346.2482,434.5628,346.9468,435.5723,347.3819,436.4131,348.1861,437.4901,348.2856,437.6455,347.12,437.9233,346.2449,438.6547,345.4053,439.4416,344.3595,439.9063,343.4221,440.5404,343.4266,440.5627,345.3495,440.1342,347.2932,439.807,349.2268,439.431,351.1796,439.1483,353.07,438.5612" style="stroke:#8B0000;stroke-width:4.0;"/><text fill="#000000" font-family="Chalkduster" font-size="24" lengthAdjust="spacing" textLength="244" x="271" y="383.492">Query all records</text></g><!--link script to sqlite--><g id="link_script_sqlite"><path d="M235,291.8312 L235.0905,291.8543 L234.0418,294.8327 L233.5235,297.9469 L232.8325,301.0169 L231.5734,303.9414 L231.1007,307.0673 L231.0671,307.0593 L230.066,310.6087 L229.2344,314.1982 L228.5205,317.8157 L227.4008,321.337 L226.8495,324.993 L227.0901,325.0449 L225.7088,328.9551 L225.0299,333.0167 L224.4366,337.0968 L223.3447,341.0694 L222.5151,345.0985 L222.5449,345.1044 L222.0783,347.2379 L221.7472,349.3982 L221.3508,351.5455 L221.079,353.7175 L220.4007,355.8092 L220.694,355.8632 L220.2907,358.0767 L219.6982,360.2555 L219.3827,362.4852 L219.0801,364.7172 L218.3662,366.8737 L218.0502,366.8202 L218.2794,369.1948 L217.468,371.3934 L217.4476,373.7258 L216.6126,375.9204 L216.4453,378.228 L216.4153,378.2234 L216.4164,380.594 L215.7144,382.8569 L215.4273,385.1834 L215.1751,387.5152 L214.6716,389.8085 L214.8549,389.8334 L214.3513,392.1569 L214.1609,394.5228 L213.4637,396.8201 L213.5224,399.2198 L213.0786,401.5514 L213.3206,401.5796 L212.9991,403.9426 L212.7977,406.3196 L212.0381,408.6316 L211.6877,410.9912 L211.6998,413.393 L211.4249,413.3669 L211.4476,415.7659 L211.1606,418.1354 L211.3229,420.5477 L210.7179,422.8869 L210.569,425.2696 L210.417,425.2587 L210.5004,427.6464 L209.9337,429.9874 L209.8293,432.3617 L210.1773,434.7683 L209.7197,437.1173 L209.9132,437.126 L209.939,439.4831 L209.3632,441.8128 L209.5409,444.1768 L209.5545,446.5333 L209.1855,448.8724 L208.9756,448.869 L209.1058,451.1914 L209.1673,453.5128 L209.3638,455.8363 L209.0352,458.1514 L209,460.4712 L209.6168,460.4712 L208.2616,470.3821 L208.097,480.2931 L209.6715,490.204 L208.0441,500.115 L209.6786,510.0259 L209.2755,519.9369 L208.6428,529.8478 L208.5283,539.7588 L209.6117,549.6697 L208.6009,559.5807 L209.7891,569.4916 L208.263,579.4026 L209.8232,589.3135 L209.6457,599.2245 L209.3266,609.1354 L209.063,619.0464 L209.9688,628.9574 L209.8181,638.8683 L209.2257,648.7793 L209.3576,658.6902 L208.8263,668.6012 L209.9553,678.5121 L209.2065,688.4231 L209.2301,698.334 L208.1889,708.245 L208.4597,718.1559 L209.7077,728.0669 L209.573,737.9778 L208.9428,747.8888 L208.5704,757.7997 L208.7081,767.7107 L208.0851,777.6216 L209.553,787.5326 L209.9861,797.4435 L209.7019,807.3545 L209.9266,817.2654 L208.8177,827.1764 L209.1163,837.0874 L208.4832,846.9983 L209.3787,856.9093 L209.329,866.8202 L209,876.7312 L209.2451,876.7446 L209.0132,878.8294 L209.1706,880.9355 L209.5422,883.0534 L209.7123,885.1602 L209.5757,887.2502 L209.3511,887.2124 L209.8274,889.2373 L210.3145,891.264 L210.318,893.2093 L211.0773,895.2817 L211.2591,897.257 L211.3674,897.2946 L212.5022,900.9477 L213.8897,904.6884 L215.4213,908.4791 L216.2694,912.0328 L217.6862,915.7837 L217.806,915.8562 L219.8089,919.1749 L221.7584,922.4612 L223.782,925.7925 L225.7856,929.1116 L227.7566,932.4109 L227.5493,932.2266 L230.2611,935.2581 L232.8787,938.2057 L235.6908,941.3264 L238.3366,944.2991 L240.945,947.2387 L240.9928,947.2923 L242.3789,948.4961 L243.9648,949.9244 L245.4691,951.2609 L247.1951,952.8463 L248.5445,954.0089 L248.6608,954.1586 L250.0485,955.1101 L251.7974,956.5264 L253.2963,957.621 L255.1688,959.1964 L256.7266,960.3667 L256.8794,960.5898 L258.6032,961.758 L260.0968,962.5901 L262.0626,964.1115 L263.4993,964.8606 L265.4257,966.3245 L265.472,966.4005 L267.1866,967.325 L269.1083,968.5894 L270.9716,969.758 L272.8552,970.9601 L274.5763,971.8949 L274.4232,971.6139 L276.5846,973.1196 L278.4287,974.0426 L280.3736,975.1508 L282.3643,976.3431 L284.1126,977.0903 L284.1137,977.0925 L286.1182,978.1268 L288.0969,979.1086 L290.0651,980.0687 L291.9976,980.9562 L293.9691,981.9231 L294.0971,982.2119 L295.8814,982.5719 L298.1153,983.9459 L299.9233,984.3593 L301.9605,985.2898 L304.0801,986.4059 L304.0867,986.4224 L306.1448,987.2466 L308.1183,987.8608 L310.3287,989.0636 L312.3381,989.767 L314.38,990.5512 " fill="none" style="stroke:#8B0000;stroke-width:4.0;"/><polygon fill="#8B0000" points="318.75,992.5612,318.7991,992.6111,317.2487,991.0816,315.9862,989.8449,314.6299,988.5129,312.9653,986.8673,311.7275,985.6557,311.7039,985.645,312.0663,986.6269,312.5475,987.6628,313.1113,988.7362,313.3904,989.6802,314.0684,990.8055,314.1447,990.9735,312.9515,991.0824,311.9812,991.6819,311.038,992.3411,309.9367,992.6522,308.9185,993.1464,308.9199,993.1691,310.8842,993.0187,312.8547,992.9717,314.8222,992.8748,316.7953,992.8731,318.75,992.5612" style="stroke:#8B0000;stroke-width:4.0;"/><text fill="#000000" font-family="Chalkduster" font-size="24" lengthAdjust="spacing" textLength="259" x="210" y="647.942">Build metadata DB</text></g><!--link api2 to stor3--><g id="link_api2_stor3"><path d="M520,493.0712 L520.0934,493.0712 L519.8159,501.6942 L520.0859,510.3172 L520.1776,518.9402 L519.6829,527.5632 L520,536.1862 L519.9655,536.1862 L519.8104,536.7754 L519.8296,537.3646 L519.9697,537.9538 L519.6927,538.543 L520,539.1322 L520.2461,539.1322 L519.7199,539.4277 L519.9121,539.7231 L520.192,540.0186 L519.9619,540.3141 L520,540.6096 L520.0303,540.6096 L519.9858,540.7576 L520.0793,540.9055 L520.1063,541.0534 L520.2603,541.2014 L520,541.3493 " fill="none" style="stroke:#8B0000;stroke-width:4.0;"/><polygon fill="#8B0000" points="520,488.2612,520.064,488.2896,519.0738,490.0051,518.4589,491.8873,517.7217,493.7153,516.5827,495.3646,516,497.2612,515.9817,497.2428,516.6995,496.3606,517.5096,495.5708,518.3839,494.8451,519.037,493.8982,520,493.2612,520.1305,493.3917,520.6514,493.9126,521.5534,494.8145,522.5018,495.763,523.1798,496.4409,524,497.2612,524.0208,497.2704,523.1903,495.4568,522.4544,493.6853,521.6728,491.8935,520.9784,490.1405,520,488.2612" style="stroke:#8B0000;stroke-width:4.0;"/><polygon fill="#8B0000" points="520,541.3493,520.064,541.3777,520.6738,539.4932,521.6589,537.7755,522.5217,536.0034,522.9827,534.0527,524,532.3493,523.9817,532.331,523.0995,533.0488,522.3096,533.8589,521.5839,534.7332,520.637,535.3863,520,536.3493,520.1305,536.4798,519.0514,535.4007,518.3534,534.7027,517.7018,534.0511,516.7798,533.1291,516,532.3493,516.0208,532.3585,516.7903,534.145,517.6544,535.9735,518.4728,537.7817,519.3784,539.6286,520,541.3493" style="stroke:#8B0000;stroke-width:4.0;"/></g><!--link i3 to api2--><g id="link_i3_api2"><path d="M532.33,311.4012 L532.6093,311.4243 L530.962,321.244 L530.9518,331.1991 L530.4086,341.1101 L528.112,350.8761 L528.1392,360.8343 L526.8583,370.6843 L526.0979,380.5774 L525.6994,390.5003 L524.0538,400.3202 L524.8907,410.3453 L522.5,420.1036 L522.52,430.0612 " fill="none" style="stroke:#8B0000;stroke-width:4.0;"/><polygon fill="#8B0000" points="522.04,434.7912,522.1014,434.8248,522.8652,432.9972,523.9891,431.367,524.9958,429.6725,525.6167,427.7666,526.7715,426.1533,526.7548,426.1335,525.8162,426.7758,524.9619,427.5178,524.1664,428.329,523.1686,428.9014,522.454,429.8083,522.5949,429.9276,521.5627,428.8091,520.9417,428.0387,520.3709,427.3109,519.5082,426.3359,518.799,425.4908,518.8205,425.4983,519.4372,427.3474,520.1516,429.2305,520.8189,431.0973,521.5762,432.9953,522.04,434.7912" style="stroke:#8B0000;stroke-width:4.0;"/><text fill="#000000" font-family="Chalkduster" font-size="24" lengthAdjust="spacing" textLength="81" x="548" y="367.992">Index</text><text fill="#000000" font-family="Chalkduster" font-size="24" lengthAdjust="spacing" textLength="129" x="530" y="398.6219">Storage 3</text></g><!--SRC=[RLF1JkCm4BtxAsPp0ecKGlPKLPL2Ua5YHQ6t5H9ouw5OE7RMdj16gF- -uwIXMHOVd8dzvirxC_8FRKlJA7okf6rXChbKacJAFtAB5LfA0xK69xGdGPeCpc3907ZHLicDDffQs5r2wQfQ6rJ0nxZ783oM9EtM82Hv4qYQDpXxSHvmBwlQu7a280D8Nxx2VEwnTa6Jy-rY0Hz2G5mZXZK7Ide5TqjPvB36Bc_bFFCcaQVEFleaNb7_HWPEkurQPayMhYwkBpBusK5rrY4FGfo0gsPZT0cFB0FES0k_qJhbM6FFEbBIruIS61nukqyBBma7v8co61ho2qd6O-ZKT1B27suR3aOF_zczqzjNsc7SEpcnuG69y7piMOLZqS7FyJCY7N4MF0HNzI9WNNfTKw-b2__H8hxcvcM98K3XB7bdegbyTTjborfVYq72oVmmyPp7fD-vNskUBVRrEChWDArHcQlaszFfT9eSnHq4cqwLszbqCNHnrdiIHoF3RLJ6TmyD-XQaCP7IUHK-SJqm7HFTDDeeg8Q1BMz4npB_h1Yr2w6phrNwhZxPQ9EV3J18YBy0]--></g></svg>