<?xml version="1.0" encoding="us-ascii" standalone="no"?><svg xmlns="http://www.w3.org/2000/svg" xmlns:xlink="http://www.w3.org/1999/xlink" contentStyleType="text/css" height="763px" preserveAspectRatio="none" style="width:1399px;height:763px;background:#FFFFFF;" version="1.1" viewBox="0 0 1399 763" width="1399px" zoomAndPan="magnify"><defs/><g><text fill="#000000" font-family="Chalkduster" font-size="42" font-weight="bold" lengthAdjust="spacing" textLength="910" x="237.5" y="51.7215">Data findability w/ compiled indexes</text><!--cluster p3--><g id="cluster_p3"><polygon fill="none" points="9.5,163.7822,9.5,163.9924,19.5465,163.3679,29.593,163.9755,39.6395,164.1819,49.686,163.0688,59.7326,163.7045,69.7791,163.3557,79.8256,163.3987,89.8721,163.7141,99.9186,163.0908,109.9651,164.3359,120.0116,163.1519,130.0581,163.5844,140.1047,164.2142,150.1512,163.6964,160.1977,163.8504,170.2442,163.7503,180.2907,163.9607,190.3372,164.0213,200.3837,164.3679,210.4302,164.4533,220.4767,164.4615,230.5233,164.0368,240.5698,164.2458,250.6163,164.4844,260.6628,163.061,270.7093,164.4607,280.7558,163.4857,290.8023,164.316,300.8488,163.2872,310.8953,163.7137,320.9419,164.5238,330.9884,163.7335,341.0349,163.8875,351.0814,164.1208,361.1279,164.1984,371.1744,163.7783,381.2209,164.0694,391.2674,163.2098,401.314,164.0666,411.3605,164.3304,421.407,164.2267,431.4535,164.3952,441.5,163.7822,441.4384,163.6334,441.7704,163.7278,442.1278,163.8837,442.5531,164.2034,442.8891,164.3075,443.2678,164.5144,443.4776,164.6014,443.3604,164.8457,443.455,165.1778,443.7774,165.6042,443.6482,165.8436,444,166.2822,443.4809,166.2822,444.649,176.2995,444.4357,186.3169,444.7345,196.3342,443.6782,206.3515,444.3192,216.3689,444.5904,226.3862,443.5276,236.4035,443.9041,246.4209,444.126,256.4382,444.6518,266.4555,443.9958,276.4729,444.4626,286.4902,443.4462,296.5075,443.3227,306.5249,444,316.5422,444.1551,316.6065,443.6328,316.8043,443.8638,317.3142,443.6243,317.6292,443.3317,317.9222,443.2678,318.31,443.2226,318.201,442.9727,318.5977,442.5225,318.5107,442.2826,318.9316,441.783,318.7255,441.5,319.0422,441.5,319.6596,431.4535,319.5265,421.407,319.2872,411.3605,319.0894,401.314,319.7688,391.2674,319.6558,381.2209,319.2115,371.1744,319.3104,361.1279,318.9119,351.0814,319.7587,341.0349,319.1971,330.9884,319.2148,320.9419,318.4339,310.8953,318.637,300.8488,319.573,290.8023,319.472,280.7558,318.9993,270.7093,318.72,260.6628,318.8233,250.6163,318.356,240.5698,319.4569,230.5233,319.7818,220.4767,319.5686,210.4302,319.7371,200.3837,318.9055,190.3372,319.1294,180.2907,318.6546,170.2442,319.3263,160.1977,319.289,150.1512,319.5946,140.1047,318.8126,130.0581,318.9078,120.0116,319.4857,109.9651,319.6095,99.9186,318.5297,89.8721,318.8483,79.8256,319.1915,69.7791,318.4314,59.7326,319.3956,49.686,319.3002,39.6395,318.9415,29.593,319.1845,19.5465,319.7709,9.5,319.0422,9.4601,318.9459,9.1866,318.9928,8.8293,318.8373,8.4541,318.6385,8.1038,318.4998,7.7322,318.31,7.7672,318.3245,7.3936,317.8768,7.3159,317.5517,7.1508,317.1904,7.1661,316.9039,7,316.5422,7.0881,316.5422,7.1617,306.5249,6.709,296.5075,6.9325,286.4902,6.8798,276.4729,7.5769,266.4555,7.4266,256.4382,6.5145,246.4209,6.9271,236.4035,6.4228,226.3862,7.2884,216.3689,7.6085,206.3515,7.5446,196.3342,6.5644,186.3169,7.464,176.2995,7,166.2822,6.7712,166.1875,7.2081,165.9542,7.2007,165.5369,7.4691,165.2339,7.6598,164.8987,7.7322,164.5144,7.7925,164.6598,7.994,164.1463,8.5,164.368,8.8156,164.13,9.1918,164.0381,9.5,163.7822" style="stroke:#181818;stroke-width:4.0;"/><text fill="#000000" font-family="Chalkduster" font-size="24" font-weight="bold" lengthAdjust="spacing" textLength="421" x="15" y="189.6231">Standard LDaCA Search Portal</text></g><!--cluster Public Repo (eg Zenodo)--><g id="cluster_Public Repo (eg Zenodo)"><path d="M828,90.6022 L828,90.6022 L828.025,90.6922 L830.3313,89.7646 L832.7839,89.3647 L835.1889,88.7929 L837.4371,87.6561 L839.9023,87.3014 L839.899,87.2671 L842.616,86.8457 L845.35,86.5976 L848.0958,86.47 L850.801,85.9273 L853.563,85.966 L853.5789,86.2115 L857.0886,85.4574 L860.6446,85.4203 L864.2063,85.4705 L867.7351,85.0119 L871.2813,84.821 L871.2827,84.8513 L875.4735,84.6129 L879.6707,84.5125 L883.8648,84.3456 L888.0648,84.3056 L892.2456,83.8517 L892.2559,84.1498 L896.9358,83.9918 L901.6091,83.6416 L906.2921,83.5728 L910.9755,83.5172 L915.6445,83.0436 L915.6361,82.7232 L920.6569,83.2127 L925.6498,82.6472 L930.664,82.8838 L935.6563,82.2944 L940.6665,82.382 L940.6659,82.3516 L945.84,82.6056 L950.9995,82.1484 L956.1676,82.1109 L961.3364,82.1086 L966.5,81.8522 L966.5079,82.4071 L976.671,81.7025 L986.8476,81.9461 L997.0024,80.6555 L1007.1898,81.6532 L1017.3555,81.1296 L1017.3575,81.3732 L1026.2298,81.2529 L1035.1031,81.2536 L1043.9716,80.6922 L1052.8437,80.5428 L1061.7188,80.7585 L1061.7178,80.4823 L1070.3749,80.701 L1079.0309,80.6086 L1087.6886,80.9676 L1096.3435,80.5558 L1105,80.6022 L1105,80.6022 L1104.9994,80.4497 L1113.6566,80.7349 L1122.3114,80.3683 L1130.9679,80.4652 L1139.626,81.0156 L1148.2813,80.7585 L1148.2829,80.9521 L1157.1566,81.1591 L1166.0254,80.7639 L1174.9004,81.123 L1183.7741,81.3177 L1192.6445,81.1296 L1192.6356,80.4997 L1202.8138,81.1463 L1212.9891,81.5866 L1223.1702,82.4321 L1233.3288,81.7021 L1243.5,81.8522 L1243.5042,82.0578 L1248.6617,81.7121 L1253.8272,81.7632 L1259.0047,82.3939 L1264.1603,81.9575 L1269.3335,82.382 L1269.3395,82.6081 L1274.3403,82.6061 L1279.3391,82.5276 L1284.3425,82.6218 L1289.3565,83.1151 L1294.3555,83.0436 L1294.3509,82.9107 L1299.0443,83.4681 L1303.7066,83.1213 L1308.4043,83.8027 L1313.082,83.9052 L1317.7544,83.8517 L1317.7594,83.9605 L1321.9482,84.0665 L1326.1551,84.562 L1330.3456,84.7057 L1334.5294,84.7023 L1338.7188,84.821 L1338.7264,84.9399 L1342.2587,84.9922 L1345.8266,85.5967 L1349.3541,85.5767 L1352.8983,85.8135 L1356.437,85.966 L1356.4107,85.6969 L1359.1516,86.0538 L1361.9242,86.7349 L1364.652,86.9573 L1367.3637,87.0153 L1370.0977,87.3014 L1370.0594,87.1635 L1372.4521,87.8678 L1374.7771,88.3279 L1377.2883,89.4595 L1379.7074,90.2588 L1382,90.6022 L1383.4037,90.6022 L1383.8532,100.5341 L1381.6354,110.4659 L1382.2326,120.3978 L1380.9664,130.3297 L1382.7574,140.2615 L1382.658,150.1934 L1383.473,160.1252 L1381.3876,170.0571 L1381.6416,179.989 L1383.1826,189.9208 L1383.5129,199.8527 L1380.6332,209.7845 L1381.483,219.7164 L1382.398,229.6483 L1380.3711,239.5801 L1382.9424,249.512 L1382.688,259.4438 L1381.7313,269.3757 L1382.3793,279.3076 L1383.9431,289.2394 L1381.1657,299.1713 L1382.84,309.1031 L1382.7617,319.035 L1382.3087,328.9669 L1382.3758,338.8987 L1382.3026,348.8306 L1380.3356,358.7624 L1380.9312,368.6943 L1380.7692,378.6262 L1382.1702,388.558 L1382.235,398.4899 L1382.4313,408.4217 L1381.2241,418.3536 L1381.82,428.2855 L1381.6794,438.2173 L1383.5383,448.1492 L1383.1375,458.081 L1380.7052,468.0129 L1381.8055,477.9448 L1380.4607,487.8766 L1382.769,497.8085 L1383.6226,507.7404 L1382,517.6722 L1382,517.6722 L1382.0647,517.9054 L1379.5678,518.1458 L1377.2942,519.1912 L1374.7704,519.3345 L1372.5019,520.3986 L1370.0977,520.973 L1370.0847,520.8406 L1367.3697,521.2829 L1364.6438,521.6135 L1361.9217,521.9831 L1359.138,521.7229 L1356.437,522.3084 L1356.4506,522.5193 L1352.8985,522.6165 L1349.3599,522.924 L1345.8275,523.3271 L1342.2626,523.2269 L1338.7188,523.4535 L1338.7223,523.5313 L1334.5303,523.7421 L1330.3371,523.9287 L1326.1401,524.0346 L1321.9619,524.5444 L1317.7544,524.4227 L1317.745,524.1519 L1313.0833,524.8354 L1308.3853,524.4688 L1303.7068,524.6676 L1299.0359,525.087 L1294.3555,525.2308 L1294.3558,525.2434 L1289.3453,525.1442 L1284.3515,525.6793 L1279.3436,525.6761 L1274.3464,526.0829 L1269.3335,525.8924 L1269.3396,526.1889 L1264.1627,525.7992 L1258.9965,525.9275 L1253.8322,526.1529 L1248.6699,526.4742 L1243.5,526.4222 L1243.5076,526.9595 L1233.3346,526.9682 L1223.1513,526.2554 L1212.9988,527.7042 L1202.8276,527.8453 L1192.6445,527.1449 L1192.6444,527.1239 L1183.771,527.1128 L1174.8977,527.1149 L1166.0258,527.2722 L1157.1544,527.5028 L1148.2813,527.516 L1148.2811,527.4856 L1139.6243,527.3615 L1130.9695,527.7951 L1122.3118,527.4057 L1113.6571,527.8642 L1105,527.6722 L1105,527.6722 L1105.0007,527.8621 L1096.3443,527.8062 L1087.6886,527.9175 L1079.0309,527.4692 L1070.3745,527.4136 L1061.7188,527.516 L1061.7207,527.7466 L1052.8439,527.1765 L1043.9726,527.2635 L1035.1012,527.3446 L1026.2284,527.2496 L1017.3555,527.1449 L1017.3487,526.667 L1007.1836,526.943 L997.0274,527.8485 L986.8545,527.5758 L976.6598,525.7718 L966.5,526.4222 L966.5007,526.4571 L961.3286,526.0879 L956.1664,526.1986 L951.0026,526.2345 L945.837,526.185 L940.6665,525.8924 L940.6587,525.5971 L935.6668,525.9381 L930.6578,525.6315 L925.6468,525.2487 L920.6434,525.1538 L915.6445,525.2308 L915.6495,525.3759 L910.9686,525.1802 L906.2847,524.9003 L901.5949,524.4474 L896.9355,524.8767 L892.2456,524.4227 L892.2392,524.2843 L888.0419,523.9944 L883.8585,524.0051 L879.6791,524.103 L875.4868,523.9205 L871.2813,523.4535 L871.2823,523.469 L867.7333,523.1574 L864.1988,523.0708 L860.6556,522.849 L857.0921,522.3122 L853.563,522.3084 L853.5809,522.4915 L850.855,522.2885 L848.0894,521.6788 L845.348,521.3173 L842.6636,521.5385 L839.9023,520.973 L839.9048,520.982 L837.5219,520.3128 L835.1769,519.7807 L832.6842,518.716 L830.4434,518.5593 L828,517.6722 L827.9588,517.6722 L829.7835,507.7404 L827.4244,497.8085 L829.0907,487.8766 L826.816,477.9448 L828.6534,468.0129 L829.0114,458.081 L827.1271,448.1492 L828.968,438.2173 L826.4762,428.2855 L826.7454,418.3536 L829.8209,408.4217 L829.825,398.4899 L829.516,388.558 L827.039,378.6262 L829.0246,368.6943 L826.7412,358.7624 L828.1551,348.8306 L827.9967,338.8987 L827.3002,328.9669 L829.6424,319.035 L829.1821,309.1031 L827.1447,299.1713 L829.4043,289.2394 L828.245,279.3076 L826.4438,269.3757 L827.3778,259.4438 L826.5993,249.512 L827.6291,239.5801 L826.3227,229.6483 L826.3996,219.7164 L828.1875,209.7845 L827.679,199.8527 L827.8438,189.9208 L827.6181,179.989 L828.4462,170.0571 L826.5198,160.1252 L828.4268,150.1934 L826.0183,140.2615 L828.7893,130.3297 L829.5807,120.3978 L829.3922,110.4659 L828.9635,100.5341 L828,90.6022 " fill="#98FB98" style="stroke:#181818;stroke-width:4.0;"/><path d="M828,90.6022 L828,90.6022 L828.025,90.6922 L830.3313,91.0849 L832.7839,92.0053 L835.1889,92.7539 L837.4371,92.9373 L839.9023,93.903 L839.899,93.8686 L842.616,93.9814 L845.35,94.2675 L848.0958,94.6741 L850.801,94.6655 L853.563,95.2384 L853.5789,95.484 L857.0886,95.1879 L860.6446,95.6087 L864.2063,96.117 L867.7351,96.1164 L871.2813,96.3835 L871.2827,96.4138 L875.4735,96.5631 L879.6707,96.8504 L883.8648,97.0712 L888.0648,97.4189 L892.2456,97.3527 L892.2559,97.6508 L896.9358,97.816 L901.6091,97.789 L906.2921,98.0435 L910.9755,98.3111 L915.6445,98.1608 L915.6361,97.8404 L920.6569,98.5946 L925.6498,98.2937 L930.664,98.7949 L935.6563,98.4702 L940.6665,98.8224 L940.6659,98.792 L945.84,99.2579 L950.9995,99.0127 L956.1676,99.1871 L961.3364,99.3967 L966.5,99.3522 L966.5079,99.9071 L976.671,99.4915 L986.8476,100.0242 L997.0024,99.0227 L1007.1898,100.3095 L1017.3555,100.0749 L1017.3575,100.3185 L1026.2298,100.3466 L1035.1031,100.4958 L1043.9716,100.0828 L1052.8437,100.0819 L1061.7188,100.446 L1061.7178,100.1698 L1070.3749,100.451 L1079.0309,100.4211 L1087.6886,100.8426 L1096.3435,100.4933 L1105,100.6022 L1105,100.6022 L1104.9994,100.4497 L1113.6566,100.6724 L1122.3114,100.2433 L1130.9679,100.2777 L1139.626,100.7656 L1148.2813,100.446 L1148.2829,100.6396 L1157.1566,100.6982 L1166.0254,100.1545 L1174.9004,100.3652 L1183.7741,100.4115 L1192.6445,100.0749 L1192.6356,99.4451 L1202.8138,99.8025 L1212.9891,99.9538 L1223.1702,100.5102 L1233.3288,99.4912 L1243.5,99.3522 L1243.5042,99.5578 L1248.6617,99.0002 L1253.8272,98.8394 L1259.0047,99.2581 L1264.1603,98.6098 L1269.3335,98.8224 L1269.3395,99.0486 L1274.3403,98.7819 L1279.3391,98.4387 L1284.3425,98.2683 L1289.3565,98.497 L1294.3555,98.1608 L1294.3509,98.0278 L1299.0443,98.2621 L1303.7066,97.592 L1308.4043,97.9502 L1313.082,97.7294 L1317.7544,97.3527 L1317.7594,97.4615 L1321.9482,97.1798 L1326.1551,97.2876 L1330.3456,97.0436 L1334.5294,96.6525 L1338.7188,96.3835 L1338.7264,96.5024 L1342.2587,96.0967 L1345.8266,96.2432 L1349.3541,95.7651 L1352.8983,95.544 L1356.437,95.2384 L1356.4107,94.9693 L1359.1516,94.7921 L1361.9242,94.939 L1364.652,94.6273 L1367.3637,94.1511 L1370.0977,93.903 L1370.0594,93.765 L1372.4521,93.1491 L1374.7771,92.2888 L1377.2883,92.1001 L1379.7074,91.5791 L1382,90.6022 " fill="none" style="stroke:#181818;stroke-width:4.0;"/><text fill="#000000" font-family="Chalkduster" font-size="24" font-style="italic" lengthAdjust="spacing" textLength="169" x="1020.5" y="126.4431">&#171;repository&#187;</text><text fill="#000000" font-family="Chalkduster" font-size="24" font-weight="bold" lengthAdjust="spacing" textLength="343" x="933.5" y="157.0729">Public Repo (eg Zenodo)</text></g><!--cluster Portal At Rest RO-Crate--><g id="cluster_Portal At Rest RO-Crate"><polygon fill="none" points="854.5,183.6022,854.5,183.8124,864.52,183.1879,874.54,183.7955,884.56,184.0019,894.58,182.8888,904.6,183.5245,914.62,183.1757,924.64,183.2187,934.66,183.5341,944.68,182.9108,954.7,184.1559,964.72,182.9719,974.74,183.4044,984.76,184.0342,994.78,183.5164,1004.8,183.6704,1014.82,183.5703,1024.84,183.7807,1034.86,183.8413,1044.88,184.1879,1054.9,184.2733,1064.92,184.2815,1074.94,183.8568,1084.96,184.0658,1094.98,184.3044,1105,182.881,1115.02,184.2807,1125.04,183.3057,1135.06,184.136,1145.08,183.1072,1155.1,183.5337,1165.12,184.3438,1175.14,183.5535,1185.16,183.7075,1195.18,183.9408,1205.2,184.0184,1215.22,183.5983,1225.24,183.8894,1235.26,183.0298,1245.28,183.8866,1255.3,184.1504,1265.32,184.0467,1275.34,184.2152,1285.36,183.1191,1295.38,182.95,1305.4,182.9808,1315.42,183.5433,1325.44,183.4057,1335.46,184.2836,1345.48,183.4275,1355.5,183.6022,1355.4562,183.4966,1355.8827,183.819,1356.122,183.6897,1356.4944,183.8817,1356.997,184.3878,1357.2678,184.3344,1357.4019,184.39,1357.6404,184.7817,1357.4616,185.0005,1357.8054,185.4358,1358.0354,185.824,1358,186.1022,1357.5276,186.1022,1357.9041,195.9481,1358.126,205.7941,1358.6518,215.64,1357.9958,225.486,1358.4626,235.3319,1357.4462,245.1778,1357.3227,255.0238,1358.5036,264.8697,1357.2831,274.7156,1358.509,284.5616,1358.2066,294.4075,1357.7321,304.2535,1357.6462,314.0994,1358.4588,323.9453,1357.7007,333.7913,1358.5919,343.6372,1357.4473,353.4831,1358.6174,363.3291,1358.4843,373.175,1358.245,383.021,1358.0472,392.8669,1358.7266,402.7128,1358.6136,412.5588,1358.1693,422.4047,1358.2682,432.2506,1357.8697,442.0966,1358.7165,451.9425,1358.1549,461.7885,1358.1726,471.6344,1357.3916,481.4803,1357.5948,491.3263,1358,501.1722,1358.1634,501.2399,1357.9859,501.5806,1357.6939,501.8738,1357.4614,502.1918,1357.3468,502.5585,1357.2678,502.94,1357.1802,502.7287,1356.9671,503.2141,1356.655,503.4606,1356.2743,503.5414,1355.9422,503.7398,1355.5,503.6722,1355.5,503.5355,1345.48,503.7594,1335.46,503.2846,1325.44,503.9563,1315.42,503.919,1305.4,504.2246,1295.38,503.4426,1285.36,503.5378,1275.34,504.1157,1265.32,504.2395,1255.3,503.1597,1245.28,503.4783,1235.26,503.8215,1225.24,503.0614,1215.22,504.0256,1205.2,503.9302,1195.18,503.5715,1185.16,503.8145,1175.14,504.4009,1165.12,503.3593,1155.1,503.9872,1145.08,503.9579,1135.06,503.788,1125.04,503.8131,1115.02,503.7857,1105,503.0481,1094.98,503.2714,1084.96,503.2107,1074.94,503.736,1064.92,503.7603,1054.9,503.834,1044.88,503.3812,1034.86,503.6047,1024.84,503.552,1014.82,504.2491,1004.8,504.0988,994.78,503.1867,984.76,503.5993,974.74,503.095,964.72,503.9606,954.7,504.2807,944.68,504.2168,934.66,503.2367,924.64,504.1362,914.62,502.9294,904.6,503.8724,894.58,503.3729,884.56,503.7689,874.54,503.9125,864.52,504.1443,854.5,503.6722,854.4082,503.4505,854.2071,503.6722,853.8156,503.4342,853.4847,503.3423,853.1812,503.3167,852.7322,502.94,852.7339,502.9407,852.6398,502.6088,852.5051,502.2601,852.3536,501.9045,852.1462,501.5257,852,501.1722,852.7107,501.1722,851.3903,491.3263,852.5653,481.4803,851.376,471.6344,851.4597,461.7885,852.04,451.9425,852.0283,442.0966,851.5072,432.2506,852.4137,422.4047,852.1089,412.5588,852.7267,402.7128,852.6671,392.8669,851.5517,383.021,851.6021,373.175,851.8708,363.3291,852.3555,353.4831,852.403,343.6372,852.3012,333.7913,851.658,323.9453,852.6364,314.0994,852.6338,304.2535,851.9527,294.4075,851.7609,284.5616,851.5986,274.7156,851.7854,264.8697,852.1374,255.0238,851.9316,245.1778,851.5822,235.3319,852.4874,225.486,851.5411,215.64,852.5024,205.7941,852.4272,195.9481,852,186.1022,852.1145,186.1496,852.3597,185.837,852.2172,185.3637,852.3468,185.0032,852.7456,184.7542,852.7322,184.3344,852.6561,184.1506,853.0559,184.1159,853.4541,184.0771,853.8017,183.9163,854.1007,183.6383,854.5,183.6022" style="stroke:#181818;stroke-width:4.0;"/><text fill="#000000" font-family="Chalkduster" font-size="24" font-weight="bold" lengthAdjust="spacing" textLength="334" x="938" y="209.4431">Portal At Rest RO-Crate</text></g><!--cluster stor3--><g id="cluster_stor3"><path d="M272,578.6722 L272,578.6722 L272.0261,578.7619 L274.2129,577.8353 L276.5529,577.4344 L278.8431,576.8623 L280.9691,575.7272 L283.3223,575.3714 L283.3187,575.3371 L285.9019,574.9158 L288.5028,574.6677 L291.1161,574.54 L293.6868,573.9974 L296.3171,574.036 L296.3338,574.2815 L299.6691,573.5275 L303.0531,573.4903 L306.443,573.5405 L309.7983,573.0819 L313.1719,572.891 L313.1733,572.9213 L317.1597,572.6829 L321.1528,572.5825 L325.1426,572.4156 L329.1386,572.3756 L333.1145,571.9217 L333.1253,572.2198 L337.5772,572.0618 L342.022,571.7116 L346.4771,571.6428 L350.9327,571.5871 L355.373,571.1136 L355.3641,570.7932 L360.1419,571.2827 L364.8904,570.7172 L369.6611,570.9538 L374.4089,570.3644 L379.1755,570.452 L379.1749,570.4216 L384.0975,570.6756 L389.0049,570.2184 L393.9212,570.1809 L398.8384,570.1786 L403.75,569.9222 L403.7583,570.4771 L413.4253,569.7725 L423.1065,570.0161 L432.7648,568.7255 L442.4572,569.7232 L452.127,569.1996 L452.1291,569.4432 L460.5689,569.3229 L469.0098,569.3236 L477.4458,568.7622 L485.8853,568.6128 L494.3281,568.8285 L494.3271,568.5523 L502.5624,568.771 L510.7965,568.6786 L519.0324,569.0376 L527.2653,568.6258 L535.5,568.6722 L535.5,568.6722 L535.4994,568.5197 L543.7348,568.8049 L551.9676,568.4383 L560.2022,568.5352 L568.4386,569.0856 L576.6719,568.8285 L576.6736,569.0221 L585.115,569.2291 L593.5511,568.8339 L601.9938,569.193 L610.4351,569.3877 L618.873,569.1996 L618.8636,568.5698 L628.5465,569.2163 L638.2263,569.6566 L647.9122,570.5021 L657.5745,569.7721 L667.25,569.9222 L667.2544,570.1277 L672.1596,569.7821 L677.0733,569.8332 L681.9995,570.4639 L686.9027,570.0275 L691.8245,570.452 L691.8307,570.6781 L696.5875,570.6761 L701.3422,570.5976 L706.1016,570.6918 L710.8721,571.1851 L715.627,571.1136 L715.6221,570.9807 L720.0882,571.5381 L724.5215,571.1914 L728.992,571.8727 L733.4416,571.9752 L737.8855,571.9217 L737.8908,572.0305 L741.875,572.1365 L745.8782,572.632 L749.8643,572.7756 L753.8433,572.7722 L757.8281,572.891 L757.8362,573.0099 L761.1951,573.0622 L764.5916,573.6667 L767.9456,573.6466 L771.3171,573.8835 L774.6829,574.036 L774.6552,573.767 L777.2634,574.1239 L779.9049,574.8048 L782.4993,575.0273 L785.0768,575.0854 L787.6777,575.3714 L787.6377,575.234 L789.915,575.9382 L792.1213,576.399 L794.5227,577.5289 L796.8275,578.3276 L799,578.6722 L800.4037,578.6722 L800.8532,588.5241 L798.6354,598.376 L799.2326,608.2278 L797.9664,618.0797 L799.7574,627.9316 L799.658,637.7835 L800.473,647.6353 L798.3876,657.4872 L798.6416,667.3391 L800.1826,677.191 L800.5129,687.0428 L797.6332,696.8947 L798.483,706.7466 L799.398,716.5985 L797.3711,726.4503 L799,736.3022 L799,736.3022 L799.044,736.453 L796.7676,737.0724 L794.4586,737.5795 L792.2243,738.3434 L790.0328,739.2537 L787.6777,739.603 L787.6635,739.4647 L785.0931,740.0093 L782.4928,740.2635 L779.8861,740.4554 L777.2882,740.7337 L774.6829,740.9384 L774.6863,740.9888 L771.2931,740.8907 L767.9289,741.2187 L764.5561,741.4208 L761.201,741.8828 L757.8281,742.0835 L757.83,742.1226 L753.8431,742.3491 L749.8448,742.342 L745.8611,742.635 L741.8714,742.8055 L737.8855,743.0527 L737.8948,743.3089 L733.4407,743.4038 L728.9743,743.1603 L724.5292,743.5052 L720.0694,743.4428 L715.627,743.8608 L715.6305,743.9889 L710.874,744.2635 L706.1127,744.3674 L701.3401,744.0643 L696.5907,744.5962 L691.8245,744.5224 L691.8173,744.1924 L686.9115,744.7173 L681.9918,744.6013 L677.0807,744.8833 L672.1672,745.053 L667.25,745.0522 L667.2594,745.6816 L657.5603,744.237 L647.9087,745.9752 L638.2274,745.7233 L628.5555,746.1041 L618.873,745.7749 L618.876,746.1072 L610.4328,745.8515 L601.9933,746.0012 L593.5532,746.0924 L585.1129,746.1594 L576.6719,746.146 L576.6719,746.1456 L568.4387,746.4931 L560.2021,745.9375 L551.9697,746.4909 L543.7333,745.9936 L535.5,746.3022 L535.5,746.3022 L535.4991,746.0621 L527.2657,746.2887 L519.0313,746.2523 L510.796,745.9894 L502.5632,746.3611 L494.3281,746.146 L494.3286,746.1943 L485.8907,746.3947 L477.4503,746.294 L469.0057,745.7241 L460.5656,745.6722 L452.127,745.7749 L452.1244,745.6027 L442.4586,746.1043 L432.7842,746.0231 L423.1068,745.7428 L413.4186,744.7409 L403.75,745.0522 L403.7561,745.335 L398.8412,745.2279 L393.9198,744.8193 L389.003,744.6281 L384.0866,744.45 L379.1755,744.5224 L379.1729,744.4271 L374.4167,744.4512 L369.6537,744.2274 L364.8889,743.9398 L360.1396,744.2097 L355.373,743.8608 L355.3656,743.657 L350.9294,743.9223 L346.4765,743.7273 L342.0239,743.5411 L337.5774,743.5219 L333.1145,743.0527 L333.1092,742.9435 L329.1195,742.7254 L325.1486,742.8953 L321.136,742.2062 L317.1554,742.1734 L313.1719,742.0835 L313.1754,742.1347 L309.803,741.8849 L306.4192,741.4665 L303.0577,741.3774 L299.7105,741.4976 L296.3171,740.9384 L296.3466,741.2251 L293.6911,740.4077 L291.1228,740.439 L288.4969,739.91 L285.92,739.8584 L283.3223,739.603 L283.3587,739.728 L281.11,739.122 L278.7107,737.9991 L276.5787,737.7934 L274.2655,736.966 L272,736.3022 L270.5191,736.3022 L270.7439,726.4503 L272.8709,716.5985 L272.6663,706.7466 L271.9561,696.8947 L270.2077,687.0428 L273.755,677.191 L271.1684,667.3391 L270.5918,657.4872 L271.8205,647.6353 L273.5726,637.7835 L273.6411,627.9316 L272.0937,618.0797 L271.5969,608.2278 L272.4528,598.376 L272.4966,588.5241 L272,578.6722 " fill="#98FB98" style="stroke:#181818;stroke-width:4.0;"/><path d="M272,578.6722 L272,578.6722 L272.0261,578.7619 L274.2129,579.1556 L276.5529,580.075 L278.8431,580.8232 L280.9691,581.0084 L283.3223,581.973 L283.3187,581.9386 L285.9019,582.0515 L288.5028,582.3376 L291.1161,582.7441 L293.6868,582.7357 L296.3171,583.3084 L296.3338,583.5539 L299.6691,583.258 L303.0531,583.6788 L306.443,584.187 L309.7983,584.1864 L313.1719,584.4535 L313.1733,584.4838 L317.1597,584.6331 L321.1528,584.9204 L325.1426,585.1412 L329.1386,585.4889 L333.1145,585.4227 L333.1253,585.7207 L337.5772,585.886 L342.022,585.859 L346.4771,586.1135 L350.9327,586.3811 L355.373,586.2308 L355.3641,585.9104 L360.1419,586.6646 L364.8904,586.3637 L369.6611,586.8649 L374.4089,586.5402 L379.1755,586.8924 L379.1749,586.862 L384.0975,587.3279 L389.0049,587.0827 L393.9212,587.2571 L398.8384,587.4667 L403.75,587.4222 L403.7583,587.9771 L413.4253,587.5615 L423.1065,588.0942 L432.7648,587.0927 L442.4572,588.3795 L452.127,588.1449 L452.1291,588.3885 L460.5689,588.4166 L469.0098,588.5657 L477.4458,588.1528 L485.8853,588.1519 L494.3281,588.516 L494.3271,588.2398 L502.5624,588.521 L510.7965,588.4911 L519.0324,588.9126 L527.2653,588.5633 L535.5,588.6722 L535.5,588.6722 L535.4994,588.5197 L543.7348,588.7424 L551.9676,588.3133 L560.2022,588.3477 L568.4386,588.8356 L576.6719,588.516 L576.6736,588.7096 L585.115,588.7682 L593.5511,588.2245 L601.9938,588.4352 L610.4351,588.4815 L618.873,588.1449 L618.8636,587.5151 L628.5465,587.8725 L638.2263,588.0238 L647.9122,588.5802 L657.5745,587.5612 L667.25,587.4222 L667.2544,587.6277 L672.1596,587.0702 L677.0733,586.9094 L681.9995,587.3281 L686.9027,586.6798 L691.8245,586.8924 L691.8307,587.1185 L696.5875,586.8519 L701.3422,586.5087 L706.1016,586.3383 L710.8721,586.5669 L715.627,586.2308 L715.6221,586.0979 L720.0882,586.3321 L724.5215,585.6621 L728.992,586.0202 L733.4416,585.7994 L737.8855,585.4227 L737.8908,585.5314 L741.875,585.2498 L745.8782,585.3576 L749.8643,585.1135 L753.8433,584.7224 L757.8281,584.4535 L757.8362,584.5724 L761.1951,584.1667 L764.5916,584.3131 L767.9456,583.8351 L771.3171,583.614 L774.6829,583.3084 L774.6552,583.0395 L777.2634,582.8622 L779.9049,583.0089 L782.4993,582.6972 L785.0768,582.2211 L787.6777,581.973 L787.6377,581.8355 L789.915,581.2194 L792.1213,580.3599 L794.5227,580.1695 L796.8275,579.6479 L799,578.6722 " fill="none" style="stroke:#181818;stroke-width:4.0;"/><text fill="#000000" font-family="Chalkduster" font-size="24" font-style="italic" lengthAdjust="spacing" textLength="169" x="451" y="614.5131">&#171;repository&#187;</text><text fill="#000000" font-family="Chalkduster" font-size="24" font-weight="bold" lengthAdjust="spacing" textLength="511" x="280" y="645.1429">Austalk (for example) Archival Store</text></g><!--entity i3--><g id="elem_i3"><path d="M285,222.7822 L285,222.7822 L285.0479,222.8624 L286.8431,221.4678 L288.919,220.5435 L290.9035,219.466 L292.5875,217.8849 L294.6875,217.001 L294.6814,216.967 L296.64,216.4589 L298.6293,216.1222 L300.64,215.9047 L302.5771,215.2766 L304.6172,215.2236 L304.6428,215.4683 L306.8646,214.7067 L309.1612,214.6596 L311.4669,214.6997 L313.7195,214.2326 L316,214.0322 L316.0019,214.0625 L318.2757,213.8735 L320.5582,213.8223 L322.8364,213.7047 L325.1227,213.7139 L327.3828,213.3096 L327.394,213.6076 L329.38,213.537 L331.3589,213.2742 L333.3483,213.2928 L335.3382,213.3246 L337.3125,212.9385 L337.3073,212.618 L339.2549,213.2087 L341.1854,212.7442 L343.1288,213.0819 L345.059,212.5935 L347,212.7822 L347,212.7822 L346.9995,212.7518 L348.9428,213.143 L350.8747,212.8231 L352.8133,212.9228 L354.7524,213.0577 L356.6875,212.9385 L356.6944,213.1233 L358.6734,213.0109 L360.6641,213.2145 L362.6358,212.9069 L364.636,213.3616 L366.6172,213.3096 L366.6326,213.5527 L368.9063,213.6513 L371.1876,213.8705 L373.4333,213.5289 L375.7051,213.5984 L378,214.0322 L377.9713,213.7575 L380.2738,214.2445 L382.544,214.4219 L384.8612,215.0483 L387.0982,214.9081 L389.3828,215.2236 L389.3559,215.0735 L391.3866,215.679 L393.3025,215.6428 L395.3,216.0629 L397.3774,216.9294 L399.3125,217.001 L399.4117,217.1672 L401.4173,218.4375 L403.1142,219.1906 L405.1977,220.5915 L407.197,221.8513 L409,222.7822 L407.7403,222.7822 L408.7444,232.8193 L409.336,242.8564 L410.738,252.8935 L408.9888,262.9306 L410.2335,272.9677 L407.5232,283.0048 L409,293.0419 L409,293.0419 L408.8457,292.7834 L407.1772,294.3903 L404.9617,295.0808 L403.3034,296.7049 L401.2971,297.7457 L399.3125,298.8231 L399.2915,298.7059 L397.2989,299.0238 L395.3765,299.7348 L393.3312,299.7586 L391.4151,300.5039 L389.3828,300.6005 L389.3572,300.3561 L387.1348,301.1117 L384.8521,301.2911 L382.5645,301.4236 L380.2787,301.5745 L378,301.7919 L378.0205,302.1142 L375.7407,302.2086 L373.4516,302.156 L371.1779,302.3444 L368.8901,302.3122 L366.6172,302.5145 L366.6291,302.8327 L364.6338,302.6575 L362.6482,302.7396 L360.6493,302.467 L358.6667,302.6314 L356.6875,302.8856 L356.6913,303.1215 L354.7531,303.1079 L352.8122,302.929 L350.8727,302.8362 L348.9359,302.9133 L347,303.0419 L347,303.0419 L346.9951,302.737 L345.0655,303.1949 L343.1303,303.308 L341.1913,303.1821 L339.255,303.2257 L337.3125,302.8856 L337.3102,302.8249 L335.328,302.8501 L333.3342,302.565 L331.3594,302.7891 L329.3728,302.6983 L327.3828,302.5145 L327.3984,302.7595 L325.0998,302.2681 L322.8259,302.1659 L320.5656,302.2776 L318.2925,302.1881 L316,301.7919 L315.9763,301.5653 L313.7145,301.4679 L311.4538,301.3813 L309.1421,300.807 L306.9101,300.995 L304.6172,300.6005 L304.6374,300.7133 L302.6234,300.2009 L300.6565,299.9518 L298.7164,299.8529 L296.6489,299.0417 L294.6875,298.8231 L294.7592,298.9433 L292.8151,297.7759 L290.8389,296.5548 L288.9071,295.4082 L286.9633,294.2414 L285,293.0419 L283.3356,293.0419 L283.9312,283.0048 L283.7692,272.9677 L285.1702,262.9306 L285.235,252.8935 L285.4313,242.8564 L284.2241,232.8193 L285,222.7822 " fill="none" style="stroke:#181818;stroke-width:4.0;"/><path d="M285,222.7822 L285,222.7822 L285.0479,222.8624 L286.8431,223.7803 L288.919,225.1685 L290.9035,226.4035 L292.5875,227.1349 L294.6875,228.5635 L294.6814,228.5295 L296.64,228.7323 L298.6293,229.1066 L300.64,229.6 L302.5771,229.6829 L304.6172,230.3408 L304.6428,230.5855 L306.8646,230.3005 L309.1612,230.7299 L311.4669,231.2466 L313.7195,231.256 L316,231.5322 L316.0019,231.5625 L318.2757,231.6626 L320.5582,231.9005 L322.8364,232.0719 L325.1227,232.3701 L327.3828,232.2549 L327.394,232.5529 L329.38,232.6308 L331.3589,232.5164 L333.3483,232.6834 L335.3382,232.8636 L337.3125,232.626 L337.3073,232.3055 L339.2549,232.9587 L341.1854,232.5567 L343.1288,232.9569 L345.059,232.531 L347,232.7822 L347,232.7822 L346.9995,232.7518 L348.9428,233.0805 L350.8747,232.6981 L352.8133,232.7353 L354.7524,232.8077 L356.6875,232.626 L356.6944,232.8108 L358.6734,232.55 L360.6641,232.6051 L362.6358,232.1491 L364.636,232.4554 L366.6172,232.2549 L366.6326,232.498 L368.9063,232.3075 L371.1876,232.2377 L373.4333,231.607 L375.7051,231.3875 L378,231.5322 L377.9713,231.2575 L380.2738,231.2679 L382.544,230.9688 L384.8612,231.1186 L387.0982,230.5019 L389.3828,230.3408 L389.3559,230.1907 L391.3866,230.0852 L393.3025,229.3381 L395.3,229.0473 L397.3774,229.2028 L399.3125,228.5635 L399.4117,228.7297 L401.4173,227.6875 L403.1142,226.1281 L405.1977,225.2165 L407.197,224.1638 L409,222.7822 " fill="none" style="stroke:#181818;stroke-width:4.0;"/><text fill="#000000" font-family="Chalkduster" font-size="24" lengthAdjust="spacing" textLength="89" x="295" y="260.6231">Index:</text><text fill="#000000" font-family="Chalkduster" font-size="24" lengthAdjust="spacing" textLength="92" x="307" y="291.2529">1,2,3 4</text></g><!--entity sqlite--><g id="elem_sqlite"><path d="M891.5,438.0422 L891.5,438.0422 L891.5349,438.1288 L893.0682,437.2113 L894.8063,436.8016 L896.4778,436.2265 L897.9299,435.1075 L899.6855,434.7414 L899.6807,434.7072 L901.5378,434.2867 L903.4195,434.0385 L905.3181,433.9102 L907.1581,433.3689 L909.0803,433.406 L909.1033,433.651 L911.4912,432.8981 L913.9462,432.8605 L916.4095,432.9101 L918.825,432.452 L921.2656,432.261 L921.2677,432.2912 L924.1482,432.0529 L927.038,431.9524 L929.9234,431.7855 L932.8173,431.7453 L935.6833,431.2917 L935.6983,431.5896 L938.9169,431.4316 L942.1258,431.0815 L945.3489,431.0126 L948.5726,430.9569 L951.7754,430.4836 L951.7631,430.1633 L955.2286,430.6526 L958.6536,430.0873 L962.1095,430.3237 L965.5335,429.7345 L968.9836,429.822 L968.9827,429.7916 L972.5467,430.0455 L976.0895,429.5884 L979.6449,429.5509 L983.2012,429.5486 L986.75,429.2922 L986.7538,429.4772 L993.7449,429.1459 L1000.7425,429.1308 L1007.7295,428.6043 L1014.7323,428.8405 L1021.7246,428.5696 L1021.7276,428.8132 L1027.829,428.6929 L1033.9318,428.6936 L1040.0279,428.1322 L1046.1289,427.9828 L1052.2344,428.1985 L1052.2329,427.9223 L1058.1874,428.141 L1064.1402,428.0486 L1070.0953,428.4076 L1076.0465,427.9958 L1082,428.0422 L1082,428.0422 L1081.9992,427.8897 L1087.9537,428.1749 L1093.9047,427.8083 L1099.8582,427.9052 L1105.814,428.4556 L1111.7656,428.1985 L1111.768,428.3921 L1117.8715,428.5991 L1123.9678,428.2039 L1130.0732,428.563 L1136.1766,428.7577 L1142.2754,428.5696 L1142.2711,428.3596 L1149.2694,428.6715 L1156.2664,428.9146 L1163.2661,429.2928 L1170.255,429.1458 L1177.25,429.2922 L1177.2561,429.4977 L1180.7959,429.1522 L1184.3476,429.2033 L1187.9165,429.8338 L1191.4536,429.3975 L1195.0164,429.822 L1195.025,430.048 L1198.4615,430.0461 L1201.8951,429.9677 L1205.3353,430.0619 L1208.7908,430.555 L1212.2246,430.4836 L1212.2179,430.3507 L1215.4562,430.908 L1218.6491,430.5615 L1221.8936,431.2425 L1225.109,431.3451 L1228.3167,431.2917 L1228.324,431.4004 L1231.2016,431.5065 L1234.1054,432.0016 L1236.9856,432.1454 L1239.8559,432.1422 L1242.7344,432.261 L1242.7455,432.3796 L1245.166,432.4323 L1247.6383,433.036 L1250.052,433.0165 L1252.4898,433.2533 L1254.9197,433.406 L1254.8816,433.1383 L1256.7733,433.4948 L1258.7108,434.1737 L1260.5834,434.3964 L1262.4328,434.4554 L1264.3145,434.7414 L1264.2609,434.6086 L1265.9152,435.3113 L1267.4746,435.7789 L1269.2947,436.8929 L1270.9858,437.6869 L1272.5,438.0422 L1272.9679,438.0422 L1273.1177,445.9682 L1272.3785,453.8941 L1272.5775,461.8201 L1272.1555,469.7461 L1272.5,477.672 L1272.5,477.672 L1272.5472,477.7891 L1270.9039,478.4339 L1269.3176,479.22 L1267.5505,479.5578 L1265.9292,480.2573 L1264.3145,480.9728 L1264.3422,481.168 L1262.471,481.4896 L1260.5245,481.2815 L1258.6655,481.6888 L1256.808,482.1069 L1254.9197,482.3083 L1254.8943,482.038 L1252.4973,482.6937 L1250.0563,482.8804 L1247.6043,482.9507 L1245.1774,483.2872 L1242.7344,483.4533 L1242.7561,483.7764 L1239.8415,483.5084 L1236.9767,483.9807 L1234.0923,484.1615 L1231.2036,484.28 L1228.3167,484.4225 L1228.3198,484.4851 L1225.1008,484.6345 L1221.8659,484.4687 L1218.6525,484.7295 L1215.4327,484.8641 L1212.2246,485.2306 L1212.2257,485.259 L1208.7845,485.4021 L1205.3441,485.5671 L1201.8947,485.4984 L1198.4569,485.7299 L1195.0164,485.8923 L1195.0148,485.8389 L1191.4707,486.2545 L1187.9155,486.2937 L1184.3501,485.9944 L1180.8023,486.2837 L1177.25,486.422 L1177.2447,486.1656 L1170.2577,486.6947 L1163.2657,486.9815 L1156.2702,487.0976 L1149.2663,486.8066 L1142.2754,487.1447 L1142.2779,487.3509 L1136.1694,486.8888 L1130.0726,487.3821 L1123.9679,487.2343 L1117.8681,487.4846 L1111.7656,487.5158 L1111.7662,487.6226 L1105.8136,487.7569 L1099.8577,487.2583 L1093.9074,487.8209 L1087.9535,487.72 L1082,487.672 L1082,487.672 L1082.0008,487.83 L1076.0486,487.9731 L1070.0938,487.612 L1064.141,487.6562 L1058.188,487.6419 L1052.2344,487.5158 L1052.2354,487.6034 L1046.1324,487.4412 L1040.0343,487.6832 L1033.9252,487.0222 L1027.8296,487.4701 L1021.7246,487.1447 L1021.7189,486.8674 L1014.7247,486.7601 L1007.7351,486.8734 L1000.7401,486.7237 L993.7404,486.3476 L986.75,486.422 L986.7555,486.6058 L983.1982,486.3644 L979.6531,486.5329 L976.099,486.4005 L972.531,485.7991 L968.9836,485.8923 L968.9768,485.7155 L965.5398,485.7026 L962.1064,485.7855 L958.6656,485.6743 L955.2222,485.4967 L951.7754,485.2306 L951.7678,485.0788 L948.5712,485.3515 L945.3527,485.1887 L942.1191,484.7248 L938.8964,484.478 L935.6833,484.4225 L935.6714,484.2445 L932.7934,484.1335 L929.9204,484.0958 L927.0307,483.8107 L924.1367,483.4619 L921.2656,483.4533 L921.2859,483.669 L918.8095,483.0212 L916.4124,483.2176 L913.9722,482.9553 L911.5328,482.7018 L909.0803,482.3083 L909.1236,482.613 L907.186,481.933 L905.3036,481.6418 L903.4759,481.7353 L901.5272,480.9773 L899.6855,480.9728 L899.6467,480.8764 L898.0676,480.3603 L896.4227,479.6808 L894.7146,478.8446 L893.13,478.3145 L891.5,477.672 L892.1619,477.672 L892.0764,469.7461 L890.97,461.8201 L891.5698,453.8941 L891.0432,445.9682 L891.5,438.0422 " fill="none" style="stroke:#181818;stroke-width:4.0;"/><path d="M891.5,438.0422 L891.5,438.0422 L891.5349,438.1288 L893.0682,438.5316 L894.8063,439.4422 L896.4778,440.1874 L897.9299,440.3888 L899.6855,441.343 L899.6807,441.3088 L901.5378,441.4224 L903.4195,441.7084 L905.3181,442.1143 L907.1581,442.1071 L909.0803,442.6784 L909.1033,442.9234 L911.4912,442.6285 L913.9462,443.0489 L916.4095,443.5566 L918.825,443.5565 L921.2656,443.8235 L921.2677,443.8537 L924.1482,444.0031 L927.038,444.2903 L929.9234,444.511 L932.8173,444.8586 L935.6833,444.7927 L935.6983,445.0906 L938.9169,445.2558 L942.1258,445.229 L945.3489,445.4833 L948.5726,445.7509 L951.7754,445.6008 L951.7631,445.2805 L955.2286,446.0345 L958.6536,445.7338 L962.1095,446.2349 L965.5335,445.9103 L968.9836,446.2624 L968.9827,446.232 L972.5467,446.6978 L976.0895,446.4527 L979.6449,446.6271 L983.2012,446.8367 L986.75,446.7922 L986.7538,446.9772 L993.7449,446.935 L1000.7425,447.2089 L1007.7295,446.9715 L1014.7323,447.4967 L1021.7246,447.5149 L1021.7276,447.7585 L1027.829,447.7866 L1033.9318,447.9357 L1040.0279,447.5228 L1046.1289,447.5219 L1052.2344,447.886 L1052.2329,447.6098 L1058.1874,447.891 L1064.1402,447.8611 L1070.0953,448.2826 L1076.0465,447.9333 L1082,448.0422 L1082,448.0422 L1081.9992,447.8897 L1087.9537,448.1124 L1093.9047,447.6833 L1099.8582,447.7177 L1105.814,448.2056 L1111.7656,447.886 L1111.768,448.0796 L1117.8715,448.1382 L1123.9678,447.5945 L1130.0732,447.8052 L1136.1766,447.8515 L1142.2754,447.5149 L1142.2711,447.305 L1149.2694,447.3277 L1156.2664,447.2818 L1163.2661,447.3709 L1170.255,446.9349 L1177.25,446.7922 L1177.2561,446.9977 L1180.7959,446.4402 L1184.3476,446.2794 L1187.9165,446.6981 L1191.4536,446.0499 L1195.0164,446.2624 L1195.025,446.4885 L1198.4615,446.2219 L1201.8951,445.8788 L1205.3353,445.7083 L1208.7908,445.9369 L1212.2246,445.6008 L1212.2179,445.4679 L1215.4562,445.7019 L1218.6491,445.0322 L1221.8936,445.39 L1225.109,445.1693 L1228.3167,444.7927 L1228.324,444.9013 L1231.2016,444.6198 L1234.1054,444.7272 L1236.9856,444.4832 L1239.8559,444.0924 L1242.7344,443.8235 L1242.7455,443.9421 L1245.166,443.5368 L1247.6383,443.6825 L1250.052,443.205 L1252.4898,442.9838 L1254.9197,442.6784 L1254.8816,442.4108 L1256.7733,442.233 L1258.7108,442.3778 L1260.5834,442.0663 L1262.4328,441.5912 L1264.3145,441.343 L1264.2609,441.2102 L1265.9152,440.5926 L1267.4746,439.7398 L1269.2947,439.5335 L1270.9858,439.0072 L1272.5,438.0422 " fill="none" style="stroke:#181818;stroke-width:4.0;"/><text fill="#000000" font-family="Chalkduster" font-size="24" lengthAdjust="spacing" textLength="361" x="901.5" y="475.8831">Compiled Metadata Index</text></g><!--entity ds--><g id="elem_ds"><polygon fill="none" points="870.5,232.6022,870.5,232.8124,880.4787,232.1879,890.4574,232.7955,900.4362,233.0019,910.4149,231.8888,920.3936,232.5245,930.3723,232.1757,940.3511,232.2187,950.3298,232.5341,960.3085,231.9108,970.2872,233.1559,980.266,231.9719,990.2447,232.4044,1000.2234,233.0342,1010.2021,232.5164,1020.1809,232.6704,1030.1596,232.5703,1040.1383,232.7807,1050.117,232.8413,1060.0957,233.1879,1070.0745,233.2733,1080.0532,233.2815,1090.0319,232.8568,1100.0106,233.0658,1109.9894,233.3044,1119.9681,231.881,1129.9468,233.2807,1139.9255,232.3057,1149.9043,233.136,1159.883,232.1072,1169.8617,232.5337,1179.8404,233.3438,1189.8191,232.5535,1199.7979,232.7075,1209.7766,232.9408,1219.7553,233.0184,1229.734,232.5983,1239.7128,232.8894,1249.6915,232.0298,1259.6702,232.8866,1269.6489,233.1504,1279.6277,233.0467,1289.6064,233.2152,1299.5851,232.1191,1309.5638,231.95,1319.5426,231.9808,1329.5213,232.5433,1339.5,232.6022,1339.4749,232.5417,1339.9405,232.9585,1340.1848,232.8413,1340.5169,232.9359,1340.9433,233.2583,1341.2678,233.3344,1341.0624,233.2494,1341.2543,233.6218,1341.7605,234.1243,1341.8413,234.4507,1342.0797,234.8424,1342,235.1022,1341.6782,235.1022,1342.3192,244.2282,1342.5904,253.3541,1341.5276,262.4801,1341.9041,271.6061,1342,280.732,1342.0388,280.7481,1342.0543,281.1687,1341.7058,281.4386,1341.7031,281.8517,1341.2437,282.0756,1341.2678,282.4998,1341.1814,282.2912,1340.9785,282.8014,1340.4692,282.5719,1340.272,283.0959,1339.8799,283.1492,1339.5,283.232,1339.5,282.9641,1329.5213,282.8783,1319.5426,283.6908,1309.5638,282.9327,1299.5851,283.8239,1289.6064,282.6793,1279.6277,283.8495,1269.6489,283.7163,1259.6702,283.477,1249.6915,283.2793,1239.7128,283.9587,1229.734,283.8456,1219.7553,283.4013,1209.7766,283.5002,1199.7979,283.1018,1189.8191,283.9485,1179.8404,283.3869,1169.8617,283.4046,1159.883,282.6237,1149.9043,282.8268,1139.9255,283.7628,1129.9468,283.6618,1119.9681,283.1891,1109.9894,282.9099,1100.0106,283.0131,1090.0319,282.5459,1080.0532,283.6468,1070.0745,283.9716,1060.0957,283.7584,1050.117,283.927,1040.1383,283.0953,1030.1596,283.3193,1020.1809,282.8444,1010.2021,283.5161,1000.2234,283.4788,990.2447,283.7844,980.266,283.0024,970.2872,283.0976,960.3085,283.6755,950.3298,283.7994,940.3511,282.7195,930.3723,283.0382,920.3936,283.3813,910.4149,282.6212,900.4362,283.5854,890.4574,283.49,880.4787,283.1313,870.5,283.232,870.5181,283.2759,870.2394,283.31,869.753,282.8428,869.4795,282.8897,869.1222,282.7342,868.7322,282.4998,868.7679,282.5146,868.6292,282.1642,868.4743,281.8072,868.1007,281.3595,868.023,281.0345,868,280.732,867.5385,280.732,868.0638,271.6061,868.0881,262.4801,868.1617,253.3541,867.709,244.2282,868,235.1022,867.9792,235.0936,868.1094,234.7333,868.4705,234.4687,868.5707,234.096,868.4363,233.6261,868.7322,233.3344,868.7229,233.312,869.0122,233.0102,869.4761,233.1304,869.8705,233.0825,870.2159,232.9164,870.5,232.6022" style="stroke:#181818;stroke-width:4.0;"/><text fill="#000000" font-family="Chalkduster" font-size="24" lengthAdjust="spacing" textLength="454" x="878" y="266.4431">Lightweight (eg Datasette) Portal</text></g><!--entity script--><g id="elem_script"><polygon fill="none" points="481,232.6022,481,232.8124,491.1379,232.1879,501.2759,232.7955,511.4138,233.0019,521.5517,231.8888,531.6897,232.5245,541.8276,232.1757,551.9655,232.2187,562.1034,232.5341,572.2414,231.9108,582.3793,233.1559,592.5172,231.9719,602.6552,232.4044,612.7931,233.0342,622.931,232.5164,633.069,232.6704,643.2069,232.5703,653.3448,232.7807,663.4828,232.8413,673.6207,233.1879,683.7586,233.2733,693.8966,233.2815,704.0345,232.8568,714.1724,233.0658,724.3103,233.3044,734.4483,231.881,744.5862,233.2807,754.7241,232.3057,764.8621,233.136,775,232.6022,774.9369,232.4498,775.3448,232.7276,775.8017,233.1235,776.0544,233.0265,776.4276,233.2204,776.7678,233.3344,776.8721,233.3776,777.0424,233.7411,777.0595,234.0411,777.2956,234.4317,777.1773,234.6756,777.5,235.1022,777.7844,235.1022,778.0482,244.2282,777.9445,253.3541,778.113,262.4801,777.0169,271.6061,777.5,280.732,777.2992,280.6489,777.1622,281.0063,777.189,281.4316,777.0001,281.7676,777.1241,282.2332,776.7678,282.4998,776.7455,282.446,776.3705,282.5406,776.0898,282.863,775.622,282.7338,775.2873,282.9257,775,283.232,775,283.881,764.8621,283.6677,754.7241,283.9665,744.5862,282.9102,734.4483,283.5512,724.3103,283.8225,714.1724,282.7596,704.0345,283.1362,693.8966,283.358,683.7586,283.8838,673.6207,283.2279,663.4828,283.6946,653.3448,282.6783,643.2069,282.5548,633.069,283.7357,622.931,282.5151,612.7931,283.741,602.6552,283.4387,592.5172,282.9641,582.3793,282.8783,572.2414,283.6908,562.1034,282.9327,551.9655,283.8239,541.8276,282.6793,531.6897,283.8495,521.5517,283.7163,511.4138,283.477,501.2759,283.2793,491.1379,283.9587,481,283.232,481.0783,283.421,480.668,283.1377,480.3271,283.0217,479.9227,282.7526,479.6772,282.8669,479.2322,282.4998,479.2799,282.5196,479.1389,282.1683,478.752,281.7151,478.6681,281.3875,478.8099,281.1533,478.5,280.732,478.9298,280.732,478.4571,271.6061,478.1778,262.4801,478.2811,253.3541,477.8138,244.2282,478.5,235.1022,478.6277,235.1551,478.8742,234.843,478.955,234.4623,479.1534,234.1302,479.0437,233.6706,479.2322,233.3344,479.2434,233.3613,479.5363,233.0686,479.9756,233.129,480.3244,232.9711,480.7169,232.9188,481,232.6022" style="stroke:#181818;stroke-width:4.0;"/><text fill="#000000" font-family="Chalkduster" font-size="24" lengthAdjust="spacing" textLength="279" x="488.5" y="266.4431">Custom Index Script</text></g><!--entity 1--><g id="elem_1"><polygon fill="none" points="666,671.6722,666,671.7423,672,671.5341,678,671.7366,684,671.8054,690,671.4344,696,671.6722,695.9901,671.6483,696.2991,671.6873,696.6582,671.847,697.052,672.0906,697.326,672.0451,697.7678,672.4044,697.9383,672.4751,697.7201,672.6776,697.9998,673.0863,698.3401,673.5202,698.3271,673.8077,698.5,674.1722,698.5682,674.1722,698.4681,683.2982,698.6785,692.4241,698.7391,701.5501,699.0857,710.6761,698.5,719.802,698.7067,719.8876,698.5627,720.2422,698.2855,720.5416,698.2034,720.9218,698.1305,721.3058,697.7678,721.5698,697.6758,721.3477,697.5008,721.9252,697.0228,721.7714,696.7752,722.1735,696.2904,722.0032,696,722.302,696,722.2792,690,722.5492,684,722.2858,678,722.3371,672,722.4149,666,722.302,666.0531,722.4302,665.6459,722.1544,665.3295,722.0976,664.8663,721.6864,664.6221,721.8038,664.2322,721.5698,664.4011,721.6397,664.2227,721.273,664.1281,720.9409,663.6441,720.4475,663.4456,720.0724,663.5,719.802,662.8786,719.802,663.4411,710.6761,663.3035,701.5501,664.1814,692.4241,663.3253,683.2982,663.5,674.1722,663.3944,674.1285,663.7167,673.8478,663.5875,673.38,663.7795,673.0453,664.2856,672.8408,664.2322,672.4044,664.2878,672.5386,664.6795,672.4842,664.8983,672.0125,665.3336,672.0634,665.7218,672.0005,666,671.6722" style="stroke:#181818;stroke-width:4.0;"/><text fill="#000000" font-family="Chalkduster" font-size="24" lengthAdjust="spacing" textLength="15" x="673.5" y="705.5131">1</text></g><!--entity 1000--><g id="elem_1000"><polygon fill="none" points="545.5,671.6722,545.5,671.8824,555.625,671.2579,565.75,671.8655,575.875,672.0719,586,670.9588,596.125,671.5945,606.25,671.2457,616.375,671.2887,626.5,671.6722,626.4913,671.6512,626.7654,671.6057,627.2777,672.1356,627.4803,671.9174,627.889,672.1971,628.2678,672.4044,628.4008,672.4595,628.3878,672.7471,628.5817,673.1203,628.6973,673.461,628.9085,673.8414,629,674.1722,629.2391,674.1722,629.5857,683.2982,629.6711,692.4241,629.6793,701.5501,629.2546,710.6761,629,719.802,629.1428,719.8612,629.0698,720.2452,628.485,720.4172,628.7696,720.9493,628.3229,721.1784,628.2678,721.5698,628.3359,721.7342,627.8511,721.5638,627.5519,721.8416,627.3017,722.2375,626.8473,722.1406,626.5,722.302,626.5,722.4073,616.375,722.6407,606.25,722.7183,596.125,722.2981,586,722.5893,575.875,721.7296,565.75,722.5864,555.625,722.8502,545.5,722.302,545.5567,722.4389,545.2246,722.3444,544.7313,721.8604,544.3561,721.6619,544.0065,721.5249,543.7322,721.5698,543.7141,721.5623,543.5253,721.1912,543.6492,720.9496,543.2391,720.4869,543.0408,720.1118,543,719.802,543.2283,719.802,542.3332,710.6761,542.4809,701.5501,543.649,692.4241,543.4357,683.2982,543,674.1722,543.2262,674.2659,543.0473,673.7776,543.3912,673.5058,543.6212,673.1869,543.4403,672.6977,543.7322,672.4044,543.72,672.3749,544.1019,672.2968,544.5225,672.3123,544.7924,671.9638,545.2055,671.9611,545.5,671.6722" style="stroke:#181818;stroke-width:4.0;"/><text fill="#000000" font-family="Chalkduster" font-size="24" lengthAdjust="spacing" textLength="66" x="553" y="705.5131">1000</text></g><!--entity api2--><g id="elem_api2"><polygon fill="none" points="269,432.5422,269,432.7524,278.8788,432.1279,288.7576,432.7355,298.6364,432.9419,308.5152,431.8288,318.3939,432.4645,328.2727,432.1157,338.1515,432.1587,348.0303,432.4741,357.9091,431.8508,367.7879,433.0959,377.6667,431.9119,387.5455,432.3444,397.4242,432.9742,407.303,432.4564,417.1818,432.6104,427.0606,432.5103,436.9394,432.7207,446.8182,432.7813,456.697,433.1279,466.5758,433.2133,476.4545,433.2215,486.3333,432.7968,496.2121,433.0058,506.0909,433.2444,515.9697,431.821,525.8485,433.2207,535.7273,432.2457,545.6061,433.076,555.4848,432.0472,565.3636,432.4737,575.2424,433.2838,585.1212,432.4935,595,432.5422,595.0134,432.5746,595.3967,432.7929,595.7602,432.9633,596.0602,432.9803,596.4509,433.2164,596.7678,433.2744,596.5915,433.2014,597.0018,433.6643,597.2295,434.0515,597.344,434.3918,597.5423,434.7669,597.5,435.0422,597.0169,435.0422,596.8478,444.1682,596.8786,453.2941,597.4411,462.4201,597.3035,471.5461,597.5,480.672,597.7098,480.759,597.2998,481.0033,597.1015,481.3354,597.131,481.7618,596.7089,482.0012,596.7678,482.4398,596.7015,482.2799,596.497,482.7861,596.1162,482.8669,595.8008,483.1053,595.3125,482.9265,595,483.172,595,483.4912,585.1212,483.7625,575.2424,482.6996,565.3636,483.0762,555.4848,483.298,545.6061,483.8238,535.7273,483.1679,525.8485,483.6346,515.9697,482.6183,506.0909,482.4948,496.2121,483.6757,486.3333,482.4551,476.4545,483.681,466.5758,483.3787,456.697,482.9041,446.8182,482.8183,436.9394,483.6308,427.0606,482.8727,417.1818,483.7639,407.303,482.6193,397.4242,483.7895,387.5455,483.6563,377.6667,483.417,367.7879,483.2193,357.9091,483.8987,348.0303,483.7856,338.1515,483.3413,328.2727,483.4402,318.3939,483.0418,308.5152,483.8885,298.6364,483.3269,288.7576,483.3446,278.8788,482.5637,269,483.172,268.9483,483.0473,268.7141,483.189,268.3477,483.0115,267.9339,482.7195,267.5447,482.487,267.2322,482.4398,267.1648,482.4119,266.8745,481.9987,267.0671,481.7856,267.0206,481.4735,266.8086,481.0927,266.5,480.672,267.1949,480.672,266.3633,471.5461,266.5872,462.4201,266.1124,453.2941,266.784,444.1682,266.5,435.0422,266.576,435.0737,266.8166,434.7591,266.7222,434.3058,266.8979,433.9644,267.2224,433.6846,267.2322,433.2744,267.3046,433.4492,267.5204,432.9702,267.9146,432.9218,268.3119,432.8811,268.5685,432.5005,269,432.5422" style="stroke:#181818;stroke-width:4.0;"/><text fill="#000000" font-family="Chalkduster" font-size="24" lengthAdjust="spacing" textLength="311" x="276.5" y="466.3831">Access Controlled API</text></g><!--link ds to sqlite--><g id="link_ds_sqlite"><path d="M1102.13,283.5822 L1102.4084,283.6145 L1100.4327,293.4063 L1100.0889,303.3877 L1099.2136,313.3073 L1096.5909,323.0239 L1096.2842,333.0095 L1094.6737,342.8437 L1093.5821,352.7382 L1092.8512,362.6746 L1090.8772,372.4666 L1091.3775,382.546 L1088.661,392.2517 L1088.0852,402.2061 L1087.7707,412.1908 L1086.05,422.0122 " fill="none" style="stroke:#8B0000;stroke-width:4.0;"/><polygon fill="#8B0000" points="1085.39,426.6922,1085.4503,426.7278,1086.2719,424.9255,1087.4472,423.3319,1088.5073,421.6703,1089.1886,419.7852,1090.3943,418.2095,1090.3782,418.1892,1089.4196,418.8012,1088.5422,419.5156,1087.7212,420.3011,1086.7057,420.8414,1085.9626,421.7251,1086.1072,421.8398,1085.0949,420.7082,1084.5047,419.9114,1083.966,419.1555,1083.1277,418.1619,1082.447,417.2934,1082.4687,417.3002,1083.0254,419.1699,1083.681,421.0707,1084.2889,422.9565,1084.9877,424.8708,1085.39,426.6922" style="stroke:#8B0000;stroke-width:4.0;"/><text fill="#000000" font-family="Chalkduster" font-size="24" lengthAdjust="spacing" textLength="81" x="1096" y="375.3831">Index</text></g><!--link script to api2--><g id="link_script_api2"><path d="M581.45,283.6022 L581.499,283.6817 L579.6772,284.4789 L578.1427,285.7422 L576.5147,286.8537 L574.5789,287.466 L573.0691,288.7693 L573.0503,288.7404 L571.2471,289.7246 L569.5386,290.855 L567.896,292.087 L566.0264,292.9689 L564.4747,294.3411 L564.6138,294.5441 L562.5783,295.3009 L560.9488,296.6504 L559.3689,298.0722 L557.5007,299.0733 L555.7842,300.2956 L555.802,300.3201 L554.042,301.5472 L552.3632,302.8859 L550.6453,304.1707 L549.0021,305.5583 L547.115,306.611 L547.2984,306.8461 L545.5946,308.1798 L543.7724,309.3619 L542.1235,310.766 L540.4826,312.1804 L538.5846,313.2652 L538.378,313.0201 L537.124,314.8901 L535.19,315.9529 L533.7729,317.6294 L531.8234,318.6739 L530.3103,320.2364 L530.2897,320.214 L528.9533,321.9323 L527.1354,323.127 L525.6016,324.6307 L524.0917,326.1603 L522.4096,327.5027 L522.5416,327.6324 L520.9265,329.0094 L519.5368,330.608 L517.7824,331.8481 L516.5721,333.6229 L515,335.0422 L515.186,335.1996 L513.7297,336.8493 L512.3657,338.5771 L510.5727,339.9418 L509.0942,341.5727 L507.8943,343.4393 L507.6662,343.2836 L506.8264,344.9573 L505.7296,346.4556 L505.0056,348.2083 L503.6451,349.5265 L502.663,351.103 L502.5264,351.0352 L501.334,354.0072 L499.5578,356.6894 L498.1968,359.5777 L497.2419,362.6677 L495.5638,365.3985 L495.7417,365.4748 L494.5875,368.5007 L492.8799,371.289 L491.8655,374.3748 L490.7,377.3958 L489.1827,380.2658 L488.9962,380.1693 L488.2781,381.9219 L487.4989,383.6429 L486.8398,385.426 L485.7141,386.9677 L484.849,388.6443 L485.0235,388.7529 L483.4702,390.3938 L482.2539,392.2444 L481.5296,394.4013 L479.8993,395.9943 L479,398.0422 L479.1836,398.1743 L476.8888,401.1334 L474.5318,404.0477 L472.3151,407.0629 L470.4225,410.3113 L468.0712,413.2297 L467.9664,413.1478 L465.9923,416.3182 L463.3052,418.9315 L461.4287,422.1781 L459.0959,425.0682 L456.64,427.8622 " fill="none" style="stroke:#8B0000;stroke-width:4.0;"/><polygon fill="#8B0000" points="453.01,431.3222,453.0418,431.3847,454.703,430.3059,456.5504,429.5931,458.3372,428.7612,459.9245,427.5372,461.7879,426.8559,461.7853,426.8301,460.6479,426.8314,459.5241,426.9625,458.4096,427.184,457.2629,427.0942,456.1613,427.4403,456.3449,427.4594,455.8355,426.2933,455.862,425.1829,455.9539,424.0793,455.6654,422.9361,455.5769,421.8137,455.5989,421.8197,455.0532,423.7127,454.6076,425.6326,454.1137,427.5396,453.7119,429.4714,453.01,431.3222" style="stroke:#8B0000;stroke-width:4.0;"/><text fill="#000000" font-family="Chalkduster" font-size="24" lengthAdjust="spacing" textLength="244" x="516" y="375.3831">Query all records</text></g><!--link script to sqlite--><g id="link_script_sqlite"><path d="M682.42,283.6622 L682.4628,283.7453 L684.3499,284.5363 L686.4878,285.8141 L688.544,286.9334 L690.3316,287.5314 L692.4911,288.851 L692.4747,288.8205 L694.4817,289.802 L696.5711,290.9368 L698.7179,292.1783 L700.6671,293.0523 L702.893,294.441 L703.0136,294.6554 L704.8762,295.3902 L707.0912,296.7511 L709.3491,298.1884 L711.3569,299.1812 L713.4962,300.4078 L713.5116,300.4339 L715.624,301.6595 L717.8066,303.0039 L719.9554,304.2909 L722.1688,305.6873 L724.1713,306.7272 L724.3295,306.98 L726.4549,308.3126 L728.4783,309.4821 L730.651,310.8903 L732.8308,312.3097 L734.7887,313.3747 L734.6109,313.108 L737.0419,315.0159 L738.8877,316.0456 L741.1784,317.7429 L743.0108,318.7526 L745.2189,320.326 L745.2012,320.3012 L747.4333,322.0402 L749.2518,323.2006 L751.3143,324.7024 L753.3973,326.2329 L755.3325,327.5566 L755.4458,327.7029 L757.265,329.0523 L759.2777,330.6518 L760.9773,331.8468 L763.1439,333.645 L765,335.0422 L765.1653,335.2212 L767.0042,336.9153 L768.9252,338.6983 L770.4647,340.0685 L772.2839,341.7413 L774.3507,343.6822 L774.1379,343.5061 L775.7193,345.3443 L777.0609,346.9841 L778.7503,348.9116 L779.8458,350.3478 L781.2944,352.0761 L781.1651,351.9953 L783.3935,355.3509 L785.0693,358.361 L787.1381,361.6167 L789.5915,365.1129 L791.36,368.181 L791.5189,368.2916 L793.7551,371.4245 L795.4969,374.2135 L797.8578,377.4333 L800.0839,380.5592 L801.9956,383.4664 L801.85,383.3152 L803.4973,384.9097 L805.0969,386.4547 L806.7902,388.097 L808.1193,389.3609 L809.6518,390.8362 L809.7693,391.0049 L811.5808,392.0754 L813.6191,393.4716 L815.9886,395.3435 L817.7483,396.3395 L820,398.0422 L820.1092,398.2403 L823.1536,399.8368 L826.1609,401.3662 L829.2517,403.0469 L832.5353,405.0773 L835.5461,406.6128 L835.4891,406.4926 L838.9029,408.3899 L841.9288,409.4696 L845.3958,411.4789 L848.6145,412.9648 L851.7663,414.3097 L851.8076,414.4104 L855.1221,415.7028 L858.5846,417.3557 L861.9135,418.6829 L865.1864,419.8738 L868.5058,421.1778 L868.5457,421.2901 L871.9072,422.3402 L875.4542,423.9116 L878.7914,424.8933 L882.2149,426.1176 L885.61,427.2622 " fill="none" style="stroke:#8B0000;stroke-width:4.0;"/><polygon fill="#8B0000" points="890.14,429.0622,890.1868,429.1143,888.5823,427.6432,887.2523,426.4776,885.8328,425.2125,884.1195,423.6202,882.813,422.4808,882.7899,422.469,883.2006,423.4239,883.7275,424.4382,884.3353,425.4938,884.6644,426.4072,885.3839,427.5197,885.4678,427.6841,884.2806,427.8467,883.3384,428.4893,882.426,429.1905,881.3398,429.5509,880.345,430.0906,880.3474,430.1132,882.3029,429.8743,884.2692,429.7384,886.2303,429.5528,888.2014,429.462,890.14,429.0622" style="stroke:#8B0000;stroke-width:4.0;"/><text fill="#000000" font-family="Chalkduster" font-size="24" lengthAdjust="spacing" textLength="259" x="821" y="375.3831">Build metadata DB</text></g><!--link api2 to stor3--><g id="link_api2_stor3"><path d="M432,489.1822 L432.2802,489.1822 L431.4476,498.8848 L432.2577,508.5873 L432.5329,518.2899 L431.0488,527.9924 L431.8964,537.695 L432,547.3975 L431.8104,547.3975 L431.8296,550.7391 L431.9697,554.0807 L431.6927,557.4223 L432.2461,560.7639 L432,564.1055 L431.7199,564.1055 L431.9121,564.9509 L432.192,565.7963 L431.9619,566.6417 L432.0303,567.4871 L432,568.3325 " fill="none" style="stroke:#8B0000;stroke-width:4.0;"/><polygon fill="#8B0000" points="432,484.3422,432.064,484.3707,431.0738,486.0861,430.4589,487.9684,429.7217,489.7963,428.5827,491.4456,428,493.3422,427.9817,493.3239,428.6995,492.4417,429.5096,491.6518,430.3839,490.9261,431.037,489.9793,432,489.3422,432.1305,489.4727,432.6514,489.9937,433.5534,490.8956,434.5018,491.844,435.1798,492.522,436,493.3422,436.0208,493.3514,435.1903,491.5379,434.4544,489.7664,433.6728,487.9746,432.9784,486.2215,432,484.3422" style="stroke:#8B0000;stroke-width:4.0;"/><polygon fill="#8B0000" points="432,568.3325,432.064,568.361,432.6738,566.4764,433.6589,564.7587,434.5217,562.9866,434.9827,561.0359,436,559.3325,435.9817,559.3142,435.0995,560.032,434.3096,560.8421,433.5839,561.7164,432.637,562.3696,432,563.3325,432.1305,563.463,431.0514,562.384,430.3534,561.6859,429.7018,561.0343,428.7798,560.1123,428,559.3325,428.0208,559.3418,428.7903,561.1282,429.6544,562.9567,430.4728,564.7649,431.3784,566.6118,432,568.3325" style="stroke:#8B0000;stroke-width:4.0;"/></g><!--link i3 to api2--><g id="link_i3_api2"><path d="M335.32,303.5022 L335.4123,303.5163 L334.7982,305.6965 L334.7254,307.9595 L334.4764,310.1955 L333.6476,312.3429 L333.6213,314.613 L333.5869,314.6094 L333.1879,316.9345 L332.9621,319.2778 L332.8566,321.6336 L332.3363,323.946 L332.397,326.3192 L332.6428,326.3312 L331.9994,328.7266 L332.0735,331.1569 L332.2352,333.5915 L331.8875,336.0013 L331.8077,338.4241 L331.838,338.4247 L331.8347,340.8853 L331.9695,343.3482 L332.0376,345.81 L332.2328,348.274 L332.0138,350.731 L332.3107,350.759 L332.5467,353.2217 L332.5911,355.6664 L332.916,358.1375 L333.2539,360.6099 L333.1756,363.0429 L332.8606,362.9837 L333.9275,365.5227 L333.9573,367.8667 L334.7755,370.359 L334.7818,372.6986 L335.4536,375.1633 L335.4245,375.1545 L336.48,377.6053 L336.8547,379.8498 L337.6312,382.2161 L338.4414,384.5926 L339.0083,386.8953 L339.1771,386.9709 L340.005,389.124 L341.1215,391.4062 L341.7711,393.4795 L343.117,395.8645 L344,398.0422 L344.2056,398.1729 L345.3024,399.9346 L346.5012,401.7611 L347.2258,403.2861 L348.298,405.0321 L349.6783,406.9739 L349.4674,406.7956 L351.0334,408.5834 L352.3618,410.1703 L354.0348,412.0487 L355.1194,413.4294 L356.5538,415.106 L356.4492,414.995 L358.1826,416.6498 L359.4689,417.8304 L361.0731,419.3482 L362.9885,421.1959 L364.3498,422.4561 L364.469,422.6088 L366.2387,424.0307 L367.6379,424.9778 L369.5012,426.5196 L371.2634,427.9319 L372.79,429.0422 " fill="none" style="stroke:#8B0000;stroke-width:4.0;"/><polygon fill="#8B0000" points="376.43,432.2422,376.4897,432.2788,375.2834,430.4903,374.4273,428.9164,373.4572,427.2726,372.1119,425.399,371.2859,423.8435,371.2604,423.8388,371.3513,424.9303,371.5706,426.0455,371.8791,427.1772,371.88,428.2521,372.3119,429.4065,372.3453,429.588,371.1612,429.4051,370.0747,429.7521,369.0002,430.1637,367.8563,430.1992,366.7488,430.4325,366.753,430.4549,368.6831,430.784,370.6322,431.2149,372.5722,431.5967,374.5296,432.0722,376.43,432.2422" style="stroke:#8B0000;stroke-width:4.0;"/><text fill="#000000" font-family="Chalkduster" font-size="24" lengthAdjust="spacing" textLength="81" x="363" y="359.8831">Index</text><text fill="#000000" font-family="Chalkduster" font-size="24" lengthAdjust="spacing" textLength="129" x="345" y="390.5129">Storage 3</text></g><!--SRC=[RPFBRjim44Nt_8gfLWaGEKxKbM4OKEHDW1HrwrqH8A35YKE48bLoL5ie-kyTwc6hRhIWgE4yphs4FcbRcaRXIoLj2xFPhP8aK_wGUwpGKXgeDJYZ8mdIP701Qqw0LssLt6cZgON3BPIkghL11Hp68mOX83uUIv9sRn2IBM-Kz0gUrhB8OOlIbs-mSPwaIK06gBFVVH4_aM4d0vSzndwBPmjtD_St6NpkKdNMPVuHufouQNP6b_0TQmTNk8SVQ9rormaibvvZGPFpxMe5_P09M8y0EN5juELhMdX9c0oPvmd5gF4BaenXwE0wel2JdK0k6S0krJ_f_HiTCAuTNVGm815UJorGOHWwoXjUawQJdaKJo5Kz16nBhslgMRhjFopYiZOlImm12cV9EnD5vPl7hbhM-bwC26VnEG-JvXskNfq7FCggDioUyntgN-pUbjt5_xoECBpDu7op4uQxvCFeV3vFJjSR85NkODFLwF2Yroi6aUDffEQpRmtw5gGniQFpAbpcdReyDDeegCQRN3-8hiNob1YvXT3PvOZUxcSR5VCl0fman5y0]--></g></svg>