<?xml version="1.0" encoding="us-ascii" standalone="no"?><svg xmlns="http://www.w3.org/2000/svg" xmlns:xlink="http://www.w3.org/1999/xlink" contentStyleType="text/css" height="998px" preserveAspectRatio="none" style="width:1151px;height:998px;background:#FFFFFF;" version="1.1" viewBox="0 0 1151 998" width="1151px" zoomAndPan="magnify"><defs/><g><text fill="#000000" font-family="Chalkduster" font-size="42" font-weight="bold" lengthAdjust="spacing" textLength="910" x="113.5" y="51.7215">Data findability w/ compiled indexes</text><!--cluster arch--><g id="cluster_arch"><polygon fill="#98FB98" points="9.5,83.8912,9.5,84.1013,19.5265,83.4768,29.5531,84.0844,39.5796,84.2908,49.6062,83.1778,59.6327,83.8134,69.6593,83.4647,79.6858,83.5077,89.7124,83.823,99.7389,83.1998,109.7655,84.4448,119.792,83.2609,129.8186,83.6934,139.8451,84.3231,149.8717,83.8054,159.8982,83.9594,169.9248,83.8592,179.9513,84.0697,189.9779,84.1303,200.0044,84.4769,210.031,84.5622,220.0575,84.5704,230.0841,84.1458,240.1106,84.3547,250.1372,84.5934,260.1637,83.17,270.1903,84.5697,280.2168,83.5947,290.2434,84.425,300.2699,83.3961,310.2965,83.8227,320.323,84.6328,330.3496,83.8424,340.3761,83.9965,350.4027,84.2298,360.4292,84.3074,370.4558,83.8873,380.4823,84.1784,390.5088,83.3187,400.5354,84.1755,410.5619,84.4394,420.5885,84.3357,430.615,84.5042,440.6416,83.4081,450.6681,83.239,460.6947,83.2698,470.7212,83.8323,480.7478,83.6946,490.7743,84.5726,500.8009,83.7165,510.8274,83.5481,520.854,84.1194,530.8805,83.2243,540.9071,83.372,550.9336,84.5401,560.9602,84.3268,570.9867,84.6257,581.0133,83.5694,591.0398,84.2104,601.0664,84.4816,611.0929,83.4188,621.1195,83.7953,631.146,84.0171,641.1726,84.5429,651.1991,83.887,661.2257,84.3537,671.2522,83.3374,681.2788,83.2139,691.3053,84.3948,701.3319,83.1742,711.3584,84.4001,721.385,84.0978,731.4115,83.6232,741.4381,83.5374,751.4646,84.3499,761.4912,83.5918,771.5177,84.483,781.5442,83.3384,791.5708,84.5086,801.5973,84.3755,811.6239,84.1361,821.6504,83.9384,831.677,84.6178,841.7035,84.5047,851.7301,84.0604,861.7566,84.1593,871.7832,83.7609,881.8097,84.6076,891.8363,84.046,901.8628,84.0637,911.8894,83.2828,921.9159,83.4859,931.9425,84.4219,941.969,84.3209,951.9956,83.8482,962.0221,83.569,972.0487,83.6722,982.0752,83.205,992.1018,84.3059,1002.1283,84.6307,1012.1549,84.4176,1022.1814,84.5861,1032.208,83.7544,1042.2345,83.9784,1052.2611,83.5036,1062.2876,84.1752,1072.3142,84.1379,1082.3407,84.4435,1092.3673,83.6615,1102.3938,83.7568,1112.4204,84.3346,1122.4469,84.4585,1132.4735,83.3786,1142.5,83.8912,1142.4753,83.8315,1142.8726,84.0836,1143.1292,83.9959,1143.6057,84.4393,1143.9471,84.5564,1144.2678,84.6234,1144.2367,84.6105,1144.458,84.9951,1144.7851,85.4235,1144.6108,85.6441,1144.9506,86.0778,1145,86.3912,1145.2856,86.3912,1145.1158,96.4332,1145.1409,106.4752,1145.1135,116.5172,1144.3758,126.5592,1144.5992,136.6012,1144.5385,146.6432,1145.0638,156.6852,1145.0881,166.7272,1145.1617,176.7692,1144.709,186.8112,1144.9325,196.8532,1144.8798,206.8952,1145.5769,216.9372,1145.4266,226.9792,1144.5145,237.0212,1144.9271,247.0632,1144.4228,257.1052,1145.2884,267.1472,1145.6085,277.1892,1145.5446,287.2312,1144.5644,297.2732,1145.464,307.3152,1144.2572,317.3572,1145.2002,327.3992,1144.7007,337.4412,1145.0967,347.4832,1145.2403,357.5252,1145.4721,367.5672,1144.2801,377.6092,1145.4755,387.6512,1145.1782,397.6932,1145.3553,407.7352,1145.7478,417.7772,1145.0055,427.8192,1145.1753,437.8612,1145.2134,447.9032,1145.1972,457.9452,1144.9992,467.9872,1145.7107,478.0292,1144.3903,488.0712,1145.5653,498.1132,1144.376,508.1552,1144.4597,518.1972,1145.04,528.2392,1145.0283,538.2812,1144.5072,548.3232,1145.4137,558.3652,1145.1089,568.4072,1145.7267,578.4492,1145.6671,588.4912,1144.5517,598.5332,1144.6021,608.5752,1144.8708,618.6172,1145.3555,628.6592,1145.403,638.7012,1145.3012,648.7432,1144.658,658.7852,1145.6364,668.8272,1145.6338,678.8692,1144.9527,688.9112,1144.7609,698.9532,1144.5986,708.9952,1144.7854,719.0372,1145.1374,729.0792,1144.9316,739.1212,1144.5822,749.1632,1145.4874,759.2052,1144.5411,769.2472,1145.5024,779.2892,1145.4272,789.3312,1145.3719,799.3732,1145.6925,809.4152,1144.7541,819.4572,1144.6994,829.4992,1145.5189,839.5412,1144.4031,849.5832,1144.766,859.6252,1145.1155,869.6672,1145.0687,879.7092,1144.6415,889.7512,1144.957,899.7932,1145.7446,909.8352,1145.6485,919.8772,1144.4037,929.9192,1145.0785,939.9612,1144.4861,950.0032,1144.9737,960.0452,1145.293,970.0872,1145.4199,980.1292,1145,990.1712,1144.7953,990.0864,1144.9769,990.5758,1144.7097,990.8793,1144.3896,991.161,1144.2691,991.5253,1144.2678,991.9389,1144.3094,992.0395,1143.9461,992.1623,1143.5586,992.2268,1143.1214,992.1713,1142.9375,992.7274,1142.5,992.6712,1142.5,992.3593,1132.4735,992.1431,1122.4469,992.6038,1112.4204,993.2609,1102.3938,993.2866,1092.3673,992.7063,1082.3407,992.52,1072.3142,992.8409,1062.2876,992.8574,1052.2611,992.1634,1042.2345,993.0851,1032.208,993.23,1022.1814,992.4554,1012.1549,992.242,1002.1283,993.3458,992.1018,992.6922,982.0752,992.671,972.0487,992.9702,962.0221,992.0255,951.9956,993.2011,941.969,992.6557,931.9425,993.34,921.9159,992.4553,911.8894,993.0802,901.8628,992.2272,891.8363,992.9162,881.8097,993.0505,871.7832,992.3438,861.7566,993.0342,851.7301,992.0997,841.7035,992.2007,831.677,993.354,821.6504,993.3555,811.6239,993.2397,801.5973,992.3108,791.5708,993.0554,781.5442,992.1991,771.5177,992.7293,761.4912,992.6699,751.4646,992.4087,741.4381,993.2871,731.4115,993.1144,721.385,992.3504,711.3584,993.1978,701.3319,992.763,691.3053,992.0876,681.2788,992.4378,671.2522,992.1459,661.2257,992.5321,651.1991,992.0422,641.1726,992.071,631.146,992.7415,621.1195,992.5508,611.0929,992.6126,601.0664,992.528,591.0398,992.8385,581.0133,992.1161,570.9867,992.8312,560.9602,991.928,550.9336,992.9672,540.9071,993.2639,530.8805,993.1933,520.854,993.0325,510.8274,992.8634,500.8009,992.7769,490.7743,992.0311,480.7478,993.1177,470.7212,993.0008,460.6947,992.5178,450.6681,992.6654,440.6416,992.4626,430.615,992.8889,420.5885,993.3517,410.5619,992.3173,400.5354,993.14,390.5088,992.582,380.4823,992.2919,370.4558,992.2393,360.4292,992.0265,350.4027,992.2303,340.3761,992.7075,330.3496,992.9441,320.323,993.2474,310.2965,993.0913,300.2699,991.9598,290.2434,993.2902,280.2168,993.1573,270.1903,993.2119,260.1637,993.193,250.1372,992.012,240.1106,992.4134,230.0841,992.9871,220.0575,992.1897,210.031,992.5683,200.0044,992.7382,189.9779,992.9972,179.9513,992.7169,169.9248,993.4159,159.8982,993.0826,149.8717,992.9272,139.8451,992.1312,129.8186,993.0099,119.792,992.0967,109.7655,992.9768,99.7389,992.679,89.7124,992.9706,79.6858,992.5837,69.6593,992.4751,59.6327,991.9303,49.6062,992.4567,39.5796,991.9662,29.5531,992.425,19.5265,993.109,9.5,992.6712,9.5205,992.7207,9.0888,992.3857,8.8243,992.454,8.4477,992.252,8.1551,992.2527,7.7322,991.9389,7.9062,992.011,7.6146,991.5973,7.3842,991.209,7.2268,990.8509,7.1445,990.5239,7,990.1712,7.6691,990.1712,6.3263,980.1292,6.8361,970.0872,7.2668,960.0452,7.7317,950.0032,7.2119,939.9612,6.8018,929.9192,6.2621,919.8772,6.5762,909.8352,6.7781,899.7932,7.3398,889.7512,7.3695,879.7092,7.0518,869.6672,6.867,859.6252,6.2804,849.5832,7.129,839.5412,7.4354,829.4992,7.6829,819.4572,7.0983,809.4152,7.0799,799.3732,6.7798,789.3312,7.2487,779.2892,6.53,769.2472,7.5161,759.2052,6.6943,749.1632,6.4698,739.1212,7.2569,729.0792,7.4718,719.0372,7.0573,708.9952,6.8789,698.9532,7.1579,688.9112,6.9753,678.8692,6.9049,668.8272,7.0769,658.7852,6.668,648.7432,7.3895,638.7012,7.6875,628.6592,6.6464,618.6172,6.7656,608.5752,6.5314,598.5332,7.2369,588.4912,6.9062,578.4492,7.5514,568.4072,6.6998,558.3652,6.6411,548.3232,7.2968,538.2812,6.7755,528.2392,7.2669,518.1972,7.2796,508.1552,7.4358,498.1132,6.5152,488.0712,7.088,478.0292,7.5351,467.9872,6.4569,457.9452,7.5044,447.9032,6.6604,437.8612,7.1567,427.8192,7.6528,417.7772,6.3696,407.7352,7.7221,397.6932,6.9216,387.6512,6.6741,377.6092,7.7313,367.5672,6.3123,357.5252,7.6056,347.4832,6.5987,337.4412,7.2901,327.3992,7.73,317.3572,6.8515,307.3152,6.5728,297.2732,6.6267,287.2312,6.8177,277.1892,7.2961,267.1472,6.4447,257.1052,7.5114,247.0632,7.5645,237.0212,6.2979,226.9792,6.8573,216.9372,6.5373,206.8952,7.1721,196.8532,6.2885,186.8112,7.1357,176.7692,7.3587,166.7272,6.9512,156.6852,7.1559,146.6432,7.0141,136.6012,7.2472,126.5592,7.7179,116.5172,7.6579,106.4752,7.2698,96.4332,7,86.3912,7.0149,86.3973,7.2215,86.0687,7.34,85.7036,7.4987,85.3551,7.7268,85.0354,7.7322,84.6234,7.639,84.3982,8.1409,84.6101,8.5039,84.4864,8.7055,83.9732,9.2269,84.2319,9.5,83.8912" style="stroke:#181818;stroke-width:4.0;"/><text fill="#000000" font-family="Chalkduster" font-size="24" font-style="italic" lengthAdjust="spacing" textLength="169" x="491.5" y="109.732">&#171;repository&#187;</text><text fill="#000000" font-family="Chalkduster" font-size="24" font-weight="bold" lengthAdjust="spacing" textLength="306" x="423" y="140.3619">Austalk (for example)</text></g><!--cluster p3--><g id="cluster_p3"><polygon fill="none" points="686.5,444.1512,686.5,444.3613,696.5465,443.7368,706.593,444.3444,716.6395,444.5508,726.686,443.4378,736.7326,444.0734,746.7791,443.7247,756.8256,443.7677,766.8721,444.083,776.9186,443.4598,786.9651,444.7048,797.0116,443.5209,807.0581,443.9534,817.1047,444.5831,827.1512,444.0654,837.1977,444.2194,847.2442,444.1192,857.2907,444.3297,867.3372,444.3903,877.3837,444.7369,887.4302,444.8222,897.4767,444.8304,907.5233,444.4058,917.5698,444.6147,927.6163,444.8534,937.6628,443.43,947.7093,444.8297,957.7558,443.8547,967.8023,444.685,977.8488,443.6561,987.8953,444.0827,997.9419,444.8928,1007.9884,444.1024,1018.0349,444.2565,1028.0814,444.4898,1038.1279,444.5674,1048.1744,444.1473,1058.2209,444.4384,1068.2674,443.5787,1078.314,444.4355,1088.3605,444.6994,1098.407,444.5957,1108.4535,444.7642,1118.5,444.1512,1118.4384,444.0024,1118.7704,444.0968,1119.1278,444.2527,1119.5531,444.5724,1119.8891,444.6764,1120.2678,444.8834,1120.4776,444.9703,1120.3604,445.2147,1120.455,445.5467,1120.7774,445.9732,1120.6482,446.2125,1121,446.6512,1120.4809,446.6512,1121.649,456.6685,1121.4357,466.6858,1121.7345,476.7032,1120.6782,486.7205,1121.3192,496.7378,1121.5904,506.7552,1120.5276,516.7725,1120.9041,526.7898,1121.126,536.8072,1121.6518,546.8245,1120.9958,556.8418,1121.4626,566.8592,1120.4462,576.8765,1120.3227,586.8938,1121,596.9112,1121.1551,596.9754,1120.6328,597.1733,1120.8638,597.6832,1120.6243,597.9982,1120.3317,598.2912,1120.2678,598.6789,1120.2226,598.57,1119.9727,598.9667,1119.5225,598.8796,1119.2826,599.3005,1118.783,599.0945,1118.5,599.4112,1118.5,600.0286,1108.4535,599.8955,1098.407,599.6561,1088.3605,599.4584,1078.314,600.1378,1068.2674,600.0247,1058.2209,599.5804,1048.1744,599.6793,1038.1279,599.2809,1028.0814,600.1276,1018.0349,599.566,1007.9884,599.5837,997.9419,598.8028,987.8953,599.0059,977.8488,599.9419,967.8023,599.8409,957.7558,599.3682,947.7093,599.089,937.6628,599.1922,927.6163,598.725,917.5698,599.8259,907.5233,600.1507,897.4767,599.9376,887.4302,600.1061,877.3837,599.2744,867.3372,599.4984,857.2907,599.0236,847.2442,599.6952,837.1977,599.6579,827.1512,599.9635,817.1047,599.1815,807.0581,599.2768,797.0116,599.8546,786.9651,599.9785,776.9186,598.8986,766.8721,599.2173,756.8256,599.5604,746.7791,598.8003,736.7326,599.7646,726.686,599.6692,716.6395,599.3104,706.593,599.5534,696.5465,600.1398,686.5,599.4112,686.4601,599.3148,686.1866,599.3617,685.8293,599.2062,685.4541,599.0075,685.1038,598.8688,684.7322,598.6789,684.7672,598.6934,684.3936,598.2458,684.3159,597.9207,684.1508,597.5594,684.1661,597.2729,684,596.9112,684.0881,596.9112,684.1617,586.8938,683.709,576.8765,683.9325,566.8592,683.8798,556.8418,684.5769,546.8245,684.4266,536.8072,683.5145,526.7898,683.9271,516.7725,683.4228,506.7552,684.2884,496.7378,684.6085,486.7205,684.5446,476.7032,683.5644,466.6858,684.464,456.6685,684,446.6512,683.7712,446.5564,684.2081,446.3231,684.2007,445.9059,684.4691,445.6028,684.6598,445.2676,684.7322,444.8834,684.7925,445.0288,684.994,444.5152,685.5,444.7369,685.8156,444.4989,686.1918,444.407,686.5,444.1512" style="stroke:#181818;stroke-width:4.0;"/><text fill="#000000" font-family="Chalkduster" font-size="24" font-weight="bold" lengthAdjust="spacing" textLength="421" x="692" y="469.992">Standard LDaCA Search Portal</text></g><!--cluster stor3--><g id="cluster_stor3"><path d="M439,824.0412 L439,824.0412 L439.0399,824.1256 L440.3178,823.2145 L441.8297,822.7985 L443.2654,822.2213 L444.4504,821.1139 L445.9824,820.7404 L445.9778,820.7061 L449.6387,820.0564 L453.3229,819.5793 L457.0233,819.2221 L460.668,818.4515 L464.3906,818.2599 L464.41,818.5052 L466.8283,817.7868 L469.3032,817.7846 L471.7849,817.8698 L474.2265,817.4465 L476.6892,817.2907 L476.691,817.3209 L479.4337,817.1149 L482.1846,817.0466 L484.9315,816.9119 L487.686,816.904 L490.416,816.4826 L490.4294,816.7805 L493.3654,816.6518 L496.2927,816.331 L499.2327,816.2914 L502.1732,816.2651 L505.095,815.8209 L505.0838,815.5006 L508.1365,816.0164 L511.1524,815.4773 L514.1963,815.7402 L517.2113,815.1772 L520.25,815.2912 L520.2493,815.2607 L526.2248,815.4761 L532.1831,814.9804 L538.1515,814.9044 L544.1208,814.8635 L550.084,814.5685 L550.0866,814.7535 L555.289,814.4926 L560.496,814.5477 L565.6956,814.0915 L570.9061,814.398 L576.1094,814.1974 L576.1109,814.441 L581.1887,814.3637 L586.2673,814.4074 L591.3424,813.889 L596.4201,813.7826 L601.5,814.0412 L601.5,814.0412 L601.4983,813.765 L606.578,814.0462 L611.6557,814.0163 L616.7362,814.4378 L621.812,814.0885 L626.8906,814.1974 L626.8885,814.045 L632.0971,814.3731 L637.2966,814.0495 L642.5026,814.1894 L647.715,814.7827 L652.916,814.5685 L652.9207,814.7621 L658.8907,815.0394 L664.8461,814.7146 L670.8198,815.1439 L676.7896,815.409 L682.75,815.2912 L682.7427,815.0813 L685.7795,815.3545 L688.814,815.559 L691.8531,815.8985 L694.874,815.7131 L697.905,815.8209 L697.9143,816.0263 L700.8297,815.7074 L703.7631,815.7849 L706.7225,816.4415 L709.6338,816.0319 L712.584,816.4826 L712.5973,816.7084 L715.3347,816.7359 L718.0677,816.6869 L720.8108,816.8105 L723.5774,817.3326 L726.3108,817.2907 L726.3003,817.158 L728.7912,817.7468 L731.2109,817.4335 L733.7115,818.1458 L736.1666,818.2806 L738.6094,818.2599 L738.6239,818.3678 L742.2938,818.7768 L746.0158,819.5721 L749.6907,820.0185 L753.346,820.3188 L757.0176,820.7404 L757.0685,820.8481 L758.3893,821.3482 L759.9466,822.3486 L761.2364,822.7831 L762.6363,823.4503 L764,824.0412 L762.3777,824.0412 L762.9194,833.7819 L765.4153,843.5227 L765.146,853.2635 L763.8855,863.0042 L763.1409,872.745 L763.4162,882.4858 L762.1702,892.2265 L765.106,901.9673 L765.9722,911.7081 L765.4037,921.4489 L765.8532,931.1896 L763.6354,940.9304 L764,950.6712 L764,950.6712 L764.0166,950.7062 L762.5299,951.1756 L761.261,952.1056 L759.8574,952.7508 L758.519,953.5337 L757.0176,953.9719 L757.0039,953.8708 L753.328,954.4088 L749.6806,955.1595 L746.0063,955.7101 L742.2606,955.7306 L738.6094,956.4524 L738.6026,956.3665 L736.1549,956.7124 L733.6686,956.5695 L731.2426,957.1905 L728.7795,957.3421 L726.3108,957.4216 L726.3082,957.3769 L723.5691,957.6464 L720.8391,958.0682 L718.0665,957.7677 L715.3376,958.2079 L712.584,958.2298 L712.5897,958.3566 L709.6505,958.4135 L706.7152,958.557 L703.7789,958.6771 L700.8283,958.4819 L697.905,958.8914 L697.8988,958.7133 L694.8669,958.7923 L691.844,959.1316 L688.8134,959.2484 L685.7835,959.387 L682.75,959.4212 L682.7469,959.2919 L676.7825,959.5357 L670.8151,959.6568 L664.8558,960.1111 L658.8874,960.1888 L652.916,960.1438 L652.9129,959.928 L647.7105,960.1856 L642.5022,960.0357 L637.3026,960.4946 L632.0996,960.7111 L626.8906,960.5149 L626.8921,960.7569 L621.8113,960.3526 L616.7356,960.7836 L611.6542,960.2785 L606.5787,960.7289 L601.5,960.6712 L601.5,960.6712 L601.4992,960.5381 L596.4221,960.6829 L591.3444,960.7155 L586.2669,960.7872 L581.1855,960.2262 L576.1094,960.5149 L576.1124,960.7262 L570.9054,960.5199 L565.7015,960.5244 L560.4989,960.6246 L555.2891,960.2205 L550.084,960.1438 L550.0859,960.2217 L544.1195,960.0941 L538.1525,959.9424 L532.1836,959.7099 L526.2244,959.8815 L520.25,959.4212 L520.2405,959.1503 L517.2278,959.5663 L514.1783,958.9321 L511.1486,958.8633 L508.1266,959.0151 L505.095,958.8914 L505.0955,958.9039 L502.1493,958.5402 L499.2317,958.8104 L496.2898,958.5427 L493.3663,958.6847 L490.416,958.2298 L490.4334,958.5257 L487.6589,957.8693 L484.9149,957.73 L482.1766,957.6876 L479.4439,957.741 L476.6892,957.4216 L476.7033,957.6002 L474.24,957.3612 L471.7578,956.8824 L469.3323,957.1221 L466.8725,956.9271 L464.3906,956.4524 L464.3878,956.4316 L460.6948,955.851 L457.0035,955.2834 L453.333,954.8696 L449.6722,954.5286 L445.9824,953.9719 L445.9694,953.9445 L444.5066,953.1439 L443.282,952.8475 L441.7058,951.8071 L440.4919,951.5332 L439,950.6712 L440.1393,950.6712 L439.9916,940.9304 L440.8467,931.1896 L438.3443,921.4489 L438.1983,911.7081 L440.3837,901.9673 L437.4083,892.2265 L438.376,882.4858 L439.308,872.745 L439.1832,863.0042 L438.0441,853.2635 L438.8854,843.5227 L440.9856,833.7819 L439,824.0412 " fill="none" style="stroke:#181818;stroke-width:4.0;"/><path d="M439,824.0412 L439,824.0412 L439.0399,824.1256 L440.3178,824.5348 L441.8297,825.4391 L443.2654,826.1822 L444.4504,826.3951 L445.9824,827.3419 L445.9778,827.3077 L449.6387,827.6502 L453.3229,828.1652 L457.0233,828.8002 L460.668,829.0218 L464.3906,829.8224 L464.41,830.0677 L466.8283,829.737 L469.3032,830.1225 L471.7849,830.5953 L474.2265,830.5598 L476.6892,830.7916 L476.691,830.8219 L479.4337,830.9391 L482.1846,831.1941 L484.9315,831.3826 L487.686,831.698 L490.416,831.5998 L490.4294,831.8977 L493.3654,832.0337 L496.2927,831.9775 L499.2327,832.2026 L502.1732,832.4408 L505.095,832.2614 L505.0838,831.941 L508.1365,832.6687 L511.1524,832.3416 L514.1963,832.8164 L517.2113,832.4653 L520.25,832.7912 L520.2493,832.7607 L526.2248,833.2652 L532.1831,833.0586 L538.1515,833.2715 L544.1208,833.5197 L550.084,833.5138 L550.0866,833.6988 L555.289,833.5863 L560.496,833.7899 L565.6956,833.4821 L570.9061,833.9371 L576.1094,833.8849 L576.1109,834.1285 L581.1887,834.1137 L586.2673,834.2199 L591.3424,833.764 L596.4201,833.7201 L601.5,834.0412 L601.5,834.0412 L601.4983,833.765 L606.578,833.9837 L611.6557,833.8913 L616.7362,834.2503 L621.812,833.8385 L626.8906,833.8849 L626.8885,833.7325 L632.0971,833.9121 L637.2966,833.4401 L642.5026,833.4316 L647.715,833.8764 L652.916,833.5138 L652.9207,833.7074 L658.8907,833.6956 L664.8461,833.0818 L670.8198,833.222 L676.7896,833.198 L682.75,832.7912 L682.7427,832.5813 L685.7795,832.6426 L688.814,832.6352 L691.8531,832.7628 L694.874,832.3655 L697.905,832.2614 L697.9143,832.4668 L700.8297,831.8832 L703.7631,831.696 L706.7225,832.088 L709.6338,831.4138 L712.584,831.5998 L712.5973,831.8256 L715.3347,831.5298 L718.0677,831.1576 L720.8108,830.9579 L723.5774,831.1568 L726.3108,830.7916 L726.3003,830.659 L728.7912,830.86 L731.2109,830.159 L733.7115,830.4837 L736.1666,830.2308 L738.6094,829.8224 L738.6239,829.9303 L742.2938,829.3471 L746.0158,829.1503 L749.6907,828.6044 L753.346,827.9126 L757.0176,827.3419 L757.0685,827.4497 L758.3893,826.6294 L759.9466,826.3095 L761.2364,825.4237 L762.6363,824.7707 L764,824.0412 " fill="none" style="stroke:#181818;stroke-width:4.0;"/><text fill="#000000" font-family="Chalkduster" font-size="24" font-weight="bold" lengthAdjust="spacing" textLength="309" x="447" y="859.882">Austalk Archival Store</text></g><!--entity api2--><g id="elem_api2"><polygon fill="none" points="335,708.4112,335,708.6213,344.8788,707.9968,354.7576,708.6044,364.6364,708.8108,374.5152,707.6978,384.3939,708.3334,394.2727,707.9847,404.1515,708.0277,414.0303,708.343,423.9091,707.7198,433.7879,708.9648,443.6667,707.7809,453.5455,708.2134,463.4242,708.8431,473.303,708.3254,483.1818,708.4794,493.0606,708.3792,502.9394,708.5897,512.8182,708.6503,522.697,708.9969,532.5758,709.0822,542.4545,709.0904,552.3333,708.6658,562.2121,708.8747,572.0909,709.1134,581.9697,707.69,591.8485,709.0897,601.7273,708.1147,611.6061,708.945,621.4848,707.9161,631.3636,708.3427,641.2424,709.1528,651.1212,708.3624,661,708.4112,661.0134,708.4436,661.3967,708.6619,661.7602,708.8322,662.0602,708.8493,662.4509,709.0854,662.7678,709.1434,662.5915,709.0704,663.0018,709.5332,663.2295,709.9204,663.344,710.2608,663.5423,710.6358,663.5,710.9112,663.0169,710.9112,662.8478,720.0371,662.8786,729.1631,663.4411,738.2891,663.3035,747.415,663.5,756.541,663.7098,756.6279,663.2998,756.8723,663.1015,757.2043,663.131,757.6308,662.7089,757.8701,662.7678,758.3088,662.7015,758.1489,662.497,758.6551,662.1162,758.7358,661.8008,758.9743,661.3125,758.7954,661,759.041,661,759.3602,651.1212,759.6314,641.2424,758.5686,631.3636,758.9451,621.4848,759.167,611.6061,759.6928,601.7273,759.0368,591.8485,759.5036,581.9697,758.4872,572.0909,758.3637,562.2121,759.5446,552.3333,758.3241,542.4545,759.55,532.5758,759.2476,522.697,758.7731,512.8182,758.6872,502.9394,759.4998,493.0606,758.7417,483.1818,759.6329,473.303,758.4882,463.4242,759.6584,453.5455,759.5253,443.6667,759.286,433.7879,759.0882,423.9091,759.7676,414.0303,759.6546,404.1515,759.2102,394.2727,759.3092,384.3939,758.9107,374.5152,759.7574,364.6364,759.1959,354.7576,759.2136,344.8788,758.4326,335,759.041,334.9483,758.9162,334.7141,759.058,334.3477,758.8805,333.9339,758.5884,333.5447,758.356,333.2322,758.3088,333.1648,758.2808,332.8745,757.8677,333.0671,757.6546,333.0206,757.3424,332.8086,756.9617,332.5,756.541,333.1949,756.541,332.3633,747.415,332.5872,738.2891,332.1124,729.1631,332.784,720.0371,332.5,710.9112,332.576,710.9426,332.8166,710.6281,332.7222,710.1748,332.8979,709.8334,333.2224,709.5535,333.2322,709.1434,333.3046,709.3181,333.5204,708.8391,333.9146,708.7908,334.3119,708.75,334.5685,708.3695,335,708.4112" style="stroke:#181818;stroke-width:4.0;"/><text fill="#000000" font-family="Chalkduster" font-size="24" lengthAdjust="spacing" textLength="311" x="342.5" y="742.252">Access Controlled API</text></g><!--entity i3--><g id="elem_i3"><path d="M722,503.1512 L722,503.1512 L722.0479,503.2314 L723.8431,501.8368 L725.919,500.9124 L727.9035,499.8349 L729.5875,498.2539 L731.6875,497.3699 L731.6814,497.3359 L733.64,496.8279 L735.6293,496.4912 L737.64,496.2737 L739.5771,495.6456 L741.6172,495.5926 L741.6428,495.8373 L743.8646,495.0757 L746.1612,495.0286 L748.4669,495.0687 L750.7195,494.6015 L753,494.4012 L753.0019,494.4314 L755.2757,494.2425 L757.5582,494.1913 L759.8364,494.0736 L762.1227,494.0828 L764.3828,493.6785 L764.394,493.9765 L766.38,493.906 L768.3589,493.6432 L770.3483,493.6617 L772.3382,493.6935 L774.3125,493.3074 L774.3073,492.9869 L776.2549,493.5777 L778.1854,493.1131 L780.1288,493.4509 L782.059,492.9624 L784,493.1512 L784,493.1512 L783.9995,493.1207 L785.9428,493.512 L787.8747,493.192 L789.8133,493.2917 L791.7524,493.4266 L793.6875,493.3074 L793.6944,493.4923 L795.6734,493.3799 L797.6641,493.5834 L799.6358,493.2758 L801.636,493.7306 L803.6172,493.6785 L803.6326,493.9217 L805.9063,494.0202 L808.1876,494.2395 L810.4333,493.8978 L812.7051,493.9674 L815,494.4012 L814.9713,494.1265 L817.2738,494.6134 L819.544,494.7909 L821.8612,495.4172 L824.0982,495.2771 L826.3828,495.5926 L826.3559,495.4425 L828.3866,496.0479 L830.3025,496.0118 L832.3,496.4319 L834.3774,497.2984 L836.3125,497.3699 L836.4117,497.5362 L838.4173,498.8065 L840.1142,499.5596 L842.1977,500.9605 L844.197,502.2202 L846,503.1512 L844.7403,503.1512 L845.7444,513.1883 L846.336,523.2254 L847.738,533.2624 L845.9888,543.2995 L847.2335,553.3366 L844.5232,563.3737 L846,573.4108 L846,573.4108 L845.8457,573.1524 L844.1772,574.7593 L841.9617,575.4497 L840.3034,577.0738 L838.2971,578.1147 L836.3125,579.1921 L836.2915,579.0749 L834.2989,579.3928 L832.3765,580.1037 L830.3312,580.1275 L828.4151,580.8729 L826.3828,580.9694 L826.3572,580.7251 L824.1348,581.4806 L821.8521,581.6601 L819.5645,581.7925 L817.2787,581.9434 L815,582.1608 L815.0205,582.4831 L812.7407,582.5775 L810.4516,582.525 L808.1779,582.7134 L805.8901,582.6812 L803.6172,582.8835 L803.6291,583.2017 L801.6338,583.0265 L799.6482,583.1086 L797.6493,582.836 L795.6667,583.0004 L793.6875,583.2546 L793.6913,583.4904 L791.7531,583.4768 L789.8122,583.298 L787.8727,583.2052 L785.9359,583.2823 L784,583.4108 L784,583.4108 L783.9951,583.1059 L782.0655,583.5639 L780.1303,583.677 L778.1913,583.551 L776.255,583.5946 L774.3125,583.2546 L774.3102,583.1939 L772.328,583.2191 L770.3342,582.934 L768.3594,583.1581 L766.3728,583.0673 L764.3828,582.8835 L764.3984,583.1285 L762.0998,582.6371 L759.8259,582.5348 L757.5656,582.6466 L755.2925,582.557 L753,582.1608 L752.9763,581.9343 L750.7145,581.8368 L748.4538,581.7502 L746.1421,581.176 L743.9101,581.3639 L741.6172,580.9694 L741.6374,581.0823 L739.6234,580.5699 L737.6565,580.3207 L735.7164,580.2218 L733.6489,579.4107 L731.6875,579.1921 L731.7592,579.3123 L729.8151,578.1448 L727.8389,576.9238 L725.9071,575.7771 L723.9633,574.6104 L722,573.4108 L720.3356,573.4108 L720.9312,563.3737 L720.7692,553.3366 L722.1702,543.2995 L722.235,533.2624 L722.4313,523.2254 L721.2241,513.1883 L722,503.1512 " fill="none" style="stroke:#181818;stroke-width:4.0;"/><path d="M722,503.1512 L722,503.1512 L722.0479,503.2314 L723.8431,504.1493 L725.919,505.5374 L727.9035,506.7724 L729.5875,507.5039 L731.6875,508.9324 L731.6814,508.8984 L733.64,509.1013 L735.6293,509.4756 L737.64,509.969 L739.5771,510.0518 L741.6172,510.7098 L741.6428,510.9545 L743.8646,510.6694 L746.1612,511.0989 L748.4669,511.6155 L750.7195,511.625 L753,511.9012 L753.0019,511.9314 L755.2757,512.0315 L757.5582,512.2694 L759.8364,512.4408 L762.1227,512.7391 L764.3828,512.6238 L764.394,512.9219 L766.38,512.9997 L768.3589,512.8853 L770.3483,513.0524 L772.3382,513.2326 L774.3125,512.9949 L774.3073,512.6744 L776.2549,513.3277 L778.1854,512.9256 L780.1288,513.3259 L782.059,512.8999 L784,513.1512 L784,513.1512 L783.9995,513.1207 L785.9428,513.4495 L787.8747,513.067 L789.8133,513.1042 L791.7524,513.1766 L793.6875,512.9949 L793.6944,513.1798 L795.6734,512.919 L797.6641,512.974 L799.6358,512.518 L801.636,512.8243 L803.6172,512.6238 L803.6326,512.867 L805.9063,512.6765 L808.1876,512.6067 L810.4333,511.976 L812.7051,511.7564 L815,511.9012 L814.9713,511.6265 L817.2738,511.6369 L819.544,511.3377 L821.8612,511.4875 L824.0982,510.8708 L826.3828,510.7098 L826.3559,510.5597 L828.3866,510.4542 L830.3025,509.7071 L832.3,509.4162 L834.3774,509.5718 L836.3125,508.9324 L836.4117,509.0987 L838.4173,508.0565 L840.1142,506.4971 L842.1977,505.5855 L844.197,504.5327 L846,503.1512 " fill="none" style="stroke:#181818;stroke-width:4.0;"/><text fill="#000000" font-family="Chalkduster" font-size="24" lengthAdjust="spacing" textLength="89" x="732" y="540.992">Index:</text><text fill="#000000" font-family="Chalkduster" font-size="24" lengthAdjust="spacing" textLength="92" x="744" y="571.6219">1,2,3 4</text></g><!--entity sqlite--><g id="elem_sqlite"><path d="M236.5,316.5212 L236.5,316.5212 L236.5349,316.6078 L238.0682,315.6902 L239.8063,315.2805 L241.4778,314.7054 L242.9299,313.5865 L244.6855,313.2204 L244.6807,313.1862 L246.5378,312.7656 L248.4195,312.5175 L250.3181,312.3891 L252.1581,311.8478 L254.0803,311.8849 L254.1033,312.1299 L256.4912,311.377 L258.9462,311.3394 L261.4095,311.3891 L263.825,310.931 L266.2656,310.7399 L266.2677,310.7702 L269.1482,310.5319 L272.038,310.4314 L274.9234,310.2644 L277.8173,310.2242 L280.6833,309.7707 L280.6983,310.0685 L283.9169,309.9106 L287.1258,309.5605 L290.3489,309.4916 L293.5726,309.4359 L296.7754,308.9626 L296.7631,308.6423 L300.2286,309.1316 L303.6536,308.5662 L307.1095,308.8027 L310.5335,308.2134 L313.9836,308.3009 L313.9827,308.2705 L317.5467,308.5244 L321.0895,308.0674 L324.6449,308.0299 L328.2012,308.0276 L331.75,307.7712 L331.7538,307.9561 L338.7449,307.6249 L345.7425,307.6097 L352.7295,307.0832 L359.7323,307.3194 L366.7246,307.0485 L366.7276,307.2921 L372.829,307.1718 L378.9318,307.1725 L385.0279,306.6112 L391.1289,306.4618 L397.2344,306.6774 L397.2329,306.4012 L403.1874,306.62 L409.1402,306.5276 L415.0953,306.8865 L421.0465,306.4748 L427,306.5212 L427,306.5212 L426.9992,306.3687 L432.9537,306.6539 L438.9047,306.2873 L444.8582,306.3842 L450.814,306.9346 L456.7656,306.6774 L456.768,306.871 L462.8715,307.078 L468.9678,306.6828 L475.0732,307.0419 L481.1766,307.2367 L487.2754,307.0485 L487.2711,306.8386 L494.2694,307.1504 L501.2664,307.3935 L508.2661,307.7717 L515.255,307.6248 L522.25,307.7712 L522.2561,307.9767 L525.7959,307.6311 L529.3476,307.6822 L532.9165,308.3128 L536.4536,307.8765 L540.0164,308.3009 L540.025,308.527 L543.4615,308.525 L546.8951,308.4466 L550.3353,308.5408 L553.7908,309.034 L557.2246,308.9626 L557.2179,308.8297 L560.4562,309.3869 L563.6491,309.0405 L566.8936,309.7215 L570.109,309.824 L573.3167,309.7707 L573.324,309.8793 L576.2016,309.9855 L579.1054,310.4806 L581.9856,310.6243 L584.8559,310.6211 L587.7344,310.7399 L587.7455,310.8586 L590.166,310.9113 L592.6383,311.5149 L595.052,311.4955 L597.4898,311.7323 L599.9197,311.8849 L599.8816,311.6172 L601.7733,311.9737 L603.7108,312.6527 L605.5834,312.8753 L607.4328,312.9344 L609.3145,313.2204 L609.2609,313.0876 L610.9152,313.7903 L612.4746,314.2579 L614.2947,315.3718 L615.9858,316.1658 L617.5,316.5212 L617.9679,316.5212 L618.1177,324.4471 L617.3785,332.3731 L617.5775,340.2991 L617.1555,348.225 L617.5,356.151 L617.5,356.151 L617.5472,356.2681 L615.9039,356.9129 L614.3176,357.699 L612.5505,358.0368 L610.9292,358.7362 L609.3145,359.4518 L609.3422,359.6469 L607.471,359.9685 L605.5245,359.7604 L603.6655,360.1677 L601.808,360.5858 L599.9197,360.7872 L599.8943,360.5169 L597.4973,361.1726 L595.0563,361.3594 L592.6043,361.4297 L590.1774,361.7662 L587.7344,361.9322 L587.7561,362.2554 L584.8415,361.9874 L581.9767,362.4596 L579.0923,362.6405 L576.2036,362.759 L573.3167,362.9015 L573.3198,362.964 L570.1008,363.1135 L566.8659,362.9477 L563.6525,363.2084 L560.4327,363.3431 L557.2246,363.7096 L557.2257,363.7379 L553.7845,363.8811 L550.3441,364.0461 L546.8947,363.9773 L543.4569,364.2089 L540.0164,364.3712 L540.0148,364.3178 L536.4707,364.7334 L532.9155,364.7726 L529.3501,364.4734 L525.8023,364.7626 L522.25,364.901 L522.2447,364.6445 L515.2577,365.1737 L508.2657,365.4604 L501.2702,365.5766 L494.2663,365.2856 L487.2754,365.6237 L487.2779,365.8298 L481.1694,365.3678 L475.0726,365.861 L468.9679,365.7133 L462.8681,365.9635 L456.7656,365.9947 L456.7662,366.1016 L450.8136,366.2358 L444.8577,365.7373 L438.9074,366.2998 L432.9535,366.1989 L427,366.151 L427,366.151 L427.0008,366.3089 L421.0486,366.4521 L415.0938,366.0909 L409.141,366.1351 L403.188,366.1209 L397.2344,365.9947 L397.2354,366.0824 L391.1324,365.9202 L385.0343,366.1622 L378.9252,365.5011 L372.8296,365.9491 L366.7246,365.6237 L366.7189,365.3464 L359.7247,365.239 L352.7351,365.3524 L345.7401,365.2026 L338.7404,364.8265 L331.75,364.901 L331.7555,365.0848 L328.1982,364.8434 L324.6531,365.0119 L321.099,364.8795 L317.531,364.278 L313.9836,364.3712 L313.9768,364.1945 L310.5398,364.1815 L307.1064,364.2645 L303.6656,364.1532 L300.2222,363.9757 L296.7754,363.7096 L296.7678,363.5578 L293.5712,363.8304 L290.3527,363.6677 L287.1191,363.2037 L283.8964,362.957 L280.6833,362.9015 L280.6714,362.7235 L277.7934,362.6125 L274.9204,362.5747 L272.0307,362.2896 L269.1367,361.9408 L266.2656,361.9322 L266.2859,362.1479 L263.8095,361.5002 L261.4124,361.6965 L258.9722,361.4343 L256.5328,361.1808 L254.0803,360.7872 L254.1236,361.0919 L252.186,360.4119 L250.3036,360.1208 L248.4759,360.2143 L246.5272,359.4562 L244.6855,359.4518 L244.6467,359.3553 L243.0676,358.8392 L241.4227,358.1598 L239.7146,357.3236 L238.13,356.7934 L236.5,356.151 L237.1619,356.151 L237.0764,348.225 L235.97,340.2991 L236.5698,332.3731 L236.0432,324.4471 L236.5,316.5212 " fill="none" style="stroke:#181818;stroke-width:4.0;"/><path d="M236.5,316.5212 L236.5,316.5212 L236.5349,316.6078 L238.0682,317.0105 L239.8063,317.9211 L241.4778,318.6664 L242.9299,318.8677 L244.6855,319.8219 L244.6807,319.7877 L246.5378,319.9014 L248.4195,320.1874 L250.3181,320.5932 L252.1581,320.5861 L254.0803,321.1574 L254.1033,321.4024 L256.4912,321.1075 L258.9462,321.5279 L261.4095,322.0355 L263.825,322.0355 L266.2656,322.3024 L266.2677,322.3327 L269.1482,322.4821 L272.038,322.7693 L274.9234,322.99 L277.8173,323.3375 L280.6833,323.2716 L280.6983,323.5695 L283.9169,323.7348 L287.1258,323.7079 L290.3489,323.9623 L293.5726,324.2298 L296.7754,324.0798 L296.7631,323.7595 L300.2286,324.5134 L303.6536,324.2127 L307.1095,324.7138 L310.5335,324.3892 L313.9836,324.7414 L313.9827,324.7109 L317.5467,325.1768 L321.0895,324.9316 L324.6449,325.106 L328.2012,325.3156 L331.75,325.2712 L331.7538,325.4561 L338.7449,325.414 L345.7425,325.6878 L352.7295,325.4504 L359.7323,325.9757 L366.7246,325.9938 L366.7276,326.2374 L372.829,326.2656 L378.9318,326.4147 L385.0279,326.0018 L391.1289,326.0009 L397.2344,326.3649 L397.2329,326.0887 L403.1874,326.37 L409.1402,326.3401 L415.0953,326.7615 L421.0465,326.4123 L427,326.5212 L427,326.5212 L426.9992,326.3687 L432.9537,326.5914 L438.9047,326.1623 L444.8582,326.1967 L450.814,326.6846 L456.7656,326.3649 L456.768,326.5585 L462.8715,326.6171 L468.9678,326.0735 L475.0732,326.2841 L481.1766,326.3304 L487.2754,325.9938 L487.2711,325.7839 L494.2694,325.8067 L501.2664,325.7607 L508.2661,325.8498 L515.255,325.4138 L522.25,325.2712 L522.2561,325.4767 L525.7959,324.9192 L529.3476,324.7584 L532.9165,325.177 L536.4536,324.5288 L540.0164,324.7414 L540.025,324.9674 L543.4615,324.7008 L546.8951,324.3577 L550.3353,324.1873 L553.7908,324.4158 L557.2246,324.0798 L557.2179,323.9469 L560.4562,324.1809 L563.6491,323.5112 L566.8936,323.869 L570.109,323.6482 L573.3167,323.2716 L573.324,323.3803 L576.2016,323.0987 L579.1054,323.2062 L581.9856,322.9622 L584.8559,322.5713 L587.7344,322.3024 L587.7455,322.4211 L590.166,322.0158 L592.6383,322.1614 L595.052,321.6839 L597.4898,321.4628 L599.9197,321.1574 L599.8816,320.8897 L601.7733,320.712 L603.7108,320.8568 L605.5834,320.5452 L607.4328,320.0701 L609.3145,319.8219 L609.2609,319.6891 L610.9152,319.0715 L612.4746,318.2188 L614.2947,318.0124 L615.9858,317.4862 L617.5,316.5212 " fill="none" style="stroke:#181818;stroke-width:4.0;"/><text fill="#000000" font-family="Chalkduster" font-size="24" lengthAdjust="spacing" textLength="361" x="246.5" y="354.362">Compiled Metadata Index</text></g><!--entity script--><g id="elem_script"><polygon fill="none" points="371,512.9712,371,513.1813,381.1379,512.5568,391.2759,513.1644,401.4138,513.3708,411.5517,512.2578,421.6897,512.8934,431.8276,512.5447,441.9655,512.5877,452.1034,512.903,462.2414,512.2798,472.3793,513.5248,482.5172,512.3409,492.6552,512.7734,502.7931,513.4031,512.931,512.8854,523.069,513.0394,533.2069,512.9392,543.3448,513.1497,553.4828,513.2103,563.6207,513.5569,573.7586,513.6422,583.8966,513.6504,594.0345,513.2258,604.1724,513.4347,614.3103,513.6734,624.4483,512.25,634.5862,513.6497,644.7241,512.6747,654.8621,513.505,665,512.9712,664.9369,512.8187,665.3448,513.0965,665.8017,513.4924,666.0544,513.3955,666.4276,513.5894,666.7678,513.7034,666.8721,513.7466,667.0424,514.11,667.0595,514.41,667.2956,514.8007,667.1773,515.0446,667.5,515.4712,667.7844,515.4712,668.0482,524.5971,667.9445,533.7231,668.113,542.8491,667.0169,551.975,667.5,561.101,667.2992,561.0178,667.1622,561.3753,667.189,561.8006,667.0001,562.1366,667.1241,562.6021,666.7678,562.8688,666.7455,562.815,666.3705,562.9096,666.0898,563.232,665.622,563.1027,665.2873,563.2947,665,563.601,665,564.2499,654.8621,564.0367,644.7241,564.3355,634.5862,563.2792,624.4483,563.9202,614.3103,564.1914,604.1724,563.1286,594.0345,563.5051,583.8966,563.727,573.7586,564.2528,563.6207,563.5968,553.4828,564.0636,543.3448,563.0472,533.2069,562.9237,523.069,564.1046,512.931,562.8841,502.7931,564.11,492.6552,563.8076,482.5172,563.3331,472.3793,563.2472,462.2414,564.0598,452.1034,563.3017,441.9655,564.1929,431.8276,563.0482,421.6897,564.2184,411.5517,564.0853,401.4138,563.846,391.2759,563.6482,381.1379,564.3276,371,563.601,371.0783,563.79,370.668,563.5067,370.3271,563.3907,369.9227,563.1215,369.6772,563.2358,369.2322,562.8688,369.2799,562.8885,369.1389,562.5372,368.752,562.0841,368.6681,561.7564,368.8099,561.5223,368.5,561.101,368.9298,561.101,368.4571,551.975,368.1778,542.8491,368.2811,533.7231,367.8138,524.5971,368.5,515.4712,368.6277,515.5241,368.8742,515.2119,368.955,514.8312,369.1534,514.4991,369.0437,514.0395,369.2322,513.7034,369.2434,513.7303,369.5363,513.4376,369.9756,513.498,370.3244,513.34,370.7169,513.2877,371,512.9712" style="stroke:#181818;stroke-width:4.0;"/><text fill="#000000" font-family="Chalkduster" font-size="24" lengthAdjust="spacing" textLength="279" x="378.5" y="546.812">Custom Index Script</text></g><!--entity ds--><g id="elem_ds"><polygon fill="none" points="192.5,163.8912,192.5,164.1013,202.4787,163.4768,212.4574,164.0844,222.4362,164.2908,232.4149,163.1778,242.3936,163.8134,252.3723,163.4647,262.3511,163.5077,272.3298,163.823,282.3085,163.1998,292.2872,164.4448,302.266,163.2609,312.2447,163.6934,322.2234,164.3231,332.2021,163.8054,342.1809,163.9594,352.1596,163.8592,362.1383,164.0697,372.117,164.1303,382.0957,164.4769,392.0745,164.5622,402.0532,164.5704,412.0319,164.1458,422.0106,164.3547,431.9894,164.5934,441.9681,163.17,451.9468,164.5697,461.9255,163.5947,471.9043,164.425,481.883,163.3961,491.8617,163.8227,501.8404,164.6328,511.8191,163.8424,521.7979,163.9965,531.7766,164.2298,541.7553,164.3074,551.734,163.8873,561.7128,164.1784,571.6915,163.3187,581.6702,164.1755,591.6489,164.4394,601.6277,164.3357,611.6064,164.5042,621.5851,163.4081,631.5638,163.239,641.5426,163.2698,651.5213,163.8323,661.5,163.8912,661.4749,163.8306,661.9405,164.2475,662.1848,164.1303,662.5169,164.2249,662.9433,164.5472,663.2678,164.6234,663.0624,164.5383,663.2543,164.9107,663.7605,165.4133,663.8413,165.7396,664.0797,166.1313,664,166.3912,663.6782,166.3912,664.3192,175.5171,664.5904,184.6431,663.5276,193.7691,663.9041,202.895,664,212.021,664.0388,212.0371,664.0543,212.4577,663.7058,212.7276,663.7031,213.1407,663.2437,213.3646,663.2678,213.7888,663.1814,213.5802,662.9785,214.0903,662.4692,213.8609,662.272,214.3848,661.8799,214.4382,661.5,214.521,661.5,214.2531,651.5213,214.1672,641.5426,214.9798,631.5638,214.2217,621.5851,215.1129,611.6064,213.9682,601.6277,215.1384,591.6489,215.0053,581.6702,214.766,571.6915,214.5682,561.7128,215.2476,551.734,215.1346,541.7553,214.6902,531.7766,214.7892,521.7979,214.3907,511.8191,215.2374,501.8404,214.6759,491.8617,214.6936,481.883,213.9126,471.9043,214.1158,461.9255,215.0517,451.9468,214.9508,441.9681,214.4781,431.9894,214.1988,422.0106,214.3021,412.0319,213.8348,402.0532,214.9357,392.0745,215.2606,382.0957,215.0474,372.117,215.2159,362.1383,214.3843,352.1596,214.6082,342.1809,214.1334,332.2021,214.805,322.2234,214.7678,312.2447,215.0734,302.266,214.2913,292.2872,214.3866,282.3085,214.9645,272.3298,215.0883,262.3511,214.0085,252.3723,214.3271,242.3936,214.6703,232.4149,213.9101,222.4362,214.8744,212.4574,214.779,202.4787,214.4202,192.5,214.521,192.5181,214.5648,192.2394,214.599,191.753,214.1317,191.4795,214.1787,191.1222,214.0232,190.7322,213.7888,190.7679,213.8035,190.6292,213.4532,190.4743,213.0961,190.1007,212.6485,190.023,212.3234,190,212.021,189.5385,212.021,190.0638,202.895,190.0881,193.7691,190.1617,184.6431,189.709,175.5171,190,166.3912,189.9792,166.3825,190.1094,166.0223,190.4705,165.7576,190.5707,165.3849,190.4363,164.915,190.7322,164.6234,190.7229,164.6009,191.0122,164.2992,191.4761,164.4193,191.8705,164.3714,192.2159,164.2053,192.5,163.8912" style="stroke:#181818;stroke-width:4.0;"/><text fill="#000000" font-family="Chalkduster" font-size="24" lengthAdjust="spacing" textLength="454" x="200" y="197.732">Lightweight (eg Datasette) Portal</text></g><!--entity cl--><g id="elem_cl"><polygon fill="none" points="25.5,512.9712,25.5,513.1813,35.3387,512.5568,45.1774,513.1644,55.0161,513.3708,64.8548,512.2578,74.6935,512.8934,84.5323,512.5447,94.371,512.5877,104.2097,512.903,114.0484,512.2798,123.8871,513.5248,133.7258,512.3409,143.5645,512.7734,153.4032,513.4031,163.2419,512.8854,173.0806,513.0394,182.9194,512.9392,192.7581,513.1497,202.5968,513.2103,212.4355,513.5569,222.2742,513.6422,232.1129,513.6504,241.9516,513.2258,251.7903,513.4347,261.629,513.6734,271.4677,512.25,281.3065,513.6497,291.1452,512.6747,300.9839,513.505,310.8226,512.4761,320.6613,512.9027,330.5,512.9712,330.5946,513.1995,330.8473,513.1026,331.2205,513.2965,331.6039,513.5148,331.9673,513.6851,332.2678,513.7034,332.2666,513.7029,332.5027,514.0936,332.3844,514.3375,332.7947,514.8003,333.0224,515.1875,333,515.4712,333.4445,515.4712,333.613,524.5971,332.5169,533.7231,332.3478,542.8491,332.3786,551.975,333,561.101,332.9819,561.0935,332.793,561.4295,332.917,561.895,332.5069,562.1394,332.3086,562.4714,332.2678,562.8688,332.2969,562.9391,331.8292,562.8098,331.4944,563.0018,331.2899,563.508,330.9091,563.5887,330.5,563.601,330.5,564.3355,320.6613,563.2792,310.8226,563.9202,300.9839,564.1914,291.1452,563.1286,281.3065,563.5051,271.4677,563.727,261.629,564.2528,251.7903,563.5968,241.9516,564.0636,232.1129,563.0472,222.2742,562.9237,212.4355,564.1046,202.5968,562.8841,192.7581,564.11,182.9194,563.8076,173.0806,563.3331,163.2419,563.2472,153.4032,564.0598,143.5645,563.3017,133.7258,564.1929,123.8871,563.0482,114.0484,564.2184,104.2097,564.0853,94.371,563.846,84.5323,563.6482,74.6935,564.3276,64.8548,564.2146,55.0161,563.7702,45.1774,563.8692,35.3387,563.4707,25.5,563.601,25.5914,563.8216,25.1662,563.5022,24.8149,563.3612,24.3617,562.9743,24.0341,562.8904,23.7322,562.8688,23.8957,562.9365,23.7181,562.57,23.4261,562.1562,23.1937,561.767,23.079,561.4266,23,561.101,22.3138,561.101,23.4147,551.975,23.7396,542.8491,23.5264,533.7231,23.6949,524.5971,23,515.4712,22.9579,515.4537,23.1733,515.1287,23.1735,514.7146,23.5268,514.4467,23.6618,514.0884,23.7322,513.7034,23.8027,513.8735,24.0565,513.4862,24.4222,513.3691,24.8495,513.4006,25.2188,513.2923,25.5,512.9712" style="stroke:#181818;stroke-width:4.0;"/><text fill="#000000" font-family="Chalkduster" font-size="24" lengthAdjust="spacing" textLength="290" x="33" y="546.812">Commandline Access</text></g><!--entity 1--><g id="elem_1"><polygon fill="none" points="682,886.0412,682,886.1112,688,885.9031,694,886.1056,700,886.1744,706,885.8034,712,886.0412,711.9901,886.0172,712.2991,886.0563,712.6582,886.216,713.052,886.4595,713.326,886.414,713.7678,886.7734,713.9383,886.844,713.7201,887.0465,713.9998,887.4553,714.3401,887.8892,714.3271,888.1767,714.5,888.5412,714.5682,888.5412,714.4681,897.6671,714.6785,906.7931,714.7391,915.9191,715.0857,925.045,714.5,934.171,714.7067,934.2566,714.5627,934.6112,714.2855,934.9106,714.2034,935.2908,714.1305,935.6748,713.7678,935.9388,713.6758,935.7167,713.5008,936.2942,713.0228,936.1403,712.7752,936.5425,712.2904,936.3721,712,936.671,712,936.6482,706,936.9182,700,936.6547,694,936.7061,688,936.7839,682,936.671,682.0531,936.7992,681.6459,936.5233,681.3295,936.4666,680.8663,936.0554,680.6221,936.1728,680.2322,935.9388,680.4011,936.0087,680.2227,935.6419,680.1281,935.3099,679.6441,934.8165,679.4456,934.4414,679.5,934.171,678.8786,934.171,679.4411,925.045,679.3035,915.9191,680.1814,906.7931,679.3253,897.6671,679.5,888.5412,679.3944,888.4974,679.7167,888.2167,679.5875,887.749,679.7795,887.4143,680.2856,887.2097,680.2322,886.7734,680.2878,886.9076,680.6795,886.8531,680.8983,886.3814,681.3336,886.4324,681.7218,886.3694,682,886.0412" style="stroke:#181818;stroke-width:4.0;"/><text fill="#000000" font-family="Chalkduster" font-size="24" lengthAdjust="spacing" textLength="15" x="689.5" y="919.882">1</text></g><!--entity 1000--><g id="elem_1000"><polygon fill="none" points="561.5,886.0412,561.5,886.2513,571.625,885.6268,581.75,886.2344,591.875,886.4408,602,885.3278,612.125,885.9634,622.25,885.6147,632.375,885.6577,642.5,886.0412,642.4913,886.0202,642.7654,885.9747,643.2777,886.5046,643.4803,886.2864,643.889,886.566,644.2678,886.7734,644.4008,886.8285,644.3878,887.116,644.5817,887.4892,644.6973,887.83,644.9085,888.2104,645,888.5412,645.2391,888.5412,645.5857,897.6671,645.6711,906.7931,645.6793,915.9191,645.2546,925.045,645,934.171,645.1428,934.2301,645.0698,934.6141,644.485,934.7861,644.7696,935.3182,644.3229,935.5474,644.2678,935.9388,644.3359,936.1032,643.8511,935.9328,643.5519,936.2106,643.3017,936.6065,642.8473,936.5095,642.5,936.671,642.5,936.7763,632.375,937.0096,622.25,937.0872,612.125,936.6671,602,936.9582,591.875,936.0986,581.75,936.9554,571.625,937.2192,561.5,936.671,561.5567,936.8079,561.2246,936.7133,560.7313,936.2293,560.3561,936.0308,560.0065,935.8938,559.7322,935.9388,559.7141,935.9313,559.5253,935.5601,559.6492,935.3186,559.2391,934.8558,559.0408,934.4808,559,934.171,559.2283,934.171,558.3332,925.045,558.4809,915.9191,559.649,906.7931,559.4357,897.6671,559,888.5412,559.2262,888.6349,559.0473,888.1466,559.3912,887.8748,559.6212,887.5558,559.4403,887.0667,559.7322,886.7734,559.72,886.7439,560.1019,886.6657,560.5225,886.6812,560.7924,886.3328,561.2055,886.3301,561.5,886.0412" style="stroke:#181818;stroke-width:4.0;"/><text fill="#000000" font-family="Chalkduster" font-size="24" lengthAdjust="spacing" textLength="66" x="569" y="919.882">1000</text></g><!--link ds to sqlite--><g id="link_ds_sqlite"><path d="M427,214.8312 L427.2802,214.8312 L426.4476,224.3234 L427.2577,233.8156 L427.5329,243.3078 L426.0488,252.8 L426.8964,262.2923 L426.4313,271.7845 L426.4887,281.2767 L426.9091,290.7689 L427,300.2612 " fill="none" style="stroke:#8B0000;stroke-width:4.0;"/><polygon fill="#8B0000" points="427,305.0912,427.064,305.1196,427.6738,303.2351,428.6589,301.5173,429.5217,299.7453,429.9827,297.7946,431,296.0912,430.9817,296.0728,430.0995,296.7906,429.3096,297.6008,428.5839,298.4751,427.637,299.1282,427,300.0912,427.1305,300.2217,426.0514,299.1426,425.3534,298.4445,424.7018,297.793,423.7798,296.8709,423,296.0912,423.0208,296.1004,423.7903,297.8868,424.6544,299.7153,425.4728,301.5235,426.3784,303.3705,427,305.0912" style="stroke:#8B0000;stroke-width:4.0;"/><text fill="#000000" font-family="Chalkduster" font-size="24" lengthAdjust="spacing" textLength="81" x="428" y="269.362">Index</text></g><!--reverse link sqlite to cl--><g id="link_sqlite_cl"><path d="M230.23,353.5312 L230.2462,353.6232 L226.2193,354.0492 L222.2872,355.0146 L218.3243,355.8043 L214.2598,356.0165 L210.3359,357.0281 L210.3289,356.9943 L206.483,357.6351 L202.6727,358.4463 L198.8869,359.376 L195.0163,359.8973 L191.2645,360.9907 L191.3238,361.2295 L187.6076,361.6102 L184.0645,362.6881 L180.5426,363.8511 L176.8977,364.5192 L173.3175,365.4475 L173.3262,365.4766 L170.0091,366.4299 L166.7319,367.5155 L163.4354,368.5372 L160.1756,369.6807 L156.7963,370.4274 L156.9007,370.7068 L153.9432,371.8165 L150.9183,372.746 L147.9921,373.9393 L145.0704,375.145 L142.0024,375.959 L141.8639,375.6699 L139.5796,377.4534 L136.8394,378.2849 L134.4458,379.8402 L131.6953,380.6502 L129.2373,382.071 L129.2209,382.0454 L127.3289,383.6923 L125.0518,384.7413 L123.0019,386.143 L120.9711,387.5745 L118.8027,388.7922 L118.9296,388.9267 L117.241,390.2627 L115.7692,391.8286 L113.9465,393.0225 L112.6473,394.7713 L111,396.1512 L111.2115,396.2722 L109.5715,399.0456 L108.0364,401.8792 L106.0136,404.4336 L104.3483,407.1926 L102.9999,410.1329 L102.7273,410.0884 L102.4846,413.126 L101.9349,416.1133 L101.8305,419.1735 L100.9656,422.1094 L100.5528,425.1191 L100.4018,425.098 L101.0895,428.2468 L101.1317,431.3053 L101.6329,434.428 L102.5832,437.6137 L102.7337,440.6873 L102.9151,440.7551 L104.2162,443.9472 L104.9533,446.9282 L106.3969,450.1736 L107.6865,453.3613 L108.6175,456.4149 L108.4343,456.3123 L110.3126,459.487 L112.131,462.6281 L114.0672,465.8353 L115.5452,468.7857 L117.2791,471.8796 L117.4466,471.9988 L119.1814,474.6927 L121.2396,477.6168 L123.7701,480.8769 L125.4309,483.5183 L127.7934,486.6588 L127.9669,486.804 L130.1523,489.452 L132.2789,492.0509 L134.5381,494.7607 L137.1034,497.7268 L139.2354,500.3302 L139.1386,500.2389 L141.7158,502.9388 L143.6345,505.0181 L146.3019,507.803 L148.5477,510.1906 L150.68,512.4712 " fill="none" style="stroke:#8B0000;stroke-width:4.0;"/><polygon fill="#8B0000" points="235.14,352.6012,235.1581,352.6689,233.2011,351.9602,231.3501,351.6484,229.4645,351.2074,227.4656,350.3414,225.6236,350.0637,225.6084,350.0427,226.4558,350.6131,227.3799,351.2892,228.3573,352.0387,229.151,352.5351,230.202,353.3861,230.3514,353.4945,229.3675,354.1784,228.8197,355.1787,228.3251,356.2177,227.5209,357.032,226.8796,357.9645,226.8919,357.9835,228.5258,356.8829,230.2161,355.8691,231.8792,354.8133,233.5942,353.8376,235.14,352.6012" style="stroke:#8B0000;stroke-width:4.0;"/><text fill="#000000" font-family="Chalkduster" font-size="24" lengthAdjust="spacing" textLength="494" x="112" y="420.992">Query for lists of object of interest</text></g><!--link cl to api2--><g id="link_cl_api2"><path d="M199.3,564.0812 L199.3688,564.1443 L201.4542,566.4532 L203.9431,569.1322 L206.3006,571.6907 L208.2259,573.8528 L210.7495,576.5636 L210.7245,576.5397 L213.2945,579.2323 L215.9902,582.0454 L218.7733,584.9421 L221.2551,587.5504 L224.1589,590.5627 L224.3335,590.7361 L225.4327,591.8477 L227.0417,593.4656 L228.7128,595.1453 L230.0221,596.4655 L231.5217,597.9748 L231.543,597.9965 L233.0639,599.4854 L234.6815,601.073 L236.2525,602.613 L237.9124,604.2437 L239.2823,605.5785 L239.4879,605.7946 L241.1159,607.3438 L242.6114,608.7537 L244.3009,610.3676 L245.9995,611.991 L247.4099,613.3115 L247.1927,613.0758 L249.307,615.0932 L250.7061,616.3345 L252.649,618.1658 L254.0319,619.3894 L255.8737,621.1112 L255.8535,621.0884 L257.8467,622.9182 L259.3671,624.2165 L261.1665,625.8285 L262.9893,627.4667 L264.6431,628.915 L264.7634,629.0555 L266.4508,630.4628 L268.3438,632.1102 L269.9041,633.3692 L271.9606,635.2075 L273.6872,636.6607 L273.8418,636.849 L275.6702,638.3383 L277.5753,639.9212 L279.1239,641.0696 L280.9338,642.5365 L282.9753,644.2855 L282.805,644.0681 L284.8595,645.7532 L286.722,647.1934 L288.8629,648.9889 L290.5286,650.1777 L292.4767,651.7271 L292.3858,651.6047 L294.474,653.2477 L296.1735,654.3676 L298.1495,655.8594 L300.3959,657.7153 L302.1606,658.923 L302.2717,659.0816 L304.315,660.5679 L306.0129,661.5609 L308.1434,663.1717 L310.1797,664.648 L311.9963,665.8106 L311.8813,665.6349 L313.9643,667.0783 L316.0097,668.4642 L318.129,669.9631 L319.9607,671.0225 L321.953,672.3275 L322.0595,672.5033 L323.8349,673.3337 L325.8159,674.5035 L328.0971,676.1691 L329.8256,676.9219 L332,678.4112 L332.1073,678.6103 L334.9829,680.0762 L337.8221,681.4748 L340.7433,683.0254 L343.854,684.9275 L346.6966,686.3323 L346.6399,686.2119 L349.8832,688.0163 L352.7414,689.002 L356.0374,690.9187 L359.0869,692.3112 L362.07,693.5624 L362.1118,693.6629 L365.2322,694.8932 L368.5024,696.4834 L371.6373,697.7484 L374.7156,698.8775 L377.8409,700.1194 L377.8824,700.2312 L380.9986,701.2455 L384.3074,702.7786 L387.3983,703.725 L390.5789,704.9127 L393.73,706.0212 " fill="none" style="stroke:#8B0000;stroke-width:4.0;"/><polygon fill="#8B0000" points="398.39,707.9712,398.4378,708.0224,396.8545,706.5276,395.5512,705.3332,394.1567,704.041,392.4624,702.427,391.1831,701.2584,391.1598,701.2471,391.5512,702.213,392.06,703.2362,392.6503,704.2992,392.9595,705.2251,393.6625,706.343,393.7434,706.5088,392.5535,706.65,391.5998,707.2755,390.6749,707.96,389.5824,708.3008,388.578,708.8224,388.58,708.8451,390.5395,708.6415,392.5079,708.5412,394.4721,708.3911,396.4445,708.3359,398.39,707.9712" style="stroke:#8B0000;stroke-width:4.0;"/><text fill="#000000" font-family="Chalkduster" font-size="24" lengthAdjust="spacing" textLength="150" x="333" y="655.752">Fetch data</text></g><!--link script to api2--><g id="link_script_api2"><path d="M508.56,563.8912 L508.6486,563.9207 L507.601,566.1886 L507.0729,568.6295 L506.3756,571.0141 L505.1219,573.2134 L504.6384,575.6691 L504.6053,575.6593 L503.6945,578.1935 L502.9506,580.7771 L502.3228,583.395 L501.295,585.8946 L500.8275,588.5599 L501.0663,588.6192 L499.8887,591.1797 L499.4083,593.9133 L499.013,596.668 L498.1227,599.2999 L497.4928,601.9963 L497.5226,602.0019 L496.9803,604.6767 L496.5737,607.3768 L496.1016,610.0646 L495.7545,612.7757 L495,615.4112 L495.2966,615.4421 L494.9335,618.9612 L494.3791,622.4603 L494.1047,625.9887 L493.8434,629.5184 L493.1663,633.0048 L492.8457,633.0045 L493.4701,635.7645 L493.039,638.5237 L493.4102,641.2835 L492.9552,644.0427 L493.1775,646.8024 L493.1471,646.8004 L493.6909,649.5947 L493.5249,652.3418 L493.7777,655.1167 L494.0657,657.894 L494.1,660.6544 L494.2848,660.6638 L494.2783,664.2057 L494.5875,667.7636 L494.3859,671.2956 L494.9462,674.8662 L495,678.4112 L495.2435,678.42 L495.2837,680.8053 L495.4448,683.195 L495.0442,685.5644 L495.0553,687.9487 L495.4313,690.3462 L495.1554,690.3326 L495.5229,692.7379 L495.5795,695.1279 L496.087,697.54 L495.8247,699.9143 L496.02,702.3112 " fill="none" style="stroke:#8B0000;stroke-width:4.0;"/><polygon fill="#8B0000" points="496.35,707.1312,496.4155,707.1559,496.9168,705.2397,497.8023,703.4685,498.5627,701.6501,498.9116,699.6763,499.83,697.9176,499.8107,697.9004,498.9709,698.6673,498.2285,699.5212,497.5539,700.4355,496.6458,701.1416,496.0648,702.1393,496.1876,702.277,495.0806,701.2295,494.3322,700.584,493.6276,699.9876,492.6684,699.1057,491.8431,698.374,491.8633,698.3844,492.735,700.1206,493.6988,701.9041,494.6181,703.6648,495.6222,705.4691,496.35,707.1312" style="stroke:#8B0000;stroke-width:4.0;"/><text fill="#000000" font-family="Chalkduster" font-size="24" lengthAdjust="spacing" textLength="244" x="496" y="655.752">Query all records</text></g><!--reverse link sqlite to script--><g id="link_sqlite_script"><path d="M586.93,369.7812 L586.9878,369.8546 L589.8489,372.023 L593.0486,374.6217 L596.1381,377.0803 L598.8649,379.078 L602.0938,381.7137 L602.068,381.6906 L604.5337,384.4748 L607.1292,387.3751 L609.8149,390.356 L612.1897,393.0589 L615,396.1512 L615.2212,396.259 L616.2424,399.0921 L617.9093,402.2402 L619.655,405.4266 L620.9424,408.3896 L622.4708,411.47 L622.5011,411.4721 L622.6719,414.6163 L622.9805,417.7698 L623.2226,420.9189 L623.5915,424.0766 L623.547,427.206 L623.8351,427.2833 L622.9891,430.4509 L621.9573,433.5686 L621.1975,436.7593 L620.4504,439.9535 L619.2994,443.0392 L619.0179,442.8859 L617.8641,446.3056 L615.7834,449.2205 L614.4074,452.5191 L612.3057,455.4226 L610.7988,458.6499 L610.7747,458.6313 L608.7226,461.8655 L606.1084,464.664 L603.8259,467.7196 L601.5713,470.7968 L599.1157,473.7183 L599.2484,473.8471 L596.3556,476.5583 L593.6895,479.4897 L590.6564,482.0647 L588.1707,485.1713 L585.3211,487.9244 L585.4818,488.1075 L582.4843,490.6778 L579.5666,493.3389 L576.2782,495.5776 L573.2615,498.126 L570.4856,500.9487 L570.316,500.7307 L567.5084,503.2325 L564.5097,505.4887 L561.7882,508.1012 L558.5934,510.1054 L555.68,512.4712 " fill="none" style="stroke:#8B0000;stroke-width:4.0;"/><polygon fill="#8B0000" points="582.91,366.5912,582.9684,366.6299,583.8829,368.1569,585.1397,369.9108,586.2851,371.5908,587.0638,373.0279,588.3501,374.8013,588.3248,374.7957,587.9666,373.6659,587.7358,372.5644,587.5938,371.4826,587.1462,370.3331,587.1265,369.2783,587.1665,369.4585,588.1857,368.8285,589.3215,368.7245,590.4715,368.6848,591.5387,368.2716,592.6495,368.0548,592.6529,368.0773,590.7,367.7515,588.7625,367.5282,586.8176,367.2554,584.8869,367.077,582.91,366.5912" style="stroke:#8B0000;stroke-width:4.0;"/><text fill="#000000" font-family="Chalkduster" font-size="24" lengthAdjust="spacing" textLength="259" x="624" y="420.992">Build metadata DB</text></g><!--link api2 to stor3--><g id="link_api2_stor3"><path d="M498,765.3312 L498.0934,765.3312 L497.8159,773.9542 L498.0859,782.5772 L498.1776,791.2002 L497.6829,799.8232 L498,808.4462 L497.9655,808.4462 L497.8104,809.0354 L497.8296,809.6246 L497.9697,810.2138 L497.6927,810.803 L498,811.3922 L498.2461,811.3922 L497.7199,811.6877 L497.9121,811.9831 L498.192,812.2786 L497.9619,812.5741 L498,812.8696 L498.0303,812.8696 L497.9858,813.0176 L498.0793,813.1655 L498.1063,813.3134 L498.2603,813.4614 L498,813.6093 " fill="none" style="stroke:#8B0000;stroke-width:4.0;"/><polygon fill="#8B0000" points="498,760.5212,498.064,760.5496,497.0738,762.2651,496.4589,764.1473,495.7217,765.9753,494.5827,767.6246,494,769.5212,493.9817,769.5028,494.6995,768.6206,495.5096,767.8308,496.3839,767.1051,497.037,766.1582,498,765.5212,498.1305,765.6517,498.6514,766.1726,499.5534,767.0745,500.5018,768.023,501.1798,768.7009,502,769.5212,502.0208,769.5304,501.1903,767.7168,500.4544,765.9453,499.6728,764.1535,498.9784,762.4005,498,760.5212" style="stroke:#8B0000;stroke-width:4.0;"/><polygon fill="#8B0000" points="498,813.6093,498.064,813.6377,498.6738,811.7532,499.6589,810.0355,500.5217,808.2634,500.9827,806.3127,502,804.6093,501.9817,804.591,501.0995,805.3088,500.3096,806.1189,499.5839,806.9932,498.637,807.6463,498,808.6093,498.1305,808.7398,497.0514,807.6607,496.3534,806.9627,495.7018,806.3111,494.7798,805.3891,494,804.6093,494.0208,804.6185,494.7903,806.405,495.6544,808.2335,496.4728,810.0417,497.3784,811.8886,498,813.6093" style="stroke:#8B0000;stroke-width:4.0;"/></g><!--link i3 to api2--><g id="link_i3_api2"><path d="M782.99,583.9112 L783.0827,583.9227 L782.5118,586.2678 L782.4843,588.6804 L782.2799,591.071 L781.4935,593.3894 L781.5127,595.8077 L781.4786,595.8018 L780.8915,598.2629 L780.4759,600.7539 L780.1796,603.2657 L779.4723,605.7057 L779.3406,608.2463 L779.5802,608.3027 L778.4706,610.7217 L778.0604,613.3052 L777.7355,615.9088 L776.9141,618.3956 L776.3539,620.9439 L776.3829,620.9528 L775.5561,623.4744 L774.8611,626.0367 L774.1026,628.5794 L773.4655,631.1596 L772.4325,633.6174 L772.7092,633.7287 L771.7174,636.2034 L770.547,638.6063 L769.638,641.1142 L768.7412,643.6271 L767.4564,645.9839 L767.1723,645.8355 L766.4935,648.4788 L764.8793,650.6335 L763.9762,653.1596 L762.3408,655.3032 L761.3056,657.7604 L761.2805,657.7432 L760.0887,660.1269 L758.3096,662.1095 L756.877,664.3288 L755.4735,666.568 L753.8602,668.6638 L753.997,668.7882 L752.0868,670.6121 L750.4106,672.6486 L748.3558,674.3411 L746.8656,676.5467 L745,678.4112 L745.1389,678.6113 L742.6198,680.3036 L740.1696,682.0953 L737.399,683.4252 L734.8632,685.0937 L732.5356,687.0619 L732.4227,686.8099 L729.0293,688.6042 L725.5087,690.1144 L722.1726,692.0366 L718.5214,693.2555 L715.0575,694.8924 L715.007,694.7486 L713.0343,695.7109 L710.8456,696.0583 L708.8106,696.843 L706.9259,698.0555 L704.7734,698.5062 L704.8302,698.6913 L702.6421,699.5015 L700.2774,699.7359 L698.1339,700.6915 L695.9421,701.4899 L693.6381,701.9223 L693.5831,701.7196 L691.2565,702.5253 L688.9118,703.2646 L686.6026,704.1343 L684.1556,704.4971 L681.7856,705.1431 L681.8343,705.3428 L679.2403,705.5096 L676.7402,706.0619 L674.3772,707.1774 L671.7617,707.256 L669.35,708.1712 " fill="none" style="stroke:#8B0000;stroke-width:4.0;"/><polygon fill="#8B0000" points="664.88,709.4112,664.8937,709.4799,666.7851,709.6596,668.7566,710.2421,670.702,710.6935,672.5617,710.7135,674.54,711.3306,674.5262,711.3087,673.5075,710.6062,672.5586,710.0142,671.6582,709.4989,670.5907,708.7192,669.7572,708.3099,669.9132,708.4084,670.1837,707.2411,670.9098,706.3615,671.6914,705.5171,672.1496,704.4683,672.7779,703.527,672.7915,703.5453,671.192,704.6953,669.6543,705.9284,668.0868,707.1214,666.5762,708.3909,664.88,709.4112" style="stroke:#8B0000;stroke-width:4.0;"/><text fill="#000000" font-family="Chalkduster" font-size="24" lengthAdjust="spacing" textLength="81" x="796" y="640.252">Index</text><text fill="#000000" font-family="Chalkduster" font-size="24" lengthAdjust="spacing" textLength="129" x="778" y="670.8819">Storage 3</text></g><!--SRC=[TLF1QkCm4BthAsPzQg5EqtfF8GJSX4AX2rroBIoADKcrbIMlDDx4XFxxZkIuSSjM1o4FxytCUpF-fcrbMeM_Qcaxc4okbIIPyuVSOOsMya2TmGaTI90cWpDOCG2ssYgvqKPJ1_jhg5pTQ8CAE8m73C9ZHTBk349Mje6aUOMBhVE01rat1Yyp01b0-ke5vdEFZGkQdEyM2pWA0V6CCgpveQHNyBYIonBMc7XFpdFUBEPfYcDFuXFxtyZ0j8VOo-pPmitLxLK1tnDK5mdvrbSvWvU3WXz8CeOXqHCd_66TE7HseexwMx92L_S4M5TUDzJpqlDhtgFUlT0UumqNk4lE1YJ2ox4u5U3uLM5NywIKqHQXh2eC8J4gSwuPxy-q7WfBPyax4qMNJm-9AHjzAmR6sPnXX2NxhlzA0siU5lOQ-LN0sVvHcPlilz7fT9gTcdiJB2vNRc_pnU3ohFTHi8YyRSRndotw3k8M6HqeWDk2s_pcpF6bBQ77G8ctI4AOSe_4cnA5YDCmXcedG9zJ6XDRT5w5Tzp7sdUjDWhgOJTMTo8bcByt7sqGGXUV2_HByMoZO_nB0OE4-0S0]--></g></svg>