<?xml version="1.0" encoding="UTF-8" standalone="no"?><svg xmlns="http://www.w3.org/2000/svg" xmlns:xlink="http://www.w3.org/1999/xlink" contentStyleType="text/css" height="808px" preserveAspectRatio="none" style="width:1065px;height:808px;background:#FFFFFF;" version="1.1" viewBox="0 0 1065 808" width="1065px" zoomAndPan="magnify"><defs/><g><text fill="#000000" font-family="Chalkduster" font-size="42" font-weight="bold" lengthAdjust="spacing" textLength="586" x="232.5" y="51.7215">OCFL contains RO-Crate</text><!--cluster arch--><g id="cluster_arch"><polygon fill="#98FB98" points="9.5,437.8912,9.5,438.1013,19.629,437.4768,29.7581,438.0844,39.8871,438.2908,50.0161,437.1778,60.1452,437.8134,70.2742,437.4647,80.4032,437.5077,90.5323,437.823,100.6613,437.1998,110.7903,438.4448,120.9194,437.2609,131.0484,437.6934,141.1774,438.3231,151.3065,437.8054,161.4355,437.9594,171.5645,437.8592,181.6935,438.0697,191.8226,438.1303,201.9516,438.4769,212.0806,438.5622,222.2097,438.5704,232.3387,438.1458,242.4677,438.3547,252.5968,438.5934,262.7258,437.17,272.8548,438.5697,282.9839,437.5947,293.1129,438.425,303.2419,437.3961,313.371,437.8227,323.5,437.8912,323.5946,438.1195,323.8473,438.0226,324.2205,438.2165,324.6039,438.4348,324.9673,438.6051,325.2678,438.6234,325.2666,438.6229,325.5027,439.0136,325.3844,439.2575,325.7947,439.7203,326.0224,440.1075,326,440.3912,326.4445,440.3912,326.613,450.3912,325.5169,460.3912,325.3478,470.3912,325.3786,480.3912,325.9411,490.3912,325.8035,500.3912,326.6814,510.3912,325.8253,520.3912,325.6569,530.3912,326.2283,540.3912,325.3332,550.3912,325.4809,560.3912,326.649,570.3912,326.4357,580.3912,326.7345,590.3912,325.6782,600.3912,326.3192,610.3912,326.5904,620.3912,325.5276,630.3912,325.9041,640.3912,326.126,650.3912,326.6518,660.3912,325.9958,670.3912,326.4626,680.3912,325.4462,690.3912,325.3227,700.3912,326.5036,710.3912,325.2831,720.3912,326.509,730.3912,326.2066,740.3912,325.7321,750.3912,325.6462,760.3912,326.4588,770.3912,325.7007,780.3912,326.5919,790.3912,326,800.3912,325.8298,800.3207,326.0437,800.8235,325.8563,801.16,325.6361,801.4831,325.4288,801.8114,325.2678,802.1589,325.3605,802.3827,324.9925,802.4943,324.5823,802.5039,324.2413,802.6809,323.8369,802.7046,323.5,802.8912,323.5,803.6076,313.371,803.046,303.2419,803.0637,293.1129,802.2828,282.9839,802.4859,272.8548,803.4219,262.7258,803.3209,252.5968,802.8482,242.4677,802.569,232.3387,802.6722,222.2097,802.205,212.0806,803.3059,201.9516,803.6307,191.8226,803.4176,181.6935,803.5861,171.5645,802.7544,161.4355,802.9784,151.3065,802.5036,141.1774,803.1752,131.0484,803.1379,120.9194,803.4435,110.7903,802.6615,100.6613,802.7568,90.5323,803.3346,80.4032,803.4585,70.2742,802.3786,60.1452,802.6973,50.0161,803.0404,39.8871,802.2803,29.7581,803.2446,19.629,803.1492,9.5,802.8912,9.4871,802.8601,9.1646,802.7885,8.8858,802.8227,8.3994,802.3555,8.126,802.4024,7.7322,802.1589,7.8202,802.1954,7.6214,801.8201,7.4827,801.4698,7.3278,801.1127,6.9542,800.6651,7,800.3912,6.5992,800.3912,6.5385,790.3912,7.0638,780.3912,7.0881,770.3912,7.1617,760.3912,6.709,750.3912,6.9325,740.3912,6.8798,730.3912,7.5769,720.3912,7.4266,710.3912,6.5145,700.3912,6.9271,690.3912,6.4228,680.3912,7.2884,670.3912,7.6085,660.3912,7.5446,650.3912,6.5644,640.3912,7.464,630.3912,6.2572,620.3912,7.2002,610.3912,6.7007,600.3912,7.0967,590.3912,7.2403,580.3912,7.4721,570.3912,6.2801,560.3912,7.4755,550.3912,7.1782,540.3912,7.3553,530.3912,7.7478,520.3912,7.0055,510.3912,7.1753,500.3912,7.2134,490.3912,7.1972,480.3912,6.9992,470.3912,7.7107,460.3912,6.3903,450.3912,7,440.3912,7.1741,440.4633,6.9543,439.958,7.1265,439.6151,7.4517,439.3356,7.5945,438.9806,7.7322,438.6234,7.6694,438.4716,8.1386,438.6044,8.4532,438.364,8.8856,438.4078,9.2315,438.243,9.5,437.8912" style="stroke:#181818;stroke-width:4.0;"/><text fill="#000000" font-family="Chalkduster" font-size="24" font-style="italic" lengthAdjust="spacing" textLength="169" x="82" y="463.732">«repository»</text><text fill="#000000" font-family="Chalkduster" font-size="24" font-weight="bold" lengthAdjust="spacing" textLength="69" x="132" y="494.3619">OCFL</text></g><!--cluster stor--><g id="cluster_stor"><path d="M39,633.8912 L39,633.8912 L39.0482,633.9712 L40.0007,633.0733 L41.2357,632.6444 L42.3788,632.0628 L43.2192,630.979 L44.4785,630.5904 L44.4727,630.5563 L47.3351,629.9075 L50.227,629.4302 L53.1394,629.0722 L55.9812,628.3032 L58.9219,628.1099 L58.9465,628.3547 L60.8238,627.6373 L62.773,627.6348 L64.7309,627.7194 L66.6378,627.2966 L68.5715,627.1407 L68.5738,627.1709 L70.7245,626.9649 L72.8856,626.8966 L75.0416,626.7618 L77.2072,626.7538 L79.3418,626.3326 L79.3589,626.6303 L81.6626,626.5016 L83.9552,626.1809 L86.264,626.1413 L88.5736,626.1149 L90.8591,625.6709 L90.8449,625.3507 L93.2507,625.8663 L95.6096,625.3274 L98.0042,625.5901 L100.362,625.0273 L102.75,625.1412 L102.7491,625.1107 L107.4418,625.3261 L112.1126,624.8304 L116.7964,624.7543 L121.4812,624.7135 L126.1582,624.4185 L126.1616,624.6035 L130.2422,624.3426 L134.3285,624.3977 L138.4055,623.9415 L142.4964,624.248 L146.5781,624.0474 L146.58,624.291 L150.564,624.2137 L154.549,624.2574 L158.5296,623.739 L162.5134,623.6326 L166.5,623.8912 L166.5,623.8912 L166.4978,623.615 L170.4842,623.8962 L174.4681,623.8663 L178.4555,624.2878 L182.4369,623.9385 L186.4219,624.0474 L186.4191,623.895 L190.5077,624.2231 L194.5845,623.8995 L198.6696,624.0394 L202.7631,624.6327 L206.8418,624.4185 L206.8478,624.612 L211.5335,624.8893 L216.2007,624.5646 L220.8911,624.9939 L225.5765,625.2589 L230.25,625.1412 L230.2407,624.9314 L232.6263,625.2046 L235.0088,625.409 L237.3974,625.7484 L239.7626,625.5631 L242.1409,625.6709 L242.1527,625.8762 L244.4302,625.5575 L246.7305,625.6351 L249.0641,626.2914 L251.3365,625.8821 L253.6582,626.3326 L253.6751,626.5581 L255.8191,626.5858 L257.9574,626.5371 L260.1086,626.6606 L262.2897,627.1824 L264.4285,627.1407 L264.4152,627.0083 L266.3847,627.5963 L268.2638,627.2839 L270.2457,627.9953 L272.1697,628.1302 L274.0781,628.1099 L274.0966,628.2172 L276.9703,628.6267 L279.9101,629.4204 L282.7903,629.867 L285.6455,630.1684 L288.5215,630.5904 L288.583,630.6925 L289.5873,631.2009 L290.8772,632.1834 L291.8441,632.6298 L292.9439,633.2967 L294,633.8912 L292.3777,633.8912 L292.9194,643.6604 L295.4153,653.4296 L295.146,663.1989 L293.8855,672.9681 L293.1409,682.7373 L293.4162,692.5065 L292.1702,702.2758 L295.106,712.045 L295.9722,721.8142 L295.4037,731.5835 L295.8532,741.3527 L293.6354,751.1219 L294,760.8912 L294,760.8912 L294.02,760.9244 L292.8154,761.4038 L291.8737,762.3196 L290.7695,762.9656 L289.7439,763.7421 L288.5215,764.1919 L288.5042,764.0913 L285.6227,764.6292 L282.7775,765.3784 L279.8981,765.9287 L276.9282,765.9518 L274.0781,766.6724 L274.0695,766.5867 L272.1548,766.9323 L270.1911,766.79 L268.304,767.4102 L266.3699,767.5619 L264.4285,767.6416 L264.4251,767.597 L262.2791,767.8663 L260.1446,768.2878 L257.9559,767.9878 L255.8227,768.4277 L253.6582,768.4498 L253.6655,768.5765 L251.3577,768.6334 L249.0549,768.7769 L246.7507,768.8971 L244.4284,768.7021 L242.1409,769.1114 L242.1329,768.9334 L239.7536,769.0124 L237.3858,769.3516 L235.0081,769.4684 L232.6314,769.607 L230.25,769.6412 L230.246,769.5119 L225.5674,769.7557 L220.8851,769.8768 L216.213,770.331 L211.5293,770.4088 L206.8418,770.3638 L206.8379,770.1481 L202.7572,770.4056 L198.6692,770.2557 L194.5922,770.7146 L190.5108,770.9311 L186.4219,770.7349 L186.4238,770.9769 L182.436,770.5726 L178.4547,771.0036 L174.4662,770.4985 L170.4851,770.9489 L166.5,770.8912 L166.5,770.8912 L166.499,770.7581 L162.516,770.9029 L158.5321,770.9355 L154.5485,771.0072 L150.56,770.4462 L146.5781,770.7349 L146.582,770.9462 L142.4956,770.7399 L138.413,770.7444 L134.3322,770.8446 L130.2422,770.4405 L126.1582,770.3638 L126.1606,770.4417 L121.4795,770.3141 L116.7976,770.1624 L112.1133,769.9299 L107.4414,770.1014 L102.75,769.6412 L102.7379,769.3704 L100.383,769.7862 L97.9813,769.1522 L95.6048,769.0834 L93.2381,769.2351 L90.8591,769.1114 L90.8599,769.1239 L88.5431,768.7604 L86.2627,769.0303 L83.9515,768.7627 L81.6638,768.9045 L79.3418,768.4498 L79.364,768.7454 L77.1728,768.0895 L75.0205,767.9502 L72.8753,767.9076 L70.7374,767.9608 L68.5715,767.6416 L68.5894,767.8199 L66.655,767.581 L64.6965,767.1027 L62.81,767.3415 L60.88,767.1465 L58.9219,766.6724 L58.9183,766.6517 L56.0152,766.0716 L53.1143,765.5044 L50.2397,765.0901 L47.3775,764.7482 L44.4785,764.1919 L44.4628,764.1659 L43.287,763.3727 L42.3989,763.0572 L41.0861,762.0368 L40.2109,761.7426 L39,760.8912 L40.1393,760.8912 L39.9916,751.1219 L40.8467,741.3527 L38.3443,731.5835 L38.1983,721.8142 L40.3837,712.045 L37.4083,702.2758 L38.376,692.5065 L39.308,682.7373 L39.1832,672.9681 L38.0441,663.1989 L38.8854,653.4296 L40.9856,643.6604 L39,633.8912 " fill="none" style="stroke:#181818;stroke-width:4.0;"/><path d="M39,633.8912 L39,633.8912 L39.0482,633.9712 L40.0007,634.3936 L41.2357,635.2851 L42.3788,636.0238 L43.2192,636.2602 L44.4785,637.1919 L44.4727,637.1579 L47.3351,637.5012 L50.227,638.0161 L53.1394,638.6504 L55.9812,638.8735 L58.9219,639.6724 L58.9465,639.9172 L60.8238,639.5875 L62.773,639.9727 L64.7309,640.445 L66.6378,640.4099 L68.5715,640.6416 L68.5738,640.6719 L70.7245,640.7891 L72.8856,641.044 L75.0416,641.2325 L77.2072,641.5477 L79.3418,641.4498 L79.3589,641.7475 L81.6626,641.8835 L83.9552,641.8274 L86.264,642.0524 L88.5736,642.2906 L90.8591,642.1114 L90.8449,641.7912 L93.2507,642.5186 L95.6096,642.1916 L98.0042,642.6663 L100.362,642.3154 L102.75,642.6412 L102.7491,642.6107 L107.4418,643.1151 L112.1126,642.9086 L116.7964,643.1215 L121.4812,643.3697 L126.1582,643.3638 L126.1616,643.5488 L130.2422,643.4363 L134.3285,643.6399 L138.4055,643.3321 L142.4964,643.7871 L146.5781,643.7349 L146.58,643.9785 L150.564,643.9637 L154.549,644.0699 L158.5296,643.614 L162.5134,643.5701 L166.5,643.8912 L166.5,643.8912 L166.4978,643.615 L170.4842,643.8337 L174.4681,643.7413 L178.4555,644.1003 L182.4369,643.6885 L186.4219,643.7349 L186.4191,643.5825 L190.5077,643.7621 L194.5845,643.2901 L198.6696,643.2816 L202.7631,643.7264 L206.8418,643.3638 L206.8478,643.5574 L211.5335,643.5456 L216.2007,642.9318 L220.8911,643.072 L225.5765,643.048 L230.25,642.6412 L230.2407,642.4314 L232.6263,642.4926 L235.0088,642.4852 L237.3974,642.6127 L239.7626,642.2155 L242.1409,642.1114 L242.1527,642.3166 L244.4302,641.7333 L246.7305,641.5462 L249.0641,641.9379 L251.3365,641.264 L253.6582,641.4498 L253.6751,641.6753 L255.8191,641.3797 L257.9574,641.0078 L260.1086,640.8081 L262.2897,641.0066 L264.4285,640.6416 L264.4152,640.5093 L266.3847,640.7095 L268.2638,640.0095 L270.2457,640.3331 L272.1697,640.0804 L274.0781,639.6724 L274.0966,639.7797 L276.9703,639.197 L279.9101,638.9985 L282.7903,638.4529 L285.6455,637.7622 L288.5215,637.1919 L288.583,637.294 L289.5873,636.4822 L290.8772,636.1444 L291.8441,635.2704 L292.9439,634.617 L294,633.8912 " fill="none" style="stroke:#181818;stroke-width:4.0;"/><text fill="#000000" font-family="Chalkduster" font-size="24" font-weight="bold" lengthAdjust="spacing" textLength="101" x="116" y="669.732">Storage</text></g><!--cluster Standards--><g id="cluster_Standards"><polygon fill="#E6E6FA" points="87.5,83.8912,87.5,84.1013,97.4897,83.4768,107.4794,84.0844,117.4691,84.2908,127.4588,83.1778,137.4485,83.8134,147.4381,83.4647,157.4278,83.5077,167.4175,83.823,177.4072,83.1998,187.3969,84.4448,197.3866,83.2609,207.3763,83.6934,217.366,84.3231,227.3557,83.8054,237.3454,83.9594,247.3351,83.8592,257.3247,84.0697,267.3144,84.1303,277.3041,84.4769,287.2938,84.5622,297.2835,84.5704,307.2732,84.1458,317.2629,84.3547,327.2526,84.5934,337.2423,83.17,347.232,84.5697,357.2216,83.5947,367.2113,84.425,377.201,83.3961,387.1907,83.8227,397.1804,84.6328,407.1701,83.8424,417.1598,83.9965,427.1495,84.2298,437.1392,84.3074,447.1289,83.8873,457.1186,84.1784,467.1082,83.3187,477.0979,84.1755,487.0876,84.4394,497.0773,84.3357,507.067,84.5042,517.0567,83.4081,527.0464,83.239,537.0361,83.2698,547.0258,83.8323,557.0155,83.6946,567.0052,84.5726,576.9948,83.7165,586.9845,83.5481,596.9742,84.1194,606.9639,83.2243,616.9536,83.372,626.9433,84.5401,636.933,84.3268,646.9227,84.6257,656.9124,83.5694,666.9021,84.2104,676.8918,84.4816,686.8814,83.4188,696.8711,83.7953,706.8608,84.0171,716.8505,84.5429,726.8402,83.887,736.8299,84.3537,746.8196,83.3374,756.8093,83.2139,766.799,84.3948,776.7887,83.1742,786.7784,84.4001,796.768,84.0978,806.7577,83.6232,816.7474,83.5374,826.7371,84.3499,836.7268,83.5918,846.7165,84.483,856.7062,83.3384,866.6959,84.5086,876.6856,84.3755,886.6753,84.1361,896.6649,83.9384,906.6546,84.6178,916.6443,84.5047,926.634,84.0604,936.6237,84.1593,946.6134,83.7609,956.6031,84.6076,966.5928,84.046,976.5825,84.0637,986.5722,83.2828,996.5619,83.4859,1006.5515,84.4219,1016.5412,84.3209,1026.5309,83.8482,1036.5206,83.569,1046.5103,83.6722,1056.5,83.8912,1056.4125,83.6798,1056.9065,84.1653,1057.3014,84.4118,1057.6278,84.4926,1058.0029,84.691,1058.2678,84.6234,1058.2257,84.606,1058.4411,84.9881,1058.4413,85.2811,1058.7946,85.7203,1058.9295,86.0691,1059,86.3912,1059.5524,86.3912,1058.7703,96.5275,1058.8656,106.6639,1059.4435,116.8003,1059.5673,126.9366,1058.4875,137.073,1058.8061,147.2093,1059.1493,157.3457,1058.3892,167.4821,1059.3534,177.6184,1059.258,187.7548,1058.8992,197.8912,1059.1422,208.0275,1059.7287,218.1639,1058.6871,228.3003,1059.315,238.4366,1059.2856,248.573,1059.1158,258.7093,1059.1409,268.8457,1059.1135,278.9821,1058.3758,289.1184,1058.5992,299.2548,1059,309.3912,1058.8579,309.3323,1058.8732,309.7529,1058.7342,310.1095,1058.6105,310.4725,1058.3246,310.7683,1058.2678,311.1589,1058.2592,311.1381,1057.8989,311.2684,1057.6342,311.6295,1057.2615,311.7296,1056.7916,311.5952,1056.5,311.8912,1056.5,311.8182,1046.5103,311.3139,1036.5206,312.1795,1026.5309,312.4996,1016.5412,312.4357,1006.5515,311.4556,996.5619,312.3551,986.5722,311.1484,976.5825,312.0913,966.5928,311.5918,956.6031,311.9879,946.6134,312.1315,936.6237,312.3633,926.634,311.1712,916.6443,312.3666,906.6546,312.0693,896.6649,312.2465,886.6753,312.639,876.6856,311.8966,866.6959,312.0664,856.7062,312.1046,846.7165,312.0884,836.7268,311.8903,826.7371,312.6019,816.7474,311.2814,806.7577,312.4564,796.768,311.2672,786.7784,311.3508,776.7887,311.9312,766.799,311.9194,756.8093,311.3983,746.8196,312.3049,736.8299,312,726.8402,312.6178,716.8505,312.5583,706.8608,311.4429,696.8711,311.4932,686.8814,311.762,676.8918,312.2467,666.9021,312.2941,656.9124,312.1923,646.9227,311.5492,636.933,312.5275,626.9433,312.5249,616.9536,311.8439,606.9639,311.6521,596.9742,311.4898,586.9845,311.6766,576.9948,312.0286,567.0052,311.8228,557.0155,311.4734,547.0258,312.3785,537.0361,311.4322,527.0464,312.3935,517.0567,312.3184,507.067,312.263,497.0773,312.5837,487.0876,311.6453,477.0979,311.5905,467.1082,312.41,457.1186,311.2943,447.1289,311.6572,437.1392,312.0067,427.1495,311.9598,417.1598,311.5327,407.1701,311.8482,397.1804,312.6358,387.1907,312.5396,377.201,311.2949,367.2113,311.9697,357.2216,311.3773,347.232,311.8648,337.2423,312.1842,327.2526,312.311,317.2629,311.2264,307.2732,312.2917,297.2835,311.8996,287.2938,311.3358,277.3041,311.4201,267.3144,312.2178,257.3247,312.141,247.3351,311.8747,237.3454,311.2191,227.3557,312.5493,217.366,311.5793,207.3763,311.3631,197.3866,311.8238,187.3969,312.4809,177.4072,312.5066,167.4175,311.9263,157.4278,311.74,147.4381,312.0609,137.4485,312.0774,127.4588,311.3834,117.4691,312.3051,107.4794,312.45,97.4897,311.6754,87.5,311.8912,87.4453,311.759,87.2325,311.9525,86.7956,311.6047,86.4393,311.4518,86.1239,311.3975,85.7322,311.1589,85.5334,311.0766,85.749,310.873,85.4346,310.4499,85.4989,310.1836,85.08,309.7172,85,309.3912,85.409,309.3912,84.556,299.2548,85.245,289.1184,85.3793,278.9821,84.6727,268.8457,85.363,258.7093,84.4286,248.573,84.5295,238.4366,85.6828,228.3003,85.6844,218.1639,85.5685,208.0275,84.6396,197.8912,85.3842,187.7548,84.5279,177.6184,85.0582,167.4821,84.9987,157.3457,84.7376,147.2093,85.6159,137.073,85.4433,126.9366,84.6792,116.8003,85.5266,106.6639,85.0919,96.5275,85,86.3912,84.8203,86.3167,85.0746,86.0078,85.1311,85.617,85.3965,85.3128,85.3921,84.8967,85.7322,84.6234,85.6557,84.4386,86.0948,84.4986,86.424,84.2934,86.7854,84.166,87.1282,83.9935,87.5,83.8912" style="stroke:#181818;stroke-width:4.0;"/><text fill="#000000" font-family="Chalkduster" font-size="24" font-style="italic" lengthAdjust="spacing" textLength="170" x="487" y="109.732">«standards»</text><text fill="#000000" font-family="Chalkduster" font-size="24" font-weight="bold" lengthAdjust="spacing" textLength="138" x="503" y="140.3619">Standards</text></g><!--cluster prof--><g id="cluster_prof"><polygon fill="none" points="393.5,171.8912,393.5,172.1013,403.4844,171.4768,413.4688,172.0844,423.4531,172.2908,433.4375,171.1778,443.4219,171.8134,453.4063,171.4647,463.3906,171.5077,473.375,171.823,483.3594,171.1998,493.3438,172.4448,503.3281,171.2609,513.3125,171.6934,523.2969,172.3231,533.2813,171.8054,543.2656,171.9594,553.25,171.8592,563.2344,172.0697,573.2188,172.1303,583.2031,172.4769,593.1875,172.5622,603.1719,172.5704,613.1563,172.1458,623.1406,172.3547,633.125,172.5934,643.1094,171.17,653.0938,172.5697,663.0781,171.5947,673.0625,172.425,683.0469,171.3961,693.0313,171.8227,703.0156,172.6328,713,171.8424,722.9844,171.9965,732.9688,172.2298,742.9531,172.3074,752.9375,171.8873,762.9219,172.1784,772.9063,171.3187,782.8906,172.1755,792.875,172.4394,802.8594,172.3357,812.8438,172.5042,822.8281,171.4081,832.8125,171.239,842.7969,171.2698,852.7813,171.8323,862.7656,171.6946,872.75,172.5726,882.7344,171.7165,892.7188,171.5481,902.7031,172.1194,912.6875,171.2243,922.6719,171.372,932.6563,172.5401,942.6406,172.3268,952.625,172.6257,962.6094,171.5694,972.5938,172.2104,982.5781,172.4816,992.5625,171.4188,1002.5469,171.7953,1012.5313,172.0171,1022.5156,172.5429,1032.5,171.8912,1032.4995,171.8899,1032.9126,172.1801,1033.1365,172.0135,1033.4743,172.1219,1033.9785,172.632,1034.2678,172.6234,1034.047,172.5319,1034.571,173.0419,1034.6243,173.3569,1034.6246,173.6499,1034.7446,173.9925,1035,174.3912,1035.4588,174.3912,1034.7007,184.4821,1035.5919,194.573,1034.4473,204.6639,1035.6174,214.7548,1035.4843,224.8457,1035.245,234.9366,1035.0472,245.0275,1035.7266,255.1184,1035.6136,265.2093,1035.1693,275.3003,1035,285.3912,1035.0826,285.4254,1034.8134,285.7281,1034.9277,286.1897,1034.6084,286.4716,1034.4674,286.8274,1034.2678,287.1589,1034.1902,286.9716,1033.8625,287.1806,1033.6284,287.6153,1033.2619,287.7306,1032.8481,287.7315,1032.5,287.8912,1032.5,287.569,1022.5156,287.6722,1012.5313,287.205,1002.5469,288.3059,992.5625,288.6307,982.5781,288.4176,972.5938,288.5861,962.6094,287.7544,952.625,287.9784,942.6406,287.5036,932.6563,288.1752,922.6719,288.1379,912.6875,288.4435,902.7031,287.6615,892.7188,287.7568,882.7344,288.3346,872.75,288.4585,862.7656,287.3786,852.7813,287.6973,842.7969,288.0404,832.8125,287.2803,822.8281,288.2446,812.8438,288.1492,802.8594,287.7904,792.875,288.0334,782.8906,288.6198,772.9063,287.5783,762.9219,288.2061,752.9375,288.1768,742.9531,288.0069,732.9688,288.0321,722.9844,288.0046,713,287.267,703.0156,287.4903,693.0313,287.4296,683.0469,287.955,673.0625,287.9793,663.0781,288.0529,653.0938,287.6002,643.1094,287.8236,633.125,287.7709,623.1406,288.468,613.1563,288.3177,603.1719,287.4056,593.1875,287.8182,583.2031,287.3139,573.2188,288.1795,563.2344,288.4996,553.25,288.4357,543.2656,287.4556,533.2813,288.3551,523.2969,287.1484,513.3125,288.0913,503.3281,287.5918,493.3438,287.9879,483.3594,288.1315,473.375,288.3633,463.3906,287.1712,453.4063,288.3666,443.4219,288.0693,433.4375,288.2465,423.4531,288.639,413.4688,287.8966,403.4844,288.0664,393.5,287.8912,393.5272,287.9569,393.1716,287.8055,392.7928,287.598,392.53,287.6707,392.008,287.1176,391.7322,287.1589,391.9063,287.231,391.3936,286.7258,391.2729,286.3829,391.3052,286.1034,391.1552,285.7483,391,285.3912,390.5072,285.3912,391.4137,275.3003,391.1089,265.2093,391.7267,255.1184,391.6671,245.0275,390.5517,234.9366,390.6021,224.8457,390.8708,214.7548,391.3555,204.6639,391.403,194.573,391.3012,184.4821,391,174.3912,390.8947,174.3475,391.3424,174.1188,391.4881,173.7649,391.4248,173.3245,391.5122,172.9465,391.7322,172.6234,391.681,172.4998,392.0584,172.4109,392.4569,172.3728,392.7842,172.163,393.0932,171.9089,393.5,171.8912" style="stroke:#181818;stroke-width:4.0;"/><text fill="#000000" font-family="Chalkduster" font-size="24" font-weight="bold" lengthAdjust="spacing" textLength="107" x="659.5" y="197.732">Profiles</text></g><!--entity api--><g id="elem_api"><polygon fill="none" points="26,517.8912,26,518.1013,36.6667,517.4768,47.3333,518.0844,58,518.2908,68.6667,517.1778,79.3333,517.8134,90,517.8912,89.9456,517.7598,90.3046,517.9195,90.6984,518.1631,90.9725,518.1176,91.4848,518.6474,91.7678,518.6234,91.5737,518.543,91.8533,518.9517,92.1937,519.3856,92.1807,519.6731,92.3746,520.0463,92.5,520.3912,92.4681,520.3912,92.6785,529.5171,92.7391,538.6431,93.0857,547.7691,93.1711,556.895,92.5,566.021,92.7092,566.1076,92.432,566.407,92.3499,566.7872,92.2769,567.1712,91.6921,567.3432,91.7678,567.7888,91.8543,567.9977,91.3764,567.8439,91.1288,568.246,90.644,568.0757,90.3448,568.3535,90,568.521,90,569.2626,79.3333,568.4723,68.6667,568.6263,58,568.8596,47.3333,568.9372,36.6667,568.5171,26,568.521,26.0366,568.6094,25.5734,568.1983,25.3292,568.3157,25.0093,568.2505,24.6425,568.0721,24.2322,567.7888,24.421,567.867,23.937,567.3736,23.7385,566.9985,23.6015,566.6488,23.6283,566.367,23.5,566.021,23.3035,566.021,24.1814,556.895,23.3253,547.7691,23.1569,538.6431,23.7283,529.5171,23.5,520.3912,23.2946,520.3061,23.4866,519.9714,23.9927,519.7668,24.0735,519.3861,24.312,519.0706,24.2322,518.6234,24.1912,518.5243,24.6265,518.5752,25.0147,518.5123,25.2326,518.0386,25.6342,518.0081,26,517.8912" style="stroke:#181818;stroke-width:4.0;"/><text fill="#000000" font-family="Chalkduster" font-size="24" lengthAdjust="spacing" textLength="49" x="33.5" y="551.732">API</text></g><!--entity Obj1--><g id="elem_Obj1"><polygon fill="none" points="195,695.8912,195,696.1013,205.2857,695.4768,215.5714,696.0844,225.8571,696.2908,236.1429,695.1778,246.4286,695.8134,256.7143,695.4647,267,695.8912,266.9511,695.7731,267.3449,696.0166,267.6189,695.9711,268.1313,696.501,268.3338,696.2828,268.7678,696.6234,268.7069,696.5982,269.0472,697.032,269.0342,697.3196,269.2281,697.6928,269.3437,698.0335,269.5,698.3912,269.6785,698.3912,269.7391,707.5171,270.0857,716.6431,270.1711,725.7691,270.1793,734.895,269.5,744.021,269.5784,744.0535,269.4963,744.4337,269.4234,744.8177,268.8386,744.9897,269.1232,745.5218,268.7678,745.7888,268.7299,745.6975,268.4823,746.0996,267.9975,745.9292,267.6984,746.207,267.4482,746.6029,267,746.521,267,746.4723,256.7143,746.6263,246.4286,746.8596,236.1429,746.9372,225.8571,746.5171,215.5714,746.8082,205.2857,745.9486,195,746.521,195.0363,746.6086,194.7164,746.5434,194.3496,746.365,194.0175,746.2704,193.5242,745.7864,193.2322,745.7888,193.0314,745.7056,192.8944,745.3559,192.9212,745.0741,192.7324,744.703,192.8563,744.4615,192.5,744.021,192.3253,744.021,192.1569,734.895,192.7283,725.7691,191.8332,716.6431,191.9809,707.5171,192.5,698.3912,192.6999,698.4739,192.7806,698.0932,193.0191,697.7777,192.8402,697.2895,193.1841,697.0177,193.2322,696.6234,193.3075,696.8052,193.5255,696.3315,193.9271,696.301,194.309,696.2229,194.7296,696.2383,195,695.8912" style="stroke:#181818;stroke-width:4.0;"/><text fill="#000000" font-family="Chalkduster" font-size="24" lengthAdjust="spacing" textLength="57" x="202.5" y="729.732">Obj1</text></g><!--entity Obj2--><g id="elem_Obj2"><polygon fill="none" points="85,695.8912,85,696.1013,95,695.4768,105,696.0844,115,696.2908,125,695.1778,135,695.8134,145,695.4647,155,695.8912,154.9511,695.7731,155.3449,696.0166,155.6189,695.9711,156.1313,696.501,156.3338,696.2828,156.7678,696.6234,156.7069,696.5982,157.0472,697.032,157.0342,697.3196,157.2281,697.6928,157.3437,698.0335,157.5,698.3912,157.6785,698.3912,157.7391,707.5171,158.0857,716.6431,158.1711,725.7691,158.1793,734.895,157.5,744.021,157.5784,744.0535,157.4963,744.4337,157.4234,744.8177,156.8386,744.9897,157.1232,745.5218,156.7678,745.7888,156.7299,745.6975,156.4823,746.0996,155.9975,745.9292,155.6984,746.207,155.4482,746.6029,155,746.521,155,746.4723,145,746.6263,135,746.8596,125,746.9372,115,746.5171,105,746.8082,95,745.9486,85,746.521,85.0363,746.6086,84.7164,746.5434,84.3496,746.365,84.0175,746.2704,83.5242,745.7864,83.2322,745.7888,83.0314,745.7056,82.8944,745.3559,82.9212,745.0741,82.7324,744.703,82.8563,744.4615,82.5,744.021,82.3253,744.021,82.1569,734.895,82.7283,725.7691,81.8332,716.6431,81.9809,707.5171,82.5,698.3912,82.6999,698.4739,82.7806,698.0932,83.0191,697.7777,82.8402,697.2895,83.1841,697.0177,83.2322,696.6234,83.3075,696.8052,83.5255,696.3315,83.9271,696.301,84.309,696.2229,84.7296,696.2383,85,695.8912" style="stroke:#181818;stroke-width:4.0;"/><text fill="#000000" font-family="Chalkduster" font-size="24" lengthAdjust="spacing" textLength="55" x="92.5" y="729.732">Obj2</text></g><!--entity OCFL--><g id="elem_OCFL"><polygon fill="none" points="104,220.8912,104,221.1013,114.5,220.4768,125,221.0844,135.5,221.2908,146,220.1778,156.5,220.8134,167,220.4647,177.5,220.5077,188,220.8912,187.9913,220.8702,188.2654,220.8247,188.7777,221.3546,188.9803,221.1364,189.389,221.416,189.7678,221.6234,189.9008,221.6785,189.8878,221.966,190.0817,222.3392,190.1973,222.68,190.4085,223.0604,190.5,223.3912,190.7391,223.3912,191.0857,232.5171,191.1711,241.6431,191.1793,250.7691,190.7546,259.895,190.5,269.021,190.6428,269.0801,190.5698,269.4641,189.985,269.6361,190.2696,270.1682,189.8229,270.3974,189.7678,270.7888,189.8359,270.9532,189.3511,270.7828,189.0519,271.0606,188.8017,271.4565,188.3473,271.3595,188,271.521,188,271.6263,177.5,271.8596,167,271.9372,156.5,271.5171,146,271.8082,135.5,270.9486,125,271.8054,114.5,272.0692,104,271.521,104.0567,271.6579,103.7246,271.5633,103.2313,271.0793,102.8561,270.8808,102.5065,270.7438,102.2322,270.7888,102.2141,270.7813,102.0253,270.4101,102.1492,270.1686,101.7391,269.7058,101.5408,269.3308,101.5,269.021,101.7283,269.021,100.8332,259.895,100.9809,250.7691,102.149,241.6431,101.9357,232.5171,101.5,223.3912,101.7262,223.4849,101.5473,222.9966,101.8912,222.7248,102.1212,222.4058,101.9403,221.9167,102.2322,221.6234,102.22,221.5939,102.6019,221.5157,103.0225,221.5312,103.2924,221.1828,103.7055,221.1801,104,220.8912" style="stroke:#181818;stroke-width:4.0;"/><text fill="#000000" font-family="Chalkduster" font-size="24" lengthAdjust="spacing" textLength="69" x="111.5" y="254.732">OCFL</text></g><!--entity ro--><g id="elem_ro"><polygon fill="none" points="228.5,220.8912,228.5,221.1013,238.5714,220.4768,248.6429,221.0844,258.7143,221.2908,268.7857,220.1778,278.8571,220.8134,288.9286,220.4647,299,220.5077,309.0714,220.823,319.1429,220.1998,329.2143,221.4448,339.2857,220.2609,349.3571,220.6934,359.4286,221.3231,369.5,220.8912,369.4891,220.8647,369.8623,221.0586,370.203,221.1742,370.5834,221.3855,370.9447,221.5506,371.2678,221.6234,371.4481,221.6981,371.6209,222.0625,371.7698,222.4171,371.7855,222.7165,371.9963,223.0967,372,223.3912,372.7022,223.3912,371.2788,232.5171,372.6785,241.6431,371.7035,250.7691,372.5338,259.895,372,269.021,371.8476,268.9578,371.8325,269.3658,371.9355,269.8227,371.5457,270.0754,371.4466,270.4486,371.2678,270.7888,371.311,270.893,370.9673,271.0634,370.5602,271.0805,370.2437,271.3166,369.7805,271.1983,369.5,271.521,369.5,271.8054,359.4286,272.0692,349.3571,271.9655,339.2857,272.134,329.2143,271.0379,319.1429,270.8688,309.0714,270.8996,299,271.4621,288.9286,271.3245,278.8571,272.2024,268.7857,271.3463,258.7143,271.1779,248.6429,271.7493,238.5714,270.8542,228.5,271.521,228.4338,271.3611,228.2292,271.5744,227.8485,271.3623,227.533,271.3078,227.0447,270.8361,226.7322,270.7888,226.8305,270.8295,226.7676,270.5105,226.2939,270.0214,226.2634,269.7159,226.1852,269.3906,226,269.021,226.6518,269.021,225.9958,259.895,226.4626,250.7691,225.4462,241.6431,225.3227,232.5171,226,223.3912,226.1551,223.4554,225.9257,222.9462,226.4496,222.749,226.503,222.3569,226.5033,221.9428,226.7322,221.6234,226.6871,221.5144,227.1443,221.6182,227.4012,221.2383,227.8684,221.3663,228.0759,220.8674,228.5,220.8912" style="stroke:#181818;stroke-width:4.0;"/><text fill="#000000" font-family="Chalkduster" font-size="24" lengthAdjust="spacing" textLength="126" x="236" y="254.732">RO-Crate</text></g><!--entity ldac--><g id="elem_ldac"><polygon fill="none" points="409.5,220.8912,409.5,221.1013,419.4508,220.4768,429.4016,221.0844,439.3525,221.2908,449.3033,220.1778,459.2541,220.8134,469.2049,220.4647,479.1557,220.5077,489.1066,220.823,499.0574,220.1998,509.0082,221.4448,518.959,220.2609,528.9098,220.6934,538.8607,221.3231,548.8115,220.8054,558.7623,220.9594,568.7131,220.8592,578.6639,221.0697,588.6148,221.1303,598.5656,221.4769,608.5164,221.5622,618.4672,221.5704,628.418,221.1458,638.3689,221.3547,648.3197,221.5934,658.2705,220.17,668.2213,221.5697,678.1721,220.5947,688.123,221.425,698.0738,220.3961,708.0246,220.8227,717.9754,221.6328,727.9262,220.8424,737.877,220.9965,747.8279,221.2298,757.7787,221.3074,767.7295,220.8873,777.6803,221.1784,787.6311,220.3187,797.582,221.1755,807.5328,221.4394,817.4836,221.3357,827.4344,221.5042,837.3852,220.4081,847.3361,220.239,857.2869,220.2698,867.2377,220.8323,877.1885,220.6946,887.1393,221.5726,897.0902,220.7165,907.041,220.5481,916.9918,221.1194,926.9426,220.2243,936.8934,220.372,946.8443,221.5401,956.7951,221.3268,966.7459,221.6257,976.6967,220.5694,986.6475,221.2104,996.5984,221.4816,1006.5492,220.4188,1016.5,220.8912,1016.4878,220.8616,1016.8696,221.0764,1017.2902,221.3848,1017.5601,221.3292,1017.9732,221.6194,1018.2678,221.6234,1018.0972,221.5528,1018.2056,221.8906,1018.7158,222.3947,1018.4863,222.5926,1019.0103,223.1025,1019,223.3912,1019.2066,223.3912,1018.7321,232.5171,1018.6462,241.6431,1019.4588,250.7691,1018.7007,259.895,1019,269.021,1019.1823,269.0965,1018.6833,269.304,1018.8972,269.8069,1018.7098,270.1434,1018.4897,270.4665,1018.2678,270.7888,1018.2738,270.8033,1018.0069,271.159,1017.6389,271.2706,1017.2287,271.2802,1016.8878,271.4571,1016.5,271.521,1016.5,271.3907,1006.5492,272.2374,996.5984,271.6759,986.6475,271.6936,976.6967,270.9126,966.7459,271.1158,956.7951,272.0517,946.8443,271.9508,936.8934,271.4781,926.9426,271.1988,916.9918,271.3021,907.041,270.8348,897.0902,271.9357,887.1393,272.2606,877.1885,272.0474,867.2377,272.2159,857.2869,271.3843,847.3361,271.6082,837.3852,271.1334,827.4344,271.805,817.4836,271.7678,807.5328,272.0734,797.582,271.2913,787.6311,271.3866,777.6803,271.9645,767.7295,272.0883,757.7787,271.0085,747.8279,271.3271,737.877,271.6703,727.9262,270.9101,717.9754,271.8744,708.0246,271.779,698.0738,271.4202,688.123,271.6632,678.1721,272.2497,668.2213,271.2081,658.2705,271.836,648.3197,271.8066,638.3689,271.6368,628.418,271.6619,618.4672,271.6345,608.5164,270.8968,598.5656,271.1202,588.6148,271.0595,578.6639,271.5848,568.7131,271.6091,558.7623,271.6827,548.8115,271.23,538.8607,271.4535,528.9098,271.4008,518.959,272.0978,509.0082,271.9476,499.0574,271.0355,489.1066,271.4481,479.1557,270.9438,469.2049,271.8094,459.2541,272.1295,449.3033,272.0656,439.3525,271.0854,429.4016,271.985,419.4508,270.7782,409.5,271.521,409.5255,271.5826,409.1083,271.2824,408.8052,271.2579,408.47,271.1557,408.146,271.0806,407.7322,270.7888,407.5105,270.6969,407.7322,270.4959,407.4942,270.1044,407.4023,269.7734,407.3767,269.4699,407,269.021,407.0055,269.021,407.1753,259.895,407.2134,250.7691,407.1972,241.6431,406.9992,232.5171,407,223.3912,407.2189,223.4818,406.9587,222.9598,407.467,222.7562,407.2472,222.2509,407.4194,221.908,407.7322,221.6234,407.7373,221.6357,408.0894,221.4857,408.3765,221.1787,408.8457,221.3115,409.1603,221.0711,409.5,220.8912" style="stroke:#181818;stroke-width:4.0;"/><text fill="#000000" font-family="Chalkduster" font-size="24" lengthAdjust="spacing" textLength="592" x="417" y="254.732">Language Data Commons RO-Crate Profile</text></g><!--reverse link ldac to Obj1--><g id="link_ldac_Obj1"><path d="M683.21,276.6212 L683.4063,276.8212 L675.7076,283.2097 L669.1595,290.7708 L662.2368,297.95 L654.0818,303.8736 L647.5599,311.4614 L640.1187,318.1123 L633.0434,325.136 L626.2223,332.419 L618.5248,338.8087 L612.572,346.9764 L604.3509,352.8325 L597.6393,360.227 L591.1119,367.8091 L583.5129,374.2992 L576.5412,381.4286 L569.3322,388.3161 L562.4132,395.4992 L555.3543,402.5397 L548.5625,409.8524 L541.5267,416.9164 L534.4189,423.9071 L526.9068,430.4858 L519.9864,437.6675 L513.0938,444.8774 L504.649,450.5057 L498.8407,458.8205 L490.8146,464.8755 L484.4745,472.6485 L476.3982,478.6522 L469.681,486.041 L463.3221,493.7947 L455.4685,500.0255 L448.4968,507.1549 L441.5992,514.3597 L434.5562,521.4164 L427.0484,527.9994 L420.2047,535.2593 L412.2864,541.4241 L405.9711,549.2223 L399.102,556.4562 L391.8896,563.3404 L384.9315,570.4835 L376.7924,576.4233 L369.5189,583.2452 L362.4322,590.2573 L355.842,597.7755 L348.598,604.6273 L342.3024,612.4456 L334.3874,618.6138 L327.1146,625.4364 L320.5327,632.9629 L312.5812,639.0939 L305.6037,646.2173 L299.5791,654.3117 L292.2644,661.0916 L285.4279,668.3588 L277.326,674.3364 L270.8091,681.9293 L263.9469,689.1702 L256.28,695.5912 " fill="none" style="stroke:#8B0000;stroke-width:4.0;"/><polygon fill="#8B0000" points="686.68,273.2112,686.7045,273.2768,684.7862,273.7703,683.0115,274.6485,681.19,275.4015,679.2148,275.7424,677.4524,276.6537,677.4521,276.6278,678.5822,276.5229,679.7137,276.5487,680.8461,276.6652,681.9753,276.4689,683.1089,276.7108,683.2935,276.7127,682.8874,277.84,683.0202,278.9728,683.2186,280.1062,683.0346,281.2358,683.0518,282.3674,683.0729,282.3757,683.7675,280.5322,684.5584,278.7268,685.3028,276.903,686.1359,275.1143,686.68,273.2112" style="stroke:#8B0000;stroke-width:4.0;"/><text fill="#000000" font-family="Chalkduster" font-size="24" lengthAdjust="spacing" textLength="164" x="568" y="414.732">conformsTo</text></g><!--reverse link ro to Obj1--><g id="link_ro_Obj1"><path d="M302.95,278.5712 L303.0428,278.5818 L303.3185,283.3807 L304.1382,288.2418 L304.7808,293.0826 L304.8407,297.8569 L305.7072,302.7233 L305.6728,302.7198 L306.0892,308.2856 L306.6788,313.8691 L307.3887,319.465 L307.6838,325.0184 L308.56,330.6312 L308.8052,330.6523 L308.793,336.5487 L309.4966,342.5067 L310.2875,348.4723 L310.5703,354.3941 L311.1203,360.339 L311.1506,360.3411 L311.316,363.3215 L311.6191,366.3116 L311.8558,369.2971 L312.2193,372.2915 L312.1695,375.2567 L312.4673,375.2736 L312.637,378.2007 L312.6147,381.1169 L312.8735,384.0491 L313.1455,386.982 L313,389.8912 L312.6797,389.8804 L313.3754,392.1083 L313.0164,394.3008 L313.4593,396.5202 L313.0763,398.7119 L313.3703,400.9263 L313.3398,400.9262 L313.7089,403.1509 L313.3667,405.3729 L313.4442,407.5965 L313.5569,409.8202 L313.4154,412.0429 L313.6004,412.0473 L313.3609,414.279 L313.4374,416.5181 L313.0026,418.7452 L313.3305,420.9903 L313.1513,423.2234 L313.3947,423.2355 L313.2372,425.4785 L313.2005,427.7276 L312.6024,429.9487 L312.4159,432.1903 L312.5939,434.45 L312.3185,434.4296 L312.4008,436.6991 L312.1729,438.9456 L312.395,441.2254 L311.8486,443.4483 L311.759,445.705 L311.6073,445.6903 L311.6407,447.968 L311.0255,450.1826 L310.8716,452.4421 L311.169,454.7455 L310.6626,456.9707 L310.8549,456.9937 L310.7184,459.2611 L309.9838,461.4573 L309.9983,463.7427 L309.8496,466.0087 L309.3206,468.2294 L309.1126,468.2003 L308.964,470.4703 L308.7473,472.7307 L308.6644,475.0099 L308.0613,477.2163 L307.7488,479.4633 L307.9518,479.4957 L307.1486,481.6629 L306.7372,483.8925 L306.8984,486.2135 L306.0055,488.3663 L305.9631,490.6548 L306.1858,490.6945 L305.6567,492.8972 L305.0524,495.0865 L304.6181,497.306 L304.5769,499.5957 L303.9794,501.7862 L303.8488,501.7606 L303.8044,504.0474 L302.872,506.1603 L302.9492,508.471 L302.458,510.6703 L301.8136,512.8396 L301.9201,512.8623 L301.3678,515.0355 L301.1967,517.29 L300.6812,519.4711 L300.0217,521.6215 L299.4817,523.7975 L299.5979,523.824 L298.9288,525.9534 L298.7992,528.2063 L298.0595,530.3195 L297.5707,532.4902 L296.9995,534.642 L296.7368,534.5778 L296.3012,536.742 L296.182,538.9834 L295.6151,541.1154 L294.8877,543.2083 L294.3829,545.3555 L294.2445,545.3187 L293.1743,549.5232 L291.859,553.6624 L291.2173,557.9808 L290.2422,562.2105 L288.81,566.3187 L289.0345,566.3844 L287.9225,570.4507 L286.3838,574.3922 L285.2954,578.4654 L283.9089,582.4515 L282.8903,586.5452 L283.0106,586.5833 L281.7669,590.448 L280.6685,594.3587 L279.1093,598.1232 L277.9217,602.0056 L276.7508,605.8933 L276.9374,605.9568 L275.7431,609.6401 L274.0423,613.1512 L272.93,616.8624 L271.8279,620.5771 L270.5187,624.2214 L270.2634,624.1292 L269.427,627.708 L268.1476,631.1269 L266.7581,634.506 L265.6202,637.9759 L264.3212,641.3877 L264.6239,641.5029 L262.9841,644.5108 L262.0378,647.7826 L260.8184,650.9506 L259.5407,654.0963 L258.2855,657.2506 L258.3437,657.2738 L257.183,660.1528 L255.729,662.9149 L254.6719,665.8352 L253.4974,668.7087 L252.5386,671.6682 L252.5648,671.6791 L251.5086,674.2494 L250.4726,676.8281 L249.2206,679.3171 L248.2462,681.9213 L247.2077,684.499 L247.1587,684.4778 L246.4856,686.821 L245.4667,689.0149 L244.1369,691.0748 L243.3478,693.3679 L242.42,695.6012 " fill="none" style="stroke:#8B0000;stroke-width:4.0;"/><polygon fill="#8B0000" points="302.38,273.8112,302.447,273.8317,301.6701,275.6537,301.2858,277.5962,300.7736,279.4995,299.841,281.2737,299.4904,283.2266,299.47,283.2106,300.0766,282.2485,300.786,281.3671,301.5668,280.5416,302.1014,279.5231,302.9808,278.7749,303.0947,278.9202,303.7415,279.3077,304.7208,280.1192,305.7406,280.9825,306.5245,281.5447,307.4325,282.2653,307.452,282.277,306.4128,280.569,305.4626,278.9142,304.4694,277.2337,303.5581,275.6021,302.38,273.8112" style="stroke:#8B0000;stroke-width:4.0;"/><text fill="#000000" font-family="Chalkduster" font-size="24" lengthAdjust="spacing" textLength="164" x="314" y="414.732">conformsTo</text></g><!--reverse link OCFL to stor--><g id="link_OCFL_stor"><path d="M144.31,278.6112 L144.5898,278.6267 L143.2294,288.1288 L143.5093,297.7219 L143.2551,307.2854 L141.2442,316.7515 L141.5615,326.3467 L140.5681,335.8692 L140.0964,345.4206 L139.9872,354.9921 L139.5489,364.5454 L138.6286,364.4921 L139.729,374.2005 L137.5963,383.7217 L137.6152,393.3675 L137.8965,403.0285 L136.6506,412.6011 L136.2987,422.2254 L135.6086,431.8301 L135.3319,441.4588 L134.8557,451.0759 L134.7602,460.7151 L133.4237,470.2824 L134.3168,470.3374 L133.721,480.1896 L132.5492,490.0063 L132.2205,499.8749 L131.9314,509.746 L130.3902,519.54 L130.0704,519.5187 L130.1459,527.7528 L129.1683,535.9168 L128.9913,544.134 L127.9899,552.2964 L127.6642,560.5038 L127.6339,560.5015 L127.5524,566.1805 L126.7618,571.8043 L126.3896,577.4607 L126.0526,583.1198 L125.4621,588.7591 L125.6455,588.7832 L125.168,590.9853 L125.0038,593.2286 L124.3326,595.4052 L124.4177,597.6812 L124,599.8912 L124.1064,600.1104 L121.3057,601.4183 L118.5578,602.8351 L115.5646,603.7462 L112.7512,605.028 L110.0972,606.6382 L110.0529,606.3656 L107.1471,606.1342 L104.1913,605.5957 L101.3079,605.5027 L98.301,604.6489 L95.3675,604.2474 L95.3416,604.0972 L92.402,603.8336 L89.3518,602.9278 L86.3803,602.4787 L83.4857,602.4765 L80.4541,601.6785 L80.5305,601.8564 L77.6922,603.2209 L74.616,604.0322 L71.8376,605.5364 L68.9944,606.8897 L66,607.8912 L65.8325,607.7645 L63.741,610.8085 L61.5945,613.8111 L59.5559,616.8951 L57.0983,619.6623 L54.8747,622.6065 L55.0554,622.7046 L54.5481,622.6922 L54.3897,622.8692 L54.7407,623.3227 L54.1537,623.267 L54.3235,623.6222 " fill="none" style="stroke:#8B0000;stroke-width:4.0;"/><polygon fill="#8B0000" points="144.58,273.7312,144.6424,273.7631,143.5604,275.4221,142.844,277.2682,142.0086,279.0534,140.7816,280.6383,140.0967,282.5004,140.0794,282.4811,140.8441,281.6392,141.6959,280.8946,142.6084,280.2175,143.312,279.3075,144.3082,278.7238,144.4456,278.847,144.9071,279.4258,145.7698,280.3644,146.6814,281.3468,147.3082,282.0739,148.0848,282.9353,148.1061,282.9434,147.3739,281.0907,146.7385,279.2748,146.0564,277.4412,145.4634,275.6415,144.58,273.7312" style="stroke:#8B0000;stroke-width:4.0;"/><text fill="#000000" font-family="Chalkduster" font-size="24" lengthAdjust="spacing" textLength="164" x="140" y="414.732">conformsTo</text></g><!--link api to stor--><g id="link_api_stor"><path d="M56.05,575.6712 L56.1432,575.677 L55.3263,584.2935 L55.056,592.9443 L54.6077,601.5839 L53.5741,610.1869 L53.3506,618.8405 L53.3162,618.8384 L53.1246,619.4172 L53.1069,620.0069 L53.21,620.6042 L52.8967,621.1754 L53.1666,621.783 L53.4122,621.7984 L52.8686,622.0607 L53.042,622.3677 L53.3028,622.6803 L53.0547,622.961 L53.0743,623.2585 " fill="none" style="stroke:#8B0000;stroke-width:4.0;"/><polygon fill="#8B0000" points="56.35,570.7412,56.4121,570.7736,55.3162,572.4235,54.5844,574.2635,53.7341,576.0416,52.4938,577.6162,51.7933,579.4725,51.7761,579.4531,52.5479,578.6176,53.406,577.8801,54.3241,577.2107,55.0353,576.3067,56.0363,575.7313,56.1748,575.8534,56.627,576.441,57.4834,577.3849,58.389,578.3724,59.0078,579.1068,59.7775,579.9744,59.7988,579.9823,59.082,578.124,58.4623,576.3018,57.7957,574.4622,57.2185,572.6557,56.35,570.7412" style="stroke:#8B0000;stroke-width:4.0;"/><polygon fill="#8B0000" points="53.0743,623.2585,53.1364,623.2909,53.8627,621.4481,54.953,619.7952,55.9248,618.0805,56.5067,616.1624,57.6283,614.5258,57.6112,614.5063,56.6859,615.1677,55.847,615.9269,55.0681,616.7542,54.0823,617.347,53.3864,618.2683,53.5248,618.3904,52.4804,617.2809,51.84,616.5279,51.2489,615.8184,50.371,614.8558,49.6439,614.0264,49.6652,614.0343,50.32,615.8691,51.0719,617.74,51.7769,619.5934,52.5712,621.4801,53.0743,623.2585" style="stroke:#8B0000;stroke-width:4.0;"/></g><!--SRC=[TP71IiGm48RlUOgnzrJqk9I2L0HXeOlhNMQRx6uaJKgIeaNstPt4rcsBvf9ClfcVVsPkb6bqB-HRYsQ0FByL691JW2VPIXEu3uEMUVWCBAYWvGRgwcaBZJK1bV7mKlFAOP3CoIQWEMa9MSp80D03kkOCHU5aPxqArWrb2LyCwCpI7tRFMKhkL4BHmG4zaJsLa8z4FRt7sbLzVNY_o_u1zp_WmYvpWtjw27J2PsJEJy6ljxN1gSVamzchYr7xpw8q1BR-tJbxL5hw9DLHS1MRPMtfxgbnUAHHG6NRriv63QD8qj02cyd69Tg8qm3E-uxpCb7On6qThMlzgrrYwcK1qumdcFQymBGWABYm7uPmp6Ni6m00]--></g></svg>