<?xml version="1.0" encoding="us-ascii" standalone="no"?><svg xmlns="http://www.w3.org/2000/svg" xmlns:xlink="http://www.w3.org/1999/xlink" contentStyleType="text/css" height="408px" preserveAspectRatio="none" style="width:1304px;height:408px;background:#FFFFFF;" version="1.1" viewBox="0 0 1304 408" width="1304px" zoomAndPan="magnify"><defs/><g><!--cluster rep--><g id="cluster_rep"><path d="M6,16 L6,16 L6.0222,16.0907 L7.3949,15.4691 L8.8977,15.3793 L10.3581,15.1164 L11.6791,14.2838 L13.1931,14.2397 L13.1899,14.2054 L14.9036,13.8916 L16.6333,13.7513 L18.3741,13.7315 L20.0765,13.2963 L21.8327,13.4429 L21.8483,13.6885 L24.1526,13.0146 L26.5026,13.0577 L28.8581,13.1883 L31.1813,12.8099 L33.5215,12.6992 L33.5229,12.7295 L36.4215,12.5465 L39.3267,12.5015 L42.2287,12.3899 L45.1367,12.4053 L48.025,12.0068 L48.0362,12.3048 L51.4531,12.1799 L54.8627,11.8627 L58.2829,11.8269 L61.7037,11.8043 L65.1086,11.3638 L65.0997,11.0434 L73.311,11.4362 L81.4928,10.774 L89.697,10.9139 L97.8781,10.2278 L106.0781,10.2188 L106.0763,10.1274 L115.793,11.0135 L125.467,9.7661 L135.1661,9.7776 L144.8674,9.8948 L154.5535,9.2495 L154.5618,9.8044 L165.3743,9.0827 L176.2011,9.3092 L187.0049,8.0015 L197.8429,8.9822 L208.6582,8.4414 L208.6666,9.1723 L218.3079,8.9238 L227.9534,9.0382 L237.5797,7.4665 L247.22,7.1308 L256.8635,7.0616 L266.5159,7.7798 L266.5152,7.7013 L276.4692,7.4295 L286.4353,8.5117 L296.3809,7.282 L306.3346,6.9692 L316.297,7.6426 L326.25,7.25 L326.2445,6.3609 L336.0451,6.4976 L345.854,7.9948 L355.6515,7.6502 L365.4533,7.9884 L375.2439,6.5198 L385.0485,7.3143 L394.8501,7.6157 L404.6407,6.1384 L414.4431,6.5802 L424.2442,6.8158 L434.0478,7.4566 L443.8418,6.5273 L443.8418,6.5218 L454.102,7.107 L464.3551,5.7147 L474.6126,5.513 L484.8763,7.0504 L495.1284,5.3859 L505.3923,6.9833 L515.6488,6.5431 L525.9046,5.8732 L536.1622,5.7217 L546.4219,6.1563 L546.4228,6.7679 L556.4291,5.7415 L566.4387,6.9141 L576.4442,5.3724 L586.4544,6.917 L596.4619,6.7239 L606.4693,6.3891 L616.4767,6.1098 L626.4859,7.0001 L636.4935,6.8337 L646.5,6 L646.5,6 L646.5004,6.2257 L656.5084,6.3732 L666.5154,5.8576 L676.5249,7.0021 L686.5316,6.269 L696.5394,6.3082 L706.5456,5.2826 L716.5538,5.5691 L726.5636,6.8327 L736.5712,6.7136 L746.5781,6.1563 L746.5779,6.099 L756.8346,5.7638 L767.0931,5.9386 L777.3488,5.3527 L787.6122,6.8577 L797.8717,7.3279 L808.1287,7.0808 L818.3875,7.3426 L828.6415,6.2708 L838.9006,6.6065 L849.1582,6.5273 L849.155,6.0106 L858.9598,6.9663 L868.7589,6.9768 L878.5607,7.4445 L888.3536,6.462 L898.1537,6.6492 L907.9577,7.4799 L917.7581,7.7053 L927.5485,6.3258 L937.3505,6.8108 L947.1526,7.3286 L956.9457,6.3753 L966.75,7.25 L966.7542,7.7212 L976.7087,7.6823 L986.6602,7.2923 L996.6187,7.7046 L1006.5814,8.5747 L1016.5247,7.2743 L1026.4841,7.7798 L1026.4889,8.1997 L1036.1314,8.2709 L1045.7718,8.1547 L1055.4151,8.2985 L1065.0576,8.3722 L1074.6893,7.499 L1084.3418,8.4414 L1084.3338,7.907 L1095.1536,7.9877 L1105.985,8.8497 L1116.8064,9.0438 L1127.6288,9.3035 L1138.4465,9.2495 L1138.4388,8.8616 L1148.1398,9.3534 L1157.8335,9.477 L1167.5471,10.6 L1177.2382,10.5935 L1186.9219,10.2188 L1186.9158,10.003 L1195.1149,10.4154 L1203.3025,10.4203 L1211.5071,11.0339 L1219.705,11.4051 L1227.8914,11.3638 L1227.9005,11.6056 L1231.3008,11.2989 L1234.7326,11.827 L1238.1291,11.4197 L1241.5616,11.9671 L1244.975,12.0068 L1244.9687,11.8739 L1247.8778,12.1882 L1250.7815,12.3904 L1253.6871,12.6318 L1256.5626,12.2411 L1259.4785,12.6992 L1259.4919,12.9101 L1261.8213,12.927 L1264.1641,13.1543 L1266.5129,13.4771 L1268.8297,13.2966 L1271.1673,13.4429 L1271.1745,13.5205 L1272.904,13.6968 L1274.6312,13.8489 L1276.351,13.9207 L1278.108,14.3949 L1279.8069,14.2397 L1279.7425,13.9765 L1281.3052,14.8358 L1282.6182,14.6745 L1284.0657,15.0626 L1285.5656,15.6652 L1287,16 L1287.0754,16 L1285.6858,25.8719 L1288.1032,35.7438 L1287.2903,45.6157 L1288.9378,55.4876 L1288.7789,65.3595 L1285.8046,75.2314 L1285.9389,85.1032 L1286.6555,94.9751 L1287.9481,104.847 L1288.0746,114.7189 L1287.8031,124.5908 L1286.0881,134.4627 L1288.6969,144.3346 L1288.6901,154.2065 L1286.8739,164.0784 L1286.3625,173.9503 L1285.9296,183.8222 L1286.4278,193.6941 L1287.3664,203.5659 L1286.8176,213.4378 L1285.8859,223.3097 L1288.2997,233.1816 L1285.7762,243.0535 L1288.3397,252.9254 L1288.1393,262.7973 L1287.9916,272.6692 L1288.8467,282.5411 L1286.3443,292.413 L1286.1983,302.2849 L1288.3837,312.1568 L1285.4083,322.0286 L1286.376,331.9005 L1287.308,341.7724 L1287.1832,351.6443 L1286.0441,361.5162 L1286.8854,371.3881 L1287,381.26 L1287,381.26 L1287.0787,381.5814 L1285.6299,381.892 L1284.0598,381.7067 L1282.6924,382.35 L1281.1912,382.4463 L1279.8069,383.0203 L1279.8058,383.0086 L1278.0909,383.3093 L1276.3682,383.5248 L1274.596,383.2042 L1272.9116,383.835 L1271.1673,383.8171 L1271.1676,383.8208 L1268.8139,383.7195 L1266.4785,383.9056 L1264.1633,384.4082 L1261.8233,384.5229 L1259.4785,384.5608 L1259.4782,384.5535 L1256.5636,384.4009 L1253.6911,385.1299 L1250.7698,384.8378 L1247.8645,384.8803 L1244.975,385.2532 L1244.9739,385.2233 L1241.5681,385.6437 L1238.1518,385.7838 L1234.7254,385.6546 L1231.3056,385.7005 L1227.8914,385.8962 L1227.8935,385.9717 L1219.6998,386.208 L1211.4973,386.1286 L1203.3148,386.7671 L1195.1227,387.0605 L1186.9219,387.0413 L1186.9161,386.7536 L1177.2154,386.663 L1167.5497,388.3283 L1157.8372,387.6508 L1148.1416,387.8164 L1138.4465,388.0105 L1138.4525,388.4091 L1127.6127,387.3113 L1116.8152,389.0403 L1105.9834,388.4748 L1095.1761,389.5486 L1084.3418,388.8186 L1084.3385,388.5308 L1074.7051,389.4742 L1065.0491,388.4472 L1055.4167,389.4761 L1045.7758,389.7654 L1036.1221,388.9335 L1026.4841,389.4802 L1026.4884,389.9642 L1016.5217,388.8066 L1006.5672,389.0295 L996.6251,390.6555 L986.6695,390.7459 L976.7124,390.6797 L966.75,390.01 L966.747,389.5295 L956.9538,390.5825 L947.1475,389.501 L937.3525,390.2682 L927.5527,390.2492 L917.7513,389.9612 L907.9591,391.1925 L898.1584,391.0226 L888.3528,390.0641 L878.5605,391.2541 L868.7576,390.7347 L858.9527,389.8943 L849.1582,390.7327 L849.1571,390.4216 L838.8977,390.0694 L828.6415,390.6214 L818.3811,390.0054 L808.1233,390.0809 L797.8685,391.0119 L787.6096,390.7948 L777.3519,390.9143 L767.0934,390.8386 L756.8369,391.2897 L746.5781,391.1038 L746.577,390.3636 L736.5706,391.3328 L726.561,390.1441 L716.5553,391.5453 L706.5481,391.9566 L696.5401,391.878 L686.532,391.6793 L676.5238,391.4694 L666.5158,391.3697 L656.5065,390.391 L646.5,391.26 L646.5,391.26 L646.5009,391.8554 L636.4929,391.6839 L626.4841,391.0243 L616.4766,391.2054 L606.4683,390.9194 L596.4614,391.4721 L586.4545,392.0736 L576.4446,390.6788 L566.4385,391.7602 L556.4295,391.0004 L546.4219,391.1038 L546.42,390.5981 L536.1618,390.4908 L525.9027,390.17 L515.6457,390.4046 L505.39,391.0037 L495.1332,391.2822 L484.8766,391.6494 L474.6178,391.4041 L464.3544,389.8584 L454.1028,391.5951 L443.8418,390.7327 L443.8458,391.3808 L434.0469,391.3934 L424.2474,391.308 L414.4384,389.6732 L404.6424,390.1481 L394.8478,390.8528 L385.042,389.7294 L375.2457,390.1739 L365.4478,390.3402 L355.6506,390.6254 L345.849,390.1915 L336.0554,391.0632 L326.25,390.01 L326.2549,390.5585 L316.2973,390.2631 L306.3322,389.1135 L296.3869,390.1968 L286.4205,388.8909 L276.4752,389.976 L266.5159,389.4802 L266.516,389.4906 L256.8775,389.7692 L247.2286,389.1431 L237.584,388.888 L227.9328,388.0514 L218.2979,388.643 L208.6582,388.8186 L208.6442,387.8788 L197.8324,388.3288 L187.025,389.0791 L176.1986,388.548 L165.3654,387.5701 L154.5535,388.0105 L154.56,388.3382 L144.8601,387.9041 L135.1778,388.347 L125.4833,388.1821 L115.7757,387.36 L106.0781,387.0413 L106.0759,386.9617 L97.8816,386.717 L89.6903,386.5804 L81.5047,386.6515 L73.2942,385.8259 L65.1086,385.8962 L65.1059,385.8234 L61.6964,385.8861 L58.2874,385.964 L54.862,385.6045 L51.4384,385.2938 L48.025,385.2532 L48.0094,384.9256 L45.1153,384.9266 L42.2189,384.8777 L39.3301,384.9886 L36.43,384.8633 L33.5215,384.5608 L33.5229,384.5838 L31.18,384.3531 L28.8257,383.9441 L26.5118,384.1718 L24.1827,384.1589 L21.8327,383.8171 L21.8605,384.1193 L20.1088,383.7012 L18.3801,383.5337 L16.64,383.2415 L14.9312,383.2897 L13.1931,383.0203 L13.1435,382.8174 L11.809,382.891 L10.2836,382.1842 L8.8212,381.7352 L7.4658,381.723 L6,381.26 L7.2582,381.26 L6.1528,371.3881 L5.6769,361.5162 L6.421,351.6443 L5.9342,341.7724 L5.7464,331.9005 L6.205,322.0286 L5.1147,312.1568 L7.0388,302.2849 L7.8333,292.413 L5.0571,282.5411 L5.375,272.6692 L4.7504,262.7973 L6.6318,252.9254 L5.7499,243.0535 L7.4704,233.1816 L5.1994,223.3097 L5.043,213.4378 L6.7915,203.5659 L5.4013,193.6941 L6.7118,183.8222 L6.7457,173.9503 L7.1622,164.0784 L4.7071,154.2065 L6.2347,144.3346 L7.4268,134.4627 L4.5518,124.5908 L7.345,114.7189 L5.0945,104.847 L6.4179,94.9751 L7.7407,85.1032 L4.3189,75.2314 L7.9257,65.3595 L5.791,55.4876 L5.1309,45.6157 L7.9502,35.7438 L4.1661,25.8719 L6,16 " fill="#98FB98" style="stroke:#181818;stroke-width:4.0;"/><path d="M6,16 L6,16 L6.0222,16.0907 L7.3949,16.1732 L8.8977,16.7875 L10.3581,17.2287 L11.6791,17.1002 L13.1931,17.7603 L13.1899,17.7259 L14.9036,17.7309 L16.6333,17.9093 L18.3741,18.2082 L20.0765,18.0917 L21.8327,18.5571 L21.8483,18.8026 L24.1526,18.4263 L26.5026,18.7668 L28.8581,19.1949 L31.1813,19.114 L33.5215,19.3008 L33.5229,19.3311 L36.4215,19.4251 L39.3267,19.657 L42.2287,19.8224 L45.1367,20.1147 L48.025,19.9932 L48.0362,20.2913 L51.4531,20.4235 L54.8627,20.3635 L58.2829,20.5849 L61.7037,20.8195 L65.1086,20.6362 L65.0997,20.3158 L73.311,21.1667 L81.4928,20.9625 L89.697,21.5604 L97.8781,21.3323 L106.0781,21.7813 L106.0763,21.6899 L115.793,22.9637 L125.467,22.104 L135.1661,22.5032 L144.8674,23.0081 L154.5535,22.7505 L154.5618,23.3054 L165.3743,22.9069 L176.2011,23.4566 L187.0049,22.4722 L197.8429,23.7761 L208.6582,23.5586 L208.6666,24.2895 L218.3079,24.2615 L227.9534,24.5964 L237.5797,23.2453 L247.22,23.1302 L256.8635,23.2815 L266.5159,24.2202 L266.5152,24.1417 L276.4692,24.0465 L286.4353,25.3053 L296.3809,24.2522 L306.3346,24.116 L316.297,24.966 L326.25,24.75 L326.2445,23.8609 L336.0451,24.1181 L345.854,25.7357 L355.6515,25.5115 L365.4533,25.9702 L375.2439,24.6221 L385.0485,25.5369 L394.8501,25.9588 L404.6407,24.6019 L414.4431,25.1642 L424.2442,25.5202 L434.0478,26.2814 L443.8418,25.4727 L443.8418,25.4671 L454.102,26.1265 L464.3551,24.8085 L474.6126,24.681 L484.8763,26.2926 L495.1284,24.7023 L505.3923,26.3739 L515.6488,26.0079 L525.9046,25.4123 L536.1622,25.3349 L546.4219,25.8438 L546.4228,26.4554 L556.4291,25.4603 L566.4387,26.6641 L576.4442,25.1536 L586.4544,26.7295 L596.4619,26.5676 L606.4693,26.2641 L616.4767,26.0161 L626.4859,26.9376 L636.4935,26.8025 L646.5,26 L646.5,26 L646.5004,26.2257 L656.5084,26.342 L666.5154,25.7951 L676.5249,26.9084 L686.5316,26.144 L696.5394,26.152 L706.5456,25.0951 L716.5538,25.3503 L726.5636,26.5827 L736.5712,26.4324 L746.5781,25.8438 L746.5779,25.7865 L756.8346,25.3771 L767.0931,25.4776 L777.3488,24.8175 L787.6122,26.2483 L797.8717,26.6443 L808.1287,26.3229 L818.3875,26.5106 L828.6415,25.3646 L838.9006,25.6261 L849.1582,25.4727 L849.155,24.9559 L858.9598,25.7911 L868.7589,25.6812 L878.5607,26.0285 L888.3536,24.9256 L898.1537,24.9923 L907.9577,25.7026 L917.7581,25.8075 L927.5485,24.3075 L937.3505,24.6722 L947.1526,25.0695 L956.9457,23.9958 L966.75,24.75 L966.7542,25.2212 L976.7087,25.0057 L986.6602,24.4391 L996.6187,24.6748 L1006.5814,25.3683 L1016.5247,23.8914 L1026.4841,24.2202 L1026.4889,24.6402 L1036.1314,24.4908 L1045.7718,24.154 L1055.4151,24.0773 L1065.0576,23.9304 L1074.6893,22.8367 L1084.3418,23.5586 L1084.3338,23.0242 L1095.1536,22.7817 L1105.985,23.3204 L1116.8064,23.1912 L1127.6288,23.1277 L1138.4465,22.7505 L1138.4388,22.3626 L1148.1398,22.4666 L1157.8335,22.2025 L1167.5471,22.9379 L1177.2382,22.5437 L1186.9219,21.7813 L1186.9158,21.5655 L1195.1149,21.5198 L1203.3025,21.0668 L1211.5071,21.2224 L1219.705,21.1356 L1227.8914,20.6362 L1227.9005,20.8781 L1231.3008,20.3142 L1234.7326,20.5851 L1238.1291,19.9205 L1241.5616,20.2107 L1244.975,19.9932 L1244.9687,19.8603 L1247.8778,19.8977 L1250.7815,19.8229 L1253.6871,19.7873 L1256.5626,19.1197 L1259.4785,19.3008 L1259.4919,19.5117 L1261.8213,19.2311 L1264.1641,19.1609 L1266.5129,19.1862 L1268.8297,18.7082 L1271.1673,18.5571 L1271.1745,18.6346 L1272.904,18.4922 L1274.6312,18.3256 L1276.351,18.0786 L1278.108,18.2342 L1279.8069,17.7603 L1279.7425,17.497 L1281.3052,17.6522 L1282.6182,16.7868 L1284.0657,16.4708 L1285.5656,16.3693 L1287,16 " fill="none" style="stroke:#181818;stroke-width:4.0;"/><text fill="#000000" font-family="Chalkduster" font-size="24" font-style="italic" lengthAdjust="spacing" textLength="169" x="562" y="51.8409">&#171;repository&#187;</text><text fill="#000000" font-family="Chalkduster" font-size="24" font-weight="bold" lengthAdjust="spacing" textLength="268" x="512.5" y="82.4707">Archival Repository</text></g><!--cluster dn--><g id="cluster_dn"><polygon fill="none" points="453.5,109,453.5,109.2102,463.463,108.5857,473.4259,109.1933,483.3889,109.3997,493.3519,108.2866,503.3148,108.9223,513.2778,108.5735,523.2407,108.6165,533.2037,108.9318,543.1667,108.3086,553.1296,109.5536,563.0926,108.3697,573.0556,108.8022,583.0185,109.4319,592.9815,108.9142,602.9444,109.0682,612.9074,108.9681,622.8704,109.1785,632.8333,109.2391,642.7963,109.5857,652.7593,109.6711,662.7222,109.6793,672.6852,109.2546,682.6481,109.4636,692.6111,109.7022,702.5741,108.2788,712.537,109.6785,722.5,108.7035,732.463,109.5338,742.4259,108.505,752.3889,108.9315,762.3519,109.7416,772.3148,108.9513,782.2778,109.1053,792.2407,109.3386,802.2037,109.4162,812.1667,108.9961,822.1296,109.2872,832.0926,108.4276,842.0556,109.2844,852.0185,109.5482,861.9815,109.4445,871.9444,109.613,881.9074,108.5169,891.8704,108.3478,901.8333,108.3786,911.7963,108.9411,921.7593,108.8035,931.7222,109.6814,941.6852,108.8253,951.6481,108.6569,961.6111,109.2283,971.5741,108.3332,981.537,108.4809,991.5,109.649,1001.463,109.4357,1011.4259,109.7345,1021.3889,108.6782,1031.3519,109.3192,1041.3148,109.5904,1051.2778,108.5276,1061.2407,108.9041,1071.2037,109.126,1081.1667,109.6518,1091.1296,108.9958,1101.0926,109.4626,1111.0556,108.4462,1121.0185,108.3227,1130.9815,109.5036,1140.9444,108.2831,1150.9074,109.509,1160.8704,109.2066,1170.8333,108.7321,1180.7963,108.6462,1190.7593,109.4588,1200.7222,108.7007,1210.6852,109.5919,1220.6481,108.4473,1230.6111,109.6174,1240.5741,109.4843,1250.537,109.245,1260.5,109,1260.506,109.0145,1260.9462,109.3702,1261.2854,109.4819,1261.5823,109.4915,1261.9484,109.6684,1262.2678,109.7322,1262.2277,109.7156,1262.6349,110.1772,1262.6084,110.4591,1262.7603,110.8149,1262.6662,111.0688,1263,111.5,1262.5948,111.5,1263.5307,121.6304,1263.4298,131.7608,1262.9571,141.8912,1262.6778,152.0216,1262.7811,162.152,1262.3138,172.2824,1263.4147,182.4128,1263.7396,192.5432,1263.5264,202.6736,1263.6949,212.804,1262.8633,222.9344,1263.0872,233.0648,1262.6124,243.1952,1263.284,253.3256,1263.2468,263.456,1263.5524,273.5864,1262.7703,283.7168,1262.8656,293.8472,1263.4435,303.9776,1263.5673,314.108,1262.4875,324.2384,1262.8061,334.3688,1263.1493,344.4992,1262.3892,354.6296,1263,364.76,1263.1088,364.8051,1262.933,365.1465,1262.6761,365.4543,1262.6045,365.8388,1262.6386,366.2672,1262.2678,366.5278,1262.2279,366.4314,1261.9544,366.7712,1261.5971,366.9086,1261.2219,367.0028,1260.8715,367.157,1260.5,367.26,1260.5,367.3735,1250.537,366.6358,1240.5741,366.8592,1230.6111,366.7985,1220.6481,367.3238,1210.6852,367.3481,1200.7222,367.4217,1190.7593,366.969,1180.7963,367.1925,1170.8333,367.1398,1160.8704,367.8369,1150.9074,367.6866,1140.9444,366.7745,1130.9815,367.1871,1121.0185,366.6828,1111.0556,367.5484,1101.0926,367.8685,1091.1296,367.8046,1081.1667,366.8244,1071.2037,367.724,1061.2407,366.5172,1051.2778,367.4602,1041.3148,366.9607,1031.3519,367.3567,1021.3889,367.5003,1011.4259,367.7321,1001.463,366.5401,991.5,367.7355,981.537,367.4382,971.5741,367.6153,961.6111,368.0078,951.6481,367.2655,941.6852,367.4353,931.7222,367.4734,921.7593,367.4572,911.7963,367.2592,901.8333,367.9707,891.8704,366.6503,881.9074,367.8253,871.9444,366.636,861.9815,366.7197,852.0185,367.3,842.0556,367.2883,832.0926,366.7672,822.1296,367.6737,812.1667,367.3689,802.2037,367.9867,792.2407,367.9271,782.2778,366.8117,772.3148,366.8621,762.3519,367.1308,752.3889,367.6155,742.4259,367.663,732.463,367.5612,722.5,366.918,712.537,367.8964,702.5741,367.8938,692.6111,367.2127,682.6481,367.0209,672.6852,366.8586,662.7222,367.0454,652.7593,367.3974,642.7963,367.1916,632.8333,366.8422,622.8704,367.7474,612.9074,366.8011,602.9444,367.7624,592.9815,367.6872,583.0185,367.6319,573.0556,367.9525,563.0926,367.0141,553.1296,366.9594,543.1667,367.7789,533.2037,366.6631,523.2407,367.026,513.2778,367.3755,503.3148,367.3287,493.3519,366.9015,483.3889,367.217,473.4259,368.0046,463.463,367.9085,453.5,367.26,453.4239,367.0764,453.1565,367.1377,452.7273,366.8088,452.436,366.8126,452.1232,366.7644,451.7322,366.5278,451.8615,366.5813,451.3811,366.0894,451.5627,365.8718,451.2955,365.4682,450.9754,365.0427,451,364.76,450.5289,364.76,451.3266,354.6296,451.2499,344.4992,450.9836,334.3688,450.3279,324.2384,451.6581,314.108,450.6882,303.9776,450.4719,293.8472,450.9327,283.7168,451.5897,273.5864,451.6154,263.456,451.0351,253.3256,450.8488,243.1952,451.1698,233.0648,451.1862,222.9344,450.4922,212.804,451.414,202.6736,451.5588,192.5432,450.7842,182.4128,450.5708,172.2824,451.6746,162.152,451.021,152.0216,450.9998,141.8912,451.299,131.7608,450.3543,121.6304,451,111.5,451.1632,111.5676,451.1417,111.1445,451.4989,110.8782,451.3729,110.4118,451.7117,110.138,451.7322,109.7322,451.6756,109.5955,452.117,109.6612,452.4877,109.5561,452.7511,109.1921,453.1928,109.2582,453.5,109" style="stroke:#181818;stroke-width:4.0;"/><text fill="#000000" font-family="Chalkduster" font-size="24" font-weight="bold" lengthAdjust="spacing" textLength="127" x="793.5" y="134.8409">Dataset 1</text></g><!--entity d1--><g id="elem_d1"><polygon fill="none" points="284.5,158,284.5,158.2102,294.1667,157.5857,303.8333,158.1933,313.5,158.3997,323.1667,157.2866,332.8333,157.9223,342.5,157.5735,352.1667,157.6165,361.8333,157.9318,371.5,157.3086,381.1667,158.5536,390.8333,157.3697,400.5,157.8022,410.1667,158.4319,419.8333,157.9142,429.5,158,429.5087,158.021,429.8495,158.1366,430.2299,158.3479,430.5912,158.513,430.9889,158.7662,431.2678,158.7322,431.4744,158.8178,431.6234,159.1724,431.6391,159.4718,431.8499,159.852,432.0698,160.236,432,160.5,431.2788,160.5,432.6785,169.626,431.7035,178.7519,432.5338,187.8779,431.505,197.0039,432,206.1298,431.9789,206.1211,432.0819,206.578,431.6921,206.8307,431.5931,207.2039,431.5185,207.5872,431.2678,207.8976,431.3209,208.0258,430.9137,208.0428,430.5973,208.2789,430.1341,208.1607,429.8898,208.571,429.5,208.6298,429.5,209.178,419.8333,209.0744,410.1667,209.2429,400.5,208.1468,390.8333,207.9776,381.1667,208.0084,371.5,208.571,361.8333,208.4333,352.1667,209.3112,342.5,208.4552,332.8333,208.2868,323.1667,208.8581,313.5,207.963,303.8333,208.1107,294.1667,209.2788,284.5,208.6298,284.5556,208.764,284.2401,208.7096,283.7518,208.2378,283.4801,208.2888,283.1611,208.2259,282.7322,207.8976,282.5868,207.8373,282.5563,207.5318,282.4781,207.2066,282.4936,206.9201,282.1452,206.4829,282,206.1298,282.4626,206.1298,281.4462,197.0039,281.3227,187.8779,282.5036,178.7519,281.2831,169.626,282,160.5,282.1567,160.5649,282.2101,160.1728,282.2104,159.7587,282.3304,159.3942,282.7271,159.1443,282.7322,158.7322,282.694,158.6401,283.1613,158.7681,283.3688,158.2691,283.8717,158.483,284.2082,158.2956,284.5,158" style="stroke:#181818;stroke-width:4.0;"/><text fill="#000000" font-family="Chalkduster" font-size="24" lengthAdjust="spacing" textLength="130" x="292" y="191.8409">Dataset n</text></g><!--entity d2--><g id="elem_d2"><polygon fill="none" points="205.5,158,205.5,158.0701,213.3,157.8619,221.1,158.0644,228.9,158.1332,236.7,157.7622,244.5,158,244.4901,157.9761,244.7991,158.0151,245.1582,158.1748,245.552,158.4184,245.826,158.3729,246.2678,158.7322,246.4383,158.8029,246.2201,159.0054,246.4998,159.4141,246.8401,159.848,246.8271,160.1355,247,160.5,247.0682,160.5,246.9681,169.626,247.1785,178.7519,247.2391,187.8779,247.5857,197.0039,247,206.1298,247.2067,206.2154,247.0627,206.57,246.7855,206.8694,246.7034,207.2496,246.6305,207.6336,246.2678,207.8976,246.1758,207.6755,246.0008,208.253,245.5228,208.0992,245.2752,208.5013,244.7904,208.3309,244.5,208.6298,244.5,208.607,236.7,208.877,228.9,208.6136,221.1,208.6649,213.3,208.7427,205.5,208.6298,205.5531,208.758,205.1459,208.4822,204.8295,208.4254,204.3663,208.0142,204.1221,208.1316,203.7322,207.8976,203.9011,207.9675,203.7227,207.6008,203.6281,207.2687,203.1441,206.7753,202.9456,206.4002,203,206.1298,202.3786,206.1298,202.9411,197.0039,202.8035,187.8779,203.6814,178.7519,202.8253,169.626,203,160.5,202.8944,160.4562,203.2167,160.1756,203.0875,159.7078,203.2795,159.3731,203.7856,159.1686,203.7322,158.7322,203.7878,158.8664,204.1795,158.812,204.3983,158.3402,204.8336,158.3912,205.2218,158.3283,205.5,158" style="stroke:#181818;stroke-width:4.0;"/><text fill="#000000" font-family="Chalkduster" font-size="24" lengthAdjust="spacing" textLength="24" x="213" y="191.8409">...</text></g><!--entity d3--><g id="elem_d3"><polygon fill="none" points="25,158,25,158.2102,35,157.5857,45,158.1933,55,158.3997,65,157.2866,75,157.9223,85,157.5735,95,157.6165,105,157.9318,115,157.3086,125,158.5536,135,157.3697,145,157.8022,155,158.4319,165,158,164.9891,157.9736,165.3623,158.1675,165.703,158.2831,166.0834,158.4943,166.4447,158.6594,166.7678,158.7322,166.9481,158.8069,167.1209,159.1714,167.2698,159.526,167.2855,159.8254,167.4963,160.2056,167.5,160.5,168.2022,160.5,166.7788,169.626,168.1785,178.7519,167.2035,187.8779,168.0338,197.0039,167.5,206.1298,167.3476,206.0667,167.3325,206.4746,167.4355,206.9315,167.0457,207.1843,166.9466,207.5575,166.7678,207.8976,166.811,208.0019,166.4673,208.1722,166.0602,208.1893,165.7437,208.4254,165.2805,208.3071,165,208.6298,165,208.9142,155,209.178,145,209.0744,135,209.2429,125,208.1468,115,207.9776,105,208.0084,95,208.571,85,208.4333,75,209.3112,65,208.4552,55,208.2868,45,208.8581,35,207.963,25,208.6298,24.9338,208.47,24.7292,208.6832,24.3485,208.4711,24.033,208.4167,23.5447,207.9449,23.2322,207.8976,23.3305,207.9383,23.2676,207.6194,22.7939,207.1302,22.7634,206.8247,22.6852,206.4995,22.5,206.1298,23.1518,206.1298,22.4958,197.0039,22.9626,187.8779,21.9462,178.7519,21.8227,169.626,22.5,160.5,22.6551,160.5642,22.4257,160.055,22.9496,159.8578,23.003,159.4657,23.0033,159.0516,23.2322,158.7322,23.1871,158.6233,23.6443,158.7271,23.9012,158.3472,24.3684,158.4752,24.5759,157.9762,25,158" style="stroke:#181818;stroke-width:4.0;"/><text fill="#000000" font-family="Chalkduster" font-size="24" lengthAdjust="spacing" textLength="125" x="32.5" y="191.8409">Dataset 2</text></g><!--entity lic--><g id="elem_lic"><polygon fill="none" points="561.5,300.63,561.5,300.8402,571.4375,300.2157,581.375,300.8233,591.3125,301.0297,601.25,299.9166,611.1875,300.5523,621.125,300.2035,631.0625,300.2465,641,300.5618,650.9375,299.9386,660.875,301.1836,670.8125,299.9997,680.75,300.4322,690.6875,301.0619,700.625,300.5442,710.5625,300.6982,720.5,300.63,720.4959,300.6202,720.8763,300.8314,721.2376,300.9965,721.6354,301.2497,721.9998,301.4224,722.2678,301.3622,722.477,301.4489,722.4926,301.7483,722.7034,302.1285,722.9234,302.5125,722.6315,302.6845,723,303.13,723.6785,303.13,722.7035,312.256,723.5338,321.3819,722.505,330.5079,722.9315,339.6339,723,348.7598,723.2284,348.8544,722.8385,349.1072,722.7395,349.4804,722.6649,349.8637,722.5424,350.2271,722.2678,350.5276,722.2673,350.5264,721.9509,350.7625,721.4876,350.6442,721.2434,351.0545,720.9235,351.2822,720.5,351.2598,720.5,351.7044,710.5625,351.8729,700.625,350.7768,690.6875,350.6076,680.75,350.6384,670.8125,351.201,660.875,351.0633,650.9375,351.9412,641,351.0852,631.0625,350.9168,621.125,351.4881,611.1875,350.593,601.25,350.7407,591.3125,351.9088,581.375,351.6955,571.4375,351.9943,561.5,351.2598,561.459,351.1607,561.1872,351.2117,560.8682,351.1488,560.3791,350.675,560.0736,350.6445,559.7322,350.5276,559.771,350.5437,559.7865,350.2572,559.438,349.82,559.4353,349.5259,558.9759,349.0427,559,348.7598,558.3227,348.7598,559.5036,339.6339,558.2831,330.5079,559.509,321.3819,559.2066,312.256,559,303.13,558.9175,303.0958,559.0375,302.7313,559.4342,302.4814,559.3472,302.0312,559.7681,301.7913,559.7322,301.3622,559.6617,301.192,560.1645,301.4059,560.5011,301.2185,560.8241,300.9983,561.1525,300.791,561.5,300.63" style="stroke:#181818;stroke-width:4.0;"/><text fill="#000000" font-family="Chalkduster" font-size="24" lengthAdjust="spacing" textLength="144" x="569" y="334.4709">License.txt</text></g><!--entity meta--><g id="elem_meta"><polygon fill="none" points="469.5,158,469.5,158.2102,479.5882,157.5857,489.6765,158.1933,499.7647,158.3997,509.8529,157.2866,519.9412,157.9223,530.0294,157.5735,540.1176,157.6165,550.2059,157.9318,560.2941,157.3086,570.3824,158.5536,580.4706,157.3697,590.5588,157.8022,600.6471,158.4319,610.7353,157.9142,620.8235,158.0682,630.9118,157.9681,641,158.1785,651.0882,158.2391,661.1765,158.5857,671.2647,158.6711,681.3529,158.6793,691.4412,158.2546,701.5294,158.4636,711.6176,158.7022,721.7059,157.2788,731.7941,158.6785,741.8824,157.7035,751.9706,158.5338,762.0588,157.505,772.1471,157.9315,782.2353,158.7416,792.3235,157.9513,802.4118,158.1053,812.5,158,812.5432,158.1043,812.9066,158.2746,813.2066,158.2917,813.5973,158.5278,813.8412,158.4095,814.2678,158.7322,814.3553,158.7685,814.583,159.1557,814.6976,159.496,814.8959,159.8711,814.7048,160.0848,815,160.5,814.3478,160.5,814.3786,169.626,814.9411,178.7519,814.8035,187.8779,815.6814,197.0039,815,206.1298,814.9462,206.1076,814.7479,206.4396,814.7774,206.8661,814.3553,207.1054,814.2543,207.4778,814.2678,207.8976,814.3505,208.0975,813.9698,208.1782,813.6544,208.4167,813.1661,208.2378,812.8943,208.5817,812.5,208.6298,812.5,209.2203,802.4118,208.1574,792.3235,208.534,782.2353,208.7558,772.1471,209.2816,762.0588,208.6256,751.9706,209.0924,741.8824,208.076,731.7941,207.9526,721.7059,209.1334,711.6176,207.9129,701.5294,209.1388,691.4412,208.8365,681.3529,208.3619,671.2647,208.2761,661.1765,209.0886,651.0882,208.3305,641,209.2217,630.9118,208.0771,620.8235,209.2473,610.7353,209.1141,600.6471,208.8748,590.5588,208.6771,580.4706,209.3564,570.3824,209.2434,560.2941,208.7991,550.2059,208.898,540.1176,208.4996,530.0294,209.3463,519.9412,208.7847,509.8529,208.8024,499.7647,208.0215,489.6765,208.2246,479.5882,209.1606,469.5,208.6298,469.5548,208.7622,469.141,208.4702,468.7518,208.2377,468.4114,208.1231,467.9983,207.8327,467.7322,207.8976,467.86,207.9505,467.8135,207.6384,467.6014,207.2576,467.5069,206.9256,467.1043,206.4659,467,206.1298,467.0872,206.1298,466.6124,197.0039,467.284,187.8779,467.2468,178.7519,467.5524,169.626,467,160.5,466.9293,160.4707,467.1051,160.1293,467.4295,159.8495,467.6141,159.5117,467.4279,159.0204,467.7322,158.7322,467.7075,158.6725,468.1048,158.6318,468.3614,158.2512,468.838,158.4017,469.1794,158.2259,469.5,158" style="stroke:#181818;stroke-width:4.0;"/><text fill="#000000" font-family="Chalkduster" font-size="24" lengthAdjust="spacing" textLength="328" x="477" y="191.8409">ro-crate-metadata.json</text></g><!--entity dd--><g id="elem_dd"><polygon fill="none" points="1109,158,1109,158.2102,1118.7143,157.5857,1128.4286,158.1933,1138.1429,158.3997,1147.8571,157.2866,1157.5714,157.9223,1167.2857,157.5735,1177,157.6165,1186.7143,157.9318,1196.4286,157.3086,1206.1429,158.5536,1215.8571,157.3697,1225.5714,157.8022,1235.2857,158.4319,1245,158,1244.9891,157.9736,1245.3623,158.1675,1245.703,158.2831,1246.0834,158.4943,1246.4447,158.6594,1246.7678,158.7322,1246.9481,158.8069,1247.1209,159.1714,1247.2698,159.526,1247.2855,159.8254,1247.4963,160.2056,1247.5,160.5,1248.2022,160.5,1246.7788,169.626,1248.1785,178.7519,1247.2035,187.8779,1248.0338,197.0039,1247.5,206.1298,1247.3476,206.0667,1247.3325,206.4746,1247.4355,206.9315,1247.0457,207.1843,1246.9466,207.5575,1246.7678,207.8976,1246.811,208.0019,1246.4673,208.1722,1246.0602,208.1893,1245.7437,208.4254,1245.2805,208.3071,1245,208.6298,1245,208.9142,1235.2857,209.178,1225.5714,209.0744,1215.8571,209.2429,1206.1429,208.1468,1196.4286,207.9776,1186.7143,208.0084,1177,208.571,1167.2857,208.4333,1157.5714,209.3112,1147.8571,208.4552,1138.1429,208.2868,1128.4286,208.8581,1118.7143,207.963,1109,208.6298,1108.9338,208.47,1108.7292,208.6832,1108.3485,208.4711,1108.033,208.4167,1107.5447,207.9449,1107.2322,207.8976,1107.3305,207.9383,1107.2676,207.6194,1106.7939,207.1302,1106.7634,206.8247,1106.6852,206.4995,1106.5,206.1298,1107.1518,206.1298,1106.4958,197.0039,1106.9626,187.8779,1105.9462,178.7519,1105.8227,169.626,1106.5,160.5,1106.6551,160.5642,1106.4257,160.055,1106.9496,159.8578,1107.003,159.4657,1107.0033,159.0516,1107.2322,158.7322,1107.1871,158.6233,1107.6443,158.7271,1107.9012,158.3472,1108.3684,158.4752,1108.5759,157.9762,1109,158" style="stroke:#181818;stroke-width:4.0;"/><text fill="#000000" font-family="Chalkduster" font-size="24" lengthAdjust="spacing" textLength="121" x="1116.5" y="191.8409">data_dir</text></g><!--link meta to lic--><g id="link_meta_lic"><path d="M641,208.81 L641.2802,208.81 L640.4476,218.3089 L641.2577,227.8078 L641.5329,237.3067 L640.0488,246.8056 L640.8964,256.3044 L640.4313,265.8033 L640.4887,275.3022 L640.9091,284.8011 L641,294.3 " fill="none" style="stroke:#8B0000;stroke-width:4.0;"/><polygon fill="#8B0000" points="641,299.26,641.064,299.2885,641.6738,297.4039,642.6589,295.6862,643.5217,293.9141,643.9827,291.9634,645,290.26,644.9817,290.2417,644.0995,290.9595,643.3096,291.7696,642.5839,292.6439,641.637,293.297,641,294.26,641.1305,294.3905,640.0514,293.3114,639.3534,292.6134,638.7018,291.9618,637.7798,291.0398,637,290.26,637.0208,290.2692,637.7903,292.0557,638.6544,293.8842,639.4728,295.6924,640.3784,297.5393,641,299.26" style="stroke:#8B0000;stroke-width:4.0;"/><text fill="#000000" font-family="Chalkduster" font-size="24" lengthAdjust="spacing" textLength="308" x="642" y="263.4709">Dataset has license.txt</text></g><!--link meta to dd--><g id="link_meta_dd"><path d="M815.39,183.32 L815.39,183.6002 L825.2231,182.7676 L835.0562,183.5777 L844.8893,183.8529 L854.7224,182.3688 L864.5555,183.2164 L874.3886,182.7513 L884.2217,182.8087 L894.0548,183.2291 L903.8879,182.3982 L913.721,184.0582 L923.5541,182.4796 L933.3872,183.0563 L943.2203,183.8959 L953.0534,183.2056 L962.8866,183.411 L972.7197,183.2774 L982.5528,183.558 L992.3859,183.6388 L1002.219,184.1009 L1012.0521,184.2147 L1021.8852,184.2257 L1031.7183,183.6595 L1041.5514,183.9381 L1051.3845,184.2563 L1061.2176,182.3584 L1071.0507,184.2247 L1080.8838,182.9247 L1090.7169,184.0317 L1100.55,183.32 " fill="none" style="stroke:#8B0000;stroke-width:4.0;"/><polygon fill="#8B0000" points="1105.25,183.32,1105.2785,183.384,1103.3939,182.3938,1101.6762,181.7789,1099.9041,181.0417,1097.9534,179.9027,1096.25,179.32,1096.2317,179.3017,1096.9495,180.0195,1097.7596,180.8296,1098.6339,181.7039,1099.287,182.357,1100.25,183.32,1100.3805,183.4505,1099.3014,183.9714,1098.6034,184.8734,1097.9518,185.8218,1097.0298,186.4998,1096.25,187.32,1096.2592,187.3408,1098.0457,186.5103,1099.8742,185.7744,1101.6824,184.9928,1103.5293,184.2984,1105.25,183.32" style="stroke:#8B0000;stroke-width:4.0;"/><text fill="#000000" font-family="Chalkduster" font-size="24" lengthAdjust="spacing" textLength="255" x="833.25" y="173.1609">Describes in detail</text></g><!--SRC=[RP1FQmCX4CNlVeffxbgItafOAFIOKxz0cEYGM5mDElspb7xtZfejkn3GW_D-x_dqmKSRFXmTHumJ6FFea57B0SyqKcHTU0fa-9kLKbKxOI7Ol6HxyPyOu8skgNXEUTe05iXqXVq-_m-70NuKoDWondCGvwja56A8ZNTRqGNubRsaZ35TtpK_mCpSYzfrz6cDtW6t7OmtS44SlALOsZiR4xpjnUPhbt1EscPaqYCnrZynxoNrzzJ9shZmLVJeVEujt9fhhPMi5g5T-efwQ3sUOUv_wStcfZTqg5a2KR7PdwY0Z-14yU4F]--></g></svg>