<?xml version="1.0" encoding="us-ascii" standalone="no"?><svg xmlns="http://www.w3.org/2000/svg" xmlns:xlink="http://www.w3.org/1999/xlink" contentStyleType="text/css" height="440px" preserveAspectRatio="none" style="width:1387px;height:440px;background:#FFFFFF;" version="1.1" viewBox="0 0 1387 440" width="1387px" zoomAndPan="magnify"><defs/><g><!--entity a--><g id="elem_a"><polygon fill="#F0FFF0" points="414,35.6589,414,35.8691,423.9808,35.2446,433.9615,35.8522,443.9423,36.0586,453.9231,34.9456,463.9038,35.5812,473.8846,35.2325,483.8654,35.2755,493.8462,35.5908,503.8269,34.9676,513.8077,36.2126,523.7885,35.0287,533.7692,35.4612,543.75,36.0909,553.7308,35.5732,563.7115,35.7272,573.6923,35.627,583.6731,35.8375,593.6538,35.8981,603.6346,36.2446,613.6154,36.33,623.5962,36.3382,633.5769,35.9136,643.5577,36.1225,653.5385,36.3612,663.5192,34.9378,673.5,36.3375,683.4808,35.3624,693.4615,36.1928,703.4423,35.1639,713.4231,35.5905,723.4038,36.4006,733.3846,35.6102,743.3654,35.7643,753.3462,35.9976,763.3269,36.0752,773.3077,35.655,783.2885,35.9462,793.2692,35.0865,803.25,35.9433,813.2308,36.2071,823.2115,36.1035,833.1923,36.272,843.1731,35.1759,853.1538,35.0068,863.1346,35.0375,873.1154,35.6001,883.0962,35.4624,893.0769,36.3404,903.0577,35.4843,913.0385,35.3159,923.0192,35.8872,933,35.6589,932.9149,35.4536,933.2873,35.6455,933.7899,36.1517,934.1162,36.2325,934.5079,36.4709,934.7678,36.3912,934.6687,36.3501,935.0125,36.7855,935.2425,37.1736,935.0616,37.3916,935.324,37.7932,935.5,38.1589,935.626,38.1589,936.1518,47.6914,935.4958,57.2239,935.9626,66.7563,934.9462,76.2888,934.8227,85.8212,936.0036,95.3537,934.7831,104.8862,935.5,114.4186,935.6567,114.4835,935.4172,114.7985,935.1246,115.0915,934.9517,115.4341,935.0555,115.8913,934.7678,116.1864,934.7296,116.0942,934.4897,116.5151,933.9902,116.3091,933.7859,116.8159,933.4153,116.9213,933,116.9186,933,117.1636,923.0192,116.9658,913.0385,117.6452,903.0577,117.5322,893.0769,117.0879,883.0962,117.1868,873.1154,116.7884,863.1346,117.6351,853.1538,117.0735,843.1731,117.0912,833.1923,116.3103,823.2115,116.5134,813.2308,117.4494,803.25,117.3484,793.2692,116.8757,783.2885,116.5964,773.3077,116.6997,763.3269,116.2324,753.3462,117.3334,743.3654,117.6582,733.3846,117.445,723.4038,117.6135,713.4231,116.7819,703.4423,117.0058,693.4615,116.531,683.4808,117.2027,673.5,117.1654,663.5192,117.471,653.5385,116.689,643.5577,116.7842,633.5769,117.3621,623.5962,117.486,613.6154,116.4061,603.6346,116.7247,593.6538,117.0679,583.6731,116.3078,573.6923,117.272,563.7115,117.1766,553.7308,116.8179,543.75,117.0609,533.7692,117.6473,523.7885,116.6057,513.8077,117.2336,503.8269,117.2043,493.8462,117.0344,483.8654,117.0595,473.8846,117.0321,463.9038,116.2945,453.9231,116.5178,443.9423,116.4571,433.9615,116.9824,423.9808,117.0067,414,116.9186,414.0206,116.9684,413.6093,116.6826,413.2843,116.6049,412.924,116.4423,412.6594,116.5105,412.2322,116.1864,412.3636,116.2408,411.9363,115.7709,411.9169,115.47,411.6151,115.0521,411.7353,114.809,411.5,114.4186,412.1085,114.4186,412.0446,104.8862,411.0644,95.3537,411.964,85.8212,410.7572,76.2888,411.7002,66.7563,411.2007,57.2239,411.5967,47.6914,411.5,38.1589,411.574,38.1896,411.7918,37.8656,411.5712,37.36,412.0858,37.1589,412.1407,36.7675,412.2322,36.3912,412.2776,36.5006,412.6812,36.475,412.94,36.1,413.3153,36.0058,413.6737,35.8711,414,35.6589" style="stroke:#181818;stroke-width:4.0;"/><text fill="#000000" font-family="Chalkduster" font-size="24" font-style="italic" lengthAdjust="spacing" textLength="218" x="564.5" y="69.4998">&#171;authorization&#187;</text><text fill="#000000" font-family="Chalkduster" font-size="24" lengthAdjust="spacing" textLength="504" x="421.5" y="100.1297">Authentication/Authorization System</text></g><!--entity rep1--><g id="elem_rep1"><path d="M6,342.9189 L6,342.9189 L6.041,343.0029 L7.2728,342.0933 L8.7447,341.6758 L10.1384,341.0981 L11.2751,339.9933 L12.7676,339.6182 L12.7628,339.584 L16.3098,338.9343 L19.8808,338.4572 L23.4685,338.0999 L26.9987,337.3294 L30.6094,337.1377 L30.6293,337.383 L32.9707,336.6646 L35.3703,336.6624 L37.777,336.7475 L40.1424,336.3243 L42.5295,336.1685 L42.5314,336.1987 L45.1896,335.9927 L47.8561,335.9244 L50.5187,335.7897 L53.1889,335.7818 L55.834,335.3604 L55.8478,335.6583 L58.6935,335.5296 L61.5302,335.2088 L64.3799,335.1692 L67.2303,335.1428 L70.0613,334.6987 L70.0497,334.3784 L73.0099,334.8941 L75.932,334.3551 L78.8831,334.618 L81.8043,334.055 L84.75,334.1689 L84.7492,334.1385 L90.5414,334.3539 L96.3159,333.8582 L102.1008,333.7821 L107.8866,333.7413 L113.666,333.4463 L113.6687,333.6313 L118.7109,333.3703 L123.7577,333.4255 L128.797,332.9693 L133.8476,333.2758 L138.8906,333.0752 L138.8922,333.3188 L143.8138,333.2415 L148.7361,333.2851 L153.6549,332.7668 L158.5763,332.6603 L163.5,332.9189 L163.5,332.9189 L163.4982,332.6428 L168.4217,332.924 L173.3432,332.8941 L178.2675,333.3155 L183.187,332.9663 L188.1094,333.0752 L188.1071,332.9227 L193.1558,333.2509 L198.1949,332.9273 L203.2407,333.0672 L208.2933,333.6605 L213.334,333.4463 L213.3388,333.6399 L219.1253,333.9172 L224.8968,333.5924 L230.6871,334.0217 L236.4734,334.2867 L242.25,334.1689 L242.2424,333.9591 L245.1862,334.2323 L248.1275,334.4368 L251.0737,334.7763 L254.0009,334.5909 L256.9387,334.6987 L256.9483,334.9041 L259.7727,334.5852 L262.6157,334.6627 L265.4855,335.3193 L268.3058,334.9097 L271.166,335.3604 L271.1797,335.5861 L273.8325,335.6136 L276.4806,335.5647 L279.1391,335.6883 L281.8219,336.2104 L284.4705,336.1685 L284.4597,336.0359 L286.8758,336.6245 L289.2186,336.3113 L291.6448,337.0235 L294.024,337.1584 L296.3906,337.1377 L296.4056,337.2455 L299.9619,337.6546 L303.5718,338.4497 L307.1333,338.8961 L310.6744,339.1966 L314.2324,339.6182 L314.2847,339.7253 L315.5606,340.2263 L317.079,341.2247 L318.3231,341.6605 L319.6801,342.3277 L321,342.9189 L319.3777,342.9189 L319.9194,352.956 L322.4153,362.9931 L322.146,373.0302 L320.8855,383.0673 L320.1409,393.1044 L320.4162,403.1415 L321,413.1786 L321,413.1786 L320.8663,412.9045 L319.7273,414.0044 L318.4371,414.7944 L317.042,415.3694 L315.7213,416.0968 L314.2324,416.4794 L314.2241,416.4192 L310.6694,417.0139 L307.072,417.301 L303.5447,418.0927 L299.9741,418.5724 L296.3906,418.9599 L296.4105,419.2046 L293.9983,419.052 L291.6177,419.288 L289.2545,419.7379 L286.8749,419.9866 L284.4705,419.9291 L284.4566,419.7017 L281.8043,420.0047 L279.1527,420.3186 L276.4713,420.143 L273.8364,420.7324 L271.166,420.7372 L271.1713,420.8517 L268.3185,420.8248 L265.478,421.065 L262.6447,421.4577 L259.7777,421.1276 L256.9387,421.3988 L256.9438,421.5387 L254.0056,421.6317 L251.0651,421.6622 L248.1277,421.7793 L245.1896,421.8731 L242.25,421.9286 L242.2431,421.6513 L236.4623,421.8951 L230.6785,422.0126 L224.9011,422.3906 L219.1182,422.5459 L213.334,422.6513 L213.335,422.7232 L208.2872,422.5962 L203.2437,422.7697 L198.1984,422.8205 L193.1581,423.2045 L188.1094,423.0224 L188.1106,423.2119 L183.1861,422.8378 L178.2654,423.0525 L173.3421,422.8596 L168.4227,423.2755 L163.5,423.1786 L163.5,423.1786 L163.5017,423.449 L158.5797,423.3894 L153.655,422.9225 L148.7357,423.2911 L143.8104,422.7235 L138.8906,423.0224 L138.8919,423.1113 L133.8437,422.8151 L128.8014,422.9169 L123.7574,422.9065 L118.714,422.9353 L113.666,422.6513 L113.658,422.3314 L107.8881,422.718 L102.1016,422.4414 L96.3204,422.3756 L90.5415,422.4054 L84.75,421.9286 L84.7501,421.9311 L81.8151,421.9005 L78.8779,421.8115 L75.9399,421.6983 L72.999,421.5044 L70.0613,421.3988 L70.076,421.7144 L67.2032,420.9958 L64.382,421.3851 L61.512,420.7248 L58.6683,420.6297 L55.834,420.7372 L55.8351,420.755 L53.1739,420.5881 L50.4989,420.1953 L47.8625,420.4359 L45.1934,420.139 L42.5295,419.9291 L42.5557,420.251 L40.1695,420.0308 L37.7453,419.3428 L35.3631,419.1713 L32.9888,419.0965 L30.6094,418.9599 L30.6311,419.1164 L27.0657,418.6412 L23.4911,418.1003 L19.8834,417.3211 L16.3749,417.2556 L12.7676,416.4794 L12.8911,416.7326 L11.4049,415.8004 L10.014,415.0636 L8.6288,414.3386 L7.3117,413.7531 L6,413.1786 L6.3664,413.1786 L5.8176,403.1415 L4.8859,393.1044 L7.2997,383.0673 L4.7762,373.0302 L7.3397,362.9931 L7.1393,352.956 L6,342.9189 " fill="#98FB98" style="stroke:#181818;stroke-width:4.0;"/><path d="M6,342.9189 L6,342.9189 L6.041,343.0029 L7.2728,343.4136 L8.7447,344.3165 L10.1384,345.0591 L11.2751,345.2746 L12.7676,346.2197 L12.7628,346.1855 L16.3098,346.5281 L19.8808,347.0431 L23.4685,347.678 L26.9987,347.8998 L30.6094,348.7002 L30.6293,348.9455 L32.9707,348.6148 L35.3703,349.0003 L37.777,349.4731 L40.1424,349.4376 L42.5295,349.6694 L42.5314,349.6997 L45.1896,349.8169 L47.8561,350.0719 L50.5187,350.2604 L53.1889,350.5758 L55.834,350.4775 L55.8478,350.7755 L58.6935,350.9114 L61.5302,350.8552 L64.3799,351.0803 L67.2303,351.3186 L70.0613,351.1392 L70.0497,350.8188 L73.0099,351.5465 L75.932,351.2194 L78.8831,351.6941 L81.8043,351.3431 L84.75,351.6689 L84.7492,351.6385 L90.5414,352.143 L96.3159,351.9364 L102.1008,352.1493 L107.8866,352.3975 L113.666,352.3916 L113.6687,352.5766 L118.7109,352.4641 L123.7577,352.6677 L128.797,352.3599 L133.8476,352.8149 L138.8906,352.7627 L138.8922,353.0063 L143.8138,352.9915 L148.7361,353.0976 L153.6549,352.6418 L158.5763,352.5978 L163.5,352.9189 L163.5,352.9189 L163.4982,352.6428 L168.4217,352.8615 L173.3432,352.7691 L178.2675,353.128 L183.187,352.7163 L188.1094,352.7627 L188.1071,352.6102 L193.1558,352.7899 L198.1949,352.3179 L203.2407,352.3093 L208.2933,352.7542 L213.334,352.3916 L213.3388,352.5852 L219.1253,352.5734 L224.8968,351.9596 L230.6871,352.0998 L236.4734,352.0758 L242.25,351.6689 L242.2424,351.4591 L245.1862,351.5204 L248.1275,351.513 L251.0737,351.6406 L254.0009,351.2433 L256.9387,351.1392 L256.9483,351.3445 L259.7727,350.761 L262.6157,350.5738 L265.4855,350.9658 L268.3058,350.2916 L271.166,350.4775 L271.1797,350.7033 L273.8325,350.4076 L276.4806,350.0354 L279.1391,349.8357 L281.8219,350.0346 L284.4705,349.6694 L284.4597,349.5368 L286.8758,349.7378 L289.2186,349.0369 L291.6448,349.3614 L294.024,349.1086 L296.3906,348.7002 L296.4056,348.808 L299.9619,348.2249 L303.5718,348.0279 L307.1333,347.482 L310.6744,346.7903 L314.2324,346.2197 L314.2847,346.3269 L315.5606,345.5075 L317.079,345.1856 L318.3231,344.3011 L319.6801,343.648 L321,342.9189 " fill="none" style="stroke:#181818;stroke-width:4.0;"/><text fill="#000000" font-family="Chalkduster" font-size="24" font-style="italic" lengthAdjust="spacing" textLength="169" x="79" y="380.7598">&#171;repository&#187;</text><text fill="#000000" font-family="Chalkduster" font-size="24" lengthAdjust="spacing" textLength="295" x="16" y="411.3897">Archival Repository 1</text></g><!--entity rep2--><g id="elem_rep2"><path d="M1025,342.9189 L1025,342.9189 L1025.0412,343.0028 L1026.2638,342.0935 L1027.7277,341.6758 L1029.113,341.0979 L1030.24,339.9937 L1031.7246,339.6182 L1031.7198,339.584 L1035.244,338.9344 L1038.7924,338.4572 L1042.3575,338.0999 L1045.8648,337.3295 L1049.4531,337.1377 L1049.4732,337.3829 L1051.7992,336.6647 L1054.1837,336.6624 L1056.5755,336.7475 L1058.9256,336.3243 L1061.2976,336.1685 L1061.2995,336.1987 L1063.9407,335.9927 L1066.5904,335.9244 L1069.2361,335.7897 L1071.8895,335.7818 L1074.5176,335.3604 L1074.5315,335.6583 L1077.3591,335.5296 L1080.1777,335.2088 L1083.0094,335.1692 L1085.8417,335.1428 L1088.6545,334.6987 L1088.6429,334.3784 L1091.5846,334.8941 L1094.4879,334.3551 L1097.4204,334.618 L1100.3229,334.055 L1103.25,334.1689 L1103.2492,334.1385 L1109.0048,334.3539 L1114.7424,333.8582 L1120.4906,333.7821 L1126.2397,333.7413 L1131.9824,333.4463 L1131.9852,333.6313 L1136.9953,333.3703 L1142.0101,333.4255 L1147.0173,332.9693 L1152.0359,333.2758 L1157.0469,333.0752 L1157.0484,333.3188 L1161.9388,333.2415 L1166.8299,333.2851 L1171.7174,332.7668 L1176.6075,332.6603 L1181.5,332.9189 L1181.5,332.9189 L1181.4982,332.6428 L1186.3905,332.924 L1191.2807,332.8941 L1196.1738,333.3155 L1201.062,332.9663 L1205.9531,333.0752 L1205.9509,332.9227 L1210.9675,333.2509 L1215.9745,332.9273 L1220.9884,333.0672 L1226.009,333.6605 L1231.0176,333.4463 L1231.0224,333.6399 L1236.7723,333.9172 L1242.507,333.5924 L1248.2606,334.0217 L1254.0101,334.2867 L1259.75,334.1689 L1259.7424,333.9591 L1262.6675,334.2323 L1265.5902,334.4368 L1268.5178,334.7763 L1271.4263,334.5909 L1274.3455,334.6987 L1274.3551,334.9041 L1277.1613,334.5852 L1279.9862,334.6627 L1282.8381,335.3193 L1285.6401,334.9097 L1288.4824,335.3604 L1288.4962,335.5861 L1291.132,335.6136 L1293.7631,335.5647 L1296.4048,335.6883 L1299.0708,336.2104 L1301.7024,336.1685 L1301.6915,336.0359 L1304.0927,336.6245 L1306.4201,336.3113 L1308.8315,337.0235 L1311.1955,337.1584 L1313.5469,337.1377 L1313.562,337.2455 L1317.0955,337.6546 L1320.683,338.4497 L1324.2218,338.8961 L1327.7401,339.1966 L1331.2754,339.6182 L1331.3279,339.7252 L1332.5948,340.2264 L1334.1055,341.2243 L1335.3405,341.6604 L1336.6889,342.3276 L1338,342.9189 L1336.3777,342.9189 L1336.9194,352.956 L1339.4153,362.9931 L1339.146,373.0302 L1337.8855,383.0673 L1337.1409,393.1044 L1337.4162,403.1415 L1338,413.1786 L1338,413.1786 L1337.8656,412.9049 L1336.7363,414.0042 L1335.455,414.794 L1334.0683,415.3691 L1332.7564,416.0965 L1331.2754,416.4794 L1331.267,416.4192 L1327.7351,417.0139 L1324.1601,417.301 L1320.6558,418.0927 L1317.1078,418.5724 L1313.5469,418.9599 L1313.5669,419.2046 L1311.1697,419.052 L1308.8042,419.288 L1306.4563,419.7378 L1304.0919,419.9866 L1301.7024,419.9291 L1301.6885,419.7017 L1299.0531,420.0047 L1296.4185,420.3186 L1293.7538,420.143 L1291.136,420.7324 L1288.4824,420.7372 L1288.4878,420.8517 L1285.6529,420.8248 L1282.8306,421.065 L1280.0154,421.4577 L1277.1664,421.1276 L1274.3455,421.3988 L1274.3505,421.5387 L1271.431,421.6317 L1268.5091,421.6622 L1265.5905,421.7793 L1262.6709,421.8731 L1259.75,421.9286 L1259.743,421.6513 L1253.999,421.8951 L1248.2519,422.0126 L1242.5113,422.3906 L1236.765,422.5459 L1231.0176,422.6513 L1231.0186,422.7232 L1226.0028,422.5962 L1220.9914,422.7697 L1215.9781,422.8205 L1210.9698,423.2045 L1205.9531,423.0224 L1205.9543,423.2119 L1201.0611,422.8378 L1196.1717,423.0525 L1191.2796,422.8596 L1186.3914,423.2755 L1181.5,423.1786 L1181.5,423.1786 L1181.5017,423.449 L1176.6109,423.3894 L1171.7175,422.9225 L1166.8294,423.2911 L1161.9354,422.7235 L1157.0469,423.0224 L1157.0482,423.1113 L1152.032,422.8151 L1147.0217,422.9169 L1142.0098,422.9065 L1136.9984,422.9353 L1131.9824,422.6513 L1131.9744,422.3314 L1126.2413,422.718 L1120.4914,422.4414 L1114.7469,422.3756 L1109.0048,422.4054 L1103.25,421.9286 L1103.2501,421.9311 L1100.3337,421.9005 L1097.4153,421.8115 L1094.4959,421.6983 L1091.5736,421.5044 L1088.6545,421.3988 L1088.6693,421.7144 L1085.8145,420.9958 L1083.0115,421.3851 L1080.1594,420.7248 L1077.3337,420.6297 L1074.5176,420.7372 L1074.5187,420.755 L1071.8744,420.5881 L1069.2162,420.1953 L1066.5968,420.4359 L1063.9446,420.139 L1061.2976,419.9291 L1061.3239,420.251 L1058.9529,420.0308 L1056.5436,419.3428 L1054.1765,419.1713 L1051.8173,419.0965 L1049.4531,418.9599 L1049.475,419.1164 L1045.9322,418.6411 L1042.3803,418.1002 L1038.795,417.3211 L1035.3095,417.2556 L1031.7246,416.4794 L1031.8487,416.7323 L1030.3704,415.8004 L1028.9879,415.0637 L1027.6112,414.3388 L1026.3029,413.7532 L1025,413.1786 L1025.3664,413.1786 L1024.8176,403.1415 L1023.8859,393.1044 L1026.2997,383.0673 L1023.7762,373.0302 L1026.3397,362.9931 L1026.1393,352.956 L1025,342.9189 " fill="#98FB98" style="stroke:#181818;stroke-width:4.0;"/><path d="M1025,342.9189 L1025,342.9189 L1025.0412,343.0028 L1026.2638,343.4138 L1027.7277,344.3164 L1029.113,345.0589 L1030.24,345.275 L1031.7246,346.2197 L1031.7198,346.1855 L1035.244,346.5281 L1038.7924,347.0431 L1042.3575,347.678 L1045.8648,347.8998 L1049.4531,348.7002 L1049.4732,348.9454 L1051.7992,348.6149 L1054.1837,349.0003 L1056.5755,349.4731 L1058.9256,349.4376 L1061.2976,349.6694 L1061.2995,349.6997 L1063.9407,349.8169 L1066.5904,350.0719 L1069.2361,350.2604 L1071.8895,350.5757 L1074.5176,350.4775 L1074.5315,350.7755 L1077.3591,350.9114 L1080.1777,350.8552 L1083.0094,351.0803 L1085.8417,351.3186 L1088.6545,351.1392 L1088.6429,350.8188 L1091.5846,351.5465 L1094.4879,351.2194 L1097.4204,351.6941 L1100.3229,351.3431 L1103.25,351.6689 L1103.2492,351.6385 L1109.0048,352.143 L1114.7424,351.9364 L1120.4906,352.1493 L1126.2397,352.3975 L1131.9824,352.3916 L1131.9852,352.5766 L1136.9953,352.4641 L1142.0101,352.6677 L1147.0173,352.3599 L1152.0359,352.8149 L1157.0469,352.7627 L1157.0484,353.0063 L1161.9388,352.9915 L1166.8299,353.0976 L1171.7174,352.6418 L1176.6075,352.5978 L1181.5,352.9189 L1181.5,352.9189 L1181.4982,352.6428 L1186.3905,352.8615 L1191.2807,352.7691 L1196.1738,353.128 L1201.062,352.7163 L1205.9531,352.7627 L1205.9509,352.6102 L1210.9675,352.7899 L1215.9745,352.3179 L1220.9884,352.3093 L1226.009,352.7542 L1231.0176,352.3916 L1231.0224,352.5852 L1236.7723,352.5734 L1242.507,351.9596 L1248.2606,352.0998 L1254.0101,352.0758 L1259.75,351.6689 L1259.7424,351.4591 L1262.6675,351.5204 L1265.5902,351.513 L1268.5178,351.6406 L1271.4263,351.2433 L1274.3455,351.1392 L1274.3551,351.3445 L1277.1613,350.761 L1279.9862,350.5738 L1282.8381,350.9658 L1285.6401,350.2916 L1288.4824,350.4775 L1288.4962,350.7033 L1291.132,350.4076 L1293.7631,350.0354 L1296.4048,349.8357 L1299.0708,350.0346 L1301.7024,349.6694 L1301.6915,349.5368 L1304.0927,349.7378 L1306.4201,349.0369 L1308.8315,349.3614 L1311.1955,349.1086 L1313.5469,348.7002 L1313.562,348.808 L1317.0955,348.2249 L1320.683,348.0278 L1324.2218,347.482 L1327.7401,346.7903 L1331.2754,346.2197 L1331.3279,346.3267 L1332.5948,345.5076 L1334.1055,345.1853 L1335.3405,344.3011 L1336.6889,343.648 L1338,342.9189 " fill="none" style="stroke:#181818;stroke-width:4.0;"/><text fill="#000000" font-family="Chalkduster" font-size="24" font-style="italic" lengthAdjust="spacing" textLength="169" x="1097" y="380.7598">&#171;repository&#187;</text><text fill="#000000" font-family="Chalkduster" font-size="24" lengthAdjust="spacing" textLength="293" x="1035" y="411.3897">Archival Repository 2</text></g><!--entity p1--><g id="elem_p1"><polygon fill="#98FB98" points="50,35.6589,50,35.8691,59.8696,35.2446,69.7391,35.8522,79.6087,36.0586,89.4783,34.9456,99.3478,35.5812,109.2174,35.2325,119.087,35.2755,128.9565,35.5908,138.8261,34.9676,148.6957,36.2126,158.5652,35.0287,168.4348,35.4612,178.3043,36.0909,188.1739,35.5732,198.0435,35.7272,207.913,35.627,217.7826,35.8375,227.6522,35.8981,237.5217,36.2446,247.3913,36.33,257.2609,36.3382,267.1304,35.9136,277,35.6589,277.0591,35.8017,277.4431,36.0217,277.6151,35.7297,278.1472,36.3072,278.3764,36.1534,278.7678,36.3912,278.9322,36.4593,278.7618,36.6816,279.0396,37.0896,279.4355,37.5464,279.3385,37.7992,279.5,38.1589,279.6053,38.1589,279.8386,47.6914,279.9162,57.2239,279.4961,66.7563,279.7872,76.2888,278.9276,85.8212,279.7844,95.3537,280.0482,104.8862,279.5,114.4186,279.6369,114.4753,279.5423,114.8504,279.0583,115.0641,278.8598,115.3961,278.7228,115.7536,278.7678,116.1864,278.7603,116.1683,278.3891,116.2723,278.1476,116.6891,277.6848,116.5719,277.3098,116.6665,277,116.9186,277,117.1469,267.1304,116.2518,257.2609,116.3995,247.3913,117.5676,237.5217,117.3543,227.6522,117.6531,217.7826,116.5968,207.913,117.2378,198.0435,117.509,188.1739,116.4462,178.3043,116.8228,168.4348,117.0446,158.5652,117.5704,148.6957,116.9144,138.8261,117.3812,128.9565,116.3648,119.087,116.2414,109.2174,117.4222,99.3478,116.2017,89.4783,117.4276,79.6087,117.1252,69.7391,116.6507,59.8696,116.5648,50,116.9186,50.0585,117.0599,49.6083,116.68,49.3684,116.808,48.8688,116.3091,48.6645,116.523,48.2322,116.1864,48.3814,116.2482,48.1612,115.8641,47.9539,115.4853,48.0167,115.2184,47.8354,114.8504,47.5,114.4186,47.6693,114.4186,47.7682,104.8862,47.3697,95.3537,48.2165,85.8212,47.6549,76.2888,47.6726,66.7563,46.8916,57.2239,47.0948,47.6914,47.5,38.1589,47.6634,38.2267,47.7788,37.8602,47.7797,37.4464,47.8401,37.0572,48.0184,36.7168,48.2322,36.3912,48.1447,36.1799,48.6387,36.3725,49.0337,36.326,49.36,36.114,49.7351,36.0194,50,35.6589" style="stroke:#181818;stroke-width:4.0;"/><text fill="#000000" font-family="Chalkduster" font-size="24" font-style="italic" lengthAdjust="spacing" textLength="169" x="79" y="69.4998">&#171;repository&#187;</text><text fill="#000000" font-family="Chalkduster" font-size="24" lengthAdjust="spacing" textLength="212" x="57.5" y="100.1297">Access Portal 1</text></g><!--entity p2--><g id="elem_p2"><polygon fill="#98FB98" points="1069,35.6589,1069,35.8691,1078.7826,35.2446,1088.5652,35.8522,1098.3478,36.0586,1108.1304,34.9456,1117.913,35.5812,1127.6957,35.2325,1137.4783,35.2755,1147.2609,35.5908,1157.0435,34.9676,1166.8261,36.2126,1176.6087,35.0287,1186.3913,35.4612,1196.1739,36.0909,1205.9565,35.5732,1215.7391,35.7272,1225.5217,35.627,1235.3043,35.8375,1245.087,35.8981,1254.8696,36.2446,1264.6522,36.33,1274.4348,36.3382,1284.2174,35.9136,1294,35.6589,1294.0591,35.8017,1294.4431,36.0217,1294.6151,35.7297,1295.1472,36.3072,1295.3764,36.1534,1295.7678,36.3912,1295.9322,36.4593,1295.7618,36.6816,1296.0396,37.0896,1296.4355,37.5464,1296.3385,37.7992,1296.5,38.1589,1296.6053,38.1589,1296.8386,47.6914,1296.9162,57.2239,1296.4961,66.7563,1296.7872,76.2888,1295.9276,85.8212,1296.7844,95.3537,1297.0482,104.8862,1296.5,114.4186,1296.6369,114.4753,1296.5423,114.8504,1296.0583,115.0641,1295.8598,115.3961,1295.7228,115.7536,1295.7678,116.1864,1295.7603,116.1683,1295.3891,116.2723,1295.1476,116.6891,1294.6848,116.5719,1294.3098,116.6665,1294,116.9186,1294,117.1469,1284.2174,116.2518,1274.4348,116.3995,1264.6522,117.5676,1254.8696,117.3543,1245.087,117.6531,1235.3043,116.5968,1225.5217,117.2378,1215.7391,117.509,1205.9565,116.4462,1196.1739,116.8228,1186.3913,117.0446,1176.6087,117.5704,1166.8261,116.9144,1157.0435,117.3812,1147.2609,116.3648,1137.4783,116.2414,1127.6957,117.4222,1117.913,116.2017,1108.1304,117.4276,1098.3478,117.1252,1088.5652,116.6507,1078.7826,116.5648,1069,116.9186,1069.0585,117.0599,1068.6083,116.68,1068.3684,116.808,1067.8688,116.3091,1067.6645,116.523,1067.2322,116.1864,1067.3814,116.2482,1067.1612,115.8641,1066.9539,115.4853,1067.0167,115.2184,1066.8354,114.8504,1066.5,114.4186,1066.6693,114.4186,1066.7682,104.8862,1066.3697,95.3537,1067.2165,85.8212,1066.6549,76.2888,1066.6726,66.7563,1065.8916,57.2239,1066.0948,47.6914,1066.5,38.1589,1066.6634,38.2267,1066.7788,37.8602,1066.7797,37.4464,1066.8401,37.0572,1067.0184,36.7168,1067.2322,36.3912,1067.1447,36.1799,1067.6387,36.3725,1068.0337,36.326,1068.36,36.114,1068.7351,36.0194,1069,35.6589" style="stroke:#181818;stroke-width:4.0;"/><text fill="#000000" font-family="Chalkduster" font-size="24" font-style="italic" lengthAdjust="spacing" textLength="169" x="1097" y="69.4998">&#171;repository&#187;</text><text fill="#000000" font-family="Chalkduster" font-size="24" lengthAdjust="spacing" textLength="210" x="1076.5" y="100.1297">Access Portal 2</text></g><!--link p1 to rep1--><g id="link_p1_rep1"><path d="M163.5,117.4089 L163.7802,117.4089 L162.9476,127.3828 L163.7577,137.3566 L164.0329,147.3304 L162.5488,157.3042 L163.3964,167.278 L162.9313,177.2518 L162.9887,187.2256 L163.4091,197.1994 L162.5782,207.1732 L164.2382,217.147 L162.6596,227.1209 L163.2363,237.0947 L164.0759,247.0685 L163.3856,257.0423 L163.591,267.0161 L163.4574,276.9899 L163.738,286.9637 L163.8188,296.9375 L164.2809,306.9113 L164.3947,316.8851 L163.5,326.8589 " fill="none" style="stroke:#8B0000;stroke-width:4.0;"/><polygon fill="#8B0000" points="163.5,331.7889,163.564,331.8174,164.1738,329.9329,165.1589,328.2151,166.0217,326.4431,166.4827,324.4924,167.5,322.7889,167.4817,322.7706,166.5995,323.4884,165.8096,324.2986,165.0839,325.1729,164.137,325.826,163.5,326.7889,163.6305,326.9194,162.5514,325.8404,161.8534,325.1423,161.2018,324.4908,160.2798,323.5687,159.5,322.7889,159.5208,322.7982,160.2903,324.5846,161.1544,326.4131,161.9728,328.2213,162.8784,330.0682,163.5,331.7889" style="stroke:#8B0000;stroke-width:4.0;"/><text fill="#000000" font-family="Chalkduster" font-size="24" lengthAdjust="spacing" textLength="81" x="164.5" y="233.7598">Index</text></g><!--link p1 to a--><g id="link_p1_a"><path d="M279.87,76.2889 L279.87,76.5692 L289.5046,75.7365 L299.1392,76.5467 L308.7738,76.8219 L318.4085,75.3378 L328.0431,76.1853 L337.6777,75.7203 L347.3123,75.7776 L356.9469,76.1981 L366.5815,75.3671 L376.2162,77.0271 L385.8508,75.4486 L395.4854,76.0253 L405.12,76.2889 " fill="none" style="stroke:#8B0000;stroke-width:4.0;"/><polygon fill="#8B0000" points="410.06,76.2889,410.0885,76.353,408.2039,75.3627,406.4862,74.7478,404.7141,74.0107,402.7634,72.8716,401.06,72.2889,401.0417,72.2706,401.7595,72.9884,402.5696,73.7986,403.4439,74.6729,404.097,75.326,405.06,76.2889,405.1905,76.4194,404.1114,76.9404,403.4134,77.8423,402.7618,78.7908,401.8398,79.4687,401.06,80.2889,401.0692,80.3097,402.8557,79.4792,404.6842,78.7433,406.4924,77.9618,408.3393,77.2674,410.06,76.2889" style="stroke:#8B0000;stroke-width:4.0;"/><text fill="#000000" font-family="Chalkduster" font-size="24" lengthAdjust="spacing" textLength="83" x="304" y="35.1298">Check</text><text fill="#000000" font-family="Chalkduster" font-size="24" lengthAdjust="spacing" textLength="95" x="298" y="65.7597">license</text></g><!--link p2 to rep2--><g id="link_p2_rep2"><path d="M1181.5,117.4089 L1181.7802,117.4089 L1180.9476,127.3828 L1181.7577,137.3566 L1182.0329,147.3304 L1180.5488,157.3042 L1181.3964,167.278 L1180.9313,177.2518 L1180.9887,187.2256 L1181.4091,197.1994 L1180.5782,207.1732 L1182.2382,217.147 L1180.6596,227.1209 L1181.2363,237.0947 L1182.0759,247.0685 L1181.3856,257.0423 L1181.591,267.0161 L1181.4574,276.9899 L1181.738,286.9637 L1181.8188,296.9375 L1182.2809,306.9113 L1182.3947,316.8851 L1181.5,326.8589 " fill="none" style="stroke:#8B0000;stroke-width:4.0;"/><polygon fill="#8B0000" points="1181.5,331.7889,1181.564,331.8174,1182.1738,329.9329,1183.1589,328.2151,1184.0217,326.4431,1184.4827,324.4924,1185.5,322.7889,1185.4817,322.7706,1184.5995,323.4884,1183.8096,324.2986,1183.0839,325.1729,1182.137,325.826,1181.5,326.7889,1181.6305,326.9194,1180.5514,325.8404,1179.8534,325.1423,1179.2018,324.4908,1178.2798,323.5687,1177.5,322.7889,1177.5208,322.7982,1178.2903,324.5846,1179.1544,326.4131,1179.9728,328.2213,1180.8784,330.0682,1181.5,331.7889" style="stroke:#8B0000;stroke-width:4.0;"/><text fill="#000000" font-family="Chalkduster" font-size="24" lengthAdjust="spacing" textLength="197" x="1182.5" y="233.7598">Index &amp; serve</text></g><!--reverse link a to p2--><g id="link_a_p2"><path d="M941.59,76.2889 L941.59,76.5692 L951.9733,75.7365 L962.3567,76.5467 L972.74,76.8219 L983.1233,75.3378 L993.5067,76.1853 L1003.89,75.7203 L1014.2733,75.7776 L1024.6567,76.1981 L1035.04,75.3671 L1045.4233,77.0271 L1055.8067,75.4486 L1066.19,76.2889 " fill="none" style="stroke:#8B0000;stroke-width:4.0;"/><polygon fill="#8B0000" points="936.68,76.2889,936.7085,76.353,938.4239,76.9627,940.3062,77.9478,942.1341,78.8107,943.7834,79.2716,945.68,80.2889,945.6617,80.2706,944.7795,79.3884,943.9896,78.5986,943.2639,77.8729,942.317,76.926,941.68,76.2889,941.8105,76.4194,942.3314,75.3404,943.2334,74.6423,944.1818,73.9908,944.8598,73.0687,945.68,72.2889,945.6892,72.3097,943.8757,73.0792,942.1042,73.9433,940.3124,74.7618,938.5593,75.6674,936.68,76.2889" style="stroke:#8B0000;stroke-width:4.0;"/><text fill="#000000" font-family="Chalkduster" font-size="24" lengthAdjust="spacing" textLength="83" x="959.5" y="35.1298">Check</text><text fill="#000000" font-family="Chalkduster" font-size="24" lengthAdjust="spacing" textLength="95" x="953.5" y="65.7597">license</text></g><!--SRC=[XO_1JiCm44Jl_eeb1svE5HzH5GbnwWtHQoMqE4jYuTYLlIqD5V_EEgY8eWB7yVZDp5wvOFskeySHmmHrlUYGKOl0daOAh3DFdce-i5A9B6FeFK5rQotb3FSnCNfeAbWk4srZTXpJrBQ06RQD-WCn5n5pJknua0dE8hiO5aN6vDvc1UifCurLmL2YyBifQKUbtfKgnpnXBbd93culnGzVdMMsq3AY-Rdbg03-vys9Dx_nagnr5r-3rkrdqGsiGaU7sKck7rWCbDUxWUpB9dXdAMGIqfoJvaJ2DMHAUvf_U7g-7F01]--></g></svg>