<?xml version="1.0" encoding="UTF-8" standalone="no"?><svg xmlns="http://www.w3.org/2000/svg" xmlns:xlink="http://www.w3.org/1999/xlink" contentStyleType="text/css" height="751px" preserveAspectRatio="none" style="width:893px;height:751px;background:#FFFFFF;" version="1.1" viewBox="0 0 893 751" width="893px" zoomAndPan="magnify"><defs/><g><!--cluster Standards--><g id="cluster_Standards"><polygon fill="#ADD8E6" points="9.5,9.2889,9.5,9.4991,19.4432,8.8746,29.3864,9.4822,39.3295,9.6886,49.2727,8.5756,59.2159,9.2112,69.1591,8.8625,79.1023,8.9055,89.0455,9.2208,98.9886,8.5976,108.9318,9.8426,118.875,8.6587,128.8182,9.0912,138.7614,9.7209,148.7045,9.2032,158.6477,9.3572,168.5909,9.257,178.5341,9.4675,188.4773,9.5281,198.4205,9.8746,208.3636,9.96,218.3068,9.9682,228.25,9.5436,238.1932,9.7525,248.1364,9.9912,258.0795,8.5678,268.0227,9.9675,277.9659,8.9924,287.9091,9.8228,297.8523,8.7939,307.7955,9.2205,317.7386,10.0306,327.6818,9.2402,337.625,9.3943,347.5682,9.6276,357.5114,9.7052,367.4545,9.285,377.3977,9.5762,387.3409,8.7165,397.2841,9.5733,407.2273,9.8371,417.1705,9.7335,427.1136,9.902,437.0568,8.8059,447,8.6368,456.9432,8.6675,466.8864,9.2301,476.8295,9.0924,486.7727,9.9704,496.7159,9.1143,506.6591,8.9459,516.6023,9.5172,526.5455,8.6221,536.4886,8.7698,546.4318,9.9379,556.375,9.7246,566.3182,10.0234,576.2614,8.9672,586.2045,9.6081,596.1477,9.8794,606.0909,8.8165,616.0341,9.1931,625.9773,9.4149,635.9205,9.9407,645.8636,9.2848,655.8068,9.7515,665.75,8.7352,675.6932,8.6117,685.6364,9.7926,695.5795,8.572,705.5227,9.7979,715.4659,9.4956,725.4091,9.021,735.3523,8.9352,745.2955,9.7477,755.2386,8.9896,765.1818,9.8808,775.125,8.7362,785.0682,9.9064,795.0114,9.7733,804.9545,9.5339,814.8977,9.3362,824.8409,10.0156,834.7841,9.9025,844.7273,9.4582,854.6705,9.5571,864.6136,9.1587,874.5568,10.0054,884.5,9.2889,884.5198,9.3366,884.8756,9.4885,885.1295,9.3945,885.509,9.6035,885.9819,10.0382,886.2678,10.0212,886.4001,10.076,886.401,10.3693,886.4614,10.6872,886.6397,11.0539,886.6422,11.3479,887,11.7889,887.4147,11.7889,887.7396,21.8026,887.5264,31.8163,887.6949,41.83,886.8633,51.8437,887.0872,61.8574,886.6124,71.8711,887.284,81.8848,887.2468,91.8985,887.5524,101.9122,886.7703,111.9259,886.8656,121.9396,887.4435,131.9533,887.5673,141.967,886.4875,151.9807,886.8061,161.9944,887.1493,172.0081,886.3892,182.0218,887.3534,192.0355,887.258,202.0492,886.8992,212.0629,887.1422,222.0766,887.7287,232.0903,886.6871,242.104,887.315,252.1177,887.2856,262.1314,887.1158,272.1451,887.1409,282.1588,887.1135,292.1725,886.3758,302.1862,886.5992,312.1999,886.5385,322.2136,887.0638,332.2273,887.0881,342.241,887.1617,352.2547,886.709,362.2684,886.9325,372.2821,886.8798,382.2958,887.5769,392.3095,887.4266,402.3232,886.5145,412.3369,886.9271,422.3506,886.4228,432.3643,887.2884,442.378,887.6085,452.3917,887.5446,462.4054,886.5644,472.4191,887.464,482.4328,886.2572,492.4465,887.2002,502.4602,886.7007,512.4739,887.0967,522.4876,887.2403,532.5013,887.4721,542.515,886.2801,552.5287,887.4755,562.5424,887.1782,572.5561,887.3553,582.5698,887.7478,592.5835,887.0055,602.5972,887.1753,612.6109,887.2134,622.6246,887.1972,632.6383,886.9992,642.652,887.7107,652.6657,886.3903,662.6794,887.5653,672.6931,886.376,682.7068,886.4597,692.7205,887.04,702.7342,887.0283,712.7479,886.5072,722.7616,887.4137,732.7753,887,742.7889,887.0335,742.8028,887.0773,743.2352,886.9125,743.5812,886.4226,743.7924,886.2917,744.1524,886.2678,744.5567,886.2513,744.5169,885.9596,744.8127,885.6121,744.9737,885.2455,745.0888,884.8099,745.0372,884.5,745.2889,884.5,745.9253,874.5568,745.9227,864.6136,745.2417,854.6705,745.0499,844.7273,744.8876,834.7841,745.0744,824.8409,745.4264,814.8977,745.2206,804.9545,744.8712,795.0114,745.7763,785.0682,744.83,775.125,745.7913,765.1818,745.7162,755.2386,745.6608,745.2955,745.9814,735.3523,745.0431,725.4091,744.9883,715.4659,745.8078,705.5227,744.6921,695.5795,745.055,685.6364,745.4044,675.6932,745.3576,665.75,744.9305,655.8068,745.246,645.8636,746.0335,635.9205,745.9374,625.9773,744.6927,616.0341,745.3675,606.0909,744.775,596.1477,745.2626,586.2045,745.5819,576.2614,745.7088,566.3182,744.6242,556.375,745.6895,546.4318,745.2974,536.4886,744.7336,526.5455,744.8179,516.6023,745.6155,506.6591,745.5388,496.7159,745.2725,486.7727,744.6168,476.8295,745.9471,466.8864,744.9771,456.9432,744.7609,447,745.2216,437.0568,745.8787,427.1136,745.9044,417.1705,745.3241,407.2273,745.1378,397.2841,745.4587,387.3409,745.4752,377.3977,744.7812,367.4545,745.7029,357.5114,745.8478,347.5682,745.0732,337.625,744.8598,327.6818,745.9636,317.7386,745.31,307.7955,745.2888,297.8523,745.588,287.9091,744.6433,277.9659,745.8189,268.0227,745.2735,258.0795,745.9578,248.1364,745.0731,238.1932,745.6979,228.25,744.845,218.3068,745.534,208.3636,745.6682,198.4205,744.9616,188.4773,745.652,178.5341,744.7175,168.5909,744.8185,158.6477,745.9718,148.7045,745.9733,138.7614,745.8574,128.8182,744.9286,118.875,745.6732,108.9318,744.8169,98.9886,745.3471,89.0455,745.2877,79.1023,745.0265,69.1591,745.9049,59.2159,745.7322,49.2727,744.9682,39.3295,745.8156,29.3864,745.3808,19.4432,744.7054,9.5,745.2889,9.4702,745.2171,9.0794,744.9807,8.7752,744.9532,8.3591,744.6559,8.0092,744.5183,7.7322,744.5567,7.7539,744.5657,7.5487,744.1878,7.4213,743.8421,7.2488,743.4778,7.198,743.1638,7,742.7889,6.4449,742.7889,7.1601,732.7753,6.2569,722.7616,7.296,712.7479,7.5928,702.7342,7.5221,692.7205,7.3613,682.7068,7.1922,672.6931,7.1057,662.6794,6.36,652.6657,7.4465,642.652,7.3296,632.6383,6.8466,622.6246,6.9942,612.6109,6.7914,602.5972,7.2177,592.5835,7.6805,582.5698,6.6461,572.5561,7.4689,562.5424,6.9108,552.5287,6.6207,542.515,6.5681,532.5013,6.3553,522.4876,6.5591,512.4739,7.0363,502.4602,7.273,492.4465,7.5762,482.4328,7.4201,472.4191,6.2886,462.4054,7.619,452.3917,7.4861,442.378,7.5407,432.3643,7.5219,422.3506,6.3409,412.3369,6.7423,402.3232,7.316,392.3095,6.5185,382.2958,6.8971,372.2821,7.067,362.2684,7.3261,352.2547,7.0458,342.241,7.7447,332.2273,7.4114,322.2136,7.2561,312.1999,6.4601,302.1862,7.3388,292.1725,6.4255,282.1588,7.3057,272.1451,7.0078,262.1314,7.2995,252.1177,6.9126,242.104,6.8039,232.0903,6.2591,222.0766,6.7856,212.0629,6.2951,202.0492,6.7539,192.0355,7.4379,182.0218,7.1607,172.0081,6.5485,161.9944,7.2458,151.9807,7.0656,141.967,7.5433,131.9533,7.5649,121.9396,7.0937,111.9259,6.821,101.9122,6.7855,91.8985,6.9936,81.8848,7.6691,71.8711,6.3263,61.8574,6.8361,51.8437,7.2668,41.83,7.7317,31.8163,7.2119,21.8026,7,11.7889,6.939,11.7637,6.9192,11.3413,7.1624,11.0278,7.371,10.7,7.6904,10.4181,7.7322,10.0212,7.7794,10.135,8.0924,9.8907,8.4224,9.6873,8.7011,9.3602,9.1629,9.4751,9.5,9.2889" style="stroke:#181818;stroke-width:4.0;"/><text fill="#000000" font-family="Chalkduster" font-size="24" font-style="italic" lengthAdjust="spacing" textLength="170" x="362" y="35.1298">«standards»</text><text fill="#000000" font-family="Chalkduster" font-size="24" font-weight="bold" lengthAdjust="spacing" textLength="138" x="378" y="65.7597">Standards</text></g><!--cluster ro--><g id="cluster_ro"><path d="M41.5,409.2889 L41.5,409.8494 L51.2692,408.1841 L61.0385,409.8044 L70.8077,410.3548 L80.5769,407.3866 L90.3462,409.0817 L100.1154,408.1516 L109.8846,408.2663 L119.6538,409.1072 L129.4231,407.4453 L139.1923,410.7653 L148.9615,407.6082 L158.7308,408.7616 L168.5,409.2889 L171,411.7889 L171.3761,411.8661 L172.3253,418.5996 L173.8594,425.4531 L175.1722,432.2611 L176.7555,439.1247 L178,445.9188 L178,446.5565 L188.0192,447.4806 L198.0385,447.7083 L208.0577,447.7301 L218.0769,446.5978 L228.0962,447.155 L238.1154,447.7914 L248.1346,443.9956 L258.1538,447.7281 L268.1731,445.1281 L278.1923,447.3423 L288.2115,444.5987 L298.2308,445.7361 L308.25,447.8964 L318.2692,445.7888 L328.2885,446.1996 L338.3077,446.8218 L348.3269,447.0287 L358.3462,445.9084 L368.3654,446.6847 L378.3846,444.3923 L388.4038,446.6771 L398.4231,447.3806 L408.4423,447.1042 L418.4615,447.5535 L428.4808,444.6306 L438.5,445.9188 L441,448.4188 L439.2608,448.4188 L439.3429,458.4599 L440.843,468.501 L440.4759,478.5422 L442.8171,488.5833 L440.5342,498.6244 L440.0852,508.6656 L441.6087,518.7067 L439.2218,528.7478 L441,538.7889 L438.5,541.2889 L438.5,539.9046 L428.575,543.0195 L418.65,542.4507 L408.725,543.2476 L398.8,540.4308 L388.875,542.1401 L378.95,542.8634 L369.025,540.0292 L359.1,541.0333 L349.175,541.6249 L339.25,543.027 L329.325,541.2778 L319.4,542.5225 L309.475,539.8122 L299.55,539.4829 L289.625,542.6319 L279.7,539.3771 L269.775,542.6462 L259.85,541.84 L249.925,540.5745 L240,540.3456 L230.075,542.5123 L220.15,540.4907 L210.225,542.8672 L200.3,539.815 L190.375,542.9354 L180.45,542.5804 L170.525,541.9422 L160.6,541.4149 L150.675,543.2266 L140.75,542.9252 L130.825,541.7403 L120.9,542.0041 L110.975,540.9416 L101.05,543.1995 L91.125,541.7019 L81.2,541.7491 L71.275,539.6667 L61.35,540.2084 L51.425,542.7043 L41.5,541.2889 L39,538.7889 L40.146,538.7889 L38.8855,529.0197 L38.1409,519.2505 L38.4162,509.4813 L37.1702,499.712 L40.106,489.9428 L40.9722,480.1736 L40.4037,470.4043 L40.8532,460.6351 L38.6354,450.8659 L39.2326,441.0966 L37.9664,431.3274 L39.7574,421.5582 L39,411.7889 L41.5,409.2889 " fill="none" style="stroke:#000000;stroke-width:4.0;"/><path d="M39,445.9188 L39,446.199 L48.9286,445.3664 L58.8571,446.1765 L68.7857,446.4517 L78.7143,444.9676 L88.6429,445.8152 L98.5714,445.3501 L108.5,445.4075 L118.4286,445.8279 L128.3571,444.997 L138.2857,446.657 L148.2143,445.0784 L158.1429,445.6551 L168.0714,446.4947 L178,445.9188 " fill="none" style="stroke:#000000;stroke-width:4.0;"/><text fill="#000000" font-family="Chalkduster" font-size="24" font-weight="bold" lengthAdjust="spacing" textLength="126" x="43" y="435.1298">RO-Crate</text></g><!--cluster sstorage--><g id="cluster_sstorage"><polygon fill="none" points="41.5,581.2889,41.5,581.4991,51.6034,580.8746,61.7069,581.4822,71.8103,581.6886,81.9138,580.5756,92.0172,581.2112,102.1207,580.8625,112.2241,580.9055,122.3276,581.2208,132.431,580.5976,142.5345,581.8426,152.6379,580.6587,162.7414,581.0912,172.8448,581.7209,182.9483,581.2032,193.0517,581.3572,203.1552,581.257,213.2586,581.4675,223.3621,581.5281,233.4655,581.8746,243.569,581.96,253.6724,581.9682,263.7759,581.5436,273.8793,581.7525,283.9828,581.9912,294.0862,580.5678,304.1897,581.9675,314.2931,580.9924,324.3966,581.8228,334.5,581.2889,334.4369,581.1365,334.8448,581.4143,335.3017,581.8102,335.5544,581.7133,335.9276,581.9072,336.2678,582.0212,336.3721,582.0644,336.5424,582.4278,336.5595,582.7278,336.7956,583.1185,336.6773,583.3624,337,583.7889,337.2844,583.7889,337.5482,593.5582,337.4445,603.3274,337.613,613.0966,336.5169,622.8659,336.3478,632.6351,336.3786,642.4043,336.9411,652.1736,336.8035,661.9428,337.6814,671.712,336.8253,681.4813,336.6569,691.2505,337.2283,701.0197,337,710.7889,336.7946,710.7039,336.6937,711.0763,336.907,711.5788,336.6948,711.9052,336.6404,712.2969,336.2678,712.5567,336.2267,712.4576,335.9549,712.8015,335.636,713.0314,335.1468,712.8506,334.8413,713.113,334.5,713.2889,334.5,713.4149,324.3966,713.9407,314.2931,713.2848,304.1897,713.7515,294.0862,712.7352,283.9828,712.6117,273.8793,713.7926,263.7759,712.572,253.6724,713.7979,243.569,713.4956,233.4655,713.021,223.3621,712.9352,213.2586,713.7477,203.1552,712.9896,193.0517,713.8808,182.9483,712.7362,172.8448,713.9064,162.7414,713.7733,152.6379,713.5339,142.5345,713.3362,132.431,714.0156,122.3276,713.9025,112.2241,713.4582,102.1207,713.5571,92.0172,713.1587,81.9138,714.0054,71.8103,713.4438,61.7069,713.4615,51.6034,712.6806,41.5,713.2889,41.4483,713.1642,41.2141,713.306,40.8477,713.1284,40.4339,712.8364,40.0447,712.6039,39.7322,712.5567,39.6648,712.5288,39.3745,712.1156,39.5671,711.9025,39.5206,711.5904,39.3086,711.2097,39,710.7889,39.6949,710.7889,38.8633,701.0197,39.0872,691.2505,38.6124,681.4813,39.284,671.712,39.2468,661.9428,39.5524,652.1736,38.7703,642.4043,38.8656,632.6351,39.4435,622.8659,39.5673,613.0966,38.4875,603.3274,38.8061,593.5582,39,583.7889,39.046,583.808,38.9583,583.3575,39.4017,583.1269,39.5188,582.7612,39.5548,582.3619,39.7322,582.0212,39.7504,582.065,40.1787,582.0991,40.3994,581.6319,40.8331,581.6788,41.1829,581.5234,41.5,581.2889" style="stroke:#181818;stroke-width:4.0;"/><text fill="#000000" font-family="Chalkduster" font-size="24" font-weight="bold" lengthAdjust="spacing" textLength="182" x="97" y="607.1298">Storage Specs</text></g><!--cluster PIDs--><g id="cluster_PIDs"><polygon fill="none" points="617.5,113.2889,617.5,113.4991,627.625,112.8746,637.75,113.4822,647.875,113.6886,658,112.5756,668.125,113.2112,678.25,112.8625,688.375,112.9055,698.5,113.2208,708.625,112.5976,718.75,113.8426,728.875,112.6587,739,113.0912,749.125,113.7209,759.25,113.2032,769.375,113.3572,779.5,113.257,789.625,113.4675,799.75,113.5281,809.875,113.8746,820,113.96,830.125,113.9682,840.25,113.5436,850.375,113.7525,860.5,113.2889,860.5896,113.5052,860.7616,113.2133,861.2937,113.7908,861.5228,113.637,861.9823,114.0391,862.2678,114.0212,862.1153,113.958,862.3931,114.366,862.789,114.8229,862.6921,115.0756,862.886,115.4488,863,115.7889,863.3386,115.7889,863.4162,125.8799,862.9961,135.9708,863.2872,146.0617,862.4276,156.1526,863.2844,166.2435,863.5482,176.3344,863.4445,186.4253,863.613,196.5162,862.5169,206.6071,862.3478,216.698,862.3786,226.7889,862.9411,236.8799,862.8035,246.9708,863.6814,257.0617,862.8253,267.1526,862.6569,277.2435,863.2283,287.3344,862.3332,297.4253,862.4809,307.5162,863.649,317.6071,863.4357,327.698,863,337.7889,863.2262,337.8826,862.7545,338.1015,862.8054,338.5368,862.7425,338.9249,862.2687,339.1429,862.2678,339.5567,862.2555,339.5272,861.9303,339.742,861.6438,340.0503,861.2066,339.9948,860.9126,340.285,860.5,340.2889,860.5,339.7352,850.375,339.6117,840.25,340.7926,830.125,339.572,820,340.7979,809.875,340.4956,799.75,340.021,789.625,339.9352,779.5,340.7477,769.375,339.9896,759.25,340.8808,749.125,339.7362,739,340.9064,728.875,340.7733,718.75,340.5339,708.625,340.3362,698.5,341.0156,688.375,340.9025,678.25,340.4582,668.125,340.5571,658,340.1587,647.875,341.0054,637.75,340.4438,627.625,340.4615,617.5,340.2889,617.4224,340.1016,617.0948,340.0177,616.8606,340.1595,616.4942,339.982,616.0803,339.6899,615.7322,339.5567,615.633,339.5156,615.5184,339.1752,615.228,338.7621,615.4206,338.549,615.3742,338.2368,615,337.7889,615.5264,337.7889,615.6949,327.698,614.8633,317.6071,615.0872,307.5162,614.6124,297.4253,615.284,287.3344,615.2468,277.2435,615.5524,267.1526,614.7703,257.0617,614.8656,246.9708,615.4435,236.8799,615.5673,226.7889,614.4875,216.698,614.8061,206.6071,615.1493,196.5162,614.3892,186.4253,615.3534,176.3344,615.258,166.2435,614.8992,156.1526,615.1422,146.0617,615.7287,135.9708,614.6871,125.8799,615,115.7889,615.097,115.8291,615.2344,115.4718,615.3285,115.0966,615.4827,114.7463,615.6207,114.3892,615.7322,114.0212,615.6526,113.829,616.0347,113.7513,616.3805,113.5862,616.801,113.6015,617.1577,113.4625,617.5,113.2889" style="stroke:#181818;stroke-width:4.0;"/><text fill="#000000" font-family="Chalkduster" font-size="24" font-weight="bold" lengthAdjust="spacing" textLength="60" x="709" y="139.1298">PIDs</text></g><!--cluster Profiles--><g id="cluster_Profiles"><polygon fill="none" points="41.5,105.2889,41.5,105.4991,51.4815,104.8746,61.463,105.4822,71.4444,105.6886,81.4259,104.5756,91.4074,105.2112,101.3889,104.8625,111.3704,104.9055,121.3519,105.2208,131.3333,104.5976,141.3148,105.8426,151.2963,104.6587,161.2778,105.0912,171.2593,105.7209,181.2407,105.2032,191.2222,105.3572,201.2037,105.257,211.1852,105.4675,221.1667,105.5281,231.1481,105.8746,241.1296,105.96,251.1111,105.9682,261.0926,105.5436,271.0741,105.7525,281.0556,105.9912,291.037,104.5678,301.0185,105.9675,311,104.9924,320.9815,105.8228,330.963,104.7939,340.9444,105.2205,350.9259,106.0306,360.9074,105.2402,370.8889,105.3943,380.8704,105.6276,390.8519,105.7052,400.8333,105.285,410.8148,105.5762,420.7963,104.7165,430.7778,105.5733,440.7593,105.8371,450.7407,105.7335,460.7222,105.902,470.7037,104.8059,480.6852,104.6368,490.6667,104.6675,500.6481,105.2301,510.6296,105.0924,520.6111,105.9704,530.5926,105.1143,540.5741,104.9459,550.5556,105.5172,560.537,104.6221,570.5185,104.7698,580.5,105.2889,580.5828,105.4888,580.9091,105.5696,581.3008,105.808,581.5196,105.6292,581.9549,105.973,582.2678,106.0212,582.4496,106.0965,582.2687,106.3145,582.5311,106.7161,582.7459,107.0979,583.0543,107.5185,583,107.7889,582.9958,107.7889,583.4626,117.5582,582.4462,127.3274,582.3227,137.0966,583.5036,146.8659,582.2831,156.6351,583.509,166.4043,583.2066,176.1736,582.7321,185.9428,582.6462,195.712,583.4588,205.4813,582.7007,215.2505,583.5919,225.0197,583,234.7889,582.8298,234.7184,583.0437,235.2213,582.8563,235.5578,582.6361,235.8809,582.4288,236.2092,582.2678,236.5567,582.3605,236.7805,581.9925,236.8921,581.5823,236.9017,581.2413,237.0786,580.8369,237.1024,580.5,237.2889,580.5,238.0054,570.5185,237.4438,560.537,237.4615,550.5556,236.6806,540.5741,236.8837,530.5926,237.8197,520.6111,237.7187,510.6296,237.246,500.6481,236.9668,490.6667,237.07,480.6852,236.6028,470.7037,237.7037,460.7222,238.0285,450.7407,237.8153,440.7593,237.9839,430.7778,237.1522,420.7963,237.3762,410.8148,236.9014,400.8333,237.573,390.8519,237.5357,380.8704,237.8413,370.8889,237.0593,360.9074,237.1545,350.9259,237.7324,340.9444,237.8563,330.963,236.7764,320.9815,237.0951,311,237.4382,301.0185,236.6781,291.037,237.6423,281.0556,237.5469,271.0741,237.1882,261.0926,237.4312,251.1111,238.0176,241.1296,236.9761,231.1481,237.6039,221.1667,237.5746,211.1852,237.4047,201.2037,237.4299,191.2222,237.4024,181.2407,236.6648,171.2593,236.8881,161.2778,236.8274,151.2963,237.3528,141.3148,237.3771,131.3333,237.4507,121.3519,236.998,111.3704,237.2214,101.3889,237.1687,91.4074,237.8658,81.4259,237.7155,71.4444,236.8034,61.463,237.216,51.4815,236.7117,41.5,237.2889,41.5368,237.3778,41.2241,237.3299,40.8624,237.1638,40.3838,236.7155,40.145,236.846,39.7322,236.5567,39.5035,236.462,39.6474,236.2287,39.3472,235.8114,39.3227,235.5084,39.2205,235.1732,39,234.7889,39.4721,234.7889,38.2801,225.0197,39.4755,215.2505,39.1782,205.4813,39.3553,195.712,39.7478,185.9428,39.0055,176.1736,39.1753,166.4043,39.2134,156.6351,39.1972,146.8659,38.9992,137.0966,39.7107,127.3274,38.3903,117.5582,39,107.7889,39.1741,107.8611,38.9543,107.3558,39.1265,107.0129,39.4517,106.7334,39.5945,106.3783,39.7322,106.0212,39.6694,105.8694,40.1386,106.0021,40.4532,105.7618,40.8856,105.8056,41.2315,105.6408,41.5,105.2889" style="stroke:#181818;stroke-width:4.0;"/><text fill="#000000" font-family="Chalkduster" font-size="24" font-weight="bold" lengthAdjust="spacing" textLength="237" x="192.5" y="131.1298">Profiles &amp; Policy</text></g><!--entity Schema.org--><g id="elem_Schema.org"><polygon fill="none" points="247.5,466.2889,247.5,466.4991,257.3235,465.8746,267.1471,466.4822,276.9706,466.6886,286.7941,465.5756,296.6176,466.2112,306.4412,465.8625,316.2647,465.9055,326.0882,466.2208,335.9118,465.5976,345.7353,466.8426,355.5588,465.6587,365.3824,466.0912,375.2059,466.7209,385.0294,466.2032,394.8529,466.3572,404.6765,466.257,414.5,466.2889,414.5228,466.3439,414.8841,466.509,415.2818,466.7622,415.6463,466.9349,416.0009,467.0839,416.2678,467.0212,416.3462,467.0537,416.557,467.4339,416.7769,467.8179,416.485,467.9898,417.0625,468.5219,417,468.7889,416.7035,468.7889,417.5338,477.9149,416.505,487.0409,416.9315,496.1668,417.7416,505.2928,417,514.4188,416.985,514.4126,416.886,514.7858,416.8114,515.1691,416.6888,515.5325,416.413,515.8325,416.2678,516.1866,416.3044,516.275,415.8412,516.1567,415.5969,516.567,415.277,516.7947,414.9103,516.9092,414.5,516.9188,414.5,517.5318,404.6765,516.4357,394.8529,516.2666,385.0294,516.2974,375.2059,516.8599,365.3824,516.7223,355.5588,517.6002,345.7353,516.7441,335.9118,516.5757,326.0882,517.1471,316.2647,516.2519,306.4412,516.3997,296.6176,517.5677,286.7941,517.3545,276.9706,517.6533,267.1471,516.597,257.3235,517.238,247.5,516.9188,247.5753,517.1006,247.0862,516.6269,246.7807,516.5964,246.4554,516.5182,246.1689,516.5337,245.7322,516.1866,245.7309,516.186,245.7282,515.892,245.2688,515.4088,245.0843,515.0395,245.3015,514.8366,245,514.4188,244.2831,514.4188,245.509,505.2928,245.2066,496.1668,244.7321,487.0409,244.6462,477.9149,245,468.7889,245.1413,468.8475,245.0543,468.3972,245.4752,468.1573,245.2691,467.6578,245.7759,467.4535,245.7322,467.0212,245.794,467.1703,246.117,466.9502,246.4454,466.7428,246.8856,466.8056,247.2247,466.6244,247.5,466.2889" style="stroke:#181818;stroke-width:4.0;"/><text fill="#000000" font-family="Chalkduster" font-size="24" lengthAdjust="spacing" textLength="152" x="255" y="500.1298">Schema.org</text></g><!--entity JSON-LD--><g id="elem_JSON-LD"><polygon fill="none" points="85,466.2889,85,466.4991,95.1667,465.8746,105.3333,466.4822,115.5,466.6886,125.6667,465.5756,135.8333,466.2112,146,465.8625,156.1667,465.9055,166.3333,466.2208,176.5,465.5976,186.6667,466.8426,196.8333,465.6587,207,466.2889,206.9748,466.228,207.4087,466.5684,207.6962,466.5554,208.0694,466.7493,208.4101,466.8649,208.7678,467.0212,208.8227,467.044,208.9879,467.4052,209.241,467.803,209.4138,468.1674,209.5627,468.522,209.5,468.7889,209.7546,468.7889,209.9636,477.9149,210.2022,487.0409,208.7788,496.1668,210.1785,505.2928,209.5,514.4188,209.4087,514.381,209.5179,514.8404,209.0547,515.0627,209.0396,515.4707,209.1426,515.9276,208.7678,516.1866,208.7616,516.1715,208.4276,516.3654,208.1039,516.5837,207.7602,516.7541,207.3531,516.7711,207,516.9188,207,517.206,196.8333,516.3464,186.6667,517.2032,176.5,517.467,166.3333,517.3633,156.1667,517.5318,146,516.4357,135.8333,516.2666,125.6667,516.2974,115.5,516.8599,105.3333,516.7223,95.1667,517.6002,85,516.9188,84.9777,516.865,84.6027,516.6667,84.322,516.6962,83.8543,516.2741,83.5196,516.1731,83.2322,516.1866,83.4321,516.2693,83.22,515.8886,83.1655,515.5731,82.6938,515.0848,82.7447,514.8131,82.5,514.4188,83.0904,514.4188,82.0276,505.2928,82.4041,496.1668,82.626,487.0409,83.1518,477.9149,82.5,468.7889,82.4987,468.7884,82.7889,468.4944,82.6223,468.0112,82.7308,467.6419,83.2409,467.439,83.2322,467.0212,83.1408,466.8004,83.6507,467.0315,83.9657,466.7919,84.2587,466.4993,84.6013,466.3264,85,466.2889" style="stroke:#181818;stroke-width:4.0;"/><text fill="#000000" font-family="Chalkduster" font-size="24" lengthAdjust="spacing" textLength="107" x="92.5" y="500.1298">JSON-LD</text></g><!--entity OCFL--><g id="elem_OCFL"><polygon fill="none" points="85,638.2889,85,638.4991,95.5,637.8746,106,638.4822,116.5,638.6886,127,637.5756,137.5,638.2112,148,637.8625,158.5,637.9055,169,638.2889,168.9913,638.268,169.2654,638.2225,169.7777,638.7523,169.9803,638.5342,170.389,638.8138,170.7678,639.0212,170.9008,639.0763,170.8878,639.3638,171.0817,639.737,171.1973,640.0778,171.4085,640.4582,171.5,640.7889,171.7391,640.7889,172.0857,649.9149,172.1711,659.0409,172.1793,668.1668,171.7546,677.2928,171.5,686.4188,171.6428,686.4779,171.5698,686.8619,170.985,687.0339,171.2696,687.566,170.8229,687.7952,170.7678,688.1866,170.8359,688.3509,170.3511,688.1805,170.0519,688.4583,169.8017,688.8543,169.3473,688.7573,169,688.9188,169,689.0241,158.5,689.2574,148,689.335,137.5,688.9149,127,689.206,116.5,688.3464,106,689.2032,95.5,689.467,85,688.9188,85.0567,689.0557,84.7246,688.9611,84.2313,688.4771,83.8561,688.2786,83.5065,688.1416,83.2322,688.1866,83.2141,688.179,83.0253,687.8079,83.1492,687.5664,82.7391,687.1036,82.5408,686.7286,82.5,686.4188,82.7283,686.4188,81.8332,677.2928,81.9809,668.1668,83.149,659.0409,82.9357,649.9149,82.5,640.7889,82.7262,640.8826,82.5473,640.3943,82.8912,640.1226,83.1212,639.8036,82.9403,639.3145,83.2322,639.0212,83.22,638.9917,83.6019,638.9135,84.0225,638.929,84.2924,638.5806,84.7055,638.5778,85,638.2889" style="stroke:#181818;stroke-width:4.0;"/><text fill="#000000" font-family="Chalkduster" font-size="24" lengthAdjust="spacing" textLength="69" x="92.5" y="672.1298">OCFL</text></g><!--entity NOCFL--><g id="elem_NOCFL"><polygon fill="none" points="209.5,638.2889,209.5,638.4991,219.6,637.8746,229.7,638.4822,239.8,638.6886,249.9,637.5756,260,638.2112,270.1,637.8625,280.2,637.9055,290.3,638.2208,300.4,637.5976,310.5,638.2889,310.5706,638.4594,310.7732,638.2413,311.1819,638.5209,311.6158,638.8613,311.9033,638.8483,312.2678,639.0212,312.2888,639.0299,312.4044,639.3707,312.6156,639.7511,312.7808,640.1123,313.0339,640.5101,313,640.7889,313.6711,640.7889,313.6793,649.9149,313.2546,659.0409,313.4636,668.1668,313.7022,677.2928,313,686.4188,312.7779,686.3268,313.0625,686.8589,312.6158,687.0881,312.7251,687.5475,312.2618,687.7699,312.2678,688.1866,312.259,688.1655,312.0088,688.5614,311.5544,688.4644,311.2205,688.6583,310.8967,688.8766,310.5,688.9188,310.5,689.335,300.4,688.9149,290.3,689.206,280.2,688.3464,270.1,689.2032,260,689.467,249.9,689.3633,239.8,689.5318,229.7,688.4357,219.6,688.2666,209.5,688.9188,209.4207,688.7274,209.1389,688.7542,208.7678,688.5654,208.5263,688.6893,208.0635,688.2792,207.7322,688.1866,207.6266,688.1428,207.6561,687.8621,207.234,687.3944,207.133,687.0597,207.3463,686.8551,207,686.4188,207.4357,686.4188,207.7345,677.2928,206.6782,668.1668,207.3192,659.0409,207.5904,649.9149,207,640.7889,206.8545,640.7287,207.1169,640.4232,207.3317,640.0979,207.6401,639.8114,207.5845,639.3742,207.7322,639.0212,207.7912,639.1636,208.0151,638.7042,208.3529,638.5197,208.8571,638.7369,209.055,638.2146,209.5,638.2889" style="stroke:#181818;stroke-width:4.0;"/><text fill="#000000" font-family="Chalkduster" font-size="24" lengthAdjust="spacing" textLength="86" x="217" y="672.1298">NOCFL</text></g><!--entity DOI--><g id="elem_DOI"><polygon fill="none" points="652.5,162.2889,652.5,162.4991,663,161.8746,673.5,162.4822,684,162.6886,694.5,161.5756,705,162.2112,715.5,162.2889,715.4456,162.1576,715.8046,162.3173,716.1984,162.5609,716.4725,162.5154,716.9848,163.0452,717.2678,163.0212,717.0737,162.9408,717.3533,163.3495,717.6937,163.7834,717.6807,164.0709,717.8746,164.4441,718,164.7889,717.9681,164.7889,718.1785,173.9149,718.2391,183.0409,718.5857,192.1668,718.6711,201.2928,718,210.4188,718.2092,210.5054,717.932,210.8048,717.8499,211.185,717.7769,211.569,717.1921,211.741,717.2678,212.1866,717.3543,212.3955,716.8764,212.2417,716.6288,212.6438,716.144,212.4734,715.8448,212.7512,715.5,212.9188,715.5,213.6604,705,212.87,694.5,213.0241,684,213.2574,673.5,213.335,663,212.9149,652.5,212.9188,652.5366,213.0072,652.0734,212.5961,651.8292,212.7135,651.5093,212.6483,651.1425,212.4699,650.7322,212.1866,650.921,212.2647,650.437,211.7714,650.2385,211.3963,650.1015,211.0466,650.1283,210.7648,650,210.4188,649.8035,210.4188,650.6814,201.2928,649.8253,192.1668,649.6569,183.0409,650.2283,173.9149,650,164.7889,649.7946,164.7039,649.9866,164.3692,650.4927,164.1646,650.5735,163.7839,650.812,163.4684,650.7322,163.0212,650.6912,162.9221,651.1265,162.973,651.5147,162.9101,651.7326,162.4364,652.1342,162.4059,652.5,162.2889" style="stroke:#181818;stroke-width:4.0;"/><text fill="#000000" font-family="Chalkduster" font-size="24" lengthAdjust="spacing" textLength="48" x="660" y="196.1298">DOI</text></g><!--entity ARCP--><g id="elem_ARCP"><polygon fill="none" points="756,162.2889,756,162.4991,765.7778,161.8746,775.5556,162.4822,785.3333,162.6886,795.1111,161.5756,804.8889,162.2112,814.6667,161.8625,824.4444,161.9055,834.2222,162.2208,844,162.2889,843.9118,162.076,844.4242,162.6059,844.6267,162.3877,845.0354,162.6674,845.4693,163.0078,845.7678,163.0212,845.7414,163.0102,845.9352,163.3834,846.0508,163.7242,846.2621,164.1046,846.4272,164.4659,846.5,164.7889,847.0857,164.7889,847.1711,173.9149,847.1793,183.0409,846.7546,192.1668,846.9636,201.2928,846.5,210.4188,846.7163,210.5084,846.1315,210.6803,846.4161,211.2124,845.9693,211.4416,846.0786,211.9011,845.7678,212.1866,845.7046,212.0341,845.4055,212.3119,845.1553,212.7078,844.7009,212.6109,844.367,212.8048,844,212.9188,844,213.2574,834.2222,213.335,824.4444,212.9149,814.6667,213.206,804.8889,212.3464,795.1111,213.2032,785.3333,213.467,775.5556,213.3633,765.7778,213.5318,756,212.9188,755.9384,212.77,755.5633,212.5715,755.2136,212.4345,754.9318,212.4613,754.5607,212.2725,754.2322,212.1866,754.4421,212.2735,754.032,211.8107,753.8337,211.4357,753.8632,211.155,753.4411,210.6873,753.5,210.4188,752.9809,210.4188,754.149,201.2928,753.9357,192.1668,754.2345,183.0409,753.1782,173.9149,753.5,164.7889,753.5983,164.8297,753.8283,164.5107,753.6474,164.0216,753.9098,163.7161,754.1246,163.3908,754.2322,163.0212,754.3154,163.2219,754.5853,162.8734,754.9983,162.8707,755.2223,162.4113,755.5601,162.2268,756,162.2889" style="stroke:#181818;stroke-width:4.0;"/><text fill="#000000" font-family="Chalkduster" font-size="24" lengthAdjust="spacing" textLength="73" x="763.5" y="196.1298">ARCP</text></g><!--entity Managed URIs--><g id="elem_Managed URIs"><polygon fill="none" points="633.5,273.2889,633.5,273.4991,643.5476,272.8746,653.5952,273.4822,663.6429,273.6886,673.6905,272.5756,683.7381,273.2112,693.7857,272.8625,703.8333,272.9055,713.881,273.2208,723.9286,272.5976,733.9762,273.8426,744.0238,272.6587,754.0714,273.0912,764.119,273.7209,774.1667,273.2032,784.2143,273.3572,794.2619,273.257,804.3095,273.4675,814.3571,273.5281,824.4048,273.8746,834.4524,273.96,844.5,273.2889,844.5866,273.4981,844.886,273.5138,845.2662,273.7246,845.6502,273.9445,845.8222,273.6526,846.2678,274.0212,846.4767,274.1077,846.3229,274.3369,846.7251,274.7964,846.5547,275.0187,846.8325,275.4267,847,275.7889,847.7416,275.7889,846.9513,284.9149,847.1053,294.0409,847.3386,303.1668,847.4162,312.2928,847,321.4188,846.9988,321.4183,846.942,321.809,846.5308,322.0529,846.6482,322.5157,846.583,322.9029,846.2678,323.1866,846.3245,323.3234,845.9924,323.5218,845.499,323.3307,845.1239,323.425,844.7743,323.581,844.5,323.9188,844.5,323.8599,834.4524,323.7223,824.4048,324.6002,814.3571,323.7441,804.3095,323.5757,794.2619,324.1471,784.2143,323.2519,774.1667,323.3997,764.119,324.5677,754.0714,324.3545,744.0238,324.6533,733.9762,323.597,723.9286,324.238,713.881,324.5092,703.8333,323.4464,693.7857,323.8229,683.7381,324.0448,673.6905,324.5705,663.6429,323.9146,653.5952,324.3814,643.5476,323.365,633.5,323.9188,633.4136,323.7102,633.2107,323.9274,632.7014,323.4051,632.5043,323.6362,632.1121,323.3966,631.7322,323.1866,631.6497,323.1524,631.4768,322.7879,631.5806,322.538,631.2007,322.0877,631.3287,321.8478,631,321.4188,630.4473,321.4188,631.6174,312.2928,631.4843,303.1668,631.245,294.0409,631.0472,284.9149,631,275.7889,631.2238,275.8816,631.3354,275.5137,631.345,275.1034,631.5219,274.7625,631.5457,274.3581,631.7322,274.0212,631.8236,274.2418,632.1055,273.9224,632.4614,273.7814,632.7153,273.3945,633.0948,273.3106,633.5,273.2889" style="stroke:#181818;stroke-width:4.0;"/><text fill="#000000" font-family="Chalkduster" font-size="24" lengthAdjust="spacing" textLength="196" x="641" y="307.1298">Managed URIs</text></g><!--entity ldac--><g id="elem_ldac"><polygon fill="none" points="337.5,162.2889,337.5,162.4991,347.4545,161.8746,357.4091,162.4822,367.3636,162.6886,377.3182,161.5756,387.2727,162.2112,397.2273,161.8625,407.1818,161.9055,417.1364,162.2208,427.0909,161.5976,437.0455,162.8426,447,161.6587,456.9545,162.0912,466.9091,162.7209,476.8636,162.2032,486.8182,162.3572,496.7727,162.257,506.7273,162.4675,516.6818,162.5281,526.6364,162.8746,536.5909,162.96,546.5455,162.9682,556.5,162.2889,556.5325,162.3674,556.9127,162.5782,557.2967,162.7981,557.4687,162.5062,558.0008,163.0837,558.2678,163.0212,558.1765,162.9834,558.5786,163.4428,558.4082,163.6651,558.686,164.0731,559.0819,164.53,559,164.7889,558.9513,164.7889,559.1053,173.9149,559.3386,183.0409,559.4162,192.1668,558.9961,201.2928,559,210.4188,559.0885,210.4554,558.6773,210.6993,558.7947,211.1622,558.7295,211.5494,558.5511,211.8897,558.2678,212.1866,558.346,212.3753,557.8526,212.1842,557.4775,212.2786,557.1278,212.4345,556.846,212.7542,556.5,212.9188,556.5,212.7223,546.5455,213.6002,536.5909,212.7441,526.6364,212.5757,516.6818,213.1471,506.7273,212.2519,496.7727,212.3997,486.8182,213.5677,476.8636,213.3545,466.9091,213.6533,456.9545,212.597,447,213.238,437.0455,213.5092,427.0909,212.4464,417.1364,212.8229,407.1818,213.0448,397.2273,213.5705,387.2727,212.9146,377.3182,213.3814,367.3636,212.365,357.4091,212.2415,347.4545,213.4224,337.5,212.9188,337.4085,212.698,337.2114,212.9291,336.8193,212.6895,336.4052,212.3969,336.0407,212.224,335.7322,212.1866,335.8735,212.2451,335.4936,211.7948,335.6216,211.5549,335.1227,211.0554,335.3366,210.8511,335,210.4188,335.4843,210.4188,335.245,201.2928,335.0472,192.1668,335.7266,183.0409,335.6136,173.9149,335,164.7889,335.0521,164.8105,335.229,164.4696,335.2528,164.0652,335.66,163.8197,335.6335,163.3945,335.7322,163.0212,335.7542,163.0743,336.0082,162.6874,336.3876,162.6035,336.8606,162.7453,337.2013,162.5677,337.5,162.2889" style="stroke:#181818;stroke-width:4.0;"/><text fill="#000000" font-family="Chalkduster" font-size="24" lengthAdjust="spacing" textLength="204" x="345" y="196.1298">Language Data</text></g><!--entity wr--><g id="elem_wr"><polygon fill="none" points="85,162.2889,85,162.4991,95.0952,161.8746,105.1905,162.4822,115.2857,162.6886,125.381,161.5756,135.4762,162.2112,145.5714,161.8625,155.6667,161.9055,165.7619,162.2208,175.8571,161.5976,185.9524,162.8426,196.0476,161.6587,206.1429,162.0912,216.2381,162.7209,226.3333,162.2032,236.4286,162.3572,246.5238,162.257,256.619,162.4675,266.7143,162.5281,276.8095,162.8746,286.9048,162.96,297,162.2889,297.0866,162.4981,297.386,162.5138,297.7662,162.7246,298.1502,162.9445,298.3222,162.6526,298.7678,163.0212,298.9767,163.1077,298.8229,163.3369,299.2251,163.7964,299.0547,164.0187,299.3325,164.4267,299.5,164.7889,300.2416,164.7889,299.4513,173.9149,299.6053,183.0409,299.8386,192.1668,299.9162,201.2928,299.5,210.4188,299.4988,210.4183,299.442,210.809,299.0308,211.0529,299.1482,211.5157,299.083,211.9029,298.7678,212.1866,298.8245,212.3234,298.4924,212.5218,297.999,212.3307,297.6239,212.425,297.2743,212.581,297,212.9188,297,212.8599,286.9048,212.7223,276.8095,213.6002,266.7143,212.7441,256.619,212.5757,246.5238,213.1471,236.4286,212.2519,226.3333,212.3997,216.2381,213.5677,206.1429,213.3545,196.0476,213.6533,185.9524,212.597,175.8571,213.238,165.7619,213.5092,155.6667,212.4464,145.5714,212.8229,135.4762,213.0448,125.381,213.5705,115.2857,212.9146,105.1905,213.3814,95.0952,212.365,85,212.9188,84.9136,212.7102,84.7107,212.9274,84.2014,212.4051,84.0043,212.6362,83.6121,212.3966,83.2322,212.1866,83.1497,212.1524,82.9768,211.7879,83.0806,211.538,82.7007,211.0877,82.8287,210.8478,82.5,210.4188,81.9473,210.4188,83.1174,201.2928,82.9843,192.1668,82.745,183.0409,82.5472,173.9149,82.5,164.7889,82.7238,164.8816,82.8354,164.5137,82.845,164.1034,83.0219,163.7625,83.0457,163.3581,83.2322,163.0212,83.3236,163.2418,83.6055,162.9224,83.9614,162.7814,84.2153,162.3945,84.5948,162.3106,85,162.2889" style="stroke:#181818;stroke-width:4.0;"/><text fill="#000000" font-family="Chalkduster" font-size="24" lengthAdjust="spacing" textLength="197" x="92.5" y="196.1298">Workflow Run</text></g><!--link Profiles to ro--><!--link ro to sstorage--><!--link OCFL to NOCFL--><!--SRC=[RL5DQuGm4BtdLqmzz1Rx1nQXA8KjTXMbz51A2KbMPMEo914hnV_U67UjxJg793FlPTvyt3MIYexnpvR80SBmWH5Bi7D8nLikBJPs43oqNnOXf3crH5Q2Gr2w1oEQcG1sEtDreWY-4JZpnvdGaqi3GP7XM1FB0o06jBfm9bjdf3LlIQXq5Mp1psLsm6aoOoD2Dz-jqfDOUURKU25ZBg5DkIn-IZU53h_8Y60MMi7vFd7fhobNG9BjWzleOn7d6-4NFs06hyNUB5h_XBGwDe8Rk8TSYOOElgabkjbKwkvkQZbnM_HymGZTOhufVJeArKFHIK_izQgCHGLZfdhvNZUCSVc1SUJMDnUgu2yKBVFs-3H4mBgfQhkY-DcYqU4_]--></g></svg>