<?xml version="1.0" encoding="UTF-8" standalone="no"?><svg xmlns="http://www.w3.org/2000/svg" xmlns:xlink="http://www.w3.org/1999/xlink" contentStyleType="text/css" height="354px" preserveAspectRatio="none" style="width:980px;height:354px;background:#FFFFFF;" version="1.1" viewBox="0 0 980 354" width="980px" zoomAndPan="magnify"><defs/><g><!--cluster Standards--><g id="cluster_Standards"><polygon fill="#ADD8E6" points="9.5,9.2889,9.5,9.4991,19.5208,8.8746,29.5417,9.4822,39.5625,9.6886,49.5833,8.5756,59.6042,9.2112,69.625,8.8625,79.6458,8.9055,89.6667,9.2208,99.6875,8.5976,109.7083,9.8426,119.7292,8.6587,129.75,9.0912,139.7708,9.7209,149.7917,9.2032,159.8125,9.3572,169.8333,9.257,179.8542,9.4675,189.875,9.5281,199.8958,9.8746,209.9167,9.96,219.9375,9.9682,229.9583,9.5436,239.9792,9.7525,250,9.9912,260.0208,8.5678,270.0417,9.9675,280.0625,8.9924,290.0833,9.8228,300.1042,8.7939,310.125,9.2205,320.1458,10.0306,330.1667,9.2402,340.1875,9.3943,350.2083,9.6276,360.2292,9.7052,370.25,9.285,380.2708,9.5762,390.2917,8.7165,400.3125,9.5733,410.3333,9.8371,420.3542,9.7335,430.375,9.902,440.3958,8.8059,450.4167,8.6368,460.4375,8.6675,470.4583,9.2301,480.4792,9.0924,490.5,9.9704,500.5208,9.1143,510.5417,8.9459,520.5625,9.5172,530.5833,8.6221,540.6042,8.7698,550.625,9.9379,560.6458,9.7246,570.6667,10.0234,580.6875,8.9672,590.7083,9.6081,600.7292,9.8794,610.75,8.8165,620.7708,9.1931,630.7917,9.4149,640.8125,9.9407,650.8333,9.2848,660.8542,9.7515,670.875,8.7352,680.8958,8.6117,690.9167,9.7926,700.9375,8.572,710.9583,9.7979,720.9792,9.4956,731,9.021,741.0208,8.9352,751.0417,9.7477,761.0625,8.9896,771.0833,9.8808,781.1042,8.7362,791.125,9.9064,801.1458,9.7733,811.1667,9.5339,821.1875,9.3362,831.2083,10.0156,841.2292,9.9025,851.25,9.4582,861.2708,9.5571,871.2917,9.1587,881.3125,10.0054,891.3333,9.4438,901.3542,9.4615,911.375,8.6806,921.3958,8.8837,931.4167,9.8197,941.4375,9.7187,951.4583,9.246,961.4792,8.9668,971.5,9.2889,971.4721,9.2215,971.766,9.2241,972.26,9.7096,972.655,9.956,972.9814,10.0368,973.2678,10.0212,973.4818,10.1098,973.3721,10.3573,973.5875,10.7394,973.5877,11.0324,973.941,11.4716,974,11.7889,974.2468,11.7889,974.5524,21.9102,973.7703,32.0314,973.8656,42.1526,974.4435,52.2738,974.5673,62.395,973.4875,72.5162,973.8061,82.6374,974.1493,92.7586,973.3892,102.8799,974.3534,113.0011,974.258,123.1223,973.8992,133.2435,974.1422,143.3647,974.7287,153.4859,973.6871,163.6071,974.315,173.7283,974.2856,183.8496,974.1158,193.9708,974.1409,204.092,974.1135,214.2132,973.3758,224.3344,973.5992,234.4556,973.5385,244.5768,974.0638,254.698,974.0881,264.8193,974.1617,274.9405,973.709,285.0617,973.9325,295.1829,973.8798,305.3041,974.5769,315.4253,974.4266,325.5465,973.5145,335.6677,974,345.7889,973.9775,345.7796,973.6758,346.0689,973.7959,346.5328,973.748,346.9272,973.5819,347.2726,973.2678,347.5567,973.2122,347.4226,972.9734,347.846,972.4659,347.6209,972.2326,348.0577,971.8154,348.0503,971.5,348.2889,971.5,348.3857,961.4792,348.5293,951.4583,348.7611,941.4375,347.569,931.4167,348.7644,921.3958,348.4671,911.375,348.6443,901.3542,349.0368,891.3333,348.2944,881.3125,348.4642,871.2917,348.5024,861.2708,348.4862,851.25,348.2881,841.2292,348.9997,831.2083,347.6792,821.1875,348.8542,811.1667,347.6649,801.1458,347.7486,791.125,348.329,781.1042,348.3172,771.0833,347.7961,761.0625,348.7027,751.0417,348.3978,741.0208,349.0156,731,348.9561,720.9792,347.8407,710.9583,347.891,700.9375,348.1598,690.9167,348.6445,680.8958,348.6919,670.875,348.5901,660.8542,347.947,650.8333,348.9253,640.8125,348.9227,630.7917,348.2417,620.7708,348.0499,610.75,347.8876,600.7292,348.0744,590.7083,348.4264,580.6875,348.2206,570.6667,347.8712,560.6458,348.7763,550.625,347.83,540.6042,348.7913,530.5833,348.7162,520.5625,348.6608,510.5417,348.9814,500.5208,348.0431,490.5,347.9883,480.4792,348.8078,470.4583,347.6921,460.4375,348.055,450.4167,348.4044,440.3958,348.3576,430.375,347.9305,420.3542,348.246,410.3333,349.0335,400.3125,348.9374,390.2917,347.6927,380.2708,348.3675,370.25,347.775,360.2292,348.2626,350.2083,348.5819,340.1875,348.7088,330.1667,347.6242,320.1458,348.6895,310.125,348.2974,300.1042,347.7336,290.0833,347.8179,280.0625,348.6155,270.0417,348.5388,260.0208,348.2725,250,347.6168,239.9792,348.9471,229.9583,347.9771,219.9375,347.7609,209.9167,348.2216,199.8958,348.8787,189.875,348.9044,179.8542,348.3241,169.8333,348.1378,159.8125,348.4587,149.7917,348.4752,139.7708,347.7812,129.75,348.7029,119.7292,348.8478,109.7083,348.0732,99.6875,347.8598,89.6667,348.9636,79.6458,348.31,69.625,348.2888,59.6042,348.588,49.5833,347.6433,39.5625,348.8189,29.5417,348.2735,19.5208,348.9578,9.5,348.2889,9.4725,348.2225,9.1986,348.2685,8.7363,347.8593,8.4706,347.9251,8.1342,347.82,7.7322,347.5567,7.6314,347.515,7.6976,347.2495,7.2634,346.7767,7.148,346.436,7.3567,346.2296,7,345.7889,7.6844,345.7889,7.5685,335.6677,6.6396,325.5465,7.3842,315.4253,6.5279,305.3041,7.0582,295.1829,6.9987,285.0617,6.7376,274.9405,7.6159,264.8193,7.4433,254.698,6.6792,244.5768,7.5266,234.4556,7.0919,224.3344,6.4164,214.2132,6.7667,204.092,6.4747,193.9708,6.8609,183.8496,6.371,173.7283,6.3998,163.6071,7.0703,153.4859,6.8796,143.3647,6.9414,133.2435,6.8568,123.1223,7.1673,113.0011,6.4449,102.8799,7.1601,92.7586,6.2569,82.6374,7.296,72.5162,7.5928,62.395,7.5221,52.2738,7.3613,42.1526,7.1922,32.0314,7.1057,21.9102,7,11.7889,6.8029,11.7073,7.284,11.4924,7.3944,11.1239,7.3921,10.7087,7.584,10.374,7.7322,10.0212,7.7056,9.9569,8.1136,9.9418,8.5262,9.9379,8.7477,9.4729,9.2063,9.5798,9.5,9.2889" style="stroke:#181818;stroke-width:4.0;"/><text fill="#000000" font-family="Chalkduster" font-size="24" font-style="italic" lengthAdjust="spacing" textLength="170" x="405.5" y="35.1298">«standards»</text><text fill="#000000" font-family="Chalkduster" font-size="24" font-weight="bold" lengthAdjust="spacing" textLength="138" x="421.5" y="65.7597">Standards</text></g><!--cluster ro--><g id="cluster_ro"><path d="M585.5,97.2889 L585.5,97.8494 L595.2692,96.1841 L605.0385,97.8044 L614.8077,98.3548 L624.5769,95.3866 L634.3462,97.0817 L644.1154,96.1516 L653.8846,96.2663 L663.6538,97.1072 L673.4231,95.4453 L683.1923,98.7653 L692.9615,95.6082 L702.7308,96.7616 L712.5,97.2889 L715,99.7889 L715.3761,99.8661 L716.3253,106.5996 L717.8594,113.4531 L719.1722,120.2611 L720.7555,127.1247 L722,133.9188 L722,134.5565 L731.8043,135.4806 L741.6087,135.7083 L751.413,135.7301 L761.2174,134.5978 L771.0217,135.155 L780.8261,135.7914 L790.6304,131.9956 L800.4348,135.7281 L810.2391,133.1281 L820.0435,135.3423 L829.8478,132.5987 L839.6522,133.7361 L849.4565,135.8964 L859.2609,133.7888 L869.0652,134.1996 L878.8696,134.8218 L888.6739,135.0287 L898.4783,133.9084 L908.2826,134.6847 L918.087,132.3923 L927.8913,134.6771 L937.6957,135.3806 L947.5,133.9188 L950,136.4188 L951.1854,136.4188 L951.6347,147.0431 L948.7118,157.6674 L948.2608,168.2917 L948.3429,178.916 L949.843,189.5403 L949.4759,200.1646 L950,210.7889 L947.5,213.2889 L947.5,215.106 L937.4444,212.8231 L927.3889,212.3741 L917.3333,213.8977 L907.2778,211.5107 L897.2222,211.9046 L887.1667,215.0195 L877.1111,214.4507 L867.0556,215.2476 L857,212.4308 L846.9444,214.1401 L836.8889,214.8634 L826.8333,212.0292 L816.7778,213.0333 L806.7222,213.6249 L796.6667,215.027 L786.6111,213.2778 L776.5556,214.5225 L766.5,211.8122 L756.4444,211.4829 L746.3889,214.6319 L736.3333,211.3771 L726.2778,214.6462 L716.2222,213.84 L706.1667,212.5745 L696.1111,212.3456 L686.0556,214.5123 L676,212.4907 L665.9444,214.8672 L655.8889,211.815 L645.8333,214.9354 L635.7778,214.5804 L625.7222,213.9422 L615.6667,213.4149 L605.6111,215.2266 L595.5556,214.9252 L585.5,213.2889 L583,210.7889 L583.4513,210.7889 L583.7152,200.698 L582.6526,190.6071 L584.9105,180.5162 L583.413,170.4253 L583.4602,160.3344 L581.3777,150.2435 L581.9194,140.1526 L584.4153,130.0617 L584.146,119.9708 L582.8855,109.8799 L583,99.7889 L585.5,97.2889 " fill="none" style="stroke:#000000;stroke-width:4.0;"/><path d="M583,133.9188 L583,134.199 L592.9286,133.3664 L602.8571,134.1765 L612.7857,134.4517 L622.7143,132.9676 L632.6429,133.8152 L642.5714,133.3501 L652.5,133.4075 L662.4286,133.8279 L672.3571,132.997 L682.2857,134.657 L692.2143,133.0784 L702.1429,133.6551 L712.0714,134.4947 L722,133.9188 " fill="none" style="stroke:#000000;stroke-width:4.0;"/><text fill="#000000" font-family="Chalkduster" font-size="24" font-weight="bold" lengthAdjust="spacing" textLength="126" x="587" y="123.1298">RO-Crate</text></g><!--cluster PIDs--><g id="cluster_PIDs"><polygon fill="none" points="313.5,97.2889,313.5,97.4991,323.625,96.8746,333.75,97.4822,343.875,97.6886,354,96.5756,364.125,97.2112,374.25,96.8625,384.375,96.9055,394.5,97.2208,404.625,96.5976,414.75,97.8426,424.875,96.6587,435,97.0912,445.125,97.7209,455.25,97.2032,465.375,97.3572,475.5,97.257,485.625,97.4675,495.75,97.5281,505.875,97.8746,516,97.96,526.125,97.9682,536.25,97.5436,546.375,97.7525,556.5,97.2889,556.5896,97.5052,556.7616,97.2133,557.2937,97.7908,557.5228,97.637,557.9823,98.0391,558.2678,98.0212,558.1153,97.958,558.3931,98.366,558.789,98.8229,558.6921,99.0756,558.886,99.4488,559,99.7889,559.3386,99.7889,559.4162,109.8799,558.9961,119.9708,559.2872,130.0617,558.4276,140.1526,559.2844,150.2435,559.5482,160.3344,559.4445,170.4253,559.613,180.5162,558.5169,190.6071,558.3478,200.698,558.3786,210.7889,558.9411,220.8799,558.8035,230.9708,559.6814,241.0617,558.8253,251.1526,558.6569,261.2435,559.2283,271.3344,558.3332,281.4253,558.4809,291.5162,559.649,301.6071,559.4357,311.698,559,321.7889,559.2262,321.8826,558.7545,322.1015,558.8054,322.5368,558.7425,322.9249,558.2687,323.1429,558.2678,323.5567,558.2555,323.5272,557.9303,323.742,557.6438,324.0503,557.2066,323.9948,556.9126,324.285,556.5,324.2889,556.5,323.7352,546.375,323.6117,536.25,324.7926,526.125,323.572,516,324.7979,505.875,324.4956,495.75,324.021,485.625,323.9352,475.5,324.7477,465.375,323.9896,455.25,324.8808,445.125,323.7362,435,324.9064,424.875,324.7733,414.75,324.5339,404.625,324.3362,394.5,325.0156,384.375,324.9025,374.25,324.4582,364.125,324.5571,354,324.1587,343.875,325.0054,333.75,324.4438,323.625,324.4615,313.5,324.2889,313.4224,324.1016,313.0948,324.0177,312.8606,324.1595,312.4942,323.982,312.0803,323.6899,311.7322,323.5567,311.633,323.5156,311.5184,323.1752,311.228,322.7621,311.4206,322.549,311.3742,322.2368,311,321.7889,311.5264,321.7889,311.6949,311.698,310.8633,301.6071,311.0872,291.5162,310.6124,281.4253,311.284,271.3344,311.2468,261.2435,311.5524,251.1526,310.7703,241.0617,310.8656,230.9708,311.4435,220.8799,311.5673,210.7889,310.4875,200.698,310.8061,190.6071,311.1493,180.5162,310.3892,170.4253,311.3534,160.3344,311.258,150.2435,310.8992,140.1526,311.1422,130.0617,311.7287,119.9708,310.6871,109.8799,311,99.7889,311.097,99.8291,311.2344,99.4718,311.3285,99.0966,311.4827,98.7463,311.6207,98.3892,311.7322,98.0212,311.6526,97.829,312.0347,97.7513,312.3805,97.5862,312.801,97.6015,313.1577,97.4625,313.5,97.2889" style="stroke:#181818;stroke-width:4.0;"/><text fill="#000000" font-family="Chalkduster" font-size="24" font-weight="bold" lengthAdjust="spacing" textLength="60" x="405" y="123.1298">PIDs</text></g><!--cluster Profiles--><g id="cluster_Profiles"><polygon fill="none" points="33.5,97.2889,33.5,97.4991,43.54,96.8746,53.58,97.4822,63.62,97.6886,73.66,96.5756,83.7,97.2112,93.74,96.8625,103.78,96.9055,113.82,97.2208,123.86,96.5976,133.9,97.8426,143.94,96.6587,153.98,97.0912,164.02,97.7209,174.06,97.2032,184.1,97.3572,194.14,97.257,204.18,97.4675,214.22,97.5281,224.26,97.8746,234.3,97.96,244.34,97.9682,254.38,97.5436,264.42,97.7525,274.46,97.9912,284.5,97.2889,284.408,97.0669,284.9401,97.6444,285.1693,97.4905,285.6288,97.8927,285.8511,97.7223,286.2678,98.0212,286.2467,98.0124,286.6426,98.4693,286.5457,98.7221,286.7395,99.0953,286.9578,99.4786,287,99.7889,287.4162,99.7889,286.9961,109.8799,287.2872,119.9708,286.4276,130.0617,287.2844,140.1526,287.5482,150.2435,287.4445,160.3344,287.613,170.4253,286.5169,180.5162,286.3478,190.6071,286.3786,200.698,286.9411,210.7889,286.8035,220.8799,287.6814,230.9708,286.8253,241.0617,286.6569,251.1526,287.2283,261.2435,286.3332,271.3344,286.4809,281.4253,287.649,291.5162,287.4357,301.6071,287.7345,311.698,287,321.7889,286.9009,321.7479,286.9519,322.1832,286.8889,322.5714,286.4152,322.7893,286.3847,323.1909,286.2678,323.5567,286.2838,323.5955,285.9974,323.9039,285.5601,323.8483,285.2661,324.1385,284.7829,323.972,284.5,324.2889,284.5,323.6117,274.46,324.7926,264.42,323.572,254.38,324.7979,244.34,324.4956,234.3,324.021,224.26,323.9352,214.22,324.7477,204.18,323.9896,194.14,324.8808,184.1,323.7362,174.06,324.9064,164.02,324.7733,153.98,324.5339,143.94,324.3362,133.9,325.0156,123.86,324.9025,113.82,324.4582,103.78,324.5571,93.74,324.1587,83.7,325.0054,73.66,324.4438,63.62,324.4615,53.58,323.6806,43.54,323.8837,33.5,324.2889,33.5677,324.4524,33.2013,324.2749,32.7874,323.9828,32.3982,323.7504,32.0579,323.6357,31.7322,323.5567,31.5209,323.4692,31.7135,323.2561,31.6671,322.9439,31.455,322.5632,31.3605,322.2311,31,321.7889,30.8633,321.7889,31.0872,311.698,30.6124,301.6071,31.284,291.5162,31.2468,281.4253,31.5524,271.3344,30.7703,261.2435,30.8656,251.1526,31.4435,241.0617,31.5673,230.9708,30.4875,220.8799,30.8061,210.7889,31.1493,200.698,30.3892,190.6071,31.3534,180.5162,31.258,170.4253,30.8992,160.3344,31.1422,150.2435,31.7287,140.1526,30.6871,130.0617,31.315,119.9708,31.2856,109.8799,31,99.7889,31.0357,99.8037,31.1898,99.4534,31.3278,99.0963,31.2471,98.6487,31.4624,98.3236,31.7322,98.0212,31.6734,97.879,32.0939,97.8944,32.4506,97.7554,32.8135,97.6317,33.1093,97.3458,33.5,97.2889" style="stroke:#181818;stroke-width:4.0;"/><text fill="#000000" font-family="Chalkduster" font-size="24" font-weight="bold" lengthAdjust="spacing" textLength="107" x="105.5" y="123.1298">Profiles</text></g><!--entity Schema.org--><g id="elem_Schema.org"><polygon fill="none" points="764.5,146.2889,764.5,146.4991,774.3235,145.8746,784.1471,146.4822,793.9706,146.6886,803.7941,145.5756,813.6176,146.2112,823.4412,145.8625,833.2647,145.9055,843.0882,146.2208,852.9118,145.5976,862.7353,146.8426,872.5588,145.6587,882.3824,146.0912,892.2059,146.7209,902.0294,146.2032,911.8529,146.3572,921.6765,146.257,931.5,146.2889,931.5228,146.3439,931.8841,146.509,932.2818,146.7622,932.6463,146.9349,933.0009,147.0839,933.2678,147.0212,933.3462,147.0537,933.557,147.4339,933.7769,147.8179,933.485,147.9898,934.0625,148.5219,934,148.7889,933.7035,148.7889,934.5338,157.9149,933.505,167.0409,933.9315,176.1668,934.7416,185.2928,934,194.4188,933.985,194.4126,933.886,194.7858,933.8114,195.1691,933.6888,195.5325,933.413,195.8325,933.2678,196.1866,933.3044,196.275,932.8412,196.1567,932.5969,196.567,932.277,196.7947,931.9103,196.9092,931.5,196.9188,931.5,197.5318,921.6765,196.4357,911.8529,196.2666,902.0294,196.2974,892.2059,196.8599,882.3824,196.7223,872.5588,197.6002,862.7353,196.7441,852.9118,196.5757,843.0882,197.1471,833.2647,196.2519,823.4412,196.3997,813.6176,197.5677,803.7941,197.3545,793.9706,197.6533,784.1471,196.597,774.3235,197.238,764.5,196.9188,764.5753,197.1006,764.0862,196.6269,763.7807,196.5964,763.4554,196.5182,763.1689,196.5337,762.7322,196.1866,762.7309,196.186,762.7282,195.892,762.2688,195.4088,762.0843,195.0395,762.3015,194.8366,762,194.4188,761.2831,194.4188,762.509,185.2928,762.2066,176.1668,761.7321,167.0409,761.6462,157.9149,762,148.7889,762.1413,148.8475,762.0543,148.3972,762.4752,148.1573,762.2691,147.6578,762.7759,147.4535,762.7322,147.0212,762.794,147.1703,763.117,146.9502,763.4454,146.7428,763.8856,146.8056,764.2247,146.6244,764.5,146.2889" style="stroke:#181818;stroke-width:4.0;"/><text fill="#000000" font-family="Chalkduster" font-size="24" lengthAdjust="spacing" textLength="152" x="772" y="180.1298">Schema.org</text></g><!--entity JSON-LD--><g id="elem_JSON-LD"><polygon fill="none" points="602,146.2889,602,146.4991,612.1667,145.8746,622.3333,146.4822,632.5,146.6886,642.6667,145.5756,652.8333,146.2112,663,145.8625,673.1667,145.9055,683.3333,146.2208,693.5,145.5976,703.6667,146.8426,713.8333,145.6587,724,146.2889,723.9748,146.228,724.4087,146.5684,724.6962,146.5554,725.0694,146.7493,725.4101,146.8649,725.7678,147.0212,725.8227,147.044,725.9879,147.4052,726.241,147.803,726.4138,148.1674,726.5627,148.522,726.5,148.7889,726.7546,148.7889,726.9636,157.9149,727.2022,167.0409,725.7788,176.1668,727.1785,185.2928,726.5,194.4188,726.4087,194.381,726.5179,194.8404,726.0547,195.0627,726.0396,195.4707,726.1426,195.9276,725.7678,196.1866,725.7616,196.1715,725.4276,196.3654,725.1039,196.5837,724.7602,196.7541,724.3531,196.7711,724,196.9188,724,197.206,713.8333,196.3464,703.6667,197.2032,693.5,197.467,683.3333,197.3633,673.1667,197.5318,663,196.4357,652.8333,196.2666,642.6667,196.2974,632.5,196.8599,622.3333,196.7223,612.1667,197.6002,602,196.9188,601.9777,196.865,601.6027,196.6667,601.322,196.6962,600.8543,196.2741,600.5196,196.1731,600.2322,196.1866,600.4321,196.2693,600.22,195.8886,600.1655,195.5731,599.6938,195.0848,599.7447,194.8131,599.5,194.4188,600.0904,194.4188,599.0276,185.2928,599.4041,176.1668,599.626,167.0409,600.1518,157.9149,599.5,148.7889,599.4987,148.7884,599.7889,148.4944,599.6223,148.0112,599.7308,147.6419,600.2409,147.439,600.2322,147.0212,600.1408,146.8004,600.6507,147.0315,600.9657,146.7919,601.2587,146.4993,601.6013,146.3264,602,146.2889" style="stroke:#181818;stroke-width:4.0;"/><text fill="#000000" font-family="Chalkduster" font-size="24" lengthAdjust="spacing" textLength="107" x="609.5" y="180.1298">JSON-LD</text></g><!--entity DOI--><g id="elem_DOI"><polygon fill="none" points="348.5,146.2889,348.5,146.4991,359,145.8746,369.5,146.4822,380,146.6886,390.5,145.5756,401,146.2112,411.5,146.2889,411.4456,146.1576,411.8046,146.3173,412.1984,146.5609,412.4725,146.5154,412.9848,147.0452,413.2678,147.0212,413.0737,146.9408,413.3533,147.3495,413.6937,147.7834,413.6807,148.0709,413.8746,148.4441,414,148.7889,413.9681,148.7889,414.1785,157.9149,414.2391,167.0409,414.5857,176.1668,414.6711,185.2928,414,194.4188,414.2092,194.5054,413.932,194.8048,413.8499,195.185,413.7769,195.569,413.1921,195.741,413.2678,196.1866,413.3543,196.3955,412.8764,196.2417,412.6288,196.6438,412.144,196.4734,411.8448,196.7512,411.5,196.9188,411.5,197.6604,401,196.87,390.5,197.0241,380,197.2574,369.5,197.335,359,196.9149,348.5,196.9188,348.5366,197.0072,348.0734,196.5961,347.8292,196.7135,347.5093,196.6483,347.1425,196.4699,346.7322,196.1866,346.921,196.2647,346.437,195.7714,346.2385,195.3963,346.1015,195.0466,346.1283,194.7648,346,194.4188,345.8035,194.4188,346.6814,185.2928,345.8253,176.1668,345.6569,167.0409,346.2283,157.9149,346,148.7889,345.7946,148.7039,345.9866,148.3692,346.4927,148.1646,346.5735,147.7839,346.812,147.4684,346.7322,147.0212,346.6912,146.9221,347.1265,146.973,347.5147,146.9101,347.7326,146.4364,348.1342,146.4059,348.5,146.2889" style="stroke:#181818;stroke-width:4.0;"/><text fill="#000000" font-family="Chalkduster" font-size="24" lengthAdjust="spacing" textLength="48" x="356" y="180.1298">DOI</text></g><!--entity ARCP--><g id="elem_ARCP"><polygon fill="none" points="452,146.2889,452,146.4991,461.7778,145.8746,471.5556,146.4822,481.3333,146.6886,491.1111,145.5756,500.8889,146.2112,510.6667,145.8625,520.4444,145.9055,530.2222,146.2208,540,146.2889,539.9118,146.076,540.4242,146.6059,540.6267,146.3877,541.0354,146.6674,541.4693,147.0078,541.7678,147.0212,541.7414,147.0102,541.9352,147.3834,542.0508,147.7242,542.2621,148.1046,542.4272,148.4659,542.5,148.7889,543.0857,148.7889,543.1711,157.9149,543.1793,167.0409,542.7546,176.1668,542.9636,185.2928,542.5,194.4188,542.7163,194.5084,542.1315,194.6803,542.4161,195.2124,541.9693,195.4416,542.0786,195.9011,541.7678,196.1866,541.7046,196.0341,541.4055,196.3119,541.1553,196.7078,540.7009,196.6109,540.367,196.8048,540,196.9188,540,197.2574,530.2222,197.335,520.4444,196.9149,510.6667,197.206,500.8889,196.3464,491.1111,197.2032,481.3333,197.467,471.5556,197.3633,461.7778,197.5318,452,196.9188,451.9384,196.77,451.5633,196.5715,451.2136,196.4345,450.9318,196.4613,450.5607,196.2725,450.2322,196.1866,450.4421,196.2735,450.032,195.8107,449.8337,195.4357,449.8632,195.155,449.4411,194.6873,449.5,194.4188,448.9809,194.4188,450.149,185.2928,449.9357,176.1668,450.2345,167.0409,449.1782,157.9149,449.5,148.7889,449.5983,148.8297,449.8283,148.5107,449.6474,148.0216,449.9098,147.7161,450.1246,147.3908,450.2322,147.0212,450.3154,147.2219,450.5853,146.8734,450.9983,146.8707,451.2223,146.4113,451.5601,146.2268,452,146.2889" style="stroke:#181818;stroke-width:4.0;"/><text fill="#000000" font-family="Chalkduster" font-size="24" lengthAdjust="spacing" textLength="73" x="459.5" y="180.1298">ARCP</text></g><!--entity Managed URIs--><g id="elem_Managed URIs"><polygon fill="none" points="329.5,257.2889,329.5,257.4991,339.5476,256.8746,349.5952,257.4822,359.6429,257.6886,369.6905,256.5756,379.7381,257.2112,389.7857,256.8625,399.8333,256.9055,409.881,257.2208,419.9286,256.5976,429.9762,257.8426,440.0238,256.6587,450.0714,257.0912,460.119,257.7209,470.1667,257.2032,480.2143,257.3572,490.2619,257.257,500.3095,257.4675,510.3571,257.5281,520.4048,257.8746,530.4524,257.96,540.5,257.2889,540.5866,257.4981,540.886,257.5138,541.2662,257.7246,541.6502,257.9445,541.8222,257.6526,542.2678,258.0212,542.4767,258.1077,542.3229,258.3369,542.7251,258.7964,542.5547,259.0187,542.8325,259.4267,543,259.7889,543.7416,259.7889,542.9513,268.9149,543.1053,278.0409,543.3386,287.1668,543.4162,296.2928,543,305.4188,542.9988,305.4183,542.942,305.809,542.5308,306.0529,542.6482,306.5157,542.583,306.9029,542.2678,307.1866,542.3245,307.3234,541.9924,307.5218,541.499,307.3307,541.1239,307.425,540.7743,307.581,540.5,307.9188,540.5,307.8599,530.4524,307.7223,520.4048,308.6002,510.3571,307.7441,500.3095,307.5757,490.2619,308.1471,480.2143,307.2519,470.1667,307.3997,460.119,308.5677,450.0714,308.3545,440.0238,308.6533,429.9762,307.597,419.9286,308.238,409.881,308.5092,399.8333,307.4464,389.7857,307.8229,379.7381,308.0448,369.6905,308.5705,359.6429,307.9146,349.5952,308.3814,339.5476,307.365,329.5,307.9188,329.4136,307.7102,329.2107,307.9274,328.7014,307.4051,328.5043,307.6362,328.1121,307.3966,327.7322,307.1866,327.6497,307.1524,327.4768,306.7879,327.5806,306.538,327.2007,306.0877,327.3287,305.8478,327,305.4188,326.4473,305.4188,327.6174,296.2928,327.4843,287.1668,327.245,278.0409,327.0472,268.9149,327,259.7889,327.2238,259.8816,327.3354,259.5137,327.345,259.1034,327.5219,258.7625,327.5457,258.3581,327.7322,258.0212,327.8236,258.2418,328.1055,257.9224,328.4614,257.7814,328.7153,257.3945,329.0948,257.3106,329.5,257.2889" style="stroke:#181818;stroke-width:4.0;"/><text fill="#000000" font-family="Chalkduster" font-size="24" lengthAdjust="spacing" textLength="196" x="337" y="291.1298">Managed URIs</text></g><!--entity ldac--><g id="elem_ldac"><polygon fill="none" points="49.5,146.2889,49.5,146.4991,59.4545,145.8746,69.4091,146.4822,79.3636,146.6886,89.3182,145.5756,99.2727,146.2112,109.2273,145.8625,119.1818,145.9055,129.1364,146.2208,139.0909,145.5976,149.0455,146.8426,159,145.6587,168.9545,146.0912,178.9091,146.7209,188.8636,146.2032,198.8182,146.3572,208.7727,146.257,218.7273,146.4675,228.6818,146.5281,238.6364,146.8746,248.5909,146.96,258.5455,146.9682,268.5,146.2889,268.5325,146.3674,268.9127,146.5782,269.2967,146.7981,269.4687,146.5062,270.0008,147.0837,270.2678,147.0212,270.1765,146.9834,270.5786,147.4428,270.4082,147.6651,270.686,148.0731,271.0819,148.53,271,148.7889,270.9513,148.7889,271.1053,157.9149,271.3386,167.0409,271.4162,176.1668,270.9961,185.2928,271,194.4188,271.0885,194.4554,270.6773,194.6993,270.7947,195.1622,270.7295,195.5494,270.5511,195.8897,270.2678,196.1866,270.346,196.3753,269.8526,196.1842,269.4775,196.2786,269.1278,196.4345,268.846,196.7542,268.5,196.9188,268.5,196.7223,258.5455,197.6002,248.5909,196.7441,238.6364,196.5757,228.6818,197.1471,218.7273,196.2519,208.7727,196.3997,198.8182,197.5677,188.8636,197.3545,178.9091,197.6533,168.9545,196.597,159,197.238,149.0455,197.5092,139.0909,196.4464,129.1364,196.8229,119.1818,197.0448,109.2273,197.5705,99.2727,196.9146,89.3182,197.3814,79.3636,196.365,69.4091,196.2415,59.4545,197.4224,49.5,196.9188,49.4085,196.698,49.2114,196.9291,48.8193,196.6895,48.4052,196.3969,48.0407,196.224,47.7322,196.1866,47.8735,196.2451,47.4936,195.7948,47.6216,195.5549,47.1227,195.0554,47.3366,194.8511,47,194.4188,47.4843,194.4188,47.245,185.2928,47.0472,176.1668,47.7266,167.0409,47.6136,157.9149,47,148.7889,47.0521,148.8105,47.229,148.4696,47.2528,148.0652,47.66,147.8197,47.6335,147.3945,47.7322,147.0212,47.7542,147.0743,48.0082,146.6874,48.3876,146.6035,48.8606,146.7453,49.2013,146.5677,49.5,146.2889" style="stroke:#181818;stroke-width:4.0;"/><text fill="#000000" font-family="Chalkduster" font-size="24" lengthAdjust="spacing" textLength="204" x="57" y="180.1298">Language Data</text></g><!--entity wr--><g id="elem_wr"><polygon fill="none" points="53,257.2889,53,257.4991,63.0952,256.8746,73.1905,257.4822,83.2857,257.6886,93.381,256.5756,103.4762,257.2112,113.5714,256.8625,123.6667,256.9055,133.7619,257.2208,143.8571,256.5976,153.9524,257.8426,164.0476,256.6587,174.1429,257.0912,184.2381,257.7209,194.3333,257.2032,204.4286,257.3572,214.5238,257.257,224.619,257.4675,234.7143,257.5281,244.8095,257.8746,254.9048,257.96,265,257.2889,265.0866,257.4981,265.386,257.5138,265.7662,257.7246,266.1502,257.9445,266.3222,257.6526,266.7678,258.0212,266.9767,258.1077,266.8229,258.3369,267.2251,258.7964,267.0547,259.0187,267.3325,259.4267,267.5,259.7889,268.2416,259.7889,267.4513,268.9149,267.6053,278.0409,267.8386,287.1668,267.9162,296.2928,267.5,305.4188,267.4988,305.4183,267.442,305.809,267.0308,306.0529,267.1482,306.5157,267.083,306.9029,266.7678,307.1866,266.8245,307.3234,266.4924,307.5218,265.999,307.3307,265.6239,307.425,265.2743,307.581,265,307.9188,265,307.8599,254.9048,307.7223,244.8095,308.6002,234.7143,307.7441,224.619,307.5757,214.5238,308.1471,204.4286,307.2519,194.3333,307.3997,184.2381,308.5677,174.1429,308.3545,164.0476,308.6533,153.9524,307.597,143.8571,308.238,133.7619,308.5092,123.6667,307.4464,113.5714,307.8229,103.4762,308.0448,93.381,308.5705,83.2857,307.9146,73.1905,308.3814,63.0952,307.365,53,307.9188,52.9136,307.7102,52.7107,307.9274,52.2014,307.4051,52.0043,307.6362,51.6121,307.3966,51.2322,307.1866,51.1497,307.1524,50.9768,306.7879,51.0806,306.538,50.7007,306.0877,50.8287,305.8478,50.5,305.4188,49.9473,305.4188,51.1174,296.2928,50.9843,287.1668,50.745,278.0409,50.5472,268.9149,50.5,259.7889,50.7238,259.8816,50.8354,259.5137,50.845,259.1034,51.0219,258.7625,51.0457,258.3581,51.2322,258.0212,51.3236,258.2418,51.6055,257.9224,51.9614,257.7814,52.2153,257.3945,52.5948,257.3106,53,257.2889" style="stroke:#181818;stroke-width:4.0;"/><text fill="#000000" font-family="Chalkduster" font-size="24" lengthAdjust="spacing" textLength="197" x="60.5" y="291.1298">Workflow Run</text></g><!--link ldac to wr--><!--SRC=[TL31QiCm3BtxApJVdVr02Opcaj4j9QNiCCOGjfg6ElQm7T8oykzpqcPaMwQ3REazFVdvhZPIjuhU6pGNI99xXG55BB2YXamGFbmq9U4S66EEP41JQGA-YnU5JdaEgvMVYZI5JmOnnlI1yXHbW9U5M3iCn04zE7lZ335Nb4TgCB6kualmuwvu5fliYlNi5xhDi_YIINS6P4NE_tOVolLseVqqsbQmBtF_to9d3xMcsR8Vy2QUxU0vYzyusjKAvHBpnRhJGTiEojQCnCvzquOP4CfsvlLOAqNcJQGJthC-vYy0]--></g></svg>