<?xml version="1.0" encoding="UTF-8" standalone="no"?><svg xmlns="http://www.w3.org/2000/svg" xmlns:xlink="http://www.w3.org/1999/xlink" contentStyleType="text/css" height="751px" preserveAspectRatio="none" style="width:640px;height:751px;background:#FFFFFF;" version="1.1" viewBox="0 0 640 751" width="640px" zoomAndPan="magnify"><defs/><g><!--cluster Standards--><g id="cluster_Standards"><polygon fill="#ADD8E6" points="9.5,9.2889,9.5,9.4991,19.5323,8.8746,29.5645,9.4822,39.5968,9.6886,49.629,8.5756,59.6613,9.2112,69.6935,8.8625,79.7258,8.9055,89.7581,9.2208,99.7903,8.5976,109.8226,9.8426,119.8548,8.6587,129.8871,9.0912,139.9194,9.7209,149.9516,9.2032,159.9839,9.3572,170.0161,9.257,180.0484,9.4675,190.0806,9.5281,200.1129,9.8746,210.1452,9.96,220.1774,9.9682,230.2097,9.5436,240.2419,9.7525,250.2742,9.9912,260.3065,8.5678,270.3387,9.9675,280.371,8.9924,290.4032,9.8228,300.4355,8.7939,310.4677,9.2205,320.5,10.0306,330.5323,9.2402,340.5645,9.3943,350.5968,9.6276,360.629,9.7052,370.6613,9.285,380.6935,9.5762,390.7258,8.7165,400.7581,9.5733,410.7903,9.8371,420.8226,9.7335,430.8548,9.902,440.8871,8.8059,450.9194,8.6368,460.9516,8.6675,470.9839,9.2301,481.0161,9.0924,491.0484,9.9704,501.0806,9.1143,511.1129,8.9459,521.1452,9.5172,531.1774,8.6221,541.2097,8.7698,551.2419,9.9379,561.2742,9.7246,571.3065,10.0234,581.3387,8.9672,591.371,9.6081,601.4032,9.8794,611.4355,8.8165,621.4677,9.1931,631.5,9.2889,631.5161,9.3277,631.9367,9.6361,632.2066,9.5806,632.6197,9.8707,632.8436,9.7042,633.2678,10.0212,633.0592,9.9348,633.5693,10.439,633.3399,10.6368,633.8638,11.1468,633.9172,11.4618,634,11.7889,633.7321,11.7889,633.6462,21.8026,634.4588,31.8163,633.7007,41.83,634.5919,51.8437,633.4473,61.8574,634.6174,71.8711,634.4843,81.8848,634.245,91.8985,634.0472,101.9122,634.7266,111.9259,634.6136,121.9396,634.1693,131.9533,634.2682,141.967,633.8697,151.9807,634.7165,161.9944,634.1549,172.0081,634.1726,182.0218,633.3916,192.0355,633.5948,202.0492,634.5307,212.0629,634.4298,222.0766,633.9571,232.0903,633.6778,242.104,633.7811,252.1177,633.3138,262.1314,634.4147,272.1451,634.7396,282.1588,634.5264,292.1725,634.6949,302.1862,633.8633,312.1999,634.0872,322.2136,633.6124,332.2273,634.284,342.241,634.2468,352.2547,634.5524,362.2684,633.7703,372.2821,633.8656,382.2958,634.4435,392.3095,634.5673,402.3232,633.4875,412.3369,633.8061,422.3506,634.1493,432.3643,633.3892,442.378,634.3534,452.3917,634.258,462.4054,633.8992,472.4191,634.1422,482.4328,634.7287,492.4465,633.6871,502.4602,634.315,512.4739,634.2856,522.4876,634.1158,532.5013,634.1409,542.515,634.1135,552.5287,633.3758,562.5424,633.5992,572.5561,633.5385,582.5698,634.0638,592.5835,634.0881,602.5972,634.1617,612.6109,633.709,622.6246,633.9325,632.6383,633.8798,642.652,634.5769,652.6657,634.4266,662.6794,633.5145,672.6931,633.9271,682.7068,633.4228,692.7205,634.2884,702.7342,634.6085,712.7479,634.5446,722.7616,633.5644,732.7753,634,742.7889,634.1429,742.8481,633.6248,743.0477,633.7687,743.5216,633.4685,743.8114,633.444,744.2155,633.2678,744.5567,633.2984,744.6307,632.9744,744.8486,632.4688,744.6279,632.2678,745.1425,631.8763,745.1974,631.5,745.2889,631.5,745.6443,621.4677,746.0368,611.4355,745.2944,601.4032,745.4642,591.371,745.5024,581.3387,745.4862,571.3065,745.2881,561.2742,745.9997,551.2419,744.6792,541.2097,745.8542,531.1774,744.6649,521.1452,744.7486,511.1129,745.329,501.0806,745.3172,491.0484,744.7961,481.0161,745.7027,470.9839,745.3978,460.9516,746.0156,450.9194,745.9561,440.8871,744.8407,430.8548,744.891,420.8226,745.1598,410.7903,745.6445,400.7581,745.6919,390.7258,745.5901,380.6935,744.947,370.6613,745.9253,360.629,745.9227,350.5968,745.2417,340.5645,745.0499,330.5323,744.8876,320.5,745.0744,310.4677,745.4264,300.4355,745.2206,290.4032,744.8712,280.371,745.7763,270.3387,744.83,260.3065,745.7913,250.2742,745.7162,240.2419,745.6608,230.2097,745.9814,220.1774,745.0431,210.1452,744.9883,200.1129,745.8078,190.0806,744.6921,180.0484,745.055,170.0161,745.4044,159.9839,745.3576,149.9516,744.9305,139.9194,745.246,129.8871,746.0335,119.8548,745.9374,109.8226,744.6927,99.7903,745.3675,89.7581,744.775,79.7258,745.2626,69.6935,745.5819,59.6613,745.7088,49.629,744.6242,39.5968,745.6895,29.5645,745.2974,19.5323,744.7336,9.5,745.2889,9.4399,745.1439,9.1881,745.2431,8.8248,745.073,8.4372,744.8445,8.0001,744.4962,7.7322,744.5567,7.9349,744.6407,7.4898,744.1634,7.2767,743.7823,7.2722,743.4875,7.3281,743.2177,7,742.7889,7.6154,742.7889,7.0351,732.7753,6.8488,722.7616,7.1698,712.7479,7.1862,702.7342,6.4922,692.7205,7.414,682.7068,7.5588,672.6931,6.7842,662.6794,6.5708,652.6657,7.6746,642.652,7.021,632.6383,6.9998,622.6246,7.299,612.6109,6.3543,602.5972,7.53,592.5835,6.9846,582.5698,7.6688,572.5561,6.7841,562.5424,7.409,552.5287,6.556,542.515,7.245,532.5013,7.3793,522.4876,6.6727,512.4739,7.363,502.4602,6.4286,492.4465,6.5295,482.4328,7.6828,472.4191,7.6844,462.4054,7.5685,452.3917,6.6396,442.378,7.3842,432.3643,6.5279,422.3506,7.0582,412.3369,6.9987,402.3232,6.7376,392.3095,7.6159,382.2958,7.4433,372.2821,6.6792,362.2684,7.5266,352.2547,7.0919,342.241,6.4164,332.2273,6.7667,322.2136,6.4747,312.1999,6.8609,302.1862,6.371,292.1725,6.3998,282.1588,7.0703,272.1451,6.8796,262.1314,6.9414,252.1177,6.8568,242.104,7.1673,232.0903,6.4449,222.0766,7.1601,212.0629,6.2569,202.0492,7.296,192.0355,7.5928,182.0218,7.5221,172.0081,7.3613,161.9944,7.1922,151.9807,7.1057,141.967,6.36,131.9533,7.4465,121.9396,7.3296,111.9259,6.8466,101.9122,6.9942,91.8985,6.7914,81.8848,7.2177,71.8711,7.6805,61.8574,6.6461,51.8437,7.4689,41.83,6.9108,31.8163,6.6207,21.8026,7,11.7889,6.867,11.7339,6.9479,11.3532,7.1571,11.0256,7.4505,10.7329,7.6699,10.4096,7.7322,10.0212,7.8057,10.1986,8.1394,10.0041,8.3486,9.5092,8.8719,9.7725,9.2085,9.5851,9.5,9.2889" style="stroke:#181818;stroke-width:4.0;"/><text fill="#000000" font-family="Chalkduster" font-size="24" font-style="italic" lengthAdjust="spacing" textLength="170" x="235.5" y="35.1298">«standards»</text><text fill="#000000" font-family="Chalkduster" font-size="24" font-weight="bold" lengthAdjust="spacing" textLength="138" x="251.5" y="65.7597">Standards</text></g><!--cluster ro--><g id="cluster_ro"><path d="M202.5,409.2889 L202.5,409.8494 L212.2692,408.1841 L222.0385,409.8044 L231.8077,410.3548 L241.5769,407.3866 L251.3462,409.0817 L261.1154,408.1516 L270.8846,408.2663 L280.6538,409.1072 L290.4231,407.4453 L300.1923,410.7653 L309.9615,407.6082 L319.7308,408.7616 L329.5,409.2889 L332,411.7889 L332.3761,411.8661 L333.3253,418.5996 L334.8594,425.4531 L336.1722,432.2611 L337.7555,439.1247 L339,445.9188 L339,446.5565 L349.0192,447.4806 L359.0385,447.7083 L369.0577,447.7301 L379.0769,446.5978 L389.0962,447.155 L399.1154,447.7914 L409.1346,443.9956 L419.1538,447.7281 L429.1731,445.1281 L439.1923,447.3423 L449.2115,444.5987 L459.2308,445.7361 L469.25,447.8964 L479.2692,445.7888 L489.2885,446.1996 L499.3077,446.8218 L509.3269,447.0287 L519.3462,445.9084 L529.3654,446.6847 L539.3846,444.3923 L549.4038,446.6771 L559.4231,447.3806 L569.4423,447.1042 L579.4615,447.5535 L589.4808,444.6306 L599.5,445.9188 L602,448.4188 L600.2608,448.4188 L600.3429,458.4599 L601.843,468.501 L601.4759,478.5422 L603.8171,488.5833 L601.5342,498.6244 L601.0852,508.6656 L602.6087,518.7067 L600.2218,528.7478 L602,538.7889 L599.5,541.2889 L599.5,539.9046 L589.575,543.0195 L579.65,542.4507 L569.725,543.2476 L559.8,540.4308 L549.875,542.1401 L539.95,542.8634 L530.025,540.0292 L520.1,541.0333 L510.175,541.6249 L500.25,543.027 L490.325,541.2778 L480.4,542.5225 L470.475,539.8122 L460.55,539.4829 L450.625,542.6319 L440.7,539.3771 L430.775,542.6462 L420.85,541.84 L410.925,540.5745 L401,540.3456 L391.075,542.5123 L381.15,540.4907 L371.225,542.8672 L361.3,539.815 L351.375,542.9354 L341.45,542.5804 L331.525,541.9422 L321.6,541.4149 L311.675,543.2266 L301.75,542.9252 L291.825,541.7403 L281.9,542.0041 L271.975,540.9416 L262.05,543.1995 L252.125,541.7019 L242.2,541.7491 L232.275,539.6667 L222.35,540.2084 L212.425,542.7043 L202.5,541.2889 L200,538.7889 L201.146,538.7889 L199.8855,529.0197 L199.1409,519.2505 L199.4162,509.4813 L198.1702,499.712 L201.106,489.9428 L201.9722,480.1736 L201.4037,470.4043 L201.8532,460.6351 L199.6354,450.8659 L200.2326,441.0966 L198.9664,431.3274 L200.7574,421.5582 L200,411.7889 L202.5,409.2889 " fill="none" style="stroke:#000000;stroke-width:4.0;"/><path d="M200,445.9188 L200,446.199 L209.9286,445.3664 L219.8571,446.1765 L229.7857,446.4517 L239.7143,444.9676 L249.6429,445.8152 L259.5714,445.3501 L269.5,445.4075 L279.4286,445.8279 L289.3571,444.997 L299.2857,446.657 L309.2143,445.0784 L319.1429,445.6551 L329.0714,446.4947 L339,445.9188 " fill="none" style="stroke:#000000;stroke-width:4.0;"/><text fill="#000000" font-family="Chalkduster" font-size="24" font-weight="bold" lengthAdjust="spacing" textLength="126" x="204" y="435.1298">RO-Crate</text></g><!--cluster sstorage--><g id="cluster_sstorage"><polygon fill="none" points="202.5,581.2889,202.5,581.4991,212.6034,580.8746,222.7069,581.4822,232.8103,581.6886,242.9138,580.5756,253.0172,581.2112,263.1207,580.8625,273.2241,580.9055,283.3276,581.2208,293.431,580.5976,303.5345,581.8426,313.6379,580.6587,323.7414,581.0912,333.8448,581.7209,343.9483,581.2032,354.0517,581.3572,364.1552,581.257,374.2586,581.4675,384.3621,581.5281,394.4655,581.8746,404.569,581.96,414.6724,581.9682,424.7759,581.5436,434.8793,581.7525,444.9828,581.9912,455.0862,580.5678,465.1897,581.9675,475.2931,580.9924,485.3966,581.8228,495.5,581.2889,495.4369,581.1365,495.8448,581.4143,496.3017,581.8102,496.5544,581.7133,496.9276,581.9072,497.2678,582.0212,497.3721,582.0644,497.5424,582.4278,497.5595,582.7278,497.7956,583.1185,497.6773,583.3624,498,583.7889,498.2844,583.7889,498.5482,593.5582,498.4445,603.3274,498.613,613.0966,497.5169,622.8659,497.3478,632.6351,497.3786,642.4043,497.9411,652.1736,497.8035,661.9428,498.6814,671.712,497.8253,681.4813,497.6569,691.2505,498.2283,701.0197,498,710.7889,497.7946,710.7039,497.6937,711.0763,497.907,711.5788,497.6948,711.9052,497.6404,712.2969,497.2678,712.5567,497.2267,712.4576,496.9549,712.8015,496.636,713.0314,496.1468,712.8506,495.8413,713.113,495.5,713.2889,495.5,713.4149,485.3966,713.9407,475.2931,713.2848,465.1897,713.7515,455.0862,712.7352,444.9828,712.6117,434.8793,713.7926,424.7759,712.572,414.6724,713.7979,404.569,713.4956,394.4655,713.021,384.3621,712.9352,374.2586,713.7477,364.1552,712.9896,354.0517,713.8808,343.9483,712.7362,333.8448,713.9064,323.7414,713.7733,313.6379,713.5339,303.5345,713.3362,293.431,714.0156,283.3276,713.9025,273.2241,713.4582,263.1207,713.5571,253.0172,713.1587,242.9138,714.0054,232.8103,713.4438,222.7069,713.4615,212.6034,712.6806,202.5,713.2889,202.4483,713.1642,202.2141,713.306,201.8477,713.1284,201.4339,712.8364,201.0447,712.6039,200.7322,712.5567,200.6648,712.5288,200.3745,712.1156,200.5671,711.9025,200.5206,711.5904,200.3086,711.2097,200,710.7889,200.6949,710.7889,199.8633,701.0197,200.0872,691.2505,199.6124,681.4813,200.284,671.712,200.2468,661.9428,200.5524,652.1736,199.7703,642.4043,199.8656,632.6351,200.4435,622.8659,200.5673,613.0966,199.4875,603.3274,199.8061,593.5582,200,583.7889,200.046,583.808,199.9583,583.3575,200.4017,583.1269,200.5188,582.7612,200.5548,582.3619,200.7322,582.0212,200.7504,582.065,201.1787,582.0991,201.3994,581.6319,201.8331,581.6788,202.1829,581.5234,202.5,581.2889" style="stroke:#181818;stroke-width:4.0;"/><text fill="#000000" font-family="Chalkduster" font-size="24" font-weight="bold" lengthAdjust="spacing" textLength="101" x="298.5" y="607.1298">Storage</text></g><!--cluster PIDs--><g id="cluster_PIDs"><polygon fill="none" points="364.5,113.2889,364.5,113.4991,374.625,112.8746,384.75,113.4822,394.875,113.6886,405,112.5756,415.125,113.2112,425.25,112.8625,435.375,112.9055,445.5,113.2208,455.625,112.5976,465.75,113.8426,475.875,112.6587,486,113.0912,496.125,113.7209,506.25,113.2032,516.375,113.3572,526.5,113.257,536.625,113.4675,546.75,113.5281,556.875,113.8746,567,113.96,577.125,113.9682,587.25,113.5436,597.375,113.7525,607.5,113.2889,607.5896,113.5052,607.7616,113.2133,608.2937,113.7908,608.5228,113.637,608.9823,114.0391,609.2678,114.0212,609.1153,113.958,609.3931,114.366,609.789,114.8229,609.6921,115.0756,609.886,115.4488,610,115.7889,610.3386,115.7889,610.4162,125.8799,609.9961,135.9708,610.2872,146.0617,609.4276,156.1526,610.2844,166.2435,610.5482,176.3344,610.4445,186.4253,610.613,196.5162,609.5169,206.6071,609.3478,216.698,609.3786,226.7889,609.9411,236.8799,609.8035,246.9708,610.6814,257.0617,609.8253,267.1526,609.6569,277.2435,610.2283,287.3344,609.3332,297.4253,609.4809,307.5162,610.649,317.6071,610.4357,327.698,610,337.7889,610.2262,337.8826,609.7545,338.1015,609.8054,338.5368,609.7425,338.9249,609.2687,339.1429,609.2678,339.5567,609.2555,339.5272,608.9303,339.742,608.6438,340.0503,608.2066,339.9948,607.9126,340.285,607.5,340.2889,607.5,339.7352,597.375,339.6117,587.25,340.7926,577.125,339.572,567,340.7979,556.875,340.4956,546.75,340.021,536.625,339.9352,526.5,340.7477,516.375,339.9896,506.25,340.8808,496.125,339.7362,486,340.9064,475.875,340.7733,465.75,340.5339,455.625,340.3362,445.5,341.0156,435.375,340.9025,425.25,340.4582,415.125,340.5571,405,340.1587,394.875,341.0054,384.75,340.4438,374.625,340.4615,364.5,340.2889,364.4224,340.1016,364.0948,340.0177,363.8606,340.1595,363.4942,339.982,363.0803,339.6899,362.7322,339.5567,362.633,339.5156,362.5184,339.1752,362.228,338.7621,362.4206,338.549,362.3742,338.2368,362,337.7889,362.5264,337.7889,362.6949,327.698,361.8633,317.6071,362.0872,307.5162,361.6124,297.4253,362.284,287.3344,362.2468,277.2435,362.5524,267.1526,361.7703,257.0617,361.8656,246.9708,362.4435,236.8799,362.5673,226.7889,361.4875,216.698,361.8061,206.6071,362.1493,196.5162,361.3892,186.4253,362.3534,176.3344,362.258,166.2435,361.8992,156.1526,362.1422,146.0617,362.7287,135.9708,361.6871,125.8799,362,115.7889,362.097,115.8291,362.2344,115.4718,362.3285,115.0966,362.4827,114.7463,362.6207,114.3892,362.7322,114.0212,362.6526,113.829,363.0347,113.7513,363.3805,113.5862,363.801,113.6015,364.1577,113.4625,364.5,113.2889" style="stroke:#181818;stroke-width:4.0;"/><text fill="#000000" font-family="Chalkduster" font-size="24" font-weight="bold" lengthAdjust="spacing" textLength="60" x="456" y="139.1298">PIDs</text></g><!--cluster Profiles--><g id="cluster_Profiles"><polygon fill="none" points="41.5,105.2889,41.5,105.4991,51.3621,104.8746,61.2241,105.4822,71.0862,105.6886,80.9483,104.5756,90.8103,105.2112,100.6724,104.8625,110.5345,104.9055,120.3966,105.2208,130.2586,104.5976,140.1207,105.8426,149.9828,104.6587,159.8448,105.0912,169.7069,105.7209,179.569,105.2032,189.431,105.3572,199.2931,105.257,209.1552,105.4675,219.0172,105.5281,228.8793,105.8746,238.7414,105.96,248.6034,105.9682,258.4655,105.5436,268.3276,105.7525,278.1897,105.9912,288.0517,104.5678,297.9138,105.9675,307.7759,104.9924,317.6379,105.8228,327.5,105.2889,327.4369,105.1365,327.8448,105.4143,328.3017,105.8102,328.5544,105.7133,328.9276,105.9072,329.2678,106.0212,329.3721,106.0644,329.5424,106.4278,329.5595,106.7278,329.7956,107.1185,329.6773,107.3624,330,107.7889,330.2844,107.7889,330.5482,117.7056,330.4445,127.6223,330.613,137.5389,329.5169,147.4556,329.3478,157.3723,329.3786,167.2889,329.9411,177.2056,329.8035,187.1223,330.6814,197.0389,329.8253,206.9556,329.6569,216.8723,330.2283,226.7889,329.3332,236.7056,329.4809,246.6223,330.649,256.5389,330.4357,266.4556,330.7345,276.3723,329.6782,286.2889,330.3192,296.2056,330.5904,306.1223,329.5276,316.0389,329.9041,325.9556,330.126,335.8723,330,345.7889,330.2007,345.8721,329.8523,346.142,329.8496,346.5551,329.3901,346.779,329.2056,347.1168,329.2678,347.5567,329.332,347.7118,328.8228,347.4824,328.6256,348.0064,328.2335,348.0597,327.8194,348.06,327.5,348.2889,327.5,347.9352,317.6379,348.7477,307.7759,347.9896,297.9138,348.8808,288.0517,347.7362,278.1897,348.9064,268.3276,348.7733,258.4655,348.5339,248.6034,348.3362,238.7414,349.0156,228.8793,348.9025,219.0172,348.4582,209.1552,348.5571,199.2931,348.1587,189.431,349.0054,179.569,348.4438,169.7069,348.4615,159.8448,347.6806,149.9828,347.8837,140.1207,348.8197,130.2586,348.7187,120.3966,348.246,110.5345,347.9668,100.6724,348.07,90.8103,347.6028,80.9483,348.7037,71.0862,349.0285,61.2241,348.8153,51.3621,348.9839,41.5,348.2889,41.4826,348.2468,41.1576,348.1694,40.7435,347.8767,40.4756,347.9371,40.1173,347.7792,39.7322,347.5567,39.9023,347.6272,39.5151,347.1739,39.3979,346.8325,39.4295,346.5526,39.3212,346.2149,39,345.7889,38.4875,345.7889,38.8061,335.8723,39.1493,325.9556,38.3892,316.0389,39.3534,306.1223,39.258,296.2056,38.8992,286.2889,39.1422,276.3723,39.7287,266.4556,38.6871,256.5389,39.315,246.6223,39.2856,236.7056,39.1158,226.7889,39.1409,216.8723,39.1135,206.9556,38.3758,197.0389,38.5992,187.1223,38.5385,177.2056,39.0638,167.2889,39.0881,157.3723,39.1617,147.4556,38.709,137.5389,38.9325,127.6223,38.8798,117.7056,39,107.7889,39.1776,107.8625,39.2778,107.4898,39.1434,107.0199,39.4169,106.719,39.408,106.3011,39.7322,106.0212,39.769,106.11,40.1634,106.0621,40.5088,105.896,40.7373,105.4477,41.2056,105.5783,41.5,105.2889" style="stroke:#181818;stroke-width:4.0;"/><text fill="#000000" font-family="Chalkduster" font-size="24" font-weight="bold" lengthAdjust="spacing" textLength="107" x="131" y="131.1298">Profiles</text></g><!--entity Schema.org--><g id="elem_Schema.org"><polygon fill="none" points="408.5,466.2889,408.5,466.4991,418.3235,465.8746,428.1471,466.4822,437.9706,466.6886,447.7941,465.5756,457.6176,466.2112,467.4412,465.8625,477.2647,465.9055,487.0882,466.2208,496.9118,465.5976,506.7353,466.8426,516.5588,465.6587,526.3824,466.0912,536.2059,466.7209,546.0294,466.2032,555.8529,466.3572,565.6765,466.257,575.5,466.2889,575.5228,466.3439,575.8841,466.509,576.2818,466.7622,576.6463,466.9349,577.0009,467.0839,577.2678,467.0212,577.3462,467.0537,577.557,467.4339,577.7769,467.8179,577.485,467.9898,578.0625,468.5219,578,468.7889,577.7035,468.7889,578.5338,477.9149,577.505,487.0409,577.9315,496.1668,578.7416,505.2928,578,514.4188,577.985,514.4126,577.886,514.7858,577.8114,515.1691,577.6888,515.5325,577.413,515.8325,577.2678,516.1866,577.3044,516.275,576.8412,516.1567,576.5969,516.567,576.277,516.7947,575.9103,516.9092,575.5,516.9188,575.5,517.5318,565.6765,516.4357,555.8529,516.2666,546.0294,516.2974,536.2059,516.8599,526.3824,516.7223,516.5588,517.6002,506.7353,516.7441,496.9118,516.5757,487.0882,517.1471,477.2647,516.2519,467.4412,516.3997,457.6176,517.5677,447.7941,517.3545,437.9706,517.6533,428.1471,516.597,418.3235,517.238,408.5,516.9188,408.5753,517.1006,408.0862,516.6269,407.7807,516.5964,407.4554,516.5182,407.1689,516.5337,406.7322,516.1866,406.7309,516.186,406.7282,515.892,406.2688,515.4088,406.0843,515.0395,406.3015,514.8366,406,514.4188,405.2831,514.4188,406.509,505.2928,406.2066,496.1668,405.7321,487.0409,405.6462,477.9149,406,468.7889,406.1413,468.8475,406.0543,468.3972,406.4752,468.1573,406.2691,467.6578,406.7759,467.4535,406.7322,467.0212,406.794,467.1703,407.117,466.9502,407.4454,466.7428,407.8856,466.8056,408.2247,466.6244,408.5,466.2889" style="stroke:#181818;stroke-width:4.0;"/><text fill="#000000" font-family="Chalkduster" font-size="24" lengthAdjust="spacing" textLength="152" x="416" y="500.1298">Schema.org</text></g><!--entity JSON-LD--><g id="elem_JSON-LD"><polygon fill="none" points="246,466.2889,246,466.4991,256.1667,465.8746,266.3333,466.4822,276.5,466.6886,286.6667,465.5756,296.8333,466.2112,307,465.8625,317.1667,465.9055,327.3333,466.2208,337.5,465.5976,347.6667,466.8426,357.8333,465.6587,368,466.2889,367.9748,466.228,368.4087,466.5684,368.6962,466.5554,369.0694,466.7493,369.4101,466.8649,369.7678,467.0212,369.8227,467.044,369.9879,467.4052,370.241,467.803,370.4138,468.1674,370.5627,468.522,370.5,468.7889,370.7546,468.7889,370.9636,477.9149,371.2022,487.0409,369.7788,496.1668,371.1785,505.2928,370.5,514.4188,370.4087,514.381,370.5179,514.8404,370.0547,515.0627,370.0396,515.4707,370.1426,515.9276,369.7678,516.1866,369.7616,516.1715,369.4276,516.3654,369.1039,516.5837,368.7602,516.7541,368.3531,516.7711,368,516.9188,368,517.206,357.8333,516.3464,347.6667,517.2032,337.5,517.467,327.3333,517.3633,317.1667,517.5318,307,516.4357,296.8333,516.2666,286.6667,516.2974,276.5,516.8599,266.3333,516.7223,256.1667,517.6002,246,516.9188,245.9777,516.865,245.6027,516.6667,245.322,516.6962,244.8543,516.2741,244.5196,516.1731,244.2322,516.1866,244.4321,516.2693,244.22,515.8886,244.1655,515.5731,243.6938,515.0848,243.7447,514.8131,243.5,514.4188,244.0904,514.4188,243.0276,505.2928,243.4041,496.1668,243.626,487.0409,244.1518,477.9149,243.5,468.7889,243.4987,468.7884,243.7889,468.4944,243.6223,468.0112,243.7308,467.6419,244.2409,467.439,244.2322,467.0212,244.1408,466.8004,244.6507,467.0315,244.9657,466.7919,245.2587,466.4993,245.6013,466.3264,246,466.2889" style="stroke:#181818;stroke-width:4.0;"/><text fill="#000000" font-family="Chalkduster" font-size="24" lengthAdjust="spacing" textLength="107" x="253.5" y="500.1298">JSON-LD</text></g><!--entity OCFL--><g id="elem_OCFL"><polygon fill="none" points="246,638.2889,246,638.4991,256.5,637.8746,267,638.4822,277.5,638.6886,288,637.5756,298.5,638.2112,309,637.8625,319.5,637.9055,330,638.2889,329.9913,638.268,330.2654,638.2225,330.7777,638.7523,330.9803,638.5342,331.389,638.8138,331.7678,639.0212,331.9008,639.0763,331.8878,639.3638,332.0817,639.737,332.1973,640.0778,332.4085,640.4582,332.5,640.7889,332.7391,640.7889,333.0857,649.9149,333.1711,659.0409,333.1793,668.1668,332.7546,677.2928,332.5,686.4188,332.6428,686.4779,332.5698,686.8619,331.985,687.0339,332.2696,687.566,331.8229,687.7952,331.7678,688.1866,331.8359,688.3509,331.3511,688.1805,331.0519,688.4583,330.8017,688.8543,330.3473,688.7573,330,688.9188,330,689.0241,319.5,689.2574,309,689.335,298.5,688.9149,288,689.206,277.5,688.3464,267,689.2032,256.5,689.467,246,688.9188,246.0567,689.0557,245.7246,688.9611,245.2313,688.4771,244.8561,688.2786,244.5065,688.1416,244.2322,688.1866,244.2141,688.179,244.0253,687.8079,244.1492,687.5664,243.7391,687.1036,243.5408,686.7286,243.5,686.4188,243.7283,686.4188,242.8332,677.2928,242.9809,668.1668,244.149,659.0409,243.9357,649.9149,243.5,640.7889,243.7262,640.8826,243.5473,640.3943,243.8912,640.1226,244.1212,639.8036,243.9403,639.3145,244.2322,639.0212,244.22,638.9917,244.6019,638.9135,245.0225,638.929,245.2924,638.5806,245.7055,638.5778,246,638.2889" style="stroke:#181818;stroke-width:4.0;"/><text fill="#000000" font-family="Chalkduster" font-size="24" lengthAdjust="spacing" textLength="69" x="253.5" y="672.1298">OCFL</text></g><!--entity NOCFL--><g id="elem_NOCFL"><polygon fill="none" points="370.5,638.2889,370.5,638.4991,380.6,637.8746,390.7,638.4822,400.8,638.6886,410.9,637.5756,421,638.2112,431.1,637.8625,441.2,637.9055,451.3,638.2208,461.4,637.5976,471.5,638.2889,471.5706,638.4594,471.7732,638.2413,472.1819,638.5209,472.6158,638.8613,472.9033,638.8483,473.2678,639.0212,473.2888,639.0299,473.4044,639.3707,473.6156,639.7511,473.7808,640.1123,474.0339,640.5101,474,640.7889,474.6711,640.7889,474.6793,649.9149,474.2546,659.0409,474.4636,668.1668,474.7022,677.2928,474,686.4188,473.7779,686.3268,474.0625,686.8589,473.6158,687.0881,473.7251,687.5475,473.2618,687.7699,473.2678,688.1866,473.259,688.1655,473.0088,688.5614,472.5544,688.4644,472.2205,688.6583,471.8967,688.8766,471.5,688.9188,471.5,689.335,461.4,688.9149,451.3,689.206,441.2,688.3464,431.1,689.2032,421,689.467,410.9,689.3633,400.8,689.5318,390.7,688.4357,380.6,688.2666,370.5,688.9188,370.4207,688.7274,370.1389,688.7542,369.7678,688.5654,369.5263,688.6893,369.0635,688.2792,368.7322,688.1866,368.6266,688.1428,368.6561,687.8621,368.234,687.3944,368.133,687.0597,368.3463,686.8551,368,686.4188,368.4357,686.4188,368.7345,677.2928,367.6782,668.1668,368.3192,659.0409,368.5904,649.9149,368,640.7889,367.8545,640.7287,368.1169,640.4232,368.3317,640.0979,368.6401,639.8114,368.5845,639.3742,368.7322,639.0212,368.7912,639.1636,369.0151,638.7042,369.3529,638.5197,369.8571,638.7369,370.055,638.2146,370.5,638.2889" style="stroke:#181818;stroke-width:4.0;"/><text fill="#000000" font-family="Chalkduster" font-size="24" lengthAdjust="spacing" textLength="86" x="378" y="672.1298">NOCFL</text></g><!--entity DOI--><g id="elem_DOI"><polygon fill="none" points="399.5,162.2889,399.5,162.4991,410,161.8746,420.5,162.4822,431,162.6886,441.5,161.5756,452,162.2112,462.5,162.2889,462.4456,162.1576,462.8046,162.3173,463.1984,162.5609,463.4725,162.5154,463.9848,163.0452,464.2678,163.0212,464.0737,162.9408,464.3533,163.3495,464.6937,163.7834,464.6807,164.0709,464.8746,164.4441,465,164.7889,464.9681,164.7889,465.1785,173.9149,465.2391,183.0409,465.5857,192.1668,465.6711,201.2928,465,210.4188,465.2092,210.5054,464.932,210.8048,464.8499,211.185,464.7769,211.569,464.1921,211.741,464.2678,212.1866,464.3543,212.3955,463.8764,212.2417,463.6288,212.6438,463.144,212.4734,462.8448,212.7512,462.5,212.9188,462.5,213.6604,452,212.87,441.5,213.0241,431,213.2574,420.5,213.335,410,212.9149,399.5,212.9188,399.5366,213.0072,399.0734,212.5961,398.8292,212.7135,398.5093,212.6483,398.1425,212.4699,397.7322,212.1866,397.921,212.2647,397.437,211.7714,397.2385,211.3963,397.1015,211.0466,397.1283,210.7648,397,210.4188,396.8035,210.4188,397.6814,201.2928,396.8253,192.1668,396.6569,183.0409,397.2283,173.9149,397,164.7889,396.7946,164.7039,396.9866,164.3692,397.4927,164.1646,397.5735,163.7839,397.812,163.4684,397.7322,163.0212,397.6912,162.9221,398.1265,162.973,398.5147,162.9101,398.7326,162.4364,399.1342,162.4059,399.5,162.2889" style="stroke:#181818;stroke-width:4.0;"/><text fill="#000000" font-family="Chalkduster" font-size="24" lengthAdjust="spacing" textLength="48" x="407" y="196.1298">DOI</text></g><!--entity ARCP--><g id="elem_ARCP"><polygon fill="none" points="503,162.2889,503,162.4991,512.7778,161.8746,522.5556,162.4822,532.3333,162.6886,542.1111,161.5756,551.8889,162.2112,561.6667,161.8625,571.4444,161.9055,581.2222,162.2208,591,162.2889,590.9118,162.076,591.4242,162.6059,591.6267,162.3877,592.0354,162.6674,592.4693,163.0078,592.7678,163.0212,592.7414,163.0102,592.9352,163.3834,593.0508,163.7242,593.2621,164.1046,593.4272,164.4659,593.5,164.7889,594.0857,164.7889,594.1711,173.9149,594.1793,183.0409,593.7546,192.1668,593.9636,201.2928,593.5,210.4188,593.7163,210.5084,593.1315,210.6803,593.4161,211.2124,592.9693,211.4416,593.0786,211.9011,592.7678,212.1866,592.7046,212.0341,592.4055,212.3119,592.1553,212.7078,591.7009,212.6109,591.367,212.8048,591,212.9188,591,213.2574,581.2222,213.335,571.4444,212.9149,561.6667,213.206,551.8889,212.3464,542.1111,213.2032,532.3333,213.467,522.5556,213.3633,512.7778,213.5318,503,212.9188,502.9384,212.77,502.5633,212.5715,502.2136,212.4345,501.9318,212.4613,501.5607,212.2725,501.2322,212.1866,501.4421,212.2735,501.032,211.8107,500.8337,211.4357,500.8632,211.155,500.4411,210.6873,500.5,210.4188,499.9809,210.4188,501.149,201.2928,500.9357,192.1668,501.2345,183.0409,500.1782,173.9149,500.5,164.7889,500.5983,164.8297,500.8283,164.5107,500.6474,164.0216,500.9098,163.7161,501.1246,163.3908,501.2322,163.0212,501.3154,163.2219,501.5853,162.8734,501.9983,162.8707,502.2223,162.4113,502.5601,162.2268,503,162.2889" style="stroke:#181818;stroke-width:4.0;"/><text fill="#000000" font-family="Chalkduster" font-size="24" lengthAdjust="spacing" textLength="73" x="510.5" y="196.1298">ARCP</text></g><!--entity Managed URIs--><g id="elem_Managed URIs"><polygon fill="none" points="380.5,273.2889,380.5,273.4991,390.5476,272.8746,400.5952,273.4822,410.6429,273.6886,420.6905,272.5756,430.7381,273.2112,440.7857,272.8625,450.8333,272.9055,460.881,273.2208,470.9286,272.5976,480.9762,273.8426,491.0238,272.6587,501.0714,273.0912,511.119,273.7209,521.1667,273.2032,531.2143,273.3572,541.2619,273.257,551.3095,273.4675,561.3571,273.5281,571.4048,273.8746,581.4524,273.96,591.5,273.2889,591.5866,273.4981,591.886,273.5138,592.2662,273.7246,592.6502,273.9445,592.8222,273.6526,593.2678,274.0212,593.4767,274.1077,593.3229,274.3369,593.7251,274.7964,593.5547,275.0187,593.8325,275.4267,594,275.7889,594.7416,275.7889,593.9513,284.9149,594.1053,294.0409,594.3386,303.1668,594.4162,312.2928,594,321.4188,593.9988,321.4183,593.942,321.809,593.5308,322.0529,593.6482,322.5157,593.583,322.9029,593.2678,323.1866,593.3245,323.3234,592.9924,323.5218,592.499,323.3307,592.1239,323.425,591.7743,323.581,591.5,323.9188,591.5,323.8599,581.4524,323.7223,571.4048,324.6002,561.3571,323.7441,551.3095,323.5757,541.2619,324.1471,531.2143,323.2519,521.1667,323.3997,511.119,324.5677,501.0714,324.3545,491.0238,324.6533,480.9762,323.597,470.9286,324.238,460.881,324.5092,450.8333,323.4464,440.7857,323.8229,430.7381,324.0448,420.6905,324.5705,410.6429,323.9146,400.5952,324.3814,390.5476,323.365,380.5,323.9188,380.4136,323.7102,380.2107,323.9274,379.7014,323.4051,379.5043,323.6362,379.1121,323.3966,378.7322,323.1866,378.6497,323.1524,378.4768,322.7879,378.5806,322.538,378.2007,322.0877,378.3287,321.8478,378,321.4188,377.4473,321.4188,378.6174,312.2928,378.4843,303.1668,378.245,294.0409,378.0472,284.9149,378,275.7889,378.2238,275.8816,378.3354,275.5137,378.345,275.1034,378.5219,274.7625,378.5457,274.3581,378.7322,274.0212,378.8236,274.2418,379.1055,273.9224,379.4614,273.7814,379.7153,273.3945,380.0948,273.3106,380.5,273.2889" style="stroke:#181818;stroke-width:4.0;"/><text fill="#000000" font-family="Chalkduster" font-size="24" lengthAdjust="spacing" textLength="196" x="388" y="307.1298">Managed URIs</text></g><!--entity ldac--><g id="elem_ldac"><polygon fill="none" points="65.5,162.2889,65.5,162.4991,75.4545,161.8746,85.4091,162.4822,95.3636,162.6886,105.3182,161.5756,115.2727,162.2112,125.2273,161.8625,135.1818,161.9055,145.1364,162.2208,155.0909,161.5976,165.0455,162.8426,175,161.6587,184.9545,162.0912,194.9091,162.7209,204.8636,162.2032,214.8182,162.3572,224.7727,162.257,234.7273,162.4675,244.6818,162.5281,254.6364,162.8746,264.5909,162.96,274.5455,162.9682,284.5,162.2889,284.5325,162.3674,284.9127,162.5782,285.2967,162.7981,285.4687,162.5062,286.0008,163.0837,286.2678,163.0212,286.1765,162.9834,286.5786,163.4428,286.4082,163.6651,286.686,164.0731,287.0819,164.53,287,164.7889,286.9513,164.7889,287.1053,173.9149,287.3386,183.0409,287.4162,192.1668,286.9961,201.2928,287,210.4188,287.0885,210.4554,286.6773,210.6993,286.7947,211.1622,286.7295,211.5494,286.5511,211.8897,286.2678,212.1866,286.346,212.3753,285.8526,212.1842,285.4775,212.2786,285.1278,212.4345,284.846,212.7542,284.5,212.9188,284.5,212.7223,274.5455,213.6002,264.5909,212.7441,254.6364,212.5757,244.6818,213.1471,234.7273,212.2519,224.7727,212.3997,214.8182,213.5677,204.8636,213.3545,194.9091,213.6533,184.9545,212.597,175,213.238,165.0455,213.5092,155.0909,212.4464,145.1364,212.8229,135.1818,213.0448,125.2273,213.5705,115.2727,212.9146,105.3182,213.3814,95.3636,212.365,85.4091,212.2415,75.4545,213.4224,65.5,212.9188,65.4085,212.698,65.2114,212.9291,64.8193,212.6895,64.4052,212.3969,64.0407,212.224,63.7322,212.1866,63.8735,212.2451,63.4936,211.7948,63.6216,211.5549,63.1227,211.0554,63.3366,210.8511,63,210.4188,63.4843,210.4188,63.245,201.2928,63.0472,192.1668,63.7266,183.0409,63.6136,173.9149,63,164.7889,63.0521,164.8105,63.229,164.4696,63.2528,164.0652,63.66,163.8197,63.6335,163.3945,63.7322,163.0212,63.7542,163.0743,64.0082,162.6874,64.3876,162.6035,64.8606,162.7453,65.2013,162.5677,65.5,162.2889" style="stroke:#181818;stroke-width:4.0;"/><text fill="#000000" font-family="Chalkduster" font-size="24" lengthAdjust="spacing" textLength="204" x="73" y="196.1298">Language Data</text></g><!--entity wr--><g id="elem_wr"><polygon fill="none" points="69,273.2889,69,273.4991,79.0952,272.8746,89.1905,273.4822,99.2857,273.6886,109.381,272.5756,119.4762,273.2112,129.5714,272.8625,139.6667,272.9055,149.7619,273.2208,159.8571,272.5976,169.9524,273.8426,180.0476,272.6587,190.1429,273.0912,200.2381,273.7209,210.3333,273.2032,220.4286,273.3572,230.5238,273.257,240.619,273.4675,250.7143,273.5281,260.8095,273.8746,270.9048,273.96,281,273.2889,281.0866,273.4981,281.386,273.5138,281.7662,273.7246,282.1502,273.9445,282.3222,273.6526,282.7678,274.0212,282.9767,274.1077,282.8229,274.3369,283.2251,274.7964,283.0547,275.0187,283.3325,275.4267,283.5,275.7889,284.2416,275.7889,283.4513,284.9149,283.6053,294.0409,283.8386,303.1668,283.9162,312.2928,283.5,321.4188,283.4988,321.4183,283.442,321.809,283.0308,322.0529,283.1482,322.5157,283.083,322.9029,282.7678,323.1866,282.8245,323.3234,282.4924,323.5218,281.999,323.3307,281.6239,323.425,281.2743,323.581,281,323.9188,281,323.8599,270.9048,323.7223,260.8095,324.6002,250.7143,323.7441,240.619,323.5757,230.5238,324.1471,220.4286,323.2519,210.3333,323.3997,200.2381,324.5677,190.1429,324.3545,180.0476,324.6533,169.9524,323.597,159.8571,324.238,149.7619,324.5092,139.6667,323.4464,129.5714,323.8229,119.4762,324.0448,109.381,324.5705,99.2857,323.9146,89.1905,324.3814,79.0952,323.365,69,323.9188,68.9136,323.7102,68.7107,323.9274,68.2014,323.4051,68.0043,323.6362,67.6121,323.3966,67.2322,323.1866,67.1497,323.1524,66.9768,322.7879,67.0806,322.538,66.7007,322.0877,66.8287,321.8478,66.5,321.4188,65.9473,321.4188,67.1174,312.2928,66.9843,303.1668,66.745,294.0409,66.5472,284.9149,66.5,275.7889,66.7238,275.8816,66.8354,275.5137,66.845,275.1034,67.0219,274.7625,67.0457,274.3581,67.2322,274.0212,67.3236,274.2418,67.6055,273.9224,67.9614,273.7814,68.2153,273.3945,68.5948,273.3106,69,273.2889" style="stroke:#181818;stroke-width:4.0;"/><text fill="#000000" font-family="Chalkduster" font-size="24" lengthAdjust="spacing" textLength="197" x="76.5" y="307.1298">Workflow Run</text></g><!--link ldac to wr--><!--link Profiles to ro--><!--link ro to sstorage--><!--link OCFL to NOCFL--><!--SRC=[RP71QeGm48RlUOffxh4li0X5ALZikhYK7aef8ScgR4nA4h5ByTqROzswrHoCa-_F_3EJkqOnsN7nqL9rWIYwvzHHuWDQYLOeHwoxI16vBuSGCe8vgYef01_z3wU6MmoxdPs3E8Pl17w5poTbPvy6S5cGn50dC50BHlzgnhNCo6hHqaYR2c_XfsEn9tawiG6XrNMdZJSB5jPEmRPHaJpccnRxFp8Wc2mM-92bljivvGAaHORNfmzbSjWuVWwZvV1IPlRgzS_8w5CZnSBi1kT-xyRkKlzKeL_9ATjIlcfpFadTGzcf8EpDLJRU0S9rhzxgXdEXtaayywcYkGmWjpAlCtggMQyopACFV9md4DDKjLj8mfZHuFaF]--></g></svg>