<?xml version="1.0" encoding="UTF-8" standalone="no"?><svg xmlns="http://www.w3.org/2000/svg" xmlns:xlink="http://www.w3.org/1999/xlink" contentStyleType="text/css" height="751px" preserveAspectRatio="none" style="width:910px;height:751px;background:#FFFFFF;" version="1.1" viewBox="0 0 910 751" width="910px" zoomAndPan="magnify"><defs/><g><!--cluster Standards--><g id="cluster_Standards"><polygon fill="#E6E6FA" points="26.5,9.2889,26.5,9.4991,36.4432,8.8746,46.3864,9.4822,56.3295,9.6886,66.2727,8.5756,76.2159,9.2112,86.1591,8.8625,96.1023,8.9055,106.0455,9.2208,115.9886,8.5976,125.9318,9.8426,135.875,8.6587,145.8182,9.0912,155.7614,9.7209,165.7045,9.2032,175.6477,9.3572,185.5909,9.257,195.5341,9.4675,205.4773,9.5281,215.4205,9.8746,225.3636,9.96,235.3068,9.9682,245.25,9.5436,255.1932,9.7525,265.1364,9.9912,275.0795,8.5678,285.0227,9.9675,294.9659,8.9924,304.9091,9.8228,314.8523,8.7939,324.7955,9.2205,334.7386,10.0306,344.6818,9.2402,354.625,9.3943,364.5682,9.6276,374.5114,9.7052,384.4545,9.285,394.3977,9.5762,404.3409,8.7165,414.2841,9.5733,424.2273,9.8371,434.1705,9.7335,444.1136,9.902,454.0568,8.8059,464,8.6368,473.9432,8.6675,483.8864,9.2301,493.8295,9.0924,503.7727,9.9704,513.7159,9.1143,523.6591,8.9459,533.6023,9.5172,543.5455,8.6221,553.4886,8.7698,563.4318,9.9379,573.375,9.7246,583.3182,10.0234,593.2614,8.9672,603.2045,9.6081,613.1477,9.8794,623.0909,8.8165,633.0341,9.1931,642.9773,9.4149,652.9205,9.9407,662.8636,9.2848,672.8068,9.7515,682.75,8.7352,692.6932,8.6117,702.6364,9.7926,712.5795,8.572,722.5227,9.7979,732.4659,9.4956,742.4091,9.021,752.3523,8.9352,762.2955,9.7477,772.2386,8.9896,782.1818,9.8808,792.125,8.7362,802.0682,9.9064,812.0114,9.7733,821.9545,9.5339,831.8977,9.3362,841.8409,10.0156,851.7841,9.9025,861.7273,9.4582,871.6705,9.5571,881.6136,9.1587,891.5568,10.0054,901.5,9.2889,901.5198,9.3366,901.8756,9.4885,902.1295,9.3945,902.509,9.6035,902.9819,10.0382,903.2678,10.0212,903.4001,10.076,903.401,10.3693,903.4614,10.6872,903.6397,11.0539,903.6422,11.3479,904,11.7889,904.4147,11.7889,904.7396,21.8026,904.5264,31.8163,904.6949,41.83,903.8633,51.8437,904.0872,61.8574,903.6124,71.8711,904.284,81.8848,904.2468,91.8985,904.5524,101.9122,903.7703,111.9259,903.8656,121.9396,904.4435,131.9533,904.5673,141.967,903.4875,151.9807,903.8061,161.9944,904.1493,172.0081,903.3892,182.0218,904.3534,192.0355,904.258,202.0492,903.8992,212.0629,904.1422,222.0766,904.7287,232.0903,903.6871,242.104,904.315,252.1177,904.2856,262.1314,904.1158,272.1451,904.1409,282.1588,904.1135,292.1725,903.3758,302.1862,903.5992,312.1999,903.5385,322.2136,904.0638,332.2273,904.0881,342.241,904.1617,352.2547,903.709,362.2684,903.9325,372.2821,903.8798,382.2958,904.5769,392.3095,904.4266,402.3232,903.5145,412.3369,903.9271,422.3506,903.4228,432.3643,904.2884,442.378,904.6085,452.3917,904.5446,462.4054,903.5644,472.4191,904.464,482.4328,903.2572,492.4465,904.2002,502.4602,903.7007,512.4739,904.0967,522.4876,904.2403,532.5013,904.4721,542.515,903.2801,552.5287,904.4755,562.5424,904.1782,572.5561,904.3553,582.5698,904.7478,592.5835,904.0055,602.5972,904.1753,612.6109,904.2134,622.6246,904.1972,632.6383,903.9992,642.652,904.7107,652.6657,903.3903,662.6794,904.5653,672.6931,903.376,682.7068,903.4597,692.7205,904.04,702.7342,904.0283,712.7479,903.5072,722.7616,904.4137,732.7753,904,742.7889,904.0335,742.8028,904.0773,743.2352,903.9125,743.5812,903.4226,743.7924,903.2917,744.1524,903.2678,744.5567,903.2513,744.5169,902.9596,744.8127,902.6121,744.9737,902.2455,745.0888,901.8099,745.0372,901.5,745.2889,901.5,745.9253,891.5568,745.9227,881.6136,745.2417,871.6705,745.0499,861.7273,744.8876,851.7841,745.0744,841.8409,745.4264,831.8977,745.2206,821.9545,744.8712,812.0114,745.7763,802.0682,744.83,792.125,745.7913,782.1818,745.7162,772.2386,745.6608,762.2955,745.9814,752.3523,745.0431,742.4091,744.9883,732.4659,745.8078,722.5227,744.6921,712.5795,745.055,702.6364,745.4044,692.6932,745.3576,682.75,744.9305,672.8068,745.246,662.8636,746.0335,652.9205,745.9374,642.9773,744.6927,633.0341,745.3675,623.0909,744.775,613.1477,745.2626,603.2045,745.5819,593.2614,745.7088,583.3182,744.6242,573.375,745.6895,563.4318,745.2974,553.4886,744.7336,543.5455,744.8179,533.6023,745.6155,523.6591,745.5388,513.7159,745.2725,503.7727,744.6168,493.8295,745.9471,483.8864,744.9771,473.9432,744.7609,464,745.2216,454.0568,745.8787,444.1136,745.9044,434.1705,745.3241,424.2273,745.1378,414.2841,745.4587,404.3409,745.4752,394.3977,744.7812,384.4545,745.7029,374.5114,745.8478,364.5682,745.0732,354.625,744.8598,344.6818,745.9636,334.7386,745.31,324.7955,745.2888,314.8523,745.588,304.9091,744.6433,294.9659,745.8189,285.0227,745.2735,275.0795,745.9578,265.1364,745.0731,255.1932,745.6979,245.25,744.845,235.3068,745.534,225.3636,745.6682,215.4205,744.9616,205.4773,745.652,195.5341,744.7175,185.5909,744.8185,175.6477,745.9718,165.7045,745.9733,155.7614,745.8574,145.8182,744.9286,135.875,745.6732,125.9318,744.8169,115.9886,745.3471,106.0455,745.2877,96.1023,745.0265,86.1591,745.9049,76.2159,745.7322,66.2727,744.9682,56.3295,745.8156,46.3864,745.3808,36.4432,744.7054,26.5,745.2889,26.4702,745.2171,26.0794,744.9807,25.7752,744.9532,25.3591,744.6559,25.0092,744.5183,24.7322,744.5567,24.7539,744.5657,24.5487,744.1878,24.4213,743.8421,24.2488,743.4778,24.198,743.1638,24,742.7889,23.4449,742.7889,24.1601,732.7753,23.2569,722.7616,24.296,712.7479,24.5928,702.7342,24.5221,692.7205,24.3613,682.7068,24.1922,672.6931,24.1057,662.6794,23.36,652.6657,24.4465,642.652,24.3296,632.6383,23.8466,622.6246,23.9942,612.6109,23.7914,602.5972,24.2177,592.5835,24.6805,582.5698,23.6461,572.5561,24.4689,562.5424,23.9108,552.5287,23.6207,542.515,23.5681,532.5013,23.3553,522.4876,23.5591,512.4739,24.0363,502.4602,24.273,492.4465,24.5762,482.4328,24.4201,472.4191,23.2886,462.4054,24.619,452.3917,24.4861,442.378,24.5407,432.3643,24.5219,422.3506,23.3409,412.3369,23.7423,402.3232,24.316,392.3095,23.5185,382.2958,23.8971,372.2821,24.067,362.2684,24.3261,352.2547,24.0458,342.241,24.7447,332.2273,24.4114,322.2136,24.2561,312.1999,23.4601,302.1862,24.3388,292.1725,23.4255,282.1588,24.3057,272.1451,24.0078,262.1314,24.2995,252.1177,23.9126,242.104,23.8039,232.0903,23.2591,222.0766,23.7856,212.0629,23.2951,202.0492,23.7539,192.0355,24.4379,182.0218,24.1607,172.0081,23.5485,161.9944,24.2458,151.9807,24.0656,141.967,24.5433,131.9533,24.5649,121.9396,24.0937,111.9259,23.821,101.9122,23.7855,91.8985,23.9936,81.8848,24.6691,71.8711,23.3263,61.8574,23.8361,51.8437,24.2668,41.83,24.7317,31.8163,24.2119,21.8026,24,11.7889,23.939,11.7637,23.9192,11.3413,24.1624,11.0278,24.371,10.7,24.6904,10.4181,24.7322,10.0212,24.7794,10.135,25.0924,9.8907,25.4224,9.6873,25.7011,9.3602,26.1629,9.4751,26.5,9.2889" style="stroke:#181818;stroke-width:4.0;"/><text fill="#000000" font-family="Chalkduster" font-size="24" font-style="italic" lengthAdjust="spacing" textLength="170" x="379" y="35.1298">«standards»</text><text fill="#000000" font-family="Chalkduster" font-size="24" font-weight="bold" lengthAdjust="spacing" textLength="138" x="395" y="65.7597">Standards</text></g><!--cluster ro--><g id="cluster_ro"><path d="M79.5,409.2889 L79.5,409.8494 L89.2692,408.1841 L99.0385,409.8044 L108.8077,410.3548 L118.5769,407.3866 L128.3462,409.0817 L138.1154,408.1516 L147.8846,408.2663 L157.6538,409.1072 L167.4231,407.4453 L177.1923,410.7653 L186.9615,407.6082 L196.7308,408.7616 L206.5,409.2889 L209,411.7889 L209.3761,411.8661 L210.3253,418.5996 L211.8594,425.4531 L213.1722,432.2611 L214.7555,439.1247 L216,445.9188 L216,446.5565 L226.0192,447.4806 L236.0385,447.7083 L246.0577,447.7301 L256.0769,446.5978 L266.0962,447.155 L276.1154,447.7914 L286.1346,443.9956 L296.1538,447.7281 L306.1731,445.1281 L316.1923,447.3423 L326.2115,444.5987 L336.2308,445.7361 L346.25,447.8964 L356.2692,445.7888 L366.2885,446.1996 L376.3077,446.8218 L386.3269,447.0287 L396.3462,445.9084 L406.3654,446.6847 L416.3846,444.3923 L426.4038,446.6771 L436.4231,447.3806 L446.4423,447.1042 L456.4615,447.5535 L466.4808,444.6306 L476.5,445.9188 L479,448.4188 L477.2608,448.4188 L477.3429,458.4599 L478.843,468.501 L478.4759,478.5422 L480.8171,488.5833 L478.5342,498.6244 L478.0852,508.6656 L479.6087,518.7067 L477.2218,528.7478 L479,538.7889 L476.5,541.2889 L476.5,539.9046 L466.575,543.0195 L456.65,542.4507 L446.725,543.2476 L436.8,540.4308 L426.875,542.1401 L416.95,542.8634 L407.025,540.0292 L397.1,541.0333 L387.175,541.6249 L377.25,543.027 L367.325,541.2778 L357.4,542.5225 L347.475,539.8122 L337.55,539.4829 L327.625,542.6319 L317.7,539.3771 L307.775,542.6462 L297.85,541.84 L287.925,540.5745 L278,540.3456 L268.075,542.5123 L258.15,540.4907 L248.225,542.8672 L238.3,539.815 L228.375,542.9354 L218.45,542.5804 L208.525,541.9422 L198.6,541.4149 L188.675,543.2266 L178.75,542.9252 L168.825,541.7403 L158.9,542.0041 L148.975,540.9416 L139.05,543.1995 L129.125,541.7019 L119.2,541.7491 L109.275,539.6667 L99.35,540.2084 L89.425,542.7043 L79.5,541.2889 L77,538.7889 L78.146,538.7889 L76.8855,529.0197 L76.1409,519.2505 L76.4162,509.4813 L75.1702,499.712 L78.106,489.9428 L78.9722,480.1736 L78.4037,470.4043 L78.8532,460.6351 L76.6354,450.8659 L77.2326,441.0966 L75.9664,431.3274 L77.7574,421.5582 L77,411.7889 L79.5,409.2889 " fill="none" style="stroke:#000000;stroke-width:4.0;"/><path d="M77,445.9188 L77,446.199 L86.9286,445.3664 L96.8571,446.1765 L106.7857,446.4517 L116.7143,444.9676 L126.6429,445.8152 L136.5714,445.3501 L146.5,445.4075 L156.4286,445.8279 L166.3571,444.997 L176.2857,446.657 L186.2143,445.0784 L196.1429,445.6551 L206.0714,446.4947 L216,445.9188 " fill="none" style="stroke:#000000;stroke-width:4.0;"/><text fill="#000000" font-family="Chalkduster" font-size="24" font-weight="bold" lengthAdjust="spacing" textLength="126" x="81" y="435.1298">RO-Crate</text></g><!--cluster sstorage--><g id="cluster_sstorage"><polygon fill="none" points="85.5,581.2889,85.5,581.4991,95.6579,580.8746,105.8158,581.4822,115.9737,581.6886,126.1316,580.5756,136.2895,581.2112,146.4474,580.8625,156.6053,580.9055,166.7632,581.2208,176.9211,580.5976,187.0789,581.8426,197.2368,580.6587,207.3947,581.0912,217.5526,581.7209,227.7105,581.2032,237.8684,581.3572,248.0263,581.257,258.1842,581.4675,268.3421,581.5281,278.5,581.2889,278.5747,581.4693,278.9392,581.6421,279.2938,581.791,279.5931,581.8067,279.9733,582.0175,280.2678,582.0212,280.484,582.1108,280.1921,582.2827,280.7696,582.8148,280.6158,583.044,281.0179,583.5035,281,583.7889,280.505,583.7889,280.9315,593.5582,281.7416,603.3274,280.9513,613.0966,281.1053,622.8659,281.3386,632.6351,281.4162,642.4043,280.9961,652.1736,281.2872,661.9428,280.4276,671.712,281.2844,681.4813,281.5482,691.2505,281.4445,701.0197,281,710.7889,281.1888,710.8671,280.7048,711.0809,280.5063,711.4129,280.3693,711.7703,280.3961,712.1957,280.2678,712.5567,280.2427,712.4962,280.0011,712.913,279.5384,712.7958,279.1633,712.8904,278.8827,713.2128,278.5,713.2889,278.5,712.6221,268.3421,712.7698,258.1842,713.9379,248.0263,713.7246,237.8684,714.0234,227.7105,712.9672,217.5526,713.6081,207.3947,713.8794,197.2368,712.8165,187.0789,713.1931,176.9211,713.4149,166.7632,713.9407,156.6053,713.2848,146.4474,713.7515,136.2895,712.7352,126.1316,712.6117,115.9737,713.7926,105.8158,712.572,95.6579,713.7979,85.5,713.2889,85.5264,713.3526,85.1123,713.06,84.7478,712.8871,84.4979,712.9909,84.0476,712.611,83.7322,712.5567,83.9145,712.6322,83.4156,712.1327,83.6295,711.9284,83.442,711.5578,83.2219,711.1738,83,710.7889,83.0472,710.7889,83.7266,701.0197,83.6136,691.2505,83.1693,681.4813,83.2682,671.712,82.8697,661.9428,83.7165,652.1736,83.1549,642.4043,83.1726,632.6351,82.3916,622.8659,82.5948,613.0966,83.5307,603.3274,83.4298,593.5582,83,583.7889,82.9868,583.7835,83.0472,583.3943,83.2255,583.0539,83.228,582.6408,83.7135,582.4276,83.7322,582.0212,83.8266,582.2489,84.1529,582.0368,84.528,581.9423,84.7755,581.5397,85.1576,581.4623,85.5,581.2889" style="stroke:#181818;stroke-width:4.0;"/><text fill="#000000" font-family="Chalkduster" font-size="24" font-weight="bold" lengthAdjust="spacing" textLength="182" x="91" y="607.1298">Storage Specs</text></g><!--cluster PIDs--><g id="cluster_PIDs"><polygon fill="none" points="634.5,113.2889,634.5,113.4991,644.625,112.8746,654.75,113.4822,664.875,113.6886,675,112.5756,685.125,113.2112,695.25,112.8625,705.375,112.9055,715.5,113.2208,725.625,112.5976,735.75,113.8426,745.875,112.6587,756,113.0912,766.125,113.7209,776.25,113.2032,786.375,113.3572,796.5,113.257,806.625,113.4675,816.75,113.5281,826.875,113.8746,837,113.96,847.125,113.9682,857.25,113.5436,867.375,113.7525,877.5,113.2889,877.5896,113.5052,877.7616,113.2133,878.2937,113.7908,878.5228,113.637,878.9823,114.0391,879.2678,114.0212,879.1153,113.958,879.3931,114.366,879.789,114.8229,879.6921,115.0756,879.886,115.4488,880,115.7889,880.3386,115.7889,880.4162,125.8799,879.9961,135.9708,880.2872,146.0617,879.4276,156.1526,880.2844,166.2435,880.5482,176.3344,880.4445,186.4253,880.613,196.5162,879.5169,206.6071,879.3478,216.698,879.3786,226.7889,879.9411,236.8799,879.8035,246.9708,880.6814,257.0617,879.8253,267.1526,879.6569,277.2435,880.2283,287.3344,879.3332,297.4253,879.4809,307.5162,880.649,317.6071,880.4357,327.698,880,337.7889,880.2262,337.8826,879.7545,338.1015,879.8054,338.5368,879.7425,338.9249,879.2687,339.1429,879.2678,339.5567,879.2555,339.5272,878.9303,339.742,878.6438,340.0503,878.2066,339.9948,877.9126,340.285,877.5,340.2889,877.5,339.7352,867.375,339.6117,857.25,340.7926,847.125,339.572,837,340.7979,826.875,340.4956,816.75,340.021,806.625,339.9352,796.5,340.7477,786.375,339.9896,776.25,340.8808,766.125,339.7362,756,340.9064,745.875,340.7733,735.75,340.5339,725.625,340.3362,715.5,341.0156,705.375,340.9025,695.25,340.4582,685.125,340.5571,675,340.1587,664.875,341.0054,654.75,340.4438,644.625,340.4615,634.5,340.2889,634.4224,340.1016,634.0948,340.0177,633.8606,340.1595,633.4942,339.982,633.0803,339.6899,632.7322,339.5567,632.633,339.5156,632.5184,339.1752,632.228,338.7621,632.4206,338.549,632.3742,338.2368,632,337.7889,632.5264,337.7889,632.6949,327.698,631.8633,317.6071,632.0872,307.5162,631.6124,297.4253,632.284,287.3344,632.2468,277.2435,632.5524,267.1526,631.7703,257.0617,631.8656,246.9708,632.4435,236.8799,632.5673,226.7889,631.4875,216.698,631.8061,206.6071,632.1493,196.5162,631.3892,186.4253,632.3534,176.3344,632.258,166.2435,631.8992,156.1526,632.1422,146.0617,632.7287,135.9708,631.6871,125.8799,632,115.7889,632.097,115.8291,632.2344,115.4718,632.3285,115.0966,632.4827,114.7463,632.6207,114.3892,632.7322,114.0212,632.6526,113.829,633.0347,113.7513,633.3805,113.5862,633.801,113.6015,634.1577,113.4625,634.5,113.2889" style="stroke:#181818;stroke-width:4.0;"/><text fill="#000000" font-family="Chalkduster" font-size="24" font-weight="bold" lengthAdjust="spacing" textLength="60" x="726" y="139.1298">PIDs</text></g><!--cluster Profiles--><g id="cluster_Profiles"><polygon fill="none" points="58.5,105.2889,58.5,105.4991,68.4815,104.8746,78.463,105.4822,88.4444,105.6886,98.4259,104.5756,108.4074,105.2112,118.3889,104.8625,128.3704,104.9055,138.3519,105.2208,148.3333,104.5976,158.3148,105.8426,168.2963,104.6587,178.2778,105.0912,188.2593,105.7209,198.2407,105.2032,208.2222,105.3572,218.2037,105.257,228.1852,105.4675,238.1667,105.5281,248.1481,105.8746,258.1296,105.96,268.1111,105.9682,278.0926,105.5436,288.0741,105.7525,298.0556,105.9912,308.037,104.5678,318.0185,105.9675,328,104.9924,337.9815,105.8228,347.963,104.7939,357.9444,105.2205,367.9259,106.0306,377.9074,105.2402,387.8889,105.3943,397.8704,105.6276,407.8519,105.7052,417.8333,105.285,427.8148,105.5762,437.7963,104.7165,447.7778,105.5733,457.7593,105.8371,467.7407,105.7335,477.7222,105.902,487.7037,104.8059,497.6852,104.6368,507.6667,104.6675,517.6481,105.2301,527.6296,105.0924,537.6111,105.9704,547.5926,105.1143,557.5741,104.9459,567.5556,105.5172,577.537,104.6221,587.5185,104.7698,597.5,105.2889,597.5828,105.4888,597.9091,105.5696,598.3008,105.808,598.5196,105.6292,598.9549,105.973,599.2678,106.0212,599.4496,106.0965,599.2687,106.3145,599.5311,106.7161,599.7459,107.0979,600.0543,107.5185,600,107.7889,599.9958,107.7889,600.4626,117.5582,599.4462,127.3274,599.3227,137.0966,600.5036,146.8659,599.2831,156.6351,600.509,166.4043,600.2066,176.1736,599.7321,185.9428,599.6462,195.712,600.4588,205.4813,599.7007,215.2505,600.5919,225.0197,600,234.7889,599.8298,234.7184,600.0437,235.2213,599.8563,235.5578,599.6361,235.8809,599.4288,236.2092,599.2678,236.5567,599.3605,236.7805,598.9925,236.8921,598.5823,236.9017,598.2413,237.0786,597.8369,237.1024,597.5,237.2889,597.5,238.0054,587.5185,237.4438,577.537,237.4615,567.5556,236.6806,557.5741,236.8837,547.5926,237.8197,537.6111,237.7187,527.6296,237.246,517.6481,236.9668,507.6667,237.07,497.6852,236.6028,487.7037,237.7037,477.7222,238.0285,467.7407,237.8153,457.7593,237.9839,447.7778,237.1522,437.7963,237.3762,427.8148,236.9014,417.8333,237.573,407.8519,237.5357,397.8704,237.8413,387.8889,237.0593,377.9074,237.1545,367.9259,237.7324,357.9444,237.8563,347.963,236.7764,337.9815,237.0951,328,237.4382,318.0185,236.6781,308.037,237.6423,298.0556,237.5469,288.0741,237.1882,278.0926,237.4312,268.1111,238.0176,258.1296,236.9761,248.1481,237.6039,238.1667,237.5746,228.1852,237.4047,218.2037,237.4299,208.2222,237.4024,198.2407,236.6648,188.2593,236.8881,178.2778,236.8274,168.2963,237.3528,158.3148,237.3771,148.3333,237.4507,138.3519,236.998,128.3704,237.2214,118.3889,237.1687,108.4074,237.8658,98.4259,237.7155,88.4444,236.8034,78.463,237.216,68.4815,236.7117,58.5,237.2889,58.5368,237.3778,58.2241,237.3299,57.8624,237.1638,57.3838,236.7155,57.145,236.846,56.7322,236.5567,56.5035,236.462,56.6474,236.2287,56.3472,235.8114,56.3227,235.5084,56.2205,235.1732,56,234.7889,56.4721,234.7889,55.2801,225.0197,56.4755,215.2505,56.1782,205.4813,56.3553,195.712,56.7478,185.9428,56.0055,176.1736,56.1753,166.4043,56.2134,156.6351,56.1972,146.8659,55.9992,137.0966,56.7107,127.3274,55.3903,117.5582,56,107.7889,56.1741,107.8611,55.9543,107.3558,56.1265,107.0129,56.4517,106.7334,56.5945,106.3783,56.7322,106.0212,56.6694,105.8694,57.1386,106.0021,57.4532,105.7618,57.8856,105.8056,58.2315,105.6408,58.5,105.2889" style="stroke:#181818;stroke-width:4.0;"/><text fill="#000000" font-family="Chalkduster" font-size="24" font-weight="bold" lengthAdjust="spacing" textLength="237" x="209.5" y="131.1298">Profiles &amp; Policy</text></g><!--entity NOCFL--><g id="elem_NOCFL"><polygon fill="#F1F1F1" points="57.0442,665.7349,55.8715,667.3372,54.4845,669.684,52.5008,671.2656,50.4163,672.1305,48.7542,672.2055,46.618,671.1239,44.6023,670.4173,43.0724,668.9825,42.2699,667.3401,41.7939,666.0322,41.3277,664.324,40.5709,662.854,41.1525,661.4188,41.662,659.8466,43.574,658.6031,44.9192,656.9897,46.5843,656.454,48.5637,655.9926,51.1021,656.2667,52.4924,656.9224,54.1089,657.2196,56.0743,659.2333,56.7595,661.3591,57.0571,662.8096,56.72,665.1998" style="stroke:#181818;stroke-width:0.5;"/><text fill="#000000" font-family="Chalkduster" font-size="24" lengthAdjust="spacing" textLength="86" x="6" y="704.6298">NOCFL</text></g><!--entity Schema.org--><g id="elem_Schema.org"><polygon fill="none" points="285.5,466.2889,285.5,466.4991,295.3235,465.8746,305.1471,466.4822,314.9706,466.6886,324.7941,465.5756,334.6176,466.2112,344.4412,465.8625,354.2647,465.9055,364.0882,466.2208,373.9118,465.5976,383.7353,466.8426,393.5588,465.6587,403.3824,466.0912,413.2059,466.7209,423.0294,466.2032,432.8529,466.3572,442.6765,466.257,452.5,466.2889,452.5228,466.3439,452.8841,466.509,453.2818,466.7622,453.6463,466.9349,454.0009,467.0839,454.2678,467.0212,454.3462,467.0537,454.557,467.4339,454.7769,467.8179,454.485,467.9898,455.0625,468.5219,455,468.7889,454.7035,468.7889,455.5338,477.9149,454.505,487.0409,454.9315,496.1668,455.7416,505.2928,455,514.4188,454.985,514.4126,454.886,514.7858,454.8114,515.1691,454.6888,515.5325,454.413,515.8325,454.2678,516.1866,454.3044,516.275,453.8412,516.1567,453.5969,516.567,453.277,516.7947,452.9103,516.9092,452.5,516.9188,452.5,517.5318,442.6765,516.4357,432.8529,516.2666,423.0294,516.2974,413.2059,516.8599,403.3824,516.7223,393.5588,517.6002,383.7353,516.7441,373.9118,516.5757,364.0882,517.1471,354.2647,516.2519,344.4412,516.3997,334.6176,517.5677,324.7941,517.3545,314.9706,517.6533,305.1471,516.597,295.3235,517.238,285.5,516.9188,285.5753,517.1006,285.0862,516.6269,284.7807,516.5964,284.4554,516.5182,284.1689,516.5337,283.7322,516.1866,283.7309,516.186,283.7282,515.892,283.2688,515.4088,283.0843,515.0395,283.3015,514.8366,283,514.4188,282.2831,514.4188,283.509,505.2928,283.2066,496.1668,282.7321,487.0409,282.6462,477.9149,283,468.7889,283.1413,468.8475,283.0543,468.3972,283.4752,468.1573,283.2691,467.6578,283.7759,467.4535,283.7322,467.0212,283.794,467.1703,284.117,466.9502,284.4454,466.7428,284.8856,466.8056,285.2247,466.6244,285.5,466.2889" style="stroke:#181818;stroke-width:4.0;"/><text fill="#000000" font-family="Chalkduster" font-size="24" lengthAdjust="spacing" textLength="152" x="293" y="500.1298">Schema.org</text></g><!--entity JSON-LD--><g id="elem_JSON-LD"><polygon fill="none" points="123,466.2889,123,466.4991,133.1667,465.8746,143.3333,466.4822,153.5,466.6886,163.6667,465.5756,173.8333,466.2112,184,465.8625,194.1667,465.9055,204.3333,466.2208,214.5,465.5976,224.6667,466.8426,234.8333,465.6587,245,466.2889,244.9748,466.228,245.4087,466.5684,245.6962,466.5554,246.0694,466.7493,246.4101,466.8649,246.7678,467.0212,246.8227,467.044,246.9879,467.4052,247.241,467.803,247.4138,468.1674,247.5627,468.522,247.5,468.7889,247.7546,468.7889,247.9636,477.9149,248.2022,487.0409,246.7788,496.1668,248.1785,505.2928,247.5,514.4188,247.4087,514.381,247.5179,514.8404,247.0547,515.0627,247.0396,515.4707,247.1426,515.9276,246.7678,516.1866,246.7616,516.1715,246.4276,516.3654,246.1039,516.5837,245.7602,516.7541,245.3531,516.7711,245,516.9188,245,517.206,234.8333,516.3464,224.6667,517.2032,214.5,517.467,204.3333,517.3633,194.1667,517.5318,184,516.4357,173.8333,516.2666,163.6667,516.2974,153.5,516.8599,143.3333,516.7223,133.1667,517.6002,123,516.9188,122.9777,516.865,122.6027,516.6667,122.322,516.6962,121.8543,516.2741,121.5196,516.1731,121.2322,516.1866,121.4321,516.2693,121.22,515.8886,121.1655,515.5731,120.6938,515.0848,120.7447,514.8131,120.5,514.4188,121.0904,514.4188,120.0276,505.2928,120.4041,496.1668,120.626,487.0409,121.1518,477.9149,120.5,468.7889,120.4987,468.7884,120.7889,468.4944,120.6223,468.0112,120.7308,467.6419,121.2409,467.439,121.2322,467.0212,121.1408,466.8004,121.6507,467.0315,121.9657,466.7919,122.2587,466.4993,122.6013,466.3264,123,466.2889" style="stroke:#181818;stroke-width:4.0;"/><text fill="#000000" font-family="Chalkduster" font-size="24" lengthAdjust="spacing" textLength="107" x="130.5" y="500.1298">JSON-LD</text></g><!--entity OCFL--><g id="elem_OCFL"><polygon fill="none" points="131,638.2889,131,638.4991,141.5,637.8746,152,638.4822,162.5,638.6886,173,637.5756,183.5,638.2112,194,637.8625,204.5,637.9055,215,638.2889,214.9913,638.268,215.2654,638.2225,215.7777,638.7523,215.9803,638.5342,216.389,638.8138,216.7678,639.0212,216.9008,639.0763,216.8878,639.3638,217.0817,639.737,217.1973,640.0778,217.4085,640.4582,217.5,640.7889,217.7391,640.7889,218.0857,649.9149,218.1711,659.0409,218.1793,668.1668,217.7546,677.2928,217.5,686.4188,217.6428,686.4779,217.5698,686.8619,216.985,687.0339,217.2696,687.566,216.8229,687.7952,216.7678,688.1866,216.8359,688.3509,216.3511,688.1805,216.0519,688.4583,215.8017,688.8543,215.3473,688.7573,215,688.9188,215,689.0241,204.5,689.2574,194,689.335,183.5,688.9149,173,689.206,162.5,688.3464,152,689.2032,141.5,689.467,131,688.9188,131.0567,689.0557,130.7246,688.9611,130.2313,688.4771,129.8561,688.2786,129.5065,688.1416,129.2322,688.1866,129.2141,688.179,129.0253,687.8079,129.1492,687.5664,128.7391,687.1036,128.5408,686.7286,128.5,686.4188,128.7283,686.4188,127.8332,677.2928,127.9809,668.1668,129.149,659.0409,128.9357,649.9149,128.5,640.7889,128.7262,640.8826,128.5473,640.3943,128.8912,640.1226,129.1212,639.8036,128.9403,639.3145,129.2322,639.0212,129.22,638.9917,129.6019,638.9135,130.0225,638.929,130.2924,638.5806,130.7055,638.5778,131,638.2889" style="stroke:#181818;stroke-width:4.0;"/><text fill="#000000" font-family="Chalkduster" font-size="24" lengthAdjust="spacing" textLength="69" x="138.5" y="672.1298">OCFL</text></g><!--entity DOI--><g id="elem_DOI"><polygon fill="none" points="669.5,162.2889,669.5,162.4991,680,161.8746,690.5,162.4822,701,162.6886,711.5,161.5756,722,162.2112,732.5,162.2889,732.4456,162.1576,732.8046,162.3173,733.1984,162.5609,733.4725,162.5154,733.9848,163.0452,734.2678,163.0212,734.0737,162.9408,734.3533,163.3495,734.6937,163.7834,734.6807,164.0709,734.8746,164.4441,735,164.7889,734.9681,164.7889,735.1785,173.9149,735.2391,183.0409,735.5857,192.1668,735.6711,201.2928,735,210.4188,735.2092,210.5054,734.932,210.8048,734.8499,211.185,734.7769,211.569,734.1921,211.741,734.2678,212.1866,734.3543,212.3955,733.8764,212.2417,733.6288,212.6438,733.144,212.4734,732.8448,212.7512,732.5,212.9188,732.5,213.6604,722,212.87,711.5,213.0241,701,213.2574,690.5,213.335,680,212.9149,669.5,212.9188,669.5366,213.0072,669.0734,212.5961,668.8292,212.7135,668.5093,212.6483,668.1425,212.4699,667.7322,212.1866,667.921,212.2647,667.437,211.7714,667.2385,211.3963,667.1015,211.0466,667.1283,210.7648,667,210.4188,666.8035,210.4188,667.6814,201.2928,666.8253,192.1668,666.6569,183.0409,667.2283,173.9149,667,164.7889,666.7946,164.7039,666.9866,164.3692,667.4927,164.1646,667.5735,163.7839,667.812,163.4684,667.7322,163.0212,667.6912,162.9221,668.1265,162.973,668.5147,162.9101,668.7326,162.4364,669.1342,162.4059,669.5,162.2889" style="stroke:#181818;stroke-width:4.0;"/><text fill="#000000" font-family="Chalkduster" font-size="24" lengthAdjust="spacing" textLength="48" x="677" y="196.1298">DOI</text></g><!--entity ARCP--><g id="elem_ARCP"><polygon fill="none" points="773,162.2889,773,162.4991,782.7778,161.8746,792.5556,162.4822,802.3333,162.6886,812.1111,161.5756,821.8889,162.2112,831.6667,161.8625,841.4444,161.9055,851.2222,162.2208,861,162.2889,860.9118,162.076,861.4242,162.6059,861.6267,162.3877,862.0354,162.6674,862.4693,163.0078,862.7678,163.0212,862.7414,163.0102,862.9352,163.3834,863.0508,163.7242,863.2621,164.1046,863.4272,164.4659,863.5,164.7889,864.0857,164.7889,864.1711,173.9149,864.1793,183.0409,863.7546,192.1668,863.9636,201.2928,863.5,210.4188,863.7163,210.5084,863.1315,210.6803,863.4161,211.2124,862.9693,211.4416,863.0786,211.9011,862.7678,212.1866,862.7046,212.0341,862.4055,212.3119,862.1553,212.7078,861.7009,212.6109,861.367,212.8048,861,212.9188,861,213.2574,851.2222,213.335,841.4444,212.9149,831.6667,213.206,821.8889,212.3464,812.1111,213.2032,802.3333,213.467,792.5556,213.3633,782.7778,213.5318,773,212.9188,772.9384,212.77,772.5633,212.5715,772.2136,212.4345,771.9318,212.4613,771.5607,212.2725,771.2322,212.1866,771.4421,212.2735,771.032,211.8107,770.8337,211.4357,770.8632,211.155,770.4411,210.6873,770.5,210.4188,769.9809,210.4188,771.149,201.2928,770.9357,192.1668,771.2345,183.0409,770.1782,173.9149,770.5,164.7889,770.5983,164.8297,770.8283,164.5107,770.6474,164.0216,770.9098,163.7161,771.1246,163.3908,771.2322,163.0212,771.3154,163.2219,771.5853,162.8734,771.9983,162.8707,772.2223,162.4113,772.5601,162.2268,773,162.2889" style="stroke:#181818;stroke-width:4.0;"/><text fill="#000000" font-family="Chalkduster" font-size="24" lengthAdjust="spacing" textLength="73" x="780.5" y="196.1298">ARCP</text></g><!--entity Managed URIs--><g id="elem_Managed URIs"><polygon fill="none" points="650.5,273.2889,650.5,273.4991,660.5476,272.8746,670.5952,273.4822,680.6429,273.6886,690.6905,272.5756,700.7381,273.2112,710.7857,272.8625,720.8333,272.9055,730.881,273.2208,740.9286,272.5976,750.9762,273.8426,761.0238,272.6587,771.0714,273.0912,781.119,273.7209,791.1667,273.2032,801.2143,273.3572,811.2619,273.257,821.3095,273.4675,831.3571,273.5281,841.4048,273.8746,851.4524,273.96,861.5,273.2889,861.5866,273.4981,861.886,273.5138,862.2662,273.7246,862.6502,273.9445,862.8222,273.6526,863.2678,274.0212,863.4767,274.1077,863.3229,274.3369,863.7251,274.7964,863.5547,275.0187,863.8325,275.4267,864,275.7889,864.7416,275.7889,863.9513,284.9149,864.1053,294.0409,864.3386,303.1668,864.4162,312.2928,864,321.4188,863.9988,321.4183,863.942,321.809,863.5308,322.0529,863.6482,322.5157,863.583,322.9029,863.2678,323.1866,863.3245,323.3234,862.9924,323.5218,862.499,323.3307,862.1239,323.425,861.7743,323.581,861.5,323.9188,861.5,323.8599,851.4524,323.7223,841.4048,324.6002,831.3571,323.7441,821.3095,323.5757,811.2619,324.1471,801.2143,323.2519,791.1667,323.3997,781.119,324.5677,771.0714,324.3545,761.0238,324.6533,750.9762,323.597,740.9286,324.238,730.881,324.5092,720.8333,323.4464,710.7857,323.8229,700.7381,324.0448,690.6905,324.5705,680.6429,323.9146,670.5952,324.3814,660.5476,323.365,650.5,323.9188,650.4136,323.7102,650.2107,323.9274,649.7014,323.4051,649.5043,323.6362,649.1121,323.3966,648.7322,323.1866,648.6497,323.1524,648.4768,322.7879,648.5806,322.538,648.2007,322.0877,648.3287,321.8478,648,321.4188,647.4473,321.4188,648.6174,312.2928,648.4843,303.1668,648.245,294.0409,648.0472,284.9149,648,275.7889,648.2238,275.8816,648.3354,275.5137,648.345,275.1034,648.5219,274.7625,648.5457,274.3581,648.7322,274.0212,648.8236,274.2418,649.1055,273.9224,649.4614,273.7814,649.7153,273.3945,650.0948,273.3106,650.5,273.2889" style="stroke:#181818;stroke-width:4.0;"/><text fill="#000000" font-family="Chalkduster" font-size="24" lengthAdjust="spacing" textLength="196" x="658" y="307.1298">Managed URIs</text></g><!--entity ldac--><g id="elem_ldac"><polygon fill="none" points="354.5,162.2889,354.5,162.4991,364.4545,161.8746,374.4091,162.4822,384.3636,162.6886,394.3182,161.5756,404.2727,162.2112,414.2273,161.8625,424.1818,161.9055,434.1364,162.2208,444.0909,161.5976,454.0455,162.8426,464,161.6587,473.9545,162.0912,483.9091,162.7209,493.8636,162.2032,503.8182,162.3572,513.7727,162.257,523.7273,162.4675,533.6818,162.5281,543.6364,162.8746,553.5909,162.96,563.5455,162.9682,573.5,162.2889,573.5325,162.3674,573.9127,162.5782,574.2967,162.7981,574.4687,162.5062,575.0008,163.0837,575.2678,163.0212,575.1765,162.9834,575.5786,163.4428,575.4082,163.6651,575.686,164.0731,576.0819,164.53,576,164.7889,575.9513,164.7889,576.1053,173.9149,576.3386,183.0409,576.4162,192.1668,575.9961,201.2928,576,210.4188,576.0885,210.4554,575.6773,210.6993,575.7947,211.1622,575.7295,211.5494,575.5511,211.8897,575.2678,212.1866,575.346,212.3753,574.8526,212.1842,574.4775,212.2786,574.1278,212.4345,573.846,212.7542,573.5,212.9188,573.5,212.7223,563.5455,213.6002,553.5909,212.7441,543.6364,212.5757,533.6818,213.1471,523.7273,212.2519,513.7727,212.3997,503.8182,213.5677,493.8636,213.3545,483.9091,213.6533,473.9545,212.597,464,213.238,454.0455,213.5092,444.0909,212.4464,434.1364,212.8229,424.1818,213.0448,414.2273,213.5705,404.2727,212.9146,394.3182,213.3814,384.3636,212.365,374.4091,212.2415,364.4545,213.4224,354.5,212.9188,354.4085,212.698,354.2114,212.9291,353.8193,212.6895,353.4052,212.3969,353.0407,212.224,352.7322,212.1866,352.8735,212.2451,352.4936,211.7948,352.6216,211.5549,352.1227,211.0554,352.3366,210.8511,352,210.4188,352.4843,210.4188,352.245,201.2928,352.0472,192.1668,352.7266,183.0409,352.6136,173.9149,352,164.7889,352.0521,164.8105,352.229,164.4696,352.2528,164.0652,352.66,163.8197,352.6335,163.3945,352.7322,163.0212,352.7542,163.0743,353.0082,162.6874,353.3876,162.6035,353.8606,162.7453,354.2013,162.5677,354.5,162.2889" style="stroke:#181818;stroke-width:4.0;"/><text fill="#000000" font-family="Chalkduster" font-size="24" lengthAdjust="spacing" textLength="204" x="362" y="196.1298">Language Data</text></g><!--entity wr--><g id="elem_wr"><polygon fill="none" points="102,162.2889,102,162.4991,112.0952,161.8746,122.1905,162.4822,132.2857,162.6886,142.381,161.5756,152.4762,162.2112,162.5714,161.8625,172.6667,161.9055,182.7619,162.2208,192.8571,161.5976,202.9524,162.8426,213.0476,161.6587,223.1429,162.0912,233.2381,162.7209,243.3333,162.2032,253.4286,162.3572,263.5238,162.257,273.619,162.4675,283.7143,162.5281,293.8095,162.8746,303.9048,162.96,314,162.2889,314.0866,162.4981,314.386,162.5138,314.7662,162.7246,315.1502,162.9445,315.3222,162.6526,315.7678,163.0212,315.9767,163.1077,315.8229,163.3369,316.2251,163.7964,316.0547,164.0187,316.3325,164.4267,316.5,164.7889,317.2416,164.7889,316.4513,173.9149,316.6053,183.0409,316.8386,192.1668,316.9162,201.2928,316.5,210.4188,316.4988,210.4183,316.442,210.809,316.0308,211.0529,316.1482,211.5157,316.083,211.9029,315.7678,212.1866,315.8245,212.3234,315.4924,212.5218,314.999,212.3307,314.6239,212.425,314.2743,212.581,314,212.9188,314,212.8599,303.9048,212.7223,293.8095,213.6002,283.7143,212.7441,273.619,212.5757,263.5238,213.1471,253.4286,212.2519,243.3333,212.3997,233.2381,213.5677,223.1429,213.3545,213.0476,213.6533,202.9524,212.597,192.8571,213.238,182.7619,213.5092,172.6667,212.4464,162.5714,212.8229,152.4762,213.0448,142.381,213.5705,132.2857,212.9146,122.1905,213.3814,112.0952,212.365,102,212.9188,101.9136,212.7102,101.7107,212.9274,101.2014,212.4051,101.0043,212.6362,100.6121,212.3966,100.2322,212.1866,100.1497,212.1524,99.9768,211.7879,100.0806,211.538,99.7007,211.0877,99.8287,210.8478,99.5,210.4188,98.9473,210.4188,100.1174,201.2928,99.9843,192.1668,99.745,183.0409,99.5472,173.9149,99.5,164.7889,99.7238,164.8816,99.8354,164.5137,99.845,164.1034,100.0219,163.7625,100.0457,163.3581,100.2322,163.0212,100.3236,163.2418,100.6055,162.9224,100.9614,162.7814,101.2153,162.3945,101.5948,162.3106,102,162.2889" style="stroke:#181818;stroke-width:4.0;"/><text fill="#000000" font-family="Chalkduster" font-size="24" lengthAdjust="spacing" textLength="197" x="109.5" y="196.1298">Workflow Run</text></g><!--link Profiles to ro--><!--link ro to sstorage--><!--link OCFL to NOCFL--><!--SRC=[RL7DQeGm6BpdARvww2ts1HQXA8LTx2fAwQ6K4fAioiPaII9MohvxOrp5TiqXFpEJcIzV7Xf9HSVuLqla067un8Wbs1r8nLikBJPs43oqtnOXf3crH5Q2Gr2w3IEQcG1sEpCVeWX-4BZXfmkXPsS3GP7XM1FB0o06jBffnh5sf3LlIQXq5MpHXp8xuZIPk2j2TzUjqcDOUU7K-21ZRj1cN1Q_fBCPJ7OhDjydpcI-k2AIR1_Seyz5d6_0hxwD3DwAlLco_WLfTMe4D_08kH8D7Npf2xfPUkhMRdnOulxAwmKZT4lvhlJv95GFHIUziDUhCfOKZ9dgvKVTCCRb9yQH-wIfK0L_gMZfgkV79WBMJLNRbUGumkZg-5y0]--></g></svg>