<?xml version="1.0" encoding="UTF-8" standalone="no"?><svg xmlns="http://www.w3.org/2000/svg" xmlns:xlink="http://www.w3.org/1999/xlink" contentStyleType="text/css" height="447px" preserveAspectRatio="none" style="width:1031px;height:447px;background:#FFFFFF;" version="1.1" viewBox="0 0 1031 447" width="1031px" zoomAndPan="magnify"><defs/><g><!--cluster Standards--><g id="cluster_Standards"><polygon fill="#ADD8E6" points="9.5,9.2889,9.5,9.4991,19.5297,8.8746,29.5594,9.4822,39.5891,9.6886,49.6188,8.5756,59.6485,9.2112,69.6782,8.8625,79.7079,8.9055,89.7376,9.2208,99.7673,8.5976,109.797,9.8426,119.8267,8.6587,129.8564,9.0912,139.8861,9.7209,149.9158,9.2032,159.9455,9.3572,169.9752,9.257,180.005,9.4675,190.0347,9.5281,200.0644,9.8746,210.0941,9.96,220.1238,9.9682,230.1535,9.5436,240.1832,9.7525,250.2129,9.9912,260.2426,8.5678,270.2723,9.9675,280.302,8.9924,290.3317,9.8228,300.3614,8.7939,310.3911,9.2205,320.4208,10.0306,330.4505,9.2402,340.4802,9.3943,350.5099,9.6276,360.5396,9.7052,370.5693,9.285,380.599,9.5762,390.6287,8.7165,400.6584,9.5733,410.6881,9.8371,420.7178,9.7335,430.7475,9.902,440.7772,8.8059,450.8069,8.6368,460.8366,8.6675,470.8663,9.2301,480.896,9.0924,490.9257,9.9704,500.9554,9.1143,510.9851,8.9459,521.0149,9.5172,531.0446,8.6221,541.0743,8.7698,551.104,9.9379,561.1337,9.7246,571.1634,10.0234,581.1931,8.9672,591.2228,9.6081,601.2525,9.8794,611.2822,8.8165,621.3119,9.1931,631.3416,9.4149,641.3713,9.9407,651.401,9.2848,661.4307,9.7515,671.4604,8.7352,681.4901,8.6117,691.5198,9.7926,701.5495,8.572,711.5792,9.7979,721.6089,9.4956,731.6386,9.021,741.6683,8.9352,751.698,9.7477,761.7277,8.9896,771.7574,9.8808,781.7871,8.7362,791.8168,9.9064,801.8465,9.7733,811.8762,9.5339,821.9059,9.3362,831.9356,10.0156,841.9653,9.9025,851.995,9.4582,862.0248,9.5571,872.0545,9.1587,882.0842,10.0054,892.1139,9.4438,902.1436,9.4615,912.1733,8.6806,922.203,8.8837,932.2327,9.8197,942.2624,9.7187,952.2921,9.246,962.3218,8.9668,972.3515,9.07,982.3812,8.6028,992.4109,9.7037,1002.4406,10.0285,1012.4703,9.8153,1022.5,9.2889,1022.5886,9.503,1022.8361,9.3933,1023.2182,9.6087,1023.5112,9.6089,1023.9504,9.9622,1024.2678,10.0212,1024.3438,10.0527,1024.5843,10.4452,1024.4899,10.699,1024.6657,11.0647,1024.9901,11.492,1025,11.7889,1025.5673,11.7889,1024.4875,21.7192,1024.8061,31.6494,1025.1493,41.5796,1024.3892,51.5099,1025.3534,61.4401,1025.258,71.3703,1024.8992,81.3006,1025.1422,91.2308,1025.7287,101.161,1024.6871,111.0913,1025.315,121.0215,1025.2856,130.9517,1025.1158,140.882,1025.1409,150.8122,1025.1135,160.7424,1024.3758,170.6727,1024.5992,180.6029,1024.5385,190.5331,1025.0638,200.4634,1025.0881,210.3936,1025.1617,220.3238,1024.709,230.2541,1024.9325,240.1843,1024.8798,250.1145,1025.5769,260.0448,1025.4266,269.975,1024.5145,279.9052,1024.9271,289.8355,1024.4228,299.7657,1025.2884,309.6959,1025.6085,319.6262,1025.5446,329.5564,1024.5644,339.4866,1025.464,349.4169,1024.2572,359.3471,1025.2002,369.2773,1024.7007,379.2076,1025.0967,389.1378,1025.2403,399.068,1025.4721,408.9983,1024.2801,418.9285,1025.4755,428.8587,1025,438.7889,1025.0549,438.8117,1024.963,439.1878,1024.9374,439.5914,1024.5623,439.8503,1024.4682,440.2255,1024.2678,440.5567,1024.295,440.6224,1023.9394,440.7639,1023.5606,440.8494,1023.2978,441.2149,1022.7758,440.9547,1022.5,441.2889,1022.5,441.8542,1012.4703,440.6649,1002.4406,440.7486,992.4109,441.329,982.3812,441.3172,972.3515,440.7961,962.3218,441.7027,952.2921,441.3978,942.2624,442.0156,932.2327,441.9561,922.203,440.8407,912.1733,440.891,902.1436,441.1598,892.1139,441.6445,882.0842,441.6919,872.0545,441.5901,862.0248,440.947,851.995,441.9253,841.9653,441.9227,831.9356,441.2417,821.9059,441.0499,811.8762,440.8876,801.8465,441.0744,791.8168,441.4264,781.7871,441.2206,771.7574,440.8712,761.7277,441.7763,751.698,440.83,741.6683,441.7913,731.6386,441.7162,721.6089,441.6608,711.5792,441.9814,701.5495,441.0431,691.5198,440.9883,681.4901,441.8078,671.4604,440.6921,661.4307,441.055,651.401,441.4044,641.3713,441.3576,631.3416,440.9305,621.3119,441.246,611.2822,442.0335,601.2525,441.9374,591.2228,440.6927,581.1931,441.3675,571.1634,440.775,561.1337,441.2626,551.104,441.5819,541.0743,441.7088,531.0446,440.6242,521.0149,441.6895,510.9851,441.2974,500.9554,440.7336,490.9257,440.8179,480.896,441.6155,470.8663,441.5388,460.8366,441.2725,450.8069,440.6168,440.7772,441.9471,430.7475,440.9771,420.7178,440.7609,410.6881,441.2216,400.6584,441.8787,390.6287,441.9044,380.599,441.3241,370.5693,441.1378,360.5396,441.4587,350.5099,441.4752,340.4802,440.7812,330.4505,441.7029,320.4208,441.8478,310.3911,441.0732,300.3614,440.8598,290.3317,441.9636,280.302,441.31,270.2723,441.2888,260.2426,441.588,250.2129,440.6433,240.1832,441.8189,230.1535,441.2735,220.1238,441.9578,210.0941,441.0731,200.0644,441.6979,190.0347,440.845,180.005,441.534,169.9752,441.6682,159.9455,440.9616,149.9158,441.652,139.8861,440.7175,129.8564,440.8185,119.8267,441.9718,109.797,441.9733,99.7673,441.8574,89.7376,440.9286,79.7079,441.6732,69.6782,440.8169,59.6485,441.3471,49.6188,441.2877,39.5891,441.0265,29.5594,441.9049,19.5297,441.7322,9.5,441.2889,9.4591,441.1902,9.2136,441.3047,8.8046,441.0243,8.3649,440.6699,8.056,440.6313,7.7322,440.5567,7.5705,440.4897,7.543,440.1854,7.2456,439.7694,7.1081,439.4195,7.1681,439.1515,7,438.7889,6.8796,438.7889,6.9414,428.8587,6.8568,418.9285,7.1673,408.9983,6.4449,399.068,7.1601,389.1378,6.2569,379.2076,7.296,369.2773,7.5928,359.3471,7.5221,349.4169,7.3613,339.4866,7.1922,329.5564,7.1057,319.6262,6.36,309.6959,7.4465,299.7657,7.3296,289.8355,6.8466,279.9052,6.9942,269.975,6.7914,260.0448,7.2177,250.1145,7.6805,240.1843,6.6461,230.2541,7.4689,220.3238,6.9108,210.3936,6.6207,200.4634,6.5681,190.5331,6.3553,180.6029,6.5591,170.6727,7.0363,160.7424,7.273,150.8122,7.5762,140.882,7.4201,130.9517,6.2886,121.0215,7.619,111.0913,7.4861,101.161,7.5407,91.2308,7.5219,81.3006,6.3409,71.3703,6.7423,61.4401,7.316,51.5099,6.5185,41.5796,6.8971,31.6494,7.067,21.7192,7,11.7889,7.1004,11.8305,7.1605,11.4412,7.5222,11.1768,7.566,10.7808,7.6646,10.4074,7.7322,10.0212,7.6634,9.8549,8.129,9.9791,8.3661,9.5514,8.8319,9.676,9.1474,9.4378,9.5,9.2889" style="stroke:#181818;stroke-width:4.0;"/><text fill="#000000" font-family="Chalkduster" font-size="24" font-style="italic" lengthAdjust="spacing" textLength="170" x="431" y="35.1298">«standards»</text><text fill="#000000" font-family="Chalkduster" font-size="24" font-weight="bold" lengthAdjust="spacing" textLength="138" x="447" y="65.7597">Standards</text></g><!--cluster ro--><g id="cluster_ro"><path d="M593.5,105.2889 L593.5,105.8494 L603.2692,104.1841 L613.0385,105.8044 L622.8077,106.3548 L632.5769,103.3866 L642.3462,105.0817 L652.1154,104.1516 L661.8846,104.2663 L671.6538,105.1072 L681.4231,103.4453 L691.1923,106.7653 L700.9615,103.6082 L710.7308,104.7616 L720.5,105.2889 L723,107.7889 L723.3761,107.8661 L724.3253,114.5996 L725.8594,121.4531 L727.1722,128.2611 L728.7555,135.1247 L730,141.9188 L730,142.5565 L740.0192,143.4806 L750.0385,143.7083 L760.0577,143.7301 L770.0769,142.5978 L780.0962,143.155 L790.1154,143.7914 L800.1346,139.9956 L810.1538,143.7281 L820.1731,141.1281 L830.1923,143.3423 L840.2115,140.5987 L850.2308,141.7361 L860.25,143.8964 L870.2692,141.7888 L880.2885,142.1996 L890.3077,142.8218 L900.3269,143.0287 L910.3462,141.9084 L920.3654,142.6847 L930.3846,140.3923 L940.4038,142.6771 L950.4231,143.3806 L960.4423,143.1042 L970.4615,143.5535 L980.4808,140.6306 L990.5,141.9188 L993,144.4188 L991.2608,144.4188 L991.3429,154.4599 L992.843,164.501 L992.4759,174.5422 L994.8171,184.5833 L992.5342,194.6244 L992.0852,204.6656 L993.6087,214.7067 L991.2218,224.7478 L993,234.7889 L990.5,237.2889 L990.5,235.9046 L980.575,239.0195 L970.65,238.4507 L960.725,239.2476 L950.8,236.4308 L940.875,238.1401 L930.95,238.8634 L921.025,236.0292 L911.1,237.0333 L901.175,237.6249 L891.25,239.027 L881.325,237.2778 L871.4,238.5225 L861.475,235.8122 L851.55,235.4829 L841.625,238.6319 L831.7,235.3771 L821.775,238.6462 L811.85,237.84 L801.925,236.5745 L792,236.3456 L782.075,238.5123 L772.15,236.4907 L762.225,238.8672 L752.3,235.815 L742.375,238.9354 L732.45,238.5804 L722.525,237.9422 L712.6,237.4149 L702.675,239.2266 L692.75,238.9252 L682.825,237.7403 L672.9,238.0041 L662.975,236.9416 L653.05,239.1995 L643.125,237.7019 L633.2,237.7491 L623.275,235.6667 L613.35,236.2084 L603.425,238.7043 L593.5,237.2889 L591,234.7889 L592.146,234.7889 L590.8855,225.0197 L590.1409,215.2505 L590.4162,205.4813 L589.1702,195.712 L592.106,185.9428 L592.9722,176.1736 L592.4037,166.4043 L592.8532,156.6351 L590.6354,146.8659 L591.2326,137.0966 L589.9664,127.3274 L591.7574,117.5582 L591,107.7889 L593.5,105.2889 " fill="none" style="stroke:#000000;stroke-width:4.0;"/><path d="M591,141.9188 L591,142.199 L600.9286,141.3664 L610.8571,142.1765 L620.7857,142.4517 L630.7143,140.9676 L640.6429,141.8152 L650.5714,141.3501 L660.5,141.4075 L670.4286,141.8279 L680.3571,140.997 L690.2857,142.657 L700.2143,141.0784 L710.1429,141.6551 L720.0714,142.4947 L730,141.9188 " fill="none" style="stroke:#000000;stroke-width:4.0;"/><text fill="#000000" font-family="Chalkduster" font-size="24" font-weight="bold" lengthAdjust="spacing" textLength="126" x="595" y="131.1298">RO-Crate</text></g><!--cluster storage--><g id="cluster_storage"><polygon fill="none" points="593.5,277.2889,593.5,277.4991,603.6034,276.8746,613.7069,277.4822,623.8103,277.6886,633.9138,276.5756,644.0172,277.2112,654.1207,276.8625,664.2241,276.9055,674.3276,277.2208,684.431,276.5976,694.5345,277.8426,704.6379,276.6587,714.7414,277.0912,724.8448,277.7209,734.9483,277.2032,745.0517,277.3572,755.1552,277.257,765.2586,277.4675,775.3621,277.5281,785.4655,277.8746,795.569,277.96,805.6724,277.9682,815.7759,277.5436,825.8793,277.7525,835.9828,277.9912,846.0862,276.5678,856.1897,277.9675,866.2931,276.9924,876.3966,277.8228,886.5,277.2889,886.4369,277.1365,886.8448,277.4143,887.3017,277.8102,887.5544,277.7133,887.9276,277.9072,888.2678,278.0212,888.3721,278.0644,888.5424,278.4278,888.5595,278.7278,888.7956,279.1185,888.6773,279.3624,889,279.7889,889.2844,279.7889,889.5482,289.5582,889.4445,299.3274,889.613,309.0966,888.5169,318.8659,888.3478,328.6351,888.3786,338.4043,888.9411,348.1736,888.8035,357.9428,889.6814,367.712,888.8253,377.4813,888.6569,387.2505,889.2283,397.0197,889,406.7889,888.7946,406.7039,888.6937,407.0763,888.907,407.5788,888.6948,407.9052,888.6404,408.2969,888.2678,408.5567,888.2267,408.4576,887.9549,408.8015,887.636,409.0314,887.1468,408.8506,886.8413,409.113,886.5,409.2889,886.5,409.4149,876.3966,409.9407,866.2931,409.2848,856.1897,409.7515,846.0862,408.7352,835.9828,408.6117,825.8793,409.7926,815.7759,408.572,805.6724,409.7979,795.569,409.4956,785.4655,409.021,775.3621,408.9352,765.2586,409.7477,755.1552,408.9896,745.0517,409.8808,734.9483,408.7362,724.8448,409.9064,714.7414,409.7733,704.6379,409.5339,694.5345,409.3362,684.431,410.0156,674.3276,409.9025,664.2241,409.4582,654.1207,409.5571,644.0172,409.1587,633.9138,410.0054,623.8103,409.4438,613.7069,409.4615,603.6034,408.6806,593.5,409.2889,593.4483,409.1642,593.2141,409.306,592.8477,409.1284,592.4339,408.8364,592.0447,408.6039,591.7322,408.5567,591.6648,408.5288,591.3745,408.1156,591.5671,407.9025,591.5206,407.5904,591.3086,407.2097,591,406.7889,591.6949,406.7889,590.8633,397.0197,591.0872,387.2505,590.6124,377.4813,591.284,367.712,591.2468,357.9428,591.5524,348.1736,590.7703,338.4043,590.8656,328.6351,591.4435,318.8659,591.5673,309.0966,590.4875,299.3274,590.8061,289.5582,591,279.7889,591.046,279.808,590.9583,279.3575,591.4017,279.1269,591.5188,278.7612,591.5548,278.3619,591.7322,278.0212,591.7504,278.065,592.1787,278.0991,592.3994,277.6319,592.8331,277.6788,593.1829,277.5234,593.5,277.2889" style="stroke:#181818;stroke-width:4.0;"/><text fill="#000000" font-family="Chalkduster" font-size="24" font-weight="bold" lengthAdjust="spacing" textLength="101" x="689.5" y="303.1298">Storage</text></g><!--cluster PIDs--><g id="cluster_PIDs"><polygon fill="none" points="313.5,113.2889,313.5,113.4991,323.625,112.8746,333.75,113.4822,343.875,113.6886,354,112.5756,364.125,113.2112,374.25,112.8625,384.375,112.9055,394.5,113.2208,404.625,112.5976,414.75,113.8426,424.875,112.6587,435,113.0912,445.125,113.7209,455.25,113.2032,465.375,113.3572,475.5,113.257,485.625,113.4675,495.75,113.5281,505.875,113.8746,516,113.96,526.125,113.9682,536.25,113.5436,546.375,113.7525,556.5,113.2889,556.5896,113.5052,556.7616,113.2133,557.2937,113.7908,557.5228,113.637,557.9823,114.0391,558.2678,114.0212,558.1153,113.958,558.3931,114.366,558.789,114.8229,558.6921,115.0756,558.886,115.4488,559,115.7889,559.3386,115.7889,559.4162,125.8961,558.9961,136.0032,559.2872,146.1104,558.4276,156.2175,559.2844,166.3247,559.5482,176.4318,559.4445,186.5389,559.613,196.6461,558.5169,206.7532,558.3478,216.8604,558.3786,226.9675,558.9411,237.0747,558.8035,247.1818,559.6814,257.2889,558.8253,267.3961,558.6569,277.5032,559.2283,287.6104,558.3332,297.7175,558.4809,307.8247,559.649,317.9318,559.4357,328.0389,559.7345,338.1461,558.6782,348.2532,559.3192,358.3604,559.5904,368.4675,558.5276,378.5747,558.9041,388.6818,559,398.7889,559.0388,398.805,559.0543,399.2256,558.7058,399.4955,558.7031,399.9086,558.2437,400.1325,558.2678,400.5567,558.1814,400.3481,557.9785,400.8583,557.4692,400.6288,557.272,401.1528,556.8799,401.2061,556.5,401.2889,556.5,401.021,546.375,400.9352,536.25,401.7477,526.125,400.9896,516,401.8808,505.875,400.7362,495.75,401.9064,485.625,401.7733,475.5,401.5339,465.375,401.3362,455.25,402.0156,445.125,401.9025,435,401.4582,424.875,401.5571,414.75,401.1587,404.625,402.0054,394.5,401.4438,384.375,401.4615,374.25,400.6806,364.125,400.8837,354,401.8197,343.875,401.7187,333.75,401.246,323.625,400.9668,313.5,401.2889,313.4721,401.2215,313.0589,400.9312,312.8458,401.1238,312.5337,401.0774,312.1529,400.8653,311.7322,400.5567,311.9462,400.6454,311.5437,400.1857,311.4662,399.8607,311.1735,399.4466,311.2339,399.1787,311,398.7889,311.2468,398.7889,311.5524,388.6818,310.7703,378.5747,310.8656,368.4675,311.4435,358.3604,311.5673,348.2532,310.4875,338.1461,310.8061,328.0389,311.1493,317.9318,310.3892,307.8247,311.3534,297.7175,311.258,287.6104,310.8992,277.5032,311.1422,267.3961,311.7287,257.2889,310.6871,247.1818,311.315,237.0747,311.2856,226.9675,311.1158,216.8604,311.1409,206.7532,311.1135,196.6461,310.3758,186.5389,310.5992,176.4318,310.5385,166.3247,311.0638,156.2175,311.0881,146.1104,311.1617,136.0032,310.709,125.8961,311,115.7889,310.9792,115.7803,311.1094,115.4201,311.4705,115.1554,311.5707,114.7827,311.4363,114.3128,311.7322,114.0212,311.7229,113.9987,312.0122,113.697,312.4761,113.8171,312.8705,113.7692,313.2159,113.6031,313.5,113.2889" style="stroke:#181818;stroke-width:4.0;"/><text fill="#000000" font-family="Chalkduster" font-size="24" font-weight="bold" lengthAdjust="spacing" textLength="60" x="405" y="139.1298">PIDs</text></g><!--cluster Profiles--><g id="cluster_Profiles"><polygon fill="none" points="33.5,113.2889,33.5,113.4991,43.54,112.8746,53.58,113.4822,63.62,113.6886,73.66,112.5756,83.7,113.2112,93.74,112.8625,103.78,112.9055,113.82,113.2208,123.86,112.5976,133.9,113.8426,143.94,112.6587,153.98,113.0912,164.02,113.7209,174.06,113.2032,184.1,113.3572,194.14,113.257,204.18,113.4675,214.22,113.5281,224.26,113.8746,234.3,113.96,244.34,113.9682,254.38,113.5436,264.42,113.7525,274.46,113.9912,284.5,113.2889,284.408,113.0669,284.9401,113.6444,285.1693,113.4905,285.6288,113.8927,285.8511,113.7223,286.2678,114.0212,286.2467,114.0124,286.6426,114.4693,286.5457,114.7221,286.7395,115.0953,286.9578,115.4786,287,115.7889,287.4162,115.7889,286.9961,125.8961,287.2872,136.0032,286.4276,146.1104,287.2844,156.2175,287.5482,166.3247,287.4445,176.4318,287.613,186.5389,286.5169,196.6461,286.3478,206.7532,286.3786,216.8604,286.9411,226.9675,286.8035,237.0747,287.6814,247.1818,286.8253,257.2889,286.6569,267.3961,287.2283,277.5032,286.3332,287.6104,286.4809,297.7175,287.649,307.8247,287.4357,317.9318,287.7345,328.0389,286.6782,338.1461,287.3192,348.2532,287.5904,358.3604,286.5276,368.4675,286.9041,378.5747,287.126,388.6818,287,398.7889,287.2007,398.8721,286.8523,399.142,286.8496,399.5551,286.3901,399.779,286.2056,400.1168,286.2678,400.5567,286.332,400.7118,285.8228,400.4824,285.6256,401.0064,285.2335,401.0597,284.8194,401.06,284.5,401.2889,284.5,400.9352,274.46,401.7477,264.42,400.9896,254.38,401.8808,244.34,400.7362,234.3,401.9064,224.26,401.7733,214.22,401.5339,204.18,401.3362,194.14,402.0156,184.1,401.9025,174.06,401.4582,164.02,401.5571,153.98,401.1587,143.94,402.0054,133.9,401.4438,123.86,401.4615,113.82,400.6806,103.78,400.8837,93.74,401.8197,83.7,401.7187,73.66,401.246,63.62,400.9668,53.58,401.07,43.54,400.6028,33.5,401.2889,33.5529,401.4167,33.2408,401.3703,32.86,401.1582,32.528,401.0636,32.0683,400.6611,31.7322,400.5567,31.7591,400.5678,31.4664,400.1537,31.5268,399.8858,31.3689,399.5275,31.3166,399.213,31,398.7889,30.7703,398.7889,30.8656,388.6818,31.4435,378.5747,31.5673,368.4675,30.4875,358.3604,30.8061,348.2532,31.1493,338.1461,30.3892,328.0389,31.3534,317.9318,31.258,307.8247,30.8992,297.7175,31.1422,287.6104,31.7287,277.5032,30.6871,267.3961,31.315,257.2889,31.2856,247.1818,31.1158,237.0747,31.1409,226.9675,31.1135,216.8604,30.3758,206.7532,30.5992,196.6461,30.5385,186.5389,31.0638,176.4318,31.0881,166.3247,31.1617,156.2175,30.709,146.1104,30.9325,136.0032,30.8798,125.8961,31,115.7889,31.1776,115.8625,31.2778,115.4898,31.1434,115.0199,31.4169,114.719,31.408,114.3011,31.7322,114.0212,31.769,114.11,32.1634,114.0621,32.5088,113.896,32.7373,113.4477,33.2056,113.5783,33.5,113.2889" style="stroke:#181818;stroke-width:4.0;"/><text fill="#000000" font-family="Chalkduster" font-size="24" font-weight="bold" lengthAdjust="spacing" textLength="107" x="105.5" y="139.1298">Profiles</text></g><!--entity Schema.org--><g id="elem_Schema.org"><polygon fill="none" points="799.5,162.2889,799.5,162.4991,809.3235,161.8746,819.1471,162.4822,828.9706,162.6886,838.7941,161.5756,848.6176,162.2112,858.4412,161.8625,868.2647,161.9055,878.0882,162.2208,887.9118,161.5976,897.7353,162.8426,907.5588,161.6587,917.3824,162.0912,927.2059,162.7209,937.0294,162.2032,946.8529,162.3572,956.6765,162.257,966.5,162.2889,966.5228,162.3439,966.8841,162.509,967.2818,162.7622,967.6463,162.9349,968.0009,163.0839,968.2678,163.0212,968.3462,163.0537,968.557,163.4339,968.7769,163.8179,968.485,163.9898,969.0625,164.5219,969,164.7889,968.7035,164.7889,969.5338,173.9149,968.505,183.0409,968.9315,192.1668,969.7416,201.2928,969,210.4188,968.985,210.4126,968.886,210.7858,968.8114,211.1691,968.6888,211.5325,968.413,211.8325,968.2678,212.1866,968.3044,212.275,967.8412,212.1567,967.5969,212.567,967.277,212.7947,966.9103,212.9092,966.5,212.9188,966.5,213.5318,956.6765,212.4357,946.8529,212.2666,937.0294,212.2974,927.2059,212.8599,917.3824,212.7223,907.5588,213.6002,897.7353,212.7441,887.9118,212.5757,878.0882,213.1471,868.2647,212.2519,858.4412,212.3997,848.6176,213.5677,838.7941,213.3545,828.9706,213.6533,819.1471,212.597,809.3235,213.238,799.5,212.9188,799.5753,213.1006,799.0862,212.6269,798.7807,212.5964,798.4554,212.5182,798.1689,212.5337,797.7322,212.1866,797.7309,212.186,797.7282,211.892,797.2688,211.4088,797.0843,211.0395,797.3015,210.8366,797,210.4188,796.2831,210.4188,797.509,201.2928,797.2066,192.1668,796.7321,183.0409,796.6462,173.9149,797,164.7889,797.1413,164.8475,797.0543,164.3972,797.4752,164.1573,797.2691,163.6578,797.7759,163.4535,797.7322,163.0212,797.794,163.1703,798.117,162.9502,798.4454,162.7428,798.8856,162.8056,799.2247,162.6244,799.5,162.2889" style="stroke:#181818;stroke-width:4.0;"/><text fill="#000000" font-family="Chalkduster" font-size="24" lengthAdjust="spacing" textLength="152" x="807" y="196.1298">Schema.org</text></g><!--entity JSON-LD--><g id="elem_JSON-LD"><polygon fill="none" points="637,162.2889,637,162.4991,647.1667,161.8746,657.3333,162.4822,667.5,162.6886,677.6667,161.5756,687.8333,162.2112,698,161.8625,708.1667,161.9055,718.3333,162.2208,728.5,161.5976,738.6667,162.8426,748.8333,161.6587,759,162.2889,758.9748,162.228,759.4087,162.5684,759.6962,162.5554,760.0694,162.7493,760.4101,162.8649,760.7678,163.0212,760.8227,163.044,760.9879,163.4052,761.241,163.803,761.4138,164.1674,761.5627,164.522,761.5,164.7889,761.7546,164.7889,761.9636,173.9149,762.2022,183.0409,760.7788,192.1668,762.1785,201.2928,761.5,210.4188,761.4087,210.381,761.5179,210.8404,761.0547,211.0627,761.0396,211.4707,761.1426,211.9276,760.7678,212.1866,760.7616,212.1715,760.4276,212.3654,760.1039,212.5837,759.7602,212.7541,759.3531,212.7711,759,212.9188,759,213.206,748.8333,212.3464,738.6667,213.2032,728.5,213.467,718.3333,213.3633,708.1667,213.5318,698,212.4357,687.8333,212.2666,677.6667,212.2974,667.5,212.8599,657.3333,212.7223,647.1667,213.6002,637,212.9188,636.9777,212.865,636.6027,212.6667,636.322,212.6962,635.8543,212.2741,635.5196,212.1731,635.2322,212.1866,635.4321,212.2693,635.22,211.8886,635.1655,211.5731,634.6938,211.0848,634.7447,210.8131,634.5,210.4188,635.0904,210.4188,634.0276,201.2928,634.4041,192.1668,634.626,183.0409,635.1518,173.9149,634.5,164.7889,634.4987,164.7884,634.7889,164.4944,634.6223,164.0112,634.7308,163.6419,635.2409,163.439,635.2322,163.0212,635.1408,162.8004,635.6507,163.0315,635.9657,162.7919,636.2587,162.4993,636.6013,162.3264,637,162.2889" style="stroke:#181818;stroke-width:4.0;"/><text fill="#000000" font-family="Chalkduster" font-size="24" lengthAdjust="spacing" textLength="107" x="644.5" y="196.1298">JSON-LD</text></g><!--entity OCFL--><g id="elem_OCFL"><polygon fill="none" points="637,334.2889,637,334.4991,647.5,333.8746,658,334.4822,668.5,334.6886,679,333.5756,689.5,334.2112,700,333.8625,710.5,333.9055,721,334.2889,720.9913,334.268,721.2654,334.2225,721.7777,334.7523,721.9803,334.5342,722.389,334.8138,722.7678,335.0212,722.9008,335.0763,722.8878,335.3638,723.0817,335.737,723.1973,336.0778,723.4085,336.4582,723.5,336.7889,723.7391,336.7889,724.0857,345.9149,724.1711,355.0409,724.1793,364.1668,723.7546,373.2928,723.5,382.4188,723.6428,382.4779,723.5698,382.8619,722.985,383.0339,723.2696,383.566,722.8229,383.7952,722.7678,384.1866,722.8359,384.3509,722.3511,384.1805,722.0519,384.4583,721.8017,384.8543,721.3473,384.7573,721,384.9188,721,385.0241,710.5,385.2574,700,385.335,689.5,384.9149,679,385.206,668.5,384.3464,658,385.2032,647.5,385.467,637,384.9188,637.0567,385.0557,636.7246,384.9611,636.2313,384.4771,635.8561,384.2786,635.5065,384.1416,635.2322,384.1866,635.2141,384.179,635.0253,383.8079,635.1492,383.5664,634.7391,383.1036,634.5408,382.7286,634.5,382.4188,634.7283,382.4188,633.8332,373.2928,633.9809,364.1668,635.149,355.0409,634.9357,345.9149,634.5,336.7889,634.7262,336.8826,634.5473,336.3943,634.8912,336.1226,635.1212,335.8036,634.9403,335.3145,635.2322,335.0212,635.22,334.9917,635.6019,334.9135,636.0225,334.929,636.2924,334.5806,636.7055,334.5778,637,334.2889" style="stroke:#181818;stroke-width:4.0;"/><text fill="#000000" font-family="Chalkduster" font-size="24" lengthAdjust="spacing" textLength="69" x="644.5" y="368.1298">OCFL</text></g><!--entity NOCFL--><g id="elem_NOCFL"><polygon fill="none" points="761.5,334.2889,761.5,334.4991,771.6,333.8746,781.7,334.4822,791.8,334.6886,801.9,333.5756,812,334.2112,822.1,333.8625,832.2,333.9055,842.3,334.2208,852.4,333.5976,862.5,334.2889,862.5706,334.4594,862.7732,334.2413,863.1819,334.5209,863.6158,334.8613,863.9033,334.8483,864.2678,335.0212,864.2888,335.0299,864.4044,335.3707,864.6156,335.7511,864.7808,336.1123,865.0339,336.5101,865,336.7889,865.6711,336.7889,865.6793,345.9149,865.2546,355.0409,865.4636,364.1668,865.7022,373.2928,865,382.4188,864.7779,382.3268,865.0625,382.8589,864.6158,383.0881,864.7251,383.5475,864.2618,383.7699,864.2678,384.1866,864.259,384.1655,864.0088,384.5614,863.5544,384.4644,863.2205,384.6583,862.8967,384.8766,862.5,384.9188,862.5,385.335,852.4,384.9149,842.3,385.206,832.2,384.3464,822.1,385.2032,812,385.467,801.9,385.3633,791.8,385.5318,781.7,384.4357,771.6,384.2666,761.5,384.9188,761.4207,384.7274,761.1389,384.7542,760.7678,384.5654,760.5263,384.6893,760.0635,384.2792,759.7322,384.1866,759.6266,384.1428,759.6561,383.8621,759.234,383.3944,759.133,383.0597,759.3463,382.8551,759,382.4188,759.4357,382.4188,759.7345,373.2928,758.6782,364.1668,759.3192,355.0409,759.5904,345.9149,759,336.7889,758.8545,336.7287,759.1169,336.4232,759.3317,336.0979,759.6401,335.8114,759.5845,335.3742,759.7322,335.0212,759.7912,335.1636,760.0151,334.7042,760.3529,334.5197,760.8571,334.7369,761.055,334.2146,761.5,334.2889" style="stroke:#181818;stroke-width:4.0;"/><text fill="#000000" font-family="Chalkduster" font-size="24" lengthAdjust="spacing" textLength="86" x="769" y="368.1298">NOCFL</text></g><!--entity DOI--><g id="elem_DOI"><polygon fill="none" points="348.5,162.2889,348.5,162.4991,359,161.8746,369.5,162.4822,380,162.6886,390.5,161.5756,401,162.2112,411.5,162.2889,411.4456,162.1576,411.8046,162.3173,412.1984,162.5609,412.4725,162.5154,412.9848,163.0452,413.2678,163.0212,413.0737,162.9408,413.3533,163.3495,413.6937,163.7834,413.6807,164.0709,413.8746,164.4441,414,164.7889,413.9681,164.7889,414.1785,173.9149,414.2391,183.0409,414.5857,192.1668,414.6711,201.2928,414,210.4188,414.2092,210.5054,413.932,210.8048,413.8499,211.185,413.7769,211.569,413.1921,211.741,413.2678,212.1866,413.3543,212.3955,412.8764,212.2417,412.6288,212.6438,412.144,212.4734,411.8448,212.7512,411.5,212.9188,411.5,213.6604,401,212.87,390.5,213.0241,380,213.2574,369.5,213.335,359,212.9149,348.5,212.9188,348.5366,213.0072,348.0734,212.5961,347.8292,212.7135,347.5093,212.6483,347.1425,212.4699,346.7322,212.1866,346.921,212.2647,346.437,211.7714,346.2385,211.3963,346.1015,211.0466,346.1283,210.7648,346,210.4188,345.8035,210.4188,346.6814,201.2928,345.8253,192.1668,345.6569,183.0409,346.2283,173.9149,346,164.7889,345.7946,164.7039,345.9866,164.3692,346.4927,164.1646,346.5735,163.7839,346.812,163.4684,346.7322,163.0212,346.6912,162.9221,347.1265,162.973,347.5147,162.9101,347.7326,162.4364,348.1342,162.4059,348.5,162.2889" style="stroke:#181818;stroke-width:4.0;"/><text fill="#000000" font-family="Chalkduster" font-size="24" lengthAdjust="spacing" textLength="48" x="356" y="196.1298">DOI</text></g><!--entity ARCP--><g id="elem_ARCP"><polygon fill="none" points="452,162.2889,452,162.4991,461.7778,161.8746,471.5556,162.4822,481.3333,162.6886,491.1111,161.5756,500.8889,162.2112,510.6667,161.8625,520.4444,161.9055,530.2222,162.2208,540,162.2889,539.9118,162.076,540.4242,162.6059,540.6267,162.3877,541.0354,162.6674,541.4693,163.0078,541.7678,163.0212,541.7414,163.0102,541.9352,163.3834,542.0508,163.7242,542.2621,164.1046,542.4272,164.4659,542.5,164.7889,543.0857,164.7889,543.1711,173.9149,543.1793,183.0409,542.7546,192.1668,542.9636,201.2928,542.5,210.4188,542.7163,210.5084,542.1315,210.6803,542.4161,211.2124,541.9693,211.4416,542.0786,211.9011,541.7678,212.1866,541.7046,212.0341,541.4055,212.3119,541.1553,212.7078,540.7009,212.6109,540.367,212.8048,540,212.9188,540,213.2574,530.2222,213.335,520.4444,212.9149,510.6667,213.206,500.8889,212.3464,491.1111,213.2032,481.3333,213.467,471.5556,213.3633,461.7778,213.5318,452,212.9188,451.9384,212.77,451.5633,212.5715,451.2136,212.4345,450.9318,212.4613,450.5607,212.2725,450.2322,212.1866,450.4421,212.2735,450.032,211.8107,449.8337,211.4357,449.8632,211.155,449.4411,210.6873,449.5,210.4188,448.9809,210.4188,450.149,201.2928,449.9357,192.1668,450.2345,183.0409,449.1782,173.9149,449.5,164.7889,449.5983,164.8297,449.8283,164.5107,449.6474,164.0216,449.9098,163.7161,450.1246,163.3908,450.2322,163.0212,450.3154,163.2219,450.5853,162.8734,450.9983,162.8707,451.2223,162.4113,451.5601,162.2268,452,162.2889" style="stroke:#181818;stroke-width:4.0;"/><text fill="#000000" font-family="Chalkduster" font-size="24" lengthAdjust="spacing" textLength="73" x="459.5" y="196.1298">ARCP</text></g><!--entity Managed URIs--><g id="elem_Managed URIs"><polygon fill="none" points="329.5,334.2889,329.5,334.4991,339.5476,333.8746,349.5952,334.4822,359.6429,334.6886,369.6905,333.5756,379.7381,334.2112,389.7857,333.8625,399.8333,333.9055,409.881,334.2208,419.9286,333.5976,429.9762,334.8426,440.0238,333.6587,450.0714,334.0912,460.119,334.7209,470.1667,334.2032,480.2143,334.3572,490.2619,334.257,500.3095,334.4675,510.3571,334.5281,520.4048,334.8746,530.4524,334.96,540.5,334.2889,540.5866,334.4981,540.886,334.5138,541.2662,334.7246,541.6502,334.9445,541.8222,334.6526,542.2678,335.0212,542.4767,335.1077,542.3229,335.3369,542.7251,335.7964,542.5547,336.0187,542.8325,336.4267,543,336.7889,543.7416,336.7889,542.9513,345.9149,543.1053,355.0409,543.3386,364.1668,543.4162,373.2928,543,382.4188,542.9988,382.4183,542.942,382.809,542.5308,383.0529,542.6482,383.5157,542.583,383.9029,542.2678,384.1866,542.3245,384.3234,541.9924,384.5218,541.499,384.3307,541.1239,384.425,540.7743,384.581,540.5,384.9188,540.5,384.8599,530.4524,384.7223,520.4048,385.6002,510.3571,384.7441,500.3095,384.5757,490.2619,385.1471,480.2143,384.2519,470.1667,384.3997,460.119,385.5677,450.0714,385.3545,440.0238,385.6533,429.9762,384.597,419.9286,385.238,409.881,385.5092,399.8333,384.4464,389.7857,384.8229,379.7381,385.0448,369.6905,385.5705,359.6429,384.9146,349.5952,385.3814,339.5476,384.365,329.5,384.9188,329.4136,384.7102,329.2107,384.9274,328.7014,384.4051,328.5043,384.6362,328.1121,384.3966,327.7322,384.1866,327.6497,384.1524,327.4768,383.7879,327.5806,383.538,327.2007,383.0877,327.3287,382.8478,327,382.4188,326.4473,382.4188,327.6174,373.2928,327.4843,364.1668,327.245,355.0409,327.0472,345.9149,327,336.7889,327.2238,336.8816,327.3354,336.5137,327.345,336.1034,327.5219,335.7625,327.5457,335.3581,327.7322,335.0212,327.8236,335.2418,328.1055,334.9224,328.4614,334.7814,328.7153,334.3945,329.0948,334.3106,329.5,334.2889" style="stroke:#181818;stroke-width:4.0;"/><text fill="#000000" font-family="Chalkduster" font-size="24" lengthAdjust="spacing" textLength="196" x="337" y="368.1298">Managed URIs</text></g><!--entity ldac--><g id="elem_ldac"><polygon fill="none" points="49.5,162.2889,49.5,162.4991,59.4545,161.8746,69.4091,162.4822,79.3636,162.6886,89.3182,161.5756,99.2727,162.2112,109.2273,161.8625,119.1818,161.9055,129.1364,162.2208,139.0909,161.5976,149.0455,162.8426,159,161.6587,168.9545,162.0912,178.9091,162.7209,188.8636,162.2032,198.8182,162.3572,208.7727,162.257,218.7273,162.4675,228.6818,162.5281,238.6364,162.8746,248.5909,162.96,258.5455,162.9682,268.5,162.2889,268.5325,162.3674,268.9127,162.5782,269.2967,162.7981,269.4687,162.5062,270.0008,163.0837,270.2678,163.0212,270.1765,162.9834,270.5786,163.4428,270.4082,163.6651,270.686,164.0731,271.0819,164.53,271,164.7889,270.9513,164.7889,271.1053,173.9149,271.3386,183.0409,271.4162,192.1668,270.9961,201.2928,271,210.4188,271.0885,210.4554,270.6773,210.6993,270.7947,211.1622,270.7295,211.5494,270.5511,211.8897,270.2678,212.1866,270.346,212.3753,269.8526,212.1842,269.4775,212.2786,269.1278,212.4345,268.846,212.7542,268.5,212.9188,268.5,212.7223,258.5455,213.6002,248.5909,212.7441,238.6364,212.5757,228.6818,213.1471,218.7273,212.2519,208.7727,212.3997,198.8182,213.5677,188.8636,213.3545,178.9091,213.6533,168.9545,212.597,159,213.238,149.0455,213.5092,139.0909,212.4464,129.1364,212.8229,119.1818,213.0448,109.2273,213.5705,99.2727,212.9146,89.3182,213.3814,79.3636,212.365,69.4091,212.2415,59.4545,213.4224,49.5,212.9188,49.4085,212.698,49.2114,212.9291,48.8193,212.6895,48.4052,212.3969,48.0407,212.224,47.7322,212.1866,47.8735,212.2451,47.4936,211.7948,47.6216,211.5549,47.1227,211.0554,47.3366,210.8511,47,210.4188,47.4843,210.4188,47.245,201.2928,47.0472,192.1668,47.7266,183.0409,47.6136,173.9149,47,164.7889,47.0521,164.8105,47.229,164.4696,47.2528,164.0652,47.66,163.8197,47.6335,163.3945,47.7322,163.0212,47.7542,163.0743,48.0082,162.6874,48.3876,162.6035,48.8606,162.7453,49.2013,162.5677,49.5,162.2889" style="stroke:#181818;stroke-width:4.0;"/><text fill="#000000" font-family="Chalkduster" font-size="24" lengthAdjust="spacing" textLength="204" x="57" y="196.1298">Language Data</text></g><!--entity wr--><g id="elem_wr"><polygon fill="none" points="53,334.2889,53,334.4991,63.0952,333.8746,73.1905,334.4822,83.2857,334.6886,93.381,333.5756,103.4762,334.2112,113.5714,333.8625,123.6667,333.9055,133.7619,334.2208,143.8571,333.5976,153.9524,334.8426,164.0476,333.6587,174.1429,334.0912,184.2381,334.7209,194.3333,334.2032,204.4286,334.3572,214.5238,334.257,224.619,334.4675,234.7143,334.5281,244.8095,334.8746,254.9048,334.96,265,334.2889,265.0866,334.4981,265.386,334.5138,265.7662,334.7246,266.1502,334.9445,266.3222,334.6526,266.7678,335.0212,266.9767,335.1077,266.8229,335.3369,267.2251,335.7964,267.0547,336.0187,267.3325,336.4267,267.5,336.7889,268.2416,336.7889,267.4513,345.9149,267.6053,355.0409,267.8386,364.1668,267.9162,373.2928,267.5,382.4188,267.4988,382.4183,267.442,382.809,267.0308,383.0529,267.1482,383.5157,267.083,383.9029,266.7678,384.1866,266.8245,384.3234,266.4924,384.5218,265.999,384.3307,265.6239,384.425,265.2743,384.581,265,384.9188,265,384.8599,254.9048,384.7223,244.8095,385.6002,234.7143,384.7441,224.619,384.5757,214.5238,385.1471,204.4286,384.2519,194.3333,384.3997,184.2381,385.5677,174.1429,385.3545,164.0476,385.6533,153.9524,384.597,143.8571,385.238,133.7619,385.5092,123.6667,384.4464,113.5714,384.8229,103.4762,385.0448,93.381,385.5705,83.2857,384.9146,73.1905,385.3814,63.0952,384.365,53,384.9188,52.9136,384.7102,52.7107,384.9274,52.2014,384.4051,52.0043,384.6362,51.6121,384.3966,51.2322,384.1866,51.1497,384.1524,50.9768,383.7879,51.0806,383.538,50.7007,383.0877,50.8287,382.8478,50.5,382.4188,49.9473,382.4188,51.1174,373.2928,50.9843,364.1668,50.745,355.0409,50.5472,345.9149,50.5,336.7889,50.7238,336.8816,50.8354,336.5137,50.845,336.1034,51.0219,335.7625,51.0457,335.3581,51.2322,335.0212,51.3236,335.2418,51.6055,334.9224,51.9614,334.7814,52.2153,334.3945,52.5948,334.3106,53,334.2889" style="stroke:#181818;stroke-width:4.0;"/><text fill="#000000" font-family="Chalkduster" font-size="24" lengthAdjust="spacing" textLength="197" x="60.5" y="368.1298">Workflow Run</text></g><!--link ro to storage--><!--link OCFL to NOCFL--><!--link ldac to wr--><!--SRC=[RL71QeGm4BtdAwQvn_x08XIbO77NnQNqK4e99gkoCIb9n2x5Vs-CQvj5SvWayzwyDymyjB8IFUEV7PLNYA97HYqbxaDhtd5fYR5NmIFxRH52cbUMobfmm2VtO5GpWs6tCyidZk47WJi-VD7gucG0bmL9DBKS0pMWrOqpdL2nQdX78wLhl0M_d8e3oTCP6n5QbLkbdPctCFDxswT8dlDDXyC_ClheEYLC3VAzQHdZyeF4YxA79peGtTQD3HXUPMulq3vcgPlKqay0f4M6rzcdCZbkfFT-BGnUoypSDHeOQNLk1G_Cxk3StVqqcjIjsSzAC5fjCT-Klfo56g3ifISE-eysrQn6SyD7DBhu2m00]--></g></svg>