<?xml version="1.0" encoding="UTF-8" standalone="no"?><svg xmlns="http://www.w3.org/2000/svg" xmlns:xlink="http://www.w3.org/1999/xlink" contentStyleType="text/css" height="1332px" preserveAspectRatio="none" style="width:1189px;height:1332px;background:#FFFFFF;" version="1.1" viewBox="0 0 1189 1332" width="1189px" zoomAndPan="magnify"><defs/><g><text fill="#000000" font-family="Chalkduster" font-size="42" font-weight="bold" lengthAdjust="spacing" textLength="784" x="195.5" y="51.7215">Standards-based storage "Stack"</text><!--cluster Standards--><g id="cluster_Standards"><polygon fill="#ADD8E6" points="9.5,132.8912,9.5,133.1013,19.5154,132.4768,29.5308,133.0844,39.5462,133.2908,49.5615,132.1778,59.5769,132.8134,69.5923,132.4647,79.6077,132.5077,89.6231,132.823,99.6385,132.1998,109.6538,133.4448,119.6692,132.2609,129.6846,132.6934,139.7,133.3231,149.7154,132.8054,159.7308,132.9594,169.7462,132.8592,179.7615,133.0697,189.7769,133.1303,199.7923,133.4769,209.8077,133.5622,219.8231,133.5704,229.8385,133.1458,239.8538,133.3547,249.8692,133.5934,259.8846,132.17,269.9,133.5697,279.9154,132.5947,289.9308,133.425,299.9462,132.3961,309.9615,132.8227,319.9769,133.6328,329.9923,132.8424,340.0077,132.9965,350.0231,133.2298,360.0385,133.3074,370.0538,132.8873,380.0692,133.1784,390.0846,132.3187,400.1,133.1755,410.1154,133.4394,420.1308,133.3357,430.1462,133.5042,440.1615,132.4081,450.1769,132.239,460.1923,132.2698,470.2077,132.8323,480.2231,132.6946,490.2385,133.5726,500.2538,132.7165,510.2692,132.5481,520.2846,133.1194,530.3,132.2243,540.3154,132.372,550.3308,133.5401,560.3462,133.3268,570.3615,133.6257,580.3769,132.5694,590.3923,133.2104,600.4077,133.4816,610.4231,132.4188,620.4385,132.7953,630.4538,133.0171,640.4692,133.5429,650.4846,132.887,660.5,132.8912,660.559,133.0336,660.7829,132.8671,661.1207,132.9755,661.6249,133.4856,661.8228,133.2562,662.2678,133.6234,662.4245,133.6883,662.4778,134.0033,662.4782,134.2963,662.5982,134.6389,662.9948,135.0961,663,135.3912,662.7007,135.3912,663.5919,145.3828,662.4473,155.3744,663.6174,165.366,663.4843,175.3575,663.245,185.3491,663.0472,195.3407,663.7266,205.3323,663.6136,215.3239,663.1693,225.3155,663.2682,235.3071,662.8697,245.2987,663.7165,255.2903,663.1549,265.2819,663.1726,275.2735,662.3916,285.2651,662.5948,295.2567,663.5307,305.2483,663.4298,315.2399,662.9571,325.2315,662.6778,335.2231,662.7811,345.2147,662.3138,355.2063,663.4147,365.1979,663.7396,375.1895,663.5264,385.1811,663.6949,395.1727,662.8633,405.1643,663.0872,415.1559,662.6124,425.1475,663.284,435.1391,663.2468,445.1307,663.5524,455.1223,662.7703,465.1139,662.8656,475.1054,663.4435,485.097,663.5673,495.0886,662.4875,505.0802,662.8061,515.0718,663.1493,525.0634,662.3892,535.055,663.3534,545.0466,663.258,555.0382,662.8992,565.0298,663.1422,575.0214,663.7287,585.013,662.6871,595.0046,663.315,604.9962,663.2856,614.9878,663.1158,624.9794,663.1409,634.971,663.1135,644.9626,662.3758,654.9542,662.5992,664.9458,662.5385,674.9374,663.0638,684.929,663.0881,694.9206,663.1617,704.9122,662.709,714.9038,662.9325,724.8954,662.8798,734.887,663.5769,744.8786,663.4266,754.8702,662.5145,764.8617,662.9271,774.8533,662.4228,784.8449,663.2884,794.8365,663.6085,804.8281,663.5446,814.8197,662.5644,824.8113,663.464,834.8029,662.2572,844.7945,663.2002,854.7861,662.7007,864.7777,663.0967,874.7693,663.2403,884.7609,663.4721,894.7525,662.2801,904.7441,663.4755,914.7357,663.1782,924.7273,663.3553,934.7189,663.7478,944.7105,663.0055,954.7021,663.1753,964.6937,663.2134,974.6853,663.1972,984.6769,662.9992,994.6685,663.7107,1004.6601,662.3903,1014.6517,663.5653,1024.6433,662.376,1034.6349,662.4597,1044.6265,663.04,1054.6181,663.0283,1064.6096,662.5072,1074.6012,663.4137,1084.5928,663.1089,1094.5844,663.7267,1104.576,663.6671,1114.5676,662.5517,1124.5592,662.6021,1134.5508,662.8708,1144.5424,663.3555,1154.534,663.403,1164.5256,663.3012,1174.5172,662.658,1184.5088,663.6364,1194.5004,663.6338,1204.492,662.9527,1214.4836,662.7609,1224.4752,662.5986,1234.4668,662.7854,1244.4584,663.1374,1254.45,662.9316,1264.4416,662.5822,1274.4332,663.4874,1284.4248,662.5411,1294.4164,663.5024,1304.408,663.4272,1314.3996,663,1324.3912,663.1145,1324.4386,663.0668,1324.8331,662.6314,1325.0669,662.4681,1325.4135,662.574,1325.8716,662.2678,1326.1589,662.1916,1325.9751,661.8844,1326.2333,661.5754,1326.4874,661.2159,1326.6194,660.8078,1326.6343,660.5,1326.8912,660.5,1326.8482,650.4846,1327.6358,640.4692,1327.5396,630.4538,1326.2949,620.4385,1326.9697,610.4231,1326.3773,600.4077,1326.8648,590.3923,1327.1842,580.3769,1327.311,570.3615,1326.2264,560.3462,1327.2917,550.3308,1326.8996,540.3154,1326.3358,530.3,1326.4201,520.2846,1327.2178,510.2692,1327.141,500.2538,1326.8747,490.2385,1326.2191,480.2231,1327.5493,470.2077,1326.5793,460.1923,1326.3631,450.1769,1326.8238,440.1615,1327.4809,430.1462,1327.5066,420.1308,1326.9263,410.1154,1326.74,400.1,1327.0609,390.0846,1327.0774,380.0692,1326.3834,370.0538,1327.3051,360.0385,1327.45,350.0231,1326.6754,340.0077,1326.462,329.9923,1327.5658,319.9769,1326.9122,309.9615,1326.891,299.9462,1327.1902,289.9308,1326.2455,279.9154,1327.4211,269.9,1326.8757,259.8846,1327.56,249.8692,1326.6753,239.8538,1327.3002,229.8385,1326.4472,219.8231,1327.1362,209.8077,1327.2705,199.7923,1326.5638,189.7769,1327.2542,179.7615,1326.3197,169.7462,1326.4207,159.7308,1327.574,149.7154,1327.5755,139.7,1327.4597,129.6846,1326.5308,119.6692,1327.2754,109.6538,1326.4191,99.6385,1326.9493,89.6231,1326.8899,79.6077,1326.6287,69.5923,1327.5071,59.5769,1327.3344,49.5615,1326.5704,39.5462,1327.4178,29.5308,1326.983,19.5154,1326.3076,9.5,1326.8912,9.4702,1326.8193,9.0794,1326.583,8.7752,1326.5554,8.3591,1326.2581,8.0092,1326.1205,7.7322,1326.1589,7.7539,1326.1679,7.5487,1325.79,7.4213,1325.4444,7.2488,1325.08,7.198,1324.7661,7,1324.3912,6.4449,1324.3912,7.1601,1314.3996,6.2569,1304.408,7.296,1294.4164,7.5928,1284.4248,7.5221,1274.4332,7.3613,1264.4416,7.1922,1254.45,7.1057,1244.4584,6.36,1234.4668,7.4465,1224.4752,7.3296,1214.4836,6.8466,1204.492,6.9942,1194.5004,6.7914,1184.5088,7.2177,1174.5172,7.6805,1164.5256,6.6461,1154.534,7.4689,1144.5424,6.9108,1134.5508,6.6207,1124.5592,6.5681,1114.5676,6.3553,1104.576,6.5591,1094.5844,7.0363,1084.5928,7.273,1074.6012,7.5762,1064.6096,7.4201,1054.6181,6.2886,1044.6265,7.619,1034.6349,7.4861,1024.6433,7.5407,1014.6517,7.5219,1004.6601,6.3409,994.6685,6.7423,984.6769,7.316,974.6853,6.5185,964.6937,6.8971,954.7021,7.067,944.7105,7.3261,934.7189,7.0458,924.7273,7.7447,914.7357,7.4114,904.7441,7.2561,894.7525,6.4601,884.7609,7.3388,874.7693,6.4255,864.7777,7.3057,854.7861,7.0078,844.7945,7.2995,834.8029,6.9126,824.8113,6.8039,814.8197,6.2591,804.8281,6.7856,794.8365,6.2951,784.8449,6.7539,774.8533,7.4379,764.8617,7.1607,754.8702,6.5485,744.8786,7.2458,734.887,7.0656,724.8954,7.5433,714.9038,7.5649,704.9122,7.0937,694.9206,6.821,684.929,6.7855,674.9374,6.9936,664.9458,7.6691,654.9542,6.3263,644.9626,6.8361,634.971,7.2668,624.9794,7.7317,614.9878,7.2119,604.9962,6.8018,595.0046,6.2621,585.013,6.5762,575.0214,6.7781,565.0298,7.3398,555.0382,7.3695,545.0466,7.0518,535.055,6.867,525.0634,6.2804,515.0718,7.129,505.0802,7.4354,495.0886,7.6829,485.097,7.0983,475.1054,7.0799,465.1139,6.7798,455.1223,7.2487,445.1307,6.53,435.1391,7.5161,425.1475,6.6943,415.1559,6.4698,405.1643,7.2569,395.1727,7.4718,385.1811,7.0573,375.1895,6.8789,365.1979,7.1579,355.2063,6.9753,345.2147,6.9049,335.2231,7.0769,325.2315,6.668,315.2399,7.3895,305.2483,7.6875,295.2567,6.6464,285.2651,6.7656,275.2735,6.5314,265.2819,7.2369,255.2903,6.9062,245.2987,7.5514,235.3071,6.6998,225.3155,6.6411,215.3239,7.2968,205.3323,6.7755,195.3407,7.2669,185.3491,7.2796,175.3575,7.4358,165.366,6.5152,155.3744,7.088,145.3828,7,135.3912,7.1648,135.4594,6.9792,134.9683,7.4482,134.7484,7.3348,134.2872,7.6341,133.9969,7.7322,133.6234,7.8155,133.8244,8.0054,133.2828,8.5315,133.5529,8.7829,133.1599,9.1049,132.9372,9.5,132.8912" style="stroke:#181818;stroke-width:4.0;"/><text fill="#000000" font-family="Chalkduster" font-size="24" font-style="italic" lengthAdjust="spacing" textLength="170" x="250" y="158.732">«standards»</text><text fill="#000000" font-family="Chalkduster" font-size="24" font-weight="bold" lengthAdjust="spacing" textLength="138" x="266" y="189.3619">Standards</text></g><!--cluster ro--><g id="cluster_ro"><path d="M231.5,915.8912 L231.5,916.4516 L241.2692,914.7863 L251.0385,916.4066 L260.8077,916.957 L270.5769,913.9888 L280.3462,915.6839 L290.1154,914.7538 L299.8846,914.8685 L309.6538,915.7094 L319.4231,914.0475 L329.1923,917.3675 L338.9615,914.2104 L348.7308,915.3638 L358.5,915.8912 L361,918.3912 L361.3761,918.4683 L362.3253,925.2018 L363.8594,932.0553 L365.1722,938.8634 L366.7555,945.7269 L368,952.521 L368,953.1587 L378.0192,954.0828 L388.0385,954.3105 L398.0577,954.3323 L408.0769,953.2 L418.0962,953.7572 L428.1154,954.3936 L438.1346,950.5978 L448.1538,954.3304 L458.1731,951.7303 L468.1923,953.9445 L478.2115,951.2009 L488.2308,952.3383 L498.25,954.4986 L508.2692,952.391 L518.2885,952.8018 L528.3077,953.424 L538.3269,953.6309 L548.3462,952.5106 L558.3654,953.2869 L568.3846,950.9945 L578.4038,953.2794 L588.4231,953.9828 L598.4423,953.7064 L608.4615,954.1557 L618.4808,951.2328 L628.5,952.521 L631,955.021 L629.2608,955.021 L629.3429,965.3018 L630.843,975.5827 L630.4759,985.8635 L632.8171,996.1444 L630.5342,1006.4252 L630.0852,1016.7061 L631.6087,1026.9869 L629.2218,1037.2678 L629.6157,1047.5486 L632.7305,1057.8295 L632.1618,1068.1103 L631,1078.3912 L628.5,1080.8912 L628.5,1082.8498 L618.575,1080.033 L608.65,1081.7424 L598.725,1082.4656 L588.8,1079.6314 L578.875,1080.6355 L568.95,1081.2271 L559.025,1082.6292 L549.1,1080.88 L539.175,1082.1247 L529.25,1079.4144 L519.325,1079.0851 L509.4,1082.2341 L499.475,1078.9793 L489.55,1082.2484 L479.625,1081.4422 L469.7,1080.1767 L459.775,1079.9478 L449.85,1082.1145 L439.925,1080.0929 L430,1082.4695 L420.075,1079.4172 L410.15,1082.5376 L400.225,1082.1826 L390.3,1081.5444 L380.375,1081.0171 L370.45,1082.8288 L360.525,1082.5274 L350.6,1081.3425 L340.675,1081.6063 L330.75,1080.5438 L320.825,1082.8017 L310.9,1081.3041 L300.975,1081.3514 L291.05,1079.2689 L281.125,1079.8106 L271.2,1082.3065 L261.275,1082.0372 L251.35,1080.7767 L241.425,1080.032 L231.5,1080.8912 L229,1078.3912 L228.4162,1078.3912 L227.1702,1068.3912 L230.106,1058.3912 L230.9722,1048.3912 L230.4037,1038.3912 L230.8532,1028.3912 L228.6354,1018.3912 L229.2326,1008.3912 L227.9664,998.3912 L229.7574,988.3912 L229.658,978.3912 L230.473,968.3912 L228.3876,958.3912 L228.6416,948.3912 L230.1826,938.3912 L230.5129,928.3912 L229,918.3912 L231.5,915.8912 " fill="none" style="stroke:#000000;stroke-width:4.0;"/><path d="M229,952.521 L229,952.8012 L238.9286,951.9686 L248.8571,952.7787 L258.7857,953.0539 L268.7143,951.5698 L278.6429,952.4174 L288.5714,951.9523 L298.5,952.0097 L308.4286,952.4301 L318.3571,951.5992 L328.2857,953.2592 L338.2143,951.6806 L348.1429,952.2573 L358.0714,953.0969 L368,952.521 " fill="none" style="stroke:#000000;stroke-width:4.0;"/><text fill="#000000" font-family="Chalkduster" font-size="24" font-weight="bold" lengthAdjust="spacing" textLength="126" x="233" y="941.732">RO-Crate</text></g><!--cluster sstorage--><g id="cluster_sstorage"><polygon fill="none" points="283.5,1129.8912,283.5,1130.1013,293.6034,1129.4768,303.7069,1130.0844,313.8103,1130.2908,323.9138,1129.1778,334.0172,1129.8134,344.1207,1129.4647,354.2241,1129.5077,364.3276,1129.823,374.431,1129.1998,384.5345,1130.4448,394.6379,1129.2609,404.7414,1129.6934,414.8448,1130.3231,424.9483,1129.8054,435.0517,1129.9594,445.1552,1129.8592,455.2586,1130.0697,465.3621,1130.1303,475.4655,1130.4769,485.569,1130.5622,495.6724,1130.5704,505.7759,1130.1458,515.8793,1130.3547,525.9828,1130.5934,536.0862,1129.17,546.1897,1130.5697,556.2931,1129.5947,566.3966,1130.425,576.5,1129.8912,576.4369,1129.7387,576.8448,1130.0165,577.3017,1130.4124,577.5544,1130.3155,577.9276,1130.5094,578.2678,1130.6234,578.3721,1130.6666,578.5424,1131.03,578.5595,1131.33,578.7956,1131.7207,578.6773,1131.9646,579,1132.3912,579.2844,1132.3912,579.5482,1142.3912,579.4445,1152.3912,579.613,1162.3912,578.5169,1172.3912,578.3478,1182.3912,578.3786,1192.3912,578.9411,1202.3912,578.8035,1212.3912,579.6814,1222.3912,578.8253,1232.3912,578.6569,1242.3912,579.2283,1252.3912,578.3332,1262.3912,578.4809,1272.3912,579.649,1282.3912,579,1292.3912,579.1342,1292.4467,579.0797,1292.8384,578.608,1293.0572,578.659,1293.4925,578.596,1293.8807,578.2678,1294.1589,578.2075,1294.0134,577.902,1294.2759,577.5767,1294.4906,577.2902,1294.799,576.853,1294.7434,576.5,1294.8912,576.5,1295.3537,566.3966,1294.3374,556.2931,1294.2139,546.1897,1295.3948,536.0862,1294.1742,525.9828,1295.4001,515.8793,1295.0978,505.7759,1294.6232,495.6724,1294.5374,485.569,1295.3499,475.4655,1294.5918,465.3621,1295.483,455.2586,1294.3384,445.1552,1295.5086,435.0517,1295.3755,424.9483,1295.1361,414.8448,1294.9384,404.7414,1295.6178,394.6379,1295.5047,384.5345,1295.0604,374.431,1295.1593,364.3276,1294.7609,354.2241,1295.6076,344.1207,1295.046,334.0172,1295.0637,323.9138,1294.2828,313.8103,1294.4859,303.7069,1295.4219,293.6034,1295.3209,283.5,1294.8912,283.4945,1294.8779,283.1054,1294.6455,282.765,1294.5308,282.3518,1294.2405,282.1387,1294.4331,281.7322,1294.1589,281.96,1294.2533,281.7479,1293.8725,281.6534,1293.5405,281.2508,1293.0808,281.1733,1292.7558,281,1292.3912,280.6124,1292.3912,281.284,1282.3912,281.2468,1272.3912,281.5524,1262.3912,280.7703,1252.3912,280.8656,1242.3912,281.4435,1232.3912,281.5673,1222.3912,280.4875,1212.3912,280.8061,1202.3912,281.1493,1192.3912,280.3892,1182.3912,281.3534,1172.3912,281.258,1162.3912,280.8992,1152.3912,281.1422,1142.3912,281,1132.3912,281.2244,1132.4841,281.0501,1131.9977,281.3899,1131.7242,281.5273,1131.3669,281.6214,1130.9917,281.7322,1130.6234,281.7502,1130.6668,282.1003,1130.5119,282.3597,1130.1383,282.7418,1130.0606,283.0876,1129.8955,283.5,1129.8912" style="stroke:#181818;stroke-width:4.0;"/><text fill="#000000" font-family="Chalkduster" font-size="24" font-weight="bold" lengthAdjust="spacing" textLength="101" x="379.5" y="1155.732">Storage</text></g><!--cluster PIDs--><g id="cluster_PIDs"><polygon fill="none" points="361.5,516.8912,361.5,517.1013,371.3889,516.4768,381.2778,517.0844,391.1667,517.2908,401.0556,516.1778,410.9444,516.8134,420.8333,516.4647,430.7222,516.5077,440.6111,516.823,450.5,516.1998,460.3889,517.4448,470.2778,516.2609,480.1667,516.6934,490.0556,517.3231,499.9444,516.8054,509.8333,516.9594,519.7222,516.8592,529.6111,517.0697,539.5,517.1303,549.3889,517.4769,559.2778,517.5622,569.1667,517.5704,579.0556,517.1458,588.9444,517.3547,598.8333,517.5934,608.7222,516.17,618.6111,517.5697,628.5,516.8912,628.4622,516.7998,628.9216,517.202,629.144,517.0316,629.5519,517.3094,630.0088,517.7053,630.2678,517.6234,630.2528,517.6172,630.4466,517.9904,630.6649,518.3737,630.8353,518.7371,630.8524,519.0371,631,519.3912,631.2872,519.3912,630.4276,529.5202,631.2844,539.6492,631.5482,549.7783,631.4445,559.9073,631.613,570.0363,630.5169,580.1654,630.3478,590.2944,630.3786,600.4234,630.9411,610.5525,630.8035,620.6815,631.6814,630.8105,630.8253,640.9395,630.6569,651.0686,631.2283,661.1976,630.3332,671.3266,630.4809,681.4557,631.649,691.5847,631.4357,701.7137,631.7345,711.8428,630.6782,721.9718,631.3192,732.1008,631.5904,742.2299,630.5276,752.3589,630.9041,762.4879,631.126,772.617,631.6518,782.746,630.9958,792.875,631.4626,803.0041,630.4462,813.1331,630.3227,823.2621,631,833.3912,631.1551,833.4554,630.6328,833.6533,630.8638,834.1632,630.6243,834.4782,630.3317,834.7712,630.2678,835.1589,630.2226,835.05,629.9727,835.4467,629.5225,835.3596,629.2826,835.7805,628.783,835.5745,628.5,835.8912,628.5,836.5086,618.6111,836.3755,608.7222,836.1361,598.8333,835.9384,588.9444,836.6178,579.0556,836.5047,569.1667,836.0604,559.2778,836.1593,549.3889,835.7609,539.5,836.6076,529.6111,836.046,519.7222,836.0637,509.8333,835.2828,499.9444,835.4859,490.0556,836.4219,480.1667,836.3209,470.2778,835.8482,460.3889,835.569,450.5,835.6722,440.6111,835.205,430.7222,836.3059,420.8333,836.6307,410.9444,836.4176,401.0556,836.5861,391.1667,835.7544,381.2778,835.9784,371.3889,835.5036,361.5,835.8912,361.5362,835.9786,361.1779,835.8207,360.8634,835.7684,360.41,835.3811,360.0686,835.264,359.7322,835.1589,359.8688,835.2155,359.7605,834.8777,359.2815,834.3864,359.2332,834.0735,359.1924,833.7638,359,833.3912,358.3892,833.3912,359.3534,823.2621,359.258,813.1331,358.8992,803.0041,359.1422,792.875,359.7287,782.746,358.6871,772.617,359.315,762.4879,359.2856,752.3589,359.1158,742.2299,359.1409,732.1008,359.1135,721.9718,358.3758,711.8428,358.5992,701.7137,358.5385,691.5847,359.0638,681.4557,359.0881,671.3266,359.1617,661.1976,358.709,651.0686,358.9325,640.9395,358.8798,630.8105,359.5769,620.6815,359.4266,610.5525,358.5145,600.4234,358.9271,590.2944,358.4228,580.1654,359.2884,570.0363,359.6085,559.9073,359.5446,549.7783,358.5644,539.6492,359.464,529.5202,359,519.3912,358.7712,519.2964,359.2081,519.0631,359.2007,518.6459,359.4691,518.3428,359.6598,518.0076,359.7322,517.6234,359.7925,517.7688,359.994,517.2552,360.5,517.4769,360.8156,517.2389,361.1918,517.147,361.5,516.8912" style="stroke:#181818;stroke-width:4.0;"/><text fill="#000000" font-family="Chalkduster" font-size="24" font-weight="bold" lengthAdjust="spacing" textLength="60" x="465" y="542.732">PIDs</text></g><!--cluster Profiles--><g id="cluster_Profiles"><polygon fill="none" points="41.5,259.8912,41.5,260.1013,51.3214,259.4768,61.1429,260.0844,70.9643,260.2908,80.7857,259.1778,90.6071,259.8134,100.4286,259.4647,110.25,259.5077,120.0714,259.823,129.8929,259.1998,139.7143,260.4448,149.5357,259.2609,159.3571,259.6934,169.1786,260.3231,179,259.8054,188.8214,259.9594,198.6429,259.8592,208.4643,260.0697,218.2857,260.1303,228.1071,260.4769,237.9286,260.5622,247.75,260.5704,257.5714,260.1458,267.3929,260.3547,277.2143,260.5934,287.0357,259.17,296.8571,260.5697,306.6786,259.5947,316.5,259.8912,316.5681,260.0556,316.7904,259.8852,317.1984,260.163,317.6553,260.5589,317.908,260.4619,318.2678,260.6234,318.3002,260.6368,318.5185,261.0201,318.6888,261.3836,318.7059,261.6836,318.942,262.0742,319,262.3912,318.4276,262.3912,319.2844,272.4087,319.5482,282.4262,319.4445,292.4438,319.613,302.4613,318.5169,312.4789,318.3478,322.4964,318.3786,332.514,318.9411,342.5315,318.8035,352.5491,319.6814,362.5666,318.8253,372.5841,318.6569,382.6017,319.2283,392.6192,318.3332,402.6368,318.4809,412.6543,319.649,422.6719,319.4357,432.6894,319.7345,442.707,318.6782,452.7245,319.3192,462.742,319.5904,472.7596,318.5276,482.7771,318.9041,492.7947,319.126,502.8122,319.6518,512.8298,318.9958,522.8473,319.4626,532.8648,318.4462,542.8824,318.3227,552.8999,319.5036,562.9175,318.2831,572.935,319.509,582.9526,319.2066,592.9701,318.7321,602.9877,318.6462,613.0052,319.4588,623.0227,318.7007,633.0403,319.5919,643.0578,318.4473,653.0754,319.6174,663.0929,319.4843,673.1105,319.245,683.128,319.0472,693.1455,319.7266,703.1631,319.6136,713.1806,319.1693,723.1982,319.2682,733.2157,318.8697,743.2333,319.7165,753.2508,319.1549,763.2684,319.1726,773.2859,318.3916,783.3034,318.5948,793.321,319.5307,803.3385,319.4298,813.3561,318.9571,823.3736,319,833.3912,318.9008,833.3501,318.7861,833.7168,318.4958,834.0107,318.6884,834.5047,318.642,834.8997,318.2678,835.1589,318.3349,835.321,318.0029,835.5194,317.5432,835.4097,317.2182,835.6251,316.8041,835.6254,316.5,835.8912,316.5,836.1752,306.6786,836.1379,296.8571,836.4435,287.0357,835.6615,277.2143,835.7568,267.3929,836.3346,257.5714,836.4585,247.75,835.3786,237.9286,835.6973,228.1071,836.0404,218.2857,835.2803,208.4643,836.2446,198.6429,836.1492,188.8214,835.7904,179,836.0334,169.1786,836.6198,159.3571,835.5783,149.5357,836.2061,139.7143,836.1768,129.8929,836.0069,120.0714,836.0321,110.25,836.0046,100.4286,835.267,90.6071,835.4903,80.7857,835.4296,70.9643,835.955,61.1429,835.9793,51.3214,836.0529,41.5,835.8912,41.4629,835.8016,41.1378,835.7239,40.7776,835.5612,40.5129,835.6295,40.1402,835.4367,39.7322,835.1589,39.5827,835.097,39.5633,834.7961,39.2616,834.3782,39.3817,834.1351,39.3338,833.8223,39,833.3912,39.5446,833.3912,38.5644,823.3736,39.464,813.3561,38.2572,803.3385,39.2002,793.321,38.7007,783.3034,39.0967,773.2859,39.2403,763.2684,39.4721,753.2508,38.2801,743.2333,39.4755,733.2157,39.1782,723.1982,39.3553,713.1806,39.7478,703.1631,39.0055,693.1455,39.1753,683.128,39.2134,673.1105,39.1972,663.0929,38.9992,653.0754,39.7107,643.0578,38.3903,633.0403,39.5653,623.0227,38.376,613.0052,38.4597,602.9877,39.04,592.9701,39.0283,582.9526,38.5072,572.935,39.4137,562.9175,39.1089,552.8999,39.7267,542.8824,39.6671,532.8648,38.5517,522.8473,38.6021,512.8298,38.8708,502.8122,39.3555,492.7947,39.403,482.7771,39.3012,472.7596,38.658,462.742,39.6364,452.7245,39.6338,442.707,38.9527,432.6894,38.7609,422.6719,38.5986,412.6543,38.7854,402.6368,39.1374,392.6192,38.9316,382.6017,38.5822,372.5841,39.4874,362.5666,38.5411,352.5491,39.5024,342.5315,39.4272,332.514,39.3719,322.4964,39.6925,312.4789,38.7541,302.4613,38.6994,292.4438,39.5189,282.4262,38.4031,272.4087,39,262.3912,38.9279,262.3613,39.182,262.0523,39.314,261.6928,39.329,261.2848,39.5726,260.9715,39.7322,260.6234,39.8272,260.8527,40.1685,260.6767,40.3633,260.1469,40.8029,260.2082,41.0809,259.8793,41.5,259.8912" style="stroke:#181818;stroke-width:4.0;"/><text fill="#000000" font-family="Chalkduster" font-size="24" font-weight="bold" lengthAdjust="spacing" textLength="107" x="125.5" y="285.732">Profiles</text></g><!--cluster arch--><g id="cluster_arch"><polygon fill="#00FF7F" points="689.5,83.8912,689.5,84.1013,699.5204,83.4768,709.5408,84.0844,719.5612,84.2908,729.5816,83.1778,739.602,83.8134,749.6224,83.4647,759.6429,83.5077,769.6633,83.823,779.6837,83.1998,789.7041,84.4448,799.7245,83.2609,809.7449,83.6934,819.7653,84.3231,829.7857,83.8054,839.8061,83.9594,849.8265,83.8592,859.8469,84.0697,869.8673,84.1303,879.8878,84.4769,889.9082,84.5622,899.9286,84.5704,909.949,84.1458,919.9694,84.3547,929.9898,84.5934,940.0102,83.17,950.0306,84.5697,960.051,83.5947,970.0714,84.425,980.0918,83.3961,990.1122,83.8227,1000.1327,84.6328,1010.1531,83.8424,1020.1735,83.9965,1030.1939,84.2298,1040.2143,84.3074,1050.2347,83.8873,1060.2551,84.1784,1070.2755,83.3187,1080.2959,84.1755,1090.3163,84.4394,1100.3367,84.3357,1110.3571,84.5042,1120.3776,83.4081,1130.398,83.239,1140.4184,83.2698,1150.4388,83.8323,1160.4592,83.6946,1170.4796,84.5726,1180.5,83.8912,1180.4777,83.8374,1180.8098,83.932,1181.2362,84.2544,1181.4756,84.1251,1181.848,84.3171,1182.2678,84.6234,1182.4676,84.7062,1182.5484,85.0325,1182.7869,85.4242,1182.608,85.643,1182.9519,86.0783,1183,86.3912,1183.5904,86.3912,1182.5276,96.3118,1182.9041,106.2324,1183.126,116.1531,1183.6518,126.0737,1182.9958,135.9943,1183.4626,145.915,1182.4462,155.8356,1182.3227,165.7562,1183.5036,175.6769,1182.2831,185.5975,1183.509,195.5181,1183.2066,205.4388,1182.7321,215.3594,1182.6462,225.28,1183.4588,235.2007,1182.7007,245.1213,1183.5919,255.042,1182.4473,264.9626,1183.6174,274.8832,1183.4843,284.8039,1183.245,294.7245,1183.0472,304.6451,1183.7266,314.5658,1183.6136,324.4864,1183.1693,334.407,1183.2682,344.3277,1182.8697,354.2483,1183.7165,364.1689,1183.1549,374.0896,1183.1726,384.0102,1182.3916,393.9308,1182.5948,403.8515,1183.5307,413.7721,1183.4298,423.6927,1182.9571,433.6134,1182.6778,443.534,1182.7811,453.4547,1182.3138,463.3753,1183.4147,473.2959,1183.7396,483.2166,1183.5264,493.1372,1183.6949,503.0578,1182.8633,512.9785,1183.0872,522.8991,1182.6124,532.8197,1183.284,542.7404,1183.2468,552.661,1183.5524,562.5816,1182.7703,572.5023,1182.8656,582.4229,1183.4435,592.3435,1183.5673,602.2642,1182.4875,612.1848,1182.8061,622.1054,1183.1493,632.0261,1182.3892,641.9467,1183.3534,651.8674,1183.258,661.788,1182.8992,671.7086,1183.1422,681.6293,1183.7287,691.5499,1182.6871,701.4705,1183,711.3912,1183.097,711.4313,1182.9415,711.7812,1182.7428,712.113,1182.6041,712.4698,1182.4492,712.8198,1182.2678,713.1589,1182.1881,712.9667,1181.8631,713.1819,1181.5018,713.3097,1181.2152,713.6179,1180.8648,713.7719,1180.5,713.8912,1180.5,714.0529,1170.4796,713.6002,1160.4592,713.8236,1150.4388,713.7709,1140.4184,714.468,1130.398,714.3177,1120.3776,713.4056,1110.3571,713.8182,1100.3367,713.3139,1090.3163,714.1795,1080.2959,714.4996,1070.2755,714.4357,1060.2551,713.4556,1050.2347,714.3551,1040.2143,713.1484,1030.1939,714.0913,1020.1735,713.5918,1010.1531,713.9879,1000.1327,714.1315,990.1122,714.3633,980.0918,713.1712,970.0714,714.3666,960.051,714.0693,950.0306,714.2465,940.0102,714.639,929.9898,713.8966,919.9694,714.0664,909.949,714.1046,899.9286,714.0884,889.9082,713.8903,879.8878,714.6019,869.8673,713.2814,859.8469,714.4564,849.8265,713.2672,839.8061,713.3508,829.7857,713.9312,819.7653,713.9194,809.7449,713.3983,799.7245,714.3049,789.7041,714,779.6837,714.6178,769.6633,714.5583,759.6429,713.4429,749.6224,713.4932,739.602,713.762,729.5816,714.2467,719.5612,714.2941,709.5408,714.1923,699.5204,713.5492,689.5,713.8912,689.5812,714.0871,689.2273,713.9399,688.7869,713.5837,688.4088,713.3782,688.0346,713.1818,687.7322,713.1589,687.6662,713.1316,687.6281,712.8229,687.4183,712.4431,687.1642,712.045,687.2965,711.8069,687,711.3912,686.5411,711.3912,687.5024,701.4705,687.4272,691.5499,687.3719,681.6293,687.6925,671.7086,686.7541,661.788,686.6994,651.8674,687.5189,641.9467,686.4031,632.0261,686.766,622.1054,687.1155,612.1848,687.0687,602.2642,686.6415,592.3435,686.957,582.4229,687.7446,572.5023,687.6485,562.5816,686.4037,552.661,687.0785,542.7404,686.4861,532.8197,686.9737,522.8991,687.293,512.9785,687.4199,503.0578,686.3353,493.1372,687.4005,483.2166,687.0084,473.2959,686.4447,463.3753,686.5289,453.4547,687.3266,443.534,687.2499,433.6134,686.9836,423.6927,686.3279,413.7721,687.6581,403.8515,686.6882,393.9308,686.4719,384.0102,686.9327,374.0896,687.5897,364.1689,687.6154,354.2483,687.0351,344.3277,686.8488,334.407,687.1698,324.4864,687.1862,314.5658,686.4922,304.6451,687.414,294.7245,687.5588,284.8039,686.7842,274.8832,686.5708,264.9626,687.6746,255.042,687.021,245.1213,686.9998,235.2007,687.299,225.28,686.3543,215.3594,687.53,205.4388,686.9846,195.5181,687.6688,185.5975,686.7841,175.6769,687.409,165.7562,686.556,155.8356,687.245,145.915,687.3793,135.9943,686.6727,126.0737,687.363,116.1531,686.4286,106.2324,686.5295,96.3118,687,86.3912,687.2103,86.4783,687.3572,86.1249,687.468,85.7566,687.3284,85.2845,687.7041,85.026,687.7322,84.6234,687.672,84.478,688.0932,84.4949,688.4392,84.3301,688.7594,84.1032,689.225,84.2273,689.5,83.8912" style="stroke:#181818;stroke-width:4.0;"/><text fill="#000000" font-family="Chalkduster" font-size="24" font-style="italic" lengthAdjust="spacing" textLength="169" x="850.5" y="109.732">«repository»</text><text fill="#000000" font-family="Chalkduster" font-size="24" font-weight="bold" lengthAdjust="spacing" textLength="252" x="887" y="140.3619">Architecture Stack</text><text fill="#000000" font-family="Chalkduster" font-size="24" font-weight="bold" lengthAdjust="spacing" textLength="12" x="929" y="170.9917"> </text><text fill="#000000" font-family="Chalkduster" font-size="24" font-weight="bold" lengthAdjust="spacing" textLength="12" x="929" y="201.6215"> </text></g><!--cluster stor--><g id="cluster_stor"><path d="M719,496.8912 L719,496.8912 L719.0482,496.9712 L720.0007,496.0733 L721.2357,495.6444 L722.3788,495.0628 L723.2192,493.979 L724.4785,493.5904 L724.4727,493.5563 L727.3351,492.9075 L730.227,492.4302 L733.1394,492.0722 L735.9812,491.3032 L738.9219,491.1099 L738.9465,491.3547 L740.8238,490.6373 L742.773,490.6348 L744.7309,490.7194 L746.6378,490.2966 L748.5715,490.1407 L748.5738,490.1709 L750.7245,489.9649 L752.8856,489.8966 L755.0416,489.7618 L757.2072,489.7538 L759.3418,489.3326 L759.3589,489.6303 L761.6626,489.5016 L763.9552,489.1809 L766.264,489.1413 L768.5736,489.1149 L770.8591,488.6709 L770.8449,488.3507 L773.2507,488.8663 L775.6096,488.3274 L778.0042,488.5901 L780.362,488.0273 L782.75,488.1412 L782.7491,488.1107 L787.4418,488.3261 L792.1126,487.8304 L796.7964,487.7543 L801.4812,487.7135 L806.1582,487.4185 L806.1616,487.6035 L810.2422,487.3426 L814.3285,487.3977 L818.4055,486.9415 L822.4964,487.248 L826.5781,487.0474 L826.58,487.291 L830.564,487.2137 L834.549,487.2574 L838.5296,486.739 L842.5134,486.6326 L846.5,486.8912 L846.5,486.8912 L846.4978,486.615 L850.4842,486.8962 L854.4681,486.8663 L858.4555,487.2878 L862.4369,486.9385 L866.4219,487.0474 L866.4191,486.895 L870.5077,487.2231 L874.5845,486.8995 L878.6696,487.0394 L882.7631,487.6327 L886.8418,487.4185 L886.8478,487.612 L891.5335,487.8893 L896.2007,487.5646 L900.8911,487.9939 L905.5765,488.2589 L910.25,488.1412 L910.2407,487.9314 L912.6263,488.2046 L915.0088,488.409 L917.3974,488.7484 L919.7626,488.5631 L922.1409,488.6709 L922.1527,488.8762 L924.4302,488.5575 L926.7305,488.6351 L929.0641,489.2914 L931.3365,488.8821 L933.6582,489.3326 L933.6751,489.5581 L935.8191,489.5858 L937.9574,489.5371 L940.1086,489.6606 L942.2897,490.1824 L944.4285,490.1407 L944.4152,490.0083 L946.3847,490.5963 L948.2638,490.2839 L950.2457,490.9953 L952.1697,491.1302 L954.0781,491.1099 L954.0966,491.2172 L956.9703,491.6267 L959.9101,492.4204 L962.7903,492.867 L965.6455,493.1684 L968.5215,493.5904 L968.583,493.6925 L969.5873,494.2009 L970.8772,495.1834 L971.8441,495.6298 L972.9439,496.2967 L974,496.8912 L972.3777,496.8912 L972.9194,506.6134 L975.4153,516.3356 L975.146,526.0578 L973.8855,535.78 L973.1409,545.5023 L973.4162,555.2245 L972.1702,564.9467 L975.106,574.6689 L975.9722,584.3912 L975.4037,594.1134 L975.8532,603.8356 L973.6354,613.5578 L974.2326,623.28 L972.9664,633.0023 L974.7574,642.7245 L974.658,652.4467 L975.473,662.1689 L974,671.8912 L974,671.8912 L973.9473,671.8037 L972.8735,672.5002 L971.9103,673.3803 L970.843,674.0876 L969.4996,674.3367 L968.5215,675.1919 L968.5069,675.107 L965.644,675.7534 L962.6982,675.9166 L959.8821,676.835 L956.9862,677.2893 L954.0781,677.6724 L954.0736,677.6279 L952.1545,677.9292 L950.2506,678.3823 L948.2744,678.1156 L946.3724,678.5871 L944.4285,678.6416 L944.438,678.7682 L942.2783,678.8546 L940.125,679.0273 L937.9701,679.1768 L935.7915,679.0115 L933.6582,679.4498 L933.648,679.2719 L931.343,679.3773 L929.0529,679.7427 L926.75,679.8858 L924.4485,680.0508 L922.1409,680.1114 L922.1351,679.9822 L919.7614,680.1874 L917.3821,680.2699 L915.0178,680.6854 L912.6366,680.7246 L910.25,680.6412 L910.2433,680.4255 L905.5674,680.7533 L900.8788,680.6738 L896.209,681.2029 L891.5318,681.4896 L886.8418,681.3638 L886.8462,681.6058 L882.7543,681.2445 L878.6776,681.7184 L874.5838,681.2564 L870.5075,681.7496 L866.4219,681.7349 L866.4208,681.6019 L862.4378,681.8091 L858.454,681.9042 L854.4704,682.0385 L850.4819,681.54 L846.5,681.8912 L846.5,681.8912 L846.5017,682.1025 L842.5162,681.9391 L838.5325,681.9866 L834.5495,682.1298 L830.5625,681.7686 L826.5781,681.7349 L826.5795,681.8128 L822.4959,681.7555 L818.4117,681.6741 L814.3262,681.5119 L810.2479,681.7539 L806.1582,681.3638 L806.1498,681.0929 L801.4843,681.4704 L796.7864,680.7976 L792.1059,680.6902 L787.4322,680.8035 L782.75,680.6412 L782.7506,680.6537 L780.3621,680.3164 L778.0018,680.6129 L775.6176,680.3716 L773.2517,680.54 L770.8591,680.1114 L770.8761,680.4074 L768.5442,679.7802 L766.2421,679.6702 L763.9454,679.6571 L761.6543,679.7398 L759.3418,679.4498 L759.3552,679.6284 L757.1978,679.4216 L755.0223,678.975 L752.9008,679.2469 L750.7467,679.0842 L748.5715,678.6416 L748.5694,678.6207 L746.631,678.3421 L744.6938,678.0765 L742.7722,677.9652 L740.8579,677.927 L738.9219,677.6724 L738.9167,677.6425 L736.0018,676.9933 L733.1812,676.8937 L730.2213,675.9831 L727.405,675.9081 L724.4785,675.1919 L724.5765,675.3546 L723.4681,674.6734 L722.4459,674.1353 L721.135,673.1179 L720.0267,672.4369 L719,671.8912 L720.3837,671.8912 L717.4083,662.1689 L718.376,652.4467 L719.308,642.7245 L719.1832,633.0023 L718.0441,623.28 L718.8854,613.5578 L720.9856,603.8356 L720.7293,594.1134 L717.4099,584.3912 L719.2094,574.6689 L717.6296,564.9467 L718.9298,555.2245 L719.7813,545.5023 L720.1197,535.78 L717.2274,526.0578 L720.0681,516.3356 L719.0224,506.6134 L719,496.8912 " fill="none" style="stroke:#181818;stroke-width:4.0;"/><path d="M719,496.8912 L719,496.8912 L719.0482,496.9712 L720.0007,497.3936 L721.2357,498.2851 L722.3788,499.0238 L723.2192,499.2602 L724.4785,500.1919 L724.4727,500.1579 L727.3351,500.5012 L730.227,501.0161 L733.1394,501.6504 L735.9812,501.8735 L738.9219,502.6724 L738.9465,502.9172 L740.8238,502.5875 L742.773,502.9727 L744.7309,503.445 L746.6378,503.4099 L748.5715,503.6416 L748.5738,503.6719 L750.7245,503.7891 L752.8856,504.044 L755.0416,504.2325 L757.2072,504.5477 L759.3418,504.4498 L759.3589,504.7475 L761.6626,504.8835 L763.9552,504.8274 L766.264,505.0524 L768.5736,505.2906 L770.8591,505.1114 L770.8449,504.7912 L773.2507,505.5186 L775.6096,505.1916 L778.0042,505.6663 L780.362,505.3154 L782.75,505.6412 L782.7491,505.6107 L787.4418,506.1151 L792.1126,505.9086 L796.7964,506.1215 L801.4812,506.3697 L806.1582,506.3638 L806.1616,506.5488 L810.2422,506.4363 L814.3285,506.6399 L818.4055,506.3321 L822.4964,506.7871 L826.5781,506.7349 L826.58,506.9785 L830.564,506.9637 L834.549,507.0699 L838.5296,506.614 L842.5134,506.5701 L846.5,506.8912 L846.5,506.8912 L846.4978,506.615 L850.4842,506.8337 L854.4681,506.7413 L858.4555,507.1003 L862.4369,506.6885 L866.4219,506.7349 L866.4191,506.5825 L870.5077,506.7621 L874.5845,506.2901 L878.6696,506.2816 L882.7631,506.7264 L886.8418,506.3638 L886.8478,506.5574 L891.5335,506.5456 L896.2007,505.9318 L900.8911,506.072 L905.5765,506.048 L910.25,505.6412 L910.2407,505.4314 L912.6263,505.4926 L915.0088,505.4852 L917.3974,505.6127 L919.7626,505.2155 L922.1409,505.1114 L922.1527,505.3166 L924.4302,504.7333 L926.7305,504.5462 L929.0641,504.9379 L931.3365,504.264 L933.6582,504.4498 L933.6751,504.6753 L935.8191,504.3797 L937.9574,504.0078 L940.1086,503.8081 L942.2897,504.0066 L944.4285,503.6416 L944.4152,503.5093 L946.3847,503.7095 L948.2638,503.0095 L950.2457,503.3331 L952.1697,503.0804 L954.0781,502.6724 L954.0966,502.7797 L956.9703,502.197 L959.9101,501.9985 L962.7903,501.4529 L965.6455,500.7622 L968.5215,500.1919 L968.583,500.294 L969.5873,499.4822 L970.8772,499.1444 L971.8441,498.2704 L972.9439,497.617 L974,496.8912 " fill="none" style="stroke:#181818;stroke-width:4.0;"/><text fill="#000000" font-family="Chalkduster" font-size="24" font-weight="bold" lengthAdjust="spacing" textLength="101" x="796" y="532.732">Storage</text></g><!--entity Schema.org--><g id="elem_Schema.org"><polygon fill="none" points="437.5,1005.8912,437.5,1006.1013,447.3235,1005.4768,457.1471,1006.0844,466.9706,1006.2908,476.7941,1005.1778,486.6176,1005.8134,496.4412,1005.4647,506.2647,1005.5077,516.0882,1005.823,525.9118,1005.1998,535.7353,1006.4448,545.5588,1005.2609,555.3824,1005.6934,565.2059,1006.3231,575.0294,1005.8054,584.8529,1005.9594,594.6765,1005.8592,604.5,1005.8912,604.5228,1005.9461,604.8841,1006.1113,605.2818,1006.3644,605.6463,1006.5372,606.0009,1006.6861,606.2678,1006.6234,606.3462,1006.6559,606.557,1007.0361,606.7769,1007.4201,606.485,1007.5921,607.0625,1008.1242,607,1008.3912,606.7035,1008.3912,607.5338,1017.5171,606.505,1026.6431,606.9315,1035.7691,607.7416,1044.895,607,1054.021,606.985,1054.0148,606.886,1054.388,606.8114,1054.7713,606.6888,1055.1347,606.413,1055.4347,606.2678,1055.7888,606.3044,1055.8772,605.8412,1055.7589,605.5969,1056.1692,605.277,1056.3969,604.9103,1056.5114,604.5,1056.521,604.5,1057.134,594.6765,1056.0379,584.8529,1055.8688,575.0294,1055.8996,565.2059,1056.4621,555.3824,1056.3245,545.5588,1057.2024,535.7353,1056.3463,525.9118,1056.1779,516.0882,1056.7493,506.2647,1055.8542,496.4412,1056.0019,486.6176,1057.1699,476.7941,1056.9567,466.9706,1057.2555,457.1471,1056.1992,447.3235,1056.8402,437.5,1056.521,437.5753,1056.7028,437.0862,1056.2291,436.7807,1056.1986,436.4554,1056.1205,436.1689,1056.1359,435.7322,1055.7888,435.7309,1055.7882,435.7282,1055.4942,435.2688,1055.011,435.0843,1054.6417,435.3015,1054.4388,435,1054.021,434.2831,1054.021,435.509,1044.895,435.2066,1035.7691,434.7321,1026.6431,434.6462,1017.5171,435,1008.3912,435.1413,1008.4497,435.0543,1007.9994,435.4752,1007.7596,435.2691,1007.26,435.7759,1007.0557,435.7322,1006.6234,435.794,1006.7725,436.117,1006.5524,436.4454,1006.345,436.8856,1006.4078,437.2247,1006.2266,437.5,1005.8912" style="stroke:#181818;stroke-width:4.0;"/><text fill="#000000" font-family="Chalkduster" font-size="24" lengthAdjust="spacing" textLength="152" x="445" y="1039.732">Schema.org</text></g><!--entity JSON-LD--><g id="elem_JSON-LD"><polygon fill="none" points="275,1005.8912,275,1006.1013,285.1667,1005.4768,295.3333,1006.0844,305.5,1006.2908,315.6667,1005.1778,325.8333,1005.8134,336,1005.4647,346.1667,1005.5077,356.3333,1005.823,366.5,1005.1998,376.6667,1006.4448,386.8333,1005.2609,397,1005.8912,396.9748,1005.8303,397.4087,1006.1706,397.6962,1006.1576,398.0694,1006.3515,398.4101,1006.4671,398.7678,1006.6234,398.8227,1006.6462,398.9879,1007.0075,399.241,1007.4052,399.4138,1007.7697,399.5627,1008.1243,399.5,1008.3912,399.7546,1008.3912,399.9636,1017.5171,400.2022,1026.6431,398.7788,1035.7691,400.1785,1044.895,399.5,1054.021,399.4087,1053.9832,399.5179,1054.4426,399.0547,1054.665,399.0396,1055.0729,399.1426,1055.5298,398.7678,1055.7888,398.7616,1055.7738,398.4276,1055.9676,398.1039,1056.1859,397.7602,1056.3563,397.3531,1056.3733,397,1056.521,397,1056.8082,386.8333,1055.9486,376.6667,1056.8054,366.5,1057.0692,356.3333,1056.9655,346.1667,1057.134,336,1056.0379,325.8333,1055.8688,315.6667,1055.8996,305.5,1056.4621,295.3333,1056.3245,285.1667,1057.2024,275,1056.521,274.9777,1056.4672,274.6027,1056.2689,274.322,1056.2984,273.8543,1055.8763,273.5196,1055.7753,273.2322,1055.7888,273.4321,1055.8715,273.22,1055.4908,273.1655,1055.1753,272.6938,1054.6871,272.7447,1054.4153,272.5,1054.021,273.0904,1054.021,272.0276,1044.895,272.4041,1035.7691,272.626,1026.6431,273.1518,1017.5171,272.5,1008.3912,272.4987,1008.3906,272.7889,1008.0966,272.6223,1007.6134,272.7308,1007.2441,273.2409,1007.0412,273.2322,1006.6234,273.1408,1006.4026,273.6507,1006.6337,273.9657,1006.3941,274.2587,1006.1015,274.6013,1005.9287,275,1005.8912" style="stroke:#181818;stroke-width:4.0;"/><text fill="#000000" font-family="Chalkduster" font-size="24" lengthAdjust="spacing" textLength="107" x="282.5" y="1039.732">JSON-LD</text></g><!--entity OCFL--><g id="elem_OCFL"><polygon fill="none" points="327,1219.8912,327,1220.1013,337.5,1219.4768,348,1220.0844,358.5,1220.2908,369,1219.1778,379.5,1219.8134,390,1219.4647,400.5,1219.5077,411,1219.8912,410.9913,1219.8702,411.2654,1219.8247,411.7777,1220.3546,411.9803,1220.1364,412.389,1220.416,412.7678,1220.6234,412.9008,1220.6785,412.8878,1220.966,413.0817,1221.3392,413.1973,1221.68,413.4085,1222.0604,413.5,1222.3912,413.7391,1222.3912,414.0857,1231.5171,414.1711,1240.6431,414.1793,1249.7691,413.7546,1258.895,413.5,1268.021,413.6428,1268.0801,413.5698,1268.4641,412.985,1268.6361,413.2696,1269.1682,412.8229,1269.3974,412.7678,1269.7888,412.8359,1269.9532,412.3511,1269.7828,412.0519,1270.0606,411.8017,1270.4565,411.3473,1270.3595,411,1270.521,411,1270.6263,400.5,1270.8596,390,1270.9372,379.5,1270.5171,369,1270.8082,358.5,1269.9486,348,1270.8054,337.5,1271.0692,327,1270.521,327.0567,1270.6579,326.7246,1270.5633,326.2313,1270.0793,325.8561,1269.8808,325.5065,1269.7438,325.2322,1269.7888,325.2141,1269.7813,325.0253,1269.4101,325.1492,1269.1686,324.7391,1268.7058,324.5408,1268.3308,324.5,1268.021,324.7283,1268.021,323.8332,1258.895,323.9809,1249.7691,325.149,1240.6431,324.9357,1231.5171,324.5,1222.3912,324.7262,1222.4849,324.5473,1221.9966,324.8912,1221.7248,325.1212,1221.4058,324.9403,1220.9167,325.2322,1220.6234,325.22,1220.5939,325.6019,1220.5157,326.0225,1220.5312,326.2924,1220.1828,326.7055,1220.1801,327,1219.8912" style="stroke:#181818;stroke-width:4.0;"/><text fill="#000000" font-family="Chalkduster" font-size="24" lengthAdjust="spacing" textLength="69" x="334.5" y="1253.732">OCFL</text></g><!--entity NOCFL--><g id="elem_NOCFL"><polygon fill="none" points="451.5,1219.8912,451.5,1220.1013,461.6,1219.4768,471.7,1220.0844,481.8,1220.2908,491.9,1219.1778,502,1219.8134,512.1,1219.4647,522.2,1219.5077,532.3,1219.823,542.4,1219.1998,552.5,1219.8912,552.5706,1220.0617,552.7732,1219.8435,553.1819,1220.1231,553.6158,1220.4635,553.9033,1220.4505,554.2678,1220.6234,554.2888,1220.6321,554.4044,1220.9729,554.6156,1221.3533,554.7808,1221.7146,555.0339,1222.1123,555,1222.3912,555.6711,1222.3912,555.6793,1231.5171,555.2546,1240.6431,555.4636,1249.7691,555.7022,1258.895,555,1268.021,554.7779,1267.929,555.0625,1268.4611,554.6158,1268.6903,554.7251,1269.1497,554.2618,1269.3721,554.2678,1269.7888,554.259,1269.7677,554.0088,1270.1636,553.5544,1270.0666,553.2205,1270.2605,552.8967,1270.4788,552.5,1270.521,552.5,1270.9372,542.4,1270.5171,532.3,1270.8082,522.2,1269.9486,512.1,1270.8054,502,1271.0692,491.9,1270.9655,481.8,1271.134,471.7,1270.0379,461.6,1269.8688,451.5,1270.521,451.4207,1270.3296,451.1389,1270.3564,450.7678,1270.1676,450.5263,1270.2915,450.0635,1269.8814,449.7322,1269.7888,449.6266,1269.745,449.6561,1269.4643,449.234,1268.9966,449.133,1268.6619,449.3463,1268.4573,449,1268.021,449.4357,1268.021,449.7345,1258.895,448.6782,1249.7691,449.3192,1240.6431,449.5904,1231.5171,449,1222.3912,448.8545,1222.3309,449.1169,1222.0254,449.3317,1221.7001,449.6401,1221.4136,449.5845,1220.9764,449.7322,1220.6234,449.7912,1220.7658,450.0151,1220.3064,450.3529,1220.1219,450.8571,1220.3391,451.055,1219.8168,451.5,1219.8912" style="stroke:#181818;stroke-width:4.0;"/><text fill="#000000" font-family="Chalkduster" font-size="24" lengthAdjust="spacing" textLength="86" x="459" y="1253.732">NOCFL</text></g><!--entity DOI--><g id="elem_DOI"><polygon fill="none" points="412.5,606.8912,412.5,607.1013,423,606.4768,433.5,607.0844,444,607.2908,454.5,606.1778,465,606.8134,475.5,606.8912,475.4456,606.7598,475.8046,606.9195,476.1984,607.1631,476.4725,607.1176,476.9848,607.6474,477.2678,607.6234,477.0737,607.543,477.3533,607.9517,477.6937,608.3856,477.6807,608.6731,477.8746,609.0463,478,609.3912,477.9681,609.3912,478.1785,618.5171,478.2391,627.6431,478.5857,636.7691,478.6711,645.895,478,655.021,478.2092,655.1076,477.932,655.407,477.8499,655.7872,477.7769,656.1712,477.1921,656.3432,477.2678,656.7888,477.3543,656.9977,476.8764,656.8439,476.6288,657.246,476.144,657.0757,475.8448,657.3535,475.5,657.521,475.5,658.2626,465,657.4723,454.5,657.6263,444,657.8596,433.5,657.9372,423,657.5171,412.5,657.521,412.5366,657.6094,412.0734,657.1983,411.8292,657.3157,411.5093,657.2505,411.1425,657.0721,410.7322,656.7888,410.921,656.867,410.437,656.3736,410.2385,655.9985,410.1015,655.6488,410.1283,655.367,410,655.021,409.8035,655.021,410.6814,645.895,409.8253,636.7691,409.6569,627.6431,410.2283,618.5171,410,609.3912,409.7946,609.3061,409.9866,608.9714,410.4927,608.7668,410.5735,608.3861,410.812,608.0706,410.7322,607.6234,410.6912,607.5243,411.1265,607.5752,411.5147,607.5123,411.7326,607.0386,412.1342,607.0081,412.5,606.8912" style="stroke:#181818;stroke-width:4.0;"/><text fill="#000000" font-family="Chalkduster" font-size="24" lengthAdjust="spacing" textLength="48" x="420" y="640.732">DOI</text></g><!--entity ARCP--><g id="elem_ARCP"><polygon fill="none" points="516,606.8912,516,607.1013,525.7778,606.4768,535.5556,607.0844,545.3333,607.2908,555.1111,606.1778,564.8889,606.8134,574.6667,606.4647,584.4444,606.5077,594.2222,606.823,604,606.8912,603.9118,606.6782,604.4242,607.2081,604.6267,606.99,605.0354,607.2696,605.4693,607.61,605.7678,607.6234,605.7414,607.6125,605.9352,607.9857,606.0508,608.3264,606.2621,608.7068,606.4272,609.0681,606.5,609.3912,607.0857,609.3912,607.1711,618.5171,607.1793,627.6431,606.7546,636.7691,606.9636,645.895,606.5,655.021,606.7163,655.1106,606.1315,655.2826,606.4161,655.8147,605.9693,656.0438,606.0786,656.5033,605.7678,656.7888,605.7046,656.6363,605.4055,656.9141,605.1553,657.31,604.7009,657.2131,604.367,657.407,604,657.521,604,657.8596,594.2222,657.9372,584.4444,657.5171,574.6667,657.8082,564.8889,656.9486,555.1111,657.8054,545.3333,658.0692,535.5556,657.9655,525.7778,658.134,516,657.521,515.9384,657.3722,515.5633,657.1737,515.2136,657.0367,514.9318,657.0635,514.5607,656.8747,514.2322,656.7888,514.4421,656.8757,514.032,656.4129,513.8337,656.0379,513.8632,655.7572,513.4411,655.2895,513.5,655.021,512.9809,655.021,514.149,645.895,513.9357,636.7691,514.2345,627.6431,513.1782,618.5171,513.5,609.3912,513.5983,609.4319,513.8283,609.1129,513.6474,608.6238,513.9098,608.3183,514.1246,607.993,514.2322,607.6234,514.3154,607.8241,514.5853,607.4757,514.9983,607.473,515.2223,607.0135,515.5601,606.829,516,606.8912" style="stroke:#181818;stroke-width:4.0;"/><text fill="#000000" font-family="Chalkduster" font-size="24" lengthAdjust="spacing" textLength="73" x="523.5" y="640.732">ARCP</text></g><!--entity Managed URIs--><g id="elem_Managed URIs"><polygon fill="none" points="393.5,760.8912,393.5,761.1013,403.5476,760.4768,413.5952,761.0844,423.6429,761.2908,433.6905,760.1778,443.7381,760.8134,453.7857,760.4647,463.8333,760.5077,473.881,760.823,483.9286,760.1998,493.9762,761.4448,504.0238,760.2609,514.0714,760.6934,524.119,761.3231,534.1667,760.8054,544.2143,760.9594,554.2619,760.8592,564.3095,761.0697,574.3571,761.1303,584.4048,761.4769,594.4524,761.5622,604.5,760.8912,604.5866,761.1003,604.886,761.116,605.2662,761.3268,605.6502,761.5468,605.8222,761.2549,606.2678,761.6234,606.4767,761.7099,606.3229,761.9391,606.7251,762.3986,606.5547,762.6209,606.8325,763.0289,607,763.3912,607.7416,763.3912,606.9513,772.5171,607.1053,781.6431,607.3386,790.7691,607.4162,799.895,607,809.021,606.9988,809.0205,606.942,809.4112,606.5308,809.6551,606.6482,810.1179,606.583,810.5051,606.2678,810.7888,606.3245,810.9257,605.9924,811.124,605.499,810.9329,605.1239,811.0273,604.7743,811.1832,604.5,811.521,604.5,811.4621,594.4524,811.3245,584.4048,812.2024,574.3571,811.3463,564.3095,811.1779,554.2619,811.7493,544.2143,810.8542,534.1667,811.0019,524.119,812.1699,514.0714,811.9567,504.0238,812.2555,493.9762,811.1992,483.9286,811.8402,473.881,812.1114,463.8333,811.0486,453.7857,811.4251,443.7381,811.647,433.6905,812.1728,423.6429,811.5168,413.5952,811.9836,403.5476,810.9672,393.5,811.521,393.4136,811.3124,393.2107,811.5296,392.7014,811.0073,392.5043,811.2384,392.1121,810.9988,391.7322,810.7888,391.6497,810.7546,391.4768,810.3901,391.5806,810.1402,391.2007,809.6899,391.3287,809.45,391,809.021,390.4473,809.021,391.6174,799.895,391.4843,790.7691,391.245,781.6431,391.0472,772.5171,391,763.3912,391.2238,763.4838,391.3354,763.1159,391.345,762.7056,391.5219,762.3647,391.5457,761.9603,391.7322,761.6234,391.8236,761.844,392.1055,761.5246,392.4614,761.3836,392.7153,760.9967,393.0948,760.9128,393.5,760.8912" style="stroke:#181818;stroke-width:4.0;"/><text fill="#000000" font-family="Chalkduster" font-size="24" lengthAdjust="spacing" textLength="196" x="401" y="794.732">Managed URIs</text></g><!--entity ldac--><g id="elem_ldac"><polygon fill="none" points="65.5,606.8912,65.5,607.1013,75.4545,606.4768,85.4091,607.0844,95.3636,607.2908,105.3182,606.1778,115.2727,606.8134,125.2273,606.4647,135.1818,606.5077,145.1364,606.823,155.0909,606.1998,165.0455,607.4448,175,606.2609,184.9545,606.6934,194.9091,607.3231,204.8636,606.8054,214.8182,606.9594,224.7727,606.8592,234.7273,607.0697,244.6818,607.1303,254.6364,607.4769,264.5909,607.5622,274.5455,607.5704,284.5,606.8912,284.5325,606.9696,284.9127,607.1804,285.2967,607.4003,285.4687,607.1084,286.0008,607.6859,286.2678,607.6234,286.1765,607.5856,286.5786,608.045,286.4082,608.2674,286.686,608.6753,287.0819,609.1322,287,609.3912,286.9513,609.3912,287.1053,618.5171,287.3386,627.6431,287.4162,636.7691,286.9961,645.895,287,655.021,287.0885,655.0576,286.6773,655.3015,286.7947,655.7644,286.7295,656.1516,286.5511,656.4919,286.2678,656.7888,286.346,656.9775,285.8526,656.7864,285.4775,656.8808,285.1278,657.0367,284.846,657.3564,284.5,657.521,284.5,657.3245,274.5455,658.2024,264.5909,657.3463,254.6364,657.1779,244.6818,657.7493,234.7273,656.8542,224.7727,657.0019,214.8182,658.1699,204.8636,657.9567,194.9091,658.2555,184.9545,657.1992,175,657.8402,165.0455,658.1114,155.0909,657.0486,145.1364,657.4251,135.1818,657.647,125.2273,658.1728,115.2727,657.5168,105.3182,657.9836,95.3636,656.9672,85.4091,656.8437,75.4545,658.0246,65.5,657.521,65.4085,657.3002,65.2114,657.5313,64.8193,657.2917,64.4052,656.9991,64.0407,656.8263,63.7322,656.7888,63.8735,656.8473,63.4936,656.397,63.6216,656.1572,63.1227,655.6576,63.3366,655.4533,63,655.021,63.4843,655.021,63.245,645.895,63.0472,636.7691,63.7266,627.6431,63.6136,618.5171,63,609.3912,63.0521,609.4128,63.229,609.0718,63.2528,608.6674,63.66,608.4219,63.6335,607.9967,63.7322,607.6234,63.7542,607.6765,64.0082,607.2896,64.3876,607.2057,64.8606,607.3475,65.2013,607.17,65.5,606.8912" style="stroke:#181818;stroke-width:4.0;"/><text fill="#000000" font-family="Chalkduster" font-size="24" lengthAdjust="spacing" textLength="204" x="73" y="640.732">Language Data</text></g><!--entity wr--><g id="elem_wr"><polygon fill="none" points="69,760.8912,69,761.1013,79.0952,760.4768,89.1905,761.0844,99.2857,761.2908,109.381,760.1778,119.4762,760.8134,129.5714,760.4647,139.6667,760.5077,149.7619,760.823,159.8571,760.1998,169.9524,761.4448,180.0476,760.2609,190.1429,760.6934,200.2381,761.3231,210.3333,760.8054,220.4286,760.9594,230.5238,760.8592,240.619,761.0697,250.7143,761.1303,260.8095,761.4769,270.9048,761.5622,281,760.8912,281.0866,761.1003,281.386,761.116,281.7662,761.3268,282.1502,761.5468,282.3222,761.2549,282.7678,761.6234,282.9767,761.7099,282.8229,761.9391,283.2251,762.3986,283.0547,762.6209,283.3325,763.0289,283.5,763.3912,284.2416,763.3912,283.4513,772.5171,283.6053,781.6431,283.8386,790.7691,283.9162,799.895,283.5,809.021,283.4988,809.0205,283.442,809.4112,283.0308,809.6551,283.1482,810.1179,283.083,810.5051,282.7678,810.7888,282.8245,810.9257,282.4924,811.124,281.999,810.9329,281.6239,811.0273,281.2743,811.1832,281,811.521,281,811.4621,270.9048,811.3245,260.8095,812.2024,250.7143,811.3463,240.619,811.1779,230.5238,811.7493,220.4286,810.8542,210.3333,811.0019,200.2381,812.1699,190.1429,811.9567,180.0476,812.2555,169.9524,811.1992,159.8571,811.8402,149.7619,812.1114,139.6667,811.0486,129.5714,811.4251,119.4762,811.647,109.381,812.1728,99.2857,811.5168,89.1905,811.9836,79.0952,810.9672,69,811.521,68.9136,811.3124,68.7107,811.5296,68.2014,811.0073,68.0043,811.2384,67.6121,810.9988,67.2322,810.7888,67.1497,810.7546,66.9768,810.3901,67.0806,810.1402,66.7007,809.6899,66.8287,809.45,66.5,809.021,65.9473,809.021,67.1174,799.895,66.9843,790.7691,66.745,781.6431,66.5472,772.5171,66.5,763.3912,66.7238,763.4838,66.8354,763.1159,66.845,762.7056,67.0219,762.3647,67.0457,761.9603,67.2322,761.6234,67.3236,761.844,67.6055,761.5246,67.9614,761.3836,68.2153,760.9967,68.5948,760.9128,69,760.8912" style="stroke:#181818;stroke-width:4.0;"/><text fill="#000000" font-family="Chalkduster" font-size="24" lengthAdjust="spacing" textLength="197" x="76.5" y="794.732">Workflow Run</text></g><!--entity policy--><g id="elem_policy"><polygon fill="none" points="65.5,349.8912,65.5,350.1013,75.35,349.4768,85.2,350.0844,95.05,350.2908,104.9,349.1778,114.75,349.8134,124.6,349.4647,134.45,349.5077,144.3,349.823,154.15,349.1998,164,350.4448,173.85,349.2609,183.7,349.6934,193.55,350.3231,203.4,349.8054,213.25,349.9594,223.1,349.8592,232.95,350.0697,242.8,350.1303,252.65,350.4769,262.5,349.8912,262.5856,350.0978,262.9402,350.2468,263.2396,350.2625,263.6198,350.4733,264.0038,350.6932,264.2678,350.6234,264.0457,350.5314,264.6232,351.0635,264.4693,351.2927,264.8715,351.7521,264.7011,351.9745,265,352.3912,264.9315,352.3912,265.7416,361.5171,264.9513,370.6431,265.1053,379.7691,265.3386,388.895,265,398.021,265.1282,398.0741,264.8524,398.374,264.7956,398.7647,264.3844,399.0086,264.5018,399.4715,264.2678,399.7888,264.3377,399.9576,263.9709,400.0721,263.6389,400.2704,263.1455,400.0793,262.7704,400.1737,262.5,400.521,262.5,399.8996,252.65,400.4621,242.8,400.3245,232.95,401.2024,223.1,400.3463,213.25,400.1779,203.4,400.7493,193.55,399.8542,183.7,400.0019,173.85,401.1699,164,400.9567,154.15,401.2555,144.3,400.1992,134.45,400.8402,124.6,401.1114,114.75,400.0486,104.9,400.4251,95.05,400.647,85.2,401.1728,75.35,400.5168,65.5,400.521,65.559,400.6634,65.0758,400.204,64.7065,400.0195,64.5036,400.2367,63.9943,399.7144,63.7322,399.7888,63.889,399.8537,63.6494,399.4616,63.3568,399.0475,63.1839,398.683,63.2877,398.4331,63,398.021,62.7007,398.021,63.5919,388.895,62.4473,379.7691,63.6174,370.6431,63.4843,361.5171,63,352.3912,63.0754,352.4224,63.161,352.0436,63.5167,351.7767,63.6283,351.4088,63.6379,350.9985,63.7322,350.6234,63.7664,350.706,64.0692,350.4368,64.5307,350.5511,64.8126,350.2317,65.1685,350.0908,65.5,349.8912" style="stroke:#181818;stroke-width:4.0;"/><text fill="#000000" font-family="Chalkduster" font-size="24" lengthAdjust="spacing" textLength="182" x="73" y="383.732">LDaCA Policy</text></g><!--entity api--><g id="elem_api"><polygon fill="none" points="923,349.8912,923,350.1013,933.6667,349.4768,944.3333,350.0844,955,350.2908,965.6667,349.1778,976.3333,349.8134,987,349.8912,986.9456,349.7598,987.3046,349.9195,987.6984,350.1631,987.9725,350.1176,988.4848,350.6474,988.7678,350.6234,988.5737,350.543,988.8533,350.9517,989.1937,351.3856,989.1807,351.6731,989.3746,352.0463,989.5,352.3912,989.4681,352.3912,989.6785,361.5171,989.7391,370.6431,990.0857,379.7691,990.1711,388.895,989.5,398.021,989.7092,398.1076,989.432,398.407,989.3499,398.7872,989.2769,399.1712,988.6921,399.3432,988.7678,399.7888,988.8543,399.9977,988.3764,399.8439,988.1288,400.246,987.644,400.0757,987.3448,400.3535,987,400.521,987,401.2626,976.3333,400.4723,965.6667,400.6263,955,400.8596,944.3333,400.9372,933.6667,400.5171,923,400.521,923.0366,400.6094,922.5734,400.1983,922.3292,400.3157,922.0093,400.2505,921.6425,400.0721,921.2322,399.7888,921.421,399.867,920.937,399.3736,920.7385,398.9985,920.6015,398.6488,920.6283,398.367,920.5,398.021,920.3035,398.021,921.1814,388.895,920.3253,379.7691,920.1569,370.6431,920.7283,361.5171,920.5,352.3912,920.2946,352.3061,920.4866,351.9714,920.9927,351.7668,921.0735,351.3861,921.312,351.0706,921.2322,350.6234,921.1912,350.5243,921.6265,350.5752,922.0147,350.5123,922.2326,350.0386,922.6342,350.0081,923,349.8912" style="stroke:#181818;stroke-width:4.0;"/><text fill="#000000" font-family="Chalkduster" font-size="24" lengthAdjust="spacing" textLength="49" x="930.5" y="383.732">API</text></g><!--entity Obj1--><g id="elem_Obj1"><polygon fill="none" points="856,606.8912,856,607.1013,866.2857,606.4768,876.5714,607.0844,886.8571,607.2908,897.1429,606.1778,907.4286,606.8134,917.7143,606.4647,928,606.8912,927.9511,606.7731,928.3449,607.0166,928.6189,606.9711,929.1313,607.501,929.3338,607.2828,929.7678,607.6234,929.7069,607.5982,930.0472,608.032,930.0342,608.3196,930.2281,608.6928,930.3437,609.0335,930.5,609.3912,930.6785,609.3912,930.7391,618.5171,931.0857,627.6431,931.1711,636.7691,931.1793,645.895,930.5,655.021,930.5784,655.0535,930.4963,655.4337,930.4234,655.8177,929.8386,655.9897,930.1232,656.5218,929.7678,656.7888,929.7299,656.6975,929.4823,657.0996,928.9975,656.9292,928.6984,657.207,928.4482,657.6029,928,657.521,928,657.4723,917.7143,657.6263,907.4286,657.8596,897.1429,657.9372,886.8571,657.5171,876.5714,657.8082,866.2857,656.9486,856,657.521,856.0363,657.6086,855.7164,657.5434,855.3496,657.365,855.0175,657.2704,854.5242,656.7864,854.2322,656.7888,854.0314,656.7056,853.8944,656.3559,853.9212,656.0741,853.7324,655.703,853.8563,655.4615,853.5,655.021,853.3253,655.021,853.1569,645.895,853.7283,636.7691,852.8332,627.6431,852.9809,618.5171,853.5,609.3912,853.6999,609.4739,853.7806,609.0932,854.0191,608.7777,853.8402,608.2895,854.1841,608.0177,854.2322,607.6234,854.3075,607.8052,854.5255,607.3315,854.9271,607.301,855.309,607.2229,855.7296,607.2383,856,606.8912" style="stroke:#181818;stroke-width:4.0;"/><text fill="#000000" font-family="Chalkduster" font-size="24" lengthAdjust="spacing" textLength="57" x="863.5" y="640.732">Obj1</text></g><!--entity Obj2--><g id="elem_Obj2"><polygon fill="none" points="746,606.8912,746,607.1013,756,606.4768,766,607.0844,776,607.2908,786,606.1778,796,606.8134,806,606.4647,816,606.8912,815.9511,606.7731,816.3449,607.0166,816.6189,606.9711,817.1313,607.501,817.3338,607.2828,817.7678,607.6234,817.7069,607.5982,818.0472,608.032,818.0342,608.3196,818.2281,608.6928,818.3437,609.0335,818.5,609.3912,818.6785,609.3912,818.7391,618.5171,819.0857,627.6431,819.1711,636.7691,819.1793,645.895,818.5,655.021,818.5784,655.0535,818.4963,655.4337,818.4234,655.8177,817.8386,655.9897,818.1232,656.5218,817.7678,656.7888,817.7299,656.6975,817.4823,657.0996,816.9975,656.9292,816.6984,657.207,816.4482,657.6029,816,657.521,816,657.4723,806,657.6263,796,657.8596,786,657.9372,776,657.5171,766,657.8082,756,656.9486,746,657.521,746.0363,657.6086,745.7164,657.5434,745.3496,657.365,745.0175,657.2704,744.5242,656.7864,744.2322,656.7888,744.0314,656.7056,743.8944,656.3559,743.9212,656.0741,743.7324,655.703,743.8563,655.4615,743.5,655.021,743.3253,655.021,743.1569,645.895,743.7283,636.7691,742.8332,627.6431,742.9809,618.5171,743.5,609.3912,743.6999,609.4739,743.7806,609.0932,744.0191,608.7777,743.8402,608.2895,744.1841,608.0177,744.2322,607.6234,744.3075,607.8052,744.5255,607.3315,744.9271,607.301,745.309,607.2229,745.7296,607.2383,746,606.8912" style="stroke:#181818;stroke-width:4.0;"/><text fill="#000000" font-family="Chalkduster" font-size="24" lengthAdjust="spacing" textLength="55" x="753.5" y="640.732">Obj2</text></g><!--link ldac to wr--><!--link Profiles to ro--><!--link ro to sstorage--><!--link OCFL to NOCFL--><!--link Obj1 to ldac--><g id="link_Obj1_ldac"><path d="M891.45,606.4812 L891.5431,606.4893 L891.0061,603.4705 L891.0147,600.4992 L890.8456,597.5125 L890.0923,594.4749 L890.1477,591.5077 L890.1135,591.503 L889.4928,588.0918 L889.0445,584.7044 L888.7162,581.3336 L887.9746,577.9058 L887.8119,574.5577 L888.0531,574.6063 L886.8059,570.8688 L886.263,567.2731 L885.806,563.6947 L884.8491,560.0156 L884.1551,556.3895 L884.1843,556.3977 L883.0884,552.66 L882.1254,548.9597 L881.0983,545.2414 L880.1935,541.5576 L878.89,537.7612 L879.1678,537.8697 L877.7391,534.205 L876.1311,530.4703 L874.7855,526.838 L873.4521,523.2106 L871.7293,519.431 L871.4474,519.2785 L870.1258,516.1197 L867.8759,512.4587 L866.3318,509.1795 L864.0608,505.5072 L862.3856,502.1571 L862.3614,502.1386 L860.2847,499.2654 L857.6428,495.9602 L855.3344,492.9099 L853.054,489.881 L850.5716,486.6978 L850.6942,486.8363 L847.6562,484.1191 L844.8275,481.6387 L841.6601,478.7752 L838.9981,476.4832 L836,473.8112 L836.1301,474.0172 L834.336,472.8609 L832.6065,471.8069 L830.577,470.2777 L828.7674,469.0968 L827.1527,468.2246 L827.0272,467.9785 L825.1419,467.182 L823.1152,466.1082 L821.2936,465.4365 L819.1219,464.0782 L817.1583,463.1281 L817.0995,462.9874 L814.9838,462.2978 L812.6171,461.0068 L810.4288,460.1435 L808.4153,459.6987 L806.0907,458.5086 L806.1537,458.6917 L803.7836,457.9862 L801.2174,456.7113 L798.8969,456.1496 L796.5228,455.4325 L794.024,454.3533 L793.9664,454.1514 L791.4139,453.5716 L788.8426,452.9255 L786.3083,452.4095 L783.63,451.3883 L781.0322,450.6492 L781.0794,450.8493 L778.2071,449.7565 L775.4259,449.0499 L772.7778,448.9075 L769.8847,447.7264 L767.1893,447.3833 L767.2324,447.6054 L764.2828,446.9053 L761.3186,446.1302 L758.3873,445.5246 L755.5322,445.3109 L752.5693,444.5427 L752.5485,444.4113 L749.5459,444.3168 L746.4016,443.3287 L743.4184,443.3567 L740.3446,442.8126 L737.2462,442.1143 L737.26,442.2223 L734.0585,441.7293 L730.9062,441.623 L727.7094,441.1674 L724.494,440.5657 L721.2941,440.0852 L721.3059,440.2038 L717.987,439.6991 L714.7228,439.745 L711.3966,439.1681 L708.096,438.8474 L704.787,438.4425 L704.7668,438.1729 L701.3759,438.009 L698.0093,438.17 L694.6083,437.8714 L691.195,437.408 L687.7988,437.1732 L687.7913,437.0302 L684.3146,436.8942 L680.8247,436.5051 L677.3712,436.8119 L673.8997,436.7743 L670.4035,436.2643 L670.4109,436.4981 L666.8676,436.4607 L663.3103,435.979 L659.7678,435.9662 L656.2155,435.643 L652.6753,435.7028 L652.6769,435.8291 L649.0792,435.7671 L645.4835,435.8576 L641.8816,435.4646 L638.2847,435.4616 L634.688,435.4759 L634.689,435.673 L631.0549,435.747 L627.4179,435.286 L623.7842,435.4465 L620.1505,435.6179 L616.5157,435.5705 L616.5098,435.2991 L612.8626,435.8082 L609.205,435.8464 L605.5448,435.7676 L601.8905,435.9562 L598.2325,435.9737 L598.2448,436.2973 L594.5632,435.9745 L590.9098,436.3931 L587.2452,436.5198 L583.5783,436.5841 L579.9123,436.6724 L579.9156,436.735 L576.2584,436.9191 L572.5841,436.788 L568.9328,437.0834 L565.2748,437.2527 L561.6291,437.6538 L561.6311,437.6821 L557.9974,437.9431 L554.3652,438.226 L550.717,438.2755 L547.0894,438.6248 L543.457,438.9049 L543.4525,438.8517 L539.881,439.462 L536.278,439.697 L532.6467,439.5946 L529.0646,440.0789 L525.4699,440.4127 L525.4447,440.1574 L521.9369,440.8906 L518.4053,441.3825 L514.8569,441.7045 L511.2685,441.6213 L507.7419,442.1643 L507.7653,442.3692 L504.2256,442.2327 L500.794,443.0456 L497.2899,443.2215 L493.8309,443.7929 L490.347,444.1466 L490.3607,444.2525 L486.9764,444.7947 L483.5108,444.7094 L480.1815,445.6763 L476.7669,445.9853 L473.3592,446.3468 L473.382,446.503 L470.1058,447.1567 L466.7569,447.3112 L463.4664,447.8669 L460.1675,448.3647 L456.8525,448.7518 L456.8666,448.8383 L453.6621,449.2708 L450.5226,450.1023 L447.238,450.0425 L444.1316,451.0773 L440.9009,451.3487 L440.8515,451.0758 L437.7936,451.6676 L434.7751,452.4765 L431.7097,453.0266 L428.6039,453.3538 L425.5784,454.1245 L425.6147,454.3048 L422.6641,454.7603 L419.7944,455.6179 L416.8653,456.1803 L413.8437,456.2827 L410.9591,457.0663 L410.9205,456.8938 L408.1782,457.6293 L405.4567,458.4585 L402.6929,459.098 L399.9146,459.6728 L397.117,460.1612 L397.0802,460.0137 L394.5871,461.0826 L391.9886,461.7284 L389.3173,462.0817 L386.6985,462.6459 L384.1259,463.396 L384.0781,463.2242 L381.6872,463.9765 L379.316,464.7996 L376.8783,465.3839 L374.4234,465.9067 L372.0601,466.7579 L372.125,466.9646 L369.7857,467.2585 L367.7004,468.3614 L365.477,469.0247 L363.2563,469.6964 L360.9935,470.234 L361.0972,470.5237 L358.9579,470.8465 L356.951,471.539 L355.0751,472.5974 L352.9093,472.846 L351,473.8112 L350.9595,473.7154 L348.5488,474.9023 L346.0696,475.9269 L343.5245,476.7959 L341.1079,477.9689 L338.6442,479.0303 L338.7915,479.3266 L336.3507,480.492 L333.6827,481.2002 L331.3944,482.6724 L328.8554,483.6402 L326.5353,485.0484 L326.5295,485.0382 L324.2324,486.5066 L321.8931,487.9005 L319.2877,488.8263 L317.1544,490.5829 L314.6992,491.773 L314.7012,491.7762 L312.2593,493.0325 L309.9719,494.5318 L307.8547,496.2987 L305.5289,497.7376 L303.1619,499.1116 L303.1577,499.1056 L300.7479,500.439 L298.8447,502.4952 L296.3547,503.7142 L294.057,505.2075 L291.9491,506.9716 L291.931,506.9479 L289.9357,508.8378 L287.7702,510.5047 L285.4412,511.9574 L283.2186,513.5494 L281.0869,515.2606 L281.1348,515.3188 L279.0423,517.0495 L276.7492,518.5364 L274.9122,520.5778 L272.856,522.3526 L270.601,523.8858 L270.5377,523.8138 L268.4583,525.5164 L266.7656,527.6586 L264.5571,529.2143 L262.5342,530.981 L260.5175,532.7549 L260.6082,532.852 L258.3905,534.3493 L256.8162,536.5352 L254.7196,538.1621 L252.9962,540.1884 L250.8622,541.7753 L250.7948,541.707 L249.1496,543.7205 L247.0431,545.2665 L245.4179,547.3003 L243.6196,549.1586 L241.6609,550.8544 L241.5562,550.7534 L240.0328,552.7755 L237.9896,554.2963 L236.2777,556.1365 L234.9024,558.3014 L232.9397,559.8998 L233.1634,560.1059 L231.4825,561.8548 L229.5358,563.3589 L228.1361,565.3669 L226.2131,566.8929 L224.7244,568.8188 L224.7437,568.8359 L223.1873,570.5585 L221.5635,572.2217 L220.3194,574.2201 L218.7252,575.9094 L217.0408,577.519 L216.9322,577.4267 L215.7941,579.3483 L214.2216,580.901 L212.5677,582.3844 L211.2611,584.1629 L209.915,585.9078 L209.7333,585.7613 L207.3719,588.9637 L204.7074,591.9217 L202.2223,595.0244 L199.9593,598.3061 L197.44,601.3812 " fill="none" style="stroke:#8B0000;stroke-width:4.0;"/><polygon fill="#8B0000" points="194.5,605.2112,194.5335,605.2727,196.1637,604.1476,197.9904,603.3832,199.7531,602.5013,201.3054,601.2333,203.1489,600.4998,203.1455,600.4741,202.0086,600.5074,200.8889,600.67,199.7811,600.9227,198.6323,600.8653,197.541,601.2422,197.7239,601.2664,197.1842,600.0931,197.1786,598.9904,197.2383,597.8963,196.9187,596.7521,196.7986,595.6343,196.8207,595.6396,196.3285,597.5472,195.937,599.4789,195.4969,601.399,195.1496,603.3413,194.5,605.2112" style="stroke:#8B0000;stroke-width:4.0;"/><text fill="#000000" font-family="Chalkduster" font-size="24" lengthAdjust="spacing" textLength="164" x="288" y="455.732">conformsTo</text></g><!--link Obj1 to ro--><g id="link_Obj1_ro"><path d="M880.95,658.0812 L881.0324,658.1251 L879.1257,661.1131 L877.7023,664.3586 L876.1215,667.5202 L874.0232,670.4061 L872.6412,673.6737 L872.6118,673.6555 L870.4071,676.9372 L868.3507,680.3102 L866.3972,683.7468 L864.0887,686.9644 L862.2775,690.4887 L862.4788,690.6301 L860.8674,692.0087 L859.8438,693.8003 L858.8919,695.6422 L857.5227,697.1911 L856.373,698.8941 L856.397,698.9127 L855.0897,700.517 L853.8914,702.2062 L852.6405,703.8544 L851.4899,705.5808 L850.0125,707.0524 L850.2364,707.2494 L848.8797,708.7972 L847.3785,710.218 L846.0887,711.8248 L844.8089,713.4402 L843.2151,714.7795 L842.9901,714.5512 L841.9838,716.4166 L840.2365,717.5303 L839.0526,719.2155 L837.2886,720.3121 L836,721.8912 L835.9807,721.8676 L834.1888,723.8037 L831.9456,725.1899 L829.9687,726.9006 L828.0142,728.6385 L825.8984,730.1799 L825.9987,730.3354 L824.0473,731.3715 L822.2673,732.6734 L820.2102,733.5454 L818.5664,735.0585 L816.6478,736.1454 L816.7461,736.3683 L813.2519,737.8576 L809.8065,739.4575 L806.1346,740.5431 L802.6287,742.0058 L799.27,743.8024 L799.178,743.542 L795.6087,745.068 L791.9358,746.3006 L788.4132,747.9588 L784.6339,748.8903 L781.0072,750.2538 L780.9469,750.1138 L778.9759,751.2387 L776.7473,751.765 L774.7019,752.717 L772.8358,754.0855 L770.6504,754.7123 L770.7411,754.8833 L768.4732,756.2364 L765.9232,757.0575 L763.7266,758.5449 L761.453,759.8872 L759,760.8912 L758.8907,760.7119 L756.7525,762.2124 L754.5785,763.6542 L752.4748,765.2113 L750.0976,766.32 L747.8732,767.6792 L747.9868,767.8505 L745.7462,768.7941 L743.7249,770.0683 L742.0239,771.8258 L739.7331,772.6936 L737.9181,774.2792 L738.0499,774.4631 L736.1797,775.638 L734.265,776.7508 L732.4508,778.0039 L730.8693,779.5816 L728.9586,780.7 L728.8776,780.5945 L727.4909,782.1588 L725.5531,783.0054 L724.2418,784.668 L722.5778,785.8712 L720.8188,786.9505 L720.8882,787.0344 L717.9271,789.3718 L715.2147,792.0094 L712.2777,794.3758 L709.2467,796.6288 L706.2938,798.9759 L706.3713,799.0664 L703.5843,801.222 L701.1575,803.7978 L698.3233,805.8983 L695.6567,808.1943 L692.935,810.4262 L692.7655,810.2155 L690.102,812.475 L687.6426,814.9883 L684.8944,817.1425 L682.0425,819.168 L679.3344,821.372 L679.2531,821.2541 L676.229,823.3944 L673.061,825.3258 L670.2886,827.8311 L667.3204,830.0525 L664.0838,831.8843 L664.2025,832.0859 L662.5037,833.1735 L660.5793,833.8782 L658.893,834.9871 L657.049,835.8284 L655.3996,836.9999 L655.4582,837.1118 L653.5255,838.1039 L651.6636,839.231 L649.5776,839.9298 L647.6722,840.974 L645.775,842.0337 L645.8576,842.2127 L643.7325,843.2548 L641.383,843.8113 L639.2941,844.932 L637.2098,846.0626 L635.0338,846.9945 L634.9315,846.7431 L632.6862,848.1193 L630.2635,849.0594 L627.7966,849.891 L625.4306,850.9704 L623,851.8912 L623.1132,852.1946 L620.7727,852.5734 L618.6914,853.6473 L616.5081,854.4476 L614.303,855.1893 L612.1062,855.9536 L612.1271,856.0126 L610.0324,856.7404 L607.8325,857.1706 L605.775,858.0035 L603.6754,858.7173 L601.6531,859.65 L601.6621,859.6769 L599.6569,860.357 L597.6586,861.0578 L595.5863,861.5367 L593.609,862.3007 L591.6099,862.9989 L591.5939,862.9479 L589.7535,863.8476 L587.8007,864.3878 L585.7469,864.6049 L583.8688,865.3839 L581.9456,866.0188 L581.8764,865.7717 L578.3171,867.1675 L574.6925,868.3297 L571.0218,869.3276 L567.2414,869.9334 L563.6306,871.1451 L563.6777,871.3458 L560.1213,871.6299 L556.7832,872.8442 L553.2987,873.4344 L549.9051,874.412 L546.4614,875.1765 L546.4813,875.2814 L543.2465,875.9995 L539.8938,876.0958 L536.7387,877.2346 L533.4601,877.7216 L530.1914,878.2607 L530.2142,878.4169 L527.1159,879.0464 L523.9447,879.1769 L520.8321,879.7085 L517.711,880.1822 L514.5737,880.5453 L514.5831,880.6324 L511.5313,880.8714 L508.5227,881.5124 L505.4176,881.2554 L502.431,882.1012 L499.3618,882.1779 L499.341,881.9013 L496.3332,882.1641 L493.3419,882.6469 L490.3309,882.8674 L487.303,882.8621 L484.3088,883.3062 L484.3181,883.4898 L481.2831,883.5088 L478.2689,883.9373 L475.2394,884.0652 L472.186,883.7244 L469.168,884.0777 L469.1615,883.901 L466.0708,884.1328 L462.9836,884.4606 L459.8893,884.5942 L456.7926,884.6614 L453.6927,884.6402 L453.6877,884.4883 L447.1138,885.1405 L440.5256,885.357 L433.9274,885.2721 L427.3364,885.4045 L420.7517,885.7283 L420.7436,885.5501 L417.1555,885.7973 L413.5709,886.1177 L409.9749,886.1906 L406.3759,886.1996 L402.7926,886.5493 L402.8061,886.7655 L398.9238,886.5862 L395.0943,887.2531 L391.2361,887.4602 L387.3785,887.6761 L383.5121,887.7517 L383.5376,888.0584 L379.3333,887.989 L375.1616,888.3111 L371.022,889.0203 L366.8112,888.8724 L362.6635,889.4831 L362.6525,889.3797 L358.1362,890.0157 L353.6013,890.4767 L349.0486,890.7695 L344.5307,891.3906 L340,891.8912 L340.0165,892.2217 L336.7948,892.3401 L333.5476,891.9487 L330.3431,892.4094 L327.1103,892.3075 L323.9022,892.6968 L323.9017,892.6851 L321.3511,892.928 L318.797,893.0855 L316.2217,892.705 L313.6842,893.2792 L311.1209,893.2025 L311.1211,893.2062 L308.2958,893.0917 L305.4844,893.2648 L302.6884,893.7547 L299.8735,893.8563 L297.055,893.8812 L297.0545,893.8739 L294.2456,893.7691 L291.4953,894.545 L288.6771,894.3008 L285.8812,894.3909 L283.1072,894.8111 L283.1042,894.7813 L280.6483,895.3237 L278.164,895.587 L275.6527,895.5823 L273.1589,895.7518 L270.6803,896.0705 L270.6993,896.1436 L267.7651,896.9148 L264.7513,897.3804 L261.9185,898.541 L258.9986,899.3674 L256,899.8912 L255.9284,899.8274 L254.4356,901.3621 L253.3801,903.286 L251.7411,904.6906 L250.3122,906.2821 L248.8903,907.8799 L248.9994,907.9558 L248.0483,908.5872 L247.8706,909.757 L247.0652,910.4899 L246.7083,911.5349 L245.8578,912.2364 L245.7762,912.1861 L245.7341,912.7835 L245.1329,913.0361 L245.1151,913.6485 L244.8874,914.1314 L244.4654,914.4946 L244.3396,914.4216 L244.4717,914.8051 L243.9793,914.8262 L243.8849,915.0783 L244.195,915.5651 L243.7993,915.6423 " fill="none" style="stroke:#8B0000;stroke-width:4.0;"/><polygon fill="#8B0000" points="243.7993,915.6423,243.8408,915.6987,245.3026,914.3621,247.0081,913.356,248.6343,912.2423,249.9994,910.7746,251.7258,909.7968,251.719,909.7719,250.5972,909.9596,249.5101,910.2733,248.4471,910.6745,247.3011,910.7741,246.2713,911.2962,246.4492,911.3451,245.7688,910.1496,245.608,909.0969,245.5105,908.0616,245.0443,906.9249,244.772,905.8416,244.7946,905.8439,244.5668,907.8007,244.4421,909.7678,244.2677,911.7299,244.1881,913.7015,243.7993,915.6423" style="stroke:#8B0000;stroke-width:4.0;"/><text fill="#000000" font-family="Chalkduster" font-size="24" lengthAdjust="spacing" textLength="164" x="760" y="795.232">conformsTo</text></g><!--link stor to OCFL--><g id="link_stor_OCFL"><path d="M967.4289,682.3434 L967.5223,682.3462 L967.1577,685.2724 L967.3404,688.215 L967.3449,691.1522 L966.7633,694.072 L966.993,697.0159 L966.9585,697.0139 L966.6217,700.1768 L966.4586,703.3497 L966.4165,706.5296 L965.9578,709.6855 L966.0825,712.8749 L966.3276,712.8967 L965.5053,716.2083 L965.3985,719.5834 L965.3791,722.9664 L964.8517,726.3042 L964.5914,729.6657 L964.6215,729.6694 L964.1418,733.1575 L963.7992,736.6626 L963.3904,740.1595 L963.1077,743.6721 L962.4139,747.1334 L962.7081,747.1823 L962.1177,750.7609 L961.3376,754.308 L960.8352,757.9012 L960.3458,761.4966 L959.4439,765.0235 L959.1305,764.9563 L958.9652,768.6981 L957.7678,772.2189 L957.3549,775.9077 L956.1342,779.4234 L955.5756,783.081 L955.5462,783.073 L954.9192,786.7613 L953.6057,790.2635 L952.6972,793.8754 L951.8228,797.4966 L950.703,801.0513 L950.8782,801.1107 L949.5048,804.5764 L948.4307,808.1436 L946.8724,811.5465 L946.0364,815.1945 L944.7202,818.6796 L944.9446,818.7744 L943.4623,822.1628 L942.0915,825.5983 L940.203,828.8149 L938.6939,832.192 L937.5211,835.7111 L937.2768,835.5824 L935.7938,838.9349 L934.0354,842.1424 L932.6764,845.5603 L930.6355,848.619 L929,851.8912 L928.8691,851.8131 L927.449,854.6893 L925.4693,857.2317 L923.8876,860.0114 L922.6954,863.0236 L920.8096,865.622 L920.9745,865.7234 L919.4824,868.4038 L917.4772,870.7688 L916.1147,873.5289 L914.6121,876.203 L912.7833,878.6764 L912.6061,878.5638 L911.1699,881.1349 L909.6756,883.6691 L908.2953,886.2758 L906.4718,888.6007 L904.8959,891.083 L905.0676,891.1962 L903.1357,893.3049 L901.5352,895.6322 L900.4185,898.2785 L898.4109,900.3373 L897.1222,902.8702 L897.3087,902.9982 L895.6608,905.1614 L893.9499,907.2812 L892.3813,909.4989 L891.142,911.9425 L889.4368,914.0663 L889.3287,913.9888 L888.1261,916.3463 L886.1882,918.1766 L885.0865,920.6063 L883.5139,922.6986 L881.8145,924.6999 L881.9016,924.7653 L880.3144,926.7324 L879.039,928.9336 L877.4819,930.9234 L875.8071,932.8247 L874.23,934.7994 L874.3236,934.8732 L872.6702,936.6823 L871.4512,938.8342 L869.7409,940.5983 L868.2327,942.5219 L866.6581,944.3932 L866.4503,944.2203 L865.0027,946.1013 L863.8056,948.1907 L862.2542,949.9853 L860.5758,951.6742 L859.0735,953.5098 L858.966,953.4152 L857.4759,955.1791 L855.7954,956.7755 L854.6383,958.8322 L853.2222,960.6611 L851.4509,962.1776 L851.622,962.3371 L850.1397,964.0376 L848.3321,965.4351 L846.8677,967.1524 L845.1762,968.6581 L843.765,970.425 L843.8547,970.5138 L842.2881,972.0732 L840.8298,973.7399 L839.0278,975.0665 L837.503,976.6674 L835.9906,978.2805 L836.1264,978.4234 L834.5866,979.9618 L832.6785,981.1122 L831.1984,982.7133 L829.7258,984.3223 L828.1024,985.7726 L827.9218,985.5699 L826.6015,987.3212 L824.9679,988.721 L823.2563,990.0334 L821.7227,991.5454 L820.0752,992.9296 L820.283,993.1781 L818.3477,994.193 L816.8884,995.7772 L815.2417,997.1373 L813.555,998.4495 L811.8837,999.7801 L811.9223,999.8294 L810.2385,1001.1342 L808.36,1002.1907 L806.745,1003.5833 L805.0522,1004.8765 L803.5025,1006.3524 L803.5193,1006.3753 L801.8065,1007.6485 L800.1067,1008.9394 L798.2683,1010.0418 L796.6079,1011.3863 L794.9065,1012.675 L794.8761,1012.6311 L793.2849,1014.1063 L791.4797,1015.2716 L789.4822,1016.1583 L787.8191,1017.5295 L786.0703,1018.7764 L785.9306,1018.5612 L784.3198,1020.0656 L782.577,1021.3667 L780.7412,1022.5245 L778.6837,1023.3409 L776.9688,1024.685 L777.0764,1024.8609 L774.9181,1025.5522 L773.2583,1027.0585 L771.264,1028.018 L769.4774,1029.317 L767.5766,1030.4291 L767.63,1030.5216 L765.7399,1031.7325 L763.5332,1032.3954 L761.8574,1033.9771 L759.8496,1034.9843 L757.8684,1036.0374 L757.9442,1036.1759 L756.0181,1037.4291 L753.8498,1038.2398 L751.8762,1039.4062 L749.8745,1040.5212 L747.819,1041.5382 L747.8595,1041.6159 L745.7357,1042.6222 L743.7986,1043.987 L741.4444,1044.5508 L739.6024,1046.0984 L737.4032,1046.9599 L737.2798,1046.7115 L735.1348,1047.8191 L733.0881,1049.1243 L730.9243,1050.1938 L728.6597,1051.0606 L726.5956,1052.331 L726.6747,1052.497 L724.3715,1053.4445 L722.2447,1054.7621 L719.9884,1055.808 L717.5302,1056.4303 L715.371,1057.68 L715.2973,1057.5192 L713.0137,1058.6988 L710.7702,1059.9657 L708.4456,1061.0559 L706.0934,1062.0858 L703.7042,1063.0352 L703.6432,1062.896 L698.8653,1065.4629 L693.9125,1067.6304 L688.8387,1069.5218 L683.8522,1071.6123 L678.9425,1073.8783 L678.8737,1073.7136 L673.5389,1076.0321 L668.2324,1078.4184 L662.8304,1080.5759 L657.4037,1082.6745 L652.1085,1085.0877 L652.1899,1085.2885 L646.2101,1087.2594 L640.549,1090.016 L634.7148,1092.3458 L628.8838,1094.6836 L623,1096.8912 L623.071,1097.1906 L619.3504,1097.644 L615.7205,1098.4795 L612.1802,1099.6931 L608.4414,1100.0698 L604.8783,1101.1871 L604.8681,1101.0836 L602.6465,1101.4569 L600.4077,1101.6549 L598.1524,1101.6846 L595.9293,1102.0428 L593.6944,1102.2805 L593.7094,1102.6111 L591.2494,1102.6802 L588.7663,1102.2393 L586.3219,1102.6507 L583.8519,1102.4995 L581.4042,1102.8394 L581.4041,1102.8277 L578.7728,1102.9998 L576.1405,1103.0864 L573.502,1102.6346 L570.8745,1103.1382 L568.2395,1102.9904 L568.2396,1102.9941 L565.4757,1102.7175 L562.7146,1102.7288 L559.9565,1103.0572 L557.1947,1102.997 L554.4321,1102.8598 L554.432,1102.8525 L548.7027,1102.4412 L542.9919,1102.9123 L537.2597,1102.3613 L531.5345,1102.1452 L525.8163,1102.2599 L525.8158,1102.23 L522.9512,1102.4787 L520.0824,1102.4468 L517.2095,1102.1457 L514.3393,1102.0196 L511.4713,1102.0435 L511.4714,1102.119 L508.6593,1102.1279 L505.847,1101.821 L503.0351,1102.2322 L500.2231,1102.2982 L497.4108,1102.0514 L497.4083,1101.9556 L494.6969,1101.9325 L492.001,1102.4946 L489.2845,1102.276 L486.5754,1102.3383 L483.8665,1102.4101 L483.8752,1102.5427 L481.2885,1102.2909 L478.7633,1102.9795 L476.1883,1102.9048 L473.6488,1103.3754 L471.0702,1103.246 L471.0586,1103.1508 L468.7288,1103.7144 L466.3196,1103.626 L463.9934,1104.2179 L461.6373,1104.565 L459.2535,1104.6856 L459.2244,1104.5431 L457.1649,1105.2776 L454.9606,1105.3047 L452.8486,1105.7826 L450.8303,1106.7187 L448.6485,1106.8554 L448.7669,1107.1355 L445.4171,1108.4953 L441.9267,1109.5221 L438.7259,1111.2341 L435.248,1112.2907 L432,1113.8912 L432.0164,1113.9111 L429.6627,1115.8101 L427.252,1117.6398 L425.1628,1119.8609 L422.7771,1121.721 L420.3151,1123.4882 L420.2093,1123.3925 L418.4495,1125.8996 L416.267,1128.0244 L414.0052,1130.0774 L412.0815,1132.4362 L410.1192,1134.7602 L409.9283,1134.6259 L408.3083,1137.2267 L406.3698,1139.6034 L404.6199,1142.1128 L403.1032,1144.7862 L401.3172,1147.2703 L401.2706,1147.244 L399.7938,1149.9197 L398.2604,1152.5634 L396.8799,1155.2933 L395.0995,1157.7978 L393.8138,1160.5812 L393.8784,1160.6109 L392.2537,1163.1779 L391.4132,1166.1061 L390.2729,1168.8962 L388.9844,1171.618 L387.5136,1174.2558 L387.6636,1174.3131 L386.555,1177.0065 L385.4806,1179.7131 L384.1325,1182.3151 L383.5452,1185.2076 L382.3214,1187.8571 L382.461,1187.9017 L381.4206,1190.4545 L380.6472,1193.0926 L379.7254,1195.6834 L379.07,1198.3592 L378.142,1200.9479 L378.4341,1201.0264 L377.3377,1203.3358 L377.0384,1205.8593 L376.1465,1208.2236 L375.3696,1210.6188 L374.88,1213.0912 " fill="none" style="stroke:#8B0000;stroke-width:4.0;"/><polygon fill="#8B0000" points="373.75,1217.9312,373.8058,1217.9735,374.8299,1216.278,376.1813,1214.8307,377.4261,1213.3026,378.3204,1211.5087,379.6999,1210.0827,379.6862,1210.0607,378.6634,1210.558,377.7094,1211.1663,376.8032,1211.8518,375.7322,1212.2713,374.892,1213.0633,375.0489,1213.1606,374.1173,1211.9911,373.6437,1211.1054,373.226,1210.2545,372.4832,1209.202,371.9114,1208.2554,371.9337,1208.2597,372.2686,1210.1886,372.7053,1212.1368,373.0929,1214.0758,373.5741,1216.0325,373.75,1217.9312" style="stroke:#8B0000;stroke-width:4.0;"/><text fill="#000000" font-family="Chalkduster" font-size="24" lengthAdjust="spacing" textLength="164" x="924" y="884.732">conformsTo</text></g><!--link api to stor--><g id="link_api_stor"><path d="M956.34,407.5112 L956.62,407.5232 L956.2377,417.9047 L957.4966,428.3569 L958.2212,438.7861 L957.188,449.1394 L958.4844,459.5933 L959.0375,470.0151 L958.8481,470.0069 L958.9446,471.8021 L959.162,473.6025 L958.9627,475.3849 L959.5929,477.2031 L959.4245,478.9869 L959.1446,478.9748 L959.3758,479.8895 L959.6945,480.808 L959.5037,481.7045 L959.6112,482.6138 L959.62,483.5189 L959.6058,483.5183 L959.7189,483.9774 L959.7654,484.4336 L959.9389,484.8952 L959.9965,485.3519 L959.7181,485.7941 " fill="none" style="stroke:#8B0000;stroke-width:4.0;"/><polygon fill="#8B0000" points="956.14,402.8212,956.2052,402.8468,955.2895,404.6032,954.756,406.5102,954.098,408.3681,953.0309,410.0648,952.5302,411.9846,952.5111,411.9671,953.1903,411.0549,953.9658,410.231,954.8081,409.4684,955.42,408.4944,956.3547,407.8165,956.4795,407.9525,957.0463,408.4267,957.9774,409.2978,958.9529,410.2174,959.6698,410.8551,960.5228,411.6411,960.5431,411.6512,959.6367,409.8724,958.823,408.1396,957.9645,406.3846,957.1914,404.672,956.14,402.8212" style="stroke:#8B0000;stroke-width:4.0;"/><polygon fill="#8B0000" points="959.7181,485.7941,959.7833,485.8198,960.3113,483.9107,961.2214,482.1521,962.0072,480.3445,962.3836,478.3758,963.3266,476.6301,963.3075,476.6126,962.457,477.3677,961.7028,478.2111,961.0155,479.1159,960.0976,479.8092,959.5027,480.7987,959.6274,480.9347,958.5269,479.8791,957.7906,479.2206,957.0988,478.6105,956.1484,477.7185,955.334,476.9748,955.3544,476.985,956.2013,478.7339,957.1409,480.529,958.0358,482.3019,959.0161,484.1172,959.7181,485.7941" style="stroke:#8B0000;stroke-width:4.0;"/></g><!--link policy to ldac--><!--link policy to PIDs--><g id="link_policy_PIDs"><path d="M132.36,401.0612 L132.4253,401.1279 L130.7581,402.3702 L129.4737,404.0039 L128.0647,405.5102 L126.2456,406.5971 L124.9941,408.2645 L124.9684,408.2415 L123.4813,409.6717 L122.1241,411.218 L120.8571,412.845 L119.2792,414.1939 L118.1367,415.9323 L118.3427,416.0669 L115.7976,418.999 L113.854,422.3242 L111.9836,425.6974 L109.6864,428.7915 L107.6138,432.0324 L107.6434,432.0388 L106.9019,435.2438 L106.2954,438.4781 L105.6237,441.6982 L105.0763,444.9453 L104.1239,448.1044 L104.3943,448.2302 L105.7729,451.1891 L106.977,454.0668 L108.4364,457.0634 L109.9078,460.0654 L111,462.8912 L110.891,462.5898 L113.4584,464.027 L115.6668,464.4719 L118.1481,465.6712 L120.3483,466.0935 L122.779,467.1527 L122.7755,467.1225 L124.8037,467.7083 L126.7507,467.5875 L128.7455,467.8837 L130.7444,468.2148 L132.7143,468.2934 L132.7237,468.4782 L135.1285,468.4141 L137.5493,468.6658 L139.9442,468.4066 L142.3778,468.9094 L144.7856,468.9055 L144.7888,469.1492 L147.5455,469.1395 L150.3037,469.2508 L153.0545,468.8001 L155.8108,468.7613 L158.5718,469.0875 L158.5691,468.8114 L161.5876,469.0315 L164.603,468.9404 L167.6229,469.3007 L170.6352,468.8903 L173.652,468.938 L173.6483,468.7856 L176.845,468.963 L180.0261,468.4888 L183.2183,468.4779 L186.4213,468.9204 L189.605,468.5556 L189.6111,468.7491 L192.8963,468.7785 L196.1625,468.2058 L199.4525,468.3872 L202.7373,468.4043 L206.01,468.0387 L206.0033,467.8288 L212.505,467.7875 L219.0045,467.6775 L225.5084,467.7025 L231.9954,467.2025 L238.4918,466.9958 L238.4962,467.2014 L241.5334,466.684 L244.5792,466.5634 L247.6375,467.0223 L250.6728,466.4142 L253.7266,466.667 L253.7277,466.8932 L256.5276,466.7451 L259.3271,466.5204 L262.1275,466.4684 L264.9298,466.8157 L267.7294,466.598 L267.7263,466.465 L270.2055,466.9189 L272.6635,466.4682 L275.1456,467.046 L277.6142,467.0447 L280.0791,466.8874 L280.087,466.996 L282.1357,467.0576 L284.2128,467.508 L286.2642,467.6071 L288.3051,467.5594 L290.3548,467.6337 L290.3845,467.7491 L292.8694,468.2291 L295.4923,469.245 L297.9591,469.6548 L300.4901,470.3139 L303,470.8912 L302.8281,470.6825 L305.062,472.5454 L307.5031,474.6596 L309.651,476.4182 L311.694,478.0492 L313.8826,479.8572 L313.7776,479.7598 L315.726,481.8574 L317.4885,483.7826 L319.7621,486.1815 L321.7828,488.346 L323.4564,490.189 L323.6454,490.3269 L325.3757,492.6581 L326.7469,494.7272 L328.497,497.073 L329.9963,499.2356 L331.8052,501.6242 L331.9141,501.6881 L333.3413,504.135 L334.9,506.6591 L336.0418,508.9383 L337.5198,511.415 L339.0128,513.9005 L339.1906,513.9856 L340.4703,516.5804 L341.2674,518.9442 L342.6252,521.5763 L343.9928,524.2132 L345.163,526.7555 L344.9103,526.6562 L346.3445,529.4472 L347.3404,532.066 L348.2273,534.6419 L349.3632,537.3157 L350.3396,539.9268 L350.6477,540.0266 L351.0647,542.5289 L352.1876,545.26 L353.0326,547.901 L353.8181,550.5228 L354.6265,553.152 L354.687,553.1681 L355.3715,555.7683 L355.7509,558.287 L356.543,560.916 L357.2131,563.5123 L358.1075,566.1687 L358.1351,566.1752 L358.2964,566.8158 L358.4791,567.4615 L358.4341,568.0534 L358.6816,568.7144 L358.8616,569.3595 " fill="none" style="stroke:#8B0000;stroke-width:4.0;"/><polygon fill="#8B0000" points="358.8616,569.3595,358.9304,569.3729,359.1012,567.3995,359.6751,565.5043,360.1178,563.5837,360.1287,561.5793,360.7373,559.6909,360.7153,559.6772,360.0169,560.5748,359.4293,561.5417,358.9186,562.5567,358.1427,563.4059,357.7383,564.4873,357.8361,564.6438,356.6676,563.7094,355.7847,563.2318,354.9367,562.81,353.886,562.0639,352.9418,561.4883,352.96,561.502,354.1173,563.0562,355.3573,564.6726,356.5574,566.2589,357.8337,567.9026,358.8616,569.3595" style="stroke:#8B0000;stroke-width:4.0;"/><text fill="#000000" font-family="Chalkduster" font-size="24" lengthAdjust="spacing" textLength="166" x="112" y="455.732">Recommend</text></g><!--SRC=[TP5HQy8m58NVyokkVMzbUvHIACf042pRtkOOCRbgjZGfISfMXlzzDz69TInFoVdElJatcIWZT2_nhULcWAAOIXvuJWU-nnPDo7qOD1RXAx39s3hrWHl9dVIvi6rd3RbzqVMjPa45ZJDukXYstAC47woZjf0H41yPSoZ8iTUamCsgdJYeGBnt2CbEuiPi33cv1quOoj9XPxsYhaDLmJUBXLSzwsQP9NEd4egJnI3n_XGaqHZgN7jJlzw-tsN_WFiJEB8ZOz47UGLQSW4p4DRih6lzixqGPyTwkfFqzVnXDIQK5SfSsaz3EDgk7gbnTgSq-h-JhXPyNaDZjH936gfBssGxRI7rV3aeAT6ydiF6yB-Of6Qvy9Jc4UaxwUib-m40]--></g></svg>