<?xml version="1.0" encoding="UTF-8" standalone="no"?><svg xmlns="http://www.w3.org/2000/svg" xmlns:xlink="http://www.w3.org/1999/xlink" contentStyleType="text/css" height="1412px" preserveAspectRatio="none" style="width:1491px;height:1412px;background:#FFFFFF;" version="1.1" viewBox="0 0 1491 1412" width="1491px" zoomAndPan="magnify"><defs/><g><text fill="#000000" font-family="Chalkduster" font-size="42" font-weight="bold" lengthAdjust="spacing" textLength="784" x="346.5" y="51.7215">Standards-based storage "Stack"</text><!--cluster Standards--><g id="cluster_Standards"><polygon fill="#ADD8E6" points="9.5,132.8912,9.5,133.1013,19.5316,132.4768,29.5632,133.0844,39.5947,133.2908,49.6263,132.1778,59.6579,132.8134,69.6895,132.4647,79.7211,132.5077,89.7526,132.823,99.7842,132.1998,109.8158,133.4448,119.8474,132.2609,129.8789,132.6934,139.9105,133.3231,149.9421,132.8054,159.9737,132.9594,170.0053,132.8592,180.0368,133.0697,190.0684,133.1303,200.1,133.4769,210.1316,133.5622,220.1632,133.5704,230.1947,133.1458,240.2263,133.3547,250.2579,133.5934,260.2895,132.17,270.3211,133.5697,280.3526,132.5947,290.3842,133.425,300.4158,132.3961,310.4474,132.8227,320.4789,133.6328,330.5105,132.8424,340.5421,132.9965,350.5737,133.2298,360.6053,133.3074,370.6368,132.8873,380.6684,133.1784,390.7,132.3187,400.7316,133.1755,410.7632,133.4394,420.7947,133.3357,430.8263,133.5042,440.8579,132.4081,450.8895,132.239,460.9211,132.2698,470.9526,132.8323,480.9842,132.6946,491.0158,133.5726,501.0474,132.7165,511.0789,132.5481,521.1105,133.1194,531.1421,132.2243,541.1737,132.372,551.2053,133.5401,561.2368,133.3268,571.2684,133.6257,581.3,132.5694,591.3316,133.2104,601.3632,133.4816,611.3947,132.4188,621.4263,132.7953,631.4579,133.0171,641.4895,133.5429,651.5211,132.887,661.5526,133.3537,671.5842,132.3374,681.6158,132.2139,691.6474,133.3948,701.6789,132.1742,711.7105,133.4001,721.7421,133.0978,731.7737,132.6232,741.8053,132.5374,751.8368,133.3499,761.8684,132.5918,771.9,133.483,781.9316,132.3384,791.9632,133.5086,801.9947,133.3755,812.0263,133.1361,822.0579,132.9384,832.0895,133.6178,842.1211,133.5047,852.1526,133.0604,862.1842,133.1593,872.2158,132.7609,882.2474,133.6076,892.2789,133.046,902.3105,133.0637,912.3421,132.2828,922.3737,132.4859,932.4053,133.4219,942.4368,133.3209,952.4684,132.8482,962.5,132.8912,962.4589,132.7919,962.8256,132.9702,963.1196,132.9727,963.6136,133.4582,964.0086,133.7047,964.2678,133.6234,964.4299,133.6905,964.6282,134.0656,964.5186,134.3131,964.734,134.6952,964.7342,134.9882,965,135.3912,965.284,135.3912,965.2468,145.3833,965.5524,155.3754,964.7703,165.3675,964.8656,175.3597,965.4435,185.3518,965.5673,195.3439,964.4875,205.336,964.8061,215.3282,965.1493,225.3203,964.3892,235.3124,965.3534,245.3045,965.258,255.2967,964.8992,265.2888,965.1422,275.2809,965.7287,285.2731,964.6871,295.2652,965.315,305.2573,965.2856,315.2494,965.1158,325.2416,965.1409,335.2337,965.1135,345.2258,964.3758,355.2179,964.5992,365.2101,964.5385,375.2022,965.0638,385.1943,965.0881,395.1864,965.1617,405.1786,964.709,415.1707,964.9325,425.1628,964.8798,435.1549,965.5769,445.1471,965.4266,455.1392,964.5145,465.1313,964.9271,475.1234,964.4228,485.1156,965.2884,495.1077,965.6085,505.0998,965.5446,515.0919,964.5644,525.0841,965.464,535.0762,964.2572,545.0683,965.2002,555.0605,964.7007,565.0526,965.0967,575.0447,965.2403,585.0368,965.4721,595.029,964.2801,605.0211,965.4755,615.0132,965.1782,625.0053,965.3553,634.9975,965.7478,644.9896,965.0055,654.9817,965.1753,664.9738,965.2134,674.966,965.1972,684.9581,964.9992,694.9502,965.7107,704.9423,964.3903,714.9345,965.5653,724.9266,964.376,734.9187,964.4597,744.9108,965.04,754.903,965.0283,764.8951,964.5072,774.8872,965.4137,784.8793,965.1089,794.8715,965.7267,804.8636,965.6671,814.8557,964.5517,824.8479,964.6021,834.84,964.8708,844.8321,965.3555,854.8242,965.403,864.8164,965.3012,874.8085,964.658,884.8006,965.6364,894.7927,965.6338,904.7849,964.9527,914.777,964.7609,924.7691,964.5986,934.7612,964.7854,944.7534,965.1374,954.7455,964.9316,964.7376,964.5822,974.7297,965.4874,984.7219,964.5411,994.714,965.5024,1004.7061,965.4272,1014.6982,965.3719,1024.6904,965.6925,1034.6825,964.7541,1044.6746,964.6994,1054.6668,965.5189,1064.6589,964.4031,1074.651,964.766,1084.6431,965.1155,1094.6353,965.0687,1104.6274,964.6415,1114.6195,964.957,1124.6116,965.7446,1134.6038,965.6485,1144.5959,964.4037,1154.588,965.0785,1164.5801,964.4861,1174.5723,964.9737,1184.5644,965.293,1194.5565,965.4199,1204.5486,964.3353,1214.5408,965.4005,1224.5329,965.0084,1234.525,964.4447,1244.5171,964.5289,1254.5093,965.3266,1264.5014,965.2499,1274.4935,964.9836,1284.4856,964.3279,1294.4778,965.6581,1304.4699,964.6882,1314.462,964.4719,1324.4542,964.9327,1334.4463,965.5897,1344.4384,965.6154,1354.4305,965.0351,1364.4227,964.8488,1374.4148,965.1698,1384.4069,965.1862,1394.399,965,1404.3912,964.8436,1404.3264,964.981,1404.7975,964.8792,1405.1695,964.4942,1405.4243,964.282,1405.7506,964.2678,1406.1589,964.3538,1406.3667,963.9169,1406.3118,963.5606,1406.4518,963.2453,1406.6904,962.7712,1406.5459,962.5,1406.8912,962.5,1407.4211,952.4684,1406.8757,942.4368,1407.56,932.4053,1406.6753,922.3737,1407.3002,912.3421,1406.4472,902.3105,1407.1362,892.2789,1407.2705,882.2474,1406.5638,872.2158,1407.2542,862.1842,1406.3197,852.1526,1406.4207,842.1211,1407.574,832.0895,1407.5755,822.0579,1407.4597,812.0263,1406.5308,801.9947,1407.2754,791.9632,1406.4191,781.9316,1406.9493,771.9,1406.8899,761.8684,1406.6287,751.8368,1407.5071,741.8053,1407.3344,731.7737,1406.5704,721.7421,1407.4178,711.7105,1406.983,701.6789,1406.3076,691.6474,1406.6578,681.6158,1406.3659,671.5842,1406.7521,661.5526,1406.2622,651.5211,1406.291,641.4895,1406.9615,631.4579,1406.7708,621.4263,1406.8326,611.3947,1406.748,601.3632,1407.0585,591.3316,1406.3361,581.3,1407.0512,571.2684,1406.148,561.2368,1407.1872,551.2053,1407.4839,541.1737,1407.4133,531.1421,1407.2525,521.1105,1407.0834,511.0789,1406.9969,501.0474,1406.2511,491.0158,1407.3377,480.9842,1407.2208,470.9526,1406.7378,460.9211,1406.8854,450.8895,1406.6826,440.8579,1407.1089,430.8263,1407.5717,420.7947,1406.5373,410.7632,1407.36,400.7316,1406.802,390.7,1406.5119,380.6684,1406.4593,370.6368,1406.2465,360.6053,1406.4503,350.5737,1406.9275,340.5421,1407.1641,330.5105,1407.4674,320.4789,1407.3113,310.4474,1406.1798,300.4158,1407.5102,290.3842,1407.3773,280.3526,1407.4319,270.3211,1407.413,260.2895,1406.232,250.2579,1406.6334,240.2263,1407.2071,230.1947,1406.4097,220.1632,1406.7883,210.1316,1406.9582,200.1,1407.2172,190.0684,1406.9369,180.0368,1407.6359,170.0053,1407.3026,159.9737,1407.1472,149.9421,1406.3512,139.9105,1407.2299,129.8789,1406.3167,119.8474,1407.1968,109.8158,1406.899,99.7842,1407.1906,89.7526,1406.8037,79.7211,1406.6951,69.6895,1406.1503,59.6579,1406.6767,49.6263,1406.1862,39.5947,1406.645,29.5632,1407.329,19.5316,1407.0519,9.5,1406.8912,9.4424,1406.7521,9.1778,1406.8204,8.8013,1406.6185,8.5086,1406.6191,8.1579,1406.4794,7.7322,1406.1589,7.7611,1406.1709,7.5307,1405.7825,7.3733,1405.4245,7.2909,1405.0975,7.3525,1404.8301,7,1404.3912,6.3263,1404.3912,6.8361,1394.399,7.2668,1384.4069,7.7317,1374.4148,7.2119,1364.4227,6.8018,1354.4305,6.2621,1344.4384,6.5762,1334.4463,6.7781,1324.4542,7.3398,1314.462,7.3695,1304.4699,7.0518,1294.4778,6.867,1284.4856,6.2804,1274.4935,7.129,1264.5014,7.4354,1254.5093,7.6829,1244.5171,7.0983,1234.525,7.0799,1224.5329,6.7798,1214.5408,7.2487,1204.5486,6.53,1194.5565,7.5161,1184.5644,6.6943,1174.5723,6.4698,1164.5801,7.2569,1154.588,7.4718,1144.5959,7.0573,1134.6038,6.8789,1124.6116,7.1579,1114.6195,6.9753,1104.6274,6.9049,1094.6353,7.0769,1084.6431,6.668,1074.651,7.3895,1064.6589,7.6875,1054.6668,6.6464,1044.6746,6.7656,1034.6825,6.5314,1024.6904,7.2369,1014.6982,6.9062,1004.7061,7.5514,994.714,6.6998,984.7219,6.6411,974.7297,7.2968,964.7376,6.7755,954.7455,7.2669,944.7534,7.2796,934.7612,7.4358,924.7691,6.5152,914.777,7.088,904.7849,7.5351,894.7927,6.4569,884.8006,7.5044,874.8085,6.6604,864.8164,7.1567,854.8242,7.6528,844.8321,6.3696,834.84,7.7221,824.8479,6.9216,814.8557,6.6741,804.8636,7.7313,794.8715,6.3123,784.8793,7.6056,774.8872,6.5987,764.8951,7.2901,754.903,7.73,744.9108,6.8515,734.9187,6.5728,724.9266,6.6267,714.9345,6.8177,704.9423,7.2961,694.9502,6.4447,684.9581,7.5114,674.966,7.5645,664.9738,6.2979,654.9817,6.8573,644.9896,6.5373,634.9975,7.1721,625.0053,6.2885,615.0132,7.1357,605.0211,7.3587,595.029,6.9512,585.0368,7.1559,575.0447,7.0141,565.0526,7.2472,555.0605,7.7179,545.0683,7.6579,535.0762,7.2698,525.0841,7.0485,515.0919,7.2436,505.0998,7.1528,495.1077,7.1926,485.1156,7.4578,475.1234,6.2689,465.1313,7.4323,455.1392,7.5061,445.1471,6.3152,435.1549,7.6309,425.1628,7.1348,415.1707,6.8667,405.1786,6.356,395.1864,6.6698,385.1943,7.6239,375.2022,6.4134,365.2101,7.5453,355.2179,6.7715,345.2258,7.3158,335.2337,6.5076,325.2416,6.7655,315.2494,7.6784,305.2573,7.2497,295.2652,6.8041,285.2731,7.2248,275.2809,7.5497,265.2888,7.203,255.2967,7.6193,245.3045,7.5,235.3124,7.1774,225.3203,6.8702,215.3282,6.7172,205.336,6.6341,195.3439,7.2777,185.3518,7.0356,175.3597,7.6175,165.3675,6.6617,155.3754,6.8528,145.3833,7,135.3912,6.7829,135.3012,7.2518,135.0813,7.0907,134.6003,7.2207,134.2399,7.4935,133.9387,7.7322,133.6234,7.6879,133.5164,8.1184,133.5557,8.388,133.2065,8.886,133.4088,9.121,132.9761,9.5,132.8912" style="stroke:#181818;stroke-width:4.0;"/><text fill="#000000" font-family="Chalkduster" font-size="24" font-style="italic" lengthAdjust="spacing" textLength="170" x="401" y="158.732">«standards»</text><text fill="#000000" font-family="Chalkduster" font-size="24" font-weight="bold" lengthAdjust="spacing" textLength="138" x="417" y="189.3619">Standards</text></g><!--cluster ro--><g id="cluster_ro"><path d="M533.5,915.8912 L533.5,916.4516 L543.2692,914.7863 L553.0385,916.4066 L562.8077,916.957 L572.5769,913.9888 L582.3462,915.6839 L592.1154,914.7538 L601.8846,914.8685 L611.6538,915.7094 L621.4231,914.0475 L631.1923,917.3675 L640.9615,914.2104 L650.7308,915.3638 L660.5,915.8912 L663,918.3912 L663.3761,918.4683 L664.3253,925.2018 L665.8594,932.0553 L667.1722,938.8634 L668.7555,945.7269 L670,952.521 L670,953.1587 L680.0192,954.0828 L690.0385,954.3105 L700.0577,954.3323 L710.0769,953.2 L720.0962,953.7572 L730.1154,954.3936 L740.1346,950.5978 L750.1538,954.3304 L760.1731,951.7303 L770.1923,953.9445 L780.2115,951.2009 L790.2308,952.3383 L800.25,954.4986 L810.2692,952.391 L820.2885,952.8018 L830.3077,953.424 L840.3269,953.6309 L850.3462,952.5106 L860.3654,953.2869 L870.3846,950.9945 L880.4038,953.2794 L890.4231,953.9828 L900.4423,953.7064 L910.4615,954.1557 L920.4808,951.2328 L930.5,952.521 L933,955.021 L931.2608,955.021 L931.3429,965.3018 L932.843,975.5827 L932.4759,985.8635 L934.8171,996.1444 L932.5342,1006.4252 L932.0852,1016.7061 L933.6087,1026.9869 L931.2218,1037.2678 L931.6157,1047.5486 L934.7305,1057.8295 L934.1618,1068.1103 L933,1078.3912 L930.5,1080.8912 L930.5,1082.8498 L920.575,1080.033 L910.65,1081.7424 L900.725,1082.4656 L890.8,1079.6314 L880.875,1080.6355 L870.95,1081.2271 L861.025,1082.6292 L851.1,1080.88 L841.175,1082.1247 L831.25,1079.4144 L821.325,1079.0851 L811.4,1082.2341 L801.475,1078.9793 L791.55,1082.2484 L781.625,1081.4422 L771.7,1080.1767 L761.775,1079.9478 L751.85,1082.1145 L741.925,1080.0929 L732,1082.4695 L722.075,1079.4172 L712.15,1082.5376 L702.225,1082.1826 L692.3,1081.5444 L682.375,1081.0171 L672.45,1082.8288 L662.525,1082.5274 L652.6,1081.3425 L642.675,1081.6063 L632.75,1080.5438 L622.825,1082.8017 L612.9,1081.3041 L602.975,1081.3514 L593.05,1079.2689 L583.125,1079.8106 L573.2,1082.3065 L563.275,1082.0372 L553.35,1080.7767 L543.425,1080.032 L533.5,1080.8912 L531,1078.3912 L530.4162,1078.3912 L529.1702,1068.3912 L532.106,1058.3912 L532.9722,1048.3912 L532.4037,1038.3912 L532.8532,1028.3912 L530.6354,1018.3912 L531.2326,1008.3912 L529.9664,998.3912 L531.7574,988.3912 L531.658,978.3912 L532.473,968.3912 L530.3876,958.3912 L530.6416,948.3912 L532.1826,938.3912 L532.5129,928.3912 L531,918.3912 L533.5,915.8912 " fill="none" style="stroke:#000000;stroke-width:4.0;"/><path d="M531,952.521 L531,952.8012 L540.9286,951.9686 L550.8571,952.7787 L560.7857,953.0539 L570.7143,951.5698 L580.6429,952.4174 L590.5714,951.9523 L600.5,952.0097 L610.4286,952.4301 L620.3571,951.5992 L630.2857,953.2592 L640.2143,951.6806 L650.1429,952.2573 L660.0714,953.0969 L670,952.521 " fill="none" style="stroke:#000000;stroke-width:4.0;"/><text fill="#000000" font-family="Chalkduster" font-size="24" font-weight="bold" lengthAdjust="spacing" textLength="126" x="535" y="941.732">RO-Crate</text></g><!--cluster sstorage--><g id="cluster_sstorage"><polygon fill="none" points="533.5,1129.8912,533.5,1130.1013,543.6034,1129.4768,553.7069,1130.0844,563.8103,1130.2908,573.9138,1129.1778,584.0172,1129.8134,594.1207,1129.4647,604.2241,1129.5077,614.3276,1129.823,624.431,1129.1998,634.5345,1130.4448,644.6379,1129.2609,654.7414,1129.6934,664.8448,1130.3231,674.9483,1129.8054,685.0517,1129.9594,695.1552,1129.8592,705.2586,1130.0697,715.3621,1130.1303,725.4655,1130.4769,735.569,1130.5622,745.6724,1130.5704,755.7759,1130.1458,765.8793,1130.3547,775.9828,1130.5934,786.0862,1129.17,796.1897,1130.5697,806.2931,1129.5947,816.3966,1130.425,826.5,1129.8912,826.4369,1129.7387,826.8448,1130.0165,827.3017,1130.4124,827.5544,1130.3155,827.9276,1130.5094,828.2678,1130.6234,828.3721,1130.6666,828.5424,1131.03,828.5595,1131.33,828.7956,1131.7207,828.6773,1131.9646,829,1132.3912,829.2844,1132.3912,829.5482,1142.3912,829.4445,1152.3912,829.613,1162.3912,828.5169,1172.3912,828.3478,1182.3912,828.3786,1192.3912,828.9411,1202.3912,828.8035,1212.3912,829.6814,1222.3912,828.8253,1232.3912,828.6569,1242.3912,829.2283,1252.3912,828.3332,1262.3912,828.4809,1272.3912,829.649,1282.3912,829,1292.3912,829.1342,1292.4467,829.0797,1292.8384,828.608,1293.0572,828.659,1293.4925,828.596,1293.8807,828.2678,1294.1589,828.2075,1294.0134,827.902,1294.2759,827.5767,1294.4906,827.2902,1294.799,826.853,1294.7434,826.5,1294.8912,826.5,1295.3537,816.3966,1294.3374,806.2931,1294.2139,796.1897,1295.3948,786.0862,1294.1742,775.9828,1295.4001,765.8793,1295.0978,755.7759,1294.6232,745.6724,1294.5374,735.569,1295.3499,725.4655,1294.5918,715.3621,1295.483,705.2586,1294.3384,695.1552,1295.5086,685.0517,1295.3755,674.9483,1295.1361,664.8448,1294.9384,654.7414,1295.6178,644.6379,1295.5047,634.5345,1295.0604,624.431,1295.1593,614.3276,1294.7609,604.2241,1295.6076,594.1207,1295.046,584.0172,1295.0637,573.9138,1294.2828,563.8103,1294.4859,553.7069,1295.4219,543.6034,1295.3209,533.5,1294.8912,533.4945,1294.8779,533.1054,1294.6455,532.765,1294.5308,532.3518,1294.2405,532.1387,1294.4331,531.7322,1294.1589,531.96,1294.2533,531.7479,1293.8725,531.6534,1293.5405,531.2508,1293.0808,531.1733,1292.7558,531,1292.3912,530.6124,1292.3912,531.284,1282.3912,531.2468,1272.3912,531.5524,1262.3912,530.7703,1252.3912,530.8656,1242.3912,531.4435,1232.3912,531.5673,1222.3912,530.4875,1212.3912,530.8061,1202.3912,531.1493,1192.3912,530.3892,1182.3912,531.3534,1172.3912,531.258,1162.3912,530.8992,1152.3912,531.1422,1142.3912,531,1132.3912,531.2244,1132.4841,531.0501,1131.9977,531.3899,1131.7242,531.5273,1131.3669,531.6214,1130.9917,531.7322,1130.6234,531.7502,1130.6668,532.1003,1130.5119,532.3597,1130.1383,532.7418,1130.0606,533.0876,1129.8955,533.5,1129.8912" style="stroke:#181818;stroke-width:4.0;"/><text fill="#000000" font-family="Chalkduster" font-size="24" font-weight="bold" lengthAdjust="spacing" textLength="182" x="589" y="1155.732">Storage Specs</text></g><!--cluster PIDs--><g id="cluster_PIDs"><polygon fill="none" points="663.5,516.8912,663.5,517.1013,673.3889,516.4768,683.2778,517.0844,693.1667,517.2908,703.0556,516.1778,712.9444,516.8134,722.8333,516.4647,732.7222,516.5077,742.6111,516.823,752.5,516.1998,762.3889,517.4448,772.2778,516.2609,782.1667,516.6934,792.0556,517.3231,801.9444,516.8054,811.8333,516.9594,821.7222,516.8592,831.6111,517.0697,841.5,517.1303,851.3889,517.4769,861.2778,517.5622,871.1667,517.5704,881.0556,517.1458,890.9444,517.3547,900.8333,517.5934,910.7222,516.17,920.6111,517.5697,930.5,516.8912,930.4622,516.7998,930.9216,517.202,931.144,517.0316,931.5519,517.3094,932.0088,517.7053,932.2678,517.6234,932.2528,517.6172,932.4466,517.9904,932.6649,518.3737,932.8353,518.7371,932.8524,519.0371,933,519.3912,933.2872,519.3912,932.4276,529.5202,933.2844,539.6492,933.5482,549.7783,933.4445,559.9073,933.613,570.0363,932.5169,580.1654,932.3478,590.2944,932.3786,600.4234,932.9411,610.5525,932.8035,620.6815,933.6814,630.8105,932.8253,640.9395,932.6569,651.0686,933.2283,661.1976,932.3332,671.3266,932.4809,681.4557,933.649,691.5847,933.4357,701.7137,933.7345,711.8428,932.6782,721.9718,933.3192,732.1008,933.5904,742.2299,932.5276,752.3589,932.9041,762.4879,933.126,772.617,933.6518,782.746,932.9958,792.875,933.4626,803.0041,932.4462,813.1331,932.3227,823.2621,933,833.3912,933.1551,833.4554,932.6328,833.6533,932.8638,834.1632,932.6243,834.4782,932.3317,834.7712,932.2678,835.1589,932.2226,835.05,931.9727,835.4467,931.5225,835.3596,931.2826,835.7805,930.783,835.5745,930.5,835.8912,930.5,836.5086,920.6111,836.3755,910.7222,836.1361,900.8333,835.9384,890.9444,836.6178,881.0556,836.5047,871.1667,836.0604,861.2778,836.1593,851.3889,835.7609,841.5,836.6076,831.6111,836.046,821.7222,836.0637,811.8333,835.2828,801.9444,835.4859,792.0556,836.4219,782.1667,836.3209,772.2778,835.8482,762.3889,835.569,752.5,835.6722,742.6111,835.205,732.7222,836.3059,722.8333,836.6307,712.9444,836.4176,703.0556,836.5861,693.1667,835.7544,683.2778,835.9784,673.3889,835.5036,663.5,835.8912,663.5362,835.9786,663.1779,835.8207,662.8634,835.7684,662.41,835.3811,662.0686,835.264,661.7322,835.1589,661.8688,835.2155,661.7605,834.8777,661.2815,834.3864,661.2332,834.0735,661.1924,833.7638,661,833.3912,660.3892,833.3912,661.3534,823.2621,661.258,813.1331,660.8992,803.0041,661.1422,792.875,661.7287,782.746,660.6871,772.617,661.315,762.4879,661.2856,752.3589,661.1158,742.2299,661.1409,732.1008,661.1135,721.9718,660.3758,711.8428,660.5992,701.7137,660.5385,691.5847,661.0638,681.4557,661.0881,671.3266,661.1617,661.1976,660.709,651.0686,660.9325,640.9395,660.8798,630.8105,661.5769,620.6815,661.4266,610.5525,660.5145,600.4234,660.9271,590.2944,660.4228,580.1654,661.2884,570.0363,661.6085,559.9073,661.5446,549.7783,660.5644,539.6492,661.464,529.5202,661,519.3912,660.7712,519.2964,661.2081,519.0631,661.2007,518.6459,661.4691,518.3428,661.6598,518.0076,661.7322,517.6234,661.7925,517.7688,661.994,517.2552,662.5,517.4769,662.8156,517.2389,663.1918,517.147,663.5,516.8912" style="stroke:#181818;stroke-width:4.0;"/><text fill="#000000" font-family="Chalkduster" font-size="24" font-weight="bold" lengthAdjust="spacing" textLength="60" x="767" y="542.732">PIDs</text></g><!--cluster Profiles--><g id="cluster_Profiles"><polygon fill="none" points="41.5,259.8912,41.5,260.1013,51.4483,259.4768,61.3966,260.0844,71.3448,260.2908,81.2931,259.1778,91.2414,259.8134,101.1897,259.4647,111.1379,259.5077,121.0862,259.823,131.0345,259.1998,140.9828,260.4448,150.931,259.2609,160.8793,259.6934,170.8276,260.3231,180.7759,259.8054,190.7241,259.9594,200.6724,259.8592,210.6207,260.0697,220.569,260.1303,230.5172,260.4769,240.4655,260.5622,250.4138,260.5704,260.3621,260.1458,270.3103,260.3547,280.2586,260.5934,290.2069,259.17,300.1552,260.5697,310.1034,259.5947,320.0517,260.425,330,259.3961,339.9483,259.8227,349.8966,260.6328,359.8448,259.8424,369.7931,259.9965,379.7414,260.2298,389.6897,260.3074,399.6379,259.8873,409.5862,260.1784,419.5345,259.3187,429.4828,260.1755,439.431,260.4394,449.3793,260.3357,459.3276,260.5042,469.2759,259.4081,479.2241,259.239,489.1724,259.2698,499.1207,259.8323,509.069,259.6946,519.0172,260.5726,528.9655,259.7165,538.9138,259.5481,548.8621,260.1194,558.8103,259.2243,568.7586,259.372,578.7069,260.5401,588.6552,260.3268,598.6034,260.6257,608.5517,259.5694,618.5,259.8912,618.5407,259.9895,618.9289,260.2194,619.1468,260.0386,619.5484,260.301,619.9303,260.5157,620.2678,260.6234,620.4685,260.7065,620.4129,260.9764,620.7031,261.3895,620.5366,261.6134,620.645,261.9512,621,262.3912,621.5036,262.3912,620.2831,272.3197,621.509,282.2483,621.2066,292.1769,620.7321,302.1054,620.6462,312.034,621.4588,321.9626,620.7007,331.8912,621.5919,341.8197,620.4473,351.7483,621.6174,361.6769,621.4843,371.6054,621.245,381.534,621.0472,391.4626,621.7266,401.3912,621.6136,411.3197,621.1693,421.2483,621.2682,431.1769,620.8697,441.1054,621.7165,451.034,621.1549,460.9626,621.1726,470.8912,620.3916,480.8197,620.5948,490.7483,621.5307,500.6769,621.4298,510.6054,620.9571,520.534,620.6778,530.4626,620.7811,540.3912,620.3138,550.3197,621.4147,560.2483,621.7396,570.1769,621.5264,580.1054,621.6949,590.034,620.8633,599.9626,621.0872,609.8912,620.6124,619.8197,621.284,629.7483,621.2468,639.6769,621.5524,649.6054,620.7703,659.534,620.8656,669.4626,621,679.3912,621.1366,679.4477,621.0283,679.8171,620.5493,680.0329,620.501,680.4271,620.4602,680.8244,620.2678,681.1589,620.1898,680.9708,619.9593,681.4142,619.5936,681.5313,619.1943,681.5672,618.8717,681.7885,618.5,681.8912,618.5,682.6198,608.5517,681.5783,598.6034,682.2061,588.6552,682.1768,578.7069,682.0069,568.7586,682.0321,558.8103,682.0046,548.8621,681.267,538.9138,681.4903,528.9655,681.4296,519.0172,681.955,509.069,681.9793,499.1207,682.0529,489.1724,681.6002,479.2241,681.8236,469.2759,681.7709,459.3276,682.468,449.3793,682.3177,439.431,681.4056,429.4828,681.8182,419.5345,681.3139,409.5862,682.1795,399.6379,682.4996,389.6897,682.4357,379.7414,681.4556,369.7931,682.3551,359.8448,681.1484,349.8966,682.0913,339.9483,681.5918,330,681.9879,320.0517,682.1315,310.1034,682.3633,300.1552,681.1712,290.2069,682.3666,280.2586,682.0693,270.3103,682.2465,260.3621,682.639,250.4138,681.8966,240.4655,682.0664,230.5172,682.1046,220.569,682.0884,210.6207,681.8903,200.6724,682.6019,190.7241,681.2814,180.7759,682.4564,170.8276,681.2672,160.8793,681.3508,150.931,681.9312,140.9828,681.9194,131.0345,681.3983,121.0862,682.3049,111.1379,682,101.1897,682.6178,91.2414,682.5583,81.2931,681.4429,71.3448,681.4932,61.3966,681.762,51.4483,682.2467,41.5,681.8912,41.5514,682.0153,41.1849,681.8375,40.7493,681.493,40.5205,681.6478,40.1666,681.5006,39.7322,681.1589,39.7177,681.1529,39.5122,680.7749,39.3157,680.4006,39.2268,680.0709,39.1888,679.7622,39,679.3912,38.9316,679.3912,38.5822,669.4626,39.4874,659.534,38.5411,649.6054,39.5024,639.6769,39.4272,629.7483,39.3719,619.8197,39.6925,609.8912,38.7541,599.9626,38.6994,590.034,39.5189,580.1054,38.4031,570.1769,38.766,560.2483,39.1155,550.3197,39.0687,540.3912,38.6415,530.4626,38.957,520.534,39.7446,510.6054,39.6485,500.6769,38.4037,490.7483,39.0785,480.8197,38.4861,470.8912,38.9737,460.9626,39.293,451.034,39.4199,441.1054,38.3353,431.1769,39.4005,421.2483,39.0084,411.3197,38.4447,401.3912,38.5289,391.4626,39.3266,381.534,39.2499,371.6054,38.9836,361.6769,38.3279,351.7483,39.6581,341.8197,38.6882,331.8912,38.4719,321.9626,38.9327,312.034,39.5897,302.1054,39.6154,292.1769,39.0351,282.2483,38.8488,272.3197,39,262.3912,39.0523,262.4128,39.2038,262.0614,39.1365,261.6193,39.5668,261.3833,39.7579,261.0482,39.7322,260.6234,39.7047,260.5569,40.031,260.3448,40.5254,260.5383,40.7956,260.1905,41.1464,260.0376,41.5,259.8912" style="stroke:#181818;stroke-width:4.0;"/><text fill="#000000" font-family="Chalkduster" font-size="24" font-weight="bold" lengthAdjust="spacing" textLength="237" x="211.5" y="285.732">Profiles &amp; Policy</text></g><!--cluster arch--><g id="cluster_arch"><polygon fill="#00FF7F" points="991.5,83.8912,991.5,84.1013,1001.5204,83.4768,1011.5408,84.0844,1021.5612,84.2908,1031.5816,83.1778,1041.602,83.8134,1051.6224,83.4647,1061.6429,83.5077,1071.6633,83.823,1081.6837,83.1998,1091.7041,84.4448,1101.7245,83.2609,1111.7449,83.6934,1121.7653,84.3231,1131.7857,83.8054,1141.8061,83.9594,1151.8265,83.8592,1161.8469,84.0697,1171.8673,84.1303,1181.8878,84.4769,1191.9082,84.5622,1201.9286,84.5704,1211.949,84.1458,1221.9694,84.3547,1231.9898,84.5934,1242.0102,83.17,1252.0306,84.5697,1262.051,83.5947,1272.0714,84.425,1282.0918,83.3961,1292.1122,83.8227,1302.1327,84.6328,1312.1531,83.8424,1322.1735,83.9965,1332.1939,84.2298,1342.2143,84.3074,1352.2347,83.8873,1362.2551,84.1784,1372.2755,83.3187,1382.2959,84.1755,1392.3163,84.4394,1402.3367,84.3357,1412.3571,84.5042,1422.3776,83.4081,1432.398,83.239,1442.4184,83.2698,1452.4388,83.8323,1462.4592,83.6946,1472.4796,84.5726,1482.5,83.8912,1482.4777,83.8374,1482.8098,83.932,1483.2362,84.2544,1483.4756,84.1251,1483.848,84.3171,1484.2678,84.6234,1484.4676,84.7062,1484.5484,85.0325,1484.7869,85.4242,1484.608,85.643,1484.9519,86.0783,1485,86.3912,1485.5904,86.3912,1484.5276,96.3118,1484.9041,106.2324,1485.126,116.1531,1485.6518,126.0737,1484.9958,135.9943,1485.4626,145.915,1484.4462,155.8356,1484.3227,165.7562,1485.5036,175.6769,1484.2831,185.5975,1485.509,195.5181,1485.2066,205.4388,1484.7321,215.3594,1484.6462,225.28,1485.4588,235.2007,1484.7007,245.1213,1485.5919,255.042,1484.4473,264.9626,1485.6174,274.8832,1485.4843,284.8039,1485.245,294.7245,1485.0472,304.6451,1485.7266,314.5658,1485.6136,324.4864,1485.1693,334.407,1485.2682,344.3277,1484.8697,354.2483,1485.7165,364.1689,1485.1549,374.0896,1485.1726,384.0102,1484.3916,393.9308,1484.5948,403.8515,1485.5307,413.7721,1485.4298,423.6927,1484.9571,433.6134,1484.6778,443.534,1484.7811,453.4547,1484.3138,463.3753,1485.4147,473.2959,1485.7396,483.2166,1485.5264,493.1372,1485.6949,503.0578,1484.8633,512.9785,1485.0872,522.8991,1484.6124,532.8197,1485.284,542.7404,1485.2468,552.661,1485.5524,562.5816,1484.7703,572.5023,1484.8656,582.4229,1485.4435,592.3435,1485.5673,602.2642,1484.4875,612.1848,1484.8061,622.1054,1485.1493,632.0261,1484.3892,641.9467,1485.3534,651.8674,1485.258,661.788,1484.8992,671.7086,1485.1422,681.6293,1485.7287,691.5499,1484.6871,701.4705,1485,711.3912,1485.097,711.4313,1484.9415,711.7812,1484.7428,712.113,1484.6041,712.4698,1484.4492,712.8198,1484.2678,713.1589,1484.1881,712.9667,1483.8631,713.1819,1483.5018,713.3097,1483.2152,713.6179,1482.8648,713.7719,1482.5,713.8912,1482.5,714.0529,1472.4796,713.6002,1462.4592,713.8236,1452.4388,713.7709,1442.4184,714.468,1432.398,714.3177,1422.3776,713.4056,1412.3571,713.8182,1402.3367,713.3139,1392.3163,714.1795,1382.2959,714.4996,1372.2755,714.4357,1362.2551,713.4556,1352.2347,714.3551,1342.2143,713.1484,1332.1939,714.0913,1322.1735,713.5918,1312.1531,713.9879,1302.1327,714.1315,1292.1122,714.3633,1282.0918,713.1712,1272.0714,714.3666,1262.051,714.0693,1252.0306,714.2465,1242.0102,714.639,1231.9898,713.8966,1221.9694,714.0664,1211.949,714.1046,1201.9286,714.0884,1191.9082,713.8903,1181.8878,714.6019,1171.8673,713.2814,1161.8469,714.4564,1151.8265,713.2672,1141.8061,713.3508,1131.7857,713.9312,1121.7653,713.9194,1111.7449,713.3983,1101.7245,714.3049,1091.7041,714,1081.6837,714.6178,1071.6633,714.5583,1061.6429,713.4429,1051.6224,713.4932,1041.602,713.762,1031.5816,714.2467,1021.5612,714.2941,1011.5408,714.1923,1001.5204,713.5492,991.5,713.8912,991.5812,714.0871,991.2273,713.9399,990.7869,713.5837,990.4088,713.3782,990.0346,713.1818,989.7322,713.1589,989.6662,713.1316,989.6281,712.8229,989.4183,712.4431,989.1642,712.045,989.2965,711.8069,989,711.3912,988.5411,711.3912,989.5024,701.4705,989.4272,691.5499,989.3719,681.6293,989.6925,671.7086,988.7541,661.788,988.6994,651.8674,989.5189,641.9467,988.4031,632.0261,988.766,622.1054,989.1155,612.1848,989.0687,602.2642,988.6415,592.3435,988.957,582.4229,989.7446,572.5023,989.6485,562.5816,988.4037,552.661,989.0785,542.7404,988.4861,532.8197,988.9737,522.8991,989.293,512.9785,989.4199,503.0578,988.3353,493.1372,989.4005,483.2166,989.0084,473.2959,988.4447,463.3753,988.5289,453.4547,989.3266,443.534,989.2499,433.6134,988.9836,423.6927,988.3279,413.7721,989.6581,403.8515,988.6882,393.9308,988.4719,384.0102,988.9327,374.0896,989.5897,364.1689,989.6154,354.2483,989.0351,344.3277,988.8488,334.407,989.1698,324.4864,989.1862,314.5658,988.4922,304.6451,989.414,294.7245,989.5588,284.8039,988.7842,274.8832,988.5708,264.9626,989.6746,255.042,989.021,245.1213,988.9998,235.2007,989.299,225.28,988.3543,215.3594,989.53,205.4388,988.9846,195.5181,989.6688,185.5975,988.7841,175.6769,989.409,165.7562,988.556,155.8356,989.245,145.915,989.3793,135.9943,988.6727,126.0737,989.363,116.1531,988.4286,106.2324,988.5295,96.3118,989,86.3912,989.2103,86.4783,989.3572,86.1249,989.468,85.7566,989.3284,85.2845,989.7041,85.026,989.7322,84.6234,989.672,84.478,990.0932,84.4949,990.4392,84.3301,990.7594,84.1032,991.225,84.2273,991.5,83.8912" style="stroke:#181818;stroke-width:4.0;"/><text fill="#000000" font-family="Chalkduster" font-size="24" font-style="italic" lengthAdjust="spacing" textLength="169" x="1152.5" y="109.732">«repository»</text><text fill="#000000" font-family="Chalkduster" font-size="24" font-weight="bold" lengthAdjust="spacing" textLength="252" x="1189" y="140.3619">Architecture Stack</text><text fill="#000000" font-family="Chalkduster" font-size="24" font-weight="bold" lengthAdjust="spacing" textLength="12" x="1231" y="170.9917"> </text><text fill="#000000" font-family="Chalkduster" font-size="24" font-weight="bold" lengthAdjust="spacing" textLength="12" x="1231" y="201.6215"> </text></g><!--cluster stor--><g id="cluster_stor"><path d="M1021,496.8912 L1021,496.8912 L1021.0482,496.9712 L1022.0007,496.0733 L1023.2357,495.6444 L1024.3788,495.0628 L1025.2192,493.979 L1026.4785,493.5904 L1026.4727,493.5563 L1029.3351,492.9075 L1032.227,492.4302 L1035.1394,492.0722 L1037.9812,491.3032 L1040.9219,491.1099 L1040.9465,491.3547 L1042.8238,490.6373 L1044.773,490.6348 L1046.7309,490.7194 L1048.6378,490.2966 L1050.5715,490.1407 L1050.5738,490.1709 L1052.7245,489.9649 L1054.8856,489.8966 L1057.0416,489.7618 L1059.2072,489.7538 L1061.3418,489.3326 L1061.3589,489.6303 L1063.6626,489.5016 L1065.9552,489.1809 L1068.264,489.1413 L1070.5736,489.1149 L1072.8591,488.6709 L1072.8449,488.3507 L1075.2507,488.8663 L1077.6096,488.3274 L1080.0042,488.5901 L1082.362,488.0273 L1084.75,488.1412 L1084.7491,488.1107 L1089.4418,488.3261 L1094.1126,487.8304 L1098.7964,487.7543 L1103.4812,487.7135 L1108.1582,487.4185 L1108.1616,487.6035 L1112.2422,487.3426 L1116.3285,487.3977 L1120.4055,486.9415 L1124.4964,487.248 L1128.5781,487.0474 L1128.58,487.291 L1132.564,487.2137 L1136.549,487.2574 L1140.5296,486.739 L1144.5134,486.6326 L1148.5,486.8912 L1148.5,486.8912 L1148.4978,486.615 L1152.4842,486.8962 L1156.4681,486.8663 L1160.4555,487.2878 L1164.4369,486.9385 L1168.4219,487.0474 L1168.4191,486.895 L1172.5077,487.2231 L1176.5845,486.8995 L1180.6696,487.0394 L1184.7631,487.6327 L1188.8418,487.4185 L1188.8478,487.612 L1193.5335,487.8893 L1198.2007,487.5646 L1202.8911,487.9939 L1207.5765,488.2589 L1212.25,488.1412 L1212.2407,487.9314 L1214.6263,488.2046 L1217.0088,488.409 L1219.3974,488.7484 L1221.7626,488.5631 L1224.1409,488.6709 L1224.1527,488.8762 L1226.4302,488.5575 L1228.7305,488.6351 L1231.0641,489.2914 L1233.3365,488.8821 L1235.6582,489.3326 L1235.6751,489.5581 L1237.8191,489.5858 L1239.9574,489.5371 L1242.1086,489.6606 L1244.2897,490.1824 L1246.4285,490.1407 L1246.4152,490.0083 L1248.3847,490.5963 L1250.2638,490.2839 L1252.2457,490.9953 L1254.1697,491.1302 L1256.0781,491.1099 L1256.0966,491.2172 L1258.9703,491.6267 L1261.9101,492.4204 L1264.7903,492.867 L1267.6455,493.1684 L1270.5215,493.5904 L1270.583,493.6925 L1271.5873,494.2009 L1272.8772,495.1834 L1273.8441,495.6298 L1274.9439,496.2967 L1276,496.8912 L1274.3777,496.8912 L1274.9194,506.6134 L1277.4153,516.3356 L1277.146,526.0578 L1275.8855,535.78 L1275.1409,545.5023 L1275.4162,555.2245 L1274.1702,564.9467 L1277.106,574.6689 L1277.9722,584.3912 L1277.4037,594.1134 L1277.8532,603.8356 L1275.6354,613.5578 L1276.2326,623.28 L1274.9664,633.0023 L1276.7574,642.7245 L1276.658,652.4467 L1277.473,662.1689 L1276,671.8912 L1276,671.8912 L1275.9473,671.8037 L1274.8735,672.5002 L1273.9103,673.3803 L1272.843,674.0876 L1271.4996,674.3367 L1270.5215,675.1919 L1270.5069,675.107 L1267.644,675.7534 L1264.6982,675.9166 L1261.8821,676.835 L1258.9862,677.2893 L1256.0781,677.6724 L1256.0736,677.6279 L1254.1545,677.9292 L1252.2506,678.3823 L1250.2744,678.1156 L1248.3724,678.5871 L1246.4285,678.6416 L1246.438,678.7682 L1244.2783,678.8546 L1242.125,679.0273 L1239.9701,679.1768 L1237.7915,679.0115 L1235.6582,679.4498 L1235.648,679.2719 L1233.343,679.3773 L1231.0529,679.7427 L1228.75,679.8858 L1226.4485,680.0508 L1224.1409,680.1114 L1224.1351,679.9822 L1221.7614,680.1874 L1219.3821,680.2699 L1217.0178,680.6854 L1214.6366,680.7246 L1212.25,680.6412 L1212.2433,680.4255 L1207.5674,680.7533 L1202.8788,680.6738 L1198.209,681.2029 L1193.5318,681.4896 L1188.8418,681.3638 L1188.8462,681.6058 L1184.7543,681.2445 L1180.6776,681.7184 L1176.5838,681.2564 L1172.5075,681.7496 L1168.4219,681.7349 L1168.4208,681.6019 L1164.4378,681.8091 L1160.454,681.9042 L1156.4704,682.0385 L1152.4819,681.54 L1148.5,681.8912 L1148.5,681.8912 L1148.5017,682.1025 L1144.5162,681.9391 L1140.5325,681.9866 L1136.5495,682.1298 L1132.5625,681.7686 L1128.5781,681.7349 L1128.5795,681.8128 L1124.4959,681.7555 L1120.4117,681.6741 L1116.3262,681.5119 L1112.2479,681.7539 L1108.1582,681.3638 L1108.1498,681.0929 L1103.4843,681.4704 L1098.7864,680.7976 L1094.1059,680.6902 L1089.4322,680.8035 L1084.75,680.6412 L1084.7506,680.6537 L1082.3621,680.3164 L1080.0018,680.6129 L1077.6176,680.3716 L1075.2517,680.54 L1072.8591,680.1114 L1072.8761,680.4074 L1070.5442,679.7802 L1068.2421,679.6702 L1065.9454,679.6571 L1063.6543,679.7398 L1061.3418,679.4498 L1061.3552,679.6284 L1059.1978,679.4216 L1057.0223,678.975 L1054.9008,679.2469 L1052.7467,679.0842 L1050.5715,678.6416 L1050.5694,678.6207 L1048.631,678.3421 L1046.6938,678.0765 L1044.7722,677.9652 L1042.8579,677.927 L1040.9219,677.6724 L1040.9167,677.6425 L1038.0018,676.9933 L1035.1812,676.8937 L1032.2213,675.9831 L1029.405,675.9081 L1026.4785,675.1919 L1026.5765,675.3546 L1025.4681,674.6734 L1024.4459,674.1353 L1023.135,673.1179 L1022.0267,672.4369 L1021,671.8912 L1022.3837,671.8912 L1019.4083,662.1689 L1020.376,652.4467 L1021.308,642.7245 L1021.1832,633.0023 L1020.0441,623.28 L1020.8854,613.5578 L1022.9856,603.8356 L1022.7293,594.1134 L1019.4099,584.3912 L1021.2094,574.6689 L1019.6296,564.9467 L1020.9298,555.2245 L1021.7813,545.5023 L1022.1197,535.78 L1019.2274,526.0578 L1022.0681,516.3356 L1021.0224,506.6134 L1021,496.8912 " fill="none" style="stroke:#181818;stroke-width:4.0;"/><path d="M1021,496.8912 L1021,496.8912 L1021.0482,496.9712 L1022.0007,497.3936 L1023.2357,498.2851 L1024.3788,499.0238 L1025.2192,499.2602 L1026.4785,500.1919 L1026.4727,500.1579 L1029.3351,500.5012 L1032.227,501.0161 L1035.1394,501.6504 L1037.9812,501.8735 L1040.9219,502.6724 L1040.9465,502.9172 L1042.8238,502.5875 L1044.773,502.9727 L1046.7309,503.445 L1048.6378,503.4099 L1050.5715,503.6416 L1050.5738,503.6719 L1052.7245,503.7891 L1054.8856,504.044 L1057.0416,504.2325 L1059.2072,504.5477 L1061.3418,504.4498 L1061.3589,504.7475 L1063.6626,504.8835 L1065.9552,504.8274 L1068.264,505.0524 L1070.5736,505.2906 L1072.8591,505.1114 L1072.8449,504.7912 L1075.2507,505.5186 L1077.6096,505.1916 L1080.0042,505.6663 L1082.362,505.3154 L1084.75,505.6412 L1084.7491,505.6107 L1089.4418,506.1151 L1094.1126,505.9086 L1098.7964,506.1215 L1103.4812,506.3697 L1108.1582,506.3638 L1108.1616,506.5488 L1112.2422,506.4363 L1116.3285,506.6399 L1120.4055,506.3321 L1124.4964,506.7871 L1128.5781,506.7349 L1128.58,506.9785 L1132.564,506.9637 L1136.549,507.0699 L1140.5296,506.614 L1144.5134,506.5701 L1148.5,506.8912 L1148.5,506.8912 L1148.4978,506.615 L1152.4842,506.8337 L1156.4681,506.7413 L1160.4555,507.1003 L1164.4369,506.6885 L1168.4219,506.7349 L1168.4191,506.5825 L1172.5077,506.7621 L1176.5845,506.2901 L1180.6696,506.2816 L1184.7631,506.7264 L1188.8418,506.3638 L1188.8478,506.5574 L1193.5335,506.5456 L1198.2007,505.9318 L1202.8911,506.072 L1207.5765,506.048 L1212.25,505.6412 L1212.2407,505.4314 L1214.6263,505.4926 L1217.0088,505.4852 L1219.3974,505.6127 L1221.7626,505.2155 L1224.1409,505.1114 L1224.1527,505.3166 L1226.4302,504.7333 L1228.7305,504.5462 L1231.0641,504.9379 L1233.3365,504.264 L1235.6582,504.4498 L1235.6751,504.6753 L1237.8191,504.3797 L1239.9574,504.0078 L1242.1086,503.8081 L1244.2897,504.0066 L1246.4285,503.6416 L1246.4152,503.5093 L1248.3847,503.7095 L1250.2638,503.0095 L1252.2457,503.3331 L1254.1697,503.0804 L1256.0781,502.6724 L1256.0966,502.7797 L1258.9703,502.197 L1261.9101,501.9985 L1264.7903,501.4529 L1267.6455,500.7622 L1270.5215,500.1919 L1270.583,500.294 L1271.5873,499.4822 L1272.8772,499.1444 L1273.8441,498.2704 L1274.9439,497.617 L1276,496.8912 " fill="none" style="stroke:#181818;stroke-width:4.0;"/><text fill="#000000" font-family="Chalkduster" font-size="24" font-weight="bold" lengthAdjust="spacing" textLength="101" x="1098" y="532.732">Storage</text></g><g id="elem_GMN31"><path d="M487.5,1349.8912 L487.6868,1349.8912 L487.1317,1358.0171 L487.6718,1366.1431 L487.8553,1374.2691 L486.8659,1382.395 L487.5,1390.521 L487.5,1390.521 L487.5,1390.3138 L497.5217,1389.3837 L507.5435,1389.4983 L517.5652,1390.3392 L527.587,1388.6773 L537.6087,1391.9974 L547.6304,1388.8402 L557.6522,1389.9936 L567.6739,1391.6729 L577.6957,1390.2923 L587.7174,1390.703 L597.7391,1390.4358 L607.7609,1390.9971 L617.7826,1391.1587 L627.8043,1392.0828 L637.8261,1392.3105 L647.8478,1392.3323 L657.8696,1391.2 L667.8913,1391.7572 L677.913,1392.3936 L687.9348,1388.5978 L697.9565,1392.3304 L707.9783,1389.7303 L718,1391.9445 L728.0217,1389.2009 L738.0435,1390.3383 L748.0652,1392.4986 L758.087,1390.391 L768.1087,1390.8018 L778.1304,1391.424 L788.1522,1391.6309 L798.1739,1390.5106 L808.1957,1391.2869 L818.2174,1388.9945 L828.2391,1391.2794 L838.2609,1391.9828 L848.2826,1391.7064 L858.3043,1392.1557 L868.3261,1389.2328 L878.3478,1388.7818 L888.3696,1388.8639 L898.3913,1390.364 L908.413,1389.9969 L918.4348,1392.3381 L928.4565,1390.0552 L938.4783,1389.6062 L948.5,1390.521 L948.5,1390.521 L948.7029,1390.521 L947.9073,1384.395 L948.0386,1378.2691 L949.0768,1372.1431 L948.8873,1366.0171 L948.5,1359.8912 L948.9617,1360.3528 L946.2977,1357.6889 L944.7006,1356.0918 L942.8711,1354.2623 L940.2031,1351.5942 L938.5,1349.8912 L938.5,1349.6355 L928.4533,1350.2271 L918.4067,1351.6292 L908.36,1349.88 L898.3133,1351.1247 L888.2667,1348.4144 L878.22,1348.0851 L868.1733,1351.2341 L858.1267,1347.9793 L848.08,1351.2484 L838.0333,1350.4422 L827.9867,1349.1767 L817.94,1348.9478 L807.8933,1351.1145 L797.8467,1349.0929 L787.8,1351.4695 L777.7533,1348.4172 L767.7067,1351.5376 L757.66,1351.1826 L747.6133,1350.5444 L737.5667,1350.0171 L727.52,1349.8912 L729.4108,1350.3145 L731.3167,1340.4224 L732.3604,1330.3373 L734.8179,1320.5687 L735.981,1310.5103 L740.3844,1301.1773 L741.123,1291.0239 L743.3691,1281.208 L745.12,1271.2812 L743.5775,1270.7788 L740.8925,1280.7728 L740.0658,1291.3719 L736.6097,1301.1148 L732.2111,1310.5507 L728.3031,1320.1464 L725.3649,1330.0579 L720.9801,1339.4983 L719.52,1349.8912 L719.52,1350.9971 L709.4322,1351.8633 L699.3443,1351.2949 L689.2565,1351.7443 L679.1687,1349.5266 L669.0809,1350.1237 L658.993,1348.8576 L648.9052,1350.6486 L638.8174,1350.5492 L628.7296,1351.3642 L618.6417,1349.2787 L608.5539,1349.5327 L598.4661,1351.0737 L588.3783,1351.4041 L578.2904,1348.5244 L568.2026,1349.3741 L558.1148,1350.2892 L548.027,1348.2622 L537.9391,1350.8335 L527.8513,1350.5791 L517.7635,1349.6225 L507.6757,1350.2705 L497.5878,1351.8343 L487.5,1349.8912 L487.5,1349.8912 " fill="none" style="stroke:#181818;stroke-width:4.0;"/><path d="M938.5,1349.8912 L938.6868,1349.8912 L938.1317,1351.8912 L938.6718,1353.8912 L938.8553,1355.8912 L937.8659,1357.8912 L938.5,1359.8912 L938.5,1359.8221 L940.5,1359.5121 L942.5,1359.5503 L944.5,1359.8306 L946.5,1359.2766 L948.5,1359.8912 L948.848,1360.2391 L946.1038,1357.495 L944.3757,1355.7669 L942.7715,1354.1627 L940.4461,1351.8372 L938.5,1349.8912 " fill="none" style="stroke:#181818;stroke-width:4.0;"/><text fill="#000000" font-family="Chalkduster" font-size="24" lengthAdjust="spacing" textLength="440" x="493.5" y="1378.732">Proposed for use by PARADISEC</text></g><!--entity Schema.org--><g id="elem_Schema.org"><polygon fill="none" points="739.5,1005.8912,739.5,1006.1013,749.3235,1005.4768,759.1471,1006.0844,768.9706,1006.2908,778.7941,1005.1778,788.6176,1005.8134,798.4412,1005.4647,808.2647,1005.5077,818.0882,1005.823,827.9118,1005.1998,837.7353,1006.4448,847.5588,1005.2609,857.3824,1005.6934,867.2059,1006.3231,877.0294,1005.8054,886.8529,1005.9594,896.6765,1005.8592,906.5,1005.8912,906.5228,1005.9461,906.8841,1006.1113,907.2818,1006.3644,907.6463,1006.5372,908.0009,1006.6861,908.2678,1006.6234,908.3462,1006.6559,908.557,1007.0361,908.7769,1007.4201,908.485,1007.5921,909.0625,1008.1242,909,1008.3912,908.7035,1008.3912,909.5338,1017.5171,908.505,1026.6431,908.9315,1035.7691,909.7416,1044.895,909,1054.021,908.985,1054.0148,908.886,1054.388,908.8114,1054.7713,908.6888,1055.1347,908.413,1055.4347,908.2678,1055.7888,908.3044,1055.8772,907.8412,1055.7589,907.5969,1056.1692,907.277,1056.3969,906.9103,1056.5114,906.5,1056.521,906.5,1057.134,896.6765,1056.0379,886.8529,1055.8688,877.0294,1055.8996,867.2059,1056.4621,857.3824,1056.3245,847.5588,1057.2024,837.7353,1056.3463,827.9118,1056.1779,818.0882,1056.7493,808.2647,1055.8542,798.4412,1056.0019,788.6176,1057.1699,778.7941,1056.9567,768.9706,1057.2555,759.1471,1056.1992,749.3235,1056.8402,739.5,1056.521,739.5753,1056.7028,739.0862,1056.2291,738.7807,1056.1986,738.4554,1056.1205,738.1689,1056.1359,737.7322,1055.7888,737.7309,1055.7882,737.7282,1055.4942,737.2688,1055.011,737.0843,1054.6417,737.3015,1054.4388,737,1054.021,736.2831,1054.021,737.509,1044.895,737.2066,1035.7691,736.7321,1026.6431,736.6462,1017.5171,737,1008.3912,737.1413,1008.4497,737.0543,1007.9994,737.4752,1007.7596,737.2691,1007.26,737.7759,1007.0557,737.7322,1006.6234,737.794,1006.7725,738.117,1006.5524,738.4454,1006.345,738.8856,1006.4078,739.2247,1006.2266,739.5,1005.8912" style="stroke:#181818;stroke-width:4.0;"/><text fill="#000000" font-family="Chalkduster" font-size="24" lengthAdjust="spacing" textLength="152" x="747" y="1039.732">Schema.org</text></g><!--entity JSON-LD--><g id="elem_JSON-LD"><polygon fill="none" points="577,1005.8912,577,1006.1013,587.1667,1005.4768,597.3333,1006.0844,607.5,1006.2908,617.6667,1005.1778,627.8333,1005.8134,638,1005.4647,648.1667,1005.5077,658.3333,1005.823,668.5,1005.1998,678.6667,1006.4448,688.8333,1005.2609,699,1005.8912,698.9748,1005.8303,699.4087,1006.1706,699.6962,1006.1576,700.0694,1006.3515,700.4101,1006.4671,700.7678,1006.6234,700.8227,1006.6462,700.9879,1007.0075,701.241,1007.4052,701.4138,1007.7697,701.5627,1008.1243,701.5,1008.3912,701.7546,1008.3912,701.9636,1017.5171,702.2022,1026.6431,700.7788,1035.7691,702.1785,1044.895,701.5,1054.021,701.4087,1053.9832,701.5179,1054.4426,701.0547,1054.665,701.0396,1055.0729,701.1426,1055.5298,700.7678,1055.7888,700.7616,1055.7738,700.4276,1055.9676,700.1039,1056.1859,699.7602,1056.3563,699.3531,1056.3733,699,1056.521,699,1056.8082,688.8333,1055.9486,678.6667,1056.8054,668.5,1057.0692,658.3333,1056.9655,648.1667,1057.134,638,1056.0379,627.8333,1055.8688,617.6667,1055.8996,607.5,1056.4621,597.3333,1056.3245,587.1667,1057.2024,577,1056.521,576.9777,1056.4672,576.6027,1056.2689,576.322,1056.2984,575.8543,1055.8763,575.5196,1055.7753,575.2322,1055.7888,575.4321,1055.8715,575.22,1055.4908,575.1655,1055.1753,574.6938,1054.6871,574.7447,1054.4153,574.5,1054.021,575.0904,1054.021,574.0276,1044.895,574.4041,1035.7691,574.626,1026.6431,575.1518,1017.5171,574.5,1008.3912,574.4987,1008.3906,574.7889,1008.0966,574.6223,1007.6134,574.7308,1007.2441,575.2409,1007.0412,575.2322,1006.6234,575.1408,1006.4026,575.6507,1006.6337,575.9657,1006.3941,576.2587,1006.1015,576.6013,1005.9287,577,1005.8912" style="stroke:#181818;stroke-width:4.0;"/><text fill="#000000" font-family="Chalkduster" font-size="24" lengthAdjust="spacing" textLength="107" x="584.5" y="1039.732">JSON-LD</text></g><!--entity OCFL--><g id="elem_OCFL"><polygon fill="none" points="577,1219.8912,577,1220.1013,587.5,1219.4768,598,1220.0844,608.5,1220.2908,619,1219.1778,629.5,1219.8134,640,1219.4647,650.5,1219.5077,661,1219.8912,660.9913,1219.8702,661.2654,1219.8247,661.7777,1220.3546,661.9803,1220.1364,662.389,1220.416,662.7678,1220.6234,662.9008,1220.6785,662.8878,1220.966,663.0817,1221.3392,663.1973,1221.68,663.4085,1222.0604,663.5,1222.3912,663.7391,1222.3912,664.0857,1231.5171,664.1711,1240.6431,664.1793,1249.7691,663.7546,1258.895,663.5,1268.021,663.6428,1268.0801,663.5698,1268.4641,662.985,1268.6361,663.2696,1269.1682,662.8229,1269.3974,662.7678,1269.7888,662.8359,1269.9532,662.3511,1269.7828,662.0519,1270.0606,661.8017,1270.4565,661.3473,1270.3595,661,1270.521,661,1270.6263,650.5,1270.8596,640,1270.9372,629.5,1270.5171,619,1270.8082,608.5,1269.9486,598,1270.8054,587.5,1271.0692,577,1270.521,577.0567,1270.6579,576.7246,1270.5633,576.2313,1270.0793,575.8561,1269.8808,575.5065,1269.7438,575.2322,1269.7888,575.2141,1269.7813,575.0253,1269.4101,575.1492,1269.1686,574.7391,1268.7058,574.5408,1268.3308,574.5,1268.021,574.7283,1268.021,573.8332,1258.895,573.9809,1249.7691,575.149,1240.6431,574.9357,1231.5171,574.5,1222.3912,574.7262,1222.4849,574.5473,1221.9966,574.8912,1221.7248,575.1212,1221.4058,574.9403,1220.9167,575.2322,1220.6234,575.22,1220.5939,575.6019,1220.5157,576.0225,1220.5312,576.2924,1220.1828,576.7055,1220.1801,577,1219.8912" style="stroke:#181818;stroke-width:4.0;"/><text fill="#000000" font-family="Chalkduster" font-size="24" lengthAdjust="spacing" textLength="69" x="584.5" y="1253.732">OCFL</text></g><!--entity NOCFL--><g id="elem_NOCFL"><polygon fill="none" points="701.5,1219.8912,701.5,1220.1013,711.6,1219.4768,721.7,1220.0844,731.8,1220.2908,741.9,1219.1778,752,1219.8134,762.1,1219.4647,772.2,1219.5077,782.3,1219.823,792.4,1219.1998,802.5,1219.8912,802.5706,1220.0617,802.7732,1219.8435,803.1819,1220.1231,803.6158,1220.4635,803.9033,1220.4505,804.2678,1220.6234,804.2888,1220.6321,804.4044,1220.9729,804.6156,1221.3533,804.7808,1221.7146,805.0339,1222.1123,805,1222.3912,805.6711,1222.3912,805.6793,1231.5171,805.2546,1240.6431,805.4636,1249.7691,805.7022,1258.895,805,1268.021,804.7779,1267.929,805.0625,1268.4611,804.6158,1268.6903,804.7251,1269.1497,804.2618,1269.3721,804.2678,1269.7888,804.259,1269.7677,804.0088,1270.1636,803.5544,1270.0666,803.2205,1270.2605,802.8967,1270.4788,802.5,1270.521,802.5,1270.9372,792.4,1270.5171,782.3,1270.8082,772.2,1269.9486,762.1,1270.8054,752,1271.0692,741.9,1270.9655,731.8,1271.134,721.7,1270.0379,711.6,1269.8688,701.5,1270.521,701.4207,1270.3296,701.1389,1270.3564,700.7678,1270.1676,700.5263,1270.2915,700.0635,1269.8814,699.7322,1269.7888,699.6266,1269.745,699.6561,1269.4643,699.234,1268.9966,699.133,1268.6619,699.3463,1268.4573,699,1268.021,699.4357,1268.021,699.7345,1258.895,698.6782,1249.7691,699.3192,1240.6431,699.5904,1231.5171,699,1222.3912,698.8545,1222.3309,699.1169,1222.0254,699.3317,1221.7001,699.6401,1221.4136,699.5845,1220.9764,699.7322,1220.6234,699.7912,1220.7658,700.0151,1220.3064,700.3529,1220.1219,700.8571,1220.3391,701.055,1219.8168,701.5,1219.8912" style="stroke:#181818;stroke-width:4.0;"/><text fill="#000000" font-family="Chalkduster" font-size="24" lengthAdjust="spacing" textLength="86" x="709" y="1253.732">NOCFL</text></g><!--entity DOI--><g id="elem_DOI"><polygon fill="none" points="714.5,606.8912,714.5,607.1013,725,606.4768,735.5,607.0844,746,607.2908,756.5,606.1778,767,606.8134,777.5,606.8912,777.4456,606.7598,777.8046,606.9195,778.1984,607.1631,778.4725,607.1176,778.9848,607.6474,779.2678,607.6234,779.0737,607.543,779.3533,607.9517,779.6937,608.3856,779.6807,608.6731,779.8746,609.0463,780,609.3912,779.9681,609.3912,780.1785,618.5171,780.2391,627.6431,780.5857,636.7691,780.6711,645.895,780,655.021,780.2092,655.1076,779.932,655.407,779.8499,655.7872,779.7769,656.1712,779.1921,656.3432,779.2678,656.7888,779.3543,656.9977,778.8764,656.8439,778.6288,657.246,778.144,657.0757,777.8448,657.3535,777.5,657.521,777.5,658.2626,767,657.4723,756.5,657.6263,746,657.8596,735.5,657.9372,725,657.5171,714.5,657.521,714.5366,657.6094,714.0734,657.1983,713.8292,657.3157,713.5093,657.2505,713.1425,657.0721,712.7322,656.7888,712.921,656.867,712.437,656.3736,712.2385,655.9985,712.1015,655.6488,712.1283,655.367,712,655.021,711.8035,655.021,712.6814,645.895,711.8253,636.7691,711.6569,627.6431,712.2283,618.5171,712,609.3912,711.7946,609.3061,711.9866,608.9714,712.4927,608.7668,712.5735,608.3861,712.812,608.0706,712.7322,607.6234,712.6912,607.5243,713.1265,607.5752,713.5147,607.5123,713.7326,607.0386,714.1342,607.0081,714.5,606.8912" style="stroke:#181818;stroke-width:4.0;"/><text fill="#000000" font-family="Chalkduster" font-size="24" lengthAdjust="spacing" textLength="48" x="722" y="640.732">DOI</text></g><!--entity ARCP--><g id="elem_ARCP"><polygon fill="none" points="818,606.8912,818,607.1013,827.7778,606.4768,837.5556,607.0844,847.3333,607.2908,857.1111,606.1778,866.8889,606.8134,876.6667,606.4647,886.4444,606.5077,896.2222,606.823,906,606.8912,905.9118,606.6782,906.4242,607.2081,906.6267,606.99,907.0354,607.2696,907.4693,607.61,907.7678,607.6234,907.7414,607.6125,907.9352,607.9857,908.0508,608.3264,908.2621,608.7068,908.4272,609.0681,908.5,609.3912,909.0857,609.3912,909.1711,618.5171,909.1793,627.6431,908.7546,636.7691,908.9636,645.895,908.5,655.021,908.7163,655.1106,908.1315,655.2826,908.4161,655.8147,907.9693,656.0438,908.0786,656.5033,907.7678,656.7888,907.7046,656.6363,907.4055,656.9141,907.1553,657.31,906.7009,657.2131,906.367,657.407,906,657.521,906,657.8596,896.2222,657.9372,886.4444,657.5171,876.6667,657.8082,866.8889,656.9486,857.1111,657.8054,847.3333,658.0692,837.5556,657.9655,827.7778,658.134,818,657.521,817.9384,657.3722,817.5633,657.1737,817.2136,657.0367,816.9318,657.0635,816.5607,656.8747,816.2322,656.7888,816.4421,656.8757,816.032,656.4129,815.8337,656.0379,815.8632,655.7572,815.4411,655.2895,815.5,655.021,814.9809,655.021,816.149,645.895,815.9357,636.7691,816.2345,627.6431,815.1782,618.5171,815.5,609.3912,815.5983,609.4319,815.8283,609.1129,815.6474,608.6238,815.9098,608.3183,816.1246,607.993,816.2322,607.6234,816.3154,607.8241,816.5853,607.4757,816.9983,607.473,817.2223,607.0135,817.5601,606.829,818,606.8912" style="stroke:#181818;stroke-width:4.0;"/><text fill="#000000" font-family="Chalkduster" font-size="24" lengthAdjust="spacing" textLength="73" x="825.5" y="640.732">ARCP</text></g><!--entity Managed URIs--><g id="elem_Managed URIs"><polygon fill="none" points="695.5,760.8912,695.5,761.1013,705.5476,760.4768,715.5952,761.0844,725.6429,761.2908,735.6905,760.1778,745.7381,760.8134,755.7857,760.4647,765.8333,760.5077,775.881,760.823,785.9286,760.1998,795.9762,761.4448,806.0238,760.2609,816.0714,760.6934,826.119,761.3231,836.1667,760.8054,846.2143,760.9594,856.2619,760.8592,866.3095,761.0697,876.3571,761.1303,886.4048,761.4769,896.4524,761.5622,906.5,760.8912,906.5866,761.1003,906.886,761.116,907.2662,761.3268,907.6502,761.5468,907.8222,761.2549,908.2678,761.6234,908.4767,761.7099,908.3229,761.9391,908.7251,762.3986,908.5547,762.6209,908.8325,763.0289,909,763.3912,909.7416,763.3912,908.9513,772.5171,909.1053,781.6431,909.3386,790.7691,909.4162,799.895,909,809.021,908.9988,809.0205,908.942,809.4112,908.5308,809.6551,908.6482,810.1179,908.583,810.5051,908.2678,810.7888,908.3245,810.9257,907.9924,811.124,907.499,810.9329,907.1239,811.0273,906.7743,811.1832,906.5,811.521,906.5,811.4621,896.4524,811.3245,886.4048,812.2024,876.3571,811.3463,866.3095,811.1779,856.2619,811.7493,846.2143,810.8542,836.1667,811.0019,826.119,812.1699,816.0714,811.9567,806.0238,812.2555,795.9762,811.1992,785.9286,811.8402,775.881,812.1114,765.8333,811.0486,755.7857,811.4251,745.7381,811.647,735.6905,812.1728,725.6429,811.5168,715.5952,811.9836,705.5476,810.9672,695.5,811.521,695.4136,811.3124,695.2107,811.5296,694.7014,811.0073,694.5043,811.2384,694.1121,810.9988,693.7322,810.7888,693.6497,810.7546,693.4768,810.3901,693.5806,810.1402,693.2007,809.6899,693.3287,809.45,693,809.021,692.4473,809.021,693.6174,799.895,693.4843,790.7691,693.245,781.6431,693.0472,772.5171,693,763.3912,693.2238,763.4838,693.3354,763.1159,693.345,762.7056,693.5219,762.3647,693.5457,761.9603,693.7322,761.6234,693.8236,761.844,694.1055,761.5246,694.4614,761.3836,694.7153,760.9967,695.0948,760.9128,695.5,760.8912" style="stroke:#181818;stroke-width:4.0;"/><text fill="#000000" font-family="Chalkduster" font-size="24" lengthAdjust="spacing" textLength="196" x="703" y="794.732">Managed URIs</text></g><!--entity ldac--><g id="elem_ldac"><polygon fill="none" points="219.5,606.8912,219.5,607.1013,229.4545,606.4768,239.4091,607.0844,249.3636,607.2908,259.3182,606.1778,269.2727,606.8134,279.2273,606.4647,289.1818,606.5077,299.1364,606.823,309.0909,606.1998,319.0455,607.4448,329,606.2609,338.9545,606.6934,348.9091,607.3231,358.8636,606.8054,368.8182,606.9594,378.7727,606.8592,388.7273,607.0697,398.6818,607.1303,408.6364,607.4769,418.5909,607.5622,428.5455,607.5704,438.5,606.8912,438.5325,606.9696,438.9127,607.1804,439.2967,607.4003,439.4687,607.1084,440.0008,607.6859,440.2678,607.6234,440.1765,607.5856,440.5786,608.045,440.4082,608.2674,440.686,608.6753,441.0819,609.1322,441,609.3912,440.9513,609.3912,441.1053,618.5171,441.3386,627.6431,441.4162,636.7691,440.9961,645.895,441,655.021,441.0885,655.0576,440.6773,655.3015,440.7947,655.7644,440.7295,656.1516,440.5511,656.4919,440.2678,656.7888,440.346,656.9775,439.8526,656.7864,439.4775,656.8808,439.1278,657.0367,438.846,657.3564,438.5,657.521,438.5,657.3245,428.5455,658.2024,418.5909,657.3463,408.6364,657.1779,398.6818,657.7493,388.7273,656.8542,378.7727,657.0019,368.8182,658.1699,358.8636,657.9567,348.9091,658.2555,338.9545,657.1992,329,657.8402,319.0455,658.1114,309.0909,657.0486,299.1364,657.4251,289.1818,657.647,279.2273,658.1728,269.2727,657.5168,259.3182,657.9836,249.3636,656.9672,239.4091,656.8437,229.4545,658.0246,219.5,657.521,219.4085,657.3002,219.2114,657.5313,218.8193,657.2917,218.4052,656.9991,218.0407,656.8263,217.7322,656.7888,217.8735,656.8473,217.4936,656.397,217.6216,656.1572,217.1227,655.6576,217.3366,655.4533,217,655.021,217.4843,655.021,217.245,645.895,217.0472,636.7691,217.7266,627.6431,217.6136,618.5171,217,609.3912,217.0521,609.4128,217.229,609.0718,217.2528,608.6674,217.66,608.4219,217.6335,607.9967,217.7322,607.6234,217.7542,607.6765,218.0082,607.2896,218.3876,607.2057,218.8606,607.3475,219.2013,607.17,219.5,606.8912" style="stroke:#181818;stroke-width:4.0;"/><text fill="#000000" font-family="Chalkduster" font-size="24" lengthAdjust="spacing" textLength="204" x="227" y="640.732">Language Data</text></g><!--entity wr--><g id="elem_wr"><polygon fill="none" points="363,349.8912,363,350.1013,373.0952,349.4768,383.1905,350.0844,393.2857,350.2908,403.381,349.1778,413.4762,349.8134,423.5714,349.4647,433.6667,349.5077,443.7619,349.823,453.8571,349.1998,463.9524,350.4448,474.0476,349.2609,484.1429,349.6934,494.2381,350.3231,504.3333,349.8054,514.4286,349.9594,524.5238,349.8592,534.619,350.0697,544.7143,350.1303,554.8095,350.4769,564.9048,350.5622,575,349.8912,575.0866,350.1003,575.386,350.116,575.7662,350.3268,576.1502,350.5468,576.3222,350.2549,576.7678,350.6234,576.9767,350.7099,576.8229,350.9391,577.2251,351.3986,577.0547,351.6209,577.3325,352.0289,577.5,352.3912,578.2416,352.3912,577.4513,361.5171,577.6053,370.6431,577.8386,379.7691,577.9162,388.895,577.5,398.021,577.4988,398.0205,577.442,398.4112,577.0308,398.6551,577.1482,399.1179,577.083,399.5051,576.7678,399.7888,576.8245,399.9257,576.4924,400.124,575.999,399.9329,575.6239,400.0273,575.2743,400.1832,575,400.521,575,400.4621,564.9048,400.3245,554.8095,401.2024,544.7143,400.3463,534.619,400.1779,524.5238,400.7493,514.4286,399.8542,504.3333,400.0019,494.2381,401.1699,484.1429,400.9567,474.0476,401.2555,463.9524,400.1992,453.8571,400.8402,443.7619,401.1114,433.6667,400.0486,423.5714,400.4251,413.4762,400.647,403.381,401.1728,393.2857,400.5168,383.1905,400.9836,373.0952,399.9672,363,400.521,362.9136,400.3124,362.7107,400.5296,362.2014,400.0073,362.0043,400.2384,361.6121,399.9988,361.2322,399.7888,361.1497,399.7546,360.9768,399.3901,361.0806,399.1402,360.7007,398.6899,360.8287,398.45,360.5,398.021,359.9473,398.021,361.1174,388.895,360.9843,379.7691,360.745,370.6431,360.5472,361.5171,360.5,352.3912,360.7238,352.4838,360.8354,352.1159,360.845,351.7056,361.0219,351.3647,361.0457,350.9603,361.2322,350.6234,361.3236,350.844,361.6055,350.5246,361.9614,350.3836,362.2153,349.9967,362.5948,349.9128,363,349.8912" style="stroke:#181818;stroke-width:4.0;"/><text fill="#000000" font-family="Chalkduster" font-size="24" lengthAdjust="spacing" textLength="197" x="370.5" y="383.732">Workflow Run</text></g><!--entity policy--><g id="elem_policy"><polygon fill="none" points="65.5,349.8912,65.5,350.1013,75.3846,349.4768,85.2692,350.0844,95.1538,350.2908,105.0385,349.1778,114.9231,349.8134,124.8077,349.4647,134.6923,349.5077,144.5769,349.823,154.4615,349.1998,164.3462,350.4448,174.2308,349.2609,184.1154,349.6934,194,350.3231,203.8846,349.8054,213.7692,349.9594,223.6538,349.8592,233.5385,350.0697,243.4231,350.1303,253.3077,350.4769,263.1923,350.5622,273.0769,350.5704,282.9615,350.1458,292.8462,350.3547,302.7308,350.5934,312.6154,349.17,322.5,349.8912,322.5866,350.1001,322.8157,349.9463,323.2752,350.3484,323.4975,350.1781,323.9055,350.4559,324.2678,350.6234,324.4962,350.718,324.3992,350.9707,324.5931,351.3439,324.8114,351.7272,324.9817,352.0907,325,352.3912,324.9961,352.3912,325.2872,361.5171,324.4276,370.6431,325.2844,379.7691,325.5482,388.895,325,398.021,325.1369,398.0777,325.0423,398.4527,324.5583,398.6665,324.3598,398.9985,324.2228,399.3559,324.2678,399.7888,324.2603,399.7706,323.8891,399.8747,323.6476,400.2915,323.1848,400.1743,322.8098,400.2689,322.5,400.521,322.5,400.7493,312.6154,399.8542,302.7308,400.0019,292.8462,401.1699,282.9615,400.9567,273.0769,401.2555,263.1923,400.1992,253.3077,400.8402,243.4231,401.1114,233.5385,400.0486,223.6538,400.4251,213.7692,400.647,203.8846,401.1728,194,400.5168,184.1154,400.9836,174.2308,399.9672,164.3462,399.8437,154.4615,401.0246,144.5769,399.8041,134.6923,401.03,124.8077,400.7276,114.9231,400.2531,105.0385,400.1672,95.1538,400.9798,85.2692,400.2217,75.3846,401.1129,65.5,400.521,65.4295,400.3508,65.2252,400.5647,64.8547,400.3772,64.4706,400.1571,64.0918,399.9497,63.7322,399.7888,63.956,399.8814,63.7747,399.5135,63.4915,399.1032,63.3755,398.7623,63.1063,398.3579,63,398.021,63.7165,398.021,63.1549,388.895,63.1726,379.7691,62.3916,370.6431,62.5948,361.5171,63,352.3912,63.1634,352.4589,63.2788,352.0924,63.2797,351.6786,63.3401,351.2894,63.5184,350.949,63.7322,350.6234,63.6447,350.4121,64.1387,350.6047,64.5337,350.5583,64.86,350.3462,65.2351,350.2516,65.5,349.8912" style="stroke:#181818;stroke-width:4.0;"/><text fill="#000000" font-family="Chalkduster" font-size="24" lengthAdjust="spacing" textLength="242" x="73" y="383.732">LDaCA PID Policy</text></g><!--entity api--><g id="elem_api"><polygon fill="none" points="1225,349.8912,1225,350.1013,1235.6667,349.4768,1246.3333,350.0844,1257,350.2908,1267.6667,349.1778,1278.3333,349.8134,1289,349.8912,1288.9456,349.7598,1289.3046,349.9195,1289.6984,350.1631,1289.9725,350.1176,1290.4848,350.6474,1290.7678,350.6234,1290.5737,350.543,1290.8533,350.9517,1291.1937,351.3856,1291.1807,351.6731,1291.3746,352.0463,1291.5,352.3912,1291.4681,352.3912,1291.6785,361.5171,1291.7391,370.6431,1292.0857,379.7691,1292.1711,388.895,1291.5,398.021,1291.7092,398.1076,1291.432,398.407,1291.3499,398.7872,1291.2769,399.1712,1290.6921,399.3432,1290.7678,399.7888,1290.8543,399.9977,1290.3764,399.8439,1290.1288,400.246,1289.644,400.0757,1289.3448,400.3535,1289,400.521,1289,401.2626,1278.3333,400.4723,1267.6667,400.6263,1257,400.8596,1246.3333,400.9372,1235.6667,400.5171,1225,400.521,1225.0366,400.6094,1224.5734,400.1983,1224.3292,400.3157,1224.0093,400.2505,1223.6425,400.0721,1223.2322,399.7888,1223.421,399.867,1222.937,399.3736,1222.7385,398.9985,1222.6015,398.6488,1222.6283,398.367,1222.5,398.021,1222.3035,398.021,1223.1814,388.895,1222.3253,379.7691,1222.1569,370.6431,1222.7283,361.5171,1222.5,352.3912,1222.2946,352.3061,1222.4866,351.9714,1222.9927,351.7668,1223.0735,351.3861,1223.312,351.0706,1223.2322,350.6234,1223.1912,350.5243,1223.6265,350.5752,1224.0147,350.5123,1224.2326,350.0386,1224.6342,350.0081,1225,349.8912" style="stroke:#181818;stroke-width:4.0;"/><text fill="#000000" font-family="Chalkduster" font-size="24" lengthAdjust="spacing" textLength="49" x="1232.5" y="383.732">API</text></g><!--entity Obj1--><g id="elem_Obj1"><polygon fill="none" points="1158,606.8912,1158,607.1013,1168.2857,606.4768,1178.5714,607.0844,1188.8571,607.2908,1199.1429,606.1778,1209.4286,606.8134,1219.7143,606.4647,1230,606.8912,1229.9511,606.7731,1230.3449,607.0166,1230.6189,606.9711,1231.1313,607.501,1231.3338,607.2828,1231.7678,607.6234,1231.7069,607.5982,1232.0472,608.032,1232.0342,608.3196,1232.2281,608.6928,1232.3437,609.0335,1232.5,609.3912,1232.6785,609.3912,1232.7391,618.5171,1233.0857,627.6431,1233.1711,636.7691,1233.1793,645.895,1232.5,655.021,1232.5784,655.0535,1232.4963,655.4337,1232.4234,655.8177,1231.8386,655.9897,1232.1232,656.5218,1231.7678,656.7888,1231.7299,656.6975,1231.4823,657.0996,1230.9975,656.9292,1230.6984,657.207,1230.4482,657.6029,1230,657.521,1230,657.4723,1219.7143,657.6263,1209.4286,657.8596,1199.1429,657.9372,1188.8571,657.5171,1178.5714,657.8082,1168.2857,656.9486,1158,657.521,1158.0363,657.6086,1157.7164,657.5434,1157.3496,657.365,1157.0175,657.2704,1156.5242,656.7864,1156.2322,656.7888,1156.0314,656.7056,1155.8944,656.3559,1155.9212,656.0741,1155.7324,655.703,1155.8563,655.4615,1155.5,655.021,1155.3253,655.021,1155.1569,645.895,1155.7283,636.7691,1154.8332,627.6431,1154.9809,618.5171,1155.5,609.3912,1155.6999,609.4739,1155.7806,609.0932,1156.0191,608.7777,1155.8402,608.2895,1156.1841,608.0177,1156.2322,607.6234,1156.3075,607.8052,1156.5255,607.3315,1156.9271,607.301,1157.309,607.2229,1157.7296,607.2383,1158,606.8912" style="stroke:#181818;stroke-width:4.0;"/><text fill="#000000" font-family="Chalkduster" font-size="24" lengthAdjust="spacing" textLength="57" x="1165.5" y="640.732">Obj1</text></g><!--entity Obj2--><g id="elem_Obj2"><polygon fill="none" points="1048,606.8912,1048,607.1013,1058,606.4768,1068,607.0844,1078,607.2908,1088,606.1778,1098,606.8134,1108,606.4647,1118,606.8912,1117.9511,606.7731,1118.3449,607.0166,1118.6189,606.9711,1119.1313,607.501,1119.3338,607.2828,1119.7678,607.6234,1119.7069,607.5982,1120.0472,608.032,1120.0342,608.3196,1120.2281,608.6928,1120.3437,609.0335,1120.5,609.3912,1120.6785,609.3912,1120.7391,618.5171,1121.0857,627.6431,1121.1711,636.7691,1121.1793,645.895,1120.5,655.021,1120.5784,655.0535,1120.4963,655.4337,1120.4234,655.8177,1119.8386,655.9897,1120.1232,656.5218,1119.7678,656.7888,1119.7299,656.6975,1119.4823,657.0996,1118.9975,656.9292,1118.6984,657.207,1118.4482,657.6029,1118,657.521,1118,657.4723,1108,657.6263,1098,657.8596,1088,657.9372,1078,657.5171,1068,657.8082,1058,656.9486,1048,657.521,1048.0363,657.6086,1047.7164,657.5434,1047.3496,657.365,1047.0175,657.2704,1046.5242,656.7864,1046.2322,656.7888,1046.0314,656.7056,1045.8944,656.3559,1045.9212,656.0741,1045.7324,655.703,1045.8563,655.4615,1045.5,655.021,1045.3253,655.021,1045.1569,645.895,1045.7283,636.7691,1044.8332,627.6431,1044.9809,618.5171,1045.5,609.3912,1045.6999,609.4739,1045.7806,609.0932,1046.0191,608.7777,1045.8402,608.2895,1046.1841,608.0177,1046.2322,607.6234,1046.3075,607.8052,1046.5255,607.3315,1046.9271,607.301,1047.309,607.2229,1047.7296,607.2383,1048,606.8912" style="stroke:#181818;stroke-width:4.0;"/><text fill="#000000" font-family="Chalkduster" font-size="24" lengthAdjust="spacing" textLength="55" x="1055.5" y="640.732">Obj2</text></g><!--link Profiles to ro--><!--link ro to sstorage--><!--link OCFL to NOCFL--><!--link Obj1 to ldac--><g id="link_Obj1_ldac"><path d="M1193.45,606.4812 L1193.5431,606.4893 L1193.0061,603.4705 L1193.0147,600.4992 L1192.8456,597.5125 L1192.0923,594.4749 L1192.1477,591.5077 L1192.1135,591.503 L1191.4928,588.0918 L1191.0445,584.7044 L1190.7162,581.3336 L1189.9746,577.9058 L1189.8119,574.5577 L1190.0531,574.6063 L1188.8059,570.8688 L1188.263,567.2731 L1187.806,563.6947 L1186.8491,560.0156 L1186.1551,556.3895 L1186.1843,556.3977 L1185.0884,552.66 L1184.1254,548.9597 L1183.0983,545.2414 L1182.1935,541.5576 L1180.89,537.7612 L1181.1678,537.8697 L1179.7391,534.205 L1178.1311,530.4703 L1176.7855,526.838 L1175.4521,523.2106 L1173.7293,519.431 L1173.4474,519.2785 L1172.1258,516.1197 L1169.8759,512.4587 L1168.3318,509.1795 L1166.0608,505.5072 L1164.3856,502.1571 L1164.3614,502.1386 L1162.2847,499.2654 L1159.6428,495.9602 L1157.3344,492.9099 L1155.054,489.881 L1152.5716,486.6978 L1152.6942,486.8363 L1149.6562,484.1191 L1146.8275,481.6387 L1143.6601,478.7752 L1140.9981,476.4832 L1138,473.8112 L1138.1295,474.0175 L1136.3381,472.8693 L1134.6109,471.8236 L1132.5849,470.3018 L1130.778,469.1289 L1129.1652,468.2652 L1129.0416,468.0182 L1127.1617,467.2459 L1125.1426,466.1952 L1123.3254,465.5483 L1121.1635,464.212 L1119.2065,463.2855 L1119.1495,463.1441 L1117.0422,462.4927 L1114.6914,461.2368 L1112.5137,460.4108 L1110.5055,460.0055 L1108.1956,458.8511 L1108.2556,459.0351 L1105.8985,458.3794 L1103.3546,457.1511 L1101.0446,456.64 L1098.6837,455.9726 L1096.204,454.9411 L1096.1504,454.7381 L1093.6131,454.2186 L1091.0581,453.6327 L1088.5377,453.1774 L1085.8831,452.2143 L1083.3035,451.5348 L1083.3463,451.7359 L1080.5046,450.7094 L1077.7456,450.071 L1075.1073,449.9996 L1072.2468,448.8844 L1069.5655,448.6113 L1069.6033,448.8343 L1066.6801,448.2096 L1063.744,447.5093 L1060.8369,446.9794 L1057.9965,446.8431 L1055.0617,446.1498 L1055.0441,446.0179 L1052.0567,446.0065 L1048.9501,445.0981 L1045.979,445.2096 L1042.9316,444.7469 L1039.8636,444.1294 L1039.8745,444.2378 L1036.7016,443.8303 L1033.5678,443.8107 L1030.3986,443.4407 L1027.2146,442.9242 L1024.0429,442.5294 L1024.0516,442.6483 L1020.7643,442.2315 L1017.5175,442.3667 L1014.2249,441.8777 L1010.9511,441.6454 L1007.6712,441.3288 L1007.658,441.0587 L1004.2922,440.9845 L1000.9422,441.2356 L997.5698,441.0264 L994.1893,440.6522 L990.82,440.5069 L990.8162,440.3637 L987.3656,440.3168 L983.9082,440.0163 L980.4696,440.4126 L977.0217,440.4641 L973.561,440.0427 L973.5627,440.2767 L970.0442,440.3261 L966.5225,439.9311 L963.0042,440.0052 L959.4836,439.7687 L955.9658,439.9155 L955.9671,440.0418 L952.395,440.063 L948.8245,440.2366 L945.2488,439.9268 L941.6773,440.0069 L938.106,440.1045 L938.1112,440.3015 L934.5021,440.4534 L930.8787,440.0705 L927.2719,440.3089 L923.6654,440.5582 L920.0531,440.5887 L920.0417,440.3175 L916.4248,440.8974 L912.7881,441.0068 L909.1466,440.9992 L905.5163,441.2588 L901.8788,441.3474 L901.8967,441.6708 L898.2262,441.411 L894.5969,441.8921 L890.9513,442.0816 L887.3023,442.2086 L883.6546,442.3597 L883.6589,442.4222 L880.0176,442.6591 L876.3547,442.581 L872.721,442.9291 L869.0787,443.1512 L865.4522,443.6048 L865.4545,443.6331 L861.8335,443.9353 L858.2144,444.2593 L854.5764,444.3502 L850.9626,444.7406 L847.3432,445.0619 L847.3383,445.0087 L843.7778,445.6468 L840.1829,445.91 L836.557,445.8359 L832.985,446.3482 L829.3991,446.7101 L829.3729,446.4549 L825.8707,447.2013 L822.3438,447.7065 L818.7993,448.0419 L815.2134,447.9723 L811.6916,448.5285 L811.7148,448.7334 L808.1747,448.5941 L804.7419,449.4041 L801.2371,449.5771 L797.777,450.1456 L794.2923,450.4965 L794.3054,450.6025 L790.914,451.124 L787.4454,451.0175 L784.1064,451.9641 L780.6863,452.2523 L777.2727,452.593 L777.2936,452.7495 L774.0029,453.3633 L770.6458,453.4771 L767.3421,453.9928 L764.0307,454.4504 L760.7045,454.7973 L760.7169,454.884 L757.4954,455.2551 L754.3311,456.0264 L751.0391,455.9037 L747.9039,456.8789 L744.6593,457.0885 L744.6175,456.8143 L741.5329,457.3226 L738.4817,458.049 L735.3908,458.5153 L732.2657,458.7578 L729.2086,459.4458 L729.239,459.6272 L723.4504,460.4595 L717.7295,461.6962 L711.9588,462.636 L706.1107,463.113 L700.3774,464.2754 L700.3445,464.1017 L695.2479,465.1878 L690.1692,466.3683 L685.0544,467.3578 L679.9272,468.2822 L674.7836,469.1194 L674.7526,468.9707 L672.5605,469.8714 L670.2795,470.3453 L667.937,470.5241 L665.6388,470.9157 L663.3797,471.4948 L663.3408,471.3206 L661.283,471.865 L659.2411,472.4809 L657.1453,472.8549 L655.0355,473.1667 L653,473.8112 L653.0511,474.0217 L650.9336,474.1032 L649.0161,475.0085 L646.9899,475.4663 L644.9658,475.9326 L642.9085,476.2622 L642.9872,476.5597 L640.8579,476.6921 L638.829,477.2042 L636.8996,478.0919 L634.7501,478.1481 L632.7953,478.9401 L632.7668,478.8401 L630.7846,479.568 L628.7541,480.1265 L626.6772,480.5224 L624.6909,481.2357 L622.6714,481.8325 L622.7681,482.149 L620.7308,482.727 L618.5442,482.8169 L616.6071,483.7225 L614.5053,484.0896 L612.5472,484.9269 L612.5436,484.9158 L610.5647,485.7076 L608.5594,486.418 L606.3878,486.6163 L604.5113,487.7234 L602.4337,488.2109 L602.4349,488.2144 L600.3351,488.6696 L598.3288,489.3972 L596.4254,490.4248 L594.3958,491.0847 L592.3414,491.6719 L592.3389,491.665 L590.228,492.116 L588.4164,493.3973 L586.2582,493.7169 L584.2135,494.3516 L582.2811,495.2975 L582.2705,495.2695 L580.37,496.2983 L578.3705,497.0646 L576.276,497.5788 L574.2433,498.2569 L572.2634,499.0754 L572.2915,499.1454 L568.3214,500.7447 L564.2338,502.0509 L560.4133,504.0236 L556.4644,505.6758 L552.3991,507.0378 L552.3612,506.9497 L548.4107,508.5469 L544.6917,510.6819 L540.6639,512.0994 L536.7471,513.7751 L532.8342,515.4595 L532.8895,515.5804 L528.8787,516.9549 L525.2603,519.1863 L521.3234,520.7221 L517.614,522.7549 L513.6542,524.2409 L513.6125,524.1546 L509.9915,526.2129 L506.0847,527.6799 L502.4761,529.7639 L498.7602,531.6259 L494.945,533.2824 L494.8792,533.1526 L491.3874,535.2667 L487.569,536.7366 L483.9588,538.617 L480.56,540.9146 L476.7922,542.4843 L476.9344,542.7532 L473.4082,544.5602 L469.713,546.0478 L466.3656,548.1929 L462.6855,549.709 L459.2814,551.747 L459.2939,551.7697 L455.9246,553.5913 L452.5121,555.3343 L449.3435,557.5212 L445.95,559.2988 L442.4985,560.9709 L442.428,560.847 L439.4204,562.9914 L436.1309,564.6405 L432.7886,566.1967 L429.6717,568.1491 L426.5291,570.0563 L426.4109,569.855 L423.4837,571.7725 L420.3594,573.3542 L417.3519,575.1347 L414.4887,577.1612 L411.4588,578.9037 L411.4311,578.8579 L408.6283,580.5833 L405.7917,582.2531 L403.046,584.0731 L400.0629,585.5003 L397.3734,587.4134 L397.4109,587.4738 L394.5963,588.7472 L392.2368,590.7541 L389.7034,592.4807 L387.0838,594.0685 L384.3586,595.4857 L384.4447,595.6213 L382.0327,597.0649 L379.6403,598.5396 L377.0909,599.7669 L374.9782,601.6816 L372.5,603.0212 " fill="none" style="stroke:#8B0000;stroke-width:4.0;"/><polygon fill="#8B0000" points="368.48,605.6112,368.4909,605.6804,370.4046,605.1696,372.382,605.0646,374.3386,604.8275,376.2272,604.1558,378.21,604.0857,378.2046,604.0603,377.074,603.709,375.9709,603.4853,374.8869,603.3504,373.7371,602.9096,372.6794,602.8973,372.8598,602.936,372.7117,601.747,373.0903,600.6712,373.5332,599.6092,373.6021,598.4668,373.8678,597.3667,373.8868,597.3791,372.7813,599.0097,371.7625,600.697,370.7018,602.357,369.721,604.0691,368.48,605.6112" style="stroke:#8B0000;stroke-width:4.0;"/><text fill="#000000" font-family="Chalkduster" font-size="24" lengthAdjust="spacing" textLength="164" x="442" y="455.732">conformsTo</text></g><!--link Obj1 to ro--><g id="link_Obj1_ro"><path d="M1182.95,658.0812 L1183.0324,658.1251 L1181.1257,661.1131 L1179.7023,664.3586 L1178.1215,667.5202 L1176.0232,670.4061 L1174.6413,673.6737 L1174.6118,673.6555 L1172.4071,676.9372 L1170.3507,680.3102 L1168.3972,683.7468 L1166.0887,686.9644 L1164.2775,690.4887 L1164.4788,690.6301 L1162.8674,692.0087 L1161.8438,693.8003 L1160.8919,695.6422 L1159.5227,697.1911 L1158.373,698.8941 L1158.397,698.9127 L1157.0897,700.517 L1155.8914,702.2062 L1154.6405,703.8544 L1153.4899,705.5808 L1152.0125,707.0524 L1152.2364,707.2494 L1150.8797,708.7972 L1149.3785,710.218 L1148.0887,711.8248 L1146.8089,713.4402 L1145.2151,714.7795 L1144.9901,714.5512 L1143.9838,716.4166 L1142.2365,717.5303 L1141.0526,719.2155 L1139.2886,720.3121 L1138,721.8912 L1137.9807,721.8676 L1136.1888,723.8037 L1133.9456,725.1899 L1131.9687,726.9006 L1130.0142,728.6385 L1127.8984,730.1799 L1127.9987,730.3354 L1126.0473,731.3715 L1124.2673,732.6734 L1122.2102,733.5454 L1120.5664,735.0585 L1118.6478,736.1454 L1118.7461,736.3683 L1115.2519,737.8576 L1111.8065,739.4575 L1108.1346,740.5431 L1104.6287,742.0058 L1101.27,743.8024 L1101.178,743.542 L1097.6087,745.068 L1093.9358,746.3006 L1090.4132,747.9588 L1086.6339,748.8903 L1083.0072,750.2538 L1082.9469,750.1138 L1080.9759,751.2387 L1078.7473,751.765 L1076.7019,752.717 L1074.8358,754.0855 L1072.6504,754.7123 L1072.7411,754.8833 L1070.4732,756.2364 L1067.9232,757.0575 L1065.7266,758.5449 L1063.453,759.8872 L1061,760.8912 L1060.8906,760.712 L1058.7527,762.2131 L1056.579,763.6555 L1054.4756,765.2133 L1052.0986,766.3227 L1049.8745,767.6826 L1049.9882,767.8539 L1047.7479,768.7994 L1045.7272,770.0756 L1044.0272,771.8346 L1041.7367,772.7046 L1039.9226,774.2919 L1040.0546,774.4756 L1038.1853,775.6534 L1036.2713,776.7691 L1034.4581,778.025 L1032.878,779.6052 L1030.9681,780.7266 L1030.8869,780.6212 L1029.5018,782.1885 L1027.5646,783.039 L1026.2552,784.7045 L1024.5924,785.9111 L1022.8342,786.9941 L1022.9038,787.0779 L1019.9453,789.423 L1017.2361,792.0679 L1014.3017,794.442 L1011.2731,796.7028 L1008.3228,799.0577 L1008.4005,799.148 L1005.6157,801.3107 L1003.1918,803.8929 L1000.3597,806.0007 L997.6956,808.3036 L994.9762,810.5424 L994.8065,810.332 L992.1445,812.5954 L989.6869,815.1123 L986.9401,817.2706 L984.0894,819.3002 L981.3827,821.5083 L981.3015,821.3903 L978.277,823.5295 L975.1087,825.4598 L972.3357,827.9641 L969.3671,830.1844 L966.1302,832.0151 L966.2486,832.2168 L964.5486,833.3014 L962.6235,834.0027 L960.936,835.1085 L959.0912,835.9465 L957.4405,837.1151 L957.4987,837.2271 L955.5643,838.2139 L953.7002,839.336 L951.6131,840.0291 L949.7058,841.0682 L947.8066,842.1227 L947.8886,842.302 L945.7606,843.3366 L943.4099,843.8848 L941.3179,844.9981 L939.2305,846.1214 L937.0519,847.0456 L936.9506,846.7937 L934.7001,848.1605 L932.2739,849.0902 L929.8041,849.9114 L927.434,850.9807 L925,851.8912 L925.1115,852.1952 L922.6182,852.6168 L920.3805,853.7349 L918.0421,854.5789 L915.6822,855.3641 L913.3306,856.172 L913.3511,856.2312 L911.1074,856.9944 L908.7605,857.4593 L906.5532,858.3278 L904.3046,859.077 L902.1319,860.0455 L902.1407,860.0725 L899.9918,860.7803 L897.8497,861.5089 L895.6355,862.0149 L893.5139,862.8069 L891.371,863.5329 L891.3555,863.4818 L889.3738,864.4029 L887.2833,864.9634 L885.095,865.1998 L883.0768,865.9998 L881.0149,866.6553 L880.9461,866.4082 L879.0525,867.3345 L877.0938,868.0273 L875.0894,868.5557 L872.9758,868.6918 L871.0309,869.434 L871.0818,869.6338 L869.0204,869.6053 L867.1949,870.5026 L865.2111,870.7787 L863.3256,871.4405 L861.386,871.89 L861.4089,871.9944 L857.7502,872.9008 L853.9561,873.189 L850.389,874.5138 L846.68,875.1905 L842.9823,875.919 L843.0091,876.0746 L839.5503,876.8451 L836.0062,877.1184 L832.5307,877.7914 L829.0453,878.4066 L825.541,878.9116 L825.552,878.9986 L822.1925,879.3364 L818.8839,880.0753 L815.4616,879.9183 L812.179,880.8615 L808.7989,881.0375 L808.7747,880.7612 L805.5169,881.0839 L802.2782,881.6265 L799.0167,881.907 L795.7353,881.9619 L792.4933,882.4658 L792.5036,882.6494 L789.2696,882.6942 L786.0585,883.1484 L782.8306,883.3021 L779.5766,882.9872 L776.3613,883.3662 L776.3553,883.1894 L773.115,883.4171 L769.8779,883.7408 L766.6343,883.8702 L763.3885,883.9333 L760.1398,883.9079 L760.1365,883.756 L756.831,884.2612 L753.5162,884.3306 L750.195,884.0985 L746.8784,884.0838 L743.5659,884.2605 L743.5625,884.0821 L740.1263,884.2317 L736.6915,884.4547 L733.2519,884.4298 L729.811,884.3411 L726.3768,884.5933 L726.3826,884.8099 L722.7579,884.4859 L719.1559,885.0095 L715.5415,885.0727 L711.9274,885.1446 L708.3095,885.0758 L708.3224,885.3834 L704.4633,885.127 L700.6206,885.263 L696.7941,885.7872 L692.9317,885.4521 L689.1011,885.8775 L689.0946,885.7737 L684.9818,886.1867 L680.8581,886.424 L676.7237,886.4925 L672.61,886.8905 L668.4887,887.1676 L668.5153,887.4975 L666.3289,887.6311 L664.1014,887.2559 L661.9426,887.7311 L659.7384,887.6449 L657.5738,888.0488 L657.5727,888.0372 L655.3131,888.3918 L653.0454,888.6614 L650.7275,888.3948 L648.4988,889.0796 L646.2093,889.1157 L646.2097,889.1194 L643.8135,889.125 L641.4481,889.417 L639.1166,890.0243 L636.7436,890.2451 L634.3623,890.3894 L634.3614,890.3822 L631.8538,890.3932 L629.4527,891.2805 L626.9282,891.1529 L624.4442,891.3578 L622,891.8912 L621.9987,891.8613 L619.0992,892.2753 L616.1879,892.4091 L613.2652,892.2737 L610.3499,892.3133 L607.4409,892.5027 L607.4422,892.5782 L603.6556,892.6482 L599.8638,892.4024 L596.0839,892.8747 L592.2983,893.0018 L588.5075,892.8162 L588.4978,892.7208 L584.8507,892.9966 L581.263,893.8548 L577.5961,893.936 L573.9577,894.2968 L570.3203,894.6671 L570.3722,894.7895 L567.7442,895.4477 L565.4841,896.9736 L562.9254,897.7952 L560.5801,899.12 L558,899.8912 L557.9275,899.8283 L556.7349,901.6281 L555.046,902.9977 L553.8749,904.8162 L552.5176,906.4731 L550.9877,907.9806 L550.8675,907.8987 L550.5225,908.9508 L549.5805,909.5966 L549.019,910.5013 L548.8441,911.6691 L547.9946,912.3778 L548.2549,912.5351 L547.9359,912.9637 L547.3075,913.2055 L547.3158,913.8318 L546.715,914.0903 L546.6196,914.654 L546.642,914.6668 L546.4875,914.885 L546.255,915.0588 L546.4627,915.4831 L546.2645,915.6764 L545.9616,915.8102 " fill="none" style="stroke:#8B0000;stroke-width:4.0;"/><polygon fill="#8B0000" points="545.9616,915.8102,546.0037,915.8662,547.4543,914.5175,549.1514,913.4973,550.7682,912.3701,552.1211,910.8911,553.8394,909.8991,553.8323,909.8742,552.7122,910.0712,551.6277,910.3939,550.568,910.804,549.4229,910.913,548.3975,911.4436,548.575,911.494,547.8865,910.2979,547.7162,909.2489,547.6093,908.2178,547.1343,907.0823,546.8529,906.0017,546.8756,906.0038,546.6641,907.9625,546.5557,909.9305,546.3975,911.894,546.3343,913.8662,545.9616,915.8102" style="stroke:#8B0000;stroke-width:4.0;"/><text fill="#000000" font-family="Chalkduster" font-size="24" lengthAdjust="spacing" textLength="164" x="1062" y="795.232">conformsTo</text></g><!--link stor to OCFL--><g id="link_stor_OCFL"><path d="M1269.4289,682.3434 L1269.5223,682.3462 L1269.1577,685.2724 L1269.3404,688.215 L1269.3449,691.1522 L1268.7633,694.072 L1268.993,697.0159 L1268.9585,697.0139 L1268.6217,700.1768 L1268.4586,703.3497 L1268.4165,706.5296 L1267.9578,709.6855 L1268.0825,712.8749 L1268.3276,712.8967 L1267.5053,716.2083 L1267.3985,719.5834 L1267.3791,722.9664 L1266.8517,726.3042 L1266.5914,729.6657 L1266.6215,729.6694 L1266.1418,733.1575 L1265.7992,736.6626 L1265.3904,740.1595 L1265.1077,743.6721 L1264.4139,747.1334 L1264.7081,747.1823 L1264.1177,750.7609 L1263.3376,754.308 L1262.8352,757.9012 L1262.3458,761.4966 L1261.4439,765.0235 L1261.1305,764.9563 L1260.9652,768.6981 L1259.7678,772.2189 L1259.3549,775.9077 L1258.1342,779.4234 L1257.5756,783.081 L1257.5462,783.073 L1256.9192,786.7613 L1255.6057,790.2635 L1254.6972,793.8754 L1253.8228,797.4966 L1252.703,801.0513 L1252.8782,801.1107 L1251.5048,804.5764 L1250.4307,808.1436 L1248.8724,811.5465 L1248.0364,815.1945 L1246.7202,818.6796 L1246.9446,818.7744 L1245.4623,822.1628 L1244.0915,825.5983 L1242.203,828.8149 L1240.6939,832.192 L1239.5211,835.7111 L1239.2768,835.5824 L1237.7938,838.9349 L1236.0354,842.1424 L1234.6764,845.5603 L1232.6355,848.619 L1231,851.8912 L1230.869,851.8131 L1229.4494,854.6901 L1227.4699,857.2334 L1225.8886,860.0141 L1224.6968,863.027 L1222.8113,865.6263 L1222.9763,865.7276 L1221.4852,868.4105 L1219.4808,870.7783 L1218.1193,873.5407 L1216.6178,876.2171 L1214.7899,878.6932 L1214.6126,878.5808 L1213.178,881.1557 L1211.6853,883.6938 L1210.3068,886.3042 L1208.4846,888.6333 L1206.9103,891.1196 L1207.0821,891.2325 L1205.1519,893.3471 L1203.5533,895.6796 L1202.4392,898.3305 L1200.4332,900.3953 L1199.1468,902.9329 L1199.3336,903.0605 L1197.688,905.2303 L1195.9793,907.3569 L1194.4132,909.581 L1193.1768,912.0303 L1191.4739,914.1609 L1191.3656,914.0836 L1190.1665,916.4476 L1188.2307,918.2863 L1187.1325,920.7223 L1185.5628,922.822 L1183.8659,924.831 L1183.9532,924.8961 L1182.369,926.8716 L1181.0973,929.0802 L1179.5433,931.0781 L1177.8713,932.988 L1176.2973,934.971 L1176.3911,935.0445 L1174.7408,936.8627 L1173.526,939.0224 L1171.8186,940.7959 L1170.3138,942.7282 L1168.7425,944.6083 L1168.534,944.4362 L1167.0903,946.3261 L1165.8977,948.4235 L1164.3498,950.2274 L1162.6745,951.9261 L1161.1758,953.7707 L1161.0679,953.6766 L1159.5817,955.4498 L1157.9044,957.0562 L1156.7523,959.1209 L1155.3402,960.9588 L1153.5717,962.4857 L1153.7435,962.6445 L1152.2651,964.3544 L1150.4602,965.7626 L1148.9999,967.4891 L1147.3115,969.005 L1145.9046,970.7809 L1145.9947,970.8693 L1144.4317,972.4383 L1142.9775,974.1141 L1141.1783,975.4512 L1139.6573,977.0615 L1138.1488,978.6839 L1138.2852,978.8263 L1136.7492,980.3737 L1134.8433,981.5348 L1133.3672,983.1448 L1131.8987,984.7626 L1130.2788,986.2224 L1130.0973,986.0205 L1128.7819,987.7795 L1127.1516,989.1882 L1125.443,990.5099 L1123.9132,992.0305 L1122.269,993.4238 L1122.4778,993.6714 L1120.5443,994.6959 L1119.0891,996.2877 L1117.4457,997.6561 L1115.762,998.9768 L1114.0938,1000.3159 L1114.1326,1000.365 L1112.4518,1001.6775 L1110.5753,1002.7423 L1108.9636,1004.1423 L1107.2736,1005.4432 L1105.7275,1006.9262 L1105.7444,1006.949 L1104.0342,1008.2289 L1102.3371,1009.5264 L1100.5008,1010.6359 L1098.8433,1011.9869 L1097.1446,1013.2823 L1097.1141,1013.2384 L1095.5258,1014.7187 L1093.7227,1015.8898 L1091.7264,1016.7827 L1090.066,1018.1593 L1088.3195,1019.4118 L1088.1794,1019.1969 L1086.5709,1020.7053 L1084.8301,1022.0105 L1082.996,1023.1728 L1080.9394,1023.9941 L1079.2266,1025.3423 L1079.3344,1025.5181 L1077.1767,1026.2128 L1075.5186,1027.7218 L1073.5252,1028.6845 L1071.74,1029.9863 L1069.8402,1031.1015 L1069.8937,1031.194 L1068.0042,1032.4062 L1065.7979,1033.0707 L1064.1229,1034.6537 L1062.1156,1035.6624 L1060.1349,1036.7169 L1060.2107,1036.8555 L1058.2844,1038.1083 L1056.1161,1038.9187 L1054.1423,1040.0848 L1052.1404,1041.1995 L1050.0849,1042.2161 L1050.1253,1042.2939 L1048.0007,1043.2979 L1046.0624,1044.6607 L1043.7079,1045.222 L1041.8645,1046.7676 L1039.6647,1047.6268 L1039.5418,1047.3782 L1037.3951,1048.4815 L1035.3462,1049.7826 L1033.1807,1050.8479 L1030.9148,1051.7102 L1028.8488,1052.9765 L1028.9274,1053.1427 L1026.622,1054.0835 L1024.4919,1055.3949 L1022.2331,1056.4343 L1019.7736,1057.0494 L1017.6114,1058.2928 L1017.5382,1058.1318 L1015.2507,1059.3026 L1013.003,1060.5609 L1010.6748,1061.6422 L1008.3192,1062.6631 L1005.927,1063.6033 L1005.8659,1063.4642 L1003.6092,1064.9288 L1001.1773,1065.9942 L998.6243,1066.7835 L996.1587,1067.7719 L993.77,1068.9357 L993.7002,1068.7715 L991.2016,1069.9243 L988.7318,1071.1446 L986.1649,1072.1368 L983.5731,1073.0703 L981.1148,1074.3175 L981.1969,1074.518 L975.656,1076.3332 L970.4364,1078.9331 L965.0423,1081.1066 L959.6515,1083.2883 L954.2074,1085.3399 L954.3206,1085.6261 L948.3257,1087.5485 L942.4753,1089.8361 L936.7678,1092.4851 L930.7439,1094.3342 L925,1096.8912 L924.9706,1096.7914 L922.9054,1097.5612 L920.7904,1098.162 L918.6277,1098.6006 L916.5582,1099.3559 L914.4544,1099.995 L914.5075,1100.3216 L911.994,1100.687 L909.3985,1100.5484 L906.9399,1101.2519 L904.3909,1101.3995 L901.9209,1102.0325 L901.9199,1102.0208 L899.0856,1102.3905 L896.2445,1102.675 L893.3603,1102.4227 L890.5525,1103.1229 L887.6926,1103.1737 L887.6927,1103.1774 L884.5602,1103.01 L881.4353,1103.1305 L878.3188,1103.568 L875.192,1103.6169 L872.0631,1103.589 L872.0631,1103.5817 L868.7131,1103.2622 L865.3706,1103.8252 L862.0195,1103.366 L858.6712,1103.2418 L855.3257,1103.4484 L855.3248,1103.4185 L851.8232,1103.6051 L848.3132,1103.5113 L844.7951,1103.1483 L841.2822,1102.9603 L837.7738,1102.9222 L837.777,1102.9976 L830.5025,1102.6992 L823.2148,1102.0853 L815.9573,1102.1889 L808.6852,1101.9475 L801.4,1101.3937 L801.3965,1101.2978 L797.746,1101.0706 L794.1168,1101.4285 L790.4592,1101.0058 L786.8119,1100.864 L783.1648,1100.7317 L783.1676,1100.8645 L779.5837,1100.3714 L776.0192,1100.8204 L772.439,1100.5047 L768.87,1100.7354 L765.2887,1100.3648 L765.2881,1100.2689 L761.845,1100.5663 L758.398,1100.2068 L754.955,1100.5327 L751.5106,1100.6121 L748.0649,1100.4632 L748.0583,1100.3179 L744.8166,1100.7712 L741.5422,1100.503 L738.2887,1100.6946 L735.0561,1101.3535 L731.7869,1101.1971 L731.8179,1101.4997 L728.8048,1101.7564 L725.755,1101.6536 L722.7809,1102.2907 L719.7344,1102.22 L716.748,1102.7367 L716.7527,1102.7621 L714.0466,1103.2392 L711.3241,1103.6282 L708.6943,1104.515 L705.979,1104.9427 L703.2416,1105.2521 L703.199,1105.116 L700.9756,1106.2077 L698.5817,1106.7556 L696.1558,1107.2014 L693.8663,1108.0823 L691.5612,1108.9135 L691.4534,1108.7064 L689.6204,1109.8542 L687.6076,1110.6566 L685.7013,1111.6635 L683.9267,1112.9233 L682,1113.8912 L681.9664,1113.8495 L679.6267,1115.7763 L677.246,1117.6524 L674.9758,1119.665 L672.417,1121.3207 L670.2151,1123.4179 L670.2676,1123.4658 L667.9181,1125.4438 L666.206,1128.0039 L664.2503,1130.3415 L662.174,1132.569 L659.9495,1134.6612 L660.0807,1134.7538 L658.2503,1137.2134 L656.4499,1139.6941 L654.4102,1142.0057 L653.0356,1144.7873 L651.1045,1147.1757 L651.2321,1147.2477 L649.5405,1149.8103 L648.093,1152.5106 L646.5098,1155.1344 L645.1702,1157.8956 L643.5813,1160.5162 L643.8561,1160.6424 L642.1783,1163.1947 L641.2505,1166.0916 L639.765,1168.7323 L638.3878,1171.4227 L637.281,1174.2373 L637.1015,1174.1692 L635.9778,1176.867 L635.0273,1179.6304 L634.1904,1182.4368 L633.2535,1185.2054 L632.1048,1187.8937 L632.3491,1187.9708 L631.4527,1190.5792 L630.1431,1193.057 L629.8768,1195.8643 L628.9903,1198.4758 L627.9541,1201.0401 L628.1864,1201.1015 L627.5335,1203.5376 L626.3813,1205.8416 L625.9089,1208.3254 L625.5106,1210.8288 L624.73,1213.2312 " fill="none" style="stroke:#8B0000;stroke-width:4.0;"/><polygon fill="#8B0000" points="623.61,1218.0912,623.666,1218.1333,624.6843,1216.4343,626.0307,1214.9824,627.2702,1213.45,628.1584,1211.6531,629.533,1210.2223,629.5193,1210.2004,628.4981,1210.7012,627.5462,1211.3128,626.6424,1212.0013,625.5728,1212.4246,624.7353,1213.2194,624.8919,1213.3172,623.9577,1212.1486,623.4806,1211.2655,623.0592,1210.4171,622.3134,1209.3662,621.7382,1208.4218,621.7606,1208.4261,622.1021,1210.3537,622.5454,1212.3009,622.9396,1214.2386,623.4273,1216.1944,623.61,1218.0912" style="stroke:#8B0000;stroke-width:4.0;"/><text fill="#000000" font-family="Chalkduster" font-size="24" lengthAdjust="spacing" textLength="164" x="1226" y="884.732">conformsTo</text></g><!--link api to stor--><g id="link_api_stor"><path d="M1258.34,407.5112 L1258.62,407.5232 L1258.2377,417.9047 L1259.4966,428.3569 L1260.2212,438.7861 L1259.188,449.1394 L1260.4844,459.5933 L1261.0375,470.0151 L1260.8481,470.0069 L1260.9446,471.8021 L1261.162,473.6025 L1260.9627,475.3849 L1261.5929,477.2031 L1261.4245,478.9869 L1261.1446,478.9748 L1261.3758,479.8895 L1261.6945,480.808 L1261.5037,481.7045 L1261.6112,482.6138 L1261.62,483.5189 L1261.6058,483.5183 L1261.7189,483.9774 L1261.7654,484.4336 L1261.9389,484.8952 L1261.9965,485.3519 L1261.7181,485.7941 " fill="none" style="stroke:#8B0000;stroke-width:4.0;"/><polygon fill="#8B0000" points="1258.14,402.8212,1258.2052,402.8468,1257.2895,404.6032,1256.756,406.5102,1256.098,408.3681,1255.0309,410.0648,1254.5302,411.9846,1254.5111,411.9671,1255.1903,411.0549,1255.9658,410.231,1256.8081,409.4684,1257.42,408.4944,1258.3547,407.8165,1258.4795,407.9525,1259.0463,408.4267,1259.9774,409.2978,1260.9529,410.2174,1261.6698,410.8551,1262.5228,411.6411,1262.5431,411.6512,1261.6367,409.8724,1260.823,408.1396,1259.9645,406.3846,1259.1914,404.672,1258.14,402.8212" style="stroke:#8B0000;stroke-width:4.0;"/><polygon fill="#8B0000" points="1261.7181,485.7941,1261.7833,485.8198,1262.3113,483.9107,1263.2214,482.1521,1264.0072,480.3445,1264.3836,478.3758,1265.3266,476.6301,1265.3075,476.6126,1264.457,477.3677,1263.7028,478.2111,1263.0155,479.1159,1262.0976,479.8092,1261.5027,480.7987,1261.6274,480.9347,1260.5269,479.8791,1259.7906,479.2206,1259.0988,478.6105,1258.1484,477.7185,1257.334,476.9748,1257.3544,476.985,1258.2013,478.7339,1259.1409,480.529,1260.0358,482.3019,1261.0161,484.1172,1261.7181,485.7941" style="stroke:#8B0000;stroke-width:4.0;"/></g><!--link policy to ldac--><!--link policy to PIDs--><g id="link_policy_PIDs"><path d="M206.49,401.2112 L206.569,401.261 L208.422,404.4193 L210.7381,407.87 L212.9034,411.2254 L214.5729,414.2678 L216.9287,417.7435 L216.9009,417.7231 L218.0386,419.3614 L219.3169,421.1023 L220.6931,422.9145 L221.7323,424.4808 L223.2434,426.3916 L223.4336,426.5478 L224.4307,427.9241 L225.9831,429.7562 L227.6032,431.6439 L228.8292,433.2081 L230.2625,434.9424 L230.2846,434.9632 L231.793,436.5706 L233.4021,438.2725 L234.9626,439.9289 L236.6157,441.6723 L237.967,443.1318 L238.1669,443.3531 L239.8435,444.8685 L241.391,446.2413 L243.1274,447.823 L244.8726,449.4145 L246.3375,450.6957 L246.1468,450.4381 L248.3204,452.273 L249.8661,453.2596 L251.8891,454.8911 L253.4205,455.8584 L255.3549,457.3702 L255.3398,457.3437 L257.4477,458.7604 L259.2022,459.5598 L261.1652,460.7234 L263.1458,461.9176 L265,462.8912 L265.0509,463.069 L266.7543,463.3918 L268.5446,464.0185 L270.1942,464.1536 L272.0537,465.022 L273.7737,465.4028 L273.8025,465.6448 L276.5055,465.9218 L279.2227,466.3189 L281.8735,466.1579 L284.573,466.406 L287.3156,467.0166 L287.3023,466.7407 L290.8394,467.1606 L294.3615,467.2696 L297.9054,467.8295 L301.4121,467.6196 L304.9409,467.8673 L304.9382,467.7148 L306.9687,468.005 L308.9875,467.6435 L311.0147,467.7454 L313.0499,468.3008 L315.0707,468.0487 L315.0715,468.2423 L317.2507,468.3833 L319.4277,467.9221 L321.6075,468.2153 L323.7868,468.3441 L325.9645,468.0899 L325.9621,467.88 L330.7115,467.9932 L335.46,468.0377 L340.2101,468.2173 L344.9541,467.8717 L349.7016,467.8194 L349.7066,468.025 L354.8487,467.4476 L360.0004,467.2671 L365.1663,467.666 L370.3062,466.998 L375.4671,467.1908 L375.4892,467.869 L386.4514,467.1077 L397.4061,466.1169 L408.3777,465.6441 L419.3884,466.3684 L430.3438,465.3987 L430.3395,465.2657 L435.9005,465.4829 L441.4323,464.7957 L446.9973,465.1368 L452.5437,464.8989 L458.085,464.5051 L458.0879,464.6139 L463.4915,464.3837 L468.9055,464.5431 L474.3101,464.3505 L479.7109,464.0107 L485.1149,463.7931 L485.1168,463.9123 L490.2408,463.6561 L495.3733,463.9533 L500.4962,463.6247 L505.6231,463.5534 L510.7486,463.3977 L510.748,463.1273 L515.4587,463.2288 L520.1702,463.6559 L524.8806,463.6223 L529.5906,463.4234 L534.3011,463.4537 L534.2979,463.3105 L536.4553,463.4043 L538.607,463.2446 L540.7742,463.7816 L542.9338,463.9739 L545.0828,463.6931 L545.0922,463.9269 L547.0962,464.0823 L549.0822,463.7936 L551.0871,463.9736 L553.0796,463.8434 L555.0874,464.0961 L555.0973,464.2219 L558.5631,464.4782 L562.0408,464.8863 L565.4805,464.8126 L568.9509,465.1275 L572.4226,465.4598 L572.4553,465.6542 L575.1043,466.1525 L577.6645,466.1232 L580.3279,466.7069 L582.993,467.3013 L585.6218,467.6799 L585.5246,467.4264 L587.3537,468.4688 L589.0141,469.0715 L590.6327,469.5648 L592.347,470.3079 L594,470.8912 L594.1958,471.1491 L596.2218,472.5307 L598.6963,474.5032 L600.9943,476.2431 L603.2545,477.9332 L605.5292,479.6425 L605.5732,479.6871 L607.6258,481.7127 L609.4567,483.5137 L611.5876,485.6186 L613.6298,487.6338 L615.8351,489.8141 L615.8572,489.8319 L617.6954,492.1035 L619.5507,494.3888 L621.224,496.5272 L623.1311,498.8544 L624.9843,501.138 L624.9397,501.1086 L626.8101,503.7209 L628.3662,506.1258 L629.6397,508.3441 L631.4046,510.8868 L633.0434,513.3463 L632.8185,513.2229 L634.563,515.9729 L636.0948,518.6063 L637.4771,521.1576 L638.5023,523.513 L640.0792,526.1711 L640.2664,526.2575 L640.9952,528.6674 L642.5915,531.4777 L643.6058,534.0194 L644.9814,536.7278 L646.1582,539.3444 L646.2576,539.3834 L647.3913,542.0717 L647.9358,544.5293 L649.4683,547.3738 L650.383,549.9764 L651.3471,552.5983 L651.4968,552.6484 L652.5354,555.317 L653.0955,557.8257 L654.0402,560.463 L654.9294,563.0817 L655.7125,565.6649 L655.7968,565.689 L656.4339,568.1871 L657.4596,570.7963 L657.6171,573.1571 L658.841,575.8231 L659.3211,578.2762 L659.0524,578.2078 L659.3967,579.4272 L659.9549,580.7011 L660.2581,581.91 L660.342,583.0631 L660.8625,584.3274 " fill="none" style="stroke:#8B0000;stroke-width:4.0;"/><polygon fill="#8B0000" points="660.8625,584.3274,660.9315,584.3398,661.0752,582.3643,661.6232,580.4615,662.0395,578.535,662.023,576.5306,662.6056,574.634,662.5835,574.6206,661.8974,575.5277,661.3231,576.5026,660.8263,577.5245,660.0621,578.3842,659.6725,579.4711,659.7682,579.6289,658.5962,578.7048,657.7035,578.2415,656.845,577.8343,655.7881,577.1001,654.8355,576.538,654.8535,576.5519,656.0325,578.0893,657.2934,579.6902,658.5147,581.2604,659.8115,582.889,660.8625,584.3274" style="stroke:#8B0000;stroke-width:4.0;"/><text fill="#000000" font-family="Chalkduster" font-size="24" lengthAdjust="spacing" textLength="166" x="266" y="455.732">Recommend</text></g><!--SRC=[TP71QW8n48RlUOfnxxlI7aM4HLiGf2xQMoqbcqHDcyqiIPPsARvx9z6AMffJCjy_atzc1jeAqqdrrd3RGr4C9GyyfmVVgKRPaFlG6rM4hy06rzAX3znAxgJF1JOjMbBxekqQmu8EHerWVHRKt2i9Fg2Zif0H41yPSqgGOcSe0ZUdT6Al0_7EAKXo2cxinfAIU-24OJnsgaMlgMe_cS0tYuaNDSjgdYLngnEAdKKZyVza9D5ewfHxax-it- -oVy3z4HpOWKKPv1CmaWiOWK2xHTVuPpmJXzVnz2N5bzF7nJKXgp3E9NvQmb5sCQFAuLORvVyskfZnQGdLV0OL6Ytwr5URhabwl4Ag-xBNKYhxUZ9C_jalfX3LyEHefMYZj7t9B0O5DOQ03U0MdawMoGjDdbPAng6ZaTOzLEMgdCtN3rFs0m00]--></g></svg>