<?xml version="1.0" encoding="us-ascii" standalone="no"?><svg xmlns="http://www.w3.org/2000/svg" xmlns:xlink="http://www.w3.org/1999/xlink" contentStyleType="text/css" height="587px" preserveAspectRatio="none" style="width:865px;height:587px;background:#FFFFFF;" version="1.1" viewBox="0 0 865 587" width="865px" zoomAndPan="magnify"><defs/><g><text fill="#000000" font-family="Chalkduster" font-size="42" font-weight="bold" lengthAdjust="spacing" textLength="548" x="151.5" y="51.7215">CommunicationMethod</text><!--entity p1--><g id="elem_p1"><polygon fill="#F1F1F1" points="515.1895,534.7134,513.4125,537.1414,511.3108,540.6976,508.3048,543.0942,505.1461,544.4048,502.6275,544.5186,499.3905,542.8795,496.3361,541.8087,494.0178,539.6347,492.8017,537.1458,492.0805,535.1641,491.374,532.5755,490.2272,530.348,491.1085,528.1732,491.8806,525.7908,494.7779,523.9066,496.8164,521.4618,499.3394,520.65,502.3389,519.9508,506.1854,520.3662,508.2921,521.3598,510.7416,521.8101,513.7198,524.8615,514.758,528.0827,515.2091,530.2807,514.6982,533.9026" style="stroke:#181818;stroke-width:0.5;"/><polygon fill="#F1F1F1" points="471.1225,543.8873,471.1225,544.0975,481.7484,543.473,492.3742,544.0806,503,544.287,513.6258,543.1739,524.2516,543.8096,534.8775,543.8873,534.8231,543.7559,536.5429,544.4793,538.2975,545.2865,539.9324,545.8047,541.8056,546.8983,543.4494,547.4379,543.2553,547.3575,544.0986,549.127,545.0027,550.9218,545.5533,552.5701,546.3109,554.3041,547,556.0098,546.9894,556.0098,547.0595,558.7343,547.0797,561.4587,547.1952,564.1832,547.2237,566.9077,547,569.6321,547.2092,569.7188,546.3683,571.379,545.7225,573.1201,545.0859,574.8649,543.9374,576.3977,543.4494,578.2041,543.5359,578.413,541.6972,578.8229,540.0887,579.7887,538.2431,580.182,536.5831,581.0235,534.8775,581.7547,534.8775,582.4963,524.2516,581.7059,513.6258,581.86,503,582.0933,492.3742,582.1709,481.7484,581.7508,471.1225,581.7547,471.1592,581.8431,469.3351,580.8683,467.73,580.422,466.0493,579.7931,464.3217,579.0511,462.5506,578.2041,462.7394,578.2823,461.6917,576.4281,460.9295,574.6921,460.2289,572.9817,459.692,571.339,459,569.6321,458.9345,569.6321,459.2271,566.9077,458.9418,564.1832,458.8856,561.4587,459.0761,558.7343,459,556.0098,458.7946,555.9247,459.5503,554.2292,460.6201,552.6638,461.2645,550.9222,462.0667,549.246,462.5506,547.4379,462.5096,547.3388,464.3057,546.8261,466.0547,546.1995,467.6335,545.162,469.3959,544.5679,471.1225,543.8873" style="stroke:#181818;stroke-width:0.5;"/><text fill="#000000" font-family="Chalkduster" font-size="14" lengthAdjust="spacing" textLength="68" x="469" y="567.7945">Person 1</text></g><!--entity m1--><g id="elem_m1"><polygon fill="none" points="607,285.1222,607,285.3324,616.8333,284.7079,626.6667,285.3155,636.5,285.5219,646.3333,284.4088,656.1667,285.0445,666,284.6957,675.8333,284.7387,685.6667,285.0541,695.5,284.4308,705.3333,285.6759,715.1667,284.4919,725,284.9244,734.8333,285.5542,744.6667,285.0364,754.5,285.1904,764.3333,285.0903,774.1667,285.3007,784,285.3613,793.8333,285.7079,803.6667,285.7933,813.5,285.8015,823.3333,285.3768,833.1667,285.5858,843,285.1222,843.0896,285.3385,843.2616,285.0466,843.7937,285.6241,844.0228,285.4702,844.4823,285.8724,844.7678,285.8544,844.6153,285.7913,844.8931,286.1993,845.289,286.6562,845.1921,286.9089,845.386,287.2821,845.5,287.6222,845.8386,287.6222,845.9162,297.445,845.4961,307.2678,845.7872,317.0906,844.9276,326.9134,845.7844,336.7363,846.0482,346.5591,845.9445,356.3819,846.113,366.2047,845.0169,376.0275,844.8478,385.8503,844.8786,395.6731,845.4411,405.4959,845.3035,415.3187,845.5,425.1415,845.7098,425.2285,845.2998,425.4728,845.1015,425.8049,845.131,426.2313,844.7089,426.4707,844.7678,426.9093,844.7015,426.7494,844.497,427.2556,844.1162,427.3364,843.8008,427.5748,843.3125,427.396,843,427.6415,843,427.9607,833.1667,428.232,823.3333,427.1691,813.5,427.5457,803.6667,427.7675,793.8333,428.2933,784,427.6374,774.1667,428.1041,764.3333,427.0878,754.5,426.9643,744.6667,428.1452,734.8333,426.9246,725,428.1505,715.1667,427.8482,705.3333,427.3736,695.5,427.2878,685.6667,428.1003,675.8333,427.3422,666,428.2334,656.1667,427.0888,646.3333,428.259,636.5,428.1258,626.6667,427.8865,616.8333,427.6888,607,427.6415,607.0927,427.8653,606.7247,427.6841,606.3145,427.4008,605.9736,427.2848,605.5692,427.0156,605.2322,426.9093,605.4529,427.0007,605.1335,426.5755,604.9925,426.2242,604.6055,425.771,604.5217,425.4434,604.5,425.1415,605.0307,425.1415,604.9298,415.3187,604.4571,405.4959,604.1778,395.6731,604.2811,385.8503,603.8138,376.0275,604.9147,366.2047,605.2396,356.3819,605.0264,346.5591,605.1949,336.7363,604.3633,326.9134,604.5872,317.0906,604.1124,307.2678,604.784,297.445,604.5,287.6222,604.576,287.6537,604.8166,287.3391,604.7222,286.8858,604.8979,286.5444,605.2224,286.2646,605.2322,285.8544,605.3046,286.0292,605.5204,285.5502,605.9146,285.5018,606.3119,285.4611,606.5685,285.0805,607,285.1222" style="stroke:#181818;stroke-width:4.0;"/><text fill="#000000" font-family="Chalkduster" font-size="24" lengthAdjust="spacing" textLength="124" x="614.5" y="318.9631">Method 1</text><text fill="#000000" font-family="Chalkduster" font-size="24" lengthAdjust="spacing" textLength="221" x="614.5" y="349.5929">languge: Auslan</text><text fill="#000000" font-family="Chalkduster" font-size="24" lengthAdjust="spacing" textLength="172" x="614.5" y="380.2228">mode:Signed</text><text fill="#000000" font-family="Chalkduster" font-size="24" lengthAdjust="spacing" textLength="197" x="614.5" y="410.8526">context:school</text></g><!--entity m2--><g id="elem_m2"><polygon fill="none" points="299.5,285.1222,299.5,285.3324,309.625,284.7079,319.75,285.3155,329.875,285.5219,340,284.4088,350.125,285.0445,360.25,284.6957,370.375,284.7387,380.5,285.0541,390.625,284.4308,400.75,285.6759,410.875,284.4919,421,284.9244,431.125,285.5542,441.25,285.0364,451.375,285.1904,461.5,285.0903,471.625,285.3007,481.75,285.3613,491.875,285.7079,502,285.7933,512.125,285.8015,522.25,285.3768,532.375,285.5858,542.5,285.1222,542.5896,285.3385,542.7616,285.0466,543.2937,285.6241,543.5228,285.4702,543.9823,285.8724,544.2678,285.8544,544.1153,285.7913,544.3931,286.1993,544.789,286.6562,544.6921,286.9089,544.886,287.2821,545,287.6222,545.3386,287.6222,545.4162,297.445,544.9961,307.2678,545.2872,317.0906,544.4276,326.9134,545.2844,336.7363,545.5482,346.5591,545.4445,356.3819,545.613,366.2047,544.5169,376.0275,544.3478,385.8503,544.3786,395.6731,544.9411,405.4959,544.8035,415.3187,545,425.1415,545.2098,425.2285,544.7998,425.4728,544.6015,425.8049,544.631,426.2313,544.2089,426.4707,544.2678,426.9093,544.2015,426.7494,543.997,427.2556,543.6162,427.3364,543.3008,427.5748,542.8125,427.396,542.5,427.6415,542.5,427.9607,532.375,428.232,522.25,427.1691,512.125,427.5457,502,427.7675,491.875,428.2933,481.75,427.6374,471.625,428.1041,461.5,427.0878,451.375,426.9643,441.25,428.1452,431.125,426.9246,421,428.1505,410.875,427.8482,400.75,427.3736,390.625,427.2878,380.5,428.1003,370.375,427.3422,360.25,428.2334,350.125,427.0888,340,428.259,329.875,428.1258,319.75,427.8865,309.625,427.6888,299.5,427.6415,299.5927,427.8653,299.2247,427.6841,298.8145,427.4008,298.4736,427.2848,298.0692,427.0156,297.7322,426.9093,297.9529,427.0007,297.6335,426.5755,297.4925,426.2242,297.1055,425.771,297.0217,425.4434,297,425.1415,297.5307,425.1415,297.4298,415.3187,296.9571,405.4959,296.6778,395.6731,296.7811,385.8503,296.3138,376.0275,297.4147,366.2047,297.7396,356.3819,297.5264,346.5591,297.6949,336.7363,296.8633,326.9134,297.0872,317.0906,296.6124,307.2678,297.284,297.445,297,287.6222,297.076,287.6537,297.3166,287.3391,297.2222,286.8858,297.3979,286.5444,297.7224,286.2646,297.7322,285.8544,297.8046,286.0292,298.0204,285.5502,298.4146,285.5018,298.8119,285.4611,299.0685,285.0805,299.5,285.1222" style="stroke:#181818;stroke-width:4.0;"/><text fill="#000000" font-family="Chalkduster" font-size="24" lengthAdjust="spacing" textLength="122" x="307" y="318.9631">Method 2</text><text fill="#000000" font-family="Chalkduster" font-size="24" lengthAdjust="spacing" textLength="228" x="307" y="349.5929">languge: English</text><text fill="#000000" font-family="Chalkduster" font-size="24" lengthAdjust="spacing" textLength="179" x="307" y="380.2228">mode:Spoken</text><text fill="#000000" font-family="Chalkduster" font-size="24" lengthAdjust="spacing" textLength="179" x="307" y="410.8526">context:work</text></g><!--entity m3--><g id="elem_m3"><polygon fill="none" points="9.5,81.6022,9.5,81.8124,19.625,81.1879,29.75,81.7955,39.875,82.0019,50,80.8888,60.125,81.5245,70.25,81.1757,80.375,81.2187,90.5,81.5341,100.625,80.9108,110.75,82.1559,120.875,80.9719,131,81.4044,141.125,82.0342,151.25,81.5164,161.375,81.6704,171.5,81.5703,181.625,81.7807,191.75,81.8413,201.875,82.1879,212,82.2733,222.125,82.2815,232.25,81.8568,242.375,82.0658,252.5,81.6022,252.5896,81.8185,252.7616,81.5266,253.2937,82.1041,253.5228,81.9502,253.9823,82.3524,254.2678,82.3344,254.1153,82.2713,254.3931,82.6793,254.789,83.1362,254.6921,83.3889,254.886,83.7621,255,84.1022,255.3386,84.1022,255.4162,93.925,254.9961,103.7478,255.2872,113.5706,254.4276,123.3934,255.2844,133.2163,255.5482,143.0391,255.4445,152.8619,255.613,162.6847,254.5169,172.5075,254.3478,182.3303,254.3786,192.1531,254.9411,201.9759,254.8035,211.7987,255,221.6215,255.2098,221.7085,254.7998,221.9528,254.6015,222.2849,254.631,222.7113,254.2089,222.9507,254.2678,223.3893,254.2015,223.2294,253.997,223.7356,253.6162,223.8164,253.3008,224.0548,252.8125,223.876,252.5,224.1215,252.5,224.4407,242.375,224.712,232.25,223.6491,222.125,224.0257,212,224.2475,201.875,224.7733,191.75,224.1174,181.625,224.5841,171.5,223.5678,161.375,223.4443,151.25,224.6252,141.125,223.4046,131,224.6305,120.875,224.3282,110.75,223.8536,100.625,223.7678,90.5,224.5803,80.375,223.8222,70.25,224.7134,60.125,223.5688,50,224.739,39.875,224.6058,29.75,224.3665,19.625,224.1688,9.5,224.1215,9.5927,224.3453,9.2247,224.1641,8.8145,223.8808,8.4736,223.7648,8.0692,223.4956,7.7322,223.3893,7.9529,223.4807,7.6335,223.0555,7.4925,222.7042,7.1055,222.251,7.0217,221.9234,7,221.6215,7.5307,221.6215,7.4298,211.7987,6.9571,201.9759,6.6778,192.1531,6.7811,182.3303,6.3138,172.5075,7.4147,162.6847,7.7396,152.8619,7.5264,143.0391,7.6949,133.2163,6.8633,123.3934,7.0872,113.5706,6.6124,103.7478,7.284,93.925,7,84.1022,7.076,84.1337,7.3166,83.8191,7.2222,83.3658,7.3979,83.0244,7.7224,82.7446,7.7322,82.3344,7.8046,82.5092,8.0204,82.0302,8.4146,81.9818,8.8119,81.9411,9.0685,81.5605,9.5,81.6022" style="stroke:#181818;stroke-width:4.0;"/><text fill="#000000" font-family="Chalkduster" font-size="24" lengthAdjust="spacing" textLength="125" x="17" y="115.4431">Method 3</text><text fill="#000000" font-family="Chalkduster" font-size="24" lengthAdjust="spacing" textLength="228" x="17" y="146.0729">languge: English</text><text fill="#000000" font-family="Chalkduster" font-size="24" lengthAdjust="spacing" textLength="186" x="17" y="176.7028">mode:Lipread</text><text fill="#000000" font-family="Chalkduster" font-size="24" lengthAdjust="spacing" textLength="179" x="17" y="207.3326">context:work</text></g><!--reverse link m1 to p1--><g id="link_m1_p1"><path d="M613.37,431.4822 L613.4278,431.5556 L611.6325,432.6175 L610.1761,434.1094 L608.6094,435.4613 L606.6796,436.3527 L605.2523,437.8816 L605.2305,437.8548 L603.5387,439.0364 L601.9571,440.3528 L600.452,441.763 L598.6831,442.8501 L597.2838,444.3897 L597.443,444.5773 L595.5489,445.495 L594.1197,446.9605 L592.7472,448.4927 L591.0447,449.6361 L589.5158,450.9841 L589.5359,451.0068 L588.0032,452.3051 L586.5621,453.7067 L585.0768,455.0585 L583.6758,456.5054 L582,457.6422 L582.2041,457.8597 L580.6547,459.3187 L578.9736,460.6373 L577.4853,462.1614 L576.0059,463.695 L574.2404,464.9237 L574.0141,464.6968 L572.9185,466.6681 L571.0776,467.8922 L569.8034,469.6844 L567.9456,470.8915 L566.5661,472.5781 L566.544,472.5572 L565.2995,474.3861 L563.5398,475.7245 L562.0841,477.3524 L560.6539,479.0046 L559.0396,480.4815 L559.1764,480.6061 L557.5752,482.0859 L556.2076,483.7787 L554.4621,485.1271 L553.2803,486.9892 L551.7238,488.5097 L551.9069,488.6704 L550.4638,490.2458 L549.1115,491.901 L547.3368,493.1856 L545.8718,494.7419 L544.6812,496.5389 L544.4705,496.3602 L543.3199,498.1032 L541.9319,499.6448 L540.8881,501.4785 L539.2567,502.8136 L537.9745,504.445 L537.8562,504.3488 L535.6223,507.4985 L532.8828,510.2369 L530.5028,513.2678 L528.4747,516.5847 L525.82,519.3922 " fill="none" style="stroke:#8B0000;stroke-width:4.0;"/><polygon fill="#8B0000" points="617.05,427.8822,617.0665,427.9503,615.103,428.211,613.236,428.8709,611.3376,429.4008,609.3358,429.5033,607.4771,430.1974,607.4738,430.1718,608.5806,430.203,609.7043,430.3637,610.8397,430.6145,611.9347,430.555,613.0863,430.9301,613.2693,430.954,612.7315,432.0247,612.7279,433.1652,612.7895,434.3142,612.4719,435.4137,612.3537,436.5393,612.3737,436.5501,613.2836,434.8028,614.2845,433.1048,615.2416,431.383,616.2823,429.7067,617.05,427.8822" style="stroke:#8B0000;stroke-width:4.0;"/><text fill="#000000" font-family="Chalkduster" font-size="24" lengthAdjust="spacing" textLength="122" x="583" y="482.4831">produces</text></g><!--reverse link m1 to p1--><g id="link_m1_p1"><path d="M730.99,433.8422 L731.0823,433.8565 L730.3419,436.816 L730.1427,439.8595 L729.7673,442.8757 L728.8123,445.8018 L728.6595,448.8525 L728.6263,448.8433 L727.6638,451.7262 L726.869,454.6557 L726.1909,457.6177 L725.1109,460.468 L724.5938,463.4747 L724.8186,463.5747 L723.1147,466.1121 L722.0674,468.9414 L721.1001,471.8063 L719.6668,474.464 L718.4786,477.2306 L718.5036,477.2478 L716.7712,479.705 L715.1527,482.24 L713.4792,484.7375 L711.9107,487.3067 L710,489.6422 L710.2182,489.8455 L708.6448,491.5399 L706.9306,493.1032 L705.4224,494.8584 L703.9239,496.6227 L702.1195,498.1019 L701.9065,497.8623 L700.5983,499.8578 L698.5889,501.0645 L697.1126,502.8708 L695.0872,504.0596 L693.5119,505.7546 L693.4937,505.7302 L691.86,507.396 L689.8014,508.4913 L687.9934,509.9233 L686.2066,511.3835 L684.2679,512.6398 L684.3664,512.7964 L682.3089,513.8698 L680.4198,515.2107 L678.2584,516.1187 L676.5031,517.6725 L674.4778,518.7969 L674.5925,519.0118 L672.5217,520.0649 L670.5079,521.2246 L668.2294,521.8885 L666.1449,522.9159 L664.2323,524.2653 L664.118,524.0138 L662.0993,525.2053 L659.9519,526.1134 L657.9911,527.4325 L655.7117,528.0499 L653.6217,529.0844 L653.5667,528.9422 L651.4813,530.0208 L649.1608,530.4916 L647.0074,531.3947 L645.0176,532.7207 L642.7366,533.2935 L642.7971,533.4775 L640.6247,534.3314 L638.2643,534.6131 L636.1394,535.6115 L633.9633,536.4538 L631.6675,536.9322 L631.6112,536.7299 L629.4236,537.5127 L627.2175,538.2292 L625.0476,539.0758 L622.7369,539.4165 L620.5049,540.0398 L620.5518,540.24 L618.2156,540.3233 L615.97,540.7931 L613.8566,541.8273 L611.4997,541.8223 L609.3393,542.6557 L609.3826,542.8777 L607.1412,543.1785 L604.8852,543.4043 L602.6622,543.7995 L600.5158,544.5867 L598.2611,544.8193 L598.24,544.6879 L596.1228,545.4292 L593.8621,545.277 L591.7645,546.1407 L589.5751,546.4324 L587.3609,546.57 L587.3749,546.678 L585.2373,546.8663 L583.1497,547.4412 L581.017,547.6668 L578.8652,547.7464 L576.7292,547.9473 L576.7413,548.0659 L574.6689,548.0983 L572.6523,548.6813 L570.5726,548.6417 L568.5188,548.8581 L566.4565,548.9905 L566.439,548.7206 L562.6235,549.0591 L558.8292,549.7225 L555.005,549.9261 L551.1701,549.9648 L547.35,550.2322 " fill="none" style="stroke:#8B0000;stroke-width:4.0;"/><polygon fill="#8B0000" points="731.51,428.9222,731.5714,428.956,730.4378,430.5804,729.664,432.4031,728.773,434.1612,727.4969,435.7069,726.7539,437.5466,726.7372,437.5267,727.5279,436.7093,728.4027,435.9917,729.336,435.3435,730.0678,434.4561,731.0818,433.9038,731.223,434.0227,731.6496,434.6341,732.4884,435.5925,733.3776,436.5933,733.9741,437.3477,734.7245,438.2317,734.746,438.2391,734.0715,436.3663,733.495,434.5273,732.8711,432.672,732.3374,430.8478,731.51,428.9222" style="stroke:#8B0000;stroke-width:4.0;"/><text fill="#000000" font-family="Chalkduster" font-size="24" lengthAdjust="spacing" textLength="129" x="728" y="482.4831">consumes</text></g><!--reverse link m2 to p1--><g id="link_m2_p1"><path d="M406.73,433.8122 L406.8234,433.8149 L406.6298,436.6858 L406.9836,439.5727 L407.1592,442.4543 L406.7486,445.3189 L407.1494,448.2071 L407.1151,448.2027 L407.328,451.0498 L407.7136,453.919 L408.2192,456.8036 L408.3111,459.6352 L408.9825,462.541 L409.221,462.6013 L409.4158,465.2576 L410.307,468.0902 L411.2832,470.9443 L411.765,473.6732 L412.5069,476.468 L412.5349,476.4797 L413.5924,479.0974 L414.7774,481.7682 L415.9008,484.4134 L417.1416,487.1075 L418,489.6422 L418.2499,489.8051 L419.8235,492.2168 L421.2361,494.5236 L422.8845,496.9841 L424.544,499.4518 L425.8531,501.6911 L425.6181,501.4732 L428.0491,504.0256 L429.7063,505.8604 L431.9517,508.2409 L433.5913,510.0594 L435.7275,512.3385 L435.7081,512.315 L438.1759,514.4461 L440.1899,516.0295 L442.4717,517.936 L444.776,519.8697 L446.9181,521.6077 L447.0212,521.7613 L449.2775,523.1891 L451.71,524.8795 L453.8576,526.1451 L456.43,528.0443 L458.72,529.5222 " fill="none" style="stroke:#8B0000;stroke-width:4.0;"/><polygon fill="#8B0000" points="406.9,428.9122,406.9632,428.9425,405.9244,430.629,405.2559,432.4929,404.4669,434.299,403.2812,435.9151,402.6446,437.7943,402.6268,437.7755,403.3695,436.9141,404.2019,436.1477,405.0966,435.4473,405.7764,434.5195,406.7572,433.9102,406.8914,434.0369,407.3813,434.5884,408.2629,435.51,409.1924,436.4766,409.8437,437.1806,410.6413,438.0228,410.6624,438.0314,409.8832,436.1966,409.1998,434.4012,408.4703,432.5867,407.8289,430.8085,406.9,428.9122" style="stroke:#8B0000;stroke-width:4.0;"/><text fill="#000000" font-family="Chalkduster" font-size="24" lengthAdjust="spacing" textLength="122" x="419" y="482.4831">produces</text></g><!--reverse link m3 to p1--><g id="link_m3_p1"><path d="M114.9,230.2222 L114.9927,230.2336 L114.4358,232.4902 L114.4224,234.8136 L114.232,237.1152 L113.4595,239.3453 L113.4927,241.6744 L113.4584,241.671 L113.0689,244.0364 L112.8527,246.4188 L112.7569,248.8132 L112.246,251.1666 L112.3166,253.5774 L112.562,253.5952 L111.8585,256.0135 L111.8715,258.4839 L111.972,260.9607 L111.5638,263.4005 L111.4231,265.8598 L111.4534,265.8611 L111.2971,268.3772 L111.2787,270.8995 L111.1938,273.4188 L111.2358,275.9438 L110.8639,278.4503 L111.1621,278.4544 L111.1311,281.0199 L110.9077,283.5829 L110.9659,286.1496 L111.0373,288.7166 L110.6905,291.2779 L110.3701,291.2714 L111.0448,293.8827 L110.6644,296.4725 L111.0862,299.0786 L110.6818,301.668 L110.9546,304.2711 L110.9242,304.2694 L111.4343,306.9076 L111.2342,309.505 L111.4531,312.1264 L111.7073,314.7499 L111.7076,317.3588 L111.8917,317.377 L111.9646,319.9808 L112.3521,322.6157 L112.2306,325.2004 L112.8683,327.8599 L113.0013,330.4697 L113.2424,330.5045 L113.5739,333.1105 L114.0252,335.7338 L113.9202,338.2767 L114.223,340.8786 L114.887,343.5326 L114.616,343.4796 L115.3672,346.1163 L115.8131,348.6932 L116.7019,351.3568 L116.8344,353.8725 L117.4165,356.4761 L117.2687,356.4387 L118.1598,359.0516 L118.4191,361.5047 L119.1277,364.0714 L120.276,366.7492 L120.6413,369.2291 L120.8258,369.2878 L121.7467,371.8263 L122.0937,374.1823 L123.1595,376.7668 L124.0687,379.3016 L124.613,381.7203 L124.4175,381.6437 L125.5273,384.1364 L126.5731,386.6041 L127.7447,389.121 L128.4273,391.4462 L129.3831,393.8785 L129.5686,393.9672 L130.2851,396.1231 L131.3596,398.4502 L132.9571,401.0274 L133.5918,403.1441 L135.0033,405.6324 L135.1991,405.7456 L136.3871,407.934 L137.5089,410.0841 L138.7802,412.3207 L140.3972,414.7571 L141.525,416.9107 L141.4159,416.8346 L143.2359,419.2073 L144.3134,421.0629 L146.2352,423.5064 L147.6816,425.6189 L149,427.6422 L149.0846,427.7107 L150.464,429.4434 L152.1464,431.4213 L153.5551,433.1777 L154.8494,434.8413 L156.2387,436.582 L156.327,436.662 L157.7348,438.2421 L159.5528,440.1937 L160.9069,441.7251 L162.4518,443.4294 L163.934,445.0768 L163.7436,444.8849 L165.4316,446.5613 L167.3491,448.4688 L168.9419,450.0492 L170.4183,451.5123 L172.0562,453.1382 L171.9606,453.0315 L173.695,454.5935 L175.2602,455.9667 L177.2906,457.8588 L179.0908,459.4941 L180.5751,460.7772 L180.7228,460.9587 L182.5472,462.4624 L184.0911,463.6213 L185.9311,465.1441 L187.5751,466.426 L189.4609,468.0052 L189.5361,468.1067 L191.3707,469.4591 L193.2961,470.9339 L194.9338,472.0202 L196.8035,473.4199 L198.6836,474.8336 L198.794,474.9969 L200.7307,476.3305 L202.3679,477.2209 L204.3532,478.6262 L206.3445,480.0405 L208.2132,481.2736 L208.0705,481.0427 L210.2572,482.6197 L212.1962,483.7962 L214.0737,484.8732 L216.0918,486.1776 L218.0198,487.3364 L218.1795,487.6182 L219.962,488.3549 L222.1103,489.737 L224.1146,490.8651 L226.0881,491.9388 L228.0735,493.0335 L228.1024,493.089 L230.1509,494.1467 L232.0537,494.9244 L234.1537,496.0809 L236.1953,497.1255 L238.3441,498.376 L238.3564,498.4016 L240.4526,499.4112 L242.5582,500.4406 L244.563,501.2589 L246.6974,502.3483 L248.8019,503.3753 L248.7804,503.3264 L251.0281,504.5434 L253.1242,505.4158 L255.084,505.9781 L257.2808,507.0795 L259.4168,508.0426 L259.3206,507.8048 L261.6133,509.0308 L263.8151,510.032 L265.9529,510.875 L267.9379,511.3405 L270.1589,512.3893 L270.2309,512.5826 L272.2115,512.8874 L274.5257,514.0876 L276.6161,514.6871 L278.8454,515.6595 L280.9982,516.4267 L281.0329,516.5277 L283.2476,517.373 L285.2571,517.6197 L287.6107,518.8701 L289.7492,519.493 L291.9048,520.1659 L291.9524,520.3166 L294.1936,521.1734 L296.2831,521.5493 L298.4946,522.3117 L300.6885,523.0184 L302.8488,523.6185 L302.8732,523.7026 L305.0389,524.2535 L307.3173,525.1926 L309.344,525.2644 L311.6798,526.4014 L313.8,526.7955 L313.7286,526.5275 L315.9239,527.146 L318.1761,527.9778 L320.3604,528.5553 L322.4865,528.9141 L324.7287,529.7083 L324.7724,529.887 L326.9154,530.2873 L329.1558,531.086 L331.3248,531.5923 L333.3822,531.6428 L335.6048,532.3683 L335.5661,532.1957 L337.7509,532.7959 L339.9567,533.4898 L342.1201,533.9941 L344.2689,534.4336 L346.3983,534.7866 L346.3678,534.6378 L348.5913,535.5013 L350.7273,535.9378 L352.8028,536.0789 L354.9219,536.433 L357.0794,536.9747 L357.0467,536.7993 L359.1697,537.2747 L361.3061,537.8223 L363.3971,538.1262 L365.4763,538.3674 L367.6181,538.9437 L367.6544,539.1573 L369.6572,539.0949 L371.802,539.8684 L373.8697,540.1877 L375.9388,540.5157 L377.9844,540.705 L378.0312,541.0092 L380.0005,540.91 L382.0296,541.1989 L384.1178,541.8719 L386.0751,541.6947 L388.1483,542.2699 L388.1347,542.1668 L392.0752,542.8379 L395.9927,543.3344 L399.888,543.6633 L403.8265,544.3194 L407.7492,544.8555 L407.7838,545.1846 L411.4657,545.5292 L415.0944,545.366 L418.8121,546.0514 L422.471,546.1766 L426.1813,546.7908 L426.1803,546.7792 L429.5965,547.1957 L433.0057,547.527 L436.3716,547.3216 L439.8144,548.0686 L443.2047,548.1663 L443.205,548.17 L446.2653,548.1011 L449.3425,548.3197 L452.4384,548.8547 L455.5115,549.0019 L458.58,549.0722 " fill="none" style="stroke:#8B0000;stroke-width:4.0;"/><polygon fill="#8B0000" points="115.7,225.5122,115.7595,225.5492,114.5436,227.1128,113.6765,228.893,112.6959,230.6027,111.3416,232.0804,110.5045,233.8792,110.4889,233.8586,111.3208,233.083,112.2315,232.4116,113.197,231.8126,113.9737,230.9641,115.0149,230.465,115.162,230.5764,115.5302,231.2403,116.328,232.2294,117.1782,233.2582,117.7234,234.0561,118.4291,234.9754,118.4509,234.9817,117.873,233.0798,117.3946,231.2066,116.8682,229.3196,116.4334,227.4589,115.7,225.5122" style="stroke:#8B0000;stroke-width:4.0;"/><text fill="#000000" font-family="Chalkduster" font-size="24" lengthAdjust="spacing" textLength="129" x="150" y="365.2231">consumes</text></g><!--SRC=[TS_1QiGW40RWUvvYcdjIJ6uv54hfRGk5NWD5T4XaTKPqfBjlNzkqD2of5_NtzqFl71bVBBu7JLVe-tkhHNTrenSCID9bkNhivI9D8quyJl348HHoHejZUa5PsJPrH4oP2ThNRLOjw0nHGTCaDA9fyGZjLWSrawz9MIhtM79TpnJOulJc5a8xas4IlCYKpShilwcWZgHX9ptN4vVNNoho6UcF-k1qtg3X21h_XKuk9jJsI1g__gsWAx5xg0-42M9YMmpccxXUpINKU9SFj_MVVDptFm40]--></g></svg>