<svg xmlns="http://www.w3.org/2000/svg" xmlns:xlink="http://www.w3.org/1999/xlink" contentStyleType="text/css" data-diagram-type="DESCRIPTION" height="1210px" preserveAspectRatio="none" style="width:1132px;height:1210px;background:#FFFFFF;" version="1.1" viewBox="0 0 1132 1210" width="1132px" zoomAndPan="magnify"><title>Schema Overview</title><defs/><g><text fill="#000000" font-family="sans-serif" font-size="14" font-weight="bold" lengthAdjust="spacing" textLength="126.8066" x="495.8921" y="23.5352">Schema Overview</text><!--cluster Schemas--><g class="cluster" data-entity="Schemas" data-source-line="6" data-uid="ent0002" id="cluster_Schemas"><path d="M367.5,86.7083 L431.0693,86.7083 A3.75,3.75 0 0 1 433.5693,89.2083 L440.5693,109.1966 L847.5,109.1966 A2.5,2.5 0 0 1 850,111.6966 L850,694.3083 A2.5,2.5 0 0 1 847.5,696.8083 L367.5,696.8083 A2.5,2.5 0 0 1 365,694.3083 L365,89.2083 A2.5,2.5 0 0 1 367.5,86.7083" fill="none" style="stroke:#000000;stroke-width:1.5;"/><line style="stroke:#000000;stroke-width:1.5;" x1="365" x2="440.5693" y1="109.1966" y2="109.1966"/><text fill="#000000" font-family="sans-serif" font-size="14" font-weight="bold" lengthAdjust="spacing" textLength="62.5693" x="369" y="102.2434">Schemas</text></g><!--cluster so--><g class="cluster" data-entity="so" data-source-line="12" data-uid="ent0005" id="cluster_so"><path d="M476.5,145.7083 L560.1533,145.7083 A3.75,3.75 0 0 1 562.6533,148.2083 L569.6533,168.1966 L669.5,168.1966 A2.5,2.5 0 0 1 672,170.6966 L672,246.6983 A2.5,2.5 0 0 1 669.5,249.1983 L476.5,249.1983 A2.5,2.5 0 0 1 474,246.6983 L474,148.2083 A2.5,2.5 0 0 1 476.5,145.7083" fill="none" style="stroke:#000000;stroke-width:1.5;"/><line style="stroke:#000000;stroke-width:1.5;" x1="474" x2="569.6533" y1="168.1966" y2="168.1966"/><text fill="#000000" font-family="sans-serif" font-size="14" font-weight="bold" lengthAdjust="spacing" textLength="82.6533" x="478" y="161.2434">Schema.org</text></g><!--cluster Darwin core--><g class="cluster" data-entity="Darwin core" data-source-line="18" data-uid="ent0007" id="cluster_Darwin core"><path d="M399.5,368.0983 L487.5967,368.0983 A3.75,3.75 0 0 1 490.0967,370.5983 L497.0967,390.5866 L524.5,390.5866 A2.5,2.5 0 0 1 527,393.0866 L527,453.0883 A2.5,2.5 0 0 1 524.5,455.5883 L399.5,455.5883 A2.5,2.5 0 0 1 397,453.0883 L397,370.5983 A2.5,2.5 0 0 1 399.5,368.0983" fill="none" style="stroke:#000000;stroke-width:1.5;"/><line style="stroke:#000000;stroke-width:1.5;" x1="397" x2="497.0967" y1="390.5866" y2="390.5866"/><text fill="#000000" font-family="sans-serif" font-size="14" font-weight="bold" lengthAdjust="spacing" textLength="87.0967" x="401" y="383.6334">Darwin core</text></g><!--cluster LDAC--><g class="cluster" data-entity="LDAC" data-source-line="22" data-uid="ent0009" id="cluster_LDAC"><path d="M561.5,351.8483 L602.0254,351.8483 A3.75,3.75 0 0 1 604.5254,354.3483 L611.5254,374.3366 L786.5,374.3366 A2.5,2.5 0 0 1 789,376.8366 L789,469.3283 A2.5,2.5 0 0 1 786.5,471.8283 L561.5,471.8283 A2.5,2.5 0 0 1 559,469.3283 L559,354.3483 A2.5,2.5 0 0 1 561.5,351.8483" fill="none" style="stroke:#000000;stroke-width:1.5;"/><line style="stroke:#000000;stroke-width:1.5;" x1="559" x2="611.5254" y1="374.3366" y2="374.3366"/><text fill="#000000" font-family="sans-serif" font-size="14" font-weight="bold" lengthAdjust="spacing" textLength="39.5254" x="563" y="367.3834">LDAC</text></g><!--cluster Danala--><g class="cluster" data-entity="Danala" data-source-line="26" data-uid="ent0011" id="cluster_Danala"><path d="M475.5,536.8283 L526.04,536.8283 A3.75,3.75 0 0 1 528.54,539.3283 L535.54,559.3166 L719.5,559.3166 A2.5,2.5 0 0 1 722,561.8166 L722,654.3083 A2.5,2.5 0 0 1 719.5,656.8083 L475.5,656.8083 A2.5,2.5 0 0 1 473,654.3083 L473,539.3283 A2.5,2.5 0 0 1 475.5,536.8283" fill="none" style="stroke:#000000;stroke-width:1.5;"/><line style="stroke:#000000;stroke-width:1.5;" x1="473" x2="535.54" y1="559.3166" y2="559.3166"/><text fill="#000000" font-family="sans-serif" font-size="14" font-weight="bold" lengthAdjust="spacing" textLength="49.54" x="477" y="552.3634">Danala</text></g><!--cluster Profiles--><g class="cluster" data-entity="Profiles" data-source-line="52" data-uid="ent0024" id="cluster_Profiles"><path d="M8.5,894.0483 L64.4199,894.0483 A3.75,3.75 0 0 1 66.9199,896.5483 L73.9199,916.5366 L982.5,916.5366 A2.5,2.5 0 0 1 985,919.0366 L985,1201.2683 A2.5,2.5 0 0 1 982.5,1203.7683 L8.5,1203.7683 A2.5,2.5 0 0 1 6,1201.2683 L6,896.5483 A2.5,2.5 0 0 1 8.5,894.0483" fill="none" style="stroke:#000000;stroke-width:1.5;"/><line style="stroke:#000000;stroke-width:1.5;" x1="6" x2="73.9199" y1="916.5366" y2="916.5366"/><text fill="#000000" font-family="sans-serif" font-size="14" font-weight="bold" lengthAdjust="spacing" textLength="54.9199" x="10" y="909.5834">Profiles</text></g><!--cluster ldacap--><g class="cluster" data-entity="ldacap" data-source-line="54" data-uid="ent0025" id="cluster_ldacap"><path d="M676.5,953.0483 L785.4805,953.0483 A3.75,3.75 0 0 1 787.9805,955.5483 L794.9805,975.5366 L934.5,975.5366 A2.5,2.5 0 0 1 937,978.0366 L937,1161.2683 A2.5,2.5 0 0 1 934.5,1163.7683 L676.5,1163.7683 A2.5,2.5 0 0 1 674,1161.2683 L674,955.5483 A2.5,2.5 0 0 1 676.5,953.0483" fill="none" style="stroke:#000000;stroke-width:1.5;"/><line style="stroke:#000000;stroke-width:1.5;" x1="674" x2="794.9805" y1="975.5366" y2="975.5366"/><text fill="#000000" font-family="sans-serif" font-size="14" font-weight="bold" lengthAdjust="spacing" textLength="107.9805" x="678" y="968.5834">LDaCA profiles</text></g><!--cluster ardsp--><g class="cluster" data-entity="ardsp" data-source-line="60" data-uid="ent0029" id="cluster_ardsp"><path d="M242.5,953.0483 L342.792,953.0483 A3.75,3.75 0 0 1 345.292,955.5483 L352.292,975.5366 L631.5,975.5366 A2.5,2.5 0 0 1 634,978.0366 L634,1161.2683 A2.5,2.5 0 0 1 631.5,1163.7683 L242.5,1163.7683 A2.5,2.5 0 0 1 240,1161.2683 L240,955.5483 A2.5,2.5 0 0 1 242.5,953.0483" fill="none" style="stroke:#000000;stroke-width:1.5;"/><line style="stroke:#000000;stroke-width:1.5;" x1="240" x2="352.292" y1="975.5366" y2="975.5366"/><text fill="#000000" font-family="sans-serif" font-size="14" font-weight="bold" lengthAdjust="spacing" textLength="99.292" x="244" y="968.5834">ARDS profiles</text></g><!--entity general--><g class="entity" data-entity="general" data-source-line="9" data-uid="ent0003" id="entity_general"><rect fill="#F1F1F1" height="36.4883" rx="2.5" ry="2.5" style="stroke:#181818;stroke-width:0.5;" width="71.9121" x="735.04" y="188.7083"/><text fill="#000000" font-family="sans-serif" font-size="14" lengthAdjust="spacing" textLength="51.9121" x="745.04" y="212.2434">General</text></g><!--entity specific--><g class="entity" data-entity="specific" data-source-line="10" data-uid="ent0004" id="entity_specific"><rect fill="#F1F1F1" height="36.4883" rx="2.5" ry="2.5" style="stroke:#181818;stroke-width:0.5;" width="71.7344" x="746.13" y="588.0683"/><text fill="#000000" font-family="sans-serif" font-size="14" lengthAdjust="spacing" textLength="51.7344" x="756.13" y="611.6034">Specific</text></g><!--entity gp--><g class="entity" data-entity="gp" data-source-line="13" data-uid="ent0006" id="entity_gp"><rect fill="#F1F1F1" height="36.4883" rx="2.5" ry="2.5" style="stroke:#181818;stroke-width:0.5;" width="130.8447" x="497.58" y="188.7083"/><text fill="#000000" font-family="sans-serif" font-size="14" lengthAdjust="spacing" textLength="110.8447" x="507.58" y="212.2434">General Purpose</text></g><!--entity biodiversity--><g class="entity" data-entity="biodiversity" data-source-line="19" data-uid="ent0008" id="entity_biodiversity"><rect fill="#F1F1F1" height="36.4883" rx="2.5" ry="2.5" style="stroke:#181818;stroke-width:0.5;" width="98.0664" x="412.97" y="403.0983"/><text fill="#000000" font-family="sans-serif" font-size="14" lengthAdjust="spacing" textLength="78.0664" x="422.97" y="426.6334">Biodiversity</text></g><!--entity lang_coll--><g class="entity" data-entity="lang_coll" data-source-line="23" data-uid="ent0010" id="entity_lang_coll"><rect fill="#F1F1F1" height="52.9766" rx="2.5" ry="2.5" style="stroke:#181818;stroke-width:0.5;" width="162.5361" x="582.73" y="394.8483"/><text fill="#000000" font-family="sans-serif" font-size="14" lengthAdjust="spacing" textLength="142.5361" x="592.73" y="418.3834">Language collections</text><text fill="#000000" font-family="sans-serif" font-size="14" lengthAdjust="spacing" textLength="113.2305" x="592.73" y="434.8717">(based on OLAC)</text></g><!--entity clan_kinship--><g class="entity" data-entity="clan_kinship" data-source-line="27" data-uid="ent0012" id="entity_clan_kinship"><rect fill="#F1F1F1" height="52.9766" rx="2.5" ry="2.5" style="stroke:#181818;stroke-width:0.5;" width="181.6973" x="516.15" y="579.8283"/><text fill="#000000" font-family="sans-serif" font-size="14" lengthAdjust="spacing" textLength="98.376" x="526.15" y="603.3634">Clan kinship &amp;</text><text fill="#000000" font-family="sans-serif" font-size="14" lengthAdjust="spacing" textLength="161.6973" x="526.15" y="619.8517">Place-specific metadata</text></g><!--entity LDaCA--><g class="entity" data-entity="LDaCA" data-source-line="55" data-uid="ent0026" id="entity_LDaCA"><rect fill="#F1F1F1" height="36.4883" rx="2.5" ry="2.5" style="stroke:#181818;stroke-width:0.5;" width="65.0283" x="698.49" y="996.0483"/><text fill="#000000" font-family="sans-serif" font-size="14" lengthAdjust="spacing" textLength="45.0283" x="708.49" y="1019.5834">LDaCA</text></g><!--entity PARADISEC--><g class="entity" data-entity="PARADISEC" data-source-line="56" data-uid="ent0027" id="entity_PARADISEC"><rect fill="#F1F1F1" height="36.4883" rx="2.5" ry="2.5" style="stroke:#181818;stroke-width:0.5;" width="95.2432" x="798.38" y="996.0483"/><text fill="#000000" font-family="sans-serif" font-size="14" lengthAdjust="spacing" textLength="75.2432" x="808.38" y="1019.5834">PARADISEC</text></g><!--entity Nyingarn--><g class="entity" data-entity="Nyingarn" data-source-line="57" data-uid="ent0028" id="entity_Nyingarn"><rect fill="#F1F1F1" height="36.4883" rx="2.5" ry="2.5" style="stroke:#181818;stroke-width:0.5;" width="81.2705" x="698.36" y="1103.2783"/><text fill="#000000" font-family="sans-serif" font-size="14" lengthAdjust="spacing" textLength="61.2705" x="708.36" y="1126.8134">Nyingarn</text></g><!--entity ARDS Language Collection--><g class="entity" data-entity="ARDS Language Collection" data-source-line="61" data-uid="ent0030" id="entity_ARDS Language Collection"><rect fill="#F1F1F1" height="36.4883" rx="2.5" ry="2.5" style="stroke:#181818;stroke-width:0.5;" width="198.8828" x="263.56" y="996.0483"/><text fill="#000000" font-family="sans-serif" font-size="14" lengthAdjust="spacing" textLength="178.8828" x="273.56" y="1019.5834">ARDS Language Collection</text></g><!--entity ARDS legal--><g class="entity" data-entity="ARDS legal" data-source-line="62" data-uid="ent0031" id="entity_ARDS legal"><rect fill="#F1F1F1" height="36.4883" rx="2.5" ry="2.5" style="stroke:#181818;stroke-width:0.5;" width="93.3223" x="497.34" y="996.0483"/><text fill="#000000" font-family="sans-serif" font-size="14" lengthAdjust="spacing" textLength="73.3223" x="507.34" y="1019.5834">ARDS legal</text></g><!--entity ARDS Radio--><g class="entity" data-entity="ARDS Radio" data-source-line="63" data-uid="ent0032" id="entity_ARDS Radio"><rect fill="#F1F1F1" height="36.4883" rx="2.5" ry="2.5" style="stroke:#181818;stroke-width:0.5;" width="99.0098" x="313.5" y="1103.2783"/><text fill="#000000" font-family="sans-serif" font-size="14" lengthAdjust="spacing" textLength="79.0098" x="323.5" y="1126.8134">ARDS Radio</text></g><!--entity callp--><g class="entity" data-entity="callp" data-source-line="65" data-uid="ent0033" id="entity_callp"><path d="M32.88,986.3083 L79.9435,986.3083 A3.75,3.75 0 0 1 82.4435,988.8083 L89.4435,1008.7966 L213.1173,1008.7966 A2.5,2.5 0 0 1 215.6173,1011.2966 L215.6173,1039.7848 A2.5,2.5 0 0 1 213.1173,1042.2848 L32.88,1042.2848 A2.5,2.5 0 0 1 30.38,1039.7848 L30.38,988.8083 A2.5,2.5 0 0 1 32.88,986.3083" fill="#F1F1F1" style="stroke:#181818;stroke-width:0.5;"/><line style="stroke:#181818;stroke-width:0.5;" x1="30.38" x2="89.4435" y1="1008.7966" y2="1008.7966"/><text fill="#000000" font-family="sans-serif" font-size="14" font-weight="bold" lengthAdjust="spacing" textLength="34.0635" x="40.38" y="1002.8434">callp</text><text fill="#000000" font-family="sans-serif" font-size="14" lengthAdjust="spacing" textLength="155.2373" x="40.38" y="1029.3317">CALL Collection profile</text></g><g class="entity" data-entity="GMN18" data-source-line="35" data-uid="ent0019" id="entity_GMN18"><path d="M28.71,133.0583 L28.71,280.8532 L341.2832,280.8532 L341.2832,143.0583 L331.2832,133.0583 L28.71,133.0583" fill="#FEFFDD" style="stroke:#181818;stroke-width:0.5;"/><path d="M331.2832,133.0583 L331.2832,143.0583 L341.2832,143.0583 L331.2832,133.0583" fill="#FEFFDD" style="stroke:#181818;stroke-width:1;"/><text fill="#000000" font-family="sans-serif" font-size="13" lengthAdjust="spacing" textLength="57.3701" x="34.71" y="150.6266">Used for:</text><text fill="#000000" font-family="sans-serif" font-size="13" lengthAdjust="spacing" textLength="108.2466" x="34.71" y="165.9372">- Documentation</text><text fill="#000000" font-family="sans-serif" font-size="13" lengthAdjust="spacing" textLength="291.5732" x="34.71" y="181.2477">- Source of terms for specialization in profiles</text><text fill="#000000" font-family="sans-serif" font-size="13" lengthAdjust="spacing" textLength="4.1133" x="34.71" y="196.5583">&#160;</text><text fill="#000000" font-family="sans-serif" font-size="13" lengthAdjust="spacing" textLength="116.8223" x="34.71" y="211.8688">Defines re-usable:</text><text fill="#000000" font-family="sans-serif" font-size="13" lengthAdjust="spacing" textLength="58.6904" x="34.71" y="227.1794">- Classes</text><text fill="#000000" font-family="sans-serif" font-size="13" lengthAdjust="spacing" textLength="75.3594" x="34.71" y="242.4899">- Properties</text><text fill="#000000" font-family="sans-serif" font-size="13" lengthAdjust="spacing" textLength="104.3047" x="34.71" y="257.8005">- Defined Terms</text><text fill="#000000" font-family="sans-serif" font-size="13" lengthAdjust="spacing" textLength="4.1133" x="34.71" y="273.111">&#160;</text></g><g class="entity" data-entity="GMN34" data-source-line="70" data-uid="ent0035" id="entity_GMN34"><path d="M924.4,767.8083 L924.4,839.0505 L1125.5909,839.0505 L1125.5909,777.8083 L1115.5909,767.8083 L924.4,767.8083" fill="#FEFFDD" style="stroke:#181818;stroke-width:0.5;"/><path d="M1115.5909,767.8083 L1115.5909,777.8083 L1125.5909,777.8083 L1115.5909,767.8083" fill="#FEFFDD" style="stroke:#181818;stroke-width:1;"/><text fill="#000000" font-family="sans-serif" font-size="13" lengthAdjust="spacing" textLength="57.3701" x="930.4" y="785.3766">Used for:</text><text fill="#000000" font-family="sans-serif" font-size="13" lengthAdjust="spacing" textLength="172.8276" x="930.4" y="800.6872">- Editing tool configuration</text><text fill="#000000" font-family="sans-serif" font-size="13" lengthAdjust="spacing" textLength="74.8643" x="930.4" y="815.9977">- Validation</text><text fill="#000000" font-family="sans-serif" font-size="13" lengthAdjust="spacing" textLength="180.1909" x="930.4" y="831.3083">- Documentation generation</text></g><!--link general to specific--><g class="link" data-entity-1="general" data-entity-2="specific" data-source-line="29" data-uid="lnk13" id="link_general_specific"><path d="M777.2526,231.3871 C783.5926,255.8971 792.99,295.9483 797,335.8483 C803.76,403.0583 801.29,420.4183 797,487.8283 C794.73,523.5383 789.5749,559.0548 785.8849,581.9448" fill="none" id="general-specific" style="stroke:#181818;stroke-width:1;"/><polygon fill="#181818" points="775.75,225.5783,774.1313,235.2932,777.0021,230.419,781.8764,233.2898,775.75,225.5783" style="stroke:#181818;stroke-width:1;"/><polygon fill="#181818" points="784.93,587.8683,790.3114,579.6196,785.7258,582.932,782.4133,578.3464,784.93,587.8683" style="stroke:#181818;stroke-width:1;"/></g><!--reverse link so to LDAC--><g class="link" data-entity-1="so" data-entity-2="LDAC" data-source-line="32" data-uid="lnk15" id="link_so_LDAC"><path d="M663.9009,255.4639 C664.0338,257.449 663.9229,254.9505 664.1109,256.9652 C664.8631,265.0239 666.085,273.2283 668,280.8483 C673.62,303.2183 671.26,314.3983 690,327.8483 C715.8,346.3683 737.24,314.7883 761,335.8483 C764.4963,338.9483 767.4391,342.5364 769.9112,346.449 C770.5292,347.4271 771.1178,348.4256 771.6783,349.4417 C771.9586,349.9498 772.2318,350.4623 772.4981,350.9789 C772.6313,351.2372 772.7628,373.9848 772.8925,374.2451" fill="none" id="so-backto-LDAC" style="stroke:#181818;stroke-width:1;"/><polygon fill="#181818" points="663.5365,249.475,660.0905,258.7013,663.8402,254.4658,668.0758,258.2155,663.5365,249.475" style="stroke:#181818;stroke-width:1;"/><text fill="#000000" font-family="sans-serif" font-size="13" lengthAdjust="spacing" textLength="50.0005" x="691" y="324.4166">Extends</text></g><!--reverse link LDAC to Danala--><g class="link" data-entity-1="LDAC" data-entity-2="Danala" data-source-line="33" data-uid="lnk17" id="link_LDAC_Danala"><path d="M770.3885,477.5093 C769.9801,478.3372 771.8408,474.3655 771.3934,475.1699 C770.4987,476.7788 769.5241,478.3366 768.4629,479.8269 C766.3405,482.8075 763.8713,485.5183 761,487.8283 C752.4,494.7483 672.96,494.5383 662,495.8283 C589.64,504.3283 553.24,471.0983 500,520.8283 C496.5938,524.0095 493.7339,527.6592 491.3381,531.6172 C490.7391,532.6068 490.1691,533.6155 489.6269,534.6411 C489.3558,535.1539 489.0916,535.6708 488.8342,536.1917 C488.7698,536.3219 488.7059,536.4523 488.6423,536.583" fill="none" id="LDAC-backto-Danala" style="stroke:#181818;stroke-width:1;"/><polygon fill="#181818" points="772.9792,472.0974,765.4852,478.488,770.8203,476.6073,772.701,481.9423,772.9792,472.0974" style="stroke:#181818;stroke-width:1;"/><text fill="#000000" font-family="sans-serif" font-size="13" lengthAdjust="spacing" textLength="50.0005" x="663" y="509.3966">Extends</text></g><!--link GMN18 to Schemas--><g class="link" data-entity-1="GMN18" data-entity-2="Schemas" data-source-line="35" data-uid="lnk20" id="link_GMN18_Schemas"><path d="M306.53,132.7483 C363.04,102.4583 432.45,70.9983 499.5,55.7083 C533.84,47.8783 783.47,43.4883 816.5,55.7083 C846.97,66.9783 854.19,101.8558 853.4,135.2808 C853.2025,143.637 852.5044,151.9025 851.5438,159.6856 C851.3036,161.6314 851.047,163.547 850.7778,165.4264 C850.6432,166.3661 850.5054,167.2967 850.3649,168.2175 C850.2946,168.6779 850.2237,169.1358 850.1521,169.5912 C850.1164,169.8189 850.0804,170.046 850.0444,170.2724" fill="none" id="GMN18-Schemas" style="stroke:#181818;stroke-width:1;stroke-dasharray:7.0,7.0;"/></g><!--link so to biodiversity--><!--link so to lang_coll--><!--link lang_coll to clan_kinship--><!--link GMN34 to Profiles--><g class="link" data-entity-1="GMN34" data-entity-2="Profiles" data-source-line="70" data-uid="lnk36" id="link_GMN34_Profiles"><path d="M1016.97,839.3883 C1010.24,868.6533 1000.4525,911.2383 992.2475,946.942 C990.1963,955.868 988.2439,964.3638 986.463,972.114 C986.0177,974.0515 985.5832,975.9424 985.1605,977.7818 C985.1077,978.0117 985.0551,978.2409 985.0026,978.4692" fill="none" id="GMN34-Profiles" style="stroke:#181818;stroke-width:1;stroke-dasharray:7.0,7.0;"/></g><!--reverse link LDAC to ldacap--><g class="link" data-entity-1="LDAC" data-entity-2="ldacap" data-source-line="76" data-uid="lnk38" id="link_LDAC_ldacap"><path d="M792.2531,439.548 C792.7603,440.3419 790.4262,436.7043 790.9672,437.5598 C792.0493,439.2709 793.196,441.1022 794.3952,443.041 C796.7937,446.9186 799.4022,451.2264 802.1238,455.8633 C813.01,474.4108 825.705,498.2233 834,520.8283 C889.91,673.2083 881.8,718.1983 910,878.0483 C912.595,892.7583 915.0638,908.4189 917.3111,923.6714 C918.4348,931.2977 919.5031,938.8219 920.5042,946.0742 C920.7544,947.8873 921.0005,949.6834 921.2422,951.4598 C921.3026,951.904 921.3627,974.8351 921.4226,975.2767" fill="none" id="LDAC-backto-ldacap" style="stroke:#181818;stroke-width:1;"/><polygon fill="#181818" points="789.017,434.4955,790.5028,444.2317,791.7138,438.7059,797.2395,439.9169,789.017,434.4955" style="stroke:#181818;stroke-width:1;"/><text fill="#000000" font-family="sans-serif" font-size="13" lengthAdjust="spacing" textLength="68.0342" x="889.65" y="734.3766">Specialises</text></g><!--link ardsp to Danala--><g class="link" data-entity-1="ardsp" data-entity-2="Danala" data-source-line="77" data-uid="lnk39" id="link_ardsp_Danala"><path d="M623.1467,975.3601 C622.9445,973.573 622.4356,946.6128 622.2077,944.7937 C621.296,937.5171 620.1727,930.0079 618.7902,922.4522 C616.025,907.3408 612.2225,892.0433 607,878.0483 C576.42,796.0783 532.16,794.1683 500,712.8083 C495.69,701.9058 492.3506,689.9808 489.7652,678.1967 C488.4724,672.3047 487.3682,666.4479 486.4253,660.7718 C486.3074,660.0622 486.1921,659.3555 486.0792,658.652 C486.0228,658.3002 485.967,657.9492 485.9118,657.5989 C485.8842,657.4238 486.7831,663.177 486.7558,663.0023" fill="none" id="ardsp-to-Danala" style="stroke:#181818;stroke-width:1;"/><polygon fill="#181818" points="485.8294,657.0743,483.2669,666.5839,486.6014,662.0143,491.171,665.3488,485.8294,657.0743" style="stroke:#181818;stroke-width:1;"/><text fill="#000000" font-family="sans-serif" font-size="13" lengthAdjust="spacing" textLength="68.0342" x="589.09" y="808.4966">Specialises</text></g><!--reverse link Danala to callp--><g class="link" data-entity-1="Danala" data-entity-2="callp" data-source-line="78" data-uid="lnk41" id="link_Danala_callp"><path d="M468.9754,620.9452 C468.5836,621.3896 471.5691,618.0039 471.1527,618.4761 C470.3197,619.4207 469.438,620.4206 468.5091,621.474 C461.0779,629.9014 450.6265,641.7538 437.9667,656.1106 C412.6472,684.8242 378.4944,723.5552 342.0038,764.937 C269.0225,847.7008 186.69,963.5566 146.97,1008.5966" fill="none" id="Danala-backto-callp" style="stroke:#181818;stroke-width:1;"/><polygon fill="#181818" points="472.9438,616.4449,463.9911,620.5498,469.6368,620.1952,469.9915,625.8409,472.9438,616.4449" style="stroke:#181818;stroke-width:1;"/><text fill="#000000" font-family="sans-serif" font-size="13" lengthAdjust="spacing" textLength="68.0342" x="340.05" y="808.4966">Specialises</text></g><!--SRC=[RLHTQzim57tNhxZuOMmFtWyeO-3PfGp26f9jB-iejzQrAwf8HfARTQF_VLUIdSHDGa8idQDpluuSLD04s_QHTWYtp-IU5Ur5_0pOFc5FK6JG5_1F203-Ece3cfxF5JTaoA4k03tq-Nb9s0xKgawrYU6dHTHv8__HkZvpBCS1k1G5rgCRhASSRH2lYpGRT7jbeBMEYYHn8l15MQcuEA_2IphzSB8HTGuggwQgpuwl-7-CS6krvcrbZRypxn_GamHhu7PLrH-IhcRcVMGjH1iqgF5CjcOsF2dZ7zK0x-xCMcDBvTmas550YG6JSClS-udBsZ1t6pwLPVdvs5aE6qk0SXpYjeKhkFuJo4WlSXOJaaX7pDX0eAaBOBl93Hx4ZrXVPzsLAA6nxRWZ4p1Mp-kj7LrBaHx8xNoavInGgx-913oDmTbEQV92DDGfGvxhBqUF3vgYA7V0UqPBM3ixa0igBJ9NmlUeB0Hd23518RYUKjgz-VMef2JpcmjPJF82Vfp8uUcCisZkgQVMK_fvTAUkNJLOLuVoykmbjZYSkpTHYxUxwsfJDL-tr_KPykr5cHwTIG3_Na_YGb5jckqoBZhfBuHDn8DpwuDpYuj4JJrVuulG1gMonPj4YhfQhKvKvvIoML7h8RykNjcHoLp13j4iSqUNvhgMAd3HJBAQBvdfL3-wsMa_sL5oNYniE5s211rDCisXZ4QVdSvMtqxcZ7xBBOleT2cMSCv_5hX8-Gy0]--></g></svg>