<?xml version="1.0" encoding="us-ascii" standalone="no"?><svg xmlns="http://www.w3.org/2000/svg" xmlns:xlink="http://www.w3.org/1999/xlink" contentStyleType="text/css" height="446px" preserveAspectRatio="none" style="width:836px;height:446px;background:#FFFFFF;" version="1.1" viewBox="0 0 836 446" width="836px" zoomAndPan="magnify"><defs/><g><text fill="#000000" font-family="Chalkduster" font-size="42" font-weight="bold" lengthAdjust="spacing" textLength="384" x="219.25" y="51.7215">Person Snapshot</text><!--entity let1--><g id="elem_let1"><polygon fill="none" points="412.5,343.7022,412.5,343.9124,422.6667,343.2879,432.8333,343.8955,443,344.1019,453.1667,342.9888,463.3333,343.6245,473.5,343.2757,483.6667,343.3187,493.8333,343.6341,504,343.0108,514.1667,344.2559,524.3333,343.0719,534.5,343.7022,534.4748,343.6413,534.9087,343.9817,535.1962,343.9687,535.5694,344.1626,535.9101,344.2782,536.2678,344.4344,536.3227,344.4572,536.4879,344.8185,536.741,345.2163,536.9138,345.5807,537.0627,345.9353,537,346.2022,537.2546,346.2022,537.4636,355.3282,537.7022,364.4541,536.2788,373.5801,537.6785,382.7061,537,391.832,536.9087,391.7942,537.0179,392.2537,536.5547,392.476,536.5396,392.884,536.6426,393.3409,536.2678,393.5998,536.2616,393.5848,535.9276,393.7787,535.6039,393.997,535.2602,394.1673,534.8531,394.1844,534.5,394.332,534.5,394.6193,524.3333,393.7596,514.1667,394.6164,504,394.8802,493.8333,394.7766,483.6667,394.9451,473.5,393.849,463.3333,393.6799,453.1667,393.7106,443,394.2732,432.8333,394.1355,422.6667,395.0135,412.5,394.332,412.4777,394.2783,412.1027,394.08,411.822,394.1094,411.3543,393.6873,411.0196,393.5864,410.7322,393.5998,410.9321,393.6826,410.72,393.3018,410.6655,392.9864,410.1938,392.4981,410.2447,392.2263,410,391.832,410.5904,391.832,409.5276,382.7061,409.9041,373.5801,410.126,364.4541,410.6518,355.3282,410,346.2022,409.9987,346.2017,410.2889,345.9077,410.1223,345.4245,410.2308,345.0552,410.7409,344.8522,410.7322,344.4344,410.6408,344.2137,411.1507,344.4447,411.4657,344.2052,411.7587,343.9126,412.1013,343.7397,412.5,343.7022" style="stroke:#181818;stroke-width:4.0;"/><text fill="#000000" font-family="Chalkduster" font-size="24" lengthAdjust="spacing" textLength="107" x="420" y="377.5431">Letter 1</text></g><!--entity let2--><g id="elem_let2"><polygon fill="none" points="308,343.7022,308,343.9124,317.2857,343.2879,326.5714,343.8955,335.8571,344.1019,345.1429,342.9888,354.4286,343.6245,363.7143,343.2757,373,343.7022,372.9511,343.5841,373.3449,343.8277,373.6189,343.7822,374.1313,344.3121,374.3338,344.0939,374.7678,344.4344,374.7069,344.4092,375.0472,344.8431,375.0342,345.1306,375.2281,345.5038,375.3437,345.8446,375.5,346.2022,375.6785,346.2022,375.7391,355.3282,376.0857,364.4541,376.1711,373.5801,376.1793,382.7061,375.5,391.832,375.5784,391.8645,375.4963,392.2447,375.4234,392.6287,374.8386,392.8007,375.1232,393.3328,374.7678,393.5998,374.7299,393.5085,374.4823,393.9107,373.9975,393.7403,373.6984,394.0181,373.4482,394.414,373,394.332,373,394.2833,363.7143,394.4373,354.4286,394.6707,345.1429,394.7483,335.8571,394.3281,326.5714,394.6193,317.2857,393.7596,308,394.332,308.0363,394.4196,307.7164,394.3544,307.3496,394.176,307.0175,394.0815,306.5242,393.5975,306.2322,393.5998,306.0314,393.5166,305.8944,393.167,305.9212,392.8852,305.7324,392.5141,305.8563,392.2725,305.5,391.832,305.3253,391.832,305.1569,382.7061,305.7283,373.5801,304.8332,364.4541,304.9809,355.3282,305.5,346.2022,305.6999,346.285,305.7806,345.9042,306.0191,345.5888,305.8402,345.1005,306.1841,344.8287,306.2322,344.4344,306.3075,344.6163,306.5255,344.1425,306.9271,344.112,307.309,344.0339,307.7296,344.0494,308,343.7022" style="stroke:#181818;stroke-width:4.0;"/><text fill="#000000" font-family="Chalkduster" font-size="24" lengthAdjust="spacing" textLength="50" x="315.5" y="377.5431">let2</text></g><!--entity m1--><g id="elem_m1"><polygon fill="#F1F1F1" points="777.7239,329.3793,774.0468,334.4036,769.6976,341.7625,763.4774,346.7218,756.941,349.4338,751.7292,349.6692,745.0307,346.2775,738.7103,344.0617,733.913,339.5629,731.3965,334.4126,729.9042,330.3118,728.4422,324.9553,726.0691,320.3459,727.8927,315.8455,729.4904,310.9156,735.486,307.0165,739.7041,301.9575,744.9251,300.2776,751.132,298.8309,759.0915,299.6904,763.4511,301.7464,768.5197,302.6784,774.6827,308.9925,776.8311,315.6583,777.7645,320.2065,776.7073,327.7014" style="stroke:#181818;stroke-width:0.5;"/><polygon fill="#F1F1F1" points="699.5853,348.3629,699.5853,348.5731,709.2062,347.9486,718.827,348.5562,728.4479,348.7626,738.0687,347.6495,747.6896,348.2852,757.3104,347.9364,766.9313,347.9794,776.5521,348.2947,786.173,347.6715,795.7938,348.9165,805.4147,348.3629,805.3343,348.1688,808.937,349.7715,812.565,351.4348,816.0465,352.7449,819.6138,354.2618,823.1527,355.7102,823.1428,355.7061,824.6771,359.2806,826.1652,362.8359,827.7414,366.4277,829.2372,369.9862,830.5,373.4482,830.7264,373.4482,830.5849,381.708,830.6545,389.9678,830.7341,398.2276,830.2596,406.4874,830.5,414.7472,830.709,414.8337,828.9392,418.2569,827.7255,421.9105,825.9392,425.3268,824.601,428.9288,823.1527,432.4852,823.2473,432.7136,819.5989,433.9396,816.0709,435.4565,812.5531,436.9979,809.0154,438.4912,805.4147,439.8325,805.4147,439.8286,795.7938,440.1197,786.173,439.2601,776.5521,440.1169,766.9313,440.3807,757.3104,440.277,747.6896,440.4455,738.0687,439.3494,728.4479,439.1803,718.827,439.2111,709.2062,439.7736,699.5853,439.8325,699.5603,439.772,696.1247,438.5729,692.4679,436.8398,688.8988,435.3185,685.424,434.0249,681.8473,432.4852,681.642,432.4001,680.218,428.8714,679.1082,425.4728,677.5731,421.8979,676.1957,418.3885,674.5,414.7472,674.3927,414.7472,674.6064,406.4874,674.6968,398.2276,674.3425,389.9678,674.468,381.708,674.5,373.4482,674.5388,373.4643,676.1702,369.9838,677.4376,366.3525,679.0508,362.8644,680.2073,359.1872,681.8473,355.7102,681.7609,355.5017,685.4592,354.3958,688.8511,352.5505,692.5551,351.4586,696.0641,349.896,699.5853,348.3629" style="stroke:#181818;stroke-width:0.5;"/><text fill="#000000" font-family="Chalkduster" font-size="14" lengthAdjust="spacing" textLength="136" x="684.5" y="372.2701">Mary Reiby at 20</text><text fill="#000000" font-family="Chalkduster" font-size="14" lengthAdjust="spacing" textLength="110" x="684.5" y="390.1375">@type: Person</text><text fill="#000000" font-family="Chalkduster" font-size="14" lengthAdjust="spacing" textLength="59" x="684.5" y="408.0049">age: 20</text><text fill="#000000" font-family="Chalkduster" font-size="14" lengthAdjust="spacing" textLength="126" x="684.5" y="425.8723">isInstance: true</text></g><!--entity m2--><g id="elem_m2"><polygon fill="#F1F1F1" points="113.125,329.4751,109.3894,334.5793,104.971,342.0552,98.6519,347.0934,92.0116,349.8485,86.717,350.0877,79.912,346.642,73.491,344.391,68.6175,339.8207,66.061,334.5885,64.5449,330.4225,63.0597,324.9808,60.6489,320.2982,62.5015,315.7261,64.1245,310.7178,70.2155,306.7568,74.5007,301.6174,79.8047,299.9107,86.1102,298.441,94.1963,299.3142,98.6252,301.4029,103.7744,302.3497,110.0354,308.7643,112.2179,315.536,113.1662,320.1566,112.0921,327.7706" style="stroke:#181818;stroke-width:0.5;"/><polygon fill="#F1F1F1" points="32.4842,348.7606,32.4842,348.9708,42.4871,348.3462,52.4899,348.9539,62.4928,349.1602,72.4957,348.0472,82.4986,348.6829,92.5014,348.3341,102.5043,348.3771,112.5072,348.6924,122.5101,348.0692,132.5129,349.3142,142.5158,348.7606,142.4354,348.5665,146.0946,350.1925,149.7789,351.8792,153.3169,353.2126,156.9406,354.7529,160.5359,356.2247,160.526,356.2206,162.0837,359.8515,163.5952,363.4632,165.1947,367.1114,166.7138,370.7263,168,374.2447,168.2264,374.2447,168.0849,382.345,168.1545,390.4453,168.2341,398.5455,167.7596,406.6458,168,414.746,168.209,414.8326,166.4159,418.3122,165.1787,422.0221,163.3691,425.4949,162.0076,429.1533,160.5359,432.766,160.6305,432.9944,156.9256,434.2439,153.3413,435.7841,149.767,437.3488,146.1729,438.8655,142.5158,440.2302,142.5158,440.2263,132.5129,440.5174,122.5101,439.6578,112.5072,440.5146,102.5043,440.7784,92.5014,440.6747,82.4986,440.8432,72.4957,439.7471,62.4928,439.578,52.4899,439.6088,42.4871,440.1713,32.4842,440.2302,32.4591,440.1697,28.9671,438.9472,25.2539,437.1907,21.6284,435.646,18.0973,434.3292,14.4641,432.766,14.2588,432.681,12.8114,429.0958,11.6783,425.6408,10.1198,422.0096,8.719,418.4437,7,414.746,6.8927,414.746,7.1064,406.6458,7.1968,398.5455,6.8425,390.4453,6.968,382.345,7,374.2447,7.0388,374.2608,8.6935,370.7239,9.9844,367.0362,11.6209,363.4917,12.8008,359.7581,14.4641,356.2247,14.3778,356.0161,18.1324,354.887,21.5807,353.0183,25.3411,351.903,28.9065,350.317,32.4842,348.7606" style="stroke:#181818;stroke-width:0.5;"/><text fill="#000000" font-family="Chalkduster" font-size="14" lengthAdjust="spacing" textLength="141" x="17" y="372.6678">Mary Reiby at 40</text><text fill="#000000" font-family="Chalkduster" font-size="14" lengthAdjust="spacing" textLength="110" x="17" y="390.5352">@type: Person</text><text fill="#000000" font-family="Chalkduster" font-size="14" lengthAdjust="spacing" textLength="64" x="17" y="408.4026">age: 40</text><text fill="#000000" font-family="Chalkduster" font-size="14" lengthAdjust="spacing" textLength="126" x="17" y="426.27">isInstance: true</text></g><!--entity m--><g id="elem_m"><polygon fill="#F1F1F1" points="445.4379,112.672,441.6567,117.8385,437.1844,125.4057,430.7881,130.5054,424.0667,133.2942,418.7074,133.5362,411.8193,130.0485,405.32,127.77,400.3869,123.1439,397.7992,117.8478,396.2646,113.6309,394.7613,108.1228,392.321,103.383,394.1962,98.7551,395.8391,93.6857,402.0044,89.6763,406.3419,84.4741,411.7107,82.7466,418.0933,81.2589,426.2781,82.1428,430.761,84.257,435.9732,85.2153,442.3106,91.7082,444.5198,98.5627,445.4796,103.2396,444.3924,110.9466" style="stroke:#181818;stroke-width:0.5;"/><polygon fill="#F1F1F1" points="342.7954,132.1929,342.7954,132.4031,353.0226,131.7786,363.2499,132.3862,373.4772,132.5926,383.7045,131.4795,393.9318,132.1152,404.1591,131.7664,414.3864,131.8094,424.6136,132.1248,434.8409,131.5016,445.0682,132.7466,455.2955,131.5627,465.5228,131.9952,475.7501,132.6249,485.9774,132.1072,496.2046,132.1929,496.2133,132.214,499.8486,133.6942,503.5234,135.27,507.1792,136.7998,510.8714,138.4175,514.4447,139.7482,514.6514,139.8338,516.165,143.4829,517.5452,147.0767,519.1207,150.7514,520.7052,154.4299,522,157.9883,521.7596,157.9883,522.2262,162.3906,521.9012,166.7929,522.1779,171.1952,521.835,175.5975,522,179.9998,521.9789,179.991,520.7173,183.7424,518.9629,187.2896,517.4993,190.9573,516.0601,194.635,514.4447,198.2399,514.4978,198.368,510.7962,199.7497,507.1853,201.3504,503.4276,202.5968,499.8889,204.3717,496.2046,205.7951,496.2046,206.3433,485.9774,206.2397,475.7501,206.4082,465.5228,205.3121,455.2955,205.143,445.0682,205.1737,434.8409,205.7363,424.6136,205.5986,414.3864,206.4766,404.1591,205.6205,393.9318,205.4521,383.7045,206.0234,373.4772,205.1283,363.2499,205.276,353.0226,206.4441,342.7954,205.7951,342.8509,205.9293,339.241,204.5103,335.4583,202.6739,331.892,201.3603,328.2786,199.9327,324.5553,198.2399,324.4098,198.1796,323.0147,194.5796,321.572,190.9599,320.2228,187.379,318.5098,183.6473,317,179.9998,317.1542,179.9998,316.8154,175.5975,316.7742,171.1952,317.1679,166.7929,316.761,162.3906,317,157.9883,317.1567,158.0532,318.5747,154.3666,319.9396,150.6581,321.4242,146.9991,323.1855,143.4548,324.5553,139.7482,324.5171,139.656,328.2788,138.4194,331.7808,136.5559,335.5781,135.4052,339.2091,133.8531,342.7954,132.1929" style="stroke:#181818;stroke-width:0.5;"/><text fill="#000000" font-family="Chalkduster" font-size="14" lengthAdjust="spacing" textLength="178" x="327" y="156.1001">Canonical Mary Reiby</text><text fill="#000000" font-family="Chalkduster" font-size="14" lengthAdjust="spacing" textLength="110" x="327" y="173.9675">@type: Person</text><text fill="#000000" font-family="Chalkduster" font-size="14" lengthAdjust="spacing" textLength="185" x="327" y="191.8349">dateOfBirth: 1777-05-12</text></g><!--reverse link let1 to m1--><g id="link_let1_m1"><path d="M542.96,369.0122 L542.96,369.2925 L553.0531,368.4598 L563.1462,369.2699 L573.2392,369.5451 L583.3323,368.061 L593.4254,368.9086 L603.5185,368.4436 L613.6115,368.5009 L623.7046,368.9213 L633.7977,368.0904 L643.8908,369.7504 L653.9838,368.1718 L664.0769,368.7485 L674.17,369.0122 " fill="none" style="stroke:#8B0000;stroke-width:4.0;"/><polygon fill="#8B0000" points="538.16,369.0122,538.1885,369.0762,539.9039,369.686,541.7862,370.6711,543.6141,371.534,545.2634,371.9949,547.16,373.0122,547.1417,372.9939,546.2595,372.1117,545.4696,371.3218,544.7439,370.5961,543.797,369.6493,543.16,369.0122,543.2905,369.1427,543.8114,368.0637,544.7134,367.3656,545.6618,366.714,546.3398,365.792,547.16,365.0122,547.1692,365.033,545.3557,365.8025,543.5842,366.6666,541.7924,367.4851,540.0393,368.3906,538.16,369.0122" style="stroke:#8B0000;stroke-width:4.0;"/><text fill="#000000" font-family="Chalkduster" font-size="24" lengthAdjust="spacing" textLength="101" x="555.25" y="358.8531">creator</text></g><!--link m2 to let2--><g id="link_m2_let2"><path d="M168.25,369.0122 L168.25,369.2925 L178.3246,368.4598 L188.3992,369.2699 L198.4738,369.5451 L208.5485,368.061 L218.6231,368.9086 L228.6977,368.4436 L238.7723,368.5009 L248.8469,368.9213 L258.9215,368.0904 L268.9962,369.7504 L279.0708,368.1718 L289.1454,368.7485 L299.22,369.0122 " fill="none" style="stroke:#8B0000;stroke-width:4.0;"/><polygon fill="#8B0000" points="304.19,369.0122,304.2185,369.0762,302.3339,368.086,300.6162,367.4711,298.8441,366.734,296.8934,365.5949,295.19,365.0122,295.1717,364.9939,295.8895,365.7117,296.6996,366.5218,297.5739,367.3961,298.227,368.0493,299.19,369.0122,299.3205,369.1427,298.2414,369.6637,297.5434,370.5656,296.8918,371.514,295.9698,372.192,295.19,373.0122,295.1992,373.033,296.9857,372.2025,298.8142,371.4666,300.6224,370.6851,302.4693,369.9906,304.19,369.0122" style="stroke:#8B0000;stroke-width:4.0;"/><text fill="#000000" font-family="Chalkduster" font-size="24" lengthAdjust="spacing" textLength="101" x="186.25" y="358.8531">creator</text></g><!--reverse link m to m1--><g id="link_m_m1"><path d="M516.63,209.4822 L516.7863,209.7148 L524.6103,214.5948 L533.3506,220.8382 L541.7925,226.6377 L549.2531,230.977 L558.0143,237.2515 L566.0433,242.4366 L574.3637,248.0552 L582.8867,253.9752 L590.7116,258.8566 L599.926,265.8054 L607.3338,270.0663 L615.944,276.116 L624.7008,282.3839 L632.6041,287.382 L641.0071,293.1235 L649.221,298.5837 L657.6659,304.3877 L665.9994,310.0258 L674.11,315.3322 " fill="none" style="stroke:#8B0000;stroke-width:4.0;"/><polygon fill="#8B0000" points="512.82,206.2422,512.8793,206.2796,513.7531,207.8352,514.9745,209.6098,516.0826,211.313,516.8187,212.7819,518.0699,214.5752,518.0445,214.5702,517.7112,213.4377,517.506,212.3306,517.3899,211.241,516.9668,210.0909,516.9737,209.0256,517.0094,209.2066,518.0429,208.6002,519.1807,208.5224,520.3313,208.5091,521.4078,208.1206,522.5233,207.9294,522.5272,207.9518,520.5808,207.5814,518.6522,207.3131,516.715,206.9956,514.7941,206.772,512.82,206.2422" style="stroke:#8B0000;stroke-width:4.0;"/><text fill="#000000" font-family="Chalkduster" font-size="24" lengthAdjust="spacing" textLength="145" x="596.5" y="260.6331">instanceOf</text></g><!--reverse link m to m2--><g id="link_m_m2"><path d="M322.75,209.4222 L322.9067,209.6546 L314.318,214.4405 L306.6477,220.5885 L298.6784,226.293 L289.7257,230.5388 L282.0763,236.7179 L273.6932,241.8086 L265.6021,247.3324 L257.7139,253.1574 L249.1263,257.9447 L241.9311,264.7975 L232.9255,268.9649 L225.1247,274.9194 L217.4709,281.0919 L208.9619,285.9958 L200.9535,291.6424 L192.7557,297.0079 L184.7894,302.717 L176.7114,308.2603 L168.41,313.4722 " fill="none" style="stroke:#8B0000;stroke-width:4.0;"/><polygon fill="#8B0000" points="326.46,206.2422,326.4721,206.3112,324.496,206.4467,322.5909,206.9867,320.6627,207.395,318.6584,207.3701,316.7594,207.9448,316.7544,207.9194,317.8424,208.0228,318.9554,208.2543,320.0859,208.575,321.1562,208.5886,322.3108,209.0322,322.4919,209.0677,321.8871,210.1021,321.8111,211.2401,321.7997,212.3907,321.4128,213.4678,321.2234,214.5836,321.2427,214.5957,322.2617,212.9096,323.3684,211.2787,324.4329,209.6211,325.578,208.0143,326.46,206.2422" style="stroke:#8B0000;stroke-width:4.0;"/><text fill="#000000" font-family="Chalkduster" font-size="24" lengthAdjust="spacing" textLength="145" x="284.5" y="260.6331">instanceOf</text></g><!--SRC=[TP1HIyCm58NVyokkVKzTmgHGP8Xx6YWJVHt8jRjj0sbQabkmYF_TD7Cgp3xU0pdVTt9bN6N78xrsw2R8y-iZCifuO4CTEPQ19qivlxCGRDXI2K_aG-_WnU4GsZxcdYf6rrY2x86OoOFA00DOOWKVubE8uVGaUqG_mJEPjmcGGQyExewduQVpC5FBb9kmSo6sLl5cFr8gx1I8L7ehlMbQbdDIGkK9kVTYYRDUuAmNEJfnTEHOgcUC_ekvtAlFUtNQUzROekkTgT32hz25IlnmsjVtndDRWYgAGgvkf3erTY8EbECWDz150_Ejkgz5DFet_m80]--></g></svg>