<?xml version="1.0" encoding="us-ascii" standalone="no"?><svg xmlns="http://www.w3.org/2000/svg" xmlns:xlink="http://www.w3.org/1999/xlink" contentStyleType="text/css" height="627px" preserveAspectRatio="none" style="width:1180px;height:627px;background:#FFFFFF;" version="1.1" viewBox="0 0 1180 627" width="1180px" zoomAndPan="magnify"><defs/><g><text fill="#000000" font-family="Chalkduster" font-size="42" font-weight="bold" lengthAdjust="spacing" textLength="516" x="325" y="51.7215">Person Specialization</text><!--entity let1--><g id="elem_let1"><polygon fill="none" points="553.5,434.0512,553.5,434.2613,563.6667,433.6368,573.8333,434.2444,584,434.4508,594.1667,433.3378,604.3333,433.9734,614.5,433.6247,624.6667,433.6677,634.8333,433.983,645,433.3598,655.1667,434.6048,665.3333,433.4209,675.5,434.0512,675.4748,433.9903,675.9087,434.3306,676.1962,434.3176,676.5694,434.5115,676.9101,434.6271,677.2678,434.7834,677.3227,434.8062,677.4879,435.1675,677.741,435.5652,677.9138,435.9297,678.0627,436.2843,678,436.5512,678.2546,436.5512,678.4636,445.6771,678.7022,454.8031,677.2788,463.9291,678.6785,473.055,678,482.181,677.9087,482.1432,678.0179,482.6026,677.5547,482.825,677.5396,483.2329,677.6426,483.6898,677.2678,483.9488,677.2616,483.9338,676.9276,484.1276,676.6039,484.3459,676.2602,484.5163,675.8531,484.5333,675.5,484.681,675.5,484.9682,665.3333,484.1086,655.1667,484.9654,645,485.2292,634.8333,485.1255,624.6667,485.294,614.5,484.1979,604.3333,484.0288,594.1667,484.0596,584,484.6221,573.8333,484.4845,563.6667,485.3624,553.5,484.681,553.4777,484.6272,553.1027,484.4289,552.822,484.4584,552.3543,484.0363,552.0196,483.9353,551.7322,483.9488,551.9321,484.0315,551.72,483.6508,551.6655,483.3353,551.1938,482.8471,551.2447,482.5753,551,482.181,551.5904,482.181,550.5276,473.055,550.9041,463.9291,551.126,454.8031,551.6518,445.6771,551,436.5512,550.9987,436.5506,551.2889,436.2566,551.1223,435.7734,551.2308,435.4041,551.7409,435.2012,551.7322,434.7834,551.6408,434.5626,552.1507,434.7937,552.4657,434.5541,552.7587,434.2615,553.1013,434.0887,553.5,434.0512" style="stroke:#181818;stroke-width:4.0;"/><text fill="#000000" font-family="Chalkduster" font-size="24" lengthAdjust="spacing" textLength="107" x="561" y="467.892">Letter 1</text></g><!--entity let2--><g id="elem_let2"><polygon fill="none" points="449,434.0512,449,434.2613,458.2857,433.6368,467.5714,434.2444,476.8571,434.4508,486.1429,433.3378,495.4286,433.9734,504.7143,433.6247,514,434.0512,513.9511,433.9331,514.3449,434.1766,514.6189,434.1311,515.1313,434.661,515.3338,434.4428,515.7678,434.7834,515.7069,434.7582,516.0472,435.192,516.0342,435.4796,516.2281,435.8528,516.3437,436.1935,516.5,436.5512,516.6785,436.5512,516.7391,445.6771,517.0857,454.8031,517.1711,463.9291,517.1793,473.055,516.5,482.181,516.5784,482.2135,516.4963,482.5937,516.4234,482.9777,515.8386,483.1497,516.1232,483.6818,515.7678,483.9488,515.7299,483.8575,515.4823,484.2596,514.9975,484.0892,514.6984,484.367,514.4482,484.7629,514,484.681,514,484.6323,504.7143,484.7863,495.4286,485.0196,486.1429,485.0972,476.8571,484.6771,467.5714,484.9682,458.2857,484.1086,449,484.681,449.0363,484.7686,448.7164,484.7034,448.3496,484.525,448.0175,484.4304,447.5242,483.9464,447.2322,483.9488,447.0314,483.8656,446.8944,483.5159,446.9212,483.2341,446.7324,482.863,446.8563,482.6215,446.5,482.181,446.3253,482.181,446.1569,473.055,446.7283,463.9291,445.8332,454.8031,445.9809,445.6771,446.5,436.5512,446.6999,436.6339,446.7806,436.2532,447.0191,435.9377,446.8402,435.4495,447.1841,435.1777,447.2322,434.7834,447.3075,434.9652,447.5255,434.4915,447.9271,434.461,448.309,434.3829,448.7296,434.3983,449,434.0512" style="stroke:#181818;stroke-width:4.0;"/><text fill="#000000" font-family="Chalkduster" font-size="24" lengthAdjust="spacing" textLength="50" x="456.5" y="467.892">let2</text></g><!--entity m1--><g id="elem_m1"><polygon fill="#F1F1F1" points="916.1266,428.0469,912.8282,432.5538,908.9268,439.155,903.347,443.6037,897.4837,446.0364,892.8086,446.2476,886.7998,443.2051,881.1302,441.2175,876.8269,437.1819,874.5696,432.562,873.2309,428.8834,871.9194,424.0785,869.7907,419.9437,871.4265,415.9067,872.8597,411.4844,878.2379,407.9868,882.0217,403.4488,886.7051,401.9418,892.2728,400.644,899.4128,401.4151,903.3234,403.2594,907.8702,404.0954,913.3986,409.7594,915.3257,415.7388,916.163,419.8187,915.2146,426.5418" style="stroke:#181818;stroke-width:0.5;"/><polygon fill="#F1F1F1" points="838.0023,445.0758,838.0023,445.286,848.0928,444.6615,858.1833,445.2691,868.2738,445.4755,878.3643,444.3624,888.4548,444.9981,898.5452,444.6493,908.6357,444.6923,918.7262,445.0076,928.8167,444.3844,938.9072,445.6294,948.9977,445.0758,948.9173,444.8817,952.1548,446.333,955.4174,447.8451,958.5337,449.0038,961.7356,450.3694,964.9092,451.6665,964.8994,451.6625,966.2824,454.8716,967.6192,458.0617,969.0441,461.2882,970.3885,464.4814,971.5,467.5781,971.7264,467.5781,971.5849,473.2976,971.6545,479.0171,971.7341,484.7366,971.2596,490.4562,971.5,496.1757,971.709,496.2622,970.0905,499.3202,969.0281,502.6084,967.3931,505.6594,966.2063,508.8962,964.9092,512.0872,965.0038,512.3156,961.7207,513.3904,958.558,514.7559,955.4055,516.146,952.2331,517.488,948.9977,518.678,948.9977,518.6741,938.9072,518.9652,928.8167,518.1056,918.7262,518.9624,908.6357,519.2262,898.5452,519.1225,888.4548,519.291,878.3643,518.1949,868.2738,518.0258,858.1833,518.0566,848.0928,518.6191,838.0023,518.678,837.9772,518.6175,834.9069,517.5697,831.6154,515.9879,828.4116,514.6179,825.3022,513.4757,822.0908,512.0872,821.8854,512.0021,820.6127,508.8387,819.6543,505.8054,818.2705,502.5959,817.0443,499.4517,815.5,496.1757,815.3927,496.1757,815.6064,490.4562,815.6968,484.7366,815.3425,479.0171,815.468,473.2976,815.5,467.5781,815.5388,467.5941,817.0189,464.4789,818.135,461.2129,819.5969,458.0902,820.6021,454.7782,822.0908,451.6665,822.0044,451.458,825.3373,450.5035,828.3639,448.8094,831.7026,447.8688,834.8464,446.4576,838.0023,445.0758" style="stroke:#181818;stroke-width:0.5;"/><text fill="#000000" font-family="Chalkduster" font-size="14" lengthAdjust="spacing" textLength="136" x="825.5" y="468.983">Mary Reiby at 20</text><text fill="#000000" font-family="Chalkduster" font-size="14" lengthAdjust="spacing" textLength="110" x="825.5" y="486.8504">@type: Person</text><text fill="#000000" font-family="Chalkduster" font-size="14" lengthAdjust="spacing" textLength="59" x="825.5" y="504.7178">age: 20</text></g><g id="elem_GMN5"><path d="M614,580.0312 L614.1868,580.0312 L613.6317,588.1571 L614.1718,596.2831 L614.3553,604.4091 L613.3659,612.535 L614,620.661 L614,620.661 L614,620.4538 L623.9821,619.5237 L633.9643,619.6383 L643.9464,620.4792 L653.9286,618.8173 L663.9107,622.1374 L673.8929,618.9802 L683.875,620.1336 L693.8571,621.8129 L703.8393,620.4323 L713.8214,620.843 L723.8036,620.5758 L733.7857,621.1371 L743.7679,621.2987 L753.75,622.2228 L763.7321,622.4505 L773.7143,622.4723 L783.6964,621.34 L793.6786,621.8972 L803.6607,622.5336 L813.6429,618.7378 L823.625,622.4704 L833.6071,619.8703 L843.5893,622.0845 L853.5714,619.3409 L863.5536,620.4783 L873.5357,622.6386 L883.5179,620.531 L893.5,620.9418 L903.4821,621.564 L913.4643,621.7709 L923.4464,620.6506 L933.4286,621.4269 L943.4107,619.1345 L953.3929,621.4194 L963.375,622.1228 L973.3571,621.8464 L983.3393,622.2957 L993.3214,619.3728 L1003.3036,618.9218 L1013.2857,619.0039 L1023.2679,620.504 L1033.25,620.1369 L1043.2321,622.4781 L1053.2143,620.1952 L1063.1964,619.7462 L1073.1786,621.2697 L1083.1607,618.8828 L1093.1429,619.2767 L1103.125,622.3915 L1113.1071,621.8228 L1123.0893,622.6196 L1133.0714,619.8029 L1143.0536,621.5122 L1153.0357,622.2354 L1163.0179,619.4012 L1173,620.661 L1173,620.661 L1172.9148,620.661 L1173.112,614.535 L1173.5793,608.4091 L1172.9963,602.2831 L1173.4112,596.1571 L1173,590.0312 L1172.6519,589.6831 L1170.5743,587.6055 L1169.3165,586.3477 L1166.5494,583.5805 L1165.3199,582.3511 L1163,580.0312 L1163,580.5822 L1153.1667,579.3167 L1143.3333,579.0878 L1133.5,581.2545 L1123.6667,579.2329 L1113.8333,581.6095 L1104,578.5572 L1094.1667,581.6776 L1084.3333,581.3226 L1074.5,580.6844 L1064.6667,580.1571 L1054.8333,581.9688 L1045,581.6674 L1035.1667,580.4825 L1025.3333,580.7463 L1015.5,579.6838 L1005.6667,581.9417 L995.8333,580.4441 L986,580.4914 L976.1667,578.4089 L966.3333,578.9506 L956.5,581.4465 L946.6667,581.1772 L936.8333,579.9167 L927,579.172 L917.1667,579.4474 L907.3333,578.2014 L897.5,580.0312 L898.6036,580.1034 L898.8013,569.9716 L897.5674,559.7461 L897.3492,549.5872 L894.4695,539.254 L894.3988,529.1047 L893.5,518.9012 L892.4686,518.8337 L893.5892,529.139 L892.8233,539.3208 L892.9699,549.5623 L890.2222,559.6145 L889.809,569.8194 L889.5,580.0312 L889.5,581.2137 L879.6607,581.5441 L869.8214,578.6644 L859.9821,579.5141 L850.1429,580.4292 L840.3036,578.4022 L830.4643,580.9735 L820.625,580.7191 L810.7857,579.7625 L800.9464,580.4105 L791.1071,581.9743 L781.2679,579.1968 L771.4286,580.8711 L761.5893,580.7929 L751.75,580.3399 L741.9107,580.407 L732.0714,580.3338 L722.2321,578.3667 L712.3929,578.9623 L702.5536,578.8004 L692.7143,580.2014 L682.875,580.2662 L673.0357,580.4625 L663.1964,579.2552 L653.3571,579.8511 L643.5179,579.7106 L633.6786,581.5694 L623.8393,581.1687 L614,580.0312 L614,580.0312 " fill="#FFFFE0" style="stroke:#181818;stroke-width:4.0;"/><path d="M1163,580.0312 L1163.1868,580.0312 L1162.6317,582.0312 L1163.1718,584.0312 L1163.3553,586.0312 L1162.3659,588.0312 L1163,590.0312 L1163,589.9621 L1165,589.6521 L1167,589.6903 L1169,589.9706 L1171,589.4166 L1173,590.0312 L1173.348,590.3791 L1170.6038,587.635 L1168.8757,585.9069 L1167.2715,584.3027 L1164.9461,581.9772 L1163,580.0312 " fill="#FFFFE0" style="stroke:#181818;stroke-width:4.0;"/><text fill="#000000" font-family="Chalkduster" font-size="24" lengthAdjust="spacing" textLength="538" x="620" y="608.872">This is a point in time version of Mary</text></g><!--entity m2--><g id="elem_m2"><polygon fill="#F1F1F1" points="251.4864,428.1317,248.1355,432.7103,244.1721,439.4164,238.5036,443.9358,232.547,446.4072,227.7976,446.6217,221.6933,443.5309,215.9335,441.5117,211.5618,437.412,209.2686,432.7186,207.9086,428.9815,206.5763,424.1002,204.4138,419.8997,206.0756,415.7984,207.5315,411.3058,212.9953,407.7527,216.8392,403.1425,221.5971,401.6115,227.2533,400.2932,234.5068,401.0765,238.4796,402.9501,243.0987,403.7993,248.7149,409.5534,250.6727,415.6279,251.5234,419.7726,250.5599,426.6027" style="stroke:#181818;stroke-width:0.5;"/><polygon fill="#F1F1F1" points="170.8601,445.4313,170.8601,445.6415,180.4667,445.017,190.0734,445.6246,199.68,445.831,209.2867,444.7179,218.8933,445.3536,228.5,445.0048,238.1067,445.0478,247.7133,445.3632,257.32,444.7399,266.9266,445.985,276.5333,444.801,286.1399,445.4313,286.1147,445.3704,289.4279,446.9034,292.5948,448.0831,295.8473,449.4697,299.0675,450.7779,302.3044,452.1269,302.3594,452.1496,303.7172,455.3903,305.163,458.6674,306.5284,461.9112,307.8701,465.1451,309,468.2914,309.0849,468.2914,309.1545,473.8678,309.2341,479.4442,308.7596,485.0206,309.2262,490.597,309,496.1734,308.9087,496.1356,307.8253,499.4744,306.1693,502.5761,304.9616,505.8634,303.8719,509.1997,302.3044,512.338,302.2982,512.323,299.085,513.7095,295.8818,515.1205,292.6588,516.4835,289.3723,517.6932,286.1399,519.0335,286.1399,519.3207,276.5333,518.4611,266.9266,519.3179,257.32,519.5817,247.7133,519.4781,238.1067,519.6465,228.5,518.5504,218.8933,518.3813,209.2867,518.4121,199.68,518.9746,190.0734,518.837,180.4667,519.7149,170.8601,519.0335,170.8378,518.9797,167.5834,517.5888,164.4234,516.4256,161.0763,514.8108,157.8622,513.5172,154.6956,512.338,154.8954,512.4207,153.4906,509.1606,152.2435,505.9658,150.5791,502.5982,149.4374,499.4471,148,496.1734,148.1968,496.1734,147.8425,490.597,147.968,485.0206,148.042,479.4442,148.2173,473.8678,148,468.2914,147.9987,468.2909,149.4816,465.1175,150.5077,461.7549,151.8088,458.5063,153.5115,455.424,154.6956,452.1269,154.6041,451.9061,157.9934,450.9445,161.1877,449.5123,164.3601,448.027,167.582,446.6615,170.8601,445.4313" style="stroke:#181818;stroke-width:0.5;"/><text fill="#000000" font-family="Chalkduster" font-size="14" lengthAdjust="spacing" textLength="141" x="158" y="469.3385">Mary Reiby at 40</text><text fill="#000000" font-family="Chalkduster" font-size="14" lengthAdjust="spacing" textLength="110" x="158" y="487.2059">@type: Person</text><text fill="#000000" font-family="Chalkduster" font-size="14" lengthAdjust="spacing" textLength="64" x="158" y="505.0733">age: 40</text></g><!--entity m--><g id="elem_m"><polygon fill="#F1F1F1" points="586.4379,214.581,582.6567,219.7475,578.1844,227.3147,571.7881,232.4144,565.0667,235.2031,559.7074,235.4452,552.8193,231.9575,546.32,229.679,541.3869,225.0528,538.7992,219.7568,537.2646,215.5399,535.7613,210.0318,533.321,205.2919,535.1962,200.6641,536.8391,195.5946,543.0044,191.5852,547.3419,186.383,552.7107,184.6556,559.0933,183.1679,567.2781,184.0518,571.761,186.166,576.9732,187.1243,583.3106,193.6172,585.5198,200.4717,586.4796,205.1486,585.3924,212.8556" style="stroke:#181818;stroke-width:0.5;"/><polygon fill="#F1F1F1" points="483.7954,234.1019,483.7954,234.3121,494.0226,233.6876,504.2499,234.2952,514.4772,234.5016,524.7045,233.3885,534.9318,234.0242,545.1591,233.6754,555.3864,233.7184,565.6136,234.0337,575.8409,233.4105,586.0682,234.6555,596.2955,233.4716,606.5228,233.9041,616.7501,234.5338,626.9774,234.0161,637.2046,234.1019,637.2133,234.1229,640.8486,235.6031,644.5234,237.179,648.1792,238.7087,651.8714,240.3265,655.4447,241.6572,655.6514,241.7428,657.165,245.3918,658.5452,248.9857,660.1207,252.6604,661.7052,256.3388,663,259.8973,662.7596,259.8973,663.2262,264.2995,662.9012,268.7018,663.1779,273.1041,662.835,277.5064,663,281.9087,662.9789,281.9,661.7173,285.6513,659.9629,289.1985,658.4993,292.8662,657.0601,296.544,655.4447,300.1488,655.4978,300.277,651.7962,301.6587,648.1853,303.2594,644.4276,304.5057,640.8889,306.2806,637.2046,307.7041,637.2046,308.2523,626.9774,308.1486,616.7501,308.3171,606.5228,307.221,596.2955,307.0519,586.0682,307.0827,575.8409,307.6452,565.6136,307.5076,555.3864,308.3855,545.1591,307.5294,534.9318,307.361,524.7045,307.9324,514.4772,307.0373,504.2499,307.185,494.0226,308.353,483.7954,307.7041,483.8509,307.8383,480.241,306.4192,476.4583,304.5829,472.892,303.2692,469.2786,301.8417,465.5553,300.1488,465.4098,300.0885,464.0147,296.4886,462.572,292.8688,461.2228,289.2879,459.5098,285.5562,458,281.9087,458.1542,281.9087,457.8154,277.5064,457.7742,273.1041,458.1679,268.7018,457.761,264.2995,458,259.8973,458.1567,259.9622,459.5747,256.2756,460.9396,252.567,462.4242,248.9081,464.1855,245.3637,465.5553,241.6572,465.5171,241.565,469.2788,240.3284,472.7808,238.4648,476.5781,237.3141,480.2091,235.7621,483.7954,234.1019" style="stroke:#181818;stroke-width:0.5;"/><text fill="#000000" font-family="Chalkduster" font-size="14" lengthAdjust="spacing" textLength="88" x="468" y="258.0091">Mary Reiby</text><text fill="#000000" font-family="Chalkduster" font-size="14" lengthAdjust="spacing" textLength="110" x="468" y="275.8765">@type: Person</text><text fill="#000000" font-family="Chalkduster" font-size="14" lengthAdjust="spacing" textLength="185" x="468" y="293.7439">dateOfBirth: 1777-05-12</text></g><g id="elem_GMN17"><path d="M6,80.8912 L6.1868,80.8912 L5.6317,89.0171 L6.1718,97.1431 L6.3553,105.2691 L5.3659,113.395 L6,121.521 L6,121.521 L6,121.3138 L16.0091,120.3837 L26.0182,120.4983 L36.0273,121.3392 L46.0364,119.6773 L56.0455,122.9974 L66.0545,119.8402 L76.0636,120.9936 L86.0727,122.6729 L96.0818,121.2923 L106.0909,121.703 L116.1,121.4358 L126.1091,121.9971 L136.1182,122.1587 L146.1273,123.0828 L156.1364,123.3105 L166.1455,123.3323 L176.1545,122.2 L186.1636,122.7572 L196.1727,123.3936 L206.1818,119.5978 L216.1909,123.3304 L226.2,120.7303 L236.2091,122.9445 L246.2182,120.2009 L256.2273,121.3383 L266.2364,123.4986 L276.2455,121.391 L286.2545,121.8018 L296.2636,122.424 L306.2727,122.6309 L316.2818,121.5106 L326.2909,122.2869 L336.3,119.9945 L346.3091,122.2794 L356.3182,122.9828 L366.3273,122.7064 L376.3364,123.1557 L386.3455,120.2328 L396.3545,119.7818 L406.3636,119.8639 L416.3727,121.364 L426.3818,120.9969 L436.3909,123.3381 L446.4,121.0552 L456.4091,120.6062 L466.4182,122.1297 L476.4273,119.7428 L486.4364,120.1367 L496.4455,123.2515 L506.4545,122.6828 L516.4636,123.4796 L526.4727,120.6629 L536.4818,122.3722 L546.4909,123.0954 L556.5,121.521 L555.243,121.4381 L556.9116,131.6109 L558.1686,141.7565 L560.2343,151.9555 L559.1555,161.947 L561.0642,172.1357 L560.5,182.1612 L559.0264,182.064 L559.3646,171.9356 L563.1734,162.0362 L560.5923,151.7152 L564.521,141.8237 L564.3831,131.664 L564.5,121.521 L564.5,120.8065 L574.5091,120.5776 L584.5182,122.7444 L594.5273,120.7228 L604.5364,123.0993 L614.5455,120.047 L624.5545,123.1675 L634.5636,122.8125 L644.5727,122.1742 L654.5818,121.6469 L664.5909,123.4586 L674.6,123.1572 L684.6091,121.9723 L694.6182,122.2362 L704.6273,121.1736 L714.6364,123.4315 L724.6455,121.934 L734.6545,121.9812 L744.6636,119.8987 L754.6727,120.4404 L764.6818,122.9363 L774.6909,122.667 L784.7,121.4065 L794.7091,120.6619 L804.7182,120.9372 L814.7273,119.6912 L824.7364,122.627 L834.7455,123.4932 L844.7545,122.9247 L854.7636,123.3741 L864.7727,121.1564 L874.7818,121.7536 L884.7909,120.4874 L894.8,122.2784 L904.8091,122.179 L914.8182,122.994 L924.8273,120.9086 L934.8364,121.1626 L944.8455,122.7036 L954.8545,123.0339 L964.8636,120.1542 L974.8727,121.004 L984.8818,121.919 L994.8909,119.8921 L1004.9,122.4634 L1014.9091,122.209 L1024.9182,121.2523 L1034.9273,121.9003 L1044.9364,123.4641 L1054.9455,120.6867 L1064.9545,122.361 L1074.9636,122.2827 L1084.9727,121.8297 L1094.9818,121.8968 L1104.9909,121.8236 L1115,121.521 L1115,121.521 L1114.4452,121.521 L1114.6437,115.395 L1114.5897,109.2691 L1115.0567,103.1431 L1115.0783,97.0171 L1115,90.8912 L1115.1017,90.9928 L1112.8171,88.7083 L1110.9576,86.8487 L1108.9244,84.8156 L1107.3626,83.2537 L1105,80.8912 L1105,82.0287 L1095.0091,79.5964 L1085.0182,80.6967 L1075.0273,79.3519 L1065.0364,81.6602 L1055.0455,82.5138 L1045.0545,82.3433 L1035.0636,79.7297 L1025.0727,82.1284 L1015.0818,78.9103 L1005.0909,81.4249 L995.1,80.093 L985.1091,81.1491 L975.1182,81.5321 L965.1273,82.1501 L955.1364,78.9714 L945.1455,82.1591 L935.1545,81.3663 L925.1636,81.8387 L915.1727,82.8853 L905.1818,80.9058 L895.1909,81.3586 L885.2,81.4603 L875.2091,81.4171 L865.2182,80.889 L855.2273,82.7864 L845.2364,79.2652 L835.2455,82.3986 L825.2545,79.2272 L815.2636,79.4503 L805.2727,80.9979 L795.2818,80.9666 L785.2909,79.5769 L775.3,81.9944 L765.3091,81.1814 L755.3182,82.8289 L745.3273,82.6701 L735.3364,79.6958 L725.3455,79.83 L715.3545,80.5467 L705.3636,81.8392 L695.3727,81.9658 L685.3818,81.6942 L675.3909,79.9793 L665.4,82.5881 L655.4091,82.5813 L645.4182,80.7651 L635.4273,80.2537 L625.4364,79.8208 L615.4455,80.3189 L605.4545,81.2576 L595.4636,80.7088 L585.4727,79.777 L575.4818,82.1908 L565.4909,79.6673 L555.5,82.2308 L545.5091,82.0305 L535.5182,81.8828 L525.5273,82.7378 L515.5364,80.2355 L505.5455,80.0894 L495.5545,82.2748 L485.5636,79.2994 L475.5727,80.2672 L465.5818,81.1991 L455.5909,81.0743 L445.6,79.9353 L435.6091,80.7766 L425.6182,82.8767 L415.6273,82.6204 L405.6364,79.3011 L395.6455,81.1005 L385.6545,79.5208 L375.6636,80.821 L365.6727,81.6725 L355.6818,82.0108 L345.6909,79.1186 L335.7,81.9593 L325.7091,80.9136 L315.7182,79.4102 L305.7273,79.635 L295.7364,81.7621 L285.7455,81.5574 L275.7545,80.8473 L265.7636,79.0989 L255.7727,82.6462 L245.7818,80.0596 L235.7909,79.483 L225.8,80.7116 L215.8091,82.4637 L205.8182,82.5323 L195.8273,80.9848 L185.8364,80.488 L175.8455,81.3439 L165.8545,81.3878 L155.8636,79.5371 L145.8727,81.995 L135.8818,82.3813 L125.8909,80.3158 L115.9,79.7467 L105.9091,82.6902 L95.9182,80.9472 L85.9273,80.8907 L75.9364,81.6886 L65.9455,79.1693 L55.9545,82.3044 L45.9636,80.85 L35.9727,82.6746 L25.9818,80.3155 L15.9909,81.9818 L6,80.8912 L6,80.8912 " fill="#FFFFE0" style="stroke:#181818;stroke-width:4.0;"/><path d="M1105,80.8912 L1105.1868,80.8912 L1104.6317,82.8912 L1105.1718,84.8912 L1105.3553,86.8912 L1104.3659,88.8912 L1105,90.8912 L1105,90.8221 L1107,90.5121 L1109,90.5503 L1111,90.8306 L1113,90.2766 L1115,90.8912 L1115.348,91.2391 L1112.6038,88.495 L1110.8757,86.7669 L1109.2715,85.1627 L1106.9461,82.8372 L1105,80.8912 " fill="#FFFFE0" style="stroke:#181818;stroke-width:4.0;"/><text fill="#000000" font-family="Chalkduster" font-size="24" lengthAdjust="spacing" textLength="1088" x="12" y="109.732">This is the 'canonical' or 'main' Mary -- define this once with a participant ID</text></g><!--reverse link let1 to m1--><g id="link_let1_m1"><path d="M683.96,459.3712 L683.96,459.6514 L694.0531,458.8187 L704.1462,459.6289 L714.2392,459.9041 L724.3323,458.42 L734.4254,459.2675 L744.5185,458.8025 L754.6115,458.8598 L764.7046,459.2803 L774.7977,458.4493 L784.8908,460.1094 L794.9838,458.5308 L805.0769,459.1075 L815.17,459.3712 " fill="none" style="stroke:#8B0000;stroke-width:4.0;"/><polygon fill="#8B0000" points="679.16,459.3712,679.1885,459.4352,680.9039,460.045,682.7862,461.03,684.6141,461.8929,686.2634,462.3539,688.16,463.3712,688.1417,463.3528,687.2595,462.4706,686.4696,461.6808,685.7439,460.9551,684.797,460.0082,684.16,459.3712,684.2905,459.5017,684.8114,458.4226,685.7134,457.7245,686.6618,457.073,687.3398,456.1509,688.16,455.3712,688.1692,455.3919,686.3557,456.1614,684.5842,457.0255,682.7924,457.844,681.0393,458.7496,679.16,459.3712" style="stroke:#8B0000;stroke-width:4.0;"/><text fill="#000000" font-family="Chalkduster" font-size="24" lengthAdjust="spacing" textLength="101" x="696.25" y="449.212">creator</text></g><!--link m2 to let2--><g id="link_m2_let2"><path d="M309.25,459.3712 L309.25,459.6514 L319.3246,458.8187 L329.3992,459.6289 L339.4738,459.9041 L349.5485,458.42 L359.6231,459.2675 L369.6977,458.8025 L379.7723,458.8598 L389.8469,459.2803 L399.9215,458.4493 L409.9962,460.1094 L420.0708,458.5308 L430.1454,459.1075 L440.22,459.3712 " fill="none" style="stroke:#8B0000;stroke-width:4.0;"/><polygon fill="#8B0000" points="445.19,459.3712,445.2185,459.4352,443.3339,458.445,441.6162,457.83,439.8441,457.0929,437.8934,455.9539,436.19,455.3712,436.1717,455.3528,436.8895,456.0706,437.6996,456.8808,438.5739,457.7551,439.227,458.4082,440.19,459.3712,440.3205,459.5017,439.2414,460.0226,438.5434,460.9245,437.8918,461.873,436.9698,462.5509,436.19,463.3712,436.1992,463.3919,437.9857,462.5614,439.8142,461.8255,441.6224,461.044,443.4693,460.3496,445.19,459.3712" style="stroke:#8B0000;stroke-width:4.0;"/><text fill="#000000" font-family="Chalkduster" font-size="24" lengthAdjust="spacing" textLength="101" x="327.25" y="449.212">creator</text></g><!--reverse link m to m1--><g id="link_m_m1"><path d="M662.74,311.2812 L662.8906,311.5175 L670.912,316.2137 L679.8163,322.2951 L688.4331,327.9255 L696.1043,332.0724 L705.0287,338.1855 L713.2477,343.1916 L721.7474,348.6383 L730.4423,354.3912 L738.4645,359.0888 L747.8257,365.887 L755.4461,369.9542 L764.2249,375.8388 L773.1451,381.9451 L781.243,386.7614 L789.8222,392.3329 L798.2193,397.6186 L806.8391,403.2536 L815.18,408.4512 " fill="none" style="stroke:#8B0000;stroke-width:4.0;"/><polygon fill="#8B0000" points="658.71,308.0812,658.7684,308.1199,659.6829,309.6469,660.9397,311.4008,662.0851,313.0808,662.8638,314.5179,664.1501,316.2913,664.1248,316.2857,663.7666,315.1559,663.5358,314.0544,663.3938,312.9726,662.9462,311.8231,662.9265,310.7683,662.9665,310.9485,663.9857,310.3185,665.1215,310.2145,666.2715,310.1748,667.3387,309.7616,668.4495,309.5448,668.4529,309.5673,666.5,309.2415,664.5625,309.0182,662.6176,308.7454,660.6869,308.567,658.71,308.0812" style="stroke:#8B0000;stroke-width:4.0;"/><text fill="#000000" font-family="Chalkduster" font-size="24" lengthAdjust="spacing" textLength="221" x="748.5" y="362.552">specializationOf</text></g><!--reverse link m to m2--><g id="link_m_m2"><path d="M458.67,311.2212 L458.821,311.4573 L450.0736,316.0613 L442.211,322.0494 L434.0604,327.5868 L424.9621,331.642 L417.1197,337.6616 L408.5704,342.5754 L400.3024,347.9292 L392.2299,353.589 L383.4835,358.1945 L376.0787,364.8987 L366.9296,368.8742 L358.9413,374.6657 L351.0947,380.6786 L342.424,385.4026 L334.2357,390.8812 L325.8648,396.0742 L317.7171,401.6162 L309.29,406.7212 " fill="none" style="stroke:#8B0000;stroke-width:4.0;"/><polygon fill="#8B0000" points="462.58,308.0812,462.5906,308.1504,460.612,308.2421,458.6954,308.7397,456.7585,309.1051,454.7553,309.0358,452.8441,309.5682,452.8385,309.5429,453.9188,309.6714,455.0271,309.9275,456.1547,310.2722,457.2155,310.3113,458.3699,310.7785,458.5502,310.8179,457.9227,311.8387,457.8215,312.9747,457.7845,314.1248,457.3738,315.193,457.1597,316.3043,457.1787,316.3169,458.2349,314.6538,459.3775,313.0478,460.4784,311.4143,461.6589,309.8332,462.58,308.0812" style="stroke:#8B0000;stroke-width:4.0;"/><text fill="#000000" font-family="Chalkduster" font-size="24" lengthAdjust="spacing" textLength="221" x="415.5" y="362.552">specializationOf</text></g><!--SRC=[VP5BIyD0483l-ol6NdBQseHA8OY8U16KYdeio7GxQGRs4JPJDOh_tKtger8hx6LdTcQ-_UQ8lR6R5Jqwz1sCnySh5DJfWcjov4MtqbaQouie9IoMIhYbs0OFzmqPHiklA1oyKf6Ce5zRWj4rYL24V0JOWYN9uKszAzLi2qSt63ku8rvsW0B5PE7FfMk-Eo_wsMMA3-Kk1pMqEDMHrxNeFbA2YOGIeW8VX60PH8A3KALa2Gyrjv0EGXFO2x07OKVmbDedrFvPZt08Q7e0QFe9L0n0HGAoLFKynGxF7ngABmt5e65_wDwuj0EQLnSSfIuXdyrcUdAYysqVfzB_zQRHP-3ItFRN5kQLIZJ_PDMWIq8pkFfH9JL1Pj07pmPj1Y52vf1zDfW2hM555VjKsXS4RmYUMUfUCKPXmmqcqLUN7m00]--></g></svg>