<?xml version="1.0" encoding="us-ascii" standalone="no"?><svg xmlns="http://www.w3.org/2000/svg" xmlns:xlink="http://www.w3.org/1999/xlink" contentStyleType="text/css" height="816px" preserveAspectRatio="none" style="width:944px;height:816px;background:#FFFFFF;" version="1.1" viewBox="0 0 944 816" width="944px" zoomAndPan="magnify"><defs/><g><!--cluster ex--><g id="cluster_ex"><rect fill="none" height="103.49" rx="2.5" ry="2.5" style="stroke:#181818;stroke-width:1.0;" width="359" x="352" y="706.94"/><text fill="#000000" font-family="sans-serif" font-size="14" font-weight="bold" lengthAdjust="spacing" textLength="111" x="476" y="722.4752">Example Crates</text></g><!--cluster soss--><g id="cluster_soss"><rect fill="none" height="231.98" rx="2.5" ry="2.5" style="stroke:#181818;stroke-width:1.0;" width="284" x="7" y="136.99"/><text fill="#000000" font-family="sans-serif" font-size="14" font-weight="bold" lengthAdjust="spacing" textLength="268" x="15" y="152.5252">Schema.org Style Schema - RO-Crate</text></g><!--cluster RO-Crate Profile--><g id="cluster_RO-Crate Profile"><rect fill="none" height="87.48" rx="2.5" ry="2.5" style="stroke:#181818;stroke-width:1.0;" width="298" x="433" y="425.97"/><text fill="#000000" font-family="sans-serif" font-size="14" font-weight="bold" lengthAdjust="spacing" textLength="122" x="521" y="441.5052">RO-Crate Profile</text></g><!--cluster st--><g id="cluster_st"><rect fill="none" height="87.49" rx="2.5" ry="2.5" style="stroke:#181818;stroke-width:1.0;" width="381" x="231" y="562.45"/><text fill="#000000" font-family="sans-serif" font-size="14" font-weight="bold" lengthAdjust="spacing" textLength="100" x="371.5" y="577.9852">Schema-tools</text></g><!--entity Crate-1--><g id="elem_Crate-1"><rect fill="#F1F1F1" height="36.4883" rx="2.5" ry="2.5" style="stroke:#181818;stroke-width:0.5;" width="74" x="613" y="749.94"/><text fill="#000000" font-family="sans-serif" font-size="14" lengthAdjust="spacing" textLength="54" x="623" y="773.4752">Crate-1</text></g><!--entity Crate-2--><g id="elem_Crate-2"><rect fill="#F1F1F1" height="36.4883" rx="2.5" ry="2.5" style="stroke:#181818;stroke-width:0.5;" width="74" x="504" y="749.94"/><text fill="#000000" font-family="sans-serif" font-size="14" lengthAdjust="spacing" textLength="54" x="514" y="773.4752">Crate-2</text></g><!--entity Crate-n--><g id="elem_Crate-n"><rect fill="#F1F1F1" height="36.4883" rx="2.5" ry="2.5" style="stroke:#181818;stroke-width:0.5;" width="74" x="395" y="749.94"/><text fill="#000000" font-family="sans-serif" font-size="14" lengthAdjust="spacing" textLength="54" x="405" y="773.4752">Crate-n</text></g><!--entity Classes--><g id="elem_Classes"><rect fill="#F1F1F1" height="36.4883" rx="2.5" ry="2.5" style="stroke:#181818;stroke-width:0.5;" width="71" x="37.5" y="179.99"/><text fill="#000000" font-family="sans-serif" font-size="14" lengthAdjust="spacing" textLength="51" x="47.5" y="203.5252">Classes</text></g><!--entity Properties--><g id="elem_Properties"><rect fill="#F1F1F1" height="36.4883" rx="2.5" ry="2.5" style="stroke:#181818;stroke-width:0.5;" width="90" x="143" y="179.99"/><text fill="#000000" font-family="sans-serif" font-size="14" lengthAdjust="spacing" textLength="70" x="153" y="203.5252">Properties</text></g><!--entity Defined Terms--><g id="elem_Defined Terms"><rect fill="#F1F1F1" height="36.4883" rx="2.5" ry="2.5" style="stroke:#181818;stroke-width:0.5;" width="120" x="38" y="308.48"/><text fill="#000000" font-family="sans-serif" font-size="14" lengthAdjust="spacing" textLength="100" x="48" y="332.0152">Defined Terms</text></g><!--entity mode--><g id="elem_mode"><rect fill="#F1F1F1" height="36.4883" rx="2.5" ry="2.5" style="stroke:#181818;stroke-width:0.5;" width="146" x="750" y="460.97"/><text fill="#000000" font-family="sans-serif" font-size="14" lengthAdjust="spacing" textLength="126" x="760" y="484.5052">Crate-O Mode File</text></g><!--entity pt--><g id="elem_pt"><rect fill="#F1F1F1" height="36.4883" rx="2.5" ry="2.5" style="stroke:#181818;stroke-width:0.5;" width="99" x="615.5" y="460.97"/><text fill="#000000" font-family="sans-serif" font-size="14" lengthAdjust="spacing" textLength="79" x="625.5" y="484.5052">Profile Text</text></g><!--entity tp--><g id="elem_tp"><rect fill="#F1F1F1" height="36.4883" rx="2.5" ry="2.5" style="stroke:#181818;stroke-width:0.5;" width="132" x="449" y="460.97"/><text fill="#000000" font-family="sans-serif" font-size="14" lengthAdjust="spacing" textLength="112" x="459" y="484.5052">Profile Template</text></g><!--entity pg--><g id="elem_pg"><rect fill="#F1F1F1" height="36.4883" rx="2.5" ry="2.5" style="stroke:#181818;stroke-width:0.5;" width="98" x="498" y="597.45"/><text fill="#000000" font-family="sans-serif" font-size="14" lengthAdjust="spacing" textLength="78" x="508" y="620.9852">Profile-gen</text></g><!--entity mg--><g id="elem_mg"><rect fill="#F1F1F1" height="36.4883" rx="2.5" ry="2.5" style="stroke:#181818;stroke-width:0.5;" width="92" x="371" y="597.45"/><text fill="#000000" font-family="sans-serif" font-size="14" lengthAdjust="spacing" textLength="72" x="381" y="620.9852">Mode-gen</text></g><!--entity sg--><g id="elem_sg"><rect fill="#F1F1F1" height="36.4883" rx="2.5" ry="2.5" style="stroke:#181818;stroke-width:0.5;" width="89" x="246.5" y="597.45"/><text fill="#000000" font-family="sans-serif" font-size="14" lengthAdjust="spacing" textLength="69" x="256.5" y="620.9852">SOSS-gen</text></g><!--entity ms--><g id="elem_ms"><ellipse cx="823" cy="14" fill="#F1F1F1" rx="8" ry="8" style="stroke:#181818;stroke-width:0.5;"/><path d="M823,22 L823,49 M810,30 L836,30 M823,49 L810,64 M823,49 L836,64 " fill="none" style="stroke:#181818;stroke-width:0.5;"/><text fill="#000000" font-family="sans-serif" font-size="14" lengthAdjust="spacing" textLength="131" x="757.5" y="79.0352">Metadata Specialist</text></g><!--link ms to mode--><g id="link_ms_mode"><path d="M823,82.45 C823,169.8 823,383.96 823,454.93 " fill="none" id="ms-to-mode" style="stroke:#181818;stroke-width:1.0;"/><polygon fill="#181818" points="823,459.57,827,450.57,823,454.57,819,450.57,823,459.57" style="stroke:#181818;stroke-width:1.0;"/><text fill="#000000" font-family="sans-serif" font-size="13" lengthAdjust="spacing" textLength="112" x="824" y="260.0484">(3) Edit definitons</text><text fill="#000000" font-family="sans-serif" font-size="13" lengthAdjust="spacing" textLength="100" x="830" y="275.3589">Add constraints</text></g><!--reverse link soss to sg--><g id="link_soss_sg"><path d="M276.3546,369.7043 C276.3486,370.0462 276.3427,370.3879 276.3368,370.7295 C276.325,371.4127 276.3134,372.0953 276.3019,372.7772 C276.2789,374.141 276.2564,375.502 276.2345,376.8598 C276.1468,382.2912 276.0681,387.6713 276,392.97 C275.02,469.16 284.48,559.76 288.85,597.19 " fill="none" id="soss-backto-sg" style="stroke:#181818;stroke-width:1.0;"/><polygon fill="#181818" points="276.3546,369.7043,272.1985,378.6333,276.2675,374.7035,280.1973,378.7725,276.3546,369.7043" style="stroke:#181818;stroke-width:1.0;"/><text fill="#000000" font-family="sans-serif" font-size="13" lengthAdjust="spacing" textLength="75" x="277" y="406.5384">(1) Generate</text></g><!--reverse link mode to mg--><g id="link_mode_mg"><path d="M782.53,500.28 C766.71,507.62 748.26,515.55 731,521.45 C716.72,526.34 712.14,524.18 698,529.45 C682.54,535.22 680.95,542.22 665,546.45 C625.44,556.96 518.71,538.54 481,554.45 C459.77,563.41 441.32,582.76 429.75,597.13 " fill="none" id="mode-backto-mg" style="stroke:#181818;stroke-width:1.0;"/><polygon fill="#181818" points="786.79,497.83,776.9428,498.0129,782.2594,499.9452,780.3272,505.2618,786.79,497.83" style="stroke:#181818;stroke-width:1.0;"/><text fill="#000000" font-family="sans-serif" font-size="13" lengthAdjust="spacing" textLength="75" x="699" y="543.0184">(2) Generate</text></g><!--reverse link pt to pg--><g id="link_pt_pg"><path d="M631.91,500.87 C621.14,507.52 609.1,514.87 598,521.45 C591.84,525.11 588.78,524.12 584,529.45 C566.34,549.16 556.13,578.6 551.06,597.22 " fill="none" id="pt-backto-pg" style="stroke:#181818;stroke-width:1.0;"/><polygon fill="#181818" points="635.76,497.87,626.0027,499.2095,631.5096,500.5033,630.2159,506.0102,635.76,497.87" style="stroke:#181818;stroke-width:1.0;"/><text fill="#000000" font-family="sans-serif" font-size="13" lengthAdjust="spacing" textLength="75" x="585" y="543.0184">(4) Generate</text></g><!--reverse link mode to pg--><g id="link_mode_pg"><path d="M814.47,502.81 C807.92,517.26 797.52,535.31 783,546.45 C728.02,588.65 647.74,604.77 596.44,610.92 " fill="none" id="mode-backto-pg" style="stroke:#181818;stroke-width:1.0;"/><polygon fill="#181818" points="816.7,498.67,809.4356,505.3205,814.7012,503.2531,816.7685,508.5186,816.7,498.67" style="stroke:#181818;stroke-width:1.0;"/><text fill="#000000" font-family="sans-serif" font-size="13" lengthAdjust="spacing" textLength="23" x="799" y="543.0184">Use</text></g><!--reverse link tp to pg--><g id="link_tp_pg"><path d="M513.54,503.86 C513.29,516.62 513.86,532.56 517,546.45 C521.08,564.51 529.96,583.68 537.01,597.1 " fill="none" id="tp-backto-pg" style="stroke:#181818;stroke-width:1.0;"/><polygon fill="#181818" points="513.72,498.87,509.4646,507.7521,513.5772,503.868,517.4613,507.9806,513.72,498.87" style="stroke:#181818;stroke-width:1.0;"/><text fill="#000000" font-family="sans-serif" font-size="13" lengthAdjust="spacing" textLength="23" x="518" y="543.0184">Use</text></g><!--link mg to soss--><g id="link_mg_soss"><path d="M413.08,596.96 C400.83,542.96 360.76,376.33 305,246.48 C302.75,241.2375 300.1819,235.7631 297.5817,230.4767 C296.2816,227.8335 294.9736,225.2373 293.6932,222.7406 C293.0531,221.4922 292.4198,220.2687 291.798,219.0766 C291.6426,218.7786 291.4878,218.4826 291.3339,218.1886 C291.2569,218.0416 291.1801,217.8951 291.1035,217.7491 " fill="none" id="mg-to-soss" style="stroke:#181818;stroke-width:1.0;"/><polygon fill="#181818" points="291.1035,217.7491,291.7431,227.5772,293.4267,222.1767,298.8272,223.8602,291.1035,217.7491" style="stroke:#181818;stroke-width:1.0;"/><text fill="#000000" font-family="sans-serif" font-size="13" lengthAdjust="spacing" textLength="23" x="363" y="406.5384">Use</text></g><!--link sg to ex--><g id="link_sg_ex"><path d="M299.05,634.25 C308.01,653.79 322.915,686.3 335.7425,714.2788 C338.9494,721.2734 342.0264,727.9849 344.8482,734.1397 C346.2592,737.2172 347.6063,740.1554 348.8739,742.9203 C349.5078,744.3028 350.1217,745.6419 350.7138,746.9334 C351.0099,747.5791 351.3005,748.213 351.5854,748.8344 C351.6567,748.9897 351.7275,749.1443 351.798,749.2981 " fill="none" id="sg-to-ex" style="stroke:#181818;stroke-width:1.0;"/><polygon fill="#181818" points="351.798,749.2981,351.6832,739.4499,349.7142,744.753,344.4111,742.7841,351.798,749.2981" style="stroke:#181818;stroke-width:1.0;"/><text fill="#000000" font-family="sans-serif" font-size="13" lengthAdjust="spacing" textLength="23" x="323" y="679.5084">Use</text></g><!--link pg to ex--><g id="link_pg_ex"><path d="M522.12,634.28 C510.09,642.24 495.21,651.33 481,657.94 C437.8,678.05 411.51,656.11 379,690.94 C376.1138,694.0312 373.648,697.4919 371.5431,701.1871 C370.4907,703.0347 369.5286,704.941 368.6492,706.889 " fill="none" id="pg-to-ex" style="stroke:#181818;stroke-width:1.0;"/><polygon fill="#181818" points="368.6492,706.889,375.9978,700.3318,370.7064,702.3318,368.7063,697.0403,368.6492,706.889" style="stroke:#181818;stroke-width:1.0;"/><text fill="#000000" font-family="sans-serif" font-size="13" lengthAdjust="spacing" textLength="23" x="455" y="679.5084">Use</text></g><!--SRC=[VPC_JyCm4CNtV8fJ5kXWf1Oc1YHK2XCg8h2nMB4R8iL_v3j4KTNlpjbkahP4M1cSzxlpUxQJe6kIjkaqbAkjD9udoo19OmaIGMzXLm2FC9GbAkQi9x2Vn8l_iHrnmKynyhAgFxMHLouqKD4FAra00QzhaRfJC7I8VwALoquYSlHp_IKuhmEr4-X1Rrgh5RpfO9ZkJyBaj6juTah3OzknTpGtyJMRdpNq6O4TDwb-Dv4b4ZRSKjgAfrGoNSCNqc-P_9bPFXb1pdMOWo55lxyBYKRRxDN02OyR6w1fJbYrhgg1OHFDPKqkS9ScgIH9gBokMzcrc7TYi308GYZtROMuo-Tq2vVNCrYfba35isx9MVomzqf1pJCAihM4_15WmwrVFZQcs-N6-GoUjDNnH0l3cEcuwk88-XvwYkXc2lMDxtWaaZyeSVcKUt2FQWfraFbV69lFjJWkVW40]--></g></svg>